<svg width="24" height="24" viewBox="0 0 24 24" fill="none" xmlns="http://www.w3.org/2000/svg">
<path d="M13.1421 4.61377C13.3214 4.62048 13.5325 4.80788 13.9546 5.18311L18.9331 9.60791C19.8636 10.435 20.329 10.849 20.5005 11.3374C20.651 11.7662 20.6511 12.2338 20.5005 12.6626C20.329 13.1509 19.8634 13.5642 18.9331 14.3911L13.9546 18.8159C13.5323 19.1913 13.3214 19.3795 13.1421 19.3862C12.9865 19.392 12.8369 19.3247 12.7378 19.2046C12.6237 19.0661 12.6235 18.7833 12.6235 18.2183V15.4282C10.1955 15.4282 7.63091 16.2081 5.7583 17.5923C4.78341 18.313 4.29552 18.6739 4.10986 18.6597C3.92905 18.6457 3.81406 18.5748 3.72021 18.4194C3.624 18.26 3.70927 17.7617 3.87939 16.7661C4.98447 10.3002 9.4344 8.5708 12.6235 8.5708V5.78076C12.6235 5.2161 12.6238 4.93389 12.7378 4.79541C12.8369 4.67511 12.9863 4.60797 13.1421 4.61377Z" fill="#48465C"/>
</svg>
