<svg width="24" height="24" viewBox="0 0 24 24" fill="none" xmlns="http://www.w3.org/2000/svg">
<path fill-rule="evenodd" clip-rule="evenodd" d="M19.9762 2.88391C20.2692 2.59114 20.7439 2.59106 21.0368 2.88391C21.3294 3.17679 21.3295 3.65165 21.0368 3.94446L19.404 5.57727C20.6348 7.27243 20.6065 9.59762 19.319 11.2638L19.3229 11.296V11.3009L19.3239 11.3087L19.3268 11.3361C19.3292 11.3588 19.3329 11.3909 19.3366 11.4318C19.3439 11.5138 19.3528 11.6317 19.361 11.7804C19.3773 12.0778 19.39 12.5015 19.3757 13.0167C19.3472 14.0444 19.2114 15.4513 18.7809 16.9572C18.4899 17.9748 18.0369 18.9818 17.572 19.8624C16.4108 22.0614 13.7392 22.7179 11.696 21.6749L11.6716 21.6622L10.5514 20.9816C7.4417 19.0898 4.83101 16.4791 2.93914 13.3693L2.2575 12.2491L2.2448 12.2238C1.20184 10.1805 1.85841 7.50896 4.0573 6.34778C4.93798 5.88278 5.94568 5.42978 6.96355 5.1388C8.46938 4.70835 9.8763 4.57351 10.904 4.54505C11.4187 4.5308 11.8419 4.54242 12.1393 4.55872C12.2881 4.56687 12.4059 4.5768 12.488 4.58411C12.5287 4.58774 12.5609 4.59051 12.5837 4.5929L12.611 4.59583L12.6198 4.5968H12.6218L12.6227 4.59778L12.6559 4.60169C14.3221 3.31404 16.6482 3.28568 18.3434 4.51673L19.9762 2.88391ZM10.945 6.04407C10.0049 6.07012 8.72913 6.19426 7.37566 6.58118C6.49179 6.83386 5.58443 7.23733 4.7575 7.67395C3.35108 8.41671 2.88519 10.149 3.56902 11.5187L4.22039 12.589C5.98749 15.4938 8.42595 17.9322 11.3307 19.6993L12.402 20.3517C13.7718 21.0353 15.5031 20.5687 16.2458 19.1622C16.6823 18.3354 17.0868 17.4288 17.3395 16.545C17.7264 15.1914 17.8497 13.9148 17.8757 12.9747C17.8887 12.5061 17.8774 12.1242 17.863 11.8624C17.8602 11.8111 17.8571 11.7646 17.8542 11.7228L12.1979 6.06555C12.1561 6.06267 12.1087 6.05959 12.0573 6.05677C11.7955 6.04242 11.4137 6.03109 10.945 6.04407ZM17.8542 6.06555C16.7676 4.97913 15.1031 4.82282 13.8503 5.5968L18.3239 10.0704C19.0979 8.81748 18.9409 7.15221 17.8542 6.06555Z" fill="#1C274C"/>
</svg>
