<svg width="24" height="24" viewBox="0 0 24 24" fill="none" xmlns="http://www.w3.org/2000/svg">
<path d="M19.9763 2.88379C20.2692 2.59102 20.744 2.59094 21.0369 2.88379C21.3295 3.17666 21.3295 3.65152 21.0369 3.94434L19.4041 5.57715C20.6349 7.27231 20.6066 9.59749 19.3191 11.2637L19.323 11.2959V11.3008L19.324 11.3086L19.3269 11.3359C19.3293 11.3587 19.333 11.3908 19.3367 11.4316C19.344 11.5137 19.3529 11.6315 19.3611 11.7803C19.3774 12.0777 19.39 12.5014 19.3757 13.0166C19.3473 14.0443 19.2115 15.4511 18.781 16.957C18.49 17.9747 18.037 18.9817 17.572 19.8623C16.4109 22.0613 13.7393 22.7178 11.696 21.6748L11.6716 21.6621L10.5515 20.9814C7.44177 19.0896 4.83108 16.4789 2.93921 13.3691L2.25757 12.249L2.24487 12.2236C1.20191 10.1804 1.85848 7.50884 4.05737 6.34766C4.93805 5.88266 5.94575 5.42965 6.96362 5.13867C8.46945 4.70823 9.87637 4.57338 10.9041 4.54492C11.4188 4.53067 11.842 4.5423 12.1394 4.55859C12.2882 4.56674 12.4059 4.57668 12.488 4.58398C12.5288 4.58761 12.561 4.59039 12.5837 4.59277L12.6111 4.5957L12.6199 4.59668H12.6218L12.6228 4.59766L12.656 4.60156C14.3222 3.31391 16.6483 3.28555 18.3435 4.5166L19.9763 2.88379ZM10.9451 6.04395C10.005 6.06999 8.7292 6.19414 7.37573 6.58105C6.49186 6.83373 5.5845 7.23721 4.75757 7.67383C3.35115 8.41659 2.88526 10.1488 3.56909 11.5186L4.22046 12.5889C5.98757 15.4937 8.42602 17.932 11.3308 19.6992L12.4021 20.3516C13.7719 21.0352 15.5032 20.5686 16.2458 19.1621C16.6824 18.3353 17.0869 17.4286 17.3396 16.5449C17.7265 15.1913 17.8497 13.9147 17.8757 12.9746C17.8887 12.506 17.8774 12.1241 17.863 11.8623C17.8602 11.811 17.8571 11.7644 17.8542 11.7227L12.198 6.06543C12.1562 6.06255 12.1088 6.05946 12.0574 6.05664C11.7956 6.0423 11.4137 6.03097 10.9451 6.04395ZM17.8542 6.06543C16.7677 4.97901 15.1032 4.82269 13.8503 5.59668L18.324 10.0703C19.098 8.81735 18.9409 7.15209 17.8542 6.06543Z" fill="#48465C"/>
</svg>
