<svg width="24" height="24" viewBox="0 0 24 24" fill="none" xmlns="http://www.w3.org/2000/svg">
<path d="M12 1.25C17.9371 1.25 22.75 6.06294 22.75 12C22.75 17.9371 17.9371 22.75 12 22.75C6.06294 22.75 1.25 17.9371 1.25 12C1.25 6.06294 6.06294 1.25 12 1.25ZM12 2.75C6.89137 2.75 2.75 6.89137 2.75 12C2.75 17.1086 6.89137 21.25 12 21.25C17.1086 21.25 21.25 17.1086 21.25 12C21.25 6.89137 17.1086 2.75 12 2.75ZM7 7.25C7.41421 7.25 7.75 7.58579 7.75 8V16C7.75 16.4142 7.41421 16.75 7 16.75C6.58579 16.75 6.25 16.4142 6.25 16V8C6.25 7.58579 6.58579 7.25 7 7.25ZM16.4697 8.46973C16.7626 8.17684 17.2374 8.17684 17.5303 8.46973C17.8232 8.76261 17.8232 9.23739 17.5303 9.53027L16.5303 10.5303C16.4874 10.5733 16.4402 10.6102 16.3906 10.6406C16.6191 11.0416 16.75 11.5055 16.75 12C16.75 12.4945 16.6191 12.9584 16.3906 13.3594C16.4402 13.3898 16.4874 13.4267 16.5303 13.4697L17.5303 14.4697C17.8232 14.7626 17.8232 15.2374 17.5303 15.5303C17.2374 15.8232 16.7626 15.8232 16.4697 15.5303L15.4697 14.5303C15.4267 14.4874 15.3898 14.4402 15.3594 14.3906C14.9584 14.6191 14.4945 14.75 14 14.75C13.5055 14.75 13.0416 14.6191 12.6406 14.3906C12.6102 14.4402 12.5733 14.4874 12.5303 14.5303L11.5303 15.5303C11.2374 15.8232 10.7626 15.8232 10.4697 15.5303C10.1768 15.2374 10.1768 14.7626 10.4697 14.4697L11.4697 13.4697C11.5126 13.4267 11.5598 13.3898 11.6094 13.3594C11.3809 12.9584 11.25 12.4945 11.25 12C11.25 11.5055 11.3809 11.0416 11.6094 10.6406C11.5598 10.6102 11.5126 10.5733 11.4697 10.5303L10.4697 9.53027C10.1768 9.23739 10.1768 8.76261 10.4697 8.46973C10.7626 8.17684 11.2374 8.17684 11.5303 8.46973L12.5303 9.46973C12.5733 9.51267 12.6102 9.55975 12.6406 9.60938C13.0416 9.38087 13.5055 9.25 14 9.25C14.4945 9.25 14.9584 9.38087 15.3594 9.60938C15.3898 9.55975 15.4267 9.51267 15.4697 9.46973L16.4697 8.46973ZM14 10.75C13.3096 10.75 12.75 11.3096 12.75 12C12.75 12.6904 13.3096 13.25 14 13.25C14.6904 13.25 15.25 12.6904 15.25 12C15.25 11.3096 14.6904 10.75 14 10.75Z" fill="#1C274C"/>
</svg>
