<svg width="24" height="24" viewBox="0 0 24 24" fill="none" xmlns="http://www.w3.org/2000/svg">
<path d="M12 19.583C12.4141 19.583 12.7498 19.9189 12.75 20.333V22C12.75 22.4142 12.4142 22.75 12 22.75C11.5858 22.75 11.25 22.4142 11.25 22V20.333C11.2502 19.9189 11.5859 19.583 12 19.583ZM9.49414 2.25293C9.90821 2.24991 10.2468 2.58305 10.25 2.99707C10.253 3.41112 9.91984 3.74965 9.50586 3.75293C8.82726 3.75789 8.23805 3.77037 7.72266 3.79883C7.74037 3.86273 7.75 3.93046 7.75 4V20C7.74996 20.0694 7.74032 20.1365 7.72266 20.2002C8.23806 20.2287 8.82726 20.2412 9.50586 20.2461C9.91984 20.2495 10.253 20.5879 10.25 21.002C10.2468 21.416 9.90824 21.7491 9.49414 21.7461C8.10143 21.7359 6.95709 21.6958 6.02441 21.5176C5.07057 21.3352 4.28167 20.9984 3.6416 20.3584C2.89324 19.61 2.56094 18.6607 2.40332 17.4883C2.25018 16.3491 2.24998 14.8933 2.25 13.0557V10.9434C2.24998 9.10568 2.25018 7.64992 2.40332 6.51074C2.56094 5.33831 2.89324 4.38899 3.6416 3.64062C4.28165 3.0007 5.07059 2.66382 6.02441 2.48145C6.95709 2.30317 8.10144 2.2631 9.49414 2.25293ZM14.5059 2.25293C15.8985 2.2631 17.0429 2.30317 17.9756 2.48145C18.9294 2.66382 19.7182 3.0007 20.3584 3.64062C21.1067 4.38899 21.439 5.33831 21.5967 6.51074C21.7498 7.64993 21.75 9.10569 21.75 10.9434V13.0557C21.75 14.8933 21.7497 16.3491 21.5967 17.4883C21.439 18.6607 21.1067 19.61 20.3584 20.3584C19.7182 20.9984 18.9295 21.3352 17.9756 21.5176C17.0429 21.6959 15.8985 21.7359 14.5059 21.7461C14.0918 21.7491 13.7532 21.416 13.75 21.002C13.747 20.5879 14.0801 20.2494 14.4941 20.2461C15.1728 20.2412 15.7619 20.2287 16.2773 20.2002C16.2597 20.1365 16.25 20.0694 16.25 20V4C16.25 3.93046 16.2597 3.86273 16.2773 3.79883C15.7619 3.77037 15.1728 3.75789 14.4941 3.75293C14.0801 3.74972 13.747 3.41116 13.75 2.99707C13.7532 2.58305 14.0918 2.24991 14.5059 2.25293ZM3.79785 16.25C3.81841 16.6309 3.84748 16.9754 3.88965 17.2891C4.02492 18.2949 4.27898 18.8747 4.70215 19.2979C5.05787 19.6534 5.52227 19.888 6.25098 20.0342C6.25047 20.023 6.25001 20.0113 6.25 20V16.25H3.79785ZM17.75 20C17.75 20.0113 17.7495 20.023 17.749 20.0342C18.4778 19.888 18.9422 19.6534 19.2979 19.2979C19.721 18.8747 19.9751 18.2949 20.1104 17.2891C20.1525 16.9754 20.1817 16.6309 20.2021 16.25H17.75V20ZM12 12.917C12.4142 12.917 12.75 13.2528 12.75 13.667V17C12.75 17.4142 12.4142 17.75 12 17.75C11.5858 17.75 11.25 17.4142 11.25 17V13.667C11.25 13.2528 11.5858 12.917 12 12.917ZM3.75 11V13C3.75 13.6431 3.75031 14.2238 3.75586 14.75H6.25V9.25H3.75586C3.75031 9.77613 3.75 10.3569 3.75 11ZM17.75 14.75H20.2441C20.2496 14.2238 20.25 13.6431 20.25 13V11C20.25 10.3569 20.2496 9.77613 20.2441 9.25H17.75V14.75ZM12 6.25C12.4142 6.25 12.75 6.58579 12.75 7V10.333C12.75 10.7472 12.4142 11.083 12 11.083C11.5858 11.083 11.25 10.7472 11.25 10.333V7C11.25 6.58579 11.5858 6.25 12 6.25ZM6.25098 3.96484C5.5223 4.11106 5.05786 4.34558 4.70215 4.70117C4.279 5.12432 4.02492 5.70413 3.88965 6.70996C3.84746 7.02372 3.81841 7.36886 3.79785 7.75H6.25V4C6.25 3.98853 6.25047 3.97619 6.25098 3.96484ZM17.75 4V7.75H20.2021C20.1816 7.36886 20.1526 7.02372 20.1104 6.70996C19.9751 5.70412 19.721 5.12432 19.2979 4.70117C18.9422 4.34558 18.4777 4.11106 17.749 3.96484C17.7495 3.97619 17.75 3.98853 17.75 4ZM12 1.25C12.4142 1.25 12.75 1.58579 12.75 2V3.66699C12.7498 4.08105 12.4141 4.41699 12 4.41699C11.5859 4.41699 11.2502 4.08105 11.25 3.66699V2C11.25 1.58579 11.5858 1.25 12 1.25Z" fill="#1C274C"/>
</svg>
