<svg width="24" height="24" viewBox="0 0 24 24" fill="none" xmlns="http://www.w3.org/2000/svg">
<path d="M10.5635 5.7832C11.4586 5.2951 12.5403 5.29521 13.4355 5.7832L18.2305 8.39746C19.1943 8.92314 19.7939 9.93335 19.7939 11.0312V15.9688C19.7939 17.0666 19.1943 18.0769 18.2305 18.6025L13.4355 21.2168C12.5403 21.7047 11.4586 21.7048 10.5635 21.2168L5.76953 18.6025C4.80555 18.0769 4.20508 17.0668 4.20508 15.9688V11.0312C4.20508 9.93324 4.80555 8.9231 5.76953 8.39746L10.5635 5.7832ZM12 10.5C11.7159 10.5 11.5255 10.8408 11.1455 11.5225L11.0479 11.6992C10.94 11.8928 10.8859 11.9898 10.8018 12.0537C10.7176 12.1176 10.612 12.1411 10.4023 12.1885L10.2119 12.2314C9.47397 12.3984 9.10536 12.4823 9.01758 12.7646C8.93001 13.0468 9.18088 13.3408 9.68359 13.9287L9.81445 14.0811C9.95737 14.2481 10.0284 14.3322 10.0605 14.4355C10.0926 14.5389 10.0821 14.6502 10.0605 14.873L10.041 15.0762C9.96501 15.8607 9.92686 16.2531 10.1562 16.4277C10.3862 16.6021 10.732 16.4431 11.4229 16.125L11.6016 16.043C11.7978 15.9526 11.8959 15.9072 12 15.9072C12.1041 15.9072 12.2022 15.9526 12.3984 16.043L12.5771 16.125C13.268 16.4431 13.6138 16.6021 13.8438 16.4277C14.0732 16.2531 14.0349 15.8607 13.959 15.0762L13.9395 14.873C13.9179 14.6502 13.9074 14.5389 13.9395 14.4355C13.9717 14.3322 14.0427 14.2481 14.1855 14.0811L14.3164 13.9287C14.8191 13.3408 15.07 13.0468 14.9824 12.7646C14.8946 12.4823 14.526 12.3984 13.7881 12.2314L13.5977 12.1885C13.388 12.1411 13.2824 12.1176 13.1982 12.0537C13.1141 11.9898 13.06 11.8928 12.9521 11.6992L12.8545 11.5225C12.4745 10.8408 12.2841 10.5 12 10.5ZM13 2C14.8856 2 15.8283 2.00015 16.4141 2.58594C16.9999 3.17172 17 4.11439 17 6V6.01758L14.1543 4.46582C12.8115 3.73365 11.1885 3.73375 9.8457 4.46582L7 6.01758V6C7 4.11438 7.00015 3.17172 7.58594 2.58594C8.17172 2.00015 9.11438 2 11 2H13Z" fill="#1C274C"/>
</svg>
