<svg width="24" height="24" viewBox="0 0 24 24" fill="none" xmlns="http://www.w3.org/2000/svg">
<path d="M17.9999 11.25C20.6233 11.25 22.7499 13.3766 22.7499 16C22.7499 17.7601 21.7923 19.2966 20.37 20.1172C19.9969 20.9265 19.2987 21.57 18.12 22.0088C16.8103 22.4964 14.868 22.75 11.9999 22.75C9.97434 22.75 8.41943 22.6232 7.22644 22.3818C6.03672 22.1409 5.15571 21.7763 4.52625 21.2637C3.24723 20.2222 3.24875 18.7634 3.24988 17.6016V17.5C3.24988 15.8661 4.41949 14.5394 5.97546 13.6641C7.55491 12.7757 9.68644 12.25 11.9999 12.25C12.9682 12.25 13.9016 12.3419 14.7743 12.5127C15.6213 11.7289 16.7548 11.25 17.9999 11.25ZM11.9999 13.75C9.89521 13.75 8.02676 14.2315 6.71082 14.9717C5.37136 15.7251 4.74988 16.6487 4.74988 17.5C4.74988 18.8078 4.79024 19.5442 5.47351 20.1006C5.844 20.4023 6.46339 20.6966 7.52332 20.9111C8.58025 21.125 10.0257 21.25 11.9999 21.25C14.5777 21.25 16.2397 21.0364 17.3104 20.7002C15.0139 20.3662 13.2499 18.3892 13.2499 16C13.2499 15.2323 13.4323 14.5071 13.7557 13.8652C13.194 13.7902 12.606 13.75 11.9999 13.75ZM17.9999 12.75C16.205 12.75 14.7499 14.2051 14.7499 16C14.7499 17.7949 16.205 19.25 17.9999 19.25C19.7948 19.25 21.2499 17.7949 21.2499 16C21.2499 14.2051 19.7948 12.75 17.9999 12.75ZM18.7948 14.5889C19.0833 14.2916 19.5581 14.2848 19.8553 14.5732C20.1526 14.8617 20.1595 15.3366 19.871 15.6338L18.038 17.5225C17.8899 17.675 17.684 17.758 17.4716 17.75C17.2591 17.7419 17.0599 17.6438 16.9237 17.4805L16.0907 16.4805C15.8255 16.1623 15.8682 15.689 16.1864 15.4238C16.5046 15.1588 16.9779 15.2024 17.243 15.5205L17.5428 15.8799L18.7948 14.5889ZM11.9999 1.25C14.6233 1.25 16.7499 3.37665 16.7499 6C16.7499 8.62335 14.6233 10.75 11.9999 10.75C9.37656 10.75 7.24988 8.62333 7.24988 6C7.24988 3.37667 9.37656 1.25003 11.9999 1.25ZM11.9999 2.75C10.205 2.75003 8.74988 4.20509 8.74988 6C8.74988 7.79491 10.205 9.24997 11.9999 9.25C13.7948 9.25 15.2499 7.79493 15.2499 6C15.2499 4.20507 13.7948 2.75 11.9999 2.75Z" fill="#1C274C"/>
</svg>
