<svg width="24" height="24" viewBox="0 0 24 24" fill="none" xmlns="http://www.w3.org/2000/svg">
<path d="M14.969 22.3643C14.7678 22.7263 14.3115 22.8564 13.9494 22.6553C13.5874 22.4542 13.4564 21.9978 13.6574 21.6357L18.5715 12.792C19.4655 12.5504 20.3144 12.0977 21.0403 11.4355L14.969 22.3643ZM12.26 10.6797C12.412 10.8749 12.5776 11.0628 12.757 11.2422C12.9366 11.4219 13.1251 11.5881 13.3205 11.7402L5.53049 19.5303C5.23762 19.8232 4.76285 19.8231 4.46994 19.5303C4.17705 19.2374 4.17704 18.7626 4.46994 18.4697L12.26 10.6797ZM16.1701 8.8916C17.2232 9.87156 18.1501 10.5237 18.8528 10.9453C19.0628 11.0713 19.2531 11.1766 19.4201 11.2637L18.5715 12.792C16.7941 13.2724 14.8386 12.9216 13.3205 11.7402L16.1701 8.8916ZM12.7365 4.58008C12.8237 4.74713 12.9289 4.93738 13.0549 5.14746C13.4765 5.85024 14.1294 6.7769 15.1096 7.83008L12.26 10.6797C11.0786 9.16171 10.7279 7.20611 11.2082 5.42871L12.7365 4.58008ZM13.4319 2.1748C15.7807 0.433381 19.1128 0.628215 21.2424 2.75781C23.3692 4.88469 23.5654 8.21037 21.8313 10.5586L21.5647 10.4922L20.7102 10.207H20.7092L20.7033 10.2051C20.6952 10.2022 20.6804 10.1968 20.6594 10.1885C20.6163 10.1717 20.5466 10.143 20.4533 10.1006C20.2666 10.0158 19.9837 9.87487 19.6242 9.65918C18.9056 9.22806 17.8771 8.49607 16.6906 7.30957C15.5041 6.12312 14.7722 5.09462 14.341 4.37598C14.1253 4.01645 13.9844 3.73355 13.8996 3.54688C13.8571 3.45352 13.8286 3.38392 13.8117 3.34082C13.8034 3.31936 13.7981 3.30399 13.7951 3.2959L13.7922 3.28906L13.508 2.43555L13.4319 2.1748ZM12.5637 2.95996C11.9018 3.68573 11.4498 4.5348 11.2082 5.42871L2.36447 10.3428C2.00239 10.5438 1.5461 10.4129 1.34494 10.0508C1.14382 9.68871 1.27388 9.23241 1.63596 9.03125L12.5637 2.95996Z" fill="#1C274C"/>
</svg>
