<svg width="24" height="24" viewBox="0 0 24 24" fill="none" xmlns="http://www.w3.org/2000/svg">
<path d="M14.969 22.3643C14.7678 22.7263 14.3115 22.8564 13.9495 22.6553C13.5874 22.4542 13.4564 21.9978 13.6575 21.6357L18.5715 12.792C19.4655 12.5504 20.3145 12.0977 21.0403 11.4355L14.969 22.3643ZM12.26 10.6797C12.412 10.8749 12.5777 11.0628 12.7571 11.2422C12.9367 11.4219 13.1252 11.5881 13.3206 11.7402L5.53052 19.5303C5.23765 19.8232 4.76288 19.8231 4.46997 19.5303C4.17708 19.2374 4.17707 18.7626 4.46997 18.4697L12.26 10.6797ZM16.1702 8.8916C17.2232 9.87156 18.1501 10.5237 18.8528 10.9453C19.0628 11.0713 19.2532 11.1766 19.4202 11.2637L18.5715 12.792C16.7941 13.2724 14.8387 12.9216 13.3206 11.7402L16.1702 8.8916ZM12.7366 4.58008C12.8238 4.74713 12.9289 4.93738 13.0549 5.14746C13.4765 5.85024 14.1294 6.7769 15.1096 7.83008L12.26 10.6797C11.0786 9.16171 10.728 7.20611 11.2083 5.42871L12.7366 4.58008ZM13.4319 2.1748C15.7807 0.433381 19.1128 0.628215 21.2424 2.75781C23.3693 4.88469 23.5655 8.21037 21.8313 10.5586L21.5647 10.4922L20.7102 10.207H20.7092L20.7034 10.2051C20.6952 10.2022 20.6805 10.1968 20.6594 10.1885C20.6163 10.1717 20.5466 10.143 20.4534 10.1006C20.2667 10.0158 19.9838 9.87487 19.6243 9.65918C18.9057 9.22806 17.8772 8.49607 16.6907 7.30957C15.5042 6.12312 14.7722 5.09462 14.3411 4.37598C14.1254 4.01645 13.9845 3.73355 13.8997 3.54688C13.8572 3.45352 13.8287 3.38392 13.8118 3.34082C13.8034 3.31936 13.7982 3.30399 13.7952 3.2959L13.7922 3.28906L13.5081 2.43555L13.4319 2.1748ZM12.5637 2.95996C11.9018 3.68573 11.4499 4.5348 11.2083 5.42871L2.3645 10.3428C2.00242 10.5438 1.54613 10.4129 1.34497 10.0508C1.14385 9.68871 1.27391 9.23241 1.63599 9.03125L12.5637 2.95996Z" fill="#48465C"/>
</svg>
