<svg width="24" height="24" viewBox="0 0 24 24" fill="none" xmlns="http://www.w3.org/2000/svg">
<path d="M5.26171 3.6084C6.13615 2.68813 7.61006 2.83052 8.37303 3.90918L9.63378 5.69336C10.2502 6.56518 10.184 7.75905 9.47753 8.50293L9.19042 8.80469C9.19042 8.80469 8.10848 9.9446 11.0635 13.0557C14.0019 16.1493 15.0885 15.0398 15.1006 15.0273L15.5566 14.5479C16.1862 13.8852 17.1672 13.7484 17.9726 14.2119L19.8828 15.3115C21.1097 16.0177 21.3808 17.7493 20.4219 18.7588L19.001 20.2539C18.6398 20.6342 18.1912 20.912 17.6758 20.9629C16.046 21.1236 12.0617 20.9459 7.81542 16.4756C3.81077 12.2594 3.09307 8.64534 3.00292 6.96582C2.96772 6.30938 3.2578 5.71723 3.69139 5.26074L5.26171 3.6084ZM19.4697 3.46973C19.7626 3.17687 20.2374 3.17685 20.5303 3.46973C20.8231 3.76261 20.8231 4.23738 20.5303 4.53027L19.0605 6L20.5303 7.46973C20.8231 7.76261 20.8231 8.23739 20.5303 8.53027C20.2374 8.82315 19.7626 8.82313 19.4697 8.53027L18 7.06055L16.5303 8.53027C16.2374 8.82316 15.7626 8.82315 15.4697 8.53027C15.1768 8.23738 15.1768 7.76262 15.4697 7.46973L16.9394 6L15.4697 4.53027C15.1768 4.23738 15.1768 3.76262 15.4697 3.46973C15.7626 3.17686 16.2374 3.17684 16.5303 3.46973L18 4.93945L19.4697 3.46973Z" fill="#1C274C"/>
</svg>
