<svg width="24" height="24" viewBox="0 0 24 24" fill="none" xmlns="http://www.w3.org/2000/svg">
<path d="M5.53735 4.9375C6.9303 3.54455 9.15292 3.73168 10.0374 5.31641L10.6868 6.47949C11.2722 7.52892 11.0369 8.90578 10.1145 9.82812C10.0948 9.84811 9.01423 10.9651 11.0247 12.9756C13.0533 15.0041 14.1721 13.8848 14.1721 13.8848C15.0946 12.9625 16.4713 12.7278 17.5208 13.3135L18.6838 13.9619C20.2686 14.8463 20.4555 17.0689 19.0627 18.4619C18.2257 19.2989 17.2002 19.9503 16.0667 19.9932C14.1585 20.0655 10.9177 19.5825 7.66724 16.332C4.41695 13.0815 3.93377 9.84068 4.0061 7.93262C4.04921 6.79945 4.70062 5.77433 5.53735 4.9375ZM19.47 3.46973C19.7629 3.17695 20.2377 3.17687 20.5305 3.46973C20.8232 3.76258 20.8232 4.23742 20.5305 4.53027L19.0608 6L20.5305 7.46973C20.8232 7.7626 20.8232 8.23744 20.5305 8.53027C20.2377 8.82311 19.7628 8.823 19.47 8.53027L18.0002 7.06055L16.5305 8.53027C16.2378 8.82311 15.7629 8.823 15.47 8.53027C15.1771 8.23738 15.1771 7.76262 15.47 7.46973L16.9397 6L15.47 4.53027C15.1771 4.23738 15.1771 3.76262 15.47 3.46973C15.7629 3.17695 16.2377 3.17687 16.5305 3.46973L18.0002 4.93945L19.47 3.46973Z" fill="#48465C"/>
</svg>
