<svg width="24" height="24" viewBox="0 0 24 24" fill="none" xmlns="http://www.w3.org/2000/svg">
<path d="M3 1.25C3.41422 1.25 3.75 1.58579 3.75 2V22C3.75 22.4142 3.41421 22.75 3 22.75C2.58579 22.75 2.25 22.4142 2.25 22V2C2.25 1.58579 2.58579 1.25 3 1.25ZM21 1.25C21.4142 1.25 21.75 1.58579 21.75 2V22C21.75 22.4142 21.4142 22.75 21 22.75C20.5858 22.75 20.25 22.4142 20.25 22V2C20.25 1.58579 20.5858 1.25 21 1.25ZM12.0518 3.25C12.9503 3.24997 13.7001 3.25011 14.2949 3.33008C14.9225 3.41452 15.489 3.6003 15.9443 4.05566C16.3997 4.51102 16.5855 5.07748 16.6699 5.70508C16.7499 6.29986 16.75 7.04975 16.75 7.94824V16.0518C16.75 16.9503 16.7499 17.7001 16.6699 18.2949C16.5855 18.9225 16.3997 19.489 15.9443 19.9443C15.489 20.3997 14.9225 20.5855 14.2949 20.6699C13.7001 20.7499 12.9503 20.75 12.0518 20.75H11.9482C11.0497 20.75 10.2999 20.7499 9.70508 20.6699C9.07748 20.5855 8.51102 20.3997 8.05566 19.9443C7.6003 19.489 7.41452 18.9225 7.33008 18.2949C7.25012 17.7001 7.24997 16.9503 7.25 16.0518V7.94824C7.24997 7.04975 7.25012 6.29986 7.33008 5.70508C7.41452 5.07747 7.6003 4.51102 8.05566 4.05566C8.51102 3.6003 9.07747 3.41452 9.70508 3.33008C10.2999 3.25012 11.0497 3.24997 11.9482 3.25H12.0518ZM12 4.75C11.036 4.75 10.3883 4.75146 9.90527 4.81641C9.44388 4.87845 9.24651 4.9859 9.11621 5.11621C8.9859 5.24651 8.87845 5.44388 8.81641 5.90527C8.75146 6.38831 8.75 7.03599 8.75 8V16C8.75 16.964 8.75146 17.6117 8.81641 18.0947C8.87845 18.5561 8.98591 18.7535 9.11621 18.8838C9.24651 19.0141 9.44389 19.1215 9.90527 19.1836C10.3883 19.2485 11.036 19.25 12 19.25C12.964 19.25 13.6117 19.2485 14.0947 19.1836C14.5561 19.1215 14.7535 19.0141 14.8838 18.8838C15.0141 18.7535 15.1215 18.5561 15.1836 18.0947C15.2485 17.6117 15.25 16.964 15.25 16V8C15.25 7.03599 15.2485 6.38831 15.1836 5.90527C15.1215 5.44389 15.0141 5.24651 14.8838 5.11621C14.7535 4.98591 14.5561 4.87845 14.0947 4.81641C13.6117 4.75146 12.964 4.75 12 4.75Z" fill="#1C274C"/>
</svg>
