<svg width="24" height="24" viewBox="0 0 24 24" fill="none" xmlns="http://www.w3.org/2000/svg">
<path d="M12 2C16.2426 2 18.3636 2.00037 19.6816 3.46484C20.9996 4.92931 21 7.28598 21 12C21 16.714 20.9996 19.0708 19.6816 20.5352C18.3636 21.9997 16.2426 22 12 22C7.75736 22 5.63638 21.9997 4.31836 20.5352C3.00036 19.0708 3 16.714 3 12C3 7.28599 3.00037 4.92931 4.31836 3.46484C5.63638 2.00037 7.75736 2 12 2ZM15.5 16.333C15.0398 16.333 14.667 16.7067 14.667 17.167C14.6671 17.6271 15.0399 18 15.5 18C15.9601 18 16.3329 17.6271 16.333 17.167C16.333 16.7067 15.9602 16.333 15.5 16.333ZM8.5 13.25C8.08579 13.25 7.75 13.5858 7.75 14V14.75H7C6.58579 14.75 6.25 15.0858 6.25 15.5C6.25 15.9142 6.58579 16.25 7 16.25H7.75V17C7.75 17.4142 8.08579 17.75 8.5 17.75C8.91421 17.75 9.25 17.4142 9.25 17V16.25H10C10.4142 16.25 10.75 15.9142 10.75 15.5C10.75 15.0858 10.4142 14.75 10 14.75H9.25V14C9.25 13.5858 8.91421 13.25 8.5 13.25ZM13.833 14.667C13.3729 14.6671 13 15.0399 13 15.5C13 15.9601 13.3729 16.3329 13.833 16.333C14.2933 16.333 14.667 15.9602 14.667 15.5C14.667 15.0398 14.2933 14.667 13.833 14.667ZM17.167 14.667C16.7067 14.667 16.333 15.0398 16.333 15.5C16.333 15.9602 16.7067 16.333 17.167 16.333C17.6271 16.3329 18 15.9601 18 15.5C18 15.0399 17.6271 14.6671 17.167 14.667ZM15.5 13C15.0399 13 14.6671 13.3729 14.667 13.833C14.667 14.2933 15.0398 14.667 15.5 14.667C15.9602 14.667 16.333 14.2933 16.333 13.833C16.3329 13.3729 15.9601 13 15.5 13ZM9 6C8.53501 6 8.30208 5.99967 8.11133 6.05078C7.59396 6.18954 7.18954 6.59396 7.05078 7.11133C6.99967 7.30208 7 7.53501 7 8C7 8.46499 6.99967 8.69792 7.05078 8.88867C7.18954 9.40604 7.59396 9.81046 8.11133 9.94922C8.30208 10.0003 8.53501 10 9 10H15C15.465 10 15.698 10.0003 15.8887 9.94922C16.4061 9.81046 16.8105 9.40603 16.9492 8.88867C17.0003 8.69792 17 8.46499 17 8C17 7.53501 17.0003 7.30208 16.9492 7.11133C16.8105 6.59397 16.4061 6.18954 15.8887 6.05078C15.698 5.99967 15.465 6 15 6H9Z" fill="#48465C"/>
</svg>
