<svg width="24" height="24" viewBox="0 0 24 24" fill="none" xmlns="http://www.w3.org/2000/svg">
<path d="M12.0537 2C14.2007 1.99999 15.8834 2.00003 17.1963 2.17871C18.5403 2.36164 19.6012 2.74324 20.4336 3.58594C21.2659 4.42864 21.6426 5.50271 21.8232 6.86328C21.9998 8.19255 22.0001 9.89646 22 12.0703V17.3672C22.0003 18.1841 22 18.7445 21.8564 19.2363C21.5756 20.1981 20.9043 20.994 20.0098 21.4248C19.5524 21.6451 19.0059 21.7323 18.209 21.8594L18.0791 21.8799C17.7958 21.9252 17.5534 21.9644 17.3525 21.9844C17.1435 22.0052 16.93 22.0112 16.7119 21.9678C15.9944 21.8247 15.4029 21.3125 15.1514 20.6172C15.0749 20.406 15.0475 20.1917 15.0352 19.9795C15.0233 19.7755 15.0234 19.5268 15.0234 19.2363V15.0645C15.0228 14.639 15.0218 14.2725 15.1191 13.959C15.3418 13.2417 15.9237 12.6977 16.6475 12.5293C16.9638 12.4557 17.3244 12.4846 17.7432 12.5186L17.8369 12.5264L17.9463 12.5352C18.73 12.5975 19.2665 12.6402 19.7217 12.8105C20.0415 12.9303 20.3381 13.0956 20.6045 13.2979V12.124C20.6045 9.88432 20.603 8.27506 20.4404 7.05078C20.2806 5.84711 19.9761 5.12138 19.4463 4.58496C18.9163 4.04863 18.1997 3.74096 17.0107 3.5791C15.8014 3.4145 14.2123 3.41309 12 3.41309C9.78772 3.41309 8.19853 3.4145 6.98926 3.5791C5.8003 3.74096 5.08357 4.04861 4.55371 4.58496C4.02387 5.12138 3.71947 5.84711 3.55957 7.05078C3.39699 8.27506 3.39551 9.88432 3.39551 12.124V13.2979C3.66192 13.0956 3.95847 12.9303 4.27832 12.8105C4.73349 12.6401 5.27 12.5975 6.05371 12.5352L6.16309 12.5264L6.25684 12.5186C6.67561 12.4846 7.0362 12.4557 7.35254 12.5293C8.07631 12.6977 8.65816 13.2417 8.88086 13.959C8.97819 14.2725 8.97707 14.639 8.97656 15.0645V19.2363C8.97657 19.5268 8.97669 19.7755 8.96484 19.9795C8.95251 20.1917 8.92599 20.406 8.84961 20.6172C8.59809 21.3126 8.00572 21.8247 7.28809 21.9678C7.07002 22.0112 6.85649 22.0052 6.64746 21.9844C6.44654 21.9644 6.20426 21.9252 5.9209 21.8799L5.79102 21.8594C4.99417 21.7323 4.44761 21.6451 3.99023 21.4248C3.09568 20.994 2.42436 20.1981 2.14355 19.2363C1.99996 18.7445 1.9997 18.1841 2 17.3672V12.0703C1.99999 9.89645 2.00026 8.19255 2.17676 6.86328C2.35744 5.50271 2.73409 4.42864 3.56641 3.58594C4.39879 2.74324 5.45978 2.36164 6.80371 2.17871C8.11662 2.00003 9.79925 1.99999 11.9463 2H12.0537ZM12 5.75C12.4142 5.75 12.75 6.08579 12.75 6.5V11.5C12.75 11.9142 12.4142 12.25 12 12.25C11.5858 12.25 11.25 11.9142 11.25 11.5V6.5C11.25 6.0858 11.5858 5.75001 12 5.75ZM9 7.25C9.41421 7.25 9.75 7.58579 9.75 8V10C9.75 10.4142 9.41421 10.75 9 10.75C8.5858 10.75 8.25 10.4142 8.25 10V8C8.25 7.5858 8.5858 7.25001 9 7.25ZM15 7.25C15.4142 7.25 15.75 7.58579 15.75 8V10C15.75 10.4142 15.4142 10.75 15 10.75C14.5858 10.75 14.25 10.4142 14.25 10V8C14.25 7.5858 14.5858 7.25001 15 7.25Z" fill="#1C274C"/>
</svg>
