<svg width="24" height="24" viewBox="0 0 24 24" fill="none" xmlns="http://www.w3.org/2000/svg">
<path d="M12 2.25C13.5188 2.25 14.75 3.48122 14.75 5C14.75 5.78312 14.4224 6.48898 13.8984 6.98926C13.9627 7.10322 14.0289 7.22253 14.0977 7.3457L15.8945 10.5684C16.0722 10.8871 16.1785 11.0752 16.2676 11.2021C16.2952 11.2414 16.3153 11.265 16.3271 11.2783L16.3291 11.2793C16.3443 11.2697 16.37 11.2516 16.4082 11.2207C16.529 11.123 16.6827 10.9715 16.9414 10.7139L17.0205 10.6348C17.3395 10.3169 17.6296 10.0274 17.8936 9.79102C17.8009 9.54475 17.75 9.27812 17.75 9C17.75 7.75736 18.7574 6.75 20 6.75C21.2426 6.75 22.25 7.75736 22.25 9C22.25 9.98294 21.6197 10.8186 20.7412 11.125C20.7382 11.182 20.7347 11.2398 20.7305 11.2979C20.7075 11.6226 20.665 12.0113 20.6172 12.4561L20.4326 14.1729C20.4027 14.451 20.374 14.729 20.3457 15.0029C20.2336 16.0853 20.1267 17.1212 19.9668 17.9941C19.8657 18.546 19.738 19.0663 19.5615 19.5176C19.3864 19.965 19.145 20.3925 18.7881 20.7119C18.1584 21.2756 17.3988 21.5216 16.4922 21.6377C15.6173 21.7496 14.5135 21.75 13.1396 21.75H10.8604C9.4864 21.75 8.38269 21.7496 7.50781 21.6377C6.60118 21.5216 5.84168 21.2756 5.21191 20.7119C4.85505 20.3925 4.61352 19.965 4.43848 19.5176C4.26194 19.0663 4.13428 18.546 4.0332 17.9941C3.8733 17.1211 3.76634 16.0854 3.6543 15.0029C3.62592 14.7288 3.59733 14.4512 3.56738 14.1729L3.38281 12.4561C3.33498 12.0114 3.29254 11.6226 3.26953 11.2979C3.26542 11.2398 3.2618 11.182 3.25879 11.125C2.38031 10.8186 1.75 9.98294 1.75 9C1.75 7.75736 2.75736 6.75 4 6.75C5.24264 6.75 6.25 7.75736 6.25 9C6.25 9.27812 6.19899 9.54474 6.10645 9.79102C6.37032 10.0274 6.66053 10.3169 6.97949 10.6348L7.05859 10.7139C7.3173 10.9715 7.47104 11.123 7.5918 11.2207C7.63002 11.2516 7.65566 11.2697 7.6709 11.2793L7.67285 11.2783C7.68481 11.265 7.70479 11.2414 7.73242 11.2021C7.8215 11.0752 7.92775 10.8871 8.10547 10.5684L9.90234 7.34668C9.97113 7.22334 10.0373 7.10337 10.1016 6.98926C9.57752 6.48898 9.25 5.78312 9.25 5C9.25 3.48122 10.4812 2.25 12 2.25ZM5.61816 18.25C5.6835 18.5259 5.75495 18.7662 5.83496 18.9707C5.96376 19.2999 6.09583 19.4908 6.21191 19.5947C6.5281 19.8778 6.95077 20.0547 7.69824 20.1504C8.46686 20.2488 9.47422 20.25 10.9121 20.25H13.0879C14.5258 20.25 15.5332 20.2488 16.3018 20.1504C17.0493 20.0547 17.4719 19.8778 17.7881 19.5947C17.9042 19.4908 18.0363 19.2999 18.165 18.9707C18.2451 18.7662 18.3165 18.5259 18.3818 18.25H5.61816ZM12.5713 7.69043C12.3868 7.72949 12.1955 7.75 12 7.75C11.8045 7.75 11.6132 7.72949 11.4287 7.69043C11.3598 7.81224 11.2861 7.94544 11.2051 8.09082L9.39844 11.3291C9.24312 11.6077 9.09929 11.865 8.95996 12.0635C8.81148 12.2749 8.60905 12.5088 8.29883 12.6455C8.03063 12.7636 7.73455 12.8047 7.44434 12.7646C7.10861 12.7182 6.84943 12.5493 6.64844 12.3867C6.45985 12.2341 6.25063 12.0261 6.02441 11.8008L6 11.7764C5.62473 11.4026 5.35026 11.1312 5.14062 10.9395C5.0208 11.0101 4.89353 11.0704 4.76074 11.1182C4.76222 11.1419 4.76382 11.1669 4.76562 11.1924C4.78649 11.4868 4.82559 11.8492 4.875 12.3086L5.05859 14.0127C5.09058 14.3101 5.12021 14.6001 5.14941 14.8818C5.21893 15.5526 5.28444 16.178 5.35938 16.75H18.6406C18.7155 16.178 18.7811 15.5526 18.8506 14.8818C18.8798 14.6001 18.9094 14.3101 18.9414 14.0127L19.125 12.3086C19.1744 11.8492 19.2135 11.4868 19.2344 11.1924C19.2362 11.1669 19.2378 11.1419 19.2393 11.1182C19.1065 11.0704 18.9793 11.0101 18.8594 10.9395C18.6498 11.1312 18.3753 11.4026 18 11.7764L17.9756 11.8008C17.7493 12.0261 17.5401 12.2341 17.3516 12.3867C17.1506 12.5493 16.8915 12.7182 16.5557 12.7646C16.2655 12.8047 15.9694 12.7636 15.7012 12.6455C15.3909 12.5088 15.1886 12.2749 15.04 12.0635C14.9007 11.865 14.7568 11.6076 14.6016 11.3291L12.7949 8.09082C12.7139 7.94545 12.6402 7.81225 12.5713 7.69043ZM4 8.25C3.58579 8.25 3.25 8.58579 3.25 9C3.25 9.41421 3.58579 9.75 4 9.75H4.00879C4.23164 9.74742 4.43147 9.64865 4.56836 9.49023C4.68225 9.3584 4.75 9.18789 4.75 9C4.75 8.58579 4.41421 8.25 4 8.25ZM20 8.25C19.5858 8.25 19.25 8.58579 19.25 9C19.25 9.18789 19.3177 9.3584 19.4316 9.49023C19.5685 9.64865 19.7683 9.74742 19.9912 9.75H20C20.4142 9.75 20.75 9.41421 20.75 9C20.75 8.58579 20.4142 8.25 20 8.25ZM12 3.75C11.3096 3.75 10.75 4.30964 10.75 5C10.75 5.48504 11.0265 5.90658 11.4336 6.11426C11.6028 6.20058 11.7945 6.25 12 6.25C12.2055 6.25 12.3972 6.20058 12.5664 6.11426C12.9735 5.90658 13.25 5.48504 13.25 5C13.25 4.30964 12.6904 3.75 12 3.75Z" fill="#48465C"/>
</svg>
