<svg width="24" height="24" viewBox="0 0 24 24" fill="none" xmlns="http://www.w3.org/2000/svg">
<path d="M16.8586 1.00269C17.0622 1.01488 17.2276 1.08237 17.3469 1.14136C17.4527 1.19373 17.5697 1.26458 17.678 1.32983L18.4768 1.8103L18.4934 1.82104C18.5945 1.88192 18.7053 1.94813 18.7961 2.01343C18.8995 2.08762 19.0293 2.19569 19.1331 2.35815C19.2715 2.57511 19.3399 2.82957 19.3284 3.08667C19.3197 3.27928 19.2607 3.43757 19.2083 3.55347C19.1621 3.65549 19.0994 3.76857 19.0422 3.87183L18.6877 4.51343L18.9495 7.78101C18.9564 7.86877 18.9608 7.92222 18.9641 7.97339C18.9724 8.10484 18.9757 8.2361 18.9758 8.36694C19.0131 8.5109 19.0064 8.65775 18.9622 8.79077C18.8565 10.3555 18.1637 11.8317 17.0061 12.8865C16.9686 12.9206 16.9291 12.9557 16.8645 13.0125L16.8596 13.0173C16.7904 13.0782 16.7596 13.1046 16.7307 13.1306C15.6636 14.0919 14.9043 15.3779 14.5618 16.8152C14.5525 16.8542 14.5435 16.8953 14.5227 16.9871L14.2688 18.1082C14.1093 18.8123 13.9809 19.378 13.8479 19.823C13.7128 20.2752 13.5537 20.6718 13.3 21.0066C12.619 21.9054 11.5377 22.3957 10.4202 22.2908C10.0015 22.2515 9.60661 22.0953 9.19458 21.8855C8.78981 21.6794 8.30455 21.3863 7.70337 21.0242L6.99048 20.5945C6.389 20.2322 5.90277 19.9401 5.52954 19.6775C5.14856 19.4095 4.82709 19.1338 4.59106 18.7839C3.96156 17.8508 3.82662 16.6566 4.22778 15.6033C4.37804 15.2091 4.62778 14.866 4.93774 14.5154C5.24152 14.1717 5.64758 13.7717 6.15161 13.2761L6.9563 12.4861C7.02212 12.4213 7.05087 12.3927 7.07837 12.365C8.09385 11.3433 8.78479 10.0149 9.05103 8.55933C9.05825 8.51983 9.06537 8.47837 9.0813 8.3855L9.08228 8.37866C9.0972 8.29167 9.10597 8.23868 9.11548 8.18823C9.46035 6.35919 10.606 4.79071 12.2317 3.95581C12.2764 3.93282 12.3235 3.90926 12.3997 3.87183L15.2278 2.48218L15.55 1.89917C15.6112 1.78863 15.677 1.66921 15.7424 1.57104C15.8162 1.46033 15.9257 1.31908 16.0959 1.20679C16.3214 1.0581 16.589 0.986607 16.8586 1.00269ZM13.6331 9.22144C13.038 8.74536 12.22 8.65819 11.5383 8.99878L10.3518 9.59253C9.95285 11.0419 9.1935 12.3645 8.14185 13.4226C8.1077 13.4569 8.07278 13.4917 8.01196 13.5515L7.22388 14.3269C6.69535 14.8466 6.32656 15.209 6.06177 15.5085C5.79935 15.8055 5.68542 15.9898 5.62915 16.1375C5.40063 16.7375 5.47935 17.4191 5.83423 17.9451C5.92093 18.0736 6.07132 18.2249 6.39282 18.4509C6.71732 18.6792 7.15693 18.9446 7.78833 19.325L8.45239 19.7253C9.08381 20.1057 9.52388 20.3697 9.87524 20.5486C10.2249 20.7266 10.4209 20.7844 10.5608 20.7976C11.1464 20.8525 11.7284 20.5979 12.1047 20.1013C12.1978 19.9784 12.2942 19.7823 12.4104 19.3933C12.5272 19.0026 12.6448 18.4868 12.8118 17.7498L13.0608 16.6511C13.0802 16.5653 13.0913 16.5156 13.1028 16.4675C13.5141 14.7412 14.4286 13.1857 15.7268 12.0164C15.7628 11.9839 15.7998 11.9514 15.8635 11.8953L15.8684 11.8914C15.9402 11.8282 15.9696 11.8024 15.9963 11.7781C16.6182 11.2114 17.065 10.4752 17.2961 9.66284L16.8831 9.80054C15.7716 10.171 14.548 9.95318 13.6331 9.22144ZM13.0686 5.2146C12.9836 5.25639 12.9488 5.27358 12.9172 5.28979C11.9499 5.78645 11.1986 6.64379 10.8069 7.68726L10.8674 7.65796C12.0725 7.05557 13.5176 7.20809 14.5696 8.04956C15.0871 8.46365 15.7795 8.58725 16.4084 8.37769L17.4641 8.02612C17.4618 7.99612 17.4584 7.9569 17.4534 7.89331L17.2053 4.79175L15.7327 3.90503L13.0686 5.2146ZM16.7756 2.78198L17.6418 3.30444L17.7209 3.16284C17.7291 3.14815 17.7362 3.13397 17.7434 3.12085C17.7305 3.11304 17.7169 3.10421 17.7024 3.09546L16.9221 2.62573C16.9064 2.6163 16.8912 2.6068 16.8772 2.59839L16.7756 2.78198Z" fill="#48465C"/>
</svg>
