<svg width="24" height="24" viewBox="0 0 24 24" fill="none" xmlns="http://www.w3.org/2000/svg">
<path d="M21.8379 9.5C21.9999 10.6037 22 12.0497 22 14C22 17.7712 21.9997 19.6566 20.8281 20.8281C19.6566 21.9997 17.7712 22 14 22H10C6.22877 22 4.34345 21.9997 3.17188 20.8281C2.0003 19.6566 2 17.7712 2 14C2 12.0497 2.00007 10.6037 2.16211 9.5C4.4387 10.9798 5.89801 11.9237 7.25 12.5049V13C7.25 13.4142 7.58579 13.75 8 13.75C8.40867 13.75 8.74117 13.4232 8.75 13.0166C10.8802 13.5782 13.1198 13.5781 15.25 13.0166C15.2588 13.4232 15.5913 13.75 16 13.75C16.4142 13.75 16.75 13.4142 16.75 13V12.5049C18.102 11.9237 19.5613 10.9798 21.8379 9.5ZM14 6C17.7712 6 19.6566 6.0003 20.8281 7.17188C21.0728 7.41655 21.2668 7.69211 21.4199 8.00977C21.3624 8.02939 21.3062 8.05622 21.2529 8.09082C19.1525 9.45606 17.8328 10.3106 16.7363 10.8584C16.6699 10.5121 16.3657 10.25 16 10.25C15.5858 10.25 15.25 10.5858 15.25 11V11.458C13.1306 12.0975 10.8694 12.0976 8.75 11.458V11C8.75 10.5858 8.41421 10.25 8 10.25C7.63455 10.25 7.33028 10.5114 7.26367 10.8574C6.16722 10.3096 4.8473 9.45597 2.74707 8.09082C2.69379 8.05621 2.63759 8.02939 2.58008 8.00977C2.73322 7.69215 2.92721 7.41653 3.17188 7.17188C4.34344 6.0003 6.22876 6 10 6H14ZM12 1.25C13.6339 1.25004 15.0217 2.29461 15.5361 3.75C15.6742 4.14054 15.4696 4.569 15.0791 4.70703C14.6886 4.84506 14.2601 4.6405 14.1221 4.25C13.8128 3.37512 12.9785 2.75004 12 2.75C11.0215 2.75 10.1872 3.37509 9.87793 4.25C9.73991 4.64048 9.31139 4.84495 8.9209 4.70703C8.53036 4.569 8.32583 4.14054 8.46387 3.75C8.97836 2.29461 10.3661 1.25 12 1.25Z" fill="#1C274C"/>
</svg>
