<svg width="24" height="24" viewBox="0 0 24 24" fill="none" xmlns="http://www.w3.org/2000/svg">
<path d="M14.6648 2.3291C15.0352 2.14409 15.4855 2.29466 15.6707 2.66504L17.4841 6.29102C17.9117 6.31276 18.3017 6.34674 18.655 6.39746C19.7106 6.54904 20.5839 6.87474 21.2048 7.64258C21.8258 8.41069 21.9614 9.33346 21.8884 10.3975C21.8176 11.4286 21.5395 12.729 21.1912 14.3545L20.74 16.4619C20.505 17.5582 20.3138 18.4478 20.074 19.1426C19.8241 19.8665 19.4949 20.4623 18.9324 20.917C18.3698 21.3718 17.718 21.5684 16.9578 21.6611C16.2281 21.75 15.3182 21.75 14.197 21.75H9.80249C8.6812 21.75 7.77137 21.75 7.04175 21.6611C6.28171 21.5684 5.63058 21.3716 5.06812 20.917C4.50556 20.4623 4.17545 19.8665 3.92554 19.1426C3.68574 18.4479 3.49539 17.5581 3.2605 16.4619L2.80933 14.3545C2.46098 12.729 2.18181 11.4286 2.11108 10.3975C2.03812 9.33348 2.17373 8.41068 2.79468 7.64258C3.41565 6.87449 4.28977 6.54905 5.34546 6.39746C5.6987 6.34675 6.08892 6.31275 6.51636 6.29102L8.32886 2.66504C8.5141 2.29456 8.96521 2.14386 9.33569 2.3291C9.70612 2.51437 9.85588 2.96548 9.67065 3.33594L8.21265 6.25195C8.57616 6.24987 8.95903 6.25 9.36108 6.25H14.6394C15.0414 6.25 15.4244 6.24987 15.7878 6.25195L14.3289 3.33594C14.1436 2.96546 14.2943 2.51435 14.6648 2.3291ZM3.80737 11.75C3.92707 12.409 4.09183 13.1813 4.28882 14.1006L4.71753 16.1006C4.96484 17.2547 5.13707 18.0541 5.34351 18.6523C5.54329 19.2312 5.74815 19.5379 6.0105 19.75C6.27292 19.9622 6.61544 20.0988 7.22339 20.1729C7.85168 20.2494 8.66969 20.25 9.85034 20.25H14.1492C15.3296 20.25 16.1479 20.2494 16.7761 20.1729C17.384 20.0988 17.7266 19.9621 17.989 19.75C18.2514 19.5379 18.4562 19.2313 18.656 18.6523C18.8625 18.0541 19.0356 17.2548 19.283 16.1006L19.7117 14.1006C19.9087 13.1813 20.0734 12.409 20.1931 11.75H3.80737ZM13.9998 13.25C14.4139 13.25 14.7497 13.5859 14.7498 14C14.7498 14.4142 14.414 14.75 13.9998 14.75H9.99976C9.58569 14.7498 9.24976 14.4141 9.24976 14C9.24983 13.586 9.58573 13.2502 9.99976 13.25H13.9998ZM9.42163 7.75C8.67773 7.75 8.02808 7.75017 7.45776 7.76074L6.67065 9.33594C6.48535 9.70621 6.03518 9.85605 5.66479 9.6709C5.2944 9.48569 5.14381 9.03548 5.32886 8.66504L5.73218 7.85938C5.673 7.86654 5.61498 7.87371 5.55835 7.88184C4.6746 8.00874 4.24123 8.24018 3.96167 8.58594C3.68684 8.92589 3.55169 9.38809 3.60522 10.25H20.3953C20.4488 9.38819 20.3136 8.92587 20.0388 8.58594C19.7593 8.24012 19.3251 8.00875 18.4412 7.88184C18.3848 7.87374 18.3272 7.8665 18.2683 7.85938L18.6707 8.66504C18.8559 9.03541 18.7059 9.48556 18.3357 9.6709C17.9652 9.85613 17.5141 9.70639 17.3289 9.33594L16.5417 7.76074C15.9714 7.75018 15.3218 7.75 14.5779 7.75H9.42163Z" fill="#1C274C"/>
</svg>
