<svg width="24" height="24" viewBox="0 0 24 24" fill="none" xmlns="http://www.w3.org/2000/svg">
<path d="M12.5004 2C13.4391 2 13.9084 2.00016 14.2787 2.15234C14.7724 2.35531 15.165 2.74442 15.3695 3.23438C15.4629 3.45802 15.4997 3.71834 15.514 4.09766C15.5351 4.65538 15.8229 5.17212 16.3099 5.45117C16.7969 5.73018 17.3919 5.71976 17.889 5.45898C18.2272 5.2816 18.4724 5.18296 18.7142 5.15137C19.2439 5.08217 19.7796 5.22423 20.2035 5.54688C20.5216 5.78904 20.7565 6.19305 21.226 7C21.6953 7.80671 21.9303 8.21022 21.9828 8.60449C22.0525 9.13039 21.9087 9.66321 21.5834 10.084C21.4348 10.276 21.2265 10.4377 20.9027 10.6396C20.4266 10.9365 20.1195 11.4419 20.1195 12C20.1195 12.5581 20.4266 13.0635 20.9027 13.3604C21.2264 13.5622 21.4348 13.7241 21.5834 13.916C21.9086 14.3367 22.0523 14.8688 21.9828 15.3945C21.9304 15.7889 21.6955 16.193 21.226 17C20.7565 17.807 20.5216 18.2109 20.2035 18.4531C19.7796 18.7758 19.2439 18.9179 18.7142 18.8486C18.4724 18.817 18.2272 18.7183 17.889 18.541C17.3919 18.2802 16.7969 18.2698 16.3099 18.5488C15.8229 18.8279 15.535 19.3446 15.514 19.9023C15.4997 20.2817 15.4629 20.542 15.3695 20.7656C15.165 21.2555 14.7724 21.6447 14.2787 21.8477C13.9084 21.9998 13.4391 22 12.5004 22C11.5614 22 11.0914 21.9999 10.7211 21.8477C10.2274 21.6446 9.83476 21.2555 9.63025 20.7656C9.5369 20.542 9.501 20.2816 9.48669 19.9023C9.46567 19.3445 9.17684 18.8279 8.68982 18.5488C8.20297 18.2701 7.60871 18.2804 7.11169 18.541C6.77341 18.7184 6.52741 18.817 6.28552 18.8486C5.75587 18.9177 5.22014 18.7758 4.79626 18.4531C4.47824 18.211 4.24329 17.807 3.7738 17C3.30433 16.193 3.06929 15.7889 3.01697 15.3945C2.94737 14.8688 3.09112 14.3367 3.41638 13.916C3.56489 13.724 3.77418 13.5624 4.09802 13.3604C4.57395 13.0634 4.88022 12.5579 4.88025 12C4.88028 11.4419 4.5742 10.9357 4.09802 10.6387C3.77421 10.4367 3.56488 10.276 3.41638 10.084C3.09101 9.66314 2.9472 9.13038 3.01697 8.60449C3.06938 8.21019 3.3045 7.80672 3.7738 7C4.24329 6.19297 4.47824 5.78906 4.79626 5.54688C5.22025 5.22407 5.75668 5.08214 6.2865 5.15137C6.52823 5.18304 6.77362 5.28165 7.11169 5.45898C7.60866 5.71958 8.20298 5.72993 8.68982 5.45117C9.17681 5.17213 9.46568 4.65535 9.48669 4.09766C9.501 3.71835 9.53691 3.45802 9.63025 3.23438C9.83476 2.74443 10.2274 2.35534 10.7211 2.15234C11.0914 2.0001 11.5614 2 12.5004 2ZM12.5004 9C10.8309 9 9.47693 10.3431 9.47693 12C9.47693 13.6569 10.8309 15 12.5004 15C14.1697 14.9998 15.5228 13.6568 15.5228 12C15.5228 10.3432 14.1697 9.00018 12.5004 9Z" fill="#48465C"/>
</svg>
