<svg width="24" height="24" viewBox="0 0 24 24" fill="none" xmlns="http://www.w3.org/2000/svg">
<path d="M12.5003 2C13.439 2 13.9084 2.00016 14.2786 2.15234C14.7724 2.35531 15.1649 2.74442 15.3694 3.23438C15.4628 3.45802 15.4997 3.71834 15.514 4.09766C15.5351 4.65538 15.8229 5.17212 16.3099 5.45117C16.7969 5.73018 17.3918 5.71976 17.889 5.45898C18.2271 5.2816 18.4723 5.18296 18.7142 5.15137C19.2439 5.08217 19.7795 5.22423 20.2034 5.54688C20.5215 5.78904 20.7564 6.19305 21.2259 7C21.6952 7.80671 21.9302 8.21022 21.9827 8.60449C22.0524 9.13039 21.9086 9.66321 21.5833 10.084C21.4348 10.276 21.2264 10.4377 20.9026 10.6396C20.4265 10.9365 20.1194 11.4419 20.1194 12C20.1195 12.5581 20.4266 13.0635 20.9026 13.3604C21.2264 13.5622 21.4347 13.7241 21.5833 13.916C21.9085 14.3367 22.0523 14.8688 21.9827 15.3945C21.9303 15.7889 21.6954 16.193 21.2259 17C20.7565 17.807 20.5215 18.2109 20.2034 18.4531C19.7795 18.7758 19.2438 18.9179 18.7142 18.8486C18.4723 18.817 18.2272 18.7183 17.889 18.541C17.3918 18.2802 16.7968 18.2698 16.3099 18.5488C15.8229 18.8279 15.535 19.3446 15.514 19.9023C15.4997 20.2817 15.4628 20.542 15.3694 20.7656C15.1649 21.2555 14.7724 21.6447 14.2786 21.8477C13.9084 21.9998 13.439 22 12.5003 22C11.5613 22 11.0913 21.9999 10.721 21.8477C10.2273 21.6446 9.8347 21.2555 9.63019 20.7656C9.53684 20.542 9.50094 20.2816 9.48663 19.9023C9.46561 19.3445 9.17678 18.8279 8.68976 18.5488C8.20291 18.2701 7.60864 18.2804 7.11163 18.541C6.77335 18.7184 6.52735 18.817 6.28546 18.8486C5.75581 18.9177 5.22008 18.7758 4.7962 18.4531C4.47818 18.211 4.24323 17.807 3.77374 17C3.30427 16.193 3.06923 15.7889 3.01691 15.3945C2.9473 14.8688 3.09105 14.3367 3.41632 13.916C3.56483 13.724 3.77412 13.5624 4.09796 13.3604C4.57389 13.0634 4.88016 12.5579 4.88019 12C4.88022 11.4419 4.57414 10.9357 4.09796 10.6387C3.77415 10.4367 3.56482 10.276 3.41632 10.084C3.09095 9.66314 2.94714 9.13038 3.01691 8.60449C3.06932 8.21019 3.30444 7.80672 3.77374 7C4.24323 6.19297 4.47818 5.78906 4.7962 5.54688C5.22019 5.22407 5.75662 5.08214 6.28644 5.15137C6.52817 5.18304 6.77356 5.28165 7.11163 5.45898C7.6086 5.71958 8.20292 5.72993 8.68976 5.45117C9.17675 5.17213 9.46562 4.65535 9.48663 4.09766C9.50094 3.71835 9.53685 3.45802 9.63019 3.23438C9.8347 2.74443 10.2273 2.35534 10.721 2.15234C11.0913 2.0001 11.5613 2 12.5003 2ZM12.5003 9C10.8308 9 9.47687 10.3431 9.47687 12C9.47687 13.6569 10.8308 15 12.5003 15C14.1697 14.9998 15.5228 13.6568 15.5228 12C15.5228 10.3432 14.1697 9.00018 12.5003 9Z" fill="#1C274C"/>
</svg>
