<svg width="24" height="24" viewBox="0 0 24 24" fill="none" xmlns="http://www.w3.org/2000/svg">
<path d="M5.73338 2.04256C6.95074 0.832536 8.9544 1.0483 9.97361 2.40974L11.2353 4.09334C12.0647 5.20118 11.9912 6.75015 11.0068 7.72908L10.7676 7.96638C10.757 7.99673 10.7317 8.09216 10.7597 8.27302C10.823 8.68053 11.1634 9.54514 12.5918 10.9654C14.0195 12.385 14.8904 12.7251 15.3037 12.7886C15.4901 12.8172 15.5883 12.7906 15.6191 12.7799L16.0273 12.3746C16.9025 11.5043 18.2475 11.3413 19.331 11.9303L21.2422 12.9693C22.8777 13.8588 23.2911 16.082 21.9511 17.4146L20.5303 18.8267C20.0828 19.2717 19.4807 19.6431 18.7461 19.7115C16.9371 19.8802 12.719 19.6651 8.28709 15.2584C4.14918 11.144 3.35435 7.55549 3.25388 5.78767C3.20319 4.89389 3.62581 4.13731 4.16306 3.6031L5.73338 2.04256ZM8.77342 3.30818C8.26693 2.63162 7.32276 2.57784 6.79099 3.10603L5.22068 4.66756C4.89103 4.99547 4.73232 5.35675 4.75193 5.70271C4.83176 7.1073 5.47332 10.3455 9.3447 14.1949C13.406 18.2329 17.1575 18.3535 18.6074 18.2183C18.9035 18.1906 19.198 18.0364 19.4726 17.7633L20.8935 16.3511C21.4709 15.7769 21.3431 14.7313 20.5254 14.2867L18.6152 13.2486C18.0877 12.9618 17.4689 13.0563 17.0849 13.4381L16.6299 13.8902L16.1006 13.359C16.6294 13.8908 16.6286 13.8915 16.6279 13.8922L16.6172 13.9029L16.6025 13.9166C16.5921 13.9261 16.5799 13.9366 16.5664 13.9478C16.5393 13.9703 16.5056 13.9953 16.4658 14.022C16.3857 14.0756 16.2802 14.1347 16.1474 14.1842C15.8765 14.285 15.519 14.339 15.0761 14.2711C14.2094 14.138 13.0609 13.5469 11.5342 12.0289C10.0078 10.5112 9.41253 9.36776 9.2783 8.50252C9.20973 8.06026 9.26411 7.70319 9.36619 7.4322C9.41621 7.29944 9.47517 7.19373 9.52927 7.11385C9.55627 7.07401 9.5818 7.04032 9.60447 7.01326C9.6158 6.99974 9.62705 6.98759 9.6367 6.97713L9.65037 6.96248L9.66111 6.95174C9.66377 6.95308 9.69616 6.98396 10.1914 7.48201L9.66209 6.95076L9.9492 6.6656C10.3778 6.23944 10.4376 5.53172 10.0342 4.99275L8.77342 3.30818Z" fill="#1C274C"/>
</svg>
