<svg width="24" height="24" viewBox="0 0 24 24" fill="none" xmlns="http://www.w3.org/2000/svg">
<path d="M12.0388 1.25C13.2175 1.24999 14.157 1.24987 14.9177 1.32422C15.701 1.40077 16.3621 1.56088 16.9666 1.92188C17.2929 2.11678 17.5954 2.35041 17.866 2.61719C18.3676 3.11167 18.6886 3.71204 18.9597 4.45117C19.2228 5.16881 19.4585 6.07807 19.7546 7.21875L19.863 7.63574C20.2647 9.18285 20.5858 10.4189 20.7048 11.4062C20.8272 12.4211 20.7561 13.3137 20.2351 14.0898C20.1414 14.2295 20.0381 14.3625 19.9265 14.4883C19.4781 14.9936 18.9118 15.2867 18.2498 15.4619V17C18.2498 17.4142 17.914 17.75 17.4998 17.75C17.0857 17.7499 16.7498 17.4141 16.7498 17V15.6875C15.8808 15.7502 14.8312 15.75 13.5867 15.75H12.7498V21.25H14.9998C15.414 21.25 15.7498 21.5858 15.7498 22C15.7498 22.4142 15.414 22.75 14.9998 22.75H8.99976C8.58565 22.7499 8.24976 22.4141 8.24976 22C8.24976 21.5859 8.58565 21.2501 8.99976 21.25H11.2498V15.75H10.4138C8.81535 15.75 7.5381 15.7501 6.55249 15.6172C5.53953 15.4806 4.69328 15.1875 4.073 14.4883C3.96145 14.3625 3.8581 14.2295 3.7644 14.0898C3.24358 13.3138 3.17333 12.421 3.29565 11.4062C3.4147 10.4189 3.7348 9.18284 4.13647 7.63574L4.24487 7.21875C4.54104 6.07797 4.77767 5.16884 5.04077 4.45117C5.31179 3.71195 5.6329 3.1117 6.13452 2.61719C6.40511 2.35045 6.70678 2.11675 7.03296 1.92188C7.6376 1.5607 8.29925 1.40077 9.08276 1.32422C9.84351 1.24989 10.7831 1.24999 11.9617 1.25H12.0388ZM11.9998 2.75C10.7736 2.75 9.9076 2.75101 9.22827 2.81738C8.5636 2.88235 8.14538 3.00515 7.80249 3.20996C7.57928 3.34331 7.37243 3.50302 7.18726 3.68555C6.90289 3.96593 6.67885 4.3399 6.44897 4.9668C6.21401 5.60767 5.99538 6.44597 5.68726 7.63281L5.60327 7.95703C5.18389 9.57245 4.89041 10.7108 4.78491 11.5859C4.6813 12.4454 4.77961 12.9099 5.0105 13.2539C5.06672 13.3376 5.12813 13.4177 5.19507 13.4932C5.46997 13.8031 5.89488 14.0152 6.75269 14.1309C7.62623 14.2487 8.80165 14.25 10.4705 14.25H13.5291C15.1978 14.25 16.3732 14.2486 17.2468 14.1309C18.1046 14.0152 18.5294 13.803 18.8044 13.4932C18.8713 13.4177 18.9337 13.3376 18.99 13.2539C19.2208 12.9099 19.3192 12.4453 19.2156 11.5859C19.1101 10.7108 18.8166 9.57245 18.3972 7.95703L18.3123 7.63281C18.0042 6.44602 17.7855 5.60765 17.5505 4.9668C17.3207 4.33988 17.0967 3.96593 16.8123 3.68555C16.6271 3.50312 16.4211 3.34326 16.198 3.20996C15.8551 3.00507 15.4361 2.88235 14.7712 2.81738C14.0919 2.75103 13.2259 2.75 11.9998 2.75Z" fill="#48465C"/>
</svg>
