<svg width="24" height="24" viewBox="0 0 24 24" fill="none" xmlns="http://www.w3.org/2000/svg">
<path d="M12.0391 1.25C13.2174 1.24999 14.1564 1.24991 14.917 1.32422C15.7005 1.40077 16.3622 1.56074 16.9668 1.92188C17.293 2.11673 17.5947 2.35048 17.8652 2.61719C18.3669 3.1117 18.6879 3.71195 18.959 4.45117C19.2221 5.16884 19.4587 6.07795 19.7549 7.21875L19.8633 7.63574C20.265 9.18281 20.5851 10.4189 20.7041 11.4062C20.8265 12.421 20.7563 13.3138 20.2354 14.0898C20.1417 14.2295 20.0383 14.3625 19.9268 14.4883C19.4784 14.9936 18.912 15.2867 18.25 15.4619V17C18.25 17.4142 17.9142 17.75 17.5 17.75C17.0858 17.75 16.75 17.4142 16.75 17V15.6875C15.8811 15.7502 14.8315 15.75 13.5869 15.75H12.75V21.25H15C15.4142 21.25 15.75 21.5858 15.75 22C15.75 22.4142 15.4142 22.75 15 22.75H9C8.58579 22.75 8.25 22.4142 8.25 22C8.25 21.5858 8.58579 21.25 9 21.25H11.25V15.75H10.4131C8.81488 15.75 7.53826 15.75 6.55273 15.6172C5.53976 15.4806 4.69353 15.1875 4.07324 14.4883C3.96165 14.3625 3.85838 14.2295 3.76465 14.0898C3.24374 13.3137 3.17259 12.421 3.29492 11.4062C3.41396 10.4189 3.73503 9.18288 4.13672 7.63574L4.24512 7.21875C4.54129 6.07792 4.7779 5.16886 5.04102 4.45117C5.31204 3.71195 5.63315 3.1117 6.13477 2.61719C6.40532 2.35051 6.70708 2.11671 7.0332 1.92188C7.63767 1.56086 8.29881 1.40078 9.08203 1.32422C9.84278 1.24987 10.7823 1.24999 11.9609 1.25H12.0391ZM12 2.75C10.7738 2.75 9.90787 2.75101 9.22852 2.81738C8.56364 2.88235 8.14471 3.00507 7.80176 3.20996C7.57868 3.34327 7.37257 3.50311 7.1875 3.68555C6.90308 3.96594 6.67912 4.33986 6.44922 4.9668C6.21426 5.60766 5.99562 6.446 5.6875 7.63281L5.60352 7.95703C5.18414 9.57245 4.88968 10.7108 4.78418 11.5859C4.68061 12.4452 4.77898 12.9099 5.00977 13.2539C5.06601 13.3376 5.12834 13.4177 5.19531 13.4932C5.47025 13.8031 5.89509 14.0152 6.75293 14.1309C7.62651 14.2487 8.80179 14.25 10.4707 14.25H13.5293C15.1982 14.25 16.3735 14.2487 17.2471 14.1309C18.1049 14.0152 18.5297 13.8031 18.8047 13.4932C18.8716 13.4177 18.9339 13.3376 18.9902 13.2539C19.221 12.9099 19.3194 12.4452 19.2158 11.5859C19.1103 10.7108 18.8159 9.57245 18.3965 7.95703L18.3125 7.63281C18.0044 6.44598 17.7858 5.60766 17.5508 4.9668C17.3209 4.33985 17.0969 3.96594 16.8125 3.68555C16.6273 3.50302 16.4205 3.34331 16.1973 3.20996C15.8544 3.00518 15.4362 2.88233 14.7715 2.81738C14.0921 2.75101 13.2262 2.75 12 2.75Z" fill="#1C274C"/>
</svg>
