<svg width="24" height="24" viewBox="0 0 24 24" fill="none" xmlns="http://www.w3.org/2000/svg">
<path d="M12.5 4.25C13.2621 4.25 13.7917 4.73131 14.2031 5.26855C14.6063 5.79501 15.0324 6.558 15.5449 7.47754L15.8535 8.03125C16.1921 8.63857 16.2657 8.74005 16.3496 8.80371C16.4287 8.86373 16.5333 8.90384 17.1914 9.05273L17.7939 9.18848C18.7863 9.41298 19.6169 9.60133 20.2246 9.84082C20.859 10.0908 21.4422 10.4707 21.667 11.1934C21.8889 11.9076 21.6352 12.5572 21.2686 13.1396C20.914 13.7029 20.3507 14.3626 19.6719 15.1562L19.2637 15.6338C18.8181 16.1548 18.7456 16.2614 18.7109 16.373C18.6753 16.4877 18.6749 16.6243 18.7422 17.3184L18.8037 17.9541C18.9066 19.0149 18.9908 19.8925 18.9609 20.5635C18.9304 21.2483 18.7743 21.9397 18.1768 22.3936C17.5667 22.8566 16.862 22.7973 16.2129 22.6113C15.5866 22.4318 14.8089 22.0743 13.8799 21.6465L13.3154 21.3867C12.6963 21.1017 12.5919 21.0713 12.5 21.0713C12.4081 21.0713 12.3037 21.1017 11.6846 21.3867L11.1201 21.6465C10.1911 22.0743 9.41346 22.4318 8.78711 22.6113C8.13807 22.7973 7.4333 22.8566 6.82324 22.3936C6.22563 21.9397 6.06962 21.2483 6.03906 20.5635C6.00918 19.8924 6.09346 19.0149 6.19629 17.9541L6.25781 17.3184C6.32506 16.6243 6.3247 16.4877 6.28906 16.373C6.25437 16.2615 6.18279 16.1547 5.7373 15.6338L5.32812 15.1562C4.64938 14.3626 4.08605 13.7029 3.73145 13.1396C3.36487 12.5572 3.11099 11.9076 3.33301 11.1934C3.55771 10.4707 4.14097 10.0908 4.77539 9.84082C5.38309 9.60134 6.21363 9.41298 7.20605 9.18848L7.80859 9.05273C8.46669 8.90384 8.57126 8.86373 8.65039 8.80371C8.73425 8.74005 8.80794 8.63857 9.14648 8.03125L9.45508 7.47754C9.96762 6.55801 10.3937 5.79501 10.7969 5.26855C11.2083 4.7313 11.7379 4.25 12.5 4.25ZM12.5 5.75C12.4573 5.75 12.3154 5.75221 11.9873 6.18066C11.6589 6.60961 11.2857 7.27532 10.7354 8.2627L10.457 8.76172C10.4391 8.79395 10.421 8.82657 10.4033 8.8584C10.1522 9.31071 9.92478 9.71924 9.55762 9.99805C9.18593 10.2802 8.73385 10.3823 8.24414 10.4922C8.2097 10.4999 8.17446 10.5077 8.13965 10.5156L7.59863 10.6377C6.52803 10.8799 5.81234 11.0444 5.3252 11.2363C4.85237 11.4228 4.78862 11.5616 4.76465 11.6387C4.73818 11.7241 4.71673 11.8908 5 12.3408C5.28891 12.7997 5.77924 13.3756 6.50781 14.2275L6.87695 14.6592C6.89993 14.686 6.92263 14.7128 6.94531 14.7393C7.28249 15.1323 7.58348 15.4832 7.72168 15.9277C7.85884 16.369 7.81338 16.8318 7.76172 17.3564C7.75826 17.3916 7.75445 17.4271 7.75098 17.4629L7.69531 18.0391C7.58528 19.1745 7.51257 19.9444 7.53711 20.4961C7.56163 21.0466 7.67717 21.1588 7.73047 21.1992C7.77174 21.2306 7.88272 21.3107 8.37402 21.1699C8.87616 21.026 9.54803 20.7185 10.5508 20.2568L11.0566 20.0244C11.0898 20.009 11.1234 19.9937 11.1562 19.9785C11.6116 19.7678 12.0358 19.5713 12.5 19.5713C12.9642 19.5713 13.3885 19.7678 13.8438 19.9785C13.8766 19.9937 13.9102 20.009 13.9434 20.0244L14.4492 20.2568C15.4518 20.7185 16.1239 21.026 16.626 21.1699C17.1174 21.3107 17.2283 21.2305 17.2695 21.1992C17.3228 21.1588 17.4384 21.0466 17.4629 20.4961C17.4874 19.9444 17.4147 19.1745 17.3047 18.0391L17.249 17.4629C17.2455 17.4271 17.2418 17.3916 17.2383 17.3564C17.1866 16.8318 17.1412 16.369 17.2783 15.9277C17.4166 15.4832 17.7175 15.1323 18.0547 14.7393C18.0774 14.7128 18.1 14.686 18.123 14.6592L18.4922 14.2275C19.2208 13.3756 19.7111 12.7997 20 12.3408C20.2833 11.8908 20.2618 11.7241 20.2354 11.6387C20.2114 11.5616 20.1476 11.4228 19.6748 11.2363C19.1877 11.0444 18.4719 10.8799 17.4014 10.6377L16.8604 10.5156C16.8256 10.5078 16.7903 10.4999 16.7559 10.4922C16.2661 10.3823 15.8141 10.2802 15.4424 9.99805C15.0752 9.71924 14.8478 9.3107 14.5967 8.8584C14.579 8.82657 14.5609 8.79396 14.543 8.76172L14.2646 8.2627C13.7143 7.27534 13.3411 6.60961 13.0127 6.18066C12.6846 5.75225 12.5427 5.75 12.5 5.75ZM4.98828 1.5C5.22756 1.49924 5.43395 1.66862 5.48047 1.90332V1.9043L5.48242 1.91406C5.48429 1.92301 5.48712 1.93758 5.49121 1.95605C5.4994 1.99296 5.51224 2.04743 5.5293 2.11523C5.5637 2.25192 5.61564 2.44032 5.68555 2.64551C5.83317 3.07872 6.03393 3.5042 6.26172 3.73047C6.48961 3.95658 6.91565 4.15324 7.34961 4.29785C7.55542 4.36644 7.74385 4.41768 7.88086 4.45117C7.94908 4.46785 8.004 4.48033 8.04102 4.48828C8.05912 4.49217 8.07307 4.49428 8.08203 4.49609L8.0918 4.49805L8.09375 4.49902C8.32883 4.54391 8.49919 4.74893 8.5 4.98828C8.50076 5.22754 8.33135 5.43393 8.09668 5.48047H8.0957L8.08594 5.48242C8.07699 5.48429 8.06242 5.48712 8.04395 5.49121C8.00703 5.4994 7.95257 5.51224 7.88477 5.5293C7.74808 5.5637 7.55968 5.61564 7.35449 5.68555C6.92128 5.83317 6.49579 6.03393 6.26953 6.26172C6.04342 6.48961 5.84676 6.91566 5.70215 7.34961C5.63357 7.55542 5.58232 7.74385 5.54883 7.88086C5.53215 7.94908 5.51967 8.004 5.51172 8.04102C5.50783 8.05912 5.50572 8.07307 5.50391 8.08203L5.50195 8.0918L5.50098 8.09375C5.45609 8.32883 5.25107 8.49919 5.01172 8.5C4.77239 8.50076 4.56597 8.33145 4.51953 8.09668V8.0957L4.51758 8.08594C4.51571 8.07699 4.51288 8.06242 4.50879 8.04395C4.5006 8.00703 4.48776 7.95257 4.4707 7.88477C4.4363 7.74808 4.38436 7.55968 4.31445 7.35449C4.16683 6.92128 3.96607 6.49579 3.73828 6.26953C3.51039 6.04342 3.08434 5.84676 2.65039 5.70215C2.44459 5.63357 2.25614 5.58232 2.11914 5.54883C2.05093 5.53215 1.996 5.51966 1.95898 5.51172C1.94088 5.50783 1.92693 5.50572 1.91797 5.50391L1.9082 5.50195L1.90625 5.50098C1.67118 5.45608 1.50081 5.25107 1.5 5.01172C1.49924 4.77239 1.66855 4.56597 1.90332 4.51953H1.9043L1.91406 4.51758C1.92301 4.51571 1.93758 4.51288 1.95605 4.50879C1.99296 4.5006 2.04743 4.48776 2.11523 4.4707C2.25192 4.4363 2.44032 4.38436 2.64551 4.31445C3.07872 4.16683 3.5042 3.96607 3.73047 3.73828C3.95657 3.51039 4.15324 3.08435 4.29785 2.65039C4.36643 2.44458 4.41768 2.25614 4.45117 2.11914C4.46785 2.05093 4.48033 1.996 4.48828 1.95898C4.49217 1.94088 4.49428 1.92693 4.49609 1.91797L4.49805 1.9082L4.49902 1.90625C4.54392 1.67118 4.74893 1.50081 4.98828 1.5ZM19 3.25C19.4142 3.25001 19.75 3.58579 19.75 4V4.25H20C20.4142 4.25 20.75 4.58579 20.75 5C20.75 5.41421 20.4142 5.75 20 5.75H19.75V6C19.75 6.41421 19.4142 6.74999 19 6.75C18.5858 6.75 18.25 6.41421 18.25 6V5.75H18C17.5858 5.75 17.25 5.41421 17.25 5C17.25 4.58579 17.5858 4.25 18 4.25H18.25V4C18.25 3.58579 18.5858 3.25 19 3.25ZM4.99512 3.60352C4.85287 3.90632 4.67034 4.21091 4.43945 4.44336C4.20857 4.67578 3.90532 4.8606 3.60352 5.00488C3.90632 5.14713 4.21091 5.32966 4.44336 5.56055C4.67578 5.79143 4.8606 6.09468 5.00488 6.39648C5.14713 6.09368 5.32966 5.78909 5.56055 5.55664C5.79143 5.32422 6.09468 5.1394 6.39648 4.99512C6.09368 4.85287 5.78909 4.67034 5.55664 4.43945C5.32423 4.20857 5.1394 3.90531 4.99512 3.60352Z" fill="#1C274C"/>
</svg>
