<svg width="24" height="24" viewBox="0 0 24 24" fill="none" xmlns="http://www.w3.org/2000/svg">
<path fill-rule="evenodd" clip-rule="evenodd" d="M9.61426 1.72841C11.1431 1.09021 12.8569 1.09021 14.3857 1.72841C18.8468 3.59063 21.75 8.02215 21.75 12.9286V13.1932C21.7498 18.4553 17.5745 22.7498 12.3887 22.7499H11.6113C6.42553 22.7498 2.25022 18.4553 2.25 13.1932V12.9286C2.25 8.02214 5.15321 3.59063 9.61426 1.72841ZM13.8076 3.11317C12.6486 2.62936 11.3514 2.62936 10.1924 3.11317C6.30394 4.73636 3.75 8.61189 3.75 12.9286V13.1932C3.75022 17.6589 7.28554 21.2498 11.6113 21.2499H12.3887C16.7145 21.2498 20.2498 17.6589 20.25 13.1932V12.9286C20.25 8.61189 17.696 4.73636 13.8076 3.11317ZM11.0713 5.59559C11.4472 5.42194 11.8926 5.58594 12.0664 5.9618C12.2402 6.33771 12.0761 6.78309 11.7002 6.95692C10.1548 7.67166 8.90758 9.12557 8.33008 10.9501C8.2051 11.3449 7.78353 11.5633 7.38867 11.4384C6.99376 11.3134 6.77441 10.8919 6.89941 10.497C7.59146 8.31077 9.10648 6.50421 11.0713 5.59559Z" fill="#1C274C"/>
</svg>
