<svg width="24" height="24" viewBox="0 0 24 24" fill="none" xmlns="http://www.w3.org/2000/svg">
<path d="M9.61426 1.72852C11.1431 1.09032 12.8569 1.09032 14.3857 1.72852C18.8468 3.59074 21.75 8.02226 21.75 12.9287V13.1934C21.7498 18.4554 17.5745 22.7499 12.3887 22.75H11.6113C6.42553 22.7499 2.25022 18.4554 2.25 13.1934V12.9287C2.25 8.02225 5.15321 3.59074 9.61426 1.72852ZM13.8076 3.11328C12.6486 2.62947 11.3514 2.62947 10.1924 3.11328C6.30394 4.73647 3.75 8.612 3.75 12.9287V13.1934C3.75022 17.659 7.28554 21.2499 11.6113 21.25H12.3887C16.7145 21.2499 20.2498 17.659 20.25 13.1934V12.9287C20.25 8.612 17.696 4.73647 13.8076 3.11328ZM11.0713 5.5957C11.4472 5.42212 11.8927 5.58608 12.0664 5.96191C12.2403 6.33786 12.0762 6.78317 11.7002 6.95703C10.1549 7.67173 8.90762 9.12575 8.33008 10.9502C8.20513 11.345 7.78347 11.5642 7.38867 11.4395C6.99389 11.3145 6.77467 10.8928 6.89941 10.498C7.59141 8.31173 9.10639 6.50436 11.0713 5.5957Z" fill="#48465C"/>
</svg>
