<svg width="24" height="24" viewBox="0 0 24 24" fill="none" xmlns="http://www.w3.org/2000/svg">
<path d="M3.05432 3.0542C5.45983 0.64868 9.35973 0.64868 11.7653 3.0542L20.9459 12.2349C23.3513 14.6404 23.3514 18.5402 20.9459 20.9458C18.5404 23.3513 14.6405 23.3512 12.235 20.9458L3.05432 11.7651C0.648802 9.35961 0.648802 5.45971 3.05432 3.0542ZM13.8678 20.3726C15.689 21.6865 18.2462 21.5245 19.8854 19.8853C21.5246 18.2461 21.6866 15.6889 20.3727 13.8677L13.8678 20.3726ZM4.64514 11.2349L12.7653 19.355L19.3551 12.7651L11.235 4.64502L4.64514 11.2349ZM11.2926 14.1206C11.6832 13.73 12.317 13.73 12.7076 14.1206C13.0981 14.5111 13.0981 15.1451 12.7076 15.5356C12.317 15.9261 11.6832 15.9261 11.2926 15.5356C10.9021 15.1452 10.9021 14.5111 11.2926 14.1206ZM8.46448 11.2925C8.85495 10.9022 9.48806 10.9022 9.87854 11.2925C10.269 11.6829 10.2689 12.316 9.87854 12.7065C9.48802 13.097 8.85501 13.097 8.46448 12.7065C8.07416 12.316 8.07402 11.6829 8.46448 11.2925ZM14.1217 11.2925C14.5122 10.9024 15.1454 10.9021 15.5358 11.2925C15.9261 11.6829 15.9259 12.316 15.5358 12.7065C15.1453 13.097 14.5122 13.097 14.1217 12.7065C13.7311 12.316 13.7311 11.683 14.1217 11.2925ZM11.2926 8.46436C11.6832 8.07384 12.317 8.07384 12.7076 8.46436C13.098 8.85475 13.0977 9.48786 12.7076 9.87842C12.317 10.269 11.6832 10.269 11.2926 9.87842C10.9026 9.48787 10.9023 8.85474 11.2926 8.46436ZM10.1315 3.62646C8.31031 2.31285 5.75393 2.47567 4.11487 4.11475C2.47579 5.75381 2.31297 8.31018 3.62659 10.1313L10.1315 3.62646Z" fill="#1C274C"/>
</svg>
