<svg width="24" height="24" viewBox="0 0 24 24" fill="none" xmlns="http://www.w3.org/2000/svg">
<path d="M14.0566 3.25C15.8943 3.24998 17.3501 3.25016 18.4893 3.40332C19.6615 3.56095 20.6101 3.89332 21.3584 4.6416C22.1066 5.38992 22.439 6.33844 22.5967 7.51074C22.7498 8.64989 22.75 10.1058 22.75 11.9434V12.0566C22.75 13.8943 22.7498 15.3501 22.5967 16.4893C22.439 17.6615 22.1066 18.6101 21.3584 19.3584C20.6101 20.1066 19.6615 20.439 18.4893 20.5967C17.3501 20.7498 15.8943 20.75 14.0566 20.75H9.94336C8.1057 20.75 6.64991 20.7498 5.51074 20.5967C4.33844 20.439 3.38992 20.1066 2.6416 19.3584C1.89332 18.6101 1.56095 17.6615 1.40332 16.4893C1.25016 15.3501 1.24998 13.8943 1.25 12.0566V11.9434C1.24998 10.1057 1.25016 8.6499 1.40332 7.51074C1.56095 6.33844 1.8933 5.38992 2.6416 4.6416C3.38992 3.8933 4.33844 3.56095 5.51074 3.40332C6.64991 3.25016 8.10571 3.24998 9.94336 3.25H14.0566ZM10 4.75C8.09324 4.75 6.73858 4.75149 5.71094 4.88965C4.70485 5.02492 4.12536 5.27894 3.70215 5.70215C3.27894 6.12536 3.02492 6.70485 2.88965 7.71094C2.75149 8.73858 2.75 10.0933 2.75 12C2.75 13.9067 2.7515 15.2614 2.88965 16.2891C3.02492 17.2951 3.27894 17.8747 3.70215 18.2979C4.12536 18.7211 4.70485 18.9752 5.71094 19.1104C6.73858 19.2485 8.09325 19.25 10 19.25H14C15.9067 19.25 17.2614 19.2485 18.2891 19.1104C19.2951 18.9752 19.8747 18.7211 20.2979 18.2979C20.7211 17.8747 20.9752 17.2951 21.1104 16.2891C21.2485 15.2614 21.25 13.9067 21.25 12C21.25 10.0933 21.2485 8.73858 21.1104 7.71094C20.9752 6.70485 20.7211 6.12536 20.2979 5.70215C19.8747 5.27894 19.2951 5.02492 18.2891 4.88965C17.2614 4.7515 15.9067 4.75 14 4.75H10ZM6.73242 9.25C7.14663 9.25 7.48242 9.58579 7.48242 10V10.7002L8.08887 10.3506C8.44752 10.1435 8.90613 10.2665 9.11328 10.625C9.32039 10.9837 9.19759 11.4423 8.83887 11.6494L8.23242 12L8.83984 12.3506C9.19828 12.5578 9.3212 13.0164 9.11426 13.375C8.9072 13.7336 8.44853 13.8563 8.08984 13.6494L7.48242 13.2988V14C7.48242 14.4142 7.14663 14.75 6.73242 14.75C6.31837 14.7498 5.98242 14.4141 5.98242 14V13.2988L5.375 13.6494C5.01629 13.8565 4.55769 13.7337 4.35059 13.375C4.14352 13.0163 4.26638 12.5577 4.625 12.3506L5.23242 12L4.625 11.6494C4.26656 11.4423 4.14363 10.9836 4.35059 10.625C4.55764 10.2664 5.01631 10.1437 5.375 10.3506L5.98242 10.7012V10C5.98242 9.58591 6.31837 9.2502 6.73242 9.25ZM12 9.25C12.4142 9.25 12.75 9.58579 12.75 10V10.7002L13.3564 10.3506C13.7151 10.1435 14.1737 10.2665 14.3809 10.625C14.588 10.9837 14.4651 11.4423 14.1064 11.6494L13.5 12L14.1074 12.3506C14.4658 12.5578 14.5888 13.0164 14.3818 13.375C14.1748 13.7336 13.7161 13.8563 13.3574 13.6494L12.75 13.2988V14C12.75 14.4142 12.4142 14.75 12 14.75C11.5859 14.7498 11.25 14.4141 11.25 14V13.2988L10.6426 13.6494C10.2839 13.8565 9.82526 13.7337 9.61816 13.375C9.41109 13.0163 9.53396 12.5577 9.89258 12.3506L10.5 12L9.89258 11.6494C9.53413 11.4423 9.41121 10.9836 9.61816 10.625C9.82523 10.2664 10.2839 10.1437 10.6426 10.3506L11.25 10.7012V10C11.25 9.5859 11.5859 9.25018 12 9.25ZM17.2676 9.25C17.6818 9.25 18.0176 9.58579 18.0176 10V10.7002L18.624 10.3506C18.9827 10.1435 19.4413 10.2664 19.6484 10.625C19.8555 10.9837 19.7327 11.4423 19.374 11.6494L18.7676 12L19.375 12.3506C19.7335 12.5578 19.8564 13.0164 19.6494 13.375C19.4424 13.7336 18.9838 13.8563 18.625 13.6494L18.0176 13.2988V14C18.0176 14.4142 17.6818 14.75 17.2676 14.75C16.8536 14.7498 16.5176 14.4141 16.5176 14V13.2988L15.9102 13.6494C15.5515 13.8565 15.0928 13.7337 14.8857 13.375C14.6787 13.0163 14.8015 12.5577 15.1602 12.3506L15.7676 12L15.1602 11.6494C14.8017 11.4423 14.6788 10.9836 14.8857 10.625C15.0928 10.2664 15.5515 10.1436 15.9102 10.3506L16.5176 10.7012V10C16.5176 9.58592 16.8536 9.25021 17.2676 9.25Z" fill="#48465C"/>
</svg>
