<svg width="24" height="24" viewBox="0 0 24 24" fill="none" xmlns="http://www.w3.org/2000/svg">
<path d="M7.0625 3.06201C9.4786 0.646227 13.3955 0.646196 15.8115 3.06201L20.9375 8.18799C23.3536 10.6041 23.3536 14.5218 20.9375 16.938C19.1523 18.7229 16.548 19.1891 14.335 18.3364C13.3843 20.9127 10.9071 22.7505 8 22.7505C4.27224 22.7505 1.25026 19.7282 1.25 16.0005C1.25 13.0933 3.08772 10.6162 5.66406 9.66553C4.81117 7.45227 5.27726 4.84725 7.0625 3.06201ZM6.38086 11.0044C4.27368 11.6868 2.75 13.6667 2.75 16.0005C2.75026 18.8998 5.10066 21.2505 8 21.2505C10.3339 21.2505 12.3137 19.7267 12.9961 17.6196C12.7127 17.4192 12.4421 17.1917 12.1885 16.938L7.0625 11.812C6.80872 11.5583 6.58133 11.2877 6.38086 11.0044ZM17.9902 7.9165C17.5356 8.85959 16.7546 10.1189 15.4365 11.437C14.1184 12.755 12.859 13.5362 11.916 13.9907C11.7827 14.0549 11.6559 14.1128 11.5361 14.1646L13.249 15.8774C15.0794 17.7076 18.0466 17.7076 19.877 15.8774C21.7074 14.047 21.7074 11.0789 19.877 9.24854L18.1641 7.53662C18.1123 7.65645 18.0544 7.78323 17.9902 7.9165ZM14.751 4.12256C12.9207 2.29255 9.95336 2.29257 8.12305 4.12256C6.29266 5.95294 6.29267 8.92106 8.12305 10.7515L10.376 13.0044C10.5926 12.9326 10.8971 12.8167 11.2656 12.6392C12.0712 12.2509 13.1873 11.5633 14.375 10.3755C15.5631 9.18743 16.2514 8.07085 16.6396 7.26514C16.8172 6.89665 16.932 6.59211 17.0039 6.37549L14.751 4.12256ZM12.4697 4.47021C12.7626 4.17732 13.2374 4.17732 13.5303 4.47021L15.0303 5.97021C15.323 6.26312 15.3231 6.73794 15.0303 7.03076C14.7374 7.32343 14.2626 7.32341 13.9697 7.03076L12.4697 5.53076C12.1769 5.23793 12.177 4.76312 12.4697 4.47021Z" fill="#1C274C"/>
</svg>
