<svg width="24" height="24" viewBox="0 0 24 24" fill="none" xmlns="http://www.w3.org/2000/svg">
<path d="M12 2C17.5228 2 22 6.47715 22 12V19.2061C21.9998 20.4897 20.6491 21.3241 19.501 20.75C18.5729 20.286 17.4668 20.3551 16.6035 20.9307C15.6323 21.5779 14.3677 21.5779 13.3965 20.9307L13.0439 20.6953C12.412 20.274 11.588 20.274 10.9561 20.6953L10.6035 20.9307C9.63234 21.5779 8.36761 21.5779 7.39648 20.9307C6.53315 20.3551 5.42708 20.286 4.49902 20.75C3.35088 21.3241 2.00018 20.4897 2 19.2061V12C2 6.47715 6.47715 2 12 2ZM15.6025 14.5537C15.356 14.221 14.8865 14.151 14.5537 14.3975C13.8253 14.9373 12.9459 15.25 12 15.25C11.0541 15.25 10.1747 14.9373 9.44629 14.3975C9.11354 14.151 8.64407 14.221 8.39746 14.5537C8.15099 14.8865 8.22101 15.356 8.55371 15.6025C9.52608 16.3232 10.7151 16.75 12 16.75C13.2849 16.75 14.4739 16.3232 15.4463 15.6025C15.779 15.356 15.849 14.8865 15.6025 14.5537ZM9 8C8.44772 8 8 8.67157 8 9.5C8 10.3284 8.44772 11 9 11C9.55228 11 10 10.3284 10 9.5C10 8.67157 9.55228 8 9 8ZM15 8C14.4477 8 14 8.67157 14 9.5C14 10.3284 14.4477 11 15 11C15.5523 11 16 10.3284 16 9.5C16 8.67157 15.5523 8 15 8Z" fill="#1C274C"/>
</svg>
