<svg width="24" height="24" viewBox="0 0 24 24" fill="none" xmlns="http://www.w3.org/2000/svg">
<path d="M6 14.25C8.07107 14.25 9.75 15.9289 9.75 18C9.75 20.0711 8.07107 21.75 6 21.75C3.92893 21.75 2.25 20.0711 2.25 18C2.25 15.9289 3.92893 14.25 6 14.25ZM18 14.25C20.0711 14.25 21.75 15.9289 21.75 18C21.75 20.0711 20.0711 21.75 18 21.75C15.9289 21.75 14.25 20.0711 14.25 18C14.25 15.9289 15.9289 14.25 18 14.25ZM6 15.75C4.75736 15.75 3.75 16.7574 3.75 18C3.75 19.2426 4.75736 20.25 6 20.25C7.24264 20.25 8.25 19.2426 8.25 18C8.25 16.7574 7.24264 15.75 6 15.75ZM18 15.75C16.7574 15.75 15.75 16.7574 15.75 18C15.75 19.2426 16.7574 20.25 18 20.25C19.2426 20.25 20.25 19.2426 20.25 18C20.25 16.7574 19.2426 15.75 18 15.75ZM9.95801 5.80762C10.4532 5.7626 10.8511 5.96751 11.1748 6.20898C11.4722 6.43088 11.7991 6.75543 12.1611 7.11523C12.1728 7.12682 12.1846 7.13875 12.1963 7.15039L12.7734 7.72363C13.6827 8.62729 13.9997 8.9233 14.3799 9.08008C14.7599 9.23669 15.1932 9.25 16.4746 9.25H18.5C18.9142 9.25 19.25 9.58579 19.25 10C19.25 10.4142 18.9142 10.75 18.5 10.75H16.332C15.2492 10.7506 14.4965 10.7508 13.8076 10.4668C13.1187 10.1826 12.5852 9.65152 11.8174 8.8877C11.7843 8.85477 11.7498 8.82189 11.7158 8.78809L11.1387 8.21387C10.7302 7.80786 10.4797 7.56143 10.2783 7.41113C10.1853 7.34173 10.1312 7.31532 10.1055 7.30566C10.1002 7.30367 10.096 7.30238 10.0938 7.30176C10.0916 7.30279 10.0879 7.30472 10.083 7.30762C10.0595 7.32177 10.0114 7.35748 9.93262 7.44238C9.76164 7.62662 9.55903 7.91433 9.23047 8.3877L8.00391 10.1553C7.66968 10.6368 7.46634 10.9322 7.35156 11.1611C7.29827 11.2674 7.28229 11.3271 7.27734 11.3545C7.27648 11.3594 7.27561 11.3628 7.27539 11.3652C7.27682 11.3671 7.27969 11.3701 7.2832 11.374C7.30179 11.3947 7.34708 11.4365 7.44824 11.499C7.66616 11.6337 7.99396 11.7792 8.53125 12.0137L10.0469 12.6748C10.6945 12.9574 11.2405 13.1959 11.6611 13.4424C12.1078 13.704 12.4859 14.0143 12.7393 14.4775C12.9926 14.9407 13.05 15.4261 13.0293 15.9434C13.0099 16.4305 12.9161 17.019 12.8047 17.7168L12.7402 18.1182C12.6749 18.5273 12.2908 18.8055 11.8818 18.7402C11.4727 18.6749 11.1945 18.2908 11.2598 17.8818L11.3164 17.5234C11.4366 16.7709 11.5148 16.2712 11.5303 15.8838C11.545 15.5163 11.4977 15.334 11.4229 15.1973C11.3481 15.0606 11.2206 14.9222 10.9033 14.7363C10.5688 14.5403 10.1057 14.337 9.40723 14.0322L7.88477 13.3682C7.40833 13.1603 6.97939 12.9732 6.65918 12.7754C6.31109 12.5603 5.96967 12.2598 5.83203 11.7744C5.6946 11.2892 5.82746 10.8549 6.01074 10.4893C6.17947 10.1527 6.44663 9.76795 6.74316 9.34082C6.75261 9.32721 6.76198 9.3135 6.77148 9.2998L7.99902 7.53223C8.00843 7.51868 8.01801 7.50467 8.02734 7.49121C8.31819 7.07209 8.58065 6.69379 8.83301 6.42188C9.10778 6.12587 9.46276 5.85275 9.95801 5.80762ZM15 1.25C16.5188 1.25 17.75 2.48122 17.75 4C17.75 5.51878 16.5188 6.75 15 6.75C13.4812 6.75 12.25 5.51878 12.25 4C12.25 2.48122 13.4812 1.25 15 1.25ZM15 2.75C14.3096 2.75 13.75 3.30964 13.75 4C13.75 4.69036 14.3096 5.25 15 5.25C15.6904 5.25 16.25 4.69036 16.25 4C16.25 3.30964 15.6904 2.75 15 2.75Z" fill="#48465C"/>
</svg>
