<svg width="24" height="24" viewBox="0 0 24 24" fill="none" xmlns="http://www.w3.org/2000/svg">
<path d="M9 12.25C11.0393 12.25 12.9229 12.7209 14.3223 13.5205C15.7002 14.308 16.75 15.5102 16.75 17C16.75 18.4898 15.7002 19.692 14.3223 20.4795C12.9229 21.2791 11.0393 21.75 9 21.75C6.96067 21.75 5.0771 21.2791 3.67773 20.4795C2.29976 19.692 1.25 18.4898 1.25 17C1.25 15.5102 2.29976 14.308 3.67773 13.5205C5.0771 12.7209 6.96067 12.25 9 12.25ZM9 13.75C7.17334 13.75 5.55601 14.1751 4.42188 14.8232C3.26692 15.4834 2.75 16.2808 2.75 17C2.75 17.7192 3.26692 18.5166 4.42188 19.1768C5.55601 19.8249 7.17334 20.25 9 20.25C10.8266 20.25 12.4431 19.8248 13.5771 19.1768C14.7325 18.5166 15.25 17.7193 15.25 17C15.25 16.2807 14.7325 15.4834 13.5771 14.8232C12.4431 14.1752 10.8266 13.75 9 13.75ZM15.6904 7.44629C16.411 7.12746 17.248 7.18833 18 7.67871C18.752 7.18833 19.589 7.12746 20.3096 7.44629C21.1647 7.82467 21.75 8.69881 21.75 9.69922C21.75 10.6474 21.3361 11.3613 20.8398 11.9023C20.4526 12.3245 19.9731 12.6813 19.5947 12.9629C19.5135 13.0234 19.4362 13.0803 19.3662 13.1338L19.3643 13.1357C19.2156 13.2492 19.023 13.3961 18.8203 13.5107C18.6164 13.6261 18.3342 13.75 18 13.75C17.6658 13.75 17.3836 13.6261 17.1797 13.5107C16.977 13.3962 16.7844 13.2492 16.6357 13.1357L16.6338 13.1338C16.5638 13.0803 16.4865 13.0233 16.4053 12.9629C16.027 12.6812 15.5473 12.3245 15.1602 11.9023C14.6639 11.3613 14.25 10.6474 14.25 9.69922C14.25 8.69881 14.8353 7.82467 15.6904 7.44629ZM19.7031 8.81836C19.437 8.70055 19.0129 8.68846 18.5322 9.17188C18.3914 9.31347 18.1997 9.39355 18 9.39355C17.8003 9.39355 17.6086 9.31347 17.4678 9.17188C16.9871 8.68846 16.563 8.70055 16.2969 8.81836C15.9896 8.95454 15.75 9.28746 15.75 9.69922C15.75 10.1632 15.9385 10.532 16.2656 10.8887C16.5477 11.1961 16.8841 11.4477 17.2559 11.7256C17.3495 11.7956 17.4461 11.8667 17.5439 11.9414C17.7065 12.0654 17.8188 12.149 17.918 12.2051C17.9579 12.2278 17.9847 12.2394 18 12.2451C18.0153 12.2394 18.0421 12.2278 18.082 12.2051C18.1812 12.149 18.2935 12.0654 18.4561 11.9414C18.5539 11.8667 18.6505 11.7956 18.7441 11.7256C19.116 11.4477 19.4523 11.1961 19.7344 10.8887C20.0615 10.532 20.25 10.1632 20.25 9.69922C20.25 9.28746 20.0104 8.95454 19.7031 8.81836ZM9 1.25C11.6234 1.25 13.75 3.37665 13.75 6C13.75 8.62335 11.6234 10.75 9 10.75C6.37665 10.75 4.25 8.62335 4.25 6C4.25 3.37665 6.37665 1.25 9 1.25ZM9 2.75C7.20507 2.75 5.75 4.20507 5.75 6C5.75 7.79493 7.20507 9.25 9 9.25C10.7949 9.25 12.25 7.79493 12.25 6C12.25 4.20507 10.7949 2.75 9 2.75Z" fill="#1C274C"/>
</svg>
