<svg width="24" height="24" viewBox="0 0 24 24" fill="none" xmlns="http://www.w3.org/2000/svg">
<path d="M11.25 22C9.88383 21.9987 8.73116 21.99 7.75 21.9316V17.75H11.25V22ZM16.25 21.9316C15.2688 21.99 14.1162 21.9987 12.75 22V17.75H16.25V21.9316ZM6.25 21.7783C5.02729 21.5841 4.14887 21.2191 3.46484 20.5352C2.78081 19.8512 2.41594 18.9727 2.22168 17.75H6.25V21.7783ZM21.7783 17.75C21.584 18.9727 21.2193 19.8512 20.5352 20.5352C19.8512 21.2192 18.9727 21.5841 17.75 21.7783V17.75H21.7783ZM21.9316 7.75C22.0003 8.90579 22 10.2995 22 12C22 13.7004 22.0003 15.0942 21.9316 16.25H2.06836C1.99962 15.0942 2 13.7004 2 12C2 10.2995 1.99962 8.90579 2.06836 7.75H21.9316ZM12.4111 10.4043C11.3377 9.68286 10.8007 9.32217 10.4004 9.58691C10.0001 9.85182 10 10.568 10 12C10 13.4321 10.0002 14.1481 10.4004 14.4131C10.8007 14.678 11.3374 14.3173 12.4111 13.5957C13.4703 12.8838 14 12.5278 14 12C13.9998 11.4723 13.4702 11.1161 12.4111 10.4043ZM6.25 6.25H2.22168C2.41594 5.02727 2.7808 4.1479 3.46484 3.46387C4.14882 2.78001 5.02746 2.41592 6.25 2.22168V6.25ZM11.25 6.25H7.75V2.06836C8.73117 2.01001 9.88382 2.00133 11.25 2V6.25ZM12.75 2C14.1162 2.00133 15.2688 2.01001 16.25 2.06836V6.25H12.75V2ZM17.75 2.22168C18.9725 2.41592 19.8512 2.78 20.5352 3.46387C21.2193 4.1479 21.584 5.02727 21.7783 6.25H17.75V2.22168Z" fill="#1C274C"/>
</svg>
