<svg width="24" height="24" viewBox="0 0 24 24" fill="none" xmlns="http://www.w3.org/2000/svg">
<path d="M6.98634 1.25001C7.33762 1.24999 7.56417 1.24987 7.78517 1.27052C8.73645 1.35948 9.63943 1.73302 10.375 2.34278C10.5459 2.4845 10.7056 2.64506 10.9541 2.89356L11.5303 3.46974C12.376 4.31545 12.7017 4.6309 13.0772 4.83985C13.2951 4.96106 13.5259 5.05762 13.7656 5.12599C14.1789 5.24379 14.6324 5.25001 15.8281 5.25001H16.2529C17.5258 5.24999 18.5524 5.25047 19.3643 5.35255C20.2055 5.45834 20.9205 5.68371 21.5078 6.21192C21.6061 6.30033 21.6997 6.3939 21.7881 6.4922C22.3162 7.07946 22.5418 7.79447 22.6475 8.63575C22.7496 9.44764 22.75 10.4742 22.75 11.7471V14.0566C22.75 15.8943 22.7498 17.3501 22.5967 18.4893C22.439 19.6616 22.1067 20.6101 21.3584 21.3584C20.6102 22.1067 19.6616 22.4391 18.4893 22.5967C17.3501 22.7498 15.8944 22.75 14.0566 22.75H9.94337C8.10573 22.75 6.64992 22.7498 5.51075 22.5967C4.33846 22.4391 3.38991 22.1066 2.64161 21.3584C1.89333 20.6101 1.56097 19.6616 1.40333 18.4893C1.25018 17.3501 1.24999 15.8943 1.25001 14.0566V6.85938C1.2499 6.06347 1.24949 5.55665 1.33204 5.11915C1.69461 3.1978 3.1978 1.69461 5.11915 1.33204C5.55665 1.24949 6.06347 1.2499 6.85938 1.25001H6.98634ZM6.9502 2.75001C6.03356 2.75001 5.67875 2.75358 5.39747 2.80665C4.08283 3.05471 3.05472 4.08282 2.80665 5.39747C2.75358 5.67874 2.75001 6.03356 2.75001 6.9502V14C2.75001 15.9067 2.75152 17.2614 2.88966 18.2891C3.02493 19.2952 3.27896 19.8747 3.70216 20.2979C4.12537 20.7211 4.70487 20.9751 5.71095 21.1104C6.7386 21.2485 8.09325 21.25 10 21.25H14C15.9068 21.25 17.2615 21.2485 18.2891 21.1104C19.2952 20.9751 19.8747 20.7211 20.2979 20.2979C20.7211 19.8747 20.9752 19.2952 21.1104 18.2891C21.2485 17.2614 21.25 15.9067 21.25 14V11.7979C21.25 10.4622 21.249 9.5306 21.1602 8.82325C21.0736 8.13461 20.9141 7.7633 20.6729 7.49513C20.6199 7.43623 20.5638 7.38014 20.5049 7.32716C20.2367 7.08596 19.8654 6.92741 19.1768 6.84083C18.4694 6.75191 17.5379 6.75001 16.2022 6.75001H15.7178C14.67 6.75023 13.9941 6.75066 13.3545 6.56837C13.004 6.46842 12.6662 6.32765 12.3477 6.1504C11.7665 5.82706 11.2886 5.34946 10.5479 4.60841L9.91993 3.98048C9.63666 3.69721 9.52747 3.58964 9.417 3.49806C8.91375 3.08092 8.29634 2.82455 7.64552 2.76368C7.50278 2.75035 7.35022 2.75001 6.9502 2.75001ZM14 13.25C14.4142 13.25 14.75 13.5858 14.75 14C14.75 14.4142 14.4142 14.75 14 14.75H10C9.5858 14.75 9.25001 14.4142 9.25001 14C9.25001 13.5858 9.5858 13.25 10 13.25H14Z" fill="#1C274C"/>
</svg>
