<svg width="24" height="24" viewBox="0 0 24 24" fill="none" xmlns="http://www.w3.org/2000/svg">
<path d="M15 2C15.9319 2 16.398 2.0001 16.7656 2.15234C17.1744 2.32176 17.5135 2.62089 17.7324 3C17.7757 3.07506 17.8141 3.15342 17.8477 3.23438C17.9999 3.60192 18 4.06812 18 5V19C18 19.9319 17.9999 20.398 17.8477 20.7656C17.8141 20.8466 17.7757 20.9249 17.7324 21C17.5135 21.3791 17.1744 21.6782 16.7656 21.8477C16.398 21.9999 15.9319 22 15 22C14.0681 22 13.602 21.9999 13.2344 21.8477C12.8256 21.6782 12.4865 21.3791 12.2676 21C12.2243 20.9249 12.1859 20.8466 12.1523 20.7656C12.0001 20.398 12 19.9319 12 19V5C12 4.06812 12.0001 3.60192 12.1523 3.23438C12.1859 3.15342 12.2243 3.07506 12.2676 3C12.4865 2.62089 12.8256 2.32176 13.2344 2.15234C13.602 2.0001 14.0681 2 15 2ZM10.6504 3C10.5732 3.27883 10.5398 3.55034 10.5225 3.80371C10.5 4.13423 10.5 4.52773 10.5 4.95605V19.0439C10.5 19.4723 10.5 19.8658 10.5225 20.1963C10.5398 20.4497 10.5732 20.7212 10.6504 21H5C4.06812 21 3.60192 20.9999 3.23438 20.8477C2.74453 20.6447 2.35532 20.2554 2.15234 19.7656C2.0001 19.398 2 18.9319 2 18C2 17.0681 2.0001 16.602 2.15234 16.2344C2.35532 15.7446 2.74453 15.3553 3.23438 15.1523C3.60192 15.0001 4.06812 15 5 15C4.06812 15 3.60192 14.9999 3.23438 14.8477C2.74453 14.6447 2.35532 14.2554 2.15234 13.7656C2.0001 13.398 2 12.9319 2 12C2 11.0681 2.0001 10.602 2.15234 10.2344C2.35532 9.74455 2.74452 9.35533 3.23438 9.15234C3.60192 9.0001 4.06812 9 5 9C4.06812 9 3.60192 8.9999 3.23438 8.84766C2.74453 8.64467 2.35533 8.25547 2.15234 7.76562C2.0001 7.39808 2 6.93188 2 6C2 5.06812 2.0001 4.60192 2.15234 4.23438C2.35533 3.74453 2.74453 3.35533 3.23438 3.15234C3.60192 3.0001 4.06812 3 5 3H10.6504ZM19.5 15.001C20.1119 15.0057 20.4705 15.0301 20.7656 15.1523C21.2554 15.3553 21.6447 15.7446 21.8477 16.2344C21.9999 16.602 22 17.0681 22 18C22 18.9319 21.9999 19.398 21.8477 19.7656C21.6447 20.2554 21.2554 20.6447 20.7656 20.8477C20.4473 20.9794 20.0551 20.9977 19.3506 21C19.4277 20.7213 19.4602 20.4496 19.4775 20.1963C19.5001 19.8658 19.5 19.4723 19.5 19.0439V15.001ZM19.5 9.00098C20.1119 9.00574 20.4705 9.03014 20.7656 9.15234C21.2554 9.35532 21.6447 9.74456 21.8477 10.2344C21.9999 10.602 22 11.0681 22 12C22 12.9319 21.9999 13.398 21.8477 13.7656C21.6447 14.2554 21.2554 14.6447 20.7656 14.8477C20.4705 14.9699 20.1119 14.9943 19.5 14.999V9.00098ZM15 10.25C14.5858 10.25 14.25 10.5858 14.25 11V13C14.25 13.4142 14.5858 13.75 15 13.75C15.4142 13.75 15.75 13.4142 15.75 13V11C15.75 10.5858 15.4142 10.25 15 10.25ZM19.3506 3.00098C20.0551 3.00334 20.4473 3.02051 20.7656 3.15234C21.2554 3.3553 21.6446 3.74456 21.8477 4.23438C21.9998 4.60191 22 5.0682 22 6C22 6.93188 21.9999 7.39808 21.8477 7.76562C21.6447 8.25551 21.2554 8.64466 20.7656 8.84766C20.4705 8.96986 20.1119 8.99426 19.5 8.99902V4.95703C19.5 4.52848 19.5001 4.13436 19.4775 3.80371C19.4603 3.55062 19.4276 3.27947 19.3506 3.00098Z" fill="#1C274C"/>
</svg>
