<svg width="24" height="24" viewBox="0 0 24 24" fill="none" xmlns="http://www.w3.org/2000/svg">
<path d="M13.0354 3.65137C15.2503 2.33969 16.3579 1.68425 17.1712 2.14941C17.9846 2.61478 17.9659 3.89337 17.927 6.4502L17.9163 7.11133C17.9052 7.83788 17.9 8.20126 18.0354 8.52051C18.1708 8.83966 18.4317 9.07875 18.9534 9.55664L19.429 9.99219C21.2658 11.6748 22.1843 12.5162 21.969 13.4609C21.7537 14.4057 20.547 14.8287 18.134 15.6738L17.51 15.8916C17.3568 15.9453 17.2208 15.9937 17.0989 16.0381L21.5305 20.4697C21.8232 20.7626 21.8233 21.2374 21.5305 21.5303C21.2377 21.8231 20.7629 21.823 20.47 21.5303L15.8801 16.9414C15.7684 17.1405 15.6521 17.395 15.4954 17.7363L15.2161 18.3447C14.1364 20.6964 13.5962 21.8717 12.6497 21.9902C11.7033 22.1087 10.977 21.0921 9.52467 19.0576L9.1487 18.5312C8.73596 17.9531 8.52966 17.6636 8.2317 17.4932C7.93379 17.3228 7.57791 17.2907 6.86647 17.2256L6.21901 17.166C3.71476 16.9368 2.46266 16.8218 2.09303 15.9502C1.72345 15.0787 2.48107 14.0273 3.99635 11.9248L4.38795 11.3809C4.81845 10.7836 5.0337 10.4847 5.11256 10.1387C5.19134 9.79276 5.12534 9.43857 4.99245 8.73047L4.87135 8.08496C4.4034 5.59161 4.16898 4.34467 4.88698 3.6875C5.605 3.03042 6.79985 3.39867 9.18874 4.13379L9.8069 4.32324C10.4856 4.53212 10.8255 4.63718 11.1721 4.59375C11.5186 4.55025 11.8333 4.36368 12.4622 3.99121L13.0354 3.65137Z" fill="#1C274C"/>
</svg>
