<svg width="24" height="24" viewBox="0 0 24 24" fill="none" xmlns="http://www.w3.org/2000/svg">
<path d="M15.333 1.25C17.5881 1.25 19.4168 3.078 19.417 5.33301C19.417 6.70933 18.7357 7.92726 17.6924 8.66699C18.7356 9.40674 19.417 10.6238 19.417 12C19.417 14.2552 17.5882 16.083 15.333 16.083C14.353 16.083 13.4537 15.7377 12.75 15.1621V18.667C12.7498 20.9218 10.9219 22.7498 8.66699 22.75C6.41192 22.75 4.58317 20.922 4.58301 18.667C4.58301 17.2906 5.26427 16.0728 6.30762 15.333C5.26431 14.5933 4.58301 13.3763 4.58301 12C4.58301 10.6237 5.26433 9.40673 6.30762 8.66699C5.26428 7.92725 4.58301 6.70933 4.58301 5.33301C4.58318 3.078 6.41193 1.25 8.66699 1.25H15.333ZM8.66699 16.083C7.24025 16.083 6.08301 17.2402 6.08301 18.667C6.08317 20.0936 7.24035 21.25 8.66699 21.25C10.0935 21.2498 11.2498 20.0934 11.25 18.667V16.083H8.66699ZM8.66699 9.41699C7.24025 9.41698 6.08301 10.5733 6.08301 12C6.08301 13.4267 7.24025 14.583 8.66699 14.583H11.25V9.41699H8.66699ZM15.3301 9.41699C13.9059 9.4187 12.7517 10.5729 12.75 11.9971V12.0029C12.7517 13.4281 13.9074 14.5829 15.333 14.583C16.7597 14.583 17.917 13.4267 17.917 12C17.917 10.5742 16.7614 9.41844 15.3359 9.41699H15.3301ZM8.66699 2.75C7.24036 2.75 6.08318 3.90643 6.08301 5.33301C6.08301 6.75975 7.24025 7.91699 8.66699 7.91699H11.25V2.75H8.66699ZM12.75 2.75V7.91699H15.3359C16.7613 7.91549 17.917 6.75882 17.917 5.33301C17.9168 3.90643 16.7596 2.75 15.333 2.75H12.75Z" fill="#1C274C"/>
</svg>
