<svg width="24" height="24" viewBox="0 0 24 24" fill="none" xmlns="http://www.w3.org/2000/svg">
<path d="M21.8525 6.26465C22.2587 6.18342 22.6542 6.44735 22.7354 6.85352C22.8164 7.2594 22.5533 7.65396 22.1475 7.73535C20.9572 7.9734 20.0434 8.93238 19.8633 10.1328L18.8252 17.0557L19.0557 17.0146C20.5923 16.7458 21.9998 17.9284 22 19.4883C22 20.875 20.8759 21.9998 19.4893 22H3.08691C2.48671 22 2.00007 21.5132 2 20.9131C2 20.3851 2.37943 19.9338 2.89941 19.8428L17.2676 17.3281L18.3799 9.91016C18.6537 8.08474 20.0426 6.62678 21.8525 6.26465ZM7.25879 5.3916C7.99586 4.93111 8.91209 4.86077 9.71094 5.20312C11.4364 5.94299 11.8696 8.19195 10.542 9.51953L10.2119 9.84863C10.0801 9.98053 10.0424 10.0183 10.0176 10.0469C9.58228 10.5495 9.61676 11.3055 10.0957 11.7666C10.123 11.7929 10.164 11.8276 10.3076 11.9473L10.3184 11.9561C10.399 12.0234 10.4551 12.0697 10.5078 12.1172C11.2618 12.7954 11.7088 13.7501 11.7471 14.7637C11.7498 14.8346 11.75 14.9075 11.75 15.0127V16C11.75 16.4142 11.4142 16.75 11 16.75C10.5858 16.75 10.25 16.4142 10.25 16V15.0264C10.25 14.9021 10.2495 14.8594 10.248 14.8203C10.2251 14.2123 9.95722 13.6394 9.50488 13.2324C9.47581 13.2064 9.44278 13.1789 9.34766 13.0996C9.34047 13.0936 9.33316 13.0869 9.32617 13.0811C9.21367 12.9873 9.12711 12.9154 9.05566 12.8467C8.0021 11.8324 7.92648 10.171 8.88379 9.06543C8.94867 8.99053 9.0284 8.91103 9.13184 8.80762L9.48145 8.45801C10.0582 7.88062 9.86941 6.90357 9.11914 6.58203C8.77181 6.43326 8.37415 6.46385 8.05371 6.66406L4.89746 8.63574C4.54622 8.85527 4.08379 8.74869 3.86426 8.39746C3.64474 8.04623 3.75133 7.5838 4.10254 7.36426L7.25879 5.3916ZM6.46973 13.4697C6.7626 13.1769 7.2374 13.1769 7.53027 13.4697C7.82315 13.7626 7.82313 14.2374 7.53027 14.5303C6.42924 15.6313 4.93599 16.2499 3.37891 16.25H3C2.58579 16.25 2.25 15.9142 2.25 15.5C2.25005 15.0858 2.58582 14.75 3 14.75H3.37891C4.53817 14.7499 5.65 14.2895 6.46973 13.4697ZM15.2627 9.28906C15.6557 9.15808 16.0809 9.36979 16.2119 9.7627C16.3429 10.1557 16.1302 10.5809 15.7373 10.7119C14.6097 11.0878 13.3903 11.0878 12.2627 10.7119C11.8698 10.5809 11.6571 10.1557 11.7881 9.7627C11.9191 9.36979 12.3443 9.15808 12.7373 9.28906C13.5569 9.5622 14.4431 9.5622 15.2627 9.28906ZM15 2C16.1046 2 17 2.89543 17 4C17 5.10457 16.1046 6 15 6C13.8954 6 13 5.10457 13 4C13 2.89543 13.8954 2 15 2Z" fill="#1C274C"/>
</svg>
