<svg width="24" height="24" viewBox="0 0 24 24" fill="none" xmlns="http://www.w3.org/2000/svg">
<path d="M17.1085 1.448C17.312 1.46021 17.4775 1.52768 17.5968 1.58667C17.7026 1.63904 17.8196 1.70989 17.9279 1.77515L18.7433 2.26636C18.8444 2.32723 18.9551 2.39346 19.046 2.45874C19.1494 2.53292 19.2791 2.641 19.3829 2.80347C19.5214 3.02041 19.5897 3.27489 19.5782 3.53198C19.5696 3.72459 19.5106 3.88288 19.4581 3.99878C19.4119 4.1008 19.3493 4.21388 19.2921 4.31714L18.9376 4.95874L19.1993 8.22632C19.2063 8.31401 19.2107 8.36756 19.214 8.4187C19.3321 10.278 18.6136 12.0948 17.256 13.3318C17.2185 13.3659 17.179 13.401 17.1144 13.4578L17.1095 13.4626C17.0403 13.5235 17.0095 13.5498 16.9806 13.5759C15.9135 14.5371 15.1542 15.8231 14.8116 17.2605C14.8023 17.2995 14.7934 17.3406 14.7726 17.4324L14.5187 18.5535C14.3592 19.2576 14.2308 19.8232 14.0978 20.2683C13.9627 20.7205 13.8036 21.1171 13.5499 21.4519C12.8689 22.3507 11.7875 22.841 10.67 22.7361C10.2514 22.6967 9.85649 22.5406 9.44446 22.3308C9.03969 22.1246 8.55442 21.8316 7.95325 21.4695L7.24036 21.0398C6.63888 20.6775 6.15265 20.3853 5.77942 20.1228C5.39844 19.8547 5.07697 19.579 4.84094 19.2292C4.21144 18.2961 4.0765 17.1019 4.47766 16.0486C4.62792 15.6543 4.87768 15.3114 5.18762 14.9607C5.49133 14.6172 5.89763 14.2177 6.40149 13.7224L7.20618 12.9314C7.27202 12.8667 7.30074 12.838 7.32825 12.8103C8.34373 11.7886 9.03467 10.4602 9.3009 9.00464C9.30812 8.96515 9.31525 8.92369 9.33118 8.83081L9.33215 8.82397C9.34706 8.73703 9.35585 8.68397 9.36536 8.63354C9.71023 6.80449 10.8559 5.23601 12.4816 4.40112C12.5263 4.37813 12.5733 4.35458 12.6495 4.31714L15.4777 2.92749L15.7999 2.34448C15.8611 2.23395 15.9269 2.11452 15.9923 2.01636C16.0661 1.90563 16.1756 1.76439 16.3458 1.6521C16.5713 1.50342 16.8389 1.43192 17.1085 1.448ZM13.3185 5.65991C13.2335 5.70171 13.1987 5.71888 13.1671 5.73511C12.1999 6.23176 11.4485 7.0891 11.0568 8.13257L11.1173 8.10327C12.3222 7.50092 13.7675 7.65343 14.8195 8.49487C15.3372 8.909 16.0294 9.03263 16.6583 8.823L17.714 8.47144C17.7118 8.44143 17.7083 8.40223 17.7032 8.33862L17.4552 5.23706L15.9825 4.35034L13.3185 5.65991Z" fill="#48465C"/>
</svg>
