<svg width="24" height="24" viewBox="0 0 24 24" fill="none" xmlns="http://www.w3.org/2000/svg">
<path d="M17.1086 1.448C17.3121 1.46021 17.4776 1.52768 17.5969 1.58667C17.7027 1.63904 17.8196 1.70989 17.9279 1.77515L18.7433 2.26636C18.8444 2.32723 18.9552 2.39346 19.0461 2.45874C19.1494 2.53292 19.2792 2.641 19.383 2.80347C19.5214 3.02041 19.5898 3.27489 19.5783 3.53198C19.5696 3.72459 19.5107 3.88288 19.4582 3.99878C19.412 4.1008 19.3494 4.21388 19.2922 4.31714L18.9377 4.95874L19.1994 8.22632C19.2064 8.31402 19.2108 8.36756 19.2141 8.4187C19.3321 10.278 18.6137 12.0948 17.256 13.3318C17.2185 13.3659 17.179 13.401 17.1144 13.4578L17.1096 13.4626C17.0404 13.5235 17.0095 13.5498 16.9807 13.5759C15.9135 14.5371 15.1542 15.8231 14.8117 17.2605C14.8024 17.2995 14.7934 17.3406 14.7726 17.4324L14.5187 18.5535C14.3593 19.2576 14.2308 19.8232 14.0978 20.2683C13.9627 20.7205 13.8037 21.1171 13.55 21.4519C12.869 22.3507 11.7876 22.841 10.6701 22.7361C10.2514 22.6967 9.85655 22.5406 9.44452 22.3308C9.03975 22.1246 8.55448 21.8316 7.95331 21.4695L7.24042 21.0398C6.63894 20.6775 6.15271 20.3853 5.77948 20.1228C5.3985 19.8547 5.07703 19.579 4.841 19.2292C4.2115 18.2961 4.07656 17.1019 4.47772 16.0486C4.62798 15.6543 4.87774 15.3114 5.18768 14.9607C5.49139 14.6172 5.89769 14.2177 6.40155 13.7224L7.20624 12.9314C7.27208 12.8667 7.3008 12.838 7.32831 12.8103C8.34379 11.7886 9.03473 10.4602 9.30096 9.00464C9.30818 8.96515 9.31531 8.92369 9.33124 8.83081L9.33221 8.82397C9.34712 8.73703 9.35591 8.68397 9.36542 8.63354C9.7103 6.80449 10.856 5.23601 12.4816 4.40112C12.5263 4.37813 12.5734 4.35458 12.6496 4.31714L15.4777 2.92749L15.8 2.34448C15.8611 2.23395 15.9269 2.11452 15.9924 2.01636C16.0662 1.90563 16.1756 1.76439 16.3459 1.6521C16.5713 1.50342 16.839 1.43192 17.1086 1.448ZM13.3185 5.65991C13.2335 5.70171 13.1987 5.71888 13.1672 5.73511C12.1999 6.23176 11.4485 7.0891 11.0568 8.13257L11.1174 8.10327C12.3223 7.50092 13.7675 7.65343 14.8195 8.49487C15.3372 8.909 16.0295 9.03263 16.6584 8.823L17.7141 8.47144C17.7119 8.44143 17.7084 8.40223 17.7033 8.33862L17.4553 5.23706L15.9826 4.35034L13.3185 5.65991Z" fill="#1C274C"/>
</svg>
