<svg width="24" height="24" viewBox="0 0 24 24" fill="none" xmlns="http://www.w3.org/2000/svg">
<path d="M21.9873 9.75C22.0002 10.4153 22 11.161 22 12V14C22 17.7712 21.9997 19.6566 20.8281 20.8281C19.6566 21.9997 17.7712 22 14 22H10C6.22878 22 4.34346 21.9997 3.17188 20.8281C2.00031 19.6566 2 17.7712 2 14V12C2 11.161 1.9998 10.4153 2.0127 9.75H21.9873ZM16 13.25C15.5858 13.25 15.25 13.5858 15.25 14V15.25H14C13.5858 15.25 13.25 15.5858 13.25 16C13.25 16.4142 13.5858 16.75 14 16.75H15.25V18C15.25 18.4142 15.5858 18.75 16 18.75C16.4142 18.75 16.75 18.4142 16.75 18V16.75H18C18.4142 16.75 18.75 16.4142 18.75 16C18.75 15.5858 18.4142 15.25 18 15.25H16.75V14C16.75 13.5858 16.4142 13.25 16 13.25ZM17 1.75C17.4142 1.75 17.75 2.08579 17.75 2.5V4.0791C19.1893 4.19435 20.1339 4.47768 20.8281 5.17188C21.5223 5.86607 21.8057 6.81067 21.9209 8.25H2.0791C2.19435 6.81068 2.47768 5.86607 3.17188 5.17188C3.86607 4.47768 4.81068 4.19435 6.25 4.0791V2.5C6.25 2.0858 6.5858 1.75001 7 1.75C7.41421 1.75 7.75 2.08579 7.75 2.5V4.0127C8.41526 3.9998 9.16098 4 10 4H14C14.839 4 15.5847 3.9998 16.25 4.0127V2.5C16.25 2.0858 16.5858 1.75001 17 1.75Z" fill="#1C274C"/>
</svg>
