<svg width="24" height="24" viewBox="0 0 24 24" fill="none" xmlns="http://www.w3.org/2000/svg">
<path d="M13.5 2C13.8696 2 14.2183 1.99992 14.5479 2.00098C14.9753 2.00236 15.217 2.52538 15.0176 2.90332C14.6873 3.52948 14.5 4.24284 14.5 5C14.5 7.48528 16.5147 9.5 19 9.5C19.7572 9.5 20.4706 9.31276 21.0967 8.98242C21.4747 8.78299 21.9977 9.02482 21.999 9.45215C22.0001 9.78173 22 10.1304 22 10.5V11.5C22 13.8296 21.9997 14.9943 21.6191 15.9131C21.1116 17.1383 20.1383 18.1116 18.9131 18.6191C18.2528 18.8926 17.4652 18.9695 16.21 18.9912C15.3601 19.0058 14.9353 19.0137 14.5977 19.21C14.26 19.4063 14.0493 19.7614 13.6289 20.4717L13.0869 21.3877C12.6037 22.204 11.3963 22.204 10.9131 21.3877L10.3711 20.4717C9.95068 19.7614 9.74002 19.4064 9.40234 19.21C9.06475 19.0137 8.63985 19.0058 7.79004 18.9912C6.5348 18.9695 5.74718 18.8926 5.08691 18.6191C3.86177 18.1116 2.88833 17.1383 2.38086 15.9131C2.00033 14.9943 2 13.8296 2 11.5V10.5C2 7.22688 1.99974 5.59 2.73633 4.3877C3.14861 3.71492 3.71492 3.14861 4.3877 2.73633C5.59 1.99974 7.22688 2 10.5 2H13.5ZM19 2C20.6569 2 22 3.34315 22 5C22 6.65685 20.6569 8 19 8C17.3431 8 16 6.65685 16 5C16 3.34315 17.3431 2 19 2Z" fill="#1C274C"/>
</svg>
