<svg width="24" height="24" viewBox="0 0 24 24" fill="none" xmlns="http://www.w3.org/2000/svg">
<path d="M7.99341 1.25C8.27083 1.24997 8.45627 1.24971 8.63794 1.26562C9.41873 1.33407 10.1651 1.62266 10.7776 2.09863C10.9202 2.2095 11.0533 2.33478 11.2483 2.51758L11.2727 2.54004L11.7131 2.95312C12.3949 3.59228 12.6377 3.81168 12.9163 3.95703C13.0815 4.04325 13.2582 4.11107 13.4417 4.16016C13.7543 4.24371 14.0999 4.25 15.0627 4.25H15.4084C16.4215 4.24998 17.2484 4.24982 17.9045 4.32715C18.5854 4.40742 19.187 4.58083 19.6887 5.00391C19.7716 5.07385 19.851 5.14842 19.926 5.22656C20.3857 5.7059 20.578 6.2892 20.6663 6.94727C20.75 7.57106 20.7502 8.35386 20.7502 9.29688V11.3291C20.9641 11.5455 21.1512 11.7878 21.3069 12.0508C21.7057 12.7247 21.7875 13.4842 21.7366 14.3506C21.687 15.1951 21.5022 16.2487 21.2708 17.5664L21.2551 17.6523C21.0892 18.5969 20.9549 19.3615 20.7844 19.9678C20.6079 20.5955 20.3742 21.1271 19.9661 21.5723C19.7725 21.7833 19.5549 21.9708 19.3186 22.1309C18.8171 22.4705 18.2614 22.6163 17.6252 22.6846C17.0147 22.75 16.2608 22.75 15.3362 22.75H8.66431C7.73967 22.75 6.98577 22.75 6.37524 22.6846C5.739 22.6163 5.1824 22.4706 4.68091 22.1309C4.44475 21.9708 4.22784 21.7831 4.03442 21.5723C3.62621 21.1271 3.39261 20.5955 3.21606 19.9678C3.04556 19.3614 2.91131 18.597 2.74536 17.6523L2.72974 17.5664C2.49824 16.2488 2.31354 15.1951 2.26392 14.3506C2.21306 13.4842 2.29476 12.7247 2.6936 12.0508C2.84928 11.7878 3.03648 11.5456 3.25024 11.3291V5.62695C3.25007 5.04785 3.25005 4.64626 3.32056 4.2959C3.63046 2.75603 4.90248 1.59191 6.47583 1.31348C6.83579 1.2498 7.25098 1.24989 7.87915 1.25H7.99341ZM8.70532 11.75C7.35208 11.75 6.40668 11.7515 5.6936 11.8398C4.9965 11.9263 4.63682 12.0843 4.38892 12.3135C4.23216 12.4585 4.09553 12.628 3.98462 12.8154C3.80551 13.1183 3.7178 13.5273 3.76099 14.2627C3.80492 15.0103 3.97339 15.9787 4.21509 17.3545C4.38943 18.3469 4.51177 19.0364 4.65942 19.5615C4.80336 20.0734 4.95316 20.3551 5.13989 20.5586C5.25515 20.6843 5.38378 20.7956 5.52271 20.8896C5.74429 21.0397 6.03024 21.1392 6.53442 21.1934C7.05559 21.2493 7.72903 21.25 8.70532 21.25H15.2952C16.2712 21.25 16.944 21.2492 17.4651 21.1934C17.9696 21.1392 18.2561 21.0398 18.4778 20.8896C18.6167 20.7955 18.7453 20.6843 18.8606 20.5586C19.0473 20.3551 19.1971 20.0734 19.3411 19.5615C19.4887 19.0364 19.6101 18.3468 19.7844 17.3545C20.0261 15.9787 20.1956 15.0103 20.2395 14.2627C20.2827 13.5273 20.195 13.1183 20.0159 12.8154C19.905 12.628 19.7684 12.4585 19.6116 12.3135C19.3637 12.0843 19.004 11.9263 18.3069 11.8398C17.5939 11.7516 16.6483 11.75 15.2952 11.75H8.70532ZM14.0002 16.25C14.4144 16.2501 14.7502 16.5858 14.7502 17C14.7502 17.4142 14.4144 17.7499 14.0002 17.75H10.0002C9.58605 17.75 9.25024 17.4142 9.25024 17C9.25025 16.5858 9.58606 16.25 10.0002 16.25H14.0002ZM7.96021 2.75C7.22212 2.75 6.95044 2.75336 6.73755 2.79102C5.72217 2.97061 4.96982 3.7047 4.79126 4.5918C4.75424 4.77574 4.75025 5.01407 4.75024 5.71191V10.4912C4.99058 10.4287 5.24374 10.3845 5.50903 10.3516C6.32522 10.2505 7.36406 10.25 8.65454 10.25H15.3459C16.6363 10.25 17.6753 10.2505 18.4915 10.3516C18.7567 10.3845 19.01 10.4287 19.2502 10.4912V9.34863C19.2502 8.34055 19.2486 7.65887 19.1799 7.14648C19.1143 6.65751 18.9986 6.42679 18.843 6.26465C18.8049 6.22491 18.7647 6.1865 18.7219 6.15039C18.5393 5.99643 18.2718 5.8814 17.7288 5.81738C17.1709 5.75162 16.433 5.75 15.3616 5.75H14.9631C14.1358 5.75021 13.5814 5.75006 13.0549 5.60938C12.7661 5.53221 12.4867 5.42376 12.2229 5.28613C11.7397 5.03408 11.3423 4.66143 10.759 4.11426C10.7355 4.09213 10.7109 4.06958 10.6868 4.04688L10.2473 3.63477C10.0185 3.42035 9.93787 3.34532 9.85669 3.28223C9.4781 2.98805 9.00795 2.80368 8.50708 2.75977C8.39877 2.75028 8.28237 2.75 7.96021 2.75Z" fill="#48465C"/>
</svg>
