<svg width="24" height="24" viewBox="0 0 24 24" fill="none" xmlns="http://www.w3.org/2000/svg">
<path d="M7.99315 1.25001C8.27057 1.24998 8.45601 1.24972 8.63768 1.26563C9.41847 1.33408 10.1648 1.62267 10.7773 2.09864C10.9199 2.20951 11.0531 2.33479 11.248 2.51759L11.2725 2.54005L11.7129 2.95313C12.3946 3.59229 12.6374 3.81169 12.916 3.95704C13.0813 4.04326 13.258 4.11108 13.4414 4.16017C13.7541 4.24372 14.0996 4.25001 15.0625 4.25001H15.4082C16.4213 4.24999 17.2482 4.24983 17.9043 4.32716C18.5851 4.40743 19.1867 4.58084 19.6885 5.00392C19.7714 5.07386 19.8507 5.14842 19.9258 5.22657C20.3854 5.70591 20.5777 6.28921 20.666 6.94727C20.7497 7.57106 20.75 8.35386 20.75 9.29688V11.3291C20.9638 11.5456 21.151 11.7878 21.3066 12.0508C21.7054 12.7247 21.7872 13.4842 21.7363 14.3506C21.6868 15.1951 21.5019 16.2487 21.2705 17.5664L21.2549 17.6524C21.089 18.597 20.9547 19.3615 20.7842 19.9678C20.6076 20.5955 20.3739 21.1272 19.9658 21.5723C19.7722 21.7833 19.5546 21.9708 19.3183 22.1309C18.8169 22.4705 18.2611 22.6163 17.625 22.6846C17.0144 22.7501 16.2606 22.75 15.3359 22.75H8.66405C7.73942 22.75 6.98551 22.75 6.37499 22.6846C5.73875 22.6163 5.18214 22.4706 4.68065 22.1309C4.44449 21.9708 4.22759 21.7832 4.03417 21.5723C3.62596 21.1271 3.39235 20.5955 3.21581 19.9678C3.04531 19.3614 2.91106 18.5971 2.74511 17.6524L2.72948 17.5664C2.49799 16.2488 2.31328 15.1951 2.26366 14.3506C2.2128 13.4842 2.29451 12.7247 2.69335 12.0508C2.84903 11.7878 3.03622 11.5456 3.24999 11.3291V5.62696C3.24982 5.04786 3.24979 4.64627 3.3203 4.29591C3.63021 2.75604 4.90222 1.59192 6.47558 1.31349C6.83554 1.24981 7.25073 1.2499 7.8789 1.25001H7.99315ZM8.70507 11.75C7.35182 11.75 6.40643 11.7516 5.69335 11.8399C4.99624 11.9263 4.63656 12.0843 4.38866 12.3135C4.2319 12.4585 4.09527 12.628 3.98436 12.8154C3.80525 13.1183 3.71755 13.5273 3.76073 14.2627C3.80467 15.0103 3.97314 15.9787 4.21483 17.3545C4.38918 18.347 4.51151 19.0364 4.65917 19.5615C4.80311 20.0734 4.95291 20.3551 5.13964 20.5586C5.2549 20.6843 5.38353 20.7956 5.52245 20.8897C5.74403 21.0397 6.02999 21.1392 6.53417 21.1934C7.05534 21.2493 7.72877 21.25 8.70507 21.25H15.2949C16.2709 21.25 16.9437 21.2492 17.4648 21.1934C17.9693 21.1392 18.2559 21.0398 18.4775 20.8897C18.6164 20.7956 18.745 20.6843 18.8603 20.5586C19.047 20.3551 19.1968 20.0734 19.3408 19.5615C19.4885 19.0364 19.6098 18.3469 19.7842 17.3545C20.0258 15.9787 20.1953 15.0103 20.2392 14.2627C20.2824 13.5273 20.1947 13.1183 20.0156 12.8154C19.9047 12.628 19.7681 12.4585 19.6113 12.3135C19.3635 12.0843 19.0037 11.9263 18.3066 11.8399C17.5937 11.7516 16.648 11.75 15.2949 11.75H8.70507ZM14 16.25C14.4141 16.2501 14.75 16.5859 14.75 17C14.75 17.4142 14.4141 17.7499 14 17.75H9.99999C9.5858 17.75 9.24999 17.4142 9.24999 17C9.24999 16.5858 9.5858 16.25 9.99999 16.25H14ZM7.95995 2.75001C7.22186 2.75001 6.95018 2.75336 6.73729 2.79102C5.72192 2.97062 4.96957 3.70471 4.791 4.59181C4.75398 4.77575 4.74999 5.01408 4.74999 5.71192V10.4912C4.99032 10.4288 5.24349 10.3845 5.50878 10.3516C6.32497 10.2505 7.36381 10.25 8.65429 10.25H15.3457C16.6361 10.25 17.675 10.2505 18.4912 10.3516C18.7564 10.3845 19.0097 10.4288 19.25 10.4912V9.34864C19.25 8.34056 19.2484 7.65888 19.1797 7.14649C19.1141 6.65752 18.9983 6.4268 18.8428 6.26466C18.8046 6.22492 18.7645 6.18651 18.7217 6.1504C18.5391 5.99644 18.2715 5.8814 17.7285 5.81739C17.1706 5.75163 16.4327 5.75001 15.3613 5.75001H14.9629C14.1356 5.75022 13.5812 5.75007 13.0547 5.60938C12.7659 5.53221 12.4864 5.42377 12.2226 5.28614C11.7395 5.03408 11.3421 4.66143 10.7588 4.11427C10.7352 4.09214 10.7107 4.06959 10.6865 4.04688L10.2471 3.63477C10.0183 3.42035 9.93761 3.34533 9.85643 3.28224C9.47784 2.98806 9.00769 2.80369 8.50683 2.75977C8.39852 2.75029 8.28211 2.75001 7.95995 2.75001Z" fill="#1C274C"/>
</svg>
