<svg width="24" height="24" viewBox="0 0 24 24" fill="none" xmlns="http://www.w3.org/2000/svg">
<path fill-rule="evenodd" clip-rule="evenodd" d="M17.2881 3.76303C17.4191 3.37008 17.8443 3.15744 18.2373 3.28842L18.792 3.47396C19.3626 3.66414 19.8465 3.82484 20.2305 4.00033C20.6393 4.18718 20.9973 4.41705 21.2822 4.7767C21.567 5.13635 21.7086 5.53715 21.7969 5.97787C21.8798 6.39199 21.926 6.90014 21.9805 7.49935L22.6777 15.1693C22.7249 15.4365 22.7495 15.7118 22.75 15.9925C22.7443 18.6111 20.6199 20.7503 18 20.7503C15.6367 20.7503 13.677 19.0241 13.3115 16.764L13.0918 16.6859C12.3857 16.4341 11.6143 16.4341 10.9082 16.6859L10.6885 16.764C10.323 19.0241 8.36325 20.7503 6 20.7503C3.38011 20.7503 1.25561 18.6111 1.25 15.9925C1.25046 15.7118 1.27511 15.4365 1.32227 15.1693L2.01953 7.49935C2.07398 6.90012 2.12021 6.39199 2.20312 5.97787C2.29138 5.53715 2.43293 5.13635 2.71777 4.7767C3.00261 4.41705 3.36073 4.18718 3.76953 4.00033C4.15356 3.82485 4.63745 3.66413 5.20801 3.47396L5.7627 3.28842C6.15566 3.15744 6.58092 3.37008 6.71191 3.76303C6.84279 4.15587 6.63005 4.58019 6.2373 4.71127L5.71875 4.88412C5.10154 5.08986 4.69482 5.22645 4.39258 5.36459C4.10678 5.49522 3.97871 5.60081 3.89355 5.70834C3.80852 5.81579 3.73547 5.9642 3.67383 6.27181C3.60858 6.59765 3.56866 7.02524 3.50977 7.67318L3.14355 11.7103L3.09473 12.2415C3.89782 11.6198 4.90583 11.2503 6 11.2503C8.34505 11.2503 10.2937 12.9495 10.6807 15.1839C11.5424 14.9347 12.4576 14.9347 13.3193 15.1839C13.7063 12.9495 15.655 11.2503 18 11.2503C19.0942 11.2503 20.1022 11.6198 20.9053 12.2415L20.4902 7.67318C20.4313 7.02524 20.3915 6.59765 20.3262 6.27181C20.2645 5.96421 20.1915 5.81579 20.1064 5.70834C20.0213 5.60081 19.8932 5.49522 19.6074 5.36459C19.3052 5.22645 18.8985 5.08987 18.2812 4.88412L17.7627 4.71127C17.37 4.5802 17.1572 4.15588 17.2881 3.76303ZM6 12.7503C4.41845 12.7503 3.1005 13.8798 2.80957 15.3763L2.75 16.0326C2.76736 17.8126 4.21588 19.2503 6 19.2503C7.79489 19.2503 9.24994 17.7952 9.25 16.0003C9.25 14.2054 7.79493 12.7503 6 12.7503ZM18 12.7503C16.2051 12.7503 14.75 14.2054 14.75 16.0003C14.7501 17.7952 16.2051 19.2503 18 19.2503C19.7841 19.2503 21.2327 17.8126 21.25 16.0326L21.1904 15.3763C20.8995 13.8798 19.5816 12.7503 18 12.7503Z" fill="#1C274C"/>
</svg>
