<svg width="24" height="24" viewBox="0 0 24 24" fill="none" xmlns="http://www.w3.org/2000/svg">
<path d="M12 2C12.8114 2 13.5949 2.26825 15.1621 2.80469L15.7354 3.00098C18.7409 4.02979 20.2441 4.54434 20.6221 5.08203C20.9996 5.6199 21 7.21936 21 10.417V11.9912C21 17.6291 16.7612 20.3655 14.1016 21.5273C13.3802 21.8424 13.0193 22 12 22C10.9807 22 10.6199 21.8424 9.89844 21.5273C7.23883 20.3655 3 17.6292 3 11.9912V10.417C3 7.21936 3.00041 5.6199 3.37793 5.08203C3.75595 4.54434 5.25908 4.0298 8.26465 3.00098L8.83789 2.80469C10.4051 2.26824 11.1886 2 12 2ZM12 7C11.6213 7 11.3679 7.45442 10.8613 8.36328L10.7305 8.59863C10.5865 8.85681 10.5145 8.98608 10.4023 9.07129C10.29 9.1565 10.1497 9.18772 9.87012 9.25098L9.61621 9.30859C8.63234 9.5312 8.14048 9.64316 8.02344 10.0195C7.90663 10.3959 8.24152 10.788 8.91211 11.5723L9.08594 11.7744C9.27649 11.9973 9.37117 12.1092 9.41406 12.2471C9.45693 12.385 9.44288 12.5337 9.41406 12.8311L9.3877 13.1016C9.28629 14.148 9.23558 14.6717 9.54199 14.9043C9.8484 15.1368 10.3093 14.925 11.2305 14.501L11.4688 14.3906C11.7304 14.2702 11.8613 14.21 12 14.21C12.1387 14.21 12.2696 14.2702 12.5312 14.3906L12.7695 14.501C13.6907 14.9251 14.1516 15.1369 14.458 14.9043C14.7645 14.6717 14.7137 14.148 14.6123 13.1016L14.5859 12.8311C14.5571 12.5338 14.543 12.385 14.5859 12.2471C14.6288 12.1092 14.7235 11.9973 14.9141 11.7744L15.0879 11.5723C15.7584 10.7881 16.0934 10.3958 15.9766 10.0195C15.8596 9.64316 15.3677 9.5312 14.3838 9.30859L14.1299 9.25098C13.8504 9.18772 13.71 9.1565 13.5977 9.07129C13.4855 8.98609 13.4135 8.85681 13.2695 8.59863L13.1387 8.36328C12.6321 7.45442 12.3787 7 12 7Z" fill="#48465C"/>
</svg>
