<svg width="24" height="24" viewBox="0 0 24 24" fill="none" xmlns="http://www.w3.org/2000/svg">
<path d="M5.26172 3.60839C6.13617 2.68812 7.61007 2.83051 8.37305 3.90918L9.63379 5.69336C10.2502 6.56518 10.184 7.75905 9.47754 8.50293L9.19043 8.80468C9.19043 8.80468 8.1085 9.9446 11.0635 13.0557C14.0014 16.1487 15.0882 15.0402 15.1006 15.0273L15.5566 14.5478C16.1862 13.8852 17.1672 13.7484 17.9727 14.2119L19.8828 15.3115C21.1097 16.0177 21.3808 17.7493 20.4219 18.7588L19.001 20.2539C18.6398 20.6342 18.1912 20.912 17.6758 20.9629C16.046 21.1236 12.0617 20.9459 7.81543 16.4756C3.81078 12.2594 3.09308 8.64534 3.00293 6.96582C2.96773 6.30937 3.25781 5.71723 3.69141 5.26074L5.26172 3.60839ZM14.1211 1.25976C14.1464 1.26462 14.2279 1.27956 14.2705 1.28906C14.3559 1.30806 14.4747 1.33765 14.623 1.38086C14.9198 1.46729 15.3345 1.6098 15.832 1.83789C16.8283 2.29465 18.1545 3.09392 19.5303 4.46972C20.9059 5.84542 21.7054 7.17077 22.1621 8.16699C22.3903 8.66454 22.5327 9.0792 22.6191 9.37597C22.6623 9.52438 22.691 9.64417 22.71 9.72949C22.7194 9.77186 22.7267 9.80584 22.7314 9.83105L22.7373 9.8623C22.8034 10.271 22.5288 10.6738 22.1201 10.7402C21.7124 10.8062 21.3276 10.5299 21.2598 10.123C21.2577 10.112 21.2522 10.0823 21.2461 10.0547C21.2337 9.99929 21.2124 9.91168 21.1787 9.79589C21.111 9.56356 20.9931 9.21767 20.7979 8.79199C20.408 7.94177 19.7073 6.76783 18.4697 5.53027C17.2319 4.29241 16.0573 3.591 15.207 3.20117C14.7817 3.00617 14.4365 2.88897 14.2041 2.82128C14.0883 2.78754 13.9424 2.75361 13.8867 2.74121C13.4797 2.67338 13.1938 2.2876 13.2598 1.87988C13.326 1.47099 13.7122 1.19357 14.1211 1.25976ZM13.4854 5.3291C13.5992 4.93089 14.0148 4.70067 14.4131 4.81445H14.4141L14.416 4.81543L14.4189 4.8164L14.4268 4.81836L14.4463 4.82421C14.4613 4.82903 14.4806 4.83579 14.5029 4.84375C14.5477 4.85965 14.6071 4.88199 14.6797 4.91308C14.8254 4.97552 15.0249 5.07209 15.2695 5.21679C15.7589 5.50644 16.427 5.98762 17.2119 6.77246C17.9969 7.55744 18.4779 8.22635 18.7676 8.71582C18.9122 8.96022 19.0088 9.15903 19.0713 9.30468C19.1025 9.3774 19.1257 9.43655 19.1416 9.48144C19.1496 9.50386 19.1553 9.52301 19.1602 9.53808L19.166 9.55761L19.1689 9.56543L19.1699 9.56933V9.57031C19.1676 9.57114 19.1277 9.58448 18.4492 9.77832L19.1709 9.57226C19.2845 9.97042 19.0534 10.3853 18.6553 10.499C18.2605 10.6117 17.8493 10.3861 17.7314 9.99414L17.7275 9.98339C17.7222 9.96836 17.7109 9.9387 17.6924 9.8955C17.6554 9.80919 17.589 9.66781 17.4775 9.47949C17.2545 9.10275 16.8514 8.53296 16.1514 7.833C15.4517 7.13337 14.8825 6.73079 14.5059 6.50781C14.3173 6.39619 14.1753 6.32899 14.0889 6.29199C14.0459 6.27357 14.0159 6.26215 14.001 6.25683L13.9902 6.2539C13.5984 6.13591 13.3726 5.72389 13.4854 5.3291Z" fill="#1C274C"/>
</svg>
