<svg width="24" height="24" viewBox="0 0 24 24" fill="none" xmlns="http://www.w3.org/2000/svg">
<path d="M15.0889 11.564C16.8416 9.81162 19.683 9.81151 21.4355 11.564C23.1882 13.3166 23.188 16.158 21.4355 17.9106L17.9111 21.4351C16.1584 23.1876 13.317 23.1877 11.5645 21.4351C9.81193 19.6824 9.81186 16.8409 11.5645 15.0884L15.0889 11.564ZM12.625 16.1489C11.4582 17.3158 11.4583 19.2077 12.625 20.3745C13.7919 21.5414 15.6838 21.5414 16.8506 20.3745L17.8447 19.3804C17.8109 19.3648 17.7764 19.3485 17.7412 19.3315C17.1041 19.0245 16.2606 18.4994 15.3809 17.6196C14.5011 16.74 13.9761 15.8965 13.6689 15.2593C13.6518 15.2239 13.6348 15.1889 13.6191 15.1548L12.625 16.1489ZM20.375 12.6245C19.2082 11.4578 17.3163 11.4579 16.1494 12.6245L14.7754 13.9985C14.7781 14.007 14.7812 14.0157 14.7842 14.0249C14.8262 14.1564 14.8988 14.3575 15.0195 14.6079C15.2604 15.1078 15.6917 15.8092 16.4414 16.5591C17.1912 17.3087 17.8928 17.7391 18.3926 17.98C18.6428 18.1005 18.8431 18.1743 18.9746 18.2163C18.9836 18.2192 18.9925 18.2215 19.001 18.2241L20.375 16.8501C21.5416 15.6832 21.5417 13.7913 20.375 12.6245ZM2.78809 5.7876C4.83831 3.73748 8.1617 3.73747 10.2119 5.7876C11.2369 6.81251 11.7499 8.15714 11.75 9.49951C11.75 10.842 11.2369 12.1874 10.2119 13.2124C8.16177 15.2621 4.83824 15.2621 2.78809 13.2124C1.76311 12.1874 1.25 10.842 1.25 9.49951C1.25005 8.15714 1.76316 6.81251 2.78809 5.7876ZM2.8252 10.2495C2.96665 10.9466 3.30801 11.6102 3.84863 12.1509C5.3131 13.6154 7.6869 13.6154 9.15137 12.1509C9.69199 11.6102 10.0333 10.9466 10.1748 10.2495H2.8252ZM14.2266 2.34814C15.691 0.88375 18.0659 0.883879 19.5303 2.34814C20.2624 3.08023 20.6289 4.04194 20.6289 5.00049C20.6288 5.95894 20.2623 6.91984 19.5303 7.65186C18.0659 9.11633 15.6911 9.11633 14.2266 7.65186C13.4947 6.91986 13.129 5.95886 13.1289 5.00049C13.1289 4.04194 13.4945 3.08023 14.2266 2.34814ZM9.15137 6.84814C7.68692 5.38382 5.31308 5.38382 3.84863 6.84814C3.308 7.38877 2.96668 8.05247 2.8252 8.74951H10.1748C10.0333 8.05247 9.692 7.38877 9.15137 6.84814ZM18.4697 3.40967C17.591 2.53099 16.1668 2.53099 15.2881 3.40967C14.8486 3.84916 14.6289 4.4235 14.6289 5.00049C14.629 5.57738 14.8487 6.15189 15.2881 6.59131C16.1668 7.46971 17.5911 7.46987 18.4697 6.59131C18.9092 6.15189 19.1288 5.57738 19.1289 5.00049C19.1289 4.42361 18.9091 3.84912 18.4697 3.40967Z" fill="#1C274C"/>
</svg>
