<svg width="24" height="24" viewBox="0 0 24 24" fill="none" xmlns="http://www.w3.org/2000/svg">
<path d="M12.0576 1.25C14.3657 1.24999 16.1745 1.24974 17.5859 1.43945C19.0306 1.63369 20.1706 2.03977 21.0654 2.93457C21.9602 3.82938 22.3662 4.96932 22.5605 6.41406C22.7502 7.82544 22.75 9.63432 22.75 11.9424V12.0576C22.75 14.3657 22.7502 16.1745 22.5605 17.5859C22.3662 19.0306 21.9602 20.1706 21.0654 21.0654C20.1706 21.9602 19.0306 22.3662 17.5859 22.5605C16.1745 22.7502 14.3657 22.75 12.0576 22.75H11.9424C9.63433 22.75 7.82545 22.7502 6.41406 22.5605C4.96933 22.3662 3.82938 21.9602 2.93457 21.0654C2.03977 20.1706 1.63369 19.0306 1.43945 17.5859C1.24974 16.1745 1.24999 14.3657 1.25 12.0576V11.9424C1.24999 9.63433 1.24974 7.82544 1.43945 6.41406C1.63369 4.96932 2.03976 3.82938 2.93457 2.93457C3.82938 2.03976 4.96933 1.63369 6.41406 1.43945C7.82545 1.24974 9.63433 1.24999 11.9424 1.25H12.0576ZM12 2.75C9.62177 2.75 7.91326 2.75198 6.61328 2.92676C5.33508 3.09865 4.56472 3.42551 3.99512 3.99512C3.42551 4.56472 3.09865 5.33508 2.92676 6.61328C2.75198 7.91326 2.75 9.62178 2.75 12C2.75 14.3782 2.75198 16.0867 2.92676 17.3867C3.09865 18.6649 3.42551 19.4352 3.99512 20.0049C4.56472 20.5745 5.33508 20.9014 6.61328 21.0732C7.91326 21.248 9.62177 21.25 12 21.25C14.3782 21.25 16.0867 21.248 17.3867 21.0732C18.6649 20.9014 19.4352 20.5745 20.0049 20.0049C20.5745 19.4352 20.9014 18.6649 21.0732 17.3867C21.248 16.0867 21.25 14.3782 21.25 12C21.25 9.62178 21.248 7.91326 21.0732 6.61328C20.9014 5.33508 20.5745 4.56472 20.0049 3.99512C19.4352 3.42551 18.6649 3.09865 17.3867 2.92676C16.0867 2.75198 14.3782 2.75 12 2.75ZM18 16.25C18.4142 16.25 18.75 16.5858 18.75 17C18.75 17.4142 18.4142 17.75 18 17.75H6C5.58579 17.75 5.25 17.4142 5.25 17C5.25 16.5858 5.58579 16.25 6 16.25H18ZM8.5 6.25C8.91421 6.25 9.25 6.58579 9.25 7V11.9287L10.4238 10.5195C10.6891 10.2015 11.1623 10.1588 11.4805 10.4238C11.7985 10.6891 11.8412 11.1623 11.5762 11.4805L9.07617 14.4805C8.93367 14.6513 8.72249 14.75 8.5 14.75C8.27752 14.75 8.06632 14.6513 7.92383 14.4805L5.42383 11.4805C5.15872 11.1623 5.20152 10.6891 5.51953 10.4238C5.83767 10.1588 6.31096 10.2015 6.57617 10.5195L7.75 11.9287V7C7.75 6.5858 8.0858 6.25001 8.5 6.25ZM15.5 6.25C15.9142 6.25001 16.25 6.58579 16.25 7V11.9287L17.4238 10.5195C17.6891 10.2015 18.1623 10.1588 18.4805 10.4238C18.7985 10.6891 18.8412 11.1623 18.5762 11.4805L16.0762 14.4805C15.9337 14.6513 15.7225 14.75 15.5 14.75C15.2775 14.75 15.0663 14.6513 14.9238 14.4805L12.4238 11.4805C12.1588 11.1623 12.2015 10.6891 12.5195 10.4238C12.8377 10.1588 13.3109 10.2015 13.5762 10.5195L14.75 11.9287V7C14.75 6.58579 15.0858 6.25 15.5 6.25Z" fill="#1C274C"/>
</svg>
