<svg width="24" height="24" viewBox="0 0 24 24" fill="none" xmlns="http://www.w3.org/2000/svg">
<path d="M18.5117 10.4307C18.8262 10.1611 19.2997 10.1974 19.5694 10.5117C19.8388 10.8262 19.8027 11.2998 19.4883 11.5693L12.4883 17.5693C12.2074 17.8101 11.7926 17.8101 11.5117 17.5693L4.51175 11.5693C4.19738 11.2998 4.16116 10.8262 4.43069 10.5117C4.70029 10.1974 5.17387 10.1611 5.48831 10.4307L12 16.0117L18.5117 10.4307ZM19 6.25C19.3139 6.25002 19.5943 6.44589 19.7032 6.74023C19.8119 7.03445 19.7264 7.36514 19.4883 7.56934L12.4883 13.5693C12.2075 13.8101 11.7925 13.8101 11.5117 13.5693L4.51175 7.56934C4.27365 7.36514 4.1882 7.03445 4.29691 6.74023C4.4058 6.44588 4.68617 6.25 5.00003 6.25H19Z" fill="#1C274C"/>
</svg>
