<svg width="24" height="24" viewBox="0 0 24 24" fill="none" xmlns="http://www.w3.org/2000/svg">
<path d="M13.4797 3.64844C17.9779 2.14904 20.2271 1.3987 21.4142 2.58594C22.6014 3.77321 21.8512 6.02237 20.3517 10.5205L18.6359 15.6699C17.4257 19.3006 16.8202 21.116 15.9328 21.6318C15.0887 22.1226 14.0464 22.1226 13.2023 21.6318C12.3149 21.116 11.7094 19.3006 10.4992 15.6699C10.305 15.0872 10.2082 14.7953 10.0451 14.5518C9.88716 14.3158 9.68434 14.113 9.44843 13.9551C9.20486 13.792 8.9129 13.6952 8.33026 13.501C4.69975 12.2908 2.88428 11.6852 2.36835 10.7979C1.87762 9.95378 1.87767 8.9115 2.36835 8.06738C2.88421 7.18004 4.69962 6.57447 8.33026 5.36426L13.4797 3.64844ZM18.3224 5.68359C18.0312 5.3891 17.5564 5.38647 17.2619 5.67773L13.0519 9.8418C12.7574 10.1331 12.7548 10.6078 13.0461 10.9023C13.3374 11.1966 13.8122 11.1993 14.1066 10.9082L18.3166 6.74414C18.6111 6.45287 18.6137 5.9781 18.3224 5.68359Z" fill="#1C274C"/>
</svg>
