<svg width="24" height="24" viewBox="0 0 24 24" fill="none" xmlns="http://www.w3.org/2000/svg">
<path d="M12 2C17.5228 2 22 6.47715 22 12C22 17.5228 17.5228 22 12 22C6.47715 22 2 17.5228 2 12C2 6.47715 6.47715 2 12 2ZM12 8C11.6213 8 11.3679 8.45443 10.8613 9.36328L10.7305 9.59863C10.5865 9.85682 10.5145 9.9861 10.4023 10.0713C10.29 10.1565 10.1497 10.1878 9.87012 10.251L9.61621 10.3086C8.63235 10.5312 8.14048 10.6431 8.02344 11.0195C7.90663 11.3959 8.24152 11.788 8.91211 12.5723L9.08594 12.7744C9.27649 12.9973 9.37117 13.1092 9.41406 13.2471C9.45693 13.385 9.44288 13.5337 9.41406 13.8311L9.3877 14.1016C9.28629 15.148 9.23558 15.6717 9.54199 15.9043C9.8484 16.1368 10.3093 15.925 11.2305 15.501L11.4688 15.3906C11.7304 15.2702 11.8613 15.21 12 15.21C12.1387 15.21 12.2696 15.2702 12.5312 15.3906L12.7695 15.501C13.6907 15.9251 14.1516 16.1369 14.458 15.9043C14.7645 15.6717 14.7137 15.148 14.6123 14.1016L14.5859 13.8311C14.5571 13.5337 14.543 13.385 14.5859 13.2471C14.6288 13.1092 14.7235 12.9973 14.9141 12.7744L15.0879 12.5723C15.7584 11.7881 16.0934 11.3958 15.9766 11.0195C15.8596 10.6431 15.3677 10.5312 14.3838 10.3086L14.1299 10.251C13.8504 10.1878 13.71 10.1565 13.5977 10.0713C13.4855 9.98611 13.4135 9.85682 13.2695 9.59863L13.1387 9.36328C12.6321 8.45442 12.3787 8 12 8Z" fill="#1C274C"/>
</svg>
