<svg width="24" height="24" viewBox="0 0 24 24" fill="none" xmlns="http://www.w3.org/2000/svg">
<path d="M12 2C16.134 2 18.4557 1.99963 19.9521 2.9873L14.75 8.18945V6.25C14.75 5.83579 14.4142 5.5 14 5.5C13.5858 5.5 13.25 5.83579 13.25 6.25V10C13.25 10.4142 13.5858 10.75 14 10.75H17.75C18.1642 10.75 18.5 10.4142 18.5 10C18.5 9.58579 18.1642 9.25 17.75 9.25H15.8105L21.0127 4.04785C22.0004 5.54419 22 7.866 22 12C22 16.714 21.9997 19.0708 20.5352 20.5352C19.0708 21.9997 16.714 22 12 22C7.866 22 5.54418 22.0004 4.04785 21.0127L9.25 15.8105V17.75C9.25 18.1642 9.58579 18.5 10 18.5C10.4142 18.5 10.75 18.1642 10.75 17.75V14C10.75 13.5858 10.4142 13.25 10 13.25H6.25C5.83579 13.25 5.5 13.5858 5.5 14C5.5 14.4142 5.83579 14.75 6.25 14.75H8.18945L2.9873 19.9521C1.99963 18.4557 2 16.134 2 12C2 7.28595 2.00037 4.9293 3.46484 3.46484C4.9293 2.00037 7.28595 2 12 2Z" fill="#1C274C"/>
</svg>
