<svg width="24" height="24" viewBox="0 0 24 24" fill="none" xmlns="http://www.w3.org/2000/svg">
<path d="M11.5 4C15.2712 4 17.1566 4.00031 18.3281 5.17188C19.4997 6.34346 19.5 8.22878 19.5 12C19.5 15.7712 19.4997 17.6566 18.3281 18.8281C17.1566 19.9997 15.2712 20 11.5 20H10C6.22878 20 4.34346 19.9997 3.17188 18.8281C2.00031 17.6566 2 15.7712 2 12C2 8.22876 2.00031 6.34345 3.17188 5.17188C4.34345 4.00031 6.22876 4 10 4H11.5ZM11.9805 8.42383C11.6623 8.15872 11.1891 8.20151 10.9238 8.51953L8.42383 11.5195C8.23753 11.743 8.19785 12.0549 8.32129 12.3184C8.4448 12.5817 8.70914 12.75 9 12.75H10.8984L9.42383 14.5195C9.15872 14.8377 9.20151 15.3109 9.51953 15.5762C9.83766 15.8412 10.3109 15.7985 10.5762 15.4805L13.0762 12.4805C13.2625 12.257 13.3031 11.9451 13.1797 11.6816C13.0563 11.4181 12.791 11.25 12.5 11.25H10.6016L12.0762 9.48047C12.3412 9.16233 12.2985 8.68904 11.9805 8.42383ZM22 9.25C22.4142 9.25 22.75 9.58579 22.75 10V14C22.75 14.4142 22.4142 14.75 22 14.75C21.5858 14.75 21.25 14.4142 21.25 14V10C21.25 9.58579 21.5858 9.25 22 9.25Z" fill="#1C274C"/>
</svg>
