<svg width="24" height="24" viewBox="0 0 24 24" fill="none" xmlns="http://www.w3.org/2000/svg">
<path fill-rule="evenodd" clip-rule="evenodd" d="M11.4697 3.96967C11.7626 3.67678 12.2374 3.67678 12.5303 3.96967L17.5303 8.96967C17.8231 9.26256 17.8232 9.73737 17.5303 10.0302C17.2374 10.3231 16.7626 10.3231 16.4697 10.0302L12.75 6.31049V14.4999C12.75 15.4533 12.4699 16.8669 11.6084 18.0634C10.7193 19.298 9.24422 20.2499 7 20.2499C6.58581 20.2499 6.25003 19.9141 6.25 19.4999C6.25 19.0857 6.58579 18.7499 7 18.7499C8.75556 18.7499 9.7807 18.035 10.3916 17.1865C11.0299 16.2997 11.25 15.2132 11.25 14.4999V6.31049L7.53027 10.0302C7.23739 10.3231 6.76261 10.3231 6.46973 10.0302C6.17685 9.73736 6.17687 9.26256 6.46973 8.96967L11.4697 3.96967Z" fill="#1C274C"/>
</svg>
