<svg width="24" height="24" viewBox="0 0 24 24" fill="none" xmlns="http://www.w3.org/2000/svg">
<path d="M15 1.25C15.4142 1.25 15.75 1.58579 15.75 2V3.25586C16.9592 3.26829 17.9699 3.30889 18.8086 3.45117C19.8366 3.62559 20.6803 3.96354 21.3584 4.6416C22.1066 5.38992 22.439 6.33844 22.5967 7.51074C22.7498 8.64991 22.75 10.1057 22.75 11.9434V12.0566C22.75 13.8943 22.7498 15.3501 22.5967 16.4893C22.439 17.6615 22.1066 18.6101 21.3584 19.3584C20.6803 20.0364 19.8366 20.3744 18.8086 20.5488C17.9699 20.6912 16.9592 20.7317 15.75 20.7441V22C15.75 22.4142 15.4142 22.75 15 22.75C14.5858 22.75 14.25 22.4142 14.25 22V2C14.25 1.58579 14.5858 1.25 15 1.25ZM12 3.25C12.4142 3.25 12.75 3.58579 12.75 4C12.75 4.41421 12.4142 4.75 12 4.75H10C8.09324 4.75 6.73859 4.75149 5.71094 4.88965C4.70485 5.02491 4.12536 5.27894 3.70215 5.70215C3.27894 6.12536 3.02492 6.70485 2.88965 7.71094C2.75149 8.73859 2.75 10.0933 2.75 12C2.75 13.9067 2.7515 15.2614 2.88965 16.2891C3.02492 17.2951 3.27894 17.8747 3.70215 18.2979C4.12536 18.7211 4.70485 18.9752 5.71094 19.1104C6.73858 19.2485 8.09325 19.25 10 19.25H12C12.4142 19.25 12.75 19.5858 12.75 20C12.75 20.4142 12.4142 20.75 12 20.75H9.94336C8.10573 20.75 6.64989 20.7498 5.51074 20.5967C4.33844 20.439 3.38992 20.1066 2.6416 19.3584C1.89332 18.6101 1.56095 17.6615 1.40332 16.4893C1.25016 15.3501 1.24998 13.8943 1.25 12.0566V11.9434C1.24998 10.1057 1.25016 8.6499 1.40332 7.51074C1.56095 6.33844 1.8933 5.38992 2.6416 4.6416C3.38992 3.8933 4.33844 3.56095 5.51074 3.40332C6.64991 3.25016 8.1057 3.24998 9.94336 3.25H12ZM15.75 19.2441C16.936 19.2314 17.8388 19.1912 18.5576 19.0693C19.3994 18.9264 19.9129 18.6829 20.2979 18.2979C20.7211 17.8747 20.9752 17.2951 21.1104 16.2891C21.2485 15.2614 21.25 13.9067 21.25 12C21.25 10.0933 21.2485 8.73858 21.1104 7.71094C20.9752 6.70485 20.7211 6.12536 20.2979 5.70215C19.9129 5.31714 19.3994 5.07351 18.5576 4.93066C17.8388 4.80874 16.936 4.76852 15.75 4.75586V19.2441ZM10.1162 7.75C10.5157 7.74996 10.8826 7.7497 11.1826 7.78711C11.5111 7.82812 11.8611 7.92411 12.1621 8.19141C12.2135 8.23705 12.262 8.28653 12.3076 8.33789C12.5752 8.63899 12.6719 8.98883 12.7129 9.31738C12.7503 9.61735 12.7501 9.98427 12.75 10.3838V10.4248C12.75 10.839 12.4142 11.1748 12 11.1748C11.5858 11.1748 11.25 10.839 11.25 10.4248C11.25 9.97076 11.249 9.69967 11.2246 9.50391C11.2002 9.30808 10.9961 9.27539 10.9961 9.27539C10.8004 9.25102 10.5292 9.25 10.0752 9.25H9.75V14.75H11C11.4142 14.75 11.75 15.0858 11.75 15.5C11.75 15.9142 11.4142 16.25 11 16.25H7C6.58579 16.25 6.25 15.9142 6.25 15.5C6.25 15.0858 6.58579 14.75 7 14.75H8.25V9.25H7.9248C7.47075 9.25 7.19967 9.25102 7.00391 9.27539C7.00391 9.27539 6.79982 9.30808 6.77539 9.50391C6.75103 9.69967 6.75 9.97076 6.75 10.4248C6.75 10.839 6.41421 11.1748 6 11.1748C5.58579 11.1748 5.25 10.839 5.25 10.4248V10.3838C5.24996 9.98427 5.2497 9.61735 5.28711 9.31738C5.32812 8.98898 5.42413 8.63889 5.69141 8.33789C5.73707 8.28651 5.7865 8.23707 5.83789 8.19141C6.13888 7.92412 6.48898 7.82812 6.81738 7.78711C7.11734 7.7497 7.48427 7.74996 7.88379 7.75H10.1162Z" fill="#1C274C"/>
</svg>
