<svg width="24" height="24" viewBox="0 0 24 24" fill="none" xmlns="http://www.w3.org/2000/svg">
<path d="M9.00006 14.25C9.41424 14.25 9.75006 14.5858 9.75006 15V20.8574C9.74986 21.2715 9.41412 21.6074 9.00006 21.6074C8.58598 21.6074 8.25027 21.2715 8.25006 20.8574V16.8105L2.53033 22.5303C2.23747 22.8231 1.76268 22.8231 1.46979 22.5303C1.1769 22.2374 1.1769 21.7626 1.46979 21.4697L7.18951 15.75H3.14264C2.72854 15.7499 2.39267 15.4141 2.39264 15C2.39264 14.5859 2.72852 14.2501 3.14264 14.25H9.00006ZM21.4698 1.46973C21.7627 1.17684 22.2374 1.17684 22.5303 1.46973C22.8232 1.76262 22.8232 2.23741 22.5303 2.53027L16.8106 8.25H20.8575C21.2716 8.25021 21.6075 8.58592 21.6075 9C21.6074 9.41405 21.2716 9.74979 20.8575 9.75H15.0001C14.5859 9.75 14.2501 9.41418 14.2501 9V3.14258C14.2502 2.72846 14.5859 2.39258 15.0001 2.39258C15.4142 2.39261 15.7499 2.72848 15.7501 3.14258V7.18945L21.4698 1.46973Z" fill="#1C274C"/>
</svg>
