<svg width="24" height="24" viewBox="0 0 24 24" fill="none" xmlns="http://www.w3.org/2000/svg">
<path d="M12 2C17.5228 2 22 6.47715 22 12C22 17.5228 17.5228 22 12 22C10.4003 22 8.88867 21.6239 7.54785 20.9561C7.19153 20.7787 6.78395 20.7203 6.39941 20.8232L4.17383 21.4189C3.20767 21.6774 2.32296 20.7932 2.58105 19.8271L3.17676 17.6006C3.27965 17.2161 3.22143 16.8084 3.04395 16.4521C2.37613 15.1113 2 13.5997 2 12C2 6.47715 6.47715 2 12 2ZM12 7.25C11.5858 7.25 11.25 7.58579 11.25 8V16C11.25 16.4142 11.5858 16.75 12 16.75C12.4142 16.75 12.75 16.4142 12.75 16V8C12.75 7.58579 12.4142 7.25 12 7.25ZM8 9.25C7.58579 9.25 7.25 9.58579 7.25 10V14C7.25 14.4142 7.58579 14.75 8 14.75C8.41421 14.75 8.75 14.4142 8.75 14V10C8.75 9.58579 8.41421 9.25 8 9.25ZM16 9.25C15.5858 9.25 15.25 9.58579 15.25 10V14C15.25 14.4142 15.5858 14.75 16 14.75C16.4142 14.75 16.75 14.4142 16.75 14V10C16.75 9.58579 16.4142 9.25 16 9.25Z" fill="#1C274C"/>
</svg>
