<svg width="24" height="24" viewBox="0 0 24 24" fill="none" xmlns="http://www.w3.org/2000/svg">
<path d="M20.7197 2.46973C21.0126 2.17684 21.4874 2.17684 21.7803 2.46973C22.0731 2.76262 22.0732 3.2374 21.7803 3.53027L3.78027 21.5303C3.48739 21.8231 3.01261 21.8231 2.71973 21.5303C2.42684 21.2374 2.42685 20.7626 2.71973 20.4697L5.44141 17.748C4.55839 17.7385 3.88585 17.6857 3.27539 17.4033C2.58059 17.0819 1.91098 16.4522 1.54785 15.7783C1.15548 15.0498 1.10943 14.2875 1.04395 13.2041L1.03613 13.0742C1.01368 12.7059 1 12.3416 1 12C1 11.6585 1.01368 11.2941 1.03613 10.9258L1.04395 10.7959C1.10943 9.71266 1.1555 8.9502 1.54785 8.22168C1.91098 7.54772 2.58059 6.91814 3.27539 6.59668C4.0269 6.24909 4.87223 6.24935 6.08887 6.25H6.25C6.78652 6.25 6.96984 6.24775 7.1416 6.21875C7.32528 6.18771 7.50437 6.13378 7.6748 6.05859C7.83415 5.98826 7.98861 5.88908 8.43652 5.59375L8.70312 5.41797C9.93382 4.6065 10.9208 3.95577 11.7344 3.56055C12.5604 3.15928 13.3742 2.93566 14.1924 3.21484C14.4643 3.30762 14.7259 3.44127 14.9609 3.60645C15.6002 4.05573 15.9053 4.74105 16.0771 5.5293C16.1647 5.9315 16.2246 6.39541 16.2705 6.91895L20.7197 2.46973ZM15.75 11.25C16.1642 11.25 16.5 11.5858 16.5 12C16.5 12.552 16.4639 13.5257 16.4121 14.6406L16.4092 14.6973C16.3414 16.1572 16.2871 17.3296 16.1279 18.2139C15.966 19.1134 15.667 19.8974 14.9609 20.3936C14.726 20.5587 14.4642 20.6914 14.1924 20.7842C13.4504 21.0374 12.7129 20.8771 11.9707 20.5488C11.2378 20.2245 10.3776 19.6807 9.33887 19C8.90956 18.744 8.8294 18.1552 9.1748 17.7939L15.1738 11.5205L15.2451 11.4453C15.3784 11.3239 15.5556 11.25 15.75 11.25ZM20.5146 6.31641C20.8921 6.14618 21.3365 6.31396 21.5068 6.69141C21.9739 7.72653 22.5 9.45963 22.5 12C22.5 14.1916 22.1084 15.7834 21.7002 16.8447C21.4965 17.3742 21.2898 17.7693 21.1279 18.0391C21.047 18.1739 20.977 18.2774 20.9248 18.3506C20.8987 18.387 20.877 18.4159 20.8604 18.4375C20.852 18.4483 20.8446 18.4577 20.8389 18.4648L20.832 18.4736L20.8271 18.4785C20.8238 18.476 20.7816 18.4429 20.25 18L20.8262 18.4805C20.5609 18.7985 20.0877 18.8412 19.7695 18.5762C19.4531 18.3122 19.4091 17.8424 19.6699 17.5244C19.6702 17.524 19.6723 17.5225 19.6738 17.5205C19.6791 17.5137 19.6892 17.4994 19.7041 17.4785C19.7338 17.4369 19.7811 17.3669 19.8408 17.2676C19.9601 17.0686 20.1286 16.7509 20.2998 16.3057C20.6416 15.417 21 14.0083 21 12C21 9.67384 20.5197 8.15111 20.1396 7.30859C19.9692 6.93103 20.137 6.48677 20.5146 6.31641ZM18.4141 9.26562C18.8196 9.18148 19.2166 9.44213 19.3008 9.84766C19.4109 10.3781 19.5 11.089 19.5 12C19.5 13.1099 19.3678 13.9226 19.2266 14.4736C19.156 14.7488 19.0832 14.9583 19.0244 15.1055C18.9951 15.1789 18.9687 15.2373 18.9482 15.2803C18.9381 15.3015 18.929 15.319 18.9219 15.333L18.9121 15.3516L18.9092 15.3584L18.9072 15.3613L18.9062 15.3633C18.9062 15.3633 18.8988 15.3604 18.25 15L18.9053 15.3643C18.7041 15.7263 18.2478 15.8565 17.8857 15.6553C17.5271 15.4559 17.3955 15.006 17.5889 14.6455L17.5947 14.6348C17.6017 14.6203 17.6144 14.5913 17.6318 14.5479C17.6667 14.4607 17.7191 14.3135 17.7734 14.1016C17.8821 13.6776 18 12.9899 18 12C18 11.1873 17.9205 10.5785 17.832 10.1523C17.748 9.74682 18.0085 9.34981 18.4141 9.26562Z" fill="#48465C"/>
</svg>
