<svg width="24" height="24" viewBox="0 0 24 24" fill="none" xmlns="http://www.w3.org/2000/svg">
<path d="M12.0576 1.25C14.3657 1.24999 16.1745 1.24974 17.5859 1.43945C19.0306 1.63369 20.1706 2.03977 21.0654 2.93457C21.9602 3.82938 22.3662 4.96932 22.5605 6.41406C22.7502 7.82544 22.75 9.63432 22.75 11.9424V12.0576C22.75 14.3657 22.7502 16.1745 22.5605 17.5859C22.3662 19.0306 21.9602 20.1706 21.0654 21.0654C20.1706 21.9602 19.0306 22.3662 17.5859 22.5605C16.1745 22.7502 14.3657 22.75 12.0576 22.75H11.9424C9.63432 22.75 7.82544 22.7502 6.41406 22.5605C4.96932 22.3662 3.82938 21.9602 2.93457 21.0654C2.03977 20.1706 1.63369 19.0306 1.43945 17.5859C1.24974 16.1745 1.24999 14.3657 1.25 12.0576V11.9424C1.24999 9.63433 1.24974 7.82544 1.43945 6.41406C1.63369 4.96932 2.03976 3.82938 2.93457 2.93457C3.82938 2.03976 4.96932 1.63369 6.41406 1.43945C7.82544 1.24974 9.63433 1.24999 11.9424 1.25H12.0576ZM2.77637 8.75C2.7501 9.67173 2.75 10.7422 2.75 12C2.75 14.3782 2.75198 16.0867 2.92676 17.3867C3.09865 18.6649 3.42551 19.4352 3.99512 20.0049C4.56472 20.5745 5.33508 20.9014 6.61328 21.0732C7.91326 21.248 9.62178 21.25 12 21.25C14.3782 21.25 16.0867 21.248 17.3867 21.0732C18.6649 20.9014 19.4352 20.5745 20.0049 20.0049C20.5745 19.4352 20.9014 18.6649 21.0732 17.3867C21.248 16.0867 21.25 14.3782 21.25 12C21.25 10.7422 21.2499 9.67173 21.2236 8.75H2.77637ZM10.0986 10.9707C10.6733 10.606 11.2759 10.7561 11.7461 10.9648C12.1981 11.1655 12.7421 11.5169 13.3682 11.9209L13.4697 11.9863C14.0894 12.386 14.6259 12.7328 15 13.0635C15.3979 13.4155 15.75 13.8686 15.75 14.5C15.75 15.1314 15.3979 15.5845 15 15.9365C14.6259 16.2671 14.0894 16.6139 13.4697 17.0137L13.3682 17.0791C12.7421 17.4831 12.1981 17.8345 11.7461 18.0352C11.2759 18.2439 10.6733 18.394 10.0986 18.0293C9.55403 17.6832 9.38864 17.0922 9.31934 16.5723C9.25016 16.0531 9.24996 15.3672 9.25 14.5547V14.4453C9.24996 13.6328 9.25016 12.9469 9.31934 12.4277C9.38864 11.9078 9.55403 11.3168 10.0986 10.9707ZM10.8975 12.2529C10.8753 12.2957 10.8359 12.3995 10.8057 12.626C10.7513 13.0339 10.75 13.618 10.75 14.5C10.75 15.382 10.7513 15.9661 10.8057 16.374C10.8359 16.6005 10.8753 16.7043 10.8975 16.7471C10.9377 16.7401 11.012 16.7194 11.1367 16.6641C11.4683 16.5169 11.9135 16.2319 12.6074 15.7842C13.2907 15.3433 13.7288 15.0585 14.0068 14.8125C14.2584 14.5901 14.2513 14.5088 14.25 14.5C14.251 14.4936 14.2627 14.4137 14.0068 14.1875C13.7288 13.9415 13.2907 13.6567 12.6074 13.2158C11.9135 12.7681 11.4683 12.4831 11.1367 12.3359C11.012 12.2806 10.9377 12.2599 10.8975 12.2529ZM9.44434 2.76172C8.31688 2.77902 7.39174 2.8221 6.61328 2.92676C5.33508 3.09865 4.56472 3.42551 3.99512 3.99512C3.42551 4.56472 3.09865 5.33508 2.92676 6.61328C2.89961 6.81524 2.87588 7.02735 2.85645 7.25H6.58789L9.44434 2.76172ZM11.207 2.75C11.1885 2.80226 11.1638 2.85356 11.1328 2.90234L8.36621 7.25H13.0879L15.9189 2.80176C14.8557 2.75055 13.5747 2.75 12 2.75C11.727 2.75 11.4627 2.7497 11.207 2.75ZM14.8662 7.25H21.1436C21.1242 7.02735 21.1004 6.81524 21.0732 6.61328C20.9014 5.33508 20.5745 4.56472 20.0049 3.99512C19.4674 3.45769 18.7514 3.136 17.5986 2.95703L14.8662 7.25Z" fill="#48465C"/>
</svg>
