<svg width="24" height="24" viewBox="0 0 24 24" fill="none" xmlns="http://www.w3.org/2000/svg">
<path d="M13 3C16.7495 3 18.6242 3.00031 19.9385 3.95508C20.363 4.26348 20.7365 4.63705 21.0449 5.06152C21.9997 6.37584 22 8.25047 22 12C22 15.7495 21.9997 17.6242 21.0449 18.9385C20.7365 19.363 20.363 19.7365 19.9385 20.0449C18.6242 20.9997 16.7495 21 13 21H11C7.25047 21 5.37584 20.9997 4.06152 20.0449C3.63705 19.7365 3.26348 19.363 2.95508 18.9385C2.00031 17.6242 2 15.7495 2 12C2 8.25048 2.00033 6.37584 2.95508 5.06152C3.26348 4.63705 3.63705 4.26348 4.06152 3.95508C5.37584 3.00033 7.25048 3 11 3H13ZM14.4287 11C13.3638 11 12.8312 11.0002 12.4111 11.1777C11.851 11.4145 11.4058 11.8687 11.1738 12.4404C10.9999 12.8692 11 13.4129 11 14.5C11 15.5871 10.9999 16.1308 11.1738 16.5596C11.4058 17.1313 11.851 17.5855 12.4111 17.8223C12.8312 17.9998 13.3638 18 14.4287 18H15.5713C16.6362 18 17.1688 17.9998 17.5889 17.8223C18.149 17.5855 18.5942 17.1313 18.8262 16.5596C19.0001 16.1308 19 15.5871 19 14.5C19 13.4129 19.0001 12.8692 18.8262 12.4404C18.5942 11.8687 18.149 11.4145 17.5889 11.1777C17.1688 11.0002 16.6362 11 15.5713 11H14.4287Z" fill="#1C274C"/>
</svg>
