<svg width="24" height="24" viewBox="0 0 24 24" fill="none" xmlns="http://www.w3.org/2000/svg">
<path d="M2 13.25C2.41421 13.25 2.75 13.5858 2.75 14C2.75 15.9067 2.7515 17.2614 2.88965 18.2891C3.02491 19.2951 3.27894 19.8747 3.70215 20.2979C4.12536 20.7211 4.70485 20.9752 5.71094 21.1104C6.73858 21.2485 8.09325 21.25 10 21.25C10.4142 21.25 10.75 21.5858 10.75 22C10.75 22.4142 10.4142 22.75 10 22.75H9.94336C8.10571 22.75 6.6499 22.7498 5.51074 22.5967C4.33844 22.439 3.38992 22.1066 2.6416 21.3584C1.89332 20.6101 1.56095 19.6615 1.40332 18.4893C1.25016 17.3501 1.24998 15.8943 1.25 14.0566V14C1.25 13.5858 1.58579 13.25 2 13.25ZM22 13.25C22.4142 13.25 22.75 13.5858 22.75 14V14.0566C22.75 15.8943 22.7498 17.3501 22.5967 18.4893C22.439 19.6615 22.1066 20.6101 21.3584 21.3584C20.6101 22.1066 19.6615 22.439 18.4893 22.5967C17.3501 22.7498 15.8943 22.75 14.0566 22.75H14C13.5858 22.75 13.25 22.4142 13.25 22C13.25 21.5858 13.5858 21.25 14 21.25C15.9067 21.25 17.2614 21.2485 18.2891 21.1104C19.2951 20.9752 19.8747 20.7211 20.2979 20.2979C20.7211 19.8747 20.9752 19.2951 21.1104 18.2891C21.2485 17.2614 21.25 15.9067 21.25 14C21.25 13.5858 21.5858 13.25 22 13.25ZM8.54492 12.75C8.97767 12.7499 9.3745 12.7496 9.69727 12.793C10.0528 12.8408 10.4283 12.9536 10.7373 13.2627C11.0464 13.5717 11.1592 13.9472 11.207 14.3027C11.2504 14.6255 11.2501 15.0223 11.25 15.4551V16.5449C11.2501 16.9777 11.2504 17.3745 11.207 17.6973C11.1592 18.0528 11.0464 18.4283 10.7373 18.7373C10.4283 19.0464 10.0528 19.1592 9.69727 19.207C9.3745 19.2504 8.97767 19.2501 8.54492 19.25H8.4502C7.78552 19.25 7.21255 19.2502 6.75391 19.1885C6.26235 19.1224 5.79137 18.973 5.40918 18.5908C5.02701 18.2086 4.87764 17.7377 4.81152 17.2461C4.74986 16.7875 4.74996 16.2144 4.75 15.5498V15.4551C4.74995 15.0223 4.74958 14.6255 4.79297 14.3027C4.84076 13.9472 4.95368 13.5717 5.2627 13.2627C5.57172 12.9536 5.94727 12.8408 6.30273 12.793C6.62551 12.7496 7.02233 12.7499 7.45508 12.75H8.54492ZM16.5449 12.75C16.9777 12.7499 17.3745 12.7496 17.6973 12.793C18.0528 12.8408 18.4283 12.9536 18.7373 13.2627C19.0464 13.5717 19.1592 13.9472 19.207 14.3027C19.2504 14.6255 19.2501 15.0223 19.25 15.4551V15.5498C19.25 16.2144 19.2502 16.7875 19.1885 17.2461C19.1224 17.7377 18.9729 18.2086 18.5908 18.5908C18.2086 18.9729 17.7377 19.1224 17.2461 19.1885C16.7875 19.2502 16.2144 19.25 15.5498 19.25H15.4551C15.0223 19.2501 14.6255 19.2504 14.3027 19.207C13.9472 19.1592 13.5717 19.0464 13.2627 18.7373C12.9536 18.4283 12.8408 18.0528 12.793 17.6973C12.7496 17.3745 12.7499 16.9777 12.75 16.5449V15.4551C12.7499 15.0223 12.7496 14.6255 12.793 14.3027C12.8408 13.9472 12.9536 13.5717 13.2627 13.2627C13.5717 12.9536 13.9472 12.8408 14.3027 12.793C14.6255 12.7496 15.0223 12.7499 15.4551 12.75H16.5449ZM7.5 14.25C7.00756 14.25 6.71364 14.252 6.50293 14.2803C6.40638 14.2933 6.35772 14.3084 6.33594 14.3174C6.33094 14.3194 6.32711 14.3213 6.3252 14.3223L6.32324 14.3232L6.32227 14.3262C6.32126 14.3281 6.31936 14.3311 6.31738 14.3359C6.30842 14.3576 6.29326 14.4063 6.28027 14.5029C6.25197 14.7136 6.25 15.0075 6.25 15.5C6.25 16.2282 6.25123 16.699 6.29785 17.0459C6.34159 17.3712 6.41264 17.4732 6.46973 17.5303C6.52682 17.5874 6.62882 17.6584 6.9541 17.7021C7.30097 17.7487 7.77177 17.75 8.5 17.75C8.99244 17.75 9.28636 17.748 9.49707 17.7197C9.59363 17.7067 9.64228 17.6916 9.66406 17.6826C9.66906 17.6806 9.67288 17.6788 9.6748 17.6777L9.67676 17.6768L9.67773 17.6738C9.67874 17.6719 9.68064 17.6689 9.68262 17.6641C9.69158 17.6424 9.70674 17.5937 9.71973 17.4971C9.74803 17.2864 9.75 16.9925 9.75 16.5V15.5C9.75 15.0075 9.74803 14.7136 9.71973 14.5029C9.70674 14.4063 9.69158 14.3576 9.68262 14.3359C9.68064 14.3311 9.67874 14.3281 9.67773 14.3262L9.67676 14.3232L9.6748 14.3223C9.67288 14.3213 9.66906 14.3194 9.66406 14.3174C9.64228 14.3084 9.59362 14.2933 9.49707 14.2803C9.28636 14.252 8.99244 14.25 8.5 14.25H7.5ZM15.5 14.25C15.0075 14.25 14.7136 14.252 14.5029 14.2803C14.4063 14.2933 14.3576 14.3084 14.3359 14.3174C14.3311 14.3193 14.3281 14.3213 14.3262 14.3223L14.3232 14.3232L14.3223 14.3262L14.3174 14.3359C14.3084 14.3576 14.2933 14.4063 14.2803 14.5029C14.252 14.7136 14.25 15.0075 14.25 15.5V16.5C14.25 16.9925 14.252 17.2864 14.2803 17.4971C14.2933 17.5937 14.3084 17.6424 14.3174 17.6641C14.3185 17.6668 14.3203 17.6709 14.3203 17.6709L14.3223 17.6738L14.3232 17.6768L14.3262 17.6777C14.3281 17.6788 14.3311 17.6807 14.3359 17.6826C14.3576 17.6916 14.4063 17.7067 14.5029 17.7197C14.7136 17.748 15.0075 17.75 15.5 17.75C16.2282 17.75 16.699 17.7487 17.0459 17.7021C17.3712 17.6583 17.4732 17.5874 17.5303 17.5303C17.5874 17.4732 17.6583 17.3712 17.7021 17.0459C17.7487 16.699 17.75 16.2282 17.75 15.5C17.75 15.0075 17.748 14.7136 17.7197 14.5029C17.7067 14.4063 17.6916 14.3576 17.6826 14.3359C17.6807 14.3311 17.6788 14.3281 17.6777 14.3262L17.6768 14.3232L17.6738 14.3223C17.6719 14.3213 17.6689 14.3193 17.6641 14.3174C17.6424 14.3084 17.5937 14.2933 17.4971 14.2803C17.2864 14.252 16.9925 14.25 16.5 14.25H15.5ZM8.54492 4.75C8.97768 4.74995 9.3745 4.74957 9.69727 4.79297C10.0528 4.84076 10.4283 4.95368 10.7373 5.2627C11.0464 5.57172 11.1592 5.94727 11.207 6.30273C11.2504 6.62551 11.2501 7.02233 11.25 7.45508V8.54492C11.2501 8.97767 11.2504 9.3745 11.207 9.69727C11.1592 10.0528 11.0464 10.4283 10.7373 10.7373C10.4283 11.0464 10.0528 11.1592 9.69727 11.207C9.3745 11.2504 8.97767 11.2501 8.54492 11.25H7.45508C7.02233 11.2501 6.62551 11.2504 6.30273 11.207C5.94727 11.1592 5.57172 11.0464 5.2627 10.7373C4.95368 10.4283 4.84076 10.0528 4.79297 9.69727C4.74957 9.3745 4.74995 8.97768 4.75 8.54492V8.4502C4.74996 7.78552 4.74986 7.21255 4.81152 6.75391C4.87764 6.26235 5.02699 5.79137 5.40918 5.40918C5.79137 5.02699 6.26235 4.87764 6.75391 4.81152C7.21255 4.74986 7.78552 4.74996 8.4502 4.75H8.54492ZM15.5498 4.75C16.2144 4.74996 16.7875 4.74986 17.2461 4.81152C17.7377 4.87764 18.2086 5.02701 18.5908 5.40918C18.973 5.79137 19.1224 6.26235 19.1885 6.75391C19.2502 7.21255 19.25 7.78552 19.25 8.4502V8.54492C19.2501 8.97767 19.2504 9.3745 19.207 9.69727C19.1592 10.0528 19.0464 10.4283 18.7373 10.7373C18.4283 11.0464 18.0528 11.1592 17.6973 11.207C17.3745 11.2504 16.9777 11.2501 16.5449 11.25H15.4551C15.0223 11.2501 14.6255 11.2504 14.3027 11.207C13.9472 11.1592 13.5717 11.0464 13.2627 10.7373C12.9536 10.4283 12.8408 10.0528 12.793 9.69727C12.7496 9.3745 12.7499 8.97767 12.75 8.54492V7.45508C12.7499 7.02233 12.7496 6.62551 12.793 6.30273C12.8408 5.94727 12.9536 5.57172 13.2627 5.2627C13.5717 4.95368 13.9472 4.84076 14.3027 4.79297C14.6255 4.74958 15.0223 4.74995 15.4551 4.75H15.5498ZM10 1.25C10.4142 1.25 10.75 1.58579 10.75 2C10.75 2.41421 10.4142 2.75 10 2.75C8.09324 2.75 6.73858 2.75149 5.71094 2.88965C4.70485 3.02491 4.12536 3.27894 3.70215 3.70215C3.27894 4.12536 3.02491 4.70485 2.88965 5.71094C2.75149 6.73858 2.75 8.09324 2.75 10C2.75 10.4142 2.41421 10.75 2 10.75C1.58579 10.75 1.25 10.4142 1.25 10V9.94336C1.24998 8.1057 1.25016 6.64991 1.40332 5.51074C1.56095 4.33844 1.8933 3.38992 2.6416 2.6416C3.38992 1.8933 4.33844 1.56095 5.51074 1.40332C6.64991 1.25016 8.1057 1.24998 9.94336 1.25H10ZM14.0566 1.25C15.8943 1.24998 17.3501 1.25016 18.4893 1.40332C19.6615 1.56095 20.6101 1.89332 21.3584 2.6416C22.1066 3.38992 22.439 4.33844 22.5967 5.51074C22.7498 6.6499 22.75 8.10571 22.75 9.94336V10C22.75 10.4142 22.4142 10.75 22 10.75C21.5858 10.75 21.25 10.4142 21.25 10C21.25 8.09325 21.2485 6.73858 21.1104 5.71094C20.9752 4.70485 20.7211 4.12536 20.2979 3.70215C19.8747 3.27894 19.2951 3.02491 18.2891 2.88965C17.2614 2.7515 15.9067 2.75 14 2.75C13.5858 2.75 13.25 2.41421 13.25 2C13.25 1.58579 13.5858 1.25 14 1.25H14.0566ZM8.5 6.25C7.77177 6.25 7.30097 6.25123 6.9541 6.29785C6.62879 6.34159 6.52682 6.41264 6.46973 6.46973C6.41264 6.52682 6.34159 6.62879 6.29785 6.9541C6.25123 7.30097 6.25 7.77177 6.25 8.5C6.25 8.99244 6.25197 9.28636 6.28027 9.49707C6.29326 9.59362 6.30842 9.64228 6.31738 9.66406C6.31943 9.66905 6.32126 9.67289 6.32227 9.6748L6.32324 9.67676L6.3252 9.67773C6.32711 9.67874 6.33095 9.68057 6.33594 9.68262C6.35772 9.69158 6.40638 9.70674 6.50293 9.71973C6.71364 9.74803 7.00756 9.75 7.5 9.75H8.5C8.99244 9.75 9.28636 9.74803 9.49707 9.71973C9.59362 9.70674 9.64228 9.69158 9.66406 9.68262C9.66905 9.68057 9.67289 9.67874 9.6748 9.67773L9.67676 9.67676L9.67773 9.6748C9.67874 9.67289 9.68057 9.66905 9.68262 9.66406C9.69158 9.64228 9.70674 9.59362 9.71973 9.49707C9.74803 9.28636 9.75 8.99244 9.75 8.5V7.5C9.75 7.00756 9.74803 6.71364 9.71973 6.50293C9.70674 6.40638 9.69158 6.35772 9.68262 6.33594L9.68066 6.33203C9.67942 6.32923 9.67773 6.3252 9.67773 6.3252L9.67676 6.32324L9.6748 6.32227C9.67289 6.32126 9.66905 6.31943 9.66406 6.31738C9.64228 6.30842 9.59362 6.29326 9.49707 6.28027C9.28636 6.25197 8.99244 6.25 8.5 6.25ZM15.5 6.25C15.0075 6.25 14.7136 6.25197 14.5029 6.28027C14.4063 6.29326 14.3576 6.30842 14.3359 6.31738L14.3311 6.31934C14.329 6.32027 14.3269 6.32191 14.3262 6.32227L14.3232 6.32324L14.3223 6.3252C14.3213 6.32711 14.3194 6.33094 14.3174 6.33594C14.3084 6.35772 14.2933 6.40638 14.2803 6.50293C14.252 6.71364 14.25 7.00756 14.25 7.5V8.5C14.25 8.99244 14.252 9.28636 14.2803 9.49707C14.2933 9.59362 14.3084 9.64228 14.3174 9.66406C14.3194 9.66906 14.3213 9.67288 14.3223 9.6748L14.3232 9.67676L14.3262 9.67773C14.3281 9.67874 14.3311 9.68064 14.3359 9.68262C14.3576 9.69158 14.4063 9.70674 14.5029 9.71973C14.7136 9.74803 15.0075 9.75 15.5 9.75H16.5C16.9925 9.75 17.2864 9.74803 17.4971 9.71973C17.5937 9.70674 17.6424 9.69158 17.6641 9.68262C17.6689 9.68064 17.6719 9.67874 17.6738 9.67773L17.6768 9.67676L17.6777 9.6748C17.6788 9.67288 17.6806 9.66906 17.6826 9.66406C17.6916 9.64228 17.7067 9.59363 17.7197 9.49707C17.748 9.28636 17.75 8.99244 17.75 8.5C17.75 7.77177 17.7487 7.30097 17.7021 6.9541C17.6584 6.62882 17.5874 6.52682 17.5303 6.46973C17.4732 6.41264 17.3712 6.34159 17.0459 6.29785C16.699 6.25123 16.2282 6.25 15.5 6.25Z" fill="#48465C"/>
</svg>
