<svg width="24" height="24" viewBox="0 0 24 24" fill="none" xmlns="http://www.w3.org/2000/svg">
<path d="M6.55176 12.75C7.45023 12.75 8.20015 12.7501 8.79492 12.8301C9.42254 12.9145 9.98903 13.1003 10.4443 13.5557C10.8997 14.011 11.0855 14.5775 11.1699 15.2051C11.2499 15.7999 11.25 16.5497 11.25 17.4482V17.5518C11.25 18.4503 11.2499 19.2001 11.1699 19.7949C11.0855 20.4225 10.8997 20.989 10.4443 21.4443C9.98903 21.8997 9.42254 22.0855 8.79492 22.1699C8.20014 22.2499 7.45024 22.25 6.55176 22.25H6.44824C5.54976 22.25 4.79987 22.2499 4.20508 22.1699C3.57748 22.0855 3.01102 21.8997 2.55566 21.4443C2.1003 20.989 1.91452 20.4225 1.83008 19.7949C1.75012 19.2001 1.74997 18.4503 1.75 17.5518V17.4482C1.74997 16.5497 1.75012 15.7999 1.83008 15.2051C1.91452 14.5775 2.1003 14.011 2.55566 13.5557C3.01102 13.1003 3.57748 12.9145 4.20508 12.8301C4.79986 12.7501 5.54977 12.75 6.44824 12.75H6.55176ZM17.5 12.75C20.1234 12.75 22.25 14.8767 22.25 17.5C22.25 20.1234 20.1234 22.25 17.5 22.25C14.8767 22.25 12.75 20.1234 12.75 17.5C12.75 14.8767 14.8767 12.75 17.5 12.75ZM6.5 14.25C5.53599 14.25 4.8883 14.2515 4.40527 14.3164C3.94388 14.3785 3.74652 14.4859 3.61621 14.6162C3.48591 14.7465 3.37845 14.9439 3.31641 15.4053C3.25147 15.8883 3.25 16.536 3.25 17.5C3.25 18.464 3.25147 19.1117 3.31641 19.5947C3.37845 20.0561 3.48591 20.2535 3.61621 20.3838C3.74652 20.5141 3.94389 20.6215 4.40527 20.6836C4.8883 20.7485 5.53599 20.75 6.5 20.75C7.46401 20.75 8.11169 20.7485 8.59473 20.6836C9.05612 20.6215 9.25348 20.5141 9.38379 20.3838C9.51409 20.2535 9.62155 20.0561 9.68359 19.5947C9.74853 19.1117 9.75 18.464 9.75 17.5C9.75 16.536 9.74853 15.8883 9.68359 15.4053C9.62155 14.9439 9.51409 14.7465 9.38379 14.6162C9.25348 14.4859 9.05612 14.3785 8.59473 14.3164C8.11169 14.2515 7.46401 14.25 6.5 14.25ZM17.5 14.25C15.7051 14.25 14.25 15.7051 14.25 17.5C14.25 19.2949 15.7051 20.75 17.5 20.75C19.2949 20.75 20.75 19.2949 20.75 17.5C20.75 15.7051 19.2949 14.25 17.5 14.25ZM6.5 1.75C9.12336 1.75 11.25 3.87665 11.25 6.5C11.25 9.12336 9.12336 11.25 6.5 11.25C3.87665 11.25 1.75 9.12336 1.75 6.5C1.75 3.87665 3.87665 1.75 6.5 1.75ZM17.5518 1.75C18.4503 1.74997 19.2001 1.75012 19.7949 1.83008C20.4225 1.91452 20.989 2.1003 21.4443 2.55566C21.8997 3.01102 22.0855 3.57748 22.1699 4.20508C22.2499 4.79987 22.25 5.54976 22.25 6.44824V6.55176C22.25 7.45024 22.2499 8.20014 22.1699 8.79492C22.0855 9.42254 21.8997 9.98903 21.4443 10.4443C20.989 10.8997 20.4225 11.0855 19.7949 11.1699C19.2001 11.2499 18.4503 11.25 17.5518 11.25H17.4482C16.5497 11.25 15.7999 11.2499 15.2051 11.1699C14.5775 11.0855 14.011 10.8997 13.5557 10.4443C13.1003 9.98903 12.9145 9.42254 12.8301 8.79492C12.7501 8.20015 12.75 7.45023 12.75 6.55176V6.44824C12.75 5.54977 12.7501 4.79986 12.8301 4.20508C12.9145 3.57748 13.1003 3.01102 13.5557 2.55566C14.011 2.1003 14.5775 1.91452 15.2051 1.83008C15.7999 1.75012 16.5497 1.74997 17.4482 1.75H17.5518ZM6.5 3.25C4.70508 3.25 3.25 4.70508 3.25 6.5C3.25 8.29493 4.70508 9.75 6.5 9.75C8.29493 9.75 9.75 8.29493 9.75 6.5C9.75 4.70508 8.29493 3.25 6.5 3.25ZM17.5 3.25C16.536 3.25 15.8883 3.25147 15.4053 3.31641C14.9439 3.37845 14.7465 3.48591 14.6162 3.61621C14.4859 3.74652 14.3785 3.94388 14.3164 4.40527C14.2515 4.8883 14.25 5.53599 14.25 6.5C14.25 7.46401 14.2515 8.11169 14.3164 8.59473C14.3785 9.05612 14.4859 9.25348 14.6162 9.38379C14.7465 9.51409 14.9439 9.62155 15.4053 9.68359C15.8883 9.74853 16.536 9.75 17.5 9.75C18.464 9.75 19.1117 9.74853 19.5947 9.68359C20.0561 9.62155 20.2535 9.51409 20.3838 9.38379C20.5141 9.25348 20.6215 9.05612 20.6836 8.59473C20.7485 8.11169 20.75 7.46401 20.75 6.5C20.75 5.53599 20.7485 4.8883 20.6836 4.40527C20.6215 3.94389 20.5141 3.74652 20.3838 3.61621C20.2535 3.48591 20.0561 3.37845 19.5947 3.31641C19.1117 3.25147 18.464 3.25 17.5 3.25Z" fill="#48465C"/>
</svg>
