<svg width="24" height="24" viewBox="0 0 24 24" fill="none" xmlns="http://www.w3.org/2000/svg">
<path d="M16.0947 13.7278L15.0303 14.7922L13.1767 12.9387C12.8838 12.6458 12.409 12.6458 12.1162 12.9387C11.8234 13.2316 11.8233 13.7064 12.1162 13.9993L13.9697 15.8528L13.0303 16.7922L11.1767 14.9387C10.8838 14.6458 10.409 14.6458 10.1162 14.9387C9.82336 15.2316 9.82329 15.7064 10.1162 15.9993L11.9697 17.8528L10.5312 19.2913C10.0752 19.7473 9.8473 19.9757 9.5742 20.1204C9.39217 20.2168 9.19651 20.2851 8.99412 20.3235C8.69045 20.3811 8.36944 20.3459 7.7285 20.2747L7.25291 20.2209C7.07841 20.2016 6.991 20.1922 6.90721 20.1897C6.39874 20.1749 5.90242 20.3488 5.51463 20.678C5.45067 20.7323 5.38892 20.7949 5.26463 20.9192L4.63572 21.5481C4.03283 22.151 3.05504 22.1509 2.45213 21.5481C1.84922 20.9452 1.84923 19.9674 2.45213 19.3645L3.08104 18.7356C3.20532 18.6113 3.26795 18.5496 3.32225 18.4856C3.65145 18.0978 3.82534 17.6014 3.81053 17.093C3.80808 17.0091 3.79774 16.9212 3.7783 16.7463L3.72557 16.2717C3.65436 15.6308 3.61915 15.3097 3.67674 15.0061C3.71515 14.8037 3.78341 14.6081 3.87986 14.426C4.02459 14.1529 4.25298 13.925 4.70897 13.469L10.2724 7.90552L16.0947 13.7278ZM14.9717 3.2063C16.5794 1.59853 19.1862 1.59853 20.7939 3.2063C22.4016 4.81409 22.4017 7.42083 20.7939 9.02856L19.3388 10.4836L20.4306 11.5754C21.0334 12.1783 21.0335 13.1562 20.4306 13.759C19.8278 14.3619 18.85 14.3617 18.2471 13.759L10.2412 5.75317C9.63824 5.15026 9.63823 4.17249 10.2412 3.56958C10.8441 2.96669 11.8219 2.96667 12.4248 3.56958L13.5166 4.66138L14.9717 3.2063Z" fill="#1C274C"/>
</svg>
