<svg width="24" height="24" viewBox="0 0 24 24" fill="none" xmlns="http://www.w3.org/2000/svg">
<path d="M6.98633 1.25C7.33761 1.24998 7.56416 1.24986 7.78516 1.27051C8.73644 1.35947 9.63945 1.73301 10.375 2.34277C10.546 2.48447 10.7056 2.64506 10.9541 2.89355L11.5303 3.46973C12.3761 4.31544 12.7015 4.63089 13.0771 4.83984C13.295 4.96105 13.5258 5.05761 13.7656 5.12598C14.1789 5.24378 14.6323 5.25 15.8281 5.25H16.2529C17.5259 5.24998 18.5524 5.25046 19.3643 5.35254C20.2055 5.45834 20.9206 5.68371 21.5078 6.21191C21.6061 6.30032 21.6996 6.39388 21.7881 6.49219C22.3163 7.07948 22.5426 7.79442 22.6484 8.63574C22.7504 9.44763 22.75 10.4742 22.75 11.7471V14.0566C22.75 15.8943 22.7498 17.3501 22.5967 18.4893C22.4391 19.6616 22.1066 20.6101 21.3584 21.3584C20.6101 22.1066 19.6616 22.4391 18.4893 22.5967C17.3501 22.7498 15.8943 22.75 14.0566 22.75H9.94336C8.10571 22.75 6.64991 22.7498 5.51074 22.5967C4.33845 22.4391 3.3899 22.1066 2.6416 21.3584C1.80672 20.5235 1.48982 19.4391 1.35547 18.0732C1.31499 17.6611 1.61614 17.2945 2.02832 17.2539C2.44047 17.2135 2.80711 17.5146 2.84766 17.9268C2.96907 19.1611 3.23073 19.8265 3.70215 20.2979C4.12536 20.7211 4.70485 20.9751 5.71094 21.1104C6.73859 21.2484 8.09324 21.25 10 21.25H14C15.9067 21.25 17.2614 21.2484 18.2891 21.1104C19.2952 20.9751 19.8747 20.7211 20.2979 20.2979C20.7211 19.8747 20.9751 19.2952 21.1104 18.2891C21.2484 17.2614 21.25 15.9067 21.25 14V11.7979C21.25 10.4622 21.249 9.53059 21.1602 8.82324C21.0736 8.1346 20.9141 7.76329 20.6729 7.49512C20.6198 7.43622 20.5639 7.38013 20.5049 7.32715C20.2368 7.08595 19.8655 6.9274 19.1768 6.84082C18.4694 6.7519 17.538 6.75 16.2021 6.75H15.7178C14.67 6.75022 13.994 6.75065 13.3545 6.56836C13.0039 6.46841 12.6662 6.32763 12.3477 6.15039C11.7665 5.82705 11.2886 5.34945 10.5479 4.6084L9.91992 3.98047C9.63665 3.6972 9.52746 3.58962 9.41699 3.49805C8.91374 3.08091 8.29633 2.82454 7.64551 2.76367C7.50278 2.75034 7.35022 2.75 6.9502 2.75C6.03356 2.75 5.67873 2.75357 5.39746 2.80664C4.08282 3.05471 3.05471 4.08282 2.80664 5.39746C2.75357 5.67873 2.75 6.03356 2.75 6.9502V12C2.75 12.4142 2.41421 12.75 2 12.75C1.58579 12.75 1.25 12.4142 1.25 12V6.85938C1.24989 6.06347 1.24948 5.55664 1.33203 5.11914C1.6946 3.19779 3.19779 1.6946 5.11914 1.33203C5.55664 1.24948 6.06347 1.24989 6.85938 1.25H6.98633ZM8.26855 11.5586C8.51224 11.2238 8.98151 11.1499 9.31641 11.3936L13.4414 14.3936C13.6354 14.5347 13.75 14.7602 13.75 15C13.75 15.2399 13.6353 15.4652 13.4414 15.6064L9.31641 18.6064C8.98151 18.85 8.51223 18.7762 8.26855 18.4414C8.02499 18.1066 8.09879 17.6372 8.43359 17.3936L10.6934 15.75H2C1.58579 15.75 1.25 15.4142 1.25 15C1.25 14.5858 1.58579 14.25 2 14.25H10.6934L8.43359 12.6064C8.09884 12.3627 8.025 11.8935 8.26855 11.5586Z" fill="#48465C"/>
</svg>
