<svg width="24" height="24" viewBox="0 0 24 24" fill="none" xmlns="http://www.w3.org/2000/svg">
<path d="M21.3906 16.3359C21.4351 16.3819 21.4577 16.4049 21.4785 16.4277C21.7995 16.7802 21.9842 17.2355 21.999 17.7119C22 17.7427 22 17.7752 22 17.8389C22 17.988 22.0001 18.063 21.9961 18.126C21.9326 19.1313 21.1313 19.9326 20.126 19.9961C20.063 20.0001 19.988 20 19.8389 20H4.16113C4.01205 20 3.93699 20.0001 3.87402 19.9961C2.86879 19.9326 2.06742 19.1313 2.00391 18.126C1.99993 18.063 2 17.988 2 17.8389C2 17.7752 2.00002 17.7427 2.00098 17.7119C2.01582 17.2355 2.20054 16.7802 2.52148 16.4277C2.54225 16.405 2.56407 16.3817 2.6084 16.3359L3.90332 15H20.0967L21.3906 16.3359ZM9.5 17.25C9.08579 17.25 8.75 17.5858 8.75 18C8.75 18.4142 9.08579 18.75 9.5 18.75H14.5C14.9142 18.75 15.25 18.4142 15.25 18C15.25 17.5858 14.9142 17.25 14.5 17.25H9.5ZM15.6475 3C17.5328 3 18.4758 3.00019 19.0615 3.58594C19.6471 4.17173 19.6475 5.1146 19.6475 7V14H4.35254V7C4.35254 5.11458 4.35287 4.17173 4.93848 3.58594C5.52422 3.00019 6.46716 3 8.35254 3H15.6475ZM12 5C11.5858 5 11.25 5.33579 11.25 5.75C11.25 6.16421 11.5858 6.5 12 6.5C12.4142 6.49998 12.75 6.1642 12.75 5.75C12.75 5.3358 12.4142 5.00002 12 5Z" fill="#48465C"/>
</svg>
