<svg width="24" height="24" viewBox="0 0 24 24" fill="none" xmlns="http://www.w3.org/2000/svg">
<path d="M12 2C16.714 2 19.0708 2.00037 20.5352 3.46484C21.9996 4.9293 22 7.28597 22 12C22 16.714 21.9997 19.0708 20.5352 20.5352C19.0708 21.9997 16.714 22 12 22C7.28597 22 4.9293 21.9996 3.46484 20.5352C2.00037 19.0708 2 16.714 2 12C2 7.28595 2.00037 4.9293 3.46484 3.46484C4.9293 2.00037 7.28595 2 12 2ZM17.3232 13.1289C17.0264 12.8403 16.5514 12.8469 16.2627 13.1436C16.0115 13.4018 15.9833 13.7951 16.1758 14.083H15.1992C14.8007 14.083 14.699 14.0805 14.6143 14.0645C14.386 14.0212 14.1819 13.9069 14.0312 13.7441C13.9764 13.6849 13.9234 13.6056 13.7178 13.2725C13.5002 12.9204 13.0388 12.8112 12.6865 13.0283C12.3341 13.2459 12.224 13.7081 12.4414 14.0605L12.4727 14.1094C12.6326 14.369 12.7638 14.5834 12.9307 14.7637C13.3028 15.1658 13.797 15.4361 14.3359 15.5381C14.577 15.5838 14.8291 15.5831 15.1416 15.583H16.1758C15.983 15.871 16.0114 16.2641 16.2627 16.5225C16.5514 16.8194 17.0262 16.8269 17.3232 16.5381L18.5225 15.3711C18.6678 15.2299 18.75 15.0356 18.75 14.833C18.7499 14.6306 18.6677 14.437 18.5225 14.2959L17.3232 13.1289ZM17.3232 7.46191C17.0262 7.17318 16.5514 7.18057 16.2627 7.47754C16.0114 7.73597 15.983 8.12903 16.1758 8.41699H15.8057C15.336 8.41697 14.9318 8.41648 14.5957 8.44824C14.2367 8.4822 13.8981 8.55592 13.5703 8.73633C13.2414 8.91739 12.9995 9.16384 12.7822 9.44922C12.58 9.71462 12.3718 10.0528 12.1309 10.4434L10.6104 12.9072C10.3469 13.3343 10.1766 13.6087 10.0244 13.8086C9.88246 13.9949 9.78979 14.0701 9.70605 14.1162C9.62129 14.1629 9.50432 14.2018 9.2627 14.2246C9.00566 14.2489 8.67362 14.25 8.16211 14.25H6C5.58579 14.25 5.25 14.5858 5.25 15C5.25 15.4142 5.58579 15.75 6 15.75H8.19434C8.66408 15.75 9.06828 15.7505 9.4043 15.7188C9.76332 15.6847 10.1019 15.6101 10.4297 15.4297C10.7584 15.2486 11.0005 15.0021 11.2178 14.7168C11.4198 14.4515 11.6282 14.1138 11.8691 13.7236L13.3896 11.2598C13.6531 10.8327 13.8234 10.5583 13.9756 10.3584C14.1176 10.172 14.2101 10.0968 14.2939 10.0508C14.3786 10.0041 14.4955 9.96426 14.7373 9.94141C14.9943 9.91713 15.3263 9.91699 15.8379 9.91699H16.1758C15.9833 10.2049 16.0115 10.5982 16.2627 10.8564C16.5514 11.1531 17.0264 11.1597 17.3232 10.8711L18.5225 9.7041C18.6677 9.56297 18.7499 9.36945 18.75 9.16699C18.75 8.96441 18.6678 8.77012 18.5225 8.62891L17.3232 7.46191ZM6 8.25C5.58579 8.25 5.25 8.58579 5.25 9C5.25 9.41421 5.58579 9.75 6 9.75H8.80078C9.19936 9.75 9.30091 9.75347 9.38574 9.76953C9.61392 9.81281 9.81817 9.92617 9.96875 10.0889C10.0236 10.1482 10.0764 10.227 10.2822 10.5605C10.4997 10.9128 10.9611 11.022 11.3135 10.8047C11.666 10.5872 11.7762 10.125 11.5586 9.77246L11.5273 9.72363C11.3675 9.46413 11.2362 9.25055 11.0693 9.07031C10.6971 8.66803 10.2032 8.39694 9.66406 8.29492C9.42297 8.24932 9.17091 8.24983 8.8584 8.25H6Z" fill="#1C274C"/>
</svg>
