<svg width="24" height="24" viewBox="0 0 24 24" fill="none" xmlns="http://www.w3.org/2000/svg">
<path d="M3.53873 4.30676C4.39884 4.17055 5.42979 4.28607 6.5358 4.57825C8.75828 5.16541 11.5026 6.52392 14.2653 8.48645C17.0311 10.4512 19.3455 12.6881 20.8493 14.7345C21.3468 15.4116 21.7641 16.08 22.0798 16.7208C22.1806 16.9256 22.272 17.1277 22.3512 17.3263C22.398 17.4433 22.4403 17.5594 22.4792 17.674C22.7853 18.5761 22.88 19.5091 22.5085 20.3009C22.2362 20.8812 21.7813 21.2565 21.237 21.4796C21.0176 21.5703 20.7837 21.6364 20.5417 21.6798C20.3358 21.7167 20.1197 21.7382 19.8952 21.7462C19.8604 21.7475 19.8255 21.7485 19.7907 21.7491C19.6448 21.7516 19.4944 21.7481 19.3405 21.7394C19.0402 21.7226 18.7252 21.6851 18.3981 21.6281C17.5736 21.484 16.6707 21.2164 15.7262 20.8468C15.3408 20.6958 15.1506 20.2608 15.3014 19.8751C15.4523 19.4894 15.8873 19.2993 16.2731 19.4503C16.9024 19.6965 17.4876 19.8842 18.0202 20.0157L18.028 20.0177C18.9812 20.2524 19.7387 20.2995 20.277 20.2032C20.429 20.1759 20.5577 20.1385 20.6657 20.0939C20.9287 19.9834 21.0736 19.8268 21.1501 19.6642C21.2378 19.4773 21.2781 19.2057 21.2272 18.837C21.1998 18.6394 21.1464 18.4132 21.0592 18.1564C21.0459 18.1172 21.0318 18.0772 21.0173 18.0372C20.8989 17.7141 20.7359 17.3644 20.5299 16.9933L20.5192 16.9738C20.4896 16.9207 20.4588 16.8675 20.4274 16.8136C20.1528 16.3414 19.8116 15.8372 19.4059 15.3107L19.402 15.3048C18.0054 13.4936 15.9111 11.4966 13.3962 9.71008C10.7304 7.81647 8.15058 6.5562 6.15299 6.02844C6.09558 6.01328 6.03818 5.99934 5.98209 5.98547L5.97233 5.98254C5.01876 5.74772 4.2607 5.70061 3.72233 5.797C3.507 5.83557 3.33961 5.89333 3.20963 5.96497C3.02466 6.06707 2.91554 6.19712 2.85026 6.33606C2.73779 6.57574 2.70825 6.94403 2.82584 7.44739C2.86273 7.60461 2.91466 7.77634 2.98307 7.96301C3.05894 8.17005 3.15271 8.3876 3.26432 8.61438C3.28028 8.64678 3.29634 8.67998 3.31315 8.71301L3.34245 8.76965C3.37652 8.83544 3.41207 8.90185 3.44889 8.96887C3.74216 9.50274 4.1256 10.0812 4.5944 10.6896L4.59733 10.6935C5.10113 11.3469 5.69917 12.0291 6.38053 12.7208C6.53516 12.8778 6.67874 13.0224 6.81217 13.1554L6.83659 12.8478C6.937 11.5617 6.98739 10.9178 7.4235 10.6886C7.85951 10.4599 8.39273 10.7963 9.45866 11.4689L9.73502 11.6427C10.038 11.8339 10.1895 11.9303 10.3639 11.9542C10.5383 11.978 10.7166 11.9273 11.0719 11.8263L11.3952 11.7345C12.6464 11.3789 13.2723 11.2006 13.6071 11.5353C13.9419 11.8701 13.7634 12.496 13.4079 13.7472L13.3161 14.0704C13.215 14.4257 13.1644 14.604 13.1881 14.7784C13.212 14.9529 13.3085 15.1045 13.4997 15.4073L13.6735 15.6837C14.3464 16.7501 14.683 17.2838 14.4538 17.7198C14.2245 18.1557 13.5811 18.2054 12.2956 18.3058L11.9626 18.3322C11.5971 18.3607 11.4143 18.3751 11.2546 18.4591C11.0948 18.543 10.9763 18.6874 10.7389 18.9757L10.5221 19.2374C9.68676 20.252 9.26906 20.7598 8.79264 20.6945C8.31653 20.629 8.09699 20.0344 7.65788 18.8458L7.54362 18.5382C7.41877 18.2003 7.35668 18.0309 7.23405 17.9083C7.11142 17.7857 6.94204 17.7235 6.60416 17.5988L6.29655 17.4845C5.10797 17.0454 4.51336 16.8259 4.44791 16.3497C4.38268 15.8733 4.89035 15.4555 5.90495 14.6202L6.04362 14.505C5.8285 14.294 5.58522 14.0517 5.3112 13.7736C4.47944 12.9292 3.74778 12.08 3.14323 11.256C3.02091 11.0893 2.90431 10.9233 2.79264 10.7589C2.67365 10.5838 2.56015 10.4104 2.45377 10.2384C2.39836 10.1488 2.34451 10.0595 2.29264 9.97083C2.19168 9.79838 2.09755 9.62734 2.01041 9.45911C1.97745 9.39546 1.94513 9.33167 1.91373 9.2677C1.78203 8.99936 1.66802 8.73552 1.57389 8.47864C1.4909 8.25213 1.42054 8.0231 1.36686 7.79504C1.19089 7.04899 1.19712 6.32763 1.49186 5.69934C1.73982 5.17091 2.14438 4.80802 2.63053 4.57825C2.9108 4.44582 3.2187 4.35745 3.53873 4.30676ZM18.613 2.53821C18.8679 2.21204 19.3393 2.15449 19.6657 2.4093C19.9918 2.66428 20.0494 3.13569 19.7946 3.46204L19.6833 3.60461C19.8071 4.26246 20.1093 4.87107 20.5544 5.3595C20.8333 5.6656 20.8115 6.14006 20.5055 6.41907C20.1995 6.69795 19.725 6.67605 19.446 6.37024C18.9956 5.87603 18.6496 5.29797 18.4245 4.67297C18.3202 4.73529 18.2146 4.79214 18.1051 4.84387C17.9854 4.90043 17.8642 4.94952 17.7389 4.99329C18.0638 5.58447 18.2707 6.24022 18.3434 6.92102C18.387 7.33269 18.0882 7.70231 17.6764 7.74622C17.2647 7.78996 16.8951 7.491 16.8512 7.07922C16.7803 6.41447 16.5292 5.78778 16.1325 5.26868L15.9753 5.26379C15.5613 5.24986 15.2367 4.90238 15.2506 4.4884C15.2648 4.0746 15.6112 3.75091 16.0251 3.76477L16.4323 3.77844C16.9584 3.67458 17.2304 3.59803 17.4645 3.48743C17.6995 3.37635 17.9339 3.21284 18.3551 2.86829L18.613 2.53821Z" fill="#1C274C"/>
</svg>
