<svg width="24" height="24" viewBox="0 0 24 24" fill="none" xmlns="http://www.w3.org/2000/svg">
<path d="M12 8C14.8 8 16.2 8.00015 17.2695 8.54492C18.2103 9.02428 18.9758 9.78971 19.4551 10.7305C19.9999 11.8 20 13.2001 20 16V21.25H22C22.4142 21.25 22.75 21.5858 22.75 22C22.75 22.4142 22.4142 22.75 22 22.75H2C1.58579 22.75 1.25 22.4142 1.25 22C1.25 21.5858 1.58579 21.25 2 21.25H4V16C4 13.2 4.00015 11.8 4.54492 10.7305C5.02428 9.78971 5.78966 9.02428 6.73047 8.54492C7.79998 8.00013 9.20005 8 12 8ZM12 16C11.1716 16 10.5 16.6716 10.5 17.5C10.5 18.0551 10.8017 18.5395 11.25 18.7988V21.25H12.75V18.7988C13.1983 18.5395 13.5 18.0551 13.5 17.5C13.5 16.6716 12.8284 16 12 16ZM15 10.0645C14.5859 10.0645 14.2502 10.4005 14.25 10.8145C14.25 11.2288 14.5858 11.5645 15 11.5645C15.842 11.5645 16.4636 12.2034 16.4355 12.9727C16.4205 13.3864 16.7436 13.7337 17.1572 13.749C17.5712 13.7641 17.9195 13.4412 17.9346 13.0273C17.9962 11.3367 16.618 10.0645 15 10.0645ZM2.46973 4.46973C2.76262 4.17684 3.23738 4.17684 3.53027 4.46973L5.03027 5.96973C5.32316 6.26262 5.32316 6.73738 5.03027 7.03027C4.73738 7.32316 4.26262 7.32316 3.96973 7.03027L2.46973 5.53027C2.17684 5.23738 2.17684 4.76262 2.46973 4.46973ZM20.4697 4.46973C20.7626 4.17684 21.2374 4.17684 21.5303 4.46973C21.8232 4.76261 21.8232 5.23739 21.5303 5.53027L20.0303 7.03027C19.7374 7.32316 19.2626 7.32316 18.9697 7.03027C18.6768 6.73739 18.6769 6.26261 18.9697 5.96973L20.4697 4.46973ZM12 1.25C12.4142 1.25 12.75 1.58579 12.75 2V5C12.75 5.41421 12.4142 5.75 12 5.75C11.5858 5.75 11.25 5.41421 11.25 5V2C11.25 1.58579 11.5858 1.25 12 1.25Z" fill="#1C274C"/>
</svg>
