<svg width="24" height="24" viewBox="0 0 24 24" fill="none" xmlns="http://www.w3.org/2000/svg">
<path d="M12 2C17.5228 2 22 6.47715 22 12C22 17.5228 17.5228 22 12 22C6.47715 22 2 17.5228 2 12C2 6.47715 6.47715 2 12 2ZM14.5654 6.50684C14.3598 6.27129 14.029 6.18808 13.7363 6.29785C13.4437 6.40773 13.25 6.6875 13.25 7V17C13.25 17.4142 13.5858 17.75 14 17.75C14.4142 17.75 14.75 17.4142 14.75 17V9L16.4346 10.9307C16.7069 11.2426 17.1812 11.2751 17.4932 11.0029C17.8052 10.7306 17.8376 10.2564 17.5654 9.94434L14.5654 6.50684ZM10 6.25C9.58579 6.25 9.25 6.58579 9.25 7V15L7.56543 13.0693C7.29311 12.7574 6.81892 12.7249 6.50684 12.9971C6.19482 13.2694 6.1624 13.7436 6.43457 14.0557L9.43457 17.4932C9.64014 17.7287 9.97098 17.8119 10.2637 17.7021C10.5563 17.5924 10.75 17.3125 10.75 17V7C10.75 6.58579 10.4142 6.25 10 6.25Z" fill="#1C274C"/>
</svg>
