<svg width="24" height="24" viewBox="0 0 24 24" fill="none" xmlns="http://www.w3.org/2000/svg">
<path d="M12 1.25C17.9371 1.25 22.75 6.06294 22.75 12C22.75 17.9371 17.9371 22.75 12 22.75C6.06294 22.75 1.25 17.9371 1.25 12C1.25 6.06294 6.06294 1.25 12 1.25ZM12 2.75C6.93735 2.75 2.82462 6.81714 2.75098 11.8623L3.75195 10.9678C4.66322 10.1705 6.03639 10.2161 6.89258 11.0723L11.1826 15.3613C11.8697 16.0486 12.9509 16.1427 13.7461 15.584L14.0449 15.374C15.189 14.5702 16.7369 14.6634 17.7764 15.5986L19.6094 17.2607C20.644 15.7672 21.25 13.9544 21.25 12C21.25 6.89137 17.1086 2.75 12 2.75ZM15 7C16.1046 7 17 7.89543 17 9C17 10.1046 16.1046 11 15 11C13.8954 11 13 10.1046 13 9C13 7.89543 13.8954 7 15 7Z" fill="#1C274C"/>
</svg>
