<svg width="24" height="24" viewBox="0 0 24 24" fill="none" xmlns="http://www.w3.org/2000/svg">
<path d="M12 2C13.9466 2 15.7633 2.55645 17.2998 3.51855L14.248 6.56934C14.2024 5.36698 13.2135 4.40625 12 4.40625C10.7574 4.40625 9.75 5.41361 9.75 6.65625V12C9.75 13.2426 10.7574 14.25 12 14.25H17.3438C18.5863 14.25 19.5938 13.2426 19.5938 12C19.5938 10.7865 18.6331 9.79764 17.4307 9.75195L20.4814 6.7002C21.4435 8.23672 22 10.0534 22 12C22 17.5228 17.5228 22 12 22C6.47715 22 2 17.5228 2 12C2 6.47715 6.47715 2 12 2ZM20.4697 2.46973C20.7626 2.17684 21.2374 2.17684 21.5303 2.46973C21.8232 2.76261 21.8232 3.23739 21.5303 3.53027L13.8105 11.25H17.3438C17.758 11.25 18.0938 11.5858 18.0938 12C18.0937 12.4142 17.7579 12.75 17.3438 12.75H12C11.5858 12.75 11.25 12.4142 11.25 12V6.65625C11.25 6.24204 11.5858 5.90625 12 5.90625C12.4142 5.90625 12.75 6.24204 12.75 6.65625V10.1895L20.4697 2.46973Z" fill="#1C274C"/>
</svg>
