<svg width="24" height="24" viewBox="0 0 24 24" fill="none" xmlns="http://www.w3.org/2000/svg">
<path d="M15.0146 16.75C14.9997 16.9893 15 17.2798 15 17.6572V20C15 20.9428 14.9999 21.4141 14.707 21.707C14.4141 21.9999 13.9428 22 13 22H11C10.0573 22 9.58586 21.9999 9.29297 21.707C9.00011 21.4141 9 20.9428 9 20V17.6572C9 17.2798 9.00032 16.9893 8.98535 16.75H15.0146ZM12 18.25C11.5858 18.25 11.25 18.5858 11.25 19V20C11.25 20.4142 11.5858 20.75 12 20.75C12.4142 20.75 12.75 20.4142 12.75 20V19C12.75 18.5858 12.4142 18.25 12 18.25ZM16.1719 14.8281C16.0097 14.9903 15.87 15.1301 15.75 15.2549V15.25H8.25V15.2549C8.12999 15.1301 7.99024 14.9902 7.82812 14.8281L4.75 11.75H19.25L16.1719 14.8281ZM18 8C18.9428 8 19.4141 8.00008 19.707 8.29297C19.9999 8.58587 20 9.0572 20 10V10.25H4V10C4 9.05719 4.00008 8.58587 4.29297 8.29297C4.58587 8.00008 5.05719 8 6 8H18ZM5.46973 2.46973C5.76262 2.17684 6.23738 2.17684 6.53027 2.46973L8.53027 4.46973C8.82316 4.76262 8.82316 5.23738 8.53027 5.53027C8.23738 5.82316 7.76262 5.82316 7.46973 5.53027L5.46973 3.53027C5.17684 3.23738 5.17684 2.76262 5.46973 2.46973ZM12 1.25C12.4142 1.25 12.75 1.58579 12.75 2V5C12.75 5.41421 12.4142 5.75 12 5.75C11.5858 5.75 11.25 5.41421 11.25 5V2C11.25 1.58579 11.5858 1.25 12 1.25ZM17.4697 2.46973C17.7626 2.17684 18.2374 2.17684 18.5303 2.46973C18.8231 2.76261 18.8231 3.23739 18.5303 3.53027L16.5303 5.53027C16.2374 5.82316 15.7626 5.82316 15.4697 5.53027C15.1768 5.23738 15.1768 4.76262 15.4697 4.46973L17.4697 2.46973Z" fill="#48465C"/>
</svg>
