<svg width="24" height="24" viewBox="0 0 24 24" fill="none" xmlns="http://www.w3.org/2000/svg">
<path d="M12 3.25C17.3848 3.25 21.75 7.61522 21.75 13C21.75 18.3848 17.3848 22.75 12 22.75C6.61522 22.75 2.25 18.3848 2.25 13C2.25 7.61522 6.61522 3.25 12 3.25ZM12 4.75C7.44365 4.75 3.75 8.44365 3.75 13C3.75 17.5563 7.44365 21.25 12 21.25C16.5563 21.25 20.25 17.5563 20.25 13C20.25 8.44365 16.5563 4.75 12 4.75ZM10.4756 8.25391C10.7504 8.23351 11.0059 8.29212 11.2285 8.37207C11.6293 8.51604 12.0876 8.79494 12.5723 9.08984C12.5919 9.10175 12.6121 9.11402 12.6318 9.12598C12.919 9.30055 13.2022 9.4822 13.457 9.66113C13.7471 9.86486 14.0564 10.1049 14.3613 10.3535C14.3767 10.3661 14.3929 10.3791 14.4082 10.3916C14.9058 10.7976 15.3534 11.1624 15.666 11.5264C16.0205 11.9393 16.25 12.4034 16.25 13C16.25 13.5966 16.0205 14.0607 15.666 14.4736C15.3534 14.8376 14.9059 15.2024 14.4082 15.6084L14.3613 15.6465C14.0564 15.8951 13.7471 16.1351 13.457 16.3389C13.2022 16.5177 12.919 16.6995 12.6318 16.874C12.6121 16.886 12.5919 16.8983 12.5723 16.9102C12.0876 17.2051 11.6293 17.484 11.2285 17.6279C11.0059 17.7078 10.7504 17.7665 10.4756 17.7461C10.1866 17.7246 9.92766 17.6195 9.70215 17.4502C9.24308 17.1056 9.05905 16.6065 8.96289 16.1104C8.87129 15.6376 8.83602 15.0289 8.79492 14.3174L8.79199 14.2656C8.76677 13.8294 8.75 13.3949 8.75 13C8.75 12.6051 8.76677 12.1706 8.79199 11.7344L8.79492 11.6826C8.83602 10.9711 8.87129 10.3624 8.96289 9.88965C9.05905 9.39344 9.24309 8.89442 9.70215 8.5498C9.92766 8.38051 10.1866 8.27539 10.4756 8.25391ZM10.6006 9.75098C10.576 9.76978 10.5011 9.83657 10.4355 10.1748C10.3654 10.5366 10.3341 11.0436 10.2891 11.8213C10.2649 12.24 10.25 12.6436 10.25 13C10.25 13.3564 10.2649 13.76 10.2891 14.1787C10.3341 14.9564 10.3654 15.4634 10.4355 15.8252C10.5011 16.1635 10.576 16.2302 10.6006 16.249C10.6194 16.2466 10.6576 16.2388 10.7217 16.2158C10.9611 16.1298 11.2867 15.9368 11.8525 15.5928C12.1216 15.4291 12.3752 15.2655 12.5947 15.1113C12.8453 14.9354 13.1247 14.7196 13.4131 14.4844C13.9718 14.0287 14.3131 13.7467 14.5283 13.4961C14.7109 13.2832 14.75 13.1531 14.75 13C14.75 12.8469 14.7109 12.7168 14.5283 12.5039C14.3131 12.2533 13.9718 11.9713 13.4131 11.5156C13.1247 11.2804 12.8453 11.0646 12.5947 10.8887C12.3752 10.7345 12.1216 10.5709 11.8525 10.4072C11.2867 10.0632 10.9611 9.87017 10.7217 9.78418C10.6576 9.76118 10.6194 9.75341 10.6006 9.75098ZM14 1.25C14.4142 1.25 14.75 1.58579 14.75 2C14.75 2.41421 14.4142 2.75 14 2.75H10C9.58579 2.75 9.25 2.41421 9.25 2C9.25 1.58579 9.58579 1.25 10 1.25H14Z" fill="#1C274C"/>
</svg>
