<svg width="24" height="24" viewBox="0 0 24 24" fill="none" xmlns="http://www.w3.org/2000/svg">
<path d="M9.04498 11.3208C9.36683 11.5715 9.72183 11.7166 10.0059 11.8081C10.0285 11.8154 10.0519 11.8225 10.0752 11.8296C10.0505 11.8526 10.0256 11.8757 10.001 11.8989C9.00603 12.8363 8.09887 14.085 7.33599 15.3657C6.57049 16.6509 5.93227 17.9994 5.48345 19.1616C5.259 19.7429 5.07919 20.2855 4.95415 20.7563C4.83269 21.2138 4.75015 21.6497 4.75005 22.0005H3.71685C2.59086 22.0005 1.70792 21.0814 2.09087 20.0317C3.27126 16.7964 5.99106 13.2701 9.04498 11.3208ZM12.3321 12.2681C11.4096 13.5554 10.6938 15.1779 10.1768 16.7085C9.47237 18.7945 9.08319 20.8765 9.08306 22.0005H6.25005C6.25016 21.8463 6.29214 21.5601 6.40337 21.1411C6.51124 20.7349 6.673 20.2452 6.88287 19.7017C7.30273 18.6145 7.90473 17.3425 8.62505 16.1333C9.34823 14.9192 10.1725 13.798 11.0294 12.9907C11.3701 12.6697 11.7019 12.4123 12.0206 12.2173L12.3321 12.2681ZM13.2979 13.5132C13.5193 13.8588 13.7401 14.1799 13.959 14.437C14.1489 14.66 14.4072 14.9185 14.7413 15.1147C14.4038 16.3415 14.1083 18.0663 13.9795 19.98C13.9046 21.0937 12.998 22.0003 11.8721 22.0005H10.5831C10.5833 21.104 10.9199 19.1961 11.5977 17.189C12.0468 15.8589 12.6222 14.5569 13.2979 13.5132ZM16.9454 2.84717C18.3538 2.14975 19.0582 1.80126 19.5342 2.11768C20.0101 2.43433 19.943 3.20676 19.8077 4.75146L19.7725 5.15088C19.734 5.5897 19.7146 5.80942 19.7833 6.0083C19.852 6.20725 20.0013 6.36351 20.2989 6.67529L20.5694 6.9585C21.6164 8.05545 22.1401 8.60453 21.9678 9.1665C21.7952 9.7286 21.0403 9.93267 19.5313 10.3394L19.1407 10.4438C18.7124 10.5593 18.4981 10.6175 18.3272 10.7515C18.1563 10.8857 18.0475 11.0813 17.8311 11.4722L17.6348 11.8286C16.8737 13.2039 16.4926 13.8914 15.9102 13.9224C15.3276 13.9531 14.9282 13.3065 14.1309 12.0132L13.9249 11.6782C13.6985 11.311 13.5853 11.1272 13.4112 11.0112C13.2369 10.8953 13.021 10.8597 12.5899 10.7896L12.1963 10.7261C10.6789 10.4791 9.91992 10.3551 9.73248 9.81201C9.54536 9.26904 10.0536 8.66606 11.0694 7.46045L11.3321 7.14795C11.6209 6.80523 11.766 6.63413 11.8292 6.42822C11.8924 6.22233 11.8667 6.00508 11.8165 5.5708L11.7715 5.17529C11.595 3.64745 11.5064 2.88357 11.9727 2.51709C12.4394 2.15073 13.1522 2.42428 14.5772 2.97217L14.9463 3.11377C15.3513 3.26949 15.5542 3.34769 15.7676 3.33643C15.9809 3.32511 16.181 3.22595 16.5811 3.02783L16.9454 2.84717Z" fill="#1C274C"/>
</svg>
