<svg width="24" height="24" viewBox="0 0 24 24" fill="none" xmlns="http://www.w3.org/2000/svg">
<path d="M12.0449 1.25C13.8815 1.24999 15.3218 1.25028 16.4639 1.37402C17.6293 1.50032 18.5736 1.76287 19.3799 2.34863C19.8678 2.70318 20.2969 3.13218 20.6514 3.62012C21.2372 4.42635 21.4997 5.37077 21.626 6.53613C21.7497 7.67826 21.75 9.11858 21.75 10.9551V13.0449C21.75 14.8814 21.7497 16.3218 21.626 17.4639C21.4997 18.6293 21.2372 19.5736 20.6514 20.3799C20.2969 20.8678 19.8678 21.2969 19.3799 21.6514C18.5736 22.2372 17.6293 22.4997 16.4639 22.626C15.3218 22.7497 13.8814 22.75 12.0449 22.75H11.9551C10.1186 22.75 8.67826 22.7497 7.53613 22.626C6.37077 22.4997 5.42635 22.2372 4.62012 21.6514C4.13218 21.2969 3.70318 20.8678 3.34863 20.3799C2.76287 19.5736 2.50032 18.6293 2.37402 17.4639C2.25028 16.3218 2.24999 14.8815 2.25 13.0449V10.9551C2.24999 9.11849 2.25028 7.67826 2.37402 6.53613C2.50032 5.37077 2.76287 4.42635 3.34863 3.62012C3.70317 3.1322 4.1322 2.70317 4.62012 2.34863C5.42635 1.76287 6.37077 1.50032 7.53613 1.37402C8.67826 1.25028 10.1185 1.24999 11.9551 1.25H12.0449ZM3.75 11V13C3.75 14.8915 3.75129 16.2498 3.86523 17.3018C3.97768 18.3396 4.19248 18.9901 4.56152 19.498C4.82366 19.8588 5.14115 20.1764 5.50195 20.4385C6.00995 20.8075 6.6604 21.0223 7.69824 21.1348C8.75016 21.2487 10.1085 21.25 12 21.25C13.8915 21.25 15.2498 21.2487 16.3018 21.1348C17.3396 21.0223 17.9901 20.8075 18.498 20.4385C18.8588 20.1764 19.1764 19.8588 19.4385 19.498C19.8075 18.9901 20.0223 18.3396 20.1348 17.3018C20.2487 16.2498 20.25 14.8915 20.25 13V11C20.25 10.5548 20.2495 10.1391 20.248 9.75H17.6465C17.32 10.9043 16.2588 11.75 15 11.75H9C7.74122 11.75 6.67998 10.9043 6.35352 9.75H3.75195C3.75038 10.1391 3.75 10.5548 3.75 11ZM9 7.75C8.30964 7.75 7.75 8.30964 7.75 9C7.75 9.69036 8.30964 10.25 9 10.25H15C15.6904 10.25 16.25 9.69036 16.25 9C16.25 8.30964 15.6904 7.75 15 7.75H9ZM12 2.75C10.1085 2.75 8.75016 2.75128 7.69824 2.86523C6.66039 2.97768 6.00995 3.19248 5.50195 3.56152C5.14115 3.82366 4.82366 4.14115 4.56152 4.50195C4.19248 5.00995 3.97768 5.66039 3.86523 6.69824C3.81605 7.15232 3.78759 7.66348 3.77148 8.25H6.35352C6.67998 7.09575 7.74122 6.25 9 6.25H15C16.2588 6.25 17.32 7.09575 17.6465 8.25H20.2285C20.2124 7.66348 20.184 7.15232 20.1348 6.69824C20.0223 5.6604 19.8075 5.00995 19.4385 4.50195C19.1764 4.14115 18.8588 3.82366 18.498 3.56152C17.9901 3.19248 17.3396 2.97768 16.3018 2.86523C15.2498 2.75129 13.8915 2.75 12 2.75Z" fill="#48465C"/>
</svg>
