<svg width="24" height="24" viewBox="0 0 24 24" fill="none" xmlns="http://www.w3.org/2000/svg">
<path d="M12.0576 1.25C14.3657 1.24999 16.1745 1.24974 17.5859 1.43945C19.0306 1.63369 20.1706 2.03977 21.0654 2.93457C21.9602 3.82938 22.3662 4.96932 22.5605 6.41406C22.7502 7.82544 22.75 9.63432 22.75 11.9424V12.0576C22.75 14.3657 22.7502 16.1745 22.5605 17.5859C22.3662 19.0306 21.9602 20.1706 21.0654 21.0654C20.1706 21.9602 19.0306 22.3662 17.5859 22.5605C16.1745 22.7502 14.3657 22.75 12.0576 22.75H11.9424C9.63433 22.75 7.82545 22.7502 6.41406 22.5605C4.96933 22.3662 3.82938 21.9602 2.93457 21.0654C2.03977 20.1706 1.63369 19.0306 1.43945 17.5859C1.24974 16.1745 1.24999 14.3657 1.25 12.0576V11.9424C1.24999 9.63433 1.24974 7.82544 1.43945 6.41406C1.63369 4.96932 2.03976 3.82938 2.93457 2.93457C3.82938 2.03976 4.96933 1.63369 6.41406 1.43945C7.82545 1.24974 9.63433 1.24999 11.9424 1.25H12.0576ZM12 2.75C9.62177 2.75 7.91326 2.75198 6.61328 2.92676C5.33508 3.09865 4.56472 3.42551 3.99512 3.99512C3.42551 4.56472 3.09865 5.33508 2.92676 6.61328C2.75198 7.91326 2.75 9.62178 2.75 12C2.75 14.3782 2.75198 16.0867 2.92676 17.3867C3.09865 18.6649 3.42551 19.4352 3.99512 20.0049C4.56472 20.5745 5.33508 20.9014 6.61328 21.0732C7.91326 21.248 9.62177 21.25 12 21.25C14.3782 21.25 16.0867 21.248 17.3867 21.0732C18.6649 20.9014 19.4352 20.5745 20.0049 20.0049C20.5745 19.4352 20.9014 18.6649 21.0732 17.3867C21.248 16.0867 21.25 14.3782 21.25 12C21.25 9.62178 21.248 7.91326 21.0732 6.61328C20.9014 5.33508 20.5745 4.56472 20.0049 3.99512C19.4352 3.42551 18.6649 3.09865 17.3867 2.92676C16.0867 2.75198 14.3782 2.75 12 2.75ZM15.9775 5.25C16.3917 5.25002 16.7275 5.5858 16.7275 6V8.71484C16.7274 9.12889 16.3916 9.46482 15.9775 9.46484H13.3262C12.9121 9.46484 12.5763 9.12891 12.5762 8.71484C12.5762 8.30062 12.912 7.96484 13.3262 7.96484H13.8848C12.2984 7.15825 10.324 7.43178 9.00098 8.78613C7.33304 10.4936 7.33308 13.2691 9.00098 14.9766C10.6593 16.6743 13.3407 16.6743 14.999 14.9766C15.9667 13.986 16.3759 12.6337 16.2168 11.333C16.1665 10.9219 16.459 10.5474 16.8701 10.4971C17.2813 10.4469 17.6548 10.7403 17.7051 11.1514C17.9162 12.8783 17.3753 14.6904 16.0723 16.0244C13.8255 18.3245 10.1746 18.3245 7.92773 16.0244C5.69089 13.7342 5.69081 10.0285 7.92773 7.73828C9.9109 5.70809 12.9877 5.4698 15.2275 7.02344V6C15.2275 5.58579 15.5633 5.25 15.9775 5.25Z" fill="#1C274C"/>
</svg>
