<svg width="24" height="24" viewBox="0 0 24 24" fill="none" xmlns="http://www.w3.org/2000/svg">
<path d="M19.7864 10.4668C20.0786 10.178 20.5489 10.178 20.8411 10.4668L22.5276 12.1328C22.8222 12.4239 22.8246 12.8997 22.5334 13.1943C22.2423 13.4887 21.7675 13.4912 21.4729 13.2002L21.0627 12.7949C20.9933 17.7604 16.9013 21.75 11.8821 21.75C8.56357 21.7498 5.65379 20.0065 4.04126 17.3936C3.82392 17.0411 3.93298 16.5788 4.2854 16.3613C4.63788 16.1438 5.10011 16.254 5.31763 16.6064C6.66549 18.7904 9.09985 20.2498 11.8821 20.25C16.0883 20.25 19.4924 16.9171 19.5627 12.7969L19.1545 13.2002C18.86 13.4912 18.3852 13.4887 18.094 13.1943C17.8028 12.8997 17.8053 12.4239 18.0999 12.1328L19.7864 10.4668ZM12.0793 2.25C15.3876 2.25014 18.2875 3.99459 19.8938 6.60742C20.1104 6.96012 20.0001 7.42171 19.6477 7.63867C19.2948 7.8556 18.8324 7.74544 18.6155 7.39258C17.2726 5.20847 14.8486 3.75014 12.0793 3.75C7.89495 3.75 4.50363 7.07774 4.43091 11.1982L4.8313 10.8008C5.12523 10.5092 5.60008 10.5109 5.89185 10.8047C6.18351 11.0986 6.18174 11.5735 5.88794 11.8652L4.20825 13.5322C3.91585 13.8223 3.44402 13.8223 3.15161 13.5322L1.47192 11.8652C1.17806 11.5735 1.17634 11.0986 1.46802 10.8047C1.75979 10.5111 2.23466 10.5092 2.52856 10.8008L2.93091 11.2002C3.00263 6.23962 7.07667 2.25 12.0793 2.25Z" fill="#48465C"/>
</svg>
