<svg width="24" height="24" viewBox="0 0 24 24" fill="none" xmlns="http://www.w3.org/2000/svg">
<path fill-rule="evenodd" clip-rule="evenodd" d="M19.7862 10.4668C20.0784 10.178 20.5487 10.178 20.8409 10.4668L22.5274 12.1328C22.822 12.4239 22.8245 12.8997 22.5333 13.1943C22.2421 13.4887 21.7673 13.4912 21.4728 13.2002L21.0626 12.7949C20.9932 17.7604 16.9011 21.75 11.8819 21.75C8.56342 21.7498 5.65365 20.0065 4.04112 17.3936C3.82378 17.0411 3.93284 16.5788 4.28526 16.3613C4.63774 16.1438 5.09996 16.254 5.31748 16.6064C6.66534 18.7904 9.09971 20.2498 11.8819 20.25C16.0881 20.25 19.4923 16.9171 19.5626 12.7969L19.1544 13.2002C18.8599 13.4912 18.385 13.4887 18.0939 13.1943C17.8027 12.8997 17.8051 12.4239 18.0997 12.1328L19.7862 10.4668ZM12.0792 2.25C15.3874 2.25014 18.2873 3.99459 19.8937 6.60742C20.1102 6.96012 20 7.42171 19.6476 7.63867C19.2947 7.8556 18.8322 7.74544 18.6153 7.39258C17.2725 5.20847 14.8484 3.75014 12.0792 3.75C7.8948 3.75 4.50349 7.07774 4.43077 11.1982L4.83116 10.8008C5.12509 10.5092 5.59994 10.5109 5.8917 10.8047C6.18336 11.0986 6.1816 11.5735 5.8878 11.8652L4.20811 13.5322C3.91571 13.8223 3.44388 13.8223 3.15147 13.5322L1.47178 11.8652C1.17792 11.5735 1.17619 11.0986 1.46788 10.8047C1.75965 10.5111 2.23451 10.5092 2.52842 10.8008L2.93077 11.2002C3.00249 6.23962 7.07653 2.25 12.0792 2.25Z" fill="#1C274C"/>
</svg>
