<svg width="24" height="24" viewBox="0 0 24 24" fill="none" xmlns="http://www.w3.org/2000/svg">
<path d="M12 2C16.714 2 19.0708 2.00037 20.5352 3.46484C21.9996 4.9293 22 7.286 22 12C22 16.7141 21.9997 19.0708 20.5352 20.5352C19.0708 21.9997 16.714 22 12 22C7.28597 22 4.9293 21.9996 3.46484 20.5352C2.00037 19.0708 2 16.714 2 12C2 7.28595 2.00037 4.9293 3.46484 3.46484C4.9293 2.00037 7.28595 2 12 2ZM9.30078 6.91406C9.01981 6.60989 8.5455 6.59118 8.24121 6.87207L5.99121 8.94824C5.8374 9.09022 5.75 9.29068 5.75 9.5C5.75006 9.7092 5.83752 9.90884 5.99121 10.0508L8.24121 12.1279C8.54557 12.4089 9.01984 12.3894 9.30078 12.085C9.58166 11.7806 9.56313 11.3063 9.25879 11.0254L8.41797 10.25H14.0381C15.5355 10.25 16.7498 11.4636 16.75 12.9609C16.75 14.4585 15.5356 15.6729 14.0381 15.6729H9.5C9.08581 15.6729 8.75003 16.0086 8.75 16.4229C8.75 16.8371 9.08579 17.1729 9.5 17.1729H14.0381C16.364 17.1729 18.25 15.2869 18.25 12.9609C18.2498 10.6351 16.3639 8.75 14.0381 8.75H8.41797L9.25879 7.97363C9.56297 7.69266 9.58167 7.21837 9.30078 6.91406Z" fill="#1C274C"/>
</svg>
