<svg width="24" height="24" viewBox="0 0 24 24" fill="none" xmlns="http://www.w3.org/2000/svg">
<path d="M12 1.25C12.3816 1.25 12.7891 1.34666 13.2441 1.4873C13.7011 1.62856 14.2753 1.8371 15.0049 2.10254L15.0254 2.11035C16.0557 2.48517 17.1644 2.80649 18.0684 2.88867C18.1021 2.89174 18.1355 2.8955 18.168 2.89844C18.6174 2.93917 18.9302 2.96753 19.1113 3.00879C19.6782 3.13812 20.1789 3.39382 20.5586 3.80957C20.9384 4.22538 21.1481 4.74697 21.2256 5.32324C21.2503 5.50713 21.2501 5.74833 21.25 6.07227V14.2686C22.0971 14.3899 22.753 15.1185 22.748 16.0049C22.742 17.0861 22.7163 17.9873 22.5811 18.7236C22.4419 19.4816 22.1764 20.1274 21.6514 20.6523C21.1311 21.1724 20.4943 21.436 19.75 21.5762V22C19.75 22.4142 19.4142 22.75 19 22.75C18.5858 22.75 18.25 22.4142 18.25 22V21.7246C17.6107 21.7504 16.881 21.75 16.0547 21.75H7.94531C7.11894 21.75 6.38925 21.7504 5.75 21.7246V22C5.75 22.4142 5.41421 22.75 5 22.75C4.58579 22.75 4.25 22.4142 4.25 22V21.5762C3.50567 21.436 2.86886 21.1724 2.34863 20.6523C1.8237 20.1274 1.55818 19.4816 1.41895 18.7236C1.28371 17.9873 1.25798 17.0861 1.25195 16.0049C1.24701 15.1185 1.90291 14.3899 2.75 14.2686V6.07227C2.7499 5.74832 2.74969 5.50713 2.77441 5.32324C2.85191 4.74697 3.06168 4.22539 3.44141 3.80957C3.82114 3.39383 4.32182 3.13812 4.88867 3.00879C5.06977 2.96752 5.38255 2.93917 5.83203 2.89844C5.86441 2.8955 5.89785 2.89174 5.93164 2.88867C6.83554 2.80649 7.94433 2.48517 8.97461 2.11035L8.99512 2.10254C9.72468 1.83711 10.2989 1.62857 10.7559 1.4873C11.2107 1.34667 11.6184 1.25 12 1.25ZM3 15.75C2.85991 15.75 2.75127 15.8634 2.75195 15.9961C2.75804 17.0896 2.78648 17.8649 2.89453 18.4531C2.99863 19.0197 3.16583 19.3475 3.40918 19.5908C3.68594 19.8676 4.07481 20.0488 4.80859 20.1475C5.56388 20.2489 6.5649 20.25 8 20.25H11.25V15.75H3ZM12.75 20.25H16C17.4354 20.25 18.437 20.249 19.1924 20.1475C19.9258 20.0487 20.3141 19.8676 20.5908 19.5908C20.8341 19.3475 21.0014 19.0197 21.1055 18.4531C21.2136 17.8649 21.2419 17.0896 21.248 15.9961C21.2487 15.8634 21.1401 15.75 21 15.75H12.75V20.25ZM9 17.25C9.41411 17.25 9.74984 17.5859 9.75 18C9.75 18.4142 9.41421 18.75 9 18.75H7C6.58579 18.75 6.25 18.4142 6.25 18C6.25016 17.5859 6.58589 17.25 7 17.25H9ZM17 17.25C17.4141 17.25 17.7498 17.5859 17.75 18C17.75 18.4142 17.4142 18.75 17 18.75H15C14.5858 18.75 14.25 18.4142 14.25 18C14.2502 17.5859 14.5859 17.25 15 17.25H17ZM12 2.75C11.8529 2.75 11.6227 2.78904 11.1992 2.91992C10.7816 3.049 10.2413 3.24521 9.4873 3.51953C8.42152 3.90727 7.16798 4.28277 6.06836 4.38281C5.79474 4.40768 5.59739 4.42608 5.45215 4.44141C5.38021 4.449 5.32586 4.45529 5.28516 4.46094C5.26508 4.46374 5.24937 4.46585 5.23828 4.46777L5.22656 4.4707C5.22367 4.47127 5.22168 4.4707 5.22168 4.4707C4.88768 4.54693 4.68165 4.67584 4.54883 4.82129C4.41601 4.96676 4.30639 5.18385 4.26074 5.52344C4.25147 5.59268 4.25 5.71989 4.25 6.1377V14.25H19.75V6.1377C19.75 5.7199 19.7485 5.59268 19.7393 5.52344C19.6937 5.18384 19.5839 4.96676 19.4512 4.82129C19.3183 4.67584 19.1124 4.54693 18.7783 4.4707C18.7783 4.4707 18.7763 4.47127 18.7734 4.4707L18.7617 4.46777C18.7506 4.46585 18.7349 4.46373 18.7148 4.46094C18.6742 4.45528 18.6197 4.449 18.5479 4.44141C18.4026 4.42608 18.2052 4.40768 17.9316 4.38281C16.832 4.28277 15.5785 3.90727 14.5127 3.51953C13.7587 3.24521 13.2183 3.04899 12.8008 2.91992C12.3772 2.78905 12.1471 2.75 12 2.75ZM13.9697 10.4697C14.2625 10.177 14.7374 10.177 15.0303 10.4697C15.3231 10.7626 15.323 11.2374 15.0303 11.5303L14.0303 12.5303C13.7374 12.8232 13.2625 12.8232 12.9697 12.5303C12.677 12.2374 12.6769 11.7626 12.9697 11.4697L13.9697 10.4697ZM12.9697 7.46973C13.2625 7.17703 13.7374 7.17704 14.0303 7.46973C14.3231 7.76257 14.323 8.23737 14.0303 8.53027L11.0303 11.5303C10.7374 11.8232 10.2626 11.8232 9.96973 11.5303C9.67702 11.2374 9.67689 10.7626 9.96973 10.4697L12.9697 7.46973ZM9.96973 6.46973C10.2625 6.17705 10.7374 6.17705 11.0303 6.46973C11.3231 6.76257 11.323 7.23737 11.0303 7.53027L10.0303 8.53027C9.73739 8.82317 9.26262 8.82317 8.96973 8.53027C8.677 8.23737 8.67688 7.76257 8.96973 7.46973L9.96973 6.46973Z" fill="#1C274C"/>
</svg>
