<svg width="24" height="24" viewBox="0 0 24 24" fill="none" xmlns="http://www.w3.org/2000/svg">
<path d="M12 2C17.5228 2 22 6.47715 22 12C22 17.5228 17.5228 22 12 22C6.47715 22 2 17.5228 2 12C2 6.47715 6.47715 2 12 2ZM14.4873 3.28418C14.2595 3.21263 14.0109 3.25421 13.8184 3.39551C13.6259 3.53681 13.5117 3.76125 13.5117 4V9.55859C12.974 9.19808 12.3269 8.98828 11.6309 8.98828C9.76366 8.98841 8.25 10.5019 8.25 12.3691C8.25013 14.2364 9.76374 15.7499 11.6309 15.75C13.4981 15.75 15.0116 14.2364 15.0117 12.3691V5.09375C17.0383 6.0373 18.606 7.80346 19.2842 9.96191C19.4083 10.3571 19.8295 10.5772 20.2246 10.4531C20.6198 10.329 20.84 9.90788 20.7158 9.5127C19.7856 6.55119 17.4488 4.21439 14.4873 3.28418ZM11.6309 10.4883C12.6698 10.4883 13.5117 11.3303 13.5117 12.3691C13.5115 13.4079 12.6696 14.25 11.6309 14.25C10.5922 14.2499 9.75019 13.4078 9.75 12.3691C9.75 11.3304 10.5921 10.4884 11.6309 10.4883Z" fill="#1C274C"/>
</svg>
