<svg width="24" height="24" viewBox="0 0 24 24" fill="none" xmlns="http://www.w3.org/2000/svg">
<path d="M2 16.25C4.07107 16.25 5.75 17.9289 5.75 20C5.75 20.4142 5.41421 20.75 5 20.75C4.58579 20.75 4.25 20.4142 4.25 20C4.25 18.7574 3.24264 17.75 2 17.75C1.58579 17.75 1.25 17.4142 1.25 17C1.25 16.5858 1.58579 16.25 2 16.25ZM2 13.25C5.72792 13.25 8.75 16.2721 8.75 20C8.75 20.4142 8.41421 20.75 8 20.75C7.58579 20.75 7.25 20.4142 7.25 20C7.25 17.1005 4.8995 14.75 2 14.75C1.58579 14.75 1.25 14.4142 1.25 14C1.25 13.5858 1.58579 13.25 2 13.25ZM2 10.25C7.38478 10.25 11.75 14.6152 11.75 20C11.75 20.4142 11.4142 20.75 11 20.75C10.5858 20.75 10.25 20.4142 10.25 20C10.25 15.4437 6.55635 11.75 2 11.75C1.58579 11.75 1.25 11.4142 1.25 11C1.25 10.5858 1.58579 10.25 2 10.25ZM14 4C17.7712 4 19.6575 4.0003 20.8291 5.17188C22.0004 6.34346 22 8.22907 22 12C22 15.7709 22.0004 17.6565 20.8291 18.8281C19.7298 19.9274 17.1206 19.9958 13.6875 20C13.308 20.0002 13 19.692 13 19.3125C13 13.6171 8.38294 9 2.6875 9C2.308 8.99978 1.99946 8.69204 2.00195 8.3125C2.00399 8.00328 2.00863 7.71973 2.01953 7.6084C2.20658 5.70929 3.70929 4.20658 5.6084 4.01953C5.8039 4.00028 6.03596 4 6.5 4H14Z" fill="#48465C"/>
</svg>
