<svg width="24" height="24" viewBox="0 0 24 24" fill="none" xmlns="http://www.w3.org/2000/svg">
<path d="M16.9014 1.25C17.9179 1.24956 18.6178 1.24913 19.207 1.4541C20.3198 1.84132 21.1842 2.73708 21.5547 3.86523C21.7508 4.46235 21.7504 5.17257 21.75 6.22656V20.374C21.75 21.8392 20.0231 22.7117 18.8857 21.6709C18.8062 21.5982 18.6937 21.5982 18.6143 21.6709L18.1318 22.1133C17.2037 22.9625 15.7973 22.9624 14.8691 22.1133C14.5142 21.7884 13.9868 21.7885 13.6318 22.1133C12.7037 22.9625 11.2973 22.9624 10.3691 22.1133C10.0142 21.7884 9.48682 21.7885 9.13184 22.1133C8.20374 22.9625 6.79732 22.9623 5.86914 22.1133L5.38574 21.6709C5.30626 21.5982 5.19372 21.5982 5.11426 21.6709C3.97683 22.7116 2.25 21.8392 2.25 20.374V6.22656C2.24962 5.17258 2.24926 4.46235 2.44531 3.86523C2.81583 2.73705 3.68011 1.84133 4.79297 1.4541C5.38224 1.24907 6.08202 1.24956 7.09863 1.25H16.9014ZM7.24512 2.75C6.02422 2.75 5.60359 2.76068 5.28613 2.87109C4.62675 3.10053 4.09968 3.63776 3.87109 4.33398C3.7601 4.67228 3.75 5.11831 3.75 6.37012V20.374C3.75 20.4928 3.80982 20.5657 3.88477 20.6006C3.92377 20.6186 3.9623 20.6233 3.99414 20.6191C4.02224 20.6153 4.0589 20.6034 4.10156 20.5645C4.75424 19.9672 5.74576 19.9672 6.39844 20.5645L6.88184 21.0068C7.23682 21.3313 7.76429 21.3315 8.11914 21.0068C9.04733 20.1575 10.4537 20.1574 11.3818 21.0068C11.7368 21.3313 12.2643 21.3315 12.6191 21.0068C13.5473 20.1575 14.9536 20.1574 15.8818 21.0068C16.2368 21.3313 16.7643 21.3315 17.1191 21.0068L17.6016 20.5645C18.2543 19.9672 19.2457 19.9672 19.8984 20.5645C19.9412 20.6035 19.9778 20.6153 20.0059 20.6191C20.0377 20.6234 20.0761 20.6186 20.1152 20.6006C20.1903 20.5657 20.25 20.493 20.25 20.374V6.37012C20.25 5.11859 20.2408 4.67225 20.1299 4.33398C19.9013 3.63776 19.3733 3.10053 18.7139 2.87109C18.3965 2.76073 17.9756 2.75 16.7549 2.75H7.24512ZM7.5 13.75C7.91416 13.75 8.24992 14.0859 8.25 14.5C8.25 14.9142 7.91421 15.25 7.5 15.25H7C6.58583 15.2499 6.25 14.9142 6.25 14.5C6.25008 14.0859 6.58588 13.7501 7 13.75H7.5ZM17 13.75C17.4142 13.75 17.7499 14.0859 17.75 14.5C17.75 14.9142 17.4142 15.25 17 15.25H10.5C10.0858 15.2499 9.75 14.9142 9.75 14.5C9.75008 14.0859 10.0859 13.7501 10.5 13.75H17ZM7.5 10.25C7.91416 10.25 8.24992 10.5859 8.25 11C8.25 11.4142 7.91421 11.75 7.5 11.75H7C6.58583 11.7499 6.25 11.4142 6.25 11C6.25008 10.5859 6.58588 10.2501 7 10.25H7.5ZM17 10.25C17.4142 10.25 17.7499 10.5859 17.75 11C17.75 11.4142 17.4142 11.75 17 11.75H10.5C10.0858 11.7499 9.75 11.4142 9.75 11C9.75008 10.5859 10.0859 10.2501 10.5 10.25H17ZM7.5 6.75C7.91417 6.75 8.24993 7.08585 8.25 7.5C8.25 7.91422 7.91421 8.25 7.5 8.25H7C6.58583 8.24994 6.25 7.91418 6.25 7.5C6.25007 7.08588 6.58587 6.75006 7 6.75H7.5ZM17 6.75C17.4142 6.75 17.7499 7.08585 17.75 7.5C17.75 7.91422 17.4142 8.25 17 8.25H10.5C10.0858 8.24994 9.75 7.91418 9.75 7.5C9.75007 7.08588 10.0859 6.75006 10.5 6.75H17Z" fill="#48465C"/>
</svg>
