<svg width="24" height="24" viewBox="0 0 24 24" fill="none" xmlns="http://www.w3.org/2000/svg">
<path d="M12.0576 1.25C14.3657 1.24999 16.1745 1.24974 17.5859 1.43945C19.0306 1.63369 20.1706 2.03977 21.0654 2.93457C21.9602 3.82938 22.3662 4.96932 22.5605 6.41406C22.7502 7.82544 22.75 9.63432 22.75 11.9424V12.0576C22.75 14.3657 22.7502 16.1745 22.5605 17.5859C22.3662 19.0306 21.9602 20.1706 21.0654 21.0654C20.1706 21.9602 19.0306 22.3662 17.5859 22.5605C16.1745 22.7502 14.3657 22.75 12.0576 22.75H11.9424C9.63432 22.75 7.82544 22.7502 6.41406 22.5605C4.96932 22.3662 3.82938 21.9602 2.93457 21.0654C2.03977 20.1706 1.63369 19.0306 1.43945 17.5859C1.24974 16.1745 1.24999 14.3657 1.25 12.0576V11.9424C1.24999 9.63433 1.24974 7.82544 1.43945 6.41406C1.63369 4.96932 2.03976 3.82938 2.93457 2.93457C3.82938 2.03976 4.96932 1.63369 6.41406 1.43945C7.82544 1.24974 9.63433 1.24999 11.9424 1.25H12.0576ZM12 2.75C9.62178 2.75 7.91326 2.75198 6.61328 2.92676C5.33508 3.09865 4.56472 3.42551 3.99512 3.99512C3.42551 4.56472 3.09865 5.33508 2.92676 6.61328C2.75198 7.91326 2.75 9.62178 2.75 12C2.75 14.3782 2.75198 16.0867 2.92676 17.3867C3.09865 18.6649 3.42551 19.4352 3.99512 20.0049C4.56472 20.5745 5.33508 20.9014 6.61328 21.0732C7.91326 21.248 9.62178 21.25 12 21.25C14.3782 21.25 16.0867 21.248 17.3867 21.0732C18.6649 20.9014 19.4352 20.5745 20.0049 20.0049C20.5745 19.4352 20.9014 18.6649 21.0732 17.3867C21.248 16.0867 21.25 14.3782 21.25 12C21.25 9.62178 21.248 7.91326 21.0732 6.61328C20.9014 5.33508 20.5745 4.56472 20.0049 3.99512C19.4352 3.42551 18.6649 3.09865 17.3867 2.92676C16.0867 2.75198 14.3782 2.75 12 2.75ZM5.2998 12.0049C6.52786 10.8643 8.44642 10.9284 9.5957 12.1484L12.2432 14.958C12.52 15.2518 12.9732 15.292 13.2969 15.0508C14.4967 14.1557 16.1676 14.2571 17.25 15.291L19.5186 17.458C19.8177 17.7441 19.828 18.2192 19.542 18.5186C19.2559 18.8177 18.7808 18.828 18.4814 18.542L16.2139 16.376C15.6608 15.8476 14.8075 15.7956 14.1943 16.2529C13.2599 16.9501 11.9508 16.8359 11.1514 15.9873L8.50391 13.1768C7.91995 12.5569 6.94539 12.5241 6.32129 13.1035L5.51074 13.8564C5.20724 14.1383 4.73209 14.1209 4.4502 13.8174C4.16855 13.514 4.18614 13.0397 4.48926 12.7578L5.2998 12.0049ZM16 5.25C17.5188 5.25 18.75 6.48122 18.75 8C18.75 9.51878 17.5188 10.75 16 10.75C14.4812 10.75 13.25 9.51878 13.25 8C13.25 6.48122 14.4812 5.25 16 5.25ZM16 6.75C15.3096 6.75 14.75 7.30964 14.75 8C14.75 8.69036 15.3096 9.25 16 9.25C16.6904 9.25 17.25 8.69036 17.25 8C17.25 7.30964 16.6904 6.75 16 6.75Z" fill="#1C274C"/>
</svg>
