<svg width="24" height="24" viewBox="0 0 24 24" fill="none" xmlns="http://www.w3.org/2000/svg">
<path d="M20.0557 2.26807C21.5844 2.21481 22.7498 3.46992 22.75 4.93311V16.144C22.7499 17.68 21.5062 18.8789 20.0322 18.9712C19.0734 19.0312 17.9943 19.147 17.1914 19.3589C16.1989 19.6208 14.9714 20.2028 13.9805 20.731C12.7472 21.3884 11.2528 21.3884 10.0195 20.731C9.02856 20.2028 7.80109 19.6208 6.80859 19.3589C6.00562 19.147 4.92653 19.0312 3.96777 18.9712C2.49373 18.8789 1.25015 17.68 1.25 16.144V4.99756C1.25024 3.49862 2.47027 2.23095 4.02832 2.32666C5.01507 2.3873 6.2306 2.50867 7.19141 2.76221C8.32767 3.06205 9.63738 3.68602 10.6328 4.2124C11.4616 4.65062 12.4798 4.62713 13.2979 4.15381C14.1703 3.64887 15.2902 3.06692 16.2852 2.76904C17.4297 2.42644 18.9174 2.30772 20.0557 2.26807ZM3.93652 3.82373C3.3027 3.78478 2.75024 4.3006 2.75 4.99756V16.144C2.75015 16.8297 3.31834 17.4275 4.06152 17.4741C5.0416 17.5354 6.24097 17.6579 7.19141 17.9087C8.36172 18.2176 9.71769 18.8704 10.7256 19.4077C10.8938 19.4973 11.0696 19.5681 11.25 19.6196V5.9751C10.795 5.90435 10.349 5.75924 9.93164 5.53857C8.95484 5.02207 7.77069 4.46628 6.80859 4.2124C5.99644 3.99811 4.90242 3.8831 3.93652 3.82373ZM20.1084 3.76709C18.9895 3.80606 17.664 3.92239 16.7148 4.20654C15.8948 4.45209 14.9001 4.95961 14.0498 5.45166C13.6424 5.68745 13.2023 5.85135 12.75 5.94189V19.6196C12.9304 19.5681 13.1062 19.4973 13.2744 19.4077C14.2823 18.8704 15.6383 18.2176 16.8086 17.9087C17.7591 17.6579 18.9584 17.5354 19.9385 17.4741C20.6817 17.4275 21.2498 16.8297 21.25 16.144V4.93311C21.2498 4.25178 20.723 3.74585 20.1084 3.76709ZM4.27246 12.8188C4.37291 12.4171 4.77984 12.1726 5.18164 12.2729L9.18164 13.2729C9.58346 13.3734 9.82794 13.7804 9.72754 14.1821C9.62711 14.5839 9.22009 14.8283 8.81836 14.728L4.81836 13.728C4.41663 13.6277 4.17224 13.2206 4.27246 12.8188ZM18.8184 12.2729C19.2201 12.1727 19.6271 12.4171 19.7275 12.8188C19.8278 13.2206 19.5833 13.6277 19.1816 13.728L15.1816 14.728C14.7799 14.8284 14.3729 14.584 14.2725 14.1821C14.172 13.7803 14.4166 13.3734 14.8184 13.2729L18.8184 12.2729ZM4.27246 8.81885C4.37291 8.41705 4.77984 8.17258 5.18164 8.27295L9.18164 9.27295C9.58347 9.3734 9.82795 9.78034 9.72754 10.1821C9.62711 10.5839 9.22009 10.8283 8.81836 10.728L4.81836 9.72803C4.41663 9.6276 4.17223 9.22058 4.27246 8.81885ZM18.8184 8.27295C19.2201 8.17266 19.6271 8.41709 19.7275 8.81885C19.8278 9.22057 19.5833 9.6276 19.1816 9.72803L15.1816 10.728C14.7799 10.8284 14.3729 10.584 14.2725 10.1821C14.172 9.78033 14.4166 9.37341 14.8184 9.27295L18.8184 8.27295Z" fill="#48465C"/>
</svg>
