<svg width="24" height="24" viewBox="0 0 24 24" fill="none" xmlns="http://www.w3.org/2000/svg">
<path d="M15.0547 1.25C16.4222 1.24998 17.5246 1.24968 18.3916 1.36621C19.2917 1.48723 20.0494 1.74673 20.6514 2.34863C21.2533 2.95055 21.5128 3.70829 21.6338 4.6084C21.7503 5.47534 21.75 6.57782 21.75 7.94531V16.0547C21.75 17.4222 21.7503 18.5246 21.6338 19.3916C21.5128 20.2917 21.2533 21.0494 20.6514 21.6514C20.0494 22.2533 19.2917 22.5128 18.3916 22.6338C17.5246 22.7503 16.4222 22.75 15.0547 22.75H8.94531C8.6318 22.75 8.33189 22.7504 8.0459 22.749C8.03073 22.7499 8.0154 22.75 8 22.75C7.98169 22.75 7.96329 22.7492 7.94531 22.748C7.02801 22.7423 6.25312 22.7205 5.6084 22.6338C4.70829 22.5128 3.95055 22.2533 3.34863 21.6514C2.74673 21.0494 2.48723 20.2917 2.36621 19.3916C2.27012 18.6766 2.25392 17.8017 2.25098 16.75H2C1.58579 16.75 1.25 16.4142 1.25 16C1.25 15.5858 1.58579 15.25 2 15.25H2.25V12.75H2C1.58579 12.75 1.25 12.4142 1.25 12C1.25 11.5858 1.58579 11.25 2 11.25H2.25V8.75H2C1.58579 8.75 1.25 8.41421 1.25 8C1.25 7.58579 1.58579 7.25 2 7.25H2.25098C2.25392 6.19827 2.27011 5.3233 2.36621 4.6084C2.48723 3.70829 2.74671 2.95055 3.34863 2.34863C3.95055 1.74671 4.70829 1.48723 5.6084 1.36621C6.47534 1.24968 7.57782 1.24998 8.94531 1.25H15.0547ZM8.75 21.25H15C16.4354 21.25 17.437 21.248 18.1924 21.1465C18.9258 21.0478 19.3141 20.8676 19.5908 20.5908C19.8676 20.3141 20.0478 19.9258 20.1465 19.1924C20.248 18.437 20.25 17.4354 20.25 16V8C20.25 6.56484 20.2479 5.5639 20.1465 4.80859C20.0478 4.07482 19.8676 3.68594 19.5908 3.40918C19.3141 3.13249 18.9258 2.95218 18.1924 2.85352C17.437 2.75196 16.4354 2.75 15 2.75H8.75V21.25ZM7.25 2.76074C6.68117 2.773 6.21018 2.79954 5.80859 2.85352C5.07481 2.95217 4.68594 3.13242 4.40918 3.40918C4.13242 3.68594 3.95217 4.07482 3.85352 4.80859C3.7707 5.42478 3.75418 6.20444 3.75098 7.25H4C4.41421 7.25 4.75 7.58579 4.75 8C4.75 8.41421 4.41421 8.75 4 8.75H3.75V11.25H4C4.41421 11.25 4.75 11.5858 4.75 12C4.75 12.4142 4.41421 12.75 4 12.75H3.75V15.25H4C4.41421 15.25 4.75 15.5858 4.75 16C4.75 16.4142 4.41421 16.75 4 16.75H3.75098C3.75418 17.7958 3.77066 18.5761 3.85352 19.1924C3.95218 19.9258 4.13249 20.3141 4.40918 20.5908C4.68594 20.8676 5.07481 21.0478 5.80859 21.1465C6.21018 21.2004 6.68116 21.227 7.25 21.2393V2.76074ZM16.5 9.25C16.9142 9.25 17.25 9.58579 17.25 10C17.25 10.4142 16.9142 10.75 16.5 10.75H11.5C11.0858 10.75 10.75 10.4142 10.75 10C10.75 9.58579 11.0858 9.25 11.5 9.25H16.5ZM16.5 5.75C16.9142 5.75 17.25 6.08579 17.25 6.5C17.25 6.91421 16.9142 7.25 16.5 7.25H11.5C11.0858 7.25 10.75 6.91421 10.75 6.5C10.75 6.08579 11.0858 5.75 11.5 5.75H16.5Z" fill="#1C274C"/>
</svg>
