<svg width="24" height="24" viewBox="0 0 24 24" fill="none" xmlns="http://www.w3.org/2000/svg">
<path d="M12 1.25C14.0711 1.25 15.75 2.92893 15.75 5V11.3477C15.75 11.42 15.79 11.5273 15.9082 11.6221C17.3348 12.7663 18.25 14.5266 18.25 16.5C18.25 19.9518 15.4518 22.75 12 22.75C8.54822 22.75 5.75 19.9518 5.75 16.5C5.75 14.5266 6.66531 12.7663 8.0918 11.6221C8.21003 11.5273 8.25 11.42 8.25 11.3477V5C8.25 2.92893 9.92893 1.25 12 1.25ZM12 2.75C10.7574 2.75 9.75 3.75736 9.75 5V11.3477C9.75 11.9513 9.43934 12.4639 9.03027 12.792C7.9434 13.6637 7.25 15.0007 7.25 16.5C7.25 19.1234 9.37665 21.25 12 21.25C14.6234 21.25 16.75 19.1234 16.75 16.5C16.75 15.0008 16.0567 13.6637 14.9697 12.792C14.5607 12.4639 14.25 11.9513 14.25 11.3477V5C14.25 3.75736 13.2426 2.75 12 2.75ZM12 4.25C12.4142 4.25001 12.75 4.5858 12.75 5V13.3369C14.1832 13.6755 15.25 14.9633 15.25 16.5C15.2499 18.2948 13.7948 19.7499 12 19.75C10.205 19.75 8.75005 18.2949 8.75 16.5C8.75 14.9632 9.81663 13.6755 11.25 13.3369V5C11.25 4.58579 11.5858 4.24999 12 4.25ZM12 14.75C11.0335 14.75 10.25 15.5335 10.25 16.5C10.2501 17.4665 11.0335 18.25 12 18.25C12.9664 18.2499 13.7499 17.4664 13.75 16.5C13.75 15.5336 12.9664 14.7501 12 14.75Z" fill="#1C274C"/>
</svg>
