<svg width="24" height="24" viewBox="0 0 24 24" fill="none" xmlns="http://www.w3.org/2000/svg">
<path d="M16.6163 19.7404C16.8581 19.404 17.3269 19.327 17.6632 19.5685C17.9995 19.8102 18.0765 20.2791 17.8351 20.6154C17.6085 20.9304 17.3488 21.2364 17.0548 21.5304C16.762 21.8232 16.2872 21.823 15.9943 21.5304C15.7014 21.2375 15.7014 20.7627 15.9943 20.4698C16.2328 20.2313 16.4388 19.9872 16.6163 19.7404ZM5.03235 17.9513C5.13348 17.5498 5.54091 17.3063 5.9425 17.4073C6.55478 17.5615 7.18393 17.5904 7.81067 17.5157C8.22194 17.4667 8.59559 17.7607 8.64465 18.172C8.69367 18.5833 8.39971 18.957 7.9884 19.006C7.1973 19.1003 6.38259 19.0644 5.57629 18.8615C5.17485 18.7602 4.93135 18.3528 5.03235 17.9513ZM18.172 15.3556C18.5833 15.3066 18.957 15.6005 19.006 16.0118C19.1002 16.8028 19.0644 17.6169 18.8615 18.423C18.7604 18.8246 18.3529 19.0689 17.9513 18.9679C17.5496 18.8667 17.3062 18.4584 17.4073 18.0568C17.5615 17.4445 17.5904 16.8153 17.5157 16.1886C17.467 15.7775 17.7609 15.4048 18.172 15.3556ZM11.3488 15.9845C11.6747 15.7291 12.1458 15.7857 12.4015 16.1115C12.6571 16.4375 12.6005 16.9096 12.2745 17.1652C11.6688 17.6401 10.9919 18.0518 10.2706 18.3693C9.89156 18.5362 9.44925 18.3645 9.28235 17.9855C9.11551 17.6065 9.28728 17.1642 9.66614 16.9972C10.2667 16.7328 10.8363 16.3863 11.3488 15.9845ZM2.46985 15.9943C2.76274 15.7014 3.23751 15.7014 3.5304 15.9943C3.76896 16.2328 4.013 16.4389 4.25989 16.6163C4.59622 16.8581 4.67255 17.3268 4.43079 17.6632C4.18914 17.9993 3.72116 18.0764 3.38489 17.8351C3.06983 17.6087 2.76379 17.3488 2.46985 17.0548C2.17701 16.762 2.17712 16.2872 2.46985 15.9943ZM10.0773 8.50305C10.3267 8.17235 10.7974 8.10618 11.1281 8.35559C11.3688 8.53722 11.4688 8.83579 11.4093 9.11243C11.4824 9.1555 11.549 9.21169 11.6046 9.27844C11.7339 9.25979 11.8661 9.25012 12.0001 9.25012C12.1716 9.25013 12.3397 9.26576 12.5031 9.29602C12.6748 9.01914 13.0146 8.87707 13.3439 8.96985C14.0924 9.18124 14.8257 9.57087 15.4972 10.0773C15.8279 10.3266 15.894 10.7973 15.6447 11.1281C15.4631 11.3689 15.1636 11.4689 14.8868 11.4093C14.8439 11.4825 14.7884 11.5489 14.7218 11.6046C14.7405 11.7338 14.7501 11.8661 14.7501 12.0001C14.7501 12.1715 14.7345 12.3397 14.7042 12.5031C14.9809 12.6748 15.1231 13.0148 15.0304 13.3439C14.819 14.0925 14.4284 14.8257 13.922 15.4972C13.6725 15.8277 13.2028 15.8938 12.8722 15.6447C12.6313 15.463 12.5304 15.1635 12.59 14.8868C12.517 14.8438 12.4511 14.7884 12.3956 14.7218C12.2664 14.7405 12.1341 14.7501 12.0001 14.7501C11.8287 14.7501 11.6605 14.7344 11.4972 14.7042C11.3254 14.9812 10.9847 15.1234 10.6554 15.0304C9.90687 14.819 9.17447 14.4283 8.50305 13.922C8.17239 13.6726 8.10632 13.2029 8.35559 12.8722C8.53717 12.6314 8.8358 12.5305 9.11243 12.59C9.15546 12.5168 9.21176 12.4513 9.27844 12.3956C9.2598 12.2664 9.25013 12.134 9.25012 12.0001C9.25012 11.8288 9.2658 11.6605 9.29602 11.4972C9.01903 11.3255 8.87685 10.9847 8.96985 10.6554C9.18124 9.90698 9.57107 9.17435 10.0773 8.50305ZM16.1115 11.5978C16.4374 11.3422 16.9097 11.3997 17.1652 11.7257C17.6401 12.3315 18.0528 13.0075 18.3702 13.7286C18.5371 14.1077 18.3646 14.551 17.9855 14.7179C17.6064 14.8847 17.1641 14.7122 16.9972 14.3331C16.7329 13.7326 16.3861 13.1638 15.9845 12.6515C15.7289 12.3255 15.7855 11.8534 16.1115 11.5978ZM12.0001 10.7501C11.8292 10.7501 11.6679 10.7841 11.5216 10.8448C11.2774 10.9461 11.0102 10.9085 10.8077 10.7687C10.7939 10.7804 10.7793 10.7916 10.7657 10.8038C10.9075 11.0068 10.9467 11.2759 10.8448 11.5216C10.7842 11.668 10.7501 11.8293 10.7501 12.0001C10.7502 12.1709 10.7843 12.3324 10.8448 12.4786C10.9459 12.7229 10.9085 12.9901 10.7687 13.1925C10.7803 13.2061 10.7918 13.2199 10.8038 13.2335C11.0068 13.0916 11.2759 13.0535 11.5216 13.1554C11.6679 13.2161 11.8292 13.2501 12.0001 13.2501C12.171 13.2501 12.3323 13.2161 12.4786 13.1554C12.7229 13.0542 12.99 13.0916 13.1925 13.2316C13.2063 13.2199 13.2199 13.2076 13.2335 13.1954C13.092 12.9926 13.0537 12.7241 13.1554 12.4786C13.2161 12.3324 13.2501 12.1709 13.2501 12.0001C13.2501 11.8293 13.2161 11.668 13.1554 11.5216C13.0541 11.2772 13.0915 11.0094 13.2316 10.8068C13.22 10.7931 13.2075 10.7793 13.1954 10.7657C12.9927 10.9075 12.7242 10.9465 12.4786 10.8448C12.3323 10.7842 12.171 10.7501 12.0001 10.7501ZM6.01477 9.28235C6.39375 9.11567 6.83613 9.28725 7.00305 9.66614C7.26748 10.2668 7.61392 10.8363 8.01575 11.3488C8.2713 11.6747 8.21378 12.146 7.88782 12.4015C7.56188 12.657 7.09064 12.6003 6.83508 12.2745C6.36006 11.6686 5.94752 10.9918 5.63 10.2706C5.46326 9.89153 5.63573 9.44921 6.01477 9.28235ZM5.13879 5.57629C5.24007 5.17481 5.64739 4.93123 6.04895 5.03235C6.45043 5.13355 6.69384 5.54098 6.5929 5.9425C6.43871 6.55477 6.40886 7.18395 6.48352 7.81067C6.53254 8.22197 6.23857 8.59563 5.82727 8.64465C5.41617 8.69336 5.04326 8.39955 4.99426 7.9884C4.89998 7.19727 4.93575 6.38262 5.13879 5.57629ZM19.5685 6.33606C19.8103 5.99988 20.2791 5.92353 20.6154 6.16516C20.9306 6.3917 21.2364 6.65139 21.5304 6.94543C21.8231 7.23828 21.8231 7.71312 21.5304 8.00598C21.2376 8.29884 20.7628 8.29879 20.4698 8.00598C20.2312 7.76733 19.9873 7.56049 19.7404 7.38293C19.4041 7.14116 19.3267 6.6724 19.5685 6.33606ZM13.7296 5.63C14.1086 5.46342 14.5511 5.6358 14.7179 6.01477C14.8845 6.39378 14.7121 6.83622 14.3331 7.00305C13.7326 7.26743 13.1639 7.61405 12.6515 8.01575C12.3256 8.27132 11.8533 8.2138 11.5978 7.88782C11.3425 7.56186 11.3999 7.09055 11.7257 6.83508C12.3316 6.3601 13.0084 5.94749 13.7296 5.63ZM16.0118 4.99426C16.8027 4.90004 17.617 4.93492 18.423 5.13782C18.8247 5.23897 19.069 5.64728 18.9679 6.04895C18.8666 6.45055 18.4584 6.69403 18.0568 6.5929C17.4446 6.43876 16.8153 6.40883 16.1886 6.48352C15.7774 6.53233 15.4046 6.23845 15.3556 5.82727C15.3068 5.41614 15.6007 5.04327 16.0118 4.99426ZM6.94543 2.46985C7.23832 2.17696 7.71309 2.17696 8.00598 2.46985C8.29886 2.76274 8.29887 3.23751 8.00598 3.5304C7.76733 3.76905 7.56048 4.0129 7.38293 4.25989C7.14114 4.59609 6.67234 4.67251 6.33606 4.43079C6.00011 4.18892 5.9235 3.72009 6.16516 3.38391C6.39164 3.06887 6.65152 2.76377 6.94543 2.46985Z" fill="#1C274C"/>
</svg>
