<svg width="24" height="24" viewBox="0 0 24 24" fill="none" xmlns="http://www.w3.org/2000/svg">
<path d="M14.3982 2.68262C16.3086 0.77224 19.4066 0.772356 21.3171 2.68262C23.2276 4.5931 23.2276 7.69106 21.3171 9.60156L18.9187 12L21.3171 14.3984C23.2276 16.3089 23.2276 19.4069 21.3171 21.3174C19.4066 23.2279 16.3087 23.2279 14.3982 21.3174L11.9998 18.9189L9.60132 21.3174C7.69081 23.2278 4.59285 23.2279 2.68237 21.3174C0.772112 19.4069 0.771997 16.3089 2.68237 14.3984L5.08179 12L2.68237 9.60156C0.772156 7.69104 0.77197 4.59302 2.68237 2.68262C4.59278 0.772216 7.6908 0.7724 9.60132 2.68262L11.9998 5.08203L14.3982 2.68262ZM3.7439 15.46C2.41921 16.7847 2.41919 18.9321 3.7439 20.2568C5.06863 21.5813 7.21614 21.5814 8.54077 20.2568L10.9392 17.8584L6.14233 13.0605L3.7439 15.46ZM8.54077 3.74414C7.21606 2.41943 5.06861 2.41943 3.7439 3.74414C2.41919 5.06885 2.41919 7.21631 3.7439 8.54102L15.4597 20.2568C16.7844 21.5813 18.932 21.5814 20.2566 20.2568C21.5812 18.9322 21.581 16.7847 20.2566 15.46L8.54077 3.74414ZM15.656 15.6562C15.9635 15.3488 16.4618 15.3488 16.7693 15.6562C17.0768 15.9637 17.0768 16.462 16.7693 16.7695C16.4618 17.0771 15.9635 17.0771 15.656 16.7695C15.3485 16.462 15.3484 15.9637 15.656 15.6562ZM12.8718 14.7275C13.1794 14.4205 13.6776 14.4204 13.9851 14.7275C14.2926 15.035 14.2926 15.5342 13.9851 15.8418C13.6776 16.1491 13.1794 16.149 12.8718 15.8418C12.5643 15.5342 12.5643 15.035 12.8718 14.7275ZM14.7273 12.8711C15.0348 12.5636 15.534 12.5637 15.8416 12.8711C16.149 13.1787 16.149 13.6777 15.8416 13.9854C15.534 14.2929 15.0348 14.2929 14.7273 13.9854C14.4198 13.6777 14.4197 13.1786 14.7273 12.8711ZM11.9431 11.9434C12.2507 11.636 12.7499 11.6359 13.0574 11.9434C13.3649 12.2509 13.3648 12.7501 13.0574 13.0576C12.7499 13.3652 12.2507 13.3652 11.9431 13.0576C11.6356 12.7501 11.6356 12.251 11.9431 11.9434ZM9.15894 11.0156C9.46649 10.708 9.96563 10.708 10.2732 11.0156C10.5803 11.323 10.5802 11.8215 10.2732 12.1289C9.96563 12.4365 9.46649 12.4365 9.15894 12.1289C8.85162 11.8214 8.8515 11.3231 9.15894 11.0156ZM20.2566 3.74414C18.9319 2.41944 16.7844 2.41946 15.4597 3.74414L13.0603 6.14258L17.8582 10.9395L20.2566 8.54102C21.5812 7.21638 21.581 5.06887 20.2566 3.74414ZM11.0154 9.15918C11.3229 8.85171 11.8212 8.85175 12.1287 9.15918C12.4362 9.46671 12.4362 9.9649 12.1287 10.2725C11.8212 10.58 11.3229 10.58 11.0154 10.2725C10.7079 9.96489 10.7078 9.46669 11.0154 9.15918ZM8.2312 8.23047C8.53871 7.92342 9.03706 7.92329 9.34448 8.23047C9.65203 8.53802 9.65203 9.03718 9.34448 9.34473C9.03701 9.65213 8.53875 9.65199 8.2312 9.34473C7.92365 9.03718 7.92365 8.53802 8.2312 8.23047Z" fill="#1C274C"/>
</svg>
