<svg width="24" height="24" viewBox="0 0 24 24" fill="none" xmlns="http://www.w3.org/2000/svg">
<path d="M12.9883 3.97363C13.5115 3.73885 13.9785 3.98472 14.2354 4.1543C14.4969 4.327 14.7997 4.59631 15.124 4.88477C15.1368 4.89619 15.1502 4.90747 15.1631 4.91895L19.1768 8.4873C19.9255 9.15289 20.5464 9.70511 20.9727 10.2061C21.4204 10.7324 21.7391 11.2988 21.7393 12C21.7393 12.7013 21.4206 13.2685 20.9727 13.7949C20.5464 14.2959 19.9256 14.848 19.1768 15.5137L15.1631 19.0811C15.1502 19.0926 15.1368 19.1048 15.124 19.1162C14.7997 19.4046 14.4969 19.6739 14.2354 19.8467C13.9785 20.0162 13.5114 20.262 12.9883 20.0273C12.4651 19.7923 12.3388 19.2793 12.2949 18.9746C12.2502 18.6643 12.2499 18.2593 12.25 17.8252V16.2051C10.7985 16.3051 9.32762 16.6905 8.04102 17.3174C6.52819 18.0545 5.31984 19.0997 4.66406 20.3486C4.50366 20.6541 4.15534 20.8111 3.82031 20.7285C3.48536 20.6459 3.25 20.3449 3.25 20C3.25008 15.2792 4.63138 12.2052 6.60645 10.3154C8.32803 8.66822 10.4264 7.99204 12.25 7.85059V6.17578C12.2499 5.74183 12.2503 5.33658 12.2949 5.02637C12.3388 4.7217 12.4651 4.20862 12.9883 3.97363ZM13.75 6.22754V8.57227C13.7497 8.98626 13.414 9.32227 13 9.32227C11.3104 9.32227 9.2636 9.84935 7.64355 11.3994C6.34247 12.6443 5.25255 14.6103 4.88379 17.6572C5.60964 16.9815 6.46499 16.4164 7.38379 15.9688C9.09976 15.1327 11.0874 14.6787 13 14.6787C13.4141 14.6787 13.7499 15.0146 13.75 15.4287V17.7734C13.75 17.9941 13.7502 18.1744 13.7529 18.3232C13.8659 18.2263 14.001 18.1066 14.166 17.96L18.1387 14.4297C18.9396 13.7177 19.4799 13.2348 19.8301 12.8232C20.1664 12.428 20.2393 12.1966 20.2393 12C20.2392 11.8034 20.1661 11.5727 19.8301 11.1777C19.4799 10.7662 18.9397 10.2833 18.1387 9.57129L14.166 6.04004C14.0012 5.89355 13.8659 5.77458 13.7529 5.67773C13.7502 5.82654 13.75 6.00705 13.75 6.22754Z" fill="#1C274C"/>
</svg>
