<svg width="24" height="24" viewBox="0 0 24 24" fill="none" xmlns="http://www.w3.org/2000/svg">
<path d="M13.2346 5.20361C13.6535 6.21029 14.3422 7.40306 15.4699 8.53076C16.5974 9.65818 17.7895 10.3463 18.7961 10.7651L11.3996 18.1616C10.8228 18.7384 10.534 19.0268 10.216 19.2749C9.84065 19.5677 9.43478 19.8191 9.00508 20.0239C8.64081 20.1975 8.25303 20.3264 7.47871 20.5845L3.39571 21.9458C3.0147 22.0727 2.59473 21.9729 2.31075 21.689C2.02683 21.4049 1.92789 20.9849 2.05489 20.604L3.41524 16.521C3.67336 15.7467 3.80315 15.3589 3.97676 14.9946C4.18152 14.5651 4.43214 14.159 4.72481 13.7837C4.97298 13.4656 5.26194 13.1773 5.83907 12.6001L13.2346 5.20361ZM15.2873 3.15186C16.823 1.61621 19.3122 1.61619 20.8479 3.15186C22.3835 4.68754 22.3835 7.17669 20.8479 8.7124L19.9611 9.6001C19.9246 9.58801 19.8873 9.57502 19.8498 9.56201C18.9127 9.23688 17.6843 8.62391 16.5305 7.47021C15.3765 6.3162 14.7628 5.08705 14.4377 4.1499C14.4246 4.1123 14.4118 4.07519 14.3996 4.03857L15.2873 3.15186Z" fill="#1C274C"/>
</svg>
