<svg width="24" height="24" viewBox="0 0 24 24" fill="none" xmlns="http://www.w3.org/2000/svg">
<path d="M13.2346 5.20361C13.6535 6.21029 14.3423 7.40306 15.47 8.53076C16.5974 9.65818 17.7896 10.3463 18.7961 10.7651L11.3997 18.1616C10.8229 18.7384 10.5341 19.0268 10.2161 19.2749C9.84069 19.5677 9.43483 19.8191 9.00513 20.0239C8.64085 20.1975 8.25308 20.3264 7.47876 20.5845L3.39575 21.9458C3.01474 22.0727 2.59477 21.9729 2.31079 21.689C2.02687 21.4049 1.92793 20.9849 2.05493 20.604L3.41528 16.521C3.6734 15.7467 3.8032 15.3589 3.97681 14.9946C4.18157 14.5651 4.43218 14.159 4.72485 13.7837C4.97302 13.4656 5.26199 13.1773 5.83911 12.6001L13.2346 5.20361ZM15.2874 3.15186C16.8231 1.61621 19.3122 1.61619 20.8479 3.15186C22.3836 4.68754 22.3836 7.17669 20.8479 8.7124L19.9612 9.6001C19.9247 9.58801 19.8874 9.57502 19.8499 9.56201C18.9128 9.23688 17.6843 8.62391 16.5305 7.47021C15.3765 6.31621 14.7628 5.08705 14.4377 4.1499C14.4247 4.1123 14.4118 4.07519 14.3997 4.03857L15.2874 3.15186Z" fill="#48465C"/>
</svg>
