<svg width="24" height="24" viewBox="0 0 24 24" fill="none" xmlns="http://www.w3.org/2000/svg">
<path d="M19.5 20.25C19.9142 20.25 20.25 20.5858 20.25 21C20.25 21.4142 19.9142 21.75 19.5 21.75H4.5C4.08579 21.75 3.75 21.4142 3.75 21C3.75 20.5858 4.08579 20.25 4.5 20.25H19.5ZM16.0547 5.25C17.4222 5.24998 18.5246 5.24968 19.3916 5.36621C20.2917 5.48723 21.0494 5.74673 21.6514 6.34863C22.2533 6.95055 22.5128 7.70829 22.6338 8.6084C22.7503 9.47534 22.75 10.5778 22.75 11.9453V12.0547C22.75 13.4222 22.7503 14.5246 22.6338 15.3916C22.5128 16.2917 22.2533 17.0495 21.6514 17.6514C21.0494 18.2533 20.2917 18.5128 19.3916 18.6338C18.5246 18.7503 17.4222 18.75 16.0547 18.75H7.94531C6.57782 18.75 5.47534 18.7503 4.6084 18.6338C3.7083 18.5128 2.95055 18.2533 2.34863 17.6514C1.74671 17.0495 1.48723 16.2917 1.36621 15.3916C1.24968 14.5246 1.24998 13.4222 1.25 12.0547V11.9453C1.24998 10.5778 1.24968 9.47533 1.36621 8.6084C1.48723 7.70829 1.74671 6.95055 2.34863 6.34863C2.95055 5.74671 3.70829 5.48723 4.6084 5.36621C5.47534 5.24968 6.57782 5.24998 7.94531 5.25H16.0547ZM8 6.75C6.56485 6.75 5.5639 6.75201 4.80859 6.85352C4.07482 6.95217 3.68594 7.13242 3.40918 7.40918C3.13242 7.68594 2.95217 8.07482 2.85352 8.80859C2.75201 9.5639 2.75 10.5649 2.75 12C2.75 13.4354 2.75196 14.437 2.85352 15.1924C2.95218 15.9258 3.13249 16.3141 3.40918 16.5908C3.68594 16.8676 4.07482 17.0478 4.80859 17.1465C5.5639 17.2479 6.56485 17.25 8 17.25H16C17.4354 17.25 18.437 17.248 19.1924 17.1465C19.9258 17.0478 20.3141 16.8676 20.5908 16.5908C20.8676 16.3141 21.0478 15.9258 21.1465 15.1924C21.248 14.437 21.25 13.4354 21.25 12C21.25 10.5649 21.2479 9.5639 21.1465 8.80859C21.0478 8.07481 20.8676 7.68594 20.5908 7.40918C20.3141 7.13249 19.9258 6.95218 19.1924 6.85352C18.437 6.75196 17.4354 6.75 16 6.75H8ZM19.5 2.25C19.9142 2.25 20.25 2.58579 20.25 3C20.25 3.41421 19.9142 3.75 19.5 3.75H4.5C4.08579 3.75 3.75 3.41421 3.75 3C3.75 2.58579 4.08579 2.25 4.5 2.25H19.5Z" fill="#1C274C"/>
</svg>
