<svg width="24" height="24" viewBox="0 0 24 24" fill="none" xmlns="http://www.w3.org/2000/svg">
<path d="M12 2C16.714 2 19.0708 2.00037 20.5352 3.46484C21.9996 4.9293 22 7.28597 22 12C22 16.714 21.9997 19.0708 20.5352 20.5352C19.0708 21.9997 16.714 22 12 22C7.28597 22 4.9293 21.9996 3.46484 20.5352C2.00037 19.0708 2 16.714 2 12C2 7.28595 2.00037 4.9293 3.46484 3.46484C4.9293 2.00037 7.28595 2 12 2ZM15.3584 8.6416C15.0655 8.34873 14.5907 8.34872 14.2979 8.6416L9.92188 13.0176V10.5859C9.92188 10.1718 9.58595 9.83611 9.17188 9.83594C8.75767 9.83595 8.42188 10.1717 8.42188 10.5859V14.8281C8.42188 15.2423 8.75767 15.5781 9.17188 15.5781H13.4141C13.8283 15.5781 14.1641 15.2423 14.1641 14.8281C14.1639 14.4141 13.8282 14.0781 13.4141 14.0781H10.9824L15.3584 9.70215C15.6513 9.40926 15.6513 8.9345 15.3584 8.6416Z" fill="#1C274C"/>
</svg>
