<svg width="24" height="24" viewBox="0 0 24 24" fill="none" xmlns="http://www.w3.org/2000/svg">
<path fill-rule="evenodd" clip-rule="evenodd" d="M10.1758 1.25002C11.5602 1.24965 12.4551 1.24955 13.2783 1.56545C14.1014 1.88141 14.7633 2.47748 15.7871 3.39944C15.8224 3.43123 15.8583 3.46355 15.8945 3.49612L19.8535 7.05959C19.8956 7.09744 19.9375 7.13499 19.9785 7.1719C21.1619 8.23623 21.9272 8.92451 22.3389 9.84866C22.7505 10.773 22.7505 11.8028 22.75 13.3946V14.0567C22.75 15.8943 22.7498 17.3501 22.5967 18.4893C22.439 19.6616 22.1067 20.6101 21.3584 21.3584C20.6101 22.1068 19.6615 22.4391 18.4893 22.5967C17.3501 22.7499 15.8943 22.75 14.0566 22.75H9.94336C8.10571 22.75 6.6499 22.7499 5.51074 22.5967C4.33845 22.4391 3.38991 22.1068 2.6416 21.3584C1.8933 20.6101 1.56095 19.6616 1.40332 18.4893C1.25015 17.3501 1.24998 15.8943 1.25 14.0567V9.94338C1.24998 8.10577 1.25016 6.64991 1.40332 5.51077C1.56096 4.3385 1.89331 3.38992 2.6416 2.64163C3.39048 1.89278 4.34218 1.56082 5.51856 1.40334C6.66252 1.25023 8.12581 1.25 9.97363 1.25002H10.1758ZM10.0303 2.75002C8.11358 2.75002 6.75067 2.75143 5.71777 2.88967C4.70594 3.0251 4.12477 3.27958 3.70215 3.70217C3.27894 4.12538 3.02491 4.70487 2.88965 5.71096C2.75148 6.7386 2.75 8.09324 2.75 10V14C2.75 15.9067 2.7515 17.2614 2.88965 18.2891C3.02491 19.2952 3.27895 19.8747 3.70215 20.2979C4.12536 20.7212 4.70485 20.9751 5.71094 21.1104C6.73859 21.2486 8.09324 21.25 10 21.25H14C15.9067 21.25 17.2614 21.2486 18.2891 21.1104C19.2951 20.9751 19.8747 20.7212 20.2979 20.2979C20.721 19.8747 20.9752 19.2952 21.1104 18.2891C21.2485 17.2614 21.25 15.9067 21.25 14V13.5625C21.25 12.0268 21.2392 11.2987 21.0762 10.75H17.9463C16.8136 10.75 15.888 10.7497 15.1572 10.6514C14.3932 10.5487 13.7308 10.3265 13.2021 9.79788C12.6735 9.26918 12.4513 8.60673 12.3486 7.8428C12.2505 7.11198 12.25 6.18638 12.25 5.05374V2.83401C11.7897 2.75579 11.1621 2.75003 10.0303 2.75002ZM9.29785 13.7364C9.4434 13.3487 9.87597 13.1525 10.2637 13.2979C10.6513 13.4434 10.8476 13.876 10.7021 14.2637L9.20215 18.2637C9.05658 18.6513 8.62405 18.8475 8.23633 18.7022C7.84869 18.5567 7.65245 18.124 7.79785 17.7364L9.29785 13.7364ZM10.9697 15.4698C11.2626 15.1769 11.7374 15.1769 12.0303 15.4698L13.0303 16.4698C13.3231 16.7627 13.3232 17.2374 13.0303 17.5303L12.0303 18.5303C11.7374 18.8232 11.2626 18.8232 10.9697 18.5303C10.6768 18.2374 10.6769 17.7627 10.9697 17.4698L11.4395 17L10.9697 16.5303C10.6768 16.2374 10.6769 15.7627 10.9697 15.4698ZM6.46973 13.4698C6.76262 13.1769 7.23738 13.1769 7.53027 13.4698C7.82314 13.7627 7.82315 14.2374 7.53027 14.5303L7.06055 15L7.53027 15.4698C7.82314 15.7627 7.82315 16.2374 7.53027 16.5303C7.23739 16.8232 6.76262 16.8232 6.46973 16.5303L5.46973 15.5303C5.17685 15.2374 5.17686 14.7627 5.46973 14.4698L6.46973 13.4698ZM13.75 5.00002C13.75 6.19973 13.7518 7.02439 13.835 7.64358C13.9154 8.24097 14.0592 8.53382 14.2627 8.73733C14.4662 8.94083 14.759 9.0847 15.3564 9.16506C15.9756 9.24831 16.8003 9.25002 18 9.25002H20.0195C19.723 8.96248 19.3428 8.61774 18.8496 8.17385L14.8916 4.61135C14.4062 4.17451 14.0446 3.85177 13.75 3.6094V5.00002Z" fill="#1C274C"/>
</svg>
