<svg width="24" height="24" viewBox="0 0 24 24" fill="none" xmlns="http://www.w3.org/2000/svg">
<path d="M19.3447 5.99316C19.6232 5.89055 19.9556 5.80262 20.3145 5.86816C20.7568 5.94906 21.1517 6.19684 21.416 6.56055C21.6305 6.85572 21.6947 7.19375 21.7227 7.48926C21.7499 7.77697 21.75 8.13611 21.75 8.54492V8.6543C21.7508 8.95439 21.7513 9.27503 21.6436 9.57031C21.5586 9.8034 21.4253 10.0159 21.252 10.1934C21.0324 10.4182 20.7435 10.5564 20.4727 10.6855L20.4043 10.7178L18.6182 11.5752C18.2498 11.7521 17.9264 11.907 17.6553 12.0068C17.3935 12.1033 17.0842 12.1873 16.75 12.1426V16.4287C16.75 18.243 15.3147 19.75 13.5 19.75C11.6853 19.75 10.25 18.243 10.25 16.4287C10.25 14.6144 11.6853 13.1074 13.5 13.1074C14.1477 13.1074 14.747 13.2995 15.25 13.6289V10H15.2529C15.25 9.83119 15.25 9.64853 15.25 9.45508V9.3457C15.2492 9.0456 15.2486 8.72497 15.3564 8.42969C15.4414 8.19661 15.5747 7.98415 15.748 7.80664C15.9676 7.58185 16.2565 7.44356 16.5273 7.31445L16.5957 7.28223L18.3818 6.4248C18.7503 6.24797 19.0736 6.09304 19.3447 5.99316ZM8 16.25C8.41421 16.25 8.75 16.5858 8.75 17C8.75 17.4142 8.41421 17.75 8 17.75H3C2.58579 17.75 2.25 17.4142 2.25 17C2.25 16.5858 2.58579 16.25 3 16.25H8ZM9 12.25C9.41421 12.25 9.75 12.5858 9.75 13C9.75 13.4142 9.41421 13.75 9 13.75H3C2.58579 13.75 2.25 13.4142 2.25 13C2.25 12.5858 2.58579 12.25 3 12.25H9ZM13 8.25C13.4142 8.25 13.75 8.58579 13.75 9C13.75 9.41421 13.4142 9.75 13 9.75H3C2.58579 9.75 2.25 9.41421 2.25 9C2.25 8.58579 2.58579 8.25 3 8.25H13ZM15 4.25C15.4142 4.25 15.75 4.58579 15.75 5C15.75 5.41421 15.4142 5.75 15 5.75H3C2.58579 5.75 2.25 5.41421 2.25 5C2.25 4.58579 2.58579 4.25 3 4.25H15Z" fill="#1C274C"/>
</svg>
