<svg width="24" height="24" viewBox="0 0 24 24" fill="none" xmlns="http://www.w3.org/2000/svg">
<path d="M17.1055 2.25C18.5659 2.25009 19.7499 3.43403 19.75 4.89453V8C19.75 12.0272 16.6783 15.3366 12.75 15.7139V20.25H15.75C16.1642 20.25 16.5 20.5858 16.5 21C16.4999 21.4142 16.1642 21.75 15.75 21.75H8.25C7.83582 21.75 7.50005 21.4142 7.5 21C7.5 20.5858 7.83579 20.25 8.25 20.25H11.25V15.7139C7.32172 15.3366 4.25 12.0272 4.25 8V4.89453C4.25011 3.43405 5.43405 2.25011 6.89453 2.25H17.1055ZM9.0459 8.74902C8.4429 8.78613 7.64781 9.00678 6.96094 9.24219C6.62676 9.35671 6.33447 9.46931 6.12598 9.55273C6.06312 9.57788 6.00798 9.6001 5.96191 9.61914C6.67524 12.286 9.1082 14.25 12 14.25C14.7373 14.25 17.0634 12.4899 17.9092 10.04C17.7892 10.0841 17.6606 10.1304 17.5254 10.1768C16.8171 10.4195 15.8618 10.6988 15.0459 10.749C13.5774 10.8393 12.5178 10.193 11.6572 9.66895C11.6416 9.65941 11.6259 9.65008 11.6104 9.64062C10.712 9.09375 10.0155 8.68938 9.0459 8.74902ZM6.89453 3.75C6.26248 3.75011 5.75011 4.26248 5.75 4.89453V8C5.75 8.02935 5.75057 8.05863 5.75098 8.08789C5.95303 8.00945 6.20049 7.9172 6.47461 7.82324C7.18296 7.58048 8.13827 7.30116 8.9541 7.25098C10.4227 7.16072 11.4822 7.80693 12.3428 8.33105C12.3584 8.34059 12.3741 8.34993 12.3896 8.35938C13.288 8.90625 13.9845 9.31061 14.9541 9.25098C15.5571 9.21386 16.3522 8.99322 17.0391 8.75781C17.3732 8.64328 17.6656 8.53067 17.874 8.44727C17.9781 8.40565 18.0612 8.37219 18.1172 8.34863L18.1953 8.31445L18.1982 8.31348C18.2129 8.30706 18.2284 8.30034 18.2432 8.29492C18.2478 8.19719 18.25 8.09886 18.25 8V4.89453C18.2499 4.26246 17.7375 3.75009 17.1055 3.75H6.89453Z" fill="#48465C"/>
</svg>
