<svg width="24" height="24" viewBox="0 0 24 24" fill="none" xmlns="http://www.w3.org/2000/svg">
<path d="M7.01367 12.75C7.04926 13.7515 7.15561 14.7381 7.33105 15.6738C7.54992 16.8412 7.87372 17.9172 8.29004 18.8369C8.70391 19.7512 9.21581 20.5249 9.82129 21.0791C10.4298 21.6358 11.1694 22 12 22C6.72952 21.9999 2.41087 17.9226 2.02734 12.75H7.01367ZM21.9727 12.75C21.5892 17.9226 17.2706 22 12 22C12.8309 22 13.5712 21.636 14.1797 21.0791C14.7852 20.525 15.2962 19.7511 15.71 18.8369C16.1263 17.9172 16.45 16.8412 16.6689 15.6738C16.8444 14.738 16.9517 13.7515 16.9873 12.75H21.9727ZM15.4072 12.75C15.3721 13.6776 15.2722 14.5872 15.1113 15.4453C14.907 16.5351 14.6098 17.5106 14.2441 18.3184C13.8761 19.1314 13.46 19.7285 13.0439 20.1094C12.6308 20.4874 12.275 20.6045 12 20.6045C11.725 20.6044 11.37 20.4873 10.957 20.1094C10.5409 19.7285 10.1239 19.1317 9.75586 18.3184C9.39025 17.5106 9.09297 16.535 8.88867 15.4453C8.72782 14.5873 8.62877 13.6776 8.59375 12.75H15.4072ZM12 2C11.1694 2.00003 10.4298 2.36416 9.82129 2.9209C9.2158 3.47499 8.70391 4.24877 8.29004 5.16309C7.87373 6.08286 7.54992 7.15874 7.33105 8.32617C7.15561 9.26197 7.04926 10.2485 7.01367 11.25H2.02734C2.41087 6.07748 6.72952 2.00005 12 2ZM12 3.39551C12.275 3.39551 12.6308 3.51257 13.0439 3.89062C13.4601 4.27147 13.8761 4.86859 14.2441 5.68164C14.6098 6.48948 14.907 7.4649 15.1113 8.55469C15.2722 9.41277 15.3721 10.3224 15.4072 11.25H8.59375C8.62878 10.3224 8.72782 9.41275 8.88867 8.55469C9.09298 7.46496 9.39023 6.48945 9.75586 5.68164C10.1239 4.86842 10.5409 4.27147 10.957 3.89062C11.3701 3.51273 11.725 3.39555 12 3.39551ZM12.4912 2.01172C17.5367 2.2557 21.6011 6.23904 21.9727 11.25H16.9873C16.9517 10.2485 16.8444 9.26198 16.6689 8.32617C16.45 7.15873 16.1263 6.08286 15.71 5.16309C15.2962 4.24886 14.7852 3.47497 14.1797 2.9209C13.6093 2.39888 12.9233 2.04606 12.1553 2.00391L12.4912 2.01172Z" fill="#48465C"/>
</svg>
