<svg width="24" height="24" viewBox="0 0 24 24" fill="none" xmlns="http://www.w3.org/2000/svg">
<path d="M11.9635 2.05371C12.2276 1.98295 12.5061 1.98295 12.7701 2.05371C13.1732 2.16176 13.5167 2.50437 14.2028 3.19043L15.3033 4.29199L15.6705 3.9248C16.3627 3.23265 16.7093 2.88672 17.1393 2.88672C17.5692 2.88689 17.9151 3.23288 18.6071 3.9248L20.0758 5.39258C20.7679 6.08473 21.1139 6.43128 21.1139 6.86133C21.1139 7.29138 20.7679 7.63793 20.0758 8.33008L19.7047 8.7002L20.0758 9.06348L20.8092 9.79785C21.4954 10.484 21.8389 10.8274 21.9469 11.2305C22.0176 11.4943 22.0176 11.7722 21.9469 12.0361C21.8389 12.4392 21.4954 12.7825 20.8092 13.4688C20.1235 14.1545 19.7805 14.4974 19.3776 14.6055C19.1136 14.6763 18.8349 14.6763 18.5709 14.6055C18.168 14.4974 17.825 14.1545 17.1393 13.4688L16.0377 12.3672L12.3668 16.0381L13.4684 17.1396C14.1541 17.8254 14.497 18.1684 14.6051 18.5713C14.6759 18.8353 14.6759 19.1139 14.6051 19.3779C14.497 19.7809 14.1541 20.1238 13.4684 20.8096C12.7822 21.4958 12.4389 21.8393 12.0358 21.9473C11.7718 22.018 11.494 22.018 11.2301 21.9473C10.827 21.8393 10.4836 21.4958 9.79749 20.8096L9.06311 20.0762L8.69592 19.709L8.32971 20.0762C7.63756 20.7683 7.29101 21.1143 6.86096 21.1143C6.43091 21.1143 6.08437 20.7683 5.39221 20.0762L3.92444 18.6074C3.2325 17.9154 2.88652 17.5696 2.88635 17.1396C2.88635 16.7096 3.23228 16.3631 3.92444 15.6709L4.29163 15.3037L3.19006 14.2031C2.50401 13.5171 2.1614 13.1735 2.05334 12.7705C1.98259 12.5065 1.98259 12.228 2.05334 11.9639C2.1615 11.561 2.50434 11.218 3.19006 10.5322C3.8762 9.8461 4.2196 9.50253 4.62268 9.39453C4.88654 9.32386 5.16447 9.32389 5.42834 9.39453C5.83142 9.50253 6.17482 9.8461 6.86096 10.5322L7.96252 11.6328L11.6324 7.96289L10.5319 6.86133C9.84573 6.17519 9.50216 5.83178 9.39417 5.42871C9.32353 5.16483 9.32349 4.88691 9.39417 4.62305C9.50216 4.21997 9.84573 3.87657 10.5319 3.19043C11.2176 2.50471 11.5607 2.16185 11.9635 2.05371Z" fill="#48465C"/>
</svg>
