<svg width="24" height="24" viewBox="0 0 24 24" fill="none" xmlns="http://www.w3.org/2000/svg">
<path d="M11.9636 2.05322C12.2277 1.98246 12.5062 1.98246 12.7702 2.05322C13.1732 2.16127 13.5168 2.50389 14.2028 3.18994L15.3034 4.2915L15.6706 3.92432C16.3628 3.23217 16.7093 2.88623 17.1393 2.88623C17.5693 2.8864 17.9151 3.23239 18.6071 3.92432L20.0759 5.39209C20.768 6.08425 21.1139 6.43079 21.114 6.86084C21.114 7.29089 20.768 7.63744 20.0759 8.32959L19.7048 8.69971L20.0759 9.06299L20.8093 9.79736C21.4955 10.4835 21.839 10.8269 21.947 11.23C22.0177 11.4938 22.0177 11.7717 21.947 12.0356C21.839 12.4387 21.4955 12.7821 20.8093 13.4683C20.1235 14.154 19.7805 14.4969 19.3776 14.605C19.1136 14.6758 18.835 14.6758 18.571 14.605C18.1681 14.4969 17.8251 14.154 17.1393 13.4683L16.0378 12.3667L12.3669 16.0376L13.4684 17.1392C14.1542 17.8249 14.4971 18.1679 14.6052 18.5708C14.676 18.8348 14.676 19.1134 14.6052 19.3774C14.4971 19.7804 14.1542 20.1233 13.4684 20.8091C12.7822 21.4953 12.4389 21.8388 12.0358 21.9468C11.7719 22.0175 11.494 22.0175 11.2302 21.9468C10.8271 21.8388 10.4837 21.4953 9.79755 20.8091L9.06317 20.0757L8.69598 19.7085L8.32977 20.0757C7.63762 20.7678 7.29107 21.1138 6.86102 21.1138C6.43097 21.1138 6.08443 20.7678 5.39227 20.0757L3.9245 18.6069C3.23256 17.915 2.88658 17.5691 2.88641 17.1392C2.88641 16.7092 3.23234 16.3626 3.9245 15.6704L4.29169 15.3032L3.19012 14.2026C2.50407 13.5166 2.16146 13.1731 2.05341 12.77C1.98266 12.506 1.98266 12.2275 2.05341 11.9634C2.16156 11.5605 2.5044 11.2175 3.19012 10.5317C3.87626 9.84561 4.21966 9.50204 4.62274 9.39404C4.8866 9.32337 5.16453 9.3234 5.42841 9.39404C5.83149 9.50204 6.17488 9.84561 6.86102 10.5317L7.96259 11.6323L11.6325 7.9624L10.5319 6.86084C9.84579 6.1747 9.50223 5.83129 9.39423 5.42822C9.32359 5.16435 9.32356 4.88642 9.39423 4.62256C9.50223 4.21948 9.84579 3.87608 10.5319 3.18994C11.2177 2.50422 11.5607 2.16136 11.9636 2.05322Z" fill="#1C274C"/>
</svg>
