<svg width="24" height="24" viewBox="0 0 24 24" fill="none" xmlns="http://www.w3.org/2000/svg">
<path d="M17.8798 7.25C18.0785 7.25 18.2694 7.32929 18.41 7.46973C18.5505 7.61035 18.6298 7.80125 18.6298 8C18.6297 8.19869 18.5504 8.38969 18.41 8.53027L10.41 16.5303C10.2694 16.6706 10.0784 16.749 9.87976 16.749C9.68109 16.749 9.49006 16.6707 9.34949 16.5303L5.34949 12.5303C5.21701 12.3881 5.14489 12.1992 5.14832 12.0049C5.15185 11.8108 5.23084 11.6256 5.36804 11.4883C5.50546 11.3509 5.69132 11.272 5.88562 11.2686C6.07985 11.2652 6.2679 11.3373 6.41003 11.4697L9.87 14.9395L17.3495 7.46973C17.4901 7.32932 17.6811 7.25005 17.8798 7.25Z" fill="#48465C"/>
</svg>
