<svg width="24" height="24" viewBox="0 0 24 24" fill="none" xmlns="http://www.w3.org/2000/svg">
<path d="M12.0001 4.00012C16.9706 4.00017 21.0001 8.02959 21.0001 13.0001C21 17.9706 16.9705 22.0001 12.0001 22.0001C7.02959 22.0001 3.0002 17.9707 3.00012 13.0001C3.00012 8.02956 7.02954 4.00012 12.0001 4.00012ZM12.0001 9.25012C11.5859 9.25012 11.2501 9.58591 11.2501 10.0001V12.2501H9.00012C8.5859 12.2501 8.25012 12.5859 8.25012 13.0001C8.2502 13.4143 8.58596 13.7501 9.00012 13.7501H11.2501V16.0001C11.2502 16.4143 11.586 16.7501 12.0001 16.7501C12.4142 16.7501 12.75 16.4142 12.7501 16.0001V13.7501H15.0001C15.4142 13.7501 15.75 13.4142 15.7501 13.0001C15.7501 12.5859 15.4143 12.2502 15.0001 12.2501H12.7501V10.0001C12.7501 9.58594 12.4143 9.25017 12.0001 9.25012ZM7.10266 1.36438C7.45392 1.14485 7.91633 1.25142 8.13586 1.60266C8.35536 1.95387 8.24872 2.4163 7.89758 2.63586L3.89758 5.13586C3.54638 5.35536 3.08395 5.24869 2.86438 4.89758C2.64485 4.54633 2.75142 4.08391 3.10266 3.86438L7.10266 1.36438ZM15.8644 1.60266C16.0839 1.2515 16.5463 1.14487 16.8976 1.36438L20.8976 3.86438C21.2486 4.08396 21.3553 4.54639 21.1359 4.89758C20.9162 5.24878 20.4538 5.35537 20.1027 5.13586L16.1027 2.63586C15.7514 2.41633 15.6448 1.95391 15.8644 1.60266Z" fill="#48465C"/>
</svg>
