<svg width="24" height="24" viewBox="0 0 24 24" fill="none" xmlns="http://www.w3.org/2000/svg">
<path d="M18.5 15C18.9647 15 19.1974 14.9997 19.3906 15.0381C20.1837 15.196 20.804 15.8163 20.9619 16.6094C21.0003 16.8026 21 17.0353 21 17.5V19.5C21 19.9647 21.0003 20.1974 20.9619 20.3906C20.804 21.1837 20.1837 21.804 19.3906 21.9619C19.1974 22.0003 18.9647 22 18.5 22C18.0353 22 17.8026 22.0003 17.6094 21.9619C16.8163 21.804 16.196 21.1837 16.0381 20.3906C15.9997 20.1974 16 19.9647 16 19.5V19.25H8V19.5C8 19.9647 8.00034 20.1974 7.96191 20.3906C7.80402 21.1837 7.18371 21.804 6.39062 21.9619C6.19742 22.0003 5.96466 22 5.5 22C5.03534 22 4.80258 22.0003 4.60938 21.9619C3.81629 21.804 3.19598 21.1837 3.03809 20.3906C2.99966 20.1974 3 19.9647 3 19.5V17.5C3 17.0353 2.99966 16.8026 3.03809 16.6094C3.19598 15.8163 3.81629 15.196 4.60938 15.0381C4.80258 14.9997 5.03534 15 5.5 15C5.96466 15 6.19742 14.9997 6.39062 15.0381C7.18371 15.196 7.80402 15.8163 7.96191 16.6094C8.00034 16.8026 8 17.0353 8 17.5V17.75H11.25V16C11.25 15.5858 11.5858 15.25 12 15.25C12.4142 15.25 12.75 15.5858 12.75 16V17.75H16V17.5C16 17.0353 15.9997 16.8026 16.0381 16.6094C16.196 15.8163 16.8163 15.196 17.6094 15.0381C17.8026 14.9997 18.0353 15 18.5 15ZM13.4697 9.46973C13.7626 9.17684 14.2374 9.17684 14.5303 9.46973C14.8232 9.76262 14.8232 10.2374 14.5303 10.5303L13.0605 12L14.5303 13.4697C14.8232 13.7626 14.8232 14.2374 14.5303 14.5303C14.2374 14.8232 13.7626 14.8232 13.4697 14.5303L12 13.0605L10.5303 14.5303C10.2374 14.8232 9.76262 14.8232 9.46973 14.5303C9.17684 14.2374 9.17684 13.7626 9.46973 13.4697L10.9395 12L9.46973 10.5303C9.17684 10.2374 9.17684 9.76262 9.46973 9.46973C9.76262 9.17684 10.2374 9.17684 10.5303 9.46973L12 10.9395L13.4697 9.46973ZM18.5 2C18.9647 2 19.1974 1.99966 19.3906 2.03809C20.1837 2.19598 20.804 2.81629 20.9619 3.60938C21.0003 3.80257 21 4.03534 21 4.5V6.5C21 6.96466 21.0003 7.19742 20.9619 7.39062C20.804 8.18371 20.1837 8.80402 19.3906 8.96191C19.1974 9.00034 18.9647 9 18.5 9C18.0353 9 17.8026 9.00034 17.6094 8.96191C16.8163 8.80402 16.196 8.18371 16.0381 7.39062C15.9997 7.19742 16 6.96466 16 6.5V6.25H12.75V8C12.75 8.41421 12.4142 8.75 12 8.75C11.5858 8.75 11.25 8.41421 11.25 8V6.25H8V6.5C8 6.96466 8.00034 7.19742 7.96191 7.39062C7.80401 8.18371 7.18371 8.80401 6.39062 8.96191C6.19742 9.00034 5.96466 9 5.5 9C5.03534 9 4.80258 9.00034 4.60938 8.96191C3.81629 8.80401 3.19599 8.18371 3.03809 7.39062C2.99966 7.19742 3 6.96466 3 6.5V4.5C3 4.03534 2.99966 3.80257 3.03809 3.60938C3.19599 2.81629 3.81629 2.19599 4.60938 2.03809C4.80258 1.99966 5.03534 2 5.5 2C5.96466 2 6.19742 1.99966 6.39062 2.03809C7.18371 2.19599 7.80401 2.81629 7.96191 3.60938C8.00034 3.80257 8 4.03534 8 4.5V4.75H16V4.5C16 4.03534 15.9997 3.80257 16.0381 3.60938C16.196 2.81629 16.8163 2.19598 17.6094 2.03809C17.8026 1.99966 18.0353 2 18.5 2Z" fill="#1C274C"/>
</svg>
