<svg width="24" height="24" viewBox="0 0 24 24" fill="none" xmlns="http://www.w3.org/2000/svg">
<path d="M14.5 1.25C15.6617 1.25 16.6177 2.13073 16.7373 3.26074C17.5004 3.27628 18.1603 3.31546 18.7236 3.41895C19.4816 3.55817 20.1264 3.82373 20.6514 4.34863C21.2533 4.95055 21.5128 5.70829 21.6338 6.6084C21.7503 7.47534 21.75 8.57782 21.75 9.94531V16.0547C21.75 17.4222 21.7503 18.5246 21.6338 19.3916C21.5128 20.2917 21.2533 21.0494 20.6514 21.6514C20.0494 22.2533 19.2917 22.5128 18.3916 22.6338C17.5246 22.7503 16.4222 22.75 15.0547 22.75H8.94531C7.57782 22.75 6.47534 22.7503 5.6084 22.6338C4.70829 22.5128 3.95055 22.2533 3.34863 21.6514C2.74673 21.0494 2.48723 20.2917 2.36621 19.3916C2.24968 18.5246 2.24998 17.4222 2.25 16.0547V9.94531C2.24998 8.57782 2.24968 7.47534 2.36621 6.6084C2.48723 5.70829 2.74671 4.95055 3.34863 4.34863C3.87356 3.8237 4.51838 3.55818 5.27637 3.41895C5.83974 3.31546 6.49962 3.27628 7.2627 3.26074C7.38229 2.13073 8.33828 1.25 9.5 1.25H14.5ZM16.7354 4.76074C16.6062 5.88049 15.6544 6.75 14.5 6.75H9.5C8.34559 6.75 7.39393 5.88049 7.26465 4.76074C6.54662 4.77608 5.99282 4.81262 5.54688 4.89453C4.98038 4.99866 4.65256 5.1658 4.40918 5.40918C4.13242 5.68594 3.95217 6.07482 3.85352 6.80859C3.75201 7.5639 3.75 8.56484 3.75 10V16C3.75 17.4354 3.75196 18.437 3.85352 19.1924C3.95218 19.9258 4.13249 20.3141 4.40918 20.5908C4.68594 20.8676 5.07482 21.0478 5.80859 21.1465C6.5639 21.2479 7.56484 21.25 9 21.25H15C16.4354 21.25 17.437 21.248 18.1924 21.1465C18.9258 21.0478 19.3141 20.8676 19.5908 20.5908C19.8676 20.3141 20.0478 19.9258 20.1465 19.1924C20.248 18.437 20.25 17.4354 20.25 16V10C20.25 8.56484 20.2479 7.5639 20.1465 6.80859C20.0478 6.07481 19.8676 5.68594 19.5908 5.40918C19.3474 5.1658 19.0196 4.99866 18.4531 4.89453C18.0071 4.81262 17.4534 4.77608 16.7354 4.76074ZM15 16.75C15.4142 16.75 15.75 17.0858 15.75 17.5C15.75 17.9142 15.4142 18.25 15 18.25H9C8.58579 18.25 8.25 17.9142 8.25 17.5C8.25 17.0858 8.58579 16.75 9 16.75H15ZM16 13.25C16.4142 13.25 16.75 13.5858 16.75 14C16.75 14.4142 16.4142 14.75 16 14.75H8C7.58579 14.75 7.25 14.4142 7.25 14C7.25 13.5858 7.58579 13.25 8 13.25H16ZM17 9.75C17.4142 9.75 17.75 10.0858 17.75 10.5C17.75 10.9142 17.4142 11.25 17 11.25H7C6.58579 11.25 6.25 10.9142 6.25 10.5C6.25 10.0858 6.58579 9.75 7 9.75H17ZM9.5 2.75C9.08579 2.75 8.75 3.08579 8.75 3.5V4.5C8.75 4.91421 9.08579 5.25 9.5 5.25H14.5C14.9142 5.25 15.25 4.91421 15.25 4.5V3.5C15.25 3.08579 14.9142 2.75 14.5 2.75H9.5Z" fill="#48465C"/>
</svg>
