<svg width="24" height="24" viewBox="0 0 24 24" fill="none" xmlns="http://www.w3.org/2000/svg">
<path d="M5 1.25C5.41421 1.25 5.75 1.58579 5.75 2V11C5.75 12.9067 5.7515 14.2614 5.88965 15.2891C6.02491 16.2951 6.27894 16.8747 6.70215 17.2979C7.12536 17.7211 7.70485 17.9752 8.71094 18.1104C9.73858 18.2485 11.0933 18.25 13 18.25H22C22.4142 18.25 22.75 18.5858 22.75 19C22.75 19.4142 22.4142 19.75 22 19.75H19.75V22C19.75 22.4142 19.4142 22.75 19 22.75C18.5858 22.75 18.25 22.4142 18.25 22V19.75H12.9434C11.1057 19.75 9.6499 19.7498 8.51074 19.5967C7.33843 19.439 6.38992 19.1066 5.6416 18.3584C4.89332 17.6101 4.56096 16.6615 4.40332 15.4893C4.25017 14.3501 4.24998 12.8943 4.25 11.0566V5.75H2C1.58579 5.75 1.25 5.41421 1.25 5C1.25 4.58579 1.58579 4.25 2 4.25H4.25V2C4.25 1.58579 4.58579 1.25 5 1.25ZM11.0566 4.25C12.8943 4.24998 14.3501 4.25017 15.4893 4.40332C16.6615 4.56096 17.6101 4.89332 18.3584 5.6416C19.1066 6.38992 19.439 7.33843 19.5967 8.51074C19.7498 9.6499 19.75 11.1057 19.75 12.9434V16C19.75 16.4142 19.4142 16.75 19 16.75C18.5858 16.75 18.25 16.4142 18.25 16V13C18.25 11.0933 18.2485 9.73858 18.1104 8.71094C17.9752 7.70485 17.7211 7.12536 17.2979 6.70215C16.8747 6.27894 16.2951 6.02491 15.2891 5.88965C14.2614 5.7515 12.9067 5.75 11 5.75H8C7.58579 5.75 7.25 5.41421 7.25 5C7.25 4.58579 7.58579 4.25 8 4.25H11.0566ZM12.5 8.5C13.9142 8.5 14.6211 8.50013 15.0605 8.93945C15.4998 9.37879 15.5 10.0858 15.5 11.5V12.5C15.5 13.9142 15.4998 14.6211 15.0605 15.0605C14.6211 15.4998 13.9142 15.5 12.5 15.5H11.5C10.0858 15.5 9.37879 15.4998 8.93945 15.0605C8.50013 14.6211 8.5 13.9142 8.5 12.5V11.5C8.5 10.0858 8.50011 9.37879 8.93945 8.93945C9.37879 8.50011 10.0858 8.5 11.5 8.5H12.5Z" fill="#1C274C"/>
</svg>
