<svg width="24" height="24" viewBox="0 0 24 24" fill="none" xmlns="http://www.w3.org/2000/svg">
<path d="M14.989 3.98926C15.2708 3.68608 15.7452 3.66873 16.0486 3.9502L21.2654 8.79395C22.2122 9.67319 22.7497 10.9071 22.7498 12.1992C22.7498 13.5614 22.1523 14.8554 21.115 15.7383L16.0251 20.0713C15.7098 20.3398 15.236 20.3017 14.9675 19.9863C14.699 19.6709 14.7371 19.1972 15.0525 18.9287L20.1433 14.5957C20.8456 13.9977 21.2498 13.1216 21.2498 12.1992C21.2497 11.3244 20.8859 10.489 20.2449 9.89355L15.0281 5.0498C14.7245 4.76795 14.7072 4.29278 14.989 3.98926ZM11.5183 4.61328C11.6977 4.61999 11.9095 4.80822 12.3318 5.18359L17.3093 9.6084C18.2396 10.4354 18.7051 10.8488 18.8767 11.3369C19.0273 11.7657 19.0272 12.2333 18.8767 12.6621C18.7052 13.1504 18.2398 13.5644 17.3093 14.3916L12.3318 18.8164C11.9095 19.1917 11.6977 19.379 11.5183 19.3857C11.3627 19.3915 11.213 19.3243 11.114 19.2041C11.0001 19.0655 10.9998 18.783 10.9998 18.2188V15.4287C8.5718 15.4288 6.00706 16.2084 4.13452 17.5928C3.16016 18.3131 2.67287 18.6732 2.48706 18.6592C2.30619 18.6454 2.19128 18.575 2.09741 18.4199C2.00108 18.2605 2.08545 17.7624 2.25562 16.7666C3.36056 10.3007 7.81068 8.5714 10.9998 8.57129V5.78125C10.9998 5.21633 10.9998 4.93342 11.114 4.79492C11.213 4.67481 11.3627 4.60759 11.5183 4.61328Z" fill="#48465C"/>
</svg>
