<svg width="24" height="24" viewBox="0 0 24 24" fill="none" xmlns="http://www.w3.org/2000/svg">
<path d="M14.989 3.98926C15.2708 3.6861 15.7451 3.66871 16.0485 3.9502L21.2653 8.79395C22.2121 9.67319 22.7496 10.9071 22.7497 12.1992C22.7497 13.5614 22.1522 14.8554 21.1149 15.7383L16.0241 20.0713C15.7088 20.3394 15.2359 20.3016 14.9675 19.9863C14.699 19.6709 14.737 19.1972 15.0524 18.9287L20.1432 14.5957C20.8455 13.9977 21.2497 13.1216 21.2497 12.1992C21.2496 11.3244 20.8858 10.489 20.2448 9.89355L15.028 5.0498C14.7244 4.76795 14.7072 4.29279 14.989 3.98926ZM11.5182 4.61328C11.6976 4.61999 11.9094 4.80822 12.3317 5.18359L17.3093 9.6084C18.2395 10.4354 18.705 10.8488 18.8766 11.3369C19.0272 11.7657 19.0271 12.2333 18.8766 12.6621C18.7051 13.1504 18.2398 13.5644 17.3093 14.3916L12.3317 18.8164C11.9094 19.1917 11.6976 19.379 11.5182 19.3857C11.3626 19.3915 11.213 19.3243 11.114 19.2041C11.0001 19.0655 10.9997 18.783 10.9997 18.2188V15.4287C8.57174 15.4288 6.00699 16.2084 4.13446 17.5928C3.1601 18.3131 2.67281 18.6732 2.487 18.6592C2.30613 18.6454 2.19122 18.575 2.09735 18.4199C2.00102 18.2605 2.08539 17.7624 2.25555 16.7666C3.3605 10.3007 7.81062 8.5714 10.9997 8.57129V5.78125C10.9997 5.21633 10.9998 4.93342 11.114 4.79492C11.213 4.67482 11.3627 4.60759 11.5182 4.61328Z" fill="#1C274C"/>
</svg>
