<svg width="24" height="24" viewBox="0 0 24 24" fill="none" xmlns="http://www.w3.org/2000/svg">
<path d="M7.5 10.25C10.9518 10.25 13.75 13.0482 13.75 16.5C13.75 19.9518 10.9518 22.75 7.5 22.75C4.04822 22.75 1.25 19.9518 1.25 16.5C1.25 13.0482 4.04822 10.25 7.5 10.25ZM15.4443 1.25C18.9192 1.26796 21.7321 4.08074 21.75 7.55566V19.5205C21.75 19.64 21.75 19.7278 21.7461 19.8057C21.6661 21.3954 20.3954 22.6661 18.8057 22.7461C18.7277 22.75 18.64 22.75 18.5205 22.75H18.4795C18.36 22.75 18.2723 22.75 18.1943 22.7461C16.6046 22.6661 15.3339 21.3954 15.2539 19.8057C15.25 19.7278 15.25 19.6401 15.25 19.5205V12C15.25 11.8619 15.1381 11.75 15 11.75C12.9289 11.75 11.25 10.0711 11.25 8V5.33203C11.2616 3.08261 13.0826 1.26162 15.332 1.25H15.4443ZM7.5 11.75C4.87665 11.75 2.75 13.8766 2.75 16.5C2.75 19.1234 4.87665 21.25 7.5 21.25C10.1234 21.25 12.25 19.1234 12.25 16.5C12.25 13.8766 10.1234 11.75 7.5 11.75ZM16.75 19.5C16.75 19.6484 16.7502 19.6951 16.752 19.7305C16.7933 20.5509 17.4491 21.2067 18.2695 21.248C18.3049 21.2498 18.3516 21.25 18.5 21.25C18.6484 21.25 18.6951 21.2498 18.7305 21.248C19.5509 21.2067 20.2067 20.5509 20.248 19.7305C20.2498 19.6951 20.25 19.6484 20.25 19.5V19.417H16.75V19.5ZM7.5 13.25C8.6088 13.25 9.75 14.0232 9.75 15.25C9.75 16.0358 9.28135 16.6352 8.65332 16.9648L9.64355 18.6143C9.85641 18.9694 9.74083 19.4305 9.38574 19.6436C9.0306 19.8564 8.5695 19.7408 8.35645 19.3857L7.0752 17.25H6.75V19C6.75 19.4142 6.41421 19.75 6 19.75C5.58579 19.75 5.25 19.4142 5.25 19V14C5.25 13.5858 5.58579 13.25 6 13.25H7.5ZM15.3379 2.75C13.9121 2.75824 12.7583 3.91212 12.75 5.33789V8C12.75 9.24264 13.7574 10.25 15 10.25C15.9665 10.25 16.75 11.0335 16.75 12V17.917H20.25V7.56152C20.2354 4.91034 18.0897 2.76463 15.4385 2.75H15.3379ZM6.75 15.75H7.5C8.04806 15.75 8.25 15.4039 8.25 15.25C8.25 15.0961 8.04806 14.75 7.5 14.75H6.75V15.75ZM8.85059 4.36523C9.25653 4.28283 9.65295 4.54524 9.73535 4.95117C9.81748 5.3569 9.55508 5.75249 9.14941 5.83496C7.48547 6.17272 6.17272 7.48547 5.83496 9.14941C5.75249 9.55509 5.35689 9.81748 4.95117 9.73535C4.54523 9.65295 4.28283 9.25653 4.36523 8.85059C4.8229 6.59647 6.59647 4.8229 8.85059 4.36523ZM15 4.25C15.4142 4.25 15.75 4.58579 15.75 5V8C15.75 8.41422 15.4142 8.75 15 8.75C14.5858 8.75 14.25 8.41422 14.25 8V5C14.25 4.58579 14.5858 4.25 15 4.25Z" fill="#48465C"/>
</svg>
