<svg width="24" height="24" viewBox="0 0 24 24" fill="none" xmlns="http://www.w3.org/2000/svg">
<path d="M10.0303 2C10.6361 2 11.1218 1.99995 11.5303 2.0166C11.5169 2.09653 11.5091 2.1783 11.5088 2.26074L11.5 5.09473C11.4999 6.19183 11.4994 7.16184 11.6045 7.94336C11.7184 8.79041 11.9807 9.63693 12.6719 10.3281C13.363 11.0194 14.2096 11.2816 15.0566 11.3955C15.8382 11.5006 16.8082 11.5001 17.9053 11.5H21.957C21.9996 12.0342 22 12.6899 22 13.5625V14C22 17.7712 21.9997 19.6566 20.8281 20.8281C19.6566 21.9997 17.7712 22 14 22H10C6.22878 22 4.34346 21.9997 3.17188 20.8281C2.00031 19.6566 2 17.7712 2 14V10C2 6.22876 2.00031 4.34345 3.17188 3.17188C4.34345 2.00031 6.23916 2 10.0303 2ZM15.624 17.084C15.3943 16.7394 14.9285 16.6463 14.584 16.876C13.0192 17.9191 10.9807 17.9192 9.41602 16.876C9.0714 16.6463 8.60574 16.7393 8.37598 17.084C8.14623 17.4286 8.23941 17.8943 8.58398 18.124C10.6525 19.5031 13.3474 19.5031 15.416 18.124C15.7607 17.8943 15.8538 17.4286 15.624 17.084ZM7 13C6.44772 13 6 13.6716 6 14.5C6 15.3284 6.44772 16 7 16C7.55228 16 8 15.3284 8 14.5C8 13.6716 7.55228 13 7 13ZM17 13C16.4477 13 16 13.6716 16 14.5C16 15.3284 16.4477 16 17 16C17.5523 16 18 15.3284 18 14.5C18 13.6716 17.5523 13 17 13ZM13.0088 2.26562C13.7007 2.53113 14.2649 3.03876 15.3926 4.05371L19.3516 7.61621C20.5682 8.71115 21.2175 9.29582 21.5801 10H18C15.643 10 14.4647 9.99981 13.7324 9.26758C13.0003 8.53535 13 7.35698 13 5L13.0088 2.26562Z" fill="#1C274C"/>
</svg>
