<svg width="24" height="24" viewBox="0 0 24 24" fill="none" xmlns="http://www.w3.org/2000/svg">
<path d="M15 1.25C15.4142 1.25 15.75 1.58579 15.75 2V3.32715C16.0099 3.34697 16.2564 3.37201 16.4893 3.40332C17.6615 3.56096 18.6101 3.89332 19.3584 4.6416C20.1066 5.38992 20.439 6.33843 20.5967 7.51074C20.628 7.74366 20.6531 7.99006 20.6729 8.25H22C22.4142 8.25 22.75 8.58579 22.75 9C22.75 9.41421 22.4142 9.75 22 9.75H20.7373C20.7462 10.216 20.7492 10.7154 20.75 11.25H22C22.4142 11.25 22.75 11.5858 22.75 12C22.75 12.4142 22.4142 12.75 22 12.75H20.75C20.7492 13.2846 20.7462 13.784 20.7373 14.25H22C22.4142 14.25 22.75 14.5858 22.75 15C22.75 15.4142 22.4142 15.75 22 15.75H20.6729C20.6531 16.0099 20.628 16.2564 20.5967 16.4893C20.439 17.6615 20.1066 18.6101 19.3584 19.3584C18.6101 20.1066 17.6615 20.439 16.4893 20.5967C16.2564 20.628 16.0099 20.6531 15.75 20.6729V22C15.75 22.4142 15.4142 22.75 15 22.75C14.5858 22.75 14.25 22.4142 14.25 22V20.7373C13.784 20.7462 13.2846 20.7492 12.75 20.75V22C12.75 22.4142 12.4142 22.75 12 22.75C11.5858 22.75 11.25 22.4142 11.25 22V20.75C10.7154 20.7492 10.216 20.7462 9.75 20.7373V22C9.75 22.4142 9.41421 22.75 9 22.75C8.58579 22.75 8.25 22.4142 8.25 22V20.6729C7.99006 20.6531 7.74366 20.628 7.51074 20.5967C6.33843 20.439 5.38992 20.1066 4.6416 19.3584C3.89332 18.6101 3.56096 17.6615 3.40332 16.4893C3.37201 16.2564 3.34697 16.0099 3.32715 15.75H2C1.58579 15.75 1.25 15.4142 1.25 15C1.25 14.5858 1.58579 14.25 2 14.25H3.2627C3.25374 13.784 3.25079 13.2846 3.25 12.75H2C1.58579 12.75 1.25 12.4142 1.25 12C1.25 11.5858 1.58579 11.25 2 11.25H3.25C3.25079 10.7154 3.25374 10.216 3.2627 9.75H2C1.58579 9.75 1.25 9.41421 1.25 9C1.25 8.58579 1.58579 8.25 2 8.25H3.32715C3.34697 7.99006 3.37201 7.74366 3.40332 7.51074C3.56096 6.33843 3.8933 5.38992 4.6416 4.6416C5.38992 3.8933 6.33843 3.56096 7.51074 3.40332C7.74366 3.37201 7.99006 3.34697 8.25 3.32715V2C8.25 1.58579 8.58579 1.25 9 1.25C9.41421 1.25 9.75 1.58579 9.75 2V3.2627C10.216 3.25374 10.7154 3.25079 11.25 3.25V2C11.25 1.58579 11.5858 1.25 12 1.25C12.4142 1.25 12.75 1.58579 12.75 2V3.25C13.2846 3.25079 13.784 3.25374 14.25 3.2627V2C14.25 1.58579 14.5858 1.25 15 1.25ZM12 4.75C10.0933 4.75 8.73859 4.75149 7.71094 4.88965C6.70485 5.02491 6.12536 5.27894 5.70215 5.70215C5.27894 6.12536 5.02491 6.70485 4.88965 7.71094C4.75149 8.73859 4.75 10.0933 4.75 12C4.75 13.9067 4.7515 15.2614 4.88965 16.2891C5.02491 17.2951 5.27894 17.8747 5.70215 18.2979C6.12536 18.7211 6.70485 18.9752 7.71094 19.1104C8.73858 19.2485 10.0933 19.25 12 19.25C13.9067 19.25 15.2614 19.2485 16.2891 19.1104C17.2951 18.9752 17.8747 18.7211 18.2979 18.2979C18.7211 17.8747 18.9752 17.2951 19.1104 16.2891C19.2485 15.2614 19.25 13.9067 19.25 12C19.25 10.0933 19.2485 8.73858 19.1104 7.71094C18.9752 6.70485 18.7211 6.12536 18.2979 5.70215C17.8747 5.27894 17.2951 5.02491 16.2891 4.88965C15.2614 4.7515 13.9067 4.75 12 4.75ZM14.0498 6.25C14.7144 6.24996 15.2875 6.24986 15.7461 6.31152C16.2377 6.37763 16.7086 6.52701 17.0908 6.90918C17.473 7.29137 17.6224 7.76235 17.6885 8.25391C17.7502 8.71255 17.75 9.28552 17.75 9.9502V14.0498C17.75 14.7144 17.7502 15.2875 17.6885 15.7461C17.6224 16.2377 17.4729 16.7086 17.0908 17.0908C16.7086 17.4729 16.2377 17.6224 15.7461 17.6885C15.2875 17.7502 14.7144 17.75 14.0498 17.75H9.9502C9.28552 17.75 8.71255 17.7502 8.25391 17.6885C7.76235 17.6224 7.29137 17.473 6.90918 17.0908C6.52701 16.7086 6.37763 16.2377 6.31152 15.7461C6.24986 15.2875 6.24996 14.7144 6.25 14.0498V9.9502C6.24996 9.28552 6.24986 8.71255 6.31152 8.25391C6.37763 7.76235 6.52699 7.29137 6.90918 6.90918C7.29137 6.52699 7.76235 6.37763 8.25391 6.31152C8.71255 6.24986 9.28552 6.24996 9.9502 6.25H14.0498ZM10 7.75C9.27177 7.75 8.80097 7.75123 8.4541 7.79785C8.12879 7.84159 8.02682 7.91264 7.96973 7.96973C7.91264 8.02682 7.84159 8.12879 7.79785 8.4541C7.75123 8.80097 7.75 9.27177 7.75 10V14C7.75 14.7282 7.75123 15.199 7.79785 15.5459C7.84159 15.8712 7.91264 15.9732 7.96973 16.0303C8.02682 16.0874 8.12882 16.1584 8.4541 16.2021C8.80097 16.2487 9.27177 16.25 10 16.25H14C14.7282 16.25 15.199 16.2487 15.5459 16.2021C15.8712 16.1583 15.9732 16.0874 16.0303 16.0303C16.0874 15.9732 16.1583 15.8712 16.2021 15.5459C16.2487 15.199 16.25 14.7282 16.25 14V10C16.25 9.27177 16.2487 8.80097 16.2021 8.4541C16.1584 8.12882 16.0874 8.02682 16.0303 7.96973C15.9732 7.91264 15.8712 7.84159 15.5459 7.79785C15.199 7.75123 14.7282 7.75 14 7.75H10ZM11.8184 9.56445C12.059 9.22745 12.5272 9.14905 12.8643 9.38965C13.2013 9.63033 13.2795 10.0986 13.0391 10.4355L12.457 11.25H13C13.2809 11.25 13.5384 11.4074 13.667 11.6572C13.7952 11.9069 13.7734 12.2071 13.6104 12.4355L12.1816 14.4355C11.941 14.7726 11.4728 14.851 11.1357 14.6104C10.7987 14.3696 10.7205 13.9014 10.9609 13.5645L11.543 12.75H11C10.7191 12.75 10.4616 12.5926 10.333 12.3428C10.2048 12.0931 10.2266 11.7929 10.3896 11.5645L11.8184 9.56445Z" fill="#1C274C"/>
</svg>
