<svg width="24" height="24" viewBox="0 0 24 24" fill="none" xmlns="http://www.w3.org/2000/svg">
<path d="M21.5009 15.4404C21.8093 15.1656 22.2825 15.1913 22.5585 15.499C22.8351 15.8073 22.8093 16.282 22.5009 16.5586L22.4989 16.5596L22.4979 16.5615L22.4931 16.5654L22.4794 16.5771C22.4684 16.5867 22.4534 16.5996 22.4345 16.6152C22.3965 16.647 22.3422 16.6912 22.2724 16.7451C22.1329 16.8529 21.9294 17.001 21.663 17.1738C21.1299 17.5195 20.3422 17.9649 19.2997 18.3818L16.4911 19.5049C16.4525 19.5204 16.4139 19.5355 16.3759 19.5508C14.4991 20.3017 13.3791 20.75 11.9999 20.75C10.6208 20.75 9.50145 20.3016 7.62489 19.5508C7.58665 19.5355 7.54756 19.5205 7.50868 19.5049L4.70009 18.3818C3.65746 17.9649 2.86989 17.5195 2.33681 17.1738C2.07024 17.0009 1.86691 16.8529 1.72743 16.7451C1.65777 16.6913 1.60434 16.647 1.5663 16.6152C1.54727 16.5994 1.53151 16.5867 1.5204 16.5771L1.50673 16.5654L1.50185 16.5615L1.50087 16.5596L1.49989 16.5586C1.19159 16.282 1.1648 15.8073 1.4413 15.499L2.50282 15.4434C2.50726 15.4473 2.51547 15.4541 2.52724 15.4639C2.55125 15.484 2.59005 15.5166 2.64442 15.5586C2.75317 15.6427 2.92331 15.7659 3.15321 15.915C3.61307 16.2132 4.31461 16.611 5.25771 16.9883L8.0663 18.1123C10.0908 18.922 10.9396 19.25 11.9999 19.25C13.0603 19.25 13.9096 18.9222 15.9345 18.1123L18.7431 16.9883C19.686 16.611 20.3878 16.2132 20.8475 15.915C21.0771 15.7661 21.2467 15.6426 21.3554 15.5586C21.4097 15.5166 21.4485 15.484 21.4725 15.4639C21.4843 15.4541 21.4925 15.4473 21.497 15.4434L21.4999 15.4414L21.5009 15.4404ZM21.5009 11.4404C21.8093 11.1656 22.2825 11.1913 22.5585 11.499C22.8351 11.8073 22.8093 12.282 22.5009 12.5586L22.4989 12.5596L22.4979 12.5615L22.4931 12.5654L22.4794 12.5771C22.4684 12.5867 22.4534 12.5996 22.4345 12.6152C22.3965 12.647 22.3422 12.6912 22.2724 12.7451C22.1329 12.8529 21.9294 13.001 21.663 13.1738C21.1299 13.5195 20.3422 13.9649 19.2997 14.3818L16.4911 15.5049C16.4525 15.5204 16.4139 15.5355 16.3759 15.5508C14.4991 16.3017 13.3791 16.75 11.9999 16.75C10.6208 16.75 9.50146 16.3016 7.62489 15.5508C7.58666 15.5355 7.54756 15.5205 7.50868 15.5049L4.70009 14.3818C3.65746 13.9649 2.86989 13.5195 2.33681 13.1738C2.07024 13.0009 1.86691 12.8529 1.72743 12.7451C1.65777 12.6913 1.60434 12.647 1.5663 12.6152C1.54727 12.5994 1.53151 12.5867 1.5204 12.5771L1.50673 12.5654L1.50185 12.5615L1.50087 12.5596L1.49989 12.5586C1.19159 12.282 1.1648 11.8073 1.4413 11.499C1.71734 11.1913 2.19054 11.1656 2.49892 11.4404L2.50282 11.4434C2.50726 11.4473 2.51547 11.4541 2.52724 11.4639C2.55125 11.484 2.59005 11.5166 2.64442 11.5586C2.75317 11.6427 2.92331 11.7659 3.15321 11.915C3.61307 12.2132 4.31461 12.611 5.25771 12.9883L8.0663 14.1123C10.0908 14.922 10.9396 15.25 11.9999 15.25C13.0603 15.25 13.9096 14.9222 15.9345 14.1123L18.7431 12.9883C19.686 12.611 20.3878 12.2132 20.8475 11.915C21.0771 11.7661 21.2467 11.6426 21.3554 11.5586C21.4097 11.5166 21.4485 11.484 21.4725 11.4639C21.4843 11.4541 21.4925 11.4473 21.497 11.4434L21.4999 11.4414L21.5009 11.4404ZM11.9999 3.25C13.3791 3.25 14.4991 3.69828 16.3759 4.44922L19.3446 5.63672C20.2991 6.01853 21.0727 6.3282 21.6034 6.60645C21.8719 6.7472 22.1323 6.90629 22.3329 7.09863C22.5391 7.29637 22.7499 7.59658 22.7499 8C22.7499 8.40342 22.5391 8.70363 22.3329 8.90137C22.1323 9.09371 21.8719 9.2528 21.6034 9.39355C21.0727 9.67179 20.2991 9.98146 19.3446 10.3633L16.3759 11.5508C14.4991 12.3017 13.3791 12.75 11.9999 12.75C10.6208 12.75 9.50145 12.3016 7.62489 11.5508L4.65517 10.3633C3.70059 9.98147 2.92711 9.67179 2.39638 9.39355C2.1279 9.25279 1.86745 9.09373 1.66689 8.90137C1.46073 8.70363 1.24989 8.40342 1.24989 8C1.24989 7.59658 1.46073 7.29637 1.66689 7.09863C1.86745 6.90627 2.1279 6.74721 2.39638 6.60645C2.92712 6.3282 3.70058 6.01854 4.65517 5.63672L7.62489 4.44922C9.50146 3.69837 10.6208 3.25002 11.9999 3.25Z" fill="#1C274C"/>
</svg>
