<svg width="24" height="24" viewBox="0 0 24 24" fill="none" xmlns="http://www.w3.org/2000/svg">
<path d="M10.5935 2.31885C11.4828 1.89379 12.5167 1.89389 13.406 2.31885C13.7924 2.50352 14.1472 2.805 14.6375 3.22314C14.6628 3.24484 14.6884 3.26724 14.7146 3.28955C14.9525 3.49236 15.0274 3.55512 15.1033 3.60596C15.2962 3.73525 15.5132 3.82461 15.741 3.86963C15.8306 3.88732 15.9282 3.8965 16.24 3.92139C16.2742 3.92412 16.3084 3.92657 16.3416 3.9292C16.9837 3.98015 17.4476 4.01705 17.8513 4.15967C18.7809 4.48799 19.5123 5.21946 19.8406 6.14893C19.9831 6.55267 20.0201 7.01653 20.071 7.65869C20.0737 7.69203 20.0761 7.72593 20.0789 7.76025C20.1037 8.07159 20.113 8.1688 20.1306 8.2583C20.1755 8.48612 20.2651 8.70308 20.3943 8.896C20.4452 8.97187 20.5078 9.04756 20.7107 9.28564C20.7329 9.31169 20.7546 9.3375 20.7761 9.36279C21.1943 9.85298 21.4967 10.2069 21.6814 10.5933C22.1064 11.4825 22.1063 12.5165 21.6814 13.4058C21.4967 13.7922 21.1943 14.1469 20.7761 14.6372C20.7546 14.6625 20.7329 14.6882 20.7107 14.7144C20.508 14.9521 20.4452 15.0272 20.3943 15.103C20.265 15.2959 20.1755 15.5129 20.1306 15.7407C20.1129 15.8303 20.1038 15.9279 20.0789 16.2397C20.0761 16.2739 20.0737 16.3081 20.071 16.3413C20.0201 16.9834 19.9831 17.4473 19.8406 17.8511C19.5123 18.7807 18.7809 19.512 17.8513 19.8403C17.4476 19.9829 16.9837 20.0198 16.3416 20.0708C16.3083 20.0735 16.2742 20.0758 16.24 20.0786C15.9282 20.1035 15.8306 20.1127 15.741 20.1304C15.5132 20.1753 15.2962 20.2648 15.1033 20.394C15.0275 20.4449 14.9523 20.5078 14.7146 20.7104C14.6885 20.7326 14.6627 20.7543 14.6375 20.7759C14.1472 21.1941 13.7924 21.4965 13.406 21.6812C12.5167 22.106 11.4828 22.1062 10.5935 21.6812C10.2071 21.4964 9.85324 21.194 9.36304 20.7759C9.33774 20.7543 9.31193 20.7326 9.28589 20.7104C9.0478 20.5075 8.97211 20.4449 8.89624 20.394C8.70332 20.2648 8.48636 20.1753 8.25854 20.1304C8.16904 20.1127 8.07184 20.1035 7.7605 20.0786C7.72618 20.0758 7.69229 20.0735 7.65894 20.0708C7.01678 20.0198 6.55291 19.9828 6.14917 19.8403C5.2197 19.512 4.48824 18.7806 4.15991 17.8511C4.0173 17.4473 3.9804 16.9834 3.92944 16.3413C3.92681 16.3081 3.92436 16.2739 3.92163 16.2397C3.89674 15.9279 3.88756 15.8303 3.86987 15.7407C3.82486 15.5129 3.7355 15.296 3.6062 15.103C3.55536 15.0272 3.4926 14.9523 3.28979 14.7144C3.26748 14.6882 3.24507 14.6626 3.22339 14.6372C2.80523 14.147 2.50377 13.7922 2.31909 13.4058C1.89414 12.5164 1.89403 11.4826 2.31909 10.5933C2.50376 10.207 2.8054 9.85284 3.22339 9.36279C3.24503 9.33742 3.26752 9.31177 3.28979 9.28564C3.49268 9.04755 3.55535 8.97187 3.6062 8.896C3.73541 8.70312 3.8249 8.48605 3.86987 8.2583C3.88751 8.16881 3.89678 8.07155 3.92163 7.76025C3.92437 7.72593 3.9268 7.69204 3.92944 7.65869C3.9804 7.01651 4.01734 6.55268 4.15991 6.14893C4.48822 5.21943 5.21967 4.48798 6.14917 4.15967C6.55293 4.0171 7.01675 3.98016 7.65894 3.9292C7.69229 3.92656 7.72618 3.92413 7.7605 3.92139C8.0718 3.89654 8.16906 3.88726 8.25854 3.86963C8.4863 3.82466 8.70336 3.73516 8.89624 3.60596C8.97211 3.55511 9.0478 3.49244 9.28589 3.28955C9.31201 3.26727 9.33766 3.2448 9.36304 3.22314C9.85308 2.80515 10.2072 2.50351 10.5935 2.31885ZM12.7576 3.67627C12.2788 3.44742 11.7217 3.44751 11.2429 3.67627C11.0578 3.76476 10.8621 3.92321 10.2615 4.43506C10.2517 4.44339 10.2427 4.45233 10.2332 4.46045C10.0361 4.62836 9.89197 4.75078 9.73511 4.85596C9.37675 5.09614 8.97378 5.26263 8.55054 5.34619C8.36517 5.38279 8.17677 5.39791 7.9187 5.41846C7.90626 5.41945 7.89339 5.42037 7.88062 5.42139C7.09403 5.48416 6.84364 5.51027 6.65015 5.57861C6.14965 5.75539 5.75564 6.1494 5.57886 6.6499C5.51052 6.8434 5.48441 7.09379 5.42163 7.88037C5.42061 7.89314 5.41969 7.90602 5.4187 7.91846C5.39815 8.17652 5.38303 8.36493 5.34644 8.55029C5.26287 8.97353 5.09639 9.3765 4.8562 9.73486C4.75102 9.89172 4.62862 10.0359 4.46069 10.2329C4.45258 10.2424 4.44363 10.2514 4.4353 10.2612C3.92345 10.8618 3.765 11.0576 3.67651 11.2427C3.44775 11.7215 3.44767 12.2785 3.67651 12.7573C3.76499 12.9424 3.9236 13.1374 4.4353 13.7378C4.44371 13.7477 4.4525 13.7575 4.46069 13.7671C4.62866 13.9642 4.751 14.1082 4.8562 14.2651C5.09639 14.6235 5.26288 15.0265 5.34644 15.4497C5.383 15.635 5.39815 15.8235 5.4187 16.0815C5.4197 16.0941 5.42061 16.1068 5.42163 16.1196C5.48441 16.9062 5.51051 17.1566 5.57886 17.3501C5.75567 17.8504 6.14981 18.2436 6.65015 18.4204C6.84365 18.4888 7.09398 18.5149 7.88062 18.5776L7.9187 18.5806C8.17677 18.6011 8.3652 18.6163 8.55054 18.6528C8.97379 18.7364 9.37674 18.9038 9.73511 19.144C9.89191 19.2492 10.0362 19.3717 10.2332 19.5396L10.2615 19.564C10.8621 20.0759 11.0578 20.2343 11.2429 20.3228C11.7218 20.5516 12.2787 20.5516 12.7576 20.3228C12.9426 20.2342 13.1377 20.0757 13.738 19.564L13.7673 19.5396C13.9643 19.3716 14.1085 19.2492 14.2654 19.144C14.6238 18.9038 15.0268 18.7364 15.45 18.6528C15.6352 18.6163 15.8238 18.6011 16.0818 18.5806L16.1199 18.5776C16.9065 18.5149 17.1568 18.4888 17.3503 18.4204C17.8505 18.2436 18.2438 17.8502 18.4207 17.3501C18.4891 17.1566 18.5152 16.9062 18.5779 16.1196L18.5808 16.0815C18.6013 15.8235 18.6165 15.635 18.6531 15.4497C18.7367 15.0265 18.9041 14.6235 19.1443 14.2651C19.2494 14.1082 19.3719 13.9641 19.5398 13.7671L19.5642 13.7378C20.0759 13.1374 20.2345 12.9424 20.323 12.7573C20.5519 12.2784 20.5519 11.7216 20.323 11.2427C20.2345 11.0576 20.0761 10.8618 19.5642 10.2612L19.5398 10.2319C19.3721 10.0352 19.2494 9.8916 19.1443 9.73486C18.9041 9.37649 18.7367 8.97354 18.6531 8.55029C18.6165 8.36494 18.6013 8.17653 18.5808 7.91846L18.5779 7.88037C18.5152 7.09373 18.4891 6.8434 18.4207 6.6499C18.2439 6.14957 17.8507 5.75542 17.3503 5.57861C17.1568 5.51026 16.9065 5.48417 16.1199 5.42139C16.107 5.42036 16.0943 5.41945 16.0818 5.41846C15.8237 5.39791 15.6353 5.38276 15.45 5.34619C15.0268 5.26263 14.6238 5.09615 14.2654 4.85596C14.1084 4.75076 13.9644 4.62842 13.7673 4.46045C13.7577 4.45227 13.7479 4.44346 13.738 4.43506C13.1376 3.92336 12.9426 3.76475 12.7576 3.67627ZM14.9802 8.9585C15.2741 8.66492 15.7509 8.66478 16.0447 8.9585C16.3386 9.25229 16.3383 9.72899 16.0447 10.0229L11.0271 15.0405C10.7331 15.3344 10.2565 15.3344 9.96265 15.0405L7.95581 13.0337C7.6619 12.7398 7.6619 12.2631 7.95581 11.9692C8.24974 11.6755 8.7264 11.6754 9.02026 11.9692L10.4949 13.4438L14.9802 8.9585Z" fill="#48465C"/>
</svg>
