<svg width="24" height="24" viewBox="0 0 24 24" fill="none" xmlns="http://www.w3.org/2000/svg">
<path d="M12.0001 2C12.6102 2.00013 13.0109 2.82187 13.8126 4.46484L16.0499 9.04883C16.4743 9.91825 16.6869 10.3525 17.005 10.5127C17.1814 10.6014 17.3757 10.6326 17.5665 10.6025C17.9112 10.548 18.2202 10.1965 18.838 9.49316C20.0325 8.1334 20.63 7.4528 21.1056 7.49414C21.3629 7.51674 21.6044 7.64846 21.7814 7.8623C22.1082 8.25781 22.018 9.21412 21.838 11.126L21.6085 13.5615C21.2308 17.5741 21.0421 19.5803 19.8595 20.79C18.6769 21.9997 16.9043 22 13.3595 22H10.6398C7.09506 22 5.32237 21.9998 4.13979 20.79C2.95738 19.5803 2.76839 17.5739 2.39076 13.5615L2.16225 11.126C1.98228 9.21386 1.8919 8.25772 2.21889 7.8623C2.39582 7.64853 2.63646 7.5168 2.89369 7.49414C3.36938 7.45236 3.96746 8.13299 5.16225 9.49316C5.78 10.1964 6.08912 10.548 6.43373 10.6025C6.62459 10.6325 6.81902 10.6013 6.99525 10.5127C7.3134 10.3524 7.52608 9.91818 7.95033 9.04883L10.1867 4.46484C10.9886 2.8216 11.3899 2 12.0001 2ZM12.0001 11.5C11.716 11.5 11.5256 11.8408 11.1456 12.5225L11.048 12.6992C10.9402 12.8928 10.886 12.9898 10.8019 13.0537C10.7177 13.1176 10.6122 13.141 10.4025 13.1885L10.2121 13.2314C9.47411 13.3983 9.10452 13.4823 9.01674 13.7646C8.92922 14.0468 9.18104 14.3409 9.68373 14.9287L9.81459 15.0811C9.9575 15.2482 10.0285 15.3322 10.0607 15.4355C10.0928 15.5389 10.0823 15.6503 10.0607 15.873L10.0412 16.0762C9.96515 16.8606 9.92695 17.2532 10.1564 17.4277C10.3863 17.6022 10.7321 17.4441 11.423 17.126L11.6017 17.043C11.7979 16.9527 11.8961 16.9072 12.0001 16.9072C12.1042 16.9073 12.2023 16.9526 12.3986 17.043L12.5773 17.126C13.2681 17.444 13.614 17.6022 13.8439 17.4277C14.0732 17.2532 14.0351 16.8604 13.9591 16.0762L13.9396 15.873C13.918 15.6503 13.9075 15.5389 13.9396 15.4355C13.9718 15.3322 14.0428 15.2482 14.1857 15.0811L14.3156 14.9287C14.8185 14.3406 15.0703 14.0469 14.9826 13.7646C14.8948 13.4824 14.5261 13.3983 13.7882 13.2314L13.5968 13.1885C13.3874 13.141 13.2825 13.1176 13.1984 13.0537C13.1142 12.9898 13.0601 12.8928 12.9523 12.6992L12.8537 12.5225C12.4739 11.8411 12.2841 11.5001 12.0001 11.5Z" fill="#1C274C"/>
</svg>
