<svg width="24" height="24" viewBox="0 0 24 24" fill="none" xmlns="http://www.w3.org/2000/svg">
<path d="M12 2C17.5228 2 22 6.47715 22 12C22 17.5228 17.5228 22 12 22C6.47715 22 2 17.5228 2 12C2 6.47715 6.47715 2 12 2ZM16.0303 8.96973C15.7374 8.67684 15.2626 8.67684 14.9697 8.96973L12.7344 11.2041L10.5 13.4395L9.03027 11.9697C8.73739 11.6768 8.26261 11.6768 7.96973 11.9697C7.67684 12.2626 7.67684 12.7374 7.96973 13.0303L9.96973 15.0303C10.2627 15.3232 10.7374 15.3232 11.0303 15.0303L16.0303 10.0303C16.3232 9.73742 16.3232 9.26262 16.0303 8.96973Z" fill="#1C274C"/>
</svg>
