<svg width="24" height="24" viewBox="0 0 24 24" fill="none" xmlns="http://www.w3.org/2000/svg">
<path d="M14.0381 2.00537C13.9997 2.34703 13.9998 2.74967 14 3.11279V3.3374C12.7631 3.54182 11.4377 4.02088 10.2383 4.92334C8.50132 6.2303 7.16441 8.32524 6.68945 11.396L6.67969 11.4604C6.61877 11.8538 6.55599 12.2555 6.53906 12.5698C6.5303 12.7327 6.52467 12.9916 6.58691 13.2661C6.65139 13.5503 6.83892 14.0553 7.37988 14.3726C7.97953 14.7241 8.56146 14.578 8.79688 14.4985C9.05432 14.4115 9.27505 14.2786 9.41895 14.1851C9.70287 14.0006 10.0557 13.7248 10.4238 13.437L10.4736 13.3979C11.404 12.6707 12.6708 12.1471 14 11.9165C13.9998 12.3113 14.0007 12.7493 14.0518 13.103C14.1031 13.4576 14.2818 14.319 15.1689 14.7241C16.0561 15.1292 16.8244 14.7008 17.126 14.5073C17.4345 14.3093 17.775 14.0133 18.0791 13.7495L20.5684 11.5923C21.095 11.1361 21.5863 10.7098 21.9971 10.3071C22.0001 10.8348 22 11.3981 22 11.9995C22 16.7135 21.9997 19.0712 20.5352 20.5356C19.0707 21.9998 16.7137 21.9995 12 21.9995C7.28631 21.9995 4.92933 21.9998 3.46484 20.5356C2.00037 19.0712 2 16.7135 2 11.9995C2 7.28568 2.00041 4.92878 3.46484 3.46436C4.92932 2.00005 7.28613 1.99951 12 1.99951C12.7347 1.99951 13.4124 1.99983 14.0381 2.00537ZM15.792 1.64014C16.0844 1.50667 16.4417 1.81568 17.1553 2.43408L19.5117 4.47705C21.1343 5.88327 21.9462 6.58636 21.9463 7.49951C21.9463 8.41277 21.1344 9.11568 19.5117 10.522L17.1553 12.5659C16.4417 13.1843 16.0844 13.4934 15.792 13.3599C15.4998 13.2263 15.5 12.754 15.5 11.8101V10.2856C13.3756 10.2856 11.1259 10.9843 9.5498 12.2163C8.72672 12.8597 8.31463 13.1814 8.13867 13.0786C7.96279 12.9754 8.03276 12.5252 8.17188 11.6255C9.01652 6.16388 12.8003 4.71436 15.5 4.71436V3.18994C15.5 2.24601 15.5 1.77379 15.792 1.64014Z" fill="#1C274C"/>
</svg>
