<svg width="24" height="24" viewBox="0 0 24 24" fill="none" xmlns="http://www.w3.org/2000/svg">
<path d="M9.5 6.99996C13.6421 6.99996 17 10.3578 17 14.5C17 18.6421 13.6421 22 9.5 22C5.35786 22 2 18.6421 2 14.5C2 10.3578 5.35786 6.99996 9.5 6.99996ZM18.8291 7.165C19.0142 6.79466 19.4645 6.64415 19.835 6.82906L20.835 7.32906C21.2055 7.51431 21.3562 7.96542 21.1709 8.3359C20.9857 8.70606 20.5354 8.8558 20.165 8.67086L19.165 8.17086C18.7946 7.98567 18.644 7.53543 18.8291 7.165ZM16.4697 6.46969C16.7626 6.1768 17.2374 6.1768 17.5303 6.46969C17.8231 6.76258 17.8231 7.23737 17.5303 7.53023L16.3721 8.68844C16.0485 8.30626 15.6938 7.95142 15.3115 7.62789L16.4697 6.46969ZM19.4697 3.46969C19.7626 3.1768 20.2374 3.1768 20.5303 3.46969C20.8231 3.76259 20.8232 4.23736 20.5303 4.53023L19.5303 5.53023C19.2374 5.82313 18.7626 5.82311 18.4697 5.53023C18.1768 5.23735 18.1769 4.76259 18.4697 4.46969L19.4697 3.46969ZM15.665 2.82906C16.0355 2.64416 16.4858 2.79466 16.6709 3.165L17.1709 4.165C17.356 4.53543 17.2054 4.98567 16.835 5.17086C16.4646 5.35581 16.0143 5.20606 15.8291 4.8359L15.3291 3.8359C15.1438 3.46542 15.2945 3.01431 15.665 2.82906Z" fill="#1C274C"/>
</svg>
