<svg width="24" height="24" viewBox="0 0 24 24" fill="none" xmlns="http://www.w3.org/2000/svg">
<path d="M19 16.6255C19 17.6334 18.496 18.5775 17.6143 19.0659C16.1459 19.879 13.7958 20.9994 12 20.9995C10.204 20.9995 7.85314 19.879 6.38477 19.0659C5.50306 18.5775 5.00004 17.6334 5 16.6255V12.9146L9.14551 14.8589C10.9698 15.7141 13.0292 15.714 14.8535 14.8589L19 12.9146V16.6255ZM4.9541 7.06104C5.33475 6.89791 5.77622 7.07402 5.93945 7.45459C6.10258 7.83521 5.92642 8.27667 5.5459 8.43994L4.46973 8.90088C3.86702 9.15919 3.46957 9.33045 3.17773 9.49463C2.90193 9.64982 2.78202 9.76613 2.70605 9.88135C2.63023 9.99651 2.57106 10.1521 2.53711 10.4663C2.50116 10.7993 2.5 11.2324 2.5 11.8882V14.7505C2.49992 15.1646 2.16417 15.5005 1.75 15.5005C1.33584 15.5005 1.00008 15.1646 1 14.7505V11.8491C0.999981 11.2426 1.00023 10.7281 1.0459 10.3052C1.0945 9.85537 1.19986 9.44074 1.4541 9.05518C1.70841 8.66951 2.04792 8.40893 2.44238 8.18701C2.81302 7.97851 3.2855 7.7764 3.84277 7.5376L4.9541 7.06104ZM9.78223 3.49951C11.2031 2.83335 12.7959 2.83344 14.2168 3.49951L20.9082 6.63721C22.3635 7.31966 22.3636 9.68145 20.9082 10.3638L14.2168 13.5005C12.7959 14.1666 11.2031 14.1666 9.78223 13.5005L4.01465 10.7964C4.01564 10.779 4.01646 10.7619 4.01758 10.7456C4.22236 10.6406 4.52608 10.5088 5.06055 10.2798L6.13574 9.81787C7.27789 9.32838 7.80782 8.00593 7.31836 6.86377C6.98649 6.08941 6.2712 5.59659 5.48926 5.51221L9.78223 3.49951Z" fill="#1C274C"/>
</svg>
