<svg width="24" height="24" viewBox="0 0 24 24" fill="none" xmlns="http://www.w3.org/2000/svg">
<path d="M12.0002 1.25C15.6686 1.25018 18.4403 4.70762 18.7258 8.80176C18.8107 8.76839 18.9035 8.75 19.0002 8.75C19.4143 8.75015 19.7502 9.08589 19.7502 9.5V19C19.7502 19.4868 19.9083 19.9601 20.2004 20.3496L21.0999 21.5498C21.3482 21.881 21.2814 22.351 20.9504 22.5996C20.619 22.8481 20.1482 22.7816 19.8997 22.4502L19.0002 21.25C18.8812 21.0913 18.7755 20.9238 18.6838 20.75H5.31665C5.22492 20.9238 5.11933 21.0912 5.00024 21.25L4.09985 22.4502C3.8513 22.7815 3.38136 22.8481 3.05005 22.5996C2.71878 22.3511 2.65117 21.8812 2.89966 21.5498L3.80005 20.3496C4.092 19.9602 4.25024 19.4867 4.25024 19V9.5C4.25024 9.08579 4.58603 8.75 5.00024 8.75C5.09694 8.75004 5.1898 8.76839 5.27466 8.80176C5.56014 4.70752 8.33168 1.25 12.0002 1.25ZM18.2502 12.6133C17.2657 15.5655 14.9161 17.7499 12.0002 17.75C9.08428 17.75 6.73481 15.5655 5.75024 12.6133V19C5.75024 19.0836 5.747 19.167 5.74146 19.25H18.2581C18.2526 19.167 18.2502 19.0836 18.2502 19V12.6133ZM12.0002 2.75C9.24825 2.75 6.75024 5.60725 6.75024 9.5C6.75024 13.3927 9.24825 16.25 12.0002 16.25C14.7521 16.2498 17.2502 13.3926 17.2502 9.5C17.2502 5.60738 14.7521 2.7502 12.0002 2.75ZM12.3372 4.9043C12.5312 4.53861 12.985 4.39993 13.3508 4.59375C14.5937 5.2527 15.4173 6.73557 15.6672 8.3877C15.7292 8.79726 15.447 9.18024 15.0374 9.24219C14.628 9.30385 14.2457 9.0217 14.1838 8.6123C13.9764 7.24085 13.3273 6.27882 12.6487 5.91895C12.2827 5.72493 12.1431 5.27026 12.3372 4.9043Z" fill="#1C274C"/>
</svg>
