<svg width="24" height="24" viewBox="0 0 24 24" fill="none" xmlns="http://www.w3.org/2000/svg">
<path d="M22 1.25C22.4142 1.25 22.75 1.58579 22.75 2C22.75 2.41421 22.4142 2.75 22 2.75H20V12.2773C20 13.6173 19.9995 14.2872 19.7314 14.8779C19.4634 15.4688 18.9596 15.9105 17.9512 16.793L15.9512 18.543C14.0687 20.1902 13.1272 21.0137 12 21.0137C10.8728 21.0137 9.93138 20.1902 8.04883 18.543L6.04883 16.793C5.04032 15.9106 4.53665 15.4688 4.26855 14.8779C4.00052 14.2872 4 13.6173 4 12.2773V2.75H2C1.58579 2.75 1.25 2.41421 1.25 2C1.25 1.58579 1.58579 1.25 2 1.25H22ZM8.5 12.25C8.08579 12.25 7.75 12.5858 7.75 13C7.75 13.4142 8.08579 13.75 8.5 13.75H15.5C15.9142 13.75 16.25 13.4142 16.25 13C16.25 12.5858 15.9142 12.25 15.5 12.25H8.5ZM8.5 7.25C8.08579 7.25 7.75 7.58579 7.75 8C7.75 8.41421 8.08579 8.75 8.5 8.75H15.5C15.9142 8.75 16.25 8.41421 16.25 8C16.25 7.58579 15.9142 7.25 15.5 7.25H8.5Z" fill="#1C274C"/>
</svg>
