<svg width="24" height="24" viewBox="0 0 24 24" fill="none" xmlns="http://www.w3.org/2000/svg">
<path d="M2 13.25C2.41421 13.25 2.75 13.5858 2.75 14C2.75 15.9067 2.7515 17.2614 2.88965 18.2891C3.02491 19.2951 3.27894 19.8747 3.70215 20.2979C4.12536 20.7211 4.70485 20.9752 5.71094 21.1104C6.73859 21.2485 8.09325 21.25 10 21.25C10.4142 21.25 10.75 21.5858 10.75 22C10.75 22.4142 10.4142 22.75 10 22.75H9.94336C8.10571 22.75 6.6499 22.7498 5.51074 22.5967C4.33844 22.439 3.38992 22.1066 2.6416 21.3584C1.89332 20.6101 1.56095 19.6615 1.40332 18.4893C1.25016 17.3501 1.24998 15.8943 1.25 14.0566V14C1.25 13.5858 1.58579 13.25 2 13.25ZM22 13.25C22.4142 13.25 22.75 13.5858 22.75 14V14.0566C22.75 15.8943 22.7498 17.3501 22.5967 18.4893C22.439 19.6615 22.1066 20.6101 21.3584 21.3584C20.6101 22.1066 19.6615 22.439 18.4893 22.5967C17.3501 22.7498 15.8943 22.75 14.0566 22.75H14C13.5858 22.75 13.25 22.4142 13.25 22C13.25 21.5858 13.5858 21.25 14 21.25C15.9067 21.25 17.2614 21.2485 18.2891 21.1104C19.2951 20.9752 19.8747 20.7211 20.2979 20.2979C20.7211 19.8747 20.9752 19.2951 21.1104 18.2891C21.2485 17.2614 21.25 15.9067 21.25 14C21.25 13.5858 21.5858 13.25 22 13.25ZM14.5537 15.3975C14.8865 15.151 15.356 15.221 15.6025 15.5537C15.849 15.8865 15.779 16.356 15.4463 16.6025C14.4739 17.3232 13.2849 17.75 12 17.75C10.7151 17.75 9.52608 17.3232 8.55371 16.6025C8.22101 16.356 8.15099 15.8865 8.39746 15.5537C8.64407 15.221 9.11354 15.151 9.44629 15.3975C10.1747 15.9373 11.0541 16.25 12 16.25C12.9459 16.25 13.8253 15.9373 14.5537 15.3975ZM9 9C9.55229 9 10 9.67157 10 10.5C10 11.3284 9.55229 12 9 12C8.44772 12 8 11.3284 8 10.5C8 9.67157 8.44772 9 9 9ZM15 9C15.5523 9 16 9.67157 16 10.5C16 11.3284 15.5523 12 15 12C14.4477 12 14 11.3284 14 10.5C14 9.67157 14.4477 9 15 9ZM10 1.25C10.4142 1.25 10.75 1.58579 10.75 2C10.75 2.41421 10.4142 2.75 10 2.75C8.09324 2.75 6.73859 2.75149 5.71094 2.88965C4.70485 3.02491 4.12536 3.27894 3.70215 3.70215C3.27894 4.12536 3.02491 4.70485 2.88965 5.71094C2.75149 6.73859 2.75 8.09324 2.75 10C2.75 10.4142 2.41421 10.75 2 10.75C1.58579 10.75 1.25 10.4142 1.25 10V9.94336C1.24998 8.1057 1.25016 6.64991 1.40332 5.51074C1.56095 4.33844 1.8933 3.38992 2.6416 2.6416C3.38992 1.8933 4.33844 1.56095 5.51074 1.40332C6.64991 1.25016 8.1057 1.24998 9.94336 1.25H10ZM14.0566 1.25C15.8943 1.24998 17.3501 1.25016 18.4893 1.40332C19.6615 1.56095 20.6101 1.89332 21.3584 2.6416C22.1066 3.38992 22.439 4.33844 22.5967 5.51074C22.7498 6.6499 22.75 8.10571 22.75 9.94336V10C22.75 10.4142 22.4142 10.75 22 10.75C21.5858 10.75 21.25 10.4142 21.25 10C21.25 8.09325 21.2485 6.73859 21.1104 5.71094C20.9752 4.70485 20.7211 4.12536 20.2979 3.70215C19.8747 3.27894 19.2951 3.02491 18.2891 2.88965C17.2614 2.7515 15.9067 2.75 14 2.75C13.5858 2.75 13.25 2.41421 13.25 2C13.25 1.58579 13.5858 1.25 14 1.25H14.0566Z" fill="#1C274C"/>
</svg>
