<svg width="24" height="24" viewBox="0 0 24 24" fill="none" xmlns="http://www.w3.org/2000/svg">
<path d="M11.2629 1.41821C11.8981 1.09324 12.5338 1.29349 13.054 1.55884C13.5648 1.81944 14.1811 2.25673 14.9104 2.77466L16.7424 4.07642C17.2826 4.45996 17.7547 4.79455 18.0842 5.10962C18.435 5.4451 18.7502 5.87438 18.7502 6.45923C18.7502 7.04408 18.435 7.47336 18.0842 7.80884C17.7547 8.12391 17.2826 8.4585 16.7424 8.84204L12.2952 12.0002L16.7424 15.1584C17.2827 15.542 17.7547 15.8774 18.0842 16.1926C18.4349 16.5279 18.7501 16.9567 18.7502 17.5413C18.7502 18.1261 18.435 18.5554 18.0842 18.8909C17.7547 19.206 17.2827 19.5414 16.7424 19.925L14.9104 21.2268C14.181 21.7448 13.5648 22.182 13.054 22.4426C12.5338 22.7079 11.8981 22.9072 11.2629 22.5823C10.6264 22.2564 10.4197 21.6238 10.3342 21.0471C10.2504 20.4816 10.2502 19.7279 10.2502 18.8372V13.4407L6.42993 16.1145C6.0907 16.3519 5.6236 16.2699 5.38599 15.9309C5.1485 15.5916 5.23045 15.1235 5.56958 14.886L9.69263 12.0002L5.56958 9.1145C5.23066 8.87685 5.14856 8.40973 5.38599 8.07056C5.62348 7.73132 6.09062 7.64867 6.42993 7.88599L10.2502 10.5598V5.16333C10.2502 4.27274 10.2504 3.51977 10.3342 2.95435C10.4196 2.37747 10.6261 1.74412 11.2629 1.41821ZM11.7502 18.7756C11.7502 19.7445 11.7521 20.3853 11.8176 20.8274C11.8493 21.0409 11.8897 21.1531 11.9192 21.2092C11.9312 21.232 11.9388 21.2415 11.9407 21.2434C11.9409 21.2437 11.9415 21.2448 11.9465 21.2473C11.9509 21.2496 11.9524 21.2501 11.9534 21.2502C11.9561 21.2506 11.9692 21.2521 11.9963 21.2483C12.0611 21.2394 12.1783 21.2057 12.3723 21.1067C12.7731 20.9023 13.2984 20.5309 14.0911 19.968L15.8293 18.7336C16.4279 18.3086 16.8069 18.0366 17.0471 17.8069C17.1608 17.6981 17.2122 17.6278 17.2346 17.5872C17.2505 17.5583 17.2503 17.5478 17.2502 17.5422V17.5403C17.2503 17.5347 17.2501 17.5245 17.2346 17.4963C17.2122 17.4557 17.1608 17.3853 17.0471 17.2766C16.8068 17.0468 16.4279 16.7749 15.8293 16.3499L11.7502 13.4534V18.7756ZM11.9465 2.75415C11.9416 2.75665 11.9409 2.75687 11.9407 2.75708C11.9394 2.75843 11.9317 2.76758 11.9192 2.79126C11.8897 2.84736 11.8493 2.96012 11.8176 3.17407C11.7521 3.61613 11.7502 4.25611 11.7502 5.22485V10.5481L15.8293 7.65161C16.4278 7.22665 16.8068 6.95462 17.0471 6.72485C17.1608 6.61611 17.2122 6.54476 17.2346 6.50415C17.2503 6.47553 17.2503 6.46572 17.2502 6.46021V6.45825C17.2503 6.45274 17.2503 6.44294 17.2346 6.41431C17.2122 6.37371 17.1608 6.30234 17.0471 6.1936C16.8068 5.96385 16.4278 5.69181 15.8293 5.26685L14.0911 4.03247C13.2986 3.46978 12.773 3.09917 12.3723 2.89478C12.1783 2.7958 12.0611 2.76209 11.9963 2.75317C11.969 2.74941 11.956 2.75084 11.9534 2.75122C11.9524 2.75135 11.9509 2.75185 11.9465 2.75415Z" fill="#48465C"/>
</svg>
