<svg width="24" height="24" viewBox="0 0 24 24" fill="none" xmlns="http://www.w3.org/2000/svg">
<path fill-rule="evenodd" clip-rule="evenodd" d="M11.2629 1.41832C11.8981 1.09335 12.5337 1.29359 13.0539 1.55894C13.5647 1.81955 14.181 2.25683 14.9103 2.77476L16.7424 4.07652C17.2826 4.46006 17.7547 4.79465 18.0842 5.10972C18.435 5.4452 18.7502 5.87449 18.7502 6.45933C18.7502 7.04418 18.435 7.47346 18.0842 7.80894C17.7547 8.12402 17.2826 8.4586 16.7424 8.84215L12.2951 12.0003L16.7424 15.1586C17.2827 15.5422 17.7547 15.8775 18.0842 16.1927C18.4349 16.528 18.75 16.9568 18.7502 17.5414C18.7502 18.1262 18.4349 18.5555 18.0842 18.891C17.7547 19.2061 17.2827 19.5416 16.7424 19.9252L14.9103 21.2269C14.1809 21.7449 13.5648 22.1821 13.0539 22.4427C12.5337 22.708 11.8981 22.9073 11.2629 22.5824C10.6264 22.2565 10.4196 21.6239 10.3342 21.0472C10.2504 20.4817 10.2502 19.728 10.2502 18.8373V13.4408L6.42987 16.1146C6.09064 16.352 5.62354 16.27 5.38593 15.931C5.14844 15.5917 5.23039 15.1236 5.56952 14.8861L9.69257 12.0003L5.56952 9.11461C5.2306 8.87696 5.1485 8.40983 5.38593 8.07066C5.62342 7.73142 6.09056 7.64877 6.42987 7.88609L10.2502 10.5599V5.16343C10.2502 4.27285 10.2504 3.51987 10.3342 2.95445C10.4196 2.37757 10.626 1.74423 11.2629 1.41832ZM11.7502 18.7757C11.7502 19.7446 11.7521 20.3854 11.8176 20.8275C11.8492 21.0411 11.8897 21.1532 11.9191 21.2093C11.9312 21.2321 11.9388 21.2416 11.9406 21.2435C11.9408 21.2438 11.9415 21.2449 11.9465 21.2474C11.9509 21.2497 11.9523 21.2502 11.9533 21.2503C11.9561 21.2507 11.9692 21.2522 11.9963 21.2484C12.0611 21.2395 12.1783 21.2058 12.3723 21.1068C12.773 20.9024 13.2983 20.531 14.091 19.9681L15.8293 18.7337C16.4278 18.3087 16.8068 18.0367 17.0471 17.807C17.1608 17.6982 17.2122 17.6279 17.2346 17.5873C17.2504 17.5584 17.2503 17.5479 17.2502 17.5423V17.5404C17.2503 17.5348 17.25 17.5246 17.2346 17.4964C17.2122 17.4558 17.1608 17.3854 17.0471 17.2767C16.8068 17.0469 16.4278 16.775 15.8293 16.35L11.7502 13.4535V18.7757ZM11.9465 2.75426C11.9415 2.75675 11.9408 2.75698 11.9406 2.75719C11.9393 2.75853 11.9317 2.76769 11.9191 2.79136C11.8896 2.84746 11.8493 2.96022 11.8176 3.17418C11.7521 3.61624 11.7502 4.25621 11.7502 5.22496V10.5482L15.8293 7.65172C16.4278 7.22675 16.8067 6.95472 17.0471 6.72496C17.1608 6.61622 17.2122 6.54487 17.2346 6.50426C17.2502 6.47564 17.2503 6.46582 17.2502 6.46031V6.45836C17.2503 6.45285 17.2502 6.44304 17.2346 6.41441C17.2122 6.37381 17.1608 6.30245 17.0471 6.19371C16.8067 5.96395 16.4278 5.69191 15.8293 5.26695L14.091 4.03258C13.2986 3.46989 12.773 3.09927 12.3723 2.89488C12.1783 2.7959 12.0611 2.7622 11.9963 2.75328C11.9689 2.74951 11.9559 2.75095 11.9533 2.75133C11.9523 2.75146 11.9509 2.75196 11.9465 2.75426Z" fill="#1C274C"/>
</svg>
