<svg width="24" height="24" viewBox="0 0 24 24" fill="none" xmlns="http://www.w3.org/2000/svg">
<path d="M14.0003 2.25C14.6985 2.25018 15.3007 2.65946 15.5813 3.25098C16.2649 3.25595 16.7981 3.28681 17.2737 3.47266C17.8418 3.69473 18.3358 4.07275 18.6995 4.5625C19.0664 5.05659 19.2387 5.68989 19.4758 6.56152L19.5227 6.73145L20.0354 9.69434C20.2208 9.82223 20.3817 9.97397 20.5217 10.1533C21.4226 11.307 20.9939 13.0233 20.136 16.4551C19.5904 18.6375 19.3176 19.7288 18.5042 20.3643C17.6904 20.9996 16.5653 21 14.3157 21H9.68483C7.43499 21 6.31013 20.9996 5.49635 20.3643C4.68257 19.7289 4.40921 18.6378 3.86354 16.4551C3.00562 13.0234 2.57698 11.307 3.4778 10.1533C3.61786 9.97398 3.77874 9.82223 3.96413 9.69434L4.47682 6.73145L4.5237 6.56152C4.76076 5.68989 4.93315 5.05659 5.30006 4.5625C5.66378 4.07275 6.15766 3.69473 6.72585 3.47266C7.2014 3.2868 7.73469 3.25595 8.41823 3.25098C8.69887 2.65946 9.30109 2.25019 9.99928 2.25H14.0003ZM8.00026 12.25C7.58605 12.25 7.25026 12.5858 7.25026 13V17C7.25026 17.4142 7.58605 17.75 8.00026 17.75C8.41435 17.7499 8.75026 17.4141 8.75026 17V13C8.75026 12.5859 8.41435 12.2501 8.00026 12.25ZM12.0003 12.25C11.5861 12.25 11.2503 12.5858 11.2503 13V17C11.2503 17.4142 11.5861 17.75 12.0003 17.75C12.4143 17.7499 12.7503 17.4141 12.7503 17V13C12.7503 12.5859 12.4143 12.2501 12.0003 12.25ZM16.0003 12.25C15.5861 12.25 15.2503 12.5858 15.2503 13V17C15.2503 17.4142 15.5861 17.75 16.0003 17.75C16.4143 17.7499 16.7503 17.4141 16.7503 17V13C16.7503 12.5859 16.4143 12.2501 16.0003 12.25ZM15.5803 4.75195C15.2991 5.34188 14.6973 5.74982 14.0003 5.75H9.99928C9.30225 5.74981 8.70045 5.34188 8.4192 4.75195C7.75738 4.75864 7.49154 4.78421 7.27174 4.87012C6.96589 4.9897 6.69996 5.19339 6.50417 5.45703C6.33006 5.69159 6.22633 6.01825 5.94264 7.05762L5.58131 9.14551C6.57947 8.99974 7.90981 9 9.68483 9H14.3157C16.09 9 17.4193 8.99988 18.4173 9.14551L18.0559 7.05762C17.7723 6.01839 17.6695 5.69158 17.4954 5.45703C17.2996 5.19339 17.0337 4.9897 16.7278 4.87012C16.508 4.78421 16.2421 4.75864 15.5803 4.75195Z" fill="#1C274C"/>
</svg>
