<svg width="24" height="24" viewBox="0 0 24 24" fill="none" xmlns="http://www.w3.org/2000/svg">
<path d="M4 5C4.00001 5.18213 4.04871 5.35292 4.13379 5.5C4.3067 5.79888 4.62987 6 5 6H17C17.3506 6 17.6872 6.06034 18 6.1709C19.1652 6.58275 20 7.69381 20 9V19C20 20.6569 18.6569 22 17 22H7C5.34316 22 4.00002 20.6569 4 19V5ZM10 18.25C9.58579 18.25 9.25 18.5858 9.25 19C9.25002 19.4142 9.5858 19.75 10 19.75H14C14.4142 19.75 14.75 19.4142 14.75 19C14.75 18.5858 14.4142 18.25 14 18.25H10ZM12 9.25C9.92893 9.25 8.25 10.9289 8.25 13C8.25002 15.0711 9.92894 16.75 12 16.75C14.0711 16.75 15.75 15.0711 15.75 13C15.75 10.9289 14.0711 9.25 12 9.25ZM12 10.75C13.2426 10.75 14.25 11.7574 14.25 13C14.25 14.2426 13.2426 15.25 12 15.25C10.7574 15.25 9.75002 14.2426 9.75 13C9.75 11.7574 10.7574 10.75 12 10.75ZM15.7168 2.32617C16.9215 2.15407 17.9998 3.08873 18 4.30566V5.12598C17.6804 5.04371 17.3453 5 17 5H5C5 4.59344 4.75753 4.24325 4.40918 4.08691C4.55304 3.97368 4.72759 3.89564 4.91992 3.86816L15.7168 2.32617Z" fill="#48465C"/>
</svg>
