<svg width="24" height="24" viewBox="0 0 24 24" fill="none" xmlns="http://www.w3.org/2000/svg">
<path d="M19 1.25C21.0711 1.25 22.75 2.92893 22.75 5C22.75 6.2267 22.1606 7.31583 21.25 8C22.1606 8.68417 22.75 9.7733 22.75 11C22.75 13.0711 21.0711 14.75 19 14.75H12.75V16.3535C13.6658 16.6125 14.3875 17.3342 14.6465 18.25H22C22.4142 18.25 22.75 18.5858 22.75 19C22.75 19.4142 22.4142 19.75 22 19.75H14.6465C14.32 20.9043 13.2588 21.75 12 21.75C10.7412 21.75 9.67998 20.9043 9.35352 19.75H2C1.58579 19.75 1.25 19.4142 1.25 19C1.25 18.5858 1.58579 18.25 2 18.25H9.35352C9.61255 17.3342 10.3342 16.6125 11.25 16.3535V14.75H5C2.92893 14.75 1.25 13.0711 1.25 11C1.25 9.7733 1.83938 8.68417 2.75 8C1.83938 7.31583 1.25 6.2267 1.25 5C1.25 2.92893 2.92893 1.25 5 1.25H19ZM12 17.75C11.3096 17.75 10.75 18.3096 10.75 19C10.75 19.6904 11.3096 20.25 12 20.25C12.6904 20.25 13.25 19.6904 13.25 19C13.25 18.3096 12.6904 17.75 12 17.75ZM5 8.75C3.75736 8.75 2.75 9.75736 2.75 11C2.75 12.2426 3.75736 13.25 5 13.25H19C20.2426 13.25 21.25 12.2426 21.25 11C21.25 9.75736 20.2426 8.75 19 8.75H5ZM6 10C6.55228 10 7 10.4477 7 11C7 11.5523 6.55228 12 6 12C5.44772 12 5 11.5523 5 11C5 10.4477 5.44772 10 6 10ZM19 10.25C19.4142 10.25 19.75 10.5858 19.75 11C19.75 11.4142 19.4142 11.75 19 11.75H13C12.5858 11.75 12.25 11.4142 12.25 11C12.25 10.5858 12.5858 10.25 13 10.25H19ZM5 2.75C3.75736 2.75 2.75 3.75736 2.75 5C2.75 6.24264 3.75736 7.25 5 7.25H19C20.2426 7.25 21.25 6.24264 21.25 5C21.25 3.75736 20.2426 2.75 19 2.75H5ZM6 4C6.55228 4 7 4.44772 7 5C7 5.55228 6.55228 6 6 6C5.44772 6 5 5.55228 5 5C5 4.44772 5.44772 4 6 4ZM19 4.25C19.4142 4.25 19.75 4.58579 19.75 5C19.75 5.41421 19.4142 5.75 19 5.75H13C12.5858 5.75 12.25 5.41421 12.25 5C12.25 4.58579 12.5858 4.25 13 4.25H19Z" fill="#48465C"/>
</svg>
