<svg width="24" height="24" viewBox="0 0 24 24" fill="none" xmlns="http://www.w3.org/2000/svg">
<path d="M9.98535 2.74731C11.111 1.77891 12.7732 1.74892 13.9336 2.67603L20.6045 7.96509C21.1719 8.43626 21.5 9.13306 21.5 9.86743V18.5784C21.4999 19.4874 21.1356 20.3593 20.4873 21.0012C19.8389 21.6432 18.9597 22.0026 18.0439 22.0002H16.083C15.7561 22.0003 15.4422 21.8702 15.2119 21.6399C14.9819 21.4097 14.8541 21.0979 14.8564 20.7737V17.7161C14.8564 17.3412 14.7064 16.9811 14.4395 16.7161C14.1725 16.4511 13.8102 16.302 13.4326 16.302H10.5586C9.77233 16.302 9.13477 16.9355 9.13477 17.7161V20.7737L9.1084 20.7825C9.10342 21.4564 8.55097 22.0003 7.87207 22.0002H5.95605C4.04732 22.0002 2.5 20.4635 2.5 18.5686V9.86743C2.51755 9.12133 2.87269 8.42238 3.4668 7.96509L9.98535 2.74731Z" fill="#48465C"/>
</svg>
