<svg width="24" height="24" viewBox="0 0 24 24" fill="none" xmlns="http://www.w3.org/2000/svg">
<path d="M14.6113 5C14.5383 5.32155 14.5 5.65638 14.5 6C14.5 7.427 15.1641 8.69902 16.2002 9.52344L15.3613 10.2227C14.4284 11.0001 13.7803 11.5379 13.2334 11.8896C12.7041 12.2301 12.3451 12.3447 12 12.3447C11.6549 12.3447 11.2959 12.2301 10.7666 11.8896C10.2197 11.5379 9.57152 11.0001 8.63867 10.2227L6.48047 8.42383C6.16232 8.15871 5.68904 8.2015 5.42383 8.51953C5.15871 8.83768 5.2015 9.31096 5.51953 9.57617L7.7168 11.4062C8.603 12.1447 9.32109 12.7436 9.95508 13.1514C10.6156 13.5762 11.2589 13.8447 12 13.8447C12.7411 13.8447 13.3844 13.5762 14.0449 13.1514C14.679 12.7436 15.3979 12.1448 16.2842 11.4062L17.627 10.2871C18.0597 10.4256 18.5213 10.5 19 10.5C20.1204 10.5 21.145 10.0905 21.9326 9.41309C21.9997 10.3734 22 11.5466 22 13C22 16.7712 21.9997 18.6566 20.8281 19.8281C19.6566 20.9997 17.7712 21 14 21H10C6.22878 21 4.34346 20.9997 3.17188 19.8281C2.00031 18.6566 2 16.7712 2 13C2 9.22876 2.00031 7.34345 3.17188 6.17188C4.34346 5.00031 6.22876 5 10 5H14.6113ZM19 3C20.6569 3 22 4.34315 22 6C22 7.65685 20.6569 9 19 9C17.3431 9 16 7.65685 16 6C16 4.34315 17.3431 3 19 3Z" fill="#48465C"/>
</svg>
