<svg width="24" height="24" viewBox="0 0 24 24" fill="none" xmlns="http://www.w3.org/2000/svg">
<path d="M5 19C6.41421 19 7.12121 19.0002 7.56055 19.4395C7.99987 19.8789 8 20.5858 8 22H2C2 20.5858 2.00013 19.8789 2.43945 19.4395C2.87879 19.0002 3.58579 19 5 19ZM13 10C14.4142 10 15.1211 10.0002 15.5605 10.4395C15.9998 10.8789 16 11.5858 16 13V19C16 17.5858 16.0002 16.8789 16.4395 16.4395C16.8789 16.0002 17.5858 16 19 16C20.4142 16 21.1211 16.0002 21.5605 16.4395C21.9998 16.8789 22 17.5858 22 19V22H8V13C8 11.5858 8.00013 10.8789 8.43945 10.4395C8.87879 10.0002 9.58579 10 11 10H13ZM12 2C12.2841 2 12.4745 2.34079 12.8545 3.02246L12.9521 3.19922C13.06 3.39282 13.1141 3.48983 13.1982 3.55371C13.2824 3.61761 13.388 3.64104 13.5977 3.68848L13.7881 3.73145C14.526 3.89841 14.8946 3.98238 14.9824 4.26465C15.07 4.5468 14.8191 4.84082 14.3164 5.42871L14.1855 5.58105C14.0427 5.74818 13.9716 5.83216 13.9395 5.93555C13.9074 6.03888 13.9179 6.15026 13.9395 6.37305L13.959 6.57617C14.0349 7.36067 14.0732 7.75315 13.8438 7.92773C13.6138 8.10218 13.268 7.94311 12.5771 7.625L12.3984 7.54297C12.2021 7.45262 12.1041 7.40723 12 7.40723C11.8959 7.40723 11.7979 7.45262 11.6016 7.54297L11.4229 7.625C10.732 7.94311 10.3862 8.10218 10.1562 7.92773C9.92684 7.75315 9.96501 7.36067 10.041 6.57617L10.0605 6.37305C10.0821 6.15026 10.0926 6.03888 10.0605 5.93555C10.0284 5.83216 9.95736 5.74817 9.81445 5.58105L9.68359 5.42871C9.18086 4.84084 8.93 4.5468 9.01758 4.26465C9.10536 3.98238 9.47397 3.89841 10.2119 3.73145L10.4023 3.68848C10.612 3.64104 10.7176 3.61761 10.8018 3.55371C10.8859 3.48983 10.94 3.39282 11.0479 3.19922L11.1455 3.02246C11.5255 2.34079 11.7159 2 12 2Z" fill="#1C274C"/>
</svg>
