<svg width="24" height="24" viewBox="0 0 24 24" fill="none" xmlns="http://www.w3.org/2000/svg">
<path d="M12 3.25012C17.3848 3.25012 21.75 7.61534 21.75 13.0001C21.75 18.3849 17.3848 22.7501 12 22.7501C6.61523 22.7501 2.25002 18.3849 2.25 13.0001C2.25 7.61534 6.61522 3.25012 12 3.25012ZM12 4.75012C7.44365 4.75012 3.75 8.44377 3.75 13.0001C3.75002 17.5564 7.44366 21.2501 12 21.2501C16.5563 21.2501 20.25 17.5564 20.25 13.0001C20.25 8.44377 16.5563 4.75012 12 4.75012ZM12 9.25012C12.4142 9.25012 12.75 9.58591 12.75 10.0001V12.2501H15C15.4142 12.2501 15.75 12.5859 15.75 13.0001C15.75 13.4143 15.4142 13.7501 15 13.7501H12.75V16.0001C12.75 16.4143 12.4142 16.7501 12 16.7501C11.5858 16.7501 11.25 16.4143 11.25 16.0001V13.7501H9C8.5858 13.7501 8.25002 13.4143 8.25 13.0001C8.25 12.5859 8.58579 12.2501 9 12.2501H11.25V10.0001C11.25 9.58591 11.5858 9.25012 12 9.25012ZM7.10254 1.36438C7.45377 1.14486 7.91619 1.25146 8.13574 1.60266C8.35527 1.9539 8.24867 2.41632 7.89746 2.63586L3.89746 5.13586C3.54624 5.35537 3.08382 5.24874 2.86426 4.89758C2.64475 4.54636 2.75137 4.08394 3.10254 3.86438L7.10254 1.36438ZM15.8643 1.60266C16.0838 1.25146 16.5462 1.14486 16.8975 1.36438L20.8975 3.86438C21.2487 4.08394 21.3552 4.54637 21.1357 4.89758C20.9162 5.24874 20.4538 5.35537 20.1025 5.13586L16.1025 2.63586C15.7513 2.41632 15.6448 1.95389 15.8643 1.60266Z" fill="#48465C"/>
</svg>
