<svg width="24" height="24" viewBox="0 0 24 24" fill="none" xmlns="http://www.w3.org/2000/svg">
<path fill-rule="evenodd" clip-rule="evenodd" d="M9.4646 2.82057C11.0874 2.05981 12.9131 2.05981 14.5359 2.82057L21.2271 5.95756C22.2794 6.4509 22.7503 7.52222 22.7503 8.50002C22.7503 9.47782 22.2793 10.5491 21.2271 11.0425L19.7501 11.7349V16.6254C19.7501 17.8785 19.1218 19.0883 17.9781 19.7217C17.2264 20.138 16.2385 20.6391 15.1989 21.038C14.1716 21.4321 13.034 21.75 12.0001 21.75C10.9662 21.75 9.82856 21.4321 8.80122 21.038C7.76164 20.6391 6.77376 20.138 6.02204 19.7217C4.87831 19.0883 4.25005 17.8785 4.25005 16.6254V11.5C4.25005 11.4586 4.25341 11.4179 4.25987 11.3783C4.23635 11.2343 4.25453 11.0818 4.32117 10.9397C4.497 10.5647 4.94357 10.4032 5.31861 10.579L10.1015 12.8213C11.3208 13.3929 12.6799 13.3929 13.8992 12.8213L20.5903 9.68433C20.9935 9.49531 21.2503 9.04443 21.2503 8.50002C21.2503 7.95562 20.9935 7.50473 20.5903 7.31571L13.8991 4.17873C12.6798 3.60709 11.3207 3.60709 10.1014 4.17872L3.41022 7.31567C3.03517 7.4915 2.5886 7.33 2.41277 6.95496C2.23695 6.57992 2.39844 6.13335 2.77348 5.95752L9.4646 2.82057ZM5.75005 12.4379V16.6254C5.75005 17.3884 6.1288 18.0661 6.74874 18.4095C7.46538 18.8063 8.38684 19.2724 9.3385 19.6375C10.3024 20.0073 11.238 20.25 12.0001 20.25C12.7622 20.25 13.6978 20.0073 14.6617 19.6375C15.6133 19.2724 16.5348 18.8063 17.2514 18.4095C17.8714 18.0661 18.2501 17.3884 18.2501 16.6254V12.4381L14.5359 14.1794C12.9132 14.9402 11.0875 14.9402 9.46469 14.1794L5.75005 12.4379Z" fill="#1C274C"/>
<path d="M6.68936 7.70475C6.85253 8.08547 6.67616 8.52638 6.29544 8.68955L5.21977 9.15055C4.617 9.40888 4.21985 9.58019 3.928 9.74437C3.65202 9.89963 3.53244 10.0156 3.45645 10.1309C3.38046 10.2461 3.32095 10.4017 3.28696 10.7166C3.25101 11.0495 3.25 11.482 3.25 12.1378V15.0002C3.25 15.4144 2.91422 15.7502 2.5 15.7502C2.08579 15.7502 1.75 15.4144 1.75 15.0002V12.0989C1.74998 11.4925 1.74996 10.9784 1.79563 10.5555C1.84421 10.1055 1.94986 9.69083 2.20419 9.30513C2.45851 8.91944 2.79805 8.65898 3.19254 8.43705C3.56327 8.22849 4.03569 8.02604 4.59315 7.78715L5.70456 7.31083C6.08529 7.14766 6.5262 7.32403 6.68936 7.70475Z" fill="#1C274C"/>
</svg>
