<svg width="24" height="24" viewBox="0 0 24 24" fill="none" xmlns="http://www.w3.org/2000/svg">
<path d="M18.5381 1.25C19.2076 1.24999 19.7665 1.2499 20.2188 1.2959C20.6922 1.34405 21.1314 1.44933 21.5273 1.71387C21.8276 1.91451 22.0855 2.17238 22.2861 2.47266C22.5507 2.86861 22.656 3.30784 22.7041 3.78125C22.7501 4.23355 22.75 4.79244 22.75 5.46191V5.53809C22.75 6.20756 22.7501 6.76646 22.7041 7.21875C22.656 7.69217 22.5507 8.13139 22.2861 8.52734C22.0855 8.82761 21.8276 9.0855 21.5273 9.28613C21.1314 9.55067 20.6922 9.65594 20.2188 9.7041C19.7664 9.75008 19.2076 9.75002 18.5381 9.75H11C10.5075 9.75 10.2136 9.75197 10.0029 9.78027C9.90634 9.79325 9.85772 9.80842 9.83594 9.81738C9.83095 9.81944 9.82712 9.82126 9.8252 9.82227L9.82324 9.82324L9.82227 9.8252C9.82126 9.82712 9.81944 9.83095 9.81738 9.83594C9.80842 9.85772 9.79325 9.90634 9.78027 10.0029C9.75197 10.2136 9.75 10.5075 9.75 11V18.5381C9.75002 19.2076 9.75008 19.7664 9.7041 20.2188C9.65594 20.6922 9.55067 21.1314 9.28613 21.5273C9.0855 21.8276 8.82761 22.0855 8.52734 22.2861C8.13139 22.5507 7.69217 22.656 7.21875 22.7041C6.76646 22.7501 6.20756 22.75 5.53809 22.75H5.46191C4.79244 22.75 4.23355 22.7501 3.78125 22.7041C3.30784 22.656 2.86861 22.5507 2.47266 22.2861C2.17238 22.0855 1.91451 21.8276 1.71387 21.5273C1.44933 21.1314 1.34405 20.6922 1.2959 20.2188C1.2499 19.7665 1.24999 19.2076 1.25 18.5381V5.94824C1.24997 5.04976 1.25012 4.29986 1.33008 3.70508C1.41452 3.07747 1.6003 2.51102 2.05566 2.05566C2.51102 1.6003 3.07747 1.41452 3.70508 1.33008C4.29986 1.25012 5.04976 1.24997 5.94824 1.25H18.5381ZM6 2.75C5.03599 2.75 4.38831 2.75147 3.90527 2.81641C3.44388 2.87845 3.24652 2.9859 3.11621 3.11621C2.9859 3.24652 2.87845 3.44388 2.81641 3.90527C2.75147 4.38831 2.75 5.03599 2.75 6V8.25H5C5.41422 8.25 5.75 8.58579 5.75 9C5.75 9.41422 5.41422 9.75 5 9.75H2.75V11.25H4C4.41422 11.25 4.75 11.5858 4.75 12C4.75 12.4142 4.41422 12.75 4 12.75H2.75V14.25H5C5.41422 14.25 5.75 14.5858 5.75 15C5.75 15.4142 5.41422 15.75 5 15.75H2.75V17.25H4C4.41422 17.25 4.75 17.5858 4.75 18C4.75 18.4142 4.41422 18.75 4 18.75H2.75C2.75065 19.3326 2.75523 19.7443 2.78809 20.0674C2.82419 20.4221 2.88848 20.5859 2.96094 20.6943C3.05212 20.8308 3.16919 20.9479 3.30566 21.0391C3.41409 21.1115 3.57788 21.1758 3.93262 21.2119C4.30002 21.2493 4.78216 21.25 5.5 21.25C6.21784 21.25 6.69998 21.2493 7.06738 21.2119C7.42212 21.1758 7.58591 21.1115 7.69434 21.0391C7.8308 20.9479 7.94787 20.8308 8.03906 20.6943C8.11151 20.5859 8.17581 20.4221 8.21191 20.0674C8.24929 19.7 8.25 19.2178 8.25 18.5V10.9551C8.24995 10.5223 8.24958 10.1255 8.29297 9.80273C8.34076 9.44726 8.45367 9.07171 8.7627 8.7627C9.07171 8.45367 9.44726 8.34076 9.80273 8.29297C10.1255 8.24958 10.5223 8.24995 10.9551 8.25H18.5C19.2178 8.25 19.7 8.24929 20.0674 8.21191C20.4221 8.17581 20.5859 8.11151 20.6943 8.03906C20.8308 7.94787 20.9479 7.83081 21.0391 7.69434C21.1115 7.58591 21.1758 7.42212 21.2119 7.06738C21.2493 6.69998 21.25 6.21784 21.25 5.5C21.25 4.78216 21.2493 4.30002 21.2119 3.93262C21.1758 3.57788 21.1115 3.41409 21.0391 3.30566C20.9479 3.16919 20.8308 3.05212 20.6943 2.96094C20.5859 2.88848 20.4221 2.82419 20.0674 2.78809C19.7443 2.75523 19.3326 2.75065 18.75 2.75V4C18.75 4.41422 18.4142 4.75 18 4.75C17.5858 4.75 17.25 4.41422 17.25 4V2.75H15.75V5C15.75 5.41422 15.4142 5.75 15 5.75C14.5858 5.75 14.25 5.41422 14.25 5V2.75H12.75V4C12.75 4.41422 12.4142 4.75 12 4.75C11.5858 4.75 11.25 4.41422 11.25 4V2.75H9.75V5C9.75 5.41422 9.41422 5.75 9 5.75C8.58579 5.75 8.25 5.41422 8.25 5V2.75H6Z" fill="#48465C"/>
</svg>
