<svg width="24" height="24" viewBox="0 0 24 24" fill="none" xmlns="http://www.w3.org/2000/svg">
<path d="M15.6484 20.2422C14.8073 21.3112 13.4857 22 11.9999 22C10.5142 22 9.19258 21.3113 8.3515 20.2422C10.7733 20.5704 13.2266 20.5703 15.6484 20.2422ZM11.9999 2C15.7273 2 18.749 5.13401 18.749 9V9.7041C18.749 10.5491 18.9904 11.3751 19.4423 12.0781L20.5497 13.8008C21.5613 15.3745 20.7886 17.514 19.0292 18.0117C14.4271 19.3134 9.57281 19.3134 4.97064 18.0117C3.21133 17.514 2.43859 15.3745 3.45013 13.8008L4.55756 12.0781C5.00948 11.3751 5.25092 10.5491 5.25092 9.7041V9C5.25092 5.13403 8.27252 2.00003 11.9999 2ZM10.0712 8.25C9.67207 8.25026 9.34857 8.58594 9.34857 9C9.34857 9.41405 9.67207 9.74974 10.0712 9.75H12.1826L9.56049 12.4697C9.35368 12.6842 9.29134 13.0069 9.40326 13.2871C9.51512 13.5673 9.77893 13.7498 10.0712 13.75H13.9286C14.3279 13.7498 14.6513 13.4141 14.6513 13C14.6513 12.5859 14.3279 12.2502 13.9286 12.25H11.8173L14.4394 9.53027C14.6462 9.31577 14.7085 8.99314 14.5966 8.71289C14.4848 8.43275 14.221 8.25015 13.9286 8.25H10.0712Z" fill="#1C274C"/>
</svg>
