<svg width="24" height="24" viewBox="0 0 24 24" fill="none" xmlns="http://www.w3.org/2000/svg">
<path d="M6.03125 1.25C6.70463 1.24999 7.25557 1.24956 7.70312 1.28613C8.16638 1.32398 8.58485 1.4054 8.97559 1.60449C9.58696 1.91605 10.0839 2.41305 10.3955 3.02441C10.5946 3.41515 10.6761 3.83362 10.7139 4.29688C10.7505 4.74444 10.75 5.29538 10.75 5.96875V6.43164L12.8057 4.37695C13.2818 3.90082 13.6714 3.51132 14.0137 3.2207C14.3681 2.9199 14.7206 2.68043 15.1377 2.54492C15.7904 2.33283 16.4938 2.33283 17.1465 2.54492C17.5636 2.68043 17.9161 2.91989 18.2705 3.2207C18.6127 3.51125 19.0026 3.89998 19.4785 4.37598L19.5234 4.4209C19.9995 4.89695 20.389 5.28662 20.6797 5.62891C20.9804 5.98312 21.219 6.33601 21.3545 6.75293C21.5666 7.40564 21.5666 8.10899 21.3545 8.76172C21.219 9.17863 20.9803 9.53154 20.6797 9.88574C20.389 10.228 19.9994 10.6178 19.5234 11.0938L17.3672 13.25H18.0312C18.7046 13.25 19.2555 13.2495 19.7031 13.2861C20.1663 13.3239 20.5848 13.4054 20.9756 13.6045C21.5869 13.9161 22.0839 14.4131 22.3955 15.0244C22.5946 15.4152 22.6761 15.8337 22.7139 16.2969C22.7505 16.7445 22.75 17.2954 22.75 17.9688V18.0312C22.75 18.7046 22.7505 19.2555 22.7139 19.7031C22.6761 20.1663 22.5946 20.5848 22.3955 20.9756C22.0839 21.5869 21.5869 22.0839 20.9756 22.3955C20.5848 22.5946 20.1663 22.6761 19.7031 22.7139C19.2555 22.7505 18.7046 22.75 18.0312 22.75H5.96875C5.29538 22.75 4.74444 22.7505 4.29688 22.7139C3.83362 22.6761 3.41515 22.5946 3.02441 22.3955C2.41304 22.0839 1.91605 21.5869 1.60449 20.9756C1.4054 20.5848 1.32398 20.1663 1.28613 19.7031C1.24956 19.2555 1.24999 18.7046 1.25 18.0312V5.96875C1.24999 5.29537 1.24956 4.74445 1.28613 4.29688C1.32398 3.83362 1.40541 3.41515 1.60449 3.02441C1.91605 2.41304 2.41304 1.91605 3.02441 1.60449C3.41515 1.40541 3.83362 1.32398 4.29688 1.28613C4.74445 1.24956 5.29537 1.24999 5.96875 1.25H6.03125ZM6 2.75C5.28756 2.75 4.7982 2.75026 4.41895 2.78125C4.04852 2.81152 3.8491 2.86705 3.70508 2.94043C3.37597 3.10818 3.10818 3.37597 2.94043 3.70508C2.86705 3.8491 2.81152 4.04852 2.78125 4.41895C2.75026 4.7982 2.75 5.28756 2.75 6V18C2.75 18.7124 2.75026 19.2019 2.78125 19.5811C2.81152 19.9515 2.86705 20.1508 2.94043 20.2949C3.10818 20.624 3.37597 20.8918 3.70508 21.0596C3.8491 21.133 4.04851 21.1885 4.41895 21.2188C4.7982 21.2498 5.28756 21.25 6 21.25C6.71244 21.25 7.2018 21.2498 7.58105 21.2188C7.95149 21.1885 8.1509 21.133 8.29492 21.0596C8.62403 20.8918 8.89182 20.624 9.05957 20.2949C9.13295 20.1508 9.18848 19.9515 9.21875 19.5811C9.24914 19.2092 9.24997 18.7311 9.25 18.041V6C9.25 5.28756 9.24974 4.7982 9.21875 4.41895C9.18848 4.04852 9.13295 3.8491 9.05957 3.70508C8.89182 3.37597 8.62403 3.10818 8.29492 2.94043C8.15091 2.86705 7.95149 2.81152 7.58105 2.78125C7.2018 2.75026 6.71244 2.75 6 2.75ZM10.6914 19.9258C10.6464 20.3018 10.5622 20.6484 10.3955 20.9756C10.3474 21.0698 10.2948 21.1615 10.2383 21.25H18C18.7124 21.25 19.2019 21.2498 19.5811 21.2188C19.9515 21.1885 20.1508 21.133 20.2949 21.0596C20.624 20.8918 20.8918 20.624 21.0596 20.2949C21.133 20.1508 21.1885 19.9515 21.2188 19.5811C21.2498 19.2019 21.25 18.7124 21.25 18C21.25 17.2876 21.2498 16.7981 21.2188 16.4189C21.1885 16.0485 21.133 15.8492 21.0596 15.7051C20.8918 15.376 20.624 15.1082 20.2949 14.9404C20.1508 14.867 19.9515 14.8115 19.5811 14.7812C19.2019 14.7502 18.7124 14.75 18 14.75H15.8672L10.6914 19.9258ZM7 18.25C7.41421 18.25 7.75 18.5858 7.75 19C7.75 19.4142 7.41421 19.75 7 19.75H5C4.58579 19.75 4.25 19.4142 4.25 19C4.25 18.5858 4.58579 18.25 5 18.25H7ZM16.6826 3.97168C16.3313 3.8576 15.9529 3.8576 15.6016 3.97168C15.4479 4.02164 15.2678 4.12368 14.9844 4.36426C14.6943 4.6105 14.3474 4.95532 13.8438 5.45898L11.7021 7.60156C11.0808 8.2229 10.9265 8.39511 10.8447 8.59277C10.7633 8.78943 10.7501 9.01886 10.75 9.88672V17.7461L18.4404 10.0557C18.9442 9.55195 19.2899 9.20512 19.5361 8.91504C19.7765 8.63188 19.8778 8.45153 19.9277 8.29785C20.0418 7.94649 20.0419 7.56814 19.9277 7.2168C19.8778 7.06309 19.7766 6.88286 19.5361 6.59961C19.2899 6.30952 18.9442 5.96276 18.4404 5.45898C17.9367 4.95532 17.5899 4.6105 17.2998 4.36426C17.0164 4.12368 16.8363 4.02164 16.6826 3.97168Z" fill="#48465C"/>
</svg>
