<svg width="24" height="24" viewBox="0 0 24 24" fill="none" xmlns="http://www.w3.org/2000/svg">
<path d="M3.53735 6.9375C4.9303 5.54455 7.15293 5.73168 8.03735 7.31641L8.68677 8.47949C9.27219 9.52892 9.03686 10.9057 8.1145 11.8281C8.09568 11.8472 7.01343 12.9643 9.02466 14.9756C11.036 16.9868 12.1533 15.9043 12.1721 15.8857C13.0946 14.9633 14.4713 14.7278 15.5208 15.3135L16.6838 15.9619C18.2686 16.8463 18.4555 19.0689 17.0627 20.4619C16.2257 21.2989 15.2002 21.9503 14.0667 21.9932C12.1585 22.0655 8.9177 21.5825 5.66724 18.332C2.41698 15.0815 1.93377 11.8407 2.0061 9.93262C2.04923 8.79946 2.70062 7.77432 3.53735 6.9375ZM17.0002 2C19.7615 2.00015 22.0002 4.23867 22.0002 7C22.0002 9.76133 19.7615 11.9998 17.0002 12C16.2005 12 15.4441 11.8124 14.7737 11.4785C14.5955 11.3897 14.3918 11.3597 14.1995 11.4111L13.0862 11.709C12.6031 11.8379 12.161 11.3962 12.2903 10.9131L12.5881 9.80078C12.6395 9.6086 12.6104 9.40465 12.5217 9.22656C12.1878 8.55614 12.0002 7.79984 12.0002 7C12.0002 4.23858 14.2388 2 17.0002 2Z" fill="#48465C"/>
</svg>
