<svg width="24" height="24" viewBox="0 0 24 24" fill="none" xmlns="http://www.w3.org/2000/svg">
<path d="M2 5.25C2.41421 5.25 2.75 5.58579 2.75 6V15.25H12V11.3574C12 10.5598 12.0002 10.1605 12.1123 9.83984C12.3134 9.26535 12.7653 8.81333 13.3398 8.6123C13.6608 8.50031 14.7007 8.5 15.498 8.5H15.5C17.4945 8.5 18.4921 8.49985 19.2939 8.78027C20.7301 9.28283 21.8597 10.4125 22.3623 11.8486C22.6429 12.6505 22.6426 13.6479 22.6426 15.6426L22.6416 16V18C22.6416 18.4142 22.3059 18.75 21.8916 18.75C21.4776 18.7498 21.1416 18.4141 21.1416 18V16.75H2.75V18C2.75 18.4142 2.41421 18.75 2 18.75C1.58579 18.75 1.25 18.4142 1.25 18V6C1.25 5.58579 1.58579 5.25 2 5.25ZM7 8.5C8.38071 8.5 9.5 9.61929 9.5 11C9.5 12.3807 8.38071 13.5 7 13.5C5.61929 13.5 4.5 12.3807 4.5 11C4.5 9.61929 5.61929 8.5 7 8.5Z" fill="#48465C"/>
</svg>
