<svg width="24" height="24" viewBox="0 0 24 24" fill="none" xmlns="http://www.w3.org/2000/svg">
<path d="M12 2C16.714 2 19.0708 2.00037 20.5352 3.46484C21.9996 4.9293 22 7.28597 22 12C22 16.714 21.9997 19.0708 20.5352 20.5352C19.0708 21.9997 16.714 22 12 22C7.28597 22 4.9293 21.9996 3.46484 20.5352C2.00037 19.0708 2 16.714 2 12C2 7.28595 2.00037 4.9293 3.46484 3.46484C4.9293 2.00037 7.28595 2 12 2ZM8.5 8.75C6.70507 8.75 5.25 10.2051 5.25 12C5.25 13.7949 6.70507 15.25 8.5 15.25C10.0368 15.25 11.3246 14.1834 11.6631 12.75H14.75V13.5C14.75 13.9142 15.0858 14.25 15.5 14.25C15.9142 14.25 16.25 13.9142 16.25 13.5V12.75H17C17.1381 12.75 17.25 12.8619 17.25 13V14C17.25 14.4142 17.5858 14.75 18 14.75C18.4142 14.75 18.75 14.4142 18.75 14V13C18.75 12.0335 17.9665 11.25 17 11.25H11.6631C11.3246 9.81665 10.0368 8.75 8.5 8.75ZM8.5 10.25C9.4665 10.25 10.25 11.0335 10.25 12C10.25 12.9665 9.4665 13.75 8.5 13.75C7.5335 13.75 6.75 12.9665 6.75 12C6.75 11.0335 7.5335 10.25 8.5 10.25Z" fill="#1C274C"/>
</svg>
