<svg width="24" height="24" viewBox="0 0 24 24" fill="none" xmlns="http://www.w3.org/2000/svg">
<path d="M12 2C16.714 2 19.0708 2.00037 20.5352 3.46484C21.9996 4.9293 22 7.28597 22 12C22 16.714 21.9997 19.0708 20.5352 20.5352C19.0708 21.9997 16.714 22 12 22C7.28597 22 4.9293 21.9996 3.46484 20.5352C2.00037 19.0708 2 16.714 2 12C2 7.28595 2.00037 4.9293 3.46484 3.46484C4.9293 2.00037 7.28595 2 12 2ZM16.9346 8.19629C17.2162 7.46138 16.5386 6.78383 15.8037 7.06543L6.63867 10.5771C5.80833 10.8953 5.78068 12.0601 6.59766 12.3086L10.0752 13.3652C10.3454 13.4475 10.5525 13.6546 10.6348 13.9248L11.6914 17.4023C11.9399 18.2193 13.1047 18.1916 13.4229 17.3613L16.9346 8.19629Z" fill="#1C274C"/>
</svg>
