<svg width="24" height="24" viewBox="0 0 24 24" fill="none" xmlns="http://www.w3.org/2000/svg">
<path d="M14.0566 3.25C15.8943 3.24998 17.3501 3.25016 18.4893 3.40332C19.6615 3.56095 20.6101 3.89332 21.3584 4.6416C22.0364 5.31968 22.3744 6.16342 22.5488 7.19141C22.6762 7.94171 22.722 8.82954 22.7393 9.87402C22.7462 9.91487 22.75 9.95719 22.75 10C22.75 10.0351 22.7479 10.0697 22.7432 10.1035C22.7468 10.3899 22.7481 10.6884 22.749 10.998C22.7501 11.4121 22.4151 11.7488 22.001 11.75C21.5869 11.751 21.2502 11.416 21.249 11.002C21.2487 10.9166 21.2484 10.8327 21.248 10.75H2.75195C2.75005 11.1384 2.75 11.5541 2.75 12C2.75 13.9067 2.7515 15.2614 2.88965 16.2891C3.02491 17.2951 3.27894 17.8747 3.70215 18.2979C4.12536 18.7211 4.70485 18.9752 5.71094 19.1104C6.73858 19.2485 8.09325 19.25 10 19.25H11.5C11.9142 19.25 12.25 19.5858 12.25 20C12.25 20.4142 11.9142 20.75 11.5 20.75H9.94336C8.10571 20.75 6.6499 20.7498 5.51074 20.5967C4.33845 20.439 3.38991 20.1066 2.6416 19.3584C1.89332 18.6101 1.56095 17.6615 1.40332 16.4893C1.25016 15.3501 1.24998 13.8943 1.25 12.0566V11.9434C1.24999 11.2817 1.24969 10.6691 1.25684 10.1035C1.25216 10.0696 1.25 10.0351 1.25 10C1.25 9.95716 1.25384 9.9149 1.26074 9.87402C1.2759 8.96696 1.31286 8.18355 1.40332 7.51074C1.56095 6.33844 1.8933 5.38992 2.6416 4.6416C3.38992 3.8933 4.33844 3.56095 5.51074 3.40332C6.64991 3.25016 8.10571 3.24998 9.94336 3.25H14.0566ZM15.5 13.25C15.9142 13.25 16.25 13.5858 16.25 14V18.1895L16.9697 17.4697C17.2626 17.1768 17.7374 17.1768 18.0303 17.4697C18.3232 17.7626 18.3232 18.2374 18.0303 18.5303L16.0303 20.5303C15.7374 20.8232 15.2626 20.8232 14.9697 20.5303L12.9697 18.5303C12.6768 18.2374 12.6768 17.7626 12.9697 17.4697C13.2626 17.1768 13.7374 17.1768 14.0303 17.4697L14.75 18.1895V14C14.75 13.5858 15.0858 13.25 15.5 13.25ZM19.4697 13.4697C19.7626 13.1768 20.2374 13.1768 20.5303 13.4697L22.5303 15.4697C22.8232 15.7626 22.8232 16.2374 22.5303 16.5303C22.2374 16.8232 21.7626 16.8232 21.4697 16.5303L20.75 15.8105V20C20.75 20.4142 20.4142 20.75 20 20.75C19.5858 20.75 19.25 20.4142 19.25 20V15.8105L18.5303 16.5303C18.2374 16.8232 17.7626 16.8232 17.4697 16.5303C17.1768 16.2374 17.1768 15.7626 17.4697 15.4697L19.4697 13.4697ZM10 15.25C10.4142 15.25 10.75 15.5858 10.75 16C10.75 16.4142 10.4142 16.75 10 16.75H6C5.58579 16.75 5.25 16.4142 5.25 16C5.25 15.5858 5.58579 15.25 6 15.25H10ZM10 4.75C8.09324 4.75 6.73858 4.75149 5.71094 4.88965C4.70485 5.02491 4.12536 5.27894 3.70215 5.70215C3.27894 6.12536 3.02491 6.70485 2.88965 7.71094C2.82977 8.1564 2.79594 8.66332 2.77637 9.25H21.2236C21.1997 8.53533 21.1544 7.94407 21.0693 7.44238C20.9264 6.6005 20.6829 6.08717 20.2979 5.70215C19.8747 5.27894 19.2951 5.02491 18.2891 4.88965C17.2614 4.7515 15.9067 4.75 14 4.75H10Z" fill="#48465C"/>
</svg>
