<svg width="24" height="24" viewBox="0 0 24 24" fill="none" xmlns="http://www.w3.org/2000/svg">
<path fill-rule="evenodd" clip-rule="evenodd" d="M11.9997 1.25C12.7248 1.25 13.3869 1.44912 14.111 1.78711C14.8119 2.11429 15.6226 2.59709 16.6384 3.20215L18.0934 4.06934C19.2125 4.73597 20.1048 5.26742 20.78 5.77539C21.4768 6.29972 21.9996 6.83975 22.3405 7.55078C22.6816 8.26225 22.7745 9.00694 22.7448 9.87598C22.7161 10.717 22.5689 11.7394 22.3844 13.0215L22.0915 15.0537C21.8541 16.7036 21.6658 18.0129 21.3844 19.0322C21.0944 20.0829 20.6829 20.9171 19.9401 21.5566C19.1979 22.1957 18.3097 22.4819 17.2233 22.6182C16.1682 22.7504 14.8371 22.75 13.1579 22.75H10.8425C9.16297 22.75 7.83125 22.7505 6.77605 22.6182C5.68959 22.4819 4.80141 22.1957 4.05925 21.5566C3.3165 20.9171 2.90502 20.0829 2.61492 19.0322C2.33348 18.0128 2.14527 16.7036 1.90789 15.0537L1.61589 13.0215C1.43142 11.7395 1.28327 10.717 1.25457 9.87598C1.22492 9.00697 1.3178 8.26223 1.65886 7.55078C1.99978 6.83966 2.52337 6.29978 3.22039 5.77539C3.89555 5.26747 4.78695 4.73589 5.90593 4.06934L7.36199 3.20215C8.37774 2.59706 9.18844 2.11426 9.88933 1.78711C10.6133 1.44919 11.2748 1.25003 11.9997 1.25ZM11.9997 2.75C11.5705 2.75003 11.1321 2.86222 10.5231 3.14648C9.89878 3.43795 9.15258 3.88098 8.09539 4.51074L6.71062 5.33594C5.54638 6.02948 4.72462 6.52009 4.12175 6.97363C3.53329 7.41635 3.21094 7.78299 3.0114 8.19922C2.81209 8.61499 2.72967 9.09321 2.75457 9.82422C2.78015 10.5739 2.9141 11.5161 3.10613 12.8506L3.38543 14.7881C3.63193 16.5012 3.8081 17.716 4.06121 18.6328C4.30857 19.5287 4.60648 20.0477 5.03875 20.4199C5.47155 20.7925 6.0324 21.0132 6.96257 21.1299C7.91363 21.2491 9.15156 21.25 10.8942 21.25H13.1061C14.8487 21.25 16.0858 21.2491 17.0368 21.1299C17.9674 21.0132 18.5287 20.7927 18.9616 20.4199C19.3939 20.0477 19.6917 19.5287 19.9391 18.6328C20.1922 17.716 20.3684 16.5011 20.6149 14.7881L20.8932 12.8516C21.0852 11.5168 21.2202 10.574 21.2458 9.82422C21.2706 9.09317 21.1873 8.61501 20.988 8.19922C20.7885 7.783 20.466 7.41634 19.8776 6.97363C19.2747 6.52014 18.4528 6.02939 17.2887 5.33594L15.904 4.51074C14.8468 3.88097 14.1006 3.43793 13.4762 3.14648C12.8671 2.86218 12.429 2.75 11.9997 2.75ZM14.9997 17.25C15.4139 17.25 15.7497 17.5858 15.7497 18C15.7496 18.4141 15.4138 18.75 14.9997 18.75H8.99968C8.58569 18.7498 8.24981 18.414 8.24968 18C8.24968 17.5859 8.58561 17.2502 8.99968 17.25H14.9997Z" fill="#1C274C"/>
</svg>
