<svg width="24" height="24" viewBox="0 0 24 24" fill="none" xmlns="http://www.w3.org/2000/svg">
<path d="M12 1.25C17.9371 1.25 22.75 6.06294 22.75 12C22.75 17.9371 17.9371 22.75 12 22.75C6.06294 22.75 1.25 17.9371 1.25 12C1.25 7.59065 3.90507 3.80269 7.7002 2.14453C8.07965 1.97907 8.52174 2.15282 8.6875 2.53223C8.85302 2.91169 8.67922 3.35376 8.2998 3.51953C5.03156 4.94771 2.75 8.20826 2.75 12C2.75 17.1086 6.89137 21.25 12 21.25C17.1086 21.25 21.25 17.1086 21.25 12C21.25 7.46598 17.9879 3.69354 13.6826 2.90234L14.5859 4.03125C14.8446 4.3547 14.7922 4.82718 14.4688 5.08594C14.1454 5.34469 13.6729 5.29218 13.4141 4.96875L11.4141 2.46875C11.234 2.24362 11.1993 1.93465 11.3242 1.6748C11.4492 1.41515 11.7118 1.25 12 1.25ZM9.53125 7.91406C9.75638 7.73396 10.0653 7.69933 10.3252 7.82422C10.5848 7.94917 10.75 8.21182 10.75 8.5V15.5C10.75 15.9142 10.4142 16.25 10 16.25C9.58579 16.25 9.25 15.9142 9.25 15.5V10.0605L7.96875 11.0859C7.6453 11.3446 7.17282 11.2922 6.91406 10.9688C6.6553 10.6454 6.7078 10.1728 7.03125 9.91406L9.53125 7.91406ZM16.5 7.75C16.9142 7.75 17.25 8.08579 17.25 8.5C17.25 8.91421 16.9142 9.25 16.5 9.25H14.041L13.541 10.75H14.5C16.0188 10.75 17.25 11.9812 17.25 13.5C17.25 15.0188 16.0188 16.25 14.5 16.25H12.5C12.0858 16.25 11.75 15.9142 11.75 15.5C11.75 15.0858 12.0858 14.75 12.5 14.75H14.5C15.1904 14.75 15.75 14.1904 15.75 13.5C15.75 12.8096 15.1904 12.25 14.5 12.25H13.1934C12.3403 12.2498 11.738 11.4138 12.0078 10.6045L12.6748 8.60449C12.8451 8.09424 13.3224 7.75002 13.8604 7.75H16.5Z" fill="#48465C"/>
</svg>
