<svg width="24" height="24" viewBox="0 0 24 24" fill="none" xmlns="http://www.w3.org/2000/svg">
<path d="M8.97266 5.80957C9.8751 5.41157 10.8993 5.38901 11.8184 5.74707C14.3857 6.74751 15.0064 10.0985 12.9678 11.9521L11.9268 12.8975C11.8869 12.9336 11.8758 12.945 11.8682 12.9521C11.3149 13.4759 11.3544 14.3685 11.9521 14.8408C11.9604 14.8473 11.9737 14.8571 12.0166 14.8896L12.0195 14.8926C12.0779 14.9368 12.1121 14.9622 12.1445 14.9873C14.0173 16.4375 15.1243 18.6646 15.1494 21.0332C15.1498 21.0742 15.1504 21.1172 15.1504 21.1904V22C15.1503 22.414 14.8144 22.7498 14.4004 22.75C13.9863 22.75 13.6505 22.4141 13.6504 22V21.1943C13.6504 21.1153 13.6497 21.0809 13.6494 21.0488C13.6292 19.1389 12.7368 17.3433 11.2266 16.1738C11.2013 16.1541 11.1737 16.1329 11.1104 16.085L11.1045 16.0801C11.071 16.0548 11.0443 16.0348 11.0225 16.0176C9.70734 14.9785 9.61964 13.0145 10.8369 11.8623C10.8571 11.8432 10.8809 11.8212 10.9121 11.793L11.958 10.8428C13.173 9.73831 12.8033 7.7417 11.2734 7.14551C10.7258 6.93213 10.1159 6.94544 9.57812 7.18262L9.05566 7.41211C8.51086 7.65246 8.25931 7.76431 8.01465 7.88574C7.60194 8.09059 7.20049 8.31836 6.81348 8.56836C6.58389 8.71667 6.35946 8.87697 5.87402 9.22266L4.43457 10.2471C4.09719 10.4871 3.62887 10.4086 3.38867 10.0713C3.14852 9.73391 3.22807 9.26563 3.56543 9.02539L5.02051 7.98828C5.48462 7.65778 5.73769 7.47742 5.99902 7.30859C6.43352 7.02789 6.88431 6.77198 7.34766 6.54199C7.62627 6.40371 7.9105 6.27875 8.43164 6.04883L8.97266 5.80957ZM8.42383 16.5195C8.68903 16.2014 9.1623 16.1588 9.48047 16.4238C9.79832 16.689 9.84102 17.1614 9.57617 17.4795L9.31641 17.791C7.75416 19.6657 5.44029 20.75 3 20.75C2.58585 20.75 2.2501 20.4141 2.25 20C2.25 19.5858 2.58579 19.25 3 19.25C4.99503 19.25 6.88681 18.3636 8.16406 16.8311L8.42383 16.5195ZM19.8184 11.2725C20.2201 11.1721 20.6271 11.4166 20.7275 11.8184C20.8278 12.22 20.5833 12.6271 20.1816 12.7275C18.7492 13.0855 17.2508 13.0855 15.8184 12.7275C15.4167 12.6271 15.1722 12.22 15.2725 11.8184C15.3729 11.4166 15.7799 11.1721 16.1816 11.2725C17.3753 11.5709 18.6247 11.5709 19.8184 11.2725ZM18.5 2C19.8807 2 21 3.11929 21 4.5C21 5.88071 19.8807 7 18.5 7C17.1193 7 16 5.88071 16 4.5C16 3.11929 17.1193 2 18.5 2Z" fill="#1C274C"/>
</svg>
