<svg width="24" height="24" viewBox="0 0 24 24" fill="none" xmlns="http://www.w3.org/2000/svg">
<path d="M20.0005 12C20.0005 16.4181 16.4185 19.9997 12.0005 20C10.1774 20 8.49625 19.3901 7.15088 18.3633C9.22444 17.8694 11.6916 16.9153 14.1831 15.5879C16.5021 14.3524 18.5112 12.97 19.9927 11.6426C19.9979 11.761 20.0005 11.8804 20.0005 12ZM11.9995 4C13.8111 4 15.4826 4.60209 16.8237 5.61719L17.7124 5.45312C18.7592 5.25978 19.7183 5.19458 20.5093 5.30078C21.2796 5.40423 22.0455 5.6942 22.4653 6.36523C22.9116 7.07851 22.7766 7.90702 22.4526 8.62305C22.1233 9.35066 21.5347 10.1222 20.7808 10.8916C20.5381 11.1393 20.2741 11.3895 19.9917 11.6426C19.9644 11.0224 19.8672 10.4204 19.7065 9.84473L19.7095 9.8418C20.403 9.13398 20.859 8.50747 21.0864 8.00488C21.319 7.49071 21.2522 7.25594 21.1929 7.16113C21.1226 7.04892 20.9041 6.86694 20.3101 6.78711C19.7717 6.71481 19.046 6.74526 18.1616 6.89648C18.8677 7.74817 19.4008 8.74944 19.7065 9.84473C18.327 11.2518 16.1436 12.8445 13.478 14.2646C10.8118 15.6851 8.21966 16.6356 6.19873 17.0361C6.07603 17.0604 5.95565 17.0825 5.83838 17.1025C5.13235 16.2509 4.59913 15.2504 4.29346 14.1553C3.6401 14.8218 3.19366 15.4208 2.95264 15.9141C2.67577 16.4808 2.74373 16.7389 2.80615 16.8389C2.87898 16.9553 3.11192 17.1445 3.74463 17.2197C4.27934 17.2832 4.98621 17.2483 5.83838 17.1025C6.22647 17.5706 6.66713 17.9941 7.15088 18.3633C6.92583 18.4169 6.70505 18.4651 6.48975 18.5078C5.39456 18.7247 4.39222 18.8069 3.56787 18.709C2.76775 18.614 1.96743 18.3264 1.53467 17.6348C1.06387 16.8823 1.23895 16.0041 1.60498 15.2549C1.98001 14.4874 2.63778 13.6695 3.47705 12.8525L4.00439 12.2588C4.00167 12.1729 3.99951 12.0866 3.99951 12C3.99951 7.58187 7.58144 4.00025 11.9995 4Z" fill="#1C274C"/>
</svg>
