<svg width="24" height="24" viewBox="0 0 24 24" fill="none" xmlns="http://www.w3.org/2000/svg">
<path d="M12.0001 4.00024C16.9706 4.00029 21.0001 8.02971 21.0001 13.0002C21 17.9708 16.9705 22.0002 12.0001 22.0002C7.02959 22.0002 3.0002 17.9708 3.00012 13.0002C3.00012 8.02968 7.02954 4.00024 12.0001 4.00024ZM12.0001 9.25024C11.5859 9.25024 11.2501 9.58603 11.2501 10.0002V12.2502H9.00012C8.5859 12.2502 8.25012 12.586 8.25012 13.0002C8.2502 13.4144 8.58596 13.7502 9.00012 13.7502H11.2501V16.0002C11.2502 16.4144 11.586 16.7502 12.0001 16.7502C12.4142 16.7502 12.75 16.4144 12.7501 16.0002V13.7502H15.0001C15.4142 13.7502 15.75 13.4144 15.7501 13.0002C15.7501 12.5861 15.4143 12.2503 15.0001 12.2502H12.7501V10.0002C12.7501 9.58606 12.4143 9.25029 12.0001 9.25024ZM7.10266 1.3645C7.45392 1.14497 7.91633 1.25154 8.13586 1.60278C8.35536 1.95399 8.24872 2.41642 7.89758 2.63599L3.89758 5.13599C3.54638 5.35548 3.08395 5.24882 2.86438 4.89771C2.64485 4.54645 2.75142 4.08404 3.10266 3.8645L7.10266 1.3645ZM15.8644 1.60278C16.0839 1.25162 16.5463 1.14499 16.8976 1.3645L20.8976 3.8645C21.2486 4.08408 21.3553 4.54652 21.1359 4.89771C20.9162 5.2489 20.4538 5.3555 20.1027 5.13599L16.1027 2.63599C15.7514 2.41646 15.6448 1.95403 15.8644 1.60278Z" fill="#1C274C"/>
</svg>
