<svg width="24" height="24" viewBox="0 0 24 24" fill="none" xmlns="http://www.w3.org/2000/svg">
<path d="M7.45445 2.42163C10.4585 1.86003 13.5412 1.86004 16.5453 2.42163L16.8685 2.4812C18.8937 2.85994 20.4364 4.50824 20.6771 6.54858C21.0953 10.0927 21.1074 13.6728 20.7123 17.2195L20.6947 17.3738C20.4472 19.595 18.7039 21.3573 16.4798 21.6345L15.5736 21.7468C15.0789 21.8085 14.8314 21.8392 14.5843 21.865C12.866 22.0445 11.1337 22.0445 9.41539 21.865C9.16832 21.8392 8.92069 21.8085 8.42613 21.7468L7.4105 21.6208C5.24899 21.3514 3.55237 19.6419 3.30503 17.4841C2.898 13.9329 2.89801 10.3469 3.30503 6.79565L3.32066 6.65796C3.56197 4.55355 5.15155 2.85202 7.2396 2.46167L7.45445 2.42163ZM17.5746 5.51831C17.3086 5.20121 16.8363 5.15914 16.5189 5.42456C15.9417 5.9079 14.324 6.74967 12.0003 6.74976C9.67652 6.74976 8.05896 5.90792 7.48179 5.42456C7.1643 5.15874 6.6911 5.20095 6.42515 5.51831C6.1592 5.83587 6.20135 6.309 6.5189 6.57495C7.381 7.29682 9.34441 8.24976 12.0003 8.24976C14.6564 8.24967 16.6199 7.29681 17.4818 6.57495C17.7992 6.30897 17.8404 5.8358 17.5746 5.51831Z" fill="#1C274C"/>
</svg>
