<svg width="24" height="24" viewBox="0 0 24 24" fill="none" xmlns="http://www.w3.org/2000/svg">
<path d="M12.4998 5.00037C13.3045 5.00037 13.8432 5.96562 14.9197 7.89685L15.198 8.39685C15.5039 8.94569 15.6577 9.21969 15.8962 9.40076C16.1347 9.58173 16.4314 9.64922 17.0251 9.78357L17.5662 9.90662C19.6566 10.3796 20.7021 10.6158 20.9509 11.4154C21.1996 12.2151 20.4874 13.0487 19.0623 14.7152L18.6931 15.1469C18.2883 15.6202 18.086 15.857 17.9949 16.1498C17.9038 16.4427 17.9336 16.7591 17.9949 17.391L18.0505 17.9662C18.266 20.1898 18.3743 21.3019 17.7234 21.7963C17.0723 22.2906 16.093 21.8401 14.1355 20.9388L13.6296 20.7054C13.0734 20.4493 12.7946 20.3207 12.4998 20.3207C12.205 20.3207 11.9269 20.4494 11.3708 20.7054L10.864 20.9388C8.90687 21.84 7.92818 22.2903 7.2771 21.7963C6.62597 21.302 6.73348 20.19 6.94897 17.9662L7.00464 17.391C7.06587 16.7591 7.09673 16.4427 7.00562 16.1498C6.91447 15.8569 6.7113 15.6204 6.3064 15.1469L5.93823 14.7152C4.51294 13.0485 3.79988 12.2151 4.04858 11.4154C4.29736 10.6158 5.34295 10.3796 7.43335 9.90662L7.97437 9.78357C8.56849 9.64915 8.86573 9.58182 9.10425 9.40076C9.34262 9.21969 9.49569 8.94547 9.80151 8.39685L10.0798 7.89685C11.1563 5.96568 11.6951 5.00054 12.4998 5.00037ZM4.86694 2.50037C4.89704 2.39483 5.08501 2.39415 5.11597 2.49939C5.25617 2.9815 5.51581 3.69485 5.90894 4.08533C6.30208 4.47573 7.01676 4.73063 7.49976 4.86755C7.6052 4.89768 7.60581 5.08453 7.50073 5.1156C7.01862 5.2558 6.30527 5.51643 5.91479 5.90955C5.5246 6.30263 5.2695 7.01647 5.13257 7.49939C5.10258 7.60518 4.91522 7.60595 4.88452 7.50037C4.7443 7.01826 4.48364 6.30582 4.09058 5.91541C3.69754 5.52515 2.9837 5.27013 2.50073 5.13318C2.39495 5.10319 2.39418 4.91486 2.49976 4.88416C2.98186 4.74393 3.69433 4.48422 4.08472 4.09119C4.4752 3.69806 4.72999 2.98342 4.86694 2.50037ZM18.9998 3.25037C19.414 3.25037 19.7498 3.58616 19.7498 4.00037V4.25037H19.9998C20.414 4.25037 20.7498 4.58616 20.7498 5.00037C20.7496 5.41443 20.4138 5.75037 19.9998 5.75037H19.7498V6.00037C19.7496 6.41443 19.4138 6.75037 18.9998 6.75037C18.5858 6.75025 18.2499 6.41435 18.2498 6.00037V5.75037H17.9998C17.5858 5.75025 17.2499 5.41435 17.2498 5.00037C17.2498 4.58623 17.5857 4.25048 17.9998 4.25037H18.2498V4.00037C18.2498 3.58623 18.5857 3.25048 18.9998 3.25037Z" fill="#1C274C"/>
</svg>
