<svg width="24" height="24" viewBox="0 0 24 24" fill="none" xmlns="http://www.w3.org/2000/svg">
<path d="M14 4C17.7712 4 19.6566 4.00031 20.8281 5.17188C21.9997 6.34346 22 8.22878 22 12C22 15.7712 21.9997 17.6566 20.8281 18.8281C19.6566 19.9997 17.7712 20 14 20H10C6.22878 20 4.34346 19.9997 3.17188 18.8281C2.00031 17.6566 2 15.7712 2 12C2 8.22876 2.00031 6.34345 3.17188 5.17188C4.34346 4.00031 6.22876 4 10 4H14ZM6.73242 9.25C6.31831 9.25013 5.98242 9.58587 5.98242 10V10.7012L5.375 10.3506C5.01631 10.1436 4.55766 10.2663 4.35059 10.625C4.14356 10.9836 4.26647 11.4423 4.625 11.6494L5.23242 12L4.625 12.3506C4.26631 12.5577 4.14348 13.0163 4.35059 13.375C4.55771 13.7337 5.0163 13.8565 5.375 13.6494L5.98242 13.2988V14C5.98242 14.4141 6.31831 14.7499 6.73242 14.75C7.14663 14.75 7.48242 14.4142 7.48242 14V13.2988L8.08887 13.6494C8.44759 13.8565 8.90715 13.7337 9.11426 13.375C9.32122 13.0163 9.19753 12.5577 8.83887 12.3506L8.23242 12L8.83887 11.6494C9.19759 11.4423 9.32039 10.9837 9.11328 10.625C8.90613 10.2664 8.44754 10.1435 8.08887 10.3506L7.48242 10.7002V10C7.48242 9.58579 7.14663 9.25 6.73242 9.25ZM12 9.25C11.5859 9.25011 11.25 9.58586 11.25 10V10.7012L10.6426 10.3506C10.2839 10.1436 9.82525 10.2663 9.61816 10.625C9.41115 10.9836 9.53404 11.4423 9.89258 11.6494L10.5 12L9.89258 12.3506C9.53389 12.5577 9.41106 13.0163 9.61816 13.375C9.82529 13.7337 10.2839 13.8565 10.6426 13.6494L11.25 13.2988V14C11.25 14.4141 11.5859 14.7499 12 14.75C12.4142 14.75 12.75 14.4142 12.75 14V13.2988L13.3564 13.6494C13.7151 13.8565 14.1747 13.7337 14.3818 13.375C14.5888 13.0163 14.4651 12.5576 14.1064 12.3506L13.5 12L14.1064 11.6494C14.4651 11.4423 14.588 10.9837 14.3809 10.625C14.1737 10.2664 13.7151 10.1435 13.3564 10.3506L12.75 10.7002V10C12.75 9.58579 12.4142 9.25 12 9.25ZM17.2686 9.25C16.8544 9.25 16.5186 9.58579 16.5186 10V10.7012L15.9102 10.3506C15.5515 10.1437 15.0928 10.2664 14.8857 10.625C14.6788 10.9836 14.8018 11.4422 15.1602 11.6494L15.7676 12L15.1602 12.3506C14.8016 12.5577 14.6787 13.0164 14.8857 13.375C15.0928 13.7337 15.5515 13.8564 15.9102 13.6494L16.5186 13.2988V14C16.5186 14.4142 16.8544 14.75 17.2686 14.75C17.6825 14.7498 18.0186 14.414 18.0186 14V13.2988L18.625 13.6494C18.9838 13.8564 19.4424 13.7336 19.6494 13.375C19.8564 13.0164 19.7336 12.5577 19.375 12.3506L18.7676 12L19.374 11.6494C19.7327 11.4423 19.8564 10.9837 19.6494 10.625C19.4423 10.2663 18.9827 10.1435 18.624 10.3506L18.0186 10.7002V10C18.0186 9.58594 17.6825 9.25025 17.2686 9.25Z" fill="#48465C"/>
</svg>
