<svg width="24" height="24" viewBox="0 0 24 24" fill="none" xmlns="http://www.w3.org/2000/svg">
<path d="M12.0001 4.00024C16.9706 4.00029 21.0001 8.02971 21.0001 13.0002C21 17.9708 16.9705 22.0002 12.0001 22.0002C7.02959 22.0002 3.0002 17.9708 3.00012 13.0002C3.00012 8.02968 7.02954 4.00024 12.0001 4.00024ZM9.50012 9.00024C9.03418 9.00024 8.80108 9.0003 8.61731 9.07642C8.37234 9.17791 8.17778 9.37246 8.07629 9.61743C8.00017 9.8012 8.00012 10.0343 8.00012 10.5002V15.5002C8.00012 15.9661 8.00018 16.1993 8.07629 16.3831C8.17782 16.6279 8.37237 16.8226 8.61731 16.9241C8.80108 17.0002 9.03418 17.0002 9.50012 17.0002C9.96599 17.0002 10.1991 17.0002 10.3829 16.9241C10.6278 16.8226 10.8224 16.6279 10.924 16.3831C11 16.1993 11.0001 15.9661 11.0001 15.5002V10.5002C11.0001 10.0344 11 9.8012 10.924 9.61743C10.8225 9.37248 10.6278 9.17793 10.3829 9.07642C10.1991 9.0003 9.96599 9.00024 9.50012 9.00024ZM14.5001 9.00024C14.0341 9.00024 13.8011 9.0003 13.6173 9.07642C13.3724 9.17791 13.1778 9.37246 13.0763 9.61743C13.0002 9.8012 13.0001 10.0343 13.0001 10.5002V15.5002C13.0001 15.9661 13.0002 16.1993 13.0763 16.3831C13.1778 16.6279 13.3724 16.8226 13.6173 16.9241C13.8011 17.0002 14.0341 17.0002 14.5001 17.0002C14.966 17.0002 15.1991 17.0002 15.3829 16.9241C15.6278 16.8226 15.8224 16.6279 15.924 16.3831C16 16.1993 16.0001 15.9661 16.0001 15.5002V10.5002C16.0001 10.0344 16 9.8012 15.924 9.61743C15.8225 9.37248 15.6278 9.17793 15.3829 9.07642C15.1991 9.0003 14.966 9.00024 14.5001 9.00024ZM7.10266 1.3645C7.45392 1.14497 7.91633 1.25154 8.13586 1.60278C8.35536 1.95399 8.24872 2.41642 7.89758 2.63599L3.89758 5.13599C3.54638 5.35548 3.08395 5.24882 2.86438 4.89771C2.64485 4.54645 2.75142 4.08404 3.10266 3.8645L7.10266 1.3645ZM15.8644 1.60278C16.0839 1.25162 16.5463 1.14499 16.8976 1.3645L20.8976 3.8645C21.2486 4.08408 21.3553 4.54652 21.1359 4.89771C20.9162 5.2489 20.4538 5.3555 20.1027 5.13599L16.1027 2.63599C15.7514 2.41646 15.6448 1.95403 15.8644 1.60278Z" fill="#1C274C"/>
</svg>
