<svg width="24" height="24" viewBox="0 0 24 24" fill="none" xmlns="http://www.w3.org/2000/svg">
<path d="M12.0001 4.00012C16.9706 4.00017 21.0001 8.02959 21.0001 13.0001C21 17.9706 16.9705 22.0001 12.0001 22.0001C7.02959 22.0001 3.0002 17.9707 3.00012 13.0001C3.00012 8.02956 7.02954 4.00012 12.0001 4.00012ZM9.50012 9.00012C9.03418 9.00012 8.80108 9.00017 8.61731 9.07629C8.37234 9.17779 8.17778 9.37233 8.07629 9.61731C8.00017 9.80108 8.00012 10.0342 8.00012 10.5001V15.5001C8.00012 15.9659 8.00018 16.1992 8.07629 16.3829C8.17782 16.6278 8.37237 16.8225 8.61731 16.924C8.80108 17.0001 9.03418 17.0001 9.50012 17.0001C9.96599 17.0001 10.1991 17 10.3829 16.924C10.6278 16.8225 10.8224 16.6278 10.924 16.3829C11 16.1992 11.0001 15.9659 11.0001 15.5001V10.5001C11.0001 10.0342 11 9.80108 10.924 9.61731C10.8225 9.37236 10.6278 9.17781 10.3829 9.07629C10.1991 9.00018 9.96599 9.00012 9.50012 9.00012ZM14.5001 9.00012C14.0341 9.00012 13.8011 9.00017 13.6173 9.07629C13.3724 9.17779 13.1778 9.37233 13.0763 9.61731C13.0002 9.80108 13.0001 10.0342 13.0001 10.5001V15.5001C13.0001 15.9659 13.0002 16.1992 13.0763 16.3829C13.1778 16.6278 13.3724 16.8225 13.6173 16.924C13.8011 17.0001 14.0341 17.0001 14.5001 17.0001C14.966 17.0001 15.1991 17 15.3829 16.924C15.6278 16.8225 15.8224 16.6278 15.924 16.3829C16 16.1992 16.0001 15.9659 16.0001 15.5001V10.5001C16.0001 10.0342 16 9.80108 15.924 9.61731C15.8225 9.37236 15.6278 9.17781 15.3829 9.07629C15.1991 9.00018 14.966 9.00012 14.5001 9.00012ZM7.10266 1.36438C7.45392 1.14485 7.91633 1.25142 8.13586 1.60266C8.35536 1.95387 8.24872 2.4163 7.89758 2.63586L3.89758 5.13586C3.54638 5.35536 3.08395 5.24869 2.86438 4.89758C2.64485 4.54633 2.75142 4.08391 3.10266 3.86438L7.10266 1.36438ZM15.8644 1.60266C16.0839 1.2515 16.5463 1.14487 16.8976 1.36438L20.8976 3.86438C21.2486 4.08396 21.3553 4.54639 21.1359 4.89758C20.9162 5.24878 20.4538 5.35537 20.1027 5.13586L16.1027 2.63586C15.7514 2.41633 15.6448 1.95391 15.8644 1.60266Z" fill="#48465C"/>
</svg>
