<svg width="24" height="24" viewBox="0 0 24 24" fill="none" xmlns="http://www.w3.org/2000/svg">
<path d="M14.0184 7.3647C14.1256 6.96461 13.8882 6.55335 13.4881 6.44615C13.088 6.33894 12.6767 6.57638 12.5695 6.97648L9.98131 16.6358C9.8741 17.0359 10.1115 17.4471 10.5116 17.5543C10.9117 17.6615 11.323 17.4241 11.4302 17.024L14.0184 7.3647Z" fill="#1C274C"/>
<path fill-rule="evenodd" clip-rule="evenodd" d="M12 1.25C6.06294 1.25 1.25 6.06294 1.25 12C1.25 17.9371 6.06294 22.75 12 22.75C17.9371 22.75 22.75 17.9371 22.75 12C22.75 6.06294 17.9371 1.25 12 1.25ZM2.75 12C2.75 6.89137 6.89137 2.75 12 2.75C17.1086 2.75 21.25 6.89137 21.25 12C21.25 17.1086 17.1086 21.25 12 21.25C6.89137 21.25 2.75 17.1086 2.75 12Z" fill="#1C274C"/>
</svg>
