<svg width="24" height="24" viewBox="0 0 24 24" fill="none" xmlns="http://www.w3.org/2000/svg">
<path d="M11.5 4C15.2712 4 17.1566 4.00031 18.3281 5.17188C19.2712 6.11496 19.4553 7.52044 19.4912 10H20C20.9427 10 21.4141 10.0001 21.707 10.293C21.9999 10.5859 22 11.0573 22 12C22 12.9427 21.9999 13.4141 21.707 13.707C21.4141 13.9999 20.9427 14 20 14H19.4912C19.4553 16.4796 19.2712 17.885 18.3281 18.8281C17.1566 19.9997 15.2712 20 11.5 20H10C6.22878 20 4.34346 19.9997 3.17188 18.8281C2.00031 17.6566 2 15.7712 2 12C2 8.22876 2.00031 6.34345 3.17188 5.17188C4.34346 4.00031 6.22876 4 10 4H11.5ZM11.9805 8.42383C11.6623 8.15872 11.1891 8.20151 10.9238 8.51953L8.42383 11.5195C8.23753 11.743 8.19785 12.0549 8.32129 12.3184C8.4448 12.5817 8.70914 12.75 9 12.75H10.8984L9.42383 14.5195C9.15872 14.8377 9.20151 15.3109 9.51953 15.5762C9.83766 15.8412 10.3109 15.7985 10.5762 15.4805L13.0762 12.4805C13.2625 12.257 13.3031 11.9451 13.1797 11.6816C13.0563 11.4181 12.791 11.25 12.5 11.25H10.6016L12.0762 9.48047C12.3412 9.16233 12.2985 8.68904 11.9805 8.42383Z" fill="#48465C"/>
</svg>
