<svg width="24" height="24" viewBox="0 0 24 24" fill="none" xmlns="http://www.w3.org/2000/svg">
<path fill-rule="evenodd" clip-rule="evenodd" d="M10.5338 2.27382C11.1385 1.6455 11.916 1.03574 12.8434 1.31972C13.7876 1.60906 14.0607 2.56534 14.1754 3.4164C14.2976 4.32307 14.2976 5.5947 14.2975 7.18202V7.55605C14.2975 8.17011 14.299 8.55398 14.3376 8.83339C14.3702 9.07015 14.419 9.13537 14.4459 9.16347C14.4827 9.19604 14.5685 9.25269 14.8395 9.29042C15.1397 9.33215 15.5522 9.33827 16.1823 9.33827H16.2428C17.3006 9.33824 18.1752 9.33776 18.8288 9.42909C19.4773 9.51976 20.1573 9.73147 20.528 10.3734L20.529 10.3754L20.5329 10.3822L20.5377 10.39L20.5417 10.3978L20.5465 10.4057L20.5504 10.4144L20.5583 10.4301L20.5622 10.4369L20.5631 10.4398C20.897 11.1095 20.6887 11.7908 20.3893 12.3715C20.0834 12.965 19.564 13.6783 18.9333 14.5316L15.8346 18.724C14.8764 20.0205 14.1107 21.0565 13.4665 21.726C12.8617 22.3543 12.0835 22.9634 11.1559 22.6791C10.212 22.3896 9.93953 21.4344 9.82486 20.5834C9.70269 19.6767 9.70274 18.4044 9.70279 16.8168V16.4428C9.70279 15.8358 9.69627 15.4464 9.65396 15.1654C9.61698 14.9201 9.56374 14.8471 9.53384 14.8158C9.49992 14.786 9.42104 14.7341 9.15884 14.7006C8.86076 14.6626 8.45447 14.6615 7.81802 14.6615C6.72678 14.6615 5.82632 14.6551 5.152 14.5521C4.49781 14.4522 3.82122 14.2293 3.45376 13.5932L3.45278 13.5902L3.44888 13.5834L3.444 13.5756L3.44009 13.5678L3.43521 13.56L3.42739 13.5443L3.42349 13.5355L3.41958 13.5287L3.41861 13.5268C3.08154 12.8509 3.30223 12.1725 3.60611 11.6019C3.90928 11.0328 4.41868 10.3446 5.02896 9.51894L8.16568 5.2748C9.12385 3.97836 9.88958 2.94327 10.5338 2.27382ZM12.403 2.75331C12.3926 2.7497 12.3555 2.73717 12.2418 2.79433C12.0998 2.86578 11.8966 3.02012 11.6139 3.31386C11.046 3.90407 10.3382 4.85934 9.33462 6.21718L6.2731 10.3598C5.61541 11.2496 5.17483 11.8489 4.93032 12.308C4.81145 12.5312 4.76628 12.672 4.75357 12.7572C4.74572 12.8099 4.75119 12.8337 4.75747 12.849C4.78176 12.8847 4.8868 12.9937 5.37857 13.0687C5.91647 13.1509 6.69039 13.1615 7.81802 13.1615H7.86392C8.44097 13.1615 8.94396 13.1617 9.34829 13.2133C9.78139 13.2685 10.2118 13.3939 10.568 13.7289L10.5739 13.7348L10.5797 13.7396C10.9297 14.0831 11.0722 14.5098 11.1374 14.9428C11.1996 15.3565 11.2028 15.8655 11.2028 16.4428V16.7523C11.2027 18.4192 11.2042 19.5891 11.3112 20.3832C11.3645 20.7785 11.436 21.0105 11.5045 21.14C11.5559 21.237 11.5861 21.2437 11.5944 21.2455H11.5973C11.608 21.2491 11.6452 21.2625 11.7584 21.2055C11.9004 21.1339 12.1029 20.9794 12.3854 20.6859C12.9533 20.0958 13.661 19.1406 14.6647 17.7826L17.7272 13.64C18.3812 12.7552 18.8174 12.1473 19.0563 11.684C19.2609 11.2869 19.2379 11.1523 19.2243 11.1166C19.2015 11.0836 19.1005 10.9824 18.6217 10.9154C18.0846 10.8403 17.3159 10.8383 16.1823 10.8383C15.5795 10.8383 15.0564 10.8346 14.6334 10.7758C14.1966 10.715 13.7649 10.5835 13.4118 10.2514L13.401 10.2406C13.0479 9.89396 12.9116 9.46828 12.8522 9.03847C12.7978 8.64414 12.7975 8.15571 12.7975 7.60488V7.24648C12.7975 5.57993 12.7961 4.41061 12.6891 3.61659C12.6359 3.2212 12.5634 2.98928 12.4948 2.85976C12.4435 2.76315 12.4144 2.75612 12.4059 2.75429H12.404L12.403 2.75331Z" fill="#1C274C"/>
</svg>
