<svg width="24" height="24" viewBox="0 0 24 24" fill="none" xmlns="http://www.w3.org/2000/svg">
<path d="M10.5337 2.27393C11.1383 1.64561 11.9158 1.03584 12.8433 1.31982C13.7875 1.60916 14.0606 2.56544 14.1753 3.4165C14.2974 4.32317 14.2975 5.59481 14.2974 7.18213V7.55615C14.2974 8.17021 14.2988 8.55409 14.3374 8.8335C14.3701 9.07026 14.4188 9.13548 14.4458 9.16357C14.4826 9.19614 14.5684 9.2528 14.8394 9.29053C15.1396 9.33226 15.552 9.33838 16.1821 9.33838H16.2427C17.3004 9.33835 18.1751 9.33786 18.8286 9.4292C19.4771 9.51987 20.1571 9.73158 20.5278 10.3735L20.5288 10.3755L20.5327 10.3823L20.5376 10.3901L20.5415 10.3979L20.5464 10.4058L20.5503 10.4146L20.5581 10.4302L20.562 10.437L20.563 10.4399C20.8968 11.1096 20.6885 11.7909 20.3892 12.3716C20.0833 12.9651 19.5639 13.6784 18.9331 14.5317L15.8345 18.7241C14.8763 20.0206 14.1105 21.0566 13.4663 21.7261C12.8615 22.3545 12.0833 22.9635 11.1558 22.6792C10.2118 22.3897 9.93938 21.4345 9.82471 20.5835C9.70254 19.6768 9.7026 18.4045 9.70264 16.8169V16.4429C9.70265 15.8359 9.69612 15.4465 9.65381 15.1655C9.61683 14.9202 9.56359 14.8472 9.53369 14.8159C9.49977 14.7861 9.42089 14.7342 9.15869 14.7007C8.86061 14.6627 8.45432 14.6616 7.81787 14.6616C6.72663 14.6616 5.82618 14.6552 5.15186 14.5522C4.49766 14.4523 3.82108 14.2294 3.45361 13.5933L3.45264 13.5903L3.44873 13.5835L3.44385 13.5757L3.43994 13.5679L3.43506 13.5601L3.42725 13.5444L3.42334 13.5356L3.41943 13.5288L3.41846 13.5269C3.08139 12.851 3.30208 12.1727 3.60596 11.6021C3.90913 11.0329 4.41853 10.3447 5.02881 9.51904L8.16553 5.2749C9.1237 3.97847 9.88943 2.94337 10.5337 2.27393ZM12.4028 2.75342C12.3924 2.74981 12.3553 2.73727 12.2417 2.79443C12.0997 2.86588 11.8965 3.02022 11.6138 3.31396C11.0458 3.90418 10.3381 4.85945 9.33447 6.21729L6.27295 10.3599C5.61526 11.2497 5.17469 11.849 4.93018 12.3081C4.8113 12.5313 4.76613 12.6721 4.75342 12.7573C4.74557 12.81 4.75104 12.8338 4.75732 12.8491C4.78162 12.8848 4.88665 12.9938 5.37842 13.0688C5.91632 13.151 6.69024 13.1616 7.81787 13.1616H7.86377C8.44082 13.1616 8.94381 13.1618 9.34814 13.2134C9.78124 13.2686 10.2116 13.394 10.5679 13.729L10.5737 13.7349L10.5796 13.7397C10.9295 14.0832 11.072 14.5099 11.1372 14.9429C11.1994 15.3566 11.2026 15.8656 11.2026 16.4429V16.7524C11.2025 18.4193 11.204 19.5892 11.311 20.3833C11.3643 20.7786 11.4358 21.0106 11.5044 21.1401C11.5558 21.2371 11.5859 21.2438 11.5942 21.2456H11.5972C11.6078 21.2493 11.6451 21.2626 11.7583 21.2056C11.9003 21.1341 12.1028 20.9795 12.3853 20.686C12.9531 20.0959 13.6608 19.1407 14.6646 17.7827L17.7271 13.6401C18.3811 12.7553 18.8173 12.1474 19.0562 11.6841C19.2608 11.287 19.2377 11.1524 19.2241 11.1167C19.2014 11.0837 19.1004 10.9825 18.6216 10.9155C18.0845 10.8404 17.3158 10.8384 16.1821 10.8384C15.5793 10.8384 15.0563 10.8347 14.6333 10.7759C14.1964 10.7151 13.7647 10.5836 13.4116 10.2515L13.4009 10.2407C13.0477 9.89407 12.9115 9.46838 12.8521 9.03857C12.7977 8.64425 12.7974 8.15581 12.7974 7.60498V7.24658C12.7974 5.58004 12.7959 4.41071 12.689 3.6167C12.6358 3.22131 12.5632 2.98938 12.4946 2.85986C12.4434 2.76325 12.4142 2.75622 12.4058 2.75439H12.4038L12.4028 2.75342Z" fill="#48465C"/>
</svg>
