<svg width="24" height="24" viewBox="0 0 24 24" fill="none" xmlns="http://www.w3.org/2000/svg">
<path d="M22 12C22 16.714 21.9997 19.0708 20.5352 20.5352C19.0708 21.9996 16.714 22 12 22C11.1815 22 10.4341 21.9999 9.75 21.9922V10.25H21.9971C22.0005 10.7944 22 11.3766 22 12ZM8.25 21.9561C5.90964 21.8589 4.47505 21.5454 3.46484 20.5352C2.00037 19.0708 2 16.714 2 12C2 11.3766 1.99954 10.7944 2.00293 10.25H8.25V21.9561ZM12 2C16.714 2 19.0708 2.00037 20.5352 3.46484C21.6155 4.54509 21.8992 6.11064 21.9736 8.75H2.02637C2.10072 6.11065 2.38459 4.54509 3.46484 3.46484C4.9293 2.00038 7.28596 2 12 2ZM6 5C5.44773 5.00001 5 5.44773 5 6C5 6.55227 5.44773 6.99999 6 7C6.55228 7 7 6.55228 7 6C7 5.44772 6.55228 5 6 5ZM9 5C8.44773 5.00001 8 5.44773 8 6C8 6.55227 8.44773 6.99999 9 7C9.55228 7 10 6.55228 10 6C10 5.44772 9.55228 5 9 5ZM12 5C11.4477 5.00001 11 5.44773 11 6C11 6.55227 11.4477 6.99999 12 7C12.5523 7 13 6.55228 13 6C13 5.44772 12.5523 5 12 5Z" fill="#1C274C"/>
</svg>
