<svg width="24" height="24" viewBox="0 0 24 24" fill="none" xmlns="http://www.w3.org/2000/svg">
<path fill-rule="evenodd" clip-rule="evenodd" d="M12.0576 1.25C14.3657 1.24999 16.1746 1.24975 17.586 1.43945C19.0307 1.63369 20.1707 2.03977 21.0655 2.93457C21.9604 3.82938 22.3664 4.96932 22.5606 6.41406C22.7503 7.82544 22.75 9.63432 22.75 11.9424V17.6338C22.7503 18.5474 22.7504 19.1603 22.5987 19.6973C22.3017 20.7473 21.5887 21.628 20.6231 22.1084C20.1285 22.3545 19.5367 22.4519 18.6817 22.5928C18.6421 22.5993 18.6014 22.6065 18.5606 22.6133L18.5391 22.6162C18.2352 22.6665 17.9738 22.7101 17.7569 22.7324C17.5308 22.7556 17.2975 22.763 17.0586 22.7139C16.2743 22.5522 15.647 21.9783 15.3838 21.2266C15.3045 20.9998 15.2758 20.7687 15.2627 20.5361C15.2501 20.3115 15.25 20.0376 15.25 19.7139V15.0859C15.2495 14.6091 15.2488 14.2125 15.3506 13.874C15.5833 13.0997 16.1987 12.4917 16.9893 12.3018C17.3344 12.2189 17.7276 12.2523 18.1758 12.29C18.2093 12.2928 18.2433 12.295 18.2774 12.2979C18.3181 12.3011 18.358 12.3053 18.3975 12.3086C19.2375 12.3776 19.8186 12.4245 20.3115 12.6152C20.6524 12.7471 20.9674 12.9276 21.25 13.1475V12C21.25 9.62178 21.2481 7.91326 21.0733 6.61328C20.9014 5.33508 20.5745 4.56472 20.0049 3.99512C19.4353 3.42553 18.6649 3.09864 17.3867 2.92676C16.0867 2.75198 14.3782 2.75 12 2.75C9.62183 2.75 7.91327 2.75198 6.6133 2.92676C5.33515 3.09865 4.56474 3.42552 3.99514 3.99512C3.42556 4.56471 3.09866 5.3351 2.92678 6.61328C2.752 7.91326 2.75002 9.62178 2.75002 12V13.1475C3.03269 12.9276 3.34767 12.7471 3.6885 12.6152C4.18138 12.4245 4.76255 12.3776 5.60256 12.3086C5.64205 12.3053 5.68203 12.3011 5.72268 12.2979C5.75678 12.295 5.79076 12.2928 5.82424 12.29C6.27231 12.2524 6.66561 12.219 7.01076 12.3018C7.80133 12.4917 8.41674 13.0997 8.64944 13.874C8.75116 14.2125 8.75052 14.6091 8.75002 15.0859V19.7139C8.75002 20.0377 8.74994 20.3115 8.73733 20.5361C8.72424 20.7688 8.6956 20.9998 8.61623 21.2266C8.353 21.9783 7.72583 22.5522 6.94143 22.7139C6.70254 22.7631 6.46932 22.7556 6.24319 22.7324C6.02622 22.7101 5.76495 22.6665 5.46096 22.6162L5.43948 22.6133C5.39866 22.6065 5.35803 22.5993 5.31838 22.5928C4.46344 22.4519 3.87159 22.3545 3.37698 22.1084C2.41148 21.628 1.69823 20.7473 1.40139 19.6973C1.24963 19.1603 1.24975 18.5474 1.25002 17.6338V11.9424C1.25001 9.63433 1.24976 7.82544 1.43948 6.41406C1.63371 4.96934 2.0398 3.82938 2.93459 2.93457C3.8294 2.03976 4.96934 1.63369 6.41408 1.43945C7.82547 1.24973 9.63433 1.24999 11.9424 1.25H12.0576ZM5.8467 13.793C4.83928 13.8761 4.49437 13.9127 4.23049 14.0146C3.56339 14.2726 3.03813 14.8562 2.83694 15.6006C2.75644 15.8989 2.75002 16.2777 2.75002 17.3281V17.5137C2.75002 18.5913 2.75699 18.9785 2.84475 19.2891C3.0309 19.9477 3.473 20.4806 4.04592 20.7656C4.31229 20.8981 4.6608 20.9639 5.68362 21.1328C6.01531 21.1876 6.23089 21.2232 6.39651 21.2402C6.55788 21.2568 6.61665 21.2487 6.63869 21.2441C6.88279 21.1938 7.10392 21.0092 7.20119 20.7314C7.21325 20.697 7.23048 20.6261 7.24026 20.4521C7.25023 20.2747 7.25002 20.0432 7.25002 19.6934V15.1875C7.25002 14.5533 7.24209 14.4028 7.21291 14.3057C7.12642 14.018 6.90794 13.8202 6.66115 13.7607C6.5836 13.7421 6.45809 13.7425 5.8467 13.793ZM17.3399 13.7607C17.0929 13.82 16.8736 14.0178 16.7871 14.3057C16.7579 14.4028 16.75 14.5533 16.75 15.1875V19.6934C16.75 20.0433 16.7509 20.2747 16.7608 20.4521C16.7706 20.6261 16.7878 20.697 16.7998 20.7314C16.8972 21.009 17.1174 21.1938 17.3614 21.2441C17.3834 21.2487 17.4422 21.2568 17.6035 21.2402C17.7691 21.2232 17.9848 21.1876 18.3164 21.1328C19.3397 20.9638 19.6887 20.8982 19.9551 20.7656C20.5279 20.4806 20.9692 19.9476 21.1553 19.2891C21.2431 18.9785 21.25 18.5913 21.25 17.5137V17.3281C21.25 16.2777 21.2436 15.8989 21.1631 15.6006C20.9619 14.8563 20.4375 14.2727 19.7705 14.0146C19.5066 13.9126 19.1619 13.8761 18.1543 13.793C17.5433 13.7425 17.4174 13.7422 17.3399 13.7607ZM12 5.75C12.4142 5.75 12.75 6.08579 12.75 6.5V11.5C12.75 11.9142 12.4142 12.25 12 12.25C11.5859 12.25 11.25 11.9142 11.25 11.5V6.5C11.25 6.08582 11.5859 5.75005 12 5.75ZM9.00002 7.25C9.41423 7.25 9.75002 7.58579 9.75002 8V10C9.75002 10.4142 9.41423 10.75 9.00002 10.75C8.58584 10.75 8.25002 10.4142 8.25002 10V8C8.25002 7.58581 8.58584 7.25004 9.00002 7.25ZM15 7.25C15.4142 7.25 15.75 7.58579 15.75 8V10C15.75 10.4142 15.4142 10.75 15 10.75C14.5859 10.75 14.25 10.4142 14.25 10V8C14.25 7.58582 14.5859 7.25005 15 7.25Z" fill="#1C274C"/>
</svg>
