<svg width="24" height="24" viewBox="0 0 24 24" fill="none" xmlns="http://www.w3.org/2000/svg">
<path d="M15.2139 3.79395C17.5448 3.84111 18.8948 4.04925 19.8125 4.96484C20.9997 6.14928 21 8.05546 21 11.8682V15.9121C21 19.7248 20.9997 21.6309 19.8125 22.8154C18.6253 23.9997 16.7149 24 12.8936 24C9.07209 24 7.16085 23.9998 5.97365 22.8154C4.78664 21.6309 4.78712 19.7246 4.78712 15.9121V14.1797C4.78712 13.9113 4.78711 13.7771 4.81252 13.666C4.89915 13.2876 5.19491 12.9917 5.57423 12.9053C5.68552 12.88 5.8205 12.8799 6.08986 12.8799C7.70324 12.8799 8.51016 12.8799 9.17677 12.7285C11.4558 12.2105 13.2358 10.4348 13.7549 8.16113C13.9067 7.49606 13.9063 6.69175 13.9063 5.08398C13.9063 4.81768 13.9068 4.68438 13.9326 4.57227C14.0204 4.19286 14.33 3.88949 14.7119 3.80957C14.8249 3.78595 14.955 3.78871 15.2139 3.79395ZM9.85353 20.209C9.43385 20.209 9.09386 20.5481 9.09377 20.9668C9.09377 21.3856 9.43379 21.7256 9.85353 21.7256H15.9336C16.3533 21.7254 16.6934 21.3855 16.6934 20.9668C16.6933 20.5482 16.3532 20.2092 15.9336 20.209H9.85353ZM11.1397 4.23535C11.3533 4.23535 11.5572 4.32503 11.7012 4.48242L12.4414 5.29102C12.7243 5.60029 12.7026 6.08001 12.3926 6.3623C12.2374 6.50362 12.0392 6.56859 11.8447 6.55957C11.5109 8.80599 9.71634 10.6045 7.44044 10.6045C6.17332 10.6044 5.04102 10.0355 4.24025 9.14746C3.95999 8.83612 3.98598 8.35707 4.29787 8.07715C4.60992 7.79729 5.09046 7.82254 5.37111 8.13379C5.91209 8.73362 6.64527 9.08784 7.44044 9.08789C8.78382 9.08789 9.99403 8.04592 10.3037 6.55469C10.1537 6.53567 10.0078 6.47171 9.88771 6.3623C9.57774 6.08 9.55594 5.60031 9.83888 5.29102L10.5791 4.48242C10.723 4.32517 10.9262 4.23547 11.1397 4.23535ZM7.19923 1C8.56168 1 9.76654 1.65626 10.5733 2.66016C10.8357 2.98687 10.7825 3.46466 10.4551 3.72656C10.1277 3.98824 9.64921 3.93503 9.38673 3.6084C8.83744 2.92502 8.05286 2.5166 7.19923 2.5166C5.85588 2.51669 4.64558 3.55855 4.33595 5.0498C4.4859 5.0688 4.63183 5.13282 4.75197 5.24219C5.06199 5.5245 5.08375 6.00418 4.8008 6.31348L4.06154 7.12207C3.91756 7.27945 3.71359 7.36911 3.50002 7.36914C3.28642 7.36914 3.08249 7.27948 2.93849 7.12207L2.19826 6.31348C1.91542 6.00417 1.93809 5.52446 2.24806 5.24219C2.40334 5.1009 2.60134 5.03579 2.79591 5.04492C3.12971 2.79855 4.92343 1.00009 7.19923 1Z" fill="#1C274C"/>
</svg>
