<svg width="24" height="24" viewBox="0 0 24 24" fill="none" xmlns="http://www.w3.org/2000/svg">
<path d="M13.0566 1.25C14.8943 1.24998 16.3501 1.25016 17.4893 1.40332C18.6615 1.56095 19.6101 1.89332 20.3584 2.6416C21.1066 3.38992 21.439 4.33844 21.5967 5.51074C21.7498 6.6499 21.75 8.10571 21.75 9.94336V14.0566C21.75 15.8943 21.7498 17.3501 21.5967 18.4893C21.439 19.6615 21.1066 20.6101 20.3584 21.3584C19.6101 22.1066 18.6615 22.439 17.4893 22.5967C16.3501 22.7498 14.8943 22.75 13.0566 22.75H10.9434C9.1057 22.75 7.6499 22.7498 6.51074 22.5967C5.33844 22.439 4.38992 22.1066 3.6416 21.3584C2.89332 20.6101 2.56095 19.6615 2.40332 18.4893C2.25016 17.3501 2.24998 15.8943 2.25 14.0566V9.94336C2.24998 8.1057 2.25016 6.64991 2.40332 5.51074C2.56095 4.33844 2.8933 3.38992 3.6416 2.6416C4.38992 1.8933 5.33844 1.56095 6.51074 1.40332C7.6499 1.25016 9.10569 1.24998 10.9434 1.25H13.0566ZM11 2.75C9.09324 2.75 7.73859 2.75149 6.71094 2.88965C5.70485 3.02491 5.12536 3.27894 4.70215 3.70215C4.27894 4.12536 4.02491 4.70485 3.88965 5.71094C3.75149 6.73859 3.75 8.09324 3.75 10V14C3.75 15.9067 3.7515 17.2614 3.88965 18.2891C4.02491 19.2951 4.27894 19.8747 4.70215 20.2979C5.12536 20.7211 5.70485 20.9752 6.71094 21.1104C7.73858 21.2485 9.09325 21.25 11 21.25H13C14.9067 21.25 16.2614 21.2485 17.2891 21.1104C18.2951 20.9752 18.8747 20.7211 19.2979 20.2979C19.7211 19.8747 19.9752 19.2951 20.1104 18.2891C20.2485 17.2614 20.25 15.9067 20.25 14V10C20.25 8.09325 20.2485 6.73858 20.1104 5.71094C19.9752 4.70485 19.7211 4.12536 19.2979 3.70215C18.8747 3.27894 18.2951 3.02491 17.2891 2.88965C16.2614 2.7515 14.9067 2.75 13 2.75H11ZM12 8.25C15.1756 8.25 17.75 10.8244 17.75 14C17.75 17.1756 15.1756 19.75 12 19.75C8.82436 19.75 6.25 17.1756 6.25 14C6.25 10.8244 8.82436 8.25 12 8.25ZM15.0791 15.334C14.5993 15.2476 14.3091 15.2964 14.1064 15.3711C13.8834 15.4533 13.7031 15.5872 13.4277 15.8008C13.42 15.8069 13.4122 15.8132 13.4043 15.8193C13.1503 16.0164 12.8053 16.2837 12.3486 16.4521C11.8577 16.6332 11.2915 16.684 10.5908 16.5576C9.56432 16.3726 8.74725 16.0228 8.09766 15.6875C8.75057 17.1953 10.2523 18.25 12 18.25C13.7869 18.25 15.316 17.1471 15.9443 15.585C15.7241 15.4892 15.4427 15.3995 15.0791 15.334ZM12 9.75C9.7242 9.75 7.86583 11.5389 7.75488 13.7871C7.92286 13.8757 8.08788 13.9676 8.25391 14.0605C8.96718 14.4597 9.70748 14.8738 10.8574 15.0811C11.3373 15.1676 11.6274 15.1197 11.8301 15.0449C12.053 14.9627 12.2334 14.8288 12.5088 14.6152C12.5165 14.6092 12.5243 14.6028 12.5322 14.5967C12.7861 14.3995 13.1304 14.1323 13.5869 13.9639C14.078 13.7827 14.644 13.7322 15.3447 13.8584C15.6829 13.9193 15.9828 13.9984 16.249 14.0928C16.2497 14.0619 16.25 14.0311 16.25 14C16.25 11.6528 14.3472 9.75 12 9.75ZM16 5.25C16.4142 5.25 16.75 5.58579 16.75 6C16.75 6.41421 16.4142 6.75 16 6.75H8C7.58579 6.75 7.25 6.41421 7.25 6C7.25 5.58579 7.58579 5.25 8 5.25H16Z" fill="#1C274C"/>
</svg>
