<svg width="24" height="24" viewBox="0 0 24 24" fill="none" xmlns="http://www.w3.org/2000/svg">
<path d="M15.584 2.15308C16.0252 1.94537 16.5452 1.94689 16.9775 2.17065C17.5613 2.47292 18.3911 2.92583 18.9638 3.33667C19.1155 3.44549 19.273 3.56782 19.4316 3.69897C20.4798 4.56597 21.0043 4.99988 21 5.69019C20.9955 6.38063 20.4045 6.8583 19.2226 7.81226L19.0156 7.97925C18.4634 8.42496 18.187 8.64797 18.04 8.94897C17.8931 9.24995 17.8925 9.59232 17.8925 10.2771V15.5398C17.8925 16.2406 17.8932 16.5916 17.7724 16.9158C17.6516 17.2401 17.419 17.514 16.9541 18.0613L14.5722 20.864C14.0982 21.4219 13.861 21.701 13.5312 21.8503C13.2012 21.9997 12.8214 21.9998 12.0625 21.9998H11.9375C11.1786 21.9998 10.7987 21.9997 10.4687 21.8503C10.1389 21.701 9.9017 21.4219 9.4277 20.864L7.04587 18.0613C6.58095 17.5141 6.34928 17.24 6.22849 16.9158C6.10769 16.5916 6.10739 16.2407 6.10739 15.5398V10.2771C6.10739 9.5923 6.1069 9.24995 5.95993 8.94897C5.8129 8.64797 5.53659 8.42496 4.98434 7.97925L4.77731 7.81226C3.59533 6.8583 3.00441 6.38063 2.99997 5.69019C2.99564 4.99988 3.5201 4.56597 4.56833 3.69897C4.72691 3.56781 4.8844 3.4455 5.0361 3.33667C5.6088 2.92582 6.43858 2.47293 7.02243 2.17065C7.45474 1.94686 7.9747 1.94539 8.41599 2.15308L8.67966 2.27808C8.74896 2.3107 8.80855 2.35995 8.85153 2.42065C10.3494 4.5357 13.6505 4.53567 15.1484 2.42065C15.1913 2.35995 15.251 2.3107 15.3203 2.27808L15.584 2.15308Z" fill="#1C274C"/>
</svg>
