<svg width="24" height="24" viewBox="0 0 24 24" fill="none" xmlns="http://www.w3.org/2000/svg">
<path d="M16 21.25C16.4142 21.25 16.75 21.5858 16.75 22C16.75 22.4142 16.4142 22.75 16 22.75H8C7.58579 22.75 7.25 22.4142 7.25 22C7.25 21.5858 7.58579 21.25 8 21.25H16ZM19 18.25C19.4142 18.25 19.75 18.5858 19.75 19C19.75 19.4142 19.4142 19.75 19 19.75H5C4.58579 19.75 4.25 19.4142 4.25 19C4.25 18.5858 4.58579 18.25 5 18.25H19ZM12.75 5.29102C16.125 5.6641 18.75 8.52558 18.75 12C18.75 13.1777 18.4476 14.2859 17.917 15.25H22C22.4142 15.25 22.75 15.5858 22.75 16C22.7499 16.4141 22.4141 16.75 22 16.75H2C1.58585 16.75 1.2501 16.4141 1.25 16C1.25 15.5858 1.58579 15.25 2 15.25H6.08301C5.55247 14.2859 5.25003 13.1777 5.25 12C5.25 8.52558 7.87504 5.6641 11.25 5.29102V10.1895L10.5303 9.46973C10.2374 9.17683 9.76262 9.17683 9.46973 9.46973C9.17698 9.76263 9.17689 10.2374 9.46973 10.5303L11.4697 12.5303C11.7626 12.823 12.2374 12.823 12.5303 12.5303L14.5303 10.5303C14.8231 10.2374 14.823 9.76263 14.5303 9.46973C14.2374 9.17683 13.7626 9.17683 13.4697 9.46973L12.75 10.1895V5.29102ZM3 11.25C3.41421 11.25 3.75 11.5858 3.75 12C3.75 12.4142 3.41421 12.75 3 12.75H2C1.58579 12.75 1.25 12.4142 1.25 12C1.25 11.5858 1.58579 11.25 2 11.25H3ZM22 11.25C22.4142 11.25 22.75 11.5858 22.75 12C22.75 12.4142 22.4142 12.75 22 12.75H21C20.5858 12.75 20.25 12.4142 20.25 12C20.25 11.5858 20.5858 11.25 21 11.25H22ZM4.39844 4.39844C4.69125 4.10562 5.16608 4.10578 5.45898 4.39844L5.85254 4.79102C6.14543 5.08391 6.14543 5.55964 5.85254 5.85254C5.55964 6.14543 5.08391 6.14543 4.79102 5.85254L4.39844 5.45898C4.10578 5.16608 4.10562 4.69125 4.39844 4.39844ZM18.54 4.39844C18.8329 4.10555 19.3087 4.10555 19.6016 4.39844C19.8944 4.69132 19.8944 5.16707 19.6016 5.45996L19.208 5.85254C18.9151 6.14519 18.4403 6.14534 18.1475 5.85254C17.8546 5.55971 17.8548 5.0849 18.1475 4.79199L18.54 4.39844ZM12 1.25C12.4142 1.25 12.75 1.58579 12.75 2V3C12.75 3.41421 12.4142 3.75 12 3.75C11.5858 3.75 11.25 3.41421 11.25 3V2C11.25 1.58579 11.5858 1.25 12 1.25Z" fill="#48465C"/>
</svg>
