<svg width="24" height="24" viewBox="0 0 24 24" fill="none" xmlns="http://www.w3.org/2000/svg">
<path d="M9.9873 2.11157C11.1355 0.96337 12.9973 0.96337 14.1455 2.11157L21.8887 9.85474C22.469 10.435 22.7562 11.1978 22.75 11.9583C22.7502 11.9722 22.75 11.9863 22.75 12.0002C22.75 13.6017 21.452 14.9004 19.8506 14.9006C19.356 14.9006 18.8898 14.7763 18.4824 14.5579C18.2114 14.4208 17.9569 14.2393 17.7305 14.0129L14.3896 10.6711L13.5957 11.4651C13.4828 11.5781 13.4621 11.7538 13.5459 11.8899L14.1914 12.9397C14.9288 14.138 13.4991 15.4883 12.3447 14.6838L7.72656 11.4661L12.6709 18.5598C13.4813 19.7225 12.1075 21.1564 10.9111 20.3967L4.79492 16.5129L5.44434 17.884C5.77777 18.588 5.63449 19.4259 5.08301 19.9778L2.53027 22.5305C2.23742 22.8233 1.7626 22.8233 1.46973 22.5305C1.17685 22.2376 1.17688 21.7629 1.46973 21.47L4.02148 18.9172C4.1241 18.8147 4.15153 18.659 4.08887 18.5266L3.13965 16.5227C2.58281 15.3471 3.90971 14.1744 5.00781 14.8713L10.8643 18.5901L5.84766 11.3938C5.01945 10.2055 6.46598 8.75907 7.6543 9.58716L12.4043 12.8977L12.2686 12.676C11.8208 11.9484 11.931 11.0086 12.5352 10.4045L13.3291 9.6106L9.9873 6.2688C8.83941 5.12064 8.83938 3.25971 9.9873 2.11157ZM19.8506 10.5999C19.0774 10.5999 18.4502 11.227 18.4502 12.0002C18.4502 12.5277 18.7419 12.9872 19.1729 13.2258C19.7108 13.491 20.3803 13.4 20.8281 12.9524C21.1018 12.6787 21.2427 12.3218 21.25 11.9631C21.2301 11.2074 20.6111 10.6001 19.8506 10.5999ZM13.085 3.17212C12.5226 2.60971 11.6103 2.60971 11.0479 3.17212C10.4858 3.73447 10.4858 4.64588 11.0479 5.20825L14.9199 9.08032L17.0566 11.218C17.3324 10.2319 18.1165 9.45718 19.1084 9.19556L13.085 3.17212Z" fill="#48465C"/>
</svg>
