<svg width="24" height="24" viewBox="0 0 24 24" fill="none" xmlns="http://www.w3.org/2000/svg">
<path d="M12 7.5C12.6904 7.5 13.25 8.05964 13.25 8.75C13.25 9.17421 13.0389 9.54941 12.7158 9.77539L15.2061 17.2461C15.21 17.257 15.2134 17.2682 15.2168 17.2793L16.7119 21.7627C16.8429 22.1557 16.6302 22.5809 16.2373 22.7119C15.8443 22.8429 15.4191 22.6302 15.2881 22.2373L13.959 18.25H10.041L8.71191 22.2373C8.58093 22.6302 8.15566 22.8429 7.7627 22.7119C7.36975 22.5809 7.15712 22.1557 7.28809 21.7627L8.7832 17.2793C8.78662 17.2682 8.79004 17.257 8.79395 17.2461L11.2842 9.77539C10.9611 9.54941 10.75 9.17421 10.75 8.75C10.75 8.05964 11.3096 7.5 12 7.5ZM10.541 16.75H13.459L12 12.3721L10.541 16.75ZM12 1.25C16.2857 1.25 19.75 4.74979 19.75 9.05469C19.75 11.1656 18.9166 13.0833 17.5635 14.4883C17.2762 14.7863 16.8011 14.7951 16.5029 14.5078C16.2048 14.2205 16.1962 13.7455 16.4834 13.4473C17.5769 12.3117 18.25 10.7637 18.25 9.05469C18.25 5.56719 15.4463 2.75 12 2.75C8.55373 2.75 5.75002 5.56719 5.75 9.05469C5.75 10.7783 6.43484 12.3385 7.54492 13.4766C7.83389 13.7731 7.82768 14.248 7.53125 14.5371C7.23472 14.8261 6.75986 14.8199 6.4707 14.5234C5.09738 13.1154 4.25 11.1834 4.25 9.05469C4.25002 4.74979 7.71431 1.25 12 1.25ZM12 4.07227C14.7393 4.07227 16.9502 6.30826 16.9502 9.05469C16.9502 10.3835 16.4322 11.5929 15.5889 12.4863C15.3046 12.7875 14.8295 12.8018 14.5283 12.5176C14.2271 12.2333 14.2136 11.7582 14.498 11.457C15.0881 10.8321 15.4502 9.98721 15.4502 9.05469C15.4502 7.12565 13.8999 5.57227 12 5.57227C10.1001 5.57227 8.5498 7.12565 8.5498 9.05469C8.54982 10.0003 8.92238 10.8558 9.52734 11.4834C9.81475 11.7815 9.80659 12.2564 9.50879 12.5439C9.21074 12.8313 8.73581 12.8232 8.44824 12.5254C7.5832 11.6283 7.04982 10.4027 7.0498 9.05469C7.0498 6.30826 9.26069 4.07227 12 4.07227Z" fill="#1C274C"/>
</svg>
