<svg width="24" height="24" viewBox="0 0 24 24" fill="none" xmlns="http://www.w3.org/2000/svg">
<path d="M15.7958 1.96191C17.3092 1.86276 18.7334 2.68464 19.4042 4.04492C19.5681 4.37734 19.6764 4.78092 19.8348 5.37305C19.8422 5.40051 19.8497 5.42874 19.8573 5.45703C19.8614 5.47245 19.8658 5.48837 19.87 5.50391C19.9173 5.67943 19.9659 5.86215 19.9774 6.03711C20.0237 6.7434 19.6406 7.40863 19.0057 7.72168C18.8484 7.79927 18.6648 7.84771 18.4891 7.89453C18.4737 7.89864 18.4585 7.90314 18.4432 7.90723L9.69714 10.25H16.0516C16.9501 10.25 17.7 10.2501 18.2948 10.3301C18.9224 10.4145 19.4889 10.6003 19.9442 11.0557C20.3997 11.5112 20.5854 12.0783 20.6698 12.7061C20.7498 13.3007 20.7499 14.05 20.7499 14.9482V16.0547C20.7499 17.4221 20.7501 18.5247 20.6337 19.3916C20.5127 20.2917 20.2532 21.0495 19.6512 21.6514C19.0493 22.2533 18.2916 22.5128 17.3915 22.6338C16.5245 22.7503 15.422 22.7501 14.0546 22.75H9.94519C8.5776 22.7501 7.47525 22.7504 6.60828 22.6338C5.70817 22.5128 4.95043 22.2533 4.34851 21.6514C3.74672 21.0495 3.4871 20.2916 3.36609 19.3916C3.24958 18.5247 3.24986 17.4221 3.24988 16.0547V11.0928C3.02415 10.2503 2.84221 9.56709 2.74402 9C2.64017 8.40016 2.61588 7.85799 2.75964 7.32129C2.93001 6.68545 3.26489 6.10511 3.73035 5.63965C4.12318 5.24694 4.60445 4.99706 5.17566 4.78711C5.73011 4.58335 6.43503 4.39516 7.30847 4.16113L8.08875 3.95215C8.17624 3.90872 8.27372 3.88131 8.37488 3.875L14.3456 2.27539C14.3529 2.27344 14.3608 2.27147 14.368 2.26953C14.4555 2.22615 14.5521 2.19964 14.6532 2.19336C15.1272 2.06737 15.4744 1.98297 15.7958 1.96191ZM4.74988 16C4.74988 17.4355 4.75183 18.4371 4.85339 19.1924C4.95204 19.9258 5.13243 20.3142 5.40906 20.5908C5.68582 20.8676 6.07469 21.0488 6.80847 21.1475C7.56375 21.2489 8.56477 21.25 9.99988 21.25H13.9999C15.4353 21.25 16.4369 21.249 17.1923 21.1475C17.9259 21.0488 18.3139 20.8676 18.5907 20.5908C18.8675 20.3142 19.0486 19.926 19.1473 19.1924C19.2488 18.4371 19.2499 17.4355 19.2499 16V15C19.2499 14.0361 19.2484 13.3884 19.1835 12.9053C19.1214 12.4441 19.0139 12.2465 18.8837 12.1162C18.7534 11.9859 18.5559 11.8784 18.0946 11.8164C17.6116 11.7514 16.9638 11.75 15.9999 11.75H4.74988V16ZM10.868 13.957C11.3639 13.6071 11.8822 13.7724 12.1971 13.9277C12.4923 14.0733 12.8374 14.3206 13.1991 14.5801C13.2146 14.5912 13.2295 14.6031 13.245 14.6143C13.259 14.6242 13.273 14.6345 13.287 14.6445C13.6477 14.9031 13.9866 15.1454 14.2274 15.3818C14.4975 15.6472 14.7498 16.0054 14.7499 16.5C14.7499 16.9948 14.4975 17.3528 14.2274 17.6182C13.9866 17.8547 13.6478 18.0978 13.287 18.3564L13.245 18.3867C13.2296 18.3977 13.2145 18.409 13.1991 18.4199C12.8374 18.6794 12.4923 18.9266 12.1971 19.0723C11.8821 19.2277 11.3639 19.393 10.868 19.043C10.4376 18.7392 10.3341 18.2489 10.2928 17.9053C10.2499 17.5473 10.2499 17.0797 10.2499 16.5469V16.4531C10.2499 15.9205 10.2499 15.4536 10.2928 15.0957C10.334 14.7521 10.4374 14.2609 10.868 13.957ZM11.7694 15.4121C11.7511 15.6618 11.7499 16.0051 11.7499 16.5C11.7499 16.995 11.7512 17.3382 11.7694 17.5879C11.918 17.4909 12.1098 17.3543 12.371 17.167C12.7889 16.8674 13.0295 16.6925 13.1766 16.5479C13.1958 16.5291 13.2108 16.5131 13.2225 16.5C13.2108 16.4868 13.1958 16.4709 13.1766 16.4521C13.0295 16.3075 12.7889 16.1326 12.371 15.833C12.1097 15.6457 11.9179 15.509 11.7694 15.4121ZM7.54382 5.65039C6.72686 5.8696 6.14275 6.03012 5.69324 6.19531C5.22022 6.36917 4.96633 6.52488 4.79089 6.7002C4.51166 6.97943 4.31012 7.32754 4.20789 7.70898C4.14367 7.94867 4.1365 8.24717 4.22253 8.74414C4.2851 9.10543 4.38943 9.53356 4.53308 10.0811L7.09753 9.39355L7.54382 5.65039ZM9.10437 5.23242L8.65808 8.97559L13.3759 7.71191L13.8231 3.96875L9.10437 5.23242ZM15.8934 3.45801C15.7708 3.46608 15.631 3.49213 15.3827 3.55371L14.9364 7.29297L18.0546 6.45801C18.1717 6.42663 18.2418 6.40747 18.2938 6.3916C18.3258 6.38185 18.3398 6.37653 18.3436 6.375C18.4325 6.33028 18.487 6.23705 18.4813 6.1377C18.4808 6.13408 18.4784 6.11849 18.4706 6.08496C18.4584 6.03204 18.4394 5.96249 18.4081 5.8457C18.2184 5.13774 18.1483 4.89006 18.0585 4.70801C17.6559 3.89202 16.8014 3.3985 15.8934 3.45801Z" fill="#1C274C"/>
</svg>
