<svg width="24" height="24" viewBox="0 0 24 24" fill="none" xmlns="http://www.w3.org/2000/svg">
<path d="M15.7959 1.96191C17.3094 1.86276 18.7335 2.68464 19.4043 4.04492C19.5682 4.37734 19.6765 4.78092 19.835 5.37305C19.8423 5.40051 19.8498 5.42874 19.8574 5.45703C19.8615 5.47245 19.8659 5.48837 19.8701 5.50391C19.9174 5.67943 19.966 5.86215 19.9775 6.03711C20.0238 6.7434 19.6408 7.40863 19.0059 7.72168C18.8486 7.79927 18.6649 7.84771 18.4893 7.89453C18.4738 7.89864 18.4586 7.90314 18.4434 7.90723L9.69727 10.25H16.0518C16.9503 10.25 17.7001 10.2501 18.2949 10.3301C18.9226 10.4145 19.489 10.6003 19.9443 11.0557C20.3998 11.5112 20.5855 12.0783 20.6699 12.7061C20.7499 13.3007 20.75 14.05 20.75 14.9482V16.0547C20.75 17.4221 20.7502 18.5247 20.6338 19.3916C20.5128 20.2917 20.2533 21.0495 19.6514 21.6514C19.0495 22.2533 18.2917 22.5128 17.3916 22.6338C16.5247 22.7503 15.4221 22.7501 14.0547 22.75H9.94531C8.57772 22.7501 7.47537 22.7504 6.6084 22.6338C5.70829 22.5128 4.95055 22.2533 4.34863 21.6514C3.74684 21.0495 3.48722 20.2916 3.36621 19.3916C3.2497 18.5247 3.24998 17.4221 3.25 16.0547V11.0928C3.02427 10.2503 2.84233 9.56709 2.74414 9C2.64029 8.40016 2.616 7.85798 2.75977 7.32129C2.93014 6.68545 3.26501 6.10511 3.73047 5.63965C4.1233 5.24694 4.60457 4.99706 5.17578 4.78711C5.73023 4.58335 6.43515 4.39516 7.30859 4.16113L8.08887 3.95215C8.17636 3.90872 8.27384 3.88131 8.375 3.875L14.3457 2.27539C14.353 2.27344 14.361 2.27147 14.3682 2.26953C14.4556 2.22615 14.5522 2.19964 14.6533 2.19336C15.1273 2.06737 15.4745 1.98297 15.7959 1.96191ZM4.75 16C4.75 17.4355 4.75196 18.4371 4.85352 19.1924C4.95216 19.9258 5.13255 20.3142 5.40918 20.5908C5.68594 20.8676 6.07481 21.0488 6.80859 21.1475C7.56387 21.2489 8.5649 21.25 10 21.25H14C15.4354 21.25 16.437 21.249 17.1924 21.1475C17.926 21.0488 18.3141 20.8676 18.5908 20.5908C18.8676 20.3142 19.0488 19.926 19.1475 19.1924C19.249 18.4371 19.25 17.4355 19.25 16V15C19.25 14.0361 19.2485 13.3884 19.1836 12.9053C19.1215 12.4441 19.0141 12.2465 18.8838 12.1162C18.7535 11.9859 18.556 11.8784 18.0947 11.8164C17.6117 11.7514 16.9639 11.75 16 11.75H4.75V16ZM10.8682 13.957C11.364 13.6071 11.8823 13.7723 12.1973 13.9277C12.4924 14.0733 12.8375 14.3206 13.1992 14.5801C13.2147 14.5912 13.2296 14.6031 13.2451 14.6143C13.2591 14.6242 13.2731 14.6345 13.2871 14.6445C13.6478 14.9031 13.9868 15.1454 14.2275 15.3818C14.4976 15.6472 14.75 16.0054 14.75 16.5C14.75 16.9948 14.4976 17.3528 14.2275 17.6182C13.9868 17.8547 13.6479 18.0978 13.2871 18.3564L13.2451 18.3867C13.2298 18.3977 13.2146 18.409 13.1992 18.4199C12.8375 18.6794 12.4924 18.9266 12.1973 19.0723C11.8823 19.2277 11.3641 19.393 10.8682 19.043C10.4377 18.7392 10.3342 18.2489 10.293 17.9053C10.25 17.5473 10.25 17.0797 10.25 16.5469V16.4531C10.25 15.9205 10.25 15.4536 10.293 15.0957C10.3342 14.7521 10.4376 14.2609 10.8682 13.957ZM11.7695 15.4121C11.7512 15.6618 11.75 16.0051 11.75 16.5C11.75 16.995 11.7513 17.3382 11.7695 17.5879C11.9181 17.4909 12.1099 17.3543 12.3711 17.167C12.789 16.8674 13.0297 16.6925 13.1768 16.5479C13.1959 16.5291 13.2109 16.5131 13.2227 16.5C13.2109 16.4868 13.1959 16.4709 13.1768 16.4521C13.0297 16.3075 12.789 16.1326 12.3711 15.833C12.1098 15.6457 11.918 15.509 11.7695 15.4121ZM7.54395 5.65039C6.72698 5.8696 6.14287 6.03012 5.69336 6.19531C5.22035 6.36917 4.96645 6.52488 4.79102 6.7002C4.51178 6.97943 4.31024 7.32754 4.20801 7.70898C4.14379 7.94867 4.13663 8.24717 4.22266 8.74414C4.28523 9.10543 4.38955 9.53356 4.5332 10.0811L7.09766 9.39355L7.54395 5.65039ZM9.10449 5.23242L8.6582 8.97559L13.376 7.71191L13.8232 3.96875L9.10449 5.23242ZM15.8936 3.45801C15.7709 3.46608 15.6311 3.49213 15.3828 3.55371L14.9365 7.29297L18.0547 6.45801C18.1718 6.42663 18.2419 6.40747 18.2939 6.3916C18.3259 6.38185 18.3399 6.37653 18.3438 6.375C18.4326 6.33028 18.4871 6.23705 18.4814 6.1377C18.4809 6.13408 18.4785 6.11849 18.4707 6.08496C18.4585 6.03204 18.4395 5.96249 18.4082 5.8457C18.2185 5.13774 18.1484 4.89006 18.0586 4.70801C17.656 3.89202 16.8015 3.3985 15.8936 3.45801Z" fill="#48465C"/>
</svg>
