<svg width="24" height="24" viewBox="0 0 24 24" fill="none" xmlns="http://www.w3.org/2000/svg">
<path fill-rule="evenodd" clip-rule="evenodd" d="M14.6807 1.32119C15.0552 1.14498 15.5022 1.30602 15.6787 1.68057C15.8551 2.05531 15.694 2.5022 15.3193 2.67861L9.85547 5.2499H14.0566C15.8943 5.24988 17.3501 5.25007 18.4893 5.40322C19.6614 5.56085 20.6101 5.89334 21.3584 6.6415C22.1067 7.38986 22.439 8.3392 22.5967 9.51162C22.7497 10.6508 22.75 12.1066 22.75 13.9442V14.0565C22.75 15.8943 22.7498 17.35 22.5967 18.4892C22.439 19.6616 22.1067 20.611 21.3584 21.3593C20.6101 22.1074 19.6614 22.44 18.4893 22.5976C17.3501 22.7507 15.8943 22.7499 14.0566 22.7499H9.94336C8.10571 22.7499 6.6499 22.7508 5.51074 22.5976C4.33857 22.44 3.38989 22.1074 2.6416 21.3593C1.89324 20.611 1.56094 19.6616 1.40332 18.4892C1.25017 17.35 1.24998 15.8943 1.25 14.0565V13.9442C1.24998 12.1066 1.25019 10.6508 1.40332 9.51162C1.56094 8.3392 1.89324 7.38986 2.6416 6.6415C3.3899 5.89332 4.33852 5.56085 5.51074 5.40322C5.7146 5.37582 5.92881 5.35334 6.15332 5.33486C6.16217 5.33026 6.17156 5.32548 6.18066 5.32119L14.6807 1.32119ZM10 6.7499C8.09319 6.7499 6.7386 6.75236 5.71094 6.89053C4.705 7.02577 4.12534 7.27896 3.70215 7.70205C3.27898 8.12522 3.02492 8.70492 2.88965 9.71084C2.75149 10.7384 2.75 12.0933 2.75 13.9999C2.75 15.9064 2.75154 17.2614 2.88965 18.289C3.02491 19.2951 3.27894 19.8755 3.70215 20.2987C4.12533 20.7218 4.70507 20.9751 5.71094 21.1103C6.73859 21.2484 8.09321 21.2499 10 21.2499H14C15.9067 21.2499 17.2614 21.2484 18.2891 21.1103C19.2948 20.9751 19.8747 20.7218 20.2979 20.2987C20.7211 19.8755 20.9752 19.2951 21.1104 18.289C21.2485 17.2614 21.25 15.9064 21.25 13.9999C21.25 12.0933 21.2485 10.7384 21.1104 9.71084C20.9751 8.70492 20.721 8.12522 20.2979 7.70205C19.8747 7.27896 19.2949 7.02577 18.2891 6.89053C17.2614 6.75237 15.9068 6.7499 14 6.7499H10ZM8 10.2499C10.071 10.2499 11.7498 11.929 11.75 13.9999C11.75 16.0709 10.0711 17.7499 8 17.7499C5.92893 17.7499 4.25 16.0709 4.25 13.9999C4.25022 11.929 5.92907 10.2499 8 10.2499ZM19 16.2499C19.4141 16.2499 19.7498 16.5859 19.75 16.9999C19.75 17.4141 19.4142 17.7499 19 17.7499H13.5C13.0858 17.7499 12.75 17.4141 12.75 16.9999C12.7502 16.5859 13.0859 16.2499 13.5 16.2499H19ZM8 11.7499C6.7575 11.7499 5.75022 12.7574 5.75 13.9999C5.75 15.2425 6.75736 16.2499 8 16.2499C9.24264 16.2499 10.25 15.2425 10.25 13.9999C10.2498 12.7574 9.2425 11.7499 8 11.7499ZM19 13.2499C19.4141 13.2499 19.7498 13.5859 19.75 13.9999C19.75 14.4141 19.4142 14.7499 19 14.7499H13.5C13.0858 14.7499 12.75 14.4141 12.75 13.9999C12.7502 13.5859 13.0859 13.2499 13.5 13.2499H19ZM19 10.2499C19.4141 10.2499 19.7498 10.5859 19.75 10.9999C19.75 11.4141 19.4142 11.7499 19 11.7499H13.5C13.0858 11.7499 12.75 11.4141 12.75 10.9999C12.7502 10.5859 13.0859 10.2499 13.5 10.2499H19Z" fill="#1C274C"/>
</svg>
