<svg width="24" height="24" viewBox="0 0 24 24" fill="none" xmlns="http://www.w3.org/2000/svg">
<path d="M12.9346 12.9346C15.1802 10.6891 18.8198 10.6891 21.0654 12.9346C22.188 14.0572 22.75 15.5296 22.75 17C22.75 18.4704 22.188 19.9438 21.0654 21.0664C18.82 23.3113 15.18 23.3113 12.9346 21.0664C11.812 19.9438 11.25 18.4704 11.25 17C11.25 15.5296 11.812 14.0572 12.9346 12.9346ZM12.8164 17.75C12.9637 18.5764 13.3566 19.3664 13.9951 20.0049C15.6548 21.6646 18.3452 21.6646 20.0049 20.0049C20.6434 19.3664 21.0363 18.5764 21.1836 17.75H12.8164ZM20.0049 13.9951C18.3452 12.3354 15.6548 12.3354 13.9951 13.9951C13.3566 14.6336 12.9637 15.4236 12.8164 16.25H21.1836C21.0363 15.4236 20.6434 14.6336 20.0049 13.9951ZM8 1.25C11.1756 1.25 13.75 3.82436 13.75 7C13.75 8.58761 13.1051 10.0256 12.0654 11.0654C11.0256 12.1051 9.58761 12.75 8 12.75C4.82436 12.75 2.25 10.1756 2.25 7C2.25 5.41239 2.89484 3.97429 3.93457 2.93457C4.97429 1.89484 6.41239 1.25 8 1.25ZM4.51172 4.57227C4.03149 5.26072 3.75 6.09696 3.75 7C3.75 9.34721 5.65279 11.25 8 11.25C8.90304 11.25 9.73932 10.9685 10.4277 10.4883L4.51172 4.57227ZM8 2.75C7.09696 2.75 6.26072 3.03149 5.57227 3.51172L11.4883 9.42773C11.9685 8.73928 12.25 7.90303 12.25 7C12.25 4.65279 10.3472 2.75 8 2.75Z" fill="#1C274C"/>
</svg>
