<svg width="24" height="24" viewBox="0 0 24 24" fill="none" xmlns="http://www.w3.org/2000/svg">
<path fill-rule="evenodd" clip-rule="evenodd" d="M17.875 1.25C19.739 1.25 21.25 2.76104 21.25 4.625V5.94141C21.25 7.72009 19.808 9.16211 18.0293 9.16211C17.9888 9.16217 17.9562 9.19487 17.9561 9.23535V10.25H19.2031C19.5622 10.25 19.8925 10.2496 20.1641 10.2803C20.4601 10.3136 20.7786 10.3912 21.0654 10.6113C21.1868 10.7044 21.2956 10.8132 21.3887 10.9346C21.6088 11.2214 21.6863 11.5399 21.7197 11.8359C21.7503 12.1075 21.75 12.4378 21.75 12.7969V13.0449C21.75 14.8814 21.7497 16.3218 21.626 17.4639C21.4997 18.6292 21.238 19.5736 20.6523 20.3799C20.2977 20.8679 19.8679 21.2968 19.3799 21.6514C18.5736 22.2372 17.6293 22.4997 16.4639 22.626C15.3218 22.7497 13.8814 22.75 12.0449 22.75H11.9551C10.1186 22.75 8.67827 22.7497 7.53614 22.626C6.37077 22.4997 5.42635 22.2372 4.62012 21.6514C4.13218 21.2969 3.70318 20.8678 3.34864 20.3799C2.76287 19.5736 2.50032 18.6293 2.37403 17.4639C2.25029 16.3218 2.25 14.8815 2.25 13.0449V12.7969C2.24997 12.4377 2.24965 12.1075 2.28028 11.8359C2.31365 11.5399 2.39119 11.2214 2.61133 10.9346C2.70443 10.8132 2.81324 10.7044 2.93457 10.6113C3.22151 10.3912 3.53998 10.3136 3.83594 10.2803C4.10757 10.2496 4.4377 10.25 4.79688 10.25H6.04395V9.23535C6.04384 9.19487 6.0112 9.16217 5.97071 9.16211C4.19203 9.16211 2.75 7.72009 2.75 5.94141V4.625C2.75 2.76104 4.26105 1.25 6.125 1.25C8.95546 1.25 11.25 3.54454 11.25 6.375V10.25H12.75V6.375C12.75 3.54454 15.0445 1.25 17.875 1.25ZM4.83301 11.75C4.42484 11.75 4.18122 11.7515 4.00391 11.7715C3.90054 11.7832 3.85811 11.7971 3.84571 11.8027C3.82977 11.8152 3.81521 11.8298 3.80274 11.8457C3.79713 11.8581 3.78316 11.9006 3.77149 12.0039C3.7515 12.1813 3.75 12.4249 3.75 12.833V13C3.75 14.8915 3.75128 16.2498 3.86524 17.3018C3.97768 18.3396 4.1925 18.9901 4.56153 19.498C4.82367 19.8588 5.14116 20.1764 5.50196 20.4385C6.00994 20.8075 6.66041 21.0223 7.69825 21.1348C8.75017 21.2487 10.1085 21.25 12 21.25C13.8915 21.25 15.2498 21.2487 16.3018 21.1348C17.3396 21.0223 17.9901 20.8075 18.4981 20.4385C18.8589 20.1764 19.1764 19.8588 19.4385 19.498C19.8075 18.9901 20.0224 18.3396 20.1348 17.3018C20.2487 16.2498 20.25 14.8915 20.25 13V12.833C20.25 12.4249 20.2485 12.1813 20.2285 12.0039C20.2168 11.9005 20.2029 11.8581 20.1973 11.8457C20.1848 11.8298 20.1702 11.8152 20.1543 11.8027C20.1419 11.7971 20.0995 11.7832 19.9961 11.7715C19.8188 11.7515 19.5751 11.75 19.167 11.75H16.6465C16.32 12.9043 15.2588 13.75 14 13.75H10C8.74124 13.75 7.67999 12.9043 7.35352 11.75H4.83301ZM9 11.75C9.22805 12.0536 9.59107 12.25 10 12.25H14C14.409 12.25 14.7719 12.0536 15 11.75H9ZM6.125 2.75C5.08948 2.75 4.25 3.58947 4.25 4.625V5.94141C4.25 6.89166 5.02046 7.66211 5.97071 7.66211C6.83963 7.66217 7.54384 8.36644 7.54395 9.23535V10.25H9.75V6.375C9.75 4.37297 8.12704 2.75 6.125 2.75ZM17.875 2.75C15.873 2.75 14.25 4.37297 14.25 6.375V10.25H16.4561V9.23535C16.4562 8.36644 17.1604 7.66217 18.0293 7.66211C18.9796 7.66211 19.75 6.89166 19.75 5.94141V4.625C19.75 3.58947 18.9105 2.75 17.875 2.75Z" fill="#1C274C"/>
</svg>
