<svg width="24" height="24" viewBox="0 0 24 24" fill="none" xmlns="http://www.w3.org/2000/svg">
<path fill-rule="evenodd" clip-rule="evenodd" d="M19.4999 6.25C19.9141 6.25003 20.2499 6.58581 20.2499 7C20.2499 9.24422 19.298 10.7193 18.0634 11.6084C16.8669 12.4699 15.4533 12.75 14.4999 12.75H6.31049L10.0302 16.4697C10.3231 16.7626 10.3231 17.2374 10.0302 17.5303C9.73737 17.8232 9.26256 17.8231 8.96967 17.5303L3.96967 12.5303C3.67678 12.2374 3.67678 11.7626 3.96967 11.4697L8.96967 6.46973C9.26256 6.17687 9.73736 6.17685 10.0302 6.46973C10.3231 6.76261 10.3231 7.23739 10.0302 7.53027L6.31049 11.25H14.4999C15.2132 11.25 16.2997 11.0299 17.1865 10.3916C18.035 9.7807 18.7499 8.75556 18.7499 7C18.7499 6.58579 19.0857 6.25 19.4999 6.25Z" fill="#1C274C"/>
</svg>
