<svg width="24" height="24" viewBox="0 0 24 24" fill="none" xmlns="http://www.w3.org/2000/svg">
<path d="M17.0518 13.25C17.9503 13.25 18.7001 13.2501 19.2949 13.3301C19.9225 13.4145 20.489 13.6003 20.9443 14.0557C21.3997 14.511 21.5855 15.0775 21.6699 15.7051C21.7499 16.2999 21.75 17.0497 21.75 17.9482V18.0518C21.75 18.9503 21.7499 19.7001 21.6699 20.2949C21.5855 20.9225 21.3997 21.489 20.9443 21.9443C20.489 22.3997 19.9225 22.5855 19.2949 22.6699C18.8081 22.7353 18.2172 22.7469 17.5264 22.749C17.5176 22.7493 17.5088 22.75 17.5 22.75H13.5C13.4912 22.75 13.4824 22.7493 13.4736 22.749C12.7828 22.7469 12.1919 22.7353 11.7051 22.6699C11.0775 22.5855 10.511 22.3997 10.0557 21.9443C9.60026 21.489 9.41451 20.9225 9.33008 20.2949C9.25012 19.7001 9.24997 18.9503 9.25 18.0518V17.9482C9.24997 17.0497 9.25012 16.2999 9.33008 15.7051C9.41452 15.0775 9.60026 14.511 10.0557 14.0557C10.511 13.6003 11.0775 13.4145 11.7051 13.3301C12.2999 13.2501 13.0497 13.25 13.9482 13.25H17.0518ZM14.25 21.25H16.75V14.75H14.25V21.25ZM10.752 18.708C10.7559 19.2984 10.7688 19.7407 10.8164 20.0947C10.8785 20.5561 10.9859 20.7535 11.1162 20.8838C11.2465 21.0141 11.4439 21.1215 11.9053 21.1836C12.1415 21.2153 12.4173 21.2315 12.75 21.2402V18.75H11C10.9131 18.75 10.8296 18.7352 10.752 18.708ZM18.25 21.2402C18.5827 21.2315 18.8585 21.2153 19.0947 21.1836C19.5561 21.1215 19.7535 21.0141 19.8838 20.8838C20.0141 20.7535 20.1215 20.5561 20.1836 20.0947C20.23 19.7492 20.2438 19.3194 20.248 18.75H18.25V21.2402ZM2.46973 12.4697C2.76262 12.1768 3.23739 12.1768 3.53027 12.4697L4.53027 13.4697C4.82317 13.7626 4.82317 14.2374 4.53027 14.5303C4.31977 14.7408 4.01533 14.8001 3.75195 14.708C3.7541 14.9958 3.75864 15.2921 3.76855 15.5674C3.77779 15.8242 3.79174 16.0514 3.81055 16.2305C3.82552 16.3729 3.8396 16.4465 3.84473 16.4717C3.84708 16.4832 3.84735 16.4848 3.84473 16.4785C3.97159 16.7847 4.2152 17.0284 4.52148 17.1553C4.59863 17.1872 4.71631 17.216 4.95703 17.2324C5.20446 17.2493 5.52397 17.25 6 17.25C6.41422 17.25 6.75 17.5858 6.75 18C6.75 18.4142 6.41422 18.75 6 18.75H5.97461C5.53022 18.75 5.15907 18.7503 4.85449 18.7295C4.53744 18.7079 4.23762 18.6613 3.94727 18.541C3.27359 18.2619 2.73809 17.7264 2.45898 17.0527C2.37451 16.8488 2.33938 16.5876 2.31836 16.3877C2.29437 16.1594 2.27931 15.8931 2.26953 15.6211C2.25888 15.3249 2.25415 15.0085 2.25195 14.707C1.98772 14.801 1.68123 14.7418 1.46973 14.5303C1.17684 14.2374 1.17684 13.7626 1.46973 13.4697L2.46973 12.4697ZM12.75 14.7598C12.4173 14.7685 12.1415 14.7847 11.9053 14.8164C11.4439 14.8785 11.2465 14.9859 11.1162 15.1162C10.9859 15.2465 10.8785 15.4439 10.8164 15.9053C10.7688 16.2593 10.7559 16.7016 10.752 17.292C10.8296 17.2648 10.9131 17.25 11 17.25H12.75V14.7598ZM18.25 17.25H20.248C20.2438 16.6806 20.23 16.2508 20.1836 15.9053C20.1215 15.4439 20.0141 15.2465 19.8838 15.1162C19.7535 14.9859 19.5561 14.8785 19.0947 14.8164C18.8585 14.7847 18.5827 14.7685 18.25 14.7598V17.25ZM18.0254 5.25C18.4698 5.24999 18.8409 5.24973 19.1455 5.27051C19.4626 5.29215 19.7624 5.33872 20.0527 5.45898C20.7264 5.73809 21.2619 6.27359 21.541 6.94727C21.6254 7.15118 21.6605 7.41234 21.6816 7.6123C21.7056 7.84056 21.7207 8.10694 21.7305 8.37891C21.7411 8.67507 21.7458 8.99146 21.748 9.29297C22.0122 9.19901 22.3188 9.25823 22.5303 9.46973C22.8232 9.76263 22.8232 10.2374 22.5303 10.5303L21.5303 11.5303C21.2374 11.8232 20.7626 11.8232 20.4697 11.5303L19.4697 10.5303C19.1768 10.2374 19.1768 9.76263 19.4697 9.46973C19.6802 9.25922 19.9847 9.19993 20.248 9.29199C20.2459 9.00417 20.2413 8.70792 20.2314 8.43262C20.2222 8.17586 20.2082 7.94856 20.1895 7.76953C20.1745 7.62707 20.1604 7.55355 20.1553 7.52832C20.153 7.51684 20.1526 7.51519 20.1553 7.52148C20.0284 7.2152 19.7847 6.9716 19.4785 6.84473C19.4013 6.81278 19.2836 6.784 19.043 6.76758C18.7955 6.75072 18.476 6.75 18 6.75C17.5858 6.75 17.25 6.41422 17.25 6C17.25 5.58579 17.5858 5.25 18 5.25H18.0254ZM11.0518 1.25C11.9503 1.24997 12.7001 1.25012 13.2949 1.33008C13.9225 1.41452 14.489 1.6003 14.9443 2.05566C15.3997 2.51102 15.5855 3.07748 15.6699 3.70508C15.7499 4.29987 15.75 5.04976 15.75 5.94824V6.05176C15.75 6.95024 15.7499 7.70014 15.6699 8.29492C15.5855 8.92253 15.3997 9.48898 14.9443 9.94434C14.489 10.3997 13.9225 10.5855 13.2949 10.6699C12.7001 10.7499 11.9503 10.75 11.0518 10.75H5.94824C5.04976 10.75 4.29986 10.7499 3.70508 10.6699C3.07747 10.5855 2.51102 10.3997 2.05566 9.94434C1.60031 9.48898 1.41452 8.92254 1.33008 8.29492C1.25012 7.70014 1.24997 6.95024 1.25 6.05176V5.94824C1.24997 5.04976 1.25012 4.29986 1.33008 3.70508C1.41452 3.07747 1.6003 2.51102 2.05566 2.05566C2.51102 1.6003 3.07747 1.41452 3.70508 1.33008C4.29986 1.25012 5.04976 1.24997 5.94824 1.25H11.0518ZM6.75 9.25H10.25V2.75H6.75V9.25ZM2.75195 6.75C2.75618 7.31944 2.76996 7.74923 2.81641 8.09473C2.87845 8.55611 2.9859 8.75348 3.11621 8.88379C3.24652 9.01409 3.44389 9.12155 3.90527 9.18359C4.25077 9.23004 4.68056 9.24382 5.25 9.24805V6.75H2.75195ZM11.75 9.24805C12.3194 9.24382 12.7492 9.23004 13.0947 9.18359C13.5561 9.12155 13.7535 9.01409 13.8838 8.88379C14.0141 8.75348 14.1215 8.55612 14.1836 8.09473C14.23 7.74923 14.2438 7.31944 14.248 6.75H11.75V9.24805ZM5.25 2.75195C4.68056 2.75618 4.25077 2.76996 3.90527 2.81641C3.44388 2.87845 3.24652 2.9859 3.11621 3.11621C2.9859 3.24652 2.87845 3.44388 2.81641 3.90527C2.76996 4.25077 2.75618 4.68056 2.75195 5.25H5.25V2.75195ZM11.75 5.25H14.248C14.2438 4.68056 14.23 4.25077 14.1836 3.90527C14.1215 3.44389 14.0141 3.24652 13.8838 3.11621C13.7535 2.98591 13.5561 2.87845 13.0947 2.81641C12.7492 2.76996 12.3194 2.75618 11.75 2.75195V5.25Z" fill="#48465C"/>
</svg>
