<svg width="24" height="24" viewBox="0 0 24 24" fill="none" xmlns="http://www.w3.org/2000/svg">
<path fill-rule="evenodd" clip-rule="evenodd" d="M18.0449 1.25C18.4777 1.24995 18.8745 1.24959 19.1973 1.29297C19.5528 1.34076 19.9283 1.45371 20.2373 1.7627C20.5464 2.07171 20.6593 2.44727 20.7071 2.80274C20.7505 3.1255 20.7501 3.52234 20.75 3.95508V4.25196C20.7509 4.57754 20.7525 4.92927 20.6172 5.25586C20.4819 5.58245 20.2319 5.83 20.001 6.05958L16.7022 9.3584C16.0809 9.97974 15.9275 10.1529 15.8457 10.3506C15.7639 10.5481 15.75 10.7789 15.75 11.6572V19.0254C15.75 19.4698 15.7503 19.8409 15.7295 20.1455C15.7079 20.4626 15.6613 20.7624 15.541 21.0527C15.2619 21.7264 14.7265 22.2619 14.0528 22.541C13.7624 22.6613 13.4626 22.7079 13.1455 22.7295C12.8409 22.7503 12.4698 22.75 12.0254 22.75H11.9746C11.5303 22.75 11.1592 22.7503 10.8545 22.7295C10.5375 22.7079 10.2376 22.6613 9.94729 22.541C9.27364 22.2619 8.73809 21.7264 8.45901 21.0527C8.33874 20.7624 8.29217 20.4626 8.27053 20.1455C8.24975 19.8409 8.25002 19.4698 8.25003 19.0254V11.6572C8.25003 10.7793 8.23698 10.5481 8.1553 10.3506C8.07342 10.1529 7.91921 9.97973 7.29788 9.3584L3.99905 6.05958C3.76821 5.83007 3.51918 5.58232 3.38382 5.25586C3.24854 4.92927 3.24909 4.57754 3.25003 4.25196V3.95508C3.24998 3.52234 3.2496 3.1255 3.293 2.80274C3.34078 2.44728 3.45374 2.07171 3.76272 1.7627C4.07171 1.45372 4.44732 1.34077 4.80276 1.29297C5.1255 1.24958 5.5224 1.24995 5.9551 1.25H18.0449ZM9.73635 10.75C9.75026 10.9925 9.75031 11.2523 9.75003 11.5361V19C9.75003 19.476 9.75074 19.7955 9.7676 20.043C9.78402 20.2837 9.81377 20.4013 9.84573 20.4785C9.97261 20.7846 10.2154 21.0284 10.5215 21.1553C10.5986 21.1872 10.7164 21.216 10.9571 21.2324C11.2045 21.2493 11.524 21.25 12 21.25C12.476 21.25 12.7956 21.2493 13.043 21.2324C13.2836 21.216 13.4013 21.1872 13.4785 21.1553C13.7847 21.0284 14.0284 20.7847 14.1553 20.4785C14.1872 20.4013 14.216 20.2837 14.2324 20.043C14.2493 19.7955 14.25 19.476 14.25 19V11.5361C14.2498 11.2523 14.2498 10.9925 14.2637 10.75H9.73635ZM12 12.25C12.4142 12.25 12.75 12.5858 12.75 13V15C12.75 15.4142 12.4142 15.75 12 15.75C11.5859 15.7499 11.25 15.4141 11.25 15V13C11.25 12.5859 11.5859 12.2501 12 12.25ZM8.44436 8.38379C8.75619 8.69502 9.02701 8.96526 9.23733 9.25H14.7627C14.973 8.96525 15.2439 8.69501 15.5557 8.38379L18.1895 5.75H5.81057L8.44436 8.38379ZM6.00003 2.75C5.50757 2.75001 5.21365 2.75196 5.00296 2.78028C4.9064 2.79326 4.85774 2.80843 4.83596 2.81739C4.83115 2.81937 4.82812 2.82127 4.8262 2.82227L4.82327 2.82325L4.82229 2.82618C4.82128 2.82813 4.81937 2.83116 4.81741 2.83594C4.80845 2.85772 4.79328 2.90637 4.7803 3.00293C4.752 3.21364 4.75003 3.50757 4.75003 4V4.25H19.25V4C19.25 3.50755 19.248 3.21364 19.2198 3.00293C19.2068 2.90637 19.1916 2.85772 19.1826 2.83594C19.1807 2.83112 19.1788 2.82811 19.1778 2.82618L19.1768 2.82325L19.1748 2.82227C19.1729 2.82126 19.1692 2.81945 19.1641 2.81739C19.1424 2.80843 19.0937 2.79326 18.9971 2.78028C18.7864 2.75199 18.4924 2.75 18 2.75H6.00003Z" fill="#1C274C"/>
</svg>
