<svg width="24" height="24" viewBox="0 0 24 24" fill="none" xmlns="http://www.w3.org/2000/svg">
<path d="M18.0447 1.25C18.4774 1.24995 18.8743 1.24957 19.197 1.29297C19.5525 1.34076 19.9281 1.45368 20.2371 1.7627C20.5461 2.0717 20.659 2.44727 20.7068 2.80273C20.7502 3.1255 20.7499 3.52233 20.7498 3.95508V4.25195C20.7507 4.57753 20.7522 4.92926 20.6169 5.25586C20.4816 5.58247 20.2316 5.82999 20.0007 6.05957L16.7019 9.3584C16.0806 9.97974 15.9263 10.1529 15.8445 10.3506C15.7628 10.5481 15.7498 10.7794 15.7498 11.6572V19.0254C15.7498 19.4698 15.75 19.8409 15.7292 20.1455C15.7076 20.4626 15.6611 20.7624 15.5408 21.0527C15.2617 21.7264 14.7261 22.2619 14.0525 22.541C13.7621 22.6613 13.4623 22.7079 13.1453 22.7295C12.8407 22.7503 12.4695 22.75 12.0251 22.75H11.9744C11.53 22.75 11.1589 22.7503 10.8542 22.7295C10.5372 22.7079 10.2374 22.6613 9.94702 22.541C9.27333 22.2619 8.73784 21.7264 8.45874 21.0527C8.33847 20.7624 8.2919 20.4626 8.27026 20.1455C8.24948 19.8409 8.24975 19.4698 8.24976 19.0254V11.6572C8.24976 10.7794 8.23669 10.5481 8.15503 10.3506C8.07315 10.1529 7.91894 9.97973 7.29761 9.3584L3.99878 6.05957C3.76787 5.82999 3.5179 5.58247 3.38257 5.25586C3.24729 4.92926 3.24882 4.57753 3.24976 4.25195V3.95508C3.24971 3.52233 3.24933 3.1255 3.29272 2.80273C3.34052 2.44726 3.45344 2.07171 3.76245 1.7627C4.07147 1.45368 4.44702 1.34076 4.80249 1.29297C5.12526 1.24957 5.52208 1.24995 5.95483 1.25H18.0447ZM9.73608 10.75C9.74999 10.9925 9.75004 11.2523 9.74976 11.5361V19C9.74976 19.476 9.75047 19.7955 9.76733 20.043C9.78375 20.2836 9.81253 20.4013 9.84448 20.4785C9.97135 20.7847 10.215 21.0284 10.5212 21.1553C10.5983 21.1872 10.7161 21.216 10.9568 21.2324C11.2042 21.2493 11.5238 21.25 11.9998 21.25C12.4758 21.25 12.7953 21.2493 13.0427 21.2324C13.2834 21.216 13.4011 21.1872 13.4783 21.1553C13.7845 21.0284 14.0281 20.7847 14.155 20.4785C14.1869 20.4013 14.2158 20.2836 14.2322 20.043C14.2491 19.7955 14.2498 19.476 14.2498 19V11.5361C14.2496 11.2523 14.2495 10.9925 14.2634 10.75H9.73608ZM11.9998 12.25C12.414 12.25 12.7498 12.5858 12.7498 13V15C12.7498 15.4142 12.414 15.75 11.9998 15.75C11.5856 15.7499 11.2498 15.4141 11.2498 15V13C11.2498 12.5859 11.5856 12.2501 11.9998 12.25ZM8.44409 8.38379C8.75591 8.69501 9.02674 8.96525 9.23706 9.25H14.7625C14.9727 8.96525 15.2436 8.69501 15.5554 8.38379L18.1892 5.75H5.8103L8.44409 8.38379ZM5.99976 2.75C5.50732 2.75 5.21339 2.75197 5.00269 2.78027C4.90613 2.79325 4.85747 2.80842 4.83569 2.81738C4.8307 2.81944 4.82687 2.82126 4.82495 2.82227L4.823 2.82324L4.82202 2.82617C4.82101 2.82811 4.81911 2.83114 4.81714 2.83594C4.80818 2.85772 4.79301 2.90637 4.78003 3.00293C4.75173 3.21363 4.74976 3.50756 4.74976 4V4.25H19.2498V4C19.2498 3.50756 19.2478 3.21363 19.2195 3.00293C19.2065 2.90637 19.1914 2.85772 19.1824 2.83594C19.1805 2.83113 19.1786 2.82812 19.1775 2.82617L19.1765 2.82324L19.1736 2.82227C19.1717 2.82126 19.1687 2.81936 19.1638 2.81738C19.1421 2.80842 19.0934 2.79325 18.9968 2.78027C18.7861 2.75197 18.4922 2.75 17.9998 2.75H5.99976Z" fill="#48465C"/>
</svg>
