<svg width="24" height="24" viewBox="0 0 24 24" fill="none" xmlns="http://www.w3.org/2000/svg">
<path d="M12 3.25024C17.3848 3.25024 21.75 7.61546 21.75 13.0002C21.75 18.385 17.3848 22.7502 12 22.7502C6.61523 22.7502 2.25002 18.385 2.25 13.0002C2.25 7.61546 6.61522 3.25024 12 3.25024ZM12 4.75024C7.44365 4.75024 3.75 8.44389 3.75 13.0002C3.75002 17.5565 7.44366 21.2502 12 21.2502C16.5563 21.2502 20.25 17.5565 20.25 13.0002C20.25 8.44389 16.5563 4.75024 12 4.75024ZM12 8.25024C12.4142 8.25024 12.75 8.58603 12.75 9.00024V12.6897L15.0303 14.97C15.3232 15.2629 15.3232 15.7376 15.0303 16.0305C14.7374 16.3234 14.2626 16.3234 13.9697 16.0305L11.4697 13.5305C11.329 13.3899 11.25 13.1991 11.25 13.0002V9.00024C11.25 8.58603 11.5858 8.25024 12 8.25024ZM7.10254 1.3645C7.45377 1.14499 7.9162 1.25159 8.13574 1.60278C8.35527 1.95402 8.24867 2.41644 7.89746 2.63599L3.89746 5.13599C3.54624 5.35549 3.08382 5.24886 2.86426 4.89771C2.64475 4.54648 2.75137 4.08406 3.10254 3.8645L7.10254 1.3645ZM15.8643 1.60278C16.0838 1.25158 16.5462 1.14498 16.8975 1.3645L20.8975 3.8645C21.2487 4.08406 21.3552 4.54649 21.1357 4.89771C20.9162 5.24886 20.4538 5.35549 20.1025 5.13599L16.1025 2.63599C15.7513 2.41644 15.6448 1.95401 15.8643 1.60278Z" fill="#1C274C"/>
</svg>
