<svg width="24" height="24" viewBox="0 0 24 24" fill="none" xmlns="http://www.w3.org/2000/svg">
<path d="M6.37598 17.084C6.60576 16.7394 7.07141 16.6462 7.41602 16.876C7.76061 17.1057 7.85371 17.5714 7.62402 17.916L7.31738 18.376C7.14917 18.6283 7.20761 18.9685 7.4502 19.1504C8.32934 19.81 8.54027 21.0415 7.93066 21.9561L7.62402 22.416C7.39428 22.7607 6.92863 22.8538 6.58398 22.624C6.23933 22.3943 6.14621 21.9286 6.37598 21.584L6.68262 21.124C6.85074 20.8717 6.79237 20.5315 6.5498 20.3496C5.67056 19.69 5.45959 18.4585 6.06934 17.5439L6.37598 17.084ZM11.376 17.084C11.6058 16.7394 12.0714 16.6462 12.416 16.876C12.7606 17.1057 12.8536 17.5714 12.624 17.916L12.3174 18.376C12.1492 18.6283 12.2076 18.9685 12.4502 19.1504C13.3293 19.81 13.5402 21.0415 12.9307 21.9561L12.624 22.416C12.3942 22.7607 11.9287 22.8537 11.584 22.624C11.2394 22.3943 11.1462 21.9286 11.376 21.584L11.6826 21.124C11.8507 20.8717 11.7924 20.5315 11.5498 20.3496C10.6706 19.69 10.4596 18.4586 11.0693 17.5439L11.376 17.084ZM16.376 17.084C16.6058 16.7394 17.0714 16.6462 17.416 16.876C17.7606 17.1057 17.8536 17.5714 17.624 17.916L17.3174 18.376C17.1492 18.6283 17.2076 18.9685 17.4502 19.1504C18.3293 19.81 18.5402 21.0415 17.9307 21.9561L17.624 22.416C17.3942 22.7607 16.9287 22.8537 16.584 22.624C16.2394 22.3943 16.1462 21.9286 16.376 21.584L16.6826 21.124C16.8507 20.8717 16.7924 20.5315 16.5498 20.3496C15.6706 19.69 15.4596 18.4586 16.0693 17.5439L16.376 17.084ZM16.4756 1.25C17.6427 1.24999 18.5838 1.25014 19.333 1.33691C20.1082 1.42673 20.7732 1.61802 21.3379 2.06836C21.5574 2.24344 21.7565 2.44258 21.9316 2.66211C22.3819 3.22684 22.5733 3.89175 22.6631 4.66699C22.7498 5.41622 22.75 6.35727 22.75 7.52441V7.61914C22.75 9.18794 22.7498 10.4313 22.6357 11.416C22.5186 12.4265 22.2732 13.2605 21.7139 13.9619C21.4921 14.2399 21.2399 14.4921 20.9619 14.7139C20.2605 15.2732 19.4265 15.5186 18.416 15.6357C17.4313 15.7498 16.1879 15.75 14.6191 15.75H9.38086C7.81207 15.75 6.56866 15.7498 5.58398 15.6357C4.57352 15.5186 3.73953 15.2732 3.03809 14.7139C2.7601 14.4921 2.50784 14.2399 2.28613 13.9619C1.72675 13.2605 1.48136 12.4265 1.36426 11.416C1.25017 10.4313 1.24999 9.18797 1.25 7.61914V7.52441C1.24999 6.35728 1.25013 5.41621 1.33691 4.66699C1.42673 3.89176 1.61802 3.22684 2.06836 2.66211C2.24344 2.44258 2.44258 2.24344 2.66211 2.06836C3.22684 1.61802 3.89176 1.42673 4.66699 1.33691C5.41621 1.25013 6.35728 1.24999 7.52441 1.25H16.4756ZM9 12.75C8.5241 12.75 8.20443 12.7507 7.95703 12.7676C7.71651 12.784 7.59865 12.8128 7.52148 12.8447C7.21521 12.9715 6.9716 13.2153 6.84473 13.5215C6.79676 13.6373 6.76739 13.8036 6.75586 14.2188C7.47939 14.249 8.35068 14.25 9.42871 14.25H14.5713C15.6518 14.25 16.5245 14.2492 17.249 14.2188C17.2473 13.9394 17.2415 13.8358 17.2256 13.7559C17.1269 13.2604 16.7396 12.8733 16.2441 12.7744C16.1417 12.754 16.0004 12.75 15.5 12.75H9ZM7.57129 2.75C6.34633 2.75 5.49177 2.7515 4.83887 2.82715C4.20214 2.90097 3.85262 3.03711 3.59668 3.24121C3.46529 3.34605 3.34605 3.46529 3.24121 3.59668C3.03711 3.85262 2.90097 4.20214 2.82715 4.83887C2.7515 5.49177 2.75 6.34633 2.75 7.57129C2.75 9.19867 2.75157 10.3549 2.85449 11.2432C2.95558 12.1154 3.14576 12.6337 3.45898 13.0264C3.61071 13.2167 3.78338 13.3892 3.97363 13.541C4.28513 13.7894 4.67548 13.9606 5.25879 14.0713C5.27405 13.6567 5.31843 13.2866 5.45898 12.9473C5.73812 12.2736 6.27353 11.7381 6.94727 11.459C7.23766 11.3387 7.53739 11.2921 7.85449 11.2705C8.1591 11.2497 8.53018 11.25 8.97461 11.25H15.5732C15.9658 11.2498 16.2687 11.2496 16.5361 11.3027C17.627 11.5197 18.4803 12.373 18.6973 13.4639C18.7331 13.6443 18.7443 13.8411 18.748 14.0703C19.3274 13.9596 19.7162 13.7884 20.0264 13.541C20.2166 13.3892 20.3892 13.2166 20.541 13.0264C20.8542 12.6337 21.0444 12.1154 21.1455 11.2432C21.2484 10.3549 21.25 9.19867 21.25 7.57129C21.25 6.34633 21.2484 5.49177 21.1729 4.83887C21.099 4.20214 20.9629 3.85262 20.7588 3.59668C20.654 3.46527 20.5347 3.34605 20.4033 3.24121C20.1474 3.03711 19.7978 2.90097 19.1611 2.82715C18.5083 2.7515 17.6537 2.75 16.4287 2.75H7.57129ZM18 7.75C18.4142 7.75 18.75 8.08579 18.75 8.5C18.75 8.91422 18.4142 9.25 18 9.25H6C5.58579 9.25 5.25 8.91422 5.25 8.5C5.25 8.08579 5.58579 7.75 6 7.75H18ZM18 5.25C18.4142 5.25 18.75 5.58579 18.75 6C18.75 6.41422 18.4142 6.75 18 6.75H6C5.58579 6.75 5.25 6.41422 5.25 6C5.25 5.58579 5.58579 5.25 6 5.25H18Z" fill="#48465C"/>
</svg>
