<svg width="24" height="24" viewBox="0 0 24 24" fill="none" xmlns="http://www.w3.org/2000/svg">
<path d="M5.75 9.05473C5.75 5.56721 8.55372 2.75 12 2.75C15.4463 2.75 18.25 5.56721 18.25 9.05473C18.25 10.7638 17.5769 12.3119 16.4833 13.4475C16.196 13.7458 16.2049 14.2206 16.5033 14.5079C16.8016 14.7953 17.2764 14.7863 17.5637 14.488C18.9168 13.083 19.75 11.1656 19.75 9.05473C19.75 4.74981 16.2857 1.25 12 1.25C7.7143 1.25 4.25 4.74981 4.25 9.05473C4.25 11.1836 5.09743 13.1156 6.47088 14.5237C6.76011 14.8202 7.23494 14.8261 7.53146 14.5369C7.82798 14.2477 7.8339 13.7728 7.54467 13.4763C6.43459 12.3382 5.75 10.7783 5.75 9.05473Z" fill="#1C274C"/>
<path d="M8.55005 9.05462C8.55005 7.12558 10.1001 5.57178 12 5.57178C13.8999 5.57178 15.45 7.12558 15.45 9.05462C15.45 9.98719 15.088 10.832 14.4979 11.457C14.2135 11.7582 14.2272 12.2329 14.5284 12.5172C14.8296 12.8016 15.3043 12.7879 15.5886 12.4867C16.4321 11.5932 16.95 10.3836 16.95 9.05462C16.95 6.30819 14.7393 4.07178 12 4.07178C9.26074 4.07178 7.05005 6.30819 7.05005 9.05462C7.05005 10.4027 7.58291 11.6279 8.44797 12.525C8.7355 12.8232 9.21029 12.8318 9.50846 12.5443C9.80662 12.2568 9.81525 11.782 9.52773 11.4838C8.92254 10.8562 8.55005 10.0005 8.55005 9.05462Z" fill="#1C274C"/>
<path fill-rule="evenodd" clip-rule="evenodd" d="M14 8.75C14 9.50706 13.5794 10.1659 12.9591 10.5055L15.206 17.2462C15.2099 17.2571 15.2136 17.2681 15.217 17.2792L16.7115 21.7628C16.8425 22.1558 16.6301 22.5805 16.2372 22.7115C15.8442 22.8425 15.4195 22.6301 15.2885 22.2372L13.9594 18.25H10.0406L8.71147 22.2372C8.58049 22.6301 8.15575 22.8425 7.76279 22.7115C7.36983 22.5805 7.15746 22.1558 7.28845 21.7628L8.78298 17.2792C8.7864 17.2681 8.79007 17.2571 8.79398 17.2462L11.0409 10.5055C10.4206 10.1659 9.99996 9.50706 9.99996 8.75C9.99996 7.64543 10.8954 6.75 12 6.75C13.1046 6.75 14 7.64543 14 8.75ZM11.5 8.75C11.5 8.47386 11.7239 8.25 12 8.25C12.2761 8.25 12.5 8.47386 12.5 8.75C12.5 9.02614 12.2761 9.25 12 9.25C11.7239 9.25 11.5 9.02614 11.5 8.75ZM10.5406 16.75H13.4594L12 12.3717L10.5406 16.75Z" fill="#1C274C"/>
</svg>
