<svg width="24" height="24" viewBox="0 0 24 24" fill="none" xmlns="http://www.w3.org/2000/svg">
<path d="M12.0576 1.25C14.3657 1.24999 16.1745 1.24974 17.5859 1.43945C19.0306 1.63369 20.1706 2.03977 21.0654 2.93457C21.9602 3.82938 22.3662 4.96932 22.5605 6.41406C22.7502 7.82544 22.75 9.63432 22.75 11.9424V12.0576C22.75 14.3657 22.7502 16.1745 22.5605 17.5859C22.3662 19.0306 21.9602 20.1706 21.0654 21.0654C20.1706 21.9602 19.0306 22.3662 17.5859 22.5605C16.1745 22.7502 14.3657 22.75 12.0576 22.75H11.9424C9.63432 22.75 7.82544 22.7502 6.41406 22.5605C4.96932 22.3662 3.82938 21.9602 2.93457 21.0654C2.03977 20.1706 1.63369 19.0306 1.43945 17.5859C1.24974 16.1745 1.24999 14.3657 1.25 12.0576V11.9424C1.24999 9.63433 1.24974 7.82544 1.43945 6.41406C1.63369 4.96932 2.03976 3.82938 2.93457 2.93457C3.82938 2.03976 4.96932 1.63369 6.41406 1.43945C7.82544 1.24974 9.63433 1.24999 11.9424 1.25H12.0576ZM12 2.75C9.62177 2.75 7.91326 2.75198 6.61328 2.92676C5.33508 3.09865 4.56472 3.42551 3.99512 3.99512C3.42551 4.56472 3.09865 5.33508 2.92676 6.61328C2.75198 7.91326 2.75 9.62178 2.75 12C2.75 14.3782 2.75198 16.0867 2.92676 17.3867C3.09865 18.6649 3.42551 19.4352 3.99512 20.0049C4.56472 20.5745 5.33508 20.9014 6.61328 21.0732C7.91326 21.248 9.62177 21.25 12 21.25C14.3782 21.25 16.0867 21.248 17.3867 21.0732C18.6649 20.9014 19.4352 20.5745 20.0049 20.0049C20.5745 19.4352 20.9014 18.6649 21.0732 17.3867C21.248 16.0867 21.25 14.3782 21.25 12C21.25 9.62178 21.248 7.91326 21.0732 6.61328C20.9014 5.33508 20.5745 4.56472 20.0049 3.99512C19.4352 3.42551 18.6649 3.09865 17.3867 2.92676C16.0867 2.75198 14.3782 2.75 12 2.75ZM12.6953 11.4951C12.9741 11.189 13.4485 11.1668 13.7549 11.4453L16.5049 13.9453C16.6611 14.0875 16.75 14.2889 16.75 14.5C16.75 14.7111 16.6611 14.9125 16.5049 15.0547L13.7549 17.5547C13.4485 17.8332 12.9741 17.811 12.6953 17.5049C12.4168 17.1985 12.439 16.7241 12.7451 16.4453L14.0596 15.25H8C7.58579 15.25 7.25 14.9142 7.25 14.5C7.25 14.0858 7.58579 13.75 8 13.75H14.0596L12.7451 12.5547C12.439 12.2759 12.4168 11.8015 12.6953 11.4951ZM10.2451 6.44531C10.5515 6.16679 11.0259 6.18896 11.3047 6.49512C11.5832 6.80149 11.5611 7.27602 11.2549 7.55469L9.94043 8.75H16C16.4142 8.75 16.75 9.08579 16.75 9.5C16.75 9.91421 16.4142 10.25 16 10.25H9.94043L11.2549 11.4453C11.561 11.7241 11.5832 12.1985 11.3047 12.5049C11.0259 12.811 10.5515 12.8332 10.2451 12.5547L7.49512 10.0547C7.33898 9.91252 7.25 9.71115 7.25 9.5C7.25 9.28884 7.33897 9.08744 7.49512 8.94531L10.2451 6.44531Z" fill="#1C274C"/>
</svg>
