<svg width="24" height="24" viewBox="0 0 24 24" fill="none" xmlns="http://www.w3.org/2000/svg">
<path d="M14 4C17.7712 4 19.6566 4.00031 20.8281 5.17188C21.9997 6.34346 22 8.22878 22 12C22 15.7712 21.9997 17.6566 20.8281 18.8281C19.6566 19.9997 17.7712 20 14 20H10C6.22878 20 4.34346 19.9997 3.17188 18.8281C2.00031 17.6566 2 15.7712 2 12C2 8.22876 2.00031 6.34345 3.17188 5.17188C4.34346 4.00031 6.22876 4 10 4H14ZM18.5762 7.51953C18.3109 7.20151 17.8377 7.15872 17.5195 7.42383L15.3613 9.22266C14.4284 10 13.7803 10.5379 13.2334 10.8896C12.7041 11.2301 12.3451 11.3447 12 11.3447C11.6549 11.3447 11.2959 11.2301 10.7666 10.8896C10.2197 10.5379 9.57152 10 8.63867 9.22266L6.48047 7.42383C6.16232 7.15871 5.68904 7.2015 5.42383 7.51953C5.15871 7.83768 5.2015 8.31096 5.51953 8.57617L7.7168 10.4062C8.603 11.1447 9.32109 11.7436 9.95508 12.1514C10.6156 12.5762 11.2589 12.8447 12 12.8447C12.7411 12.8447 13.3844 12.5762 14.0449 12.1514C14.679 11.7436 15.3979 11.1448 16.2842 10.4062L18.4805 8.57617C18.7985 8.31096 18.8412 7.83767 18.5762 7.51953Z" fill="#48465C"/>
</svg>
