<svg width="24" height="24" viewBox="0 0 24 24" fill="none" xmlns="http://www.w3.org/2000/svg">
<path d="M12 1.25C17.9371 1.25 22.75 6.06294 22.75 12C22.75 17.9371 17.9371 22.75 12 22.75C6.06294 22.75 1.25 17.9371 1.25 12C1.25 6.06294 6.06294 1.25 12 1.25ZM12 2.75C6.89137 2.75 2.75 6.89137 2.75 12C2.75 17.1086 6.89137 21.25 12 21.25C17.1086 21.25 21.25 17.1086 21.25 12C21.25 6.89137 17.1086 2.75 12 2.75ZM11.4697 11.9697C11.7626 11.6768 12.2374 11.6768 12.5303 11.9697L15.5303 14.9697C15.8232 15.2626 15.8232 15.7374 15.5303 16.0303C15.2374 16.3232 14.7626 16.3232 14.4697 16.0303L12 13.5605L9.53027 16.0303C9.23739 16.3232 8.76261 16.3232 8.46973 16.0303C8.17684 15.7374 8.17684 15.2626 8.46973 14.9697L11.4697 11.9697ZM11.4697 7.96973C11.7626 7.67684 12.2374 7.67684 12.5303 7.96973L15.5303 10.9697C15.8232 11.2626 15.8232 11.7374 15.5303 12.0303C15.2374 12.3232 14.7626 12.3232 14.4697 12.0303L12 9.56055L9.53027 12.0303C9.23739 12.3232 8.76261 12.3232 8.46973 12.0303C8.17684 11.7374 8.17684 11.2626 8.46973 10.9697L11.4697 7.96973Z" fill="#48465C"/>
</svg>
