<svg width="24" height="24" viewBox="0 0 24 24" fill="none" xmlns="http://www.w3.org/2000/svg">
<path d="M12.0001 4.00012C16.9707 4.00013 21.0001 8.02957 21.0001 13.0001C21 17.9707 16.9707 22.0001 12.0001 22.0001C7.02961 22.0001 3.0002 17.9707 3.00012 13.0001C3.00012 8.02956 7.02956 4.00012 12.0001 4.00012ZM9.00012 12.2501C8.58591 12.2501 8.25012 12.5859 8.25012 13.0001C8.2502 13.4143 8.58596 13.7501 9.00012 13.7501H15.0001C15.4143 13.7501 15.75 13.4143 15.7501 13.0001C15.7501 12.5859 15.4143 12.2501 15.0001 12.2501H9.00012ZM7.10266 1.36438C7.4539 1.14486 7.91632 1.25145 8.13586 1.60266C8.35539 1.95389 8.24877 2.41631 7.89758 2.63586L3.89758 5.13586C3.54637 5.35537 3.08394 5.24872 2.86438 4.89758C2.64487 4.54635 2.75147 4.08393 3.10266 3.86438L7.10266 1.36438ZM15.8644 1.60266C16.0839 1.25147 16.5463 1.14487 16.8976 1.36438L20.8976 3.86438C21.2488 4.08394 21.3553 4.54638 21.1359 4.89758C20.9163 5.24875 20.4539 5.35537 20.1027 5.13586L16.1027 2.63586C15.7514 2.41632 15.6449 1.9539 15.8644 1.60266Z" fill="#48465C"/>
</svg>
