<svg width="24" height="24" viewBox="0 0 24 24" fill="none" xmlns="http://www.w3.org/2000/svg">
<path d="M12 1.25C17.9428 1.25 22.7499 6.10597 22.75 12.083C22.75 16.3688 20.28 20.0756 16.6943 21.832C16.3224 22.0142 15.8727 21.8602 15.6904 21.4883C15.5082 21.1163 15.6622 20.6666 16.0342 20.4844C19.1207 18.9724 21.25 15.7795 21.25 12.083C21.2499 6.92265 17.1027 2.75 12 2.75C6.89727 2.75 2.7501 6.92265 2.75 12.083C2.75 16.6063 5.93803 20.3736 10.1621 21.2324C10.6696 21.3355 11.25 20.9086 11.25 20.1494V15.6748C9.53834 15.3273 8.25 13.8142 8.25 12V11.7998C8.2501 10.9606 8.91717 10.2774 9.75 10.251V9C9.75 8.58579 10.0858 8.25 10.5 8.25C10.9142 8.25 11.25 8.58579 11.25 9V10.25H12.75V9C12.75 8.58579 13.0858 8.25 13.5 8.25C13.9142 8.25 14.25 8.58579 14.25 9V10.251C15.0828 10.2774 15.7499 10.9606 15.75 11.7998V12C15.75 13.8142 14.4617 15.3273 12.75 15.6748V20.1494C12.75 21.6176 11.5213 23.0392 9.86328 22.7021C4.94576 21.7023 1.25 17.3251 1.25 12.083C1.2501 6.10597 6.05715 1.25 12 1.25ZM9.7998 11.75C9.77235 11.7501 9.7501 11.7724 9.75 11.7998V12C9.75 13.2426 10.7574 14.25 12 14.25C13.2426 14.25 14.25 13.2426 14.25 12V11.7998C14.2499 11.7724 14.2276 11.7501 14.2002 11.75H9.7998Z" fill="#48465C"/>
</svg>
