<svg width="24" height="24" viewBox="0 0 24 24" fill="none" xmlns="http://www.w3.org/2000/svg">
<path d="M11 19.75C11 20.9925 9.93369 21.9998 8.61816 22C7.30242 22 6.23535 20.9926 6.23535 19.75H11ZM18 14C20.2091 14 22 15.7909 22 18C22 20.2091 20.2091 22 18 22C15.7909 22 14 20.2091 14 18C14 15.7909 15.7909 14 18 14ZM19.5303 16.4697C19.2374 16.1769 18.7626 16.1769 18.4697 16.4697L18 16.9395L17.5303 16.4697C17.2374 16.1769 16.7626 16.1769 16.4697 16.4697C16.1769 16.7626 16.1769 17.2374 16.4697 17.5303L16.9395 18L16.4697 18.4697C16.177 18.7626 16.1771 19.2374 16.4697 19.5303C16.7626 19.823 17.2375 19.823 17.5303 19.5303L18 19.0605L18.4697 19.5303C18.7625 19.823 19.2374 19.823 19.5303 19.5303C19.8229 19.2374 19.823 18.7626 19.5303 18.4697L19.0605 18L19.5303 17.5303C19.8231 17.2374 19.8231 16.7626 19.5303 16.4697ZM5.96582 4.00586C8.68535 4.13212 10.8596 6.18641 10.9932 8.75488C10.9996 8.87744 11 9.0225 11 9.3125V18.25H6.23535V13.2998C6.23524 12.7477 5.76133 12.3 5.17676 12.2998C3.42244 12.2998 2 10.9567 2 9.2998V7.1875C2 7.01349 2.00008 6.92608 2.00391 6.85254C2.0842 5.31159 3.38889 4.07966 5.02051 4.00391C5.09839 4.0003 5.19066 4 5.375 4C5.68223 4 5.83601 3.99984 5.96582 4.00586ZM18.9795 2.00391C20.6111 2.07966 21.9158 3.31159 21.9961 4.85254C21.9999 4.92608 22 5.01349 22 5.1875V7.2998C22 8.95665 20.5775 10.2998 18.8232 10.2998C18.2387 10.2999 17.7648 10.7477 17.7646 11.2998V12.5049C15.647 12.5941 13.8388 13.8806 13 15.7051V7.3125C13 7.0225 13.0004 6.87744 13.0068 6.75488C13.1404 4.1864 15.3146 2.1321 18.0342 2.00586C18.1641 1.99984 18.3178 2 18.625 2C18.8093 2 18.9016 2.0003 18.9795 2.00391ZM4.5 6.25C4.08579 6.25 3.75 6.58579 3.75 7V9.5C3.75 9.91421 4.08579 10.25 4.5 10.25C4.91421 10.25 5.25 9.91421 5.25 9.5V7C5.25 6.58579 4.91421 6.25 4.5 6.25ZM19.5 4.25C19.0858 4.25 18.75 4.58579 18.75 5V7.5C18.75 7.91421 19.0858 8.25 19.5 8.25C19.9142 8.25 20.25 7.91421 20.25 7.5V5C20.25 4.58579 19.9142 4.25 19.5 4.25Z" fill="#48465C"/>
</svg>
