<svg width="24" height="24" viewBox="0 0 24 24" fill="none" xmlns="http://www.w3.org/2000/svg">
<path d="M15.1554 12.2715C15.9736 13.036 17.0715 13.5 18.2687 13.5C19.0857 13.5 19.845 13.2876 20.5001 12.9189V14C20.5001 17.7711 20.4998 19.6566 19.3282 20.8281C18.3852 21.7711 16.9796 21.9554 14.5001 21.9912V18.5C14.5001 17.5654 14.4999 17.098 14.299 16.75C14.1674 16.522 13.978 16.3329 13.7501 16.2012C13.402 16.0003 12.9346 16 12.0001 16C11.0655 16 10.5982 16.0003 10.2501 16.2012C10.0222 16.3329 9.83292 16.5219 9.70129 16.75C9.50035 17.098 9.50012 17.5653 9.50012 18.5V21.9912C7.02071 21.9554 5.61509 21.771 4.672 20.8281C3.50046 19.6566 3.50012 17.7711 3.50012 14V12.9189C4.1553 13.2877 4.91449 13.5 5.73157 13.5C6.92856 13.5 8.02571 13.0358 8.84387 12.2715C9.6712 13.0316 10.7768 13.5 12.0001 13.5C13.2234 13.4999 14.3281 13.0316 15.1554 12.2715ZM16.5822 2C17.4902 2 17.9447 1.9997 18.3341 2.10645C19.1545 2.33143 19.8403 2.89491 20.2218 3.65527C20.4027 4.01612 20.492 4.46137 20.67 5.35156L21.2687 8.34082C21.6473 10.2337 20.199 11.9999 18.2687 12C16.697 12 15.3811 10.8089 15.2247 9.24512L15.1515 8.51758C15.3379 10.382 13.8738 11.9998 12.0001 12C10.1388 12 8.68176 10.4033 8.84485 8.55469L8.77551 9.24512C8.61913 10.8089 7.30319 12 5.73157 12C3.80112 12 2.35298 10.2338 2.73157 8.34082L3.3302 5.35156C3.50819 4.4616 3.5966 4.01607 3.77747 3.65527C4.15893 2.89484 4.84568 2.33139 5.66614 2.10645C6.05553 1.9997 6.51007 2 7.41809 2H16.5822Z" fill="#48465C"/>
</svg>
