<svg width="24" height="24" viewBox="0 0 24 24" fill="none" xmlns="http://www.w3.org/2000/svg">
<path d="M5.78223 3.25684C8.73596 3.40198 11.098 5.76405 11.2432 8.71777C11.2501 8.85896 11.25 9.02105 11.25 9.28711V19.75C11.25 21.4069 9.90686 22.75 8.25 22.75C6.59315 22.75 5.25 21.4069 5.25 19.75V13.2998C5.24989 13.1618 5.138 13.0498 5 13.0498C2.92893 13.0498 1.25 11.3709 1.25 9.2998V7.16602C1.24999 7.01301 1.25036 6.9086 1.25488 6.81641C1.34952 4.89002 2.89002 3.34952 4.81641 3.25488C4.9086 3.25036 5.01301 3.24999 5.16602 3.25H5.21289C5.47895 3.24999 5.64104 3.2499 5.78223 3.25684ZM18 13.25C20.6234 13.25 22.75 15.3766 22.75 18C22.75 20.6234 20.6234 22.75 18 22.75C15.3766 22.75 13.25 20.6234 13.25 18C13.25 15.3766 15.3766 13.25 18 13.25ZM6.75 19.75C6.75 20.5784 7.42157 21.25 8.25 21.25C9.07843 21.25 9.75 20.5784 9.75 19.75H6.75ZM18 14.75C16.2051 14.75 14.75 16.2051 14.75 18C14.75 19.7949 16.2051 21.25 18 21.25C19.7949 21.25 21.25 19.7949 21.25 18C21.25 16.2051 19.7949 14.75 18 14.75ZM17.376 16.084C17.6057 15.7393 18.0714 15.6462 18.416 15.876C18.7607 16.1057 18.8538 16.5714 18.624 16.916L18.4014 17.25H19C19.2766 17.25 19.5305 17.4026 19.6611 17.6465C19.7915 17.8903 19.7775 18.186 19.624 18.416L18.624 19.916C18.3943 20.2607 17.9286 20.3538 17.584 20.124C17.2393 19.8943 17.1462 19.4286 17.376 19.084L17.5986 18.75H17C16.7234 18.75 16.4695 18.5974 16.3389 18.3535C16.2085 18.1097 16.2225 17.814 16.376 17.584L17.376 16.084ZM4.88965 4.75293C3.73382 4.80971 2.80971 5.73382 2.75293 6.88965C2.75045 6.94017 2.75 7.00454 2.75 7.1875V9.2998C2.75 10.5424 3.75736 11.5498 5 11.5498C5.96643 11.5498 6.74989 12.3334 6.75 13.2998V18.25H9.75V9.3125C9.75 9.01343 9.75001 8.89059 9.74512 8.79102C9.63766 6.60812 7.89188 4.86234 5.70898 4.75488C5.60941 4.74999 5.48657 4.75 5.1875 4.75C5.00455 4.75 4.94017 4.75045 4.88965 4.75293ZM19.1836 1.25488C21.11 1.34952 22.6504 2.89002 22.7451 4.81641C22.7496 4.90858 22.75 5.01307 22.75 5.16602V7.2998C22.75 9.37087 21.0711 11.0498 19 11.0498C18.862 11.0498 18.7501 11.1618 18.75 11.2998V11.5C18.75 11.9142 18.4142 12.25 18 12.25C17.5858 12.25 17.25 11.9142 17.25 11.5V11.2998C17.2501 10.3334 18.0336 9.5498 19 9.5498C20.2426 9.5498 21.25 8.54244 21.25 7.2998V5.1875C21.25 5.00453 21.2496 4.94017 21.2471 4.88965C21.1903 3.73382 20.2662 2.80971 19.1104 2.75293C19.0599 2.75045 18.9955 2.75 18.8125 2.75C18.5134 2.75 18.3905 2.74999 18.291 2.75488C16.1081 2.86236 14.3624 4.60814 14.2549 6.79102C14.25 6.89059 14.25 7.01343 14.25 7.3125V13.5C14.25 13.9142 13.9142 14.25 13.5 14.25C13.0858 14.25 12.75 13.9142 12.75 13.5V7.28711C12.75 7.02105 12.7499 6.85896 12.7568 6.71777C12.902 3.76406 15.2641 1.402 18.2178 1.25684C18.3589 1.2499 18.521 1.24999 18.7871 1.25H18.834C18.987 1.24999 19.0914 1.25036 19.1836 1.25488ZM4.5 6.25C4.91422 6.25 5.25 6.58579 5.25 7V9.5C5.25 9.91422 4.91422 10.25 4.5 10.25C4.08579 10.25 3.75 9.91422 3.75 9.5V7C3.75 6.58579 4.08579 6.25 4.5 6.25ZM19.5 4.25C19.9142 4.25 20.25 4.58579 20.25 5V7.5C20.25 7.91422 19.9142 8.25 19.5 8.25C19.0858 8.25 18.75 7.91422 18.75 7.5V5C18.75 4.58579 19.0858 4.25 19.5 4.25Z" fill="#48465C"/>
</svg>
