<svg width="24" height="24" viewBox="0 0 24 24" fill="none" xmlns="http://www.w3.org/2000/svg">
<path d="M12 4C16.1819 4 19.0285 6.49933 20.7256 8.7041C21.5754 9.80824 22 10.3606 22 12C22 13.6393 21.5754 14.1918 20.7256 15.2959C19.0285 17.5006 16.1819 20 12 20C7.81811 20 4.97148 17.5006 3.27441 15.2959C2.42454 14.1918 2 13.6393 2 12C2 10.3606 2.42453 9.80824 3.27441 8.7041C4.97148 6.49933 7.81811 4 12 4ZM12 8.25C9.92893 8.25 8.25 9.92893 8.25 12C8.25 14.0711 9.92893 15.75 12 15.75C14.0711 15.75 15.75 14.0711 15.75 12C15.75 9.92893 14.0711 8.25 12 8.25ZM12 9.75C13.2426 9.75 14.25 10.7574 14.25 12C14.25 13.2426 13.2426 14.25 12 14.25C10.7574 14.25 9.75 13.2426 9.75 12C9.75 10.7574 10.7574 9.75 12 9.75Z" fill="#48465C"/>
</svg>
