<svg width="24" height="24" viewBox="0 0 24 24" fill="none" xmlns="http://www.w3.org/2000/svg">
<path d="M12 2C16.714 2 19.0708 2.00037 20.5352 3.46484C21.9996 4.9293 22 7.28597 22 12C22 16.714 21.9997 19.0708 20.5352 20.5352C19.0708 21.9997 16.714 22 12 22C7.28597 22 4.9293 21.9996 3.46484 20.5352C2.00037 19.0708 2 16.714 2 12C2 7.28595 2.00037 4.9293 3.46484 3.46484C4.9293 2.00037 7.28595 2 12 2ZM13.4883 6.44629C13.0882 6.33908 12.6765 6.57646 12.5693 6.97656L9.98145 16.6357C9.87436 17.0358 10.1117 17.4464 10.5117 17.5537C10.9118 17.6609 11.3235 17.4235 11.4307 17.0234L14.0186 7.36426C14.1256 6.96432 13.8881 6.55358 13.4883 6.44629ZM9.03027 8.46973C8.73737 8.17693 8.26258 8.17687 7.96973 8.46973L7.76172 8.67773C7.12638 9.31303 6.59645 9.84319 6.23242 10.3203C5.8482 10.8239 5.57812 11.3559 5.57812 12C5.57812 12.6441 5.8482 13.1761 6.23242 13.6797C6.59645 14.1568 7.12638 14.687 7.76172 15.3223L7.96973 15.5303C8.26258 15.8231 8.73736 15.8231 9.03027 15.5303C9.32316 15.2374 9.32316 14.7626 9.03027 14.4697L8.85938 14.2979C8.17773 13.6162 7.72044 13.157 7.4248 12.7695C7.14255 12.3996 7.07812 12.1843 7.07812 12C7.07812 11.8157 7.14255 11.6004 7.4248 11.2305C7.72044 10.843 8.17773 10.3838 8.85938 9.70215L9.03027 9.53027C9.32316 9.23738 9.32316 8.76263 9.03027 8.46973ZM16.0303 8.46973C15.7374 8.17684 15.2626 8.17684 14.9697 8.46973C14.6768 8.76262 14.6768 9.23739 14.9697 9.53027L15.1416 9.70215C15.8231 10.3837 16.2796 10.843 16.5752 11.2305C16.8575 11.6005 16.9219 11.8157 16.9219 12C16.9219 12.1843 16.8575 12.3995 16.5752 12.7695C16.2796 13.157 15.8231 13.6163 15.1416 14.2979L14.9697 14.4697C14.6768 14.7626 14.6768 15.2374 14.9697 15.5303C15.2626 15.8232 15.7374 15.8232 16.0303 15.5303L16.2383 15.3223C16.8736 14.687 17.4036 14.1568 17.7676 13.6797C18.1519 13.1761 18.4219 12.6441 18.4219 12C18.4219 11.3559 18.1519 10.8239 17.7676 10.3203C17.4036 9.8432 16.8736 9.31301 16.2383 8.67773L16.0303 8.46973Z" fill="#1C274C"/>
</svg>
