<svg width="24" height="24" viewBox="0 0 24 24" fill="none" xmlns="http://www.w3.org/2000/svg">
<path d="M12 2C15.7495 2 17.6242 2.00031 18.9385 2.95508C19.363 3.26348 19.7365 3.63705 20.0449 4.06152C20.9997 5.37584 21 7.25047 21 11V13C21 16.7495 20.9997 18.6242 20.0449 19.9385C19.7365 20.363 19.363 20.7365 18.9385 21.0449C17.6242 21.9997 15.7495 22 12 22C8.25047 22 6.37584 21.9997 5.06152 21.0449C4.63705 20.7365 4.26348 20.363 3.95508 19.9385C3.00031 18.6242 3 16.7495 3 13V11C3 7.25048 3.00033 5.37584 3.95508 4.06152C4.26348 3.63705 4.63705 3.26348 5.06152 2.95508C6.37584 2.00033 8.25048 2 12 2ZM7 8.25C6.58579 8.25 6.25 8.58579 6.25 9C6.25 9.41421 6.58579 9.75 7 9.75H17C17.4142 9.75 17.75 9.41421 17.75 9C17.75 8.58579 17.4142 8.25 17 8.25H7Z" fill="#1C274C"/>
</svg>
