<svg width="24" height="24" viewBox="0 0 24 24" fill="none" xmlns="http://www.w3.org/2000/svg">
<path d="M17.4401 3.67053C17.6546 3.45607 17.9772 3.3924 18.2575 3.50842C18.5377 3.62447 18.7203 3.8976 18.7204 4.20081V8.44397C18.7203 8.8581 18.3845 9.19397 17.9704 9.19397H13.7282C13.425 9.19397 13.151 9.01125 13.0349 8.73108C12.9189 8.45082 12.9834 8.1282 13.1979 7.9137L14.8005 6.31018C12.1672 5.20896 9.01622 5.73116 6.87372 7.87366C4.04241 10.705 4.04241 15.2953 6.87372 18.1266C9.70503 20.9577 14.2954 20.9578 17.1266 18.1266C18.7728 16.4804 19.4618 14.2398 19.1931 12.0934C19.1417 11.6825 19.4336 11.308 19.8444 11.2565C20.2553 11.2051 20.6307 11.496 20.6823 11.9069C21.0061 14.493 20.1746 17.1996 18.1872 19.1871C14.7701 22.6042 9.23026 22.6041 5.81317 19.1871C2.39608 15.77 2.39608 10.2302 5.81317 6.81311C8.55154 4.07473 12.6519 3.53122 15.9313 5.1803L17.4401 3.67053Z" fill="#1C274C"/>
</svg>
