<svg width="24" height="24" viewBox="0 0 24 24" fill="none" xmlns="http://www.w3.org/2000/svg">
<path d="M15.3115 1.25C15.7257 1.25001 16.0615 1.5858 16.0615 2C16.0615 2.4142 15.7257 2.74999 15.3115 2.75C12.0274 2.75 10.2245 5.31442 9.8291 8.10547C9.76047 8.59 9.73697 9.06906 9.75586 9.52832C9.9675 9.06272 10.243 8.61011 10.5654 8.18262C10.8149 7.85215 11.2846 7.78686 11.6152 8.03613C11.8493 8.21267 11.9515 8.4995 11.9023 8.76953C13.1324 8.27114 14.6377 8.13581 16.1055 8.34375C19.3143 8.79842 22.75 10.9958 22.75 15.3115C22.75 15.7257 22.4142 16.0615 22 16.0615C21.5858 16.0615 21.25 15.7257 21.25 15.3115C21.25 12.0274 18.6855 10.2245 15.8945 9.8291C15.5711 9.7833 15.2498 9.75727 14.9355 9.75098C15.2925 9.93683 15.6403 10.1596 15.9727 10.4102C16.3033 10.6596 16.3693 11.1293 16.1201 11.46C15.9642 11.6667 15.7219 11.7704 15.4814 11.7578C16.0294 13.0134 16.1839 14.5797 15.9678 16.1055C15.5131 19.3144 13.3157 22.75 9 22.75C8.58579 22.75 8.25 22.4142 8.25 22C8.25 21.5858 8.58579 21.25 9 21.25C12.2842 21.25 14.087 18.6855 14.4824 15.8945C14.5511 15.41 14.5745 14.9309 14.5557 14.4717C14.3441 14.9373 14.0685 15.3899 13.7461 15.8174C13.4966 16.1479 13.0259 16.2132 12.6953 15.9639C12.5131 15.8262 12.4112 15.6216 12.3984 15.4102C11.118 16.0154 9.48425 16.193 7.89453 15.9678C4.68565 15.5131 1.25 13.3157 1.25 9C1.25 8.58579 1.58579 8.25 2 8.25C2.41421 8.25 2.75 8.58579 2.75 9C2.75 12.2842 5.31442 14.087 8.10547 14.4824C8.75013 14.5738 9.38503 14.584 9.97656 14.5225C9.40812 14.2996 8.8553 13.9792 8.33887 13.5898C8.00826 13.3404 7.94227 12.8707 8.19141 12.54C8.34731 12.3333 8.5896 12.2295 8.83008 12.2422C8.28219 10.9866 8.12761 9.42022 8.34375 7.89453C8.79842 4.68565 10.9958 1.25 15.3115 1.25ZM17.0859 20.0449C17.3276 19.7086 17.7965 19.6322 18.1328 19.874C18.4691 20.1158 18.5455 20.5845 18.3037 20.9209C18.0779 21.235 17.8194 21.5399 17.5264 21.833C17.2335 22.1259 16.7577 22.1259 16.4648 21.833C16.1722 21.5402 16.1723 21.0653 16.4648 20.7725C16.7027 20.5346 16.9089 20.2911 17.0859 20.0449ZM4.87793 18.2627C4.97905 17.8611 5.38654 17.6169 5.78809 17.7178C6.39839 17.8715 7.02563 17.9016 7.65039 17.8271C8.06157 17.7782 8.43518 18.0713 8.48438 18.4824C8.53339 18.8937 8.23932 19.2673 7.82812 19.3164C7.03901 19.4104 6.22617 19.3755 5.42188 19.1729C5.02046 19.0717 4.77709 18.6642 4.87793 18.2627ZM18.6387 15.6719C19.0498 15.623 19.4225 15.917 19.4717 16.3281C19.5657 17.1172 19.5306 17.9301 19.3281 18.7344C19.2268 19.1359 18.8195 19.3794 18.418 19.2783C18.0164 19.1772 17.773 18.7698 17.874 18.3682C18.0277 17.7579 18.0569 17.1307 17.9824 16.5059C17.9334 16.0946 18.2274 15.7209 18.6387 15.6719ZM11.1768 16.2998C11.5027 16.0442 11.9749 16.1009 12.2305 16.4268C12.4861 16.7528 12.4285 17.2249 12.1025 17.4805C11.4984 17.9542 10.8238 18.3659 10.1045 18.6826C9.72547 18.8494 9.28315 18.6768 9.11621 18.2979C8.94934 17.9188 9.12098 17.4765 9.5 17.3096C10.0987 17.046 10.6659 16.7002 11.1768 16.2998ZM2.32324 16.3096C2.61613 16.0167 3.09089 16.0167 3.38379 16.3096C3.62169 16.5475 3.86514 16.7537 4.11133 16.9307C4.44727 17.1725 4.52368 17.6404 4.28223 17.9766C4.04046 18.313 3.57169 18.3901 3.23535 18.1484C2.92103 17.9225 2.61648 17.6634 2.32324 17.3701C2.03036 17.0772 2.0304 16.6025 2.32324 16.3096ZM16.583 11.9268C16.909 11.6712 17.3801 11.7279 17.6357 12.0537C18.1094 12.658 18.5213 13.3325 18.8379 14.0518C19.0048 14.4309 18.8322 14.8732 18.4531 15.04C18.0741 15.2068 17.6317 15.0353 17.4648 14.6562C17.2012 14.0575 16.8557 13.4904 16.4551 12.9795C16.1996 12.6536 16.2572 12.1823 16.583 11.9268ZM5.8584 8.95996C6.23746 8.79325 6.67982 8.96472 6.84668 9.34375C7.11028 9.9425 7.45589 10.5096 7.85645 11.0205C8.11201 11.3464 8.05448 11.8187 7.72852 12.0742C7.40258 12.3296 6.9313 12.2721 6.67578 11.9463C6.20203 11.342 5.79031 10.6675 5.47363 9.94824C5.30674 9.56913 5.4793 9.12685 5.8584 8.95996ZM4.9834 5.26562C5.08468 4.86414 5.49199 4.62056 5.89355 4.72168C6.29514 4.82281 6.53847 5.23025 6.4375 5.63184C6.28382 6.24216 6.25463 6.86936 6.3291 7.49414C6.37811 7.90544 6.08415 8.27911 5.67285 8.32812C5.26167 8.37707 4.88898 8.08301 4.83984 7.67188C4.74579 6.88276 4.78087 6.06992 4.9834 5.26562ZM20.0293 6.02344C20.2711 5.6871 20.7399 5.60979 21.0762 5.85156C21.3905 6.07751 21.695 6.33665 21.9883 6.62988C22.2812 6.92276 22.2811 7.39753 21.9883 7.69043C21.6954 7.98332 21.2206 7.98332 20.9277 7.69043C20.6898 7.45252 20.4464 7.2463 20.2002 7.06934C19.8643 6.82755 19.7878 6.35962 20.0293 6.02344ZM14.207 5.31836C14.5861 5.15149 15.0284 5.32315 15.1953 5.70215C15.3622 6.0812 15.1905 6.52349 14.8115 6.69043C14.2128 6.95398 13.6456 7.2997 13.1348 7.7002C12.8088 7.95573 12.3367 7.8991 12.0811 7.57324C11.8256 7.24726 11.883 6.7751 12.209 6.51953C12.8132 6.04588 13.4879 5.635 14.207 5.31836ZM16.4834 4.68359C17.2725 4.58955 18.0853 4.62462 18.8896 4.82715C19.291 4.92834 19.5345 5.33585 19.4336 5.7373C19.3325 6.13885 18.9249 6.38313 18.5234 6.28223C17.9132 6.12854 17.2859 6.0984 16.6611 6.17285C16.25 6.22186 15.8763 5.92868 15.8271 5.51758C15.7782 5.10634 16.0722 4.73271 16.4834 4.68359ZM6.78613 2.16699C7.07904 1.87435 7.55388 1.87418 7.84668 2.16699C8.13935 2.45981 8.13927 2.93466 7.84668 3.22754C7.60875 3.46546 7.40258 3.70887 7.22559 3.95508C6.9838 4.29135 6.51503 4.36773 6.17871 4.12598C5.84247 3.88418 5.76608 3.4154 6.00781 3.0791C6.23373 2.76487 6.49297 2.46015 6.78613 2.16699Z" fill="#48465C"/>
</svg>
