<svg width="24" height="24" viewBox="0 0 24 24" fill="none" xmlns="http://www.w3.org/2000/svg">
<path fill-rule="evenodd" clip-rule="evenodd" d="M11.6601 1.25C13.17 1.25008 14.5341 2.36742 14.5341 3.90918C14.5341 4.58927 14.2866 5.22328 13.8447 5.7041C13.7047 5.8563 13.5502 6.00941 13.4091 6.14844L13.3349 6.22168C13.1679 6.38689 13.0206 6.53625 12.8945 6.68457C12.8072 6.78722 12.74 6.87806 12.6894 6.95898C13.2577 7.06694 13.8096 7.28611 14.3036 7.61914L21.7363 12.6289C22.6859 13.2691 22.9426 14.3259 22.6122 15.2168C22.2871 16.0928 21.4221 16.7499 20.2978 16.75H18.7411C18.7502 17.114 18.7499 17.5138 18.7499 17.9482V18.0518C18.7499 18.9503 18.7499 19.7001 18.6699 20.2949C18.5854 20.9225 18.3996 21.489 17.9443 21.9443C17.4889 22.3997 16.9225 22.5855 16.2949 22.6699C15.7001 22.7499 14.9502 22.75 14.0517 22.75H9.94818C9.04991 22.75 8.3007 22.7499 7.70599 22.6699C7.07819 22.5855 6.51107 22.3998 6.0556 21.9443C5.60026 21.489 5.41444 20.9225 5.33002 20.2949C5.25005 19.7001 5.24991 18.9503 5.24994 18.0518V17.9482C5.24992 17.5138 5.2497 17.114 5.25873 16.75H3.70306C2.59049 16.75 1.7286 16.105 1.39642 15.2393C1.05882 14.3592 1.29659 13.3083 2.22357 12.6562L9.31927 7.66504C9.85575 7.28767 10.4662 7.04813 11.0937 6.94238C11.1991 6.43645 11.4866 6.02486 11.7519 5.71289C11.9238 5.51089 12.1117 5.32196 12.2802 5.15527L12.3613 5.0752C12.5031 4.93531 12.6273 4.81218 12.7402 4.68945C12.9223 4.49134 13.0341 4.22141 13.0341 3.90918C13.0341 3.34232 12.4961 2.75008 11.6601 2.75C10.824 2.75 10.2861 3.34228 10.2861 3.90918C10.286 4.3233 9.9502 4.6591 9.53607 4.65918C9.12189 4.65918 8.78612 4.32335 8.78607 3.90918C8.78607 2.36736 10.1501 1.25 11.6601 1.25ZM9.99994 14.75C9.036 14.75 8.38824 14.7515 7.90521 14.8164C7.4439 14.8785 7.24645 14.9859 7.11615 15.1162C6.98588 15.2465 6.87838 15.4439 6.81635 15.9053C6.75141 16.3883 6.74994 17.036 6.74994 18C6.74994 18.964 6.75141 19.6117 6.81635 20.0947C6.87838 20.5561 6.98588 20.7535 7.11615 20.8838C7.24645 21.0141 7.4439 21.1215 7.90521 21.1836C8.38824 21.2485 9.036 21.25 9.99994 21.25H13.9999C14.9639 21.25 15.6117 21.2485 16.0947 21.1836C16.5561 21.1215 16.7534 21.0141 16.8837 20.8838C17.014 20.7535 17.1214 20.5561 17.1835 20.0947C17.2484 19.6117 17.2499 18.964 17.2499 18C17.2499 17.036 17.2484 16.3883 17.1835 15.9053C17.1214 15.4439 17.014 15.2465 16.8837 15.1162C16.7534 14.9859 16.5561 14.8785 16.0947 14.8164C15.6117 14.7515 14.9639 14.75 13.9999 14.75H9.99994ZM11.8105 8.37988C11.2261 8.38668 10.6529 8.5618 10.1826 8.89258L3.08685 13.8838C2.74194 14.1266 2.69663 14.441 2.79681 14.7021C2.90261 14.9776 3.2006 15.25 3.70306 15.25H5.414C5.52306 14.8032 5.71323 14.3981 6.0556 14.0557C6.51107 13.6002 7.07819 13.4145 7.70599 13.3301C8.30071 13.2501 9.0499 13.25 9.94818 13.25H14.0517C14.9502 13.25 15.7001 13.2501 16.2949 13.3301C16.9225 13.4145 17.4889 13.6003 17.9443 14.0557C18.2867 14.3981 18.4769 14.8032 18.5859 15.25H20.2978C20.8057 15.2499 21.1027 14.9731 21.206 14.6953C21.3037 14.4318 21.2542 14.1135 20.8974 13.873L13.4658 8.8623C12.9832 8.53704 12.3998 8.37308 11.8105 8.37988Z" fill="#1C274C"/>
</svg>
