<svg width="24" height="24" viewBox="0 0 24 24" fill="none" xmlns="http://www.w3.org/2000/svg">
<path d="M11.6602 1.25C13.1701 1.25008 14.5342 2.36742 14.5342 3.90918C14.5342 4.58927 14.2866 5.22328 13.8447 5.7041C13.7048 5.8563 13.5502 6.00941 13.4092 6.14844L13.335 6.22168C13.168 6.38689 13.0207 6.53625 12.8945 6.68457C12.8072 6.78722 12.7401 6.87806 12.6895 6.95898C13.2578 7.06694 13.8097 7.28611 14.3037 7.61914L21.7363 12.6289C22.6859 13.2691 22.9427 14.3259 22.6123 15.2168C22.2872 16.0928 21.4221 16.7499 20.2979 16.75H18.7412C18.7502 17.114 18.75 17.5138 18.75 17.9482V18.0518C18.75 18.9503 18.7499 19.7001 18.6699 20.2949C18.5855 20.9225 18.3996 21.489 17.9443 21.9443C17.4889 22.3997 16.9225 22.5855 16.2949 22.6699C15.7001 22.7499 14.9503 22.75 14.0518 22.75H9.94824C9.04997 22.75 8.30076 22.7499 7.70605 22.6699C7.07825 22.5855 6.51113 22.3998 6.05566 21.9443C5.60032 21.489 5.4145 20.9225 5.33008 20.2949C5.25011 19.7001 5.24997 18.9503 5.25 18.0518V17.9482C5.24998 17.5138 5.24976 17.114 5.25879 16.75H3.70312C2.59055 16.75 1.72866 16.105 1.39648 15.2393C1.05888 14.3592 1.29665 13.3083 2.22363 12.6562L9.31934 7.66504C9.85581 7.28767 10.4663 7.04813 11.0938 6.94238C11.1992 6.43645 11.4867 6.02486 11.752 5.71289C11.9238 5.51089 12.1118 5.32196 12.2803 5.15527L12.3613 5.0752C12.5031 4.93531 12.6274 4.81218 12.7402 4.68945C12.9223 4.49134 13.0342 4.22141 13.0342 3.90918C13.0342 3.34232 12.4962 2.75008 11.6602 2.75C10.8241 2.75 10.2861 3.34228 10.2861 3.90918C10.2861 4.3233 9.95026 4.6591 9.53613 4.65918C9.12195 4.65918 8.78618 4.32335 8.78613 3.90918C8.78613 2.36736 10.1502 1.25 11.6602 1.25ZM10 14.75C9.03606 14.75 8.3883 14.7515 7.90527 14.8164C7.44396 14.8785 7.24651 14.9859 7.11621 15.1162C6.98594 15.2465 6.87844 15.4439 6.81641 15.9053C6.75147 16.3883 6.75 17.036 6.75 18C6.75 18.964 6.75147 19.6117 6.81641 20.0947C6.87844 20.5561 6.98594 20.7535 7.11621 20.8838C7.24651 21.0141 7.44396 21.1215 7.90527 21.1836C8.3883 21.2485 9.03606 21.25 10 21.25H14C14.964 21.25 15.6117 21.2485 16.0947 21.1836C16.5562 21.1215 16.7535 21.0141 16.8838 20.8838C17.0141 20.7535 17.1215 20.5561 17.1836 20.0947C17.2485 19.6117 17.25 18.964 17.25 18C17.25 17.036 17.2485 16.3883 17.1836 15.9053C17.1215 15.4439 17.0141 15.2465 16.8838 15.1162C16.7535 14.9859 16.5562 14.8785 16.0947 14.8164C15.6117 14.7515 14.964 14.75 14 14.75H10ZM11.8105 8.37988C11.2261 8.38668 10.6529 8.5618 10.1826 8.89258L3.08691 13.8838C2.742 14.1266 2.69669 14.441 2.79688 14.7021C2.90267 14.9776 3.20066 15.25 3.70312 15.25H5.41406C5.52312 14.8032 5.71329 14.3981 6.05566 14.0557C6.51113 13.6002 7.07825 13.4145 7.70605 13.3301C8.30077 13.2501 9.04996 13.25 9.94824 13.25H14.0518C14.9503 13.25 15.7001 13.2501 16.2949 13.3301C16.9225 13.4145 17.4889 13.6003 17.9443 14.0557C18.2867 14.3981 18.4769 14.8032 18.5859 15.25H20.2979C20.8058 15.2499 21.1028 14.9731 21.2061 14.6953C21.3038 14.4318 21.2543 14.1135 20.8975 13.873L13.4658 8.8623C12.9833 8.53704 12.3999 8.37308 11.8105 8.37988Z" fill="#48465C"/>
</svg>
