<svg width="24" height="24" viewBox="0 0 24 24" fill="none" xmlns="http://www.w3.org/2000/svg">
<path d="M21.6223 8.85266C21.98 8.644 22.439 8.76455 22.6477 9.12219C22.8563 9.47985 22.7357 9.9388 22.3782 10.1476C16.6665 13.4794 15.2503 18.859 15.2502 22.0001C15.2502 22.4143 14.9143 22.75 14.5002 22.7501C14.086 22.7501 13.7502 22.4143 13.7502 22.0001C13.7503 18.4745 15.3342 12.5208 21.6223 8.85266ZM10.2786 11.7941C10.3924 11.3958 10.808 11.1656 11.2063 11.2794C11.6043 11.3933 11.8347 11.8081 11.7209 12.2062C11.3545 13.4888 11.2666 15.3496 11.3245 17.214C11.3818 19.0596 11.579 20.8293 11.7415 21.8859C11.8045 22.2953 11.5229 22.6783 11.1135 22.7413C10.7043 22.8041 10.3221 22.5235 10.259 22.1144C10.0882 21.0042 9.88481 19.1735 9.82544 17.2609C9.76666 15.3671 9.84506 13.3113 10.2786 11.7941ZM4.75024 12.8351C4.95747 12.7155 5.22018 12.7591 5.3772 12.9396C5.37783 12.9403 5.37932 12.9424 5.3811 12.9445C5.38473 12.9485 5.39082 12.9553 5.39868 12.964C5.41469 12.9816 5.43891 13.0079 5.46997 13.0402C5.53287 13.1054 5.62259 13.1935 5.72681 13.2853C5.95306 13.4846 6.18496 13.6408 6.35181 13.6857C6.51854 13.7304 6.79745 13.7109 7.09302 13.6515C7.2289 13.6241 7.35062 13.5926 7.43774 13.5675C7.48073 13.5551 7.51561 13.5445 7.53833 13.5372C7.54947 13.5337 7.55851 13.5302 7.56372 13.5284C7.5657 13.5278 7.56762 13.5277 7.5686 13.5275C7.79494 13.4494 8.04555 13.5428 8.16528 13.7501C8.28465 13.9574 8.24039 14.2202 8.05981 14.3771C8.05908 14.3778 8.05766 14.3794 8.05591 14.381C8.05183 14.3846 8.04494 14.3908 8.03638 14.3986C8.01874 14.4146 7.99158 14.4387 7.95923 14.4698C7.89391 14.5328 7.80591 14.6225 7.71411 14.7267C7.51478 14.953 7.35845 15.1848 7.31372 15.3517C7.26908 15.5185 7.28846 15.7973 7.3479 16.0929C7.37532 16.2292 7.40678 16.3514 7.43188 16.4386C7.44426 16.4815 7.45493 16.5156 7.46216 16.5382C7.46578 16.5495 7.46923 16.5584 7.47095 16.5636L7.4729 16.5685C7.5509 16.7948 7.4575 17.0454 7.25024 17.1652C7.04294 17.2847 6.77927 17.2404 6.62231 17.0597L6.61841 17.0558C6.61479 17.0517 6.60876 17.045 6.60083 17.0363C6.58478 17.0186 6.56079 16.9915 6.52954 16.9591C6.4666 16.8938 6.37695 16.8058 6.27271 16.714C6.04635 16.5146 5.81458 16.3583 5.64771 16.3136C5.4808 16.269 5.20204 16.2883 4.90649 16.3478C4.7705 16.3751 4.64887 16.4067 4.56177 16.4318C4.51865 16.4442 4.48385 16.4548 4.46118 16.462C4.44997 16.4656 4.44093 16.4691 4.43579 16.4708C4.43359 16.4716 4.43174 16.4725 4.43091 16.4728L4.34497 16.4933C4.14415 16.5247 3.93998 16.4311 3.83521 16.2501C3.7156 16.0429 3.75923 15.7792 3.9397 15.6222L3.94458 15.6183C3.94865 15.6147 3.95559 15.6085 3.96411 15.6007C3.9817 15.5847 4.0081 15.5604 4.04028 15.5294C4.10557 15.4665 4.19358 15.3768 4.2854 15.2726C4.48477 15.0462 4.64101 14.8145 4.68579 14.6476C4.73049 14.4808 4.7111 14.2021 4.65161 13.9064C4.62422 13.7702 4.59272 13.6488 4.56763 13.5616C4.55516 13.5184 4.5446 13.4838 4.53735 13.4611C4.53374 13.4497 4.53029 13.4409 4.52856 13.4357L4.52759 13.4308C4.44959 13.2045 4.54308 12.9549 4.75024 12.8351ZM5.70728 14.4933C5.70278 14.633 5.68816 14.7736 5.65259 14.9064C5.61703 15.039 5.55924 15.1681 5.49341 15.2911C5.63315 15.2956 5.77363 15.3122 5.90649 15.3478C6.03891 15.3833 6.16835 15.4393 6.29126 15.505C6.2958 15.3656 6.31241 15.2254 6.3479 15.0929L6.39673 14.9425C6.4273 14.862 6.46526 14.7835 6.5061 14.7072C6.41985 14.7044 6.33309 14.6984 6.24829 14.6847L6.09302 14.6515C5.96015 14.6159 5.83055 14.5593 5.70728 14.4933ZM11.5979 1.25891C12.1299 1.31381 12.448 1.67855 12.6438 1.97766C12.8297 2.2616 13.0114 2.65288 13.2083 3.07727C13.2155 3.09283 13.2226 3.10851 13.2297 3.12415L13.342 3.36438C13.3734 3.43199 13.3976 3.48468 13.4192 3.52942C13.4346 3.56133 13.4467 3.58477 13.4563 3.60266C13.4747 3.60981 13.4989 3.61878 13.5315 3.63C13.5782 3.64607 13.6329 3.66457 13.7034 3.68762L13.9543 3.76965C13.9706 3.77497 13.9869 3.77999 14.0032 3.78528C14.4455 3.92979 14.855 4.06376 15.1584 4.21497C15.48 4.37529 15.8753 4.64794 15.9934 5.16711C16.1124 5.69007 15.8694 6.10643 15.6448 6.38782C15.4345 6.65139 15.1208 6.9421 14.7834 7.255C14.7706 7.26687 14.7582 7.2792 14.7454 7.29114L14.553 7.46887C14.4991 7.51875 14.4582 7.55733 14.4231 7.59094C14.4017 7.61143 14.385 7.62778 14.3723 7.64075C14.3716 7.65968 14.3714 7.68375 14.3713 7.71497C14.3711 7.76427 14.3714 7.82153 14.3723 7.89563L14.3752 8.16028C14.3754 8.17758 14.376 8.19483 14.3762 8.21204C14.3819 8.67733 14.3874 9.10841 14.342 9.44348C14.2941 9.79642 14.1621 10.2662 13.6965 10.5402C13.2312 10.8137 12.7561 10.7012 12.4241 10.5724C12.1084 10.4499 11.734 10.2373 11.3284 10.007C11.3133 9.99842 11.2977 9.99019 11.2825 9.98157L11.053 9.85071C10.9884 9.81406 10.9381 9.78558 10.8948 9.76184C10.8662 9.7462 10.8437 9.73444 10.8264 9.72571C10.8086 9.73056 10.7861 9.73725 10.7571 9.74622C10.7105 9.76061 10.6562 9.77806 10.5862 9.8009L10.3372 9.88196C10.3205 9.88737 10.3039 9.89317 10.2874 9.89856C9.8494 10.0416 9.4424 10.1747 9.10962 10.2306C8.75446 10.2901 8.27371 10.2998 7.87427 9.94446C7.47637 9.59039 7.42753 9.1125 7.44263 8.75305C7.45687 8.41478 7.53788 7.99295 7.62524 7.53723C7.6285 7.52022 7.63173 7.50258 7.63501 7.48547L7.68481 7.22668C7.6987 7.15417 7.70953 7.09829 7.71802 7.04993C7.7238 7.01697 7.72806 6.99209 7.73071 6.97278C7.71966 6.95589 7.70418 6.93403 7.68384 6.9054C7.65506 6.8649 7.62149 6.818 7.57739 6.75793L7.42017 6.54407C7.4099 6.53008 7.39913 6.516 7.38892 6.50208C7.11192 6.12494 6.8566 5.77728 6.69751 5.47766C6.5302 5.16247 6.36334 4.7069 6.57349 4.21399C6.78561 3.71687 7.2337 3.52586 7.57935 3.43372C7.90515 3.34693 8.33144 3.29947 8.79028 3.24817C8.80769 3.24622 8.82552 3.24427 8.84302 3.24231L9.10376 3.21301C9.17695 3.20482 9.23305 3.19773 9.28149 3.19153C9.31015 3.18786 9.33302 3.18557 9.35083 3.18274C9.36185 3.16867 9.37492 3.15009 9.39185 3.12708C9.42076 3.08779 9.45364 3.04156 9.49634 2.98157L9.64868 2.76868C9.65887 2.75438 9.66883 2.73994 9.67896 2.72571C9.946 2.35036 10.1939 2.00136 10.428 1.75891C10.6769 1.50108 11.0611 1.20367 11.5979 1.25891ZM11.4377 2.87708C11.3029 3.03297 11.1317 3.27064 10.8704 3.63782L10.719 3.85168C10.7078 3.86742 10.6959 3.88433 10.6838 3.90149C10.5578 4.08077 10.3822 4.32964 10.1174 4.48547C9.8526 4.64117 9.54871 4.6742 9.33032 4.69739C9.3097 4.69958 9.28976 4.70111 9.27075 4.70325L9.01001 4.73254C8.5638 4.7825 8.27274 4.81664 8.07056 4.85852C8.17902 5.04047 8.35547 5.28361 8.62915 5.65637L8.78638 5.87024C8.79791 5.88595 8.81 5.90222 8.82251 5.91907C8.95549 6.09818 9.13582 6.34095 9.20337 6.63782C9.27121 6.93602 9.21303 7.23292 9.17017 7.45032C9.16617 7.47057 9.16206 7.49009 9.15845 7.50891L9.10864 7.7677C9.02023 8.22921 8.9656 8.52499 8.94751 8.7345C9.15034 8.69045 9.43234 8.59971 9.87231 8.45618L10.1213 8.37512C10.1396 8.36914 10.1592 8.36218 10.179 8.35559C10.3875 8.28626 10.6753 8.19128 10.9807 8.22278C11.2843 8.2541 11.5471 8.40514 11.7395 8.51575C11.7579 8.52629 11.7762 8.53636 11.7932 8.54602L12.0237 8.67688C12.4172 8.90029 12.6754 9.04555 12.8665 9.13196C12.883 8.92387 12.8816 8.62835 12.8762 8.17786L12.8723 7.91418C12.872 7.89466 12.8717 7.87379 12.8713 7.85266C12.8674 7.63148 12.8628 7.32807 12.9827 7.047C13.1033 6.7643 13.3268 6.55855 13.4885 6.41028C13.5039 6.39616 13.5193 6.38236 13.5334 6.36926L13.7249 6.19153C14.0618 5.87901 14.2775 5.67669 14.4143 5.52161C14.2215 5.43586 13.9354 5.34148 13.4885 5.19543L13.2375 5.1134L13.009 5.03723C12.8283 4.97315 12.6235 4.88381 12.4524 4.73157C12.2249 4.5292 12.099 4.25479 12.0061 4.05188C11.9974 4.03271 11.989 4.014 11.9807 3.99622L11.8694 3.755C11.6734 3.33264 11.5453 3.05981 11.4377 2.87708Z" fill="#48465C"/>
</svg>
