<svg width="24" height="24" viewBox="0 0 24 24" fill="none" xmlns="http://www.w3.org/2000/svg">
<path d="M21.6223 8.85266C21.98 8.644 22.4389 8.76455 22.6476 9.12219C22.8563 9.47985 22.7356 9.9388 22.3781 10.1476C16.6665 13.4795 15.2502 18.859 15.2502 22.0001C15.2502 22.4143 14.9143 22.75 14.5002 22.7501C14.086 22.7501 13.7502 22.4143 13.7502 22.0001C13.7502 18.4745 15.3341 12.5208 21.6223 8.85266ZM10.2785 11.7941C10.3923 11.3958 10.808 11.1656 11.2062 11.2794C11.6043 11.3933 11.8346 11.8081 11.7209 12.2062C11.3544 13.4888 11.2665 15.3496 11.3244 17.214C11.3817 19.0596 11.5789 20.8293 11.7414 21.8859C11.8044 22.2953 11.5229 22.6783 11.1135 22.7413C10.7043 22.8041 10.3221 22.5235 10.259 22.1144C10.0882 21.0042 9.88475 19.1735 9.82538 17.2609C9.7666 15.3671 9.84499 13.3113 10.2785 11.7941ZM4.75018 12.8351C4.95741 12.7155 5.22012 12.7591 5.37714 12.9396C5.37777 12.9403 5.37926 12.9424 5.38104 12.9445C5.38467 12.9485 5.39076 12.9553 5.39862 12.964C5.41463 12.9816 5.43885 13.0079 5.46991 13.0402C5.53281 13.1054 5.62252 13.1935 5.72675 13.2853C5.953 13.4846 6.18489 13.6408 6.35175 13.6857C6.51848 13.7304 6.79738 13.7109 7.09296 13.6515C7.22884 13.6241 7.35056 13.5926 7.43768 13.5675C7.48067 13.5551 7.51555 13.5445 7.53827 13.5372C7.54941 13.5337 7.55844 13.5302 7.56366 13.5284C7.56564 13.5278 7.56756 13.5277 7.56854 13.5275C7.79488 13.4494 8.04549 13.5428 8.16522 13.7501C8.28459 13.9574 8.24033 14.2202 8.05975 14.3771C8.05902 14.3778 8.05759 14.3794 8.05585 14.381C8.05177 14.3846 8.04488 14.3908 8.03632 14.3986C8.01868 14.4146 7.99152 14.4387 7.95917 14.4698C7.89385 14.5328 7.80585 14.6225 7.71405 14.7267C7.51472 14.953 7.35839 15.1848 7.31366 15.3517C7.26902 15.5185 7.2884 15.7973 7.34784 16.0929C7.37526 16.2292 7.40671 16.3514 7.43182 16.4386C7.4442 16.4815 7.45487 16.5156 7.4621 16.5382C7.46571 16.5495 7.46917 16.5584 7.47089 16.5636L7.47284 16.5685C7.55084 16.7948 7.45744 17.0454 7.25018 17.1652C7.04288 17.2847 6.7792 17.2404 6.62225 17.0597L6.61835 17.0558C6.61473 17.0517 6.6087 17.045 6.60077 17.0363C6.58472 17.0186 6.56073 16.9915 6.52948 16.9591C6.46654 16.8938 6.37689 16.8058 6.27264 16.714C6.04629 16.5146 5.81452 16.3583 5.64764 16.3136C5.48074 16.269 5.20198 16.2883 4.90643 16.3478C4.77044 16.3751 4.6488 16.4067 4.56171 16.4318C4.51859 16.4442 4.48379 16.4548 4.46112 16.462C4.44991 16.4656 4.44087 16.4691 4.43573 16.4708C4.43353 16.4716 4.43168 16.4725 4.43085 16.4728L4.34491 16.4933C4.14409 16.5247 3.93992 16.4311 3.83514 16.2501C3.71554 16.0429 3.75917 15.7792 3.93964 15.6222L3.94452 15.6183C3.94859 15.6147 3.95552 15.6085 3.96405 15.6007C3.98163 15.5847 4.00804 15.5604 4.04022 15.5294C4.10551 15.4665 4.19352 15.3768 4.28534 15.2726C4.48471 15.0462 4.64095 14.8145 4.68573 14.6476C4.73043 14.4808 4.71104 14.2021 4.65155 13.9064C4.62416 13.7702 4.59266 13.6488 4.56757 13.5616C4.5551 13.5184 4.54454 13.4838 4.53729 13.4611C4.53368 13.4497 4.53023 13.4409 4.5285 13.4357L4.52753 13.4308C4.44953 13.2045 4.54302 12.9549 4.75018 12.8351ZM5.70721 14.4933C5.70272 14.633 5.68809 14.7736 5.65253 14.9064C5.61697 15.039 5.55917 15.1681 5.49335 15.2911C5.63308 15.2956 5.77357 15.3122 5.90643 15.3478C6.03884 15.3833 6.16829 15.4393 6.2912 15.505C6.29574 15.3656 6.31235 15.2254 6.34784 15.0929L6.39667 14.9425C6.42724 14.862 6.4652 14.7835 6.50604 14.7072C6.41979 14.7044 6.33303 14.6984 6.24823 14.6847L6.09296 14.6515C5.96009 14.6159 5.83049 14.5593 5.70721 14.4933ZM11.5978 1.25891C12.1298 1.31381 12.4479 1.67855 12.6437 1.97766C12.8297 2.2616 13.0114 2.65288 13.2082 3.07727C13.2154 3.09283 13.2225 3.10851 13.2297 3.12415L13.342 3.36438C13.3734 3.43199 13.3975 3.48468 13.4191 3.52942C13.4346 3.56133 13.4467 3.58477 13.4562 3.60266C13.4747 3.60981 13.4989 3.61878 13.5314 3.63C13.5781 3.64607 13.6328 3.66457 13.7033 3.68762L13.9543 3.76965C13.9705 3.77497 13.9869 3.77999 14.0031 3.78528C14.4454 3.92979 14.855 4.06376 15.1584 4.21497C15.4799 4.37529 15.8752 4.64794 15.9933 5.16711C16.1123 5.69007 15.8693 6.10643 15.6447 6.38782C15.4344 6.65139 15.1208 6.9421 14.7834 7.255C14.7705 7.26687 14.7582 7.2792 14.7453 7.29114L14.5529 7.46887C14.4991 7.51875 14.4582 7.55733 14.423 7.59094C14.4016 7.61143 14.385 7.62778 14.3723 7.64075C14.3716 7.65968 14.3714 7.68375 14.3713 7.71497C14.3711 7.76427 14.3714 7.82153 14.3723 7.89563L14.3752 8.16028C14.3754 8.17758 14.376 8.19483 14.3762 8.21204C14.3819 8.67733 14.3874 9.10841 14.342 9.44348C14.2941 9.79642 14.162 10.2662 13.6965 10.5402C13.2312 10.8137 12.756 10.7012 12.424 10.5724C12.1084 10.4499 11.7339 10.2373 11.3283 10.007C11.3132 9.99842 11.2976 9.99019 11.2824 9.98157L11.0529 9.85071C10.9883 9.81406 10.9381 9.78558 10.8947 9.76184C10.8661 9.7462 10.8437 9.73444 10.8264 9.72571C10.8085 9.73056 10.786 9.73725 10.757 9.74622C10.7104 9.76061 10.6561 9.77806 10.5861 9.8009L10.3371 9.88196C10.3205 9.88737 10.3038 9.89317 10.2873 9.89856C9.84934 10.0416 9.44234 10.1747 9.10956 10.2306C8.75439 10.2901 8.27365 10.2998 7.87421 9.94446C7.47631 9.59039 7.42747 9.1125 7.44257 8.75305C7.4568 8.41478 7.53782 7.99295 7.62518 7.53723C7.62844 7.52022 7.63167 7.50258 7.63495 7.48547L7.68475 7.22668C7.69864 7.15417 7.70947 7.09829 7.71796 7.04993C7.72373 7.01697 7.728 6.99209 7.73065 6.97278C7.71959 6.95589 7.70412 6.93403 7.68378 6.9054C7.655 6.8649 7.62143 6.818 7.57733 6.75793L7.4201 6.54407C7.40983 6.53008 7.39907 6.516 7.38885 6.50208C7.11186 6.12494 6.85654 5.77728 6.69745 5.47766C6.53014 5.16247 6.36328 4.7069 6.57343 4.21399C6.78555 3.71687 7.23364 3.52586 7.57928 3.43372C7.90509 3.34693 8.33138 3.29947 8.79022 3.24817C8.80763 3.24622 8.82546 3.24427 8.84296 3.24231L9.1037 3.21301C9.17689 3.20482 9.23299 3.19773 9.28143 3.19153C9.31009 3.18786 9.33296 3.18557 9.35077 3.18274C9.36179 3.16867 9.37485 3.15009 9.39178 3.12708C9.4207 3.08779 9.45358 3.04156 9.49628 2.98157L9.64862 2.76868C9.65881 2.75438 9.66877 2.73994 9.67889 2.72571C9.94594 2.35036 10.1939 2.00136 10.4279 1.75891C10.6769 1.50108 11.0611 1.20367 11.5978 1.25891ZM11.4377 2.87708C11.3028 3.03297 11.1316 3.27064 10.8703 3.63782L10.7189 3.85168C10.7077 3.86742 10.6959 3.88433 10.6838 3.90149C10.5577 4.08077 10.3822 4.32964 10.1174 4.48547C9.85254 4.64117 9.54865 4.6742 9.33026 4.69739C9.30963 4.69958 9.2897 4.70111 9.27069 4.70325L9.00995 4.73254C8.56374 4.7825 8.27268 4.81664 8.0705 4.85852C8.17896 5.04047 8.35541 5.28361 8.62909 5.65637L8.78632 5.87024C8.79785 5.88595 8.80994 5.90222 8.82245 5.91907C8.95543 6.09818 9.13576 6.34095 9.20331 6.63782C9.27115 6.93602 9.21297 7.23292 9.1701 7.45032C9.16611 7.47057 9.162 7.49009 9.15839 7.50891L9.10858 7.7677C9.02017 8.22921 8.96554 8.52499 8.94745 8.7345C9.15028 8.69045 9.43228 8.59971 9.87225 8.45618L10.1213 8.37512C10.1396 8.36914 10.1591 8.36218 10.1789 8.35559C10.3874 8.28626 10.6753 8.19128 10.9807 8.22278C11.2842 8.2541 11.5471 8.40514 11.7394 8.51575C11.7578 8.52629 11.7762 8.53636 11.7932 8.54602L12.0236 8.67688C12.4171 8.90029 12.6754 9.04555 12.8664 9.13196C12.8829 8.92387 12.8816 8.62835 12.8762 8.17786L12.8723 7.91418C12.872 7.89466 12.8717 7.87379 12.8713 7.85266C12.8674 7.63148 12.8628 7.32807 12.9826 7.047C13.1032 6.7643 13.3268 6.55855 13.4885 6.41028C13.5039 6.39616 13.5193 6.38236 13.5334 6.36926L13.7248 6.19153C14.0617 5.87901 14.2774 5.67669 14.4142 5.52161C14.2214 5.43586 13.9353 5.34148 13.4885 5.19543L13.2375 5.1134L13.009 5.03723C12.8282 4.97315 12.6235 4.88381 12.4523 4.73157C12.2249 4.5292 12.0989 4.25479 12.006 4.05188C11.9973 4.03271 11.9889 4.014 11.9807 3.99622L11.8693 3.755C11.6734 3.33264 11.5453 3.05981 11.4377 2.87708Z" fill="#1C274C"/>
</svg>
