<svg width="24" height="24" viewBox="0 0 24 24" fill="none" xmlns="http://www.w3.org/2000/svg">
<path fill-rule="evenodd" clip-rule="evenodd" d="M18.8828 7.75197C19.2961 7.77952 19.6094 8.13659 19.582 8.54982L19.1182 15.502C19.0327 16.7846 18.9637 17.8209 18.8018 18.6338C18.6334 19.479 18.3464 20.1848 17.7549 20.7383C17.1634 21.2915 16.4403 21.5309 15.5859 21.6426C14.7639 21.7502 13.725 21.7501 12.4395 21.75H11.5605C10.275 21.7501 9.23608 21.7502 8.41406 21.6426C7.55964 21.5309 6.8366 21.2915 6.24512 20.7383C5.65357 20.1848 5.36665 19.479 5.19824 18.6338C5.03627 17.8208 4.96733 16.7846 4.88184 15.502L4.41797 8.54982C4.39051 8.13659 4.70394 7.77952 5.11719 7.75197C5.53032 7.72465 5.88749 8.03705 5.91504 8.45021L6.375 15.3496C6.46485 16.6973 6.52839 17.6352 6.66895 18.3408C6.80529 19.0252 6.99613 19.3878 7.26953 19.6436C7.54292 19.8992 7.91758 20.0648 8.60938 20.1553C9.32273 20.2485 10.2627 20.25 11.6133 20.25H12.3867C13.7373 20.25 14.6773 20.2486 15.3906 20.1553C16.0824 20.0648 16.4571 19.8992 16.7305 19.6436C17.0039 19.3878 17.1947 19.0252 17.3311 18.3408C17.4716 17.6352 17.5352 16.6973 17.625 15.3496L18.085 8.45021C18.1125 8.03703 18.4697 7.72463 18.8828 7.75197ZM13.6904 2.25002C13.9068 2.24988 14.0955 2.24992 14.2734 2.27834C14.9767 2.39063 15.585 2.82932 15.9141 3.46095C15.9974 3.62084 16.0577 3.79957 16.126 4.0049L16.1396 4.04885L16.2373 4.33986C16.256 4.39579 16.2612 4.41225 16.2656 4.42482C16.4408 4.90893 16.8956 5.23697 17.4102 5.25002H20.5C20.9142 5.25003 21.25 5.58583 21.25 6.00002C21.25 6.41422 20.9142 6.75 20.5 6.75002H3.5C3.08578 6.75002 2.75 6.41423 2.75 6.00002C2.75003 5.58582 3.0858 5.25002 3.5 5.25002H6.58984C7.10449 5.23697 7.55926 4.90894 7.73438 4.42482C7.73894 4.41218 7.74398 4.396 7.7627 4.33986L7.86035 4.04885L7.87402 4.0049C7.94231 3.79958 8.00268 3.62085 8.08594 3.46095C8.4149 2.82934 9.02331 2.39063 9.72656 2.27834C9.90451 2.24994 10.0933 2.24988 10.3096 2.25002H13.6904ZM10.3555 3.75002C10.0671 3.75002 10.0074 3.75267 9.96289 3.75978C9.72857 3.7972 9.5257 3.94294 9.41602 4.15334C9.3952 4.1933 9.37423 4.24943 9.2832 4.52248L9.18262 4.82228C9.1676 4.86733 9.15646 4.90261 9.14453 4.93556C9.10526 5.04412 9.05932 5.149 9.00781 5.25002H14.9922C14.9407 5.14901 14.8948 5.0441 14.8555 4.93556L14.8164 4.82228L14.7168 4.52248C14.6257 4.2494 14.6048 4.1933 14.584 4.15334C14.4743 3.94296 14.2715 3.79723 14.0371 3.75978C13.9926 3.75267 13.9328 3.75002 13.6445 3.75002H10.3555Z" fill="#1C274C"/>
</svg>
