<svg width="24" height="24" viewBox="0 0 24 24" fill="none" xmlns="http://www.w3.org/2000/svg">
<path d="M12 2C17.5225 2.00026 21.9999 6.47743 22 12C22 17.5226 17.5226 21.9997 12 22C6.4772 22 1.99902 17.5228 1.99902 12C1.99916 6.47726 6.47728 2 12 2ZM12 15C11.4478 15 11.0001 15.4478 11 16C11 16.5523 11.4477 17 12 17C12.5521 16.9997 13 16.5521 13 16C12.9999 15.448 12.552 15.0003 12 15ZM12 11C11.4478 11 11.0001 11.4478 11 12C11 12.5523 11.4477 13 12 13C12.5521 12.9997 13 12.5521 13 12C12.9999 11.448 12.552 11.0003 12 11ZM12 7C11.4478 7 11.0001 7.44783 11 8C11 8.55228 11.4477 9 12 9C12.5521 8.99974 13 8.55212 13 8C12.9999 7.44799 12.552 7.00026 12 7Z" fill="#48465C"/>
</svg>
