<svg width="24" height="24" viewBox="0 0 24 24" fill="none" xmlns="http://www.w3.org/2000/svg">
<path d="M2.96777 9.48486C3.36886 9.46761 3.71229 9.7695 3.74707 10.1694L4.71875 21.4067C4.7809 22.1284 4.21215 22.7505 3.48633 22.7505C2.80278 22.7503 2.25015 22.1955 2.25 21.5132V10.2349C2.25 9.83322 2.5665 9.50217 2.96777 9.48486ZM11.3486 1.45654C11.8312 1.22408 12.3878 1.18637 12.8975 1.3501L13.042 1.39697C13.8189 1.64657 14.4253 2.26719 14.6309 3.05908C14.8243 3.80465 14.8599 4.58314 14.7354 5.34326L14.0723 9.38721C14.0638 9.43884 14.1036 9.48464 14.1533 9.48486H19.335C20.8341 9.48496 21.9691 10.8366 21.7139 12.313L21.0088 16.3931C20.3709 20.0812 17.0712 22.7504 13.2451 22.7505H8.59668C7.34303 22.7505 6.29839 21.79 6.19043 20.5415L5.37793 11.1489C5.31113 10.3753 5.62073 9.61678 6.20898 9.10986L7.64746 7.86963C8.30246 7.30518 8.85383 6.75806 9.2002 6.10986C9.45677 5.62954 9.65564 5.12086 9.79199 4.59521L10.2676 2.76221C10.4168 2.18691 10.8166 1.71289 11.3486 1.45654ZM12.4385 2.77881C12.2935 2.73223 12.1347 2.74327 12 2.80811C11.8526 2.87916 11.7549 3.00326 11.7197 3.13818L11.2441 4.97217C11.0779 5.61343 10.8353 6.23196 10.5234 6.81592C10.0392 7.72254 9.30677 8.42052 8.62695 9.00635L7.1875 10.2456C6.96454 10.4378 6.84763 10.726 6.87305 11.02L7.68457 20.4126C7.7256 20.8871 8.12277 21.2505 8.59668 21.2505H13.2451C16.3814 21.2504 19.0235 19.0678 19.5303 16.1372L20.2363 12.0571C20.3331 11.4959 19.9013 10.985 19.335 10.9849H14.1533C13.1765 10.9846 12.4342 10.1077 12.5918 9.14502L13.2549 5.1001C13.3456 4.54616 13.3197 3.97934 13.1787 3.43604C13.1072 3.16029 12.8894 2.92315 12.583 2.82471L12.4385 2.77881Z" fill="#48465C"/>
</svg>
