<svg width="24" height="24" viewBox="0 0 24 24" fill="none" xmlns="http://www.w3.org/2000/svg">
<path d="M9.2097 5.0234C11.9069 2.32619 16.2801 2.32619 18.9773 5.0234C21.6742 7.72063 21.6744 12.0939 18.9773 14.791C17.1863 16.5818 14.6562 17.1831 12.3689 16.5957C12 16.5009 11.6012 16.5852 11.3318 16.8545L9.39037 18.7959L7.63841 17.0634C7.34391 16.7721 6.86915 16.7748 6.57787 17.0693C6.2866 17.3638 6.28923 17.8386 6.58372 18.1298L8.32982 19.8564L7.61986 20.5664C7.30201 20.8842 6.85664 21.0408 6.4099 20.9912L4.32103 20.7587C4.09843 20.734 3.89057 20.6348 3.73216 20.4765L3.52415 20.2675C3.36592 20.1093 3.26576 19.9021 3.24095 19.6796L3.00951 17.5908C2.95987 17.144 3.11555 16.6988 3.43333 16.3808L7.14525 12.6689C7.41459 12.3995 7.49878 11.9997 7.40404 11.6308C6.81685 9.34355 7.41896 6.8142 9.2097 5.0234ZM15.4138 8.5859C14.6328 7.80509 13.3666 7.80493 12.5857 8.5859C11.8047 9.36686 11.8048 10.633 12.5857 11.414C13.3667 12.1951 14.6328 12.1951 15.4138 11.414C16.1949 10.633 16.1949 9.36695 15.4138 8.5859Z" fill="#1C274C"/>
</svg>
