<svg width="24" height="24" viewBox="0 0 24 24" fill="none" xmlns="http://www.w3.org/2000/svg">
<path d="M15.3529 9.25C15.7153 9.24984 15.9934 9.24929 16.2338 9.29199C16.8955 9.40963 17.4695 9.75939 17.8744 10.25H19.0004C21.0713 10.2502 22.7504 11.929 22.7504 14C22.7503 16.0709 21.0713 17.7498 19.0004 17.75H17.6478C17.2098 18.8796 16.4487 19.8693 15.4437 20.5859C14.3823 21.3427 13.1108 21.75 11.807 21.75H8.19275C6.88911 21.7499 5.61751 21.3427 4.55603 20.5859C3.11552 19.5586 2.1765 17.9702 1.97107 16.2129L1.57068 12.7852C1.56799 12.7622 1.56548 12.7391 1.56287 12.7168C1.52061 12.3566 1.48776 12.0798 1.50232 11.8359C1.57812 10.5667 2.51412 9.51457 3.76599 9.29199C4.00652 9.24923 4.28519 9.24984 4.64783 9.25H15.3529ZM4.71619 10.75C4.25263 10.75 4.12054 10.7532 4.02869 10.7695C3.45964 10.8707 3.03382 11.3489 2.99939 11.9258C2.9939 12.0189 3.00621 12.1507 3.05994 12.6104L3.4613 16.0391C3.61763 17.3756 4.33144 18.584 5.42712 19.3652C6.2344 19.9407 7.20132 20.2499 8.19275 20.25H11.807C12.7985 20.25 13.7653 19.9407 14.5726 19.3652C15.351 18.8102 15.9369 18.0392 16.267 17.1602C16.2557 17.1086 16.2504 17.055 16.2504 17C16.2504 16.7936 16.3332 16.6063 16.4681 16.4707C16.4982 16.3286 16.5223 16.1846 16.5394 16.0391L16.9398 12.6104C16.9936 12.1507 17.0059 12.0189 17.0004 11.9258C16.966 11.3489 16.5402 10.8707 15.9711 10.7695C15.8793 10.7533 15.7467 10.75 15.2836 10.75H4.71619ZM18.4974 11.8359C18.512 12.0798 18.4802 12.3566 18.4379 12.7168C18.4353 12.7391 18.4327 12.7622 18.4301 12.7852L18.0287 16.2129C18.0273 16.2252 18.0263 16.2376 18.0248 16.25H19.0004C20.2428 16.2498 21.2503 15.2424 21.2504 14C21.2504 12.7575 20.2428 11.7502 19.0004 11.75H18.4916C18.4943 11.7785 18.4957 11.8071 18.4974 11.8359ZM4.97009 2.96973C5.263 2.67696 5.73779 2.67688 6.03064 2.96973C6.32327 3.2626 6.32334 3.73745 6.03064 4.03027L5.91443 4.14648C5.6712 4.38971 5.64363 4.7746 5.84998 5.0498C6.50421 5.92212 6.41775 7.14297 5.64685 7.91406L5.53064 8.03027C5.23783 8.32309 4.76301 8.32293 4.47009 8.03027C4.1772 7.73738 4.1772 7.26262 4.47009 6.96973L4.58533 6.85352C4.82855 6.61029 4.85612 6.2254 4.64978 5.9502C3.99549 5.07781 4.08279 3.85702 4.85388 3.08594L4.97009 2.96973ZM14.4701 2.96973C14.763 2.67694 15.2378 2.67687 15.5306 2.96973C15.8232 3.26259 15.8233 3.73746 15.5306 4.03027L15.4144 4.14648C15.1712 4.38971 15.1436 4.7746 15.35 5.0498C16.0042 5.92211 15.9177 7.14297 15.1469 7.91406L15.0306 8.03027C14.7378 8.32309 14.263 8.32294 13.9701 8.03027C13.6772 7.73738 13.6772 7.26262 13.9701 6.96973L14.0853 6.85352C14.3285 6.61029 14.3561 6.2254 14.1498 5.9502C13.4955 5.07781 13.5828 3.85702 14.3539 3.08594L14.4701 2.96973ZM9.47009 1.46973C9.763 1.17688 10.2378 1.17685 10.5306 1.46973C10.8234 1.76262 10.8235 2.23743 10.5306 2.53027C10.2712 2.78966 10.2712 3.21034 10.5306 3.46973C11.3757 4.31491 11.3758 5.68514 10.5306 6.53027C10.2378 6.82311 9.76301 6.823 9.47009 6.53027C9.1772 6.23738 9.1772 5.76262 9.47009 5.46973C9.72939 5.21039 9.72932 4.78966 9.47009 4.53027C8.62492 3.68509 8.62492 2.31491 9.47009 1.46973Z" fill="#1C274C"/>
</svg>
