<svg width="24" height="24" viewBox="0 0 24 24" fill="none" xmlns="http://www.w3.org/2000/svg">
<path d="M15.353 9.25C15.7154 9.24984 15.9935 9.24929 16.2339 9.29199C16.8956 9.40963 17.4696 9.75939 17.8745 10.25H19.0005C21.0714 10.2502 22.7505 11.929 22.7505 14C22.7504 16.0709 21.0714 17.7498 19.0005 17.75H17.6479C17.2099 18.8796 16.4489 19.8693 15.4438 20.5859C14.3824 21.3427 13.1109 21.75 11.8071 21.75H8.19287C6.88923 21.7499 5.61763 21.3427 4.55615 20.5859C3.11564 19.5586 2.17662 17.9702 1.97119 16.2129L1.5708 12.7852C1.56812 12.7622 1.5656 12.7391 1.56299 12.7168C1.52073 12.3566 1.48788 12.0798 1.50244 11.8359C1.57825 10.5667 2.51424 9.51457 3.76611 9.29199C4.00664 9.24923 4.28531 9.24984 4.64795 9.25H15.353ZM4.71631 10.75C4.25275 10.75 4.12067 10.7532 4.02881 10.7695C3.45976 10.8707 3.03394 11.3489 2.99951 11.9258C2.99402 12.0189 3.00633 12.1507 3.06006 12.6104L3.46143 16.0391C3.61775 17.3756 4.33156 18.584 5.42725 19.3652C6.23452 19.9407 7.20144 20.2499 8.19287 20.25H11.8071C12.7986 20.25 13.7654 19.9407 14.5728 19.3652C15.3512 18.8102 15.937 18.0392 16.2671 17.1602C16.2558 17.1086 16.2505 17.055 16.2505 17C16.2505 16.7936 16.3334 16.6063 16.4683 16.4707C16.4983 16.3286 16.5225 16.1846 16.5396 16.0391L16.9399 12.6104C16.9937 12.1507 17.006 12.0189 17.0005 11.9258C16.9661 11.3489 16.5403 10.8707 15.9712 10.7695C15.8794 10.7533 15.7468 10.75 15.2837 10.75H4.71631ZM18.4976 11.8359C18.5122 12.0798 18.4803 12.3566 18.438 12.7168C18.4354 12.7391 18.4329 12.7622 18.4302 12.7852L18.0288 16.2129C18.0274 16.2252 18.0264 16.2376 18.0249 16.25H19.0005C20.2429 16.2498 21.2504 15.2424 21.2505 14C21.2505 12.7575 20.2429 11.7502 19.0005 11.75H18.4917C18.4944 11.7785 18.4959 11.8071 18.4976 11.8359ZM4.97021 2.96973C5.26312 2.67696 5.73791 2.67688 6.03076 2.96973C6.32339 3.2626 6.32346 3.73745 6.03076 4.03027L5.91455 4.14648C5.67132 4.38971 5.64375 4.7746 5.8501 5.0498C6.50433 5.92212 6.41787 7.14297 5.64697 7.91406L5.53076 8.03027C5.23795 8.32309 4.76313 8.32293 4.47021 8.03027C4.17732 7.73738 4.17732 7.26262 4.47021 6.96973L4.58545 6.85352C4.82867 6.61029 4.85624 6.2254 4.6499 5.9502C3.99561 5.07781 4.08291 3.85702 4.854 3.08594L4.97021 2.96973ZM14.4702 2.96973C14.7631 2.67694 15.2379 2.67687 15.5308 2.96973C15.8234 3.26259 15.8234 3.73746 15.5308 4.03027L15.4146 4.14648C15.1714 4.38971 15.1438 4.7746 15.3501 5.0498C16.0043 5.92211 15.9179 7.14297 15.147 7.91406L15.0308 8.03027C14.7379 8.32309 14.2631 8.32294 13.9702 8.03027C13.6773 7.73738 13.6773 7.26262 13.9702 6.96973L14.0854 6.85352C14.3286 6.61029 14.3562 6.2254 14.1499 5.9502C13.4956 5.07781 13.5829 3.85702 14.354 3.08594L14.4702 2.96973ZM9.47021 1.46973C9.76312 1.17688 10.2379 1.17685 10.5308 1.46973C10.8235 1.76262 10.8236 2.23743 10.5308 2.53027C10.2714 2.78966 10.2714 3.21034 10.5308 3.46973C11.3758 4.31491 11.3759 5.68514 10.5308 6.53027C10.2379 6.82311 9.76313 6.823 9.47021 6.53027C9.17732 6.23738 9.17732 5.76262 9.47021 5.46973C9.72952 5.21039 9.72944 4.78966 9.47021 4.53027C8.62504 3.68509 8.62504 2.31491 9.47021 1.46973Z" fill="#48465C"/>
</svg>
