<svg width="24" height="24" viewBox="0 0 24 24" fill="none" xmlns="http://www.w3.org/2000/svg">
<path d="M12.0576 1.25C14.3657 1.24999 16.1745 1.24974 17.5859 1.43945C19.0306 1.63369 20.1706 2.03977 21.0654 2.93457C21.9602 3.82938 22.3662 4.96932 22.5605 6.41406C22.7502 7.82544 22.75 9.63432 22.75 11.9424V12.0576C22.75 14.3657 22.7502 16.1745 22.5605 17.5859C22.3662 19.0306 21.9602 20.1706 21.0654 21.0654C20.1706 21.9602 19.0306 22.3662 17.5859 22.5605C16.1745 22.7502 14.3657 22.75 12.0576 22.75H11.9424C9.63433 22.75 7.82545 22.7502 6.41406 22.5605C4.96933 22.3662 3.82938 21.9602 2.93457 21.0654C2.03977 20.1706 1.63369 19.0306 1.43945 17.5859C1.24974 16.1745 1.24999 14.3657 1.25 12.0576V11.9424C1.24999 9.63433 1.24974 7.82544 1.43945 6.41406C1.63369 4.96932 2.03976 3.82938 2.93457 2.93457C3.82938 2.03976 4.96933 1.63369 6.41406 1.43945C7.82545 1.24974 9.63433 1.24999 11.9424 1.25H12.0576ZM12 2.75C9.62177 2.75 7.91326 2.75198 6.61328 2.92676C5.33508 3.09865 4.56472 3.42551 3.99512 3.99512C3.42551 4.56472 3.09865 5.33508 2.92676 6.61328C2.75198 7.91326 2.75 9.62178 2.75 12C2.75 14.3782 2.75198 16.0867 2.92676 17.3867C3.09865 18.6649 3.42551 19.4352 3.99512 20.0049C4.56472 20.5745 5.33508 20.9014 6.61328 21.0732C7.91326 21.248 9.62177 21.25 12 21.25C14.3782 21.25 16.0867 21.248 17.3867 21.0732C18.6649 20.9014 19.4352 20.5745 20.0049 20.0049C20.5745 19.4352 20.9014 18.6649 21.0732 17.3867C21.248 16.0867 21.25 14.3782 21.25 12C21.25 9.62178 21.248 7.91326 21.0732 6.61328C20.9014 5.33508 20.5745 4.56472 20.0049 3.99512C19.4352 3.42551 18.6649 3.09865 17.3867 2.92676C16.0867 2.75198 14.3782 2.75 12 2.75ZM8.5 9.25C8.7225 9.25 8.93367 9.34867 9.07617 9.51953L11.5762 12.5195C11.8412 12.8377 11.7985 13.3109 11.4805 13.5762C11.1623 13.8412 10.6891 13.7985 10.4238 13.4805L9.25 12.0713V17C9.25 17.4142 8.91421 17.75 8.5 17.75C8.0858 17.75 7.75 17.4142 7.75 17V12.0713L6.57617 13.4805C6.31096 13.7985 5.83767 13.8412 5.51953 13.5762C5.20152 13.3109 5.15872 12.8377 5.42383 12.5195L7.92383 9.51953C8.06632 9.34866 8.27751 9.25001 8.5 9.25ZM15.5 9.25C15.7225 9.25 15.9337 9.34867 16.0762 9.51953L18.5762 12.5195C18.8412 12.8377 18.7985 13.3109 18.4805 13.5762C18.1623 13.8412 17.6891 13.7985 17.4238 13.4805L16.25 12.0713V17C16.25 17.4142 15.9142 17.75 15.5 17.75C15.0858 17.75 14.75 17.4142 14.75 17V12.0713L13.5762 13.4805C13.3109 13.7985 12.8377 13.8412 12.5195 13.5762C12.2015 13.3109 12.1588 12.8377 12.4238 12.5195L14.9238 9.51953C15.0663 9.34867 15.2775 9.25 15.5 9.25ZM18 6.25C18.4142 6.25 18.75 6.58579 18.75 7C18.75 7.41421 18.4142 7.75 18 7.75H6C5.58579 7.75 5.25 7.41421 5.25 7C5.25 6.58579 5.58579 6.25 6 6.25H18Z" fill="#1C274C"/>
</svg>
