<svg width="24" height="24" viewBox="0 0 24 24" fill="none" xmlns="http://www.w3.org/2000/svg">
<path d="M16.7549 2C17.9138 2 18.4936 2.00048 18.9609 2.16309C19.8469 2.47152 20.5423 3.18749 20.8418 4.09961C20.9998 4.58069 21 5.17717 21 6.37012V20.374C21 21.2322 20.0147 21.6874 19.3916 21.1172C19.0256 20.7826 18.4744 20.7826 18.1084 21.1172L17.625 21.5596C17.0235 22.1099 16.1362 22.1446 15.499 21.6631L15.251 21.4561C14.6563 21.0068 13.8437 21.0068 13.249 21.4561L13.001 21.6631C12.4063 22.1124 11.5937 22.1124 10.999 21.6631L10.751 21.4561C10.1563 21.0068 9.34365 21.0068 8.74902 21.4561L8.50098 21.6631C7.86376 22.1446 6.97645 22.1099 6.375 21.5596L5.8916 21.1172C5.52565 20.7826 4.97435 20.7826 4.6084 21.1172C3.9853 21.6874 3 21.2322 3 20.374V6.37012C3 5.17716 3.00027 4.58069 3.1582 4.09961C3.45768 3.18749 4.1531 2.47152 5.03906 2.16309C5.50638 2.00048 6.08624 2 7.24512 2H16.7549ZM7.5 14.75C7.08579 14.75 6.75 15.0858 6.75 15.5C6.75 15.9142 7.08579 16.25 7.5 16.25H16.5C16.9142 16.25 17.25 15.9142 17.25 15.5C17.25 15.0858 16.9142 14.75 16.5 14.75H7.5ZM14.999 7.44043C14.69 7.16487 14.2162 7.1921 13.9404 7.50098L10.9287 10.874L10.0596 9.90039C9.78369 9.59148 9.30995 9.56509 9.00098 9.84082C8.69203 10.1166 8.66465 10.5904 8.94043 10.8994L10.3691 12.499C10.5114 12.6584 10.715 12.75 10.9287 12.75C11.1423 12.75 11.346 12.6584 11.4883 12.499L15.0596 8.5C15.3354 8.19102 15.308 7.71631 14.999 7.44043Z" fill="#48465C"/>
</svg>
