<svg width="24" height="24" viewBox="0 0 24 24" fill="none" xmlns="http://www.w3.org/2000/svg">
<path d="M12 1.25C17.9371 1.25 22.75 6.06294 22.75 12C22.75 17.9371 17.9371 22.75 12 22.75C6.06294 22.75 1.25 17.9371 1.25 12C1.25 6.06294 6.06294 1.25 12 1.25ZM12 2.75C6.89137 2.75 2.75 6.89137 2.75 12C2.75 17.1086 6.89137 21.25 12 21.25C17.1086 21.25 21.25 17.1086 21.25 12C21.25 6.89137 17.1086 2.75 12 2.75ZM10.9648 5.36914C11.4594 5.12112 11.9268 5.30951 12.21 5.46387C12.4871 5.6149 12.8105 5.85769 13.1553 6.11719C13.169 6.12749 13.1826 6.13808 13.1963 6.14844L14.6514 7.24316C14.6627 7.2517 14.6742 7.26002 14.6855 7.26855C14.9219 7.44625 15.1605 7.62582 15.333 7.7998C15.5273 7.99576 15.75 8.29464 15.75 8.71777C15.7499 9.14094 15.5273 9.43982 15.333 9.63574C15.1606 9.80968 14.9219 9.98835 14.6855 10.166C14.6741 10.1746 14.6628 10.1837 14.6514 10.1924L12.248 12L14.6514 13.8076C14.6628 13.8163 14.6741 13.8254 14.6855 13.834C14.9219 14.0116 15.1606 14.1903 15.333 14.3643C15.5273 14.5601 15.7499 14.859 15.75 15.2822C15.75 15.7054 15.5273 16.0043 15.333 16.2002C15.1605 16.3742 14.9219 16.5537 14.6855 16.7314C14.6742 16.74 14.6627 16.7483 14.6514 16.7568L13.1963 17.8516C13.1827 17.8618 13.1688 17.8717 13.1553 17.8818C12.8104 18.1413 12.4871 18.3851 12.21 18.5361C11.9268 18.6905 11.4594 18.8789 10.9648 18.6309C10.4714 18.3833 10.3426 17.8971 10.2959 17.5781C10.2502 17.2655 10.2499 16.8603 10.25 16.4277V13.6016L8.48047 15.0762C8.16233 15.3412 7.68904 15.2985 7.42383 14.9805C7.15872 14.6623 7.20151 14.1891 7.51953 13.9238L9.82812 12L7.51953 10.0762C7.20151 9.81093 7.15872 9.33767 7.42383 9.01953C7.68904 8.7015 8.16232 8.65871 8.48047 8.92383L10.25 10.3984V7.57227C10.2499 7.13967 10.2502 6.73446 10.2959 6.42188C10.3426 6.10295 10.4714 5.61672 10.9648 5.36914ZM11.75 16.377C11.75 16.6627 11.7502 16.8804 11.7559 17.0498C11.894 16.953 12.0679 16.823 12.2949 16.6523L13.749 15.5586C13.8848 15.4565 13.9925 15.3746 14.083 15.3027C14.0919 15.2956 14.1011 15.2889 14.1094 15.2822C14.1011 15.2755 14.0919 15.2688 14.083 15.2617C13.9926 15.1899 13.8847 15.1088 13.749 15.0068L11.75 13.5029V16.377ZM11.75 7.62305V10.4971L13.749 8.99316C13.8847 8.89118 13.9926 8.81019 14.083 8.73828C14.0919 8.73118 14.1011 8.72444 14.1094 8.71777C14.1011 8.71109 14.0919 8.70437 14.083 8.69727C13.9925 8.6253 13.8848 8.54349 13.749 8.44141L12.2949 7.34766C12.0679 7.17692 11.894 7.04708 11.7559 6.9502C11.7502 7.11961 11.75 7.33726 11.75 7.62305Z" fill="#1C274C"/>
</svg>
