<svg width="24" height="24" viewBox="0 0 24 24" fill="none" xmlns="http://www.w3.org/2000/svg">
<path d="M6.5 13C8.62132 13 9.6818 13.0002 10.3408 13.6592C10.9998 14.3182 11 15.3787 11 17.5C11 19.6213 10.9998 20.6818 10.3408 21.3408C9.6818 21.9998 8.62132 22 6.5 22C4.37868 22 3.31819 21.9998 2.65918 21.3408C2.00017 20.6818 2 19.6213 2 17.5C2 15.3787 2.00017 14.3182 2.65918 13.6592C3.31819 13.0002 4.37868 13 6.5 13ZM17.3662 12.7314C19.9252 12.7316 21.9998 14.8061 22 17.3652C22 19.9244 19.9254 21.9998 17.3662 22C14.8068 22 12.7314 19.9245 12.7314 17.3652C12.7317 14.806 14.8069 12.7314 17.3662 12.7314ZM6.63379 2C9.19304 2 11.2684 4.07458 11.2686 6.63379C11.2686 9.19316 9.19316 11.2686 6.63379 11.2686C4.07458 11.2684 2 9.19304 2 6.63379C2.0002 4.07471 4.07471 2.0002 6.63379 2ZM17.5 2C19.6213 2 20.6818 2.00017 21.3408 2.65918C21.9998 3.31819 22 4.37868 22 6.5C22 8.62132 21.9998 9.6818 21.3408 10.3408C20.6818 10.9998 19.6213 11 17.5 11C15.3787 11 14.3182 10.9998 13.6592 10.3408C13.0002 9.6818 13 8.62132 13 6.5C13 4.37868 13.0002 3.31819 13.6592 2.65918C14.3182 2.00017 15.3787 2 17.5 2Z" fill="#48465C"/>
</svg>
