<svg width="24" height="24" viewBox="0 0 24 24" fill="none" xmlns="http://www.w3.org/2000/svg">
<path d="M12 2C16.714 2 19.0708 2.00037 20.5352 3.46484C21.9996 4.9293 22 7.28597 22 12C22 16.714 21.9997 19.0708 20.5352 20.5352C19.0708 21.9997 16.714 22 12 22C7.28597 22 4.9293 21.9996 3.46484 20.5352C2.00037 19.0708 2 16.714 2 12C2 7.28595 2.00037 4.9293 3.46484 3.46484C4.9293 2.00037 7.28595 2 12 2ZM8 13.25C7.58579 13.25 7.25 13.5858 7.25 14V19C7.25 19.4142 7.58579 19.75 8 19.75C8.41421 19.75 8.75 19.4142 8.75 19V14C8.75 13.5858 8.41421 13.25 8 13.25ZM16 17.25C15.5858 17.25 15.25 17.5858 15.25 18V19C15.25 19.4142 15.5858 19.75 16 19.75C16.4142 19.75 16.75 19.4142 16.75 19V18C16.75 17.5858 16.4142 17.25 16 17.25ZM16 11.25C14.4812 11.25 13.25 12.4812 13.25 14C13.25 15.5188 14.4812 16.75 16 16.75C17.5188 16.75 18.75 15.5188 18.75 14C18.75 12.4812 17.5188 11.25 16 11.25ZM16 12.75C16.6904 12.75 17.25 13.3096 17.25 14C17.25 14.6904 16.6904 15.25 16 15.25C15.3096 15.25 14.75 14.6904 14.75 14C14.75 13.3096 15.3096 12.75 16 12.75ZM8 7.25C6.48122 7.25 5.25 8.48122 5.25 10C5.25 11.5188 6.48122 12.75 8 12.75C9.51878 12.75 10.75 11.5188 10.75 10C10.75 8.48122 9.51878 7.25 8 7.25ZM8 8.75C8.69036 8.75 9.25 9.30964 9.25 10C9.25 10.6904 8.69036 11.25 8 11.25C7.30964 11.25 6.75 10.6904 6.75 10C6.75 9.30964 7.30964 8.75 8 8.75ZM16 4.25C15.5858 4.25 15.25 4.58579 15.25 5V10C15.25 10.4142 15.5858 10.75 16 10.75C16.4142 10.75 16.75 10.4142 16.75 10V5C16.75 4.58579 16.4142 4.25 16 4.25ZM8 4.25C7.58579 4.25 7.25 4.58579 7.25 5V6C7.25 6.41421 7.58579 6.75 8 6.75C8.41421 6.75 8.75 6.41421 8.75 6V5C8.75 4.58579 8.41421 4.25 8 4.25Z" fill="#1C274C"/>
</svg>
