<svg width="24" height="24" viewBox="0 0 24 24" fill="none" xmlns="http://www.w3.org/2000/svg">
<path d="M15.9893 9.35156C16.6623 9.26317 17.4833 9.73776 19.125 10.6855C20.7668 11.6335 21.5878 12.1072 21.8477 12.7344C22.0506 13.2245 22.0506 13.7755 21.8477 14.2656C21.5877 14.8926 20.7666 15.3667 19.125 16.3145C17.4833 17.2623 16.6623 17.7359 15.9893 17.6475C15.4635 17.5782 14.986 17.3035 14.6631 16.8828C14.2498 16.3442 14.25 15.3958 14.25 13.5C14.25 11.6041 14.2499 10.6558 14.6631 10.1172C14.986 9.69638 15.4635 9.42079 15.9893 9.35156ZM10 15.25C10.4142 15.25 10.75 15.5858 10.75 16C10.75 16.4142 10.4142 16.75 10 16.75H3C2.58579 16.75 2.25 16.4142 2.25 16C2.25 15.5858 2.58579 15.25 3 15.25H10ZM10 10.25C10.4142 10.25 10.75 10.5858 10.75 11C10.75 11.4142 10.4142 11.75 10 11.75H3C2.58579 11.75 2.25 11.4142 2.25 11C2.25 10.5858 2.58579 10.25 3 10.25H10ZM20 5.25C20.4142 5.25 20.75 5.58579 20.75 6C20.75 6.41421 20.4142 6.75 20 6.75H3C2.58579 6.75 2.25 6.41421 2.25 6C2.25 5.58579 2.58579 5.25 3 5.25H20Z" fill="#48465C"/>
</svg>
