<svg width="24" height="24" viewBox="0 0 24 24" fill="none" xmlns="http://www.w3.org/2000/svg">
<path d="M12.5732 18.75C12.3516 19.8712 12.6388 21.0723 13.3848 22H8.95703C8.38592 22 8.09979 22 7.8291 21.9629C7.02644 21.8526 6.27627 21.501 5.67773 20.9551C5.47589 20.7709 5.29237 20.551 4.92676 20.1123C4.58999 19.7081 4.33888 19.2447 4.18359 18.75H12.5732ZM15.6094 17.5049L15.6211 17.5078C15.6364 17.5119 15.6648 17.5206 15.7051 17.5342C15.7858 17.5615 15.9134 17.6099 16.0752 17.6904C16.3979 17.8509 16.8598 18.139 17.3604 18.6396C17.861 19.1403 18.1491 19.6021 18.3096 19.9248C18.39 20.0865 18.4385 20.2141 18.4658 20.2949C18.4794 20.3352 18.488 20.3637 18.4922 20.3789L18.4951 20.3906L18.5947 20.8604L18.1221 21.333C17.2063 22.2488 15.6903 22.2177 14.7363 21.2637C13.7824 20.3097 13.7512 18.7937 14.667 17.8779L15.1396 17.4053L15.6094 17.5049ZM16.8779 15.667C17.7937 14.7512 19.3097 14.7823 20.2637 15.7363C21.2177 16.6903 21.2488 18.2063 20.333 19.1221L19.8213 19.6338C19.7781 19.5242 19.7223 19.3976 19.6523 19.2568C19.426 18.802 19.0462 18.2044 18.4209 17.5791C17.7956 16.9537 17.1979 16.5739 16.7432 16.3477C16.6024 16.2777 16.4757 16.2218 16.3662 16.1787L16.8779 15.667ZM20 10.9082V13.7959C18.6118 13.23 16.9605 13.4634 15.8174 14.6064L13.6064 16.8174C13.4692 16.9546 13.3455 17.0995 13.2344 17.25H4V10.9229C4 10.8653 4.00144 10.8074 4.00391 10.75H19.9971C19.9992 10.8027 20 10.8553 20 10.9082ZM12 11.25C11.5858 11.25 11.25 11.5858 11.25 12V13.25H10C9.58579 13.25 9.25 13.5858 9.25 14C9.25 14.4142 9.58579 14.75 10 14.75H11.25V16C11.25 16.4142 11.5858 16.75 12 16.75C12.4142 16.75 12.75 16.4142 12.75 16V14.75H14C14.4142 14.75 14.75 14.4142 14.75 14C14.75 13.5858 14.4142 13.25 14 13.25H12.75V12C12.75 11.5858 12.4142 11.25 12 11.25ZM18.5166 7.79883C19.0044 8.19372 19.3857 8.69277 19.6396 9.25H4.36621C4.62326 8.69157 5.00882 8.19258 5.50098 7.79883L7.75 6H16.2939L18.5166 7.79883ZM16.5 2C16.9659 2 17.199 2.00005 17.3828 2.07617C17.6277 2.17766 17.8223 2.37226 17.9238 2.61719C17.9999 2.80096 18 3.03406 18 3.5C18 3.96594 17.9999 4.19904 17.9238 4.38281C17.8223 4.62774 17.6277 4.82234 17.3828 4.92383C17.199 4.99995 16.9659 5 16.5 5H7.5C7.03406 5 6.80096 4.99995 6.61719 4.92383C6.37226 4.82234 6.17766 4.62774 6.07617 4.38281C6.00005 4.19904 6 3.96594 6 3.5C6 3.03406 6.00005 2.80096 6.07617 2.61719C6.17766 2.37226 6.37226 2.17766 6.61719 2.07617C6.80096 2.00005 7.03406 2 7.5 2H16.5Z" fill="#1C274C"/>
</svg>
