<svg width="24" height="24" viewBox="0 0 24 24" fill="none" xmlns="http://www.w3.org/2000/svg">
<path d="M12 2C14.9603 2 16.9911 1.99966 18.4551 2.3623L15.25 5.56836V5C15.25 3.75736 14.2426 2.75 13 2.75C11.7574 2.75 10.75 3.75736 10.75 5V11C10.75 12.2426 11.7574 13.25 13 13.25H19C20.2426 13.25 21.25 12.2426 21.25 11C21.25 9.75736 20.2426 8.75 19 8.75H18.4316L21.6377 5.54492C22.0003 7.00889 22 9.03975 22 12C22 16.714 21.9997 19.0708 20.5352 20.5352C19.0708 21.9997 16.714 22 12 22C7.28598 22 4.9293 21.9996 3.46484 20.5352C2.00037 19.0708 2 16.714 2 12C2 7.28596 2.00037 4.9293 3.46484 3.46484C4.9293 2.00037 7.28596 2 12 2ZM20.4697 2.46973C20.7626 2.17684 21.2374 2.17684 21.5303 2.46973C21.8232 2.76261 21.8232 3.23739 21.5303 3.53027L14.8105 10.25H19C19.4142 10.25 19.75 10.5858 19.75 11C19.75 11.4142 19.4142 11.75 19 11.75H13C12.5858 11.75 12.25 11.4142 12.25 11V5C12.25 4.58579 12.5858 4.25 13 4.25C13.4142 4.25 13.75 4.58579 13.75 5V9.18945L20.4697 2.46973Z" fill="#1C274C"/>
</svg>
