<svg width="24" height="24" viewBox="0 0 24 24" fill="none" xmlns="http://www.w3.org/2000/svg">
<path d="M12 1.25C17.9371 1.25 22.75 6.06294 22.75 12C22.75 17.9371 17.9371 22.75 12 22.75C6.06294 22.75 1.25 17.9371 1.25 12C1.25 6.06294 6.06294 1.25 12 1.25ZM12 2.75C6.89137 2.75 2.75 6.89137 2.75 12C2.75 17.1086 6.89137 21.25 12 21.25C17.1086 21.25 21.25 17.1086 21.25 12C21.25 6.89137 17.1086 2.75 12 2.75ZM16 8.75C17.7949 8.75 19.25 10.2051 19.25 12C19.25 13.7949 17.7949 15.25 16 15.25H8C6.20507 15.25 4.75 13.7949 4.75 12C4.75 10.2051 6.20507 8.75 8 8.75C9.79493 8.75 11.25 10.2051 11.25 12C11.25 12.6443 11.0626 13.2449 10.7393 13.75H13.2607C12.9374 13.2449 12.75 12.6443 12.75 12C12.75 10.2051 14.2051 8.75 16 8.75ZM8 10.25C7.0335 10.25 6.25 11.0335 6.25 12C6.25 12.9665 7.0335 13.75 8 13.75C8.9665 13.75 9.75 12.9665 9.75 12C9.75 11.0335 8.9665 10.25 8 10.25ZM16 10.25C15.0335 10.25 14.25 11.0335 14.25 12C14.25 12.9665 15.0335 13.75 16 13.75C16.9665 13.75 17.75 12.9665 17.75 12C17.75 11.0335 16.9665 10.25 16 10.25Z" fill="#1C274C"/>
</svg>
