<svg width="24" height="24" viewBox="0 0 24 24" fill="none" xmlns="http://www.w3.org/2000/svg">
<path d="M11.9998 1.25C12.9556 1.25 13.8556 1.50709 14.5378 1.96191C15.0097 2.27655 15.4131 2.71493 15.614 3.25H15.9998C16.4776 3.25 16.9365 3.44696 17.2488 3.79102C17.573 4.1484 17.734 4.66782 17.5623 5.21094C16.9565 7.12498 15.0131 8.46514 12.7498 8.70996V21.25H14.9998C15.414 21.25 15.7498 21.5858 15.7498 22C15.7498 22.4142 15.414 22.75 14.9998 22.75H8.99976C8.58569 22.7498 8.24976 22.4141 8.24976 22C8.24976 21.5859 8.58569 21.2502 8.99976 21.25H11.2498V17.9365C11.2497 16.8902 10.7704 15.905 9.95483 15.2666L6.63257 12.8926C5.58919 13.863 4.10256 14.1558 2.79077 13.6963C2.23721 13.5022 1.92075 13.0431 1.83862 12.5596C1.79812 12.3208 1.8132 12.0752 1.87769 11.8408C1.06798 10.8418 1.02523 9.37798 1.84839 8.32422C2.67283 7.26917 4.09812 6.96676 5.25366 7.52539C5.46406 7.40907 5.69729 7.33829 5.93726 7.32227C6.43077 7.28936 6.94849 7.497 7.26245 7.99121C7.9577 9.08594 8.06184 10.4815 7.51245 11.6768L10.8513 14.0635L10.863 14.0732C10.9983 14.1783 11.1275 14.2898 11.2498 14.4072V8.70996C8.98643 8.46505 7.04284 7.125 6.43726 5.21094C6.26541 4.66775 6.42735 4.14841 6.75171 3.79102C7.06391 3.44703 7.52203 3.25009 7.99976 3.25H8.38647C8.58743 2.71483 8.99073 2.27656 9.46265 1.96191C10.1448 1.50714 11.0441 1.25006 11.9998 1.25ZM5.98022 8.83789C5.95368 8.85236 5.9257 8.8741 5.9021 8.9043L3.37085 12.1465C3.3472 12.1768 3.33123 12.2097 3.323 12.2412C3.31773 12.2613 3.31611 12.2783 3.31616 12.291C4.2141 12.592 5.24244 12.3142 5.86401 11.5186C5.88151 11.4962 5.89826 11.4729 5.91479 11.4502C6.48738 10.6611 6.50222 9.61753 6.01343 8.82324C6.00414 8.82614 5.99287 8.83102 5.98022 8.83789ZM4.11792 8.75195C3.71226 8.72919 3.30199 8.89989 3.03003 9.24805C2.75789 9.59648 2.68874 10.0404 2.80347 10.4355L4.11792 8.75195ZM7.99976 4.75C7.96522 4.75004 7.93422 4.75763 7.90894 4.76855C7.89526 4.77448 7.88452 4.78047 7.87671 4.78613C8.315 6.11742 9.915 7.24988 11.9998 7.25C14.0847 7.25 15.6854 6.11749 16.1238 4.78613C16.1159 4.78051 16.1051 4.77444 16.0916 4.76855C16.0663 4.75759 16.0345 4.75 15.9998 4.75H7.99976ZM11.9998 2.75C11.2989 2.75006 10.6982 2.94096 10.2947 3.20996C10.2748 3.22322 10.2556 3.23665 10.2371 3.25H13.7634C13.7449 3.23665 13.7257 3.22322 13.7058 3.20996C13.3022 2.94092 12.7008 2.75 11.9998 2.75Z" fill="#48465C"/>
</svg>
