<svg width="24" height="24" viewBox="0 0 24 24" fill="none" xmlns="http://www.w3.org/2000/svg">
<path d="M11.9996 1.25C13.3086 1.25 14.4047 2.16461 14.6823 3.38965C14.8979 3.48221 15.0926 3.61879 15.2496 3.79297C15.5749 4.15385 15.7337 4.68121 15.5446 5.22754C15.1159 6.46528 14.0564 7.40959 12.7496 7.6748V13.4072C12.8719 13.2898 13.0011 13.1783 13.1364 13.0732L13.1481 13.0635L16.4879 10.6768C15.9384 9.48138 16.0425 8.086 16.7379 6.99121C17.0519 6.49696 17.5695 6.28932 18.0631 6.32227C18.3031 6.33832 18.5363 6.40901 18.7467 6.52539C19.9023 5.96682 21.3276 6.26908 22.152 7.32422C22.9752 8.37798 22.9324 9.84186 22.1227 10.8408C22.1871 11.0751 22.2022 11.3208 22.1617 11.5596C22.0795 12.0432 21.7624 12.5023 21.2086 12.6963C19.8968 13.1558 18.4102 12.8632 17.3668 11.8926L14.0455 14.2666C13.2299 14.905 12.7497 15.8902 12.7496 16.9365V21.25H14.9996C15.4138 21.25 15.7496 21.5858 15.7496 22C15.7496 22.4142 15.4138 22.75 14.9996 22.75H8.99963C8.58557 22.7498 8.24963 22.4141 8.24963 22C8.24963 21.5859 8.58557 21.2502 8.99963 21.25H11.2496V16.9365C11.2495 15.8902 10.7703 14.905 9.95471 14.2666L6.63245 11.8926C5.58907 12.863 4.10244 13.1558 2.79065 12.6963C2.23709 12.5022 1.92062 12.0431 1.8385 11.5596C1.79799 11.3208 1.81308 11.0752 1.87756 10.8408C1.06785 9.84186 1.02511 8.37798 1.84827 7.32422C2.67271 6.26917 4.098 5.96676 5.25354 6.52539C5.46394 6.40907 5.69717 6.33829 5.93713 6.32227C6.43065 6.28936 6.94836 6.497 7.26233 6.99121C7.95758 8.08594 8.06172 9.48146 7.51233 10.6768L10.8512 13.0635L10.8629 13.0732C10.9982 13.1783 11.1274 13.2898 11.2496 13.4072V7.6748C9.94312 7.4095 8.88427 6.46513 8.45569 5.22754C8.26654 4.68121 8.42533 4.15385 8.75061 3.79297C8.90768 3.61879 9.10231 3.48219 9.31799 3.38965C9.59558 2.16472 10.6908 1.25015 11.9996 1.25ZM5.9801 7.83789C5.95356 7.85236 5.92558 7.8741 5.90198 7.9043L3.37073 11.1465C3.34708 11.1768 3.3311 11.2097 3.32288 11.2412C3.3176 11.2613 3.31599 11.2783 3.31604 11.291C4.21398 11.592 5.24231 11.3142 5.86389 10.5186C5.88139 10.4962 5.89814 10.4729 5.91467 10.4502C6.48726 9.66108 6.5021 8.61753 6.01331 7.82324C6.00402 7.82614 5.99275 7.83102 5.9801 7.83789ZM17.986 7.82324C17.4972 8.61755 17.5129 9.66109 18.0856 10.4502C18.1021 10.4729 18.1189 10.4962 18.1364 10.5186C18.758 11.3141 19.7863 11.592 20.6842 11.291C20.6843 11.2783 20.6826 11.2613 20.6774 11.2412C20.6691 11.2098 20.653 11.1767 20.6295 11.1465L18.0973 7.9043C18.0737 7.87421 18.0457 7.8523 18.0192 7.83789C18.0066 7.83107 17.9952 7.82612 17.986 7.82324ZM4.1178 7.75195C3.71214 7.72919 3.30187 7.89989 3.02991 8.24805C2.75777 8.59647 2.68862 9.0404 2.80334 9.43555L4.1178 7.75195ZM21.1969 9.43555C21.3115 9.04048 21.2423 8.59642 20.9703 8.24805C20.6983 7.89978 20.2873 7.72906 19.8815 7.75195L21.1969 9.43555ZM9.99963 4.75C9.96548 4.75004 9.93408 4.75761 9.90881 4.76855C9.90087 4.77203 9.89407 4.77584 9.88831 4.7793C10.2056 5.63872 11.0322 6.24987 11.9996 6.25C12.9672 6.25 13.7947 5.63886 14.1119 4.7793C14.106 4.77578 14.0986 4.77208 14.0905 4.76855C14.0651 4.7576 14.0339 4.75 13.9996 4.75H9.99963ZM11.9996 2.75C11.5908 2.7501 11.2277 2.94647 10.9996 3.25H12.9996C12.7715 2.9465 12.4085 2.75 11.9996 2.75Z" fill="#1C274C"/>
</svg>
