<svg width="24" height="24" viewBox="0 0 24 24" fill="none" xmlns="http://www.w3.org/2000/svg">
<path d="M12.75 2C15.5784 2 16.9924 2.00023 17.8711 2.87891C18.7498 3.75759 18.75 5.17158 18.75 8V16C18.75 18.8284 18.7498 20.2424 17.8711 21.1211C16.9924 21.9998 15.5784 22 12.75 22H10.75C7.92158 22 6.50759 21.9998 5.62891 21.1211C4.75023 20.2424 4.75 18.8284 4.75 16V8C4.75 5.17157 4.75023 3.75759 5.62891 2.87891C6.50759 2.00023 7.92157 2 10.75 2H12.75ZM3.37305 4.50879C3.24973 5.4262 3.24992 6.57181 3.25 7.90137V16.0986C3.24992 17.4284 3.2497 18.5747 3.37305 19.4922C3.37905 19.5367 3.38587 19.5815 3.39258 19.626C3.09655 19.5029 2.84618 19.3392 2.62891 19.1221C1.75023 18.2434 1.75 16.8284 1.75 14V10C1.75 7.17179 1.75027 5.75754 2.62891 4.87891C2.8462 4.66166 3.09651 4.49809 3.39258 4.375C3.38587 4.41944 3.37905 4.46417 3.37305 4.50879ZM20.1074 4.375C20.4036 4.49809 20.6538 4.66165 20.8711 4.87891C21.7498 5.75754 21.75 7.17179 21.75 10V14C21.75 16.8284 21.7498 18.2434 20.8711 19.1221C20.6539 19.3392 20.4035 19.5029 20.1074 19.626C20.1141 19.5815 20.121 19.5367 20.127 19.4922C20.2503 18.5747 20.2501 17.4284 20.25 16.0986V7.90137C20.2501 6.57182 20.2502 5.4262 20.127 4.50879C20.121 4.46417 20.1141 4.41944 20.1074 4.375ZM8.75 16.25C8.33579 16.25 8 16.5858 8 17C8 17.4142 8.33579 17.75 8.75 17.75H11.75C12.1642 17.75 12.5 17.4142 12.5 17C12.5 16.5858 12.1642 16.25 11.75 16.25H8.75ZM8.75 12.25C8.33579 12.25 8 12.5858 8 13C8 13.4142 8.33579 13.75 8.75 13.75H14.75C15.1642 13.75 15.5 13.4142 15.5 13C15.5 12.5858 15.1642 12.25 14.75 12.25H8.75ZM8.75 8.25C8.33579 8.25 8 8.58579 8 9C8 9.41421 8.33579 9.75 8.75 9.75H14.75C15.1642 9.75 15.5 9.41421 15.5 9C15.5 8.58579 15.1642 8.25 14.75 8.25H8.75Z" fill="#48465C"/>
</svg>
