<svg width="24" height="24" viewBox="0 0 24 24" fill="none" xmlns="http://www.w3.org/2000/svg">
<path d="M21.9873 9.75C22.0002 10.4153 22 11.161 22 12V14C22 17.7712 21.9997 19.6566 20.8281 20.8281C19.6566 21.9997 17.7712 22 14 22H10C6.22878 22 4.34346 21.9997 3.17188 20.8281C2.00031 19.6566 2 17.7712 2 14V12C2 11.161 1.9998 10.4153 2.0127 9.75H21.9873ZM7 16C6.44772 16 6 16.4477 6 17C6 17.5523 6.44772 18 7 18C7.55228 18 8 17.5523 8 17C8 16.4477 7.55228 16 7 16ZM12 16C11.4477 16 11 16.4477 11 17C11 17.5523 11.4477 18 12 18C12.5523 18 13 17.5523 13 17C13 16.4477 12.5523 16 12 16ZM17 16C16.4477 16 16 16.4477 16 17C16 17.5523 16.4477 18 17 18C17.5523 18 18 17.5523 18 17C18 16.4477 17.5523 16 17 16ZM7 12C6.44772 12 6 12.4477 6 13C6 13.5523 6.44772 14 7 14C7.55228 14 8 13.5523 8 13C8 12.4477 7.55228 12 7 12ZM12 12C11.4477 12 11 12.4477 11 13C11 13.5523 11.4477 14 12 14C12.5523 14 13 13.5523 13 13C13 12.4477 12.5523 12 12 12ZM17 12C16.4477 12 16 12.4477 16 13C16 13.5523 16.4477 14 17 14C17.5523 14 18 13.5523 18 13C18 12.4477 17.5523 12 17 12ZM17 1.75C17.4142 1.75 17.75 2.08579 17.75 2.5V4.0791C19.1893 4.19435 20.1339 4.47768 20.8281 5.17188C21.5223 5.86607 21.8057 6.81068 21.9209 8.25H2.0791C2.19435 6.81067 2.47768 5.86607 3.17188 5.17188C3.86607 4.47768 4.81067 4.19435 6.25 4.0791V2.5C6.25 2.08579 6.58579 1.75 7 1.75C7.41421 1.75 7.75 2.08579 7.75 2.5V4.0127C8.41527 3.9998 9.16097 4 10 4H14C14.839 4 15.5847 3.9998 16.25 4.0127V2.5C16.25 2.08579 16.5858 1.75 17 1.75Z" fill="#1C274C"/>
</svg>
