<svg width="24" height="24" viewBox="0 0 24 24" fill="none" xmlns="http://www.w3.org/2000/svg">
<path d="M2 14.25C2.41421 14.25 2.75 14.5858 2.75 15C2.75 16.9188 2.7534 18.001 2.88574 18.7598C3.0032 19.4329 3.21502 19.8108 3.70215 20.2979C4.12536 20.7211 4.70485 20.9752 5.71094 21.1104C6.7386 21.2485 8.09325 21.25 10 21.25C10.4142 21.25 10.75 21.5858 10.75 22C10.75 22.4142 10.4142 22.75 10 22.75H9.94336C8.10571 22.75 6.64992 22.7498 5.51074 22.5967C4.33845 22.439 3.38991 22.1066 2.6416 21.3584C1.95718 20.6739 1.58265 20.0229 1.40723 19.0176C1.24962 18.114 1.24995 16.8953 1.25 15.0967V15C1.25 14.5858 1.58579 14.25 2 14.25ZM22 14.25C22.4142 14.25 22.75 14.5858 22.75 15V15.0967C22.7501 16.8954 22.7504 18.114 22.5928 19.0176C22.4174 20.0229 22.0428 20.6739 21.3584 21.3584C20.6101 22.1066 19.6616 22.439 18.4893 22.5967C17.3501 22.7498 15.8943 22.75 14.0566 22.75H14C13.5858 22.75 13.25 22.4142 13.25 22C13.25 21.5858 13.5858 21.25 14 21.25C15.9067 21.25 17.2614 21.2485 18.2891 21.1104C19.2951 20.9752 19.8747 20.7211 20.2979 20.2979C20.785 19.8108 20.9969 19.4329 21.1143 18.7598C21.2466 18.001 21.25 16.9188 21.25 15C21.25 14.5858 21.5858 14.25 22 14.25ZM12 7C14.9273 7 16.9194 8.56244 18.1074 9.94043C18.7023 10.6305 19 10.9754 19 12C19 13.0246 18.7023 13.3695 18.1074 14.0596C16.9194 15.4376 14.9273 17 12 17C9.07269 17 7.08053 15.4376 5.89258 14.0596C5.29766 13.3695 5 13.0246 5 12C5 10.9754 5.29766 10.6305 5.89258 9.94043C7.08053 8.56245 9.07269 7 12 7ZM12 9.25C10.4812 9.25 9.25 10.4812 9.25 12C9.25 13.5188 10.4812 14.75 12 14.75C13.5188 14.75 14.75 13.5188 14.75 12C14.75 10.4812 13.5188 9.25 12 9.25ZM12 10.75C12.6904 10.75 13.25 11.3096 13.25 12C13.25 12.6904 12.6904 13.25 12 13.25C11.3096 13.25 10.75 12.6904 10.75 12C10.75 11.3096 11.3096 10.75 12 10.75ZM10 1.25C10.4142 1.25 10.75 1.58579 10.75 2C10.75 2.41421 10.4142 2.75 10 2.75C8.09325 2.75 6.7386 2.75149 5.71094 2.88965C4.70485 3.02492 4.12536 3.27894 3.70215 3.70215C3.21502 4.18929 3.0032 4.56706 2.88574 5.24023C2.7534 5.99898 2.75 7.08118 2.75 9C2.75 9.41421 2.41421 9.75 2 9.75C1.58579 9.74999 1.25 9.41421 1.25 9V8.90332C1.24995 7.10469 1.24962 5.88602 1.40723 4.98242C1.58265 3.97709 1.95717 3.32604 2.6416 2.6416C3.38991 1.8933 4.33844 1.56095 5.51074 1.40332C6.64991 1.25016 8.10572 1.24998 9.94336 1.25H10ZM14.0566 1.25C15.8943 1.24998 17.3501 1.25016 18.4893 1.40332C19.6616 1.56095 20.6101 1.89332 21.3584 2.6416C22.0428 3.32604 22.4174 3.97708 22.5928 4.98242C22.7504 5.88603 22.7501 7.10465 22.75 8.90332V9C22.75 9.41421 22.4142 9.75 22 9.75C21.5858 9.75 21.25 9.41421 21.25 9C21.25 7.08118 21.2466 5.99898 21.1143 5.24023C20.9969 4.56705 20.785 4.18929 20.2979 3.70215C19.8747 3.27894 19.2951 3.02492 18.2891 2.88965C17.2614 2.7515 15.9067 2.75 14 2.75C13.5858 2.75 13.25 2.41421 13.25 2C13.25 1.58579 13.5858 1.25 14 1.25H14.0566Z" fill="#1C274C"/>
</svg>
