<svg width="24" height="24" viewBox="0 0 24 24" fill="none" xmlns="http://www.w3.org/2000/svg">
<path d="M11.25 21.9648C7.18341 21.5799 4 18.0964 4 13.8564C4.00006 9.39434 6.55338 4.18721 10.5371 2.3252C10.7675 2.2175 11.0066 2.13628 11.25 2.08203V21.9648ZM19.9375 12.623C19.979 13.0382 20 13.4504 20 13.8564C20 18.0964 16.8166 21.5799 12.75 21.9648V19.8105L19.9375 12.623ZM18.9365 8.62402C19.2247 9.33613 19.4579 10.07 19.6318 10.8076L12.75 17.6895V14.8105L18.9365 8.62402ZM16.9199 5.14062C17.4221 5.7681 17.8708 6.45487 18.2598 7.17969L12.75 12.6895V9.31055L16.9199 5.14062ZM12.75 2.08203C12.9934 2.13628 13.2325 2.2175 13.4629 2.3252C14.3538 2.74161 15.173 3.32602 15.9082 4.03125L12.75 7.18945V2.08203Z" fill="#1C274C"/>
</svg>
