<svg width="24" height="24" viewBox="0 0 24 24" fill="none" xmlns="http://www.w3.org/2000/svg">
<path d="M20.9021 15.0574C20.8554 15.7792 20.7918 16.5007 20.7117 17.2205L20.6951 17.3738C20.4476 19.5949 18.7042 21.3572 16.4802 21.6345L15.574 21.7468C15.0793 21.8085 14.8318 21.8402 14.5847 21.866C12.8662 22.0454 11.1332 22.0454 9.41479 21.866C9.16773 21.8402 8.92021 21.8085 8.42553 21.7468L7.40991 21.6208C5.24852 21.3513 3.55275 19.6418 3.30542 17.4841C3.21375 16.6844 3.1429 15.8824 3.09253 15.0798C4.31051 15.9552 6.86287 17.2497 11.9998 17.2498C15.15 17.2498 17.3249 16.7708 18.823 16.1843C19.7766 15.811 20.4434 15.3992 20.9021 15.0574ZM11.9998 14.2498C12.8241 14.2498 13.3849 14.4177 13.7898 14.7058C14.074 14.908 14.3257 15.2014 14.5398 15.6277C13.7871 15.7054 12.9433 15.7498 11.9998 15.7498C11.0595 15.7497 10.2166 15.7042 9.46167 15.6257C9.67558 15.2001 9.92684 14.9078 10.2107 14.7058C10.6155 14.4178 11.1756 14.2498 11.9998 14.2498ZM7.45483 2.42163C10.4587 1.86012 13.5408 1.86013 16.5447 2.42163L16.8679 2.4812C18.8932 2.85982 20.4368 4.50813 20.6775 6.54858C20.9299 8.6879 21.034 10.8406 20.99 12.991L20.4929 13.448C20.1953 13.7215 19.5595 14.2845 18.2761 14.7869C17.6939 15.0148 16.972 15.2325 16.0808 15.4031C15.7601 14.5965 15.3047 13.9426 14.6589 13.4832C13.9211 12.9583 13.022 12.7498 11.9998 12.7498C10.9777 12.7498 10.0793 12.9584 9.34155 13.4832C8.69629 13.9422 8.24138 14.5956 7.92065 15.4011C5.13051 14.8661 3.92932 13.8646 3.49292 13.4841L3.00952 13.0623C2.96839 10.9708 3.06683 8.87729 3.30542 6.79565L3.32104 6.65796C3.56236 4.55369 5.15117 2.85215 7.23901 2.46167L7.45483 2.42163ZM8.56909 3.92261C8.2991 3.60862 7.82554 3.5727 7.51147 3.84253C7.04454 4.244 6.74985 4.84174 6.74975 5.41089C6.74975 6.42456 7.517 7.12182 8.40307 7.52612C9.31377 7.94166 10.5555 8.16086 11.9998 8.16089C13.4439 8.16089 14.6857 7.94156 15.5964 7.52612C16.4825 7.12182 17.2498 6.42457 17.2498 5.41089C17.2496 4.7876 16.9046 4.28882 16.489 3.9314C16.175 3.66139 15.7015 3.69659 15.4314 4.0105C15.1614 4.32458 15.1974 4.79807 15.5115 5.06812C15.7355 5.26079 15.7497 5.38036 15.7498 5.41089C15.7498 5.55067 15.648 5.85454 14.9744 6.16187C14.3255 6.45794 13.3167 6.66089 11.9998 6.66089C10.6832 6.66086 9.67499 6.45782 9.02612 6.16187C8.35256 5.85454 8.24975 5.55067 8.24975 5.41089C8.24982 5.379 8.26077 5.30926 8.30444 5.21948C8.33626 5.15413 8.38035 5.09044 8.43335 5.03394L8.54467 4.92651C8.80603 4.65095 8.8218 4.21696 8.56909 3.92261Z" fill="#1C274C"/>
</svg>
