<svg width="24" height="24" viewBox="0 0 24 24" fill="none" xmlns="http://www.w3.org/2000/svg">
<path d="M8.68359 14.4482C10.5493 14.0868 12.547 14.1679 14.1631 15.1318C14.3902 15.2672 14.6034 15.436 14.7891 15.6445C15.1648 16.0666 15.3589 16.5913 15.3682 17.1172C15.5593 16.9938 15.7507 16.8569 15.9453 16.71L17.7529 15.3447C18.6575 14.6617 19.9724 14.6617 20.877 15.3447C21.7125 15.9759 22.0454 17.1084 21.4473 18.0674C21.022 18.7491 20.3812 19.6921 19.7295 20.2959C19.0706 20.9061 18.1332 21.4193 17.4238 21.7617C16.5623 22.1775 15.6314 22.4083 14.7266 22.5547C12.8775 22.8539 10.9533 22.8072 9.125 22.4307C8.19063 22.2381 7.21934 22.1387 6.25977 22.1387H4C3.58586 22.1386 3.25007 21.8028 3.25 21.3887C3.25 20.9745 3.58582 20.6387 4 20.6387H6.25977C7.32188 20.6387 8.39455 20.7491 9.42773 20.9619C11.0798 21.3023 12.8203 21.343 14.4873 21.0732C15.3161 20.939 16.0901 20.74 16.7715 20.4111C17.4547 20.0813 18.2228 19.6472 18.71 19.1963C19.2024 18.7402 19.7542 17.9485 20.1748 17.2744C20.3017 17.0709 20.2839 16.7771 19.9727 16.542C19.603 16.2628 19.0268 16.263 18.6572 16.542L16.8496 17.9072C16.1282 18.4521 15.24 19.0352 14.1387 19.2109C14.0277 19.2286 13.912 19.2445 13.792 19.2588C13.7347 19.2692 13.6749 19.276 13.6133 19.2783C13.0511 19.3342 12.3999 19.3472 11.6816 19.2793C11.2692 19.2404 10.9659 18.8743 11.0049 18.4619C11.0439 18.0497 11.41 17.7472 11.8223 17.7861C12.4497 17.8453 13.0126 17.8322 13.4902 17.7832C13.4999 17.7822 13.5099 17.7813 13.5195 17.7803C13.5394 17.7687 13.5696 17.7475 13.6094 17.7129C13.9288 17.434 13.9581 16.9665 13.6689 16.6416C13.5956 16.5593 13.5044 16.4855 13.3945 16.4199C12.2135 15.7157 10.6364 15.598 8.96973 15.9209C7.3122 16.242 5.66465 16.9815 4.43359 17.8545C4.09575 18.094 3.62829 18.0145 3.38867 17.6768C3.14906 17.3389 3.22854 16.8706 3.56641 16.6309C4.96465 15.6394 6.80854 14.8116 8.68359 14.4482ZM8.26562 2.26562C9.62004 0.911244 11.8164 0.911444 13.1709 2.26562L15.7344 4.8291C17.0887 6.18363 17.0888 8.37988 15.7344 9.73438C14.3799 11.0888 12.1836 11.0887 10.8291 9.73438L8.26562 7.1709C6.91142 5.81634 6.91121 3.62004 8.26562 2.26562ZM14.2129 5.42969C13.951 5.8919 13.5655 6.43841 13.002 7.00195C12.4385 7.56546 11.8918 7.95106 11.4297 8.21289L11.8896 8.67383C12.6584 9.44246 13.9052 9.44254 14.6738 8.67383C15.4425 7.90513 15.4425 6.65838 14.6738 5.88965L14.2129 5.42969ZM12.1104 3.32715C11.3417 2.5584 10.0949 2.5584 9.32617 3.32715C8.55798 4.09581 8.5579 5.34173 9.32617 6.11035L10.3145 7.09863C10.3484 7.08345 10.3839 7.06663 10.4209 7.04883C10.807 6.86275 11.3545 6.52827 11.9414 5.94141C12.5281 5.35459 12.8626 4.80706 13.0488 4.4209C13.0666 4.38397 13.0835 4.34838 13.0986 4.31445L12.1104 3.32715Z" fill="#48465C"/>
</svg>
