<svg width="24" height="24" viewBox="0 0 24 24" fill="none" xmlns="http://www.w3.org/2000/svg">
<path d="M8.68335 14.4483C10.549 14.0868 12.5468 14.1681 14.1628 15.1319C14.3899 15.2673 14.6031 15.4361 14.7888 15.6446C15.1646 16.0667 15.3586 16.5913 15.3679 17.1173C15.559 16.9939 15.7505 16.857 15.9451 16.71L17.7527 15.3448C18.6573 14.6617 19.9721 14.6618 20.8767 15.3448C21.7124 15.976 22.0452 17.1084 21.447 18.0675C21.0217 18.7492 20.381 19.6922 19.7292 20.296C19.0703 20.9062 18.1329 21.4194 17.4236 21.7618C16.5621 22.1776 15.6311 22.4084 14.7263 22.5548C12.8773 22.854 10.953 22.8083 9.12476 22.4317C8.19036 22.2391 7.21913 22.1387 6.25952 22.1387H3.99976C3.58565 22.1387 3.24982 21.8028 3.24976 21.3887C3.24976 20.9746 3.58561 20.6388 3.99976 20.6387H6.25952C7.32161 20.6387 8.39433 20.7492 9.42749 20.962C11.0795 21.3024 12.8201 21.3431 14.4871 21.0733C15.3159 20.9391 16.0899 20.7401 16.7712 20.4112C17.4544 20.0814 18.2226 19.6473 18.7097 19.1964C19.2021 18.7402 19.754 17.9485 20.1746 17.2745C20.3015 17.071 20.2838 16.7772 19.9724 16.5421C19.6028 16.2629 19.0266 16.263 18.657 16.5421L16.8494 17.9073C16.128 18.4522 15.2398 19.0353 14.1384 19.211C14.0274 19.2287 13.9117 19.2446 13.7917 19.2589C13.7344 19.2693 13.6746 19.2761 13.613 19.2784C13.0508 19.3343 12.3997 19.3473 11.6814 19.2794C11.269 19.2405 10.9656 18.8744 11.0046 18.462C11.0437 18.0498 11.4098 17.7473 11.822 17.7862C12.4494 17.8454 13.0124 17.8323 13.49 17.7833C13.4997 17.7823 13.5097 17.7814 13.5193 17.7804C13.5391 17.7688 13.5694 17.7476 13.6091 17.713C13.9285 17.4341 13.9579 16.9666 13.6687 16.6417C13.5955 16.5594 13.5051 16.4856 13.3953 16.42C12.2142 15.7156 10.6363 15.5981 8.96948 15.921C7.31195 16.2421 5.66441 16.9816 4.43335 17.8546C4.09549 18.0941 3.62803 18.0146 3.38843 17.6768C3.14882 17.3389 3.22829 16.8706 3.56616 16.6309C4.96439 15.6395 6.80831 14.8116 8.68335 14.4483ZM8.26538 2.2657C9.61978 0.911305 11.8161 0.91156 13.1707 2.2657L15.7341 4.82918C17.0886 6.18371 17.0886 8.37995 15.7341 9.73445C14.3797 11.0889 12.1834 11.0889 10.8289 9.73445L8.26538 7.17098C6.91123 5.81642 6.91098 3.62011 8.26538 2.2657ZM14.2126 5.42977C13.9508 5.89198 13.5653 6.43849 13.0017 7.00203C12.4383 7.56556 11.8916 7.95113 11.4294 8.21297L11.8894 8.67391C12.6581 9.44259 13.9049 9.44263 14.6736 8.67391C15.4423 7.9052 15.4423 6.65847 14.6736 5.88973L14.2126 5.42977ZM12.1101 3.32723C11.3414 2.55848 10.0956 2.55848 9.3269 3.32723C8.55815 4.09597 8.55815 5.34169 9.3269 6.11043L10.3142 7.09871C10.3482 7.08353 10.3837 7.06669 10.4207 7.04891C10.8068 6.86283 11.3543 6.52834 11.9412 5.94148C12.5279 5.35466 12.8624 4.80715 13.0486 4.42098C13.0663 4.38404 13.0832 4.34846 13.0984 4.31453L12.1101 3.32723Z" fill="#1C274C"/>
</svg>
