<svg width="24" height="24" viewBox="0 0 24 24" fill="none" xmlns="http://www.w3.org/2000/svg">
<path d="M12 1.25C17.9371 1.25 22.75 6.06294 22.75 12C22.75 17.9371 17.9371 22.75 12 22.75C10.2817 22.75 8.65527 22.3463 7.21289 21.6279C6.99771 21.5208 6.77762 21.4984 6.59277 21.5479L4.36719 22.1426C2.84336 22.5503 1.44969 21.1566 1.85742 19.6328L2.45215 17.4072C2.50162 17.2224 2.47921 17.0023 2.37207 16.7871C1.65365 15.3447 1.25 13.7183 1.25 12C1.25 6.06294 6.06294 1.25 12 1.25ZM12 2.75C6.89137 2.75 2.75 6.89137 2.75 12C2.75 13.4811 3.09756 14.8789 3.71484 16.1182C3.96256 16.6156 4.05767 17.2107 3.90137 17.7949L3.30566 20.0205C3.19637 20.4292 3.57073 20.8037 3.97949 20.6943L6.20508 20.0986C6.78925 19.9423 7.38445 20.0375 7.88184 20.2852C9.12114 20.9025 10.5189 21.25 12 21.25C17.1086 21.25 21.25 17.1086 21.25 12C21.25 6.89137 17.1086 2.75 12 2.75ZM8 11C8.55228 11 9 11.4477 9 12C9 12.5523 8.55228 13 8 13C7.44772 13 7 12.5523 7 12C7 11.4477 7.44772 11 8 11ZM12 11C12.5523 11 13 11.4477 13 12C13 12.5523 12.5523 13 12 13C11.4477 13 11 12.5523 11 12C11 11.4477 11.4477 11 12 11ZM16 11C16.5523 11 17 11.4477 17 12C17 12.5523 16.5523 13 16 13C15.4477 13 15 12.5523 15 12C15 11.4477 15.4477 11 16 11Z" fill="#1C274C"/>
</svg>
