<svg width="24" height="24" viewBox="0 0 24 24" fill="none" xmlns="http://www.w3.org/2000/svg">
<path d="M19.0001 7.25C19.4142 7.25003 19.7501 7.58581 19.7501 8V22C19.7501 22.4142 19.4142 22.75 19.0001 22.75C18.5859 22.75 18.2501 22.4142 18.2501 22V11.9941C16.5566 12.9799 14.4555 13.0666 12.6641 12.1709C12.6471 12.1624 12.6305 12.1533 12.6143 12.1436C11.9235 11.7292 11.0362 12.1741 10.9561 12.9756L10.8878 13.6621C10.8298 14.2432 11.1064 14.8067 11.6016 15.1162L11.9346 15.3252C13.685 16.4191 14.8211 18.2702 15.004 20.3262L15.1475 21.9336C15.1842 22.3462 14.8794 22.7104 14.4669 22.7471C14.0543 22.7838 13.6901 22.479 13.6534 22.0664L13.5098 20.459C13.3686 18.8712 12.4914 17.4415 11.1397 16.5967L10.8067 16.3887C9.82745 15.7766 9.27977 14.6617 9.39459 13.5127L9.46393 12.8262C9.65264 10.9408 11.7285 9.88881 13.3585 10.8408C14.9097 11.6052 16.7669 11.3845 18.0967 10.2764L18.2501 10.1484V8C18.2501 7.58579 18.5859 7.25 19.0001 7.25ZM8.27448 17.3096C8.37985 16.9091 8.79003 16.6694 9.19049 16.7744C9.591 16.8797 9.83074 17.2898 9.72565 17.6904L9.72467 17.6934L9.72369 17.6973L9.71881 17.7139L9.70319 17.7715C9.68944 17.821 9.66933 17.8924 9.64362 17.9795C9.5923 18.1534 9.51752 18.3945 9.42389 18.665C9.24225 19.1898 8.96811 19.8886 8.62799 20.4102C8.27059 20.958 7.70998 21.5117 7.2774 21.9033C7.05415 22.1054 6.85056 22.2765 6.70319 22.3975C6.62954 22.4579 6.56973 22.5065 6.5274 22.54L6.4776 22.5791L6.46295 22.5898L6.45905 22.5928L6.45807 22.5938C6.12981 22.8463 5.65794 22.7853 5.40533 22.457C5.15322 22.129 5.21449 21.6588 5.54205 21.4062L5.54498 21.4043L5.55475 21.3965L5.59576 21.3643C5.63209 21.3355 5.68564 21.2928 5.75201 21.2383C5.88537 21.1288 6.06924 20.9733 6.27057 20.791C6.68703 20.414 7.12613 19.967 7.37213 19.5898C7.60624 19.2307 7.83222 18.6795 8.0069 18.1748C8.09133 17.9309 8.15872 17.712 8.20514 17.5547C8.22825 17.4765 8.2461 17.4136 8.25787 17.3711L8.27057 17.3232L8.27448 17.3115V17.3096ZM8.95514 9.25098C9.36852 9.2262 9.72421 9.54167 9.74908 9.95508C9.77389 10.3685 9.4584 10.7242 9.04498 10.749L6.65631 10.8926C6.24337 10.9174 5.89108 11.205 5.78326 11.6084C5.68849 11.9634 5.80195 12.3409 6.07526 12.584L8.16217 14.4395C8.47156 14.7146 8.49951 15.1885 8.22467 15.498C7.94946 15.8076 7.47466 15.8357 7.1651 15.5605L5.07819 13.7051C4.38041 13.0846 4.09295 12.1228 4.33405 11.2207C4.60812 10.1952 5.5066 9.45929 6.56647 9.39551L8.95514 9.25098ZM11.5001 1.25C13.2949 1.25003 14.7501 2.70509 14.7501 4.5C14.7501 6.29491 13.2949 7.74997 11.5001 7.75C9.70515 7.75 8.25006 6.29493 8.25006 4.5C8.25006 2.70507 9.70515 1.25 11.5001 1.25ZM11.5001 2.75C10.5336 2.75 9.75006 3.5335 9.75006 4.5C9.75006 5.4665 10.5336 6.25 11.5001 6.25C12.4665 6.24997 13.2501 5.46648 13.2501 4.5C13.2501 3.53352 12.4665 2.75003 11.5001 2.75Z" fill="#1C274C"/>
</svg>
