<svg width="24" height="24" viewBox="0 0 24 24" fill="none" xmlns="http://www.w3.org/2000/svg">
<path d="M17.2832 2.07799C17.7186 0.974003 19.2814 0.974003 19.7168 2.07799L20.3408 3.65905L21.9219 4.28307C23.0259 4.71848 23.0259 6.28125 21.9219 6.71666L20.3408 7.33971L19.7168 8.92174C19.2814 10.0257 17.7186 10.0257 17.2832 8.92174L16.96 8.10045L15.8398 9.22057C17.0323 10.6512 17.75 12.4918 17.75 14.4999C17.7499 19.0561 14.0563 22.7499 9.5 22.7499C4.94369 22.7499 1.25007 19.0561 1.25 14.4999C1.25 9.94352 4.94365 6.24987 9.5 6.24987C11.5081 6.24987 13.3487 6.96744 14.7793 8.16002L15.8984 7.03991L15.0781 6.71666C13.9741 6.28125 13.9741 4.71848 15.0781 4.28307L16.6592 3.65905L17.2832 2.07799ZM9.5 7.74987C5.77208 7.74987 2.75 10.772 2.75 14.4999C2.75007 18.2277 5.77212 21.2499 9.5 21.2499C13.2279 21.2499 16.2499 18.2277 16.25 14.4999C16.25 10.772 13.2279 7.74987 9.5 7.74987ZM18.0244 4.28698C17.8915 4.62391 17.6249 4.89129 17.2881 5.02428L16.082 5.49987L17.2881 5.97545C17.6248 6.10841 17.8914 6.37502 18.0244 6.71178L18.5 7.91783L18.9756 6.71178C19.1086 6.37502 19.3752 6.10841 19.7119 5.97545L20.918 5.49987L19.7119 5.02428C19.3751 4.89129 19.1085 4.62391 18.9756 4.28698L18.5 3.08092L18.0244 4.28698Z" fill="#1C274C"/>
</svg>
