<svg width="24" height="24" viewBox="0 0 24 24" fill="none" xmlns="http://www.w3.org/2000/svg">
<path d="M14.7247 8.15625C16.2752 7.23801 17.0508 6.77873 17.6202 7.10449C18.1895 7.43028 18.1757 8.32548 18.1485 10.1152L18.1417 10.5781C18.134 11.0866 18.1299 11.341 18.2247 11.5645C18.3195 11.7878 18.502 11.9555 18.8672 12.29L19.2003 12.5947C20.4859 13.7724 21.129 14.3612 20.9786 15.0225C20.8279 15.6838 19.983 15.9798 18.294 16.5713L17.8575 16.7246C17.3775 16.8927 17.1373 16.977 16.9532 17.1455C16.7692 17.3141 16.6611 17.548 16.4464 18.0156L16.251 18.4414C15.4953 20.0872 15.1174 20.91 14.4551 20.9932C13.7927 21.0762 13.2842 20.3644 12.2676 18.9404L12.004 18.5713C11.7154 18.167 11.5708 17.9651 11.3624 17.8457C11.1539 17.7264 10.9045 17.7028 10.4063 17.6572L9.95319 17.6162C8.20033 17.4558 7.32332 17.3755 7.06451 16.7656C6.80577 16.1555 7.3368 15.419 8.39752 13.9473L8.67194 13.5664C8.97311 13.1485 9.12357 12.9395 9.17877 12.6973C9.23398 12.4551 9.18787 12.2069 9.09479 11.7109L9.00983 11.2598C8.68233 9.51476 8.51837 8.64174 9.02057 8.18164C9.52318 7.72162 10.3601 7.97857 12.0323 8.49316L12.4649 8.62598C12.9399 8.77216 13.1774 8.84576 13.42 8.81543C13.6627 8.78504 13.8837 8.65448 14.3243 8.39355L14.7247 8.15625ZM3.96979 9.96973C4.26268 9.67684 4.73744 9.67684 5.03033 9.96973L6.53033 11.4697C6.82318 11.7626 6.82321 12.2374 6.53033 12.5303C6.23747 12.8231 5.76268 12.8231 5.46979 12.5303L3.96979 11.0303C3.6769 10.7374 3.6769 10.2627 3.96979 9.96973ZM1.46979 7.46973C1.76268 7.17684 2.23744 7.17684 2.53033 7.46973L3.03033 7.96973C3.32316 8.26262 3.3232 8.7374 3.03033 9.03027C2.73747 9.32314 2.26268 9.3231 1.96979 9.03027L1.46979 8.53027C1.1769 8.23738 1.1769 7.76262 1.46979 7.46973ZM3.46979 3.46973C3.76268 3.17684 4.23744 3.17684 4.53033 3.46973L7.03033 5.96973C7.32316 6.26262 7.3232 6.7374 7.03033 7.03027C6.73746 7.32314 6.26268 7.3231 5.96979 7.03027L3.46979 4.53027C3.1769 4.23738 3.1769 3.76262 3.46979 3.46973ZM12.4698 5.46973C12.7627 5.17684 13.2374 5.17684 13.5303 5.46973L14.0303 5.96973C14.3232 6.26262 14.3232 6.73741 14.0303 7.03027C13.7375 7.32315 13.2627 7.32312 12.9698 7.03027L12.4698 6.53027C12.1769 6.23739 12.1769 5.76262 12.4698 5.46973ZM8.96979 1.96973C9.26268 1.67684 9.73747 1.67684 10.0303 1.96973L12.0303 3.96973C12.3232 4.26262 12.3232 4.73741 12.0303 5.03027C11.7375 5.32315 11.2627 5.32312 10.9698 5.03027L8.96979 3.03027C8.6769 2.73738 8.6769 2.26262 8.96979 1.96973Z" fill="#1C274C"/>
</svg>
