<svg width="24" height="24" viewBox="0 0 24 24" fill="none" xmlns="http://www.w3.org/2000/svg">
<path d="M6.00757 3.40723C7.68765 1.72725 10.5224 1.8551 11.6921 3.95117L12.3416 5.11426C13.1052 6.48296 12.7799 8.2099 11.6619 9.3418C11.647 9.36219 11.5673 9.47706 11.5574 9.67773C11.5449 9.93403 11.6363 10.5271 12.5544 11.4453C13.4726 12.3634 14.0656 12.4549 14.322 12.4424C14.5218 12.4326 14.6365 12.3546 14.658 12.3389C15.79 11.2206 17.5177 10.8953 18.8865 11.6592L20.0496 12.3076C22.1456 13.4776 22.2735 16.3131 20.5935 17.9932C19.6949 18.8917 18.4996 19.6898 17.0955 19.7432C15.0146 19.822 11.5592 19.2849 8.13745 15.8633C4.71581 12.4416 4.17776 8.98623 4.25659 6.90527C4.30982 5.50107 5.10891 4.30589 6.00757 3.40723ZM10.3826 4.68164C9.78341 3.6086 8.17383 3.36215 7.06812 4.46777C6.29277 5.24311 5.78833 6.09913 5.75562 6.96191C5.68984 8.69727 6.11867 11.7234 9.198 14.8027C12.2773 17.8819 15.3036 18.3099 17.0388 18.2441C17.9013 18.2113 18.7569 17.7077 19.532 16.9326C20.6378 15.8269 20.3914 14.2172 19.3181 13.6182L18.155 12.9688C17.4317 12.5651 16.4161 12.7029 15.7029 13.416C15.6329 13.486 15.1866 13.9018 14.3953 13.9404C13.5851 13.9799 12.6037 13.6157 11.4939 12.5059C10.3839 11.3958 10.0197 10.4147 10.0593 9.60449C10.0982 8.81305 10.515 8.3675 10.5847 8.29785C11.2979 7.58454 11.4356 6.56808 11.032 5.84473L10.3826 4.68164Z" fill="#48465C"/>
</svg>
