<svg width="24" height="24" viewBox="0 0 24 24" fill="none" xmlns="http://www.w3.org/2000/svg">
<path d="M15.9777 11.3975C18.7933 11.3975 20.2015 11.397 21.0725 12.1328C21.2946 12.3204 21.4861 12.5383 21.6418 12.7783C22.252 13.7197 21.9998 15.0288 21.4963 17.6465C21.1337 19.5311 20.9525 20.4743 20.3244 21.0996C20.1616 21.2616 19.9793 21.405 19.7815 21.5274C19.0182 21.9995 18.0046 22 15.9777 22H9.02266C6.9959 22 5.98229 21.9995 5.21895 21.5274C5.02094 21.4049 4.83794 21.2618 4.67501 21.0996C4.04687 20.4743 3.8657 19.5311 3.50313 17.6465C2.99952 15.0289 2.74747 13.7197 3.35762 12.7783C3.51333 12.5382 3.70571 12.3205 3.92794 12.1328C4.79891 11.3972 6.20733 11.3975 9.02266 11.3975H15.9777ZM10.4602 16.458C10.0377 16.458 9.69551 16.7815 9.69551 17.1807C9.69557 17.5799 10.0377 17.9033 10.4602 17.9033H14.5402C14.9624 17.9031 15.3048 17.5798 15.3049 17.1807C15.3049 16.7816 14.9624 16.4583 14.5402 16.458H10.4602ZM8.41329 2.00001C8.69619 1.99998 8.88527 2.00031 9.07051 2.01563C9.86671 2.0816 10.6275 2.35878 11.2522 2.81739C11.3977 2.92433 11.5336 3.04532 11.7326 3.22169L12.2072 3.64161C12.9026 4.25767 13.1506 4.46831 13.4348 4.60841C13.6035 4.69158 13.7836 4.75836 13.9709 4.80567C14.2897 4.8861 14.6419 4.89161 15.6232 4.89161H15.9768C17.0098 4.8916 17.8527 4.89131 18.5217 4.96583C19.2161 5.04319 19.8293 5.21046 20.341 5.61817C20.4255 5.68554 20.5068 5.75676 20.5832 5.83204C21.0523 6.29409 21.249 6.85683 21.3391 7.49122C21.4245 8.09245 21.424 8.84695 21.424 9.75587V10.6065C20.9447 10.3535 20.4266 10.2075 19.8947 10.1182C19.7429 10.0927 19.5892 10.0711 19.4357 10.0537C18.5315 9.95147 17.3988 9.95211 16.0695 9.95216H8.93086C7.60138 9.95211 6.46796 9.95144 5.56368 10.0537C5.41025 10.0711 5.25745 10.0927 5.10567 10.1182C4.57364 10.2075 4.0549 10.3535 3.5754 10.6065V6.21876C3.57523 5.66058 3.57574 5.27325 3.64766 4.93555C3.96385 3.45137 5.26166 2.32978 6.86641 2.06153C7.23346 2.00022 7.65661 1.9999 8.29708 2.00001H8.41329Z" fill="#1C274C"/>
</svg>
