<svg width="24" height="24" viewBox="0 0 24 24" fill="none" xmlns="http://www.w3.org/2000/svg">
<path d="M15.9778 11.3975C18.7933 11.3975 20.2015 11.397 21.0725 12.1328C21.2946 12.3204 21.4862 12.5383 21.6418 12.7783C22.252 13.7197 21.9999 15.0288 21.4963 17.6465C21.1337 19.5311 20.9526 20.4743 20.3245 21.0996C20.1616 21.2616 19.9794 21.405 19.7815 21.5273C19.0182 21.9995 18.0046 22 15.9778 22H9.02271C6.99594 22 5.98233 21.9995 5.21899 21.5273C5.02098 21.4049 4.83799 21.2618 4.67505 21.0996C4.04691 20.4743 3.86574 19.5311 3.50317 17.6465C2.99957 15.0289 2.74751 13.7197 3.35767 12.7783C3.51337 12.5382 3.70576 12.3205 3.92798 12.1328C4.79896 11.3972 6.20738 11.3975 9.02271 11.3975H15.9778ZM10.4602 16.458C10.0377 16.458 9.69556 16.7815 9.69556 17.1807C9.69561 17.5799 10.0377 17.9033 10.4602 17.9033H14.5403C14.9624 17.9031 15.3049 17.5798 15.3049 17.1807C15.3049 16.7816 14.9625 16.4582 14.5403 16.458H10.4602ZM8.41333 2C8.69623 1.99997 8.88531 2.0003 9.07056 2.01562C9.86675 2.08159 10.6276 2.35877 11.2522 2.81738C11.3978 2.92432 11.5337 3.04531 11.7327 3.22168L12.2073 3.6416C12.9026 4.25767 13.1506 4.4683 13.4348 4.6084C13.6035 4.69157 13.7836 4.75835 13.9709 4.80566C14.2897 4.8861 14.6419 4.8916 15.6233 4.8916H15.9768C17.0099 4.89159 17.8527 4.8913 18.5217 4.96582C19.2161 5.04318 19.8293 5.21045 20.3411 5.61816C20.4256 5.68553 20.5068 5.75676 20.5833 5.83203C21.0524 6.29408 21.2491 6.85682 21.3391 7.49121C21.4245 8.09244 21.4241 8.84694 21.4241 9.75586V10.6064C20.9447 10.3535 20.4267 10.2075 19.8948 10.1182C19.743 10.0927 19.5893 10.0711 19.4358 10.0537C18.5316 9.95146 17.3989 9.9521 16.0696 9.95215H8.93091C7.60143 9.9521 6.468 9.95143 5.56372 10.0537C5.41029 10.0711 5.2575 10.0927 5.10571 10.1182C4.57368 10.2075 4.05494 10.3534 3.57544 10.6064V6.21875C3.57527 5.66057 3.57579 5.27325 3.64771 4.93555C3.96389 3.45137 5.2617 2.32978 6.86646 2.06152C7.2335 2.00021 7.65665 1.99989 8.29712 2H8.41333Z" fill="#48465C"/>
</svg>
