<svg width="24" height="24" viewBox="0 0 24 24" fill="none" xmlns="http://www.w3.org/2000/svg">
<path d="M4.86914 16.6849C7.51461 15.1462 11.2717 14.2801 13.7793 15.7757C13.9476 15.8762 14.0992 15.9976 14.2285 16.1429C14.7865 16.7698 14.7457 17.7153 14.1025 18.2767C13.9667 18.3951 13.8225 18.4857 13.6768 18.5169C13.7964 18.503 13.911 18.4866 14.0205 18.4691C14.9319 18.3237 15.6971 17.837 16.3975 17.3079L18.2051 15.9427C18.8422 15.4617 19.7877 15.4617 20.4248 15.9427C20.9983 16.3759 21.1732 17.089 20.8105 17.6703C20.3877 18.3482 19.7919 19.2156 19.2197 19.7454C18.6467 20.2761 17.794 20.7502 17.0977 21.0863C16.3262 21.4587 15.4733 21.6734 14.6064 21.8138C12.8485 22.0982 11.0165 22.0541 9.27637 21.6956C8.29258 21.4929 7.27062 21.388 6.25977 21.388H6C5.05723 21.388 4.58587 21.3879 4.29297 21.0951C4.00008 20.8022 4 20.3308 4 19.388V18.2757C4 17.7576 3.99982 17.4983 4.13281 17.2669C4.26598 17.0353 4.46736 16.9186 4.86914 16.6849ZM15.2041 5.35873C16.2655 6.42038 16.2656 8.1419 15.2041 9.20346C14.1425 10.265 12.4211 10.2648 11.3594 9.20346L10.6357 8.47982C11.241 8.17904 12.0296 7.67681 12.8535 6.85287C13.6774 6.02899 14.1796 5.24043 14.4805 4.6351L15.2041 5.35873ZM8.7959 2.79623C9.85753 1.73459 11.5789 1.73459 12.6406 2.79623L13.7266 3.88217C13.6946 3.95748 13.6582 4.03913 13.6162 4.12631C13.3642 4.64909 12.9179 5.37438 12.1465 6.14584C11.375 6.91734 10.6497 7.36366 10.127 7.61557C10.0396 7.65764 9.95822 7.69502 9.88281 7.72689L8.7959 6.63998C7.73472 5.57845 7.73475 3.85778 8.7959 2.79623Z" fill="#1C274C"/>
</svg>
