<svg width="24" height="24" viewBox="0 0 24 24" fill="none" xmlns="http://www.w3.org/2000/svg">
<path d="M4.86914 16.6855C7.51461 15.1468 11.2717 14.2808 13.7793 15.7764C13.9476 15.8768 14.0992 15.9982 14.2285 16.1436C14.7865 16.7704 14.7457 17.716 14.1025 18.2773C13.9667 18.3958 13.8225 18.4863 13.6768 18.5176C13.7964 18.5037 13.911 18.4872 14.0205 18.4697C14.9319 18.3243 15.6971 17.8377 16.3975 17.3086L18.2051 15.9434C18.8422 15.4623 19.7877 15.4624 20.4248 15.9434C20.9983 16.3766 21.1732 17.0897 20.8105 17.6709C20.3877 18.3489 19.7919 19.2162 19.2197 19.7461C18.6467 20.2768 17.794 20.7508 17.0977 21.0869C16.3262 21.4593 15.4733 21.6741 14.6064 21.8145C12.8485 22.0989 11.0165 22.0548 9.27637 21.6963C8.29258 21.4936 7.27062 21.3887 6.25977 21.3887H6C5.05722 21.3887 4.58587 21.3886 4.29297 21.0957C4.00008 20.8028 4 20.3314 4 19.3887V18.2764C4 17.7582 3.99982 17.499 4.13281 17.2676C4.26598 17.036 4.46736 16.9192 4.86914 16.6855ZM15.2041 5.35938C16.2655 6.42102 16.2656 8.14253 15.2041 9.2041C14.1425 10.2656 12.4211 10.2655 11.3594 9.2041L10.6357 8.48047C11.241 8.17969 12.0296 7.67743 12.8535 6.85352C13.6774 6.02964 14.1796 5.24107 14.4805 4.63574L15.2041 5.35938ZM8.7959 2.79688C9.85753 1.73523 11.5789 1.73523 12.6406 2.79688L13.7266 3.88281C13.6946 3.95812 13.6582 4.03978 13.6162 4.12695C13.3642 4.64974 12.9179 5.37503 12.1465 6.14648C11.375 6.91798 10.6497 7.3643 10.127 7.61621C10.0396 7.65829 9.95822 7.69566 9.88281 7.72754L8.7959 6.64062C7.73472 5.5791 7.73475 3.85843 8.7959 2.79688Z" fill="#48465C"/>
</svg>
