<svg width="24" height="24" viewBox="0 0 24 24" fill="none" xmlns="http://www.w3.org/2000/svg">
<path d="M10.4219 14.4385C11.4349 14.0334 12.5651 14.0334 13.5781 14.4385L16.21 15.4912L15.7656 21.2666C14.6033 21.7394 13.3321 22 12 22C10.6679 22 9.39666 21.7394 8.23438 21.2666L7.79004 15.4912L10.4219 14.4385ZM6.28906 15.5391L6.66797 20.4619C4.41814 19.0411 2.7744 16.7471 2.21191 14.0566L6.28906 15.5391ZM21.8242 13.8779C21.2983 16.6454 19.6315 19.0088 17.332 20.4609L17.7119 15.5225L21.8242 13.8779ZM12 2C17.5228 2 22 6.47715 22 12C22 12.0645 21.9992 12.1292 21.998 12.1934L17 14.1914L14.1357 13.0459C12.7648 12.4976 11.2352 12.4976 9.86426 13.0459L6.9873 14.1973L2.00781 12.3867C2.00294 12.2585 2 12.1294 2 12C2 6.47715 6.47715 2 12 2ZM9 9C8.44772 9 8 9.67157 8 10.5C8 11.3284 8.44772 12 9 12C9.55228 12 10 11.3284 10 10.5C10 9.67157 9.55228 9 9 9ZM15 9C14.4477 9 14 9.67157 14 10.5C14 11.3284 14.4477 12 15 12C15.5523 12 16 11.3284 16 10.5C16 9.67157 15.5523 9 15 9Z" fill="#1C274C"/>
</svg>
