<svg width="24" height="24" viewBox="0 0 24 24" fill="none" xmlns="http://www.w3.org/2000/svg">
<path d="M2.86035 1.80371C3.839 1.13436 5.13456 1.01715 6.27734 1.75488L17.0664 8.72266C18.2167 9.46549 18.75 10.7658 18.75 12C18.75 13.2341 18.2167 14.5346 17.0664 15.2773L6.27734 22.2441C5.13447 22.9821 3.8391 22.8657 2.86035 22.1963C1.89396 21.5352 1.25 20.3546 1.25 18.9668V5.0332C1.25 3.64549 1.89402 2.46482 2.86035 1.80371ZM5.46387 3.01562C4.87016 2.63224 4.23047 2.68472 3.70801 3.04199C3.17331 3.4077 2.75 4.1119 2.75 5.0332V18.9668C2.75 19.8881 3.1733 20.5923 3.70801 20.958C4.23041 21.3152 4.87025 21.3677 5.46387 20.9844L16.2529 14.0176C16.8894 13.6066 17.25 12.8363 17.25 12C17.25 11.1636 16.8894 10.3935 16.2529 9.98242L5.46387 3.01562ZM22 4.25C22.4142 4.25 22.75 4.58578 22.75 5V19C22.7499 19.4141 22.4141 19.75 22 19.75C21.5859 19.75 21.2501 19.4141 21.25 19V5C21.25 4.58578 21.5858 4.25 22 4.25Z" fill="#48465C"/>
</svg>
