<svg width="24" height="24" viewBox="0 0 24 24" fill="none" xmlns="http://www.w3.org/2000/svg">
<path d="M18.0032 1.50049C18.2793 1.19188 18.7541 1.16475 19.0627 1.44092C21.3248 3.46551 22.7502 6.41054 22.7502 9.68701C22.7502 15.4383 18.3613 20.1647 12.7502 20.6997V21.2505H14.0002C14.4143 21.2506 14.7502 21.5864 14.7502 22.0005C14.7501 22.4145 14.4142 22.7503 14.0002 22.7505H10.0002C9.58612 22.7505 9.25039 22.4146 9.25024 22.0005C9.25024 21.5863 9.58603 21.2505 10.0002 21.2505H11.2502V20.7417C8.14947 20.6212 5.37488 19.2241 3.44067 17.063C3.1645 16.7544 3.19163 16.2796 3.50024 16.0034C3.80883 15.7276 4.28268 15.7537 4.55884 16.062C6.31091 18.0196 8.85468 19.2504 11.6868 19.2505C16.9683 19.2505 21.2502 14.9685 21.2502 9.68701C21.2502 6.85493 20.0193 4.31116 18.0618 2.55908C17.7534 2.28292 17.7273 1.80907 18.0032 1.50049ZM12.0002 2.25049C16.2803 2.25063 19.7502 5.72038 19.7502 10.0005C19.7501 14.2805 16.2802 17.7503 12.0002 17.7505C7.72013 17.7505 4.25039 14.2806 4.25024 10.0005C4.25024 5.72029 7.72004 2.25049 12.0002 2.25049ZM16.5012 5.66357C16.3787 6.02057 16.2226 6.35659 16.0598 6.61279C15.8489 6.94467 15.4507 7.26718 15.1428 7.49658C14.9311 7.65431 14.7119 7.787 14.5198 7.90186C14.4965 7.91573 14.4739 7.92952 14.4514 7.94287C14.2799 8.04522 14.1312 8.13417 13.9885 8.23193C13.6818 8.44206 13.4562 8.65932 13.304 8.98486C13.2634 9.07191 13.2593 9.15892 13.2874 9.26514C13.3459 9.48638 13.3864 9.73695 13.387 9.99365C13.3896 11.1145 12.3501 11.7602 11.4915 11.7505C9.50681 11.728 8.33648 10.0619 8.18384 8.30225C8.11147 7.46692 7.68146 6.62309 7.22192 5.97119C6.30361 7.05914 5.75024 8.46533 5.75024 10.0005C5.75039 13.4522 8.54856 16.2505 12.0002 16.2505C12.0965 16.2505 12.1922 16.2479 12.2874 16.2437C12.2007 15.6347 12.2436 14.8903 12.6282 14.1655C13.1156 13.2472 14.1095 12.869 14.7864 12.7026C15.1485 12.6137 15.4827 12.57 15.7249 12.5483C15.8466 12.5374 15.9476 12.5316 16.0198 12.5288C16.056 12.5273 16.0855 12.5273 16.1067 12.5269L16.1321 12.5259H16.1379C16.8874 12.518 17.3085 12.3429 17.5559 12.1646C17.8042 11.9855 17.9516 11.7498 18.0579 11.4849C18.0671 11.4618 18.0769 11.4392 18.0881 11.4175C18.1938 10.9622 18.2502 10.4879 18.2502 10.0005C18.2502 8.31653 17.5841 6.78742 16.5012 5.66357ZM16.8186 13.981C16.6102 14.0083 16.3887 14.0235 16.1536 14.0259H16.135C16.1236 14.0262 16.1044 14.0268 16.0793 14.0278C16.0289 14.0298 15.9528 14.034 15.8586 14.0425C15.6687 14.0595 15.4126 14.0935 15.1438 14.1597C14.5586 14.3035 14.1247 14.546 13.9534 14.8687C13.7527 15.2467 13.7255 15.6562 13.7668 15.9966C14.9771 15.6406 16.035 14.9285 16.8186 13.981ZM12.0002 3.75049C10.6282 3.75049 9.3592 4.19237 8.32837 4.94189C8.91806 5.73783 9.56789 6.90166 9.67798 8.17236C9.78806 9.44272 10.5467 10.2394 11.5081 10.2505C11.6085 10.2516 11.7207 10.2112 11.8 10.145C11.8736 10.0835 11.8869 10.0307 11.887 9.99756C11.8867 9.89112 11.87 9.76926 11.8381 9.64893C11.7406 9.28036 11.7249 8.82094 11.9456 8.34912C12.2507 7.69678 12.7043 7.29313 13.1399 6.99463C13.3246 6.86807 13.5164 6.75356 13.6838 6.65381C13.7064 6.6404 13.7287 6.62762 13.7502 6.61475C13.9413 6.5005 14.1018 6.40116 14.2463 6.29346C14.5707 6.05173 14.7497 5.87657 14.7932 5.80811C14.9621 5.54231 15.151 5.05985 15.2219 4.64307C14.2812 4.07606 13.1787 3.75054 12.0002 3.75049Z" fill="#48465C"/>
</svg>
