<svg width="24" height="24" viewBox="0 0 24 24" fill="none" xmlns="http://www.w3.org/2000/svg">
<path d="M14 1C17.7712 1 19.6566 1.00031 20.8281 2.17188C21.9997 3.34346 22 5.22878 22 9V13C22 16.7712 21.9997 18.6566 20.8281 19.8281C19.6566 20.9997 17.7712 21 14 21H10C6.22878 21 4.34346 20.9997 3.17188 19.8281C2.00031 18.6566 2 16.7712 2 13V9C2 5.22876 2.00031 3.34345 3.17188 2.17188C4.34345 1.00031 6.22876 1 10 1H14ZM7.4873 6.06055C6.66566 6.00039 6.00021 6.67229 6 7.49609V12.9111C6.00018 13.7438 6.67939 14.4146 7.50977 14.4766C8.01594 14.5143 8.56248 14.5786 9 14.6855C9.83646 14.8899 10.8822 15.4013 11.4922 15.7227L11.5 15.7266V7.31055C11.4882 7.3049 11.4765 7.29907 11.4648 7.29297C10.8512 6.97089 9.8239 6.47182 9 6.27051C8.55596 6.16202 7.99975 6.09808 7.4873 6.06055ZM16.5566 6.02148C15.9405 6.05175 15.2405 6.12077 14.7002 6.27051C13.9687 6.47328 13.0748 6.95036 12.5215 7.27051L12.5 7.2832V15.7266L12.5078 15.7227C13.1178 15.4013 14.1635 14.8899 15 14.6855C15.4375 14.5786 15.984 14.5143 16.4902 14.4766C17.3206 14.4146 17.9998 13.7438 18 12.9111V7.45117C17.9998 6.64523 17.3616 5.98195 16.5566 6.02148Z" fill="#1C274C"/>
</svg>
