<svg width="24" height="24" viewBox="0 0 24 24" fill="none" xmlns="http://www.w3.org/2000/svg">
<path d="M12 2C16.714 2 19.0708 2.00037 20.5352 3.46484C21.9996 4.9293 22 7.28597 22 12C22 16.714 21.9997 19.0708 20.5352 20.5352C19.0708 21.9997 16.714 22 12 22C7.28597 22 4.9293 21.9996 3.46484 20.5352C2.00037 19.0708 2 16.714 2 12C2 7.28595 2.00037 4.9293 3.46484 3.46484C4.9293 2.00037 7.28595 2 12 2ZM12 5.75C11.5858 5.75 11.25 6.08579 11.25 6.5V12.5C11.25 14.2949 9.79493 15.75 8 15.75H7.81055L8.03027 15.5303C8.32316 15.2374 8.32316 14.7626 8.03027 14.4697C7.73739 14.1768 7.26261 14.1768 6.96973 14.4697L5.46973 15.9697C5.17684 16.2626 5.17684 16.7374 5.46973 17.0303L6.96973 18.5303C7.26261 18.8232 7.73739 18.8232 8.03027 18.5303C8.32316 18.2374 8.32316 17.7626 8.03027 17.4697L7.81055 17.25H8C9.67947 17.25 11.1554 16.3781 12 15.0625C12.8446 16.3781 14.3205 17.25 16 17.25H16.1895L15.9697 17.4697C15.6768 17.7626 15.6768 18.2374 15.9697 18.5303C16.2626 18.8232 16.7374 18.8232 17.0303 18.5303L18.5303 17.0303C18.8232 16.7374 18.8232 16.2626 18.5303 15.9697L17.0303 14.4697C16.7374 14.1768 16.2626 14.1768 15.9697 14.4697C15.6768 14.7626 15.6768 15.2374 15.9697 15.5303L16.1895 15.75H16C14.2051 15.75 12.75 14.2949 12.75 12.5V6.5C12.75 6.08579 12.4142 5.75 12 5.75Z" fill="#1C274C"/>
</svg>
