<svg width="24" height="24" viewBox="0 0 24 24" fill="none" xmlns="http://www.w3.org/2000/svg">
<path d="M12 2C16.714 2 19.0708 2.00037 20.5352 3.46484C21.9996 4.9293 22 7.28597 22 12C22 16.714 21.9997 19.0708 20.5352 20.5352C19.0708 21.9997 16.714 22 12 22C7.28597 22 4.9293 21.9996 3.46484 20.5352C2.00037 19.0708 2 16.714 2 12C2 7.28595 2.00037 4.9293 3.46484 3.46484C4.9293 2.00037 7.28595 2 12 2ZM9.5957 12.1484C8.44642 10.9284 6.52786 10.8643 5.2998 12.0049L4.48926 12.7578C4.18613 13.0397 4.16855 13.514 4.4502 13.8174C4.73209 14.1209 5.20724 14.1383 5.51074 13.8564L6.32129 13.1035C6.94539 12.5241 7.91995 12.5569 8.50391 13.1768L11.1514 15.9873C11.9508 16.8359 13.2599 16.9501 14.1943 16.2529C14.8075 15.7956 15.6608 15.8476 16.2139 16.376L18.4814 18.542C18.7808 18.828 19.2559 18.8177 19.542 18.5186C19.828 18.2192 19.8177 17.7441 19.5186 17.458L17.25 15.291C16.1676 14.2571 14.4967 14.1557 13.2969 15.0508C12.9732 15.292 12.52 15.2518 12.2432 14.958L9.5957 12.1484ZM16 6C14.8954 6 14 6.89543 14 8C14 9.10457 14.8954 10 16 10C17.1046 10 18 9.10457 18 8C18 6.89543 17.1046 6 16 6Z" fill="#1C274C"/>
</svg>
