<svg width="24" height="24" viewBox="0 0 24 24" fill="none" xmlns="http://www.w3.org/2000/svg">
<path d="M6.05176 13.25C6.95024 13.25 7.70014 13.2501 8.29492 13.3301C8.92253 13.4145 9.48898 13.6003 9.94434 14.0557C10.3997 14.511 10.5855 15.0775 10.6699 15.7051C10.7499 16.2999 10.75 17.0497 10.75 17.9482V18.0518C10.75 18.9503 10.7499 19.7001 10.6699 20.2949C10.5855 20.9225 10.3997 21.489 9.94434 21.9443C9.48898 22.3997 8.92253 22.5855 8.29492 22.6699C7.70015 22.7499 6.95023 22.75 6.05176 22.75H5.94824C5.04977 22.75 4.29986 22.7499 3.70508 22.6699C3.07748 22.5855 2.51102 22.3997 2.05566 21.9443C1.6003 21.489 1.41452 20.9225 1.33008 20.2949C1.25012 19.7001 1.24997 18.9503 1.25 18.0518V17.9482C1.24997 17.0497 1.25012 16.2999 1.33008 15.7051C1.41452 15.0775 1.6003 14.511 2.05566 14.0557C2.51102 13.6003 3.07748 13.4145 3.70508 13.3301C4.29986 13.2501 5.04976 13.25 5.94824 13.25H6.05176ZM12.0576 1.25C14.3657 1.24999 16.1745 1.24973 17.5859 1.43945C19.0306 1.63369 20.1706 2.03976 21.0654 2.93457C21.9602 3.82938 22.3662 4.96934 22.5605 6.41406C22.7502 7.82544 22.75 9.63433 22.75 11.9424V12.0576C22.75 14.3657 22.7502 16.1745 22.5605 17.5859C22.3663 19.0306 21.9602 20.1706 21.0654 21.0654C20.2371 21.8938 19.198 22.3035 17.8994 22.5137C16.6226 22.7204 15.0161 22.7454 13.001 22.749C12.587 22.7496 12.2509 22.415 12.25 22.001C12.2493 21.5868 12.5847 21.2498 12.999 21.249C15.0385 21.2453 16.5213 21.2173 17.6592 21.0332C18.7752 20.8525 19.4763 20.5335 20.0049 20.0049C20.5745 19.4352 20.9014 18.6649 21.0732 17.3867C21.248 16.0867 21.25 14.3782 21.25 12C21.25 9.62178 21.248 7.91326 21.0732 6.61328C20.9014 5.3351 20.5745 4.56471 20.0049 3.99512C19.4354 3.42553 18.6648 3.09865 17.3867 2.92676C16.0868 2.75198 14.3781 2.75 12 2.75C9.62179 2.75 7.91326 2.75198 6.61328 2.92676C5.33507 3.09864 4.56473 3.42552 3.99512 3.99512C3.46657 4.52365 3.14746 5.22408 2.9668 6.33984C2.78262 7.47772 2.75465 8.96123 2.75098 11.001C2.75023 11.4152 2.41323 11.7507 1.99902 11.75C1.58501 11.7492 1.25047 11.4131 1.25098 10.999C1.25461 8.98392 1.27967 7.37737 1.48633 6.10059C1.69652 4.80217 2.10549 3.76289 2.93359 2.93457C3.8284 2.03976 4.96932 1.63369 6.41406 1.43945C7.82546 1.24975 9.63434 1.24999 11.9424 1.25H12.0576ZM6 14.75C5.03599 14.75 4.3883 14.7515 3.90527 14.8164C3.44389 14.8785 3.24652 14.9859 3.11621 15.1162C2.98591 15.2465 2.87845 15.4439 2.81641 15.9053C2.75147 16.3883 2.75 17.036 2.75 18C2.75 18.964 2.75147 19.6117 2.81641 20.0947C2.87845 20.5561 2.98591 20.7535 3.11621 20.8838C3.24652 21.0141 3.44389 21.1215 3.90527 21.1836C4.3883 21.2485 5.03599 21.25 6 21.25C6.96401 21.25 7.61169 21.2485 8.09473 21.1836C8.55612 21.1215 8.75348 21.0141 8.88379 20.8838C9.01409 20.7535 9.12155 20.5561 9.18359 20.0947C9.24853 19.6117 9.25 18.964 9.25 18C9.25 17.036 9.24853 16.3883 9.18359 15.9053C9.12155 15.4439 9.01409 15.2465 8.88379 15.1162C8.75348 14.9859 8.55612 14.8785 8.09473 14.8164C7.61169 14.7515 6.96401 14.75 6 14.75ZM16.4697 6.46973C16.7626 6.17684 17.2374 6.17684 17.5303 6.46973C17.8232 6.76261 17.8232 7.23739 17.5303 7.53027L13.8105 11.25H15.75C16.1642 11.25 16.5 11.5858 16.5 12C16.5 12.4142 16.1642 12.75 15.75 12.75H12C11.5858 12.75 11.25 12.4142 11.25 12V8.25C11.25 7.83579 11.5858 7.5 12 7.5C12.4142 7.5 12.75 7.83579 12.75 8.25V10.1895L16.4697 6.46973Z" fill="#1C274C"/>
</svg>
