<svg width="24" height="24" viewBox="0 0 24 24" fill="none" xmlns="http://www.w3.org/2000/svg">
<path fill-rule="evenodd" clip-rule="evenodd" d="M11.2155 6.28183C11.6123 6.40085 11.8374 6.81897 11.7184 7.21571L11.108 9.2502H14.542L15.2816 6.78469C15.4007 6.38794 15.8188 6.16281 16.2155 6.28183C16.6123 6.40085 16.8374 6.81897 16.7184 7.21571L16.108 9.2502H18C18.4142 9.2502 18.75 9.58599 18.75 10.0002C18.75 10.4144 18.4142 10.7502 18 10.7502H15.658L14.908 13.2502H17C17.4142 13.2502 17.75 13.586 17.75 14.0002C17.75 14.4144 17.4142 14.7502 17 14.7502H14.458L13.7184 17.2157C13.5993 17.6125 13.1812 17.8376 12.7845 17.7186C12.3877 17.5995 12.1626 17.1814 12.2816 16.7847L12.892 14.7502H9.45802L8.71837 17.2157C8.59935 17.6125 8.18123 17.8376 7.78449 17.7186C7.38774 17.5995 7.16261 17.1814 7.28163 16.7847L7.89198 14.7502H6C5.58579 14.7502 5.25 14.4144 5.25 14.0002C5.25 13.586 5.58579 13.2502 6 13.2502H8.34198L9.09198 10.7502H7C6.58579 10.7502 6.25 10.4144 6.25 10.0002C6.25 9.58599 6.58579 9.2502 7 9.2502H9.54198L10.2816 6.78469C10.4007 6.38794 10.8188 6.16281 11.2155 6.28183ZM10.658 10.7502H14.092L13.342 13.2502H9.90802L10.658 10.7502Z" fill="#1C274C"/>
<path fill-rule="evenodd" clip-rule="evenodd" d="M12 1.25C6.06294 1.25 1.25 6.06294 1.25 12C1.25 17.9371 6.06294 22.75 12 22.75C17.9371 22.75 22.75 17.9371 22.75 12C22.75 6.06294 17.9371 1.25 12 1.25ZM2.75 12C2.75 6.89137 6.89137 2.75 12 2.75C17.1086 2.75 21.25 6.89137 21.25 12C21.25 17.1086 17.1086 21.25 12 21.25C6.89137 21.25 2.75 17.1086 2.75 12Z" fill="#1C274C"/>
</svg>
