<svg width="24" height="24" viewBox="0 0 24 24" fill="none" xmlns="http://www.w3.org/2000/svg">
<path d="M12 2C17.5228 2 22 6.47715 22 12C22 17.5228 17.5228 22 12 22C10.4003 22 8.88867 21.6239 7.54785 20.9561C7.19153 20.7787 6.78395 20.7203 6.39941 20.8232L4.17383 21.4189C3.20767 21.6774 2.32296 20.7932 2.58105 19.8271L3.17676 17.6006C3.27965 17.2161 3.22143 16.8084 3.04395 16.4521C2.37613 15.1113 2 13.5997 2 12C2 6.47715 6.47715 2 12 2ZM8 11C7.44772 11 7 11.4477 7 12C7 12.5523 7.44772 13 8 13C8.55228 13 9 12.5523 9 12C9 11.4477 8.55228 11 8 11ZM12 11C11.4477 11 11 11.4477 11 12C11 12.5523 11.4477 13 12 13C12.5523 13 13 12.5523 13 12C13 11.4477 12.5523 11 12 11ZM16 11C15.4477 11 15 11.4477 15 12C15 12.5523 15.4477 13 16 13C16.5523 13 17 12.5523 17 12C17 11.4477 16.5523 11 16 11Z" fill="#48465C"/>
</svg>
