<svg width="24" height="24" viewBox="0 0 24 24" fill="none" xmlns="http://www.w3.org/2000/svg">
<path d="M3 1.25C3.41422 1.25 3.75 1.58579 3.75 2V22C3.75 22.4142 3.41421 22.75 3 22.75C2.58579 22.75 2.25 22.4142 2.25 22V2C2.25 1.58579 2.58579 1.25 3 1.25ZM21 1.25C21.4142 1.25 21.75 1.58579 21.75 2V22C21.75 22.4142 21.4142 22.75 21 22.75C20.5858 22.75 20.25 22.4142 20.25 22V2C20.25 1.58579 20.5858 1.25 21 1.25ZM12 4C13.8856 4 14.8283 4.00015 15.4141 4.58594C15.9999 5.17172 16 6.11439 16 8V16C16 17.8856 15.9999 18.8283 15.4141 19.4141C14.8283 19.9999 13.8856 20 12 20C10.1144 20 9.17172 19.9999 8.58594 19.4141C8.00015 18.8283 8 17.8856 8 16V8C8 6.11438 8.00015 5.17172 8.58594 4.58594C9.17172 4.00015 10.1144 4 12 4Z" fill="#48465C"/>
</svg>
