<svg width="24" height="24" viewBox="0 0 24 24" fill="none" xmlns="http://www.w3.org/2000/svg">
<path d="M7.25 11C7.25 12.5188 8.48122 13.75 10 13.75H14C15.5188 13.75 16.75 12.5188 16.75 11H19.167C19.9486 11 20.3391 11.0005 20.6084 11.207C20.6777 11.2602 20.7398 11.3223 20.793 11.3916C20.9995 11.6609 21 12.0514 21 12.833V13C21 16.7495 20.9997 18.6242 20.0449 19.9385C19.7365 20.363 19.363 20.7365 18.9385 21.0449C17.6242 21.9997 15.7495 22 12 22C8.25047 22 6.37584 21.9997 5.06152 21.0449C4.63705 20.7365 4.26348 20.363 3.95508 19.9385C3.00031 18.6242 3 16.7495 3 13V12.833C3 12.0515 3.00046 11.6609 3.20703 11.3916C3.26023 11.3223 3.32227 11.2602 3.3916 11.207C3.66087 11.0005 4.05138 11 4.83301 11H7.25ZM15.25 11C15.25 11.6904 14.6904 12.25 14 12.25H10C9.30964 12.25 8.75 11.6904 8.75 11H15.25ZM6.125 2C8.54125 2 10.5 3.95875 10.5 6.375V10H6.79395V9.23535C6.79384 8.78065 6.42541 8.41217 5.9707 8.41211C4.60623 8.41211 3.5 7.30588 3.5 5.94141V4.625C3.5 3.17525 4.67525 2 6.125 2ZM17.875 2C19.3247 2.00007 20.5 3.17529 20.5 4.625V5.94141C20.5 7.30587 19.3938 8.4121 18.0293 8.41211C17.5746 8.41211 17.2062 8.78061 17.2061 9.23535V10H13.5V6.375C13.5 3.95875 15.4588 2 17.875 2Z" fill="#1C274C"/>
</svg>
