<svg width="24" height="24" viewBox="0 0 24 24" fill="none" xmlns="http://www.w3.org/2000/svg">
<path d="M12 1.25C12.4142 1.25 12.75 1.58579 12.75 2C12.75 2.41421 12.4142 2.75 12 2.75C9.62178 2.75 7.91326 2.75198 6.61328 2.92676C5.33508 3.09865 4.56472 3.42551 3.99512 3.99512C3.42551 4.56472 3.09865 5.33508 2.92676 6.61328C2.78163 7.69272 2.75552 9.05443 2.75098 10.8467L3.25781 10.4023C4.46615 9.34534 6.28751 9.40594 7.42285 10.541L11.7129 14.8311C12.1425 15.2605 12.8185 15.3189 13.3154 14.9697L13.6133 14.7607C15.0436 13.7555 16.9789 13.8716 18.2783 15.041L21.0518 17.5381C21.0591 17.4886 21.0664 17.4379 21.0732 17.3867C21.248 16.0867 21.25 14.3782 21.25 12C21.25 11.5858 21.5858 11.25 22 11.25C22.4142 11.25 22.75 11.5858 22.75 12V12.0576C22.75 14.3657 22.7502 16.1745 22.5605 17.5859C22.3662 19.0306 21.9602 20.1706 21.0654 21.0654C20.1706 21.9602 19.0306 22.3662 17.5859 22.5605C16.1745 22.7502 14.3657 22.75 12.0576 22.75H11.9424C9.63432 22.75 7.82544 22.7502 6.41406 22.5605C4.96932 22.3662 3.82938 21.9602 2.93457 21.0654C2.03977 20.1706 1.63369 19.0306 1.43945 17.5859C1.24974 16.1745 1.24999 14.3657 1.25 12.0576V11.9424C1.24999 9.63433 1.24974 7.82544 1.43945 6.41406C1.63369 4.96932 2.03976 3.82938 2.93457 2.93457C3.82938 2.03976 4.96932 1.63369 6.41406 1.43945C7.82544 1.24974 9.63433 1.24999 11.9424 1.25H12ZM6.3623 11.6025C5.7853 11.0255 4.85924 10.994 4.24512 11.5312L2.75 12.8398C2.75258 14.7883 2.77328 16.2451 2.92676 17.3867C3.09865 18.6649 3.42551 19.4352 3.99512 20.0049C4.56472 20.5745 5.33508 20.9014 6.61328 21.0732C7.91326 21.248 9.62178 21.25 12 21.25C14.3782 21.25 16.0867 21.248 17.3867 21.0732C18.6649 20.9014 19.4352 20.5745 20.0049 20.0049C20.2483 19.7614 20.4477 19.4815 20.6094 19.1406C20.5705 19.1168 20.5331 19.0892 20.498 19.0576L17.2744 16.1562C16.4948 15.4547 15.3337 15.3843 14.4756 15.9873L14.1777 16.1973C13.0845 16.9656 11.5972 16.8365 10.6523 15.8916L6.3623 11.6025ZM21.4697 1.46973C21.7626 1.17687 22.2374 1.17685 22.5303 1.46973C22.8232 1.76262 22.8232 2.23738 22.5303 2.53027L20.0605 5L22.5303 7.46973C22.8232 7.76262 22.8232 8.23738 22.5303 8.53027C22.2374 8.82315 21.7626 8.82312 21.4697 8.53027L19 6.06055L16.5303 8.53027C16.2374 8.82316 15.7626 8.82316 15.4697 8.53027C15.1769 8.23739 15.1769 7.76261 15.4697 7.46973L17.9395 5L15.4697 2.53027C15.1768 2.23738 15.1768 1.76262 15.4697 1.46973C15.7626 1.17686 16.2374 1.17685 16.5303 1.46973L19 3.93945L21.4697 1.46973Z" fill="#1C274C"/>
</svg>
