<svg width="24" height="24" viewBox="0 0 24 24" fill="none" xmlns="http://www.w3.org/2000/svg">
<path d="M12 1.25C13.0878 1.25 14.0207 1.69819 14.9922 2.43945C15.937 3.16038 17.002 4.22565 18.3486 5.57227L18.4277 5.65137C19.7744 6.99797 20.8397 8.063 21.5605 9.00781C22.3018 9.97934 22.75 10.9122 22.75 12C22.75 13.0878 22.3018 14.0207 21.5605 14.9922C20.8397 15.937 19.7744 17.002 18.4277 18.3486L18.3486 18.4277C17.002 19.7744 15.937 20.8397 14.9922 21.5605C14.0207 22.3018 13.0878 22.75 12 22.75C10.9122 22.75 9.97934 22.3018 9.00781 21.5605C8.063 20.8397 6.99797 19.7744 5.65137 18.4277L5.57227 18.3486C4.22565 17.002 3.16038 15.937 2.43945 14.9922C1.69819 14.0207 1.25 13.0878 1.25 12C1.25 10.9122 1.69819 9.97934 2.43945 9.00781C3.16037 8.06302 4.22566 6.99795 5.57227 5.65137L5.65137 5.57227C6.99795 4.22566 8.06302 3.16037 9.00781 2.43945C9.97934 1.69819 10.9122 1.25 12 1.25ZM12 2.75C11.3721 2.75 10.756 2.99239 9.91797 3.63184C9.06258 4.2845 8.06848 5.27721 6.67285 6.67285C5.27721 8.06848 4.2845 9.06258 3.63184 9.91797C2.99239 10.756 2.75 11.3721 2.75 12C2.75 12.6279 2.99239 13.2439 3.63184 14.082C4.2845 14.9374 5.2772 15.9315 6.67285 17.3271C8.06848 18.7228 9.06258 19.7155 9.91797 20.3682C10.756 21.0077 11.3721 21.25 12 21.25C12.6279 21.25 13.2439 21.0077 14.082 20.3682C14.9374 19.7155 15.9315 18.7228 17.3271 17.3271C18.7228 15.9315 19.7155 14.9374 20.3682 14.082C21.0077 13.2439 21.25 12.6279 21.25 12C21.25 11.3721 21.0077 10.756 20.3682 9.91797C19.7155 9.06258 18.7228 8.06848 17.3271 6.67285C15.9315 5.2772 14.9374 4.2845 14.082 3.63184C13.2439 2.99239 12.6279 2.75 12 2.75ZM12.7861 8.4873C13.0694 8.18512 13.5445 8.16983 13.8467 8.45312L16.5127 10.9531C16.6639 11.0949 16.75 11.2927 16.75 11.5C16.75 11.7073 16.6639 11.9051 16.5127 12.0469L13.8467 14.5469C13.5445 14.8302 13.0694 14.8148 12.7861 14.5127C12.5031 14.2106 12.5184 13.7364 12.8203 13.4531L14.1035 12.25H10.667C10.3332 12.25 9.82281 12.3502 9.41992 12.6221C9.05712 12.867 8.75 13.2655 8.75 14C8.75 14.4142 8.41421 14.75 8 14.75C7.58579 14.75 7.25 14.4142 7.25 14C7.25 12.7345 7.83176 11.883 8.58008 11.3779C9.28829 10.8998 10.1119 10.75 10.667 10.75H14.1035L12.8203 9.54688C12.5183 9.26362 12.5031 8.78944 12.7861 8.4873Z" fill="#48465C"/>
</svg>
