<svg width="24" height="24" viewBox="0 0 24 24" fill="none" xmlns="http://www.w3.org/2000/svg">
<path d="M7.50037 18.0005C8.32864 18.0007 9.00037 18.6722 9.00037 19.5005C9.00018 20.3287 8.32853 21.0003 7.50037 21.0005C6.67205 21.0005 6.00055 20.3288 6.00037 19.5005C6.00037 18.6721 6.67194 18.0005 7.50037 18.0005ZM16.5004 18.0005C17.3286 18.0007 18.0004 18.6722 18.0004 19.5005C18.0002 20.3286 17.3285 21.0003 16.5004 21.0005C15.6721 21.0005 15.0006 20.3287 15.0004 19.5005C15.0004 18.6721 15.672 18.0005 16.5004 18.0005ZM2.08435 2.75146C2.22178 2.36086 2.64974 2.15524 3.04041 2.29248L3.34216 2.39893C3.95841 2.61557 4.48195 2.79935 4.89392 3.00146C5.33443 3.21762 5.71231 3.48424 5.99646 3.8999C6.27844 4.31255 6.39488 4.76583 6.44861 5.26221C6.47264 5.48434 6.48587 5.73026 6.49255 6.00049H17.1302C18.8151 6.00049 20.3317 6.00067 20.7758 6.57764C21.2198 7.15472 21.0467 8.02412 20.6996 9.76318L20.1996 12.188C19.8845 13.7168 19.7269 14.4816 19.1752 14.9312C18.6235 15.3805 17.843 15.3804 16.2826 15.3804H10.9789C8.1902 15.3804 6.79544 15.3801 5.92908 14.4663C5.06295 13.5526 4.99939 12.5814 4.99939 9.64014V7.03857C4.99939 6.2987 4.99856 5.80353 4.9574 5.42334C4.91807 5.06 4.84844 4.87866 4.75818 4.74658C4.67014 4.61774 4.53685 4.49688 4.23376 4.34814C3.91092 4.18973 3.47169 4.03404 2.80408 3.79932L2.54333 3.70752C2.15256 3.57013 1.94697 3.14222 2.08435 2.75146ZM15.517 8.45752C15.2172 8.17199 14.7431 8.18331 14.4574 8.48291L12.1429 10.9126L11.5433 10.2827C11.2576 9.98289 10.7826 9.97174 10.4828 10.2573C10.1829 10.543 10.1717 11.0179 10.4574 11.3179L11.6 12.5181C11.7415 12.6665 11.9378 12.7505 12.1429 12.7505C12.348 12.7505 12.5443 12.6665 12.6859 12.5181L15.5433 9.51807C15.829 9.21812 15.817 8.74319 15.517 8.45752Z" fill="#48465C"/>
</svg>
