<svg width="24" height="24" viewBox="0 0 24 24" fill="none" xmlns="http://www.w3.org/2000/svg">
<path d="M17.2861 17.3232C17.9143 19.6147 18.2278 20.7603 17.8086 21.3877C17.6617 21.6074 17.4649 21.784 17.2363 21.9004C16.5837 22.2327 15.5758 21.7083 13.5605 20.6582C12.89 20.3088 12.5544 20.1337 12.1982 20.0957C12.0664 20.0817 11.9336 20.0817 11.8018 20.0957C11.4456 20.1337 11.11 20.3088 10.4395 20.6582C8.42415 21.7083 7.41629 22.2327 6.76367 21.9004C6.53504 21.784 6.33829 21.6074 6.19141 21.3877C5.77227 20.7603 6.08561 19.6147 6.71387 17.3232L7.09277 15.9414C8.47891 16.9231 10.1722 17.5 12 17.5C13.8278 17.5 15.521 16.9231 16.9072 15.9414L17.2861 17.3232ZM12 2C15.866 2 19 5.13401 19 9C19 12.866 15.866 16 12 16C8.13401 16 5 12.866 5 9C5 5.13401 8.13401 2 12 2Z" fill="#1C274C"/>
</svg>
