<svg width="24" height="24" viewBox="0 0 24 24" fill="none" xmlns="http://www.w3.org/2000/svg">
<path d="M6.99988 20C7.55216 20 7.99988 20.4477 7.99988 21C7.99988 21.5523 7.55216 22 6.99988 22C6.44766 21.9999 5.99988 21.5522 5.99988 21C5.99988 20.4478 6.44766 20.0001 6.99988 20ZM16.9999 20C17.5522 20 17.9999 20.4477 17.9999 21C17.9999 21.5523 17.5522 22 16.9999 22C16.4477 21.9999 15.9999 21.5522 15.9999 21C15.9999 20.4478 16.4477 20.0001 16.9999 20ZM20.4423 16.498C20.7194 16.1902 21.1939 16.1653 21.5018 16.4424C21.8097 16.7195 21.8346 17.1941 21.5575 17.502L20.9491 18.1777C20.0483 19.1785 18.7652 19.7499 17.4188 19.75H6.58191C5.23535 19.75 3.95146 19.1786 3.05066 18.1777L2.44226 17.502C2.16524 17.1941 2.1902 16.7195 2.49792 16.4424C2.80576 16.1653 3.28037 16.1903 3.5575 16.498L4.16589 17.1738C4.78223 17.8587 5.66058 18.25 6.58191 18.25H17.4188C18.34 18.2499 19.2175 17.8586 19.8339 17.1738L20.4423 16.498ZM11.3319 5.3457C12.0228 4.91393 12.8819 4.84804 13.6307 5.16895C15.3576 5.90933 15.6712 8.22371 14.204 9.39746L13.7587 9.75391C13.6755 9.82046 13.6506 9.84053 13.6356 9.85352C13.0136 10.3908 13.0708 11.3723 13.7509 11.834C13.7672 11.845 13.7996 11.8659 13.9032 11.9307L13.913 11.9365C13.9819 11.9796 14.029 12.0088 14.0702 12.0361C15.0899 12.7114 15.7167 13.8418 15.7489 15.0645C15.7502 15.1137 15.7499 15.1651 15.7499 15.2393V16.5C15.7499 16.9142 15.4141 17.25 14.9999 17.25C14.5857 17.2499 14.2499 16.9142 14.2499 16.5V15.25C14.2499 15.1626 14.2496 15.1316 14.2489 15.1045C14.2296 14.3709 13.8539 13.6922 13.2421 13.2871L13.1483 13.2275C13.1365 13.2202 13.1233 13.2115 13.1083 13.2021L13.0917 13.1924C13.0112 13.1422 12.9514 13.1046 12.9081 13.0752C11.412 12.0595 11.2868 9.90092 12.6552 8.71875C12.6947 8.68455 12.7442 8.64495 12.8094 8.59277L13.2675 8.22656C13.8498 7.7607 13.7251 6.84187 13.0399 6.54785C12.7426 6.42047 12.4011 6.44677 12.1268 6.61816L8.89734 8.63672C8.54611 8.85604 8.08361 8.74863 7.86414 8.39746C7.64484 8.04625 7.75127 7.58373 8.10242 7.36426L11.3319 5.3457ZM10.4696 13.4697C10.7625 13.1768 11.2372 13.1769 11.5302 13.4697C11.8231 13.7626 11.8231 14.2374 11.5302 14.5303C10.4292 15.6313 8.93589 16.25 7.37878 16.25H6.99988C6.58574 16.2499 6.24989 15.9141 6.24988 15.5C6.24988 15.0859 6.58573 14.7501 6.99988 14.75H7.37878C8.53806 14.75 9.64982 14.2895 10.4696 13.4697ZM20.3182 9.27246C20.72 9.17204 21.127 9.41653 21.2274 9.81836C21.3279 10.2202 21.0834 10.627 20.6815 10.7275C19.2491 11.0855 17.7507 11.0856 16.3182 10.7275C15.9165 10.627 15.6719 10.2201 15.7723 9.81836C15.8728 9.41667 16.2799 9.17232 16.6815 9.27246C17.8752 9.57089 19.1245 9.57089 20.3182 9.27246ZM18.9999 1.25C20.5187 1.25 21.7499 2.48122 21.7499 4C21.7499 5.51878 20.5187 6.75 18.9999 6.75C17.4812 6.74991 16.2499 5.51873 16.2499 4C16.2499 2.48127 17.4812 1.25009 18.9999 1.25ZM18.9999 2.75C18.3096 2.75009 17.7499 3.30969 17.7499 4C17.7499 4.69031 18.3096 5.24991 18.9999 5.25C19.6903 5.25 20.2499 4.69036 20.2499 4C20.2499 3.30964 19.6903 2.75 18.9999 2.75Z" fill="#1C274C"/>
</svg>
