<svg width="24" height="24" viewBox="0 0 24 24" fill="none" xmlns="http://www.w3.org/2000/svg">
<path fill-rule="evenodd" clip-rule="evenodd" d="M12 1.25C12.4142 1.25 12.75 1.58579 12.75 2V2.25H13.0566C14.8943 2.24998 16.3501 2.25017 17.4893 2.40332C18.6615 2.56096 19.6101 2.89332 20.3584 3.6416C21.1066 4.38992 21.439 5.33844 21.5967 6.51074C21.7498 7.6499 21.75 9.1057 21.75 10.9434V13.0566C21.75 14.8943 21.7498 16.3501 21.5967 17.4893C21.439 18.6615 21.1066 19.6101 20.3584 20.3584C19.6101 21.1066 18.6615 21.439 17.4893 21.5967C16.3501 21.7498 14.8943 21.75 13.0566 21.75H12.75V22C12.75 22.4142 12.4142 22.75 12 22.75C11.5858 22.75 11.25 22.4142 11.25 22V2C11.25 1.58579 11.5858 1.25 12 1.25ZM9.00001 20.25H9.90919C10.3234 20.25 10.6592 20.5858 10.6592 21C10.6592 21.4142 10.3234 21.75 9.90919 21.75H8.99805C8.5643 21.75 8.15897 21.7503 7.78419 21.7471C7.3702 21.7432 7.03745 21.4043 7.04102 20.9902C7.04464 20.5761 7.38369 20.2435 7.79786 20.2471C8.16552 20.2503 8.56391 20.25 9.00001 20.25ZM3.05469 18.3711C3.45021 18.2483 3.87025 18.4698 3.99317 18.8652C4.09298 19.1863 4.22778 19.4094 4.40919 19.5908C4.59059 19.7723 4.81376 19.907 5.13477 20.0068C5.53029 20.1297 5.75177 20.5497 5.62891 20.9453C5.50603 21.3407 5.08584 21.5621 4.69044 21.4395C4.17505 21.2793 3.72823 21.0309 3.34864 20.6514C2.96907 20.2718 2.72073 19.825 2.56055 19.3096C2.43798 18.9141 2.65932 18.4939 3.05469 18.3711ZM12.75 20.25H13C14.9068 20.25 16.2615 20.2485 17.2891 20.1104C18.2952 19.9752 18.8747 19.721 19.2979 19.2979C19.7211 18.8747 19.9752 18.2951 20.1104 17.2891C20.2485 16.2614 20.25 14.9067 20.25 13V11C20.25 9.09325 20.2485 7.7386 20.1104 6.71094C19.9752 5.70485 19.7211 5.12536 19.2979 4.70215C18.8747 4.27894 18.2951 4.02491 17.2891 3.88965C16.2614 3.7515 14.9067 3.75 13 3.75H12.75V20.25ZM3.00001 12.8867C3.41422 12.8867 3.75001 13.2225 3.75001 13.6367V15C3.75001 15.4361 3.74977 15.8345 3.75294 16.2021C3.75651 16.6163 3.42393 16.9553 3.00977 16.959C2.59571 16.9626 2.25674 16.6298 2.25294 16.2158C2.24971 15.8409 2.25001 15.4358 2.25001 15.002V13.6367C2.25001 13.2225 2.5858 12.8867 3.00001 12.8867ZM3.00977 7.04102C3.42393 7.04464 3.75651 7.38369 3.75294 7.79785C3.74977 8.16551 3.75001 8.56391 3.75001 9V10.3633C3.75001 10.7776 3.41422 11.1133 3.00001 11.1133C2.5858 11.1133 2.25001 10.7776 2.25001 10.3633V8.99805C2.25001 8.56423 2.24971 8.15901 2.25294 7.78418C2.25676 7.37019 2.59572 7.03745 3.00977 7.04102ZM4.69044 2.56055C5.08584 2.43795 5.50603 2.6593 5.62891 3.05469C5.75177 3.45021 5.53029 3.87024 5.13477 3.99316C4.81376 4.09297 4.59059 4.22777 4.40919 4.40918C4.22778 4.59059 4.09298 4.81375 3.99317 5.13477C3.87025 5.53028 3.45022 5.75177 3.05469 5.62891C2.65931 5.50603 2.43796 5.08583 2.56055 4.69043C2.72073 4.17504 2.96905 3.72822 3.34864 3.34863C3.72823 2.96904 4.17505 2.72073 4.69044 2.56055ZM9.90919 2.25C10.3234 2.25004 10.6592 2.58582 10.6592 3C10.6592 3.41418 10.3234 3.74996 9.90919 3.75H9.00001C8.56391 3.75 8.16551 3.74976 7.79786 3.75293C7.38369 3.7565 7.04465 3.42392 7.04102 3.00977C7.03745 2.59572 7.3702 2.25675 7.78419 2.25293C8.15902 2.2497 8.56423 2.25 8.99805 2.25H9.90919Z" fill="#1C274C"/>
</svg>
