<svg width="24" height="24" viewBox="0 0 24 24" fill="none" xmlns="http://www.w3.org/2000/svg">
<path d="M3.98242 3.0752C4.95876 3.1352 6.11351 3.25339 7 3.4873C8.04921 3.76417 9.29604 4.35453 10.2822 4.87598C10.5892 5.0383 10.9158 5.15038 11.25 5.21387V20.3926C10.9471 20.3258 10.6512 20.2181 10.3721 20.0693C9.37266 19.5367 8.08134 18.9191 7 18.6338C6.12329 18.4024 4.98407 18.2834 4.01465 18.2227C2.90594 18.1532 2 17.2545 2 16.1436V4.99805C2 3.89988 2.88632 3.00783 3.98242 3.0752ZM20.082 3.01758C21.1538 2.98026 22 3.86117 22 4.93359V16.1436C22 17.2545 21.0941 18.1532 19.9854 18.2227C19.016 18.2834 17.8767 18.4024 17 18.6338C15.9186 18.9191 14.6274 19.5367 13.6279 20.0693C13.3488 20.2181 13.0529 20.3258 12.75 20.3926V5.17383C13.0707 5.09526 13.3824 4.9714 13.6738 4.80273C13.8581 4.69611 14.0513 4.58724 14.25 4.47949V7.53711C14.2498 7.64833 14.2503 7.80725 14.2715 7.94336C14.2975 8.10974 14.3826 8.4307 14.7148 8.62598C15.0352 8.81409 15.349 8.74454 15.498 8.69824C15.6278 8.6579 15.7698 8.58963 15.876 8.53906L17 8.00586L18.124 8.53906C18.2301 8.58958 18.3722 8.65787 18.502 8.69824C18.6509 8.74454 18.9648 8.81409 19.2852 8.62598C19.6176 8.43067 19.7035 8.10977 19.7295 7.94336C19.7508 7.80726 19.7502 7.64833 19.75 7.53711V3.03125C19.8628 3.02595 19.9737 3.02135 20.082 3.01758ZM5.18164 12.2725C4.77993 12.1722 4.37288 12.4167 4.27246 12.8184C4.17209 13.2201 4.41655 13.6271 4.81836 13.7275L8.81836 14.7275C9.22019 14.828 9.62708 14.5834 9.72754 14.1816C9.8278 13.7799 9.58338 13.3729 9.18164 13.2725L5.18164 12.2725ZM19.7275 12.8184C19.627 12.4166 19.2201 12.172 18.8184 12.2725L14.8184 13.2725C14.4166 13.3729 14.1722 13.78 14.2725 14.1816C14.3728 14.5833 14.7799 14.8278 15.1816 14.7275L19.1816 13.7275C19.5834 13.627 19.8279 13.2202 19.7275 12.8184ZM5.18164 8.27246C4.77993 8.17228 4.37288 8.41665 4.27246 8.81836C4.17209 9.22016 4.41655 9.62709 4.81836 9.72754L8.81836 10.7275C9.22019 10.828 9.62708 10.5834 9.72754 10.1816C9.8278 9.77991 9.58338 9.37289 9.18164 9.27246L5.18164 8.27246ZM18.25 6.93848L17.501 6.58301L17.4922 6.57812C17.453 6.5581 17.3128 6.4869 17.1377 6.45898C17.0937 6.45199 17.0474 6.44727 17 6.44727C16.7637 6.44732 16.5568 6.55307 16.5078 6.57812L16.499 6.58301L15.75 6.93848V3.75684C16.0062 3.65185 16.2585 3.55961 16.5 3.4873C17.0205 3.33148 17.63 3.22466 18.25 3.15137V6.93848Z" fill="#1C274C"/>
</svg>
