<svg width="24" height="24" viewBox="0 0 24 24" fill="none" xmlns="http://www.w3.org/2000/svg">
<path d="M4.71774 3.09178C5.94391 1.80092 7.97172 2.04307 8.98532 3.47655L10.247 5.25975C11.0577 6.40641 10.989 8.00086 10.0215 9.01951L9.77634 9.27733C9.77567 9.27905 9.77509 9.28118 9.77438 9.28319C9.76139 9.31978 9.72857 9.43591 9.76071 9.65526C9.82759 10.1109 10.18 11.0363 11.6074 12.539C13.0394 14.0467 13.9079 14.4024 14.3105 14.4678C14.4836 14.4959 14.5743 14.4712 14.6035 14.4609L15.0127 14.0312C15.8864 13.1113 17.2483 12.9303 18.3466 13.5625L20.2578 14.6621C21.8904 15.6021 22.2704 17.9006 20.9658 19.2744L19.5449 20.7705C19.1015 21.2372 18.497 21.6353 17.75 21.709C15.9262 21.8891 11.7008 21.6545 7.27145 16.9912C3.13851 12.6398 2.35313 8.85503 2.25388 7.00584C2.20486 6.0922 2.61257 5.30826 3.14841 4.74412L4.71774 3.09178ZM7.76071 4.34276C7.24839 3.61816 6.32849 3.57465 5.80563 4.12498L4.23532 5.77733C3.90404 6.12618 3.7305 6.52652 3.75192 6.92576C3.83302 8.43569 4.48359 11.8775 8.35934 15.958C12.4233 20.2366 16.1673 20.3583 17.6025 20.2168C17.8861 20.1888 18.1781 20.0308 18.457 19.7373L19.8779 18.2412C20.4904 17.596 20.3301 16.4344 19.5097 15.9619L17.5986 14.8623C17.0859 14.5672 16.4851 14.6587 16.0996 15.0644L15.6445 15.5439L15.1172 15.043C15.6269 15.5271 15.6436 15.5436 15.6435 15.5449L15.6181 15.5703C15.608 15.5802 15.5962 15.5909 15.583 15.6025C15.5561 15.6261 15.5224 15.6533 15.4824 15.6816C15.4023 15.7384 15.2959 15.8013 15.1611 15.8545C14.8852 15.9633 14.5204 16.0212 14.0703 15.9482C13.1928 15.8057 12.0424 15.1755 10.5195 13.5722C8.99216 11.9642 8.40705 10.7642 8.27634 9.87205C8.20989 9.41821 8.26365 9.05475 8.3613 8.78026C8.40931 8.64533 8.46624 8.53777 8.51852 8.45604C8.54461 8.41527 8.56881 8.38029 8.59079 8.35252C8.60172 8.33871 8.61272 8.3271 8.62204 8.31639L8.63474 8.30076L8.64548 8.29002C8.64617 8.28929 8.64719 8.28814 9.17868 8.79295L8.64743 8.28807L8.93356 7.98631C9.37903 7.51733 9.44433 6.72299 9.02243 6.12596L7.76071 4.34276ZM14.1211 1.25975C14.1463 1.26459 14.2278 1.27954 14.2705 1.28905C14.3558 1.30804 14.4748 1.33766 14.623 1.38084C14.9198 1.46727 15.3345 1.60981 15.832 1.83787C16.8283 2.29463 18.1544 3.09391 19.5302 4.46971C20.9059 5.8454 21.7054 7.17075 22.1621 8.16698C22.3902 8.66451 22.5327 9.07919 22.6191 9.37596C22.6623 9.52437 22.6909 9.64416 22.7099 9.72948C22.7194 9.77184 22.7266 9.80583 22.7314 9.83104L22.7373 9.86229C22.8034 10.271 22.5288 10.6739 22.1201 10.7402C21.7124 10.8062 21.3275 10.5299 21.2597 10.123C21.2576 10.1119 21.2521 10.0823 21.2461 10.0547C21.2337 9.99928 21.2124 9.91167 21.1787 9.79588C21.111 9.56355 20.993 9.21766 20.7978 8.79198C20.408 7.94175 19.7072 6.76782 18.4697 5.53026C17.2319 4.2924 16.0573 3.59098 15.207 3.20115C14.7816 3.00615 14.4364 2.88895 14.2041 2.82127C14.0882 2.7875 13.9423 2.75358 13.8867 2.74119C13.4797 2.67337 13.1938 2.28758 13.2597 1.87987C13.3259 1.471 13.7122 1.19361 14.1211 1.25975ZM13.4863 5.32908C13.6002 4.93101 14.0149 4.70079 14.4131 4.81444H14.415L14.416 4.81541L14.4277 4.81834L14.4472 4.8242C14.4623 4.82903 14.4814 4.83577 14.5039 4.84373C14.5487 4.85966 14.608 4.88195 14.6806 4.91307C14.8263 4.97547 15.0251 5.07217 15.2695 5.21678C15.759 5.50647 16.428 5.98746 17.2129 6.77244C17.9978 7.55739 18.4788 8.22635 18.7685 8.7158C18.9131 8.96013 19.0099 9.15906 19.0722 9.30467C19.1033 9.37725 19.1257 9.43658 19.1416 9.48143C19.1496 9.50388 19.1563 9.523 19.1611 9.53807L19.167 9.5576L19.1699 9.56932L19.1709 9.5703C19.171 9.57066 19.1711 9.5723 18.4502 9.7783L19.1709 9.57225C19.2845 9.97036 19.0543 10.3851 18.6562 10.499C18.2613 10.6119 17.8493 10.3862 17.7314 9.99412L17.7285 9.98338C17.7232 9.96836 17.7118 9.93867 17.6933 9.89549C17.6563 9.80917 17.5891 9.66801 17.4775 9.47948C17.2545 9.10274 16.8522 8.53293 16.1523 7.83299C15.4523 7.13303 14.8826 6.73077 14.5058 6.5078C14.3173 6.39619 14.1761 6.32899 14.0898 6.29198C14.0466 6.27347 14.0169 6.26216 14.0019 6.25682L13.9912 6.25389C13.5991 6.13601 13.3735 5.72397 13.4863 5.32908Z" fill="#1C274C"/>
</svg>
