<svg width="24" height="24" viewBox="0 0 24 24" fill="none" xmlns="http://www.w3.org/2000/svg">
<path d="M4.19434 12.7188C5.18409 11.6747 6.81591 11.6747 7.80566 12.7188C8.40631 13.3526 9.1242 14.1783 9.69629 15.0449C10.2497 15.8833 10.75 16.8808 10.75 17.833C10.75 20.5192 8.65191 22.75 6 22.75C3.34809 22.75 1.25 20.5192 1.25 17.833C1.25 16.8808 1.75032 15.8833 2.30371 15.0449C2.8758 14.1783 3.59369 13.3526 4.19434 12.7188ZM16.1943 12.7188C17.1841 11.6746 18.8159 11.6746 19.8057 12.7188C20.4064 13.3526 21.1242 14.1783 21.6963 15.0449C22.2497 15.8833 22.75 16.8808 22.75 17.833C22.75 20.5192 20.6519 22.75 18 22.75C15.3481 22.75 13.25 20.5192 13.25 17.833C13.25 16.8808 13.7503 15.8833 14.3037 15.0449C14.8758 14.1783 15.5936 13.3526 16.1943 12.7188ZM6.71777 13.751C6.31958 13.3308 5.68042 13.3308 5.28223 13.751C4.71067 14.354 4.0595 15.1078 3.55566 15.8711C3.03308 16.6627 2.75 17.3455 2.75 17.833C2.75 19.7491 4.23364 21.25 6 21.25C7.76636 21.25 9.25 19.7491 9.25 17.833C9.25 17.3455 8.96692 16.6627 8.44434 15.8711C7.9405 15.1078 7.28933 14.354 6.71777 13.751ZM18.7178 13.751C18.3196 13.3308 17.6804 13.3308 17.2822 13.751C16.7106 14.354 16.0595 15.1078 15.5557 15.8711C15.0331 16.6627 14.75 17.3455 14.75 17.833C14.75 19.7491 16.2336 21.25 18 21.25C19.7664 21.25 21.25 19.7491 21.25 17.833C21.25 17.3455 20.9669 16.6627 20.4443 15.8711C19.9405 15.1078 19.2894 14.354 18.7178 13.751ZM10.1943 2.71875C11.1841 1.6746 12.8159 1.6746 13.8057 2.71875C14.4064 3.35251 15.1242 4.1783 15.6963 5.04492C16.2497 5.88327 16.75 6.88077 16.75 7.83301C16.75 10.5192 14.6519 12.75 12 12.75C9.34809 12.75 7.25 10.5192 7.25 7.83301C7.25 6.88077 7.75032 5.88327 8.30371 5.04492C8.8758 4.1783 9.59366 3.35251 10.1943 2.71875ZM12.7178 3.75C12.3196 3.32993 11.6804 3.32993 11.2822 3.75C10.7105 4.35316 10.0596 5.10767 9.55566 5.87109C9.03309 6.66272 8.75 7.34552 8.75 7.83301C8.75 9.74912 10.2336 11.25 12 11.25C13.7664 11.25 15.25 9.74912 15.25 7.83301C15.25 7.34551 14.9669 6.66273 14.4443 5.87109C13.9403 5.10767 13.2895 4.35316 12.7178 3.75Z" fill="#1C274C"/>
</svg>
