<svg width="24" height="24" viewBox="0 0 24 24" fill="none" xmlns="http://www.w3.org/2000/svg">
<path d="M14.791 4.84619C18.7725 4.84636 22 8.04963 22 12.0005C21.9998 15.9512 18.7724 19.1536 14.791 19.1538H14.6143L15.2842 19.8179C15.5567 20.0881 15.5566 20.5271 15.2842 20.7974C15.0119 21.0677 14.5703 21.0675 14.2979 20.7974L12.4365 18.9517C12.237 18.7537 12.1781 18.4555 12.2861 18.1968C12.3942 17.9381 12.6485 17.769 12.9307 17.769H14.791C18.0018 17.7689 20.6043 15.1865 20.6045 12.0005C20.6045 8.81433 18.0019 6.23112 14.791 6.23096H14.3252C13.9401 6.23074 13.6279 5.92079 13.6279 5.53857C13.6279 5.15637 13.9401 4.84641 14.3252 4.84619H14.791ZM8.71582 3.20264C8.98816 2.93244 9.42967 2.93265 9.70215 3.20264L11.5635 5.04932C11.7627 5.24729 11.8218 5.54469 11.7139 5.80322C11.6059 6.06191 11.3515 6.23096 11.0693 6.23096H9.20898C5.99817 6.23113 3.39551 8.81433 3.39551 12.0005C3.39572 15.1865 5.9991 17.769 9.20996 17.769H9.6748C10.0598 17.7692 10.372 18.0793 10.3721 18.4614C10.3721 18.8437 10.0599 19.1536 9.6748 19.1538H9.20996C5.22854 19.1538 2.00021 15.9513 2 12.0005C2 8.04963 5.22754 4.84636 9.20898 4.84619H9.38574L8.71582 4.18213C8.44336 3.91177 8.44336 3.47301 8.71582 3.20264ZM14.791 8.30811C16.8459 8.30827 18.5117 9.96138 18.5117 12.0005C18.5115 14.0394 16.8457 15.6917 14.791 15.6919H9.20898C7.15428 15.6917 5.48853 14.0394 5.48828 12.0005C5.48828 9.96138 7.15412 8.30828 9.20898 8.30811H14.791Z" fill="#1C274C"/>
</svg>
