<svg width="24" height="24" viewBox="0 0 24 24" fill="none" xmlns="http://www.w3.org/2000/svg">
<path d="M12 1.25C16.5563 1.25 20.25 4.94365 20.25 9.5C20.25 11.9426 19.1875 14.138 17.502 15.6475C16.9402 16.1505 16.5235 16.5236 16.2285 16.7939C16.081 16.9292 15.968 17.0351 15.8848 17.1162C15.8433 17.1566 15.8118 17.1891 15.7881 17.2139C15.7765 17.226 15.7671 17.2351 15.7607 17.2422C15.7545 17.2492 15.7521 17.2527 15.752 17.2529C15.4924 17.5733 15.4359 17.6565 15.4023 17.7314C15.3687 17.8064 15.3439 17.9045 15.2783 18.3125C15.2525 18.4737 15.25 18.7498 15.25 19.5V19.5322C15.25 19.972 15.2499 20.3518 15.2217 20.6631C15.1919 20.9921 15.1255 21.3179 14.9482 21.625C14.7508 21.9669 14.4669 22.2508 14.125 22.4482C13.8179 22.6255 13.4921 22.6919 13.1631 22.7217C12.8518 22.7499 12.472 22.75 12.0322 22.75H11.9678C11.528 22.75 11.1481 22.7499 10.8369 22.7217C10.5079 22.6919 10.182 22.6255 9.875 22.4482C9.53308 22.2508 9.2492 21.9669 9.05176 21.625C8.87446 21.3179 8.80818 20.9921 8.77832 20.6631C8.75011 20.3518 8.74998 19.972 8.75 19.5322V19.5C8.75 18.7498 8.74753 18.4737 8.72168 18.3125C8.65604 17.9045 8.6312 17.8064 8.59766 17.7314C8.5641 17.6565 8.50757 17.5732 8.24805 17.2529C8.24781 17.2526 8.24519 17.2488 8.23926 17.2422C8.2329 17.2351 8.22352 17.226 8.21191 17.2139C8.18829 17.1891 8.15669 17.1566 8.11523 17.1162C8.03199 17.0351 7.91899 16.9292 7.77148 16.7939C7.47649 16.5236 7.05981 16.1504 6.49805 15.6475C4.81248 14.138 3.75 11.9426 3.75 9.5C3.75 4.94365 7.44365 1.25 12 1.25ZM10.2725 20.5273C10.2929 20.7524 10.327 20.8341 10.3506 20.875C10.4164 20.989 10.511 21.0836 10.625 21.1494C10.6659 21.173 10.7476 21.2071 10.9727 21.2275C11.2082 21.2489 11.5189 21.25 12 21.25C12.4811 21.25 12.7918 21.2489 13.0273 21.2275C13.2524 21.2071 13.3341 21.173 13.375 21.1494C13.489 21.0836 13.5836 20.989 13.6494 20.875C13.673 20.8341 13.7071 20.7524 13.7275 20.5273C13.735 20.4453 13.7399 20.3542 13.7432 20.25H10.2568C10.2601 20.3542 10.265 20.4453 10.2725 20.5273ZM12 2.75C8.27208 2.75 5.25 5.77208 5.25 9.5C5.25 11.4985 6.11759 13.2933 7.49902 14.5303L7.50391 14.5342C8.06039 15.0325 8.48288 15.4113 8.78516 15.6885C9.06963 15.9492 9.29488 16.1628 9.41309 16.3086L9.42676 16.3242C9.648 16.5972 9.84064 16.8355 9.96777 17.1201C10.0949 17.4045 10.1434 17.7068 10.1992 18.0537L10.2021 18.0742C10.2307 18.2521 10.2426 18.4703 10.2471 18.75H13.7529C13.7574 18.4703 13.7693 18.2521 13.7979 18.0742L13.8008 18.0537C13.8566 17.7068 13.9051 17.4045 14.0322 17.1201C14.1594 16.8355 14.3521 16.5972 14.5732 16.3242L14.5869 16.3086C14.7051 16.1628 14.9304 15.9493 15.2148 15.6885C15.5172 15.4113 15.9406 15.0325 16.4971 14.5342L16.501 14.5303C17.8824 13.2933 18.75 11.4984 18.75 9.5C18.75 5.77208 15.7279 2.75 12 2.75ZM13.083 13.624C13.2905 13.2656 13.7499 13.1432 14.1084 13.3506C14.4667 13.558 14.5892 14.0175 14.3818 14.376C14.0286 14.9866 13.4453 15.4497 12.75 15.6465V17C12.75 17.4142 12.4142 17.75 12 17.75C11.5858 17.75 11.25 17.4142 11.25 17V15.6465C10.5547 15.4497 9.97145 14.9865 9.61816 14.376C9.4108 14.0176 9.53322 13.558 9.8916 13.3506C10.2501 13.1432 10.7095 13.2656 10.917 13.624C11.1342 13.9995 11.5383 14.25 12 14.25C12.4617 14.25 12.8658 13.9995 13.083 13.624Z" fill="#1C274C"/>
</svg>
