<svg width="24" height="24" viewBox="0 0 24 24" fill="none" xmlns="http://www.w3.org/2000/svg">
<path d="M10.1396 4.8125C10.8055 4.81196 11.3694 5.12599 11.9033 5.5459C12.4248 5.95611 13.0253 6.55659 13.7607 7.29199L14.1963 7.72754C14.9317 8.46292 15.5322 9.06344 15.9424 9.58496C16.3623 10.1189 16.6763 10.6829 16.6758 11.3486C16.6754 11.7211 16.5992 12.0894 16.4521 12.4316C16.1893 13.0434 15.678 13.4374 15.0811 13.7617C14.498 14.0784 13.7095 14.3918 12.7432 14.7764L12.5518 14.8525C11.9397 15.0962 11.7787 15.1688 11.6553 15.2666C11.5465 15.3528 11.4526 15.4563 11.3779 15.5732C11.2932 15.706 11.2385 15.8739 11.0586 16.5078L11.0488 16.542C10.9274 16.9697 10.821 17.3426 10.708 17.6309C10.5931 17.9244 10.4266 18.2537 10.1133 18.4834C9.75315 18.7474 9.30544 18.8638 8.8623 18.8086C8.47714 18.7605 8.17192 18.5546 7.92871 18.3545C7.68963 18.1577 7.41506 17.8839 7.10059 17.5693L6.04004 16.5088L3.87695 18.6719C3.5841 18.9647 3.1093 18.9647 2.81641 18.6719C2.52352 18.3791 2.52352 17.9042 2.81641 17.6113L4.97949 15.4482L3.91895 14.3877C3.60442 14.0733 3.33056 13.7986 3.13379 13.5596C2.93366 13.3163 2.72774 13.0111 2.67969 12.626C2.62454 12.1828 2.74087 11.7351 3.00488 11.375C3.23461 11.0616 3.56396 10.8952 3.85742 10.7803C4.14574 10.6673 4.51849 10.5609 4.94629 10.4395L4.98047 10.4297C5.61381 10.25 5.78134 10.1949 5.91406 10.1104C6.03117 10.0356 6.13537 9.94184 6.22168 9.83301C6.31947 9.70957 6.39213 9.54862 6.63574 8.93652L6.71191 8.74512C7.09647 7.77882 7.40982 6.99027 7.72656 6.40723C8.05089 5.81025 8.44482 5.29901 9.05664 5.03613C9.39885 4.8891 9.76724 4.81282 10.1396 4.8125ZM22 16.25C22.4142 16.25 22.75 16.5858 22.75 17C22.7497 17.4139 22.414 17.75 22 17.75H13C12.586 17.75 12.2503 17.414 12.25 17C12.25 16.5858 12.5858 16.25 13 16.25H22ZM10.1406 6.3125C9.97142 6.3127 9.80386 6.34729 9.64844 6.41406C9.4983 6.47862 9.31099 6.63339 9.04492 7.12305C8.77608 7.61792 8.49416 8.32244 8.08691 9.3457L7.99512 9.57617C7.80178 10.063 7.64941 10.4466 7.39746 10.7646C7.20753 11.0043 6.9785 11.2105 6.7207 11.375C6.37871 11.593 5.98239 11.706 5.47852 11.8486L5.38965 11.873C4.91746 12.0071 4.61643 12.0936 4.4043 12.1768C4.27354 12.228 4.22144 12.2621 4.20703 12.2725C4.17695 12.3183 4.16301 12.373 4.16699 12.4277C4.17471 12.4442 4.20347 12.4988 4.29199 12.6064C4.43683 12.7823 4.65845 13.005 5.00586 13.3525L6.56152 14.9092L6.57031 14.917L8.13574 16.4824C8.48315 16.8299 8.70587 17.0515 8.88184 17.1963C8.98955 17.285 9.04416 17.3136 9.06055 17.3213C9.11526 17.3253 9.16994 17.3113 9.21582 17.2812C9.22622 17.2669 9.26031 17.2147 9.31152 17.084C9.39459 16.8719 9.48121 16.5708 9.61523 16.0986L9.63965 16.0098C9.78227 15.5059 9.89526 15.1096 10.1133 14.7676C10.2778 14.5097 10.484 14.2808 10.7236 14.0908C11.0417 13.8389 11.4253 13.6864 11.9121 13.4932L12.1426 13.4014C13.1658 12.9941 13.8703 12.7123 14.3652 12.4434C14.8549 12.1773 15.0096 11.99 15.0742 11.8398C15.141 11.6844 15.1755 11.5169 15.1758 11.3477C15.1759 11.1843 15.1075 10.9501 14.7627 10.5117C14.4145 10.0692 13.8792 9.53245 13.1006 8.75391L12.7344 8.3877C11.9559 7.60918 11.4192 7.07378 10.9766 6.72559C10.5383 6.38075 10.304 6.31237 10.1406 6.3125ZM22 11.75C22.4142 11.75 22.75 12.0858 22.75 12.5C22.75 12.9142 22.4142 13.25 22 13.25H18C17.5858 13.25 17.25 12.9142 17.25 12.5C17.25 12.0858 17.5858 11.75 18 11.75H22ZM22 7.25C22.4142 7.25004 22.75 7.58582 22.75 8C22.75 8.41418 22.4142 8.74996 22 8.75H17C16.5858 8.75 16.25 8.41421 16.25 8C16.25 7.58579 16.5858 7.25 17 7.25H22Z" fill="#48465C"/>
</svg>
