<svg width="24" height="24" viewBox="0 0 24 24" fill="none" xmlns="http://www.w3.org/2000/svg">
<path d="M20 13.75C21.1046 13.75 22 14.6454 22 15.75C22 16.5893 21.483 17.3078 20.75 17.6045V19.75C20.75 20.1642 20.4142 20.5 20 20.5C19.5858 20.5 19.25 20.1642 19.25 19.75V17.75H4.75V19.75C4.75 20.1642 4.41421 20.5 4 20.5C3.58579 20.5 3.25 20.1642 3.25 19.75V17.6045C2.51706 17.3078 2 16.5893 2 15.75C2 14.6454 2.89543 13.75 4 13.75H20ZM12 3.75C16.481 3.75 18.7212 3.75025 19.9189 5.15332C19.9943 5.24171 20.0664 5.33312 20.1338 5.42773C21.1454 6.84689 20.7169 8.86583 19.75 12.75H4.25C3.28313 8.86581 2.85461 6.84689 3.86621 5.42773C3.93366 5.33315 4.00563 5.24169 4.08105 5.15332C5.27873 3.75029 7.51905 3.75 12 3.75Z" fill="#1C274C"/>
</svg>
