<svg width="24" height="24" viewBox="0 0 24 24" fill="none" xmlns="http://www.w3.org/2000/svg">
<path d="M12.0576 1.25C14.3657 1.24999 16.1745 1.24974 17.5859 1.43945C19.0306 1.63369 20.1706 2.03978 21.0654 2.93457C21.9602 3.82938 22.3662 4.96932 22.5605 6.41406C22.6728 7.24992 22.7187 8.22552 22.7373 9.36133C22.7458 9.40626 22.75 9.45263 22.75 9.5C22.75 9.53985 22.7472 9.57902 22.7412 9.61719C22.7503 10.3294 22.75 11.103 22.75 11.9424V12.0576C22.75 14.3657 22.7502 16.1745 22.5605 17.5859C22.3662 19.0306 21.9602 20.1706 21.0654 21.0654C20.1706 21.9602 19.0306 22.3662 17.5859 22.5605C16.1745 22.7502 14.3657 22.75 12.0576 22.75H11.9424C9.63432 22.75 7.82544 22.7502 6.41406 22.5605C4.96932 22.3662 3.82938 21.9602 2.93457 21.0654C2.03978 20.1706 1.63369 19.0306 1.43945 17.5859C1.24974 16.1745 1.24999 14.3657 1.25 12.0576V11.9424C1.25 11.103 1.24966 10.3294 1.25879 9.61719C1.2528 9.57902 1.25 9.53985 1.25 9.5C1.25 9.45262 1.2543 9.40627 1.2627 9.36133C1.28137 8.22552 1.3271 7.24992 1.43945 6.41406C1.63369 4.96932 2.03976 3.82938 2.93457 2.93457C3.82938 2.03976 4.96932 1.63369 6.41406 1.43945C7.82544 1.24974 9.63433 1.24999 11.9424 1.25H12.0576ZM9.75 21C9.75 21.0846 9.73577 21.1664 9.70996 21.2422C10.3967 21.2503 11.1563 21.25 12 21.25C14.3782 21.25 16.0867 21.248 17.3867 21.0732C18.6649 20.9014 19.4352 20.5745 20.0049 20.0049C20.5745 19.4352 20.9014 18.6649 21.0732 17.3867C21.248 16.0867 21.25 14.3782 21.25 12C21.25 11.3715 21.2495 10.7898 21.2461 10.25H9.75V21ZM2.75391 10.25C2.75052 10.7898 2.75 11.3715 2.75 12C2.75 14.3782 2.75198 16.0867 2.92676 17.3867C3.09865 18.6649 3.42551 19.4352 3.99512 20.0049C4.56472 20.5745 5.33508 20.9014 6.61328 21.0732C7.1052 21.1394 7.65627 21.1812 8.2793 21.207C8.26047 21.1413 8.25 21.0718 8.25 21V10.25H2.75391ZM12 2.75C9.62178 2.75 7.91326 2.75198 6.61328 2.92676C5.33508 3.09865 4.56472 3.42551 3.99512 3.99512C3.42551 4.56472 3.09865 5.33508 2.92676 6.61328C2.84442 7.22569 2.79978 7.92901 2.77637 8.75H21.2236C21.2002 7.92901 21.1556 7.22569 21.0732 6.61328C20.9014 5.33508 20.5745 4.56472 20.0049 3.99512C19.4352 3.42551 18.6649 3.09865 17.3867 2.92676C16.0867 2.75198 14.3782 2.75 12 2.75ZM6 5C6.55229 5 7 5.44772 7 6C7 6.55229 6.55229 7 6 7C5.44772 7 5 6.55229 5 6C5 5.44772 5.44772 5 6 5ZM9 5C9.55229 5 10 5.44772 10 6C10 6.55229 9.55229 7 9 7C8.44772 7 8 6.55229 8 6C8 5.44772 8.44772 5 9 5ZM12 5C12.5523 5 13 5.44772 13 6C13 6.55229 12.5523 7 12 7C11.4477 7 11 6.55229 11 6C11 5.44772 11.4477 5 12 5Z" fill="#48465C"/>
</svg>
