<svg width="24" height="24" viewBox="0 0 24 24" fill="none" xmlns="http://www.w3.org/2000/svg">
<path d="M7.50024 17.2505C8.74273 17.2507 9.75024 18.258 9.75024 19.5005C9.75011 20.7429 8.74264 21.7503 7.50024 21.7505C6.25769 21.7505 5.25038 20.743 5.25024 19.5005C5.25024 18.2579 6.2576 17.2505 7.50024 17.2505ZM16.5002 17.2505C17.7427 17.2507 18.7502 18.2579 18.7502 19.5005C18.7501 20.7429 17.7426 21.7503 16.5002 21.7505C15.2576 21.7505 14.2504 20.743 14.2502 19.5005C14.2502 18.2578 15.2575 17.2505 16.5002 17.2505ZM7.50024 18.7505C7.08603 18.7505 6.75024 19.0863 6.75024 19.5005C6.75038 19.9146 7.08612 20.2505 7.50024 20.2505C7.91421 20.2503 8.25011 19.9145 8.25024 19.5005C8.25024 19.0864 7.9143 18.7507 7.50024 18.7505ZM16.5002 18.7505C16.086 18.7505 15.7502 19.0863 15.7502 19.5005C15.7504 19.9146 16.0861 20.2505 16.5002 20.2505C16.9142 20.2503 17.2501 19.9145 17.2502 19.5005C17.2502 19.0864 16.9143 18.7507 16.5002 18.7505ZM1.29224 2.75146C1.42963 2.36095 1.85769 2.15541 2.24829 2.29248L2.55005 2.39893C3.16629 2.61557 3.68981 2.79937 4.10181 3.00146C4.54241 3.21766 4.92115 3.48408 5.20532 3.8999C5.4873 4.31255 5.60374 4.76583 5.65747 5.26221C5.66131 5.29767 5.66494 5.33394 5.66821 5.37061H17.1194C17.9379 5.3706 18.7731 5.36999 19.4602 5.44678C19.8099 5.48588 20.1567 5.54905 20.4631 5.65674C20.7634 5.76228 21.0936 5.93473 21.3284 6.23975C21.7103 6.73614 21.7777 7.31468 21.7415 7.90088C21.7071 8.45899 21.5683 9.15317 21.4036 9.97803L21.3928 10.0298L21.3918 10.0347L20.8831 12.5034C20.7334 13.2298 20.608 13.8416 20.4456 14.3237C20.2732 14.8352 20.034 15.2847 19.6077 15.6323C19.1812 15.9799 18.6922 16.1235 18.1565 16.189C17.6515 16.2508 17.0271 16.2505 16.2854 16.2505H10.8801C9.53446 16.2505 8.44441 16.2501 7.58618 16.1284C6.69001 16.0014 5.93685 15.7294 5.34302 15.103C4.79679 14.5269 4.50497 13.9144 4.35864 13.0601C4.22167 12.2599 4.20825 11.2125 4.20825 9.76025V7.03857C4.20825 6.29876 4.20643 5.80351 4.16528 5.42334C4.12595 5.06008 4.05631 4.87865 3.96606 4.74658C3.878 4.61778 3.74472 4.49685 3.44165 4.34814C3.1188 4.18974 2.67955 4.035 2.01196 3.80029L1.75122 3.70752C1.36049 3.57012 1.15485 3.14221 1.29224 2.75146ZM5.70825 9.76025C5.70825 11.2491 5.72603 12.1581 5.83716 12.8071C5.93906 13.402 6.11172 13.7331 6.43188 14.0708C6.70442 14.3581 7.0824 14.5427 7.79712 14.644C8.53775 14.749 9.52115 14.7505 10.9377 14.7505H16.2405C17.0393 14.7505 17.5708 14.749 17.9739 14.6997C18.3565 14.6528 18.5342 14.5712 18.6594 14.4692C18.7846 14.3672 18.9006 14.2095 19.0237 13.8442C19.1533 13.4594 19.2619 12.9392 19.4231 12.1567L19.9221 9.73682V9.73389C20.0997 8.84406 20.217 8.25164 20.2444 7.80811C20.2703 7.38749 20.2041 7.24015 20.1428 7.15869C20.1366 7.15343 20.0928 7.11636 19.9661 7.07178C19.8107 7.01717 19.5888 6.97103 19.2932 6.93799C18.6986 6.87155 17.9452 6.87061 17.0891 6.87061H5.70825V9.76025ZM13.97 8.97021C14.2629 8.67737 14.7376 8.67734 15.0305 8.97021C15.3231 9.26312 15.3233 9.73801 15.0305 10.0308L14.0608 11.0005L15.0305 11.9702C15.3231 12.2631 15.3233 12.738 15.0305 13.0308C14.7377 13.3236 14.2629 13.3234 13.97 13.0308L13.0002 12.061L12.0305 13.0308C11.7377 13.3236 11.2629 13.3234 10.97 13.0308C10.6771 12.7379 10.6771 12.2631 10.97 11.9702L11.9387 11.0005L10.97 10.0308C10.6771 9.7379 10.6771 9.26311 10.97 8.97021C11.2629 8.67737 11.7376 8.67734 12.0305 8.97021L13.0002 9.93994L13.97 8.97021Z" fill="#48465C"/>
</svg>
