<svg width="24" height="24" viewBox="0 0 24 24" fill="none" xmlns="http://www.w3.org/2000/svg">
<path d="M12 1.25C17.9371 1.25 22.75 6.06294 22.75 12C22.75 17.9371 17.9371 22.75 12 22.75C11.5858 22.75 11.25 22.4142 11.25 22C11.25 21.5858 11.5858 21.25 12 21.25C17.1086 21.25 21.25 17.1086 21.25 12C21.25 6.89137 17.1086 2.75 12 2.75C6.89137 2.75 2.75 6.89137 2.75 12C2.75 12.4142 2.41421 12.75 2 12.75C1.58579 12.75 1.25 12.4142 1.25 12C1.25 6.06294 6.06294 1.25 12 1.25ZM11 12.25C11.4142 12.25 11.75 12.5858 11.75 13V19C11.75 19.4142 11.4142 19.75 11 19.75C10.5858 19.75 10.25 19.4142 10.25 19V14.8105L3.53027 21.5303C3.23739 21.8232 2.76261 21.8232 2.46973 21.5303C2.17684 21.2374 2.17684 20.7626 2.46973 20.4697L9.18945 13.75H5C4.58579 13.75 4.25 13.4142 4.25 13C4.25 12.5858 4.58579 12.25 5 12.25H11Z" fill="#1C274C"/>
</svg>
