<svg width="24" height="24" viewBox="0 0 24 24" fill="none" xmlns="http://www.w3.org/2000/svg">
<path d="M4.58167 16.0098C5.27247 14.9946 6.71472 15.0327 7.44299 15.9092C8.42492 17.0912 9.80964 18.2499 11.9996 18.25C14.2274 18.25 15.5906 17.3195 16.5182 16.1533C17.2396 15.2463 18.7777 15.1009 19.5338 16.1768C20.1522 17.0567 20.8285 17.758 22.1627 18.0537C22.5668 18.1435 22.8216 18.544 22.7321 18.9482C22.6423 19.3524 22.2418 19.6071 21.8375 19.5176C19.9967 19.1095 19.039 18.0817 18.3063 17.0391C18.2577 16.9699 18.1706 16.9186 18.0397 16.9209C17.9037 16.9234 17.7726 16.9857 17.692 17.0869C16.5167 18.5645 14.7407 19.75 11.9996 19.75C9.17701 19.7499 7.41076 18.2168 6.28967 16.8672C6.22448 16.7889 6.12741 16.7481 6.02893 16.75C5.93366 16.7519 5.86403 16.7917 5.8219 16.8535C5.07579 17.9506 4.11853 19.084 2.16272 19.5176C1.75848 19.6071 1.35802 19.3524 1.26819 18.9482C1.17859 18.5439 1.43329 18.1434 1.83752 18.0537C3.24943 17.7408 3.92605 16.9738 4.58167 16.0098ZM4.58167 11.0098C5.27247 9.99455 6.71472 10.0327 7.44299 10.9092C8.42492 12.0912 9.80964 13.2499 11.9996 13.25C14.2274 13.25 15.5906 12.3195 16.5182 11.1533C17.2396 10.2463 18.7777 10.1009 19.5338 11.1768C20.1522 12.0567 20.8285 12.758 22.1627 13.0537C22.5668 13.1435 22.8216 13.544 22.7321 13.9482C22.6423 14.3524 22.2418 14.6071 21.8375 14.5176C19.9967 14.1095 19.039 13.0817 18.3063 12.0391C18.2577 11.9699 18.1706 11.9186 18.0397 11.9209C17.9037 11.9234 17.7726 11.9857 17.692 12.0869C16.5167 13.5645 14.7407 14.75 11.9996 14.75C9.17701 14.7499 7.41076 13.2168 6.28967 11.8672C6.22448 11.7889 6.12741 11.7481 6.02893 11.75C5.93366 11.7519 5.86403 11.7917 5.8219 11.8535C5.07579 12.9506 4.11853 14.084 2.16272 14.5176C1.75848 14.6071 1.35802 14.3524 1.26819 13.9482C1.17859 13.5439 1.43329 13.1434 1.83752 13.0537C3.24943 12.7408 3.92605 11.9738 4.58167 11.0098ZM4.58167 6.00977C5.27247 4.99455 6.71472 5.03273 7.44299 5.90918C8.42492 7.0913 9.80964 8.24988 11.9996 8.25C14.2274 8.25 15.5906 7.31954 16.5182 6.15332C17.2396 5.24635 18.7777 5.10086 19.5338 6.17676C20.1522 7.05668 20.8285 7.75802 22.1627 8.05371C22.5668 8.14355 22.8216 8.54401 22.7321 8.94824C22.6423 9.35242 22.2418 9.60717 21.8375 9.51758C19.9967 9.10955 19.039 8.08174 18.3063 7.03906C18.2577 6.96995 18.1706 6.91856 18.0397 6.9209C17.9036 6.92338 17.7726 6.98573 17.692 7.08691C16.5167 8.56451 14.7407 9.75 11.9996 9.75C9.17701 9.74988 7.41076 8.21684 6.28967 6.86719C6.22449 6.78886 6.12741 6.74808 6.02893 6.75C5.93368 6.75193 5.86403 6.79168 5.8219 6.85352C5.07579 7.95057 4.11853 9.084 2.16272 9.51758C1.75847 9.60716 1.35801 9.35239 1.26819 8.94824C1.17859 8.54393 1.43328 8.14345 1.83752 8.05371C3.24943 7.74082 3.92605 6.97375 4.58167 6.00977Z" fill="#48465C"/>
</svg>
