<svg width="24" height="24" viewBox="0 0 24 24" fill="none" xmlns="http://www.w3.org/2000/svg">
<path d="M8.125 12.375C9.06781 12.375 9.53913 12.3751 9.83203 12.668C10.1249 12.9609 10.125 13.4322 10.125 14.375C10.125 15.6176 11.1324 16.625 12.375 16.625C13.6176 16.625 14.625 15.6176 14.625 14.375C14.625 13.4322 14.6251 12.9609 14.918 12.668C15.2109 12.3751 15.6822 12.375 16.625 12.375H20.375C20.375 16.7933 16.7933 20.375 12.375 20.375C7.95674 20.375 4.37503 16.7933 4.375 12.375H8.125ZM11.8447 3.84473C12.1376 3.55184 12.6124 3.55184 12.9053 3.84473L15.9053 6.84473C16.1981 7.13762 16.1982 7.6124 15.9053 7.90527C15.6124 8.19814 15.1376 8.19814 14.8447 7.90527L13.125 6.18555V14.375C13.125 14.7892 12.7892 15.125 12.375 15.125C11.9608 15.125 11.625 14.7892 11.625 14.375V6.18555L9.90527 7.90527C9.61239 8.19812 9.13761 8.19812 8.84473 7.90527C8.55185 7.61239 8.55187 7.13762 8.84473 6.84473L11.8447 3.84473Z" fill="#48465C"/>
</svg>
