<svg width="24" height="24" viewBox="0 0 24 24" fill="none" xmlns="http://www.w3.org/2000/svg">
<path d="M5.0332 10.7832C6.13853 13.5472 8.84139 15.5 12 15.5C12.6755 15.5 13.3305 15.4107 13.9531 15.2432C13.9843 15.491 14 15.7437 14 16C14 19.3137 11.3137 22 8 22C4.68629 22 2 19.3137 2 16C2.00002 13.7654 3.22142 11.8158 5.0332 10.7832ZM18.9668 10.7832C20.7785 11.8158 22 13.7654 22 16C22 19.3137 19.3137 22 16 22C15.0147 22 14.0849 21.7627 13.2646 21.3418C14.6446 19.9817 15.5 18.0906 15.5 16C15.5 15.5544 15.4612 15.1176 15.3867 14.6934C17.0062 13.8723 18.2879 12.4808 18.9668 10.7832ZM12 2C15.3137 2 18 4.68629 18 8C18 11.3137 15.3137 14 12 14C8.68629 14 6 11.3137 6 8C6 4.68629 8.68629 2 12 2Z" fill="#48465C"/>
</svg>
