<svg width="24" height="24" viewBox="0 0 24 24" fill="none" xmlns="http://www.w3.org/2000/svg">
<path d="M8.14453 1.25C9.7094 1.25023 10.8942 2.36242 11.6494 4.14062C12.4047 5.91938 12.8223 8.53566 12.8223 12C12.8223 15.3777 13.2345 17.7617 13.876 19.2725C14.5175 20.7833 15.2966 21.2499 16 21.25C16.2216 21.25 16.5363 21.1504 16.915 20.874C17.2871 20.6024 17.6749 20.1924 18.0283 19.667C18.7365 18.6139 19.2499 17.1789 19.25 15.6846C19.25 15.2704 19.5859 14.9347 20 14.9346C20.4143 14.9346 20.75 15.2704 20.75 15.6846C20.7499 17.5058 20.1305 19.2283 19.2725 20.5039C18.8427 21.1429 18.3392 21.6905 17.7988 22.085C17.2649 22.4747 16.6456 22.75 16 22.75C14.435 22.7499 13.2503 21.6368 12.4951 19.8584C11.7399 18.0797 11.3223 15.4641 11.3223 12C11.3223 8.62248 10.9101 6.23835 10.2686 4.72754C9.62701 3.21682 8.84797 2.75021 8.14453 2.75C7.92297 2.75 7.60816 2.84958 7.22949 3.12598C6.85739 3.39759 6.46959 3.80762 6.11621 4.33301C5.40789 5.38616 4.89456 6.82104 4.89453 8.31543C4.89453 8.72948 4.55852 9.06517 4.14453 9.06543C3.73032 9.06543 3.39453 8.72964 3.39453 8.31543C3.39456 6.49435 4.01319 4.77179 4.87109 3.49609C5.30094 2.85701 5.80522 2.30857 6.3457 1.91406C6.87949 1.52455 7.49917 1.25 8.14453 1.25ZM9.5 11.25C9.91421 11.25 10.25 11.5858 10.25 12C10.2499 12.4142 9.91418 12.75 9.5 12.75H2C1.58582 12.75 1.25006 12.4142 1.25 12C1.25 11.5858 1.58579 11.25 2 11.25H9.5ZM22 11.25C22.4142 11.25 22.75 11.5858 22.75 12C22.7499 12.4142 22.4142 12.75 22 12.75H14.5C14.0858 12.75 13.7501 12.4142 13.75 12C13.75 11.5858 14.0858 11.25 14.5 11.25H22Z" fill="#48465C"/>
</svg>
