<svg width="24" height="24" viewBox="0 0 24 24" fill="none" xmlns="http://www.w3.org/2000/svg">
<path d="M17.8856 5.23145C17.9863 5.22969 18.0862 5.24844 18.1796 5.28613C18.2729 5.32381 18.3574 5.38007 18.4286 5.45117C18.4997 5.52225 18.5559 5.60703 18.5936 5.7002C18.6313 5.79358 18.6501 5.89441 18.6483 5.99512C18.6465 6.09571 18.6248 6.19521 18.5839 6.28711C18.5429 6.37901 18.4836 6.46167 18.41 6.53027L12.9403 12L18.41 17.4707C18.4836 17.5393 18.5429 17.622 18.5839 17.7139C18.6248 17.8058 18.6465 17.9052 18.6483 18.0059C18.6501 18.1065 18.6313 18.2065 18.5936 18.2998C18.5559 18.3931 18.4998 18.4776 18.4286 18.5488C18.3574 18.62 18.273 18.6771 18.1796 18.7148C18.0863 18.7525 17.9862 18.7703 17.8856 18.7686C17.785 18.7668 17.6856 18.745 17.5936 18.7041C17.5016 18.6631 17.4181 18.604 17.3495 18.5303L11.8798 13.0605L6.41003 18.5303C6.2679 18.6627 6.07986 18.7348 5.88562 18.7314C5.69132 18.728 5.50546 18.6491 5.36804 18.5117C5.23085 18.3744 5.15182 18.1892 5.14832 17.9951C5.14489 17.801 5.21729 17.6128 5.34949 17.4707L10.8202 12L5.34949 6.53027C5.21718 6.38816 5.14492 6.20001 5.14832 6.00586C5.15174 5.81156 5.23063 5.62569 5.36804 5.48828C5.50545 5.35089 5.69133 5.27296 5.88562 5.26953C6.07986 5.26615 6.2679 5.33826 6.41003 5.4707L11.8798 10.9404L17.3495 5.4707C17.4181 5.39702 17.5016 5.33787 17.5936 5.29688C17.6856 5.25589 17.7849 5.23322 17.8856 5.23145Z" fill="#48465C"/>
</svg>
