<svg width="24" height="24" viewBox="0 0 24 24" fill="none" xmlns="http://www.w3.org/2000/svg">
<path d="M12 2C17.5228 2 22 6.47715 22 12C22 17.5228 17.5228 22 12 22C6.47715 22 2 17.5228 2 12C2 6.47715 6.47715 2 12 2ZM9.95215 6.25C9.52232 6.24993 9.1203 6.24979 8.79199 6.29883C8.42117 6.35423 8.0399 6.485 7.73535 6.82324C7.44096 7.15035 7.33705 7.54076 7.29199 7.91309C7.2499 8.26108 7.24996 8.6926 7.25 9.17969V9.75C7.25 10.1642 7.58579 10.5 8 10.5C8.41421 10.5 8.75 10.1642 8.75 9.75V9.22266C8.75 8.67975 8.75136 8.33975 8.78125 8.09277C8.79526 7.97712 8.81299 7.9103 8.82715 7.87207C8.83906 7.83995 8.84775 7.83029 8.85059 7.82715V7.82617C8.85194 7.82454 8.85335 7.82344 8.8623 7.81934C8.87892 7.81174 8.92181 7.79595 9.01367 7.78223C9.21777 7.75176 9.50524 7.75 10 7.75H11.25V16.25H9.5C9.08579 16.25 8.75 16.5858 8.75 17C8.75 17.4142 9.08579 17.75 9.5 17.75H15C15.4142 17.75 15.75 17.4142 15.75 17C15.75 16.5858 15.4142 16.25 15 16.25H12.75V7.75H14C14.4947 7.75 14.7822 7.75177 14.9863 7.78223C15.0781 7.79595 15.1211 7.81174 15.1377 7.81934C15.1466 7.82345 15.148 7.82454 15.1494 7.82617C15.1524 7.82943 15.161 7.84028 15.1729 7.87207C15.187 7.9103 15.2048 7.97711 15.2188 8.09277C15.2486 8.33975 15.25 8.67975 15.25 9.22266V9.75C15.25 10.1642 15.5858 10.5 16 10.5C16.4142 10.5 16.75 10.1642 16.75 9.75V9.17969C16.75 8.69261 16.7501 8.26108 16.708 7.91309C16.6629 7.54076 16.559 7.15035 16.2646 6.82324C15.9601 6.48501 15.5788 6.35423 15.208 6.29883C14.8797 6.24979 14.4777 6.24993 14.0479 6.25H9.95215Z" fill="#1C274C"/>
</svg>
