<svg width="24" height="24" viewBox="0 0 24 24" fill="none" xmlns="http://www.w3.org/2000/svg">
<path d="M12 1.25C17.9371 1.25 22.75 6.06294 22.75 12C22.75 17.9371 17.9371 22.75 12 22.75C6.06294 22.75 1.25 17.9371 1.25 12C1.25 6.06294 6.06294 1.25 12 1.25ZM12.75 4C12.75 4.41422 12.4142 4.75 12 4.75C11.5858 4.75 11.25 4.41422 11.25 4V2.78027C9.25929 2.94001 7.44612 3.72958 6.01074 4.9502L7.03027 5.96973C7.32316 6.26262 7.32316 6.73738 7.03027 7.03027C6.73738 7.32316 6.26262 7.32316 5.96973 7.03027L4.9502 6.01074C3.72958 7.44612 2.94001 9.25929 2.78027 11.25H4C4.41421 11.25 4.75 11.5858 4.75 12C4.75 12.4142 4.41421 12.75 4 12.75H2.78027C2.94001 14.7407 3.72958 16.5539 4.9502 17.9893L5.96973 16.9697C6.26261 16.6768 6.73739 16.6768 7.03027 16.9697C7.32316 17.2626 7.32316 17.7374 7.03027 18.0303L6.01074 19.0498C7.62449 20.4221 9.71567 21.25 12 21.25C14.2843 21.25 16.3756 20.4221 17.9893 19.0498L16.9697 18.0303C16.6768 17.7374 16.6768 17.2626 16.9697 16.9697C17.2626 16.6768 17.7374 16.6768 18.0303 16.9697L19.0498 17.9893C20.2704 16.5539 21.06 14.7407 21.2197 12.75H20C19.5858 12.75 19.25 12.4142 19.25 12C19.25 11.5858 19.5858 11.25 20 11.25H21.2197C21.06 9.25929 20.2704 7.44612 19.0498 6.01074L18.0303 7.03027C17.7374 7.32316 17.2626 7.32316 16.9697 7.03027C16.6768 6.73739 16.6768 6.26261 16.9697 5.96973L17.9893 4.9502C16.5539 3.72958 14.7407 2.94001 12.75 2.78027V4ZM12 7.0166C12.657 7.0166 13.1473 7.2909 13.5596 7.71777C13.916 8.08697 14.2524 8.61332 14.623 9.19336C14.6351 9.21227 14.648 9.23098 14.6602 9.25C14.9412 9.68954 15.2062 10.1552 15.4033 10.6064C15.5947 11.0449 15.75 11.5327 15.75 12C15.75 14.0711 14.0711 15.75 12 15.75C9.92893 15.75 8.25 14.0711 8.25 12C8.25 11.5327 8.40524 11.0449 8.59668 10.6064C8.79374 10.1552 9.05884 9.68954 9.33984 9.25C9.35194 9.23108 9.36396 9.21217 9.37598 9.19336C9.74671 8.61327 10.0839 8.087 10.4404 7.71777C10.8527 7.2909 11.343 7.0166 12 7.0166ZM12 8.5166C11.8356 8.5166 11.7148 8.55763 11.5195 8.75977C11.2803 9.00761 11.0227 9.40195 10.6035 10.0576C10.3467 10.4594 10.1262 10.8523 9.97168 11.2061C9.81168 11.5725 9.75 11.8371 9.75 12C9.75 13.2426 10.7574 14.25 12 14.25C13.2426 14.25 14.25 13.2426 14.25 12C14.25 11.8371 14.1883 11.5725 14.0283 11.2061C13.8738 10.8523 13.6533 10.4594 13.3965 10.0576C12.9773 9.40195 12.7197 9.00761 12.4805 8.75977C12.2852 8.55763 12.1644 8.5166 12 8.5166Z" fill="#48465C"/>
</svg>
