<svg width="24" height="24" viewBox="0 0 24 24" fill="none" xmlns="http://www.w3.org/2000/svg">
<path d="M12 2C12.8813 2 13.6802 2.0002 14.4062 2.00977C14.4114 3.21882 15.3702 4.20248 16.5693 4.24805L13.9473 6.87109C13.5577 6.20065 12.8313 5.75 12 5.75C10.7574 5.75 9.75 6.75736 9.75 8V12C9.75 13.2426 10.7574 14.25 12 14.25H16C17.2426 14.25 18.25 13.2426 18.25 12C18.25 11.1687 17.7993 10.4423 17.1289 10.0527L19.752 7.43066C19.7975 8.6298 20.7812 9.58863 21.9902 9.59375C21.9998 10.3198 22 11.1187 22 12C22 16.714 21.9997 19.0708 20.5352 20.5352C19.0708 21.9997 16.714 22 12 22C7.28597 22 4.9293 21.9996 3.46484 20.5352C2.00037 19.0708 2 16.714 2 12C2 7.28595 2.00037 4.9293 3.46484 3.46484C4.9293 2.00037 7.28595 2 12 2ZM22 1.25C22.4142 1.25 22.75 1.58579 22.75 2V7.34375C22.75 7.75796 22.4142 8.09375 22 8.09375C21.5858 8.09375 21.25 7.75796 21.25 7.34375V3.81055L13.8105 11.25H16C16.4142 11.25 16.75 11.5858 16.75 12C16.75 12.4142 16.4142 12.75 16 12.75H12C11.5858 12.75 11.25 12.4142 11.25 12V8C11.25 7.58579 11.5858 7.25 12 7.25C12.4142 7.25 12.75 7.58579 12.75 8V10.1895L20.1895 2.75H16.6562C16.242 2.75 15.9062 2.41421 15.9062 2C15.9062 1.58579 16.242 1.25 16.6562 1.25H22Z" fill="#1C274C"/>
</svg>
