<svg width="24" height="24" viewBox="0 0 24 24" fill="none" xmlns="http://www.w3.org/2000/svg">
<path d="M15.4805 12.2207C16.0802 12.0024 16.6742 12.1513 17.2236 12.3828C17.7627 12.6099 18.4163 12.9879 19.2051 13.4434L19.2949 13.4951C20.0836 13.9504 20.7378 14.3273 21.2041 14.6807C21.6792 15.0407 22.105 15.4809 22.2158 16.1094C22.2614 16.3678 22.2614 16.6322 22.2158 16.8906C22.105 17.5191 21.6792 17.9593 21.2041 18.3193C20.7379 18.6727 20.0837 19.0496 19.2949 19.5049L19.2051 19.5566C18.4163 20.0121 17.7627 20.3901 17.2236 20.6172C16.6742 20.8487 16.0802 20.9976 15.4805 20.7793C15.2338 20.6895 15.0048 20.5574 14.8037 20.3887C14.3148 19.9784 14.1475 19.3892 14.0732 18.7979C14.0005 18.2174 14 17.4625 14 16.5518V16.4482C14 15.5375 14.0005 14.7826 14.0732 14.2021C14.1475 13.6108 14.3148 13.0216 14.8037 12.6113C15.0048 12.4426 15.2338 12.3105 15.4805 12.2207ZM15.9932 13.6299C15.911 13.6598 15.8345 13.7046 15.7676 13.7607C15.7205 13.8004 15.6212 13.9142 15.5615 14.3887C15.5018 14.8645 15.5 15.5243 15.5 16.5C15.5 17.4757 15.5018 18.1355 15.5615 18.6113C15.6212 19.0858 15.7205 19.1996 15.7676 19.2393C15.8345 19.2954 15.911 19.3402 15.9932 19.3701C16.0507 19.3911 16.1989 19.4204 16.6406 19.2344C17.0825 19.0482 17.6551 18.7202 18.5 18.2324C19.345 17.7445 19.9157 17.4126 20.2979 17.123C20.6798 16.8336 20.7277 16.6902 20.7383 16.6299C20.7534 16.5439 20.7534 16.4561 20.7383 16.3701C20.7277 16.3098 20.6798 16.1664 20.2979 15.877C19.9157 15.5874 19.345 15.2555 18.5 14.7676C17.6551 14.2798 17.0825 13.9518 16.6406 13.7656C16.1989 13.5796 16.0507 13.6089 15.9932 13.6299ZM11 17.25C11.4142 17.25 11.75 17.5858 11.75 18C11.75 18.4142 11.4142 18.75 11 18.75H3C2.58579 18.75 2.25 18.4142 2.25 18C2.25 17.5858 2.58579 17.25 3 17.25H11ZM11 13.25C11.4142 13.25 11.75 13.5858 11.75 14C11.75 14.4142 11.4142 14.75 11 14.75H3C2.58579 14.75 2.25 14.4142 2.25 14C2.25 13.5858 2.58579 13.25 3 13.25H11ZM21 9.25C21.4142 9.25 21.75 9.58579 21.75 10C21.75 10.4142 21.4142 10.75 21 10.75H3C2.58579 10.75 2.25 10.4142 2.25 10C2.25 9.58579 2.58579 9.25 3 9.25H21ZM21 5.25C21.4142 5.25 21.75 5.58579 21.75 6C21.75 6.41421 21.4142 6.75 21 6.75H3C2.58579 6.75 2.25 6.41421 2.25 6C2.25 5.58579 2.58579 5.25 3 5.25H21Z" fill="#1C274C"/>
</svg>
