<svg width="24" height="24" viewBox="0 0 24 24" fill="none" xmlns="http://www.w3.org/2000/svg">
<path d="M16.5215 1.25C16.7357 1.24999 16.9333 1.25044 17.0986 1.26172C17.2762 1.27386 17.4716 1.30066 17.6699 1.38281C18.0987 1.56043 18.4396 1.90132 18.6172 2.33008C18.6993 2.52841 18.7262 2.72385 18.7383 2.90137C18.7496 3.06669 18.75 3.26426 18.75 3.47852V3.52148C18.75 3.73574 18.7496 3.93331 18.7383 4.09863C18.7262 4.27615 18.6993 4.47159 18.6172 4.66992C18.4396 5.09868 18.0987 5.43958 17.6699 5.61719C17.4933 5.69034 17.3185 5.72013 17.1572 5.73438L18.9883 7.2168C20.1024 8.11864 20.75 9.47488 20.75 10.9082V17.5645C20.75 18.6663 20.3673 19.7346 19.667 20.585L19.3086 21.0195C18.4063 22.1152 17.061 22.75 15.6416 22.75H8.90234C8.38364 22.7501 8.04965 22.7503 7.72754 22.7061C6.77404 22.5752 5.88284 22.1576 5.17188 21.5088C4.9317 21.2897 4.71774 21.0333 4.38574 20.6348L4.35059 20.5928C3.63929 19.7391 3.25 18.6629 3.25 17.5518V10.9229C3.25 9.48011 3.90578 8.11528 5.03223 7.21387L6.87793 5.7373C6.70672 5.72433 6.51975 5.69575 6.33008 5.61719C5.90132 5.43958 5.56043 5.09868 5.38281 4.66992C5.30066 4.47159 5.27386 4.27616 5.26172 4.09863C5.25044 3.93331 5.24999 3.73576 5.25 3.52148V3.47852C5.24999 3.26424 5.25044 3.0667 5.26172 2.90137C5.27386 2.72385 5.30066 2.52841 5.38281 2.33008C5.56043 1.90132 5.90132 1.56043 6.33008 1.38281C6.52842 1.30066 6.72385 1.27385 6.90137 1.26172C7.06668 1.25044 7.26427 1.24999 7.47852 1.25H16.5215ZM4.97852 18.75C5.10452 19.0677 5.28084 19.3663 5.50293 19.6328C5.88149 20.0871 6.02763 20.2589 6.18262 20.4004C6.66907 20.8442 7.27924 21.1302 7.93164 21.2197C8.13968 21.2483 8.36523 21.25 8.95703 21.25H15.6416C16.6127 21.25 17.533 20.8159 18.1504 20.0664L18.5088 19.6309C18.7283 19.3644 18.9024 19.0668 19.0264 18.75H4.97852ZM4.75488 10.75C4.75184 10.8073 4.75 10.8652 4.75 10.9229V17.25H19.25V10.9082C19.25 10.8553 19.2486 10.8026 19.2461 10.75H4.75488ZM12 11.25C12.4142 11.25 12.75 11.5858 12.75 12V13.25H14C14.4142 13.25 14.75 13.5858 14.75 14C14.75 14.4142 14.4142 14.75 14 14.75H12.75V16C12.75 16.4142 12.4142 16.75 12 16.75C11.5858 16.75 11.25 16.4142 11.25 16V14.75H10C9.58579 14.75 9.25 14.4142 9.25 14C9.25 13.5858 9.58579 13.25 10 13.25H11.25V12C11.25 11.5858 11.5858 11.25 12 11.25ZM10.4033 5.75C9.65787 5.75 9.46105 5.75971 9.28809 5.82031C9.11507 5.881 8.95531 5.9961 8.37305 6.46191L5.96973 8.38477C5.66451 8.62896 5.40926 8.92279 5.21289 9.25H18.7949C18.6005 8.9224 18.3481 8.62726 18.0449 8.38184L15.6875 6.47363C15.1026 6.00015 14.942 5.88301 14.7676 5.82129C14.5934 5.75969 14.3947 5.75 13.6426 5.75H10.4033ZM7.5 2.75C7.25677 2.75 7.11191 2.75044 7.00391 2.75781C6.9371 2.76237 6.90874 2.76864 6.90137 2.77051C6.84256 2.79578 6.79579 2.84256 6.77051 2.90137C6.76865 2.90873 6.76237 2.93709 6.75781 3.00391C6.75044 3.11192 6.75 3.25677 6.75 3.5C6.75 3.74324 6.75044 3.88809 6.75781 3.99609C6.76237 4.06292 6.76865 4.09128 6.77051 4.09863C6.79579 4.15745 6.84256 4.20421 6.90137 4.22949C6.90873 4.23136 6.93709 4.23763 7.00391 4.24219C7.11191 4.24956 7.25677 4.25 7.5 4.25H16.5C16.7432 4.25 16.8881 4.24956 16.9961 4.24219C17.0629 4.23763 17.0912 4.23137 17.0986 4.22949C17.1574 4.20421 17.2042 4.15745 17.2295 4.09863C17.2314 4.09128 17.2377 4.06291 17.2422 3.99609C17.2496 3.88809 17.25 3.74324 17.25 3.5C17.25 3.25677 17.2496 3.11192 17.2422 3.00391C17.2377 2.93708 17.2314 2.90873 17.2295 2.90137C17.2042 2.84256 17.1574 2.79578 17.0986 2.77051C17.0912 2.76863 17.0628 2.76237 16.9961 2.75781C16.8881 2.75044 16.7432 2.75 16.5 2.75H7.5Z" fill="#48465C"/>
</svg>
