<svg width="24" height="24" viewBox="0 0 24 24" fill="none" xmlns="http://www.w3.org/2000/svg">
<path d="M12.0002 4.65063C16.8363 4.65073 20.757 8.53466 20.757 13.3254C20.7569 18.1161 16.8362 22.0001 12.0002 22.0002C7.16412 22.0002 3.24352 18.1162 3.24335 13.3254C3.24335 8.5346 7.16401 4.65063 12.0002 4.65063ZM12.0002 8.74731C11.5972 8.74731 11.2707 9.07073 11.2707 9.46997V13.3254C11.2708 13.517 11.347 13.7007 11.4836 13.8362L13.9162 16.2463C14.2011 16.5285 14.6634 16.5284 14.9484 16.2463C15.2334 15.9641 15.2333 15.5062 14.9484 15.2239L12.7297 13.0256V9.46997C12.7297 9.07079 12.4031 8.74741 12.0002 8.74731ZM7.23456 2.10962C7.57632 1.89802 8.02682 2.00153 8.24042 2.34009C8.45383 2.67861 8.34968 3.12464 8.008 3.33618L4.11639 5.74536C3.77464 5.95691 3.32411 5.85441 3.11053 5.51587C2.89701 5.17738 3.00138 4.73142 3.34296 4.51978L7.23456 2.10962ZM15.7599 2.34009C15.9735 2.00164 16.4231 1.89827 16.7648 2.10962L20.6564 4.51978C20.9982 4.73138 21.1025 5.17732 20.8889 5.51587C20.6752 5.85424 20.2247 5.95691 19.883 5.74536L15.9914 3.33618C15.6496 3.1246 15.5464 2.67864 15.7599 2.34009Z" fill="#1C274C"/>
</svg>
