<svg width="24" height="24" viewBox="0 0 24 24" fill="none" xmlns="http://www.w3.org/2000/svg">
<path d="M2.99994 17.5C5.07101 17.5 6.74994 19.1789 6.74994 21.25C6.74994 21.6642 6.41415 22 5.99994 22C5.58576 22 5.24994 21.6642 5.24994 21.25C5.24994 20.0074 4.24258 19 2.99994 19C2.58576 19 2.24994 18.6642 2.24994 18.25C2.24994 17.8358 2.58576 17.5 2.99994 17.5ZM2.99994 14.5C6.72786 14.5 9.74994 17.5221 9.74994 21.25C9.74994 21.6642 9.41415 22 8.99994 22C8.58576 22 8.24994 21.6642 8.24994 21.25C8.24994 18.3505 5.89944 16 2.99994 16C2.58576 16 2.24994 15.6642 2.24994 15.25C2.24994 14.8358 2.58576 14.5 2.99994 14.5ZM2.99994 11.5C8.38472 11.5 12.7499 15.8652 12.7499 21.25C12.7499 21.6642 12.4141 22 11.9999 22C11.5858 22 11.2499 21.6642 11.2499 21.25C11.2499 16.6937 7.55629 13 2.99994 13C2.58576 13 2.24994 12.6642 2.24994 12.25C2.24994 11.8358 2.58576 11.5 2.99994 11.5ZM11.9999 2C13.1542 2 14.1988 2.62261 16.288 3.86719L17.6728 4.69141C19.9735 6.06193 21.1246 6.74765 21.665 7.875C22.2054 9.0023 22.0152 10.3211 21.6357 12.958L21.3574 14.8955C20.8699 18.2828 20.6261 19.9765 19.4511 20.9883C18.3977 21.8954 16.9032 21.9893 14.122 21.999C14.2046 21.7647 14.2499 21.5126 14.2499 21.25C14.2499 15.0368 9.21314 10 2.99994 10C2.65044 10 2.31944 10.0795 2.02435 10.2217C1.95526 9.23382 2.02442 8.52275 2.3349 7.875C2.87536 6.74765 4.02637 6.06193 6.32709 4.69141L7.71185 3.86719C9.8011 2.62263 10.8457 2.00002 11.9999 2Z" fill="#1C274C"/>
</svg>
