<svg width="24" height="24" viewBox="0 0 24 24" fill="none" xmlns="http://www.w3.org/2000/svg">
<path d="M15 1.25C16.8721 1.25 18.4242 2.62178 18.7051 4.41504C19.4689 4.55302 20.1205 4.8179 20.6514 5.34863C21.2533 5.95055 21.5128 6.70829 21.6338 7.6084C21.7503 8.47534 21.75 9.57785 21.75 10.9453V16.0547C21.75 17.4222 21.7503 18.5246 21.6338 19.3916C21.5128 20.2917 21.2533 21.0494 20.6514 21.6514C20.0494 22.2533 19.2917 22.5128 18.3916 22.6338C17.5246 22.7503 16.4222 22.75 15.0547 22.75H11.9453C10.5778 22.75 9.47534 22.7503 8.6084 22.6338C7.70829 22.5128 6.95055 22.2533 6.34863 21.6514C5.8179 21.1205 5.55302 20.4689 5.41504 19.7051C3.62178 19.4242 2.25 17.8721 2.25 16V9.94336C2.24998 8.10571 2.25016 6.64991 2.40332 5.51074C2.56095 4.33844 2.8933 3.38992 3.6416 2.6416C4.38992 1.8933 5.33844 1.56095 6.51074 1.40332C7.6499 1.25016 9.1057 1.24998 10.9434 1.25H15ZM12 5.75C10.5649 5.75 9.5639 5.75201 8.80859 5.85352C8.07482 5.95217 7.68594 6.13242 7.40918 6.40918C7.13242 6.68594 6.95217 7.07482 6.85352 7.80859C6.75201 8.5639 6.75 9.56484 6.75 11V16C6.75 17.4354 6.75196 18.437 6.85352 19.1924C6.95218 19.9258 7.13249 20.3141 7.40918 20.5908C7.68594 20.8676 8.07482 21.0478 8.80859 21.1465C9.5639 21.2479 10.5649 21.25 12 21.25H15C16.4354 21.25 17.437 21.248 18.1924 21.1465C18.9258 21.0478 19.3141 20.8676 19.5908 20.5908C19.8676 20.3141 20.0478 19.9258 20.1465 19.1924C20.248 18.437 20.25 17.4354 20.25 16V11C20.25 9.56484 20.2479 8.5639 20.1465 7.80859C20.0478 7.07482 19.8676 6.68594 19.5908 6.40918C19.3141 6.13249 18.9258 5.95218 18.1924 5.85352C17.437 5.75196 16.4354 5.75 15 5.75H12ZM11 2.75C9.09324 2.75 7.73858 2.75149 6.71094 2.88965C5.70485 3.02491 5.12536 3.27894 4.70215 3.70215C4.27894 4.12536 4.02491 4.70485 3.88965 5.71094C3.75149 6.73858 3.75 8.09324 3.75 10V16C3.75 16.9876 4.38655 17.8261 5.27148 18.1289C5.25031 17.5191 5.24999 16.8293 5.25 16.0547V10.9453C5.24998 9.57785 5.24968 8.47534 5.36621 7.6084C5.48723 6.70829 5.74671 5.95055 6.34863 5.34863C6.95055 4.74671 7.70829 4.48723 8.6084 4.36621C9.47534 4.24968 10.5778 4.24998 11.9453 4.25H15.0547C15.8293 4.24999 16.5191 4.25031 17.1289 4.27148C16.8261 3.38654 15.9876 2.75 15 2.75H11Z" fill="#48465C"/>
</svg>
