<svg width="24" height="24" viewBox="0 0 24 24" fill="none" xmlns="http://www.w3.org/2000/svg">
<path d="M12.0004 2.25C14.0713 2.2502 15.7504 3.92905 15.7504 6V7.01367C17.0474 7.04998 17.8378 7.18371 18.4427 7.67969C19.2722 8.35966 19.5026 9.51444 19.9642 11.8232L20.5648 14.8232C21.2289 18.1436 21.5607 19.8042 20.6605 20.9023C19.7603 22.0001 18.0669 22 14.681 22H9.31873C5.93274 22 4.23944 22.0002 3.33923 20.9023C2.43906 19.8042 2.77085 18.1436 3.43494 14.8232L4.03552 11.8232C4.49727 9.5145 4.72767 8.35967 5.55701 7.67969C6.1621 7.18364 6.95298 7.04996 8.25037 7.01367V6C8.25037 3.92893 9.9293 2.25 12.0004 2.25ZM9.00037 9C8.44808 9 8.00037 9.44772 8.00037 10C8.00037 10.5523 8.44808 11 9.00037 11C9.55246 10.9998 10.0004 10.5522 10.0004 10C10.0004 9.44785 9.55246 9.00021 9.00037 9ZM15.0004 9C14.4481 9 14.0004 9.44772 14.0004 10C14.0004 10.5523 14.4481 11 15.0004 11C15.5525 10.9998 16.0004 10.5522 16.0004 10C16.0004 9.44784 15.5525 9.0002 15.0004 9ZM12.0004 3.75C10.7578 3.75 9.75037 4.75736 9.75037 6V7H14.2504V6C14.2504 4.75748 13.2428 3.7502 12.0004 3.75Z" fill="#1C274C"/>
</svg>
