<svg width="24" height="24" viewBox="0 0 24 24" fill="none" xmlns="http://www.w3.org/2000/svg">
<path d="M12 1.25C17.9371 1.25 22.75 6.06294 22.75 12C22.75 17.9371 17.9371 22.75 12 22.75C6.06294 22.75 1.25 17.9371 1.25 12C1.25 6.06294 6.06294 1.25 12 1.25ZM12 2.75C6.89137 2.75 2.75 6.89137 2.75 12C2.75 17.1086 6.89137 21.25 12 21.25C17.1086 21.25 21.25 17.1086 21.25 12C21.25 6.89137 17.1086 2.75 12 2.75ZM12.1865 5.78613C12.7854 5.65403 13.286 5.90557 13.6855 6.20215C14.0646 6.48357 14.4933 6.9126 14.9854 7.40527L16.6064 9.02832C17.0948 9.5172 17.5203 9.9431 17.7998 10.3203C18.0948 10.7185 18.3447 11.2157 18.2158 11.8115C18.087 12.4073 17.6539 12.7566 17.2207 12.9971C16.8103 13.2249 16.2472 13.4368 15.6006 13.6797L14.5889 14.0596C14.1654 14.2187 14.1339 14.2425 14.1162 14.2578C14.098 14.2735 14.0814 14.2911 14.0674 14.3105C14.0536 14.3298 14.0332 14.3633 13.9131 14.7998L13.9023 14.8389C13.792 15.24 13.6934 15.6012 13.582 15.8789C13.4675 16.164 13.2846 16.5094 12.918 16.7188C12.6844 16.8519 12.4202 16.9223 12.1514 16.9219C11.7291 16.9211 11.3995 16.7109 11.1592 16.5195C10.9252 16.3331 10.6611 16.0676 10.3672 15.7734L9.82715 15.2324L8.03027 17.0303C7.73754 17.3232 7.26275 17.324 6.96973 17.0312C6.67669 16.7386 6.67699 16.2637 6.96973 15.9707L8.7666 14.1719L8.25195 13.6562C7.95998 13.364 7.69694 13.1008 7.51172 12.8682C7.32149 12.6292 7.11202 12.302 7.10938 11.8828C7.10765 11.609 7.17882 11.3398 7.31543 11.1025C7.52463 10.7392 7.86801 10.5581 8.15137 10.4443C8.42732 10.3336 8.78641 10.2348 9.18457 10.125C9.19742 10.1215 9.2107 10.1178 9.22363 10.1143C9.66064 9.99379 9.69387 9.97268 9.71289 9.95898C9.73275 9.94465 9.75065 9.92784 9.7666 9.90918C9.78195 9.89116 9.80581 9.85963 9.96191 9.43359L10.3096 8.48535C10.3161 8.46754 10.3226 8.44932 10.3291 8.43164C10.5687 7.77766 10.7763 7.20866 11.002 6.79395C11.2398 6.35687 11.5881 5.91836 12.1865 5.78613ZM12.5098 7.25098H12.5078C12.5075 7.25112 12.5061 7.25253 12.5029 7.25488C12.4997 7.25728 12.4942 7.26104 12.4873 7.26758C12.4552 7.29773 12.3991 7.366 12.3203 7.51074C12.1542 7.81596 11.9829 8.27842 11.7178 9.00195L11.3701 9.94922C11.3613 9.97333 11.3526 9.99812 11.3438 10.0225C11.2353 10.3209 11.1223 10.6316 10.9092 10.8818C10.8149 10.9925 10.707 11.0919 10.5889 11.1768C10.3219 11.369 10.0025 11.4564 9.69629 11.54C9.67143 11.5468 9.64672 11.5538 9.62207 11.5605C9.17292 11.6844 8.89825 11.7608 8.71094 11.8359C8.68026 11.8482 8.65499 11.859 8.63574 11.8682C8.648 11.8858 8.6648 11.9075 8.68555 11.9336C8.81136 12.0917 9.0122 12.2941 9.3418 12.624L11.3994 14.6846C11.731 15.0164 11.9349 15.2192 12.0938 15.3457C12.1188 15.3657 12.14 15.3814 12.1572 15.3936C12.1663 15.3744 12.1774 15.3503 12.1895 15.3203C12.2652 15.1317 12.3423 14.8549 12.4668 14.4023C12.4735 14.3779 12.4805 14.3529 12.4873 14.3281C12.5707 14.0223 12.6574 13.7032 12.8486 13.4365C12.9312 13.3214 13.0278 13.2167 13.1348 13.124C13.3831 12.909 13.6925 12.7933 13.9893 12.6826C14.0133 12.6736 14.0377 12.6642 14.0615 12.6553L15.0195 12.2959C15.7351 12.027 16.191 11.8526 16.4922 11.6855C16.6352 11.6061 16.7027 11.5496 16.7324 11.5176C16.7445 11.5044 16.7486 11.4978 16.749 11.4971C16.7491 11.4967 16.7488 11.4952 16.749 11.4941L16.75 11.4922C16.7499 11.4919 16.7491 11.4837 16.7432 11.4658C16.7293 11.4243 16.6921 11.3444 16.5947 11.2129C16.3894 10.9359 16.0453 10.5889 15.5049 10.0479L13.9639 8.50586C13.4197 7.96113 13.0707 7.61426 12.792 7.40723C12.6597 7.30904 12.5799 7.27077 12.5381 7.25684C12.5287 7.25373 12.5215 7.25177 12.5176 7.25098C12.515 7.25048 12.5135 7.25008 12.5127 7.25C12.5123 7.25006 12.5108 7.25076 12.5098 7.25098Z" fill="#1C274C"/>
</svg>
