<svg width="24" height="24" viewBox="0 0 24 24" fill="none" xmlns="http://www.w3.org/2000/svg">
<path d="M21.9209 17.75C21.8057 19.1893 21.5223 20.1339 20.8281 20.8281C19.6566 21.9997 17.7712 22 14 22H10C6.22878 22 4.34346 21.9997 3.17188 20.8281C2.47768 20.1339 2.19435 19.1893 2.0791 17.75H21.9209ZM21.9873 11.75C22.0002 12.4153 22 13.161 22 14C22 14.839 22.0002 15.5847 21.9873 16.25H2.0127C1.9998 15.5847 2 14.839 2 14C2 13.161 1.9998 12.4153 2.0127 11.75H21.9873ZM12.0518 1.25C12.9503 1.24997 13.7001 1.25012 14.2949 1.33008C14.9225 1.41452 15.489 1.6003 15.9443 2.05567C16.3997 2.51102 16.5855 3.07748 16.6699 3.70508C16.7499 4.29986 16.75 5.04977 16.75 5.94824V6.02539C18.7712 6.09152 19.9846 6.32834 20.8281 7.17188C21.5223 7.86607 21.8057 8.81068 21.9209 10.25H2.0791C2.19435 8.81067 2.47768 7.86608 3.17188 7.17188C4.01542 6.32834 5.22882 6.09152 7.25 6.02539V5.94824C7.24997 5.04976 7.25012 4.29986 7.33008 3.70508C7.41452 3.07747 7.60031 2.51102 8.05566 2.05567C8.51102 1.60031 9.07747 1.41452 9.70508 1.33008C10.2999 1.25012 11.0497 1.24997 11.9482 1.25H12.0518ZM12 2.75C11.036 2.75 10.3883 2.75147 9.90527 2.81641C9.44388 2.87845 9.24652 2.9859 9.11621 3.11621C8.9859 3.24652 8.87845 3.44388 8.81641 3.90527C8.75147 4.3883 8.75 5.03599 8.75 6V6.00195C9.14203 6.00006 9.55807 6 10 6H14C14.4419 6 14.858 6.00006 15.25 6.00195V6C15.25 5.03599 15.2485 4.3883 15.1836 3.90527C15.1215 3.44389 15.0141 3.24652 14.8838 3.11621C14.7535 2.98591 14.5561 2.87845 14.0947 2.81641C13.6117 2.75147 12.964 2.75 12 2.75Z" fill="#1C274C"/>
</svg>
