<svg width="24" height="24" viewBox="0 0 24 24" fill="none" xmlns="http://www.w3.org/2000/svg">
<path d="M8.8584 18.6895C9.19801 18.2838 9.80198 18.2838 10.1416 18.6895C10.549 19.1762 11 19.8292 11 20.334C10.9998 21.2543 10.3283 22 9.5 22C8.67167 22 8.00017 21.2543 8 20.334C8 19.8292 8.451 19.1762 8.8584 18.6895ZM13.8584 18.6895C14.198 18.2838 14.802 18.2838 15.1416 18.6895C15.549 19.1762 16 19.8292 16 20.334C15.9998 21.2543 15.3283 22 14.5 22C13.6717 22 13.0002 21.2543 13 20.334C13 19.8292 13.451 19.1762 13.8584 18.6895ZM12.4766 3C15.416 3.00018 17.8371 5.19364 18.1553 8.01465C20.393 8.77989 21.9998 10.8809 22 13.3525C22 16.1901 19.8818 18.539 17.123 18.9395C17.0901 18.8757 17.0575 18.8162 17.0264 18.7617C16.8014 18.3669 16.5248 18.006 16.291 17.7266C15.8475 17.1969 15.2339 16.9172 14.6104 16.8877C14.8624 16.4129 14.9999 15.8748 15 15.334C15 14.6866 14.7304 14.1194 14.5264 13.7617C14.3014 13.3669 14.0248 13.006 13.791 12.7266C12.8518 11.6048 11.1482 11.6048 10.209 12.7266C9.97517 13.006 9.69869 13.3669 9.47363 13.7617C9.26967 14.1194 9 14.6866 9 15.334C9.00007 15.8748 9.13764 16.4129 9.38965 16.8877C8.76607 16.9172 8.15242 17.1969 7.70898 17.7266C7.47512 18.006 7.19869 18.3669 6.97363 18.7617C6.93289 18.8331 6.88901 18.9129 6.8457 19H6.28613C3.9192 19 2 17.1037 2 14.7646C2.00003 12.4256 3.91922 10.5293 6.28613 10.5293C6.57011 10.5293 6.84768 10.5572 7.11621 10.6094C6.88716 9.99839 6.76177 9.33713 6.76172 8.64746C6.76172 5.52867 9.32064 3 12.4766 3ZM11.3584 13.6895C11.698 13.2838 12.302 13.2838 12.6416 13.6895C13.049 14.1762 13.5 14.8292 13.5 15.334C13.4998 16.2543 12.8283 17 12 17C11.1717 17 10.5002 16.2543 10.5 15.334C10.5 14.8292 10.951 14.1762 11.3584 13.6895Z" fill="#48465C"/>
</svg>
