<svg width="24" height="24" viewBox="0 0 24 24" fill="none" xmlns="http://www.w3.org/2000/svg">
<path d="M12 1.25C17.9371 1.25 22.75 6.06294 22.75 12C22.75 17.9371 17.9371 22.75 12 22.75C6.06294 22.75 1.25 17.9371 1.25 12C1.25 6.06294 6.06294 1.25 12 1.25ZM12 2.75C6.89137 2.75 2.75 6.89137 2.75 12C2.75 17.1086 6.89137 21.25 12 21.25C17.1086 21.25 21.25 17.1086 21.25 12C21.25 6.89137 17.1086 2.75 12 2.75ZM12 5.25C15.7279 5.25 18.75 8.27208 18.75 12C18.75 12.8102 18.6067 13.5887 18.3438 14.3105C18.2108 14.6753 17.9855 14.9733 17.7354 15.2041L17.6553 15.2783C16.8456 16.0252 15.6296 16.1208 14.7129 15.5098C14.3433 15.2634 14.0552 14.923 13.873 14.5322C13.3495 14.9202 12.7016 15.1504 12 15.1504C10.2603 15.1504 8.84961 13.7397 8.84961 12C8.84961 10.2603 10.2603 8.84961 12 8.84961C13.7397 8.84961 15.1504 10.2603 15.1504 12V13.5244C15.1505 13.8208 15.2983 14.0974 15.5449 14.2617C15.8854 14.4887 16.3369 14.4533 16.6377 14.1758L16.7188 14.1016C16.8298 13.999 16.8992 13.8939 16.9346 13.7969C17.1384 13.2373 17.25 12.6326 17.25 12C17.25 9.1005 14.8995 6.75 12 6.75C9.1005 6.75 6.75 9.1005 6.75 12C6.75 14.8995 9.1005 17.25 12 17.25C12.4142 17.25 12.75 17.5858 12.75 18C12.75 18.4142 12.4142 18.75 12 18.75C8.27208 18.75 5.25 15.7279 5.25 12C5.25 8.27208 8.27208 5.25 12 5.25ZM12 10.3496C11.0887 10.3496 10.3496 11.0887 10.3496 12C10.3496 12.9113 11.0887 13.6504 12 13.6504C12.9113 13.6504 13.6504 12.9113 13.6504 12C13.6504 11.0887 12.9113 10.3496 12 10.3496Z" fill="#48465C"/>
</svg>
