<svg width="24" height="24" viewBox="0 0 24 24" fill="none" xmlns="http://www.w3.org/2000/svg">
<path d="M6.9502 1.75C7.33657 1.75 7.53008 1.7502 7.71582 1.76758C8.51677 1.84253 9.27617 2.15752 9.89551 2.6709C10.0392 2.79 10.1758 2.92679 10.4492 3.2002L11 3.75C11.8156 4.56563 12.2236 4.97336 12.7119 5.24512C12.9802 5.3944 13.2652 5.5125 13.5605 5.59668C14.098 5.74986 14.6747 5.75 15.8281 5.75H16.2021C18.8344 5.75 20.1503 5.75021 21.0059 6.51953C21.0846 6.59031 21.1598 6.66545 21.2305 6.74414C21.9998 7.59966 22 8.91568 22 11.5479V13.75C22 17.5212 21.9997 19.4066 20.8281 20.5781C19.6566 21.7497 17.7712 21.75 14 21.75H10C6.22878 21.75 4.34346 21.7497 3.17188 20.5781C2.00031 19.4066 2 17.5212 2 13.75V6.7002C2 5.81798 2.00006 5.37627 2.06934 5.00879C2.37463 3.39071 3.64071 2.12463 5.25879 1.81934C5.62627 1.75006 6.06798 1.75 6.9502 1.75ZM12 11C11.5858 11 11.25 11.3358 11.25 11.75V13H10C9.58579 13 9.25 13.3358 9.25 13.75C9.25 14.1642 9.58579 14.5 10 14.5H11.25V15.75C11.25 16.1642 11.5858 16.5 12 16.5C12.4142 16.5 12.75 16.1642 12.75 15.75V14.5H14C14.4142 14.5 14.75 14.1642 14.75 13.75C14.75 13.3358 14.4142 13 14 13H12.75V11.75C12.75 11.3358 12.4142 11 12 11Z" fill="#1C274C"/>
</svg>
