<svg width="24" height="24" viewBox="0 0 24 24" fill="none" xmlns="http://www.w3.org/2000/svg">
<path d="M18.4998 2.25C19.1902 2.25 19.7498 2.80964 19.7498 3.5V8.23926L22.4685 10.4141C22.792 10.6729 22.8445 11.1454 22.5857 11.4688C22.3271 11.792 21.8553 11.8443 21.532 11.5859L20.7498 10.9609V21.25H21.9998C22.414 21.25 22.7498 21.5858 22.7498 22C22.7498 22.4142 22.414 22.75 21.9998 22.75H1.99976C1.58568 22.7498 1.24976 22.4141 1.24976 22C1.24976 21.5859 1.58568 21.2502 1.99976 21.25H3.24976V10.9609L2.46851 11.5859C2.14517 11.8444 1.67356 11.7919 1.41479 11.4688C1.15603 11.1454 1.20853 10.6729 1.53198 10.4141L9.65698 3.91406C11.0266 2.8184 12.9729 2.8184 14.3425 3.91406L14.7498 4.23926V3.5C14.7498 2.80974 15.3095 2.25016 15.9998 2.25H18.4998ZM13.406 5.08496C12.5842 4.42757 11.4163 4.42757 10.5945 5.08496L4.74976 9.76074V21.25H8.24976V16.9502C8.24972 16.2856 8.24962 15.7125 8.31128 15.2539C8.37739 14.7624 8.52686 14.2914 8.90894 13.9092C9.29118 13.527 9.76296 13.3776 10.2546 13.3115C10.7133 13.2499 11.2863 13.25 11.9509 13.25H12.0496C12.7143 13.25 13.2872 13.2498 13.7458 13.3115C14.2375 13.3776 14.7083 13.5271 15.0906 13.9092C15.4727 14.2914 15.6221 14.7623 15.6882 15.2539C15.7499 15.7125 15.7498 16.2856 15.7498 16.9502V21.25H19.2498V9.76074L13.406 5.08496ZM11.9998 14.75C11.2716 14.75 10.8007 14.7513 10.4539 14.7979C10.1287 14.8417 10.0266 14.9126 9.96948 14.9697C9.91241 15.0269 9.84228 15.1291 9.79858 15.4541C9.75195 15.801 9.74976 16.2717 9.74976 17V21.25H14.2498V17C14.2498 16.2718 14.2485 15.801 14.2019 15.4541C14.1581 15.1288 14.0871 15.0268 14.03 14.9697C13.9729 14.9127 13.8707 14.8416 13.5457 14.7979C13.1988 14.7513 12.7277 14.75 11.9998 14.75ZM11.9998 6.75C13.5186 6.75 14.7498 7.98122 14.7498 9.5C14.7498 11.0188 13.5186 12.25 11.9998 12.25C10.4811 12.2498 9.24976 11.0187 9.24976 9.5C9.24976 7.98132 10.4811 6.75016 11.9998 6.75ZM11.9998 8.25C11.3095 8.25016 10.7498 8.80974 10.7498 9.5C10.7498 10.1903 11.3095 10.7498 11.9998 10.75C12.6902 10.75 13.2498 10.1904 13.2498 9.5C13.2498 8.80964 12.6902 8.25 11.9998 8.25ZM16.2498 5.43945L18.2498 7.03906V3.75H16.2498V5.43945Z" fill="#1C274C"/>
</svg>
