<svg width="24" height="24" viewBox="0 0 24 24" fill="none" xmlns="http://www.w3.org/2000/svg">
<path d="M12 2C16.714 2 19.0708 2.00037 20.5352 3.46484C21.9996 4.9293 22 7.28597 22 12C22 16.714 21.9997 19.0708 20.5352 20.5352C19.0708 21.9997 16.714 22 12 22C7.28597 22 4.9293 21.9996 3.46484 20.5352C2.00037 19.0708 2 16.714 2 12C2 7.28595 2.00037 4.9293 3.46484 3.46484C4.9293 2.00037 7.28595 2 12 2ZM12 6.25C11.5858 6.25 11.25 6.58579 11.25 7V17C11.25 17.4142 11.5858 17.75 12 17.75C12.4142 17.75 12.75 17.4142 12.75 17V7C12.75 6.58579 12.4142 6.25 12 6.25ZM7 8.25C6.58579 8.25 6.25 8.58579 6.25 9V15C6.25 15.4142 6.58579 15.75 7 15.75C7.41421 15.75 7.75 15.4142 7.75 15V9C7.75 8.58579 7.41421 8.25 7 8.25ZM17 9.25C16.5858 9.25 16.25 9.58579 16.25 10V14C16.25 14.4142 16.5858 14.75 17 14.75C17.4142 14.75 17.75 14.4142 17.75 14V10C17.75 9.58579 17.4142 9.25 17 9.25Z" fill="#1C274C"/>
</svg>
