<svg width="24" height="24" viewBox="0 0 24 24" fill="none" xmlns="http://www.w3.org/2000/svg">
<path d="M11.2444 1.95459C12.9443 1.015 15.0349 1.01492 16.7347 1.95459C17.3644 2.30268 17.9518 2.86636 18.9065 3.78076C18.9372 3.81017 18.9688 3.83948 19.0003 3.86963C19.0333 3.9012 19.0658 3.93261 19.0979 3.96338C20.0489 4.87367 20.6384 5.43771 21.0042 6.04443C21.999 7.69414 21.999 9.73169 21.0042 11.3813C20.6384 11.9881 20.0489 12.5522 19.0979 13.4624C19.0658 13.4932 19.0332 13.5246 19.0003 13.5562L11.5433 20.6958C11.0141 21.2024 10.5828 21.6152 10.2034 21.9214C9.81028 22.2384 9.42245 22.4832 8.96806 22.6138C8.33619 22.7954 7.6634 22.7954 7.03154 22.6138C6.57716 22.4832 6.19027 22.2384 5.79716 21.9214C5.41767 21.6153 4.98558 21.2026 4.45634 20.6958L4.40849 20.6499C3.87973 20.1436 3.44815 19.7303 3.12822 19.3667C2.79792 18.9913 2.53645 18.6148 2.39579 18.1665C2.20086 17.5449 2.20086 16.8809 2.39579 16.2593C2.53642 15.8109 2.79792 15.4345 3.12822 15.0591C3.44813 14.6955 3.87979 14.2821 4.40849 13.7759L11.7591 6.73779C11.7854 6.71265 11.8116 6.68724 11.8372 6.6626C12.2066 6.30808 12.5187 6.00852 12.8792 5.84229C13.514 5.5496 14.2512 5.5496 14.886 5.84229C15.2463 6.00852 15.5578 6.30824 15.927 6.6626C15.9527 6.68729 15.9788 6.71259 16.0052 6.73779C16.0324 6.76386 16.0595 6.78943 16.0862 6.81494C16.4532 7.1654 16.7686 7.46699 16.9456 7.81885C17.2618 8.44779 17.2619 9.1831 16.9456 9.81201C16.8416 10.0186 16.7034 10.1903 16.555 10.3501C16.4133 10.5027 16.2318 10.6764 16.0208 10.8784L8.62529 17.9595C8.32609 18.2456 7.85112 18.2352 7.56474 17.936C7.2786 17.6369 7.28911 17.1619 7.58818 16.8755L14.9681 9.81006C15.1985 9.58945 15.3481 9.44609 15.4563 9.32959C15.5609 9.21698 15.5926 9.16431 15.6058 9.13818C15.7088 8.93327 15.7088 8.69759 15.6058 8.49268C15.5615 8.40459 15.4629 8.29463 14.9681 7.8208C14.4761 7.34984 14.3577 7.25099 14.2571 7.20459C14.021 7.09583 13.7432 7.09574 13.5071 7.20459C13.4066 7.25102 13.2885 7.35033 12.7972 7.8208L5.47001 14.8354C4.91138 15.3703 4.52762 15.7397 4.25517 16.0493C3.98831 16.3526 3.87859 16.5453 3.82744 16.7085C3.7242 17.0377 3.72416 17.388 3.82744 17.7173C3.87859 17.8804 3.98833 18.0731 4.25517 18.3765C4.52755 18.686 4.91166 19.0547 5.47001 19.5894C6.02866 20.1243 6.41464 20.4931 6.73857 20.7544C7.05428 21.0091 7.26129 21.1193 7.4456 21.1724C7.80674 21.2763 8.19286 21.2763 8.554 21.1724C8.73834 21.1194 8.94525 21.0091 9.26103 20.7544C9.58496 20.4931 9.9709 20.1243 10.5296 19.5894L17.9632 12.4722C19.0427 11.4385 19.4699 11.0198 19.719 10.6069C20.4265 9.43362 20.4265 7.99215 19.719 6.81885C19.4699 6.40597 19.0428 5.98734 17.9632 4.95361C16.885 3.92136 16.4455 3.50937 16.0091 3.26807C14.7608 2.57796 13.2183 2.57796 11.97 3.26807C11.5335 3.50935 11.0942 3.92118 10.0159 4.95361L4.02665 10.688C3.72751 10.9744 3.25259 10.9646 2.96611 10.6655C2.67964 10.3664 2.69036 9.89144 2.98954 9.60498L8.9788 3.86963C9.01029 3.83948 9.04184 3.81018 9.07255 3.78076C10.0272 2.86637 10.6147 2.30268 11.2444 1.95459Z" fill="#1C274C"/>
</svg>
