<svg width="24" height="24" viewBox="0 0 24 24" fill="none" xmlns="http://www.w3.org/2000/svg">
<path d="M11.0417 1.31201C11.759 1.21721 12.3886 1.21985 13.0232 1.40186C13.6576 1.5839 14.192 1.91511 14.7498 2.37549C15.2893 2.82072 15.8909 3.42082 16.6414 4.17139L18.5369 6.06787C19.8472 7.37818 20.8849 8.41542 21.5876 9.33643C22.3107 10.2842 22.7498 11.1969 22.7498 12.2622C22.7497 13.3274 22.3107 14.2393 21.5876 15.187C20.8849 16.1082 19.8474 17.146 18.5369 18.4565L18.4568 18.5366C17.1462 19.8472 16.1084 20.8846 15.1873 21.5874C14.2395 22.3105 13.3277 22.7495 12.2625 22.7495C11.1972 22.7495 10.2844 22.3105 9.33667 21.5874C8.41567 20.8846 7.37842 19.8469 6.06812 18.5366L4.17163 16.6411C3.42107 15.8906 2.82096 15.289 2.37573 14.7495C1.91535 14.1917 1.58414 13.6574 1.4021 13.0229C1.22009 12.3883 1.21746 11.7588 1.31226 11.0415C1.4039 10.3481 1.5941 9.52004 1.83276 8.48584L2.13354 7.18311C2.33271 6.32 2.49545 5.6159 2.68823 5.0542C2.88956 4.46767 3.14339 3.97501 3.55933 3.55908C3.97525 3.14315 4.46792 2.88932 5.05444 2.68799C5.61614 2.49521 6.32023 2.33247 7.18335 2.1333L8.48608 1.83252C9.52028 1.59385 10.3484 1.40366 11.0417 1.31201ZM12.6091 2.84326C12.2413 2.73776 11.8362 2.71929 11.238 2.79834C10.6241 2.87949 9.86615 3.05438 8.78784 3.30322L7.55933 3.58643C6.64834 3.79665 6.02094 3.94248 5.54175 4.10693C5.07912 4.26571 4.81736 4.42213 4.61987 4.61963C4.42237 4.81712 4.26596 5.07887 4.10718 5.5415C3.94272 6.0207 3.79689 6.64809 3.58667 7.55908L3.30347 8.7876C3.05463 9.86591 2.87974 10.6239 2.79858 11.2378C2.71953 11.8359 2.738 12.241 2.84351 12.6089C2.94904 12.9769 3.14789 13.3301 3.53198 13.7954C3.92617 14.273 4.47598 14.8233 5.25854 15.606L7.08862 17.436C8.44795 18.7954 9.41522 19.7604 10.2468 20.395C11.0612 21.0163 11.6571 21.2495 12.2625 21.2495C12.8679 21.2495 13.4638 21.0163 14.2781 20.395C15.1097 19.7604 16.077 18.7953 17.4363 17.436C18.7956 16.0767 19.7607 15.1095 20.3953 14.2778C21.0165 13.4636 21.2497 12.8677 21.2498 12.2622C21.2498 11.6568 21.0166 11.061 20.3953 10.2466C19.7607 9.41498 18.7956 8.44771 17.4363 7.08838L15.6062 5.2583C14.8236 4.47574 14.2733 3.92593 13.7957 3.53174C13.3304 3.14765 12.9771 2.94879 12.6091 2.84326ZM17.99 10.9897C18.2829 10.6968 18.7586 10.6968 19.0515 10.9897C19.3442 11.2825 19.344 11.7574 19.0515 12.0503L12.072 19.0298C11.7791 19.3227 11.3044 19.3227 11.0115 19.0298C10.7186 18.7369 10.7186 18.2621 11.0115 17.9692L17.99 10.9897ZM6.66284 6.93408C7.73676 5.86043 9.47764 5.86035 10.5515 6.93408C11.6254 8.00803 11.6254 9.74976 10.5515 10.8237C9.47767 11.8973 7.73673 11.8972 6.66284 10.8237C5.5889 9.74976 5.5889 8.00803 6.66284 6.93408ZM9.49097 7.99463C9.00288 7.50669 8.21153 7.50676 7.72339 7.99463C7.23528 8.48275 7.23537 9.27405 7.72339 9.76221C8.21155 10.2504 9.00281 10.2504 9.49097 9.76221C9.97887 9.27404 9.97904 8.48271 9.49097 7.99463Z" fill="#48465C"/>
</svg>
