<svg width="24" height="24" viewBox="0 0 24 24" fill="none" xmlns="http://www.w3.org/2000/svg">
<path d="M12 19.25C12.4142 19.25 12.75 19.5858 12.75 20V22C12.75 22.4142 12.4142 22.75 12 22.75C11.5858 22.75 11.25 22.4142 11.25 22V20C11.25 19.5858 11.5858 19.25 12 19.25ZM5.8125 17.127C6.10539 16.8341 6.58015 16.8341 6.87305 17.127C7.16593 17.4199 7.16593 17.8946 6.87305 18.1875L6.53027 18.5303C6.23738 18.8231 5.76258 18.8231 5.46973 18.5303C5.17686 18.2374 5.17692 17.7626 5.46973 17.4697L5.8125 17.127ZM17.127 17.127C17.4199 16.8343 17.8946 16.8342 18.1875 17.127L18.5303 17.4697C18.8231 17.7626 18.823 18.2374 18.5303 18.5303C18.2374 18.8231 17.7626 18.8231 17.4697 18.5303L17.127 18.1875C16.8341 17.8946 16.8341 17.4199 17.127 17.127ZM12 7C12.4734 7 12.7905 7.56797 13.4238 8.7041L13.5869 8.99805C13.7667 9.32067 13.8569 9.48236 13.9971 9.58887C14.1374 9.69538 14.3126 9.73538 14.6621 9.81445L14.9805 9.88574C16.21 10.1639 16.8252 10.3032 16.9717 10.7734C17.118 11.2438 16.6986 11.7345 15.8604 12.7148L15.6426 12.9688C15.4047 13.247 15.2861 13.3864 15.2324 13.5586C15.1788 13.7309 15.1964 13.9174 15.2324 14.2891L15.2656 14.627C15.3924 15.935 15.4552 16.5892 15.0723 16.8799C14.6893 17.1707 14.1134 16.9062 12.9619 16.376L12.6641 16.2383C12.3369 16.0878 12.1734 16.0127 12 16.0127C11.8266 16.0127 11.6631 16.0878 11.3359 16.2383L11.0381 16.376C9.88663 16.9062 9.31075 17.1707 8.92773 16.8799C8.54473 16.5892 8.60761 15.9351 8.73438 14.627L8.76758 14.2891C8.8036 13.9174 8.82117 13.7309 8.76758 13.5586C8.71395 13.3864 8.59532 13.2469 8.35742 12.9688L8.13965 12.7148C7.30138 11.7345 6.88203 11.2438 7.02832 10.7734C7.17479 10.3032 7.79008 10.1639 9.01953 9.88574L9.33789 9.81445C9.68738 9.73538 9.8626 9.69538 10.0029 9.58887C10.1431 9.48236 10.2333 9.32068 10.4131 8.99805L10.5762 8.7041C11.2095 7.56797 11.5266 7 12 7ZM4 11.25C4.41421 11.25 4.75 11.5858 4.75 12C4.75 12.4142 4.41421 12.75 4 12.75H2C1.58579 12.75 1.25 12.4142 1.25 12C1.25 11.5858 1.58579 11.25 2 11.25H4ZM22 11.25C22.4142 11.25 22.75 11.5858 22.75 12C22.75 12.4142 22.4142 12.75 22 12.75H20C19.5858 12.75 19.25 12.4142 19.25 12C19.25 11.5858 19.5858 11.25 20 11.25H22ZM5.46973 5.46973C5.76262 5.17684 6.23738 5.17684 6.53027 5.46973L6.87402 5.8125C7.16691 6.10539 7.16691 6.58113 6.87402 6.87402C6.58113 7.16691 6.10539 7.16691 5.8125 6.87402L5.46973 6.53027C5.17684 6.23738 5.17684 5.76262 5.46973 5.46973ZM17.4697 5.46973C17.7626 5.17684 18.2375 5.17684 18.5303 5.46973C18.8231 5.76263 18.8232 6.23739 18.5303 6.53027L18.1875 6.87305C17.8946 7.16593 17.4199 7.16593 17.127 6.87305C16.8341 6.58015 16.8341 6.10539 17.127 5.8125L17.4697 5.46973ZM12 1.25C12.4142 1.25 12.75 1.58579 12.75 2V4C12.75 4.41421 12.4142 4.75 12 4.75C11.5858 4.75 11.25 4.41421 11.25 4V2C11.25 1.58579 11.5858 1.25 12 1.25Z" fill="#48465C"/>
</svg>
