<svg width="24" height="24" viewBox="0 0 24 24" fill="none" xmlns="http://www.w3.org/2000/svg">
<path d="M15 2C17.8284 2 19.2424 2.00023 20.1211 2.87891C20.9998 3.75759 21 5.17158 21 8V16C21 18.8284 20.9998 20.2424 20.1211 21.1211C19.2424 21.9998 17.8284 22 15 22H14C11.1716 22 9.75759 21.9998 8.87891 21.1211C8.00023 20.2424 8 18.8284 8 16V8C8 5.17157 8.00023 3.75759 8.87891 2.87891C9.75759 2.00023 11.1716 2 14 2H15ZM6.62305 4.50781C6.49971 5.42523 6.49993 6.57177 6.5 7.90137V16.0996C6.49993 17.4291 6.49971 18.5758 6.62305 19.4932C5.15216 19.4661 4.30556 19.3414 3.73242 18.7686C3.00019 18.0363 3 16.857 3 14.5V9.5C3 7.14323 3.00023 5.96461 3.73242 5.23242C4.30556 4.65945 5.1521 4.53487 6.62305 4.50781ZM15.0303 7.46973C14.7374 7.17684 14.2626 7.17684 13.9697 7.46973L11.4697 9.96973C11.1768 10.2627 11.1768 10.7374 11.4697 11.0303C11.7626 11.3232 12.2374 11.3232 12.5303 11.0303L13.75 9.81055V16C13.75 16.4142 14.0858 16.75 14.5 16.75C14.9142 16.75 15.25 16.4142 15.25 16V9.81055L16.4697 11.0303C16.7626 11.3232 17.2374 11.3232 17.5303 11.0303C17.8232 10.7374 17.8232 10.2627 17.5303 9.96973L15.0303 7.46973Z" fill="#48465C"/>
</svg>
