<svg width="24" height="24" viewBox="0 0 24 24" fill="none" xmlns="http://www.w3.org/2000/svg">
<path d="M18.7832 14.1631C18.9693 13.793 19.4209 13.6441 19.791 13.8301C21.4368 14.6577 22.75 15.9001 22.75 17.5C22.75 19.2216 21.2355 20.5308 19.3789 21.3662C17.4519 22.2334 14.8424 22.75 12 22.75C9.15767 22.75 6.54808 22.2334 4.62109 21.3662C2.7645 20.5308 1.25 19.2216 1.25 17.5C1.25 15.9001 2.56317 14.6577 4.20898 13.8301C4.57905 13.6441 5.03073 13.793 5.2168 14.1631C5.40274 14.5332 5.25283 14.9838 4.88281 15.1699C3.36207 15.9346 2.75 16.7949 2.75 17.5C2.75 18.2637 3.47385 19.2049 5.23633 19.998C6.92862 20.7596 9.31951 21.25 12 21.25C14.6805 21.25 17.0714 20.7596 18.7637 19.998C20.5262 19.2049 21.25 18.2637 21.25 17.5C21.25 16.7949 20.6379 15.9346 19.1172 15.1699C18.7471 14.9838 18.5972 14.5332 18.7832 14.1631ZM16.9893 7.16406C18.41 6.8596 19.75 7.94246 19.75 9.39551C19.75 10.3778 19.1214 11.2498 18.1895 11.5605L16.0137 12.2861C15.877 12.3317 15.7951 12.3589 15.7344 12.3818C15.6964 12.3961 15.68 12.4042 15.6758 12.4062C15.5937 12.4581 15.5483 12.5531 15.5605 12.6494C15.5616 12.654 15.5661 12.6716 15.5791 12.71C15.6 12.7716 15.6317 12.8525 15.6836 12.9873L16.9297 16.2285C17.4898 17.6847 16.4148 19.25 14.8545 19.25C14.0569 19.2499 13.3207 18.8224 12.9248 18.1299L12 16.5117L11.0752 18.1299C10.6793 18.8224 9.94309 19.2498 9.14551 19.25C7.58529 19.25 6.51023 17.6847 7.07031 16.2285L8.31641 12.9873C8.36828 12.8525 8.39999 12.7716 8.4209 12.71C8.43392 12.6716 8.43839 12.654 8.43945 12.6494C8.45164 12.5531 8.40631 12.4581 8.32422 12.4062C8.31999 12.4042 8.30354 12.3961 8.26562 12.3818C8.2049 12.3589 8.12296 12.3317 7.98633 12.2861L5.81055 11.5605C4.87863 11.2498 4.25 10.3778 4.25 9.39551C4.25001 7.94246 5.58994 6.8596 7.01074 7.16406L8.9082 7.57031C9.01455 7.5931 9.06425 7.60412 9.11328 7.61426C11.0175 8.00814 12.9825 8.00814 14.8867 7.61426C14.9358 7.60412 14.9854 7.59311 15.0918 7.57031L16.9893 7.16406ZM18.25 9.39551C18.25 8.89742 17.7907 8.52649 17.3037 8.63086L15.4033 9.03809C15.3007 9.06007 15.2454 9.07164 15.1904 9.08301C13.0858 9.51834 10.9142 9.51834 8.80957 9.08301C8.75462 9.07163 8.6992 9.06005 8.59668 9.03809L6.69629 8.63086C6.20926 8.52649 5.75001 8.89742 5.75 9.39551C5.75 9.73226 5.96568 10.0312 6.28516 10.1377L8.45996 10.8633C8.478 10.8693 8.49645 10.8748 8.51465 10.8809C8.72023 10.949 8.93424 11.0202 9.11035 11.1289C9.6992 11.4925 10.0184 12.1689 9.9248 12.8545C9.89677 13.0596 9.8154 13.2697 9.7373 13.4717C9.73037 13.4897 9.72365 13.5076 9.7168 13.5254L8.46973 16.7676C8.28791 17.2412 8.63811 17.75 9.14551 17.75C9.40487 17.7498 9.64474 17.6109 9.77344 17.3857L11.3486 14.6279C11.4821 14.3942 11.7309 14.25 12 14.25C12.2691 14.25 12.5179 14.3942 12.6514 14.6279L14.2266 17.3857C14.3553 17.6109 14.5951 17.7499 14.8545 17.75C15.3619 17.75 15.7121 17.2412 15.5303 16.7676L14.2832 13.5254C14.2763 13.5076 14.2697 13.4896 14.2627 13.4717C14.1846 13.2697 14.1033 13.0596 14.0752 12.8545C13.9816 12.1689 14.3008 11.4925 14.8896 11.1289C15.0657 11.0202 15.2798 10.949 15.4854 10.8809C15.5036 10.8748 15.522 10.8693 15.54 10.8633L17.7148 10.1377C18.0343 10.0312 18.25 9.73226 18.25 9.39551ZM12 1.25C13.5188 1.25 14.75 2.48122 14.75 4C14.75 5.51878 13.5188 6.75 12 6.75C10.4812 6.75 9.25 5.51878 9.25 4C9.25 2.48122 10.4812 1.25 12 1.25ZM12 2.75C11.3096 2.75 10.75 3.30964 10.75 4C10.75 4.69036 11.3096 5.25 12 5.25C12.6904 5.25 13.25 4.69036 13.25 4C13.25 3.30964 12.6904 2.75 12 2.75Z" fill="#48465C"/>
</svg>
