<svg width="24" height="24" viewBox="0 0 24 24" fill="none" xmlns="http://www.w3.org/2000/svg">
<path d="M10.0498 1.25C10.7144 1.24996 11.2875 1.24986 11.7461 1.31152C12.2377 1.37764 12.7086 1.52702 13.0908 1.90918C13.473 2.29137 13.6224 2.76235 13.6885 3.25391C13.7273 3.54252 13.7418 3.87656 13.7471 4.25H14.3193C15.212 4.25 16.0923 4.4583 16.8906 4.85742L17.0098 4.91602C17.9532 3.89691 19.6235 3.87802 20.875 4.60059C22.2865 5.41563 23.1474 7.16347 22.3145 8.60645C21.4814 10.0495 19.5367 10.1783 18.125 9.36328C17.0041 8.71611 16.2301 7.48032 16.376 6.27637L16.2207 6.19824C15.6306 5.90317 14.9791 5.75 14.3193 5.75H13.75V7C13.75 7.01475 13.7499 7.02941 13.749 7.04395C16.5263 8.28664 18.5163 10.8695 18.7305 13.9434C18.7499 14.0276 18.7557 14.1158 18.7451 14.2031C18.7486 14.3 18.75 14.3974 18.75 14.4951C18.75 16.6161 17.8997 18.545 16.5156 19.999L16.498 20.0176C16.2854 20.2412 16.0759 20.4604 15.791 20.6689C15.4963 20.8847 15.1473 21.0717 14.6494 21.2852C13.5639 21.7505 12.7749 21.7501 11.5166 21.75H8.4834C7.22509 21.7501 6.43608 21.7506 5.35059 21.2852C4.85266 21.0717 4.5036 20.8847 4.20898 20.6689C3.92412 20.4604 3.71467 20.2411 3.50195 20.0176L3.48438 19.999C2.10028 18.545 1.25003 16.6161 1.25 14.4951C1.25 11.1806 3.30908 8.3603 6.25098 7.04395C6.25013 7.02941 6.25 7.01475 6.25 7V5.5C6.25 5.4869 6.25031 5.47388 6.25098 5.46094C6.25031 5.44804 6.25 5.43494 6.25 5.42188V4.9502C6.24996 4.28552 6.24986 3.71255 6.31152 3.25391C6.37764 2.76235 6.527 2.29137 6.90918 1.90918C7.29137 1.527 7.76235 1.37764 8.25391 1.31152C8.71255 1.24986 9.28551 1.24996 9.9502 1.25H10.0498ZM2.77441 13.9395C2.75824 14.1227 2.75 14.3084 2.75 14.4951C2.75003 16.2036 3.43228 17.7693 4.57031 18.9648C4.80142 19.2076 4.92668 19.3359 5.09473 19.459C5.26101 19.5808 5.49598 19.7152 5.94141 19.9062C6.7263 20.2428 7.23208 20.25 8.54199 20.25H11.458C12.7679 20.25 13.2737 20.2428 14.0586 19.9062C14.504 19.7152 14.739 19.5808 14.9053 19.459C15.0734 19.3359 15.1986 19.2076 15.4297 18.9648C16.5475 17.7906 17.2252 16.259 17.249 14.5859C16.752 14.3829 16.0504 14.1863 15.2754 14.0576C14.0368 13.8518 13.091 14.2511 11.9492 14.7725L11.8398 14.8223C10.7451 15.3232 9.4525 15.9143 7.77637 15.7256C6.56157 15.5887 5.50161 15.2068 4.58301 14.7998C4.1723 14.6179 3.78176 14.4272 3.42285 14.252L3.30273 14.1934C3.11786 14.1032 2.94229 14.0179 2.77441 13.9395ZM9.99219 7.75C6.7319 7.75318 4.02421 9.74179 3.09473 12.4375C3.38078 12.5638 3.67144 12.704 3.95996 12.8447L4.08008 12.9043C4.44187 13.081 4.80681 13.2588 5.19043 13.4287C6.03879 13.8045 6.94166 14.1224 7.94434 14.2354C9.20337 14.3771 10.1611 13.9397 11.3145 13.4131L11.3262 13.4082C12.4606 12.8902 13.7859 12.2901 15.5205 12.5781C16.0496 12.666 16.5747 12.7858 17.0527 12.9297C16.2981 9.98745 13.4636 7.75338 10.0078 7.75H9.99219ZM20.125 5.89941C19.1455 5.33385 18.2559 5.63647 17.9844 6.10645C17.713 6.57655 17.8953 7.49879 18.875 8.06445C19.8548 8.63008 20.7442 8.32654 21.0156 7.85645C21.2868 7.38625 21.1045 6.46496 20.125 5.89941ZM10 2.75C9.27178 2.75 8.80097 2.75124 8.4541 2.79785C8.12881 2.84159 8.02683 2.91264 7.96973 2.96973C7.92295 3.01652 7.86693 3.09357 7.82422 3.29883C7.85871 3.30672 7.89392 3.31542 7.92871 3.32617C8.13099 3.38866 8.36572 3.5144 8.53711 3.76074C8.70286 3.99903 8.75 4.2659 8.75 4.5C8.75 4.73418 8.70277 5.00099 8.53711 5.23926C8.36583 5.48559 8.13105 5.61119 7.92871 5.67383C7.86864 5.69241 7.8085 5.70624 7.75 5.7168V6.25H12.25V5C12.25 4.27177 12.2487 3.80097 12.2021 3.4541C12.1584 3.12883 12.0874 3.02683 12.0303 2.96973C11.9732 2.91264 11.8712 2.84159 11.5459 2.79785C11.199 2.75124 10.7282 2.75 10 2.75Z" fill="#48465C"/>
</svg>
