<svg width="24" height="24" viewBox="0 0 24 24" fill="none" xmlns="http://www.w3.org/2000/svg">
<path d="M5.07846 5.0686C8.87379 1.27862 15.0441 1.31939 18.8626 5.13794C22.6826 8.95814 22.7209 15.1312 18.9261 18.926C15.1313 22.7208 8.95824 22.6825 5.13803 18.8625C2.87421 16.5988 1.93879 13.51 2.34018 10.5813C2.39643 10.1709 2.77551 9.88345 3.18588 9.9397C3.59609 9.9961 3.88274 10.3751 3.82651 10.7854C3.48669 13.2656 4.27812 15.8815 6.19858 17.802C9.44307 21.0463 14.6665 21.0645 17.8656 17.8655C21.0646 14.6664 21.0463 9.44297 17.8021 6.19849C14.5592 2.95566 9.33855 2.93497 6.13901 6.12915L6.88705 6.13306C7.30121 6.13514 7.63513 6.47283 7.63315 6.88696C7.63107 7.30117 7.29345 7.63514 6.87924 7.63306L4.33432 7.62036C3.92305 7.61829 3.5903 7.28553 3.58823 6.87427L3.57553 4.32837C3.57368 3.91436 3.90755 3.57753 4.32162 3.57544C4.73569 3.57354 5.07345 3.90743 5.07553 4.32153L5.07846 5.0686ZM12.0003 7.25024C12.4144 7.25042 12.7503 7.58614 12.7503 8.00024V11.6897L15.0306 13.97C15.3232 14.2629 15.3234 14.7378 15.0306 15.0305C14.7378 15.3233 14.263 15.3231 13.9701 15.0305L11.2503 12.3108V8.00024C11.2503 7.58603 11.5861 7.25024 12.0003 7.25024Z" fill="#1C274C"/>
</svg>
