<svg width="24" height="24" viewBox="0 0 24 24" fill="none" xmlns="http://www.w3.org/2000/svg">
<path d="M5.07849 5.0686C8.87382 1.27862 15.0442 1.31939 18.8627 5.13794C22.6826 8.95814 22.721 15.1312 18.9261 18.926C15.1313 22.7208 8.95827 22.6825 5.13806 18.8625C2.87424 16.5988 1.93882 13.51 2.34021 10.5813C2.39646 10.1709 2.77554 9.88345 3.18591 9.9397C3.59612 9.9961 3.88277 10.3751 3.82654 10.7854C3.48672 13.2656 4.27815 15.8815 6.19861 17.802C9.4431 21.0463 14.6666 21.0645 17.8656 17.8655C21.0646 14.6664 21.0463 9.44298 17.8021 6.19849C14.5592 2.95566 9.33858 2.93497 6.13904 6.12915L6.88708 6.13306C7.30124 6.13514 7.63516 6.47283 7.63318 6.88696C7.6311 7.30117 7.29348 7.63514 6.87927 7.63306L4.33435 7.62036C3.92308 7.61829 3.59033 7.28553 3.58826 6.87427L3.57556 4.32837C3.57371 3.91436 3.90759 3.57753 4.32166 3.57544C4.73572 3.57354 5.07348 3.90743 5.07556 4.32153L5.07849 5.0686ZM12.0004 7.25024C12.4144 7.25042 12.7504 7.58614 12.7504 8.00024V11.6897L15.0306 13.97C15.3232 14.2629 15.3234 14.7378 15.0306 15.0305C14.7378 15.3233 14.263 15.3231 13.9701 15.0305L11.2504 12.3108V8.00024C11.2504 7.58603 11.5862 7.25024 12.0004 7.25024Z" fill="#48465C"/>
</svg>
