<svg width="24" height="24" viewBox="0 0 24 24" fill="none" xmlns="http://www.w3.org/2000/svg">
<path d="M15.6484 20.2422C14.8073 21.3113 13.4856 22 11.9999 22C10.5142 22 9.19258 21.3113 8.3515 20.2422C10.7733 20.5704 13.2266 20.5704 15.6484 20.2422ZM11.9999 2C15.7273 2 18.749 5.13401 18.749 9V9.7041C18.749 10.5491 18.9904 11.3751 19.4423 12.0781L20.5497 13.8008C21.5613 15.3745 20.7886 17.514 19.0292 18.0117C14.4271 19.3134 9.57281 19.3134 4.97064 18.0117C3.21133 17.514 2.43859 15.3745 3.45013 13.8008L4.55756 12.0781C5.00948 11.3751 5.25092 10.5491 5.25092 9.7041V9C5.25092 5.13403 8.27252 2.00003 11.9999 2ZM11.9999 5.25C11.5858 5.25003 11.2499 5.58581 11.2499 6V10C11.2499 10.4142 11.5858 10.75 11.9999 10.75C12.4141 10.75 12.7499 10.4142 12.7499 10V6C12.7499 5.58579 12.4141 5.25 11.9999 5.25Z" fill="#1C274C"/>
</svg>
