<svg width="24" height="24" viewBox="0 0 24 24" fill="none" xmlns="http://www.w3.org/2000/svg">
<path d="M17.75 2.22168C18.9727 2.41594 19.8512 2.78081 20.5352 3.46484C21.9997 4.9293 22 7.28598 22 12C22 16.714 21.9996 19.0708 20.5352 20.5352C19.0708 21.9997 16.714 22 12 22C7.28595 22 4.9293 21.9997 3.46484 20.5352C2.00038 19.0708 2 16.714 2 12C2 7.28598 2.00038 4.9293 3.46484 3.46484C4.14887 2.78082 5.02728 2.41594 6.25 2.22168V11.8311C6.25 12.2986 6.25018 12.6826 6.26758 12.9844C6.28474 13.2819 6.32121 13.5901 6.44336 13.8652C6.88478 14.859 7.97451 15.3953 9.03125 15.1387C9.32383 15.0676 9.59066 14.9082 9.83691 14.7402C10.0865 14.5698 10.3904 14.3359 10.7607 14.0508L10.7793 14.0361C11.2485 13.6749 11.3809 13.58 11.502 13.5273C11.8195 13.3895 12.1805 13.3895 12.498 13.5273C12.6191 13.58 12.7515 13.6749 13.2207 14.0361L13.2393 14.0508C13.6096 14.3359 13.9134 14.5698 14.1631 14.7402C14.4093 14.9082 14.6761 15.0676 14.9688 15.1387C16.0256 15.3953 17.1152 14.859 17.5566 13.8652C17.6788 13.5901 17.7153 13.2819 17.7324 12.9844C17.7498 12.6826 17.75 12.2986 17.75 11.8311V2.22168ZM7 17.25C6.5858 17.25 6.25002 17.5858 6.25 18C6.25 18.4142 6.58579 18.75 7 18.75H17C17.4142 18.75 17.75 18.4142 17.75 18C17.75 17.5858 17.4142 17.25 17 17.25H7ZM12 2C13.7004 2 15.0942 1.99962 16.25 2.06836V11.8076C16.25 12.3042 16.2499 12.6441 16.2354 12.8975C16.2204 13.1577 16.1927 13.2394 16.1855 13.2559C16.0385 13.5871 15.6755 13.766 15.3232 13.6807C15.3068 13.6767 15.2259 13.649 15.0088 13.501C14.7992 13.358 14.5293 13.1507 14.1357 12.8477L14.0684 12.7969C13.6982 12.5114 13.41 12.2888 13.0957 12.1523C12.3967 11.8486 11.6033 11.8486 10.9043 12.1523C10.59 12.2888 10.3018 12.5115 9.93164 12.7969L9.86426 12.8477C9.47069 13.1507 9.20085 13.358 8.99121 13.501C8.77407 13.649 8.69323 13.6767 8.67676 13.6807C8.32457 13.7661 7.96157 13.5871 7.81445 13.2559C7.80728 13.2394 7.77965 13.1577 7.76465 12.8975C7.75006 12.6441 7.75 12.3042 7.75 11.8076V2.06836C8.9058 1.99962 10.2996 2 12 2Z" fill="#1C274C"/>
</svg>
