<svg width="24" height="24" viewBox="0 0 24 24" fill="none" xmlns="http://www.w3.org/2000/svg">
<path d="M13.8965 1.25684C13.9304 1.25216 13.9649 1.25 14 1.25C14.0428 1.25 14.0851 1.25384 14.126 1.26074C15.0331 1.2759 15.8165 1.31286 16.4893 1.40332C17.6615 1.56095 18.6101 1.89332 19.3584 2.6416C20.1066 3.38991 20.439 4.33845 20.5967 5.51074C20.7498 6.6499 20.75 8.10571 20.75 9.94336V12.0566C20.75 12.3708 20.7498 12.6736 20.749 12.9658C20.7495 12.9771 20.75 12.9886 20.75 13C20.75 13.0128 20.7497 13.0255 20.749 13.0381C20.7448 14.4221 20.7215 15.561 20.5967 16.4893C20.439 17.6615 20.1066 18.6101 19.3584 19.3584C18.9529 19.7638 18.4888 20.0476 17.9619 20.2471L18.6709 21.665C18.8559 22.0355 18.7053 22.4858 18.335 22.6709C17.9645 22.8559 17.5142 22.7053 17.3291 22.335L16.4619 20.6006C15.3269 20.7501 13.8796 20.75 12.0566 20.75H11.9434C10.1204 20.75 8.67318 20.7501 7.53809 20.6006L6.6709 22.335C6.48572 22.7053 6.03544 22.8559 5.66504 22.6709C5.29469 22.4858 5.14415 22.0355 5.3291 21.665L6.03809 20.2471C5.51121 20.0476 5.04708 19.7638 4.6416 19.3584C3.89332 18.6101 3.56095 17.6615 3.40332 16.4893C3.27851 15.561 3.25525 14.4222 3.25098 13.0381C3.25034 13.0255 3.25 13.0128 3.25 13C3.25 12.9886 3.25048 12.9771 3.25098 12.9658C3.25021 12.6737 3.25 12.3708 3.25 12.0566V9.94336C3.24998 8.10571 3.25016 6.64991 3.40332 5.51074C3.56095 4.33844 3.8933 3.38992 4.6416 2.6416C5.38992 1.8933 6.33844 1.56095 7.51074 1.40332C8.18355 1.31286 8.96696 1.2759 9.87402 1.26074C9.9149 1.25384 9.95716 1.25 10 1.25C10.0351 1.25 10.0696 1.25216 10.1035 1.25684C10.6691 1.24969 11.2817 1.24999 11.9434 1.25H12.0566C12.7183 1.24999 13.3309 1.24969 13.8965 1.25684ZM4.75586 13.75C4.76675 14.7835 4.79811 15.6081 4.88965 16.2891C5.02491 17.2951 5.27894 17.8747 5.70215 18.2979C6.12536 18.7211 6.70485 18.9752 7.71094 19.1104C8.73858 19.2485 10.0933 19.25 12 19.25C13.9067 19.25 15.2614 19.2485 16.2891 19.1104C17.2951 18.9752 17.8747 18.7211 18.2979 18.2979C18.7211 17.8747 18.9752 17.2951 19.1104 16.2891C19.2019 15.6081 19.2332 14.7835 19.2441 13.75H4.75586ZM8.5 15.25C8.91421 15.25 9.25 15.5858 9.25 16C9.25 16.4142 8.91421 16.75 8.5 16.75H7C6.58579 16.75 6.25 16.4142 6.25 16C6.25 15.5858 6.58579 15.25 7 15.25H8.5ZM17 15.25C17.4142 15.25 17.75 15.5858 17.75 16C17.75 16.4142 17.4142 16.75 17 16.75H15.5C15.0858 16.75 14.75 16.4142 14.75 16C14.75 15.5858 15.0858 15.25 15.5 15.25H17ZM14.7363 2.77539C14.598 4.16476 13.4258 5.25 12 5.25C10.5742 5.25 9.40194 4.16476 9.26367 2.77539C8.67121 2.79488 8.15985 2.8293 7.71094 2.88965C6.70485 3.02491 6.12536 3.27894 5.70215 3.70215C5.27894 4.12536 5.02491 4.70485 4.88965 5.71094C4.75149 6.73858 4.75 8.09324 4.75 10V12.25H19.25V10C19.25 8.09325 19.2485 6.73858 19.1104 5.71094C18.9752 4.70485 18.7211 4.12536 18.2979 3.70215C17.8747 3.27894 17.2951 3.02491 16.2891 2.88965C15.8401 2.8293 15.3288 2.79488 14.7363 2.77539ZM10.7754 2.75195C10.8919 3.32155 11.3959 3.75 12 3.75C12.6041 3.75 13.1081 3.32155 13.2246 2.75195C12.8435 2.75016 12.4362 2.75 12 2.75C11.5638 2.75 11.1565 2.75016 10.7754 2.75195Z" fill="#1C274C"/>
</svg>
