<svg width="24" height="24" viewBox="0 0 24 24" fill="none" xmlns="http://www.w3.org/2000/svg">
<path d="M21.9873 9.75C22.0002 10.4153 22 11.161 22 12V14C22 17.7712 21.9997 19.6566 20.8281 20.8281C19.6566 21.9997 17.7712 22 14 22H10C6.22878 22 4.34346 21.9997 3.17188 20.8281C2.00031 19.6566 2 17.7712 2 14V12C2 11.161 1.9998 10.4153 2.0127 9.75H21.9873ZM10.7871 12.3066C10.5069 12.1906 10.1842 12.2553 9.96973 12.4697L8.46973 13.9697C8.17684 14.2626 8.17684 14.7374 8.46973 15.0303C8.76261 15.3232 9.23739 15.3232 9.53027 15.0303L9.75 14.8105V17C9.75 17.4142 10.0858 17.75 10.5 17.75C10.9142 17.75 11.25 17.4142 11.25 17V13C11.25 12.6967 11.0674 12.4227 10.7871 12.3066ZM14 12.25C13.0335 12.25 12.25 13.0335 12.25 14V16C12.25 16.9665 13.0335 17.75 14 17.75C14.9665 17.75 15.75 16.9665 15.75 16V14C15.75 13.0335 14.9665 12.25 14 12.25ZM14 13.75C14.1381 13.75 14.25 13.8619 14.25 14V16C14.25 16.1381 14.1381 16.25 14 16.25C13.8619 16.25 13.75 16.1381 13.75 16V14C13.75 13.8619 13.8619 13.75 14 13.75ZM17 1.75C17.4142 1.75 17.75 2.08579 17.75 2.5V4.0791C19.1893 4.19435 20.1339 4.47768 20.8281 5.17188C21.5223 5.86607 21.8057 6.81067 21.9209 8.25H2.0791C2.19435 6.81068 2.47768 5.86607 3.17188 5.17188C3.86607 4.47768 4.81068 4.19435 6.25 4.0791V2.5C6.25 2.0858 6.5858 1.75001 7 1.75C7.41421 1.75 7.75 2.08579 7.75 2.5V4.0127C8.41526 3.9998 9.16098 4 10 4H14C14.839 4 15.5847 3.9998 16.25 4.0127V2.5C16.25 2.0858 16.5858 1.75001 17 1.75Z" fill="#1C274C"/>
</svg>
