<svg width="24" height="24" viewBox="0 0 24 24" fill="none" xmlns="http://www.w3.org/2000/svg">
<path d="M12 1.25C17.9371 1.25 22.75 6.06294 22.75 12C22.75 17.9371 17.9371 22.75 12 22.75C6.06294 22.75 1.25 17.9371 1.25 12C1.25 6.06294 6.06294 1.25 12 1.25ZM12 2.75C6.89137 2.75 2.75 6.89137 2.75 12C2.75 17.1086 6.89137 21.25 12 21.25C17.1086 21.25 21.25 17.1086 21.25 12C21.25 6.89137 17.1086 2.75 12 2.75ZM12.2861 7.25C12.9934 7.25006 13.6691 7.38827 14.2832 7.63867C14.6666 7.79512 14.8507 8.2327 14.6943 8.61621C14.5379 8.99961 14.1002 9.18372 13.7168 9.02734C13.2811 8.84969 12.7977 8.75006 12.2861 8.75C10.2838 8.75 8.75 10.253 8.75 12C8.75 13.747 10.2838 15.25 12.2861 15.25C12.7977 15.2499 13.2811 15.1503 13.7168 14.9727C14.1002 14.8163 14.5379 15.0004 14.6943 15.3838C14.8507 15.7673 14.6666 16.2049 14.2832 16.3613C13.6691 16.6118 12.9934 16.7499 12.2861 16.75C9.55457 16.75 7.25 14.6712 7.25 12C7.25 9.32875 9.55457 7.25 12.2861 7.25Z" fill="#1C274C"/>
</svg>
