<svg width="24" height="24" viewBox="0 0 24 24" fill="none" xmlns="http://www.w3.org/2000/svg">
<path d="M20.3486 4.37793C20.5541 4.01836 21.0124 3.8932 21.3721 4.09863C21.7316 4.30409 21.8567 4.76247 21.6514 5.12207L17.8643 11.75H18C19.8856 11.75 20.8283 11.7501 21.4141 12.3359C21.9999 12.9217 22 13.8644 22 15.75C22 17.6356 21.9999 18.5783 21.4141 19.1641C20.8283 19.7499 19.8856 19.75 18 19.75H6C4.11439 19.75 3.17172 19.7499 2.58594 19.1641C2.00015 18.5783 2 17.6356 2 15.75C2 13.8644 2.00015 12.9217 2.58594 12.3359C3.17172 11.7501 4.11438 11.75 6 11.75H6.13672L2.34863 5.12207C2.14333 4.76247 2.26838 4.30408 2.62793 4.09863C2.98755 3.89318 3.44586 4.01835 3.65137 4.37793L7.65137 11.3779L7.88086 11.75H16.1289L16.3486 11.3779L20.3486 4.37793ZM6 14.75C5.44772 14.75 5 15.1977 5 15.75C5 16.3023 5.44772 16.75 6 16.75C6.55228 16.75 7 16.3023 7 15.75C7 15.1977 6.55228 14.75 6 14.75ZM9 14.75C8.44772 14.75 8 15.1977 8 15.75C8 16.3023 8.44772 16.75 9 16.75C9.55228 16.75 10 16.3023 10 15.75C10 15.1977 9.55228 14.75 9 14.75ZM14 15C13.5858 15 13.25 15.3358 13.25 15.75C13.25 16.1642 13.5858 16.5 14 16.5H18C18.4142 16.5 18.75 16.1642 18.75 15.75C18.75 15.3358 18.4142 15 18 15H14ZM12.084 6.75C12.6363 6.75 13.084 7.19772 13.084 7.75C13.084 8.30228 12.6363 8.75 12.084 8.75C11.5317 8.75 11.084 8.30228 11.084 7.75C11.084 7.19772 11.5317 6.75 12.084 6.75ZM12.085 4.5C13.7916 4.50016 15.2299 5.64003 15.6846 7.19824C15.8005 7.59583 15.5724 8.01191 15.1748 8.12793C14.7772 8.24392 14.3612 8.01575 14.2451 7.61816C13.9721 6.68251 13.1071 6.00016 12.085 6C11.0626 6 10.1969 6.6824 9.92383 7.61816C9.80776 8.01574 9.39174 8.24395 8.99414 8.12793C8.59664 8.01188 8.36849 7.59578 8.48438 7.19824C8.93912 5.63992 10.3781 4.5 12.085 4.5ZM12.084 2C14.6905 2.00008 16.9225 3.59575 17.8604 5.86035C18.0187 6.24299 17.8367 6.68139 17.4541 6.83984C17.0715 6.99818 16.6331 6.81621 16.4746 6.43359C15.7608 4.71014 14.0627 3.50007 12.084 3.5C10.1052 3.5 8.4073 4.71014 7.69336 6.43359C7.53488 6.81628 7.09558 6.99833 6.71289 6.83984C6.33046 6.68126 6.14927 6.24291 6.30762 5.86035C7.2455 3.5957 9.47747 2 12.084 2Z" fill="#48465C"/>
</svg>
