<svg width="24" height="24" viewBox="0 0 24 24" fill="none" xmlns="http://www.w3.org/2000/svg">
<path d="M9.61621 0.473389C9.8298 0.256705 10.1531 0.19104 10.4346 0.306396C10.7161 0.421789 10.9003 0.695456 10.9004 0.999756V1.97729C11.2465 1.97632 11.6071 1.97632 11.9824 1.97632H12.0576C14.13 1.97631 15.7631 1.97696 17.0391 2.15112C18.3498 2.33001 19.3947 2.70526 20.2158 3.53882C21.0353 4.37074 21.4036 5.42675 21.5791 6.75171C21.7503 8.04492 21.75 9.70151 21.75 11.8074V11.9197C21.75 14.0254 21.7503 15.6812 21.5791 16.9744C21.4036 18.2996 21.0354 19.3562 20.2158 20.1882C19.3948 21.0215 18.3496 21.397 17.0391 21.5759C15.7631 21.7501 14.13 21.7498 12.0576 21.7498H11.9424C9.87006 21.7498 8.23701 21.7501 6.96094 21.5759C5.65043 21.397 4.60526 21.0215 3.78418 20.1882C2.96461 19.3562 2.5964 18.2996 2.4209 16.9744C2.24964 15.6812 2.24999 14.0254 2.25 11.9197V11.8074C2.24999 9.70152 2.24964 8.04492 2.4209 6.75171C2.59642 5.42676 2.96469 4.37074 3.78418 3.53882C4.07486 3.24374 4.54964 3.23935 4.84473 3.53003C5.13969 3.8206 5.14288 4.29547 4.85254 4.59058C4.3541 5.09657 4.06222 5.78615 3.9082 6.94897C3.7515 8.13225 3.75 9.68876 3.75 11.863C3.75 14.0372 3.75154 15.5938 3.9082 16.7771C4.06221 17.94 4.35409 18.6295 4.85254 19.1355C5.34943 19.6399 6.02401 19.934 7.16406 20.0896C8.32694 20.2482 9.8574 20.2498 12 20.2498C14.1426 20.2498 15.6731 20.2482 16.8359 20.0896C17.976 19.934 18.6506 19.6399 19.1475 19.1355C19.6459 18.6295 19.9378 17.94 20.0918 16.7771C20.2486 15.5938 20.25 14.0372 20.25 11.863C20.25 9.68876 20.2486 8.13225 20.0918 6.94897C19.9378 5.78615 19.6458 5.09657 19.1475 4.59058C18.6506 4.08635 17.9759 3.79303 16.8359 3.63745C15.6731 3.47876 14.1426 3.47632 12 3.47632C11.6146 3.47632 11.2486 3.4763 10.9004 3.47729V4.55444C10.9002 4.85864 10.7161 5.13244 10.4346 5.2478C10.1531 5.36309 9.82978 5.29738 9.61621 5.08081L7.86523 3.30347C7.5779 3.01158 7.57794 2.54265 7.86523 2.25073L9.61621 0.473389ZM14.9697 8.96948C15.2626 8.67659 15.7374 8.67659 16.0303 8.96948C16.3231 9.26239 16.3232 9.73715 16.0303 10.03L11.0303 15.03C10.7374 15.3229 10.2627 15.3229 9.96973 15.03L7.96973 13.03C7.67685 12.7371 7.67689 12.2624 7.96973 11.9695C8.26262 11.6766 8.73738 11.6766 9.03027 11.9695L10.5 13.4392L14.9697 8.96948Z" fill="#1C274C"/>
</svg>
