<svg width="24" height="24" viewBox="0 0 24 24" fill="none" xmlns="http://www.w3.org/2000/svg">
<path fill-rule="evenodd" clip-rule="evenodd" d="M22 6.25C22.4142 6.25005 22.75 6.58582 22.75 7V12.5459C22.75 12.96 22.4141 13.2958 22 13.2959C21.5859 13.2959 21.2501 12.9601 21.25 12.5459V8.80273L15.1143 14.9014C14.6453 15.3674 14.2411 15.7694 13.874 16.0479C13.4806 16.3464 13.0431 16.5723 12.5049 16.5723C11.9667 16.5722 11.5292 16.3464 11.1358 16.0479C10.7688 15.7693 10.3654 15.3667 9.89651 14.9004L9.6221 14.6279C9.10808 14.1168 8.77462 13.7878 8.4971 13.5771C8.23687 13.3796 8.11477 13.3573 8.0342 13.3574C7.95365 13.3575 7.83204 13.3797 7.57229 13.5771C7.29494 13.788 6.96184 14.1174 6.44827 14.6289L2.52932 18.5312C2.23587 18.8235 1.76107 18.8226 1.46877 18.5293C1.17652 18.2358 1.17731 17.761 1.47073 17.4688L5.42385 13.5312C5.89272 13.0643 6.29703 12.6618 6.66409 12.3828C7.05759 12.0837 7.49561 11.8576 8.0342 11.8574C8.57252 11.8573 9.00978 12.0832 9.40335 12.3818C9.77058 12.6605 10.1754 13.0628 10.6446 13.5293L10.919 13.8027C11.4326 14.3134 11.7657 14.6421 12.043 14.8525C12.3028 15.0497 12.4244 15.0722 12.5049 15.0723C12.5855 15.0723 12.7077 15.0497 12.9678 14.8525C13.245 14.6421 13.5782 14.3132 14.0918 13.8027L20.1817 7.75H16.418C16.0038 7.75 15.668 7.41421 15.668 7C15.668 6.58579 16.0038 6.25 16.418 6.25H22Z" fill="#1C274C"/>
</svg>
