<svg width="24" height="24" viewBox="0 0 24 24" fill="none" xmlns="http://www.w3.org/2000/svg">
<path fill-rule="evenodd" clip-rule="evenodd" d="M13.9697 6.46967C14.2626 6.17678 14.7374 6.17678 15.0303 6.46967L20.0303 11.4697C20.3231 11.7626 20.3232 12.2373 20.0303 12.5302L15.0303 17.5302C14.7374 17.8231 14.2626 17.8231 13.9697 17.5302C13.6768 17.2373 13.6769 16.7626 13.9697 16.4697L17.6895 12.7499H9.5C8.78675 12.7499 7.70022 12.97 6.81348 13.6083C5.96493 14.2192 5.25 15.2443 5.25 16.9999C5.24997 17.4141 4.91419 17.7499 4.5 17.7499C4.08581 17.7499 3.75003 17.4141 3.75 16.9999C3.75 14.7557 4.7019 13.2807 5.93652 12.3915C7.13307 11.53 8.54665 11.2499 9.5 11.2499H17.6895L13.9697 7.53021C13.6768 7.23734 13.6769 6.76256 13.9697 6.46967Z" fill="#1C274C"/>
</svg>
