<svg width="24" height="24" viewBox="0 0 24 24" fill="none" xmlns="http://www.w3.org/2000/svg">
<path d="M10.1631 12.75C9.82446 14.1831 8.53662 15.2499 7 15.25C6.58579 15.25 6.25 15.5858 6.25 16C6.25013 16.4141 6.58587 16.75 7 16.75C8.85994 16.7499 10.4703 15.6803 11.25 14.123V21.999C7.03165 21.9949 4.84852 21.9198 3.46387 20.5352C2.07947 19.1505 2.00411 16.9679 2 12.75H10.1631ZM22 12.75C21.9959 16.9681 21.9197 19.1505 20.5352 20.5352C19.1505 21.9197 16.9681 21.9949 12.75 21.999V14.123C13.5296 15.6803 15.1399 16.75 17 16.75C17.414 16.7499 17.7499 16.414 17.75 16C17.75 15.5859 17.4141 15.2501 17 15.25C15.4633 15.25 14.1756 14.1832 13.8369 12.75H22ZM11.25 6.91309C10.8117 6.56222 10.2945 6.30024 9.72266 6.15723C7.56964 5.61898 5.61898 7.56964 6.15723 9.72266C6.30024 10.2945 6.56222 10.8117 6.91309 11.25H2C2.00411 7.03165 2.07922 4.84852 3.46387 3.46387C4.84852 2.07922 7.03165 2.00411 11.25 2V6.91309ZM7.6123 9.3584C7.34872 8.304 8.30401 7.34879 9.3584 7.6123C10.4699 7.89018 11.25 8.88947 11.25 10.0352V11.25H10.0352C8.88947 11.25 7.89018 10.4699 7.6123 9.3584ZM14.6416 7.6123C15.6958 7.34911 16.6503 8.30412 16.3867 9.3584C16.1088 10.4698 15.1105 11.2499 13.9648 11.25H12.75V10.0352C12.75 8.88947 13.53 7.89018 14.6416 7.6123ZM12.75 2C16.9679 2.00411 19.1505 2.07949 20.5352 3.46387C21.9198 4.84852 21.9959 7.03165 22 11.25H17.0859C17.4368 10.8117 17.6988 10.2945 17.8418 9.72266C18.3801 7.56968 16.4304 5.6191 14.2773 6.15723C13.7056 6.30019 13.1883 6.56225 12.75 6.91309V2Z" fill="#1C274C"/>
</svg>
