<svg width="24" height="24" viewBox="0 0 24 24" fill="none" xmlns="http://www.w3.org/2000/svg">
<path d="M2.05085 13.2661C2.45678 13.1837 2.85322 13.4461 2.93562 13.852C3.67121 17.4749 6.52652 20.3305 10.1495 21.0659C10.5553 21.1483 10.8176 21.5438 10.7354 21.9497C10.653 22.3555 10.2575 22.6178 9.85163 22.5356C5.6381 21.6804 2.3202 18.3634 1.46491 14.1499C1.38265 13.7441 1.64512 13.3486 2.05085 13.2661ZM21.0655 13.852C21.1479 13.4461 21.5434 13.1837 21.9493 13.2661C22.3552 13.3485 22.6175 13.744 22.5352 14.1499C21.6799 18.3633 18.3629 21.6803 14.1495 22.5356C13.7436 22.618 13.3471 22.3556 13.2647 21.9497C13.1826 21.5439 13.445 21.1484 13.8507 21.0659C17.4737 20.3305 20.33 17.475 21.0655 13.852ZM14.5538 15.3979C14.8866 15.1516 15.3561 15.2215 15.6026 15.5542C15.8493 15.8869 15.7792 16.3564 15.4464 16.603C14.474 17.3238 13.285 17.7505 12.0001 17.7505C10.7151 17.7505 9.52618 17.3238 8.55378 16.603C8.22101 16.3564 8.15087 15.8869 8.39753 15.5542C8.64409 15.2215 9.11363 15.1516 9.44636 15.3979C10.1747 15.9377 11.0542 16.2505 12.0001 16.2505C12.946 16.2505 13.8254 15.9377 14.5538 15.3979ZM9.00007 9.00047C9.55223 9.00053 9.99991 9.67227 10.0001 10.5005C10.0001 11.3288 9.55233 12.0004 9.00007 12.0005C8.44779 12.0005 8.00007 11.3289 8.00007 10.5005C8.00023 9.67224 8.44789 9.00047 9.00007 9.00047ZM15.0001 9.00047C15.5522 9.00053 15.9999 9.67227 16.0001 10.5005C16.0001 11.3288 15.5523 12.0004 15.0001 12.0005C14.4478 12.0005 14.0001 11.3289 14.0001 10.5005C14.0002 9.67224 14.4479 9.00047 15.0001 9.00047ZM9.85065 1.46531C10.2565 1.38295 10.6529 1.6455 10.7354 2.05125C10.8178 2.45715 10.5554 2.85358 10.1495 2.93602C6.52641 3.67141 3.6701 6.52677 2.93464 10.1499C2.85224 10.5558 2.45678 10.8182 2.05085 10.7358C1.64508 10.6534 1.38279 10.2578 1.46491 9.85203C2.32018 5.63862 5.63725 2.32063 9.85065 1.46531ZM13.2647 2.05125C13.3472 1.64545 13.7437 1.38294 14.1495 1.46531C18.3629 2.32059 21.6799 5.63857 22.5352 9.85203C22.6173 10.2578 22.3551 10.6535 21.9493 10.7358C21.5434 10.8182 21.1479 10.5558 21.0655 10.1499C20.3301 6.5268 17.4739 3.67142 13.8507 2.93602C13.4448 2.85356 13.1823 2.45713 13.2647 2.05125Z" fill="#1C274C"/>
</svg>
