<svg width="24" height="24" viewBox="0 0 24 24" fill="none" xmlns="http://www.w3.org/2000/svg">
<path d="M15.8906 8.6084C16.4406 8.53599 16.9734 8.70549 17.5049 8.94824C18.0323 9.18908 18.674 9.55853 19.4658 10.0156L19.5342 10.0557C20.326 10.5129 20.9673 10.8834 21.4395 11.2197C21.9154 11.5586 22.3287 11.9349 22.541 12.4473C22.8201 13.1211 22.8201 13.8789 22.541 14.5527C22.3287 15.0651 21.9154 15.4414 21.4395 15.7803C20.9673 16.1166 20.326 16.4871 19.5342 16.9443L19.4658 16.9844C18.674 17.4416 18.0323 17.811 17.5049 18.0518C16.9734 18.2945 16.4406 18.4641 15.8906 18.3916C15.1676 18.2963 14.5123 17.9173 14.0684 17.3389C13.7307 16.8987 13.6102 16.3531 13.5547 15.7715C13.4996 15.1945 13.5 14.4541 13.5 13.54V13.46C13.5 12.5459 13.4996 11.8055 13.5547 11.2285C13.6102 10.6469 13.7307 10.1013 14.0684 9.66113C14.5123 9.08263 15.1676 8.7037 15.8906 8.6084ZM16.0869 10.0957C15.7583 10.139 15.4596 10.3112 15.2578 10.5742C15.1824 10.6727 15.0956 10.8708 15.0479 11.3711C15.0004 11.8684 15 12.5368 15 13.5C15 14.4632 15.0004 15.1316 15.0479 15.6289C15.0956 16.1292 15.1824 16.3273 15.2578 16.4258C15.4596 16.6888 15.7583 16.861 16.0869 16.9043C16.21 16.9205 16.4242 16.8965 16.8818 16.6875C17.3361 16.48 17.9157 16.1467 18.75 15.665C19.5842 15.1834 20.1625 14.8483 20.5693 14.5586C20.9792 14.2668 21.1078 14.0931 21.1553 13.9785C21.2821 13.6722 21.2821 13.3278 21.1553 13.0215C21.1078 12.9069 20.9792 12.7332 20.5693 12.4414C20.1625 12.1517 19.5842 11.8166 18.75 11.335C17.9157 10.8533 17.3361 10.52 16.8818 10.3125C16.4242 10.1035 16.21 10.0795 16.0869 10.0957ZM10 15.25C10.4142 15.25 10.75 15.5858 10.75 16C10.75 16.4142 10.4142 16.75 10 16.75H3C2.58579 16.75 2.25 16.4142 2.25 16C2.25 15.5858 2.58579 15.25 3 15.25H10ZM10 10.25C10.4142 10.25 10.75 10.5858 10.75 11C10.75 11.4142 10.4142 11.75 10 11.75H3C2.58579 11.75 2.25 11.4142 2.25 11C2.25 10.5858 2.58579 10.25 3 10.25H10ZM20 5.25C20.4142 5.25 20.75 5.58579 20.75 6C20.75 6.41421 20.4142 6.75 20 6.75H3C2.58579 6.75 2.25 6.41421 2.25 6C2.25 5.58579 2.58579 5.25 3 5.25H20Z" fill="#1C274C"/>
</svg>
