<svg width="24" height="24" viewBox="0 0 24 24" fill="none" xmlns="http://www.w3.org/2000/svg">
<path d="M19.4568 7.04492C19.7425 6.7451 20.2174 6.7339 20.5173 7.01953C20.8172 7.3052 20.8284 7.78013 20.5427 8.08008L11.9714 17.0801C11.82 17.239 11.6065 17.3235 11.3875 17.3115C11.1682 17.2994 10.9649 17.1914 10.8318 17.0166L10.4031 16.4541C10.1525 16.1246 10.2163 15.6541 10.5457 15.4033C10.8286 15.1879 11.2157 15.2043 11.4783 15.4219L19.4568 7.04492ZM14.4353 7.00684C14.7077 6.69497 15.1809 6.66319 15.4929 6.93555C15.8048 7.2079 15.8374 7.68114 15.5652 7.99316L7.70776 16.9932C7.56533 17.1563 7.35889 17.25 7.14233 17.25C6.92594 17.2499 6.72021 17.1561 6.57788 16.9932L3.4353 13.3936C3.1629 13.0815 3.19456 12.6074 3.50659 12.335C3.81862 12.0626 4.29278 12.0951 4.56519 12.4072L7.14233 15.3594L14.4353 7.00684Z" fill="#1C274C"/>
</svg>
