<svg width="24" height="24" viewBox="0 0 24 24" fill="none" xmlns="http://www.w3.org/2000/svg">
<path d="M12 1.25C17.9371 1.25 22.75 6.06294 22.75 12C22.75 12.3623 22.7324 12.7207 22.6973 13.0742L22.6709 13.3408L13.3408 22.6709L13.0742 22.6973C12.7207 22.7324 12.3623 22.75 12 22.75C6.06294 22.75 1.25 17.9371 1.25 12C1.25 6.06294 6.06294 1.25 12 1.25ZM12 2.75C6.89137 2.75 2.75 6.89137 2.75 12C2.75 16.8562 6.49215 20.838 11.25 21.2197C11.252 19.2444 11.2766 17.9435 11.5518 16.8809C10.572 16.9615 9.6164 16.8822 8.73047 16.6602C8.3287 16.5595 8.08489 16.1528 8.18555 15.751C8.28624 15.3492 8.69297 15.1054 9.09473 15.2061C10.0233 15.4388 11.0657 15.4828 12.1396 15.2949C12.1589 15.2915 12.178 15.288 12.1973 15.2861C13.1096 13.6149 14.6153 12.3232 16.4404 11.6846C17.587 11.2835 18.9634 11.2523 21.2197 11.25C20.838 6.49215 16.8562 2.75 12 2.75ZM21.1396 12.751C18.8838 12.7562 17.8037 12.7968 16.9355 13.1006C15.1404 13.7288 13.7288 15.1404 13.1006 16.9355C12.7968 17.8037 12.7562 18.8838 12.751 21.1396L21.1396 12.751ZM8.3252 9.87891C8.85858 9.73599 9.46519 10.2684 9.67969 11.0684C9.89406 11.8684 9.63574 12.6332 9.10254 12.7764C8.56907 12.9194 7.96246 12.3861 7.74805 11.5859C7.53387 10.7861 7.79215 10.0222 8.3252 9.87891ZM14.1211 8.3252C14.6546 8.18237 15.2611 8.71551 15.4756 9.51562C15.69 10.3158 15.4309 11.0807 14.8975 11.2236C14.364 11.3665 13.7573 10.8333 13.543 10.0332C13.3287 9.23308 13.5877 8.46813 14.1211 8.3252Z" fill="#1C274C"/>
</svg>
