<svg width="24" height="24" viewBox="0 0 24 24" fill="none" xmlns="http://www.w3.org/2000/svg">
<path d="M18.3867 16.2932C18.3576 16.4345 18.3348 16.5869 18.3096 16.7512L18.2285 17.2776C18.1514 17.7784 18.037 18.2249 17.916 18.6028C17.7031 19.2682 17.6484 19.3605 17.4883 19.4524C17.4196 19.4918 17.3551 19.5096 17.2197 19.4944C17.0537 19.4758 16.8405 19.4151 16.4775 19.3098L10.6836 17.6292C10.7531 17.4827 10.8079 17.3258 10.8545 17.1663C10.9997 16.6693 11.1046 15.9912 11.2334 15.1545L11.3086 14.6663C11.3353 14.4927 11.3556 14.3606 11.374 14.259L18.3867 16.2932ZM9.14355 4.50513C9.1874 4.51785 9.30135 4.56861 9.45898 4.98169C9.61305 5.38542 9.75279 5.97903 9.95312 6.84009L10.0732 7.35669C10.1664 7.75931 10.2435 8.09392 10.4365 8.36353C10.6357 8.64153 10.9252 8.80627 11.2549 8.99341L11.3184 9.02954L11.6768 9.23267C12.3833 9.63509 12.8596 9.90889 13.1699 10.1575C13.4665 10.3954 13.518 10.5375 13.5225 10.6584C13.5271 10.7857 13.4797 10.9454 13.1943 11.2317C12.9004 11.5263 12.4433 11.8682 11.7715 12.3674L11.3721 12.6643C11.0546 12.8995 10.7873 13.0968 10.6152 13.3918C10.4469 13.6804 10.396 14.0185 10.332 14.4368L10.251 14.9631C10.1148 15.8474 10.0189 16.4603 9.89453 16.886C9.82465 17.1252 9.75829 17.2589 9.70215 17.3352C9.59386 17.2949 9.44951 17.2361 9.2793 17.1545C8.87413 16.9605 8.32492 16.6388 7.7627 16.1331L7.4502 15.8518L7.43652 15.8401C7.27678 15.6963 7.13446 15.5685 7.00586 15.4709C6.86668 15.3654 6.71597 15.2742 6.53223 15.2209C6.20744 15.1268 5.87326 15.1894 5.5127 15.2571L5.43457 15.2717L5.03418 15.3459C4.24159 15.4929 3.71024 15.5898 3.3291 15.5969C2.96306 15.6037 2.88589 15.5244 2.84473 15.467C2.78724 15.3867 2.73395 15.2311 2.82324 14.7932C2.91217 14.3571 3.11193 13.7752 3.40234 12.9358L3.57422 12.4387C3.71294 12.039 3.82386 11.7195 3.81152 11.3821C3.79907 11.0424 3.66435 10.7357 3.49707 10.3577L3.28906 9.88696C2.93842 9.09238 2.69786 8.54425 2.57812 8.12524C2.45974 7.7109 2.49612 7.54286 2.55566 7.44067C2.60513 7.3559 2.69493 7.26552 3.05566 7.22095C3.4354 7.17405 3.97123 7.19475 4.77051 7.22876L5.17383 7.24634L5.25 7.24927C5.61684 7.26559 5.95284 7.28059 6.26465 7.14282C6.56783 7.00879 6.79751 6.75268 7.06055 6.45825L7.11523 6.39673L7.40527 6.07251C7.97776 5.43379 8.37022 4.99888 8.68652 4.7356C9.00621 4.4695 9.11091 4.49568 9.14355 4.50513ZM19.3506 11.3743L19.6543 11.5471C20.3608 11.9496 20.8372 12.2224 21.1475 12.4709C21.4445 12.7089 21.4956 12.8519 21.5 12.9729C21.5046 13.1001 21.4579 13.2603 21.1729 13.5461C20.879 13.8408 20.4211 14.1825 19.749 14.6819L19.3496 14.9778C19.161 15.1176 18.9903 15.2445 18.8467 15.386L12.042 13.4124L12.4004 13.1458C13.031 12.6773 13.5505 12.2914 13.9033 11.9377C14.2704 11.5695 14.5411 11.1541 14.5215 10.6213C14.5126 10.3824 14.4474 10.1738 14.3428 9.98755L19.3506 11.3743ZM17.1211 6.81958C17.1649 6.8323 17.2789 6.88297 17.4365 7.29614C17.5906 7.69993 17.7303 8.29346 17.9307 9.15454L18.0508 9.67017C18.0774 9.78484 18.1019 9.89458 18.1289 9.99829L12.1172 8.33325L11.8135 8.1604C11.3846 7.91612 11.3056 7.85888 11.25 7.78149C11.1881 7.69513 11.1501 7.57442 11.0283 7.05103L10.918 6.57446C10.7626 5.9062 10.6301 5.34021 10.4873 4.89575L17.1211 6.81958Z" fill="#1C274C"/>
</svg>
