<svg width="24" height="24" viewBox="0 0 24 24" fill="none" xmlns="http://www.w3.org/2000/svg">
<path d="M5.75 1C6.16421 1 6.5 1.33579 6.5 1.75V3.59961L8.2207 3.25586C9.87112 2.92578 11.5818 3.08298 13.1445 3.70801L13.5586 3.87305C14.9834 4.44288 16.5514 4.54989 18.04 4.17773C18.671 4.01999 19.1774 4.704 18.8428 5.26172L17.5645 7.39258C17.2231 7.96149 17.0522 8.24619 17.0117 8.55566C16.995 8.68466 16.995 8.81534 17.0117 8.94434C17.0522 9.25381 17.2231 9.53851 17.5645 10.1074L19.125 12.709C19.4358 13.227 19.1583 13.8984 18.5723 14.0449L18.4717 14.0693C16.7022 14.5117 14.838 14.3854 13.1445 13.708C11.5818 13.0829 9.87111 12.9258 8.2207 13.2559L6.5 13.5996V21.75C6.5 22.1642 6.16421 22.5 5.75 22.5C5.33579 22.5 5 22.1642 5 21.75V1.75C5 1.33579 5.33579 1 5.75 1Z" fill="#1C274C"/>
</svg>
