<svg width="24" height="24" viewBox="0 0 24 24" fill="none" xmlns="http://www.w3.org/2000/svg">
<path d="M12 1.25C17.9371 1.25 22.75 6.06294 22.75 12C22.75 17.9371 17.9371 22.75 12 22.75C6.06294 22.75 1.25 17.9371 1.25 12C1.25 6.06294 6.06294 1.25 12 1.25ZM12 2.75C6.89137 2.75 2.75 6.89137 2.75 12C2.75 17.1086 6.89137 21.25 12 21.25C17.1086 21.25 21.25 17.1086 21.25 12C21.25 6.89137 17.1086 2.75 12 2.75ZM14.5537 15.3975C14.8865 15.151 15.356 15.221 15.6025 15.5537C15.849 15.8865 15.779 16.356 15.4463 16.6025C14.4739 17.3232 13.2849 17.75 12 17.75C10.7151 17.75 9.52608 17.3232 8.55371 16.6025C8.22101 16.356 8.15099 15.8865 8.39746 15.5537C8.64407 15.221 9.11354 15.151 9.44629 15.3975C10.1747 15.9373 11.0541 16.25 12 16.25C12.9459 16.25 13.8253 15.9373 14.5537 15.3975ZM9 9C9.55228 9 10 9.67157 10 10.5C10 11.3284 9.55228 12 9 12C8.44772 12 8 11.3284 8 10.5C8 9.67157 8.44772 9 9 9ZM15 9C15.5523 9 16 9.67157 16 10.5C16 11.3284 15.5523 12 15 12C14.4477 12 14 11.3284 14 10.5C14 9.67157 14.4477 9 15 9Z" fill="#48465C"/>
</svg>
