<svg width="24" height="24" viewBox="0 0 24 24" fill="none" xmlns="http://www.w3.org/2000/svg">
<path d="M12 7C16.8066 7 19.5596 9.03863 20.917 10.5029C21.7233 11.3727 22 12.6129 22 13.8506C21.9999 15.9103 20.2181 17.4152 18.3926 16.8975L17.0527 16.5176C15.8439 16.1746 15 14.9822 15 13.6182C14.9998 13.5913 14.9753 11.9639 12 11.9639C9.02474 11.9639 9.0002 13.5913 9 13.6182C9 14.9822 8.15613 16.1746 6.94727 16.5176L5.60742 16.8975C3.78186 17.4152 2.00011 15.9103 2 13.8506C2 12.6129 2.27671 11.3727 3.08301 10.5029C4.44041 9.03862 7.19344 7 12 7Z" fill="#1C274C"/>
</svg>
