<svg width="24" height="24" viewBox="0 0 24 24" fill="none" xmlns="http://www.w3.org/2000/svg">
<path d="M12.4695 17.4697C12.7624 17.1768 13.2372 17.1768 13.5301 17.4697C13.823 17.7626 13.823 18.2374 13.5301 18.5303L13.0604 19L13.5301 19.4697C13.823 19.7626 13.823 20.2374 13.5301 20.5303C13.2372 20.8231 12.7624 20.8231 12.4695 20.5303L11.9998 20.0605L11.5301 20.5303C11.2372 20.8231 10.7624 20.8231 10.4695 20.5303C10.1766 20.2374 10.1766 19.7626 10.4695 19.4697L10.9393 19L10.4695 18.5303C10.1766 18.2374 10.1766 17.7626 10.4695 17.4697C10.7624 17.1768 11.2372 17.1768 11.5301 17.4697L11.9998 17.9395L12.4695 17.4697ZM7.71466 4C8.59224 4 9.44849 4.27235 10.1649 4.7793L10.6668 5.13477C11.0565 5.41054 11.5224 5.55856 11.9998 5.55859C12.4772 5.55859 12.9431 5.41046 13.3328 5.13477L13.8348 4.7793C14.5511 4.27233 15.4075 4 16.285 4H16.8973C17.3014 4 17.7098 4.02514 18.0906 4.16016C20.4733 5.00522 22.1124 8.09501 21.994 15.1025C21.9701 16.5144 21.6399 18.0754 20.366 18.6846C19.9691 18.8745 19.5034 19 18.9734 19C18.3374 19 17.832 18.819 17.4422 18.5635C17.0334 18.2956 16.6741 17.9467 16.3143 17.5986C15.8697 17.1684 15.4246 16.7389 14.8885 16.4609C14.3045 16.1582 13.6565 16 12.9988 16H11.0008C10.3432 16 9.695 16.1582 9.11115 16.4609C8.57517 16.7389 8.1308 17.1686 7.68634 17.5986C7.32655 17.9467 6.96621 18.2956 6.55743 18.5635C6.16773 18.8188 5.66282 18.9999 5.02716 19C4.49732 19 4.03147 18.8744 3.63458 18.6846C2.36065 18.0754 2.02956 16.5144 2.00568 15.1025C1.88714 8.09503 3.5263 5.00522 5.909 4.16016C6.28987 4.02508 6.69824 4.00001 7.10236 4H7.71466ZM7.49982 8.25C7.08569 8.25009 6.74982 8.58585 6.74982 9V9.75H5.99982C5.58569 9.75009 5.24982 10.0859 5.24982 10.5C5.24982 10.9141 5.58569 11.2499 5.99982 11.25H6.74982V12C6.74982 12.4141 7.08569 12.7499 7.49982 12.75C7.91403 12.75 8.24982 12.4142 8.24982 12V11.25H8.99982C9.41403 11.25 9.74982 10.9142 9.74982 10.5C9.74982 10.0858 9.41403 9.75 8.99982 9.75H8.24982V9C8.24982 8.58579 7.91403 8.25 7.49982 8.25ZM16.7498 11C16.3357 11.0001 15.9998 11.3359 15.9998 11.75C15.9998 12.1641 16.3357 12.4999 16.7498 12.5C17.164 12.5 17.4998 12.1642 17.4998 11.75C17.4998 11.3358 17.164 11 16.7498 11ZM15.2498 9.5C14.8357 9.50009 14.4998 9.83585 14.4998 10.25C14.4998 10.6641 14.8357 10.9999 15.2498 11C15.664 11 15.9998 10.6642 15.9998 10.25C15.9998 9.83579 15.664 9.5 15.2498 9.5ZM18.2498 9.5C17.8357 9.50009 17.4998 9.83585 17.4998 10.25C17.4998 10.6641 17.8357 10.9999 18.2498 11C18.664 11 18.9998 10.6642 18.9998 10.25C18.9998 9.83579 18.664 9.5 18.2498 9.5ZM16.7498 8C16.3357 8.00009 15.9998 8.33585 15.9998 8.75C15.9998 9.16415 16.3357 9.49991 16.7498 9.5C17.164 9.5 17.4998 9.16421 17.4998 8.75C17.4998 8.33579 17.164 8 16.7498 8Z" fill="#1C274C"/>
</svg>
