<svg width="24" height="24" viewBox="0 0 24 24" fill="none" xmlns="http://www.w3.org/2000/svg">
<path d="M12 3.25C13.3792 3.25 14.4992 3.69828 16.376 4.44922C16.414 4.46446 16.4526 4.47963 16.4912 4.49512L19.3447 5.63672C20.2992 6.01853 21.0728 6.3282 21.6035 6.60645C21.872 6.74721 22.1324 6.90628 22.333 7.09863C22.5392 7.29637 22.75 7.59658 22.75 8C22.75 8.40342 22.5392 8.70363 22.333 8.90137C22.1324 9.09372 21.872 9.25279 21.6035 9.39355C21.2519 9.57791 20.7938 9.77633 20.2471 10C20.7938 10.2237 21.2519 10.4221 21.6035 10.6064C21.872 10.7472 22.1324 10.9063 22.333 11.0986C22.5392 11.2964 22.75 11.5966 22.75 12C22.75 12.4034 22.5392 12.7036 22.333 12.9014C22.1324 13.0937 21.872 13.2528 21.6035 13.3936C21.2519 13.5779 20.7938 13.7763 20.2471 14C20.7938 14.2237 21.2519 14.4221 21.6035 14.6064C21.872 14.7472 22.1324 14.9063 22.333 15.0986C22.5392 15.2964 22.75 15.5966 22.75 16C22.75 16.4034 22.5392 16.7036 22.333 16.9014C22.1324 17.0937 21.872 17.2528 21.6035 17.3936C21.0728 17.6718 20.2993 17.9815 19.3447 18.3633L16.4912 19.5049C16.4526 19.5204 16.414 19.5355 16.376 19.5508C14.4992 20.3017 13.3792 20.75 12 20.75C10.6208 20.75 9.5008 20.3017 7.62402 19.5508C7.58595 19.5355 7.54749 19.5204 7.50879 19.5049L4.65527 18.3633C3.70071 17.9815 2.92721 17.6718 2.39648 17.3936C2.12799 17.2528 1.86757 17.0937 1.66699 16.9014C1.46083 16.7036 1.25 16.4034 1.25 16C1.25 15.5966 1.46083 15.2964 1.66699 15.0986C1.86757 14.9063 2.12799 14.7472 2.39648 14.6064C2.74813 14.4221 3.20617 14.2237 3.75293 14C3.20617 13.7763 2.74813 13.5779 2.39648 13.3936C2.12799 13.2528 1.86757 13.0937 1.66699 12.9014C1.46083 12.7036 1.25 12.4034 1.25 12C1.25 11.5966 1.46083 11.2964 1.66699 11.0986C1.86757 10.9063 2.12799 10.7472 2.39648 10.6064C2.74813 10.4221 3.20617 10.2237 3.75293 10C3.20617 9.77633 2.74813 9.57791 2.39648 9.39355C2.128 9.25279 1.86757 9.09373 1.66699 8.90137C1.46083 8.70363 1.25 8.40342 1.25 8C1.25 7.59658 1.46083 7.29637 1.66699 7.09863C1.86757 6.90627 2.128 6.74721 2.39648 6.60645C2.92722 6.3282 3.70068 6.01854 4.65527 5.63672L7.50879 4.49512C7.5475 4.47964 7.58595 4.46445 7.62402 4.44922C9.50081 3.69828 10.6208 3.25 12 3.25ZM16.4912 15.5049C16.4526 15.5204 16.414 15.5355 16.376 15.5508C14.4992 16.3017 13.3792 16.75 12 16.75C10.6208 16.75 9.5008 16.3017 7.62402 15.5508C7.58595 15.5356 7.54749 15.5204 7.50879 15.5049L5.7666 14.8076L5.25781 15.0117C4.24738 15.4158 3.5466 15.6967 3.09277 15.9346C3.04849 15.9578 3.00856 15.9796 2.97266 16C3.00856 16.0204 3.04849 16.0422 3.09277 16.0654C3.54659 16.3033 4.24738 16.5841 5.25781 16.9883L8.06543 18.1123C10.0903 18.9222 10.9396 19.25 12 19.25C13.0604 19.25 13.9097 18.9222 15.9346 18.1123L18.7422 16.9883C19.7527 16.5841 20.4533 16.3033 20.9072 16.0654C20.9515 16.0422 20.9915 16.0204 21.0273 16C20.9915 15.9796 20.9515 15.9578 20.9072 15.9346C20.4533 15.6967 19.7527 15.4158 18.7422 15.0117L18.2344 14.8076L16.4912 15.5049ZM16.4912 11.5049C16.4526 11.5204 16.414 11.5355 16.376 11.5508C14.4992 12.3017 13.3792 12.75 12 12.75C10.6208 12.75 9.5008 12.3017 7.62402 11.5508C7.58595 11.5356 7.54749 11.5204 7.50879 11.5049L5.7666 10.8076L5.25781 11.0117C4.24738 11.4158 3.54659 11.6967 3.09277 11.9346C3.04849 11.9578 3.00856 11.9796 2.97266 12C3.00856 12.0204 3.04849 12.0422 3.09277 12.0654C3.54659 12.3033 4.24738 12.5841 5.25781 12.9883L8.06543 14.1123C10.0903 14.9222 10.9396 15.25 12 15.25C13.0604 15.25 13.9097 14.9222 15.9346 14.1123L18.7422 12.9883C19.7527 12.5841 20.4533 12.3033 20.9072 12.0654C20.9515 12.0422 20.9915 12.0204 21.0273 12C20.9915 11.9796 20.9515 11.9578 20.9072 11.9346C20.4533 11.6967 19.7527 11.4158 18.7422 11.0117L18.2344 10.8076L16.4912 11.5049ZM12 4.75C10.9396 4.75 10.0903 5.07777 8.06543 5.8877L5.25781 7.01172C4.24738 7.41589 3.54659 7.69665 3.09277 7.93457C3.04849 7.95779 3.00857 7.97962 2.97266 8C3.00857 8.02038 3.04849 8.04221 3.09277 8.06543C3.54659 8.30335 4.24738 8.58411 5.25781 8.98828L8.06543 10.1123C10.0903 10.9222 10.9396 11.25 12 11.25C13.0604 11.25 13.9097 10.9222 15.9346 10.1123L18.7422 8.98828C19.7527 8.58411 20.4533 8.30335 20.9072 8.06543C20.9515 8.0422 20.9915 8.02039 21.0273 8C20.9915 7.97961 20.9515 7.9578 20.9072 7.93457C20.4533 7.69665 19.7527 7.41589 18.7422 7.01172L15.9346 5.8877C13.9097 5.07777 13.0604 4.75 12 4.75Z" fill="#1C274C"/>
</svg>
