<svg width="24" height="24" viewBox="0 0 24 24" fill="none" xmlns="http://www.w3.org/2000/svg">
<path d="M11.4697 19.4697C11.7626 19.1768 12.2374 19.1768 12.5303 19.4697C12.8232 19.7626 12.8232 20.2374 12.5303 20.5303L10.5303 22.5303C10.2374 22.8232 9.76262 22.8231 9.46973 22.5303C9.17684 22.2374 9.17684 21.7626 9.46973 21.4697L11.4697 19.4697ZM6.96973 18.4697C7.26262 18.1768 7.73738 18.1768 8.03027 18.4697C8.32316 18.7626 8.32316 19.2374 8.03027 19.5303L6.03027 21.5303C5.73739 21.8231 5.26261 21.8231 4.96973 21.5303C4.67684 21.2374 4.67684 20.7626 4.96973 20.4697L6.96973 18.4697ZM16.4697 18.4697C16.7626 18.1768 17.2374 18.1768 17.5303 18.4697C17.8232 18.7626 17.8232 19.2374 17.5303 19.5303L15.5303 21.5303C15.2374 21.8232 14.7626 21.8232 14.4697 21.5303C14.1768 21.2374 14.1768 20.7626 14.4697 20.4697L16.4697 18.4697ZM12.4766 2.25C15.6345 2.25017 18.2721 4.49421 18.8311 7.47168C21.1308 8.44788 22.7499 10.7091 22.75 13.3525C22.75 15.5559 21.624 17.4961 19.9189 18.6445C19.5753 18.8759 19.1093 18.7849 18.8779 18.4414C18.6466 18.0978 18.7376 17.6318 19.0811 17.4004C20.3941 16.516 21.25 15.0311 21.25 13.3525C21.2498 11.216 19.8603 9.39081 17.9121 8.72461C17.4037 8.5508 16.857 8.4561 16.2861 8.45605C15.7035 8.45605 15.1451 8.55467 14.6279 8.73535C14.2369 8.87169 13.8094 8.66533 13.6729 8.27441C13.5363 7.8834 13.7428 7.45591 14.1338 7.31934C14.8081 7.08384 15.5331 6.95605 16.2861 6.95605C16.5813 6.95607 16.8721 6.97561 17.1572 7.01367C16.4765 5.1165 14.6423 3.75015 12.4766 3.75C9.72646 3.75 7.51172 5.95123 7.51172 8.64746C7.51176 9.10948 7.57661 9.55602 7.69727 9.97852C8.19435 10.122 8.65962 10.3391 9.08008 10.6172C9.42554 10.8457 9.52051 11.3108 9.29199 11.6562C9.06348 12.0017 8.59839 12.0967 8.25293 11.8682C7.87219 11.6163 7.43941 11.4351 6.97363 11.3447C6.75194 11.3018 6.52192 11.2793 6.28613 11.2793C4.32504 11.2793 2.75003 12.8482 2.75 14.7646C2.75 15.8389 3.24263 16.8016 4.02344 17.4434C4.34327 17.7064 4.38892 18.1791 4.12598 18.499C3.86292 18.8187 3.39116 18.8644 3.07129 18.6016C1.96158 17.6896 1.25 16.3102 1.25 14.7646C1.25003 12.0605 3.41976 9.87213 6.11328 9.78223C6.04654 9.41365 6.01174 9.03436 6.01172 8.64746C6.01172 5.10612 8.91482 2.25 12.4766 2.25ZM10.9697 14.9697C11.2626 14.6768 11.7374 14.6768 12.0303 14.9697C12.3232 15.2626 12.3232 15.7374 12.0303 16.0303L10.0303 18.0303C9.73742 18.3232 9.26262 18.3231 8.96973 18.0303C8.67684 17.7374 8.67684 17.2626 8.96973 16.9697L10.9697 14.9697ZM15.4697 14.9697C15.7626 14.6768 16.2374 14.6768 16.5303 14.9697C16.8232 15.2626 16.8232 15.7374 16.5303 16.0303L14.5303 18.0303C14.2374 18.3232 13.7626 18.3232 13.4697 18.0303C13.1768 17.7374 13.1768 17.2626 13.4697 16.9697L15.4697 14.9697Z" fill="#1C274C"/>
</svg>
