<svg width="24" height="24" viewBox="0 0 24 24" fill="none" xmlns="http://www.w3.org/2000/svg">
<path d="M13.7129 5.30731C13.993 5.19126 14.3158 5.25504 14.5303 5.46942L20.5303 11.4694C20.6709 11.6099 20.7499 11.8009 20.75 11.9997C20.75 12.1985 20.6708 12.3893 20.5303 12.53L14.5303 18.53C14.3158 18.7445 13.9931 18.8092 13.7129 18.6931C13.4326 18.5769 13.25 18.3031 13.25 17.9997V12.7497H4C3.58579 12.7497 3.25 12.4139 3.25 11.9997C3.25017 11.5856 3.5859 11.2497 4 11.2497H13.25V5.99969C13.2501 5.69655 13.4328 5.4234 13.7129 5.30731Z" fill="#48465C"/>
</svg>
