<svg width="24" height="24" viewBox="0 0 24 24" fill="none" xmlns="http://www.w3.org/2000/svg">
<path d="M13.7129 5.30725C13.993 5.1912 14.3158 5.25498 14.5303 5.46936L20.5303 11.4694C20.6709 11.6099 20.7499 11.8008 20.75 11.9996C20.75 12.1984 20.6708 12.3892 20.5303 12.5299L14.5303 18.5299C14.3158 18.7444 13.9931 18.8091 13.7129 18.693C13.4326 18.5769 13.25 18.303 13.25 17.9996V12.7496H4C3.58579 12.7496 3.25 12.4138 3.25 11.9996C3.25017 11.5856 3.5859 11.2496 4 11.2496H13.25V5.99963C13.2501 5.69649 13.4328 5.42334 13.7129 5.30725Z" fill="#1C274C"/>
</svg>
