<svg width="24" height="24" viewBox="0 0 24 24" fill="none" xmlns="http://www.w3.org/2000/svg">
<path d="M14.4414 2.67505C16.3419 0.774615 19.4235 0.77476 21.3242 2.67505C23.2249 4.57573 23.2249 7.65816 21.3242 9.55884L20.3994 10.4836L20.9609 11.0452C21.8564 11.941 21.8566 13.3935 20.9609 14.2893C20.0652 15.185 18.6126 15.1849 17.7168 14.2893L17.1553 13.7278L10.9951 19.8879C10.6047 20.2788 10.2996 20.5839 9.9248 20.7825C9.67649 20.914 9.40987 21.0074 9.13379 21.0598C8.71715 21.1388 8.28903 21.0919 7.74023 21.0305C7.7093 21.027 7.67723 21.0233 7.64551 21.0198L7.1709 20.967C6.9837 20.9462 6.93094 20.941 6.88477 20.9397C6.56171 20.9303 6.24639 21.041 6 21.2502C5.9649 21.2801 5.92759 21.3169 5.79492 21.4495L5.16602 22.0784C4.27026 22.9741 2.81768 22.9741 1.92188 22.0784C1.02609 21.1826 1.02613 19.73 1.92188 18.8342L2.55078 18.2053C2.68386 18.0722 2.72012 18.0345 2.75 17.9993C2.95916 17.7528 3.06996 17.4376 3.06055 17.1145C3.05918 17.0684 3.05396 17.0162 3.0332 16.8293L2.98047 16.3538C2.97695 16.3222 2.97317 16.2908 2.96973 16.26C2.90835 15.7111 2.86044 15.2832 2.93945 14.8665C2.99186 14.5902 3.08606 14.3231 3.21777 14.0745C3.41641 13.6998 3.72055 13.3953 4.11133 13.0051C4.13335 12.9831 4.15615 12.9613 4.17871 12.9387L10.2725 6.84497L9.71094 6.28345C8.81513 5.38764 8.81513 3.93512 9.71094 3.03931C10.6068 2.14353 12.0593 2.14351 12.9551 3.03931L13.5166 3.60083L14.4414 2.67505ZM5.23926 13.9993C4.75087 14.4876 4.62262 14.6266 4.54297 14.7766C4.48163 14.8924 4.4375 15.0171 4.41309 15.1458C4.3814 15.3129 4.39534 15.5016 4.47168 16.1887L4.52734 16.6897C4.54403 16.8396 4.55621 16.9564 4.55957 17.0715C4.57967 17.7651 4.34263 18.442 3.89355 18.9709C3.81916 19.0585 3.7363 19.1409 3.62988 19.2473L2.98242 19.8948C2.67244 20.2048 2.67241 20.7078 2.98242 21.0178C3.29244 21.3277 3.79549 21.3277 4.10547 21.0178L4.75195 20.3704C4.8585 20.2638 4.94158 20.1811 5.0293 20.1067C5.55831 19.6575 6.23506 19.4196 6.92871 19.4397C7.04388 19.4431 7.16053 19.4562 7.31055 19.4729L7.81152 19.5286C8.4981 19.6048 8.68651 19.6177 8.85352 19.5862C8.98218 19.5617 9.10693 19.5186 9.22266 19.4573C9.37292 19.3777 9.5122 19.2498 10.001 18.761L11.4395 17.3225L10.1162 15.9993C9.82337 15.7064 9.82344 15.2316 10.1162 14.9387C10.4091 14.6458 10.8839 14.6458 11.1768 14.9387L12.5 16.262L13.4395 15.3225L12.1162 13.9993C11.8233 13.7064 11.8234 13.2316 12.1162 12.9387C12.4091 12.6458 12.8839 12.6458 13.1768 12.9387L14.5 14.262L16.0947 12.6672L11.333 7.90552L5.23926 13.9993ZM20.2637 3.73657C18.9489 2.42169 16.8169 2.42169 15.502 3.73657L14.0469 5.19165C13.9064 5.33223 13.7154 5.41129 13.5166 5.41138C13.3178 5.41138 13.1269 5.33222 12.9863 5.19165L11.8945 4.09985C11.5845 3.78984 11.0815 3.78986 10.7715 4.09985C10.4615 4.40987 10.4615 4.91288 10.7715 5.2229L18.7773 13.2288C19.0873 13.5383 19.5895 13.5382 19.8994 13.2288C20.2095 12.9188 20.2095 12.4157 19.8994 12.1057L18.8086 11.0139C18.5157 10.721 18.5157 10.2462 18.8086 9.95337L20.2637 8.49731C21.5783 7.18247 21.5783 5.05142 20.2637 3.73657Z" fill="#48465C"/>
</svg>
