<svg width="24" height="24" viewBox="0 0 24 24" fill="none" xmlns="http://www.w3.org/2000/svg">
<path d="M16.0005 4C16.5526 4.00021 17.0137 4.45793 16.8472 4.98438C16.3586 6.5288 14.7473 7.71504 12.7485 7.95508C12.7494 7.9698 12.7495 7.98506 12.7495 8V17.8965L12.7505 17.9365V19L12.7495 19.0156V21.25H14.9995C15.4138 21.25 15.7495 21.5858 15.7495 22C15.7495 22.4142 15.4138 22.75 14.9995 22.75H8.99951C8.58546 22.7498 8.24951 22.4141 8.24951 22C8.24951 21.5859 8.58546 21.2502 8.99951 21.25H11.2495V17.9033C11.2394 16.8694 10.7615 15.8983 9.95459 15.2666L6.07861 12.4961L6.0083 12.4434C5.17811 13.142 4.04402 13.3414 3.03857 12.9893C2.50527 12.8022 2.42946 12.132 2.77881 11.6846L5.31104 8.44336C5.66063 7.99583 6.32459 7.9129 6.62939 8.39258C7.16408 9.23424 7.26354 10.297 6.88818 11.2285L6.96436 11.2852L10.8521 14.0635L10.8638 14.0732C10.9989 14.1782 11.1274 14.2898 11.2495 14.4072V8C11.2495 7.98504 11.2507 7.96982 11.2515 7.95508C9.25294 7.71492 7.64139 6.52869 7.15283 4.98438C6.9863 4.45783 7.44822 4 8.00049 4H16.0005ZM2.43896 8.78613C2.91422 8.17779 3.66077 7.91178 4.36865 8.02539L2.15674 10.8564C1.88207 10.1886 1.96382 9.39439 2.43896 8.78613ZM12.0005 2C13.1107 2.00012 14.0805 2.40229 14.5991 3H9.40186C9.92062 2.40233 10.8902 2 12.0005 2Z" fill="#48465C"/>
</svg>
