<svg width="24" height="24" viewBox="0 0 24 24" fill="none" xmlns="http://www.w3.org/2000/svg">
<path d="M14.0102 4.0625C14.5779 4.06541 15.0569 4.53982 14.8735 5.07422C14.5428 6.03556 13.7452 6.77824 12.7494 7.03418V13.4072C12.8716 13.2899 13.001 13.1782 13.1362 13.0732L13.1479 13.0635L17.0346 10.2852L17.1987 10.1621C16.8541 9.24675 16.9627 8.21433 17.4848 7.39258C17.7895 6.91322 18.4526 6.99505 18.8022 7.44238L21.3344 10.6846C21.6836 11.132 21.6077 11.8012 21.0746 11.9883C20.0476 12.348 18.8867 12.1329 18.0522 11.3975L17.9203 11.4961L14.0453 14.2666C13.2299 14.9051 12.7504 15.89 12.7504 16.9365V18L12.7494 18.0156V21.25H14.9994C15.4137 21.25 15.7494 21.5858 15.7494 22C15.7493 22.4141 15.4137 22.75 14.9994 22.75H8.99944C8.58548 22.7498 8.24954 22.414 8.24944 22C8.24944 21.5859 8.58541 21.2502 8.99944 21.25H11.2494V16.9033C11.2393 15.8694 10.7615 14.8983 9.95451 14.2666L6.07854 11.4961L6.00822 11.4434C5.17804 12.1419 4.04389 12.3405 3.0385 11.9883C2.50537 11.8011 2.4302 11.1319 2.77971 10.6846L5.31096 7.44238C5.66059 6.9949 6.32456 6.91285 6.62932 7.39258C7.16399 8.23423 7.26346 9.29703 6.88811 10.2285L6.96428 10.2852L10.852 13.0635L10.8637 13.0732C10.9989 13.1782 11.1274 13.2898 11.2494 13.4072V7.04395C10.2194 6.7949 9.38691 6.03222 9.04143 5.04492C8.85377 4.50857 9.32917 4.03931 9.8969 4.04199L14.0102 4.0625ZM2.43889 7.78613C2.91414 7.17778 3.66068 6.91178 4.36858 7.02539L2.15666 9.85742C1.88178 9.18947 1.96364 8.39452 2.43889 7.78613ZM19.7446 7.02539C20.4524 6.91179 21.199 7.17782 21.6742 7.78613C22.1495 8.39452 22.2313 9.18947 21.9565 9.85742L19.7446 7.02539ZM11.9467 2C12.7186 2.004 13.3925 2.43199 13.7465 3.06152L10.1537 3.04297C10.5032 2.41697 11.1747 1.99603 11.9467 2Z" fill="#1C274C"/>
</svg>
