<svg width="24" height="24" viewBox="0 0 24 24" fill="none" xmlns="http://www.w3.org/2000/svg">
<path d="M12 2C17.5228 2 22 6.47715 22 12C22 17.5228 17.5228 22 12 22C6.47715 22 2 17.5228 2 12C2 6.47715 6.47715 2 12 2ZM11.1611 6.25C11.0159 6.24982 10.8648 6.24962 10.7266 6.27148C9.97779 6.39008 9.39008 6.97775 9.27148 7.72656C9.24961 7.86482 9.24982 8.01583 9.25 8.16113V11.25H9C8.58579 11.25 8.25 11.5858 8.25 12C8.25 12.4142 8.58579 12.75 9 12.75H9.25V13.25H9C8.58579 13.25 8.25 13.5858 8.25 14C8.25 14.4142 8.58579 14.75 9 14.75H9.25V17C9.25 17.4142 9.58579 17.75 10 17.75C10.4142 17.75 10.75 17.4142 10.75 17V14.75H12C12.4142 14.75 12.75 14.4142 12.75 14C12.75 13.5858 12.4142 13.25 12 13.25H10.75V12.75H13.5C15.2949 12.75 16.75 11.2949 16.75 9.5C16.75 7.70507 15.2949 6.25 13.5 6.25H11.1611ZM13.5 7.75C14.4665 7.75 15.25 8.5335 15.25 9.5C15.25 10.4665 14.4665 11.25 13.5 11.25H10.75V8.2002C10.75 8.10335 10.7498 8.04544 10.751 8.00195C10.7517 7.97434 10.7527 7.96187 10.7529 7.95898C10.7705 7.8535 10.8535 7.77043 10.959 7.75293C10.9619 7.75264 10.9744 7.75173 11.002 7.75098C11.0454 7.74979 11.1033 7.75 11.2002 7.75H13.5Z" fill="#48465C"/>
</svg>
