<svg width="24" height="24" viewBox="0 0 24 24" fill="none" xmlns="http://www.w3.org/2000/svg">
<path d="M12 1.25C17.9371 1.25 22.75 6.06294 22.75 12C22.75 15.5718 21.0075 18.7368 18.3291 20.6904C16.5536 21.9856 14.3649 22.75 12 22.75C9.6351 22.75 7.44648 21.9856 5.6709 20.6904C2.99266 18.7367 1.25 15.5718 1.25 12C1.25 6.06294 6.06294 1.25 12 1.25ZM12 16.75C9.8813 16.75 8.69384 17.1577 8.00391 17.7197C7.4249 18.1914 7.10134 18.8505 6.92871 19.7373C8.38479 20.6938 10.1265 21.25 12 21.25C13.8735 21.25 15.6152 20.6937 17.0713 19.7373C16.8986 18.8504 16.5751 18.1914 15.9961 17.7197C15.3062 17.1576 14.1187 16.75 12 16.75ZM12 2.75C6.89137 2.75 2.75 6.89137 2.75 12C2.75 14.6447 3.85974 17.0301 5.64062 18.7168C5.89729 17.9001 6.32766 17.1506 7.05664 16.5566C8.13374 15.6793 9.73075 15.25 12 15.25C14.2692 15.25 15.8663 15.6792 16.9434 16.5566C17.6724 17.1506 18.1028 17.9002 18.3594 18.7168C20.1404 17.0302 21.25 14.6448 21.25 12C21.25 6.89137 17.1086 2.75 12 2.75ZM12 6.25C14.0711 6.25 15.75 7.92893 15.75 10C15.75 12.0711 14.0711 13.75 12 13.75C9.92893 13.75 8.25 12.0711 8.25 10C8.25 7.92893 9.92893 6.25 12 6.25ZM12 7.75C10.7574 7.75 9.75 8.75736 9.75 10C9.75 11.2426 10.7574 12.25 12 12.25C13.2426 12.25 14.25 11.2426 14.25 10C14.25 8.75736 13.2426 7.75 12 7.75Z" fill="#48465C"/>
</svg>
