<svg width="24" height="24" viewBox="0 0 24 24" fill="none" xmlns="http://www.w3.org/2000/svg">
<path d="M9.46973 13.4697C9.76262 13.1768 10.2374 13.1768 10.5303 13.4697C10.8232 13.7626 10.8232 14.2374 10.5303 14.5303L3.81055 21.25H8C8.41421 21.25 8.75 21.5858 8.75 22C8.74999 22.4142 8.4142 22.75 8 22.75H2C1.5858 22.75 1.25001 22.4142 1.25 22V16C1.25 15.5858 1.58579 15.25 2 15.25C2.41421 15.25 2.75 15.5858 2.75 16V20.1895L9.46973 13.4697ZM12 1.25C17.9371 1.25 22.75 6.06294 22.75 12C22.75 17.9371 17.9371 22.75 12 22.75C11.5858 22.75 11.25 22.4142 11.25 22C11.25 21.5858 11.5858 21.25 12 21.25C17.1086 21.25 21.25 17.1086 21.25 12C21.25 6.89137 17.1086 2.75 12 2.75C6.89137 2.75 2.75 6.89137 2.75 12C2.75 12.4142 2.41421 12.75 2 12.75C1.58579 12.75 1.25 12.4142 1.25 12C1.25 6.06294 6.06294 1.25 12 1.25Z" fill="#1C274C"/>
</svg>
