<svg width="24" height="24" viewBox="0 0 24 24" fill="none" xmlns="http://www.w3.org/2000/svg">
<path d="M10.4073 18.1172C10.7039 17.8209 11.1854 17.8216 11.4816 18.1182C11.7775 18.4147 11.777 18.8952 11.4806 19.1914L9.76868 20.9014C9.63573 21.0342 9.63573 21.249 9.76868 21.3818C9.90214 21.5151 10.1187 21.5151 10.2521 21.3818L10.4073 21.2266C10.7039 20.9304 11.1854 20.9309 11.4816 21.2275C11.7775 21.5242 11.7771 22.0047 11.4806 22.3008L11.3243 22.4561C10.5982 23.1811 9.42152 23.1812 8.69543 22.4561C7.96887 21.7302 7.9688 20.5529 8.69543 19.8271L10.4073 18.1172ZM9.422 16.2949C9.71842 15.9985 10.1998 15.9985 10.4962 16.2949C10.7926 16.5914 10.7926 17.0727 10.4962 17.3691L8.36829 19.4961C8.07186 19.7925 7.59146 19.7925 7.29504 19.4961C6.99862 19.1997 6.99861 18.7193 7.29504 18.4229L9.422 16.2949ZM6.22375 16.6836C6.52347 16.3907 7.00396 16.3967 7.297 16.6963C7.59007 16.996 7.58497 17.4764 7.28528 17.7695L5.55481 19.4619C5.25508 19.7546 4.77455 19.7488 4.48157 19.4492C4.18867 19.1495 4.19375 18.669 4.49329 18.376L6.22375 16.6836ZM18.5812 13.1201C19.0412 13.8438 19.2829 14.2874 19.3527 14.7559C19.4288 15.2674 19.3604 15.7982 19.1554 16.2891C18.9229 16.8458 17.7663 17.9994 16.8029 18.96L16.7306 19.0322C16.4317 19.3301 15.9167 19.2273 15.7618 18.8389C15.5717 18.3617 15.4771 18.1228 15.3546 17.8994C15.2458 17.701 15.1203 17.5122 14.9806 17.334C14.8749 17.199 14.7582 17.0724 14.5822 16.8936C14.829 16.7426 15.0526 16.5661 15.257 16.3896C15.598 16.0951 15.9747 15.7186 16.3859 15.3086L18.5812 13.1201ZM6.6134 13.4893C6.90978 13.1932 7.39031 13.1931 7.68665 13.4893C7.98307 13.7858 7.98307 14.2671 7.68665 14.5635L5.54407 16.7051C5.24765 17.0015 4.76726 17.0015 4.47083 16.7051C4.17462 16.4086 4.17448 15.9283 4.47083 15.6318L6.6134 13.4893ZM18.6583 2C20.2335 2 21.0216 2.0004 21.5109 2.48828C21.9999 2.97614 22.0001 3.76121 22.0001 5.33105V5.81934C22.0001 6.84062 21.9995 7.35139 21.8087 7.81055C21.618 8.26952 21.2564 8.63076 20.5323 9.35254L15.5021 14.3672C14.6343 15.2322 14.105 15.761 13.5861 15.9521C13.4391 16.0063 13.2926 16.0332 13.1398 16.0332C12.4478 16.0332 11.8904 15.4777 10.7765 14.3672L10.6583 14.25L12.4181 12.4648C12.6679 12.2112 12.6646 11.8028 12.4113 11.5527C12.1575 11.3026 11.7483 11.3058 11.4982 11.5596L9.74524 13.3389L9.59485 13.1895C8.48123 12.0792 7.92497 11.5238 7.92493 10.834C7.92493 10.6683 7.95643 10.5103 8.02063 10.3506C8.22382 9.84532 8.74866 9.32216 9.59485 8.47852L14.6251 3.46387C15.3495 2.74174 15.7114 2.38064 16.172 2.19043C16.6325 2.00024 17.1447 2 18.1691 2H18.6583ZM4.8136 12.4805C5.11018 12.1844 5.59063 12.185 5.88684 12.4814C6.18298 12.7779 6.18313 13.2585 5.88684 13.5547L4.17395 15.2646C3.44779 15.9899 2.27119 15.9899 1.54504 15.2646C0.81852 14.539 0.818615 13.3625 1.54504 12.6367L1.70032 12.4805C1.99692 12.1843 2.47829 12.1848 2.77454 12.4814C3.0705 12.778 3.06995 13.2586 2.77356 13.5547L2.61731 13.71C2.48454 13.8426 2.48481 14.0576 2.61731 14.1904C2.75077 14.3237 2.96822 14.3237 3.10168 14.1904L4.8136 12.4805ZM7.66809 4.83594C8.16046 4.63168 8.69222 4.56385 9.2052 4.63965C9.67521 4.70911 10.1198 4.95049 10.8458 5.40918L8.65833 7.58984C8.25627 7.99067 7.88809 8.35902 7.5968 8.69141C7.40973 8.9049 7.22196 9.13829 7.0636 9.39648L7.04309 9.375C7.0027 9.33473 6.98232 9.3146 6.96204 9.29492C6.58179 8.92597 6.13406 8.63269 5.64368 8.43066C5.6175 8.41988 5.59037 8.40973 5.53723 8.38867L5.21204 8.25977C4.77085 8.08495 4.65288 7.51642 4.9884 7.18164C5.95204 6.22093 7.10972 5.06761 7.66809 4.83594ZM17.8654 6.12305C17.2129 5.47254 16.1545 5.47254 15.5021 6.12305C14.8499 6.77352 14.8498 7.82808 15.5021 8.47852C16.1545 9.12902 17.2129 9.12902 17.8654 8.47852C18.5177 7.82806 18.5176 6.77354 17.8654 6.12305Z" fill="#1C274C"/>
</svg>
