<svg width="24" height="24" viewBox="0 0 24 24" fill="none" xmlns="http://www.w3.org/2000/svg">
<path d="M10 6C14.4183 6 18 9.58172 18 14C18 18.4183 14.4183 22 10 22C8.76449 22 7.59444 21.7198 6.5498 21.2197C6.19075 21.0478 5.78395 20.988 5.39941 21.0908L4.17383 21.4189C3.20767 21.6774 2.32296 20.7932 2.58105 19.8271L2.90918 18.6006C3.01208 18.2161 2.95215 17.8093 2.78027 17.4502C2.28015 16.4056 2 15.2355 2 14C2 9.58172 5.58172 6 10 6ZM6.5 13C5.94772 13 5.5 13.4477 5.5 14C5.5 14.5523 5.94772 15 6.5 15C7.05228 15 7.5 14.5523 7.5 14C7.5 13.4477 7.05228 13 6.5 13ZM10 13C9.44772 13 9 13.4477 9 14C9 14.5523 9.44772 15 10 15C10.5523 15 11 14.5523 11 14C11 13.4477 10.5523 13 10 13ZM13.5 13C12.9477 13 12.5 13.4477 12.5 14C12.5 14.5523 12.9477 15 13.5 15C14.0523 15 14.5 14.5523 14.5 14C14.5 13.4477 14.0523 13 13.5 13ZM15.5 2C19.0899 2 22 4.91015 22 8.5C22 9.46235 21.7903 10.3756 21.415 11.1973C21.2496 11.5594 21.1881 11.9661 21.291 12.3506L21.4189 12.8271C21.6769 13.7931 20.7931 14.6769 19.8271 14.4189L19.4941 14.3301C19.4978 14.2207 19.5 14.1103 19.5 14C19.5 8.87838 15.4466 4.70299 10.373 4.50684C11.5626 2.98193 13.4171 2 15.5 2Z" fill="#1C274C"/>
</svg>
