<svg width="24" height="24" viewBox="0 0 24 24" fill="none" xmlns="http://www.w3.org/2000/svg">
<path d="M11 17.25C11.4142 17.25 11.75 17.5858 11.75 18C11.75 18.4142 11.4142 18.75 11 18.75H3C2.58579 18.75 2.25 18.4142 2.25 18C2.25 17.5858 2.58579 17.25 3 17.25H11ZM17.0117 14.4307C17.2926 14.1899 17.7074 14.1899 17.9883 14.4307L21.4883 17.4307C21.8027 17.7002 21.8389 18.1738 21.5693 18.4883C21.2998 18.8027 20.8262 18.8389 20.5117 18.5693L17.5 15.9883L14.4883 18.5693C14.1738 18.8389 13.7002 18.8027 13.4307 18.4883C13.1611 18.1738 13.1973 17.7002 13.5117 17.4307L17.0117 14.4307ZM11 13.25C11.4142 13.25 11.75 13.5858 11.75 14C11.75 14.4142 11.4142 14.75 11 14.75H3C2.58579 14.75 2.25 14.4142 2.25 14C2.25 13.5858 2.58579 13.25 3 13.25H11ZM21 9.25C21.4142 9.25 21.75 9.58579 21.75 10C21.75 10.4142 21.4142 10.75 21 10.75H3C2.58579 10.75 2.25 10.4142 2.25 10C2.25 9.58579 2.58579 9.25 3 9.25H21ZM21 5.25C21.4142 5.25 21.75 5.58579 21.75 6C21.75 6.41421 21.4142 6.75 21 6.75H3C2.58579 6.75 2.25 6.41421 2.25 6C2.25 5.58579 2.58579 5.25 3 5.25H21Z" fill="#1C274C"/>
</svg>
