<svg width="24" height="24" viewBox="0 0 24 24" fill="none" xmlns="http://www.w3.org/2000/svg">
<path d="M3 1.25C3.41421 1.25 3.75 1.58579 3.75 2V22C3.75 22.4142 3.41421 22.75 3 22.75C2.58579 22.75 2.25 22.4142 2.25 22V2C2.25 1.58579 2.58579 1.25 3 1.25ZM15.5322 13.25C15.972 13.25 16.3518 13.2501 16.6631 13.2783C16.9921 13.3081 17.3179 13.3745 17.625 13.5518C17.9669 13.7492 18.2508 14.0331 18.4482 14.375C18.6255 14.6821 18.6919 15.0079 18.7217 15.3369C18.7499 15.6482 18.75 16.028 18.75 16.4678V16.5322C18.75 16.972 18.7499 17.3518 18.7217 17.6631C18.6919 17.9921 18.6255 18.3179 18.4482 18.625C18.2508 18.9669 17.9669 19.2508 17.625 19.4482C17.3179 19.6255 16.9921 19.6919 16.6631 19.7217C16.3518 19.7499 15.972 19.75 15.5322 19.75H9.46777C9.02799 19.75 8.6482 19.7499 8.33691 19.7217C8.00788 19.6919 7.68207 19.6255 7.375 19.4482C7.03308 19.2508 6.7492 18.9669 6.55176 18.625C6.37446 18.3179 6.30818 17.9921 6.27832 17.6631C6.25011 17.3518 6.24998 16.972 6.25 16.5322V16.4678C6.24998 16.028 6.25011 15.6482 6.27832 15.3369C6.30818 15.0079 6.37446 14.6821 6.55176 14.375C6.7492 14.0331 7.03307 13.7492 7.375 13.5518C7.68207 13.3745 8.00788 13.3081 8.33691 13.2783C8.64821 13.2501 9.02799 13.25 9.46777 13.25H15.5322ZM9.5 14.75C9.01889 14.75 8.70811 14.7511 8.47266 14.7725C8.2476 14.7929 8.16585 14.827 8.125 14.8506C8.01102 14.9164 7.91641 15.011 7.85059 15.125C7.827 15.1659 7.79286 15.2476 7.77246 15.4727C7.75112 15.7082 7.75 16.0189 7.75 16.5C7.75 16.9811 7.75112 17.2918 7.77246 17.5273C7.79286 17.7524 7.827 17.8341 7.85059 17.875C7.91641 17.989 8.01102 18.0836 8.125 18.1494C8.16585 18.173 8.2476 18.2071 8.47266 18.2275C8.70812 18.2489 9.01889 18.25 9.5 18.25H15.5C15.9811 18.25 16.2918 18.2489 16.5273 18.2275C16.7524 18.2071 16.8341 18.173 16.875 18.1494C16.989 18.0836 17.0836 17.989 17.1494 17.875C17.173 17.8341 17.2071 17.7524 17.2275 17.5273C17.2489 17.2918 17.25 16.9811 17.25 16.5C17.25 16.0189 17.2489 15.7082 17.2275 15.4727C17.2071 15.2476 17.173 15.1659 17.1494 15.125C17.0836 15.011 16.989 14.9164 16.875 14.8506C16.8341 14.827 16.7524 14.7929 16.5273 14.7725C16.2918 14.7511 15.9811 14.75 15.5 14.75H9.5ZM18.5322 4.25C18.972 4.24998 19.3519 4.25011 19.6631 4.27832C19.9921 4.30818 20.318 4.37448 20.625 4.55176C20.9669 4.7492 21.2508 5.03308 21.4482 5.375C21.6255 5.68207 21.6919 6.00788 21.7217 6.33691C21.7499 6.6482 21.75 7.02799 21.75 7.46777V7.53223C21.75 7.97201 21.7499 8.3518 21.7217 8.66309C21.6919 8.99212 21.6255 9.31793 21.4482 9.625C21.2508 9.96692 20.9669 10.2508 20.625 10.4482C20.318 10.6255 19.9921 10.6919 19.6631 10.7217C19.3519 10.7499 18.972 10.75 18.5322 10.75H9.46777C9.02799 10.75 8.64821 10.7499 8.33691 10.7217C8.00788 10.6919 7.68207 10.6255 7.375 10.4482C7.03307 10.2508 6.7492 9.96693 6.55176 9.625C6.37447 9.31793 6.30818 8.99211 6.27832 8.66309C6.25011 8.3518 6.24998 7.97201 6.25 7.53223V7.46777C6.24998 7.02799 6.25011 6.6482 6.27832 6.33691C6.30818 6.00789 6.37447 5.68207 6.55176 5.375C6.74921 5.03307 7.03307 4.74921 7.375 4.55176C7.68207 4.37447 8.00789 4.30818 8.33691 4.27832C8.6482 4.25011 9.02799 4.24998 9.46777 4.25H18.5322ZM9.5 5.75C9.01889 5.75 8.70812 5.75112 8.47266 5.77246C8.24761 5.79286 8.16585 5.827 8.125 5.85059C8.01103 5.91641 7.91641 6.01103 7.85059 6.125C7.827 6.16585 7.79286 6.2476 7.77246 6.47266C7.75112 6.70811 7.75 7.01889 7.75 7.5C7.75 7.98111 7.75112 8.29189 7.77246 8.52734C7.79286 8.7524 7.827 8.83415 7.85059 8.875C7.91641 8.98897 8.01103 9.08359 8.125 9.14941C8.16585 9.173 8.24761 9.20714 8.47266 9.22754C8.70812 9.24888 9.01889 9.25 9.5 9.25H18.5C18.9811 9.25 19.2918 9.24888 19.5273 9.22754C19.7524 9.20714 19.8341 9.173 19.875 9.14941C19.989 9.08359 20.0836 8.98898 20.1494 8.875C20.173 8.83415 20.2071 8.7524 20.2275 8.52734C20.2489 8.29189 20.25 7.98111 20.25 7.5C20.25 7.01889 20.2489 6.70811 20.2275 6.47266C20.2071 6.2476 20.173 6.16585 20.1494 6.125C20.0836 6.01102 19.989 5.91641 19.875 5.85059C19.8341 5.827 19.7524 5.79286 19.5273 5.77246C19.2918 5.75112 18.9811 5.75 18.5 5.75H9.5Z" fill="#1C274C"/>
</svg>
