<svg width="24" height="24" viewBox="0 0 24 24" fill="none" xmlns="http://www.w3.org/2000/svg">
<path d="M16 18.5C17.6569 18.5 19 19.8431 19 21.5C19 21.7761 18.7761 22 18.5 22H5.5C5.22386 22 5 21.7761 5 21.5C5 19.8431 6.34315 18.5 8 18.5H16ZM15 7.5C16.8856 7.5 17.8283 7.50015 18.4141 8.08594C18.9999 8.67172 19 9.61439 19 11.5V12.5C19 14.3856 18.9999 15.3283 18.4141 15.9141C17.8283 16.4999 16.8856 16.5 15 16.5H9C7.11439 16.5 6.17172 16.4999 5.58594 15.9141C5.00015 15.3283 5 14.3856 5 12.5V11.5C5 9.61438 5.00015 8.67172 5.58594 8.08594C6.17172 7.50015 7.11438 7.5 9 7.5H15ZM18.5 2C18.7761 2 19 2.22386 19 2.5C19 4.15685 17.6569 5.5 16 5.5H8C6.34315 5.5 5 4.15685 5 2.5C5 2.22386 5.22386 2 5.5 2H18.5Z" fill="#48465C"/>
</svg>
