<svg width="24" height="24" viewBox="0 0 24 24" fill="none" xmlns="http://www.w3.org/2000/svg">
<path d="M9.25977 3.09863C9.6638 2.0879 10.995 1.46269 12.0273 2.24902C13.7472 3.55912 15.9043 5.48545 17.6396 7.68848C19.3593 9.87178 20.75 12.4348 20.75 15C20.75 17.2931 20.0397 18.9973 19.0117 20.2178C17.9935 21.4265 16.6997 22.1189 15.582 22.4668C15.0082 22.6455 14.4826 22.3829 14.2275 21.9551C13.9871 21.5517 13.9857 21.0147 14.2861 20.583C15.1434 19.351 16.0498 17.5793 16.0498 16C16.0498 15.2165 15.7125 14.2887 15.167 13.3369C14.7569 12.6214 14.2541 11.9353 13.7646 11.3467C13.663 12.7495 13.3578 14.5122 12.4121 15.9697C11.9823 16.632 11.0263 16.7058 10.5176 16.0625C10.3589 15.8617 10.202 15.6413 10.0586 15.4395C10.05 15.4274 10.0416 15.4152 10.0332 15.4033C9.9547 15.2929 9.87985 15.1879 9.80762 15.0898C9.12188 15.7728 8.48345 16.5902 8.4834 17.5C8.4834 18.3038 8.88487 19.403 9.35938 20.334C9.6157 20.8374 9.50804 21.3954 9.19922 21.7607C8.87076 22.1493 8.27336 22.3488 7.70605 22.0205C5.76195 20.8952 3.25 18.4917 3.25 15C3.25002 14.0532 3.57135 13.0739 4.02051 12.1172C4.47273 11.154 5.08548 10.15 5.72949 9.14746C5.95262 8.80011 6.17922 8.45283 6.40527 8.10645C7.50979 6.41394 8.60546 4.7358 9.25977 3.09863ZM10.8984 3.41797C10.7959 3.45345 10.699 3.53851 10.6523 3.65527C9.93708 5.44493 8.74043 7.27712 7.63574 8.96777C7.41618 9.30381 7.19995 9.63458 6.99219 9.95801C6.35294 10.9532 5.7853 11.8873 5.37793 12.7549C4.96768 13.6288 4.75002 14.3738 4.75 15C4.75 17.2945 6.15627 19.0767 7.63281 20.1787C7.27819 19.3376 6.9834 18.367 6.9834 17.5C6.98345 15.7695 8.28254 14.4631 9.00879 13.7754C9.4791 13.3301 10.2913 13.29 10.7646 13.874C10.9358 14.0853 11.1028 14.3204 11.2549 14.5342L11.2734 14.5596C11.3161 14.6196 11.3578 14.6777 11.3984 14.7344C12.0672 13.46 12.2539 11.9053 12.3008 10.626C12.3201 10.0999 12.6467 9.68393 13.0742 9.50977C13.5113 9.33195 14.0551 9.40992 14.4287 9.82324C15.0951 10.5605 15.8622 11.5353 16.4678 12.5918C17.0652 13.6341 17.5498 14.8331 17.5498 16C17.5498 17.6927 16.7819 19.4101 16.0059 20.6885C16.6578 20.3693 17.3158 19.9031 17.8643 19.252C18.6511 18.318 19.25 16.9612 19.25 15C19.25 12.9434 18.112 10.7134 16.4609 8.61719C14.8254 6.54076 12.7694 4.70028 11.1182 3.44238C11.0635 3.40084 10.993 3.38523 10.8984 3.41797Z" fill="#48465C"/>
</svg>
