<svg width="24" height="24" viewBox="0 0 24 24" fill="none" xmlns="http://www.w3.org/2000/svg">
<path d="M9.25977 3.09834C9.66395 2.08776 10.9951 1.46337 12.0273 2.2497C13.7472 3.55985 15.9043 5.48612 17.6396 7.68916C19.3592 9.87233 20.7498 12.4347 20.75 14.9997C20.75 17.293 20.0398 18.998 19.0117 20.2185C17.9934 21.4272 16.6997 22.1197 15.582 22.4675C15.008 22.6462 14.4825 22.3828 14.2275 21.9548C13.9872 21.5515 13.986 21.0153 14.2861 20.5837C15.1434 19.3517 16.0498 17.579 16.0498 15.9997C16.0497 15.2164 15.7123 14.2891 15.167 13.3376C14.7568 12.6219 14.2542 11.9351 13.7646 11.3464C13.6631 12.7492 13.3577 14.5119 12.4121 15.9694C11.9823 16.6317 11.0263 16.7065 10.5176 16.0632C10.3588 15.8623 10.2021 15.6412 10.0586 15.4392C10.05 15.4272 10.0416 15.4149 10.0332 15.403C9.95476 15.2927 9.8798 15.1886 9.80762 15.0905C9.12202 15.7734 8.48361 16.5901 8.4834 17.4997C8.4834 18.3035 8.88487 19.4027 9.35938 20.3337C9.61586 20.8371 9.50804 21.395 9.19922 21.7604C8.87083 22.149 8.27334 22.3493 7.70605 22.0212C5.76195 20.8959 3.25 18.4914 3.25 14.9997C3.2501 14.0529 3.57137 13.0735 4.02051 12.1169C4.47274 11.1537 5.08548 10.1497 5.72949 9.14716C5.95254 8.79995 6.17931 8.45337 6.40527 8.10712C7.50983 6.41455 8.60544 4.73557 9.25977 3.09834ZM10.8984 3.41767C10.796 3.45313 10.6991 3.53837 10.6523 3.65498C9.93702 5.44477 8.7405 7.27769 7.63574 8.96845C7.41613 9.30457 7.19999 9.63519 6.99219 9.95869C6.35298 10.9538 5.78528 11.887 5.37793 12.7546C4.96767 13.6285 4.7501 14.3735 4.75 14.9997C4.75 17.2941 6.15632 19.0764 7.63281 20.1784C7.2782 19.3373 6.9834 18.3667 6.9834 17.4997C6.98362 15.7693 8.28261 14.4627 9.00879 13.7751C9.47915 13.3298 10.2914 13.2905 10.7646 13.8747C10.9357 14.0859 11.1029 14.3202 11.2549 14.5339L11.2734 14.5593C11.3161 14.6193 11.3578 14.6774 11.3984 14.7341C12.0671 13.4598 12.2539 11.9058 12.3008 10.6267C12.32 10.1003 12.6465 9.68365 13.0742 9.50947C13.5113 9.33167 14.0551 9.40974 14.4287 9.82295C15.0951 10.5602 15.8622 11.5351 16.4678 12.5915C17.0652 13.6338 17.5497 14.8328 17.5498 15.9997C17.5498 17.6923 16.7818 19.4098 16.0059 20.6882C16.6579 20.369 17.3158 19.9029 17.8643 19.2517C18.651 18.3177 19.25 16.9609 19.25 14.9997C19.2498 12.9432 18.1119 10.713 16.4609 8.61689C14.8255 6.5406 12.7694 4.70091 11.1182 3.44306C11.0635 3.40144 10.9931 3.38495 10.8984 3.41767Z" fill="#1C274C"/>
</svg>
