<svg width="24" height="24" viewBox="0 0 24 24" fill="none" xmlns="http://www.w3.org/2000/svg">
<path d="M4.41431 17.8584C4.77206 17.6502 5.23113 17.7713 5.4397 18.1289C6.26648 19.5467 7.53045 20.6187 9.08911 21.3145C9.46736 21.4833 9.63781 21.9274 9.46899 22.3057C9.30017 22.6838 8.85603 22.8534 8.47778 22.6846C6.66647 21.8761 5.14669 20.6045 4.1438 18.8848C3.93514 18.527 4.05649 18.0671 4.41431 17.8584ZM8.97485 1.77832C10.1633 1.09931 11.7698 1.32529 12.4856 2.55273L13.9182 5.00879C14.1492 4.69467 14.4492 4.42367 14.7991 4.22363C15.9876 3.54441 17.5949 3.77056 18.3108 4.99805L20.8372 9.3291C22.9515 12.9551 21.2535 17.6616 17.3293 19.9043C13.4076 22.1455 8.4537 21.2465 6.34302 17.627L2.55493 11.1309C1.83535 9.89683 2.44808 8.39543 3.63892 7.71484C3.98514 7.51706 4.36733 7.3963 4.7522 7.35449L3.74927 5.63574C3.02985 4.40182 3.64254 2.90129 4.83325 2.2207C5.88389 1.62026 7.26172 1.72656 8.06177 2.60742C8.29666 2.27455 8.60861 1.98764 8.97485 1.77832ZM11.1907 3.30859C10.9767 2.94152 10.3527 2.71893 9.71899 3.08105C9.08764 3.44188 8.97644 4.0778 9.18677 4.43848L11.7122 8.76953C11.9206 9.12722 11.8001 9.58619 11.4426 9.79492C11.0849 10.0036 10.625 9.88303 10.4163 9.52539L7.89087 5.19336L7.04907 3.75C6.83499 3.38295 6.21105 3.16033 5.57739 3.52246C4.9462 3.8832 4.83505 4.51916 5.04517 4.87988L8.83423 11.377C9.04265 11.7347 8.92144 12.1938 8.56372 12.4023C8.20604 12.611 7.74711 12.4904 7.53833 12.1328L5.85474 9.24512C5.6407 8.87807 5.01668 8.65556 4.38306 9.01758C3.75171 9.37841 3.6405 10.0143 3.85083 10.375L7.63892 16.8721C9.24789 19.631 13.2183 20.5257 16.5852 18.6016C19.9497 16.6787 21.1462 12.8376 19.5413 10.085L17.0149 5.75391C16.8008 5.38687 16.1778 5.16441 15.5442 5.52637C14.9129 5.8872 14.8016 6.5231 15.012 6.88379L16.6956 9.77148C16.7962 9.94418 16.8234 10.1497 16.7717 10.3428C16.72 10.5359 16.5936 10.7005 16.4202 10.7998C14.8778 11.6812 14.4043 13.386 15.0793 14.5439C15.288 14.9018 15.1675 15.3607 14.8098 15.5693C14.4521 15.778 13.9931 15.6575 13.7844 15.2998C12.7252 13.4834 13.3915 11.2368 15.0471 9.92285L11.1907 3.30859ZM14.6204 1.46387C16.5584 0.912631 18.5749 1.43931 19.9778 2.87207C20.2676 3.16803 20.262 3.64283 19.9661 3.93262C19.6701 4.22232 19.1953 4.2178 18.9055 3.92188C17.8916 2.88649 16.446 2.50446 15.0305 2.90723C14.6321 3.02056 14.2172 2.78901 14.1038 2.39062C13.9907 1.99233 14.2221 1.57719 14.6204 1.46387Z" fill="#48465C"/>
</svg>
