<svg width="24" height="24" viewBox="0 0 24 24" fill="none" xmlns="http://www.w3.org/2000/svg">
<path d="M7.31934 7.25806C7.31213 7.29392 7.30117 7.3461 7.28809 7.41333C7.26182 7.54832 7.22546 7.74438 7.18164 7.98755C7.09406 8.47352 6.97867 9.15239 6.87012 9.92603C6.65498 11.4592 6.45596 13.4183 6.55859 14.9836C6.62071 15.9309 6.81826 17.1065 6.99414 18.0247C7.08283 18.4877 7.16768 18.8935 7.23047 19.1838C7.26188 19.329 7.28751 19.446 7.30566 19.5266L7.32715 19.6204L7.47168 20.2415C5.21012 20.9871 4.01853 21.299 3.35938 20.6399C2.62967 19.91 3.08996 18.5272 4.01172 15.762L5.70117 10.6936C6.33319 8.79755 6.70466 7.68353 7.32422 7.23169L7.31934 7.25806ZM8.85059 7.25903C9.46331 7.6184 10.1889 8.34435 11.2324 9.38794L11.7354 9.89087L11.5225 10.5305L11.5137 10.5588C11.5076 10.5774 11.4982 10.6045 11.4873 10.6389C11.4654 10.7077 11.4352 10.8071 11.3984 10.9299C11.3248 11.1757 11.2271 11.5193 11.1289 11.9124C10.9368 12.6816 10.7275 13.7041 10.7275 14.5559C10.7276 15.4075 10.9368 16.4294 11.1289 17.1985C11.2271 17.5917 11.3248 17.9362 11.3984 18.1819C11.4351 18.3045 11.4654 18.4031 11.4873 18.4719C11.4981 18.5061 11.5076 18.5333 11.5137 18.552L11.6162 18.8616L8.90137 19.7659L8.79395 19.3069L8.78906 19.2844L8.76953 19.1975C8.75222 19.1208 8.7267 19.008 8.69629 18.8674C8.63539 18.5858 8.55281 18.1915 8.4668 17.7424C8.29307 16.8356 8.11142 15.7358 8.05566 14.886C7.96361 13.4822 8.14285 11.6494 8.35547 10.134C8.46074 9.38394 8.57225 8.72469 8.65723 8.25317C8.69966 8.01767 8.73566 7.82929 8.76074 7.70044C8.77327 7.63602 8.78339 7.58608 8.79004 7.55298L8.79785 7.51587L8.79883 7.50708L8.7998 7.50415L8.85059 7.25903ZM14.6113 12.7668C16.324 14.4796 17.1806 15.3362 16.9668 16.2424C16.7529 17.1486 15.6038 17.5321 13.3057 18.2981L13.0391 18.387L12.9463 18.1096L12.9453 18.1057L12.9395 18.0881C12.9345 18.0726 12.9267 18.0494 12.917 18.0188C12.8974 17.957 12.8692 17.8656 12.835 17.7512C12.7664 17.5221 12.6754 17.201 12.584 16.8352C12.397 16.0866 12.2266 15.2137 12.2266 14.5559C12.2266 13.8979 12.397 13.0244 12.584 12.2756C12.6754 11.9099 12.7664 11.5888 12.835 11.3596C12.8691 11.2453 12.8974 11.1538 12.917 11.092L12.9219 11.0774L14.6113 12.7668ZM19.0576 15.3137C19.267 15.1042 19.607 15.1042 19.8164 15.3137C20.0259 15.5232 20.0259 15.863 19.8164 16.0725C19.607 16.2817 19.267 16.2819 19.0576 16.0725C18.8483 15.8631 18.8484 15.5232 19.0576 15.3137ZM19.3359 12.6077C20.0687 11.958 21.1124 11.7934 22.0098 12.1858L22.3008 12.3127C22.6803 12.4786 22.8535 12.9214 22.6875 13.301C22.5214 13.6802 22.0795 13.8526 21.7002 13.6868L21.4082 13.5598C21.0467 13.4019 20.6264 13.4681 20.3311 13.7297C19.5218 14.4473 18.3439 14.5664 17.4072 14.0256L17.1943 13.9036C16.8356 13.6965 16.7128 13.2369 16.9199 12.8782C17.1271 12.5198 17.5858 12.3969 17.9443 12.6038L18.1572 12.7268C18.5347 12.9447 19.0097 12.897 19.3359 12.6077ZM17.1572 10.1575C17.3667 9.948 17.7065 9.94798 17.916 10.1575C18.1253 10.3669 18.1254 10.7068 17.916 10.9163C17.7066 11.1257 17.3667 11.1255 17.1572 10.9163C16.9477 10.7068 16.9477 10.3669 17.1572 10.1575ZM19.0078 7.3606C19.4749 6.89351 20.1043 6.72097 20.6582 6.97681C21.0783 7.17086 21.3512 7.56394 21.4541 8.04614C21.9364 8.14907 22.3293 8.42284 22.5234 8.84302C22.7792 9.39685 22.6067 10.0254 22.1396 10.4924C21.8688 10.7633 21.5059 10.8861 21.1826 10.9436C20.852 11.0024 20.5025 11.0032 20.1963 10.9836C19.8872 10.9639 19.6034 10.9218 19.3984 10.885C19.2956 10.8665 19.2109 10.8492 19.1514 10.8362C19.1217 10.8297 19.0976 10.8245 19.0811 10.8206L19.0537 10.8137H19.0527C18.8729 10.7692 18.7254 10.6001 18.6807 10.4202C18.6768 10.4035 18.6706 10.3796 18.6641 10.3499C18.6512 10.2903 18.6337 10.2057 18.6152 10.1028C18.5783 9.89778 18.5364 9.6141 18.5166 9.30493C18.497 8.99882 18.4979 8.64917 18.5566 8.3186C18.6141 7.99533 18.7369 7.63148 19.0078 7.3606ZM16.8066 5.30981C16.8881 4.90385 17.2834 4.64071 17.6895 4.72192C18.0953 4.80335 18.3585 5.19871 18.2773 5.60474L18.1338 6.32446C17.9357 7.31523 17.2213 8.12408 16.2627 8.4436C15.8149 8.59294 15.4813 8.9709 15.3887 9.43384L15.2451 10.1536C15.1639 10.5597 14.7684 10.8226 14.3623 10.7415C13.9563 10.6602 13.6925 10.2656 13.7734 9.85962L13.918 9.13892C14.1163 8.14833 14.8297 7.3393 15.7881 7.01978C16.2358 6.87053 16.5694 6.49328 16.6621 6.03052L16.8066 5.30981ZM12.1572 7.15747C12.3667 6.94803 12.7065 6.94802 12.916 7.15747C13.1252 7.36696 13.1254 7.70685 12.916 7.91626C12.7066 8.12566 12.3667 8.12553 12.1572 7.91626C11.9477 7.70679 11.9477 7.36694 12.1572 7.15747ZM9.15527 2.38794C9.37142 2.03482 9.83322 1.92392 10.1865 2.13989C10.5396 2.35606 10.6505 2.81788 10.4346 3.17114C10.2781 3.42753 10.3179 3.75756 10.5303 3.96997L10.6279 4.06763C11.2166 4.65629 11.4332 5.52172 11.1924 6.3186C11.0724 6.71479 10.6541 6.9392 10.2578 6.81958C9.86135 6.69973 9.63699 6.28052 9.75684 5.88403C9.83759 5.61652 9.76498 5.32578 9.56738 5.12817L9.46875 5.03052C8.76653 4.32799 8.63715 3.23547 9.15527 2.38794ZM13.1602 2.05786C13.4248 1.91877 13.6768 1.99201 13.8262 2.05688C13.9586 2.1144 14.1076 2.20867 14.2461 2.29614L14.3486 2.3606L14.4746 2.32544C14.6382 2.27892 14.8099 2.23023 14.9531 2.21118C15.1048 2.19106 15.3818 2.18089 15.6016 2.40063C15.8213 2.6204 15.8111 2.89739 15.791 3.04907C15.7719 3.19232 15.7233 3.36416 15.6768 3.52759L15.6416 3.65356L15.7061 3.7561C15.7935 3.89458 15.8878 4.04369 15.9453 4.17603C16.0102 4.32544 16.0834 4.57741 15.9443 4.84204C15.8079 5.10168 15.5638 5.1875 15.4082 5.2229C15.2667 5.25508 15.0892 5.26841 14.9209 5.28149L14.7939 5.29126L14.7832 5.29224L14.6914 5.40454C14.5819 5.53778 14.4676 5.67559 14.3604 5.77368C14.2468 5.87757 14.0334 6.03785 13.7363 5.99731C13.4293 5.95528 13.2697 5.73314 13.1924 5.59399C13.1226 5.46814 13.0609 5.30211 13.0039 5.14771L12.9639 5.03833L12.8545 4.99829C12.7002 4.94135 12.535 4.87957 12.4092 4.80981C12.2701 4.73267 12.047 4.57327 12.0049 4.26587C11.9644 3.96882 12.1246 3.75542 12.2285 3.64185C12.3266 3.53463 12.4644 3.42041 12.5977 3.31079L12.71 3.21899L12.7109 3.20825L12.7207 3.0813C12.7338 2.91296 12.7471 2.73554 12.7793 2.59399C12.8146 2.43844 12.9005 2.19437 13.1602 2.05786ZM6.92773 3.94067C7.13722 3.73149 7.47714 3.73133 7.68652 3.94067C7.8959 4.15004 7.89572 4.48997 7.68652 4.69946C7.47705 4.90893 7.1372 4.90893 6.92773 4.69946C6.7183 4.48999 6.71828 4.15012 6.92773 3.94067Z" fill="#48465C"/>
</svg>
