<svg width="24" height="24" viewBox="0 0 24 24" fill="none" xmlns="http://www.w3.org/2000/svg">
<path d="M12.0576 1.25C14.3657 1.24999 16.1745 1.24974 17.5859 1.43945C19.0306 1.63369 20.1706 2.03977 21.0654 2.93457C21.9602 3.82938 22.3662 4.96932 22.5605 6.41406C22.7502 7.82544 22.75 9.63432 22.75 11.9424V12.0576C22.75 14.3657 22.7502 16.1745 22.5605 17.5859C22.3662 19.0306 21.9602 20.1706 21.0654 21.0654C20.1706 21.9602 19.0306 22.3662 17.5859 22.5605C16.1745 22.7502 14.3657 22.75 12.0576 22.75H11.9424C9.63433 22.75 7.82545 22.7502 6.41406 22.5605C4.96933 22.3662 3.82938 21.9602 2.93457 21.0654C2.03977 20.1706 1.63369 19.0306 1.43945 17.5859C1.24974 16.1745 1.24999 14.3657 1.25 12.0576V11.9424C1.24999 9.63433 1.24974 7.82544 1.43945 6.41406C1.63369 4.96932 2.03976 3.82938 2.93457 2.93457C3.82938 2.03976 4.96933 1.63369 6.41406 1.43945C7.82545 1.24974 9.63433 1.24999 11.9424 1.25H12.0576ZM12 2.75C9.62177 2.75 7.91326 2.75198 6.61328 2.92676C5.33508 3.09865 4.56472 3.42551 3.99512 3.99512C3.42551 4.56472 3.09865 5.33508 2.92676 6.61328C2.75198 7.91326 2.75 9.62178 2.75 12C2.75 14.3782 2.75198 16.0867 2.92676 17.3867C3.09865 18.6649 3.42551 19.4352 3.99512 20.0049C4.56472 20.5745 5.33508 20.9014 6.61328 21.0732C7.91326 21.248 9.62177 21.25 12 21.25C14.3782 21.25 16.0867 21.248 17.3867 21.0732C18.6649 20.9014 19.4352 20.5745 20.0049 20.0049C20.5745 19.4352 20.9014 18.6649 21.0732 17.3867C21.248 16.0867 21.25 14.3782 21.25 12C21.25 9.62178 21.248 7.91326 21.0732 6.61328C20.9014 5.33508 20.5745 4.56472 20.0049 3.99512C19.4352 3.42551 18.6649 3.09865 17.3867 2.92676C16.0867 2.75198 14.3782 2.75 12 2.75ZM16.6484 10.6963C16.8522 10.7044 17.0442 10.7948 17.1797 10.9473L18.5605 12.502C18.8356 12.8115 18.8077 13.2854 18.498 13.5605C18.1885 13.8356 17.7146 13.8077 17.4395 13.498L17.2842 13.3232C16.8296 15.8456 14.6009 17.751 11.9346 17.751C10.3634 17.7509 8.94539 17.0895 7.95312 16.0322C7.66967 15.7302 7.68431 15.2551 7.98633 14.9717C8.28837 14.6882 8.76341 14.7039 9.04688 15.0059C9.7654 15.7715 10.7919 16.2509 11.9346 16.251C13.7816 16.251 15.3217 14.9991 15.75 13.3193L15.5195 13.541C15.2208 13.8279 14.7459 13.8183 14.459 13.5195C14.172 13.2208 14.1817 12.7459 14.4805 12.459L16.0996 10.9043C16.2467 10.7631 16.4448 10.6882 16.6484 10.6963ZM12.0439 6.25C13.6213 6.25007 15.0436 6.92052 16.0332 7.99023C16.3145 8.29429 16.2953 8.7695 15.9912 9.05078C15.6873 9.33173 15.2129 9.31353 14.9316 9.00977C14.2154 8.23556 13.188 7.75007 12.0439 7.75C10.2058 7.75 8.66936 9.00237 8.24414 10.6855L8.48145 10.459C8.7803 10.1726 9.25434 10.182 9.54102 10.4805C9.82755 10.7793 9.8181 11.2543 9.51953 11.541L7.89648 13.0967C7.74918 13.2379 7.55057 13.3131 7.34668 13.3047C7.14295 13.2963 6.95163 13.2054 6.81641 13.0527L5.43848 11.4971C5.16396 11.187 5.19286 10.713 5.50293 10.4385C5.81302 10.164 6.28693 10.1929 6.56152 10.5029L6.71289 10.6738C7.16737 8.15515 9.38564 6.25 12.0439 6.25Z" fill="#1C274C"/>
</svg>
