<svg width="24" height="24" viewBox="0 0 24 24" fill="none" xmlns="http://www.w3.org/2000/svg">
<path d="M11.9883 1.25C17.9198 1.25 22.7266 6.06376 22.7266 12C22.7266 12.1346 22.7246 12.2689 22.7197 12.4023C22.7679 12.5667 22.7593 12.7464 22.6885 12.9102C22.2269 18.4205 17.6134 22.75 11.9883 22.75C6.05683 22.7499 1.25 17.9361 1.25 12C1.25 6.06383 6.05683 1.25012 11.9883 1.25ZM13.5195 15.7002C13.3855 15.733 13.246 15.75 13.1035 15.75H10.873C10.7409 15.75 10.6113 15.7354 10.4863 15.707L9.20996 17.332C9.33021 17.5031 9.43167 17.6892 9.52344 17.8867C9.71684 18.3029 9.89302 18.8326 10.1016 19.459L10.667 21.1562C11.0985 21.2182 11.5397 21.25 11.9883 21.25C12.5124 21.25 13.027 21.2061 13.5273 21.1221L14.0811 19.459C14.2897 18.8326 14.4658 18.3029 14.6592 17.8867C14.7461 17.6996 14.8419 17.5229 14.9541 17.3594L13.5195 15.7002ZM4.75098 17.75C5.82815 19.1073 7.27865 20.1542 8.94629 20.7363L8.69141 19.9717C8.46627 19.2955 8.31616 18.848 8.16309 18.5186C8.01819 18.2068 7.90179 18.0716 7.78223 17.9854C7.66266 17.8991 7.49751 17.831 7.15625 17.792C6.79583 17.7508 6.32428 17.75 5.6123 17.75H4.75098ZM18.5693 17.75C17.8573 17.75 17.3858 17.7508 17.0254 17.792C16.6845 17.831 16.5198 17.8991 16.4004 17.9854C16.2807 18.0716 16.1645 18.2068 16.0195 18.5186C15.8665 18.848 15.7163 19.2955 15.4912 19.9717L15.2646 20.6514C16.8339 20.0553 18.1991 19.0434 19.2256 17.75H18.5693ZM15.5635 11.8545C15.5515 11.9633 15.5292 12.0725 15.4961 12.1797L14.7744 14.5166C14.7493 14.5979 14.7184 14.6767 14.6826 14.752L16.1514 16.4502C16.3758 16.3752 16.6105 16.3299 16.8555 16.3018C17.3112 16.2498 17.8689 16.25 18.5283 16.25H20.1963C20.7142 15.2492 21.0548 14.1415 21.1768 12.9688L20.001 12.1914C19.4507 11.8277 18.9853 11.5204 18.6338 11.2256C18.4651 11.0843 18.3107 10.936 18.1758 10.7734L15.5635 11.8545ZM5.8623 10.7764C5.72793 10.9376 5.57473 11.0852 5.40723 11.2256C5.05567 11.5204 4.59035 11.8277 4.04004 12.1914L2.80469 13.0078C2.9312 14.1768 3.27479 15.2805 3.79492 16.2773C3.85937 16.2593 3.92784 16.25 3.99805 16.25H5.6543C6.31372 16.25 6.87147 16.2498 7.32715 16.3018C7.56181 16.3287 7.7871 16.3709 8.00293 16.4404L9.30762 14.7793C9.26608 14.6956 9.23035 14.608 9.20215 14.5166L8.48145 12.1797C8.44798 12.0713 8.42499 11.9607 8.41309 11.8506L5.8623 10.7764ZM11.9883 10.0088C11.9349 10.0088 11.8825 10.0255 11.8379 10.0596L10.001 11.4639C9.95886 11.4961 9.9292 11.5398 9.91406 11.5889C9.89941 11.6363 9.89879 11.6879 9.91406 11.7373L10.6357 14.0742C10.6511 14.1241 10.6809 14.1657 10.7197 14.1963C10.7629 14.2303 10.816 14.2499 10.873 14.25H13.1035C13.1606 14.25 13.2136 14.2304 13.2568 14.1963C13.2957 14.1657 13.3254 14.1242 13.3408 14.0742L14.0625 11.7373C14.0778 11.6879 14.0771 11.6363 14.0625 11.5889C14.0473 11.5398 14.0177 11.496 13.9756 11.4639L12.1396 10.0596C12.0949 10.0254 12.0417 10.0088 11.9883 10.0088ZM4.35742 6.78418C3.48002 8.06858 2.91805 9.58596 2.78223 11.2246L3.17773 10.9629C3.77203 10.5701 4.16516 10.3094 4.44336 10.0762C4.70665 9.85535 4.80694 9.70757 4.85938 9.56934C4.91181 9.43101 4.93453 9.25347 4.88379 8.91309C4.83021 8.55371 4.70966 8.09766 4.52539 7.40918L4.35742 6.78418ZM19.5156 7.40918C19.3313 8.09766 19.2108 8.55371 19.1572 8.91309C19.1065 9.25348 19.1292 9.43101 19.1816 9.56934C19.234 9.70759 19.3343 9.8554 19.5977 10.0762C19.8759 10.3095 20.2689 10.5701 20.8633 10.9629L21.1914 11.1797C21.0517 9.58688 20.5083 8.10965 19.665 6.85156L19.5156 7.40918ZM16.0898 3.83594L14.7363 4.79102C14.1973 5.17117 13.7413 5.49276 13.3389 5.71289C13.1418 5.82068 12.9433 5.91255 12.7383 5.97949V8.67773C12.847 8.72942 12.9523 8.79277 13.0508 8.86816L14.8867 10.2725C14.9524 10.3228 15.0144 10.3777 15.0713 10.4355L17.6318 9.375C17.6213 9.15063 17.6393 8.92388 17.6738 8.69238C17.7414 8.23839 17.8859 7.6993 18.0566 7.06152L18.4854 5.45996C18.4878 5.45057 18.4903 5.44085 18.4932 5.43164C17.818 4.76132 17.0396 4.19407 16.1846 3.75684C16.1557 3.78528 16.124 3.81182 16.0898 3.83594ZM7.87598 3.71484C7.00829 4.14748 6.21739 4.7124 5.53125 5.38379C5.54051 5.40798 5.5488 5.43342 5.55566 5.45898L5.98438 7.06152C6.1551 7.69929 6.29952 8.23838 6.36719 8.69238C6.40187 8.92522 6.42006 9.15324 6.40918 9.37891L8.90918 10.4316C8.96517 10.3751 9.02538 10.3217 9.08984 10.2725L10.9268 8.86816C11.0251 8.79288 11.1296 8.72938 11.2383 8.67773V5.96777C11.03 5.89597 10.8298 5.79803 10.6309 5.68359C10.2333 5.45484 9.78455 5.12415 9.25391 4.73242L7.87598 3.71484ZM11.9883 2.75C11.1405 2.75002 10.319 2.86394 9.53906 3.07812L10.1113 3.50098C10.6844 3.92396 11.0644 4.2028 11.3789 4.38379C11.6768 4.55516 11.8499 4.59802 11.9971 4.59961C12.1442 4.60112 12.318 4.56222 12.6191 4.39746C12.9375 4.2233 13.3232 3.9525 13.9053 3.54199L14.5264 3.10352C13.7199 2.87331 12.8684 2.75 11.9883 2.75Z" fill="#48465C"/>
</svg>
