<svg width="24" height="24" viewBox="0 0 24 24" fill="none" xmlns="http://www.w3.org/2000/svg">
<path d="M16.3711 2C18.9274 2 21 6.47715 21 12C21 17.5228 18.9274 22 16.3711 22H8.65723C9.52366 21.4385 10.3129 20.4506 10.8564 19.2764C11.7302 17.3885 12.2568 14.8154 12.2568 12C12.2568 9.18462 11.7302 6.61151 10.8564 4.72363C10.3129 3.5493 9.52366 2.56148 8.65723 2H16.3711ZM7.11426 2.5C8.06391 2.5 9.09488 3.35569 9.91797 5.13379C10.7194 6.86521 11.2285 9.29254 11.2285 12C11.2285 14.7075 10.7194 17.1348 9.91797 18.8662C9.09487 20.6443 8.06391 21.5 7.11426 21.5C6.1646 21.5 5.13363 20.6443 4.31055 18.8662C3.50915 17.1348 3 14.7075 3 12C3 9.29254 3.50915 6.86521 4.31055 5.13379C5.13363 3.35569 6.16461 2.50002 7.11426 2.5ZM7.11426 6C6.26217 6.00007 5.57129 8.68633 5.57129 12C5.57129 15.3137 6.26217 17.9999 7.11426 18C7.90104 18 8.5506 15.7097 8.64551 12.75H7.62891C7.20286 12.75 6.85742 12.4142 6.85742 12C6.85742 11.5858 7.20286 11.25 7.62891 11.25H8.64551C8.5506 8.29027 7.90104 6 7.11426 6Z" fill="#1C274C"/>
</svg>
