<svg width="24" height="24" viewBox="0 0 24 24" fill="none" xmlns="http://www.w3.org/2000/svg">
<path d="M16.6143 1.35693C16.9694 1.144 17.4305 1.25964 17.6436 1.61475C17.8563 1.96987 17.7408 2.43004 17.3857 2.64307L15.623 3.70068C16.6253 4.65679 17.25 6.00597 17.25 7.50049V7.79053C17.5065 7.92613 17.7491 8.08511 17.9746 8.26416C18.0434 8.19674 18.1266 8.14199 18.2217 8.104L20.2217 7.3042C20.6061 7.15041 21.0423 7.33684 21.1963 7.72119C21.3501 8.10578 21.1629 8.54294 20.7783 8.69678L19.0078 9.40479C19.4778 10.1351 19.75 11.0049 19.75 11.938V13.2505H22C22.4142 13.2505 22.75 13.5863 22.75 14.0005C22.7499 14.4146 22.4141 14.7505 22 14.7505H19.75V15.0005C19.75 16.2794 19.4403 17.4861 18.8916 18.5493L20.7783 19.3042C21.1629 19.458 21.35 19.8943 21.1963 20.2788C21.0424 20.6633 20.6061 20.8505 20.2217 20.6968L18.2217 19.897C18.168 19.8755 18.1178 19.8485 18.0723 19.8169C16.6526 21.6043 14.4599 22.7505 12 22.7505C9.54001 22.7505 7.34746 21.6043 5.92773 19.8169C5.88214 19.8485 5.832 19.8755 5.77832 19.897L3.77832 20.6968C3.39378 20.8505 2.95753 20.6633 2.80371 20.2788C2.65003 19.8943 2.83716 19.458 3.22168 19.3042L5.1084 18.5493C4.55973 17.4861 4.25004 16.2794 4.25 15.0005V14.7505H2C1.58586 14.7505 1.25012 14.4146 1.25 14.0005C1.25 13.5863 1.58579 13.2505 2 13.2505H4.25V11.938C4.25 11.0049 4.52229 10.1351 4.99219 9.40479L3.22168 8.69678C2.83709 8.54294 2.64988 8.10578 2.80371 7.72119C2.95766 7.33684 3.39386 7.15043 3.77832 7.3042L5.77832 8.104C5.8733 8.142 5.95667 8.19673 6.02539 8.26416C6.25094 8.08512 6.49348 7.92612 6.75 7.79053V7.50049C6.75 6.00597 7.37468 4.65679 8.37695 3.70068L6.61426 2.64307C6.25926 2.43003 6.1437 1.96986 6.35645 1.61475C6.56952 1.25963 7.03059 1.14398 7.38574 1.35693L9.73145 2.76416C10.4181 2.43467 11.1875 2.25049 12 2.25049C12.8125 2.25049 13.5819 2.43468 14.2686 2.76416L16.6143 1.35693ZM8.9375 8.75049C7.17709 8.75049 5.75 10.1776 5.75 11.938V15.0005C5.75011 18.1984 8.15191 20.8351 11.25 21.2056V15.0005C11.25 14.5863 11.5858 14.2505 12 14.2505C12.4142 14.2505 12.75 14.5863 12.75 15.0005V21.2056C15.8481 20.8351 18.2499 18.1984 18.25 15.0005V11.938C18.25 10.1776 16.8229 8.75049 15.0625 8.75049H8.9375ZM12 3.75049C9.99635 3.75049 8.3593 5.32168 8.25488 7.29932C8.47759 7.26685 8.70578 7.25049 8.9375 7.25049H15.0625C15.2942 7.25049 15.5224 7.26685 15.7451 7.29932C15.6407 5.32168 14.0036 3.75049 12 3.75049Z" fill="#48465C"/>
</svg>
