<svg width="24" height="24" viewBox="0 0 24 24" fill="none" xmlns="http://www.w3.org/2000/svg">
<path d="M15 1.25C15.4142 1.25 15.75 1.58579 15.75 2V4.00586C18.3859 4.03348 19.8538 4.19755 20.8281 5.17188C21.9997 6.34346 22 8.22878 22 12C22 15.7712 21.9997 17.6566 20.8281 18.8281C19.8538 19.8025 18.3859 19.9665 15.75 19.9941V22C15.75 22.4142 15.4142 22.75 15 22.75C14.5858 22.75 14.25 22.4142 14.25 22V2C14.25 1.58579 14.5858 1.25 15 1.25ZM13 4V20H10C6.22878 20 4.34346 19.9997 3.17188 18.8281C2.00031 17.6566 2 15.7712 2 12C2 8.22876 2.00031 6.34345 3.17188 5.17188C4.34345 4.00031 6.22876 4 10 4H13ZM8 11C7.44772 11 7 11.4477 7 12C7 12.5523 7.44772 13 8 13C8.55228 13 9 12.5523 9 12C9 11.4477 8.55228 11 8 11ZM12 11C11.4477 11 11 11.4477 11 12C11 12.5523 11.4477 13 12 13C12.5523 13 13 12.5523 13 12C13 11.4477 12.5523 11 12 11Z" fill="#1C274C"/>
</svg>
