<svg width="24" height="24" viewBox="0 0 24 24" fill="none" xmlns="http://www.w3.org/2000/svg">
<path d="M12.0001 1.25C12.4143 1.25004 12.7501 1.58582 12.7501 2V2.75H17.5382C18.2077 2.74998 18.7665 2.74991 19.2189 2.7959C19.6922 2.84407 20.1315 2.9493 20.5275 3.21387C20.8278 3.41451 21.0857 3.67239 21.2863 3.97266C21.5508 4.3686 21.656 4.80786 21.7042 5.28125C21.7502 5.73355 21.7501 6.29245 21.7501 6.96191V7.03809C21.7501 7.70755 21.7502 8.26645 21.7042 8.71875C21.656 9.19215 21.5508 9.63141 21.2863 10.0273C21.0857 10.3276 20.8278 10.5855 20.5275 10.7861C20.1315 11.0507 19.6922 11.156 19.2189 11.2041C18.7665 11.2501 18.2077 11.25 17.5382 11.25H12.7501V11.75H17.3937C17.9557 11.7495 18.3991 11.749 18.8165 11.8848C18.9993 11.9443 19.1755 12.0229 19.3419 12.1191C19.7218 12.3389 20.0177 12.6694 20.3927 13.0879L20.4825 13.1875C20.8873 13.6382 21.2266 14.0162 21.4738 14.3516C21.7336 14.7041 21.9357 15.0674 22.0157 15.5C22.0769 15.8306 22.0769 16.1694 22.0157 16.5C21.9357 16.9326 21.7336 17.2959 21.4738 17.6484C21.2267 17.9838 20.8874 18.3618 20.4825 18.8125L20.3927 18.9121C20.0177 19.3306 19.7218 19.6611 19.3419 19.8809C19.1755 19.9771 18.9993 20.0557 18.8165 20.1152C18.3991 20.251 17.9557 20.2505 17.3937 20.25H12.7501V21.25H14.0001C14.4143 21.25 14.7501 21.5858 14.7501 22C14.7501 22.4142 14.4143 22.75 14.0001 22.75H10.0001C9.58591 22.75 9.25012 22.4142 9.25012 22C9.25012 21.5858 9.58591 21.25 10.0001 21.25H11.2501V20.25H6.46204C5.79261 20.25 5.23365 20.2501 4.78137 20.2041C4.3079 20.156 3.8678 20.0507 3.4718 19.7861C3.17173 19.5856 2.91354 19.3275 2.71301 19.0273C2.44868 18.6315 2.34417 18.192 2.29602 17.7188C2.25004 17.2664 2.2501 16.7076 2.25012 16.0381V15.9619C2.2501 15.2924 2.25004 14.7336 2.29602 14.2812C2.34417 13.808 2.44868 13.3685 2.71301 12.9727C2.91354 12.6725 3.17173 12.4144 3.4718 12.2139C3.8678 11.9493 4.3079 11.844 4.78137 11.7959C5.23365 11.7499 5.79262 11.75 6.46204 11.75H11.2501V11.25H6.60657C6.04454 11.2505 5.60112 11.251 5.18372 11.1152C5.00088 11.0557 4.82477 10.9771 4.65833 10.8809C4.27837 10.6611 3.98175 10.3306 3.60657 9.91211L3.5177 9.8125C3.11295 9.36178 2.77361 8.98384 2.52649 8.64844C2.26674 8.29589 2.06355 7.93262 1.98352 7.5C1.92242 7.16951 1.92242 6.83049 1.98352 6.5C2.06355 6.06738 2.26674 5.70411 2.52649 5.35156C2.77361 5.01617 3.11295 4.63822 3.5177 4.1875L3.60657 4.08789C3.98176 3.66942 4.27837 3.33894 4.65833 3.11914C4.82478 3.0229 5.00088 2.94428 5.18372 2.88477C5.60112 2.74891 6.04454 2.74957 6.60657 2.75H11.2501V2C11.2501 1.58579 11.5859 1.25 12.0001 1.25ZM6.50012 13.25C5.78228 13.25 5.30014 13.2507 4.93274 13.2881C4.57798 13.3242 4.41423 13.3885 4.30579 13.4609C4.16931 13.5521 4.05225 13.6692 3.96106 13.8057C3.88861 13.9141 3.82431 14.0779 3.78821 14.4326C3.75084 14.8 3.75012 15.2822 3.75012 16C3.75012 16.7178 3.75084 17.2 3.78821 17.5674C3.82431 17.9221 3.88861 18.0859 3.96106 18.1943C4.05225 18.3308 4.16931 18.4479 4.30579 18.5391C4.41423 18.6115 4.57798 18.6758 4.93274 18.7119C5.30014 18.7493 5.78228 18.75 6.50012 18.75H17.296C18.002 18.75 18.1896 18.7412 18.3517 18.6885C18.4349 18.6614 18.5153 18.6258 18.5909 18.582C18.7385 18.4966 18.8701 18.3624 19.3419 17.8369C19.7771 17.3524 20.0678 17.0288 20.2667 16.7588C20.4578 16.4995 20.5188 16.3484 20.5411 16.2275C20.569 16.0772 20.569 15.9228 20.5411 15.7725C20.5188 15.6516 20.4578 15.5005 20.2667 15.2412C20.0678 14.9712 19.7771 14.6476 19.3419 14.1631C18.8701 13.6376 18.7385 13.5034 18.5909 13.418C18.5153 13.3742 18.4349 13.3386 18.3517 13.3115C18.1896 13.2588 18.002 13.25 17.296 13.25H6.50012ZM6.70422 4.25C5.99851 4.25 5.81063 4.25885 5.64856 4.31152C5.56544 4.33857 5.48497 4.37421 5.4093 4.41797C5.26169 4.50336 5.1302 4.63759 4.65833 5.16309C4.22315 5.64771 3.93242 5.97124 3.73352 6.24121C3.54242 6.50059 3.48152 6.65154 3.45911 6.77246C3.43131 6.92277 3.43131 7.07723 3.45911 7.22754C3.48152 7.34846 3.54242 7.49941 3.73352 7.75879C3.93242 8.02875 4.22316 8.35229 4.65833 8.83691C5.1302 9.3624 5.26169 9.49664 5.4093 9.58203C5.48497 9.62579 5.56544 9.66143 5.64856 9.68848C5.81063 9.74115 5.99851 9.75 6.70422 9.75H17.5001C18.2179 9.75 18.7001 9.74928 19.0675 9.71191C19.4221 9.67581 19.586 9.61151 19.6945 9.53906C19.8308 9.44787 19.948 9.3308 20.0392 9.19434C20.1117 9.0859 20.1759 8.92211 20.212 8.56738C20.2494 8.19998 20.2501 7.71784 20.2501 7C20.2501 6.28216 20.2494 5.80002 20.212 5.43262C20.1759 5.07789 20.1117 4.9141 20.0392 4.80566C19.948 4.6692 19.8308 4.55213 19.6945 4.46094C19.586 4.38849 19.4221 4.32419 19.0675 4.28809C18.7001 4.25072 18.2179 4.25 17.5001 4.25H6.70422Z" fill="#1C274C"/>
</svg>
