<svg width="24" height="24" viewBox="0 0 24 24" fill="none" xmlns="http://www.w3.org/2000/svg">
<path d="M12 1.25C12.4142 1.25004 12.75 1.58582 12.75 2V2.75H17.5381C18.2076 2.74998 18.7664 2.74991 19.2188 2.7959C19.6921 2.84407 20.1314 2.9493 20.5273 3.21387C20.8276 3.41451 21.0855 3.67239 21.2861 3.97266C21.5506 4.3686 21.6559 4.80786 21.7041 5.28125C21.7501 5.73355 21.75 6.29245 21.75 6.96191V7.03809C21.75 7.70755 21.7501 8.26645 21.7041 8.71875C21.6559 9.19215 21.5506 9.63141 21.2861 10.0273C21.0855 10.3276 20.8276 10.5855 20.5273 10.7861C20.1314 11.0507 19.6921 11.156 19.2188 11.2041C18.7664 11.2501 18.2076 11.25 17.5381 11.25H12.75V11.75H17.3936C17.9555 11.7495 18.399 11.749 18.8164 11.8848C18.9992 11.9443 19.1754 12.0229 19.3418 12.1191C19.7217 12.3389 20.0175 12.6694 20.3926 13.0879L20.4824 13.1875C20.8871 13.6382 21.2265 14.0162 21.4736 14.3516C21.7334 14.7041 21.9356 15.0674 22.0156 15.5C22.0768 15.8306 22.0768 16.1694 22.0156 16.5C21.9356 16.9326 21.7334 17.2959 21.4736 17.6484C21.2266 17.9838 20.8872 18.3618 20.4824 18.8125L20.3926 18.9121C20.0175 19.3306 19.7217 19.6611 19.3418 19.8809C19.1754 19.9771 18.9992 20.0557 18.8164 20.1152C18.399 20.251 17.9555 20.2505 17.3936 20.25H12.75V21.25H14C14.4142 21.25 14.75 21.5858 14.75 22C14.75 22.4142 14.4142 22.75 14 22.75H10C9.58579 22.75 9.25 22.4142 9.25 22C9.25 21.5858 9.58579 21.25 10 21.25H11.25V20.25H6.46191C5.79249 20.25 5.23352 20.2501 4.78125 20.2041C4.30778 20.156 3.86768 20.0507 3.47168 19.7861C3.17161 19.5856 2.91342 19.3275 2.71289 19.0273C2.44856 18.6315 2.34405 18.192 2.2959 17.7188C2.24991 17.2664 2.24998 16.7076 2.25 16.0381V15.9619C2.24998 15.2924 2.24991 14.7336 2.2959 14.2812C2.34405 13.808 2.44856 13.3685 2.71289 12.9727C2.91342 12.6725 3.17161 12.4144 3.47168 12.2139C3.86768 11.9493 4.30778 11.844 4.78125 11.7959C5.23352 11.7499 5.7925 11.75 6.46191 11.75H11.25V11.25H6.60645C6.04442 11.2505 5.60099 11.251 5.18359 11.1152C5.00076 11.0557 4.82465 10.9771 4.6582 10.8809C4.27824 10.6611 3.98163 10.3306 3.60645 9.91211L3.51758 9.8125C3.11283 9.36178 2.77349 8.98383 2.52637 8.64844C2.26662 8.29589 2.06343 7.93262 1.9834 7.5C1.9223 7.16951 1.9223 6.83049 1.9834 6.5C2.06343 6.06738 2.26662 5.70411 2.52637 5.35156C2.77349 5.01617 3.11283 4.63822 3.51758 4.1875L3.60645 4.08789C3.98164 3.66942 4.27824 3.33894 4.6582 3.11914C4.82465 3.0229 5.00076 2.94428 5.18359 2.88477C5.60099 2.74891 6.04442 2.74957 6.60645 2.75H11.25V2C11.25 1.58579 11.5858 1.25 12 1.25ZM6.5 13.25C5.78216 13.25 5.30002 13.2507 4.93262 13.2881C4.57786 13.3242 4.4141 13.3885 4.30566 13.4609C4.16919 13.5521 4.05213 13.6692 3.96094 13.8057C3.88849 13.9141 3.82419 14.0779 3.78809 14.4326C3.75072 14.8 3.75 15.2822 3.75 16C3.75 16.7178 3.75072 17.2 3.78809 17.5674C3.82419 17.9221 3.88849 18.0859 3.96094 18.1943C4.05213 18.3308 4.16919 18.4479 4.30566 18.5391C4.4141 18.6115 4.57786 18.6758 4.93262 18.7119C5.30002 18.7493 5.78216 18.75 6.5 18.75H17.2959C18.0019 18.75 18.1895 18.7412 18.3516 18.6885C18.4347 18.6614 18.5151 18.6258 18.5908 18.582C18.7384 18.4966 18.87 18.3624 19.3418 17.8369C19.7769 17.3524 20.0677 17.0288 20.2666 16.7588C20.4577 16.4995 20.5187 16.3484 20.541 16.2275C20.5689 16.0772 20.5689 15.9228 20.541 15.7725C20.5187 15.6516 20.4577 15.5005 20.2666 15.2412C20.0677 14.9712 19.7769 14.6476 19.3418 14.1631C18.87 13.6376 18.7384 13.5034 18.5908 13.418C18.5151 13.3742 18.4347 13.3386 18.3516 13.3115C18.1895 13.2588 18.0019 13.25 17.2959 13.25H6.5ZM15 15.25C15.4142 15.25 15.75 15.5858 15.75 16C15.75 16.4142 15.4142 16.75 15 16.75H9C8.58579 16.75 8.25 16.4142 8.25 16C8.25 15.5858 8.58579 15.25 9 15.25H15ZM6.7041 4.25C5.99839 4.25 5.81051 4.25885 5.64844 4.31152C5.56532 4.33857 5.48485 4.37421 5.40918 4.41797C5.26157 4.50336 5.13007 4.63759 4.6582 5.16309C4.22303 5.64771 3.9323 5.97124 3.7334 6.24121C3.5423 6.50059 3.48139 6.65154 3.45898 6.77246C3.43118 6.92277 3.43118 7.07723 3.45898 7.22754C3.48139 7.34846 3.5423 7.49941 3.7334 7.75879C3.93229 8.02875 4.22304 8.35229 4.6582 8.83691C5.13007 9.3624 5.26157 9.49664 5.40918 9.58203C5.48485 9.62579 5.56532 9.66143 5.64844 9.68848C5.81051 9.74115 5.99839 9.75 6.7041 9.75H17.5C18.2178 9.75 18.7 9.74928 19.0674 9.71191C19.422 9.67581 19.5859 9.61151 19.6943 9.53906C19.8307 9.44787 19.9479 9.3308 20.0391 9.19434C20.1115 9.0859 20.1758 8.92211 20.2119 8.56738C20.2493 8.19998 20.25 7.71784 20.25 7C20.25 6.28216 20.2493 5.80002 20.2119 5.43262C20.1758 5.07789 20.1115 4.9141 20.0391 4.80566C19.9479 4.6692 19.8307 4.55213 19.6943 4.46094C19.5859 4.38849 19.422 4.32419 19.0674 4.28809C18.7 4.25072 18.2178 4.25 17.5 4.25H6.7041ZM15 6.25C15.4142 6.25004 15.75 6.58582 15.75 7C15.75 7.41418 15.4142 7.74996 15 7.75H9C8.58579 7.75 8.25 7.41421 8.25 7C8.25 6.58579 8.58579 6.25 9 6.25H15Z" fill="#48465C"/>
</svg>
