<svg width="24" height="24" viewBox="0 0 24 24" fill="none" xmlns="http://www.w3.org/2000/svg">
<path d="M12 2C12.8114 2 13.5949 2.26825 15.1621 2.80469L15.7354 3.00098C18.7409 4.02979 20.2441 4.54434 20.6221 5.08203C20.9996 5.6199 21 7.21936 21 10.417V11.9912C21 17.6291 16.7612 20.3655 14.1016 21.5273C13.3802 21.8424 13.0193 22 12 22C10.9807 22 10.6199 21.8424 9.89844 21.5273C7.23883 20.3655 3 17.6291 3 11.9912V10.417C3 7.21936 3.00041 5.6199 3.37793 5.08203C3.75595 4.54434 5.25908 4.0298 8.26465 3.00098L8.83789 2.80469C10.4051 2.26824 11.1886 2 12 2ZM12 8.25C11.5858 8.25 11.25 8.58579 11.25 9V11.25H9C8.58579 11.25 8.25 11.5858 8.25 12C8.25 12.4142 8.58579 12.75 9 12.75H11.25V15C11.25 15.4142 11.5858 15.75 12 15.75C12.4142 15.75 12.75 15.4142 12.75 15V12.75H15C15.4142 12.75 15.75 12.4142 15.75 12C15.75 11.5858 15.4142 11.25 15 11.25H12.75V9C12.75 8.58579 12.4142 8.25 12 8.25Z" fill="#1C274C"/>
</svg>
