<svg width="24" height="24" viewBox="0 0 24 24" fill="none" xmlns="http://www.w3.org/2000/svg">
<path d="M16.0947 13.7278L15.0303 14.7922L13.1768 12.9387C12.8839 12.6458 12.409 12.6458 12.1162 12.9387C11.8234 13.2316 11.8233 13.7064 12.1162 13.9993L13.9697 15.8528L13.0303 16.7922L11.1768 14.9387C10.8839 14.6458 10.409 14.6458 10.1162 14.9387C9.82338 15.2316 9.82331 15.7064 10.1162 15.9993L11.9697 17.8528L10.5312 19.2913C10.0753 19.7473 9.84732 19.9757 9.57422 20.1204C9.39219 20.2168 9.19653 20.2851 8.99414 20.3235C8.69047 20.3811 8.36946 20.3459 7.72852 20.2747L7.25293 20.2209C7.07843 20.2016 6.99102 20.1922 6.90723 20.1897C6.39876 20.1749 5.90244 20.3488 5.51465 20.678C5.45069 20.7323 5.38894 20.7949 5.26465 20.9192L4.63574 21.5481C4.03285 22.151 3.05506 22.1509 2.45215 21.5481C1.84924 20.9452 1.84925 19.9674 2.45215 19.3645L3.08105 18.7356C3.20534 18.6113 3.26797 18.5496 3.32227 18.4856C3.65147 18.0978 3.82536 17.6014 3.81055 17.093C3.8081 17.0091 3.79776 16.9212 3.77832 16.7463L3.72559 16.2717C3.65438 15.6308 3.61917 15.3097 3.67676 15.0061C3.71517 14.8037 3.78343 14.6081 3.87988 14.426C4.02461 14.1529 4.253 13.925 4.70898 13.469L10.2725 7.90552L16.0947 13.7278ZM14.9717 3.2063C16.5794 1.59853 19.1862 1.59853 20.7939 3.2063C22.4016 4.81409 22.4017 7.42083 20.7939 9.02856L19.3389 10.4836L20.4307 11.5754C21.0334 12.1783 21.0335 13.1562 20.4307 13.759C19.8278 14.3619 18.85 14.3617 18.2471 13.759L10.2412 5.75317C9.63825 5.15026 9.63824 4.17249 10.2412 3.56958C10.8441 2.96669 11.8219 2.96667 12.4248 3.56958L13.5166 4.66138L14.9717 3.2063Z" fill="#48465C"/>
</svg>
