<svg width="24" height="24" viewBox="0 0 24 24" fill="none" xmlns="http://www.w3.org/2000/svg">
<path d="M10.7607 2.27246C8.90634 4.1269 8.18917 6.68568 8.60254 9.08105L5.94727 11.7363C5.25276 12.4309 4.91111 13.4037 5.01953 14.3799L5.21289 16.1201C5.28366 16.757 5.56932 17.3516 6.02246 17.8047L6.19629 17.9775C6.64941 18.4307 7.24302 18.7163 7.87988 18.7871L9.62012 18.9805C10.5962 19.089 11.5691 18.7481 12.2637 18.0537L14.9189 15.3975C17.3143 15.811 19.874 15.0947 21.7285 13.2402C21.8216 13.1471 21.9116 13.0517 21.999 12.9551C21.9923 17.0397 21.8973 19.174 20.5352 20.5361C19.0707 22.0004 16.7137 22.001 12 22.001C7.28622 22.001 4.92932 22.0004 3.46484 20.5361C2.00042 19.0717 2 16.7147 2 12.001C2 7.28691 2.00037 4.92931 3.46484 3.46484C4.82688 2.10304 6.96082 2.00763 11.0449 2.00098C10.9483 2.08838 10.8539 2.17933 10.7607 2.27246ZM15.5879 2.03809C16.4946 2.07141 17.2688 2.13463 17.9365 2.25391C18.8066 2.52064 19.6261 2.99818 20.3145 3.68652C21.0028 4.37492 21.4804 5.19433 21.7471 6.06445C21.8664 6.73216 21.9296 7.5063 21.9629 8.41309C21.8205 9.66015 21.2709 10.8697 20.3145 11.8262C18.822 13.3186 16.7138 13.8195 14.8076 13.3301C14.5002 13.2512 14.1678 13.3214 13.9434 13.5459L12.4141 15.0752L12.4111 15.0723L10.9531 13.6309C10.6586 13.3397 10.1838 13.3423 9.89258 13.6367C9.60134 13.9312 9.60406 14.406 9.89844 14.6973L11.3525 16.1357L10.8496 16.6396C10.5848 16.9045 10.214 17.0344 9.8418 16.9932L8.10059 16.7998C7.91513 16.7792 7.74231 16.6955 7.61035 16.5635L7.43652 16.3906C7.30452 16.2586 7.22179 16.085 7.20117 15.8994L7.00781 14.1592C6.9665 13.787 7.09652 13.4163 7.36133 13.1514L10.4551 10.0576C10.6793 9.83321 10.7488 9.50071 10.6699 9.19336C10.1804 7.28716 10.6823 5.17896 12.1748 3.68652C13.1313 2.73 14.3408 2.18048 15.5879 2.03809ZM17.3447 6.65527C16.6939 6.00489 15.639 6.00476 14.9883 6.65527C14.3374 7.30614 14.3374 8.36183 14.9883 9.0127C15.639 9.66342 16.6938 9.66329 17.3447 9.0127C17.9956 8.36183 17.9956 7.30614 17.3447 6.65527Z" fill="#1C274C"/>
</svg>
