<svg width="24" height="24" viewBox="0 0 24 24" fill="none" xmlns="http://www.w3.org/2000/svg">
<path d="M15.0547 1.25C16.4222 1.24998 17.5246 1.24968 18.3916 1.36621C19.2917 1.48723 20.0494 1.74673 20.6514 2.34863C21.2533 2.95055 21.5128 3.70829 21.6338 4.6084C21.7503 5.47534 21.75 6.57782 21.75 7.94531V16.0547C21.75 17.4222 21.7503 18.5246 21.6338 19.3916C21.5128 20.2917 21.2533 21.0494 20.6514 21.6514C20.0494 22.2533 19.2917 22.5128 18.3916 22.6338C17.5246 22.7503 16.4222 22.75 15.0547 22.75H13.9453C12.5778 22.75 11.4753 22.7503 10.6084 22.6338C9.70824 22.5128 8.95055 22.2533 8.34863 21.6514C7.9489 21.2515 7.70022 20.7833 7.54297 20.25C6.59183 20.2488 5.7993 20.2376 5.15723 20.1514C4.39328 20.0487 3.73084 19.8266 3.20215 19.2979C2.67345 18.7692 2.45134 18.1068 2.34863 17.3428C2.25041 16.612 2.24998 15.6864 2.25 14.5537V9.44629C2.24998 8.31362 2.25041 7.38803 2.34863 6.65723C2.45134 5.89328 2.67345 5.23085 3.20215 4.70215C3.73084 4.17346 4.39328 3.95134 5.15723 3.84863C5.7993 3.76234 6.59183 3.75125 7.54297 3.75C7.70022 3.21668 7.94888 2.74839 8.34863 2.34863C8.95055 1.74671 9.70824 1.48723 10.6084 1.36621C11.4753 1.24967 12.5778 1.24998 13.9453 1.25H15.0547ZM14 2.75C12.5646 2.75 11.563 2.75196 10.8076 2.85352C10.0742 2.95218 9.68588 3.13249 9.40918 3.40918C9.13242 3.68594 8.95217 4.07482 8.85352 4.80859C8.75202 5.5639 8.75 6.56485 8.75 8C8.75 8.41422 8.41422 8.75 8 8.75C7.58579 8.75 7.25 8.41422 7.25 8V7.94531C7.24999 6.89544 7.25 6.00172 7.30273 5.25098C6.46831 5.25422 5.84766 5.26892 5.35645 5.33496C4.75904 5.41532 4.4662 5.55919 4.2627 5.7627C4.05919 5.9662 3.91532 6.25905 3.83496 6.85645C3.75172 7.47563 3.75 8.30029 3.75 9.5V14.5C3.75 15.6997 3.75172 16.5245 3.83496 17.1436C3.91532 17.741 4.0592 18.0338 4.2627 18.2373C4.4662 18.4409 4.75906 18.5846 5.35645 18.665C5.84766 18.731 6.46831 18.7458 7.30273 18.749C7.25 17.9982 7.24999 17.1046 7.25 16.0547V16C7.25 15.5858 7.58579 15.25 8 15.25C8.41422 15.25 8.75 15.5858 8.75 16C8.75 17.4354 8.75197 18.437 8.85352 19.1924C8.95218 19.9258 9.13249 20.3141 9.40918 20.5908C9.68588 20.8676 10.0742 21.0478 10.8076 21.1465C11.563 21.248 12.5646 21.25 14 21.25H15C16.4354 21.25 17.437 21.248 18.1924 21.1465C18.9258 21.0478 19.3141 20.8676 19.5908 20.5908C19.8676 20.3141 20.0478 19.9258 20.1465 19.1924C20.248 18.437 20.25 17.4354 20.25 16V8C20.25 6.56485 20.2479 5.5639 20.1465 4.80859C20.0478 4.07482 19.8676 3.68594 19.5908 3.40918C19.3141 3.13249 18.9258 2.95218 18.1924 2.85352C17.437 2.75196 16.4354 2.75 15 2.75H14ZM11.9697 8.96973C12.2626 8.67684 12.7374 8.67684 13.0303 8.96973L15.5303 11.4697C15.8232 11.7626 15.8232 12.2374 15.5303 12.5303L13.0303 15.0303C12.7374 15.3232 12.2626 15.3232 11.9697 15.0303C11.6768 14.7374 11.6768 14.2626 11.9697 13.9697L13.1895 12.75H6C5.58579 12.75 5.25 12.4142 5.25 12C5.25 11.5858 5.58579 11.25 6 11.25H13.1895L11.9697 10.0303C11.6768 9.73742 11.6768 9.26262 11.9697 8.96973Z" fill="#48465C"/>
</svg>
