<svg width="24" height="24" viewBox="0 0 24 24" fill="none" xmlns="http://www.w3.org/2000/svg">
<path d="M16.691 14.79L15.5377 15.9434L12.5699 12.9756C12.2687 12.6743 11.7803 12.6743 11.4791 12.9756C11.1779 13.2768 11.1779 13.7652 11.4791 14.0664L14.4469 17.0342L13.8541 17.626L12.1617 15.9326C11.8606 15.6317 11.3722 15.6319 11.0709 15.9326C10.7697 16.2339 10.7697 16.7231 11.0709 17.0244L12.692 18.6455C10.8463 19.8797 8.39526 19.8277 6.60022 18.4902L4.31702 20.7744C4.01585 21.0755 3.52746 21.0753 3.2262 20.7744C2.92497 20.4731 2.92503 19.9848 3.2262 19.6836L5.5094 17.3994C3.96658 15.3283 4.13514 12.3843 6.01526 10.5039L9.21057 7.30957L16.691 14.79ZM16.691 3.22656C16.9922 2.92529 17.4807 2.92529 17.7819 3.22656L20.774 6.21875C21.075 6.52003 21.0752 7.00837 20.774 7.30957C20.4728 7.61062 19.9845 7.61057 19.6832 7.30957L18.7321 6.3584L17.0338 8.05762L17.901 8.9248C18.6761 9.69993 19.0638 10.0876 19.2242 10.5283C19.3943 10.9958 19.3943 11.5082 19.2242 11.9756C19.0638 12.4164 18.6762 12.8039 17.901 13.5791L17.7819 13.6992L10.3014 6.21875L10.4205 6.09863C11.1956 5.32353 11.5833 4.93587 12.024 4.77539C12.4913 4.60531 13.0039 4.60539 13.4713 4.77539C13.912 4.9358 14.2998 5.32359 15.0748 6.09863L15.943 6.9668L17.6412 5.26758L16.691 4.31738C16.3898 4.01617 16.3899 3.52784 16.691 3.22656Z" fill="#48465C"/>
</svg>
