<svg width="24" height="24" viewBox="0 0 24 24" fill="none" xmlns="http://www.w3.org/2000/svg">
<path d="M12 8C16.4183 8 20 11.5817 20 16V21.25H22C22.4142 21.25 22.75 21.5858 22.75 22C22.75 22.4142 22.4142 22.75 22 22.75H2C1.58579 22.75 1.25 22.4142 1.25 22C1.25 21.5858 1.58579 21.25 2 21.25H4V16C4 11.5817 7.58172 8 12 8ZM12 16C11.1716 16 10.5 16.6716 10.5 17.5C10.5 18.0551 10.8017 18.5395 11.25 18.7988V21.25H12.75V18.7988C13.1983 18.5395 13.5 18.0551 13.5 17.5C13.5 16.6716 12.8284 16 12 16ZM14.5723 10.8047C14.1884 10.6493 13.7511 10.8348 13.5957 11.2188C13.4403 11.6026 13.625 12.0398 14.0088 12.1953C14.8231 12.525 15.4749 13.1759 15.8047 13.9902C15.9601 14.3741 16.3972 14.5598 16.7812 14.4043C17.1651 14.2489 17.3507 13.8117 17.1953 13.4277C16.7132 12.2369 15.7631 11.2868 14.5723 10.8047ZM2.46973 5.46973C2.76262 5.17684 3.23738 5.17684 3.53027 5.46973L5.03027 6.96973C5.32316 7.26262 5.32316 7.73738 5.03027 8.03027C4.73738 8.32316 4.26262 8.32316 3.96973 8.03027L2.46973 6.53027C2.17684 6.23738 2.17684 5.76262 2.46973 5.46973ZM20.4697 5.46973C20.7626 5.17684 21.2374 5.17684 21.5303 5.46973C21.8232 5.76261 21.8232 6.23739 21.5303 6.53027L20.0303 8.03027C19.7374 8.32316 19.2626 8.32316 18.9697 8.03027C18.6768 7.73739 18.6769 7.26261 18.9697 6.96973L20.4697 5.46973ZM12 1.25C12.4142 1.25 12.75 1.58579 12.75 2V5C12.75 5.41421 12.4142 5.75 12 5.75C11.5858 5.75 11.25 5.41421 11.25 5V2C11.25 1.58579 11.5858 1.25 12 1.25Z" fill="#1C274C"/>
</svg>
