<svg width="24" height="24" viewBox="0 0 24 24" fill="none" xmlns="http://www.w3.org/2000/svg">
<path d="M22 12C22 12.4858 21.8311 12.9459 21.5537 13.3389C21.5148 13.3939 21.4737 13.4476 21.4307 13.5C21.3715 13.5721 21.3085 13.6416 21.2422 13.708L13.708 21.2422C13.6416 21.3085 13.5721 21.3715 13.5 21.4307C13.4476 21.4737 13.3939 21.5148 13.3389 21.5537C12.9459 21.8311 12.4858 22 12 22C12 21.4484 11.9999 20.9513 12.0029 20.5C12.0152 18.6665 12.0775 17.5893 12.3926 16.6885C13.0962 14.6778 14.6778 13.0962 16.6885 12.3926C17.5893 12.0775 18.6665 12.0152 20.5 12.0029C20.9513 11.9999 21.4484 12 22 12ZM12 2C17.013 2 21.165 5.68873 21.8887 10.5H21.6855C19.1963 10.4992 17.5595 10.4982 16.1924 10.9766C13.7508 11.8309 11.8309 13.7508 10.9766 16.1924C10.4982 17.5595 10.4992 19.1963 10.5 21.6855V21.8887C5.68873 21.165 2 17.013 2 12C2 6.47715 6.47715 2 12 2Z" fill="#1C274C"/>
</svg>
