<svg width="24" height="24" viewBox="0 0 24 24" fill="none" xmlns="http://www.w3.org/2000/svg">
<path d="M11.9404 1.25C12.7991 1.25618 13.6304 1.55662 14.2939 2.10156L14.2969 2.10449L14.332 2.13379L14.4023 2.19141C14.6589 2.39859 14.9482 2.5409 15.25 2.61914V2C15.25 1.58579 15.5858 1.25 16 1.25C16.4142 1.25 16.75 1.58579 16.75 2V2.48926C16.9784 2.3851 17.1923 2.24037 17.3818 2.05664C17.3932 2.04562 17.4077 2.03173 17.4473 1.99219L17.9697 1.46973C18.2626 1.17684 18.7374 1.17684 19.0303 1.46973C19.3232 1.76262 19.3232 2.23739 19.0303 2.53027L18.4268 3.13379C17.9439 3.60198 17.3633 3.91584 16.75 4.07324V5.25H18.0518C18.9503 5.24997 19.7001 5.25012 20.2949 5.33008C20.9225 5.41452 21.489 5.6003 21.9443 6.05566C22.3997 6.51102 22.5855 7.07748 22.6699 7.70508C22.7499 8.29986 22.75 9.04977 22.75 9.94824V16.5068C22.75 17.3749 22.384 18.2027 21.7422 18.7871C20.3128 20.0882 18.5515 20.8183 16.75 20.9766V22C16.75 22.4142 16.4142 22.75 16 22.75C15.5858 22.75 15.25 22.4142 15.25 22V20.9766C13.4485 20.8183 11.6872 20.0882 10.2578 18.7871C9.61597 18.2027 9.25 17.3749 9.25 16.5068V9.94824C9.24997 9.04975 9.25012 8.29986 9.33008 7.70508C9.41452 7.07748 9.60028 6.51102 10.0557 6.05566C10.511 5.6003 11.0775 5.41452 11.7051 5.33008C12.2999 5.25012 13.0497 5.24997 13.9482 5.25H15.25V4.14844C14.6125 4.05144 13.9931 3.78904 13.46 3.3584C13.4377 3.34037 13.4126 3.31974 13.377 3.29004L13.373 3.28711L13.3418 3.26074L13.3398 3.25977C12.9425 2.93413 12.4454 2.75413 11.9316 2.75H8L4.80859 2.85352C4.07482 2.95217 3.68595 3.13242 3.40918 3.40918C3.13242 3.68595 2.95217 4.07482 2.85352 4.80859C2.75202 5.5639 2.75 6.56485 2.75 8V22.25C2.75 22.6642 2.41422 23 2 23C1.58579 23 1.25 22.6642 1.25 22.25V7.94531C1.24998 6.57784 1.24968 5.47533 1.36621 4.6084C1.48722 3.70829 1.74672 2.95055 2.34863 2.34863C2.95055 1.74672 3.70829 1.48722 4.6084 1.36621C5.47533 1.24968 6.57784 1.24998 7.94531 1.25H11.9404ZM14 6.75C13.036 6.75 12.3883 6.75146 11.9053 6.81641C11.4439 6.87845 11.2465 6.98591 11.1162 7.11621C10.9859 7.24651 10.8785 7.44389 10.8164 7.90527C10.7515 8.38831 10.75 9.03599 10.75 10V16.5068C10.75 16.9527 10.9379 17.3785 11.2676 17.6787C13.95 20.1201 18.0501 20.1201 20.7324 17.6787C21.0621 17.3785 21.25 16.9527 21.25 16.5068V10C21.25 9.03599 21.2485 8.38831 21.1836 7.90527C21.1215 7.44389 21.0141 7.24651 20.8838 7.11621C20.7535 6.98591 20.5561 6.87845 20.0947 6.81641C19.6117 6.75146 18.964 6.75 18 6.75H14ZM18 15.25C18.4142 15.25 18.75 15.5858 18.75 16C18.75 16.4142 18.4142 16.75 18 16.75H14C13.5858 16.75 13.25 16.4142 13.25 16C13.25 15.5858 13.5858 15.25 14 15.25H18ZM14.8252 8.60156C15.468 7.92351 16.532 7.92351 17.1748 8.60156C17.4823 8.92602 17.8581 9.35641 18.1611 9.81543C18.4455 10.2463 18.75 10.8246 18.75 11.417C18.7498 12.9524 17.5472 14.25 16 14.25C14.4528 14.25 13.2502 12.9524 13.25 11.417C13.25 10.8246 13.5545 10.2463 13.8389 9.81543C14.1419 9.35641 14.5177 8.92602 14.8252 8.60156ZM16 9.59277C15.9734 9.59277 15.9424 9.60194 15.9131 9.63281C15.6345 9.92674 15.3257 10.2867 15.0908 10.6426C14.8374 11.0265 14.75 11.2894 14.75 11.417C14.7502 12.1823 15.3383 12.75 16 12.75C16.6617 12.75 17.2498 12.1823 17.25 11.417C17.25 11.2894 17.1626 11.0265 16.9092 10.6426C16.6743 10.2867 16.3655 9.92674 16.0869 9.63281C16.0576 9.60194 16.0266 9.59277 16 9.59277Z" fill="#1C274C"/>
</svg>
