<svg width="24" height="24" viewBox="0 0 24 24" fill="none" xmlns="http://www.w3.org/2000/svg">
<path d="M12.0001 1.25C14.0712 1.25006 15.7501 2.92897 15.7501 5V5.27539C16.4084 5.29577 16.9946 5.33288 17.5148 5.39844C18.716 5.54985 19.6885 5.86809 20.4396 6.60156C20.6902 6.8463 20.9128 7.11839 21.1036 7.41211C21.6757 8.29243 21.7981 9.30822 21.7111 10.5156C21.6259 11.6974 21.3288 13.1816 20.9523 15.0645L20.9327 15.1602C20.6715 16.4669 20.4635 17.5071 20.2062 18.3252C19.9411 19.1678 19.6025 19.8494 19.0363 20.4014C18.8416 20.5912 18.6307 20.7643 18.4064 20.918C17.7541 21.3651 17.019 21.5635 16.1407 21.6582C15.288 21.7501 14.2273 21.75 12.8947 21.75H11.1056C9.77302 21.75 8.71219 21.7501 7.8595 21.6582C6.98114 21.5635 6.24616 21.3651 5.59387 20.918C5.36952 20.7643 5.15877 20.5912 4.96399 20.4014C4.39776 19.8494 4.05913 19.1678 3.79407 18.3252C3.53674 17.5071 3.32885 16.4669 3.0675 15.1602L3.04797 15.0654C2.67133 13.1823 2.37442 11.6976 2.28918 10.5156C2.20214 9.30822 2.32463 8.29243 2.89661 7.41211C3.08745 7.11841 3.31009 6.84628 3.56067 6.60156C4.31177 5.86812 5.28434 5.54985 6.48547 5.39844C7.00558 5.33289 7.59185 5.29577 8.25012 5.27539V5C8.25012 2.92893 9.92905 1.25 12.0001 1.25ZM11.1486 6.75C9.16237 6.75 7.74385 6.75174 6.67297 6.88672C5.61671 7.01986 5.02296 7.27008 4.60852 7.6748C4.43706 7.84226 4.285 8.02852 4.15442 8.22949C3.83879 8.71526 3.70869 9.34632 3.78528 10.4082C3.86294 11.4848 4.13989 12.8766 4.52942 14.8242C4.80118 16.183 4.99446 17.1439 5.22473 17.876C5.45001 18.592 5.68989 19.0142 6.01086 19.3271C6.14404 19.4569 6.28814 19.5754 6.44153 19.6807C6.81139 19.9342 7.27301 20.0866 8.01965 20.167C8.78271 20.2493 9.7627 20.25 11.1486 20.25H12.8517C14.2375 20.25 15.2176 20.2493 15.9806 20.167C16.7271 20.0866 17.188 19.934 17.5577 19.6807C17.7113 19.5754 17.8561 19.4569 17.9894 19.3271C18.3103 19.0142 18.5502 18.592 18.7755 17.876C19.0058 17.1439 19.1991 16.1829 19.4708 14.8242C19.8603 12.8766 20.1373 11.4848 20.215 10.4082C20.2916 9.34633 20.1614 8.71526 19.8458 8.22949C19.7152 8.0285 19.5632 7.84227 19.3917 7.6748C18.9773 7.27004 18.3837 7.01987 17.3273 6.88672C16.2564 6.75172 14.8379 6.75 12.8517 6.75H11.1486ZM9.00012 9C9.55235 9.00006 10.0001 9.44775 10.0001 10C10.0001 10.5523 9.55235 10.9999 9.00012 11C8.44783 11 8.00012 10.5523 8.00012 10C8.00012 9.44771 8.44783 9 9.00012 9ZM15.0001 9C15.5524 9.00006 16.0001 9.44775 16.0001 10C16.0001 10.5523 15.5524 10.9999 15.0001 11C14.4478 11 14.0001 10.5523 14.0001 10C14.0001 9.44771 14.4478 9 15.0001 9ZM12.0001 2.75C10.7575 2.75 9.75012 3.75736 9.75012 5V5.25195C10.1744 5.24974 10.6224 5.25 11.0948 5.25H12.9054C13.3779 5.25 13.8259 5.24974 14.2501 5.25195V5C14.2501 3.7574 13.2427 2.75006 12.0001 2.75Z" fill="#1C274C"/>
</svg>
