<svg width="24" height="24" viewBox="0 0 24 24" fill="none" xmlns="http://www.w3.org/2000/svg">
<path d="M15 4C16.8856 4 17.8283 4.00015 18.4141 4.58594C18.9999 5.17172 19 6.11439 19 8V15.8828C19 16.6435 18.6807 17.3694 18.1201 17.8838C16.5865 19.291 14.6891 20.0748 12.75 20.2354V21.25C12.75 21.6642 12.4142 22 12 22C11.5858 22 11.25 21.6642 11.25 21.25V20.2354C9.3109 20.0748 7.41349 19.291 5.87988 17.8838C5.31935 17.3694 5 16.6435 5 15.8828V8C5 6.11438 5.00015 5.17172 5.58594 4.58594C6.17172 4.00015 7.11438 4 9 4H15ZM10 15.25C9.58579 15.25 9.25 15.5858 9.25 16C9.25 16.4142 9.58579 16.75 10 16.75H14C14.4142 16.75 14.75 16.4142 14.75 16C14.75 15.5858 14.4142 15.25 14 15.25H10ZM12.6309 8.61719C12.2839 8.25121 11.7161 8.25121 11.3691 8.61719C10.783 9.23565 10 10.1971 10 10.917C10.0002 12.0674 10.8955 13 12 13C13.1045 13 13.9998 12.0674 14 10.917C14 10.1971 13.217 9.23565 12.6309 8.61719ZM12 2C12.7403 2 13.3865 2.40222 13.7324 3H10.2676C10.6134 2.4022 11.2597 2 12 2Z" fill="#1C274C"/>
</svg>
