<svg width="24" height="24" viewBox="0 0 24 24" fill="none" xmlns="http://www.w3.org/2000/svg">
<path d="M12.0002 3.25C14.2201 3.25005 16.2467 4.07711 17.7893 5.43945C18.1653 5.37202 18.5272 5.32171 18.8713 5.29004C19.2836 5.25208 19.6487 5.55546 19.6868 5.96777C19.7243 6.37497 19.4291 6.73654 19.0247 6.78223C19.6741 7.65522 20.1645 8.65375 20.4534 9.73438C20.546 9.77064 20.6332 9.82589 20.7083 9.90039C21.002 10.1923 21.0039 10.667 20.7122 10.9609L20.6917 10.9814C20.7303 11.3156 20.7502 11.6555 20.7502 12C20.7502 16.8324 16.8326 20.7499 12.0002 20.75C9.74485 20.75 7.68851 19.8965 6.13696 18.4951C5.95855 18.334 5.78692 18.1655 5.62231 17.9902C4.77285 17.0861 4.11284 16.0015 3.70728 14.7998C3.66591 14.8494 3.62599 14.8986 3.58716 14.9473C3.32874 15.2707 2.85705 15.3236 2.53345 15.0654C2.20982 14.8069 2.15675 14.3344 2.41528 14.0107C2.67622 13.6842 2.97696 13.3513 3.31177 13.0156C3.27326 12.6824 3.25024 12.3435 3.25024 12C3.25024 7.16751 7.16774 3.25 12.0002 3.25ZM12.0002 4.75C7.99617 4.75 4.75024 7.99594 4.75024 12C4.75024 13.9047 5.48457 15.6379 6.68579 16.9316C7.55973 16.7299 8.52809 16.4337 9.55591 16.0479C9.94355 15.9023 10.376 16.0988 10.5217 16.4863C10.6673 16.8741 10.4709 17.3065 10.0833 17.4521C9.57156 17.6442 9.07034 17.8173 8.58325 17.9688L8.10083 18.1133L8.31372 18.2441C9.39385 18.8832 10.6543 19.25 12.0002 19.25C15.9101 19.2499 19.0966 16.1548 19.2444 12.2812C18.829 12.6199 18.3828 12.9597 17.9094 13.2969C17.5722 13.5372 17.1038 13.4582 16.8635 13.1211C16.6231 12.7837 16.702 12.3155 17.0393 12.0752C17.8136 11.5235 18.4991 10.9733 19.0823 10.4434C18.3699 7.18747 15.4699 4.75009 12.0002 4.75ZM1.38599 15.7939C1.51188 15.3996 1.93382 15.1819 2.32837 15.3076C2.72287 15.4334 2.94043 15.8554 2.8147 16.25C2.7048 16.595 2.75718 16.7595 2.80688 16.8389C2.88398 16.9621 3.13806 17.1621 3.83228 17.2285C4.24456 17.268 4.54651 17.6345 4.50708 18.0469C4.46763 18.4591 4.10188 18.7609 3.6897 18.7217C2.84229 18.6406 1.98832 18.3584 1.5354 17.6348C1.17405 17.0573 1.19429 16.3955 1.38599 15.7939ZM14.9807 13.416C15.3361 13.2036 15.7964 13.3196 16.009 13.6748C16.2216 14.0303 16.1057 14.4915 15.7502 14.7041C15.2475 15.0046 14.7244 15.2999 14.1838 15.5879C13.6281 15.884 13.0743 16.1617 12.5266 16.4189C12.1517 16.595 11.7047 16.4335 11.5286 16.0586C11.3526 15.6837 11.5141 15.2376 11.8889 15.0615C12.4137 14.815 12.9445 14.5487 13.4778 14.2646C13.9971 13.988 14.4992 13.704 14.9807 13.416ZM20.0344 5.93555C20.1301 5.53271 20.5338 5.28353 20.9368 5.37891C21.5416 5.52217 22.1209 5.81525 22.4651 6.36523C22.9424 7.12815 22.7567 8.01928 22.3792 8.77734C22.1945 9.1481 21.744 9.29895 21.3733 9.11426C21.0029 8.92953 20.852 8.47996 21.0364 8.10938C21.3261 7.52762 21.257 7.26252 21.1936 7.16113C21.1372 7.07096 20.9851 6.9322 20.5911 6.83887C20.188 6.74339 19.939 6.3386 20.0344 5.93555Z" fill="#1C274C"/>
</svg>
