<svg width="24" height="24" viewBox="0 0 24 24" fill="none" xmlns="http://www.w3.org/2000/svg">
<path d="M15.0146 10.75C14.9996 10.9893 15 11.2798 15 11.6572V19C15 19.9319 14.9999 20.398 14.8477 20.7656C14.6447 21.2554 14.2554 21.6447 13.7656 21.8477C13.398 21.9999 12.9319 22 12 22C11.0681 22 10.602 21.9999 10.2344 21.8477C9.74455 21.6447 9.35532 21.2554 9.15234 20.7656C9.0001 20.398 9 19.9319 9 19V11.6572C9 11.2798 9.00032 10.9893 8.98535 10.75H15.0146ZM12 12.25C11.5858 12.25 11.25 12.5858 11.25 13V15C11.25 15.4142 11.5858 15.75 12 15.75C12.4142 15.75 12.75 15.4142 12.75 15V13C12.75 12.5858 12.4142 12.25 12 12.25ZM16.1719 8.82812C16.0097 8.99026 15.87 9.13011 15.75 9.25488V9.25H8.25V9.25488C8.12999 9.13012 7.99024 8.99024 7.82812 8.82812L4.75 5.75H19.25L16.1719 8.82812ZM18 2C18.9428 2 19.4141 2.00008 19.707 2.29297C19.9999 2.58587 20 3.0572 20 4V4.25H4V4C4 3.05719 4.00008 2.58587 4.29297 2.29297C4.58587 2.00008 5.05719 2 6 2H18Z" fill="#1C274C"/>
</svg>
