<svg width="24" height="24" viewBox="0 0 24 24" fill="none" xmlns="http://www.w3.org/2000/svg">
<path d="M12 1.25C17.9371 1.25 22.75 6.06294 22.75 12C22.75 17.9371 17.9371 22.75 12 22.75C6.06294 22.75 1.25 17.9371 1.25 12C1.25 7.59065 3.90507 3.80269 7.7002 2.14453C8.07965 1.97907 8.52174 2.15282 8.6875 2.53223C8.85302 2.91169 8.67922 3.35375 8.2998 3.51953C5.03156 4.94771 2.75 8.20826 2.75 12C2.75 17.1086 6.89137 21.25 12 21.25C17.1086 21.25 21.25 17.1086 21.25 12C21.25 7.46598 17.9879 3.69354 13.6826 2.90234L14.5859 4.03125C14.8446 4.3547 14.7922 4.82718 14.4688 5.08594C14.1454 5.34469 13.6729 5.29218 13.4141 4.96875L11.4141 2.46875C11.234 2.24362 11.1993 1.93465 11.3242 1.6748C11.4492 1.41515 11.7118 1.25 12 1.25ZM14 7.75C14.4142 7.75 14.75 8.08579 14.75 8.5C14.75 8.91421 14.4142 9.25 14 9.25H11.541L11.041 10.75H12C13.5188 10.75 14.75 11.9812 14.75 13.5C14.75 15.0188 13.5188 16.25 12 16.25H10C9.58579 16.25 9.25 15.9142 9.25 15.5C9.25 15.0858 9.58579 14.75 10 14.75H12C12.6904 14.75 13.25 14.1904 13.25 13.5C13.25 12.8096 12.6904 12.25 12 12.25H10.6934C9.84036 12.2498 9.23804 11.4138 9.50781 10.6045L10.1748 8.60449C10.3451 8.09424 10.8224 7.75002 11.3604 7.75H14Z" fill="#1C274C"/>
</svg>
