<svg width="24" height="24" viewBox="0 0 24 24" fill="none" xmlns="http://www.w3.org/2000/svg">
<path d="M12 1.25C17.9371 1.25 22.75 6.06294 22.75 12C22.75 17.9371 17.9371 22.75 12 22.75C6.06294 22.75 1.25 17.9371 1.25 12C1.25 8.99312 2.48546 6.27339 4.47461 4.32324C4.7704 4.03327 5.2452 4.03819 5.53516 4.33398C5.8251 4.62978 5.82117 5.10457 5.52539 5.39453C3.812 7.07421 2.75 9.41226 2.75 12C2.75 17.1086 6.89137 21.25 12 21.25C17.1086 21.25 21.25 17.1086 21.25 12C21.25 6.89137 17.1086 2.75 12 2.75C11.5858 2.75 11.25 2.41421 11.25 2C11.25 1.58579 11.5858 1.25 12 1.25ZM12 4.25C16.2802 4.25 19.75 7.71979 19.75 12C19.75 16.2802 16.2802 19.75 12 19.75C7.71979 19.75 4.25 16.2802 4.25 12C4.25 11.5858 4.58579 11.25 5 11.25C5.41421 11.25 5.75 11.5858 5.75 12C5.75 15.4518 8.54822 18.25 12 18.25C15.4518 18.25 18.25 15.4518 18.25 12C18.25 8.54822 15.4518 5.75 12 5.75C11.5858 5.75 11.25 5.41421 11.25 5C11.25 4.58579 11.5858 4.25 12 4.25ZM12 7.25C14.6234 7.25 16.75 9.37665 16.75 12C16.75 14.6234 14.6234 16.75 12 16.75C11.5858 16.75 11.25 16.4142 11.25 16C11.25 15.5858 11.5858 15.25 12 15.25C13.7949 15.25 15.25 13.7949 15.25 12C15.25 10.2051 13.7949 8.75 12 8.75C11.5858 8.75 11.25 8.41421 11.25 8C11.25 7.58579 11.5858 7.25 12 7.25Z" fill="#48465C"/>
</svg>
