<svg width="24" height="24" viewBox="0 0 24 24" fill="none" xmlns="http://www.w3.org/2000/svg">
<path d="M12 11.75C14.5419 11.75 16.5233 12.1576 18 12.6592V16C18 18.8284 17.9998 20.2424 17.1211 21.1211C16.2424 21.9998 14.8284 22 12 22C9.1716 22 7.75759 21.9998 6.87891 21.1211C6.00023 20.2424 6 18.8284 6 16V12.6592C7.47666 12.1576 9.45817 11.75 12 11.75ZM16 6C18.8284 6 20.2424 6.00023 21.1211 6.87891C21.9998 7.75759 22 9.17158 22 12C22 14.8284 21.9998 16.2424 21.1211 17.1211C20.6288 17.6135 19.9685 17.8307 18.9854 17.9258C19.0002 17.3667 19 16.7477 19 16.0703V13.042C19.0656 13.0701 19.1296 13.0987 19.1924 13.127C19.5703 13.2966 20.0149 13.1278 20.1846 12.75C20.354 12.3723 20.1852 11.9285 19.8076 11.7588C18.0858 10.9857 15.5195 10.25 12 10.25C8.4805 10.25 5.91413 10.9857 4.19238 11.7588C3.81485 11.9285 3.64599 12.3723 3.81543 12.75C3.98509 13.1278 4.42975 13.2966 4.80762 13.127C4.87036 13.0987 4.93448 13.0701 5 13.042V16.0703C4.99998 16.7478 4.99977 17.3667 5.01465 17.9258C4.03146 17.8307 3.37125 17.6135 2.87891 17.1211C2.00023 16.2424 2 14.8284 2 12C2 9.17157 2.00023 7.75759 2.87891 6.87891C3.75759 6.00023 5.17157 6 8 6H16ZM11.999 2C14.8275 2 16.2424 2.00023 17.1211 2.87891C17.6132 3.37122 17.8296 4.03162 17.9248 5.01465C17.3657 4.99978 16.7477 4.99998 16.0703 5H7.92969C7.25209 4.99998 6.63346 4.99977 6.07422 5.01465C6.16938 4.03166 6.38578 3.37122 6.87793 2.87891C7.75656 2.00028 9.17096 2 11.999 2Z" fill="#1C274C"/>
</svg>
