<svg width="24" height="24" viewBox="0 0 24 24" fill="none" xmlns="http://www.w3.org/2000/svg">
<path d="M14.4162 1.32752C15.7403 1.15691 16.8555 1.24399 17.8713 1.83045C18.8871 2.41693 19.5201 3.33968 20.0344 4.57166C20.5357 5.77265 20.9631 7.36751 21.5061 9.39393L21.5354 9.50428C22.0784 11.5308 22.5058 13.1256 22.6721 14.4164C22.8427 15.7405 22.7557 16.8557 22.1692 17.8715C21.5827 18.8872 20.6608 19.5204 19.4289 20.0346C18.2279 20.536 16.6324 20.9631 14.6057 21.5062L14.4963 21.5355C12.4696 22.0785 10.8741 22.506 9.58323 22.6723C8.2593 22.8429 7.14388 22.7558 6.12816 22.1693C5.11258 21.5828 4.47928 20.6608 3.96507 19.4291C3.46371 18.228 3.03642 16.6325 2.49339 14.6058L2.46409 14.4965C1.92104 12.4698 1.49372 10.8742 1.32738 9.58338C1.15681 8.25946 1.24387 7.14403 1.83031 6.12831C2.41678 5.11263 3.33962 4.47945 4.57152 3.96522C5.7725 3.46395 7.36739 3.03649 9.39378 2.49354L9.50413 2.46424C11.5306 1.92123 13.1255 1.49386 14.4162 1.32752ZM17.1213 3.12928C16.5037 2.77277 15.7652 2.66664 14.6076 2.81581C13.4284 2.96779 11.9306 3.36716 9.83714 3.92811C7.74332 4.48915 6.24586 4.89197 5.14866 5.34998C4.07181 5.79954 3.48567 6.26084 3.12913 6.87831C2.77258 7.49589 2.66649 8.23437 2.81566 9.39198C2.96761 10.5711 3.36699 12.0689 3.92796 14.1625C4.489 16.2563 4.89183 17.7538 5.34984 18.851C5.79938 19.9279 6.26074 20.5139 6.87816 20.8705C7.49572 21.227 8.23426 21.3341 9.39183 21.1849C10.571 21.0331 12.0687 20.6327 14.1623 20.0717C16.2561 19.5107 17.7536 19.1078 18.8508 18.6498C19.9279 18.2002 20.5138 17.7389 20.8703 17.1215C21.2269 16.5039 21.334 15.7654 21.1848 14.6078C21.0329 13.4286 20.6325 11.931 20.0715 9.83729C19.5105 7.74347 19.1076 6.24601 18.6496 5.14881C18.2 4.07194 17.7388 3.4858 17.1213 3.12928ZM16.1184 13.3236C16.416 13.0356 16.8909 13.0436 17.1789 13.3412C17.4668 13.6388 17.4589 14.1137 17.1614 14.4017C16.9914 14.5662 16.8122 14.7244 16.6252 14.8764L16.844 15.3217C17.3968 16.4481 16.9214 17.8089 15.7873 18.3461C14.6756 18.8724 13.347 18.4084 12.8049 17.3041L12.5315 16.7474C11.2116 16.9978 9.90867 16.956 8.72972 16.6605C8.3282 16.5596 8.08412 16.152 8.1848 15.7504C8.28564 15.3488 8.69327 15.1048 9.09495 15.2055C10.2253 15.4887 11.5233 15.4921 12.841 15.139C14.1588 14.7859 15.2811 14.1341 16.1184 13.3236ZM15.3703 15.724C14.9416 15.9628 14.4852 16.1717 14.0051 16.3451L14.1516 16.643C14.3321 17.0109 14.7743 17.1658 15.1448 16.9906C15.5228 16.8117 15.6814 16.3583 15.4973 15.9828L15.3703 15.724ZM8.32542 9.87928C8.85882 9.73636 9.46544 10.2687 9.67991 11.0687C9.89432 11.8689 9.63526 12.6338 9.10179 12.7767C8.5684 12.9194 7.96265 12.3864 7.74827 11.5863C7.53402 10.7863 7.7922 10.0224 8.32542 9.87928ZM14.1213 8.32557C14.6547 8.1829 15.2604 8.71595 15.4748 9.516C15.6892 10.3162 15.4311 11.081 14.8977 11.224C14.3642 11.3669 13.7576 10.8337 13.5432 10.0336C13.3288 9.23339 13.5878 8.46851 14.1213 8.32557Z" fill="#1C274C"/>
</svg>
