<svg width="24" height="24" viewBox="0 0 24 24" fill="none" xmlns="http://www.w3.org/2000/svg">
<path d="M12.0002 2C12.947 2.00017 13.5804 3.13618 14.8469 5.4082L15.174 5.99609C15.534 6.64179 15.7146 6.96471 15.9953 7.17773C16.2759 7.39069 16.6255 7.4698 17.3244 7.62793L17.9602 7.77246C20.4198 8.32899 21.65 8.60694 21.9426 9.54785C22.2351 10.4887 21.3967 11.4691 19.7199 13.4297L19.2863 13.9375C18.8099 14.4947 18.5713 14.7735 18.4641 15.1182C18.3572 15.4627 18.3931 15.8343 18.4651 16.5771L18.5305 17.2549C18.7839 19.8706 18.9106 21.1783 18.1447 21.7598C17.3786 22.3413 16.227 21.8113 13.924 20.751L13.3283 20.4766C12.6742 20.1754 12.347 20.0245 12.0002 20.0244C11.6533 20.0244 11.3255 20.1753 10.6711 20.4766L10.0754 20.751C7.77249 21.8112 6.62072 22.3413 5.85471 21.7598C5.08927 21.1781 5.21553 19.8702 5.46896 17.2549L5.53537 16.5771C5.60735 15.8344 5.6433 15.4626 5.53635 15.1182C5.42918 14.7735 5.19045 14.4945 4.71408 13.9375L4.28049 13.4297C2.60364 11.4689 1.76523 10.4887 2.05783 9.54785C2.35042 8.60699 3.57983 8.32894 6.03928 7.77246L6.67599 7.62793C7.37487 7.4698 7.7245 7.39074 8.0051 7.17773C8.28563 6.96471 8.46553 6.6417 8.82541 5.99609L9.15353 5.4082C10.4201 3.13615 11.0534 2 12.0002 2Z" fill="#1C274C"/>
</svg>
