<svg width="24" height="24" viewBox="0 0 24 24" fill="none" xmlns="http://www.w3.org/2000/svg">
<path d="M12.0002 2C12.947 2.00017 13.5805 3.13618 14.8469 5.4082L15.1741 5.99609C15.5341 6.64179 15.7147 6.96471 15.9954 7.17773C16.2759 7.39069 16.6256 7.4698 17.3245 7.62793L17.9602 7.77246C20.4198 8.32899 21.65 8.60694 21.9426 9.54785C22.2351 10.4887 21.3967 11.4691 19.72 13.4297L19.2864 13.9375C18.8099 14.4947 18.5713 14.7735 18.4641 15.1182C18.3572 15.4627 18.3931 15.8343 18.4651 16.5771L18.5305 17.2549C18.784 19.8706 18.9106 21.1783 18.1448 21.7598C17.3787 22.3413 16.2271 21.8113 13.9241 20.751L13.3284 20.4766C12.6743 20.1754 12.347 20.0245 12.0002 20.0244C11.6533 20.0244 11.3255 20.1753 10.6711 20.4766L10.0754 20.751C7.77252 21.8112 6.62075 22.3413 5.85474 21.7598C5.08931 21.1781 5.21556 19.8702 5.46899 17.2549L5.5354 16.5771C5.60738 15.8344 5.64333 15.4626 5.53638 15.1182C5.42921 14.7735 5.19048 14.4945 4.71411 13.9375L4.28052 13.4297C2.60367 11.4689 1.76526 10.4887 2.05786 9.54785C2.35045 8.60699 3.57986 8.32894 6.03931 7.77246L6.67603 7.62793C7.3749 7.4698 7.72453 7.39074 8.00513 7.17773C8.28566 6.96471 8.46556 6.6417 8.82544 5.99609L9.15356 5.4082C10.4201 3.13615 11.0534 2 12.0002 2Z" fill="#48465C"/>
</svg>
