<svg width="24" height="24" viewBox="0 0 24 24" fill="none" xmlns="http://www.w3.org/2000/svg">
<path d="M16 21.25C16.4142 21.25 16.75 21.5858 16.75 22C16.75 22.4142 16.4142 22.75 16 22.75H8C7.58579 22.75 7.25 22.4142 7.25 22C7.25 21.5858 7.58579 21.25 8 21.25H16ZM19 18.25C19.4142 18.25 19.75 18.5858 19.75 19C19.75 19.4142 19.4142 19.75 19 19.75H5C4.58579 19.75 4.25 19.4142 4.25 19C4.25 18.5858 4.58579 18.25 5 18.25H19ZM12.4766 2C15.416 2.00018 17.8371 4.19364 18.1553 7.01465C20.393 7.77989 21.9998 9.88094 22 12.3525C22 13.4116 21.7047 14.403 21.1914 15.25H22C22.4142 15.25 22.75 15.5858 22.75 16C22.75 16.4142 22.4142 16.75 22 16.75H2C1.58579 16.75 1.25 16.4142 1.25 16C1.25 15.5858 1.58579 15.25 2 15.25H2.27051C2.09537 14.7878 2 14.2872 2 13.7646C2.00003 11.4256 3.91922 9.5293 6.28613 9.5293C6.57009 9.52932 6.8477 9.55629 7.11621 9.6084C6.88725 8.99756 6.76177 8.33698 6.76172 7.64746C6.76172 4.52867 9.32064 2 12.4766 2Z" fill="#48465C"/>
</svg>
