<svg width="24" height="24" viewBox="0 0 24 24" fill="none" xmlns="http://www.w3.org/2000/svg">
<path d="M20.9091 13.332C22.5124 15.4518 22.3485 18.4834 20.4159 20.416C18.4833 22.3487 15.4517 22.5126 13.3319 20.9092L20.9091 13.332ZM19.8846 12.2344L12.2343 19.8848L4.11511 11.7656L11.7655 4.11523L19.8846 12.2344ZM12.7069 14.1211C12.3163 13.7308 11.6834 13.7307 11.2928 14.1211C10.9024 14.5115 10.9026 15.1446 11.2928 15.5352C11.6834 15.9257 12.3163 15.9257 12.7069 15.5352C13.0974 15.1447 13.0974 14.5116 12.7069 14.1211ZM9.87878 11.293C9.48832 10.9025 8.85527 10.9026 8.46472 11.293C8.0742 11.6835 8.0742 12.3165 8.46472 12.707C8.85526 13.0974 9.48832 13.0975 9.87878 12.707C10.2691 12.3166 10.2691 11.6834 9.87878 11.293ZM15.535 11.293C15.1445 10.9026 14.5114 10.9025 14.121 11.293C13.7305 11.6834 13.7305 12.3166 14.121 12.707C14.5114 13.0975 15.1445 13.0974 15.535 12.707C15.9255 12.3165 15.9255 11.6835 15.535 11.293ZM3.58484 3.58496C5.51747 1.65232 8.548 1.48748 10.6678 3.09082L3.0907 10.668C1.48736 8.54812 1.6522 5.51759 3.58484 3.58496ZM12.7069 8.46484C12.3163 8.07432 11.6834 8.07432 11.2928 8.46484C10.9025 8.85539 10.9024 9.48844 11.2928 9.87891C11.6834 10.2693 12.3163 10.2692 12.7069 9.87891C13.0974 9.48838 13.0974 8.85537 12.7069 8.46484Z" fill="#48465C"/>
</svg>
