<svg width="24" height="24" viewBox="0 0 24 24" fill="none" xmlns="http://www.w3.org/2000/svg">
<path d="M10.9391 18.9185L9.07098 20.7866C7.45346 22.404 4.83115 22.4039 3.21356 20.7866C1.59596 19.169 1.59596 16.5458 3.21356 14.9282L5.08173 13.0601L10.9391 18.9185ZM3.21356 3.21338C4.83117 1.59578 7.45337 1.59578 9.07098 3.21338L20.7868 14.9282C22.4044 16.5458 22.4044 19.169 20.7868 20.7866C19.1692 22.4042 16.546 22.4042 14.9284 20.7866L3.21356 9.0708C1.59596 7.45319 1.59596 4.83099 3.21356 3.21338ZM16.7692 15.6558C16.4617 15.3482 15.9634 15.3482 15.6559 15.6558C15.3484 15.9632 15.3484 16.4615 15.6559 16.769C15.9634 17.0766 16.4617 17.0766 16.7692 16.769C17.0768 16.4615 17.0768 15.9633 16.7692 15.6558ZM13.985 14.7271C13.6776 14.4199 13.1793 14.42 12.8718 14.7271C12.5643 15.0346 12.5643 15.5337 12.8718 15.8413C13.1793 16.1485 13.6775 16.1486 13.985 15.8413C14.2925 15.5337 14.2925 15.0346 13.985 14.7271ZM15.8415 12.8716C15.5339 12.5641 15.0347 12.5641 14.7272 12.8716C14.4201 13.1791 14.4201 13.6774 14.7272 13.9849C15.0347 14.2924 15.5339 14.2924 15.8415 13.9849C16.1488 13.6773 16.1487 13.1792 15.8415 12.8716ZM13.0573 11.9429C12.7498 11.6354 12.2507 11.6354 11.9431 11.9429C11.6356 12.2505 11.6356 12.7496 11.9431 13.0571C12.2507 13.3647 12.7498 13.3647 13.0573 13.0571C13.3649 12.7496 13.3649 12.2505 13.0573 11.9429ZM10.2731 11.0151C9.96557 10.7075 9.46642 10.7075 9.15887 11.0151C8.85148 11.3226 8.85153 11.8209 9.15887 12.1284C9.46642 12.436 9.96557 12.436 10.2731 12.1284C10.5802 11.821 10.5802 11.3225 10.2731 11.0151ZM14.9294 3.21338C16.547 1.59582 19.1692 1.59579 20.7868 3.21338C22.4042 4.83099 22.4043 7.45325 20.7868 9.0708L18.9186 10.939L13.0602 5.08154L14.9294 3.21338ZM12.1286 9.15869C11.8211 8.85134 11.3228 8.8513 11.0153 9.15869C10.7077 9.46624 10.7077 9.96539 11.0153 10.2729C11.3227 10.58 11.8212 10.58 12.1286 10.2729C12.4362 9.96539 12.4362 9.46624 12.1286 9.15869ZM9.34442 8.23096C9.03687 7.92341 8.53869 7.92341 8.23114 8.23096C7.92359 8.53851 7.92359 9.03669 8.23114 9.34424C8.5387 9.6517 9.0369 9.65176 9.34442 9.34424C9.65194 9.03672 9.65188 8.53851 9.34442 8.23096Z" fill="#1C274C"/>
</svg>
