<svg width="24" height="24" viewBox="0 0 24 24" fill="none" xmlns="http://www.w3.org/2000/svg">
<path d="M19.3447 6.99316C19.6232 6.89055 19.9556 6.80262 20.3145 6.86816C20.7568 6.94906 21.1517 7.19684 21.416 7.56055C21.6305 7.85573 21.6947 8.19375 21.7227 8.48926C21.7499 8.77697 21.75 9.13611 21.75 9.54492V9.6543C21.7508 9.9544 21.7514 10.2751 21.6436 10.5703C21.5586 10.8034 21.4253 11.0159 21.252 11.1934C21.0324 11.4182 20.7435 11.5564 20.4727 11.6855L20.4043 11.7178L18.6182 12.5752C18.2498 12.7521 17.9264 12.907 17.6553 13.0068C17.3935 13.1033 17.0842 13.1873 16.75 13.1426V17.4287C16.75 19.243 15.3147 20.75 13.5 20.75C11.6853 20.75 10.25 19.243 10.25 17.4287C10.25 15.6144 11.6853 14.1074 13.5 14.1074C14.1477 14.1074 14.747 14.2995 15.25 14.6289V11H15.2529C15.25 10.8312 15.25 10.6486 15.25 10.4551V10.3457C15.2492 10.0456 15.2486 9.72497 15.3564 9.42969C15.4414 9.19661 15.5747 8.98415 15.748 8.80664C15.9676 8.58185 16.2565 8.44356 16.5273 8.31445L16.5957 8.28223L18.3818 7.4248C18.7503 7.24797 19.0736 7.09304 19.3447 6.99316ZM8 13.25C8.41421 13.25 8.75 13.5858 8.75 14C8.75 14.4142 8.41421 14.75 8 14.75H3C2.58579 14.75 2.25 14.4142 2.25 14C2.25 13.5858 2.58579 13.25 3 13.25H8ZM12 8.25C12.4142 8.25 12.75 8.58579 12.75 9C12.75 9.41421 12.4142 9.75 12 9.75H3C2.58579 9.75 2.25 9.41421 2.25 9C2.25 8.58579 2.58579 8.25 3 8.25H12ZM20 3.25C20.4142 3.25 20.75 3.58579 20.75 4C20.75 4.41421 20.4142 4.75 20 4.75H3C2.58579 4.75 2.25 4.41421 2.25 4C2.25 3.58579 2.58579 3.25 3 3.25H20Z" fill="#1C274C"/>
</svg>
