<svg width="24" height="24" viewBox="0 0 24 24" fill="none" xmlns="http://www.w3.org/2000/svg">
<path d="M12.0625 1.25C14.1308 1.24998 15.7681 1.25009 17.0488 1.44141C18.3727 1.6392 19.4221 2.05506 20.2393 2.96289C21.0462 3.85951 21.4069 4.9925 21.5801 6.42383C21.7502 7.83037 21.75 9.63559 21.75 11.9482V12.0518C21.75 14.3644 21.7502 16.1696 21.5801 17.5762C21.4069 19.0075 21.0462 20.1404 20.2393 21.0371C19.4221 21.9449 18.3727 22.3608 17.0488 22.5586C15.7681 22.7499 14.1308 22.75 12.0625 22.75H11.9375C9.8692 22.75 8.23191 22.7499 6.95117 22.5586C5.62732 22.3608 4.57782 21.9449 3.76074 21.0371C2.95379 20.1404 2.59312 19.0075 2.41992 17.5762C2.24976 16.1696 2.24999 14.3644 2.25 12.0518V11.9482C2.24999 9.6356 2.24976 7.83037 2.41992 6.42383C2.59312 4.9925 2.95378 3.85951 3.76074 2.96289C4.57782 2.05504 5.62732 1.6392 6.95117 1.44141C8.23191 1.25009 9.86922 1.24998 11.9375 1.25H12.0625ZM12 2.75C9.8552 2.75 8.33005 2.75193 7.17285 2.9248C6.04646 3.0931 5.37678 3.4096 4.87598 3.96582C4.36494 4.53364 4.0655 5.31183 3.90918 6.60352C3.75116 7.9095 3.75 9.62385 3.75 12C3.75 14.3762 3.75116 16.0905 3.90918 17.3965C4.0655 18.6882 4.36494 19.4664 4.87598 20.0342C5.37678 20.5904 6.04647 20.9068 7.17285 21.0752C8.33005 21.248 9.8552 21.25 12 21.25C14.1448 21.25 15.6699 21.248 16.8271 21.0752C17.9535 20.9068 18.6232 20.5904 19.124 20.0342C19.6351 19.4664 19.9345 18.6882 20.0908 17.3965C20.2488 16.0905 20.25 14.3762 20.25 12C20.25 9.62385 20.2488 7.9095 20.0908 6.60352C19.9345 5.31183 19.6351 4.53364 19.124 3.96582C18.6232 3.40959 17.9535 3.0931 16.8271 2.9248C15.6699 2.75193 14.1448 2.75 12 2.75ZM15.5 16.333C15.9602 16.333 16.333 16.7067 16.333 17.167C16.3328 17.627 15.9601 18 15.5 18C15.0399 18 14.6672 17.627 14.667 17.167C14.667 16.7067 15.0398 16.333 15.5 16.333ZM8.5 13.25C8.91421 13.25 9.25 13.5858 9.25 14V14.75H10C10.4142 14.75 10.75 15.0858 10.75 15.5C10.75 15.9142 10.4142 16.25 10 16.25H9.25V17C9.25 17.4142 8.91421 17.75 8.5 17.75C8.08579 17.75 7.75 17.4142 7.75 17V16.25H7C6.58579 16.25 6.25 15.9142 6.25 15.5C6.25 15.0858 6.58579 14.75 7 14.75H7.75V14C7.75 13.5858 8.08579 13.25 8.5 13.25ZM13.833 14.667C14.2933 14.667 14.667 15.0398 14.667 15.5C14.667 15.9602 14.2933 16.333 13.833 16.333C13.3729 16.3329 13 15.9601 13 15.5C13 15.0399 13.373 14.6671 13.833 14.667ZM17.167 14.667C17.627 14.6672 18 15.0399 18 15.5C18 15.9601 17.627 16.3328 17.167 16.333C16.7067 16.333 16.333 15.9602 16.333 15.5C16.333 15.0398 16.7067 14.667 17.167 14.667ZM15.5 13C15.9601 13 16.3329 13.3729 16.333 13.833C16.333 14.2933 15.9602 14.667 15.5 14.667C15.0398 14.667 14.667 14.2933 14.667 13.833C14.6671 13.373 15.0399 13 15.5 13ZM15.084 5.25C15.4647 5.2496 15.793 5.24971 16.082 5.32715C16.8585 5.5352 17.4649 6.14151 17.6729 6.91797C17.7503 7.20704 17.7504 7.53535 17.75 7.91602V8.08398C17.7504 8.46466 17.7503 8.79296 17.6729 9.08203C17.4649 9.85849 16.8585 10.4649 16.082 10.6729C15.793 10.7503 15.4647 10.7504 15.084 10.75H8.91602C8.53535 10.7504 8.20704 10.7503 7.91797 10.6729C7.14151 10.4649 6.5352 9.85849 6.32715 9.08203C6.24972 8.79296 6.2496 8.46466 6.25 8.08398V7.91602C6.2496 7.53534 6.24972 7.20704 6.32715 6.91797C6.5352 6.14151 7.14151 5.5352 7.91797 5.32715C8.20704 5.24972 8.53534 5.2496 8.91602 5.25H15.084ZM9 6.75C8.48673 6.75 8.37699 6.75627 8.30566 6.77539C8.04698 6.84477 7.84477 7.04698 7.77539 7.30566C7.75627 7.37699 7.75 7.48673 7.75 8C7.75 8.51327 7.75627 8.623 7.77539 8.69434C7.84477 8.95301 8.04698 9.15523 8.30566 9.22461C8.37699 9.24372 8.48673 9.25 9 9.25H15C15.5133 9.25 15.623 9.24372 15.6943 9.22461C15.953 9.15523 16.1553 8.95302 16.2246 8.69434C16.2438 8.623 16.25 8.51327 16.25 8C16.25 7.48673 16.2438 7.37699 16.2246 7.30566C16.1553 7.04698 15.953 6.84477 15.6943 6.77539C15.623 6.75627 15.5133 6.75 15 6.75H9Z" fill="#48465C"/>
</svg>
