<svg width="24" height="24" viewBox="0 0 24 24" fill="none" xmlns="http://www.w3.org/2000/svg">
<path d="M2.5 5C4.15685 5 5.5 6.34315 5.5 8V16C5.5 17.6569 4.15685 19 2.5 19C2.22386 19 2 18.7761 2 18.5V5.5C2 5.22386 2.22386 5 2.5 5ZM12.5 5C14.3856 5 15.3283 5.00015 15.9141 5.58594C16.4999 6.17172 16.5 7.11439 16.5 9V15C16.5 16.8856 16.4999 17.8283 15.9141 18.4141C15.3283 18.9999 14.3856 19 12.5 19H11.5C9.61439 19 8.67172 18.9999 8.08594 18.4141C7.50015 17.8283 7.5 16.8856 7.5 15V9C7.5 7.11438 7.50015 6.17172 8.08594 5.58594C8.67172 5.00015 9.61438 5 11.5 5H12.5ZM21.5 5C21.7761 5 22 5.22386 22 5.5V18.5C22 18.7761 21.7761 19 21.5 19C19.8431 19 18.5 17.6569 18.5 16V8C18.5 6.34315 19.8431 5 21.5 5Z" fill="#1C274C"/>
</svg>
