<svg width="24" height="24" viewBox="0 0 24 24" fill="none" xmlns="http://www.w3.org/2000/svg">
<path d="M16.4697 3.46973C16.7626 3.17684 17.2374 3.17684 17.5303 3.46973L20.5303 6.46973C20.8231 6.76262 20.8232 7.2374 20.5303 7.53027L17.5303 10.5303C17.2374 10.8231 16.7626 10.8231 16.4697 10.5303C16.1768 10.2374 16.1769 9.76262 16.4697 9.46973L18.1895 7.75H9C8.05168 7.75 7.39053 7.75043 6.87793 7.79688C6.37562 7.8424 6.0899 7.92769 5.875 8.05176C5.53306 8.24922 5.2492 8.53305 5.05176 8.875C4.92769 9.08991 4.8424 9.37562 4.79688 9.87793C4.75044 10.3905 4.75 11.0517 4.75 12C4.75 12.9483 4.75042 13.6095 4.79688 14.1221C4.8424 14.6244 4.92769 14.9101 5.05176 15.125C5.24921 15.4669 5.53308 15.7508 5.875 15.9482C6.0899 16.0722 6.37563 16.1576 6.87793 16.2031C7.39053 16.2496 8.05169 16.25 9 16.25H16C16.4142 16.25 16.75 16.5858 16.75 17C16.75 17.4142 16.4142 17.75 16 17.75H8.96387C8.05979 17.75 7.33041 17.7496 6.74219 17.6963C6.13594 17.6413 5.60619 17.5248 5.125 17.2471C4.55502 16.918 4.08104 16.445 3.75195 15.875C3.4742 15.3938 3.35868 14.8639 3.30371 14.2578C3.2504 13.6696 3.24999 12.9402 3.25 12.0361V11.9639C3.24999 11.0598 3.2504 10.3304 3.30371 9.74219C3.35866 9.13602 3.47423 8.60614 3.75195 8.125C4.08108 7.55493 4.55493 7.08108 5.125 6.75195C5.60614 6.47421 6.13602 6.35867 6.74219 6.30371C7.3304 6.2504 8.05979 6.24999 8.96387 6.25H18.1895L16.4697 4.53027C16.1768 4.2374 16.1769 3.76262 16.4697 3.46973Z" fill="#1C274C"/>
</svg>
