<svg width="24" height="24" viewBox="0 0 24 24" fill="none" xmlns="http://www.w3.org/2000/svg">
<path d="M12 1.25C17.9371 1.25 22.75 6.06294 22.75 12C22.75 17.9371 17.9371 22.75 12 22.75C6.06294 22.75 1.25 17.9371 1.25 12C1.25 11.5858 1.58579 11.25 2 11.25C2.41421 11.25 2.75 11.5858 2.75 12C2.75 17.1086 6.89137 21.25 12 21.25C17.1086 21.25 21.25 17.1086 21.25 12C21.25 6.89137 17.1086 2.75 12 2.75C11.5858 2.75 11.25 2.41421 11.25 2C11.25 1.58579 11.5858 1.25 12 1.25ZM12 8.25C12.4142 8.25 12.75 8.58579 12.75 9V12.25H16C16.4142 12.25 16.75 12.5858 16.75 13C16.75 13.4142 16.4142 13.75 16 13.75H12C11.5858 13.75 11.25 13.4142 11.25 13V9C11.25 8.58579 11.5858 8.25 12 8.25ZM2.16992 7.64258C2.33799 7.26399 2.78158 7.09267 3.16016 7.26074C3.53872 7.42883 3.70908 7.87241 3.54102 8.25098C3.47979 8.3889 3.42176 8.52855 3.36719 8.66992C3.21802 9.05634 2.78388 9.24877 2.39746 9.09961C2.01112 8.95042 1.81867 8.51626 1.96777 8.12988C2.03124 7.96547 2.09874 7.80295 2.16992 7.64258ZM4.58691 4.21484C4.88681 3.92923 5.36178 3.94044 5.64746 4.24023C5.93311 4.54016 5.92195 5.01511 5.62207 5.30078C5.5124 5.40523 5.40522 5.5124 5.30078 5.62207C5.01512 5.92201 4.54018 5.93313 4.24023 5.64746C3.94045 5.36179 3.92926 4.88779 4.21484 4.58789C4.33598 4.46071 4.45973 4.33598 4.58691 4.21484ZM8.12988 1.96777C8.51624 1.81872 8.95042 2.01116 9.09961 2.39746C9.24877 2.78388 9.05634 3.21802 8.66992 3.36719C8.52855 3.42176 8.3889 3.47979 8.25098 3.54102C7.87239 3.70908 7.42881 3.53874 7.26074 3.16016C7.09267 2.78158 7.26399 2.33799 7.64258 2.16992C7.80293 2.09875 7.9655 2.03123 8.12988 1.96777Z" fill="#1C274C"/>
</svg>
