<svg width="24" height="24" viewBox="0 0 24 24" fill="none" xmlns="http://www.w3.org/2000/svg">
<path d="M14.0566 1.25C15.8943 1.24998 17.3501 1.25016 18.4893 1.40332C19.6615 1.56095 20.6101 1.89332 21.3584 2.6416C22.1066 3.38992 22.439 4.33844 22.5967 5.51074C22.7498 6.6499 22.75 8.10571 22.75 9.94336V11.0547C22.75 11.7172 22.7495 12.3179 22.7363 12.8594C22.745 12.9049 22.75 12.9519 22.75 13C22.75 13.064 22.7416 13.1262 22.7266 13.1855C22.7101 13.6296 22.6823 14.0311 22.6338 14.3916C22.5128 15.2917 22.2533 16.0494 21.6514 16.6514C21.0494 17.2533 20.2917 17.5128 19.3916 17.6338C18.5246 17.7503 17.4222 17.75 16.0547 17.75H12.75V21.25H16C16.4142 21.25 16.75 21.5858 16.75 22C16.75 22.4142 16.4142 22.75 16 22.75H8C7.58579 22.75 7.25 22.4142 7.25 22C7.25 21.5858 7.58579 21.25 8 21.25H11.25V17.75H7.94531C6.57782 17.75 5.47534 17.7503 4.6084 17.6338C3.70829 17.5128 2.95055 17.2533 2.34863 16.6514C1.74673 16.0494 1.48723 15.2917 1.36621 14.3916C1.31776 14.0311 1.28997 13.6295 1.27344 13.1855C1.25832 13.1262 1.25 13.064 1.25 13C1.25 12.9519 1.25502 12.905 1.26367 12.8594C1.25042 12.318 1.24999 11.7172 1.25 11.0547V9.94336C1.24998 8.1057 1.25016 6.64991 1.40332 5.51074C1.56095 4.33844 1.8933 3.38992 2.6416 2.6416C3.38992 1.8933 4.33844 1.56095 5.51074 1.40332C6.64991 1.25016 8.1057 1.24998 9.94336 1.25H14.0566ZM2.85352 14.1924C2.95218 14.9258 3.13249 15.3141 3.40918 15.5908C3.68594 15.8676 4.07482 16.0478 4.80859 16.1465C5.5639 16.2479 6.56484 16.25 8 16.25H16C17.4354 16.25 18.437 16.248 19.1924 16.1465C19.9258 16.0478 20.3141 15.8676 20.5908 15.5908C20.8676 15.3141 21.0478 14.9258 21.1465 14.1924C21.1651 14.0538 21.1809 13.9063 21.1934 13.75H2.80664C2.81915 13.9063 2.83488 14.0538 2.85352 14.1924ZM10 2.75C8.09324 2.75 6.73858 2.75149 5.71094 2.88965C4.70485 3.02491 4.12536 3.27894 3.70215 3.70215C3.27894 4.12536 3.02492 4.70485 2.88965 5.71094C2.75149 6.73859 2.75 8.09324 2.75 10V11C2.75 11.459 2.75036 11.8736 2.75391 12.25H21.2461C21.2496 11.8736 21.25 11.459 21.25 11V10C21.25 8.09325 21.2485 6.73858 21.1104 5.71094C20.9752 4.70485 20.7211 4.12536 20.2979 3.70215C19.8747 3.27894 19.2951 3.02491 18.2891 2.88965C17.2614 2.7515 15.9067 2.75 14 2.75H10Z" fill="#1C274C"/>
</svg>
