<svg width="24" height="24" viewBox="0 0 24 24" fill="none" xmlns="http://www.w3.org/2000/svg">
<path d="M8.64816 11.7896C8.71777 11.72 8.83578 11.7422 8.87473 11.8325C9.50868 13.3118 10.6875 14.4905 12.1667 15.1245C12.2573 15.1633 12.2801 15.2814 12.2107 15.3511L10.9314 16.6313C10.538 17.0249 10.5622 17.6742 10.7107 18.2104C10.9908 19.2235 10.6061 20.519 9.86301 21.2622C8.87935 22.2458 7.28425 22.2457 6.30051 21.2622C5.31678 20.2785 5.31679 18.6834 6.30051 17.6997C5.31683 18.6834 3.72175 18.6833 2.73801 17.6997C1.75429 16.716 1.75429 15.121 2.73801 14.1372C3.48125 13.3941 4.77659 13.0093 5.78976 13.2896C6.32601 13.438 6.97539 13.4622 7.36887 13.0688L8.64816 11.7896ZM14.9997 18.2495C15.4138 18.2495 15.7496 18.5854 15.7497 18.9995V19.9995C15.7497 20.4137 15.4139 20.7495 14.9997 20.7495C14.5856 20.7494 14.2497 20.4136 14.2497 19.9995V18.9995C14.2499 18.5855 14.5857 18.2497 14.9997 18.2495ZM17.1267 17.1265C17.4196 16.8336 17.8943 16.8336 18.1872 17.1265L19.6023 18.5405C19.8948 18.8334 19.8948 19.3083 19.6023 19.6011C19.3094 19.894 18.8336 19.894 18.5407 19.6011L17.1267 18.187C16.8339 17.8942 16.834 17.4194 17.1267 17.1265ZM19.9997 14.2495C20.4138 14.2495 20.7496 14.5854 20.7497 14.9995C20.7497 15.4137 20.4139 15.7495 19.9997 15.7495H18.9997C18.5856 15.7494 18.2497 15.4136 18.2497 14.9995C18.2499 14.5855 18.5857 14.2497 18.9997 14.2495H19.9997ZM14.1374 2.73779C15.1212 1.75407 16.7162 1.75407 17.6999 2.73779C18.6834 3.72154 18.6836 5.31663 17.6999 6.30029C18.6836 5.31657 20.2787 5.31657 21.2624 6.30029C22.2458 7.28405 22.246 8.87916 21.2624 9.86279C20.5193 10.6059 19.2238 10.9905 18.2107 10.7104C17.6745 10.562 17.0251 10.5379 16.6316 10.9312L15.3513 12.2104C15.2816 12.2799 15.1635 12.2571 15.1247 12.1665C14.4907 10.6873 13.312 9.50847 11.8327 8.87451C11.7423 8.83563 11.7194 8.71759 11.7888 8.64795L13.0691 7.36865C13.4623 6.97518 13.4382 6.32576 13.2898 5.78955C13.0095 4.77635 13.3943 3.48104 14.1374 2.73779ZM4.99973 8.24951C5.41385 8.24951 5.74958 8.58542 5.74973 8.99951C5.74973 9.41372 5.41394 9.74951 4.99973 9.74951H3.99973C3.58564 9.74937 3.24973 9.41363 3.24973 8.99951C3.24987 8.58551 3.58573 8.24966 3.99973 8.24951H4.99973ZM4.39914 4.39893C4.69204 4.1061 5.16681 4.10605 5.45969 4.39893L6.87375 5.81299C7.16648 6.10586 7.16652 6.58069 6.87375 6.87354C6.58091 7.16639 6.1061 7.16629 5.8132 6.87354L4.39914 5.45947C4.10624 5.16657 4.10624 4.69182 4.39914 4.39893ZM8.99973 3.24951C9.41385 3.24951 9.74958 3.58542 9.74973 3.99951V4.99951C9.74973 5.41372 9.41394 5.74951 8.99973 5.74951C8.58564 5.74937 8.24973 5.41363 8.24973 4.99951V3.99951C8.24987 3.58551 8.58573 3.24966 8.99973 3.24951Z" fill="#1C274C"/>
</svg>
