<svg width="24" height="24" viewBox="0 0 24 24" fill="none" xmlns="http://www.w3.org/2000/svg">
<path d="M12 1.25C17.9371 1.25 22.75 6.06294 22.75 12C22.75 17.9371 17.9371 22.75 12 22.75C6.06294 22.75 1.25 17.9371 1.25 12C1.25 6.06294 6.06294 1.25 12 1.25ZM12 2.75C6.89137 2.75 2.75 6.89137 2.75 12C2.75 17.1086 6.89137 21.25 12 21.25C17.1086 21.25 21.25 17.1086 21.25 12C21.25 6.89137 17.1086 2.75 12 2.75ZM12 5.25C14.0711 5.25 15.75 6.92893 15.75 9C15.75 10.029 15.3352 10.9612 14.6641 11.6387C15.9 12.2519 16.75 13.5268 16.75 15C16.75 17.0711 15.0711 18.75 13 18.75H9.17676C8.1128 18.75 7.25 17.8872 7.25 16.8232V7.52148C7.25014 6.26704 8.26704 5.25014 9.52148 5.25H12ZM8.75 16.8232C8.75 17.0588 8.94123 17.25 9.17676 17.25H13C14.2426 17.25 15.25 16.2426 15.25 15C15.25 13.7574 14.2426 12.75 13 12.75H8.75V16.8232ZM9.52148 6.75C9.09547 6.75014 8.75014 7.09547 8.75 7.52148V11.25H12C13.2426 11.25 14.25 10.2426 14.25 9C14.25 7.75736 13.2426 6.75 12 6.75H9.52148Z" fill="#1C274C"/>
</svg>
