<svg width="24" height="24" viewBox="0 0 24 24" fill="none" xmlns="http://www.w3.org/2000/svg">
<path d="M4.67502 16.7864C5.02092 17.1672 5.4432 17.5897 5.90646 18.053L5.94748 18.094C6.41045 18.5569 6.83247 18.9787 7.2131 19.3245C7.2564 19.3639 7.30059 19.4033 7.34494 19.4426L6.259 20.9631C6.17861 21.0757 6.13843 21.1324 6.10373 21.176C5.32083 22.1614 3.86803 22.281 2.93381 21.4377C2.89253 21.4005 2.84359 21.3515 2.74631 21.2542C2.64852 21.1564 2.59911 21.1071 2.56174 21.0657C1.71877 20.1314 1.83918 18.6795 2.82443 17.8967C2.86808 17.8621 2.92491 17.8217 3.03732 17.7415L4.55685 16.6555C4.59601 16.6998 4.63581 16.7432 4.67502 16.7864ZM13.9279 4.80688C14.5332 4.8069 15.0592 5.13294 15.7776 5.7854C16.1316 6.10689 16.533 6.5077 17.0129 6.98755C17.4927 7.4674 17.8936 7.86796 18.2151 8.22192C18.8678 8.94058 19.1936 9.46716 19.1936 10.0725C19.1936 10.9759 18.467 11.7034 17.0129 13.1575L13.1565 17.0129C11.7026 18.4668 10.9757 19.1935 10.0725 19.1936C9.46713 19.1936 8.94055 18.8678 8.22189 18.2151C7.86793 17.8936 7.46737 17.4927 6.98752 17.0129C6.50771 16.5331 6.10685 16.1325 5.78537 15.7786C5.13263 15.06 4.80685 14.5334 4.80685 13.928C4.80696 13.0247 5.53367 12.2978 6.98752 10.844L10.843 6.98755C12.2971 5.53345 13.0245 4.80688 13.9279 4.80688ZM17.8967 2.82446C18.6795 1.83923 20.1314 1.71878 21.0656 2.56177C21.107 2.59914 21.1563 2.64855 21.2541 2.74634C21.3513 2.84359 21.4005 2.89256 21.4377 2.93384C22.281 3.86804 22.1613 5.32085 21.176 6.10376C21.1324 6.13846 21.0757 6.17864 20.9631 6.25903L19.4426 7.34497C19.4033 7.30062 19.3638 7.25643 19.3244 7.21313C18.9787 6.83249 18.557 6.41048 18.094 5.94751L18.0529 5.90649C17.5897 5.44325 17.1671 5.02095 16.7863 4.67505C16.7431 4.63584 16.6998 4.59604 16.6555 4.55688L17.7414 3.03735C17.8216 2.92494 17.8621 2.86811 17.8967 2.82446Z" fill="#1C274C"/>
</svg>
