<svg width="24" height="24" viewBox="0 0 24 24" fill="none" xmlns="http://www.w3.org/2000/svg">
<path d="M6.9502 2C7.33657 2 7.53008 2.0002 7.71582 2.01758C8.51677 2.09253 9.27617 2.40752 9.89551 2.9209C10.0392 3.04 10.1758 3.17679 10.4492 3.4502L11 4C11.8156 4.81563 12.2236 5.22336 12.7119 5.49512C12.9802 5.6444 13.2652 5.7625 13.5605 5.84668C14.098 5.99986 14.6747 6 15.8281 6H16.2021C18.8344 6 20.1503 6.00021 21.0059 6.76953C21.0846 6.84031 21.1598 6.91545 21.2305 6.99414C21.9998 7.84966 22 9.16568 22 11.7979V14C22 17.7712 21.9997 19.6566 20.8281 20.8281C19.6566 21.9997 17.7712 22 14 22H10C6.22878 22 4.34346 21.9997 3.17188 20.8281C2.00031 19.6566 2 17.7712 2 14V6.9502C2 6.06798 2.00006 5.62627 2.06934 5.25879C2.37463 3.64071 3.64071 2.37463 5.25879 2.06934C5.62627 2.00006 6.06798 2 6.9502 2ZM14.498 11.4395C14.1884 11.1645 13.7146 11.1924 13.4395 11.502L11.333 13.8711L10.5605 13.002C10.2854 12.6924 9.81154 12.6644 9.50195 12.9395C9.19241 13.2146 9.1644 13.6884 9.43945 13.998L10.7725 15.498C10.9147 15.6581 11.1189 15.7499 11.333 15.75C11.5473 15.75 11.7513 15.6581 11.8936 15.498L14.5605 12.498C14.8355 12.1884 14.8076 11.7146 14.498 11.4395Z" fill="#1C274C"/>
</svg>
