<svg width="24" height="24" viewBox="0 0 24 24" fill="none" xmlns="http://www.w3.org/2000/svg">
<path d="M18 14.5C18 17.3284 17.9998 20.2424 17.1211 21.1211C16.2424 21.9998 14.8284 22 12 22C9.17159 22 7.75759 21.9998 6.87891 21.1211C6.00023 20.2424 6 17.3284 6 14.5H18ZM9 19C8.58579 19 8.25 19.3358 8.25 19.75C8.25 20.1642 8.58579 20.5 9 20.5H13C13.4142 20.5 13.75 20.1642 13.75 19.75C13.75 19.3358 13.4142 19 13 19H9ZM16 6C18.8284 6 20.2424 6.00023 21.1211 6.87891C21.9998 7.75759 22 9.17158 22 12C22 14.8284 21.9998 16.2424 21.1211 17.1211C20.6266 17.6157 19.9622 17.8323 18.9717 17.9268C18.9996 17.2041 19 15.3522 19 14.5C19.2761 14.5 19.5 14.2761 19.5 14C19.5 13.7239 19.2761 13.5 19 13.5H5C4.72386 13.5 4.5 13.7239 4.5 14C4.5 14.2761 4.72386 14.5 5 14.5C4.99999 15.3522 5.00035 17.204 5.02832 17.9268C4.03781 17.8323 3.37346 17.6157 2.87891 17.1211C2.00023 16.2424 2 14.8284 2 12C2 9.17157 2.00023 7.75759 2.87891 6.87891C3.75759 6.00023 5.17157 6 8 6H16ZM9 16C8.58579 16 8.25 16.3358 8.25 16.75C8.25 17.1642 8.58579 17.5 9 17.5H15C15.4142 17.5 15.75 17.1642 15.75 16.75C15.75 16.3358 15.4142 16 15 16H9ZM17 9C16.4477 9 16 9.44772 16 10C16 10.5523 16.4477 11 17 11C17.5523 11 18 10.5523 18 10C18 9.44772 17.5523 9 17 9ZM6 9.25C5.58579 9.25 5.25 9.58579 5.25 10C5.25 10.4142 5.58579 10.75 6 10.75H9C9.41421 10.75 9.75 10.4142 9.75 10C9.75 9.58579 9.41421 9.25 9 9.25H6ZM12 2C14.8283 2 16.2424 2.00024 17.1211 2.87891C17.6134 3.37123 17.8296 4.03156 17.9248 5.01465C17.3658 4.99979 16.7476 4.99998 16.0703 5H7.92969C7.25209 4.99998 6.63346 4.99977 6.07422 5.01465C6.1694 4.03147 6.38657 3.37125 6.87891 2.87891C7.75759 2.00033 9.17166 2 12 2Z" fill="#48465C"/>
</svg>
