<svg width="24" height="24" viewBox="0 0 24 24" fill="none" xmlns="http://www.w3.org/2000/svg">
<path d="M18.6709 3.69141C19.6072 3.04647 20.6813 3.15095 21.4785 3.73242C22.2553 4.29917 22.75 5.28987 22.75 6.42676V17.5742C22.7499 18.711 22.2552 19.7008 21.4785 20.2676C20.6813 20.8491 19.6073 20.9546 18.6709 20.3096L18.6621 20.3037L13.75 16.71V16.877C13.75 17.9128 13.2775 18.8108 12.5459 19.3203C11.8001 19.8397 10.8012 19.9323 9.92676 19.3574L2.50977 14.4805C1.63945 13.9082 1.25 12.9179 1.25 12C1.25007 11.0822 1.63953 10.0927 2.50977 9.52051L9.92676 4.64355C10.8013 4.06855 11.8 4.16119 12.5459 4.68066C13.2774 5.19012 13.7499 6.08743 13.75 7.12305V7.29102L18.6621 3.69727L18.6709 3.69141ZM20.5947 4.94434C20.2684 4.70625 19.8938 4.67468 19.5303 4.9209L13.75 9.14941V14.8516L19.5303 19.0791C19.8939 19.3254 20.2684 19.2946 20.5947 19.0566C20.9438 18.802 21.2499 18.2846 21.25 17.5742V6.42676C21.25 5.71633 20.9438 5.19903 20.5947 4.94434ZM11.6885 5.91113C11.4025 5.71207 11.0703 5.6867 10.751 5.89648L3.33301 10.7734C2.97498 11.0089 2.75007 11.4687 2.75 12C2.75 12.5313 2.97506 12.991 3.33301 13.2266L10.751 18.1035C11.0705 18.3135 11.4024 18.2881 11.6885 18.0889C11.989 17.8796 12.25 17.4575 12.25 16.877V7.12305C12.2499 6.5425 11.9889 6.12036 11.6885 5.91113Z" fill="#1C274C"/>
</svg>
