<svg width="24" height="24" viewBox="0 0 24 24" fill="none" xmlns="http://www.w3.org/2000/svg">
<path d="M15 4.25C19.2802 4.25 22.75 7.71979 22.75 12C22.75 16.2802 19.2802 19.75 15 19.75H14.8105L15.5303 20.4697C15.8231 20.7626 15.8232 21.2374 15.5303 21.5303C15.2374 21.8231 14.7626 21.8231 14.4697 21.5303L12.4697 19.5303C12.2553 19.3158 12.1906 18.9931 12.3066 18.7129C12.4227 18.4326 12.6967 18.25 13 18.25H15C18.4518 18.25 21.25 15.4518 21.25 12C21.25 8.54822 18.4518 5.75 15 5.75H14.5C14.0858 5.75 13.75 5.41418 13.75 5C13.75 4.58579 14.0858 4.25 14.5 4.25H15ZM8.46973 2.46973C8.76262 2.17684 9.23738 2.17684 9.53027 2.46973L11.5303 4.46973C11.7447 4.68422 11.8094 5.00689 11.6934 5.28711C11.5773 5.56737 11.3033 5.75 11 5.75H9C5.54822 5.75 2.75 8.54822 2.75 12C2.75003 15.4516 5.54833 18.2498 9 18.25H9.5C9.91421 18.25 10.25 18.5858 10.25 19C10.25 19.4142 9.91419 19.75 9.5 19.75H9C4.71998 19.7498 1.25003 16.2801 1.25 12C1.25 7.71979 4.71979 4.25 9 4.25H9.18945L8.46973 3.53027C8.17685 3.23739 8.17687 2.76262 8.46973 2.46973ZM16 11.25C16.4142 11.25 16.75 11.5858 16.75 12C16.75 12.4142 16.4142 12.75 16 12.75H8C7.58581 12.75 7.25003 12.4142 7.25 12C7.25 11.5858 7.58579 11.25 8 11.25H16Z" fill="#1C274C"/>
</svg>
