<svg width="24" height="24" viewBox="0 0 24 24" fill="none" xmlns="http://www.w3.org/2000/svg">
<path d="M12 1.25C12.7166 1.25 13.0753 1.82136 13.1367 2.27637C13.1959 2.71395 13.0341 3.27017 12.5312 3.57422C10.863 4.58235 9.75 6.41182 9.75 8.5C9.75 11.6756 12.3244 14.25 15.5 14.25C17.5882 14.25 19.4177 13.137 20.4258 11.4688C20.7298 10.9659 21.2861 10.8041 21.7236 10.8633C22.1786 10.9247 22.75 11.2834 22.75 12C22.75 17.9371 17.9371 22.75 12 22.75C6.06294 22.75 1.25 17.9371 1.25 12C1.25 6.06294 6.06294 1.25 12 1.25ZM11.0176 2.80176C6.3709 3.2924 2.75 7.22328 2.75 12C2.75 17.1086 6.89137 21.25 12 21.25C16.7767 21.25 20.7076 17.6291 21.1982 12.9824C19.8715 14.6667 17.8126 15.75 15.5 15.75C11.4959 15.75 8.25 12.5041 8.25 8.5C8.25 6.18738 9.33333 4.12849 11.0176 2.80176ZM14.668 7.94727C14.9951 7.11483 16.1709 7.11483 16.498 7.94727L16.6523 8.33984L17.0439 8.49512C17.873 8.82351 17.873 9.99872 17.0439 10.3271L16.6523 10.4824L16.498 10.876C16.1709 11.7081 14.9952 11.708 14.668 10.876L14.5137 10.4824L14.1221 10.3271C13.2928 9.9988 13.2927 8.82343 14.1221 8.49512L14.5137 8.33984L14.668 7.94727ZM15.4414 8.71191C15.3417 8.96543 15.1415 9.16713 14.8877 9.26758L14.5244 9.41113L14.8877 9.55566C15.1414 9.65609 15.3417 9.85692 15.4414 10.1104L15.583 10.4697L15.7246 10.1104C15.8244 9.85696 16.0246 9.65607 16.2783 9.55566L16.6416 9.41113L16.2783 9.26758C16.0246 9.16714 15.8243 8.9654 15.7246 8.71191L15.583 8.35254L15.4414 8.71191ZM18.5352 2.12402C18.8624 1.29195 20.038 1.29198 20.3652 2.12402L20.793 3.21387L21.8779 3.64258C22.7073 3.97089 22.7073 5.14729 21.8779 5.47559L20.793 5.90527L20.3652 6.99414C20.0381 7.8264 18.8623 7.82642 18.5352 6.99414L18.1074 5.90527L17.0225 5.47559C16.1931 5.14726 16.1931 3.97088 17.0225 3.64258L18.1074 3.21387L18.5352 2.12402ZM19.0352 3.58496C18.9355 3.83854 18.7352 4.04016 18.4814 4.14062L17.4248 4.55957L18.4814 4.97754C18.7352 5.078 18.9355 5.27962 19.0352 5.5332L19.4502 6.58887L19.8652 5.5332C19.9649 5.27962 20.1651 5.078 20.4189 4.97754L21.4756 4.55957L20.4189 4.14062C20.1651 4.04016 19.9649 3.83854 19.8652 3.58496L19.4502 2.53027L19.0352 3.58496Z" fill="#48465C"/>
</svg>
