<svg width="24" height="24" viewBox="0 0 24 24" fill="none" xmlns="http://www.w3.org/2000/svg">
<path d="M15.5 1.25C19.5041 1.25 22.75 4.49594 22.75 8.5C22.75 9.57209 22.5168 10.5923 22.0977 11.5098C21.9884 11.7491 21.9671 11.9755 22.0156 12.1572L22.1426 12.6328C22.5503 14.1566 21.1566 15.5503 19.6328 15.1426L19.1572 15.0156C19.0219 14.9794 18.8612 14.9816 18.6895 15.0303C18.1794 19.3771 14.4838 22.75 10 22.75C8.65003 22.75 7.36918 22.444 6.22559 21.8965C5.99926 21.7882 5.77608 21.7663 5.59277 21.8154L4.36719 22.1426C2.84336 22.5503 1.44969 21.1566 1.85742 19.6328L2.18457 18.4072C2.23362 18.2239 2.21182 18.0008 2.10352 17.7744C1.55602 16.6308 1.25 15.35 1.25 14C1.25 9.50945 4.633 5.80881 8.98926 5.30762C10.1693 2.90542 12.6405 1.25 15.5 1.25ZM10 6.75C5.99594 6.75 2.75 9.99594 2.75 14C2.75 15.1209 3.00434 16.1803 3.45703 17.126C3.69243 17.6177 3.79051 18.2091 3.63379 18.7949L3.30566 20.0205C3.19638 20.4292 3.57073 20.8037 3.97949 20.6943L5.20508 20.3662C5.79081 20.2095 6.38231 20.3076 6.87402 20.543C7.81967 20.9957 8.87904 21.25 10 21.25C14.0041 21.25 17.25 18.0041 17.25 14C17.25 9.99594 14.0041 6.75 10 6.75ZM6.5 13C7.05228 13 7.5 13.4477 7.5 14C7.5 14.5523 7.05228 15 6.5 15C5.94772 15 5.5 14.5523 5.5 14C5.5 13.4477 5.94772 13 6.5 13ZM10 13C10.5523 13 11 13.4477 11 14C11 14.5523 10.5523 15 10 15C9.44772 15 9 14.5523 9 14C9 13.4477 9.44772 13 10 13ZM13.5 13C14.0523 13 14.5 13.4477 14.5 14C14.5 14.5523 14.0523 15 13.5 15C12.9477 15 12.5 14.5523 12.5 14C12.5 13.4477 12.9477 13 13.5 13ZM15.5 2.75C13.5182 2.75 11.7696 3.75284 10.7354 5.28027C15.06 5.64011 18.4917 9.14558 18.7363 13.502C18.9988 13.477 19.2719 13.4933 19.5449 13.5664L20.0205 13.6943C20.4292 13.8036 20.8036 13.4292 20.6943 13.0205L20.5664 12.5449C20.4093 11.9575 20.512 11.3704 20.7334 10.8857C21.0649 10.1599 21.25 9.35262 21.25 8.5C21.25 5.32436 18.6756 2.75 15.5 2.75Z" fill="#48465C"/>
</svg>
