<svg width="24" height="24" viewBox="0 0 24 24" fill="none" xmlns="http://www.w3.org/2000/svg">
<path d="M7.61737 3.82996C8.9889 3.21574 9.67479 2.90817 10.5871 3.4989C11.4996 4.0901 11.5002 5.06036 11.5002 6.99988V8.49988C11.5002 10.3855 11.5003 11.3281 12.0861 11.9139C12.6719 12.4997 13.6146 12.4999 15.5002 12.4999H17.0002C18.9397 12.4999 19.909 12.5005 20.5002 13.413C21.0912 14.3255 20.7844 15.0109 20.1701 16.3827C19.9535 16.8664 19.6956 17.3337 19.3986 17.7782C18.3548 19.3402 16.8716 20.5582 15.1359 21.2772C13.4 21.9962 11.4895 22.1838 9.64667 21.8173C7.80388 21.4507 6.111 20.5462 4.78241 19.2177C3.45382 17.8891 2.54937 16.1962 2.1828 14.3534C1.81624 12.5105 2.00381 10.6 2.72284 8.86414C3.44183 7.12845 4.65982 5.64526 6.22186 4.60144C6.66642 4.30439 7.13371 4.04656 7.61737 3.82996ZM14.0002 4.99988C14.0003 3.34317 15.3895 1.94658 16.9308 2.55359C18.9915 3.3654 20.6347 5.00851 21.4465 7.06921C22.0534 8.61056 20.6569 9.99978 19.0002 9.99988H15.0002C14.4479 9.99988 14.0002 9.55216 14.0002 8.99988V4.99988Z" fill="#1C274C"/>
</svg>
