<svg width="24" height="24" viewBox="0 0 24 24" fill="none" xmlns="http://www.w3.org/2000/svg">
<path d="M13.0544 1.25C14.4218 1.24998 15.5245 1.24968 16.3914 1.36621C17.2915 1.48723 18.0492 1.74672 18.6511 2.34863C19.253 2.95055 19.5124 3.70829 19.6335 4.6084C19.75 5.47534 19.7498 6.57781 19.7498 7.94531V16.0547C19.7498 17.4222 19.75 18.5246 19.6335 19.3916C19.5124 20.2917 19.253 21.0494 18.6511 21.6514C18.0492 22.2533 17.2915 22.5128 16.3914 22.6338C15.5245 22.7503 14.4218 22.75 13.0544 22.75H10.9451C9.57756 22.75 8.4751 22.7503 7.60815 22.6338C6.70804 22.5128 5.95031 22.2533 5.34839 21.6514C4.7465 21.0494 4.48698 20.2917 4.36597 19.3916C4.24944 18.5246 4.24974 17.4222 4.24976 16.0547V7.94531C4.24974 6.57783 4.24943 5.47534 4.36597 4.6084C4.48699 3.7083 4.74648 2.95055 5.34839 2.34863C5.95031 1.74671 6.70804 1.48723 7.60815 1.36621C8.4751 1.24967 9.57756 1.24998 10.9451 1.25H13.0544ZM10.9998 2.75C9.5646 2.75 8.56364 2.75201 7.80835 2.85352C7.07458 2.95217 6.6857 3.13242 6.40894 3.40918C6.13219 3.68594 5.95192 4.07484 5.85327 4.80859C5.75177 5.56389 5.74976 6.56486 5.74976 8V16C5.74976 17.4354 5.75171 18.437 5.85327 19.1924C5.95193 19.9258 6.13226 20.3141 6.40894 20.5908C6.6857 20.8676 7.07458 21.0478 7.80835 21.1465C8.56365 21.2479 9.56459 21.25 10.9998 21.25H12.9998C14.4352 21.25 15.4367 21.248 16.1921 21.1465C16.9255 21.0478 17.3138 20.8675 17.5906 20.5908C17.8672 20.3141 18.0476 19.9258 18.1462 19.1924C18.2478 18.437 18.2498 17.4354 18.2498 16V8C18.2498 6.56484 18.2478 5.5639 18.1462 4.80859C18.0476 4.07482 17.8673 3.68594 17.5906 3.40918C17.3138 3.1325 16.9255 2.95217 16.1921 2.85352C15.4367 2.75196 14.4352 2.75 12.9998 2.75H10.9998ZM14.4998 18.25C14.914 18.25 15.2498 18.5858 15.2498 19C15.2498 19.4142 14.914 19.75 14.4998 19.75H9.49976C9.08557 19.75 8.74976 19.4142 8.74976 19C8.74976 18.5858 9.08557 18.25 9.49976 18.25H14.4998ZM1.66479 5.3291C2.03521 5.14413 2.48547 5.29468 2.67065 5.66504L3.44702 7.21777C3.69315 7.71027 3.69315 8.28973 3.44702 8.78223L2.89429 9.88867C2.85933 9.95886 2.85933 10.0411 2.89429 10.1113L3.44702 11.2178C3.69316 11.7102 3.69316 12.2898 3.44702 12.7822L2.89429 13.8887C2.85933 13.9589 2.85933 14.0411 2.89429 14.1113L3.44702 15.2178C3.69315 15.7103 3.69316 16.2898 3.44702 16.7822L2.67065 18.335C2.48547 18.7053 2.03521 18.8559 1.66479 18.6709C1.29445 18.4858 1.14393 18.0355 1.32886 17.665L2.10522 16.1113C2.1402 16.0411 2.14021 15.9589 2.10522 15.8887L1.55249 14.7822C1.30638 14.2898 1.30638 13.7102 1.55249 13.2178L2.10522 12.1113C2.14021 12.0411 2.1402 11.9589 2.10522 11.8887L1.55249 10.7822C1.30638 10.2898 1.30638 9.71025 1.55249 9.21777L2.10522 8.11133C2.14021 8.04112 2.1402 7.95888 2.10522 7.88867L1.32886 6.33496C1.14393 5.96456 1.29445 5.51427 1.66479 5.3291ZM21.3289 5.66504C21.5141 5.29456 21.9652 5.14386 22.3357 5.3291C22.7058 5.51439 22.8555 5.96467 22.6707 6.33496L21.8943 7.88867C21.8593 7.95886 21.8593 8.04114 21.8943 8.11133L22.447 9.21777C22.6931 9.71028 22.6931 10.2898 22.447 10.7822L21.8943 11.8887C21.8593 11.9589 21.8593 12.0411 21.8943 12.1113L22.447 13.2178C22.6931 13.7102 22.6931 14.2898 22.447 14.7822L21.8943 15.8887C21.8593 15.9589 21.8593 16.0411 21.8943 16.1113L22.6707 17.665C22.8555 18.0354 22.7058 18.4857 22.3357 18.6709C21.9652 18.8562 21.5141 18.7055 21.3289 18.335L20.5525 16.7822C20.3063 16.2898 20.3063 15.7103 20.5525 15.2178L21.1052 14.1113C21.1401 14.0411 21.1401 13.9589 21.1052 13.8887L20.5525 12.7822C20.3063 12.2898 20.3063 11.7102 20.5525 11.2178L21.1052 10.1113C21.1401 10.0411 21.1401 9.95889 21.1052 9.88867L20.5525 8.78223C20.3063 8.28976 20.3063 7.71024 20.5525 7.21777L21.3289 5.66504Z" fill="#48465C"/>
</svg>
