<svg width="24" height="24" viewBox="0 0 24 24" fill="none" xmlns="http://www.w3.org/2000/svg">
<path fill-rule="evenodd" clip-rule="evenodd" d="M13.0545 1.25C14.4219 1.24998 15.5246 1.24968 16.3915 1.36621C17.2915 1.48723 18.0493 1.74672 18.6512 2.34863C19.2531 2.95055 19.5125 3.70829 19.6336 4.6084C19.7501 5.47534 19.7499 6.57781 19.7499 7.94531V16.0547C19.7499 17.4222 19.7501 18.5246 19.6336 19.3916C19.5125 20.2917 19.2531 21.0494 18.6512 21.6514C18.0493 22.2533 17.2916 22.5128 16.3915 22.6338C15.5246 22.7503 14.4219 22.75 13.0545 22.75H10.9452C9.57766 22.75 8.4752 22.7503 7.60825 22.6338C6.70814 22.5128 5.9504 22.2533 5.34848 21.6514C4.7466 21.0494 4.48708 20.2917 4.36606 19.3916C4.24954 18.5246 4.24983 17.4222 4.24985 16.0547V7.94531C4.24983 6.57783 4.24953 5.47534 4.36606 4.6084C4.48708 3.7083 4.74658 2.95055 5.34848 2.34863C5.9504 1.74671 6.70814 1.48723 7.60825 1.36621C8.4752 1.24967 9.57766 1.24998 10.9452 1.25H13.0545ZM10.9999 2.75C9.56469 2.75 8.56374 2.75201 7.80845 2.85352C7.07468 2.95217 6.68579 3.13242 6.40903 3.40918C6.13228 3.68594 5.95201 4.07484 5.85337 4.80859C5.75186 5.56389 5.74985 6.56486 5.74985 8V16C5.74985 17.4354 5.75181 18.437 5.85337 19.1924C5.95203 19.9258 6.13235 20.3141 6.40903 20.5908C6.68579 20.8676 7.07468 21.0478 7.80845 21.1465C8.56374 21.2479 9.56469 21.25 10.9999 21.25H12.9999C14.4353 21.25 15.4368 21.248 16.1922 21.1465C16.9256 21.0478 17.3139 20.8675 17.5907 20.5908C17.8673 20.3141 18.0477 19.9258 18.1463 19.1924C18.2479 18.437 18.2499 17.4354 18.2499 16V8C18.2499 6.56484 18.2479 5.5639 18.1463 4.80859C18.0477 4.07482 17.8674 3.68594 17.5907 3.40918C17.3139 3.1325 16.9256 2.95218 16.1922 2.85352C15.4368 2.75196 14.4353 2.75 12.9999 2.75H10.9999ZM14.4999 18.25C14.9141 18.25 15.2499 18.5858 15.2499 19C15.2499 19.4142 14.9141 19.75 14.4999 19.75H9.49985C9.08566 19.75 8.74985 19.4142 8.74985 19C8.74985 18.5858 9.08566 18.25 9.49985 18.25H14.4999ZM1.66489 5.3291C2.0353 5.14413 2.48557 5.29468 2.67075 5.66504L3.44712 7.21777C3.69325 7.71027 3.69324 8.28973 3.44712 8.78223L2.89438 9.88867C2.85943 9.95886 2.85943 10.0411 2.89438 10.1113L3.44712 11.2178C3.69326 11.7102 3.69326 12.2898 3.44712 12.7822L2.89438 13.8887C2.85943 13.9589 2.85943 14.0411 2.89438 14.1113L3.44712 15.2178C3.69325 15.7103 3.69326 16.2898 3.44712 16.7822L2.67075 18.335C2.48557 18.7053 2.0353 18.8559 1.66489 18.6709C1.29454 18.4858 1.14402 18.0355 1.32895 17.665L2.10532 16.1113C2.1403 16.0411 2.14031 15.9589 2.10532 15.8887L1.55259 14.7822C1.30647 14.2898 1.30647 13.7102 1.55259 13.2178L2.10532 12.1113C2.14031 12.0411 2.1403 11.9589 2.10532 11.8887L1.55259 10.7822C1.30648 10.2898 1.30648 9.71025 1.55259 9.21777L2.10532 8.11133C2.14031 8.04112 2.1403 7.95888 2.10532 7.88867L1.32895 6.33496C1.14403 5.96456 1.29455 5.51427 1.66489 5.3291ZM21.329 5.66504C21.5142 5.29456 21.9653 5.14386 22.3358 5.3291C22.7059 5.51439 22.8556 5.96467 22.6707 6.33496L21.8944 7.88867C21.8594 7.95886 21.8594 8.04114 21.8944 8.11133L22.4471 9.21777C22.6932 9.71028 22.6932 10.2898 22.4471 10.7822L21.8944 11.8887C21.8594 11.9589 21.8594 12.0411 21.8944 12.1113L22.4471 13.2178C22.6932 13.7102 22.6932 14.2898 22.4471 14.7822L21.8944 15.8887C21.8594 15.9589 21.8594 16.0411 21.8944 16.1113L22.6707 17.665C22.8556 18.0354 22.7059 18.4857 22.3358 18.6709C21.9653 18.8562 21.5142 18.7055 21.329 18.335L20.5526 16.7822C20.3064 16.2898 20.3064 15.7103 20.5526 15.2178L21.1053 14.1113C21.1402 14.0411 21.1402 13.9589 21.1053 13.8887L20.5526 12.7822C20.3064 12.2898 20.3064 11.7102 20.5526 11.2178L21.1053 10.1113C21.1402 10.0411 21.1402 9.95889 21.1053 9.88867L20.5526 8.78223C20.3064 8.28976 20.3064 7.71024 20.5526 7.21777L21.329 5.66504Z" fill="#1C274C"/>
</svg>
