<svg width="24" height="24" viewBox="0 0 24 24" fill="none" xmlns="http://www.w3.org/2000/svg">
<path d="M9.55762 8.95898C10.1255 8.83447 10.8175 8.79024 11.502 8.97266C12.2042 9.15986 12.8787 9.58241 13.3633 10.3457C13.8381 11.0935 14.0947 12.1107 14.0947 13.4346C14.0946 18.5173 10.1338 22.75 5 22.75C4.58579 22.75 4.25 22.4142 4.25 22C4.25 21.5858 4.58579 21.25 5 21.25C9.25481 21.25 12.5946 17.7403 12.5947 13.4346C12.5947 12.2912 12.3712 11.5819 12.0967 11.1494C11.8321 10.733 11.4884 10.5211 11.1162 10.4219C10.7262 10.3179 10.2869 10.3353 9.87891 10.4248C9.46289 10.516 9.15169 10.666 9.02637 10.7549C8.70668 10.9816 8.3803 11.4085 8.24512 11.8564C8.11717 12.2804 8.18066 12.6161 8.44434 12.8711L8.46973 12.8955C8.76719 13.1834 8.77503 13.6584 8.4873 13.9561C8.19943 14.2537 7.72455 14.2615 7.42676 13.9736L7.40234 13.9502C6.62432 13.1983 6.56883 12.2206 6.80957 11.4229C7.04307 10.6495 7.5724 9.94612 8.15918 9.53027C8.48725 9.29782 8.99768 9.08176 9.55762 8.95898ZM15.5068 14.4639C17.7235 14.1069 19.75 15.8033 19.75 18.0488V21.9961C19.7498 22.4101 19.4141 22.7461 19 22.7461C18.5859 22.7461 18.2502 22.4101 18.25 21.9961V18.0488C18.25 16.7426 17.0663 15.7328 15.7461 15.9453C15.3371 16.0111 14.9516 15.7321 14.8857 15.3232C14.8203 14.9145 15.0983 14.5299 15.5068 14.4639ZM14.5 1.25C16.2949 1.25 17.75 2.70507 17.75 4.5C17.75 6.29493 16.2949 7.75 14.5 7.75C12.7051 7.75 11.25 6.29493 11.25 4.5C11.25 2.70507 12.7051 1.25 14.5 1.25ZM14.5 2.75C13.5335 2.75 12.75 3.5335 12.75 4.5C12.75 5.4665 13.5335 6.25 14.5 6.25C15.4665 6.25 16.25 5.4665 16.25 4.5C16.25 3.5335 15.4665 2.75 14.5 2.75Z" fill="#1C274C"/>
</svg>
