<svg width="24" height="24" viewBox="0 0 24 24" fill="none" xmlns="http://www.w3.org/2000/svg">
<path d="M21.8525 6.26465C22.2586 6.18344 22.654 6.44658 22.7354 6.85254C22.8166 7.25859 22.5535 7.65395 22.1475 7.73535L21.0244 7.95996C20.6749 8.02985 20.4734 8.07108 20.3291 8.11719C20.2644 8.13788 20.2314 8.15339 20.2158 8.16211C20.2091 8.16585 20.2056 8.16952 20.2051 8.16992L20.2031 8.17188C20.2025 8.17277 20.1995 8.17626 20.1963 8.18262C20.1883 8.19857 20.1748 8.23286 20.1572 8.29883C20.1183 8.44516 20.0861 8.64787 20.0332 9L18.9424 16.2734C20.9318 15.9351 22.75 17.4687 22.75 19.4893C22.7498 21.29 21.29 22.7498 19.4893 22.75H3.08691C2.07245 22.75 1.25 21.9275 1.25 20.9131C1.25005 20.0208 1.8916 19.2573 2.77051 19.1035L17.3848 16.5459L18.5547 8.74316C18.6006 8.43721 18.6446 8.14967 18.708 7.91211C18.7786 7.64725 18.8911 7.37407 19.1182 7.13574C19.3451 6.89758 19.612 6.7719 19.873 6.68848C20.1074 6.61364 20.3928 6.55675 20.6963 6.49609L21.8525 6.26465ZM21.25 19.4893C21.25 18.3953 20.2631 17.5655 19.1855 17.7539L3.02832 20.5811C2.86737 20.6094 2.75005 20.7496 2.75 20.9131C2.75 21.0991 2.90088 21.25 3.08691 21.25H19.4893C20.4616 21.2498 21.2498 20.4616 21.25 19.4893ZM6.20996 6.04688C7.60375 5.17576 9.33594 5.04204 10.8467 5.68945C12.0282 6.19581 12.3247 7.73547 11.416 8.64453L9.76172 10.2988C9.41232 10.6483 9.43872 11.2227 9.81836 11.5391L10.8145 12.3691C11.4072 12.8631 11.7499 13.5947 11.75 14.3662V16C11.75 16.4142 11.4142 16.75 11 16.75C10.5858 16.75 10.25 16.4142 10.25 16V14.3662C10.2499 14.0399 10.1051 13.7303 9.85449 13.5215L8.85742 12.6914C7.80023 11.8104 7.72808 10.2114 8.70117 9.23828L10.3555 7.58398C10.5138 7.4253 10.4619 7.15669 10.2559 7.06836C9.19671 6.61442 7.98209 6.70765 7.00488 7.31836L4.89746 8.63574C4.54624 8.85525 4.08381 8.74864 3.86426 8.39746C3.64475 8.04624 3.75136 7.58381 4.10254 7.36426L6.20996 6.04688ZM7.53027 14.5303L7.11621 14.9443C6.62278 15.4387 6.23203 15.8304 5.72363 16.041C5.21529 16.2515 4.66229 16.2506 3.96387 16.25H3V14.75H3.84277C4.72146 14.75 4.95272 14.7371 5.15039 14.6553C5.34794 14.5733 5.52055 14.4189 6.1416 13.7979L6.46973 13.4697L7.53027 14.5303ZM15.5 9.25C15.9142 9.25 16.25 9.58579 16.25 10C16.25 10.4142 15.9142 10.75 15.5 10.75H12.5C12.0858 10.75 11.75 10.4142 11.75 10C11.75 9.58579 12.0858 9.25 12.5 9.25H15.5ZM15 1.25C16.5188 1.25 17.75 2.48122 17.75 4C17.75 5.51878 16.5188 6.75 15 6.75C13.4812 6.75 12.25 5.51878 12.25 4C12.25 2.48122 13.4812 1.25 15 1.25ZM15 2.75C14.3096 2.75 13.75 3.30964 13.75 4C13.75 4.69036 14.3096 5.25 15 5.25C15.6904 5.25 16.25 4.69036 16.25 4C16.25 3.30964 15.6904 2.75 15 2.75Z" fill="#1C274C"/>
</svg>
