<svg width="24" height="24" viewBox="0 0 24 24" fill="none" xmlns="http://www.w3.org/2000/svg">
<path d="M4.73209 7.03711C5.01682 6.96597 5.35953 7.00644 6.04459 7.08887L8.98502 7.44336C9.67004 7.52579 10.0125 7.56696 10.2682 7.70312C10.609 7.88463 10.8582 8.1837 10.9606 8.53516C11.0374 8.79887 10.993 9.11651 10.904 9.75098C10.815 10.3854 10.7706 10.7027 10.6237 10.9395C10.4277 11.2552 10.1039 11.4863 9.72427 11.5811C9.43947 11.6522 8.72946 11.5668 8.04459 11.4844L7.1608 17.7822C7.84587 17.8646 8.5565 17.9497 8.81216 18.0859C9.1529 18.2675 9.40215 18.5674 9.50455 18.9189C9.58119 19.1825 9.53684 19.4998 9.44791 20.1338C9.35891 20.7683 9.31367 21.0855 9.16666 21.3223C8.97067 21.6379 8.64776 21.869 8.26822 21.9639C7.98351 22.0351 7.64069 21.9936 6.95572 21.9111L4.01529 21.5576C3.33058 21.4753 2.9877 21.4339 2.73209 21.2979C2.39123 21.1164 2.14213 20.8164 2.0397 20.4648C1.96288 20.2011 2.00734 19.8835 2.09634 19.249C2.1853 18.6149 2.22964 18.2973 2.37662 18.0605C2.57267 17.745 2.89652 17.5147 3.27603 17.4199C3.56097 17.3489 4.2709 17.4342 4.95572 17.5166L5.83853 11.2188C5.15359 11.1364 4.44375 11.0502 4.18814 10.9141C3.84743 10.7326 3.59821 10.4335 3.49576 10.082C3.41894 9.81834 3.4634 9.50069 3.5524 8.86621C3.64138 8.23187 3.68569 7.91449 3.83267 7.67773C4.02868 7.36207 4.35249 7.13199 4.73209 7.03711ZM17.6501 2.00781C18.0192 2.05458 18.3541 2.24111 18.5807 2.52539C18.7505 2.73858 18.8354 3.04258 19.0045 3.65039C19.1738 4.25845 19.2577 4.56266 19.2213 4.8291C19.1727 5.18434 18.9795 5.50648 18.6842 5.72461C18.4625 5.88814 17.8079 6.05687 17.1764 6.21973L18.8571 12.2559C19.4887 12.093 20.1438 11.9239 20.4206 11.959C20.7894 12.0058 21.1237 12.1924 21.3503 12.4766C21.52 12.6898 21.6048 12.9938 21.7741 13.6016C21.9434 14.2096 22.0283 14.5138 21.9919 14.7803C21.9433 15.1354 21.7501 15.4576 21.4547 15.6758C21.2333 15.8393 20.9172 15.9201 20.2858 16.083L17.5739 16.7832C16.9427 16.9461 16.6269 17.027 16.3503 16.9922C15.9812 16.9454 15.6462 16.7589 15.4196 16.4746C15.2498 16.2614 15.1649 15.9575 14.9958 15.3496C14.8265 14.7417 14.7416 14.4373 14.778 14.1709C14.8267 13.8157 15.0199 13.4934 15.3151 13.2754C15.5366 13.1118 16.1914 12.9432 16.8229 12.7803L15.1432 6.74414C14.5115 6.90708 13.8565 7.0761 13.5797 7.04102C13.2109 6.99422 12.8766 6.80847 12.6501 6.52441C12.4802 6.31127 12.3954 6.00713 12.2262 5.39941C12.057 4.79154 11.972 4.48709 12.0085 4.2207C12.0569 3.86548 12.2502 3.54332 12.5456 3.3252C12.7671 3.1616 13.0828 3.07992 13.7145 2.91699L16.4254 2.21777C17.057 2.05488 17.3733 1.97279 17.6501 2.00781Z" fill="#1C274C"/>
</svg>
