<svg width="24" height="24" viewBox="0 0 24 24" fill="none" xmlns="http://www.w3.org/2000/svg">
<path d="M8.37555 17.084C8.60524 16.7394 9.07098 16.6465 9.41559 16.876C9.76017 17.1056 9.85415 17.5714 9.62457 17.916L6.62457 22.416C6.3948 22.7607 5.92821 22.8538 5.58356 22.624C5.23924 22.3943 5.14602 21.9285 5.37555 21.584L8.37555 17.084ZM12.6353 9.25684C13.749 9.33673 14.7036 10.0825 15.0513 11.1436C15.0822 11.2377 15.1082 11.3407 15.1412 11.4727L15.147 11.4971C15.203 11.7211 15.2204 11.7846 15.2359 11.8291C15.4461 12.4351 16.0805 12.7836 16.7047 12.6357C16.7504 12.6249 16.8135 12.6052 17.0328 12.5322L17.7632 12.2881C18.156 12.1574 18.5805 12.37 18.7115 12.7627C18.8424 13.1557 18.6299 13.5809 18.2369 13.7119L17.4752 13.9658C17.3033 14.0232 17.1712 14.0672 17.0513 14.0957C15.6781 14.4213 14.2806 13.6545 13.8179 12.3213C13.7775 12.2048 13.7447 12.0694 13.7007 11.8936C13.698 11.8827 13.6948 11.8716 13.692 11.8604C13.6503 11.6941 13.6384 11.6476 13.6265 11.6113C13.4684 11.1289 13.0342 10.7892 12.5279 10.7529C12.4898 10.7502 12.4421 10.75 12.2701 10.75H11.1793L11.0875 11.6611C10.9135 13.4012 10.8531 14.101 11.0084 14.7627C11.1639 15.4244 11.5297 16.0241 12.4605 17.5049L15.0357 21.6006C15.2561 21.9513 15.1501 22.4143 14.7994 22.6348C14.4487 22.8551 13.9856 22.75 13.7652 22.3994L11.191 18.3027C11.1665 18.2639 11.1417 18.2256 11.1177 18.1875C10.283 16.8601 9.76802 16.0409 9.5484 15.1064C9.32882 14.1719 9.42532 13.2087 9.5816 11.6484C9.58607 11.6038 9.59071 11.5584 9.59528 11.5127L9.67145 10.751C9.17027 10.7536 8.79887 10.7635 8.49957 10.7998C8.12266 10.8456 7.94641 10.9255 7.82184 11.0254C7.69742 11.1254 7.58197 11.28 7.45563 11.6377C7.32231 12.0153 7.20659 12.5259 7.03571 13.2949L6.73199 14.6631C6.64197 15.0671 6.24162 15.3222 5.83746 15.2324C5.43311 15.1426 5.17827 14.7413 5.26813 14.3369L5.5816 12.9258C5.74005 12.2127 5.87346 11.6122 6.04059 11.1387C6.21802 10.6362 6.45958 10.1944 6.88336 9.85449C7.30705 9.51464 7.79006 9.37477 8.31891 9.31055C8.81741 9.25005 9.43293 9.24997 10.1636 9.25H12.2945C12.4306 9.24997 12.5364 9.24975 12.6353 9.25684ZM11.4996 2C12.8804 2 13.9996 3.11929 13.9996 4.5C13.9996 5.88071 12.8804 7 11.4996 7C10.1191 6.99976 9.00055 5.88056 9.00055 4.5C9.00055 3.11944 10.1191 2.00024 11.4996 2Z" fill="#1C274C"/>
</svg>
