<svg width="24" height="24" viewBox="0 0 24 24" fill="none" xmlns="http://www.w3.org/2000/svg">
<path d="M15.3005 1.25C15.5203 1.24994 15.6894 1.24982 15.8367 1.26562C17.1906 1.41115 18.2269 2.52324 18.2898 3.87012C19.5324 4.24111 20.4021 5.42464 20.3416 6.75684C20.7401 6.9366 21.0934 7.18549 21.3953 7.53027C22.0114 8.23424 22.1996 9.09559 22.2068 10.1006C22.2138 11.0723 22.0498 12.3018 21.8455 13.834L21.4314 16.9424C21.2717 18.1402 21.1422 19.11 20.9412 19.8691C20.732 20.6592 20.4228 21.314 19.8435 21.8213C19.2641 22.3285 18.5742 22.5485 17.7634 22.6514C16.9844 22.7502 16.006 22.75 14.7976 22.75H9.20288C7.99448 22.75 7.0161 22.7502 6.23706 22.6514C5.42613 22.5485 4.73547 22.3286 4.15601 21.8213C3.57684 21.314 3.26847 20.659 3.05933 19.8691C2.85839 19.11 2.72878 18.1402 2.56909 16.9424L2.15405 13.834C1.94974 12.3018 1.78673 11.0723 1.7937 10.1006C1.80092 9.09549 1.98897 8.23428 2.60522 7.53027C2.90706 7.18553 3.25956 6.93658 3.65796 6.75684C3.59746 5.42482 4.4674 4.24126 5.70972 3.87012C5.7726 2.52307 6.80965 1.41095 8.16382 1.26562C8.31103 1.24984 8.47943 1.24994 8.69897 1.25H15.3005ZM6.89917 15.0771C6.40121 14.665 5.55079 14.636 5.00757 15.0293L3.9314 15.8086L4.04956 16.6943C4.21752 17.954 4.33481 18.829 4.50854 19.4854C4.67687 20.1211 4.87532 20.4579 5.14429 20.6934C5.41325 20.9288 5.77319 21.0803 6.42554 21.1631C7.0991 21.2486 7.98184 21.25 9.25269 21.25H14.7468C16.0177 21.25 16.9003 21.2485 17.574 21.1631C18.2262 21.0803 18.5863 20.9286 18.8552 20.6934C18.9714 20.5917 19.0746 20.4707 19.1677 20.3154L16.6677 18.4531C15.9852 17.9447 14.9254 17.8845 14.1541 18.333L13.8875 18.4883C12.9157 19.0536 11.6041 18.9715 10.7371 18.2539L6.89917 15.0771ZM8.85327 7.75C7.23489 7.75 6.10013 7.75218 5.25464 7.87109C4.43087 7.98701 4.01404 8.19808 3.73413 8.51758C3.45417 8.83735 3.29968 9.2789 3.2937 10.1113C3.28757 10.9651 3.43528 12.0901 3.64917 13.6943L3.70581 14.1191L4.12769 13.8145C5.21516 13.0269 6.82203 13.0649 7.8562 13.9209L11.6941 17.0977C12.0567 17.3978 12.6815 17.4546 13.1326 17.1924L13.3992 17.0371C14.6754 16.2947 16.3867 16.3727 17.5642 17.25L19.6414 18.7979C19.7437 18.2422 19.8357 17.5588 19.9509 16.6943L20.3513 13.6943C20.5652 12.0901 20.7129 10.9651 20.7068 10.1113C20.7008 9.2789 20.5463 8.83735 20.2664 8.51758C19.9865 8.19789 19.5691 7.98703 18.7449 7.87109C17.8994 7.7522 16.7654 7.75 15.1472 7.75H8.85327ZM16.4998 9.25C17.7425 9.25 18.7498 10.2574 18.7498 11.5C18.7498 12.7427 17.7425 13.75 16.4998 13.75C15.2573 13.7499 14.2498 12.7426 14.2498 11.5C14.2498 10.2575 15.2573 9.25013 16.4998 9.25ZM16.4998 10.75C16.0857 10.7501 15.7498 11.0859 15.7498 11.5C15.7498 11.9141 16.0857 12.2499 16.4998 12.25C16.914 12.25 17.2498 11.9142 17.2498 11.5C17.2498 11.0858 16.914 10.75 16.4998 10.75ZM6.53784 5.25C5.85472 5.25013 5.30359 5.74073 5.1814 6.36719C6.12366 6.24979 7.32044 6.24998 8.79468 6.25H15.2058C16.6803 6.24998 17.8768 6.24973 18.8191 6.36719C18.6969 5.74061 18.145 5.25 17.4617 5.25H6.53784ZM8.32397 2.75684C7.77377 2.81589 7.3387 3.22633 7.23218 3.75H16.7673C16.6608 3.22645 16.2266 2.81599 15.6765 2.75684C15.6202 2.7508 15.5394 2.75 15.2585 2.75H8.74097C8.46064 2.75 8.38023 2.75082 8.32397 2.75684Z" fill="#1C274C"/>
</svg>
