<svg width="24" height="24" viewBox="0 0 24 24" fill="none" xmlns="http://www.w3.org/2000/svg">
<path fill-rule="evenodd" clip-rule="evenodd" d="M11.9997 1.25C12.7248 1.25 13.3869 1.44912 14.111 1.78711C14.812 2.11429 15.6226 2.59706 16.6384 3.20215L18.0935 4.06934C19.2126 4.73597 20.1048 5.26742 20.78 5.77539C21.4769 6.29973 21.9997 6.83975 22.3405 7.55078C22.6816 8.26225 22.7745 9.00694 22.7448 9.87598C22.7161 10.717 22.569 11.7394 22.3845 13.0215L22.0925 15.0537C21.8551 16.7036 21.6659 18.0129 21.3845 19.0322C21.0944 20.0829 20.6828 20.9171 19.9401 21.5566C19.198 22.1956 18.3097 22.4819 17.2234 22.6182C16.1683 22.7504 14.8371 22.75 13.1579 22.75H10.8425C9.163 22.75 7.83128 22.7505 6.77608 22.6182C5.68968 22.4819 4.80143 22.1957 4.05929 21.5566C3.31659 20.9171 2.90504 20.0829 2.61495 19.0322C2.33352 18.0128 2.14531 16.7036 1.90792 15.0537L1.61593 13.0215C1.43145 11.7395 1.2843 10.717 1.25558 9.87598C1.22593 9.00699 1.31787 8.26221 1.6589 7.55078C1.99982 6.83966 2.52341 6.29978 3.22042 5.77539C3.89558 5.26747 4.78698 4.73589 5.90597 4.06934L7.36202 3.20215C8.37781 2.59704 9.18845 2.11427 9.88937 1.78711C10.6134 1.44918 11.2748 1.25005 11.9997 1.25ZM11.9997 2.75C11.5707 2.75005 11.1329 2.86235 10.5241 3.14648C9.89968 3.43796 9.15289 3.88082 8.09542 4.51074L6.71066 5.33594C5.54636 6.02951 4.72467 6.52008 4.12179 6.97363C3.53332 7.41635 3.21098 7.78299 3.01144 8.19922C2.81215 8.61498 2.7297 9.09324 2.7546 9.82422C2.78019 10.5739 2.91414 11.5161 3.10616 12.8506L3.38546 14.7881C3.63195 16.5012 3.80815 17.716 4.06124 18.6328C4.3086 19.5287 4.60651 20.0477 5.03878 20.4199C5.47157 20.7925 6.03246 21.0132 6.96261 21.1299C7.91366 21.2491 9.15159 21.25 10.8942 21.25H13.1062C14.8487 21.25 16.0859 21.2491 17.0368 21.1299C17.9674 21.0132 18.5287 20.7927 18.9616 20.4199C19.3939 20.0477 19.6918 19.5287 19.9392 18.6328C20.1922 17.716 20.3685 16.5012 20.615 14.7881L20.8933 12.8516C21.0853 11.5168 21.2202 10.574 21.2458 9.82422C21.2707 9.09317 21.1874 8.61501 20.988 8.19922C20.7885 7.78302 20.466 7.41632 19.8776 6.97363C19.2748 6.52019 18.4537 6.02928 17.2898 5.33594L15.904 4.51074C14.8468 3.88096 14.1007 3.43792 13.4763 3.14648C12.8672 2.86218 12.429 2.75 11.9997 2.75ZM11.9997 14.25C12.4139 14.25 12.7497 14.5858 12.7497 15V18C12.7497 18.4142 12.4139 18.75 11.9997 18.75C11.5857 18.7498 11.2497 18.4141 11.2497 18V15C11.2497 14.5859 11.5857 14.2502 11.9997 14.25Z" fill="#1C274C"/>
</svg>
