<svg width="24" height="24" viewBox="0 0 24 24" fill="none" xmlns="http://www.w3.org/2000/svg">
<path d="M20.9091 13.332C22.5125 15.4518 22.3486 18.4834 20.416 20.416C18.4834 22.3487 15.4518 22.5126 13.332 20.9092L20.9091 13.332ZM19.8857 12.2344L12.2343 19.8848L4.11517 11.7656L11.7656 4.11523L19.8857 12.2344ZM12.707 14.1211C12.3164 13.7308 11.6834 13.7306 11.2929 14.1211C10.9025 14.5115 10.9026 15.1446 11.2929 15.5352C11.6835 15.9257 12.3164 15.9257 12.707 15.5352C13.0975 15.1447 13.0975 14.5116 12.707 14.1211ZM9.87885 11.293C9.48837 10.9025 8.85532 10.9026 8.46478 11.293C8.07426 11.6835 8.07426 12.3165 8.46478 12.707C8.85532 13.0974 9.48837 13.0975 9.87885 12.707C10.2692 12.3166 10.2692 11.6834 9.87885 11.293ZM15.5351 11.293C15.1446 10.9026 14.5115 10.9025 14.121 11.293C13.7306 11.6834 13.7306 12.3166 14.121 12.707C14.5115 13.0975 15.1446 13.0974 15.5351 12.707C15.9256 12.3165 15.9256 11.6835 15.5351 11.293ZM3.5849 3.58496C5.51753 1.65232 8.54806 1.48748 10.6679 3.09082L3.09076 10.668C1.48742 8.54812 1.65226 5.51759 3.5849 3.58496ZM12.707 8.46484C12.3164 8.07434 11.6835 8.07433 11.2929 8.46484C10.9026 8.85539 10.9025 9.48845 11.2929 9.87891C11.6834 10.2694 12.3164 10.2692 12.707 9.87891C13.0975 9.48838 13.0975 8.85537 12.707 8.46484Z" fill="#1C274C"/>
</svg>
