<svg width="24" height="24" viewBox="0 0 24 24" fill="none" xmlns="http://www.w3.org/2000/svg">
<path d="M11.9999 12.25C14.3133 12.25 16.4448 12.7758 18.0243 13.6641C19.5802 14.5394 20.7499 15.8661 20.7499 17.5V17.6016C20.751 18.7634 20.7525 20.2222 19.4735 21.2637C18.844 21.7762 17.963 22.1409 16.7733 22.3818C15.5804 22.6232 14.0254 22.75 11.9999 22.75C9.97434 22.75 8.41943 22.6232 7.22644 22.3818C6.03672 22.1409 5.15571 21.7763 4.52625 21.2637C3.24723 20.2222 3.24875 18.7634 3.24988 17.6016V17.5C3.24988 15.8661 4.4195 14.5394 5.97546 13.6641C7.55491 12.7757 9.68644 12.25 11.9999 12.25ZM11.9999 13.75C9.89521 13.75 8.02676 14.2315 6.71082 14.9717C5.37136 15.7251 4.74988 16.6487 4.74988 17.5C4.74988 18.8078 4.79024 19.5442 5.47351 20.1006C5.844 20.4023 6.46339 20.6966 7.52332 20.9111C8.58025 21.125 10.0257 21.25 11.9999 21.25C13.9741 21.25 15.4195 21.125 16.4764 20.9111C17.5364 20.6966 18.1558 20.4023 18.5262 20.1006C19.2095 19.5442 19.2499 18.8078 19.2499 17.5C19.2499 16.6487 18.6283 15.7251 17.2889 14.9717C15.9729 14.2315 14.1045 13.75 11.9999 13.75ZM11.9999 1.25C14.6233 1.25 16.7499 3.37665 16.7499 6C16.7499 8.62335 14.6233 10.75 11.9999 10.75C9.37656 10.75 7.24988 8.62333 7.24988 6C7.24988 3.37667 9.37656 1.25003 11.9999 1.25ZM11.9999 2.75C10.205 2.75003 8.74988 4.20509 8.74988 6C8.74988 7.79491 10.205 9.24997 11.9999 9.25C13.7948 9.25 15.2499 7.79493 15.2499 6C15.2499 4.20507 13.7948 2.75 11.9999 2.75Z" fill="#1C274C"/>
</svg>
