<svg width="24" height="24" viewBox="0 0 24 24" fill="none" xmlns="http://www.w3.org/2000/svg">
<path d="M12 12.25C14.3134 12.25 16.445 12.7758 18.0244 13.6641C19.5803 14.5394 20.75 15.8661 20.75 17.5V17.6016C20.7511 18.7634 20.7526 20.2222 19.4736 21.2637C18.8442 21.7761 17.9638 22.141 16.7744 22.3818C15.5814 22.6232 14.0258 22.75 12 22.75C9.97445 22.75 8.41955 22.6232 7.22656 22.3818C6.03683 22.1409 5.15584 21.7763 4.52637 21.2637C3.24741 20.2222 3.24887 18.7633 3.25 17.6016V17.5C3.25 15.8661 4.41963 14.5394 5.97559 13.6641C7.55502 12.7757 9.68656 12.25 12 12.25ZM12 13.75C9.89537 13.75 8.02686 14.2315 6.71094 14.9717C5.37152 15.7251 4.75 16.6487 4.75 17.5C4.75 18.8078 4.79036 19.5442 5.47363 20.1006C5.84416 20.4024 6.46415 20.6965 7.52441 20.9111C8.5813 21.125 10.0261 21.25 12 21.25C13.9742 21.25 15.4197 21.125 16.4766 20.9111C17.5365 20.6966 18.1559 20.4023 18.5264 20.1006C19.2097 19.5442 19.25 18.8078 19.25 17.5C19.25 16.6487 18.6285 15.7251 17.2891 14.9717C15.9731 14.2316 14.1046 13.75 12 13.75ZM12 1.25C14.6234 1.25 16.75 3.37665 16.75 6C16.75 8.62335 14.6234 10.75 12 10.75C9.37669 10.75 7.25 8.62333 7.25 6C7.25 3.37667 9.37669 1.25003 12 1.25ZM12 2.75C10.2051 2.75003 8.75 4.20509 8.75 6C8.75 7.79491 10.2051 9.24997 12 9.25C13.7949 9.25 15.25 7.79493 15.25 6C15.25 4.20507 13.7949 2.75 12 2.75Z" fill="#48465C"/>
</svg>
