<svg width="24" height="24" viewBox="0 0 24 24" fill="none" xmlns="http://www.w3.org/2000/svg">
<path d="M19 7C19.9319 7 20.398 7.0001 20.7656 7.15234C21.2554 7.35532 21.6447 7.74453 21.8477 8.23438C21.9999 8.60192 22 9.06812 22 10V14C22 14.9319 21.9999 15.398 21.8477 15.7656C21.6447 16.2554 21.2554 16.6447 20.7656 16.8477C20.398 16.9999 19.9319 17 19 17C18.0681 17 17.602 16.9999 17.2344 16.8477C16.7446 16.6447 16.3553 16.2554 16.1523 15.7656C16.0001 15.398 16 14.4319 16 13.5H8C8 14.4319 7.9999 15.398 7.84766 15.7656C7.64468 16.2554 7.25547 16.6447 6.76562 16.8477C6.39808 16.9999 5.93188 17 5 17C4.06812 17 3.60192 16.9999 3.23438 16.8477C2.74453 16.6447 2.35532 16.2554 2.15234 15.7656C2.0001 15.398 2 14.9319 2 14V10C2 9.06812 2.0001 8.60192 2.15234 8.23438C2.35533 7.74453 2.74453 7.35533 3.23438 7.15234C3.60192 7.0001 4.06812 7 5 7C5.93188 7 6.39808 7.0001 6.76562 7.15234C7.25547 7.35533 7.64467 7.74453 7.84766 8.23438C7.9999 8.60192 8 9.56812 8 10.5H16C16 9.56812 16.0001 8.60192 16.1523 8.23438C16.3553 7.74453 16.7446 7.35532 17.2344 7.15234C17.602 7.0001 18.0681 7 19 7Z" fill="#1C274C"/>
</svg>
