<svg width="24" height="24" viewBox="0 0 24 24" fill="none" xmlns="http://www.w3.org/2000/svg">
<path d="M14.25 21H10C6.22878 21 4.34346 20.9997 3.17188 19.8281C2.00031 18.6566 2 16.7712 2 13V11C2 7.22877 2.00031 5.34344 3.17188 4.17188C4.34345 3.00031 6.22876 3 10 3H14.25V21ZM15.75 3.00586C18.3859 3.03347 19.8538 3.19755 20.8281 4.17188C21.9997 5.34345 22 7.22879 22 11V13C22 16.7712 21.9997 18.6566 20.8281 19.8281C19.8538 20.8025 18.3859 20.9665 15.75 20.9941V3.00586ZM9.26367 13.2979C8.87595 13.1524 8.44342 13.3487 8.29785 13.7363L6.79785 17.7363C6.65245 18.124 6.84871 18.5565 7.23633 18.7021C7.62405 18.8475 8.05657 18.6513 8.20215 18.2637L9.70215 14.2637C9.84755 13.876 9.65131 13.4434 9.26367 13.2979ZM11.0303 15.4697C10.7374 15.1768 10.2627 15.1768 9.96973 15.4697C9.67684 15.7626 9.67684 16.2374 9.96973 16.5303L10.4395 17L9.96973 17.4697C9.67684 17.7626 9.67684 18.2374 9.96973 18.5303C10.2627 18.8232 10.7374 18.8232 11.0303 18.5303L12.0303 17.5303C12.3232 17.2374 12.3232 16.7626 12.0303 16.4697L11.0303 15.4697ZM6.53027 13.4697C6.23739 13.1768 5.76261 13.1768 5.46973 13.4697L4.46973 14.4697C4.17684 14.7626 4.17684 15.2374 4.46973 15.5303L5.46973 16.5303C5.76261 16.8231 6.23739 16.8231 6.53027 16.5303C6.82316 16.2374 6.82316 15.7626 6.53027 15.4697L6.06055 15L6.53027 14.5303C6.82316 14.2374 6.82316 13.7626 6.53027 13.4697Z" fill="#1C274C"/>
</svg>
