<svg width="24" height="24" viewBox="0 0 24 24" fill="none" xmlns="http://www.w3.org/2000/svg">
<path d="M12 2C13.7004 2 15.0942 1.99963 16.25 2.06836V7.96484C16.25 8.04841 16.2082 8.12649 16.1387 8.17285L13.584 9.87598C13.2394 10.1057 13.1463 10.5714 13.376 10.916C13.6058 11.2607 14.0714 11.3538 14.416 11.124L16.9707 9.4209C17.4576 9.09634 17.75 8.54994 17.75 7.96484V2.22168C18.9727 2.41595 19.8512 2.78082 20.5352 3.46484C21.9996 4.9293 22 7.28597 22 12C22 16.714 21.9997 19.0708 20.5352 20.5352C19.0708 21.9997 16.714 22 12 22C7.28597 22 4.9293 21.9996 3.46484 20.5352C2.00037 19.0708 2 16.714 2 12C2 7.28595 2.00037 4.9293 3.46484 3.46484C4.9293 2.00037 7.28595 2 12 2ZM12 6.25C8.82436 6.25 6.25 8.82436 6.25 12C6.25 15.1756 8.82436 17.75 12 17.75C15.1756 17.75 17.75 15.1756 17.75 12C17.75 11.5858 17.4142 11.25 17 11.25C16.5858 11.25 16.25 11.5858 16.25 12C16.25 14.3472 14.3472 16.25 12 16.25C9.65279 16.25 7.75 14.3472 7.75 12C7.75 9.65279 9.65279 7.75 12 7.75C12.4455 7.75 12.8737 7.81819 13.2754 7.94434C13.6704 8.06839 14.0916 7.84906 14.2158 7.4541C14.34 7.05892 14.1198 6.63779 13.7246 6.51367C13.1792 6.34237 12.5997 6.25 12 6.25ZM10 11.25C9.58579 11.25 9.25 11.5858 9.25 12C9.25 13.5188 10.4812 14.75 12 14.75C12.4142 14.75 12.75 14.4142 12.75 14C12.75 13.5858 12.4142 13.25 12 13.25C11.3096 13.25 10.75 12.6904 10.75 12C10.75 11.5858 10.4142 11.25 10 11.25Z" fill="#1C274C"/>
</svg>
