<svg width="24" height="24" viewBox="0 0 24 24" fill="none" xmlns="http://www.w3.org/2000/svg">
<path d="M12 1.25C17.9389 1.25 22.75 6.07674 22.75 12.0264C22.75 14.1714 22.2132 15.6101 21.1748 16.459C20.1609 17.2878 18.8497 17.3976 17.6865 17.3418C17.0931 17.3134 16.493 17.2395 15.9395 17.168C15.9007 17.163 15.8625 17.1573 15.8242 17.1523C15.3048 17.0851 14.8336 17.0242 14.4033 16.998C13.9373 16.9698 13.5831 16.9876 13.3242 17.0557C13.084 17.1189 12.9677 17.2129 12.8965 17.3262C12.8578 17.3879 12.8305 17.4842 12.9004 17.6777C12.9746 17.8831 13.1367 18.1195 13.3477 18.3311C14.2931 19.2789 14.2931 20.8148 13.3477 21.7627C12.6975 22.4146 11.7679 22.8473 10.7607 22.7314C5.4056 22.1147 1.25013 17.5563 1.25 12.0264C1.25 6.07674 6.0611 1.25 12 1.25ZM12 2.75C6.89321 2.75 2.75 6.90148 2.75 12.0264C2.75013 16.7886 6.32871 20.7112 10.9326 21.2412C11.395 21.2944 11.8903 21.0999 12.2861 20.7031C12.6471 20.3408 12.6472 19.7529 12.2861 19.3906C11.9743 19.0779 11.6615 18.661 11.4902 18.1875C11.3149 17.7023 11.2713 17.093 11.627 16.5273C11.9499 16.0138 12.4344 15.7392 12.9424 15.6055C13.4315 15.4768 13.9736 15.4694 14.4941 15.501C14.9781 15.5304 15.4995 15.5976 16.0049 15.6631C16.0473 15.6687 16.0896 15.6743 16.1318 15.6797C16.6886 15.7516 17.2326 15.8186 17.7578 15.8438C18.8321 15.8953 19.6601 15.7602 20.2256 15.2979C20.7669 14.8555 21.25 13.9569 21.25 12.0264C21.25 6.90148 17.1068 2.75 12 2.75ZM6.5 9.25C7.74264 9.25 8.75 10.2574 8.75 11.5C8.75 12.7426 7.74264 13.75 6.5 13.75C5.25736 13.75 4.25 12.7426 4.25 11.5C4.25 10.2574 5.25736 9.25 6.5 9.25ZM17.5 9.25C18.7426 9.25 19.75 10.2574 19.75 11.5C19.75 12.7426 18.7426 13.75 17.5 13.75C16.2574 13.75 15.25 12.7426 15.25 11.5C15.25 10.2574 16.2574 9.25 17.5 9.25ZM6.5 10.75C6.08579 10.75 5.75 11.0858 5.75 11.5C5.75 11.9142 6.08579 12.25 6.5 12.25C6.91421 12.25 7.25 11.9142 7.25 11.5C7.25 11.0858 6.91421 10.75 6.5 10.75ZM17.5 10.75C17.0858 10.75 16.75 11.0858 16.75 11.5C16.75 11.9142 17.0858 12.25 17.5 12.25C17.9142 12.25 18.25 11.9142 18.25 11.5C18.25 11.0858 17.9142 10.75 17.5 10.75ZM9.58496 4.75C10.8276 4.75 11.835 5.75736 11.835 7C11.8348 8.24253 10.8275 9.25 9.58496 9.25C8.34242 9.24998 7.33508 8.24252 7.33496 7C7.33496 5.75737 8.34234 4.75002 9.58496 4.75ZM14.5 4.75C15.7426 4.75 16.75 5.75736 16.75 7C16.75 8.24264 15.7426 9.25 14.5 9.25C13.2574 9.25 12.25 8.24264 12.25 7C12.25 5.75736 13.2574 4.75 14.5 4.75ZM9.58496 6.25C9.17077 6.25002 8.83496 6.5858 8.83496 7C8.83508 7.4141 9.17085 7.74998 9.58496 7.75C9.9991 7.75 10.3348 7.41411 10.335 7C10.335 6.58579 9.99918 6.25 9.58496 6.25ZM14.5 6.25C14.0858 6.25 13.75 6.58579 13.75 7C13.75 7.41421 14.0858 7.75 14.5 7.75C14.9142 7.75 15.25 7.41421 15.25 7C15.25 6.58579 14.9142 6.25 14.5 6.25Z" fill="#48465C"/>
</svg>
