<svg width="24" height="24" viewBox="0 0 24 24" fill="none" xmlns="http://www.w3.org/2000/svg">
<path d="M12 2.25C12.7113 2.25 13.371 2.70754 13.9873 3.69434C14.5982 4.67252 15.0641 6.02004 15.4092 7.42871C15.7514 8.82603 15.9624 10.2307 16.0879 11.291C16.1186 11.5503 16.144 11.7886 16.165 12H12.75V20C12.75 21.5188 11.5188 22.75 10 22.75C8.48122 22.75 7.25 21.5188 7.25 20V19C7.25 18.5858 7.58579 18.25 8 18.25C8.41421 18.25 8.75 18.5858 8.75 19V20C8.75 20.6904 9.30964 21.25 10 21.25C10.6904 21.25 11.25 20.6904 11.25 20V12H7.83496C7.85595 11.7886 7.88141 11.5503 7.91211 11.291C8.03764 10.2307 8.24857 8.82603 8.59082 7.42871C8.93587 6.02004 9.40172 4.67252 10.0127 3.69434C10.629 2.70754 11.2887 2.25 12 2.25ZM9.16504 2.29492C9.01294 2.4875 8.87092 2.69019 8.74023 2.89941C8.00446 4.07741 7.49294 5.60513 7.13379 7.07129C6.7719 8.54874 6.55259 10.0194 6.42285 11.1152C6.38362 11.4466 6.35243 11.7449 6.32812 12H2.47656C2.21357 12 2 11.7864 2 11.5234C2.00016 7.07803 5.04639 3.34452 9.16504 2.29492ZM14.835 2.29492C18.9537 3.34452 21.9998 7.07803 22 11.5234C22 11.7864 21.7864 12 21.5234 12H17.6719C17.6476 11.7449 17.6164 11.4466 17.5771 11.1152C17.4474 10.0194 17.2281 8.54874 16.8662 7.07129C16.507 5.60514 15.9956 4.07741 15.2598 2.89941C15.1291 2.69019 14.9871 2.4875 14.835 2.29492Z" fill="#48465C"/>
</svg>
