<svg width="24" height="24" viewBox="0 0 24 24" fill="none" xmlns="http://www.w3.org/2000/svg">
<path d="M14.8533 1.25C15.739 1.24999 16.4601 1.25026 17.0476 1.30957C17.6596 1.37139 18.1941 1.50248 18.6873 1.80566C18.843 1.90143 18.9914 2.00854 19.1316 2.12598C19.5752 2.49777 19.8686 2.96263 20.1208 3.52344C20.3631 4.06194 20.5915 4.74573 20.8718 5.58594L20.8845 5.62305L20.9333 5.77051C21.0812 6.21367 21.2133 6.60844 21.281 6.93652C21.3525 7.28301 21.3823 7.68371 21.198 8.0791C21.1051 8.27824 20.9757 8.45819 20.8162 8.60938C20.4994 8.90954 20.109 9.00799 19.7576 9.0498C19.5774 9.07123 19.373 9.08146 19.1492 9.08594L17.7361 18.7354C17.6226 19.5107 17.5273 20.1615 17.3845 20.6758C17.2331 21.2209 17.0061 21.7043 16.5701 22.0811C16.134 22.4579 15.6235 22.6128 15.0623 22.6836C14.5326 22.7503 13.8744 22.75 13.0906 22.75H10.9099C10.1261 22.75 9.4679 22.7503 8.93823 22.6836C8.37706 22.6128 7.86644 22.4578 7.43042 22.0811C6.99436 21.7043 6.76731 21.2209 6.61597 20.6758C6.47321 20.1615 6.3779 19.5107 6.2644 18.7354L4.85132 9.08594C4.62731 9.08146 4.42224 9.07125 4.24194 9.0498C3.89063 9.00797 3.50105 8.90942 3.18433 8.60938C3.0247 8.45808 2.89445 8.27843 2.80151 8.0791C2.61714 7.68369 2.64797 7.28302 2.71948 6.93652C2.78723 6.60845 2.91825 6.21366 3.06616 5.77051C3.07062 5.75718 3.07535 5.7439 3.07983 5.73047L3.12769 5.58691C3.40812 4.74648 3.63636 4.06204 3.87866 3.52344C4.13095 2.96266 4.42439 2.49778 4.86792 2.12598C5.00816 2.00845 5.15736 1.90149 5.31323 1.80566C5.80635 1.50251 6.34005 1.3714 6.9519 1.30957C7.53944 1.25022 8.26038 1.24999 9.14624 1.25H14.8533ZM7.74097 18.4707C7.86316 19.3053 7.94679 19.8619 8.06128 20.2744C8.17006 20.6662 8.28382 20.8354 8.41089 20.9453C8.5381 21.0553 8.72186 21.1444 9.12573 21.1953C9.55049 21.2489 10.1132 21.25 10.9568 21.25H13.0427C13.8865 21.25 14.45 21.2489 14.8748 21.1953C15.2784 21.1444 15.4615 21.0553 15.5886 20.9453C15.7159 20.8354 15.8303 20.6666 15.9392 20.2744C16.0537 19.8619 16.1364 19.3053 16.2585 18.4707L16.364 17.75H7.6355L7.74097 18.4707ZM7.41577 16.25H16.5837L17.0964 12.75H6.90405L7.41577 16.25ZM6.68433 11.25H17.3162L17.6326 9.08984H6.36792L6.68433 11.25ZM9.1853 2.75C8.25155 2.75 7.60663 2.75095 7.10327 2.80176C6.61562 2.85102 6.32797 2.94187 6.09839 3.08301C6.00491 3.14048 5.91588 3.20492 5.83179 3.27539C5.62527 3.44848 5.44787 3.69182 5.24683 4.13867C5.03925 4.60006 4.83441 5.21182 4.53882 6.09766L4.50269 6.20508C4.33729 6.70075 4.23573 7.0093 4.18823 7.23926C4.1605 7.37353 4.16258 7.43365 4.16479 7.45215C4.17662 7.47555 4.19222 7.49702 4.21069 7.51562C4.22771 7.52361 4.28391 7.5444 4.41968 7.56055C4.6528 7.58828 4.97739 7.58984 5.49976 7.58984H18.4998C19.0224 7.58984 19.3476 7.5883 19.5808 7.56055C19.7168 7.54436 19.7729 7.52356 19.7898 7.51562C19.8083 7.497 19.8239 7.47558 19.8357 7.45215C19.8379 7.43366 19.8401 7.37354 19.8123 7.23926C19.7647 7.00929 19.6623 6.7008 19.4968 6.20508L19.4617 6.09766C19.1661 5.21177 18.9612 4.60008 18.7537 4.13867C18.5526 3.69184 18.3751 3.44846 18.1687 3.27539C18.0845 3.20487 17.9947 3.14051 17.9011 3.08301C17.6716 2.942 17.3846 2.85099 16.8972 2.80176C16.3938 2.75093 15.7489 2.75 14.8152 2.75H9.1853Z" fill="#1C274C"/>
</svg>
