<svg width="24" height="24" viewBox="0 0 24 24" fill="none" xmlns="http://www.w3.org/2000/svg">
<path d="M12 2C17.5228 2 22 6.47715 22 12C22 17.5228 17.5228 22 12 22C6.47715 22 2 17.5228 2 12C2 6.47715 6.47715 2 12 2ZM16.2158 6.28125C15.8192 6.16225 15.4004 6.38756 15.2812 6.78418L14.542 9.25H11.1084L11.7188 7.21582C11.8377 6.81913 11.6125 6.40036 11.2158 6.28125C10.8192 6.16225 10.4004 6.38756 10.2812 6.78418L9.54199 9.25H7C6.58579 9.25 6.25 9.5858 6.25 10C6.25 10.4142 6.58579 10.75 7 10.75H9.0918L8.3418 13.25H6C5.58579 13.25 5.25 13.5858 5.25 14C5.25 14.4142 5.58579 14.75 6 14.75H7.8916L7.28125 16.7842C7.16225 17.1808 7.38755 17.5997 7.78418 17.7188C8.18086 17.8377 8.59965 17.6125 8.71875 17.2158L9.45801 14.75H12.8916L12.2812 16.7842C12.1623 17.1808 12.3875 17.5997 12.7842 17.7188C13.1808 17.8377 13.5996 17.6125 13.7188 17.2158L14.458 14.75H17C17.4142 14.75 17.75 14.4142 17.75 14C17.75 13.5858 17.4142 13.25 17 13.25H14.9082L15.6582 10.75H18C18.4142 10.75 18.75 10.4142 18.75 10C18.75 9.5858 18.4142 9.25 18 9.25H16.1084L16.7188 7.21582C16.8377 6.81913 16.6125 6.40036 16.2158 6.28125ZM13.3418 13.25H9.9082L10.6582 10.75H14.0918L13.3418 13.25Z" fill="#1C274C"/>
</svg>
