<svg width="24" height="24" viewBox="0 0 24 24" fill="none" xmlns="http://www.w3.org/2000/svg">
<path d="M21.4697 1.46973C21.7626 1.17684 22.2374 1.17684 22.5303 1.46973C22.8231 1.76262 22.8232 2.2374 22.5303 2.53027L2.53027 22.5303C2.23739 22.8231 1.76261 22.8231 1.46973 22.5303C1.17684 22.2374 1.17685 21.7626 1.46973 21.4697L5.19141 17.748C4.30839 17.7385 3.63585 17.6857 3.02539 17.4033C2.33059 17.0819 1.66098 16.4522 1.29785 15.7783C0.905484 15.0498 0.859436 14.2875 0.793945 13.2041C0.791358 13.1613 0.788804 13.118 0.786133 13.0742C0.763688 12.7059 0.750002 12.3416 0.75 12C0.75 11.6585 0.763687 11.2941 0.786133 10.9258C0.788802 10.882 0.79136 10.8387 0.793945 10.7959C0.859435 9.71266 0.905501 8.9502 1.29785 8.22168C1.66098 7.54772 2.33059 6.91814 3.02539 6.59668C3.7769 6.24909 4.62223 6.24935 5.83887 6.25C5.8918 6.25002 5.94564 6.25 6 6.25C6.53652 6.25 6.71984 6.24775 6.8916 6.21875C7.07528 6.18771 7.25437 6.13378 7.4248 6.05859C7.58415 5.98826 7.73861 5.88908 8.18652 5.59375L8.45312 5.41797C9.68382 4.6065 10.6708 3.95577 11.4844 3.56055C12.3104 3.15928 13.1242 2.93566 13.9424 3.21484C14.2143 3.30762 14.4759 3.44127 14.7109 3.60645C15.3502 4.05573 15.6553 4.74105 15.8271 5.5293C15.9147 5.9315 15.9746 6.39541 16.0205 6.91895L21.4697 1.46973ZM15.5 11.25C15.9142 11.25 16.25 11.5858 16.25 12C16.25 12.552 16.2139 13.5258 16.1621 14.6406L16.1592 14.6973C16.0914 16.1572 16.0371 17.3296 15.8779 18.2139C15.716 19.1134 15.417 19.8974 14.7109 20.3936C14.4759 20.5588 14.2143 20.6924 13.9424 20.7852C13.2005 21.0383 12.4629 20.8771 11.7207 20.5488C10.9878 20.2246 10.1276 19.6807 9.08887 19C8.74247 18.773 8.64605 18.3084 8.87305 17.9619C9.10005 17.6155 9.56469 17.5181 9.91113 17.7451C10.9698 18.4388 11.7264 18.9109 12.3271 19.1768C12.9186 19.4385 13.2326 19.4422 13.458 19.3652C13.5954 19.3184 13.7299 19.2494 13.8486 19.166C14.0651 19.0137 14.2625 18.7192 14.4014 17.9482C14.5409 17.1733 14.592 16.1011 14.6631 14.5703C14.7152 13.4508 14.75 12.5118 14.75 12C14.75 11.5858 15.0858 11.25 15.5 11.25ZM20.2646 6.31641C20.6421 6.14613 21.0865 6.31387 21.2568 6.69141C21.7239 7.72655 22.25 9.45959 22.25 12C22.25 14.1913 21.8583 15.7825 21.4502 16.8438C21.2464 17.3735 21.0398 17.7693 20.8779 18.0391C20.797 18.1739 20.727 18.2774 20.6748 18.3506C20.6487 18.387 20.627 18.4159 20.6104 18.4375C20.602 18.4482 20.5946 18.4568 20.5889 18.4639L20.582 18.4736L20.5771 18.4785C20.5744 18.4765 20.5361 18.4467 20 18L20.5762 18.4805C20.3109 18.7984 19.8376 18.8412 19.5195 18.5762C19.203 18.3123 19.1592 17.8425 19.4199 17.5244C19.4199 17.5244 19.4221 17.5217 19.4238 17.5195C19.4292 17.5126 19.4395 17.4989 19.4541 17.4785C19.4838 17.4369 19.5312 17.3668 19.5908 17.2676C19.7101 17.0686 19.8786 16.7509 20.0498 16.3057C20.3916 15.417 20.75 14.0084 20.75 12C20.75 9.67391 20.2697 8.15115 19.8896 7.30859C19.7192 6.93103 19.887 6.48677 20.2646 6.31641ZM13.458 4.63477C13.2089 4.54974 12.8528 4.56422 12.1406 4.91016C11.4265 5.25711 10.5212 5.85179 9.23145 6.70215L9.01172 6.84668C8.99522 6.85755 8.97896 6.86831 8.96289 6.87891C8.58288 7.12957 8.31962 7.30333 8.03125 7.43066C7.74689 7.55615 7.4471 7.64552 7.14062 7.69727C6.82985 7.74971 6.51464 7.75009 6.05957 7.75H6C4.55681 7.75 4.0695 7.76648 3.65527 7.95801C3.255 8.1432 2.82842 8.54434 2.61914 8.93262C2.40086 9.33773 2.36025 9.75337 2.2832 11.0176C2.26207 11.3644 2.25 11.6969 2.25 12C2.25 12.3032 2.26207 12.6356 2.2832 12.9824C2.36025 14.2466 2.40086 14.6623 2.61914 15.0674C2.82843 15.4556 3.25501 15.8567 3.65527 16.042C4.0695 16.2335 4.55682 16.25 6 16.25H6.05957C6.29908 16.25 6.49985 16.2501 6.68164 16.2578L14.6104 8.3291C14.5528 7.22814 14.4888 6.43417 14.3613 5.84863C14.2254 5.22541 14.0443 4.97165 13.8486 4.83398C13.7299 4.75055 13.5954 4.68165 13.458 4.63477ZM18.1641 9.26562C18.5696 9.18146 18.9666 9.44211 19.0508 9.84766C19.1609 10.3781 19.25 11.089 19.25 12C19.25 13.11 19.1178 13.9226 18.9766 14.4736C18.906 14.7488 18.8332 14.9583 18.7744 15.1055C18.7451 15.1788 18.7187 15.2364 18.6982 15.2793C18.688 15.3008 18.6791 15.3189 18.6719 15.333L18.6631 15.3516L18.6592 15.3584L18.6572 15.3613L18.6562 15.3633C18.6562 15.3633 18.6492 15.3611 18.0273 15.0156L18.6553 15.3643C18.4541 15.7262 17.9978 15.8564 17.6357 15.6553C17.2769 15.4558 17.1451 15.0051 17.3389 14.6445L17.3447 14.6348C17.3516 14.6203 17.3644 14.5914 17.3818 14.5479C17.4167 14.4607 17.4691 14.3136 17.5234 14.1016C17.6321 13.6776 17.75 12.9899 17.75 12C17.75 11.1873 17.6705 10.5785 17.582 10.1523C17.4979 9.74677 17.7585 9.34982 18.1641 9.26562Z" fill="#1C274C"/>
</svg>
