<svg width="24" height="24" viewBox="0 0 24 24" fill="none" xmlns="http://www.w3.org/2000/svg">
<path d="M12.001 14.25C12.4152 14.25 12.751 14.5858 12.751 15V17.1631L14.624 16.082C14.9827 15.8749 15.4413 15.9977 15.6484 16.3564C15.8555 16.7152 15.7327 17.1737 15.374 17.3809L13.501 18.4619L15.377 19.5449C15.7355 19.752 15.8581 20.2107 15.6514 20.5693C15.4444 20.9279 14.9857 21.0515 14.627 20.8447L12.751 19.7617V22C12.751 22.4142 12.4152 22.75 12.001 22.75C11.5868 22.75 11.251 22.4142 11.251 22V19.7617L9.375 20.8447C9.01634 21.0515 8.55762 20.9279 8.35059 20.5693C8.14384 20.2107 8.26648 19.752 8.625 19.5449L10.501 18.4619L8.62793 17.3809C8.26926 17.1737 8.14642 16.7152 8.35352 16.3564C8.56063 15.9978 9.01921 15.8749 9.37793 16.082L11.251 17.1631V15C11.251 14.5858 11.5868 14.25 12.001 14.25ZM12.4766 2.25C12.5751 2.25001 12.6731 2.25251 12.7705 2.25684C15.797 2.39118 18.2895 4.58709 18.8311 7.47168C21.1308 8.44788 22.7499 10.7091 22.75 13.3525C22.75 16.4264 20.5625 18.9839 17.6572 19.6055C17.6319 19.6109 17.6062 19.6154 17.5811 19.6182C17.5056 19.6265 17.431 19.6231 17.3594 19.6094C17.0722 19.5544 16.8316 19.3331 16.7666 19.0293C16.68 18.6243 16.9379 18.2254 17.3428 18.1387C19.5825 17.6597 21.25 15.6926 21.25 13.3525C21.2498 11.216 19.8603 9.39081 17.9121 8.72461C17.4673 8.57252 16.9931 8.48051 16.499 8.45996C16.4285 8.45703 16.3575 8.45606 16.2861 8.45605C16.2133 8.45605 16.1404 8.45788 16.0684 8.46094C15.5643 8.48231 15.0805 8.57727 14.6279 8.73535C14.5791 8.75236 14.5298 8.76386 14.4805 8.77051C14.3818 8.78382 14.2834 8.77743 14.1904 8.75293C13.9575 8.69155 13.7583 8.51893 13.6729 8.27441C13.5363 7.8834 13.7428 7.45591 14.1338 7.31934C14.7238 7.11326 15.3524 6.98957 16.0049 6.96191C16.098 6.95797 16.1921 6.95605 16.2861 6.95605L16.7256 6.9707C16.8708 6.98037 17.0147 6.99465 17.1572 7.01367C17.1147 6.89504 17.068 6.77834 17.0166 6.66406C16.2719 5.00797 14.6219 3.83071 12.6787 3.75391L12.4766 3.75C12.3905 3.75 12.3047 3.75258 12.2197 3.75684C9.58974 3.88862 7.51172 6.03559 7.51172 8.64746C7.51176 9.10948 7.57661 9.55602 7.69727 9.97852C8.19435 10.122 8.65962 10.3391 9.08008 10.6172C9.42554 10.8457 9.52051 11.3108 9.29199 11.6562C9.06348 12.0017 8.59839 12.0967 8.25293 11.8682C7.87219 11.6163 7.43941 11.4351 6.97363 11.3447C6.80739 11.3125 6.63635 11.2916 6.46191 11.2832C6.40373 11.2804 6.34511 11.2793 6.28613 11.2793C6.22468 11.2793 6.1632 11.2811 6.10254 11.2842C4.22749 11.3783 2.75003 12.9082 2.75 14.7646C2.75 16.6811 4.32502 18.25 6.28613 18.25C6.70016 18.2502 7.03613 18.5859 7.03613 19C7.03613 19.3883 6.74054 19.7077 6.3623 19.7461C6.33726 19.7486 6.31185 19.75 6.28613 19.75C6.19949 19.75 6.11294 19.7475 6.02734 19.7432C3.37376 19.6101 1.25 17.4401 1.25 14.7646C1.25003 12.0605 3.41976 9.87213 6.11328 9.78223C6.04654 9.41365 6.01174 9.03436 6.01172 8.64746C6.01172 5.2167 8.736 2.42853 12.1445 2.25781C12.2544 2.25231 12.3653 2.25 12.4766 2.25Z" fill="#1C274C"/>
</svg>
