<svg width="24" height="24" viewBox="0 0 24 24" fill="none" xmlns="http://www.w3.org/2000/svg">
<path d="M16.4697 3.46973C16.7626 3.17684 17.2374 3.17684 17.5303 3.46973L20.5303 6.46973C20.8231 6.76262 20.8232 7.2374 20.5303 7.53027L17.5303 10.5303C17.2374 10.8231 16.7626 10.8231 16.4697 10.5303C16.1768 10.2374 16.1769 9.76262 16.4697 9.46973L18.1895 7.75H9C6.65279 7.75001 4.75 9.65279 4.75 12C4.75003 14.3472 6.65281 16.25 9 16.25H16C16.4142 16.25 16.75 16.5858 16.75 17C16.75 17.4142 16.4142 17.75 16 17.75H9C5.82438 17.75 3.25003 15.1756 3.25 12C3.25 8.82436 5.82436 6.25001 9 6.25H18.1895L16.4697 4.53027C16.1768 4.2374 16.1769 3.76262 16.4697 3.46973Z" fill="#1C274C"/>
</svg>
