<svg width="24" height="24" viewBox="0 0 24 24" fill="none" xmlns="http://www.w3.org/2000/svg">
<path d="M16.4697 3.46979C16.7626 3.1769 17.2374 3.1769 17.5303 3.46979L20.5303 6.46979C20.8231 6.76268 20.8232 7.23746 20.5303 7.53033L17.5303 10.5303C17.2374 10.8232 16.7626 10.8232 16.4697 10.5303C16.1768 10.2374 16.1769 9.76268 16.4697 9.46979L18.1895 7.75006H9C6.65279 7.75007 4.75 9.65285 4.75 12.0001C4.75003 14.3472 6.65281 16.2501 9 16.2501H16C16.4142 16.2501 16.75 16.5859 16.75 17.0001C16.75 17.4142 16.4142 17.7501 16 17.7501H9C5.82438 17.7501 3.25003 15.1756 3.25 12.0001C3.25 8.82442 5.82436 6.25007 9 6.25006H18.1895L16.4697 4.53033C16.1768 4.23746 16.1769 3.76268 16.4697 3.46979Z" fill="#48465C"/>
</svg>
