<svg width="24" height="24" viewBox="0 0 24 24" fill="none" xmlns="http://www.w3.org/2000/svg">
<path d="M16.5 2.25C17.1765 2.25 17.8511 2.4149 18.4375 2.87207C19.0169 3.32377 19.4356 4.00255 19.7158 4.89258L19.7178 4.90039L22.5723 14.7471C22.6407 14.9807 22.6795 15.2261 22.7041 15.4824C22.7497 15.9568 22.75 16.5448 22.75 17.2568V17.3311C22.75 18.0431 22.7497 18.6309 22.7041 19.1055C22.6567 19.5987 22.5545 20.0508 22.2969 20.459C22.0997 20.7715 21.8444 21.0433 21.5439 21.2559C21.1459 21.5373 20.7019 21.6496 20.2236 21.7012C19.7691 21.7501 19.208 21.75 18.54 21.75H5.45996C4.792 21.75 4.23091 21.7501 3.77637 21.7012C3.29817 21.6496 2.85405 21.5373 2.45605 21.2559C2.15561 21.0433 1.90033 20.7715 1.70312 20.459C1.44554 20.0508 1.34329 19.5987 1.2959 19.1055C1.25032 18.6309 1.24999 18.0432 1.25 17.3311V17.2568C1.24999 16.5449 1.25032 15.9568 1.2959 15.4824C1.32053 15.2261 1.35937 14.9807 1.42773 14.7471L4.28223 4.90039L4.28418 4.89258C4.56438 4.00255 4.9831 3.32377 5.5625 2.87207C6.14894 2.41491 6.82357 2.25 7.5 2.25H16.5ZM5.5 14.3379C4.7814 14.3379 4.30218 14.3397 3.9375 14.3789C3.58769 14.4166 3.42853 14.4824 3.32227 14.5576C3.18599 14.654 3.06629 14.7798 2.97168 14.9297C2.89221 15.0557 2.82594 15.2423 2.78906 15.626C2.75118 16.0202 2.75 16.5357 2.75 17.2939C2.75 18.0521 2.75119 18.5676 2.78906 18.9619C2.82592 19.3456 2.89224 19.5323 2.97168 19.6582C3.0663 19.8081 3.18597 19.9349 3.32227 20.0312C3.42852 20.1063 3.58803 20.1723 3.9375 20.21C4.30217 20.2492 4.78145 20.25 5.5 20.25H18.5C19.2185 20.25 19.6978 20.2492 20.0625 20.21C20.4119 20.1723 20.5714 20.1063 20.6777 20.0312C20.814 19.9349 20.9337 19.8081 21.0283 19.6582C21.1078 19.5323 21.174 19.3456 21.2109 18.9619C21.2488 18.5676 21.25 18.0521 21.25 17.2939C21.25 16.5357 21.2488 16.0202 21.2109 15.626C21.174 15.2423 21.1078 15.0557 21.0283 14.9297C20.9337 14.7798 20.814 14.654 20.6777 14.5576C20.5714 14.4824 20.4122 14.4166 20.0625 14.3789C19.6978 14.3397 19.2185 14.3379 18.5 14.3379H5.5ZM11.5 16.25C11.9142 16.25 12.25 16.5858 12.25 17V18C12.25 18.4142 11.9142 18.75 11.5 18.75C11.0858 18.75 10.75 18.4142 10.75 18V17C10.75 16.5858 11.0858 16.25 11.5 16.25ZM14 16.25C14.4142 16.25 14.75 16.5858 14.75 17V18C14.75 18.4142 14.4142 18.75 14 18.75C13.5858 18.75 13.25 18.4142 13.25 18V17C13.25 16.5858 13.5858 16.25 14 16.25ZM16.5 16.25C16.9142 16.25 17.25 16.5858 17.25 17V18C17.25 18.4142 16.9142 18.75 16.5 18.75C16.0858 18.75 15.75 18.4142 15.75 18V17C15.75 16.5858 16.0858 16.25 16.5 16.25ZM19 16.25C19.4142 16.25 19.75 16.5858 19.75 17V18C19.75 18.4142 19.4142 18.75 19 18.75C18.5858 18.75 18.25 18.4142 18.25 18V17C18.25 16.5858 18.5858 16.25 19 16.25ZM7.5 3.75C7.07188 3.75 6.74678 3.85011 6.48438 4.05469C6.21595 4.26396 5.9372 4.6418 5.71777 5.33496L3.51855 12.9219C3.60324 12.9078 3.68934 12.896 3.77637 12.8867C4.23092 12.8377 4.79197 12.8379 5.45996 12.8379H18.54C19.208 12.8379 19.769 12.8377 20.2236 12.8867C20.3107 12.896 20.3967 12.9078 20.4814 12.9219L18.2822 5.33496C18.0628 4.6418 17.784 4.26396 17.5156 4.05469C17.2532 3.85011 16.9281 3.75 16.5 3.75H7.5Z" fill="#1C274C"/>
</svg>
