<svg width="24" height="24" viewBox="0 0 24 24" fill="none" xmlns="http://www.w3.org/2000/svg">
<path d="M12.0001 1.25C16.2803 1.25005 19.7501 4.71982 19.7501 9V9.7041C19.7501 10.401 19.9564 11.0823 20.3429 11.6621L21.4913 13.3848C22.8244 15.3844 21.8069 18.103 19.4884 18.7354C18.7329 18.9414 17.9706 19.1152 17.2042 19.2578L17.2023 19.2637C16.4332 21.3153 14.3779 22.7499 12.0001 22.75C9.62233 22.75 7.56712 21.3153 6.79797 19.2637L6.79602 19.2578C6.02967 19.1152 5.26739 18.9414 4.51184 18.7354C2.19325 18.1031 1.17582 15.3845 2.50891 13.3848L3.65735 11.6621C4.04386 11.0823 4.25012 10.4009 4.25012 9.7041V9C4.25012 4.71979 7.71988 1.25 12.0001 1.25ZM15.3761 19.5371C13.1332 19.8051 10.866 19.8051 8.62317 19.5371C9.33412 20.5587 10.5711 21.25 12.0001 21.25C13.4289 21.2499 14.6651 20.5584 15.3761 19.5371ZM12.0001 2.75C8.54831 2.75 5.75012 5.54822 5.75012 9V9.7041C5.75012 10.6971 5.45616 11.6679 4.9054 12.4941L3.75696 14.2168C2.99179 15.3645 3.57554 16.9251 4.90637 17.2881C9.55063 18.5547 14.4496 18.5547 19.0939 17.2881C20.4245 16.925 21.0083 15.3644 20.2433 14.2168L19.0948 12.4941C18.544 11.6679 18.2501 10.6972 18.2501 9.7041V9C18.2501 5.54825 15.4518 2.75005 12.0001 2.75ZM14.0001 8.25C14.3034 8.25006 14.5764 8.4328 14.6925 8.71289C14.8086 8.9931 14.7448 9.31577 14.5304 9.53027L11.8107 12.25H14.0001C14.4143 12.2501 14.7501 12.5859 14.7501 13C14.7501 13.4141 14.4143 13.7499 14.0001 13.75H10.0001C9.69678 13.75 9.42284 13.5674 9.30676 13.2871C9.19068 13.0069 9.25535 12.6842 9.46985 12.4697L12.1896 9.75H10.0001C9.58591 9.75 9.25012 9.41421 9.25012 9C9.25012 8.58579 9.58591 8.25 10.0001 8.25H14.0001Z" fill="#1C274C"/>
</svg>
