<svg width="24" height="24" viewBox="0 0 24 24" fill="none" xmlns="http://www.w3.org/2000/svg">
<path d="M8.68359 14.4482C10.5493 14.0868 12.547 14.1679 14.1631 15.1318C14.3902 15.2672 14.6034 15.436 14.7891 15.6445C15.1648 16.0666 15.3589 16.5913 15.3682 17.1172C15.5593 16.9938 15.7507 16.8569 15.9453 16.71L17.7529 15.3447C18.6575 14.6616 19.9723 14.6617 20.877 15.3447C21.7125 15.9759 22.0455 17.1084 21.4473 18.0674C21.022 18.7492 20.3813 19.6922 19.7295 20.2959C19.0706 20.9061 18.1332 21.4193 17.4238 21.7617C16.5623 22.1775 15.6314 22.4073 14.7266 22.5537C12.8774 22.8531 10.9533 22.8073 9.125 22.4307C8.19063 22.2381 7.21934 22.1387 6.25977 22.1387H4C3.5859 22.1386 3.25014 21.8027 3.25 21.3887C3.25 20.9745 3.58582 20.6387 4 20.6387H6.25977C7.32188 20.6387 8.39455 20.7491 9.42773 20.9619C11.0798 21.3023 12.8203 21.343 14.4873 21.0732C15.3161 20.939 16.0901 20.74 16.7715 20.4111C17.4549 20.0812 18.2229 19.6464 18.71 19.1953C19.2025 18.7391 19.7542 17.9475 20.1748 17.2734C20.3015 17.07 20.2837 16.7769 19.9727 16.542C19.603 16.2628 19.0268 16.2629 18.6572 16.542L16.8496 17.9072C16.1282 18.4521 15.24 19.0352 14.1387 19.2109C14.0277 19.2286 13.912 19.2445 13.792 19.2588C13.7347 19.2692 13.6749 19.276 13.6133 19.2783C13.0511 19.3342 12.3999 19.3472 11.6816 19.2793C11.2692 19.2404 10.9659 18.8743 11.0049 18.4619C11.0439 18.0496 11.41 17.7472 11.8223 17.7861C12.4496 17.8453 13.0126 17.8322 13.4902 17.7832C13.4999 17.7822 13.5099 17.7813 13.5195 17.7803C13.5394 17.7687 13.5696 17.7475 13.6094 17.7129C13.9287 17.434 13.958 16.9665 13.6689 16.6416C13.5956 16.5593 13.5044 16.4855 13.3945 16.4199C12.2135 15.7157 10.6364 15.598 8.96973 15.9209C7.3122 16.242 5.66465 16.9815 4.43359 17.8545C4.09578 18.094 3.6283 18.0144 3.38867 17.6768C3.14906 17.3389 3.22854 16.8706 3.56641 16.6309C4.96465 15.6394 6.80853 14.8116 8.68359 14.4482ZM14.0518 2.25C14.3622 2.24999 14.6552 2.24964 14.9297 2.25293C14.9528 2.25078 14.9763 2.25 15 2.25C15.0314 2.25 15.0624 2.25211 15.0928 2.25586C15.5456 2.2639 15.9468 2.28329 16.2949 2.33008C16.9226 2.41451 17.489 2.6003 17.9443 3.05566C18.3997 3.51102 18.5855 4.07748 18.6699 4.70508C18.7167 5.05311 18.7361 5.45448 18.7441 5.90723C18.7479 5.9376 18.75 5.96862 18.75 6C18.75 6.0237 18.7493 6.04718 18.7471 6.07031C18.7504 6.34486 18.75 6.63784 18.75 6.94824V7.05176C18.75 7.36215 18.7504 7.65513 18.7471 7.92969C18.7493 7.95283 18.75 7.9763 18.75 8C18.75 8.0314 18.7479 8.06239 18.7441 8.09277C18.7361 8.54554 18.7167 8.94688 18.6699 9.29492C18.5855 9.92254 18.3997 10.489 17.9443 10.9443C17.489 11.3997 16.9226 11.5855 16.2949 11.6699C15.9468 11.7167 15.5456 11.7361 15.0928 11.7441C15.0624 11.7479 15.0314 11.75 15 11.75C14.9763 11.75 14.9528 11.7493 14.9297 11.7471C14.6552 11.7504 14.3622 11.75 14.0518 11.75H9.94824C9.63784 11.75 9.34486 11.7504 9.07031 11.7471C9.04719 11.7493 9.02368 11.75 9 11.75C8.96863 11.75 8.93759 11.7479 8.90723 11.7441C8.45469 11.7361 8.05397 11.7167 7.70605 11.6699C7.07826 11.5855 6.51113 11.3998 6.05566 10.9443C5.60031 10.489 5.41451 9.92254 5.33008 9.29492C5.28329 8.94688 5.2639 8.54554 5.25586 8.09277C5.25212 8.06239 5.25 8.0314 5.25 8C5.25 7.97631 5.25077 7.95283 5.25293 7.92969C5.24964 7.65514 5.24999 7.36215 5.25 7.05176V6.94824C5.24999 6.63785 5.24964 6.34486 5.25293 6.07031C5.25077 6.04718 5.25 6.0237 5.25 6C5.25 5.96862 5.25212 5.93761 5.25586 5.90723C5.2639 5.45449 5.28329 5.05311 5.33008 4.70508C5.41452 4.07748 5.60032 3.51102 6.05566 3.05566C6.51113 2.60019 7.07826 2.41449 7.70605 2.33008C8.05397 2.28334 8.45469 2.2639 8.90723 2.25586C8.93759 2.25211 8.96863 2.25 9 2.25C9.02368 2.25 9.0472 2.25079 9.07031 2.25293C9.34486 2.24964 9.63785 2.24999 9.94824 2.25H14.0518ZM9.6748 3.75C9.3765 5.21921 8.21922 6.37649 6.75 6.6748V7.3252C8.21922 7.6235 9.3765 8.78082 9.6748 10.25H14.3252C14.6235 8.78082 15.7808 7.62351 17.25 7.3252V6.6748C15.7808 6.37649 14.6235 5.21921 14.3252 3.75H9.6748ZM6.81641 9.09473C6.87845 9.55608 6.98592 9.75348 7.11621 9.88379C7.24651 10.0141 7.44393 10.1215 7.90527 10.1836C7.96912 10.1922 8.0365 10.1996 8.10645 10.2061C7.87864 9.60216 7.39787 9.12236 6.79395 8.89453C6.80045 8.96433 6.80784 9.031 6.81641 9.09473ZM17.2061 8.89453C16.6023 9.12236 16.1223 9.60223 15.8945 10.2061C15.9643 10.1996 16.031 10.1922 16.0947 10.1836C16.5562 10.1215 16.7535 10.0141 16.8838 9.88379C17.0141 9.75349 17.1215 9.55612 17.1836 9.09473C17.1921 9.03101 17.1996 8.96433 17.2061 8.89453ZM12 5.25C12.9665 5.25 13.75 6.03351 13.75 7C13.75 7.9665 12.9665 8.75 12 8.75C11.0335 8.74997 10.25 7.96648 10.25 7C10.25 6.03353 11.0335 5.25003 12 5.25ZM12 6.75C11.8619 6.75003 11.75 6.86196 11.75 7C11.75 7.13805 11.8619 7.24997 12 7.25C12.1381 7.25 12.25 7.13807 12.25 7C12.25 6.86194 12.1381 6.75 12 6.75ZM7.90527 3.81641C7.44392 3.87845 7.24651 3.98591 7.11621 4.11621C6.98591 4.24652 6.87845 4.44392 6.81641 4.90527C6.80784 4.96899 6.80045 5.03569 6.79395 5.10547C7.39787 4.87765 7.87864 4.39788 8.10645 3.79395C8.0365 3.80047 7.96912 3.80782 7.90527 3.81641ZM15.8945 3.79395C16.1223 4.39781 16.6023 4.87765 17.2061 5.10547C17.1996 5.03569 17.1921 4.96899 17.1836 4.90527C17.1215 4.4439 17.0141 4.24652 16.8838 4.11621C16.7535 3.98592 16.5561 3.87844 16.0947 3.81641C16.031 3.80783 15.9643 3.80046 15.8945 3.79395Z" fill="#48465C"/>
</svg>
