<svg width="24" height="24" viewBox="0 0 24 24" fill="none" xmlns="http://www.w3.org/2000/svg">
<path d="M8.68335 14.4483C10.5491 14.0868 12.5468 14.168 14.1628 15.1319C14.3899 15.2673 14.6031 15.436 14.7888 15.6445C15.1646 16.0667 15.3587 16.5912 15.3679 17.1172C15.559 16.9939 15.7505 16.8569 15.9451 16.71L17.7527 15.3447C18.6573 14.6616 19.9721 14.6617 20.8767 15.3447C21.7123 15.9759 22.0453 17.1084 21.447 18.0674C21.0217 18.7492 20.381 19.6922 19.7292 20.2959C19.0703 20.9061 18.133 21.4193 17.4236 21.7617C16.5621 22.1775 15.6311 22.4073 14.7263 22.5537C12.8772 22.8531 10.9531 22.8074 9.12476 22.4307C8.19041 22.2381 7.21907 22.1387 6.25952 22.1387H3.99976C3.5857 22.1386 3.24989 21.8027 3.24976 21.3887C3.24976 20.9745 3.58561 20.6388 3.99976 20.6387H6.25952C7.32161 20.6387 8.39433 20.7491 9.42749 20.9619C11.0795 21.3023 12.8201 21.3431 14.4871 21.0733C15.3159 20.9391 16.0899 20.74 16.7712 20.4111C17.4546 20.0813 18.2226 19.6464 18.7097 19.1953C19.2022 18.7391 19.754 17.9476 20.1746 17.2735C20.3012 17.07 20.2835 16.777 19.9724 16.542C19.6027 16.2628 19.0266 16.2629 18.657 16.542L16.8494 17.9072C16.128 18.4521 15.2397 19.0353 14.1384 19.211C14.0274 19.2286 13.9117 19.2445 13.7917 19.2588C13.7344 19.2692 13.6746 19.276 13.613 19.2783C13.0508 19.3342 12.3997 19.3472 11.6814 19.2793C11.269 19.2404 10.9656 18.8743 11.0046 18.4619C11.0436 18.0497 11.4097 17.7473 11.822 17.7861C12.4494 17.8453 13.0124 17.8322 13.49 17.7832C13.4997 17.7822 13.5097 17.7813 13.5193 17.7803C13.5391 17.7687 13.5694 17.7476 13.6091 17.7129C13.9285 17.434 13.9578 16.9665 13.6687 16.6416C13.5955 16.5594 13.505 16.4855 13.3953 16.4199C12.2141 15.7155 10.6363 15.598 8.96948 15.9209C7.31195 16.242 5.66441 16.9815 4.43335 17.8545C4.09553 18.0939 3.62803 18.0144 3.38843 17.6768C3.14882 17.3389 3.22829 16.8706 3.56616 16.6309C4.9644 15.6394 6.80828 14.8116 8.68335 14.4483ZM14.0515 2.25002C14.3619 2.25001 14.6549 2.24965 14.9294 2.25294C14.9526 2.25079 14.976 2.25002 14.9998 2.25002C15.0311 2.25002 15.0621 2.25213 15.0925 2.25587C15.5453 2.26391 15.9466 2.2833 16.2947 2.33009C16.9223 2.41452 17.4888 2.60032 17.9441 3.05568C18.3995 3.51103 18.5852 4.0775 18.6697 4.70509C18.7165 5.05312 18.7359 5.4545 18.7439 5.90724C18.7477 5.93762 18.7498 5.96863 18.7498 6.00002C18.7498 6.02372 18.749 6.04719 18.7468 6.07033C18.7501 6.34488 18.7498 6.63786 18.7498 6.94826V7.05177C18.7498 7.36216 18.7501 7.65514 18.7468 7.9297C18.749 7.95285 18.7498 7.97632 18.7498 8.00002C18.7498 8.03142 18.7477 8.06241 18.7439 8.09279C18.7359 8.54555 18.7165 8.9469 18.6697 9.29494C18.5852 9.92255 18.3995 10.4891 17.9441 10.9444C17.4888 11.3997 16.9223 11.5855 16.2947 11.6699C15.9466 11.7167 15.5453 11.7362 15.0925 11.7442C15.0621 11.748 15.0311 11.75 14.9998 11.75C14.976 11.75 14.9526 11.7493 14.9294 11.7471C14.6549 11.7504 14.3619 11.75 14.0515 11.75H9.948C9.6376 11.75 9.34462 11.7504 9.07007 11.7471C9.04697 11.7493 9.02341 11.75 8.99976 11.75C8.96842 11.75 8.93732 11.748 8.90698 11.7442C8.45444 11.7362 8.05373 11.7167 7.70581 11.6699C7.07802 11.5855 6.51089 11.3999 6.05542 10.9444C5.6001 10.4891 5.41427 9.92254 5.32983 9.29494C5.28305 8.9469 5.26366 8.54555 5.25562 8.09279C5.25188 8.06241 5.24976 8.03142 5.24976 8.00002C5.24976 7.97633 5.25053 7.95284 5.25269 7.9297C5.2494 7.65515 5.24975 7.36216 5.24976 7.05177V6.94826C5.24975 6.63787 5.2494 6.34488 5.25269 6.07033C5.25053 6.0472 5.24976 6.02371 5.24976 6.00002C5.24976 5.96863 5.25188 5.93763 5.25562 5.90724C5.26366 5.4545 5.28305 5.05313 5.32983 4.70509C5.41427 4.07751 5.60011 3.51103 6.05542 3.05568C6.51089 2.60021 7.07802 2.4145 7.70581 2.33009C8.05372 2.28335 8.45444 2.26391 8.90698 2.25587C8.93732 2.25213 8.96842 2.25002 8.99976 2.25002C9.02341 2.25002 9.04698 2.25081 9.07007 2.25294C9.34462 2.24965 9.63761 2.25001 9.948 2.25002H14.0515ZM9.67456 3.75002C9.37626 5.21923 8.21898 6.37651 6.74976 6.67482V7.32521C8.21898 7.62351 9.37626 8.78084 9.67456 10.25H14.325C14.6233 8.78084 15.7806 7.62352 17.2498 7.32521V6.67482C15.7806 6.37651 14.6233 5.21923 14.325 3.75002H9.67456ZM6.81616 9.09474C6.8782 9.55606 6.98569 9.75349 7.11597 9.8838C7.24625 10.0141 7.44375 10.1215 7.90503 10.1836C7.96888 10.1922 8.03625 10.1996 8.1062 10.2061C7.87839 9.60215 7.39766 9.12237 6.7937 8.89455C6.8002 8.96435 6.8076 9.03102 6.81616 9.09474ZM17.2058 8.89455C16.602 9.12239 16.1221 9.60225 15.8943 10.2061C15.9641 10.1996 16.0308 10.1922 16.0945 10.1836C16.5559 10.1215 16.7532 10.0141 16.8835 9.8838C17.0138 9.7535 17.1212 9.55613 17.1833 9.09474C17.1918 9.03102 17.1993 8.96434 17.2058 8.89455ZM11.9998 5.25002C12.9663 5.25002 13.7497 6.03352 13.7498 7.00002C13.7498 7.96652 12.9663 8.75002 11.9998 8.75002C11.0333 8.74994 10.2498 7.96647 10.2498 7.00002C10.2498 6.03357 11.0333 5.25009 11.9998 5.25002ZM11.9998 6.75002C11.8617 6.75009 11.7498 6.862 11.7498 7.00002C11.7498 7.13804 11.8617 7.24994 11.9998 7.25002C12.1379 7.25002 12.2498 7.13809 12.2498 7.00002C12.2497 6.86195 12.1379 6.75002 11.9998 6.75002ZM7.90503 3.81642C7.44374 3.87847 7.24625 3.98593 7.11597 4.11623C6.98568 4.24654 6.8782 4.44397 6.81616 4.90529C6.8076 4.96901 6.8002 5.0357 6.7937 5.10548C7.39766 4.87767 7.87838 4.39792 8.1062 3.79396C8.03625 3.80048 7.96888 3.80783 7.90503 3.81642ZM15.8943 3.79396C16.1221 4.39781 16.602 4.87765 17.2058 5.10548C17.1993 5.03571 17.1918 4.969 17.1833 4.90529C17.1212 4.44393 17.0138 4.24653 16.8835 4.11623C16.7532 3.98595 16.5559 3.87845 16.0945 3.81642C16.0308 3.80785 15.9641 3.80047 15.8943 3.79396Z" fill="#1C274C"/>
</svg>
