<svg width="24" height="24" viewBox="0 0 24 24" fill="none" xmlns="http://www.w3.org/2000/svg">
<path fill-rule="evenodd" clip-rule="evenodd" d="M11.9411 1.25078C16.7686 1.28974 20.7107 5.23087 20.7497 10.0584C20.7826 14.138 18.0182 17.5461 14.2497 18.49V19.5223C14.2497 19.7363 14.2502 19.9332 14.2389 20.0984C14.2268 20.2761 14.199 20.4713 14.1169 20.6697C13.9393 21.0985 13.5984 21.4394 13.1696 21.617C13.0262 21.6764 12.8842 21.7073 12.7497 21.7244V21.9998C12.7497 22.414 12.4139 22.7498 11.9997 22.7498C11.5856 22.7496 11.2497 22.4139 11.2497 21.9998V21.7244C11.1153 21.7073 10.9739 21.6762 10.8307 21.617C10.4019 21.4394 10.0611 21.0985 9.88347 20.6697C9.80127 20.4713 9.77352 20.2761 9.7614 20.0984C9.75012 19.9332 9.74967 19.7363 9.74968 19.5223V18.4236C6.03392 17.3826 3.28317 13.9704 3.25065 9.94121C3.21183 5.10444 7.10432 1.21195 11.9411 1.25078ZM11.2497 19.4998C11.2497 19.7428 11.2501 19.8879 11.2575 19.9959C11.2619 20.0617 11.2682 20.0905 11.2702 20.0984C11.2955 20.1572 11.3423 20.205 11.401 20.2303C11.4084 20.2322 11.437 20.2375 11.5036 20.242C11.6115 20.2494 11.7567 20.2498 11.9997 20.2498C12.2427 20.2498 12.3878 20.2494 12.4958 20.242C12.5613 20.2376 12.5903 20.2323 12.5983 20.2303C12.6571 20.205 12.7048 20.1572 12.7301 20.0984C12.7322 20.0904 12.7375 20.0614 12.7419 19.9959C12.7492 19.8879 12.7497 19.7428 12.7497 19.4998V18.7283C12.5217 18.7443 12.291 18.7517 12.0583 18.7498C11.7858 18.7476 11.5159 18.7333 11.2497 18.7068V19.4998ZM11.9294 2.75078C7.93017 2.71851 4.71838 5.9303 4.75065 9.92949C4.78301 13.9381 8.06233 17.2174 12.071 17.2498C16.0698 17.2818 19.2817 14.07 19.2497 10.0711C19.2173 6.06245 15.938 2.78313 11.9294 2.75078ZM12.3141 6.4832C12.5996 6.18334 13.0738 6.17143 13.3737 6.45683C13.6737 6.74248 13.6856 7.21743 13.4001 7.51738L11.7497 9.2498H13.9997C14.2997 9.2498 14.5709 9.42912 14.6891 9.70488C14.8072 9.98059 14.7495 10.3002 14.5426 10.5174L11.6852 13.5174C11.3995 13.8171 10.9256 13.8284 10.6257 13.5428C10.3258 13.2571 10.3138 12.7831 10.5993 12.4832L12.2497 10.7498H9.99968C9.69971 10.7498 9.42844 10.5714 9.31022 10.2957C9.19207 10.0201 9.24989 9.70046 9.45671 9.4832L12.3141 6.4832Z" fill="#1C274C"/>
</svg>
