<svg width="24" height="24" viewBox="0 0 24 24" fill="none" xmlns="http://www.w3.org/2000/svg">
<path d="M22 12C22 12.4858 21.8311 12.9459 21.5537 13.3389C21.5148 13.3939 21.4737 13.4476 21.4307 13.5C21.3715 13.5721 21.3085 13.6416 21.2422 13.708L13.708 21.2422C13.6416 21.3085 13.5721 21.3715 13.5 21.4307C13.4476 21.4737 13.3939 21.5148 13.3389 21.5537C12.9459 21.8311 12.4858 22 12 22C12 21.4484 11.9999 20.9513 12.0029 20.5C12.0152 18.6665 12.0775 17.5893 12.3926 16.6885C13.0962 14.6778 14.6778 13.0962 16.6885 12.3926C17.5893 12.0775 18.6665 12.0152 20.5 12.0029C20.9513 11.9999 21.4484 12 22 12ZM12 2C16.7058 2 20.6521 5.25076 21.7168 9.62891C21.8271 10.0832 21.4675 10.5 21 10.5C18.5105 10.4992 17.5596 10.4982 16.1924 10.9766C16.1021 11.0081 16.0127 11.0416 15.9238 11.0762C15.9731 10.8987 16 10.7041 16 10.5C16 9.67157 15.5523 9 15 9C14.4477 9 14 9.67157 14 10.5C14 11.0509 14.1982 11.5322 14.4932 11.793C12.8893 12.796 11.6494 14.3168 10.999 16.1299C10.435 15.9924 9.90987 15.741 9.44629 15.3975C9.11354 15.151 8.64407 15.221 8.39746 15.5537C8.15099 15.8865 8.22101 16.356 8.55371 16.6025C9.17503 17.063 9.88464 17.4041 10.6514 17.5898C10.4988 18.6808 10.4995 19.2982 10.5 21C10.5 21.4675 10.0832 21.8271 9.62891 21.7168C5.25076 20.6521 2 16.7058 2 12C2 6.47715 6.47715 2 12 2ZM9 9C8.44772 9 8 9.67157 8 10.5C8 11.3284 8.44772 12 9 12C9.55228 12 10 11.3284 10 10.5C10 9.67157 9.55228 9 9 9Z" fill="#1C274C"/>
</svg>
