<svg width="24" height="24" viewBox="0 0 24 24" fill="none" xmlns="http://www.w3.org/2000/svg">
<path d="M11.9998 1.25C12.7062 1.25 13.1551 1.74945 13.4568 2.19727C13.763 2.65176 14.0829 3.30673 14.4617 4.08301L16.7244 8.71973C16.9432 9.16833 17.0836 9.45535 17.2058 9.6543C17.2906 9.7924 17.3375 9.83725 17.3484 9.84668C17.3794 9.86107 17.4085 9.86514 17.4353 9.86328C17.4526 9.85366 17.5012 9.82284 17.5906 9.74023C17.7527 9.59036 17.9552 9.36234 18.2751 8.99805L18.3035 8.96484C18.8761 8.31289 19.344 7.78013 19.7292 7.41992C19.9268 7.23522 20.135 7.06536 20.3533 6.94336C20.5751 6.81934 20.8537 6.71918 21.1716 6.74707C21.6446 6.78862 22.0648 7.0282 22.3591 7.38379C22.7141 7.81267 22.7537 8.41235 22.7498 8.93066C22.7455 9.49071 22.6755 10.2346 22.5886 11.1582L22.3513 13.6797C22.1663 15.6453 22.0212 17.1849 21.7703 18.3809C21.5146 19.5994 21.1302 20.5636 20.3962 21.3145C19.6511 22.0766 18.7356 22.4253 17.6042 22.5908C16.516 22.7499 15.1415 22.75 13.4197 22.75H10.5808C8.8589 22.75 7.48356 22.7499 6.39526 22.5908C5.2642 22.4253 4.34917 22.0764 3.60425 21.3145C2.87022 20.5636 2.48494 19.5994 2.22925 18.3809C1.9783 17.1849 1.83415 15.6453 1.64917 13.6797L1.41187 11.1582C1.32494 10.2346 1.25508 9.49072 1.25073 8.93066C1.24671 8.4123 1.28637 7.81268 1.64136 7.38379C1.93566 7.02825 2.35583 6.78862 2.82886 6.74707C3.14663 6.71929 3.4254 6.81936 3.64722 6.94336C3.86531 7.0653 4.07283 7.23537 4.27026 7.41992C4.65554 7.78009 5.12344 8.31296 5.69604 8.96484L5.72534 8.99805C6.04514 9.3621 6.24692 9.59036 6.40894 9.74023C6.49768 9.82228 6.54656 9.85344 6.56421 9.86328C6.59106 9.86518 6.62085 9.8612 6.6521 9.84668C6.66296 9.83725 6.7089 9.7923 6.7937 9.6543C6.91595 9.45532 7.05712 9.16851 7.27612 8.71973L9.53882 4.08301C9.91764 3.30667 10.2375 2.65176 10.5437 2.19727C10.8454 1.74952 11.2936 1.25012 11.9998 1.25ZM11.9998 2.77246C11.9589 2.80892 11.8893 2.88455 11.7878 3.03516C11.5474 3.39196 11.2728 3.95029 10.8611 4.79395L8.60815 9.41016C8.40959 9.81711 8.23709 10.1708 8.07202 10.4395C7.90299 10.7145 7.6799 11.0078 7.33276 11.1826C7.01932 11.3404 6.66568 11.3989 6.31616 11.3438C5.92303 11.2815 5.62497 11.0577 5.39136 10.8418C5.16493 10.6325 4.91123 10.3439 4.62378 10.0166L4.59839 9.98828C3.98956 9.29518 3.57035 8.81897 3.24585 8.51562C3.08545 8.36571 2.97963 8.28917 2.91479 8.25293L2.91382 8.25195C2.88011 8.26431 2.84109 8.28944 2.80249 8.33398C2.80239 8.33481 2.80153 8.33668 2.80054 8.33984C2.79115 8.36979 2.74662 8.51173 2.74976 8.91895C2.75355 9.40621 2.81756 10.0847 2.90894 11.0557L3.13745 13.4912C3.32794 15.5152 3.46655 16.9702 3.698 18.0732C3.92675 19.1632 4.22806 19.8068 4.67651 20.2656C5.11407 20.7132 5.6763 20.9694 6.61304 21.1064C7.58032 21.2478 8.84542 21.25 10.6404 21.25H13.3601C15.1552 21.25 16.4202 21.2478 17.3875 21.1064C18.324 20.9694 18.8865 20.7132 19.324 20.2656C19.7723 19.8068 20.0738 19.1631 20.3025 18.0732C20.534 16.9702 20.6716 15.5152 20.8621 13.4912L21.0916 11.0557C21.1829 10.0847 21.246 9.4062 21.2498 8.91895C21.2528 8.51142 21.2084 8.36965 21.199 8.33984C21.198 8.33665 21.1971 8.33479 21.197 8.33398C21.1583 8.28932 21.1194 8.26427 21.0857 8.25195L21.0847 8.25293C21.0198 8.28928 20.9139 8.36581 20.7537 8.51562C20.4292 8.81897 20.01 9.29518 19.4011 9.98828L19.3767 10.0166C19.0892 10.3439 18.8356 10.6324 18.6091 10.8418C18.3755 11.0578 18.0766 11.2816 17.6833 11.3438C17.334 11.3988 16.9811 11.3404 16.6677 11.1826C16.3205 11.0078 16.0975 10.7146 15.9285 10.4395C15.7634 10.1707 15.59 9.81725 15.3914 9.41016L13.1394 4.79395C12.7277 3.9503 12.4529 3.39196 12.2126 3.03516C12.1109 2.88411 12.0406 2.80884 11.9998 2.77246ZM11.9998 10.75C12.5013 10.75 12.8139 11.075 12.9861 11.2998C13.1505 11.5144 13.3164 11.8117 13.4861 12.1162L13.6072 12.334C13.63 12.375 13.6481 12.407 13.6638 12.4346C13.6911 12.441 13.7228 12.4481 13.7625 12.457L14.0007 12.5107C14.3284 12.5847 14.654 12.6584 14.9041 12.7568C15.1802 12.8656 15.5547 13.0781 15.699 13.542C15.8406 13.9976 15.6618 14.3838 15.5056 14.6318C15.361 14.8613 15.1415 15.1181 14.9167 15.3809L14.7556 15.5684C14.7211 15.6087 14.6955 15.6397 14.6736 15.666C14.6766 15.7023 14.6809 15.7444 14.6863 15.8008L14.7097 16.0508C14.7439 16.4027 14.7775 16.7427 14.7654 17.0146C14.7527 17.2999 14.6837 17.7315 14.2966 18.0254C13.8973 18.3285 13.4563 18.2627 13.1765 18.1826C12.9189 18.1087 12.614 17.9684 12.3074 17.8271L12.0847 17.7246C12.0674 17.7165 12.0513 17.7087 12.0369 17.7021C12.0236 17.6961 12.0112 17.6907 11.9998 17.6855C11.9759 17.6963 11.9482 17.7092 11.9148 17.7246L11.6921 17.8271C11.3855 17.9684 11.0808 18.1087 10.823 18.1826C10.5433 18.2627 10.1022 18.3285 9.70288 18.0254C9.31595 17.7315 9.24781 17.2999 9.23511 17.0146C9.22299 16.7427 9.25563 16.4026 9.28979 16.0508L9.31421 15.8008C9.31967 15.7444 9.32392 15.7023 9.3269 15.666C9.305 15.6397 9.27838 15.6087 9.2439 15.5684L9.08374 15.3809C8.85895 15.1181 8.63943 14.8613 8.49487 14.6318C8.33869 14.3837 8.1598 13.9977 8.30151 13.542C8.44574 13.0782 8.81934 12.8657 9.09546 12.7568C9.34555 12.6583 9.67195 12.5847 9.99976 12.5107L10.2371 12.457C10.2766 12.4481 10.3085 12.4409 10.3357 12.4346C10.3514 12.407 10.3696 12.3748 10.3923 12.334L10.5144 12.1162C10.684 11.8117 10.8491 11.5144 11.0134 11.2998C11.1856 11.075 11.4982 10.7501 11.9998 10.75ZM11.8015 12.8877L11.7029 13.0645L11.6804 13.1045C11.6019 13.2481 11.4714 13.4868 11.2546 13.6514C11.0336 13.8189 10.7677 13.8763 10.6121 13.9102L10.5681 13.9199L10.3777 13.9629C10.2025 14.0025 10.0592 14.0357 9.93726 14.0664C10.0165 14.164 10.1198 14.2849 10.2537 14.4414L10.3845 14.5938L10.4138 14.6289C10.5217 14.7532 10.6965 14.9537 10.7771 15.2129C10.8567 15.4689 10.8296 15.733 10.8123 15.8994L10.8074 15.9463L10.7878 16.1484C10.7696 16.3366 10.7552 16.4872 10.7458 16.6094C10.85 16.5635 10.9684 16.5091 11.1091 16.4443L11.2878 16.3623L11.3279 16.3428C11.4713 16.2751 11.7213 16.1573 11.9998 16.1572C12.2782 16.1572 12.5281 16.275 12.6716 16.3428L12.7126 16.3623L12.8914 16.4443C13.032 16.5091 13.1505 16.5635 13.2546 16.6094C13.2451 16.4872 13.2309 16.3367 13.2126 16.1484L13.1931 15.9463L13.1882 15.8994C13.1708 15.733 13.1438 15.4689 13.2234 15.2129C13.3039 14.9539 13.4778 14.7532 13.5857 14.6289L13.616 14.5938L13.7458 14.4414C13.8797 14.2849 13.983 14.164 14.0623 14.0664C13.9403 14.0357 13.7978 14.0025 13.6228 13.9629L13.4314 13.9199L13.3884 13.9102C13.2327 13.8763 12.9661 13.8193 12.7449 13.6514C12.528 13.4868 12.3987 13.2481 12.3201 13.1045L12.2976 13.0645L12.199 12.8877C12.1228 12.7512 12.0579 12.6348 11.9998 12.5342C11.9417 12.6348 11.8776 12.7512 11.8015 12.8877Z" fill="#48465C"/>
</svg>
