<svg width="24" height="24" viewBox="0 0 24 24" fill="none" xmlns="http://www.w3.org/2000/svg">
<path d="M10.5177 2.6416C11.373 1.78629 12.7601 1.78629 13.6154 2.6416L19.3566 8.38281C17.7509 8.59989 16.4763 9.86166 16.2394 11.4609L14.92 10.1406L13.5958 11.4648C13.4829 11.5778 13.4622 11.7535 13.546 11.8896L14.1915 12.9395C14.9289 14.1377 13.4992 15.4881 12.3448 14.6836L7.72668 11.4658L12.671 18.5596C13.4814 19.7223 12.1076 21.1562 10.9113 20.3965L4.79504 16.5127L5.44446 17.8838C5.77798 18.5879 5.63399 19.4256 5.08215 19.9775L2.5304 22.5303C2.23757 22.823 1.76272 22.8229 1.46985 22.5303C1.17699 22.2374 1.17705 21.7626 1.46985 21.4697L4.02161 18.917C4.12419 18.8145 4.15157 18.6587 4.08899 18.5264L3.13977 16.5225C2.58292 15.3468 3.90982 14.174 5.00793 14.8711L10.8644 18.5898L5.84778 11.3936C5.01955 10.2053 6.46609 8.75869 7.65442 9.58691L12.4044 12.8975L12.2687 12.6758C11.8209 11.9482 11.9311 11.0084 12.5353 10.4043L13.8595 9.08008L10.5177 5.73828C9.66282 4.88302 9.66275 3.49682 10.5177 2.6416ZM19.8497 9.84961C21.0261 9.84961 21.9824 10.7947 22.0001 11.9668C21.9918 12.5161 21.7777 13.0632 21.3585 13.4824C20.6729 14.1678 19.6455 14.3042 18.8243 13.8906C18.1546 13.5264 17.7003 12.816 17.7003 12C17.7003 10.8128 18.6626 9.84987 19.8497 9.84961Z" fill="#48465C"/>
</svg>
