<svg width="24" height="24" viewBox="0 0 24 24" fill="none" xmlns="http://www.w3.org/2000/svg">
<path d="M5.28516 10.6479C5.60368 11.2577 6.01999 11.83 6.53223 12.3423L11.6582 17.4683C12.1704 17.9804 12.7428 18.3958 13.3525 18.7144C12.3618 20.6641 10.3368 21.9995 8 21.9995C4.68629 21.9995 2 19.3132 2 15.9995C2.00016 13.6631 3.33581 11.6387 5.28516 10.6479ZM20.4072 8.71924C22.5304 10.8426 22.5305 14.2845 20.4072 16.4077C18.284 18.5309 14.842 18.5309 12.7188 16.4077L10.7656 14.4546L10.7734 14.4526C11.0537 14.3631 11.445 14.2177 11.916 13.9907C12.8589 13.5364 14.1176 12.7549 15.4355 11.437C16.7536 10.1189 17.5356 8.85959 17.9902 7.9165C18.2171 7.44554 18.3627 7.05418 18.4521 6.77393L18.4551 6.76611L20.4072 8.71924ZM7.59277 3.59229C9.71597 1.46944 13.158 1.46942 15.2812 3.59229L17.2041 5.51514L17.1084 6.01025L17.1064 6.01904C17.1042 6.02916 17.1003 6.04778 17.0938 6.07373C17.0807 6.12555 17.0583 6.20786 17.0234 6.31689C16.9535 6.53571 16.833 6.86194 16.6387 7.26514C16.2504 8.07082 15.563 9.18753 14.375 10.3755C13.187 11.5636 12.0702 12.2519 11.2646 12.6401C10.8619 12.8343 10.5362 12.954 10.3174 13.0239C10.2081 13.0588 10.1251 13.0811 10.0732 13.0942C10.0473 13.1007 10.0287 13.1046 10.0186 13.1069L10.0107 13.1089L9.51465 13.2046L7.59277 11.2817C5.46949 9.15848 5.46949 5.71556 7.59277 3.59229ZM13.5303 4.47021C13.2374 4.17732 12.7626 4.17732 12.4697 4.47021C12.177 4.76312 12.1769 5.23793 12.4697 5.53076L13.9697 7.03076C14.2626 7.32346 14.7374 7.32346 15.0303 7.03076C15.3231 6.73793 15.323 6.26312 15.0303 5.97021L13.5303 4.47021Z" fill="#1C274C"/>
</svg>
