<svg width="24" height="24" viewBox="0 0 24 24" fill="none" xmlns="http://www.w3.org/2000/svg">
<path d="M12 6.25C17.6087 6.25 20.5946 8.15782 21.8701 9.29688C22.519 9.87654 22.7499 10.6847 22.75 11.418V13.543C22.75 15.2128 21.2258 16.4366 19.5918 16.1973L17.5918 15.9043C16.2644 15.7097 15.25 14.5971 15.25 13.25V12.9336C15.2347 12.9045 15.1865 12.8295 15.0566 12.7344C14.7426 12.5043 13.9306 12.1465 12 12.1465C10.0694 12.1465 9.25741 12.5043 8.94336 12.7344C8.81348 12.8295 8.76533 12.9045 8.75 12.9336V13.4785C8.74986 14.6778 7.93979 15.7121 6.79102 16.0488L4.79102 16.6357C3.05949 17.1432 1.2501 15.8967 1.25 14.0645V12.1416C1.25 11.5311 1.40599 10.8625 1.86328 10.3105C2.97871 8.96434 5.98964 6.25 12 6.25ZM12 7.75C6.51318 7.75 3.902 10.2014 3.01855 11.2676C2.84366 11.4787 2.75 11.7743 2.75 12.1416V14.0645C2.7501 14.8282 3.53205 15.4416 4.36914 15.1963L6.36914 14.6094C6.90657 14.4519 7.24986 13.9834 7.25 13.4785V12.8613H8C7.25 12.8613 7.25 12.8594 7.25 12.8594V12.8447L7.25098 12.8242C7.2516 12.8102 7.25234 12.7945 7.25391 12.7773C7.25706 12.7427 7.26246 12.7016 7.27148 12.6553C7.28961 12.5623 7.32246 12.4485 7.37988 12.3223C7.49707 12.0646 7.70597 11.7815 8.05664 11.5244C8.74259 11.0218 9.93056 10.6465 12 10.6465C14.0694 10.6465 15.2574 11.0218 15.9434 11.5244C16.294 11.7815 16.5029 12.0646 16.6201 12.3223C16.6775 12.4485 16.7104 12.5623 16.7285 12.6553C16.7376 12.7016 16.743 12.7427 16.7461 12.7773C16.7477 12.7945 16.7483 12.8102 16.749 12.8242L16.75 12.8447V12.8594C16.75 12.8594 16.75 12.8613 16 12.8613H16.75V13.25C16.75 13.8157 17.1816 14.3279 17.8096 14.4199L19.8096 14.7139C20.5955 14.8287 21.25 14.2405 21.25 13.543V11.418C21.2499 10.9776 21.1135 10.6316 20.8711 10.415C19.8651 9.51671 17.233 7.75 12 7.75Z" fill="#1C274C"/>
</svg>
