<svg width="24" height="24" viewBox="0 0 24 24" fill="none" xmlns="http://www.w3.org/2000/svg">
<path d="M12.4766 1.25C18.1504 1.2502 22.7498 5.84967 22.75 11.5234C22.75 12.2006 22.2006 12.75 21.5234 12.75H12.75V20C12.75 21.5188 11.5188 22.75 10 22.75C8.48122 22.75 7.25 21.5188 7.25 20V19C7.25 18.5858 7.58579 18.25 8 18.25C8.41421 18.25 8.75 18.5858 8.75 19V20C8.75 20.6904 9.30964 21.25 10 21.25C10.6904 21.25 11.25 20.6904 11.25 20V12.75H2.47656C1.79935 12.75 1.25 12.2006 1.25 11.5234C1.2502 5.84967 5.84967 1.2502 11.5234 1.25H12.4766ZM8.84375 3.16699C5.39171 4.27318 2.87012 7.45885 2.75391 11.25H6.41504C6.59106 9.80771 6.94178 7.65401 7.60645 5.7373C7.9253 4.81789 8.32834 3.91679 8.84375 3.16699ZM12 2.75C11.4026 2.75 10.8615 3.04627 10.3477 3.66211C9.82535 4.28818 9.38456 5.18724 9.02344 6.22852C8.43352 7.9297 8.10281 9.86814 7.92676 11.25H16.0732C15.8972 9.86814 15.5665 7.9297 14.9766 6.22852C14.6154 5.18725 14.1746 4.28818 13.6523 3.66211C13.1385 3.04627 12.5974 2.75 12 2.75ZM15.1562 3.16699C15.6716 3.91679 16.0747 4.81788 16.3936 5.7373C17.0582 7.65401 17.409 9.80771 17.585 11.25H21.2461C21.1299 7.45884 18.6083 4.27316 15.1562 3.16699Z" fill="#48465C"/>
</svg>
