<svg width="24" height="24" viewBox="0 0 24 24" fill="none" xmlns="http://www.w3.org/2000/svg">
<path d="M12.0574 1.25C14.3658 1.24999 16.1752 1.24968 17.5867 1.43945C19.0312 1.63371 20.1714 2.03984 21.0662 2.93457C21.9607 3.82932 22.366 4.96952 22.5603 6.41406C22.7499 7.82545 22.7498 9.63431 22.7498 11.9424V12.0576C22.7498 12.5023 22.7501 12.9286 22.7488 13.3369C22.7508 13.3693 22.7501 13.4025 22.7478 13.4355C22.7413 15.1019 22.7105 16.4685 22.5603 17.5859C22.366 19.0304 21.9607 20.1707 21.0662 21.0654C20.1714 21.9602 19.0312 22.3662 17.5867 22.5605C16.849 22.6596 16.0024 22.7069 15.033 22.7295C14.9411 22.7516 14.8431 22.7564 14.7439 22.7412C14.7335 22.7396 14.7229 22.7383 14.7126 22.7363C13.911 22.7504 13.0282 22.75 12.0574 22.75H11.9421C9.63408 22.75 7.8252 22.7502 6.41382 22.5605C4.96908 22.3662 3.82914 21.9602 2.93433 21.0654C2.0396 20.1706 1.63442 19.0306 1.44019 17.5859C1.25046 16.1745 1.24975 14.3658 1.24976 12.0576V11.9424C1.24976 11.3364 1.25023 10.7646 1.25366 10.2256C1.24856 10.173 1.24898 10.121 1.25464 10.0703C1.26584 8.62563 1.30511 7.41898 1.44019 6.41406C1.63442 4.96937 2.03958 3.82937 2.93433 2.93457C3.82914 2.03976 4.96908 1.63369 6.41382 1.43945C7.8252 1.24972 9.63407 1.24999 11.9421 1.25H12.0574ZM14.1931 21.2432C14.736 15.0506 9.35159 9.85661 3.08765 10.7559L2.75073 10.8037C2.74969 11.1826 2.74976 11.5809 2.74976 12C2.74976 14.3782 2.75173 16.0867 2.92651 17.3867C3.09839 18.6648 3.42532 19.4352 3.99487 20.0049C4.56453 20.5746 5.33561 20.9014 6.61401 21.0732C7.91391 21.248 9.6219 21.25 11.9998 21.25C12.804 21.25 13.532 21.2502 14.1931 21.2432ZM20.9236 13.9932C18.5042 13.6582 16.3039 14.7946 15.0847 16.6357C15.5912 18.0538 15.8187 19.6007 15.7009 21.208C16.3322 21.1822 16.8893 21.1401 17.3865 21.0732C18.6648 20.9014 19.436 20.5746 20.0056 20.0049C20.575 19.4353 20.9022 18.6647 21.074 17.3867C21.1943 16.4921 21.2318 15.4038 21.2439 14.0371L20.9236 13.9932ZM11.9998 2.75C9.62189 2.75 7.91391 2.75204 6.61401 2.92676C5.33561 3.09864 4.56453 3.42546 3.99487 3.99512C3.42532 4.56471 3.09839 5.33513 2.92651 6.61328C2.82678 7.35501 2.78324 8.22996 2.7644 9.28613L2.87378 9.27051C7.79468 8.56391 12.2458 11.1167 14.3875 15.0732C15.9699 13.2198 18.4405 12.1345 21.1296 12.5068L21.2498 12.5234C21.2499 12.3527 21.2498 12.1782 21.2498 12C21.2498 9.62178 21.2488 7.91326 21.074 6.61328C20.9022 5.33531 20.575 4.56469 20.0056 3.99512C19.436 3.42548 18.6648 3.09864 17.3865 2.92676C16.0865 2.75198 14.378 2.75 11.9998 2.75ZM15.9998 5.25C17.5186 5.25 18.7498 6.48122 18.7498 8C18.7498 9.51878 17.5186 10.75 15.9998 10.75C14.481 10.7499 13.2498 9.51872 13.2498 8C13.2498 6.48128 14.481 5.2501 15.9998 5.25ZM15.9998 6.75C15.3094 6.7501 14.7498 7.3097 14.7498 8C14.7498 8.6903 15.3094 9.2499 15.9998 9.25C16.6902 9.25 17.2498 8.69036 17.2498 8C17.2498 7.30964 16.6902 6.75 15.9998 6.75Z" fill="#1C274C"/>
</svg>
