<svg width="24" height="24" viewBox="0 0 24 24" fill="none" xmlns="http://www.w3.org/2000/svg">
<path d="M15.9997 12.25C18.0906 12.25 19.8509 13.815 20.0954 15.8916L20.7448 21.4121C20.7932 21.8234 20.499 22.1967 20.0876 22.2451C19.6763 22.2934 19.3041 21.9991 19.2555 21.5879L18.6061 16.0674C18.4811 15.0042 17.7308 14.1519 16.7497 13.8594V18.0518C16.7497 18.9503 16.7505 19.7001 16.6706 20.2949C16.5862 20.9224 16.4002 21.4891 15.945 21.9443C15.4895 22.3998 14.9223 22.5855 14.2946 22.6699C13.6999 22.7499 12.9507 22.75 12.0524 22.75H11.9479C11.0496 22.75 10.3005 22.7499 9.70572 22.6699C9.07793 22.5855 8.5108 22.3998 8.05533 21.9443C7.60008 21.4891 7.41417 20.9225 7.32974 20.2949C7.24978 19.7001 7.24963 18.9503 7.24966 18.0518V13.8594C6.26876 14.152 5.51926 15.0044 5.3942 16.0674L4.74478 21.5879C4.69625 21.999 4.32389 22.2933 3.91275 22.2451C3.50137 22.1967 3.20712 21.8234 3.25552 21.4121L3.90494 15.8916C4.14933 13.8151 5.90888 12.2502 7.99966 12.25H15.9997ZM11.9997 2C14.2088 2 15.9997 3.79086 15.9997 6C15.9997 8.20914 14.2088 10 11.9997 10C9.79067 9.99983 7.99966 8.20903 7.99966 6C7.99966 3.79097 9.79067 2.00017 11.9997 2Z" fill="#1C274C"/>
</svg>
