<svg width="24" height="24" viewBox="0 0 24 24" fill="none" xmlns="http://www.w3.org/2000/svg">
<path d="M17.3093 2.35815C18.3614 1.03393 20.3126 0.87237 21.5681 2.00562C21.6241 2.05615 21.6861 2.11779 21.7693 2.20093L21.7996 2.2312C21.8824 2.31405 21.9444 2.37551 21.9949 2.4314C23.128 3.68677 22.9662 5.63803 21.6423 6.69019C21.5832 6.73714 21.5116 6.78877 21.4158 6.85718L19.3064 8.36401C19.6897 8.88605 19.9441 9.42954 19.9441 10.072C19.9441 10.7537 19.6593 11.3198 19.2449 11.863C18.8506 12.3797 18.2751 12.9549 17.5798 13.6501L13.6501 17.5798C12.9549 18.2752 12.3796 18.8507 11.863 19.2449C11.3198 19.6593 10.7537 19.9441 10.072 19.9441C9.42954 19.9441 8.88605 19.6897 8.36401 19.3064L6.85718 21.4158C6.78877 21.5116 6.73715 21.5832 6.69019 21.6423C5.63803 22.9662 3.68678 23.128 2.4314 21.9949C2.37552 21.9444 2.31406 21.8824 2.2312 21.7996L2.20093 21.7693C2.11779 21.6861 2.05614 21.6241 2.00562 21.5681C0.872369 20.3126 1.03393 18.3614 2.35815 17.3093C2.41717 17.2625 2.48823 17.2115 2.58374 17.1433L4.69312 15.6365C4.30975 15.1144 4.0564 14.5701 4.0564 13.9275C4.05649 13.2461 4.34131 12.6805 4.75562 12.1375C5.14978 11.6209 5.72444 11.0456 6.41968 10.3503L10.3503 6.41968C11.0456 5.72443 11.6208 5.14979 12.1375 4.75562C12.6804 4.34129 13.2461 4.05649 13.9275 4.0564C14.5701 4.0564 15.1144 4.30975 15.6365 4.69312L17.1433 2.58374C17.2115 2.48823 17.2625 2.41716 17.3093 2.35815ZM3.47241 18.3513C3.35208 18.4373 3.31551 18.4644 3.29077 18.4841C2.64445 18.9979 2.56566 19.9503 3.1189 20.5632C3.14008 20.5867 3.17166 20.619 3.27612 20.7234C3.38077 20.8281 3.41282 20.8604 3.43628 20.8816C4.04928 21.4349 5.00267 21.3552 5.51636 20.7087C5.53601 20.6839 5.56243 20.6472 5.64819 20.5271L7.2312 18.3103C6.99486 18.0806 6.74105 17.827 6.46753 17.5535L6.44604 17.532C6.17241 17.2583 5.91903 17.0047 5.68921 16.7683L3.47241 18.3513ZM13.9275 5.5564C13.7058 5.55648 13.4562 5.63553 13.0466 5.948C12.6198 6.27378 12.1155 6.77563 11.3738 7.51733L7.51733 11.3738C6.77563 12.1155 6.27378 12.6198 5.948 13.0466C5.63553 13.4562 5.55648 13.7058 5.5564 13.9275C5.5564 14.2282 5.70067 14.5687 6.34058 15.2732C6.64728 15.6109 7.0333 15.9982 7.51733 16.4822C8.0014 16.9662 8.38861 17.3522 8.72632 17.6589C9.43103 18.299 9.77134 18.4441 10.072 18.4441C10.2938 18.4441 10.5433 18.3649 10.9529 18.0525C11.38 17.7267 11.8847 17.2242 12.6267 16.4822L16.4822 12.6267C17.2242 11.8847 17.7267 11.38 18.0525 10.9529C18.3649 10.5433 18.4441 10.2938 18.4441 10.072C18.4441 9.77134 18.299 9.43103 17.6589 8.72632C17.3522 8.38861 16.9662 8.0014 16.4822 7.51733C15.9982 7.0333 15.6109 6.64728 15.2732 6.34058C14.5687 5.70067 14.2282 5.5564 13.9275 5.5564ZM20.5632 3.1189C19.9503 2.56566 18.9979 2.64445 18.4841 3.29077C18.4644 3.31551 18.4373 3.35208 18.3513 3.47241L16.7683 5.68921C17.0047 5.91903 17.2583 6.17241 17.532 6.44604L17.5535 6.46753C17.827 6.74105 18.0806 6.99486 18.3103 7.2312L20.5271 5.64819C20.6472 5.56242 20.684 5.53601 20.7087 5.51636C21.3552 5.00267 21.4349 4.04928 20.8816 3.43628C20.8604 3.41282 20.8281 3.38077 20.7234 3.27612C20.619 3.17166 20.5867 3.14008 20.5632 3.1189Z" fill="#1C274C"/>
</svg>
