<svg width="24" height="24" viewBox="0 0 24 24" fill="none" xmlns="http://www.w3.org/2000/svg">
<path d="M12.0576 1.25C14.3657 1.24999 16.1745 1.24974 17.5859 1.43945C19.0306 1.63369 20.1706 2.03977 21.0654 2.93457C21.9602 3.82938 22.3662 4.96932 22.5605 6.41406C22.7502 7.82544 22.75 9.63432 22.75 11.9424V12.0576C22.75 14.3657 22.7502 16.1745 22.5605 17.5859C22.3662 19.0306 21.9602 20.1706 21.0654 21.0654C20.1706 21.9602 19.0306 22.3662 17.5859 22.5605C16.1745 22.7502 14.3657 22.75 12.0576 22.75H11.9424C9.63432 22.75 7.82544 22.7502 6.41406 22.5605C4.96932 22.3662 3.82938 21.9602 2.93457 21.0654C2.03977 20.1706 1.63369 19.0306 1.43945 17.5859C1.24974 16.1745 1.24999 14.3657 1.25 12.0576V11.9424C1.24999 9.63433 1.24974 7.82544 1.43945 6.41406C1.63369 4.96932 2.03976 3.82938 2.93457 2.93457C3.82938 2.03976 4.96932 1.63369 6.41406 1.43945C7.82544 1.24974 9.63433 1.24999 11.9424 1.25H12.0576ZM12 2.75C9.62178 2.75 7.91326 2.75198 6.61328 2.92676C5.33508 3.09865 4.56472 3.42551 3.99512 3.99512C3.42551 4.56472 3.09865 5.33508 2.92676 6.61328C2.75198 7.91326 2.75 9.62178 2.75 12C2.75 14.3782 2.75198 16.0867 2.92676 17.3867C3.09865 18.6649 3.42551 19.4352 3.99512 20.0049C4.56472 20.5745 5.33508 20.9014 6.61328 21.0732C7.91326 21.248 9.62178 21.25 12 21.25C14.3782 21.25 16.0867 21.248 17.3867 21.0732C18.6649 20.9014 19.4352 20.5745 20.0049 20.0049C20.5745 19.4352 20.9014 18.6649 21.0732 17.3867C21.248 16.0867 21.25 14.3782 21.25 12C21.25 9.62178 21.248 7.91326 21.0732 6.61328C20.9014 5.33508 20.5745 4.56472 20.0049 3.99512C19.4352 3.42551 18.6649 3.09865 17.3867 2.92676C16.0867 2.75198 14.3782 2.75 12 2.75ZM16 8.25C16.4142 8.25 16.75 8.58579 16.75 9V9.02539C16.75 9.46979 16.7503 9.84089 16.7295 10.1455C16.7079 10.4626 16.6613 10.7624 16.541 11.0527C16.2619 11.7264 15.7264 12.2619 15.0527 12.541C14.7624 12.6613 14.4626 12.7079 14.1455 12.7295C13.8409 12.7503 13.4698 12.75 13.0254 12.75H12.75V15C12.75 15.4142 12.4142 15.75 12 15.75C11.5858 15.75 11.25 15.4142 11.25 15V12.75H8.75V15C8.75 15.4142 8.41421 15.75 8 15.75C7.58579 15.75 7.25 15.4142 7.25 15V9C7.25 8.58579 7.58579 8.25 8 8.25C8.41421 8.25 8.75 8.58579 8.75 9V11.25H11.25V9C11.25 8.58579 11.5858 8.25 12 8.25C12.4142 8.25 12.75 8.58579 12.75 9V11.25H13C13.476 11.25 13.7955 11.2493 14.043 11.2324C14.2836 11.216 14.4013 11.1872 14.4785 11.1553C14.7847 11.0284 15.0285 10.7847 15.1553 10.4785C15.1873 10.4013 15.216 10.2836 15.2324 10.043C15.2493 9.7955 15.25 9.476 15.25 9C15.25 8.58579 15.5858 8.25 16 8.25Z" fill="#1C274C"/>
</svg>
