<svg width="24" height="24" viewBox="0 0 24 24" fill="none" xmlns="http://www.w3.org/2000/svg">
<path d="M9.64328 3.20356C13.7898 2.0925 15.8634 1.5369 17.4968 2.47993C19.1299 3.42307 19.6856 5.49667 20.7966 9.64302C21.9076 13.7895 22.4632 15.8632 21.5202 17.4965C20.5771 19.1297 18.5036 19.6853 14.3571 20.7963C10.2105 21.9074 8.137 22.4629 6.50363 21.52C4.87027 20.5769 4.31489 18.5034 3.20382 14.3569C2.09272 10.2102 1.53715 8.13676 2.48019 6.50337C3.42324 4.87005 5.49666 4.31465 9.64328 3.20356ZM17.1794 13.3403C16.8913 13.0427 16.4165 13.0356 16.1189 13.3237C15.2817 14.1341 14.1591 14.786 12.8415 15.1391C11.5239 15.4922 10.2256 15.4887 9.09542 15.2055C8.69364 15.1048 8.28597 15.3486 8.18527 15.7504C8.08457 16.1522 8.32849 16.5597 8.73019 16.6606C10.1166 17.008 11.6738 17.0041 13.2292 16.5874L13.2819 16.5737L13.4782 16.9731C13.8395 17.7093 14.7253 18.0193 15.4665 17.6684C16.2225 17.3104 16.5392 16.4028 16.1706 15.6518L16.0124 15.3295C16.4294 15.0485 16.8143 14.7372 17.1618 14.4008C17.4592 14.1127 17.4674 13.6378 17.1794 13.3403ZM9.68038 11.0688C9.46599 10.2688 8.85932 9.73555 8.32589 9.87837C7.79242 10.0213 7.53336 10.7862 7.74777 11.5864C7.96221 12.3865 8.56883 12.9187 9.10226 12.7758C9.63553 12.6328 9.89456 11.8688 9.68038 11.0688ZM15.4753 9.51509C15.2608 8.71517 14.6542 8.18271 14.1208 8.32563C13.5877 8.4689 13.3293 9.23365 13.5437 10.0336C13.7582 10.8336 14.3647 11.3661 14.8982 11.2231C15.4313 11.0799 15.6897 10.3151 15.4753 9.51509Z" fill="#1C274C"/>
</svg>
