<svg width="24" height="24" viewBox="0 0 24 24" fill="none" xmlns="http://www.w3.org/2000/svg">
<path d="M12 2C16.714 2 19.0708 2.00037 20.5352 3.46484C21.9996 4.9293 22 7.28597 22 12C22 16.714 21.9997 19.0708 20.5352 20.5352C19.0708 21.9997 16.714 22 12 22C7.28597 22 4.9293 21.9996 3.46484 20.5352C2.00037 19.0708 2 16.714 2 12C2 7.28595 2.00037 4.9293 3.46484 3.46484C4.9293 2.00037 7.28595 2 12 2ZM17.4541 6.90332C17.1247 6.65255 16.6543 6.71652 16.4033 7.0459L10.1035 15.3145L7.56543 12.4072C7.29304 12.0951 6.81887 12.0626 6.50684 12.335C6.1948 12.6074 6.16218 13.0816 6.43457 13.3936L9.57812 16.9932C9.72629 17.1629 9.94288 17.2575 10.168 17.25C10.3931 17.2425 10.6028 17.1333 10.7393 16.9541L17.5967 7.9541C17.8474 7.62464 17.7835 7.15427 17.4541 6.90332Z" fill="#1C274C"/>
</svg>
