<svg width="24" height="24" viewBox="0 0 24 24" fill="none" xmlns="http://www.w3.org/2000/svg">
<path d="M4.86914 16.6855C7.51461 15.1468 11.2717 14.2808 13.7793 15.7764C13.9476 15.8768 14.0992 15.9983 14.2285 16.1436C14.7864 16.7705 14.7457 17.716 14.1025 18.2773C13.9667 18.3957 13.8224 18.4863 13.6768 18.5176C13.7964 18.5037 13.911 18.4872 14.0205 18.4697C14.9319 18.3243 15.6971 17.8377 16.3975 17.3086L18.2051 15.9434C18.8422 15.4623 19.7877 15.4623 20.4248 15.9434C20.9982 16.3766 21.1732 17.0897 20.8105 17.6709C20.3877 18.3489 19.7918 19.2163 19.2197 19.7461C18.6467 20.2767 17.794 20.7509 17.0977 21.0869C16.3262 21.4593 15.4733 21.6731 14.6064 21.8135C12.8485 22.0979 11.0165 22.0548 9.27637 21.6963C8.29257 21.4936 7.27063 21.3887 6.25977 21.3887H6C5.05734 21.3887 4.58588 21.3885 4.29297 21.0957C4.00011 20.8028 4 20.3313 4 19.3887V18.2764C4 17.7582 3.99989 17.499 4.13281 17.2676C4.26597 17.036 4.46742 16.9192 4.86914 16.6855ZM14.25 2C14.25 4.07107 15.9289 5.75 18 5.75V6.25C15.9289 6.25 14.25 7.92893 14.25 10H9.75C9.75 7.92893 8.07107 6.25 6 6.25V5.75C8.07107 5.75 9.75 4.07107 9.75 2H14.25ZM6.03027 7.75C7.24847 7.76625 8.23352 8.75061 8.25 9.96875C7.45956 9.91748 6.9527 9.78078 6.58594 9.41406C6.21916 9.04729 6.08154 8.5405 6.03027 7.75ZM17.9697 7.75C17.9184 8.5405 17.7809 9.04729 17.4141 9.41406C17.0473 9.78076 16.5404 9.91749 15.75 9.96875C15.7665 8.7506 16.7515 7.76625 17.9697 7.75ZM12 5C11.4477 5 11 5.44772 11 6C11 6.55228 11.4477 7 12 7C12.5523 7 13 6.55228 13 6C13 5.44772 12.5523 5 12 5ZM8.25 2.03125C8.23375 3.2496 7.24861 4.23375 6.03027 4.25C6.08156 3.45987 6.21936 2.95361 6.58594 2.58691C6.95271 2.22013 7.4595 2.08252 8.25 2.03125ZM15.75 2.03125C16.5405 2.08252 17.0473 2.22013 17.4141 2.58691C17.7807 2.95361 17.9184 3.45985 17.9697 4.25C16.7513 4.23375 15.7662 3.24959 15.75 2.03125Z" fill="#48465C"/>
</svg>
