<svg width="24" height="24" viewBox="0 0 24 24" fill="none" xmlns="http://www.w3.org/2000/svg">
<path d="M10 16.25C10.4142 16.25 10.75 16.5858 10.75 17C10.75 17.4142 10.4142 17.75 10 17.75H2C1.58579 17.75 1.25 17.4142 1.25 17C1.25 16.5858 1.58579 16.25 2 16.25H10ZM17 7C19.7614 7 22 9.23858 22 12C22 14.7614 19.7614 17 17 17C14.2386 17 12 14.7614 12 12C12 9.23858 14.2386 7 17 7ZM17 9.25C16.5858 9.25 16.25 9.58579 16.25 10V11.8467C16.2501 12.0269 16.3156 12.2006 16.4336 12.3369L17.4336 13.4912C17.7049 13.804 18.1783 13.8375 18.4912 13.5664C18.804 13.2951 18.8375 12.8217 18.5664 12.5088L17.75 11.5664V10C17.75 9.58579 17.4142 9.25 17 9.25ZM8 11.25C8.41421 11.25 8.75 11.5858 8.75 12C8.75 12.4142 8.41421 12.75 8 12.75H2C1.58579 12.75 1.25 12.4142 1.25 12C1.25 11.5858 1.58579 11.25 2 11.25H8ZM10 6.25C10.4142 6.25 10.75 6.58579 10.75 7C10.75 7.41421 10.4142 7.75 10 7.75H2C1.58579 7.75 1.25 7.41421 1.25 7C1.25 6.58579 1.58579 6.25 2 6.25H10Z" fill="#1C274C"/>
</svg>
