<svg width="24" height="24" viewBox="0 0 24 24" fill="none" xmlns="http://www.w3.org/2000/svg">
<path d="M20 2C21.1046 2 22 2.89543 22 4C22 4.84413 21.4769 5.56583 20.7373 5.85938C20.7459 5.90478 20.75 5.9521 20.75 6V18C20.75 18.0477 20.7458 18.0944 20.7373 18.1396C21.4771 18.4331 22 19.1558 22 20C22 21.1046 21.1046 22 20 22C19.1558 22 18.4331 21.4771 18.1396 20.7373C18.0944 20.7458 18.0477 20.75 18 20.75H6C5.9521 20.75 5.90478 20.7459 5.85938 20.7373C5.56583 21.4769 4.84413 22 4 22C2.89543 22 2 21.1046 2 20C2 19.1558 2.52291 18.4331 3.2627 18.1396C3.25418 18.0944 3.25 18.0477 3.25 18V6C3.25 5.9521 3.25412 5.90478 3.2627 5.85938C2.52308 5.56584 2 4.84414 2 4C2 2.89543 2.89543 2 4 2C4.84413 2 5.56584 2.52308 5.85938 3.2627C5.90478 3.25412 5.9521 3.25 6 3.25H18C18.0477 3.25 18.0944 3.25418 18.1396 3.2627C18.4331 2.52291 19.1558 2 20 2ZM18 4.75H6C5.9521 4.75 5.90478 4.74588 5.85938 4.7373C5.6564 5.24873 5.24873 5.6564 4.7373 5.85938C4.74588 5.90478 4.75 5.9521 4.75 6V18C4.75 18.0477 4.74582 18.0944 4.7373 18.1396C5.24887 18.3426 5.65636 18.7511 5.85938 19.2627C5.90478 19.2541 5.9521 19.25 6 19.25H18C18.0477 19.25 18.0944 19.2542 18.1396 19.2627C18.3426 18.751 18.751 18.3426 19.2627 18.1396C19.2542 18.0944 19.25 18.0477 19.25 18V6C19.25 5.9521 19.2541 5.90478 19.2627 5.85938C18.7511 5.65636 18.3426 5.24887 18.1396 4.7373C18.0944 4.74582 18.0477 4.75 18 4.75ZM15 8.25C15.4142 8.25 15.75 8.58579 15.75 9C15.75 9.41421 15.4142 9.75 15 9.75H12.75V15C12.75 15.4142 12.4142 15.75 12 15.75C11.5858 15.75 11.25 15.4142 11.25 15V9.75H9C8.58579 9.75 8.25 9.41421 8.25 9C8.25 8.58579 8.58579 8.25 9 8.25H15Z" fill="#1C274C"/>
</svg>
