<svg width="24" height="24" viewBox="0 0 24 24" fill="none" xmlns="http://www.w3.org/2000/svg">
<path d="M12 2C12.3852 2 12.697 2.31214 12.6973 2.69727V4.59082C16.2505 4.92119 19.0788 7.74957 19.4092 11.3027H21.3027C21.6878 11.303 22 11.6148 22 12C22 12.3852 21.6878 12.697 21.3027 12.6973H19.4092C19.0788 16.2505 16.2505 19.0788 12.6973 19.4092V21.3027C12.697 21.6878 12.3852 22 12 22C11.6148 22 11.303 21.6878 11.3027 21.3027V19.4092C7.74957 19.0788 4.92119 16.2505 4.59082 12.6973H2.69727C2.31214 12.697 2 12.3852 2 12C2 11.6148 2.31214 11.303 2.69727 11.3027H4.59082C4.92119 7.74957 7.74957 4.92119 11.3027 4.59082V2.69727C11.303 2.31214 11.6148 2 12 2ZM12 8.51172C10.0734 8.51172 8.51172 10.0734 8.51172 12C8.51172 13.9266 10.0734 15.4883 12 15.4883C13.9266 15.4883 15.4883 13.9266 15.4883 12C15.4883 10.0734 13.9266 8.51172 12 8.51172ZM12 9.90723C13.1559 9.90723 14.0928 10.8441 14.0928 12C14.0926 13.1558 13.1558 14.0928 12 14.0928C10.8442 14.0928 9.90736 13.1558 9.90723 12C9.90723 10.8441 10.8441 9.90723 12 9.90723Z" fill="#48465C"/>
</svg>
