<svg width="24" height="24" viewBox="0 0 24 24" fill="none" xmlns="http://www.w3.org/2000/svg">
<path d="M12 1.25C17.9371 1.25 22.75 6.06294 22.75 12C22.75 17.9371 17.9371 22.75 12 22.75C6.06294 22.75 1.25 17.9371 1.25 12C1.25 6.06294 6.06294 1.25 12 1.25ZM12 2.75C6.89137 2.75 2.75 6.89137 2.75 12C2.75 17.1086 6.89137 21.25 12 21.25C17.1086 21.25 21.25 17.1086 21.25 12C21.25 6.89137 17.1086 2.75 12 2.75ZM17.707 9.30957C18.0883 9.14797 18.5287 9.32583 18.6904 9.70703C18.8521 10.0883 18.674 10.5286 18.293 10.6904L18.2891 10.6924L18.2803 10.6963L18.2471 10.71C18.2186 10.7218 18.177 10.7384 18.124 10.7598C18.0182 10.8025 17.8652 10.8632 17.6748 10.9355C17.2945 11.08 16.7613 11.273 16.1484 11.4658C15.1596 11.7768 13.9121 12.1047 12.75 12.2129V13.4521C12.75 13.8836 12.8741 14.306 13.1074 14.6689L15.6309 18.5947C15.8547 18.9432 15.7536 19.4069 15.4053 19.6309C15.0568 19.8546 14.5931 19.7536 14.3691 19.4053L12 15.7207L9.63086 19.4053C9.40691 19.7536 8.94313 19.8547 8.59473 19.6309C8.24639 19.4069 8.14538 18.9432 8.36914 18.5947L10.8926 14.6689C11.1259 14.306 11.25 13.8836 11.25 13.4521V12.2129C10.0879 12.1047 8.84038 11.7768 7.85156 11.4658C7.23866 11.273 6.7055 11.08 6.3252 10.9355C6.13482 10.8632 5.98184 10.8025 5.87598 10.7598C5.82304 10.7384 5.78141 10.7218 5.75293 10.71L5.7207 10.6963L5.71094 10.6924L5.70703 10.6904C5.32595 10.5286 5.14792 10.0883 5.30957 9.70703C5.4713 9.32582 5.91169 9.14799 6.29297 9.30957H6.29395L6.30078 9.3125L6.32715 9.32422C6.35166 9.33438 6.38899 9.34954 6.4375 9.36914C6.53468 9.4084 6.67779 9.46495 6.85742 9.5332C7.21729 9.66994 7.72269 9.852 8.30176 10.0342C9.47993 10.4048 10.8888 10.75 12 10.75C13.1111 10.75 14.5201 10.4048 15.6982 10.0342C16.2772 9.852 16.7828 9.66994 17.1426 9.5332C17.3222 9.46495 17.4653 9.4084 17.5625 9.36914C17.6111 9.34953 17.6484 9.33438 17.6729 9.32422L17.7002 9.3125L17.7061 9.30957H17.707ZM12 4.25C13.5188 4.25 14.75 5.48122 14.75 7C14.75 8.51878 13.5188 9.75 12 9.75C10.4812 9.75 9.25 8.51878 9.25 7C9.25 5.48122 10.4812 4.25 12 4.25ZM12 5.75C11.3096 5.75 10.75 6.30964 10.75 7C10.75 7.69036 11.3096 8.25 12 8.25C12.6904 8.25 13.25 7.69036 13.25 7C13.25 6.30964 12.6904 5.75 12 5.75Z" fill="#1C274C"/>
</svg>
