<svg width="24" height="24" viewBox="0 0 24 24" fill="none" xmlns="http://www.w3.org/2000/svg">
<path d="M21.9746 14.75C21.9085 16.7712 21.6717 17.9846 20.8281 18.8281C20.5238 19.1325 20.1713 19.3577 19.75 19.5244V22C19.75 22.4142 19.4142 22.75 19 22.75C18.5858 22.75 18.25 22.4142 18.25 22V19.8711C17.1801 19.9998 15.8064 20 14 20H10C8.19364 20 6.81989 19.9998 5.75 19.8711V22C5.75 22.4142 5.4142 22.75 5 22.75C4.58579 22.75 4.25 22.4142 4.25 22V19.5244C3.82869 19.3577 3.47625 19.1325 3.17188 18.8281C2.32833 17.9846 2.09152 16.7712 2.02539 14.75H21.9746ZM12 16C11.4477 16 11 16.4477 11 17C11 17.5523 11.4477 18 12 18C12.5523 18 13 17.5523 13 17C13 16.4477 12.5523 16 12 16ZM22 10V12C22 12.4419 21.9999 12.858 21.998 13.25H2.00195C2.00006 12.858 2 12.4419 2 12V10C2 9.55807 2.00006 9.14203 2.00195 8.75H21.998C21.9999 9.14203 22 9.55807 22 10ZM14 2C17.7712 2 19.6566 2.00031 20.8281 3.17188C21.6717 4.01541 21.9085 5.22884 21.9746 7.25H2.02539C2.09152 5.22882 2.32833 4.01542 3.17188 3.17188C4.34346 2.00032 6.22877 2 10 2H14Z" fill="#1C274C"/>
</svg>
