<svg width="24" height="24" viewBox="0 0 24 24" fill="none" xmlns="http://www.w3.org/2000/svg">
<path d="M15 1.25C15.4142 1.25 15.75 1.58579 15.75 2V4.00586C18.3859 4.03348 19.8538 4.19755 20.8281 5.17188C21.9997 6.34346 22 8.22878 22 12C22 15.7712 21.9997 17.6566 20.8281 18.8281C19.8538 19.8025 18.3859 19.9665 15.75 19.9941V22C15.75 22.4142 15.4142 22.75 15 22.75C14.5858 22.75 14.25 22.4142 14.25 22V2C14.25 1.58579 14.5858 1.25 15 1.25ZM13 20H10C6.22878 20 4.34346 19.9997 3.17188 18.8281C2.00031 17.6566 2 15.7712 2 12C2 8.22876 2.00031 6.34345 3.17188 5.17188C4.34345 4.00031 6.22876 4 10 4H13V20ZM7.88379 7.75C7.48426 7.74996 7.11734 7.7497 6.81738 7.78711C6.48898 7.82812 6.13889 7.92413 5.83789 8.19141C5.78651 8.23707 5.73707 8.28651 5.69141 8.33789C5.42413 8.63889 5.32812 8.98898 5.28711 9.31738C5.2497 9.61735 5.24996 9.98427 5.25 10.3838V10.4248C5.25 10.839 5.58578 11.1748 6 11.1748C6.41421 11.1748 6.75 10.839 6.75 10.4248C6.75 9.97076 6.75102 9.69967 6.77539 9.50391C6.79982 9.30808 7.00391 9.27539 7.00391 9.27539C7.19967 9.25102 7.47076 9.25 7.9248 9.25H8.25V14.75H7C6.58578 14.75 6.25 15.0858 6.25 15.5C6.25 15.9142 6.58578 16.25 7 16.25H11C11.4142 16.25 11.75 15.9142 11.75 15.5C11.75 15.0858 11.4142 14.75 11 14.75H9.75V9.25H10.0752C10.5292 9.25 10.8004 9.25102 10.9961 9.27539C10.9961 9.27539 11.2002 9.30808 11.2246 9.50391C11.2489 9.69967 11.25 9.97076 11.25 10.4248C11.25 10.839 11.5858 11.1748 12 11.1748C12.4142 11.1748 12.75 10.839 12.75 10.4248V10.3838C12.7501 9.98427 12.7503 9.61735 12.7129 9.31738C12.6719 8.98883 12.5752 8.63899 12.3076 8.33789C12.262 8.28653 12.2135 8.23705 12.1621 8.19141C11.8611 7.92411 11.5111 7.82812 11.1826 7.78711C10.8826 7.7497 10.5157 7.74996 10.1162 7.75H7.88379Z" fill="#1C274C"/>
</svg>
