<svg width="24" height="24" viewBox="0 0 24 24" fill="none" xmlns="http://www.w3.org/2000/svg">
<path d="M9.48242 12.353C9.48242 12.5941 9.59842 12.8205 9.79395 12.9614C9.98953 13.1024 10.241 13.1411 10.4697 13.0649L11.6035 12.687V13.0601C11.6035 13.2788 11.6993 13.4869 11.8652 13.6294C12.0312 13.7719 12.2515 13.8345 12.4678 13.8013L13.9951 13.5669L10.9316 16.6304C10.5382 17.0238 10.5625 17.6732 10.7109 18.2095C10.9912 19.2227 10.6055 20.519 9.8623 21.2622C8.87855 22.2456 7.28343 22.2458 6.2998 21.2622C5.31621 20.2786 5.31642 18.6834 6.2998 17.6997C5.31618 18.683 3.72193 18.6829 2.73828 17.6997C1.75456 16.716 1.75456 15.121 2.73828 14.1372C3.48153 13.3941 4.77687 13.0093 5.79004 13.2896C6.32629 13.438 6.97575 13.4613 7.36914 13.0679L9.48242 10.9546V12.353ZM14.1377 2.73779C15.1215 1.75409 16.7165 1.75408 17.7002 2.73779C18.6836 3.72154 18.6838 5.31667 17.7002 6.30029C18.6839 5.31658 20.279 5.31658 21.2627 6.30029C22.246 7.28405 22.2463 8.87919 21.2627 9.86279C20.5195 10.606 19.2232 10.9907 18.21 10.7104C17.6737 10.562 17.0243 10.5377 16.6309 10.9312L15.7891 11.7739L13.1035 12.186V11.646C13.1034 11.405 12.9875 11.1784 12.792 11.0376C12.5964 10.8968 12.3448 10.8588 12.1162 10.9351L10.9824 11.313V9.45459L13.0684 7.36865C13.4619 6.97516 13.4376 6.32588 13.2891 5.78955C13.0088 4.77632 13.3945 3.48101 14.1377 2.73779Z" fill="#48465C"/>
</svg>
