<svg width="24" height="24" viewBox="0 0 24 24" fill="none" xmlns="http://www.w3.org/2000/svg">
<path d="M12 1.25C12.2508 1.25 12.4849 1.37534 12.624 1.58398L14.624 4.58398C14.8538 4.92863 14.7607 5.39425 14.416 5.62402C14.0714 5.85378 13.6057 5.76066 13.376 5.41602L12.75 4.47754V14.9922C12.8713 14.9303 12.9988 14.8771 13.1309 14.833L16.3955 13.7441C16.9057 13.574 17.25 13.0965 17.25 12.5586V10.708C17.0498 10.6691 16.817 10.5846 16.6162 10.3838C16.3804 10.148 16.3049 9.86777 16.2754 9.64844C16.2502 9.46124 16.2499 9.23926 16.25 9.03418V8.96582C16.2499 8.76075 16.2502 8.53876 16.2754 8.35156C16.3049 8.13223 16.3804 7.85201 16.6162 7.61621C16.852 7.38042 17.1323 7.30488 17.3516 7.27539C17.5387 7.25024 17.7607 7.24992 17.9658 7.25H18.0342C18.2393 7.24992 18.4613 7.25024 18.6484 7.27539C18.8677 7.30488 19.148 7.38042 19.3838 7.61621C19.6196 7.85201 19.6951 8.13223 19.7246 8.35156C19.7498 8.53876 19.7501 8.76074 19.75 8.96582V9.03418C19.7501 9.23925 19.7498 9.46124 19.7246 9.64844C19.6951 9.86777 19.6196 10.148 19.3838 10.3838C19.183 10.5846 18.9502 10.6691 18.75 10.708V12.5586C18.75 13.7423 17.9921 14.7926 16.8691 15.167L13.6045 16.2559C13.1219 16.4168 12.7878 16.8527 12.7529 17.3545C13.9056 17.6819 14.75 18.7423 14.75 20C14.75 21.5188 13.5188 22.75 12 22.75C10.4812 22.75 9.25 21.5188 9.25 20C9.25 18.7412 10.0957 17.68 11.25 17.3535V14.4414C11.25 13.9035 10.9057 13.426 10.3955 13.2559L7.12988 12.167C6.00729 11.7924 5.25005 10.7421 5.25 9.55859V7.58203C4.65876 7.30117 4.25 6.6981 4.25 6C4.25 5.0335 5.0335 4.25 6 4.25C6.9665 4.25 7.75 5.0335 7.75 6C7.75 6.6981 7.34124 7.30117 6.75 7.58203V9.55859C6.75005 10.0965 7.09424 10.574 7.60449 10.7441L10.8691 11.833C11.0012 11.8771 11.1287 11.9303 11.25 11.9922V4.47754L10.624 5.41602C10.3943 5.76065 9.92863 5.85378 9.58398 5.62402C9.23935 5.39425 9.14622 4.92863 9.37598 4.58398L11.376 1.58398C11.5151 1.37534 11.7492 1.25 12 1.25ZM12 18.75C11.3096 18.75 10.75 19.3096 10.75 20C10.75 20.6904 11.3096 21.25 12 21.25C12.6904 21.25 13.25 20.6904 13.25 20C13.25 19.3096 12.6904 18.75 12 18.75ZM17.751 8.75098C17.7498 8.82044 17.75 8.90092 17.75 9C17.75 9.09908 17.7498 9.17956 17.751 9.24902C17.8204 9.25014 17.9009 9.25 18 9.25C18.0991 9.25 18.1796 9.25014 18.249 9.24902C18.2502 9.17956 18.25 9.09908 18.25 9C18.25 8.90092 18.2502 8.82044 18.249 8.75098C18.1796 8.74986 18.0991 8.75 18 8.75C17.9009 8.75 17.8204 8.74986 17.751 8.75098ZM6 5.75C5.86193 5.75 5.75 5.86193 5.75 6C5.75 6.13807 5.86193 6.25 6 6.25C6.13807 6.25 6.25 6.13807 6.25 6C6.25 5.86193 6.13807 5.75 6 5.75Z" fill="#48465C"/>
</svg>
