<svg width="24" height="24" viewBox="0 0 24 24" fill="none" xmlns="http://www.w3.org/2000/svg">
<path d="M13.9697 6.46979C14.2626 6.1769 14.7374 6.1769 15.0303 6.46979L20.0303 11.4698C20.3231 11.7627 20.3232 12.2374 20.0303 12.5303L15.0303 17.5303C14.7374 17.8232 14.2626 17.8232 13.9697 17.5303C13.6768 17.2374 13.6769 16.7627 13.9697 16.4698L17.6895 12.7501H9.5C8.78675 12.7501 7.70022 12.9701 6.81348 13.6085C5.96493 14.2194 5.25 15.2445 5.25 17.0001C5.24997 17.4142 4.91419 17.7501 4.5 17.7501C4.08581 17.7501 3.75003 17.4142 3.75 17.0001C3.75 14.7559 4.7019 13.2808 5.93652 12.3917C7.13307 11.5302 8.54665 11.2501 9.5 11.2501H17.6895L13.9697 7.53033C13.6768 7.23746 13.6769 6.76268 13.9697 6.46979Z" fill="#48465C"/>
</svg>
