<svg width="24" height="24" viewBox="0 0 24 24" fill="none" xmlns="http://www.w3.org/2000/svg">
<path d="M12 2C13.1079 2 14.1108 2.62261 16.1162 3.86719L18.1162 5.1084C20.0128 6.28546 20.9612 6.87408 21.4805 7.82227C21.9997 8.77081 22 9.91569 22 12.2041V13.7246C22 17.6254 21.9997 19.5763 20.8281 20.7881C19.6566 21.9999 17.7711 22 14 22H10C6.22891 22 4.34347 21.9998 3.17188 20.7881C2.00031 19.5763 2 17.6254 2 13.7246V12.2041C2 9.91569 2.00033 8.77081 2.51953 7.82227C3.03876 6.87408 3.98724 6.28545 5.88379 5.1084L7.88379 3.86719C9.88915 2.62261 10.8921 2 12 2ZM9 17.25C8.58579 17.25 8.25 17.5858 8.25 18C8.25 18.4142 8.58579 18.75 9 18.75H15C15.4142 18.75 15.75 18.4142 15.75 18C15.75 17.5858 15.4142 17.25 15 17.25H9Z" fill="#48465C"/>
</svg>
