<svg width="24" height="24" viewBox="0 0 24 24" fill="none" xmlns="http://www.w3.org/2000/svg">
<path d="M17.0518 1.25C17.9503 1.24997 18.7001 1.25012 19.2949 1.33008C19.9225 1.41452 20.489 1.6003 20.9443 2.05566C21.3997 2.51102 21.5855 3.07748 21.6699 3.70508C21.7499 4.29987 21.75 5.04976 21.75 5.94824V21.25H22C22.4142 21.25 22.75 21.5858 22.75 22C22.75 22.4142 22.4142 22.75 22 22.75H2C1.58579 22.75 1.25 22.4142 1.25 22C1.25 21.5858 1.58579 21.25 2 21.25H2.25V8.94824C2.24997 8.04976 2.25011 7.29986 2.33008 6.70508C2.41452 6.07747 2.6003 5.51102 3.05566 5.05566C3.51102 4.60031 4.07747 4.41452 4.70508 4.33008C5.29986 4.25012 6.04976 4.24997 6.94824 4.25H10.2783C10.3297 3.37585 10.4908 2.62052 11.0557 2.05566C11.511 1.6003 12.0775 1.41452 12.7051 1.33008C13.2999 1.25012 14.0497 1.24997 14.9482 1.25H17.0518ZM7 5.75C6.03599 5.75 5.38831 5.75147 4.90527 5.81641C4.44388 5.87845 4.24651 5.9859 4.11621 6.11621C3.9859 6.24652 3.87845 6.44388 3.81641 6.90527C3.75146 7.38831 3.75 8.03599 3.75 9V21.25H8.25V19C8.25 18.5858 8.58579 18.25 9 18.25C9.41421 18.25 9.75 18.5858 9.75 19V21.25H14.25V9C14.25 8.03599 14.2485 7.38831 14.1836 6.90527C14.1215 6.44389 14.0141 6.24652 13.8838 6.11621C13.7535 5.98591 13.5561 5.87845 13.0947 5.81641C12.6128 5.75162 11.9671 5.75001 11.0068 5.75H7ZM15 2.75C14.036 2.75 13.3883 2.75147 12.9053 2.81641C12.4439 2.87845 12.2465 2.98591 12.1162 3.11621C11.9437 3.28872 11.8333 3.55231 11.7832 4.25195C12.3646 4.25657 12.8695 4.2729 13.2949 4.33008C13.9225 4.41452 14.489 4.6003 14.9443 5.05566C15.3997 5.51102 15.5855 6.07748 15.6699 6.70508C15.7499 7.29987 15.75 8.04976 15.75 8.94824V21.25H20.25V6C20.25 5.03599 20.2485 4.38831 20.1836 3.90527C20.1215 3.44389 20.0141 3.24652 19.8838 3.11621C19.7535 2.98591 19.5561 2.87845 19.0947 2.81641C18.6117 2.75147 17.964 2.75 17 2.75H15ZM12 13.25C12.4142 13.25 12.75 13.5858 12.75 14C12.75 14.4142 12.4142 14.75 12 14.75H6C5.58579 14.75 5.25 14.4142 5.25 14C5.25 13.5858 5.58579 13.25 6 13.25H12ZM12 10.25C12.4142 10.25 12.75 10.5858 12.75 11C12.75 11.4142 12.4142 11.75 12 11.75H6C5.58579 11.75 5.25 11.4142 5.25 11C5.25 10.5858 5.58579 10.25 6 10.25H12ZM12 7.25C12.4142 7.25 12.75 7.58579 12.75 8C12.75 8.41422 12.4142 8.75 12 8.75H6C5.58579 8.75 5.25 8.41422 5.25 8C5.25 7.58579 5.58579 7.25 6 7.25H12Z" fill="#1C274C"/>
</svg>
