<svg width="24" height="24" viewBox="0 0 24 24" fill="none" xmlns="http://www.w3.org/2000/svg">
<path d="M12.0566 1.25C13.8943 1.24998 15.3501 1.25016 16.4893 1.40332C17.6615 1.56095 18.6101 1.89332 19.3584 2.6416C20.1066 3.38992 20.439 4.33844 20.5967 5.51074C20.7498 6.6499 20.75 8.10571 20.75 9.94336V14.0566C20.75 15.8943 20.7498 17.3501 20.5967 18.4893C20.439 19.6615 20.1066 20.6101 19.3584 21.3584C18.6101 22.1066 17.6615 22.439 16.4893 22.5967C15.3501 22.7498 13.8943 22.75 12.0566 22.75H11.9434C10.1057 22.75 8.6499 22.7498 7.51074 22.5967C6.33844 22.439 5.38992 22.1066 4.6416 21.3584C3.89332 20.6101 3.56095 19.6615 3.40332 18.4893C3.25016 17.3501 3.24998 15.8943 3.25 14.0566V9.94336C3.24998 8.1057 3.25016 6.64991 3.40332 5.51074C3.56095 4.33844 3.8933 3.38992 4.6416 2.6416C5.38992 1.8933 6.33844 1.56095 7.51074 1.40332C8.6499 1.25016 10.1057 1.24998 11.9434 1.25H12.0566ZM17.1855 3.07324C16.524 4.06676 16.0618 4.75809 15.374 5.18555C15.2369 5.27078 15.0942 5.3472 14.9473 5.41406C14.2051 5.75155 13.3668 5.75063 12.1602 5.75H11.8398C10.6335 5.75063 9.79575 5.75131 9.05371 5.41406C8.90662 5.34717 8.76322 5.27083 8.62598 5.18555C7.93813 4.75809 7.47607 4.06676 6.81445 3.07324C6.32542 3.2194 5.97997 3.42434 5.70215 3.70215C5.27894 4.12536 5.02491 4.70485 4.88965 5.71094C4.75149 6.73859 4.75 8.09324 4.75 10V14C4.75 15.9067 4.7515 17.2614 4.88965 18.2891C5.02491 19.2951 5.27894 19.8747 5.70215 20.2979C6.12536 20.7211 6.70485 20.9752 7.71094 21.1104C8.73858 21.2485 10.0933 21.25 12 21.25C13.9067 21.25 15.2614 21.2485 16.2891 21.1104C17.2951 20.9752 17.8747 20.7211 18.2979 20.2979C18.7211 19.8747 18.9752 19.2951 19.1104 18.2891C19.2485 17.2614 19.25 15.9067 19.25 14V10C19.25 8.09325 19.2485 6.73858 19.1104 5.71094C18.9752 4.70485 18.7211 4.12536 18.2979 3.70215C18.0201 3.42434 17.6746 3.2194 17.1855 3.07324ZM15 18.25C15.4142 18.25 15.75 18.5858 15.75 19C15.75 19.4142 15.4142 19.75 15 19.75H9C8.58579 19.75 8.25 19.4142 8.25 19C8.25 18.5858 8.58579 18.25 9 18.25H15ZM12 2.75C10.5193 2.75 9.3714 2.75128 8.45117 2.81641C8.89518 3.45983 9.12789 3.73088 9.41797 3.91113C9.50019 3.96222 9.58572 4.00777 9.67383 4.04785C10.0828 4.23379 10.5676 4.25 12 4.25C13.4324 4.25 13.9173 4.23379 14.3262 4.04785C14.4143 4.00776 14.4999 3.96222 14.582 3.91113C14.8721 3.73088 15.1048 3.45984 15.5488 2.81641C14.6286 2.75128 13.4807 2.75 12 2.75Z" fill="#1C274C"/>
</svg>
