<svg width="24" height="24" viewBox="0 0 24 24" fill="none" xmlns="http://www.w3.org/2000/svg">
<path d="M12.0576 1.25C14.3657 1.24999 16.1745 1.24974 17.5859 1.43945C19.0306 1.63369 20.1706 2.03977 21.0654 2.93457C21.9602 3.82938 22.3662 4.96932 22.5605 6.41406C22.7502 7.82544 22.75 9.63432 22.75 11.9424V12.0576C22.75 14.3657 22.7502 16.1745 22.5605 17.5859C22.3662 19.0306 21.9602 20.1706 21.0654 21.0654C20.1706 21.9602 19.0306 22.3662 17.5859 22.5605C16.1745 22.7502 14.3657 22.75 12.0576 22.75H11.9424C9.63432 22.75 7.82544 22.7502 6.41406 22.5605C4.96932 22.3662 3.82938 21.9602 2.93457 21.0654C2.03977 20.1706 1.63369 19.0306 1.43945 17.5859C1.24974 16.1745 1.24999 14.3657 1.25 12.0576V11.9424C1.24999 9.63433 1.24974 7.82544 1.43945 6.41406C1.63369 4.96932 2.03976 3.82938 2.93457 2.93457C3.82938 2.03976 4.96932 1.63369 6.41406 1.43945C7.82544 1.24974 9.63433 1.24999 11.9424 1.25H12.0576ZM12 2.75C9.62178 2.75 7.91326 2.75198 6.61328 2.92676C5.33508 3.09865 4.56472 3.42551 3.99512 3.99512C3.42551 4.56472 3.09865 5.33508 2.92676 6.61328C2.75198 7.91326 2.75 9.62178 2.75 12C2.75 14.3782 2.75198 16.0867 2.92676 17.3867C3.09865 18.6649 3.42551 19.4352 3.99512 20.0049C4.56472 20.5745 5.33508 20.9014 6.61328 21.0732C7.91326 21.248 9.62178 21.25 12 21.25C14.3782 21.25 16.0867 21.248 17.3867 21.0732C18.6649 20.9014 19.4352 20.5745 20.0049 20.0049C20.5745 19.4352 20.9014 18.6649 21.0732 17.3867C21.248 16.0867 21.25 14.3782 21.25 12C21.25 9.62178 21.248 7.91326 21.0732 6.61328C20.9014 5.33508 20.5745 4.56472 20.0049 3.99512C19.4352 3.42551 18.6649 3.09865 17.3867 2.92676C16.0867 2.75198 14.3782 2.75 12 2.75ZM16 7.25C17.5188 7.25 18.75 8.48122 18.75 10C18.75 11.2469 17.9198 12.2997 16.7822 12.6367L18.6357 15.6025C18.8552 15.9538 18.7487 16.4162 18.3975 16.6357C18.0463 16.8552 17.5839 16.7487 17.3643 16.3975L15.084 12.75H14.75V16C14.75 16.4142 14.4142 16.75 14 16.75C13.5858 16.75 13.25 16.4142 13.25 16V8C13.25 7.58581 13.5858 7.25003 14 7.25H16ZM8.5 7.25C8.82804 7.25 9.11797 7.46327 9.21582 7.77637L11.7158 15.7764C11.8393 16.1718 11.619 16.5922 11.2236 16.7158C10.8284 16.8393 10.4077 16.619 10.2842 16.2236L9.57324 13.9502H7.42676L6.71582 16.2236C6.59227 16.619 6.17173 16.8393 5.77637 16.7158C5.38105 16.5922 5.16068 16.1717 5.28418 15.7764L7.78418 7.77637C7.88201 7.46329 8.17199 7.25003 8.5 7.25ZM7.89551 12.4502H9.10449L8.5 10.5146L7.89551 12.4502ZM14.75 11.25H16C16.6904 11.25 17.25 10.6904 17.25 10C17.25 9.30964 16.6904 8.75 16 8.75H14.75V11.25Z" fill="#1C274C"/>
</svg>
