<svg width="24" height="24" viewBox="0 0 24 24" fill="none" xmlns="http://www.w3.org/2000/svg">
<path d="M19.3447 5.99316C19.6232 5.89054 19.9556 5.80261 20.3145 5.86816C20.7568 5.94906 21.1517 6.19684 21.416 6.56055C21.6304 6.85573 21.6947 7.19375 21.7227 7.48926C21.7499 7.77697 21.75 8.13611 21.75 8.54492V8.6543C21.7508 8.95441 21.7514 9.27502 21.6436 9.57031C21.5586 9.8034 21.4253 10.0159 21.252 10.1934C21.0324 10.4182 20.7435 10.5564 20.4727 10.6855C20.45 10.6964 20.4268 10.707 20.4043 10.7178L18.6182 11.5752C18.2498 11.752 17.9264 11.907 17.6553 12.0068C17.3935 12.1033 17.0842 12.1873 16.75 12.1426V16.4287C16.7499 18.243 15.3147 19.75 13.5 19.75C11.6853 19.75 10.2501 18.243 10.25 16.4287C10.25 14.6144 11.6853 13.1074 13.5 13.1074C14.1477 13.1074 14.747 13.2995 15.25 13.6289V10H15.2529C15.25 9.83116 15.25 9.64856 15.25 9.45508V9.3457C15.2492 9.04559 15.2486 8.72497 15.3564 8.42969C15.4414 8.1966 15.5747 7.98415 15.748 7.80664C15.9676 7.58185 16.2565 7.44356 16.5273 7.31445C16.55 7.30359 16.5732 7.29301 16.5957 7.28223L18.3818 6.4248C18.7503 6.24796 19.0736 6.09305 19.3447 5.99316ZM13.5 14.6074C12.5533 14.6074 11.75 15.4027 11.75 16.4287C11.7501 17.4547 12.5533 18.25 13.5 18.25C14.4467 18.25 15.2499 17.4547 15.25 16.4287C15.25 15.4027 14.4467 14.6074 13.5 14.6074ZM8 16.25C8.41421 16.25 8.75 16.5858 8.75 17C8.75 17.4142 8.41421 17.75 8 17.75H3C2.58579 17.75 2.25 17.4142 2.25 17C2.25 16.5858 2.58579 16.25 3 16.25H8ZM9 12.25C9.41421 12.25 9.75 12.5858 9.75 13C9.75 13.4142 9.41421 13.75 9 13.75H3C2.58579 13.75 2.25 13.4142 2.25 13C2.25 12.5858 2.58579 12.25 3 12.25H9ZM20.0557 7.3457C20.0395 7.34747 19.9836 7.35608 19.8633 7.40039C19.6671 7.47268 19.4085 7.59591 19 7.79199L17.2451 8.63477C17.0658 8.72082 16.9631 8.76957 16.8887 8.81152C16.8429 8.83731 16.8249 8.85165 16.8203 8.85547C16.7961 8.88049 16.7776 8.91068 16.7656 8.94336C16.764 8.94958 16.7592 8.97192 16.7559 9.02344C16.7503 9.10873 16.75 9.22231 16.75 9.4209C16.75 9.87424 16.7508 10.1609 16.7705 10.3691C16.7827 10.4971 16.7994 10.5512 16.8047 10.5664C16.84 10.6107 16.8892 10.6416 16.9443 10.6543C16.9605 10.6525 17.0165 10.6439 17.1367 10.5996C17.3329 10.5273 17.5915 10.4041 18 10.208L19.7549 9.36523C19.9342 9.27918 20.0369 9.23043 20.1113 9.18848C20.1572 9.16268 20.1752 9.14835 20.1797 9.14453C20.2039 9.11951 20.2224 9.08932 20.2344 9.05664C20.2359 9.05042 20.2408 9.02808 20.2441 8.97656C20.2497 8.89127 20.25 8.77769 20.25 8.5791C20.25 8.12575 20.2492 7.83907 20.2295 7.63086C20.2173 7.50281 20.2006 7.44876 20.1953 7.43359C20.16 7.38933 20.1108 7.35834 20.0557 7.3457ZM13 8.25C13.4142 8.25 13.75 8.58579 13.75 9C13.75 9.41421 13.4142 9.75 13 9.75H3C2.58579 9.75 2.25 9.41421 2.25 9C2.25 8.58579 2.58579 8.25 3 8.25H13ZM15 4.25C15.4142 4.25 15.75 4.58579 15.75 5C15.75 5.41421 15.4142 5.75 15 5.75H3C2.58579 5.75 2.25 5.41421 2.25 5C2.25 4.58579 2.58579 4.25 3 4.25H15Z" fill="#1C274C"/>
</svg>
