<svg width="24" height="24" viewBox="0 0 24 24" fill="none" xmlns="http://www.w3.org/2000/svg">
<path d="M12 2C12.4626 2 12.5392 2.69315 12.1436 2.93262C10.2598 4.07091 9 6.13845 9 8.5C9 12.0899 11.9101 15 15.5 15C17.8615 15 19.9291 13.7402 21.0674 11.8564C21.3069 11.4608 22 11.5374 22 12C22 17.5228 17.5228 22 12 22C6.47715 22 2 17.5228 2 12C2 6.47715 6.47715 2 12 2ZM15.1328 8.12988C15.2938 7.7203 15.8722 7.7203 16.0332 8.12988L16.1895 8.52832C16.2385 8.6533 16.3374 8.75241 16.4619 8.80176L16.8604 8.95996C17.2678 9.12172 17.2679 9.7006 16.8604 9.8623L16.4619 10.0195C16.3374 10.0688 16.2386 10.168 16.1895 10.293L16.0332 10.6924C15.8722 11.102 15.2938 11.102 15.1328 10.6924L14.9766 10.293C14.9274 10.168 14.8286 10.0688 14.7041 10.0195L14.3066 9.8623C13.8985 9.70076 13.8985 9.1215 14.3066 8.95996L14.7041 8.80176C14.8286 8.75242 14.9275 8.65332 14.9766 8.52832L15.1328 8.12988ZM19.001 2.30762C19.1619 1.89803 19.7395 1.89803 19.9004 2.30762L20.3301 3.40234C20.3791 3.52731 20.4781 3.62643 20.6025 3.67578L21.6943 4.10742C22.1023 4.26898 22.1023 4.84914 21.6943 5.01074L20.6025 5.44238C20.478 5.49173 20.3792 5.59083 20.3301 5.71582L19.9004 6.81152C19.7394 7.22075 19.1621 7.22063 19.001 6.81152L18.5703 5.71582C18.5212 5.59079 18.4224 5.4917 18.2979 5.44238L17.207 5.01074C16.7989 4.8492 16.7989 4.26896 17.207 4.10742L18.2979 3.67578C18.4225 3.62646 18.5212 3.52739 18.5703 3.40234L19.001 2.30762Z" fill="#1C274C"/>
</svg>
