<svg width="24" height="24" viewBox="0 0 24 24" fill="none" xmlns="http://www.w3.org/2000/svg">
<path d="M12 6.25C17.0486 6.25 19.9918 8.40206 21.4668 9.99316C22.4572 11.0617 22.75 12.5257 22.75 13.8506C22.7499 16.3163 20.5773 18.2964 18.1885 17.6191L16.8486 17.2393C15.2874 16.7965 14.2591 15.2919 14.25 13.6406C14.2462 13.6148 14.22 13.461 14.0693 13.2949C13.8806 13.0867 13.3644 12.7139 12 12.7139C10.6356 12.7139 10.1194 13.0867 9.93066 13.2949C9.78006 13.4611 9.75373 13.6148 9.75 13.6406C9.7409 15.2919 8.71266 16.7965 7.15137 17.2393L5.81152 17.6191C3.4227 18.2964 1.25011 16.3163 1.25 13.8506C1.25 12.5257 1.54273 11.0617 2.5332 9.99316C4.00817 8.40207 6.95137 6.25 12 6.25ZM12 7.75C7.43552 7.75 4.87266 9.67516 3.63281 11.0127C3.01067 11.6838 2.75 12.7001 2.75 13.8506C2.7501 15.5042 4.14024 16.5336 5.40234 16.1758L6.74219 15.7959C7.59197 15.5549 8.25 14.6865 8.25 13.6182C8.25005 13.5187 8.27133 12.8915 8.81934 12.2871C9.38065 11.668 10.3646 11.2139 12 11.2139C13.6355 11.2139 14.6193 11.6681 15.1807 12.2871C15.7287 12.8916 15.75 13.5186 15.75 13.6182C15.75 14.6865 16.4081 15.5548 17.2578 15.7959L18.5977 16.1758C19.8598 16.5336 21.2499 15.5042 21.25 13.8506C21.25 12.7001 20.9893 11.6838 20.3672 11.0127C19.1273 9.67516 16.5645 7.75 12 7.75Z" fill="#48465C"/>
</svg>
