<svg width="24" height="24" viewBox="0 0 24 24" fill="none" xmlns="http://www.w3.org/2000/svg">
<path d="M12.1769 19.2471C12.4697 18.9544 12.9446 18.9544 13.2374 19.2471C13.5302 19.5399 13.5301 20.0147 13.2374 20.3076L11.1163 22.4297C10.8235 22.7225 10.3487 22.7223 10.0558 22.4297C9.76289 22.1368 9.76294 21.662 10.0558 21.3691L12.1769 19.2471ZM7.22668 15.7119C7.51951 15.4191 7.99432 15.4192 8.28723 15.7119C8.58013 16.0047 8.58013 16.4796 8.28723 16.7725L4.16614 20.8936C3.87325 21.1865 3.39849 21.1865 3.10559 20.8936C2.81288 20.6006 2.81276 20.1258 3.10559 19.833L7.22668 15.7119ZM5.22864 3.56836C6.02356 2.77344 7.19039 2.63863 8.35657 2.83789C9.42191 3.01999 10.6157 3.49713 11.8361 4.19727C13.9604 2.80933 16.8366 3.04768 18.7023 4.91309L19.0861 5.29688C20.9518 7.16259 21.191 10.0396 19.8029 12.1641C20.5029 13.3844 20.9792 14.5774 21.1613 15.6426C21.3606 16.8087 21.2264 17.9754 20.4318 18.7705C19.8399 19.3624 19.0336 19.5896 18.1915 19.584C17.3533 19.5784 16.4194 19.3452 15.4581 18.9502C13.5324 18.1585 11.3539 16.6564 9.34875 14.6514C7.34371 12.6464 5.84164 10.4676 5.04993 8.54199C4.65478 7.5807 4.42172 6.64596 4.41614 5.80762C4.41057 4.96566 4.63688 4.16018 5.22864 3.56836ZM8.10461 4.31641C7.154 4.15392 6.58653 4.33155 6.28918 4.62891C6.06618 4.85197 5.91229 5.21828 5.91614 5.79785C5.92003 6.3813 6.08626 7.11928 6.43665 7.97168C7.13614 9.67314 8.50943 11.6909 10.4093 13.5908C12.3092 15.4907 14.327 16.863 16.0284 17.5625C16.8807 17.9128 17.618 18.08 18.2013 18.084C18.7809 18.0879 19.1472 17.933 19.3702 17.71C19.6676 17.4126 19.8452 16.846 19.6827 15.8955C19.5563 15.1559 19.2354 14.2747 18.7238 13.3125C18.5177 13.4191 18.2599 13.4848 17.963 13.4316C17.2423 13.3022 15.8859 12.7031 13.5909 10.4082C11.2963 8.11355 10.698 6.75791 10.5685 6.03711C10.5151 5.74016 10.5809 5.48251 10.6876 5.27637C9.72546 4.76465 8.84429 4.44289 8.10461 4.31641ZM15.5353 14.1211C15.9258 13.7305 16.5587 13.7306 16.9493 14.1211C17.3398 14.5116 17.3398 15.1447 16.9493 15.5352C16.5587 15.9254 15.9258 15.9256 15.5353 15.5352C15.1449 15.1447 15.145 14.5116 15.5353 14.1211ZM3.69153 10.7617C3.98436 10.4691 4.45923 10.4691 4.75208 10.7617C5.04497 11.0546 5.04497 11.5303 4.75208 11.8232L2.63098 13.9443C2.33817 14.2371 1.86333 14.237 1.57043 13.9443C1.27757 13.6515 1.27762 13.1767 1.57043 12.8838L3.69153 10.7617ZM11.2931 11.292C11.6836 10.9018 12.3167 10.9018 12.7072 11.292C13.0977 11.6826 13.0977 12.3164 12.7072 12.707C12.3167 13.0973 11.6836 13.0972 11.2931 12.707C10.9026 12.3164 10.9026 11.6826 11.2931 11.292ZM17.6417 5.97363C16.1092 4.44139 13.6374 4.4207 12.0792 5.91113C12.2069 6.33084 12.7101 7.40625 14.6515 9.34766C16.5924 11.2885 17.668 11.792 18.088 11.9199C19.5785 10.3617 19.558 7.88993 18.0255 6.35742L17.6417 5.97363ZM8.46399 7.0498C8.85451 6.65927 9.48851 6.65927 9.87903 7.0498C10.2693 7.44025 10.2692 8.07338 9.87903 8.46387C9.48851 8.85439 8.85451 8.85439 8.46399 8.46387C8.07387 8.07339 8.07379 7.44023 8.46399 7.0498Z" fill="#1C274C"/>
</svg>
