<svg width="24" height="24" viewBox="0 0 24 24" fill="none" xmlns="http://www.w3.org/2000/svg">
<path d="M12 1.25C17.9578 1.25 22.75 6.21879 22.75 12.3008V19.7227C22.75 21.5692 20.8373 22.8458 19.1572 21.9805C18.4756 21.6295 17.6649 21.6809 17.0283 22.1182C15.8014 22.9606 14.1986 22.9606 12.9717 22.1182L12.6191 21.876C12.243 21.6177 11.757 21.6177 11.3809 21.876L11.0283 22.1182C9.80138 22.9606 8.19866 22.9606 6.97168 22.1182C6.33505 21.6809 5.52437 21.6295 4.84277 21.9805C3.16263 22.8458 1.25 21.5692 1.25 19.7227V12.3008C1.25 6.21879 6.04216 1.25 12 1.25ZM12 2.75C6.91215 2.75 2.75 7.00503 2.75 12.3008V19.7227C2.75 20.5209 3.53994 20.965 4.15625 20.6475C5.33062 20.0428 6.73044 20.1335 7.82031 20.8818C8.53574 21.3731 9.46426 21.3731 10.1797 20.8818L10.5322 20.6396C11.4198 20.0301 12.5802 20.0301 13.4678 20.6396L13.8203 20.8818C14.5357 21.3731 15.4643 21.3731 16.1797 20.8818C17.2696 20.1335 18.6693 20.0428 19.8438 20.6475C20.4601 20.965 21.25 20.5209 21.25 19.7227V12.3008C21.25 7.00503 17.0879 2.75 12 2.75ZM9 9C9.55228 9 10 9.67157 10 10.5C10 11.3284 9.55228 12 9 12C8.44772 12 8 11.3284 8 10.5C8 9.67157 8.44772 9 9 9ZM15 9C15.5523 9 16 9.67157 16 10.5C16 11.3284 15.5523 12 15 12C14.4477 12 14 11.3284 14 10.5C14 9.67157 14.4477 9 15 9Z" fill="#48465C"/>
</svg>
