<svg width="24" height="24" viewBox="0 0 24 24" fill="none" xmlns="http://www.w3.org/2000/svg">
<path d="M12 1.25C12.4142 1.25 12.75 1.58579 12.75 2C12.75 2.41421 12.4142 2.75 12 2.75C9.62178 2.75 7.91326 2.75198 6.61328 2.92676C5.33508 3.09865 4.56472 3.42551 3.99512 3.99512C3.42551 4.56472 3.09865 5.33508 2.92676 6.61328C2.78163 7.69277 2.75552 9.05425 2.75098 10.8467L3.25781 10.4033C4.46623 9.34594 6.28744 9.40655 7.42285 10.542L11.7129 14.8311C12.1425 15.2605 12.8184 15.32 13.3154 14.9707L13.6133 14.7607C15.0435 13.7556 16.9789 13.8717 18.2783 15.041L21.0518 17.5381C21.0591 17.4884 21.0664 17.438 21.0732 17.3867C21.248 16.0867 21.25 14.3782 21.25 12C21.25 11.5858 21.5858 11.25 22 11.25C22.4142 11.25 22.75 11.5858 22.75 12V12.0576C22.75 14.3657 22.7502 16.1745 22.5605 17.5859C22.3662 19.0306 21.9602 20.1706 21.0654 21.0654C20.1706 21.9602 19.0306 22.3662 17.5859 22.5605C16.1745 22.7502 14.3657 22.75 12.0576 22.75H11.9424C9.63432 22.75 7.82544 22.7502 6.41406 22.5605C4.96932 22.3662 3.82938 21.9602 2.93457 21.0654C2.03977 20.1706 1.63369 19.0306 1.43945 17.5859C1.26232 16.2681 1.25076 14.5849 1.25 12.4912V11.9424C1.24999 9.63433 1.24974 7.82544 1.43945 6.41406C1.63369 4.96932 2.03976 3.82938 2.93457 2.93457C3.82938 2.03976 4.96932 1.63369 6.41406 1.43945C7.82544 1.24974 9.63433 1.24999 11.9424 1.25H12ZM6.3623 11.6025C5.78529 11.0255 4.85924 10.9949 4.24512 11.5322L2.75 12.8398C2.75258 14.7882 2.77328 16.2452 2.92676 17.3867C3.09865 18.6649 3.42551 19.4352 3.99512 20.0049C4.56472 20.5745 5.33508 20.9014 6.61328 21.0732C7.91326 21.248 9.62178 21.25 12 21.25C14.3782 21.25 16.0867 21.248 17.3867 21.0732C18.6649 20.9014 19.4352 20.5745 20.0049 20.0049C20.2484 19.7614 20.4477 19.4815 20.6094 19.1406C20.5705 19.1168 20.5331 19.0892 20.498 19.0576L17.2744 16.1562C16.4948 15.4547 15.3337 15.3852 14.4756 15.9883L14.1777 16.1973C13.0846 16.9656 11.5973 16.8371 10.6523 15.8926L6.3623 11.6025ZM18 2.97656C18.9333 2.28197 19.994 2.0654 20.9336 2.41113C22.0693 2.82914 22.75 3.96673 22.75 5.37598C22.7499 6.16294 22.392 6.89305 21.9639 7.49707C21.5286 8.11125 20.9655 8.67296 20.4316 9.13672L20.3467 9.20996C19.6287 9.83512 19.0307 10.3555 18 10.3555C16.9693 10.3555 16.3713 9.83512 15.6533 9.20996L15.5684 9.13672C15.0346 8.67296 14.4714 8.11125 14.0361 7.49707C13.608 6.89306 13.2501 6.16294 13.25 5.37598C13.25 3.96673 13.9307 2.82915 15.0664 2.41113C16.006 2.0654 17.0667 2.28197 18 2.97656ZM20.416 3.81836C19.9898 3.66147 19.2862 3.73811 18.5312 4.49707C18.3906 4.63844 18.1995 4.71777 18 4.71777C17.8005 4.71777 17.6094 4.63844 17.4688 4.49707C16.7138 3.73811 16.0102 3.66147 15.584 3.81836C15.1696 3.97087 14.75 4.44271 14.75 5.37598C14.7501 5.71689 14.9128 6.14046 15.2598 6.62988C15.5996 7.10934 16.066 7.58183 16.5518 8.00391C17.3847 8.7275 17.5762 8.85547 18 8.85547C18.4239 8.85547 18.6153 8.72749 19.4482 8.00391C19.934 7.58184 20.4004 7.10933 20.7402 6.62988C21.0872 6.14047 21.2499 5.71691 21.25 5.37598C21.25 4.44271 20.8304 3.97087 20.416 3.81836Z" fill="#1C274C"/>
</svg>
