<svg width="24" height="24" viewBox="0 0 24 24" fill="none" xmlns="http://www.w3.org/2000/svg">
<path d="M1.81836 5.27246C2.22016 5.17206 2.62709 5.41656 2.72754 5.81836L3.10938 7.3457C3.7192 9.78497 5.64151 11.6765 8.08496 12.25H16C18.0909 12.25 19.8511 13.815 20.0957 15.8916L20.7451 21.4121C20.7935 21.8235 20.4992 22.1967 20.0879 22.2451C19.6765 22.2935 19.3033 21.9992 19.2549 21.5879L18.6055 16.0674C18.4805 15.0043 17.7311 14.1518 16.75 13.8594V18.0518C16.75 18.9502 16.7498 19.7001 16.6699 20.2949C16.5855 20.9226 16.3997 21.4889 15.9443 21.9443C15.4889 22.3997 14.9226 22.5855 14.2949 22.6699C13.7001 22.7499 12.9503 22.7501 12.0518 22.75H11.9482C11.0499 22.7501 10.3008 22.7499 9.70605 22.6699C9.07825 22.5855 8.51113 22.3997 8.05566 21.9443C7.60039 21.4889 7.41448 20.9225 7.33008 20.2949C7.25011 19.7001 7.24997 18.9503 7.25 18.0518V13.5791C4.49592 12.7499 2.35905 10.5289 1.6543 7.70996L1.27246 6.18164C1.17229 5.77993 1.41666 5.37288 1.81836 5.27246ZM12 2C14.2091 2 16 3.79086 16 6C16 8.20914 14.2091 10 12 10C9.79086 10 8 8.20914 8 6C8 3.79086 9.79086 2 12 2Z" fill="#1C274C"/>
</svg>
