<svg width="24" height="24" viewBox="0 0 24 24" fill="none" xmlns="http://www.w3.org/2000/svg">
<path d="M12 2C17.5228 2 22 6.47715 22 12C22 17.5228 17.5228 22 12 22C6.47715 22 2 17.5228 2 12C2 6.47715 6.47715 2 12 2ZM12 9.75C11.8011 9.75 11.6103 9.82908 11.4697 9.96973L8.46973 12.9697C8.17684 13.2626 8.17684 13.7374 8.46973 14.0303C8.76261 14.3232 9.23739 14.3232 9.53027 14.0303L12 11.5605L14.4697 14.0303C14.7626 14.3232 15.2374 14.3232 15.5303 14.0303C15.8232 13.7374 15.8232 13.2626 15.5303 12.9697L12.5303 9.96973C12.3897 9.82908 12.1989 9.75 12 9.75Z" fill="#48465C"/>
</svg>
