<svg width="24" height="24" viewBox="0 0 24 24" fill="none" xmlns="http://www.w3.org/2000/svg">
<path d="M11.9999 2C13.1542 2 14.1988 2.62262 16.288 3.86719L17.6727 4.69141C19.9734 6.06194 21.1245 6.74765 21.6649 7.875C22.2053 9.0023 22.0151 10.321 21.6356 12.958L21.3573 14.8955C20.8698 18.2828 20.626 19.9765 19.4511 20.9883C18.276 22.0001 16.5527 22 13.1063 22H10.8935C7.44722 22 5.72373 22 4.54873 20.9883C3.3738 19.9765 3.12984 18.2827 2.64248 14.8955L2.36415 12.958C1.98471 10.3209 1.79537 9.00234 2.33583 7.875C2.87632 6.74773 4.02642 6.06188 6.32705 4.69141L7.71181 3.86719C9.80104 2.62264 10.8456 2.00004 11.9999 2ZM11.9999 9.25C11.5858 9.25011 11.2499 9.58586 11.2499 10V12.25H8.9999C8.58578 12.2501 8.2499 12.5859 8.2499 13C8.25001 13.414 8.58585 13.7499 8.9999 13.75H11.2499V16C11.25 16.414 11.5859 16.7499 11.9999 16.75C12.414 16.75 12.7498 16.4141 12.7499 16V13.75H14.9999C15.414 13.75 15.7498 13.4141 15.7499 13C15.7499 12.5858 15.4141 12.25 14.9999 12.25H12.7499V10C12.7499 9.58579 12.4141 9.25 11.9999 9.25Z" fill="#1C274C"/>
</svg>
