<svg width="24" height="24" viewBox="0 0 24 24" fill="none" xmlns="http://www.w3.org/2000/svg">
<path d="M8.80957 12C10.7203 12 12.2943 13.3715 12.501 15.1348C13.9554 15.613 15 16.9259 15 18.4707C14.9999 20.4197 13.3373 21.9998 11.2861 22H4.78613C3.24763 22 2 20.8145 2 19.3525C2.00021 17.8908 3.24776 16.7061 4.78613 16.7061C4.97058 16.7061 5.15077 16.7234 5.3252 16.7559C5.17629 16.374 5.0957 15.9604 5.0957 15.5293C5.09576 13.5801 6.75827 12 8.80957 12ZM21.0674 11.8574C21.3066 11.4615 21.9996 11.5377 22 12C22 16.2657 19.329 19.9077 15.5684 21.3447C16.1528 20.5384 16.5 19.5526 16.5 18.4707C16.4999 17.0999 15.9376 15.879 15.0439 14.9844C15.1946 14.9949 15.3467 15 15.5 15C17.8615 15 19.9291 13.7412 21.0674 11.8574ZM12 2C12.4626 2 12.5392 2.69315 12.1436 2.93262C10.2598 4.07091 9 6.13845 9 8.5C9 9.20675 9.11272 9.88737 9.32129 10.5244C9.15257 10.5084 8.98186 10.5 8.80957 10.5C6.05576 10.5 3.68596 12.5991 3.59766 15.3691C3.2895 15.4555 2.99369 15.5743 2.71582 15.7227C2.25404 14.5721 2 13.3157 2 12C2 6.47715 6.47715 2 12 2Z" fill="#48465C"/>
</svg>
