<svg width="24" height="24" viewBox="0 0 24 24" fill="none" xmlns="http://www.w3.org/2000/svg">
<path d="M15.8096 12C17.7203 12 19.2943 13.3715 19.501 15.1348C20.9554 15.613 22 16.9259 22 18.4707C21.9999 20.4197 20.3373 21.9998 18.2861 22H11.7861C10.2476 22 9 20.8145 9 19.3525C9.00021 17.8908 10.2478 16.7061 11.7861 16.7061C11.9706 16.7061 12.1508 16.7234 12.3252 16.7559C12.1763 16.374 12.0947 15.9604 12.0947 15.5293C12.0948 13.5801 13.7583 12 15.8096 12ZM12.4766 2C15.416 2.00018 17.8371 4.19364 18.1553 7.01465C20.393 7.77989 21.9998 9.88095 22 12.3525C22 13.132 21.8398 13.8754 21.5508 14.5508C21.3154 14.3682 21.0644 14.2044 20.7998 14.0635C20.1405 11.9625 18.1139 10.5 15.8096 10.5C13.0558 10.5 10.686 12.5991 10.5977 15.3691C9.27672 15.7396 8.18696 16.7123 7.73047 18H6.28613C3.9192 18 2 16.1037 2 13.7646C2.00003 11.4256 3.91922 9.5293 6.28613 9.5293C6.57009 9.52932 6.8477 9.55629 7.11621 9.6084C6.88725 8.99756 6.76177 8.33698 6.76172 7.64746C6.76172 4.52867 9.32064 2 12.4766 2Z" fill="#1C274C"/>
</svg>
