<svg width="24" height="24" viewBox="0 0 24 24" fill="none" xmlns="http://www.w3.org/2000/svg">
<path fill-rule="evenodd" clip-rule="evenodd" d="M6.77538 5.25H17.2246C18.0409 5.24999 18.6994 5.24999 19.2325 5.29373C19.7814 5.33876 20.2635 5.43392 20.7092 5.66214C21.4095 6.02074 21.9793 6.59053 22.3379 7.29084C22.5661 7.73655 22.6612 8.21861 22.7063 8.76754C22.75 9.30066 22.75 9.9591 22.75 10.7754V10.8077C22.75 10.8363 22.7501 10.8651 22.7502 10.894C22.7511 11.2321 22.7522 11.5921 22.6216 11.9139C22.5095 12.1902 22.3286 12.4333 22.0961 12.6201C21.9901 12.7054 21.8726 12.7729 21.7495 12.8293C21.7466 14.4416 21.7259 16.0708 21.5813 17.4664C21.4963 18.2856 21.366 19.0548 21.1593 19.7105C20.9559 20.3557 20.6556 20.9665 20.1803 21.389C19.3568 22.1209 18.3204 22.4436 17.0267 22.5983C15.7568 22.75 14.1291 22.75 12.0512 22.75H11.9488C9.87083 22.75 8.24316 22.75 6.97325 22.5983C5.67953 22.4436 4.64316 22.1209 3.81972 21.389C3.34438 20.9665 3.04408 20.3557 2.84071 19.7105C2.63398 19.0548 2.50365 18.2856 2.41872 17.4664C2.27404 16.0708 2.2534 14.4416 2.25046 12.8293C2.12732 12.7729 2.00987 12.7054 1.90382 12.6201C1.67135 12.4333 1.49048 12.1902 1.37836 11.9139C1.24779 11.5921 1.24883 11.2321 1.2498 10.894C1.24989 10.8651 1.24997 10.8363 1.24997 10.8077V10.7754C1.24996 9.95908 1.24996 9.30065 1.2937 8.76754C1.33873 8.21861 1.43389 7.73655 1.66211 7.29084C2.02071 6.59053 2.5905 6.02074 3.29082 5.66214C3.73652 5.43392 4.21858 5.33876 4.76751 5.29373C5.30062 5.24999 5.95905 5.24999 6.77538 5.25ZM3.75206 13.3087C3.75887 14.7455 3.78779 16.1259 3.91073 17.3118C3.99055 18.0818 4.10735 18.7394 4.27131 19.2596C4.43864 19.7904 4.6326 20.1046 4.81626 20.2679C5.31085 20.7075 5.99414 20.9706 7.15125 21.1089C8.32175 21.2487 9.85975 21.25 12 21.25C14.1402 21.25 15.6782 21.2487 16.8487 21.1089C18.0058 20.9706 18.6891 20.7075 19.1837 20.2679C19.3674 20.1046 19.5613 19.7904 19.7287 19.2596C19.8926 18.7394 20.0094 18.0818 20.0892 17.3118C20.2122 16.1259 20.2411 14.7455 20.2479 13.3087L15.25 14.808V15.1615C15.25 15.6726 14.9388 16.1322 14.4642 16.3221L13.7641 16.6021C12.6317 17.0551 11.3683 17.0551 10.2359 16.6021L9.53573 16.3221C9.06116 16.1323 8.74997 15.6726 8.74997 15.1615V14.808L3.75206 13.3087ZM8.74997 13.242L3.35754 11.6242C3.14212 11.5596 3.01763 11.5218 2.92636 11.4873C2.87042 11.4661 2.84815 11.4536 2.84235 11.45C2.80998 11.4237 2.78469 11.3897 2.76881 11.3512C2.76702 11.3446 2.76149 11.3197 2.75728 11.26C2.7504 11.1627 2.74997 11.0326 2.74997 10.8077C2.74997 9.95153 2.75056 9.35474 2.78867 8.89019C2.82607 8.43445 2.89576 8.17271 2.99726 7.97451C3.21242 7.55432 3.55429 7.21245 3.97448 6.99729C4.17268 6.89579 4.43442 6.82609 4.89016 6.7887C5.35471 6.75059 5.9515 6.75 6.80762 6.75H17.1923C18.0485 6.75 18.6453 6.75059 19.1098 6.7887C19.5655 6.82609 19.8273 6.89579 20.0255 6.99729C20.4457 7.21245 20.7876 7.55432 21.0027 7.97451C21.1042 8.17271 21.1739 8.43445 21.2113 8.89019C21.2494 9.35474 21.25 9.95153 21.25 10.8077C21.25 11.0326 21.2496 11.1627 21.2427 11.26C21.2385 11.3197 21.233 11.3446 21.2312 11.3512C21.2153 11.3897 21.19 11.4237 21.1576 11.45C21.1518 11.4536 21.1296 11.4661 21.0736 11.4873C20.9823 11.5218 20.8578 11.5596 20.6424 11.6242L15.25 13.242V13C15.25 12.3096 14.6904 11.75 14 11.75H9.99997C9.30962 11.75 8.74997 12.3096 8.74997 13V13.242ZM10.25 13.25V14.9922L10.793 15.2094C11.5678 15.5194 12.4322 15.5194 13.207 15.2094L13.75 14.9922V13.25H10.25Z" fill="#1C274C"/>
<path fill-rule="evenodd" clip-rule="evenodd" d="M12.0002 2.75C11.0217 2.75 10.1873 3.37503 9.87799 4.24993C9.73995 4.64047 9.31146 4.84517 8.92093 4.70713C8.53039 4.56909 8.32569 4.1406 8.46373 3.75007C8.97817 2.29459 10.3662 1.25 12.0002 1.25C13.6341 1.25 15.0222 2.29459 15.5366 3.75007C15.6747 4.1406 15.47 4.56909 15.0794 4.70713C14.6889 4.84517 14.2604 4.64047 14.1224 4.24993C13.8131 3.37503 12.9787 2.75 12.0002 2.75Z" fill="#1C274C"/>
</svg>
