<svg width="24" height="24" viewBox="0 0 24 24" fill="none" xmlns="http://www.w3.org/2000/svg">
<path fill-rule="evenodd" clip-rule="evenodd" d="M8.96967 6.46967C9.26256 6.17678 9.73735 6.17678 10.0302 6.46967C10.323 6.76256 10.3231 7.23735 10.0302 7.53021L6.31049 11.2499H14.4999C15.4533 11.25 16.8669 11.5301 18.0634 12.3915C19.298 13.2807 20.2499 14.7558 20.2499 16.9999C20.2499 17.4141 19.9141 17.7499 19.4999 17.7499C19.0858 17.7499 18.75 17.4141 18.7499 16.9999C18.7499 15.2443 18.035 14.2192 17.1865 13.6083C16.2997 12.97 15.2132 12.75 14.4999 12.7499H6.31049L10.0302 16.4697C10.3231 16.7626 10.3231 17.2373 10.0302 17.5302C9.73738 17.8231 9.26256 17.823 8.96967 17.5302L3.96967 12.5302C3.67678 12.2373 3.67678 11.7626 3.96967 11.4697L8.96967 6.46967Z" fill="#1C274C"/>
</svg>
