<svg width="24" height="24" viewBox="0 0 24 24" fill="none" xmlns="http://www.w3.org/2000/svg">
<path d="M12 1.25C13.4117 1.25 14.8101 1.52812 16.1143 2.06836C17.4184 2.60859 18.6035 3.40031 19.6016 4.39844C20.5997 5.39657 21.3914 6.58164 21.9316 7.88574C22.4718 9.18999 22.75 10.5883 22.75 12C22.75 13.4117 22.4718 14.8101 21.9316 16.1143C21.3914 17.4184 20.5997 18.6035 19.6016 19.6016C18.6035 20.5997 17.4184 21.3914 16.1143 21.9316C14.8101 22.4718 13.4117 22.75 12 22.75C10.5883 22.75 9.18999 22.4718 7.88574 21.9316C6.58164 21.3914 5.39657 20.5997 4.39844 19.6016C3.40031 18.6035 2.6086 17.4184 2.06836 16.1143C1.52813 14.8101 1.25 13.4117 1.25 12C1.25 10.5883 1.52812 9.18999 2.06836 7.88574C2.60859 6.58164 3.4003 5.39657 4.39844 4.39844C5.39657 3.4003 6.58164 2.6086 7.88574 2.06836C9.18999 1.52813 10.5883 1.25 12 1.25ZM8.76172 12.75C8.79326 13.7668 8.88823 14.7643 9.04395 15.7041C9.23806 16.8757 9.52079 17.9246 9.86816 18.793C10.2178 19.6669 10.6135 20.3084 11.0088 20.7178C11.4012 21.1242 11.7387 21.25 12 21.25C12.2613 21.25 12.5988 21.1242 12.9912 20.7178C13.3865 20.3084 13.7822 19.6669 14.1318 18.793C14.4791 17.9246 14.762 16.8757 14.9561 15.7041C15.1117 14.7643 15.2067 13.7668 15.2383 12.75H8.76172ZM2.78027 12.75C2.85819 13.7078 3.08519 14.6494 3.4541 15.54C3.91896 16.6623 4.6001 17.6822 5.45898 18.541C6.31787 19.4 7.33778 20.081 8.45996 20.5459C8.70502 20.6474 8.95402 20.7385 9.20605 20.8184C8.93472 20.3839 8.6915 19.8894 8.47559 19.3496C8.08009 18.3609 7.77238 17.2042 7.56445 15.9492C7.39488 14.9258 7.29274 13.8458 7.26074 12.75H2.78027ZM16.7393 12.75C16.7073 13.8458 16.6051 14.9258 16.4355 15.9492C16.2276 17.2042 15.9199 18.3609 15.5244 19.3496C15.3085 19.8893 15.0653 20.3839 14.7939 20.8184C15.046 20.7385 15.295 20.6474 15.54 20.5459C16.6623 20.081 17.6822 19.4 18.541 18.541C19.4 17.6822 20.081 16.6623 20.5459 15.54C20.9148 14.6494 21.1418 13.7078 21.2197 12.75H16.7393ZM9.20605 3.18164C8.95402 3.2615 8.70502 3.3526 8.45996 3.4541C7.33777 3.91896 6.31788 4.60009 5.45898 5.45898C4.60009 6.31788 3.91896 7.33777 3.4541 8.45996C3.08519 9.3506 2.85819 10.2922 2.78027 11.25H7.26074C7.29274 10.1542 7.39489 9.07424 7.56445 8.05078C7.77238 6.79579 8.08009 5.63914 8.47559 4.65039C8.69149 4.11062 8.93472 3.61611 9.20605 3.18164ZM12 2.75C11.7387 2.75 11.4012 2.87582 11.0088 3.28223C10.6135 3.69157 10.2178 4.33307 9.86816 5.20703C9.52079 6.07545 9.23806 7.12438 9.04395 8.2959C8.88824 9.23577 8.79326 10.2332 8.76172 11.25H15.2383C15.2067 10.2332 15.1117 9.23577 14.9561 8.2959C14.762 7.12438 14.4791 6.07545 14.1318 5.20703C13.7822 4.33307 13.3865 3.69156 12.9912 3.28223C12.5988 2.87582 12.2613 2.75 12 2.75ZM14.7939 3.18164C15.0653 3.6161 15.3085 4.11063 15.5244 4.65039C15.9199 5.63914 16.2276 6.79579 16.4355 8.05078C16.6051 9.07425 16.7073 10.1542 16.7393 11.25H21.2197C21.1418 10.2922 20.9148 9.3506 20.5459 8.45996C20.081 7.33778 19.4 6.31788 18.541 5.45898C17.6822 4.6001 16.6623 3.91896 15.54 3.4541C15.295 3.35261 15.046 3.2615 14.7939 3.18164Z" fill="#48465C"/>
</svg>
