<svg width="24" height="24" viewBox="0 0 24 24" fill="none" xmlns="http://www.w3.org/2000/svg">
<path d="M12 2C17.5228 2 22 6.47715 22 12C22 17.5228 17.5228 22 12 22C6.47715 22 2 17.5228 2 12C2 6.47715 6.47715 2 12 2ZM12 5.25C9.06101 5.25 6.56042 7.12832 5.63379 9.75H5C4.58579 9.75 4.25 10.0858 4.25 10.5C4.25 10.9142 4.58579 11.25 5 11.25H5.29102C5.26379 11.4963 5.25 11.7465 5.25 12C5.25 12.2535 5.26379 12.5037 5.29102 12.75H5C4.58579 12.75 4.25 13.0858 4.25 13.5C4.25 13.9142 4.58579 14.25 5 14.25H5.63379C6.56042 16.8717 9.06101 18.75 12 18.75C13.2282 18.75 14.3824 18.4215 15.376 17.8467C15.7342 17.6393 15.8564 17.1806 15.6494 16.8223C15.442 16.4637 14.9825 16.3405 14.624 16.5479C13.8526 16.9941 12.9574 17.25 12 17.25C9.9057 17.25 8.09748 16.0237 7.25488 14.25H10C10.4142 14.25 10.75 13.9142 10.75 13.5C10.75 13.0858 10.4142 12.75 10 12.75H6.80273C6.7677 12.505 6.75 12.2546 6.75 12C6.75 11.7454 6.7677 11.495 6.80273 11.25H10C10.4142 11.25 10.75 10.9142 10.75 10.5C10.75 10.0858 10.4142 9.75 10 9.75H7.25488C8.09748 7.97629 9.9057 6.75 12 6.75C12.9574 6.75 13.8526 7.00598 14.624 7.45215C14.9824 7.65951 15.4419 7.53705 15.6494 7.17871C15.8568 6.82026 15.7344 6.36081 15.376 6.15332C14.3824 5.57855 13.2282 5.25 12 5.25Z" fill="#1C274C"/>
</svg>
