<svg width="24" height="24" viewBox="0 0 24 24" fill="none" xmlns="http://www.w3.org/2000/svg">
<path d="M12 2C17.5227 2.00011 22 6.47722 22 12C22 17.5227 17.5227 21.9999 12 22C6.47711 22 2 17.5228 2 12C2 6.47715 6.47711 2 12 2ZM14.1094 8.41895C13.0961 7.40462 12.5891 6.89752 12.0449 7.01758C11.501 7.13782 11.2541 7.8109 10.7607 9.15723L10.4268 10.0693C10.2953 10.4279 10.2294 10.6073 10.1113 10.7461C10.0583 10.8083 9.99793 10.8643 9.93164 10.9121C9.78361 11.0186 9.59881 11.0694 9.23047 11.1709C8.40042 11.3998 7.98551 11.5147 7.8291 11.7861C7.76158 11.9035 7.72675 12.0365 7.72754 12.1719C7.72952 12.4854 8.03369 12.7909 8.64258 13.4004L9.08887 13.8477L7.46875 15.4697C7.17615 15.7628 7.17662 16.2386 7.46973 16.5312C7.76272 16.8237 8.23759 16.8229 8.53027 16.5303L10.1494 14.9082L10.6221 15.3818C11.2347 15.995 11.5411 16.3021 11.8564 16.3027C11.9892 16.3029 12.1199 16.2679 12.2354 16.2021C12.5093 16.0458 12.6244 15.6273 12.8545 14.791C12.9555 14.4236 13.0062 14.2396 13.1123 14.0918C13.1588 14.027 13.2132 13.9682 13.2734 13.916C13.411 13.7968 13.5896 13.7297 13.9463 13.5957L14.8682 13.249C16.1997 12.7487 16.8659 12.4986 16.9834 11.9561C17.1008 11.4134 16.5977 10.9093 15.5918 9.90234L14.1094 8.41895Z" fill="#1C274C"/>
</svg>
