<svg width="24" height="24" viewBox="0 0 24 24" fill="none" xmlns="http://www.w3.org/2000/svg">
<path d="M10 20H10.9092C11.3233 20 11.6592 20.3358 11.6592 20.75C11.6592 21.1642 11.3233 21.5 10.9092 21.5H9.99805C9.5643 21.5 9.15896 21.5003 8.78418 21.4971C8.37019 21.4932 8.03745 21.1543 8.04102 20.7402C8.04463 20.3261 8.38368 19.9935 8.79785 19.9971C9.1655 20.0003 9.5639 20 10 20ZM13 2C13.4141 2 13.7498 2.33595 13.75 2.75C17.1523 2.75496 19.7355 2.82924 20.8281 3.92188C21.9997 5.09345 22 6.97877 22 10.75V12.75C22 16.5212 21.9997 18.4066 20.8281 19.5781C19.7355 20.6708 17.1523 20.745 13.75 20.75C13.75 21.1642 13.4142 21.5 13 21.5C12.5858 21.5 12.25 21.1642 12.25 20.75V2.75C12.25 2.3358 12.5858 2 13 2ZM4.05469 18.1211C4.45021 17.9983 4.87024 18.2198 4.99316 18.6152C5.09297 18.9363 5.22778 19.1594 5.40918 19.3408C5.59059 19.5223 5.81376 19.657 6.13477 19.7568C6.53028 19.8797 6.75176 20.2997 6.62891 20.6953C6.50603 21.0907 6.08584 21.3121 5.69043 21.1895C5.17504 21.0293 4.72822 20.7809 4.34863 20.4014C3.96906 20.0218 3.72072 19.575 3.56055 19.0596C3.43797 18.6641 3.65931 18.2439 4.05469 18.1211ZM4 12.6367C4.41421 12.6367 4.75 12.9724 4.75 13.3867V14.75C4.75 15.1861 4.74976 15.5845 4.75293 15.9521C4.7565 16.3663 4.42393 16.7053 4.00977 16.709C3.59571 16.7126 3.25673 16.3798 3.25293 15.9658C3.2497 15.591 3.25 15.1857 3.25 14.752V13.3867C3.25 12.9725 3.58579 12.6367 4 12.6367ZM4.00977 6.79102C4.42392 6.79464 4.7565 7.13369 4.75293 7.54785C4.74976 7.91551 4.75 8.31391 4.75 8.75V10.1133C4.75 10.5275 4.41421 10.8633 4 10.8633C3.58579 10.8633 3.25 10.5275 3.25 10.1133V8.74805C3.25 8.3143 3.24969 7.90897 3.25293 7.53418C3.25674 7.1202 3.59571 6.78745 4.00977 6.79102ZM5.69043 2.31055C6.08585 2.18795 6.50603 2.4093 6.62891 2.80469C6.75177 3.20021 6.53028 3.62024 6.13477 3.74316C5.81376 3.84297 5.59059 3.97777 5.40918 4.15918C5.22777 4.34059 5.09297 4.56375 4.99316 4.88477C4.87024 5.28028 4.45021 5.50177 4.05469 5.37891C3.6593 5.25603 3.43795 4.83584 3.56055 4.44043C3.72073 3.92504 3.96904 3.47822 4.34863 3.09863C4.72822 2.71904 5.17504 2.47073 5.69043 2.31055ZM10.9092 2C11.3233 2.00004 11.6592 2.33582 11.6592 2.75C11.6592 3.16419 11.3233 3.49996 10.9092 3.5H10C9.56391 3.5 9.1655 3.49976 8.79785 3.50293C8.38368 3.5065 8.04464 3.17392 8.04102 2.75977C8.03745 2.34572 8.37019 2.00675 8.78418 2.00293C9.159 1.9997 9.56424 2 9.99805 2H10.9092Z" fill="#48465C"/>
</svg>
