<svg width="24" height="24" viewBox="0 0 24 24" fill="none" xmlns="http://www.w3.org/2000/svg">
<path d="M12 2C16.71 2 19.07 1.99996 20.54 3.45996C22 4.92996 22 7.29 22 12C22 16.71 22.01 19.08 20.54 20.54C19.07 22 16.71 22 12 22C7.29 22 4.91996 22.01 3.45996 20.54C1.99996 19.07 2 16.71 2 12C2 7.29 1.98996 4.91996 3.45996 3.45996C4.92996 1.99996 7.29 2 12 2ZM12.0303 7.25C11.8314 7.25 11.6406 7.32916 11.5 7.46973C11.3593 7.61038 11.2803 7.80109 11.2803 8V11.9697C11.2804 12.1686 11.3593 12.3595 11.5 12.5L14 15C14.1375 15.123 14.3155 15.1914 14.5 15.1914C14.6845 15.1914 14.8625 15.123 15 15C15.123 14.8625 15.1914 14.6845 15.1914 14.5C15.1914 14.3155 15.123 14.1375 15 14L12.7803 11.6904V8C12.7803 7.80115 12.7011 7.61037 12.5605 7.46973C12.42 7.32914 12.2291 7.25007 12.0303 7.25Z" fill="#1C274C"/>
</svg>
