<svg width="24" height="24" viewBox="0 0 24 24" fill="none" xmlns="http://www.w3.org/2000/svg">
<path d="M19.3096 1.70654C19.4721 1.32562 19.913 1.14861 20.2939 1.31104C20.6748 1.47355 20.8519 1.91346 20.6895 2.29443V2.29639L20.6855 2.30518L20.6699 2.34131C20.6562 2.37425 20.6357 2.42442 20.6094 2.48975C20.5567 2.62042 20.481 2.81336 20.3896 3.05713C20.2067 3.54533 19.9621 4.23668 19.7178 5.04639C19.2252 6.67941 18.75 8.73971 18.75 10.5718C18.75 11.6306 19.1085 12.539 19.6562 13.5278C19.8447 13.8679 20.0653 14.2318 20.2998 14.6177C20.8138 15.4631 21.3926 16.4159 21.8359 17.4624C22.3691 18.721 22.75 20.1849 22.75 22.0005C22.75 22.4147 22.4142 22.7505 22 22.7505C21.5858 22.7505 21.25 22.4147 21.25 22.0005C21.25 20.5099 20.9597 19.3044 20.541 18.2563C15.147 18.4033 13.0819 21.1277 12.7119 22.2378C12.6098 22.544 12.3228 22.7505 12 22.7505C11.6772 22.7505 11.3902 22.544 11.2881 22.2378C10.9181 21.1277 8.85299 18.4033 3.45898 18.2563C3.04023 19.3044 2.75 20.5099 2.75 22.0005C2.74996 22.4147 2.41418 22.7505 2 22.7505C1.58582 22.7505 1.25004 22.4147 1.25 22.0005C1.25 20.1849 1.63088 18.721 2.16406 17.4624C2.6074 16.4159 3.18627 15.4631 3.7002 14.6177C3.93472 14.2318 4.15536 13.8679 4.34375 13.5278C4.89152 12.539 5.25 11.6306 5.25 10.5718C5.24999 8.73971 4.77484 6.67941 4.28223 5.04639C4.03796 4.23668 3.79334 3.54533 3.61035 3.05713C3.51897 2.81335 3.44326 2.62042 3.39062 2.48975C3.36432 2.42442 3.34376 2.37425 3.33008 2.34131L3.31445 2.30518L3.31055 2.29639V2.29443C3.14821 1.9135 3.32514 1.47353 3.70605 1.31104C4.08702 1.14859 4.52695 1.32559 4.68945 1.70654L4.69043 1.70752L4.69238 1.71143L4.69727 1.72314L4.71484 1.76611C4.73045 1.80371 4.75291 1.85883 4.78125 1.9292C4.83799 2.07008 4.91858 2.27447 5.01465 2.53076C5.20663 3.04293 5.46214 3.76634 5.71777 4.61377C6.19873 6.20815 6.69574 8.29098 6.74609 10.2505H17.2539C17.3042 8.29098 17.8013 6.20815 18.2822 4.61377C18.5378 3.76634 18.7934 3.04293 18.9854 2.53076C19.0815 2.27447 19.1619 2.07008 19.2188 1.9292C19.247 1.85883 19.2695 1.80371 19.2852 1.76611L19.3027 1.72314L19.3076 1.71143L19.3096 1.70752V1.70654ZM18 13.7505H6C5.97462 13.7505 5.94953 13.749 5.9248 13.7466C5.8387 13.9185 5.74882 14.0883 5.65625 14.2554C5.41 14.6999 5.15641 15.1151 4.90527 15.5269C4.65211 15.9419 4.40063 16.3532 4.16113 16.7876C8.37121 17.0663 10.8303 18.8422 12 20.438C13.1697 18.8422 15.6288 17.0663 19.8389 16.7876C19.5994 16.3532 19.3479 15.9419 19.0947 15.5269C18.8436 15.1151 18.59 14.6999 18.3438 14.2554C18.2512 14.0883 18.1613 13.9185 18.0752 13.7466C18.0505 13.749 18.0254 13.7505 18 13.7505ZM6.63574 11.7505C6.60244 11.9206 6.56222 12.0872 6.5166 12.2505H17.4834C17.4378 12.0872 17.3976 11.9206 17.3643 11.7505H6.63574Z" fill="#1C274C"/>
</svg>
