<svg width="24" height="24" viewBox="0 0 24 24" fill="none" xmlns="http://www.w3.org/2000/svg">
<path d="M10.5934 2.31885C11.4827 1.89379 12.5166 1.89389 13.4059 2.31885C13.7923 2.50352 14.147 2.805 14.6373 3.22314C14.6627 3.24484 14.6883 3.26724 14.7145 3.28955C14.9524 3.49236 15.0273 3.55512 15.1031 3.60596C15.2961 3.73525 15.513 3.82461 15.7408 3.86963C15.8304 3.88732 15.9281 3.8965 16.2399 3.92139C16.2741 3.92412 16.3082 3.92657 16.3414 3.9292C16.9835 3.98015 17.4475 4.01705 17.8512 4.15967C18.7808 4.48799 19.5122 5.21946 19.8405 6.14893C19.983 6.55267 20.0199 7.01653 20.0709 7.65869C20.0736 7.69203 20.0759 7.72593 20.0787 7.76025C20.1036 8.07159 20.1128 8.1688 20.1305 8.2583C20.1754 8.48612 20.2649 8.70308 20.3942 8.896C20.4451 8.97187 20.5077 9.04756 20.7106 9.28564C20.7327 9.31169 20.7544 9.3375 20.776 9.36279C21.1942 9.85298 21.4966 10.2069 21.6813 10.5933C22.1063 11.4825 22.1062 12.5165 21.6813 13.4058C21.4966 13.7922 21.1942 14.1469 20.776 14.6372C20.7544 14.6625 20.7327 14.6882 20.7106 14.7144C20.5079 14.9521 20.445 15.0272 20.3942 15.103C20.2649 15.2959 20.1754 15.5129 20.1305 15.7407C20.1128 15.8303 20.1036 15.9279 20.0787 16.2397C20.0759 16.2739 20.0736 16.3081 20.0709 16.3413C20.0199 16.9834 19.983 17.4473 19.8405 17.8511C19.5122 18.7807 18.7808 19.512 17.8512 19.8403C17.4475 19.9829 16.9836 20.0198 16.3414 20.0708C16.3082 20.0735 16.2741 20.0758 16.2399 20.0786C15.9281 20.1035 15.8304 20.1127 15.7408 20.1304C15.5131 20.1753 15.2961 20.2648 15.1031 20.394C15.0273 20.4449 14.9522 20.5078 14.7145 20.7104C14.6883 20.7326 14.6626 20.7543 14.6373 20.7759C14.147 21.1941 13.7923 21.4965 13.4059 21.6812C12.5166 22.106 11.4826 22.1062 10.5934 21.6812C10.207 21.4964 9.85312 21.194 9.36292 20.7759C9.33762 20.7543 9.31181 20.7326 9.28577 20.7104C9.04768 20.5075 8.97199 20.4449 8.89612 20.394C8.7032 20.2648 8.48624 20.1753 8.25842 20.1304C8.16892 20.1127 8.07172 20.1035 7.76038 20.0786C7.72606 20.0758 7.69216 20.0735 7.65881 20.0708C7.01666 20.0198 6.55279 19.9828 6.14905 19.8403C5.21958 19.512 4.48812 18.7806 4.15979 17.8511C4.01718 17.4473 3.98028 16.9834 3.92932 16.3413C3.92669 16.3081 3.92424 16.2739 3.92151 16.2397C3.89662 15.9279 3.88744 15.8303 3.86975 15.7407C3.82474 15.5129 3.73537 15.296 3.60608 15.103C3.55524 15.0272 3.49248 14.9523 3.28967 14.7144C3.26736 14.6882 3.24495 14.6626 3.22327 14.6372C2.80511 14.147 2.50365 13.7922 2.31897 13.4058C1.89401 12.5164 1.89391 11.4826 2.31897 10.5933C2.50363 10.207 2.80527 9.85284 3.22327 9.36279C3.24491 9.33742 3.2674 9.31177 3.28967 9.28564C3.49256 9.04755 3.55523 8.97187 3.60608 8.896C3.73528 8.70312 3.82478 8.48605 3.86975 8.2583C3.88738 8.16881 3.89666 8.07155 3.92151 7.76025C3.92425 7.72593 3.92668 7.69204 3.92932 7.65869C3.98028 7.01651 4.01722 6.55268 4.15979 6.14893C4.4881 5.21943 5.21955 4.48798 6.14905 4.15967C6.5528 4.0171 7.01663 3.98016 7.65881 3.9292C7.69216 3.92656 7.72606 3.92413 7.76038 3.92139C8.07167 3.89654 8.16893 3.88726 8.25842 3.86963C8.48618 3.82466 8.70324 3.73516 8.89612 3.60596C8.97199 3.55511 9.04768 3.49244 9.28577 3.28955C9.31189 3.26727 9.33753 3.2448 9.36292 3.22314C9.85296 2.80515 10.2071 2.50351 10.5934 2.31885ZM12.7574 3.67627C12.2787 3.44742 11.7216 3.44751 11.2428 3.67627C11.0577 3.76476 10.862 3.92321 10.2614 4.43506C10.2515 4.44339 10.2425 4.45233 10.233 4.46045C10.036 4.62836 9.89185 4.75078 9.73499 4.85596C9.37662 5.09614 8.97365 5.26263 8.55042 5.34619C8.36505 5.38279 8.17664 5.39791 7.91858 5.41846C7.90614 5.41945 7.89326 5.42037 7.88049 5.42139C7.09391 5.48416 6.84352 5.51027 6.65002 5.57861C6.14952 5.75539 5.75552 6.1494 5.57874 6.6499C5.5104 6.8434 5.48428 7.09379 5.42151 7.88037C5.42049 7.89314 5.41957 7.90602 5.41858 7.91846C5.39803 8.17652 5.38291 8.36493 5.34631 8.55029C5.26275 8.97353 5.09626 9.3765 4.85608 9.73486C4.7509 9.89172 4.62849 10.0359 4.46057 10.2329C4.45246 10.2424 4.44351 10.2514 4.43518 10.2612C3.92333 10.8618 3.76488 11.0576 3.67639 11.2427C3.44763 11.7215 3.44755 12.2785 3.67639 12.7573C3.76487 12.9424 3.92348 13.1374 4.43518 13.7378C4.44359 13.7477 4.45238 13.7575 4.46057 13.7671C4.62853 13.9642 4.75088 14.1082 4.85608 14.2651C5.09627 14.6235 5.26275 15.0265 5.34631 15.4497C5.38288 15.635 5.39803 15.8235 5.41858 16.0815C5.41957 16.0941 5.42048 16.1068 5.42151 16.1196C5.48429 16.9062 5.51039 17.1566 5.57874 17.3501C5.75554 17.8504 6.14969 18.2436 6.65002 18.4204C6.84352 18.4888 7.09385 18.5149 7.88049 18.5776L7.91858 18.5806C8.17665 18.6011 8.36507 18.6163 8.55042 18.6528C8.97367 18.7364 9.37662 18.9038 9.73499 19.144C9.89179 19.2492 10.036 19.3717 10.233 19.5396L10.2614 19.564C10.862 20.0759 11.0577 20.2343 11.2428 20.3228C11.7217 20.5516 12.2786 20.5516 12.7574 20.3228C12.9425 20.2342 13.1376 20.0757 13.7379 19.564L13.7672 19.5396C13.9642 19.3716 14.1084 19.2492 14.2653 19.144C14.6237 18.9038 15.0266 18.7364 15.4498 18.6528C15.6351 18.6163 15.8237 18.6011 16.0817 18.5806L16.1198 18.5776C16.9064 18.5149 17.1567 18.4888 17.3502 18.4204C17.8503 18.2436 18.2437 17.8502 18.4205 17.3501C18.4889 17.1566 18.5151 16.9062 18.5778 16.1196L18.5807 16.0815C18.6012 15.8235 18.6164 15.635 18.653 15.4497C18.7366 15.0265 18.904 14.6235 19.1442 14.2651C19.2493 14.1082 19.3718 13.9641 19.5397 13.7671L19.5641 13.7378C20.0758 13.1374 20.2344 12.9424 20.3229 12.7573C20.5518 12.2784 20.5518 11.7216 20.3229 11.2427C20.2344 11.0576 20.076 10.8618 19.5641 10.2612L19.5397 10.2319C19.372 10.0352 19.2492 9.8916 19.1442 9.73486C18.904 9.37649 18.7366 8.97354 18.653 8.55029C18.6164 8.36494 18.6012 8.17653 18.5807 7.91846L18.5778 7.88037C18.5151 7.09373 18.4889 6.8434 18.4205 6.6499C18.2437 6.14957 17.8505 5.75542 17.3502 5.57861C17.1567 5.51026 16.9064 5.48417 16.1198 5.42139C16.1069 5.42036 16.0942 5.41945 16.0817 5.41846C15.8236 5.39791 15.6351 5.38276 15.4498 5.34619C15.0266 5.26263 14.6237 5.09615 14.2653 4.85596C14.1083 4.75076 13.9643 4.62842 13.7672 4.46045C13.7576 4.45227 13.7478 4.44346 13.7379 4.43506C13.1375 3.92336 12.9425 3.76475 12.7574 3.67627ZM14.9801 8.9585C15.274 8.66492 15.7508 8.66478 16.0446 8.9585C16.3384 9.25229 16.3382 9.72899 16.0446 10.0229L11.027 15.0405C10.733 15.3344 10.2564 15.3344 9.96252 15.0405L7.95569 13.0337C7.66178 12.7398 7.66178 12.2631 7.95569 11.9692C8.24962 11.6755 8.72628 11.6754 9.02014 11.9692L10.4948 13.4438L14.9801 8.9585Z" fill="#1C274C"/>
</svg>
