<svg width="24" height="24" viewBox="0 0 24 24" fill="none" xmlns="http://www.w3.org/2000/svg">
<path d="M14.4766 12.4385L16.2529 14.4697L16.3281 14.5557C16.6931 14.9744 17.0177 15.3459 17.4648 15.5488C17.9121 15.7518 18.4063 15.7509 18.9619 15.75H21.9561C21.8589 18.0904 21.5455 19.525 20.5352 20.5352C19.0708 21.9997 16.714 22 12 22C7.28597 22 4.92931 21.9996 3.46484 20.5352C2.45463 19.525 2.14115 18.0904 2.04395 15.75H5C5.69734 15.75 5.82994 15.764 5.93848 15.8105C6.04695 15.8572 6.14836 15.9436 6.62891 16.4482L7.79785 17.6748C7.96591 17.8513 8.14252 18.0373 8.31055 18.1699C8.50384 18.3225 8.79205 18.4924 9.17383 18.4668C9.55567 18.4412 9.81901 18.2347 9.99023 18.0576C10.139 17.9037 10.2896 17.6956 10.4326 17.498L14.0859 12.4561C14.158 12.3565 14.217 12.2749 14.2695 12.2051C14.3282 12.2698 14.3955 12.3458 14.4766 12.4385ZM12 2C16.714 2 19.0708 2.00037 20.5352 3.46484C21.9996 4.9293 22 7.28597 22 12C22 12.8185 21.9999 13.5659 21.9922 14.25H19.0752C18.3378 14.25 18.1981 14.2339 18.085 14.1826C17.9718 14.1312 17.8673 14.0364 17.3818 13.4814L15.5781 11.4199C15.4112 11.2291 15.2373 11.03 15.0703 10.8867C14.8791 10.7227 14.5879 10.5346 14.1934 10.5527C13.7991 10.5709 13.5269 10.784 13.3516 10.9648C13.1983 11.1228 13.0433 11.3383 12.8945 11.5439L9.24023 16.5869C9.17098 16.6826 9.11471 16.7612 9.06445 16.8281C9.00564 16.7685 8.93893 16.6979 8.85742 16.6123L7.71582 15.4141L7.6416 15.3359C7.27942 14.9544 6.95771 14.6152 6.5293 14.4316C6.10087 14.248 5.63345 14.2492 5.10742 14.25H2.00781C2.00014 13.5659 2 12.8185 2 12C2 7.28595 2.00037 4.9293 3.46484 3.46484C4.9293 2.00037 7.28595 2 12 2Z" fill="#1C274C"/>
</svg>
