<svg width="24" height="24" viewBox="0 0 24 24" fill="none" xmlns="http://www.w3.org/2000/svg">
<path d="M8.61133 2.53526C9.08042 2.15093 9.67973 2.17708 10.0977 2.48154C10.5016 2.77591 10.7139 3.31116 10.5547 3.8585C9.81166 6.41363 9.96484 7.75474 10.2754 8.39463C10.5455 8.95127 10.9793 9.05961 11.3291 9.01279L11.3789 9.00596H11.4287C12.1074 9.00591 12.8064 8.58585 13.4814 7.8292C14.1432 7.08729 14.681 6.13157 15.0352 5.33018C15.3609 4.5933 16.3995 4.22573 17.0908 4.91221C18.5797 6.39084 20.7499 9.49549 20.75 13.504C20.75 18.1034 16.7858 21.7501 12 21.7501C7.21423 21.7501 3.25 18.1034 3.25 13.504C3.25008 8.20887 6.32671 4.40848 8.61133 2.53526ZM8.88672 4.29111C6.93719 6.13414 4.75008 9.30854 4.75 13.504C4.75 17.1845 7.94921 20.2501 12 20.2501C16.0508 20.2501 19.25 17.1845 19.25 13.504C19.2499 10.2369 17.5706 7.61507 16.2744 6.22568C15.8818 7.05675 15.3158 8.0254 14.6006 8.82725C13.8232 9.69863 12.7658 10.4865 11.4775 10.506C10.6043 10.6045 9.51276 10.2585 8.92578 9.04893C8.42952 8.02597 8.35243 6.49249 8.88672 4.29111Z" fill="#1C274C"/>
</svg>
