<svg width="24" height="24" viewBox="0 0 24 24" fill="none" xmlns="http://www.w3.org/2000/svg">
<path d="M12 1.25C17.9371 1.25 22.75 6.06294 22.75 12C22.75 17.9371 17.9371 22.75 12 22.75C6.06294 22.75 1.25 17.9371 1.25 12C1.25 6.06294 6.06294 1.25 12 1.25ZM12 2.75C6.89137 2.75 2.75 6.89137 2.75 12C2.75 17.1086 6.89137 21.25 12 21.25C17.1086 21.25 21.25 17.1086 21.25 12C21.25 6.89137 17.1086 2.75 12 2.75ZM12.3564 6.79199C12.7264 6.56886 13.3707 6.24663 13.9883 6.63281C14.6208 7.02858 14.5876 7.76045 14.5332 8.18359C14.4716 8.66255 14.3022 9.29716 14.1025 10.042L14.0469 10.248C14.0078 10.3938 13.977 10.5089 13.9531 10.6084C13.941 10.6587 13.9317 10.7005 13.9248 10.7354C14.0359 10.7764 14.1994 10.8233 14.4619 10.8936L14.5117 10.9072C15.0041 11.0391 15.4488 11.1578 15.7773 11.2969C16.1033 11.435 16.5468 11.6868 16.6904 12.2178L16.6924 12.2256L16.6953 12.2344L16.6992 12.25L16.7002 12.2578L16.7021 12.2666L16.7041 12.2744L16.7061 12.2832C16.8158 12.8295 16.5228 13.252 16.2812 13.5176C16.0322 13.7916 15.6622 14.0888 15.2549 14.4131L13.1953 16.0527C12.582 16.5411 12.0624 16.9552 11.6436 17.208C11.2736 17.4311 10.6295 17.7528 10.0117 17.3662C9.37941 16.9706 9.41242 16.2396 9.4668 15.8164C9.5284 15.3373 9.69875 14.7021 9.89844 13.957L9.95312 13.751C9.99211 13.6055 10.023 13.4909 10.0469 13.3916C10.0578 13.3465 10.0667 13.3079 10.0732 13.2754C9.96194 13.2286 9.79467 13.1749 9.53906 13.1064C9.02082 12.9675 8.55585 12.8403 8.21191 12.6895C7.88368 12.5454 7.44654 12.2875 7.30469 11.7627L7.30273 11.7559L7.30078 11.7471L7.29688 11.7314L7.29492 11.7227L7.29297 11.7148L7.29102 11.7061L7.29004 11.6982C7.17869 11.1449 7.48153 10.7251 7.72363 10.4658C7.96301 10.2094 8.31703 9.92749 8.70312 9.62012L10.8047 7.94629C11.4178 7.45796 11.9375 7.04472 12.3564 6.79199ZM13.0225 8.14453C12.7092 8.34917 12.2927 8.67952 11.6953 9.15527L9.67969 10.7598C9.33825 11.0317 9.10343 11.2207 8.94336 11.3682C9.16067 11.4485 9.47257 11.5356 9.92676 11.6572C10.2303 11.7385 10.5151 11.8249 10.752 11.9355C10.9848 12.0443 11.2389 12.2074 11.416 12.4795L11.4189 12.4775C11.603 12.7894 11.6095 13.1073 11.5771 13.3662C11.549 13.5901 11.4801 13.8492 11.4121 14.1025L11.3623 14.2891C11.172 14.9993 11.0397 15.4972 10.9775 15.8555C11.2909 15.6509 11.7081 15.3206 12.3057 14.8447L14.3203 13.2393C14.6621 12.967 14.8975 12.7759 15.0557 12.626C14.8377 12.5488 14.5276 12.4645 14.0732 12.3428C13.7887 12.2666 13.5095 12.19 13.2842 12.0947C13.0462 11.9942 12.7751 11.8352 12.5898 11.5361L12.585 11.5293L12.5811 11.5225C12.3971 11.2105 12.3905 10.8927 12.4229 10.6338C12.451 10.4099 12.5199 10.1508 12.5879 9.89746L12.6377 9.71094C12.828 9.00071 12.9604 8.50288 13.0225 8.14453Z" fill="#48465C"/>
</svg>
