<svg width="24" height="24" viewBox="0 0 24 24" fill="none" xmlns="http://www.w3.org/2000/svg">
<path d="M9.46973 5.46936C9.68423 5.25499 10.007 5.1912 10.2871 5.30725C10.5672 5.42334 10.7499 5.69649 10.75 5.99963V11.2496H20C20.4141 11.2496 20.7498 11.5856 20.75 11.9996C20.75 12.4138 20.4142 12.7496 20 12.7496H10.75V17.9996C10.75 18.303 10.5674 18.5769 10.2871 18.693C10.0069 18.8091 9.68423 18.7444 9.46973 18.5299L3.46973 12.5299C3.3292 12.3892 3.25 12.1984 3.25 11.9996C3.25008 11.8008 3.32915 11.6099 3.46973 11.4694L9.46973 5.46936Z" fill="#1C274C"/>
</svg>
