<svg width="24" height="24" viewBox="0 0 24 24" fill="none" xmlns="http://www.w3.org/2000/svg">
<path d="M9.46973 5.46942C9.68423 5.25506 10.007 5.19126 10.2871 5.30731C10.5672 5.4234 10.7499 5.69655 10.75 5.99969V11.2497H20C20.4141 11.2497 20.7498 11.5856 20.75 11.9997C20.75 12.4139 20.4142 12.7497 20 12.7497H10.75V17.9997C10.75 18.3031 10.5674 18.5769 10.2871 18.6931C10.0069 18.8092 9.68423 18.7445 9.46973 18.53L3.46973 12.53C3.3292 12.3893 3.25 12.1985 3.25 11.9997C3.25008 11.8009 3.32915 11.6099 3.46973 11.4694L9.46973 5.46942Z" fill="#48465C"/>
</svg>
