<svg width="24" height="24" viewBox="0 0 24 24" fill="none" xmlns="http://www.w3.org/2000/svg">
<path d="M12 1.25C15.1463 1.25 17.7878 3.40232 18.5371 6.31348C18.6401 6.71448 18.3991 7.12331 17.998 7.22656C17.5969 7.3298 17.1883 7.08766 17.085 6.68652C16.5021 4.42216 14.4452 2.75 12 2.75C9.10051 2.75 6.75 5.10051 6.75 8V10.0039C7.13301 10.0003 7.54849 10 8 10H16C18.8284 10 20.2424 10.0002 21.1211 10.8789C21.9998 11.7576 22 13.1716 22 16C22 18.8284 21.9998 20.2424 21.1211 21.1211C20.2424 21.9998 18.8284 22 16 22H8C5.17158 22 3.75759 21.9998 2.87891 21.1211C2.00023 20.2424 2 18.8284 2 16C2 13.1716 2.00023 11.7576 2.87891 10.8789C3.40953 10.3482 4.13526 10.138 5.25 10.0547V8C5.25 4.27208 8.27208 1.25 12 1.25ZM12 13.25C11.5858 13.25 11.25 13.5858 11.25 14V18C11.25 18.4142 11.5858 18.75 12 18.75C12.4142 18.75 12.75 18.4142 12.75 18V14C12.75 13.5858 12.4142 13.25 12 13.25Z" fill="#1C274C"/>
</svg>
