<svg width="24" height="24" viewBox="0 0 24 24" fill="none" xmlns="http://www.w3.org/2000/svg">
<path d="M12.0361 2.25C12.9403 2.24999 13.6695 2.25039 14.2578 2.30371C14.8639 2.35866 15.3938 2.47424 15.875 2.75195C16.4451 3.08108 16.9188 3.55493 17.248 4.125C17.5258 4.60617 17.6423 5.13596 17.6973 5.74219C17.7506 6.3304 17.75 7.05979 17.75 7.96387V11.3711C18.2439 11.4755 18.6909 11.6795 19.0518 12.0918C19.4972 12.601 19.6429 13.2365 19.7031 13.9365C19.7045 13.9524 19.7056 13.9685 19.707 13.9844C19.7422 14.3936 19.7755 14.7816 19.7539 15.1055C19.729 15.4765 19.6282 15.8554 19.3271 16.1836C19.0162 16.5223 18.6258 16.6486 18.252 16.7021C18.0996 16.7238 17.9305 16.7357 17.75 16.7422V21C17.75 21.4142 17.4142 21.75 17 21.75C16.5859 21.7499 16.25 21.4141 16.25 21V16.75H7.75V21C7.75 21.4142 7.41422 21.75 7 21.75C6.58586 21.7499 6.25 21.4141 6.25 21V16.7422C6.06961 16.7357 5.90131 16.7238 5.74902 16.7021C5.3749 16.6487 4.98395 16.5225 4.67285 16.1836C4.37177 15.8554 4.271 15.4765 4.24609 15.1055C4.22441 14.7816 4.25772 14.3935 4.29297 13.9844C4.29434 13.9686 4.29552 13.9524 4.29688 13.9365C4.35706 13.2364 4.50269 12.601 4.94824 12.0918C5.30909 11.6795 5.75607 11.4755 6.25 11.3711V7.96387C6.24999 7.05979 6.2504 6.3304 6.30371 5.74219C6.35867 5.13593 6.47512 4.60619 6.75293 4.125C7.08206 3.555 7.55498 3.08105 8.125 2.75195C8.60613 2.47419 9.13605 2.35868 9.74219 2.30371C10.3305 2.25039 11.0606 2.24999 11.9648 2.25H12.0361ZM8.5 12.75C7.651 12.75 7.0998 12.7521 6.69336 12.8145C6.32019 12.8719 6.1769 12.966 6.07715 13.0801C5.95102 13.2243 5.84363 13.4648 5.79199 14.0654C5.75125 14.5395 5.73011 14.8099 5.74316 15.0049C5.74892 15.0909 5.75968 15.1319 5.76562 15.1484C5.76945 15.1589 5.77213 15.1622 5.77832 15.1689L5.7793 15.1699L5.78223 15.1719C5.78398 15.1729 5.78728 15.1746 5.79199 15.1768C5.81286 15.186 5.86148 15.2025 5.96094 15.2168C6.17895 15.2479 6.48501 15.25 7 15.25H17C17.515 15.25 17.8211 15.2479 18.0391 15.2168C18.1386 15.2025 18.1871 15.186 18.208 15.1768C18.2129 15.1746 18.216 15.1729 18.2178 15.1719L18.2207 15.1709L18.2227 15.1689C18.2287 15.1624 18.2306 15.1588 18.2344 15.1484C18.2404 15.132 18.252 15.0911 18.2578 15.0049C18.2709 14.8099 18.2498 14.5394 18.209 14.0654C18.1573 13.4646 18.049 13.2243 17.9229 13.0801C17.8231 12.966 17.68 12.8719 17.3066 12.8145C16.9001 12.7521 16.3491 12.75 15.5 12.75H8.5ZM12 3.75C11.0517 3.75 10.3905 3.75042 9.87793 3.79688C9.37562 3.8424 9.08991 3.92769 8.875 4.05176C8.5331 4.24922 8.24919 4.53307 8.05176 4.875C7.92768 5.0899 7.84241 5.37563 7.79688 5.87793C7.75043 6.39052 7.75 7.05169 7.75 8V11.25H16.25V8C16.25 7.05167 16.2496 6.39053 16.2031 5.87793C16.1576 5.37563 16.0723 5.0899 15.9482 4.875C15.7508 4.53305 15.4669 4.2492 15.125 4.05176C14.9101 3.92769 14.6244 3.8424 14.1221 3.79688C13.6095 3.75044 12.9482 3.75 12 3.75Z" fill="#48465C"/>
</svg>
