<svg width="24" height="24" viewBox="0 0 24 24" fill="none" xmlns="http://www.w3.org/2000/svg">
<path d="M12.0361 2.25C12.9401 2.24999 13.6695 2.2504 14.2578 2.30371C14.8639 2.35867 15.3938 2.47422 15.8749 2.75195C16.445 3.08108 16.9188 3.55493 17.248 4.125C17.5257 4.60614 17.6412 5.13601 17.6962 5.74219C17.7495 6.3304 17.7499 7.05979 17.7499 7.96387V11.3711C18.2439 11.4755 18.6908 11.6795 19.0517 12.0918C19.4972 12.601 19.6429 13.2364 19.7031 13.9365C19.7045 13.9524 19.7056 13.9685 19.707 13.9844C19.7422 14.3935 19.7754 14.7816 19.7538 15.1055C19.7289 15.4765 19.6282 15.8554 19.3271 16.1836C19.016 16.5224 18.6249 16.6487 18.2509 16.7021C18.0986 16.7238 17.9303 16.7357 17.7499 16.7422V21C17.7499 21.4142 17.4141 21.75 16.9999 21.75C16.5858 21.75 16.2499 21.4142 16.2499 21V16.75H7.74994V21C7.74994 21.4142 7.41416 21.75 6.99994 21.75C6.58575 21.75 6.24994 21.4142 6.24994 21V16.7422C6.06955 16.7357 5.90125 16.7238 5.74896 16.7021C5.37486 16.6487 4.98388 16.5225 4.67279 16.1836C4.37171 15.8554 4.27094 15.4765 4.24603 15.1055C4.22435 14.7816 4.25766 14.3935 4.29291 13.9844C4.29428 13.9686 4.29545 13.9524 4.29681 13.9365C4.357 13.2364 4.50263 12.601 4.94818 12.0918C5.30904 11.6795 5.75599 11.4755 6.24994 11.3711V7.96387C6.24993 7.05979 6.25034 6.3304 6.30365 5.74219C6.35861 5.13594 6.47506 4.60619 6.75287 4.125C7.08199 3.55502 7.55494 3.08104 8.12494 2.75195C8.60608 2.47421 9.13598 2.35868 9.74213 2.30371C10.3304 2.2504 11.0598 2.24999 11.9638 2.25H12.0361ZM8.49994 12.75C7.65087 12.75 7.09976 12.7521 6.6933 12.8145C6.32004 12.8719 6.17685 12.966 6.07709 13.0801C5.95094 13.2243 5.84357 13.4647 5.79193 14.0654C5.75119 14.5395 5.73005 14.8099 5.7431 15.0049C5.74887 15.091 5.75962 15.1319 5.76556 15.1484C5.76939 15.1589 5.77207 15.1622 5.77826 15.1689L5.77924 15.1699L5.78217 15.1719C5.78393 15.1729 5.78716 15.1746 5.79193 15.1768C5.81281 15.186 5.86135 15.2025 5.96088 15.2168C6.1789 15.2479 6.48488 15.25 6.99994 15.25H16.9999C17.515 15.25 17.821 15.2479 18.039 15.2168C18.1386 15.2025 18.187 15.186 18.2079 15.1768C18.2128 15.1746 18.2159 15.1729 18.2177 15.1719L18.2206 15.1709L18.2216 15.1689C18.2278 15.1622 18.2305 15.1589 18.2343 15.1484C18.2403 15.1319 18.252 15.091 18.2578 15.0049C18.2708 14.8099 18.2487 14.5395 18.2079 14.0654C18.1563 13.4647 18.0489 13.2243 17.9228 13.0801C17.823 12.966 17.6799 12.8719 17.3066 12.8145C16.9001 12.7521 16.349 12.75 15.4999 12.75H8.49994ZM11.9999 3.75C11.0516 3.75 10.3905 3.75043 9.87787 3.79688C9.37556 3.8424 9.08985 3.92769 8.87494 4.05176C8.53301 4.24921 8.24914 4.53307 8.0517 4.875C7.92762 5.0899 7.84234 5.37563 7.79681 5.87793C7.75037 6.39053 7.74994 7.05168 7.74994 8V11.25H16.2499V8C16.2499 7.05168 16.2495 6.39053 16.2031 5.87793C16.1576 5.37563 16.0723 5.0899 15.9482 4.875C15.7508 4.53305 15.4669 4.24921 15.1249 4.05176C14.91 3.92769 14.6243 3.8424 14.122 3.79688C13.6094 3.75043 12.9482 3.75 11.9999 3.75Z" fill="#1C274C"/>
</svg>
