<svg width="24" height="24" viewBox="0 0 24 24" fill="none" xmlns="http://www.w3.org/2000/svg">
<path d="M17.5 10.1064C19.5249 8.03841 22 9.03772 22 11.7148C21.9999 13.4675 19.8365 15.3308 18.5098 16.3086C18.0558 16.6433 17.8286 16.8105 17.5 16.8105C17.1714 16.8105 16.9442 16.6433 16.4902 16.3086C15.1634 15.3308 13 13.4673 13 11.7148C13 9.03762 15.4751 8.03841 17.5 10.1064ZM10 15.25C10.4142 15.25 10.75 15.5858 10.75 16C10.75 16.4142 10.4142 16.75 10 16.75H3C2.58579 16.75 2.25 16.4142 2.25 16C2.25 15.5858 2.58579 15.25 3 15.25H10ZM9 10.25C9.41421 10.25 9.75 10.5858 9.75 11C9.75 11.4142 9.41421 11.75 9 11.75H3C2.58579 11.75 2.25 11.4142 2.25 11C2.25 10.5858 2.58579 10.25 3 10.25H9ZM20 5.25C20.4142 5.25 20.75 5.58579 20.75 6C20.75 6.41421 20.4142 6.75 20 6.75H3C2.58579 6.75 2.25 6.41421 2.25 6C2.25 5.58579 2.58579 5.25 3 5.25H20Z" fill="#1C274C"/>
</svg>
