<svg width="24" height="24" viewBox="0 0 24 24" fill="none" xmlns="http://www.w3.org/2000/svg">
<path d="M20 22.7495H4C3.58582 22.7495 3.25 22.4137 3.25 21.9995C3.25013 21.5854 3.5859 21.2495 4 21.2495H20V22.7495ZM14.0996 2.39111C15.6211 0.869698 18.0879 0.869672 19.6094 2.39111C21.1305 3.91259 21.1307 6.37954 19.6094 7.90088L12.0146 15.4946C11.5868 15.9225 11.3254 16.1844 11.0342 16.4116C10.691 16.6792 10.3196 16.9089 9.92676 17.0962C9.59328 17.2551 9.24216 17.3716 8.66797 17.563L5.99512 18.4536L5.35352 18.6675C4.77923 18.8587 4.14581 18.7098 3.71777 18.2817C3.2898 17.8537 3.14063 17.2202 3.33203 16.646L4.43652 13.3315C4.62791 12.7573 4.74535 12.4063 4.9043 12.0728C5.09153 11.6799 5.32124 11.3084 5.58887 10.9653C5.816 10.6742 6.07708 10.4126 6.50488 9.98486L14.0996 2.39111ZM7.60156 11.0103C7.1274 11.4845 6.93512 11.6784 6.77148 11.8882C6.57078 12.1456 6.39821 12.4237 6.25781 12.7183C6.14333 12.9585 6.05583 13.2178 5.84375 13.854L5.11523 16.0386L5.96094 16.8843L8.14648 16.1558C8.78246 15.9439 9.0411 15.8562 9.28125 15.7417C9.57582 15.6013 9.85398 15.4287 10.1113 15.228C10.3211 15.0643 10.516 14.8721 10.9902 14.3979L16.8809 8.50732C16.2709 8.26415 15.5346 7.85248 14.8408 7.15869C14.1471 6.46495 13.7353 5.72861 13.4922 5.11865L7.60156 11.0103ZM18.5479 3.45166C17.6122 2.51613 16.0957 2.51605 15.1602 3.45166L14.6875 3.92334C14.7147 4.04713 14.7554 4.20246 14.8164 4.37842C14.9844 4.8624 15.3023 5.49902 15.9014 6.09814C16.5005 6.69723 17.137 7.01516 17.6211 7.18311C17.7971 7.24418 17.9524 7.28482 18.0762 7.31201L18.5479 6.84033C19.4836 5.90466 19.4836 4.38733 18.5479 3.45166Z" fill="#48465C"/>
</svg>
