<svg width="24" height="24" viewBox="0 0 24 24" fill="none" xmlns="http://www.w3.org/2000/svg">
<path d="M12 2C17.5227 2 21.9999 6.48324 22 12.0137C22 17.2915 17.9226 21.616 12.75 22V15.9385C14.3226 15.5946 15.5 14.1925 15.5 12.5146V12.0137C15.4999 11.4607 15.0522 11.0127 14.5 11.0127H14.25V9.00977C14.25 8.59498 13.9142 8.25879 13.5 8.25879C13.0858 8.25879 12.75 8.59498 12.75 9.00977V11.0127H11.25V9.00977C11.25 8.59498 10.9142 8.25879 10.5 8.25879C10.0858 8.25879 9.75 8.59498 9.75 9.00977V11.0127H9.5C8.9478 11.0127 8.50012 11.4607 8.5 12.0137V12.5146C8.50002 14.1924 9.67748 15.5947 11.25 15.9385V22C6.07743 21.616 2 17.2915 2 12.0137C2.00012 6.48324 6.47723 2 12 2Z" fill="#48465C"/>
</svg>
