<svg width="24" height="24" viewBox="0 0 24 24" fill="none" xmlns="http://www.w3.org/2000/svg">
<path d="M13.2451 2.75C16.7264 2.75 19.6971 5.17591 20.2695 8.48535L20.9756 12.5645C21.1518 13.5835 20.368 14.5156 19.335 14.5156H14.1543C13.6408 14.5156 13.2489 14.9771 13.332 15.4844L13.9951 19.5283C14.1027 20.1854 14.0725 20.8584 13.9053 21.5029C13.7667 22.0367 13.3541 22.4646 12.8125 22.6387L12.668 22.6855C12.3406 22.7907 11.9835 22.7658 11.6748 22.6172C11.3351 22.4535 11.0862 22.155 10.9941 21.7998L10.5186 19.9658C10.3672 19.3825 10.1466 18.8191 9.8623 18.2871C9.44695 17.5096 8.80421 16.8877 8.13672 16.3125L6.69824 15.0723C6.29281 14.7228 6.07997 14.1996 6.12598 13.666L6.93848 4.27246C7.0132 3.41117 7.73307 2.75 8.59668 2.75H13.2451ZM3.48633 2C4.21225 2 4.78108 2.62202 4.71875 3.34375L3.74707 14.5801C3.71247 14.9803 3.369 15.2819 2.96777 15.2646C2.5665 15.2473 2.25 14.9172 2.25 14.5156V3.2373C2.25 2.55491 2.80268 2.00021 3.48633 2Z" fill="#48465C"/>
</svg>
