<svg width="24" height="24" viewBox="0 0 24 24" fill="none" xmlns="http://www.w3.org/2000/svg">
<path d="M12 2C16.714 2 19.0708 2.00037 20.5352 3.46484C21.9996 4.9293 22 7.28597 22 12C22 16.714 21.9997 19.0708 20.5352 20.5352C19.0708 21.9997 16.714 22 12 22C7.28597 22 4.9293 21.9996 3.46484 20.5352C2.00037 19.0708 2 16.714 2 12C2 7.28595 2.00037 4.9293 3.46484 3.46484C4.9293 2.00037 7.28595 2 12 2ZM10.5 7.25C10.0858 7.25 9.75 7.58579 9.75 8V11.25H7.5C6.80964 11.25 6.25 10.6904 6.25 10V8C6.25 7.58579 5.91421 7.25 5.5 7.25C5.08579 7.25 4.75 7.58579 4.75 8V10C4.75 11.5188 5.98122 12.75 7.5 12.75H9.75V16C9.75 16.4142 10.0858 16.75 10.5 16.75C10.9142 16.75 11.25 16.4142 11.25 16V8C11.25 7.58579 10.9142 7.25 10.5 7.25ZM19.0195 7.45898C18.721 7.17222 18.246 7.182 17.959 7.48047L14.25 11.3379V8C14.25 7.58579 13.9142 7.25 13.5 7.25C13.0858 7.25 12.75 7.58579 12.75 8V16C12.75 16.4142 13.0858 16.75 13.5 16.75C13.9142 16.75 14.25 16.4142 14.25 16V13.502L15.3047 12.4053L17.8682 16.4043C18.0917 16.7531 18.5565 16.8553 18.9053 16.6318C19.2537 16.4084 19.3549 15.9443 19.1318 15.5957L16.374 11.293L19.041 8.51953C19.3278 8.22093 19.318 7.74596 19.0195 7.45898Z" fill="#1C274C"/>
</svg>
