<svg width="24" height="24" viewBox="0 0 24 24" fill="none" xmlns="http://www.w3.org/2000/svg">
<path d="M12 2C14.631 2 15.9463 2.00028 16.7637 2.87891C17.5811 3.75759 17.5811 5.17157 17.5811 8V16C17.5811 18.8284 17.5811 20.2424 16.7637 21.1211C15.9463 21.9997 14.631 22 12 22C9.36898 22 8.05371 21.9997 7.23633 21.1211C6.41896 20.2424 6.41895 18.8284 6.41895 16V8C6.41895 5.17157 6.41896 3.75759 7.23633 2.87891C8.05371 2.00027 9.36897 2 12 2ZM4.83398 3.78613C5.0522 3.76697 5.22014 3.97135 5.18457 4.1875C5.1671 4.2937 5.15113 4.40046 5.1377 4.50781C5.10776 4.74721 5.08569 5.00277 5.06934 5.27246C5.02305 6.03629 5.02339 6.91873 5.02344 7.90137V16.0986C5.02339 17.0814 5.02304 17.9637 5.06934 18.7275C5.08568 18.9971 5.10778 19.2519 5.1377 19.4912C5.15115 19.5987 5.16707 19.7061 5.18457 19.8125C5.22006 20.0287 5.05217 20.2321 4.83398 20.2129C4.4032 20.1751 4.01376 20.0945 3.65039 19.8955C3.08168 19.5839 2.6189 19.087 2.3291 18.4756C2.14392 18.0848 2.0694 17.6663 2.03418 17.2031C2.00017 16.7555 1.99999 16.2046 2 15.5312V8.46875C1.99999 7.79541 2.00018 7.24443 2.03418 6.79688C2.06938 6.33369 2.14396 5.9151 2.3291 5.52441C2.61888 4.91304 3.08172 4.4161 3.65039 4.10449C4.01378 3.90545 4.40318 3.824 4.83398 3.78613ZM19.166 3.78613C19.5969 3.824 19.9862 3.90546 20.3496 4.10449C20.9182 4.4161 21.3811 4.91303 21.6709 5.52441C21.856 5.9151 21.9306 6.33369 21.9658 6.79688C21.9998 7.24441 22 7.79545 22 8.46875V15.5312C22 16.2046 21.9998 16.7555 21.9658 17.2031C21.9306 17.6663 21.8561 18.0848 21.6709 18.4756C21.381 19.087 20.9183 19.5839 20.3496 19.8955C19.9862 20.0945 19.5968 20.1751 19.166 20.2129C18.9479 20.2321 18.7799 20.0287 18.8154 19.8125C18.8329 19.7061 18.8489 19.5987 18.8623 19.4912C18.8923 19.2519 18.9144 18.9971 18.9307 18.7275C18.977 17.9637 18.9767 17.0814 18.9766 16.0986V7.90137C18.9767 6.91872 18.9769 6.0363 18.9307 5.27246C18.9144 5.00277 18.8923 4.74721 18.8623 4.50781C18.8489 4.40046 18.8329 4.2937 18.8154 4.1875C18.7798 3.97135 18.9478 3.76697 19.166 3.78613ZM13 7.25C12.5858 7.25002 12.25 7.5858 12.25 8V11.5498C11.875 11.358 11.4501 11.25 11 11.25C9.48123 11.25 8.25 12.4812 8.25 14C8.25 15.5188 9.48123 16.75 11 16.75C12.5188 16.75 13.75 15.5188 13.75 14V10.4502C14.125 10.642 14.5499 10.75 15 10.75C15.4142 10.75 15.75 10.4142 15.75 10C15.75 9.58579 15.4142 9.25 15 9.25C14.3096 9.24998 13.75 8.69035 13.75 8C13.75 7.58579 13.4142 7.25 13 7.25ZM11 12.75C11.6904 12.75 12.25 13.3096 12.25 14C12.25 14.6904 11.6904 15.25 11 15.25C10.3096 15.25 9.75 14.6904 9.75 14C9.75 13.3096 10.3096 12.75 11 12.75Z" fill="#1C274C"/>
</svg>
