<svg width="24" height="24" viewBox="0 0 24 24" fill="none" xmlns="http://www.w3.org/2000/svg">
<path d="M13.5 1.25C13.9142 1.25 14.25 1.58579 14.25 2C14.25 2.41421 13.9142 2.75 13.5 2.75H12C9.62178 2.75 7.91326 2.75198 6.61328 2.92676C5.33508 3.09865 4.56472 3.42551 3.99512 3.99512C3.42551 4.56472 3.09865 5.33508 2.92676 6.61328C2.75198 7.91326 2.75 9.62178 2.75 12C2.75 14.3782 2.75198 16.0867 2.92676 17.3867C3.09865 18.6649 3.42551 19.4352 3.99512 20.0049C4.56472 20.5745 5.33508 20.9014 6.61328 21.0732C7.91326 21.248 9.62178 21.25 12 21.25C14.3782 21.25 16.0867 21.248 17.3867 21.0732C18.6649 20.9014 19.4352 20.5745 20.0049 20.0049C20.5745 19.4352 20.9014 18.6649 21.0732 17.3867C21.248 16.0867 21.25 14.3782 21.25 12V10.5C21.25 10.0858 21.5858 9.75 22 9.75C22.4142 9.75 22.75 10.0858 22.75 10.5V12.0576C22.75 14.3657 22.7502 16.1745 22.5605 17.5859C22.3662 19.0306 21.9602 20.1706 21.0654 21.0654C20.1706 21.9602 19.0306 22.3662 17.5859 22.5605C16.1745 22.7502 14.3657 22.75 12.0576 22.75H11.9424C9.63432 22.75 7.82544 22.7502 6.41406 22.5605C4.96932 22.3662 3.82938 21.9602 2.93457 21.0654C2.03977 20.1706 1.63369 19.0306 1.43945 17.5859C1.24974 16.1745 1.24999 14.3657 1.25 12.0576V11.9424C1.24999 9.63433 1.24974 7.82544 1.43945 6.41406C1.63369 4.96932 2.03976 3.82938 2.93457 2.93457C3.82938 2.03976 4.96932 1.63369 6.41406 1.43945C7.82544 1.24974 9.63433 1.24999 11.9424 1.25H13.5ZM16.4238 9.51953C16.6891 9.20151 17.1623 9.15872 17.4805 9.42383C17.7985 9.68904 17.8412 10.1623 17.5762 10.4805L15.7471 12.6748C15.4189 13.0687 15.1231 13.4241 14.8467 13.6738C14.5457 13.9455 14.1664 14.1884 13.667 14.1885C13.1675 14.1885 12.7882 13.9455 12.4873 13.6738C12.2107 13.424 11.9144 13.0689 11.5859 12.6748L11.2939 12.3242C10.9234 11.8795 10.6954 11.6089 10.5078 11.4395C10.4208 11.361 10.3685 11.3293 10.3438 11.3174C10.3411 11.3161 10.3387 11.3153 10.3369 11.3145L10.333 11.3125C10.3308 11.3134 10.3271 11.315 10.3223 11.3174C10.2974 11.3294 10.2459 11.3612 10.1592 11.4395C9.97165 11.6089 9.74375 11.8793 9.37305 12.3242L7.57617 14.4805C7.31096 14.7985 6.83767 14.8412 6.51953 14.5762C6.20153 14.3109 6.15872 13.8377 6.42383 13.5195L8.25293 11.3252C8.58133 10.931 8.87775 10.5759 9.1543 10.3262C9.45516 10.0546 9.83375 9.8126 10.333 9.8125C10.8325 9.8125 11.2118 10.0545 11.5127 10.3262C11.7893 10.576 12.0856 10.931 12.4141 11.3252L12.7061 11.6758C13.0766 12.1205 13.3047 12.3911 13.4922 12.5605C13.5792 12.639 13.6315 12.6707 13.6562 12.6826C13.6611 12.685 13.6647 12.6866 13.667 12.6875C13.6676 12.6872 13.6694 12.6862 13.6709 12.6855C13.6709 12.6855 13.6753 12.6838 13.6777 12.6826C13.7026 12.6706 13.7541 12.6388 13.8408 12.5605C14.0283 12.3911 14.2563 12.1207 14.627 11.6758L16.4238 9.51953ZM19 1.25C21.0711 1.25 22.75 2.92893 22.75 5C22.75 7.07107 21.0711 8.75 19 8.75C16.9289 8.75 15.25 7.07107 15.25 5C15.25 2.92893 16.9289 1.25 19 1.25ZM19 2.75C17.7574 2.75 16.75 3.75736 16.75 5C16.75 6.24264 17.7574 7.25 19 7.25C20.2426 7.25 21.25 6.24264 21.25 5C21.25 3.75736 20.2426 2.75 19 2.75Z" fill="#1C274C"/>
</svg>
