<svg width="24" height="24" viewBox="0 0 24 24" fill="none" xmlns="http://www.w3.org/2000/svg">
<path fill-rule="evenodd" clip-rule="evenodd" d="M15.0001 2.25C15.4143 2.25 15.7501 2.58579 15.7501 3V4C15.7501 4.9665 14.9666 5.75 14.0001 5.75H13.0001C12.862 5.75006 12.7501 5.86197 12.7501 6V6.25H13.2833C14.5965 6.24999 15.6378 6.25016 16.4776 6.33301C17.3397 6.4181 18.0597 6.59572 18.711 6.99414C19.0192 7.18269 19.306 7.40356 19.5655 7.65332C20.1156 8.18292 20.4608 8.83048 20.7442 9.63379C21.0192 10.4134 21.2564 11.4023 21.5547 12.6445L22.6495 17.2012C23.1325 19.2119 21.844 21.1951 19.8223 21.6543C18.1203 22.0408 16.3543 21.2353 15.5733 19.6836L15.4454 19.4297C15.0058 18.5562 14.0853 17.9902 13.0635 17.9902H10.9366C9.91484 17.9902 8.9944 18.5562 8.55474 19.4297L8.42681 19.6836C7.64587 21.2353 5.87982 22.0408 4.17779 21.6543C2.15622 21.1951 0.868624 19.2119 1.35162 17.2012L2.44537 12.6445C2.74376 11.4023 2.98193 10.4134 3.25689 9.63379C3.54022 8.83062 3.8845 8.18286 4.43462 7.65332C4.69413 7.40353 4.98092 7.18271 5.28912 6.99414C5.94052 6.59557 6.66105 6.41809 7.52349 6.33301C8.36327 6.25018 9.40458 6.24999 10.7178 6.25H11.2501V6C11.2501 5.03354 12.0336 4.25006 13.0001 4.25H14.0001C14.1382 4.25 14.2501 4.13807 14.2501 4V3C14.2501 2.58583 14.5859 2.25006 15.0001 2.25ZM10.7569 7.75C9.39537 7.75 8.42848 7.75051 7.67095 7.8252C6.92771 7.89851 6.45651 8.03845 6.07232 8.27344C5.85632 8.4056 5.65539 8.56041 5.47466 8.73438C5.15535 9.04185 4.91154 9.45075 4.67095 10.1328C4.42486 10.8305 4.2048 11.7436 3.89459 13.0352L2.80962 17.5518C2.52994 18.7162 3.26958 19.9096 4.5108 20.1914C5.56017 20.4295 6.62503 19.9274 7.08697 19.0098L7.2149 18.7549C7.91643 17.3612 9.36402 16.4902 10.9366 16.4902H13.0635C14.636 16.4902 16.0837 17.3612 16.7852 18.7549L16.9131 19.0098C17.3751 19.9276 18.4408 20.4298 19.4903 20.1914C20.7313 19.9095 21.4701 18.7161 21.1905 17.5518L20.1055 13.0352C19.7954 11.7438 19.5752 10.8304 19.3292 10.1328C19.0885 9.45069 18.8448 9.04186 18.5254 8.73438C18.3447 8.56047 18.1447 8.40557 17.9288 8.27344C17.5446 8.03835 17.0735 7.89854 16.3301 7.8252C15.5725 7.75046 14.605 7.75 13.2432 7.75H10.7569ZM17.0001 13C17.5524 13 18.0001 13.4477 18.0001 14C18.0001 14.5523 17.5524 15 17.0001 15C16.4478 15 16.0001 14.5523 16.0001 14C16.0001 13.4477 16.4478 13 17.0001 13ZM8.50005 10.25C8.91426 10.25 9.25005 10.5858 9.25005 11V11.75H10.0001C10.4143 11.75 10.7501 12.0858 10.7501 12.5C10.7501 12.9142 10.4143 13.25 10.0001 13.25H9.25005V14C9.25005 14.4142 8.91426 14.75 8.50005 14.75C8.08589 14.7499 7.75005 14.4142 7.75005 14V13.25H7.00005C6.58589 13.2499 6.25005 12.9142 6.25005 12.5C6.25005 12.0858 6.58589 11.7501 7.00005 11.75H7.75005V11C7.75005 10.5858 8.08589 10.2501 8.50005 10.25ZM15.0001 10C15.5524 10 16.0001 10.4477 16.0001 11C16.0001 11.5523 15.5524 12 15.0001 12C14.4478 12 14.0001 11.5523 14.0001 11C14.0001 10.4477 14.4478 10 15.0001 10Z" fill="#1C274C"/>
</svg>
