<svg width="24" height="24" viewBox="0 0 24 24" fill="none" xmlns="http://www.w3.org/2000/svg">
<path d="M14.25 19H9.75V5H14.25V19ZM8.25 9.09473C6.95611 9.42779 6 10.6021 6 12C6.00003 13.3979 6.95612 14.5723 8.25 14.9053V18.999C5.93258 18.9936 4.69215 18.9374 3.77734 18.3262C3.34068 18.0343 2.96563 17.6593 2.67383 17.2227C1.99971 16.2138 2 14.8089 2 12C2 9.19108 1.99971 7.78623 2.67383 6.77734C2.96563 6.34067 3.34068 5.96563 3.77734 5.67383C4.69215 5.06257 5.93257 5.00629 8.25 5.00098V9.09473ZM15.75 5.00098C18.0674 5.00629 19.3079 5.06257 20.2227 5.67383C20.6593 5.96562 21.0343 6.34067 21.3262 6.77734C22.0003 7.78623 22 9.19107 22 12C22 14.8089 22.0003 16.2138 21.3262 17.2227C21.0343 17.6593 20.6593 18.0343 20.2227 18.3262C19.3079 18.9374 18.0674 18.9936 15.75 18.999V14.9053C17.0439 14.5723 18 13.3979 18 12C18 10.6021 17.0439 9.42779 15.75 9.09473V5.00098Z" fill="#1C274C"/>
</svg>
