<svg width="24" height="24" viewBox="0 0 24 24" fill="none" xmlns="http://www.w3.org/2000/svg">
<path d="M12 2C16.714 2 19.0708 2.00037 20.5352 3.46484C21.9996 4.9293 22 7.28597 22 12C22 16.714 21.9997 19.0708 20.5352 20.5352C19.0708 21.9997 16.714 22 12 22C7.28597 22 4.9293 21.9996 3.46484 20.5352C2.00037 19.0708 2 16.714 2 12C2 7.28595 2.00037 4.9293 3.46484 3.46484C4.9293 2.00037 7.28595 2 12 2ZM13.25 6.25C12.8358 6.25 12.5 6.58579 12.5 7C12.5 7.41421 12.8358 7.75 13.25 7.75H15.1895L7.75 15.1895V13.25C7.75 12.8358 7.41421 12.5 7 12.5C6.58579 12.5 6.25 12.8358 6.25 13.25V17C6.25 17.4142 6.58579 17.75 7 17.75H10.75C11.1642 17.75 11.5 17.4142 11.5 17C11.5 16.5858 11.1642 16.25 10.75 16.25H8.81055L16.25 8.81055V10.75C16.25 11.1642 16.5858 11.5 17 11.5C17.4142 11.5 17.75 11.1642 17.75 10.75V7C17.75 6.58579 17.4142 6.25 17 6.25H13.25Z" fill="#1C274C"/>
</svg>
