<svg width="24" height="24" viewBox="0 0 24 24" fill="none" xmlns="http://www.w3.org/2000/svg">
<path d="M9.25 14C10.9069 14 12.25 15.3431 12.25 17C12.25 18.6569 10.9069 20 9.25 20C7.59315 20 6.25 18.6569 6.25 17C6.25 15.3431 7.59315 14 9.25 14ZM3.75 16.209C4.16421 16.209 4.5 16.5448 4.5 16.959C4.5 17.3732 4.16421 17.709 3.75 17.709H1.75C1.33579 17.709 1 17.3732 1 16.959C1 16.5448 1.33579 16.209 1.75 16.209H3.75ZM21.75 16.209C22.1642 16.209 22.5 16.5448 22.5 16.959C22.5 17.3732 22.1642 17.709 21.75 17.709H14.75C14.3358 17.709 14 17.3732 14 16.959C14 16.5448 14.3358 16.209 14.75 16.209H21.75ZM14.25 4C15.9069 4 17.25 5.34315 17.25 7C17.25 8.65685 15.9069 10 14.25 10C12.5931 10 11.25 8.65685 11.25 7C11.25 5.34315 12.5931 4 14.25 4ZM8.75 6.20898C9.16421 6.20898 9.5 6.54477 9.5 6.95898C9.5 7.37319 9.16421 7.70898 8.75 7.70898H1.75C1.33579 7.70898 1 7.37319 1 6.95898C1 6.54477 1.33579 6.20898 1.75 6.20898H8.75ZM21.75 6.20898C22.1642 6.20898 22.5 6.54477 22.5 6.95898C22.5 7.37319 22.1642 7.70898 21.75 7.70898H19.75C19.3358 7.70898 19 7.37319 19 6.95898C19 6.54477 19.3358 6.20898 19.75 6.20898H21.75Z" fill="#48465C"/>
</svg>
