<svg width="24" height="24" viewBox="0 0 24 24" fill="none" xmlns="http://www.w3.org/2000/svg">
<path d="M12 4.75C16.9706 4.75 21 8.77944 21 13.75C21 18.7206 16.9706 22.75 12 22.75C7.02944 22.75 3 18.7206 3 13.75C3 8.77944 7.02944 4.75 12 4.75ZM9.5 9.75C9.03406 9.75 8.80096 9.75005 8.61719 9.82617C8.37226 9.92766 8.17766 10.1223 8.07617 10.3672C8.00005 10.551 8 10.7841 8 11.25V16.25C8 16.7159 8.00005 16.949 8.07617 17.1328C8.17766 17.3777 8.37226 17.5723 8.61719 17.6738C8.80096 17.7499 9.03406 17.75 9.5 17.75C9.96594 17.75 10.199 17.7499 10.3828 17.6738C10.6277 17.5723 10.8223 17.3777 10.9238 17.1328C10.9999 16.949 11 16.7159 11 16.25V11.25C11 10.7841 10.9999 10.551 10.9238 10.3672C10.8223 10.1223 10.6277 9.92766 10.3828 9.82617C10.199 9.75005 9.96594 9.75 9.5 9.75ZM14.5 9.75C14.0341 9.75 13.801 9.75005 13.6172 9.82617C13.3723 9.92766 13.1777 10.1223 13.0762 10.3672C13.0001 10.551 13 10.7841 13 11.25V16.25C13 16.7159 13.0001 16.949 13.0762 17.1328C13.1777 17.3777 13.3723 17.5723 13.6172 17.6738C13.801 17.7499 14.0341 17.75 14.5 17.75C14.9659 17.75 15.199 17.7499 15.3828 17.6738C15.6277 17.5723 15.8223 17.3777 15.9238 17.1328C15.9999 16.949 16 16.7159 16 16.25V11.25C16 10.7841 15.9999 10.551 15.9238 10.3672C15.8223 10.1223 15.6277 9.92766 15.3828 9.82617C15.199 9.75005 14.9659 9.75 14.5 9.75ZM14 2C14.4142 2 14.75 2.33579 14.75 2.75C14.75 3.16421 14.4142 3.5 14 3.5H10C9.58579 3.5 9.25 3.16421 9.25 2.75C9.25 2.33579 9.58579 2 10 2H14Z" fill="#1C274C"/>
</svg>
