<svg width="24" height="24" viewBox="0 0 24 24" fill="none" xmlns="http://www.w3.org/2000/svg">
<path d="M8.26294 1.41821C8.89812 1.09324 9.53376 1.29349 10.054 1.55884C10.5648 1.81944 11.1811 2.25673 11.9104 2.77466L13.7424 4.07642C14.2826 4.45996 14.7547 4.79455 15.0842 5.10962C15.435 5.4451 15.7502 5.87438 15.7502 6.45923C15.7502 7.04408 15.435 7.47336 15.0842 7.80884C14.7547 8.12391 14.2826 8.4585 13.7424 8.84204L9.29517 12.0002L13.7424 15.1584C14.2827 15.542 14.7547 15.8774 15.0842 16.1926C15.4349 16.5279 15.7501 16.9567 15.7502 17.5413C15.7502 18.1261 15.435 18.5554 15.0842 18.8909C14.7547 19.206 14.2827 19.5414 13.7424 19.925L11.9104 21.2268C11.181 21.7448 10.5648 22.182 10.054 22.4426C9.53376 22.7079 8.89812 22.9072 8.26294 22.5823C7.62637 22.2564 7.41971 21.6238 7.33423 21.0471C7.25047 20.4816 7.2502 19.7279 7.25024 18.8372V13.4407L3.42993 16.1145C3.0907 16.3519 2.6236 16.2699 2.38599 15.9309C2.1485 15.5916 2.23045 15.1235 2.56958 14.886L6.69263 12.0002L2.56958 9.1145C2.23066 8.87685 2.14856 8.40973 2.38599 8.07056C2.62348 7.73132 3.09062 7.64867 3.42993 7.88599L7.25024 10.5598V5.16333C7.2502 4.27274 7.25048 3.51977 7.33423 2.95435C7.41967 2.37748 7.62604 1.74413 8.26294 1.41821ZM8.75024 18.7756C8.75024 19.7445 8.75215 20.3853 8.81763 20.8274C8.84928 21.0409 8.88967 21.1531 8.91919 21.2092C8.93079 21.2312 8.93897 21.2415 8.94067 21.2434C8.94067 21.2434 8.94161 21.2448 8.94653 21.2473C8.95092 21.2495 8.95337 21.2502 8.95337 21.2502C8.9562 21.2506 8.96927 21.252 8.99634 21.2483C9.06106 21.2394 9.17826 21.2057 9.37231 21.1067C9.773 20.9023 10.2984 20.531 11.0911 19.968L12.8293 18.7336C13.4279 18.3086 13.8069 18.0366 14.0471 17.8069C14.1608 17.6981 14.2122 17.6278 14.2346 17.5872C14.2505 17.5583 14.2503 17.5478 14.2502 17.5422V17.5403C14.2503 17.5347 14.2501 17.5245 14.2346 17.4963C14.2122 17.4557 14.1608 17.3853 14.0471 17.2766C13.8068 17.0468 13.4279 16.7749 12.8293 16.3499L8.75024 13.4534V18.7756ZM18.5413 4.40747C18.8416 4.17447 19.2754 4.20245 19.5432 4.48364L19.5588 4.49927C19.5657 4.50677 19.5739 4.51684 19.5842 4.52856C19.6052 4.55229 19.6336 4.58498 19.6672 4.62622C19.7346 4.70862 19.825 4.82636 19.9309 4.98071C20.143 5.29014 20.4168 5.74725 20.6868 6.36157C21.2279 7.59275 21.7502 9.44517 21.7502 12.0002C21.7502 14.5556 21.228 16.4087 20.6868 17.6399C20.4168 18.2542 20.143 18.7104 19.9309 19.0198C19.8248 19.1744 19.7346 19.2928 19.6672 19.3752C19.6337 19.4164 19.6052 19.4482 19.5842 19.4719C19.5739 19.4837 19.5657 19.4938 19.5588 19.5012L19.5491 19.511L19.5461 19.5149L19.5442 19.5168C19.5435 19.5164 19.5254 19.5016 19.0247 19.0247L19.5432 19.5178C19.2575 19.8178 18.7825 19.8288 18.4827 19.5432C18.1843 19.2587 18.1715 18.7866 18.4534 18.4866L18.4602 18.4788C18.4686 18.4692 18.4842 18.4517 18.5051 18.426C18.5472 18.3745 18.6132 18.2897 18.6946 18.1711C18.8573 17.9337 19.0839 17.5591 19.3137 17.0364C19.7725 15.9926 20.2502 14.3447 20.2502 12.0002C20.2502 9.65602 19.7725 8.00884 19.3137 6.96509C19.0838 6.44207 18.8574 6.0668 18.6946 5.82935C18.6131 5.71058 18.5472 5.62597 18.5051 5.57446C18.4841 5.54872 18.4686 5.53115 18.4602 5.52173L18.4553 5.51587L18.4563 5.51685L18.5413 4.40747ZM16.7209 7.30493C17.0734 7.16295 17.4835 7.30805 17.6643 7.65161V7.65259L17.6663 7.65454L17.6692 7.66138L17.717 7.75708C17.748 7.8205 17.7912 7.9114 17.842 8.02563C17.9434 8.25367 18.0768 8.57824 18.2102 8.97192C18.475 9.75313 18.7502 10.839 18.7502 12.0002C18.7502 13.1614 18.475 14.2473 18.2102 15.0286C18.0767 15.4225 17.9434 15.7477 17.842 15.9758C17.7913 16.0898 17.748 16.18 17.717 16.2434C17.7016 16.2751 17.689 16.3008 17.6799 16.3186L17.6692 16.3391L17.6663 16.3459L17.6643 16.3479V16.3499C17.4713 16.7162 17.0171 16.8572 16.6506 16.6643C16.2846 16.4715 16.1442 16.0189 16.3362 15.6526L16.3713 14.886L16.343 15.6389C16.3486 15.6279 16.3576 15.6102 16.3694 15.5862C16.3931 15.5375 16.428 15.463 16.4709 15.3665C16.557 15.1727 16.6738 14.8907 16.7903 14.5471C17.0255 13.8534 17.2502 12.9388 17.2502 12.0002C17.2502 11.0615 17.0255 10.1471 16.7903 9.45337C16.74 9.30513 16.6877 9.16923 16.6399 9.04614L16.7209 7.30493ZM16.5911 8.92212C16.6071 8.96172 16.6232 9.00313 16.6399 9.04614L16.3713 14.886L16.5911 8.92212ZM8.94653 2.75415C8.94164 2.75666 8.94067 2.75708 8.94067 2.75708C8.9397 2.75811 8.93137 2.76821 8.91919 2.79126C8.88964 2.84736 8.84932 2.96012 8.81763 3.17407C8.75215 3.61613 8.75024 4.25611 8.75024 5.22485V10.5481L12.8293 7.65161C13.4278 7.22665 13.8068 6.95462 14.0471 6.72485C14.1608 6.61611 14.2122 6.54476 14.2346 6.50415C14.2503 6.47553 14.2503 6.46572 14.2502 6.46021V6.45825C14.2503 6.45274 14.2503 6.44294 14.2346 6.41431C14.2122 6.37371 14.1608 6.30234 14.0471 6.1936C13.8068 5.96385 13.4278 5.69181 12.8293 5.26685L11.0911 4.03247C10.2986 3.46977 9.77294 3.09916 9.37231 2.89478C9.17826 2.7958 9.06106 2.76209 8.99634 2.75317C8.96904 2.74944 8.95609 2.75083 8.95337 2.75122C8.95337 2.75122 8.95102 2.75185 8.94653 2.75415ZM16.5911 8.92212C16.5468 8.81254 16.5069 8.71588 16.4709 8.63501C16.428 8.53851 16.3931 8.46398 16.3694 8.41528C16.3575 8.39096 16.3486 8.3726 16.343 8.36157L16.3372 8.35083L16.3362 8.34985C16.1435 7.98345 16.2844 7.53012 16.6506 7.33716L16.5911 8.92212Z" fill="#48465C"/>
</svg>
