<svg width="24" height="24" viewBox="0 0 24 24" fill="none" xmlns="http://www.w3.org/2000/svg">
<path fill-rule="evenodd" clip-rule="evenodd" d="M8.26288 1.41832C8.89806 1.09335 9.5337 1.29359 10.0539 1.55894C10.5647 1.81955 11.181 2.25683 11.9103 2.77476L13.7424 4.07652C14.2826 4.46006 14.7547 4.79465 15.0842 5.10972C15.435 5.4452 15.7502 5.87449 15.7502 6.45933C15.7502 7.04418 15.435 7.47346 15.0842 7.80894C14.7547 8.12402 14.2826 8.4586 13.7424 8.84215L9.29511 12.0003L13.7424 15.1586C14.2827 15.5422 14.7547 15.8775 15.0842 16.1927C15.4349 16.528 15.75 16.9568 15.7502 17.5414C15.7502 18.1262 15.4349 18.5555 15.0842 18.891C14.7547 19.2061 14.2827 19.5416 13.7424 19.9252L11.9103 21.2269C11.1809 21.7449 10.5648 22.1821 10.0539 22.4427C9.5337 22.708 8.89806 22.9073 8.26288 22.5824C7.62631 22.2565 7.41965 21.6239 7.33417 21.0472C7.25041 20.4817 7.25014 19.728 7.25019 18.8373V13.4408L3.42987 16.1146C3.09064 16.352 2.62354 16.27 2.38593 15.931C2.14844 15.5917 2.23039 15.1236 2.56952 14.8861L6.69257 12.0003L2.56952 9.11461C2.2306 8.87696 2.1485 8.40983 2.38593 8.07066C2.62342 7.73142 3.09056 7.64877 3.42987 7.88609L7.25019 10.5599V5.16343C7.25014 4.27285 7.25042 3.51987 7.33417 2.95445C7.41962 2.37759 7.62598 1.74423 8.26288 1.41832ZM8.75019 18.7757C8.75019 19.7446 8.75209 20.3854 8.81757 20.8275C8.84922 21.041 8.88961 21.1532 8.91913 21.2093C8.93073 21.2313 8.93891 21.2416 8.94061 21.2435C8.94061 21.2435 8.94155 21.2449 8.94647 21.2474C8.95086 21.2496 8.95331 21.2503 8.95331 21.2503C8.95614 21.2507 8.96921 21.2522 8.99628 21.2484C9.061 21.2395 9.17821 21.2058 9.37226 21.1068C9.77294 20.9024 10.2983 20.5311 11.091 19.9681L12.8293 18.7337C13.4278 18.3087 13.8068 18.0367 14.0471 17.807C14.1608 17.6982 14.2122 17.6279 14.2346 17.5873C14.2504 17.5584 14.2503 17.5479 14.2502 17.5423V17.5404C14.2503 17.5348 14.25 17.5246 14.2346 17.4964C14.2122 17.4558 14.1608 17.3854 14.0471 17.2767C13.8068 17.0469 13.4278 16.775 12.8293 16.35L8.75019 13.4535V18.7757ZM18.5412 4.40758C18.8415 4.17458 19.2753 4.20256 19.5432 4.48375L19.5588 4.49937C19.5656 4.50687 19.5738 4.51695 19.5842 4.52867C19.6052 4.5524 19.6336 4.58509 19.6672 4.62633C19.7345 4.70873 19.825 4.82647 19.9308 4.98082C20.1429 5.29025 20.4167 5.74736 20.6867 6.36168C21.2278 7.59285 21.7501 9.44527 21.7502 12.0003C21.7502 14.5557 21.2279 16.4088 20.6867 17.64C20.4167 18.2543 20.1429 18.7105 19.9308 19.0199C19.8248 19.1746 19.7346 19.2929 19.6672 19.3753C19.6336 19.4165 19.6052 19.4483 19.5842 19.472C19.5738 19.4838 19.5656 19.4939 19.5588 19.5013L19.549 19.5111L19.5461 19.515L19.5441 19.517C19.5435 19.5165 19.5254 19.5017 19.0246 19.0248L19.5432 19.5179C19.2574 19.8179 18.7825 19.8289 18.4826 19.5433C18.1842 19.2588 18.1714 18.7867 18.4533 18.4867L18.4601 18.4789C18.4686 18.4694 18.4841 18.4518 18.5051 18.4261C18.5472 18.3746 18.6132 18.2898 18.6945 18.1712C18.8573 17.9338 19.0838 17.5592 19.3137 17.0365C19.7725 15.9927 20.2502 14.3448 20.2502 12.0003C20.2501 9.65613 19.7724 8.00895 19.3137 6.96519C19.0837 6.44218 18.8573 6.0669 18.6945 5.82945C18.613 5.71068 18.5472 5.62608 18.5051 5.57457C18.4841 5.54883 18.4685 5.53125 18.4601 5.52183L18.4553 5.51597L18.4562 5.51695L18.5412 4.40758ZM16.7209 7.30504C17.0734 7.16306 17.4834 7.30816 17.6642 7.65172V7.65269L17.6662 7.65465L17.6691 7.66148L17.717 7.75718C17.748 7.8206 17.7912 7.91151 17.842 8.02574C17.9433 8.25378 18.0767 8.57834 18.2101 8.97203C18.4749 9.75324 18.7501 10.8392 18.7502 12.0003C18.7502 13.1615 18.4749 14.2474 18.2101 15.0287C18.0766 15.4226 17.9434 15.7478 17.842 15.9759C17.7913 16.0899 17.748 16.1801 17.717 16.2435C17.7016 16.2752 17.689 16.3009 17.6799 16.3187L17.6691 16.3392L17.6662 16.3461L17.6642 16.348V16.35C17.4712 16.7163 17.017 16.8573 16.6506 16.6644C16.2845 16.4716 16.1441 16.019 16.3361 15.6527L16.3713 14.8861L16.343 15.639C16.3486 15.628 16.3576 15.6103 16.3693 15.5863C16.393 15.5376 16.4279 15.4631 16.4709 15.3666C16.557 15.1728 16.6737 14.8908 16.7902 14.5472C17.0254 13.8536 17.2502 12.9389 17.2502 12.0003C17.2501 11.0616 17.0254 10.1472 16.7902 9.45347C16.74 9.30524 16.6876 9.16934 16.6398 9.04625L16.7209 7.30504ZM16.591 8.92222C16.607 8.96182 16.6231 9.00324 16.6398 9.04625L16.3713 14.8861L16.591 8.92222ZM8.94647 2.75426C8.94158 2.75676 8.94061 2.75719 8.94061 2.75719C8.93964 2.75822 8.93131 2.76831 8.91913 2.79136C8.88958 2.84746 8.84926 2.96022 8.81757 3.17418C8.75209 3.61624 8.75019 4.25621 8.75019 5.22496V10.5482L12.8293 7.65172C13.4278 7.22675 13.8067 6.95472 14.0471 6.72496C14.1608 6.61622 14.2122 6.54487 14.2346 6.50426C14.2502 6.47564 14.2503 6.46582 14.2502 6.46031V6.45836C14.2503 6.45285 14.2502 6.44304 14.2346 6.41441C14.2122 6.37381 14.1608 6.30245 14.0471 6.19371C13.8067 5.96395 13.4278 5.69191 12.8293 5.26695L11.091 4.03258C10.2985 3.46987 9.77288 3.09927 9.37226 2.89488C9.17821 2.7959 9.061 2.7622 8.99628 2.75328C8.96898 2.74954 8.95603 2.75094 8.95331 2.75133C8.95331 2.75133 8.95096 2.75196 8.94647 2.75426ZM16.591 8.92222C16.5468 8.81264 16.5068 8.71598 16.4709 8.63511C16.428 8.53861 16.393 8.46408 16.3693 8.41539C16.3574 8.39107 16.3486 8.37271 16.343 8.36168L16.3371 8.35093L16.3361 8.34996C16.1435 7.98356 16.2843 7.53022 16.6506 7.33726L16.591 8.92222Z" fill="#1C274C"/>
</svg>
