<svg width="24" height="24" viewBox="0 0 24 24" fill="none" xmlns="http://www.w3.org/2000/svg">
<path d="M22 1.25C22.4142 1.25 22.75 1.58579 22.75 2C22.75 2.41421 22.4142 2.75 22 2.75H20V10.5C20 13.5638 20 15.0959 18.9961 16.0479C17.9919 16.9998 16.375 17 13.1426 17H12.75V20.5361L14.335 21.3291C14.7053 21.5142 14.8559 21.9645 14.6709 22.335C14.4858 22.7053 14.0355 22.8559 13.665 22.6709L12 21.8389L10.335 22.6709C9.96457 22.8559 9.51428 22.7053 9.3291 22.335C9.14416 21.9645 9.29469 21.5142 9.66504 21.3291L11.25 20.5361V17H10.8574C7.62497 17 6.00811 16.9998 5.00391 16.0479C3.99998 15.0959 4 13.5638 4 10.5V2.75H2C1.58579 2.75 1.25 2.41421 1.25 2C1.25 1.58579 1.58579 1.25 2 1.25H22ZM15.5303 7.96973C15.2374 7.67684 14.7626 7.67684 14.4697 7.96973L13.1768 9.2627C13.1067 9.33267 13.0499 9.38922 13 9.4375C12.9501 9.38922 12.8933 9.33267 12.8232 9.2627L12.2129 8.65234C12.068 8.50729 11.9108 8.35088 11.7607 8.23633C11.5847 8.10211 11.3335 7.95703 11 7.95703C10.6665 7.95703 10.4153 8.10211 10.2393 8.23633C10.0892 8.35087 9.93206 8.50729 9.78711 8.65234L8.46973 9.96973C8.17684 10.2627 8.17684 10.7374 8.46973 11.0303C8.76261 11.3232 9.23739 11.3232 9.53027 11.0303L10.8232 9.7373C10.8933 9.66733 10.9501 9.61078 11 9.5625C11.0499 9.61078 11.1067 9.66733 11.1768 9.7373L11.7871 10.3477C11.9321 10.4927 12.0892 10.6501 12.2393 10.7646C12.4152 10.8987 12.6668 11.043 13 11.043C13.3332 11.043 13.5848 10.8987 13.7607 10.7646C13.9108 10.6501 14.0679 10.4927 14.2129 10.3477L15.5303 9.03027C15.8232 8.73739 15.8232 8.26261 15.5303 7.96973Z" fill="#48465C"/>
</svg>
