<svg width="24" height="24" viewBox="0 0 24 24" fill="none" xmlns="http://www.w3.org/2000/svg">
<path d="M6.9502 2C7.33657 2 7.53008 2.0002 7.71582 2.01758C8.51677 2.09253 9.27617 2.40752 9.89551 2.9209C10.0392 3.04 10.1758 3.17679 10.4492 3.4502L11 4C11.8156 4.81563 12.2236 5.22336 12.7119 5.49512C12.9802 5.6444 13.2652 5.7625 13.5605 5.84668C14.098 5.99986 14.6747 6 15.8281 6H16.2021C18.8344 6 20.1503 6.00021 21.0059 6.76953C21.0846 6.84031 21.1598 6.91545 21.2305 6.99414C21.9998 7.84966 22 9.16568 22 11.7979V14C22 17.7712 21.9997 19.6566 20.8281 20.8281C19.6566 21.9997 17.7712 22 14 22H10C6.22878 22 4.34346 21.9997 3.17188 20.8281C2.00031 19.6566 2 17.7712 2 14V6.9502C2 6.06798 2.00006 5.62627 2.06934 5.25879C2.37463 3.64071 3.64071 2.37463 5.25879 2.06934C5.62627 2.00006 6.06798 2 6.9502 2ZM16.2832 3C16.6487 3 16.8319 2.99961 16.9854 3.02051C18.0041 3.15942 18.8144 3.96313 19 5C18.8522 4.96583 18.6985 4.93971 18.5391 4.91895C17.8997 4.83568 17.0913 4.83494 16.0889 4.83496H15.7549C14.8134 4.83496 14.4563 4.82941 14.1309 4.7334C13.942 4.67762 13.7595 4.59988 13.5879 4.50098C13.2921 4.33053 13.0361 4.07268 12.3701 3.38281L12 3H16.2832Z" fill="#1C274C"/>
</svg>
