<svg width="24" height="24" viewBox="0 0 24 24" fill="none" xmlns="http://www.w3.org/2000/svg">
<path fill-rule="evenodd" clip-rule="evenodd" d="M14.4414 2.67503C16.3419 0.774593 19.4235 0.774738 21.3242 2.67503C23.2249 4.57571 23.2249 7.65814 21.3242 9.55882L20.3994 10.4836L20.9609 11.0451C21.8565 11.9409 21.8566 13.3935 20.9609 14.2893C20.0652 15.185 18.6126 15.1849 17.7168 14.2893L17.1553 13.7278L10.9951 19.8879C10.6047 20.2788 10.2997 20.5838 9.92482 20.7824C9.6765 20.914 9.40988 21.0074 9.1338 21.0598C8.71716 21.1388 8.28904 21.0919 7.74025 21.0305C7.70932 21.027 7.67724 21.0233 7.64552 21.0198L7.17091 20.967C6.98371 20.9462 6.93095 20.941 6.88478 20.9397C6.56172 20.9303 6.2464 21.041 6.00001 21.2502C5.96491 21.2801 5.9276 21.3169 5.79493 21.4494L5.16603 22.0783C4.27027 22.9741 2.81769 22.9741 1.92189 22.0783C1.0261 21.1826 1.02614 19.73 1.92189 18.8342L2.55079 18.2053C2.68387 18.0722 2.72013 18.0344 2.75001 17.9992C2.95918 17.7528 3.06998 17.4376 3.06056 17.1145C3.0592 17.0683 3.05398 17.0162 3.03321 16.8293L2.98048 16.3537C2.97697 16.3222 2.97318 16.2908 2.96974 16.26C2.90836 15.7111 2.86045 15.2832 2.93946 14.8664C2.99187 14.5901 3.08608 14.323 3.21779 14.0744C3.41642 13.6998 3.72056 13.3953 4.11134 13.0051C4.13337 12.9831 4.15616 12.9613 4.17872 12.9387L10.2725 6.84495L9.71095 6.28343C8.81514 5.38762 8.81514 3.93509 9.71095 3.03928C10.6068 2.14351 12.0593 2.14349 12.9551 3.03928L13.5166 3.60081L14.4414 2.67503ZM5.23927 13.9992C4.75088 14.4876 4.62263 14.6265 4.54298 14.7766C4.48164 14.8923 4.43751 15.0171 4.4131 15.1457C4.38141 15.3128 4.39535 15.5016 4.47169 16.1887L4.52736 16.6897C4.54404 16.8395 4.55622 16.9564 4.55958 17.0715C4.57968 17.7651 4.34264 18.4419 3.89357 18.9709C3.81917 19.0585 3.73631 19.1409 3.62989 19.2473L2.98243 19.8948C2.67245 20.2048 2.67242 20.7078 2.98243 21.0178C3.29245 21.3277 3.7955 21.3277 4.10548 21.0178L4.75197 20.3703C4.85851 20.2637 4.9416 20.1811 5.02931 20.1067C5.55832 19.6575 6.23507 19.4195 6.92872 19.4397C7.04389 19.4431 7.16054 19.4562 7.31056 19.4729L7.81154 19.5285C8.49811 19.6048 8.68652 19.6177 8.85353 19.5862C8.98219 19.5617 9.10695 19.5186 9.22267 19.4573C9.37294 19.3777 9.51221 19.2498 10.001 18.761L11.4395 17.3225L10.1162 15.9992C9.82338 15.7064 9.82345 15.2316 10.1162 14.9387C10.4091 14.6458 10.8839 14.6458 11.1768 14.9387L12.5 16.2619L13.4395 15.3225L12.1162 13.9992C11.8234 13.7064 11.8234 13.2316 12.1162 12.9387C12.4091 12.6458 12.8839 12.6458 13.1768 12.9387L14.5 14.2619L16.0947 12.6672L11.333 7.9055L5.23927 13.9992ZM20.2637 3.73655C18.9489 2.42167 16.8169 2.42167 15.502 3.73655L14.0469 5.19163C13.9064 5.33221 13.7154 5.41127 13.5166 5.41136C13.3178 5.41136 13.1269 5.33219 12.9863 5.19163L11.8945 4.09983C11.5846 3.78981 11.0815 3.78984 10.7715 4.09983C10.4615 4.40985 10.4615 4.91286 10.7715 5.22288L18.7774 13.2287C19.0873 13.5383 19.5895 13.5382 19.8994 13.2287C20.2095 12.9187 20.2095 12.4157 19.8994 12.1057L18.8086 11.0139C18.5157 10.721 18.5157 10.2462 18.8086 9.95335L20.2637 8.49729C21.5784 7.18245 21.5784 5.0514 20.2637 3.73655Z" fill="#1C274C"/>
</svg>
