<svg width="24" height="24" viewBox="0 0 24 24" fill="none" xmlns="http://www.w3.org/2000/svg">
<path d="M12 2C16.714 2 19.0708 2.00037 20.5352 3.46484C21.9996 4.9293 22 7.28597 22 12C22 16.714 21.9997 19.0708 20.5352 20.5352C19.0708 21.9997 16.714 22 12 22C7.28597 22 4.9293 21.9996 3.46484 20.5352C2.00037 19.0708 2 16.714 2 12C2 7.28595 2.00037 4.9293 3.46484 3.46484C4.9293 2.00037 7.28595 2 12 2ZM16.3789 5.35254C16.0215 5.14341 15.5619 5.26376 15.3525 5.62109L12 11.3457L8.64746 5.62109C8.43815 5.2637 7.97851 5.14328 7.62109 5.35254C7.26367 5.56187 7.14419 6.02148 7.35352 6.37891L11.1309 12.8301L10.0195 14.7275C9.53908 14.0702 8.7478 13.6504 7.875 13.6504C6.4544 13.6504 5.25 14.7633 5.25 16.2002C5.25005 17.637 6.45443 18.75 7.875 18.75C8.8673 18.75 9.7537 18.2068 10.1982 17.3896L12 14.3135L13.8018 17.3896C14.2463 18.2068 15.1328 18.7499 16.125 18.75C17.5456 18.75 18.7499 17.637 18.75 16.2002C18.75 14.7633 17.5456 13.6504 16.125 13.6504C15.2523 13.6505 14.4608 14.0702 13.9805 14.7275L12.8691 12.8301L16.6475 6.37891C16.8565 6.02152 16.7363 5.56181 16.3789 5.35254Z" fill="#1C274C"/>
</svg>
