<svg width="24" height="24" viewBox="0 0 24 24" fill="none" xmlns="http://www.w3.org/2000/svg">
<path d="M8.81519 1.51514C10.9227 1.16142 13.0767 1.16144 15.1843 1.51514L15.5818 1.58252C18.2047 2.02274 20.0378 4.40898 19.7126 7.02979L19.6951 7.17529C19.5819 8.08661 18.7971 8.75049 17.8923 8.75049H15.9275L17.5984 16.5483C17.6933 16.6739 17.7498 16.8309 17.7498 17.0005C17.7497 17.0578 17.7433 17.1139 17.7312 17.1675L18.7332 21.8433C18.8198 22.2482 18.562 22.6471 18.157 22.7339C17.7522 22.8205 17.3533 22.5625 17.2664 22.1577L16.322 17.7505H7.67749L6.73315 22.1577C6.64616 22.5625 6.24739 22.8206 5.84253 22.7339C5.43771 22.647 5.17974 22.2481 5.26636 21.8433L6.26831 17.1675C6.25613 17.1139 6.24978 17.0578 6.24976 17.0005C6.24976 16.8309 6.30622 16.6739 6.40112 16.5483L8.07202 8.75049H6.10718C5.20235 8.75049 4.41856 8.08659 4.30542 7.17529L4.28687 7.02979C3.96173 4.40909 5.79492 2.02283 8.41772 1.58252L8.81519 1.51514ZM7.99878 16.2505H16.0007L14.3933 8.75049H9.6062L7.99878 16.2505ZM14.9363 2.99463C12.9931 2.66851 11.0073 2.66856 9.06421 2.99463L8.66577 3.06104C6.80866 3.37289 5.55309 5.04834 5.77612 6.84521L5.7937 6.99072C5.81066 7.12647 5.93467 7.25049 6.10718 7.25049H17.8923C18.0648 7.25049 18.1888 7.12644 18.2058 6.99072L18.2244 6.84521C18.4474 5.04827 17.191 3.37275 15.3337 3.06104L14.9363 2.99463Z" fill="#1C274C"/>
</svg>
