<svg width="24" height="24" viewBox="0 0 24 24" fill="none" xmlns="http://www.w3.org/2000/svg">
<path d="M11.4697 19.4697C11.7626 19.1768 12.2374 19.1768 12.5303 19.4697C12.8232 19.7626 12.8232 20.2374 12.5303 20.5303L10.5303 22.5303C10.2374 22.8232 9.76262 22.8231 9.46973 22.5303C9.17684 22.2374 9.17684 21.7626 9.46973 21.4697L11.4697 19.4697ZM6.96973 18.4697C7.26262 18.1768 7.73738 18.1768 8.03027 18.4697C8.32316 18.7626 8.32316 19.2374 8.03027 19.5303L6.03027 21.5303C5.73739 21.8231 5.26261 21.8231 4.96973 21.5303C4.67684 21.2374 4.67684 20.7626 4.96973 20.4697L6.96973 18.4697ZM16.4697 18.4697C16.7626 18.1768 17.2374 18.1768 17.5303 18.4697C17.8232 18.7626 17.8232 19.2374 17.5303 19.5303L15.5303 21.5303C15.2374 21.8232 14.7626 21.8232 14.4697 21.5303C14.1768 21.2374 14.1768 20.7626 14.4697 20.4697L16.4697 18.4697ZM12.4766 3C15.416 3.00018 17.8371 5.19364 18.1553 8.01465C20.393 8.77989 21.9998 10.8809 22 13.3525C22 15.4505 20.8425 17.2822 19.124 18.2559C19.0158 17.9468 18.8378 17.6563 18.5908 17.4092C18.3512 17.1696 18.0712 16.9946 17.7725 16.8857C18.4645 16.0029 18.404 14.7224 17.5908 13.9092C16.7121 13.0305 15.2879 13.0305 14.4092 13.9092L13.6074 14.7109C13.4981 14.4186 13.3258 14.1443 13.0908 13.9092C12.2121 13.0305 10.7879 13.0305 9.90918 13.9092L7.90918 15.9092C7.66276 16.1556 7.48515 16.4448 7.37695 16.7529C6.8428 16.782 6.31721 17.0012 5.90918 17.4092L4.64062 18.6768C3.09013 18.0394 2 16.5278 2 14.7646C2.00003 12.4256 3.91922 10.5293 6.28613 10.5293C6.57011 10.5293 6.84768 10.5572 7.11621 10.6094C6.88716 9.99839 6.76177 9.33713 6.76172 8.64746C6.76172 5.52867 9.32064 3 12.4766 3ZM11.6436 14.7637C11.7853 14.7912 11.9205 14.86 12.0303 14.9697C12.3232 15.2626 12.3232 15.7374 12.0303 16.0303L10.0303 18.0303C10.0033 18.0572 9.97406 18.0806 9.94434 18.1025C9.93982 18.1059 9.93524 18.1091 9.93066 18.1123C9.91562 18.1229 9.89941 18.1313 9.88379 18.1406C9.85826 18.1559 9.83247 18.1696 9.80566 18.1816C9.78972 18.1888 9.77412 18.1962 9.75781 18.2021C9.7312 18.2119 9.70411 18.219 9.67676 18.2256C9.66042 18.2295 9.64445 18.2345 9.62793 18.2373C9.62471 18.2379 9.62139 18.2397 9.61816 18.2402C9.5829 18.2458 9.54734 18.2475 9.51172 18.248C9.50226 18.2482 9.49286 18.2483 9.4834 18.248C9.44375 18.2472 9.40437 18.2435 9.36523 18.2363C9.35775 18.235 9.35022 18.234 9.34277 18.2324C9.30427 18.2242 9.26657 18.2126 9.22949 18.1982C9.22307 18.1958 9.21633 18.1941 9.20996 18.1914C9.17049 18.1749 9.13244 18.1545 9.0957 18.1309C9.0808 18.1213 9.0661 18.1113 9.05176 18.1006C9.04619 18.0964 9.04063 18.0922 9.03516 18.0879C9.01262 18.07 8.99055 18.0511 8.96973 18.0303C8.92941 17.99 8.89543 17.9457 8.86621 17.8994C8.84417 17.8645 8.8253 17.8284 8.80957 17.791C8.80548 17.7813 8.80152 17.7716 8.79785 17.7617C8.79242 17.7471 8.78672 17.7326 8.78223 17.7178C8.77856 17.7057 8.77745 17.6929 8.77441 17.6807C8.76862 17.6573 8.76328 17.6341 8.75977 17.6104C8.7564 17.5876 8.75519 17.5649 8.75391 17.542C8.75261 17.5188 8.75111 17.4958 8.75195 17.4727C8.75295 17.4451 8.75672 17.418 8.76074 17.3906C8.76357 17.3714 8.7652 17.352 8.76953 17.333C8.77481 17.3098 8.78254 17.2873 8.79004 17.2646C8.79753 17.242 8.80475 17.2193 8.81445 17.1973C8.81712 17.1912 8.81943 17.1847 8.82227 17.1787C8.83365 17.1547 8.84823 17.1323 8.8623 17.1094C8.86891 17.0986 8.87366 17.0867 8.88086 17.0762C8.88468 17.0706 8.88859 17.0651 8.89258 17.0596C8.91547 17.0281 8.94133 16.9981 8.96973 16.9697L10.9697 14.9697C11.0795 14.86 11.2147 14.7912 11.3564 14.7637C11.4512 14.7453 11.5488 14.7453 11.6436 14.7637ZM15.5869 14.874C15.7535 14.7639 15.9542 14.7269 16.1436 14.7637C16.2853 14.7912 16.4205 14.86 16.5303 14.9697C16.8232 15.2626 16.8232 15.7374 16.5303 16.0303L14.5303 18.0303C14.4205 18.14 14.2853 18.2088 14.1436 18.2363C13.9542 18.2731 13.7534 18.2361 13.5869 18.126C13.5455 18.0986 13.5062 18.0667 13.4697 18.0303C13.1768 17.7374 13.1768 17.2626 13.4697 16.9697L15.4697 14.9697C15.5062 14.9333 15.5455 14.9014 15.5869 14.874Z" fill="#48465C"/>
</svg>
