<svg width="24" height="24" viewBox="0 0 24 24" fill="none" xmlns="http://www.w3.org/2000/svg">
<path d="M12 4.43652C14.2743 2.30931 16.8462 1.77041 18.9756 2.65625C21.2578 3.6057 22.7499 6.07876 22.75 9.25977C22.75 11.3856 21.6208 13.479 20.2139 15.2822C18.7928 17.1034 17.005 18.7342 15.5127 19.9512L15.3779 20.0615C14.1781 21.0414 13.3105 21.75 12 21.75C10.6895 21.75 9.82192 21.0413 8.62207 20.0615L8.4873 19.9512C6.99498 18.7342 5.20714 17.1034 3.78613 15.2822C2.37919 13.4791 1.25 11.3856 1.25 9.25977C1.2501 6.07884 2.7422 3.60572 5.02441 2.65625C7.15379 1.77041 9.72571 2.30933 12 4.43652ZM18.3994 4.04102C16.827 3.387 14.6469 3.75496 12.5488 6.00977C12.407 6.16201 12.2081 6.24805 12 6.24805C11.7919 6.24805 11.593 6.16201 11.4512 6.00977C9.35312 3.75489 7.17291 3.38785 5.60059 4.04199C4.008 4.70466 2.7501 6.53019 2.75 9.25977C2.75 10.8814 3.63041 12.6441 4.96875 14.3594C6.29283 16.0563 7.98571 17.6068 9.43555 18.7891C10.8285 19.9251 11.2785 20.25 12 20.25C12.7216 20.25 13.1715 19.9251 14.5645 18.7891C16.0143 17.6068 17.7072 16.0564 19.0312 14.3594C20.3695 12.6442 21.25 10.8815 21.25 9.25977C21.2499 6.52997 19.9921 4.70359 18.3994 4.04102ZM10.416 8.69629C10.8835 8.72154 11.1755 9.0175 11.3457 9.24121C11.5014 9.44599 11.6555 9.72557 11.8096 10.0059L13.5186 13.1133C13.5999 13.261 13.6677 13.3845 13.7285 13.4902C13.7931 13.387 13.8655 13.2665 13.9521 13.1221L14 13.043C14.1992 12.711 14.3753 12.4173 14.5469 12.1855C14.7328 11.9345 14.9455 11.709 15.2402 11.542C15.5351 11.375 15.8383 11.3077 16.1494 11.2773C16.4364 11.2494 16.779 11.2499 17.166 11.25H18C18.4142 11.25 18.75 11.5857 18.75 12C18.7498 12.414 18.4141 12.75 18 12.75H17.1982C16.7693 12.75 16.5007 12.7505 16.2949 12.7705C16.1053 12.7889 16.0283 12.819 15.9795 12.8467C15.9306 12.8744 15.8652 12.9251 15.752 13.0781C15.629 13.2443 15.4901 13.4742 15.2695 13.8418L15.2139 13.9346C15.0366 14.23 14.8628 14.5199 14.6914 14.7285C14.5079 14.9518 14.1883 15.2554 13.6953 15.2461C13.2023 15.2368 12.8947 14.9215 12.7197 14.6914C12.5562 14.4764 12.3935 14.18 12.2275 13.8779L10.5166 10.7686C10.4415 10.6319 10.3792 10.5184 10.3232 10.4209C10.2571 10.5119 10.1822 10.6183 10.0928 10.7461L9.79297 11.1748C9.58835 11.4671 9.40707 11.7264 9.23438 11.9307C9.04699 12.1524 8.83667 12.3498 8.55762 12.4951C8.27867 12.6402 7.99696 12.6992 7.70801 12.7256C7.44164 12.7499 7.12533 12.75 6.76855 12.75H6C5.58593 12.75 5.25022 12.414 5.25 12C5.25 11.5857 5.58579 11.25 6 11.25H6.73828C7.13403 11.25 7.38122 11.2487 7.57129 11.2314C7.74606 11.2155 7.81867 11.1892 7.86523 11.165C7.91178 11.1407 7.97539 11.0961 8.08887 10.9619C8.21201 10.8161 8.35426 10.614 8.58105 10.29L8.89062 9.84766C9.07398 9.58557 9.25674 9.3245 9.43359 9.1377C9.62679 8.93366 9.94869 8.67121 10.416 8.69629Z" fill="#1C274C"/>
</svg>
