<svg width="24" height="24" viewBox="0 0 24 24" fill="none" xmlns="http://www.w3.org/2000/svg">
<path d="M17 3.25C17.236 3.25 17.458 3.36114 17.5996 3.5498L20.5996 7.5498C20.848 7.88107 20.7813 8.35102 20.4502 8.59961C20.1189 8.84806 19.649 8.78129 19.4004 8.4502L17.75 6.25V17.75L19.4004 15.5498C19.649 15.2187 20.1189 15.152 20.4502 15.4004C20.7813 15.649 20.848 16.1189 20.5996 16.4502L17.5996 20.4502C17.458 20.6389 17.236 20.75 17 20.75C16.764 20.75 16.542 20.6389 16.4004 20.4502L13.4004 16.4502C13.152 16.1189 13.2187 15.649 13.5498 15.4004C13.8811 15.152 14.351 15.2187 14.5996 15.5498L16.25 17.75V6.25L14.5996 8.4502C14.351 8.78129 13.8811 8.84806 13.5498 8.59961C13.2187 8.35102 13.152 7.88107 13.4004 7.5498L16.4004 3.5498C16.542 3.36114 16.764 3.25 17 3.25ZM11 16.25C11.4142 16.25 11.75 16.5858 11.75 17C11.75 17.4142 11.4142 17.75 11 17.75H4C3.58579 17.75 3.25 17.4142 3.25 17C3.25 16.5858 3.58579 16.25 4 16.25H11ZM11 11.25C11.4142 11.25 11.75 11.5858 11.75 12C11.75 12.4142 11.4142 12.75 11 12.75H4C3.58579 12.75 3.25 12.4142 3.25 12C3.25 11.5858 3.58579 11.25 4 11.25H11ZM11 6.25C11.4142 6.25 11.75 6.58579 11.75 7C11.75 7.41421 11.4142 7.75 11 7.75H4C3.58579 7.75 3.25 7.41421 3.25 7C3.25 6.58579 3.58579 6.25 4 6.25H11Z" fill="#1C274C"/>
</svg>
