<svg width="24" height="24" viewBox="0 0 24 24" fill="none" xmlns="http://www.w3.org/2000/svg">
<path d="M12.0576 1.25C14.3657 1.24999 16.1745 1.24974 17.5859 1.43945C19.0306 1.63369 20.1706 2.03977 21.0654 2.93457C21.9602 3.82938 22.3662 4.96932 22.5605 6.41406C22.7502 7.82544 22.75 9.63432 22.75 11.9424V12.0576C22.75 14.3657 22.7502 16.1745 22.5605 17.5859C22.3662 19.0306 21.9602 20.1706 21.0654 21.0654C20.1706 21.9602 19.0306 22.3662 17.5859 22.5605C16.1745 22.7502 14.3657 22.75 12.0576 22.75H11.9424C9.63432 22.75 7.82544 22.7502 6.41406 22.5605C4.96932 22.3662 3.82938 21.9602 2.93457 21.0654C2.03977 20.1706 1.63369 19.0306 1.43945 17.5859C1.24974 16.1745 1.24999 14.3657 1.25 12.0576V11.9424C1.24999 9.63433 1.24974 7.82544 1.43945 6.41406C1.63369 4.96932 2.03976 3.82938 2.93457 2.93457C3.82938 2.03976 4.96932 1.63369 6.41406 1.43945C7.82544 1.24974 9.63433 1.24999 11.9424 1.25H12.0576ZM12 2.75C9.62178 2.75 7.91326 2.75198 6.61328 2.92676C5.33508 3.09865 4.56472 3.42551 3.99512 3.99512C3.42551 4.56472 3.09865 5.33508 2.92676 6.61328C2.75198 7.91326 2.75 9.62178 2.75 12C2.75 14.3782 2.75198 16.0867 2.92676 17.3867C3.09865 18.6649 3.42551 19.4352 3.99512 20.0049C4.56472 20.5745 5.33508 20.9014 6.61328 21.0732C7.91326 21.248 9.62178 21.25 12 21.25C14.3782 21.25 16.0867 21.248 17.3867 21.0732C18.6649 20.9014 19.4352 20.5745 20.0049 20.0049C20.5745 19.4352 20.9014 18.6649 21.0732 17.3867C21.248 16.0867 21.25 14.3782 21.25 12C21.25 9.62178 21.248 7.91326 21.0732 6.61328C20.9014 5.33508 20.5745 4.56472 20.0049 3.99512C19.4352 3.42551 18.6649 3.09865 17.3867 2.92676C16.0867 2.75198 14.3782 2.75 12 2.75ZM12.4863 6.29688C13.073 5.95136 13.8334 5.95303 14.46 6.43848C16.0185 7.64666 17.75 9.73613 17.75 12.667C17.7499 15.0444 16.7426 16.6029 15.4385 17.542C14.1726 18.4534 12.6759 18.7499 11.667 18.75C10.747 18.75 9.40245 18.4416 8.27344 17.5127C7.11377 16.5584 6.25007 15.005 6.25 12.667C6.25 10.4871 7.5077 9.10123 8.54102 8.41504C8.9227 8.16159 9.40665 8.08209 9.84277 8.25195C10.3055 8.43235 10.6188 8.86015 10.6475 9.39063C10.6572 9.57019 10.6992 9.73648 10.7578 9.87012C10.7857 9.93382 10.8145 9.98413 10.8408 10.0225C11.3116 9.37004 11.5439 8.47889 11.5439 8C11.5439 7.26882 11.9176 6.63186 12.4863 6.29688ZM13.3789 7.55371C13.3407 7.55168 13.2953 7.56149 13.2471 7.58984C13.1496 7.64753 13.0439 7.78476 13.0439 8C13.0439 8.79882 12.7062 10.0269 12.0225 10.9482C11.784 11.2694 11.4519 11.5308 11.0264 11.5908C10.598 11.6513 10.228 11.4859 9.96484 11.2695C9.54482 10.924 9.28069 10.3691 9.18555 9.7959C8.48288 10.326 7.75 11.26 7.75 12.667C7.75007 14.5952 8.44187 15.7088 9.22656 16.3545C10.042 17.0254 11.0314 17.25 11.667 17.25C12.4358 17.2499 13.6053 17.0126 14.5615 16.3242C15.4795 15.6632 16.2499 14.5557 16.25 12.667C16.25 10.3761 14.8995 8.67713 13.541 7.62402C13.469 7.56827 13.414 7.55562 13.3789 7.55371Z" fill="#1C274C"/>
</svg>
