<svg width="24" height="24" viewBox="0 0 24 24" fill="none" xmlns="http://www.w3.org/2000/svg">
<path d="M16.7617 1.25C17.4445 1.25005 18.0099 1.53952 18.5498 1.95801C19.0638 2.35646 19.6357 2.93799 20.3271 3.64062L20.4014 3.71582C21.0934 4.41889 21.6656 5.00049 22.0576 5.52246C22.4697 6.07134 22.75 6.64048 22.75 7.32324C22.7499 8.00577 22.4695 8.57431 22.0576 9.12305C21.6656 9.64502 21.0934 10.2267 20.4014 10.9297L19.0479 12.3047C19.1667 12.6446 19.2324 12.998 19.2324 13.375C19.2324 14.2789 18.8579 15.0457 18.2646 15.8232C17.6916 16.5743 16.8485 17.4181 15.7969 18.4697L14.9512 19.3145C13.8996 20.3661 13.0566 21.2092 12.3057 21.7822C11.528 22.3756 10.7614 22.75 9.85742 22.75C8.95346 22.75 8.18684 22.3756 7.40918 21.7822C6.65817 21.2092 5.8152 20.366 4.76367 19.3145L4.68555 19.2363C3.63396 18.1847 2.79083 17.3419 2.21777 16.5908C1.62443 15.8131 1.25 15.0465 1.25 14.1426C1.25001 13.2386 1.62444 12.472 2.21777 11.6943C2.79083 10.9434 3.63394 10.1004 4.68555 9.04883L5.53027 8.20312C6.58191 7.15145 7.42569 6.3084 8.17676 5.73535C8.95436 5.1421 9.72108 4.76758 10.625 4.76758C11.0591 4.76763 11.4614 4.85434 11.8486 5.00977L13.1953 3.64062C13.8869 2.93787 14.4587 2.35652 14.9727 1.95801C15.5127 1.53935 16.0787 1.25 16.7617 1.25ZM10.625 6.26758C10.1808 6.26758 9.73018 6.43618 9.08594 6.92773C8.42441 7.43249 7.65156 8.20292 6.55176 9.30273L5.78516 10.0703C4.68529 11.1702 3.91489 11.943 3.41016 12.6045C2.91866 13.2487 2.75001 13.6984 2.75 14.1426C2.75 14.5867 2.91863 15.0365 3.41016 15.6807C3.9149 16.3423 4.68528 17.1149 5.78516 18.2148C6.88505 19.3147 7.65779 20.085 8.31934 20.5898C8.96355 21.0813 9.41329 21.25 9.85742 21.25C10.3016 21.25 10.7513 21.0813 11.3955 20.5898C12.057 20.0851 12.8298 19.3147 13.9297 18.2148L14.6973 17.4482C15.7971 16.3484 16.5676 15.5755 17.0723 14.9141C17.5639 14.2698 17.7324 13.8192 17.7324 13.375C17.7323 12.931 17.5637 12.4809 17.0723 11.8369C16.5676 11.1753 15.7971 10.4025 14.6973 9.30273C13.5975 8.20286 12.8247 7.43248 12.1631 6.92773C12.0042 6.80651 11.8568 6.70533 11.7188 6.62109C11.6572 6.59624 11.5985 6.56241 11.5439 6.52051C11.2015 6.33829 10.9118 6.26764 10.625 6.26758ZM4.72461 13.6123C5.01752 13.3195 5.49229 13.3194 5.78516 13.6123L10.3877 18.2148C10.6806 18.5077 10.6805 18.9825 10.3877 19.2754C10.0948 19.5683 9.62004 19.5683 9.32715 19.2754L4.72461 14.6729C4.43172 14.38 4.43172 13.9052 4.72461 13.6123ZM16.7617 2.75C16.5461 2.75 16.3003 2.82753 15.8926 3.14355C15.4679 3.47283 14.9657 3.98045 14.2275 4.73047L13.167 5.80859C13.8943 6.37922 14.7108 7.19528 15.7188 8.20312L15.7969 8.28125C16.8483 9.33275 17.6917 10.1757 18.2646 10.9268C18.2697 10.9333 18.2743 10.9406 18.2793 10.9473L19.2959 9.91504C20.0339 9.16514 20.5329 8.65468 20.8574 8.22266C21.1683 7.8086 21.2499 7.55353 21.25 7.32324C21.25 7.09286 21.1684 6.83712 20.8574 6.42285C20.5329 5.99083 20.0339 5.48032 19.2959 4.73047C18.5577 3.98036 18.0557 3.47286 17.6309 3.14355C17.2232 2.82747 16.9774 2.75004 16.7617 2.75ZM18.1875 6.87305C18.4804 6.58058 18.9553 6.58039 19.248 6.87305C19.5409 7.16594 19.5409 7.64167 19.248 7.93457L18.541 8.6416C18.2482 8.93433 17.7734 8.93409 17.4805 8.6416C17.1876 8.34872 17.1876 7.87396 17.4805 7.58105L18.1875 6.87305ZM16.0654 4.75195C16.3583 4.45905 16.8341 4.45905 17.127 4.75195C17.4195 5.04473 17.4194 5.5196 17.127 5.8125L16.4189 6.51953C16.1261 6.81243 15.6513 6.81243 15.3584 6.51953C15.0659 6.22662 15.0657 5.75177 15.3584 5.45898L16.0654 4.75195Z" fill="#1C274C"/>
</svg>
