<svg width="24" height="24" viewBox="0 0 24 24" fill="none" xmlns="http://www.w3.org/2000/svg">
<path d="M15.3274 7.54199C18.7022 7.54199 20.3902 7.54247 21.3381 8.5293C22.2854 9.51613 22.0624 11.0411 21.6164 14.0898L21.1936 16.9814C20.8438 19.3725 20.6689 20.5682 19.7717 21.2842C18.8745 22.0001 17.551 22 14.9045 22H9.09494C6.44901 22 5.12587 21.9999 4.22873 21.2842C3.33159 20.5682 3.15659 19.3725 2.80685 16.9814L2.384 14.0898C1.93801 11.0408 1.71475 9.51613 2.66232 8.5293C3.61014 7.5425 5.29749 7.54199 8.67209 7.54199H15.3274ZM11.2092 12.1152C10.6666 11.7793 10.0002 12.2175 10.0002 12.9102V17.0898C10.0002 17.7824 10.6666 18.2206 11.2092 17.8848L14.5813 15.7939C15.1395 15.4478 15.1394 14.5522 14.5813 14.2061L11.2092 12.1152ZM17.8615 4.72363C19.252 4.72363 20.3921 5.56285 20.7727 6.67676C20.7807 6.69998 20.7889 6.72362 20.7961 6.74707C20.398 6.6265 19.9831 6.54791 19.5637 6.49414C18.4834 6.35566 17.1182 6.35538 15.5324 6.35547H8.63986C7.05405 6.35538 5.68891 6.35567 4.60861 6.49414C4.18915 6.54791 3.77434 6.6265 3.37619 6.74707C3.38346 6.72362 3.39072 6.69998 3.39865 6.67676C3.77919 5.56273 4.92014 4.72363 6.31076 4.72363H17.8615ZM15.4904 2C15.7227 1.99994 15.9012 2.00039 16.0569 2.01562C17.1643 2.1241 18.0708 2.7896 18.4553 3.68652H5.54416C5.92871 2.78941 6.83582 2.12399 7.94357 2.01562C8.09934 2.0004 8.27757 1.99994 8.50998 2H15.4904Z" fill="#1C274C"/>
</svg>
