<svg width="24" height="24" viewBox="0 0 24 24" fill="none" xmlns="http://www.w3.org/2000/svg">
<path d="M13.6338 3C14.5601 3.00004 15.3661 3.60181 15.623 4.46094L15.6963 4.75391C15.8676 5.3302 16.4049 5.76074 17.0225 5.76074C18.4028 5.82112 19.3041 5.99048 20.0244 6.46289C20.5096 6.78125 20.9267 7.19053 21.251 7.66699C21.9998 8.76755 22 10.2995 22 13.3633C22 16.4275 21.9999 17.96 21.251 19.0605C20.9267 19.5369 20.5096 19.9462 20.0244 20.2646C18.9035 20.9998 17.3432 21 14.2227 21H9.77734C6.65685 21 5.09651 20.9998 3.97559 20.2646C3.4903 19.9462 3.07328 19.5369 2.74902 19.0605C2.00007 17.96 2 16.4275 2 13.3633C2 10.2995 2.00021 8.76754 2.74902 7.66699C3.07328 7.19053 3.4903 6.78125 3.97559 6.46289C4.69579 5.99047 5.59722 5.82113 6.97754 5.76074C7.59505 5.76074 8.13237 5.3302 8.30371 4.75391L8.37695 4.46094C8.6338 3.60181 9.43982 3.00004 10.3662 3H13.6338ZM12 9C9.79086 9 8 10.7909 8 13C8 15.2091 9.79086 17 12 17C14.2091 17 16 15.2091 16 13C16 10.7909 14.2091 9 12 9ZM12 10.25C12.4142 10.25 12.75 10.5858 12.75 11V12.25H14C14.4142 12.25 14.75 12.5858 14.75 13C14.75 13.4142 14.4142 13.75 14 13.75H12.75V15C12.75 15.4142 12.4142 15.75 12 15.75C11.5858 15.75 11.25 15.4142 11.25 15V13.75H10C9.58579 13.75 9.25 13.4142 9.25 13C9.25 12.5858 9.58579 12.25 10 12.25H11.25V11C11.25 10.5858 11.5858 10.25 12 10.25ZM18 9.25C17.5858 9.25 17.25 9.58579 17.25 10C17.25 10.4142 17.5858 10.75 18 10.75H19C19.4142 10.75 19.75 10.4142 19.75 10C19.75 9.58579 19.4142 9.25 19 9.25H18Z" fill="#48465C"/>
</svg>
