<svg width="24" height="24" viewBox="0 0 24 24" fill="none" xmlns="http://www.w3.org/2000/svg">
<path d="M12 2C14.0258 2 15.0385 2.00046 15.79 2.49609C16.0285 2.6534 16.2441 2.84346 16.4287 3.06152C17.0103 3.74861 17.1308 4.7545 17.3721 6.76562L17.4629 7.52344C17.7133 9.61065 17.8388 10.6544 17.2422 11.3271C16.6454 11.9998 15.5937 12 13.4912 12H12.75V13.75H17C17.321 13.75 17.6222 13.8365 17.8809 13.9873L18.1592 13.1504C18.2278 12.9442 18.2765 12.7988 18.3652 12.6074C18.4511 12.4223 18.4951 12.3488 18.5635 12.2363C18.8484 11.7678 19.2199 11.3599 19.8213 11.0947C20.3876 10.8451 21.0952 10.75 22 10.75C22.4142 10.75 22.75 11.0858 22.75 11.5C22.75 11.9142 22.4142 12.25 22 12.25C21.1726 12.25 20.7101 12.3424 20.4258 12.4678C20.1768 12.5778 20.0161 12.7339 19.8447 13.0156C19.8145 13.0654 19.8016 13.0867 19.7881 13.1113C19.7751 13.1353 19.7581 13.1703 19.7266 13.2383C19.6759 13.3474 19.6515 13.4186 19.5771 13.6416L18.7119 16.2373C18.6796 16.3345 18.6288 16.4205 18.5654 16.4932C18.1671 17.521 17.1685 18.25 16 18.25H12.75V19.416C13.9066 19.741 14.8306 20.6187 15.2119 21.7627C15.3429 22.1557 15.1302 22.5809 14.7373 22.7119C14.3443 22.8429 13.9191 22.6302 13.7881 22.2373C13.6111 21.7062 13.2354 21.2728 12.75 21.0205V22C12.75 22.4142 12.4142 22.75 12 22.75C11.5858 22.75 11.25 22.4142 11.25 22V21.0205C10.7646 21.2728 10.3889 21.7062 10.2119 22.2373C10.0809 22.6302 9.65565 22.8429 9.2627 22.7119C8.86974 22.5809 8.65711 22.1557 8.78809 21.7627C9.16944 20.6187 10.0934 19.741 11.25 19.416V18.25H8C6.83152 18.25 5.8329 17.521 5.43457 16.4932C5.37116 16.4205 5.32048 16.3345 5.28809 16.2373L4.42285 13.6416C4.34851 13.4186 4.32403 13.3474 4.27344 13.2383C4.24191 13.1703 4.2249 13.1353 4.21191 13.1113C4.19847 13.0867 4.18551 13.0654 4.15527 13.0156C3.98391 12.7339 3.82324 12.5778 3.57422 12.4678C3.28991 12.3424 2.82738 12.25 2 12.25C1.58579 12.25 1.25 11.9142 1.25 11.5C1.25 11.0858 1.58579 10.75 2 10.75C2.90486 10.75 3.61243 10.8451 4.17871 11.0947C4.78012 11.3599 5.15161 11.7678 5.43652 12.2363C5.5049 12.3488 5.54896 12.4223 5.63477 12.6074C5.72347 12.7988 5.77213 12.9442 5.84082 13.1504L6.12012 13.9873C6.37865 13.8366 6.67917 13.75 7 13.75H11.25V12H10.5088C8.40653 12 7.35561 11.9997 6.75879 11.3271C6.16199 10.6545 6.28661 9.61086 6.53711 7.52344L6.62793 6.76562C6.86929 4.75433 6.9906 3.74862 7.57227 3.06152C7.7568 2.84359 7.97158 2.65334 8.20996 2.49609C8.96146 2.00043 9.97429 2 12 2Z" fill="#48465C"/>
</svg>
