<svg width="24" height="24" viewBox="0 0 24 24" fill="none" xmlns="http://www.w3.org/2000/svg">
<path d="M12 1C15.3137 1 18 3.68629 18 7C18 8.72714 17.2705 10.2842 16.1025 11.3789C18.3792 12.2308 20 14.426 20 17C20 20.3137 17.3137 23 14 23H7.05859C5.36943 22.9999 4.00011 21.6305 4 19.9414V4.6084C4.00016 2.61561 5.61561 1.00016 7.6084 1H12ZM6 19.9414C6.00011 20.5259 6.474 20.9999 7.05859 21H14C16.2091 21 18 19.2091 18 17C18 14.7909 16.2091 13 14 13H6V19.9414ZM7.6084 3C6.72018 3.00016 6.00016 3.72018 6 4.6084V11H12C14.2091 11 16 9.20914 16 7C16 4.79086 14.2091 3 12 3H7.6084Z" fill="#48465C"/>
</svg>
