<svg width="24" height="24" viewBox="0 0 24 24" fill="none" xmlns="http://www.w3.org/2000/svg">
<path d="M12 2C13.1079 2 14.1108 2.62261 16.1162 3.86719L18.1162 5.1084C20.0128 6.28546 20.9612 6.87408 21.4805 7.82227C21.9997 8.77081 22 9.91569 22 12.2041V13.7246C22 17.6254 21.9997 19.5763 20.8281 20.7881C19.6566 21.9999 17.7711 22 14 22H10C6.22891 22 4.34347 21.9998 3.17188 20.7881C2.00031 19.5763 2 17.6254 2 13.7246V12.2041C2 9.91569 2.00033 8.77081 2.51953 7.82227C3.03876 6.87408 3.98724 6.28545 5.88379 5.1084L7.88379 3.86719C9.88915 2.62261 10.8921 2 12 2ZM14.5498 15.4902C13.1484 13.9778 10.8516 13.9778 9.4502 15.4902C9.16873 15.794 9.18652 16.2682 9.49023 16.5498C9.79398 16.8312 10.2683 16.8133 10.5498 16.5098C11.3576 15.638 12.6424 15.638 13.4502 16.5098C13.7317 16.8134 14.206 16.8312 14.5098 16.5498C14.8135 16.2682 14.8313 15.794 14.5498 15.4902ZM16.5498 13.3311C14.0438 10.6264 9.9561 10.6264 7.4502 13.3311C7.16875 13.6348 7.1866 14.1091 7.49023 14.3906C7.794 14.6721 8.26827 14.6543 8.5498 14.3506C10.4621 12.2865 13.5379 12.2865 15.4502 14.3506C15.7318 14.6543 16.206 14.672 16.5098 14.3906C16.8135 14.1091 16.8312 13.6348 16.5498 13.3311ZM18.5498 11.1729C14.9392 7.27585 9.06071 7.27584 5.4502 11.1729C5.1687 11.4766 5.18645 11.9509 5.49023 12.2324C5.79396 12.5138 6.26825 12.4959 6.5498 12.1924C9.56669 8.93609 14.4333 8.93609 17.4502 12.1924C17.7317 12.4959 18.2061 12.5138 18.5098 12.2324C18.8136 11.9509 18.8313 11.4766 18.5498 11.1729Z" fill="#1C274C"/>
</svg>
