<svg width="24" height="24" viewBox="0 0 24 24" fill="none" xmlns="http://www.w3.org/2000/svg">
<path d="M12.0576 1.25C14.3657 1.24999 16.1745 1.24974 17.5859 1.43945C19.0306 1.63369 20.1706 2.03977 21.0654 2.93457C21.9602 3.82938 22.3662 4.96932 22.5605 6.41406C22.7502 7.82544 22.75 9.63432 22.75 11.9424V12.0576C22.75 14.3657 22.7502 16.1745 22.5605 17.5859C22.3662 19.0306 21.9602 20.1706 21.0654 21.0654C20.1706 21.9602 19.0306 22.3662 17.5859 22.5605C16.1745 22.7502 14.3657 22.75 12.0576 22.75H11.9424C9.63432 22.75 7.82544 22.7502 6.41406 22.5605C4.96932 22.3662 3.82938 21.9602 2.93457 21.0654C2.03977 20.1706 1.63369 19.0306 1.43945 17.5859C1.24974 16.1745 1.24999 14.3657 1.25 12.0576V11.9424C1.24999 9.63433 1.24974 7.82544 1.43945 6.41406C1.63369 4.96932 2.03976 3.82938 2.93457 2.93457C3.82938 2.03976 4.96932 1.63369 6.41406 1.43945C7.82544 1.24974 9.63433 1.24999 11.9424 1.25H12.0576ZM7.87402 21.1875C8.977 21.2494 10.3217 21.25 12 21.25C14.3782 21.25 16.0867 21.248 17.3867 21.0732C18.2683 20.9547 18.909 20.7626 19.4082 20.4678L14 15.0605L7.87402 21.1875ZM12 2.75C9.62178 2.75 7.91326 2.75198 6.61328 2.92676C5.33508 3.09865 4.56472 3.42551 3.99512 3.99512C3.42551 4.56472 3.09865 5.33508 2.92676 6.61328C2.75198 7.91326 2.75 9.62178 2.75 12C2.75 14.3782 2.75198 16.0867 2.92676 17.3867C3.09865 18.6649 3.42551 19.4352 3.99512 20.0049C4.46271 20.4725 5.06549 20.7768 5.97363 20.9658L20.9658 5.97363C20.7768 5.06549 20.4725 4.46271 20.0049 3.99512C19.4352 3.42551 18.6649 3.09865 17.3867 2.92676C16.0867 2.75198 14.3782 2.75 12 2.75ZM15.0615 14L20.4688 19.4072C20.7634 18.908 20.9547 18.2679 21.0732 17.3867C21.248 16.0867 21.25 14.3782 21.25 12C21.25 10.3217 21.2494 8.977 21.1875 7.87402L15.0615 14ZM9 4.75C11.2954 4.75 13.2498 6.49399 13.25 8.75684C13.25 10.7831 12.004 13.1753 9.93457 14.0596C9.34017 14.3135 8.65983 14.3135 8.06543 14.0596C5.996 13.1753 4.75 10.7831 4.75 8.75684C4.75022 6.49399 6.70459 4.75 9 4.75ZM9 6.25C7.4297 6.25 6.25023 7.42209 6.25 8.75684C6.25 10.3002 7.2382 12.0742 8.6543 12.6797C8.87235 12.7729 9.12765 12.7729 9.3457 12.6797C10.7619 12.0742 11.75 10.3002 11.75 8.75684C11.7498 7.42209 10.5703 6.25 9 6.25ZM9 8C9.55229 8 10 8.44772 10 9C10 9.55229 9.55229 10 9 10C8.44772 10 8 9.55229 8 9C8 8.44772 8.44772 8 9 8Z" fill="#48465C"/>
</svg>
