<svg width="24" height="24" viewBox="0 0 24 24" fill="none" xmlns="http://www.w3.org/2000/svg">
<path d="M21.9619 13.5C21.8914 14.7579 21.6904 15.5518 21.1211 16.1211C20.2424 16.9998 18.8284 17 16 17H12.75V21H16C16.4142 21 16.75 21.3358 16.75 21.75C16.75 22.1642 16.4142 22.5 16 22.5H8C7.58579 22.5 7.25 22.1642 7.25 21.75C7.25 21.3358 7.58579 21 8 21H11.25V17H8C5.17158 17 3.75759 16.9998 2.87891 16.1211C2.30961 15.5518 2.10867 14.7579 2.03809 13.5H21.9619ZM14 2C17.7712 2 19.6566 2.00031 20.8281 3.17188C21.9997 4.34346 22 6.22878 22 10V11C22 11.5516 21.9997 12.0494 21.9932 12.5H2.00684C2.00032 12.0494 2 11.5516 2 11V10C2 6.22876 2.00031 4.34345 3.17188 3.17188C4.34345 2.00031 6.22876 2 10 2H14Z" fill="#1C274C"/>
</svg>
