<svg width="24" height="24" viewBox="0 0 24 24" fill="none" xmlns="http://www.w3.org/2000/svg">
<path d="M12 2C17.5228 2 22 6.47715 22 12C22 17.5228 17.5228 22 12 22C10.4003 22 8.88867 21.6239 7.54785 20.9561C7.19153 20.7787 6.78395 20.7203 6.39941 20.8232L4.17383 21.4189C3.20767 21.6774 2.32296 20.7932 2.58105 19.8271L3.17676 17.6006C3.27965 17.2161 3.22143 16.8084 3.04395 16.4521C2.37613 15.1113 2 13.5997 2 12C2 6.47715 6.47715 2 12 2ZM13.2197 9.44727C11.3407 8.29266 10.4007 7.7148 9.7002 8.13867C8.9998 8.56263 9 9.70871 9 12C9 14.2913 8.9998 15.4373 9.7002 15.8613C10.4007 16.2852 11.3407 15.7073 13.2197 14.5527C15.0732 13.4137 16 12.8445 16 12C16 11.1555 15.0732 10.5862 13.2197 9.44727Z" fill="#1C274C"/>
</svg>
