<svg width="24" height="24" viewBox="0 0 24 24" fill="none" xmlns="http://www.w3.org/2000/svg">
<path d="M9.99988 12.25C12.3133 12.25 14.4448 12.7758 16.0243 13.6641C17.5802 14.5394 18.7499 15.8661 18.7499 17.5V17.6016C18.751 18.7634 18.7525 20.2222 17.4735 21.2637C16.844 21.7762 15.963 22.1409 14.7733 22.3818C13.5804 22.6232 12.0254 22.75 9.99988 22.75C7.97434 22.75 6.41943 22.6232 5.22644 22.3818C4.03672 22.1409 3.15571 21.7763 2.52625 21.2637C1.24723 20.2222 1.24875 18.7634 1.24988 17.6016V17.5C1.24988 15.8661 2.4195 14.5394 3.97546 13.6641C5.55491 12.7757 7.68644 12.25 9.99988 12.25ZM9.99988 13.75C7.89521 13.75 6.02676 14.2315 4.71082 14.9717C3.37136 15.7251 2.74988 16.6487 2.74988 17.5C2.74988 18.8078 2.79024 19.5442 3.47351 20.1006C3.844 20.4023 4.46339 20.6966 5.52332 20.9111C6.58025 21.125 8.0257 21.25 9.99988 21.25C11.9741 21.25 13.4195 21.125 14.4764 20.9111C15.5364 20.6966 16.1558 20.4023 16.5262 20.1006C17.2095 19.5442 17.2499 18.8078 17.2499 17.5C17.2499 16.6487 16.6283 15.7251 15.2889 14.9717C13.9729 14.2315 12.1045 13.75 9.99988 13.75ZM16.6903 7.44629C17.4109 7.12743 18.2478 7.18832 18.9999 7.67871C19.752 7.18836 20.5888 7.12753 21.3094 7.44629C22.1644 7.82467 22.7499 8.69881 22.7499 9.69922C22.7499 10.6474 22.3359 11.3613 21.8397 11.9023C21.4524 12.3246 20.973 12.6813 20.5946 12.9629C20.5133 13.0234 20.4362 13.0803 20.3661 13.1338L20.3641 13.1357C20.2155 13.2492 20.0229 13.3962 19.8202 13.5107C19.6163 13.6261 19.3341 13.75 18.9999 13.75C18.6658 13.75 18.3834 13.6261 18.1796 13.5107C17.9768 13.3962 17.7843 13.2492 17.6356 13.1357L17.6337 13.1338C17.5637 13.0803 17.4873 13.0232 17.4061 12.9629C17.0277 12.6812 16.5483 12.3246 16.161 11.9023C15.6646 11.3612 15.2499 10.6476 15.2499 9.69922C15.2499 8.69881 15.8352 7.82467 16.6903 7.44629ZM20.703 8.81836C20.4368 8.70055 20.0128 8.68842 19.5321 9.17188C19.3913 9.31347 19.1996 9.39355 18.9999 9.39355C18.8002 9.39354 18.6084 9.31346 18.4677 9.17188C17.9872 8.6887 17.5639 8.70069 17.2977 8.81836C16.9902 8.95442 16.7499 9.28727 16.7499 9.69922C16.7499 10.1632 16.9383 10.532 17.2655 10.8887C17.5475 11.1962 17.8848 11.4476 18.2567 11.7256C18.3502 11.7955 18.446 11.8668 18.5438 11.9414C18.7063 12.0654 18.8187 12.149 18.9178 12.2051C18.9579 12.2277 18.9846 12.2394 18.9999 12.2451C19.0152 12.2394 19.0419 12.2278 19.0819 12.2051C19.1812 12.149 19.2944 12.0654 19.4569 11.9414C19.5545 11.8668 19.6506 11.7955 19.744 11.7256C20.1159 11.4477 20.4523 11.1961 20.7343 10.8887C21.0614 10.532 21.2499 10.1632 21.2499 9.69922C21.2499 9.28743 21.0103 8.95452 20.703 8.81836ZM9.99988 1.25C12.6233 1.25 14.7499 3.37665 14.7499 6C14.7499 8.62335 12.6233 10.75 9.99988 10.75C7.37656 10.75 5.24988 8.62333 5.24988 6C5.24988 3.37667 7.37656 1.25003 9.99988 1.25ZM9.99988 2.75C8.20499 2.75003 6.74988 4.20509 6.74988 6C6.74988 7.79491 8.20499 9.24997 9.99988 9.25C11.7948 9.25 13.2499 7.79493 13.2499 6C13.2499 4.20507 11.7948 2.75 9.99988 2.75Z" fill="#1C274C"/>
</svg>
