<svg width="24" height="24" viewBox="0 0 24 24" fill="none" xmlns="http://www.w3.org/2000/svg">
<path d="M10 12.25C12.3134 12.25 14.445 12.7758 16.0244 13.6641C17.5803 14.5394 18.75 15.8661 18.75 17.5V17.6016C18.7511 18.7634 18.7526 20.2222 17.4736 21.2637C16.8442 21.7761 15.9638 22.141 14.7744 22.3818C13.5814 22.6232 12.0258 22.75 10 22.75C7.97445 22.75 6.41955 22.6232 5.22656 22.3818C4.03683 22.1409 3.15584 21.7763 2.52637 21.2637C1.24741 20.2222 1.24887 18.7633 1.25 17.6016V17.5C1.25 15.8661 2.41963 14.5394 3.97559 13.6641C5.55502 12.7757 7.68656 12.25 10 12.25ZM10 13.75C7.89537 13.75 6.02686 14.2315 4.71094 14.9717C3.37152 15.7251 2.75 16.6487 2.75 17.5C2.75 18.8078 2.79036 19.5442 3.47363 20.1006C3.84416 20.4024 4.46415 20.6965 5.52441 20.9111C6.5813 21.125 8.02612 21.25 10 21.25C11.9742 21.25 13.4197 21.125 14.4766 20.9111C15.5365 20.6966 16.1559 20.4023 16.5264 20.1006C17.2097 19.5442 17.25 18.8078 17.25 17.5C17.25 16.6487 16.6285 15.7251 15.2891 14.9717C13.9731 14.2316 12.1046 13.75 10 13.75ZM16.6904 7.44629C17.411 7.12743 18.2479 7.18832 19 7.67871C19.7521 7.18836 20.5889 7.12753 21.3096 7.44629C22.1646 7.82467 22.75 8.69881 22.75 9.69922C22.75 10.6474 22.336 11.3613 21.8398 11.9023C21.4525 12.3246 20.9731 12.6813 20.5947 12.9629C20.5134 13.0234 20.4363 13.0803 20.3662 13.1338L20.3643 13.1357C20.2156 13.2492 20.023 13.3962 19.8203 13.5107C19.6164 13.6261 19.3342 13.75 19 13.75C18.6659 13.75 18.3836 13.6261 18.1797 13.5107C17.9769 13.3962 17.7844 13.2492 17.6357 13.1357L17.6338 13.1338C17.5638 13.0803 17.4874 13.0232 17.4062 12.9629C17.0279 12.6812 16.5484 12.3246 16.1611 11.9023C15.6647 11.3612 15.25 10.6476 15.25 9.69922C15.25 8.69881 15.8353 7.82467 16.6904 7.44629ZM20.7031 8.81836C20.4369 8.70055 20.0129 8.68843 19.5322 9.17188C19.3914 9.31347 19.1997 9.39355 19 9.39355C18.8003 9.39354 18.6086 9.31346 18.4678 9.17188C17.9874 8.6887 17.564 8.70069 17.2979 8.81836C16.9904 8.95442 16.75 9.28727 16.75 9.69922C16.75 10.1632 16.9384 10.532 17.2656 10.8887C17.5476 11.1962 17.8849 11.4476 18.2568 11.7256C18.3503 11.7955 18.4462 11.8668 18.5439 11.9414C18.7064 12.0654 18.8188 12.149 18.918 12.2051C18.958 12.2277 18.9847 12.2394 19 12.2451C19.0153 12.2394 19.0421 12.2278 19.082 12.2051C19.1813 12.149 19.2945 12.0654 19.457 11.9414C19.5547 11.8668 19.6507 11.7955 19.7441 11.7256C20.116 11.4477 20.4524 11.1961 20.7344 10.8887C21.0615 10.532 21.25 10.1632 21.25 9.69922C21.25 9.28743 21.0104 8.95453 20.7031 8.81836ZM10 1.25C12.6234 1.25 14.75 3.37665 14.75 6C14.75 8.62335 12.6234 10.75 10 10.75C7.37669 10.75 5.25 8.62333 5.25 6C5.25 3.37667 7.37669 1.25003 10 1.25ZM10 2.75C8.20512 2.75003 6.75 4.20509 6.75 6C6.75 7.79491 8.20512 9.24997 10 9.25C11.7949 9.25 13.25 7.79493 13.25 6C13.25 4.20507 11.7949 2.75 10 2.75Z" fill="#48465C"/>
</svg>
