<svg width="24" height="24" viewBox="0 0 24 24" fill="none" xmlns="http://www.w3.org/2000/svg">
<path d="M21 21.25C21.4142 21.25 21.75 21.5858 21.75 22C21.75 22.4142 21.4142 22.75 21 22.75H3C2.58579 22.75 2.25 22.4142 2.25 22C2.25 21.5858 2.58579 21.25 3 21.25H21ZM5.04492 8.25C5.47767 8.24995 5.8745 8.24957 6.19727 8.29297C6.55274 8.34076 6.92828 8.45369 7.2373 8.7627C7.54632 9.07171 7.65924 9.44726 7.70703 9.80273C7.75042 10.1255 7.75005 10.5223 7.75 10.9551V17.0449C7.75005 17.4777 7.75043 17.8745 7.70703 18.1973C7.65924 18.5528 7.54632 18.9283 7.2373 19.2373C6.92828 19.5464 6.55274 19.6592 6.19727 19.707C5.87449 19.7504 5.47768 19.7501 5.04492 19.75H4.95508C4.52233 19.7501 4.1255 19.7504 3.80273 19.707C3.44727 19.6592 3.07172 19.5464 2.7627 19.2373C2.45368 18.9283 2.34076 18.5528 2.29297 18.1973C2.24957 17.8745 2.24994 17.4777 2.25 17.0449V10.9551C2.24994 10.5223 2.24958 10.1255 2.29297 9.80273C2.34076 9.44726 2.45368 9.07171 2.7627 8.7627C3.07172 8.45368 3.44726 8.34076 3.80273 8.29297C4.1255 8.24957 4.52233 8.24995 4.95508 8.25H5.04492ZM12.0449 4.25C12.4777 4.24995 12.8745 4.24958 13.1973 4.29297C13.5528 4.34076 13.9283 4.45368 14.2373 4.7627C14.5464 5.07171 14.6592 5.44727 14.707 5.80273C14.7504 6.1255 14.7501 6.52233 14.75 6.95508V17.0449C14.7501 17.4777 14.7504 17.8745 14.707 18.1973C14.6592 18.5528 14.5464 18.9283 14.2373 19.2373C13.9283 19.5464 13.5528 19.6592 13.1973 19.707C12.8745 19.7504 12.4777 19.7501 12.0449 19.75H11.9551C11.5224 19.7501 11.1255 19.7504 10.8027 19.707C10.4472 19.6592 10.0717 19.5464 9.7627 19.2373C9.45368 18.9283 9.34076 18.5528 9.29297 18.1973C9.24957 17.8745 9.24994 17.4777 9.25 17.0449V6.95508C9.24994 6.52233 9.24958 6.1255 9.29297 5.80273C9.34076 5.44726 9.45368 5.07171 9.7627 4.7627C10.0717 4.45369 10.4472 4.34076 10.8027 4.29297C11.1255 4.24958 11.5223 4.24995 11.9551 4.25H12.0449ZM19.0449 1.25C19.4777 1.24995 19.8745 1.24958 20.1973 1.29297C20.5528 1.34076 20.9283 1.45368 21.2373 1.7627C21.5464 2.07171 21.6592 2.44726 21.707 2.80273C21.7504 3.1255 21.7501 3.52234 21.75 3.95508V17.0449C21.7501 17.4777 21.7504 17.8745 21.707 18.1973C21.6592 18.5528 21.5464 18.9283 21.2373 19.2373C20.9283 19.5464 20.5528 19.6592 20.1973 19.707C19.8745 19.7504 19.4777 19.7501 19.0449 19.75H18.9551C18.5223 19.7501 18.1255 19.7504 17.8027 19.707C17.4472 19.6592 17.0717 19.5464 16.7627 19.2373C16.4536 18.9283 16.3408 18.5528 16.293 18.1973C16.2496 17.8745 16.2499 17.4777 16.25 17.0449V3.95508C16.2499 3.52234 16.2496 3.1255 16.293 2.80273C16.3408 2.44727 16.4536 2.0717 16.7627 1.7627C17.0717 1.45368 17.4472 1.34076 17.8027 1.29297C18.1255 1.24957 18.5223 1.24995 18.9551 1.25H19.0449ZM5 9.75C4.50756 9.75 4.21364 9.75197 4.00293 9.78027C3.90638 9.79325 3.85772 9.80841 3.83594 9.81738C3.83095 9.81943 3.82711 9.82126 3.8252 9.82227L3.82324 9.82324L3.82227 9.82617C3.82126 9.82812 3.81936 9.83114 3.81738 9.83594C3.80842 9.85772 3.79326 9.90634 3.78027 10.0029C3.75197 10.2136 3.75 10.5075 3.75 11V17C3.75 17.4925 3.75197 17.7864 3.78027 17.9971C3.79326 18.0937 3.80842 18.1424 3.81738 18.1641L3.82324 18.1758L3.8252 18.1777C3.82711 18.1788 3.83095 18.1806 3.83594 18.1826C3.85772 18.1916 3.90638 18.2067 4.00293 18.2197C4.21364 18.248 4.50756 18.25 5 18.25C5.49243 18.25 5.78636 18.248 5.99707 18.2197C6.09362 18.2067 6.14228 18.1916 6.16406 18.1826C6.16906 18.1806 6.17287 18.1788 6.1748 18.1777L6.17676 18.1768L6.17773 18.1738L6.18066 18.1699L6.18262 18.1641C6.19158 18.1424 6.20674 18.0937 6.21973 17.9971C6.24803 17.7864 6.25 17.4925 6.25 17V11C6.25 10.5075 6.24803 10.2136 6.21973 10.0029C6.20674 9.90634 6.19158 9.85772 6.18262 9.83594C6.18064 9.83114 6.17874 9.82811 6.17773 9.82617L6.17676 9.82324L6.1748 9.82227C6.17288 9.82126 6.16906 9.81944 6.16406 9.81738C6.14228 9.80841 6.09362 9.79325 5.99707 9.78027C5.78636 9.75197 5.49243 9.75 5 9.75ZM12 5.75C11.5075 5.75 11.2136 5.75197 11.0029 5.78027C10.9063 5.79325 10.8576 5.80842 10.8359 5.81738L10.8291 5.82031L10.8262 5.82227L10.8232 5.82324L10.8223 5.82617C10.8213 5.82812 10.8193 5.83115 10.8174 5.83594C10.8084 5.85772 10.7933 5.90637 10.7803 6.00293C10.752 6.21363 10.75 6.50756 10.75 7V17C10.75 17.4925 10.752 17.7864 10.7803 17.9971C10.7933 18.0937 10.8084 18.1424 10.8174 18.1641C10.8193 18.1689 10.8213 18.1719 10.8223 18.1738L10.8232 18.1768L10.8262 18.1777C10.8281 18.1788 10.8311 18.1807 10.8359 18.1826C10.8576 18.1916 10.9063 18.2067 11.0029 18.2197C11.2136 18.248 11.5075 18.25 12 18.25C12.4925 18.25 12.7864 18.248 12.9971 18.2197C13.0937 18.2067 13.1424 18.1916 13.1641 18.1826C13.1658 18.1819 13.1677 18.1813 13.1689 18.1807C13.1712 18.1796 13.1727 18.1784 13.1738 18.1777L13.1768 18.1768L13.1777 18.1738C13.1787 18.1719 13.1807 18.1689 13.1826 18.1641C13.1916 18.1424 13.2067 18.0937 13.2197 17.9971C13.248 17.7864 13.25 17.4925 13.25 17V7C13.25 6.50755 13.248 6.21363 13.2197 6.00293C13.2067 5.90637 13.1916 5.85772 13.1826 5.83594C13.1807 5.83115 13.1787 5.82812 13.1777 5.82617L13.1768 5.82324L13.1738 5.82227C13.1719 5.82126 13.1689 5.81935 13.1641 5.81738C13.1424 5.80842 13.0937 5.79325 12.9971 5.78027C12.7864 5.75197 12.4925 5.75 12 5.75ZM19 2.75C18.5075 2.75 18.2136 2.75197 18.0029 2.78027C17.9063 2.79325 17.8576 2.80842 17.8359 2.81738C17.8311 2.81936 17.8281 2.82126 17.8262 2.82227L17.8232 2.82324L17.8223 2.82617C17.8213 2.82812 17.8193 2.83115 17.8174 2.83594C17.8084 2.85772 17.7933 2.90637 17.7803 3.00293C17.752 3.21363 17.75 3.50756 17.75 4V17C17.75 17.4925 17.752 17.7864 17.7803 17.9971C17.7933 18.0937 17.8084 18.1424 17.8174 18.1641C17.8193 18.1689 17.8213 18.1719 17.8223 18.1738L17.8232 18.1768L17.8262 18.1777L17.8291 18.1797C17.8309 18.1806 17.8331 18.1816 17.8359 18.1826C17.8576 18.1916 17.9063 18.2067 18.0029 18.2197C18.2136 18.248 18.5075 18.25 19 18.25C19.4925 18.25 19.7864 18.248 19.9971 18.2197C20.0937 18.2067 20.1424 18.1916 20.1641 18.1826C20.1689 18.1807 20.1719 18.1788 20.1738 18.1777L20.1768 18.1768L20.1777 18.1738C20.1787 18.1719 20.1807 18.1689 20.1826 18.1641C20.1916 18.1424 20.2067 18.0937 20.2197 17.9971C20.248 17.7864 20.25 17.4925 20.25 17V4C20.25 3.50755 20.248 3.21363 20.2197 3.00293C20.2067 2.90637 20.1916 2.85772 20.1826 2.83594C20.1807 2.83115 20.1787 2.82812 20.1777 2.82617L20.1768 2.82324L20.1738 2.82227C20.1719 2.82126 20.1689 2.81935 20.1641 2.81738C20.1424 2.80842 20.0937 2.79325 19.9971 2.78027C19.7864 2.75197 19.4924 2.75 19 2.75Z" fill="#48465C"/>
</svg>
