<svg width="24" height="24" viewBox="0 0 24 24" fill="none" xmlns="http://www.w3.org/2000/svg">
<path d="M7.31689 1.68433C10.412 1.10573 13.5881 1.10571 16.6831 1.68433L17.0063 1.74487C19.3528 2.18372 21.143 4.09315 21.4224 6.46069C21.8472 10.0618 21.8592 13.6998 21.4575 17.3035L21.4399 17.4568C21.1538 20.0242 19.1398 22.0588 16.5728 22.3787L15.6567 22.4929C15.1716 22.5533 14.917 22.5845 14.6626 22.6111C12.8924 22.7959 11.1076 22.7959 9.3374 22.6111C9.08291 22.5845 8.82861 22.5533 8.34326 22.4929L7.31787 22.365C4.81444 22.053 2.84703 20.0731 2.56006 17.5701C2.14646 13.9618 2.14646 10.318 2.56006 6.70972L2.57568 6.573C2.85454 4.14021 4.69169 2.17497 7.10205 1.72437L7.31689 1.68433ZM20.1138 15.571C19.7569 15.7752 19.3304 15.9847 18.8228 16.1833C17.3248 16.7698 15.1506 17.2497 12.0005 17.2498C7.77963 17.2498 5.30305 16.3761 3.87842 15.5789C3.92379 16.1864 3.98085 16.7933 4.05029 17.3992C4.25808 19.2118 5.68391 20.65 7.50342 20.8767L8.51807 21.0027C9.01546 21.0647 9.2548 21.0951 9.49268 21.1199C11.1592 21.2939 12.8398 21.2938 14.5063 21.1199C14.7443 21.0951 14.9834 21.0647 15.481 21.0027L16.3872 20.8904C18.2685 20.6559 19.7408 19.1656 19.9497 17.2908L19.9663 17.1365C20.0244 16.6154 20.0736 16.0934 20.1138 15.571ZM12.0005 14.2498C11.1762 14.2498 10.6153 14.4177 10.2104 14.7058C9.92661 14.9078 9.67532 15.2002 9.46143 15.6257C10.2165 15.7043 11.06 15.7498 12.0005 15.7498C12.9438 15.7497 13.787 15.7054 14.5396 15.6277C14.3255 15.2013 14.0737 14.908 13.7896 14.7058C13.3847 14.4178 12.8246 14.2498 12.0005 14.2498ZM16.4077 3.15894C13.4947 2.61438 10.5053 2.61438 7.59229 3.15894L7.37744 3.19897C5.61158 3.52909 4.26952 4.96767 4.06592 6.7439L4.05029 6.88062C3.7899 9.1523 3.69873 11.4388 3.77686 13.7205C4.37141 14.1848 5.59333 14.9548 7.92041 15.4011C8.24114 14.5955 8.69606 13.9422 9.34131 13.4832C10.0791 12.9583 10.9782 12.7498 12.0005 12.7498C13.0225 12.7498 13.921 12.9585 14.6587 13.4832C15.3045 13.9426 15.7598 14.5967 16.0806 15.4031C16.9716 15.2324 17.6936 15.0147 18.2759 14.7869C19.2553 14.4034 19.8577 13.9847 20.2202 13.6863C20.3046 11.3342 20.2093 8.97725 19.9331 6.63647C19.7309 4.92325 18.434 3.53706 16.73 3.21851L16.4077 3.15894ZM7.51123 3.84253C7.8253 3.57268 8.29885 3.6086 8.56885 3.92261C8.83887 4.23669 8.80284 4.71018 8.48877 4.98022C8.41007 5.04793 8.34659 5.13328 8.3042 5.22046C8.2605 5.3104 8.25049 5.38015 8.25049 5.41187C8.25063 5.55178 8.3528 5.85476 9.02588 6.16187C9.67478 6.45794 10.6835 6.66187 12.0005 6.66187C13.3172 6.66183 14.3253 6.45787 14.9741 6.16187C15.6472 5.85475 15.7503 5.55178 15.7505 5.41187C15.7505 5.38183 15.7359 5.26234 15.5112 5.06909C15.1972 4.79912 15.1615 4.32555 15.4312 4.01147C15.7012 3.69746 16.1747 3.66154 16.4888 3.9314C16.9045 4.28889 17.2505 4.78836 17.2505 5.41187C17.2503 6.4253 16.4831 7.12185 15.5972 7.52612C14.6864 7.94165 13.4447 8.16183 12.0005 8.16187C10.5561 8.16187 9.31358 7.94168 8.40283 7.52612C7.51703 7.12183 6.75064 6.42522 6.75049 5.41187C6.75049 4.84264 7.04422 4.24407 7.51123 3.84253Z" fill="#48465C"/>
</svg>
