<svg width="24" height="24" viewBox="0 0 24 24" fill="none" xmlns="http://www.w3.org/2000/svg">
<path fill-rule="evenodd" clip-rule="evenodd" d="M7.31679 1.6842C10.4119 1.1056 13.588 1.10558 16.683 1.6842L17.0062 1.74475C19.3527 2.18359 21.1429 4.09303 21.4223 6.46057C21.8471 10.0616 21.8591 13.6997 21.4574 17.3033L21.4398 17.4567C21.1537 20.0241 19.1397 22.0586 16.5727 22.3785L15.6566 22.4928C15.1715 22.5532 14.9169 22.5844 14.6625 22.611C12.8923 22.7958 11.1075 22.7958 9.3373 22.611C9.08281 22.5844 8.82851 22.5532 8.34316 22.4928L7.31777 22.3649C4.81433 22.0529 2.84693 20.073 2.55996 17.5699C2.14636 13.9616 2.14636 10.3178 2.55996 6.70959L2.57558 6.57287C2.85444 4.14008 4.69159 2.17484 7.10195 1.72424L7.31679 1.6842ZM20.1137 15.5709C19.7568 15.7751 19.3303 15.9846 18.8227 16.1832C17.3247 16.7697 15.1505 17.2496 12.0004 17.2496C7.77953 17.2496 5.30295 16.376 3.87832 15.5787C3.92368 16.1863 3.98074 16.7932 4.05019 17.399C4.25797 19.2116 5.68381 20.6499 7.50332 20.8766L8.51796 21.0026C9.01535 21.0645 9.25469 21.095 9.49257 21.1197C11.1591 21.2937 12.8397 21.2937 14.5062 21.1197C14.7442 21.095 14.9833 21.0645 15.4809 21.0026L16.3871 20.8903C18.2684 20.6558 19.7407 19.1654 19.9496 17.2906L19.9662 17.1364C20.0243 16.6153 20.0735 16.0933 20.1137 15.5709ZM12.0004 14.2496C11.1761 14.2496 10.6152 14.4176 10.2103 14.7057C9.9265 14.9076 9.67522 15.2001 9.46132 15.6256C10.2164 15.7042 11.0599 15.7496 12.0004 15.7496C12.9437 15.7496 13.7868 15.7053 14.5394 15.6276C14.3254 15.2012 14.0736 14.9079 13.7894 14.7057C13.3846 14.4176 12.8245 14.2497 12.0004 14.2496ZM16.4076 3.15881C13.4946 2.61425 10.5052 2.61425 7.59218 3.15881L7.37734 3.19885C5.61148 3.52897 4.26942 4.96754 4.06582 6.74377L4.05019 6.88049C3.7898 9.15217 3.69862 11.4386 3.77675 13.7203C4.37131 14.1846 5.59322 14.9547 7.92031 15.401C8.24104 14.5954 8.69596 13.9421 9.34121 13.483C10.079 12.9582 10.9781 12.7496 12.0004 12.7496C13.0224 12.7497 13.9209 12.9584 14.6586 13.483C15.3044 13.9425 15.7597 14.5965 16.0805 15.403C16.9715 15.2323 17.6935 15.0146 18.2758 14.7867C19.2552 14.4032 19.8576 13.9845 20.2201 13.6862C20.3045 11.3341 20.2092 8.97713 19.933 6.63635C19.7308 4.92313 18.4339 3.53693 16.7299 3.21838L16.4076 3.15881ZM7.51113 3.84241C7.8252 3.57256 8.29875 3.60848 8.56875 3.92248C8.83877 4.23656 8.80274 4.71006 8.48867 4.9801C8.40997 5.04781 8.34649 5.13315 8.3041 5.22034C8.2604 5.31028 8.25039 5.38002 8.25039 5.41174C8.25053 5.55165 8.3527 5.85463 9.02578 6.16174C9.67468 6.45782 10.6834 6.66174 12.0004 6.66174C13.3171 6.6617 14.3252 6.45775 14.974 6.16174C15.6471 5.85463 15.7502 5.55165 15.7504 5.41174C15.7504 5.38171 15.7358 5.26222 15.5111 5.06897C15.1971 4.799 15.1614 4.32542 15.431 4.01135C15.7011 3.69734 16.1746 3.66141 16.4887 3.93127C16.9044 4.28876 17.2504 4.78823 17.2504 5.41174C17.2502 6.42517 16.483 7.12172 15.5971 7.526C14.6863 7.94152 13.4446 8.1617 12.0004 8.16174C10.556 8.16174 9.31348 7.94156 8.40273 7.526C7.51693 7.12171 6.75054 6.42509 6.75039 5.41174C6.75039 4.84251 7.04412 4.24395 7.51113 3.84241Z" fill="#1C274C"/>
</svg>
