<svg width="24" height="24" viewBox="0 0 24 24" fill="none" xmlns="http://www.w3.org/2000/svg">
<path d="M12 1.25C15.7279 1.25 18.75 4.27208 18.75 8C18.75 8.60091 18.6718 9.18375 18.5244 9.73828C21.0014 10.7379 22.75 13.1639 22.75 16C22.75 19.7279 19.7279 22.75 16 22.75C14.5034 22.75 13.1192 22.262 12 21.4375C10.8805 22.2623 9.49722 22.75 8 22.75C4.27208 22.75 1.25 19.7279 1.25 16C1.25 13.1639 2.99857 10.7378 5.47559 9.73828C5.32824 9.18375 5.25 8.60091 5.25 8C5.25 4.27208 8.27208 1.25 12 1.25ZM6.02051 11.1357C4.10187 11.9172 2.75 13.8016 2.75 16C2.75 18.8995 5.10051 21.25 8 21.25C10.8995 21.25 13.25 18.8995 13.25 16C13.25 15.5377 13.1908 15.09 13.0791 14.6641C12.7279 14.7205 12.3672 14.75 12 14.75C9.40395 14.75 7.14976 13.2846 6.02051 11.1357ZM17.9795 11.1357C17.2384 12.5459 16.0129 13.6621 14.5244 14.2627C14.6718 14.8176 14.75 15.4001 14.75 16C14.75 17.6777 14.1381 19.2129 13.125 20.3936C13.9509 20.9353 14.9382 21.25 16 21.25C18.8995 21.25 21.25 18.8995 21.25 16C21.25 13.8015 19.8981 11.9172 17.9795 11.1357ZM12 2.75C9.1005 2.75 6.75 5.10051 6.75 8C6.75 10.8995 9.1005 13.25 12 13.25C14.8995 13.25 17.25 10.8995 17.25 8C17.25 5.10051 14.8995 2.75 12 2.75Z" fill="#1C274C"/>
</svg>
