<svg width="24" height="24" viewBox="0 0 24 24" fill="none" xmlns="http://www.w3.org/2000/svg">
<path d="M7.69288 5.68399C8.40672 3.96031 10.1047 2.75 12.0836 2.75C14.0625 2.75 15.7605 3.96031 16.4743 5.68399C16.6328 6.06668 17.0715 6.24844 17.4542 6.08995C17.8369 5.93146 18.0187 5.49275 17.8602 5.11005C16.9223 2.8454 14.6902 1.25 12.0836 1.25C9.47705 1.25 7.2449 2.8454 6.30702 5.11005C6.14854 5.49275 6.33029 5.93146 6.71299 6.08995C7.09568 6.24844 7.53439 6.06668 7.69288 5.68399Z" fill="#1C274C"/>
<path d="M7 15C7 15.5523 6.55229 16 6 16C5.44772 16 5 15.5523 5 15C5 14.4477 5.44772 14 6 14C6.55229 14 7 14.4477 7 15Z" fill="#1C274C"/>
<path d="M10 15C10 15.5523 9.55229 16 9 16C8.44772 16 8 15.5523 8 15C8 14.4477 8.44772 14 9 14C9.55229 14 10 14.4477 10 15Z" fill="#1C274C"/>
<path d="M13.25 15C13.25 14.5858 13.5858 14.25 14 14.25H18C18.4142 14.25 18.75 14.5858 18.75 15C18.75 15.4142 18.4142 15.75 18 15.75H14C13.5858 15.75 13.25 15.4142 13.25 15Z" fill="#1C274C"/>
<path fill-rule="evenodd" clip-rule="evenodd" d="M2.6279 3.34895C2.98754 3.14344 3.44568 3.26839 3.65119 3.62803L7.43525 10.2501H16.5648L20.3488 3.62803C20.5543 3.26839 21.0125 3.14344 21.3721 3.34895C21.7317 3.55446 21.8567 4.0126 21.6512 4.37223L18.2924 10.2502C19.0849 10.2507 19.7536 10.2573 20.2945 10.33C20.9223 10.4144 21.4891 10.6001 21.9445 11.0556C22.4 11.511 22.5857 12.0778 22.6701 12.7056C22.7501 13.3004 22.75 14.0496 22.75 14.9481V15.0521C22.75 15.9506 22.7501 16.6998 22.6701 17.2946C22.5857 17.9224 22.4 18.4892 21.9445 18.9446C21.4891 19.4001 20.9223 19.5858 20.2945 19.6702C19.6998 19.7502 18.9506 19.7501 18.0522 19.7501H5.94801C5.04962 19.7501 4.30026 19.7502 3.70552 19.6702C3.07773 19.5858 2.51093 19.4001 2.05546 18.9446C1.59999 18.4892 1.41432 17.9224 1.32991 17.2946C1.24995 16.6998 1.24997 15.9506 1.25 15.0521V14.9481C1.24997 14.0496 1.24995 13.3004 1.32991 12.7056C1.41432 12.0778 1.59999 11.511 2.05546 11.0556C2.51093 10.6001 3.07773 10.4144 3.70552 10.33C4.24646 10.2573 4.91513 10.2507 5.70765 10.2502L2.34882 4.37223C2.14331 4.0126 2.26826 3.55446 2.6279 3.34895ZM16.9854 11.7501C16.9947 11.7503 17.0039 11.7503 17.0132 11.7501H18C18.964 11.7501 19.6116 11.7517 20.0946 11.8166C20.5561 11.8787 20.7536 11.9859 20.8839 12.1162C21.0142 12.2465 21.1214 12.444 21.1835 12.9055C21.2484 13.3885 21.25 14.0361 21.25 15.0001C21.25 15.9641 21.2484 16.6117 21.1835 17.0947C21.1214 17.5562 21.0142 17.7537 20.8839 17.884C20.7536 18.0143 20.5561 18.1215 20.0946 18.1836C19.6116 18.2485 18.964 18.2501 18 18.2501H6C5.03599 18.2501 4.38843 18.2485 3.9054 18.1836C3.44393 18.1215 3.24644 18.0143 3.11612 17.884C2.9858 17.7537 2.87858 17.5562 2.81654 17.0947C2.7516 16.6117 2.75 15.9641 2.75 15.0001C2.75 14.0361 2.7516 13.3885 2.81654 12.9055C2.87858 12.444 2.9858 12.2465 3.11612 12.1162C3.24644 11.9859 3.44393 11.8787 3.9054 11.8166C4.38843 11.7517 5.03599 11.7501 6 11.7501H6.98684C6.99607 11.7503 7.00531 11.7503 7.01456 11.7501H16.9854Z" fill="#1C274C"/>
<path d="M12.0843 5.25C11.0619 5.25 10.197 5.93244 9.92403 6.8682C9.808 7.26583 9.39159 7.49411 8.99396 7.37808C8.59633 7.26205 8.36805 6.84564 8.48408 6.44801C8.93881 4.88969 10.3774 3.75 12.0843 3.75C13.7911 3.75 15.2298 4.88969 15.6845 6.44801C15.8005 6.84564 15.5722 7.26205 15.1746 7.37808C14.777 7.49411 14.3607 7.26583 14.2446 6.8682C13.9715 5.93244 13.1066 5.25 12.0843 5.25Z" fill="#1C274C"/>
<path d="M12.084 8C12.6363 8 13.084 7.55228 13.084 7C13.084 6.44772 12.6363 6 12.084 6C11.5317 6 11.084 6.44772 11.084 7C11.084 7.55228 11.5317 8 12.084 8Z" fill="#1C274C"/>
</svg>
