<svg width="24" height="24" viewBox="0 0 24 24" fill="none" xmlns="http://www.w3.org/2000/svg">
<path d="M18 11.873C18.5669 12.2684 19.2564 12.5 20 12.5V21.25H22C22.4141 21.25 22.7498 21.586 22.75 22C22.75 22.4142 22.4142 22.75 22 22.75H2C1.58579 22.75 1.25 22.4142 1.25 22C1.25019 21.586 1.58591 21.25 2 21.25H4V12.5C4.74363 12.5 5.43309 12.2684 6 11.873C6.56692 12.2684 7.25638 12.5 8 12.5C8.74363 12.5 9.43309 12.2684 10 11.873C10.5669 12.2684 11.2564 12.5 12 12.5C12.7436 12.5 13.4331 12.2684 14 11.873C14.5669 12.2684 15.2564 12.5 16 12.5C16.7436 12.5 17.4331 12.2684 18 11.873ZM12 16C11.0655 16 10.5981 16.0002 10.25 16.2012C10.0221 16.3327 9.83281 16.5222 9.70117 16.75C9.50024 17.0981 9.5 17.5656 9.5 18.5V21.25H14.5V18.5C14.5 17.5656 14.4998 17.0981 14.2988 16.75C14.1672 16.5221 13.9779 16.3327 13.75 16.2012C13.4019 16.0002 12.9345 16 12 16ZM16.5283 2C17.7308 2 18.3322 2.00016 18.8154 2.29883C19.2986 2.59752 19.5677 3.13531 20.1055 4.21094L21.5088 7.75977C21.833 8.57942 22.117 9.54514 21.5713 10.2373C21.2051 10.7017 20.6374 11 20 11C18.8955 11 18 10.1046 18 9C18 10.1046 17.1046 11 16 11C14.8955 11 14 10.1046 14 9C14 10.1046 13.1046 11 12 11C10.8955 11 10 10.1046 10 9C10 10.1046 9.10457 11 8 11C6.89544 11 6 10.1046 6 9C6 10.1046 5.10457 11 4 11C3.36267 11 2.79492 10.7017 2.42871 10.2373C1.88307 9.54515 2.167 8.5794 2.49121 7.75977L3.89453 4.21094C4.43234 3.13534 4.7014 2.59753 5.18457 2.29883C5.66788 2.00013 6.26984 2 7.47266 2H16.5283Z" fill="#1C274C"/>
</svg>
