<svg width="24" height="24" viewBox="0 0 24 24" fill="none" xmlns="http://www.w3.org/2000/svg">
<path d="M14 2C17.7712 2 19.6566 2.00031 20.8281 3.17188C21.9997 4.34346 22 6.22878 22 10V14C22 17.7712 21.9997 19.6566 20.8281 20.8281C19.6566 21.9997 17.7712 22 14 22H10C6.22878 22 4.34346 21.9997 3.17188 20.8281C2.00031 19.6566 2 17.7712 2 14V10C2 6.22876 2.00031 4.34345 3.17188 3.17188C4.34345 2.00031 6.22876 2 10 2H14ZM9.52246 5.25C8.79849 5.25008 8.13945 5.69141 7.65527 6.20508C7.14972 6.74148 6.72347 7.46958 6.47754 8.2832C6.35778 8.67953 6.58136 9.09774 6.97754 9.21777C7.37404 9.33762 7.79324 9.11329 7.91309 8.7168C8.09505 8.11495 8.40811 7.59301 8.74707 7.2334C9.10716 6.85145 9.39751 6.75011 9.52246 6.75C9.82812 6.75 10.2389 6.92796 10.6133 7.7666C10.9918 8.61492 11.25 9.99384 11.25 12C11.25 14.0986 11.5154 15.7193 12.0176 16.8447C12.5242 17.9797 13.3524 18.75 14.4775 18.75C15.2015 18.7499 15.8606 18.3086 16.3447 17.7949C16.8503 17.2585 17.2765 16.5304 17.5225 15.7168C17.6423 15.3205 17.4187 14.9022 17.0225 14.7822C16.626 14.6623 16.2067 14.8867 16.0869 15.2832C15.9049 15.885 15.5919 16.407 15.2529 16.7666C14.8929 17.1485 14.6025 17.2499 14.4775 17.25C14.1719 17.25 13.761 17.072 13.3867 16.2334C13.0082 15.3851 12.75 14.0062 12.75 12C12.75 9.90143 12.4847 8.28069 11.9824 7.15527C11.4757 6.02019 10.6476 5.25 9.52246 5.25ZM6 11.25C5.58579 11.25 5.25 11.5858 5.25 12C5.25 12.4142 5.58579 12.75 6 12.75H9.5C9.91421 12.75 10.25 12.4142 10.25 12C10.25 11.5858 9.91421 11.25 9.5 11.25H6ZM14.5 11.25C14.0858 11.25 13.75 11.5858 13.75 12C13.75 12.4142 14.0858 12.75 14.5 12.75H18C18.4142 12.75 18.75 12.4142 18.75 12C18.75 11.5858 18.4142 11.25 18 11.25H14.5Z" fill="#1C274C"/>
</svg>
