<svg width="24" height="24" viewBox="0 0 24 24" fill="none" xmlns="http://www.w3.org/2000/svg">
<path d="M20.0735 10C21.3875 10.0002 22.3152 11.1509 21.8997 12.2646L20.7805 15.2646C20.5854 15.7876 20.4874 16.0492 20.3586 16.2715C20.0007 16.8889 19.433 17.3779 18.7502 17.6758V20C18.7502 20.4142 18.4143 20.7498 18.0002 20.75C17.586 20.75 17.2502 20.4143 17.2502 20V17.9951C17.0636 17.9997 16.8353 18 16.5334 18H6.76489C6.76001 17.9999 6.75513 17.9991 6.75024 17.999V20C6.75024 20.4142 6.41433 20.7498 6.00024 20.75C5.58603 20.75 5.25024 20.4143 5.25024 20V17.6758C4.42145 17.314 3.76041 16.6712 3.44165 15.8594C3.43237 15.8357 3.42311 15.8092 3.40356 15.7568L2.09985 12.2646C1.68426 11.1507 2.61279 10 3.927 10C4.73716 10.0001 5.46032 10.4534 5.73657 11.1338L6.83521 13.8398C6.93514 14.0861 6.98544 14.2098 7.05786 14.3105C7.22699 14.5454 7.49236 14.7116 7.79712 14.7734C7.92771 14.7999 8.0743 14.7998 8.36743 14.7998H15.3469C15.9159 14.7998 16.2009 14.8002 16.4387 14.7021C16.5686 14.6487 16.6868 14.5742 16.7874 14.4834C16.9715 14.3169 17.0681 14.0774 17.262 13.5996L18.2629 11.1338C18.5392 10.4532 19.2632 10 20.0735 10ZM13.2356 3.5C14.3366 3.49999 15.2114 3.50017 15.8967 3.58789C16.6014 3.67813 17.1812 3.86893 17.6418 4.30762C18.1057 4.74951 18.3112 5.31087 18.4075 5.99316C18.5003 6.65055 18.5002 7.48856 18.5002 8.5332V9.41309L18.2893 9.5625C17.8738 9.85768 17.5379 10.2607 17.3362 10.7578L16.3362 13.2236C16.2932 13.3296 16.2572 13.4164 16.2258 13.4912L16.0999 13.792L15.7122 13.7988H15.7102C15.6082 13.8002 15.4911 13.7998 15.3469 13.7998H7.89771L6.66333 10.7578C6.46154 10.2607 6.1258 9.85766 5.71021 9.5625L5.50024 9.41309V8.5332C5.50023 7.48857 5.50022 6.65054 5.59302 5.99316C5.68936 5.31102 5.89391 4.74946 6.35767 4.30762C6.81824 3.86898 7.39819 3.67814 8.10278 3.58789C8.78802 3.50015 9.663 3.49999 10.7639 3.5H13.2356Z" fill="#48465C"/>
</svg>
