<svg width="24" height="24" viewBox="0 0 24 24" fill="none" xmlns="http://www.w3.org/2000/svg">
<path d="M19.8945 9C21.0571 9 21.9998 10.0051 22 11.2451V15.8574C22 16.9192 22.0001 17.4504 21.9062 17.8896C21.6817 18.9393 21.0756 19.8283 20.25 20.3838V22.25C20.25 22.6642 19.9142 23 19.5 23C19.0858 23 18.75 22.6642 18.75 22.25V20.958C18.3899 21 17.9235 21 17.1787 21H6.82129C6.07642 21 5.61011 21 5.25 20.958V22.25C5.24995 22.6642 4.91418 23 4.5 23C4.08582 23 3.75005 22.6642 3.75 22.25V20.3838C2.92435 19.8283 2.31837 18.9393 2.09375 17.8896C1.99984 17.4504 2 16.9192 2 15.8574V11.2451C2.00024 10.0051 2.94292 9 4.10547 9C5.26793 9.00012 6.21069 10.0052 6.21094 11.2451V14.333C6.21094 15.2758 6.21102 15.7471 6.50391 16.04C6.7968 16.3329 7.2682 16.333 8.21094 16.333H15.7891C16.7319 16.333 17.2042 16.3329 17.4971 16.04C17.7896 15.7471 17.7891 15.2754 17.7891 14.333V11.2451C17.7893 10.0052 18.7321 9.0001 19.8945 9ZM12 2C14.2431 2 15.3648 2.00044 16.2002 2.49512C16.7472 2.81909 17.2017 3.28469 17.5176 3.8457C17.9999 4.70251 18 5.85372 18 8.1543V8.67188C17.254 9.27573 16.7892 10.2228 16.7891 11.2451V14.333C16.7891 14.804 16.7895 15.04 16.6436 15.1865C16.4971 15.3329 16.2605 15.333 15.7891 15.333H8.21094C7.73955 15.333 7.50387 15.3329 7.35742 15.1865C7.21098 15.04 7.21094 14.8044 7.21094 14.333V11.2451C7.21079 10.2227 6.746 9.27573 6 8.67188V8.1543C6 5.8537 6.00011 4.70251 6.48242 3.8457C6.79831 3.28469 7.25281 2.81909 7.7998 2.49512C8.63518 2.00044 9.75692 2 12 2Z" fill="#1C274C"/>
</svg>
