<svg width="24" height="24" viewBox="0 0 24 24" fill="none" xmlns="http://www.w3.org/2000/svg">
<path d="M12 3.25C16.5141 3.25 19.5546 5.95441 21.3193 8.24707L21.3516 8.28809C21.7507 8.80638 22.1178 9.28418 22.3672 9.84863C22.6342 10.4531 22.75 11.1118 22.75 12C22.75 12.8882 22.6342 13.5469 22.3672 14.1514C22.1178 14.7158 21.7507 15.1937 21.3516 15.7119L21.3193 15.7529C19.5546 18.0456 16.5141 20.75 12 20.75C7.48587 20.75 4.44538 18.0456 2.68066 15.7529L2.64844 15.7119C2.24935 15.1936 1.88217 14.7158 1.63281 14.1514C1.36581 13.5469 1.25 12.8882 1.25 12C1.25 11.1118 1.36581 10.4531 1.63281 9.84863C1.88217 9.28418 2.24936 8.80639 2.64844 8.28809L2.68066 8.24707C4.44538 5.95441 7.48587 3.25 12 3.25ZM12 4.75C8.15036 4.75 5.49856 7.04523 3.86914 9.16211C3.4308 9.73157 3.17384 10.0719 3.00488 10.4541C2.84696 10.8116 2.75 11.2489 2.75 12C2.75 12.7511 2.84696 13.1884 3.00488 13.5459C3.17384 13.9281 3.43081 14.2684 3.86914 14.8379C5.49856 16.9548 8.15036 19.25 12 19.25C15.8496 19.25 18.5015 16.9548 20.1309 14.8379C20.5692 14.2684 20.8262 13.9281 20.9951 13.5459C21.1531 13.1884 21.25 12.7511 21.25 12C21.25 11.2489 21.1531 10.8116 20.9951 10.4541C20.8262 10.0719 20.5692 9.73158 20.1309 9.16211C18.5015 7.04523 15.8496 4.75 12 4.75ZM12 8.25C14.0711 8.25 15.75 9.92893 15.75 12C15.75 14.0711 14.0711 15.75 12 15.75C9.92893 15.75 8.25 14.0711 8.25 12C8.25 9.92893 9.92893 8.25 12 8.25ZM12 9.75C10.7574 9.75 9.75 10.7574 9.75 12C9.75 13.2426 10.7574 14.25 12 14.25C13.2426 14.25 14.25 13.2426 14.25 12C14.25 10.7574 13.2426 9.75 12 9.75Z" fill="#48465C"/>
</svg>
