<svg width="24" height="24" viewBox="0 0 24 24" fill="none" xmlns="http://www.w3.org/2000/svg">
<path d="M5.62051 11.4941C5.89997 11.1885 6.37438 11.1669 6.68008 11.4463C6.98568 11.7256 7.00698 12.2 6.72794 12.5059L5.46622 13.8857C4.40789 15.044 4.48272 17.315 5.9711 18.9434C7.44845 20.5596 9.41069 20.5901 10.4115 19.4951L14.4467 15.0811C14.7261 14.7753 15.2006 14.7537 15.5063 15.0332C15.8119 15.3126 15.8325 15.787 15.5531 16.0928L11.519 20.5068C9.7344 22.4592 6.72884 21.9957 4.86368 19.9551C3.00986 17.9267 2.633 14.7632 4.35977 12.874L5.62051 11.4941ZM14.1752 2.40137C16.0111 0.602917 19.0891 1.00914 21.0395 2.91992C22.9924 4.83346 23.4175 7.87526 21.5678 9.6875L18.6606 12.5361C18.3646 12.8257 17.8897 12.8202 17.6 12.5244C17.3103 12.2286 17.315 11.7537 17.6107 11.4639L20.518 8.61621C21.5874 7.5685 21.5395 5.50972 19.9897 3.99121C18.437 2.47002 16.3083 2.41226 15.225 3.47363L11.5248 7.09863C11.2289 7.3883 10.7541 7.38274 10.4643 7.08691C10.1745 6.79102 10.1792 6.31619 10.475 6.02637L14.1752 2.40137ZM1.28848 7.76367C1.41943 7.37081 1.84385 7.15828 2.23672 7.28906L8.23672 9.28906C8.62964 9.42003 8.84222 9.84443 8.71133 10.2373C8.58038 10.6302 8.15597 10.8427 7.76309 10.7119L1.76309 8.71191C1.37027 8.58097 1.15777 8.15651 1.28848 7.76367ZM5.58438 3.37598C5.92899 3.14658 6.39475 3.23949 6.62442 3.58398L8.62442 6.58398C8.85406 6.92849 8.7607 7.39416 8.41641 7.62402C8.07178 7.85378 7.60615 7.76064 7.37637 7.41602L5.37637 4.41602C5.14661 4.07138 5.23974 3.60574 5.58438 3.37598Z" fill="#1C274C"/>
</svg>
