<svg width="24" height="24" viewBox="0 0 24 24" fill="none" xmlns="http://www.w3.org/2000/svg">
<path d="M5.62048 11.4941C5.89996 11.1885 6.37436 11.1669 6.68005 11.4463C6.98579 11.7257 7.00638 12.2001 6.72693 12.5059L5.46619 13.8857C4.40783 15.044 4.48268 17.315 5.97107 18.9434C7.44841 20.5596 9.41066 20.5901 10.4115 19.4951L14.4467 15.0811C14.7261 14.7753 15.2005 14.7537 15.5062 15.0332C15.8118 15.3126 15.8324 15.7871 15.5531 16.0928L11.5189 20.5068C9.73437 22.4592 6.72881 21.9957 4.86365 19.9551C3.0098 17.9267 2.63296 14.7633 4.35974 12.874L5.62048 11.4941ZM14.1752 2.40137C16.0111 0.602875 19.0891 1.00913 21.0394 2.91992C22.9923 4.83345 23.4175 7.87526 21.5677 9.6875L18.6605 12.5361C18.3646 12.8257 17.8897 12.8202 17.6 12.5244C17.3103 12.2286 17.315 11.7537 17.6107 11.4639L20.5179 8.61621C21.5873 7.5685 21.5395 5.50972 19.9896 3.99121C18.4369 2.47002 16.3083 2.41226 15.225 3.47363L11.5248 7.09863C11.2289 7.38826 10.7541 7.38272 10.4642 7.08691C10.1745 6.79102 10.1791 6.31618 10.475 6.02637L14.1752 2.40137ZM1.28845 7.76367C1.4194 7.37081 1.84382 7.15828 2.23669 7.28906L8.23669 9.28906C8.62961 9.42003 8.8422 9.84442 8.7113 10.2373C8.58035 10.6302 8.15594 10.8427 7.76306 10.7119L1.76306 8.71191C1.37024 8.58097 1.15775 8.15651 1.28845 7.76367ZM5.58435 3.37598C5.92896 3.14657 6.39471 3.23949 6.62439 3.58398L8.62439 6.58398C8.85402 6.92849 8.76067 7.39416 8.41638 7.62402C8.07175 7.85378 7.60612 7.76063 7.37634 7.41602L5.37634 4.41602C5.14658 4.07138 5.23971 3.60574 5.58435 3.37598Z" fill="#48465C"/>
</svg>
