<svg width="24" height="24" viewBox="0 0 24 24" fill="none" xmlns="http://www.w3.org/2000/svg">
<path fill-rule="evenodd" clip-rule="evenodd" d="M10.8514 9.43879C11.5973 9.18748 12.4034 9.18741 13.1493 9.43879C13.9776 9.718 14.5793 10.4108 15.1376 11.2962C15.6978 12.1851 16.3069 13.4245 17.0819 15.0023L17.9881 16.8489C18.1869 17.2536 18.3465 17.5771 18.4608 17.8343C18.573 18.0866 18.6698 18.3344 18.7108 18.5745C18.9858 20.1874 17.7926 21.7014 16.1473 21.7493C15.903 21.7565 15.642 21.7084 15.3768 21.6468C15.106 21.5839 14.7623 21.4898 14.3338 21.3724L14.3172 21.3675C13.8028 21.2264 13.5783 21.1653 13.3563 21.1204C12.4612 20.9393 11.5395 20.9394 10.6444 21.1204C10.4223 21.1653 10.1974 21.2263 9.68248 21.3675L9.66686 21.3724C9.23847 21.4898 8.89475 21.5839 8.62389 21.6468C8.35854 21.7085 8.09682 21.7565 7.8524 21.7493C6.20729 21.7012 5.01482 20.1873 5.2899 18.5745C5.33089 18.3343 5.42774 18.0866 5.5399 17.8343C5.65423 17.5771 5.81285 17.2535 6.01158 16.8489L6.91881 15.0023C7.6937 13.4246 8.30283 12.1851 8.86315 11.2962C9.42134 10.4109 10.0231 9.71794 10.8514 9.43879ZM12.6698 10.8597C12.2346 10.7131 11.765 10.713 11.3299 10.8597C11.0171 10.9651 10.6515 11.2715 10.1317 12.096C9.61896 12.9094 9.04466 14.0773 8.24401 15.7073L7.3651 17.4964C7.15768 17.9187 7.01123 18.216 6.91002 18.4437C6.80535 18.6791 6.77594 18.7825 6.76842 18.8265C6.64137 19.5707 7.19233 20.2297 7.89635 20.2503C7.9351 20.2514 8.03662 20.2423 8.28405 20.1849C8.52267 20.1295 8.83785 20.0441 9.286 19.9212L9.3153 19.9134C9.79318 19.7823 10.0688 19.7069 10.3465 19.6507C11.4381 19.4298 12.5618 19.4298 13.6532 19.6507C13.9311 19.7069 14.2073 19.7823 14.6854 19.9134L14.7137 19.9212C15.162 20.0441 15.477 20.1295 15.7157 20.1849C15.9627 20.2422 16.0643 20.2514 16.1034 20.2503C16.8075 20.2298 17.3593 19.5708 17.2323 18.8265C17.2247 18.7825 17.1945 18.6794 17.0897 18.4437C16.9884 18.216 16.8422 17.9188 16.6346 17.4964L15.7567 15.7073C14.956 14.0773 14.3808 12.9094 13.868 12.096C13.3483 11.2716 12.9825 10.9651 12.6698 10.8597ZM2.68541 8.86067C3.40251 8.60733 4.13156 8.81362 4.69518 9.20344C5.26208 9.59562 5.72816 10.2105 6.00084 10.9407C6.27339 11.6706 6.32363 12.4377 6.14537 13.1009C5.96731 13.7632 5.53561 14.3841 4.81432 14.639C4.09719 14.8923 3.36814 14.6861 2.80455 14.2962C2.23783 13.9041 1.77154 13.2899 1.49889 12.5599C1.22638 11.8301 1.17623 11.0628 1.35436 10.3997C1.53239 9.73739 1.96405 9.11556 2.68541 8.86067ZM19.3046 9.20344C19.8681 8.81358 20.5972 8.60751 21.3143 8.86067C22.0356 9.11556 22.4674 9.73739 22.6454 10.3997C22.8236 11.0629 22.7734 11.8301 22.5008 12.5599C22.2282 13.2899 21.762 13.9041 21.1952 14.2962C20.6315 14.6861 19.9027 14.8925 19.1854 14.639C18.4641 14.3841 18.0324 13.7633 17.8544 13.1009C17.6761 12.4378 17.7264 11.6706 17.9989 10.9407C18.2715 10.2106 18.7377 9.59562 19.3046 9.20344ZM3.84166 10.4368C3.55031 10.2355 3.32324 10.2271 3.18541 10.2757C3.05171 10.323 2.89106 10.4633 2.80358 10.7884C2.71637 11.1128 2.72684 11.5595 2.90416 12.0345C3.08147 12.5092 3.36972 12.8633 3.65807 13.0628C3.94969 13.2645 4.17742 13.2737 4.3153 13.2249C4.44901 13.1776 4.60972 13.0365 4.69713 12.7113C4.7843 12.3868 4.77296 11.9402 4.59557 11.4652C4.41824 10.9905 4.13 10.6363 3.84166 10.4368ZM20.8153 10.2757C20.6774 10.227 20.4496 10.2352 20.1581 10.4368C19.8697 10.6363 19.5815 10.9904 19.4042 11.4652C19.2267 11.9403 19.2164 12.3868 19.3036 12.7113C19.3911 13.0367 19.5516 13.1777 19.6854 13.2249C19.8233 13.2736 20.0503 13.2643 20.3417 13.0628C20.6301 12.8633 20.9183 12.5093 21.0956 12.0345C21.273 11.5595 21.2843 11.1129 21.1971 10.7884C21.1097 10.4635 20.949 10.3231 20.8153 10.2757ZM7.04967 1.32551C7.90029 1.08388 8.70895 1.44343 9.29576 1.99055C9.8886 2.54336 10.3476 3.35733 10.5829 4.2884C10.8182 5.22033 10.8025 6.16202 10.5536 6.9427C10.3088 7.71033 9.7922 8.4349 8.95104 8.67414C8.10017 8.91605 7.2909 8.55642 6.70397 8.00911C6.11118 7.45629 5.653 6.6423 5.41783 5.71125C5.18249 4.77932 5.19725 3.83764 5.44615 3.05696C5.69093 2.2893 6.20842 1.56469 7.04967 1.32551ZM14.704 1.99055C15.291 1.44325 16.1001 1.0836 16.951 1.32551C17.7922 1.56471 18.3088 2.28938 18.5536 3.05696C18.8025 3.83764 18.8182 4.77932 18.5829 5.71125C18.3477 6.64242 17.8886 7.45626 17.2958 8.00911C16.7089 8.55628 15.9004 8.91581 15.0497 8.67414C14.2084 8.43495 13.691 7.71041 13.4462 6.9427C13.1973 6.16203 13.1825 5.22031 13.4178 4.2884C13.6531 3.35739 14.1112 2.54333 14.704 1.99055ZM8.2733 3.08723C7.9191 2.75699 7.63359 2.71958 7.45983 2.76887C7.27651 2.82099 7.03266 3.02113 6.87584 3.51301C6.72317 3.99192 6.69546 4.64527 6.87194 5.34407C7.04861 6.04348 7.37902 6.58756 7.7274 6.91243C8.08167 7.24263 8.36718 7.28115 8.54088 7.23176C8.72418 7.17958 8.96809 6.97839 9.12487 6.48664C9.2774 6.00786 9.30412 5.35504 9.1278 4.65657C8.95114 3.95702 8.62173 3.41214 8.2733 3.08723ZM16.5409 2.76887C16.3672 2.71949 16.0816 2.75713 15.7274 3.08723C15.379 3.41214 15.0485 3.95702 14.8719 4.65657C14.6956 5.35509 14.7233 6.00786 14.8758 6.48664C15.0326 6.97852 15.2765 7.17964 15.4598 7.23176C15.6337 7.28095 15.9192 7.24259 16.2733 6.91243C16.6216 6.58757 16.9511 6.04342 17.1278 5.34407C17.3042 4.64537 17.2775 3.9919 17.1249 3.51301C16.9682 3.0214 16.7241 2.82112 16.5409 2.76887Z" fill="#1C274C"/>
</svg>
