<svg width="24" height="24" viewBox="0 0 24 24" fill="none" xmlns="http://www.w3.org/2000/svg">
<path d="M13.0537 1.25C14.1864 1.24998 15.112 1.25041 15.8428 1.34863C16.6068 1.45134 17.2692 1.67346 17.7979 2.20215C18.3266 2.73085 18.5487 3.39328 18.6514 4.15723C18.7018 4.53286 18.7273 4.96019 18.7393 5.44043C19.7972 5.61115 20.6639 5.94727 21.3584 6.6416C22.1066 7.38987 22.439 8.33853 22.5967 9.51074C22.7498 10.6499 22.75 12.1058 22.75 13.9434V14.0566C22.75 15.8944 22.7498 17.3501 22.5967 18.4893C22.439 19.6616 22.1067 20.611 21.3584 21.3594C20.6101 22.1073 19.6613 22.439 18.4893 22.5967C17.3501 22.7498 15.8943 22.75 14.0566 22.75H9.94336C8.10571 22.75 6.6499 22.7498 5.51074 22.5967C4.33865 22.439 3.38985 22.1074 2.6416 21.3594C1.89326 20.611 1.56094 19.6616 1.40332 18.4893C1.25015 17.3501 1.24998 15.8944 1.25 14.0566V13.9434C1.24998 12.1058 1.25016 10.6499 1.40332 9.51074C1.56096 8.33853 1.89334 7.38987 2.6416 6.6416C3.3361 5.94715 4.20355 5.61113 5.26172 5.44043C5.27364 4.96019 5.29815 4.53286 5.34863 4.15723C5.45134 3.39328 5.67346 2.73085 6.20215 2.20215C6.73085 1.67346 7.39327 1.45134 8.15723 1.34863C8.88804 1.25041 9.81362 1.24998 10.9463 1.25H13.0537ZM18.75 8.26367C18.7508 9.04948 18.7513 9.67185 18.4902 10.2295C18.2289 10.7872 17.7508 11.1859 17.1465 11.6885C17.1119 11.7172 17.0764 11.7458 17.041 11.7754L16.2842 12.4062C15.3979 13.1448 14.679 13.7436 14.0449 14.1514C13.3844 14.5762 12.7411 14.8447 12 14.8447C11.2589 14.8447 10.6156 14.5762 9.95508 14.1514C9.32109 13.7436 8.60301 13.1447 7.7168 12.4062L6.95898 11.7754C6.92377 11.746 6.88891 11.7171 6.85449 11.6885C6.25008 11.1859 5.771 10.7872 5.50977 10.2295C5.24864 9.67186 5.24916 9.04948 5.25 8.26367V6.96582C4.51908 7.11256 4.05599 7.34835 3.70215 7.70215C3.27895 8.12535 3.02491 8.7049 2.88965 9.71094C2.75148 10.7386 2.75 12.0933 2.75 14C2.75 15.9066 2.75151 17.2615 2.88965 18.2891C3.0249 19.2951 3.279 19.8747 3.70215 20.2979C4.12536 20.7211 4.70485 20.9752 5.71094 21.1104C6.73859 21.2485 8.09323 21.25 10 21.25H14C15.9067 21.25 17.2614 21.2485 18.2891 21.1104C19.2951 20.9752 19.8747 20.7211 20.2979 20.2979C20.721 19.8747 20.9752 19.2951 21.1104 18.2891C21.2485 17.2615 21.25 15.9066 21.25 14C21.25 12.0933 21.2485 10.7386 21.1104 9.71094C20.9751 8.7049 20.721 8.12535 20.2979 7.70215C19.9441 7.34835 19.4809 7.11256 18.75 6.96582V8.26367ZM11 2.75C9.80029 2.75 8.97564 2.75171 8.35645 2.83496C7.75904 2.91532 7.4662 3.05919 7.2627 3.2627C7.05919 3.4662 6.91532 3.75904 6.83496 4.35645C6.75171 4.97564 6.75 5.80029 6.75 7V8.12695C6.75001 9.11789 6.76674 9.37719 6.86816 9.59375C6.96963 9.81016 7.15805 9.98898 7.91895 10.623L8.63867 11.2227C9.57152 12.0001 10.2197 12.5379 10.7666 12.8896C11.2959 13.2301 11.6549 13.3447 12 13.3447C12.3451 13.3447 12.7041 13.2301 13.2334 12.8896C13.7803 12.5379 14.4284 12.0001 15.3613 11.2227L16.0811 10.623C16.8419 9.98898 17.0303 9.81016 17.1318 9.59375C17.2332 9.37719 17.25 9.11789 17.25 8.12695V7C17.25 5.80029 17.2482 4.97564 17.165 4.35645C17.0846 3.75907 16.9409 3.4662 16.7373 3.2627C16.5338 3.0592 16.241 2.91532 15.6436 2.83496C15.0245 2.75171 14.1997 2.75 13 2.75H11ZM13 8.25C13.4142 8.25 13.75 8.58579 13.75 9C13.75 9.41422 13.4142 9.75 13 9.75H11C10.5858 9.75 10.25 9.41422 10.25 9C10.25 8.58579 10.5858 8.25 11 8.25H13ZM14 5.25C14.4142 5.25 14.75 5.58579 14.75 6C14.75 6.41422 14.4142 6.75 14 6.75H10C9.58579 6.75 9.25 6.41422 9.25 6C9.25 5.58579 9.58579 5.25 10 5.25H14Z" fill="#1C274C"/>
</svg>
