<svg width="24" height="24" viewBox="0 0 24 24" fill="none" xmlns="http://www.w3.org/2000/svg">
<path d="M19.4668 8.49023C20.1211 8.71725 20.488 8.88592 20.7168 9.20312C20.9999 9.59591 21 10.1178 21 11.1611V16.8281C21 18.119 20.9999 18.7651 20.6602 19.1797C20.5448 19.3203 20.4047 19.4388 20.2471 19.5293C19.7822 19.7962 19.1455 19.6897 17.8721 19.4775C16.616 19.2682 15.9878 19.1638 15.3652 19.2158C15.1467 19.2341 14.929 19.2667 14.7148 19.3135C14.1045 19.4468 13.5299 19.7341 12.3809 20.3086C10.8813 21.0584 10.1311 21.4332 9.33301 21.5488C9.09259 21.5836 8.84937 21.601 8.60645 21.6006C7.80007 21.5989 7.01126 21.3361 5.43457 20.8105L5.05176 20.6826C4.06173 20.3526 3.56633 20.1878 3.2832 19.7949C3.00013 19.4021 3 18.8804 3 17.8369V12.9072C3 11.2483 2.99987 10.4188 3.48828 9.97266C3.57375 9.8946 3.66845 9.82691 3.76953 9.77051C4.02271 9.62934 4.31602 9.60001 4.69824 9.65625C4.94142 10.8765 5.40055 12.084 6.03418 13.1729C7.00685 14.8443 8.45151 16.3388 10.3027 17.1465C11.3817 17.6172 12.6183 17.6172 13.6973 17.1465C15.5485 16.3388 16.9931 14.8443 17.9658 13.1729C18.8012 11.7372 19.3329 10.0964 19.4668 8.49023ZM12 2C15.3137 2 17.9999 4.55205 18 7.7002C18 10.8236 16.0853 14.469 13.0977 15.7725C12.4012 16.0764 11.5988 16.0764 10.9023 15.7725C7.91468 14.469 6 10.8236 6 7.7002C6.00007 4.55205 8.68633 2 12 2ZM12 6C10.8954 6 10 6.89543 10 8C10 9.10457 10.8954 10 12 10C13.1046 10 14 9.10457 14 8C14 6.89543 13.1046 6 12 6Z" fill="#48465C"/>
</svg>
