<svg width="24" height="24" viewBox="0 0 24 24" fill="none" xmlns="http://www.w3.org/2000/svg">
<path d="M12.0576 1.25C14.3657 1.24999 16.1745 1.24974 17.5859 1.43945C19.0306 1.63369 20.1706 2.03977 21.0654 2.93457C21.9602 3.82938 22.3662 4.96932 22.5605 6.41406C22.7502 7.82544 22.75 9.63432 22.75 11.9424V12.0576C22.75 14.3657 22.7502 16.1745 22.5605 17.5859C22.3662 19.0306 21.9602 20.1706 21.0654 21.0654C20.1706 21.9602 19.0306 22.3662 17.5859 22.5605C16.1745 22.7502 14.3657 22.75 12.0576 22.75H11.9424C9.63432 22.75 7.82544 22.7502 6.41406 22.5605C4.96932 22.3662 3.82938 21.9602 2.93457 21.0654C2.03977 20.1706 1.63369 19.0306 1.43945 17.5859C1.24974 16.1745 1.24999 14.3657 1.25 12.0576V11.9424C1.24999 9.63433 1.24974 7.82544 1.43945 6.41406C1.63369 4.96932 2.03976 3.82938 2.93457 2.93457C3.82938 2.03976 4.96932 1.63369 6.41406 1.43945C7.82544 1.24974 9.63433 1.24999 11.9424 1.25H12.0576ZM12 2.75C9.62178 2.75 7.91326 2.75198 6.61328 2.92676C5.33508 3.09865 4.56472 3.42551 3.99512 3.99512C3.42551 4.56472 3.09865 5.33508 2.92676 6.61328C2.75198 7.91326 2.75 9.62178 2.75 12C2.75 14.3782 2.75198 16.0867 2.92676 17.3867C3.09865 18.6649 3.42551 19.4352 3.99512 20.0049C4.56472 20.5745 5.33508 20.9014 6.61328 21.0732C7.91326 21.248 9.62178 21.25 12 21.25C14.3782 21.25 16.0867 21.248 17.3867 21.0732C18.6649 20.9014 19.4352 20.5745 20.0049 20.0049C20.5745 19.4352 20.9014 18.6649 21.0732 17.3867C21.248 16.0867 21.25 14.3782 21.25 12C21.25 9.62178 21.248 7.91326 21.0732 6.61328C20.9014 5.33508 20.5745 4.56472 20.0049 3.99512C19.4352 3.42551 18.6649 3.09865 17.3867 2.92676C16.0867 2.75198 14.3782 2.75 12 2.75ZM10.9414 5.88184C11.4225 5.64152 11.8744 5.82615 12.1387 5.96973C12.3966 6.11003 12.6959 6.33484 13.0098 6.57031C13.0229 6.58023 13.0365 6.58967 13.0498 6.59961L14.3828 7.59961C14.3939 7.60793 14.4058 7.61666 14.417 7.625C14.632 7.78616 14.8542 7.95288 15.0156 8.11523C15.1985 8.29936 15.417 8.58792 15.417 9C15.417 9.41208 15.1985 9.70064 15.0156 9.88477C14.8542 10.0471 14.6319 10.2138 14.417 10.375C14.4058 10.3834 14.3939 10.3921 14.3828 10.4004L12.25 12L14.3828 13.5996C14.3939 13.6079 14.4058 13.6166 14.417 13.625C14.632 13.7862 14.8542 13.9529 15.0156 14.1152C15.1985 14.2994 15.417 14.5879 15.417 15C15.417 15.4121 15.1985 15.7006 15.0156 15.8848C14.8542 16.0471 14.6319 16.2138 14.417 16.375C14.4058 16.3834 14.3939 16.3921 14.3828 16.4004L13.0498 17.4004C13.0365 17.4104 13.0229 17.4198 13.0098 17.4297C12.6957 17.6653 12.3967 17.8909 12.1387 18.0312C11.8744 18.1748 11.4225 18.3585 10.9414 18.1182C10.4602 17.8776 10.3367 17.405 10.293 17.1074C10.2503 16.8169 10.2499 16.4422 10.25 16.0498V13.6016L8.48047 15.0762C8.16233 15.3412 7.68904 15.2985 7.42383 14.9805C7.15872 14.6623 7.20151 14.1891 7.51953 13.9238L9.82812 12L7.51953 10.0762C7.20151 9.81093 7.15872 9.33767 7.42383 9.01953C7.68904 8.7015 8.16232 8.65871 8.48047 8.92383L10.25 10.3984V7.9502C10.2499 7.55756 10.2503 7.18227 10.293 6.8916C10.3367 6.59401 10.4605 6.12228 10.9414 5.88184ZM11.75 16C11.75 16.1993 11.7505 16.3611 11.7529 16.4941C11.8608 16.4162 11.9909 16.3198 12.1504 16.2002L13.4834 15.2002C13.5879 15.1218 13.6736 15.0572 13.7471 15C13.6736 14.9428 13.5879 14.8782 13.4834 14.7998L11.75 13.5V16ZM11.75 8V10.5L13.4834 9.2002C13.5879 9.12186 13.6736 9.05716 13.7471 9C13.6736 8.94284 13.5879 8.87814 13.4834 8.7998L12.1504 7.7998C11.9909 7.68021 11.8608 7.58377 11.7529 7.50586C11.7505 7.6389 11.75 7.80069 11.75 8Z" fill="#1C274C"/>
</svg>
