<svg width="24" height="24" viewBox="0 0 24 24" fill="none" xmlns="http://www.w3.org/2000/svg">
<path d="M15.6113 1.58398C17.2679 1.34744 18.7498 2.63237 18.75 4.30566V5.68262C19.9395 6.31138 20.75 7.561 20.75 9V19C20.75 21.0711 19.0711 22.75 17 22.75H7C4.92895 22.75 3.25003 21.0711 3.25 19V5H3.25098C3.25008 4.97643 3.25 4.9525 3.25 4.92871C3.25009 4.02255 3.9164 3.25415 4.81348 3.12598L15.6113 1.58398ZM4.75 19C4.75003 20.2426 5.75738 21.25 7 21.25H17C18.2426 21.25 19.25 20.2426 19.25 19V9C19.25 7.76062 18.2479 6.75526 17.0098 6.75H4.75V19ZM14 18.25C14.4142 18.25 14.75 18.5858 14.75 19C14.7499 19.4141 14.4141 19.75 14 19.75H10C9.58586 19.75 9.25011 19.4141 9.25 19C9.25 18.5858 9.58579 18.25 10 18.25H14ZM12 9.25C14.0711 9.25 15.75 10.9289 15.75 13C15.7499 15.071 14.071 16.75 12 16.75C9.929 16.75 8.25011 15.071 8.25 13C8.25 10.9289 9.92893 9.25 12 9.25ZM12 10.75C10.7574 10.75 9.75 11.7574 9.75 13C9.75011 14.2425 10.7575 15.25 12 15.25C13.2425 15.25 14.2499 14.2425 14.25 13C14.25 11.7574 13.2426 10.75 12 10.75ZM15.8232 3.06836L5.02539 4.61133C4.86743 4.63404 4.75009 4.76911 4.75 4.92871C4.75 5.10481 4.89176 5.24802 5.06738 5.25H17.25V4.30566C17.2498 3.54515 16.5762 2.96084 15.8232 3.06836Z" fill="#48465C"/>
</svg>
