<svg width="24" height="24" viewBox="0 0 24 24" fill="none" xmlns="http://www.w3.org/2000/svg">
<path d="M10.7959 16.124C11.4626 15.4376 12.5374 15.4376 13.2041 16.124C14.0385 16.9833 15 18.1721 15 19.084C14.9998 20.6947 13.6568 22 12 22C10.3432 22 9.00017 20.6947 9 19.084C9 18.1721 9.96153 16.9833 10.7959 16.124ZM12.4766 3C15.416 3.00018 17.8371 5.19364 18.1553 8.01465C20.393 8.77989 21.9998 10.8809 22 13.3525C22 16.4008 19.5561 18.8852 16.499 18.9961C16.4716 18.1138 16.0349 17.3118 15.6641 16.7539C15.2479 16.1279 14.7288 15.542 14.2803 15.0801C13.0243 13.7865 10.9758 13.7865 9.71973 15.0801C9.27121 15.542 8.75216 16.1279 8.33594 16.7539C7.96454 17.3126 7.52731 18.1162 7.50098 19H6.28613C3.9192 19 2 17.1037 2 14.7646C2.00003 12.4256 3.91922 10.5293 6.28613 10.5293C6.57011 10.5293 6.84768 10.5572 7.11621 10.6094C6.88716 9.99839 6.76177 9.33713 6.76172 8.64746C6.76172 5.52867 9.32064 3 12.4766 3Z" fill="#48465C"/>
</svg>
