<svg width="24" height="24" viewBox="0 0 24 24" fill="none" xmlns="http://www.w3.org/2000/svg">
<path d="M12 1.25C17.685 1.25 22.3396 5.66286 22.7246 11.25H21.2197C18.9634 11.2523 17.587 11.2835 16.4404 11.6846C14.6153 12.3232 13.1096 13.6149 12.1973 15.2861C12.178 15.288 12.1589 15.2915 12.1396 15.2949C11.0657 15.4828 10.0233 15.4388 9.09473 15.2061C8.69297 15.1054 8.28624 15.3492 8.18555 15.751C8.08489 16.1528 8.3287 16.5595 8.73047 16.6602C9.6164 16.8822 10.572 16.9615 11.5518 16.8809C11.2766 17.9435 11.252 19.2444 11.25 21.2197V22.7246C5.66286 22.3396 1.25 17.685 1.25 12C1.25 6.06294 6.06294 1.25 12 1.25ZM22.7246 12.751C22.6899 13.1321 22.5229 13.4894 22.2529 13.7607L13.7451 22.3105C13.4819 22.5752 13.1242 22.7246 12.751 22.7246V21.1396C12.7562 18.8838 12.7968 17.8037 13.1006 16.9355C13.7288 15.1404 15.1404 13.7288 16.9355 13.1006C17.8037 12.7968 18.8838 12.7562 21.1396 12.751H22.7246ZM9.67969 11.0684C9.46523 10.2685 8.85949 9.73626 8.32617 9.87891C7.79278 10.0219 7.53381 10.7859 7.74805 11.5859C7.96246 12.3861 8.56907 12.9194 9.10254 12.7764C9.63581 12.6333 9.89407 11.8684 9.67969 11.0684ZM15.4756 9.51562C15.2611 8.71546 14.6546 8.18227 14.1211 8.3252C13.5876 8.46814 13.3296 9.23299 13.5439 10.0332C13.7583 10.8333 14.364 11.3664 14.8975 11.2236C15.4309 11.0807 15.69 10.3158 15.4756 9.51562Z" fill="#1C274C"/>
</svg>
