<svg width="24" height="24" viewBox="0 0 24 24" fill="none" xmlns="http://www.w3.org/2000/svg">
<path d="M17 1.75C17.4142 1.75 17.75 2.08579 17.75 2.5V3.32715C18.0099 3.34697 18.2564 3.37201 18.4893 3.40332C19.6615 3.56096 20.6101 3.89332 21.3584 4.6416C22.1066 5.38992 22.439 6.33843 22.5967 7.51074C22.647 7.88543 22.6814 8.29475 22.7041 8.74023C22.734 8.82115 22.75 8.90871 22.75 9C22.75 9.06932 22.7403 9.13648 22.7227 9.2002C22.7497 10.0021 22.75 10.9127 22.75 11.9434V14.0566C22.75 15.8943 22.7498 17.3501 22.5967 18.4893C22.439 19.6615 22.1066 20.6101 21.3584 21.3584C20.6101 22.1066 19.6615 22.439 18.4893 22.5967C17.3501 22.7498 15.8943 22.75 14.0566 22.75H9.94336C8.10571 22.75 6.6499 22.7498 5.51074 22.5967C4.33844 22.439 3.38992 22.1066 2.6416 21.3584C1.89332 20.6101 1.56095 19.6615 1.40332 18.4893C1.25016 17.3501 1.24998 15.8943 1.25 14.0566V11.9434C1.24999 10.9126 1.25032 10.0021 1.27734 9.2002C1.25974 9.13648 1.25 9.06932 1.25 9C1.25 8.90872 1.26603 8.82115 1.2959 8.74023C1.31858 8.29475 1.35294 7.88542 1.40332 7.51074C1.56095 6.33844 1.8933 5.38992 2.6416 4.6416C3.38992 3.8933 4.33844 3.56096 5.51074 3.40332C5.74366 3.37201 5.99006 3.34697 6.25 3.32715V2.5C6.25 2.08579 6.58579 1.75 7 1.75C7.41421 1.75 7.75 2.08579 7.75 2.5V3.2627C8.41197 3.24997 9.14127 3.24999 9.94336 3.25H14.0566C14.8587 3.24999 15.5881 3.24997 16.25 3.2627V2.5C16.25 2.08579 16.5858 1.75 17 1.75ZM2.7627 9.75C2.74993 10.4027 2.75 11.146 2.75 12V14C2.75 15.9067 2.7515 17.2614 2.88965 18.2891C3.02491 19.2951 3.27894 19.8747 3.70215 20.2979C4.12536 20.7211 4.70485 20.9752 5.71094 21.1104C6.73858 21.2485 8.09325 21.25 10 21.25H14C15.9067 21.25 17.2614 21.2485 18.2891 21.1104C19.2951 20.9752 19.8747 20.7211 20.2979 20.2979C20.7211 19.8747 20.9752 19.2951 21.1104 18.2891C21.2485 17.2614 21.25 15.9067 21.25 14V12C21.25 11.146 21.2501 10.4027 21.2373 9.75H2.7627ZM16 13.25C16.4142 13.25 16.75 13.5858 16.75 14V15.25H18C18.4142 15.25 18.75 15.5858 18.75 16C18.75 16.4142 18.4142 16.75 18 16.75H16.75V18C16.75 18.4142 16.4142 18.75 16 18.75C15.5858 18.75 15.25 18.4142 15.25 18V16.75H14C13.5858 16.75 13.25 16.4142 13.25 16C13.25 15.5858 13.5858 15.25 14 15.25H15.25V14C15.25 13.5858 15.5858 13.25 16 13.25ZM10 4.75C8.09324 4.75 6.73859 4.75149 5.71094 4.88965C4.70485 5.02491 4.12536 5.27894 3.70215 5.70215C3.27894 6.12536 3.02491 6.70485 2.88965 7.71094C2.86675 7.88128 2.84805 8.06066 2.83203 8.25H21.168C21.152 8.06066 21.1332 7.88128 21.1104 7.71094C20.9752 6.70485 20.7211 6.12536 20.2979 5.70215C19.8747 5.27894 19.2951 5.02491 18.2891 4.88965C17.2614 4.7515 15.9067 4.75 14 4.75H10Z" fill="#1C274C"/>
</svg>
