<svg width="24" height="24" viewBox="0 0 24 24" fill="none" xmlns="http://www.w3.org/2000/svg">
<path d="M11.0242 6.94922C12.5782 6.22151 13.3551 5.85795 14.0388 6.05176C14.2679 6.11673 14.4837 6.22435 14.6765 6.36914C15.2517 6.80118 15.4723 7.66018 15.9128 9.37891L16.7585 12.6768C17.7518 16.5525 15.4739 19.3344 13.7322 20.8213C13.2008 21.2749 12.9352 21.502 11.907 21.79C10.8787 22.0781 10.5401 22.0203 9.86304 21.9053C7.64345 21.5281 4.33998 20.3093 3.34644 16.4336L2.50171 13.1357C2.06115 11.4169 1.84104 10.5577 2.13257 9.88281C2.23027 9.65664 2.36563 9.45045 2.53296 9.27441C3.03228 8.74925 3.87929 8.65762 5.573 8.47559C6.82727 8.34079 7.45509 8.27377 8.06616 8.125C8.27848 8.07331 8.48941 8.01446 8.698 7.94824C9.29828 7.75768 9.87359 7.48802 11.0242 6.94922ZM12.6609 15.1865C12.0633 15.0242 11.2251 14.9484 10.1941 15.2246C9.16292 15.5009 8.47429 15.9853 8.03784 16.4248C7.82155 16.6427 7.67059 16.8467 7.57007 17.0029C7.51982 17.081 7.48165 17.1474 7.45483 17.1982C7.44144 17.2237 7.43084 17.2455 7.42261 17.2627L7.41187 17.2852L7.40796 17.2939L7.40601 17.2979V17.2998C7.41037 17.302 7.4632 17.3266 8.09351 17.5996L7.40503 17.3008C7.24049 17.6807 7.41492 18.1223 7.79468 18.2871C8.17117 18.4502 8.60889 18.2808 8.7771 17.9082L8.78198 17.8975C8.78988 17.8825 8.80561 17.8536 8.83081 17.8145C8.88123 17.7361 8.9685 17.6171 9.10229 17.4824C9.3663 17.2165 9.82573 16.8764 10.5818 16.6738C11.3377 16.4713 11.9057 16.5355 12.2673 16.6338C12.4506 16.6836 12.5858 16.7435 12.6687 16.7861C12.7101 16.8074 12.7384 16.825 12.7527 16.834L12.7625 16.8398C13.0945 17.0786 13.558 17.0073 13.8025 16.6777C14.0493 16.3452 13.9796 15.8758 13.6472 15.6289L13.6453 15.6279L13.6443 15.626L13.6414 15.624L13.6335 15.6182L13.613 15.6045C13.5972 15.5936 13.5768 15.5799 13.5525 15.5645C13.5038 15.5338 13.4378 15.4947 13.3552 15.4521C13.19 15.3672 12.957 15.267 12.6609 15.1865ZM9.99976 2.05176C10.6833 1.85813 11.4606 2.22162 13.0144 2.94922C14.1648 3.48797 14.7403 3.75769 15.3406 3.94824C15.5493 4.01447 15.76 4.0733 15.9724 4.125C16.5834 4.27376 17.2105 4.34081 18.4646 4.47559C20.1583 4.65763 21.0053 4.74931 21.5046 5.27441C21.672 5.45048 21.8083 5.65657 21.906 5.88281C22.1974 6.55761 21.9774 7.41713 21.5369 9.13574L20.6912 12.4336C20.2616 14.1092 19.3844 15.288 18.3542 16.1172C18.5735 14.9736 18.5685 13.6995 18.2107 12.3037L17.3474 8.93359C17.2962 8.73373 17.2453 8.53784 17.196 8.34961C17.3673 8.27192 17.5774 8.24718 17.7957 8.30566C18.1742 8.40718 18.4045 8.71188 18.4333 9.00781C18.4733 9.41999 18.8395 9.72151 19.2517 9.68164C19.6639 9.64163 19.9664 9.27543 19.9265 8.86328C19.8351 7.92079 19.1424 7.11345 18.1833 6.85645C17.701 6.72729 17.2075 6.75243 16.7664 6.90723L16.7498 6.86328C16.5253 6.2669 16.1969 5.63386 15.5779 5.16895C15.2395 4.91479 14.8568 4.72433 14.448 4.6084C13.6895 4.39336 12.9855 4.53149 12.3845 4.73145C11.8261 4.91724 11.1749 5.2226 10.4597 5.55762L10.3875 5.59082C9.2032 6.14541 8.72938 6.36445 8.2439 6.51855C8.0966 6.56531 7.94801 6.60734 7.79858 6.64551L8.12476 5.37891C8.56525 3.66034 8.78604 2.80125 9.36108 2.36914C9.55393 2.22429 9.77058 2.11673 9.99976 2.05176ZM8.76636 12.083C8.21585 11.3126 7.2137 10.9598 6.25464 11.2168C5.29563 11.4738 4.60402 12.2804 4.51245 13.2227C4.47243 13.635 4.77401 14.002 5.18628 14.042C5.59847 14.082 5.96546 13.7803 6.00562 13.3682C6.03436 13.0722 6.26461 12.7675 6.64331 12.666C7.02193 12.5646 7.37377 12.7131 7.54663 12.9551C7.78748 13.2919 8.25558 13.3696 8.59253 13.1289C8.92947 12.8881 9.00713 12.42 8.76636 12.083ZM14.5623 10.5293C14.0118 9.75915 13.0095 9.40615 12.0505 9.66309C11.0913 9.92009 10.3998 10.7274 10.3083 11.6699C10.2685 12.0821 10.57 12.4482 10.9822 12.4883C11.3944 12.5283 11.7615 12.2267 11.8015 11.8145C11.8303 11.5184 12.0606 11.2138 12.4392 11.1123C12.8178 11.011 13.1697 11.1594 13.3425 11.4014C13.5833 11.7384 14.0514 11.8169 14.3884 11.5762C14.7254 11.3354 14.8031 10.8664 14.5623 10.5293Z" fill="#48465C"/>
</svg>
