<svg width="24" height="24" viewBox="0 0 24 24" fill="none" xmlns="http://www.w3.org/2000/svg">
<path d="M12.0576 1.25C14.3657 1.24999 16.1745 1.24974 17.5859 1.43945C19.0306 1.63369 20.1706 2.03977 21.0654 2.93457C21.9602 3.82938 22.3662 4.96932 22.5605 6.41406C22.7502 7.82544 22.75 9.63432 22.75 11.9424V12.0576C22.75 14.3657 22.7502 16.1745 22.5605 17.5859C22.3662 19.0306 21.9602 20.1706 21.0654 21.0654C20.1706 21.9602 19.0306 22.3662 17.5859 22.5605C16.1745 22.7502 14.3657 22.75 12.0576 22.75H11.9424C9.63432 22.75 7.82544 22.7502 6.41406 22.5605C4.96932 22.3662 3.82938 21.9602 2.93457 21.0654C2.03977 20.1706 1.63369 19.0306 1.43945 17.5859C1.24974 16.1745 1.24999 14.3657 1.25 12.0576V11.9424C1.24999 9.63433 1.24974 7.82544 1.43945 6.41406C1.63369 4.96932 2.03976 3.82938 2.93457 2.93457C3.82938 2.03976 4.96932 1.63369 6.41406 1.43945C7.82544 1.24974 9.63433 1.24999 11.9424 1.25H12.0576ZM13.5781 14.4395C12.565 14.0342 11.435 14.0342 10.4219 14.4395L7.79004 15.4922L8.22949 21.2051C9.263 21.2496 10.4979 21.25 12 21.25C13.5021 21.25 14.737 21.2496 15.7705 21.2051L16.21 15.4922L13.5781 14.4395ZM5.00098 20.6729C5.43177 20.8555 5.95528 20.9848 6.61328 21.0732C6.64708 21.0778 6.68146 21.0826 6.71582 21.0869L6.63086 19.9746L5.00098 20.6729ZM17.2842 21.0869C17.3185 21.0826 17.353 21.0778 17.3867 21.0732C18.0447 20.9848 18.5683 20.8555 18.999 20.6729L17.3691 19.9746L17.2842 21.0869ZM2.75488 13.9336C2.76605 15.3488 2.80347 16.4697 2.92676 17.3867C3.06225 18.3942 3.29397 19.0863 3.66504 19.6133L6.50879 18.3945L6.28613 15.5039L2.75488 13.9336ZM17.7139 15.5039L17.4912 18.3945L20.335 19.6133C20.706 19.0863 20.9377 18.3942 21.0732 17.3867C21.1965 16.4697 21.2339 15.3488 21.2451 13.9336L17.7139 15.5039ZM12 2.75C9.62177 2.75 7.91326 2.75198 6.61328 2.92676C5.33508 3.09865 4.56472 3.42551 3.99512 3.99512C3.42551 4.56472 3.09865 5.33508 2.92676 6.61328C2.75198 7.91326 2.75 9.62178 2.75 12C2.75 12.0988 2.74998 12.1965 2.75 12.293C2.76832 12.2995 2.78663 12.3065 2.80469 12.3145L7.01563 14.1865L9.86426 13.0469C11.2352 12.4986 12.7648 12.4986 14.1357 13.0469L16.9844 14.1865L21.1953 12.3145C21.2134 12.3065 21.2317 12.2995 21.25 12.293V12C21.25 9.62178 21.248 7.91326 21.0732 6.61328C20.9014 5.33508 20.5745 4.56472 20.0049 3.99512C19.4352 3.42551 18.6649 3.09865 17.3867 2.92676C16.0867 2.75198 14.3782 2.75 12 2.75ZM9 9C9.55229 9 10 9.67157 10 10.5C10 11.3284 9.55229 12 9 12C8.44772 12 8 11.3284 8 10.5C8 9.67157 8.44772 9 9 9ZM15 9C15.5523 9 16 9.67157 16 10.5C16 11.3284 15.5523 12 15 12C14.4477 12 14 11.3284 14 10.5C14 9.67157 14.4477 9 15 9Z" fill="#1C274C"/>
</svg>
