<svg width="24" height="24" viewBox="0 0 24 24" fill="none" xmlns="http://www.w3.org/2000/svg">
<path d="M12.8359 1.25C13.5667 1.24998 14.1821 1.25006 14.6807 1.31055C15.2095 1.37474 15.6925 1.51472 16.1162 1.85449C16.54 2.19444 16.7816 2.63618 16.959 3.13867C17.1261 3.61216 17.2595 4.21255 17.418 4.92578L17.6562 5.99414C19.2531 7.49862 20.25 9.6329 20.25 12C20.25 14.3671 19.2531 16.5014 17.6562 18.0059L17.418 19.0742C17.2595 19.7875 17.1261 20.3878 16.959 20.8613C16.7816 21.3638 16.54 21.8056 16.1162 22.1455C15.6925 22.4853 15.2095 22.6252 14.6807 22.6895C14.1821 22.7498 13.5667 22.75 12.8359 22.75H11.1641C10.4333 22.75 9.81783 22.7498 9.31934 22.6895C8.79045 22.6252 8.3075 22.4853 7.88379 22.1455C7.46001 21.8056 7.21845 21.3638 7.04102 20.8613C6.87387 20.3878 6.7405 19.7874 6.58203 19.0742L6.34375 18.0059C4.74687 16.5014 3.75 14.3671 3.75 12C3.75 9.6329 4.74688 7.49862 6.34375 5.99414L6.58203 4.92578C6.7405 4.21256 6.87386 3.61215 7.04102 3.13867C7.21845 2.63618 7.46001 2.19444 7.88379 1.85449C8.3075 1.51473 8.79045 1.37474 9.31934 1.31055C9.81784 1.25006 10.4333 1.24998 11.1641 1.25H12.8359ZM15.8281 19.3096C14.6841 19.91 13.3816 20.25 12 20.25C10.6184 20.25 9.31594 19.91 8.17188 19.3096C8.27476 19.7577 8.36029 20.0939 8.45508 20.3623C8.5816 20.7206 8.69765 20.8756 8.82227 20.9756C8.94688 21.0754 9.12307 21.1544 9.5 21.2002C9.89751 21.2484 10.4213 21.25 11.209 21.25H12.791C13.5787 21.25 14.1024 21.2484 14.5 21.2002C14.8769 21.1544 15.0532 21.0754 15.1777 20.9756C15.3023 20.8756 15.4184 20.7206 15.5449 20.3623C15.6397 20.0939 15.7252 19.7577 15.8281 19.3096ZM12 5.25C8.27208 5.25 5.25 8.27208 5.25 12C5.25 15.7279 8.27208 18.75 12 18.75C15.7279 18.75 18.75 15.7279 18.75 12C18.75 8.27208 15.7279 5.25 12 5.25ZM12 8.17285C12.4141 8.17285 12.7499 8.50874 12.75 8.92285V11.6807L14.5195 13.3828C14.8181 13.6698 14.8281 14.1448 14.541 14.4434C14.254 14.7419 13.779 14.7507 13.4805 14.4639L11.4805 12.541C11.3334 12.3996 11.25 12.204 11.25 12V8.92285C11.2501 8.50874 11.5859 8.17285 12 8.17285ZM11.209 2.75C10.4213 2.75 9.89751 2.75157 9.5 2.7998C9.12278 2.84558 8.9469 2.92542 8.82227 3.02539C8.69771 3.12536 8.58154 3.27955 8.45508 3.6377C8.36029 3.90616 8.27476 4.24239 8.17188 4.69043C9.31594 4.09009 10.6184 3.75 12 3.75C13.3816 3.75 14.6841 4.09009 15.8281 4.69043C15.7252 4.24239 15.6397 3.90616 15.5449 3.6377C15.4185 3.27956 15.3023 3.12536 15.1777 3.02539C15.0531 2.92542 14.8772 2.84558 14.5 2.7998C14.1024 2.75157 13.5787 2.75 12.791 2.75H11.209Z" fill="#1C274C"/>
</svg>
