<svg width="24" height="24" viewBox="0 0 24 24" fill="none" xmlns="http://www.w3.org/2000/svg">
<path d="M14.0612 3.25C15.9036 3.24998 17.3628 3.25023 18.5045 3.40332C19.6793 3.56088 20.6306 3.89259 21.3805 4.64062C22.41 5.66761 22.66 7.08199 22.7389 8.95801L22.7399 8.98242C22.7468 9.14614 22.7539 9.31329 22.7477 9.4541C22.7411 9.60395 22.7179 9.82038 22.5983 10.0342C22.5155 10.182 22.4047 10.2845 22.3307 10.3457C22.2506 10.4121 22.1617 10.4729 22.0768 10.5264C21.9132 10.6296 21.6916 10.7527 21.4323 10.8975L21.4127 10.9082C21.027 11.1236 20.7701 11.533 20.7701 12C20.7701 12.467 21.027 12.8764 21.4127 13.0918L21.4323 13.1025C21.6916 13.2474 21.9132 13.3704 22.0768 13.4736C22.1617 13.5271 22.2506 13.5879 22.3307 13.6543C22.4047 13.7155 22.5155 13.818 22.5983 13.9658C22.7179 14.1797 22.7411 14.396 22.7477 14.5459C22.7539 14.6867 22.7468 14.8538 22.7399 15.0176L22.7389 15.042C22.66 16.9181 22.41 18.3324 21.3805 19.3594C20.6306 20.1074 19.6793 20.4391 18.5045 20.5967C17.3628 20.7497 15.9035 20.75 14.0612 20.75H9.93909C8.09668 20.75 6.6375 20.7497 5.49573 20.5967C4.32094 20.4391 3.36964 20.1074 2.61975 19.3594C1.59033 18.3324 1.34022 16.9181 1.26135 15.042L1.26038 15.0176C1.25346 14.8538 1.24638 14.6867 1.25256 14.5459C1.25915 14.396 1.28238 14.1797 1.40198 13.9658C1.48477 13.818 1.59565 13.7155 1.66956 13.6543C1.7497 13.5879 1.83861 13.5271 1.92346 13.4736C2.08708 13.3704 2.30865 13.2473 2.56799 13.1025L2.58752 13.0918C2.97322 12.8764 3.2301 12.467 3.2301 12C3.2301 11.533 2.97322 11.1236 2.58752 10.9082L2.56799 10.8975C2.30865 10.7527 2.08709 10.6296 1.92346 10.5264C1.83861 10.4729 1.74971 10.4121 1.66956 10.3457C1.59565 10.2845 1.48476 10.182 1.40198 10.0342C1.28238 9.82038 1.25915 9.60395 1.25256 9.4541C1.24637 9.31329 1.25346 9.14614 1.26038 8.98242C1.26072 8.97436 1.26101 8.96605 1.26135 8.95801C1.34022 7.08199 1.59034 5.66761 2.61975 4.64062C3.36964 3.89259 4.32094 3.56088 5.49573 3.40332C6.6375 3.25023 8.09668 3.24998 9.93909 3.25H14.0612ZM9.99475 4.75C8.08358 4.75 6.72538 4.75148 5.69495 4.88965C4.68594 5.02497 4.1039 5.27872 3.67932 5.70215C3.09158 6.28843 2.83844 7.1648 2.76038 9.02051C2.75642 9.11482 2.75323 9.18994 2.75159 9.25391C2.7514 9.26086 2.75074 9.26796 2.75061 9.27441C2.87527 9.35138 3.05465 9.45103 3.31897 9.59863C4.15881 10.0676 4.7301 10.9664 4.7301 12C4.7301 13.0336 4.15881 13.9324 3.31897 14.4014C3.05465 14.549 2.87527 14.6486 2.75061 14.7256C2.75075 14.732 2.7514 14.7392 2.75159 14.7461C2.75322 14.81 2.75643 14.8844 2.76038 14.9785C2.83842 16.8346 3.09153 17.7116 3.67932 18.2979C4.10389 18.7213 4.68595 18.9751 5.69495 19.1104C6.72538 19.2485 8.08358 19.25 9.99475 19.25H14.0055C15.9167 19.25 17.2749 19.2485 18.3053 19.1104C19.3143 18.9751 19.8963 18.7213 20.3209 18.2979C20.9086 17.7116 21.1619 16.8346 21.2399 14.9785C21.2439 14.8844 21.2471 14.81 21.2487 14.7461C21.2489 14.7392 21.2495 14.732 21.2496 14.7256C21.1249 14.6486 20.9456 14.549 20.6813 14.4014C19.8414 13.9324 19.2701 13.0336 19.2701 12C19.2701 10.9664 19.8414 10.0676 20.6813 9.59863C20.9456 9.45103 21.1249 9.35139 21.2496 9.27441C21.2495 9.26798 21.2489 9.26087 21.2487 9.25391C21.2471 9.18995 21.2439 9.11481 21.2399 9.02051C21.1618 7.1648 20.9086 6.28843 20.3209 5.70215C19.8963 5.27873 19.3143 5.02497 18.3053 4.88965C17.2749 4.75148 15.9167 4.75 14.0055 4.75H9.99475ZM14.4694 8.46973C14.7623 8.17684 15.238 8.17684 15.5309 8.46973C15.8234 8.76255 15.8234 9.23745 15.5309 9.53027L9.53088 15.5303C9.23799 15.8232 8.76225 15.8232 8.46936 15.5303C8.17678 15.2374 8.17678 14.7626 8.46936 14.4697L14.4694 8.46973ZM14.4996 13.5C15.0519 13.5 15.4996 13.9477 15.4996 14.5C15.4996 15.0523 15.0519 15.5 14.4996 15.5C13.9475 15.4998 13.4996 15.0522 13.4996 14.5C13.4996 13.9478 13.9475 13.5002 14.4996 13.5ZM9.49963 8.5C10.0519 8.5 10.4996 8.94772 10.4996 9.5C10.4996 10.0523 10.0519 10.5 9.49963 10.5C8.94754 10.4998 8.49963 10.0522 8.49963 9.5C8.49963 8.94786 8.94754 8.50023 9.49963 8.5Z" fill="#1C274C"/>
</svg>
