<svg width="24" height="24" viewBox="0 0 24 24" fill="none" xmlns="http://www.w3.org/2000/svg">
<path d="M9.75488 10.3062L13.3076 14.6118C13.4576 14.7938 13.6161 14.9862 13.7705 15.1274C13.9489 15.2904 14.2168 15.4768 14.5898 15.4849C14.9628 15.4928 15.2388 15.3187 15.4238 15.1636C15.5842 15.0291 15.7504 14.843 15.9082 14.6675L16.9639 13.4956C17.4484 12.9573 17.5515 12.8646 17.6631 12.8149C17.7747 12.7653 17.9125 12.7505 18.6357 12.7505H20.9951C19.6141 15.3123 17.0694 17.7142 15.0381 19.3706C13.7061 20.4568 13.0403 21.0005 12 21.0005C10.9597 21.0005 10.2939 20.4568 8.96191 19.3706C6.93056 17.7142 4.38588 15.3123 3.00488 12.7505H5.40039C5.89259 12.7512 6.32939 12.7517 6.73535 12.5894C7.14131 12.4269 7.45758 12.1256 7.81348 11.7856L9.38965 10.2837C9.46634 10.2106 9.52913 10.1516 9.58398 10.1011C9.63243 10.1578 9.68743 10.2244 9.75488 10.3062ZM12 5.49854C16.4997 0.662825 21.9998 3.34951 22 9.26025C22 9.92002 21.8756 10.587 21.6543 11.2505H18.5244C17.9787 11.2496 17.4937 11.2485 17.0527 11.4448C16.6116 11.6412 16.2875 12.0023 15.9229 12.4087L15.8486 12.4917L14.8193 13.6353C14.7429 13.7202 14.6802 13.7899 14.625 13.8491C14.5726 13.7877 14.5131 13.7156 14.4404 13.6274L10.8887 9.32373C10.7491 9.15446 10.6001 8.97279 10.4541 8.83838C10.284 8.68187 10.0322 8.50597 9.68066 8.48486C9.3293 8.46385 9.05864 8.60865 8.87109 8.74365C8.71019 8.85951 8.54047 9.02117 8.38184 9.17236L6.85156 10.6294C6.37993 11.0786 6.28165 11.1557 6.17871 11.1968C6.07574 11.238 5.9513 11.2505 5.2998 11.2505H2.3457C2.12434 10.587 2 9.92 2 9.26025C2.00024 3.34969 7.5003 0.662836 12 5.49854Z" fill="#1C274C"/>
</svg>
