<svg width="24" height="24" viewBox="0 0 24 24" fill="none" xmlns="http://www.w3.org/2000/svg">
<path d="M15.3005 1.25C15.5201 1.24994 15.6884 1.24987 15.8357 1.26562C17.1898 1.41095 18.2269 2.52306 18.2898 3.87012C19.4804 4.2257 20.3289 5.32733 20.3445 6.59082C20.9454 6.77115 21.4641 7.0563 21.8884 7.51465C22.5401 8.21883 22.7421 9.08697 22.7498 10.1006C22.7571 11.0752 22.5836 12.3067 22.3679 13.8359L21.9285 16.9502C21.7599 18.1461 21.623 19.1176 21.4099 19.8789C21.1869 20.6755 20.8583 21.3311 20.2498 21.835C19.6462 22.3346 18.9301 22.5498 18.0837 22.6514C17.2652 22.7496 16.235 22.75 14.9529 22.75H9.04663C7.76477 22.75 6.7352 22.7495 5.91675 22.6514C5.07021 22.5498 4.35345 22.3348 3.74976 21.835C3.14132 21.3311 2.81255 20.6755 2.5896 19.8789C2.37651 19.1176 2.23963 18.1461 2.07104 16.9502L1.63257 13.8359C1.41693 12.3066 1.24239 11.0752 1.24976 10.1006C1.25745 9.08683 1.46015 8.21888 2.11206 7.51465C2.53629 7.05641 3.05423 6.77116 3.65503 6.59082C3.67054 5.32733 4.51915 4.22569 5.70972 3.87012C5.77262 2.52309 6.80966 1.41095 8.16382 1.26562C8.31103 1.24985 8.47942 1.24994 8.69897 1.25H15.3005ZM8.67261 7.75C6.96388 7.75 5.75733 7.75125 4.8562 7.87109C3.97122 7.9888 3.51555 8.20607 3.21265 8.5332C2.91683 8.85273 2.75606 9.28769 2.74976 10.1113C2.74331 10.9614 2.89938 12.083 3.12573 13.6885L3.54956 16.6885C3.7273 17.949 3.85101 18.821 4.03394 19.4746C4.21015 20.1041 4.4181 20.4407 4.70679 20.6797C5.00027 20.9226 5.39459 21.078 6.09546 21.1621C6.81417 21.2484 7.75372 21.25 9.09546 21.25H14.905C16.2467 21.25 17.1864 21.2484 17.905 21.1621C18.6058 21.078 19.0002 20.9227 19.2937 20.6797C19.5822 20.4407 19.7894 20.104 19.9656 19.4746C20.1486 18.8209 20.2731 17.9491 20.4509 16.6885L20.8738 13.6885C21.1002 12.083 21.2563 10.9614 21.2498 10.1113C21.2435 9.28769 21.0827 8.85272 20.7869 8.5332C20.484 8.20623 20.0288 7.98879 19.1443 7.87109C18.2431 7.75124 17.0365 7.75 15.3279 7.75H8.67261ZM11.9998 9.75C12.414 9.75 12.7498 10.0858 12.7498 10.5C12.7498 11.0386 13.0656 11.6008 13.5837 12.0605C14.1145 12.5314 14.6943 12.7499 14.9998 12.75C15.414 12.75 15.7498 13.0858 15.7498 13.5C15.7498 13.9142 15.414 14.25 14.9998 14.25C14.2615 14.2499 13.4199 13.863 12.7498 13.3193V17C12.7498 18.2427 11.7424 19.25 10.4998 19.25C9.25722 19.2499 8.24976 18.2426 8.24976 17C8.24976 15.7575 9.25722 14.7501 10.4998 14.75C10.7627 14.75 11.0152 14.7951 11.2498 14.8779V10.5C11.2498 10.0859 11.5857 9.75012 11.9998 9.75ZM10.4998 16.25C10.0857 16.2501 9.74976 16.5859 9.74976 17C9.74976 17.4141 10.0857 17.7499 10.4998 17.75C10.914 17.75 11.2498 17.4142 11.2498 17C11.2498 16.5858 10.914 16.25 10.4998 16.25ZM6.53784 5.25C5.86894 5.25 5.32637 5.72047 5.18921 6.32812C6.11496 6.25028 7.24985 6.24999 8.61597 6.25H15.3835C16.7495 6.24999 17.8846 6.25032 18.8103 6.32812C18.6732 5.72049 18.1306 5.25 17.4617 5.25H6.53784ZM8.74097 2.75C8.46073 2.75 8.38024 2.75083 8.32397 2.75684C7.77378 2.81588 7.33871 3.22634 7.23218 3.75H16.7673C16.6607 3.22648 16.2265 2.81604 15.6765 2.75684C15.6202 2.7508 15.5393 2.75 15.2585 2.75H8.74097Z" fill="#48465C"/>
</svg>
