<svg width="24" height="24" viewBox="0 0 24 24" fill="none" xmlns="http://www.w3.org/2000/svg">
<path d="M9.5 4C12.7875 4 14.4317 4.00024 15.5381 4.9082C15.7404 5.07434 15.9257 5.26049 16.0918 5.46289C16.7933 6.31774 16.9531 7.49316 16.9893 9.5L17.6582 9.1709C19.604 8.19796 20.5777 7.7117 21.2891 8.15137C22 8.59123 22 9.6794 22 11.8545V12.1455C22 14.3206 22 15.4089 21.2891 15.8486C20.5777 16.2883 19.604 15.802 17.6582 14.8291L16.9893 14.5C16.9531 16.507 16.7934 17.6832 16.0918 18.5381C15.9258 18.7403 15.7403 18.9258 15.5381 19.0918C14.4317 19.9998 12.7875 20 9.5 20C6.21269 20 4.56924 19.9997 3.46289 19.0918C3.26049 18.9257 3.07434 18.7404 2.9082 18.5381C2.00024 17.4317 2 15.7875 2 12.5V11.5C2 8.21267 2.00037 6.56924 2.9082 5.46289C3.07442 5.26035 3.26035 5.07442 3.46289 4.9082C4.56924 4.00037 6.21267 4 9.5 4Z" fill="#1C274C"/>
</svg>
