<svg width="24" height="24" viewBox="0 0 24 24" fill="none" xmlns="http://www.w3.org/2000/svg">
<path d="M12 1.25C13.6418 1.25 15.0987 1.71135 16.1484 2.71582C17.103 3.62937 17.6415 4.916 17.7354 6.49219C17.935 6.5543 18.131 6.6282 18.3223 6.71289C20.3398 7.60579 21.75 9.68683 21.75 12.0996C21.7499 14.4602 20.733 16.2565 19.4131 17.6953C18.3577 18.846 17.0653 19.8095 15.9307 20.6553C15.6742 20.8464 15.4253 21.0319 15.1895 21.2119C14.7291 21.5632 14.23 21.941 13.7236 22.2275C13.2168 22.5142 12.6344 22.75 12 22.75C11.3656 22.75 10.7832 22.5142 10.2764 22.2275C9.76996 21.941 9.2709 21.5632 8.81055 21.2119C8.57492 21.0321 8.32661 20.8463 8.07031 20.6553C6.93561 19.8095 5.64247 18.8461 4.58691 17.6953C3.26709 16.2565 2.25012 14.4602 2.25 12.0996C2.25 9.68683 3.66028 7.60579 5.67773 6.71289C5.86911 6.6282 6.06504 6.5543 6.26465 6.49219C6.35861 4.916 6.89702 3.62937 7.85156 2.71582C8.90128 1.71135 10.3582 1.25 12 1.25ZM17.7148 8.08398C16.2862 7.45194 14.3627 7.61804 12.5322 9.45898C12.3914 9.60058 12.1997 9.68066 12 9.68066C11.8003 9.68066 11.6086 9.60058 11.4678 9.45898C9.63735 7.61804 7.71377 7.45193 6.28516 8.08398C4.81519 8.7345 3.75 10.2752 3.75 12.0996C3.75012 13.9758 4.54164 15.4271 5.69238 16.6816C6.6426 17.7175 7.79256 18.5758 8.9209 19.418C9.18963 19.6186 9.45737 19.8186 9.7207 20.0195C10.1944 20.381 10.6128 20.6945 11.0146 20.9219C11.4164 21.1492 11.7344 21.25 12 21.25C12.2656 21.25 12.5836 21.1492 12.9854 20.9219C13.3872 20.6945 13.8056 20.381 14.2793 20.0195C14.5426 19.8186 14.8105 19.6185 15.0791 19.418C16.2075 18.5757 17.3573 17.7175 18.3076 16.6816C19.4583 15.4271 20.2499 13.9758 20.25 12.0996C20.25 10.2752 19.1848 8.7345 17.7148 8.08398ZM12 11.25C12.4142 11.25 12.75 11.5858 12.75 12V14.5C12.75 14.9142 12.4142 15.25 12 15.25C11.5858 15.25 11.25 14.9142 11.25 14.5V12C11.25 11.5858 11.5858 11.25 12 11.25ZM12 2.75C10.6295 2.75 9.58583 3.13178 8.88867 3.79883C8.31864 4.34429 7.91444 5.14341 7.79004 6.25C9.17089 6.23201 10.6376 6.74208 12 7.90723C13.3624 6.74208 14.8291 6.23201 16.21 6.25C16.0856 5.14341 15.6813 4.34429 15.1113 3.79883C14.4141 3.1318 13.3705 2.75 12 2.75Z" fill="#1C274C"/>
</svg>
