<svg width="24" height="24" viewBox="0 0 24 24" fill="none" xmlns="http://www.w3.org/2000/svg">
<path d="M18.0256 14.9277C18.5604 15.769 18.8421 16.2844 18.9231 16.8291C19.0114 17.4235 18.9318 18.0397 18.6936 18.6104C18.4235 19.2575 17.0785 20.5989 15.9583 21.7158L15.8743 21.7998C15.5269 22.1457 14.9295 22.0263 14.7493 21.5752C14.5281 21.0204 14.4171 20.7421 14.2747 20.4824C14.1483 20.2519 14.0032 20.0321 13.8411 19.8252C13.718 19.6682 13.5811 19.5215 13.3762 19.3135C13.6632 19.1379 13.9238 18.9327 14.1614 18.7275C14.5577 18.3853 14.9959 17.9482 15.4739 17.4717L18.0256 14.9277ZM18.1155 2C19.9466 2 20.8621 2.00024 21.4309 2.56738C21.9998 3.13454 22.0002 4.04741 22.0002 5.87305V6.44043C22.0002 7.62735 22.0003 8.22118 21.7786 8.75488C21.5568 9.28859 21.1352 9.70844 20.2932 10.5479L14.4465 16.377C13.438 17.3825 12.8222 17.9965 12.219 18.2188C12.0479 18.2817 11.8772 18.3135 11.6995 18.3135C10.8952 18.3132 10.2479 17.6676 8.95337 16.377L8.81567 16.2402L10.8606 14.165C11.1513 13.8699 11.1478 13.3952 10.8528 13.1045C10.5577 12.8139 10.083 12.8172 9.79224 13.1123L7.75415 15.1816L7.58032 15.0078C6.28569 13.7171 5.63812 13.0715 5.63794 12.2695C5.63794 12.077 5.67463 11.8926 5.74927 11.707C5.9856 11.1196 6.59656 10.512 7.58032 9.53125L13.427 3.70117C14.2688 2.8619 14.6896 2.44179 15.2249 2.2207C15.7603 1.9996 16.3563 2 17.5471 2H18.1155ZM5.33911 5.29688C5.91144 5.05941 6.52992 4.9803 7.12622 5.06836C7.67269 5.14912 8.19019 5.42952 9.03442 5.96289L6.49146 8.49902C6.02406 8.96501 5.59472 9.3919 5.2561 9.77832C5.03863 10.0265 4.82104 10.2985 4.63696 10.5986L4.5188 10.4805C4.07681 10.0516 3.55656 9.71045 2.98657 9.47559C2.95619 9.46307 2.92505 9.45113 2.86353 9.42676L2.48462 9.27637C1.97167 9.07311 1.83455 8.41258 2.22485 8.02344C3.34489 6.9068 4.6899 5.56649 5.33911 5.29688ZM17.1936 6.79297C16.4351 6.03676 15.205 6.03676 14.4465 6.79297C13.6883 7.54917 13.6882 8.77512 14.4465 9.53125C15.205 10.2874 16.4351 10.2874 17.1936 9.53125C17.952 8.77511 17.9519 7.54918 17.1936 6.79297Z" fill="#48465C"/>
</svg>
