<svg width="24" height="24" viewBox="0 0 24 24" fill="none" xmlns="http://www.w3.org/2000/svg">
<path d="M3.70703 2.40527C4.41423 1.78451 5.49544 1.97043 7.65723 2.34375L8.71191 2.52637C10.3522 2.80962 11.1724 2.95117 12 2.95117C12.8276 2.95117 13.6478 2.80962 15.2881 2.52637L16.3428 2.34375C18.5046 1.97043 19.5858 1.78451 20.293 2.40527C20.9999 3.02613 21 4.16095 21 6.42969V11.9014C21 17.5902 16.7612 20.3512 14.1016 21.5234C13.3802 21.8414 13.0193 22 12 22C10.9807 22 10.6199 21.8414 9.89844 21.5234C7.23884 20.3512 3 17.5902 3 11.9014V6.42969C3 4.16092 3.00009 3.02612 3.70703 2.40527ZM16.043 13.4375C15.7598 13.1297 15.2914 13.1156 14.9912 13.4033H14.9902C14.9883 13.4051 14.9833 13.4095 14.9756 13.416C14.9576 13.4313 14.9234 13.4593 14.873 13.4951C14.7723 13.5667 14.6054 13.6717 14.3672 13.7803C13.8922 13.9966 13.1196 14.2324 12 14.2324C10.8804 14.2324 10.1079 13.9966 9.63281 13.7803C9.39454 13.6717 9.22769 13.5667 9.12695 13.4951C9.09122 13.4697 9.04381 13.4316 9.02441 13.416C8.72419 13.1276 8.24036 13.1294 7.95703 13.4375C7.67142 13.7482 7.68852 14.246 7.98828 14.542L7.99023 14.5439C8.00227 14.5552 8.05203 14.6006 8.0752 14.6201C8.12418 14.6616 8.19201 14.7151 8.27832 14.7764C8.45101 14.899 8.69943 15.0528 9.0293 15.2031C9.69177 15.5048 10.6696 15.7871 12 15.7871C13.3304 15.7871 14.3082 15.5048 14.9707 15.2031C15.3005 15.0528 15.549 14.8991 15.7217 14.7764C15.808 14.7151 15.8758 14.6616 15.9248 14.6201C15.9492 14.5995 15.969 14.5814 15.9844 14.5674L16.0039 14.5488L16.0117 14.542L16.0176 14.5361C16.3172 14.2401 16.3285 13.7482 16.043 13.4375ZM8.5 6.97949C7.39659 6.97949 6.28793 7.49415 5.8291 8.44531C5.64395 8.82924 5.79451 9.29644 6.16504 9.48828C6.53543 9.67985 6.98572 9.52427 7.1709 9.14062C7.29437 8.8846 7.75678 8.53418 8.5 8.53418C9.24322 8.53418 9.70563 8.8846 9.8291 9.14062C10.0143 9.52428 10.4646 9.67988 10.835 9.48828C11.2056 9.29644 11.3561 8.82924 11.1709 8.44531C10.712 7.49415 9.60341 6.97949 8.5 6.97949ZM15.5 6.97949C14.3966 6.97949 13.288 7.49415 12.8291 8.44531C12.6439 8.82924 12.7944 9.29644 13.165 9.48828C13.5354 9.67988 13.9857 9.52428 14.1709 9.14062C14.2944 8.8846 14.7568 8.53418 15.5 8.53418C16.2432 8.53418 16.7056 8.8846 16.8291 9.14062C17.0143 9.52428 17.4646 9.67988 17.835 9.48828C18.2056 9.29644 18.3561 8.82924 18.1709 8.44531C17.712 7.49415 16.6034 6.97949 15.5 6.97949Z" fill="#48465C"/>
</svg>
