<svg width="24" height="24" viewBox="0 0 24 24" fill="none" xmlns="http://www.w3.org/2000/svg">
<path d="M12.0312 1.25C12.3428 1.24998 12.5445 1.24955 12.751 1.26758C13.7138 1.35162 14.6514 1.74097 15.3916 2.3623C15.5504 2.49559 15.6956 2.64093 15.9209 2.86621L15.9443 2.88867L21.1338 8.0791C21.359 8.30437 21.5044 8.44963 21.6377 8.6084C22.2591 9.34859 22.6484 10.2862 22.7324 11.249C22.7504 11.4555 22.75 11.6573 22.75 11.9688V12.0576C22.75 14.3657 22.7502 16.1745 22.5605 17.5859C22.3662 19.0306 21.9602 20.1706 21.0654 21.0654C20.1706 21.9602 19.0306 22.3662 17.5859 22.5605C16.1745 22.7502 14.3657 22.75 12.0576 22.75H11.9424C9.63432 22.75 7.82544 22.7502 6.41406 22.5605C4.96932 22.3662 3.82938 21.9602 2.93457 21.0654C2.03978 20.1706 1.63369 19.0306 1.43945 17.5859C1.24974 16.1745 1.24999 14.3657 1.25 12.0576V11.9424C1.24999 9.63433 1.24974 7.82544 1.43945 6.41406C1.63369 4.96932 2.03976 3.82938 2.93457 2.93457C3.82938 2.03976 4.96932 1.63369 6.41406 1.43945C7.82544 1.24974 9.63433 1.24999 11.9424 1.25H12.0312ZM12 2.75C9.62178 2.75 7.91326 2.75199 6.61328 2.92676C5.33508 3.09865 4.56472 3.42551 3.99512 3.99512C3.42551 4.56472 3.09865 5.33509 2.92676 6.61328C2.75198 7.91326 2.75 9.62178 2.75 12C2.75 14.3782 2.75198 16.0867 2.92676 17.3867C3.09865 18.6649 3.42551 19.4352 3.99512 20.0049C4.56472 20.5745 5.33508 20.9014 6.61328 21.0732C7.91326 21.248 9.62178 21.25 12 21.25C14.3782 21.25 16.0867 21.248 17.3867 21.0732C18.6649 20.9014 19.4352 20.5745 20.0049 20.0049C20.5745 19.4352 20.9014 18.6649 21.0732 17.3867C21.248 16.0867 21.25 14.3782 21.25 12C21.25 11.6472 21.249 11.5135 21.2373 11.3799C21.18 10.724 20.9126 10.0765 20.4893 9.57227C20.4031 9.46956 20.3058 9.3722 20.0498 9.11621L14.8838 3.9502C14.6278 3.69421 14.5304 3.59697 14.4277 3.51074C13.9234 3.08744 13.276 2.81995 12.6201 2.7627C12.4865 2.75105 12.3528 2.75 12 2.75ZM7 5.25C7.41421 5.25 7.75 5.58579 7.75 6V9C7.75 9.41422 7.41421 9.75 7 9.75C6.58579 9.75 6.25 9.41422 6.25 9V6C6.25 5.58579 6.58579 5.25 7 5.25ZM10 5.25C10.4142 5.25 10.75 5.58579 10.75 6V9C10.75 9.41422 10.4142 9.75 10 9.75C9.58579 9.75 9.25 9.41422 9.25 9V6C9.25 5.58579 9.58579 5.25 10 5.25ZM13 5.25C13.4142 5.25 13.75 5.58579 13.75 6V9C13.75 9.41422 13.4142 9.75 13 9.75C12.5858 9.75 12.25 9.41422 12.25 9V6C12.25 5.58579 12.5858 5.25 13 5.25Z" fill="#48465C"/>
</svg>
