<svg width="24" height="24" viewBox="0 0 24 24" fill="none" xmlns="http://www.w3.org/2000/svg">
<path d="M11.5566 3.25C13.3943 3.24998 14.8501 3.25016 15.9893 3.40332C17.1615 3.56095 18.1101 3.89332 18.8584 4.6416C19.6066 5.38992 19.939 6.33844 20.0967 7.51074C20.1657 8.02415 20.2038 8.60206 20.2246 9.25C20.5874 9.2507 20.9198 9.25566 21.1973 9.29297C21.5528 9.34076 21.9283 9.45368 22.2373 9.7627C22.5464 10.0717 22.6592 10.4472 22.707 10.8027C22.7504 11.1255 22.7501 11.5223 22.75 11.9551V12.0449C22.7501 12.4777 22.7504 12.8745 22.707 13.1973C22.6592 13.5528 22.5464 13.9283 22.2373 14.2373C21.9283 14.5464 21.5528 14.6592 21.1973 14.707C20.9198 14.7443 20.5874 14.7493 20.2246 14.75C20.2038 15.398 20.1657 15.9759 20.0967 16.4893C19.939 17.6615 19.6066 18.6101 18.8584 19.3584C18.1101 20.1066 17.1615 20.439 15.9893 20.5967C14.8501 20.7498 13.3943 20.75 11.5566 20.75H9.94336C8.1057 20.75 6.64991 20.7498 5.51074 20.5967C4.33844 20.439 3.38992 20.1066 2.6416 19.3584C1.89332 18.6101 1.56095 17.6615 1.40332 16.4893C1.25016 15.3501 1.24998 13.8943 1.25 12.0566V11.9434C1.24998 10.1057 1.25016 8.6499 1.40332 7.51074C1.56095 6.33844 1.8933 5.38992 2.6416 4.6416C3.38992 3.8933 4.33844 3.56095 5.51074 3.40332C6.64991 3.25016 8.10571 3.24998 9.94336 3.25H11.5566ZM10 4.75C8.09324 4.75 6.73858 4.75149 5.71094 4.88965C4.70485 5.02491 4.12536 5.27894 3.70215 5.70215C3.27894 6.12536 3.02491 6.70485 2.88965 7.71094C2.75149 8.73858 2.75 10.0933 2.75 12C2.75 13.9067 2.7515 15.2614 2.88965 16.2891C3.02491 17.2951 3.27894 17.8747 3.70215 18.2979C4.12536 18.7211 4.70485 18.9752 5.71094 19.1104C6.73858 19.2485 8.09325 19.25 10 19.25H11.5C13.4067 19.25 14.7614 19.2485 15.7891 19.1104C16.7951 18.9752 17.3747 18.7211 17.7979 18.2979C18.2211 17.8747 18.4752 17.2951 18.6104 16.2891C18.7485 15.2614 18.75 13.9067 18.75 12C18.75 10.0933 18.7485 8.73858 18.6104 7.71094C18.4752 6.70485 18.2211 6.12536 17.7979 5.70215C17.3747 5.27894 16.7951 5.02491 15.7891 4.88965C14.7614 4.7515 13.4067 4.75 11.5 4.75H10ZM6.63574 8.34473C6.99778 8.14359 7.45407 8.27376 7.65527 8.63574L7 9C7.61889 8.65617 7.6541 8.63742 7.65625 8.63672L7.65723 8.63867L7.65918 8.6416L7.66309 8.64844L7.67285 8.66699C7.68005 8.68097 7.68909 8.69845 7.69922 8.71973C7.71968 8.7627 7.74504 8.82113 7.77441 8.89453C7.83327 9.0417 7.90599 9.25115 7.97656 9.52637C8.11781 10.0773 8.25 10.89 8.25 12C8.24999 13.11 8.11782 13.9227 7.97656 14.4736C7.90599 14.7488 7.83327 14.9583 7.77441 15.1055C7.74517 15.1786 7.71963 15.2364 7.69922 15.2793C7.689 15.3007 7.68009 15.3189 7.67285 15.333L7.66309 15.3516L7.65918 15.3584L7.65723 15.3613L7.65625 15.3633L7.65527 15.3643C7.45402 15.7261 6.99772 15.8564 6.63574 15.6553C6.2769 15.4558 6.14601 15.0051 6.33984 14.6445L6.34473 14.6348C6.35159 14.6204 6.3644 14.5915 6.38184 14.5479C6.4167 14.4607 6.46906 14.3136 6.52344 14.1016C6.63216 13.6776 6.74999 12.9898 6.75 12C6.75 11.0101 6.63217 10.3225 6.52344 9.89844C6.46908 9.68648 6.41671 9.53935 6.38184 9.45215C6.36446 9.40871 6.35161 9.3797 6.34473 9.36523L6.33984 9.35449C6.14614 8.99404 6.27702 8.54424 6.63574 8.34473ZM10.1357 8.34473C10.4978 8.14359 10.9541 8.27375 11.1553 8.63574L11.1562 8.63672L11.1572 8.63867L11.1592 8.6416L11.1631 8.64844L11.1729 8.66699C11.18 8.68089 11.1882 8.69861 11.1982 8.71973C11.2187 8.7627 11.2451 8.82113 11.2744 8.89453C11.3333 9.0417 11.406 9.25115 11.4766 9.52637C11.6178 10.0773 11.75 10.89 11.75 12C11.75 13.11 11.6179 13.9227 11.4766 14.4736C11.406 14.7488 11.3333 14.9583 11.2744 15.1055C11.2451 15.1788 11.2187 15.2364 11.1982 15.2793C11.1881 15.3008 11.18 15.3189 11.1729 15.333L11.1631 15.3516L11.1592 15.3584L11.1572 15.3613L11.1562 15.3633C11.1544 15.3627 11.1218 15.3454 10.5 15L11.1553 15.3643C10.9541 15.7261 10.4977 15.8564 10.1357 15.6553C9.77689 15.4558 9.64602 15.0051 9.83984 14.6445L9.84473 14.6348C9.85159 14.6204 9.8644 14.5915 9.88184 14.5479C9.9167 14.4607 9.96908 14.3136 10.0234 14.1016C10.1321 13.6776 10.25 12.9898 10.25 12C10.25 11.0101 10.1321 10.3225 10.0234 9.89844C9.9691 9.68647 9.91671 9.53935 9.88184 9.45215C9.86446 9.40871 9.85161 9.3797 9.84473 9.36523L9.83984 9.35449C9.64615 8.99405 9.77701 8.54424 10.1357 8.34473ZM20.75 13.2402C20.8449 13.2358 20.9257 13.2293 20.9971 13.2197C21.0937 13.2067 21.1424 13.1916 21.1641 13.1826C21.1689 13.1807 21.1719 13.1787 21.1738 13.1777L21.1768 13.1768L21.1777 13.1738C21.1787 13.1719 21.1807 13.1689 21.1826 13.1641C21.1916 13.1424 21.2067 13.0937 21.2197 12.9971C21.248 12.7864 21.25 12.4925 21.25 12C21.25 11.5075 21.248 11.2136 21.2197 11.0029C21.2067 10.9063 21.1916 10.8576 21.1826 10.8359C21.1807 10.8311 21.1787 10.8281 21.1777 10.8262L21.1768 10.8232L21.1738 10.8223C21.1719 10.8213 21.1689 10.8193 21.1641 10.8174C21.1424 10.8084 21.0937 10.7933 20.9971 10.7803C20.9257 10.7707 20.8449 10.7642 20.75 10.7598V13.2402Z" fill="#48465C"/>
</svg>
