<svg width="24" height="24" viewBox="0 0 24 24" fill="none" xmlns="http://www.w3.org/2000/svg">
<path d="M5.28223 17.3037C5.67269 16.9133 6.30575 16.9134 6.69629 17.3037C7.08682 17.6943 7.08682 18.3273 6.69629 18.7178C6.30575 19.1082 5.67268 19.1083 5.28223 18.7178C4.89193 18.3273 4.89195 17.6943 5.28223 17.3037ZM17.3037 17.3037C17.6942 16.9134 18.3273 16.9133 18.7178 17.3037C19.1081 17.6943 19.1081 18.3273 18.7178 18.7178C18.3273 19.1083 17.6942 19.1082 17.3037 18.7178C16.9131 18.3273 16.9131 17.6943 17.3037 17.3037ZM12.75 7.05566C15.1556 7.41753 17 9.49347 17 12C16.9999 14.7613 14.7613 17 12 17C9.23865 17 7.00011 14.7613 7 12C7 9.49347 8.84437 7.41753 11.25 7.05566V11C11.2501 11.4141 11.5859 11.75 12 11.75C12.4141 11.75 12.7499 11.4141 12.75 11V7.05566ZM3.5 11C4.05228 11 4.5 11.4477 4.5 12C4.5 12.5523 4.05228 13 3.5 13C2.94772 13 2.5 12.5523 2.5 12C2.5 11.4477 2.94772 11 3.5 11ZM20.5 11C21.0523 11 21.5 11.4477 21.5 12C21.5 12.5523 21.0523 13 20.5 13C19.9477 13 19.5 12.5523 19.5 12C19.5 11.4477 19.9477 11 20.5 11ZM5.28223 5.28223C5.67269 4.89177 6.30575 4.89189 6.69629 5.28223C7.08682 5.67276 7.08682 6.30577 6.69629 6.69629C6.30575 7.08663 5.67268 7.08676 5.28223 6.69629C4.89194 6.30582 4.89194 5.67271 5.28223 5.28223ZM17.3037 5.28223C17.6942 4.89186 18.3273 4.89176 18.7178 5.28223C19.1081 5.67272 19.1081 6.30581 18.7178 6.69629C18.3273 7.08677 17.6942 7.08666 17.3037 6.69629C16.9131 6.30577 16.9131 5.67276 17.3037 5.28223ZM12 2.5C12.5523 2.5 13 2.94772 13 3.5C13 4.05228 12.5523 4.5 12 4.5C11.4477 4.5 11 4.05228 11 3.5C11 2.94772 11.4477 2.5 12 2.5Z" fill="#1C274C"/>
</svg>
