<svg width="24" height="24" viewBox="0 0 24 24" fill="none" xmlns="http://www.w3.org/2000/svg">
<path d="M5 1.25C5.41421 1.25 5.75 1.58579 5.75 2V11C5.75 12.9067 5.7515 14.2614 5.88965 15.2891C6.02491 16.2951 6.27894 16.8747 6.70215 17.2979C7.12536 17.7211 7.70485 17.9752 8.71094 18.1104C9.73858 18.2485 11.0933 18.25 13 18.25H22C22.4142 18.25 22.75 18.5858 22.75 19C22.75 19.4142 22.4142 19.75 22 19.75H19.75V22C19.75 22.4142 19.4142 22.75 19 22.75C18.5858 22.75 18.25 22.4142 18.25 22V19.75H12.9434C11.1057 19.75 9.6499 19.7498 8.51074 19.5967C7.33843 19.439 6.38992 19.1066 5.6416 18.3584C4.89332 17.6101 4.56096 16.6615 4.40332 15.4893C4.25017 14.3501 4.24998 12.8943 4.25 11.0566V5.75H2C1.58579 5.75 1.25 5.41421 1.25 5C1.25 4.58579 1.58579 4.25 2 4.25H4.25V2C4.25 1.58579 4.58579 1.25 5 1.25ZM11.0566 4.25C12.8943 4.24998 14.3501 4.25017 15.4893 4.40332C16.6615 4.56096 17.6101 4.89332 18.3584 5.6416C19.1066 6.38992 19.439 7.33843 19.5967 8.51074C19.7498 9.6499 19.75 11.1057 19.75 12.9434V16C19.75 16.4142 19.4142 16.75 19 16.75C18.5858 16.75 18.25 16.4142 18.25 16V13C18.25 11.0933 18.2485 9.73858 18.1104 8.71094C17.9752 7.70485 17.7211 7.12536 17.2979 6.70215C16.8747 6.27894 16.2951 6.02491 15.2891 5.88965C14.2614 5.7515 12.9067 5.75 11 5.75H8C7.58579 5.75 7.25 5.41421 7.25 5C7.25 4.58579 7.58579 4.25 8 4.25H11.0566ZM12.5498 7.75C13.2144 7.74996 13.7875 7.74986 14.2461 7.81152C14.7377 7.87763 15.2086 8.02701 15.5908 8.40918C15.973 8.79137 16.1224 9.26235 16.1885 9.75391C16.2502 10.2126 16.25 10.7856 16.25 11.4502V12.5498C16.25 13.2144 16.2502 13.7875 16.1885 14.2461C16.1224 14.7377 15.9729 15.2086 15.5908 15.5908C15.2086 15.9729 14.7377 16.1224 14.2461 16.1885C13.7875 16.2502 13.2144 16.25 12.5498 16.25H11.4502C10.7856 16.25 10.2126 16.2502 9.75391 16.1885C9.26235 16.1224 8.79137 15.973 8.40918 15.5908C8.02701 15.2086 7.87763 14.7377 7.81152 14.2461C7.74986 13.7875 7.74996 13.2144 7.75 12.5498V11.4502C7.74996 10.7856 7.74986 10.2126 7.81152 9.75391C7.87763 9.26235 8.02699 8.79137 8.40918 8.40918C8.79137 8.02699 9.26235 7.87763 9.75391 7.81152C10.2126 7.74986 10.7856 7.74996 11.4502 7.75H12.5498ZM11.5 9.25C10.7718 9.25 10.301 9.25123 9.9541 9.29785C9.62879 9.34159 9.52682 9.41264 9.46973 9.46973C9.41264 9.52682 9.34159 9.62879 9.29785 9.9541C9.25123 10.301 9.25 10.7718 9.25 11.5V12.5C9.25 13.2282 9.25123 13.699 9.29785 14.0459C9.34159 14.3712 9.41264 14.4732 9.46973 14.5303C9.52682 14.5874 9.62882 14.6584 9.9541 14.7021C10.301 14.7487 10.7718 14.75 11.5 14.75H12.5C13.2282 14.75 13.699 14.7487 14.0459 14.7021C14.3712 14.6583 14.4732 14.5874 14.5303 14.5303C14.5874 14.4732 14.6583 14.3712 14.7021 14.0459C14.7487 13.699 14.75 13.2282 14.75 12.5V11.5C14.75 10.7718 14.7487 10.301 14.7021 9.9541C14.6584 9.62882 14.5874 9.52682 14.5303 9.46973C14.4732 9.41264 14.3712 9.34159 14.0459 9.29785C13.699 9.25123 13.2282 9.25 12.5 9.25H11.5Z" fill="#1C274C"/>
</svg>
