<svg width="24" height="24" viewBox="0 0 24 24" fill="none" xmlns="http://www.w3.org/2000/svg">
<path d="M12.0621 1.25C14.0758 1.24998 15.6653 1.24974 16.8229 1.40234C17.9606 1.55235 18.9829 1.8835 19.4684 2.82617C19.5383 2.96191 19.5976 3.10299 19.6451 3.24805C19.9763 4.25897 19.4859 5.21438 18.7877 6.11816C18.0776 7.03724 16.953 8.15029 15.5299 9.55957L13.066 12L15.5299 14.4404C16.953 15.8498 18.0776 16.9628 18.7877 17.8818C19.4859 18.7856 19.9763 19.7411 19.6451 20.752C19.5976 20.8971 19.5383 21.0381 19.4684 21.1738C18.9829 22.1165 17.9606 22.4477 16.8229 22.5977C15.6653 22.7502 14.0758 22.75 12.0621 22.75H11.9371C9.92384 22.75 8.33482 22.7502 7.17737 22.5977C6.03962 22.4477 5.01737 22.1165 4.53186 21.1738C4.46192 21.038 4.40266 20.8971 4.3551 20.752C4.02384 19.7411 4.51431 18.7856 5.21252 17.8818C5.92258 16.9629 7.04638 15.8496 8.46936 14.4404L10.9342 12L8.46936 9.55957C7.04638 8.15045 5.92258 7.03718 5.21252 6.11816C4.51432 5.21435 4.02386 4.25902 4.3551 3.24805C4.40265 3.10293 4.46193 2.96196 4.53186 2.82617C5.01737 1.8835 6.03962 1.55235 7.17737 1.40234C8.33482 1.24979 9.92383 1.24998 11.9371 1.25H12.0621ZM9.56995 15.4619C8.09222 16.9253 7.04054 17.9686 6.39905 18.7988C5.7383 19.6542 5.70209 20.0477 5.77991 20.2852C5.80267 20.3546 5.8313 20.4221 5.86487 20.4873C5.98156 20.7139 6.29366 20.968 7.37268 21.1104C8.4202 21.2484 9.9101 21.25 11.9996 21.25C14.0892 21.25 15.579 21.2484 16.6266 21.1104C17.7059 20.9681 18.0187 20.7139 18.1354 20.4873C18.1689 20.4222 18.1967 20.3545 18.2194 20.2852C18.2973 20.0477 18.262 19.6542 17.6012 18.7988C16.9598 17.9686 15.908 16.9253 14.4303 15.4619L11.9996 13.0557L9.56995 15.4619ZM11.9996 2.75C9.9101 2.75 8.4202 2.75154 7.37268 2.88965C6.29366 3.03197 5.98156 3.28613 5.86487 3.5127C5.83131 3.57787 5.80267 3.64539 5.77991 3.71484C5.7021 3.95232 5.73854 4.34508 6.39905 5.2002C7.04052 6.03056 8.09204 7.07456 9.56995 8.53809L11.9996 10.9443L14.4303 8.53809C15.9081 7.07465 16.9598 6.03053 17.6012 5.2002C18.2616 4.34522 18.2972 3.95231 18.2194 3.71484C18.1967 3.6455 18.1689 3.57777 18.1354 3.5127C18.0187 3.28611 17.7059 3.03196 16.6266 2.88965C15.579 2.75156 14.0892 2.75 11.9996 2.75Z" fill="#1C274C"/>
</svg>
