<svg width="24" height="24" viewBox="0 0 24 24" fill="none" xmlns="http://www.w3.org/2000/svg">
<path d="M8.68359 14.4482C10.5494 14.0867 12.5469 14.1678 14.1631 15.1318C14.39 15.2672 14.6025 15.4361 14.7881 15.6445C15.1639 16.0667 15.3589 16.5912 15.3682 17.1172C15.5592 16.9939 15.7507 16.8569 15.9453 16.71L17.7519 15.3447C18.6564 14.6615 19.9713 14.6617 20.876 15.3447C21.7118 15.9759 22.0454 17.1082 21.4473 18.0674C21.0219 18.7491 20.3812 19.6921 19.7295 20.2959C19.0705 20.9062 18.1322 21.4193 17.4228 21.7617C16.5614 22.1774 15.6313 22.4073 14.7266 22.5537C12.8774 22.853 10.9534 22.8072 9.125 22.4307C8.1906 22.2381 7.21937 22.1387 6.25976 22.1387H4C3.58588 22.1387 3.25014 21.8027 3.25 21.3887C3.25 20.9745 3.58579 20.6387 4 20.6387H6.25976C7.32187 20.6387 8.39454 20.7491 9.42773 20.9619C11.0797 21.3023 12.8204 21.343 14.4873 21.0732C15.316 20.939 16.0902 20.74 16.7715 20.4111C17.4549 20.0812 18.2229 19.6464 18.71 19.1953C19.2024 18.7391 19.7542 17.9475 20.1748 17.2734C20.3014 17.07 20.2835 16.7769 19.9727 16.542C19.603 16.2628 19.0258 16.2628 18.6562 16.542L16.8496 17.9072C16.1282 18.4521 15.24 19.0352 14.1387 19.2109C14.0277 19.2286 13.9119 19.2445 13.792 19.2588C13.7349 19.2692 13.6748 19.276 13.6133 19.2783C13.051 19.3342 12.3991 19.3472 11.6807 19.2793C11.2685 19.2402 10.966 18.8742 11.0049 18.4619C11.0439 18.0496 11.4099 17.7471 11.8223 17.7861C12.4496 17.8453 13.0127 17.8322 13.4902 17.7832C13.4997 17.7822 13.5092 17.7812 13.5186 17.7803C13.5384 17.7687 13.5695 17.7477 13.6094 17.7129C13.9289 17.434 13.9572 16.9665 13.668 16.6416C13.5947 16.5594 13.5043 16.4855 13.3945 16.4199C12.2133 15.7155 10.6356 15.5979 8.96875 15.9209C7.31134 16.242 5.66456 16.9816 4.43359 17.8545C4.09572 18.0941 3.6273 18.0146 3.38769 17.6768C3.14825 17.3389 3.22859 16.8705 3.5664 16.6309C4.96468 15.6394 6.8085 14.8115 8.68359 14.4482ZM4 6.25C4.45425 6.25008 4.72779 6.54686 4.85644 6.71484C4.97734 6.87284 5.09605 7.08547 5.20507 7.28125C5.21157 7.29293 5.21818 7.30487 5.22461 7.31641L5.27246 7.40332L5.35742 7.42285C5.37029 7.42576 5.38341 7.42869 5.39648 7.43164C5.60726 7.4792 5.84204 7.53247 6.02734 7.60547C6.23834 7.68862 6.57447 7.87025 6.7041 8.28711C6.83106 8.69555 6.66672 9.03335 6.54882 9.2207C6.44239 9.38978 6.28443 9.57403 6.13965 9.74316C6.13113 9.75311 6.12266 9.7636 6.11425 9.77344L6.04101 9.8584L6.05273 9.97852C6.05399 9.99146 6.05536 10.0045 6.05664 10.0176C6.0787 10.2442 6.10167 10.4878 6.09277 10.6875C6.08329 10.9001 6.03139 11.2851 5.68261 11.5498C5.32171 11.8237 4.92848 11.7562 4.71582 11.6953C4.52478 11.6405 4.30467 11.5392 4.10742 11.4482C4.09529 11.4427 4.08323 11.4372 4.07129 11.4316L4 11.3984L3.92871 11.4316C3.91662 11.4372 3.90388 11.4426 3.8916 11.4482C3.69444 11.5392 3.4751 11.6405 3.28418 11.6953C3.07164 11.7562 2.67841 11.8237 2.31738 11.5498C1.96856 11.285 1.91573 10.9001 1.90625 10.6875C1.89735 10.4878 1.9213 10.2442 1.94336 10.0176C1.94462 10.0045 1.94601 9.99146 1.94726 9.97852L1.95898 9.8584L1.88574 9.77344C1.87728 9.76354 1.86892 9.75317 1.86035 9.74316C1.71553 9.57398 1.55764 9.38984 1.45117 9.2207C1.33328 9.03341 1.16803 8.69559 1.29492 8.28711C1.42448 7.87046 1.76066 7.68867 1.97168 7.60547C2.15705 7.53241 2.39262 7.47923 2.60351 7.43164C2.61651 7.42871 2.62978 7.42575 2.64257 7.42285L2.72656 7.40332L2.77539 7.31641C2.78181 7.30489 2.78842 7.29289 2.79492 7.28125C2.90396 7.08544 3.02264 6.87282 3.14355 6.71484C3.27222 6.54683 3.54565 6.25 4 6.25ZM20 6.25C20.4543 6.25008 20.7278 6.54686 20.8564 6.71484C20.9773 6.87284 21.096 7.08546 21.2051 7.28125C21.2116 7.29293 21.2181 7.30487 21.2246 7.31641L21.2725 7.40332L21.3574 7.42285C21.3703 7.42576 21.3835 7.42869 21.3965 7.43164C21.6073 7.4792 21.8421 7.53248 22.0273 7.60547C22.2383 7.68862 22.5745 7.87025 22.7041 8.28711C22.8311 8.69556 22.6667 9.03336 22.5488 9.2207C22.4424 9.38979 22.2844 9.57402 22.1396 9.74316C22.1311 9.75311 22.1227 9.7636 22.1143 9.77344L22.041 9.8584L22.0527 9.97852C22.054 9.99148 22.0554 10.0046 22.0566 10.0176C22.0787 10.2443 22.1017 10.4878 22.0928 10.6875C22.0833 10.9001 22.0314 11.2851 21.6826 11.5498C21.3217 11.8237 20.9285 11.7562 20.7158 11.6953C20.5248 11.6405 20.3046 11.5391 20.1074 11.4482C20.0953 11.4426 20.0832 11.4372 20.0713 11.4316L20 11.3984L19.9287 11.4316C19.9167 11.4372 19.9046 11.4427 19.8926 11.4482C19.6953 11.5392 19.4752 11.6405 19.2842 11.6953C19.0716 11.7562 18.6784 11.8237 18.3174 11.5498C17.9685 11.285 17.9158 10.9001 17.9062 10.6875C17.8973 10.4878 17.9213 10.2442 17.9434 10.0176C17.9447 10.0045 17.946 9.99145 17.9473 9.97852L17.959 9.8584L17.8857 9.77344C17.8772 9.76354 17.8689 9.75317 17.8603 9.74316C17.7156 9.57397 17.5577 9.38985 17.4512 9.2207C17.3333 9.03342 17.168 8.69561 17.2949 8.28711C17.4245 7.87046 17.7607 7.68868 17.9717 7.60547C18.1571 7.53241 18.3926 7.47923 18.6035 7.43164C18.6165 7.42871 18.6297 7.42575 18.6426 7.42285L18.7266 7.40332L18.7754 7.31641C18.7819 7.3049 18.7884 7.29289 18.7949 7.28125C18.904 7.08544 19.0227 6.87281 19.1436 6.71484C19.2723 6.54683 19.5456 6.25 20 6.25ZM12 1.25C12.5489 1.25008 12.9015 1.60317 13.1172 1.88477C13.3247 2.15595 13.5374 2.53735 13.7686 2.95215C13.7771 2.96736 13.7854 2.98275 13.7939 2.99805L13.9248 3.2334C13.9616 3.29937 13.9903 3.3508 14.0156 3.39453C14.0324 3.42371 14.046 3.44585 14.0566 3.46289C14.0734 3.46752 14.0949 3.47289 14.1221 3.47949C14.169 3.49091 14.2234 3.50338 14.2949 3.51953L14.5498 3.57715C14.5671 3.58106 14.5844 3.58498 14.6016 3.58887C15.0484 3.68986 15.4653 3.78414 15.7803 3.9082C16.1215 4.04267 16.5344 4.28518 16.6934 4.7959C16.8497 5.29852 16.6573 5.73312 16.4629 6.04199C16.2802 6.33219 15.9977 6.66236 15.6914 7.02051L15.4844 7.2627C15.4359 7.31946 15.398 7.36297 15.3662 7.40137C15.3401 7.43296 15.3216 7.45642 15.3086 7.47363C15.3103 7.52932 15.3174 7.60783 15.332 7.75879L15.3633 8.08008C15.4098 8.55932 15.4528 8.9973 15.4375 9.3418C15.4215 9.6997 15.3365 10.179 14.9111 10.502C14.4736 10.8339 13.9845 10.7693 13.6377 10.6699C13.3131 10.5769 12.923 10.3968 12.5049 10.2041C12.4887 10.1966 12.4723 10.1891 12.4561 10.1816L12.2178 10.0723C12.1508 10.0414 12.0993 10.0177 12.0547 9.99805C12.0329 9.98842 12.0149 9.98073 12 9.97461C11.9851 9.98073 11.9671 9.98841 11.9453 9.99805C11.9007 10.0177 11.8492 10.0414 11.7822 10.0723L11.5439 10.1816C11.5277 10.1891 11.5113 10.1966 11.4951 10.2041C11.077 10.3968 10.6869 10.5769 10.3623 10.6699C10.0155 10.7693 9.52644 10.8337 9.08886 10.502C8.66351 10.179 8.57847 9.6997 8.5625 9.3418C8.54715 8.9973 8.58924 8.55931 8.63574 8.08008C8.63737 8.06323 8.63898 8.04625 8.64062 8.0293L8.66699 7.75879C8.68161 7.60784 8.68872 7.52931 8.69043 7.47363C8.67749 7.45642 8.65994 7.43293 8.63379 7.40137C8.60197 7.36296 8.56416 7.31946 8.51562 7.2627L8.34179 7.05957C8.33068 7.04657 8.31965 7.03344 8.30859 7.02051C8.00224 6.66237 7.7198 6.33218 7.53711 6.04199C7.34269 5.73311 7.15031 5.29862 7.30664 4.7959C7.46559 4.28538 7.87761 4.04268 8.21875 3.9082C8.53373 3.78407 8.95153 3.68991 9.39843 3.58887C9.41561 3.58499 9.43293 3.58106 9.45019 3.57715L9.70507 3.51953C9.77647 3.50338 9.83102 3.49091 9.87793 3.47949C9.90521 3.47284 9.92654 3.46753 9.94336 3.46289C9.95405 3.44581 9.96747 3.42378 9.98437 3.39453C10.0096 3.35078 10.0384 3.29942 10.0752 3.2334L10.2061 2.99805C10.2145 2.98278 10.223 2.96732 10.2314 2.95215C10.4626 2.53735 10.6751 2.15593 10.8828 1.88477C11.0984 1.60314 11.451 1.25 12 1.25ZM4 8.20117C3.94783 8.29748 3.83656 8.49442 3.65429 8.63281C3.4587 8.78129 3.22398 8.83092 3.12597 8.85156C3.11621 8.85361 3.10743 8.85587 3.10058 8.85742L3.08007 8.86133L3.1123 8.90039C3.11731 8.90624 3.12397 8.91305 3.13086 8.9209C3.19949 8.9991 3.35214 9.17348 3.42285 9.40039C3.4926 9.62468 3.46753 9.85501 3.45605 9.95996C3.45489 9.97058 3.4539 9.98036 3.45312 9.98828L3.45215 9.99902C3.54645 9.95389 3.76053 9.85449 4 9.85449C4.2394 9.85454 4.45357 9.9539 4.54785 9.99902L4.5459 9.98828C4.54513 9.98035 4.54413 9.9706 4.54297 9.95996C4.53149 9.85501 4.50642 9.62468 4.57617 9.40039C4.6469 9.17322 4.80056 8.99904 4.86914 8.9209C4.87591 8.91319 4.88176 8.90618 4.88672 8.90039L4.91992 8.86133L4.89941 8.85742C4.89256 8.85587 4.88379 8.85361 4.87402 8.85156C4.77625 8.83097 4.54148 8.78136 4.3457 8.63281C4.1634 8.49442 4.05216 8.29749 4 8.20117ZM20 8.20117C19.9478 8.29747 19.8366 8.49442 19.6543 8.63281C19.4587 8.78129 19.224 8.83092 19.126 8.85156C19.1162 8.85361 19.1074 8.85587 19.1006 8.85742L19.0801 8.86133L19.1123 8.90039C19.1173 8.90624 19.124 8.91305 19.1309 8.9209C19.1995 8.9991 19.3522 9.17346 19.4228 9.40039C19.4926 9.62468 19.4676 9.85501 19.4561 9.95996C19.4549 9.97057 19.4539 9.98036 19.4531 9.98828L19.4521 9.99902C19.5464 9.95389 19.7605 9.85449 20 9.85449C20.2394 9.85454 20.4536 9.9539 20.5478 9.99902L20.5459 9.98828C20.5451 9.98035 20.5442 9.9706 20.543 9.95996C20.5315 9.855 20.5064 9.62468 20.5762 9.40039C20.6469 9.1732 20.8006 8.99903 20.8691 8.9209C20.8759 8.91318 20.8818 8.90618 20.8867 8.90039L20.9199 8.86133L20.8994 8.85742C20.8926 8.85587 20.8838 8.85362 20.874 8.85156C20.7763 8.83098 20.5415 8.78136 20.3457 8.63281C20.1634 8.49442 20.0522 8.29748 20 8.20117ZM12 2.90039C11.8811 3.07686 11.7346 3.33725 11.5166 3.72852L11.3848 3.96387C11.3751 3.98124 11.3648 3.99977 11.3545 4.01855C11.2459 4.21582 11.0988 4.48417 10.8555 4.66895C10.6074 4.85719 10.3076 4.92265 10.0937 4.96973C10.0738 4.97412 10.0545 4.97827 10.0361 4.98242L9.78125 5.04004C9.31607 5.14529 9.02585 5.21315 8.83105 5.28125C8.9515 5.4622 9.15351 5.70148 9.48144 6.08496L9.65527 6.28711C9.66804 6.30203 9.68158 6.31809 9.69531 6.33398C9.84302 6.50498 10.0391 6.73246 10.1299 7.02441C10.2197 7.31333 10.1903 7.61225 10.167 7.84082C10.1649 7.86216 10.1621 7.88328 10.1602 7.90332L10.1338 8.17383C10.0869 8.65747 10.0588 8.97107 10.0596 9.19238C10.2518 9.12427 10.5146 9.00415 10.916 8.81934L11.1543 8.70996C11.1719 8.70188 11.1908 8.69254 11.21 8.68359C11.4077 8.59102 11.6886 8.45996 12 8.45996C12.3114 8.46001 12.5922 8.59103 12.79 8.68359C12.8091 8.69254 12.8271 8.70188 12.8447 8.70996L13.083 8.81934C13.4848 9.00434 13.7482 9.12427 13.9404 9.19238C13.9412 8.97107 13.9121 8.65747 13.8652 8.17383L13.8389 7.90332C13.837 7.8833 13.8352 7.86213 13.833 7.84082C13.8097 7.61226 13.7793 7.31331 13.8691 7.02441C13.9599 6.7323 14.157 6.50501 14.3047 6.33398C14.3185 6.31811 14.3311 6.30203 14.3437 6.28711L14.5176 6.08496C14.8453 5.70167 15.0475 5.46217 15.168 5.28125C14.9733 5.21319 14.6837 5.14522 14.2187 5.04004L13.9639 4.98242C13.9453 4.97821 13.9255 4.97419 13.9053 4.96973C13.6916 4.92267 13.3925 4.85702 13.1445 4.66895C12.9011 4.48409 12.7531 4.21584 12.6445 4.01855C12.6341 3.99968 12.624 3.98132 12.6143 3.96387L12.4834 3.72852C12.2653 3.33718 12.1189 3.07689 12 2.90039Z" fill="#1C274C"/>
</svg>
