<svg width="24" height="24" viewBox="0 0 24 24" fill="none" xmlns="http://www.w3.org/2000/svg">
<path d="M8.68384 14.4482C10.5496 14.0867 12.5471 14.1678 14.1633 15.1318C14.3903 15.2672 14.6028 15.4361 14.7883 15.6445C15.1642 16.0667 15.3592 16.5912 15.3684 17.1172C15.5595 16.9939 15.751 16.8569 15.9456 16.71L17.7522 15.3447C18.6567 14.6615 19.9715 14.6617 20.8762 15.3447C21.712 15.9759 22.0457 17.1082 21.4475 18.0674C21.0222 18.7491 20.3815 19.6921 19.7297 20.2959C19.0707 20.9062 18.1325 21.4193 17.4231 21.7617C16.5617 22.1774 15.6315 22.4073 14.7268 22.5537C12.8776 22.853 10.9536 22.8072 9.12524 22.4307C8.19085 22.2381 7.21962 22.1387 6.26001 22.1387H4.00024C3.58612 22.1387 3.25039 21.8027 3.25024 21.3887C3.25024 20.9745 3.58603 20.6387 4.00024 20.6387H6.26001C7.32212 20.6387 8.39479 20.7491 9.42798 20.9619C11.0799 21.3023 12.8206 21.343 14.4875 21.0732C15.3163 20.939 16.0904 20.74 16.7717 20.4111C17.4551 20.0812 18.2231 19.6464 18.7102 19.1953C19.2027 18.7391 19.7545 17.9475 20.175 17.2734C20.3016 17.07 20.2838 16.7769 19.9729 16.542C19.6032 16.2628 19.0261 16.2628 18.6565 16.542L16.8499 17.9072C16.1285 18.4521 15.2403 19.0352 14.1389 19.2109C14.028 19.2286 13.9122 19.2445 13.7922 19.2588C13.7351 19.2692 13.675 19.276 13.6135 19.2783C13.0512 19.3342 12.3993 19.3472 11.6809 19.2793C11.2687 19.2402 10.9662 18.8742 11.0051 18.4619C11.0441 18.0496 11.4102 17.7471 11.8225 17.7861C12.4498 17.8453 13.0129 17.8322 13.4905 17.7832C13.5 17.7822 13.5094 17.7812 13.5188 17.7803C13.5387 17.7687 13.5697 17.7477 13.6096 17.7129C13.9291 17.434 13.9574 16.9665 13.6682 16.6416C13.5949 16.5594 13.5046 16.4855 13.3948 16.4199C12.2136 15.7155 10.6359 15.5979 8.96899 15.9209C7.31158 16.242 5.66481 16.9816 4.43384 17.8545C4.09597 18.0941 3.62755 18.0146 3.38794 17.6768C3.1485 17.3389 3.22884 16.8705 3.56665 16.6309C4.96493 15.6394 6.80875 14.8115 8.68384 14.4482ZM4.00024 6.25C4.45449 6.25008 4.72804 6.54686 4.85669 6.71484C4.97759 6.87284 5.0963 7.08547 5.20532 7.28125C5.21182 7.29293 5.21842 7.30487 5.22485 7.31641L5.27271 7.40332L5.35767 7.42285C5.37054 7.42576 5.38366 7.42869 5.39673 7.43164C5.6075 7.4792 5.84229 7.53247 6.02759 7.60547C6.23859 7.68862 6.57472 7.87025 6.70435 8.28711C6.83131 8.69555 6.66697 9.03335 6.54907 9.2207C6.44263 9.38978 6.28467 9.57403 6.13989 9.74316C6.13138 9.75311 6.12291 9.7636 6.1145 9.77344L6.04126 9.8584L6.05298 9.97852C6.05424 9.99146 6.05561 10.0045 6.05688 10.0176C6.07894 10.2442 6.10192 10.4878 6.09302 10.6875C6.08353 10.9001 6.03164 11.2851 5.68286 11.5498C5.32196 11.8237 4.92873 11.7562 4.71606 11.6953C4.52502 11.6405 4.30492 11.5392 4.10767 11.4482C4.09553 11.4427 4.08348 11.4372 4.07153 11.4316L4.00024 11.3984L3.92896 11.4316C3.91687 11.4372 3.90413 11.4426 3.89185 11.4482C3.69469 11.5392 3.47535 11.6405 3.28442 11.6953C3.07189 11.7562 2.67866 11.8237 2.31763 11.5498C1.9688 11.285 1.91597 10.9001 1.90649 10.6875C1.89759 10.4878 1.92154 10.2442 1.9436 10.0176C1.94487 10.0045 1.94625 9.99146 1.94751 9.97852L1.95923 9.8584L1.88599 9.77344C1.87753 9.76354 1.86916 9.75317 1.8606 9.74316C1.71577 9.57398 1.55789 9.38984 1.45142 9.2207C1.33353 9.03341 1.16827 8.69559 1.29517 8.28711C1.42473 7.87046 1.7609 7.68867 1.97192 7.60547C2.15729 7.53241 2.39287 7.47923 2.60376 7.43164C2.61676 7.42871 2.63002 7.42575 2.64282 7.42285L2.72681 7.40332L2.77563 7.31641C2.78206 7.30489 2.78867 7.29289 2.79517 7.28125C2.9042 7.08544 3.02288 6.87282 3.1438 6.71484C3.27247 6.54683 3.54589 6.25 4.00024 6.25ZM20.0002 6.25C20.4545 6.25008 20.728 6.54686 20.8567 6.71484C20.9775 6.87284 21.0963 7.08546 21.2053 7.28125C21.2118 7.29293 21.2184 7.30487 21.2249 7.31641L21.2727 7.40332L21.3577 7.42285C21.3706 7.42576 21.3837 7.42869 21.3967 7.43164C21.6075 7.4792 21.8424 7.53248 22.0276 7.60547C22.2386 7.68862 22.5747 7.87025 22.7043 8.28711C22.8313 8.69556 22.667 9.03336 22.5491 9.2207C22.4426 9.38979 22.2846 9.57402 22.1399 9.74316C22.1314 9.75311 22.1229 9.7636 22.1145 9.77344L22.0413 9.8584L22.053 9.97852C22.0543 9.99148 22.0557 10.0046 22.0569 10.0176C22.079 10.2443 22.1019 10.4878 22.093 10.6875C22.0835 10.9001 22.0316 11.2851 21.6829 11.5498C21.322 11.8237 20.9288 11.7562 20.7161 11.6953C20.5251 11.6405 20.3049 11.5391 20.1077 11.4482C20.0955 11.4426 20.0835 11.4372 20.0715 11.4316L20.0002 11.3984L19.929 11.4316C19.917 11.4372 19.9049 11.4427 19.8928 11.4482C19.6955 11.5392 19.4754 11.6405 19.2844 11.6953C19.0718 11.7562 18.6787 11.8237 18.3176 11.5498C17.9688 11.285 17.916 10.9001 17.9065 10.6875C17.8976 10.4878 17.9215 10.2442 17.9436 10.0176C17.9449 10.0045 17.9462 9.99145 17.9475 9.97852L17.9592 9.8584L17.886 9.77344C17.8775 9.76354 17.8692 9.75317 17.8606 9.74316C17.7158 9.57397 17.558 9.38985 17.4514 9.2207C17.3335 9.03342 17.1683 8.69561 17.2952 8.28711C17.4247 7.87046 17.7609 7.68868 17.9719 7.60547C18.1573 7.53241 18.3929 7.47923 18.6038 7.43164C18.6168 7.42871 18.63 7.42575 18.6428 7.42285L18.7268 7.40332L18.7756 7.31641C18.7821 7.3049 18.7887 7.29289 18.7952 7.28125C18.9042 7.08543 19.023 6.87281 19.1438 6.71484C19.2725 6.54683 19.5458 6.25 20.0002 6.25ZM12.0002 1.25C12.5491 1.25008 12.9018 1.60317 13.1174 1.88477C13.325 2.15595 13.5377 2.53735 13.7688 2.95215C13.7773 2.96736 13.7857 2.98275 13.7942 2.99805L13.925 3.2334C13.9618 3.29937 13.9906 3.3508 14.0159 3.39453C14.0326 3.42371 14.0462 3.44585 14.0569 3.46289C14.0736 3.46752 14.0952 3.47289 14.1223 3.47949C14.1692 3.49091 14.2237 3.50338 14.2952 3.51953L14.55 3.57715C14.5674 3.58106 14.5847 3.58498 14.6018 3.58887C15.0486 3.68986 15.4656 3.78414 15.7805 3.9082C16.1217 4.04267 16.5346 4.28518 16.6936 4.7959C16.85 5.29852 16.6576 5.73312 16.4631 6.04199C16.2804 6.33219 15.998 6.66236 15.6917 7.02051L15.4846 7.2627C15.4361 7.31946 15.3983 7.36297 15.3665 7.40137C15.3404 7.43296 15.3218 7.45642 15.3088 7.47363C15.3106 7.52932 15.3177 7.60783 15.3323 7.75879L15.3635 8.08008C15.41 8.55932 15.453 8.9973 15.4377 9.3418C15.4217 9.6997 15.3368 10.179 14.9114 10.502C14.4738 10.8339 13.9848 10.7693 13.6379 10.6699C13.3134 10.5769 12.9233 10.3968 12.5051 10.2041C12.489 10.1966 12.4726 10.1891 12.4563 10.1816L12.218 10.0723C12.1511 10.0414 12.0995 10.0177 12.0549 9.99805C12.0331 9.98842 12.0151 9.98073 12.0002 9.97461C11.9854 9.98073 11.9674 9.98841 11.9456 9.99805C11.901 10.0177 11.8495 10.0414 11.7825 10.0723L11.5442 10.1816C11.528 10.1891 11.5116 10.1966 11.4954 10.2041C11.0772 10.3968 10.6871 10.5769 10.3625 10.6699C10.0158 10.7693 9.52669 10.8337 9.08911 10.502C8.66376 10.179 8.57872 9.6997 8.56274 9.3418C8.54739 8.9973 8.58949 8.55931 8.63599 8.08008C8.63762 8.06323 8.63923 8.04625 8.64087 8.0293L8.66724 7.75879C8.68186 7.60784 8.68897 7.52931 8.69067 7.47363C8.67774 7.45642 8.66019 7.43293 8.63403 7.40137C8.60221 7.36296 8.5644 7.31946 8.51587 7.2627L8.34204 7.05957C8.33093 7.04657 8.31989 7.03344 8.30884 7.02051C8.00249 6.66237 7.72004 6.33218 7.53735 6.04199C7.34294 5.73311 7.15055 5.29861 7.30688 4.7959C7.46584 4.28538 7.87785 4.04268 8.21899 3.9082C8.53397 3.78407 8.95178 3.68991 9.39868 3.58887C9.41586 3.58499 9.43318 3.58106 9.45044 3.57715L9.70532 3.51953C9.77672 3.50338 9.83127 3.49091 9.87817 3.47949C9.90546 3.47284 9.92679 3.46753 9.9436 3.46289C9.9543 3.44581 9.96771 3.42378 9.98462 3.39453C10.0099 3.35078 10.0386 3.29942 10.0754 3.2334L10.2063 2.99805C10.2148 2.98278 10.2232 2.96732 10.2317 2.95215C10.4628 2.53735 10.6754 2.15593 10.8831 1.88477C11.0987 1.60314 11.4512 1.25 12.0002 1.25ZM4.00024 8.20117C3.94808 8.29748 3.83681 8.49442 3.65454 8.63281C3.45895 8.78129 3.22423 8.83092 3.12622 8.85156C3.11646 8.85361 3.10768 8.85587 3.10083 8.85742L3.08032 8.86133L3.11255 8.90039C3.11756 8.90624 3.12421 8.91305 3.1311 8.9209C3.19974 8.9991 3.35239 9.17348 3.4231 9.40039C3.49285 9.62468 3.46778 9.85501 3.4563 9.95996C3.45514 9.97058 3.45414 9.98036 3.45337 9.98828L3.45239 9.99902C3.54669 9.95389 3.76077 9.85449 4.00024 9.85449C4.23965 9.85454 4.45382 9.95391 4.5481 9.99902L4.54614 9.98828C4.54538 9.98035 4.54438 9.9706 4.54321 9.95996C4.53173 9.85501 4.50667 9.62468 4.57642 9.40039C4.64715 9.17322 4.80081 8.99904 4.86938 8.9209C4.87615 8.91319 4.88201 8.90618 4.88696 8.90039L4.92017 8.86133L4.89966 8.85742C4.89281 8.85587 4.88404 8.85361 4.87427 8.85156C4.77649 8.83097 4.54173 8.78136 4.34595 8.63281C4.16365 8.49442 4.0524 8.29749 4.00024 8.20117ZM20.0002 8.20117C19.948 8.29747 19.8368 8.49442 19.6545 8.63281C19.459 8.78129 19.2242 8.83092 19.1262 8.85156C19.1164 8.85361 19.1076 8.85587 19.1008 8.85742L19.0803 8.86133L19.1125 8.90039C19.1175 8.90624 19.1242 8.91305 19.1311 8.9209C19.1998 8.9991 19.3524 9.17346 19.4231 9.40039C19.4929 9.62468 19.4678 9.85501 19.4563 9.95996C19.4551 9.97058 19.4542 9.98036 19.4534 9.98828L19.4524 9.99902C19.5467 9.95389 19.7607 9.85449 20.0002 9.85449C20.2397 9.85454 20.4538 9.95391 20.5481 9.99902L20.5461 9.98828C20.5453 9.98035 20.5444 9.9706 20.5432 9.95996C20.5317 9.855 20.5066 9.62468 20.5764 9.40039C20.6471 9.1732 20.8009 8.99903 20.8694 8.9209C20.8761 8.91318 20.882 8.90618 20.887 8.90039L20.9202 8.86133L20.8997 8.85742C20.8929 8.85587 20.8841 8.85362 20.8743 8.85156C20.7765 8.83098 20.5417 8.78136 20.3459 8.63281C20.1636 8.49442 20.0524 8.29748 20.0002 8.20117ZM12.0002 2.90039C11.8814 3.07686 11.7349 3.33725 11.5168 3.72852L11.385 3.96387C11.3754 3.98124 11.3651 3.99977 11.3547 4.01855C11.2462 4.21582 11.099 4.48417 10.8557 4.66895C10.6076 4.85719 10.3079 4.92265 10.094 4.96973C10.074 4.97412 10.0547 4.97827 10.0364 4.98242L9.78149 5.04004C9.31631 5.14529 9.0261 5.21315 8.8313 5.28125C8.95175 5.4622 9.15376 5.70148 9.48169 6.08496L9.65552 6.28711C9.66829 6.30203 9.68183 6.31809 9.69556 6.33398C9.84327 6.50498 10.0394 6.73246 10.1301 7.02441C10.22 7.31333 10.1905 7.61225 10.1672 7.84082C10.1651 7.86216 10.1623 7.88328 10.1604 7.90332L10.134 8.17383C10.0871 8.65747 10.059 8.97107 10.0598 9.19238C10.252 9.12427 10.5148 9.00415 10.9163 8.81934L11.1545 8.70996C11.1721 8.70188 11.191 8.69254 11.2102 8.68359C11.408 8.59102 11.6889 8.45996 12.0002 8.45996C12.3117 8.46001 12.5924 8.59103 12.7903 8.68359C12.8094 8.69254 12.8274 8.70188 12.845 8.70996L13.0833 8.81934C13.4851 9.00434 13.7485 9.12427 13.9407 9.19238C13.9415 8.97107 13.9124 8.65747 13.8655 8.17383L13.8391 7.90332C13.8372 7.8833 13.8354 7.86213 13.8333 7.84082C13.81 7.61226 13.7796 7.31331 13.8694 7.02441C13.9602 6.7323 14.1572 6.50501 14.3049 6.33398C14.3187 6.31811 14.3313 6.30203 14.344 6.28711L14.5178 6.08496C14.8455 5.70167 15.0478 5.46217 15.1682 5.28125C14.9735 5.21319 14.6839 5.14522 14.219 5.04004L13.9641 4.98242C13.9455 4.97821 13.9258 4.97419 13.9055 4.96973C13.6918 4.92267 13.3928 4.85702 13.1448 4.66895C12.9013 4.48409 12.7534 4.21584 12.6448 4.01855C12.6344 3.99968 12.6243 3.98132 12.6145 3.96387L12.4836 3.72852C12.2656 3.33718 12.1191 3.07689 12.0002 2.90039Z" fill="#48465C"/>
</svg>
