<svg width="24" height="24" viewBox="0 0 24 24" fill="none" xmlns="http://www.w3.org/2000/svg">
<path d="M21.0127 4.04883C22.0001 5.54517 22 7.86648 22 12C22 16.714 21.9997 19.0708 20.5352 20.5352C19.0708 21.9997 16.714 22 12 22C7.86648 22 5.54517 22.0001 4.04883 21.0127L21.0127 4.04883ZM12 2C16.134 2 18.4557 1.99963 19.9521 2.9873L2.9873 19.9521C1.99963 18.4557 2 16.134 2 12C2 7.28595 2.00037 4.9293 3.46484 3.46484C4.9293 2.00037 7.28595 2 12 2ZM13 16.25C12.5858 16.25 12.25 16.5858 12.25 17C12.25 17.4142 12.5858 17.75 13 17.75H18C18.4142 17.75 18.75 17.4142 18.75 17C18.75 16.5858 18.4142 16.25 18 16.25H13ZM8 4.75C7.58579 4.75 7.25 5.08579 7.25 5.5V7.25H5.5C5.08579 7.25 4.75 7.58579 4.75 8C4.75001 8.4142 5.0858 8.75 5.5 8.75H7.25V10.5C7.25 10.9142 7.58579 11.25 8 11.25C8.41421 11.25 8.75 10.9142 8.75 10.5V8.75H10.5C10.9142 8.75 11.25 8.4142 11.25 8C11.25 7.58579 10.9142 7.25 10.5 7.25H8.75V5.5C8.75 5.08579 8.41421 4.75 8 4.75Z" fill="#1C274C"/>
</svg>
