<svg width="24" height="24" viewBox="0 0 24 24" fill="none" xmlns="http://www.w3.org/2000/svg">
<path d="M14.0051 4C17.7856 4 19.6763 4.00031 20.8508 5.17188C21.6592 5.97849 21.9111 7.12357 21.9895 8.98926C22.0051 9.35933 22.0127 9.54452 21.9436 9.66797C21.8745 9.7914 21.5988 9.94577 21.0471 10.2539C20.4343 10.5961 20.0197 11.2497 20.0197 12C20.0197 12.7503 20.4343 13.4039 21.0471 13.7461C21.5988 14.0542 21.8744 14.2085 21.9436 14.332C22.0127 14.4554 22.0051 14.6407 21.9895 15.0107C21.9111 16.8764 21.6592 18.0216 20.8508 18.8281C19.6763 19.9997 17.7856 20 14.0051 20H9.99533C6.21469 20 4.32412 19.9997 3.14963 18.8281C2.34109 18.0216 2.08941 16.8766 2.01096 15.0107C1.99541 14.641 1.98691 14.4554 2.05588 14.332C2.12499 14.2085 2.40159 14.0543 2.95334 13.7461C3.56596 13.4039 3.97971 12.7502 3.97971 12C3.97971 11.2498 3.56596 10.5961 2.95334 10.2539C2.40159 9.94575 2.12499 9.79142 2.05588 9.66797C1.98692 9.54453 1.99541 9.35909 2.01096 8.98926C2.08941 7.12341 2.34109 5.9785 3.14963 5.17188C4.32412 4.00031 6.2147 4 9.99533 4H14.0051ZM15.5481 8.46973C15.2545 8.17684 14.7783 8.17685 14.4846 8.46973L8.46994 14.4697C8.17631 14.7626 8.17631 15.2374 8.46994 15.5303C8.7635 15.8229 9.23886 15.8229 9.53244 15.5303L15.5481 9.53027C15.8416 9.23742 15.8416 8.76258 15.5481 8.46973ZM14.5149 13.5C13.9613 13.5 13.5119 13.9477 13.5119 14.5C13.5119 15.0523 13.9613 15.5 14.5149 15.5C15.0686 15.5 15.5178 15.0523 15.5178 14.5C15.5178 13.9477 15.0686 13.5 14.5149 13.5ZM9.50217 8.5C8.94865 8.50017 8.50021 8.94783 8.50021 9.5C8.50021 10.0522 8.94865 10.4998 9.50217 10.5C10.0558 10.5 10.5051 10.0523 10.5051 9.5C10.5051 8.94772 10.0558 8.5 9.50217 8.5Z" fill="#1C274C"/>
</svg>
