<svg width="24" height="24" viewBox="0 0 24 24" fill="none" xmlns="http://www.w3.org/2000/svg">
<path d="M15.9658 2.07153C16.4956 1.93221 17.056 1.99612 17.5332 2.27563C18.043 2.57434 18.7093 2.98769 19.1807 3.36548C19.3162 3.47414 19.4569 3.59683 19.5986 3.72778C20.5354 4.59346 21.0039 5.02679 21 5.71606C20.996 6.40541 20.4674 6.88177 19.4111 7.83423L19.2266 8.00122C18.7332 8.44612 18.4859 8.66858 18.3545 8.96899C18.2231 9.26947 18.2236 9.61166 18.2236 10.2952V18.2649C18.2236 19.588 18.2232 20.2499 17.7744 20.8118C17.3255 21.3737 16.7888 21.4729 15.7158 21.6702C14.724 21.8526 13.4673 22.0002 12 22.0002C10.5327 22.0002 9.27603 21.8526 8.28418 21.6702C7.21122 21.4729 6.67446 21.3737 6.22559 20.8118C5.77671 20.2499 5.77637 19.588 5.77637 18.2649V10.2952C5.77637 9.61166 5.77687 9.26947 5.64551 8.96899C5.51409 8.66858 5.26681 8.44612 4.77344 8.00122L4.58789 7.83423C3.53184 6.88193 3.00397 6.40536 3 5.71606C2.99608 5.02679 3.4646 4.59346 4.40137 3.72778C4.54309 3.59683 4.68378 3.47414 4.81934 3.36548C5.29071 2.98768 5.95695 2.57435 6.4668 2.27563C6.94392 1.99611 7.50436 1.93223 8.03418 2.07153L8.52441 2.20044C8.91246 2.30249 9.25074 2.55249 9.47266 2.90259C10.675 4.79996 13.325 4.79996 14.5273 2.90259C14.7492 2.5525 15.0876 2.3025 15.4756 2.20044L15.9658 2.07153Z" fill="#48465C"/>
</svg>
