<svg width="24" height="24" viewBox="0 0 24 24" fill="none" xmlns="http://www.w3.org/2000/svg">
<path d="M10.0068 3.77161C11.1435 2.76126 12.8565 2.76126 13.9932 3.77161L19.9932 9.10461C20.6335 9.67381 20.9999 10.4901 21 11.3468V21.2501H22C22.4142 21.2501 22.75 21.5859 22.75 22.0001C22.75 22.4143 22.4142 22.7501 22 22.7501H2C1.5858 22.7501 1.25002 22.4143 1.25 22.0001C1.25 21.5859 1.58579 21.2501 2 21.2501H3V11.3468C3.00014 10.4901 3.36649 9.67381 4.00684 9.10461L10.0068 3.77161ZM9.94824 11.2501C9.04976 11.2501 8.29986 11.2502 7.70508 11.3302C7.07747 11.4146 6.51102 11.6004 6.05566 12.0558C5.60031 12.5112 5.41451 13.0776 5.33008 13.7052C5.25011 14.3 5.24997 15.0499 5.25 15.9484V21.2501H6.75V16.0001C6.75 15.0361 6.75146 14.3884 6.81641 13.9054C6.87845 13.444 6.98591 13.2466 7.11621 13.1163C7.24652 12.986 7.44389 12.8786 7.90527 12.8165C8.38831 12.7516 9.03599 12.7501 10 12.7501H14C14.964 12.7501 15.6117 12.7516 16.0947 12.8165C16.5561 12.8786 16.7535 12.986 16.8838 13.1163C17.0141 13.2466 17.1216 13.444 17.1836 13.9054C17.2485 14.3884 17.25 15.0361 17.25 16.0001V21.2501H18.75V15.9484C18.75 15.0499 18.7499 14.3 18.6699 13.7052C18.5855 13.0776 18.3997 12.5112 17.9443 12.0558C17.489 11.6004 16.9225 11.4146 16.2949 11.3302C15.7001 11.2502 14.9502 11.2501 14.0518 11.2501H9.94824ZM9 17.7501C8.58579 17.7501 8.25 18.0859 8.25 18.5001C8.25002 18.9143 8.5858 19.2501 9 19.2501H15C15.4142 19.2501 15.75 18.9143 15.75 18.5001C15.75 18.0859 15.4142 17.7501 15 17.7501H9ZM9 14.7501C8.58579 14.7501 8.25 15.0859 8.25 15.5001C8.25002 15.9143 8.5858 16.2501 9 16.2501H15C15.4142 16.2501 15.75 15.9143 15.75 15.5001C15.75 15.0859 15.4142 14.7501 15 14.7501H9ZM10 8.25012C9.58579 8.25012 9.25 8.58591 9.25 9.00012C9.25002 9.41432 9.5858 9.75012 10 9.75012H14C14.4142 9.75012 14.75 9.41432 14.75 9.00012C14.75 8.58591 14.4142 8.25012 14 8.25012H10Z" fill="#48465C"/>
</svg>
