<svg width="24" height="24" viewBox="0 0 24 24" fill="none" xmlns="http://www.w3.org/2000/svg">
<path d="M12 2C14.6311 2 15.9463 2.00027 16.7637 2.87891C17.5811 3.75759 17.5811 5.17157 17.5811 8V16C17.5811 18.8284 17.5811 20.2424 16.7637 21.1211C15.9463 21.9997 14.631 22 12 22C9.36897 22 8.05371 21.9997 7.23633 21.1211C6.41896 20.2424 6.41895 18.8284 6.41895 16V8C6.41895 5.17157 6.41896 3.75759 7.23633 2.87891C8.05371 2.00028 9.36896 2 12 2ZM4.83398 3.78711C5.05218 3.76795 5.22009 3.97138 5.18457 4.1875C5.16707 4.29386 5.15115 4.40127 5.1377 4.50879C5.10778 4.74808 5.08568 5.00292 5.06934 5.27246C5.02304 6.03634 5.02339 6.91861 5.02344 7.90137V16.0986C5.02339 17.0813 5.02305 17.9637 5.06934 18.7275C5.08569 18.9972 5.10776 19.2528 5.1377 19.4922C5.15113 19.5995 5.1671 19.7063 5.18457 19.8125C5.22014 20.0287 5.0522 20.2331 4.83398 20.2139C4.40318 20.1761 4.01378 20.0946 3.65039 19.8955C3.08172 19.5839 2.61888 19.0869 2.3291 18.4756C2.14395 18.0848 2.06938 17.6663 2.03418 17.2031C2.00017 16.7555 1.99999 16.2046 2 15.5312V8.46875C1.99999 7.79537 2.00017 7.24444 2.03418 6.79688C2.0694 6.33368 2.14391 5.91511 2.3291 5.52441C2.6189 4.91301 3.08168 4.41609 3.65039 4.10449C4.01376 3.90546 4.4032 3.82497 4.83398 3.78711ZM19.166 3.78711C19.5968 3.82498 19.9862 3.90547 20.3496 4.10449C20.9183 4.41609 21.3811 4.91301 21.6709 5.52441C21.8561 5.91511 21.9306 6.33368 21.9658 6.79688C21.9998 7.24444 22 7.79537 22 8.46875V15.5312C22 16.2046 21.9998 16.7555 21.9658 17.2031C21.9306 17.6663 21.856 18.0848 21.6709 18.4756C21.3811 19.0869 20.9182 19.5839 20.3496 19.8955C19.9862 20.0945 19.5969 20.1761 19.166 20.2139C18.9478 20.2331 18.7798 20.0287 18.8154 19.8125C18.8329 19.7063 18.8489 19.5995 18.8623 19.4922C18.8923 19.2528 18.9144 18.9972 18.9307 18.7275C18.9769 17.9637 18.9767 17.0813 18.9766 16.0986V7.90137C18.9767 6.91861 18.977 6.03635 18.9307 5.27246C18.9144 5.00292 18.8923 4.74807 18.8623 4.50879C18.8489 4.40127 18.8329 4.29386 18.8154 4.1875C18.7799 3.97138 18.9478 3.76795 19.166 3.78711Z" fill="#1C274C"/>
</svg>
