<svg width="24" height="24" viewBox="0 0 24 24" fill="none" xmlns="http://www.w3.org/2000/svg">
<path d="M4.71775 3.09177C5.94391 1.80085 7.97173 2.043 8.98532 3.47654L10.247 5.25974C11.0577 6.4064 10.989 8.00088 10.0215 9.01951L9.77634 9.27732L9.77439 9.28318C9.76138 9.31984 9.7286 9.43603 9.76072 9.65525C9.82762 10.1109 10.1802 11.0364 11.6074 12.539C13.0395 14.0466 13.9079 14.4024 14.3105 14.4677C14.4836 14.4958 14.5744 14.4712 14.6035 14.4609L15.0127 14.0312C15.8863 13.1113 17.2482 12.9303 18.3467 13.5625L20.2578 14.6611C21.8906 15.601 22.2705 17.9005 20.9658 19.2744L19.5449 20.7705C19.1016 21.2372 18.497 21.6353 17.75 21.709C15.9262 21.8891 11.7009 21.6545 7.27146 16.9912C3.13848 12.6398 2.35313 8.85503 2.25388 7.00583C2.20484 6.09216 2.61256 5.30827 3.14841 4.74412L4.71775 3.09177ZM7.76072 4.34275C7.24838 3.61814 6.32848 3.5746 5.80564 4.12498L4.23532 5.77732C3.90406 6.12616 3.7305 6.52652 3.75193 6.92576C3.83305 8.43573 4.48361 11.8775 8.35935 15.958C12.4233 20.2367 16.1673 20.3583 17.6025 20.2168C17.8862 20.1888 18.1781 20.0308 18.457 19.7373L19.8779 18.2412C20.4904 17.5961 20.3301 16.4344 19.5097 15.9619L17.5986 14.8623C17.0861 14.5673 16.486 14.6581 16.1006 15.0635L15.6445 15.5429L15.1172 15.0429C15.6416 15.541 15.6435 15.5449 15.6435 15.5449L15.6416 15.5459L15.6386 15.5498L15.6181 15.5703C15.608 15.5802 15.5963 15.5909 15.583 15.6025C15.5562 15.6261 15.5224 15.6533 15.4824 15.6816C15.4023 15.7384 15.2959 15.8013 15.1611 15.8545C14.8852 15.9633 14.5204 16.0212 14.0703 15.9482C13.1928 15.8057 12.0423 15.1754 10.5195 13.5722C8.99218 11.9642 8.40705 10.7642 8.27634 9.87205C8.20988 9.4182 8.26365 9.05475 8.3613 8.78025C8.40929 8.64535 8.46626 8.53776 8.51853 8.45603C8.54462 8.41526 8.56881 8.38028 8.59079 8.35251C8.60172 8.3387 8.61274 8.32709 8.62204 8.31638L8.63474 8.30076L8.64548 8.29001C8.64678 8.29101 8.67278 8.31244 9.17868 8.79294L8.64743 8.28806L8.93357 7.9863C9.37901 7.51734 9.44429 6.72297 9.02243 6.12595L7.76072 4.34275ZM18.4697 4.4697C18.7626 4.1768 19.2373 4.1768 19.5302 4.4697C19.823 4.7626 19.8231 5.23739 19.5302 5.53025L16.8105 8.24998H18C18.4142 8.24998 18.75 8.58576 18.75 8.99998C18.7498 9.41404 18.4141 9.74998 18 9.74998H15C14.5859 9.74993 14.2501 9.41401 14.25 8.99998V5.99998C14.25 5.58579 14.5858 5.25002 15 5.24998C15.4142 5.24998 15.75 5.58576 15.75 5.99998V7.18943L18.4697 4.4697Z" fill="#1C274C"/>
</svg>
