<svg width="24" height="24" viewBox="0 0 24 24" fill="none" xmlns="http://www.w3.org/2000/svg">
<path d="M12 1.25C12.4142 1.25 12.75 1.58579 12.75 2C12.75 2.41421 12.4142 2.75 12 2.75C6.89137 2.75 2.75 6.89137 2.75 12C2.75 17.1086 6.89137 21.25 12 21.25V22.75C6.06294 22.75 1.25 17.9371 1.25 12C1.25 6.06294 6.06294 1.25 12 1.25ZM15.4697 5.46973C15.7626 5.17684 16.2374 5.17684 16.5303 5.46973L22.5303 11.4697C22.8232 11.7626 22.8232 12.2374 22.5303 12.5303L16.5303 18.5303C16.2374 18.8232 15.7626 18.8232 15.4697 18.5303C15.1768 18.2374 15.1768 17.7626 15.4697 17.4697L20.1895 12.75H10C9.58579 12.75 9.25 12.4142 9.25 12C9.25 11.5858 9.58579 11.25 10 11.25H20.1895L15.4697 6.53027C15.1768 6.23739 15.1768 5.76261 15.4697 5.46973Z" fill="#1C274C"/>
</svg>
