<svg width="24" height="24" viewBox="0 0 24 24" fill="none" xmlns="http://www.w3.org/2000/svg">
<path d="M20.2422 6.60645C21.1092 7.47341 21.5432 7.90681 21.7715 8.45801C21.9999 9.00927 22 9.62259 22 10.8486V13.1514C22 14.3774 21.9999 14.9907 21.7715 15.542C21.5432 16.0932 21.1092 16.5266 20.2422 17.3936L17.3936 20.2422C16.5266 21.1092 16.0932 21.5432 15.542 21.7715C14.9907 21.9999 14.3774 22 13.1514 22H10.8486C9.62258 22 9.00928 21.9999 8.45801 21.7715C7.9068 21.5432 7.47341 21.1092 6.60645 20.2422L5.71191 19.3486L19.3486 5.71191L20.2422 6.60645ZM13.1514 2C14.3774 2 14.9907 2.00017 15.542 2.22852C16.0932 2.4569 16.5266 2.89084 17.3936 3.75781L18.2881 4.65137L4.65137 18.2881L3.75781 17.3936C2.89084 16.5266 2.4569 16.0932 2.22852 15.542C2.00017 14.9907 2 14.3774 2 13.1514V10.8486C2 9.62258 2.00017 9.00928 2.22852 8.45801C2.4569 7.9068 2.89085 7.47341 3.75781 6.60645L6.60645 3.75781C7.47341 2.89085 7.9068 2.4569 8.45801 2.22852C9.00928 2.00017 9.62258 2 10.8486 2H13.1514Z" fill="#48465C"/>
</svg>
