<svg width="24" height="24" viewBox="0 0 24 24" fill="none" xmlns="http://www.w3.org/2000/svg">
<path d="M20 12.25V13C20 16.7712 19.9997 18.6566 18.8281 19.8281C18.5238 20.1325 18.1713 20.3577 17.75 20.5244V22C17.75 22.4142 17.4142 22.75 17 22.75H16C15.5858 22.75 15.25 22.4142 15.25 22V20.9531C14.3554 20.9997 13.2876 21 12 21C10.7124 21 9.64461 20.9997 8.75 20.9531V22C8.75 22.4142 8.41421 22.75 8 22.75H7C6.58579 22.75 6.25 22.4142 6.25 22V20.5244C5.82869 20.3577 5.47625 20.1325 5.17188 19.8281C4.00031 18.6566 4 16.7712 4 13V12.25H20ZM17 13.25C16.5858 13.25 16.25 13.5858 16.25 14V16C16.25 16.4142 16.5858 16.75 17 16.75C17.4142 16.75 17.75 16.4142 17.75 16V14C17.75 13.5858 17.4142 13.25 17 13.25ZM12 2C15.7712 2 17.6566 2.00031 18.8281 3.17188C19.9997 4.34346 20 6.22878 20 10V10.75H4V10C4 6.22876 4.00031 4.34346 5.17188 3.17188C6.34345 2.00031 8.22876 2 12 2ZM17 6.25C16.5858 6.25 16.25 6.58579 16.25 7V9C16.25 9.41421 16.5858 9.75 17 9.75C17.4142 9.75 17.75 9.41421 17.75 9V7C17.75 6.58579 17.4142 6.25 17 6.25Z" fill="#48465C"/>
</svg>
