<svg width="24" height="24" viewBox="0 0 24 24" fill="none" xmlns="http://www.w3.org/2000/svg">
<path d="M12 1.25C12.9374 1.25 13.8327 1.5563 15.2764 2.05078L16.0039 2.2998C17.4853 2.80687 18.6289 3.19878 19.4473 3.53125C19.8593 3.69867 20.2137 3.86067 20.499 4.02637C20.7737 4.18583 21.0491 4.38474 21.2363 4.65137C21.4212 4.91487 21.517 5.23893 21.5771 5.55078C21.6396 5.87503 21.6778 6.26438 21.7021 6.71094C21.7504 7.59795 21.75 8.81353 21.75 10.3896V11.9912C21.75 18.0922 17.1417 21.0177 14.4014 22.2148L14.375 22.2266C14.0353 22.375 13.7155 22.5144 13.3486 22.6084C12.9611 22.7076 12.5493 22.75 12 22.75C11.4507 22.75 11.0389 22.7076 10.6514 22.6084C10.2845 22.5144 9.96473 22.375 9.625 22.2266L9.59863 22.2148C6.85833 21.0177 2.25 18.0922 2.25 11.9912V10.3896C2.25 8.81365 2.24955 7.59789 2.29785 6.71094C2.32217 6.26438 2.36037 5.87503 2.42285 5.55078C2.48298 5.23893 2.57873 4.91487 2.76367 4.65137C2.95086 4.38474 3.22638 4.18583 3.50098 4.02637C3.78628 3.86068 4.14064 3.69867 4.55273 3.53125C5.3711 3.19878 6.51476 2.80686 7.99609 2.2998L8.72363 2.05078C10.1674 1.55631 11.0626 1.25 12 1.25ZM12 2.75C11.3423 2.75 10.6953 2.96206 9.08105 3.51465L8.50781 3.70996C6.99522 4.22773 5.8917 4.60626 5.11719 4.9209C4.73081 5.07787 4.45045 5.2091 4.25391 5.32324C4.15697 5.37954 4.09054 5.42661 4.0459 5.46289C4.00803 5.49367 3.99328 5.51113 3.99121 5.51367C3.98898 5.51733 3.9762 5.53857 3.95898 5.58691C3.93904 5.64299 3.91702 5.72334 3.89551 5.83496C3.85184 6.06159 3.81876 6.37306 3.7959 6.79297C3.7501 7.63415 3.75 8.80866 3.75 10.417V11.9912C3.75 17.1663 7.62032 19.7133 10.1992 20.8398C10.5705 21.002 10.7848 21.0942 11.0234 21.1553C11.2515 21.2137 11.53 21.25 12 21.25C12.47 21.25 12.7485 21.2137 12.9766 21.1553C13.2152 21.0942 13.4295 21.002 13.8008 20.8398C16.3797 19.7133 20.25 17.1663 20.25 11.9912V10.417C20.25 8.80866 20.2499 7.63415 20.2041 6.79297C20.1813 6.37306 20.1482 6.06159 20.1045 5.83496C20.083 5.72333 20.061 5.64299 20.041 5.58691C20.0238 5.5386 20.011 5.51735 20.0088 5.51367C20.0067 5.51111 19.992 5.49365 19.9541 5.46289C19.9095 5.42661 19.8431 5.37955 19.7461 5.32324C19.5496 5.2091 19.2692 5.07787 18.8828 4.9209C18.1083 4.60626 17.0048 4.22773 15.4922 3.70996L14.9189 3.51465C13.3047 2.96207 12.6577 2.75 12 2.75ZM12 12.25C13.1958 12.25 14.3157 12.4907 15.1641 12.915C15.9676 13.3169 16.75 14.0107 16.75 15V15.0625C16.7516 15.5728 16.7539 16.4319 15.9395 17.0215C15.5615 17.2949 15.0631 17.4699 14.4453 17.5811C13.8218 17.6933 13.0228 17.75 12 17.75C10.9772 17.75 10.1782 17.6933 9.55469 17.5811C8.93693 17.4699 8.43849 17.295 8.06055 17.0215C7.24608 16.4319 7.24847 15.5728 7.25 15.0625V15C7.25 14.0107 8.03243 13.3169 8.83594 12.915C9.68438 12.4907 10.8042 12.25 12 12.25ZM12 13.75C10.9866 13.75 10.1062 13.9572 9.50684 14.2568C8.86291 14.5789 8.75 14.8848 8.75 15C8.75 15.6042 8.78838 15.6972 8.93945 15.8066C9.0615 15.8949 9.31314 16.0132 9.82031 16.1045C10.3218 16.1947 11.0228 16.25 12 16.25C12.9772 16.25 13.6782 16.1947 14.1797 16.1045C14.6869 16.0132 14.9385 15.8949 15.0605 15.8066C15.2116 15.6972 15.25 15.6042 15.25 15C15.25 14.8848 15.1371 14.5789 14.4932 14.2568C13.8939 13.9572 13.0134 13.75 12 13.75ZM12 6.25C13.5188 6.25 14.75 7.48122 14.75 9C14.75 10.5188 13.5188 11.75 12 11.75C10.4812 11.75 9.25 10.5188 9.25 9C9.25 7.48122 10.4812 6.25 12 6.25ZM12 7.75C11.3096 7.75 10.75 8.30964 10.75 9C10.75 9.69036 11.3096 10.25 12 10.25C12.6904 10.25 13.25 9.69036 13.25 9C13.25 8.30964 12.6904 7.75 12 7.75Z" fill="#48465C"/>
</svg>
