<svg width="24" height="24" viewBox="0 0 24 24" fill="none" xmlns="http://www.w3.org/2000/svg">
<path d="M13.333 20.4814C13.7471 20.4814 14.0828 20.8209 14.083 21.2402C14.083 21.6597 13.7472 22 13.333 22H10.667C10.2528 22 9.91699 21.6597 9.91699 21.2402C9.91717 20.8209 10.2529 20.4814 10.667 20.4814H13.333ZM14 17.9492C14.4142 17.9492 14.75 18.2895 14.75 18.709C14.75 19.1284 14.4142 19.4688 14 19.4688H10C9.5858 19.4688 9.25001 19.1284 9.25 18.709C9.25 18.2895 9.58579 17.9492 10 17.9492H14ZM12 2C15.866 2 19 4.84253 19 8.29688V8.38184C18.9913 10.4033 18.1308 12.348 16.5898 13.8281L15.4854 14.8809C15.1756 15.1761 15 15.5879 15 16.0186C14.9998 16.6655 14.4817 17.1895 13.8428 17.1895H10.1572C9.51834 17.1895 9.00019 16.6655 9 16.0186C9 15.5879 8.82433 15.1761 8.51465 14.8809L7.41016 13.8281C5.86919 12.348 5.00872 10.4034 5 8.38184V8.29688C5 4.84253 8.13401 2 12 2Z" fill="#1C274C"/>
</svg>
