<svg width="24" height="24" viewBox="0 0 24 24" fill="none" xmlns="http://www.w3.org/2000/svg">
<g clip-path="url(#clip0_2095_7527)">
<path d="M17.3095 4.25098C18.9256 4.34056 20.5182 5.00385 21.7528 6.23926C24.4155 8.9038 24.4155 13.2231 21.7528 15.8877L18.8915 18.751C16.2284 21.4158 11.9102 21.4158 9.24696 18.751C6.58418 16.0864 6.58408 11.7661 9.24696 9.10156L10.6776 7.66992C10.9704 7.37715 11.4452 7.37735 11.7382 7.66992C12.0311 7.96262 12.0317 8.43746 11.7392 8.73047L10.3085 10.1621C8.23089 12.2409 8.23089 15.6116 10.3085 17.6904C12.3858 19.7691 15.7536 19.7691 17.8309 17.6904L20.6923 14.8281C22.7698 12.7492 22.7698 9.3777 20.6923 7.29883C19.7286 6.3345 18.4881 5.81798 17.2265 5.74805C16.8131 5.72494 16.4965 5.37147 16.5194 4.95801C16.5424 4.54462 16.8961 4.22829 17.3095 4.25098ZM5.10829 5.24805C7.77146 2.5833 12.0896 2.58331 14.7528 5.24805C17.4157 7.91264 17.4157 12.2329 14.7528 14.8975L13.3222 16.3291C13.0293 16.6219 12.5545 16.6218 12.2616 16.3291C11.9687 16.0363 11.9688 15.5615 12.2616 15.2686L13.6923 13.8369C15.7695 11.7581 15.7695 8.38738 13.6923 6.30859C11.6151 4.23004 8.24716 4.23019 6.16982 6.30859L3.30849 9.17188C1.23093 11.2508 1.23091 14.6213 3.30849 16.7002C4.27218 17.6643 5.51184 18.181 6.77333 18.251C7.18679 18.274 7.50323 18.6275 7.48036 19.041C7.45743 19.4546 7.10383 19.771 6.69032 19.748C5.07422 19.6585 3.48159 18.9961 2.24696 17.7607C-0.415906 15.0962 -0.415778 10.776 2.24696 8.11133L5.10829 5.24805Z" fill="#1C274C"/>
</g>
<defs>
<clipPath id="clip0_2095_7527">
<rect width="24" height="24" fill="white"/>
</clipPath>
</defs>
</svg>
