<svg width="24" height="24" viewBox="0 0 24 24" fill="none" xmlns="http://www.w3.org/2000/svg">
<path d="M13.0547 1.25C14.4222 1.24998 15.5246 1.24968 16.3916 1.36621C17.2917 1.48723 18.0495 1.74674 18.6514 2.34863C19.0516 2.74883 19.3007 3.2179 19.458 3.75195C19.6694 3.75524 19.8463 3.7643 20.0088 3.79004C21.3992 4.01041 22.4896 5.10087 22.71 6.49121C22.7502 6.7451 22.7501 7.03385 22.75 7.43555V16.5645C22.7501 16.9662 22.7502 17.2549 22.71 17.5088C22.4896 18.8992 21.3992 19.9895 20.0088 20.21C19.8463 20.2356 19.6694 20.2448 19.458 20.248C19.3007 20.7821 19.0516 21.2511 18.6514 21.6514C18.0495 22.2533 17.2917 22.5128 16.3916 22.6338C15.5246 22.7503 14.4222 22.75 13.0547 22.75H10.9453C9.57775 22.75 8.47535 22.7503 7.6084 22.6338C6.70829 22.5128 5.95055 22.2533 5.34863 21.6514C4.94846 21.2511 4.69922 20.7821 4.54199 20.248C4.33065 20.2448 4.15372 20.2356 3.99121 20.21C2.60088 19.9895 1.5104 18.8992 1.29004 17.5088C1.24982 17.2549 1.24989 16.9662 1.25 16.5645V7.43555C1.24989 7.03385 1.24982 6.7451 1.29004 6.49121C1.5104 5.10087 2.60088 4.01043 3.99121 3.79004C4.15372 3.76431 4.33065 3.75524 4.54199 3.75195C4.69922 3.21791 4.94844 2.74883 5.34863 2.34863C5.95055 1.74671 6.70829 1.48723 7.6084 1.36621C8.47534 1.24967 9.57785 1.24998 10.9453 1.25H13.0547ZM11 2.75C9.56486 2.75 8.5639 2.75201 7.80859 2.85352C7.07482 2.95217 6.68595 3.13242 6.40918 3.40918C6.13243 3.68594 5.95216 4.07484 5.85352 4.80859C5.75202 5.56389 5.75 6.56485 5.75 8V16C5.75 17.4354 5.75197 18.437 5.85352 19.1924C5.95218 19.9258 6.1325 20.3141 6.40918 20.5908C6.68595 20.8676 7.07482 21.0478 7.80859 21.1465C8.5639 21.2479 9.56486 21.25 11 21.25H13C14.4354 21.25 15.4371 21.248 16.1924 21.1465C16.9258 21.0478 17.3141 20.8676 17.5908 20.5908C17.8676 20.3141 18.0478 19.9258 18.1465 19.1924C18.248 18.437 18.25 17.4354 18.25 16V8C18.25 6.56484 18.2479 5.5639 18.1465 4.80859C18.0478 4.07482 17.8676 3.68594 17.5908 3.40918C17.3141 3.13249 16.9258 2.95218 16.1924 2.85352C15.4371 2.75196 14.4354 2.75 13 2.75H11ZM4.22656 5.27148C3.47775 5.39008 2.89008 5.97775 2.77148 6.72656C2.75231 6.84786 2.75 7.00729 2.75 7.5V16.5C2.75 16.9927 2.75232 17.1521 2.77148 17.2734C2.89008 18.0222 3.47775 18.6099 4.22656 18.7285C4.24958 18.7321 4.27399 18.7348 4.30176 18.7373C4.24985 17.989 4.24999 17.0991 4.25 16.0547V7.94531C4.24999 6.90091 4.24985 6.01101 4.30176 5.2627C4.274 5.26522 4.24958 5.26784 4.22656 5.27148ZM19.6982 5.2627C19.7502 6.01101 19.75 6.9009 19.75 7.94531V16.0547C19.75 17.0991 19.7502 17.989 19.6982 18.7373C19.726 18.7348 19.7504 18.7321 19.7734 18.7285C20.5222 18.6099 21.1099 18.0222 21.2285 17.2734C21.2477 17.1521 21.25 16.9927 21.25 16.5V7.5C21.25 7.00727 21.2477 6.84786 21.2285 6.72656C21.1099 5.97775 20.5222 5.39008 19.7734 5.27148C19.7504 5.26785 19.726 5.26522 19.6982 5.2627ZM14.7969 6.87988C15.6033 6.78581 16.369 7.2591 16.6455 8.02246C16.7134 8.21011 16.7326 8.40024 16.7412 8.56445C16.7497 8.72639 16.75 8.92558 16.75 9.15234V9.21191C16.7502 9.37373 16.7504 9.54534 16.7188 9.71094C16.638 10.1332 16.4049 10.5113 16.0635 10.7725C15.9294 10.8749 15.7748 10.9512 15.6299 11.0234C15.6178 11.0295 15.6057 11.0361 15.5938 11.042L14.2607 11.708C14.0579 11.8094 13.8801 11.8991 13.7314 11.9639C13.5806 12.0296 13.4014 12.0969 13.2031 12.1201C13.0496 12.138 12.8974 12.1356 12.75 12.1143V15C12.75 16.5188 11.5188 17.75 10 17.75C8.48125 17.75 7.25 16.5188 7.25 15C7.25 13.4812 8.48125 12.25 10 12.25C10.4501 12.25 10.875 12.358 11.25 12.5498V9.78809C11.2498 9.62627 11.2496 9.45466 11.2812 9.28906C11.3622 8.86676 11.5959 8.48869 11.9375 8.22754C12.0714 8.12522 12.2254 8.04869 12.3701 7.97656C12.3823 7.97052 12.3943 7.964 12.4062 7.95801L13.7393 7.29199C13.9419 7.19063 14.12 7.10092 14.2686 7.03613C14.4193 6.97041 14.5985 6.90308 14.7969 6.87988ZM10 13.75C9.30968 13.75 8.75 14.3096 8.75 15C8.75 15.6904 9.30968 16.25 10 16.25C10.6904 16.25 11.25 15.6904 11.25 15C11.25 14.3096 10.6904 13.75 10 13.75ZM14.8682 8.41113C14.7602 8.45821 14.618 8.52938 14.3936 8.6416L13.0771 9.2998C12.9813 9.34771 12.9264 9.37531 12.8857 9.39746C12.8605 9.41127 12.8502 9.41819 12.8477 9.41992C12.7994 9.45706 12.7665 9.51052 12.7549 9.57031C12.7545 9.57336 12.753 9.58563 12.752 9.61426C12.7503 9.66051 12.75 9.72202 12.75 9.8291C12.75 10.08 12.7506 10.2389 12.7568 10.3564C12.7608 10.4325 12.7661 10.4663 12.7676 10.4746C12.8084 10.5769 12.9117 10.6404 13.0215 10.6309C13.0295 10.6286 13.0621 10.6193 13.1318 10.5889C13.2398 10.5418 13.382 10.4706 13.6064 10.3584L14.9229 9.7002C15.0187 9.65229 15.0737 9.6247 15.1143 9.60254C15.1396 9.58874 15.1498 9.58181 15.1523 9.58008C15.2009 9.54279 15.2345 9.4888 15.2461 9.42871C15.2466 9.42454 15.2471 9.4121 15.248 9.38574C15.2496 9.3395 15.25 9.27798 15.25 9.1709C15.25 8.92002 15.2494 8.76119 15.2432 8.64355C15.2392 8.56748 15.2339 8.53364 15.2324 8.52539C15.1916 8.42305 15.0883 8.35964 14.9785 8.36914C14.9702 8.37156 14.9377 8.38086 14.8682 8.41113Z" fill="#1C274C"/>
</svg>
