<svg width="24" height="24" viewBox="0 0 24 24" fill="none" xmlns="http://www.w3.org/2000/svg">
<path d="M22.0001 6.25C22.4143 6.25006 22.7501 6.58583 22.7501 7V12.5459C22.7501 12.96 22.4142 13.2958 22.0001 13.2959C21.586 13.2959 21.2502 12.9601 21.2501 12.5459V8.80273L15.1144 14.9014C14.6454 15.3674 14.2412 15.7694 13.8741 16.0479C13.4806 16.3464 13.0432 16.5723 12.505 16.5723C11.9668 16.5722 11.5294 16.3465 11.1359 16.0479C10.7689 15.7693 10.3654 15.3667 9.89661 14.9004L9.62219 14.6279C9.1082 14.1168 8.77471 13.7878 8.49719 13.5771C8.23696 13.3796 8.11487 13.3573 8.0343 13.3574C7.95376 13.3575 7.83217 13.3797 7.57239 13.5771C7.29505 13.788 6.96193 14.1174 6.44836 14.6289L2.52942 18.5312C2.23598 18.8235 1.76117 18.8226 1.46887 18.5293C1.17661 18.2358 1.17738 17.761 1.47083 17.4688L5.42395 13.5312C5.89283 13.0643 6.29712 12.6618 6.66418 12.3828C7.05768 12.0837 7.4957 11.8576 8.0343 11.8574C8.57261 11.8573 9.00988 12.0832 9.40344 12.3818C9.77068 12.6605 10.1755 13.0628 10.6447 13.5293L10.9191 13.8027C11.4326 14.3134 11.7658 14.6421 12.0431 14.8525C12.3029 15.0497 12.4245 15.0722 12.505 15.0723C12.5855 15.0723 12.707 15.0496 12.9669 14.8525C13.2443 14.6421 13.5781 14.3134 14.0919 13.8027L20.1818 7.75H16.4181C16.0038 7.75 15.6681 7.41421 15.6681 7C15.6681 6.58579 16.0038 6.25 16.4181 6.25H22.0001Z" fill="#48465C"/>
</svg>
