<svg width="24" height="24" viewBox="0 0 24 24" fill="none" xmlns="http://www.w3.org/2000/svg">
<path d="M5.53809 10.25C6.20754 10.25 6.76646 10.2499 7.21875 10.2959C7.69216 10.344 8.13139 10.4493 8.52734 10.7139C8.82761 10.9145 9.0855 11.1724 9.28613 11.4727C9.55067 11.8686 9.65594 12.3078 9.7041 12.7812C9.75009 13.2336 9.75002 13.7924 9.75 14.4619V18.5381C9.75002 19.2076 9.75009 19.7664 9.7041 20.2188C9.65594 20.6922 9.55067 21.1314 9.28613 21.5273C9.0855 21.8276 8.82761 22.0855 8.52734 22.2861C8.13139 22.5507 7.69216 22.656 7.21875 22.7041C6.76645 22.7501 6.20756 22.75 5.53809 22.75H5.46191C4.79244 22.75 4.23355 22.7501 3.78125 22.7041C3.30784 22.656 2.86862 22.5507 2.47266 22.2861C2.17239 22.0855 1.91451 21.8276 1.71387 21.5273C1.44933 21.1314 1.34406 20.6922 1.2959 20.2188C1.24991 19.7664 1.24998 19.2076 1.25 18.5381V14.4619C1.24998 13.7924 1.24991 13.2336 1.2959 12.7812C1.34406 12.3078 1.44933 11.8686 1.71387 11.4727C1.91451 11.1724 2.17239 10.9145 2.47266 10.7139C2.86861 10.4493 3.30784 10.344 3.78125 10.2959C4.23354 10.2499 4.79246 10.25 5.46191 10.25H5.53809ZM14.0566 1.25C15.8944 1.24998 17.3501 1.25015 18.4893 1.40332C19.6616 1.56095 20.611 1.89328 21.3594 2.6416C22.1073 3.38985 22.439 4.33867 22.5967 5.51074C22.7498 6.6499 22.75 8.10571 22.75 9.94336V14.0566C22.75 15.8943 22.7498 17.3501 22.5967 18.4893C22.439 19.6613 22.1073 20.6101 21.3594 21.3584C20.611 22.1067 19.6616 22.439 18.4893 22.5967C17.3501 22.7498 15.8944 22.75 14.0566 22.75H12C11.5858 22.75 11.25 22.4142 11.25 22C11.25 21.5858 11.5858 21.25 12 21.25H14C15.9066 21.25 17.2614 21.2485 18.2891 21.1104C19.295 20.9752 19.8747 20.721 20.2979 20.2979C20.7211 19.8747 20.9752 19.2951 21.1104 18.2891C21.2485 17.2614 21.25 15.9067 21.25 14V10C21.25 8.09324 21.2485 6.73859 21.1104 5.71094C20.9752 4.70485 20.7211 4.12536 20.2979 3.70215C19.8747 3.27897 19.295 3.0249 18.2891 2.88965C17.2614 2.75151 15.9066 2.75 14 2.75C12.0933 2.75 10.7386 2.75148 9.71094 2.88965C8.70485 3.02491 8.12536 3.27894 7.70215 3.70215C7.00626 4.39808 6.79542 5.47921 6.75879 8.01074C6.7528 8.42488 6.41217 8.75593 5.99805 8.75C5.58391 8.74401 5.25286 8.40338 5.25879 7.98926C5.29391 5.56182 5.45142 3.83183 6.6416 2.6416C7.3899 1.89332 8.33848 1.56096 9.51074 1.40332C10.6499 1.25016 12.1057 1.24998 13.9434 1.25H14.0566ZM5.5 11.75C4.78216 11.75 4.30002 11.7507 3.93262 11.7881C3.57788 11.8242 3.41409 11.8885 3.30566 11.9609C3.16919 12.0521 3.05213 12.1693 2.96094 12.3057C2.88849 12.4141 2.82419 12.5779 2.78809 12.9326C2.75072 13.3 2.75 13.7822 2.75 14.5V18.5C2.75 19.2178 2.75072 19.7 2.78809 20.0674C2.82419 20.4221 2.88849 20.5859 2.96094 20.6943C3.05213 20.8307 3.16919 20.9479 3.30566 21.0391C3.41409 21.1115 3.57788 21.1758 3.93262 21.2119C4.30002 21.2493 4.78216 21.25 5.5 21.25C6.21784 21.25 6.69998 21.2493 7.06738 21.2119C7.42212 21.1758 7.58591 21.1115 7.69434 21.0391C7.83081 20.9479 7.94787 20.8307 8.03906 20.6943C8.11151 20.5859 8.17581 20.4221 8.21191 20.0674C8.24928 19.7 8.25 19.2178 8.25 18.5V14.5C8.25 13.7822 8.24928 13.3 8.21191 12.9326C8.17581 12.5779 8.11151 12.4141 8.03906 12.3057C7.94787 12.1693 7.83081 12.0521 7.69434 11.9609C7.58591 11.8885 7.42212 11.8242 7.06738 11.7881C6.69998 11.7507 6.21784 11.75 5.5 11.75ZM17 18.25C17.4142 18.25 17.75 18.5858 17.75 19C17.75 19.4142 17.4142 19.75 17 19.75H12C11.5858 19.75 11.25 19.4142 11.25 19C11.25 18.5858 11.5858 18.25 12 18.25H17Z" fill="#48465C"/>
</svg>
