<svg width="24" height="24" viewBox="0 0 24 24" fill="none" xmlns="http://www.w3.org/2000/svg">
<path d="M12 1.25C12.4142 1.25 12.75 1.58579 12.75 2C12.75 2.41421 12.4142 2.75 12 2.75C6.89137 2.75 2.75 6.89137 2.75 12C2.75 17.1086 6.89137 21.25 12 21.25C17.1086 21.25 21.25 17.1086 21.25 12C21.25 11.5858 21.5858 11.25 22 11.25C22.4142 11.25 22.75 11.5858 22.75 12C22.75 17.9371 17.9371 22.75 12 22.75C6.06294 22.75 1.25 17.9371 1.25 12C1.25 6.06294 6.06294 1.25 12 1.25ZM20.4697 2.46973C20.7626 2.17684 21.2374 2.17684 21.5303 2.46973C21.8232 2.76261 21.8232 3.23739 21.5303 3.53027L13.8105 11.25H17.3438C17.7579 11.25 18.0938 11.5858 18.0938 12C18.0937 12.4142 17.7579 12.75 17.3438 12.75H12C11.5858 12.75 11.25 12.4142 11.25 12V6.65625C11.25 6.24204 11.5858 5.90625 12 5.90625C12.4142 5.90625 12.75 6.24204 12.75 6.65625V10.1895L20.4697 2.46973Z" fill="#1C274C"/>
</svg>
