<svg width="24" height="24" viewBox="0 0 24 24" fill="none" xmlns="http://www.w3.org/2000/svg">
<path d="M12 4.25293C14.3075 2.10218 16.9019 1.79388 19.0107 2.80176C21.232 3.86345 22.75 6.31453 22.75 9.11914C22.75 10.4898 22.4791 11.7072 22.0225 12.7988C22.4796 13.4313 22.75 14.2141 22.75 15.0596C22.75 16.5776 22.0801 17.726 21.2402 18.625C20.5742 19.3379 19.7563 19.9369 19.0625 20.4443C18.9082 20.5572 18.76 20.6655 18.6211 20.7695C18.3423 20.9784 18.0211 21.2173 17.6914 21.4004C17.3611 21.5839 16.9559 21.75 16.5 21.75C16.0441 21.75 15.6389 21.5839 15.3086 21.4004C14.9896 21.2233 14.6785 20.994 14.4062 20.79C13.7009 21.2975 12.8841 21.75 12 21.75C11.301 21.75 10.6609 21.4699 10.1045 21.1299C9.54694 20.7893 8.99645 20.3391 8.48438 19.917C8.21326 19.6935 7.92753 19.464 7.63281 19.2275C4.85044 16.995 1.25006 14.1061 1.25 9.11914C1.25 6.31454 2.76796 3.86346 4.98926 2.80176C7.09806 1.79388 9.69249 2.10218 12 4.25293ZM18.3643 4.1543C16.768 3.39137 14.6135 3.58465 12.5518 5.82422C12.4098 5.9785 12.2097 6.06641 12 6.06641C11.7903 6.06641 11.5902 5.9785 11.4482 5.82422C9.38651 3.58465 7.232 3.39137 5.63574 4.1543C3.98206 4.94469 2.75 6.83913 2.75 9.11914C2.75006 13.3458 5.74854 15.7709 8.58691 18.0664C8.87342 18.2981 9.15849 18.529 9.43848 18.7598C9.96461 19.1934 10.4338 19.5744 10.8857 19.8506C11.3389 20.1274 11.699 20.25 12 20.25C12.3238 20.25 12.689 20.1118 13.127 19.8418C11.765 18.794 10.25 17.3409 10.25 15.0596C10.25 13.4864 11.187 12.1315 12.5234 11.5508C13.7328 11.0255 15.1913 11.1606 16.5 12.1641C17.3134 11.5399 18.1914 11.2457 19.0469 11.25C19.6916 11.2532 20.2986 11.4263 20.8262 11.7256C21.0952 10.939 21.25 10.0771 21.25 9.11914C21.25 6.83913 20.0179 4.94469 18.3643 4.1543ZM19.04 12.75C18.4447 12.747 17.7364 12.9921 17.0273 13.6924C16.7352 13.9809 16.2648 13.9809 15.9727 13.6924C14.9307 12.6633 13.8777 12.5982 13.1211 12.9268C12.3262 13.2722 11.75 14.0905 11.75 15.0596C11.75 16.9423 13.2189 18.0581 14.8447 19.249C14.9902 19.3555 15.136 19.4628 15.2783 19.5693C15.5705 19.7883 15.8107 19.9645 16.0361 20.0898C16.2611 20.2148 16.406 20.25 16.5 20.25C16.594 20.25 16.7389 20.2148 16.9639 20.0898C17.1893 19.9645 17.4295 19.7883 17.7217 19.5693C17.8884 19.4445 18.056 19.3214 18.2227 19.1992C18.9101 18.6952 19.5847 18.1998 20.1445 17.6006C20.8143 16.8836 21.25 16.0837 21.25 15.0596C21.25 14.4231 21.0016 13.8514 20.6045 13.4355C20.1986 13.0103 19.6434 12.7532 19.04 12.75Z" fill="#1C274C"/>
</svg>
