<svg width="24" height="24" viewBox="0 0 24 24" fill="none" xmlns="http://www.w3.org/2000/svg">
<path d="M14.0566 1.25C15.8943 1.24998 17.3501 1.25016 18.4893 1.40332C19.6615 1.56095 20.6101 1.89332 21.3584 2.6416C22.1066 3.38992 22.439 4.33844 22.5967 5.51074C22.7498 6.6499 22.75 8.10571 22.75 9.94336V13.0566C22.75 13.7183 22.7503 14.3309 22.7432 14.8965C22.7478 14.9304 22.75 14.9649 22.75 15C22.75 15.0428 22.7462 15.0851 22.7393 15.126C22.7242 16.0331 22.6871 16.8165 22.5967 17.4893C22.439 18.6615 22.1066 19.6101 21.3584 20.3584C20.8945 20.8222 20.354 21.1266 19.7305 21.3281C19.7435 21.3833 19.75 21.4409 19.75 21.5V22C19.75 22.4142 19.4142 22.75 19 22.75C18.5858 22.75 18.25 22.4142 18.25 22V21.626C17.1483 21.7497 15.7682 21.75 14.0566 21.75H9.94336C8.23182 21.75 6.85172 21.7497 5.75 21.626V22C5.75 22.4142 5.41421 22.75 5 22.75C4.58579 22.75 4.25 22.4142 4.25 22V21.5C4.25 21.4409 4.25661 21.3833 4.26953 21.3281C3.64607 21.1266 3.10548 20.8222 2.6416 20.3584C1.89332 19.6101 1.56095 18.6615 1.40332 17.4893C1.31286 16.8165 1.2759 16.0331 1.26074 15.126C1.25384 15.0851 1.25 15.0428 1.25 15C1.25 14.9649 1.25216 14.9304 1.25684 14.8965C1.24969 14.3309 1.24999 13.7183 1.25 13.0566V9.94336C1.24999 9.28168 1.24969 8.66918 1.25684 8.10352C1.25216 8.06969 1.25 8.03511 1.25 8C1.25 7.95716 1.25384 7.9149 1.26074 7.87402C1.2759 6.96696 1.31286 6.18355 1.40332 5.51074C1.56095 4.33844 1.8933 3.38992 2.6416 2.6416C3.38992 1.8933 4.33844 1.56095 5.51074 1.40332C6.64991 1.25016 8.10571 1.24998 9.94336 1.25H14.0566ZM2.77637 15.75C2.79594 16.3366 2.82977 16.8436 2.88965 17.2891C3.02491 18.2951 3.27894 18.8747 3.70215 19.2979C4.12536 19.7211 4.70485 19.9752 5.71094 20.1104C6.73858 20.2485 8.09325 20.25 10 20.25H11.25V15.75H2.77637ZM12.75 20.25H14C15.9067 20.25 17.2614 20.2485 18.2891 20.1104C19.2951 19.9752 19.8747 19.7211 20.2979 19.2979C20.7211 18.8747 20.9752 18.2951 21.1104 17.2891C21.1702 16.8436 21.2041 16.3366 21.2236 15.75H12.75V20.25ZM9 17.25C9.41421 17.25 9.75 17.5858 9.75 18C9.75 18.4142 9.41421 18.75 9 18.75H7C6.58579 18.75 6.25 18.4142 6.25 18C6.25 17.5858 6.58579 17.25 7 17.25H9ZM17 17.25C17.4142 17.25 17.75 17.5858 17.75 18C17.75 18.4142 17.4142 18.75 17 18.75H15C14.5858 18.75 14.25 18.4142 14.25 18C14.25 17.5858 14.5858 17.25 15 17.25H17ZM2.75 10V13C2.75 13.4459 2.75005 13.8616 2.75195 14.25H11.25V8.75H2.75195C2.75005 9.13839 2.75 9.5541 2.75 10ZM12.75 14.25H21.248C21.2499 13.8616 21.25 13.4459 21.25 13V10C21.25 8.09325 21.2485 6.73858 21.1104 5.71094C20.9752 4.70485 20.7211 4.12536 20.2979 3.70215C19.8747 3.27894 19.2951 3.02491 18.2891 2.88965C17.2614 2.7515 15.9067 2.75 14 2.75H12.75V14.25ZM15 7.25C15.4142 7.25 15.75 7.58579 15.75 8V10C15.75 10.4142 15.4142 10.75 15 10.75C14.5858 10.75 14.25 10.4142 14.25 10V8C14.25 7.58579 14.5858 7.25 15 7.25ZM10 2.75C8.09324 2.75 6.73858 2.75149 5.71094 2.88965C4.70485 3.02491 4.12536 3.27894 3.70215 3.70215C3.27894 4.12536 3.02491 4.70485 2.88965 5.71094C2.82977 6.1564 2.79594 6.66332 2.77637 7.25H11.25V2.75H10Z" fill="#1C274C"/>
</svg>
