<svg width="24" height="24" viewBox="0 0 24 24" fill="none" xmlns="http://www.w3.org/2000/svg">
<path d="M13.7112 2.01074C14.2632 2.07537 14.7154 2.52764 15.6194 3.43164L20.5687 8.38086C21.4727 9.28487 21.9251 9.73707 21.9896 10.2891C22.0039 10.4123 22.004 10.537 21.9896 10.6602C21.925 11.2122 21.4727 11.6643 20.5687 12.5684C19.6647 13.4724 19.2123 13.9246 18.6605 13.9893C18.5373 14.0036 18.4125 14.0036 18.2894 13.9893C17.7373 13.9248 17.2852 13.4724 16.3812 12.5684L15.2689 11.4561L11.4564 15.2686L12.5687 16.3809C13.4727 17.2849 13.9251 17.737 13.9896 18.2891C14.0039 18.4123 14.004 18.537 13.9896 18.6602C13.925 19.2122 13.4727 19.6643 12.5687 20.5684C11.6647 21.4724 11.2123 21.9246 10.6605 21.9893C10.5373 22.0036 10.4125 22.0036 10.2894 21.9893C9.73731 21.9248 9.28519 21.4724 8.38116 20.5684L3.43195 15.6191C2.52782 14.715 2.07558 14.263 2.01105 13.7109C1.99665 13.5876 1.99665 13.463 2.01105 13.3398C2.07554 12.7878 2.52777 12.3358 3.43195 11.4316C4.33607 10.5275 4.78808 10.0751 5.34015 10.0107C5.46332 9.99633 5.58807 9.99631 5.71124 10.0107C6.26318 10.0753 6.71543 10.5276 7.61945 11.4316L8.35284 12.165L12.1644 8.35254L11.4319 7.61914C10.5278 6.71502 10.0756 6.26296 10.011 5.71094C9.99665 5.5877 9.99665 5.46308 10.011 5.33984C10.0756 4.78776 10.5278 4.33582 11.4319 3.43164C12.3361 2.52751 12.7882 2.07522 13.3401 2.01074C13.4634 1.99638 13.5881 1.99636 13.7112 2.01074ZM1.9671 17.4873C2.25992 17.1945 2.73475 17.1946 3.02765 17.4873L6.13214 20.5918C6.42474 20.8847 6.42489 21.3595 6.13214 21.6523C5.83934 21.9452 5.3645 21.945 5.07159 21.6523L1.9671 18.5479C1.67444 18.2549 1.67429 17.7801 1.9671 17.4873ZM17.4886 1.96777C17.7815 1.67487 18.2562 1.67487 18.5491 1.96777L21.6526 5.07129C21.9455 5.36418 21.9455 5.83894 21.6526 6.13184C21.3597 6.42473 20.885 6.42473 20.5921 6.13184L17.4886 3.02832C17.1957 2.73543 17.1957 2.26067 17.4886 1.96777Z" fill="#1C274C"/>
</svg>
