<svg width="24" height="24" viewBox="0 0 24 24" fill="none" xmlns="http://www.w3.org/2000/svg">
<path d="M12 2C16.714 2 19.0708 2.00037 20.5352 3.46484C21.9996 4.9293 22 7.286 22 12C22 16.7141 21.9997 19.0708 20.5352 20.5352C19.0708 21.9997 16.714 22 12 22C7.28597 22 4.9293 21.9996 3.46484 20.5352C2.00037 19.0708 2 16.714 2 12C2 7.28595 2.00037 4.9293 3.46484 3.46484C4.9293 2.00037 7.28595 2 12 2ZM15.7588 6.87305C15.4545 6.59215 14.9802 6.61086 14.6992 6.91504C14.4183 7.21933 14.437 7.69364 14.7412 7.97461L15.582 8.75098H9.96191C7.63607 8.75098 5.75021 10.6361 5.75 12.9619C5.75 15.2879 7.63594 17.1738 9.96191 17.1738H14.5C14.9142 17.1738 15.25 16.838 15.25 16.4238C15.25 16.0096 14.9142 15.6738 14.5 15.6738H9.96191C8.46437 15.6738 7.25 14.4594 7.25 12.9619C7.25021 11.4645 8.46449 10.251 9.96191 10.251H15.582L14.7412 11.0264C14.4368 11.3072 14.4183 11.7815 14.6992 12.0859C14.9802 12.3903 15.4544 12.4098 15.7588 12.1289L18.0088 10.0518C18.1625 9.90979 18.2499 9.71016 18.25 9.50098C18.25 9.29166 18.1626 9.0912 18.0088 8.94922L15.7588 6.87305Z" fill="#1C274C"/>
</svg>
