<svg width="24" height="24" viewBox="0 0 24 24" fill="none" xmlns="http://www.w3.org/2000/svg">
<path d="M13.5391 1.25C15.1424 1.24999 16.4001 1.25022 17.4043 1.3457C18.4276 1.44304 19.2661 1.64497 20.0049 2.09766C20.7784 2.57175 21.4283 3.22257 21.9023 3.99609C22.3549 4.73477 22.557 5.57243 22.6543 6.5957C22.7498 7.59988 22.75 8.85759 22.75 10.4609V11.5273C22.75 12.6686 22.7505 13.5643 22.7012 14.2871C22.651 15.0224 22.5469 15.6343 22.3125 16.2002C21.7289 17.6091 20.6091 18.7289 19.2002 19.3125C18.3954 19.6458 17.4786 19.7196 16.2236 19.7412C15.7845 19.7488 15.5059 19.7549 15.2939 19.7783C15.0963 19.8003 15.0196 19.8322 14.9746 19.8584C14.9272 19.8859 14.8621 19.936 14.75 20.0898C14.6287 20.2564 14.4917 20.4864 14.2744 20.8535L13.7324 21.7695C12.9588 23.0765 11.0412 23.0765 10.2676 21.7695L9.72559 20.8535C9.50832 20.4864 9.37131 20.2564 9.25 20.0898C9.13787 19.936 9.0728 19.8859 9.02539 19.8584C8.98044 19.8322 8.90377 19.8003 8.70605 19.7783C8.49404 19.7549 8.21546 19.7488 7.77637 19.7412C6.52138 19.7196 5.60465 19.6458 4.7998 19.3125C3.39089 18.7289 2.27109 17.6091 1.6875 16.2002C1.45315 15.6343 1.34999 15.0224 1.2998 14.2871C1.25047 13.5643 1.25 12.6686 1.25 11.5273V10.4609C1.24999 8.8576 1.25022 7.59988 1.3457 6.5957C1.44303 5.57243 1.64505 4.73477 2.09766 3.99609C2.57178 3.2224 3.2224 2.57178 3.99609 2.09766C4.73477 1.64505 5.57243 1.44303 6.5957 1.3457C7.59988 1.25022 8.8576 1.24999 10.4609 1.25H13.5391ZM10.5 2.75C8.84887 2.75 7.66317 2.75094 6.73828 2.83887C5.82458 2.92574 5.24281 3.09195 4.7793 3.37598C4.20744 3.72642 3.72642 4.20744 3.37598 4.7793C3.09195 5.24281 2.92574 5.82458 2.83887 6.73828C2.75094 7.66317 2.75 8.84887 2.75 10.5V11.5C2.75 12.675 2.75048 13.5188 2.7959 14.1846C2.84085 14.8434 2.92722 15.2733 3.07324 15.626C3.50459 16.6674 4.33265 17.4954 5.37402 17.9268C5.88959 18.1402 6.54766 18.2195 7.80273 18.2412L7.83398 18.2422C8.23198 18.2491 8.58121 18.255 8.87109 18.2871C9.18254 18.3216 9.48756 18.3912 9.78027 18.5615C10.0704 18.7303 10.2794 18.9558 10.4619 19.2061C10.6305 19.4375 10.8036 19.7308 11 20.0625L11.5586 21.0059C11.7514 21.3314 12.2487 21.3314 12.4414 21.0059L13 20.0625C13.1963 19.7308 13.3694 19.4375 13.5381 19.2061C13.7205 18.9558 13.9297 18.7303 14.2197 18.5615C14.5125 18.3912 14.8174 18.3216 15.1289 18.2871C15.4188 18.255 15.768 18.2491 16.166 18.2422L16.1973 18.2412C17.4523 18.2195 18.1104 18.1402 18.626 17.9268C19.6674 17.4954 20.4954 16.6674 20.9268 15.626C21.0727 15.2733 21.1591 14.8434 21.2041 14.1846C21.2495 13.5188 21.25 12.675 21.25 11.5V10.5C21.25 8.84886 21.249 7.66317 21.1611 6.73828C21.0742 5.82459 20.9081 5.24281 20.624 4.7793C20.2736 4.20744 19.7926 3.72642 19.2207 3.37598C18.7572 3.09195 18.1755 2.92574 17.2617 2.83887C16.3368 2.75094 15.1511 2.75 13.5 2.75H10.5ZM12 7.10156C13.0425 6.29148 14.2296 6.03877 15.2725 6.42871C16.5072 6.89064 17.25 8.14562 17.25 9.71484C17.25 10.8758 16.5507 11.9572 15.8164 12.7959C15.0587 13.6611 14.1383 14.4086 13.4551 14.9121C13.4285 14.9317 13.401 14.9516 13.374 14.9717C13.0025 15.2478 12.5822 15.5605 12 15.5605C11.4178 15.5605 10.9976 15.2478 10.626 14.9717C10.599 14.9516 10.5715 14.9317 10.5449 14.9121C9.86176 14.4086 8.94121 13.6611 8.18359 12.7959C7.44924 11.9572 6.75003 10.8758 6.75 9.71484C6.75 8.1456 7.49283 6.89064 8.72754 6.42871C9.77037 6.03877 10.9575 6.29148 12 7.10156ZM14.7471 7.83301C14.2299 7.63964 13.4051 7.74342 12.5361 8.63086C12.395 8.77495 12.2017 8.85645 12 8.85645C11.7983 8.85645 11.605 8.77495 11.4639 8.63086C10.5949 7.74341 9.7701 7.63964 9.25293 7.83301C8.74421 8.02334 8.25 8.60725 8.25 9.71484C8.25004 10.3064 8.63277 11.0323 9.31152 11.8076C9.96706 12.5562 10.791 13.2298 11.4346 13.7041C11.6776 13.8831 11.8012 13.9722 11.8994 14.0254C11.9646 14.0606 11.9837 14.0606 11.998 14.0605H12.002C12.0163 14.0606 12.0354 14.0606 12.1006 14.0254C12.1988 13.9722 12.3224 13.8831 12.5654 13.7041C13.209 13.2298 14.0329 12.5562 14.6885 11.8076C15.3672 11.0323 15.75 10.3064 15.75 9.71484C15.75 8.60724 15.2558 8.02333 14.7471 7.83301Z" fill="#1C274C"/>
</svg>
