<svg width="24" height="24" viewBox="0 0 24 24" fill="none" xmlns="http://www.w3.org/2000/svg">
<path d="M12 17.25C12.4142 17.25 12.75 17.5858 12.75 18V22C12.75 22.4142 12.4142 22.75 12 22.75C11.5858 22.75 11.25 22.4142 11.25 22V18C11.25 17.5858 11.5858 17.25 12 17.25ZM2.54199 3.05371C3.08437 2.77459 3.77723 3.26959 5.16211 4.25879L6.74414 5.38867C7.35968 5.82834 7.66776 6.04815 7.83398 6.37109C8.00023 6.69414 8 7.07325 8 7.83008V16.1709C8 16.9275 8.0002 17.306 7.83398 17.6289C7.66777 17.9519 7.35968 18.1716 6.74414 18.6113L5.16211 19.7412C3.7772 20.7304 3.08438 21.2254 2.54199 20.9463C1.9998 20.667 2 19.8152 2 18.1133V5.88672C2 4.18478 1.99977 3.33296 2.54199 3.05371ZM18.8379 4.25879C20.2228 3.2696 20.9157 2.77459 21.458 3.05371C22.0002 3.33295 22 4.18476 22 5.88672V18.1133C22 19.8153 22.0002 20.667 21.458 20.9463C20.9156 21.2254 20.2228 20.7304 18.8379 19.7412L17.2559 18.6113C16.6403 18.1717 16.3323 17.9519 16.166 17.6289C15.9998 17.306 16 16.9275 16 16.1709V7.83008C16 7.07325 15.9998 6.69414 16.166 6.37109C16.3323 6.04817 16.6403 5.82833 17.2559 5.38867L18.8379 4.25879ZM12 9.25C12.4142 9.25 12.75 9.58579 12.75 10V14C12.75 14.4142 12.4142 14.75 12 14.75C11.5858 14.75 11.25 14.4142 11.25 14V10C11.25 9.58579 11.5858 9.25 12 9.25ZM12 1.25C12.4142 1.25 12.75 1.58579 12.75 2V6C12.75 6.41421 12.4142 6.75 12 6.75C11.5858 6.75 11.25 6.41421 11.25 6V2C11.25 1.58579 11.5858 1.25 12 1.25Z" fill="#1C274C"/>
</svg>
