<svg width="24" height="24" viewBox="0 0 24 24" fill="none" xmlns="http://www.w3.org/2000/svg">
<path d="M12 2C16.714 2 19.0708 2.00037 20.5352 3.46484C21.9996 4.9293 22 7.28597 22 12C22 16.714 21.9997 19.0708 20.5352 20.5352C19.0708 21.9997 16.714 22 12 22C7.28597 22 4.9293 21.9996 3.46484 20.5352C2.00037 19.0708 2 16.714 2 12C2 7.28595 2.00037 4.9293 3.46484 3.46484C4.9293 2.00037 7.28595 2 12 2ZM15.5303 8.46973C15.2374 8.17684 14.7626 8.17684 14.4697 8.46973L8.46973 14.4697C8.17684 14.7626 8.17684 15.2374 8.46973 15.5303C8.76261 15.8232 9.23739 15.8232 9.53027 15.5303L15.5303 9.53027C15.8232 9.23739 15.8232 8.76261 15.5303 8.46973ZM14.5 13.5C13.9477 13.5 13.5 13.9477 13.5 14.5C13.5 15.0523 13.9477 15.5 14.5 15.5C15.0523 15.5 15.5 15.0523 15.5 14.5C15.5 13.9477 15.0523 13.5 14.5 13.5ZM9.5 8.5C8.94772 8.5 8.5 8.94772 8.5 9.5C8.5 10.0523 8.94772 10.5 9.5 10.5C10.0523 10.5 10.5 10.0523 10.5 9.5C10.5 8.94772 10.0523 8.5 9.5 8.5Z" fill="#1C274C"/>
</svg>
