<svg width="24" height="24" viewBox="0 0 24 24" fill="none" xmlns="http://www.w3.org/2000/svg">
<path d="M19.2021 2.4873C20.0211 2.27862 20.8163 2.2453 21.5234 2.71582L21.5322 2.72168C21.5732 2.74929 21.6131 2.77817 21.6514 2.80762C21.8554 2.96499 22.0193 3.14844 22.1514 3.35156C22.4154 3.75783 22.5524 4.24417 22.6299 4.76562C22.6447 4.86568 22.6585 4.97321 22.6699 5.08105C22.7503 5.8447 22.75 6.80346 22.75 7.94629V17.5C22.75 19.2949 21.2949 20.75 19.5 20.75C17.7051 20.75 16.25 19.2949 16.25 17.5C16.25 15.7051 17.7051 14.25 19.5 14.25C20.1443 14.25 20.7449 14.4374 21.25 14.7607V9.1084L12.75 12.5078V19.5C12.75 21.2949 11.2949 22.75 9.5 22.75C7.70507 22.75 6.25 21.2949 6.25 19.5C6.25 17.7051 7.70507 16.25 9.5 16.25C10.1443 16.25 10.7448 16.4374 11.25 16.7607V8.80859C11.25 8.19672 11.2496 7.67822 11.2959 7.25195C11.3451 6.79843 11.453 6.38079 11.7109 5.99316C11.9689 5.60565 12.3126 5.34551 12.7119 5.125C13.0872 4.91774 13.5655 4.71763 14.1299 4.48145L16.2236 3.60449C17.4278 3.10046 18.4101 2.68915 19.2021 2.4873ZM7 1.25C7.41421 1.25 7.75 1.58579 7.75 2C7.75 2.79785 8.07853 3.34048 8.51172 3.69824C8.96643 4.07375 9.54566 4.25 10 4.25C10.4142 4.25 10.75 4.58579 10.75 5C10.75 5.41421 10.4142 5.75 10 5.75C9.27961 5.75 8.44848 5.50942 7.75 5.00488V10.5C7.75 12.2949 6.29493 13.75 4.5 13.75C2.70507 13.75 1.25 12.2949 1.25 10.5C1.25 8.70507 2.70507 7.25 4.5 7.25C5.14429 7.25 5.74487 7.43736 6.25 7.76074V2C6.25 1.58579 6.58579 1.25 7 1.25Z" fill="#48465C"/>
</svg>
