<svg width="24" height="24" viewBox="0 0 24 24" fill="none" xmlns="http://www.w3.org/2000/svg">
<path d="M4.56964 17.8662C5.25642 16.7925 6.72705 16.8273 7.45734 17.7617C8.44734 19.029 9.82984 20.25 12.0003 20.25C14.2087 20.2499 15.57 19.2717 16.5052 18.0215C17.2252 17.0591 18.7903 16.9017 19.5452 18.0439C20.1703 18.9895 20.8488 19.7312 22.1722 20.043C22.5751 20.138 22.8247 20.5413 22.7298 20.9443C22.6348 21.3474 22.2315 21.5976 21.8284 21.5029C19.9767 21.0666 19.0203 19.9697 18.2943 18.8711C18.2373 18.785 18.1513 18.7411 18.0403 18.7432C17.9218 18.7455 17.7937 18.8032 17.7064 18.9199C16.5388 20.4808 14.7604 21.7499 12.0003 21.75C9.15785 21.75 7.38881 20.1103 6.2757 18.6855C6.20397 18.5936 6.11011 18.5588 6.0296 18.5605C5.95376 18.5623 5.88406 18.5946 5.83331 18.6738C5.09383 19.8299 4.13924 21.0394 2.17218 21.5029C1.76901 21.5979 1.36484 21.3475 1.26984 20.9443C1.17503 20.5412 1.42536 20.1379 1.82843 20.043C3.22902 19.7129 3.90747 18.9014 4.56964 17.8662ZM6.93097 4.06934C7.51044 3.49024 8.45805 3.51973 9.00031 4.13379L15.5003 11.5L16.6732 12.8252C17.4465 12.0425 18.8448 11.9841 19.5452 13.0439C20.1703 13.9895 20.8489 14.7302 22.1722 15.042C22.5753 15.137 22.8248 15.5411 22.7298 15.9443C22.6348 16.3474 22.2315 16.5967 21.8284 16.502C19.9765 16.0656 19.0204 14.9688 18.2943 13.8701C18.2373 13.7842 18.1512 13.7411 18.0403 13.7432C17.9218 13.7455 17.7937 13.8032 17.7064 13.9199C16.5388 15.4807 14.7603 16.7499 12.0003 16.75C9.15795 16.75 7.38882 15.1103 6.2757 13.6855C6.20397 13.5936 6.11011 13.5588 6.0296 13.5605C5.95371 13.5623 5.88407 13.5945 5.83331 13.6738C5.09385 14.8299 4.13913 16.0384 2.17218 16.502C1.76901 16.597 1.36484 16.3475 1.26984 15.9443C1.17489 15.5412 1.42529 15.137 1.82843 15.042C3.22905 14.7118 3.90743 13.9005 4.56964 12.8652C4.69084 12.6758 4.83676 12.521 4.99835 12.3994L7.47687 9.41406C7.47687 9.41406 8.44849 7.85654 7.84406 7.15137L6.85675 5.99902C6.37353 5.43526 6.40593 4.59438 6.93097 4.06934ZM17.0003 3C18.381 3.00018 19.5003 4.1194 19.5003 5.5C19.5003 6.8806 18.381 7.99982 17.0003 8C15.6196 8 14.5003 6.88071 14.5003 5.5C14.5003 4.11929 15.6196 3 17.0003 3Z" fill="#1C274C"/>
</svg>
