<svg width="24" height="24" viewBox="0 0 24 24" fill="none" xmlns="http://www.w3.org/2000/svg">
<path d="M14.0566 3.25C15.8943 3.24998 17.3501 3.25016 18.4893 3.40332C19.6615 3.56095 20.6101 3.89332 21.3584 4.6416C22.1066 5.38992 22.439 6.33844 22.5967 7.51074C22.6871 8.18355 22.7242 8.96695 22.7393 9.87402C22.7462 9.9149 22.75 9.95716 22.75 10C22.75 10.0352 22.7478 10.0696 22.7432 10.1035C22.7503 10.6691 22.75 11.2817 22.75 11.9434V12C22.75 12.4142 22.4142 12.75 22 12.75C21.5858 12.75 21.25 12.4142 21.25 12C21.25 11.5541 21.2499 11.1384 21.248 10.75H2.75195C2.75005 11.1384 2.75 11.5541 2.75 12C2.75 13.9067 2.7515 15.2614 2.88965 16.2891C3.02491 17.2951 3.27894 17.8747 3.70215 18.2979C4.12536 18.7211 4.70485 18.9752 5.71094 19.1104C6.73858 19.2485 8.09325 19.25 10 19.25H14C14.4142 19.25 14.75 19.5858 14.75 20C14.75 20.4142 14.4142 20.75 14 20.75H9.94336C8.10571 20.75 6.6499 20.7498 5.51074 20.5967C4.33845 20.439 3.38991 20.1066 2.6416 19.3584C1.89332 18.6101 1.56095 17.6615 1.40332 16.4893C1.25016 15.3501 1.24998 13.8943 1.25 12.0566V11.9434C1.24999 11.2817 1.24969 10.6691 1.25684 10.1035C1.25216 10.0696 1.25 10.0351 1.25 10C1.25 9.95716 1.25384 9.9149 1.26074 9.87402C1.2759 8.96696 1.31286 8.18355 1.40332 7.51074C1.56095 6.33844 1.8933 5.38992 2.6416 4.6416C3.38992 3.8933 4.33844 3.56095 5.51074 3.40332C6.64991 3.25016 8.10571 3.24998 9.94336 3.25H14.0566ZM19 13.25C19.4142 13.25 19.75 13.5858 19.75 14V18.1895L20.4697 17.4697C20.7626 17.1768 21.2374 17.1768 21.5303 17.4697C21.8232 17.7626 21.8232 18.2374 21.5303 18.5303L19.5303 20.5303C19.2374 20.8232 18.7626 20.8232 18.4697 20.5303L16.4697 18.5303C16.1768 18.2374 16.1768 17.7626 16.4697 17.4697C16.7626 17.1768 17.2374 17.1768 17.5303 17.4697L18.25 18.1895V14C18.25 13.5858 18.5858 13.25 19 13.25ZM10 15.25C10.4142 15.25 10.75 15.5858 10.75 16C10.75 16.4142 10.4142 16.75 10 16.75H6C5.58579 16.75 5.25 16.4142 5.25 16C5.25 15.5858 5.58579 15.25 6 15.25H10ZM13 15.25C13.4142 15.25 13.75 15.5858 13.75 16C13.75 16.4142 13.4142 16.75 13 16.75H12.5C12.0858 16.75 11.75 16.4142 11.75 16C11.75 15.5858 12.0858 15.25 12.5 15.25H13ZM10 4.75C8.09324 4.75 6.73858 4.75149 5.71094 4.88965C4.70485 5.02491 4.12536 5.27894 3.70215 5.70215C3.27894 6.12536 3.02491 6.70485 2.88965 7.71094C2.82977 8.1564 2.79594 8.66332 2.77637 9.25H21.2236C21.2041 8.66332 21.1702 8.1564 21.1104 7.71094C20.9752 6.70485 20.7211 6.12536 20.2979 5.70215C19.8747 5.27894 19.2951 5.02491 18.2891 4.88965C17.2614 4.7515 15.9067 4.75 14 4.75H10Z" fill="#48465C"/>
</svg>
