<svg width="24" height="24" viewBox="0 0 24 24" fill="none" xmlns="http://www.w3.org/2000/svg">
<path d="M12.0576 1.25C14.3657 1.24999 16.1745 1.24974 17.5859 1.43945C19.0306 1.63369 20.1706 2.03977 21.0654 2.93457C21.9602 3.82938 22.3662 4.96932 22.5605 6.41406C22.7502 7.82544 22.75 9.63432 22.75 11.9424V12.0576C22.75 14.3657 22.7502 16.1745 22.5605 17.5859C22.3662 19.0306 21.9602 20.1706 21.0654 21.0654C20.1706 21.9602 19.0306 22.3662 17.5859 22.5605C16.1745 22.7502 14.3657 22.75 12.0576 22.75H11.9424C9.63432 22.75 7.82544 22.7502 6.41406 22.5605C4.96932 22.3662 3.82938 21.9602 2.93457 21.0654C2.03977 20.1706 1.63369 19.0306 1.43945 17.5859C1.24974 16.1745 1.24999 14.3657 1.25 12.0576V11.9424C1.24999 9.63433 1.24974 7.82544 1.43945 6.41406C1.63369 4.96932 2.03976 3.82938 2.93457 2.93457C3.82938 2.03976 4.96932 1.63369 6.41406 1.43945C7.82544 1.24974 9.63433 1.24999 11.9424 1.25H12.0576ZM12 2.75C9.62178 2.75 7.91326 2.75198 6.61328 2.92676C5.33508 3.09865 4.56472 3.42551 3.99512 3.99512C3.42551 4.56472 3.09865 5.33508 2.92676 6.61328C2.75198 7.91326 2.75 9.62178 2.75 12C2.75 14.3782 2.75198 16.0867 2.92676 17.3867C3.09865 18.6649 3.42551 19.4352 3.99512 20.0049C4.56472 20.5745 5.33508 20.9014 6.61328 21.0732C7.91326 21.248 9.62178 21.25 12 21.25C14.3782 21.25 16.0867 21.248 17.3867 21.0732C18.6649 20.9014 19.4352 20.5745 20.0049 20.0049C20.5745 19.4352 20.9014 18.6649 21.0732 17.3867C21.248 16.0867 21.25 14.3782 21.25 12C21.25 9.62178 21.248 7.91326 21.0732 6.61328C20.9014 5.33508 20.5745 4.56472 20.0049 3.99512C19.4352 3.42551 18.6649 3.09865 17.3867 2.92676C16.0867 2.75198 14.3782 2.75 12 2.75ZM6 6.25C6.41421 6.25 6.75 6.58579 6.75 7V17C6.75 17.4142 6.41421 17.75 6 17.75C5.58579 17.75 5.25 17.4142 5.25 17V7C5.25 6.58579 5.58579 6.25 6 6.25ZM17.4697 7.46973C17.7626 7.17684 18.2374 7.17684 18.5303 7.46973C18.8232 7.76261 18.8232 8.23739 18.5303 8.53027L17.1289 9.93164C17.5215 10.5245 17.75 11.2357 17.75 12C17.75 12.7643 17.5215 13.4756 17.1289 14.0684L18.5303 15.4697C18.8232 15.7626 18.8232 16.2374 18.5303 16.5303C18.2374 16.8232 17.7626 16.8232 17.4697 16.5303L16.0684 15.1289C15.4756 15.5215 14.7643 15.75 14 15.75C13.2357 15.75 12.5244 15.5215 11.9316 15.1289L10.5303 16.5303C10.2374 16.8232 9.76262 16.8232 9.46973 16.5303C9.17684 16.2374 9.17684 15.7626 9.46973 15.4697L10.8711 14.0684C10.4785 13.4756 10.25 12.7643 10.25 12C10.25 11.2357 10.4785 10.5245 10.8711 9.93164L9.46973 8.53027C9.17684 8.23738 9.17684 7.76262 9.46973 7.46973C9.76262 7.17684 10.2374 7.17684 10.5303 7.46973L11.9316 8.87109C12.5244 8.47845 13.2357 8.25 14 8.25C14.7643 8.25 15.4756 8.47845 16.0684 8.87109L17.4697 7.46973ZM14 9.75C12.7574 9.75 11.75 10.7574 11.75 12C11.75 13.2426 12.7574 14.25 14 14.25C15.2426 14.25 16.25 13.2426 16.25 12C16.25 10.7574 15.2426 9.75 14 9.75Z" fill="#1C274C"/>
</svg>
