<svg width="24" height="24" viewBox="0 0 24 24" fill="none" xmlns="http://www.w3.org/2000/svg">
<path d="M12 1.25C14.0711 1.25003 15.75 2.92895 15.75 5V5.32812C15.8927 5.3404 16.0308 5.35464 16.1641 5.37109C17.174 5.4959 18.0066 5.75777 18.7139 6.34473C19.4212 6.93172 19.8318 7.70221 20.1406 8.67188C20.4398 9.61153 20.6664 10.8194 20.9512 12.3379L20.9717 12.4482C21.3735 14.591 21.6909 16.28 21.749 17.6113C21.8085 18.9757 21.6053 20.1058 20.8359 21.0332C20.0661 21.9607 18.9918 22.3686 17.6396 22.5615C16.3205 22.7497 14.6026 22.75 12.4229 22.75H11.5771C9.39733 22.75 7.67947 22.7497 6.36035 22.5615C5.00816 22.3686 3.93384 21.9607 3.16406 21.0332C2.39458 20.1058 2.19143 18.9757 2.25098 17.6113C2.30908 16.28 2.62555 14.591 3.02734 12.4482L3.04883 12.3379C3.33352 10.8194 3.56018 9.61152 3.85938 8.67188C4.16815 7.70221 4.57884 6.93173 5.28613 6.34473C5.99339 5.75778 6.82605 5.49589 7.83594 5.37109C7.96922 5.35463 8.10727 5.3404 8.25 5.32812V5C8.25 2.92893 9.92893 1.25 12 1.25ZM11.6396 6.75C10.0328 6.75 8.89567 6.75111 8.01953 6.85938C7.16427 6.96508 6.64768 7.16415 6.24414 7.49902C5.84054 7.83399 5.54965 8.30554 5.28809 9.12695C5.02027 9.96811 4.80976 11.0849 4.51367 12.6641C4.09796 14.8812 3.8029 16.4649 3.75 17.6768C3.69804 18.8676 3.88878 19.5573 4.31836 20.0752C4.74815 20.593 5.39114 20.9087 6.57129 21.0771C7.7722 21.2485 9.38384 21.25 11.6396 21.25H12.3604C14.6159 21.25 16.2269 21.2485 17.4277 21.0771C18.6081 20.9087 19.2508 20.5931 19.6807 20.0752C20.1104 19.5572 20.302 18.868 20.25 17.6768C20.1971 16.4649 19.902 14.8812 19.4863 12.6641C19.1903 11.085 18.9797 9.96811 18.7119 9.12695C18.4503 8.30554 18.1595 7.83399 17.7559 7.49902C17.3523 7.16408 16.835 6.96507 15.9795 6.85938C15.1034 6.75117 13.9669 6.75 12.3604 6.75H11.6396ZM14.7969 8.87988C15.6034 8.78581 16.369 9.25908 16.6455 10.0225C16.7134 10.2101 16.7325 10.4002 16.7412 10.5645C16.7497 10.7264 16.75 10.9256 16.75 11.1523V11.2119C16.7503 11.3737 16.7504 11.5453 16.7188 11.7109C16.6379 12.1332 16.4041 12.5114 16.0625 12.7725C15.9286 12.8749 15.7747 12.9513 15.6299 13.0234C15.6177 13.0295 15.6058 13.0359 15.5938 13.042L14.2607 13.709C14.0581 13.8103 13.88 13.8991 13.7314 13.9639C13.5806 14.0295 13.4014 14.097 13.2031 14.1201C13.0496 14.138 12.8974 14.1356 12.75 14.1143V17C12.75 18.5188 11.5188 19.75 10 19.75C8.48122 19.75 7.25 18.5188 7.25 17C7.2501 15.4813 8.48128 14.25 10 14.25C10.4501 14.25 10.875 14.3581 11.25 14.5498V11.7891C11.2497 11.6272 11.2495 11.4548 11.2812 11.2891C11.3621 10.8669 11.596 10.4896 11.9375 10.2285C12.0715 10.126 12.2252 10.0487 12.3701 9.97656C12.3821 9.97056 12.3943 9.96494 12.4062 9.95898L13.7393 9.29199C13.9418 9.19069 14.1201 9.10189 14.2686 9.03711C14.4194 8.97137 14.5986 8.90306 14.7969 8.87988ZM10 15.75C9.30971 15.75 8.7501 16.3098 8.75 17C8.75 17.6904 9.30965 18.25 10 18.25C10.6904 18.25 11.25 17.6904 11.25 17C11.2499 16.3098 10.6903 15.75 10 15.75ZM14.8682 10.4121C14.7602 10.4592 14.6178 10.5294 14.3936 10.6416L13.0771 11.2998C12.9813 11.3477 12.9263 11.3754 12.8857 11.3975C12.8605 11.4113 12.8502 11.4182 12.8477 11.4199C12.7994 11.457 12.7666 11.5106 12.7549 11.5703C12.7545 11.5734 12.7531 11.5863 12.752 11.6152C12.7504 11.6615 12.75 11.7224 12.75 11.8291C12.75 12.0798 12.7507 12.2388 12.7568 12.3564C12.7608 12.4324 12.7661 12.4663 12.7676 12.4746C12.8083 12.5771 12.9116 12.6404 13.0215 12.6309C13.0297 12.6284 13.0623 12.6192 13.1318 12.5889C13.2398 12.5418 13.3821 12.4705 13.6064 12.3584L14.9229 11.7002C15.0188 11.6523 15.0737 11.6246 15.1143 11.6025C15.1394 11.5888 15.1499 11.5819 15.1523 11.5801C15.2006 11.543 15.2335 11.4895 15.2451 11.4297C15.2455 11.4265 15.2471 11.4144 15.248 11.3857C15.2497 11.3395 15.25 11.278 15.25 11.1709C15.25 10.92 15.2493 10.7611 15.2432 10.6436C15.2392 10.5683 15.234 10.535 15.2324 10.5264C15.1917 10.4238 15.0885 10.3597 14.9785 10.3691C14.9705 10.3714 14.938 10.3817 14.8682 10.4121ZM12 2.75C10.7574 2.75 9.75 3.75736 9.75 5V5.25977C10.307 5.24988 10.9182 5.24999 11.5889 5.25H12.4111C13.0818 5.24999 13.693 5.24988 14.25 5.25977V5C14.25 3.75738 13.2426 2.75003 12 2.75Z" fill="#1C274C"/>
</svg>
