<svg width="24" height="24" viewBox="0 0 24 24" fill="none" xmlns="http://www.w3.org/2000/svg">
<path fill-rule="evenodd" clip-rule="evenodd" d="M12.0312 1.25C12.3428 1.24998 12.5445 1.24956 12.751 1.26758C13.7138 1.35162 14.6514 1.74098 15.3916 2.36231C15.5504 2.49559 15.6956 2.64093 15.9209 2.86621L15.9443 2.88868L21.1338 8.07911C21.359 8.30437 21.5044 8.44963 21.6377 8.6084C22.2591 9.34859 22.6484 10.2862 22.7324 11.249C22.7504 11.4555 22.75 11.6573 22.75 11.9688V12.0576C22.75 14.3657 22.7502 16.1745 22.5605 17.5859C22.3662 19.0306 21.9602 20.1706 21.0654 21.0654C20.1706 21.9602 19.0306 22.3663 17.5859 22.5606C16.1745 22.7502 14.3657 22.75 12.0576 22.75H11.9424C9.63432 22.75 7.82544 22.7502 6.41406 22.5606C4.96932 22.3663 3.82938 21.9602 2.93457 21.0654C2.03978 20.1706 1.63369 19.0306 1.43945 17.5859C1.24974 16.1745 1.24999 14.3657 1.25 12.0576V11.9424C1.24999 9.63433 1.24974 7.82545 1.43945 6.41407C1.63369 4.96933 2.03976 3.82938 2.93457 2.93457C3.82938 2.03977 4.96932 1.6337 6.41406 1.43946C7.82544 1.24974 9.63433 1.24999 11.9424 1.25H12.0312ZM12 2.75C9.62178 2.75 7.91326 2.75199 6.61328 2.92676C5.33508 3.09865 4.56472 3.42551 3.99512 3.99512C3.42551 4.56472 3.09865 5.33509 2.92676 6.61329C2.75198 7.91326 2.75 9.62179 2.75 12C2.75 14.3782 2.75198 16.0867 2.92676 17.3867C3.09865 18.6649 3.42551 19.4352 3.99512 20.0049C4.56472 20.5745 5.33508 20.9014 6.61328 21.0732C7.91326 21.248 9.62178 21.25 12 21.25C14.3782 21.25 16.0867 21.248 17.3867 21.0732C18.6649 20.9014 19.4352 20.5745 20.0049 20.0049C20.5745 19.4352 20.9014 18.6649 21.0732 17.3867C21.248 16.0867 21.25 14.3782 21.25 12C21.25 11.6472 21.249 11.5135 21.2373 11.3799C21.18 10.724 20.9126 10.0765 20.4893 9.57227C20.4031 9.46956 20.3058 9.3722 20.0498 9.11621L14.8838 3.9502C14.6278 3.69421 14.5304 3.59697 14.4277 3.51075C13.9234 3.08745 13.276 2.81995 12.6201 2.7627C12.4865 2.75106 12.3528 2.75 12 2.75ZM14.5732 12.25C14.9658 12.2498 15.2687 12.2496 15.5361 12.3027C16.627 12.5197 17.4803 13.373 17.6973 14.4639C17.7504 14.7313 17.7502 15.0342 17.75 15.4268V15.5732C17.7502 15.9658 17.7504 16.2687 17.6973 16.5361C17.4803 17.627 16.627 18.4803 15.5361 18.6973C15.2687 18.7504 14.9658 18.7502 14.5732 18.75H9.42676C9.03422 18.7502 8.73128 18.7504 8.46387 18.6973C7.37297 18.4803 6.51972 17.627 6.30273 16.5361C6.2496 16.2687 6.2498 15.9658 6.25 15.5732V15.4268C6.2498 15.0342 6.2496 14.7313 6.30273 14.4639C6.51972 13.373 7.37297 12.5197 8.46387 12.3027C8.73129 12.2496 9.03421 12.2498 9.42676 12.25H14.5732ZM9.5 13.75C8.9994 13.75 8.85834 13.754 8.75586 13.7744C8.26026 13.8732 7.87312 14.2603 7.77441 14.7559C7.75402 14.8584 7.75 14.9994 7.75 15.5C7.75 16.0006 7.75402 16.1416 7.77441 16.2441C7.87312 16.7397 8.26026 17.1269 8.75586 17.2256C8.85834 17.246 8.9994 17.25 9.5 17.25H14.5C15.0006 17.25 15.1416 17.246 15.2441 17.2256C15.7397 17.1269 16.1268 16.7397 16.2256 16.2441C16.246 16.1416 16.25 16.0006 16.25 15.5C16.25 14.9994 16.246 14.8584 16.2256 14.7559C16.1268 14.2603 15.7397 13.8732 15.2441 13.7744C15.1416 13.754 15.0006 13.75 14.5 13.75H9.5Z" fill="#1C274C"/>
</svg>
