<svg width="24" height="24" viewBox="0 0 24 24" fill="none" xmlns="http://www.w3.org/2000/svg">
<path d="M12 2C17.5228 2 22 6.47715 22 12C22 17.5228 17.5228 22 12 22C6.47715 22 2 17.5228 2 12C2 6.47715 6.47715 2 12 2ZM15.6025 15.5537C15.356 15.221 14.8865 15.151 14.5537 15.3975C13.8253 15.9373 12.9459 16.25 12 16.25C11.0541 16.25 10.1747 15.9373 9.44629 15.3975C9.11354 15.151 8.64407 15.221 8.39746 15.5537C8.15099 15.8865 8.22101 16.356 8.55371 16.6025C9.52608 17.3232 10.7151 17.75 12 17.75C13.2849 17.75 14.4739 17.3232 15.4463 16.6025C15.779 16.356 15.849 15.8865 15.6025 15.5537ZM9 9C8.44772 9 8 9.67157 8 10.5C8 11.3284 8.44772 12 9 12C9.55228 12 10 11.3284 10 10.5C10 9.67157 9.55228 9 9 9ZM15 9C14.4477 9 14 9.67157 14 10.5C14 11.3284 14.4477 12 15 12C15.5523 12 16 11.3284 16 10.5C16 9.67157 15.5523 9 15 9Z" fill="#48465C"/>
</svg>
