<svg width="24" height="24" viewBox="0 0 24 24" fill="none" xmlns="http://www.w3.org/2000/svg">
<path d="M12 2C17.5228 2 22 6.47715 22 12C22 17.5228 17.5228 22 12 22C6.47715 22 2 17.5228 2 12C2 6.47715 6.47715 2 12 2ZM18.6904 9.70703C18.5286 9.3259 18.0883 9.14798 17.707 9.30957L17.6729 9.32422C17.6484 9.33439 17.6111 9.34951 17.5625 9.36914C17.4653 9.40841 17.3223 9.46493 17.1426 9.5332C16.7828 9.66994 16.2772 9.85199 15.6982 10.0342C14.5201 10.4047 13.1111 10.75 12 10.75C10.8887 10.75 9.47988 10.4048 8.30176 10.0342C7.72271 9.852 7.21727 9.66994 6.85742 9.5332C6.67787 9.46498 6.53465 9.40839 6.4375 9.36914C6.38938 9.3497 6.3526 9.33437 6.32812 9.32422L6.29395 9.30957H6.29297C5.9117 9.14798 5.47129 9.3258 5.30957 9.70703C5.14791 10.0882 5.32592 10.5286 5.70703 10.6904L5.71094 10.6924L5.7207 10.6963L5.75293 10.71C5.78139 10.7218 5.82309 10.7384 5.87598 10.7598C5.98183 10.8025 6.13481 10.8631 6.3252 10.9355C6.70551 11.08 7.23859 11.2731 7.85156 11.4658C8.84036 11.7769 10.0879 12.1047 11.25 12.2129V13.4521C11.25 13.8836 11.126 14.306 10.8926 14.6689L8.36914 18.5947C8.14541 18.9432 8.2464 19.4069 8.59473 19.6309C8.94314 19.8548 9.40688 19.7537 9.63086 19.4053L12 15.7207L14.3691 19.4053C14.5931 19.7537 15.0577 19.8549 15.4062 19.6309C15.7543 19.4068 15.8547 18.9431 15.6309 18.5947L13.1074 14.6689C12.8741 14.306 12.75 13.8836 12.75 13.4521V12.2129C13.912 12.1047 15.1596 11.7769 16.1484 11.4658C16.7615 11.273 17.2955 11.08 17.6758 10.9355C17.8659 10.8632 18.0183 10.8024 18.124 10.7598C18.177 10.7384 18.2186 10.7218 18.2471 10.71L18.2803 10.6963L18.2891 10.6924L18.292 10.6914L18.293 10.6904C18.6741 10.5287 18.8521 10.0883 18.6904 9.70703ZM12 5C10.8955 5.00011 10 5.8955 10 7C10 8.1045 10.8955 8.99989 12 9C13.1046 9 14 8.10457 14 7C14 5.89543 13.1046 5 12 5Z" fill="#48465C"/>
</svg>
