<svg width="24" height="24" viewBox="0 0 24 24" fill="none" xmlns="http://www.w3.org/2000/svg">
<path d="M13.0566 1.25C14.8943 1.24998 16.3501 1.25017 17.4893 1.40332C18.6615 1.56096 19.6101 1.89332 20.3584 2.6416C21.1066 3.3899 21.439 4.33845 21.5967 5.51074C21.7498 6.64991 21.75 8.10572 21.75 9.94336V14.0566C21.75 15.8943 21.7498 17.3501 21.5967 18.4893C21.439 19.6616 21.1066 20.6101 20.3584 21.3584C19.6101 22.1066 18.6615 22.4391 17.4893 22.5967C16.3501 22.7498 14.8943 22.75 13.0566 22.75H10.9434C9.1057 22.75 7.6499 22.7498 6.51074 22.5967C5.33844 22.4391 4.38992 22.1066 3.6416 21.3584C2.89332 20.6101 2.56095 19.6616 2.40332 18.4893C2.25016 17.3501 2.24998 15.8943 2.25 14.0566V9.94336C2.24998 8.10571 2.25016 6.64991 2.40332 5.51074C2.56095 4.33845 2.8933 3.3899 3.6416 2.6416C4.38992 1.8933 5.33845 1.56096 6.51074 1.40332C7.51886 1.26779 8.77501 1.25178 10.3242 1.25H13.0566ZM12.75 2.96582V3.53418C12.75 3.60506 12.75 3.67823 12.749 3.75098C12.8217 3.74996 12.8949 3.74997 12.9658 3.75H13.5342C13.7393 3.74992 13.9613 3.75024 14.1484 3.77539C14.3677 3.80488 14.648 3.88042 14.8838 4.11621C15.1196 4.35202 15.1951 4.63223 15.2246 4.85156C15.2498 5.03877 15.2501 5.26072 15.25 5.46582V6.03418C15.2501 6.23926 15.2498 6.46124 15.2246 6.64844C15.1951 6.86776 15.1196 7.14799 14.8838 7.38379C14.648 7.61959 14.3677 7.69513 14.1484 7.72461C13.9613 7.74977 13.7393 7.75008 13.5342 7.75H12.9658C12.8949 7.75002 12.8217 7.75003 12.749 7.74902C12.75 7.82177 12.75 7.89493 12.75 7.96582V8.53418C12.75 8.60506 12.75 8.67823 12.749 8.75098C12.8217 8.74996 12.8949 8.74997 12.9658 8.75H13.5342C13.7393 8.74992 13.9613 8.75024 14.1484 8.77539C14.3677 8.80488 14.648 8.88042 14.8838 9.11621C15.1196 9.35201 15.1951 9.63223 15.2246 9.85156C15.2498 10.0388 15.2501 10.2607 15.25 10.4658V11.0342C15.2501 11.2392 15.2498 11.4613 15.2246 11.6484C15.1951 11.8677 15.1196 12.148 14.8838 12.3838C14.648 12.6196 14.3677 12.6951 14.1484 12.7246C13.9613 12.7498 13.7393 12.7501 13.5342 12.75H12.9658C12.7607 12.7501 12.5387 12.7498 12.3516 12.7246C12.1323 12.6951 11.852 12.6196 11.6162 12.3838C11.3804 12.148 11.3049 11.8677 11.2754 11.6484C11.2502 11.4613 11.2499 11.2392 11.25 11.0342V10.4658C11.25 10.3949 11.25 10.3217 11.251 10.249C11.1783 10.25 11.1051 10.2501 11.0342 10.25H10.4658C10.2606 10.2501 10.0387 10.2498 9.85156 10.2246C9.63224 10.1951 9.35201 10.1196 9.11621 9.88379C8.88042 9.64799 8.80488 9.36775 8.77539 9.14844C8.75023 8.96124 8.74992 8.73926 8.75 8.53418V7.96582C8.74992 7.76072 8.75023 7.53876 8.77539 7.35156C8.80488 7.13223 8.88041 6.85201 9.11621 6.61621C9.35201 6.38041 9.63224 6.30488 9.85156 6.27539C10.0387 6.25023 10.2606 6.24992 10.4658 6.25H11.0342C11.1051 6.24997 11.1783 6.24996 11.251 6.25098C11.25 6.17823 11.25 6.10506 11.25 6.03418V5.46582C11.25 5.39493 11.25 5.32177 11.251 5.24902C11.1783 5.25003 11.1051 5.25003 11.0342 5.25H10.4658C10.2606 5.25008 10.0387 5.24978 9.85156 5.22461C9.63224 5.19513 9.35201 5.11959 9.11621 4.88379C8.88042 4.64799 8.80488 4.36775 8.77539 4.14844C8.75023 3.96124 8.74992 3.73926 8.75 3.53418V2.96582C8.74998 2.89949 8.75015 2.83078 8.75098 2.7627C7.94601 2.77842 7.2785 2.81335 6.71094 2.88965C5.70486 3.02491 5.12536 3.27894 4.70215 3.70215C4.27894 4.12536 4.02491 4.70485 3.88965 5.71094C3.75149 6.73859 3.75 8.09325 3.75 10V14C3.75 15.9067 3.7515 17.2614 3.88965 18.2891C4.02491 19.2952 4.27894 19.8747 4.70215 20.2979C5.12536 20.7211 5.70485 20.9751 6.71094 21.1104C7.73859 21.2484 9.09324 21.25 11 21.25H13C14.9067 21.25 16.2614 21.2484 17.2891 21.1104C18.2951 20.9751 18.8747 20.7211 19.2979 20.2979C19.7211 19.8747 19.9752 19.2952 20.1104 18.2891C20.2485 17.2614 20.25 15.9067 20.25 14V10C20.25 8.09325 20.2485 6.73859 20.1104 5.71094C19.9752 4.70485 19.7211 4.12536 19.2979 3.70215C18.8747 3.27894 18.2951 3.02491 17.2891 2.88965C16.2614 2.7515 14.9067 2.75 13 2.75H12.749C12.75 2.82243 12.75 2.89524 12.75 2.96582ZM13.625 13.75C14.5225 13.75 15.25 14.4776 15.25 15.375V15.5C15.25 17.2949 13.7949 18.75 12 18.75C10.2051 18.75 8.75 17.2949 8.75 15.5V15.375C8.75 14.4776 9.47754 13.75 10.375 13.75H13.625ZM10.375 15.25C10.306 15.25 10.25 15.306 10.25 15.375V15.5C10.25 16.4665 11.0335 17.25 12 17.25C12.9665 17.25 13.75 16.4665 13.75 15.5V15.375C13.75 15.306 13.694 15.25 13.625 15.25H10.375ZM12.751 10.251C12.7498 10.3204 12.75 10.4009 12.75 10.5V11C12.75 11.0991 12.7498 11.1795 12.751 11.249C12.8204 11.2501 12.9009 11.25 13 11.25H13.5C13.5991 11.25 13.6796 11.2501 13.749 11.249C13.7502 11.1795 13.75 11.0991 13.75 11V10.5C13.75 10.4009 13.7502 10.3204 13.749 10.251C13.6796 10.2499 13.5991 10.25 13.5 10.25H13C12.9009 10.25 12.8204 10.2499 12.751 10.251ZM10.251 7.75098C10.2498 7.82043 10.25 7.90093 10.25 8V8.5C10.25 8.59908 10.2498 8.67957 10.251 8.74902C10.3204 8.75014 10.4009 8.75 10.5 8.75H11C11.0991 8.75 11.1796 8.75014 11.249 8.74902C11.2502 8.67957 11.25 8.59908 11.25 8.5V8C11.25 7.90093 11.2502 7.82043 11.249 7.75098C11.1796 7.74986 11.0991 7.75 11 7.75H10.5C10.4009 7.75 10.3204 7.74986 10.251 7.75098ZM12.751 5.25098C12.7498 5.32043 12.75 5.40093 12.75 5.5V6C12.75 6.09908 12.7498 6.17957 12.751 6.24902C12.8204 6.25014 12.9009 6.25 13 6.25H13.5C13.5991 6.25 13.6796 6.25014 13.749 6.24902C13.7502 6.17957 13.75 6.09908 13.75 6V5.5C13.75 5.40093 13.7502 5.32043 13.749 5.25098C13.6796 5.24986 13.5991 5.25 13.5 5.25H13C12.9009 5.25 12.8204 5.24986 12.751 5.25098ZM10.332 2.75C10.3034 2.75017 10.2763 2.75057 10.251 2.75098C10.2498 2.82043 10.25 2.90093 10.25 3V3.5C10.25 3.59908 10.2498 3.67957 10.251 3.74902C10.3204 3.75014 10.4009 3.75 10.5 3.75H11C11.0991 3.75 11.1796 3.75014 11.249 3.74902C11.2502 3.67957 11.25 3.59908 11.25 3.5V3C11.25 2.90093 11.2502 2.82043 11.249 2.75098C11.1796 2.74986 11.0991 2.75 11 2.75C10.7695 2.75 10.5468 2.74971 10.332 2.75Z" fill="#1C274C"/>
</svg>
