<svg width="24" height="24" viewBox="0 0 24 24" fill="none" xmlns="http://www.w3.org/2000/svg">
<path d="M15.6152 2C16.4625 2 17.1453 2.68134 18.5088 4.04492L19.9551 5.49121C21.3184 6.85453 21.9997 7.53679 22 8.38379C22 9.23101 21.3187 9.91373 19.9551 11.2773L11.2773 19.9551C9.91373 21.3187 9.23101 22 8.38379 22C7.53679 21.9997 6.85453 21.3184 5.49121 19.9551L4.04492 18.5088C2.68134 17.1453 2 16.4625 2 15.6152C2.00022 14.8621 2.53989 14.2398 3.61816 13.1523C3.6401 13.182 3.66453 13.2104 3.69141 13.2373L5.10547 14.6514C5.39836 14.9443 5.87312 14.9442 6.16602 14.6514C6.45892 14.3585 6.45892 13.8837 6.16602 13.5908L4.75195 12.1768C4.72475 12.1496 4.69607 12.1246 4.66602 12.1025L5.73828 11.0303C5.76043 11.0603 5.78531 11.089 5.8125 11.1162L7.93359 13.2373C8.22648 13.5302 8.70223 13.5302 8.99512 13.2373C9.28767 12.9445 9.28762 12.4696 8.99512 12.1768L6.87305 10.0557C6.84584 10.0285 6.81717 10.0036 6.78711 9.98145L7.86035 8.9082C7.88251 8.93826 7.90638 8.96791 7.93359 8.99512L9.34863 10.4092C9.64156 10.7017 10.1164 10.702 10.4092 10.4092C10.702 10.1164 10.7017 9.64156 10.4092 9.34863L8.99512 7.93359C8.96791 7.90638 8.93826 7.88251 8.9082 7.86035L9.98145 6.78711C10.0036 6.81718 10.0285 6.84584 10.0557 6.87305L12.1768 8.99512C12.4696 9.28762 12.9445 9.28767 13.2373 8.99512C13.5302 8.70223 13.5302 8.22648 13.2373 7.93359L11.1162 5.8125C11.089 5.78531 11.0603 5.76043 11.0303 5.73828L12.1025 4.66602C12.1246 4.69607 12.1496 4.72475 12.1768 4.75195L13.5908 6.16602C13.8837 6.45892 14.3585 6.45892 14.6514 6.16602C14.9442 5.87312 14.9443 5.39836 14.6514 5.10547L13.2373 3.69141C13.2104 3.66453 13.182 3.6401 13.1523 3.61816C14.2398 2.53989 14.8621 2.00022 15.6152 2Z" fill="#48465C"/>
</svg>
