<svg width="24" height="24" viewBox="0 0 24 24" fill="none" xmlns="http://www.w3.org/2000/svg">
<path d="M12.4396 2.01025C12.43 2.05293 12.4187 2.10552 12.4064 2.16748C12.3716 2.34192 12.3286 2.59143 12.2912 2.90381C12.242 3.31496 12.5353 3.68856 12.9464 3.73779C13.3577 3.78691 13.7312 3.49269 13.7804 3.08154C13.8129 2.81111 13.8493 2.60025 13.8771 2.46045L13.9318 2.18994C16.6634 2.72902 19.1568 4.39984 20.6583 7.00049C22.1598 9.60101 22.3607 12.5958 21.4621 15.231L21.3507 15.1929C21.3185 15.1831 21.2669 15.1669 21.1994 15.144C21.0644 15.0983 20.8636 15.0245 20.6134 14.9175C20.2329 14.7546 19.7921 14.9306 19.629 15.311C19.4661 15.6917 19.642 16.1334 20.0226 16.2964C20.3117 16.4201 20.5494 16.5069 20.7179 16.564C20.7778 16.5843 20.8295 16.6008 20.8712 16.6138C20.0227 18.2489 18.7128 19.6693 16.9992 20.6587C15.2856 21.648 13.4009 22.0724 11.5607 21.9897C11.5703 21.947 11.5815 21.8937 11.5939 21.8315C11.6287 21.6572 11.6718 21.4081 11.7091 21.0962C11.7583 20.685 11.465 20.3115 11.0538 20.2622C10.6426 20.2129 10.2692 20.5064 10.2199 20.9175C10.1874 21.1881 10.151 21.3997 10.1232 21.5396L10.0529 21.8071C7.32721 21.2649 4.83978 19.5953 3.34096 16.9995C1.83968 14.3992 1.63986 11.4039 2.53822 8.76904C2.57122 8.77903 2.73257 8.8331 2.79994 8.85596C2.93501 8.90178 3.13627 8.97526 3.38686 9.08252C3.76759 9.24546 4.20826 9.06872 4.37123 8.68799C4.53412 8.30728 4.35741 7.86656 3.9767 7.70361C3.68792 7.58001 3.45071 7.49316 3.28236 7.43604C3.22242 7.4157 3.17085 7.3983 3.12904 7.38525C3.97756 5.75032 5.28759 4.33062 7.00111 3.34131C8.71476 2.35197 10.5993 1.92754 12.4396 2.01025ZM11.4113 16.4907C11.3117 16.0889 10.905 15.8444 10.5031 15.9438C10.1012 16.0434 9.8556 16.4501 9.95522 16.8521C10.1072 17.4653 10.1974 18.0484 10.2462 18.5845C10.284 18.9967 10.6494 19.3007 11.0617 19.2632C11.474 19.2255 11.7779 18.8601 11.7404 18.4478C11.6853 17.8426 11.5831 17.1842 11.4113 16.4907ZM17.2238 12.6548C16.9255 12.3677 16.4514 12.3771 16.1642 12.6753C15.8771 12.9735 15.8857 13.4477 16.1837 13.7349C16.6983 14.2304 17.2176 14.6483 17.714 14.9985C18.0523 15.2372 18.52 15.1569 18.7589 14.8188C18.9975 14.4806 18.9173 14.0127 18.5792 13.7739C18.1392 13.4635 17.679 13.0931 17.2238 12.6548ZM9.52357 12.2847C9.29001 11.9427 8.82354 11.8549 8.48158 12.0884C8.13961 12.322 8.05169 12.7884 8.28529 13.1304C8.44635 13.3661 8.6027 13.6141 8.75307 13.8745C8.90342 14.1349 9.03956 14.3944 9.16322 14.6519C9.34257 15.0251 9.79096 15.1828 10.1642 15.0034C10.5374 14.8241 10.6949 14.3756 10.5158 14.0024C10.376 13.7113 10.2215 13.4183 10.0519 13.1245C9.88232 12.8308 9.70561 12.5512 9.52357 12.2847ZM14.8361 9.34814C14.6568 8.97491 14.2093 8.81734 13.8361 8.99658C13.4628 9.17593 13.3052 9.62427 13.4845 9.99756C13.6243 10.2886 13.7788 10.5817 13.9484 10.8755C14.1179 11.1691 14.2947 11.4489 14.4767 11.7153C14.7103 12.0572 15.1767 12.1451 15.5187 11.9116C15.8606 11.6781 15.9484 11.2116 15.715 10.8696C15.5539 10.6339 15.3976 10.3859 15.2472 10.1255C15.0968 9.86506 14.9598 9.60554 14.8361 9.34814ZM6.28529 9.00049C5.94692 8.76207 5.47903 8.84288 5.24037 9.18115C5.00179 9.51951 5.08276 9.98737 5.42104 10.2261C5.86098 10.5365 6.32031 10.9068 6.77553 11.3452C7.07385 11.6325 7.54883 11.623 7.83607 11.3247C8.12328 11.0263 8.11479 10.5514 7.81654 10.2642C7.30181 9.76848 6.78178 9.35079 6.28529 9.00049ZM12.9386 4.73682C12.5262 4.77437 12.2226 5.13894 12.2599 5.55127C12.315 6.15625 12.4172 6.81488 12.589 7.5083C12.6886 7.91023 13.0953 8.15567 13.4972 8.05615C13.8991 7.95654 14.1448 7.54994 14.0451 7.14795C13.8931 6.53456 13.8019 5.9517 13.7531 5.41553C13.7155 5.0031 13.351 4.69926 12.9386 4.73682Z" fill="#1C274C"/>
</svg>
