<svg width="24" height="24" viewBox="0 0 24 24" fill="none" xmlns="http://www.w3.org/2000/svg">
<path d="M12 2C12.8114 2 13.5949 2.26825 15.1621 2.80469L15.7354 3.00098C18.7409 4.02979 20.2441 4.54434 20.6221 5.08203C20.9996 5.6199 21 7.21936 21 10.417V11.9912C21 17.6291 16.7612 20.3655 14.1016 21.5273C13.3802 21.8424 13.0193 22 12 22C10.9807 22 10.6199 21.8424 9.89844 21.5273C7.23883 20.3655 3 17.6292 3 11.9912V10.417C3 7.21936 3.00041 5.6199 3.37793 5.08203C3.75595 4.54434 5.25908 4.0298 8.26465 3.00098L8.83789 2.80469C10.4051 2.26824 11.1886 2 12 2ZM12.4502 11.9502C12.1835 11.7502 11.8165 11.7502 11.5498 11.9502L9.5498 13.4502C9.21862 13.6987 9.15192 14.1687 9.40039 14.5C9.64894 14.8312 10.1189 14.8988 10.4502 14.6504L12 13.4873L13.5498 14.6504C13.8811 14.8988 14.3511 14.8312 14.5996 14.5C14.8481 14.1687 14.7814 13.6987 14.4502 13.4502L12.4502 11.9502ZM13.0498 8.40039C12.4276 7.93372 11.5724 7.93372 10.9502 8.40039L7.5498 10.9502C7.21862 11.1987 7.15192 11.6687 7.40039 12C7.64894 12.3312 8.11889 12.3988 8.4502 12.1504L11.8496 9.59961C11.9385 9.53294 12.0615 9.53294 12.1504 9.59961L15.5498 12.1504C15.8811 12.3988 16.3511 12.3312 16.5996 12C16.8481 11.6687 16.7814 11.1987 16.4502 10.9502L13.0498 8.40039Z" fill="#48465C"/>
</svg>
