<svg width="24" height="24" viewBox="0 0 24 24" fill="none" xmlns="http://www.w3.org/2000/svg">
<path d="M12.75 2C14.6356 2 15.5783 2.00015 16.1641 2.58594C16.7499 3.17172 16.75 4.11439 16.75 6V21.25H18.25V14.75H19.25C19.6642 14.75 20 14.4142 20 14C20 13.5858 19.6642 13.25 19.25 13.25H18.25V11.75H19.25C19.6642 11.75 20 11.4142 20 11C20 10.5858 19.6642 10.25 19.25 10.25H18.25V8.75H19.25C19.6642 8.75 20 8.41421 20 8C20 7.58579 19.6642 7.25 19.25 7.25H18.25V5.91016C18.25 5.59644 18.2502 5.29217 18.2461 5.00098C19.3274 5.00561 19.9201 5.0421 20.3613 5.33691C20.5797 5.48282 20.7672 5.67034 20.9131 5.88867C21.2502 6.39312 21.25 7.09554 21.25 8.5V21.25H21.75C22.1642 21.25 22.5 21.5858 22.5 22C22.5 22.4142 22.1642 22.75 21.75 22.75H1.75C1.33579 22.75 1 22.4142 1 22C1 21.5858 1.33579 21.25 1.75 21.25H2.25V8.5C2.25 7.09554 2.24985 6.39312 2.58691 5.88867C2.73281 5.67034 2.92034 5.48281 3.13867 5.33691C3.57987 5.04211 4.17258 5.00561 5.25391 5.00098C5.2498 5.29217 5.24997 5.59644 5.25 5.91016V7.25H4.25C3.83579 7.25 3.5 7.58579 3.5 8C3.5 8.41421 3.83579 8.75 4.25 8.75H5.25V10.25H4.25C3.83579 10.25 3.5 10.5858 3.5 11C3.5 11.4142 3.83579 11.75 4.25 11.75H5.25V13.25H4.25C3.83579 13.25 3.5 13.5858 3.5 14C3.5 14.4142 3.83579 14.75 4.25 14.75H5.25V21.25H6.75V6C6.75 4.11438 6.75015 3.17172 7.33594 2.58594C7.92172 2.00015 8.86438 2 10.75 2H12.75ZM11.75 18.25C11.3358 18.25 11 18.5858 11 19V21.25H12.5V19C12.5 18.5858 12.1642 18.25 11.75 18.25ZM9.75 14.25C9.33579 14.25 9 14.5858 9 15C9 15.4142 9.33579 15.75 9.75 15.75H13.75C14.1642 15.75 14.5 15.4142 14.5 15C14.5 14.5858 14.1642 14.25 13.75 14.25H9.75ZM9.75 11.25C9.33579 11.25 9 11.5858 9 12C9 12.4142 9.33579 12.75 9.75 12.75H13.75C14.1642 12.75 14.5 12.4142 14.5 12C14.5 11.5858 14.1642 11.25 13.75 11.25H9.75ZM12 4.25C10.4812 4.25 9.25 5.48122 9.25 7C9.25 8.51878 10.4812 9.75 12 9.75C13.5188 9.75 14.75 8.51878 14.75 7C14.75 5.48122 13.5188 4.25 12 4.25ZM12 5.75C12.6904 5.75 13.25 6.30964 13.25 7C13.25 7.69036 12.6904 8.25 12 8.25C11.3096 8.25 10.75 7.69036 10.75 7C10.75 6.30964 11.3096 5.75 12 5.75Z" fill="#1C274C"/>
</svg>
