<svg width="24" height="24" viewBox="0 0 24 24" fill="none" xmlns="http://www.w3.org/2000/svg">
<path d="M10.0547 1.25C11.4222 1.24998 12.5246 1.24968 13.3916 1.36621C14.2917 1.48723 15.0494 1.74673 15.6514 2.34863C16.2533 2.95055 16.5128 3.70829 16.6338 4.6084C16.7503 5.47534 16.75 6.57782 16.75 7.94531V16.25H17.5713C18.7745 16.25 19.75 17.2255 19.75 18.4287V18.5C19.75 18.9142 20.0858 19.25 20.5 19.25C20.9142 19.25 21.25 18.9142 21.25 18.5V14.541L19.7881 14.0537C18.8695 13.7473 18.25 12.8872 18.25 11.9189V9.5C18.25 8.25736 19.2574 7.25 20.5 7.25H21.2422C21.1935 6.68022 20.9289 6.14943 20.502 5.7666C20.4586 5.72776 20.409 5.68779 20.2646 5.57227L19.0312 4.58594C18.7078 4.32719 18.6554 3.8547 18.9141 3.53125C19.1729 3.20782 19.6454 3.15531 19.9688 3.41406L21.2178 4.41406C21.34 4.51177 21.4244 4.57904 21.5029 4.64941C22.242 5.3119 22.6884 6.24053 22.7441 7.23145C22.75 7.33681 22.75 7.44499 22.75 7.60156V18.5C22.75 19.7426 21.7426 20.75 20.5 20.75C19.2574 20.75 18.25 19.7426 18.25 18.5V18.4287C18.25 18.0539 17.9461 17.75 17.5713 17.75H16.75V21.25H17C17.4142 21.25 17.75 21.5858 17.75 22C17.75 22.4142 17.4142 22.75 17 22.75H2C1.58579 22.75 1.25 22.4142 1.25 22C1.25 21.5858 1.58579 21.25 2 21.25H2.25V7.94531C2.24998 6.57782 2.24968 5.47534 2.36621 4.6084C2.48723 3.70829 2.74671 2.95055 3.34863 2.34863C3.95055 1.74671 4.70829 1.48723 5.6084 1.36621C6.47534 1.24968 7.57782 1.24998 8.94531 1.25H10.0547ZM9 2.75C7.56484 2.75 6.5639 2.75201 5.80859 2.85352C5.07481 2.95217 4.68594 3.13242 4.40918 3.40918C4.13242 3.68594 3.95217 4.07482 3.85352 4.80859C3.75201 5.5639 3.75 6.56485 3.75 8V21.25H15.25V8C15.25 6.56485 15.2479 5.5639 15.1465 4.80859C15.0478 4.07482 14.8676 3.68594 14.5908 3.40918C14.3141 3.13249 13.9258 2.95218 13.1924 2.85352C12.437 2.75196 11.4354 2.75 10 2.75H9ZM8.85645 9.61426C9.0695 9.25916 9.5306 9.14357 9.88574 9.35645C10.2409 9.56949 10.3564 10.0306 10.1436 10.3857L9.32422 11.75H11C11.2702 11.75 11.5192 11.8957 11.6523 12.1309C11.7854 12.3658 11.7823 12.6541 11.6436 12.8857L10.1436 15.3857C9.93052 15.7408 9.4694 15.8564 9.11426 15.6436C8.75917 15.4305 8.64359 14.9694 8.85645 14.6143L9.67578 13.25H8C7.7298 13.25 7.48079 13.1043 7.34766 12.8691C7.21467 12.6342 7.21763 12.3459 7.35645 12.1143L8.85645 9.61426ZM20.5 8.75C20.0858 8.75 19.75 9.08579 19.75 9.5V11.9189C19.75 12.2417 19.9565 12.5288 20.2627 12.6309L21.25 12.959V8.75H20.5Z" fill="#1C274C"/>
</svg>
