<svg width="24" height="24" viewBox="0 0 24 24" fill="none" xmlns="http://www.w3.org/2000/svg">
<path d="M11.5566 3.25C13.3943 3.24998 14.8501 3.25016 15.9893 3.40332C17.1615 3.56095 18.1101 3.89332 18.8584 4.6416C19.6066 5.38992 19.939 6.33844 20.0967 7.51074C20.2498 8.64991 20.25 10.1057 20.25 11.9434V12.0566C20.25 13.8943 20.2498 15.3501 20.0967 16.4893C19.939 17.6615 19.6066 18.6101 18.8584 19.3584C18.1101 20.1066 17.1615 20.439 15.9893 20.5967C14.8501 20.7498 13.3943 20.75 11.5566 20.75H9.94336C8.10573 20.75 6.64989 20.7498 5.51074 20.5967C4.33844 20.439 3.38992 20.1066 2.6416 19.3584C1.89332 18.6101 1.56095 17.6615 1.40332 16.4893C1.25016 15.3501 1.24998 13.8943 1.25 12.0566V11.9434C1.24998 10.1057 1.25016 8.6499 1.40332 7.51074C1.56095 6.33844 1.8933 5.38992 2.6416 4.6416C3.38992 3.8933 4.33844 3.56095 5.51074 3.40332C6.64991 3.25016 8.10571 3.24998 9.94336 3.25H11.5566ZM10 4.75C8.09324 4.75 6.73859 4.75149 5.71094 4.88965C4.70485 5.02491 4.12536 5.27894 3.70215 5.70215C3.27894 6.12536 3.02491 6.70485 2.88965 7.71094C2.75149 8.73859 2.75 10.0933 2.75 12C2.75 13.9067 2.7515 15.2614 2.88965 16.2891C3.02491 17.2951 3.27894 17.8747 3.70215 18.2979C4.12536 18.7211 4.70485 18.9752 5.71094 19.1104C6.73858 19.2485 8.09325 19.25 10 19.25H11.5C13.4067 19.25 14.7614 19.2485 15.7891 19.1104C16.7951 18.9752 17.3747 18.7211 17.7979 18.2979C18.2211 17.8747 18.4752 17.2951 18.6104 16.2891C18.7485 15.2614 18.75 13.9067 18.75 12C18.75 10.0933 18.7485 8.73858 18.6104 7.71094C18.4752 6.70485 18.2211 6.12536 17.7979 5.70215C17.3747 5.27894 16.7951 5.02491 15.7891 4.88965C14.7614 4.7515 13.4067 4.75 11.5 4.75H10ZM6.63574 8.34473C6.99782 8.14357 7.4541 8.27368 7.65527 8.63574L7.65625 8.63672L7.65723 8.63867L7.6582 8.6416L7.66211 8.64844L7.67188 8.66699C7.67907 8.68095 7.6881 8.69844 7.69824 8.71973C7.71871 8.76272 7.74503 8.82109 7.77441 8.89453C7.83328 9.0417 7.90599 9.25115 7.97656 9.52637C8.1178 10.0773 8.25 10.8901 8.25 12C8.24999 13.11 8.11781 13.9227 7.97656 14.4736C7.90599 14.7488 7.83328 14.9583 7.77441 15.1055C7.74509 15.1788 7.71869 15.2364 7.69824 15.2793C7.688 15.3008 7.67912 15.3189 7.67188 15.333L7.66211 15.3516L7.6582 15.3584L7.65723 15.3613L7.65625 15.3633C7.65558 15.3633 7.63755 15.3542 7 15L7.65527 15.3643C7.45405 15.7262 6.99776 15.8564 6.63574 15.6553C6.27675 15.4559 6.14499 15.0051 6.33887 14.6445L6.34375 14.6348C6.3506 14.6204 6.36438 14.5916 6.38184 14.5479C6.41669 14.4607 6.46907 14.3136 6.52344 14.1016C6.63217 13.6776 6.74999 12.9898 6.75 12C6.75 11.0101 6.63218 10.3225 6.52344 9.89844C6.46909 9.68651 6.4167 9.53937 6.38184 9.45215C6.36438 9.40851 6.3506 9.37963 6.34375 9.36523L6.33887 9.35449C6.14537 8.99403 6.27697 8.54413 6.63574 8.34473ZM22 9.25C22.4142 9.25 22.75 9.58579 22.75 10V14C22.75 14.4142 22.4142 14.75 22 14.75C21.5858 14.75 21.25 14.4142 21.25 14V10C21.25 9.58579 21.5858 9.25 22 9.25Z" fill="#1C274C"/>
</svg>
