<svg width="24" height="24" viewBox="0 0 24 24" fill="none" xmlns="http://www.w3.org/2000/svg">
<path d="M3.375 1.625C3.78921 1.625 4.125 1.96079 4.125 2.375V22.375C4.125 22.7892 3.78921 23.125 3.375 23.125C2.96079 23.125 2.625 22.7892 2.625 22.375V2.375C2.625 1.96079 2.96079 1.625 3.375 1.625ZM15.875 14.375C16.8096 14.375 17.2769 14.3752 17.625 14.5762C17.8529 14.7078 18.0422 14.8971 18.1738 15.125C18.3748 15.4731 18.375 15.9404 18.375 16.875C18.375 17.8096 18.3748 18.2769 18.1738 18.625C18.0422 18.8529 17.8529 19.0422 17.625 19.1738C17.2769 19.3748 16.8096 19.375 15.875 19.375H9.875C8.94038 19.375 8.47308 19.3748 8.125 19.1738C7.89703 19.0422 7.70781 18.8529 7.57617 18.625C7.37521 18.2769 7.375 17.8096 7.375 16.875C7.375 15.9404 7.37521 15.4731 7.57617 15.125C7.70782 14.8971 7.89703 14.7078 8.125 14.5762C8.47308 14.3752 8.94038 14.375 9.875 14.375H15.875ZM18.875 5.375C19.8096 5.375 20.2769 5.37521 20.625 5.57617C20.8529 5.70781 21.0422 5.89703 21.1738 6.125C21.3748 6.47308 21.375 6.94038 21.375 7.875C21.375 8.80962 21.3748 9.27692 21.1738 9.625C21.0422 9.85297 20.8529 10.0422 20.625 10.1738C20.2769 10.3748 19.8096 10.375 18.875 10.375H9.875C8.94038 10.375 8.47308 10.3748 8.125 10.1738C7.89703 10.0422 7.70782 9.85296 7.57617 9.625C7.37521 9.27692 7.375 8.80962 7.375 7.875C7.375 6.94038 7.37521 6.47308 7.57617 6.125C7.70781 5.89704 7.89704 5.7078 8.125 5.57617C8.47308 5.37521 8.94039 5.375 9.875 5.375H18.875Z" fill="#1C274C"/>
</svg>
