<svg width="24" height="24" viewBox="0 0 24 24" fill="none" xmlns="http://www.w3.org/2000/svg">
<path d="M6.9884 16.4517C7.29122 16.1692 7.76539 16.186 8.04797 16.4888C8.33057 16.7915 8.31458 17.2657 8.01184 17.5483L3.72571 21.5483C3.57363 21.6902 3.36969 21.763 3.16223 21.7485C2.95466 21.734 2.7619 21.6339 2.63098 21.4722L1.41711 19.9722C1.15649 19.6503 1.20649 19.1781 1.52844 18.9175C1.85032 18.6569 2.3225 18.7061 2.58313 19.0278L3.29114 19.9028L6.9884 16.4517ZM22.0001 18.2505C22.4143 18.2505 22.7501 18.5863 22.7501 19.0005C22.7499 19.4145 22.4142 19.7504 22.0001 19.7505H12.0001C11.586 19.7505 11.2503 19.4145 11.2501 19.0005C11.2501 18.5863 11.5859 18.2505 12.0001 18.2505H22.0001ZM6.9884 9.45166C7.29122 9.16918 7.76539 9.18601 8.04797 9.48877C8.33055 9.79156 8.31457 10.2657 8.01184 10.5483L3.72571 14.5483C3.57363 14.6902 3.36969 14.763 3.16223 14.7485C2.95466 14.734 2.7619 14.6339 2.63098 14.4722L1.41711 12.9722C1.15649 12.6503 1.20649 12.1781 1.52844 11.9175C1.85032 11.6569 2.3225 11.7061 2.58313 12.0278L3.29114 12.9028L6.9884 9.45166ZM22.0001 11.2505C22.4143 11.2505 22.7501 11.5863 22.7501 12.0005C22.7499 12.4145 22.4142 12.7504 22.0001 12.7505H12.0001C11.586 12.7505 11.2503 12.4145 11.2501 12.0005C11.2501 11.5863 11.5859 11.2505 12.0001 11.2505H22.0001ZM6.9884 2.45166C7.29122 2.16918 7.76539 2.18601 8.04797 2.48877C8.33055 2.79156 8.31458 3.26572 8.01184 3.54834L3.72571 7.54834C3.57363 7.6902 3.36969 7.76298 3.16223 7.74854C2.95466 7.73406 2.7619 7.6339 2.63098 7.47217L1.41711 5.97217C1.15649 5.65023 1.20649 5.1781 1.52844 4.91748C1.85032 4.65695 2.32249 4.70606 2.58313 5.02783L3.29114 5.90283L6.9884 2.45166ZM22.0001 4.25049C22.4143 4.25055 22.7501 4.58631 22.7501 5.00049C22.7499 5.41451 22.4142 5.75043 22.0001 5.75049H12.0001C11.586 5.75049 11.2503 5.41455 11.2501 5.00049C11.2501 4.58628 11.5859 4.25049 12.0001 4.25049H22.0001Z" fill="#1C274C"/>
</svg>
