<svg width="24" height="24" viewBox="0 0 24 24" fill="none" xmlns="http://www.w3.org/2000/svg">
<path d="M12 2C16.714 2 19.0708 2.00037 20.5352 3.46484C21.9996 4.9293 22 7.28597 22 12C22 16.714 21.9997 19.0708 20.5352 20.5352C19.0708 21.9997 16.714 22 12 22C7.28597 22 4.9293 21.9996 3.46484 20.5352C2.00037 19.0708 2 16.714 2 12C2 7.28595 2.00037 4.9293 3.46484 3.46484C4.9293 2.00037 7.28595 2 12 2ZM9.52148 5.25C8.26704 5.25014 7.25014 6.26704 7.25 7.52148V16.8232C7.25 17.8872 8.1128 18.75 9.17676 18.75H13C15.0711 18.75 16.75 17.0711 16.75 15C16.75 13.5268 15.9 12.2519 14.6641 11.6387C15.3352 10.9612 15.75 10.029 15.75 9C15.75 6.92893 14.0711 5.25 12 5.25H9.52148ZM13 12.75C14.2426 12.75 15.25 13.7574 15.25 15C15.25 16.2426 14.2426 17.25 13 17.25H9.17676C8.94123 17.25 8.75 17.0588 8.75 16.8232V12.75H13ZM12 6.75C13.2426 6.75 14.25 7.75736 14.25 9C14.25 10.2426 13.2426 11.25 12 11.25H8.75V7.52148C8.75014 7.09547 9.09547 6.75014 9.52148 6.75H12Z" fill="#1C274C"/>
</svg>
