<svg width="24" height="24" viewBox="0 0 24 24" fill="none" xmlns="http://www.w3.org/2000/svg">
<path d="M12 2C15.7712 2 17.6566 2.00031 18.8281 3.17188C19.9997 4.34346 20 6.22878 20 10V14C20 17.7712 19.9997 19.6566 18.8281 20.8281C17.6566 21.9997 15.7712 22 12 22C8.22878 22 6.34346 21.9997 5.17188 20.8281C4.00031 19.6566 4 17.7712 4 14V10C4 6.22876 4.00031 4.34345 5.17188 3.17188C6.34345 2.00031 8.22876 2 12 2ZM12 9.25C9.37665 9.25 7.25 11.3766 7.25 14C7.25 16.6234 9.37665 18.75 12 18.75C14.6234 18.75 16.75 16.6234 16.75 14C16.75 11.3766 14.6234 9.25 12 9.25ZM12 10.75C13.7949 10.75 15.25 12.2051 15.25 14C15.25 15.7949 13.7949 17.25 12 17.25C10.2051 17.25 8.75 15.7949 8.75 14C8.75 12.2051 10.2051 10.75 12 10.75ZM10 5.25C9.58579 5.25 9.25 5.58579 9.25 6C9.25 6.41421 9.58579 6.75 10 6.75H14C14.4142 6.75 14.75 6.41421 14.75 6C14.75 5.58579 14.4142 5.25 14 5.25H10Z" fill="#1C274C"/>
</svg>
