<svg width="24" height="24" viewBox="0 0 24 24" fill="none" xmlns="http://www.w3.org/2000/svg">
<path d="M11.0906 10.1492C11.6812 9.9502 12.3195 9.95014 12.91 10.1492C14.051 10.5339 14.8439 12.1486 16.4295 15.3767L17.3084 17.1658C17.7177 17.999 17.9229 18.4159 17.9715 18.7C18.1727 19.8785 17.3004 20.9653 16.1258 20.9998C15.8426 21.0081 15.3998 20.8867 14.5154 20.6443C14.0101 20.5058 13.7574 20.4366 13.5047 20.3855C12.5113 20.1844 11.4883 20.1844 10.4949 20.3855C10.2424 20.4366 9.98937 20.5059 9.48419 20.6443C8.60012 20.8866 8.15799 21.008 7.87482 20.9998C6.70004 20.9656 5.82791 19.8787 6.02911 18.7C6.07776 18.4159 6.28286 17.9991 6.6922 17.1658L7.57111 15.3767C9.15681 12.1484 9.94944 10.5338 11.0906 10.1492ZM2.93536 9.56812C3.79045 9.2661 4.84867 9.99792 5.29865 11.2029C5.7486 12.4078 5.42017 13.6301 4.56525 13.9324C3.71023 14.2345 2.65206 13.5023 2.20197 12.2976C1.75197 11.0926 2.08023 9.87028 2.93536 9.56812ZM18.702 11.2029C19.152 9.99795 20.2102 9.26597 21.0652 9.56812C21.9201 9.87049 22.2486 11.0928 21.7986 12.2976C21.3486 13.5024 20.2904 14.2343 19.4354 13.9324C18.5803 13.6303 18.252 12.4079 18.702 11.2029ZM7.2547 2.04761C8.2792 1.75656 9.44345 2.84191 9.85529 4.47241C10.267 6.10306 9.77038 7.66141 8.74591 7.95288C7.7213 8.24419 6.55617 7.15786 6.14435 5.5271C5.73279 3.89654 6.23021 2.33888 7.2547 2.04761ZM14.1443 4.47241C14.5562 2.84172 15.7212 1.7563 16.7459 2.04761C17.7703 2.33906 18.2668 3.89664 17.8553 5.5271C17.4435 7.15767 16.2793 8.24384 15.2547 7.95288C14.2301 7.66157 13.7325 6.10317 14.1443 4.47241Z" fill="#1C274C"/>
</svg>
