<svg width="24" height="24" viewBox="0 0 24 24" fill="none" xmlns="http://www.w3.org/2000/svg">
<path d="M14.0566 3.25C15.8943 3.24998 17.3501 3.25016 18.4893 3.40332C19.6615 3.56095 20.6101 3.89332 21.3584 4.6416C22.1066 5.38992 22.439 6.33844 22.5967 7.51074C22.7498 8.64991 22.75 10.1057 22.75 11.9434V12.0566C22.75 13.8943 22.7498 15.3501 22.5967 16.4893C22.439 17.6615 22.1066 18.6101 21.3584 19.3584C20.6101 20.1066 19.6615 20.439 18.4893 20.5967C17.3501 20.7498 15.8943 20.75 14.0566 20.75H9.94336C8.10573 20.75 6.64989 20.7498 5.51074 20.5967C4.33844 20.439 3.38992 20.1066 2.6416 19.3584C1.89332 18.6101 1.56095 17.6615 1.40332 16.4893C1.25016 15.3501 1.24998 13.8943 1.25 12.0566V11.9434C1.24998 10.1057 1.25016 8.6499 1.40332 7.51074C1.56095 6.33844 1.8933 5.38992 2.6416 4.6416C3.38992 3.8933 4.33844 3.56095 5.51074 3.40332C6.64991 3.25016 8.10571 3.24998 9.94336 3.25H14.0566ZM10 4.75C8.09324 4.75 6.73858 4.75149 5.71094 4.88965C4.70485 5.02491 4.12536 5.27894 3.70215 5.70215C3.27894 6.12536 3.02491 6.70485 2.88965 7.71094C2.75149 8.73858 2.75 10.0933 2.75 12C2.75 13.9067 2.7515 15.2614 2.88965 16.2891C3.02491 17.2951 3.27894 17.8747 3.70215 18.2979C4.12536 18.7211 4.70485 18.9752 5.71094 19.1104C6.73858 19.2485 8.09325 19.25 10 19.25H14C15.9067 19.25 17.2614 19.2485 18.2891 19.1104C19.2951 18.9752 19.8747 18.7211 20.2979 18.2979C20.7211 17.8747 20.9752 17.2951 21.1104 16.2891C21.2485 15.2614 21.25 13.9067 21.25 12C21.25 10.0933 21.2485 8.73858 21.1104 7.71094C20.9752 6.70485 20.7211 6.12536 20.2979 5.70215C19.8747 5.27894 19.2951 5.02491 18.2891 4.88965C17.2614 4.7515 15.9067 4.75 14 4.75H10ZM10 15.25C10.4142 15.25 10.75 15.5858 10.75 16C10.75 16.4142 10.4142 16.75 10 16.75H6C5.58579 16.75 5.25 16.4142 5.25 16C5.25 15.5858 5.58579 15.25 6 15.25H10ZM14 15.25C14.4142 15.25 14.75 15.5858 14.75 16C14.75 16.4142 14.4142 16.75 14 16.75H12.5C12.0858 16.75 11.75 16.4142 11.75 16C11.75 15.5858 12.0858 15.25 12.5 15.25H14ZM18 15.25C18.4142 15.25 18.75 15.5858 18.75 16C18.75 16.4142 18.4142 16.75 18 16.75H16.5C16.0858 16.75 15.75 16.4142 15.75 16C15.75 15.5858 16.0858 15.25 16.5 15.25H18ZM7 12.25C7.41421 12.25 7.75 12.5858 7.75 13C7.75 13.4142 7.41421 13.75 7 13.75H6C5.58579 13.75 5.25 13.4142 5.25 13C5.25 12.5858 5.58579 12.25 6 12.25H7ZM11.5 12.25C11.9142 12.25 12.25 12.5858 12.25 13C12.25 13.4142 11.9142 13.75 11.5 13.75H9.5C9.08579 13.75 8.75 13.4142 8.75 13C8.75 12.5858 9.08579 12.25 9.5 12.25H11.5ZM18 12.25C18.4142 12.25 18.75 12.5858 18.75 13C18.75 13.4142 18.4142 13.75 18 13.75H14C13.5858 13.75 13.25 13.4142 13.25 13C13.25 12.5858 13.5858 12.25 14 12.25H18Z" fill="#48465C"/>
</svg>
