<svg width="24" height="24" viewBox="0 0 24 24" fill="none" xmlns="http://www.w3.org/2000/svg">
<path d="M15.25 3.25195C16.5388 3.25805 17.6089 3.28495 18.4893 3.40332C19.6615 3.56096 20.6101 3.89337 21.3584 4.6416C22.1066 5.38987 22.439 6.33852 22.5967 7.51074C22.7498 8.64987 22.75 10.1057 22.75 11.9434V12.0566C22.75 13.8944 22.7498 15.3501 22.5967 16.4893C22.439 17.6616 22.1067 18.6101 21.3584 19.3584C20.6101 20.1067 19.6615 20.439 18.4893 20.5967C17.3501 20.7498 15.8943 20.75 14.0566 20.75H9.94336C8.10571 20.75 6.64991 20.7498 5.51074 20.5967C4.33845 20.439 3.38991 20.1067 2.6416 19.3584C1.89329 18.6101 1.56095 17.6616 1.40332 16.4893C1.25015 15.3501 1.24999 13.8944 1.25 12.0566V11.7725C1.25002 11.5529 1.25056 11.3384 1.25098 11.1299C1.25177 10.7464 1.25303 10.3814 1.25781 10.0342C1.27127 9.05891 1.30759 8.22274 1.40332 7.51074C1.56096 6.33851 1.89333 5.38987 2.6416 4.6416C3.38991 3.89336 4.33848 3.56096 5.51074 3.40332C6.22711 3.30701 7.06883 3.27108 8.05176 3.25781C8.217 3.25558 8.47512 3.25413 8.74902 3.25293C9.30163 3.25075 9.75 3.69928 9.75 4.25195V5C9.75 6.24264 10.7574 7.25 12 7.25C13.2426 7.25 14.25 6.24264 14.25 5V4.25C14.2502 3.69791 14.6979 3.24951 15.25 3.25195ZM8 13.25C7.58583 13.25 7.25006 13.5858 7.25 14C7.25 14.4142 7.58579 14.75 8 14.75H13.5C13.9142 14.75 14.25 14.4142 14.25 14C14.2499 13.5858 13.9142 13.25 13.5 13.25H8ZM8 9.75C7.58582 9.75 7.25006 10.0858 7.25 10.5C7.25 10.9142 7.58579 11.25 8 11.25H16C16.4142 11.25 16.75 10.9142 16.75 10.5C16.7499 10.0858 16.4142 9.75 16 9.75H8ZM12 2.25C12.4142 2.25 12.75 2.58579 12.75 3V5C12.75 5.41421 12.4142 5.75 12 5.75C11.5858 5.75 11.25 5.41421 11.25 5V3C11.25 2.58579 11.5858 2.25 12 2.25Z" fill="#1C274C"/>
</svg>
