<svg width="24" height="24" viewBox="0 0 24 24" fill="none" xmlns="http://www.w3.org/2000/svg">
<path d="M7.33301 17C7.76575 17 8.18701 17.1408 8.5332 17.4004L9.4668 18.0996C9.81299 18.3592 10.2342 18.5 10.667 18.5H13.333C13.7658 18.5 14.187 18.3592 14.5332 18.0996L15.4668 17.4004C15.813 17.1408 16.2342 17 16.667 17H21C21.5523 17 22 17.4477 22 18V19C22 20.6569 20.6569 22 19 22H5C3.34315 22 2 20.6569 2 19V18C2 17.4477 2.44772 17 3 17H7.33301ZM14.5 2C17.3284 2 18.7424 2.00023 19.6211 2.87891C20.4998 3.75759 20.5 5.17158 20.5 8V11.5C20.5 13.3856 20.4999 14.3283 19.9141 14.9141C19.3283 15.4999 18.3856 15.5 16.5 15.5H7.5C5.61439 15.5 4.67172 15.4999 4.08594 14.9141C3.50015 14.3283 3.5 13.3856 3.5 11.5V8C3.5 5.17157 3.50023 3.75759 4.37891 2.87891C5.25759 2.00023 6.67157 2 9.5 2H14.5Z" fill="#1C274C"/>
</svg>
