<svg width="24" height="24" viewBox="0 0 24 24" fill="none" xmlns="http://www.w3.org/2000/svg">
<path d="M6.98633 1.25C7.33761 1.24998 7.56416 1.24986 7.78516 1.27051C8.68703 1.35485 9.54534 1.69529 10.2588 2.25H16.5576C16.9661 2.24993 17.2447 2.25006 17.4893 2.28223C19.172 2.50377 20.4963 3.82799 20.7178 5.51074C20.7261 5.57402 20.7327 5.63951 20.7373 5.70898C21.0148 5.83546 21.2715 5.99943 21.5078 6.21191C21.6061 6.30032 21.6996 6.39389 21.7881 6.49219C22.3162 7.07948 22.5426 7.79442 22.6484 8.63574C22.7504 9.44763 22.75 10.4742 22.75 11.7471V14.0566C22.75 15.8943 22.7498 17.3501 22.5967 18.4893C22.439 19.6616 22.1066 20.6101 21.3584 21.3584C20.6101 22.1066 19.6615 22.4391 18.4893 22.5967C17.3501 22.7498 15.8943 22.75 14.0566 22.75H9.94336C8.10572 22.75 6.6499 22.7498 5.51074 22.5967C4.33846 22.4391 3.38991 22.1066 2.6416 21.3584C1.89332 20.6101 1.56095 19.6616 1.40332 18.4893C1.25016 17.3501 1.24999 15.8943 1.25 14.0566V6.85938C1.24989 6.06347 1.24949 5.55664 1.33203 5.11914C1.69461 3.19779 3.1978 1.6946 5.11914 1.33203C5.55665 1.24948 6.06347 1.24989 6.85938 1.25H6.98633ZM6.9502 2.75C6.03356 2.75 5.67873 2.75357 5.39746 2.80664C4.08282 3.05471 3.05471 4.08282 2.80664 5.39746C2.75357 5.67873 2.75 6.03356 2.75 6.9502V14C2.75 15.9067 2.7515 17.2614 2.88965 18.2891C3.02492 19.2951 3.27895 19.8747 3.70215 20.2979C4.12536 20.7211 4.70485 20.9751 5.71094 21.1104C6.73858 21.2484 8.09323 21.25 10 21.25H14C15.9067 21.25 17.2614 21.2484 18.2891 21.1104C19.2951 20.9751 19.8747 20.721 20.2979 20.2979C20.7211 19.8747 20.9752 19.2952 21.1104 18.2891C21.2485 17.2614 21.25 15.9067 21.25 14V11.7979C21.25 10.4622 21.249 9.53059 21.1602 8.82324C21.0736 8.1346 20.9141 7.76329 20.6729 7.49512C20.6198 7.43622 20.5639 7.38013 20.5049 7.32715C20.2368 7.08595 19.8654 6.9274 19.1768 6.84082C18.4694 6.7519 17.5379 6.75 16.2021 6.75H15.7178C14.67 6.75022 13.994 6.75065 13.3545 6.56836C13.0039 6.46841 12.6662 6.32763 12.3477 6.15039C11.7665 5.82705 11.2886 5.34945 10.5479 4.6084L9.91992 3.98047C9.63664 3.6972 9.52746 3.58963 9.41699 3.49805C8.91375 3.08091 8.29633 2.82454 7.64551 2.76367C7.50278 2.75034 7.35022 2.75 6.9502 2.75ZM18 9.25C18.4142 9.25 18.75 9.5858 18.75 10C18.75 10.4142 18.4142 10.75 18 10.75H13C12.5858 10.75 12.25 10.4142 12.25 10C12.25 9.58581 12.5858 9.25002 13 9.25H18ZM11.8115 3.75C12.4544 4.389 12.7463 4.65578 13.0771 4.83984C13.2951 4.96107 13.5258 5.05761 13.7656 5.12598C14.179 5.24378 14.6324 5.25 15.8281 5.25H16.2529C17.4152 5.24998 18.3719 5.25043 19.1475 5.32812C18.8896 4.50342 18.1733 3.8854 17.2939 3.76953C17.16 3.75189 16.9883 3.75 16.5 3.75H11.8115Z" fill="#48465C"/>
</svg>
