<svg width="24" height="24" viewBox="0 0 24 24" fill="none" xmlns="http://www.w3.org/2000/svg">
<path d="M12 4.51318C14.2618 2.39596 16.8253 1.77069 18.9609 2.60693C21.2676 3.51019 22.75 5.99254 22.75 9.31787C22.7499 11.4356 21.6197 13.5197 20.2129 15.314C18.7915 17.1267 17.0032 18.7503 15.5107 19.9614L15.377 20.0698C14.1764 21.0455 13.3094 21.7505 12 21.7505C10.6906 21.7505 9.82363 21.0455 8.62305 20.0698L8.48926 19.9614C6.99683 18.7503 5.20845 17.1267 3.78711 15.314C2.38033 13.5197 1.25005 11.4356 1.25 9.31787C1.25 5.99252 2.73245 3.5102 5.03906 2.60693C7.17472 1.77068 9.73818 2.39596 12 4.51318ZM18.4141 4.00342C16.8492 3.39066 14.6596 3.82794 12.5479 6.08643C12.406 6.2381 12.2077 6.32471 12 6.32471C11.7923 6.32471 11.594 6.2381 11.4521 6.08643C9.3404 3.82794 7.15082 3.39066 5.58594 4.00342C4.01761 4.61756 2.75 6.4133 2.75 9.31787C2.75005 10.9291 3.62952 12.6813 4.96777 14.3882C6.29172 16.0767 7.98469 17.6198 9.43457 18.7964C10.827 19.9264 11.2771 20.2505 12 20.2505C12.7229 20.2505 13.173 19.9264 14.5654 18.7964C16.0153 17.6198 17.7083 16.0767 19.0322 14.3882C20.3705 12.6813 21.2499 10.9292 21.25 9.31787C21.25 6.41332 19.9824 4.61756 18.4141 4.00342ZM16.5 6.25049C16.9142 6.25049 17.25 6.58627 17.25 7.00049V8.25049H18.5C18.9142 8.25049 19.25 8.58628 19.25 9.00049C19.2499 9.41459 18.9141 9.75049 18.5 9.75049H17.25V11.0005C17.2499 11.4146 16.9141 11.7505 16.5 11.7505C16.0859 11.7505 15.7501 11.4146 15.75 11.0005V9.75049H14.5C14.0859 9.75049 13.7501 9.41459 13.75 9.00049C13.75 8.58627 14.0858 8.25049 14.5 8.25049H15.75V7.00049C15.75 6.58627 16.0858 6.25049 16.5 6.25049Z" fill="#48465C"/>
</svg>
