<svg width="24" height="24" viewBox="0 0 24 24" fill="none" xmlns="http://www.w3.org/2000/svg">
<path d="M12 4.5127C14.2618 2.39543 16.8253 1.76927 18.9609 2.60547C21.2676 3.50869 22.75 5.99198 22.75 9.31738C22.7498 11.4352 21.6197 13.5193 20.2129 15.3135C18.7916 17.1263 17.0031 18.7498 15.5107 19.9609L15.377 20.0693C14.1765 21.0449 13.3094 21.749 12 21.749C10.6906 21.749 9.82364 21.045 8.62305 20.0693L8.48926 19.9609C6.99683 18.7498 5.20845 17.1263 3.78711 15.3135C2.38033 13.5193 1.25016 11.4351 1.25 9.31738C1.25 5.99197 2.73238 3.50869 5.03906 2.60547C7.17473 1.76926 9.73819 2.39543 12 4.5127ZM18.4141 4.00293C16.8492 3.39017 14.6597 3.82737 12.5479 6.08594C12.4061 6.23759 12.2077 6.32324 12 6.32324C11.7923 6.32324 11.5939 6.23759 11.4521 6.08594C9.34034 3.82737 7.15084 3.39016 5.58594 4.00293C4.01766 4.61711 2.75 6.41288 2.75 9.31738C2.75016 10.9287 3.62953 12.6809 4.96777 14.3877C6.29172 16.0762 7.9847 17.6194 9.43457 18.7959C10.8269 19.9258 11.2771 20.249 12 20.249C12.7229 20.249 13.173 19.9257 14.5654 18.7959C16.0153 17.6193 17.7083 16.0763 19.0322 14.3877C20.3705 12.6809 21.2498 10.9287 21.25 9.31738C21.25 6.41288 19.9823 4.61711 18.4141 4.00293ZM16.5 6.24902C16.9141 6.24902 17.2499 6.58492 17.25 6.99902V8.24902H18.5C18.9141 8.24902 19.2499 8.58493 19.25 8.99902C19.25 9.41324 18.9142 9.74902 18.5 9.74902H17.25V10.999C17.25 11.4132 16.9142 11.749 16.5 11.749C16.0858 11.749 15.75 11.4132 15.75 10.999V9.74902H14.5C14.0858 9.74902 13.75 9.41323 13.75 8.99902C13.7501 8.58493 14.0859 8.24902 14.5 8.24902H15.75V6.99902C15.7501 6.58492 16.0859 6.24902 16.5 6.24902Z" fill="#1C274C"/>
</svg>
