<svg width="24" height="24" viewBox="0 0 24 24" fill="none" xmlns="http://www.w3.org/2000/svg">
<path d="M15 3.25C15.4142 3.25 15.75 3.58579 15.75 4C15.75 4.41421 15.4142 4.75 15 4.75H12.75V16.5C12.75 18.0188 13.9812 19.25 15.5 19.25C17.0188 19.25 18.25 18.0188 18.25 16.5V15.9053C16.9561 15.5723 16 14.3979 16 13V11.2002C16 10.5375 16.5375 10 17.2002 10H20.7998C21.4625 10 22 10.5375 22 11.2002V13C22 14.3979 21.0439 15.5723 19.75 15.9053V16.5C19.75 18.8472 17.8472 20.75 15.5 20.75C14.0484 20.75 12.7667 20.0217 12 18.9111C11.2333 20.0217 9.95165 20.75 8.5 20.75C6.15279 20.75 4.25 18.8472 4.25 16.5V15.9053C2.95611 15.5723 2 14.3979 2 13V10.8574C2 10.3841 2.38404 10 2.85742 10H7.14258C7.61596 10 8 10.3841 8 10.8574V13C8 14.3979 7.04389 15.5723 5.75 15.9053V16.5C5.75 18.0188 6.98122 19.25 8.5 19.25C10.0188 19.25 11.25 18.0188 11.25 16.5V4.75H9C8.58579 4.75 8.25 4.41421 8.25 4C8.25 3.58579 8.58579 3.25 9 3.25H15Z" fill="#1C274C"/>
</svg>
