<svg width="24" height="24" viewBox="0 0 24 24" fill="none" xmlns="http://www.w3.org/2000/svg">
<path d="M19.7225 3.20092C19.8334 2.80182 19.5997 2.38841 19.2006 2.27755C18.8015 2.16669 18.3881 2.40036 18.2773 2.79946L16.7632 8.25019H9.32006L10.7226 3.20092C10.8335 2.80182 10.5998 2.38841 10.2007 2.27755C9.80163 2.16669 9.38822 2.40036 9.27736 2.79946L7.76327 8.25019H4C3.58579 8.25019 3.25 8.58598 3.25 9.00019C3.25 9.4144 3.58579 9.75019 4 9.75019H7.3466L5.81882 15.2502H2C1.58579 15.2502 1.25 15.586 1.25 16.0002C1.25 16.4144 1.58579 16.7502 2 16.7502H5.40216L4.27736 20.7995C4.1665 21.1986 4.40016 21.612 4.79927 21.7228C5.19837 21.8337 5.61178 21.6 5.72264 21.2009L6.95895 16.7502H9C9.41421 16.7502 9.75 16.4144 9.75 16.0002C9.75 15.586 9.41421 15.2502 9 15.2502H7.37562L8.9034 9.75019H16.4872C16.5661 9.97285 16.7487 10.1548 16.9936 10.2228C17.376 10.329 17.7715 10.119 17.9015 9.75019H22C22.4142 9.75019 22.75 9.4144 22.75 9.00019C22.75 8.58598 22.4142 8.25019 22 8.25019H18.32L19.7225 3.20092Z" fill="#1C274C"/>
<path fill-rule="evenodd" clip-rule="evenodd" d="M16.2132 11.25H17.7868C18.5739 11.25 19.2175 11.25 19.7374 11.2994C20.2767 11.3507 20.7599 11.4604 21.1981 11.7289C21.6354 11.9969 22.0031 12.3646 22.2711 12.8019C22.5396 13.2401 22.6493 13.7233 22.7006 14.2626C22.75 14.7825 22.75 15.4261 22.75 16.2131V16.7761C22.75 17.3363 22.75 17.7947 22.7245 18.169C22.6981 18.5558 22.6419 18.9074 22.5026 19.2437C22.1728 20.0401 21.5401 20.6728 20.7437 21.0026C20.2689 21.1993 19.7457 21.2348 19.1181 21.2456C18.8916 21.2495 18.7729 21.2523 18.6883 21.2617L18.6804 21.2626L18.6781 21.2658C18.6304 21.3313 18.5721 21.4282 18.4598 21.618L18.1887 22.0759C17.6567 22.9747 16.3432 22.9747 15.8112 22.0759L15.5402 21.618C15.4279 21.4282 15.3696 21.3313 15.3219 21.2658L15.3195 21.2626L15.3117 21.2617C15.2271 21.2523 15.1084 21.2495 14.8819 21.2456C14.2543 21.2348 13.7311 21.1993 13.2563 21.0026C12.4599 20.6728 11.8272 20.0401 11.4974 19.2437C11.3581 18.9074 11.3019 18.5558 11.2755 18.169C11.25 17.7947 11.25 17.3364 11.25 16.7761V16.2132C11.25 15.4261 11.25 14.7825 11.2994 14.2626C11.3507 13.7233 11.4604 13.2401 11.7289 12.8019C11.9969 12.3646 12.3646 11.9969 12.8019 11.7289C13.2401 11.4604 13.7233 11.3507 14.2626 11.2994C14.7825 11.25 15.4261 11.25 16.2132 11.25ZM14.4045 12.7927C13.9751 12.8335 13.7486 12.908 13.5856 13.0079C13.3502 13.1522 13.1522 13.3501 13.0079 13.5856C12.908 13.7486 12.8335 13.9751 12.7927 14.4045C12.7508 14.8451 12.75 15.4171 12.75 16.25V16.75C12.75 17.3427 12.7504 17.7497 12.772 18.0669C12.7932 18.3773 12.8322 18.5466 12.8832 18.6697C13.0608 19.0985 13.4015 19.4392 13.8303 19.6168C14.0158 19.6936 14.28 19.735 14.9077 19.7459L14.9335 19.7463C15.1236 19.7496 15.314 19.7528 15.4768 19.7708C15.6609 19.7912 15.8701 19.8355 16.0785 19.9566C16.2843 20.0764 16.4252 20.233 16.5341 20.3823C16.6293 20.5129 16.7242 20.6734 16.8179 20.8317L17 21.1394L17.1821 20.8317C17.2758 20.6734 17.3707 20.5129 17.4659 20.3823C17.5748 20.233 17.7156 20.0764 17.9215 19.9566C18.1298 19.8355 18.3391 19.7912 18.5232 19.7708C18.686 19.7528 18.8762 19.7496 19.0663 19.7463L19.0923 19.7459C19.72 19.735 19.9842 19.6936 20.1697 19.6168C20.5985 19.4392 20.9392 19.0985 21.1168 18.6697C21.1678 18.5466 21.2068 18.3773 21.228 18.0669C21.2496 17.7497 21.25 17.3427 21.25 16.75V16.25C21.25 15.4171 21.2492 14.8451 21.2073 14.4045C21.1665 13.9751 21.092 13.7486 20.9921 13.5856C20.8478 13.3501 20.6498 13.1522 20.4144 13.0079C20.2514 12.908 20.0249 12.8335 19.5955 12.7927C19.1549 12.7508 18.5829 12.75 17.75 12.75H16.25C15.4171 12.75 14.8451 12.7508 14.4045 12.7927Z" fill="#1C274C"/>
</svg>
