<svg width="24" height="24" viewBox="0 0 24 24" fill="none" xmlns="http://www.w3.org/2000/svg">
<path d="M12 6.32812C13.5187 6.32812 14.7499 7.55943 14.75 9.07812C14.75 10.0756 14.2186 10.9495 13.4238 11.4316L16.7148 21.7725C16.8232 22.1132 16.676 22.4832 16.3633 22.6562C16.0503 22.8293 15.6586 22.7573 15.4277 22.4844L12 18.4336L8.57227 22.4844C8.34129 22.7573 7.94965 22.8293 7.63672 22.6562C7.32408 22.4832 7.17677 22.1131 7.28516 21.7725L10.5762 11.4316C9.7814 10.9495 9.25 10.0756 9.25 9.07812C9.2501 7.55946 10.4813 6.32817 12 6.32812ZM9.85352 18.6484L11.0176 17.2725L10.4902 16.6494L9.85352 18.6484ZM12.9824 17.2725L14.1465 18.6484L13.5107 16.6494L12.9824 17.2725ZM4.40625 1.46973C4.69943 1.17713 5.1742 1.17751 5.4668 1.4707C5.75929 1.76389 5.75897 2.23869 5.46582 2.53125C3.78732 4.20645 2.75006 6.52041 2.75 9.07812C2.75 11.6659 3.81199 14.0049 5.52539 15.6846C5.82081 15.9746 5.825 16.4494 5.53516 16.7451C5.24518 17.0405 4.77028 17.0456 4.47461 16.7559C2.48528 14.8057 1.25 12.0852 1.25 9.07812C1.25006 6.1061 2.45739 3.4148 4.40625 1.46973ZM18.6162 1.54297C18.912 1.25301 19.3868 1.25792 19.6768 1.55371C21.5767 3.49193 22.7499 6.14865 22.75 9.07812C22.75 12.0424 21.5493 14.728 19.6094 16.6719C19.3168 16.965 18.8419 16.9654 18.5488 16.6729C18.2557 16.3803 18.2544 15.9055 18.5469 15.6123C20.2178 13.9381 21.25 11.6293 21.25 9.07812C21.2499 6.5569 20.2417 4.27271 18.6055 2.60352C18.3156 2.30778 18.3206 1.83292 18.6162 1.54297ZM11.0254 14.9648C11.0416 14.9809 11.0573 14.998 11.0723 15.0156L12 16.1113L12.9277 15.0156C12.9427 14.998 12.9583 14.9809 12.9746 14.9648L12 11.9023L11.0254 14.9648ZM7.24902 4.53027C7.55145 4.2474 8.02659 4.26309 8.30957 4.56543C8.59255 4.86782 8.5767 5.34294 8.27441 5.62598C7.3255 6.51397 6.75 7.72855 6.75 9.06055C6.75001 10.408 7.33875 11.6358 8.30762 12.5264C8.6124 12.8066 8.63266 13.281 8.35254 13.5859C8.07223 13.8908 7.59694 13.9112 7.29199 13.6309C6.03926 12.4793 5.25001 10.8607 5.25 9.06055C5.25 7.28131 6.02134 5.67913 7.24902 4.53027ZM15.7432 4.60352C16.0294 4.30463 16.5034 4.29422 16.8027 4.58008C17.9999 5.72521 18.75 7.3069 18.75 9.06055C18.75 10.8349 17.9826 12.4329 16.7607 13.5811C16.4589 13.8648 15.9838 13.8498 15.7002 13.5479C15.4168 13.2459 15.4317 12.7719 15.7334 12.4883C16.6779 11.601 17.25 10.3891 17.25 9.06055C17.25 7.74751 16.6913 6.54853 15.7666 5.66406C15.4673 5.37775 15.4569 4.90285 15.7432 4.60352ZM12 7.82812C11.3097 7.82817 10.7501 8.38789 10.75 9.07812C10.75 9.61863 11.093 10.0796 11.5732 10.2539C11.6245 10.259 11.6765 10.2689 11.7275 10.2852C11.752 10.293 11.7757 10.3025 11.7988 10.3125C11.8643 10.3231 11.9315 10.3281 12 10.3281C12.0684 10.3281 12.1357 10.3231 12.2012 10.3125C12.2242 10.3025 12.248 10.2929 12.2725 10.2852C12.3236 10.2689 12.3755 10.259 12.4268 10.2539C12.9071 10.0796 13.25 9.61868 13.25 9.07812C13.2499 8.38786 12.6903 7.82812 12 7.82812Z" fill="#48465C"/>
</svg>
