<svg width="24" height="24" viewBox="0 0 24 24" fill="none" xmlns="http://www.w3.org/2000/svg">
<path d="M12 2C17.5228 2 22 6.47715 22 12C22 17.5228 17.5228 22 12 22C6.47715 22 2 17.5228 2 12C2 6.47715 6.47715 2 12 2ZM12 5.25C8.27208 5.25 5.25 8.27208 5.25 12C5.25 15.7279 8.27208 18.75 12 18.75C12.4142 18.75 12.75 18.4142 12.75 18C12.75 17.5858 12.4142 17.25 12 17.25C9.1005 17.25 6.75 14.8995 6.75 12C6.75 9.1005 9.1005 6.75 12 6.75C14.8995 6.75 17.25 9.1005 17.25 12C17.25 12.6325 17.1384 13.2373 16.9346 13.7969C16.8992 13.8939 16.8298 13.999 16.7188 14.1016L16.6377 14.1758C16.3369 14.4533 15.8854 14.4887 15.5449 14.2617C15.2983 14.0974 15.1505 13.8208 15.1504 13.5244V12C15.1504 10.2603 13.7397 8.84961 12 8.84961C10.2603 8.84961 8.84961 10.2603 8.84961 12C8.84961 13.7397 10.2603 15.1504 12 15.1504C12.7016 15.1504 13.3495 14.9202 13.873 14.5322C14.0552 14.923 14.3433 15.2634 14.7129 15.5098C15.6296 16.1208 16.8456 16.0252 17.6553 15.2783L17.7354 15.2041C17.9855 14.9733 18.2109 14.6753 18.3438 14.3105C18.6067 13.5887 18.75 12.8102 18.75 12C18.75 8.27208 15.7279 5.25 12 5.25ZM12 10.3506C12.9113 10.3506 13.6503 11.0887 13.6504 12C13.6504 12.9113 12.9113 13.6504 12 13.6504C11.0887 13.6504 10.3496 12.9113 10.3496 12C10.3497 11.0887 11.0887 10.3506 12 10.3506Z" fill="#1C274C"/>
</svg>
