<svg width="24" height="24" viewBox="0 0 24 24" fill="none" xmlns="http://www.w3.org/2000/svg">
<path d="M11.8066 2C12.7215 2 13.5511 2 14.3018 2.01465C14.3549 2.00396 14.4102 1.99873 14.4668 2C16.9514 2.05693 18.7225 2.28054 19.9629 3.52344L19.9697 3.53027L19.9775 3.53711C21.2204 4.77751 21.4431 6.5486 21.5 9.0332C21.5013 9.08976 21.496 9.14499 21.4854 9.19824C21.4873 9.29739 21.4888 9.3981 21.4902 9.5H19.75C18.5075 9.5 17.5001 10.5075 17.5 11.75C17.5 12.9926 18.5074 14 19.75 14H21.4902C21.4888 14.1019 21.4872 14.2026 21.4854 14.3018C21.4961 14.3552 21.5013 14.4111 21.5 14.4678C21.4431 16.952 21.2202 18.7226 19.9775 19.9629L19.9629 19.9775C18.7225 21.2204 16.9514 21.4431 14.4668 21.5C14.4102 21.5013 14.355 21.496 14.3018 21.4854C13.5511 21.5 12.7215 21.5 11.8066 21.5H11.6934C10.7785 21.5 9.94893 21.5 9.19824 21.4854C9.14499 21.496 9.08976 21.5013 9.0332 21.5C6.54859 21.4431 4.77751 21.2204 3.53711 19.9775L3.53027 19.9697L3.52246 19.9629C2.2798 18.7226 2.05694 16.952 2 14.4678C1.9987 14.4111 2.00394 14.3552 2.01465 14.3018C2.01271 14.2026 2.01122 14.1019 2.00977 14H3.75C4.99264 14 6 12.9926 6 11.75C5.9999 10.5075 4.99258 9.5 3.75 9.5H2.00977C2.01122 9.39811 2.01271 9.29739 2.01465 9.19824C2.00398 9.14499 1.99872 9.08976 2 9.0332C2.05692 6.54859 2.27959 4.77751 3.52246 3.53711L3.53027 3.53027L3.53711 3.52344C4.77751 2.28054 6.54857 2.05693 9.0332 2C9.08975 1.99873 9.14501 2.00397 9.19824 2.01465C9.94894 2 10.7784 2 11.6934 2H11.8066ZM7.75 7C7.33585 7 7.0001 7.33588 7 7.75C7 8.16421 7.33579 8.5 7.75 8.5H11V15.75C11 16.1642 11.3358 16.5 11.75 16.5C12.1642 16.5 12.5 16.1642 12.5 15.75V8.5H15.75C16.1642 8.5 16.5 8.16421 16.5 7.75C16.4999 7.33588 16.1641 7 15.75 7H7.75ZM3.75 11C4.16415 11 4.4999 11.3359 4.5 11.75C4.5 12.1642 4.16421 12.5 3.75 12.5H1.75C1.33579 12.5 1 12.1642 1 11.75C1.0001 11.3359 1.33585 11 1.75 11H3.75ZM21.75 11C22.1641 11 22.4999 11.3359 22.5 11.75C22.5 12.1642 22.1642 12.5 21.75 12.5H19.75C19.3358 12.5 19 12.1642 19 11.75C19.0001 11.3359 19.3359 11 19.75 11H21.75Z" fill="#1C274C"/>
</svg>
