<svg width="24" height="24" viewBox="0 0 24 24" fill="none" xmlns="http://www.w3.org/2000/svg">
<path d="M6.62537 2.69043C8.72045 1.48084 11.0557 1.05576 13.2865 1.32617C16.5262 1.71892 19.5512 3.57882 21.3099 6.625C23.0686 9.67112 23.1666 13.2206 21.8871 16.2227C21.0058 18.2897 19.4704 20.1 17.3754 21.3096C12.2338 24.278 5.6594 22.5165 2.6908 17.375C-0.277717 12.2334 1.48377 5.65898 6.62537 2.69043ZM12.4506 2.75977C10.7343 2.67436 8.97511 3.06565 7.37537 3.98926C5.77632 4.91247 4.55717 6.24133 3.77283 7.77051C4.13792 8.00393 4.63838 8.35342 5.21423 8.83691C6.39058 9.82466 7.88546 11.3726 9.18591 13.625C10.4863 15.8774 11.0789 17.9454 11.3461 19.458C11.4769 20.1988 11.5296 20.8073 11.5492 21.2402C13.2657 21.3256 15.0263 20.934 16.6254 20.0107C18.2252 19.0871 19.4438 17.7586 20.2279 16.2295C19.8627 15.996 19.3618 15.646 18.7855 15.1621C17.6092 14.1744 16.1151 12.6272 14.8148 10.375C13.5143 8.12258 12.9209 6.05463 12.6537 4.54199C12.5228 3.80117 12.4701 3.19275 12.4506 2.75977ZM3.18982 9.18164C2.42437 11.5774 2.63304 14.2753 3.98962 16.625C5.34621 18.9746 7.57808 20.5041 10.0355 21.0391C10.0105 20.69 9.96214 20.2431 9.86951 19.7188C9.62759 18.3496 9.08566 16.4527 7.88611 14.375C6.68671 12.2977 5.31516 10.8804 4.25037 9.98633C3.84254 9.64388 3.47967 9.37778 3.18982 9.18164ZM13.9652 2.96094C13.9901 3.31005 14.0386 3.75676 14.1312 4.28125C14.3731 5.65051 14.9142 7.54736 16.1136 9.625C17.3132 11.7026 18.6855 13.1195 19.7504 14.0137C20.1582 14.3561 20.521 14.6213 20.8109 14.8174C21.5767 12.4207 21.3673 9.72414 20.0111 7.375C18.6548 5.02572 16.4239 3.49614 13.9652 2.96094Z" fill="#1C274C"/>
</svg>
