<svg width="24" height="24" viewBox="0 0 24 24" fill="none" xmlns="http://www.w3.org/2000/svg">
<path d="M6.62524 2.69043C8.72032 1.48084 11.0556 1.05576 13.2864 1.32617C16.5261 1.7189 19.551 3.57879 21.3098 6.625C23.0685 9.67115 23.1666 13.2206 21.887 16.2227C21.0057 18.2897 19.4703 20.1 17.3752 21.3096C12.2337 24.278 5.65927 22.5166 2.69067 17.375C-0.277822 12.2335 1.48372 5.659 6.62524 2.69043ZM12.4504 2.75977C10.7342 2.67439 8.97496 3.06566 7.37524 3.98926C5.77623 4.91247 4.55703 6.24135 3.77271 7.77051C4.1378 8.00392 4.63825 8.35341 5.21411 8.83691C6.39046 9.82466 7.88534 11.3726 9.18579 13.625C10.4862 15.8774 11.0788 17.9454 11.3459 19.458C11.4768 20.1988 11.5295 20.8073 11.5491 21.2402C13.2655 21.3256 15.0262 20.934 16.6252 20.0107C18.225 19.0871 19.4437 17.7586 20.2278 16.2295C19.8626 15.996 19.3616 15.6459 18.7854 15.1621C17.6091 14.1744 16.115 12.6272 14.8147 10.375C13.5142 8.12258 12.9208 6.05463 12.6536 4.54199C12.5227 3.80118 12.4699 3.19275 12.4504 2.75977ZM3.1897 9.18164C2.42425 11.5774 2.63292 14.2753 3.9895 16.625C5.34609 18.9746 7.57795 20.5041 10.0354 21.0391C10.0104 20.69 9.96202 20.2431 9.86938 19.7188C9.62747 18.3496 9.08554 16.4527 7.88599 14.375C6.68657 12.2976 5.31504 10.8804 4.25024 9.98633C3.84241 9.64388 3.47955 9.37778 3.1897 9.18164ZM13.9651 2.96094C13.99 3.31005 14.0385 3.75676 14.1311 4.28125C14.373 5.65051 14.914 7.54736 16.1135 9.625C17.3131 11.7026 18.6854 13.1195 19.7502 14.0137C20.1581 14.3561 20.5209 14.6213 20.8108 14.8174C21.5766 12.4206 21.3672 9.72417 20.011 7.375C18.6546 5.02569 16.4238 3.49612 13.9651 2.96094Z" fill="#48465C"/>
</svg>
