<svg width="24" height="24" viewBox="0 0 24 24" fill="none" xmlns="http://www.w3.org/2000/svg">
<path d="M12 1.25C17.9371 1.25 22.75 6.06294 22.75 12C22.75 17.9371 17.9371 22.75 12 22.75C6.06294 22.75 1.25 17.9371 1.25 12C1.25 6.06294 6.06294 1.25 12 1.25ZM12 2.75C6.89137 2.75 2.75 6.89137 2.75 12C2.75 17.1086 6.89137 21.25 12 21.25C17.1086 21.25 21.25 17.1086 21.25 12C21.25 6.89137 17.1086 2.75 12 2.75ZM9.5 7.25C9.91421 7.25 10.25 7.58579 10.25 8V14.0596L11.4453 12.7451C11.7241 12.439 12.1985 12.4168 12.5049 12.6953C12.811 12.9741 12.8332 13.4485 12.5547 13.7549L10.0547 16.5049C9.91252 16.6611 9.71114 16.75 9.5 16.75C9.28885 16.75 9.08744 16.6611 8.94531 16.5049L6.44531 13.7549C6.16679 13.4485 6.18897 12.9741 6.49512 12.6953C6.8015 12.4168 7.27602 12.4389 7.55469 12.7451L8.75 14.0596V8C8.75 7.58579 9.08579 7.25 9.5 7.25ZM14.5 7.25C14.7111 7.25 14.9125 7.339 15.0547 7.49512L17.5547 10.2451C17.8332 10.5515 17.811 11.0259 17.5049 11.3047C17.1985 11.5832 16.7241 11.561 16.4453 11.2549L15.25 9.94043V16C15.25 16.4142 14.9142 16.75 14.5 16.75C14.0858 16.75 13.75 16.4142 13.75 16V9.94043L12.5547 11.2549C12.2759 11.561 11.8015 11.5832 11.4951 11.3047C11.189 11.0259 11.1668 10.5515 11.4453 10.2451L13.9453 7.49512C14.0875 7.33899 14.2889 7.25001 14.5 7.25Z" fill="#48465C"/>
</svg>
