<svg width="24" height="24" viewBox="0 0 24 24" fill="none" xmlns="http://www.w3.org/2000/svg">
<path d="M12 13.25C12.7173 13.25 13.1855 13.73 13.5156 14.2031C13.8414 14.67 14.1771 15.3433 14.5752 16.1396L15.9512 18.8916C16.1959 19.3813 16.398 19.7848 16.5312 20.1055C16.656 20.4058 16.7852 20.7755 16.7402 21.1484C16.6449 21.9373 16.0518 22.5755 15.2715 22.7266C14.9026 22.7978 14.5243 22.6941 14.2158 22.5908C13.8865 22.4806 13.4697 22.3082 12.9639 22.0986L12.9375 22.0869C12.52 21.9139 12.3998 21.8675 12.2852 21.8438C12.0971 21.8049 11.9029 21.8049 11.7148 21.8438C11.6002 21.8675 11.48 21.9139 11.0625 22.0869L11.0361 22.0986C10.5304 22.3081 10.1134 22.4806 9.78418 22.5908C9.47568 22.6941 9.09744 22.7978 8.72852 22.7266C7.94831 22.5755 7.35509 21.9373 7.25977 21.1484C7.21481 20.7755 7.34395 20.4058 7.46875 20.1055C7.60196 19.7848 7.80405 19.3812 8.04883 18.8916L9.4248 16.1396C9.82284 15.3433 10.1586 14.67 10.4844 14.2031C10.8145 13.73 11.2827 13.25 12 13.25ZM11.9727 14.7666C11.9232 14.8022 11.8385 14.8843 11.7148 15.0615C11.4597 15.427 11.1722 15.9992 10.7393 16.8652L9.40332 19.5361C9.14222 20.0584 8.96509 20.4145 8.85449 20.6807C8.76725 20.8907 8.75388 20.974 8.75098 20.9854C8.77321 21.1146 8.86989 21.2186 8.99707 21.25C9.00865 21.2479 9.09323 21.2401 9.30859 21.168C9.58181 21.0765 9.94916 20.9245 10.4883 20.7012C10.507 20.6934 10.5258 20.6863 10.5439 20.6787C10.8812 20.5388 11.1396 20.4311 11.4111 20.375C11.7996 20.2947 12.2004 20.2947 12.5889 20.375C12.8604 20.4311 13.1188 20.5388 13.4561 20.6787C13.4742 20.6863 13.493 20.6934 13.5117 20.7012C14.0508 20.9245 14.4182 21.0765 14.6914 21.168C14.9068 21.2401 14.9913 21.2479 15.0029 21.25C15.1301 21.2186 15.2268 21.1146 15.249 20.9854C15.2461 20.974 15.2327 20.8907 15.1455 20.6807C15.0349 20.4145 14.8578 20.0584 14.5967 19.5361L13.2607 16.8652C12.8278 15.9992 12.5403 15.427 12.2852 15.0615C12.1615 14.8843 12.0768 14.8022 12.0273 14.7666C12.0133 14.7565 12.0041 14.7519 12 14.75C11.9959 14.7519 11.9867 14.7565 11.9727 14.7666ZM14.5488 1.25C16.1511 1.24999 17.4205 1.25044 18.4248 1.36914C19.4557 1.491 20.3047 1.74632 21.0137 2.32812C21.2541 2.52544 21.4745 2.74592 21.6719 2.98633C22.2537 3.69525 22.5091 4.54427 22.6309 5.5752C22.7496 6.57941 22.75 7.84893 22.75 9.45117V9.54883C22.75 11.1511 22.7496 12.4205 22.6309 13.4248C22.5091 14.4557 22.2537 15.3047 21.6719 16.0137C21.4745 16.2541 21.2541 16.4745 21.0137 16.6719C20.2247 17.3193 19.2614 17.5637 18.0654 17.668C17.6529 17.704 17.2891 17.3988 17.2529 16.9863C17.217 16.5737 17.522 16.21 17.9346 16.1738C18.7102 16.1061 19.2394 15.9824 19.6396 15.7842L13.5527 11.1025L3.50098 3.92188C3.49658 3.92717 3.49166 3.93316 3.4873 3.93848C3.16138 4.33579 2.96351 4.8621 2.8584 5.75098C2.75132 6.65689 2.75 7.83789 2.75 9.5C2.75 11.1621 2.75132 12.3431 2.8584 13.249C2.96351 14.1378 3.16139 14.6642 3.4873 15.0615C3.62235 15.226 3.77392 15.3776 3.93848 15.5127C4.38106 15.8757 4.98272 16.0795 6.06543 16.1738C6.47793 16.21 6.78304 16.5737 6.74707 16.9863C6.71091 17.3988 6.34711 17.704 5.93457 17.668C4.73865 17.5637 3.77523 17.3193 2.98633 16.6719C2.74592 16.4745 2.52544 16.2541 2.32812 16.0137C1.74632 15.3047 1.491 14.4557 1.36914 13.4248C1.25044 12.4205 1.24999 11.1511 1.25 9.54883V9.45117C1.24999 7.8489 1.25044 6.57942 1.36914 5.5752C1.49101 4.54427 1.74633 3.69525 2.32812 2.98633C2.52544 2.74592 2.74592 2.52544 2.98633 2.32812C3.69525 1.74633 4.54427 1.49101 5.5752 1.36914C6.57942 1.25044 7.84891 1.24999 9.45117 1.25H14.5488ZM15.1094 10.4072L20.7344 14.7344C20.932 14.3773 21.0629 13.9147 21.1416 13.249C21.2487 12.3431 21.25 11.1621 21.25 9.5C21.25 7.83789 21.2487 6.65689 21.1416 5.75098C21.0667 5.11791 20.9445 4.66894 20.7627 4.31934L15.1094 10.4072ZM9.5 2.75C7.83789 2.75 6.65689 2.75132 5.75098 2.8584C5.39239 2.9008 5.09281 2.95825 4.83691 3.0332L13.8994 9.50586L19.708 3.25098C19.3546 3.06137 18.8983 2.93518 18.249 2.8584C17.3431 2.75132 16.1621 2.75 14.5 2.75H9.5Z" fill="#48465C"/>
</svg>
