<svg width="24" height="24" viewBox="0 0 24 24" fill="none" xmlns="http://www.w3.org/2000/svg">
<path d="M15.3262 3C16.7407 3 17.7273 3.00178 18.4717 3.10059C19.1948 3.19658 19.5779 3.37232 19.8506 3.6416C20.1232 3.91087 20.3013 4.28919 20.3984 5.00293C20.4985 5.73781 20.5 6.71206 20.5 8.1084V15.8916C20.5 17.2879 20.4985 18.2622 20.3984 18.9971C20.3013 19.7108 20.1232 20.0891 19.8506 20.3584C19.5779 20.6277 19.1948 20.8035 18.4717 20.8994C17.7273 20.9983 16.7407 21 15.3262 21H14.3408C12.9264 21 11.9397 20.9983 11.1953 20.8994C10.4721 20.8035 10.0892 20.6277 9.81641 20.3584C9.54368 20.0891 9.36577 19.7109 9.26855 18.9971C9.16853 18.2622 9.16699 17.288 9.16699 15.8916C9.16683 15.4888 8.83575 15.1622 8.42773 15.1621C8.01963 15.1621 7.68864 15.4887 7.68848 15.8916V15.9453C7.68846 17.2759 7.68884 18.3488 7.80371 19.1924C7.80848 19.2273 7.81314 19.2622 7.81836 19.2969C5.89587 19.2914 4.87724 19.2321 4.22168 18.585C3.50008 17.8725 3.5 16.7259 3.5 14.4326V9.56738C3.5 7.27419 3.50008 6.12746 4.22168 5.41504C4.87724 4.76789 5.89589 4.70854 7.81836 4.70312C7.81314 4.73767 7.80848 4.77263 7.80371 4.80762C7.68884 5.65114 7.68846 6.72407 7.68848 8.05469V8.1084C7.68863 8.51129 8.01962 8.83789 8.42773 8.83789C8.83576 8.83779 9.16683 8.51122 9.16699 8.1084C9.16699 6.71203 9.16853 5.73781 9.26855 5.00293C9.36577 4.28903 9.54368 3.91088 9.81641 3.6416C10.0892 3.37232 10.4721 3.19658 11.1953 3.10059C11.9397 3.00181 12.9264 3 14.3408 3H15.3262ZM13.3848 9.05176C13.0961 8.7668 12.6284 8.76679 12.3398 9.05176C12.0512 9.33674 12.0512 9.79898 12.3398 10.084L13.542 11.2705H6.45605C6.04806 11.2708 5.71777 11.5972 5.71777 12C5.71777 12.4028 6.04806 12.7292 6.45605 12.7295H13.542L12.3398 13.916C12.0511 14.201 12.0511 14.6633 12.3398 14.9482C12.6284 15.2332 13.0961 15.2332 13.3848 14.9482L15.8486 12.5156C16.1371 12.2307 16.1371 11.7693 15.8486 11.4844L13.3848 9.05176Z" fill="#1C274C"/>
</svg>
