<svg width="24" height="24" viewBox="0 0 24 24" fill="none" xmlns="http://www.w3.org/2000/svg">
<path d="M5.38477 1.25C6.6667 1.25 7.81975 2.03049 8.2959 3.2207L8.40625 3.49609C9.19953 3.29486 10.0607 3.34187 10.8721 3.68848C11.8871 4.12226 12.6256 4.94037 13.0039 5.90039C13.1524 6.2773 12.9746 6.70407 12.6025 6.86426L6.64258 9.43066C6.45618 9.5109 6.24497 9.51156 6.05762 9.43359C5.87024 9.35559 5.72187 9.20544 5.64746 9.0166C5.26928 8.05678 5.24673 6.94513 5.66699 5.91016C5.96619 5.17337 6.45236 4.56896 7.04688 4.13574L6.90332 3.77832C6.655 3.15752 6.05339 2.75 5.38477 2.75C4.482 2.75022 3.75021 3.48201 3.75 4.38477V11.25H22C22.4142 11.25 22.75 11.5858 22.75 12C22.75 12.4142 22.4142 12.75 22 12.75H21.7324C21.7389 12.7949 21.7431 12.8408 21.7461 12.8867C21.7499 12.9443 21.75 13.0064 21.75 13.0664V13.1045C21.75 13.4797 21.75 13.6999 21.7344 13.9453C21.5924 16.1814 20.384 18.2464 18.6328 19.5967C18.6465 19.6183 18.6592 19.6416 18.6709 19.665L19.6709 21.665C19.8559 22.0355 19.7053 22.4858 19.335 22.6709C18.9645 22.8559 18.5142 22.7053 18.3291 22.335L17.3613 20.4004C16.5597 20.8062 15.6879 21.0732 14.7812 21.165C14.5367 21.1898 14.387 21.1956 14.1328 21.2051H14.126C13.3859 21.2329 12.6614 21.25 12 21.25C11.3386 21.25 10.6141 21.2329 9.87402 21.2051H9.86719C9.61298 21.1956 9.46323 21.1898 9.21875 21.165C8.31209 21.0732 7.44027 20.8062 6.63867 20.4004L5.6709 22.335C5.48572 22.7053 5.03544 22.8559 4.66504 22.6709C4.29469 22.4858 4.14416 22.0355 4.3291 21.665L5.3291 19.665C5.34081 19.6416 5.35345 19.6183 5.36719 19.5967C3.61593 18.2464 2.40759 16.1814 2.26562 13.9453C2.25006 13.6999 2.24999 13.4797 2.25 13.1045V12.75H2C1.58579 12.75 1.25 12.4142 1.25 12C1.25 11.5858 1.58579 11.25 2 11.25H2.25V4.38477C2.25021 2.65358 3.65357 1.25022 5.38477 1.25ZM3.98242 12.751C3.85756 12.7593 3.75944 12.8585 3.75098 12.9834C3.75092 12.985 3.75012 12.9902 3.75 13.001C3.74979 13.019 3.75 13.043 3.75 13.083C3.75 13.4854 3.75046 13.6578 3.7627 13.8506C3.94837 16.7721 6.4577 19.3778 9.37012 19.6729C9.565 19.6925 9.67303 19.6964 9.92969 19.7061C10.6577 19.7334 11.3629 19.75 12 19.75C12.6371 19.75 13.3423 19.7334 14.0703 19.7061C14.327 19.6964 14.435 19.6925 14.6299 19.6729C17.5423 19.3778 20.0516 16.7721 20.2373 13.8506C20.2495 13.6578 20.25 13.4854 20.25 13.083C20.25 13.043 20.2502 13.019 20.25 13.001C20.2499 12.9908 20.249 12.9852 20.249 12.9834C20.2407 12.8584 20.1416 12.7594 20.0166 12.751C20.0146 12.751 20.0088 12.7501 19.999 12.75H4.00098C3.98787 12.7502 3.98259 12.751 3.98242 12.751ZM10.2822 5.06738C9.62514 4.78675 8.91483 4.82568 8.30762 5.12109C7.76876 5.38342 7.31081 5.8487 7.05664 6.47461C6.89319 6.87719 6.8341 7.29702 6.86621 7.70117L11.248 5.81445C10.9986 5.49313 10.6711 5.23355 10.2822 5.06738Z" fill="#48465C"/>
</svg>
