<svg width="24" height="24" viewBox="0 0 24 24" fill="none" xmlns="http://www.w3.org/2000/svg">
<path d="M12 1.25C17.9371 1.25 22.75 6.06294 22.75 12C22.75 17.9371 17.9371 22.75 12 22.75C6.06294 22.75 1.25 17.9371 1.25 12C1.25 6.06294 6.06294 1.25 12 1.25ZM12.75 4C12.75 4.41422 12.4142 4.75 12 4.75C11.5858 4.75 11.25 4.41422 11.25 4V2.78027C9.25929 2.94001 7.44612 3.72958 6.01074 4.9502L7.03027 5.96973C7.32316 6.26262 7.32316 6.73738 7.03027 7.03027C6.73738 7.32316 6.26262 7.32316 5.96973 7.03027L4.9502 6.01074C3.72958 7.44612 2.94001 9.25929 2.78027 11.25H4C4.41421 11.25 4.75 11.5858 4.75 12C4.75 12.4142 4.41421 12.75 4 12.75H2.78027C2.94001 14.7407 3.72958 16.5539 4.9502 17.9893L5.96973 16.9697C6.26261 16.6768 6.73739 16.6768 7.03027 16.9697C7.32316 17.2626 7.32316 17.7374 7.03027 18.0303L6.01074 19.0498C7.62449 20.4221 9.71567 21.25 12 21.25C14.2843 21.25 16.3756 20.4221 17.9893 19.0498L16.9697 18.0303C16.6768 17.7374 16.6768 17.2626 16.9697 16.9697C17.2626 16.6768 17.7374 16.6768 18.0303 16.9697L19.0498 17.9893C20.2704 16.5539 21.06 14.7407 21.2197 12.75H20C19.5858 12.75 19.25 12.4142 19.25 12C19.25 11.5858 19.5858 11.25 20 11.25H21.2197C21.06 9.25929 20.2704 7.44612 19.0498 6.01074L18.0303 7.03027C17.7374 7.32316 17.2626 7.32316 16.9697 7.03027C16.6768 6.73739 16.6768 6.26261 16.9697 5.96973L17.9893 4.9502C16.5539 3.72958 14.7407 2.94001 12.75 2.78027V4ZM9.00488 9.59082C10.4694 8.12636 12.8441 8.12636 14.3086 9.59082C15.7731 11.0553 15.7731 13.43 14.3086 14.8945C13.9781 15.225 13.5226 15.4601 13.0771 15.6348C12.6188 15.8144 12.1021 15.9553 11.5928 16.0674C11.5709 16.0723 11.5491 16.0773 11.5273 16.082C10.855 16.2301 10.2446 16.365 9.73145 16.374C9.13819 16.3843 8.59731 16.2311 8.13281 15.7666C7.6683 15.3022 7.51508 14.7612 7.52539 14.168C7.53434 13.6548 7.66934 13.0444 7.81738 12.3721C7.8222 12.3502 7.82718 12.3277 7.83203 12.3057C7.94407 11.7965 8.08503 11.2805 8.26465 10.8223C8.43933 10.3768 8.67446 9.9213 9.00488 9.59082ZM13.248 10.6514C12.3694 9.77272 10.944 9.77272 10.0654 10.6514C9.95027 10.7666 9.80701 10.9972 9.66113 11.3691C9.52022 11.7285 9.39937 12.163 9.29688 12.6289C9.12974 13.3885 9.03148 13.849 9.02539 14.1934C9.02048 14.4745 9.07714 14.5899 9.19336 14.7061C9.30951 14.8222 9.42433 14.8789 9.70508 14.874C10.0496 14.868 10.5106 14.7697 11.2705 14.6025C11.7363 14.5 12.1709 14.3792 12.5303 14.2383C12.9023 14.0924 13.1329 13.9491 13.248 13.834C14.1267 12.9553 14.1267 11.5301 13.248 10.6514Z" fill="#1C274C"/>
</svg>
