<svg width="24" height="24" viewBox="0 0 24 24" fill="none" xmlns="http://www.w3.org/2000/svg">
<path d="M13.4797 3.64844C17.9779 2.14904 20.2271 1.3987 21.4142 2.58594C22.6014 3.77321 21.8512 6.02237 20.3517 10.5205L18.6359 15.6699C17.4257 19.3006 16.8202 21.116 15.9328 21.6318C15.0887 22.1226 14.0464 22.1226 13.2023 21.6318C12.3149 21.116 11.7094 19.3005 10.4992 15.6699C10.3341 15.1741 10.4522 14.611 10.8234 14.2432L16.2394 8.87695C16.5492 8.57008 16.5522 8.06951 16.2453 7.75977C15.9386 7.45022 15.4388 7.44836 15.1291 7.75488L9.62322 13.21C9.28641 13.5436 8.78008 13.6507 8.33025 13.501C4.69975 12.2908 2.88428 11.6852 2.36834 10.7979C1.87761 9.95378 1.87766 8.9115 2.36834 8.06738C2.8842 7.18004 4.69961 6.57447 8.33025 5.36426L13.4797 3.64844Z" fill="#1C274C"/>
</svg>
