<svg width="24" height="24" viewBox="0 0 24 24" fill="none" xmlns="http://www.w3.org/2000/svg">
<path d="M11.9996 1.25C12.9554 1.25 13.8555 1.50709 14.5377 1.96191C15.0095 2.27655 15.4129 2.71493 15.6139 3.25H15.9996C16.4774 3.25 16.9364 3.44696 17.2487 3.79102C17.5729 4.1484 17.7339 4.66782 17.5621 5.21094C16.9564 7.12498 15.013 8.46514 12.7496 8.70996V21.25H14.9996C15.4138 21.25 15.7496 21.5858 15.7496 22C15.7496 22.4142 15.4138 22.75 14.9996 22.75H8.99963C8.58557 22.7498 8.24963 22.4141 8.24963 22C8.24963 21.5859 8.58557 21.2502 8.99963 21.25H11.2496V17.9365C11.2495 16.8902 10.7703 15.905 9.95471 15.2666L6.63245 12.8926C5.58907 13.863 4.10244 14.1558 2.79065 13.6963C2.23709 13.5022 1.92062 13.0431 1.8385 12.5596C1.79799 12.3208 1.81308 12.0752 1.87756 11.8408C1.06785 10.8418 1.02511 9.37798 1.84827 8.32422C2.67271 7.26917 4.098 6.96676 5.25354 7.52539C5.46394 7.40907 5.69717 7.33829 5.93713 7.32227C6.43065 7.28936 6.94836 7.497 7.26233 7.99121C7.95758 9.08594 8.06172 10.4815 7.51233 11.6768L10.8512 14.0635L10.8629 14.0732C10.9982 14.1783 11.1274 14.2898 11.2496 14.4072V8.70996C8.98631 8.46505 7.04272 7.125 6.43713 5.21094C6.26529 4.66775 6.42723 4.14841 6.75159 3.79102C7.06379 3.44703 7.52191 3.25009 7.99963 3.25H8.38635C8.5873 2.71483 8.9906 2.27656 9.46252 1.96191C10.1447 1.50714 11.044 1.25006 11.9996 1.25ZM5.9801 8.83789C5.95356 8.85236 5.92558 8.8741 5.90198 8.9043L3.37073 12.1465C3.34708 12.1768 3.3311 12.2097 3.32288 12.2412C3.3176 12.2613 3.31599 12.2783 3.31604 12.291C4.21398 12.592 5.24231 12.3142 5.86389 11.5186C5.88139 11.4962 5.89814 11.4729 5.91467 11.4502C6.48726 10.6611 6.5021 9.61753 6.01331 8.82324C6.00402 8.82614 5.99275 8.83102 5.9801 8.83789ZM4.1178 8.75195C3.71214 8.72919 3.30187 8.89989 3.02991 9.24805C2.75777 9.59648 2.68862 10.0404 2.80334 10.4355L4.1178 8.75195ZM7.99963 4.75C7.9651 4.75004 7.9341 4.75763 7.90881 4.76855C7.89514 4.77448 7.8844 4.78047 7.87659 4.78613C8.31487 6.11742 9.91488 7.24988 11.9996 7.25C14.0845 7.25 15.6853 6.11749 16.1237 4.78613C16.1158 4.78051 16.105 4.77444 16.0914 4.76855C16.0661 4.75759 16.0343 4.75 15.9996 4.75H7.99963ZM11.9996 2.75C11.2988 2.75006 10.6981 2.94096 10.2946 3.20996C10.2747 3.22322 10.2555 3.23665 10.2369 3.25H13.7633C13.7447 3.23665 13.7255 3.22322 13.7057 3.20996C13.3021 2.94092 12.7006 2.75 11.9996 2.75Z" fill="#1C274C"/>
</svg>
