<svg width="24" height="24" viewBox="0 0 24 24" fill="none" xmlns="http://www.w3.org/2000/svg">
<path d="M15.681 1.25C19.5821 1.25007 22.7501 4.40035 22.7503 8.29297C22.7503 12.1858 19.5822 15.3368 15.681 15.3369C15.3173 15.3369 14.7443 15.2961 14.1585 15.1748C13.796 15.0998 13.382 14.9852 13.0003 14.8027L12.5365 15.2646L12.5267 15.2734C12.6108 15.3716 12.7114 15.5024 12.8001 15.668C12.8063 15.6776 12.8133 15.6884 12.8206 15.7002C12.8489 15.7457 12.885 15.8083 12.9242 15.8848C13.0018 16.0363 13.0955 16.253 13.1585 16.5166C13.2871 17.0544 13.2879 17.804 12.763 18.5361L12.7581 18.5439L12.7533 18.5508C12.4516 18.9512 11.8829 19.4371 11.1146 19.583C10.743 19.6535 10.3545 19.6388 9.96225 19.5234C9.97016 19.943 9.8626 20.4137 9.52963 20.8779L9.52475 20.8857L9.51986 20.8926C9.19708 21.3212 8.63484 21.7251 7.95932 21.8545C7.43848 21.9541 6.87498 21.8847 6.34213 21.5791L5.77572 22.1436C5.23536 22.6816 4.5975 22.8089 4.04623 22.7275C3.53215 22.6515 3.10366 22.4 2.84897 22.1826C2.83443 22.1703 2.82052 22.1571 2.80697 22.1436L1.92514 21.2656C1.34035 20.6831 1.17811 20.0124 1.2767 19.4092C1.36761 18.853 1.66872 18.4087 1.92514 18.1533L9.18002 10.9277C9.13052 10.8165 9.07805 10.6895 9.02572 10.5488C8.82005 9.99572 8.61166 9.20989 8.61166 8.29297C8.61192 4.40031 11.7798 1.25 15.681 1.25ZM15.681 2.75C12.6024 2.75 10.1119 5.23451 10.1117 8.29297C10.1117 8.98585 10.2703 9.59152 10.432 10.0264C10.5123 10.2424 10.5922 10.4126 10.6497 10.5254C10.6783 10.5814 10.7016 10.6229 10.7162 10.6484C10.7233 10.661 10.728 10.6702 10.7308 10.6748L10.7337 10.6787C10.9186 10.9737 10.875 11.3578 10.6283 11.6035L2.98373 19.2158C2.89724 19.302 2.78627 19.4734 2.75717 19.6514C2.73582 19.7823 2.74592 19.9652 2.98373 20.2021L3.84115 21.0566C3.93374 21.1297 4.09753 21.2183 4.26498 21.2432C4.40664 21.2641 4.55238 21.245 4.71713 21.0811L5.74643 20.0566C6.03907 19.7651 6.51237 19.7651 6.80502 20.0566C7.14301 20.393 7.44289 20.4266 7.67709 20.3818C7.95275 20.3291 8.19673 20.1523 8.31674 19.9971C8.49917 19.7379 8.48703 19.4962 8.41147 19.2705C8.37141 19.1509 8.31493 19.0464 8.26694 18.9707C8.24353 18.9339 8.22331 18.9065 8.21127 18.8906L8.20444 18.8809L8.20346 18.8799L8.20053 18.876C7.94903 18.5781 7.96767 18.136 8.24447 17.8604L8.53842 17.5684C8.83106 17.2769 9.30437 17.2769 9.59701 17.5684C10.1569 18.1259 10.5767 18.1581 10.8343 18.1094C11.1421 18.0509 11.4085 17.8385 11.5492 17.6553C11.7537 17.3658 11.7542 17.0937 11.6996 16.8652C11.6708 16.7446 11.6264 16.6411 11.5892 16.5684C11.5711 16.533 11.5562 16.5068 11.5472 16.4922L11.5404 16.4814L11.5101 16.4395L11.4837 16.3867C11.4558 16.3312 11.4177 16.2809 11.348 16.2041L11.3285 16.1826C11.2695 16.1198 11.1273 15.97 11.0394 15.8125C10.8911 15.5467 10.8503 15.2263 10.9798 14.8936C11.0821 14.6308 11.2762 14.403 11.4779 14.2021L12.3597 13.3232C12.6337 13.0507 13.0701 13.0315 13.3675 13.2783C13.5753 13.4507 13.9655 13.6032 14.4622 13.7061C14.937 13.8044 15.4078 13.8369 15.681 13.8369C18.7596 13.8368 21.2503 11.3516 21.2503 8.29297C21.2501 5.23455 18.7595 2.75007 15.681 2.75ZM15.681 5.34766C17.3097 5.34767 18.6351 6.66343 18.6351 8.29297C18.6351 9.92254 17.3097 11.2383 15.681 11.2383C14.0522 11.2383 12.7269 9.92255 12.7269 8.29297C12.7269 6.66342 14.0522 5.34766 15.681 5.34766ZM15.681 6.84766C14.8748 6.84766 14.2269 7.49763 14.2269 8.29297C14.2269 9.08834 14.8748 9.73828 15.681 9.73828C16.4871 9.73827 17.1351 9.08833 17.1351 8.29297C17.1351 7.49764 16.4871 6.84767 15.681 6.84766Z" fill="#1C274C"/>
</svg>
