<svg width="24" height="24" viewBox="0 0 24 24" fill="none" xmlns="http://www.w3.org/2000/svg">
<path d="M8.67969 4.49316C11.6698 1.5031 16.5177 1.50307 19.5078 4.49316C22.4975 7.48329 22.4977 12.3313 19.5078 15.3213C17.5219 17.3073 14.7162 17.9728 12.1826 17.3223C12.0327 17.2838 11.9181 17.329 11.8623 17.3848L8.14941 21.0967C7.67049 21.5757 7.00028 21.811 6.32715 21.7363L4.23828 21.5049C3.84649 21.4613 3.48096 21.2855 3.20215 21.0068L2.99414 20.7979C2.71529 20.5191 2.53964 20.1536 2.49609 19.7617L2.26367 17.6738C2.18886 17.0005 2.42433 16.3296 2.90332 15.8506L6.61523 12.1387C6.67119 12.0827 6.71596 11.9677 6.67773 11.8184C6.02709 9.28467 6.69362 6.47923 8.67969 4.49316ZM18.4463 5.55371C16.0419 3.14949 12.1446 3.14946 9.74023 5.55371C8.14453 7.14943 7.60684 9.40314 8.13086 11.4443C8.28193 12.0326 8.15843 12.7165 7.67578 13.1992L3.96387 16.9111C3.80707 17.0679 3.73039 17.2874 3.75488 17.5078L3.98633 19.5967C3.99231 19.65 4.01675 19.6994 4.05469 19.7373L4.2627 19.9453C4.30059 19.9832 4.35008 20.0076 4.40332 20.0137L6.49219 20.2461C6.71259 20.2706 6.93206 20.1929 7.08887 20.0361L7.7959 19.3291L6.58301 18.1299C6.28872 17.8388 6.2863 17.3638 6.57715 17.0693C6.86843 16.7748 7.34417 16.7722 7.63867 17.0635L8.85742 18.2686L10.8018 16.3242C11.2847 15.8413 11.9678 15.7181 12.5557 15.8691C14.5967 16.3931 16.8506 15.8561 18.4463 14.2607C20.8506 11.8563 20.8506 7.95803 18.4463 5.55371ZM12.0557 8.05566C13.1296 6.98184 14.8705 6.9818 15.9443 8.05566C17.0183 9.12956 17.0182 10.8704 15.9443 11.9443C14.8704 13.0183 13.1296 13.0183 12.0557 11.9443C10.9817 10.8704 10.9817 9.12958 12.0557 8.05566ZM14.8838 9.11621C14.3956 8.62817 13.6044 8.62822 13.1162 9.11621C12.6281 9.60434 12.6282 10.3956 13.1162 10.8838C13.6044 11.3719 14.3956 11.3719 14.8838 10.8838C15.3718 10.3956 15.3718 9.60432 14.8838 9.11621Z" fill="#48465C"/>
</svg>
