<svg width="24" height="24" viewBox="0 0 24 24" fill="none" xmlns="http://www.w3.org/2000/svg">
<path d="M17.75 2.22168C18.9727 2.41594 19.8512 2.78081 20.5352 3.46484C21.9997 4.9293 22 7.28598 22 12C22 16.714 21.9996 19.0708 20.5352 20.5352C19.0708 21.9997 16.714 22 12 22C7.28595 22 4.9293 21.9997 3.46484 20.5352C2.00038 19.0708 2 16.714 2 12C2 7.28598 2.00038 4.9293 3.46484 3.46484C4.14887 2.78082 5.02728 2.41594 6.25 2.22168V8.83105C6.25 9.29863 6.25018 9.68259 6.26758 9.98438C6.28474 10.2819 6.32121 10.5901 6.44336 10.8652C6.88478 11.859 7.97451 12.3953 9.03125 12.1387C9.32383 12.0676 9.59066 11.9082 9.83691 11.7402C10.0865 11.5698 10.3904 11.3359 10.7607 11.0508L10.7793 11.0361C11.2485 10.6749 11.3809 10.58 11.502 10.5273C11.8195 10.3895 12.1805 10.3895 12.498 10.5273C12.6191 10.58 12.7515 10.6749 13.2207 11.0361L13.2393 11.0508C13.6096 11.3359 13.9134 11.5698 14.1631 11.7402C14.4093 11.9082 14.6761 12.0676 14.9688 12.1387C16.0256 12.3953 17.1152 11.859 17.5566 10.8652C17.6788 10.5901 17.7153 10.2819 17.7324 9.98438C17.7498 9.6826 17.75 9.29862 17.75 8.83105V2.22168ZM12 2C13.7004 2 15.0942 1.99962 16.25 2.06836V8.80762C16.25 9.30425 16.2499 9.64414 16.2354 9.89746C16.2204 10.1577 16.1927 10.2394 16.1855 10.2559C16.0385 10.5871 15.6755 10.766 15.3232 10.6807C15.3068 10.6767 15.2259 10.649 15.0088 10.501C14.7992 10.358 14.5293 10.1507 14.1357 9.84766L14.0684 9.7959C13.6984 9.51068 13.4098 9.28883 13.0957 9.15234C12.3967 8.84866 11.6033 8.84866 10.9043 9.15234C10.5902 9.28883 10.3016 9.51068 9.93164 9.7959L9.86426 9.84766C9.47069 10.1507 9.20085 10.358 8.99121 10.501C8.77407 10.649 8.69323 10.6767 8.67676 10.6807C8.32457 10.7661 7.96157 10.5871 7.81445 10.2559C7.80728 10.2394 7.77965 10.1577 7.76465 9.89746C7.75006 9.64414 7.75 9.30425 7.75 8.80762V2.06836C8.9058 1.99962 10.2996 2 12 2Z" fill="#1C274C"/>
</svg>
