<svg width="24" height="24" viewBox="0 0 24 24" fill="none" xmlns="http://www.w3.org/2000/svg">
<path d="M16.0547 2.25C17.4222 2.24998 18.5246 2.24968 19.3916 2.36621C20.2917 2.48723 21.0494 2.74673 21.6514 3.34863C22.2533 3.95055 22.5128 4.70829 22.6338 5.6084C22.7503 6.47534 22.75 7.57782 22.75 8.94531V10.0547C22.75 11.4222 22.7503 12.5246 22.6338 13.3916C22.5128 14.2917 22.2533 15.0494 21.6514 15.6514C21.0494 16.2533 20.2917 16.5128 19.3916 16.6338C18.5246 16.7503 17.4222 16.75 16.0547 16.75H12.75V18.459L18.2373 20.2881C18.6302 20.4191 18.8429 20.8443 18.7119 21.2373C18.5809 21.6302 18.1557 21.8429 17.7627 21.7119L12 19.791L6.2373 21.7119C5.84435 21.8429 5.41907 21.6302 5.28809 21.2373C5.15712 20.8443 5.36974 20.4191 5.7627 20.2881L11.25 18.459V16.75H7.94531C6.57782 16.75 5.47534 16.7503 4.6084 16.6338C3.70829 16.5128 2.95055 16.2533 2.34863 15.6514C1.74673 15.0494 1.48723 14.2917 1.36621 13.3916C1.24968 12.5246 1.24998 11.4222 1.25 10.0547V8.94531C1.24998 7.57782 1.24968 6.47534 1.36621 5.6084C1.48723 4.70829 1.74671 3.95055 2.34863 3.34863C2.95055 2.74671 3.70829 2.48723 4.6084 2.36621C5.47534 2.24968 6.57782 2.24998 7.94531 2.25H16.0547ZM8 3.75C6.56484 3.75 5.5639 3.75201 4.80859 3.85352C4.07482 3.95217 3.68594 4.13242 3.40918 4.40918C3.13242 4.68594 2.95217 5.07482 2.85352 5.80859C2.75201 6.5639 2.75 7.56484 2.75 9V10C2.75 11.4354 2.75196 12.437 2.85352 13.1924C2.95218 13.9258 3.13249 14.3141 3.40918 14.5908C3.68594 14.8676 4.07482 15.0478 4.80859 15.1465C5.5639 15.2479 6.56485 15.25 8 15.25H16C17.4354 15.25 18.437 15.248 19.1924 15.1465C19.9258 15.0478 20.3141 14.8676 20.5908 14.5908C20.8676 14.3141 21.0478 13.9258 21.1465 13.1924C21.248 12.437 21.25 11.4354 21.25 10V9C21.25 7.56485 21.2479 6.5639 21.1465 5.80859C21.0478 5.07482 20.8676 4.68594 20.5908 4.40918C20.3141 4.13249 19.9258 3.95218 19.1924 3.85352C18.437 3.75196 17.4354 3.75 16 3.75H8Z" fill="#48465C"/>
</svg>
