<svg width="24" height="24" viewBox="0 0 24 24" fill="none" xmlns="http://www.w3.org/2000/svg">
<path d="M17 21.25C17.4142 21.25 17.75 21.5858 17.75 22C17.75 22.4142 17.4142 22.75 17 22.75H7C6.58579 22.75 6.25 22.4142 6.25 22C6.25 21.5858 6.58579 21.25 7 21.25H17ZM12 5C14.8089 5 16.2138 4.99971 17.2227 5.67383C17.6593 5.96563 18.0343 6.34068 18.3262 6.77734C19.0003 7.78623 19 9.19108 19 12C19 14.8089 19.0003 16.2138 18.3262 17.2227C18.0343 17.6593 17.6593 18.0343 17.2227 18.3262C16.2138 19.0003 14.8089 19 12 19C9.19108 19 7.78623 19.0003 6.77734 18.3262C6.34068 18.0343 5.96563 17.6593 5.67383 17.2227C4.99971 16.2138 5 14.8089 5 12C5 9.19108 4.99971 7.78623 5.67383 6.77734C5.96563 6.34068 6.34068 5.96563 6.77734 5.67383C7.78623 4.99971 9.19108 5 12 5ZM12 8.25C11.5858 8.25 11.25 8.58579 11.25 9V12.0771C11.2501 12.2811 11.3334 12.4758 11.4805 12.6172L13.4805 14.541C13.779 14.8278 14.254 14.818 14.541 14.5195C14.8278 14.2209 14.818 13.746 14.5195 13.459L12.75 11.7578V9C12.75 8.58579 12.4142 8.25 12 8.25ZM17 1.25C17.4142 1.25 17.75 1.58579 17.75 2C17.75 2.41421 17.4142 2.75 17 2.75H7C6.58579 2.75 6.25 2.41421 6.25 2C6.25 1.58579 6.58579 1.25 7 1.25H17Z" fill="#1C274C"/>
</svg>
