<svg width="24" height="24" viewBox="0 0 24 24" fill="none" xmlns="http://www.w3.org/2000/svg">
<path d="M12.0176 12.9932C15.3653 13.0727 18.479 14.6941 20.4404 17.3652C18.6655 20.1516 15.5485 22 12 22C10.7177 22 9.49182 21.7581 8.36523 21.3184C10.9131 20.7497 13.3608 19.6437 15.4932 18.1494C15.8325 17.9117 15.9145 17.4437 15.6768 17.1045C15.439 16.7653 14.971 16.6832 14.6318 16.9209C12.1354 18.6702 9.19234 19.8331 6.21484 20.1572C5.33559 19.5326 4.56151 18.7695 3.9248 17.8994C7.00232 17.4192 9.81174 15.7987 11.7559 13.3252L12.0176 12.9932ZM10.1846 2.55859C8.86577 5.6907 9.08231 9.23978 10.7471 12.1826L10.5762 12.3984C8.73876 14.7362 6.01712 16.2095 3.06543 16.4971C2.38369 15.1453 2.00005 13.6173 2 12C2 9.27168 3.09273 6.79838 4.86426 4.99414L4.86328 4.99902C4.31846 7.43338 4.2883 9.94186 4.77344 12.3857C4.85409 12.792 5.24899 13.0563 5.65527 12.9756C6.06128 12.8948 6.32477 12.4999 6.24414 12.0938C5.67139 9.20845 5.88213 6.22406 6.87891 3.4082C7.93086 2.77984 9.10836 2.33946 10.3643 2.13281L10.1846 2.55859ZM12.0479 2C16.6318 2.02148 20.4867 5.12723 21.6445 9.34863C19.4611 7.51586 16.8588 6.25879 14.0811 5.67676C13.6758 5.59184 13.2774 5.85162 13.1924 6.25684C13.1074 6.66225 13.368 7.06058 13.7734 7.14551C16.7257 7.76411 19.4587 9.21656 21.624 11.3584L21.626 11.3604L21.9961 11.7324C21.9984 11.8212 22 11.9107 22 12C22 13.3876 21.7168 14.709 21.2061 15.9102C18.9638 13.2083 15.6372 11.5866 12.0811 11.4941C10.618 8.94408 10.4222 5.86036 11.5674 3.14062L12.0479 2Z" fill="#1C274C"/>
</svg>
