<svg width="24" height="24" viewBox="0 0 24 24" fill="none" xmlns="http://www.w3.org/2000/svg">
<path d="M14.8096 3.41406C14.9708 3.03265 15.4105 2.85444 15.792 3.01562C19.2916 4.49434 21.75 7.95905 21.75 12C21.75 17.3848 17.3848 21.75 12 21.75C6.61522 21.75 2.25 17.3848 2.25 12C2.25004 7.95905 4.70839 4.49434 8.20801 3.01562C8.5895 2.85444 9.02915 3.03264 9.19043 3.41406C9.35161 3.79554 9.17339 4.2352 8.79199 4.39648C5.82791 5.64882 3.75004 8.58283 3.75 12C3.75 16.5564 7.44365 20.25 12 20.25C16.5563 20.25 20.25 16.5564 20.25 12C20.25 8.58283 18.1721 5.64882 15.208 4.39648C14.8266 4.2352 14.6484 3.79554 14.8096 3.41406ZM12 1.25C12.4142 1.25 12.75 1.58579 12.75 2V6C12.75 6.41421 12.4142 6.75 12 6.75C11.5858 6.75 11.25 6.41421 11.25 6V2C11.25 1.58579 11.5858 1.25 12 1.25Z" fill="#1C274C"/>
</svg>
