<svg width="24" height="24" viewBox="0 0 24 24" fill="none" xmlns="http://www.w3.org/2000/svg">
<path d="M13.8604 3.24219C14.7211 2.64567 15.9492 3.10571 18.4043 4.02637C19.6598 4.49717 20.2874 4.73315 20.6436 5.24707C20.9996 5.76092 21 6.43101 21 7.77148V21.25H22C22.4142 21.25 22.75 21.5858 22.75 22C22.75 22.4142 22.4142 22.75 22 22.75H2C1.58579 22.75 1.25 22.4142 1.25 22C1.25 21.5858 1.58579 21.25 2 21.25H3V12C3 10.1144 3.00015 9.17172 3.58594 8.58594C4.17172 8.00015 5.11438 8 7 8C8.88562 8 9.82828 8.00015 10.4141 8.58594C10.8181 8.99002 10.9435 9.56385 10.9824 10.5H10.9102C10.0447 10.4999 9.25101 10.5001 8.60547 10.5869C7.89455 10.6825 7.14339 10.9074 6.52539 11.5254C5.90739 12.1434 5.68251 12.8946 5.58691 13.6055C5.50012 14.251 5.4999 15.0447 5.5 15.9102V21.25H7V16C7 14.1144 7.00015 13.1717 7.58594 12.5859C8.17172 12.0002 9.11438 12 11 12H13C14.8856 12 15.8283 12.0002 16.4141 12.5859C16.9998 13.1717 17 14.1144 17 16V21.25H18.5V15.9102C18.5001 15.0447 18.4999 14.251 18.4131 13.6055C18.3175 12.8946 18.0926 12.1434 17.4746 11.5254C16.8566 10.9074 16.1054 10.6825 15.3945 10.5869C14.749 10.5001 13.9553 10.4999 13.0898 10.5H13V7.77148C13 5.14994 12.9999 3.83881 13.8604 3.24219ZM10 17.25C9.58579 17.25 9.25 17.5858 9.25 18C9.25 18.4142 9.58579 18.75 10 18.75H14C14.4142 18.75 14.75 18.4142 14.75 18C14.75 17.5858 14.4142 17.25 14 17.25H10ZM10 14.25C9.58579 14.25 9.25 14.5858 9.25 15C9.25 15.4142 9.58579 15.75 10 15.75H14C14.4142 15.75 14.75 15.4142 14.75 15C14.75 14.5858 14.4142 14.25 14 14.25H10ZM7 2.25C7.41421 2.25 7.75 2.58579 7.75 3V4.5H8C8.94281 4.5 9.41414 4.50008 9.70703 4.79297C9.99992 5.08586 10 5.55719 10 6.5V6.7041C9.79757 6.65091 9.59442 6.61379 9.39453 6.58691C8.74899 6.50012 7.95534 6.4999 7.08984 6.5H6.91016C6.04466 6.4999 5.25101 6.50012 4.60547 6.58691C4.40557 6.61379 4.20243 6.65091 4 6.7041V6.5C4 5.55719 4.00008 5.08586 4.29297 4.79297C4.58586 4.50008 5.05719 4.5 6 4.5H6.25V3C6.25 2.58579 6.58579 2.25 7 2.25Z" fill="#48465C"/>
</svg>
