<svg width="24" height="24" viewBox="0 0 24 24" fill="none" xmlns="http://www.w3.org/2000/svg">
<path d="M12.416 5C14.1873 4.99998 15.5905 5.00063 16.6885 5.14941C17.8184 5.30254 18.7329 5.62473 19.4541 6.35156C19.9468 6.84813 20.2538 7.43801 20.4473 8.12988C20.4862 8.26926 20.3779 8.40397 20.2344 8.40039H17.8018C15.0676 8.40039 12.6573 10.577 12.6572 13.5C12.6572 16.4231 15.0676 18.6006 17.8018 18.6006H20.2344C20.3779 18.5971 20.4862 18.7307 20.4473 18.8701C20.2538 19.5621 19.9468 20.1518 19.4541 20.6484C18.7329 21.3754 17.8185 21.6985 16.6885 21.8516C15.5905 22.0004 14.1873 22 12.416 22H10.3799C8.60876 22 7.20539 22.0003 6.10742 21.8516C4.97737 21.6985 4.06213 21.3754 3.34082 20.6484C2.6197 19.9215 2.29939 19 2.14746 17.8613C1.99983 16.7546 1.99999 15.34 2 13.5547V13.4453C1.99998 11.6602 1.99986 10.2463 2.14746 9.13965C2.29939 8.00073 2.61951 7.07855 3.34082 6.35156C4.06213 5.62458 4.97737 5.30253 6.10742 5.14941C7.2054 5.00068 8.60871 4.99999 10.3799 5H12.416ZM20.4102 9.86035C21.2197 9.91186 21.9359 10.5507 21.9961 11.4424C22.0001 11.5008 22 11.5637 22 11.6221V15.3779C22 15.4363 22.0001 15.4992 21.9961 15.5576C21.9359 16.4494 21.2197 17.0881 20.4102 17.1396C20.3556 17.1431 20.2959 17.1426 20.2344 17.1426H17.8018C15.8089 17.1426 14.1035 15.5618 14.1035 13.5C14.1035 11.4382 15.8089 9.85742 17.8018 9.85742H20.2344C20.2959 9.85739 20.3556 9.85689 20.4102 9.86035ZM17.5869 12.5283C17.0739 12.5285 16.6582 12.9636 16.6582 13.5C16.6582 14.0364 17.0739 14.4715 17.5869 14.4717C18.0999 14.4717 18.5166 14.0365 18.5166 13.5C18.5166 12.9635 18.0999 12.5283 17.5869 12.5283ZM5.61426 8.88574C5.21518 8.88585 4.89172 9.21205 4.8916 9.61426C4.8916 10.0166 5.21511 10.3427 5.61426 10.3428H9.46973C9.86897 10.3428 10.1924 10.0167 10.1924 9.61426C10.1923 9.21198 9.8689 8.88574 9.46973 8.88574H5.61426ZM9.73535 2.58105C10.7872 1.80616 12.2128 1.80611 13.2646 2.58105L15.2334 4.03223C14.4101 4.00021 13.4904 3.99998 12.4824 4H10.3125C9.39143 3.99998 8.54379 3.99998 7.77637 4.02441L9.73535 2.58105Z" fill="#48465C"/>
</svg>
