<svg width="24" height="24" viewBox="0 0 24 24" fill="none" xmlns="http://www.w3.org/2000/svg">
<path d="M12 2C17.5228 2 22 6.47715 22 12C22 17.5228 17.5228 22 12 22C6.47715 22 2 17.5228 2 12C2 6.47715 6.47715 2 12 2ZM12 7C10.1145 7 9.17173 7.00001 8.58594 7.66602C8.00015 8.33217 8 9.40448 8 11.5488V14.0459C8 15.5936 8.00005 16.3677 8.32617 16.7061C8.48177 16.8674 8.67847 16.9691 8.8877 16.9961C9.32636 17.0523 9.83879 16.5419 10.8633 15.5225C11.316 15.0719 11.5427 14.8465 11.8047 14.7871C11.9336 14.758 12.0664 14.758 12.1953 14.7871C12.4573 14.8465 12.684 15.0719 13.1367 15.5225C14.1612 16.5419 14.6737 17.0523 15.1123 16.9961C15.3215 16.9691 15.5182 16.8674 15.6738 16.7061C16 16.3677 16 15.5936 16 14.0459V11.5488C16 9.40448 15.9999 8.33217 15.4141 7.66602C14.8283 7.00001 13.8855 7 12 7Z" fill="#1C274C"/>
</svg>
