<svg width="24" height="24" viewBox="0 0 24 24" fill="none" xmlns="http://www.w3.org/2000/svg">
<path d="M15 1C15.4142 1 15.75 1.33579 15.75 1.75V2.75C15.75 3.7165 14.9665 4.5 14 4.5H13C12.8619 4.5 12.75 4.61193 12.75 4.75V5H14.0332C15.4047 5 16.4804 4.99972 17.3447 5.07031C18.2249 5.14222 18.9522 5.29162 19.6104 5.62695C20.6923 6.17822 21.5718 7.05773 22.123 8.13965C22.4584 8.79778 22.6078 9.52513 22.6797 10.4053C22.7503 11.2696 22.75 12.3453 22.75 13.7168V13.7832C22.75 15.1547 22.7503 16.2304 22.6797 17.0947C22.6078 17.9749 22.4584 18.7022 22.123 19.3604C21.5718 20.4423 20.6923 21.3218 19.6104 21.873C18.9522 22.2084 18.2249 22.3578 17.3447 22.4297C16.4804 22.5003 15.4047 22.5 14.0332 22.5H9.9668C8.59528 22.5 7.51956 22.5003 6.65527 22.4297C5.77513 22.3578 5.04778 22.2084 4.38965 21.873C3.30773 21.3218 2.42822 20.4423 1.87695 19.3604C1.54162 18.7022 1.39222 17.9749 1.32031 17.0947C1.24972 16.2304 1.25 15.1547 1.25 13.7832V13.7168C1.25 12.3453 1.24972 11.2696 1.32031 10.4053C1.39222 9.52513 1.54162 8.79778 1.87695 8.13965C2.42822 7.05773 3.30773 6.17822 4.38965 5.62695C5.04778 5.29162 5.77513 5.14222 6.65527 5.07031C7.51956 4.99972 8.59526 5 9.9668 5H11.25V4.75C11.25 3.7835 12.0335 3 13 3H14C14.1381 3 14.25 2.88807 14.25 2.75V1.75C14.25 1.33579 14.5858 1 15 1ZM10 6.5C8.58766 6.5 7.57344 6.5004 6.77734 6.56543C5.98996 6.62976 5.48174 6.75326 5.07031 6.96289C4.27066 7.37035 3.62035 8.02066 3.21289 8.82031C3.00326 9.23174 2.87976 9.73996 2.81543 10.5273C2.75041 11.3234 2.75 12.3377 2.75 13.75C2.75 15.1623 2.75041 16.1766 2.81543 16.9727C2.87976 17.76 3.00326 18.2683 3.21289 18.6797C3.62035 19.4793 4.27066 20.1297 5.07031 20.5371C5.48174 20.7467 5.98996 20.8702 6.77734 20.9346C7.57344 20.9996 8.58766 21 10 21H14C15.4123 21 16.4266 20.9996 17.2227 20.9346C18.01 20.8702 18.5183 20.7467 18.9297 20.5371C19.7293 20.1297 20.3797 19.4793 20.7871 18.6797C20.9967 18.2683 21.1202 17.76 21.1846 16.9727C21.2496 16.1766 21.25 15.1623 21.25 13.75C21.25 12.3377 21.2496 11.3234 21.1846 10.5273C21.1202 9.73996 20.9967 9.23174 20.7871 8.82031C20.3797 8.02066 19.7293 7.37035 18.9297 6.96289C18.5183 6.75326 18.01 6.62976 17.2227 6.56543C16.4266 6.5004 15.4123 6.5 14 6.5H10ZM8 11C8.41421 11 8.75 11.3358 8.75 11.75V13H10C10.4142 13 10.75 13.3358 10.75 13.75C10.75 14.1642 10.4142 14.5 10 14.5H8.75V15.75C8.75 16.1642 8.41421 16.5 8 16.5C7.58579 16.5 7.25 16.1642 7.25 15.75V14.5H6C5.58579 14.5 5.25 14.1642 5.25 13.75C5.25 13.3358 5.58579 13 6 13H7.25V11.75C7.25 11.3358 7.58579 11 8 11ZM17 14.25C17.5523 14.25 18 14.6977 18 15.25C18 15.8023 17.5523 16.25 17 16.25C16.4477 16.25 16 15.8023 16 15.25C16 14.6977 16.4477 14.25 17 14.25ZM15 11.25C15.5523 11.25 16 11.6977 16 12.25C16 12.8023 15.5523 13.25 15 13.25C14.4477 13.25 14 12.8023 14 12.25C14 11.6977 14.4477 11.25 15 11.25Z" fill="#1C274C"/>
</svg>
