<svg width="24" height="24" viewBox="0 0 24 24" fill="none" xmlns="http://www.w3.org/2000/svg">
<path d="M10.4998 18.8533C11.0056 18.9455 11.5259 18.9955 12.0564 18.9998C12.5479 19.0038 13.0301 18.9683 13.4998 18.8962V19.5007C13.4998 19.9662 13.4995 20.1989 13.4236 20.3826C13.3221 20.6276 13.1276 20.8231 12.8826 20.9246C12.8415 20.9415 12.7978 20.9543 12.7498 20.9646V21.9998C12.7498 22.414 12.414 22.7498 11.9998 22.7498C11.5857 22.7496 11.2498 22.4139 11.2498 21.9998V20.9646C11.2018 20.9543 11.158 20.9415 11.1169 20.9246C10.872 20.823 10.6774 20.6275 10.5759 20.3826C10.5 20.1989 10.4998 19.9661 10.4998 19.5007V18.8533ZM11.9353 2.00073C16.3534 2.03638 19.9639 5.64622 19.9998 10.0642C20.0355 14.4823 16.4823 18.0355 12.0642 17.9998C7.64622 17.9639 4.03638 14.3533 4.00073 9.9353C3.96516 5.51727 7.51732 1.96513 11.9353 2.00073ZM13.3738 6.45679C13.0739 6.17125 12.5988 6.18325 12.3132 6.48315L9.45679 9.48315C9.2499 9.70041 9.19213 10.02 9.3103 10.2957C9.42855 10.5713 9.69982 10.7498 9.99976 10.7498H12.2498L10.5994 12.4832C10.3139 12.7829 10.3253 13.257 10.6248 13.5427C10.9247 13.8284 11.3996 13.8172 11.6853 13.5173L14.5427 10.5173C14.7495 10.3002 14.8072 9.98052 14.6892 9.70483C14.571 9.42915 14.2998 9.24985 13.9998 9.24976H11.7498L13.4001 7.51733C13.6856 7.21739 13.6737 6.74241 13.3738 6.45679Z" fill="#1C274C"/>
</svg>
