<svg width="24" height="24" viewBox="0 0 24 24" fill="none" xmlns="http://www.w3.org/2000/svg">
<path d="M12 1.25C17.9371 1.25 22.75 6.06294 22.75 12C22.75 17.9371 17.9371 22.75 12 22.75C11.5858 22.75 11.25 22.4142 11.25 22C11.25 21.5858 11.5858 21.25 12 21.25C17.1086 21.25 21.25 17.1086 21.25 12C21.25 6.89137 17.1086 2.75 12 2.75V1.25ZM7.46973 5.46973C7.76262 5.17684 8.23738 5.17684 8.53027 5.46973L14.5303 11.4697C14.8232 11.7626 14.8232 12.2374 14.5303 12.5303L8.53027 18.5303C8.23739 18.8232 7.76261 18.8232 7.46973 18.5303C7.17684 18.2374 7.17684 17.7626 7.46973 17.4697L12.1895 12.75H2C1.58579 12.75 1.25 12.4142 1.25 12C1.25 11.5858 1.58579 11.25 2 11.25H12.1895L7.46973 6.53027C7.17684 6.23738 7.17684 5.76262 7.46973 5.46973Z" fill="#48465C"/>
</svg>
