<svg width="24" height="24" viewBox="0 0 24 24" fill="none" xmlns="http://www.w3.org/2000/svg">
<path d="M14.0002 2.25C14.6985 2.25016 15.3016 2.65944 15.5823 3.25098C16.2655 3.25596 16.7983 3.28686 17.2737 3.47266C17.8419 3.69473 18.3358 4.07275 18.6995 4.5625C19.0665 5.05659 19.2387 5.68987 19.4758 6.56152L20.1038 8.86426C20.4912 9.06269 20.8307 9.33013 21.1135 9.69238C21.7353 10.4889 21.8453 11.4381 21.7346 12.5264C21.6273 13.5824 21.2943 14.9125 20.8782 16.5771L20.8518 16.6826C20.5888 17.7351 20.3755 18.5898 20.1213 19.2568C19.8564 19.9523 19.5198 20.523 18.9651 20.9561C18.4106 21.3889 17.7761 21.5766 17.0374 21.665C16.3286 21.7497 15.4468 21.75 14.3616 21.75H9.63794C8.55277 21.75 7.67098 21.7497 6.96216 21.665C6.22343 21.5766 5.58889 21.3889 5.03442 20.9561C4.4798 20.523 4.14314 19.9523 3.87817 19.2568C3.62411 18.5898 3.4108 17.7351 3.14771 16.6826L3.12134 16.5771C2.70515 14.9125 2.37229 13.5824 2.26489 12.5264C2.15426 11.4381 2.26421 10.4889 2.88599 9.69238C3.16884 9.33012 3.50828 9.06268 3.89575 8.86426L4.52368 6.56152C4.76075 5.68992 4.93316 5.05658 5.30005 4.5625C5.66374 4.07278 6.15769 3.69473 6.72583 3.47266C7.20138 3.2868 7.73467 3.25595 8.41821 3.25098C8.69891 2.65933 9.30186 2.25 10.0002 2.25H14.0002ZM9.68481 9.75C7.89247 9.75 6.63009 9.7521 5.69946 9.88672C4.78845 10.0185 4.34742 10.2582 4.0686 10.6152C3.7898 10.9724 3.66404 11.4583 3.75708 12.374C3.85219 13.3095 4.15635 14.5346 4.59106 16.2734C4.86828 17.3823 5.06206 18.1492 5.28052 18.7227C5.49179 19.2773 5.69819 19.571 5.95728 19.7734C6.21645 19.9757 6.55151 20.1053 7.14087 20.1758C7.75024 20.2487 8.54171 20.25 9.68481 20.25H14.3147C15.4577 20.25 16.2493 20.2486 16.8586 20.1758C17.4479 20.1053 17.7831 19.9757 18.0422 19.7734C18.3014 19.571 18.5087 19.2773 18.72 18.7227C18.9384 18.1492 19.1313 17.3821 19.4084 16.2734C19.8431 14.5346 20.1473 13.3095 20.2424 12.374C20.3355 11.4583 20.2098 10.9724 19.9309 10.6152C19.6521 10.2582 19.2111 10.0185 18.3 9.88672C17.3694 9.7521 16.1071 9.75 14.3147 9.75H9.68481ZM8.00024 12.25C8.41433 12.2502 8.75024 12.5859 8.75024 13V17C8.75024 17.4141 8.41433 17.7498 8.00024 17.75C7.58603 17.75 7.25024 17.4142 7.25024 17V13C7.25024 12.5858 7.58603 12.25 8.00024 12.25ZM12.0002 12.25C12.4143 12.2502 12.7502 12.5859 12.7502 13V17C12.7502 17.4141 12.4143 17.7498 12.0002 17.75C11.586 17.75 11.2502 17.4142 11.2502 17V13C11.2502 12.5858 11.586 12.25 12.0002 12.25ZM16.0002 12.25C16.4143 12.2502 16.7502 12.5859 16.7502 13V17C16.7502 17.4141 16.4143 17.7498 16.0002 17.75C15.586 17.75 15.2502 17.4142 15.2502 17V13C15.2502 12.5858 15.586 12.25 16.0002 12.25ZM15.5803 4.75195C15.2991 5.3419 14.6974 5.74984 14.0002 5.75H10.0002C9.30303 5.75 8.7005 5.34201 8.41919 4.75195C7.75744 4.75865 7.49151 4.78421 7.27173 4.87012C6.96593 4.9897 6.69993 5.19342 6.50415 5.45703C6.32818 5.69414 6.22459 6.02546 5.93384 7.0918L5.58032 8.38867C6.61808 8.24996 7.95781 8.24998 9.62231 8.25H14.3772C16.0417 8.24998 17.3814 8.24996 18.4192 8.38867L18.0657 7.0918C17.7749 6.02534 17.6714 5.69415 17.4954 5.45703C17.2995 5.19335 17.0336 4.98969 16.7278 4.87012C16.508 4.78421 16.2421 4.75864 15.5803 4.75195ZM10.0002 3.75C9.86219 3.75 9.75024 3.86193 9.75024 4C9.75024 4.13807 9.86219 4.25 10.0002 4.25H14.0002C14.1382 4.24978 14.2502 4.13793 14.2502 4C14.2502 3.86207 14.1382 3.75022 14.0002 3.75H10.0002Z" fill="#48465C"/>
</svg>
