<svg width="24" height="24" viewBox="0 0 24 24" fill="none" xmlns="http://www.w3.org/2000/svg">
<path d="M16.1523 1.25C16.5983 1.24996 17.0042 1.24992 17.333 1.29297C17.6922 1.34002 18.0712 1.45054 18.3848 1.75586C18.7011 2.0639 18.8185 2.44074 18.8682 2.7998C18.913 3.12388 18.9121 3.52215 18.9121 3.9541V5.38965L22.6377 17.7363C22.9336 18.7176 22.6512 19.8728 21.6514 20.4727C20.1186 21.3923 17.0033 22.75 12 22.75C6.99661 22.75 3.88129 21.3923 2.34863 20.4727C1.34876 19.8728 1.06637 18.7176 1.3623 17.7363L5.08789 5.38965V3.9541C5.08784 3.52215 5.08709 3.12388 5.13184 2.7998C5.18145 2.44075 5.29895 2.0639 5.61523 1.75586C5.92881 1.45056 6.30786 1.34003 6.66699 1.29297C6.99585 1.24992 7.4016 1.24996 7.84766 1.25H16.1523ZM8.70703 21.0244C9.68344 21.1648 10.7792 21.25 12 21.25C13.2207 21.25 14.3166 21.1648 15.293 21.0244L13.4541 6.25H10.5459L8.70703 21.0244ZM2.79883 18.1699C2.66321 18.6199 2.81563 19.0038 3.12012 19.1865C3.90949 19.6601 5.25524 20.3107 7.22852 20.7539L9.03418 6.25H6.39453L2.79883 18.1699ZM16.7715 20.7539C18.7448 20.3107 20.0905 19.6601 20.8799 19.1865C21.1845 19.0038 21.3368 18.62 21.2012 18.1699L17.6055 6.25H14.9658L16.7715 20.7539ZM7.8916 2.75C7.387 2.75 7.08195 2.75155 6.8623 2.78027C6.76095 2.79354 6.70748 2.80899 6.68164 2.81934C6.67065 2.82375 6.66558 2.82718 6.66406 2.82812C6.66325 2.82864 6.66287 2.82936 6.66211 2.83008L6.66016 2.83301C6.65923 2.83474 6.65728 2.83803 6.65527 2.84277C6.64663 2.86331 6.63128 2.91012 6.61816 3.00488C6.58929 3.21398 6.58789 3.50684 6.58789 4V4.75H17.4121V4C17.4121 3.50684 17.4107 3.21398 17.3818 3.00488C17.3687 2.91006 17.3533 2.86329 17.3447 2.84277L17.3389 2.83105C17.3379 2.83007 17.3369 2.82871 17.3359 2.82812C17.3344 2.82713 17.3292 2.82372 17.3184 2.81934C17.2925 2.80899 17.2391 2.79354 17.1377 2.78027C16.9181 2.75156 16.613 2.75 16.1084 2.75H7.8916Z" fill="#48465C"/>
</svg>
