<svg width="24" height="24" viewBox="0 0 24 24" fill="none" xmlns="http://www.w3.org/2000/svg">
<path fill-rule="evenodd" clip-rule="evenodd" d="M16.1524 1.25C16.5984 1.24996 17.0042 1.24992 17.333 1.29297C17.6922 1.34003 18.0712 1.45054 18.3848 1.75586C18.7011 2.06391 18.8186 2.44074 18.8682 2.79981C18.913 3.12388 18.9121 3.52216 18.9121 3.9541V5.38965L22.6377 17.7363C22.9336 18.7176 22.6512 19.8728 21.6514 20.4727C20.1186 21.3923 17.0033 22.75 12 22.75C6.99662 22.75 3.88131 21.3923 2.34865 20.4727C1.34877 19.8728 1.06639 18.7176 1.36232 17.7363L5.08791 5.38965V3.9541C5.08786 3.52216 5.0871 3.12388 5.13185 2.79981C5.18147 2.44075 5.29897 2.0639 5.61525 1.75586C5.92882 1.45057 6.30788 1.34003 6.66701 1.29297C6.99587 1.24992 7.40161 1.24996 7.84767 1.25H16.1524ZM8.70705 21.0244C9.68346 21.1648 10.7792 21.25 12 21.25C13.2207 21.25 14.3166 21.1648 15.293 21.0244L13.4541 6.25H10.5459L8.70705 21.0244ZM2.79884 18.1699C2.66323 18.6199 2.81564 19.0038 3.12013 19.1865C3.90951 19.6601 5.25526 20.3107 7.22853 20.7539L9.0342 6.25H6.39455L2.79884 18.1699ZM16.7715 20.7539C18.7448 20.3107 20.0905 19.6601 20.8799 19.1865C21.1845 19.0038 21.3368 18.62 21.2012 18.1699L17.6055 6.25H14.9658L16.7715 20.7539ZM7.89162 2.75C7.38702 2.75 7.08196 2.75155 6.86232 2.78028C6.76097 2.79355 6.7075 2.80899 6.68166 2.81934C6.67066 2.82375 6.6656 2.82718 6.66408 2.82813C6.66327 2.82865 6.66289 2.82936 6.66213 2.83008L6.66017 2.83301C6.65924 2.83474 6.6573 2.83804 6.65529 2.84278C6.64665 2.86332 6.6313 2.91012 6.61818 3.00489C6.58931 3.21398 6.58791 3.50684 6.58791 4V4.75H17.4121V4C17.4121 3.50684 17.4108 3.21398 17.3819 3.00489C17.3687 2.91006 17.3533 2.86329 17.3447 2.84278L17.3389 2.83106C17.3379 2.83008 17.337 2.82872 17.336 2.82813C17.3344 2.82714 17.3293 2.82373 17.3184 2.81934C17.2925 2.80899 17.2391 2.79355 17.1377 2.78028C16.9181 2.75156 16.613 2.75 16.1084 2.75H7.89162Z" fill="#1C274C"/>
</svg>
