<svg width="24" height="24" viewBox="0 0 24 24" fill="none" xmlns="http://www.w3.org/2000/svg">
<path d="M20.5117 14.4307C20.8262 14.1611 21.2998 14.1974 21.5693 14.5117C21.8389 14.8262 21.8027 15.2998 21.4883 15.5693L17.9883 18.5693C17.7074 18.8101 17.2926 18.8101 17.0117 18.5693L13.5117 15.5693C13.1974 15.2998 13.1611 14.8262 13.4307 14.5117C13.7002 14.1973 14.1738 14.1611 14.4883 14.4307L17.5 17.0117L20.5117 14.4307ZM10 15.25C10.4142 15.25 10.75 15.5858 10.75 16C10.75 16.4142 10.4142 16.75 10 16.75H3C2.58579 16.75 2.25 16.4142 2.25 16C2.25 15.5858 2.58579 15.25 3 15.25H10ZM20 10.25C20.4142 10.25 20.75 10.5858 20.75 11C20.75 11.4142 20.4142 11.75 20 11.75H3C2.58579 11.75 2.25 11.4142 2.25 11C2.25 10.5858 2.58579 10.25 3 10.25H20ZM20 5.25C20.4142 5.25 20.75 5.58579 20.75 6C20.75 6.41421 20.4142 6.75 20 6.75H3C2.58579 6.75 2.25 6.41421 2.25 6C2.25 5.58579 2.58579 5.25 3 5.25H20Z" fill="#1C274C"/>
</svg>
