<svg width="24" height="24" viewBox="0 0 24 24" fill="none" xmlns="http://www.w3.org/2000/svg">
<path d="M11.7646 4.1543C12.0215 3.98471 12.4885 3.73876 13.0117 3.97363C13.5348 4.20855 13.6611 4.72069 13.7051 5.02539C13.7498 5.33556 13.7501 5.74082 13.75 6.1748V7.85059C15.5736 7.99205 17.672 8.66823 19.3936 10.3154C21.3686 12.2053 22.75 15.2791 22.75 20C22.75 20.3451 22.5146 20.6459 22.1797 20.7285C21.8447 20.8111 21.4963 20.6541 21.3359 20.3486C20.6802 19.0997 19.4718 18.0546 17.959 17.3174C16.6724 16.6905 15.2015 16.3052 13.75 16.2051V17.8252C13.7501 18.2592 13.7498 18.6645 13.7051 18.9746C13.6612 19.2793 13.5348 19.7924 13.0117 20.0273C12.4886 20.262 12.0215 20.0153 11.7646 19.8457C11.5031 19.673 11.2003 19.4037 10.876 19.1152C10.8631 19.1039 10.8499 19.0925 10.8369 19.0811L6.82324 15.5137C6.07429 14.848 5.45362 14.2959 5.02734 13.7949C4.57931 13.2684 4.26074 12.7014 4.26074 12C4.26076 11.2986 4.57934 10.7316 5.02734 10.2051C5.45362 9.70415 6.07433 9.15199 6.82324 8.48633L10.8369 4.91895C10.8499 4.9075 10.8631 4.89615 10.876 4.88477C11.2003 4.59635 11.5031 4.32701 11.7646 4.1543ZM7.95117 3.9502C8.25461 3.66869 8.72893 3.68612 9.01074 3.98926C9.29259 4.2928 9.27522 4.76795 8.97168 5.0498L3.75586 9.89355C3.11463 10.489 2.75007 11.3242 2.75 12.1992C2.75 13.1218 3.15493 13.9977 3.85742 14.5957L8.94727 18.9287C9.2627 19.1972 9.30072 19.6709 9.03223 19.9863C8.76381 20.3015 8.29094 20.3394 7.97559 20.0713L2.88477 15.7383C1.84746 14.8554 1.25 13.5614 1.25 12.1992C1.25007 10.9072 1.78757 9.67318 2.73438 8.79395L7.95117 3.9502ZM11.834 6.04004L7.86133 9.57129C7.0604 10.2832 6.52005 10.7663 6.16992 11.1777C5.83377 11.5728 5.76076 11.8033 5.76074 12C5.76074 12.1967 5.83363 12.428 6.16992 12.8232C6.52006 13.2346 7.06066 13.717 7.86133 14.4287L11.834 17.96C11.9989 18.1066 12.134 18.2263 12.2471 18.3232C12.2498 18.1745 12.25 17.9941 12.25 17.7734V15.4287C12.25 15.0145 12.5858 14.6787 13 14.6787C14.9125 14.6787 16.9002 15.1327 18.6162 15.9688C19.5349 16.4164 20.3904 16.9815 21.1162 17.6572C20.7474 14.6103 19.6575 12.6443 18.3564 11.3994C16.7363 9.84938 14.6896 9.32129 13 9.32129C12.5858 9.32129 12.25 8.98551 12.25 8.57129V6.22656C12.25 6.00602 12.2498 5.82557 12.2471 5.67676C12.134 5.77365 11.9989 5.89344 11.834 6.04004Z" fill="#48465C"/>
</svg>
