<svg width="24" height="24" viewBox="0 0 24 24" fill="none" xmlns="http://www.w3.org/2000/svg">
<path d="M16.5 8C16.9142 8 17.25 8.33579 17.25 8.75V11.75H18C19.8856 11.75 20.8283 11.7501 21.4141 12.3359C21.9999 12.9217 22 13.8644 22 15.75C22 17.6356 21.9999 18.5783 21.4141 19.1641C20.8283 19.7499 19.8856 19.75 18 19.75H6C4.11439 19.75 3.17172 19.7499 2.58594 19.1641C2.00015 18.5783 2 17.6356 2 15.75C2 13.8644 2.00015 12.9217 2.58594 12.3359C3.17172 11.7501 4.11439 11.75 6 11.75H15.75V8.75C15.75 8.33579 16.0858 8 16.5 8ZM6 14.75C5.44772 14.75 5 15.1977 5 15.75C5 16.3023 5.44772 16.75 6 16.75C6.55228 16.75 7 16.3023 7 15.75C7 15.1977 6.55228 14.75 6 14.75ZM9 14.75C8.44772 14.75 8 15.1977 8 15.75C8 16.3023 8.44772 16.75 9 16.75C9.55228 16.75 10 16.3023 10 15.75C10 15.1977 9.55228 14.75 9 14.75ZM16.501 5.5C18.2076 5.50016 19.6459 6.64003 20.1006 8.19824C20.2165 8.59583 19.9885 9.01191 19.5908 9.12793C19.1932 9.24392 18.7771 9.01576 18.6611 8.61816C18.3881 7.68251 17.5231 7.00016 16.501 7C15.4786 7 14.6128 7.6824 14.3398 8.61816C14.2238 9.01573 13.8077 9.24395 13.4102 9.12793C13.0127 9.01188 12.7845 8.59578 12.9004 8.19824C13.3552 6.63992 14.7942 5.5 16.501 5.5ZM16.5 3C19.1065 3.00009 21.3385 4.59576 22.2764 6.86035C22.4347 7.24299 22.2527 7.68139 21.8701 7.83984C21.4876 7.99819 21.0491 7.81622 20.8906 7.43359C20.1768 5.71013 18.4787 4.50009 16.5 4.5C14.5214 4.5 12.8234 5.71015 12.1094 7.43359C11.951 7.81628 11.5116 7.99833 11.1289 7.83984C10.7465 7.68128 10.5653 7.24293 10.7236 6.86035C11.6615 4.5957 13.8935 3 16.5 3Z" fill="#1C274C"/>
</svg>
