<svg width="24" height="24" viewBox="0 0 24 24" fill="none" xmlns="http://www.w3.org/2000/svg">
<path d="M5.00098 3.05957C7.09912 2.10065 9.68807 2.39051 12 4.45898C14.312 2.3905 16.9009 2.10063 18.999 3.05957C21.215 4.0725 22.7499 6.4248 22.75 9.13672C22.75 11.8022 21.6397 13.8359 20.1836 15.4756C19.0174 16.7888 17.5897 17.8878 16.3291 18.8584C16.0433 19.0784 15.7665 19.2922 15.5029 19.5C14.9906 19.9038 14.4401 20.3345 13.8828 20.6602C13.3258 20.9856 12.6902 21.25 12 21.25C11.3098 21.25 10.6742 20.9856 10.1172 20.6602C9.55993 20.3345 9.0093 19.9038 8.49707 19.5C8.23347 19.2922 7.95661 19.0784 7.6709 18.8584C6.41029 17.8878 4.98255 16.7888 3.81641 15.4756C2.36029 13.8359 1.25 11.8022 1.25 9.13672C1.25013 6.4248 2.78502 4.0725 5.00098 3.05957ZM18.376 4.42383C16.7643 3.68711 14.5979 3.88235 12.54 6.02051C12.3986 6.16735 12.2039 6.25098 12 6.25098C11.7961 6.25098 11.6014 6.16735 11.46 6.02051C9.40202 3.88235 7.23573 3.68711 5.62402 4.42383C3.9652 5.18216 2.75013 6.98607 2.75 9.13672C2.75 11.3341 3.64943 13.028 4.93848 14.4795C6.00091 15.6758 7.28673 16.6679 8.54102 17.6348C8.83891 17.8645 9.13489 18.093 9.42578 18.3223C9.95179 18.737 10.4217 19.1009 10.874 19.3652C11.3263 19.6294 11.6905 19.75 12 19.75C12.3095 19.75 12.6737 19.6294 13.126 19.3652C13.5783 19.1009 14.0481 18.7369 14.5742 18.3223C14.8651 18.093 15.1611 17.8645 15.459 17.6348C16.7133 16.6679 17.9991 15.6758 19.0615 14.4795C20.3506 13.028 21.25 11.3341 21.25 9.13672C21.2499 6.98608 20.0348 5.18217 18.376 4.42383Z" fill="#1C274C"/>
</svg>
