<svg width="24" height="24" viewBox="0 0 24 24" fill="none" xmlns="http://www.w3.org/2000/svg">
<path fill-rule="evenodd" clip-rule="evenodd" d="M9.86328 1.29863C11.5212 0.961582 12.7498 2.38225 12.75 3.85039V5.30937C15.017 5.66896 16.75 7.63265 16.75 10.0008V14.0008C16.7498 16.624 14.6233 18.7508 12 18.7508C9.37675 18.7508 7.25016 16.624 7.25 14.0008V10.0008C7.25 7.63265 8.98301 5.66896 11.25 5.30937V3.85039C11.2498 3.09135 10.6695 2.66519 10.1621 2.76836C5.9382 3.62716 2.75023 7.39375 2.75 11.9168C2.75 17.0773 6.89721 21.2508 12 21.2508C17.1028 21.2508 21.25 17.0773 21.25 11.9168C21.2498 8.22056 19.1206 5.02834 16.0342 3.51641C15.6622 3.3342 15.5083 2.88446 15.6904 2.5125C15.8726 2.14051 16.3223 1.98654 16.6943 2.16875C20.2798 3.92514 22.7498 7.63132 22.75 11.9168C22.75 17.894 17.9429 22.7508 12 22.7508C6.05709 22.7508 1.25 17.894 1.25 11.9168C1.25023 6.67495 4.94593 2.29842 9.86328 1.29863ZM8.75 14.0008C8.75016 15.7956 10.2052 17.2508 12 17.2508C13.7948 17.2508 15.2498 15.7956 15.25 14.0008V10.7508H8.75V14.0008ZM11.25 6.8377C10.0574 7.11942 9.11862 8.05821 8.83691 9.25078H11.25V6.8377ZM12.75 9.25078H15.1631C14.8814 8.05821 13.9426 7.11942 12.75 6.8377V9.25078Z" fill="#1C274C"/>
</svg>
