<svg width="24" height="24" viewBox="0 0 24 24" fill="none" xmlns="http://www.w3.org/2000/svg">
<path d="M7.02539 14.75C7.4698 14.75 7.84092 14.7497 8.14551 14.7705C8.46256 14.7921 8.76238 14.8388 9.05273 14.959C9.72642 15.2381 10.2619 15.7736 10.541 16.4473C10.6613 16.7376 10.7079 17.0374 10.7295 17.3545C10.7503 17.6591 10.75 18.0303 10.75 18.4746V18.5254C10.75 18.9698 10.7503 19.3409 10.7295 19.6455C10.7079 19.9626 10.6613 20.2624 10.541 20.5527C10.2619 21.2264 9.72642 21.7619 9.05273 22.041C8.76238 22.1613 8.46256 22.2079 8.14551 22.2295C7.84093 22.2503 7.46979 22.25 7.02539 22.25H4.97461C4.53021 22.25 4.15907 22.2503 3.85449 22.2295C3.53744 22.2079 3.23762 22.1613 2.94727 22.041C2.27359 21.7619 1.73809 21.2264 1.45898 20.5527C1.33872 20.2624 1.29215 19.9626 1.27051 19.6455C1.24973 19.3409 1.25 18.9698 1.25 18.5254V18.4746C1.25 18.0301 1.24973 17.6591 1.27051 17.3545C1.29215 17.0374 1.33872 16.7376 1.45898 16.4473C1.73809 15.7736 2.27359 15.2381 2.94727 14.959C3.23762 14.8388 3.53744 14.7921 3.85449 14.7705C4.15907 14.7497 4.53021 14.75 4.97461 14.75H7.02539ZM17.5518 10.75C18.4503 10.75 19.2001 10.7501 19.7949 10.8301C20.4225 10.9145 20.989 11.1003 21.4443 11.5557C21.8997 12.011 22.0855 12.5775 22.1699 13.2051C22.2499 13.7999 22.25 14.5498 22.25 15.4482V17.5518C22.25 18.4502 22.2499 19.2001 22.1699 19.7949C22.0855 20.4225 21.8997 20.989 21.4443 21.4443C20.989 21.8997 20.4225 22.0855 19.7949 22.1699C19.2001 22.2499 18.4502 22.25 17.5518 22.25H17.4482C16.5498 22.25 15.7999 22.2499 15.2051 22.1699C14.5775 22.0855 14.011 21.8997 13.5557 21.4443C13.1003 20.989 12.9145 20.4225 12.8301 19.7949C12.7501 19.2001 12.75 18.4503 12.75 17.5518V15.4482C12.75 14.5497 12.7501 13.7999 12.8301 13.2051C12.9145 12.5775 13.1003 12.011 13.5557 11.5557C14.011 11.1003 14.5775 10.9145 15.2051 10.8301C15.7999 10.7501 16.5497 10.75 17.4482 10.75H17.5518ZM5 16.25C4.52397 16.25 4.20445 16.2507 3.95703 16.2676C3.71633 16.284 3.59863 16.3127 3.52148 16.3447C3.21519 16.4715 2.9716 16.7153 2.84473 17.0215C2.81278 17.0987 2.784 17.2164 2.76758 17.457C2.75072 17.7045 2.75 18.024 2.75 18.5C2.75 18.976 2.75072 19.2955 2.76758 19.543C2.784 19.7836 2.81278 19.9013 2.84473 19.9785C2.9716 20.2847 3.2152 20.5284 3.52148 20.6553C3.59863 20.6872 3.71631 20.716 3.95703 20.7324C4.20446 20.7493 4.52397 20.75 5 20.75H7C7.47604 20.75 7.79555 20.7493 8.04297 20.7324C8.2837 20.716 8.40136 20.6872 8.47852 20.6553C8.7848 20.5284 9.02841 20.2847 9.15527 19.9785C9.18723 19.9013 9.21601 19.7836 9.23242 19.543C9.24929 19.2955 9.25 18.976 9.25 18.5C9.25 18.024 9.24929 17.7045 9.23242 17.457C9.21601 17.2164 9.18723 17.0987 9.15527 17.0215C9.02841 16.7153 8.7848 16.4715 8.47852 16.3447C8.40136 16.3127 8.28366 16.284 8.04297 16.2676C7.79555 16.2507 7.47604 16.25 7 16.25H5ZM17.5 12.25C16.536 12.25 15.8883 12.2515 15.4053 12.3164C14.9439 12.3785 14.7465 12.4859 14.6162 12.6162C14.4859 12.7465 14.3785 12.9439 14.3164 13.4053C14.2515 13.8883 14.25 14.536 14.25 15.5V17.5C14.25 18.464 14.2515 19.1117 14.3164 19.5947C14.3785 20.0561 14.4859 20.2535 14.6162 20.3838C14.7465 20.5141 14.9439 20.6215 15.4053 20.6836C15.8883 20.7485 16.536 20.75 17.5 20.75C18.464 20.75 19.1117 20.7485 19.5947 20.6836C20.0561 20.6215 20.2535 20.5141 20.3838 20.3838C20.5141 20.2535 20.6215 20.0561 20.6836 19.5947C20.7485 19.1117 20.75 18.464 20.75 17.5V15.5C20.75 14.536 20.7485 13.8883 20.6836 13.4053C20.6215 12.9439 20.5141 12.7465 20.3838 12.6162C20.2535 12.4859 20.0561 12.3785 19.5947 12.3164C19.1117 12.2515 18.464 12.25 17.5 12.25ZM6.05176 1.75C6.95023 1.74997 7.70015 1.75012 8.29492 1.83008C8.92254 1.91452 9.48898 2.10031 9.94434 2.55566C10.3997 3.01102 10.5855 3.57747 10.6699 4.20508C10.7499 4.79986 10.75 5.54977 10.75 6.44824V8.55176C10.75 9.45023 10.7499 10.2001 10.6699 10.7949C10.5855 11.4225 10.3997 11.989 9.94434 12.4443C9.48898 12.8997 8.92253 13.0855 8.29492 13.1699C7.70015 13.2499 6.95023 13.25 6.05176 13.25H5.94824C5.04977 13.25 4.29986 13.2499 3.70508 13.1699C3.07748 13.0855 2.51102 12.8997 2.05566 12.4443C1.6003 11.989 1.41452 11.4225 1.33008 10.7949C1.25012 10.2001 1.24997 9.45023 1.25 8.55176V6.44824C1.24997 5.54977 1.25012 4.79986 1.33008 4.20508C1.41452 3.57747 1.6003 3.01102 2.05566 2.55566C2.51102 2.1003 3.07747 1.91452 3.70508 1.83008C4.29986 1.75012 5.04978 1.74997 5.94824 1.75H6.05176ZM6 3.25C5.03599 3.25 4.3883 3.25147 3.90527 3.31641C3.44388 3.37845 3.24652 3.4859 3.11621 3.61621C2.9859 3.74652 2.87845 3.94388 2.81641 4.40527C2.75147 4.8883 2.75 5.53599 2.75 6.5V8.5C2.75 9.46401 2.75147 10.1117 2.81641 10.5947C2.87845 11.0561 2.98591 11.2535 3.11621 11.3838C3.24652 11.5141 3.44389 11.6215 3.90527 11.6836C4.3883 11.7485 5.03599 11.75 6 11.75C6.96401 11.75 7.61169 11.7485 8.09473 11.6836C8.55611 11.6215 8.75348 11.5141 8.88379 11.3838C9.01409 11.2535 9.12155 11.0561 9.18359 10.5947C9.24853 10.1117 9.25 9.46401 9.25 8.5V6.5C9.25 5.53599 9.24853 4.8883 9.18359 4.40527C9.12155 3.94388 9.01409 3.74652 8.88379 3.61621C8.75348 3.4859 8.55611 3.37845 8.09473 3.31641C7.61169 3.25147 6.96401 3.25 6 3.25ZM18.5254 1.75C18.9698 1.75 19.3409 1.74973 19.6455 1.77051C19.9626 1.79215 20.2624 1.83872 20.5527 1.95898C21.2264 2.23809 21.7619 2.77359 22.041 3.44727C22.1613 3.73762 22.2079 4.03744 22.2295 4.35449C22.2503 4.65907 22.25 5.03021 22.25 5.47461V5.52539C22.25 5.96979 22.2503 6.34093 22.2295 6.64551C22.2079 6.96256 22.1613 7.26238 22.041 7.55273C21.7619 8.22642 21.2264 8.76191 20.5527 9.04102C20.2624 9.16128 19.9626 9.20786 19.6455 9.22949C19.3409 9.25028 18.9698 9.25001 18.5254 9.25H16.4746C16.0303 9.25001 15.6591 9.25028 15.3545 9.22949C15.0374 9.20786 14.7376 9.16128 14.4473 9.04102C13.7736 8.76191 13.2381 8.22642 12.959 7.55273C12.8388 7.26238 12.7921 6.96256 12.7705 6.64551C12.7497 6.34092 12.75 5.9698 12.75 5.52539V5.47461C12.75 5.03021 12.7497 4.65907 12.7705 4.35449C12.7921 4.03744 12.8388 3.73762 12.959 3.44727C13.2381 2.77359 13.7736 2.23809 14.4473 1.95898C14.7376 1.83872 15.0374 1.79215 15.3545 1.77051C15.659 1.74973 16.0302 1.75 16.4746 1.75H18.5254ZM16.5 3.25C16.024 3.25 15.7045 3.25072 15.457 3.26758C15.2164 3.284 15.0987 3.31278 15.0215 3.34473C14.7153 3.4716 14.4715 3.71519 14.3447 4.02148C14.3127 4.09863 14.284 4.21633 14.2676 4.45703C14.2507 4.70445 14.25 5.02397 14.25 5.5C14.25 5.97604 14.2507 6.29555 14.2676 6.54297C14.284 6.78366 14.3127 6.90136 14.3447 6.97852C14.4715 7.2848 14.7153 7.52841 15.0215 7.65527C15.0987 7.68723 15.2164 7.71601 15.457 7.73242C15.7045 7.74929 16.024 7.75 16.5 7.75H18.5C18.976 7.75 19.2955 7.74929 19.543 7.73242C19.7836 7.71601 19.9013 7.68723 19.9785 7.65527C20.2847 7.52841 20.5284 7.2848 20.6553 6.97852C20.6872 6.90136 20.716 6.7837 20.7324 6.54297C20.7493 6.29555 20.75 5.97604 20.75 5.5C20.75 5.02397 20.7493 4.70446 20.7324 4.45703C20.716 4.21631 20.6872 4.09863 20.6553 4.02148C20.5284 3.7152 20.2847 3.4716 19.9785 3.34473C19.9013 3.31278 19.7836 3.284 19.543 3.26758C19.2955 3.25072 18.976 3.25 18.5 3.25H16.5Z" fill="#1C274C"/>
</svg>
