<svg width="24" height="24" viewBox="0 0 24 24" fill="none" xmlns="http://www.w3.org/2000/svg">
<path fill-rule="evenodd" clip-rule="evenodd" d="M17.8802 7.25049C18.0789 7.25053 18.2699 7.3298 18.4105 7.47021C18.5506 7.61073 18.6292 7.80107 18.6293 7.99951C18.6293 8.19815 18.5508 8.38918 18.4105 8.52979L10.4105 16.5298C10.2699 16.6702 10.0789 16.7495 9.88024 16.7495C9.68149 16.7495 9.49059 16.6702 9.34997 16.5298L5.34997 12.5298C5.21755 12.3876 5.14539 12.1996 5.1488 12.0054C5.15223 11.8111 5.23111 11.6252 5.36852 11.4878C5.50581 11.3506 5.6911 11.2726 5.88513 11.269C6.07943 11.2656 6.26834 11.3377 6.41052 11.4702L9.87048 14.9399L17.35 7.47021C17.4906 7.32976 17.6815 7.25049 17.8802 7.25049Z" fill="#48465C"/>
</svg>
