<svg width="24" height="24" viewBox="0 0 24 24" fill="none" xmlns="http://www.w3.org/2000/svg">
<path d="M12 1.25C17.9371 1.25 22.75 6.06294 22.75 12C22.75 17.9371 17.9371 22.75 12 22.75C10.2817 22.75 8.65526 22.3463 7.21289 21.6279C6.99771 21.5208 6.77762 21.4984 6.59277 21.5479L4.36719 22.1426C2.84336 22.5503 1.44969 21.1566 1.85742 19.6328L2.45215 17.4072C2.50162 17.2224 2.47921 17.0023 2.37207 16.7871C1.65365 15.3447 1.25 13.7183 1.25 12C1.25 6.06294 6.06294 1.25 12 1.25ZM12 2.75C6.89137 2.75 2.75 6.89137 2.75 12C2.75 13.4811 3.09757 14.8789 3.71484 16.1182C3.96256 16.6156 4.05767 17.2107 3.90137 17.7949L3.30566 20.0205C3.19637 20.4292 3.57073 20.8037 3.97949 20.6943L6.20508 20.0986C6.78925 19.9423 7.38445 20.0375 7.88184 20.2852C9.12114 20.9025 10.5189 21.25 12 21.25C17.1086 21.25 21.25 17.1086 21.25 12C21.25 6.89137 17.1086 2.75 12 2.75ZM12 7.25C12.4142 7.25 12.75 7.58579 12.75 8V8.00977C13.8387 8.28405 14.7499 9.14286 14.75 10.333C14.75 10.7472 14.4142 11.083 14 11.083C13.5858 11.083 13.25 10.7472 13.25 10.333C13.2498 9.94903 12.824 9.41699 12 9.41699C11.176 9.41699 10.7502 9.94903 10.75 10.333C10.75 10.7171 11.1758 11.25 12 11.25C13.3849 11.25 14.75 12.2101 14.75 13.667C14.7499 14.8571 13.8387 15.716 12.75 15.9902V16C12.75 16.4142 12.4142 16.75 12 16.75C11.5858 16.75 11.25 16.4142 11.25 16V15.9902C10.1613 15.716 9.25015 14.8571 9.25 13.667C9.25 13.2528 9.58579 12.917 10 12.917C10.4142 12.917 10.75 13.2528 10.75 13.667C10.7502 14.051 11.176 14.583 12 14.583C12.824 14.583 13.2498 14.051 13.25 13.667C13.25 13.2829 12.8242 12.75 12 12.75C10.6151 12.75 9.25 11.79 9.25 10.333C9.25015 9.14286 10.1613 8.28405 11.25 8.00977V8C11.25 7.58579 11.5858 7.25 12 7.25Z" fill="#1C274C"/>
</svg>
