<svg width="24" height="24" viewBox="0 0 24 24" fill="none" xmlns="http://www.w3.org/2000/svg">
<path d="M21 21.25C21.4142 21.25 21.75 21.5858 21.75 22C21.75 22.4142 21.4142 22.75 21 22.75H3C2.58579 22.75 2.25 22.4142 2.25 22C2.25 21.5858 2.58579 21.25 3 21.25H21ZM5 9C5.94281 9 6.41413 9.00008 6.70703 9.29297C6.99992 9.58587 7 10.0572 7 11V17C7 17.9428 6.99992 18.4141 6.70703 18.707C6.41413 18.9999 5.9428 19 5 19C4.0572 19 3.58587 18.9999 3.29297 18.707C3.00008 18.4141 3 17.9428 3 17V11C3 10.0572 3.00008 9.58587 3.29297 9.29297C3.58587 9.00008 4.05719 9 5 9ZM12 5C12.9428 5 13.4141 5.00008 13.707 5.29297C13.9999 5.58587 14 6.0572 14 7V17C14 17.9428 13.9999 18.4141 13.707 18.707C13.4141 18.9999 12.9428 19 12 19C11.0572 19 10.5859 18.9999 10.293 18.707C10.0001 18.4141 10 17.9428 10 17V7C10 6.0572 10.0001 5.58587 10.293 5.29297C10.5859 5.00008 11.0572 5 12 5ZM19 2C19.9428 2 20.4141 2.00008 20.707 2.29297C20.9999 2.58587 21 3.0572 21 4V17C21 17.9428 20.9999 18.4141 20.707 18.707C20.4141 18.9999 19.9428 19 19 19C18.0572 19 17.5859 18.9999 17.293 18.707C17.0001 18.4141 17 17.9428 17 17V4C17 3.0572 17.0001 2.58587 17.293 2.29297C17.5859 2.00008 18.0572 2 19 2Z" fill="#48465C"/>
</svg>
