<svg width="24" height="24" viewBox="0 0 24 24" fill="none" xmlns="http://www.w3.org/2000/svg">
<path d="M9.7959 14.4316C10.1097 14.1613 10.5831 14.197 10.8535 14.5107C11.1239 14.8245 11.0892 15.298 10.7754 15.5684L8.01953 17.9424H10.2861C10.5995 17.9425 10.8802 18.1379 10.9893 18.4316C11.0982 18.7254 11.0128 19.0562 10.7754 19.2607L6.48926 22.9531C6.17545 23.2234 5.70195 23.1879 5.43164 22.874C5.1616 22.5602 5.19704 22.0867 5.51074 21.8164L8.2666 19.4424H6C5.68662 19.4424 5.4061 19.2478 5.29688 18.9541C5.18773 18.6602 5.27324 18.3287 5.51074 18.124L9.7959 14.4316ZM12.4697 19.4697C12.7626 19.1768 13.2374 19.1769 13.5303 19.4697C13.8232 19.7626 13.8232 20.2374 13.5303 20.5303L11.5303 22.5303C11.2374 22.8232 10.7626 22.8232 10.4697 22.5303C10.1769 22.2374 10.1768 21.7626 10.4697 21.4697L12.4697 19.4697ZM16.4697 18.4697C16.7626 18.1768 17.2374 18.1769 17.5303 18.4697C17.8232 18.7626 17.8232 19.2374 17.5303 19.5303L15.5303 21.5303C15.2374 21.8232 14.7626 21.8232 14.4697 21.5303C14.1769 21.2374 14.1768 20.7626 14.4697 20.4697L16.4697 18.4697ZM12.4766 3C15.416 3.00018 17.8371 5.19364 18.1553 8.01465C20.393 8.77989 21.9998 10.8809 22 13.3525C22 15.4504 20.8423 17.2811 19.124 18.2549C19.0159 17.946 18.8377 17.6562 18.5908 17.4092C18.1182 16.9366 17.4877 16.7181 16.8691 16.7539C17.4574 15.8792 17.3643 14.6827 16.5908 13.9092C15.7121 13.0306 14.2879 13.0306 13.4092 13.9092L12.5264 14.792C12.485 14.342 12.3077 13.8997 11.9902 13.5312C11.1791 12.59 9.75874 12.4848 8.81738 13.2959L4.53125 16.9883C4.15221 17.3149 3.90212 17.7486 3.80078 18.2158C2.71078 17.4479 2 16.1883 2 14.7646C2.00003 12.4256 3.91922 10.5293 6.28613 10.5293C6.57011 10.5293 6.84768 10.5572 7.11621 10.6094C6.88716 9.99839 6.76177 9.33713 6.76172 8.64746C6.76172 5.52867 9.32064 3 12.4766 3ZM14.4697 14.9697C14.7626 14.6768 15.2374 14.6769 15.5303 14.9697C15.8232 15.2626 15.8232 15.7374 15.5303 16.0303L13.5303 18.0303C13.2374 18.3232 12.7626 18.3232 12.4697 18.0303C12.1769 17.7374 12.1768 17.2626 12.4697 16.9697L14.4697 14.9697Z" fill="#48465C"/>
</svg>
