<svg width="24" height="24" viewBox="0 0 24 24" fill="none" xmlns="http://www.w3.org/2000/svg">
<path d="M17 1.25C19.0711 1.25 20.75 2.92893 20.75 5C20.75 6.81421 19.4617 8.32733 17.75 8.6748V9.26074C18.3711 9.27379 18.9167 9.30237 19.3916 9.36621C20.2917 9.48723 21.0494 9.74676 21.6514 10.3486C22.2533 10.9506 22.5128 11.7083 22.6338 12.6084C22.7503 13.4754 22.75 14.5778 22.75 15.9453V16.0547C22.75 17.4222 22.7503 18.5246 22.6338 19.3916C22.5128 20.2917 22.2533 21.0495 21.6514 21.6514C21.0494 22.2533 20.2917 22.5128 19.3916 22.6338C18.5246 22.7503 17.4222 22.75 16.0547 22.75H7.94531C6.57782 22.75 5.47534 22.7503 4.6084 22.6338C3.7083 22.5128 2.95055 22.2533 2.34863 21.6514C1.74671 21.0495 1.48723 20.2917 1.36621 19.3916C1.24968 18.5246 1.24998 17.4222 1.25 16.0547V15.9453C1.24998 14.5778 1.24968 13.4754 1.36621 12.6084C1.48723 11.7083 1.74671 10.9505 2.34863 10.3486C2.95055 9.74668 3.7083 9.48723 4.6084 9.36621C5.47534 9.24968 6.57782 9.24998 7.94531 9.25H16.25V8.6748C14.5383 8.32733 13.25 6.81421 13.25 5C13.25 2.92893 14.9289 1.25 17 1.25ZM4.74512 21.1377C4.76585 21.1407 4.78729 21.1436 4.80859 21.1465C5.5639 21.2479 6.56485 21.25 8 21.25H16C17.4354 21.25 18.437 21.248 19.1924 21.1465C19.3398 21.1266 19.4733 21.1036 19.5947 21.0771L12.0107 16.8643L4.74512 21.1377ZM3.0791 11.9023C2.97977 12.1312 2.90544 12.4217 2.85352 12.8076C2.75196 13.563 2.75 14.5646 2.75 16C2.75 17.4354 2.75196 18.437 2.85352 19.1924C2.92319 19.7104 3.0331 20.0565 3.18945 20.3125L10.4893 16.0186L3.0791 11.9023ZM8 10.75C6.56484 10.75 5.5639 10.7521 4.80859 10.8535C4.66097 10.8734 4.52685 10.8964 4.40527 10.9229L12.3535 15.3379C12.3613 15.3421 12.3693 15.3471 12.377 15.3516L20.9209 20.0977C21.0203 19.8688 21.0945 19.5783 21.1465 19.1924C21.248 18.437 21.25 17.4354 21.25 16C21.25 14.5646 21.248 13.563 21.1465 12.8076C21.0478 12.0742 20.8676 11.6859 20.5908 11.4092C20.3141 11.1324 19.9258 10.9522 19.1924 10.8535C18.7907 10.7995 18.319 10.773 17.75 10.7607V13C17.75 13.4142 17.4142 13.75 17 13.75C16.5858 13.75 16.25 13.4142 16.25 13V10.75H8ZM17 2.75C15.7574 2.75 14.75 3.75736 14.75 5C14.75 6.24264 15.7574 7.25 17 7.25C18.2426 7.25 19.25 6.24264 19.25 5C19.25 3.75736 18.2426 2.75 17 2.75Z" fill="#1C274C"/>
</svg>
