<svg width="24" height="24" viewBox="0 0 24 24" fill="none" xmlns="http://www.w3.org/2000/svg">
<path d="M15.7578 17.79C16.1497 17.6564 16.5761 17.8661 16.71 18.2578C16.8437 18.6498 16.6341 19.0761 16.2422 19.21C15.4413 19.4835 14.4565 19.75 13 19.75C11.6034 19.75 10.5664 19.6242 9.8623 19.4922C9.45517 19.416 9.18642 19.0243 9.2627 18.6172C9.33907 18.2102 9.73081 17.9425 10.1377 18.0186C10.7485 18.133 11.6936 18.25 13 18.25C14.2465 18.25 15.0637 18.0271 15.7578 17.79ZM15.7266 15.3018C16.1104 15.1516 16.5447 15.3392 16.6973 15.7227C16.8502 16.1075 16.6622 16.5442 16.2773 16.6973L16 16C16.2583 16.6498 16.2755 16.6942 16.2764 16.6973L16.2725 16.6992L16.2656 16.7021L16.2461 16.709C16.2307 16.7147 16.21 16.7217 16.1846 16.7305C16.1337 16.748 16.0624 16.7712 15.9707 16.7979C15.787 16.8514 15.5209 16.9203 15.1689 16.9873C14.4644 17.1213 13.417 17.25 12 17.25C10.5829 17.25 9.53558 17.1213 8.83105 16.9873C8.47905 16.9203 8.21296 16.8514 8.0293 16.7979C7.93754 16.7712 7.86635 16.748 7.81543 16.7305C7.79 16.7217 7.76929 16.7147 7.75391 16.709L7.73438 16.7021L7.72754 16.6992L7.72363 16.6973H7.72266C7.33783 16.5442 7.14972 16.1075 7.30273 15.7227C7.44574 15.3633 7.83586 15.1759 8.2002 15.2773L15.7246 15.3027L15.7266 15.3018ZM8.30371 15.3125C8.33229 15.3223 8.38059 15.3384 8.44922 15.3584C8.58696 15.3986 8.80645 15.4557 9.11133 15.5137C9.72121 15.6297 10.6746 15.75 12 15.75C13.3253 15.75 14.2788 15.6297 14.8887 15.5137C15.1936 15.4557 15.4131 15.3986 15.5508 15.3584C15.6195 15.3384 15.6678 15.3223 15.6963 15.3125L8.27539 15.3027C8.27976 15.3043 8.28947 15.3076 8.30371 15.3125ZM17.4092 12.5381C17.6265 12.2595 18.0181 12.1652 18.3438 12.333C18.712 12.5227 18.8567 12.9756 18.667 13.3438L18 13C18.6329 13.3261 18.6635 13.3456 18.665 13.3467L18.6641 13.3496L18.6611 13.3555L18.6543 13.3662C18.6499 13.3741 18.6455 13.3825 18.6406 13.3906C18.6308 13.4069 18.6193 13.4233 18.6074 13.4404C18.5835 13.4747 18.5555 13.5104 18.5225 13.5469C18.4563 13.6198 18.3716 13.695 18.2637 13.7705C18.0495 13.9204 17.7378 14.0754 17.2773 14.2168C16.3617 14.4979 14.7775 14.75 12 14.75C11.5858 14.75 11.25 14.4142 11.25 14C11.2501 13.5858 11.5859 13.25 12 13.25C14.7074 13.25 16.1237 13.0021 16.8369 12.7832C17.1905 12.6746 17.3505 12.5796 17.4043 12.542C17.4061 12.5407 17.4092 12.5381 17.4092 12.5381ZM5.65625 12.333C5.98187 12.1652 6.37343 12.2595 6.59082 12.5381C6.6058 12.5489 6.63351 12.5673 6.67676 12.5908C6.84706 12.6832 7.23583 12.8433 8.02246 12.9824C8.43029 13.0546 8.70194 13.4437 8.62988 13.8516C8.55773 14.2595 8.16862 14.5321 7.76074 14.46C6.87552 14.3033 6.31845 14.1032 5.96094 13.9092C5.78026 13.8111 5.64454 13.711 5.54297 13.6143C5.49214 13.5658 5.44977 13.5184 5.41504 13.4727C5.3977 13.4498 5.38276 13.4268 5.36914 13.4053C5.36237 13.3945 5.3555 13.3843 5.34961 13.374L5.34082 13.3584L5.33691 13.3516L5.33398 13.3457C5.33398 13.3457 5.3333 13.3435 6 13L5.33301 13.3438C5.14336 12.9756 5.28808 12.5227 5.65625 12.333ZM3.31543 9.69434C3.4839 9.31729 3.92528 9.14699 4.30273 9.31348L4.3125 9.31836C4.32364 9.32296 4.34386 9.3307 4.37305 9.3418C4.43175 9.36411 4.52765 9.39877 4.66211 9.44141C4.93116 9.52673 5.35649 9.64489 5.95312 9.76465C7.14625 10.0042 9.02735 10.25 11.7236 10.25C14.42 10.25 16.4448 10.004 17.7852 9.76172C17.8343 9.75284 17.8824 9.74226 17.9297 9.7334L19.9268 9.79492L20.7285 9.82031C20.8201 10.1894 20.6185 10.575 20.2529 10.7061L20.252 10.707H20.251L20.2471 10.708L20.2383 10.7119L20.2061 10.7227C20.1796 10.7315 20.1419 10.7437 20.0938 10.7588C19.9972 10.7891 19.8571 10.8314 19.6738 10.8809C19.3064 10.9801 18.7648 11.1095 18.0518 11.2383C16.6255 11.4961 14.5115 11.75 11.7236 11.75C8.9358 11.75 6.95486 11.4958 5.65723 11.2354C5.00866 11.1052 4.53115 10.9732 4.20898 10.8711C4.04809 10.8201 3.92597 10.7765 3.84082 10.7441C3.79832 10.728 3.76452 10.7151 3.74023 10.7051L3.71094 10.6924L3.7002 10.6875L3.69727 10.6865L3.69531 10.6855C3.69536 10.6845 3.70564 10.6592 4 10L3.69434 10.6846C3.31613 10.5157 3.14654 10.0726 3.31543 9.69434ZM19.7471 9.29395C20.1368 9.15462 20.5663 9.35738 20.7061 9.74707L19.9014 9.72559L18.207 9.68066C18.6689 9.58801 19.0277 9.50131 19.2822 9.43262C19.4458 9.38847 19.5671 9.35245 19.6445 9.32812C19.6832 9.31595 19.7114 9.30653 19.7285 9.30078L19.7471 9.29395ZM18.207 9.68066C18.1184 9.69844 18.0259 9.71538 17.9297 9.7334L4.30762 9.31348L18.207 9.68066ZM12 4.25C12.4142 4.25 12.75 4.58579 12.75 5C12.75 5.41421 12.4142 5.75 12 5.75C9.54314 5.75 7.33648 5.91596 5.75977 6.17871C5.16547 6.27776 4.67973 6.38779 4.3125 6.5C4.67973 6.61221 5.16547 6.72224 5.75977 6.82129C7.33648 7.08404 9.54314 7.25 12 7.25C14.4568 7.25 16.6635 7.08404 18.2402 6.82129C18.8344 6.72225 19.3203 6.6122 19.6875 6.5L19.6855 6.49902C19.0511 6.30537 18.1032 6.13039 16.917 5.99805C16.5055 5.95213 16.2092 5.58139 16.2549 5.16992C16.3009 4.75834 16.6714 4.46104 17.083 4.50684C18.3084 4.64354 19.3607 4.83177 20.123 5.06445C20.4988 5.17912 20.8487 5.31818 21.1201 5.49316C21.3524 5.64293 21.75 5.96462 21.75 6.5C21.75 6.93099 21.4873 7.22389 21.291 7.38379C21.0854 7.55126 20.8273 7.67882 20.5674 7.78125C20.04 7.98903 19.3214 8.16174 18.4873 8.30078C16.8067 8.58088 14.5135 8.75 12 8.75C9.48655 8.75 7.1933 8.58088 5.5127 8.30078C4.67847 8.16174 3.95995 7.98903 3.43262 7.78125C3.17268 7.67882 2.9146 7.55126 2.70898 7.38379C2.51272 7.22389 2.25 6.93099 2.25 6.5C2.25 6.06901 2.51272 5.77611 2.70898 5.61621C2.9146 5.44874 3.17268 5.32118 3.43262 5.21875C3.95995 5.01097 4.67847 4.83826 5.5127 4.69922C7.1933 4.41912 9.48655 4.25 12 4.25Z" fill="#1C274C"/>
</svg>
