<svg width="24" height="24" viewBox="0 0 24 24" fill="none" xmlns="http://www.w3.org/2000/svg">
<path d="M16.5 18.25C18.2949 18.25 19.75 19.7051 19.75 21.5V22C19.75 22.4142 19.4142 22.75 19 22.75C18.5858 22.75 18.25 22.4142 18.25 22V21.5C18.25 20.5335 17.4665 19.75 16.5 19.75H7.5C6.5335 19.75 5.75 20.5335 5.75 21.5V22C5.75 22.4142 5.41421 22.75 5 22.75C4.58579 22.75 4.25 22.4142 4.25 22V21.5C4.25 19.7051 5.70508 18.25 7.5 18.25H16.5ZM15.0518 6.75C15.9503 6.74997 16.7001 6.75012 17.2949 6.83008C17.9225 6.91452 18.489 7.1003 18.9443 7.55566C19.3997 8.01102 19.5855 8.57748 19.6699 9.20508C19.7499 9.79986 19.75 10.5497 19.75 11.4482V12.5518C19.75 13.4503 19.7499 14.2001 19.6699 14.7949C19.5855 15.4225 19.3997 15.989 18.9443 16.4443C18.489 16.8997 17.9225 17.0855 17.2949 17.1699C16.7001 17.2499 15.9502 17.25 15.0518 17.25H8.94824C8.04978 17.25 7.29985 17.2499 6.70508 17.1699C6.07748 17.0855 5.51102 16.8997 5.05566 16.4443C4.6003 15.989 4.41452 15.4225 4.33008 14.7949C4.25012 14.2001 4.24997 13.4503 4.25 12.5518V11.4482C4.24997 10.5497 4.25012 9.79986 4.33008 9.20508C4.41452 8.57747 4.6003 8.01102 5.05566 7.55566C5.51102 7.10031 6.07747 6.91452 6.70508 6.83008C7.29986 6.75012 8.04977 6.74997 8.94824 6.75H15.0518ZM9 8.25C8.03599 8.25 7.3883 8.25147 6.90527 8.31641C6.44388 8.37845 6.24652 8.4859 6.11621 8.61621C5.9859 8.74652 5.87845 8.94388 5.81641 9.40527C5.75147 9.88831 5.75 10.536 5.75 11.5V12.5C5.75 13.464 5.75147 14.1117 5.81641 14.5947C5.87845 15.0561 5.98591 15.2535 6.11621 15.3838C6.24652 15.5141 6.44389 15.6215 6.90527 15.6836C7.3883 15.7485 8.03599 15.75 9 15.75H15C15.964 15.75 16.6117 15.7485 17.0947 15.6836C17.5561 15.6215 17.7535 15.5141 17.8838 15.3838C18.0141 15.2535 18.1215 15.0561 18.1836 14.5947C18.2485 14.1117 18.25 13.464 18.25 12.5V11.5C18.25 10.536 18.2485 9.88831 18.1836 9.40527C18.1215 8.94389 18.0141 8.74652 17.8838 8.61621C17.7535 8.48591 17.5561 8.37845 17.0947 8.31641C16.6117 8.25147 15.964 8.25 15 8.25H9ZM19 1.25C19.4142 1.25 19.75 1.58579 19.75 2V2.5C19.75 4.29493 18.2949 5.75 16.5 5.75H7.5C5.70508 5.75 4.25 4.29493 4.25 2.5V2C4.25 1.58579 4.58579 1.25 5 1.25C5.41421 1.25 5.75 1.58579 5.75 2V2.5C5.75 3.4665 6.5335 4.25 7.5 4.25H16.5C17.4665 4.25 18.25 3.4665 18.25 2.5V2C18.25 1.58579 18.5858 1.25 19 1.25Z" fill="#48465C"/>
</svg>
