<svg width="24" height="24" viewBox="0 0 24 24" fill="none" xmlns="http://www.w3.org/2000/svg">
<path d="M5.00757 4.40625C6.68763 2.72634 9.52233 2.85419 10.6921 4.9502L11.3416 6.11328C12.1052 7.48197 11.7799 9.20888 10.6619 10.3408C10.647 10.3612 10.5673 10.4761 10.5574 10.6768C10.5449 10.933 10.6363 11.5261 11.5544 12.4443C12.4726 13.3625 13.0656 13.4538 13.322 13.4414C13.522 13.4317 13.6367 13.3534 13.658 13.3379C14.79 12.2196 16.5177 11.8943 17.8865 12.6582L19.0496 13.3066C21.1456 14.4765 21.2735 17.3121 19.5935 18.9922C18.6949 19.8908 17.4996 20.6889 16.0955 20.7422C14.0146 20.8211 10.5592 20.2839 7.13745 16.8623C3.71576 13.4406 3.17774 9.98525 3.25659 7.9043C3.30982 6.5001 4.10891 5.30491 5.00757 4.40625ZM9.38257 5.68066C8.78341 4.60768 7.17382 4.36124 6.06812 5.4668C5.29277 6.24215 4.78833 7.09817 4.75562 7.96094C4.68983 9.69628 5.11863 12.7224 8.198 15.8018C11.2773 18.8809 14.3035 19.309 16.0388 19.2432C16.9014 19.2103 17.7569 18.7066 18.532 17.9316C19.6379 16.8258 19.3914 15.2162 18.3181 14.6172L17.155 13.9678C16.4317 13.5643 15.4161 13.702 14.7029 14.415C14.6328 14.485 14.1866 14.9009 13.3953 14.9395C12.5851 14.9789 11.6037 14.6147 10.4939 13.5049C9.38392 12.3948 9.01966 11.4137 9.05933 10.6035C9.09815 9.81211 9.51508 9.36653 9.58472 9.29688C10.2978 8.58357 10.4356 7.56708 10.032 6.84375L9.38257 5.68066ZM14.1208 1.25977C14.1461 1.2646 14.2275 1.27956 14.2703 1.28906C14.3555 1.30806 14.4746 1.33769 14.6228 1.38086C14.9195 1.46728 15.3343 1.60985 15.8318 1.83789C16.8281 2.29465 18.1542 3.09393 19.53 4.46973C20.9057 5.84541 21.7051 7.17076 22.1619 8.16699C22.3899 8.6645 22.5324 9.07921 22.6189 9.37598C22.662 9.52418 22.6917 9.64322 22.7107 9.72852C22.7202 9.77105 22.7263 9.80577 22.7312 9.83105L22.7371 9.8623C22.8033 10.2711 22.5287 10.674 22.1199 10.7402C21.7121 10.8062 21.3283 10.5299 21.2605 10.123C21.2584 10.112 21.2521 10.0824 21.2458 10.0547C21.2335 9.99929 21.2123 9.91169 21.1785 9.7959C21.1109 9.56357 20.9937 9.21767 20.7986 8.79199C20.4087 7.94172 19.7071 6.76802 18.4695 5.53027C17.2316 4.29241 16.0571 3.591 15.2068 3.20117C14.7813 3.00614 14.4361 2.88895 14.2039 2.82129C14.0878 2.7875 13.942 2.75358 13.8865 2.74121C13.4796 2.67338 13.1936 2.28758 13.2595 1.87988C13.3257 1.47109 13.7121 1.19376 14.1208 1.25977ZM13.4861 5.3291C13.6 4.931 14.0147 4.70074 14.4128 4.81445H14.4148L14.4158 4.81543L14.4275 4.81836L14.447 4.82422C14.4621 4.82903 14.4812 4.8358 14.5037 4.84375C14.5485 4.85968 14.6079 4.88199 14.6804 4.91309C14.826 4.97551 15.0249 5.07216 15.2693 5.2168C15.7587 5.50643 16.4269 5.98771 17.2117 6.77246C17.9967 7.55744 18.4786 8.22635 18.7683 8.71582C18.9128 8.96005 19.0087 9.1591 19.071 9.30469C19.1022 9.37736 19.1255 9.43656 19.1414 9.48145C19.1494 9.50389 19.1561 9.52301 19.1609 9.53809L19.1667 9.55762L19.1697 9.56934L19.1707 9.57031C19.1707 9.57031 19.1708 9.57235 18.45 9.77832L19.1707 9.57227C19.2842 9.97032 19.054 10.3851 18.656 10.499C18.2611 10.6118 17.8491 10.3862 17.7312 9.99414L17.7273 9.9834C17.722 9.96835 17.7116 9.93858 17.6931 9.89551C17.6561 9.80919 17.5888 9.668 17.4773 9.47949C17.2543 9.10275 16.851 8.53297 16.1511 7.83301C15.4514 7.13336 14.8823 6.73075 14.5056 6.50781C14.3171 6.39625 14.1759 6.329 14.0896 6.29199C14.0464 6.27348 14.0167 6.26217 14.0017 6.25684L13.991 6.25391C13.5989 6.13603 13.3733 5.72399 13.4861 5.3291Z" fill="#48465C"/>
</svg>
