<svg width="24" height="24" viewBox="0 0 24 24" fill="none" xmlns="http://www.w3.org/2000/svg">
<path d="M8.68359 14.4482C10.5494 14.0867 12.5469 14.1679 14.1631 15.1318C14.3901 15.2672 14.6034 15.436 14.7891 15.6445C15.1647 16.0667 15.3591 16.5912 15.3682 17.1172C15.5594 16.9938 15.7508 16.8569 15.9453 16.71L17.7529 15.3447C18.6575 14.6615 19.9723 14.6607 20.877 15.3438C21.7129 15.975 22.0456 17.1082 21.4473 18.0674C21.022 18.7492 20.3814 19.6921 19.7295 20.2959C19.0707 20.9061 18.1331 21.4193 17.4238 21.7617C16.5623 22.1775 15.6313 22.4073 14.7266 22.5537C12.8775 22.853 10.9533 22.8072 9.125 22.4307C8.19061 22.2381 7.21936 22.1377 6.25977 22.1377H4C3.58582 22.1377 3.25 21.8019 3.25 21.3877C3.25024 20.9737 3.58596 20.6377 4 20.6377H6.25977C7.32188 20.6377 8.39455 20.749 9.42773 20.9619C11.0798 21.3023 12.8203 21.343 14.4873 21.0732C15.3161 20.9391 16.0901 20.74 16.7715 20.4111C17.4548 20.0813 18.2229 19.6464 18.71 19.1953C19.2025 18.7391 19.7542 17.9475 20.1748 17.2734C20.3016 17.0699 20.2839 16.7761 19.9727 16.541C19.6028 16.262 19.0259 16.2619 18.6562 16.541L16.8496 17.9062C16.1281 18.4512 15.2401 19.0344 14.1387 19.21C14.0275 19.2277 13.912 19.2445 13.792 19.2588C13.7347 19.2691 13.6749 19.276 13.6133 19.2783C13.0511 19.3342 12.4 19.3472 11.6816 19.2793C11.2693 19.2404 10.966 18.8743 11.0049 18.4619C11.0439 18.0495 11.41 17.7471 11.8223 17.7861C12.4497 17.8453 13.0127 17.8322 13.4902 17.7832C13.4999 17.7822 13.5099 17.7813 13.5195 17.7803C13.5395 17.7687 13.5695 17.7469 13.6094 17.7119C13.9289 17.4331 13.9572 16.9665 13.668 16.6416C13.5947 16.5594 13.5045 16.4855 13.3945 16.4199C12.2135 15.7156 10.6365 15.598 8.96973 15.9209C7.3122 16.242 5.66464 16.9815 4.43359 17.8545C4.09584 18.0938 3.6283 18.0142 3.38867 17.6768C3.14906 17.3389 3.22854 16.8706 3.56641 16.6309C4.96466 15.6394 6.80848 14.8116 8.68359 14.4482ZM12 2.13672C13.1612 1.2915 14.464 1.04334 15.583 1.41992C16.895 1.86147 17.75 3.09632 17.75 4.71484C17.7499 5.73222 17.1718 6.66889 16.5273 7.41602C15.8647 8.18414 15.0256 8.87344 14.292 9.4082C14.2607 9.43107 14.2291 9.454 14.1982 9.47656C13.4864 9.99668 12.8989 10.4258 12 10.4258C11.101 10.4257 10.5136 9.9967 9.80176 9.47656C9.77086 9.45399 9.73941 9.43109 9.70801 9.4082C8.97442 8.87344 8.1353 8.18414 7.47266 7.41602C6.82817 6.6689 6.25013 5.73219 6.25 4.71484C6.25 3.09637 7.10502 1.8615 8.41699 1.41992C9.53597 1.04334 10.8388 1.29158 12 2.13672ZM15.1045 2.8418C14.4524 2.62238 13.4804 2.76426 12.5078 3.6582C12.2208 3.92197 11.7792 3.92197 11.4922 3.6582C10.5196 2.7643 9.54753 2.62237 8.89551 2.8418C8.27008 3.05233 7.75 3.65628 7.75 4.71484C7.75014 5.18235 8.03522 5.76998 8.60938 6.43555C9.16567 7.08039 9.90158 7.69315 10.5918 8.19629C11.4345 8.81063 11.6351 8.92576 12 8.92578C12.3648 8.92578 12.5654 8.81064 13.4082 8.19629C14.0984 7.69315 14.8353 7.08039 15.3916 6.43555C15.9655 5.77016 16.2499 5.18226 16.25 4.71484C16.25 3.65621 15.7299 3.05229 15.1045 2.8418Z" fill="#48465C"/>
</svg>
