<svg width="24" height="24" viewBox="0 0 24 24" fill="none" xmlns="http://www.w3.org/2000/svg">
<path d="M8.68359 14.4484C10.5494 14.0869 12.5469 14.168 14.1631 15.132C14.3901 15.2674 14.6034 15.4361 14.7891 15.6446C15.1647 16.0668 15.3591 16.5913 15.3682 17.1173C15.5594 16.994 15.7508 16.857 15.9453 16.7101L17.7529 15.3448C18.6575 14.6616 19.9723 14.6608 20.877 15.3439C21.7129 15.9751 22.0456 17.1083 21.4473 18.0675C21.022 18.7493 20.3814 19.6922 19.7295 20.296C19.0707 20.9062 18.1331 21.4194 17.4238 21.7618C16.5623 22.1776 15.6313 22.4074 14.7266 22.5538C12.8775 22.8531 10.9533 22.8074 9.125 22.4308C8.19061 22.2382 7.21936 22.1378 6.25977 22.1378H4C3.58582 22.1378 3.25 21.802 3.25 21.3878C3.25024 20.9738 3.58596 20.6378 4 20.6378H6.25977C7.32188 20.6378 8.39455 20.7491 9.42773 20.962C11.0798 21.3024 12.8203 21.3432 14.4873 21.0734C15.3161 20.9392 16.0901 20.7401 16.7715 20.4112C17.4548 20.0814 18.2229 19.6465 18.71 19.1954C19.2025 18.7392 19.7542 17.9477 20.1748 17.2736C20.3016 17.0701 20.2839 16.7762 19.9727 16.5411C19.6028 16.2621 19.0259 16.262 18.6562 16.5411L16.8496 17.9064C16.1281 18.4513 15.2401 19.0345 14.1387 19.2101C14.0275 19.2279 13.912 19.2446 13.792 19.2589C13.7347 19.2692 13.6749 19.2761 13.6133 19.2784C13.0511 19.3343 12.4 19.3473 11.6816 19.2794C11.2693 19.2405 10.966 18.8744 11.0049 18.462C11.0439 18.0496 11.41 17.7472 11.8223 17.7862C12.4497 17.8454 13.0127 17.8323 13.4902 17.7833C13.4999 17.7823 13.5099 17.7814 13.5195 17.7804C13.5395 17.7688 13.5695 17.747 13.6094 17.712C13.9289 17.4332 13.9572 16.9666 13.668 16.6417C13.5947 16.5595 13.5045 16.4856 13.3945 16.42C12.2135 15.7157 10.6365 15.5981 8.96973 15.921C7.3122 16.2421 5.66464 16.9816 4.43359 17.8546C4.09584 18.0939 3.6283 18.0143 3.38867 17.6769C3.14906 17.339 3.22854 16.8707 3.56641 16.631C4.96466 15.6395 6.80848 14.8117 8.68359 14.4484ZM12 2.13683C13.1612 1.29162 14.464 1.04345 15.583 1.42004C16.895 1.86158 17.75 3.09644 17.75 4.71496C17.7499 5.73234 17.1718 6.66901 16.5273 7.41613C15.8647 8.18425 15.0256 8.87356 14.292 9.40832C14.2607 9.43119 14.2291 9.45412 14.1982 9.47668C13.4864 9.9968 12.8989 10.4259 12 10.4259C11.101 10.4259 10.5136 9.99682 9.80176 9.47668C9.77086 9.4541 9.73941 9.4312 9.70801 9.40832C8.97442 8.87356 8.1353 8.18425 7.47266 7.41613C6.82817 6.66901 6.25013 5.73231 6.25 4.71496C6.25 3.09648 7.10502 1.86162 8.41699 1.42004C9.53597 1.04346 10.8388 1.2917 12 2.13683ZM15.1045 2.84191C14.4524 2.6225 13.4804 2.76438 12.5078 3.65832C12.2208 3.92209 11.7792 3.92209 11.4922 3.65832C10.5196 2.76442 9.54753 2.62249 8.89551 2.84191C8.27008 3.05244 7.75 3.65639 7.75 4.71496C7.75014 5.18247 8.03522 5.7701 8.60938 6.43566C9.16566 7.0805 9.90158 7.69326 10.5918 8.1964C11.4345 8.81074 11.6351 8.92587 12 8.9259C12.3648 8.9259 12.5654 8.81076 13.4082 8.1964C14.0984 7.69326 14.8353 7.0805 15.3916 6.43566C15.9655 5.77028 16.2499 5.18237 16.25 4.71496C16.25 3.65633 15.7299 3.0524 15.1045 2.84191Z" fill="#1C274C"/>
</svg>
