<svg width="24" height="24" viewBox="0 0 24 24" fill="none" xmlns="http://www.w3.org/2000/svg">
<path d="M3.34766 11.6931C3.43614 11.6663 3.52355 11.6641 3.61328 11.6863C3.74556 11.7192 3.86615 11.8371 4.10645 12.073L12.0166 19.8376C12.3695 20.1841 12.5459 20.3576 12.5381 20.5779C12.5302 20.7982 12.351 20.9505 11.9932 21.2546C11.4086 21.7514 10.9562 21.9998 10.4424 21.9998C9.6063 21.9996 8.93352 21.3418 7.58789 20.0261L4.01855 16.5369C2.6727 15.2211 2 14.5625 2 13.7449C2.00014 13.2085 2.28985 12.7409 2.86914 12.1111C3.10117 11.8589 3.21727 11.7328 3.34766 11.6931ZM7.21289 2.00073C8.66735 1.97886 9.91463 3.1515 10.334 4.77905L10.7998 4.32397C13.3621 1.81921 17.5159 1.81912 20.0781 4.32397C22.6404 6.82916 22.6403 10.891 20.0781 13.3962L14.5254 18.8259C14.1946 19.1494 14.0283 19.3115 13.8242 19.3113C13.6202 19.3109 13.455 19.1488 13.125 18.825L4.33691 10.198C4.18411 10.048 4.10736 9.97281 4.06836 9.87866C4.02939 9.78446 4.03099 9.67496 4.0332 9.45679L4.06641 5.99976C4.0321 3.81788 5.44081 2.02743 7.21289 2.00073Z" fill="#48465C"/>
</svg>
