<svg width="24" height="24" viewBox="0 0 24 24" fill="none" xmlns="http://www.w3.org/2000/svg">
<path d="M7.20215 1.25049C8.69924 1.22814 9.93511 2.16334 10.626 3.46729C13.4957 1.00277 17.8628 1.10911 20.6025 3.7876C23.4657 6.58701 23.4657 11.1336 20.6025 13.9331L13.7852 20.5981C13.1438 21.2253 12.6085 21.7488 12.127 22.1079C11.6185 22.4871 11.0851 22.7495 10.4424 22.7495C9.79967 22.7495 9.26629 22.4872 8.75781 22.1079C8.2764 21.7488 7.742 21.2253 7.10059 20.5981L3.45703 17.0366C2.81597 16.4098 2.28078 15.8867 1.91309 15.4155C1.52547 14.9188 1.25009 14.3894 1.25 13.7456C1.25 12.9037 1.72251 12.2498 2.31738 11.603C2.61915 11.275 2.82234 11.054 2.96875 10.8735C3.11202 10.697 3.16583 10.6004 3.19238 10.5337C3.26222 10.3582 3.27634 10.1481 3.28418 9.3335L3.31641 6.00146C3.28244 3.56237 4.8804 1.28539 7.20215 1.25049ZM7.22461 2.75049C6.00524 2.76882 4.7862 4.06679 4.81641 5.98779V5.99658L4.78418 9.34814C4.78381 9.38666 4.78353 9.4248 4.7832 9.4624C4.77763 10.1055 4.77358 10.6191 4.58691 11.0884C4.47973 11.3578 4.31931 11.5902 4.13379 11.8188C3.95453 12.0396 3.71878 12.2953 3.43652 12.6021L3.4209 12.6187C2.85688 13.2319 2.75 13.5146 2.75 13.7456C2.75007 13.9192 2.81083 14.1275 3.0957 14.4927C3.3938 14.8747 3.85481 15.3276 4.54297 16.0005L8.1123 19.4897C8.80018 20.1623 9.26297 20.6138 9.6543 20.9058C10.0276 21.1842 10.2491 21.2495 10.4424 21.2495C10.6356 21.2495 10.8572 21.1841 11.2305 20.9058C11.6219 20.6138 12.0854 20.1624 12.7734 19.4897L19.5537 12.8599C21.815 10.6489 21.815 7.07186 19.5537 4.86084C17.2829 2.64061 13.595 2.64063 11.3242 4.86084L9.89648 6.25635C9.60042 6.54583 9.12555 6.54049 8.83594 6.24463C8.54642 5.94853 8.55169 5.47368 8.84766 5.18408L9.48145 4.56396C9.04506 3.40814 8.13154 2.73699 7.22461 2.75049ZM5.98047 12.8726C6.26997 12.5764 6.74483 12.5705 7.04102 12.8599L11.3242 17.0474C11.6201 17.3369 11.6253 17.8118 11.3359 18.1079C11.0464 18.4041 10.5715 18.4092 10.2754 18.1196L5.99219 13.9331C5.69615 13.6436 5.69123 13.1687 5.98047 12.8726Z" fill="#1C274C"/>
</svg>
