<svg width="24" height="24" viewBox="0 0 24 24" fill="none" xmlns="http://www.w3.org/2000/svg">
<path d="M12 1.25C12.9374 1.25 13.8327 1.5563 15.2764 2.05078L16.0039 2.2998C17.4853 2.80687 18.6289 3.19878 19.4473 3.53125C19.8593 3.69867 20.2137 3.86067 20.499 4.02637C20.7737 4.18583 21.0491 4.38474 21.2363 4.65137C21.4212 4.91487 21.517 5.23893 21.5771 5.55078C21.6396 5.87503 21.6778 6.26438 21.7021 6.71094C21.7504 7.59795 21.75 8.81353 21.75 10.3896V11.9912C21.75 18.0922 17.1417 21.0177 14.4014 22.2148L14.374 22.2266C14.0346 22.375 13.7154 22.5144 13.3486 22.6084C12.9611 22.7076 12.5493 22.75 12 22.75C11.4507 22.75 11.0389 22.7076 10.6514 22.6084C10.2845 22.5144 9.96473 22.375 9.625 22.2266L9.59863 22.2148C6.85833 21.0177 2.25 18.0922 2.25 11.9912V10.3896C2.25 8.81356 2.24955 7.59794 2.29785 6.71094C2.32217 6.26438 2.36037 5.87503 2.42285 5.55078C2.48298 5.23893 2.57873 4.91487 2.76367 4.65137C2.95086 4.38474 3.22638 4.18583 3.50098 4.02637C3.78628 3.86068 4.14064 3.69867 4.55273 3.53125C5.3711 3.19878 6.51476 2.80686 7.99609 2.2998L8.72363 2.05078C10.1674 1.55631 11.0626 1.25 12 1.25ZM12 2.75C11.3423 2.75 10.6953 2.96206 9.08105 3.51465L8.50781 3.70996C6.99522 4.22773 5.8917 4.60626 5.11719 4.9209C4.73081 5.07787 4.45045 5.2091 4.25391 5.32324C4.15697 5.37955 4.09054 5.42661 4.0459 5.46289C4.00803 5.49367 3.99328 5.51113 3.99121 5.51367C3.98898 5.51733 3.9762 5.53857 3.95898 5.58691C3.93904 5.64299 3.91702 5.72334 3.89551 5.83496C3.85184 6.06159 3.81876 6.37306 3.7959 6.79297C3.7501 7.63415 3.75 8.80866 3.75 10.417V11.9912C3.75 17.1663 7.62032 19.7133 10.1992 20.8398C10.5705 21.002 10.7848 21.0942 11.0234 21.1553C11.2515 21.2137 11.53 21.25 12 21.25C12.47 21.25 12.7485 21.2137 12.9766 21.1553C13.2152 21.0942 13.4295 21.002 13.8008 20.8398C16.3797 19.7133 20.25 17.1663 20.25 11.9912V10.417C20.25 8.80866 20.2499 7.63415 20.2041 6.79297C20.1813 6.37306 20.1482 6.06159 20.1045 5.83496C20.083 5.72333 20.061 5.64299 20.041 5.58691C20.0238 5.5386 20.011 5.51735 20.0088 5.51367C20.0067 5.51111 19.992 5.49365 19.9541 5.46289C19.9095 5.42661 19.8431 5.37955 19.7461 5.32324C19.5496 5.2091 19.2692 5.07787 18.8828 4.9209C18.1083 4.60626 17.0048 4.22773 15.4922 3.70996L14.9189 3.51465C13.3047 2.96207 12.6577 2.75 12 2.75ZM10.125 7.25293C10.8552 6.83132 11.6711 6.68302 12.4492 6.77734C13.5777 6.91422 14.6335 7.56247 15.2471 8.625C15.8607 9.68778 15.8941 10.9269 15.4482 11.9727C15.1409 12.6936 14.6051 13.3255 13.875 13.7471C13.5154 13.9547 13.1356 14.0961 12.75 14.1748V16.5C12.75 16.9143 12.4142 17.25 12 17.25C11.5858 17.25 11.25 16.9143 11.25 16.5V14.1738C10.2357 13.9663 9.31137 13.3421 8.75293 12.375C7.71758 10.5817 8.3318 8.2884 10.125 7.25293ZM12.2686 8.2666C11.8019 8.21003 11.3143 8.29812 10.875 8.55176C9.79917 9.17299 9.43058 10.5492 10.0518 11.625C10.673 12.7008 12.049 13.0693 13.125 12.4482C13.5641 12.1946 13.8839 11.8169 14.0684 11.3848C14.3372 10.7542 14.316 10.0119 13.9482 9.375C13.5806 8.73819 12.9489 8.34912 12.2686 8.2666Z" fill="#1C274C"/>
</svg>
