<svg width="24" height="24" viewBox="0 0 24 24" fill="none" xmlns="http://www.w3.org/2000/svg">
<path d="M12 2C17.5228 2 22 6.47715 22 12C22 17.5228 17.5228 22 12 22C10.4003 22 8.88867 21.6239 7.54785 20.9561C7.19153 20.7787 6.78395 20.7203 6.39941 20.8232L4.17383 21.4189C3.20767 21.6774 2.32296 20.7932 2.58105 19.8271L3.17676 17.6006C3.27965 17.2161 3.22143 16.8084 3.04395 16.4521C2.37613 15.1113 2 13.5997 2 12C2 6.47715 6.47715 2 12 2ZM12 7.25C11.5858 7.25 11.25 7.58579 11.25 8V8.00977C10.1613 8.28405 9.25015 9.14286 9.25 10.333C9.25 11.79 10.6151 12.75 12 12.75C12.8242 12.75 13.25 13.2829 13.25 13.667C13.2498 14.051 12.824 14.583 12 14.583C11.176 14.583 10.7502 14.051 10.75 13.667C10.75 13.2528 10.4142 12.917 10 12.917C9.58579 12.917 9.25 13.2528 9.25 13.667C9.25015 14.8571 10.1613 15.716 11.25 15.9902V16C11.25 16.4142 11.5858 16.75 12 16.75C12.4142 16.75 12.75 16.4142 12.75 16V15.9902C13.8387 15.716 14.7499 14.8571 14.75 13.667C14.75 12.21 13.3849 11.25 12 11.25C11.1758 11.25 10.75 10.7171 10.75 10.333C10.7502 9.94903 11.176 9.41699 12 9.41699C12.824 9.41699 13.2498 9.94903 13.25 10.333C13.25 10.7472 13.5858 11.083 14 11.083C14.4142 11.083 14.75 10.7472 14.75 10.333C14.7499 9.14286 13.8387 8.28405 12.75 8.00977V8C12.75 7.58579 12.4142 7.25 12 7.25Z" fill="#1C274C"/>
</svg>
