<svg width="24" height="24" viewBox="0 0 24 24" fill="none" xmlns="http://www.w3.org/2000/svg">
<path d="M14.6807 2.32202C15.0553 2.14571 15.5022 2.30588 15.6787 2.68042C15.8551 3.05521 15.6941 3.5021 15.3193 3.67847L10.3867 5.99976H14C17.7711 5.99976 19.6566 6.00016 20.8281 7.17163C21.9997 8.34318 22 10.2287 22 13.9998C22 17.771 21.9997 19.6574 20.8281 20.8289C19.6566 22.0001 17.7708 21.9998 14 21.9998H10C6.22918 21.9998 4.34348 22.0001 3.17188 20.8289C2.00031 19.6574 2 17.771 2 13.9998C2 10.2287 2.00033 8.34319 3.17188 7.17163C3.94591 6.39768 5.03142 6.13478 6.7666 6.04565L14.6807 2.32202ZM7.5 14.7498C6.25743 14.7498 5.25012 15.7573 5.25 16.9998C5.25 18.2424 6.25736 19.2498 7.5 19.2498C8.74264 19.2498 9.75 18.2424 9.75 16.9998C9.74988 15.7573 8.74257 14.7498 7.5 14.7498ZM7.5 16.2498C7.91414 16.2498 8.24988 16.5857 8.25 16.9998C8.25 17.414 7.91421 17.7498 7.5 17.7498C7.08579 17.7498 6.75 17.414 6.75 16.9998C6.75012 16.5857 7.08586 16.2498 7.5 16.2498ZM13 16.2498C12.5859 16.2498 12.2501 16.5857 12.25 16.9998C12.25 17.414 12.5858 17.7498 13 17.7498H18C18.4142 17.7498 18.75 17.414 18.75 16.9998C18.7499 16.5857 18.4141 16.2498 18 16.2498H13ZM7 8.24976C5.48129 8.24976 4.25012 9.48108 4.25 10.9998C4.25 12.5186 5.48122 13.7498 7 13.7498H17C18.5188 13.7498 19.75 12.5186 19.75 10.9998C19.7499 9.48108 18.5187 8.24976 17 8.24976H7ZM17 9.74976C17.6903 9.74976 18.2499 10.3095 18.25 10.9998C18.25 11.6902 17.6904 12.2498 17 12.2498H15.75V11.4998C15.7499 11.0857 15.4141 10.7498 15 10.7498C14.5859 10.7498 14.2501 11.0857 14.25 11.4998V12.2498H7C6.30964 12.2498 5.75 11.6902 5.75 10.9998C5.75012 10.3095 6.30971 9.74976 7 9.74976H17Z" fill="#1C274C"/>
</svg>
