<svg width="24" height="24" viewBox="0 0 24 24" fill="none" xmlns="http://www.w3.org/2000/svg">
<path d="M19.1975 2.48047C20.2451 2.01337 21.3284 2.29963 22.0129 2.95312C22.7031 3.61219 23.0219 4.68882 22.4709 5.7207L19.3186 11.624C19.1914 11.8623 19.1915 12.1377 19.3186 12.376L22.4709 18.2803C23.0218 19.3122 22.7032 20.3888 22.0129 21.0479C21.3284 21.7013 20.2451 21.9875 19.1975 21.5205L2.68774 14.1582C0.771276 13.3035 0.771276 10.6974 2.68774 9.84277L19.1975 2.48047ZM20.9768 4.03809C20.6968 3.77084 20.2561 3.65074 19.8079 3.85059L3.2981 11.2129C2.5674 11.539 2.56729 12.4621 3.2981 12.7881L19.8079 20.1504C20.2559 20.3502 20.6968 20.23 20.9768 19.9629C21.2509 19.7012 21.3377 19.3421 21.1477 18.9863L17.9954 13.083C17.6324 12.4032 17.6325 11.5978 17.9954 10.918L21.1477 5.01367C21.3375 4.65798 21.2508 4.29976 20.9768 4.03809Z" fill="#48465C"/>
</svg>
