<svg width="24" height="24" viewBox="0 0 24 24" fill="none" xmlns="http://www.w3.org/2000/svg">
<path d="M19.1974 2.48047C20.2451 2.01331 21.3282 2.29961 22.0128 2.95312C22.7031 3.61218 23.0218 4.68879 22.4708 5.7207L19.3185 11.624C19.1913 11.8623 19.1914 12.1377 19.3185 12.376L22.4708 18.2803C23.0217 19.3122 22.7031 20.3888 22.0128 21.0479C21.3283 21.7012 20.245 21.9875 19.1974 21.5205L2.68762 14.1582C0.771154 13.3035 0.771154 10.6974 2.68762 9.84277L19.1974 2.48047ZM20.9767 4.03809C20.6967 3.77089 20.2559 3.65076 19.8077 3.85059L3.29797 11.2129C2.5674 11.539 2.56731 12.462 3.29797 12.7881L19.8077 20.1504C20.2558 20.3502 20.6967 20.23 20.9767 19.9629C21.2508 19.7012 21.3376 19.3421 21.1476 18.9863L17.9952 13.083C17.6323 12.4032 17.6324 11.5978 17.9952 10.918L21.1476 5.01367C21.3374 4.65797 21.2507 4.29977 20.9767 4.03809Z" fill="#1C274C"/>
</svg>
