<svg width="24" height="24" viewBox="0 0 24 24" fill="none" xmlns="http://www.w3.org/2000/svg">
<path fill-rule="evenodd" clip-rule="evenodd" d="M9.50879 3.211C10.9296 1.94805 13.0703 1.94807 14.4912 3.211L20.4912 8.54401C21.2917 9.25559 21.7499 10.2757 21.75 11.3467V21.2501H22C22.4142 21.2501 22.75 21.5859 22.75 22.0001C22.7498 22.4141 22.4141 22.7501 22 22.7501H2C1.58589 22.7501 1.25017 22.4141 1.25 22.0001C1.25 21.5859 1.58579 21.2501 2 21.2501H2.25V11.3467C2.25006 10.2757 2.70825 9.25559 3.50879 8.54401L9.50879 3.211ZM13.4951 4.33209C12.6426 3.57432 11.3574 3.57432 10.5049 4.33209L4.50488 9.6651C4.02463 10.092 3.75006 10.7042 3.75 11.3467V21.2501H5.25V15.9473C5.24997 15.049 5.25012 14.2998 5.33008 13.7051C5.41449 13.0775 5.60032 12.5111 6.05566 12.0557C6.51101 11.6003 7.07749 11.4146 7.70508 11.3301C8.29986 11.2502 9.04975 11.2501 9.94824 11.2501H14.0518C14.9503 11.2501 15.7001 11.2502 16.2949 11.3301C16.9225 11.4146 17.4891 11.6003 17.9443 12.0557C18.3997 12.5111 18.5855 13.0775 18.6699 13.7051C18.7499 14.2998 18.75 15.049 18.75 15.9473V21.2501H20.25V11.3467C20.2499 10.7042 19.9754 10.092 19.4951 9.6651L13.4951 4.33209ZM10 12.7501C9.03599 12.7501 8.38831 12.7516 7.90527 12.8165C7.44392 12.8786 7.24651 12.986 7.11621 13.1163C6.98596 13.2466 6.87842 13.444 6.81641 13.9053C6.75148 14.3883 6.75 15.0362 6.75 16.0001V21.2501H17.25V16.0001C17.25 15.0362 17.2485 14.3883 17.1836 13.9053C17.1215 13.444 17.014 13.2466 16.8838 13.1163C16.7535 12.986 16.5561 12.8786 16.0947 12.8165C15.6117 12.7516 14.964 12.7501 14 12.7501H10ZM15 17.7501C15.4142 17.7501 15.75 18.0859 15.75 18.5001C15.7498 18.9141 15.4141 19.2501 15 19.2501H9C8.58589 19.2501 8.25017 18.9141 8.25 18.5001C8.25 18.0859 8.58579 17.7501 9 17.7501H15ZM15 14.7501C15.4142 14.7501 15.75 15.0859 15.75 15.5001C15.7498 15.9141 15.4141 16.2501 15 16.2501H9C8.58589 16.2501 8.25017 15.9141 8.25 15.5001C8.25 15.0859 8.58579 14.7501 9 14.7501H15ZM14 8.25006C14.4142 8.25006 14.75 8.58584 14.75 9.00006C14.7498 9.41413 14.4141 9.75006 14 9.75006H10C9.58589 9.75006 9.25016 9.41413 9.25 9.00006C9.25 8.58584 9.58579 8.25006 10 8.25006H14Z" fill="#1C274C"/>
</svg>
