<svg width="24" height="24" viewBox="0 0 24 24" fill="none" xmlns="http://www.w3.org/2000/svg">
<path d="M5.26171 3.6084C6.13615 2.68813 7.61006 2.83052 8.37303 3.90918L9.63378 5.69336C10.2502 6.56518 10.184 7.75905 9.47753 8.50293L9.19042 8.80469C9.19042 8.80469 8.10848 9.9446 11.0635 13.0557C14.0019 16.1493 15.0885 15.0398 15.1006 15.0273L15.5566 14.5479C16.1862 13.8852 17.1672 13.7484 17.9726 14.2119L19.8828 15.3115C21.1097 16.0177 21.3808 17.7493 20.4219 18.7588L19.001 20.2539C18.6398 20.6342 18.1912 20.912 17.6758 20.9629C16.046 21.1236 12.0617 20.9459 7.81542 16.4756C3.81077 12.2594 3.09307 8.64534 3.00292 6.96582C2.96772 6.30938 3.2578 5.71723 3.69139 5.26074L5.26171 3.6084ZM19 4.25C19.4142 4.25002 19.75 4.5858 19.75 5V8C19.75 8.4142 19.4142 8.74997 19 8.75C18.5858 8.75 18.25 8.41421 18.25 8V6.81055L15.5303 9.53027C15.2374 9.82316 14.7626 9.82315 14.4697 9.53027C14.1768 9.23738 14.1768 8.76262 14.4697 8.46973L17.1894 5.75H16C15.5858 5.75 15.25 5.41421 15.25 5C15.25 4.58579 15.5858 4.25 16 4.25H19Z" fill="#1C274C"/>
</svg>
