<svg width="24" height="24" viewBox="0 0 24 24" fill="none" xmlns="http://www.w3.org/2000/svg">
<path d="M13 4C16.7713 4 18.6565 4.00034 19.8281 5.17188C20.8505 6.19434 20.9815 7.76039 20.998 10.6494V12.2666C21.3781 12.4854 21.6779 12.8248 21.8477 13.2344C21.9999 13.602 22 14.0681 22 15C22 15.9319 21.9999 16.398 21.8477 16.7656C21.6447 17.2554 21.2554 17.6447 20.7656 17.8477C20.5132 17.9522 20.2142 17.9849 19.75 17.9951V20C19.75 20.4142 19.4142 20.75 19 20.75C18.5858 20.75 18.25 20.4142 18.25 20V18H5.75V20C5.75 20.4142 5.41421 20.75 5 20.75C4.58579 20.75 4.25 20.4142 4.25 20V17.9951C3.78581 17.9849 3.48676 17.9522 3.23438 17.8477C2.74453 17.6447 2.35532 17.2554 2.15234 16.7656C2.0001 16.398 2 15.9319 2 15C2 14.0681 2.0001 13.602 2.15234 13.2344C2.32206 12.8248 2.62188 12.4855 3.00195 12.2666V10.6494C3.01851 7.76041 3.14942 6.19435 4.17188 5.17188C5.34344 4.00031 7.22879 4 11 4H13ZM9.44824 5.75C8.54976 5.74997 7.79986 5.75012 7.20508 5.83008C6.57748 5.91452 6.01101 6.10031 5.55566 6.55566C5.10031 7.01102 4.91451 7.57748 4.83008 8.20508C4.75011 8.79986 4.74997 9.54976 4.75 10.4482V12H19.25V10.4482C19.2501 9.54979 19.2499 8.79984 19.1699 8.20508C19.0855 7.57747 18.8996 7.01102 18.4443 6.55566C17.9889 6.10032 17.4225 5.91451 16.7949 5.83008C16.2001 5.75012 15.4503 5.74997 14.5518 5.75H9.44824ZM11.25 10.5H6.25C6.25 9.53599 6.25147 8.88831 6.31641 8.40527C6.37846 7.94388 6.4859 7.74652 6.61621 7.61621C6.74651 7.4859 6.94388 7.37845 7.40527 7.31641C7.88831 7.25147 8.53599 7.25 9.5 7.25H11.25V10.5ZM14.5 7.25C15.464 7.25 16.1117 7.25147 16.5947 7.31641C17.0561 7.37845 17.2535 7.48591 17.3838 7.61621C17.5141 7.74652 17.6216 7.94389 17.6836 8.40527C17.7485 8.88831 17.75 9.53599 17.75 10.5H12.75V7.25H14.5Z" fill="#48465C"/>
</svg>
