<svg width="24" height="24" viewBox="0 0 24 24" fill="none" xmlns="http://www.w3.org/2000/svg">
<path d="M20 10C21.1046 10 22 10.8954 22 12V14.4443C22 15.5283 21.5149 16.4992 20.75 17.1514V19C20.75 19.4142 20.4142 19.75 20 19.75C19.5858 19.75 19.25 19.4142 19.25 19V17.9082C18.9912 17.9681 18.7214 18 18.4443 18H5.55566C5.27859 18 5.00883 17.9681 4.75 17.9082V19C4.75 19.4142 4.41421 19.75 4 19.75C3.58579 19.75 3.25 19.4142 3.25 19V17.1514C2.48508 16.4992 2 15.5283 2 14.4443V12C2 10.8954 2.89543 10 4 10C5.10457 10 6 10.8954 6 12V13.2002C6.00011 13.6418 6.35813 13.9999 6.7998 14H17.2002C17.6418 13.9999 17.9999 13.6418 18 13.2002V12C18 10.8954 18.8954 10 20 10ZM15 5C15.9292 5 16.3939 5.00031 16.7803 5.07715C18.367 5.39278 19.6073 6.63297 19.9229 8.21973C19.9654 8.43387 19.9847 8.672 19.9932 9C18.3395 9.0037 17 10.3454 17 12V13H7V12C7 10.3454 5.66056 9.00367 4.00684 9C4.0153 8.672 4.03455 8.43387 4.07715 8.21973C4.39278 6.63297 5.63297 5.39278 7.21973 5.07715C7.60611 5.00029 8.07071 5 9 5H15Z" fill="#48465C"/>
</svg>
