<svg width="24" height="24" viewBox="0 0 24 24" fill="none" xmlns="http://www.w3.org/2000/svg">
<path d="M10 5.25024C14.8325 5.25024 18.75 9.16774 18.75 14.0002C18.7498 18.8326 14.8324 22.7502 10 22.7502C5.16763 22.7502 1.2502 18.8326 1.25 14.0002C1.25 9.16774 5.16751 5.25024 10 5.25024ZM3.29004 16.7502C4.37337 19.3904 6.96948 21.2502 10 21.2502C12.5605 21.2502 14.8107 19.9223 16.1006 17.9182C14.9906 18.3625 13.5326 18.7502 11.8193 18.7502C10.4152 18.7502 9.33671 18.4231 8.4707 18.0618C8.13768 17.9228 7.82861 17.7752 7.55957 17.6467C7.48777 17.6124 7.41832 17.5792 7.35254 17.5481C7.02448 17.3934 6.77702 17.2864 6.55957 17.2268C5.53559 16.9465 4.64391 16.8284 4.0127 16.7805C3.70315 16.757 3.45718 16.7509 3.29004 16.7502ZM16.7383 11.7502C16.5848 11.7508 16.3552 11.7568 16.0645 11.7805C15.482 11.828 14.6579 11.9446 13.7109 12.2229C13.5167 12.28 13.2923 12.3844 12.9863 12.5393C12.9255 12.5701 12.8615 12.6029 12.7949 12.637C12.5441 12.7655 12.2537 12.914 11.9414 13.054C11.1282 13.4181 10.1101 13.7502 8.78418 13.7502C6.89087 13.7502 5.33042 13.2106 4.24707 12.675C3.73727 12.423 3.32979 12.1696 3.03809 11.97C2.85062 12.6141 2.75 13.2956 2.75 14.0002C2.75002 14.4327 2.78775 14.8563 2.86035 15.2678C2.89183 15.2619 2.92421 15.2579 2.95703 15.2561H2.9668L2.98633 15.2551C3.00217 15.2545 3.02405 15.253 3.05176 15.2522C3.10725 15.2507 3.18612 15.2499 3.28613 15.2502C3.48632 15.2509 3.77245 15.2584 4.12695 15.2854C4.83519 15.3392 5.82267 15.4706 6.95508 15.7805C7.31113 15.878 7.66343 16.0366 7.99219 16.1917C8.0696 16.2281 8.14692 16.2644 8.22363 16.301C8.48855 16.4275 8.7539 16.554 9.04883 16.677C9.78762 16.9853 10.6663 17.2502 11.8193 17.2502C13.964 17.2502 15.6543 16.5495 16.6387 16.009C16.7515 15.947 16.8738 15.9172 16.9941 15.9163C17.161 15.3059 17.25 14.6635 17.25 14.0002C17.25 13.2153 17.1252 12.459 16.8945 11.7512C16.8579 11.7502 16.8053 11.75 16.7383 11.7502ZM10 6.75024C7.24717 6.75024 4.8527 8.2841 3.625 10.5442C3.68027 10.5863 3.75193 10.6403 3.83984 10.7014C4.08302 10.8706 4.4461 11.1 4.91211 11.3303C5.84589 11.7921 7.17778 12.2502 8.78418 12.2502C9.84043 12.2502 10.6462 11.9902 11.3281 11.6848C11.6008 11.5626 11.8453 11.4371 12.0918 11.3108C12.1635 11.2741 12.2359 11.2372 12.3086 11.2004C12.6145 11.0456 12.9491 10.8844 13.2891 10.7844C14.3508 10.4725 15.2772 10.3397 15.9424 10.2854C16.0391 10.2775 16.1303 10.2717 16.2158 10.2668C14.9475 8.1598 12.6385 6.75024 10 6.75024ZM20.5303 4.04419C20.8823 4.94859 20.5315 6.00001 19.665 6.50024C18.7988 7.00029 17.7137 6.77851 17.1064 6.02173C17.5614 5.8952 18.2188 5.60244 18.915 5.20044C19.6113 4.79847 20.1932 4.37497 20.5303 4.04419ZM16.7998 5.49146C16.8364 5.5855 16.8815 5.67772 16.9336 5.76782C16.9856 5.85791 17.0433 5.94301 17.1064 6.02173C16.7801 6.11248 16.5576 6.11771 16.5 6.01782C16.4425 5.91797 16.5583 5.72848 16.7998 5.49146ZM17.665 3.0354C18.5314 2.53537 19.6164 2.75725 20.2236 3.51392C19.7686 3.64047 19.1113 3.93323 18.415 4.33521C17.7188 4.73718 17.1369 5.16069 16.7998 5.49146C16.4478 4.58705 16.7986 3.53564 17.665 3.0354ZM20.2236 3.51392C20.5499 3.4232 20.7723 3.41805 20.8301 3.51782C20.8878 3.61767 20.7719 3.80707 20.5303 4.04419C20.4937 3.95022 20.4494 3.85784 20.3975 3.76782C20.3454 3.67767 20.2868 3.59269 20.2236 3.51392Z" fill="#1C274C"/>
</svg>
