<svg width="24" height="24" viewBox="0 0 24 24" fill="none" xmlns="http://www.w3.org/2000/svg">
<path d="M13.0566 1.25C14.8943 1.24998 16.3501 1.25016 17.4893 1.40332C18.6615 1.56095 19.6101 1.89332 20.3584 2.6416C21.1066 3.38992 21.439 4.33844 21.5967 5.51074C21.7215 6.43902 21.7448 7.5779 21.749 8.96191C21.7497 8.97453 21.75 8.98723 21.75 9C21.75 9.0114 21.7495 9.0229 21.749 9.03418C21.7498 9.32629 21.75 9.62924 21.75 9.94336V13.0566C21.75 14.8943 21.7498 16.3501 21.5967 17.4893C21.439 18.6615 21.1066 19.6101 20.3584 20.3584C19.8993 20.8174 19.3652 21.1207 18.75 21.3223V22C18.75 22.4142 18.4142 22.75 18 22.75C17.5858 22.75 17.25 22.4142 17.25 22V21.626C16.1483 21.7497 14.7682 21.75 13.0566 21.75H10.9434C9.23181 21.75 7.85172 21.7497 6.75 21.626V22C6.75 22.4142 6.41421 22.75 6 22.75C5.58579 22.75 5.25 22.4142 5.25 22V21.3223C4.63476 21.1207 4.10063 20.8174 3.6416 20.3584C2.89332 19.6101 2.56095 18.6615 2.40332 17.4893C2.25016 16.3501 2.24998 14.8943 2.25 13.0566V9.94336C2.25 9.62924 2.25021 9.32629 2.25098 9.03418C2.25048 9.0229 2.25 9.0114 2.25 9C2.25 8.98723 2.25035 8.97453 2.25098 8.96191C2.25525 7.57789 2.27851 6.43902 2.40332 5.51074C2.56095 4.33844 2.8933 3.38992 3.6416 2.6416C4.38992 1.8933 5.33844 1.56095 6.51074 1.40332C7.6499 1.25016 9.10569 1.24998 10.9434 1.25H13.0566ZM3.75 13C3.75 14.9067 3.7515 16.2614 3.88965 17.2891C4.02491 18.2951 4.27894 18.8747 4.70215 19.2979C5.12536 19.7211 5.70485 19.9752 6.71094 20.1104C7.73858 20.2485 9.09325 20.25 11 20.25H13C14.9067 20.25 16.2614 20.2485 17.2891 20.1104C18.2951 19.9752 18.8747 19.7211 19.2979 19.2979C19.7211 18.8747 19.9752 18.2951 20.1104 17.2891C20.2485 16.2614 20.25 14.9067 20.25 13V9.75H3.75V13ZM12 11.25C14.0711 11.25 15.75 12.9289 15.75 15C15.75 17.0711 14.0711 18.75 12 18.75C9.92893 18.75 8.25 17.0711 8.25 15C8.25 12.9289 9.92893 11.25 12 11.25ZM12 12.75C10.7574 12.75 9.75 13.7574 9.75 15C9.75 16.2426 10.7574 17.25 12 17.25C13.2426 17.25 14.25 16.2426 14.25 15C14.25 13.7574 13.2426 12.75 12 12.75ZM11 2.75C9.09324 2.75 7.73859 2.75149 6.71094 2.88965C5.70485 3.02491 5.12536 3.27894 4.70215 3.70215C4.27894 4.12536 4.02491 4.70485 3.88965 5.71094C3.79811 6.39189 3.76675 7.21641 3.75586 8.25H20.2441C20.2332 7.21641 20.2019 6.39189 20.1104 5.71094C19.9752 4.70485 19.7211 4.12536 19.2979 3.70215C18.8747 3.27894 18.2951 3.02491 17.2891 2.88965C16.2614 2.7515 14.9067 2.75 13 2.75H11ZM14.5 4.5C15.0523 4.5 15.5 4.94772 15.5 5.5C15.5 6.05229 15.0523 6.5 14.5 6.5C13.9477 6.5 13.5 6.05229 13.5 5.5C13.5 4.94772 13.9477 4.5 14.5 4.5ZM17.5 4.5C18.0523 4.5 18.5 4.94772 18.5 5.5C18.5 6.05229 18.0523 6.5 17.5 6.5C16.9477 6.5 16.5 6.05229 16.5 5.5C16.5 4.94772 16.9477 4.5 17.5 4.5ZM9.5 4.75C9.91421 4.75 10.25 5.08579 10.25 5.5C10.25 5.91421 9.91421 6.25 9.5 6.25H6.5C6.08579 6.25 5.75 5.91421 5.75 5.5C5.75 5.08579 6.08579 4.75 6.5 4.75H9.5Z" fill="#1C274C"/>
</svg>
