<svg width="24" height="24" viewBox="0 0 24 24" fill="none" xmlns="http://www.w3.org/2000/svg">
<path d="M10.8304 2.26514C11.5703 1.91169 12.4305 1.91157 13.1703 2.26514C13.4901 2.41804 13.7959 2.67939 14.4076 3.20068C14.651 3.40812 14.7727 3.51198 14.9027 3.59912C15.2008 3.79891 15.536 3.93684 15.8881 4.00635C16.0416 4.03666 16.2011 4.05024 16.5199 4.07568C17.3211 4.13963 17.7218 4.17151 18.056 4.28955C18.8292 4.56264 19.4372 5.17069 19.7103 5.94385C19.8283 6.27812 19.8612 6.6787 19.9252 7.47998C19.9506 7.79872 19.9633 7.95832 19.9935 8.11182C20.063 8.46389 20.2019 8.79907 20.4017 9.09717C20.4888 9.22707 20.592 9.34913 20.7992 9.59229C21.3207 10.2042 21.5818 10.5107 21.7347 10.8306C22.0882 11.5704 22.0883 12.4306 21.7347 13.1704C21.5818 13.4902 21.3205 13.796 20.7992 14.4077C20.592 14.6508 20.4888 14.773 20.4017 14.9028C20.2019 15.2009 20.063 15.5361 19.9935 15.8882C19.9632 16.0417 19.9506 16.2012 19.9252 16.52C19.8612 17.3214 19.8283 17.7219 19.7103 18.0562C19.4372 18.8294 18.8292 19.4373 18.056 19.7104C17.7217 19.8284 17.3212 19.8613 16.5199 19.9253C16.2011 19.9507 16.0416 19.9634 15.8881 19.9937C15.536 20.0632 15.2008 20.2021 14.9027 20.4019C14.7729 20.4889 14.6507 20.5921 14.4076 20.7993C13.7959 21.3206 13.4901 21.5819 13.1703 21.7349C12.4305 22.0884 11.5703 22.0883 10.8304 21.7349C10.5105 21.582 10.2041 21.3208 9.59216 20.7993C9.34901 20.5921 9.22695 20.4889 9.09705 20.4019C8.79895 20.2021 8.46376 20.0632 8.11169 19.9937C7.9582 19.9634 7.7986 19.9507 7.47986 19.9253C6.67858 19.8613 6.27799 19.8284 5.94373 19.7104C5.17057 19.4373 4.56252 18.8293 4.28943 18.0562C4.17139 17.7219 4.13951 17.3213 4.07556 16.52C4.05012 16.2012 4.03654 16.0418 4.00623 15.8882C3.93672 15.5361 3.79879 15.2009 3.599 14.9028C3.51186 14.7729 3.40797 14.6511 3.20056 14.4077C2.67927 13.796 2.41792 13.4902 2.26501 13.1704C1.91144 12.4306 1.91156 11.5704 2.26501 10.8306C2.41789 10.5107 2.67912 10.2042 3.20056 9.59229C3.40794 9.34894 3.51187 9.22717 3.599 9.09717C3.79876 8.7991 3.93673 8.46384 4.00623 8.11182C4.03652 7.95831 4.05013 7.79874 4.07556 7.47998C4.13951 6.67874 4.17136 6.27811 4.28943 5.94385C4.56253 5.17067 5.17055 4.56265 5.94373 4.28955C6.27799 4.17148 6.67862 4.13963 7.47986 4.07568C7.79862 4.05025 7.95819 4.03664 8.11169 4.00635C8.46372 3.93685 8.79898 3.79888 9.09705 3.59912C9.22705 3.51199 9.34883 3.40806 9.59216 3.20068C10.2041 2.67924 10.5105 2.41802 10.8304 2.26514ZM15.8304 8.16943C15.5127 7.85201 14.9979 7.85193 14.6801 8.16943L8.16931 14.6802C7.85148 14.998 7.85148 15.5137 8.16931 15.8315C8.4871 16.1492 9.00191 16.1492 9.3197 15.8315L15.8304 9.3208C16.1482 9.00297 16.1482 8.48726 15.8304 8.16943ZM14.7133 13.6284C14.1139 13.6284 13.6274 14.1141 13.6273 14.7134C13.6273 15.3127 14.1139 15.7983 14.7133 15.7983C15.3124 15.7981 15.7982 15.3125 15.7982 14.7134C15.7982 14.1143 15.3123 13.6286 14.7133 13.6284ZM9.28748 8.20264C8.68821 8.20264 8.20161 8.68835 8.20154 9.2876C8.20154 9.88691 8.68817 10.3726 9.28748 10.3726C9.88661 10.3723 10.3724 9.88678 10.3724 9.2876C10.3724 8.68848 9.88656 8.20285 9.28748 8.20264Z" fill="#48465C"/>
</svg>
