<svg width="24" height="24" viewBox="0 0 24 24" fill="none" xmlns="http://www.w3.org/2000/svg">
<path d="M14.9521 2.25C15.7009 2.25 16.3274 2.56186 16.9414 3.03027C17.5287 3.47841 18.1847 4.13391 18.9873 4.93652L19.0635 5.0127C19.8661 5.81526 20.5216 6.47128 20.9697 7.05859C21.4381 7.67252 21.75 8.29911 21.75 9.04785C21.75 9.79654 21.4381 10.4232 20.9697 11.0371C20.5216 11.6244 19.8661 12.2805 19.0635 13.083L13.083 19.0635C12.6391 19.5075 12.2395 19.9062 11.8721 20.25H21C21.4142 20.25 21.75 20.5858 21.75 21C21.75 21.4142 21.4142 21.75 21 21.75H9C8.98166 21.75 8.96332 21.7493 8.94531 21.748C8.24148 21.7211 7.64431 21.4166 7.05859 20.9697C6.47128 20.5216 5.81526 19.8661 5.0127 19.0635L4.93652 18.9873C4.13391 18.1847 3.4784 17.5287 3.03027 16.9414C2.56186 16.3274 2.25 15.7009 2.25 14.9521C2.25001 14.2035 2.56187 13.5768 3.03027 12.9629C3.47843 12.3756 4.13393 11.7196 4.93652 10.917L10.917 4.93652C11.7196 4.13394 12.3756 3.47842 12.9629 3.03027C13.5768 2.56187 14.2035 2.25001 14.9521 2.25ZM6.03516 11.9395C5.18516 12.7894 4.60248 13.3753 4.22266 13.873C3.85607 14.3535 3.75001 14.6633 3.75 14.9521C3.75 15.241 3.85611 15.5508 4.22266 16.0312C4.60248 16.529 5.18515 17.1148 6.03516 17.9648C6.88517 18.8148 7.47094 19.3975 7.96875 19.7773C8.4492 20.1439 8.75897 20.25 9.04785 20.25C9.33672 20.25 9.64651 20.1439 10.127 19.7773C10.6247 19.3975 11.2106 18.8148 12.0605 17.9648L12.7109 17.3145L6.68555 11.2891L6.03516 11.9395ZM14.9521 3.75C14.6633 3.75001 14.3535 3.85607 13.873 4.22266C13.3753 4.60248 12.7894 5.18516 11.9395 6.03516L7.74707 10.2285L13.7715 16.2529L17.9648 12.0605C18.8148 11.2106 19.3975 10.6247 19.7773 10.127C20.1439 9.64651 20.25 9.33672 20.25 9.04785C20.25 8.75897 20.1439 8.4492 19.7773 7.96875C19.3975 7.47094 18.8148 6.88517 17.9648 6.03516C17.1148 5.18515 16.529 4.60248 16.0312 4.22266C15.5508 3.85611 15.241 3.75 14.9521 3.75Z" fill="#48465C"/>
</svg>
