<svg width="24" height="24" viewBox="0 0 24 24" fill="none" xmlns="http://www.w3.org/2000/svg">
<path d="M5.28101 6.25684C5.51168 6.26992 5.78876 6.30289 6.11206 6.3418L9.09741 6.70117C9.42066 6.74006 9.69782 6.77344 9.92456 6.81543C10.1619 6.85939 10.3962 6.92143 10.6208 7.04102C11.1291 7.31175 11.518 7.76819 11.6804 8.3252C11.7535 8.57614 11.7582 8.82059 11.7429 9.05371C11.7284 9.27303 11.6916 9.53419 11.6501 9.83008L11.6433 9.87988C11.6018 10.176 11.5648 10.437 11.5183 10.6523C11.4688 10.8817 11.3979 11.1138 11.2605 11.335C10.9557 11.8257 10.4637 12.1693 9.90601 12.3086C9.62737 12.3782 9.25789 12.3593 8.97729 12.3379C8.8836 12.3307 8.78536 12.3215 8.6853 12.3115L8.00952 17.1338C8.09877 17.1466 8.18582 17.1601 8.26929 17.1738C8.54515 17.2193 8.91068 17.2884 9.16479 17.4238C9.67313 17.6946 10.0621 18.1519 10.2244 18.709C10.2974 18.9598 10.3023 19.2035 10.2869 19.4365C10.2724 19.6558 10.2357 19.917 10.1941 20.2129L10.1873 20.2627C10.1458 20.5587 10.1086 20.8198 10.0623 21.0352C10.0127 21.2645 9.94167 21.4967 9.80444 21.7178C9.49969 22.2085 9.00763 22.5521 8.44995 22.6914C8.20347 22.753 7.96151 22.7579 7.71948 22.7441C7.48874 22.7311 7.2119 22.6972 6.88843 22.6582L3.90308 22.2988C3.57968 22.2599 3.30275 22.2266 3.07593 22.1846C2.83866 22.1407 2.6041 22.0794 2.37964 21.96C1.87121 21.6892 1.48143 21.232 1.31909 20.6748C1.24599 20.4238 1.24218 20.1794 1.25757 19.9463C1.27207 19.727 1.30883 19.4658 1.35034 19.1699L1.35718 19.1211C1.39872 18.8249 1.43471 18.5631 1.4812 18.3477C1.53071 18.1184 1.60171 17.8862 1.73901 17.665C2.04369 17.1744 2.53599 16.8319 3.09351 16.6924C3.37207 16.6228 3.74156 16.6417 4.02222 16.6631C4.11593 16.6702 4.21414 16.6785 4.31421 16.6885L4.99097 11.8662C4.90155 11.8535 4.81382 11.84 4.73022 11.8262C4.4544 11.7807 4.0897 11.7114 3.83569 11.5762C3.32743 11.3055 2.93852 10.8489 2.77612 10.292C2.70302 10.041 2.69823 9.7966 2.71362 9.56348C2.72811 9.34417 2.76488 9.083 2.8064 8.78711L2.81323 8.7373C2.85475 8.44124 2.89176 8.18017 2.93823 7.96484C2.98774 7.73547 3.0587 7.50342 3.19604 7.28223C3.50082 6.7914 3.99282 6.44795 4.55054 6.30859C4.79692 6.24707 5.03906 6.24314 5.28101 6.25684ZM4.91382 7.76465C4.71247 7.81503 4.55774 7.93282 4.47046 8.07324C4.46078 8.08883 4.43579 8.13418 4.40405 8.28125C4.37058 8.43634 4.34167 8.64266 4.29565 8.9707C4.24966 9.29857 4.22112 9.50451 4.21069 9.66211C4.20079 9.81213 4.21185 9.85929 4.21558 9.87207C4.25762 10.0164 4.36509 10.1566 4.53491 10.249C4.53536 10.2488 4.56503 10.2613 4.64038 10.2803C4.72557 10.3017 4.83723 10.324 4.97437 10.3467C5.24997 10.3921 5.58143 10.4318 5.92847 10.4736C6.12837 10.4977 6.3105 10.6012 6.43335 10.7607C6.55614 10.9202 6.60967 11.1229 6.58179 11.3223L5.698 17.6211C5.64101 18.0253 5.27135 18.3095 4.86597 18.2607C4.51909 18.219 4.18796 18.1794 3.90894 18.1582C3.76997 18.1476 3.65486 18.1431 3.56616 18.1436C3.48542 18.1441 3.45294 18.1488 3.45288 18.1484C3.25355 18.1994 3.10009 18.3166 3.01343 18.4561C3.00375 18.4716 2.97972 18.5172 2.948 18.6641C2.91452 18.8192 2.88465 19.0254 2.83862 19.3535C2.79258 19.6817 2.76407 19.8883 2.75366 20.0459C2.74385 20.1948 2.75574 20.2418 2.75952 20.2549C2.80205 20.4008 2.91142 20.5434 3.08472 20.6357C3.11589 20.6524 3.18104 20.6788 3.34937 20.71C3.52366 20.7422 3.75271 20.7702 4.10425 20.8125L7.04565 21.167C7.39735 21.2093 7.62684 21.2361 7.80444 21.2461C7.97529 21.2558 8.04731 21.2458 8.08569 21.2363C8.28727 21.1859 8.44275 21.0673 8.53003 20.9268C8.53975 20.9111 8.56476 20.8655 8.59644 20.7188C8.62988 20.5637 8.65884 20.3571 8.70483 20.0293C8.75082 19.7015 8.77938 19.4955 8.78979 19.3379C8.7997 19.1879 8.78766 19.1407 8.78394 19.1279C8.74181 18.9836 8.63448 18.8432 8.4646 18.751C8.46118 18.7499 8.43121 18.7376 8.36011 18.7197C8.27486 18.6983 8.16243 18.6759 8.02515 18.6533C7.74956 18.6078 7.418 18.5681 7.07104 18.5264C6.87133 18.5022 6.6899 18.3987 6.56714 18.2393C6.44431 18.0796 6.39077 17.8773 6.4187 17.6777L7.30151 11.3799C7.35825 10.9754 7.72897 10.6905 8.13452 10.7393C8.48143 10.7809 8.81255 10.8205 9.09155 10.8418C9.23038 10.8524 9.34468 10.8579 9.43335 10.8574C9.51426 10.8569 9.54746 10.8512 9.54761 10.8516C9.74671 10.8005 9.89946 10.6832 9.98608 10.5439C9.99577 10.5283 10.0207 10.483 10.0525 10.3359C10.0859 10.1808 10.1149 9.97461 10.1609 9.64648C10.2069 9.31863 10.2354 9.11268 10.2458 8.95508C10.2557 8.80535 10.2447 8.75802 10.241 8.74512C10.1984 8.59913 10.089 8.45656 9.91577 8.36426C9.88468 8.34773 9.81982 8.32127 9.65112 8.29004C9.47672 8.25776 9.24722 8.22985 8.89526 8.1875L5.95483 7.83398C5.60305 7.79166 5.37369 7.76398 5.19604 7.75391C5.02435 7.74419 4.95208 7.75509 4.91382 7.76465ZM17.7449 1.26367C18.3026 1.33442 18.8153 1.61682 19.1667 2.05762C19.3247 2.25584 19.4228 2.47208 19.4998 2.68848C19.5722 2.89213 19.6413 3.1418 19.7205 3.42578L19.7332 3.47266C19.8122 3.75669 19.8824 4.00629 19.9255 4.21777C19.9712 4.44189 19.9991 4.67863 19.9646 4.93066C19.8879 5.49172 19.5843 5.99301 19.1306 6.32812C18.9982 6.4259 18.8453 6.49447 18.7253 6.54297C18.5951 6.59561 18.4499 6.64475 18.3044 6.68945C18.2394 6.70943 18.1715 6.72927 18.1023 6.74902L19.3835 11.3516C19.4634 11.333 19.5422 11.3146 19.6179 11.2988C19.8771 11.2443 20.2316 11.179 20.5144 11.2148C21.0722 11.2855 21.5857 11.5678 21.9373 12.0088C22.0951 12.2069 22.1923 12.4234 22.2693 12.6396C22.3417 12.8433 22.411 13.0929 22.49 13.377L22.5037 13.4238C22.5827 13.7078 22.652 13.9576 22.6951 14.1689C22.7408 14.3931 22.7695 14.6297 22.7351 14.8818C22.6583 15.4428 22.3537 15.9433 21.9001 16.2783C21.698 16.4276 21.4788 16.5192 21.2585 16.5918C21.0492 16.6608 20.7915 16.7272 20.4949 16.8037L17.739 17.5146C17.4425 17.5912 17.1854 17.6572 16.9685 17.6982C16.7397 17.7414 16.5042 17.7678 16.2556 17.7363C15.6978 17.6656 15.1843 17.3834 14.8328 16.9424C14.6749 16.7443 14.5777 16.5278 14.5007 16.3115C14.4283 16.1079 14.3591 15.8582 14.28 15.5742L14.2664 15.5273C14.1873 15.2433 14.118 14.9936 14.075 14.7822C14.0294 14.558 14.0004 14.3214 14.0349 14.0693C14.1116 13.5084 14.4162 13.0079 14.8699 12.6729C15.002 12.5752 15.1543 12.5055 15.2742 12.457C15.4044 12.4044 15.5495 12.3552 15.6951 12.3105C15.7602 12.2906 15.828 12.2707 15.8972 12.251L14.6169 7.64941C14.537 7.66802 14.4582 7.68529 14.3826 7.70117C14.1234 7.75557 13.7689 7.82092 13.4861 7.78516C12.9282 7.71447 12.4147 7.43218 12.0632 6.99121C11.9055 6.79318 11.808 6.57749 11.7312 6.36133C11.6587 6.15752 11.5886 5.90733 11.5095 5.62305L11.4968 5.57715C11.4177 5.293 11.3485 5.04259 11.3054 4.83105C11.2598 4.6071 11.231 4.37097 11.2654 4.11914C11.3421 3.55805 11.6466 3.05681 12.1003 2.72168C12.3022 2.57261 12.5208 2.48079 12.741 2.4082C12.9502 2.33921 13.208 2.2728 13.5046 2.19629L16.2605 1.48535C16.5573 1.40878 16.815 1.34274 17.032 1.30176C17.2609 1.25855 17.4963 1.23217 17.7449 1.26367ZM17.3103 2.77539C17.1477 2.80609 16.9385 2.85942 16.613 2.94336L13.9021 3.64258C13.5766 3.72654 13.3673 3.78139 13.2107 3.83301C13.0602 3.88262 13.0104 3.91338 12.991 3.92773C12.8541 4.02887 12.7721 4.17284 12.7517 4.32227C12.7497 4.33701 12.7454 4.38659 12.7751 4.53223C12.8064 4.68552 12.8606 4.88428 12.948 5.19824C13.0353 5.51226 13.0917 5.71042 13.1443 5.8584C13.1943 5.99898 13.2242 6.0416 13.2361 6.05664C13.3362 6.18213 13.4893 6.27126 13.6658 6.2959C13.6703 6.29567 13.6994 6.29567 13.7615 6.28809C13.842 6.27826 13.9463 6.26019 14.074 6.2334C14.3311 6.17942 14.6354 6.1012 14.9558 6.01855C15.3514 5.91652 15.7563 6.14948 15.866 6.54297L17.5457 12.5791C17.5996 12.7731 17.574 12.9809 17.4734 13.1553C17.3727 13.3297 17.2055 13.4565 17.0105 13.5068C16.6901 13.5895 16.3861 13.6672 16.1355 13.7441C16.0107 13.7824 15.9113 13.8175 15.8367 13.8477C15.7816 13.8699 15.7573 13.8835 15.7527 13.8857C15.621 13.9865 15.5413 14.1263 15.5212 14.2725C15.5193 14.2869 15.5149 14.3361 15.5447 14.4824C15.576 14.6357 15.631 14.8342 15.7185 15.1484C15.806 15.4626 15.8611 15.6615 15.9138 15.8096C15.9638 15.9501 15.9937 15.9928 16.0056 16.0078C16.1073 16.1354 16.2639 16.2251 16.4441 16.248C16.4723 16.2516 16.534 16.254 16.6902 16.2246C16.8527 16.1939 17.0615 16.1404 17.3865 16.0566L20.0984 15.3574C20.4237 15.2736 20.6322 15.2186 20.7888 15.167C20.9397 15.1173 20.99 15.0866 21.0095 15.0723C21.1463 14.9711 21.2284 14.827 21.2488 14.6777C21.2508 14.6627 21.2547 14.6134 21.2253 14.4688C21.194 14.3154 21.139 14.1169 21.0515 13.8027C20.964 13.4885 20.9089 13.2897 20.8562 13.1416C20.8063 13.0013 20.7765 12.9585 20.7644 12.9434C20.6644 12.8179 20.5112 12.7287 20.3347 12.7041C20.3313 12.7043 20.3027 12.7042 20.239 12.7119C20.1584 12.7217 20.0535 12.7407 19.9255 12.7676C19.6686 12.8215 19.3648 12.8989 19.0447 12.9814C18.6491 13.0835 18.2442 12.8506 18.1345 12.457L16.4539 6.4209C16.4 6.22697 16.4264 6.01908 16.5271 5.84473C16.6277 5.67055 16.7943 5.54451 16.989 5.49414C17.3093 5.41152 17.6134 5.33283 17.864 5.25586C17.9888 5.21754 18.0892 5.18247 18.1638 5.15234C18.2185 5.13018 18.2433 5.11748 18.2478 5.11523C18.3795 5.01455 18.4582 4.87376 18.4783 4.72754C18.4803 4.71312 18.4857 4.66405 18.4558 4.51758C18.4246 4.36422 18.3695 4.16584 18.282 3.85156C18.1946 3.53743 18.1383 3.33942 18.0857 3.19141C18.0355 3.05046 18.0058 3.00718 17.9939 2.99219C17.8923 2.86492 17.7363 2.77486 17.5564 2.75195C17.5282 2.74838 17.4665 2.7459 17.3103 2.77539Z" fill="#1C274C"/>
</svg>
