<svg width="24" height="24" viewBox="0 0 24 24" fill="none" xmlns="http://www.w3.org/2000/svg">
<path d="M4.40625 4.3916C4.69943 4.099 5.1742 4.0994 5.4668 4.39258C5.75928 4.68578 5.75897 5.16056 5.46582 5.45312C3.78732 7.12835 2.75005 9.44231 2.75 12C2.75 14.5878 3.81199 16.9267 5.52539 18.6064C5.82082 18.8965 5.82501 19.3713 5.53516 19.667C5.24516 19.9624 4.77028 19.9666 4.47461 19.6768C2.48551 17.7267 1.25 15.0069 1.25 12C1.25005 9.028 2.45738 6.33669 4.40625 4.3916ZM18.6162 4.46484C18.912 4.17487 19.3868 4.1798 19.6768 4.47559C21.5768 6.4138 22.75 9.07055 22.75 12C22.75 14.9643 21.5493 17.6499 19.6094 19.5938C19.3168 19.8869 18.8419 19.8873 18.5488 19.5947C18.2557 19.3022 18.2544 18.8274 18.5469 18.5342C20.2178 16.86 21.25 14.5512 21.25 12C21.25 9.4788 20.2417 7.19458 18.6055 5.52539C18.3157 5.22966 18.3207 4.75478 18.6162 4.46484ZM7.24902 7.45215C7.55145 7.16929 8.02659 7.18498 8.30957 7.4873C8.59255 7.78969 8.57669 8.2648 8.27441 8.54785C7.3255 9.43584 6.75 10.6504 6.75 11.9824C6.75001 13.3299 7.33876 14.5577 8.30762 15.4482C8.6124 15.7285 8.63266 16.2028 8.35254 16.5078C8.07223 16.8127 7.59694 16.833 7.29199 16.5527C6.03927 15.4011 5.25001 13.7826 5.25 11.9824C5.25 10.2032 6.02134 8.60101 7.24902 7.45215ZM15.7432 7.52539C16.0295 7.22639 16.5044 7.21575 16.8037 7.50195C18.0009 8.64707 18.75 10.2289 18.75 11.9824C18.75 13.7569 17.9827 15.3548 16.7607 16.5029C16.4589 16.7866 15.9838 16.7716 15.7002 16.4697C15.4169 16.1678 15.4317 15.6937 15.7334 15.4102C16.6779 14.5228 17.25 13.311 17.25 11.9824C17.25 10.6694 16.6913 9.47041 15.7666 8.58594C15.4673 8.29963 15.4569 7.82472 15.7432 7.52539ZM10.124 8.49121C10.5785 8.18424 11.0511 8.21354 11.46 8.3457C11.8021 8.45631 12.1913 8.66931 12.5918 8.88867C12.6092 8.89819 12.6271 8.90745 12.6445 8.91699C12.8849 9.04857 13.1238 9.18634 13.3389 9.32227C13.5839 9.47712 13.8449 9.65896 14.1006 9.84668C14.1158 9.85787 14.1314 9.86972 14.1465 9.88086C14.5546 10.1803 14.9369 10.461 15.207 10.7441C15.5202 11.0725 15.7499 11.4711 15.75 12C15.75 12.5291 15.5204 12.9284 15.207 13.2568C14.9369 13.5401 14.5547 13.8206 14.1465 14.1201C14.1314 14.1312 14.1157 14.1422 14.1006 14.1533C13.8449 14.341 13.5839 14.5228 13.3389 14.6777C13.1238 14.8136 12.885 14.9513 12.6445 15.083C12.627 15.0925 12.6093 15.1028 12.5918 15.1123C12.1914 15.3316 11.802 15.5447 11.46 15.6553C11.0512 15.7874 10.5783 15.8165 10.124 15.5098C9.69588 15.2206 9.5205 14.792 9.43262 14.3838C9.35246 14.0114 9.32156 13.5386 9.28809 13.0166C9.28698 12.9994 9.28627 12.982 9.28516 12.9648C9.26394 12.6346 9.25 12.3031 9.25 12C9.25001 11.697 9.26394 11.3654 9.28516 11.0352C9.28627 11.018 9.28698 11.0006 9.28809 10.9834C9.32156 10.4615 9.35246 9.98854 9.43262 9.61621C9.52052 9.20817 9.69602 8.78039 10.124 8.49121ZM10.9512 9.75879C10.9381 9.78747 10.9182 9.84057 10.8984 9.93262C10.8447 10.1825 10.8202 10.5411 10.7822 11.1318C10.7622 11.4427 10.75 11.7397 10.75 12C10.75 12.2603 10.7622 12.5581 10.7822 12.8691C10.8202 13.4599 10.8446 13.8185 10.8984 14.0684C10.9182 14.1603 10.9381 14.2135 10.9512 14.2422C10.9641 14.239 10.9801 14.2337 10.999 14.2275C11.1889 14.1661 11.4508 14.0269 11.9248 13.7676C12.1479 13.6454 12.3579 13.5241 12.5381 13.4102C12.7438 13.2802 12.9741 13.1197 13.2129 12.9443C13.6827 12.5993 13.9536 12.397 14.1211 12.2217C14.2503 12.0863 14.2503 12.037 14.25 12.0039V11.9961C14.2503 11.963 14.2502 11.9145 14.1211 11.7793C13.9536 11.6037 13.6831 11.4009 13.2129 11.0557C12.9742 10.8804 12.7438 10.7209 12.5381 10.5908C12.3579 10.4769 12.1479 10.3555 11.9248 10.2334C11.4505 9.9738 11.1889 9.83388 10.999 9.77246C10.9801 9.76633 10.964 9.76202 10.9512 9.75879Z" fill="#1C274C"/>
</svg>
