<svg width="24" height="24" viewBox="0 0 24 24" fill="none" xmlns="http://www.w3.org/2000/svg">
<path d="M13.6338 3C14.5601 3.00004 15.3661 3.60181 15.623 4.46094L15.6963 4.75391C15.8676 5.3302 16.4049 5.76074 17.0225 5.76074C18.4028 5.82112 19.3041 5.99048 20.0244 6.46289C20.5096 6.78125 20.9267 7.19053 21.251 7.66699C21.9998 8.76755 22 10.2995 22 13.3633C22 16.4275 21.9999 17.96 21.251 19.0605C20.9267 19.5369 20.5096 19.9462 20.0244 20.2646C18.9035 20.9998 17.3432 21 14.2227 21H9.77734C6.65685 21 5.09651 20.9998 3.97559 20.2646C3.4903 19.9462 3.07328 19.5369 2.74902 19.0605C2.00007 17.96 2 16.4275 2 13.3633C2 10.2995 2.00021 8.76754 2.74902 7.66699C3.07328 7.19053 3.4903 6.78125 3.97559 6.46289C4.69579 5.99047 5.59722 5.82113 6.97754 5.76074C7.59505 5.76074 8.13237 5.3302 8.30371 4.75391L8.37695 4.46094C8.6338 3.60181 9.43982 3.00004 10.3662 3H13.6338ZM12 9.27246C9.69892 9.27246 7.83318 11.1041 7.83301 13.3633C7.83301 15.6227 9.69881 17.4541 12 17.4541C14.3012 17.4541 16.167 15.6227 16.167 13.3633C16.1668 11.1041 14.3011 9.27246 12 9.27246ZM12 10.9092C13.3806 10.9092 14.4998 12.0078 14.5 13.3633C14.5 14.7189 13.3807 15.8184 12 15.8184C10.6193 15.8184 9.5 14.7189 9.5 13.3633C9.50018 12.0078 10.6194 10.9092 12 10.9092ZM17.5557 9.27246C17.0954 9.27246 16.7227 9.639 16.7227 10.0908C16.7227 10.5427 17.0954 10.9092 17.5557 10.9092H18.667C19.1271 10.909 19.5 10.5426 19.5 10.0908C19.5 9.63909 19.127 9.27262 18.667 9.27246H17.5557Z" fill="#48465C"/>
</svg>
