<svg width="24" height="24" viewBox="0 0 24 24" fill="none" xmlns="http://www.w3.org/2000/svg">
<path d="M12.0518 2C13.7319 1.99999 15.0629 2.0001 16.1045 2.14258C17.1761 2.28919 18.0434 2.59809 18.7275 3.29395C19.4117 3.9901 19.7163 4.87325 19.8604 5.96387C20.0003 7.02353 20 8.37755 20 10.0869V13.9131C20 15.6224 20.0003 16.9765 19.8604 18.0361C19.7163 19.1267 19.4117 20.01 18.7275 20.7061C18.0434 21.402 17.1761 21.7108 16.1045 21.8574C15.0629 21.9999 13.7319 22 12.0518 22H11.9482C10.2681 22 8.93704 21.9999 7.89551 21.8574C6.82388 21.7108 5.95657 21.4019 5.27246 20.7061C4.58825 20.01 4.28377 19.1267 4.13965 18.0361C3.99964 16.9765 3.99999 15.6225 4 13.9131V10.0869C3.99999 8.37758 3.99964 7.02355 4.13965 5.96387C4.28377 4.87325 4.58825 3.9901 5.27246 3.29395C5.95657 2.5981 6.82388 2.2892 7.89551 2.14258C8.93705 2.0001 10.2681 1.99999 11.9482 2H12.0518ZM9.25684 17.8145C8.87827 17.8146 8.57129 18.1265 8.57129 18.5117C8.57135 18.8969 8.8783 19.2088 9.25684 19.209H14.7432C15.1217 19.2088 15.4286 18.8969 15.4287 18.5117C15.4287 18.1265 15.1217 17.8146 14.7432 17.8145H9.25684Z" fill="#1C274C"/>
</svg>
