<svg width="24" height="24" viewBox="0 0 24 24" fill="none" xmlns="http://www.w3.org/2000/svg">
<path d="M6.98634 1.25001C7.33762 1.24999 7.56417 1.24987 7.78517 1.27052C8.73645 1.35948 9.63944 1.73302 10.375 2.34278C10.5459 2.48449 10.7057 2.64506 10.9541 2.89356L11.5303 3.46974C12.376 4.31545 12.7016 4.6309 13.0772 4.83985C13.2951 4.96108 13.5258 5.05762 13.7656 5.12599C14.179 5.24379 14.6324 5.25001 15.8281 5.25001H16.2529C17.5258 5.24999 18.5524 5.25047 19.3643 5.35255C20.2055 5.45834 20.9206 5.68371 21.5078 6.21192C21.6061 6.30033 21.6997 6.3939 21.7881 6.4922C22.3162 7.07949 22.5426 7.79443 22.6484 8.63575C22.7504 9.44764 22.75 10.4742 22.75 11.7471V14.0566C22.75 15.8943 22.7498 17.3501 22.5967 18.4893C22.439 19.6616 22.1066 20.6101 21.3584 21.3584C20.6101 22.1066 19.6615 22.4391 18.4893 22.5967C17.3501 22.7498 15.8943 22.75 14.0566 22.75H9.94337C8.10573 22.75 6.64991 22.7498 5.51075 22.5967C4.33847 22.4391 3.38992 22.1066 2.64161 21.3584C1.89333 20.6101 1.56096 19.6616 1.40333 18.4893C1.25017 17.3501 1.25 15.8943 1.25001 14.0566V6.85938C1.2499 6.06347 1.2495 5.55665 1.33204 5.11915C1.69462 3.1978 3.19781 1.69461 5.11915 1.33204C5.55666 1.24949 6.06347 1.2499 6.85938 1.25001H6.98634ZM6.9502 2.75001C6.03356 2.75001 5.67874 2.75358 5.39747 2.80665C4.08283 3.05472 3.05471 4.08282 2.80665 5.39747C2.75358 5.67874 2.75001 6.03356 2.75001 6.9502V14C2.75001 15.9067 2.75151 17.2614 2.88966 18.2891C3.02493 19.2952 3.27896 19.8747 3.70216 20.2979C4.12537 20.7211 4.70486 20.9751 5.71095 21.1104C6.73859 21.2485 8.09324 21.25 10 21.25H14C15.9067 21.25 17.2614 21.2484 18.2891 21.1104C19.2951 20.9751 19.8747 20.7211 20.2979 20.2979C20.7211 19.8747 20.9752 19.2952 21.1104 18.2891C21.2485 17.2614 21.25 15.9067 21.25 14V11.7979C21.25 10.4622 21.249 9.5306 21.1602 8.82325C21.0736 8.13461 20.9141 7.7633 20.6729 7.49513C20.6199 7.43623 20.5639 7.38014 20.5049 7.32716C20.2368 7.08596 19.8654 6.92741 19.1768 6.84083C18.4694 6.75191 17.5379 6.75001 16.2022 6.75001H15.7178C14.67 6.75023 13.994 6.75066 13.3545 6.56837C13.0039 6.46842 12.6662 6.32764 12.3477 6.1504C11.7665 5.82706 11.2886 5.34946 10.5479 4.60841L9.91993 3.98048C9.63665 3.69721 9.52747 3.58964 9.417 3.49806C8.91376 3.08092 8.29634 2.82455 7.64552 2.76368C7.50279 2.75035 7.35023 2.75001 6.9502 2.75001ZM18 9.25001C18.4142 9.25001 18.75 9.58581 18.75 10C18.75 10.4142 18.4142 10.75 18 10.75H13C12.5858 10.75 12.25 10.4142 12.25 10C12.25 9.58582 12.5858 9.25002 13 9.25001H18Z" fill="#1C274C"/>
</svg>
