<svg width="24" height="24" viewBox="0 0 24 24" fill="none" xmlns="http://www.w3.org/2000/svg">
<path d="M20 13.2499C20.2974 13.2499 20.5668 13.426 20.6865 13.6982C20.8062 13.9704 20.7537 14.2876 20.5527 14.5068L15.0527 20.5068C14.8438 20.7346 14.5167 20.811 14.2285 20.6992C13.9403 20.5871 13.75 20.3092 13.75 19.9999V14.7499H4C3.58578 14.7499 3.25 14.4141 3.25 13.9999C3.25004 13.5858 3.5858 13.2499 4 13.2499H20ZM8.94727 3.4931C9.15614 3.26534 9.48341 3.18889 9.77148 3.30072C10.0597 3.41283 10.25 3.69069 10.25 3.99994V9.24994H20C20.4142 9.24994 20.75 9.58579 20.75 9.99994C20.75 10.4141 20.4142 10.7499 20 10.7499H4C3.70258 10.7499 3.43324 10.574 3.31348 10.3017C3.19387 10.0296 3.24635 9.71227 3.44727 9.4931L8.94727 3.4931Z" fill="#48465C"/>
</svg>
