<svg width="24" height="24" viewBox="0 0 24 24" fill="none" xmlns="http://www.w3.org/2000/svg">
<path d="M20 13.2499C20.2974 13.2499 20.5668 13.4259 20.6865 13.6981C20.8062 13.9704 20.7537 14.2876 20.5527 14.5067L15.0527 20.5067C14.8438 20.7346 14.5167 20.811 14.2285 20.6991C13.9403 20.587 13.75 20.3092 13.75 19.9999V14.7499H4C3.58579 14.7499 3.25 14.4141 3.25 13.9999C3.25004 13.5857 3.58582 13.2499 4 13.2499H20ZM8.94727 3.49304C9.15614 3.26527 9.48341 3.18883 9.77148 3.30066C10.0597 3.41277 10.25 3.69063 10.25 3.99988V9.24988H20C20.4142 9.24988 20.75 9.58573 20.75 9.99988C20.75 10.4141 20.4142 10.7499 20 10.7499H4C3.70258 10.7499 3.43324 10.5739 3.31348 10.3016C3.19387 10.0295 3.24635 9.71221 3.44727 9.49304L8.94727 3.49304Z" fill="#1C274C"/>
</svg>
