<svg width="24" height="24" viewBox="0 0 24 24" fill="none" xmlns="http://www.w3.org/2000/svg">
<path fill-rule="evenodd" clip-rule="evenodd" d="M17.3467 1.63223C17.5497 1.2717 18.0063 1.14355 18.3672 1.3461C18.7282 1.5491 18.8563 2.00652 18.6533 2.36758L12.8604 12.6723L15.5674 17.4867C16.1491 16.1694 17.4674 15.2504 19 15.2504C21.0711 15.2504 22.75 16.9294 22.75 19.0004C22.7499 21.0714 21.071 22.7504 19 22.7504C17.5772 22.7504 16.3397 21.9579 15.7041 20.7904L12 14.2025L8.2959 20.7904C7.66043 21.9579 6.42274 22.7504 5 22.7504C2.92902 22.7504 1.25014 21.0714 1.25 19.0004C1.25 16.9294 2.92893 15.2504 5 15.2504C6.53262 15.2504 7.85095 16.1694 8.43262 17.4867L11.1396 12.6723L5.34668 2.36758C5.14368 2.00652 5.27175 1.5491 5.63281 1.3461C5.99364 1.14352 6.45027 1.27167 6.65332 1.63223L12 11.142L17.3467 1.63223ZM5 16.7504C3.75736 16.7504 2.75 17.7578 2.75 19.0004C2.75014 20.243 3.75745 21.2504 5 21.2504C5.83538 21.2504 6.564 20.7946 6.95215 20.1186L6.97266 20.0834C7.14945 19.7622 7.24996 19.3931 7.25 19.0004C7.25 17.7578 6.24264 16.7504 5 16.7504ZM19 16.7504C17.7574 16.7504 16.75 17.7578 16.75 19.0004C16.75 19.3931 16.8505 19.7622 17.0273 20.0834L17.0479 20.1186C17.4361 20.7946 18.1646 21.2504 19 21.2504C20.2425 21.2504 21.2499 20.243 21.25 19.0004C21.25 17.7578 20.2426 16.7504 19 16.7504Z" fill="#1C274C"/>
</svg>
