<svg width="24" height="24" viewBox="0 0 24 24" fill="none" xmlns="http://www.w3.org/2000/svg">
<path d="M6.46973 3.46979C6.76262 3.1769 7.23738 3.1769 7.53027 3.46979C7.8231 3.76268 7.82314 4.23746 7.53027 4.53033L5.81055 6.25006H15.0361C15.9402 6.25005 16.6696 6.25046 17.2578 6.30377C17.864 6.35874 18.3939 6.47426 18.875 6.75201C19.445 7.08112 19.918 7.55506 20.2471 8.12506C20.5248 8.60627 20.6413 9.13597 20.6963 9.74225C20.7496 10.3305 20.75 11.0598 20.75 11.9639V12.0362C20.75 12.9402 20.7496 13.6697 20.6963 14.2579C20.6414 14.864 20.5249 15.3938 20.2471 15.8751C19.918 16.445 19.4449 16.9181 18.875 17.2471C18.3939 17.5249 17.8641 17.6413 17.2578 17.6964C16.6696 17.7496 15.9402 17.7501 15.0361 17.7501H8C7.5858 17.7501 7.25003 17.4142 7.25 17.0001C7.25 16.5859 7.58578 16.2501 8 16.2501H15C15.9483 16.2501 16.6095 16.2497 17.1221 16.2032C17.6244 16.1577 17.9101 16.0723 18.125 15.9483C18.467 15.7508 18.7508 15.4669 18.9482 15.1251C19.0722 14.9102 19.1576 14.6244 19.2031 14.1221C19.2496 13.6096 19.25 12.9484 19.25 12.0001C19.25 11.0518 19.2496 10.3906 19.2031 9.87799C19.1576 9.37568 19.0722 9.08997 18.9482 8.87506C18.7508 8.53312 18.4669 8.24928 18.125 8.05182C17.9101 7.92775 17.6244 7.84247 17.1221 7.79694C16.6095 7.75048 15.9483 7.75006 15 7.75006H5.81055L7.53027 9.46979C7.8231 9.76268 7.82314 10.2375 7.53027 10.5303C7.23741 10.8232 6.76262 10.8232 6.46973 10.5303L3.46973 7.53033C3.17684 7.23744 3.17684 6.76268 3.46973 6.46979L6.46973 3.46979Z" fill="#48465C"/>
</svg>
