<svg width="24" height="24" viewBox="0 0 24 24" fill="none" xmlns="http://www.w3.org/2000/svg">
<path d="M12.0576 1.25C14.3657 1.24999 16.1745 1.24974 17.5859 1.43945C19.0306 1.63369 20.1706 2.03977 21.0654 2.93457C21.9602 3.82938 22.3662 4.96932 22.5605 6.41406C22.7502 7.82544 22.75 9.63432 22.75 11.9424V12.0576C22.75 14.3657 22.7502 16.1745 22.5605 17.5859C22.3662 19.0306 21.9602 20.1706 21.0654 21.0654C20.1706 21.9602 19.0306 22.3662 17.5859 22.5605C16.1745 22.7502 14.3657 22.75 12.0576 22.75H11.9424C9.63433 22.75 7.82545 22.7502 6.41406 22.5605C4.96933 22.3662 3.82938 21.9602 2.93457 21.0654C2.03977 20.1706 1.63369 19.0306 1.43945 17.5859C1.24974 16.1745 1.24999 14.3657 1.25 12.0576V11.9424C1.24999 9.63433 1.24974 7.82544 1.43945 6.41406C1.63369 4.96932 2.03976 3.82938 2.93457 2.93457C3.82938 2.03976 4.96933 1.63369 6.41406 1.43945C7.82545 1.24974 9.63433 1.24999 11.9424 1.25H12.0576ZM12 2.75C9.62177 2.75 7.91326 2.75198 6.61328 2.92676C5.33508 3.09865 4.56472 3.42551 3.99512 3.99512C3.42551 4.56472 3.09865 5.33508 2.92676 6.61328C2.75198 7.91326 2.75 9.62178 2.75 12C2.75 14.3782 2.75198 16.0867 2.92676 17.3867C3.09865 18.6649 3.42551 19.4352 3.99512 20.0049C4.56472 20.5745 5.33508 20.9014 6.61328 21.0732C7.91326 21.248 9.62177 21.25 12 21.25C14.3782 21.25 16.0867 21.248 17.3867 21.0732C18.6649 20.9014 19.4352 20.5745 20.0049 20.0049C20.5745 19.4352 20.9014 18.6649 21.0732 17.3867C21.248 16.0867 21.25 14.3782 21.25 12C21.25 9.62178 21.248 7.91326 21.0732 6.61328C20.9014 5.33508 20.5745 4.56472 20.0049 3.99512C19.4352 3.42551 18.6649 3.09865 17.3867 2.92676C16.0867 2.75198 14.3782 2.75 12 2.75ZM14.6992 6.91504C14.9802 6.61087 15.4545 6.59215 15.7588 6.87305L18.0088 8.94922C18.1626 9.0912 18.25 9.29166 18.25 9.50098C18.2499 9.71016 18.1625 9.90979 18.0088 10.0518L15.7588 12.1289C15.4544 12.4098 14.9802 12.3903 14.6992 12.0859C14.4183 11.7815 14.4368 11.3072 14.7412 11.0264L15.582 10.251H9.96191C9.26279 10.251 8.79289 10.2516 8.43457 10.2871C8.08838 10.3215 7.9276 10.3825 7.82129 10.4512C7.67281 10.5473 7.54621 10.6737 7.4502 10.8223C7.38149 10.9286 7.32047 11.0894 7.28613 11.4355C7.25061 11.7938 7.25 12.2631 7.25 12.9619C7.25 13.661 7.25059 14.1309 7.28613 14.4893C7.32047 14.8355 7.38147 14.9963 7.4502 15.1025C7.54623 15.251 7.67276 15.3776 7.82129 15.4736C7.9276 15.5424 8.0884 15.6034 8.43457 15.6377C8.79288 15.6733 9.26279 15.6738 9.96191 15.6738H14.5C14.9142 15.6738 15.25 16.0096 15.25 16.4238C15.25 16.838 14.9142 17.1738 14.5 17.1738H9.92383C9.27202 17.1738 8.7281 17.1736 8.28711 17.1299C7.82561 17.0841 7.39615 16.9851 7.00684 16.7334C6.68007 16.5221 6.4017 16.2438 6.19043 15.917C5.93873 15.5277 5.83971 15.0982 5.79395 14.6367C5.75024 14.1958 5.74998 13.6518 5.75 13V12.9248C5.74998 12.2727 5.7502 11.7282 5.79395 11.2871C5.83973 10.8259 5.9389 10.397 6.19043 10.0078C6.40169 9.6811 6.68009 9.40267 7.00684 9.19141C7.39617 8.93968 7.8256 8.84069 8.28711 8.79492C8.7281 8.75121 9.27202 8.75096 9.92383 8.75098H15.582L14.7412 7.97461C14.437 7.69363 14.4183 7.21933 14.6992 6.91504Z" fill="#1C274C"/>
</svg>
