<svg width="24" height="24" viewBox="0 0 24 24" fill="none" xmlns="http://www.w3.org/2000/svg">
<path d="M12.5166 13.5C12.5 13.9364 12.4999 14.4114 12.5 14.9102V18.0898C12.4999 18.9553 12.5001 19.749 12.5869 20.3945C12.6825 21.1055 12.9074 21.8566 13.5254 22.4746L13.5508 22.5H8C7.58579 22.5 7.25 22.1642 7.25 21.75C7.25 21.3358 7.58579 21 8 21H11.25V17H8C5.17158 17 3.75759 16.9998 2.87891 16.1211C2.30961 15.5518 2.10867 14.7579 2.03809 13.5H12.5166ZM18 11C19.8856 11 20.8283 11.0001 21.4141 11.5859C21.9999 12.1717 22 13.1144 22 15V18C22 19.8856 21.9999 20.8283 21.4141 21.4141C20.8283 21.9999 19.8856 22 18 22C16.1144 22 15.1717 21.9999 14.5859 21.4141C14.0001 20.8283 14 19.8856 14 18V15C14 13.1144 14.0001 12.1717 14.5859 11.5859C15.1717 11.0001 16.1144 11 18 11ZM17 19.25C16.5858 19.25 16.25 19.5858 16.25 20C16.25 20.4142 16.5858 20.75 17 20.75H19C19.4142 20.75 19.75 20.4142 19.75 20C19.75 19.5858 19.4142 19.25 19 19.25H17ZM14 2C17.7712 2 19.6566 2.00031 20.8281 3.17188C21.9997 4.34346 22 6.22878 22 10V10.1387C21.4918 9.80522 20.9316 9.65913 20.3945 9.58691C19.749 9.50013 18.9553 9.4999 18.0898 9.5H17.9102C17.0447 9.4999 16.251 9.50013 15.6055 9.58691C14.8945 9.68252 14.1434 9.90742 13.5254 10.5254C12.9379 11.113 12.7053 11.8207 12.6016 12.5H2.00684C2.00032 12.0494 2 11.5516 2 11V10C2 6.22876 2.00031 4.34345 3.17188 3.17188C4.34345 2.00031 6.22876 2 10 2H14Z" fill="#1C274C"/>
</svg>
