<svg width="24" height="24" viewBox="0 0 24 24" fill="none" xmlns="http://www.w3.org/2000/svg">
<path d="M20.625 1.625C21.0392 1.625 21.375 1.96079 21.375 2.375V22.375C21.375 22.7892 21.0392 23.125 20.625 23.125C20.2108 23.125 19.875 22.7892 19.875 22.375V2.375C19.875 1.96079 20.2108 1.625 20.625 1.625ZM14.125 14.375C15.0596 14.375 15.5269 14.3752 15.875 14.5762C16.1029 14.7078 16.2922 14.8971 16.4238 15.125C16.6248 15.4731 16.625 15.9404 16.625 16.875C16.625 17.8096 16.6248 18.2769 16.4238 18.625C16.2922 18.8529 16.1029 19.0422 15.875 19.1738C15.5269 19.3748 15.0596 19.375 14.125 19.375H8.125C7.19038 19.375 6.72308 19.3748 6.375 19.1738C6.14703 19.0422 5.95781 18.8529 5.82617 18.625C5.62521 18.2769 5.625 17.8096 5.625 16.875C5.625 15.9404 5.62521 15.4731 5.82617 15.125C5.95781 14.8971 6.14703 14.7078 6.375 14.5762C6.72308 14.3752 7.19038 14.375 8.125 14.375H14.125ZM14.125 5.375C15.0596 5.375 15.5269 5.37521 15.875 5.57617C16.1029 5.70781 16.2922 5.89703 16.4238 6.125C16.6248 6.47308 16.625 6.94038 16.625 7.875C16.625 8.80962 16.6248 9.27692 16.4238 9.625C16.2922 9.85297 16.1029 10.0422 15.875 10.1738C15.5269 10.3748 15.0596 10.375 14.125 10.375H5.125C4.19038 10.375 3.72308 10.3748 3.375 10.1738C3.14703 10.0422 2.95781 9.85296 2.82617 9.625C2.62521 9.27692 2.625 8.80961 2.625 7.875C2.625 6.94038 2.62521 6.47307 2.82617 6.125C2.9578 5.89704 3.14704 5.7078 3.375 5.57617C3.72308 5.37521 4.19038 5.375 5.125 5.375H14.125Z" fill="#48465C"/>
</svg>
