<svg width="24" height="24" viewBox="0 0 24 24" fill="none" xmlns="http://www.w3.org/2000/svg">
<path d="M12 1.25C12.7046 1.25 13.3485 1.44373 14.0518 1.77051C14.7322 2.0867 15.5202 2.553 16.5059 3.13672L17.2588 3.58301C18.2449 4.16691 19.0328 4.63294 19.6396 5.0791C20.2672 5.54041 20.7482 6.01298 21.0967 6.63184C21.4445 7.24986 21.6015 7.9112 21.6768 8.69531C21.7498 9.45552 21.75 10.3865 21.75 11.5557V12.4443C21.75 13.6135 21.7498 14.5445 21.6768 15.3047C21.6015 16.0889 21.4445 16.7502 21.0967 17.3682C20.7482 17.987 20.2672 18.4596 19.6396 18.9209C19.0328 19.3671 18.2447 19.8331 17.2588 20.417L16.5059 20.8633C15.5202 21.447 14.7322 21.9133 14.0518 22.2295C13.3485 22.5563 12.7046 22.75 12 22.75C11.2954 22.75 10.6516 22.5563 9.94824 22.2295C9.26784 21.9134 8.47977 21.447 7.49414 20.8633L6.74121 20.417C5.7552 19.8331 4.96724 19.3671 4.36035 18.9209C3.73287 18.4596 3.25172 17.987 2.90332 17.3682C2.55546 16.7502 2.39859 16.0889 2.32324 15.3047C2.2502 14.5445 2.24999 13.6136 2.25 12.4443V11.5557C2.24999 10.3864 2.2502 9.45553 2.32324 8.69531C2.39859 7.9112 2.55546 7.24986 2.90332 6.63184C3.25172 6.01296 3.73286 5.54042 4.36035 5.0791C4.96724 4.63294 5.75519 4.16692 6.74121 3.58301L7.49414 3.13672C8.4798 2.553 9.26782 2.0867 9.94824 1.77051C10.6516 1.44373 11.2954 1.25 12 1.25ZM12 2.75C11.5908 2.75 11.1704 2.85701 10.5811 3.13086C9.97648 3.41175 9.25255 3.8391 8.22559 4.44727L7.53906 4.85352C6.51207 5.4617 5.78885 5.89124 5.24902 6.28809C4.72316 6.6747 4.41941 6.99779 4.21094 7.36816C4.0019 7.73957 3.88027 8.17423 3.81641 8.83887C3.75105 9.51911 3.75 10.3782 3.75 11.5938V12.4062C3.75 13.6218 3.75105 14.481 3.81641 15.1611C3.88028 15.8258 4.00189 16.2604 4.21094 16.6318C4.41941 17.0022 4.72316 17.3253 5.24902 17.7119C5.78885 18.1088 6.51207 18.5383 7.53906 19.1465L8.22559 19.5527C9.25256 20.1608 9.97648 20.5883 10.5811 20.8691C11.1704 21.143 11.5908 21.25 12 21.25C12.4092 21.25 12.8296 21.143 13.4189 20.8691C14.0235 20.5883 14.7474 20.1608 15.7744 19.5527L16.4609 19.1465C17.4879 18.5383 18.2111 18.1088 18.751 17.7119C19.2768 17.3253 19.5806 17.0022 19.7891 16.6318C19.9982 16.2604 20.1197 15.8258 20.1836 15.1611C20.249 14.481 20.25 13.6218 20.25 12.4062V11.5938C20.25 10.3782 20.249 9.51911 20.1836 8.83887C20.1197 8.17423 19.9982 7.73957 19.7891 7.36816C19.5806 6.99778 19.2768 6.67471 18.751 6.28809C18.2111 5.89124 17.4879 5.4617 16.4609 4.85352L15.7744 4.44727C14.7474 3.83911 14.0235 3.41175 13.4189 3.13086C12.8296 2.85701 12.4092 2.75 12 2.75ZM12 8.25C14.0711 8.25 15.75 9.92893 15.75 12C15.75 14.0711 14.0711 15.75 12 15.75C9.92893 15.75 8.25 14.0711 8.25 12C8.25 9.92893 9.92893 8.25 12 8.25ZM12 9.75C10.7574 9.75 9.75 10.7574 9.75 12C9.75 13.2426 10.7574 14.25 12 14.25C13.2426 14.25 14.25 13.2426 14.25 12C14.25 10.7574 13.2426 9.75 12 9.75Z" fill="#1C274C"/>
</svg>
