<svg width="24" height="24" viewBox="0 0 24 24" fill="none" xmlns="http://www.w3.org/2000/svg">
<path d="M14.791 2C15.176 2.00017 15.4881 2.31225 15.4883 2.69727V5.48828C15.4883 5.52477 15.4859 5.56073 15.4805 5.5957C16.4163 5.71069 17.0645 5.94924 17.5576 6.44238C18.0508 6.93552 18.2893 7.58367 18.4043 8.51953C18.4393 8.51413 18.4752 8.51172 18.5117 8.51172H21.3027C21.6877 8.51195 21.9998 8.82396 22 9.20898C22 9.59416 21.6878 9.90699 21.3027 9.90723H18.4951C18.5067 10.3286 18.5107 10.7922 18.5117 11.3027H21.3027C21.6878 11.303 22 11.6148 22 12C22 12.3852 21.6878 12.697 21.3027 12.6973H18.5107C18.5096 13.2078 18.5067 13.6714 18.4951 14.0928H21.3027C21.6878 14.093 22 14.4059 22 14.791C21.9998 15.176 21.6877 15.488 21.3027 15.4883H18.5117C18.4752 15.4883 18.4393 15.4859 18.4043 15.4805C18.2893 16.4163 18.0508 17.0645 17.5576 17.5576C17.0645 18.0508 16.4163 18.2893 15.4805 18.4043C15.4859 18.4393 15.4883 18.4752 15.4883 18.5117V21.3027C15.488 21.6877 15.176 21.9998 14.791 22C14.4059 22 14.093 21.6878 14.0928 21.3027V18.4951C13.6714 18.5067 13.2078 18.5107 12.6973 18.5117V21.3027C12.697 21.6878 12.3852 22 12 22C11.6148 22 11.303 21.6878 11.3027 21.3027V18.5107C10.7922 18.5096 10.3286 18.5067 9.90723 18.4951V21.3027C9.90699 21.6878 9.59416 22 9.20898 22C8.82396 21.9998 8.51195 21.6877 8.51172 21.3027V18.5117C8.51172 18.4752 8.51413 18.4393 8.51953 18.4043C7.58367 18.2893 6.93552 18.0508 6.44238 17.5576C5.94924 17.0645 5.71069 16.4163 5.5957 15.4805C5.56072 15.4859 5.52477 15.4883 5.48828 15.4883H2.69727C2.31225 15.4881 2.00017 15.176 2 14.791C2 14.4059 2.31214 14.093 2.69727 14.0928H5.50488C5.49336 13.6714 5.48935 13.2078 5.48828 12.6973H2.69727C2.31214 12.697 2 12.3852 2 12C2 11.6148 2.31214 11.303 2.69727 11.3027H5.48926C5.49033 10.7922 5.49336 10.3286 5.50488 9.90723H2.69727C2.31214 9.90701 2 9.59417 2 9.20898C2.00017 8.82395 2.31225 8.51194 2.69727 8.51172H5.48828C5.52477 8.51172 5.56073 8.51413 5.5957 8.51953C5.71069 7.58367 5.94925 6.93552 6.44238 6.44238C6.93552 5.94925 7.58367 5.71069 8.51953 5.5957C8.51413 5.56074 8.51172 5.52477 8.51172 5.48828V2.69727C8.51194 2.31225 8.82395 2.00017 9.20898 2C9.59417 2 9.90701 2.31214 9.90723 2.69727V5.50488C10.3286 5.49336 10.7922 5.48935 11.3027 5.48828V2.69727C11.303 2.31214 11.6148 2 12 2C12.3852 2 12.697 2.31214 12.6973 2.69727V5.48926C13.2078 5.49033 13.6714 5.49336 14.0928 5.50488V2.69727C14.093 2.31214 14.4059 2 14.791 2ZM11.0234 7.58105C10.4052 7.58101 9.87197 7.5813 9.44531 7.63867C8.98812 7.70018 8.54981 7.83886 8.19434 8.19434C7.83886 8.54981 7.70018 8.98812 7.63867 9.44531C7.5813 9.87197 7.58101 10.4052 7.58105 11.0234V12.9766C7.58101 13.5948 7.5813 14.128 7.63867 14.5547C7.70018 15.0118 7.83886 15.4502 8.19434 15.8057C8.54981 16.1612 8.98812 16.2998 9.44531 16.3613C9.87196 16.4187 10.4052 16.4189 11.0234 16.4189H12.9766C13.5949 16.4189 14.128 16.4187 14.5547 16.3613C15.0119 16.2998 15.4502 16.1612 15.8057 15.8057C16.1612 15.4502 16.2998 15.0119 16.3613 14.5547C16.4187 14.128 16.4189 13.5948 16.4189 12.9766V11.0234C16.4189 10.4051 16.4187 9.87196 16.3613 9.44531C16.2998 8.98812 16.1612 8.54981 15.8057 8.19434C15.4502 7.83886 15.0118 7.70018 14.5547 7.63867C14.128 7.5813 13.5949 7.58101 12.9766 7.58105H11.0234ZM12.9307 8.97656C13.6078 8.97656 14.0456 8.97814 14.3682 9.02148C14.6708 9.06216 14.7662 9.12756 14.8193 9.18066C14.8724 9.23377 14.9378 9.32923 14.9785 9.63184C15.0219 9.9545 15.0234 10.3929 15.0234 11.0703V12.9307C15.0234 13.6078 15.0219 14.0456 14.9785 14.3682C14.9378 14.6709 14.8724 14.7662 14.8193 14.8193C14.7662 14.8724 14.6709 14.9378 14.3682 14.9785C14.0456 15.0219 13.6078 15.0234 12.9307 15.0234H11.0703C10.3929 15.0234 9.9545 15.0219 9.63184 14.9785C9.32923 14.9378 9.23377 14.8724 9.18066 14.8193C9.12756 14.7662 9.06216 14.6708 9.02148 14.3682C8.97814 14.0456 8.97656 13.6078 8.97656 12.9307V11.0703C8.97656 10.3929 8.97812 9.9545 9.02148 9.63184C9.06217 9.32923 9.12755 9.23377 9.18066 9.18066C9.23377 9.12755 9.32923 9.06217 9.63184 9.02148C9.9545 8.97812 10.3929 8.97656 11.0703 8.97656H12.9307ZM12.8047 9.57227C12.4911 9.34831 12.055 9.42084 11.8311 9.73438L10.502 11.5947C10.3502 11.8074 10.3297 12.087 10.4492 12.3193C10.5688 12.5517 10.8089 12.6982 11.0703 12.6982H11.5742L11.0332 13.4551C10.8095 13.7686 10.8829 14.2049 11.1963 14.4287C11.5099 14.6523 11.9451 14.5791 12.1689 14.2656L13.498 12.4053C13.6498 12.1926 13.6703 11.913 13.5508 11.6807C13.4312 11.4484 13.1919 11.3029 12.9307 11.3027H12.4258L12.9668 10.5449C13.1904 10.2316 13.1177 9.79624 12.8047 9.57227Z" fill="#48465C"/>
</svg>
