<svg width="24" height="24" viewBox="0 0 24 24" fill="none" xmlns="http://www.w3.org/2000/svg">
<path d="M13.0566 3.25C14.8943 3.24998 16.3501 3.25016 17.4893 3.40332C18.6615 3.56095 19.6101 3.89332 20.3584 4.6416C21.1066 5.38992 21.439 6.33844 21.5967 7.51074C21.748 8.63651 21.75 10.0717 21.75 11.8789C22.0938 12.1626 22.3672 12.528 22.541 12.9473C22.6613 13.2376 22.7079 13.5374 22.7295 13.8545C22.7503 14.1591 22.75 14.5302 22.75 14.9746V15.0254C22.75 15.4698 22.7503 15.8409 22.7295 16.1455C22.7079 16.4626 22.6613 16.7624 22.541 17.0527C22.2619 17.7264 21.7264 18.2619 21.0527 18.541C20.7624 18.6613 20.4626 18.7079 20.1455 18.7295C20.0243 18.7378 19.8926 18.7421 19.75 18.7451V20C19.75 20.4142 19.4142 20.75 19 20.75C18.5858 20.75 18.25 20.4142 18.25 20V18.75H5.75V20C5.75 20.4142 5.41421 20.75 5 20.75C4.58579 20.75 4.25 20.4142 4.25 20V18.7451C4.10741 18.7421 3.97562 18.7378 3.85449 18.7295C3.53744 18.7079 3.23762 18.6613 2.94727 18.541C2.27358 18.2619 1.73809 17.7264 1.45898 17.0527C1.33872 16.7624 1.29215 16.4626 1.27051 16.1455C1.24973 15.8409 1.24999 15.4698 1.25 15.0254V14.9746C1.24999 14.5302 1.24973 14.159 1.27051 13.8545C1.29215 13.5374 1.33872 13.2376 1.45898 12.9473C1.63271 12.528 1.90618 12.1626 2.25 11.8789C2.25001 10.0717 2.25196 8.63651 2.40332 7.51074C2.56095 6.33844 2.8933 5.38992 3.6416 4.6416C4.38992 3.8933 5.33844 3.56095 6.51074 3.40332C7.6499 3.25016 9.10569 3.24998 10.9434 3.25H13.0566ZM5 12.75C4.52397 12.75 4.20446 12.7507 3.95703 12.7676C3.71634 12.784 3.59863 12.8127 3.52148 12.8447C3.21519 12.9715 2.9716 13.2153 2.84473 13.5215C2.81277 13.5987 2.784 13.7164 2.76758 13.957C2.75072 14.2045 2.75 14.524 2.75 15C2.75 15.476 2.75072 15.7955 2.76758 16.043C2.784 16.2836 2.81277 16.4013 2.84473 16.4785C2.9716 16.7847 3.2152 17.0284 3.52148 17.1553C3.59863 17.1872 3.71631 17.216 3.95703 17.2324C4.20446 17.2493 4.52397 17.25 5 17.25H19C19.476 17.25 19.7955 17.2493 20.043 17.2324C20.2836 17.216 20.4013 17.1872 20.4785 17.1553C20.7847 17.0284 21.0284 16.7847 21.1553 16.4785C21.1872 16.4013 21.216 16.2836 21.2324 16.043C21.2493 15.7955 21.25 15.476 21.25 15C21.25 14.524 21.2493 14.2045 21.2324 13.957C21.216 13.7164 21.1872 13.5987 21.1553 13.5215C21.0284 13.2153 20.7847 12.9715 20.4785 12.8447C20.4013 12.8127 20.2836 12.784 20.043 12.7676C19.7955 12.7507 19.476 12.75 19 12.75H5ZM11 4.75C9.09324 4.75 7.73858 4.75149 6.71094 4.88965C5.70485 5.02491 5.12536 5.27894 4.70215 5.70215C4.27894 6.12536 4.02491 6.70485 3.88965 7.71094C3.76958 8.60403 3.75237 9.7445 3.75 11.2793C3.7845 11.2762 3.81958 11.2729 3.85449 11.2705C4.10625 11.2533 4.40354 11.2505 4.75 11.25V10.4482C4.74997 9.54976 4.75012 8.79986 4.83008 8.20508C4.91452 7.57747 5.1003 7.01102 5.55566 6.55566C6.01102 6.1003 6.57747 5.91452 7.20508 5.83008C7.79986 5.75012 8.54976 5.74997 9.44824 5.75H14.5518C15.4503 5.74997 16.2001 5.75012 16.7949 5.83008C17.4225 5.91452 17.989 6.1003 18.4443 6.55566C18.8997 7.01102 19.0855 7.57748 19.1699 8.20508C19.2499 8.79986 19.25 9.54976 19.25 10.4482V11.25C19.5965 11.2505 19.8937 11.2533 20.1455 11.2705C20.1804 11.2729 20.2155 11.2762 20.25 11.2793C20.2476 9.74451 20.2304 8.60403 20.1104 7.71094C19.9752 6.70485 19.7211 6.12536 19.2979 5.70215C18.8747 5.27894 18.2951 5.02491 17.2891 4.88965C16.2614 4.7515 14.9067 4.75 13 4.75H11ZM9.5 7.25C8.53599 7.25 7.88831 7.25146 7.40527 7.31641C6.94388 7.37845 6.74651 7.4859 6.61621 7.61621C6.4859 7.74651 6.37845 7.94388 6.31641 8.40527C6.25146 8.88831 6.25 9.53599 6.25 10.5V11.25H11.25V7.25H9.5ZM12.75 11.25H17.75V10.5C17.75 9.53599 17.7485 8.88831 17.6836 8.40527C17.6215 7.94389 17.5141 7.74651 17.3838 7.61621C17.2535 7.48591 17.0561 7.37845 16.5947 7.31641C16.1117 7.25146 15.464 7.25 14.5 7.25H12.75V11.25Z" fill="#48465C"/>
</svg>
