<svg width="24" height="24" viewBox="0 0 24 24" fill="none" xmlns="http://www.w3.org/2000/svg">
<path d="M13.6338 2.25C14.969 2.25004 16.1343 3.17667 16.4014 4.48633C16.463 4.78871 16.7376 5.01074 17.0225 5.01074C17.0332 5.01075 17.044 5.01126 17.0547 5.01172C18.4581 5.07309 19.5365 5.24553 20.4365 5.83594C21.0034 6.20789 21.4911 6.68678 21.8711 7.24512C22.3438 7.93979 22.5523 8.73696 22.6523 9.70117C22.7499 10.6435 22.75 11.8252 22.75 13.3213V13.4062C22.75 14.9021 22.7499 16.0832 22.6523 17.0254C22.5524 17.9898 22.3439 18.7877 21.8711 19.4824C21.4911 20.0408 21.0034 20.5196 20.4365 20.8916C19.7331 21.3531 18.9263 21.5566 17.9482 21.6543C16.9906 21.7499 15.7891 21.75 14.2637 21.75H9.73633C8.21085 21.75 7.00942 21.7499 6.05176 21.6543C5.07368 21.5566 4.26689 21.3531 3.56348 20.8916C2.99658 20.5196 2.5089 20.0408 2.12891 19.4824C1.65611 18.7877 1.44759 17.9898 1.34766 17.0254C1.25006 16.0832 1.24999 14.9021 1.25 13.4062V13.3213C1.24999 11.8252 1.25002 10.6435 1.34766 9.70117C1.44759 8.73696 1.65626 7.93979 2.12891 7.24512C2.50887 6.68679 2.99663 6.20789 3.56348 5.83594C4.46346 5.24553 5.54188 5.07309 6.94531 5.01172C6.95605 5.01126 6.96679 5.01075 6.97754 5.01074C7.26242 5.01074 7.53703 4.78872 7.59863 4.48633C7.86559 3.17667 9.03095 2.25004 10.3662 2.25H13.6338ZM10.3662 3.75C9.72517 3.75004 9.18916 4.19308 9.06836 4.78613C8.87268 5.74664 8.02075 6.50182 6.99609 6.51074C5.64766 6.57066 4.9254 6.73646 4.38672 7.08984C3.98317 7.35458 3.6376 7.6944 3.36914 8.08887C3.09306 8.49462 2.92716 9.01377 2.83984 9.85645C2.7512 10.7124 2.75 11.8157 2.75 13.3633C2.75 14.9113 2.75116 16.0151 2.83984 16.8711C2.92717 17.7139 3.09299 18.2329 3.36914 18.6387C3.6376 19.0332 3.98317 19.373 4.38672 19.6377C4.80423 19.9115 5.33867 20.0759 6.20117 20.1621C7.07552 20.2494 8.20182 20.25 9.77734 20.25H14.2227C15.7982 20.25 16.9244 20.2494 17.7988 20.1621C18.6613 20.0759 19.1957 19.9115 19.6133 19.6377C20.0168 19.373 20.3625 19.0332 20.6309 18.6387C20.9071 18.2329 21.0728 17.7139 21.1602 16.8711C21.2488 16.0151 21.25 14.9113 21.25 13.3633C21.25 11.8157 21.2488 10.7124 21.1602 9.85645C21.0728 9.01378 20.907 8.49462 20.6309 8.08887C20.3625 7.6944 20.0168 7.35458 19.6133 7.08984C19.0745 6.73647 18.3523 6.57066 17.0039 6.51074C15.9792 6.50182 15.1273 5.74664 14.9316 4.78613C14.8107 4.19308 14.2748 3.75004 13.6338 3.75H10.3662ZM14.5195 8.25C14.9337 8.25 15.2695 8.58579 15.2695 9V10.6797C15.2695 11.0344 15.0209 11.3411 14.6738 11.4141L13.1543 11.7344C12.7491 11.8196 12.3509 11.5595 12.2656 11.1543C12.1926 10.8064 12.3737 10.4642 12.6826 10.3203C11.8616 10.0794 10.9377 10.2829 10.29 10.9307C9.34608 11.8749 9.34592 13.4055 10.29 14.3496C11.2341 15.2937 12.7648 15.2935 13.709 14.3496C14.1116 13.947 14.3426 13.4394 14.4023 12.915C14.4492 12.5038 14.8201 12.2084 15.2314 12.2549C15.6429 12.3017 15.9394 12.6734 15.8926 13.085C15.796 13.9342 15.4205 14.7593 14.7695 15.4102C13.2395 16.9399 10.7594 16.94 9.22949 15.4102C7.6996 13.8803 7.69977 11.4001 9.22949 9.87012C10.4581 8.64157 12.2995 8.39912 13.7695 9.14355V9C13.7695 8.58585 14.1054 8.25009 14.5195 8.25Z" fill="#48465C"/>
</svg>
