<svg width="24" height="24" viewBox="0 0 24 24" fill="none" xmlns="http://www.w3.org/2000/svg">
<path d="M7.50037 18.0005C8.32864 18.0007 9.00037 18.6721 9.00037 19.5005C9.00033 20.3287 8.32861 21.0003 7.50037 21.0005C6.67196 21.0005 6.00041 20.3289 6.00037 19.5005C6.00037 18.672 6.67194 18.0005 7.50037 18.0005ZM16.5004 18.0005C17.3286 18.0007 18.0004 18.6722 18.0004 19.5005C18.0003 20.3289 17.3286 21.0003 16.5004 21.0005C15.672 21.0005 15.0004 20.329 15.0004 19.5005C15.0004 18.6721 15.672 18.0005 16.5004 18.0005ZM2.08435 2.75146C2.22177 2.36086 2.64975 2.15525 3.04041 2.29248L3.34216 2.39893C3.95842 2.61556 4.48194 2.79935 4.89392 3.00146C5.33443 3.21761 5.71231 3.48423 5.99646 3.8999C6.27844 4.31254 6.39488 4.76583 6.44861 5.26221C6.47264 5.48434 6.48587 5.73026 6.49255 6.00049H17.1302C18.8152 6.00049 20.3328 6.00056 20.7767 6.57764C21.2203 7.15472 21.0466 8.02447 20.6996 9.76318L20.1996 12.188C19.8845 13.7168 19.7268 14.4816 19.1752 14.9312C18.6235 15.3805 17.843 15.3804 16.2826 15.3804H10.9789C8.1902 15.3804 6.79544 15.3802 5.92908 14.4663C5.06295 13.5526 4.99939 12.5813 4.99939 9.64014V7.03857C4.99939 6.2987 4.99855 5.80352 4.9574 5.42334C4.91807 5.06 4.84844 4.87866 4.75818 4.74658C4.67014 4.61775 4.53685 4.49689 4.23376 4.34814C3.91092 4.18973 3.47168 4.03403 2.80408 3.79932L2.54333 3.70752C2.15256 3.57014 1.94696 3.14222 2.08435 2.75146ZM10.2396 8.87549C10.1705 8.4671 9.78279 8.19205 9.37439 8.26123C8.96631 8.3306 8.69112 8.71731 8.76013 9.12549L9.28845 12.2437C9.35768 12.652 9.74536 12.9271 10.1537 12.8579C10.562 12.7886 10.8371 12.401 10.7679 11.9927L10.2396 8.87549ZM15.6537 8.26123C15.2453 8.19205 14.8577 8.4671 14.7885 8.87549L14.2611 11.9927C14.1919 12.4009 14.4663 12.7885 14.8744 12.8579C15.2827 12.9271 15.6704 12.652 15.7396 12.2437L16.2679 9.12549C16.337 8.71718 16.062 8.33045 15.6537 8.26123Z" fill="#48465C"/>
</svg>
