<svg width="24" height="24" viewBox="0 0 24 24" fill="none" xmlns="http://www.w3.org/2000/svg">
<path d="M14.0004 2.25C14.6986 2.25017 15.3018 2.65938 15.5825 3.25098C16.2657 3.25596 16.7985 3.28688 17.2739 3.47266C17.842 3.69472 18.336 4.07277 18.6996 4.5625C19.0665 5.05658 19.2389 5.68987 19.476 6.56152L20.2182 9.2832L20.4985 10.124C20.5065 10.1339 20.5141 10.1442 20.5219 10.1543C21.4227 11.308 20.994 13.0235 20.1362 16.4551C19.5906 18.6373 19.3177 19.7288 18.5043 20.3643C17.6905 20.9997 16.5648 21 14.3149 21H9.685C7.43521 21 6.31029 20.9996 5.49652 20.3643C4.68274 19.7289 4.40938 18.6378 3.86371 16.4551C3.00582 13.0235 2.57726 11.308 3.47797 10.1543C3.48581 10.1442 3.49342 10.1339 3.5014 10.124L3.78168 9.28223L4.52386 6.56152C4.76094 5.68987 4.9333 5.05658 5.30023 4.5625C5.66395 4.07275 6.15784 3.69471 6.72601 3.47266C7.20155 3.2868 7.73488 3.25595 8.4184 3.25098C8.69909 2.6593 9.30201 2.25 10.0004 2.25H14.0004ZM15.5805 4.75195C15.2993 5.34182 14.6974 5.74983 14.0004 5.75H10.0004C9.30324 5.75 8.7007 5.34194 8.41937 4.75195C7.75759 4.75865 7.4917 4.78421 7.27191 4.87012C6.96607 4.98971 6.70013 5.1934 6.50433 5.45703C6.32832 5.69414 6.22479 6.02542 5.93402 7.0918L5.36469 9.18066C6.38475 8.99993 7.77809 9 9.685 9H14.3149C16.2217 9 17.6151 8.99994 18.6352 9.18066L18.0659 7.0918C17.7751 6.02533 17.6716 5.69414 17.4955 5.45703C17.2997 5.19336 17.0338 4.9897 16.728 4.87012C16.5082 4.78421 16.2424 4.75864 15.5805 4.75195Z" fill="#1C274C"/>
</svg>
