<svg width="24" height="24" viewBox="0 0 24 24" fill="none" xmlns="http://www.w3.org/2000/svg">
<path d="M12 2C16.714 2 19.0708 2.00037 20.5352 3.46484C21.9996 4.9293 22 7.28597 22 12C22 16.714 21.9997 19.0708 20.5352 20.5352C19.0708 21.9997 16.714 22 12 22C7.28597 22 4.9293 21.9996 3.46484 20.5352C2.00037 19.0708 2 16.714 2 12C2 7.28595 2.00037 4.9293 3.46484 3.46484C4.9293 2.00037 7.28595 2 12 2ZM9.28613 7.25C6.55456 7.25 4.25 9.32875 4.25 12C4.25 14.6712 6.55456 16.75 9.28613 16.75C9.99338 16.7499 10.6691 16.6118 11.2832 16.3613C11.6666 16.2049 11.8507 15.7673 11.6943 15.3838C11.5379 15.0004 11.1002 14.8163 10.7168 14.9727C10.2811 15.1503 9.79762 15.2499 9.28613 15.25C7.28384 15.25 5.75 13.747 5.75 12C5.75 10.253 7.28384 8.75 9.28613 8.75C9.79762 8.75005 10.2811 8.84969 10.7168 9.02734C11.1002 9.18372 11.5379 8.99961 11.6943 8.61621C11.8507 8.2327 11.6666 7.79512 11.2832 7.63867C10.6691 7.38827 9.99338 7.25005 9.28613 7.25ZM17.2861 7.25C14.5545 7.25 12.25 9.32875 12.25 12C12.25 14.6712 14.5545 16.75 17.2861 16.75C17.9934 16.7499 18.6691 16.6118 19.2832 16.3613C19.6666 16.2049 19.8507 15.7673 19.6943 15.3838C19.5379 15.0004 19.1002 14.8163 18.7168 14.9727C18.2811 15.1503 17.7977 15.2499 17.2861 15.25C15.2838 15.25 13.75 13.747 13.75 12C13.75 10.253 15.2838 8.75 17.2861 8.75C17.7977 8.75006 18.2811 8.84969 18.7168 9.02734C19.1002 9.18372 19.5379 8.99961 19.6943 8.61621C19.8507 8.2327 19.6666 7.79512 19.2832 7.63867C18.6691 7.38827 17.9934 7.25006 17.2861 7.25Z" fill="#1C274C"/>
</svg>
