<svg width="24" height="24" viewBox="0 0 24 24" fill="none" xmlns="http://www.w3.org/2000/svg">
<path d="M14.9453 2.59277C15.8084 2.47719 16.6508 2.75785 17.8613 3.16211C17.9139 3.17966 17.9675 3.19783 18.0215 3.21582L19.2227 3.61621C19.6858 3.77054 20.0921 3.90587 20.4141 4.05566C20.7621 4.2176 21.0813 4.42631 21.3252 4.76465C21.5691 5.10305 21.6664 5.47204 21.71 5.85352C21.7502 6.20633 21.75 6.63408 21.75 7.12207V15.335C21.75 16.0333 21.7504 16.6223 21.6963 17.0879C21.6401 17.5716 21.5136 18.0498 21.1611 18.4355C20.9521 18.6643 20.6981 18.8476 20.415 18.9736C19.9376 19.186 19.4436 19.1544 18.9668 19.0547C18.5079 18.9589 17.9486 18.7727 17.2861 18.5518L17.2441 18.5381C16.1236 18.1645 15.739 18.0478 15.3662 18.0605C15.2179 18.0657 15.0702 18.0851 14.9258 18.1191C14.5628 18.2049 14.223 18.419 13.2402 19.0742L11.8574 19.9951C11.8102 20.0266 11.7638 20.0582 11.7178 20.0889C10.6563 20.7973 9.91768 21.2907 9.05469 21.4062C8.19162 21.5219 7.34921 21.2402 6.13867 20.8359C6.08614 20.8184 6.03247 20.8012 5.97852 20.7832L4.77637 20.3818C4.31347 20.2276 3.90785 20.0921 3.58594 19.9424C3.2378 19.7804 2.9187 19.5718 2.6748 19.2334C2.43103 18.8951 2.3336 18.5268 2.29004 18.1455C2.24975 17.7926 2.24997 17.3641 2.25 16.876V8.66406C2.24998 7.96562 2.24957 7.37583 2.30371 6.91016C2.35998 6.42647 2.48642 5.94824 2.83887 5.5625C3.04789 5.33375 3.30187 5.15041 3.58496 5.02441C4.06242 4.812 4.55648 4.84375 5.0332 4.94336C5.49209 5.03925 6.05128 5.2254 6.71387 5.44629L6.75586 5.46094C7.87642 5.83447 8.26101 5.95023 8.63379 5.9375C8.78218 5.93242 8.92973 5.91306 9.07422 5.87891C9.43718 5.79311 9.77718 5.57988 10.7598 4.9248L12.1426 4.00293C12.1898 3.97143 12.2362 3.93989 12.2822 3.90918C13.3436 3.20071 14.0824 2.70841 14.9453 2.59277ZM4.72656 6.41211C4.37138 6.3379 4.24966 6.37133 4.19531 6.39551C4.10095 6.43749 4.01598 6.49798 3.94629 6.57422C3.90617 6.61813 3.83586 6.72356 3.79395 7.08398C3.75113 7.45255 3.75 7.95375 3.75 8.70898V16.8369C3.75 17.3757 3.7509 17.7171 3.78027 17.9746C3.8075 18.213 3.85239 18.3019 3.8916 18.3564C3.93083 18.4108 4.00109 18.4817 4.21875 18.583C4.45383 18.6922 4.77711 18.8014 5.28809 18.9717L6.45312 19.3594C7.33945 19.6548 7.86547 19.8231 8.25 19.8936V7.41992C7.7144 7.36186 7.15032 7.17384 6.40723 6.92578C6.3662 6.91209 6.32436 6.89783 6.28223 6.88379C5.56569 6.64495 5.08976 6.48802 4.72656 6.41211ZM14.25 4.43262C13.9388 4.61242 13.5398 4.87417 12.9746 5.25098L11.5918 6.17285C11.5548 6.1975 11.5184 6.22208 11.4824 6.24609C10.7942 6.70532 10.2809 7.04709 9.75 7.23926V19.5654C10.0612 19.3856 10.4602 19.1238 11.0254 18.7471L12.4082 17.8262C12.4452 17.8015 12.4816 17.777 12.5176 17.7529C13.2059 17.2936 13.719 16.9509 14.25 16.7588V4.43262ZM15.75 16.5781C16.2857 16.6362 16.8496 16.8252 17.5928 17.0732C17.6337 17.0869 17.6756 17.1003 17.7178 17.1143C18.4344 17.3532 18.9102 17.511 19.2734 17.5869C19.6281 17.661 19.7502 17.6276 19.8047 17.6035C19.8991 17.5615 19.984 17.5001 20.0537 17.4238C20.0938 17.3799 20.1642 17.275 20.2061 16.915C20.249 16.5465 20.25 16.0453 20.25 15.29V7.16113C20.25 6.62229 20.2491 6.28105 20.2197 6.02344C20.1924 5.78492 20.1477 5.69603 20.1084 5.6416C20.0692 5.58719 19.9988 5.51719 19.7812 5.41602C19.5462 5.30668 19.2229 5.19769 18.7119 5.02734L17.5469 4.63867C16.6606 4.34323 16.1345 4.17497 15.75 4.10449V16.5781Z" fill="#1C274C"/>
</svg>
