<svg width="24" height="24" viewBox="0 0 24 24" fill="none" xmlns="http://www.w3.org/2000/svg">
<path d="M12.0332 7.25C13.4047 7.25 14.4804 7.24972 15.3447 7.32031C16.2248 7.39222 16.9523 7.54162 17.6104 7.87695C18.6923 8.42821 19.5718 9.30772 20.123 10.3896C20.4583 11.0477 20.6078 11.7752 20.6797 12.6553C20.7503 13.5195 20.75 14.5955 20.75 15.9668V21.25H22C22.4142 21.25 22.75 21.5858 22.75 22C22.75 22.4142 22.4142 22.75 22 22.75H2C1.58579 22.75 1.25 22.4142 1.25 22C1.25 21.5858 1.58579 21.25 2 21.25H3.25V15.9668C3.25 14.5953 3.24972 13.5196 3.32031 12.6553C3.39222 11.7752 3.54162 11.0477 3.87695 10.3896C4.42822 9.3077 5.30775 8.42821 6.38965 7.87695C7.04778 7.54162 7.77512 7.39222 8.65527 7.32031C9.51956 7.24972 10.5953 7.25 11.9668 7.25H12.0332ZM12 8.75C10.5877 8.75 9.57344 8.7504 8.77734 8.81543C7.98996 8.87976 7.48174 9.00326 7.07031 9.21289C6.27065 9.62035 5.62034 10.2707 5.21289 11.0703C5.00326 11.4818 4.87976 11.9899 4.81543 12.7773C4.7504 13.5734 4.75 14.5877 4.75 16V21.25H11.25V19.6221C10.3761 19.3132 9.75 18.4797 9.75 17.5C9.75 16.2574 10.7574 15.25 12 15.25C13.2426 15.25 14.25 16.2574 14.25 17.5C14.25 18.4797 13.6239 19.3132 12.75 19.6221V21.25H19.25V16C19.25 14.5877 19.2495 13.5734 19.1846 12.7773C19.1202 11.9899 18.9967 11.4818 18.7871 11.0703C18.3796 10.2707 17.7293 9.62035 16.9297 9.21289C16.5182 9.00326 16.0101 8.87976 15.2227 8.81543C14.4266 8.7504 13.4123 8.75 12 8.75ZM12 16.75C11.5858 16.75 11.25 17.0858 11.25 17.5C11.25 17.9142 11.5858 18.25 12 18.25C12.4142 18.25 12.75 17.9142 12.75 17.5C12.75 17.0858 12.4142 16.75 12 16.75ZM15 10.0645C16.618 10.0645 17.9963 11.3366 17.9346 13.0273C17.9193 13.4411 17.5711 13.7641 17.1572 13.749C16.7437 13.7337 16.4207 13.3862 16.4355 12.9727C16.4636 12.2034 15.842 11.5645 15 11.5645C14.5858 11.5645 14.25 11.2288 14.25 10.8145C14.25 10.4003 14.5858 10.0645 15 10.0645ZM2.46973 4.46973C2.76262 4.17684 3.23738 4.17684 3.53027 4.46973L5.03027 5.96973C5.32316 6.26262 5.32316 6.73738 5.03027 7.03027C4.73738 7.32316 4.26262 7.32316 3.96973 7.03027L2.46973 5.53027C2.17684 5.23738 2.17684 4.76262 2.46973 4.46973ZM20.4697 4.46973C20.7626 4.17684 21.2374 4.17684 21.5303 4.46973C21.8231 4.76261 21.8231 5.23739 21.5303 5.53027L20.0303 7.03027C19.7374 7.32316 19.2626 7.32316 18.9697 7.03027C18.6768 6.73738 18.6768 6.26262 18.9697 5.96973L20.4697 4.46973ZM12 1.25C12.4142 1.25 12.75 1.58579 12.75 2V5C12.75 5.41421 12.4142 5.75 12 5.75C11.5858 5.75 11.25 5.41421 11.25 5V2C11.25 1.58579 11.5858 1.25 12 1.25Z" fill="#1C274C"/>
</svg>
