<svg width="24" height="24" viewBox="0 0 24 24" fill="none" xmlns="http://www.w3.org/2000/svg">
<path d="M10.0303 2C10.6361 2 11.1218 1.99995 11.5303 2.0166C11.5169 2.09653 11.5091 2.1783 11.5088 2.26074L11.5 5.09473C11.4999 6.19183 11.4994 7.16184 11.6045 7.94336C11.7184 8.79041 11.9807 9.63693 12.6719 10.3281C13.363 11.0194 14.2096 11.2816 15.0566 11.3955C15.8382 11.5006 16.8082 11.5001 17.9053 11.5H21.957C21.9996 12.0342 22 12.6899 22 13.5625V14C22 17.7712 21.9997 19.6566 20.8281 20.8281C19.6566 21.9997 17.7712 22 14 22H10C6.22878 22 4.34346 21.9997 3.17188 20.8281C2.00031 19.6566 2 17.7712 2 14V10C2 6.22876 2.00031 4.34346 3.17188 3.17188C4.34346 2.00031 6.23916 2 10.0303 2ZM9.67188 13.4873C9.38858 13.1852 8.91449 13.1698 8.6123 13.4531C8.31015 13.7364 8.29486 14.2105 8.57812 14.5127L9.26855 15.25H6C5.58579 15.25 5.25 15.5858 5.25 16C5.25 16.4142 5.58579 16.75 6 16.75H9.26855L8.57812 17.4873C8.29486 17.7895 8.31015 18.2636 8.6123 18.5469C8.91449 18.8301 9.38859 18.8148 9.67188 18.5127L11.5469 16.5127C11.8173 16.2242 11.8173 15.7758 11.5469 15.4873L9.67188 13.4873ZM13.0088 2.26562C13.7007 2.53113 14.2649 3.03876 15.3926 4.05371L19.3516 7.61621C20.5682 8.71115 21.2175 9.29582 21.5801 10H18C15.643 10 14.4647 9.99981 13.7324 9.26758C13.0003 8.53535 13 7.35698 13 5L13.0088 2.26562Z" fill="#48465C"/>
</svg>
