<svg width="24" height="24" viewBox="0 0 24 24" fill="none" xmlns="http://www.w3.org/2000/svg">
<path d="M14.3184 2.50488C14.6039 2.53818 14.881 2.63819 15.1621 2.76074C15.441 2.88232 15.7819 3.05257 16.2002 3.26172L18.9072 4.61523C19.2181 4.77052 19.4614 4.89247 19.6699 5.05176C20.2066 5.46214 20.5742 6.05612 20.7012 6.71973C20.7504 6.97735 20.7501 7.24924 20.75 7.59668V7.67969C20.75 8.14733 20.7503 8.5282 20.7344 8.83203C20.7182 9.13837 20.6839 9.43085 20.5859 9.70117C20.1514 10.9005 18.9487 11.6438 17.6816 11.4961C17.3961 11.4628 17.119 11.3628 16.8379 11.2402C16.559 11.1186 16.2181 10.9484 15.7998 10.7393L13.0928 9.38574C12.9684 9.32366 12.8548 9.26679 12.75 9.21094V18C12.75 20.6234 10.6234 22.75 8 22.75C5.37665 22.75 3.25 20.6234 3.25 18C3.25003 15.3766 5.37667 13.25 8 13.25C9.25721 13.25 10.4003 13.7386 11.25 14.5361V6C11.2506 5.67556 11.2535 5.40006 11.2656 5.16895C11.2817 4.86258 11.3162 4.57014 11.4141 4.2998C11.8485 3.10036 13.0512 2.35724 14.3184 2.50488Z" fill="#1C274C"/>
</svg>
