<svg width="24" height="24" viewBox="0 0 24 24" fill="none" xmlns="http://www.w3.org/2000/svg">
<path d="M9.46973 13.4697C9.76262 13.1768 10.2374 13.1768 10.5303 13.4697C10.8232 13.7626 10.8232 14.2374 10.5303 14.5303L3.81055 21.25H8C8.38817 21.25 8.70747 21.5449 8.74609 21.9229C8.74868 21.9482 8.75 21.974 8.75 22C8.75 22.0257 8.74862 22.0511 8.74609 22.0762C8.71048 22.4292 8.43008 22.71 8.07715 22.7461C8.05179 22.7487 8.02605 22.75 8 22.75H2C1.6115 22.75 1.29208 22.4546 1.25391 22.0762C1.25138 22.0511 1.25 22.0257 1.25 22V16C1.25 15.974 1.25132 15.9482 1.25391 15.9229C1.29253 15.5449 1.61183 15.25 2 15.25C2.41421 15.25 2.75 15.5858 2.75 16V20.1895L9.46973 13.4697ZM12 2C17.5228 2 22 6.47715 22 12C22 17.5228 17.5228 22 12 22C11.4013 22 10.8149 21.9475 10.2451 21.8467C10.1662 20.6756 9.19104 19.75 8 19.75H7.43164L11.5908 15.5908C12.4695 14.7121 12.4695 13.2879 11.5908 12.4092C10.7121 11.5305 9.28786 11.5305 8.40918 12.4092L4.25 16.5684V16C4.25 14.809 3.32436 13.8338 2.15332 13.7549C2.05247 13.1851 2 12.5987 2 12C2 6.47715 6.47715 2 12 2Z" fill="#1C274C"/>
</svg>
