<svg width="24" height="24" viewBox="0 0 24 24" fill="none" xmlns="http://www.w3.org/2000/svg">
<path d="M12 3.25012C17.3848 3.25012 21.75 7.61534 21.75 13.0001C21.75 18.3849 17.3848 22.7501 12 22.7501C6.61523 22.7501 2.25002 18.3849 2.25 13.0001C2.25 7.61534 6.61522 3.25012 12 3.25012ZM12 4.75012C7.44365 4.75012 3.75 8.44377 3.75 13.0001C3.75002 17.5564 7.44366 21.2501 12 21.2501C16.5563 21.2501 20.25 17.5564 20.25 13.0001C20.25 8.44377 16.5563 4.75012 12 4.75012ZM10.4756 8.25403C10.7504 8.23363 11.0059 8.29224 11.2285 8.37219C11.6293 8.51616 12.0876 8.79505 12.5723 9.08997C12.5919 9.10188 12.6121 9.11414 12.6318 9.1261C12.919 9.30069 13.2022 9.48232 13.457 9.66125C13.7472 9.86499 14.0564 10.105 14.3613 10.3536C14.3767 10.3662 14.3929 10.3792 14.4082 10.3917C14.9058 10.7977 15.3534 11.1625 15.666 11.5265C16.0205 11.9394 16.25 12.4036 16.25 13.0001C16.25 13.5967 16.0205 14.0609 15.666 14.4738C15.3534 14.8378 14.9059 15.2026 14.4082 15.6085L14.3613 15.6466C14.0564 15.8952 13.7471 16.1353 13.457 16.339C13.2022 16.5178 12.919 16.6996 12.6318 16.8741C12.6121 16.8861 12.5919 16.8984 12.5723 16.9103C12.0876 17.2053 11.6293 17.4841 11.2285 17.6281C11.0059 17.7079 10.7504 17.7667 10.4756 17.7462C10.1866 17.7247 9.92766 17.6196 9.70215 17.4503C9.24309 17.1057 9.05905 16.6067 8.96289 16.1105C8.8713 15.6377 8.83602 15.029 8.79492 14.3175L8.79199 14.2657C8.76677 13.8296 8.75 13.395 8.75 13.0001C8.75 12.6052 8.76677 12.1707 8.79199 11.7345L8.79492 11.6827C8.83603 10.9713 8.87129 10.3625 8.96289 9.88977C9.05905 9.39356 9.24309 8.89455 9.70215 8.54993C9.92766 8.38064 10.1866 8.27551 10.4756 8.25403ZM10.6006 9.7511C10.576 9.7699 10.5011 9.83666 10.4355 10.1749C10.3654 10.5367 10.3341 11.0437 10.2891 11.8214C10.2649 12.2401 10.25 12.6438 10.25 13.0001C10.25 13.3565 10.2649 13.7602 10.2891 14.1788C10.3341 14.9565 10.3654 15.4635 10.4355 15.8253C10.5011 16.1635 10.576 16.2304 10.6006 16.2491C10.6194 16.2467 10.6576 16.2389 10.7217 16.2159C10.9611 16.1299 11.2867 15.9369 11.8525 15.5929C12.1216 15.4293 12.3752 15.2656 12.5947 15.1115C12.8453 14.9355 13.1247 14.7198 13.4131 14.4845C13.9718 14.0288 14.3131 13.7468 14.5283 13.4962C14.7109 13.2833 14.75 13.1532 14.75 13.0001C14.75 12.847 14.7109 12.7169 14.5283 12.504C14.3131 12.2534 13.9718 11.9714 13.4131 11.5157C13.1247 11.2805 12.8453 11.0647 12.5947 10.8888C12.3752 10.7346 12.1216 10.571 11.8525 10.4073C11.2867 10.0633 10.9611 9.87029 10.7217 9.7843C10.6576 9.7613 10.6194 9.75353 10.6006 9.7511ZM7.10254 1.36438C7.45377 1.14486 7.91619 1.25146 8.13574 1.60266C8.35527 1.9539 8.24867 2.41632 7.89746 2.63586L3.89746 5.13586C3.54624 5.35537 3.08382 5.24874 2.86426 4.89758C2.64475 4.54636 2.75137 4.08394 3.10254 3.86438L7.10254 1.36438ZM15.8643 1.60266C16.0838 1.25146 16.5462 1.14486 16.8975 1.36438L20.8975 3.86438C21.2487 4.08394 21.3552 4.54637 21.1357 4.89758C20.9162 5.24874 20.4538 5.35537 20.1025 5.13586L16.1025 2.63586C15.7513 2.41632 15.6448 1.95389 15.8643 1.60266Z" fill="#48465C"/>
</svg>
