<svg width="24" height="24" viewBox="0 0 24 24" fill="none" xmlns="http://www.w3.org/2000/svg">
<path d="M12 3.25024C17.3848 3.25024 21.75 7.61546 21.75 13.0002C21.75 18.385 17.3848 22.7502 12 22.7502C6.61523 22.7502 2.25002 18.385 2.25 13.0002C2.25 7.61546 6.61522 3.25024 12 3.25024ZM12 4.75024C7.44365 4.75024 3.75 8.44389 3.75 13.0002C3.75002 17.5565 7.44366 21.2502 12 21.2502C16.5563 21.2502 20.25 17.5565 20.25 13.0002C20.25 8.44389 16.5563 4.75024 12 4.75024ZM10.4756 8.25415C10.7504 8.23376 11.0059 8.29236 11.2285 8.37231C11.6293 8.51628 12.0876 8.79518 12.5723 9.09009C12.5919 9.102 12.6121 9.11426 12.6318 9.12622C12.919 9.30081 13.2022 9.48244 13.457 9.66138C13.7472 9.86511 14.0564 10.1051 14.3613 10.3538C14.3767 10.3664 14.3929 10.3793 14.4082 10.3918C14.9058 10.7978 15.3534 11.1626 15.666 11.5266C16.0205 11.9395 16.25 12.4037 16.25 13.0002C16.25 13.5968 16.0205 14.061 15.666 14.4739C15.3534 14.8379 14.9059 15.2027 14.4082 15.6086L14.3613 15.6467C14.0564 15.8953 13.7471 16.1354 13.457 16.3391C13.2022 16.518 12.919 16.6997 12.6318 16.8743C12.6121 16.8863 12.5919 16.8985 12.5723 16.9104C12.0876 17.2054 11.6293 17.4842 11.2285 17.6282C11.0059 17.7081 10.7504 17.7668 10.4756 17.7463C10.1866 17.7248 9.92766 17.6197 9.70215 17.4504C9.24309 17.1059 9.05905 16.6068 8.96289 16.1106C8.8713 15.6379 8.83602 15.0291 8.79492 14.3176L8.79199 14.2659C8.76677 13.8297 8.75 13.3951 8.75 13.0002C8.75 12.6053 8.76677 12.1708 8.79199 11.7346L8.79492 11.6829C8.83603 10.9714 8.87129 10.3626 8.96289 9.88989C9.05905 9.39369 9.24309 8.89467 9.70215 8.55005C9.92766 8.38076 10.1866 8.27563 10.4756 8.25415ZM10.6006 9.75122C10.576 9.77003 10.5011 9.83678 10.4355 10.175C10.3654 10.5368 10.3341 11.0438 10.2891 11.8215C10.2649 12.2402 10.25 12.6439 10.25 13.0002C10.25 13.3566 10.2649 13.7603 10.2891 14.179C10.3341 14.9567 10.3654 15.4636 10.4355 15.8254C10.5011 16.1637 10.576 16.2305 10.6006 16.2493C10.6194 16.2468 10.6576 16.2391 10.7217 16.2161C10.9611 16.1301 11.2867 15.937 11.8525 15.593C12.1216 15.4294 12.3752 15.2657 12.5947 15.1116C12.8453 14.9357 13.1247 14.7199 13.4131 14.4846C13.9718 14.0289 14.3131 13.7469 14.5283 13.4963C14.7109 13.2835 14.75 13.1533 14.75 13.0002C14.75 12.8471 14.7109 12.717 14.5283 12.5042C14.3131 12.2536 13.9718 11.9716 13.4131 11.5159C13.1247 11.2806 12.8453 11.0648 12.5947 10.8889C12.3752 10.7348 12.1216 10.5711 11.8525 10.4075C11.2867 10.0635 10.9611 9.87041 10.7217 9.78442C10.6576 9.76142 10.6194 9.75365 10.6006 9.75122ZM7.10254 1.3645C7.45377 1.14499 7.9162 1.25159 8.13574 1.60278C8.35527 1.95402 8.24867 2.41644 7.89746 2.63599L3.89746 5.13599C3.54624 5.35549 3.08382 5.24886 2.86426 4.89771C2.64475 4.54648 2.75137 4.08406 3.10254 3.8645L7.10254 1.3645ZM15.8643 1.60278C16.0838 1.25158 16.5462 1.14498 16.8975 1.3645L20.8975 3.8645C21.2487 4.08406 21.3552 4.54649 21.1357 4.89771C20.9162 5.24886 20.4538 5.35549 20.1025 5.13599L16.1025 2.63599C15.7513 2.41644 15.6448 1.95401 15.8643 1.60278Z" fill="#1C274C"/>
</svg>
