<svg width="24" height="24" viewBox="0 0 24 24" fill="none" xmlns="http://www.w3.org/2000/svg">
<path d="M17 7C17.465 7 17.698 6.99967 17.8887 7.05078C18.4061 7.18954 18.8105 7.59397 18.9492 8.11133C19.0003 8.30208 19 8.53501 19 9V15C19 15.465 19.0003 15.698 18.9492 15.8887C18.8105 16.4061 18.4061 16.8105 17.8887 16.9492C17.698 17.0003 17.465 17 17 17C16.535 17 16.302 17.0003 16.1113 16.9492C15.5939 16.8105 15.1895 16.4061 15.0508 15.8887C14.9997 15.698 15 15.465 15 15V12.75H9V15C9 15.465 9.00033 15.698 8.94922 15.8887C8.81046 16.4061 8.40603 16.8105 7.88867 16.9492C7.69792 17.0003 7.46499 17 7 17C6.53501 17 6.30208 17.0003 6.11133 16.9492C5.59397 16.8105 5.18954 16.4061 5.05078 15.8887C4.99967 15.698 5 15.465 5 15V9C5 8.53501 4.99967 8.30208 5.05078 8.11133C5.18954 7.59396 5.59396 7.18954 6.11133 7.05078C6.30208 6.99967 6.53501 7 7 7C7.46499 7 7.69792 6.99967 7.88867 7.05078C8.40604 7.18954 8.81046 7.59396 8.94922 8.11133C9.00033 8.30208 9 8.53501 9 9V11.25H15V9C15 8.53501 14.9997 8.30208 15.0508 8.11133C15.1895 7.59397 15.5939 7.18954 16.1113 7.05078C16.302 6.99967 16.535 7 17 7ZM3.5 13.9375C2.63738 13.7155 2 12.932 2 12C2.00022 11.0682 2.63753 10.2855 3.5 10.0635V13.9375ZM20.5 10.0635C21.3625 10.2855 21.9998 11.0683 22 12C22 12.9319 21.3627 13.7155 20.5 13.9375V10.0635Z" fill="#1C274C"/>
</svg>
