<svg width="24" height="24" viewBox="0 0 24 24" fill="none" xmlns="http://www.w3.org/2000/svg">
<path d="M6.98634 1.25001C7.33762 1.24999 7.56417 1.24987 7.78517 1.27052C8.73645 1.35948 9.63946 1.73302 10.375 2.34278C10.546 2.48449 10.7056 2.64507 10.9541 2.89356L11.5303 3.46974C12.3761 4.31545 12.7016 4.6309 13.0772 4.83985C13.295 4.96106 13.5258 5.05762 13.7656 5.12599C14.1789 5.24379 14.6323 5.25001 15.8281 5.25001H16.2529C17.5259 5.24999 18.5524 5.25047 19.3643 5.35255C20.2055 5.45834 20.9206 5.68372 21.5078 6.21192C21.6061 6.30033 21.6997 6.3939 21.7881 6.4922C22.3163 7.07949 22.5426 7.79443 22.6484 8.63575C22.7504 9.44764 22.75 10.4742 22.75 11.7471V14.0566C22.75 15.8943 22.7498 17.3501 22.5967 18.4893C22.4391 19.6616 22.1066 20.6101 21.3584 21.3584C20.6101 22.1066 19.6616 22.4391 18.4893 22.5967C17.3501 22.7498 15.8943 22.75 14.0566 22.75H9.94337C8.10572 22.75 6.64992 22.7498 5.51075 22.5967C4.33846 22.4391 3.38991 22.1066 2.64161 21.3584C1.89333 20.6101 1.56097 19.6616 1.40333 18.4893C1.25018 17.3501 1.24999 15.8943 1.25001 14.0566V6.85938C1.2499 6.06347 1.24949 5.55665 1.33204 5.11915C1.69461 3.1978 3.1978 1.69461 5.11915 1.33204C5.55665 1.24949 6.06347 1.2499 6.85938 1.25001H6.98634ZM6.9502 2.75001C6.03356 2.75001 5.67874 2.75358 5.39747 2.80665C4.08283 3.05472 3.05472 4.08283 2.80665 5.39747C2.75358 5.67874 2.75001 6.03356 2.75001 6.9502V14C2.75001 15.9067 2.75151 17.2614 2.88966 18.2891C3.02492 19.2952 3.27896 19.8747 3.70216 20.2979C4.12537 20.7211 4.70486 20.9751 5.71095 21.1104C6.7386 21.2485 8.09325 21.25 10 21.25H14C15.9067 21.25 17.2614 21.2484 18.2891 21.1104C19.2952 20.9751 19.8747 20.7211 20.2979 20.2979C20.7211 19.8747 20.9751 19.2952 21.1104 18.2891C21.2484 17.2614 21.25 15.9067 21.25 14V11.7979C21.25 10.4622 21.249 9.5306 21.1602 8.82325C21.0736 8.13461 20.9141 7.7633 20.6729 7.49513C20.6199 7.43623 20.5639 7.38014 20.5049 7.32716C20.2368 7.08596 19.8655 6.92741 19.1768 6.84083C18.4694 6.75191 17.538 6.75001 16.2022 6.75001H15.7178C14.67 6.75023 13.994 6.75066 13.3545 6.56837C13.0039 6.46842 12.6662 6.32764 12.3477 6.1504C11.7665 5.82706 11.2886 5.34946 10.5479 4.60841L9.91993 3.98048C9.63666 3.69721 9.52747 3.58964 9.417 3.49806C8.91375 3.08092 8.29634 2.82455 7.64552 2.76368C7.50278 2.75035 7.35022 2.75001 6.9502 2.75001ZM12 9.25001C12.5017 9.25001 12.8142 9.57499 12.9863 9.79981C13.1506 10.0144 13.3166 10.3117 13.4863 10.6162C13.4939 10.6298 13.5011 10.6436 13.5088 10.6572L13.6074 10.834C13.6302 10.8748 13.6484 10.9071 13.6641 10.9346C13.6913 10.941 13.723 10.9481 13.7627 10.957L13.9541 11C13.9696 11.0036 13.9854 11.0073 14.001 11.0108C14.3286 11.0848 14.6543 11.1583 14.9043 11.2568C15.1804 11.3656 15.5549 11.5781 15.6992 12.042C15.8407 12.4976 15.6619 12.8838 15.5059 13.1318C15.3613 13.3613 15.1418 13.6181 14.917 13.8809C14.9068 13.8926 14.8959 13.9042 14.8858 13.916L14.7559 14.0684C14.7215 14.1088 14.6957 14.1397 14.6738 14.166C14.6768 14.2022 14.6801 14.2444 14.6856 14.3008L14.7061 14.5039C14.7076 14.5194 14.7085 14.5354 14.71 14.5508C14.7442 14.9026 14.7777 15.2426 14.7656 15.5147C14.7529 15.7999 14.6839 16.2314 14.2969 16.5254C13.8974 16.8285 13.4565 16.7628 13.1768 16.6826C12.9191 16.6088 12.6143 16.4686 12.3076 16.3272C12.2929 16.3205 12.2784 16.3134 12.2637 16.3066L12.085 16.2246C12.0516 16.2092 12.024 16.1965 12 16.1856C11.9761 16.1965 11.9485 16.2092 11.915 16.2246L11.7363 16.3066C11.7217 16.3134 11.7071 16.3205 11.6924 16.3272C11.3857 16.4686 11.081 16.6088 10.8233 16.6826C10.5435 16.7628 10.1025 16.8286 9.70313 16.5254C9.31605 16.2314 9.24711 15.7999 9.23438 15.5147C9.22227 15.2426 9.25588 14.9026 9.29005 14.5508C9.29155 14.5354 9.29245 14.5194 9.29395 14.5039L9.31446 14.3008C9.31992 14.2445 9.32321 14.2022 9.32618 14.166C9.30429 14.1397 9.27863 14.1088 9.24415 14.0684L9.11427 13.916C9.10419 13.9043 9.09405 13.8925 9.08399 13.8809C8.85913 13.618 8.6387 13.3614 8.49415 13.1318C8.33802 12.8838 8.15932 12.4976 8.30079 12.042C8.44505 11.5781 8.81957 11.3656 9.09571 11.2568C9.34569 11.1583 9.67136 11.0848 9.99903 11.0108C10.0147 11.0073 10.0312 11.0036 10.0469 11L10.2373 10.957C10.2769 10.9481 10.3087 10.941 10.3359 10.9346C10.3516 10.9071 10.3698 10.8748 10.3926 10.834L10.4912 10.6572C10.4988 10.6436 10.5061 10.6298 10.5137 10.6162C10.6834 10.3117 10.8494 10.0144 11.0137 9.79981C11.1859 9.575 11.4983 9.25001 12 9.25001ZM11.8008 11.3877L11.7031 11.5645C11.6963 11.5768 11.6886 11.59 11.6807 11.6045C11.6022 11.7481 11.4716 11.9858 11.2549 12.1504C11.0335 12.3185 10.767 12.3764 10.6113 12.4102C10.5958 12.4135 10.5815 12.4169 10.5684 12.4199L10.377 12.4629C10.202 12.5026 10.0594 12.5348 9.93751 12.5654C10.0169 12.6631 10.12 12.7847 10.2539 12.9414L10.3838 13.0938C10.3929 13.1045 10.4035 13.1158 10.4141 13.1279C10.522 13.2522 10.6969 13.4538 10.7774 13.7129C10.8569 13.9687 10.8288 14.2321 10.8115 14.3984C10.8098 14.4149 10.808 14.4309 10.8066 14.4453L10.7871 14.6484C10.7689 14.8366 10.7545 14.9872 10.7451 15.1094C10.8493 15.0635 10.9686 15.0092 11.1094 14.9443L11.2881 14.8613C11.3003 14.8557 11.3137 14.8496 11.3281 14.8428C11.4716 14.7751 11.7213 14.6572 12 14.6572C12.2787 14.6572 12.5284 14.7751 12.6719 14.8428C12.6863 14.8496 12.6997 14.8557 12.7119 14.8613L12.8906 14.9443C13.0314 15.0092 13.1507 15.0635 13.2549 15.1094C13.2454 14.9872 13.2311 14.8366 13.2129 14.6484L13.1934 14.4453C13.192 14.4309 13.1902 14.4149 13.1885 14.3984C13.1711 14.2321 13.1433 13.9687 13.2227 13.7129C13.3033 13.4538 13.4779 13.2522 13.5859 13.1279C13.5966 13.1157 13.6071 13.1045 13.6162 13.0938L13.7461 12.9414C13.8801 12.7847 13.9832 12.6631 14.0625 12.5654C13.9406 12.5348 13.798 12.5026 13.6231 12.4629L13.4316 12.4199C13.4185 12.4169 13.4042 12.4135 13.3887 12.4102C13.233 12.3764 12.9665 12.3185 12.7451 12.1504C12.5284 11.9858 12.3979 11.7481 12.3193 11.6045C12.3115 11.59 12.3037 11.5768 12.2969 11.5645L12.1992 11.3877C12.123 11.251 12.0581 11.1349 12 11.0342C11.9419 11.1349 11.8769 11.251 11.8008 11.3877Z" fill="#1C274C"/>
</svg>
