<svg width="24" height="24" viewBox="0 0 24 24" fill="none" xmlns="http://www.w3.org/2000/svg">
<path d="M13.2617 4.80762C13.3681 4.40732 13.7794 4.16899 14.1797 4.27539C14.5799 4.38185 14.8182 4.79309 14.7119 5.19336L10.7246 20.1934C10.6181 20.5934 10.2078 20.8317 9.80762 20.7256C9.4073 20.6192 9.16899 20.2079 9.27539 19.8076L13.2617 4.80762ZM15.4424 10.498C15.7195 10.1903 16.1941 10.1654 16.502 10.4424L18.2393 12.0068C18.9756 12.6694 19.5865 13.2192 20.0059 13.7178C20.4467 14.242 20.7607 14.8049 20.7607 15.5C20.7607 16.1953 20.4469 16.759 20.0059 17.2832C19.5865 17.7818 18.9756 18.3316 18.2393 18.9941L16.502 20.5576C16.1941 20.8347 15.7195 20.8099 15.4424 20.502C15.1653 20.1941 15.1902 19.7195 15.498 19.4424L17.1943 17.916C17.9821 17.207 18.5133 16.7263 18.8574 16.3174C19.1877 15.9248 19.2607 15.6954 19.2607 15.5C19.2607 15.3046 19.1876 15.0751 18.8574 14.6826C18.5133 14.2737 17.9819 13.7938 17.1943 13.085L15.498 11.5576C15.1903 11.2805 15.1653 10.8059 15.4424 10.498ZM7.49805 4.27246C7.80593 3.99536 8.28053 4.02024 8.55762 4.32812C8.83464 4.63602 8.8098 5.11062 8.50195 5.3877L6.80566 6.91406C6.01789 7.62306 5.48668 8.1037 5.14258 8.5127C4.81233 8.90528 4.74023 9.13465 4.74023 9.33008C4.7403 9.52544 4.81249 9.75505 5.14258 10.1475C5.48669 10.5564 6.0181 11.0363 6.80566 11.7451L8.50195 13.2725C8.80956 13.5495 8.83438 14.0232 8.55762 14.3311C8.28054 14.6389 7.80593 14.6648 7.49805 14.3877L5.76074 12.8232C5.02448 12.1607 4.41352 11.6109 3.99414 11.1123C3.55328 10.5882 3.23934 10.0251 3.23926 9.33008C3.23926 8.63478 3.55311 8.07112 3.99414 7.54688C4.41355 7.04831 5.0244 6.4986 5.76074 5.83594L7.49805 4.27246Z" fill="#1C274C"/>
</svg>
