<svg width="24" height="24" viewBox="0 0 24 24" fill="none" xmlns="http://www.w3.org/2000/svg">
<path d="M9 14.2501C9.41418 14.2501 9.75 14.5859 9.75 15.0001V20.8575C9.74979 21.2716 9.41405 21.6075 9 21.6075C8.58592 21.6075 8.25021 21.2716 8.25 20.8575V16.8106L2.53027 22.5303C2.23741 22.8232 1.76262 22.8232 1.46973 22.5303C1.17684 22.2374 1.17684 21.7627 1.46973 21.4698L7.18945 15.7501H3.14258C2.72848 15.7499 2.39261 15.4142 2.39258 15.0001C2.39258 14.5859 2.72846 14.2502 3.14258 14.2501H9ZM21.4697 1.46979C21.7626 1.1769 22.2374 1.1769 22.5303 1.46979C22.8231 1.76268 22.8231 2.23747 22.5303 2.53033L16.8105 8.25006H20.8574C21.2715 8.25027 21.6074 8.58598 21.6074 9.00006C21.6074 9.41412 21.2715 9.74986 20.8574 9.75006H15C14.5858 9.75006 14.25 9.41424 14.25 9.00006V3.14264C14.2501 2.72852 14.5859 2.39264 15 2.39264C15.4141 2.39267 15.7499 2.72854 15.75 3.14264V7.18951L21.4697 1.46979Z" fill="#48465C"/>
</svg>
