<svg width="24" height="24" viewBox="0 0 24 24" fill="none" xmlns="http://www.w3.org/2000/svg">
<path fill-rule="evenodd" clip-rule="evenodd" d="M9 14.2499C9.41418 14.25 9.75 14.5858 9.75 14.9999V20.8574C9.7498 21.2715 9.41406 21.6073 9 21.6074C8.58592 21.6074 8.25021 21.2715 8.25 20.8574V16.8105L2.53028 22.5302C2.23741 22.8231 1.76262 22.823 1.46973 22.5302C1.17684 22.2373 1.17684 21.7626 1.46973 21.4697L7.18946 15.7499H3.14258C2.72848 15.7498 2.39261 15.414 2.39258 14.9999C2.39258 14.5858 2.72846 14.2501 3.14258 14.2499H9ZM21.4697 1.46967C21.7626 1.17678 22.2374 1.17678 22.5303 1.46967C22.8231 1.76256 22.8231 2.23735 22.5303 2.53021L16.8105 8.24994H20.8574C21.2715 8.25015 21.6074 8.58586 21.6074 8.99994C21.6074 9.414 21.2715 9.74973 20.8574 9.74994H15C14.5858 9.74994 14.25 9.41412 14.25 8.99994V3.14252C14.2501 2.7284 14.5859 2.39252 15 2.39252C15.4141 2.39255 15.7499 2.72842 15.75 3.14252V7.18939L21.4697 1.46967Z" fill="#1C274C"/>
</svg>
