<svg width="24" height="24" viewBox="0 0 24 24" fill="none" xmlns="http://www.w3.org/2000/svg">
<path d="M18.4307 4.15234C19.4976 4.30065 20.2499 4.59365 20.8281 5.17188C21.9997 6.34346 22 8.22882 22 12C22 15.7711 21.9997 17.6566 20.8281 18.8281C19.6566 19.9997 17.7712 20 14 20H10C6.22882 20 4.34346 19.9997 3.17188 18.8281C2.00031 17.6566 2 15.7711 2 12C2 8.22881 2.00035 6.34346 3.17188 5.17188C3.75 4.59376 4.50172 4.30068 5.56836 4.15234L6.33887 6.20508C6.56207 6.80034 6.75029 7.30441 6.95117 7.7002C7.16488 8.12115 7.42341 8.48535 7.81934 8.75977C8.21535 9.03421 8.64697 9.1479 9.11621 9.2002C9.5574 9.24935 10.0955 9.25002 10.7314 9.25H13.2686C13.9044 9.25002 14.4427 9.24936 14.8838 9.2002C15.353 9.14788 15.7847 9.03414 16.1807 8.75977C16.5764 8.48537 16.8342 8.12105 17.0479 7.7002C17.2488 7.30437 17.4379 6.80046 17.6611 6.20508L18.4307 4.15234ZM8.41699 10.7549C8.36177 10.7518 8.30598 10.75 8.25 10.75C6.59315 10.75 5.25 12.0931 5.25 13.75C5.25005 15.4069 6.59318 16.75 8.25 16.75C8.30598 16.75 8.36177 16.7482 8.41699 16.7451C8.44425 16.7482 8.47194 16.75 8.5 16.75H16C16.0851 16.75 16.167 16.7361 16.2432 16.71C17.6652 16.4747 18.75 15.2388 18.75 13.75C18.75 12.2612 17.6653 11.0253 16.2432 10.79C16.1669 10.7639 16.0851 10.75 16 10.75H8.5C8.47193 10.75 8.44426 10.7518 8.41699 10.7549ZM8.25 12.25C9.07843 12.25 9.75 12.9216 9.75 13.75C9.75 14.5784 9.07843 15.25 8.25 15.25C7.42157 15.25 6.75 14.5784 6.75 13.75C6.75 12.9216 7.42157 12.25 8.25 12.25ZM13.1514 12.25C12.8962 12.6913 12.75 13.2036 12.75 13.75C12.75 14.2964 12.8962 14.8087 13.1514 15.25H10.8486C11.1038 14.8087 11.25 14.2964 11.25 13.75C11.25 13.2036 11.1038 12.6913 10.8486 12.25H13.1514ZM15.75 12.25C16.5784 12.25 17.25 12.9216 17.25 13.75C17.25 14.5784 16.5784 15.25 15.75 15.25C14.9216 15.25 14.25 14.5784 14.25 13.75C14.25 12.9216 14.9216 12.25 15.75 12.25ZM14 4C15.1123 4 16.0607 4.00021 16.875 4.03027L16.2705 5.64062C16.0292 6.28408 15.8687 6.70893 15.71 7.02148C15.5599 7.3171 15.444 7.44562 15.3262 7.52734C15.2082 7.60902 15.0472 7.6732 14.7178 7.70996C14.3694 7.74878 13.9147 7.75 13.2275 7.75H10.7715C10.0845 7.75 9.63053 7.74877 9.28223 7.70996C8.95267 7.67322 8.79173 7.60902 8.67383 7.52734C8.55591 7.44562 8.43922 7.31726 8.28906 7.02148C8.13042 6.70895 7.96977 6.28397 7.72852 5.64062L7.125 4.03027C7.93932 4.00021 8.88763 4 10 4H14Z" fill="#1C274C"/>
</svg>
