<svg width="24" height="24" viewBox="0 0 24 24" fill="none" xmlns="http://www.w3.org/2000/svg">
<path d="M21.5009 15.4404C21.8093 15.1656 22.2825 15.1913 22.5585 15.499C22.8351 15.8073 22.8092 16.282 22.5009 16.5586L22.4989 16.5596L22.4979 16.5615L22.493 16.5654L22.4794 16.5771C22.4683 16.5867 22.4534 16.5996 22.4344 16.6152C22.3964 16.647 22.3421 16.6912 22.2723 16.7451C22.1328 16.8529 21.9294 17.001 21.663 17.1738C21.1299 17.5195 20.3422 17.9649 19.2997 18.3818L16.4911 19.5049C16.4524 19.5204 16.4139 19.5355 16.3759 19.5508C14.4991 20.3017 13.3791 20.75 11.9999 20.75C10.6208 20.75 9.50144 20.3016 7.62488 19.5508C7.58664 19.5355 7.54755 19.5205 7.50867 19.5049L4.70007 18.3818C3.65745 17.9649 2.86988 17.5195 2.33679 17.1738C2.07022 17.0009 1.8669 16.8529 1.72742 16.7451C1.65776 16.6913 1.60432 16.647 1.56628 16.6152C1.54725 16.5994 1.5315 16.5867 1.52039 16.5771L1.50671 16.5654L1.50183 16.5615L1.50085 16.5596L1.49988 16.5586C1.19157 16.282 1.16479 15.8073 1.44128 15.499C1.71731 15.1913 2.19052 15.1656 2.4989 15.4404L2.49988 15.4414L2.50281 15.4434C2.50725 15.4473 2.51546 15.4541 2.52722 15.4639C2.55116 15.4839 2.59028 15.5158 2.64441 15.5576C2.75316 15.6417 2.92329 15.7659 3.1532 15.915C3.61305 16.2132 4.3146 16.611 5.25769 16.9883L8.06628 18.1123C10.0907 18.922 10.9396 19.25 11.9999 19.25C13.0603 19.25 13.9095 18.9222 15.9344 18.1123L18.743 16.9883C19.686 16.611 20.3878 16.2132 20.8475 15.915C21.0772 15.7661 21.2467 15.6417 21.3553 15.5576C21.4095 15.5158 21.4486 15.4839 21.4725 15.4639C21.4842 15.4541 21.4925 15.4473 21.4969 15.4434L21.4999 15.4414L21.5009 15.4404ZM21.5009 11.4404C21.8093 11.1656 22.2825 11.1913 22.5585 11.499C22.8351 11.8073 22.8092 12.282 22.5009 12.5586L22.4989 12.5596L22.4979 12.5615L22.493 12.5654L22.4794 12.5771C22.4683 12.5867 22.4534 12.5996 22.4344 12.6152C22.3964 12.647 22.3421 12.6912 22.2723 12.7451C22.1328 12.8529 21.9294 13.001 21.663 13.1738C21.1299 13.5195 20.3422 13.9649 19.2997 14.3818L16.4911 15.5049C16.4524 15.5204 16.4139 15.5355 16.3759 15.5508C14.4991 16.3017 13.3791 16.75 11.9999 16.75C10.6208 16.75 9.50144 16.3016 7.62488 15.5508C7.58664 15.5355 7.54755 15.5205 7.50867 15.5049L4.70007 14.3818C3.65745 13.9649 2.86988 13.5195 2.33679 13.1738C2.07022 13.0009 1.8669 12.8529 1.72742 12.7451C1.65776 12.6913 1.60432 12.647 1.56628 12.6152C1.54725 12.5994 1.5315 12.5867 1.52039 12.5771L1.50671 12.5654L1.50183 12.5615L1.50085 12.5596L1.49988 12.5586C1.19157 12.282 1.16479 11.8073 1.44128 11.499C1.71732 11.1913 2.19052 11.1655 2.4989 11.4404L2.50281 11.4434C2.50725 11.4473 2.51546 11.4541 2.52722 11.4639C2.55116 11.4839 2.59028 11.5158 2.64441 11.5576C2.75316 11.6417 2.92329 11.7659 3.1532 11.915C3.61305 12.2132 4.3146 12.611 5.25769 12.9883L8.06628 14.1123C10.0907 14.922 10.9396 15.25 11.9999 15.25C13.0603 15.25 13.9095 14.9222 15.9344 14.1123L18.743 12.9883C19.686 12.611 20.3878 12.2132 20.8475 11.915C21.0772 11.7661 21.2467 11.6417 21.3553 11.5576C21.4095 11.5158 21.4486 11.4839 21.4725 11.4639C21.4842 11.4541 21.4925 11.4473 21.4969 11.4434L21.4999 11.4414L21.5009 11.4404ZM11.9999 3.25C13.3791 3.25 14.4991 3.69828 16.3759 4.44922C16.4139 4.46446 16.4524 4.47963 16.4911 4.49512L19.3446 5.63672C20.2991 6.01853 21.0727 6.3282 21.6034 6.60645C21.8719 6.7472 22.1322 6.90629 22.3329 7.09863C22.5391 7.29637 22.7499 7.59658 22.7499 8C22.7499 8.40342 22.5391 8.70363 22.3329 8.90137C22.1322 9.09371 21.8719 9.2528 21.6034 9.39355C21.0727 9.67179 20.2991 9.98146 19.3446 10.3633L16.4911 11.5049C16.4524 11.5204 16.4139 11.5355 16.3759 11.5508C14.4991 12.3017 13.3791 12.75 11.9999 12.75C10.6208 12.75 9.50144 12.3016 7.62488 11.5508C7.58664 11.5355 7.54755 11.5205 7.50867 11.5049L4.65515 10.3633C3.70056 9.98147 2.9271 9.6718 2.39636 9.39355C2.12788 9.25279 1.86744 9.09373 1.66687 8.90137C1.46071 8.70363 1.24988 8.40342 1.24988 8C1.24988 7.59658 1.46071 7.29637 1.66687 7.09863C1.86744 6.90627 2.12788 6.74721 2.39636 6.60645C2.9271 6.3282 3.70056 6.01854 4.65515 5.63672L7.50867 4.49512C7.54755 4.47957 7.58664 4.46452 7.62488 4.44922C9.50144 3.69837 10.6208 3.25002 11.9999 3.25ZM11.9999 4.75C10.9396 4.75002 10.0907 5.07793 8.06628 5.8877L5.25769 7.01172C4.24726 7.41589 3.54647 7.69665 3.09265 7.93457C3.0484 7.95777 3.00843 7.97963 2.97253 8C3.00843 8.02037 3.0484 8.04223 3.09265 8.06543C3.54647 8.30335 4.24726 8.58411 5.25769 8.98828L8.06628 10.1123C10.0907 10.922 10.9396 11.25 11.9999 11.25C13.0603 11.25 13.9095 10.9222 15.9344 10.1123L18.743 8.98828C19.7532 8.58423 20.4533 8.30331 20.9071 8.06543C20.9514 8.0422 20.9913 8.0204 21.0272 8C20.9913 7.9796 20.9514 7.9578 20.9071 7.93457C20.4533 7.69669 19.7532 7.41577 18.743 7.01172L15.9344 5.8877C13.9095 5.07777 13.0603 4.75 11.9999 4.75Z" fill="#1C274C"/>
</svg>
