<svg width="24" height="24" viewBox="0 0 24 24" fill="none" xmlns="http://www.w3.org/2000/svg">
<path d="M15.002 3.25098C16.5489 3.25551 17.8025 3.28051 18.8086 3.45117C19.8366 3.62559 20.6803 3.96355 21.3584 4.6416C22.1066 5.38991 22.439 6.33847 22.5967 7.51074C22.7498 8.64988 22.75 10.1058 22.75 11.9434V12.0566C22.75 13.8943 22.7498 15.3501 22.5967 16.4893C22.439 17.6615 22.1066 18.6101 21.3584 19.3584C20.6101 20.1066 19.6615 20.439 18.4893 20.5967C17.3501 20.7498 15.8943 20.75 14.0566 20.75H9.94336C8.10571 20.75 6.64991 20.7498 5.51074 20.5967C4.33845 20.439 3.38991 20.1066 2.6416 19.3584C1.89332 18.6101 1.56095 17.6615 1.40332 16.4893C1.25016 15.3501 1.24998 13.8944 1.25 12.0566V11.9434C1.24998 10.1057 1.25016 8.64989 1.40332 7.51074C1.56096 6.33846 1.89331 5.38991 2.6416 4.6416C3.31968 3.96354 4.16343 3.62559 5.19141 3.45117C6.19753 3.28051 7.45111 3.25551 8.99805 3.25098C9.41215 3.24989 9.74879 3.58488 9.75 3.99902C9.75108 4.41313 9.41609 4.74977 9.00195 4.75098C7.43506 4.75556 6.30599 4.78418 5.44238 4.93066C4.60052 5.07351 4.08717 5.31715 3.70215 5.70215C3.27894 6.12536 3.02491 6.70485 2.88965 7.71094C2.75149 8.73858 2.75 10.0933 2.75 12C2.75 13.9067 2.7515 15.2614 2.88965 16.2891C3.02491 17.295 3.27895 17.8747 3.70215 18.2979C4.12536 18.7211 4.70485 18.9752 5.71094 19.1104C6.73859 19.2485 8.09324 19.25 10 19.25H14C15.9067 19.25 17.2614 19.2485 18.2891 19.1104C19.2951 18.9752 19.8747 18.7211 20.2979 18.2979C20.721 17.8747 20.9752 17.295 21.1104 16.2891C21.2485 15.2614 21.25 13.9067 21.25 12C21.25 10.0933 21.2485 8.73858 21.1104 7.71094C20.9752 6.70485 20.7211 6.12536 20.2979 5.70215C19.9129 5.31715 19.3994 5.07351 18.5576 4.93066C17.694 4.78418 16.5649 4.75556 14.998 4.75098C14.5839 4.74977 14.2489 4.41313 14.25 3.99902C14.2512 3.58489 14.5879 3.2499 15.002 3.25098ZM13.5 13.25C13.9142 13.25 14.25 13.5858 14.25 14C14.25 14.4142 13.9142 14.75 13.5 14.75H8C7.58579 14.75 7.25 14.4142 7.25 14C7.25 13.5858 7.58579 13.25 8 13.25H13.5ZM16 9.75C16.4142 9.75 16.75 10.0858 16.75 10.5C16.75 10.9142 16.4142 11.25 16 11.25H8C7.58579 11.25 7.25 10.9142 7.25 10.5C7.25 10.0858 7.58579 9.75 8 9.75H16ZM12 2.25C12.4142 2.25 12.75 2.58579 12.75 3V5C12.75 5.41421 12.4142 5.75 12 5.75C11.5858 5.75 11.25 5.41421 11.25 5V3C11.25 2.58579 11.5858 2.25 12 2.25Z" fill="#1C274C"/>
</svg>
