<svg width="24" height="24" viewBox="0 0 24 24" fill="none" xmlns="http://www.w3.org/2000/svg">
<path d="M13.0547 1.25C14.4222 1.24998 15.5246 1.24968 16.3916 1.36621C17.2917 1.48723 18.0495 1.74671 18.6514 2.34863C19.2533 2.95055 19.5128 3.7083 19.6338 4.6084C19.7503 5.47534 19.75 6.57782 19.75 7.94531V16.0547C19.75 17.4222 19.7503 18.5246 19.6338 19.3916C19.5128 20.2917 19.2533 21.0494 18.6514 21.6514C18.0495 22.2533 17.2917 22.5128 16.3916 22.6338C15.5246 22.7503 14.4222 22.75 13.0547 22.75H10.9453C9.57785 22.75 8.47534 22.7503 7.6084 22.6338C6.70829 22.5128 5.95055 22.2533 5.34863 21.6514C4.74673 21.0494 4.48723 20.2917 4.36621 19.3916C4.24968 18.5246 4.24998 17.4222 4.25 16.0547V7.94531C4.24998 6.57783 4.24968 5.47534 4.36621 4.6084C4.48723 3.70829 4.74671 2.95055 5.34863 2.34863C5.95055 1.74671 6.70829 1.48723 7.6084 1.36621C8.47534 1.24968 9.57785 1.24998 10.9453 1.25H13.0547ZM11 2.75C9.56484 2.75 8.5639 2.75201 7.80859 2.85352C7.07482 2.95217 6.68594 3.13242 6.40918 3.40918C6.13242 3.68594 5.95217 4.07482 5.85352 4.80859C5.75201 5.5639 5.75 6.56484 5.75 8V16C5.75 17.4354 5.75196 18.437 5.85352 19.1924C5.95218 19.9258 6.13249 20.3141 6.40918 20.5908C6.68594 20.8676 7.07481 21.0478 7.80859 21.1465C8.5639 21.2479 9.56484 21.25 11 21.25H13C14.4354 21.25 15.437 21.248 16.1924 21.1465C16.9258 21.0478 17.3141 20.8676 17.5908 20.5908C17.8676 20.3141 18.0478 19.9258 18.1465 19.1924C18.248 18.437 18.25 17.4354 18.25 16V8C18.25 6.56485 18.2479 5.5639 18.1465 4.80859C18.0478 4.07482 17.8676 3.68594 17.5908 3.40918C17.3141 3.13249 16.9258 2.95218 16.1924 2.85352C15.437 2.75196 14.4354 2.75 13 2.75H11ZM2 4.25C2.41421 4.25 2.75 4.58579 2.75 5V19C2.75 19.4142 2.41421 19.75 2 19.75C1.58579 19.75 1.25 19.4142 1.25 19V5C1.25 4.58579 1.58579 4.25 2 4.25ZM22 4.25C22.4142 4.25 22.75 4.58579 22.75 5V19C22.75 19.4142 22.4142 19.75 22 19.75C21.5858 19.75 21.25 19.4142 21.25 19V5C21.25 4.58579 21.5858 4.25 22 4.25ZM12 16.25C12.4142 16.25 12.75 16.5858 12.75 17C12.75 17.4142 12.4142 17.75 12 17.75H9C8.58579 17.75 8.25 17.4142 8.25 17C8.25 16.5858 8.58579 16.25 9 16.25H12ZM15 12.25C15.4142 12.25 15.75 12.5858 15.75 13C15.75 13.4142 15.4142 13.75 15 13.75H9C8.58579 13.75 8.25 13.4142 8.25 13C8.25 12.5858 8.58579 12.25 9 12.25H15ZM15 8.25C15.4142 8.25 15.75 8.58579 15.75 9C15.75 9.41421 15.4142 9.75 15 9.75H9C8.58579 9.75 8.25 9.41421 8.25 9C8.25 8.58579 8.58579 8.25 9 8.25H15Z" fill="#1C274C"/>
</svg>
