<svg width="24" height="24" viewBox="0 0 24 24" fill="none" xmlns="http://www.w3.org/2000/svg">
<path d="M22 20.25C22.4142 20.25 22.75 20.5858 22.75 21C22.75 21.4142 22.4142 21.75 22 21.75H2C1.58579 21.75 1.25 21.4142 1.25 21C1.25 20.5858 1.58579 20.25 2 20.25H22ZM15.0547 2.25C16.4222 2.24998 17.5246 2.24968 18.3916 2.36621C19.2917 2.48723 20.0494 2.74673 20.6514 3.34863C21.2533 3.95055 21.5128 4.70829 21.6338 5.6084C21.7503 6.47534 21.75 7.57782 21.75 8.94531V14.0518C21.75 14.9503 21.7499 15.7001 21.6699 16.2949C21.5855 16.9225 21.3997 17.489 20.9443 17.9443C20.489 18.3997 19.9225 18.5855 19.2949 18.6699C18.7001 18.7499 17.9503 18.75 17.0518 18.75H6.94824C6.04975 18.75 5.29986 18.7499 4.70508 18.6699C4.07748 18.5855 3.51102 18.3997 3.05566 17.9443C2.6003 17.489 2.41452 16.9225 2.33008 16.2949C2.25011 15.7001 2.24997 14.9503 2.25 14.0518V8.94531C2.24998 7.57782 2.24968 6.47534 2.36621 5.6084C2.48723 4.70829 2.74671 3.95055 3.34863 3.34863C3.95055 2.74671 4.70829 2.48723 5.6084 2.36621C6.47534 2.24968 7.57782 2.24998 8.94531 2.25H15.0547ZM9 3.75C7.56484 3.75 6.5639 3.75201 5.80859 3.85352C5.07481 3.95217 4.68594 4.13242 4.40918 4.40918C4.13242 4.68594 3.95217 5.07482 3.85352 5.80859C3.75201 6.5639 3.75 7.56484 3.75 9V14C3.75 14.964 3.75146 15.6117 3.81641 16.0947C3.87845 16.5561 3.98591 16.7535 4.11621 16.8838C4.24651 17.0141 4.44389 17.1215 4.90527 17.1836C5.38831 17.2485 6.03599 17.25 7 17.25H17C17.964 17.25 18.6117 17.2485 19.0947 17.1836C19.5561 17.1215 19.7535 17.0141 19.8838 16.8838C20.0141 16.7535 20.1215 16.5561 20.1836 16.0947C20.2485 15.6117 20.25 14.964 20.25 14V9C20.25 7.56485 20.2479 6.5639 20.1465 5.80859C20.0478 5.07482 19.8676 4.68594 19.5908 4.40918C19.3141 4.13249 18.9258 3.95218 18.1924 3.85352C17.437 3.75196 16.4354 3.75 15 3.75H9ZM15 14.25C15.4142 14.25 15.75 14.5858 15.75 15C15.75 15.4142 15.4142 15.75 15 15.75H9C8.58579 15.75 8.25 15.4142 8.25 15C8.25 14.5858 8.58579 14.25 9 14.25H15Z" fill="#1C274C"/>
</svg>
