<svg width="24" height="24" viewBox="0 0 24 24" fill="none" xmlns="http://www.w3.org/2000/svg">
<path d="M21 14.25C21.4142 14.25 21.75 14.5858 21.75 15V15.0547C21.75 16.4222 21.7503 17.5246 21.6338 18.3916C21.5128 19.2917 21.2533 20.0495 20.6514 20.6514C20.0494 21.2533 19.2917 21.5128 18.3916 21.6338C17.5246 21.7503 16.4222 21.75 15.0547 21.75H8.94531C7.57782 21.75 6.47534 21.7503 5.6084 21.6338C4.7083 21.5128 3.95055 21.2533 3.34863 20.6514C2.74671 20.0495 2.48723 19.2917 2.36621 18.3916C2.24968 17.5246 2.24998 16.4222 2.25 15.0547V15C2.25 14.5858 2.58579 14.25 3 14.25C3.41422 14.25 3.75 14.5858 3.75 15C3.75 16.4354 3.75196 17.437 3.85352 18.1924C3.95218 18.9258 4.13249 19.3141 4.40918 19.5908C4.68594 19.8676 5.07482 20.0478 5.80859 20.1465C6.5639 20.2479 7.56485 20.25 9 20.25H15C16.4354 20.25 17.437 20.248 18.1924 20.1465C18.9258 20.0478 19.3141 19.8676 19.5908 19.5908C19.8676 19.3141 20.0478 18.9258 20.1465 18.1924C20.248 17.437 20.25 16.4354 20.25 15C20.25 14.5858 20.5858 14.25 21 14.25ZM12 2.25C12.4142 2.25 12.75 2.58579 12.75 3V14.0684L15.4463 11.1191C15.7257 10.8135 16.2002 10.792 16.5059 11.0713C16.8115 11.3507 16.833 11.8252 16.5537 12.1309L12.5537 16.5059C12.4116 16.6613 12.2106 16.75 12 16.75C11.7894 16.75 11.5884 16.6613 11.4463 16.5059L7.44629 12.1309C7.16701 11.8252 7.18852 11.3507 7.49414 11.0713C7.79986 10.792 8.27428 10.8135 8.55371 11.1191L11.25 14.0684V3C11.25 2.58579 11.5858 2.25 12 2.25Z" fill="#1C274C"/>
</svg>
