<svg width="24" height="24" viewBox="0 0 24 24" fill="none" xmlns="http://www.w3.org/2000/svg">
<path d="M6.95898 14.25C7.37297 14.2503 7.70898 14.586 7.70898 15V22C7.70898 22.414 7.37297 22.7497 6.95898 22.75C6.54477 22.75 6.20898 22.4142 6.20898 22V15C6.20898 14.5858 6.54477 14.25 6.95898 14.25ZM16.959 19.25C17.373 19.2503 17.709 19.586 17.709 20V22C17.709 22.414 17.373 22.7497 16.959 22.75C16.5448 22.75 16.209 22.4142 16.209 22V20C16.209 19.5858 16.5448 19.25 16.959 19.25ZM17 10.75C19.0711 10.75 20.75 12.4289 20.75 14.5C20.75 16.5711 19.0711 18.25 17 18.25C14.9289 18.25 13.25 16.5711 13.25 14.5C13.25 12.4289 14.9289 10.75 17 10.75ZM17 12.25C15.7574 12.25 14.75 13.2574 14.75 14.5C14.75 15.7426 15.7574 16.75 17 16.75C18.2426 16.75 19.25 15.7426 19.25 14.5C19.25 13.2574 18.2426 12.25 17 12.25ZM7 5.75C9.07107 5.75 10.75 7.42893 10.75 9.5C10.75 11.5711 9.07107 13.25 7 13.25C4.92893 13.25 3.25 11.5711 3.25 9.5C3.25 7.42893 4.92893 5.75 7 5.75ZM7 7.25C5.75736 7.25 4.75 8.25736 4.75 9.5C4.75 10.7426 5.75736 11.75 7 11.75C8.24264 11.75 9.25 10.7426 9.25 9.5C9.25 8.25736 8.24264 7.25 7 7.25ZM16.959 1.25C17.373 1.25026 17.709 1.58595 17.709 2V9C17.709 9.41405 17.373 9.74974 16.959 9.75C16.5448 9.75 16.209 9.41421 16.209 9V2C16.209 1.58579 16.5448 1.25 16.959 1.25ZM6.95898 1.25C7.37297 1.25026 7.70898 1.58595 7.70898 2V4C7.70898 4.41405 7.37297 4.74974 6.95898 4.75C6.54477 4.75 6.20898 4.41421 6.20898 4V2C6.20898 1.58579 6.54477 1.25 6.95898 1.25Z" fill="#1C274C"/>
</svg>
