<svg width="24" height="24" viewBox="0 0 24 24" fill="none" xmlns="http://www.w3.org/2000/svg">
<path d="M13 17.75C13.964 17.75 14.6117 17.7515 15.0947 17.8164C15.5561 17.8785 15.7535 17.9859 15.8838 18.1162C16.0141 18.2465 16.1215 18.4439 16.1836 18.9053C16.2485 19.3883 16.25 20.036 16.25 21V21.9316C15.0942 22.0003 13.7004 22 12 22C10.2996 22 8.9058 22.0003 7.75 21.9316V21C7.75 20.036 7.75146 19.3883 7.81641 18.9053C7.87845 18.4439 7.98591 18.2465 8.11621 18.1162C8.24651 17.9859 8.44389 17.8785 8.90527 17.8164C9.38831 17.7515 10.036 17.75 11 17.75H13ZM12 2C12.3414 2 12.512 2.00049 12.6855 2.01562C13.4948 2.08629 14.2879 2.41421 14.9102 2.93652C15.0434 3.04848 15.1669 3.17277 15.4141 3.41992L20.5811 8.58594C20.8283 8.83312 20.9514 8.95741 21.0635 9.09082C21.5857 9.71302 21.9138 10.5052 21.9844 11.3145C21.9996 11.488 22 11.6586 22 12C22 16.714 21.9997 19.0708 20.5352 20.5352C19.8512 21.2193 18.9727 21.584 17.75 21.7783V20.9482C17.75 20.0497 17.7499 19.2999 17.6699 18.7051C17.5855 18.0775 17.3997 17.511 16.9443 17.0557C16.489 16.6003 15.9225 16.4145 15.2949 16.3301C14.7001 16.2501 13.9503 16.25 13.0518 16.25H10.9482C10.0497 16.25 9.29986 16.2501 8.70508 16.3301C8.07748 16.4145 7.51102 16.6003 7.05566 17.0557C6.6003 17.511 6.41452 18.0775 6.33008 18.7051C6.25012 19.2999 6.24997 20.0497 6.25 20.9482V21.7783C5.02729 21.584 4.14887 21.2192 3.46484 20.5352C2.00037 19.0708 2 16.714 2 12C2 7.28595 2.00037 4.9293 3.46484 3.46484C4.9293 2.00037 7.28595 2 12 2ZM7 7.25C6.58579 7.25 6.25 7.58579 6.25 8C6.25 8.41421 6.58579 8.75 7 8.75H13C13.4142 8.75 13.75 8.41421 13.75 8C13.75 7.58579 13.4142 7.25 13 7.25H7Z" fill="#1C274C"/>
</svg>
