<svg width="24" height="24" viewBox="0 0 24 24" fill="none" xmlns="http://www.w3.org/2000/svg">
<path d="M15.7715 8.66699C17.2628 8.66699 18.0086 8.66648 18.4502 9.15332C18.8917 9.64017 18.8428 10.4089 18.7451 11.9453L18.4854 16.0254C18.3053 18.8573 18.2152 20.2735 17.335 21.1367C16.4548 21.9998 15.1009 22 12.3936 22H11.6064C8.89915 22 7.54519 21.9999 6.66504 21.1367C5.78495 20.2735 5.69474 18.8572 5.51465 16.0254L5.25586 11.9453C5.15814 10.4088 5.10922 9.64017 5.55078 9.15332C5.99237 8.66665 6.73834 8.66699 8.22949 8.66699H15.7715ZM13.4893 2C13.7118 1.99985 13.9058 1.99967 14.0889 2.03125C14.8122 2.15607 15.4381 2.64388 15.7764 3.3457C15.862 3.52331 15.923 3.72216 15.9932 3.9502L16.1084 4.32227C16.1279 4.38532 16.133 4.40288 16.1377 4.41699C16.3179 4.9549 16.8779 5.31852 17.4072 5.33301H19.9785C20.4045 5.33301 20.75 5.70676 20.75 6.16699C20.7498 6.62709 20.4044 7 19.9785 7H3.52148C3.09553 7 2.75015 6.62709 2.75 6.16699C2.75 5.70676 3.09543 5.33301 3.52148 5.33301H6.18555C6.7149 5.31852 7.18218 4.9549 7.3623 4.41699C7.36704 4.40287 7.37214 4.38534 7.3916 4.32227L7.50684 3.9502C7.57705 3.72219 7.63806 3.5233 7.72363 3.3457C8.06192 2.64393 8.68788 2.15612 9.41113 2.03125C9.59413 1.99968 9.78827 1.99985 10.0107 2H13.4893Z" fill="#1C274C"/>
</svg>
