<svg width="24" height="24" viewBox="0 0 24 24" fill="none" xmlns="http://www.w3.org/2000/svg">
<path d="M12.1172 15.2529C12.6094 15.2766 13.015 15.4756 13.3926 15.7432C13.7445 15.9927 14.1335 16.3476 14.585 16.7598L14.6641 16.832C15.6687 17.7491 16.4812 18.4907 16.999 19.1084C17.496 19.7014 17.9528 20.4462 17.6582 21.2754C17.6188 21.3861 17.57 21.4933 17.5127 21.5957C17.102 22.3308 16.267 22.5509 15.4648 22.6484C14.6279 22.7501 13.4846 22.75 12.0566 22.75H11.9434C10.5151 22.75 9.37129 22.7501 8.53418 22.6484C7.73205 22.5509 6.897 22.3307 6.48633 21.5957C6.42916 21.4934 6.3811 21.386 6.3418 21.2754C6.04712 20.4462 6.50398 19.7015 7.00098 19.1084C7.51874 18.4907 8.33132 17.7491 9.33594 16.832L9.41406 16.7598C9.86557 16.3475 10.2545 15.9928 10.6064 15.7432C10.9841 15.4755 11.3904 15.2766 11.8828 15.2529C11.9608 15.2492 12.0392 15.2492 12.1172 15.2529ZM11.9551 16.751C11.8553 16.7558 11.7245 16.7898 11.4746 16.9668C11.2074 17.1563 10.8864 17.4477 10.3926 17.8984C9.33145 18.8671 8.59545 19.5412 8.15039 20.0723C7.93016 20.3351 7.82257 20.5164 7.77637 20.6377C7.73989 20.7336 7.75141 20.7636 7.75488 20.7725V20.7734C7.76574 20.804 7.77925 20.8345 7.7959 20.8643C7.81533 20.8991 7.93441 21.0643 8.71582 21.1592C9.45129 21.2485 10.5027 21.25 12 21.25C13.4973 21.25 14.5487 21.2486 15.2842 21.1592C16.0656 21.0643 16.1846 20.8991 16.2041 20.8643C16.2207 20.8345 16.2342 20.804 16.2451 20.7734V20.7725C16.2486 20.7636 16.2601 20.7335 16.2236 20.6377C16.1774 20.5164 16.0698 20.3351 15.8496 20.0723C15.4045 19.5411 14.6679 18.8674 13.6064 17.8984C13.1127 17.4478 12.7926 17.1563 12.5254 16.9668C12.2754 16.7897 12.1447 16.7558 12.0449 16.751C12.015 16.7495 11.985 16.7495 11.9551 16.751ZM12 1.25C17.9371 1.25 22.75 6.06294 22.75 12C22.75 14.9683 21.5461 17.6571 19.6016 19.6016C19.3087 19.8944 18.8339 19.8942 18.541 19.6016C18.2481 19.3087 18.2481 18.8339 18.541 18.541C20.2158 16.8663 21.25 14.5545 21.25 12C21.25 6.89137 17.1086 2.75 12 2.75C6.89137 2.75 2.75 6.89137 2.75 12C2.75 14.5545 3.78424 16.8663 5.45898 18.541C5.75186 18.8339 5.75188 19.3087 5.45898 19.6016C5.16608 19.8942 4.69126 19.8944 4.39844 19.6016C2.4539 17.6571 1.25 14.9683 1.25 12C1.25 6.06294 6.06294 1.25 12 1.25ZM12 5.25C15.7279 5.25 18.75 8.27208 18.75 12C18.75 13.8638 17.9941 15.5527 16.7734 16.7734C16.4805 17.0663 16.0048 17.0663 15.7119 16.7734C15.419 16.4805 15.419 16.0048 15.7119 15.7119C16.6628 14.761 17.25 13.45 17.25 12C17.25 9.1005 14.8995 6.75 12 6.75C9.1005 6.75 6.75 9.1005 6.75 12C6.75 13.45 7.3372 14.761 8.28809 15.7119C8.58097 16.0048 8.58097 16.4805 8.28809 16.7734C7.99519 17.0663 7.51945 17.0663 7.22656 16.7734C6.00588 15.5527 5.25 13.8638 5.25 12C5.25 8.27208 8.27208 5.25 12 5.25ZM12 9.25C13.5188 9.25 14.75 10.4812 14.75 12C14.75 13.5188 13.5188 14.75 12 14.75C10.4812 14.75 9.25 13.5188 9.25 12C9.25 10.4812 10.4812 9.25 12 9.25ZM12 10.75C11.3096 10.75 10.75 11.3096 10.75 12C10.75 12.6904 11.3096 13.25 12 13.25C12.6904 13.25 13.25 12.6904 13.25 12C13.25 11.3096 12.6904 10.75 12 10.75Z" fill="#48465C"/>
</svg>
