<svg width="24" height="24" viewBox="0 0 24 24" fill="none" xmlns="http://www.w3.org/2000/svg">
<path d="M12 2C12.4142 2 12.75 2.33579 12.75 2.75V20.75C12.75 21.1642 12.4142 21.5 12 21.5C11.5858 21.5 11.25 21.1642 11.25 20.75C7.84769 20.745 5.26452 20.6708 4.17188 19.5781C3.00031 18.4066 3 16.5212 3 12.75V10.75C3 6.97876 3.00031 5.09345 4.17188 3.92188C5.26452 2.82925 7.84768 2.75496 11.25 2.75C11.25 2.33579 11.5858 2 12 2ZM16.2021 19.9971C16.6163 19.9935 16.9553 20.3261 16.959 20.7402C16.9626 21.1544 16.629 21.4935 16.2148 21.4971C15.8402 21.5003 15.4356 21.5 15.002 21.5H14.0908C13.6766 21.5 13.3408 21.1642 13.3408 20.75C13.3408 20.3358 13.6766 20 14.0908 20H15C15.4361 20 15.8345 20.0003 16.2021 19.9971ZM20.0068 18.6152C20.1297 18.2197 20.5498 17.9982 20.9453 18.1211C21.3408 18.244 21.5613 18.6641 21.4385 19.0596C21.2784 19.5749 21.0308 20.0218 20.6514 20.4014C20.2718 20.7809 19.825 21.0293 19.3096 21.1895C18.9141 21.3122 18.4939 21.0907 18.3711 20.6953C18.2483 20.2999 18.4691 19.8799 18.8643 19.7568C19.1855 19.657 19.4093 19.5223 19.5908 19.3408C19.7722 19.1594 19.9071 18.9362 20.0068 18.6152ZM21 12.6367C21.4142 12.6368 21.75 12.9726 21.75 13.3867V14.752C21.75 15.1857 21.7503 15.591 21.7471 15.9658C21.7433 16.3798 21.4043 16.7126 20.9902 16.709C20.576 16.7054 20.2436 16.3663 20.2471 15.9521C20.2503 15.5845 20.25 15.1861 20.25 14.75V13.3867C20.25 12.9725 20.5858 12.6367 21 12.6367ZM20.9902 6.79102C21.4043 6.78747 21.7432 7.1202 21.7471 7.53418C21.7503 7.90896 21.75 8.31429 21.75 8.74805V10.1133C21.75 10.5275 21.4142 10.8632 21 10.8633C20.5858 10.8633 20.25 10.5276 20.25 10.1133V8.75C20.25 8.31391 20.2503 7.91551 20.2471 7.54785C20.2436 7.13366 20.576 6.7946 20.9902 6.79102ZM18.3711 2.80469C18.4939 2.40928 18.9141 2.18791 19.3096 2.31055C19.825 2.47073 20.2718 2.71904 20.6514 3.09863C21.0309 3.47822 21.2784 3.92505 21.4385 4.44043C21.5613 4.83591 21.3408 5.256 20.9453 5.37891C20.5498 5.50183 20.1297 5.28032 20.0068 4.88477C19.9071 4.56377 19.7722 4.34059 19.5908 4.15918C19.4093 3.97771 19.1855 3.84298 18.8643 3.74316C18.4691 3.62006 18.2483 3.20006 18.3711 2.80469ZM16.2148 2.00293C16.629 2.00651 16.9626 2.34557 16.959 2.75977C16.9553 3.17392 16.6163 3.5065 16.2021 3.50293C15.8345 3.49976 15.4361 3.5 15 3.5H14.0908C13.6766 3.5 13.3408 3.16421 13.3408 2.75C13.3408 2.33579 13.6766 2 14.0908 2H15.002C15.4356 2 15.8402 1.9997 16.2148 2.00293Z" fill="#1C274C"/>
</svg>
