<svg width="24" height="24" viewBox="0 0 24 24" fill="none" xmlns="http://www.w3.org/2000/svg">
<path d="M12.4805 2.76074C13.2317 2.30914 14.2082 2.28665 15.042 2.88964C17.7029 4.81403 20.75 8.24487 20.75 13.1113C20.7499 16.9175 19.1143 19.3653 17.0322 20.835C15.7531 21.7378 14.3232 22.2606 13.0332 22.5254C12.5578 22.6869 12.1001 22.75 11.7334 22.75C11.6308 22.75 11.5213 22.7459 11.4062 22.7373C11.2426 22.7458 11.0845 22.75 10.9336 22.75C9.47274 22.75 7.31345 22.2655 5.50391 20.8057C3.66246 19.3201 2.25006 16.877 2.25 13.1113C2.25 10.0346 3.87556 7.96479 5.40527 6.79785C6.04206 6.31225 6.80538 6.30413 7.40918 6.63378C7.99307 6.95261 8.40249 7.5673 8.47656 8.28906L8.5625 9.12695C8.59547 9.44889 8.75965 9.71652 8.93164 9.84668C9.01237 9.90774 9.07846 9.92738 9.12207 9.93066C9.15889 9.93335 9.21613 9.92806 9.30078 9.87304C9.95384 9.44863 10.4495 8.68454 10.7832 7.78613C11.1136 6.89613 11.25 5.96618 11.25 5.333V5.00976C11.25 4.03699 11.7446 3.20309 12.4805 2.76074ZM10.54 15.2949C9.61781 15.9771 8.75002 17.0421 8.75 18.4443C8.75 19.6062 9.23954 20.269 9.82422 20.6699C10.3334 21.0191 10.9429 21.1843 11.4268 21.2334C11.7988 21.2097 12.2061 21.1592 12.6318 21.0762C12.8627 20.9897 13.0978 20.8665 13.3125 20.6982C13.8025 20.3142 14.25 19.6477 14.25 18.4443C14.25 17.6907 13.8779 17.1658 13.4658 16.8301C13.3289 17.3044 13.0028 17.7543 12.5469 17.9697C12.3069 18.0831 11.9989 18.143 11.6758 18.0478C11.3471 17.951 11.1048 17.7238 10.9473 17.4551C10.7214 17.0698 10.6295 16.6317 10.5869 16.2754C10.544 15.9171 10.5439 15.5723 10.5439 15.3447V15.333C10.5439 15.3176 10.5425 15.305 10.54 15.2949ZM14.1631 4.10546C13.8384 3.87064 13.5131 3.88945 13.2529 4.04589C12.9773 4.21159 12.75 4.55285 12.75 5.00976V5.333C12.75 6.14154 12.5831 7.2487 12.1895 8.30859C11.7989 9.36023 11.1496 10.4606 10.1182 11.1309C9.38413 11.6079 8.59251 11.4703 8.02734 11.043C7.49387 10.6395 7.14188 9.97852 7.07031 9.28027L6.98438 8.44238C6.95856 8.19037 6.82192 8.02201 6.69043 7.95019C6.57877 7.88923 6.45606 7.88318 6.31445 7.99121C5.04733 8.95799 3.75 10.6251 3.75 13.1113C3.75006 16.4563 4.98236 18.4576 6.44629 19.6387C6.84366 19.9592 7.26271 20.2237 7.68652 20.4385C7.41335 19.8891 7.25 19.228 7.25 18.4443C7.25002 16.341 8.57036 14.8712 9.69824 14.0518C10.211 13.6793 10.8273 13.6908 11.2979 13.9756C11.752 14.2504 12.0438 14.7586 12.0439 15.333C12.0439 15.5678 12.0447 15.8333 12.0762 16.0967C12.0814 16.1398 12.0873 16.1812 12.0938 16.2207C12.254 15.8522 12.5489 15.566 12.8975 15.415C13.3156 15.234 13.847 15.2383 14.291 15.5723C14.9905 16.0983 15.75 17.0423 15.75 18.4443C15.75 19.0381 15.666 19.5626 15.5176 20.0225C15.7384 19.8964 15.9562 19.7588 16.168 19.6094C17.8634 18.4124 19.2499 16.4157 19.25 13.1113C19.25 8.92423 16.6282 5.88829 14.1631 4.10546Z" fill="#1C274C"/>
</svg>
