<svg width="24" height="24" viewBox="0 0 24 24" fill="none" xmlns="http://www.w3.org/2000/svg">
<path d="M11.25 21H10C8.19364 21 6.81989 20.9998 5.75 20.8711V22C5.75 22.4142 5.41421 22.75 5 22.75C4.58579 22.75 4.25 22.4142 4.25 22V20.5244C3.82869 20.3577 3.47625 20.1325 3.17188 19.8281C2.32833 18.9846 2.09152 17.7712 2.02539 15.75H11.25V21ZM21.9746 15.75C21.9085 17.7712 21.6717 18.9846 20.8281 19.8281C20.5238 20.1325 20.1713 20.3577 19.75 20.5244V22C19.75 22.4142 19.4142 22.75 19 22.75C18.5858 22.75 18.25 22.4142 18.25 22V20.8711C17.1801 20.9998 15.8064 21 14 21H12.75V15.75H21.9746ZM7 17.25C6.58579 17.25 6.25 17.5858 6.25 18C6.25 18.4142 6.58579 18.75 7 18.75H9C9.41421 18.75 9.75 18.4142 9.75 18C9.75 17.5858 9.41421 17.25 9 17.25H7ZM15 17.25C14.5858 17.25 14.25 17.5858 14.25 18C14.25 18.4142 14.5858 18.75 15 18.75H17C17.4142 18.75 17.75 18.4142 17.75 18C17.75 17.5858 17.4142 17.25 17 17.25H15ZM11.25 14.25H2.00195C2.00006 13.858 2 13.4419 2 13V10C2 9.55807 2.00006 9.14203 2.00195 8.75H11.25V14.25ZM14 2C17.7712 2 19.6566 2.00031 20.8281 3.17188C21.9997 4.34346 22 6.22878 22 10V13C22 13.4419 21.9999 13.858 21.998 14.25H12.75V2H14ZM15 7.25C14.5858 7.25 14.25 7.58579 14.25 8V10C14.25 10.4142 14.5858 10.75 15 10.75C15.4142 10.75 15.75 10.4142 15.75 10V8C15.75 7.58579 15.4142 7.25 15 7.25ZM11.25 7.25H2.02539C2.09152 5.22882 2.32834 4.01541 3.17188 3.17188C4.34345 2.00031 6.22876 2 10 2H11.25V7.25Z" fill="#1C274C"/>
</svg>
