<svg width="24" height="24" viewBox="0 0 24 24" fill="none" xmlns="http://www.w3.org/2000/svg">
<path d="M12 1.25C17.9371 1.25 22.75 6.06294 22.75 12C22.75 17.9371 17.9371 22.75 12 22.75C6.06294 22.75 1.25 17.9371 1.25 12C1.25 6.06294 6.06294 1.25 12 1.25ZM12 2.75C6.89137 2.75 2.75 6.89137 2.75 12C2.75 17.1086 6.89137 21.25 12 21.25C17.1086 21.25 21.25 17.1086 21.25 12C21.25 6.89137 17.1086 2.75 12 2.75ZM16 8.25C16.4142 8.25 16.75 8.58579 16.75 9V9.02539C16.75 9.46979 16.7503 9.84089 16.7295 10.1455C16.7079 10.4626 16.6613 10.7624 16.541 11.0527C16.2619 11.7264 15.7264 12.2619 15.0527 12.541C14.7624 12.6613 14.4626 12.7079 14.1455 12.7295C13.8409 12.7503 13.4698 12.75 13.0254 12.75H12.75V15C12.75 15.4142 12.4142 15.75 12 15.75C11.5858 15.75 11.25 15.4142 11.25 15V12.75H8.75V15C8.75 15.4142 8.41421 15.75 8 15.75C7.58579 15.75 7.25 15.4142 7.25 15V9C7.25 8.58579 7.58579 8.25 8 8.25C8.41421 8.25 8.75 8.58579 8.75 9V11.25H11.25V9C11.25 8.58579 11.5858 8.25 12 8.25C12.4142 8.25 12.75 8.58579 12.75 9V11.25H13C13.476 11.25 13.7955 11.2493 14.043 11.2324C14.2836 11.216 14.4013 11.1872 14.4785 11.1553C14.7847 11.0284 15.0285 10.7847 15.1553 10.4785C15.1873 10.4013 15.216 10.2836 15.2324 10.043C15.2493 9.7955 15.25 9.476 15.25 9C15.25 8.58579 15.5858 8.25 16 8.25Z" fill="#1C274C"/>
</svg>
