<svg width="24" height="24" viewBox="0 0 24 24" fill="none" xmlns="http://www.w3.org/2000/svg">
<path d="M16.7627 3.28857C17.069 3.18648 17.4059 3.29203 17.5996 3.55029L20.5996 7.55029C20.8481 7.88165 20.7815 8.35157 20.4502 8.6001C20.1188 8.84861 19.6489 8.78103 19.4004 8.44971L17.75 6.24951V19.9995C17.75 20.4138 17.4142 20.7495 17 20.7495C16.5858 20.7495 16.25 20.4138 16.25 19.9995V3.99951C16.2502 3.67691 16.4567 3.39065 16.7627 3.28857ZM13 17.2495C13.4141 17.2495 13.7498 17.5855 13.75 17.9995C13.75 18.4138 13.4142 18.7495 13 18.7495H8C7.58579 18.7495 7.25 18.4138 7.25 17.9995C7.25019 17.5855 7.58591 17.2495 8 17.2495H13ZM13 12.2495C13.4141 12.2495 13.7498 12.5855 13.75 12.9995C13.75 13.4138 13.4142 13.7495 13 13.7495H6C5.58579 13.7495 5.25 13.4138 5.25 12.9995C5.25019 12.5855 5.58591 12.2495 6 12.2495H13ZM13 7.24951C13.4141 7.24951 13.7498 7.58548 13.75 7.99951C13.75 8.41372 13.4142 8.74951 13 8.74951H4C3.58579 8.74951 3.25 8.41372 3.25 7.99951C3.25022 7.58548 3.58592 7.24951 4 7.24951H13Z" fill="#1C274C"/>
</svg>
