<svg width="24" height="24" viewBox="0 0 24 24" fill="none" xmlns="http://www.w3.org/2000/svg">
<path d="M12 2C16.714 2 19.0708 2.00037 20.5352 3.46484C21.9996 4.9293 22 7.28597 22 12C22 16.714 21.9997 19.0708 20.5352 20.5352C19.0708 21.9997 16.714 22 12 22C7.28597 22 4.9293 21.9996 3.46484 20.5352C2.00037 19.0708 2 16.714 2 12C2 7.28595 2.00037 4.9293 3.46484 3.46484C4.9293 2.00037 7.28595 2 12 2ZM12.5303 11.9697C12.2374 11.6768 11.7626 11.6768 11.4697 11.9697L8.46973 14.9697C8.17684 15.2626 8.17684 15.7374 8.46973 16.0303C8.76261 16.3232 9.23739 16.3232 9.53027 16.0303L12 13.5605L14.4697 16.0303C14.7626 16.3232 15.2374 16.3232 15.5303 16.0303C15.8232 15.7374 15.8232 15.2626 15.5303 14.9697L12.5303 11.9697ZM12.5303 7.96973C12.2374 7.67684 11.7626 7.67684 11.4697 7.96973L8.46973 10.9697C8.17684 11.2626 8.17684 11.7374 8.46973 12.0303C8.76261 12.3232 9.23739 12.3232 9.53027 12.0303L12 9.56055L14.4697 12.0303C14.7626 12.3232 15.2374 12.3232 15.5303 12.0303C15.8232 11.7374 15.8232 11.2626 15.5303 10.9697L12.5303 7.96973Z" fill="#1C274C"/>
</svg>
