<svg width="24" height="24" viewBox="0 0 24 24" fill="none" xmlns="http://www.w3.org/2000/svg">
<path d="M12.0576 1.25C14.3657 1.24999 16.1745 1.24974 17.5859 1.43945C19.0306 1.63369 20.1706 2.03977 21.0654 2.93457C21.9602 3.82938 22.3662 4.96932 22.5605 6.41406C22.7502 7.82544 22.75 9.63432 22.75 11.9424V12.0576C22.75 14.3657 22.7502 16.1745 22.5605 17.5859C22.3662 19.0306 21.9602 20.1706 21.0654 21.0654C20.1706 21.9602 19.0306 22.3662 17.5859 22.5605C16.1745 22.7502 14.3657 22.75 12.0576 22.75H11.9424C9.63433 22.75 7.82545 22.7502 6.41406 22.5605C4.96933 22.3662 3.82938 21.9602 2.93457 21.0654C2.03977 20.1706 1.63369 19.0306 1.43945 17.5859C1.24974 16.1745 1.24999 14.3657 1.25 12.0576V11.9424C1.24999 9.63433 1.24974 7.82544 1.43945 6.41406C1.63369 4.96932 2.03976 3.82938 2.93457 2.93457C3.82938 2.03976 4.96933 1.63369 6.41406 1.43945C7.82545 1.24974 9.63433 1.24999 11.9424 1.25H12.0576ZM12 2.75C9.62177 2.75 7.91326 2.75198 6.61328 2.92676C5.33508 3.09865 4.56472 3.42551 3.99512 3.99512C3.42551 4.56472 3.09865 5.33508 2.92676 6.61328C2.75198 7.91326 2.75 9.62178 2.75 12C2.75 14.3782 2.75198 16.0867 2.92676 17.3867C3.09865 18.6649 3.42551 19.4352 3.99512 20.0049C4.56472 20.5745 5.33508 20.9014 6.61328 21.0732C7.91326 21.248 9.62177 21.25 12 21.25C14.3782 21.25 16.0867 21.248 17.3867 21.0732C18.6649 20.9014 19.4352 20.5745 20.0049 20.0049C20.5745 19.4352 20.9014 18.6649 21.0732 17.3867C21.248 16.0867 21.25 14.3782 21.25 12C21.25 9.62178 21.248 7.91326 21.0732 6.61328C20.9014 5.33508 20.5745 4.56472 20.0049 3.99512C19.4352 3.42551 18.6649 3.09865 17.3867 2.92676C16.0867 2.75198 14.3782 2.75 12 2.75ZM8.24121 6.87207C8.5455 6.59118 9.01981 6.6099 9.30078 6.91406C9.58167 7.21837 9.56297 7.69266 9.25879 7.97363L8.41797 8.75H14.0762C14.7279 8.74999 15.2718 8.75024 15.7129 8.79395C16.1744 8.83972 16.6039 8.93871 16.9932 9.19043C17.3199 9.4017 17.5984 9.68005 17.8096 10.0068C18.0612 10.396 18.1602 10.8249 18.2061 11.2861C18.2498 11.7272 18.25 12.2717 18.25 12.9238V12.999C18.25 13.6508 18.2497 14.1948 18.2061 14.6357C18.1603 15.0972 18.0612 15.5266 17.8096 15.916C17.5983 16.2427 17.32 16.5211 16.9932 16.7324C16.6039 16.9841 16.1744 17.0832 15.7129 17.1289C15.2718 17.1727 14.7279 17.1729 14.0762 17.1729H9.5C9.08579 17.1729 8.75 16.8371 8.75 16.4229C8.75003 16.0086 9.08581 15.6729 9.5 15.6729H14.0381C14.7372 15.6729 15.2071 15.6722 15.5654 15.6367C15.9117 15.6023 16.0724 15.5413 16.1787 15.4727C16.3272 15.3766 16.4538 15.2502 16.5498 15.1016C16.6186 14.9953 16.6796 14.8345 16.7139 14.4883C16.7494 14.13 16.75 13.66 16.75 12.9609C16.75 12.2621 16.7494 11.7929 16.7139 11.4346C16.6796 11.0885 16.6185 10.9276 16.5498 10.8213C16.4538 10.6728 16.3272 10.5462 16.1787 10.4502C16.0724 10.3814 15.9117 10.3204 15.5654 10.2861C15.2071 10.2505 14.7372 10.25 14.0381 10.25H8.41797L9.25879 11.0254C9.56313 11.3063 9.58166 11.7806 9.30078 12.085C9.01984 12.3894 8.54557 12.4089 8.24121 12.1279L5.99121 10.0508C5.83752 9.90884 5.75006 9.7092 5.75 9.5C5.75 9.29068 5.8374 9.09022 5.99121 8.94824L8.24121 6.87207Z" fill="#1C274C"/>
</svg>
