<svg width="24" height="24" viewBox="0 0 24 24" fill="none" xmlns="http://www.w3.org/2000/svg">
<path d="M15.9297 20.3506C15.8966 20.6205 15.8049 20.8801 15.6602 21.1104C15.5191 21.3315 15.3315 21.5191 15.1104 21.6602C14.6104 22.0002 13.9 22 12.5 22H11.5C10.1 22 9.38964 22.0002 8.88965 21.6602C8.66857 21.5191 8.48084 21.3315 8.33984 21.1104C8.19514 20.8801 8.10338 20.6205 8.07031 20.3506L8.56055 20.4102C9.47042 20.5001 10.5602 20.5 11.9199 20.5H12.0801C13.4201 20.5 14.5304 20.5002 15.4404 20.4102L15.9297 20.3506ZM12 5C14.8089 5 16.2138 4.99971 17.2227 5.67383C17.6593 5.96563 18.0343 6.34068 18.3262 6.77734C19.0003 7.78623 19 9.19108 19 12C19 14.8089 19.0003 16.2138 18.3262 17.2227C18.0343 17.6593 17.6593 18.0343 17.2227 18.3262C16.2138 19.0003 14.8089 19 12 19C9.19108 19 7.78623 19.0003 6.77734 18.3262C6.34068 18.0343 5.96563 17.6593 5.67383 17.2227C4.99971 16.2138 5 14.8089 5 12C5 9.19108 4.99971 7.78623 5.67383 6.77734C5.96563 6.34068 6.34068 5.96563 6.77734 5.67383C7.78623 4.99971 9.19108 5 12 5ZM13.374 8.45703C13.0742 8.17162 12.6002 8.18291 12.3145 8.48242L9.45703 11.4824C9.25023 11.6995 9.19262 12.0193 9.31055 12.2949C9.42874 12.5707 9.69998 12.75 10 12.75H12.25L10.5996 14.4824C10.3139 14.7823 10.3261 15.2573 10.626 15.543C10.9258 15.8284 11.3998 15.8171 11.6855 15.5176L14.543 12.5176C14.7498 12.3005 14.8073 11.9807 14.6895 11.7051C14.5713 11.4293 14.3 11.25 14 11.25H11.75L13.4004 9.51758C13.6861 9.21763 13.6739 8.74269 13.374 8.45703ZM12.5 2C13.9 2 14.6104 1.99984 15.1104 2.33984C15.3315 2.48085 15.5191 2.66856 15.6602 2.88965C15.805 3.12004 15.8967 3.38028 15.9297 3.65039L15.4404 3.58984C14.5304 3.49984 13.4201 3.5 12.0801 3.5H11.9199C10.5602 3.5 9.47042 3.4999 8.56055 3.58984L8.07031 3.65039C8.10332 3.38028 8.19504 3.12004 8.33984 2.88965C8.48084 2.66856 8.66857 2.48085 8.88965 2.33984C9.38964 1.99985 10.1 2 11.5 2H12.5Z" fill="#48465C"/>
</svg>
