<svg width="24" height="24" viewBox="0 0 24 24" fill="none" xmlns="http://www.w3.org/2000/svg">
<path fill-rule="evenodd" clip-rule="evenodd" d="M16.52 5.27268C17.7923 5.21018 18.75 6.25702 18.75 7.45161V12.9109C18.75 14.1717 17.7316 15.1366 16.5459 15.225C16.0529 15.2618 15.5551 15.3217 15.178 15.4139C14.4402 15.5941 13.4666 16.0648 12.857 16.3859C12.3214 16.6682 11.6786 16.6682 11.143 16.3859C10.5334 16.0648 9.55979 15.5941 8.82199 15.4139C8.44487 15.3217 7.94708 15.2618 7.45414 15.225C6.26836 15.1366 5.25 14.1717 5.25 12.9109V7.49656C5.25 6.27535 6.248 5.21824 7.54194 5.31298C8.06744 5.35146 8.67286 5.41886 9.17802 5.54229C10.0998 5.76751 11.1985 6.30653 11.8132 6.62917C11.9157 6.68297 12.0434 6.68085 12.1463 6.62132C12.7018 6.29991 13.6675 5.7788 14.4997 5.54811C15.1227 5.37542 15.8904 5.3036 16.52 5.27268ZM17.25 7.45161C17.25 7.03398 16.9314 6.75427 16.5935 6.77087C15.9907 6.80048 15.3582 6.8667 14.9003 6.99361C14.2696 7.16846 13.4487 7.60077 12.8975 7.91966C12.8493 7.94756 12.8001 7.97313 12.75 7.99635V14.7587C13.3591 14.4626 14.1393 14.1235 14.822 13.9567C15.3199 13.8351 15.9149 13.7679 16.4343 13.7292C16.9097 13.6937 17.25 13.3158 17.25 12.9109V7.45161ZM11.116 7.95733C11.16 7.98042 11.2047 8.00161 11.25 8.02088V14.7587C10.6409 14.4626 9.86071 14.1235 9.17802 13.9567C8.68009 13.8351 8.08508 13.7679 7.56568 13.7292C7.09031 13.6937 6.75 13.3158 6.75 12.9109V7.49656C6.75 7.06982 7.08277 6.78338 7.4324 6.80898C7.9319 6.84555 8.43898 6.90585 8.82199 6.99943C9.54804 7.17683 10.5035 7.63581 11.116 7.95733Z" fill="#1C274C"/>
<path fill-rule="evenodd" clip-rule="evenodd" d="M9.94358 0.25C8.10583 0.249985 6.65019 0.249973 5.51098 0.403136C4.33856 0.560764 3.38961 0.892881 2.64124 1.64124C1.89288 2.38961 1.56076 3.33856 1.40314 4.51098C1.24997 5.65019 1.24998 7.10582 1.25 8.94357V13.0564C1.24998 14.8942 1.24997 16.3498 1.40314 17.489C1.56076 18.6614 1.89288 19.6104 2.64124 20.3588C3.38961 21.1071 4.33856 21.4392 5.51098 21.5969C6.65018 21.75 8.1058 21.75 9.94354 21.75H14.0564C15.8942 21.75 17.3498 21.75 18.489 21.5969C19.6614 21.4392 20.6104 21.1071 21.3588 20.3588C22.1071 19.6104 22.4392 18.6614 22.5969 17.489C22.75 16.3498 22.75 14.8942 22.75 13.0565V8.94359C22.75 7.10585 22.75 5.65018 22.5969 4.51098C22.4392 3.33856 22.1071 2.38961 21.3588 1.64124C20.6104 0.892881 19.6614 0.560764 18.489 0.403136C17.3498 0.249973 15.8942 0.249985 14.0564 0.25H9.94358ZM3.7019 2.7019C4.12511 2.27869 4.70476 2.02503 5.71085 1.88976C6.73851 1.75159 8.09318 1.75 10 1.75H14C15.9068 1.75 17.2615 1.75159 18.2892 1.88976C19.2952 2.02503 19.8749 2.27869 20.2981 2.7019C20.7213 3.12511 20.975 3.70476 21.1102 4.71085C21.2484 5.73851 21.25 7.09318 21.25 9V13C21.25 14.9068 21.2484 16.2615 21.1102 17.2892C20.975 18.2952 20.7213 18.8749 20.2981 19.2981C19.8749 19.7213 19.2952 19.975 18.2892 20.1102C17.2615 20.2484 15.9068 20.25 14 20.25H10C8.09318 20.25 6.73851 20.2484 5.71085 20.1102C4.70476 19.975 4.12511 19.7213 3.7019 19.2981C3.27869 18.8749 3.02503 18.2952 2.88976 17.2892C2.75159 16.2615 2.75 14.9068 2.75 13V9C2.75 7.09318 2.75159 5.73851 2.88976 4.71085C3.02503 3.70476 3.27869 3.12511 3.7019 2.7019Z" fill="#1C274C"/>
</svg>
