<svg width="24" height="24" viewBox="0 0 24 24" fill="none" xmlns="http://www.w3.org/2000/svg">
<path d="M12 2C17.5228 2 22 6.47715 22 12C22 17.5228 17.5228 22 12 22C6.47715 22 2 17.5228 2 12C2 6.47715 6.47715 2 12 2ZM12 15C8.91001 15 7.41051 15.8303 6.68262 17.1631C6.33153 17.8061 6.5895 18.5959 7.19336 19.0107C8.56056 19.9499 10.2159 20.5 12 20.5C13.784 20.5 15.4394 19.9499 16.8066 19.0107C17.4105 18.5959 17.6684 17.8061 17.3174 17.1631C16.5895 15.8304 15.09 15 12 15ZM12 7C10.3431 7 9 8.34315 9 10C9 11.6569 10.3431 13 12 13C13.6569 13 15 11.6569 15 10C15 8.34315 13.6569 7 12 7Z" fill="#48465C"/>
</svg>
