<svg width="24" height="24" viewBox="0 0 24 24" fill="none" xmlns="http://www.w3.org/2000/svg">
<path d="M14.0566 3.25C15.8943 3.24998 17.3501 3.25016 18.4893 3.40332C19.6615 3.56095 20.6101 3.89332 21.3584 4.6416C22.1066 5.38992 22.439 6.33844 22.5967 7.51074C22.7498 8.6499 22.75 10.1057 22.75 11.9434V12.0566C22.75 13.8943 22.7498 15.3501 22.5967 16.4893C22.439 17.6615 22.1066 18.6101 21.3584 19.3584C20.6101 20.1066 19.6615 20.439 18.4893 20.5967C17.3501 20.7498 15.8943 20.75 14.0566 20.75H9.94336C8.10571 20.75 6.6499 20.7498 5.51074 20.5967C4.33844 20.439 3.38992 20.1066 2.6416 19.3584C1.89332 18.6101 1.56095 17.6615 1.40332 16.4893C1.25016 15.3501 1.24998 13.8943 1.25 12.0566V11.9434C1.24998 10.1057 1.25016 8.6499 1.40332 7.51074C1.56095 6.33844 1.8933 5.38992 2.6416 4.6416C3.38992 3.8933 4.33844 3.56095 5.51074 3.40332C6.64991 3.25016 8.1057 3.24998 9.94336 3.25H14.0566ZM17.6611 6.20605C17.4379 6.80138 17.2488 7.30541 17.0479 7.70117C16.8342 8.12203 16.5766 8.48638 16.1807 8.76074C15.7847 9.03516 15.353 9.14887 14.8838 9.20117C14.4425 9.25033 13.9045 9.25002 13.2686 9.25H10.7314C10.0955 9.25002 9.5574 9.25034 9.11621 9.20117C8.64698 9.14887 8.21533 9.03517 7.81934 8.76074C7.42343 8.48637 7.16585 8.12203 6.95215 7.70117C6.75123 7.30541 6.56209 6.80138 6.33887 6.20605L5.83887 4.87305C5.79565 4.87826 5.75303 4.88399 5.71094 4.88965C4.70485 5.02491 4.12536 5.27894 3.70215 5.70215C3.27894 6.12536 3.02491 6.70485 2.88965 7.71094C2.75149 8.73859 2.75 10.0933 2.75 12C2.75 13.9067 2.7515 15.2614 2.88965 16.2891C3.02491 17.2951 3.27894 17.8747 3.70215 18.2979C4.12536 18.7211 4.70485 18.9752 5.71094 19.1104C6.73858 19.2485 8.09325 19.25 10 19.25H14C15.9067 19.25 17.2614 19.2485 18.2891 19.1104C19.2951 18.9752 19.8747 18.7211 20.2979 18.2979C20.7211 17.8747 20.9752 17.2951 21.1104 16.2891C21.2485 15.2614 21.25 13.9067 21.25 12C21.25 10.0933 21.2485 8.73858 21.1104 7.71094C20.9752 6.70485 20.7211 6.12536 20.2979 5.70215C19.8747 5.27894 19.2951 5.02491 18.2891 4.88965C18.2469 4.88399 18.2044 4.87826 18.1611 4.87305L17.6611 6.20605ZM16 10.75C16.0851 10.75 16.167 10.7639 16.2432 10.79C17.6653 11.0253 18.75 12.2612 18.75 13.75C18.75 15.2388 17.6653 16.4747 16.2432 16.71C16.167 16.7361 16.0851 16.75 16 16.75H8.5C8.47194 16.75 8.44426 16.7482 8.41699 16.7451C8.36177 16.7482 8.30598 16.75 8.25 16.75C6.59315 16.75 5.25 15.4069 5.25 13.75C5.25 12.0931 6.59315 10.75 8.25 10.75C8.30598 10.75 8.36177 10.7518 8.41699 10.7549C8.44426 10.7518 8.47194 10.75 8.5 10.75H16ZM8.25 12.25C7.42157 12.25 6.75 12.9216 6.75 13.75C6.75 14.5784 7.42157 15.25 8.25 15.25C9.07843 15.25 9.75 14.5784 9.75 13.75C9.75 12.9216 9.07843 12.25 8.25 12.25ZM10.8486 12.25C11.1038 12.6913 11.25 13.2036 11.25 13.75C11.25 14.2964 11.1038 14.8087 10.8486 15.25H13.1514C12.8962 14.8087 12.75 14.2964 12.75 13.75C12.75 13.2036 12.8962 12.6913 13.1514 12.25H10.8486ZM15.75 12.25C14.9216 12.25 14.25 12.9216 14.25 13.75C14.25 14.5784 14.9216 15.25 15.75 15.25C16.5784 15.25 17.25 14.5784 17.25 13.75C17.25 12.9216 16.5784 12.25 15.75 12.25ZM10 4.75C8.99068 4.75 8.13564 4.75057 7.40234 4.77148L7.72852 5.6416C7.96965 6.28461 8.13048 6.70902 8.28906 7.02148C8.43915 7.31713 8.55596 7.44562 8.67383 7.52734C8.79173 7.60904 8.95268 7.67322 9.28223 7.70996C9.6306 7.74878 10.0853 7.75 10.7725 7.75H13.2275C13.9147 7.75 14.3694 7.74878 14.7178 7.70996C15.0473 7.67322 15.2083 7.60904 15.3262 7.52734C15.444 7.44562 15.5608 7.31714 15.7109 7.02148C15.8694 6.70902 16.0304 6.28461 16.2715 5.6416L16.5977 4.77148C15.8644 4.75057 15.0093 4.75 14 4.75H10Z" fill="#1C274C"/>
</svg>
