<svg width="24" height="24" viewBox="0 0 24 24" fill="none" xmlns="http://www.w3.org/2000/svg">
<path d="M17.667 2C17.9763 2 18.1313 1.99974 18.2617 2.01172C19.7119 2.14493 20.8613 3.35154 20.9883 4.87305C20.9997 5.00993 21 5.17243 21 5.49707V20.2598C21 21.1322 19.9414 21.5026 19.4424 20.8047C19.0963 20.3205 18.4037 20.3205 18.0576 20.8047L17.625 21.4102C17.0625 22.1967 15.9375 22.1967 15.375 21.4102C14.8125 20.6234 13.6875 20.6234 13.125 21.4102C12.5625 22.1967 11.4375 22.1967 10.875 21.4102C10.3125 20.6234 9.1875 20.6234 8.625 21.4102C8.0625 22.1967 6.9375 22.1967 6.375 21.4102L5.94238 20.8047C5.59622 20.3205 4.90378 20.3205 4.55762 20.8047C4.05859 21.5026 3 21.1322 3 20.2598V5.49707C3 5.17243 3.0003 5.00993 3.01172 4.87305C3.13867 3.35155 4.28811 2.14495 5.73828 2.01172C5.86873 1.99974 6.02368 2 6.33301 2H17.667ZM7.5 14.75C7.08579 14.75 6.75 15.0858 6.75 15.5C6.75 15.9142 7.08579 16.25 7.5 16.25H16.5C16.9142 16.25 17.25 15.9142 17.25 15.5C17.25 15.0858 16.9142 14.75 16.5 14.75H7.5ZM14.5303 7.46973C14.2375 7.17683 13.7626 7.17683 13.4697 7.46973L12 8.93945L10.5303 7.46973C10.2375 7.17684 9.76262 7.17684 9.46973 7.46973C9.17684 7.76261 9.17684 8.23739 9.46973 8.53027L10.9395 10L9.46973 11.4697C9.17684 11.7626 9.17684 12.2374 9.46973 12.5303C9.76261 12.8232 10.2374 12.8231 10.5303 12.5303L12 11.0605L13.4697 12.5303C13.7626 12.8232 14.2374 12.8232 14.5303 12.5303C14.8232 12.2374 14.8232 11.7625 14.5303 11.4697L13.0605 10L14.5303 8.53027C14.8231 8.23737 14.8232 7.76261 14.5303 7.46973Z" fill="#48465C"/>
</svg>
