<svg width="24" height="24" viewBox="0 0 24 24" fill="none" xmlns="http://www.w3.org/2000/svg">
<path d="M12.0576 1.25C14.3657 1.24999 16.1745 1.24974 17.5859 1.43945C19.0306 1.63369 20.1706 2.03977 21.0654 2.93457C21.9602 3.82938 22.3662 4.96932 22.5605 6.41406C22.7502 7.82544 22.75 9.63432 22.75 11.9424V12.0576C22.75 14.3657 22.7502 16.1745 22.5605 17.5859C22.3662 19.0306 21.9602 20.1706 21.0654 21.0654C20.1706 21.9602 19.0306 22.3662 17.5859 22.5605C16.1745 22.7502 14.3657 22.75 12.0576 22.75H11.9424C9.63432 22.75 7.82544 22.7502 6.41406 22.5605C4.96932 22.3662 3.82938 21.9602 2.93457 21.0654C2.03977 20.1706 1.63369 19.0306 1.43945 17.5859C1.24974 16.1745 1.24999 14.3657 1.25 12.0576V11.9424C1.24999 9.63433 1.24974 7.82544 1.43945 6.41406C1.63369 4.96932 2.03976 3.82938 2.93457 2.93457C3.82938 2.03976 4.96932 1.63369 6.41406 1.43945C7.82544 1.24974 9.63433 1.24999 11.9424 1.25H12.0576ZM12 2.75C9.62178 2.75 7.91326 2.75198 6.61328 2.92676C5.33508 3.09865 4.56472 3.42551 3.99512 3.99512C3.42551 4.56472 3.09865 5.33508 2.92676 6.61328C2.75198 7.91326 2.75 9.62178 2.75 12C2.75 14.3782 2.75198 16.0867 2.92676 17.3867C3.09865 18.6649 3.42551 19.4352 3.99512 20.0049C4.56472 20.5745 5.33508 20.9014 6.61328 21.0732C7.91326 21.248 9.62178 21.25 12 21.25C14.3782 21.25 16.0867 21.248 17.3867 21.0732C18.6649 20.9014 19.4352 20.5745 20.0049 20.0049C20.5745 19.4352 20.9014 18.6649 21.0732 17.3867C21.248 16.0867 21.25 14.3782 21.25 12C21.25 9.62178 21.248 7.91326 21.0732 6.61328C20.9014 5.33508 20.5745 4.56472 20.0049 3.99512C19.4352 3.42551 18.6649 3.09865 17.3867 2.92676C16.0867 2.75198 14.3782 2.75 12 2.75ZM15.9697 5.96973C16.2626 5.67684 16.7374 5.67684 17.0303 5.96973L18.5303 7.46973C18.8232 7.76261 18.8232 8.23739 18.5303 8.53027L17.0303 10.0303C16.7374 10.3232 16.2626 10.3232 15.9697 10.0303C15.6768 9.73742 15.6768 9.26262 15.9697 8.96973L16.1895 8.75H16C14.2051 8.75 12.75 10.2051 12.75 12V18C12.75 18.4142 12.4142 18.75 12 18.75C11.5858 18.75 11.25 18.4142 11.25 18V12C11.25 10.2051 9.79493 8.75 8 8.75H7.81055L8.03027 8.96973C8.32316 9.26262 8.32316 9.73741 8.03027 10.0303C7.73739 10.3232 7.26261 10.3232 6.96973 10.0303L5.46973 8.53027C5.17684 8.23738 5.17684 7.76262 5.46973 7.46973L6.96973 5.96973C7.26262 5.67684 7.73738 5.67684 8.03027 5.96973C8.32316 6.26262 8.32316 6.73738 8.03027 7.03027L7.81055 7.25H8C9.67947 7.25 11.1554 8.12194 12 9.4375C12.8446 8.12194 14.3205 7.25 16 7.25H16.1895L15.9697 7.03027C15.6768 6.73739 15.6768 6.26261 15.9697 5.96973Z" fill="#1C274C"/>
</svg>
