<svg width="24" height="24" viewBox="0 0 24 24" fill="none" xmlns="http://www.w3.org/2000/svg">
<path d="M11.25 2V20H10C8.19364 20 6.81989 19.9998 5.75 19.8711V22C5.75 22.4142 5.41421 22.75 5 22.75C4.58579 22.75 4.25 22.4142 4.25 22V19.5244C3.82869 19.3577 3.47625 19.1325 3.17188 18.8281C2.00031 17.6566 2 15.7712 2 12V10C2 6.22876 2.00031 4.34345 3.17188 3.17188C4.34345 2.00031 6.22876 2 10 2H11.25ZM14 2C17.7712 2 19.6566 2.00031 20.8281 3.17188C21.9997 4.34346 22 6.22878 22 10V12C22 15.7712 21.9997 17.6566 20.8281 18.8281C20.5238 19.1325 20.1713 19.3577 19.75 19.5244V22C19.75 22.4142 19.4142 22.75 19 22.75C18.5858 22.75 18.25 22.4142 18.25 22V19.8711C17.1801 19.9998 15.8064 20 14 20H12.75V2H14ZM9 8.25C8.58579 8.25 8.25 8.58579 8.25 9V13C8.25 13.4142 8.58579 13.75 9 13.75C9.41421 13.75 9.75 13.4142 9.75 13V9C9.75 8.58579 9.41421 8.25 9 8.25ZM15 8.25C14.5858 8.25 14.25 8.58579 14.25 9V13C14.25 13.4142 14.5858 13.75 15 13.75C15.4142 13.75 15.75 13.4142 15.75 13V9C15.75 8.58579 15.4142 8.25 15 8.25Z" fill="#1C274C"/>
</svg>
