<svg width="24" height="24" viewBox="0 0 24 24" fill="none" xmlns="http://www.w3.org/2000/svg">
<path d="M6 14.25C8.07104 14.25 9.74995 15.9289 9.75 18C9.75 20.0711 8.07107 21.75 6 21.75C3.92893 21.75 2.25 20.0711 2.25 18C2.25005 15.9289 3.92896 14.25 6 14.25ZM18 14.25C20.0711 14.25 21.75 15.9289 21.75 18C21.75 20.0711 20.0711 21.75 18 21.75C15.9289 21.75 14.25 20.0711 14.25 18C14.25 15.9289 15.9289 14.25 18 14.25ZM6 15.75C4.75739 15.75 3.75005 16.7574 3.75 18C3.75 19.2426 4.75736 20.25 6 20.25C7.24264 20.25 8.25 19.2426 8.25 18C8.24995 16.7574 7.24261 15.75 6 15.75ZM18 15.75C16.7574 15.75 15.75 16.7574 15.75 18C15.75 19.2426 16.7574 20.25 18 20.25C19.2426 20.25 20.25 19.2426 20.25 18C20.25 16.7574 19.2426 15.75 18 15.75ZM6.79883 8.30762C7.82737 6.50051 10.2267 6.03704 11.8535 7.33203L14.0117 9.05078C14.1738 9.17979 14.3749 9.24994 14.582 9.25H18.5C18.9142 9.25 19.25 9.58583 19.25 10C19.25 10.4142 18.9142 10.75 18.5 10.75H14.582C14.0355 10.7499 13.5049 10.565 13.0771 10.2246L10.9189 8.50586C10.0125 7.78441 8.6757 8.04205 8.10254 9.04883C7.54777 10.0235 7.96041 11.2642 8.98828 11.7129L12.0791 13.0615C13.4093 13.642 14.0209 15.1875 13.4492 16.5215L12.6895 18.2959C12.5262 18.6763 12.0856 18.8522 11.7051 18.6895C11.3244 18.5263 11.1477 18.0857 11.3105 17.7051L12.0713 15.9307C12.3181 15.3548 12.0537 14.6873 11.4795 14.4365L8.38867 13.0879C6.54404 12.283 5.80357 10.0569 6.79883 8.30762ZM14 2C15.1046 2 16 2.89543 16 4C16 5.10457 15.1046 6 14 6C12.8954 6 12 5.10457 12 4C12 2.89543 12.8954 2 14 2Z" fill="#1C274C"/>
</svg>
