<svg width="24" height="24" viewBox="0 0 24 24" fill="none" xmlns="http://www.w3.org/2000/svg">
<path d="M11.376 17.084C11.6058 16.7394 12.0715 16.6463 12.416 16.876C12.7606 17.1058 12.8537 17.5714 12.624 17.916L12.3174 18.376C12.1492 18.6284 12.2076 18.9684 12.4502 19.1504C13.3294 19.81 13.5403 21.0415 12.9307 21.9561L12.624 22.416C12.3943 22.7607 11.9286 22.8538 11.584 22.624C11.2393 22.3943 11.1463 21.9286 11.376 21.584L11.6826 21.124C11.8507 20.8718 11.7922 20.5325 11.5498 20.3506C10.6703 19.691 10.4595 18.4586 11.0693 17.5439L11.376 17.084ZM5.8291 17.165C6.0143 16.7946 6.46452 16.6441 6.83496 16.8291C7.20544 17.0144 7.35614 17.4654 7.1709 17.8359L6.9873 18.2031C6.94283 18.2921 6.95994 18.3994 7.03027 18.4697C7.55705 18.9966 7.68756 19.8014 7.35449 20.4678L7.1709 20.8359C6.9856 21.2063 6.53449 21.3561 6.16406 21.1709C5.79384 20.9855 5.64401 20.5353 5.8291 20.165L6.0127 19.7969C6.05701 19.708 6.03997 19.6005 5.96973 19.5303C5.44286 19.0034 5.31229 18.1986 5.64551 17.5322L5.8291 17.165ZM16.8291 17.165C17.0143 16.7946 17.4645 16.6441 17.835 16.8291C18.2055 17.0144 18.3562 17.4654 18.1709 17.8359L17.9863 18.2031C17.9421 18.2921 17.96 18.3995 18.0303 18.4697C18.5571 18.9966 18.6875 19.8014 18.3545 20.4678L18.1709 20.8359C17.9857 21.2063 17.5345 21.3561 17.1641 21.1709C16.7938 20.9855 16.644 20.5353 16.8291 20.165L17.0127 19.7969C17.057 19.708 17.04 19.6005 16.9697 19.5303C16.4428 19.0034 16.3123 18.1986 16.6455 17.5322L16.8291 17.165ZM15 12.75C15.7282 12.75 16.199 12.7513 16.5459 12.7979C16.8712 12.8417 16.9732 12.9126 17.0303 12.9697C17.0874 13.0268 17.1584 13.1289 17.2021 13.4541C17.2317 13.6745 17.2426 14.3476 17.2471 14.9961C16.8648 14.9996 16.4503 15 16 15H8C7.54966 15 7.13511 14.9996 6.75293 14.9961C6.75735 14.3476 6.76826 13.6745 6.79785 13.4541C6.84159 13.1288 6.91264 13.0268 6.96973 12.9697C7.02683 12.9126 7.12888 12.8416 7.4541 12.7979C7.80096 12.7513 8.27182 12.75 9 12.75H15ZM18 2C19.8856 2 20.8283 2.00015 21.4141 2.58594C21.9999 3.17172 22 4.11439 22 6V9C22 11.8284 21.9998 13.2424 21.1211 14.1211C20.59 14.6522 19.8635 14.8622 18.7471 14.9453C18.7419 14.2767 18.7274 13.5434 18.6885 13.2539C18.6224 12.7623 18.4729 12.2914 18.0908 11.9092C17.7086 11.5271 17.2377 11.3776 16.7461 11.3115C16.2875 11.2498 15.7144 11.25 15.0498 11.25H8.9502C8.28551 11.25 7.71255 11.2498 7.25391 11.3115C6.76235 11.3776 6.29137 11.527 5.90918 11.9092C5.527 12.2914 5.37764 12.7623 5.31152 13.2539C5.2726 13.5434 5.25821 14.2767 5.25293 14.9453C4.13653 14.8622 3.41 14.6522 2.87891 14.1211C2.00023 13.2424 2 11.8284 2 9V6C2 4.11438 2.00015 3.17172 2.58594 2.58594C3.17172 2.00015 4.11438 2 6 2H18ZM6 7.75C5.58579 7.75 5.25 8.08579 5.25 8.5C5.25 8.91421 5.58579 9.25 6 9.25H18C18.4142 9.25 18.75 8.91421 18.75 8.5C18.75 8.08579 18.4142 7.75 18 7.75H6ZM6 5.25C5.58579 5.25 5.25 5.58579 5.25 6C5.25 6.41422 5.58579 6.75 6 6.75H18C18.4142 6.75 18.75 6.41422 18.75 6C18.75 5.58579 18.4142 5.25 18 5.25H6Z" fill="#48465C"/>
</svg>
