<svg width="24" height="24" viewBox="0 0 24 24" fill="none" xmlns="http://www.w3.org/2000/svg">
<path d="M15.3274 7.54199C18.7022 7.54199 20.3902 7.54247 21.3381 8.5293C22.2854 9.51614 22.0624 11.041 21.6165 14.0898L21.1936 16.9814C20.8438 19.3725 20.6689 20.5682 19.7717 21.2842C18.8745 22.0001 17.551 22 14.9045 22H9.09497C6.44904 22 5.1259 21.9999 4.22876 21.2842C3.33162 20.5682 3.15662 19.3725 2.80688 16.9814L2.38403 14.0898C1.93804 11.0408 1.71478 9.51613 2.66235 8.5293C3.61017 7.5425 5.29752 7.54199 8.67212 7.54199H15.3274ZM8.83325 17.25C8.3731 17.2501 8.00028 17.5859 8.00024 18C8.00024 18.4143 8.37308 18.7499 8.83325 18.75H15.1663C15.6265 18.75 16.0002 18.4143 16.0002 18C16.0002 17.5858 15.6264 17.25 15.1663 17.25H8.83325ZM17.8616 4.72363C19.2521 4.72363 20.3921 5.56284 20.7727 6.67676C20.7807 6.69998 20.7889 6.72362 20.7961 6.74707C20.398 6.6265 19.9831 6.54791 19.5637 6.49414C18.4834 6.35566 17.1182 6.35538 15.5325 6.35547H8.63989C7.05408 6.35538 5.68894 6.35568 4.60864 6.49414C4.18918 6.54791 3.77437 6.6265 3.37622 6.74707C3.38349 6.72362 3.39075 6.69998 3.39868 6.67676C3.77923 5.56274 4.92018 4.72363 6.31079 4.72363H17.8616ZM15.4905 2C15.7228 1.99994 15.9012 2.00039 16.0569 2.01562C17.1644 2.12409 18.0708 2.78959 18.4553 3.68652H5.54419C5.92874 2.7894 6.83585 2.12399 7.9436 2.01562C8.09938 2.0004 8.27759 1.99994 8.51001 2H15.4905Z" fill="#48465C"/>
</svg>
