<svg width="24" height="24" viewBox="0 0 24 24" fill="none" xmlns="http://www.w3.org/2000/svg">
<path d="M10 13.75C13.866 13.75 17 15.5409 17 17.75C16.9997 19.959 13.8658 21.75 10 21.75C6.13422 21.75 3.00035 19.959 3 17.75C3 15.5409 6.13401 13.75 10 13.75ZM18.3574 2.36426C18.5706 2.00917 19.0307 1.89356 19.3857 2.10645L19.3877 2.10742L19.3887 2.1084L19.3926 2.11035L19.4023 2.11621C19.4096 2.12075 19.4188 2.12677 19.4297 2.13379C19.4517 2.14802 19.4814 2.16775 19.5166 2.19238C19.5869 2.24159 19.6818 2.31264 19.793 2.40527C20.015 2.59034 20.3057 2.86637 20.5947 3.24219C21.1776 3.99993 21.75 5.15735 21.75 6.75C21.7499 8.3424 21.1775 9.49913 20.5947 10.2568C20.3055 10.6328 20.0151 10.9096 19.793 11.0947C19.6817 11.1875 19.5869 11.2584 19.5166 11.3076C19.4814 11.3322 19.4517 11.351 19.4297 11.3652C19.4188 11.3724 19.4096 11.3782 19.4023 11.3828L19.3926 11.3887L19.3887 11.3906L19.3877 11.3916C19.3874 11.3918 19.3857 11.393 19 10.75L19.3857 11.3926C19.0307 11.6056 18.5707 11.4907 18.3574 11.1357C18.1453 10.7822 18.2579 10.3238 18.6094 10.1094L18.6562 10.0781C18.6953 10.0507 18.7561 10.0056 18.832 9.94238C18.9849 9.81503 19.1947 9.61652 19.4053 9.34277C19.8223 8.80055 20.2499 7.95721 20.25 6.75C20.25 5.54266 19.8224 4.69949 19.4053 4.15723C19.1946 3.88332 18.9849 3.68501 18.832 3.55762C18.7559 3.49415 18.6953 3.44823 18.6562 3.4209C18.6367 3.40725 18.6225 3.39827 18.6152 3.39355L18.6094 3.39062C18.2578 3.17634 18.1453 2.7179 18.3574 2.36426ZM10 2.75C12.2091 2.75 14 4.54086 14 6.75C13.9998 8.95897 12.209 10.75 10 10.75C7.79098 10.75 6.0002 8.95897 6 6.75C6 4.54086 7.79086 2.75 10 2.75ZM16.3291 4.41406C16.5145 4.04371 16.9655 3.89389 17.3359 4.0791L17.3369 4.08008L17.3428 4.08301L17.3516 4.08691L17.373 4.09863C17.3893 4.10758 17.4094 4.11877 17.4326 4.13281C17.4789 4.16094 17.5384 4.19994 17.6064 4.25098C17.7423 4.35293 17.9154 4.50556 18.0859 4.71875C18.4346 5.15465 18.75 5.81785 18.75 6.75C18.75 7.68208 18.4346 8.34539 18.0859 8.78125C17.9155 8.99428 17.7423 9.14613 17.6064 9.24805C17.5385 9.29905 17.4789 9.33806 17.4326 9.36621C17.4093 9.3803 17.3893 9.39242 17.373 9.40137L17.3516 9.41211L17.3428 9.41699L17.3369 9.41992C17.3357 9.41857 17.3193 9.38749 17.0068 8.7627L17.3359 9.4209C16.9654 9.60615 16.5144 9.45545 16.3291 9.08496C16.1464 8.71914 16.2911 8.27529 16.6514 8.08594C16.6521 8.08552 16.6533 8.08461 16.6543 8.08398C16.6628 8.0788 16.6809 8.06672 16.7061 8.04785C16.7576 8.00921 16.8347 7.94295 16.9141 7.84375C17.0653 7.65467 17.25 7.31769 17.25 6.75C17.25 6.18224 17.0654 5.84537 16.9141 5.65625C16.8347 5.55695 16.7577 5.48984 16.7061 5.45117C16.6808 5.43222 16.6626 5.42011 16.6543 5.41504C16.6533 5.41446 16.652 5.41445 16.6514 5.41406C16.291 5.22466 16.1462 4.77993 16.3291 4.41406Z" fill="#1C274C"/>
</svg>
