<svg width="24" height="24" viewBox="0 0 24 24" fill="none" xmlns="http://www.w3.org/2000/svg">
<path d="M16.9014 1.25C17.9179 1.24956 18.6178 1.24912 19.207 1.4541C20.3199 1.84132 21.1842 2.73707 21.5547 3.86523C21.7508 4.46235 21.7504 5.17257 21.75 6.22656V20.374C21.75 21.8392 20.0231 22.7117 18.8857 21.6709C18.8062 21.5982 18.6937 21.5982 18.6143 21.6709L18.1318 22.1133C17.2037 22.9625 15.7973 22.9623 14.8691 22.1133C14.5142 21.7884 13.9868 21.7885 13.6318 22.1133C12.7037 22.9625 11.2973 22.9623 10.3691 22.1133C10.0142 21.7884 9.48682 21.7885 9.13184 22.1133C8.20373 22.9625 6.79733 22.9623 5.86914 22.1133L5.38574 21.6709C5.30626 21.5982 5.19371 21.5982 5.11426 21.6709C3.97683 22.7116 2.25 21.8392 2.25 20.374V6.22656C2.24962 5.17258 2.24925 4.46235 2.44531 3.86523C2.81583 2.73705 3.68011 1.84133 4.79297 1.4541C5.38224 1.24907 6.08201 1.24956 7.09863 1.25H16.9014ZM7.24512 2.75C6.02422 2.75 5.60359 2.76068 5.28613 2.87109C4.62675 3.10053 4.09968 3.63776 3.87109 4.33398C3.76009 4.67228 3.75 5.11831 3.75 6.37012V20.374C3.75 20.4928 3.80982 20.5657 3.88477 20.6006C3.92376 20.6186 3.96231 20.6233 3.99414 20.6191C4.02224 20.6153 4.05889 20.6034 4.10156 20.5645C4.75424 19.9672 5.74577 19.9672 6.39844 20.5645L6.88184 21.0068C7.23682 21.3313 7.76429 21.3315 8.11914 21.0068C9.04733 20.1575 10.4537 20.1574 11.3818 21.0068C11.7368 21.3313 12.2643 21.3315 12.6191 21.0068C13.5473 20.1575 14.9536 20.1574 15.8818 21.0068C16.2368 21.3313 16.7643 21.3315 17.1191 21.0068L17.6016 20.5645C18.2543 19.9672 19.2457 19.9672 19.8984 20.5645C19.9412 20.6035 19.9778 20.6153 20.0059 20.6191C20.0377 20.6234 20.0761 20.6186 20.1152 20.6006C20.1903 20.5657 20.25 20.4929 20.25 20.374V6.37012C20.25 5.11859 20.2408 4.67225 20.1299 4.33398C19.9013 3.63776 19.3733 3.10053 18.7139 2.87109C18.3965 2.76073 17.9756 2.75 16.7549 2.75H7.24512ZM16.5 14.75C16.9142 14.75 17.2499 15.0859 17.25 15.5C17.25 15.9142 16.9142 16.25 16.5 16.25H7.5C7.08583 16.2499 6.75 15.9142 6.75 15.5C6.75008 15.0859 7.08588 14.7501 7.5 14.75H16.5ZM13.9404 7.50098C14.2162 7.192 14.691 7.16456 15 7.44043C15.3089 7.71631 15.3353 8.19106 15.0596 8.5L11.4883 12.5C11.346 12.6593 11.1423 12.75 10.9287 12.75C10.7151 12.75 10.5114 12.6593 10.3691 12.5L8.94043 10.8994C8.66478 10.5904 8.69208 10.1166 9.00098 9.84082C9.30991 9.56513 9.78369 9.59159 10.0596 9.90039L10.9287 10.874L13.9404 7.50098Z" fill="#48465C"/>
</svg>
