<svg width="24" height="24" viewBox="0 0 24 24" fill="none" xmlns="http://www.w3.org/2000/svg">
<path d="M16.9014 1.25C17.9179 1.24956 18.6178 1.24909 19.207 1.4541C20.3199 1.84132 21.1842 2.73706 21.5547 3.86523C21.7508 4.46235 21.7504 5.17257 21.75 6.22656V20.374C21.75 21.8392 20.0231 22.7117 18.8857 21.6709C18.8062 21.5982 18.6938 21.5982 18.6143 21.6709L18.1309 22.1133C17.2028 22.9622 15.7972 22.9622 14.8691 22.1133C14.5141 21.7884 13.9859 21.7884 13.6309 22.1133C12.7028 22.9622 11.2972 22.9622 10.3691 22.1133C10.0141 21.7884 9.48585 21.7884 9.13086 22.1133C8.20278 22.9622 6.79723 22.9622 5.86914 22.1133L5.38574 21.6709C5.30626 21.5982 5.19373 21.5982 5.11426 21.6709C3.97683 22.7117 2.25 21.8392 2.25 20.374V6.22656C2.24962 5.17258 2.24925 4.46235 2.44531 3.86523C2.81583 2.73707 3.68012 1.84132 4.79297 1.4541C5.38224 1.2491 6.08201 1.24956 7.09863 1.25H16.9014ZM7.24512 2.75C6.02436 2.75 5.60357 2.76072 5.28613 2.87109C4.62675 3.10053 4.09871 3.63776 3.87012 4.33398C3.75919 4.67225 3.75 5.11862 3.75 6.37012V20.374C3.75 20.4928 3.80977 20.5657 3.88477 20.6006C3.92381 20.6186 3.96229 20.6234 3.99414 20.6191C4.02226 20.6153 4.05886 20.6035 4.10156 20.5645C4.75424 19.9672 5.74577 19.9672 6.39844 20.5645L6.88086 21.0068C7.23585 21.3316 7.76416 21.3316 8.11914 21.0068C9.04731 20.1576 10.4527 20.1575 11.3809 21.0068C11.7359 21.3316 12.2641 21.3316 12.6191 21.0068C13.5473 20.1576 14.9527 20.1575 15.8809 21.0068C16.2359 21.3316 16.7641 21.3316 17.1191 21.0068L17.6016 20.5645C18.2543 19.9672 19.2457 19.9672 19.8984 20.5645C19.9412 20.6034 19.9778 20.6153 20.0059 20.6191C20.0377 20.6234 20.0762 20.6186 20.1152 20.6006C20.1902 20.5657 20.25 20.4929 20.25 20.374V6.37012C20.25 5.11864 20.2408 4.67225 20.1299 4.33398C19.9013 3.63776 19.3733 3.10053 18.7139 2.87109C18.3965 2.76069 17.9758 2.75 16.7549 2.75H7.24512ZM16.5 14.75C16.9141 14.75 17.2499 15.0859 17.25 15.5C17.25 15.9142 16.9142 16.25 16.5 16.25H7.5C7.08578 16.25 6.75 15.9142 6.75 15.5C6.75008 15.0859 7.08583 14.75 7.5 14.75H16.5ZM13.9404 7.50098C14.2161 7.19212 14.69 7.16491 14.999 7.44043C15.308 7.7163 15.3354 8.19103 15.0596 8.5L11.4883 12.5C11.346 12.6593 11.1422 12.75 10.9287 12.75C10.7151 12.75 10.5114 12.6593 10.3691 12.5L8.94043 10.8994C8.66482 10.5905 8.6914 10.1167 9 9.84082C9.30896 9.56497 9.78365 9.59148 10.0596 9.90039L10.9287 10.874L13.9404 7.50098Z" fill="#1C274C"/>
</svg>
