<svg width="24" height="24" viewBox="0 0 24 24" fill="none" xmlns="http://www.w3.org/2000/svg">
<path d="M15.3273 7.54199C18.7021 7.54199 20.3902 7.54247 21.3381 8.5293C22.2854 9.51613 22.0623 11.0411 21.6164 14.0898L21.1935 16.9814C20.8438 19.3725 20.6688 20.5682 19.7717 21.2842C18.8745 22.0001 17.551 22 14.9045 22H9.09491C6.44898 22 5.12584 21.9999 4.2287 21.2842C3.33156 20.5682 3.15656 19.3725 2.80682 16.9814L2.38397 14.0898C1.93798 11.0408 1.71472 9.51613 2.66229 8.5293C3.61011 7.5425 5.29745 7.54199 8.67206 7.54199H15.3273ZM12.0002 9.75C11.586 9.75 11.2502 10.0858 11.2502 10.5V14.8779C11.0156 14.7951 10.7631 14.75 10.5002 14.75C9.25754 14.75 8.25018 15.7574 8.25018 17C8.25021 18.2426 9.25756 19.25 10.5002 19.25C11.7427 19.2499 12.7502 18.2425 12.7502 17V13.3193C13.4204 13.863 14.2619 14.25 15.0002 14.25C15.4143 14.2499 15.7502 13.9141 15.7502 13.5C15.7502 13.0859 15.4143 12.7501 15.0002 12.75C14.6948 12.75 14.1142 12.5316 13.5832 12.0605C13.0651 11.6009 12.7502 11.0386 12.7502 10.5C12.7502 10.0859 12.4143 9.75011 12.0002 9.75ZM10.5002 16.25C10.9143 16.2501 11.2502 16.5859 11.2502 17C11.2502 17.4141 10.9143 17.7499 10.5002 17.75C10.086 17.75 9.75018 17.4142 9.75018 17C9.75019 16.5858 10.086 16.25 10.5002 16.25ZM17.8615 4.72363C19.252 4.72363 20.3921 5.56285 20.7726 6.67676C20.7806 6.69998 20.7889 6.72362 20.7961 6.74707C20.398 6.6265 19.9831 6.54791 19.5637 6.49414C18.4834 6.35566 17.1182 6.35538 15.5324 6.35547H8.63983C7.05402 6.35538 5.68888 6.35567 4.60858 6.49414C4.18912 6.54791 3.77431 6.6265 3.37616 6.74707C3.38343 6.72362 3.39069 6.69998 3.39862 6.67676C3.77916 5.56273 4.92011 4.72363 6.31073 4.72363H17.8615ZM15.4904 2C15.7227 1.99994 15.9011 2.0004 16.0568 2.01562C17.1643 2.12411 18.0707 2.7896 18.4553 3.68652H5.54413C5.92868 2.78942 6.8358 2.12399 7.94354 2.01562C8.0993 2.0004 8.27756 1.99994 8.50995 2H15.4904Z" fill="#1C274C"/>
</svg>
