<svg width="24" height="24" viewBox="0 0 24 24" fill="none" xmlns="http://www.w3.org/2000/svg">
<path d="M11.25 16.083V18.667C11.2499 20.0936 10.0936 21.2499 8.66699 21.25C7.24032 21.25 6.08311 20.0937 6.08301 18.667C6.08301 17.2402 7.2403 16.083 8.66699 16.083H11.25ZM11.25 9.41699V14.583H8.66699C7.24033 14.583 6.08409 13.4267 6.08398 12C6.08398 10.5733 7.24021 9.41699 8.66699 9.41699H11.25ZM15.333 9.41602C16.7597 9.41604 17.917 10.5733 17.917 12C17.9169 13.4267 16.7597 14.583 15.333 14.583C13.9202 14.5829 12.7721 13.4486 12.75 12.041V11.958C12.7723 10.5507 13.9204 9.4162 15.333 9.41602ZM11.25 7.91699H8.66699C7.24026 7.91699 6.08398 6.75975 6.08398 5.33301C6.08416 3.90643 7.24037 2.75 8.66699 2.75H11.25V7.91699ZM15.333 2.75C16.7597 2.75 17.9168 3.90643 17.917 5.33301C17.917 6.75969 16.7597 7.91601 15.333 7.91602L12.75 7.91699V2.75H15.333Z" fill="#1C274C"/>
</svg>
