<svg width="24" height="24" viewBox="0 0 24 24" fill="none" xmlns="http://www.w3.org/2000/svg">
<path d="M14.0202 4C16.4019 4 17.5932 3.99994 18.4264 4.69141C19.2595 5.3829 19.4787 6.5538 19.9176 8.89453L20.6676 12.8945C21.2848 16.186 21.5936 17.8319 20.694 18.916C19.7943 20.0001 18.1193 20 14.7702 20H9.22916C5.88046 20 4.206 20 3.3063 18.916C2.4066 17.8319 2.7155 16.1861 3.33267 12.8945L4.08267 8.89453C4.52158 6.55365 4.7407 5.38289 5.57388 4.69141C6.40701 4.00001 7.59779 4 9.97916 4H14.0202ZM15.0797 7.29297C14.6893 7.15494 14.2609 7.35954 14.1227 7.75C13.8135 8.62483 12.979 9.2499 12.0006 9.25C11.0222 9.25 10.1879 8.62488 9.87857 7.75C9.74057 7.35956 9.312 7.15514 8.92154 7.29297C8.53102 7.431 8.32554 7.85949 8.46353 8.25C8.97796 9.70548 10.3666 10.75 12.0006 10.75C13.6344 10.7499 15.0224 9.70537 15.5368 8.25C15.6748 7.85952 15.4701 7.43106 15.0797 7.29297Z" fill="#1C274C"/>
</svg>
