<svg width="24" height="24" viewBox="0 0 24 24" fill="none" xmlns="http://www.w3.org/2000/svg">
<path d="M16.5 13.2876C18.1619 11.464 20.0719 11.768 21.1475 13.02C21.6735 13.6324 22 14.472 22 15.3999C21.9999 18.2245 19.7891 19.7294 18.1709 21.0767C17.5999 21.5521 17.05 22.0005 16.5 22.0005C15.95 22.0005 15.4001 21.5521 14.8291 21.0767C14.6904 20.9613 14.5469 20.8454 14.4014 20.7271L14.3584 20.6909C12.8141 19.4342 11.0001 17.9584 11 15.3999C11 12.575 14.0251 10.5718 16.5 13.2876ZM12 5.50049C16.4998 0.825351 22 4.27427 22 9.13721C22 9.9707 21.8824 10.7376 21.6719 11.4478C20.9529 10.8702 20.0508 10.5051 19.0518 10.4995C18.1619 10.4946 17.2937 10.7746 16.499 11.3101C15.1102 10.3773 13.543 10.2517 12.1699 10.9146C10.5347 11.704 9.50013 13.4702 9.5 15.3989C9.5 17.7041 10.6488 19.3217 11.8418 20.4937C10.8945 20.4184 9.94531 19.6858 8.96191 18.9106C8.68491 18.6923 8.3983 18.4715 8.10645 18.2466C5.29841 16.0831 2.00011 13.5422 2 9.13721C2 4.27427 7.50016 0.825351 12 5.50049Z" fill="#48465C"/>
</svg>
