<svg width="24" height="24" viewBox="0 0 24 24" fill="none" xmlns="http://www.w3.org/2000/svg">
<path d="M16.6172 19.7404C16.859 19.404 17.3277 19.3267 17.6641 19.5685C18.0003 19.8101 18.0766 20.2791 17.835 20.6154C17.6084 20.9306 17.3487 21.2364 17.0547 21.5304C16.7619 21.8232 16.287 21.8232 15.9942 21.5304C15.7013 21.2375 15.7014 20.7628 15.9942 20.4698C16.2328 20.2311 16.4397 19.9874 16.6172 19.7404ZM5.03229 17.9513C5.13347 17.5498 5.54093 17.3064 5.94244 17.4073C6.55469 17.5615 7.18391 17.5914 7.81061 17.5167C8.22176 17.4676 8.59536 17.7609 8.64459 18.172C8.6936 18.5833 8.39965 18.957 7.98834 19.006C7.19723 19.1003 6.38253 19.0654 5.57623 18.8624C5.17466 18.7612 4.93115 18.3529 5.03229 17.9513ZM18.1719 15.3556C18.5832 15.3066 18.9569 15.6005 19.0059 16.0118C19.1002 16.803 19.0653 17.6176 18.8624 18.424C18.7611 18.8254 18.3529 19.0691 17.9512 18.9679C17.5497 18.8668 17.3064 18.4592 17.4073 18.0577C17.5614 17.4455 17.5914 16.8162 17.5167 16.1896C17.4677 15.7784 17.7609 15.4049 18.1719 15.3556ZM11.3487 15.9845C11.6746 15.729 12.1459 15.7864 12.4014 16.1124C12.6569 16.4384 12.6003 16.9096 12.2745 17.1652C11.6686 17.6402 10.9918 18.0527 10.2706 18.3702C9.89149 18.5369 9.44914 18.3645 9.28229 17.9855C9.11563 17.6065 9.28722 17.1641 9.66608 16.9972C10.2668 16.7327 10.8362 16.3864 11.3487 15.9845ZM2.46979 15.9943C2.76268 15.7014 3.23745 15.7014 3.53033 15.9943C3.76901 16.2328 4.01283 16.4398 4.25983 16.6173C4.59605 16.8591 4.67245 17.3278 4.43073 17.6642C4.18894 18 3.72097 18.0765 3.38483 17.8351C3.0697 17.6085 2.76379 17.3488 2.46979 17.0548C2.1769 16.7619 2.1769 16.2871 2.46979 15.9943ZM10.0782 8.50305C10.3276 8.17234 10.7973 8.10618 11.128 8.35559C11.3523 8.52486 11.4553 8.79573 11.42 9.05579C11.6076 9.01903 11.8016 9.00012 12.0001 9.00012C12.2421 9.00013 12.4777 9.02901 12.7032 9.08313C12.8823 8.95459 13.1161 8.90529 13.3448 8.96985C14.0933 9.18127 14.8257 9.57186 15.4971 10.0782C15.8278 10.3276 15.894 10.7974 15.6446 11.1281C15.4752 11.3526 15.2036 11.4555 14.9434 11.42C14.9802 11.6078 15.0001 11.8016 15.0001 12.0001C15.0001 12.2422 14.9712 12.4778 14.9171 12.7032C15.0456 12.8823 15.0948 13.1162 15.0303 13.3448C14.8189 14.0934 14.4283 14.8258 13.9219 15.4972C13.6726 15.8279 13.2028 15.894 12.8721 15.6447C12.6477 15.4754 12.5449 15.2045 12.5801 14.9445C12.3925 14.9812 12.1985 15.0001 12.0001 15.0001C11.758 15.0001 11.5224 14.9712 11.2969 14.9171C11.1178 15.0457 10.8839 15.0949 10.6553 15.0304C9.90677 14.819 9.17442 14.4283 8.50299 13.922C8.17229 13.6726 8.10615 13.2029 8.35553 12.8722C8.52481 12.6477 8.79564 12.545 9.05573 12.5802C9.01896 12.3926 9.00006 12.1985 9.00006 12.0001C9.00006 11.758 9.02895 11.5225 9.08307 11.297C8.95449 11.1179 8.90522 10.8841 8.96979 10.6554C9.1812 9.90683 9.57179 9.17448 10.0782 8.50305ZM16.1124 11.5988C16.4384 11.3433 16.9095 11.3997 17.1651 11.7257C17.6401 12.3316 18.0527 13.0083 18.3702 13.7296C18.5368 14.1086 18.3644 14.551 17.9854 14.7179C17.6065 14.8845 17.1641 14.7129 16.9971 14.3341C16.7326 13.7334 16.3863 13.164 15.9844 12.6515C15.7289 12.3255 15.7864 11.8544 16.1124 11.5988ZM6.01373 9.28235C6.39278 9.11549 6.83602 9.28717 7.00299 9.66614C7.26742 10.2668 7.61387 10.8363 8.01569 11.3488C8.27121 11.6747 8.21371 12.146 7.88776 12.4015C7.56183 12.657 7.09061 12.6003 6.83502 12.2745C6.35999 11.6686 5.94745 10.9918 5.62994 10.2706C5.46326 9.89168 5.635 9.44936 6.01373 9.28235ZM5.13776 5.57629C5.239 5.17475 5.64729 4.93122 6.04889 5.03235C6.45025 5.13359 6.69369 5.54106 6.59283 5.9425C6.43867 6.55474 6.40881 7.18397 6.48346 7.81067C6.53248 8.22197 6.23851 8.59563 5.82721 8.64465C5.41604 8.69346 5.04321 8.3996 4.9942 7.9884C4.89993 7.1973 4.93472 6.38259 5.13776 5.57629ZM19.5684 6.33606C19.8101 5.9998 20.279 5.92358 20.6153 6.16516C20.9305 6.39171 21.2363 6.65139 21.5303 6.94543C21.8232 7.23832 21.8232 7.7131 21.5303 8.00598C21.2375 8.29885 20.7627 8.2988 20.4698 8.00598C20.2311 7.7673 19.9873 7.5605 19.7403 7.38293C19.4039 7.14117 19.3266 6.6724 19.5684 6.33606ZM13.7296 5.63C14.1085 5.46338 14.5509 5.63503 14.7178 6.01379C14.8847 6.3928 14.7129 6.83606 14.334 7.00305C13.7334 7.26748 13.1639 7.61393 12.6514 8.01575C12.3254 8.27132 11.8533 8.21379 11.5977 7.88782C11.3425 7.56188 11.3998 7.09057 11.7256 6.83508C12.3315 6.36005 13.0083 5.94751 13.7296 5.63ZM16.0118 4.99426C16.8029 4.90001 17.6176 4.93479 18.4239 5.13782C18.8253 5.23908 19.069 5.64737 18.9678 6.04895C18.8667 6.45032 18.459 6.69371 18.0577 6.5929C17.4453 6.4387 16.8153 6.40881 16.1885 6.48352C15.7774 6.53228 15.4046 6.23842 15.3555 5.82727C15.3067 5.4161 15.6006 5.04327 16.0118 4.99426ZM6.94537 2.46985C7.23826 2.17696 7.71302 2.17696 8.00592 2.46985C8.29876 2.76274 8.29879 3.23752 8.00592 3.5304C7.76723 3.76908 7.56044 4.01287 7.38287 4.25989C7.14109 4.59618 6.67232 4.67253 6.336 4.43079C6.0001 4.189 5.92369 3.72107 6.1651 3.38489C6.39165 3.06973 6.65134 2.76388 6.94537 2.46985Z" fill="#1C274C"/>
</svg>
