<svg width="24" height="24" viewBox="0 0 24 24" fill="none" xmlns="http://www.w3.org/2000/svg">
<path d="M17.9053 4.25C18.5186 4.25001 19.2253 4.42877 19.791 4.91602C20.3775 5.42134 20.7304 6.18786 20.7305 7.1875V9.06543C20.7294 9.35939 20.6794 9.94783 20.5117 10.4395C20.4568 10.6003 20.369 10.8135 20.2227 11.0059C20.5066 11.5688 20.641 12.15 20.7021 12.71C20.7532 13.1773 20.7543 13.668 20.7461 14.1211C21.4072 14.3507 22.0917 14.6351 22.4072 14.8389C22.7551 15.0636 22.8555 15.5281 22.6309 15.876C22.4062 16.2239 21.9417 16.3232 21.5938 16.0986C21.4774 16.0234 21.1336 15.8658 20.6816 15.6934C20.6128 16.1723 20.4732 16.6092 20.2783 17.0059C20.4341 17.103 20.5711 17.194 20.6807 17.2656C20.7226 17.293 20.7608 17.3175 20.7939 17.3389C21.1418 17.5636 21.2424 18.0281 21.0176 18.376C20.7929 18.7239 20.3284 18.8232 19.9805 18.5986C19.9394 18.572 19.8949 18.5439 19.8486 18.5137C19.7175 18.4281 19.5673 18.3291 19.4033 18.2285C18.8139 18.831 18.0817 19.2967 17.3213 19.6465C15.5405 20.4657 13.431 20.75 12 20.75C10.5689 20.75 8.45953 20.4657 6.67871 19.6465C5.91826 19.2967 5.18616 18.831 4.59668 18.2285C4.43255 18.3291 4.28155 18.4281 4.15039 18.5137C4.10431 18.5438 4.06053 18.5721 4.01953 18.5986C3.67162 18.8233 3.20717 18.7239 2.98242 18.376C2.7577 18.0281 2.85809 17.5636 3.20605 17.3389C3.23904 17.3176 3.27662 17.2929 3.31836 17.2656C3.42794 17.1939 3.5658 17.1031 3.72168 17.0059C3.52691 16.6093 3.38722 16.1731 3.31836 15.6943C2.86714 15.8666 2.52394 16.0234 2.40723 16.0986C2.05939 16.3233 1.59492 16.2237 1.37012 15.876C1.14546 15.5282 1.24505 15.0636 1.59277 14.8389C1.90832 14.6351 2.59292 14.3507 3.25391 14.1211C3.24578 13.668 3.24684 13.1774 3.29785 12.71C3.35902 12.15 3.49338 11.5688 3.77734 11.0059C3.63105 10.8135 3.54313 10.6003 3.48828 10.4395C3.32058 9.94782 3.27068 9.35939 3.26953 9.06543V7.1875C3.26953 6.18781 3.62241 5.42136 4.20898 4.91602C4.77474 4.42872 5.48144 4.25 6.09473 4.25C6.50317 4.25 6.92594 4.40663 7.2666 4.56055C7.62767 4.72371 8.00533 4.9354 8.34473 5.13086C8.41841 5.17329 8.49009 5.21563 8.55957 5.25586C8.82342 5.40868 9.05795 5.54385 9.2666 5.65137C9.39604 5.71805 9.4964 5.76423 9.57129 5.79199C9.60288 5.80369 9.62343 5.80974 9.63379 5.8125C9.88727 5.8111 10.049 5.79063 10.2822 5.76074C10.3321 5.75435 10.3853 5.74737 10.4434 5.74023C10.7901 5.69763 11.2279 5.65625 12 5.65625C12.7721 5.65625 13.2099 5.69763 13.5566 5.74023C13.6147 5.74737 13.6679 5.75435 13.7178 5.76074C13.951 5.79063 14.1127 5.8111 14.3662 5.8125C14.3766 5.80974 14.3971 5.8037 14.4287 5.79199C14.5035 5.76423 14.604 5.71806 14.7334 5.65137C14.9421 5.54387 15.1766 5.40866 15.4404 5.25586L15.4434 5.25391C15.5119 5.21422 15.5826 5.17365 15.6553 5.13184C15.9946 4.93639 16.3723 4.7237 16.7334 4.56055C17.074 4.40664 17.4969 4.25 17.9053 4.25ZM17.9053 5.75C17.835 5.75 17.6591 5.78881 17.3516 5.92773C17.0643 6.05752 16.7431 6.23651 16.4043 6.43164C16.3406 6.46827 16.2753 6.50515 16.21 6.54297C15.9423 6.69808 15.6659 6.85912 15.4209 6.98535C15.2663 7.06499 15.1049 7.14057 14.9492 7.19824C14.8054 7.25149 14.6063 7.3125 14.3936 7.3125C14.022 7.31247 13.7617 7.27844 13.5117 7.24609C13.4656 7.24012 13.419 7.23418 13.373 7.22852C13.0844 7.19306 12.708 7.15625 12 7.15625C11.292 7.15625 10.9156 7.19306 10.627 7.22852C10.5809 7.23418 10.5344 7.24012 10.4883 7.24609C10.2384 7.27845 9.97791 7.31247 9.60645 7.3125C9.39363 7.3125 9.19454 7.25149 9.05078 7.19824C8.89509 7.14057 8.73366 7.06499 8.5791 6.98535C8.33412 6.85913 8.0577 6.69807 7.79004 6.54297C7.72476 6.50514 7.6593 6.46827 7.5957 6.43164C7.25683 6.23649 6.9357 6.05753 6.64844 5.92773C6.34084 5.78876 6.16507 5.75 6.09473 5.75C5.7505 5.75 5.4197 5.85268 5.1875 6.05273C4.97613 6.23493 4.76953 6.5624 4.76953 7.1875V9.06055C4.77019 9.19785 4.78999 9.43685 4.83398 9.66504C4.94022 9.57283 5.05282 9.48293 5.17188 9.39551C5.50568 9.15041 5.97551 9.22195 6.2207 9.55566C6.46585 9.88953 6.39344 10.3594 6.05957 10.6045C5.81908 10.7811 5.62772 10.9625 5.47363 11.1445C5.04264 11.6538 4.85958 12.2268 4.78906 12.8721C4.75872 13.1498 4.74993 13.4211 4.75 13.6973C4.97191 13.6541 5.19204 13.625 5.38672 13.625C5.80094 13.625 6.13672 13.9608 6.13672 14.375C6.13672 14.7892 5.80094 15.125 5.38672 15.125C5.28064 15.1251 5.07492 15.1549 4.77734 15.2275C4.80414 15.6253 4.90201 15.9886 5.06055 16.3203C5.37086 16.2069 5.70515 16.125 6.03223 16.125C6.44639 16.1251 6.78223 16.4608 6.78223 16.875C6.78223 17.2449 6.5144 17.5528 6.16211 17.6143C6.49597 17.866 6.88074 18.0877 7.30566 18.2832C8.83657 18.9874 10.7178 19.25 12 19.25C13.2821 19.25 15.1634 18.9874 16.6943 18.2832C17.1192 18.0877 17.5041 17.866 17.8379 17.6143C17.4856 17.5528 17.2178 17.245 17.2178 16.875C17.2178 16.4608 17.5536 16.125 17.9678 16.125C18.2949 16.125 18.6291 16.2068 18.9395 16.3203C19.098 15.9885 19.1958 15.6253 19.2227 15.2275C18.925 15.1548 18.7192 15.125 18.6133 15.125C18.199 15.125 17.8633 14.7892 17.8633 14.375C17.8633 13.9608 18.199 13.625 18.6133 13.625C18.8079 13.625 19.0281 13.6541 19.25 13.6973C19.2501 13.4212 19.2412 13.1498 19.2109 12.8721C19.1404 12.2268 18.9573 11.6538 18.5264 11.1445C18.3723 10.9625 18.1809 10.7811 17.9404 10.6045C17.6065 10.3594 17.5342 9.88954 17.7793 9.55566C18.0245 9.222 18.4943 9.15042 18.8281 9.39551C18.9472 9.48293 19.0598 9.57284 19.166 9.66504C19.21 9.43686 19.2299 9.19783 19.2305 9.06055V7.1875C19.2304 6.56246 19.0238 6.23492 18.8125 6.05273C18.5803 5.85271 18.2495 5.75002 17.9053 5.75ZM12.0195 14.9375C12.3107 14.9375 12.6081 14.9823 12.8604 15.0801C12.9842 15.128 13.1362 15.2031 13.2695 15.3252C13.4034 15.4479 13.5762 15.6751 13.5762 16C13.5762 16.3249 13.4034 16.5522 13.2695 16.6748C13.1362 16.797 12.9842 16.8719 12.8604 16.9199C12.6081 17.0177 12.3107 17.0625 12.0195 17.0625C11.7284 17.0625 11.431 17.0177 11.1787 16.9199C11.0549 16.8719 10.9028 16.797 10.7695 16.6748C10.6356 16.5522 10.4629 16.325 10.4629 16C10.4629 15.6751 10.6356 15.4479 10.7695 15.3252C10.9028 15.2031 11.0549 15.128 11.1787 15.0801C11.431 14.9823 11.7284 14.9375 12.0195 14.9375ZM9.0166 12.0625C9.50523 12.0627 9.83111 12.3802 9.99609 12.6465C10.1682 12.9243 10.25 13.2612 10.25 13.5938C10.25 13.9262 10.1682 14.2631 9.99609 14.541C9.83111 14.8073 9.50523 15.1248 9.0166 15.125C8.52776 15.125 8.20116 14.8074 8.03613 14.541C7.86409 14.2632 7.78223 13.9262 7.78223 13.5938C7.78223 13.2612 7.8641 12.9243 8.03613 12.6465C8.20116 12.3801 8.52776 12.0625 9.0166 12.0625ZM15.0166 12.0625C15.5052 12.0627 15.8311 12.3802 15.9961 12.6465C16.1681 12.9243 16.25 13.2612 16.25 13.5938C16.25 13.9262 16.1681 14.2631 15.9961 14.541C15.8311 14.8073 15.5052 15.1248 15.0166 15.125C14.5278 15.125 14.2011 14.8074 14.0361 14.541C13.864 14.2632 13.7822 13.9262 13.7822 13.5938C13.7822 13.2612 13.864 12.9243 14.0361 12.6465C14.2011 12.3801 14.5278 12.0625 15.0166 12.0625Z" fill="#1C274C"/>
</svg>
