<svg width="24" height="24" viewBox="0 0 24 24" fill="none" xmlns="http://www.w3.org/2000/svg">
<path d="M19 13.25C19.4142 13.25 19.75 13.5858 19.75 14V18.1895L20.4697 17.4697C20.7626 17.1768 21.2374 17.1768 21.5303 17.4697C21.8232 17.7626 21.8232 18.2374 21.5303 18.5303L19.5303 20.5303C19.2374 20.8232 18.7626 20.8232 18.4697 20.5303L16.4697 18.5303C16.1768 18.2374 16.1768 17.7626 16.4697 17.4697C16.7626 17.1768 17.2374 17.1768 17.5303 17.4697L18.25 18.1895V14C18.25 13.5858 18.5858 13.25 19 13.25ZM21.998 10.75C21.9999 11.142 22 11.5581 22 12C22 13.636 21.9999 14.9176 21.9043 15.9395C21.6946 15.8475 21.4739 15.7886 21.25 15.7637V14C21.25 12.7574 20.2426 11.75 19 11.75C17.7574 11.75 16.75 12.7574 16.75 14V15.7637C16.2601 15.8182 15.7849 16.0336 15.4092 16.4092C14.5305 17.2879 14.5305 18.7121 15.4092 19.5908L15.8115 19.9941C15.2611 20.0004 14.6594 20 14 20H10C6.22878 20 4.34346 19.9997 3.17188 18.8281C2.00031 17.6566 2 15.7712 2 12C2 11.5581 2.00006 11.142 2.00195 10.75H21.998ZM6 15.25C5.58579 15.25 5.25 15.5858 5.25 16C5.25 16.4142 5.58579 16.75 6 16.75H10C10.4142 16.75 10.75 16.4142 10.75 16C10.75 15.5858 10.4142 15.25 10 15.25H6ZM12.5 15.25C12.0858 15.25 11.75 15.5858 11.75 16C11.75 16.4142 12.0858 16.75 12.5 16.75H14C14.4142 16.75 14.75 16.4142 14.75 16C14.75 15.5858 14.4142 15.25 14 15.25H12.5ZM14 4C17.7712 4 19.6566 4.00031 20.8281 5.17188C21.6717 6.01541 21.9085 7.22882 21.9746 9.25H2.02539C2.09152 7.22883 2.32835 6.01541 3.17188 5.17188C4.34345 4.00031 6.22878 4 10 4H14Z" fill="#48465C"/>
</svg>
