<svg width="24" height="24" viewBox="0 0 24 24" fill="none" xmlns="http://www.w3.org/2000/svg">
<path d="M15.876 8.31543C17.4087 8.31543 18.1751 8.31577 18.6289 8.81543C19.0828 9.31509 19.0321 10.1037 18.9316 11.6807L18.665 15.8682C18.4799 18.7745 18.3881 20.2283 17.4834 21.1143C16.5788 22.0002 15.187 22 12.4043 22H11.5957C8.81299 22 7.42124 22.0002 6.5166 21.1143C5.61197 20.2283 5.52007 18.7746 5.33496 15.8682L5.06836 11.6807C4.96792 10.1037 4.91729 9.31509 5.37109 8.81543C5.82492 8.31577 6.59126 8.31543 8.12402 8.31543H15.876ZM9.42578 11.4814C9.01362 11.5248 8.7127 11.9118 8.75391 12.3457L9.25391 17.6084C9.29511 18.0422 9.66224 18.3586 10.0742 18.3154C10.4864 18.2721 10.7873 17.8851 10.7461 17.4512L10.2461 12.1885C10.2049 11.7547 9.83778 11.4383 9.42578 11.4814ZM14.5742 11.4814C14.1623 11.4383 13.7951 11.7547 13.7539 12.1885L13.2539 17.4512C13.2127 17.8851 13.5136 18.2721 13.9258 18.3154C14.3377 18.3586 14.7049 18.0422 14.7461 17.6084L15.2461 12.3457C15.2873 11.9118 14.9864 11.5248 14.5742 11.4814ZM12 2C12.9919 2 13.8928 2.38831 14.5498 3.0166C15.3845 3.81496 15.4759 4.96837 15.4824 5.80957H20.2705C20.6733 5.80968 20.9998 6.12919 21 6.52344C21 6.91786 20.6734 7.23817 20.2705 7.23828H3.72949C3.32658 7.23816 3 6.91785 3 6.52344C3.00021 6.1292 3.32671 5.8097 3.72949 5.80957H8.51758C8.52408 4.96837 8.61541 3.81496 9.4502 3.0166C10.1072 2.38831 11.0081 2 12 2Z" fill="#1C274C"/>
</svg>
