<svg width="24" height="24" viewBox="0 0 24 24" fill="none" xmlns="http://www.w3.org/2000/svg">
<path d="M19.2991 2.25C21.4547 2.25 22.5691 4.83744 21.052 6.38867L12.7502 14.877V20.25H16.2434C16.6576 20.25 16.9934 20.5858 16.9934 21C16.9934 21.4142 16.6576 21.75 16.2434 21.75H7.7561C7.34188 21.75 7.0061 21.4142 7.0061 21C7.0061 20.5858 7.34188 20.25 7.7561 20.25H11.2502V14.877L2.94751 6.38867C1.43038 4.83744 2.54573 2.25 4.70142 2.25H19.2991ZM12.0002 13.499L14.9329 10.5H9.06665L12.0002 13.499ZM4.70142 3.75C3.85539 3.75 3.44447 4.7516 4.01978 5.33984L7.59985 9H16.3997L19.9797 5.33984C20.555 4.7516 20.1451 3.75 19.2991 3.75H4.70142Z" fill="#48465C"/>
</svg>
