<svg width="24" height="24" viewBox="0 0 24 24" fill="none" xmlns="http://www.w3.org/2000/svg">
<path d="M13.2451 1.25C17.0713 1.25005 20.3709 3.91917 21.0088 7.60742L21.7139 11.6865C21.9692 13.163 20.8342 14.5155 19.335 14.5156H14.1533C14.1036 14.5159 14.0638 14.5616 14.0723 14.6133L14.7354 18.6572C14.8598 19.4172 14.8242 20.1949 14.6309 20.9404C14.4254 21.7324 13.819 22.3539 13.042 22.6035L12.8975 22.6494C12.3878 22.8132 11.8312 22.7755 11.3486 22.543C10.8167 22.2866 10.4168 21.8135 10.2676 21.2383L9.79199 19.4043C9.65564 18.8787 9.45672 18.3708 9.2002 17.8906C8.85386 17.2423 8.30247 16.6953 7.64746 16.1309L6.20898 14.8906C5.62065 14.3836 5.31102 13.6243 5.37793 12.8506L6.19043 3.45801C6.29853 2.20958 7.34313 1.25 8.59668 1.25H13.2451ZM8.59668 2.75C8.12277 2.75 7.7256 3.11338 7.68457 3.58789L6.87305 12.9805C6.84771 13.2744 6.96458 13.5627 7.1875 13.7549L8.62695 14.9941C9.30665 15.5798 10.0392 16.2772 10.5234 17.1836C10.8353 17.7676 11.0778 18.387 11.2441 19.0283L11.7197 20.8613C11.7548 20.9963 11.8525 21.1213 12 21.1924C12.1346 21.2572 12.2935 21.2682 12.4385 21.2217L12.583 21.1748C12.8893 21.0764 13.1071 20.8401 13.1787 20.5645C13.3197 20.0211 13.3457 19.4535 13.2549 18.8994L12.5918 14.8555C12.4341 13.8927 13.1764 13.0159 14.1533 13.0156H19.335C19.9015 13.0155 20.3334 12.5038 20.2363 11.9424L19.5303 7.86328C19.0235 4.93273 16.3814 2.75005 13.2451 2.75H8.59668ZM3.48633 1.25C4.21225 1.25 4.78108 1.87202 4.71875 2.59375L3.74707 13.8301C3.71247 14.2303 3.369 14.5319 2.96777 14.5146C2.5665 14.4973 2.25 14.1672 2.25 13.7656V2.4873C2.25 1.80491 2.80268 1.25021 3.48633 1.25Z" fill="#1C274C"/>
</svg>
