<svg width="24" height="24" viewBox="0 0 24 24" fill="none" xmlns="http://www.w3.org/2000/svg">
<path d="M20.1523 13.75C20.7464 13.75 21.287 13.987 21.7354 14.2969C20.6973 18.7124 16.7323 22 12 22C7.46768 22 3.63946 18.9845 2.41211 14.8506C3.23731 15.3033 4.30108 15.75 5.33203 15.75C6.14563 15.7499 6.96672 15.4734 7.65723 15.1523C8.18932 14.905 8.67964 14.6142 9.0791 14.3525C9.76649 15.205 10.8197 15.75 12 15.75C12.7517 15.75 13.4522 15.5284 14.0391 15.1475C14.6129 15.484 15.3239 15.75 16.1426 15.75C17.4558 15.75 18.1488 15.0582 18.6562 14.5518L18.6768 14.5312C19.1698 14.0394 19.479 13.7501 20.1523 13.75ZM12 2C15.0019 2 17.6953 3.32257 19.5283 5.41699C19.5082 5.4333 19.4884 5.45103 19.4697 5.46973L18.4697 6.46973C18.1768 6.76261 18.1768 7.23739 18.4697 7.53027C18.7626 7.82316 19.2374 7.82316 19.5303 7.53027L20.4346 6.62598C21.4256 8.1781 22 10.022 22 12C22 12.2351 21.9916 12.4682 21.9756 12.6992C21.4525 12.4364 20.8395 12.25 20.1523 12.25C18.8393 12.2501 18.1461 12.9419 17.6387 13.4482L17.6182 13.4688C17.1251 13.9607 16.816 14.25 16.1426 14.25C15.7922 14.25 15.4592 14.1679 15.1504 14.0342C15.5295 13.4482 15.75 12.7498 15.75 12C15.75 9.92893 14.0711 8.25 12 8.25C9.92893 8.25 8.25 9.92893 8.25 12C8.25 12.3502 8.29792 12.6892 8.3877 13.0107C8.00902 13.2659 7.53275 13.5556 7.02441 13.792C6.42063 14.0727 5.83076 14.2499 5.33203 14.25C4.57224 14.25 3.638 13.843 2.81934 13.3555C2.51951 13.1768 2.25147 12.9982 2.03516 12.8447C2.01189 12.5664 2 12.2844 2 12C2 8.99808 3.32256 6.30467 5.41699 4.47168C5.43329 4.49176 5.45104 4.51158 5.46973 4.53027L6.46973 5.53027C6.76262 5.82316 7.23738 5.82316 7.53027 5.53027C7.82316 5.23738 7.82316 4.76262 7.53027 4.46973L6.62598 3.56543C8.1781 2.57446 10.022 2 12 2ZM12 9.75C13.2426 9.75 14.25 10.7574 14.25 12C14.25 13.2426 13.2426 14.25 12 14.25C10.7574 14.25 9.75 13.2426 9.75 12C9.75 10.7574 10.7574 9.75 12 9.75ZM6.94336 10.8945C6.60911 10.6499 6.13916 10.7234 5.89453 11.0576L5.05957 12.1982C4.81494 12.5325 4.88742 13.0025 5.22168 13.2471C5.55593 13.4916 6.02589 13.4183 6.27051 13.084L7.10547 11.9434C7.3501 11.6092 7.27761 11.1392 6.94336 10.8945ZM21.2402 9.58887C20.9664 9.27844 20.4924 9.24883 20.1816 9.52246L19.0088 10.4951C18.6979 10.7688 18.6677 11.2429 18.9414 11.5537C19.2152 11.8646 19.6892 11.8948 20 11.6211L21.1738 10.6475C21.4843 10.3736 21.5138 9.89956 21.2402 9.58887ZM16.6143 8.22754C16.2007 8.24717 15.8809 8.59809 15.9004 9.01172L15.9668 10.4248C15.9864 10.8383 16.3383 11.1582 16.752 11.1387C17.1654 11.119 17.4853 10.7672 17.4658 10.3535L17.3994 8.94141C17.38 8.52766 17.0281 8.2081 16.6143 8.22754ZM3.5625 8.18848C3.14893 8.21152 2.83243 8.56592 2.85547 8.97949L2.93359 10.3916C2.95673 10.8051 3.31109 11.1217 3.72461 11.0986C4.1381 11.0756 4.45468 10.7212 4.43164 10.3076L4.35254 8.89551C4.32927 8.48223 3.97584 8.16555 3.5625 8.18848ZM6.88965 7.5459C6.71815 7.16899 6.27348 7.00246 5.89648 7.17383C5.51966 7.34537 5.35306 7.79004 5.52441 8.16699L6.10938 9.4541C6.28077 9.83116 6.72546 9.99754 7.10254 9.82617C7.47962 9.65477 7.64699 9.21009 7.47559 8.83301L6.88965 7.5459ZM11.2246 6.80566C11.1173 6.40566 10.7057 6.16819 10.3057 6.27539L8.93945 6.6416C8.53959 6.74897 8.302 7.16057 8.40918 7.56055C8.51651 7.96045 8.92814 8.19797 9.32812 8.09082L10.6943 7.72461C11.0943 7.61734 11.3319 7.2057 11.2246 6.80566ZM16.4502 4.40039C16.1189 4.15194 15.649 4.21871 15.4004 4.5498L13.9004 6.5498C13.652 6.88107 13.7187 7.35102 14.0498 7.59961C14.3811 7.84806 14.851 7.78129 15.0996 7.4502L16.5996 5.4502C16.848 5.11893 16.7813 4.64898 16.4502 4.40039ZM11.5303 3.46973C11.2374 3.17684 10.7626 3.17684 10.4697 3.46973C10.1768 3.76261 10.1768 4.23739 10.4697 4.53027L11.4697 5.53027C11.7626 5.82316 12.2374 5.82316 12.5303 5.53027C12.8232 5.23739 12.8232 4.76261 12.5303 4.46973L11.5303 3.46973Z" fill="#48465C"/>
</svg>
