<svg width="24" height="24" viewBox="0 0 24 24" fill="none" xmlns="http://www.w3.org/2000/svg">
<path d="M13.2412 17.8438L12.5908 18.4951C12.2131 18.8729 11.8775 19.2077 11.5732 19.5H21C21.4142 19.5 21.75 19.8358 21.75 20.25C21.7499 20.6641 21.4141 21 21 21H9C7.98426 20.9747 7.14914 20.1394 5.50488 18.4951C3.83493 16.8252 3.00009 15.9898 3 14.9521C3 13.9145 3.83484 13.0792 5.50488 11.4092L6.15527 10.7588L13.2412 17.8438ZM14.9521 3C15.9898 3 16.8251 3.83484 18.4951 5.50488C20.1652 7.1749 21 8.01023 21 9.04785C21 10.0854 20.1652 10.9209 18.4951 12.5908L14.3018 16.7842L7.2168 9.69824L11.4092 5.50488C13.0792 3.83485 13.9146 3.00001 14.9521 3Z" fill="#48465C"/>
</svg>
