<svg width="24" height="24" viewBox="0 0 24 24" fill="none" xmlns="http://www.w3.org/2000/svg">
<path d="M13.0566 1.25C14.8943 1.24998 16.3501 1.25016 17.4893 1.40332C18.6615 1.56095 19.6101 1.89332 20.3584 2.6416C21.1066 3.38992 21.439 4.33844 21.5967 5.51074C21.7498 6.64991 21.75 8.1057 21.75 9.94336V14.0566C21.75 15.8943 21.7498 17.3501 21.5967 18.4893C21.439 19.6615 21.1066 20.6101 20.3584 21.3584C19.6101 22.1066 18.6615 22.439 17.4893 22.5967C16.3501 22.7498 14.8943 22.75 13.0566 22.75H10.9434C9.10572 22.75 7.64989 22.7498 6.51074 22.5967C5.33844 22.439 4.38992 22.1066 3.6416 21.3584C2.89332 20.6101 2.56095 19.6615 2.40332 18.4893C2.25016 17.3501 2.24998 15.8943 2.25 14.0566V9.94336C2.24998 8.10571 2.25016 6.64991 2.40332 5.51074C2.56095 4.33844 2.8933 3.38992 3.6416 2.6416C4.38992 1.8933 5.33844 1.56095 6.51074 1.40332C7.6499 1.25016 9.1057 1.24998 10.9434 1.25H13.0566ZM11 2.75C9.09324 2.75 7.73858 2.75149 6.71094 2.88965C5.70485 3.02491 5.12536 3.27894 4.70215 3.70215C4.27894 4.12536 4.02491 4.70485 3.88965 5.71094C3.75149 6.73858 3.75 8.09324 3.75 10V14C3.75 15.9067 3.7515 17.2614 3.88965 18.2891C4.02491 19.2951 4.27894 19.8747 4.70215 20.2979C5.12536 20.7211 5.70485 20.9752 6.71094 21.1104C7.73858 21.2485 9.09325 21.25 11 21.25H13C14.9067 21.25 16.2614 21.2485 17.2891 21.1104C18.2951 20.9752 18.8747 20.7211 19.2979 20.2979C19.7211 19.8747 19.9752 19.2951 20.1104 18.2891C20.2485 17.2614 20.25 15.9067 20.25 14V10C20.25 8.09325 20.2485 6.73858 20.1104 5.71094C19.9752 4.70485 19.7211 4.12536 19.2979 3.70215C18.8747 3.27894 18.2951 3.02491 17.2891 2.88965C16.2614 2.7515 14.9067 2.75 13 2.75H11ZM15.0498 8.25C15.7144 8.24997 16.2875 8.24986 16.7461 8.31152C17.2377 8.37764 17.7086 8.52702 18.0908 8.90918C18.4729 9.29136 18.6224 9.76233 18.6885 10.2539C18.7502 10.7125 18.75 11.2855 18.75 11.9502V16.0498C18.75 16.7144 18.7502 17.2875 18.6885 17.7461C18.6224 18.2377 18.4729 18.7086 18.0908 19.0908C17.7086 19.4729 17.2377 19.6224 16.7461 19.6885C16.2875 19.7502 15.7145 19.75 15.0498 19.75H8.9502C8.28556 19.75 7.71252 19.7502 7.25391 19.6885C6.76235 19.6224 6.29137 19.473 5.90918 19.0908C5.52702 18.7086 5.37764 18.2377 5.31152 17.7461C5.24986 17.2875 5.24996 16.7144 5.25 16.0498V11.9502C5.24996 11.2856 5.24986 10.7125 5.31152 10.2539C5.37764 9.76233 5.52701 9.29136 5.90918 8.90918C6.29137 8.527 6.76235 8.37764 7.25391 8.31152C7.71255 8.24986 8.28552 8.24997 8.9502 8.25H15.0498ZM9 9.75C8.27177 9.75 7.80097 9.75124 7.4541 9.79785C7.1288 9.84159 7.02683 9.91264 6.96973 9.96973C6.91264 10.0269 6.84159 10.1288 6.79785 10.4541C6.75124 10.801 6.75 11.2718 6.75 12V16C6.75 16.7282 6.75124 17.199 6.79785 17.5459C6.84159 17.8712 6.91264 17.9732 6.96973 18.0303C7.02683 18.0874 7.12883 18.1584 7.4541 18.2021C7.80097 18.2487 8.27177 18.25 9 18.25H15C15.7282 18.25 16.199 18.2487 16.5459 18.2021C16.8712 18.1583 16.9732 18.0874 17.0303 18.0303C17.0874 17.9732 17.1583 17.8712 17.2021 17.5459C17.2487 17.199 17.25 16.7282 17.25 16V12C17.25 11.2718 17.2487 10.801 17.2021 10.4541C17.1584 10.1288 17.0874 10.0269 17.0303 9.96973C16.9732 9.91264 16.8712 9.84159 16.5459 9.79785C16.199 9.75124 15.7282 9.75 15 9.75H9ZM12 5.25C12.4142 5.25 12.75 5.58579 12.75 6C12.75 6.41421 12.4142 6.75 12 6.75H7C6.58579 6.75 6.25 6.41421 6.25 6C6.25 5.58579 6.58579 5.25 7 5.25H12Z" fill="#48465C"/>
</svg>
