<svg width="24" height="24" viewBox="0 0 24 24" fill="none" xmlns="http://www.w3.org/2000/svg">
<path d="M13.9697 6.46973C14.2626 6.17684 14.7374 6.17684 15.0303 6.46973L20.0303 11.4697C20.3232 11.7626 20.3232 12.2374 20.0303 12.5303L15.0303 17.5303C14.7374 17.8232 14.2626 17.8232 13.9697 17.5303C13.6768 17.2374 13.6768 16.7626 13.9697 16.4697L17.6895 12.75H9.5C8.54665 12.75 7.13307 12.4699 5.93652 11.6084C4.70188 10.7193 3.75 9.24426 3.75 7C3.75 6.58579 4.08579 6.25 4.5 6.25C4.91421 6.25 5.25 6.58579 5.25 7C5.25 8.75556 5.96493 9.7807 6.81348 10.3916C7.70021 11.0299 8.78676 11.25 9.5 11.25H17.6895L13.9697 7.53027C13.6768 7.23739 13.6768 6.76261 13.9697 6.46973Z" fill="#1C274C"/>
</svg>
