<svg width="24" height="24" viewBox="0 0 24 24" fill="none" xmlns="http://www.w3.org/2000/svg">
<path d="M10.0303 2C10.6361 2 11.1218 1.99995 11.5303 2.0166C11.5169 2.09653 11.5091 2.1783 11.5088 2.26074L11.5 5.09473C11.4999 6.19183 11.4994 7.16184 11.6045 7.94336C11.7184 8.79041 11.9807 9.63693 12.6719 10.3281C13.363 11.0194 14.2096 11.2816 15.0566 11.3955C15.8382 11.5006 16.8082 11.5001 17.9053 11.5H21.957C21.9996 12.0342 22 12.6899 22 13.5625V14C22 17.7712 21.9997 19.6566 20.8281 20.8281C19.6566 21.9997 17.7712 22 14 22H10C6.22878 22 4.34346 21.9997 3.17188 20.8281C2.00031 19.6566 2 17.7712 2 14V10C2 6.22876 2.00031 4.34345 3.17188 3.17188C4.34345 2.00031 6.23916 2 10.0303 2ZM9.53027 14.4697C9.23739 14.1768 8.76261 14.1768 8.46973 14.4697L7.5 15.4395L6.53027 14.4697C6.23739 14.1768 5.76261 14.1768 5.46973 14.4697C5.17684 14.7626 5.17684 15.2374 5.46973 15.5303L6.43945 16.5L5.46973 17.4697C5.17684 17.7626 5.17684 18.2374 5.46973 18.5303C5.76261 18.8232 6.23739 18.8232 6.53027 18.5303L7.5 17.5605L8.46973 18.5303C8.76261 18.8232 9.23739 18.8232 9.53027 18.5303C9.82316 18.2374 9.82316 17.7626 9.53027 17.4697L8.56055 16.5L9.53027 15.5303C9.82316 15.2374 9.82316 14.7626 9.53027 14.4697ZM13.0088 2.26562C13.7007 2.53113 14.2649 3.03876 15.3926 4.05371L19.3516 7.61621C20.5682 8.71115 21.2175 9.29582 21.5801 10H18C15.643 10 14.4647 9.99981 13.7324 9.26758C13.0003 8.53535 13 7.35698 13 5L13.0088 2.26562Z" fill="#1C274C"/>
</svg>
