<svg width="24" height="24" viewBox="0 0 24 24" fill="none" xmlns="http://www.w3.org/2000/svg">
<path d="M5.53739 4.93655C6.9302 3.54375 9.15279 3.73116 10.0374 5.31546L10.6868 6.47854C11.2725 7.52798 11.0369 8.90471 10.1145 9.82718C10.1145 9.82718 8.99597 10.9468 11.0247 12.9756C13.0532 15.0039 14.1722 13.8848 14.1722 13.8848C15.0947 12.9624 16.4713 12.7278 17.5208 13.3135L18.6839 13.9619C20.2687 14.8463 20.4557 17.0689 19.0628 18.4619C18.2258 19.2989 17.2002 19.9503 16.0667 19.9932C14.1586 20.0655 10.9178 19.5825 7.66727 16.3321C4.4169 13.0815 3.9338 9.84073 4.00614 7.93264C4.04918 6.79923 4.70043 5.7735 5.53739 4.93655ZM19.0003 4.25003C19.4144 4.25018 19.7503 4.58591 19.7503 5.00003V8.00003C19.7501 8.41403 19.4143 8.74987 19.0003 8.75003C18.5862 8.75003 18.2504 8.41412 18.2503 8.00003V6.81057L15.5306 9.5303C15.2377 9.8231 14.7629 9.82292 14.47 9.5303C14.1771 9.23741 14.1771 8.76265 14.47 8.46975L17.1897 5.75003H16.0003C15.5862 5.75003 15.2504 5.41412 15.2503 5.00003C15.2503 4.58581 15.5861 4.25003 16.0003 4.25003H19.0003Z" fill="#1C274C"/>
</svg>
