<svg width="24" height="24" viewBox="0 0 24 24" fill="none" xmlns="http://www.w3.org/2000/svg">
<path d="M15.0005 3.25C15.4147 3.25 15.7505 3.58579 15.7505 4V5C15.7505 5.9665 14.967 6.75 14.0005 6.75H13.0005C12.8624 6.75 12.7505 6.86193 12.7505 7V8H13.1724C15.711 8 16.9806 7.99985 17.9566 8.61328C18.2035 8.76858 18.4328 8.9511 18.6402 9.15625C19.46 9.96701 19.7498 11.2035 20.3277 13.6758L21.3492 18.0488C21.7086 19.5863 20.7539 21.1246 19.2163 21.4834C17.9196 21.786 16.5852 21.1528 15.9995 19.957L15.8794 19.7109C15.3417 18.6132 14.2258 17.9172 13.0034 17.917H10.9976C9.77525 17.9172 8.65931 18.6132 8.12161 19.7109L8.0015 19.957C7.4158 21.1528 6.08139 21.786 4.7847 21.4834C3.24716 21.1246 2.2915 19.5863 2.65091 18.0488L3.67337 13.6758C4.25132 11.2035 4.54113 9.96701 5.36087 9.15625C5.56831 8.95111 5.79748 8.76857 6.04446 8.61328C7.02048 7.99983 8.29007 8 10.8286 8H11.2505V7C11.2505 6.0335 12.034 5.25 13.0005 5.25H14.0005C14.1386 5.25 14.2505 5.13807 14.2505 5V4C14.2505 3.58579 14.5863 3.25 15.0005 3.25ZM8.50052 11.25C8.0863 11.25 7.75052 11.5858 7.75052 12V12.75H7.00052C6.5863 12.75 6.25052 13.0858 6.25052 13.5C6.25052 13.9142 6.5863 14.25 7.00052 14.25H7.75052V15C7.75052 15.4142 8.0863 15.75 8.50052 15.75C8.91472 15.75 9.25052 15.4142 9.25052 15V14.25H10.0005C10.4147 14.25 10.7505 13.9142 10.7505 13.5C10.7505 13.0858 10.4147 12.75 10.0005 12.75H9.25052V12C9.25052 11.5858 8.91472 11.25 8.50052 11.25ZM17.0005 13.5C16.4482 13.5 16.0005 13.9477 16.0005 14.5C16.0005 15.0523 16.4482 15.5 17.0005 15.5C17.5528 15.5 18.0005 15.0523 18.0005 14.5C18.0005 13.9477 17.5528 13.5 17.0005 13.5ZM15.0005 11C14.4482 11 14.0005 11.4477 14.0005 12C14.0005 12.5523 14.4482 13 15.0005 13C15.5528 13 16.0005 12.5523 16.0005 12C16.0005 11.4477 15.5528 11 15.0005 11Z" fill="#1C274C"/>
</svg>
