<svg width="24" height="24" viewBox="0 0 24 24" fill="none" xmlns="http://www.w3.org/2000/svg">
<path d="M5.53735 4.9375C6.9303 3.54455 9.15292 3.73168 10.0374 5.31641L10.6868 6.47949C11.2722 7.52892 11.0369 8.90577 10.1145 9.82812C10.0958 9.84716 9.01335 10.9642 11.0247 12.9756C13.0359 14.9868 14.1532 13.9044 14.1721 13.8857C15.0946 12.9633 16.4713 12.7278 17.5208 13.3135L18.6838 13.9619C20.2686 14.8463 20.4555 17.0689 19.0627 18.4619C18.2257 19.2989 17.2002 19.9503 16.0667 19.9932C14.1585 20.0655 10.9177 19.5825 7.66724 16.332C4.41698 13.0815 3.93377 9.84068 4.0061 7.93262C4.04922 6.79946 4.70062 5.77432 5.53735 4.9375ZM14.1213 1.25977C14.147 1.26467 14.2283 1.2796 14.2708 1.28906C14.3561 1.30807 14.475 1.33767 14.6233 1.38086C14.9201 1.4673 15.3347 1.60977 15.8323 1.83789C16.8286 2.29465 18.1547 3.09395 19.5305 4.46973C20.9059 5.84525 21.7047 7.17084 22.1614 8.16699C22.3895 8.66444 22.532 9.07922 22.6184 9.37598C22.6616 9.52439 22.6912 9.64417 22.7102 9.72949C22.7196 9.77186 22.7269 9.80585 22.7317 9.83105L22.7375 9.8623C22.8036 10.2712 22.5283 10.674 22.1194 10.7402C21.7118 10.8061 21.3278 10.5299 21.26 10.123C21.2579 10.112 21.2524 10.0823 21.2463 10.0547C21.2339 9.99931 21.2126 9.91169 21.179 9.7959C21.1113 9.56357 20.9933 9.21767 20.7981 8.79199C20.4083 7.94171 19.7067 6.76798 18.469 5.53027C17.2313 4.2925 16.0575 3.591 15.2073 3.20117C14.7816 3.00601 14.4358 2.88897 14.2034 2.82129C14.0873 2.78749 13.9413 2.75353 13.886 2.74121C13.4792 2.67326 13.1931 2.28747 13.259 1.87988C13.3252 1.47099 13.7124 1.19358 14.1213 1.25977ZM13.4856 5.3291C13.5995 4.93093 14.0151 4.70068 14.4133 4.81445H14.4143L14.4163 4.81543L14.4192 4.81641L14.427 4.81836L14.4465 4.82422C14.4615 4.82904 14.4808 4.83578 14.5032 4.84375C14.548 4.85967 14.6074 4.88199 14.6799 4.91309C14.8256 4.97553 15.0252 5.07209 15.2698 5.2168C15.7591 5.50647 16.4273 5.98765 17.2122 6.77246C17.9972 7.55744 18.4781 8.22635 18.7678 8.71582C18.9124 8.9602 19.0091 9.15905 19.0715 9.30469C19.1026 9.37726 19.125 9.43659 19.1409 9.48145C19.1489 9.50389 19.1555 9.52301 19.1604 9.53809L19.1663 9.55762L19.1692 9.56543L19.1702 9.56934V9.57031C19.1702 9.57031 19.1707 9.57228 18.4495 9.77832L19.1711 9.57227C19.2847 9.97041 19.0536 10.3853 18.6555 10.499C18.2607 10.6118 17.8496 10.3861 17.7317 9.99414L17.7278 9.9834C17.7225 9.96837 17.7111 9.93871 17.6926 9.89551C17.6556 9.80916 17.5884 9.66802 17.4768 9.47949C17.2538 9.10275 16.8516 8.53295 16.1516 7.83301C15.4518 7.13311 14.8818 6.73077 14.5051 6.50781C14.3167 6.39628 14.1755 6.32898 14.0891 6.29199C14.046 6.27352 14.0162 6.26216 14.0012 6.25684L13.9905 6.25391C13.5985 6.136 13.3728 5.72397 13.4856 5.3291Z" fill="#48465C"/>
</svg>
