<svg width="24" height="24" viewBox="0 0 24 24" fill="none" xmlns="http://www.w3.org/2000/svg">
<path d="M12 14C12.9428 14 13.4141 14.0001 13.707 14.293C13.9999 14.5859 14 15.0572 14 16V20C14 20.9428 13.9999 21.4141 13.707 21.707C13.4141 21.9999 12.9428 22 12 22C11.0572 22 10.5859 21.9999 10.293 21.707C10.0001 21.4141 10 20.9428 10 20V16C10 15.0572 10.0001 14.5859 10.293 14.293C10.5859 14.0001 11.0572 14 12 14ZM19.0693 3.75C19.4935 3.74999 19.8477 3.74959 20.1387 3.76855C20.4417 3.7883 20.7287 3.83152 21.0078 3.94141C21.7175 4.22092 22.2791 4.78255 22.5586 5.49219C22.6685 5.77132 22.7117 6.05836 22.7314 6.36133C22.7504 6.65236 22.75 7.00651 22.75 7.43066V7.5752C22.7505 8.23314 22.7509 8.74589 22.5928 9.19336C22.3634 9.84294 21.8983 10.3829 21.29 10.7061C20.871 10.9286 20.3644 11.0046 19.7139 11.1016L15.5176 11.7305C14.686 11.8552 14.1315 11.9401 13.7207 12.0557C13.3305 12.1654 13.1622 12.2793 13.0527 12.4062C12.9478 12.5281 12.8703 12.6901 12.8203 13.0107C12.5795 12.9997 12.3194 13 12.0547 13H11.9453C11.7266 13 11.5108 12.9996 11.3066 13.0059C11.3748 12.4053 11.533 11.8725 11.916 11.4277C12.2911 10.9922 12.7723 10.764 13.3154 10.6113C13.8279 10.4673 14.4767 10.3698 15.249 10.2539L19.3721 9.63574C20.2002 9.51153 20.4258 9.46746 20.5869 9.38184C20.8633 9.23496 21.0744 8.98938 21.1787 8.69434C21.2394 8.52227 21.25 8.29241 21.25 7.45508C21.25 7.00056 21.2498 6.69547 21.2344 6.45898C21.2194 6.22878 21.1923 6.116 21.1631 6.04199C21.0361 5.71934 20.7807 5.46395 20.458 5.33691C20.384 5.30777 20.2712 5.28063 20.041 5.26562C19.8046 5.25022 19.4994 5.25 19.0449 5.25H18.9941C19 5.03133 19.0001 4.793 19 4.54004V4.45996C19.0001 4.20701 19 3.96867 18.9941 3.75H19.0693ZM15.5 2C16.4346 2 16.9019 2.00021 17.25 2.20117C17.4779 2.33281 17.6672 2.52203 17.7988 2.75C17.9998 3.09808 18 3.56538 18 4.5C18 5.43462 17.9998 5.90192 17.7988 6.25C17.6672 6.47797 17.4779 6.66719 17.25 6.79883C16.9019 6.99979 16.4346 7 15.5 7H8.5C7.56538 7 7.09808 6.99979 6.75 6.79883C6.52204 6.6672 6.3328 6.47796 6.20117 6.25C6.00021 5.90192 6 5.43462 6 4.5C6 3.56538 6.00021 3.09808 6.20117 2.75C6.3328 2.52204 6.52204 2.3328 6.75 2.20117C7.09808 2.00021 7.56538 2 8.5 2H15.5ZM5 4.45996V4.54004C4.99999 4.72173 4.9998 4.89587 5.00195 5.06055C4.84744 4.92318 4.75003 4.72299 4.75 4.5C4.75 4.27701 4.84747 4.07683 5.00195 3.93945C4.9998 4.10408 4.99999 4.27833 5 4.45996Z" fill="#48465C"/>
</svg>
