<svg width="24" height="24" viewBox="0 0 24 24" fill="none" xmlns="http://www.w3.org/2000/svg">
<path d="M11.5566 3.25C13.3943 3.24998 14.8501 3.25016 15.9893 3.40332C17.1615 3.56095 18.1101 3.89332 18.8584 4.6416C19.6066 5.38992 19.939 6.33844 20.0967 7.51074C20.1657 8.02415 20.2038 8.60206 20.2246 9.25C20.5874 9.2507 20.9198 9.25566 21.1973 9.29297C21.5528 9.34076 21.9283 9.45368 22.2373 9.7627C22.5464 10.0717 22.6592 10.4472 22.707 10.8027C22.7504 11.1255 22.7501 11.5223 22.75 11.9551V12.0449C22.7501 12.4777 22.7504 12.8745 22.707 13.1973C22.6592 13.5528 22.5464 13.9283 22.2373 14.2373C21.9283 14.5464 21.5528 14.6592 21.1973 14.707C20.9198 14.7443 20.5874 14.7493 20.2246 14.75C20.2038 15.398 20.1657 15.9759 20.0967 16.4893C19.939 17.6615 19.6066 18.6101 18.8584 19.3584C18.1101 20.1066 17.1615 20.439 15.9893 20.5967C14.8501 20.7498 13.3943 20.75 11.5566 20.75H9.94336C8.10573 20.75 6.64989 20.7498 5.51074 20.5967C4.33844 20.439 3.38992 20.1066 2.6416 19.3584C1.89332 18.6101 1.56095 17.6615 1.40332 16.4893C1.25016 15.3501 1.24998 13.8943 1.25 12.0566V11.9434C1.24998 10.1057 1.25016 8.6499 1.40332 7.51074C1.56095 6.33844 1.8933 5.38992 2.6416 4.6416C3.38992 3.8933 4.33844 3.56095 5.51074 3.40332C6.64991 3.25016 8.10571 3.24998 9.94336 3.25H11.5566ZM10 4.75C8.09324 4.75 6.73858 4.75149 5.71094 4.88965C4.70485 5.02491 4.12536 5.27894 3.70215 5.70215C3.27894 6.12536 3.02491 6.70485 2.88965 7.71094C2.75149 8.73858 2.75 10.0933 2.75 12C2.75 13.9067 2.7515 15.2614 2.88965 16.2891C3.02491 17.2951 3.27894 17.8747 3.70215 18.2979C4.12536 18.7211 4.70485 18.9752 5.71094 19.1104C6.73858 19.2485 8.09325 19.25 10 19.25H11.5C13.4067 19.25 14.7614 19.2485 15.7891 19.1104C16.7951 18.9752 17.3747 18.7211 17.7979 18.2979C18.2211 17.8747 18.4752 17.2951 18.6104 16.2891C18.7485 15.2614 18.75 13.9067 18.75 12C18.75 10.0933 18.7485 8.73858 18.6104 7.71094C18.4752 6.70485 18.2211 6.12536 17.7979 5.70215C17.3747 5.27894 16.7951 5.02491 15.7891 4.88965C14.7614 4.7515 13.4067 4.75 11.5 4.75H10ZM10.9238 8.51953C11.1891 8.20152 11.6623 8.15872 11.9805 8.42383C12.2986 8.68903 12.3412 9.16233 12.0762 9.48047L10.6016 11.25H12.5C12.791 11.25 13.0563 11.4181 13.1797 11.6816C13.3031 11.9451 13.2625 12.257 13.0762 12.4805L10.5762 15.4805C10.3109 15.7985 9.83767 15.8412 9.51953 15.5762C9.20152 15.3109 9.15872 14.8377 9.42383 14.5195L10.8984 12.75H9C8.70914 12.75 8.44479 12.5817 8.32129 12.3184C8.19785 12.0549 8.23753 11.743 8.42383 11.5195L10.9238 8.51953ZM20.75 13.2402C20.8449 13.2358 20.9257 13.2293 20.9971 13.2197C21.0937 13.2067 21.1424 13.1916 21.1641 13.1826C21.1689 13.1807 21.1719 13.1787 21.1738 13.1777L21.1768 13.1768L21.1777 13.1738C21.1787 13.1719 21.1807 13.1689 21.1826 13.1641C21.1916 13.1424 21.2067 13.0937 21.2197 12.9971C21.248 12.7864 21.25 12.4925 21.25 12C21.25 11.5075 21.248 11.2136 21.2197 11.0029C21.2067 10.9063 21.1916 10.8576 21.1826 10.8359C21.1807 10.8311 21.1787 10.8281 21.1777 10.8262L21.1768 10.8232L21.1738 10.8223C21.1719 10.8213 21.1689 10.8193 21.1641 10.8174C21.1424 10.8084 21.0937 10.7933 20.9971 10.7803C20.9257 10.7707 20.8449 10.7642 20.75 10.7598V13.2402Z" fill="#48465C"/>
</svg>
