<svg width="24" height="24" viewBox="0 0 24 24" fill="none" xmlns="http://www.w3.org/2000/svg">
<path d="M12 2C16.714 2 19.0708 2.00037 20.5352 3.46484C21.9996 4.9293 22 7.28597 22 12C22 16.714 21.9997 19.0708 20.5352 20.5352C19.0708 21.9997 16.714 22 12 22C7.28597 22 4.9293 21.9996 3.46484 20.5352C2.00037 19.0708 2 16.714 2 12C2 7.28595 2.00037 4.9293 3.46484 3.46484C4.9293 2.00037 7.28595 2 12 2ZM9.5 7.25C6.87665 7.25 4.75 9.37665 4.75 12C4.75 14.6234 6.87665 16.75 9.5 16.75C12.1234 16.75 14.25 14.6234 14.25 12C14.25 11.5858 13.9142 11.25 13.5 11.25C13.0858 11.25 12.75 11.5858 12.75 12C12.75 13.7949 11.2949 15.25 9.5 15.25C7.70507 15.25 6.25 13.7949 6.25 12C6.25 10.2051 7.70507 8.75 9.5 8.75C9.91421 8.75 10.25 8.41421 10.25 8C10.25 7.58579 9.91421 7.25 9.5 7.25ZM14.5 7.25C11.8766 7.25 9.75 9.37665 9.75 12C9.75 12.4142 10.0858 12.75 10.5 12.75C10.9142 12.75 11.25 12.4142 11.25 12C11.25 10.2051 12.7051 8.75 14.5 8.75C16.2949 8.75 17.75 10.2051 17.75 12C17.75 13.7949 16.2949 15.25 14.5 15.25C14.0858 15.25 13.75 15.5858 13.75 16C13.75 16.4142 14.0858 16.75 14.5 16.75C17.1234 16.75 19.25 14.6234 19.25 12C19.25 9.37665 17.1234 7.25 14.5 7.25Z" fill="#1C274C"/>
</svg>
