<svg width="24" height="24" viewBox="0 0 24 24" fill="none" xmlns="http://www.w3.org/2000/svg">
<path d="M16 3C18.8284 3 20.2424 3.00023 21.1211 3.84375C21.9998 4.68726 22 6.04463 22 8.75977V9.71973C22 12.435 21.9998 13.7932 21.1211 14.6367C20.2424 15.48 18.8281 15.4795 16 15.4795H12.75V17.8408L18.2373 19.5967C18.6302 19.7224 18.8429 20.1306 18.7119 20.5078C18.5809 20.8849 18.1556 21.0886 17.7627 20.9629L12 19.1191L6.2373 20.9629C5.8444 21.0886 5.41913 20.8849 5.28809 20.5078C5.15711 20.1306 5.36979 19.7224 5.7627 19.5967L11.25 17.8408V15.4795H8C5.17192 15.4795 3.75761 15.48 2.87891 14.6367C2.00023 13.7932 2 12.435 2 9.71973V8.75977C2 6.04462 2.00025 4.68726 2.87891 3.84375C3.75759 3.00023 5.17157 3 8 3H16Z" fill="#48465C"/>
</svg>
