<svg width="24" height="24" viewBox="0 0 24 24" fill="none" xmlns="http://www.w3.org/2000/svg">
<path d="M20 20.25C20.4142 20.25 20.75 20.5858 20.75 21C20.75 21.4142 20.4142 21.75 20 21.75H4C3.58579 21.75 3.25 21.4142 3.25 21C3.25 20.5858 3.58579 20.25 4 20.25H20ZM11.4697 4.96973C11.7626 4.67684 12.2374 4.67684 12.5303 4.96973L15.5303 7.96973C15.8232 8.26261 15.8232 8.73739 15.5303 9.03027C15.2374 9.32316 14.7626 9.32316 14.4697 9.03027L12.75 7.31055V16.6895L14.4697 14.9697C14.7626 14.6768 15.2374 14.6768 15.5303 14.9697C15.8232 15.2626 15.8232 15.7374 15.5303 16.0303L12.5303 19.0303C12.2374 19.3232 11.7626 19.3232 11.4697 19.0303L8.46973 16.0303C8.17684 15.7374 8.17684 15.2626 8.46973 14.9697C8.76261 14.6768 9.23739 14.6768 9.53027 14.9697L11.25 16.6895V7.31055L9.53027 9.03027C9.23738 9.32316 8.76262 9.32316 8.46973 9.03027C8.17684 8.73738 8.17684 8.26262 8.46973 7.96973L11.4697 4.96973ZM20 2.25C20.4142 2.25 20.75 2.58579 20.75 3C20.75 3.41421 20.4142 3.75 20 3.75H4C3.58579 3.75 3.25 3.41421 3.25 3C3.25 2.58579 3.58579 2.25 4 2.25H20Z" fill="#1C274C"/>
</svg>
