<svg width="24" height="24" viewBox="0 0 24 24" fill="none" xmlns="http://www.w3.org/2000/svg">
<path d="M13.4243 9.46875C13.7178 9.17646 14.1925 9.17735 14.4849 9.4707C16.3332 11.3261 16.0934 14.3899 14.1821 16.3086L9.33447 21.1748C7.42219 23.0945 4.36561 23.3362 2.51514 21.4785C0.667106 19.6231 0.90681 16.5603 2.81787 14.6416L5.2417 12.208C5.53396 11.9146 6.00876 11.9138 6.30225 12.2061C6.5957 12.4984 6.59653 12.9731 6.3042 13.2666L3.88037 15.7002C2.44547 17.1409 2.41433 19.2517 3.57764 20.4199C4.73911 21.5859 6.83765 21.5561 8.27197 20.1162L13.1196 15.25C14.5549 13.8092 14.586 11.6974 13.4224 10.5293C13.13 10.2358 13.1309 9.76106 13.4243 9.46875ZM14.6655 2.82617C16.5777 0.906574 19.6343 0.664129 21.4849 2.52148C23.3331 4.37691 23.0934 7.44065 21.1821 9.35938L18.7583 11.793C18.466 12.0862 17.9912 12.0869 17.6978 11.7949C17.4044 11.5026 17.4034 11.0278 17.6958 10.7344L20.1196 8.30078C21.5548 6.85991 21.5859 4.74821 20.4224 3.58008C19.2608 2.41429 17.1623 2.44495 15.728 3.88477L10.8804 8.75098C9.4452 10.1918 9.414 12.3035 10.5776 13.4717C10.8699 13.7651 10.8692 14.2399 10.5757 14.5322C10.2823 14.8244 9.80745 14.8235 9.51514 14.5303C7.66689 12.6748 7.90661 9.61111 9.81787 7.69238L14.6655 2.82617Z" fill="#1C274C"/>
</svg>
