<svg width="24" height="24" viewBox="0 0 24 24" fill="none" xmlns="http://www.w3.org/2000/svg">
<path d="M13.4246 9.46875C13.7181 9.17652 14.1927 9.17728 14.4851 9.4707C16.3334 11.3261 16.0937 14.3899 14.1824 16.3086L9.33472 21.1748C7.42244 23.0945 4.36585 23.3362 2.51538 21.4785C0.667187 19.623 0.906911 16.5603 2.81812 14.6416L5.24194 12.208C5.53424 11.9146 6.00903 11.9137 6.30249 12.2061C6.59594 12.4984 6.59677 12.9731 6.30444 13.2666L3.88062 15.7002C2.44555 17.1409 2.41443 19.2517 3.57788 20.4199C4.73928 21.5858 6.83693 21.5558 8.27124 20.1162L13.1189 15.25C14.5542 13.8092 14.5861 11.6974 13.4226 10.5293C13.1302 10.2358 13.1312 9.76107 13.4246 9.46875ZM14.6658 2.82617C16.578 0.906533 19.6346 0.664001 21.4851 2.52148C23.3334 4.37687 23.0935 7.44064 21.1824 9.35938L18.7585 11.793C18.4663 12.0862 17.9915 12.0869 17.698 11.7949C17.4047 11.5028 17.4031 11.0278 17.6951 10.7344L20.1189 8.30078C21.5542 6.85991 21.5862 4.74825 20.4226 3.58008C19.2611 2.41417 17.1625 2.4449 15.7283 3.88477L10.8806 8.75098C9.44533 10.1918 9.41421 12.3035 10.5779 13.4717C10.87 13.7651 10.8694 14.24 10.5759 14.5322C10.2826 14.8244 9.80773 14.8234 9.51538 14.5303C7.66712 12.6748 7.90682 9.6111 9.81812 7.69238L14.6658 2.82617Z" fill="#48465C"/>
</svg>
