<svg width="24" height="24" viewBox="0 0 24 24" fill="none" xmlns="http://www.w3.org/2000/svg">
<path d="M8.6185 2.57275C10.748 2.08132 11.8132 1.83514 12.8158 2.12256C13.8184 2.4101 14.5916 3.18347 16.1371 4.729L17.9662 6.55811C20.655 9.24696 22.0002 10.5916 22.0003 12.2622C22.0003 13.9329 20.6552 15.2773 17.9662 17.9663C15.2772 20.6553 13.9328 22.0005 12.2621 22.0005C10.5915 22.0004 9.24681 20.6552 6.55795 17.9663L4.72885 16.1372C3.18332 14.5917 2.40995 13.8185 2.12241 12.8159C1.83499 11.8134 2.08117 10.7482 2.5726 8.61865L2.8558 7.39111C3.26928 5.59935 3.47573 4.70284 4.0892 4.08936C4.70268 3.47589 5.59919 3.26944 7.39096 2.85596L8.6185 2.57275ZM19.0511 10.9907C18.7582 10.6978 18.2835 10.6978 17.9906 10.9907L11.0111 17.9702C10.7185 18.2631 10.7183 18.7381 11.0111 19.0308C11.3038 19.3235 11.7787 19.3233 12.0716 19.0308L19.0511 12.0513C19.344 11.7584 19.3439 11.2836 19.0511 10.9907ZM10.1234 7.271C9.33579 6.48349 8.0584 6.48343 7.27084 7.271C6.48345 8.05856 6.48341 9.33597 7.27084 10.1235C8.05838 10.9111 9.33578 10.911 10.1234 10.1235C10.911 9.33593 10.911 8.05858 10.1234 7.271Z" fill="#1C274C"/>
</svg>
