<svg width="24" height="24" viewBox="0 0 24 24" fill="none" xmlns="http://www.w3.org/2000/svg">
<path d="M15.3115 1.25C15.7257 1.25001 16.0615 1.5858 16.0615 2C16.0615 2.4142 15.7257 2.74999 15.3115 2.75C12.0274 2.75 10.2245 5.31442 9.8291 8.10547C9.76047 8.59 9.73697 9.06906 9.75586 9.52832C9.96752 9.06263 10.243 8.61019 10.5654 8.18262C10.8148 7.85191 11.2855 7.78575 11.6162 8.03516C11.8515 8.21256 11.9483 8.50131 11.8975 8.77246C13.1285 8.27235 14.6356 8.13553 16.1055 8.34375C19.3144 8.79842 22.75 10.9958 22.75 15.3115C22.75 15.7257 22.4142 16.0615 22 16.0615C21.5858 16.0615 21.25 15.7257 21.25 15.3115C21.25 12.0274 18.6855 10.2245 15.8945 9.8291C15.5713 9.78333 15.2506 9.7573 14.9365 9.75098C15.2933 9.93679 15.6404 10.1596 15.9727 10.4102C16.3031 10.6595 16.3693 11.1293 16.1201 11.46C15.9638 11.6672 15.7206 11.77 15.4795 11.7568C16.0279 13.0126 16.184 14.5791 15.9678 16.1055C15.5131 19.3144 13.3157 22.75 9 22.75C8.58579 22.75 8.25 22.4142 8.25 22C8.25 21.5858 8.58579 21.25 9 21.25C12.2842 21.25 14.087 18.6855 14.4824 15.8945C14.551 15.4103 14.5716 14.9317 14.5527 14.4727C14.3412 14.9376 14.0681 15.3905 13.7461 15.8174C13.4967 16.1479 13.026 16.2132 12.6953 15.9639C12.5122 15.8257 12.4134 15.6196 12.4014 15.4072C11.1204 16.0139 9.4857 16.1932 7.89453 15.9678C4.68565 15.5131 1.25 13.3157 1.25 9C1.25 8.58579 1.58579 8.25 2 8.25C2.41421 8.25 2.75 8.58579 2.75 9C2.75 12.2842 5.31442 14.087 8.10547 14.4824C8.7495 14.5737 9.38356 14.5819 9.97461 14.5205C9.40702 14.2976 8.85457 13.9788 8.33887 13.5898C8.00817 13.3404 7.942 12.8698 8.19141 12.5391C8.34751 12.3322 8.59036 12.2293 8.83105 12.2422C8.28302 10.9866 8.12759 9.42038 8.34375 7.89453C8.79842 4.68565 10.9958 1.25 15.3115 1.25ZM17.0859 20.0449C17.3276 19.7086 17.7965 19.6322 18.1328 19.874C18.4688 20.1158 18.5452 20.5838 18.3037 20.9199C18.0777 21.2343 17.8187 21.5397 17.5254 21.833C17.2325 22.1255 16.7577 22.1256 16.4648 21.833C16.172 21.5402 16.1722 21.0654 16.4648 20.7725C16.7028 20.5346 16.9089 20.2911 17.0859 20.0449ZM4.87793 18.2617C4.97921 17.8602 5.38653 17.6167 5.78809 17.7178C6.39841 17.8715 7.02561 17.9007 7.65039 17.8262C8.06151 17.7774 8.43429 18.0713 8.4834 18.4824C8.5324 18.8936 8.23919 19.2672 7.82812 19.3164C7.03906 19.4104 6.22613 19.3753 5.42188 19.1729C5.02021 19.0718 4.77678 18.6633 4.87793 18.2617ZM18.6387 15.6719C19.0498 15.6231 19.4227 15.9169 19.4717 16.3281C19.5657 17.1171 19.5306 17.9292 19.3281 18.7334C19.2271 19.135 18.8195 19.3792 18.418 19.2783C18.0163 19.1771 17.7729 18.7688 17.874 18.3672C18.0276 17.757 18.0569 17.1303 17.9824 16.5059C17.9334 16.0946 18.2274 15.7209 18.6387 15.6719ZM11.1768 16.2998C11.5026 16.0443 11.974 16.1011 12.2295 16.4268C12.4851 16.7528 12.4284 17.2249 12.1025 17.4805C11.4984 17.9542 10.8236 18.365 10.1045 18.6816C9.72539 18.8485 9.28218 18.6768 9.11523 18.2979C8.94833 17.9188 9.1209 17.4755 9.5 17.3086C10.0986 17.045 10.666 16.7002 11.1768 16.2998ZM2.32324 16.3096C2.61614 16.0167 3.0909 16.0167 3.38379 16.3096C3.62147 16.5473 3.8644 16.7528 4.11035 16.9297C4.4466 17.1714 4.52377 17.6403 4.28223 17.9766C4.04052 18.3129 3.57167 18.39 3.23535 18.1484C2.92108 17.9225 2.61643 17.6633 2.32324 17.3701C2.03036 17.0772 2.03039 16.6025 2.32324 16.3096ZM16.583 11.9258C16.909 11.6704 17.3802 11.7278 17.6357 12.0537C18.1095 12.658 18.5212 13.3324 18.8379 14.0518C19.0046 14.4308 18.8322 14.8732 18.4531 15.04C18.0741 15.2068 17.6318 15.0351 17.4648 14.6562C17.2012 14.0575 16.8556 13.4894 16.4551 12.9785C16.1998 12.6525 16.2572 12.1813 16.583 11.9258ZM12 10.75C11.9528 10.75 11.9062 10.7527 11.8604 10.7578C11.8428 10.7669 11.8252 10.7773 11.8066 10.7852C11.5824 10.8799 11.366 11.0227 11.1621 11.2266C11.1094 11.2792 11.0487 11.3188 10.9863 11.3525C10.8636 11.5794 10.7882 11.8266 10.7617 12.0938C10.8361 12.1634 10.8983 12.2487 10.9404 12.3486C11.035 12.5729 11.1779 12.7902 11.3818 12.9941C11.4006 13.0129 11.4153 13.0346 11.4316 13.0547C11.6497 13.16 11.886 13.2216 12.1396 13.2412C12.7642 13.1717 13.25 12.6431 13.25 12C13.25 11.3096 12.6904 10.75 12 10.75ZM5.8584 8.95898C6.2374 8.79244 6.67986 8.96479 6.84668 9.34375C7.11026 9.94248 7.4559 10.5096 7.85645 11.0205C8.11191 11.3465 8.05432 11.8176 7.72852 12.0732C7.40259 12.3287 6.93137 12.2722 6.67578 11.9463C6.20206 11.342 5.7903 10.6675 5.47363 9.94824C5.30674 9.56913 5.47929 9.12587 5.8584 8.95898ZM4.9834 5.26562C5.08464 4.86414 5.492 4.62063 5.89355 4.72168C6.29516 4.82281 6.53852 5.23023 6.4375 5.63184C6.28381 6.24216 6.25464 6.86936 6.3291 7.49414C6.3781 7.90543 6.08414 8.27813 5.67285 8.32715C5.2617 8.37608 4.88899 8.08299 4.83984 7.67188C4.7458 6.88276 4.78086 6.06993 4.9834 5.26562ZM20.0293 6.02246C20.2711 5.68628 20.7398 5.60983 21.0762 5.85156C21.3905 6.07752 21.695 6.33662 21.9883 6.62988C22.2812 6.92277 22.2812 7.39755 21.9883 7.69043C21.6954 7.98319 21.2206 7.98324 20.9277 7.69043C20.6898 7.45251 20.4465 7.24633 20.2002 7.06934C19.8642 6.8275 19.7876 6.3587 20.0293 6.02246ZM14.207 5.31738C14.5861 5.15049 15.0294 5.32305 15.1963 5.70215C15.3629 6.0812 15.1905 6.52358 14.8115 6.69043C14.2128 6.95402 13.6456 7.29966 13.1348 7.7002C12.8089 7.95576 12.3375 7.89823 12.082 7.57227C11.8265 7.24632 11.8832 6.7751 12.209 6.51953C12.8132 6.04579 13.4878 5.63405 14.207 5.31738ZM16.4834 4.68359C17.2725 4.58954 18.0853 4.62461 18.8896 4.82715C19.2912 4.92831 19.5346 5.33576 19.4336 5.7373C19.3325 6.13889 18.925 6.38317 18.5234 6.28223C17.9131 6.12854 17.2859 6.09839 16.6611 6.17285C16.2499 6.22182 15.8772 5.92788 15.8281 5.5166C15.7793 5.10554 16.0724 4.73277 16.4834 4.68359ZM6.78613 2.16699C7.07905 1.87426 7.55384 1.87415 7.84668 2.16699C8.13936 2.45984 8.13936 2.93468 7.84668 3.22754C7.60876 3.46546 7.40257 3.70887 7.22559 3.95508C6.98378 4.29125 6.51498 4.3677 6.17871 4.12598C5.84245 3.88419 5.76606 3.4154 6.00781 3.0791C6.23375 2.76483 6.49294 2.46018 6.78613 2.16699Z" fill="#48465C"/>
</svg>
