<svg width="24" height="24" viewBox="0 0 24 24" fill="none" xmlns="http://www.w3.org/2000/svg">
<path d="M12.0791 14.623C12.6537 14.6535 13.1191 15.1191 14.0498 16.0498C16.0756 18.0756 17.0891 19.0889 16.8057 19.9629C16.7813 20.038 16.7507 20.1113 16.7148 20.1816C16.2973 20.9999 14.8646 21 12 21C9.13547 21 7.70285 20.9998 7.28516 20.1816C7.24928 20.1114 7.2187 20.038 7.19434 19.9629C6.91076 19.0889 7.92339 18.0756 9.94922 16.0498C10.8803 15.1187 11.3461 14.6533 11.9209 14.623C11.9735 14.6202 12.0265 14.6202 12.0791 14.623ZM14 3C17.7712 3 19.6566 3.00031 20.8281 4.17188C21.9997 5.34346 22 7.22878 22 11C22 14.7712 21.9997 16.6566 20.8281 17.8281C20.5859 18.0703 20.3136 18.2626 20 18.415C19.5185 18.6491 18.9403 18.7898 18.2285 18.874C18.062 18.3412 17.7571 17.8827 17.4854 17.5273C16.9532 16.8318 16.1348 16.0135 15.1875 15.0664L15.0566 14.9355C14.638 14.5167 14.2307 14.1097 13.8506 13.8145C13.4243 13.4834 12.8734 13.1628 12.1572 13.125C12.0523 13.1195 11.9468 13.1195 11.8418 13.125C11.1257 13.1628 10.5747 13.4834 10.1484 13.8145C9.76836 14.1097 9.36106 14.5167 8.94238 14.9355L8.8125 15.0664C7.86516 16.0136 7.04681 16.8317 6.51465 17.5273C6.24288 17.8827 5.9371 18.3411 5.77051 18.874C5.05905 18.7898 4.48138 18.649 4 18.415C3.68647 18.2626 3.41405 18.0703 3.17188 17.8281C2.00031 16.6566 2 14.7712 2 11C2 7.22876 2.00031 5.34345 3.17188 4.17188C4.34345 3.00031 6.22876 3 10 3H14Z" fill="#1C274C"/>
</svg>
