<svg width="24" height="24" viewBox="0 0 24 24" fill="none" xmlns="http://www.w3.org/2000/svg">
<path d="M5.00757 4.40723C6.68753 2.72727 9.52218 2.85448 10.6921 4.9502L11.3416 6.11328C12.1055 7.4821 11.7802 9.2098 10.6619 10.3418C10.6468 10.3625 10.5673 10.4773 10.5574 10.6777C10.5449 10.9342 10.6364 11.5271 11.5544 12.4453C12.4726 13.3634 13.0656 13.4548 13.322 13.4424C13.5226 13.4326 13.6372 13.353 13.658 13.3379C14.79 12.2196 16.5177 11.8943 17.8865 12.6582L19.0496 13.3076C21.1453 14.4775 21.2732 17.3122 19.5935 18.9922C18.6948 19.8908 17.4996 20.6899 16.0955 20.7432C14.0146 20.8221 10.5593 20.2841 7.13745 16.8623C3.71569 13.4405 3.1777 9.98522 3.25659 7.9043C3.30991 6.50029 4.10902 5.30581 5.00757 4.40723ZM9.38257 5.68164C8.78355 4.60829 7.17395 4.36194 6.06812 5.46777C5.29298 6.24295 4.78848 7.09836 4.75562 7.96094C4.68983 9.69627 5.11869 12.7224 8.198 15.8018C11.2774 18.8811 14.3035 19.3099 16.0388 19.2441C16.9015 19.2113 17.7568 18.7068 18.532 17.9316C19.6379 16.8257 19.3915 15.2162 18.3181 14.6172L17.155 13.9678C16.4317 13.5644 15.4152 13.7029 14.7019 14.416C14.6309 14.487 14.1854 14.9019 13.3953 14.9404C12.5851 14.9798 11.6037 14.6158 10.4939 13.5059C9.38385 12.3958 9.01976 11.4147 9.05933 10.6045C9.09808 9.81313 9.51493 9.36765 9.58472 9.29785C10.2979 8.58463 10.4355 7.56812 10.032 6.84473L9.38257 5.68164ZM19.4695 3.46973C19.7624 3.17685 20.2371 3.17689 20.53 3.46973C20.8229 3.76262 20.8229 4.23737 20.53 4.53027L19.0603 6L20.53 7.46973C20.8229 7.76263 20.8229 8.23738 20.53 8.53027C20.2371 8.82305 19.7623 8.82313 19.4695 8.53027L17.9998 7.06055L16.53 8.53027C16.2371 8.82305 15.7623 8.82313 15.4695 8.53027C15.1767 8.23742 15.1768 7.7626 15.4695 7.46973L16.9392 6L15.4695 4.53027C15.1767 4.23742 15.1768 3.7626 15.4695 3.46973C15.7624 3.17686 16.2371 3.17689 16.53 3.46973L17.9998 4.93945L19.4695 3.46973Z" fill="#48465C"/>
</svg>
