<svg width="24" height="24" viewBox="0 0 24 24" fill="none" xmlns="http://www.w3.org/2000/svg">
<path d="M12 2C17.5228 2 22 6.47715 22 12C22 17.5228 17.5228 22 12 22C6.47715 22 2 17.5228 2 12C2 6.47715 6.47715 2 12 2ZM15.0303 8.96973C14.7374 8.67685 14.2626 8.67687 13.9697 8.96973L12 10.9395L10.0303 8.96973C9.73737 8.67684 9.26262 8.67685 8.96973 8.96973C8.67683 9.26262 8.67683 9.73739 8.96973 10.0303L10.9395 12L8.96973 13.9697C8.67684 14.2625 8.67684 14.7374 8.96973 15.0303C9.26262 15.3231 9.7374 15.3232 10.0303 15.0303L12 13.0605L13.9697 15.0303C14.2626 15.3231 14.7374 15.3232 15.0303 15.0303C15.3232 14.7374 15.3231 14.2626 15.0303 13.9697L13.0605 12L15.0303 10.0303C15.3232 9.73742 15.3232 9.26262 15.0303 8.96973Z" fill="#48465C"/>
</svg>
