<svg width="24" height="24" viewBox="0 0 24 24" fill="none" xmlns="http://www.w3.org/2000/svg">
<path d="M7.50033 18.0005C8.32861 18.0007 9.00033 18.6722 9.00033 19.5005C9.00014 20.3287 8.32849 21.0003 7.50033 21.0005C6.67201 21.0005 6.00051 20.3288 6.00033 19.5005C6.00033 18.6721 6.6719 18.0005 7.50033 18.0005ZM16.5003 18.0005C17.3286 18.0007 18.0003 18.6722 18.0003 19.5005C18.0001 20.3286 17.3285 21.0003 16.5003 21.0005C15.672 21.0005 15.0005 20.3287 15.0003 19.5005C15.0003 18.6721 15.6719 18.0005 16.5003 18.0005ZM1.28841 2.76318C1.4194 2.37023 1.84468 2.15759 2.23763 2.28857L2.54134 2.39014C3.1677 2.5989 3.69737 2.7756 4.11361 2.96924C4.55588 3.17499 4.93973 3.42986 5.2308 3.8335C5.5219 4.23737 5.64322 4.68266 5.69857 5.16748C5.72684 5.41505 5.73955 5.69283 5.74545 6.00049H16.4505C18.5053 6.00049 19.5332 6.00027 19.9779 6.67432C20.4225 7.34857 20.0178 8.29331 19.2083 10.1821L18.7796 11.1821C18.4017 12.0638 18.2128 12.5046 17.8372 12.7524C17.4615 13.0001 16.9813 13.0005 16.0218 13.0005H5.90365C6.00864 13.5403 6.17435 13.8561 6.40951 14.0913C6.68622 14.368 7.07455 14.5483 7.80795 14.647C8.5633 14.7485 9.56492 14.7505 11.0003 14.7505H18.0003C18.4145 14.7506 18.7503 15.0863 18.7503 15.5005C18.7502 15.9146 18.4144 16.2504 18.0003 16.2505H10.9456C9.57825 16.2505 8.47565 16.2507 7.60873 16.1343C6.70867 16.0133 5.95086 15.7537 5.34896 15.1519C4.74705 14.5499 4.48755 13.7922 4.36654 12.8921C4.24999 12.0251 4.25031 10.9228 4.25033 9.55518V6.8833C4.25033 6.17035 4.24955 5.6984 4.20834 5.3374C4.16933 4.99582 4.10035 4.8313 4.014 4.71143C3.92758 4.59153 3.79276 4.47472 3.4808 4.32959C3.15135 4.17633 2.70408 4.02576 2.02767 3.80029L1.76302 3.71143C1.37019 3.58039 1.15751 3.15607 1.28841 2.76318ZM8.00033 8.25049C7.58612 8.25049 7.25033 8.58628 7.25033 9.00049C7.25041 9.41464 7.58617 9.75049 8.00033 9.75049H11.0003C11.4144 9.75042 11.7502 9.4146 11.7503 9.00049C11.7503 8.58632 11.4145 8.25056 11.0003 8.25049H8.00033Z" fill="#1C274C"/>
</svg>
