<svg width="24" height="24" viewBox="0 0 24 24" fill="none" xmlns="http://www.w3.org/2000/svg">
<path d="M7.50034 18.0005C8.32861 18.0007 9.00034 18.6722 9.00034 19.5005C9.00015 20.3287 8.3285 21.0003 7.50034 21.0005C6.67202 21.0005 6.00052 20.3288 6.00034 19.5005C6.00034 18.6721 6.67191 18.0005 7.50034 18.0005ZM16.5003 18.0005C17.3286 18.0007 18.0003 18.6722 18.0003 19.5005C18.0001 20.3286 17.3285 21.0003 16.5003 21.0005C15.6721 21.0005 15.0005 20.3287 15.0003 19.5005C15.0003 18.6721 15.6719 18.0005 16.5003 18.0005ZM2.08432 2.75146C2.22175 2.36086 2.64971 2.15524 3.04037 2.29248L3.34213 2.39893C3.95838 2.61557 4.48192 2.79935 4.89389 3.00146C5.3344 3.21762 5.71228 3.48424 5.99643 3.8999C6.27841 4.31255 6.39485 4.76583 6.44858 5.26221C6.47261 5.48434 6.48584 5.73026 6.49252 6.00049H17.1302C18.8151 6.00049 20.3317 6.00067 20.7757 6.57764C21.2197 7.15472 21.0467 8.02412 20.6996 9.76318L20.1996 12.188C19.8845 13.7168 19.7268 14.4816 19.1751 14.9312C18.6235 15.3805 17.843 15.3804 16.2826 15.3804H10.9789C8.19017 15.3804 6.79541 15.3801 5.92905 14.4663C5.06292 13.5526 4.99936 12.5814 4.99936 9.64014V7.03857C4.99936 6.2987 4.99852 5.80353 4.95737 5.42334C4.91804 5.06 4.84841 4.87866 4.75815 4.74658C4.67011 4.61774 4.53682 4.49688 4.23373 4.34814C3.91089 4.18973 3.47166 4.03404 2.80405 3.79932L2.5433 3.70752C2.15253 3.57013 1.94694 3.14222 2.08432 2.75146ZM15.0306 8.97021C14.7377 8.67736 14.263 8.67742 13.9701 8.97021L13.0003 9.93994L12.0306 8.97021C11.7377 8.67736 11.263 8.67742 10.9701 8.97021C10.6772 9.26311 10.6772 9.73784 10.9701 10.0308L11.9398 11.0005L10.9701 11.9702C10.6772 12.2631 10.6772 12.7379 10.9701 13.0308C11.263 13.3235 11.7378 13.3236 12.0306 13.0308L13.0003 12.061L13.9701 13.0308C14.263 13.3235 14.7378 13.3236 15.0306 13.0308C15.3233 12.7379 15.3232 12.2631 15.0306 11.9702L14.0609 11.0005L15.0306 10.0308C15.3233 9.73791 15.3232 9.26309 15.0306 8.97021Z" fill="#1C274C"/>
</svg>
