<svg width="24" height="24" viewBox="0 0 24 24" fill="none" xmlns="http://www.w3.org/2000/svg">
<path d="M6.71802 2.63721C9.08202 1.3035 11.9527 0.858463 14.7825 1.6167C20.5171 3.15331 23.9204 9.04806 22.384 14.7827C20.8475 20.5173 14.9528 23.9207 9.21802 22.3843C3.48326 20.8476 0.0798255 14.953 1.61646 9.21826C1.92072 8.08281 2.39665 7.03702 3.00903 6.10303C3.58311 5.22799 4.74073 5.1601 5.47388 5.75342L12.4719 11.4175C12.7938 11.678 12.8435 12.1502 12.5833 12.4722C12.3227 12.7941 11.8506 12.8439 11.5286 12.5835L7.48853 9.31396C7.01942 10.0997 6.75029 11.0181 6.75024 12.0005C6.75024 14.9 9.10074 17.2505 12.0002 17.2505C14.8997 17.2504 17.2502 14.8999 17.2502 12.0005C17.2501 9.10115 14.8996 6.7506 12.0002 6.75049C11.4189 6.75049 10.8608 6.84468 10.3401 7.01807C9.94709 7.14896 9.52176 6.93645 9.39087 6.54346C9.26035 6.15071 9.47285 5.72618 9.86548 5.59521C10.5372 5.3715 11.2556 5.25049 12.0002 5.25049C15.728 5.2506 18.7501 8.27272 18.7502 12.0005C18.7502 15.7283 15.7281 18.7504 12.0002 18.7505C8.27232 18.7505 5.25024 15.7284 5.25024 12.0005C5.2503 10.6617 5.64092 9.41262 6.31372 8.36279L4.53052 6.91943C4.47469 6.87425 4.41145 6.86068 4.36157 6.8667C4.31614 6.87219 4.28512 6.89244 4.26294 6.92627C3.73705 7.72841 3.32807 8.62765 3.06567 9.60693C1.74357 14.5415 4.67127 19.6138 9.60571 20.936C14.5402 22.2582 19.6125 19.3295 20.9348 14.395C22.257 9.4605 19.3283 4.38813 14.3938 3.06592C11.9585 2.41348 9.49112 2.79532 7.45532 3.94385C7.09465 4.14733 6.63744 4.02024 6.43384 3.65967C6.23032 3.29893 6.35731 2.84075 6.71802 2.63721Z" fill="#1C274C"/>
</svg>
