<svg width="24" height="24" viewBox="0 0 24 24" fill="none" xmlns="http://www.w3.org/2000/svg">
<path d="M6.9502 1.75C7.33657 1.75 7.53008 1.7502 7.71582 1.76758C8.51677 1.84253 9.27617 2.15752 9.89551 2.6709C10.0392 2.79 10.1758 2.92679 10.4492 3.2002L11 3.75C11.8156 4.56563 12.2236 4.97336 12.7119 5.24512C12.8849 5.34136 13.0649 5.42462 13.25 5.49414V11.2031C13.2499 11.3382 13.25 11.5053 13.2686 11.6455C13.288 11.7913 13.3515 12.1235 13.6689 12.3428C14.0157 12.5821 14.3704 12.4918 14.5322 12.4326C14.6677 12.3831 14.8151 12.301 14.9199 12.2422L14.9443 12.2285L16 11.6387L17.0557 12.2285L17.0801 12.2422C17.1849 12.301 17.3323 12.3831 17.4678 12.4326C17.6296 12.4918 17.9843 12.5821 18.3311 12.3428C18.6485 12.1235 18.712 11.7913 18.7314 11.6455C18.75 11.5053 18.7501 11.3382 18.75 11.2031V5.79688C19.7987 5.86912 20.4869 6.05291 21.0059 6.51953C21.0846 6.59031 21.1598 6.66545 21.2305 6.74414C21.9998 7.59966 22 8.91568 22 11.5479V13.75C22 17.5212 21.9997 19.4066 20.8281 20.5781C19.6566 21.7497 17.7712 21.75 14 21.75H10C6.22878 21.75 4.34346 21.7497 3.17188 20.5781C2.00031 19.4066 2 17.5212 2 13.75V6.7002C2 5.81798 2.00006 5.37627 2.06934 5.00879C2.37463 3.39071 3.64071 2.12463 5.25879 1.81934C5.62627 1.75006 6.06798 1.75 6.9502 1.75ZM17.25 5.75195V10.6191L16.5449 10.2246L16.5361 10.2197C16.5018 10.2004 16.4391 10.1651 16.377 10.1377C16.2951 10.1016 16.1649 10.0557 16 10.0557C15.8351 10.0557 15.7049 10.1016 15.623 10.1377C15.5609 10.1651 15.4982 10.2004 15.4639 10.2197L15.4551 10.2246L14.75 10.6191V5.75H16.2021C16.5773 5.75 16.9258 5.74972 17.25 5.75195Z" fill="#1C274C"/>
</svg>
