<svg width="24" height="24" viewBox="0 0 24 24" fill="none" xmlns="http://www.w3.org/2000/svg">
<path d="M12 2C17.5228 2.00006 22 6.47718 22 12C22 17.5228 17.5228 21.9999 12 22C6.47713 22 2 17.5228 2 12C2 6.47715 6.47713 2 12 2ZM12.5303 7.46973C12.2374 7.17687 11.7626 7.17692 11.4697 7.46973L8.46973 10.4697C8.17683 10.7626 8.17683 11.2374 8.46973 11.5303C8.76262 11.8231 9.2374 11.8231 9.53027 11.5303L11.25 9.81055V16C11.25 16.4142 11.5858 16.75 12 16.75C12.4142 16.7499 12.75 16.4142 12.75 16V9.81055L14.4697 11.5303C14.7626 11.8231 15.2374 11.8231 15.5303 11.5303C15.8231 11.2374 15.8231 10.7626 15.5303 10.4697L12.5303 7.46973Z" fill="#48465C"/>
</svg>
