<svg width="24" height="24" viewBox="0 0 24 24" fill="none" xmlns="http://www.w3.org/2000/svg">
<path d="M16.4111 19.127C16.4 19.3385 16.3829 19.5349 16.3584 19.7158C16.2797 20.2998 16.1067 20.8273 15.6816 21.251C15.2566 21.6746 14.7275 21.8472 14.1416 21.9258C13.5866 22.0001 12.8873 22 12.0488 22H11.9512C11.1127 22 10.4134 22.0001 9.8584 21.9258C9.27253 21.8472 8.74342 21.6746 8.31836 21.251C7.89327 20.8273 7.72039 20.2998 7.6416 19.7158C7.61719 19.5349 7.59992 19.3385 7.58887 19.127C8.87078 19.9168 10.3822 20.3721 12 20.3721C13.6178 20.3721 15.1291 19.9168 16.4111 19.127ZM12 5.02344C15.866 5.02344 19 8.14685 19 12C19 15.8531 15.866 18.9766 12 18.9766C8.13403 18.9766 5.00004 15.8531 5 12C5 8.14685 8.13401 5.02344 12 5.02344ZM12 8.44043C11.6134 8.44043 11.2998 8.75238 11.2998 9.1377V12C11.2998 12.1898 11.3775 12.3714 11.5146 12.5029L13.3818 14.292C13.6605 14.5588 14.1033 14.55 14.3711 14.2725C14.6391 13.9947 14.6303 13.5532 14.3516 13.2861L12.7002 11.7031V9.1377C12.7002 8.75238 12.3866 8.44043 12 8.44043ZM12.0488 2C12.8873 1.99997 13.5866 1.99984 14.1416 2.07422C14.7275 2.15273 15.2566 2.32543 15.6816 2.74902C16.1067 3.17271 16.2797 3.70021 16.3584 4.28418C16.3829 4.46515 16.4 4.6615 16.4111 4.87305C15.1291 4.08325 13.6178 3.62793 12 3.62793C10.3822 3.62793 8.87078 4.08325 7.58887 4.87305C7.59992 4.6615 7.61719 4.46515 7.6416 4.28418C7.72039 3.70021 7.89327 3.1727 8.31836 2.74902C8.74343 2.32541 9.27252 2.15273 9.8584 2.07422C10.4134 1.99984 11.1127 1.99997 11.9512 2H12.0488Z" fill="#1C274C"/>
</svg>
