<svg width="24" height="24" viewBox="0 0 24 24" fill="none" xmlns="http://www.w3.org/2000/svg">
<path d="M17.0004 18.5791C16.7616 20.2104 16.6427 21.0269 16.0795 21.5137C15.5162 22.0003 14.6917 22 13.0433 22H10.9574C9.30875 22 8.48357 22.0005 7.92029 21.5137C7.35702 21.0269 7.23822 20.2104 6.99939 18.5791L6.87732 17.75H17.1224L17.0004 18.5791ZM17.3422 16.25H6.65857L6.14587 12.75H17.8539L17.3422 16.25ZM14.8148 2C16.6525 2 17.5715 2.00002 18.2943 2.44434C18.419 2.52099 18.5376 2.60715 18.6498 2.70117C19.2999 3.2461 19.5915 4.11719 20.1732 5.86035L20.2084 5.96777C20.5271 6.92273 20.6871 7.40062 20.5189 7.76172C20.4657 7.87565 20.3914 7.97896 20.3002 8.06543C20.0109 8.33945 19.5072 8.33984 18.5004 8.33984L18.0736 11.25H5.92615L5.50037 8.33984C4.49362 8.33984 3.98987 8.33924 3.70056 8.06543C3.60927 7.97894 3.53495 7.87569 3.48181 7.76172C3.31352 7.40059 3.47266 6.92294 3.79138 5.96777L3.82751 5.86035C4.40908 4.11749 4.69995 3.2461 5.34998 2.70117C5.46207 2.60722 5.58085 2.52095 5.70544 2.44434C6.42814 2.00004 7.34738 2 9.18494 2H14.8148Z" fill="#1C274C"/>
</svg>
