<svg width="24" height="24" viewBox="0 0 24 24" fill="none" xmlns="http://www.w3.org/2000/svg">
<path d="M14.0566 3.25C15.8943 3.24998 17.3501 3.25016 18.4893 3.40332C19.6615 3.56095 20.6101 3.89332 21.3584 4.6416C22.1066 5.38992 22.439 6.33844 22.5967 7.51074C22.7498 8.64991 22.75 10.1057 22.75 11.9434V12.0566C22.75 13.8943 22.7498 15.3501 22.5967 16.4893C22.439 17.6615 22.1066 18.6101 21.3584 19.3584C20.6101 20.1066 19.6615 20.439 18.4893 20.5967C17.3501 20.7498 15.8943 20.75 14.0566 20.75H9.94336C8.10573 20.75 6.64989 20.7498 5.51074 20.5967C4.33844 20.439 3.38992 20.1066 2.6416 19.3584C1.89332 18.6101 1.56095 17.6615 1.40332 16.4893C1.25016 15.3501 1.24998 13.8943 1.25 12.0566V11.9434C1.24998 10.1057 1.25016 8.6499 1.40332 7.51074C1.56095 6.33844 1.8933 5.38992 2.6416 4.6416C3.38992 3.8933 4.33844 3.56095 5.51074 3.40332C6.64991 3.25016 8.10571 3.24998 9.94336 3.25H14.0566ZM10 4.75C8.09324 4.75 6.73859 4.75149 5.71094 4.88965C4.70485 5.02492 4.12536 5.27894 3.70215 5.70215C3.27894 6.12536 3.02492 6.70485 2.88965 7.71094C2.75149 8.73859 2.75 10.0933 2.75 12C2.75 13.9067 2.7515 15.2614 2.88965 16.2891C3.02492 17.2951 3.27894 17.8747 3.70215 18.2979C4.12536 18.7211 4.70485 18.9752 5.71094 19.1104C6.73858 19.2485 8.09325 19.25 10 19.25H14C15.9067 19.25 17.2614 19.2485 18.2891 19.1104C19.2951 18.9752 19.8747 18.7211 20.2979 18.2979C20.7211 17.8747 20.9752 17.2951 21.1104 16.2891C21.2485 15.2614 21.25 13.9067 21.25 12C21.25 10.0933 21.2485 8.73858 21.1104 7.71094C20.9752 6.70485 20.7211 6.12536 20.2979 5.70215C19.8747 5.27894 19.2951 5.02492 18.2891 4.88965C17.2614 4.7515 15.9067 4.75 14 4.75H10ZM9 12.25C10.1958 12.25 11.3157 12.4907 12.1641 12.915C12.9676 13.3169 13.75 14.0107 13.75 15V15.0625C13.7516 15.5728 13.7539 16.4319 12.9395 17.0215C12.5615 17.2949 12.0631 17.4699 11.4453 17.5811C10.8218 17.6933 10.0228 17.75 9 17.75C7.97722 17.75 7.17819 17.6933 6.55469 17.5811C5.93693 17.4699 5.43849 17.295 5.06055 17.0215C4.24608 16.4319 4.24847 15.5728 4.25 15.0625V15C4.25 14.0107 5.03243 13.3169 5.83594 12.915C6.68438 12.4907 7.80425 12.25 9 12.25ZM9 13.75C7.98663 13.75 7.1061 13.9572 6.50684 14.2568C5.86291 14.5789 5.75 14.8848 5.75 15C5.75 15.6042 5.78838 15.6972 5.93945 15.8066C6.0615 15.8949 6.31315 16.0132 6.82031 16.1045C7.3218 16.1947 8.0228 16.25 9 16.25C9.97721 16.25 10.6782 16.1947 11.1797 16.1045C11.6869 16.0132 11.9385 15.8949 12.0605 15.8066C12.2116 15.6972 12.25 15.6042 12.25 15C12.25 14.8848 12.1371 14.5789 11.4932 14.2568C10.8939 13.9572 10.0134 13.75 9 13.75ZM19 14.25C19.4142 14.25 19.75 14.5858 19.75 15C19.75 15.4142 19.4142 15.75 19 15.75H16C15.5858 15.75 15.25 15.4142 15.25 15C15.25 14.5858 15.5858 14.25 16 14.25H19ZM19 11.25C19.4142 11.25 19.75 11.5858 19.75 12C19.75 12.4142 19.4142 12.75 19 12.75H15C14.5858 12.75 14.25 12.4142 14.25 12C14.25 11.5858 14.5858 11.25 15 11.25H19ZM9 6.25C10.5188 6.25 11.75 7.48122 11.75 9C11.75 10.5188 10.5188 11.75 9 11.75C7.48122 11.75 6.25 10.5188 6.25 9C6.25 7.48122 7.48122 6.25 9 6.25ZM9 7.75C8.30965 7.75 7.75 8.30965 7.75 9C7.75 9.69036 8.30965 10.25 9 10.25C9.69036 10.25 10.25 9.69036 10.25 9C10.25 8.30965 9.69036 7.75 9 7.75ZM19 8.25C19.4142 8.25 19.75 8.58579 19.75 9C19.75 9.41422 19.4142 9.75 19 9.75H14C13.5858 9.75 13.25 9.41422 13.25 9C13.25 8.58579 13.5858 8.25 14 8.25H19Z" fill="#1C274C"/>
</svg>
