<svg width="24" height="24" viewBox="0 0 24 24" fill="none" xmlns="http://www.w3.org/2000/svg">
<path d="M10 2C12.8284 2 14.2424 2.00023 15.1211 2.87891C15.9998 3.75759 16 5.17158 16 8V16.25H17.5713C18.7745 16.25 19.75 17.2255 19.75 18.4287V18.5C19.75 18.9142 20.0858 19.25 20.5 19.25C20.9142 19.25 21.25 18.9142 21.25 18.5V13.75L20.0254 13.3418C19.413 13.1375 19 12.5644 19 11.9189V9.5C19 8.67157 19.6716 8 20.5 8H21.25V7.62207C21.25 7.43734 21.2493 7.3735 21.2461 7.31543C21.2126 6.72099 20.9452 6.16405 20.502 5.7666C20.4586 5.72776 20.4091 5.6878 20.2646 5.57227L19.0312 4.58594C18.7078 4.32717 18.6554 3.85468 18.9141 3.53125C19.1729 3.20784 19.6454 3.15532 19.9688 3.41406L21.2178 4.41406C21.3399 4.51178 21.4244 4.57903 21.5029 4.64941C22.242 5.3119 22.6884 6.24053 22.7441 7.23145C22.75 7.33681 22.75 7.44501 22.75 7.60156V18.5C22.75 19.7427 21.7426 20.75 20.5 20.75C19.2574 20.75 18.25 19.7427 18.25 18.5V18.4287C18.25 18.0539 17.9461 17.75 17.5713 17.75H16V21.25H17.25C17.6642 21.25 18 21.5858 18 22C18 22.4142 17.6642 22.75 17.25 22.75H2C1.58579 22.75 1.25 22.4142 1.25 22C1.25 21.5858 1.58579 21.25 2 21.25H3V8C3 5.17157 3.00023 3.75759 3.87891 2.87891C4.75759 2.00023 6.17157 2 9 2H10ZM9.88574 9.35645C9.5306 9.14357 9.0695 9.25916 8.85645 9.61426L7.35645 12.1143C7.21763 12.3459 7.21467 12.6342 7.34766 12.8691C7.48079 13.1043 7.7298 13.25 8 13.25H9.67578L8.85645 14.6143C8.64359 14.9694 8.75917 15.4305 9.11426 15.6436C9.4694 15.8564 9.93052 15.7408 10.1436 15.3857L11.6436 12.8857C11.7823 12.6541 11.7853 12.3658 11.6523 12.1309C11.5191 11.8957 11.2702 11.75 11 11.75H9.32422L10.1436 10.3857C10.3564 10.0306 10.2409 9.56949 9.88574 9.35645Z" fill="#48465C"/>
</svg>
