<svg width="24" height="24" viewBox="0 0 24 24" fill="none" xmlns="http://www.w3.org/2000/svg">
<path d="M22 12C22 15.7712 21.9997 17.6566 20.8281 18.8281C19.6566 19.9997 17.7712 20 14 20H10C6.22878 20 4.34346 19.9997 3.17188 18.8281C2.00031 17.6566 2 15.7712 2 12C2 11.5581 2.00006 11.142 2.00195 10.75H21.998C21.9999 11.142 22 11.5581 22 12ZM15.9551 12.25C15.5223 12.2499 15.1255 12.2496 14.8027 12.293C14.4472 12.3408 14.0717 12.4536 13.7627 12.7627C13.4536 13.0717 13.3408 13.4472 13.293 13.8027C13.2496 14.1255 13.2499 14.5223 13.25 14.9551V15.0449C13.2499 15.4777 13.2496 15.8745 13.293 16.1973C13.3408 16.5528 13.4536 16.9283 13.7627 17.2373C14.0717 17.5464 14.4472 17.6592 14.8027 17.707C15.1255 17.7504 15.5223 17.7501 15.9551 17.75H16.0449C16.4777 17.7501 16.8745 17.7504 17.1973 17.707C17.5528 17.6592 17.9283 17.5464 18.2373 17.2373C18.5464 16.9283 18.6592 16.5528 18.707 16.1973C18.7504 15.8745 18.7501 15.4777 18.75 15.0449V14.9551C18.7501 14.5223 18.7504 14.1255 18.707 13.8027C18.6592 13.4472 18.5464 13.0717 18.2373 12.7627C17.9283 12.4536 17.5528 12.3408 17.1973 12.293C16.8745 12.2496 16.4777 12.2499 16.0449 12.25H15.9551ZM6 15.75C5.58579 15.75 5.25 16.0858 5.25 16.5C5.25 16.9142 5.58579 17.25 6 17.25H10C10.4142 17.25 10.75 16.9142 10.75 16.5C10.75 16.0858 10.4142 15.75 10 15.75H6ZM16 13.75C16.4925 13.75 16.7864 13.752 16.9971 13.7803C17.0937 13.7933 17.1424 13.8084 17.1641 13.8174C17.1689 13.8193 17.1719 13.8213 17.1738 13.8223L17.1768 13.8232L17.1777 13.8262C17.1787 13.8281 17.1807 13.8311 17.1826 13.8359C17.1916 13.8576 17.2067 13.9063 17.2197 14.0029C17.248 14.2136 17.25 14.5075 17.25 15C17.25 15.4925 17.248 15.7864 17.2197 15.9971C17.2067 16.0937 17.1916 16.1424 17.1826 16.1641C17.1807 16.1689 17.1787 16.1719 17.1777 16.1738L17.1768 16.1768L17.1738 16.1777C17.1719 16.1787 17.1689 16.1807 17.1641 16.1826C17.1424 16.1916 17.0937 16.2067 16.9971 16.2197C16.7864 16.248 16.4925 16.25 16 16.25C15.5075 16.25 15.2136 16.248 15.0029 16.2197C14.9063 16.2067 14.8576 16.1916 14.8359 16.1826C14.8311 16.1807 14.8281 16.1787 14.8262 16.1777L14.8232 16.1768L14.8223 16.1738C14.8213 16.1719 14.8193 16.1689 14.8174 16.1641C14.8084 16.1424 14.7933 16.0937 14.7803 15.9971C14.752 15.7864 14.75 15.4925 14.75 15C14.75 14.5075 14.752 14.2136 14.7803 14.0029C14.7933 13.9063 14.8084 13.8576 14.8174 13.8359C14.8193 13.8311 14.8213 13.8281 14.8223 13.8262L14.8232 13.8232L14.8262 13.8223C14.8281 13.8213 14.8311 13.8193 14.8359 13.8174C14.8576 13.8084 14.9063 13.7933 15.0029 13.7803C15.2136 13.752 15.5075 13.75 16 13.75ZM6 12.75C5.58579 12.75 5.25 13.0858 5.25 13.5C5.25 13.9142 5.58579 14.25 6 14.25H8C8.41421 14.25 8.75 13.9142 8.75 13.5C8.75 13.0858 8.41421 12.75 8 12.75H6ZM14 4C17.7712 4 19.6566 4.00031 20.8281 5.17188C21.6717 6.01541 21.9085 7.22883 21.9746 9.25H2.02539C2.09152 7.22882 2.32833 6.01542 3.17188 5.17188C4.34345 4.00031 6.22876 4 10 4H14Z" fill="#1C274C"/>
</svg>
