<svg width="24" height="24" viewBox="0 0 24 24" fill="none" xmlns="http://www.w3.org/2000/svg">
<path d="M12.0251 1.25C12.4696 1.24999 12.8406 1.24973 13.1453 1.27051C13.4624 1.29215 13.7621 1.3387 14.0525 1.45898C14.7262 1.73807 15.2616 2.27356 15.5408 2.94727C15.6861 3.29805 15.725 3.66848 15.74 4.07031C15.7522 4.3932 15.9155 4.6629 16.156 4.80176C16.3966 4.9406 16.7121 4.94694 16.9978 4.7959C17.3532 4.60806 17.6928 4.45678 18.0691 4.40723C18.7923 4.31203 19.5237 4.50816 20.1023 4.95215C20.3517 5.1435 20.5422 5.37976 20.7195 5.64355C20.8897 5.89692 21.0744 6.21873 21.2966 6.60352L21.322 6.64648C21.5442 7.03116 21.7297 7.35288 21.864 7.62695C22.0038 7.91234 22.1139 8.19529 22.155 8.50684C22.2502 9.22987 22.054 9.96146 21.6101 10.54C21.3791 10.8413 21.0785 11.0606 20.738 11.2744C20.4643 11.4464 20.3123 11.7222 20.3123 12C20.3123 12.2779 20.4643 12.5536 20.738 12.7256C21.0784 12.9395 21.379 13.1588 21.6101 13.46C22.0539 14.0385 22.2492 14.7701 22.1541 15.4932C22.1129 15.8046 22.0038 16.0877 21.864 16.373C21.7297 16.6471 21.5441 16.9688 21.322 17.3535L21.2966 17.3965C21.0744 17.7814 20.8888 18.103 20.7185 18.3564C20.5412 18.6202 20.3516 18.8565 20.1023 19.0479C19.5237 19.4918 18.7922 19.688 18.0691 19.5928C17.6926 19.5433 17.3523 19.392 16.9968 19.2041C16.7112 19.0534 16.3965 19.0595 16.156 19.1982C15.9155 19.3372 15.7522 19.6068 15.74 19.9297C15.725 20.3316 15.6861 20.7019 15.5408 21.0527C15.2617 21.7264 14.7262 22.2619 14.0525 22.541C13.7621 22.6613 13.4624 22.7079 13.1453 22.7295C12.8406 22.7503 12.4696 22.75 12.0251 22.75H11.9744C11.5301 22.75 11.1588 22.7503 10.8542 22.7295C10.5372 22.7079 10.2373 22.6613 9.94702 22.541C9.27338 22.2619 8.73782 21.7264 8.45874 21.0527C8.31345 20.7019 8.27455 20.3315 8.25952 19.9297C8.24732 19.6068 8.08402 19.3371 7.84351 19.1982C7.60303 19.0595 7.28829 19.0532 7.00269 19.2041C6.64719 19.392 6.30686 19.5432 5.93042 19.5928C5.2074 19.6879 4.47578 19.4918 3.89722 19.0479C3.64796 18.8566 3.45824 18.6202 3.28101 18.3564C3.1107 18.103 2.92511 17.7814 2.70288 17.3965L2.67749 17.3535C2.45534 16.9688 2.2698 16.6472 2.1355 16.373C1.99573 16.0877 1.88652 15.8046 1.84546 15.4932C1.75027 14.7701 1.94638 14.0386 2.39038 13.46C2.6215 13.1588 2.92203 12.9394 3.26245 12.7256C3.53597 12.5536 3.68822 12.2777 3.68823 12C3.68825 11.7222 3.53597 11.4464 3.26245 11.2744C2.92205 11.0605 2.62149 10.8411 2.39038 10.54C1.94639 9.96136 1.75026 9.22995 1.84546 8.50684C1.88651 8.19529 1.99572 7.91233 2.1355 7.62695C2.2698 7.35281 2.45531 7.03129 2.67749 6.64648L2.70288 6.60352C2.9251 6.21862 3.11071 5.89696 3.28101 5.64355C3.45822 5.37985 3.64799 5.14345 3.89722 4.95215C4.47576 4.50822 5.20743 4.31213 5.93042 4.40723C6.30688 4.45679 6.64717 4.60799 7.00269 4.7959C7.28826 4.94676 7.60303 4.9404 7.84351 4.80176C8.08401 4.66291 8.24734 4.39319 8.25952 4.07031C8.27455 3.66847 8.31344 3.29807 8.45874 2.94727C8.73782 2.2736 9.27338 1.73811 9.94702 1.45898C10.2373 1.33873 10.5372 1.29215 10.8542 1.27051C11.1588 1.24973 11.5301 1.24999 11.9744 1.25H12.0251ZM11.9998 2.75C11.5237 2.75 11.2042 2.75071 10.9568 2.76758C10.7161 2.78401 10.5984 2.81277 10.5212 2.84473C10.2152 2.97156 9.97235 3.21535 9.84546 3.52148C9.80544 3.6181 9.77191 3.76888 9.75854 4.12598C9.72891 4.91833 9.31955 5.68142 8.59351 6.10059C7.86754 6.51957 7.00241 6.49253 6.30151 6.12207C5.9857 5.95514 5.83879 5.90821 5.73511 5.89453C5.40647 5.85127 5.07428 5.94082 4.81128 6.14258C4.74503 6.19341 4.66071 6.28021 4.52612 6.48047C4.38778 6.68632 4.22707 6.96269 3.98901 7.375C3.75096 7.78732 3.59127 8.06438 3.48218 8.28711C3.37611 8.50366 3.34366 8.62036 3.33276 8.70312C3.28959 9.03168 3.37813 9.36403 3.57983 9.62695C3.64349 9.70991 3.75778 9.8138 4.0603 10.0039C4.73166 10.4258 5.18825 11.1616 5.18823 12C5.18819 12.8383 4.73165 13.5743 4.0603 13.9961C3.75771 14.1862 3.64349 14.2901 3.57983 14.373C3.37811 14.636 3.28955 14.9683 3.33276 15.2969C3.34366 15.3797 3.37609 15.4963 3.48218 15.7129C3.59128 15.9356 3.75092 16.2126 3.98901 16.625C4.22711 17.0374 4.38778 17.3137 4.52612 17.5195C4.66044 17.7194 4.74411 17.8066 4.8103 17.8574C5.07331 18.0592 5.40642 18.1488 5.73511 18.1055C5.83878 18.0918 5.98582 18.0448 6.30151 17.8779C7.00245 17.5075 7.86753 17.4804 8.59351 17.8994C9.31958 18.3186 9.72891 19.0817 9.75854 19.874C9.77191 20.2311 9.80544 20.3818 9.84546 20.4785C9.97235 20.7846 10.2152 21.0284 10.5212 21.1553C10.5984 21.1872 10.7161 21.216 10.9568 21.2324C11.2042 21.2493 11.5237 21.25 11.9998 21.25C12.4757 21.25 12.7954 21.2493 13.0427 21.2324C13.2835 21.216 13.4012 21.1872 13.4783 21.1553C13.7846 21.0284 14.0282 20.7847 14.155 20.4785C14.1951 20.3818 14.2276 20.2311 14.241 19.874C14.2706 19.0816 14.6801 18.3186 15.406 17.8994C16.132 17.4804 16.9971 17.5075 17.698 17.8779C18.0135 18.0446 18.1608 18.0917 18.2644 18.1055C18.5931 18.1487 18.9262 18.0593 19.1892 17.8574C19.2555 17.8066 19.34 17.7194 19.4744 17.5195C19.6127 17.3137 19.7726 17.0371 20.0105 16.625C20.2486 16.2126 20.4082 15.9356 20.5173 15.7129C20.6234 15.4962 20.6568 15.3797 20.6677 15.2969C20.7109 14.9683 20.6214 14.636 20.4197 14.373C20.356 14.29 20.2418 14.1862 19.9392 13.9961C19.2679 13.5742 18.8123 12.8383 18.8123 12C18.8124 11.1618 19.268 10.4258 19.9392 10.0039C20.2419 9.81383 20.356 9.70992 20.4197 9.62695C20.6214 9.36402 20.7109 9.03171 20.6677 8.70312C20.6568 8.62033 20.6234 8.5038 20.5173 8.28711C20.4082 8.06436 20.2486 7.78741 20.0105 7.375C19.7726 6.96288 19.6127 6.68629 19.4744 6.48047C19.34 6.28047 19.2555 6.19345 19.1892 6.14258C18.9263 5.94087 18.5939 5.85141 18.2654 5.89453C18.1618 5.90818 18.0139 5.95509 17.698 6.12207C16.9971 6.49242 16.1319 6.51969 15.406 6.10059C14.6799 5.6814 14.2706 4.91836 14.241 4.12598C14.2276 3.76888 14.1951 3.61809 14.155 3.52148C14.0282 3.21521 13.7846 2.97159 13.4783 2.84473C13.4012 2.81278 13.2834 2.784 13.0427 2.76758C12.7954 2.75072 12.4757 2.75 11.9998 2.75ZM11.9998 8.25C14.0709 8.25 15.7498 9.92893 15.7498 12C15.7498 14.0711 14.0709 15.75 11.9998 15.75C9.92876 15.7499 8.24976 14.0711 8.24976 12C8.24976 9.92898 9.92876 8.25008 11.9998 8.25ZM11.9998 9.75C10.7572 9.75008 9.74976 10.7574 9.74976 12C9.74976 13.2426 10.7572 14.2499 11.9998 14.25C13.2424 14.25 14.2498 13.2426 14.2498 12C14.2498 10.7574 13.2424 9.75 11.9998 9.75Z" fill="#48465C"/>
</svg>
