<svg width="24" height="24" viewBox="0 0 24 24" fill="none" xmlns="http://www.w3.org/2000/svg">
<path d="M12.0253 1.25C12.4697 1.24999 12.8407 1.24973 13.1454 1.27051C13.4625 1.29215 13.7622 1.3387 14.0526 1.45898C14.7263 1.73807 15.2618 2.27356 15.5409 2.94727C15.6862 3.29805 15.7251 3.66848 15.7401 4.07031C15.7523 4.3932 15.9156 4.6629 16.1561 4.80176C16.3967 4.9406 16.7122 4.94694 16.9979 4.7959C17.3533 4.60806 17.6929 4.45678 18.0692 4.40723C18.7924 4.31203 19.5238 4.50816 20.1024 4.95215C20.3518 5.1435 20.5423 5.37976 20.7196 5.64355C20.8899 5.89692 21.0745 6.21873 21.2968 6.60352L21.3221 6.64648C21.5443 7.03116 21.7299 7.35288 21.8641 7.62695C22.0039 7.91234 22.114 8.19529 22.1552 8.50684C22.2503 9.22987 22.0541 9.96146 21.6102 10.54C21.3792 10.8413 21.0787 11.0606 20.7382 11.2744C20.4645 11.4464 20.3124 11.7222 20.3124 12C20.3124 12.2779 20.4644 12.5536 20.7382 12.7256C21.0785 12.9395 21.3792 13.1588 21.6102 13.46C22.0541 14.0385 22.2494 14.7701 22.1542 15.4932C22.113 15.8046 22.0039 16.0877 21.8641 16.373C21.7299 16.6471 21.5442 16.9688 21.3221 17.3535L21.2968 17.3965C21.0746 17.7814 20.8889 18.103 20.7186 18.3564C20.5414 18.6202 20.3517 18.8565 20.1024 19.0479C19.5238 19.4918 18.7923 19.688 18.0692 19.5928C17.6927 19.5433 17.3524 19.392 16.9969 19.2041C16.7113 19.0534 16.3966 19.0595 16.1561 19.1982C15.9156 19.3372 15.7523 19.6068 15.7401 19.9297C15.7251 20.3316 15.6862 20.7019 15.5409 21.0527C15.2618 21.7264 14.7263 22.2619 14.0526 22.541C13.7622 22.6613 13.4625 22.7079 13.1454 22.7295C12.8407 22.7503 12.4697 22.75 12.0253 22.75H11.9745C11.5302 22.75 11.1589 22.7503 10.8544 22.7295C10.5374 22.7079 10.2375 22.6613 9.94714 22.541C9.27351 22.2619 8.73794 21.7264 8.45886 21.0527C8.31357 20.7019 8.27467 20.3315 8.25964 19.9297C8.24744 19.6068 8.08415 19.3371 7.84363 19.1982C7.60315 19.0595 7.28841 19.0532 7.00281 19.2041C6.64731 19.392 6.30698 19.5432 5.93054 19.5928C5.20752 19.6879 4.4759 19.4918 3.89734 19.0479C3.64808 18.8566 3.45836 18.6202 3.28113 18.3564C3.11082 18.103 2.92523 17.7814 2.703 17.3965L2.67761 17.3535C2.45547 16.9688 2.26992 16.6472 2.13562 16.373C1.99585 16.0877 1.88664 15.8046 1.84558 15.4932C1.75039 14.7701 1.9465 14.0386 2.3905 13.46C2.62163 13.1588 2.92215 12.9394 3.26257 12.7256C3.53609 12.5536 3.68834 12.2777 3.68835 12C3.68837 11.7222 3.53609 11.4464 3.26257 11.2744C2.92218 11.0605 2.62161 10.8411 2.3905 10.54C1.94651 9.96136 1.75038 9.22995 1.84558 8.50684C1.88663 8.19529 1.99584 7.91233 2.13562 7.62695C2.26992 7.35281 2.45543 7.03129 2.67761 6.64648L2.703 6.60352C2.92522 6.21862 3.11083 5.89696 3.28113 5.64355C3.45834 5.37985 3.64811 5.14345 3.89734 4.95215C4.47588 4.50822 5.20755 4.31213 5.93054 4.40723C6.307 4.45679 6.64729 4.60799 7.00281 4.7959C7.28839 4.94676 7.60315 4.9404 7.84363 4.80176C8.08413 4.66291 8.24746 4.39319 8.25964 4.07031C8.27467 3.66847 8.31356 3.29807 8.45886 2.94727C8.73795 2.2736 9.27351 1.73811 9.94714 1.45898C10.2375 1.33873 10.5374 1.29215 10.8544 1.27051C11.1589 1.24973 11.5302 1.24999 11.9745 1.25H12.0253ZM11.9999 2.75C11.5239 2.75 11.2044 2.75071 10.9569 2.76758C10.7162 2.78401 10.5986 2.81277 10.5214 2.84473C10.2153 2.97156 9.97248 3.21535 9.84558 3.52148C9.80556 3.6181 9.77203 3.76888 9.75867 4.12598C9.72904 4.91833 9.31967 5.68142 8.59363 6.10059C7.86766 6.51957 7.00254 6.49253 6.30164 6.12207C5.98582 5.95514 5.83891 5.90821 5.73523 5.89453C5.4066 5.85127 5.0744 5.94082 4.8114 6.14258C4.74515 6.19341 4.66084 6.28021 4.52625 6.48047C4.38791 6.68632 4.22719 6.96269 3.98914 7.375C3.75108 7.78732 3.5914 8.06438 3.4823 8.28711C3.37624 8.50366 3.34378 8.62036 3.33289 8.70312C3.28971 9.03168 3.37826 9.36403 3.57996 9.62695C3.64362 9.70991 3.7579 9.8138 4.06042 10.0039C4.73179 10.4258 5.18837 11.1616 5.18835 12C5.18831 12.8383 4.73177 13.5743 4.06042 13.9961C3.75783 14.1862 3.64362 14.2901 3.57996 14.373C3.37823 14.636 3.28968 14.9683 3.33289 15.2969C3.34378 15.3797 3.37621 15.4963 3.4823 15.7129C3.5914 15.9356 3.75105 16.2126 3.98914 16.625C4.22723 17.0374 4.3879 17.3137 4.52625 17.5195C4.66056 17.7194 4.74423 17.8066 4.81042 17.8574C5.07343 18.0592 5.40654 18.1488 5.73523 18.1055C5.8389 18.0918 5.98594 18.0448 6.30164 17.8779C7.00258 17.5075 7.86765 17.4804 8.59363 17.8994C9.3197 18.3186 9.72904 19.0817 9.75867 19.874C9.77203 20.2311 9.80556 20.3818 9.84558 20.4785C9.97247 20.7846 10.2153 21.0284 10.5214 21.1553C10.5986 21.1872 10.7162 21.216 10.9569 21.2324C11.2044 21.2493 11.5239 21.25 11.9999 21.25C12.4759 21.25 12.7955 21.2493 13.0428 21.2324C13.2836 21.216 13.4013 21.1872 13.4784 21.1553C13.7847 21.0284 14.0284 20.7847 14.1552 20.4785C14.1952 20.3818 14.2277 20.2311 14.2411 19.874C14.2707 19.0816 14.6802 18.3186 15.4061 17.8994C16.1321 17.4804 16.9972 17.5075 17.6981 17.8779C18.0136 18.0446 18.1609 18.0917 18.2645 18.1055C18.5932 18.1487 18.9263 18.0593 19.1893 17.8574C19.2556 17.8066 19.3401 17.7194 19.4745 17.5195C19.6128 17.3137 19.7727 17.0371 20.0106 16.625C20.2487 16.2126 20.4084 15.9356 20.5175 15.7129C20.6236 15.4962 20.6569 15.3797 20.6678 15.2969C20.7111 14.9683 20.6215 14.636 20.4198 14.373C20.3561 14.29 20.2419 14.1862 19.9393 13.9961C19.2681 13.5742 18.8124 12.8383 18.8124 12C18.8125 11.1618 19.2681 10.4258 19.9393 10.0039C20.242 9.81383 20.3561 9.70992 20.4198 9.62695C20.6215 9.36402 20.7111 9.03171 20.6678 8.70312C20.6569 8.62033 20.6236 8.5038 20.5175 8.28711C20.4084 8.06436 20.2487 7.78741 20.0106 7.375C19.7727 6.96288 19.6128 6.68629 19.4745 6.48047C19.3401 6.28048 19.2556 6.19345 19.1893 6.14258C18.9265 5.94087 18.594 5.85141 18.2655 5.89453C18.1619 5.90818 18.014 5.95509 17.6981 6.12207C16.9972 6.49242 16.132 6.51969 15.4061 6.10059C14.68 5.6814 14.2707 4.91836 14.2411 4.12598C14.2277 3.76888 14.1953 3.61809 14.1552 3.52148C14.0283 3.21521 13.7847 2.97159 13.4784 2.84473C13.4013 2.81278 13.2836 2.784 13.0428 2.76758C12.7955 2.75072 12.4759 2.75 11.9999 2.75ZM11.9999 8.25C14.071 8.25 15.7499 9.92893 15.7499 12C15.7499 14.0711 14.071 15.75 11.9999 15.75C9.92888 15.7499 8.24988 14.0711 8.24988 12C8.24988 9.92898 9.92888 8.25008 11.9999 8.25ZM11.9999 9.75C10.7573 9.75008 9.74988 10.7574 9.74988 12C9.74988 13.2426 10.7573 14.2499 11.9999 14.25C13.2425 14.25 14.2499 13.2426 14.2499 12C14.2499 10.7574 13.2425 9.75 11.9999 9.75Z" fill="#1C274C"/>
</svg>
