<svg width="24" height="24" viewBox="0 0 24 24" fill="none" xmlns="http://www.w3.org/2000/svg">
<path d="M17.1514 2C19.0006 2 20.4998 3.49221 20.5 5.33301C20.5 7.17396 19.0007 8.66699 17.1514 8.66699C16.2178 8.66696 15.3742 8.28604 14.7676 7.67383L10.1318 10.8291C10.1746 11.0421 10.1973 11.2626 10.1973 11.4873C10.1973 11.9322 10.1086 12.3574 9.94922 12.7461L15.0322 16.0859C15.6091 15.6163 16.3472 15.333 17.1514 15.333C19.0007 15.333 20.5 16.826 20.5 18.667C20.4998 20.5078 19.0006 22 17.1514 22C15.3022 21.9999 13.8029 20.5077 13.8027 18.667C13.8027 18.1849 13.9064 17.7258 14.0918 17.3115L9.0498 13.999C8.46177 14.5099 7.69154 14.8203 6.84863 14.8203C4.99936 14.8203 3.50006 13.3282 3.5 11.4873C3.5 9.64633 4.99932 8.1543 6.84863 8.1543C7.91199 8.15434 8.85879 8.64715 9.47168 9.41504L13.9639 6.35645C13.8594 6.03362 13.8027 5.68928 13.8027 5.33301C13.8029 3.49225 15.3022 2.00007 17.1514 2Z" fill="#48465C"/>
</svg>
