<svg width="24" height="24" viewBox="0 0 24 24" fill="none" xmlns="http://www.w3.org/2000/svg">
<path d="M3.71773 4.0918C4.94386 2.80112 6.97171 3.04326 7.98531 4.47656L9.24703 6.25977C10.0578 7.4064 9.98897 9.00088 9.02144 10.0195L8.77633 10.2773C8.77565 10.2791 8.77511 10.2811 8.77437 10.2832C8.76143 10.3196 8.7285 10.4356 8.7607 10.6553C8.8275 11.1108 9.17989 12.0361 10.6074 13.5391C12.0396 15.0468 12.9079 15.4024 13.3105 15.4678C13.4839 15.4959 13.5744 15.4712 13.6035 15.4609L14.0127 15.0312C14.8863 14.1115 16.2482 13.9304 17.3466 14.5625L19.2578 15.6621C20.8904 16.602 21.2703 18.9005 19.9658 20.2744L18.5449 21.7705C18.1016 22.2373 17.4969 22.6362 16.75 22.71C14.926 22.8899 10.7007 22.6552 6.27144 17.9922C2.13827 13.6408 1.35312 9.85509 1.25386 8.00586C1.20492 7.09231 1.6126 6.30823 2.1484 5.74414L3.71773 4.0918ZM6.7607 5.34277C6.24842 4.61823 5.3285 4.5748 4.80562 5.125L3.23531 6.77734C2.90395 7.12622 2.73048 7.5265 2.75191 7.92578C2.83296 9.43561 3.48325 12.8781 7.35933 16.959C11.4232 21.2374 15.1674 21.3585 16.6025 21.2168C16.8863 21.1888 17.178 21.031 17.457 20.7373L18.8779 19.2422C19.4906 18.5972 19.3303 17.4345 18.5097 16.9619L16.5986 15.8623C16.086 15.5673 15.4859 15.6588 15.1005 16.0645L14.6445 16.5439L14.1005 16.0273C14.6172 16.5181 14.6429 16.543 14.6435 16.5449L14.6386 16.5498L14.6328 16.5566L14.6181 16.5703C14.6077 16.5803 14.5955 16.5917 14.582 16.6035C14.5553 16.6269 14.5221 16.6534 14.4824 16.6816C14.4023 16.7384 14.2958 16.8013 14.1611 16.8545C13.8852 16.9633 13.5204 17.0213 13.0703 16.9482C12.1928 16.8057 11.0423 16.1756 9.51949 14.5723C7.99237 12.9645 7.40714 11.7651 7.27633 10.873C7.2098 10.4189 7.26359 10.0548 7.36129 9.78027C7.40932 9.6453 7.46621 9.5378 7.51851 9.45605C7.54447 9.41549 7.56888 9.38122 7.59078 9.35352C7.60177 9.33963 7.61267 9.32716 7.62203 9.31641L7.63472 9.30176L7.64449 9.29199L7.64547 9.29004C7.64617 9.28931 7.647 9.28856 8.19039 9.80469L7.64742 9.28809L7.93355 8.98633C8.37904 8.5173 8.44443 7.72302 8.02242 7.12598L6.7607 5.34277ZM17 1.25C20.1756 1.25 22.75 3.82436 22.75 7C22.75 10.1756 20.1756 12.75 17 12.75C16.0815 12.75 15.2114 12.5339 14.4394 12.1494C14.4225 12.141 14.4088 12.1378 14.4003 12.1367C14.3964 12.1362 14.3934 12.1357 14.3925 12.1357L13.2802 12.4336C12.2398 12.7117 11.2882 11.7602 11.5664 10.7197L11.8642 9.60742C11.8643 9.60647 11.8637 9.60426 11.8632 9.60059C11.8622 9.59219 11.8591 9.57784 11.8505 9.56055C11.4661 8.7886 11.25 7.91846 11.25 7C11.25 3.8244 13.8244 1.25006 17 1.25ZM17 2.75C14.6528 2.75006 12.75 4.65283 12.75 7C12.75 7.68116 12.91 8.32276 13.1933 8.8916C13.3523 9.21082 13.4182 9.60225 13.3134 9.99414L13.0605 10.9404L14.0058 10.6865C14.3978 10.5817 14.7891 10.6477 15.1084 10.8066C15.6771 11.09 16.3188 11.25 17 11.25C19.3472 11.25 21.25 9.34721 21.25 7C21.25 4.65279 19.3472 2.75 17 2.75ZM17 4.25C17.4142 4.25 17.75 4.58579 17.75 5V6.25H19C19.4142 6.25 19.75 6.58579 19.75 7C19.75 7.41421 19.4142 7.75 19 7.75H17.75V9C17.75 9.41421 17.4142 9.75 17 9.75C16.5858 9.74994 16.25 9.41417 16.25 9V7.75H15C14.5858 7.74994 14.25 7.41417 14.25 7C14.25 6.58583 14.5858 6.25006 15 6.25H16.25V5C16.25 4.58583 16.5858 4.25006 17 4.25Z" fill="#1C274C"/>
</svg>
