<svg width="24" height="24" viewBox="0 0 24 24" fill="none" xmlns="http://www.w3.org/2000/svg">
<path d="M9.99994 3.25C10.4141 3.25 10.7499 3.58578 10.7499 4V20C10.7499 20.2974 10.574 20.5668 10.3017 20.6865C10.0296 20.8062 9.71228 20.7537 9.4931 20.5527L3.4931 15.0527C3.26535 14.8438 3.18889 14.5166 3.30072 14.2285C3.41283 13.9403 3.69069 13.75 3.99994 13.75H9.24994V4C9.24994 3.5858 9.58579 3.25003 9.99994 3.25ZM13.6982 3.31348C13.9704 3.19381 14.2876 3.24633 14.5068 3.44727L20.5068 8.94727C20.7346 9.15615 20.811 9.48336 20.6992 9.77148C20.5871 10.0598 20.3092 10.25 19.9999 10.25H14.7499V20C14.7499 20.4142 14.4141 20.75 13.9999 20.75C13.5858 20.75 13.2499 20.4142 13.2499 20V4C13.2499 3.70258 13.426 3.43324 13.6982 3.31348Z" fill="#1C274C"/>
</svg>
