<svg width="24" height="24" viewBox="0 0 24 24" fill="none" xmlns="http://www.w3.org/2000/svg">
<path d="M12.0566 1.25C13.8943 1.24998 15.3501 1.25016 16.4893 1.40332C17.6615 1.56095 18.6101 1.89332 19.3584 2.6416C20.1066 3.38992 20.439 4.33844 20.5967 5.51074C20.6994 6.2748 20.733 7.18144 20.7441 8.25H21C21.9665 8.25 22.75 9.0335 22.75 10V11C22.75 11.5508 22.4905 12.0699 22.0498 12.4004L20.7471 13.377C20.7398 14.6094 20.7111 15.6378 20.5967 16.4893C20.439 17.6615 20.1066 18.6101 19.3584 19.3584C19.1686 19.5481 18.966 19.7113 18.75 19.8516V21C18.75 21.9665 17.9665 22.75 17 22.75H15.5C14.5335 22.75 13.75 21.9665 13.75 21V20.7441C13.2254 20.7496 12.6617 20.75 12.0566 20.75H11.9434C11.3383 20.75 10.7746 20.7496 10.25 20.7441V21C10.25 21.9665 9.4665 22.75 8.5 22.75H7C6.0335 22.75 5.25 21.9665 5.25 21V19.8516C5.03399 19.7113 4.83142 19.5481 4.6416 19.3584C3.89332 18.6101 3.56096 17.6615 3.40332 16.4893C3.28886 15.6378 3.26022 14.6094 3.25293 13.377L1.9502 12.4004C1.50954 12.0699 1.25 11.5508 1.25 11V10C1.25 9.0335 2.0335 8.25 3 8.25H3.25586C3.26699 7.18144 3.3006 6.2748 3.40332 5.51074C3.56096 4.33844 3.8933 3.38992 4.6416 2.6416C5.38992 1.8933 6.33843 1.56095 7.51074 1.40332C8.6499 1.25016 10.1057 1.24998 11.9434 1.25H12.0566ZM6.75 21C6.75 21.1381 6.86193 21.25 7 21.25H8.5C8.63807 21.25 8.75 21.1381 8.75 21V20.7041C8.30066 20.6814 7.88821 20.6474 7.51074 20.5967C7.24588 20.561 6.99231 20.5171 6.75 20.4609V21ZM17.25 20.4609C17.0077 20.5171 16.7541 20.561 16.4893 20.5967C16.1119 20.6474 15.6993 20.6814 15.25 20.7041V21C15.25 21.1381 15.3619 21.25 15.5 21.25H17C17.1381 21.25 17.25 21.1381 17.25 21V20.4609ZM4.75586 13.75C4.76675 14.7835 4.79811 15.6081 4.88965 16.2891C5.02491 17.2951 5.27894 17.8747 5.70215 18.2979C6.12536 18.7211 6.70485 18.9752 7.71094 19.1104C8.73858 19.2485 10.0933 19.25 12 19.25C13.9067 19.25 15.2614 19.2485 16.2891 19.1104C17.2951 18.9752 17.8747 18.7211 18.2979 18.2979C18.7211 17.8747 18.9752 17.2951 19.1104 16.2891C19.2019 15.6081 19.2332 14.7835 19.2441 13.75H4.75586ZM8.5 15.25C8.91421 15.25 9.25 15.5858 9.25 16C9.25 16.4142 8.91421 16.75 8.5 16.75H7C6.58579 16.75 6.25 16.4142 6.25 16C6.25 15.5858 6.58579 15.25 7 15.25H8.5ZM17 15.25C17.4142 15.25 17.75 15.5858 17.75 16C17.75 16.4142 17.4142 16.75 17 16.75H15.5C15.0858 16.75 14.75 16.4142 14.75 16C14.75 15.5858 15.0858 15.25 15.5 15.25H17ZM4.88477 5.75C4.75174 6.77287 4.75 8.1173 4.75 10V12.25H19.25V10C19.25 8.1173 19.2482 6.77287 19.1152 5.75H4.88477ZM3 9.75C2.86193 9.75 2.75 9.86193 2.75 10V11C2.75 11.0786 2.78675 11.153 2.84961 11.2002L3.25 11.5V9.75H3ZM20.75 11.5L21.1504 11.2002C21.2133 11.153 21.25 11.0786 21.25 11V10C21.25 9.86193 21.1381 9.75 21 9.75H20.75V11.5ZM12 2.75C10.0933 2.75 8.73859 2.75149 7.71094 2.88965C6.70485 3.02491 6.12536 3.27894 5.70215 3.70215C5.54547 3.85884 5.41164 4.03672 5.29883 4.25H18.7012C18.5884 4.03672 18.4546 3.85884 18.2979 3.70215C17.8747 3.27894 17.2951 3.02491 16.2891 2.88965C15.2614 2.7515 13.9067 2.75 12 2.75Z" fill="#1C274C"/>
</svg>
