<svg width="24" height="24" viewBox="0 0 24 24" fill="none" xmlns="http://www.w3.org/2000/svg">
<path d="M13.0518 1.25C13.9503 1.24997 14.7001 1.25012 15.2949 1.33008C15.9225 1.41452 16.489 1.6003 16.9443 2.05566C17.3997 2.51102 17.5855 3.07748 17.6699 3.70508C17.6926 3.87414 17.7091 4.05611 17.7207 4.25C18.31 4.25034 18.8082 4.25414 19.2188 4.2959C19.6922 4.34405 20.1314 4.44933 20.5273 4.71387C20.8276 4.91451 21.0855 5.17239 21.2861 5.47266C21.5507 5.86862 21.656 6.30784 21.7041 6.78125C21.7501 7.23355 21.75 7.79244 21.75 8.46191V21.25H22C22.4142 21.25 22.75 21.5858 22.75 22C22.75 22.4142 22.4142 22.75 22 22.75H2C1.58579 22.75 1.25 22.4142 1.25 22C1.25 21.5858 1.58579 21.25 2 21.25H2.25V8.46191C2.24998 7.79245 2.24991 7.23354 2.2959 6.78125C2.34406 6.30784 2.44934 5.86862 2.71387 5.47266C2.9145 5.17239 3.17239 4.91451 3.47266 4.71387C3.86862 4.44934 4.30784 4.34405 4.78125 4.2959C5.19183 4.25414 5.69009 4.25034 6.2793 4.25C6.29094 4.05611 6.30735 3.87414 6.33008 3.70508C6.41452 3.07747 6.60031 2.51102 7.05566 2.05566C7.51102 1.60031 8.07747 1.41452 8.70508 1.33008C9.29986 1.25012 10.0497 1.24997 10.9482 1.25H13.0518ZM6.25 5.75C5.66741 5.75064 5.25564 5.75523 4.93262 5.78809C4.57788 5.82419 4.41409 5.88848 4.30566 5.96094C4.1692 6.05211 4.05212 6.16921 3.96094 6.30566C3.88849 6.41409 3.82419 6.57788 3.78809 6.93262C3.75072 7.30002 3.75 7.78216 3.75 8.5V21.25H6.25V14.75H5.5C5.08579 14.75 4.75 14.4142 4.75 14C4.75 13.5858 5.08579 13.25 5.5 13.25H6.25V11.75H5.5C5.08579 11.75 4.75 11.4142 4.75 11C4.75 10.5858 5.08579 10.25 5.5 10.25H6.25V8.75H5.5C5.08579 8.75 4.75 8.41422 4.75 8C4.75 7.58579 5.08579 7.25 5.5 7.25H6.25V5.75ZM11 2.75C10.036 2.75 9.38831 2.75147 8.90527 2.81641C8.44388 2.87845 8.24651 2.9859 8.11621 3.11621C7.9859 3.24652 7.87845 3.44388 7.81641 3.90527C7.75146 4.38831 7.75 5.03599 7.75 6V21.25H11.25V19C11.25 18.5858 11.5858 18.25 12 18.25C12.4142 18.25 12.75 18.5858 12.75 19V21.25H16.25V6C16.25 5.03599 16.2485 4.38831 16.1836 3.90527C16.1215 3.44389 16.0141 3.24652 15.8838 3.11621C15.7535 2.98591 15.5561 2.87845 15.0947 2.81641C14.6117 2.75147 13.964 2.75 13 2.75H11ZM17.75 7.25H18.5C18.9142 7.25 19.25 7.58579 19.25 8C19.25 8.41422 18.9142 8.75 18.5 8.75H17.75V10.25H18.5C18.9142 10.25 19.25 10.5858 19.25 11C19.25 11.4142 18.9142 11.75 18.5 11.75H17.75V13.25H18.5C18.9142 13.25 19.25 13.5858 19.25 14C19.25 14.4142 18.9142 14.75 18.5 14.75H17.75V21.25H20.25V8.5C20.25 7.78216 20.2493 7.30002 20.2119 6.93262C20.1758 6.57788 20.1115 6.41409 20.0391 6.30566C19.9479 6.16919 19.8307 6.05212 19.6943 5.96094C19.5859 5.88848 19.4221 5.82419 19.0674 5.78809C18.7443 5.75523 18.3326 5.75064 17.75 5.75V7.25ZM14 14.25C14.4142 14.25 14.75 14.5858 14.75 15C14.75 15.4142 14.4142 15.75 14 15.75H10C9.58579 15.75 9.25 15.4142 9.25 15C9.25 14.5858 9.58579 14.25 10 14.25H14ZM14 11.25C14.4142 11.25 14.75 11.5858 14.75 12C14.75 12.4142 14.4142 12.75 14 12.75H10C9.58579 12.75 9.25 12.4142 9.25 12C9.25 11.5858 9.58579 11.25 10 11.25H14ZM12 4.25C13.5188 4.25 14.75 5.48122 14.75 7C14.75 8.51879 13.5188 9.75 12 9.75C10.4812 9.75 9.25 8.51879 9.25 7C9.25 5.48122 10.4812 4.25 12 4.25ZM12 5.75C11.3096 5.75 10.75 6.30965 10.75 7C10.75 7.69036 11.3096 8.25 12 8.25C12.6904 8.25 13.25 7.69036 13.25 7C13.25 6.30965 12.6904 5.75 12 5.75Z" fill="#1C274C"/>
</svg>
