<svg width="24" height="24" viewBox="0 0 24 24" fill="none" xmlns="http://www.w3.org/2000/svg">
<path d="M13.5732 2.25C15.0402 2.24998 16.2173 2.25019 17.1416 2.37402C18.0987 2.50228 18.8965 2.77558 19.5293 3.40625C20.1895 4.06417 20.4602 4.90127 20.582 5.91016L20.5869 5.95508V6.04785C20.8647 6.20897 21.1215 6.40477 21.3584 6.6416C22.1066 7.38992 22.439 8.33844 22.5967 9.51074C22.7498 10.6499 22.75 12.1057 22.75 13.9434V14.0566C22.75 15.8943 22.7498 17.3501 22.5967 18.4893C22.439 19.6615 22.1066 20.6101 21.3584 21.3584C20.6101 22.1066 19.6615 22.439 18.4893 22.5967C17.3501 22.7498 15.8943 22.75 14.0566 22.75H9.94336C8.10571 22.75 6.6499 22.7498 5.51074 22.5967C4.33844 22.439 3.38992 22.1066 2.6416 21.3584C1.89332 20.6101 1.56095 19.6615 1.40332 18.4893C1.26305 17.446 1.25099 16.1137 1.25 14.4893V13.9434C1.24998 12.1057 1.25016 10.6499 1.40332 9.51074C1.56095 8.33844 1.8933 7.38992 2.6416 6.6416C2.8283 6.4549 3.02724 6.29391 3.23926 6.15527L3.2373 5.95898L3.24316 5.91016C3.365 4.90124 3.63567 4.06418 4.2959 3.40625C4.92881 2.77557 5.72653 2.50227 6.68359 2.37402C7.60789 2.25019 8.78495 2.24998 10.252 2.25H13.5732ZM6.3623 13.6025C5.78529 13.0255 4.85924 12.9949 4.24512 13.5322L2.75098 14.8398C2.75409 16.3149 2.77271 17.4191 2.88965 18.2891C3.02491 19.2951 3.27894 19.8747 3.70215 20.2979C4.12536 20.7211 4.70485 20.9752 5.71094 21.1104C6.73858 21.2485 8.09325 21.25 10 21.25H14C15.9067 21.25 17.2614 21.2485 18.2891 21.1104C19.053 21.0077 19.5715 20.8369 19.9619 20.5752L17.2744 18.1562C16.4948 17.4547 15.3337 17.3852 14.4756 17.9883L14.1777 18.1973C13.0846 18.9656 11.5973 18.8371 10.6523 17.8926L6.3623 13.6025ZM10 6.75C8.09324 6.75 6.73858 6.75149 5.71094 6.88965C4.70485 7.02491 4.12536 7.27894 3.70215 7.70215C3.27894 8.12536 3.02491 8.70485 2.88965 9.71094C2.78117 10.5179 2.75738 11.5265 2.75195 12.8457L3.25781 12.4033C4.46623 11.3459 6.28744 11.4066 7.42285 12.542L11.7129 16.8311C12.1425 17.2605 12.8184 17.32 13.3154 16.9707L13.6133 16.7607C15.0435 15.7556 16.9789 15.8717 18.2783 17.041L20.8662 19.3711C20.972 19.0749 21.0523 18.7212 21.1104 18.2891C21.2485 17.2614 21.25 15.9067 21.25 14C21.25 12.0933 21.2485 10.7386 21.1104 9.71094C20.9752 8.70485 20.7211 8.12536 20.2979 7.70215C19.8747 7.27894 19.2951 7.02491 18.2891 6.88965C17.2614 6.7515 15.9067 6.75 14 6.75H10ZM17.5 8.25C18.7426 8.25 19.75 9.25736 19.75 10.5C19.75 11.7426 18.7426 12.75 17.5 12.75C16.2574 12.75 15.25 11.7426 15.25 10.5C15.25 9.25736 16.2574 8.25 17.5 8.25ZM17.5 9.75C17.0858 9.75 16.75 10.0858 16.75 10.5C16.75 10.9142 17.0858 11.25 17.5 11.25C17.9142 11.25 18.25 10.9142 18.25 10.5C18.25 10.0858 17.9142 9.75 17.5 9.75ZM10.3066 3.75C8.77185 3.75 7.69585 3.75142 6.88281 3.86035C6.09108 3.96643 5.66209 4.16224 5.35449 4.46875C5.11464 4.70779 4.94258 5.02025 4.82812 5.52148C5.04665 5.47348 5.2742 5.43512 5.51074 5.40332C6.64991 5.25016 8.1057 5.24998 9.94336 5.25H14.0566C15.8943 5.24998 17.3501 5.25016 18.4893 5.40332C18.6604 5.42631 18.8267 5.45319 18.9883 5.48438C18.8739 5.00496 18.7045 4.70177 18.4707 4.46875C18.1631 4.16226 17.734 3.96644 16.9424 3.86035C16.1294 3.75142 15.0532 3.75 13.5186 3.75H10.3066Z" fill="#48465C"/>
</svg>
