<svg width="24" height="24" viewBox="0 0 24 24" fill="none" xmlns="http://www.w3.org/2000/svg">
<path d="M18.5 13.5879C19.9044 13.5879 20.6069 13.5875 21.1113 13.9443C21.3297 14.0988 21.5172 14.2981 21.6631 14.5293C21.7401 14.6514 21.7998 14.7843 21.8457 14.9346L21.8516 14.9561C21.9999 15.4619 22 16.1628 22 17.2939C22 18.3238 21.9996 18.9971 21.8877 19.4912C21.8784 19.532 21.8683 19.5718 21.8574 19.6104C21.81 19.7782 21.7473 19.9252 21.6631 20.0586C21.5172 20.2897 21.3296 20.4881 21.1113 20.6426C20.6069 20.9995 19.9045 21 18.5 21H5.5C4.09554 21 3.39312 20.9995 2.88867 20.6426C2.67039 20.4881 2.48278 20.2897 2.33691 20.0586C1.99987 19.5245 2 18.7809 2 17.2939C2 16.2197 1.99988 15.5328 2.12695 15.0332L2.13477 15.0039C2.13912 14.9877 2.1438 14.9709 2.14844 14.9551L2.14941 14.9531C2.19595 14.7952 2.25681 14.6563 2.33691 14.5293C2.48283 14.2981 2.67029 14.0988 2.88867 13.9443C3.39312 13.5875 4.09562 13.5879 5.5 13.5879H18.5ZM11.5 16.25C11.0858 16.25 10.75 16.5858 10.75 17V18C10.75 18.4142 11.0858 18.75 11.5 18.75C11.9142 18.75 12.25 18.4142 12.25 18V17C12.25 16.5858 11.9142 16.25 11.5 16.25ZM14 16.25C13.5858 16.25 13.25 16.5858 13.25 17V18C13.25 18.4142 13.5858 18.75 14 18.75C14.4142 18.75 14.75 18.4142 14.75 18V17C14.75 16.5858 14.4142 16.25 14 16.25ZM16.5 16.25C16.0858 16.25 15.75 16.5858 15.75 17V18C15.75 18.4142 16.0858 18.75 16.5 18.75C16.9142 18.75 17.25 18.4142 17.25 18V17C17.25 16.5858 16.9142 16.25 16.5 16.25ZM19 16.25C18.5858 16.25 18.25 16.5858 18.25 17V18C18.25 18.4142 18.5858 18.75 19 18.75C19.4142 18.75 19.75 18.4142 19.75 18V17C19.75 16.5858 19.4142 16.25 19 16.25ZM16.5 3C17.6045 3.00003 18.5 3.5293 19 5.11719L21.251 12.8818C20.9291 12.7421 20.5911 12.6754 20.25 12.6387C19.7818 12.5882 19.2095 12.5879 18.5508 12.5879H5.44922C4.79046 12.5879 4.21812 12.5882 3.75 12.6387C3.40882 12.6754 3.07094 12.7431 2.74902 12.8828L5 5.11719C5.50003 3.5293 6.39553 3 7.5 3H16.5Z" fill="#1C274C"/>
</svg>
