<svg width="24" height="24" viewBox="0 0 24 24" fill="none" xmlns="http://www.w3.org/2000/svg">
<path d="M10.625 5.51758C10.8264 5.51761 11.0217 5.5424 11.2158 5.59082C12.3209 5.86659 13.3816 6.92656 15.2266 8.77148L15.2285 8.77344C16.8086 10.3534 17.8131 11.3585 18.2422 12.3086C18.4021 12.6626 18.4824 13.0091 18.4824 13.375C18.4824 14.7231 17.3973 15.8087 15.2275 17.9785L14.46 18.7451C12.2902 20.9148 11.2055 22 9.85742 22C8.50933 22 7.4246 20.9148 5.25488 18.7451C3.08519 16.5754 2.00009 15.4907 2 14.1426C2 12.7945 3.08517 11.7098 5.25488 9.54004L6.02148 8.77246C8.19126 6.60268 9.27688 5.51758 10.625 5.51758ZM5.78516 13.6123C5.49227 13.3194 5.0175 13.3194 4.72461 13.6123C4.43177 13.9052 4.43174 14.38 4.72461 14.6729L9.32715 19.2754C9.62003 19.5683 10.0948 19.5682 10.3877 19.2754C10.6806 18.9825 10.6806 18.5077 10.3877 18.2148L5.78516 13.6123ZM16.7617 2C17.6604 2.00001 18.3836 2.72341 19.8301 4.16992C21.2766 5.61642 22 6.33955 22 7.23828C22 8.13702 21.2765 8.86012 19.8301 10.3066L19.1943 10.9424C19.0901 10.7827 18.9786 10.6263 18.8613 10.4727C18.2575 9.68113 17.3836 8.80728 16.3594 7.7832L16.2168 7.64062C15.1928 6.6165 14.3188 5.74351 13.5273 5.13965C13.3736 5.02231 13.2175 4.91003 13.0576 4.80566L13.6934 4.16992C15.1399 2.72345 15.8629 2 16.7617 2ZM19.6211 6.5C19.3282 6.20721 18.8534 6.20714 18.5605 6.5L17.8535 7.20703C17.5606 7.49989 17.5607 7.97467 17.8535 8.26758C18.1464 8.56047 18.6213 8.56047 18.9141 8.26758L19.6211 7.56055C19.9139 7.26766 19.9139 6.79289 19.6211 6.5ZM17.5 4.37891C17.2071 4.08602 16.7324 4.08602 16.4395 4.37891L15.7324 5.08594C15.4395 5.37883 15.4395 5.85358 15.7324 6.14648C16.0253 6.43925 16.5001 6.43933 16.793 6.14648L17.5 5.43945C17.7928 5.14662 17.7927 4.67181 17.5 4.37891Z" fill="#1C274C"/>
</svg>
