<svg width="24" height="24" viewBox="0 0 24 24" fill="none" xmlns="http://www.w3.org/2000/svg">
<path d="M3.31372 3.31445C4.73265 1.89552 7.03346 1.89552 8.45239 3.31445L20.6858 15.5479C22.1044 16.9667 22.1044 19.2667 20.6858 20.6855C19.2669 22.1044 16.966 22.1044 15.5471 20.6855L3.31372 8.45215C1.89534 7.03329 1.89526 4.73326 3.31372 3.31445ZM7.02173 10.0391L16.6077 19.625C17.4408 20.4582 18.7921 20.4582 19.6252 19.625C20.4582 18.792 20.4582 17.4415 19.6252 16.6084L10.0393 7.02148L7.02173 10.0391ZM4.66821 15.124C4.99551 14.2921 6.17118 14.2919 6.49829 15.124L6.65259 15.5176L7.04419 15.6729C7.87289 16.0014 7.87293 17.1764 7.04419 17.5049L6.65259 17.6602L6.49829 18.0537C6.17112 18.8856 4.99557 18.8855 4.66821 18.0537L4.51294 17.6602L4.12231 17.5049C3.29294 17.1766 3.29295 16.0012 4.12231 15.6729L4.51294 15.5176L4.66821 15.124ZM5.44165 15.8896C5.34199 16.1432 5.14167 16.3448 4.88794 16.4453L4.52466 16.5889L4.88794 16.7324C5.14171 16.8329 5.34201 17.0345 5.44165 17.2881L5.58325 17.6475L5.72388 17.2881C5.82351 17.0345 6.02384 16.8329 6.27759 16.7324L6.64185 16.5889L6.27759 16.4453C6.02385 16.3448 5.82353 16.1432 5.72388 15.8896L5.58325 15.5303L5.44165 15.8896ZM19.5022 8.94629C19.8295 8.11436 21.0051 8.11419 21.3323 8.94629L21.4866 9.33984L21.8782 9.49512C22.7069 9.82362 22.7069 10.9987 21.8782 11.3271L21.4866 11.4824L21.3323 11.876C21.0051 12.7079 19.8295 12.7078 19.5022 11.876L19.3469 11.4824L18.9563 11.3271C18.1269 10.9988 18.1269 9.82343 18.9563 9.49512L19.3469 9.33984L19.5022 8.94629ZM20.2756 9.71191C20.176 9.96541 19.9757 10.1671 19.7219 10.2676L19.3586 10.4111L19.7219 10.5547C19.9757 10.6552 20.176 10.8568 20.2756 11.1104L20.4172 11.4697L20.5579 11.1104C20.6575 10.8568 20.8578 10.6552 21.1116 10.5547L21.4758 10.4111L21.1116 10.2676C20.8578 10.1671 20.6575 9.96545 20.5579 9.71191L20.4172 9.35254L20.2756 9.71191ZM7.39185 4.375C6.55876 3.54191 5.2084 3.54202 4.37524 4.375C3.54209 5.20814 3.54209 6.55846 4.37524 7.3916L5.96118 8.97852L8.97778 5.96094L7.39185 4.375ZM15.635 2.12402C15.9623 1.29207 17.1379 1.2919 17.4651 2.12402L17.8928 3.21387L18.9778 3.64258C19.8068 3.97096 19.8067 5.14715 18.9778 5.47559L17.8928 5.90527L17.4651 6.99414C17.138 7.82651 15.9622 7.82638 15.635 6.99414L15.2063 5.90527L14.1223 5.47559C13.293 5.14729 13.293 3.97089 14.1223 3.64258L15.2063 3.21387L15.635 2.12402ZM16.135 3.58496C16.0354 3.8385 15.835 4.04015 15.5813 4.14062L14.5247 4.55957L15.5813 4.97754C15.8351 5.078 16.0354 5.27963 16.135 5.5332L16.55 6.58887L16.9641 5.5332C17.0637 5.27967 17.2642 5.07802 17.5178 4.97754L18.5754 4.55957L17.5178 4.14062C17.2642 4.04014 17.0637 3.83847 16.9641 3.58496L16.55 2.53027L16.135 3.58496Z" fill="#48465C"/>
</svg>
