<svg width="24" height="24" viewBox="0 0 24 24" fill="none" xmlns="http://www.w3.org/2000/svg">
<path fill-rule="evenodd" clip-rule="evenodd" d="M14.8583 1.5879C15.5677 1.26685 16.3266 1.08378 17.0575 1.45997C17.7944 1.8394 18.0745 2.56544 18.207 3.32618C18.3364 4.06958 18.361 5.06726 18.3906 6.28126L18.4081 7.00197C18.4274 7.79041 18.4464 7.95713 18.5097 8.08986C18.5715 8.21934 18.6824 8.33283 19.2773 8.83009L19.8222 9.28517C20.7348 10.0479 21.4876 10.6773 21.9814 11.2383C22.4929 11.8195 22.8695 12.4872 22.7157 13.2998C22.5641 14.101 21.9796 14.6029 21.2958 14.9902C20.6287 15.3682 19.6907 15.7338 18.5449 16.1807L18.4872 16.2031L17.8681 16.4443C17.1309 16.7318 16.9666 16.8113 16.8466 16.9287C16.7264 17.0464 16.6427 17.2103 16.3368 17.9424L16.0566 18.6143C15.581 19.753 15.1916 20.6844 14.7978 21.3438C14.3949 22.0181 13.88 22.5932 13.0751 22.7246C12.2578 22.8579 11.6013 22.4601 11.037 21.9317C10.4917 21.4211 9.88537 20.6478 9.15032 19.7109L8.71184 19.1524C8.23295 18.5421 8.12319 18.4273 7.997 18.3623C7.86826 18.296 7.70454 18.2719 6.91888 18.2315L6.2011 18.1943C4.99418 18.1323 4.00172 18.0816 3.26458 17.9317C2.5085 17.7778 1.7929 17.4763 1.43548 16.7276C1.08227 15.9874 1.28278 15.2345 1.62102 14.5313C1.95349 13.8403 2.51782 12.9991 3.20794 11.9707L3.61516 11.3643C4.05994 10.7016 4.14932 10.5419 4.17962 10.3818C4.20895 10.2264 4.18543 10.057 4.0097 9.29786L3.84759 8.60157C3.57558 7.42682 3.35253 6.46092 3.2929 5.70607C3.2313 4.92603 3.32556 4.16724 3.91106 3.59474C4.4975 3.02139 5.25762 2.94647 6.03411 3.02931C6.78459 3.10939 7.74073 3.35977 8.90227 3.66407L9.59173 3.84474C10.3442 4.04185 10.5097 4.06996 10.663 4.04493C10.8211 4.01911 10.9809 3.93423 11.6533 3.50489L12.2675 3.11232C13.309 2.44731 14.1613 1.9034 14.8583 1.5879ZM18.4697 18.4697C18.7625 18.1769 19.2373 18.1771 19.5302 18.4697L21.5302 20.4697C21.8231 20.7626 21.8231 21.2374 21.5302 21.5303C21.2373 21.8232 20.7626 21.8232 20.4697 21.5303L18.4697 19.5303C18.177 19.2374 18.1769 18.7625 18.4697 18.4697ZM16.371 2.79396C16.2666 2.74021 16.0633 2.68901 15.4775 2.95411C14.8909 3.21958 14.1297 3.70315 13.0224 4.41017L12.4599 4.76954L12.3603 4.83302C11.8426 5.16456 11.4071 5.44329 10.9042 5.5254C10.3968 5.60811 9.90213 5.47773 9.32317 5.32521L9.21184 5.29591L8.58391 5.13185C7.34491 4.80729 6.49925 4.58714 5.87493 4.52052C5.2637 4.45533 5.06863 4.56165 4.95989 4.66798C4.85018 4.77536 4.73929 4.97087 4.78802 5.5879C4.83771 6.21721 5.03335 7.07234 5.32317 8.32423L5.47063 8.95997L5.497 9.07228C5.6335 9.65831 5.74884 10.1561 5.65325 10.6611C5.5584 11.1622 5.27099 11.5908 4.92669 12.1026L4.86028 12.2002L4.48821 12.7549C3.75497 13.8476 3.25272 14.5994 2.97259 15.1817C2.69312 15.7626 2.73667 15.9714 2.78899 16.0811C2.83727 16.1823 2.95601 16.3383 3.56341 16.4619C4.17661 16.5867 5.05494 16.6339 6.3427 16.7002L6.99602 16.7334L7.11516 16.7393C7.71301 16.7691 8.22926 16.7952 8.68255 17.0283C9.13816 17.2628 9.45537 17.6685 9.81927 18.1338L9.89153 18.2266L10.29 18.7334C11.0757 19.7349 11.6116 20.4147 12.0624 20.8369C12.504 21.2504 12.7055 21.2652 12.8339 21.2442C12.975 21.2211 13.1813 21.1257 13.5107 20.5742C13.8426 20.0186 14.1909 19.1884 14.6962 17.9785L14.9531 17.3643L14.997 17.2578C15.234 16.6883 15.4315 16.2137 15.7978 15.8555C16.1645 15.497 16.6428 15.3116 17.2158 15.0889L17.3232 15.0469L17.9423 14.8057C19.1601 14.3307 19.9951 14.0026 20.5566 13.6846C21.1119 13.3699 21.2147 13.1657 21.2421 13.0215C21.2673 12.8886 21.2548 12.6833 20.8554 12.2295C20.4472 11.7657 19.7853 11.21 18.8095 10.3945L18.3154 9.98048L18.2255 9.90529C17.7718 9.52728 17.3771 9.19912 17.1562 8.73634C16.9368 8.2766 16.9248 7.75969 16.9111 7.15822L16.9081 7.0381L16.8925 6.38185C16.861 5.08736 16.8374 4.20286 16.7294 3.58302C16.6224 2.96856 16.4692 2.84463 16.371 2.79396Z" fill="#1C274C"/>
</svg>
