<svg width="24" height="24" viewBox="0 0 24 24" fill="none" xmlns="http://www.w3.org/2000/svg">
<path d="M12 1.25C17.9371 1.25 22.75 6.06294 22.75 12C22.75 17.9371 17.9371 22.75 12 22.75C6.06294 22.75 1.25 17.9371 1.25 12C1.25 6.06294 6.06294 1.25 12 1.25ZM12 2.75C6.89137 2.75 2.75 6.89137 2.75 12C2.75 17.1086 6.89137 21.25 12 21.25C17.1086 21.25 21.25 17.1086 21.25 12C21.25 6.89137 17.1086 2.75 12 2.75ZM12 5.25C12.4142 5.25 12.75 5.58579 12.75 6V6.31641C14.3804 6.60835 15.75 7.83361 15.75 9.5C15.75 9.91421 15.4142 10.25 15 10.25C14.5858 10.25 14.25 9.91421 14.25 9.5C14.25 8.82155 13.6859 8.10358 12.75 7.84766V11.3164C14.3804 11.6084 15.75 12.8336 15.75 14.5C15.75 16.1664 14.3804 17.3916 12.75 17.6836V18C12.75 18.4142 12.4142 18.75 12 18.75C11.5858 18.75 11.25 18.4142 11.25 18V17.6836C9.61957 17.3916 8.25 16.1664 8.25 14.5C8.25 14.0858 8.58579 13.75 9 13.75C9.41421 13.75 9.75 14.0858 9.75 14.5C9.75 15.1785 10.3141 15.8964 11.25 16.1523V12.6836C9.61957 12.3916 8.25 11.1664 8.25 9.5C8.25 7.83361 9.61957 6.60835 11.25 6.31641V6C11.25 5.58579 11.5858 5.25 12 5.25ZM12.75 16.1523C13.6859 15.8964 14.25 15.1785 14.25 14.5C14.25 13.8215 13.6859 13.1036 12.75 12.8477V16.1523ZM11.25 7.84766C10.3141 8.10358 9.75 8.82155 9.75 9.5C9.75 10.1785 10.3141 10.8964 11.25 11.1523V7.84766Z" fill="#48465C"/>
</svg>
