<svg width="24" height="24" viewBox="0 0 24 24" fill="none" xmlns="http://www.w3.org/2000/svg">
<path d="M11.5117 10.4308C11.7925 10.19 12.2075 10.19 12.4883 10.4308L19.4883 16.4308C19.7264 16.635 19.8119 16.9656 19.7031 17.2599C19.5942 17.5543 19.3139 17.7501 19 17.7501H5C4.68614 17.7501 4.40576 17.5543 4.29688 17.2599C4.18812 16.9656 4.27362 16.635 4.51172 16.4308L11.5117 10.4308ZM11.5117 6.43079C11.7926 6.19004 12.2074 6.19004 12.4883 6.43079L19.4883 12.4308C19.8026 12.7003 19.8388 13.174 19.5693 13.4884C19.2997 13.8027 18.8261 13.839 18.5117 13.5695L12 7.98743L5.48828 13.5695C5.17386 13.839 4.70027 13.8027 4.43066 13.4884C4.16115 13.174 4.19739 12.7003 4.51172 12.4308L11.5117 6.43079Z" fill="#48465C"/>
</svg>
