<svg width="24" height="24" viewBox="0 0 24 24" fill="none" xmlns="http://www.w3.org/2000/svg">
<path d="M7.67578 17.25C8.10935 18.7527 9.30518 19.932 10.8174 20.3428L9.7373 21.4131C9.41343 21.7325 9.25143 21.8929 9.11426 21.9482C8.80157 22.0742 8.45452 21.9658 8.29004 21.6914C8.21787 21.571 8.19537 21.3541 8.15039 20.9199C8.12499 20.6747 8.11179 20.5519 8.07324 20.4492C7.98692 20.2194 7.80534 20.0402 7.57227 19.9551C7.46826 19.9171 7.34387 19.9048 7.0957 19.8799C6.65529 19.8355 6.43458 19.8133 6.3125 19.7422C6.03454 19.58 5.92512 19.2378 6.05273 18.9297C6.1088 18.7944 6.27163 18.6341 6.5957 18.3145L7.67578 17.25ZM17.4053 18.3145C17.7293 18.634 17.8913 18.7944 17.9473 18.9297C18.0749 19.2379 17.9655 19.58 17.6875 19.7422C17.5654 19.8133 17.3447 19.8355 16.9043 19.8799C16.6561 19.9048 16.5318 19.9171 16.4277 19.9551C16.1947 20.0402 16.0132 20.2194 15.9268 20.4492C15.8883 20.5519 15.875 20.6747 15.8496 20.9199C15.8046 21.3541 15.7821 21.571 15.71 21.6914C15.5455 21.9658 15.1984 22.0742 14.8857 21.9482C14.7486 21.8929 14.5865 21.7325 14.2627 21.4131L13.1826 20.3428C14.6948 19.932 15.8906 18.7527 16.3242 17.25L17.4053 18.3145ZM12 13C12.0646 13 12.1288 13.0028 12.1924 13.0068C12.2336 13.0094 12.2747 13.0123 12.3154 13.0166C12.4072 13.0262 12.4978 13.039 12.5869 13.0566C12.5902 13.0573 12.5934 13.0579 12.5967 13.0586C12.6735 13.0741 12.7487 13.095 12.8232 13.1162C12.8417 13.1215 12.8606 13.1253 12.8789 13.1309C13.0286 13.1767 13.1718 13.2371 13.3105 13.3047C13.347 13.3224 13.3843 13.3382 13.4199 13.3574C13.4509 13.3741 13.4804 13.3934 13.5107 13.4111C13.5634 13.4419 13.6164 13.472 13.667 13.5059C13.7137 13.5371 13.7579 13.5717 13.8027 13.6055C13.831 13.6268 13.8602 13.6467 13.8877 13.6689C13.9225 13.6971 13.9548 13.7281 13.9883 13.7578C14.0288 13.7938 14.0699 13.8291 14.1084 13.8672C14.1397 13.8981 14.1683 13.9316 14.1982 13.9639C14.2315 13.9997 14.2654 14.0348 14.2969 14.0723C14.3336 14.116 14.3671 14.1622 14.4014 14.208C14.4241 14.2384 14.4482 14.2676 14.4697 14.2988C14.4921 14.3312 14.5121 14.3651 14.5332 14.3984C14.5654 14.4492 14.5978 14.4999 14.627 14.5527C14.6447 14.585 14.6601 14.6184 14.6768 14.6514C14.7023 14.702 14.7283 14.7525 14.751 14.8047C14.77 14.8485 14.7857 14.8936 14.8027 14.9385C14.82 14.9841 14.8384 15.0295 14.8535 15.0762C14.8701 15.1275 14.8836 15.1799 14.8975 15.2324C14.9079 15.272 14.9189 15.3114 14.9277 15.3516C14.9463 15.436 14.9623 15.5215 14.9736 15.6084C14.9745 15.6152 14.9747 15.6221 14.9756 15.6289C14.9864 15.7167 14.994 15.8055 14.9971 15.8955C14.9973 15.9027 14.9988 15.9098 14.999 15.917C14.9997 15.9445 15 15.9724 15 16C15 17.6569 13.6569 19 12 19C10.3431 19 9 17.6569 9 16C9 15.9724 9.00024 15.9445 9.00098 15.917C9.00123 15.9075 9.00161 15.8981 9.00195 15.8887C9.00984 15.6725 9.04345 15.4629 9.09473 15.2607C9.10608 15.216 9.11556 15.1709 9.12891 15.127C9.14473 15.0749 9.16506 15.0245 9.18359 14.9736C9.19738 14.9358 9.20936 14.8974 9.22461 14.8604C9.24054 14.8216 9.25888 14.784 9.27637 14.7461C9.2999 14.6951 9.32334 14.6442 9.34961 14.5947C9.36564 14.5646 9.38337 14.5354 9.40039 14.5059C9.42895 14.4563 9.45799 14.4071 9.48926 14.3594C9.51517 14.3198 9.54261 14.2814 9.57031 14.2432C9.59502 14.2091 9.6204 14.1756 9.64648 14.1426C9.6759 14.1054 9.70619 14.069 9.7373 14.0332C9.77227 13.993 9.80769 13.9533 9.84473 13.915C9.86923 13.8897 9.89455 13.8653 9.91992 13.8408C9.96041 13.8018 10.0013 13.7633 10.0439 13.7266C10.0743 13.7004 10.1054 13.6753 10.1367 13.6504C10.1788 13.617 10.2218 13.5849 10.2656 13.5537C10.2981 13.5307 10.3309 13.5081 10.3643 13.4863C10.4091 13.4571 10.4555 13.4302 10.502 13.4033C10.5375 13.3828 10.5729 13.3619 10.6094 13.3428C10.6514 13.3208 10.6942 13.3003 10.7373 13.2803C10.7818 13.2596 10.8264 13.2392 10.8721 13.2207C10.9131 13.204 10.9551 13.1897 10.9971 13.1748C11.044 13.1581 11.0907 13.1403 11.1387 13.126C11.1462 13.1237 11.1536 13.1213 11.1611 13.1191L11.3955 13.0605C11.4053 13.0586 11.415 13.0566 11.4248 13.0547C11.4303 13.0536 11.4359 13.0528 11.4414 13.0518C11.5274 13.0356 11.6147 13.0233 11.7031 13.0146C11.7119 13.0138 11.7207 13.0135 11.7295 13.0127C11.8186 13.0047 11.9088 13 12 13ZM16 2C18.8284 2 20.2424 2.00023 21.1211 2.87891C21.9998 3.75759 22 5.17158 22 8V12C22 14.8284 21.9998 16.2424 21.1211 17.1211C20.6448 17.5975 20.0112 17.8162 19.0801 17.916C19.0061 17.8161 18.9357 17.7365 18.8857 17.6816C18.7698 17.5542 18.623 17.4091 18.4805 17.2686L16.9873 15.7959L16.4355 15.2373C16.073 13.1149 14.2253 11.5 12 11.5C9.77469 11.5 7.92694 13.1149 7.56445 15.2373L7.0127 15.7959L5.52051 17.2686C5.37785 17.4092 5.23036 17.5539 5.11426 17.6816C5.06429 17.7365 4.99392 17.8161 4.91992 17.916C3.9888 17.8162 3.35526 17.5975 2.87891 17.1211C2.00023 16.2424 2 14.8284 2 12V8C2 5.17157 2.00023 3.75759 2.87891 2.87891C3.75759 2.00023 5.17157 2 8 2H16ZM7 8.75C6.58579 8.75 6.25 9.08579 6.25 9.5C6.25 9.91421 6.58579 10.25 7 10.25H17C17.4142 10.25 17.75 9.91421 17.75 9.5C17.75 9.08579 17.4142 8.75 17 8.75H7ZM9 5.25C8.58579 5.25 8.25 5.58579 8.25 6C8.25 6.41421 8.58579 6.75 9 6.75H15C15.4142 6.75 15.75 6.41421 15.75 6C15.75 5.58579 15.4142 5.25 15 5.25H9Z" fill="#1C274C"/>
</svg>
