<svg width="24" height="24" viewBox="0 0 24 24" fill="none" xmlns="http://www.w3.org/2000/svg">
<path d="M12.2344 14.5088C12.5804 14.6152 12.5801 15.2318 12.5801 16.4639V16.5801C12.5801 17.0247 12.5808 17.2473 12.7227 17.3867L12.7295 17.3936C12.8746 17.5301 13.1061 17.5303 13.5684 17.5303C14.4004 17.5303 14.8164 17.5307 14.957 17.7832C14.9593 17.7873 14.9617 17.7917 14.9639 17.7959C15.0963 18.0522 14.8556 18.3783 14.374 19.0303L13.2256 20.585C12.4833 21.5899 12.1119 22.0925 11.7656 21.9863C11.4197 21.8799 11.4199 21.2635 11.4199 20.0312V19.915C11.4199 19.4705 11.4192 19.2478 11.2773 19.1084L11.2705 19.1016C11.1254 18.9652 10.8939 18.9648 10.4316 18.9648C9.59983 18.9648 9.1837 18.9652 9.04297 18.7129C9.04067 18.7087 9.03831 18.7043 9.03613 18.7002C8.9034 18.4437 9.14421 18.1171 9.62598 17.4648L10.7744 15.9102C11.5165 14.9053 11.8882 14.4026 12.2344 14.5088ZM12.4766 2C15.4161 2.00018 17.8373 4.19543 18.1553 7.01855C20.3931 7.78441 22 9.88686 22 12.3604C21.9999 15.4103 19.5565 17.8954 16.5 18.0068C16.5104 17.7315 16.4609 17.4233 16.2959 17.1045C16.2868 17.0868 16.2773 17.0692 16.2676 17.0518C15.837 16.2784 15.0641 16.122 14.7295 16.0752C14.5304 16.0473 14.3048 16.0356 14.0801 16.0312C14.0782 15.6081 14.0683 15.1965 14.0234 14.8633C13.9816 14.5528 13.8117 13.4224 12.6738 13.0732C11.5689 12.7345 10.7901 13.5254 10.5723 13.752C10.2742 14.062 9.94467 14.5069 9.61816 14.9492L8.37793 16.6289C8.17549 16.9026 7.93404 17.2282 7.77637 17.5244C7.71703 17.6359 7.63629 17.8038 7.57715 18.0107H6.28613C3.9192 18.0107 2 16.1133 2 13.7725C2.00024 11.432 3.91935 9.53516 6.28613 9.53516C6.57011 9.53518 6.84768 9.56211 7.11621 9.61426C6.88715 9.00286 6.76176 8.34153 6.76172 7.65137C6.76172 4.5304 9.32064 2 12.4766 2Z" fill="#1C274C"/>
</svg>
