<svg width="24" height="24" viewBox="0 0 24 24" fill="none" xmlns="http://www.w3.org/2000/svg">
<path d="M12.042 1.25C13.411 1.24999 14.496 1.24976 15.3623 1.33789C16.2498 1.42818 16.9904 1.61773 17.6387 2.05078C18.1573 2.39733 18.6026 2.84268 18.9492 3.36133C19.3822 4.00948 19.5718 4.75019 19.6621 5.6377C19.7502 6.50397 19.75 7.58899 19.75 8.95801V15.042C19.75 16.411 19.7502 17.496 19.6621 18.3623C19.5718 19.2498 19.3822 19.9904 18.9492 20.6387C18.6026 21.1573 18.1573 21.6026 17.6387 21.9492C16.9904 22.3822 16.2498 22.5718 15.3623 22.6621C14.496 22.7502 13.411 22.75 12.042 22.75H11.958C10.589 22.75 9.50398 22.7502 8.6377 22.6621C7.75019 22.5718 7.00948 22.3822 6.36133 21.9492C5.84268 21.6026 5.39733 21.1573 5.05078 20.6387C4.61773 19.9904 4.42818 19.2498 4.33789 18.3623C4.24976 17.496 4.24999 16.411 4.25 15.042V8.95801C4.24999 7.58899 4.24976 6.50397 4.33789 5.6377C4.42819 4.75019 4.61772 4.00948 5.05078 3.36133C5.39733 2.84268 5.84268 2.39733 6.36133 2.05078C7.00948 1.61772 7.75019 1.42819 8.6377 1.33789C9.50397 1.24976 10.589 1.24999 11.958 1.25H12.042ZM12 2.75C10.5801 2.75 9.57157 2.75061 8.79004 2.83008C8.021 2.90832 7.55501 3.05686 7.19434 3.29785C6.83955 3.53494 6.53494 3.83955 6.29785 4.19434C6.05686 4.55501 5.90832 5.021 5.83008 5.79004C5.75061 6.57157 5.75 7.58012 5.75 9V15C5.75 16.4199 5.75061 17.4285 5.83008 18.21C5.90832 18.9791 6.05686 19.445 6.29785 19.8057C6.53494 20.1605 6.83955 20.4651 7.19434 20.7021C7.55501 20.9431 8.021 21.0917 8.79004 21.1699C9.57157 21.2494 10.5801 21.25 12 21.25C13.4199 21.25 14.4285 21.2494 15.21 21.1699C15.9791 21.0917 16.445 20.9431 16.8057 20.7021C17.1605 20.4651 17.4651 20.1605 17.7021 19.8057C17.9431 19.445 18.0917 18.9791 18.1699 18.21C18.2494 17.4285 18.25 16.4199 18.25 15V9C18.25 7.58012 18.2494 6.57157 18.1699 5.79004C18.0917 5.021 17.9431 4.55501 17.7021 4.19434C17.4651 3.83955 17.1605 3.53494 16.8057 3.29785C16.445 3.05686 15.9791 2.90832 15.21 2.83008C14.4285 2.75061 13.4199 2.75 12 2.75ZM12 11.75C14.0711 11.75 15.75 13.4289 15.75 15.5C15.75 17.5711 14.0711 19.25 12 19.25C9.92893 19.25 8.25 17.5711 8.25 15.5C8.25 13.4289 9.92893 11.75 12 11.75ZM12 13.25C10.7574 13.25 9.75 14.2574 9.75 15.5C9.75 16.7426 10.7574 17.75 12 17.75C13.2426 17.75 14.25 16.7426 14.25 15.5C14.25 14.2574 13.2426 13.25 12 13.25ZM9 8C9.55229 8 10 8.44772 10 9C10 9.55229 9.55229 10 9 10C8.44772 10 8 9.55229 8 9C8 8.44772 8.44772 8 9 8ZM12 8C12.5523 8 13 8.44772 13 9C13 9.55229 12.5523 10 12 10C11.4477 10 11 9.55229 11 9C11 8.44772 11.4477 8 12 8ZM15 8C15.5523 8 16 8.44772 16 9C16 9.55229 15.5523 10 15 10C14.4477 10 14 9.55229 14 9C14 8.44772 14.4477 8 15 8ZM15 4.75C15.4142 4.75 15.75 5.08579 15.75 5.5C15.75 5.91421 15.4142 6.25 15 6.25H9C8.58579 6.25 8.25 5.91421 8.25 5.5C8.25 5.08579 8.58579 4.75 9 4.75H15Z" fill="#48465C"/>
</svg>
