<svg width="24" height="24" viewBox="0 0 24 24" fill="none" xmlns="http://www.w3.org/2000/svg">
<path d="M12 16.8496C12.4141 16.8496 12.7498 17.1856 12.75 17.5996V20C12.75 20.4142 12.4142 20.75 12 20.75C11.5858 20.75 11.25 20.4142 11.25 20V17.5996C11.2502 17.1856 11.5859 16.8496 12 16.8496ZM7.50977 15.4297C7.80266 15.1368 8.27742 15.1368 8.57031 15.4297C8.86321 15.7226 8.86321 16.1973 8.57031 16.4902L6.87305 18.1875C6.58012 18.48 6.10527 18.4803 5.8125 18.1875C5.51974 17.8947 5.51999 17.4199 5.8125 17.127L7.50977 15.4297ZM15.4297 15.4297C15.7225 15.137 16.1974 15.1369 16.4902 15.4297L18.1865 17.127C18.4794 17.4199 18.4794 17.8946 18.1865 18.1875C17.8936 18.4801 17.4188 18.4803 17.126 18.1875L15.4297 16.4902C15.1368 16.1973 15.1368 15.7226 15.4297 15.4297ZM6.40039 11.25C6.81442 11.2502 7.15039 11.5859 7.15039 12C7.15039 12.4141 6.81442 12.7498 6.40039 12.75H4C3.58579 12.75 3.25 12.4142 3.25 12C3.25 11.5858 3.58579 11.25 4 11.25H6.40039ZM20 11.25C20.4142 11.25 20.75 11.5858 20.75 12C20.75 12.4142 20.4142 12.75 20 12.75H17.5996C17.1856 12.7498 16.8496 12.4141 16.8496 12C16.8496 11.5859 17.1856 11.2502 17.5996 11.25H20ZM5.8125 5.81348C6.1054 5.52059 6.58016 5.52059 6.87305 5.81348L8.57031 7.50977C8.86314 7.80259 8.86301 8.27741 8.57031 8.57031C8.27742 8.8632 7.80266 8.8632 7.50977 8.57031L5.8125 6.87402C5.51971 6.58123 5.5199 6.1064 5.8125 5.81348ZM17.127 5.8125C17.4199 5.51999 17.8947 5.51974 18.1875 5.8125C18.4803 6.10527 18.48 6.58012 18.1875 6.87305L16.4902 8.57031C16.1973 8.86321 15.7226 8.86321 15.4297 8.57031C15.1368 8.27742 15.1368 7.80266 15.4297 7.50977L17.127 5.8125ZM12 3.25C12.4142 3.25 12.75 3.58579 12.75 4V6.40039C12.7498 6.81442 12.4141 7.15039 12 7.15039C11.5859 7.15039 11.2502 6.81442 11.25 6.40039V4C11.25 3.58579 11.5858 3.25 12 3.25Z" fill="#1C274C"/>
</svg>
