<svg width="24" height="24" viewBox="0 0 24 24" fill="none" xmlns="http://www.w3.org/2000/svg">
<path d="M14.0566 2.25C15.8943 2.24998 17.3501 2.25016 18.4893 2.40332C19.6615 2.56095 20.6101 2.89332 21.3584 3.6416C22.1066 4.38992 22.439 5.33844 22.5967 6.51074C22.7498 7.6499 22.75 9.1057 22.75 10.9434V11C22.75 11.4142 22.4142 11.75 22 11.75C21.5858 11.75 21.25 11.4142 21.25 11C21.25 9.09325 21.2485 7.73858 21.1104 6.71094C20.9752 5.70485 20.7211 5.12536 20.2979 4.70215C19.8747 4.27894 19.2951 4.02491 18.2891 3.88965C17.2614 3.7515 15.9067 3.75 14 3.75H10C8.09324 3.75 6.73858 3.75149 5.71094 3.88965C4.70485 4.02491 4.12536 4.27894 3.70215 4.70215C3.27894 5.12536 3.02491 5.70485 2.88965 6.71094C2.75149 7.73858 2.75 9.09324 2.75 11V13C2.75 14.9067 2.7515 16.2614 2.88965 17.2891C3.02491 18.2951 3.27894 18.8747 3.70215 19.2979C4.12536 19.7211 4.70485 19.9752 5.71094 20.1104C6.73858 20.2485 8.09325 20.25 10 20.25H11C11.4142 20.25 11.75 20.5858 11.75 21C11.75 21.4142 11.4142 21.75 11 21.75H9.94336C8.10571 21.75 6.6499 21.7498 5.51074 21.5967C4.33844 21.439 3.38992 21.1066 2.6416 20.3584C1.89332 19.6101 1.56095 18.6615 1.40332 17.4893C1.25016 16.3501 1.24998 14.8943 1.25 13.0566V10.9434C1.24998 9.10569 1.25016 7.6499 1.40332 6.51074C1.56095 5.33844 1.8933 4.38992 2.6416 3.6416C3.38992 2.8933 4.33844 2.56095 5.51074 2.40332C6.64991 2.25016 8.1057 2.24998 9.94336 2.25H14.0566ZM18.0518 12.25C18.9503 12.25 19.7001 12.2501 20.2949 12.3301C20.9225 12.4145 21.489 12.6003 21.9443 13.0557C22.3997 13.511 22.5855 14.0775 22.6699 14.7051C22.7499 15.2999 22.75 16.0497 22.75 16.9482V17.0518C22.75 17.9503 22.7499 18.7001 22.6699 19.2949C22.5855 19.9225 22.3997 20.489 21.9443 20.9443C21.489 21.3997 20.9225 21.5855 20.2949 21.6699C19.7001 21.7499 18.9503 21.75 18.0518 21.75H16.9482C16.0497 21.75 15.2999 21.7499 14.7051 21.6699C14.0775 21.5855 13.511 21.3997 13.0557 20.9443C12.6003 20.489 12.4145 19.9225 12.3301 19.2949C12.2501 18.7001 12.25 17.9503 12.25 17.0518V16.9482C12.25 16.0497 12.2501 15.2999 12.3301 14.7051C12.4145 14.0775 12.6003 13.511 13.0557 13.0557C13.511 12.6003 14.0775 12.4145 14.7051 12.3301C15.2999 12.2501 16.0497 12.25 16.9482 12.25H18.0518ZM17 13.75C16.036 13.75 15.3883 13.7515 14.9053 13.8164C14.4439 13.8785 14.2465 13.9859 14.1162 14.1162C13.9859 14.2465 13.8785 14.4439 13.8164 14.9053C13.7515 15.3883 13.75 16.036 13.75 17C13.75 17.964 13.7515 18.6117 13.8164 19.0947C13.8785 19.5561 13.9859 19.7535 14.1162 19.8838C14.2465 20.0141 14.4439 20.1215 14.9053 20.1836C15.3883 20.2485 16.036 20.25 17 20.25H18C18.964 20.25 19.6117 20.2485 20.0947 20.1836C20.5561 20.1215 20.7535 20.0141 20.8838 19.8838C21.0141 19.7535 21.1215 19.5561 21.1836 19.0947C21.2485 18.6117 21.25 17.964 21.25 17C21.25 16.036 21.2485 15.3883 21.1836 14.9053C21.1215 14.4439 21.0141 14.2465 20.8838 14.1162C20.7535 13.9859 20.5561 13.8785 20.0947 13.8164C19.6117 13.7515 18.964 13.75 18 13.75H17Z" fill="#48465C"/>
</svg>
