<svg width="24" height="24" viewBox="0 0 24 24" fill="none" xmlns="http://www.w3.org/2000/svg">
<path d="M12 2C16.4183 2 20 5.64613 20 10.1436C19.9999 14.6057 17.4466 19.8128 13.4629 21.6748C12.5344 22.1088 11.4656 22.1088 10.5371 21.6748C6.55341 19.8128 4.0001 14.6057 4 10.1436C4 5.64613 7.58172 2 12 2ZM15 8.75781C15 7.02486 13.35 6.37724 12 7.71582C10.65 6.37724 9 7.02485 9 8.75781C9.00036 9.77726 10.1651 10.8544 11.043 11.5215C11.4626 11.8405 11.6725 12 12 12C12.3275 12 12.5374 11.8405 12.957 11.5215C13.835 10.8544 14.9996 9.77728 15 8.75781Z" fill="#1C274C"/>
</svg>
