<svg width="24" height="24" viewBox="0 0 24 24" fill="none" xmlns="http://www.w3.org/2000/svg">
<path d="M12 17.25C12.4142 17.25 12.75 17.5858 12.75 18V22C12.75 22.4142 12.4142 22.75 12 22.75C11.5858 22.75 11.25 22.4142 11.25 22V18C11.25 17.5858 11.5858 17.25 12 17.25ZM2.19922 2.38672C2.80477 2.07517 3.40628 2.27118 3.87891 2.51367C4.34235 2.75147 4.89916 3.14847 5.5498 3.61328C5.56602 3.62487 5.58229 3.63677 5.59863 3.64844L7.2041 4.79492C7.49132 5.00005 7.74556 5.18276 7.94629 5.35547C8.16402 5.54281 8.35853 5.75152 8.50098 6.02832C8.64331 6.30504 8.70068 6.58415 8.72656 6.87012C8.75043 7.13384 8.75001 7.44685 8.75 7.7998V16.2002C8.75001 16.5532 8.75043 16.8661 8.72656 17.1299C8.70067 17.4158 8.64332 17.695 8.50098 17.9717C8.35853 18.2485 8.16402 18.4571 7.94629 18.6445C7.74557 18.8172 7.49131 19 7.2041 19.2051L5.5498 20.3867C4.89915 20.8516 4.34236 21.2485 3.87891 21.4863C3.40627 21.7288 2.80477 21.9248 2.19922 21.6133C1.5937 21.3016 1.40359 20.6984 1.32617 20.1729C1.25029 19.6575 1.24996 18.9735 1.25 18.1738V5.82617C1.24996 5.02651 1.25029 4.34248 1.32617 3.82715C1.40359 3.30161 1.5937 2.69833 2.19922 2.38672ZM20.1211 2.51367C20.5937 2.2712 21.1952 2.0752 21.8008 2.38672C22.4063 2.69833 22.5964 3.30161 22.6738 3.82715C22.7497 4.34248 22.7501 5.02651 22.75 5.82617V18.1738C22.7501 18.9735 22.7497 19.6575 22.6738 20.1729C22.5964 20.6984 22.4063 21.3016 21.8008 21.6133C21.1952 21.9248 20.5937 21.7288 20.1211 21.4863C19.6576 21.2485 19.1008 20.8516 18.4502 20.3867L16.7959 19.2051C16.5087 19 16.2544 18.8172 16.0537 18.6445C15.836 18.4571 15.6414 18.2485 15.499 17.9717C15.3566 17.695 15.2993 17.4158 15.2734 17.1299C15.2496 16.8661 15.25 16.5532 15.25 16.2002V7.7998C15.25 7.44686 15.2496 7.13385 15.2734 6.87012C15.2993 6.58416 15.3567 6.30504 15.499 6.02832C15.6414 5.75152 15.836 5.54281 16.0537 5.35547C16.2544 5.18276 16.5087 5.00005 16.7959 4.79492L18.4502 3.61328C19.1009 3.14848 19.6576 2.75147 20.1211 2.51367ZM2.88965 3.72949C2.86964 3.76922 2.83703 3.85943 2.80957 4.0459C2.75177 4.43853 2.75 5.0102 2.75 5.88672V18.1133C2.75 18.9898 2.75178 19.5614 2.80957 19.9541C2.83704 20.1406 2.86963 20.2309 2.88965 20.2705C2.93349 20.2638 3.02624 20.2386 3.19434 20.1523C3.54744 19.9712 4.01328 19.6403 4.72656 19.1309L6.30762 18.001C6.62615 17.7735 6.82467 17.631 6.96777 17.5078C7.09952 17.3945 7.1432 17.3315 7.16699 17.2852C7.19074 17.2389 7.21679 17.1668 7.23242 16.9941C7.2494 16.8062 7.25 16.5613 7.25 16.1699V7.8291C7.25 7.4377 7.24944 7.19287 7.23242 7.00488C7.21679 6.83256 7.19071 6.76103 7.16699 6.71484C7.1432 6.66861 7.09952 6.60555 6.96777 6.49219C6.82467 6.36909 6.62616 6.22655 6.30762 5.99902L4.72656 4.86914C4.01329 4.35965 3.54744 4.02882 3.19434 3.84766C3.02624 3.76141 2.93349 3.73622 2.88965 3.72949ZM21.1104 3.72949C21.0666 3.73622 20.9738 3.76141 20.8057 3.84766C20.4526 4.02882 19.9867 4.35964 19.2734 4.86914L17.6924 5.99902C17.3739 6.22654 17.1754 6.36909 17.0322 6.49219C16.9005 6.60555 16.8568 6.66861 16.833 6.71484C16.8093 6.76103 16.7832 6.83255 16.7676 7.00488C16.7506 7.19287 16.75 7.4377 16.75 7.8291V16.1699C16.75 16.5613 16.7506 16.8062 16.7676 16.9941C16.7832 17.1669 16.8093 17.2389 16.833 17.2852C16.8568 17.3315 16.9005 17.3945 17.0322 17.5078C17.1754 17.631 17.3739 17.7735 17.6924 18.001L19.2734 19.1309C19.9867 19.6404 20.4526 19.9712 20.8057 20.1523C20.9738 20.2386 21.0666 20.2638 21.1104 20.2705C21.1304 20.2309 21.163 20.1406 21.1904 19.9541C21.2482 19.5614 21.25 18.9898 21.25 18.1133V5.88672C21.25 5.0102 21.2482 4.43853 21.1904 4.0459C21.163 3.85943 21.1304 3.76923 21.1104 3.72949ZM12 9.25C12.4142 9.25 12.75 9.58579 12.75 10V14C12.75 14.4142 12.4142 14.75 12 14.75C11.5858 14.75 11.25 14.4142 11.25 14V10C11.25 9.58579 11.5858 9.25 12 9.25ZM12 1.25C12.4142 1.25 12.75 1.58579 12.75 2V6C12.75 6.41421 12.4142 6.75 12 6.75C11.5858 6.75 11.25 6.41421 11.25 6V2C11.25 1.58579 11.5858 1.25 12 1.25Z" fill="#48465C"/>
</svg>
