<svg width="24" height="24" viewBox="0 0 24 24" fill="none" xmlns="http://www.w3.org/2000/svg">
<path d="M8.96979 6.46973C9.26268 6.17684 9.73747 6.17684 10.0303 6.46973C10.3232 6.76262 10.3232 7.23741 10.0303 7.53027L6.31061 11.25H14.5001C15.4535 11.25 16.8671 11.5301 18.0635 12.3916C19.2981 13.2807 20.2501 14.7558 20.2501 17C20.25 17.4142 19.9142 17.75 19.5001 17.75C19.0859 17.75 18.7501 17.4142 18.7501 17C18.7501 15.2444 18.0351 14.2193 17.1866 13.6084C16.2999 12.9701 15.2133 12.75 14.5001 12.75H6.31061L10.0303 16.4697C10.3232 16.7626 10.3232 17.2374 10.0303 17.5303C9.7375 17.8231 9.26268 17.8231 8.96979 17.5303L3.96979 12.5303C3.6769 12.2374 3.6769 11.7626 3.96979 11.4697L8.96979 6.46973Z" fill="#1C274C"/>
</svg>
