<svg width="24" height="24" viewBox="0 0 24 24" fill="none" xmlns="http://www.w3.org/2000/svg">
<path d="M12 1.25C17.9371 1.25 22.75 6.06294 22.75 12C22.75 17.9371 17.9371 22.75 12 22.75C6.06294 22.75 1.25 17.9371 1.25 12C1.25 6.06294 6.06294 1.25 12 1.25ZM12 2.75C6.89137 2.75 2.75 6.89137 2.75 12C2.75 17.1086 6.89137 21.25 12 21.25C17.1086 21.25 21.25 17.1086 21.25 12C21.25 6.89137 17.1086 2.75 12 2.75ZM5.99316 13.25C6.40736 13.2465 6.74649 13.5799 6.75 13.9941C6.75726 14.8499 6.78593 15.4478 6.87402 15.8975C6.95797 16.3259 7.08566 16.5631 7.25977 16.7373C7.43404 16.9116 7.6718 17.04 8.10059 17.124C8.5503 17.2121 9.14812 17.2407 10.0039 17.248C10.418 17.2516 10.7506 17.5897 10.7471 18.0039C10.7436 18.418 10.4053 18.7505 9.99121 18.7471C9.14072 18.7399 8.41483 18.7136 7.8125 18.5957C7.18916 18.4736 6.64535 18.244 6.19922 17.7979C5.75325 17.3517 5.52344 16.8088 5.40137 16.1855C5.28338 15.5832 5.25721 14.8574 5.25 14.0068C5.24649 13.5928 5.57918 13.2538 5.99316 13.25ZM18.0039 13.25C18.4181 13.2535 18.7506 13.5926 18.7471 14.0068C18.7399 14.8574 18.7137 15.5832 18.5957 16.1855C18.4736 16.8089 18.2439 17.3517 17.7979 17.7979C17.3517 18.2439 16.8089 18.4736 16.1855 18.5957C15.5832 18.7137 14.8574 18.7399 14.0068 18.7471C13.5926 18.7506 13.2535 18.4181 13.25 18.0039C13.2465 17.5897 13.5799 17.2515 13.9941 17.248C14.8499 17.2407 15.4478 17.2121 15.8975 17.124C16.3261 17.04 16.563 16.9116 16.7373 16.7373C16.9116 16.563 17.04 16.3261 17.124 15.8975C17.2121 15.4478 17.2407 14.8499 17.248 13.9941C17.2515 13.5799 17.5897 13.2465 18.0039 13.25ZM9.99121 5.25C10.4051 5.24659 10.7433 5.57925 10.7471 5.99316C10.7506 6.40733 10.418 6.74643 10.0039 6.75C9.14807 6.75726 8.55031 6.78594 8.10059 6.87402C7.6718 6.95801 7.43404 7.08549 7.25977 7.25977C7.08549 7.43404 6.95801 7.6718 6.87402 8.10059C6.78594 8.55031 6.75726 9.14807 6.75 10.0039C6.74643 10.418 6.40733 10.7506 5.99316 10.7471C5.57925 10.7433 5.24659 10.4051 5.25 9.99121C5.25721 9.14076 5.28345 8.41481 5.40137 7.8125C5.52347 7.18916 5.75308 6.64535 6.19922 6.19922C6.64535 5.75308 7.18916 5.52347 7.8125 5.40137C8.41481 5.28345 9.14076 5.25721 9.99121 5.25ZM14.0068 5.25C14.8574 5.25721 15.5832 5.28338 16.1855 5.40137C16.8088 5.52344 17.3517 5.75325 17.7979 6.19922C18.244 6.64535 18.4736 7.18916 18.5957 7.8125C18.7136 8.41483 18.7399 9.14072 18.7471 9.99121C18.7505 10.4053 18.418 10.7436 18.0039 10.7471C17.5897 10.7506 17.2516 10.418 17.248 10.0039C17.2407 9.14812 17.2121 8.5503 17.124 8.10059C17.04 7.6718 16.9116 7.43404 16.7373 7.25977C16.5631 7.08566 16.3259 6.95797 15.8975 6.87402C15.4478 6.78593 14.8499 6.75726 13.9941 6.75C13.5799 6.74649 13.2465 6.40736 13.25 5.99316C13.2538 5.57918 13.5928 5.24649 14.0068 5.25Z" fill="#1C274C"/>
</svg>
