<svg width="24" height="24" viewBox="0 0 24 24" fill="none" xmlns="http://www.w3.org/2000/svg">
<path d="M6.55176 1.75C7.45023 1.74997 8.20015 1.75012 8.79492 1.83008C9.42254 1.91452 9.98903 2.1003 10.4443 2.55566C10.8997 3.01102 11.0855 3.57748 11.1699 4.20508C11.2499 4.79986 11.25 5.54977 11.25 6.44824V17.5518C11.25 18.4503 11.2499 19.2001 11.1699 19.7949C11.0855 20.4225 10.8997 20.989 10.4443 21.4443C9.98903 21.8997 9.42254 22.0855 8.79492 22.1699C8.20014 22.2499 7.45024 22.25 6.55176 22.25H6.44824C5.54976 22.25 4.79987 22.2499 4.20508 22.1699C3.57748 22.0855 3.01102 21.8997 2.55566 21.4443C2.1003 20.989 1.91452 20.4226 1.83008 19.7949C1.75012 19.2001 1.74997 18.4503 1.75 17.5518V6.44824C1.74997 5.54978 1.75012 4.79986 1.83008 4.20508C1.91452 3.57747 2.1003 3.01102 2.55566 2.55566C3.01102 2.1003 3.57747 1.91452 4.20508 1.83008C4.79986 1.75012 5.54978 1.74997 6.44824 1.75H6.55176ZM17.5518 10.75C18.4503 10.75 19.2001 10.7501 19.7949 10.8301C20.4225 10.9145 20.989 11.1003 21.4443 11.5557C21.8997 12.011 22.0855 12.5775 22.1699 13.2051C22.2499 13.7999 22.25 14.5498 22.25 15.4482V17.5518C22.25 18.4503 22.2499 19.2001 22.1699 19.7949C22.0855 20.4225 21.8997 20.989 21.4443 21.4443C20.989 21.8997 20.4225 22.0855 19.7949 22.1699C19.2001 22.2499 18.4502 22.25 17.5518 22.25H17.4482C16.5498 22.25 15.7999 22.2499 15.2051 22.1699C14.5775 22.0855 14.011 21.8997 13.5557 21.4443C13.1003 20.989 12.9145 20.4225 12.8301 19.7949C12.7501 19.2001 12.75 18.4503 12.75 17.5518V15.4482C12.75 14.5497 12.7501 13.7999 12.8301 13.2051C12.9145 12.5775 13.1003 12.011 13.5557 11.5557C14.011 11.1003 14.5775 10.9145 15.2051 10.8301C15.7999 10.7501 16.5497 10.75 17.4482 10.75H17.5518ZM6.5 3.25C5.53599 3.25 4.8883 3.25147 4.40527 3.31641C3.94388 3.37845 3.74652 3.4859 3.61621 3.61621C3.4859 3.74652 3.37845 3.94388 3.31641 4.40527C3.25147 4.8883 3.25 5.53599 3.25 6.5V17.5C3.25 18.464 3.25147 19.1117 3.31641 19.5947C3.37845 20.0561 3.48591 20.2535 3.61621 20.3838C3.74652 20.5141 3.94389 20.6215 4.40527 20.6836C4.8883 20.7485 5.53599 20.75 6.5 20.75C7.46401 20.75 8.11169 20.7485 8.59473 20.6836C9.05611 20.6215 9.25348 20.5141 9.38379 20.3838C9.51409 20.2535 9.62155 20.0561 9.68359 19.5947C9.74853 19.1117 9.75 18.464 9.75 17.5V6.5C9.75 5.53599 9.74853 4.8883 9.68359 4.40527C9.62155 3.94388 9.51409 3.74652 9.38379 3.61621C9.25348 3.4859 9.05611 3.37845 8.59473 3.31641C8.11169 3.25147 7.46401 3.25 6.5 3.25ZM17.5 12.25C16.536 12.25 15.8883 12.2515 15.4053 12.3164C14.9439 12.3785 14.7465 12.4859 14.6162 12.6162C14.4859 12.7465 14.3785 12.9439 14.3164 13.4053C14.2515 13.8883 14.25 14.536 14.25 15.5V17.5C14.25 18.464 14.2515 19.1117 14.3164 19.5947C14.3785 20.0561 14.4859 20.2535 14.6162 20.3838C14.7465 20.5141 14.9439 20.6215 15.4053 20.6836C15.8883 20.7485 16.536 20.75 17.5 20.75C18.464 20.75 19.1117 20.7485 19.5947 20.6836C20.0561 20.6215 20.2535 20.5141 20.3838 20.3838C20.5141 20.2535 20.6215 20.0561 20.6836 19.5947C20.7485 19.1117 20.75 18.464 20.75 17.5V15.5C20.75 14.536 20.7485 13.8883 20.6836 13.4053C20.6215 12.9439 20.5141 12.7465 20.3838 12.6162C20.2535 12.4859 20.0561 12.3785 19.5947 12.3164C19.1117 12.2515 18.464 12.25 17.5 12.25ZM18.5254 1.75C18.9698 1.75 19.3409 1.74973 19.6455 1.77051C19.9626 1.79215 20.2624 1.83872 20.5527 1.95898C21.2264 2.23809 21.7619 2.77359 22.041 3.44727C22.1613 3.73762 22.2079 4.03744 22.2295 4.35449C22.2503 4.65907 22.25 5.03021 22.25 5.47461V5.52539C22.25 5.96979 22.2503 6.34093 22.2295 6.64551C22.2079 6.96256 22.1613 7.26238 22.041 7.55273C21.7619 8.22642 21.2264 8.76191 20.5527 9.04102C20.2624 9.16128 19.9626 9.20786 19.6455 9.22949C19.3409 9.25028 18.9697 9.25001 18.5254 9.25H16.4746C16.0303 9.25001 15.6591 9.25028 15.3545 9.22949C15.0374 9.20786 14.7376 9.16128 14.4473 9.04102C13.7736 8.76191 13.2381 8.22642 12.959 7.55273C12.8388 7.26238 12.7921 6.96256 12.7705 6.64551C12.7497 6.34092 12.75 5.9698 12.75 5.52539V5.47461C12.75 5.03021 12.7497 4.65907 12.7705 4.35449C12.7921 4.03744 12.8388 3.73762 12.959 3.44727C13.2381 2.77359 13.7736 2.23809 14.4473 1.95898C14.7376 1.83872 15.0374 1.79215 15.3545 1.77051C15.659 1.74973 16.0302 1.75 16.4746 1.75H18.5254ZM16.5 3.25C16.024 3.25 15.7045 3.25072 15.457 3.26758C15.2164 3.284 15.0987 3.31278 15.0215 3.34473C14.7153 3.4716 14.4715 3.71519 14.3447 4.02148C14.3127 4.09863 14.284 4.21633 14.2676 4.45703C14.2507 4.70445 14.25 5.02397 14.25 5.5C14.25 5.97604 14.2507 6.29555 14.2676 6.54297C14.284 6.78366 14.3127 6.90136 14.3447 6.97852C14.4715 7.2848 14.7153 7.52841 15.0215 7.65527C15.0987 7.68723 15.2164 7.71601 15.457 7.73242C15.7045 7.74929 16.024 7.75 16.5 7.75H18.5C18.976 7.75 19.2955 7.74929 19.543 7.73242C19.7836 7.71601 19.9013 7.68723 19.9785 7.65527C20.2847 7.52841 20.5284 7.2848 20.6553 6.97852C20.6872 6.90136 20.716 6.7837 20.7324 6.54297C20.7493 6.29555 20.75 5.97604 20.75 5.5C20.75 5.02397 20.7493 4.70446 20.7324 4.45703C20.716 4.21631 20.6872 4.09863 20.6553 4.02148C20.5284 3.7152 20.2847 3.4716 19.9785 3.34473C19.9013 3.31278 19.7836 3.284 19.543 3.26758C19.2955 3.25072 18.976 3.25 18.5 3.25H16.5Z" fill="#48465C"/>
</svg>
