<svg width="24" height="24" viewBox="0 0 24 24" fill="none" xmlns="http://www.w3.org/2000/svg">
<path d="M13.0518 1.25C13.9503 1.24997 14.7001 1.25012 15.2949 1.33008C15.9225 1.41452 16.489 1.6003 16.9443 2.05566C17.3997 2.51102 17.5855 3.07748 17.6699 3.70508C17.7338 4.18017 17.7464 4.75431 17.749 5.42383C18.4937 5.56398 19.1309 5.8282 19.6514 6.34863C20.2533 6.95055 20.5128 7.70829 20.6338 8.6084C20.7503 9.47534 20.75 10.5778 20.75 11.9453V13.0967C20.75 14.2649 20.7505 15.1992 20.6719 15.96C20.5905 16.747 20.4201 17.412 20.041 18.0254C19.6619 18.6388 19.1431 19.088 18.4756 19.5127C17.8303 19.9233 16.9944 20.3417 15.9492 20.8643L15.9131 20.8818C15.8561 20.9103 15.7998 20.939 15.7441 20.9668C14.1531 21.7631 13.1236 22.2783 12 22.2783C10.8764 22.2783 9.84695 21.7631 8.25586 20.9668C8.20022 20.939 8.14395 20.9103 8.08691 20.8818L8.05078 20.8643C7.00563 20.3417 6.16978 19.9233 5.52441 19.5127C4.85697 19.088 4.3381 18.6388 3.95898 18.0254C3.57987 17.412 3.41047 16.747 3.3291 15.96C3.25044 15.1992 3.24999 14.265 3.25 13.0967V11.9453C3.24998 10.5778 3.24968 9.47534 3.36621 8.6084C3.48723 7.70829 3.74671 6.95055 4.34863 6.34863C4.86908 5.82818 5.50621 5.56398 6.25098 5.42383C6.25355 4.75431 6.26621 4.18017 6.33008 3.70508C6.41452 3.07747 6.6003 2.51102 7.05566 2.05566C7.51102 1.6003 8.07747 1.41452 8.70508 1.33008C9.29986 1.25012 10.0497 1.24997 10.9482 1.25H13.0518ZM10 6.75C8.56485 6.75 7.5639 6.75202 6.80859 6.85352C6.07482 6.95217 5.68594 7.13242 5.40918 7.40918C5.13242 7.68595 4.95217 8.07482 4.85352 8.80859C4.75201 9.5639 4.75 10.5649 4.75 12V13.0557C4.75 14.2738 4.75056 15.1308 4.82031 15.8057C4.88828 16.4631 5.01713 16.8832 5.23535 17.2363C5.45363 17.5895 5.77236 17.8923 6.33008 18.2471C6.90243 18.6112 7.66839 18.9953 8.75781 19.54C10.5808 20.4515 11.2744 20.7783 12 20.7783C12.7256 20.7783 13.4192 20.4515 15.2422 19.54C16.3316 18.9953 17.0976 18.6112 17.6699 18.2471C18.2276 17.8923 18.5463 17.5895 18.7646 17.2363C18.9829 16.8832 19.1117 16.4631 19.1797 15.8057C19.2495 15.1308 19.25 14.2738 19.25 13.0557V12C19.25 10.5649 19.2479 9.5639 19.1465 8.80859C19.0478 8.07482 18.8676 7.68595 18.5908 7.40918C18.3141 7.13249 17.9258 6.95218 17.1924 6.85352C16.437 6.75197 15.4354 6.75 14 6.75H10ZM12 9.25C12.5017 9.25 12.8141 9.57498 12.9863 9.7998C13.1506 10.0144 13.3166 10.3116 13.4863 10.6162C13.4939 10.6298 13.5012 10.6436 13.5088 10.6572L13.6074 10.834C13.6302 10.8748 13.6484 10.9071 13.6641 10.9346C13.6913 10.941 13.7231 10.9481 13.7627 10.957L13.9531 11C13.9688 11.0035 13.9853 11.0072 14.001 11.0107C14.3287 11.0848 14.6544 11.1583 14.9043 11.2568C15.1805 11.3656 15.555 11.5781 15.6992 12.042C15.8408 12.4975 15.662 12.8838 15.5059 13.1318C15.3614 13.3614 15.1409 13.618 14.916 13.8809C14.9059 13.8925 14.8957 13.9042 14.8857 13.916L14.7559 14.0684C14.7214 14.1087 14.6957 14.1397 14.6738 14.166C14.6767 14.2022 14.6801 14.2444 14.6855 14.3008L14.7061 14.5039C14.7076 14.5194 14.7085 14.5353 14.71 14.5508C14.7441 14.9026 14.7777 15.2426 14.7656 15.5146C14.7529 15.7998 14.684 16.2315 14.2969 16.5254C13.8975 16.8285 13.4565 16.7628 13.1768 16.6826C12.919 16.6088 12.6143 16.4684 12.3076 16.3271C12.2929 16.3204 12.2783 16.3134 12.2637 16.3066L12.085 16.2246C12.0515 16.2092 12.024 16.1964 12 16.1855C11.976 16.1964 11.9485 16.2092 11.915 16.2246L11.7363 16.3066C11.7217 16.3134 11.7071 16.3204 11.6924 16.3271C11.3857 16.4684 11.0809 16.6088 10.8232 16.6826C10.5435 16.7628 10.1025 16.8285 9.70312 16.5254C9.31602 16.2315 9.24709 15.7998 9.23438 15.5146C9.22226 15.2426 9.25588 14.9026 9.29004 14.5508C9.29154 14.5353 9.29245 14.5194 9.29395 14.5039L9.31445 14.3008C9.31992 14.2444 9.32319 14.2022 9.32617 14.166C9.30427 14.1397 9.27862 14.1087 9.24414 14.0684L9.11426 13.916C9.1042 13.9043 9.09402 13.8926 9.08398 13.8809C8.85911 13.6181 8.63869 13.3614 8.49414 13.1318C8.338 12.8838 8.15931 12.4975 8.30078 12.042C8.44504 11.5781 8.81956 11.3656 9.0957 11.2568C9.34568 11.1583 9.67136 11.0848 9.99902 11.0107C10.0147 11.0072 10.0312 11.0035 10.0469 11L10.2373 10.957C10.2769 10.9481 10.3087 10.941 10.3359 10.9346C10.3516 10.9071 10.3698 10.8748 10.3926 10.834L10.4912 10.6572C10.4988 10.6436 10.5061 10.6298 10.5137 10.6162C10.6834 10.3116 10.8494 10.0144 11.0137 9.7998C11.1859 9.57498 11.4983 9.25 12 9.25ZM11.8008 11.3877L11.7031 11.5645C11.6963 11.5768 11.6886 11.5901 11.6807 11.6045C11.6022 11.7481 11.4716 11.9858 11.2549 12.1504C11.0335 12.3185 10.767 12.3764 10.6113 12.4102C10.5958 12.4135 10.5815 12.4169 10.5684 12.4199L10.377 12.4629C10.202 12.5025 10.0594 12.5348 9.9375 12.5654C10.0169 12.663 10.1198 12.7847 10.2539 12.9414L10.3838 13.0938C10.3929 13.1045 10.4036 13.1157 10.4141 13.1279C10.5221 13.2522 10.6967 13.4538 10.7773 13.7129C10.8568 13.9687 10.8288 14.2321 10.8115 14.3984C10.8097 14.4149 10.808 14.4308 10.8066 14.4453L10.7871 14.6484C10.7689 14.8366 10.7545 14.9872 10.7451 15.1094C10.8493 15.0635 10.9686 15.0091 11.1094 14.9443L11.2881 14.8613C11.3003 14.8557 11.3138 14.8496 11.3281 14.8428C11.4716 14.7751 11.7213 14.6572 12 14.6572C12.2787 14.6572 12.5284 14.7751 12.6719 14.8428C12.6862 14.8496 12.6997 14.8557 12.7119 14.8613L12.8906 14.9443C13.0314 15.0091 13.1507 15.0635 13.2549 15.1094C13.2455 14.9872 13.2311 14.8366 13.2129 14.6484L13.1934 14.4453C13.192 14.4309 13.1903 14.4149 13.1885 14.3984C13.1712 14.2321 13.1432 13.9687 13.2227 13.7129C13.3033 13.4538 13.4779 13.2522 13.5859 13.1279C13.5965 13.1157 13.6071 13.1045 13.6162 13.0938L13.7461 12.9414C13.8802 12.7847 13.9831 12.663 14.0625 12.5654C13.9406 12.5348 13.798 12.5025 13.623 12.4629L13.4316 12.4199C13.4185 12.4169 13.4042 12.4135 13.3887 12.4102C13.233 12.3764 12.9665 12.3185 12.7451 12.1504C12.5284 11.9858 12.3978 11.7481 12.3193 11.6045C12.3114 11.5901 12.3037 11.5768 12.2969 11.5645L12.1992 11.3877C12.123 11.251 12.0581 11.1348 12 11.0342C11.9419 11.1348 11.877 11.251 11.8008 11.3877ZM11 2.75C10.036 2.75 9.38831 2.75147 8.90527 2.81641C8.44388 2.87845 8.24651 2.9859 8.11621 3.11621C7.9859 3.24652 7.87845 3.44388 7.81641 3.90527C7.76926 4.2559 7.75596 4.69331 7.75195 5.27539C8.39073 5.24976 9.11979 5.24999 9.94531 5.25H14.0547C14.8801 5.24999 15.6092 5.24977 16.248 5.27539C16.244 4.69331 16.2307 4.2559 16.1836 3.90527C16.1215 3.44389 16.0141 3.24652 15.8838 3.11621C15.7535 2.98591 15.5561 2.87845 15.0947 2.81641C14.6117 2.75147 13.964 2.75 13 2.75H11Z" fill="#1C274C"/>
</svg>
