<svg width="24" height="24" viewBox="0 0 24 24" fill="none" xmlns="http://www.w3.org/2000/svg">
<path d="M21.8379 8.5C22 9.60372 22 11.0499 22 13C22 16.7711 21.9997 18.6566 20.8281 19.8281C19.6566 20.9996 17.7711 21 14 21H10C6.22887 21 4.34346 20.9996 3.17188 19.8281C2.00032 18.6566 2 16.7711 2 13C2 11.0498 2.0001 9.60371 2.16211 8.5C4.4387 9.97979 5.898 10.9237 7.25 11.5049V12C7.25004 12.4141 7.58585 12.75 8 12.75C8.40865 12.75 8.74116 12.4231 8.75 12.0166C10.8801 12.5781 13.1199 12.5781 15.25 12.0166C15.2588 12.423 15.5914 12.7499 16 12.75C16.4142 12.75 16.75 12.4142 16.75 12V11.5049C18.102 10.9237 19.5614 9.97977 21.8379 8.5ZM13.4395 2.25C13.5528 2.24998 13.6411 2.24985 13.7246 2.25488C14.785 2.31911 15.7142 2.9889 16.1104 3.97461C16.1416 4.05212 16.1693 4.1358 16.2051 4.24316L16.208 4.25293C16.3029 4.51016 16.4917 4.78423 16.7324 4.99219C16.746 5.00392 16.7599 5.01535 16.7734 5.02637C16.9881 5.03355 17.1936 5.04307 17.3906 5.05469C19.0345 5.15168 20.0778 5.42151 20.8281 6.17188C21.0728 6.41655 21.2667 6.69212 21.4199 7.00977C21.3624 7.02941 21.3062 7.05621 21.2529 7.09082C19.1526 8.45605 17.8328 9.31061 16.7363 9.8584C16.6699 9.51216 16.3656 9.25 16 9.25C15.5859 9.25005 15.2501 9.58586 15.25 10V10.458C13.1305 11.0976 10.8694 11.0976 8.75 10.458V10C8.74994 9.58583 8.41417 9.25 8 9.25C7.63461 9.25004 7.33029 9.51147 7.26367 9.85742C6.16722 9.30964 4.8473 8.45596 2.74707 7.09082C2.69378 7.05621 2.63758 7.02939 2.58008 7.00977C2.73322 6.69216 2.92721 6.41654 3.17188 6.17188C3.92223 5.42152 4.96542 5.15168 6.60938 5.05469C6.81699 5.04244 7.03432 5.03275 7.26172 5.02539C7.47719 4.85231 7.66351 4.60993 7.7666 4.33008L7.77051 4.31836C7.80735 4.20774 7.85921 4.05279 7.89062 3.97461C8.28687 2.98893 9.215 2.31915 10.2754 2.25488C10.3589 2.24983 10.4472 2.24998 10.5605 2.25H13.4395ZM10.3662 3.75195C9.88438 3.78114 9.46248 4.08547 9.28223 4.5332L9.2793 4.54102L9.27148 4.5625C9.26486 4.58109 9.25639 4.60458 9.24707 4.63184C9.23057 4.68014 9.21213 4.73572 9.19336 4.79199L9.19141 4.79785L9.18945 4.80469L9.17676 4.84277L9.1748 4.84766L9.1709 4.8584L9.16699 4.87012L9.16211 4.88184L9.15723 4.8916V4.89355C9.1433 4.92939 9.12785 4.96533 9.1123 5.00098C9.39592 5.00034 9.69183 5 10 5H14C14.3115 5 14.6101 5.00032 14.8965 5.00098C14.868 4.93988 14.8415 4.87758 14.8174 4.81543L14.8135 4.80469L14.8037 4.78125L14.7998 4.77051L14.7979 4.76562L14.7852 4.72754L14.7832 4.7207L14.7812 4.71484C14.7422 4.59765 14.7301 4.56237 14.7188 4.53418C14.5387 4.08628 14.1166 3.7813 13.6348 3.75195C13.6025 3.75 13.5623 3.75 13.4189 3.75H10.5811C10.438 3.75 10.3984 3.75001 10.3662 3.75195Z" fill="#1C274C"/>
</svg>
