<svg width="24" height="24" viewBox="0 0 24 24" fill="none" xmlns="http://www.w3.org/2000/svg">
<path d="M9.20984 5.02539C15.5022 2.50845 18.6492 1.25052 20.4462 2.47168C20.8721 2.76116 21.2398 3.12877 21.5292 3.55469C22.7499 5.35179 21.4912 8.49816 18.9745 14.79C18.4376 16.1321 18.1696 16.8037 17.7079 17.3301C17.5903 17.4642 17.4641 17.5905 17.33 17.708C16.8036 18.1697 16.132 18.4377 14.7899 18.9746C8.49804 21.4913 5.35167 22.7501 3.55457 21.5293C3.12865 21.2399 2.76105 20.8722 2.47156 20.4463C1.2504 18.6493 2.50833 15.5023 5.02527 9.20996C5.56207 7.86797 5.83119 7.19734 6.29285 6.6709C6.41045 6.53679 6.53667 6.41057 6.67078 6.29297C7.19722 5.83132 7.86784 5.56219 9.20984 5.02539ZM11.9999 8.25C9.9289 8.25007 8.24994 9.92903 8.24988 12C8.24988 14.0711 9.92886 15.7499 11.9999 15.75C14.071 15.75 15.7499 14.0711 15.7499 12C15.7498 9.92899 14.0709 8.25 11.9999 8.25ZM11.9999 9.75C13.2424 9.75 14.2498 10.7575 14.2499 12C14.2499 13.2426 13.2425 14.25 11.9999 14.25C10.7573 14.2499 9.74988 13.2426 9.74988 12C9.74994 10.7575 10.7574 9.75007 11.9999 9.75Z" fill="#1C274C"/>
</svg>
