<svg width="24" height="24" viewBox="0 0 24 24" fill="none" xmlns="http://www.w3.org/2000/svg">
<path d="M12 2C12.3414 2 12.512 2.00049 12.6855 2.01562C13.4948 2.08629 14.2879 2.41421 14.9102 2.93652C15.0434 3.04843 15.1671 3.17203 15.4141 3.41895L20.5811 8.58594C20.8283 8.83312 20.9514 8.95741 21.0635 9.09082C21.5857 9.71302 21.9138 10.5052 21.9844 11.3145C21.9996 11.488 22 11.6586 22 12C22 16.714 21.9997 19.0708 20.5352 20.5352C19.0708 21.9997 16.714 22 12 22C7.28597 22 4.9293 21.9996 3.46484 20.5352C2.00037 19.0708 2 16.714 2 12C2 7.28595 2.00037 4.9293 3.46484 3.46484C4.9293 2.00037 7.28595 2 12 2ZM9.5 13C9.03535 13 8.80258 12.9997 8.60938 13.0381C7.81629 13.196 7.19598 13.8163 7.03809 14.6094C6.99966 14.8026 7 15.0353 7 15.5C7 15.9647 6.99966 16.1974 7.03809 16.3906C7.19598 17.1837 7.81629 17.804 8.60938 17.9619C8.80258 18.0003 9.03535 18 9.5 18H14.5C14.9647 18 15.1974 18.0003 15.3906 17.9619C16.1837 17.804 16.804 17.1837 16.9619 16.3906C17.0003 16.1974 17 15.9647 17 15.5C17 15.0353 17.0003 14.8026 16.9619 14.6094C16.804 13.8163 16.1837 13.196 15.3906 13.0381C15.1974 12.9997 14.9647 13 14.5 13H9.5Z" fill="#1C274C"/>
</svg>
