<svg width="24" height="24" viewBox="0 0 24 24" fill="none" xmlns="http://www.w3.org/2000/svg">
<path d="M6.98828 16.4517C7.2911 16.1692 7.76526 16.186 8.04785 16.4888C8.33045 16.7915 8.31446 17.2657 8.01172 17.5483L3.72559 21.5483C3.57351 21.6902 3.36957 21.763 3.16211 21.7485C2.95454 21.734 2.76178 21.6339 2.63086 21.4722L1.41699 19.9722C1.15637 19.6503 1.20637 19.1781 1.52832 18.9175C1.8502 18.6569 2.32238 18.7061 2.58301 19.0278L3.29102 19.9028L6.98828 16.4517ZM22 18.2505C22.4142 18.2505 22.75 18.5863 22.75 19.0005C22.7498 19.4145 22.414 19.7504 22 19.7505H12C11.5859 19.7505 11.2502 19.4145 11.25 19.0005C11.25 18.5863 11.5858 18.2505 12 18.2505H22ZM6.98828 9.45166C7.2911 9.16918 7.76527 9.18601 8.04785 9.48877C8.33043 9.79156 8.31445 10.2657 8.01172 10.5483L3.72559 14.5483C3.57351 14.6902 3.36957 14.763 3.16211 14.7485C2.95454 14.734 2.76178 14.6339 2.63086 14.4722L1.41699 12.9722C1.15637 12.6503 1.20637 12.1781 1.52832 11.9175C1.8502 11.6569 2.32238 11.7061 2.58301 12.0278L3.29102 12.9028L6.98828 9.45166ZM22 11.2505C22.4142 11.2505 22.75 11.5863 22.75 12.0005C22.7498 12.4145 22.414 12.7504 22 12.7505H12C11.5859 12.7505 11.2502 12.4145 11.25 12.0005C11.25 11.5863 11.5858 11.2505 12 11.2505H22ZM6.98828 2.45166C7.2911 2.16918 7.76527 2.18601 8.04785 2.48877C8.33043 2.79156 8.31446 3.26572 8.01172 3.54834L3.72559 7.54834C3.57351 7.6902 3.36957 7.76298 3.16211 7.74854C2.95454 7.73406 2.76178 7.6339 2.63086 7.47217L1.41699 5.97217C1.15637 5.65023 1.20637 5.1781 1.52832 4.91748C1.8502 4.65695 2.32237 4.70606 2.58301 5.02783L3.29102 5.90283L6.98828 2.45166ZM22 4.25049C22.4142 4.25055 22.75 4.58631 22.75 5.00049C22.7498 5.41451 22.414 5.75043 22 5.75049H12C11.5859 5.75049 11.2502 5.41455 11.25 5.00049C11.25 4.58628 11.5858 4.25049 12 4.25049H22Z" fill="#48465C"/>
</svg>
