<svg width="24" height="24" viewBox="0 0 24 24" fill="none" xmlns="http://www.w3.org/2000/svg">
<path d="M19.6996 14.3135C20.0789 14.1474 20.5207 14.32 20.6869 14.6992C20.8529 15.0787 20.6805 15.5214 20.3011 15.6875L4.30115 22.6875C3.92167 22.8535 3.4789 22.6803 3.31287 22.3008C3.14693 21.9214 3.32025 21.4795 3.69958 21.3135L19.6996 14.3135ZM13.8129 19.293C13.9789 18.9136 14.4217 18.7412 14.8011 18.9072L20.3011 21.3135C20.6804 21.4796 20.8528 21.9214 20.6869 22.3008C20.5208 22.6801 20.079 22.8535 19.6996 22.6875L14.1996 20.2812C13.8201 20.1152 13.6468 19.6725 13.8129 19.293ZM3.31287 14.6992C3.47896 14.3199 3.92173 14.1474 4.30115 14.3135L9.30115 16.501C9.68036 16.6671 9.85285 17.1089 9.68689 17.4883C9.52081 17.8676 9.079 18.0409 8.69958 17.875L3.69958 15.6875C3.32009 15.5215 3.14685 15.0787 3.31287 14.6992ZM12.3529 3.38867C12.3531 2.28954 13.5029 1.59128 14.4008 2.26465C16.1511 3.57745 18.0004 5.77617 18.0004 8.80762C18.0002 13.7615 13.7332 15 11.6 15C9.73331 15 6.00047 13.7614 6.00037 8.80762C6.00037 6.71034 7.20851 5.35786 8.26111 4.65234C8.79633 4.29379 9.48295 4.55197 9.57263 5.17578C9.75094 6.4205 10.878 7.34957 11.5599 6.28027C12.1427 5.36643 12.3529 4.1314 12.3529 3.38867ZM15.2152 9.28125C14.8187 9.16253 14.4008 9.38772 14.2816 9.78418C14.1505 10.2212 13.5057 11.2499 12.0004 11.25C11.5862 11.25 11.2504 11.5858 11.2504 12C11.2504 12.4142 11.5862 12.75 12.0004 12.75C14.3342 12.7499 15.449 11.1123 15.7181 10.2158C15.8371 9.81909 15.612 9.40027 15.2152 9.28125Z" fill="#48465C"/>
</svg>
