<svg width="24" height="24" viewBox="0 0 24 24" fill="none" xmlns="http://www.w3.org/2000/svg">
<path d="M19.6995 14.3134C20.0789 14.1474 20.5207 14.32 20.6868 14.6991C20.8528 15.0786 20.6805 15.5214 20.3011 15.6874L4.3011 22.6874C3.92162 22.8534 3.47885 22.6802 3.31282 22.3007C3.14689 21.9213 3.32021 21.4794 3.69954 21.3134L19.6995 14.3134ZM13.8128 19.2929C13.9789 18.9135 14.4217 18.7412 14.8011 18.9071L20.3011 21.3134C20.6803 21.4795 20.8528 21.9213 20.6868 22.3007C20.5208 22.6801 20.079 22.8534 19.6995 22.6874L14.1995 20.2812C13.82 20.1151 13.6467 19.6724 13.8128 19.2929ZM3.31282 14.6991C3.47892 14.3198 3.92169 14.1473 4.3011 14.3134L9.3011 16.5009C9.68031 16.667 9.85281 17.1088 9.68684 17.4882C9.52076 17.8676 9.07896 18.0408 8.69954 17.8749L3.69954 15.6874C3.32005 15.5214 3.1468 15.0786 3.31282 14.6991ZM12.3529 3.38859C12.353 2.28946 13.5029 1.5912 14.4007 2.26457C16.151 3.57737 18.0003 5.77609 18.0003 8.80754C18.0002 13.7614 13.7332 14.9999 11.5999 14.9999C9.73326 14.9999 6.00042 13.7614 6.00032 8.80754C6.00032 6.71026 7.20846 5.35778 8.26106 4.65226C8.79629 4.29371 9.4829 4.55189 9.57259 5.1757C9.75089 6.42042 10.878 7.34949 11.5599 6.28019C12.1427 5.36635 12.3529 4.13132 12.3529 3.38859ZM15.2152 9.28117C14.8187 9.16245 14.4007 9.38763 14.2816 9.7841C14.1505 10.2211 13.5057 11.2498 12.0003 11.2499C11.5861 11.2499 11.2503 11.5857 11.2503 11.9999C11.2503 12.4141 11.5861 12.7499 12.0003 12.7499C14.3341 12.7498 15.449 11.1122 15.7181 10.2157C15.8371 9.81901 15.612 9.40019 15.2152 9.28117Z" fill="#1C274C"/>
</svg>
