<svg width="24" height="24" viewBox="0 0 24 24" fill="none" xmlns="http://www.w3.org/2000/svg">
<path d="M19.5 6.38574C20.0345 6.5586 20.4656 6.80943 20.8281 7.17188C21.9997 8.34341 22 10.2291 22 14C22 17.7712 21.9997 19.6576 20.8281 20.8291C19.6566 22.0004 17.7709 22 14 22H10C6.22911 22 4.34347 22.0004 3.17188 20.8291C2.00031 19.6576 2 17.7712 2 14C2 10.2291 2.00034 8.34341 3.17188 7.17188C3.5346 6.80921 3.96563 6.55861 4.5 6.38574V9.06348C4.5 9.09282 4.49931 9.12488 4.49902 9.15918C4.49606 9.49959 4.49192 10.0699 4.73633 10.5918C4.98084 11.1139 5.4221 11.4757 5.68555 11.6914C5.71211 11.7131 5.73721 11.7333 5.75977 11.752L7.26562 13.0078C8.12637 13.7251 8.8762 14.349 9.5498 14.7822C10.2759 15.2492 11.0609 15.5947 12 15.5947C12.9391 15.5947 13.7242 15.2492 14.4502 14.7822C15.1238 14.349 15.8736 13.7251 16.7344 13.0078L18.2402 11.752C18.2625 11.7334 18.2882 11.7129 18.3145 11.6914C18.578 11.4757 19.0192 11.1139 19.2637 10.5918C19.5081 10.0699 19.5039 9.4996 19.501 9.15918C19.5007 9.12487 19.5 9.09283 19.5 9.06348V6.38574ZM13 2C15.3569 2 16.5353 2.00026 17.2676 2.73242C17.9002 3.36504 17.9863 4.33055 17.998 6.10156C17.9999 6.38041 18 6.67937 18 7V9.06348C18 9.52397 17.9997 9.75452 17.9053 9.95605C17.8108 10.1575 17.6338 10.3049 17.2803 10.5996L15.8408 11.7988C14.0043 13.3293 13.0861 14.0947 12 14.0947C10.9138 14.0947 9.99576 13.3293 8.15918 11.7988L6.71973 10.5996C6.36606 10.3049 6.18917 10.1575 6.09473 9.95605C6.00033 9.75452 6 9.52397 6 9.06348V6.10156C6.0117 4.3306 6.09985 3.36504 6.73242 2.73242C7.46464 2.0002 8.64303 2 11 2H13ZM11 8.25C10.5858 8.25 10.25 8.58579 10.25 9C10.25 9.41421 10.5858 9.75 11 9.75H13C13.4142 9.75 13.75 9.41421 13.75 9C13.75 8.58579 13.4142 8.25 13 8.25H11ZM10 5.25C9.58579 5.25 9.25 5.58579 9.25 6C9.25 6.41421 9.58579 6.75 10 6.75H14C14.4142 6.75 14.75 6.41421 14.75 6C14.75 5.58579 14.4142 5.25 14 5.25H10Z" fill="#48465C"/>
</svg>
