<svg width="24" height="24" viewBox="0 0 24 24" fill="none" xmlns="http://www.w3.org/2000/svg">
<path d="M2.05664 13.25C3.89429 13.25 5.3501 13.2502 6.48926 13.4033C7.66157 13.561 8.61008 13.8934 9.3584 14.6416C10.1067 15.3899 10.439 16.3385 10.5967 17.5107C10.7498 18.6499 10.75 20.1057 10.75 21.9434V22C10.75 22.4142 10.4142 22.75 10 22.75C9.58579 22.75 9.25 22.4142 9.25 22C9.25 20.0933 9.2485 18.7386 9.11035 17.7109C8.97509 16.7049 8.72106 16.1253 8.29785 15.7021C7.87464 15.2789 7.29515 15.0248 6.28906 14.8896C5.26142 14.7515 3.90675 14.75 2 14.75C1.58579 14.75 1.25 14.4142 1.25 14C1.25 13.5858 1.58579 13.25 2 13.25H2.05664ZM22 13.25C22.4142 13.25 22.75 13.5858 22.75 14C22.75 14.4142 22.4142 14.75 22 14.75C20.0933 14.75 18.7386 14.7515 17.7109 14.8896C16.7049 15.0248 16.1253 15.2789 15.7021 15.7021C15.2789 16.1253 15.0248 16.7049 14.8896 17.7109C14.7515 18.7386 14.75 20.0933 14.75 22C14.75 22.4142 14.4142 22.75 14 22.75C13.5858 22.75 13.25 22.4142 13.25 22V21.9434C13.25 20.1057 13.2502 18.6499 13.4033 17.5107C13.561 16.3385 13.8934 15.3899 14.6416 14.6416C15.3899 13.8934 16.3385 13.561 17.5107 13.4033C18.6499 13.2502 20.1057 13.25 21.9434 13.25H22ZM10 1.25C10.4142 1.25 10.75 1.58579 10.75 2V2.05664C10.75 3.89429 10.7498 5.3501 10.5967 6.48926C10.439 7.66157 10.1067 8.61008 9.3584 9.3584C8.61008 10.1067 7.66157 10.439 6.48926 10.5967C5.3501 10.7498 3.89429 10.75 2.05664 10.75H2C1.58579 10.75 1.25 10.4142 1.25 10C1.25 9.58579 1.58579 9.25 2 9.25C3.90676 9.25 5.26141 9.24851 6.28906 9.11035C7.29515 8.97509 7.87464 8.72106 8.29785 8.29785C8.72106 7.87464 8.97509 7.29515 9.11035 6.28906C9.24851 5.26141 9.25 3.90676 9.25 2C9.25 1.58579 9.58579 1.25 10 1.25ZM14 1.25C14.4142 1.25 14.75 1.58579 14.75 2C14.75 3.90675 14.7515 5.26142 14.8896 6.28906C15.0248 7.29515 15.2789 7.87464 15.7021 8.29785C16.1253 8.72106 16.7049 8.97509 17.7109 9.11035C18.7386 9.2485 20.0933 9.25 22 9.25C22.4142 9.25 22.75 9.58579 22.75 10C22.75 10.4142 22.4142 10.75 22 10.75H21.9434C20.1057 10.75 18.6499 10.7498 17.5107 10.5967C16.3385 10.439 15.3899 10.1067 14.6416 9.3584C13.8934 8.61008 13.561 7.66157 13.4033 6.48926C13.2502 5.3501 13.25 3.89429 13.25 2.05664V2C13.25 1.58579 13.5858 1.25 14 1.25Z" fill="#1C274C"/>
</svg>
