<svg width="24" height="24" viewBox="0 0 24 24" fill="none" xmlns="http://www.w3.org/2000/svg">
<path d="M11.9997 1.25C14.0708 1.25 15.7497 2.92893 15.7497 5V6.01465C17.0369 6.05328 17.8251 6.19234 18.4264 6.69141C19.2595 7.3829 19.4787 8.55377 19.9176 10.8945L20.6676 14.8945C21.2848 18.186 21.5936 19.8319 20.694 20.916C19.7943 22.0001 18.1193 22 14.7702 22H9.22916C5.88046 22 4.206 22 3.3063 20.916C2.4066 19.8319 2.7155 18.1861 3.33267 14.8945L4.08267 10.8945C4.52158 8.55362 4.7407 7.38289 5.57388 6.69141C6.17515 6.19241 6.96272 6.05331 8.24966 6.01465V5C8.24966 2.92905 9.92875 1.25019 11.9997 1.25ZM14.9997 13.1963C14.9994 11.5234 13.3495 10.899 11.9997 12.1914C10.6498 10.8992 8.99993 11.5235 8.99966 13.1963C8.99966 14.1807 10.1647 15.2209 11.0426 15.8652C11.4623 16.1731 11.6724 16.327 11.9997 16.3271C12.3271 16.3271 12.5371 16.1732 12.9567 15.8652C13.8347 15.221 14.9997 14.1808 14.9997 13.1963ZM11.9997 2.75C10.7572 2.75019 9.74966 3.75748 9.74966 5V6H14.2497V5C14.2497 3.75736 13.2423 2.75 11.9997 2.75Z" fill="#1C274C"/>
</svg>
