<svg width="24" height="24" viewBox="0 0 24 24" fill="none" xmlns="http://www.w3.org/2000/svg">
<path d="M16.0547 1.25C17.4222 1.24998 18.5246 1.24968 19.3916 1.36621C20.2917 1.48723 21.0494 1.74673 21.6514 2.34863C22.2533 2.95055 22.5128 3.70829 22.6338 4.6084C22.7503 5.47534 22.75 6.57782 22.75 7.94531V12.0547C22.75 13.4222 22.7503 14.5246 22.6338 15.3916C22.5128 16.2917 22.2533 17.0495 21.6514 17.6514C21.1534 18.1493 20.5467 18.4149 19.8359 18.5596C19.1458 18.7 18.3127 18.7356 17.3271 18.7461H17.0977C17.0009 19.0502 16.8438 19.34 16.626 19.5957C16.4949 19.7495 16.4155 19.9411 16.3994 20.1426C16.3032 21.3467 15.3467 22.3032 14.1426 22.3994C13.9412 22.4155 13.7495 22.4949 13.5957 22.626C12.6762 23.4092 11.3238 23.4092 10.4043 22.626C10.2505 22.4949 10.0589 22.4155 9.85742 22.3994C8.65328 22.3032 7.6968 21.3467 7.60059 20.1426C7.58452 19.9413 7.50598 19.7495 7.375 19.5957C7.15739 19.3403 7.00007 19.0516 6.90332 18.748C5.86299 18.741 4.99172 18.7125 4.27637 18.5811C3.51838 18.4418 2.87356 18.1763 2.34863 17.6514C1.74673 17.0494 1.48723 16.2917 1.36621 15.3916C1.24968 14.5246 1.24998 13.4222 1.25 12.0547V7.94531C1.24998 6.57782 1.24968 5.47534 1.36621 4.6084C1.48723 3.70829 1.74671 2.95055 2.34863 2.34863C2.95055 1.74671 3.70829 1.48723 4.6084 1.36621C5.47534 1.24968 6.57782 1.24998 7.94531 1.25H16.0547ZM12.623 14.5166C12.2641 14.2107 11.7359 14.2107 11.377 14.5166C10.983 14.8523 10.4925 15.0546 9.97656 15.0957C9.50682 15.1335 9.13338 15.5068 9.0957 15.9766C9.05452 16.4925 8.85227 16.983 8.5166 17.377C8.21073 17.7359 8.21073 18.2641 8.5166 18.623C8.85227 19.017 9.05452 19.5075 9.0957 20.0234C9.13338 20.4932 9.50682 20.8665 9.97656 20.9043C10.4925 20.9454 10.983 21.1477 11.377 21.4834C11.7359 21.7893 12.2641 21.7893 12.623 21.4834C13.017 21.1477 13.5075 20.9454 14.0234 20.9043C14.4932 20.8665 14.8665 20.4932 14.9043 20.0234C14.9454 19.5075 15.1477 19.017 15.4834 18.623C15.7893 18.2641 15.7893 17.7359 15.4834 17.377C15.1477 16.983 14.9454 16.4925 14.9043 15.9766C14.8665 15.5068 14.4932 15.1335 14.0234 15.0957C13.5075 15.0546 13.017 14.8523 12.623 14.5166ZM12.9883 16.4521C13.291 16.1696 13.7652 16.1856 14.0479 16.4883C14.3304 16.791 14.3144 17.2652 14.0117 17.5479L11.8691 19.5479C11.5809 19.8168 11.1339 19.8168 10.8457 19.5479L9.98828 18.748C9.68558 18.4654 9.66955 17.9912 9.95215 17.6885C10.2347 17.3857 10.709 17.369 11.0117 17.6514L11.3574 17.9736L12.9883 16.4521ZM8 2.75C6.56484 2.75 5.5639 2.75201 4.80859 2.85352C4.07482 2.95217 3.68594 3.13242 3.40918 3.40918C3.13242 3.68594 2.95217 4.07482 2.85352 4.80859C2.75201 5.5639 2.75 6.56485 2.75 8V12C2.75 13.4354 2.75196 14.437 2.85352 15.1924C2.95218 15.9258 3.13249 16.3141 3.40918 16.5908C3.65256 16.8341 3.98037 17.0014 4.54688 17.1055C5.11705 17.2103 5.86323 17.2408 6.9043 17.248C7.00116 16.946 7.1584 16.6585 7.375 16.4043C7.50598 16.2505 7.58452 16.0588 7.60059 15.8574C7.6968 14.6533 8.65328 13.6968 9.85742 13.6006C10.0589 13.5845 10.2505 13.5051 10.4043 13.374C11.3238 12.5908 12.6762 12.5908 13.5957 13.374C13.7495 13.5051 13.9412 13.5845 14.1426 13.6006C15.3467 13.6968 16.3032 14.6533 16.3994 15.8574C16.4155 16.0589 16.4949 16.2505 16.626 16.4043C16.8421 16.658 16.9988 16.9447 17.0957 17.2461H17.3145C18.2997 17.2356 19.0025 17.1986 19.5371 17.0898C20.0515 16.985 20.3589 16.8227 20.5908 16.5908C20.8676 16.3141 21.0478 15.9258 21.1465 15.1924C21.248 14.437 21.25 13.4354 21.25 12V8C21.25 6.56484 21.2479 5.5639 21.1465 4.80859C21.0478 4.07482 20.8676 3.68594 20.5908 3.40918C20.3141 3.13249 19.9258 2.95218 19.1924 2.85352C18.437 2.75196 17.4354 2.75 16 2.75H8ZM17 8.75C17.4142 8.75 17.75 9.08579 17.75 9.5C17.75 9.91421 17.4142 10.25 17 10.25H7C6.58579 10.25 6.25 9.91421 6.25 9.5C6.25 9.08579 6.58579 8.75 7 8.75H17ZM15 5.25C15.4142 5.25 15.75 5.58579 15.75 6C15.75 6.41421 15.4142 6.75 15 6.75H9C8.58579 6.75 8.25 6.41421 8.25 6C8.25 5.58579 8.58579 5.25 9 5.25H15Z" fill="#48465C"/>
</svg>
