<svg width="24" height="24" viewBox="0 0 24 24" fill="none" xmlns="http://www.w3.org/2000/svg">
<path d="M6.57367 6.9605L6.03949 8.95562C5.75136 10.0308 5.51031 10.9285 5.3764 11.6773C5.23671 12.4587 5.18553 13.2124 5.36469 13.981C5.61171 15.0403 6.16742 16.003 6.96137 16.7466C7.53737 17.2861 8.21582 17.6185 8.96234 17.8882C9.67237 18.1447 10.5621 18.3833 11.6264 18.6685L11.6508 18.6753L11.7582 18.7037C12.7363 18.9657 13.5632 19.1873 14.2592 19.3257C14.6017 19.3938 14.9388 19.448 15.2729 19.4761C15.2161 19.5363 15.1577 19.5951 15.0971 19.6519C14.3658 20.3368 13.2378 20.6384 10.9828 21.2427C8.72781 21.8469 7.60021 22.1499 6.62445 21.9224C5.85418 21.7428 5.15445 21.3385 4.61371 20.7613C3.92879 20.03 3.62616 18.9021 3.02191 16.647L2.50433 14.7154C1.90015 12.4605 1.59824 11.3327 1.82562 10.357C2.00526 9.58656 2.40934 8.88608 2.98676 8.34527C3.66086 7.71396 4.67197 7.40846 6.59222 6.89117L6.57367 6.9605ZM11.6245 2.07574C12.6001 1.84823 13.7279 2.15025 15.9828 2.75445C18.2378 3.3587 19.3658 3.66133 20.0971 4.34625C20.6744 4.88701 21.0787 5.58665 21.2582 6.35699C21.4857 7.33274 21.1837 8.46042 20.5795 10.7154L20.062 12.647C19.4578 14.9021 19.1551 16.03 18.4702 16.7613C17.9294 17.3386 17.2297 17.7428 16.4594 17.9224C16.3633 17.9449 16.2655 17.9619 16.1655 17.9742C15.2504 18.0871 14.1335 17.7883 12.101 17.2437C9.8459 16.6394 8.71804 16.3368 7.98676 15.6519C7.40948 15.1112 7.00524 14.4115 6.82562 13.6412C6.59811 12.6654 6.90011 11.5378 7.50433 9.28277L8.02191 7.35113C8.10877 7.02696 8.18965 6.72559 8.26605 6.44585C8.72112 4.77981 9.02729 3.86298 9.61371 3.23687C10.1544 2.65958 10.8541 2.25539 11.6245 2.07574Z" fill="#1C274C"/>
</svg>
