<svg width="24" height="24" viewBox="0 0 24 24" fill="none" xmlns="http://www.w3.org/2000/svg">
<path fill-rule="evenodd" clip-rule="evenodd" d="M11.9999 3.25C12.4141 3.25003 12.7499 3.58581 12.7499 4V18.1895L17.4697 13.4697C17.7626 13.1769 18.2373 13.1768 18.5302 13.4697C18.8231 13.7626 18.8231 14.2374 18.5302 14.5303L12.5302 20.5303C12.3896 20.671 12.1988 20.75 11.9999 20.75C11.8011 20.75 11.6103 20.671 11.4697 20.5303L5.46967 14.5303C5.17678 14.2374 5.17678 13.7626 5.46967 13.4697C5.76256 13.1769 6.23734 13.1768 6.53021 13.4697L11.2499 18.1895V4C11.2499 3.58579 11.5857 3.25 11.9999 3.25Z" fill="#1C274C"/>
</svg>
