<svg width="24" height="24" viewBox="0 0 24 24" fill="none" xmlns="http://www.w3.org/2000/svg">
<path d="M12 3.25C12.4142 3.25003 12.75 3.58581 12.75 4V18.1895L17.4697 13.4697C17.7626 13.1769 18.2374 13.1768 18.5303 13.4697C18.8231 13.7626 18.8231 14.2374 18.5303 14.5303L12.5303 20.5303C12.3897 20.671 12.1989 20.75 12 20.75C11.8011 20.75 11.6103 20.671 11.4697 20.5303L5.46973 14.5303C5.17684 14.2374 5.17684 13.7626 5.46973 13.4697C5.76262 13.1769 6.2374 13.1768 6.53027 13.4697L11.25 18.1895V4C11.25 3.58579 11.5858 3.25 12 3.25Z" fill="#48465C"/>
</svg>
