<svg width="24" height="24" viewBox="0 0 24 24" fill="none" xmlns="http://www.w3.org/2000/svg">
<path d="M13.0498 9.25C13.7144 9.24996 14.2875 9.24986 14.7461 9.31152C15.2377 9.37763 15.7086 9.52701 16.0908 9.90918C16.4729 10.2914 16.6224 10.7623 16.6885 11.2539C16.7502 11.7125 16.75 12.2856 16.75 12.9502V15.417C16.9135 15.3674 17.0825 15.3346 17.2539 15.3115C17.7125 15.2498 18.2856 15.25 18.9502 15.25H19.0498C19.7144 15.25 20.2875 15.2498 20.7461 15.3115C21.2377 15.3776 21.7086 15.5271 22.0908 15.9092C22.4729 16.2914 22.6224 16.7623 22.6885 17.2539C22.7502 17.7125 22.75 18.2856 22.75 18.9502V22C22.75 22.4142 22.4142 22.75 22 22.75C21.5858 22.75 21.25 22.4142 21.25 22V19C21.25 18.2718 21.2487 17.801 21.2021 17.4541C21.1583 17.1288 21.0874 17.0268 21.0303 16.9697C20.9732 16.9126 20.8712 16.8417 20.5459 16.7979C20.199 16.7513 19.7282 16.75 19 16.75C18.2718 16.75 17.801 16.7513 17.4541 16.7979C17.1288 16.8417 17.0268 16.9126 16.9697 16.9697C16.9126 17.0268 16.8417 17.1288 16.7979 17.4541C16.7513 17.801 16.75 18.2718 16.75 19V22C16.75 22.4142 16.4142 22.75 16 22.75C15.5858 22.75 15.25 22.4142 15.25 22V13C15.25 12.2718 15.2487 11.801 15.2021 11.4541C15.1583 11.1288 15.0874 11.0268 15.0303 10.9697C14.9732 10.9126 14.8712 10.8417 14.5459 10.7979C14.199 10.7513 13.7282 10.75 13 10.75H11C10.2718 10.75 9.80097 10.7513 9.4541 10.7979C9.12883 10.8416 9.02683 10.9126 8.96973 10.9697C8.91264 11.0268 8.84159 11.1288 8.79785 11.4541C8.75124 11.801 8.75 12.2718 8.75 13V22C8.75 22.4142 8.41422 22.75 8 22.75C7.58579 22.75 7.25 22.4142 7.25 22C7.25 21.2718 7.24877 20.801 7.20215 20.4541C7.15842 20.1288 7.08737 20.0268 7.03027 19.9697C6.97318 19.9126 6.87117 19.8416 6.5459 19.7979C6.19903 19.7513 5.72822 19.75 5 19.75C4.27177 19.75 3.80097 19.7513 3.4541 19.7979C3.12883 19.8416 3.02683 19.9126 2.96973 19.9697C2.91264 20.0268 2.84159 20.1288 2.79785 20.4541C2.75124 20.801 2.75 21.2718 2.75 22C2.75 22.4142 2.41422 22.75 2 22.75C1.58579 22.75 1.25 22.4142 1.25 22V21.9502C1.24996 21.2856 1.24986 20.7125 1.31152 20.2539C1.37764 19.7623 1.52702 19.2914 1.90918 18.9092C2.29137 18.527 2.76235 18.3776 3.25391 18.3115C3.71255 18.2498 4.28552 18.25 4.9502 18.25H5.0498C5.71449 18.25 6.28744 18.2498 6.74609 18.3115C6.91748 18.3346 7.08648 18.3674 7.25 18.417V12.9502C7.24996 12.2856 7.24986 11.7125 7.31152 11.2539C7.37764 10.7623 7.52701 10.2914 7.90918 9.90918C8.29137 9.52699 8.76235 9.37763 9.25391 9.31152C9.71256 9.24986 10.2856 9.24996 10.9502 9.25H13.0498ZM12 1.25C12.5017 1.25 12.8141 1.57498 12.9863 1.7998C13.1506 2.01438 13.3166 2.3117 13.4863 2.61621C13.4939 2.62983 13.5012 2.64359 13.5088 2.65723L13.6074 2.83398C13.6302 2.87479 13.6484 2.90709 13.6641 2.93457C13.6913 2.94098 13.7231 2.94806 13.7627 2.95703L13.9541 3C13.9696 3.00351 13.9854 3.00724 14.001 3.01074C14.3287 3.08479 14.6544 3.15831 14.9043 3.25684C15.1805 3.36566 15.555 3.57811 15.6992 4.04199C15.8408 4.49753 15.662 4.88382 15.5059 5.13184C15.3614 5.36136 15.1418 5.61809 14.917 5.88086C14.9068 5.8927 14.8959 5.90415 14.8857 5.91602L14.7559 6.06836C14.7214 6.10869 14.6957 6.13971 14.6738 6.16602C14.6767 6.20223 14.6801 6.24447 14.6855 6.30078L14.7061 6.50391C14.7076 6.5194 14.7085 6.53533 14.71 6.55078C14.7441 6.90258 14.7777 7.24269 14.7656 7.51465C14.7529 7.7999 14.684 8.23153 14.2969 8.52539C13.8975 8.82855 13.4565 8.76275 13.1768 8.68262C12.9191 8.60877 12.6143 8.46847 12.3076 8.32715C12.2929 8.3204 12.2783 8.31339 12.2637 8.30664L12.085 8.22461C12.0515 8.20922 12.024 8.19638 12 8.18555C11.9761 8.19638 11.9485 8.20922 11.915 8.22461L11.7363 8.30664C11.7217 8.31339 11.7071 8.3204 11.6924 8.32715C11.3857 8.46847 11.081 8.60877 10.8232 8.68262C10.5435 8.76275 10.1025 8.82854 9.70312 8.52539C9.31604 8.23154 9.2471 7.7999 9.23438 7.51465C9.22226 7.24269 9.25587 6.90258 9.29004 6.55078C9.29154 6.53533 9.29245 6.5194 9.29395 6.50391L9.31445 6.30078C9.31991 6.24447 9.32319 6.20222 9.32617 6.16602C9.30427 6.1397 9.27863 6.10869 9.24414 6.06836L9.11426 5.91602C9.1042 5.90426 9.09403 5.8926 9.08398 5.88086C8.85913 5.61804 8.63869 5.36141 8.49414 5.13184C8.33801 4.88381 8.15931 4.49754 8.30078 4.04199C8.44504 3.57809 8.81956 3.36566 9.0957 3.25684C9.34568 3.15833 9.67135 3.08479 9.99902 3.01074C10.0147 3.00721 10.0312 3.00354 10.0469 3L10.2373 2.95703C10.2769 2.94807 10.3087 2.94097 10.3359 2.93457C10.3516 2.90709 10.3698 2.87477 10.3926 2.83398L10.4912 2.65723C10.4988 2.64359 10.5061 2.62983 10.5137 2.61621C10.6834 2.3117 10.8494 2.01438 11.0137 1.7998C11.1859 1.57499 11.4983 1.25 12 1.25ZM11.8008 3.3877L11.7031 3.56445C11.6963 3.5768 11.6886 3.59006 11.6807 3.60449C11.6022 3.74809 11.4716 3.98578 11.2549 4.15039C11.0335 4.31845 10.767 4.37635 10.6113 4.41016C10.5958 4.41352 10.5815 4.41695 10.5684 4.41992L10.377 4.46289C10.202 4.50247 10.0594 4.5348 9.9375 4.56543C10.0169 4.6631 10.1199 4.78467 10.2539 4.94141L10.3838 5.09375C10.3929 5.10447 10.4036 5.11573 10.4141 5.12793C10.5221 5.25226 10.6967 5.45374 10.7773 5.71289C10.8568 5.96867 10.8288 6.23211 10.8115 6.39844C10.8097 6.41494 10.808 6.43083 10.8066 6.44531L10.7871 6.64844C10.7689 6.8367 10.7545 6.98719 10.7451 7.10938C10.8493 7.06348 10.9686 7.00918 11.1094 6.94434L11.2881 6.86133C11.3003 6.85571 11.3138 6.84957 11.3281 6.84277C11.4716 6.77509 11.7213 6.65723 12 6.65723C12.2787 6.65723 12.5284 6.77509 12.6719 6.84277C12.6862 6.84957 12.6997 6.85571 12.7119 6.86133L12.8906 6.94434C13.0314 7.00918 13.1506 7.06348 13.2549 7.10938C13.2454 6.98719 13.2311 6.8367 13.2129 6.64844L13.1934 6.44531C13.192 6.43083 13.1903 6.41494 13.1885 6.39844C13.1712 6.23211 13.1432 5.96867 13.2227 5.71289C13.3033 5.45374 13.4779 5.25226 13.5859 5.12793C13.5965 5.11573 13.6071 5.10447 13.6162 5.09375L13.7461 4.94141C13.8801 4.78467 13.9831 4.66311 14.0625 4.56543C13.9406 4.5348 13.798 4.50247 13.623 4.46289L13.4316 4.41992C13.4185 4.41695 13.4042 4.41352 13.3887 4.41016C13.233 4.37635 12.9665 4.31845 12.7451 4.15039C12.5284 3.98578 12.3978 3.74808 12.3193 3.60449C12.3114 3.59006 12.3037 3.5768 12.2969 3.56445L12.1992 3.3877C12.123 3.25104 12.0581 3.13482 12 3.03418C11.9419 3.13482 11.877 3.25104 11.8008 3.3877Z" fill="#1C274C"/>
</svg>
