<svg width="24" height="24" viewBox="0 0 24 24" fill="none" xmlns="http://www.w3.org/2000/svg">
<path d="M17.75 12C19.3867 12 20.2055 11.9998 20.8066 12.3682C21.143 12.5743 21.4258 12.8581 21.6318 13.1943C21.9999 13.7955 22 14.6138 22 16.25V16.75C22 17.9149 21.9999 18.4976 21.8096 18.957C21.5559 19.5694 21.0694 20.0559 20.457 20.3096C20.127 20.4464 19.733 20.4852 19.1055 20.4961C18.6803 20.5034 18.4676 20.5073 18.2988 20.6055C18.1299 20.7038 18.0247 20.8812 17.8145 21.2363L17.543 21.6943C17.3013 22.102 16.6986 22.102 16.457 21.6943L16.1855 21.2363C15.9753 20.8812 15.87 20.7038 15.7012 20.6055C15.5323 20.5073 15.3197 20.5034 14.8945 20.4961C14.267 20.4852 13.873 20.4464 13.543 20.3096C12.9306 20.0559 12.4441 19.5694 12.1904 18.957C12.0001 18.4976 12 17.9149 12 16.75V16.25C12 14.6138 12.0001 13.7955 12.3682 13.1943C12.5742 12.8581 12.857 12.5743 13.1934 12.3682C13.7945 11.9998 14.6133 12 16.25 12H17.75ZM18.2773 2.7998C18.3881 2.4007 18.8021 2.16648 19.2012 2.27734C19.6001 2.38834 19.8335 2.80219 19.7227 3.20117L18.3203 8.25H22C22.4141 8.25 22.7498 8.58595 22.75 9C22.75 9.41421 22.4142 9.75 22 9.75H17.9014C17.7714 10.1187 17.3764 10.3286 16.9941 10.2227C16.7492 10.1547 16.5662 9.97266 16.4873 9.75H8.90332L7.37598 15.25H9C9.41409 15.25 9.7498 15.586 9.75 16C9.75 16.4142 9.41421 16.75 9 16.75H6.95898L5.72266 21.2012C5.61176 21.6002 5.1979 21.8335 4.79883 21.7227C4.40006 21.6117 4.16662 21.1987 4.27734 20.7998L5.40234 16.75H2C1.58579 16.75 1.25 16.4142 1.25 16C1.2502 15.586 1.58591 15.25 2 15.25H5.81836L7.34668 9.75H4C3.58579 9.75 3.25 9.41421 3.25 9C3.25019 8.58595 3.58591 8.25 4 8.25H7.76367L9.27734 2.7998C9.3882 2.4007 9.8021 2.16648 10.2012 2.27734C10.6001 2.38834 10.8335 2.80219 10.7227 3.20117L9.32031 8.25H16.7637L18.2773 2.7998Z" fill="#1C274C"/>
</svg>
