<svg width="24" height="24" viewBox="0 0 24 24" fill="none" xmlns="http://www.w3.org/2000/svg">
<path d="M18.4697 13.4697C18.7626 13.1768 19.2374 13.1768 19.5303 13.4697L21.5303 15.4697C21.8231 15.7626 21.8232 16.2374 21.5303 16.5303C21.2374 16.8232 20.7626 16.8231 20.4697 16.5303L19.75 15.8105V20C19.75 20.4142 19.4142 20.75 19 20.75C18.5858 20.75 18.25 20.4142 18.25 20V15.8105L17.5303 16.5303C17.2374 16.8232 16.7626 16.8231 16.4697 16.5303C16.1768 16.2374 16.1768 15.7626 16.4697 15.4697L18.4697 13.4697ZM21.998 10.75C21.9999 11.142 22 11.5581 22 12C22 12.6594 22.0004 13.2611 21.9941 13.8115L20.5908 12.4092C19.7121 11.5305 18.2879 11.5305 17.4092 12.4092L15.4092 14.4092C14.5305 15.2879 14.5305 16.7121 15.4092 17.5908C15.7849 17.9664 16.2601 18.1818 16.75 18.2363V19.9746C15.964 20.0003 15.0559 20 14 20H10C6.22878 20 4.34346 19.9997 3.17188 18.8281C2.00031 17.6566 2 15.7712 2 12C2 11.5581 2.00006 11.142 2.00195 10.75H21.998ZM6 15.25C5.58579 15.25 5.25 15.5858 5.25 16C5.25 16.4142 5.58579 16.75 6 16.75H10C10.4142 16.75 10.75 16.4142 10.75 16C10.75 15.5858 10.4142 15.25 10 15.25H6ZM12.5 15.25C12.0858 15.25 11.75 15.5858 11.75 16C11.75 16.4142 12.0858 16.75 12.5 16.75H14C14.4142 16.75 14.75 16.4142 14.75 16C14.75 15.5858 14.4142 15.25 14 15.25H12.5ZM14 4C17.7712 4 19.6566 4.00031 20.8281 5.17188C21.6717 6.01541 21.9085 7.22882 21.9746 9.25H2.02539C2.09152 7.22883 2.32835 6.01541 3.17188 5.17188C4.34345 4.00031 6.22878 4 10 4H14Z" fill="#48465C"/>
</svg>
