<svg width="24" height="24" viewBox="0 0 24 24" fill="none" xmlns="http://www.w3.org/2000/svg">
<path d="M12 1.25C16.845 1.25 20.75 5.24452 20.75 10.1436C20.75 12.5086 20.0763 15.0483 18.8848 17.2422C17.6948 19.4334 15.9554 21.3368 13.7803 22.3535C12.6504 22.8816 11.3496 22.8816 10.2197 22.3535C8.04463 21.3368 6.30529 19.4334 5.11523 17.2422C3.92375 15.0483 3.25005 12.5086 3.25 10.1436C3.25 5.24452 7.15501 1.25 12 1.25ZM12 2.75C8.00843 2.75 4.75 6.04773 4.75 10.1436C4.75005 12.2406 5.35257 14.5358 6.43359 16.5264C7.51612 18.5194 9.046 20.1497 10.8545 20.9951C11.582 21.3351 12.418 21.3351 13.1455 20.9951C14.954 20.1497 16.4839 18.5194 17.5664 16.5264C18.6475 14.5358 19.25 12.2406 19.25 10.1436C19.25 6.04773 15.9916 2.75 12 2.75ZM12 6.75C12.4142 6.75 12.75 7.08579 12.75 7.5V9.25H14.5C14.9142 9.25 15.25 9.58579 15.25 10C15.25 10.4142 14.9142 10.75 14.5 10.75H12.75V12.5C12.75 12.9142 12.4142 13.25 12 13.25C11.5858 13.25 11.25 12.9142 11.25 12.5V10.75H9.5C9.08579 10.75 8.75 10.4142 8.75 10C8.75 9.58579 9.08579 9.25 9.5 9.25H11.25V7.5C11.25 7.08579 11.5858 6.75 12 6.75Z" fill="#1C274C"/>
</svg>
