<svg width="24" height="24" viewBox="0 0 24 24" fill="none" xmlns="http://www.w3.org/2000/svg">
<path d="M10.0303 2C10.6361 2 11.1218 1.99995 11.5303 2.0166C11.5169 2.09653 11.5091 2.1783 11.5088 2.26074L11.5 5.09473C11.4999 6.19183 11.4994 7.16184 11.6045 7.94336C11.7184 8.79041 11.9807 9.63693 12.6719 10.3281C13.363 11.0194 14.2096 11.2816 15.0566 11.3955C15.8382 11.5006 16.8082 11.5001 17.9053 11.5H21.957C21.9996 12.0342 22 12.6899 22 13.5625V14C22 17.7712 21.9997 19.6566 20.8281 20.8281C19.6566 21.9997 17.7712 22 14 22H10C6.22878 22 4.34346 21.9997 3.17188 20.8281C2.00031 19.6566 2 17.7712 2 14V10C2 6.22876 2.00031 4.34346 3.17188 3.17188C4.34346 2.00031 6.23916 2 10.0303 2ZM9.0127 12.9531C8.7242 12.6827 8.2758 12.6827 7.9873 12.9531L5.9873 14.8281C5.68515 15.1114 5.66986 15.5855 5.95312 15.8877C6.23641 16.1898 6.71051 16.2052 7.0127 15.9219L7.75 15.2314V18.5C7.75 18.9142 8.08579 19.25 8.5 19.25C8.91421 19.25 9.25 18.9142 9.25 18.5V15.2314L9.9873 15.9219C10.2895 16.2052 10.7636 16.1898 11.0469 15.8877C11.3302 15.5855 11.3148 15.1114 11.0127 14.8281L9.0127 12.9531ZM13.0088 2.26562C13.7007 2.53113 14.2649 3.03876 15.3926 4.05371L19.3516 7.61621C20.5682 8.71115 21.2175 9.29582 21.5801 10H18C15.643 10 14.4647 9.99981 13.7324 9.26758C13.0003 8.53535 13 7.35698 13 5L13.0088 2.26562Z" fill="#48465C"/>
</svg>
