<svg width="24" height="24" viewBox="0 0 24 24" fill="none" xmlns="http://www.w3.org/2000/svg">
<path d="M11.66 4.25C13.17 4.25008 14.5341 5.36742 14.5341 6.90918C14.534 7.58927 14.2865 8.22328 13.8446 8.7041C13.7047 8.85631 13.5501 9.00941 13.4091 9.14844C13.384 9.1732 13.3588 9.19787 13.3348 9.22168C13.1678 9.38689 13.0205 9.53625 12.8944 9.68457C12.8071 9.78722 12.7399 9.87806 12.6893 9.95898C13.2577 10.0669 13.8095 10.2861 14.3036 10.6191L21.7362 15.6289C22.6858 16.2691 22.9426 17.3259 22.6122 18.2168C22.2871 19.0928 21.422 19.7499 20.2977 19.75H3.703C2.59042 19.75 1.72854 19.1049 1.39636 18.2393C1.05875 17.3592 1.29653 16.3083 2.22351 15.6562L9.31921 10.665C9.85568 10.2876 10.4661 10.0482 11.0936 9.94238C11.1991 9.43645 11.4866 9.02486 11.7518 8.71289C11.9237 8.51089 12.1117 8.32196 12.2802 8.15527C12.3078 8.12792 12.3348 8.10124 12.3612 8.0752C12.5029 7.9353 12.6273 7.81219 12.7401 7.68945C12.9222 7.49134 13.034 7.22141 13.0341 6.90918C13.0341 6.34232 12.496 5.75008 11.66 5.75C10.8239 5.75 10.286 6.34228 10.286 6.90918C10.286 7.3233 9.95014 7.6591 9.53601 7.65918C9.12183 7.65918 8.78606 7.32335 8.78601 6.90918C8.78601 5.36736 10.15 4.25 11.66 4.25ZM11.8104 11.3799C11.226 11.3866 10.6528 11.5618 10.1825 11.8926L3.08679 16.8838C2.74187 17.1266 2.69657 17.441 2.79675 17.7021C2.90255 17.9776 3.20054 18.25 3.703 18.25H20.2977C20.8057 18.2499 21.1027 17.9731 21.2059 17.6953C21.3036 17.4318 21.2541 17.1135 20.8973 16.873L13.4657 11.8623C12.9832 11.5371 12.3997 11.373 11.8104 11.3799Z" fill="#48465C"/>
</svg>
