<svg width="24" height="24" viewBox="0 0 24 24" fill="none" xmlns="http://www.w3.org/2000/svg">
<path d="M11.6601 4.25C13.17 4.25008 14.5341 5.36742 14.5341 6.90918C14.5341 7.58927 14.2865 8.22328 13.8446 8.7041C13.7047 8.85631 13.5501 9.00941 13.4091 9.14844C13.384 9.1732 13.3589 9.19787 13.3349 9.22168C13.1679 9.38689 13.0206 9.53625 12.8944 9.68457C12.8071 9.78722 12.74 9.87806 12.6894 9.95898C13.2577 10.0669 13.8096 10.2861 14.3036 10.6191L21.7362 15.6289C22.6858 16.2691 22.9426 17.3259 22.6122 18.2168C22.2871 19.0928 21.4221 19.7499 20.2978 19.75H3.70303C2.59045 19.75 1.72857 19.1049 1.39639 18.2393C1.05879 17.3592 1.29656 16.3083 2.22354 15.6562L9.31924 10.665C9.85571 10.2876 10.4662 10.0482 11.0937 9.94238C11.1991 9.43645 11.4866 9.02486 11.7519 8.71289C11.9237 8.51089 12.1117 8.32196 12.2802 8.15527C12.3078 8.12792 12.3348 8.10124 12.3612 8.0752C12.5029 7.9353 12.6273 7.81219 12.7401 7.68945C12.9222 7.49134 13.0341 7.22141 13.0341 6.90918C13.0341 6.34232 12.4961 5.75008 11.6601 5.75C10.824 5.75 10.286 6.34228 10.286 6.90918C10.286 7.3233 9.95017 7.6591 9.53604 7.65918C9.12186 7.65918 8.78609 7.32335 8.78604 6.90918C8.78604 5.36736 10.1501 4.25 11.6601 4.25ZM11.8105 11.3799C11.2261 11.3866 10.6528 11.5618 10.1825 11.8926L3.08682 16.8838C2.7419 17.1266 2.6966 17.441 2.79678 17.7021C2.90258 17.9776 3.20057 18.25 3.70303 18.25H20.2978C20.8057 18.2499 21.1027 17.9731 21.206 17.6953C21.3037 17.4318 21.2542 17.1135 20.8974 16.873L13.4657 11.8623C12.9832 11.5371 12.3998 11.373 11.8105 11.3799Z" fill="#1C274C"/>
</svg>
