<svg width="24" height="24" viewBox="0 0 24 24" fill="none" xmlns="http://www.w3.org/2000/svg">
<path d="M16.1812 18.7505C16.0373 19.9269 15.8023 20.6674 15.2427 21.1909C14.3777 22 13.0468 22.0005 10.3862 22.0005H9.61377C6.95315 22.0005 5.62233 22.0001 4.75732 21.1909C4.19772 20.6674 3.96268 19.9269 3.81885 18.7505H16.1812ZM12.7241 7.00049C14.7275 7.00049 15.7299 6.99986 16.3228 7.6333C16.4853 7.80693 16.5977 8.00886 16.6733 8.25049H17.0005C19.5264 8.25072 21.7505 10.0625 21.7505 12.5005C21.7502 14.9382 19.5262 16.7503 17.0005 16.7505H16.3501C16.3385 16.9229 16.3273 17.0897 16.3159 17.2505H3.68408C3.66508 16.9831 3.64647 16.6991 3.62646 16.3989L3.28467 11.2661C3.15139 9.26691 3.08445 8.26693 3.67725 7.6333C4.27007 6.99986 5.27244 7.00049 7.27588 7.00049H12.7241ZM16.8003 9.75049C16.7876 10.1805 16.7544 10.6804 16.7153 11.2661L16.4497 15.2505H17.0005C18.8921 15.2503 20.2502 13.928 20.2505 12.5005C20.2505 11.0728 18.8923 9.75072 17.0005 9.75049H16.8003ZM5.93115 1.50146C6.17168 1.16435 6.63987 1.08625 6.97705 1.32666C7.31418 1.56712 7.39313 2.03536 7.15283 2.37256L6.76611 2.91357C7.39193 3.38784 7.53076 4.27792 7.07178 4.92139L6.66162 5.49658C6.42109 5.83379 5.95196 5.91192 5.61475 5.67139C5.27786 5.43078 5.19953 4.96258 5.43994 4.62549L5.82568 4.08447C5.20005 3.61019 5.06211 2.72104 5.521 2.07764L5.93115 1.50146ZM9.93115 1.50146C10.1717 1.16434 10.6399 1.08624 10.9771 1.32666C11.3143 1.56712 11.3931 2.03536 11.1528 2.37256L10.7661 2.91357C11.3919 3.38784 11.5308 4.27792 11.0718 4.92139L10.6616 5.49658C10.421 5.83379 9.95196 5.91192 9.61475 5.67139C9.27786 5.43078 9.19953 4.96258 9.43994 4.62549L9.82568 4.08447C9.20005 3.61019 9.06211 2.72104 9.521 2.07764L9.93115 1.50146ZM13.9312 1.50146C14.1717 1.16435 14.6399 1.08624 14.9771 1.32666C15.3143 1.56712 15.3931 2.03536 15.1528 2.37256L14.7661 2.91357C15.3919 3.38784 15.5308 4.27792 15.0718 4.92139L14.6616 5.49658C14.421 5.83379 13.952 5.91192 13.6147 5.67139C13.2779 5.43079 13.1995 4.96259 13.4399 4.62549L13.8257 4.08447C13.2 3.61019 13.0621 2.72105 13.521 2.07764L13.9312 1.50146Z" fill="#1C274C"/>
</svg>
