<svg width="24" height="24" viewBox="0 0 24 24" fill="none" xmlns="http://www.w3.org/2000/svg">
<path d="M9.46387 2.82031C11.0864 2.05963 12.9125 2.0598 14.5352 2.82031L21.2266 5.95801C22.2788 6.45132 22.7499 7.52225 22.75 8.5C22.75 9.4778 22.2789 10.5496 21.2266 11.043L19.75 11.7354V16.626C19.7499 17.8789 19.1211 19.0884 17.9775 19.7217C17.226 20.1379 16.2385 20.6393 15.1992 21.0381C14.1719 21.4322 13.0339 21.75 12 21.75C10.9661 21.75 9.82813 21.4322 8.80078 21.0381C7.76147 20.6393 6.77407 20.1379 6.02246 19.7217C4.87887 19.0884 4.25014 17.8789 4.25 16.626V11.7354L2.77344 11.043L2.75 11.0312V14C2.75 14.4142 2.41421 14.75 2 14.75C1.58579 14.75 1.25 14.4142 1.25 14V8.5C1.25005 7.52224 1.7212 6.45131 2.77344 5.95801L9.46387 2.82031ZM14.5361 14.1797C12.9135 14.9404 11.0875 14.9403 9.46484 14.1797L5.75 12.4385V16.626C5.75014 17.3888 6.12921 18.0658 6.74902 18.4092C7.46566 18.806 8.38724 19.2726 9.33887 19.6377C10.3026 20.0074 11.238 20.25 12 20.25C12.762 20.25 13.6974 20.0074 14.6611 19.6377C15.6127 19.2726 16.5344 18.806 17.251 18.4092C17.8709 18.0658 18.2499 17.3888 18.25 16.626V12.4385L14.5361 14.1797ZM13.8984 4.17871C12.6794 3.60731 11.3206 3.60734 10.1016 4.17871L3.41016 7.31543C3.00701 7.50444 2.75004 7.95565 2.75 8.5C2.75 9.0444 3.00699 9.49555 3.41016 9.68457L10.1016 12.8213C11.3207 13.3927 12.6793 13.3927 13.8984 12.8213L20.5898 9.68457C20.993 9.49555 21.25 9.04441 21.25 8.5C21.2499 7.95568 20.993 7.50443 20.5898 7.31543L13.8984 4.17871Z" fill="#48465C"/>
</svg>
