<svg width="24" height="24" viewBox="0 0 24 24" fill="none" xmlns="http://www.w3.org/2000/svg">
<path d="M12.0002 4C13.9171 4.00005 15.6762 4.67463 17.0539 5.79883C17.161 5.64384 17.3271 5.52856 17.5266 5.48926C17.9974 5.39647 18.4476 5.32903 18.8713 5.29004C19.2838 5.25215 19.6487 5.55633 19.6867 5.96875C19.7244 6.38099 19.4212 6.74609 19.009 6.78418C18.7439 6.80858 18.4604 6.84632 18.1613 6.89746C18.8685 7.75039 19.4018 8.75246 19.7072 9.84961C20.0009 9.61132 20.4338 9.6279 20.7082 9.90039C21.0021 10.1921 21.0038 10.667 20.7121 10.9609C20.4885 11.1862 20.2481 11.4144 19.9924 11.6436C19.9976 11.7617 20.0002 11.8806 20.0002 12C20.0002 16.4182 16.4184 19.9999 12.0002 20C10.1773 20 8.49689 19.3899 7.15158 18.3633C6.92501 18.4173 6.70257 18.4658 6.48557 18.5088C6.07923 18.5892 5.68412 18.3252 5.60373 17.9189C5.54558 17.6248 5.66851 17.337 5.89474 17.1699C5.1608 16.3039 4.6079 15.2792 4.29416 14.1553C4.0251 14.4297 3.78879 14.6948 3.58713 14.9473C3.3286 15.2709 2.85607 15.3239 2.53244 15.0654C2.20907 14.8069 2.15691 14.3352 2.41525 14.0117C2.67621 13.685 2.97688 13.3514 3.31174 13.0156C3.50934 12.8177 3.79046 12.7532 4.04221 12.8223C4.0146 12.552 4.00021 12.2776 4.00021 12C4.00021 7.58172 7.58193 4 12.0002 4ZM1.38596 15.7949C1.51172 15.4002 1.93368 15.1819 2.32834 15.3076C2.72278 15.4335 2.94036 15.8555 2.81467 16.25C2.70472 16.5951 2.75716 16.7593 2.80685 16.8389C2.88389 16.962 3.13788 17.163 3.83224 17.2295C4.2443 17.269 4.54626 17.6348 4.50705 18.0469C4.46758 18.4592 4.10102 18.7622 3.68869 18.7227C2.84126 18.6415 1.9872 18.3585 1.53439 17.6348C1.17328 17.0573 1.19432 16.3964 1.38596 15.7949ZM10.5217 16.4873C10.3761 16.0995 9.94366 15.9032 9.55588 16.0488C8.33131 16.5086 7.1912 16.8409 6.19455 17.0381C6.08244 17.0603 5.98096 17.1062 5.89474 17.1699C6.2691 17.6115 6.69084 18.0116 7.15158 18.3633C8.06552 18.1455 9.05363 17.8397 10.0832 17.4531C10.4709 17.3075 10.6671 16.8749 10.5217 16.4873ZM16.009 13.6758C15.7964 13.3203 15.3362 13.2044 14.9807 13.417C14.4991 13.7049 13.997 13.988 13.4778 14.2646C12.9442 14.5489 12.4127 14.815 11.8879 15.0615C11.5132 15.2377 11.3525 15.6848 11.5285 16.0596C11.7047 16.4341 12.1509 16.5948 12.5256 16.4189C13.0735 16.1615 13.6281 15.8849 14.1838 15.5889C14.7245 15.3007 15.2473 15.0048 15.7502 14.7041C16.1058 14.4916 16.2214 14.0313 16.009 13.6758ZM19.6477 9.9043C18.9613 10.5956 18.08 11.3337 17.0393 12.0752C16.7019 12.3156 16.6232 12.7838 16.8635 13.1211C17.1039 13.4584 17.5721 13.5372 17.9094 13.2969C18.6811 12.747 19.3809 12.1914 19.9924 11.6436C19.9652 11.0249 19.8671 10.424 19.7072 9.84961C19.6866 9.86643 19.6669 9.88494 19.6477 9.9043ZM20.0344 5.93652C20.1298 5.53346 20.5337 5.28345 20.9367 5.37891C21.5417 5.52219 22.1209 5.81615 22.4651 6.36621C22.9421 7.12916 22.7567 8.0203 22.3791 8.77832C22.1944 9.149 21.744 9.29983 21.3733 9.11523C21.0026 8.93055 20.8516 8.48013 21.0363 8.10938C21.3262 7.52733 21.2569 7.2624 21.1936 7.16113C21.1372 7.07097 20.985 6.93218 20.591 6.83887C20.1881 6.74342 19.939 6.33951 20.0344 5.93652Z" fill="#1C274C"/>
</svg>
