<svg width="24" height="24" viewBox="0 0 24 24" fill="none" xmlns="http://www.w3.org/2000/svg">
<path d="M15.7373 12.9258C16.3945 12.6867 17.2213 13.1634 18.875 14.1182C20.5287 15.073 21.3561 15.5505 21.4775 16.2393C21.5079 16.4116 21.5079 16.5884 21.4775 16.7607C21.356 17.4494 20.5286 17.9271 18.875 18.8818C17.2214 19.8365 16.3945 20.3133 15.7373 20.0742C15.573 20.0145 15.4201 19.9268 15.2861 19.8145C14.7503 19.3649 14.75 18.4096 14.75 16.5C14.75 14.5903 14.7503 13.6351 15.2861 13.1855C15.4202 13.0732 15.5729 12.9855 15.7373 12.9258ZM11 17.25C11.4142 17.25 11.75 17.5858 11.75 18C11.75 18.4142 11.4142 18.75 11 18.75H3C2.58579 18.75 2.25 18.4142 2.25 18C2.25 17.5858 2.58579 17.25 3 17.25H11ZM11 13.25C11.4142 13.25 11.75 13.5858 11.75 14C11.75 14.4142 11.4142 14.75 11 14.75H3C2.58579 14.75 2.25 14.4142 2.25 14C2.25 13.5858 2.58579 13.25 3 13.25H11ZM21 9.25C21.4142 9.25 21.75 9.58579 21.75 10C21.75 10.4142 21.4142 10.75 21 10.75H3C2.58579 10.75 2.25 10.4142 2.25 10C2.25 9.58579 2.58579 9.25 3 9.25H21ZM21 5.25C21.4142 5.25 21.75 5.58579 21.75 6C21.75 6.41421 21.4142 6.75 21 6.75H3C2.58579 6.75 2.25 6.41421 2.25 6C2.25 5.58579 2.58579 5.25 3 5.25H21Z" fill="#1C274C"/>
</svg>
