<svg width="24" height="24" viewBox="0 0 24 24" fill="none" xmlns="http://www.w3.org/2000/svg">
<path d="M12 12.25C13.8045 12.25 15.4823 12.6186 16.8115 13.2539C16.874 13.2514 16.937 13.25 17 13.25C19.6234 13.25 21.75 15.3766 21.75 18C21.75 20.6234 19.6234 22.75 17 22.75C15.8205 22.75 14.7417 22.3199 13.9111 21.6084C13.2995 21.701 12.6587 21.75 12 21.75C9.96067 21.75 8.0771 21.2791 6.67773 20.4795C5.29976 19.692 4.25 18.4898 4.25 17C4.25 15.5102 5.29976 14.308 6.67773 13.5205C8.0771 12.7209 9.96067 12.25 12 12.25ZM15.2939 20.7666C15.7898 21.0731 16.3743 21.25 17 21.25C18.7949 21.25 20.25 19.7949 20.25 18C20.25 17.3743 20.0731 16.7898 19.7666 16.2939L15.2939 20.7666ZM12 13.75C10.1733 13.75 8.55601 14.1751 7.42188 14.8232C6.26692 15.4834 5.75 16.2808 5.75 17C5.75 17.7192 6.26692 18.5166 7.42188 19.1768C8.55601 19.8249 10.1733 20.25 12 20.25C12.2715 20.25 12.5387 20.2409 12.8008 20.2227C12.4491 19.5596 12.25 18.8029 12.25 18C12.25 16.3289 13.1134 14.8593 14.418 14.0127C13.6771 13.8444 12.8611 13.75 12 13.75ZM17 14.75C15.2051 14.75 13.75 16.2051 13.75 18C13.75 18.6257 13.9269 19.2102 14.2334 19.7061L18.7061 15.2334C18.2102 14.9269 17.6257 14.75 17 14.75ZM12 1.25C14.6234 1.25 16.75 3.37665 16.75 6C16.75 8.62335 14.6234 10.75 12 10.75C9.37665 10.75 7.25 8.62335 7.25 6C7.25 3.37665 9.37665 1.25 12 1.25ZM12 2.75C10.2051 2.75 8.75 4.20507 8.75 6C8.75 7.79493 10.2051 9.25 12 9.25C13.7949 9.25 15.25 7.79493 15.25 6C15.25 4.20507 13.7949 2.75 12 2.75Z" fill="#1C274C"/>
</svg>
