<svg width="24" height="24" viewBox="0 0 24 24" fill="none" xmlns="http://www.w3.org/2000/svg">
<path d="M15.499 3.3125C16.0937 2.89579 16.9063 2.89579 17.501 3.3125L17.749 3.50391C18.3863 3.95052 19.2735 3.9186 19.875 3.4082C20.3109 3.03841 21 3.33391 21 3.89062V20.1094C21 20.6662 20.3109 20.9617 19.875 20.5918C19.2735 20.0814 18.3862 20.0495 17.749 20.4961L17.501 20.6875C16.9063 21.1042 16.0937 21.1042 15.499 20.6875L15.251 20.4961C14.6562 20.0793 13.8438 20.0793 13.249 20.4961L13.001 20.6875C12.4063 21.1042 11.5937 21.1042 10.999 20.6875L10.751 20.4961C10.1562 20.0793 9.34375 20.0793 8.74902 20.4961L8.50098 20.6875C7.90627 21.1042 7.09373 21.1042 6.49902 20.6875L6.25098 20.4961C5.61376 20.0495 4.72648 20.0814 4.125 20.5918C3.68909 20.9617 3 20.6662 3 20.1094V3.89062C3.00001 3.33391 3.68909 3.03841 4.125 3.4082C4.7265 3.9186 5.61375 3.95052 6.25098 3.50391L6.49902 3.3125C7.09371 2.89579 7.90629 2.89579 8.50098 3.3125L8.74902 3.50391C9.34377 3.92075 10.1562 3.92075 10.751 3.50391L10.999 3.3125C11.5937 2.89579 12.4063 2.89579 13.001 3.3125L13.249 3.50391C13.8438 3.92075 14.6562 3.92075 15.251 3.50391L15.499 3.3125ZM7.5 14.75C7.08581 14.75 6.75003 15.0858 6.75 15.5C6.75 15.9142 7.08579 16.25 7.5 16.25H16.5C16.9142 16.25 17.25 15.9142 17.25 15.5C17.25 15.0858 16.9142 14.75 16.5 14.75H7.5ZM7.5 11.25C7.08581 11.25 6.75003 11.5858 6.75 12C6.75 12.4142 7.08579 12.75 7.5 12.75H16.5C16.9142 12.75 17.25 12.4142 17.25 12C17.25 11.5858 16.9142 11.25 16.5 11.25H7.5ZM7.5 7.75C7.08581 7.75 6.75003 8.08581 6.75 8.5C6.75 8.91421 7.08579 9.25 7.5 9.25H16.5C16.9142 9.25 17.25 8.91421 17.25 8.5C17.25 8.08581 16.9142 7.75 16.5 7.75H7.5Z" fill="#1C274C"/>
</svg>
