<svg width="24" height="24" viewBox="0 0 24 24" fill="none" xmlns="http://www.w3.org/2000/svg">
<path d="M15.5322 1.25C15.972 1.24998 16.3518 1.25011 16.6631 1.27832C16.9921 1.30818 17.3179 1.37446 17.625 1.55176C17.9669 1.7492 18.2508 2.03308 18.4482 2.375C18.6255 2.68207 18.6919 3.00789 18.7217 3.33691C18.7332 3.4634 18.7401 3.60156 18.7441 3.75H19.0693C19.4935 3.74999 19.8477 3.74959 20.1387 3.76855C20.4417 3.7883 20.7287 3.83152 21.0078 3.94141C21.7175 4.22093 22.2791 4.78256 22.5586 5.49219C22.6685 5.77132 22.7117 6.05836 22.7314 6.36133C22.7504 6.65236 22.75 7.00651 22.75 7.43066V7.5752C22.7505 8.23313 22.7509 8.74589 22.5928 9.19336C22.3634 9.84294 21.8983 10.3829 21.29 10.7061C20.871 10.9286 20.3644 11.0046 19.7139 11.1016C19.6747 11.1075 19.6349 11.1132 19.5947 11.1191L15.5176 11.7305C14.6859 11.8552 14.1316 11.9401 13.7207 12.0557C13.3305 12.1654 13.1622 12.2793 13.0527 12.4062C12.9235 12.5562 12.8361 12.7669 12.79 13.2598C12.9354 13.2661 13.0721 13.2762 13.1973 13.293C13.5528 13.3408 13.9283 13.4536 14.2373 13.7627C14.5464 14.0717 14.6592 14.4472 14.707 14.8027C14.7504 15.1255 14.7501 15.5223 14.75 15.9551V20.0449C14.7501 20.4777 14.7504 20.8745 14.707 21.1973C14.6592 21.5528 14.5464 21.9283 14.2373 22.2373C13.9283 22.5464 13.5528 22.6592 13.1973 22.707C12.8745 22.7504 12.4777 22.7501 12.0449 22.75H11.9551C11.5223 22.7501 11.1255 22.7504 10.8027 22.707C10.4472 22.6592 10.0717 22.5464 9.7627 22.2373C9.45368 21.9283 9.34076 21.5528 9.29297 21.1973C9.24957 20.8745 9.24995 20.4777 9.25 20.0449V15.9551C9.24995 15.5223 9.24958 15.1255 9.29297 14.8027C9.34076 14.4472 9.45368 14.0717 9.7627 13.7627C10.0717 13.4536 10.4472 13.3408 10.8027 13.293C10.9488 13.2733 11.1103 13.2627 11.2832 13.2568C11.3354 12.5532 11.4804 11.9336 11.916 11.4277C12.291 10.9923 12.7715 10.764 13.3145 10.6113C13.8269 10.4672 14.4763 10.3698 15.249 10.2539L19.3721 9.63574C20.2001 9.51154 20.4258 9.46746 20.5869 9.38184C20.8633 9.23495 21.0745 8.98938 21.1787 8.69434C21.2395 8.52227 21.25 8.29241 21.25 7.45508C21.25 7.00057 21.2498 6.69547 21.2344 6.45898C21.2194 6.22878 21.1922 6.116 21.1631 6.04199C21.0361 5.71935 20.7806 5.46397 20.458 5.33691C20.384 5.30777 20.2712 5.28063 20.041 5.26562C19.8045 5.25022 19.4995 5.25 19.0449 5.25H18.7441C18.7401 5.39845 18.7332 5.53661 18.7217 5.66309C18.6919 5.99212 18.6255 6.31793 18.4482 6.625C18.2508 6.96693 17.9669 7.25079 17.625 7.44824C17.3179 7.62554 16.9921 7.69182 16.6631 7.72168C16.3518 7.74989 15.972 7.75002 15.5322 7.75H8.46777C8.02799 7.75002 7.6482 7.74989 7.33691 7.72168C7.00789 7.69182 6.68207 7.62553 6.375 7.44824C6.03307 7.25079 5.74921 6.96693 5.55176 6.625C5.37447 6.31793 5.30818 5.99212 5.27832 5.66309C5.26581 5.52504 5.25875 5.37313 5.25488 5.20898C4.96106 5.1074 4.75 4.82836 4.75 4.5C4.75 4.17164 4.96106 3.8926 5.25488 3.79102C5.25875 3.62686 5.26581 3.47496 5.27832 3.33691C5.30818 3.00789 5.37447 2.68207 5.55176 2.375C5.74921 2.03307 6.03307 1.74921 6.375 1.55176C6.68207 1.37447 7.00789 1.30818 7.33691 1.27832C7.6482 1.25011 8.02799 1.24998 8.46777 1.25H15.5322ZM12 14.75C11.5075 14.75 11.2136 14.752 11.0029 14.7803C10.9063 14.7933 10.8576 14.8084 10.8359 14.8174C10.8311 14.8193 10.8281 14.8213 10.8262 14.8223L10.8232 14.8232L10.8223 14.8262C10.8213 14.8281 10.8193 14.8311 10.8174 14.8359C10.8084 14.8576 10.7933 14.9063 10.7803 15.0029C10.752 15.2136 10.75 15.5075 10.75 16V20C10.75 20.4925 10.752 20.7864 10.7803 20.9971C10.7933 21.0937 10.8084 21.1424 10.8174 21.1641C10.8193 21.1689 10.8213 21.1719 10.8223 21.1738L10.8232 21.1768L10.8262 21.1777C10.8281 21.1788 10.8311 21.1807 10.8359 21.1826C10.8576 21.1916 10.9063 21.2067 11.0029 21.2197C11.2136 21.248 11.5075 21.25 12 21.25C12.4925 21.25 12.7864 21.248 12.9971 21.2197C13.0937 21.2067 13.1424 21.1916 13.1641 21.1826C13.1673 21.1814 13.17 21.1806 13.1719 21.1797L13.1738 21.1777L13.1768 21.1768L13.1777 21.1738C13.1787 21.1719 13.1807 21.1689 13.1826 21.1641C13.1916 21.1424 13.2067 21.0937 13.2197 20.9971C13.248 20.7864 13.25 20.4925 13.25 20V16C13.25 15.5075 13.248 15.2136 13.2197 15.0029C13.2067 14.9063 13.1916 14.8576 13.1826 14.8359C13.1807 14.8311 13.1787 14.8281 13.1777 14.8262L13.1768 14.8232L13.1738 14.8223C13.1727 14.8216 13.1712 14.8204 13.1689 14.8193C13.1676 14.8187 13.1658 14.8181 13.1641 14.8174C13.1424 14.8084 13.0937 14.7933 12.9971 14.7803C12.7871 14.7521 12.4944 14.75 12.0049 14.75H12ZM8.5 2.75C8.01889 2.75 7.70811 2.75112 7.47266 2.77246C7.2476 2.79287 7.16585 2.827 7.125 2.85059C7.01103 2.91641 6.91641 3.01103 6.85059 3.125C6.827 3.16585 6.79286 3.24761 6.77246 3.47266C6.75112 3.70811 6.75 4.01889 6.75 4.5C6.75 4.98111 6.75112 5.29188 6.77246 5.52734C6.79286 5.75239 6.827 5.83415 6.85059 5.875C6.91641 5.98898 7.01103 6.08359 7.125 6.14941C7.16585 6.173 7.2476 6.20714 7.47266 6.22754C7.70811 6.24888 8.01889 6.25 8.5 6.25H15.5C15.9811 6.25 16.2918 6.24888 16.5273 6.22754C16.7524 6.20714 16.8341 6.173 16.875 6.14941C16.989 6.08359 17.0836 5.98899 17.1494 5.875C17.173 5.83415 17.2071 5.7524 17.2275 5.52734C17.2489 5.29188 17.25 4.98111 17.25 4.5C17.25 4.01889 17.2489 3.70811 17.2275 3.47266C17.2071 3.2476 17.173 3.16586 17.1494 3.125C17.0836 3.01102 16.989 2.91641 16.875 2.85059C16.8341 2.827 16.7524 2.79287 16.5273 2.77246C16.2918 2.75112 15.9811 2.75 15.5 2.75H8.5Z" fill="#48465C"/>
</svg>
