<svg width="24" height="24" viewBox="0 0 24 24" fill="none" xmlns="http://www.w3.org/2000/svg">
<path d="M12 2C17.5228 2 22 6.47715 22 12C22 17.5228 17.5228 22 12 22C6.47715 22 2 17.5228 2 12C2 6.47715 6.47715 2 12 2ZM12.8027 14.8916C12.5473 14.9623 12.278 15 12 15C11.7218 15 11.452 14.9625 11.1963 14.8916L9.67188 17.5312C10.3877 17.8329 11.1745 18 12 18C12.8255 18 13.6124 17.8337 14.3281 17.5322L12.8027 14.8916ZM6.04688 12.75C6.25161 14.3917 7.11939 15.8272 8.37402 16.7803L9.89844 14.1406C9.51541 13.7645 9.23273 13.2861 9.09473 12.75H6.04688ZM14.9053 12.75C14.7673 13.2861 14.4846 13.7645 14.1016 14.1406L15.626 16.7803C16.8806 15.8271 17.7484 14.3917 17.9531 12.75H14.9053ZM8.37402 7.21973C7.11942 8.17286 6.25162 9.6083 6.04688 11.25H9.09473C9.23275 10.7138 9.51541 10.2356 9.89844 9.85938L8.37402 7.21973ZM14.1016 9.85938C14.4847 10.2355 14.7672 10.7138 14.9053 11.25H17.9531C17.7483 9.6083 16.8806 8.17285 15.626 7.21973L14.1016 9.85938ZM12 6C11.1746 6 10.3876 6.16622 9.67188 6.46777L11.1973 9.1084C11.4527 9.03762 11.722 9 12 9C12.278 9 12.5472 9.03763 12.8027 9.1084L14.3281 6.46777C13.6123 6.16623 12.8254 6 12 6Z" fill="#1C274C"/>
</svg>
