<svg width="24" height="24" viewBox="0 0 24 24" fill="none" xmlns="http://www.w3.org/2000/svg">
<path d="M2.98926 4.73096C3.58015 4.4577 4.35708 4.72769 5.91016 5.26611C6.55114 5.48834 7.01907 5.64981 7.4082 5.74854C7.64943 5.80972 7.83294 6.02018 7.83301 6.26904V21.4194C7.83297 21.7248 7.56173 21.9567 7.2666 21.8784C6.81398 21.758 6.27417 21.5706 5.57324 21.3276L4.2793 20.8794C3.17927 20.498 2.62904 20.3069 2.31445 19.853C1.99994 19.3991 2 18.7961 2 17.5903V8.19678C2 6.49395 2.00026 5.64258 2.43652 5.146C2.5914 4.96973 2.77949 4.82802 2.98926 4.73096ZM13.8037 2.67822C14.1158 2.47859 14.4997 2.70925 14.5 3.07959V18.1265C14.5 18.3168 14.3913 18.49 14.2266 18.5854C13.8789 18.7867 13.4715 19.0693 12.916 19.4546L11.3799 20.519C10.9152 20.8412 10.5313 21.1074 10.1963 21.3218C9.88407 21.5215 9.5 21.29 9.5 20.9194V5.87256C9.50006 5.68232 9.60888 5.50997 9.77344 5.41455C10.1211 5.21328 10.5284 4.93059 11.084 4.54541L12.6201 3.47998C13.0847 3.15785 13.4688 2.89253 13.8037 2.67822ZM16.7334 2.12158C17.186 2.24198 17.7258 2.42836 18.4268 2.67139L19.7207 3.12061C20.8206 3.50194 21.3709 3.69209 21.6855 4.146C22.0001 4.5999 22 5.20299 22 6.40869V15.8022C22 17.5051 21.9998 18.3564 21.5635 18.853C21.4086 19.0293 21.2205 19.171 21.0107 19.2681C20.4199 19.5413 19.6429 19.2723 18.0898 18.7339C17.4488 18.5116 16.981 18.3492 16.5918 18.2505C16.3506 18.1893 16.167 17.9789 16.167 17.73V2.57959C16.1672 2.27426 16.4383 2.04322 16.7334 2.12158Z" fill="#48465C"/>
</svg>
