<svg width="24" height="24" viewBox="0 0 24 24" fill="none" xmlns="http://www.w3.org/2000/svg">
<path d="M12 2C12.4626 2 12.5392 2.69315 12.1436 2.93262C10.2598 4.07091 9 6.13845 9 8.5C9 12.0899 11.9101 15 15.5 15C17.8615 15 19.9291 13.7402 21.0674 11.8564C21.3069 11.4608 22 11.5374 22 12C22 17.5228 17.5228 22 12 22C6.47715 22 2 17.5228 2 12C2 6.47715 6.47715 2 12 2ZM16.5 7.25C16.8034 7.25 17.0773 7.43263 17.1934 7.71289C17.3094 7.99312 17.2448 8.31579 17.0303 8.53027L15.3105 10.25H16.5C16.9142 10.25 17.25 10.5858 17.25 11C17.25 11.4142 16.9142 11.75 16.5 11.75H13.5C13.1967 11.75 12.9227 11.5674 12.8066 11.2871C12.6906 11.0069 12.7552 10.6842 12.9697 10.4697L14.6895 8.75H13.5C13.0858 8.75 12.75 8.41421 12.75 8C12.75 7.58579 13.0858 7.25 13.5 7.25H16.5ZM22 1.25C22.3034 1.25 22.5773 1.43263 22.6934 1.71289C22.8094 1.99312 22.7448 2.31579 22.5303 2.53027L19.8105 5.25H22C22.4142 5.25 22.75 5.58579 22.75 6C22.75 6.41421 22.4142 6.75 22 6.75H18C17.6967 6.75 17.4227 6.56737 17.3066 6.28711C17.1906 6.00688 17.2553 5.68421 17.4697 5.46973L20.1895 2.75H18C17.5858 2.75 17.25 2.41421 17.25 2C17.25 1.58579 17.5858 1.25 18 1.25H22Z" fill="#1C274C"/>
</svg>
