<svg width="24" height="24" viewBox="0 0 24 24" fill="none" xmlns="http://www.w3.org/2000/svg">
<path d="M20.5 13C20.5 16.7712 20.4997 18.6566 19.3281 19.8281C18.1566 20.9997 16.2711 21 12.5 21H11.5C7.72884 21 5.84346 20.9996 4.67188 19.8281C3.50032 18.6566 3.5 16.7712 3.5 13V8.49805C3.64472 8.50004 3.78966 8.50005 3.93066 8.5H20.0693C20.2104 8.50005 20.3552 8.50004 20.5 8.49805V13ZM10.5 10.5C10.0341 10.5 9.80096 10.5001 9.61719 10.5762C9.37225 10.6777 9.17764 10.8723 9.07617 11.1172C9.00005 11.301 9 11.5341 9 12C9 12.4658 9.00006 12.699 9.07617 12.8828C9.17767 13.1277 9.37228 13.3223 9.61719 13.4238C9.80096 13.4999 10.0341 13.5 10.5 13.5H13.5C13.9659 13.5 14.199 13.4999 14.3828 13.4238C14.6277 13.3224 14.8223 13.1277 14.9238 12.8828C14.9999 12.699 15 12.4658 15 12C15 11.5341 14.9999 11.301 14.9238 11.1172C14.8223 10.8723 14.6277 10.6777 14.3828 10.5762C14.199 10.5001 13.9659 10.5 13.5 10.5H10.5ZM20 3C20.9428 3 21.4141 3.00008 21.707 3.29297C21.9999 3.58587 22 4.0572 22 5C22 5.9428 21.9999 6.41413 21.707 6.70703C21.4141 6.99992 20.9428 7 20 7H4C3.05719 7 2.58587 6.99992 2.29297 6.70703C2.00008 6.41413 2 5.94281 2 5C2 4.05719 2.00008 3.58587 2.29297 3.29297C2.58587 3.00008 3.05719 3 4 3H20Z" fill="#48465C"/>
</svg>
