<svg width="24" height="24" viewBox="0 0 24 24" fill="none" xmlns="http://www.w3.org/2000/svg">
<path fill-rule="evenodd" clip-rule="evenodd" d="M15.5313 1.25C16.2046 1.24999 16.7555 1.24956 17.2031 1.28613C17.6663 1.32398 18.0848 1.4054 18.4756 1.60449C19.0869 1.91605 19.5839 2.41304 19.8955 3.02442C20.0946 3.41515 20.1761 3.83362 20.2139 4.29688C20.2425 4.64622 20.2486 5.05866 20.25 5.54297C20.7833 5.70021 21.2516 5.94889 21.6514 6.34863C22.2533 6.95055 22.5128 7.70829 22.6338 8.6084C22.7503 9.47534 22.75 10.5778 22.75 11.9453V12.0547C22.75 13.4222 22.7503 14.5247 22.6338 15.3916C22.5128 16.2918 22.2533 17.0495 21.6514 17.6514C21.2516 18.0511 20.7833 18.2998 20.25 18.457C20.2487 18.9413 20.2425 19.3537 20.2139 19.7031C20.1761 20.1663 20.0946 20.5848 19.8955 20.9756C19.5839 21.5869 19.0869 22.0839 18.4756 22.3955C18.0848 22.5946 17.6663 22.6761 17.2031 22.7139C16.7555 22.7505 16.2046 22.75 15.5313 22.75H8.46875C7.79537 22.75 7.24445 22.7505 6.79688 22.7139C6.33362 22.6761 5.91515 22.5946 5.52441 22.3955C4.91305 22.0839 4.41605 21.5869 4.10449 20.9756C3.9054 20.5848 3.82398 20.1663 3.78613 19.7031C3.75759 19.3537 3.75137 18.9413 3.75 18.457C3.2167 18.2998 2.74839 18.0512 2.34863 17.6514C1.74671 17.0495 1.48723 16.2917 1.36621 15.3916C1.24968 14.5246 1.24998 13.4222 1.25 12.0547V11.9453C1.24998 10.5778 1.24968 9.47533 1.36621 8.6084C1.48723 7.70829 1.74671 6.95055 2.34863 6.34863C2.74839 5.94887 3.21668 5.70022 3.75 5.54297C3.75137 5.05866 3.75759 4.64622 3.78613 4.29688C3.82398 3.83362 3.90541 3.41515 4.10449 3.02442C4.41606 2.41305 4.91304 1.91606 5.52441 1.60449C5.91515 1.40541 6.33362 1.32398 6.79688 1.28613C7.24444 1.24957 7.79538 1.24999 8.46875 1.25H15.5313ZM18.748 18.6973C17.9975 18.75 17.1041 18.75 16.0547 18.75H7.94531C6.89589 18.75 6.0025 18.7499 5.25195 18.6973C5.25475 19.0554 5.26159 19.3405 5.28125 19.5811C5.31152 19.9515 5.36705 20.1508 5.44043 20.2949C5.60818 20.624 5.87597 20.8918 6.20508 21.0596C6.3491 21.133 6.54851 21.1885 6.91895 21.2188C7.2982 21.2498 7.78756 21.25 8.5 21.25H15.5C16.2124 21.25 16.7019 21.2498 17.0811 21.2188C17.4515 21.1885 17.6508 21.133 17.7949 21.0596C18.124 20.8918 18.3918 20.624 18.5596 20.2949C18.633 20.1508 18.6885 19.9515 18.7188 19.5811C18.7384 19.3405 18.7452 19.0554 18.748 18.6973ZM8 6.75C6.56485 6.75 5.5639 6.75201 4.80859 6.85352C4.07482 6.95217 3.68594 7.13242 3.40918 7.40918C3.13242 7.68594 2.95217 8.07482 2.85352 8.80859C2.75201 9.5639 2.75 10.5649 2.75 12C2.75 13.4354 2.75196 14.437 2.85352 15.1924C2.95218 15.9258 3.13249 16.3141 3.40918 16.5908C3.68594 16.8676 4.07482 17.0478 4.80859 17.1465C5.5639 17.2479 6.56485 17.25 8 17.25H16C17.4354 17.25 18.437 17.248 19.1924 17.1465C19.9258 17.0478 20.3141 16.8676 20.5908 16.5908C20.8676 16.3141 21.0478 15.9258 21.1465 15.1924C21.248 14.437 21.25 13.4354 21.25 12C21.25 10.5649 21.2479 9.5639 21.1465 8.80859C21.0478 8.07481 20.8676 7.68594 20.5908 7.40918C20.3141 7.13249 19.9258 6.95218 19.1924 6.85352C18.437 6.75196 17.4354 6.75 16 6.75H8ZM8.5 2.75C7.78756 2.75 7.2982 2.75026 6.91895 2.78125C6.54852 2.81152 6.3491 2.86705 6.20508 2.94043C5.87597 3.10818 5.60818 3.37597 5.44043 3.70508C5.36705 3.8491 5.31152 4.04852 5.28125 4.41895C5.26159 4.65957 5.25475 4.94467 5.25195 5.30274C6.00249 5.25007 6.8959 5.24998 7.94531 5.25H16.0547C17.1041 5.24998 17.9975 5.25007 18.748 5.30274C18.7452 4.94467 18.7384 4.65957 18.7188 4.41895C18.6885 4.04851 18.633 3.84911 18.5596 3.70508C18.3918 3.37597 18.124 3.10818 17.7949 2.94043C17.6508 2.86705 17.4515 2.81152 17.0811 2.78125C16.7019 2.75026 16.2124 2.75 15.5 2.75H8.5Z" fill="#1C274C"/>
</svg>
