<svg width="24" height="24" viewBox="0 0 24 24" fill="none" xmlns="http://www.w3.org/2000/svg">
<path d="M12 1.25C17.9371 1.25 22.75 6.06294 22.75 12C22.75 13.6404 22.3826 15.195 21.7256 16.5859C22.0586 17.1462 22.25 17.8014 22.25 18.5C22.25 20.5711 20.5711 22.25 18.5 22.25C17.8014 22.25 17.1462 22.0586 16.5859 21.7256C15.195 22.3826 13.6404 22.75 12 22.75C10.3594 22.75 8.80419 22.3828 7.41309 21.7256C6.85296 22.0584 6.19837 22.2499 5.5 22.25C3.42893 22.25 1.75 20.5711 1.75 18.5C1.75 17.8012 1.94127 17.1463 2.27441 16.5859C1.61741 15.195 1.25 13.6403 1.25 12C1.25 6.06294 6.06294 1.25 12 1.25ZM12 2.75C6.89137 2.75 2.75 6.89137 2.75 12C2.75 17.1086 6.89137 21.25 12 21.25C17.1086 21.25 21.25 17.1086 21.25 12C21.25 6.89137 17.1086 2.75 12 2.75ZM3.25 18.5C3.25 19.7426 4.25736 20.75 5.5 20.75C5.57986 20.75 5.65867 20.7454 5.73633 20.7373C4.7831 20.0527 3.9462 19.216 3.26172 18.2627C3.25359 18.3405 3.25 18.4199 3.25 18.5ZM20.7383 18.2637C20.0538 19.2169 19.2169 20.0538 18.2637 20.7383C18.3413 20.7464 18.4202 20.75 18.5 20.75C19.7426 20.75 20.75 19.7426 20.75 18.5C20.75 18.4202 20.7464 18.3413 20.7383 18.2637ZM12 15.25C12.4142 15.25 12.75 15.5858 12.75 16V18C12.75 18.4142 12.4142 18.75 12 18.75C11.5858 18.75 11.25 18.4142 11.25 18V16C11.25 15.5858 11.5858 15.25 12 15.25ZM12 5.25C14.0711 5.25 15.75 6.92893 15.75 9C15.75 11.0711 14.0711 12.75 12 12.75C9.92893 12.75 8.25 11.0711 8.25 9C8.25 6.92893 9.92893 5.25 12 5.25ZM12 6.75C10.7574 6.75 9.75 7.75736 9.75 9C9.75 10.2426 10.7574 11.25 12 11.25C13.2426 11.25 14.25 10.2426 14.25 9C14.25 7.75736 13.2426 6.75 12 6.75Z" fill="#1C274C"/>
</svg>
