<svg width="24" height="24" viewBox="0 0 24 24" fill="none" xmlns="http://www.w3.org/2000/svg">
<path d="M12 1.25C15.1463 1.25 17.7878 3.40232 18.5371 6.31348C18.6401 6.71448 18.3991 7.12331 17.998 7.22656C17.5969 7.3298 17.1883 7.08766 17.085 6.68652C16.5021 4.42216 14.4452 2.75 12 2.75C9.10051 2.75 6.75 5.10051 6.75 8V9.25391C7.12349 9.25046 7.52184 9.24999 7.94531 9.25H16.0547C17.4222 9.24998 18.5246 9.24968 19.3916 9.36621C20.2917 9.48723 21.0494 9.74676 21.6514 10.3486C22.2533 10.9506 22.5128 11.7083 22.6338 12.6084C22.7503 13.4754 22.75 14.5778 22.75 15.9453V16.0547C22.75 17.4222 22.7503 18.5246 22.6338 19.3916C22.5128 20.2917 22.2533 21.0495 21.6514 21.6514C21.0494 22.2533 20.2917 22.5128 19.3916 22.6338C18.5246 22.7503 17.4222 22.75 16.0547 22.75H7.94531C6.57782 22.75 5.47534 22.7503 4.6084 22.6338C3.7083 22.5128 2.95055 22.2533 2.34863 21.6514C1.74671 21.0495 1.48723 20.2917 1.36621 19.3916C1.24968 18.5246 1.24998 17.4222 1.25 16.0547V15.9453C1.24998 14.5778 1.24968 13.4754 1.36621 12.6084C1.48723 11.7083 1.74673 10.9506 2.34863 10.3486C2.95055 9.74676 3.70829 9.48723 4.6084 9.36621C4.80948 9.33918 5.02324 9.31868 5.25 9.30273V8C5.25 4.27208 8.27208 1.25 12 1.25ZM8 10.75C6.56485 10.75 5.5639 10.7521 4.80859 10.8535C4.07482 10.9522 3.68594 11.1324 3.40918 11.4092C3.13249 11.6859 2.95218 12.0742 2.85352 12.8076C2.75196 13.563 2.75 14.5646 2.75 16C2.75 17.4354 2.75196 18.437 2.85352 19.1924C2.95218 19.9258 3.13249 20.3141 3.40918 20.5908C3.68594 20.8676 4.07482 21.0478 4.80859 21.1465C5.5639 21.2479 6.56485 21.25 8 21.25H16C17.4354 21.25 18.437 21.248 19.1924 21.1465C19.9258 21.0478 20.3141 20.8676 20.5908 20.5908C20.8676 20.3141 21.0478 19.9258 21.1465 19.1924C21.248 18.437 21.25 17.4354 21.25 16C21.25 14.5646 21.248 13.563 21.1465 12.8076C21.0478 12.0742 20.8676 11.6859 20.5908 11.4092C20.3141 11.1324 19.9258 10.9522 19.1924 10.8535C18.437 10.752 17.4354 10.75 16 10.75H8ZM12 13.25C12.4142 13.25 12.75 13.5858 12.75 14V18C12.75 18.4142 12.4142 18.75 12 18.75C11.5858 18.75 11.25 18.4142 11.25 18V14C11.25 13.5858 11.5858 13.25 12 13.25Z" fill="#1C274C"/>
</svg>
