<svg width="24" height="24" viewBox="0 0 24 24" fill="none" xmlns="http://www.w3.org/2000/svg">
<path d="M5.16016 13.75C6.13397 13.75 6.38878 13.7659 6.60254 13.8643C6.8163 13.9626 6.99423 14.1455 7.62793 14.8848L8.32031 15.6934C8.82234 16.2802 9.2203 16.7449 9.77051 16.998C10.3207 17.2511 10.9328 17.2508 11.7051 17.25H12.2949C13.0672 17.2508 13.6793 17.2511 14.2295 16.998C14.7797 16.7449 15.1777 16.2802 15.6797 15.6934L16.3721 14.8848C17.0058 14.1455 17.1838 13.9626 17.3975 13.8643C17.6113 13.7659 17.8661 13.75 18.8398 13.75H21.9971C21.9749 17.3219 21.806 19.2644 20.5352 20.5352C19.0708 21.9997 16.714 22 12 22C7.28597 22 4.9293 21.9996 3.46484 20.5352C2.19404 19.2644 2.02515 17.3219 2.00293 13.75H5.16016ZM14.25 2.00781C17.5055 2.04429 19.325 2.2547 20.5352 3.46484C21.9996 4.92929 22 7.28605 22 12V12.25H18.7051C17.9328 12.2492 17.3207 12.2489 16.7705 12.502C16.2203 12.7551 15.8223 13.2198 15.3203 13.8066L14.6279 14.6152C13.9943 15.3545 13.8162 15.5374 13.6025 15.6357C13.3887 15.7341 13.134 15.75 12.1602 15.75H11.8398C10.866 15.75 10.6113 15.7341 10.3975 15.6357C10.1838 15.5374 10.0058 15.3545 9.37207 14.6152L8.67969 13.8066C8.17766 13.2197 7.77971 12.7551 7.22949 12.502C6.6792 12.2489 6.06725 12.2492 5.29492 12.25H2V12C2 7.28605 2.00039 4.92929 3.46484 3.46484C4.67503 2.25472 6.49442 2.04429 9.75 2.00781V4.87793C8.95856 4.59885 8.04221 4.77621 7.40918 5.40918C6.53052 6.28784 6.53057 7.71213 7.40918 8.59082L10.4092 11.5908C10.8312 12.0127 11.4033 12.25 12 12.25C12.5967 12.25 13.1688 12.0127 13.5908 11.5908L16.5908 8.59082C17.4695 7.71213 17.4695 6.28784 16.5908 5.40918C15.9578 4.77621 15.0414 4.59886 14.25 4.87793V2.00781ZM12 1.25C12.4142 1.25 12.75 1.58579 12.75 2V8.18945L14.4697 6.46973C14.7626 6.17684 15.2374 6.17684 15.5303 6.46973C15.8232 6.76261 15.8232 7.23739 15.5303 7.53027L12.5303 10.5303C12.3897 10.671 12.1989 10.75 12 10.75C11.8011 10.75 11.6103 10.671 11.4697 10.5303L8.46973 7.53027C8.17684 7.23738 8.17684 6.76262 8.46973 6.46973C8.76262 6.17684 9.23738 6.17684 9.53027 6.46973L11.25 8.18945V2C11.25 1.58579 11.5858 1.25 12 1.25Z" fill="#1C274C"/>
</svg>
