<svg width="24" height="24" viewBox="0 0 24 24" fill="none" xmlns="http://www.w3.org/2000/svg">
<path d="M9.26437 17.3525C9.34575 16.9465 9.74113 16.6834 10.1472 16.7646C10.5533 16.8459 10.8163 17.2413 10.7351 17.6475C10.3774 19.4351 9.40083 21.0399 7.97726 22.1787L7.46848 22.5859C7.14514 22.8444 6.67353 22.7919 6.41476 22.4688C6.156 22.1454 6.2085 21.6729 6.53195 21.4141L7.04074 21.0068C8.18877 20.0883 8.97604 18.7942 9.26437 17.3525ZM11.4997 9.25C12.0538 9.25 12.6542 9.31112 13.1941 9.38867C14.7154 9.60725 15.8674 10.7303 16.3279 12.1113C16.4322 12.4241 16.7486 12.6147 17.0739 12.5605L18.8767 12.2598C19.2853 12.1917 19.6719 12.4684 19.74 12.877C19.8079 13.2853 19.5321 13.672 19.1237 13.7402L17.32 14.04C16.2667 14.2155 15.2427 13.5989 14.905 12.5859C14.5977 11.6641 13.8616 11.0006 12.9802 10.874C12.7126 10.8355 12.4401 10.8032 12.1755 10.7812L11.904 13.4922C11.8201 14.3319 11.8112 14.5539 11.8679 14.752C11.9245 14.9498 12.0499 15.133 12.5652 15.8008L16.9939 21.542C17.247 21.8699 17.1861 22.3408 16.8581 22.5938C16.5302 22.8466 16.0593 22.7859 15.8064 22.458L11.3777 16.7168C11.3538 16.6859 11.3297 16.6551 11.3064 16.625C10.8959 16.0939 10.5713 15.6732 10.4255 15.1641C10.28 14.6549 10.3327 14.1266 10.4001 13.459C10.4039 13.421 10.4079 13.3817 10.4118 13.3428L10.6657 10.8027C8.99259 11.0766 7.74973 12.6493 7.74973 14.5C7.74973 14.9142 7.41394 15.25 6.99973 15.25C6.58565 15.2498 6.24973 14.9141 6.24973 14.5C6.24973 11.8593 8.16404 9.41745 10.9294 9.26758C11.129 9.25676 11.3216 9.25001 11.4997 9.25ZM12.4997 2C13.8804 2 14.9997 3.11929 14.9997 4.5C14.9997 5.88071 13.8804 7 12.4997 7C11.1192 6.99985 9.99973 5.88062 9.99973 4.5C9.99973 3.11938 11.1192 2.00015 12.4997 2Z" fill="#1C274C"/>
</svg>
