<svg width="24" height="24" viewBox="0 0 24 24" fill="none" xmlns="http://www.w3.org/2000/svg">
<path d="M15.2837 10C15.7138 10 15.9293 10.0003 16.103 10.0312C16.3246 10.0707 16.5326 10.1456 16.7212 10.25H18.9995C21.0706 10.25 22.7495 11.9289 22.7495 14C22.7495 16.0711 21.0706 17.75 18.9995 17.75H16.8345C16.4374 18.6315 15.8116 19.4027 15.0083 19.9756C14.0739 20.6417 12.9547 20.9999 11.8071 21H8.19287C7.04524 21 5.92616 20.6418 4.9917 19.9756C3.72351 19.0713 2.89721 17.6729 2.71631 16.126L2.31494 12.6973C2.26504 12.2704 2.24 12.0569 2.25049 11.8809C2.30557 10.9578 2.98663 10.1933 3.89697 10.0312C4.07066 10.0003 4.28619 10 4.71631 10H15.2837ZM17.7485 11.8809C17.759 12.0569 17.7349 12.2704 17.6851 12.6973L17.2837 16.126C17.2788 16.1674 17.2739 16.2088 17.2681 16.25H18.9995C20.2421 16.25 21.2495 15.2426 21.2495 14C21.2495 12.7574 20.2421 11.75 18.9995 11.75H17.7368C17.7423 11.7932 17.7459 11.8369 17.7485 11.8809ZM4.96924 2.96973C5.26209 2.67688 5.73688 2.67696 6.02979 2.96973C6.32268 3.26262 6.32268 3.73738 6.02979 4.03027L5.91455 4.14648C5.6713 4.38973 5.6437 4.77459 5.8501 5.0498C6.50434 5.92219 6.41706 7.143 5.646 7.91406L5.52979 8.03027C5.23688 8.32293 4.76205 8.32309 4.46924 8.03027C4.17655 7.73745 4.17662 7.26259 4.46924 6.96973L4.58545 6.85352C4.82864 6.61033 4.85613 6.22539 4.6499 5.9502C3.9957 5.07793 4.08224 3.85704 4.85303 3.08594L4.96924 2.96973ZM14.4692 2.96973C14.7621 2.67687 15.2369 2.67694 15.5298 2.96973C15.8227 3.26262 15.8227 3.73738 15.5298 4.03027L15.4136 4.14648C15.1707 4.38975 15.1438 4.77471 15.3501 5.0498C16.0044 5.92219 15.9171 7.143 15.146 7.91406L15.0298 8.03027C14.7369 8.32295 14.2621 8.32309 13.9692 8.03027C13.6766 7.73745 13.6766 7.26259 13.9692 6.96973L14.0854 6.85352C14.3286 6.61033 14.3561 6.22539 14.1499 5.9502C13.4957 5.07793 13.5822 3.85704 14.353 3.08594L14.4692 2.96973ZM9.47021 1.46973C9.76312 1.17699 10.2379 1.17689 10.5308 1.46973C10.8234 1.76259 10.8234 2.23745 10.5308 2.53027C10.2714 2.78966 10.2714 3.21034 10.5308 3.46973C11.3757 4.31488 11.3757 5.68516 10.5308 6.53027C10.2379 6.82308 9.76313 6.8229 9.47021 6.53027C9.17732 6.23738 9.17732 5.76262 9.47021 5.46973C9.72936 5.21041 9.72929 4.78963 9.47021 4.53027C8.62503 3.68509 8.62503 2.31491 9.47021 1.46973Z" fill="#48465C"/>
</svg>
