<svg width="24" height="24" viewBox="0 0 24 24" fill="none" xmlns="http://www.w3.org/2000/svg">
<path d="M12 1.25C17.9371 1.25 22.75 6.06294 22.75 12C22.75 17.9371 17.9371 22.75 12 22.75C6.06294 22.75 1.25 17.9371 1.25 12C1.25 6.06294 6.06294 1.25 12 1.25ZM12.75 4C12.75 4.41422 12.4142 4.75 12 4.75C11.5858 4.75 11.25 4.41422 11.25 4V2.78027C9.25929 2.94001 7.44612 3.72958 6.01074 4.9502L7.03027 5.96973C7.32316 6.26262 7.32316 6.73738 7.03027 7.03027C6.73738 7.32316 6.26262 7.32316 5.96973 7.03027L4.9502 6.01074C3.72958 7.44612 2.94001 9.25929 2.78027 11.25H4C4.41421 11.25 4.75 11.5858 4.75 12C4.75 12.4142 4.41421 12.75 4 12.75H2.78027C2.94001 14.7407 3.72958 16.5539 4.9502 17.9893L5.96973 16.9697C6.26261 16.6768 6.73739 16.6768 7.03027 16.9697C7.32316 17.2626 7.32316 17.7374 7.03027 18.0303L6.01074 19.0498C7.62449 20.4221 9.71567 21.25 12 21.25C14.2843 21.25 16.3756 20.4221 17.9893 19.0498L16.9697 18.0303C16.6768 17.7374 16.6768 17.2626 16.9697 16.9697C17.2626 16.6768 17.7374 16.6768 18.0303 16.9697L19.0498 17.9893C20.2704 16.5539 21.06 14.7407 21.2197 12.75H20C19.5858 12.75 19.25 12.4142 19.25 12C19.25 11.5858 19.5858 11.25 20 11.25H21.2197C21.06 9.25929 20.2704 7.44612 19.0498 6.01074L18.0303 7.03027C17.7374 7.32316 17.2626 7.32316 16.9697 7.03027C16.6768 6.73739 16.6768 6.26261 16.9697 5.96973L17.9893 4.9502C16.5539 3.72958 14.7407 2.94001 12.75 2.78027V4ZM9.59082 9.59082C11.0553 8.12636 13.43 8.12636 14.8945 9.59082C15.225 9.9213 15.4601 10.3768 15.6348 10.8223C15.8144 11.2805 15.9553 11.7965 16.0674 12.3057C16.0723 12.3277 16.0771 12.3502 16.082 12.3721C16.23 13.0444 16.365 13.6548 16.374 14.168C16.3843 14.7612 16.2311 15.3022 15.7666 15.7666C15.3021 16.2311 14.7612 16.3843 14.168 16.374C13.6548 16.365 13.0445 16.2301 12.3721 16.082C12.3503 16.0773 12.3285 16.0723 12.3066 16.0674C11.7973 15.9553 11.2806 15.8144 10.8223 15.6348C10.3767 15.4601 9.9213 15.225 9.59082 14.8945C8.12636 13.43 8.12637 11.0553 9.59082 9.59082ZM13.834 10.6514C12.9553 9.77272 11.5301 9.77272 10.6514 10.6514C9.77271 11.5301 9.77267 12.9553 10.6514 13.834C10.7665 13.9491 10.9971 14.0924 11.3691 14.2383C11.7284 14.3792 12.1631 14.5 12.6289 14.6025C13.3888 14.7697 13.8499 14.868 14.1943 14.874C14.4751 14.8789 14.5899 14.8222 14.7061 14.7061C14.8223 14.5899 14.8789 14.4745 14.874 14.1934C14.8679 13.849 14.7696 13.3885 14.6025 12.6289C14.5 12.163 14.3792 11.7285 14.2383 11.3691C14.0925 10.9972 13.949 10.7666 13.834 10.6514Z" fill="#48465C"/>
</svg>
