<svg width="24" height="24" viewBox="0 0 24 24" fill="none" xmlns="http://www.w3.org/2000/svg">
<path d="M14.5215 1.25C14.7358 1.24999 14.9333 1.25044 15.0986 1.26172C15.2762 1.27386 15.4716 1.30066 15.6699 1.38281C16.0987 1.56043 16.4396 1.90132 16.6172 2.33008C16.6993 2.52841 16.7262 2.72385 16.7383 2.90137C16.7496 3.06669 16.75 3.26426 16.75 3.47852V3.52148C16.75 3.73574 16.7496 3.93332 16.7383 4.09863C16.7262 4.27615 16.6993 4.47159 16.6172 4.66992C16.4396 5.09868 16.0987 5.43958 15.6699 5.61719C15.4933 5.69034 15.3185 5.72013 15.1572 5.73438L16.9883 7.2168C18.1024 8.11864 18.75 9.47488 18.75 10.9082V12.5C18.75 12.9142 18.4142 13.25 18 13.25C17.5858 13.25 17.25 12.9142 17.25 12.5V10.9082C17.25 10.8553 17.2486 10.8026 17.2461 10.75H2.75488C2.75184 10.8073 2.75 10.8652 2.75 10.9229V17.25H10.5C10.9142 17.25 11.25 17.5858 11.25 18C11.25 18.4142 10.9142 18.75 10.5 18.75H2.97852C3.10452 19.0677 3.28084 19.3663 3.50293 19.6328C3.88149 20.0871 4.02763 20.2589 4.18262 20.4004C4.66907 20.8442 5.27924 21.1302 5.93164 21.2197C6.13968 21.2483 6.36523 21.25 6.95703 21.25H10.5C10.9142 21.25 11.25 21.5858 11.25 22C11.25 22.4142 10.9142 22.75 10.5 22.75H6.90234C6.38364 22.7501 6.04965 22.7503 5.72754 22.7061C4.77404 22.5752 3.88284 22.1576 3.17188 21.5088C2.9317 21.2897 2.71774 21.0333 2.38574 20.6348L2.35059 20.5928C1.63929 19.7391 1.25 18.6629 1.25 17.5518V10.9229C1.25 9.48011 1.90578 8.11528 3.03223 7.21387L4.87793 5.7373C4.70672 5.72433 4.51975 5.69575 4.33008 5.61719C3.90132 5.43958 3.56043 5.09868 3.38281 4.66992C3.30066 4.47159 3.27386 4.27616 3.26172 4.09863C3.25044 3.93331 3.24999 3.73575 3.25 3.52148V3.47852C3.24999 3.26425 3.25044 3.0667 3.26172 2.90137C3.27386 2.72385 3.30066 2.52841 3.38281 2.33008C3.56043 1.90132 3.90132 1.56043 4.33008 1.38281C4.52842 1.30066 4.72385 1.27385 4.90137 1.26172C5.06668 1.25044 5.26427 1.24999 5.47852 1.25H14.5215ZM15.3477 15.1367C16.5765 13.9079 18.5677 13.9798 19.7939 15.2061C21.0202 16.4323 21.0921 18.4234 19.8633 19.6523L17.6523 21.8633C16.4234 23.0922 14.4324 23.0202 13.2061 21.7939C11.9798 20.5676 11.9078 18.5765 13.1367 17.3477L15.3477 15.1367ZM14.1973 18.4082C13.5945 19.0109 13.5849 20.0517 14.2666 20.7334C14.9483 21.4151 15.9891 21.4055 16.5918 20.8027L17.3613 20.0332C17.3458 19.9992 17.3285 19.9628 17.3096 19.9248C17.1491 19.6021 16.861 19.1402 16.3604 18.6396C15.8597 18.139 15.398 17.851 15.0752 17.6904C15.0372 17.6716 15.0008 17.6542 14.9668 17.6387L14.1973 18.4082ZM18.7334 16.2666C18.0517 15.585 17.0109 15.5945 16.4082 16.1973L16.0771 16.5283C16.4734 16.7608 16.9391 17.0973 17.4209 17.5791C17.9027 18.0609 18.2393 18.5267 18.4717 18.9229L18.8027 18.5918C19.4055 17.9891 19.4151 16.9483 18.7334 16.2666ZM10 11.25C10.4142 11.25 10.75 11.5858 10.75 12V13.25H12C12.4142 13.25 12.75 13.5858 12.75 14C12.75 14.4142 12.4142 14.75 12 14.75H10.75V16C10.75 16.4142 10.4142 16.75 10 16.75C9.58579 16.75 9.25 16.4142 9.25 16V14.75H8C7.58579 14.75 7.25 14.4142 7.25 14C7.25 13.5858 7.58579 13.25 8 13.25H9.25V12C9.25 11.5858 9.58579 11.25 10 11.25ZM8.40332 5.75C7.65785 5.75 7.46105 5.75971 7.28809 5.82031C7.11507 5.881 6.95531 5.9961 6.37305 6.46191L3.96973 8.38477C3.66451 8.62896 3.40926 8.92279 3.21289 9.25H16.7949C16.6005 8.9224 16.3481 8.62726 16.0449 8.38184L13.6875 6.47363C13.1026 6.00015 12.942 5.88301 12.7676 5.82129C12.5934 5.75969 12.3947 5.75 11.6426 5.75H8.40332ZM5.00391 2.75781C4.9371 2.76237 4.90874 2.76864 4.90137 2.77051C4.84256 2.79578 4.79579 2.84256 4.77051 2.90137C4.76865 2.90873 4.76237 2.93709 4.75781 3.00391C4.75044 3.11192 4.75 3.25677 4.75 3.5C4.75 3.74324 4.75044 3.88809 4.75781 3.99609C4.76237 4.06292 4.76865 4.09127 4.77051 4.09863C4.79579 4.15745 4.84256 4.20421 4.90137 4.22949C4.90873 4.23136 4.93709 4.23763 5.00391 4.24219C5.11191 4.24956 5.25677 4.25 5.5 4.25H14.5C14.7432 4.25 14.8881 4.24956 14.9961 4.24219C15.0629 4.23763 15.0912 4.23137 15.0986 4.22949C15.1574 4.20421 15.2042 4.15745 15.2295 4.09863C15.2314 4.09128 15.2377 4.06291 15.2422 3.99609C15.2496 3.88809 15.25 3.74324 15.25 3.5C15.25 3.25677 15.2496 3.11192 15.2422 3.00391C15.2377 2.93708 15.2314 2.90873 15.2295 2.90137C15.2042 2.84256 15.1574 2.79578 15.0986 2.77051C15.0912 2.76863 15.0628 2.76237 14.9961 2.75781C14.8881 2.75044 14.7432 2.75 14.5 2.75H5.5C5.25677 2.75 5.11191 2.75044 5.00391 2.75781Z" fill="#1C274C"/>
</svg>
