<svg width="24" height="24" viewBox="0 0 24 24" fill="none" xmlns="http://www.w3.org/2000/svg">
<path d="M12 2C17.5228 2 22 6.47715 22 12C22 17.5228 17.5228 22 12 22C10.4003 22 8.88867 21.6239 7.54785 20.9561C7.19153 20.7787 6.78395 20.7203 6.39941 20.8232L4.17383 21.4189C3.20767 21.6774 2.32296 20.7932 2.58105 19.8271L3.17676 17.6006C3.27965 17.2161 3.22143 16.8084 3.04395 16.4521C2.37613 15.1113 2 13.5997 2 12C2 6.47715 6.47715 2 12 2ZM16.5 11.1084C16.5 8.43124 14.0249 7.43192 12 9.5C9.97507 7.43192 7.5 8.43124 7.5 11.1084C7.5 12.4767 8.81864 13.9123 10.0283 14.9414C10.8521 15.6423 11.2644 15.9932 12 15.9932C12.7356 15.9932 13.1479 15.6423 13.9717 14.9414C15.1814 13.9123 16.5 12.4767 16.5 11.1084Z" fill="#48465C"/>
</svg>
