<svg width="24" height="24" viewBox="0 0 24 24" fill="none" xmlns="http://www.w3.org/2000/svg">
<path d="M6.35352 9.75C6.67998 10.9043 7.74122 11.75 9 11.75H15C16.2588 11.75 17.32 10.9043 17.6465 9.75H20.998C20.9996 10.1421 21 10.558 21 11V13C21 16.7495 20.9997 18.6242 20.0449 19.9385C19.7365 20.3629 19.3629 20.7365 18.9385 21.0449C17.6242 21.9997 15.7495 22 12 22C8.25047 22 6.37584 21.9997 5.06152 21.0449C4.63705 20.7365 4.26348 20.3629 3.95508 19.9385C3.00032 18.6242 3 16.7495 3 13V11C3 10.558 3.00039 10.1421 3.00195 9.75H6.35352ZM15 7.75C15.6904 7.75 16.25 8.30964 16.25 9C16.25 9.69036 15.6904 10.25 15 10.25H9C8.30964 10.25 7.75 9.69036 7.75 9C7.75 8.30964 8.30964 7.75 9 7.75H15ZM12 2C15.7495 2 17.6242 2.00032 18.9385 2.95508C19.3629 3.26348 19.7365 3.63705 20.0449 4.06152C20.7309 5.00588 20.9242 6.2394 20.9785 8.25H17.6465C17.32 7.09575 16.2588 6.25 15 6.25H9C7.74122 6.25 6.67998 7.09575 6.35352 8.25H3.02148C3.07584 6.2394 3.26907 5.00588 3.95508 4.06152C4.26348 3.63705 4.63705 3.26348 5.06152 2.95508C6.37584 2.00032 8.25047 2 12 2Z" fill="#48465C"/>
</svg>
