<svg width="24" height="24" viewBox="0 0 24 24" fill="none" xmlns="http://www.w3.org/2000/svg">
<path d="M12.8584 4C15.0854 4 16.1993 3.99968 17.1289 4.50098C18.0586 5.00238 18.6486 5.92187 19.8291 7.75977L20.5098 8.82031C21.503 10.3667 22 11.1396 22 12C22 12.8604 21.503 13.6333 20.5098 15.1797L19.8291 16.2402C18.6486 18.0781 18.0586 18.9976 17.1289 19.499C16.1993 20.0003 15.0854 20 12.8584 20H10.2207C6.3455 20 4.40802 19.9997 3.2041 18.8281C2.00022 17.6566 2 15.7711 2 12C2 8.22883 2.00023 6.34346 3.2041 5.17188C4.40802 4.00033 6.34551 4 10.2207 4H12.8584ZM7 7.05469C6.58591 7.05469 6.2502 7.37007 6.25 7.75977V16.2354C6.25003 16.6251 6.58581 16.9414 7 16.9414C7.41419 16.9414 7.74997 16.6251 7.75 16.2354V7.75977C7.7498 7.37007 7.41409 7.05469 7 7.05469Z" fill="#48465C"/>
</svg>
