<svg width="24" height="24" viewBox="0 0 24 24" fill="none" xmlns="http://www.w3.org/2000/svg">
<path d="M12 1.25C12.4142 1.25 12.75 1.58579 12.75 2C12.75 2.41421 12.4142 2.75 12 2.75C6.89137 2.75 2.75 6.89137 2.75 12C2.75 17.1086 6.89137 21.25 12 21.25C17.1086 21.25 21.25 17.1086 21.25 12C21.25 11.5858 21.5858 11.25 22 11.25C22.4142 11.25 22.75 11.5858 22.75 12C22.75 17.9371 17.9371 22.75 12 22.75C6.06294 22.75 1.25 17.9371 1.25 12C1.25 6.06294 6.06294 1.25 12 1.25ZM22 1.25C22.4142 1.25001 22.75 1.5858 22.75 2V7.34375C22.75 7.75795 22.4142 8.09374 22 8.09375C21.5858 8.09375 21.25 7.75796 21.25 7.34375V3.81055L13.5303 11.5303C13.2374 11.8232 12.7626 11.8232 12.4697 11.5303C12.1768 11.2374 12.1768 10.7626 12.4697 10.4697L20.1895 2.75H16.6562C16.2421 2.75 15.9062 2.41421 15.9062 2C15.9062 1.58579 16.2421 1.25 16.6562 1.25H22Z" fill="#1C274C"/>
</svg>
