<svg width="24" height="24" viewBox="0 0 24 24" fill="none" xmlns="http://www.w3.org/2000/svg">
<path d="M3.70703 2.38379C4.41424 1.79407 5.49542 1.9715 7.65723 2.32617L8.71191 2.49902C10.3522 2.76812 11.1724 2.90332 12 2.90332C12.8276 2.90332 13.6478 2.76812 15.2881 2.49902L16.3428 2.32617C18.5046 1.9715 19.5858 1.79407 20.293 2.38379C21.0002 2.97354 21 4.05158 21 6.20703V11.4053C21 16.8098 16.7612 19.4332 14.1016 20.5469C13.3802 20.849 13.0193 21 12 21C10.9807 21 10.6199 20.849 9.89844 20.5469C7.23884 19.4332 3 16.8098 3 11.4053V6.20703C3 4.05155 2.99982 2.97353 3.70703 2.38379ZM12 12.6357C10.6696 12.6357 9.69177 12.9037 9.0293 13.1904C8.69952 13.3331 8.45103 13.4791 8.27832 13.5957C8.19201 13.654 8.12418 13.7047 8.0752 13.7441C8.05072 13.7638 8.03107 13.7815 8.01562 13.7949L7.99609 13.8125C7.69626 14.0937 7.6714 14.573 7.95703 14.8682C8.24034 15.1609 8.70952 15.1744 9.00977 14.9004L9.01562 14.8955L9.02441 14.8887C9.02961 14.8845 9.03608 14.8791 9.04395 14.873C9.0633 14.8583 9.09124 14.8375 9.12695 14.8135C9.22767 14.7455 9.39462 14.646 9.63281 14.543C10.1079 14.3374 10.8804 14.1123 12 14.1123C13.1196 14.1123 13.8921 14.3374 14.3672 14.543C14.6054 14.646 14.7723 14.7455 14.873 14.8135C14.9234 14.8475 14.9576 14.8742 14.9756 14.8887L14.9863 14.8965L14.9912 14.9014C15.2916 15.1744 15.76 15.1605 16.043 14.8682C16.3286 14.573 16.3174 14.1054 16.0176 13.8242L16.0156 13.8232L16.0146 13.8213L16.0117 13.8184L16.0039 13.8125L15.9844 13.7949C15.969 13.7815 15.9493 13.7638 15.9248 13.7441C15.8758 13.7047 15.808 13.654 15.7217 13.5957C15.549 13.4791 15.3004 13.3331 14.9707 13.1904C14.3082 12.9037 13.3304 12.6357 12 12.6357ZM8.5 6.73047C7.39657 6.73052 6.28786 7.21936 5.8291 8.12305C5.64424 8.48771 5.79463 8.93108 6.16504 9.11328C6.53553 9.29541 6.98577 9.1469 7.1709 8.78223C7.29458 8.53904 7.75718 8.20708 8.5 8.20703C9.24279 8.20703 9.70531 8.53903 9.8291 8.78223C10.0142 9.14681 10.4645 9.29521 10.835 9.11328C11.2054 8.93106 11.3558 8.48774 11.1709 8.12305C10.7121 7.21932 9.60349 6.73047 8.5 6.73047ZM15.5 6.73047C14.3966 6.73053 13.2878 7.21937 12.8291 8.12305C12.6442 8.4877 12.7947 8.93108 13.165 9.11328C13.5355 9.2954 13.9857 9.14689 14.1709 8.78223C14.2945 8.53904 14.7571 8.20709 15.5 8.20703C16.2428 8.20703 16.7053 8.53904 16.8291 8.78223C17.0141 9.14681 17.4645 9.29521 17.835 9.11328C18.2054 8.93106 18.3558 8.48774 18.1709 8.12305C17.7121 7.21932 16.6035 6.73047 15.5 6.73047Z" fill="#48465C"/>
</svg>
