<svg width="24" height="24" viewBox="0 0 24 24" fill="none" xmlns="http://www.w3.org/2000/svg">
<path d="M4.86914 16.6849C7.5146 15.1463 11.2717 14.2802 13.7793 15.7758C13.9476 15.8762 14.0992 15.9976 14.2285 16.1429C14.7866 16.7698 14.7457 17.7163 14.1025 18.2777C13.9668 18.396 13.8223 18.4857 13.6768 18.517C13.7964 18.5031 13.9111 18.4876 14.0205 18.4701C14.9319 18.3247 15.6971 17.8371 16.3975 17.308L18.2051 15.9437C18.8422 15.4625 19.7876 15.4617 20.4248 15.9428C20.9984 16.3759 21.1731 17.089 20.8105 17.6703C20.3877 18.3482 19.7919 19.2156 19.2197 19.7455C18.6468 20.2761 17.794 20.7502 17.0977 21.0863C16.3262 21.4587 15.4733 21.6734 14.6064 21.8138C12.8485 22.0983 11.0165 22.0551 9.27637 21.6967C8.29257 21.494 7.27063 21.3881 6.25977 21.3881H6C5.05719 21.3881 4.58587 21.388 4.29297 21.0951C4.00027 20.8022 4 20.3307 4 19.3881V18.2767C4 17.7582 3.99963 17.4985 4.13281 17.267C4.26599 17.0354 4.46734 16.9186 4.86914 16.6849ZM12 3.15271C14.2499 0.997439 17 2.03934 17 4.82947C16.9999 6.37718 15.2743 8.00754 13.8506 9.08924C13.0515 9.69635 12.6516 10.0004 12 10.0004C11.3484 10.0004 10.9486 9.69636 10.1494 9.08924C8.72571 8.00754 7.00005 6.37714 7 4.82947C7 2.03933 9.7501 0.997439 12 3.15271Z" fill="#1C274C"/>
</svg>
