<svg width="24" height="24" viewBox="0 0 24 24" fill="none" xmlns="http://www.w3.org/2000/svg">
<path d="M4.86914 16.6846C7.5146 15.1459 11.2717 14.2798 13.7793 15.7754C13.9476 15.8759 14.0992 15.9972 14.2285 16.1426C14.7866 16.7695 14.7457 17.7159 14.1025 18.2773C13.9668 18.3956 13.8223 18.4853 13.6768 18.5166C13.7964 18.5027 13.9111 18.4872 14.0205 18.4697C14.9319 18.3243 15.6971 17.8367 16.3975 17.3076L18.2051 15.9434C18.8422 15.4622 19.7876 15.4613 20.4248 15.9424C20.9984 16.3755 21.1731 17.0887 20.8105 17.6699C20.3877 18.3479 19.7919 19.2152 19.2197 19.7451C18.6468 20.2758 17.794 20.7498 17.0977 21.0859C16.3262 21.4583 15.4733 21.6731 14.6064 21.8135C12.8485 22.0979 11.0165 22.0547 9.27637 21.6963C8.29257 21.4936 7.27063 21.3877 6.25977 21.3877H6C5.05719 21.3877 4.58587 21.3876 4.29297 21.0947C4.00027 20.8018 4 20.3303 4 19.3877V18.2764C4 17.7579 3.99963 17.4981 4.13281 17.2666C4.26599 17.035 4.46734 16.9183 4.86914 16.6846ZM12 3.15234C14.2499 0.99707 17 2.03897 17 4.8291C16.9999 6.37681 15.2743 8.00717 13.8506 9.08887C13.0515 9.69598 12.6516 10 12 10C11.3484 10 10.9486 9.69599 10.1494 9.08887C8.72571 8.00717 7.00005 6.37677 7 4.8291C7 2.03896 9.7501 0.99707 12 3.15234Z" fill="#48465C"/>
</svg>
