<svg width="24" height="24" viewBox="0 0 24 24" fill="none" xmlns="http://www.w3.org/2000/svg">
<path d="M9.12781 2.24487C11.0289 1.91898 12.9718 1.91898 14.8729 2.24487L15.246 2.30835C17.3484 2.66886 18.7981 4.61571 18.5409 6.73315L18.5233 6.8728C18.4622 7.37463 18.0367 7.75168 17.5311 7.75171H15.7675L18.7333 21.5945C18.8201 21.9995 18.5621 22.3983 18.1571 22.4851C17.7522 22.5718 17.3533 22.3139 17.2665 21.9089L16.3221 17.5017H7.67761L6.73328 21.9089C6.64649 22.3139 6.24767 22.5719 5.84265 22.4851C5.43788 22.3981 5.17972 21.9993 5.26648 21.5945L8.23328 7.75171H6.4696C5.96401 7.75171 5.53748 7.37469 5.47644 6.8728L5.45984 6.73315C5.20266 4.61563 6.65231 2.66877 8.75476 2.30835L9.12781 2.24487ZM9.75085 7.75171C9.75079 7.80348 9.74455 7.85628 9.73328 7.90894L7.9989 16.0017H16.0009L14.2665 7.90894C14.2552 7.85633 14.25 7.80343 14.2499 7.75171H9.75085Z" fill="#48465C"/>
</svg>
