<svg width="24" height="24" viewBox="0 0 24 24" fill="none" xmlns="http://www.w3.org/2000/svg">
<path d="M9.12775 2.24463C11.0288 1.91874 12.9718 1.91874 14.8729 2.24463L15.2459 2.30811C17.3483 2.66861 18.798 4.61546 18.5408 6.73291L18.5233 6.87256C18.4622 7.37438 18.0367 7.75143 17.5311 7.75146H15.7674L18.7332 21.5942C18.82 21.9992 18.562 22.3981 18.157 22.4849C17.7521 22.5715 17.3532 22.3136 17.2664 21.9087L16.3221 17.5015H7.67755L6.73322 21.9087C6.64643 22.3137 6.24761 22.5717 5.84259 22.4849C5.43781 22.3979 5.17966 21.9991 5.26642 21.5942L8.23322 7.75146H6.46954C5.96395 7.75146 5.53742 7.37445 5.47638 6.87256L5.45978 6.73291C5.2026 4.61538 6.65225 2.66853 8.7547 2.30811L9.12775 2.24463ZM9.75079 7.75146C9.75073 7.80324 9.74449 7.85604 9.73322 7.90869L7.99884 16.0015H16.0008L14.2664 7.90869C14.2551 7.85609 14.2499 7.80319 14.2498 7.75146H9.75079Z" fill="#1C274C"/>
</svg>
