<svg width="24" height="24" viewBox="0 0 24 24" fill="none" xmlns="http://www.w3.org/2000/svg">
<path d="M12.0576 1.25C14.3657 1.24999 16.1745 1.24974 17.5859 1.43945C19.0306 1.63369 20.1706 2.03977 21.0654 2.93457C21.9602 3.82938 22.3662 4.96932 22.5605 6.41406C22.7502 7.82544 22.75 9.63432 22.75 11.9424V12.0576C22.75 14.3657 22.7502 16.1745 22.5605 17.5859C22.3662 19.0306 21.9602 20.1706 21.0654 21.0654C20.1706 21.9602 19.0306 22.3662 17.5859 22.5605C16.1745 22.7502 14.3657 22.75 12.0576 22.75H11.9424C9.63432 22.75 7.82544 22.7502 6.41406 22.5605C4.96932 22.3662 3.82938 21.9602 2.93457 21.0654C2.03977 20.1706 1.63369 19.0306 1.43945 17.5859C1.24974 16.1745 1.24999 14.3657 1.25 12.0576V11.9424C1.24999 9.63433 1.24974 7.82544 1.43945 6.41406C1.63369 4.96932 2.03976 3.82938 2.93457 2.93457C3.82938 2.03976 4.96932 1.63369 6.41406 1.43945C7.82544 1.24974 9.63433 1.24999 11.9424 1.25H12.0576ZM12 2.75C9.62178 2.75 7.91326 2.75198 6.61328 2.92676C5.33508 3.09865 4.56472 3.42551 3.99512 3.99512C3.42551 4.56472 3.09865 5.33508 2.92676 6.61328C2.75198 7.91326 2.75 9.62178 2.75 12C2.75 14.3782 2.75198 16.0867 2.92676 17.3867C3.09865 18.6649 3.42551 19.4352 3.99512 20.0049C4.56472 20.5745 5.33508 20.9014 6.61328 21.0732C7.91326 21.248 9.62178 21.25 12 21.25C14.3782 21.25 16.0867 21.248 17.3867 21.0732C18.6649 20.9014 19.4352 20.5745 20.0049 20.0049C20.5745 19.4352 20.9014 18.6649 21.0732 17.3867C21.248 16.0867 21.25 14.3782 21.25 12C21.25 9.62178 21.248 7.91326 21.0732 6.61328C20.9014 5.33508 20.5745 4.56472 20.0049 3.99512C19.4352 3.42551 18.6649 3.09865 17.3867 2.92676C16.0867 2.75198 14.3782 2.75 12 2.75ZM16.1748 7.25C16.5602 7.24989 16.8397 7.24949 17.085 7.28809C18.0576 7.44116 18.9641 8.06986 19.209 9.04395C19.2693 9.28432 19.269 9.55227 19.2686 9.83594V13.7832C19.269 14.0668 19.2693 14.3348 19.209 14.5752C19.1656 14.7476 19.1011 14.9096 19.0195 15.0596L19.4658 15.4121C19.7903 15.6692 19.8448 16.1411 19.5879 16.4658C19.3308 16.7903 18.8589 16.8448 18.5342 16.5879L17.8955 16.083C17.6403 16.203 17.3654 16.2869 17.085 16.3311C16.8397 16.3697 16.5602 16.3692 16.1748 16.3691H16.0469C15.662 16.3692 15.3828 16.3696 15.1377 16.3311C14.1651 16.178 13.2586 15.5493 13.0137 14.5752C12.9533 14.3348 12.9528 14.0669 12.9531 13.7832C12.9532 13.7604 12.9541 13.7369 12.9541 13.7139V9.90527C12.9541 9.88227 12.9532 9.85874 12.9531 9.83594C12.9528 9.55223 12.9533 9.28435 13.0137 9.04395C13.2586 8.06986 14.1651 7.44116 15.1377 7.28809C15.3828 7.24957 15.662 7.24989 16.0469 7.25H16.1748ZM10.8145 7.25C11.2286 7.25 11.5644 7.5858 11.5645 8V15.6191C11.5644 16.0333 11.2286 16.3691 10.8145 16.3691C10.4004 16.369 10.0645 16.0332 10.0645 15.6191V12.75H6.75V15.6191C6.74998 16.0333 6.4142 16.3691 6 16.3691C5.5858 16.3691 5.25002 16.0333 5.25 15.6191V8C5.25001 7.5858 5.5858 7.25 6 7.25C6.4142 7.25 6.74999 7.5858 6.75 8V11.25H10.0645V8C10.0645 7.58592 10.4004 7.25019 10.8145 7.25ZM16.1113 8.75C15.6352 8.75 15.4835 8.75266 15.3701 8.77051C14.8151 8.85799 14.5268 9.17438 14.4678 9.40918C14.4591 9.44377 14.4541 9.50649 14.4541 9.90527V13.7139C14.4541 14.1127 14.4591 14.1754 14.4678 14.21C14.5269 14.4447 14.8151 14.7612 15.3701 14.8486C15.4835 14.8665 15.6352 14.8691 16.1113 14.8691C16.2413 14.8691 16.3472 14.8688 16.4346 14.8682C16.2749 14.6076 16.2856 14.2643 16.4863 14.0107C16.7433 13.6862 17.2144 13.6311 17.5391 13.8877L17.7656 14.0674C17.7675 13.9958 17.7686 13.8857 17.7686 13.7139V9.90527C17.7686 9.50649 17.7626 9.44377 17.7539 9.40918C17.6948 9.17434 17.4067 8.85788 16.8516 8.77051C16.7382 8.75267 16.5872 8.75 16.1113 8.75Z" fill="#48465C"/>
</svg>
