<svg width="24" height="24" viewBox="0 0 24 24" fill="none" xmlns="http://www.w3.org/2000/svg">
<path d="M22 6.25C22.4141 6.25008 22.75 6.58584 22.75 7V12.5459C22.7499 12.96 22.4141 13.2958 22 13.2959C21.5858 13.2959 21.2501 12.9601 21.25 12.5459V8.80273L15.1143 14.9014C14.6453 15.3674 14.2411 15.7694 13.874 16.0479C13.4806 16.3463 13.0431 16.5723 12.5049 16.5723C11.9667 16.5722 11.5291 16.3465 11.1357 16.0479C10.7688 15.7693 10.3653 15.3667 9.89648 14.9004L9.62207 14.6279C9.10808 14.1168 8.77459 13.7878 8.49707 13.5771C8.23684 13.3796 8.11475 13.3573 8.03418 13.3574C7.95363 13.3575 7.83205 13.3797 7.57227 13.5771C7.29492 13.788 6.96181 14.1174 6.44824 14.6289L2.5293 18.5312C2.23585 18.8235 1.76105 18.8226 1.46875 18.5293C1.17649 18.2358 1.17726 17.761 1.4707 17.4688L5.42383 13.5312C5.8927 13.0643 6.297 12.6618 6.66406 12.3828C7.05756 12.0837 7.49559 11.8576 8.03418 11.8574C8.57248 11.8573 9.00976 12.0832 9.40332 12.3818C9.77056 12.6605 10.1753 13.0628 10.6445 13.5293L10.9189 13.8027C11.4325 14.3134 11.7657 14.6421 12.043 14.8525C12.3028 15.0497 12.4244 15.0722 12.5049 15.0723C12.5855 15.0723 12.7068 15.0496 12.9668 14.8525C13.2441 14.6421 13.5779 14.3134 14.0918 13.8027L20.1816 7.75H16.418C16.0038 7.75 15.668 7.41421 15.668 7C15.668 6.58579 16.0038 6.25 16.418 6.25H22Z" fill="#48465C"/>
</svg>
