<svg width="24" height="24" viewBox="0 0 24 24" fill="none" xmlns="http://www.w3.org/2000/svg">
<path d="M7 12.25C8.51879 12.25 9.75 13.4812 9.75 15C9.75 16.5188 8.51879 17.75 7 17.75C5.48122 17.75 4.25 16.5188 4.25 15C4.25 13.4812 5.48122 12.25 7 12.25ZM17 12.25C18.5188 12.25 19.75 13.4812 19.75 15C19.75 16.5188 18.5188 17.75 17 17.75C15.4812 17.75 14.25 16.5188 14.25 15C14.25 13.4812 15.4812 12.25 17 12.25ZM7 13.75C6.30965 13.75 5.75 14.3097 5.75 15C5.75 15.6904 6.30965 16.25 7 16.25C7.69036 16.25 8.25 15.6904 8.25 15C8.25 14.3097 7.69036 13.75 7 13.75ZM17 13.75C16.3097 13.75 15.75 14.3097 15.75 15C15.75 15.6904 16.3097 16.25 17 16.25C17.6904 16.25 18.25 15.6904 18.25 15C18.25 14.3097 17.6904 13.75 17 13.75ZM22.624 7.41602L21.8115 8.63477C20.9306 9.95619 19.4475 10.75 17.8594 10.75H6.14062C4.55249 10.75 3.06941 9.95617 2.18848 8.63477L1.37598 7.41602L2.62402 6.58398L3.43652 7.80273C4.03926 8.70684 5.05402 9.24996 6.14062 9.25H17.8594C18.9459 9.24997 19.9608 8.70686 20.5635 7.80273L21.376 6.58398L22.624 7.41602Z" fill="#48465C"/>
</svg>
