<svg width="24" height="24" viewBox="0 0 24 24" fill="none" xmlns="http://www.w3.org/2000/svg">
<path d="M6.55176 12.75C7.45024 12.75 8.20014 12.7501 8.79492 12.8301C9.42254 12.9145 9.98903 13.1003 10.4443 13.5557C10.8997 14.011 11.0855 14.5775 11.1699 15.2051C11.2499 15.7999 11.25 16.5497 11.25 17.4482V18.6357C11.25 19.2599 11.2501 19.7809 11.21 20.2041C11.1679 20.6463 11.0763 21.0585 10.8447 21.4365C10.6179 21.8065 10.3066 22.1179 9.93652 22.3447C9.55847 22.5763 9.14638 22.6679 8.7041 22.71C8.28097 22.7502 7.75999 22.75 7.13574 22.75H7.0625C6.11254 22.75 5.34625 22.75 4.72949 22.6914C4.0935 22.6309 3.53931 22.5026 3.04102 22.1973C2.53644 21.8881 2.11194 21.4636 1.80273 20.959C1.49745 20.4606 1.36906 19.9065 1.30859 19.2705C1.24996 18.6537 1.24999 17.8874 1.25 16.9375V16.8643C1.24999 16.24 1.2498 15.719 1.29004 15.2959C1.33209 14.8536 1.42368 14.4415 1.65527 14.0635C1.88202 13.6935 2.19345 13.3821 2.56348 13.1553C2.94154 12.9237 3.35362 12.8321 3.7959 12.79C4.21904 12.7498 4.74001 12.75 5.36426 12.75H6.55176ZM14.25 22C14.25 22.4142 13.9142 22.75 13.5 22.75C13.0858 22.75 12.75 22.4142 12.75 22V19H14.25V22ZM22.75 19.0254C22.75 19.4699 22.7503 19.8409 22.7295 20.1455C22.7079 20.4626 22.6613 20.7624 22.541 21.0527C22.2619 21.7264 21.7264 22.2619 21.0527 22.541C20.7624 22.6613 20.4626 22.7079 20.1455 22.7295C19.8409 22.7503 19.4698 22.75 19.0254 22.75H17V21.25H19C19.476 21.25 19.7955 21.2493 20.043 21.2324C20.2836 21.216 20.4013 21.1872 20.4785 21.1553C20.7847 21.0284 21.0284 20.7847 21.1553 20.4785C21.1872 20.4013 21.216 20.2836 21.2324 20.043C21.2493 19.7955 21.25 19.476 21.25 19H22.75V19.0254ZM5.40039 14.25C4.73118 14.25 4.28122 14.2505 3.9375 14.2832C3.60515 14.3148 3.44947 14.3716 3.34668 14.4346C3.17873 14.5376 3.03756 14.6787 2.93457 14.8467C2.87158 14.9495 2.81483 15.1052 2.7832 15.4375C2.75052 15.7813 2.75 16.2312 2.75 16.9004C2.75 17.8968 2.75066 18.5915 2.80176 19.1289C2.8518 19.655 2.94535 19.9528 3.08203 20.1758C3.26748 20.4783 3.52172 20.7326 3.82422 20.918C4.04726 21.0547 4.34489 21.1482 4.87109 21.1982C5.40847 21.2493 6.10327 21.25 7.09961 21.25C7.76882 21.25 8.21878 21.2495 8.5625 21.2168C8.89486 21.1852 9.05053 21.1284 9.15332 21.0654C9.32128 20.9624 9.46244 20.8213 9.56543 20.6533C9.62842 20.5505 9.68517 20.3948 9.7168 20.0625C9.74948 19.7187 9.75 19.2688 9.75 18.5996V17.5C9.75 16.536 9.74853 15.8883 9.68359 15.4053C9.62154 14.9439 9.51409 14.7465 9.38379 14.6162C9.25348 14.4859 9.05611 14.3785 8.59473 14.3164C8.11169 14.2515 7.46401 14.25 6.5 14.25H5.40039ZM17.75 16C18.4522 16 18.8034 16.0004 19.0557 16.1689C19.1647 16.2419 19.2581 16.3353 19.3311 16.4443C19.4996 16.6966 19.5 17.0478 19.5 17.75C19.5 18.4522 19.4996 18.8034 19.3311 19.0557C19.2581 19.1647 19.1647 19.2581 19.0557 19.3311C18.8034 19.4996 18.4522 19.5 17.75 19.5C17.0478 19.5 16.6966 19.4996 16.4443 19.3311C16.3353 19.2581 16.2419 19.1647 16.1689 19.0557C16.0004 18.8034 16 18.4522 16 17.75C16 17.0478 16.0004 16.6966 16.1689 16.4443C16.2419 16.3353 16.3353 16.2419 16.4443 16.1689C16.6966 16.0004 17.0478 16 17.75 16ZM6.25 16.5C6.76533 16.5 7.02312 16.4999 7.20508 16.6289C7.26929 16.6745 7.32554 16.7307 7.37109 16.7949C7.50013 16.9769 7.5 17.2347 7.5 17.75C7.5 18.2653 7.50013 18.5231 7.37109 18.7051C7.32554 18.7693 7.26929 18.8255 7.20508 18.8711C7.02312 19.0001 6.76533 19 6.25 19C5.73467 19 5.47688 19.0001 5.29492 18.8711C5.23072 18.8255 5.17447 18.7693 5.12891 18.7051C4.99987 18.5231 5 18.2653 5 17.75C5 17.2347 4.99987 16.9769 5.12891 16.7949C5.17447 16.7307 5.23072 16.6745 5.29492 16.6289C5.47688 16.4999 5.73467 16.5 6.25 16.5ZM19 14.25H17C16.2822 14.25 15.8 14.2507 15.4326 14.2881C15.0779 14.3242 14.9141 14.3884 14.8057 14.4609C14.6693 14.5521 14.5521 14.6693 14.4609 14.8057C14.3884 14.9141 14.3242 15.0779 14.2881 15.4326C14.2507 15.8 14.25 16.2822 14.25 17H12.75V16.9619C12.75 16.2924 12.7499 15.7335 12.7959 15.2813C12.8441 14.8078 12.9493 14.3686 13.2139 13.9727C13.4145 13.6724 13.6724 13.4145 13.9727 13.2139C14.3686 12.9493 14.8078 12.8441 15.2813 12.7959C15.7335 12.7499 16.2924 12.75 16.9619 12.75H19V14.25ZM22 12.75C22.4142 12.75 22.75 13.0858 22.75 13.5V17H21.25V13.5C21.25 13.0858 21.5858 12.75 22 12.75ZM7.13574 1.25C7.75999 1.24999 8.28098 1.24981 8.7041 1.29004C9.14637 1.33209 9.55848 1.42367 9.93652 1.65527C10.3066 1.88202 10.6179 2.19345 10.8447 2.56348C11.0763 2.94154 11.1679 3.35362 11.21 3.7959C11.2502 4.21903 11.25 4.74002 11.25 5.36426V6.55176C11.25 7.45022 11.2499 8.20015 11.1699 8.79492C11.0855 9.42254 10.8997 9.98903 10.4443 10.4443C9.98903 10.8997 9.42254 11.0855 8.79492 11.1699C8.20015 11.2499 7.45023 11.25 6.55176 11.25H5.36426C4.74005 11.25 4.21902 11.2502 3.7959 11.21C3.35362 11.1679 2.94154 11.0763 2.56348 10.8447C2.19345 10.6179 1.88202 10.3066 1.65527 9.93652C1.42367 9.55848 1.33209 9.14637 1.29004 8.7041C1.24981 8.28097 1.24999 7.75999 1.25 7.13574V7.0625C1.24999 6.11255 1.24997 5.34624 1.30859 4.72949C1.36907 4.0935 1.49744 3.53931 1.80273 3.04102C2.11194 2.53644 2.53644 2.11194 3.04102 1.80273C3.53931 1.49744 4.0935 1.36907 4.72949 1.30859C5.34625 1.24997 6.11255 1.24999 7.0625 1.25H7.13574ZM16.9375 1.25C17.8874 1.24999 18.6537 1.24996 19.2705 1.30859C19.9065 1.36906 20.4606 1.49745 20.959 1.80273C21.4636 2.11194 21.8881 2.53644 22.1973 3.04102C22.5026 3.53931 22.6309 4.0935 22.6914 4.72949C22.75 5.34625 22.75 6.11254 22.75 7.0625V7.13574C22.75 7.75999 22.7502 8.28097 22.71 8.7041C22.6679 9.14638 22.5763 9.55847 22.3447 9.93652C22.1179 10.3066 21.8065 10.6179 21.4365 10.8447C21.0585 11.0763 20.6463 11.1679 20.2041 11.21C19.7809 11.2502 19.2599 11.25 18.6357 11.25H17.4482C16.5497 11.25 15.7999 11.2499 15.2051 11.1699C14.5775 11.0855 14.011 10.8997 13.5557 10.4443C13.1003 9.98903 12.9145 9.42254 12.8301 8.79492C12.7501 8.20014 12.75 7.45024 12.75 6.55176V5.36426C12.75 4.74001 12.7498 4.21904 12.79 3.7959C12.8321 3.35362 12.9237 2.94154 13.1553 2.56348C13.3821 2.19345 13.6935 1.88202 14.0635 1.65527C14.4415 1.42368 14.8536 1.33209 15.2959 1.29004C15.719 1.2498 16.24 1.24999 16.8643 1.25H16.9375ZM7.09961 2.75C6.10327 2.75 5.40847 2.75066 4.87109 2.80176C4.34489 2.8518 4.04726 2.94535 3.82422 3.08203C3.52172 3.26748 3.26748 3.52172 3.08203 3.82422C2.94535 4.04726 2.8518 4.34489 2.80176 4.87109C2.75066 5.40847 2.75 6.10327 2.75 7.09961C2.75 7.76882 2.75052 8.21878 2.7832 8.5625C2.81483 8.89485 2.87158 9.05053 2.93457 9.15332C3.03756 9.32128 3.17872 9.46244 3.34668 9.56543C3.44947 9.62842 3.60515 9.68517 3.9375 9.7168C4.28122 9.74948 4.73118 9.75 5.40039 9.75H6.5C7.46401 9.75 8.11169 9.74853 8.59473 9.68359C9.05612 9.62154 9.25348 9.51409 9.38379 9.38379C9.51409 9.25348 9.62154 9.05612 9.68359 8.59473C9.74853 8.11169 9.75 7.46401 9.75 6.5V5.40039C9.75 4.73118 9.74948 4.28122 9.7168 3.9375C9.68517 3.60515 9.62842 3.44947 9.56543 3.34668C9.46244 3.17872 9.32128 3.03756 9.15332 2.93457C9.05053 2.87158 8.89485 2.81483 8.5625 2.7832C8.21878 2.75052 7.76882 2.75 7.09961 2.75ZM16.9004 2.75C16.2312 2.75 15.7813 2.75052 15.4375 2.7832C15.1052 2.81483 14.9495 2.87158 14.8467 2.93457C14.6787 3.03756 14.5376 3.17873 14.4346 3.34668C14.3716 3.44947 14.3148 3.60515 14.2832 3.9375C14.2505 4.28122 14.25 4.73118 14.25 5.40039V6.5C14.25 7.46401 14.2515 8.11169 14.3164 8.59473C14.3785 9.05611 14.4859 9.25348 14.6162 9.38379C14.7465 9.51409 14.9439 9.62154 15.4053 9.68359C15.8883 9.74853 16.536 9.75 17.5 9.75H18.5996C19.2688 9.75 19.7187 9.74948 20.0625 9.7168C20.3948 9.68517 20.5505 9.62842 20.6533 9.56543C20.8213 9.46244 20.9624 9.32128 21.0654 9.15332C21.1284 9.05053 21.1852 8.89486 21.2168 8.5625C21.2495 8.21878 21.25 7.76882 21.25 7.09961C21.25 6.10327 21.2493 5.40847 21.1982 4.87109C21.1482 4.34489 21.0547 4.04726 20.918 3.82422C20.7326 3.52172 20.4783 3.26748 20.1758 3.08203C19.9528 2.94535 19.655 2.8518 19.1289 2.80176C18.5915 2.75066 17.8968 2.75 16.9004 2.75ZM6.25 5C6.76532 5 7.02312 4.99986 7.20508 5.12891C7.26929 5.17447 7.32554 5.23072 7.37109 5.29492C7.50014 5.47688 7.5 5.73468 7.5 6.25C7.5 6.76532 7.50014 7.02312 7.37109 7.20508C7.32554 7.26929 7.26929 7.32554 7.20508 7.37109C7.02312 7.50014 6.76532 7.5 6.25 7.5C5.73468 7.5 5.47688 7.50014 5.29492 7.37109C5.23072 7.32554 5.17447 7.26929 5.12891 7.20508C4.99986 7.02312 5 6.76532 5 6.25C5 5.73468 4.99986 5.47688 5.12891 5.29492C5.17447 5.23072 5.23072 5.17447 5.29492 5.12891C5.47688 4.99986 5.73468 5 6.25 5ZM17.75 5C18.2653 5 18.5231 4.99987 18.7051 5.12891C18.7693 5.17447 18.8255 5.23072 18.8711 5.29492C19.0001 5.47688 19 5.73467 19 6.25C19 6.76533 19.0001 7.02312 18.8711 7.20508C18.8255 7.26929 18.7693 7.32554 18.7051 7.37109C18.5231 7.50013 18.2653 7.5 17.75 7.5C17.2347 7.5 16.9769 7.50013 16.7949 7.37109C16.7307 7.32554 16.6745 7.26929 16.6289 7.20508C16.4999 7.02312 16.5 6.76533 16.5 6.25C16.5 5.73467 16.4999 5.47688 16.6289 5.29492C16.6745 5.23072 16.7307 5.17447 16.7949 5.12891C16.9769 4.99987 17.2347 5 17.75 5Z" fill="#1C274C"/>
</svg>
