<svg width="24" height="24" viewBox="0 0 24 24" fill="none" xmlns="http://www.w3.org/2000/svg">
<path d="M12 1.25C17.9371 1.25 22.75 6.06294 22.75 12C22.75 17.9371 17.9371 22.75 12 22.75C6.06294 22.75 1.25 17.9371 1.25 12C1.25 6.06294 6.06294 1.25 12 1.25ZM19.0303 6.03027L6.03027 19.0303C6.02389 19.0366 6.01729 19.0428 6.01074 19.0488C7.62456 20.4214 9.71544 21.25 12 21.25C17.1086 21.25 21.25 17.1086 21.25 12C21.25 9.7155 20.4213 7.62454 19.0488 6.01074C19.0427 6.01729 19.0367 6.0239 19.0303 6.03027ZM12 2.75C6.89137 2.75 2.75 6.89137 2.75 12C2.75 14.2844 3.57787 16.3755 4.9502 17.9893L17.9893 4.9502C16.3755 3.57786 14.2844 2.75 12 2.75Z" fill="#1C274C"/>
</svg>
