<svg width="24" height="24" viewBox="0 0 24 24" fill="none" xmlns="http://www.w3.org/2000/svg">
<path d="M13.0566 3.25C14.8943 3.24998 16.3501 3.25016 17.4893 3.40332C18.6615 3.56095 19.6101 3.89332 20.3584 4.6416C21.2827 5.56599 21.5776 6.80371 21.6846 8.41016C22.2618 8.66418 22.6981 9.20135 22.7461 9.88184C22.7504 9.94202 22.75 10.0073 22.75 10.0674V13.9326C22.75 13.9927 22.7504 14.058 22.7461 14.1182C22.6981 14.7987 22.2618 15.3358 21.6846 15.5898C21.5776 17.1963 21.2827 18.434 20.3584 19.3584C19.6101 20.1066 18.6615 20.439 17.4893 20.5967C16.3501 20.7498 14.8943 20.75 13.0566 20.75H9.94336C8.10571 20.75 6.6499 20.7498 5.51074 20.5967C4.33844 20.439 3.38992 20.1066 2.6416 19.3584C1.89332 18.6101 1.56095 17.6615 1.40332 16.4893C1.25016 15.3501 1.24998 13.8943 1.25 12.0566V11.9434C1.24998 10.1057 1.25016 8.6499 1.40332 7.51074C1.56095 6.33844 1.8933 5.38992 2.6416 4.6416C3.38992 3.8933 4.33844 3.56095 5.51074 3.40332C6.64991 3.25016 8.1057 3.24998 9.94336 3.25H13.0566ZM10 4.75C8.09324 4.75 6.73858 4.75149 5.71094 4.88965C4.70485 5.02491 4.12536 5.27894 3.70215 5.70215C3.27894 6.12536 3.02491 6.70485 2.88965 7.71094C2.75149 8.73858 2.75 10.0933 2.75 12C2.75 13.9067 2.7515 15.2614 2.88965 16.2891C3.02491 17.2951 3.27894 17.8747 3.70215 18.2979C4.12536 18.7211 4.70485 18.9752 5.71094 19.1104C6.73858 19.2485 8.09325 19.25 10 19.25H13C14.9067 19.25 16.2614 19.2485 17.2891 19.1104C18.2951 18.9752 18.8747 18.7211 19.2979 18.2979C19.7964 17.7994 20.0542 17.0915 20.168 15.75H18.2305C16.0854 15.7498 14.25 14.1223 14.25 12C14.25 9.87767 16.0854 8.25017 18.2305 8.25H20.168C20.0542 6.90855 19.7964 6.20068 19.2979 5.70215C18.8747 5.27894 18.2951 5.02491 17.2891 4.88965C16.2614 4.7515 14.9067 4.75 13 4.75H10ZM18.2305 9.75C16.8072 9.75016 15.75 10.8088 15.75 12C15.75 13.1912 16.8072 14.2498 18.2305 14.25H20.9238C20.9356 14.2498 20.9421 14.2492 20.9453 14.249H20.9482C21.1542 14.2364 21.2422 14.0973 21.249 14.0137C21.2491 14.0125 21.2499 14.0068 21.25 13.999V10.001C21.2499 9.99316 21.2491 9.9875 21.249 9.98633C21.2422 9.90271 21.1542 9.76365 20.9482 9.75098C20.9482 9.75098 20.9431 9.7502 20.9238 9.75H18.2305ZM18 11C18.5523 11 19 11.4477 19 12C19 12.5523 18.5523 13 18 13C17.4477 13 17 12.5523 17 12C17 11.4477 17.4477 11 18 11ZM10 7.25C10.4142 7.25 10.75 7.58579 10.75 8C10.75 8.41421 10.4142 8.75 10 8.75H6C5.58579 8.75 5.25 8.41421 5.25 8C5.25 7.58579 5.58579 7.25 6 7.25H10Z" fill="#48465C"/>
</svg>
