<svg width="24" height="24" viewBox="0 0 24 24" fill="none" xmlns="http://www.w3.org/2000/svg">
<path d="M6 14C7.88561 14 8.82828 14.0001 9.41406 14.5859C9.99985 15.1717 10 16.1144 10 18C10 19.8856 9.99985 20.8283 9.41406 21.4141C8.82828 21.9999 7.88561 22 6 22C4.11439 22 3.17172 21.9999 2.58594 21.4141C2.00015 20.8283 2 19.8856 2 18C2 16.1144 2.00015 15.1717 2.58594 14.5859C3.17172 14.0001 4.11439 14 6 14ZM12 2C16.714 2 19.0708 2.00037 20.5352 3.46484C21.9996 4.9293 22 7.28597 22 12C22 16.714 21.9997 19.0708 20.5352 20.5352C19.0708 21.9997 16.714 22 12 22C11.6044 22 11.2256 21.9999 10.8623 21.999C11.1954 21.491 11.3409 20.9312 11.4131 20.3945C11.4999 19.749 11.5001 18.9554 11.5 18.0898V17.9102C11.5001 17.0447 11.4999 16.251 11.4131 15.6055C11.3175 14.8945 11.0926 14.1434 10.4746 13.5254C9.85659 12.9074 9.10545 12.6825 8.39453 12.5869C7.74899 12.5001 6.95534 12.4999 6.08984 12.5H5.91016C5.04466 12.4999 4.251 12.5001 3.60547 12.5869C3.06878 12.6591 2.50898 12.8047 2.00098 13.1377C2.00011 12.7745 2 12.3956 2 12C2 7.28595 2.00037 4.9293 3.46484 3.46484C4.9293 2.00037 7.28595 2 12 2ZM13.25 6.25C12.8358 6.25 12.5 6.58579 12.5 7C12.5 7.41421 12.8358 7.75 13.25 7.75H15.1895L11.4697 11.4697C11.1768 11.7626 11.1768 12.2374 11.4697 12.5303C11.7626 12.8232 12.2374 12.8232 12.5303 12.5303L16.25 8.81055V10.75C16.25 11.1642 16.5858 11.5 17 11.5C17.4142 11.5 17.75 11.1642 17.75 10.75V7C17.75 6.58579 17.4142 6.25 17 6.25H13.25Z" fill="#1C274C"/>
</svg>
