<svg width="24" height="24" viewBox="0 0 24 24" fill="none" xmlns="http://www.w3.org/2000/svg">
<path d="M12 1.25C17.9371 1.25 22.75 6.06294 22.75 12C22.75 17.9371 17.9371 22.75 12 22.75C6.06294 22.75 1.25 17.9371 1.25 12C1.25 6.06294 6.06294 1.25 12 1.25ZM3.16602 14.752C4.33756 18.5167 7.8497 21.25 12 21.25C15.4763 21.25 18.5046 19.3322 20.085 16.4971C18.6479 17.1635 16.7481 17.7499 14.5098 17.75C12.6966 17.75 11.3069 17.2649 10.1924 16.7305C9.7621 16.5242 9.3636 16.3059 9.0127 16.1133C8.91844 16.0616 8.82738 16.0121 8.74023 15.9648C8.31084 15.732 7.97584 15.5655 7.67773 15.4717C6.33135 15.048 5.16063 14.8694 4.33105 14.7969C3.91656 14.7607 3.58811 14.7508 3.36719 14.75C3.28487 14.7496 3.2173 14.7508 3.16602 14.752ZM20.6631 8.75C20.4637 8.75088 20.1662 8.76013 19.79 8.7959C19.0364 8.86761 17.9699 9.0443 16.7432 9.46484C16.48 9.55506 16.18 9.71793 15.7852 9.95117C15.7058 9.99804 15.6224 10.047 15.5361 10.0986C15.214 10.2912 14.8464 10.5121 14.4492 10.7197C13.4193 11.2579 12.1265 11.7499 10.4375 11.75C8.01939 11.75 6.03054 10.9461 4.65625 10.1533C4.04766 9.80223 3.55472 9.45078 3.19238 9.16602C2.90523 10.0591 2.75 11.0114 2.75 12C2.75 12.4326 2.77943 12.8584 2.83691 13.2754C2.87374 13.2672 2.91237 13.2624 2.95117 13.2598L2.95312 13.2588H2.96289L2.9873 13.2568C3.00743 13.2558 3.03576 13.2551 3.07129 13.2539C3.14252 13.2516 3.24399 13.2495 3.37305 13.25C3.63175 13.251 4.00239 13.2626 4.46191 13.3027C5.3802 13.383 6.66052 13.5784 8.12793 14.04C8.57843 14.1818 9.027 14.4134 9.45508 14.6455C9.55465 14.6994 9.65434 14.7539 9.75391 14.8086C10.1003 14.9986 10.4514 15.1912 10.8408 15.3779C11.8207 15.8478 12.9858 16.25 14.5098 16.25C17.3333 16.2499 19.5639 15.1908 20.8701 14.3662C20.8985 14.3483 20.9274 14.332 20.957 14.3184C21.1482 13.5775 21.25 12.8006 21.25 12C21.25 10.8563 21.0425 9.7611 20.6631 8.75ZM12 2.75C8.43509 2.75 5.34118 4.76695 3.79688 7.72168C3.85569 7.7725 3.92438 7.82963 4.00195 7.89258C4.32242 8.15266 4.79791 8.50356 5.40625 8.85449C6.62553 9.55776 8.35579 10.25 10.4375 10.25C11.811 10.2499 12.8628 9.85575 13.7549 9.38965C14.1098 9.20418 14.4296 9.013 14.7471 8.82324C14.8387 8.76849 14.9304 8.71355 15.0225 8.65918C15.4147 8.42754 15.833 8.1912 16.2568 8.0459C17.6129 7.58104 18.797 7.38367 19.6475 7.30273C19.7555 7.29246 19.8581 7.28418 19.9551 7.27734C18.3423 4.56648 15.3833 2.75 12 2.75Z" fill="#1C274C"/>
</svg>
