<svg width="24" height="24" viewBox="0 0 24 24" fill="none" xmlns="http://www.w3.org/2000/svg">
<path d="M8.22266 3.28418C8.61782 3.16007 9.03894 3.38025 9.16309 3.77539C9.28721 4.17057 9.06705 4.5917 8.67188 4.71582C5.23887 5.79426 2.75014 9.002 2.75 12.7891C2.75 17.4619 6.53819 21.25 11.2109 21.25C14.9982 21.2499 18.2057 18.7612 19.2842 15.3281C19.4083 14.933 19.8295 14.7129 20.2246 14.8369C20.6198 14.961 20.8399 15.3822 20.7158 15.7773C19.4468 19.8178 15.6722 22.7499 11.2109 22.75C5.70976 22.75 1.25 18.2903 1.25 12.7891C1.25014 8.32794 4.18224 4.55322 8.22266 3.28418ZM11 4.76074C11 3.05431 12.4091 1.62811 14.0527 2.08691C17.8556 3.14847 20.8515 6.14439 21.9131 9.94727C22.3719 11.5909 20.9457 13 19.2393 13H12.5449C11.6917 13 11 12.3083 11 11.4551V4.76074Z" fill="#1C274C"/>
</svg>
