<svg width="24" height="24" viewBox="0 0 24 24" fill="none" xmlns="http://www.w3.org/2000/svg">
<path d="M7.61731 3.82996C8.98884 3.21574 9.67473 2.90817 10.587 3.4989C11.4995 4.0901 11.5001 5.06036 11.5001 6.99988V8.49988C11.5001 10.3855 11.5003 11.3281 12.0861 11.9139C12.6719 12.4997 13.6146 12.4999 15.5001 12.4999H17.0001C18.9396 12.4999 19.9089 12.5005 20.5001 13.413C21.0912 14.3255 20.7844 15.0109 20.17 16.3827C19.9534 16.8664 19.6956 17.3337 19.3986 17.7782C18.3547 19.3402 16.8715 20.5582 15.1359 21.2772C13.4 21.9962 11.4895 22.1838 9.64661 21.8173C7.80382 21.4507 6.11094 20.5462 4.78235 19.2177C3.45376 17.8891 2.54931 16.1962 2.18274 14.3534C1.81618 12.5105 2.00375 10.6 2.72278 8.86414C3.44177 7.12845 4.65976 5.64526 6.2218 4.60144C6.66636 4.30439 7.13365 4.04656 7.61731 3.82996ZM14.0001 4.99988C14.0002 3.34317 15.3894 1.94658 16.9308 2.55359C18.9915 3.3654 20.6346 5.00851 21.4464 7.06921C22.0533 8.61056 20.6568 9.99978 19.0001 9.99988H15.0001C14.4478 9.99988 14.0001 9.55216 14.0001 8.99988V4.99988Z" fill="#48465C"/>
</svg>
