<svg width="24" height="24" viewBox="0 0 24 24" fill="none" xmlns="http://www.w3.org/2000/svg">
<path d="M20.9941 13.8682C20.964 16.9825 20.7816 19.8504 19.6816 20.8281C18.3636 21.9996 16.2425 22 12 22C7.75754 22 5.63638 21.9995 4.31836 20.8281C3.21839 19.8504 3.03596 16.9825 3.00586 13.8682L8.01074 15.3691C8.08701 16.1017 8.56258 16.7408 9.25684 17.0186L9.95703 17.2988C11.2683 17.8233 12.7318 17.8233 14.043 17.2988L14.7432 17.0186C15.4374 16.7408 15.913 16.1017 15.9893 15.3691L20.9941 13.8682ZM14 12.5C14.2761 12.5 14.5 12.7239 14.5 13V15.1611C14.5 15.3655 14.3753 15.5501 14.1855 15.626L13.4854 15.9062C12.5319 16.2875 11.4681 16.2875 10.5146 15.9062L9.81445 15.626C9.62463 15.5501 9.5 15.3655 9.5 15.1611V13C9.5 12.7239 9.72386 12.5 10 12.5H14ZM16.3906 5C18.8407 5 20.0665 4.99987 20.8936 5.67285C21.0525 5.80219 21.1979 5.94749 21.3271 6.10645C22.0001 6.93356 22 8.15925 22 10.6094C22 11.2308 22.0003 11.5417 21.8496 11.7842C21.8203 11.8314 21.7868 11.8763 21.75 11.918C21.5611 12.1319 21.2631 12.2209 20.668 12.3994L16 13.7998V13C16 11.8954 15.1046 11 14 11H10C8.89543 11 8 11.8954 8 13V13.7998L3.33203 12.3994C2.73691 12.2209 2.4389 12.1319 2.25 11.918C2.2132 11.8763 2.17976 11.8314 2.15039 11.7842C1.99968 11.5417 2 11.2308 2 10.6094C2 8.15925 1.99987 6.93356 2.67285 6.10645C2.80219 5.9475 2.9475 5.80219 3.10645 5.67285C3.93356 4.99987 5.15921 5 7.60938 5H16.3906ZM12 1.25C13.6338 1.25 15.0217 2.29463 15.5361 3.75C15.6742 4.14053 15.4697 4.56899 15.0791 4.70703C14.6887 4.8449 14.26 4.64046 14.1221 4.25C13.8128 3.37512 12.9785 2.75 12 2.75C11.0216 2.75009 10.1872 3.37516 9.87793 4.25C9.73985 4.64048 9.31141 4.84506 8.9209 4.70703C8.53043 4.56896 8.32584 4.1405 8.46387 3.75C8.97831 2.29463 10.3661 1.25009 12 1.25Z" fill="#1C274C"/>
</svg>
