<svg width="24" height="24" viewBox="0 0 24 24" fill="none" xmlns="http://www.w3.org/2000/svg">
<path d="M13.5051 4C13.7813 4 14.0052 4.22345 14.006 4.49902L14.0139 7C14.0139 7.55216 14.4623 7.9998 15.0158 8C15.5694 8 16.0187 7.55228 16.0187 7V4.5166C16.0187 4.23769 16.248 4.01149 16.5275 4.01855C18.6949 4.07445 19.9731 4.29634 20.8508 5.17188C21.6592 5.97849 21.911 7.12357 21.9894 8.98926C22.005 9.35933 22.0126 9.54452 21.9435 9.66797C21.8744 9.7914 21.5988 9.94577 21.0471 10.2539C20.4343 10.5961 20.0197 11.2497 20.0197 12C20.0197 12.7503 20.4343 13.4039 21.0471 13.7461C21.5988 14.0542 21.8744 14.2085 21.9435 14.332C22.0126 14.4554 22.005 14.6407 21.9894 15.0107C21.911 16.8764 21.6592 18.0216 20.8508 18.8281C20.0441 19.6329 18.8991 19.8851 17.0363 19.9639C16.5639 19.9839 16.3274 19.9943 16.173 19.8467C16.0186 19.6991 16.0187 19.458 16.0187 18.9766V17C16.0187 16.4477 15.5694 16 15.0158 16C14.4623 16.0002 14.0139 16.4478 14.0139 17L14.008 19.0029C14.0066 19.4731 14.0062 19.7085 13.8596 19.8545C13.7129 20.0004 13.4764 20 13.0051 20H9.9953C6.21466 20 4.32409 19.9997 3.1496 18.8281C2.34106 18.0216 2.08938 16.8766 2.01093 15.0107C1.99537 14.641 1.98688 14.4554 2.05585 14.332C2.12496 14.2085 2.40156 14.0543 2.95331 13.7461C3.56593 13.4039 3.97968 12.7502 3.97968 12C3.97968 11.2498 3.56593 10.5961 2.95331 10.2539C2.40156 9.94575 2.12496 9.79142 2.05585 9.66797C1.98689 9.54453 1.99538 9.35909 2.01093 8.98926C2.08938 7.12341 2.34106 5.9785 3.1496 5.17188C4.32409 4.00031 6.21467 4 9.9953 4H13.5051ZM15.0158 10C14.4623 10.0002 14.0139 10.4478 14.0139 11V13C14.0139 13.5522 14.4623 13.9998 15.0158 14C15.5694 14 16.0187 13.5523 16.0187 13V11C16.0187 10.4477 15.5694 10 15.0158 10Z" fill="#1C274C"/>
</svg>
