<svg width="24" height="24" viewBox="0 0 24 24" fill="none" xmlns="http://www.w3.org/2000/svg">
<path d="M17.5 13.8291C19.0749 12.2784 21 13.0283 21 15.0361C21 16.2709 19.5149 17.5789 18.4795 18.3408C18.0453 18.6602 17.8283 18.8203 17.5 18.8203C17.1717 18.8203 16.9547 18.6602 16.5205 18.3408C15.4851 17.5789 14 16.2709 14 15.0361C14 13.0283 15.9251 12.2784 17.5 13.8291ZM10 17.25C10.4142 17.25 10.75 17.5858 10.75 18C10.75 18.4142 10.4142 18.75 10 18.75H3C2.58579 18.75 2.25 18.4142 2.25 18C2.25 17.5858 2.58579 17.25 3 17.25H10ZM10 13.25C10.4142 13.25 10.75 13.5858 10.75 14C10.75 14.4142 10.4142 14.75 10 14.75H3C2.58579 14.75 2.25 14.4142 2.25 14C2.25 13.5858 2.58579 13.25 3 13.25H10ZM21 9.25C21.4142 9.25 21.75 9.58579 21.75 10C21.75 10.4142 21.4142 10.75 21 10.75H3C2.58579 10.75 2.25 10.4142 2.25 10C2.25 9.58579 2.58579 9.25 3 9.25H21ZM21 5.25C21.4142 5.25 21.75 5.58579 21.75 6C21.75 6.41421 21.4142 6.75 21 6.75H3C2.58579 6.75 2.25 6.41421 2.25 6C2.25 5.58579 2.58579 5.25 3 5.25H21Z" fill="#1C274C"/>
</svg>
