<svg width="24" height="24" viewBox="0 0 24 24" fill="none" xmlns="http://www.w3.org/2000/svg">
<path d="M12.0576 1.25C14.3657 1.24999 16.1745 1.24974 17.5859 1.43945C19.0306 1.63369 20.1706 2.03977 21.0654 2.93457C21.9602 3.82938 22.3662 4.96932 22.5605 6.41406C22.7502 7.82544 22.75 9.63432 22.75 11.9424V12.0576C22.75 14.3657 22.7502 16.1745 22.5605 17.5859C22.3662 19.0306 21.9602 20.1706 21.0654 21.0654C20.1706 21.9602 19.0306 22.3662 17.5859 22.5605C16.1745 22.7502 14.3657 22.75 12.0576 22.75H11.9424C9.63432 22.75 7.82544 22.7502 6.41406 22.5605C4.96932 22.3662 3.82938 21.9602 2.93457 21.0654C2.03977 20.1706 1.63369 19.0306 1.43945 17.5859C1.24974 16.1745 1.24999 14.3657 1.25 12.0576V11.9424C1.24999 9.63432 1.24974 7.82544 1.43945 6.41406C1.63369 4.96932 2.03976 3.82938 2.93457 2.93457C3.82938 2.03976 4.96932 1.63369 6.41406 1.43945C7.82544 1.24974 9.63434 1.24999 11.9424 1.25H12.0576ZM2.75 12.75C2.7521 14.7437 2.77093 16.2276 2.92676 17.3867C3.09865 18.6649 3.42551 19.4352 3.99512 20.0049C4.56472 20.5745 5.33508 20.9014 6.61328 21.0732C7.77236 21.2291 9.25629 21.2479 11.25 21.25V14.124C10.4703 15.6811 8.8599 16.75 7 16.75C6.58579 16.75 6.25 16.4142 6.25 16C6.25 15.5858 6.58579 15.25 7 15.25C8.53679 15.25 9.82454 14.1834 10.1631 12.75H2.75ZM13.8369 12.75C14.1755 14.1834 15.4632 15.25 17 15.25C17.4142 15.25 17.75 15.5858 17.75 16C17.75 16.4142 17.4142 16.75 17 16.75C15.1401 16.75 13.5297 15.6811 12.75 14.124V21.25C14.7437 21.2479 16.2276 21.2291 17.3867 21.0732C18.6649 20.9014 19.4352 20.5745 20.0049 20.0049C20.5745 19.4352 20.9014 18.6649 21.0732 17.3867C21.2291 16.2276 21.2479 14.7437 21.25 12.75H13.8369ZM11.25 2.75C9.25629 2.7521 7.77236 2.77093 6.61328 2.92676C5.33508 3.09865 4.56472 3.42551 3.99512 3.99512C3.42551 4.56472 3.09865 5.33508 2.92676 6.61328C2.77093 7.77236 2.7521 9.25629 2.75 11.25H6.91406C6.5631 10.8116 6.30022 10.2946 6.15723 9.72266C5.61897 7.56964 7.56964 5.61897 9.72266 6.15723C10.2946 6.30022 10.8116 6.5631 11.25 6.91406V2.75ZM9.3584 7.6123C8.30426 7.34908 7.34908 8.30426 7.6123 9.3584C7.88956 10.4674 8.88486 11.2465 10.0273 11.25H11.25V10.0273C11.2465 8.88485 10.4674 7.88956 9.3584 7.6123ZM16.3867 9.3584C16.6502 8.30416 15.6958 7.34905 14.6416 7.6123C13.532 7.8897 12.7527 8.88609 12.75 10.0293V11.25H13.9727C15.1152 11.2465 16.1095 10.4674 16.3867 9.3584ZM12.75 6.91406C13.1884 6.56311 13.7054 6.30022 14.2773 6.15723C16.4303 5.61897 18.381 7.56964 17.8428 9.72266C17.6998 10.2946 17.4368 10.8116 17.0859 11.25H21.25C21.2479 9.25629 21.2291 7.77236 21.0732 6.61328C20.9014 5.33508 20.5745 4.56472 20.0049 3.99512C19.4352 3.42551 18.6649 3.09865 17.3867 2.92676C16.2276 2.77093 14.7437 2.7521 12.75 2.75V6.91406Z" fill="#1C274C"/>
</svg>
