<svg width="24" height="24" viewBox="0 0 24 24" fill="none" xmlns="http://www.w3.org/2000/svg">
<path d="M16.7432 1.43652C17.4694 1.29658 18.2209 1.36296 18.9111 1.62891L18.9902 1.66016C19.4023 1.81887 19.853 1.84845 20.2822 1.74512C21.0301 1.56501 21.7497 2.13132 21.75 2.90039V5.12207C21.75 5.70547 21.3503 6.21282 20.7832 6.34961L20.7158 6.36621C19.9368 6.55374 19.1187 6.50005 18.3711 6.21191C17.9432 6.04707 17.4776 6.00504 17.0273 6.0918L16.75 6.14551V6.24902H17.5C20.3993 6.24902 22.7497 8.5997 22.75 11.499V16.793C22.7498 18.4258 21.4258 19.749 19.793 19.749H15.25V21.999C15.25 22.4132 14.9142 22.749 14.5 22.749C14.0858 22.749 13.75 22.4132 13.75 21.999V19.749H11.25V21.999C11.25 22.4132 10.9142 22.749 10.5 22.749C10.0858 22.749 9.75 22.4132 9.75 21.999V19.749H4.23242C2.58527 19.7489 1.25 18.4138 1.25 16.7666V11.499C1.25026 8.5997 3.60066 6.24902 6.5 6.24902C6.62211 6.24902 6.74325 6.25351 6.86328 6.26172C6.90753 6.25358 6.95339 6.24902 7 6.24902H15.25V2.75C15.2502 2.15451 15.673 1.64295 16.2578 1.53027L16.7432 1.43652ZM6.5 7.74902C4.42909 7.74902 2.75026 9.42813 2.75 11.499V16.7666C2.75 17.5854 3.41369 18.2489 4.23242 18.249H10.25V11.499C10.2497 9.42813 8.57091 7.74902 6.5 7.74902ZM10.1738 7.74902C11.1461 8.70181 11.7499 10.0301 11.75 11.499V18.249H19.793C20.5974 18.249 21.2498 17.5974 21.25 16.793V11.499C21.2497 9.42813 19.5709 7.74902 17.5 7.74902H16.75V10.999C16.75 11.4132 16.4142 11.749 16 11.749C15.5858 11.749 15.25 11.4132 15.25 10.999V7.74902H10.1738ZM8 15.249C8.41405 15.249 8.74974 15.5849 8.75 15.999C8.75 16.4132 8.41421 16.749 8 16.749H5C4.58579 16.749 4.25 16.4132 4.25 15.999C4.25026 15.5849 4.58595 15.249 5 15.249H8ZM18.3711 3.0293C17.9432 2.86444 17.4777 2.82242 17.0273 2.90918L16.75 2.96289V4.61816C17.4742 4.47985 18.223 4.54732 18.9111 4.8125C19.3381 4.97698 19.802 5.01799 20.25 4.93262V3.27441C19.6437 3.35377 19.0246 3.28092 18.4502 3.05957L18.3711 3.0293Z" fill="#1C274C"/>
</svg>
