<svg width="24" height="24" viewBox="0 0 24 24" fill="none" xmlns="http://www.w3.org/2000/svg">
<path d="M14.7568 2.62183C16.5854 0.793227 19.5503 0.793227 21.3789 2.62183C23.2071 4.45035 23.2071 7.4144 21.3789 9.24292L11.8936 18.7283C11.3519 19.27 11.0325 19.5892 10.6777 19.866C10.2596 20.1921 9.80694 20.4727 9.32812 20.7009C8.92188 20.8945 8.49352 21.0368 7.7666 21.2791L3.63281 22.657C2.98232 22.8737 2.26511 22.7043 1.78027 22.2195C1.29551 21.7346 1.12598 21.0174 1.34277 20.3669L2.7207 16.2341C2.96304 15.5071 3.10618 15.0789 3.2998 14.6726C3.528 14.1938 3.80759 13.7412 4.13379 13.323C4.4106 12.9681 4.7295 12.6482 5.27148 12.1062L14.7568 2.62183ZM19.9551 11.9734C20.1539 11.9735 20.3447 12.0526 20.4854 12.1931L20.5225 12.2292C21.1727 12.8795 21.7135 13.421 22.085 13.908C22.4768 14.4216 22.75 14.9625 22.75 15.616C22.7499 16.2694 22.4766 16.8096 22.085 17.323C21.7135 17.81 21.1726 18.3514 20.5225 19.0017L19.002 20.5222C18.3517 21.1725 17.8102 21.7131 17.3232 22.0847C16.8098 22.4764 16.2695 22.7497 15.6162 22.7498C14.9626 22.7498 14.4217 22.4765 13.9082 22.0847C13.4211 21.7131 12.8798 21.1724 12.2295 20.5222L12.1934 20.4851C11.9005 20.1922 11.9005 19.7175 12.1934 19.4246C12.4863 19.1317 12.961 19.1317 13.2539 19.4246C13.9505 20.1212 14.421 20.5892 14.8184 20.8923C15.1984 21.1822 15.4225 21.2498 15.6162 21.2498C15.8098 21.2497 16.0342 21.1822 16.4141 20.8923C16.8114 20.5891 17.2819 20.1212 17.9785 19.4246L19.4248 17.9783C20.1215 17.2816 20.5894 16.8112 20.8926 16.4138C21.1824 16.0339 21.2499 15.8096 21.25 15.616C21.25 15.4223 21.1825 15.1981 20.8926 14.8181C20.6736 14.5311 20.3682 14.2059 19.9531 13.7849L18.0742 15.6638C17.7813 15.9566 17.3065 15.9567 17.0137 15.6638C16.721 15.3709 16.7209 14.8961 17.0137 14.6033L19.4248 12.1931C19.5655 12.0525 19.7561 11.9734 19.9551 11.9734ZM6.36914 13.1306C5.77978 13.72 5.52964 13.9715 5.31641 14.2449C5.05715 14.5773 4.83467 14.9375 4.65332 15.3181C4.50424 15.631 4.39047 15.967 4.12695 16.7576L3.17969 19.5994L4.40039 20.8201L7.24219 19.8728C8.03325 19.6091 8.36957 19.4956 8.68262 19.3464C9.06308 19.1652 9.42254 18.9426 9.75488 18.6833C10.0283 18.4701 10.2805 18.2203 10.8701 17.6306L18.4395 10.0613C17.6508 9.78309 16.6347 9.26728 15.6836 8.31616C14.7326 7.36508 14.2166 6.3489 13.9385 5.5603L6.36914 13.1306ZM8.38477 1.24976C9.03802 1.24987 9.57844 1.52317 10.0918 1.91479C10.5788 2.28637 11.1202 2.82791 11.7705 3.47827L11.8076 3.51538C11.9481 3.656 12.0273 3.84692 12.0273 4.04565C12.0273 4.24443 11.9482 4.43536 11.8076 4.57593L9.39648 6.98608C9.10358 7.27886 8.62879 7.27894 8.33594 6.98608C8.04321 6.69322 8.04321 6.21841 8.33594 5.92554L10.2148 4.04663C9.79395 3.63165 9.46862 3.32614 9.18164 3.10718C8.8021 2.81768 8.57828 2.74985 8.38477 2.74976C8.19114 2.74976 7.96678 2.81742 7.58691 3.10718C7.18952 3.41037 6.71922 3.87917 6.02246 4.57593L4.57617 6.02222C3.87939 6.719 3.41062 7.18927 3.10742 7.58667C2.81759 7.9666 2.75 8.19087 2.75 8.38452C2.75007 8.57814 2.81759 8.8025 3.10742 9.18237C3.41062 9.57973 3.87947 10.0501 4.57617 10.7468C4.86867 11.0397 4.86887 11.5146 4.57617 11.8074C4.28328 12.1003 3.80755 12.1003 3.51465 11.8074L3.47852 11.7703C2.82816 11.12 2.28662 10.5786 1.91504 10.0916C1.52341 9.57816 1.25009 9.0378 1.25 8.38452C1.25 7.73099 1.52324 7.19003 1.91504 6.67651C2.28662 6.18949 2.82816 5.64812 3.47852 4.9978L3.51465 4.96167L4.96191 3.51538C4.97415 3.50314 4.98588 3.49044 4.99805 3.47827C5.64837 2.8279 6.18974 2.28637 6.67676 1.91479C7.19024 1.52304 7.73128 1.24976 8.38477 1.24976ZM20.3184 3.68237C19.0756 2.43956 17.0602 2.43956 15.8174 3.68237L15.1553 4.34351C15.1895 4.51847 15.2473 4.75688 15.3438 5.03491C15.5609 5.66082 15.9713 6.48271 16.7441 7.25562C17.5169 8.02843 18.339 8.4388 18.9648 8.65601C19.2429 8.75247 19.4813 8.81028 19.6562 8.84448L20.3184 8.18237C21.5607 6.93965 21.5607 4.9251 20.3184 3.68237Z" fill="#48465C"/>
</svg>
