<svg width="24" height="24" viewBox="0 0 24 24" fill="none" xmlns="http://www.w3.org/2000/svg">
<path d="M11.5 2C15.6421 2 19 5.43633 19 9.6748C18.9999 11.947 18.0335 13.9894 16.501 15.3936C15.9903 15.8614 15.6119 16.2084 15.3438 16.46C15.2098 16.5856 15.1069 16.6834 15.0312 16.7588C14.9936 16.7964 14.9649 16.8266 14.9434 16.8496C14.9328 16.8609 14.9247 16.8703 14.9189 16.877C14.9132 16.8835 14.9111 16.8867 14.9111 16.8867C14.6747 17.1853 14.6233 17.2622 14.5928 17.332C14.5623 17.4018 14.5402 17.4926 14.4805 17.8721C14.457 18.022 14.4541 18.2787 14.4541 18.9766V19.0068C14.4542 19.4159 14.4544 19.769 14.4287 20.0586C14.4016 20.3646 14.3418 20.6675 14.1807 20.9531C14.0012 21.2713 13.7426 21.536 13.4316 21.7197C13.1524 21.8846 12.8558 21.9458 12.5566 21.9736C12.2737 21.9998 11.9289 22 11.5293 22H11.4707C11.0711 22 10.7263 21.9998 10.4434 21.9736C10.1442 21.9458 9.84759 21.8846 9.56836 21.7197C9.25741 21.536 8.99887 21.2713 8.81934 20.9531C8.6583 20.6675 8.59842 20.3646 8.57129 20.0586C8.54565 19.769 8.54589 19.4159 8.5459 19.0068V18.9766C8.5459 18.2787 8.54304 18.022 8.51953 17.8721C8.45986 17.4926 8.43771 17.4018 8.40723 17.332C8.37674 17.2622 8.32532 17.1853 8.08887 16.8867C8.08887 16.8867 8.08655 16.8832 8.08105 16.877C8.07527 16.8703 8.06721 16.8609 8.05664 16.8496C8.03515 16.8266 8.00645 16.7964 7.96875 16.7588C7.89311 16.6834 7.79024 16.5856 7.65625 16.46C7.38811 16.2084 7.00968 15.8614 6.49902 15.3936C4.96654 13.9894 4.00011 11.947 4 9.6748C4 5.43633 7.35786 2 11.5 2ZM9.92871 19.9326C9.94724 20.1417 9.9786 20.2178 10 20.2559C10.0599 20.3619 10.1464 20.4494 10.25 20.5107C10.2871 20.5326 10.3618 20.565 10.5664 20.584C10.7805 20.6039 11.0628 20.6045 11.5 20.6045C11.9372 20.6045 12.2195 20.6039 12.4336 20.584C12.6382 20.565 12.7129 20.5326 12.75 20.5107C12.8536 20.4494 12.9401 20.3619 13 20.2559C13.0214 20.2178 13.0527 20.1417 13.0713 19.9326C13.078 19.8565 13.082 19.7716 13.085 19.6748H9.91504C9.91801 19.7716 9.92197 19.8565 9.92871 19.9326ZM12.6104 8.17676C12.3039 7.9528 11.8781 8.02533 11.6592 8.33887L9.71094 11.1299C9.5628 11.3424 9.54338 11.6224 9.66016 11.8545C9.77703 12.0865 10.0106 12.2322 10.2656 12.2324H11.6689L10.4902 13.9199C10.2713 14.2334 10.343 14.6696 10.6494 14.8936C10.9558 15.1172 11.3819 15.0448 11.6006 14.7314L13.5479 11.9404C13.6962 11.7278 13.7164 11.4482 13.5996 11.2158C13.4828 10.9835 13.2486 10.8369 12.9932 10.8369H11.5908L12.7686 9.14941C12.9873 8.83589 12.9167 8.40073 12.6104 8.17676Z" fill="#1C274C"/>
</svg>
