<svg width="24" height="24" viewBox="0 0 24 24" fill="none" xmlns="http://www.w3.org/2000/svg">
<path d="M12 1.25C16.2802 1.25 19.75 4.71979 19.75 9C19.75 11.2254 18.8118 13.232 17.3096 14.6455C17.3356 14.6942 17.3569 14.7463 17.3721 14.8018L18.0215 17.1709C18.3249 18.2774 18.5695 19.1687 18.6807 19.8604C18.7897 20.5383 18.812 21.237 18.4326 21.8047C18.2166 22.1279 17.9229 22.3928 17.5762 22.5693C16.9465 22.8898 16.2597 22.7313 15.6445 22.499C15.017 22.262 14.2287 21.852 13.2607 21.3477L13.2139 21.3232C12.4898 20.9459 12.3008 20.8611 12.1191 20.8418C12.0399 20.8333 11.9601 20.8333 11.8809 20.8418C11.6992 20.8611 11.5102 20.9459 10.7861 21.3232L10.7393 21.3477C9.77136 21.852 8.98304 22.262 8.35547 22.499C7.74026 22.7313 7.05351 22.8898 6.42383 22.5693C6.07716 22.3928 5.78338 22.1279 5.56738 21.8047C5.18804 21.237 5.21039 20.5383 5.31934 19.8604C5.43053 19.1687 5.67512 18.2774 5.97852 17.1709L6.62793 14.8018C6.64314 14.7463 6.6644 14.6942 6.69043 14.6455C5.18826 13.232 4.25 11.2254 4.25 9C4.25 4.71979 7.71979 1.25 12 1.25ZM16.04 15.6152C14.8637 16.3351 13.4802 16.75 12 16.75C10.5198 16.75 9.13632 16.3351 7.95996 15.6152L7.4375 17.5215C7.11849 18.6851 6.89645 19.4973 6.7998 20.0986C6.6994 20.7234 6.77461 20.9121 6.81445 20.9717C6.89228 21.0881 6.99379 21.1761 7.10449 21.2324C7.12838 21.2444 7.27259 21.3043 7.8252 21.0957C8.3583 20.8945 9.06691 20.5277 10.0928 19.9932C10.1276 19.9751 10.1622 19.9563 10.1963 19.9385C10.764 19.6418 11.221 19.4041 11.7217 19.3506C11.9065 19.3309 12.0935 19.3309 12.2783 19.3506C12.779 19.4041 13.236 19.6418 13.8037 19.9385C13.8378 19.9563 13.8724 19.9751 13.9072 19.9932C14.9331 20.5277 15.6416 20.8945 16.1748 21.0957C16.7301 21.3053 16.8736 21.244 16.8965 21.2324C17.0069 21.1761 17.1078 21.0879 17.1855 20.9717C17.2253 20.9121 17.2997 20.7234 17.1992 20.0986C17.1026 19.4973 16.8814 18.685 16.5625 17.5215L16.04 15.6152ZM12 2.75C8.54822 2.75 5.75 5.54822 5.75 9C5.75 12.4518 8.54822 15.25 12 15.25C15.4518 15.25 18.25 12.4518 18.25 9C18.25 5.54822 15.4518 2.75 12 2.75ZM12 5.25C12.5017 5.25 12.8141 5.57498 12.9863 5.7998C13.1506 6.01438 13.3166 6.31169 13.4863 6.61621C13.4939 6.62982 13.5012 6.64359 13.5088 6.65723L13.6074 6.83398C13.6302 6.87479 13.6484 6.90708 13.6641 6.93457C13.6913 6.94097 13.7231 6.94806 13.7627 6.95703L13.9531 7C13.9688 7.00354 13.9854 7.00721 14.001 7.01074C14.3287 7.08479 14.6544 7.15832 14.9043 7.25684C15.1805 7.36566 15.555 7.57811 15.6992 8.04199C15.8408 8.49753 15.662 8.88382 15.5059 9.13184C15.3614 9.36142 15.1409 9.61804 14.916 9.88086C14.9059 9.8926 14.8958 9.90425 14.8857 9.91602L14.7559 10.0684C14.7214 10.1087 14.6956 10.1397 14.6738 10.166C14.6767 10.2022 14.6801 10.2444 14.6855 10.3008L14.7061 10.5039C14.7076 10.5194 14.7085 10.5353 14.71 10.5508C14.7441 10.9026 14.7777 11.2426 14.7656 11.5146C14.7529 11.7998 14.684 12.2315 14.2969 12.5254C13.8975 12.8285 13.4565 12.7628 13.1768 12.6826C12.9191 12.6088 12.6143 12.4684 12.3076 12.3271C12.2929 12.3204 12.2783 12.3134 12.2637 12.3066L12.085 12.2246C12.0515 12.2092 12.024 12.1964 12 12.1855C11.976 12.1964 11.9485 12.2092 11.915 12.2246L11.7363 12.3066C11.7217 12.3134 11.7071 12.3204 11.6924 12.3271C11.3857 12.4684 11.0809 12.6088 10.8232 12.6826C10.5435 12.7628 10.1025 12.8285 9.70312 12.5254C9.31602 12.2315 9.24709 11.7998 9.23438 11.5146C9.22226 11.2426 9.25587 10.9026 9.29004 10.5508C9.29154 10.5353 9.29244 10.5194 9.29395 10.5039L9.31445 10.3008C9.31992 10.2444 9.32319 10.2022 9.32617 10.166C9.30427 10.1397 9.27862 10.1087 9.24414 10.0684L9.11426 9.91602C9.1042 9.90426 9.09402 9.8926 9.08398 9.88086C8.85913 9.61804 8.63869 9.36141 8.49414 9.13184C8.338 8.88381 8.15931 8.49754 8.30078 8.04199C8.44505 7.57809 8.81956 7.36566 9.0957 7.25684C9.34569 7.15832 9.67135 7.08479 9.99902 7.01074C10.0146 7.00724 10.0304 7.00351 10.0459 7L10.2373 6.95703C10.2769 6.94806 10.3087 6.94097 10.3359 6.93457C10.3516 6.90708 10.3698 6.87479 10.3926 6.83398L10.4912 6.65723C10.4988 6.64359 10.5061 6.62982 10.5137 6.61621C10.6834 6.31169 10.8494 6.01438 11.0137 5.7998C11.1859 5.57498 11.4983 5.25 12 5.25ZM11.8008 7.3877L11.7031 7.56445C11.6963 7.5768 11.6886 7.59006 11.6807 7.60449C11.6022 7.74808 11.4716 7.98578 11.2549 8.15039C11.0335 8.31845 10.767 8.37635 10.6113 8.41016C10.5958 8.41352 10.5815 8.41695 10.5684 8.41992L10.377 8.46289C10.202 8.50247 10.0594 8.5348 9.9375 8.56543C10.0169 8.6631 10.1199 8.78467 10.2539 8.94141L10.3838 9.09375C10.3929 9.10446 10.4036 9.11572 10.4141 9.12793C10.5221 9.25225 10.6967 9.45374 10.7773 9.71289C10.8568 9.96868 10.8288 10.2321 10.8115 10.3984C10.8097 10.4149 10.808 10.4308 10.8066 10.4453L10.7871 10.6484C10.7689 10.8366 10.7545 10.9872 10.7451 11.1094C10.8493 11.0635 10.9686 11.0091 11.1094 10.9443L11.2881 10.8613C11.3003 10.8557 11.3138 10.8496 11.3281 10.8428C11.4716 10.7751 11.7213 10.6572 12 10.6572C12.2787 10.6572 12.5284 10.7751 12.6719 10.8428C12.6862 10.8496 12.6997 10.8557 12.7119 10.8613L12.8906 10.9443C13.0314 11.0091 13.1507 11.0635 13.2549 11.1094C13.2455 10.9872 13.2311 10.8366 13.2129 10.6484L13.1934 10.4453C13.192 10.4308 13.1903 10.4149 13.1885 10.3984C13.1712 10.2321 13.1432 9.96868 13.2227 9.71289C13.3033 9.45374 13.4779 9.25225 13.5859 9.12793C13.5964 9.11572 13.6071 9.10446 13.6162 9.09375L13.7461 8.94141C13.8801 8.78467 13.9831 8.66311 14.0625 8.56543C13.9406 8.5348 13.798 8.50247 13.623 8.46289L13.4316 8.41992C13.4185 8.41695 13.4042 8.41352 13.3887 8.41016C13.233 8.37635 12.9665 8.31845 12.7451 8.15039C12.5284 7.98578 12.3978 7.74808 12.3193 7.60449C12.3114 7.59006 12.3037 7.5768 12.2969 7.56445L12.1992 7.3877C12.123 7.25104 12.0581 7.13482 12 7.03418C11.9419 7.13482 11.877 7.25104 11.8008 7.3877Z" fill="#48465C"/>
</svg>
