<svg width="24" height="24" viewBox="0 0 24 24" fill="none" xmlns="http://www.w3.org/2000/svg">
<path d="M12 2C16.714 2 19.0708 2.00037 20.5352 3.46484C21.9996 4.9293 22 7.28597 22 12C22 16.714 21.9997 19.0708 20.5352 20.5352C19.0708 21.9997 16.714 22 12 22C7.28597 22 4.9293 21.9996 3.46484 20.5352C2.00037 19.0708 2 16.714 2 12C2 7.28595 2.00037 4.9293 3.46484 3.46484C4.9293 2.00037 7.28595 2 12 2ZM5 13.25C4.58579 13.25 4.25 13.5858 4.25 14V14.0537C4.24997 15.1864 4.25041 16.112 4.34863 16.8428C4.45134 17.6068 4.67346 18.2692 5.20215 18.7979C5.73085 19.3266 6.39328 19.5487 7.15723 19.6514C7.88803 19.7495 8.81364 19.75 9.94629 19.75H10C10.4142 19.75 10.75 19.4142 10.75 19C10.75 18.5858 10.4142 18.25 10 18.25C8.80029 18.25 7.97564 18.2482 7.35645 18.165C6.75907 18.0846 6.4662 17.9409 6.2627 17.7373C6.0592 17.5338 5.91532 17.241 5.83496 16.6436C5.75171 16.0244 5.75 15.1997 5.75 14C5.75 13.5858 5.41421 13.25 5 13.25ZM19 13.25C18.5858 13.25 18.25 13.5858 18.25 14C18.25 15.1997 18.2482 16.0244 18.165 16.6436C18.0846 17.241 17.9409 17.5338 17.7373 17.7373C17.5338 17.9409 17.241 18.0846 16.6436 18.165C16.0244 18.2482 15.1997 18.25 14 18.25C13.5858 18.25 13.25 18.5858 13.25 19C13.25 19.4142 13.5858 19.75 14 19.75H14.0537C15.1864 19.75 16.112 19.7495 16.8428 19.6514C17.6068 19.5487 18.2692 19.3266 18.7979 18.7979C19.3266 18.2692 19.5487 17.6068 19.6514 16.8428C19.7495 16.112 19.75 15.1864 19.75 14.0537V14C19.75 13.5858 19.4142 13.25 19 13.25ZM12 10.25C10.4076 10.25 9.2509 10.8226 8.49316 11.4053C8.11729 11.6944 7.84036 11.985 7.65527 12.207C7.56252 12.3183 7.4916 12.4141 7.44238 12.4844C7.41793 12.5193 7.39894 12.5484 7.38477 12.5703C7.37775 12.5811 7.37173 12.5903 7.36719 12.5977L7.36133 12.6074L7.3584 12.6113L7.35742 12.6123C7.35722 12.6127 7.35688 12.6141 8 13L7.35645 12.6143C7.14359 12.9694 7.25917 13.4305 7.61426 13.6436C7.96786 13.8555 8.42637 13.7421 8.64062 13.3906L8.64355 13.3848C8.64826 13.3775 8.65822 13.3633 8.67188 13.3438C8.69923 13.3046 8.74444 13.2438 8.80762 13.168C8.935 13.0151 9.13335 12.8054 9.40723 12.5947C9.9495 12.1775 10.7927 11.75 12 11.75C13.2073 11.75 14.0506 12.1775 14.5928 12.5947C14.8667 12.8054 15.065 13.0151 15.1924 13.168C15.2556 13.2438 15.3008 13.3046 15.3281 13.3438C15.3418 13.3633 15.3516 13.3775 15.3564 13.3848L15.3594 13.3906C15.5736 13.7421 16.0321 13.8555 16.3857 13.6436C16.7187 13.4438 16.8413 13.0257 16.6797 12.6816L16.6436 12.6143L16.6426 12.6123L16.6416 12.6113L16.6387 12.6074L16.6328 12.5977C16.6282 12.5903 16.6222 12.5811 16.6152 12.5703C16.6011 12.5484 16.582 12.5193 16.5576 12.4844C16.5084 12.4141 16.4375 12.3183 16.3447 12.207C16.1596 11.985 15.8827 11.6944 15.5068 11.4053C14.749 10.8226 13.5924 10.25 12 10.25ZM9.94629 4.25C8.81362 4.24997 7.88805 4.25041 7.15723 4.34863C6.39328 4.45134 5.73085 4.67346 5.20215 5.20215C4.67346 5.73085 4.45134 6.39327 4.34863 7.15723C4.25041 7.88804 4.24997 8.81361 4.25 9.94629V10C4.25 10.4142 4.58579 10.75 5 10.75C5.41421 10.75 5.75 10.4142 5.75 10C5.75 8.80029 5.75171 7.97564 5.83496 7.35645C5.91532 6.75904 6.05919 6.4662 6.2627 6.2627C6.4662 6.05919 6.75904 5.91532 7.35645 5.83496C7.97564 5.75171 8.80029 5.75 10 5.75C10.4142 5.75 10.75 5.41421 10.75 5C10.75 4.58579 10.4142 4.25 10 4.25H9.94629ZM14 4.25C13.5858 4.25 13.25 4.58579 13.25 5C13.25 5.41421 13.5858 5.75 14 5.75C15.1997 5.75 16.0244 5.75171 16.6436 5.83496C17.241 5.91532 17.5338 6.0592 17.7373 6.2627C17.9409 6.4662 18.0846 6.75907 18.165 7.35645C18.2482 7.97564 18.25 8.80029 18.25 10C18.25 10.4142 18.5858 10.75 19 10.75C19.4142 10.75 19.75 10.4142 19.75 10V9.94629C19.75 8.81363 19.7495 7.88804 19.6514 7.15723C19.5487 6.39328 19.3266 5.73085 18.7979 5.20215C18.2692 4.67346 17.6068 4.45134 16.8428 4.34863C16.112 4.25041 15.1864 4.24997 14.0537 4.25H14Z" fill="#1C274C"/>
</svg>
