<svg width="24" height="24" viewBox="0 0 24 24" fill="none" xmlns="http://www.w3.org/2000/svg">
<path d="M14 6C16.8284 6 18.2424 6.00023 19.1211 6.87891C19.9998 7.75759 20 9.17158 20 12V13.0557C20 15.4614 19.9997 16.6643 19.4023 17.6309C18.805 18.5973 17.7294 19.1353 15.5781 20.2109C13.8225 21.0888 12.9443 21.5283 12 21.5283C11.0557 21.5283 10.1775 21.0888 8.42188 20.2109C6.2706 19.1353 5.19503 18.5973 4.59766 17.6309C4.00026 16.6643 4 15.4614 4 13.0557V12C4 9.17157 4.00023 7.75759 4.87891 6.87891C5.75759 6.00023 7.17157 6 10 6H14ZM12 10C11.7159 10 11.5255 10.3408 11.1455 11.0225L11.0479 11.1992C10.94 11.3928 10.8859 11.4898 10.8018 11.5537C10.7176 11.6176 10.612 11.6411 10.4023 11.6885L10.2119 11.7314C9.47397 11.8984 9.10536 11.9823 9.01758 12.2646C8.93002 12.5468 9.18088 12.8408 9.68359 13.4287L9.81445 13.5811C9.95737 13.7481 10.0284 13.8322 10.0605 13.9355C10.0926 14.0389 10.0821 14.1502 10.0605 14.373L10.041 14.5762C9.96501 15.3607 9.92686 15.7531 10.1562 15.9277C10.3861 16.1021 10.732 15.9431 11.4229 15.625L11.6016 15.543C11.7978 15.4526 11.8959 15.4072 12 15.4072C12.1041 15.4072 12.2022 15.4526 12.3984 15.543L12.5771 15.625C13.268 15.9431 13.6138 16.1021 13.8438 15.9277C14.0732 15.7531 14.0349 15.3607 13.959 14.5762L13.9395 14.373C13.9179 14.1502 13.9074 14.0389 13.9395 13.9355C13.9717 13.8322 14.0427 13.7481 14.1855 13.5811L14.3164 13.4287C14.8191 12.8408 15.07 12.5468 14.9824 12.2646C14.8946 11.9823 14.526 11.8984 13.7881 11.7314L13.5977 11.6885C13.388 11.6411 13.2824 11.6176 13.1982 11.5537C13.1141 11.4898 13.06 11.3928 12.9521 11.1992L12.8545 11.0225C12.4745 10.3408 12.2841 10 12 10ZM13 2C14.8856 2 15.8283 2.00019 16.4141 2.58594C16.8279 2.99977 16.9497 3.59163 16.9854 4.56836C16.1645 4.49946 15.1939 4.49994 14.0986 4.5H9.90137C8.80616 4.49994 7.8355 4.49946 7.01465 4.56836C7.05031 3.59167 7.17214 2.99977 7.58594 2.58594C8.17171 2.00016 9.11444 2 11 2H13Z" fill="#48465C"/>
</svg>
