<svg width="24" height="24" viewBox="0 0 24 24" fill="none" xmlns="http://www.w3.org/2000/svg">
<path d="M12 1.25C14.0711 1.25 15.75 2.92893 15.75 5V5.32812C15.8927 5.3404 16.0308 5.35463 16.1641 5.37109C17.174 5.49589 18.0066 5.75778 18.7139 6.34473C19.4212 6.93173 19.8318 7.70221 20.1406 8.67188C20.4398 9.61153 20.6664 10.8194 20.9512 12.3379L20.9717 12.4482C21.3735 14.591 21.6909 16.28 21.749 17.6113C21.8085 18.9757 21.6054 20.1058 20.8359 21.0332C20.0662 21.9606 18.9926 22.3686 17.6406 22.5615C16.3214 22.7497 14.6029 22.75 12.4229 22.75H11.5771C9.39733 22.75 7.67947 22.7497 6.36035 22.5615C5.00819 22.3686 3.93482 21.9607 3.16504 21.0332C2.3953 20.1057 2.19143 18.9759 2.25098 17.6113C2.30908 16.28 2.62653 14.591 3.02832 12.4482L3.04883 12.3379C3.33352 10.8194 3.56018 9.61152 3.85938 8.67188C4.16815 7.70221 4.57885 6.93173 5.28613 6.34473C5.99338 5.75776 6.82607 5.49589 7.83594 5.37109C7.9692 5.35464 8.10729 5.3404 8.25 5.32812V5C8.25 2.92895 9.92895 1.25003 12 1.25ZM11.6396 6.75C10.0331 6.75 8.89658 6.75117 8.02051 6.85938C7.16497 6.96507 6.64775 7.16407 6.24414 7.49902C5.84054 7.83399 5.54965 8.30554 5.28809 9.12695C5.02027 9.96811 4.80975 11.085 4.51367 12.6641C4.09797 14.8812 3.8029 16.4649 3.75 17.6768C3.69802 18.868 3.88951 19.5572 4.31934 20.0752C4.74918 20.5931 5.39186 20.9087 6.57227 21.0771C7.77313 21.2485 9.38412 21.25 11.6396 21.25H12.3604C14.6162 21.25 16.2278 21.2485 17.4287 21.0771C18.6089 20.9087 19.2518 20.593 19.6816 20.0752C20.1112 19.5573 20.302 18.8676 20.25 17.6768C20.1971 16.4649 19.902 14.8812 19.4863 12.6641C19.1903 11.0849 18.9797 9.96811 18.7119 9.12695C18.4503 8.30554 18.1595 7.83399 17.7559 7.49902C17.3523 7.16416 16.8357 6.96508 15.9805 6.85938C15.1043 6.75111 13.9672 6.75 12.3604 6.75H11.6396ZM13.4395 12.002C13.7146 11.6924 14.1884 11.6645 14.498 11.9395C14.8076 12.2146 14.8356 12.6884 14.5605 12.998L11.8936 15.998C11.7609 16.1472 11.5744 16.2379 11.375 16.249C11.1758 16.2602 10.9805 16.191 10.832 16.0576L9.49805 14.8574C9.19035 14.5803 9.16535 14.1057 9.44238 13.7979C9.71949 13.4901 10.1941 13.4652 10.502 13.7422L11.2744 14.4375L13.4395 12.002ZM12 2.75C10.7574 2.75003 9.75 3.75738 9.75 5V5.25977C10.307 5.24988 10.9182 5.24999 11.5889 5.25H12.4111C13.0818 5.24999 13.693 5.24988 14.25 5.25977V5C14.25 3.75736 13.2426 2.75 12 2.75Z" fill="#48465C"/>
</svg>
