<svg width="24" height="24" viewBox="0 0 24 24" fill="none" xmlns="http://www.w3.org/2000/svg">
<path d="M9.2002 13C9.83012 13 10.1452 13.0005 10.3857 13.123C10.5973 13.2309 10.7691 13.4027 10.877 13.6143C10.9995 13.8548 11 14.1698 11 14.7998V17.5C11 19.9853 8.98528 22 6.5 22C4.01472 22 2 19.9853 2 17.5C2 15.0147 4.01472 13 6.5 13H9.2002ZM17.5 13C19.9853 13 22 15.0147 22 17.5C22 19.9853 19.9853 22 17.5 22C15.0147 22 13 19.9853 13 17.5V14.5C13 14.1515 12.9998 13.977 13.0381 13.834C13.1422 13.4458 13.4458 13.1422 13.834 13.0381C13.977 12.9998 14.1515 13 14.5 13H17.5ZM6.5 2C8.98528 2 11 4.01472 11 6.5V9.5C11 9.84856 11.0002 10.023 10.9619 10.166C10.8578 10.5542 10.5542 10.8578 10.166 10.9619C10.023 11.0002 9.84856 11 9.5 11H6.5C4.01472 11 2 8.98528 2 6.5C2 4.01472 4.01472 2 6.5 2ZM17.5 2C19.9853 2 22 4.01472 22 6.5C22 8.98528 19.9853 11 17.5 11H14.2861C14.137 11 14.0618 11.0003 13.999 10.9932C13.4775 10.9345 13.0655 10.5225 13.0068 10.001C12.9997 9.93817 13 9.86309 13 9.71387V6.5C13 4.01472 15.0147 2 17.5 2Z" fill="#1C274C"/>
</svg>
