<svg width="24" height="24" viewBox="0 0 24 24" fill="none" xmlns="http://www.w3.org/2000/svg">
<path d="M12.0518 1.25C12.9503 1.24997 13.7001 1.25012 14.2949 1.33008C14.9225 1.41452 15.489 1.6003 15.9443 2.05566C16.3997 2.51102 16.5855 3.07748 16.6699 3.70508C16.7272 4.1314 16.7434 5.15126 16.748 6.02539C18.7703 6.09144 19.9843 6.32809 20.8281 7.17188C21.9997 8.34346 22 10.2288 22 14C22 17.7712 21.9997 19.6566 20.8281 20.8281C19.6566 21.9997 17.7712 22 14 22H10C6.22879 22 4.34345 21.9997 3.17188 20.8281C2.00031 19.6566 2 17.7712 2 14C2 10.2288 2.00031 8.34345 3.17188 7.17188C4.01566 6.32809 5.2297 6.09144 7.25195 6.02539C7.25654 5.15126 7.27276 4.1314 7.33008 3.70508C7.41452 3.07747 7.6003 2.51102 8.05566 2.05566C8.51102 1.60031 9.07747 1.41452 9.70508 1.33008C10.2999 1.25012 11.0497 1.24997 11.9482 1.25H12.0518ZM12 9.25C11.5858 9.25 11.25 9.58579 11.25 10V10.0098C10.1613 10.284 9.25015 11.1429 9.25 12.333C9.25 13.79 10.6151 14.75 12 14.75C12.8242 14.75 13.25 15.2829 13.25 15.667C13.2498 16.051 12.824 16.583 12 16.583C11.176 16.583 10.7502 16.051 10.75 15.667C10.75 15.2528 10.4142 14.917 10 14.917C9.58579 14.917 9.25 15.2528 9.25 15.667C9.25015 16.8571 10.1613 17.716 11.25 17.9902V18C11.25 18.4142 11.5858 18.75 12 18.75C12.4142 18.75 12.75 18.4142 12.75 18V17.9902C13.8387 17.716 14.7499 16.8571 14.75 15.667C14.75 14.2101 13.3849 13.25 12 13.25C11.1758 13.25 10.75 12.7171 10.75 12.333C10.7502 11.949 11.176 11.417 12 11.417C12.824 11.417 13.2498 11.949 13.25 12.333C13.25 12.7472 13.5858 13.083 14 13.083C14.4142 13.083 14.75 12.7472 14.75 12.333C14.7499 11.1429 13.8387 10.284 12.75 10.0098V10C12.75 9.58579 12.4142 9.25 12 9.25ZM12 2.75C11.036 2.75 10.3883 2.75147 9.90527 2.81641C9.44388 2.87845 9.24652 2.9859 9.11621 3.11621C8.9859 3.24652 8.87845 3.44388 8.81641 3.90527C8.77087 4.24394 8.75648 5.1553 8.75195 6.00195C9.14337 6.00007 9.55885 6 10 6H14C14.4412 6 14.8566 6.00007 15.248 6.00195C15.2435 5.1553 15.2291 4.24394 15.1836 3.90527C15.1215 3.44388 15.0141 3.24652 14.8838 3.11621C14.7535 2.98591 14.5561 2.87845 14.0947 2.81641C13.6117 2.75147 12.964 2.75 12 2.75Z" fill="#1C274C"/>
</svg>
