<svg width="24" height="24" viewBox="0 0 24 24" fill="none" xmlns="http://www.w3.org/2000/svg">
<path d="M15.0925 1.25C16.6616 1.24998 17.9197 1.25003 18.8943 1.3877C19.9019 1.53009 20.7405 1.83566 21.3582 2.55273C21.9758 3.26989 22.1539 4.14439 22.1453 5.16211C22.1369 6.14626 21.9503 7.3906 21.7175 8.94238L20.5007 17.0508C20.3244 18.2273 20.181 19.1801 19.9714 19.9258C19.753 20.7023 19.4402 21.3456 18.864 21.8418C18.2879 22.338 17.6056 22.5525 16.8054 22.6533C16.0369 22.75 15.0732 22.75 13.8835 22.75H10.1169C8.92718 22.75 7.96362 22.75 7.19507 22.6533C6.39485 22.5525 5.71261 22.338 5.13647 21.8418C4.5603 21.3456 4.24641 20.7023 4.02808 19.9258C3.81845 19.1801 3.6762 18.2272 3.49976 17.0508L2.28296 8.94238C2.05016 7.39058 1.86361 6.14626 1.85522 5.16211C1.84655 4.14439 2.02472 3.26989 2.64233 2.55273C3.25993 1.83568 4.09852 1.53008 5.1062 1.3877C6.0807 1.25004 7.33889 1.24998 8.90796 1.25H15.0925ZM5.54272 19.75C5.70144 20.2287 5.88317 20.5046 6.11597 20.7051C6.38369 20.9355 6.73971 21.0842 7.38257 21.165C8.0466 21.2486 8.91587 21.25 10.1677 21.25H13.8328C15.0847 21.25 15.9538 21.2486 16.6179 21.165C17.2608 21.0842 17.6168 20.9355 17.8845 20.7051C18.1173 20.5046 18.2991 20.2287 18.4578 19.75H5.54272ZM5.20483 18.25H5.39917L5.15698 17.959C5.17314 18.0591 5.18892 18.1563 5.20483 18.25ZM9.31128 18.25H11.6892L10.4998 17.0605L9.31128 18.25ZM15.7136 18.25H18.1892L16.9021 16.9619L15.7136 18.25ZM11.5613 16L13.739 18.1777L15.8406 15.9004L13.7498 13.8105L11.5613 16ZM5.50366 16.0322L7.27808 18.1621L9.43921 16L7.43726 13.9971L5.50366 16.0322ZM17.9197 15.8594L19.0007 16.9395C19.0087 16.8866 19.017 16.8326 19.0251 16.7783L19.4041 14.252L17.9197 15.8594ZM8.47046 12.9102L10.4998 14.9395L12.6892 12.75L10.6033 10.6641L8.47046 12.9102ZM14.8113 12.75L16.8582 14.7979L18.9792 12.5L17.0984 10.4619L14.8113 12.75ZM4.6687 14.7334L6.37573 12.9365L4.05054 10.6104L4.6687 14.7334ZM4.81128 9.25L7.40991 11.8486L9.54272 9.60352L6.99976 7.06055L4.81128 9.25ZM11.6375 9.57617L13.7498 11.6895L16.0798 9.35938L13.9919 7.09766L11.6375 9.57617ZM18.1599 9.40039L19.8562 11.2383L20.2253 8.77832C20.3201 8.14662 20.4034 7.58825 20.4705 7.09082L18.1599 9.40039ZM10.5759 8.51562L12.2537 6.75H8.81128L10.5759 8.51562ZM17.1414 8.29785L18.6892 6.75H15.7136L17.1414 8.29785ZM3.67651 8.11523L3.74976 8.18945L5.18921 6.75H3.48511C3.53651 7.15846 3.60183 7.61079 3.67651 8.11523ZM8.96753 2.75C7.32533 2.75 6.17343 2.75196 5.31616 2.87305C4.47979 2.99123 4.05908 3.20706 3.77905 3.53223C3.49912 3.85738 3.34804 4.30491 3.35522 5.14941C3.3555 5.18254 3.35642 5.21606 3.35718 5.25H20.6433C20.644 5.21607 20.645 5.18254 20.6453 5.14941C20.6525 4.30497 20.5014 3.85738 20.2214 3.53223C19.9414 3.20706 19.5207 2.99123 18.6843 2.87305C17.8271 2.75195 16.6751 2.75 15.033 2.75H8.96753Z" fill="#48465C"/>
</svg>
