<svg width="24" height="24" viewBox="0 0 24 24" fill="none" xmlns="http://www.w3.org/2000/svg">
<path fill-rule="evenodd" clip-rule="evenodd" d="M15.0925 1.25C16.6615 1.24998 17.9197 1.25002 18.8942 1.3877C19.9019 1.53009 20.7404 1.83562 21.3581 2.55273C21.9757 3.26989 22.1538 4.14439 22.1452 5.16211C22.1368 6.14625 21.9502 7.3906 21.7175 8.94238L20.5007 17.0508C20.3243 18.2273 20.1809 19.1801 19.9714 19.9258C19.753 20.7022 19.4401 21.3456 18.8639 21.8418C18.2878 22.3379 17.6055 22.5525 16.8054 22.6533C16.0368 22.75 15.0724 22.75 13.8825 22.75H10.1169C8.92706 22.75 7.96358 22.75 7.195 22.6533C6.39477 22.5525 5.71256 22.3379 5.13641 21.8418C4.56024 21.3456 4.24634 20.7023 4.02801 19.9258C3.81837 19.1801 3.67614 18.2272 3.49969 17.0508L2.28289 8.94238C2.0501 7.39058 1.86354 6.14627 1.85516 5.16211C1.84649 4.14439 2.02466 3.26989 2.64227 2.55273C3.25976 1.83583 4.09772 1.53011 5.10516 1.3877C6.07971 1.24999 7.33862 1.24998 8.90789 1.25H15.0925ZM5.54266 19.75C5.70134 20.2286 5.8822 20.5046 6.11492 20.7051C6.38268 20.9357 6.73936 21.0841 7.3825 21.165C8.04644 21.2486 8.91514 21.25 10.1667 21.25H13.8327C15.0846 21.25 15.9538 21.2486 16.6179 21.165C17.2607 21.0842 17.6167 20.9355 17.8845 20.7051C18.1173 20.5046 18.299 20.2287 18.4577 19.75H5.54266ZM5.20477 18.25H5.3991L5.15691 17.959C5.17307 18.0591 5.18886 18.1563 5.20477 18.25ZM9.31024 18.25H11.6891L10.4997 17.0605L9.31024 18.25ZM15.7126 18.25H18.1891L16.902 16.9619L15.7126 18.25ZM11.5602 16L13.738 18.1777L15.8405 15.9004L13.7497 13.8105L11.5602 16ZM5.50359 16.0322L7.27801 18.1621L9.43914 16L7.43719 13.9971L5.50359 16.0322ZM17.9196 15.8594L19.0007 16.9395C19.0086 16.8866 19.0169 16.8326 19.0251 16.7783L19.404 14.252L17.9196 15.8594ZM8.47039 12.9102L10.4997 14.9395L12.6891 12.75L10.6032 10.6641L8.47039 12.9102ZM14.8102 12.75L16.8581 14.7979L18.9792 12.5L17.0983 10.4619L14.8102 12.75ZM4.66863 14.7334L6.37566 12.9365L4.05047 10.6104L4.66863 14.7334ZM4.81024 9.25L7.40887 11.8486L9.54266 9.60352L6.99969 7.06055L4.81024 9.25ZM11.6374 9.57617L13.7497 11.6895L16.0798 9.35938L13.9919 7.09766L11.6374 9.57617ZM18.1598 9.40039L19.8561 11.2383L20.2253 8.77832C20.32 8.14662 20.4033 7.58825 20.4704 7.09082L18.1598 9.40039ZM10.5759 8.51563L12.2526 6.75H8.81024L10.5759 8.51563ZM17.1413 8.29785L18.6891 6.75H15.7126L17.1413 8.29785ZM3.67645 8.11523L3.74969 8.18945L5.18914 6.75H3.48504C3.53644 7.15846 3.60176 7.61078 3.67645 8.11523ZM8.96746 2.75C7.32498 2.75 6.17243 2.7519 5.31512 2.87305C4.47901 2.99124 4.05897 3.20711 3.77899 3.53223C3.49902 3.85739 3.34797 4.30486 3.35516 5.14941C3.35544 5.18254 3.35635 5.21606 3.35711 5.25H20.6432C20.6439 5.21607 20.6449 5.18254 20.6452 5.14941C20.6524 4.30502 20.5013 3.85737 20.2214 3.53223C19.9414 3.20706 19.5207 2.99123 18.6843 2.87305C17.827 2.75193 16.6751 2.75 15.0329 2.75H8.96746Z" fill="#1C274C"/>
</svg>
