<svg width="24" height="24" viewBox="0 0 24 24" fill="none" xmlns="http://www.w3.org/2000/svg">
<path d="M12.0518 1.25C12.9503 1.24997 13.7001 1.25012 14.2949 1.33008C14.9225 1.41452 15.489 1.6003 15.9443 2.05567C16.3997 2.51102 16.5855 3.07748 16.6699 3.70508C16.729 4.14468 16.745 4.66915 16.749 5.27539C17.3974 5.2962 17.9756 5.33426 18.4893 5.40332C19.6615 5.56095 20.6101 5.89332 21.3584 6.6416C22.1066 7.38992 22.439 8.33844 22.5967 9.51074C22.647 9.88543 22.6814 10.2947 22.7041 10.7402C22.734 10.8212 22.75 10.9087 22.75 11C22.75 11.0693 22.7403 11.1364 22.7227 11.2002C22.7497 12.002 22.75 12.9127 22.75 13.9434V14.0566C22.75 15.0874 22.7497 15.998 22.7227 16.7998C22.7403 16.8636 22.75 16.9307 22.75 17C22.75 17.0913 22.734 17.1788 22.7041 17.2598C22.6814 17.7053 22.647 18.1146 22.5967 18.4893C22.439 19.6615 22.1066 20.6101 21.3584 21.3584C20.6101 22.1066 19.6615 22.439 18.4893 22.5967C17.3501 22.7498 15.8943 22.75 14.0566 22.75H9.94336C8.10571 22.75 6.6499 22.7498 5.51074 22.5967C4.33844 22.439 3.38992 22.1066 2.6416 21.3584C1.89332 20.6101 1.56095 19.6615 1.40332 18.4893C1.35294 18.1146 1.31858 17.7053 1.2959 17.2598C1.26603 17.1789 1.25 17.0913 1.25 17C1.25 16.9307 1.25974 16.8636 1.27734 16.7998C1.25032 15.998 1.24999 15.0874 1.25 14.0566V13.9434C1.24999 12.9126 1.25032 12.002 1.27734 11.2002C1.25974 11.1364 1.25 11.0693 1.25 11C1.25 10.9087 1.26602 10.8212 1.2959 10.7402C1.31858 10.2947 1.35294 9.88543 1.40332 9.51074C1.56095 8.33844 1.8933 7.38992 2.6416 6.6416C3.38992 5.8933 4.33844 5.56096 5.51074 5.40332C6.0244 5.33426 6.60263 5.2962 7.25098 5.27539C7.25498 4.66915 7.27098 4.14468 7.33008 3.70508C7.41452 3.07747 7.60031 2.51102 8.05566 2.05567C8.51102 1.60031 9.07747 1.41452 9.70508 1.33008C10.2999 1.25012 11.0497 1.24997 11.9482 1.25H12.0518ZM2.88965 18.2891C3.02491 19.2951 3.27894 19.8747 3.70215 20.2979C4.12536 20.7211 4.70485 20.9752 5.71094 21.1104C6.73858 21.2485 8.09325 21.25 10 21.25H14C15.9067 21.25 17.2614 21.2485 18.2891 21.1104C19.2951 20.9752 19.8747 20.7211 20.2979 20.2979C20.7211 19.8747 20.9752 19.2951 21.1104 18.2891C21.1332 18.1187 21.152 17.9393 21.168 17.75H2.83203C2.84805 17.9393 2.86675 18.1187 2.88965 18.2891ZM2.7627 11.75C2.74993 12.4027 2.75 13.146 2.75 14C2.75 14.854 2.74993 15.5973 2.7627 16.25H21.2373C21.2501 15.5973 21.25 14.854 21.25 14C21.25 13.146 21.2501 12.4027 21.2373 11.75H2.7627ZM10 6.75C8.09324 6.75 6.73859 6.7515 5.71094 6.88965C4.70485 7.02492 4.12536 7.27894 3.70215 7.70215C3.27894 8.12535 3.02491 8.70485 2.88965 9.71094C2.86675 9.88129 2.84805 10.0606 2.83203 10.25H21.168C21.152 10.0607 21.1332 9.88129 21.1104 9.71094C20.9752 8.70485 20.7211 8.12535 20.2979 7.70215C19.8747 7.27894 19.2951 7.02492 18.2891 6.88965C17.2614 6.75151 15.9067 6.75 14 6.75H10ZM12 2.75C11.036 2.75 10.3883 2.75147 9.90527 2.81641C9.44388 2.87845 9.24651 2.9859 9.11621 3.11621C8.9859 3.24652 8.87845 3.44389 8.81641 3.90527C8.76991 4.25113 8.75616 4.68163 8.75195 5.25195C9.12997 5.25017 9.52686 5.25 9.94336 5.25H14.0566C14.4732 5.25 14.8701 5.25017 15.248 5.25195C15.2438 4.68163 15.2301 4.25113 15.1836 3.90527C15.1215 3.44389 15.0141 3.24652 14.8838 3.11621C14.7535 2.98591 14.5561 2.87845 14.0947 2.81641C13.6117 2.75147 12.964 2.75 12 2.75Z" fill="#1C274C"/>
</svg>
