<svg width="24" height="24" viewBox="0 0 24 24" fill="none" xmlns="http://www.w3.org/2000/svg">
<path d="M2.27726 5.24707C2.388 4.84794 2.80196 4.61387 3.20109 4.72461L4.90421 5.19727C5.8211 5.45166 6.54659 6.15897 6.79972 7.0752L8.95109 14.8613L9.10929 15.4072C9.74243 15.6435 10.2867 16.0867 10.6318 16.6748L10.9413 16.5791L19.8114 14.2734C20.2123 14.1693 20.6223 14.4106 20.7265 14.8115C20.8303 15.2123 20.5891 15.6214 20.1884 15.7256L11.3515 18.0225L11.0224 18.124C11.0156 19.3948 10.1392 20.5556 8.81242 20.9004C7.22195 21.3137 5.58722 20.3981 5.16105 18.8555C4.73494 17.3129 5.679 15.7277 7.26945 15.3145C7.34818 15.294 7.42698 15.2768 7.50578 15.2627L5.35441 7.47461C5.24617 7.08281 4.92924 6.76074 4.50382 6.64258L2.79972 6.16992C2.40066 6.05919 2.16665 5.64614 2.27726 5.24707ZM14.2948 3.50977C16.1048 3.03937 17.0105 2.80387 17.7235 3.20312C18.4364 3.60239 18.6791 4.48016 19.164 6.23535L19.6786 8.09766C20.1636 9.85322 20.4057 10.7314 19.9941 11.4229C19.5823 12.1143 18.6771 12.3499 16.8671 12.8203L14.9472 13.3184C13.1372 13.7887 12.2323 14.0242 11.5194 13.625C10.8065 13.2257 10.564 12.3481 10.079 10.5928L9.56437 8.73047C9.07937 6.97493 8.8373 6.09679 9.24894 5.40527C9.66067 4.71412 10.5655 4.47902 12.3749 4.00879L14.2948 3.50977Z" fill="#1C274C"/>
</svg>
