<svg width="24" height="24" viewBox="0 0 24 24" fill="none" xmlns="http://www.w3.org/2000/svg">
<path d="M15.876 8.31641C17.4086 8.31641 18.1751 8.31586 18.6289 8.81543C19.0828 9.31509 19.0321 10.1037 18.9316 11.6807L18.665 15.8682C18.4799 18.7745 18.388 20.2283 17.4834 21.1143C16.5788 22.0002 15.187 22 12.4043 22H11.5957C8.81299 22 7.42124 22.0002 6.5166 21.1143C5.61208 20.2283 5.52006 18.7745 5.33496 15.8682L5.06836 11.6807C4.96792 10.1037 4.91727 9.31509 5.37109 8.81543C5.82494 8.31589 6.59138 8.31641 8.12402 8.31641H15.876ZM9.42578 11.4814C9.01362 11.5248 8.7127 11.9119 8.75391 12.3457L9.25391 17.6094C9.29534 18.0428 9.66237 18.3586 10.0742 18.3154C10.4863 18.272 10.7871 17.8858 10.7461 17.4521L10.2461 12.1885C10.2048 11.7549 9.83772 11.4383 9.42578 11.4814ZM14.5742 11.4814C14.1623 11.4383 13.7952 11.7549 13.7539 12.1885L13.2539 17.4521C13.2129 17.8858 13.5137 18.272 13.9258 18.3154C14.3376 18.3586 14.7047 18.0428 14.7461 17.6094L15.2461 12.3457C15.2873 11.9119 14.9864 11.5248 14.5742 11.4814ZM13.7393 2C13.9618 1.99984 14.1558 1.99996 14.3389 2.0332C15.0621 2.1646 15.6881 2.67736 16.0264 3.41602C16.1121 3.60303 16.173 3.81258 16.2432 4.05273L16.3584 4.44434C16.3778 4.51049 16.383 4.52911 16.3877 4.54395C16.5679 5.11016 17.1279 5.49353 17.6572 5.50879H20.2285C20.6544 5.50879 20.9999 5.90141 21 6.38574C21 6.8702 20.6545 7.2627 20.2285 7.2627H3.77148C3.34543 7.2627 3 6.8702 3 6.38574C3.00012 5.90141 3.34551 5.50879 3.77148 5.50879H6.43555C6.9649 5.49353 7.43218 5.11016 7.6123 4.54395C7.61703 4.5291 7.6222 4.51052 7.6416 4.44434L7.75684 4.05273C7.82709 3.81258 7.88798 3.60303 7.97363 3.41602C8.31193 2.67738 8.93793 2.16465 9.66113 2.0332C9.84413 1.99997 10.0383 1.99984 10.2607 2H13.7393Z" fill="#48465C"/>
</svg>
