<svg width="24" height="24" viewBox="0 0 24 24" fill="none" xmlns="http://www.w3.org/2000/svg">
<path d="M7.50033 18.0005C8.32859 18.0007 9.00033 18.6721 9.00033 19.5005C9.00029 20.3287 8.32857 21.0003 7.50033 21.0005C6.67192 21.0005 6.00037 20.3289 6.00033 19.5005C6.00033 18.672 6.6719 18.0005 7.50033 18.0005ZM16.5003 18.0005C17.3286 18.0007 18.0003 18.6722 18.0003 19.5005C18.0003 20.3288 17.3286 21.0003 16.5003 21.0005C15.672 21.0005 15.0004 20.329 15.0003 19.5005C15.0003 18.6721 15.6719 18.0005 16.5003 18.0005ZM2.08431 2.75146C2.22173 2.36086 2.64971 2.15524 3.04037 2.29248L3.34212 2.39893C3.95838 2.61556 4.4819 2.79935 4.89388 3.00146C5.33439 3.21761 5.71227 3.48423 5.99642 3.8999C6.2784 4.31254 6.39484 4.76583 6.44857 5.26221C6.4726 5.48434 6.48583 5.73026 6.49252 6.00049H17.1302C18.8151 6.00049 20.3317 6.00068 20.7757 6.57764C21.2196 7.15472 21.0466 8.02412 20.6995 9.76318L20.1995 12.188C19.8845 13.7168 19.7268 14.4816 19.1751 14.9312C18.6235 15.3805 17.843 15.3804 16.2826 15.3804H10.9788C8.19015 15.3804 6.7954 15.3802 5.92904 14.4663C5.06291 13.5526 4.99935 12.5813 4.99935 9.64014V7.03857C4.99935 6.2987 4.99851 5.80352 4.95736 5.42334C4.91803 5.06001 4.8484 4.87866 4.75814 4.74658C4.6701 4.61775 4.53681 4.49689 4.23373 4.34814C3.91089 4.18973 3.47164 4.03403 2.80404 3.79932L2.5433 3.70752C2.15253 3.57014 1.94692 3.14222 2.08431 2.75146ZM10.2396 8.87549C10.1705 8.4671 9.78275 8.19205 9.37435 8.26123C8.96626 8.33059 8.69108 8.71731 8.76009 9.12549L9.28841 12.2437C9.35764 12.652 9.74533 12.9271 10.1536 12.8579C10.5619 12.7886 10.8371 12.401 10.7679 11.9927L10.2396 8.87549ZM15.6536 8.26123C15.2452 8.19205 14.8576 8.4671 14.7884 8.87549L14.2611 11.9927C14.1919 12.4009 14.4663 12.7885 14.8744 12.8579C15.2827 12.9271 15.6703 12.652 15.7396 12.2437L16.2679 9.12549C16.337 8.71719 16.0619 8.33046 15.6536 8.26123Z" fill="#1C274C"/>
</svg>
