<svg width="24" height="24" viewBox="0 0 24 24" fill="none" xmlns="http://www.w3.org/2000/svg">
<path d="M13 2C16.7712 2 18.6566 2.00031 19.8281 3.17188C20.9997 4.34346 21 6.22878 21 10V14C21 17.7712 20.9997 19.6566 19.8281 20.8281C18.6566 21.9997 16.7712 22 13 22H11C7.22878 22 5.34346 21.9997 4.17188 20.8281C3.00031 19.6566 3 17.7712 3 14V10C3 6.22876 3.00031 4.34345 4.17188 3.17188C5.34345 2.00031 7.22876 2 11 2H13ZM8 13.25C7.58579 13.25 7.25 13.5858 7.25 14C7.25 14.4142 7.58579 14.75 8 14.75H13C13.4142 14.75 13.75 14.4142 13.75 14C13.75 13.5858 13.4142 13.25 13 13.25H8ZM8 9.25C7.58579 9.25 7.25 9.58579 7.25 10C7.25 10.4142 7.58579 10.75 8 10.75H16C16.4142 10.75 16.75 10.4142 16.75 10C16.75 9.58579 16.4142 9.25 16 9.25H8Z" fill="#1C274C"/>
</svg>
