<svg width="24" height="24" viewBox="0 0 24 24" fill="none" xmlns="http://www.w3.org/2000/svg">
<path d="M12 2C17.5228 2 22 6.47715 22 12C22 15.1255 20.5662 17.9163 18.3203 19.75L10.4209 11.4814C10.2093 11.2601 9.88396 11.1899 9.59961 11.3037C9.31515 11.4178 9.12891 11.6935 9.12891 12V16.5C9.12891 16.9142 9.4647 17.25 9.87891 17.25C10.2929 17.2497 10.6279 16.914 10.6279 16.5V13.8701L17.0752 20.6182C15.5875 21.4962 13.8526 22 12 22C6.47715 22 2 17.5228 2 12C2 8.87646 3.43236 6.08771 5.67578 4.25391L13.3281 12.5098C13.5378 12.7361 13.865 12.8109 14.1523 12.6982C14.4395 12.5856 14.6279 12.3085 14.6279 12V7.5C14.6279 7.08584 14.2921 6.75 13.8779 6.75C13.464 6.75025 13.128 7.086 13.1279 7.5V10.0879L6.91699 3.38672C8.40642 2.50593 10.1443 2 12 2Z" fill="#48465C"/>
</svg>
