<svg width="24" height="24" viewBox="0 0 24 24" fill="none" xmlns="http://www.w3.org/2000/svg">
<path d="M12.0576 1.25C14.3657 1.24999 16.1745 1.24974 17.5859 1.43945C19.0306 1.63369 20.1706 2.03977 21.0654 2.93457C21.9602 3.82938 22.3662 4.96932 22.5605 6.41406C22.7502 7.82544 22.75 9.63432 22.75 11.9424V12.0576C22.75 14.3657 22.7502 16.1745 22.5605 17.5859C22.3662 19.0306 21.9602 20.1706 21.0654 21.0654C20.1706 21.9602 19.0306 22.3662 17.5859 22.5605C16.1745 22.7502 14.3657 22.75 12.0576 22.75H11.9424C9.63432 22.75 7.82544 22.7502 6.41406 22.5605C4.96932 22.3662 3.82938 21.9602 2.93457 21.0654C2.03977 20.1706 1.63369 19.0306 1.43945 17.5859C1.24974 16.1745 1.24999 14.3657 1.25 12.0576V11.9424C1.24999 9.63433 1.24974 7.82544 1.43945 6.41406C1.63369 4.96932 2.03976 3.82938 2.93457 2.93457C3.82938 2.03976 4.96932 1.63369 6.41406 1.43945C7.82544 1.24974 9.63433 1.24999 11.9424 1.25H12.0576ZM12 2.75C9.62178 2.75 7.91326 2.75198 6.61328 2.92676C5.33508 3.09865 4.56472 3.42551 3.99512 3.99512C3.42551 4.56472 3.09865 5.33508 2.92676 6.61328C2.75198 7.91326 2.75 9.62178 2.75 12C2.75 14.3782 2.75198 16.0867 2.92676 17.3867C3.09865 18.6649 3.42551 19.4352 3.99512 20.0049C4.56472 20.5745 5.33508 20.9014 6.61328 21.0732C7.91326 21.248 9.62178 21.25 12 21.25C14.3782 21.25 16.0867 21.248 17.3867 21.0732C18.6649 20.9014 19.4352 20.5745 20.0049 20.0049C20.5745 19.4352 20.9014 18.6649 21.0732 17.3867C21.248 16.0867 21.25 14.3782 21.25 12C21.25 9.62178 21.248 7.91326 21.0732 6.61328C20.9014 5.33508 20.5745 4.56472 20.0049 3.99512C19.4352 3.42551 18.6649 3.09865 17.3867 2.92676C16.0867 2.75198 14.3782 2.75 12 2.75ZM12 5.75C12.4142 5.75 12.75 6.08579 12.75 6.5V12.5C12.75 14.2949 14.2051 15.75 16 15.75H16.1895L15.9697 15.5303C15.6768 15.2374 15.6768 14.7626 15.9697 14.4697C16.2626 14.1768 16.7374 14.1768 17.0303 14.4697L18.5303 15.9697C18.8232 16.2626 18.8232 16.7374 18.5303 17.0303L17.0303 18.5303C16.7374 18.8232 16.2626 18.8232 15.9697 18.5303C15.6768 18.2374 15.6768 17.7626 15.9697 17.4697L16.1895 17.25H16C14.3205 17.25 12.8446 16.3781 12 15.0625C11.1554 16.3781 9.67947 17.25 8 17.25H7.81055L8.03027 17.4697C8.32316 17.7626 8.32316 18.2374 8.03027 18.5303C7.73739 18.8232 7.26261 18.8232 6.96973 18.5303L5.46973 17.0303C5.17684 16.7374 5.17684 16.2626 5.46973 15.9697L6.96973 14.4697C7.26261 14.1768 7.73739 14.1768 8.03027 14.4697C8.32316 14.7626 8.32316 15.2374 8.03027 15.5303L7.81055 15.75H8C9.79493 15.75 11.25 14.2949 11.25 12.5V6.5C11.25 6.08579 11.5858 5.75 12 5.75Z" fill="#1C274C"/>
</svg>
