<svg width="24" height="24" viewBox="0 0 24 24" fill="none" xmlns="http://www.w3.org/2000/svg">
<path d="M13.2002 8C15.4627 8 16.5939 8.00018 17.2969 8.69238C17.9998 9.38468 18 10.499 18 12.7275V15.2725C18 17.501 17.9998 18.6153 17.2969 19.3076C16.5939 19.9998 15.4627 20 13.2002 20H12.75V22C12.75 22.4142 12.4142 22.75 12 22.75C11.5858 22.75 11.25 22.4142 11.25 22V20H10.7998C8.53725 20 7.40606 19.9998 6.70312 19.3076C6.00019 18.6153 6 17.501 6 15.2725V12.7275C6 10.499 6.00019 9.38468 6.70312 8.69238C7.40606 8.00016 8.53725 8 10.7998 8H13.2002ZM12.4502 11.4004C12.1189 11.152 11.649 11.2187 11.4004 11.5498L9.90039 13.5498C9.73003 13.777 9.70228 14.0809 9.8291 14.335C9.95614 14.5891 10.2159 14.75 10.5 14.75H12L11.4004 15.5498C11.152 15.8811 11.2187 16.351 11.5498 16.5996C11.8811 16.848 12.351 16.7813 12.5996 16.4502L14.0996 14.4502C14.2699 14.223 14.2978 13.9191 14.1709 13.665C14.0439 13.4109 13.7841 13.25 13.5 13.25H12L12.5996 12.4502C12.848 12.1189 12.7813 11.649 12.4502 11.4004ZM12 2C13.4045 2 14.1069 1.99985 14.6113 2.33691C14.8297 2.48282 15.0172 2.67034 15.1631 2.88867C15.5002 3.39312 15.5 4.09554 15.5 5.5V7.04785C14.8683 6.99993 14.1217 6.99997 13.2676 7H10.7324C9.87835 6.99997 9.13176 6.99993 8.5 7.04785V5.5C8.5 4.09554 8.49985 3.39312 8.83691 2.88867C8.98281 2.67034 9.17034 2.48281 9.38867 2.33691C9.89312 1.99985 10.5955 2 12 2ZM11 3.75C10.5858 3.75 10.25 4.08579 10.25 4.5C10.25 4.91421 10.5858 5.25 11 5.25H13C13.4142 5.25 13.75 4.91421 13.75 4.5C13.75 4.08579 13.4142 3.75 13 3.75H11Z" fill="#48465C"/>
</svg>
