<svg width="24" height="24" viewBox="0 0 24 24" fill="none" xmlns="http://www.w3.org/2000/svg">
<path d="M1.70508 6.31055C2.08535 6.14794 2.52604 6.32422 2.68945 6.7041L2.69043 6.70605L2.69629 6.71973C2.70218 6.73292 2.71128 6.75463 2.72461 6.7832C2.75127 6.84036 2.79287 6.92698 2.84961 7.03809C2.9633 7.2607 3.13791 7.58067 3.375 7.95996C3.8506 8.72083 4.57165 9.70757 5.55566 10.6221C6.42156 11.4268 7.48289 12.1681 8.75195 12.6562C9.70638 13.0234 10.7855 13.25 12 13.25C13.2417 13.25 14.3421 13.0129 15.3125 12.6309C16.5738 12.1344 17.6274 11.3882 18.4863 10.582C19.4558 9.67199 20.1672 8.69531 20.6357 7.94336C20.8692 7.56873 21.0404 7.25274 21.1523 7.0332C21.2083 6.92349 21.2491 6.83757 21.2754 6.78125C21.2884 6.75334 21.2979 6.73271 21.3037 6.71973L21.3105 6.70605V6.70508L22.3643 6.34473C22.6968 6.52897 22.8425 6.93892 22.6895 7.2959L22.6875 7.2998L22.6846 7.30762L22.6738 7.33105C22.6649 7.3511 22.6522 7.37958 22.6357 7.41504C22.6024 7.48639 22.5537 7.58843 22.4893 7.71484C22.3604 7.96749 22.1673 8.32158 21.9082 8.7373C21.4826 9.42024 20.8727 10.2785 20.0625 11.1309L21.0303 12.0986C21.3231 12.3915 21.323 12.8663 21.0303 13.1592C20.7374 13.4521 20.2625 13.4521 19.9697 13.1592L18.9688 12.1592C18.3092 12.7117 17.5529 13.2301 16.6953 13.6562L17.6289 15.0918C17.8544 15.4388 17.7561 15.9031 17.4092 16.1289C17.062 16.3548 16.5971 16.2564 16.3711 15.9092L15.2822 14.2354C14.5028 14.4899 13.659 14.6626 12.75 14.7246V16.5C12.75 16.9142 12.4142 17.25 12 17.25C11.5858 17.25 11.25 16.9142 11.25 16.5V14.7246C10.3691 14.6645 9.54926 14.5006 8.79004 14.2588L7.71582 15.9092C7.48992 16.2564 7.02492 16.3548 6.67773 16.1289C6.33092 15.9029 6.23326 15.4389 6.45898 15.0918L7.37109 13.6895C6.50671 13.2673 5.74352 12.7502 5.07812 12.1982L4.11719 13.1592C3.8243 13.4521 3.34954 13.4521 3.05664 13.1592C2.76409 12.8663 2.76386 12.3914 3.05664 12.0986L3.98047 11.1748C3.15605 10.3152 2.53497 9.44669 2.10254 8.75488C1.8397 8.33437 1.64436 7.97563 1.51367 7.71973C1.44838 7.59186 1.39893 7.48923 1.36523 7.41699C1.34839 7.38089 1.33527 7.35241 1.32617 7.33203L1.31543 7.30762L1.3125 7.2998L1.31152 7.29785L1.31055 7.29688C1.14738 6.91614 1.32435 6.47372 1.70508 6.31055Z" fill="#48465C"/>
</svg>
