<svg width="24" height="24" viewBox="0 0 24 24" fill="none" xmlns="http://www.w3.org/2000/svg">
<path d="M1.70527 6.31055C2.08555 6.14791 2.52623 6.32421 2.68964 6.70411L2.69062 6.70606L2.69648 6.71973C2.70234 6.73286 2.71162 6.75397 2.7248 6.78223C2.75146 6.83939 2.793 6.92686 2.8498 7.03809C2.96349 7.2607 3.13816 7.58076 3.37519 7.95997C3.85079 8.72082 4.5719 9.70763 5.55586 10.6221C6.42174 11.4267 7.48313 12.1681 8.75214 12.6563C9.70656 13.0234 10.7857 13.25 12.0002 13.25C13.2419 13.25 14.3423 13.0129 15.3127 12.6309C16.574 12.1344 17.6275 11.3882 18.4865 10.582C19.456 9.672 20.1674 8.69532 20.6359 7.94337C20.8693 7.56876 21.0405 7.25276 21.1525 7.03321C21.2085 6.9235 21.2493 6.83758 21.2756 6.78126C21.2886 6.75338 21.2981 6.73275 21.3039 6.71973L21.3107 6.70606V6.70509L22.3644 6.34473C22.697 6.529 22.8427 6.93896 22.6896 7.29591L22.6887 7.29688L22.6877 7.29981L22.6848 7.30762L22.674 7.33106C22.665 7.35114 22.6525 7.37952 22.6359 7.41505C22.6026 7.4864 22.5538 7.58844 22.4894 7.71485C22.3606 7.96746 22.1674 8.32073 21.9084 8.73634C21.4828 9.41938 20.8731 10.2783 20.0627 11.1309L21.0305 12.0986C21.3233 12.3915 21.3233 12.8663 21.0305 13.1592C20.7376 13.4521 20.2627 13.4521 19.9699 13.1592L18.9689 12.1592C18.3094 12.7117 17.553 13.2302 16.6955 13.6563L17.6291 15.0908C17.855 15.4379 17.7565 15.903 17.4094 16.1289C17.0622 16.3548 16.5973 16.2564 16.3713 15.9092L15.2824 14.2354C14.503 14.4899 13.6592 14.6626 12.7502 14.7246V16.5C12.7502 16.9142 12.4144 17.25 12.0002 17.25C11.586 17.25 11.2502 16.9142 11.2502 16.5V14.7246C10.3693 14.6645 9.54944 14.5006 8.79023 14.2588L7.71601 15.9092C7.49011 16.2564 7.02512 16.3548 6.67793 16.1289C6.331 15.9029 6.23334 15.4379 6.45918 15.0908L7.37129 13.6895C6.50691 13.2673 5.74371 12.7502 5.07832 12.1982L4.11738 13.1592C3.82448 13.452 3.34971 13.4521 3.05683 13.1592C2.76419 12.8663 2.76405 12.3915 3.05683 12.0986L3.98066 11.1748C3.1562 10.3152 2.53518 9.44673 2.10273 8.75489C1.83985 8.33432 1.64457 7.97566 1.51386 7.71973C1.44854 7.59181 1.39913 7.48926 1.36543 7.417C1.3486 7.38093 1.33547 7.35243 1.32636 7.33204L1.31562 7.30762L1.31269 7.29981L1.31172 7.29688H1.31074C1.14757 6.91615 1.32454 6.47372 1.70527 6.31055Z" fill="#1C274C"/>
</svg>
