<svg width="24" height="24" viewBox="0 0 24 24" fill="none" xmlns="http://www.w3.org/2000/svg">
<path d="M4.57031 18.8652C5.25729 17.7919 6.7279 17.8272 7.45801 18.7617C8.44797 20.0289 9.82963 21.2499 12 21.25C14.2086 21.25 15.5696 20.2708 16.5049 19.0205C17.2248 18.0582 18.791 17.9018 19.5459 19.0439C20.1708 19.9893 20.8489 20.7302 22.1719 21.042C22.575 21.137 22.8254 21.5412 22.7305 21.9443C22.6355 22.3475 22.2312 22.597 21.8281 22.502C19.9762 22.0655 19.0201 20.9688 18.2939 19.8701C18.2371 19.7844 18.1518 19.7411 18.041 19.7432C17.9224 19.7454 17.7934 19.8031 17.7061 19.9199C16.5384 21.4806 14.76 22.75 12 22.75C9.15753 22.7499 7.38848 21.1103 6.27539 19.6855C6.2038 19.5938 6.11068 19.559 6.03027 19.5605C5.95443 19.5622 5.88474 19.5946 5.83398 19.6738C5.09449 20.8299 4.13898 22.0385 2.17188 22.502C1.76877 22.5968 1.3655 22.3475 1.27051 21.9443C1.17551 21.5411 1.42496 21.137 1.82812 21.042C3.22903 20.7119 3.90803 19.9006 4.57031 18.8652ZM4.57031 13.8652C5.25729 12.7919 6.7279 12.8272 7.45801 13.7617C8.44797 15.0289 9.82963 16.2499 12 16.25C14.2086 16.25 15.5696 15.2708 16.5049 14.0205C17.2248 13.0582 18.791 12.9018 19.5459 14.0439C20.1708 14.9893 20.8489 15.7302 22.1719 16.042C22.575 16.137 22.8254 16.5412 22.7305 16.9443C22.6355 17.3475 22.2312 17.597 21.8281 17.502C19.9762 17.0655 19.0201 15.9688 18.2939 14.8701C18.2371 14.7844 18.1518 14.7411 18.041 14.7432C17.9224 14.7454 17.7934 14.8031 17.7061 14.9199C16.5384 16.4806 14.76 17.75 12 17.75C9.15753 17.7499 7.38848 16.1103 6.27539 14.6855C6.2038 14.5938 6.11068 14.559 6.03027 14.5605C5.95443 14.5622 5.88474 14.5946 5.83398 14.6738C5.09449 15.8299 4.13898 17.0385 2.17188 17.502C1.76877 17.5968 1.3655 17.3475 1.27051 16.9443C1.17551 16.5411 1.42496 16.137 1.82812 16.042C3.22903 15.7119 3.90803 14.9006 4.57031 13.8652ZM3 11.25C3.41421 11.25 3.75 11.5858 3.75 12C3.75 12.4142 3.41421 12.75 3 12.75H2C1.58586 12.7499 1.25 12.4141 1.25 12C1.25 11.5859 1.58586 11.2501 2 11.25H3ZM22 11.25C22.4142 11.25 22.75 11.5858 22.75 12C22.75 12.4142 22.4142 12.75 22 12.75H21C20.5859 12.7499 20.25 12.4141 20.25 12C20.25 11.5859 20.5859 11.2501 21 11.25H22ZM12 5.25C15.3454 5.25 18.1216 7.68299 18.6572 10.876C18.7257 11.2844 18.4495 11.6707 18.041 11.7393C17.6326 11.8076 17.2462 11.5324 17.1777 11.124C16.7612 8.64161 14.6007 6.75 12 6.75C9.39954 6.75009 7.23976 8.64171 6.82324 11.124C6.7547 11.5325 6.36749 11.8078 5.95898 11.7393C5.55059 11.6706 5.27525 11.2844 5.34375 10.876C5.87942 7.68304 8.65475 5.25009 12 5.25ZM4.39941 4.39844C4.69231 4.10573 5.16712 4.10567 5.45996 4.39844L5.85254 4.79102C6.14543 5.08391 6.14543 5.55964 5.85254 5.85254C5.55968 6.14505 5.0848 6.14516 4.79199 5.85254L4.39941 5.45898C4.10659 5.16609 4.10655 4.69131 4.39941 4.39844ZM18.54 4.39844C18.8328 4.1058 19.3077 4.10591 19.6006 4.39844C19.8935 4.69133 19.8935 5.16707 19.6006 5.45996L19.208 5.85254C18.9152 6.1453 18.4404 6.14523 18.1475 5.85254C17.8546 5.55966 17.8546 5.08489 18.1475 4.79199L18.54 4.39844ZM12 1.25C12.4142 1.25 12.75 1.58579 12.75 2V3C12.75 3.41421 12.4142 3.75 12 3.75C11.5859 3.7499 11.25 3.41415 11.25 3V2C11.25 1.58585 11.5859 1.2501 12 1.25Z" fill="#48465C"/>
</svg>
