<svg width="24" height="24" viewBox="0 0 24 24" fill="none" xmlns="http://www.w3.org/2000/svg">
<path d="M13.2043 9.00952C13.7714 8.9186 14.2647 9.50872 15.2512 10.6892L15.5071 10.9939C15.7873 11.3292 15.9272 11.4974 16.1165 11.5925C16.306 11.6877 16.5238 11.6999 16.9583 11.7234L17.3538 11.7449C18.8824 11.8276 19.6464 11.8688 19.9163 12.3796C20.186 12.8907 19.7824 13.5333 18.9749 14.8181L18.7659 15.1501C18.5364 15.5152 18.4224 15.6982 18.3928 15.906C18.3633 16.1137 18.4216 16.3232 18.5393 16.7419L18.6467 17.1238C19.0611 18.5987 19.2678 19.3361 18.8674 19.7429C18.467 20.1496 17.7241 19.9565 16.2385 19.5701L15.8547 19.4705C15.4326 19.3606 15.2207 19.3053 15.0129 19.3386C14.8054 19.372 14.6244 19.49 14.2629 19.7253L13.9338 19.9392C12.6609 20.768 12.0243 21.1823 11.5071 20.9226C10.9902 20.6628 10.9351 19.901 10.8245 18.3777L10.7952 17.9841C10.7637 17.5514 10.7484 17.3344 10.6497 17.1472C10.551 16.96 10.3796 16.8232 10.0383 16.5496L9.72778 16.3005C8.52677 15.338 7.92626 14.8561 8.00708 14.2888C8.08806 13.7217 8.79698 13.4444 10.2141 12.8894L10.5803 12.7458C10.983 12.5881 11.1847 12.5091 11.3313 12.3601C11.478 12.2111 11.5536 12.0087 11.7043 11.6042L11.842 11.2361C12.3726 9.81252 12.6375 9.1006 13.2043 9.00952ZM13.0608 2.01245C13.8168 2.1413 14.1709 3.15004 14.8782 5.16675L15.0608 5.68921C15.2618 6.26199 15.3625 6.54846 15.5579 6.75952C15.7534 6.97061 16.0221 7.08299 16.5588 7.3064L17.0481 7.50952C18.9379 8.2959 19.8827 8.68925 19.9905 9.49292C20.0353 9.82742 19.9226 10.1407 19.6604 10.491C19.5719 10.467 19.4866 10.4478 19.4065 10.4314C18.8803 10.3245 18.2107 10.2884 17.5286 10.2517L17.0393 10.2253C16.9451 10.2202 16.8715 10.2158 16.8088 10.2117C16.7673 10.1631 16.7191 10.1056 16.6575 10.032L16.342 9.65405C15.9018 9.1271 15.4711 8.61163 15.0706 8.25366C14.6433 7.8718 13.9286 7.37393 12.967 7.52808C11.9955 7.68394 11.4771 8.39064 11.1975 8.89526C10.9384 9.36279 10.705 9.98832 10.469 10.6218L10.2991 11.0798C10.2702 11.157 10.2471 11.2191 10.2268 11.2722C10.1734 11.2936 10.1109 11.3181 10.0334 11.3484L9.57837 11.5271C8.94757 11.774 8.32502 12.0173 7.86157 12.2839C7.3629 12.5708 6.6619 13.1011 6.52271 14.0769C6.38496 15.0437 6.89953 15.7501 7.28931 16.1687C7.5798 16.4807 7.97027 16.81 8.38696 17.1472C6.81871 17.5726 5.98425 17.731 5.51001 17.2195C4.97611 16.6432 5.25244 15.598 5.80493 13.5085L5.94751 12.9685C6.10451 12.3747 6.18327 12.0774 6.1438 11.783C6.1043 11.4886 5.95071 11.2297 5.64478 10.7126L5.36646 10.2419C4.28982 8.42205 3.75203 7.51189 4.11157 6.78784C4.47126 6.06409 5.49027 6.00564 7.52856 5.88843L8.05591 5.85815C8.63523 5.82484 8.92539 5.80738 9.17798 5.67261C9.43032 5.53779 9.61688 5.29989 9.99048 4.82495L10.3313 4.39233C11.6467 2.72011 12.3047 1.88366 13.0608 2.01245Z" fill="#48465C"/>
</svg>
