<svg width="24" height="24" viewBox="0 0 24 24" fill="none" xmlns="http://www.w3.org/2000/svg">
<path d="M12.0576 1.25C14.3657 1.24999 16.1745 1.24974 17.5859 1.43945C19.0306 1.63369 20.1706 2.03977 21.0654 2.93457C21.9602 3.82938 22.3662 4.96932 22.5605 6.41406C22.7502 7.82544 22.75 9.63432 22.75 11.9424V12.0576C22.75 14.3657 22.7502 16.1745 22.5605 17.5859C22.3662 19.0306 21.9602 20.1706 21.0654 21.0654C20.1706 21.9602 19.0306 22.3662 17.5859 22.5605C16.1745 22.7502 14.3657 22.75 12.0576 22.75H11.9424C9.63432 22.75 7.82544 22.7502 6.41406 22.5605C4.96932 22.3662 3.82938 21.9602 2.93457 21.0654C2.03977 20.1706 1.63369 19.0306 1.43945 17.5859C1.24974 16.1745 1.24999 14.3657 1.25 12.0576V11.9424C1.24999 9.63433 1.24974 7.82544 1.43945 6.41406C1.63369 4.96932 2.03976 3.82938 2.93457 2.93457C3.82938 2.03976 4.96932 1.63369 6.41406 1.43945C7.82544 1.24974 9.63433 1.24999 11.9424 1.25H12.0576ZM12 2.75C9.62178 2.75 7.91326 2.75198 6.61328 2.92676C5.33508 3.09865 4.56472 3.42551 3.99512 3.99512C3.42551 4.56472 3.09865 5.33508 2.92676 6.61328C2.75198 7.91326 2.75 9.62178 2.75 12C2.75 14.3782 2.75198 16.0867 2.92676 17.3867C3.09865 18.6649 3.42551 19.4352 3.99512 20.0049C4.56472 20.5745 5.33508 20.9014 6.61328 21.0732C7.91326 21.248 9.62178 21.25 12 21.25C14.3782 21.25 16.0867 21.248 17.3867 21.0732C18.6649 20.9014 19.4352 20.5745 20.0049 20.0049C20.5745 19.4352 20.9014 18.6649 21.0732 17.3867C21.248 16.0867 21.25 14.3782 21.25 12C21.25 9.62178 21.248 7.91326 21.0732 6.61328C20.9014 5.33508 20.5745 4.56472 20.0049 3.99512C19.4352 3.42551 18.6649 3.09865 17.3867 2.92676C16.0867 2.75198 14.3782 2.75 12 2.75ZM17.5 5.25C18.7426 5.25 19.75 6.25736 19.75 7.5V14.25H20C20.4142 14.25 20.75 14.5858 20.75 15C20.75 15.4142 20.4142 15.75 20 15.75H17.6572C16.7793 15.75 16.5481 15.7631 16.3506 15.8447C16.1529 15.9266 15.9797 16.0808 15.3584 16.7021L15.1289 16.9316C15.1037 16.9568 15.0792 16.9822 15.0547 17.0068C14.6227 17.4395 14.2811 17.781 13.8467 17.9863C13.7658 18.0245 13.6829 18.0587 13.5986 18.0889C13.1463 18.2509 12.6631 18.2505 12.0518 18.25H11.834C11.1877 18.2505 10.6767 18.2507 10.2031 18.0713C10.1151 18.0379 10.0285 18.0002 9.94434 17.958C9.49175 17.7309 9.14607 17.3548 8.70898 16.8789C8.68406 16.8518 8.65934 16.8237 8.63379 16.7959L8.59766 16.7578C8.0096 16.1186 7.84566 15.9588 7.65527 15.8691C7.63513 15.8597 7.61437 15.8512 7.59375 15.8428C7.39878 15.7634 7.17049 15.75 6.30176 15.75H4C3.58579 15.75 3.25 15.4142 3.25 15C3.25 14.5858 3.58579 14.25 4 14.25H4.25V7.5C4.25 6.25736 5.25736 5.25 6.5 5.25H17.5ZM6.5 12.75C6.08579 12.75 5.75 13.0858 5.75 13.5V14.25H6.4209C7.11124 14.2494 7.65748 14.249 8.15918 14.4531C8.20442 14.4716 8.24975 14.4909 8.29395 14.5117C8.78412 14.7427 9.15404 15.1457 9.62109 15.6543C9.6477 15.6833 9.67487 15.7126 9.70215 15.7422L9.7373 15.7803C10.2875 16.3784 10.4413 16.529 10.6172 16.6172C10.6554 16.6363 10.6945 16.6539 10.7344 16.6689C10.9185 16.7387 11.1334 16.75 11.9463 16.75C12.714 16.75 12.9169 16.7397 13.0928 16.6768C13.1311 16.6631 13.1693 16.6473 13.2061 16.6299C13.3748 16.5501 13.5257 16.4138 14.0684 15.8711L14.3838 15.5557C14.8772 15.0613 15.268 14.6696 15.7764 14.459C16.2847 14.2486 16.8377 14.2494 17.5361 14.25H18.25V13.5C18.25 13.0858 17.9142 12.75 17.5 12.75H6.5ZM6.5 9.75C6.08579 9.75 5.75 10.0858 5.75 10.5V11.3779C5.98457 11.295 6.23703 11.25 6.5 11.25H17.5C17.763 11.25 18.0154 11.295 18.25 11.3779V10.5C18.25 10.0858 17.9142 9.75 17.5 9.75H6.5ZM6.5 6.75C6.08579 6.75 5.75 7.08579 5.75 7.5V8.37793C5.98457 8.29503 6.23703 8.25 6.5 8.25H17.5C17.763 8.25 18.0154 8.29503 18.25 8.37793V7.5C18.25 7.08579 17.9142 6.75 17.5 6.75H6.5Z" fill="#1C274C"/>
</svg>
