<svg width="24" height="24" viewBox="0 0 24 24" fill="none" xmlns="http://www.w3.org/2000/svg">
<path d="M12.6183 3.77783C14.7914 2.39036 15.8787 1.69653 16.714 2.12646C17.5492 2.55646 17.5799 3.82547 17.6417 6.36279L17.6573 7.02002C17.6748 7.74095 17.6846 8.10124 17.8331 8.4126C17.9817 8.72394 18.253 8.95098 18.796 9.40479L19.2902 9.81885C21.2016 11.4164 22.1576 12.2151 21.9786 13.1606C21.7995 14.1061 20.6042 14.5722 18.214 15.5044L17.5958 15.7456C16.9165 16.0106 16.5771 16.1431 16.3224 16.3921C16.0677 16.6412 15.9264 16.9782 15.6447 17.6528L15.3878 18.2681C14.3962 20.6425 13.9002 21.8294 12.9542 21.9839C12.0083 22.1381 11.2383 21.1581 9.69934 19.1968L9.30188 18.689C8.86456 18.1316 8.64591 17.8522 8.33997 17.6948C8.03397 17.5373 7.67449 17.5188 6.95715 17.4819L6.30481 17.4487C3.78041 17.3189 2.51807 17.2539 2.11243 16.4038C1.70684 15.5537 2.42636 14.4818 3.86536 12.3374L4.23743 11.7817C4.64612 11.1727 4.8505 10.8682 4.91614 10.522C4.98171 10.1756 4.9009 9.82606 4.73938 9.12842L4.5929 8.49365C4.02453 6.03861 3.7404 4.81118 4.43567 4.13135C5.13095 3.45157 6.34509 3.76962 8.77356 4.40576L9.40149 4.56982C10.0914 4.75056 10.4369 4.84116 10.7833 4.78467C11.1298 4.72809 11.4392 4.53148 12.0568 4.13721L12.6183 3.77783ZM18.4698 18.4702C18.7627 18.1773 19.2375 18.1773 19.5304 18.4702L21.5304 20.4702C21.823 20.7631 21.8232 21.238 21.5304 21.5308C21.2376 21.8234 20.7627 21.8233 20.4698 21.5308L18.4698 19.5308C18.177 19.2379 18.1771 18.7631 18.4698 18.4702Z" fill="#1C274C"/>
</svg>
