<svg width="24" height="24" viewBox="0 0 24 24" fill="none" xmlns="http://www.w3.org/2000/svg">
<path d="M16 21.25C16.4142 21.25 16.75 21.5858 16.75 22C16.75 22.4142 16.4142 22.75 16 22.75H8C7.58579 22.75 7.25 22.4142 7.25 22C7.25 21.5858 7.58579 21.25 8 21.25H16ZM19 18.25C19.4142 18.25 19.75 18.5858 19.75 19C19.75 19.4142 19.4142 19.75 19 19.75H5C4.58579 19.75 4.25 19.4142 4.25 19C4.25 18.5858 4.58579 18.25 5 18.25H19ZM12 5.25C15.7279 5.25 18.75 8.27208 18.75 12C18.75 13.1778 18.4476 14.2858 17.917 15.25H22C22.4142 15.25 22.75 15.5858 22.75 16C22.75 16.4142 22.4142 16.75 22 16.75H2C1.58579 16.75 1.25 16.4142 1.25 16C1.25 15.5858 1.58579 15.25 2 15.25H6.08301C5.55239 14.2858 5.25 13.1778 5.25 12C5.25 8.27208 8.27208 5.25 12 5.25ZM12 6.75C9.1005 6.75 6.75 9.1005 6.75 12C6.75 13.2139 7.16202 14.3295 7.85352 15.2188H16.1465C16.838 14.3295 17.25 13.2139 17.25 12C17.25 9.1005 14.8995 6.75 12 6.75ZM3 11.25C3.41421 11.25 3.75 11.5858 3.75 12C3.75 12.4142 3.41421 12.75 3 12.75H2C1.58579 12.75 1.25 12.4142 1.25 12C1.25 11.5858 1.58579 11.25 2 11.25H3ZM22 11.25C22.4142 11.25 22.75 11.5858 22.75 12C22.75 12.4142 22.4142 12.75 22 12.75H21C20.5858 12.75 20.25 12.4142 20.25 12C20.25 11.5858 20.5858 11.25 21 11.25H22ZM4.39844 4.39941C4.69129 4.10656 5.16608 4.10664 5.45898 4.39941L5.85156 4.79199C6.14446 5.08489 6.14446 5.55965 5.85156 5.85254C5.55866 6.14531 5.08387 6.14539 4.79102 5.85254L4.39844 5.45996C4.10571 5.1671 4.10571 4.69228 4.39844 4.39941ZM18.54 4.39941C18.8328 4.10658 19.3077 4.10675 19.6006 4.39941C19.8935 4.6923 19.8935 5.16706 19.6006 5.45996L19.208 5.85254C18.9151 6.14532 18.4403 6.14538 18.1475 5.85254C17.8549 5.55968 17.8548 5.08482 18.1475 4.79199L18.54 4.39941ZM12 1.25C12.4142 1.25 12.75 1.58579 12.75 2V3C12.75 3.41421 12.4142 3.75 12 3.75C11.5858 3.75 11.25 3.41421 11.25 3V2C11.25 1.58579 11.5858 1.25 12 1.25Z" fill="#48465C"/>
</svg>
