<svg width="24" height="24" viewBox="0 0 24 24" fill="none" xmlns="http://www.w3.org/2000/svg">
<path d="M12 1.25C12.4142 1.25 12.75 1.58579 12.75 2V2.25098C12.8612 2.25266 12.9564 2.25682 13.0449 2.26465C14.855 2.42486 16.2891 3.85988 16.4492 5.66992C16.4638 5.83531 16.4639 6.02267 16.4639 6.29785V7.52148C16.4636 11.3906 13.52 14.5721 9.75 14.9482V17C9.75 19.3472 11.6528 21.25 14 21.25H14.8828C16.1327 21.2499 17.2247 20.5682 17.8057 19.5557C16.3202 19.0569 15.25 17.6535 15.25 16C15.25 13.9289 16.9289 12.25 19 12.25C21.0711 12.25 22.75 13.9289 22.75 16C22.75 17.9405 21.276 19.5369 19.3867 19.7305C18.6591 21.5018 16.9176 22.7498 14.8828 22.75H14C10.8244 22.75 8.25 20.1756 8.25 17V14.9492C4.32173 14.5719 1.25003 11.2625 1.25 7.23535V6.29785C1.24997 6.02269 1.25004 5.83531 1.26465 5.66992C1.42472 3.85977 2.85977 2.42472 4.66992 2.26465C4.82553 2.2509 5.00063 2.25003 5.25 2.25V2C5.25 1.5858 5.58579 1.25001 6 1.25C6.41421 1.25 6.75 1.58579 6.75 2V4C6.75 4.41421 6.41421 4.75 6 4.75C5.58579 4.74999 5.25 4.41421 5.25 4V3.75C4.9866 3.75018 4.88388 3.75152 4.80176 3.75879C3.71572 3.85485 2.85485 4.71571 2.75879 5.80176C2.75078 5.89235 2.75 6.00803 2.75 6.33691V7.23535C2.75003 10.6871 5.54825 13.4853 9 13.4854C12.2938 13.4854 14.9636 10.8153 14.9639 7.52148V6.33691C14.9639 6.00803 14.9632 5.89235 14.9551 5.80176C14.859 4.71571 13.9982 3.85483 12.9121 3.75879C12.8699 3.75506 12.8222 3.75318 12.75 3.75195V4C12.75 4.41421 12.4142 4.75 12 4.75C11.5858 4.75 11.25 4.41421 11.25 4V2C11.25 1.58579 11.5858 1.25 12 1.25ZM19 13.75C17.7574 13.75 16.75 14.7574 16.75 16C16.75 17.2426 17.7574 18.25 19 18.25C20.2426 18.25 21.25 17.2426 21.25 16C21.25 14.7574 20.2426 13.75 19 13.75Z" fill="#48465C"/>
</svg>
