<svg width="24" height="24" viewBox="0 0 24 24" fill="none" xmlns="http://www.w3.org/2000/svg">
<path d="M19.1112 1.35254C20.2328 1.15301 21.2774 1.19167 22.0428 1.95703C22.808 2.72235 22.8469 3.76623 22.6473 4.8877C22.4492 6.00168 21.9673 7.44849 21.3612 9.2666L18.1932 18.7705C17.8694 19.7422 17.6038 20.5381 17.3231 21.127C17.0364 21.7286 16.6675 22.2626 16.0526 22.5332C15.7664 22.6592 15.4595 22.7316 15.1473 22.7471C14.4762 22.78 13.9073 22.4676 13.3817 22.0576C12.8674 21.6565 12.2739 21.0632 11.5497 20.3389L11.2616 20.0508C10.9782 19.7673 10.9056 19.6994 10.8339 19.6514C10.6775 19.5466 10.4954 19.485 10.3075 19.4736C10.2213 19.4685 10.1221 19.4783 9.72449 19.5322L9.62878 19.5459C8.99621 19.6318 8.48776 19.7007 8.07605 19.7314C7.65715 19.7627 7.27746 19.7596 6.91492 19.6709C5.64297 19.3598 4.65446 18.3582 4.36121 17.082C4.27763 16.7182 4.28107 16.3384 4.31824 15.9199C4.35476 15.5087 4.43051 15.0013 4.52527 14.3701L4.52917 14.3457C4.58696 13.9606 4.59793 13.8647 4.5946 13.7812C4.58671 13.5836 4.52314 13.3922 4.41199 13.2285C4.36501 13.1594 4.2995 13.0887 4.02429 12.8135L3.70398 12.4932C2.96003 11.7493 2.35096 11.1397 1.94128 10.6113C1.52225 10.0708 1.20564 9.48537 1.25476 8.7959C1.2743 8.52195 1.3382 8.25279 1.44324 7.99902C1.70763 7.3603 2.25244 6.97772 2.86902 6.68164C3.47188 6.39217 4.28974 6.1198 5.28796 5.78711L14.7333 2.63867C16.5511 2.0327 17.9973 1.55075 19.1112 1.35254ZM6.953 18.1074C7.05462 18.1516 7.16142 18.187 7.27136 18.2139C7.40866 18.2474 7.60586 18.2621 7.96472 18.2354C8.32577 18.2083 8.78909 18.1455 9.45105 18.0557L9.52332 18.0459C9.54265 18.0433 9.56203 18.0407 9.58093 18.0381C9.89247 17.9957 10.1466 17.9614 10.3983 17.9766C10.8522 18.004 11.291 18.1522 11.6688 18.4053C11.8782 18.5457 12.059 18.7269 12.2811 18.9492C12.2947 18.9629 12.3091 18.9763 12.3231 18.9902L12.5741 19.2412C13.3436 20.0107 13.8721 20.5376 14.3046 20.875C14.7339 21.2098 14.9432 21.2553 15.0731 21.249C15.2024 21.2426 15.3296 21.2122 15.4481 21.1602C15.5671 21.1078 15.7341 20.9736 15.9686 20.4814C16.2046 19.9864 16.4419 19.2793 16.786 18.2471L19.9169 8.85645C20.5491 6.95975 20.9943 5.61755 21.1708 4.625C21.2303 4.29042 21.2534 4.02454 21.2499 3.81055L6.953 18.1074ZM20.1893 2.74902C19.9752 2.74549 19.7087 2.76954 19.3739 2.8291C18.3814 3.00572 17.0399 3.45087 15.1434 4.08301L5.81238 7.19336C4.75182 7.54687 4.0254 7.79077 3.51843 8.03418C3.01553 8.27568 2.88064 8.44771 2.82898 8.57227C2.78552 8.67727 2.75895 8.78898 2.75085 8.90234C2.74126 9.03682 2.78474 9.25112 3.12683 9.69238C3.47141 10.1368 4.01209 10.6802 4.80261 11.4707L5.12488 11.793C5.3405 12.0084 5.51605 12.1837 5.6532 12.3857C5.92177 12.7812 6.07458 13.244 6.09363 13.7217C6.10334 13.9655 6.06578 14.2114 6.02039 14.5127C6.01763 14.5309 6.01539 14.5496 6.01257 14.5684C5.91336 15.2294 5.84442 15.692 5.81238 16.0527C5.78053 16.4113 5.7915 16.6083 5.82312 16.7461C5.8454 16.843 5.87516 16.9375 5.91101 17.0283L20.1893 2.74902Z" fill="#1C274C"/>
</svg>
