<svg width="24" height="24" viewBox="0 0 24 24" fill="none" xmlns="http://www.w3.org/2000/svg">
<path d="M10.5234 5.88672C10.6033 5.89027 10.6938 5.89663 10.7959 5.90723C13.1786 6.15453 14.9466 7.9429 16.124 9.70898L16.1865 9.80273C16.7892 10.7067 17.8041 11.25 18.8906 11.25H20.75C21.1642 11.25 21.5 11.5858 21.5 12C21.4998 12.414 21.1641 12.75 20.75 12.75H18.8906C17.3025 12.75 15.8195 11.956 14.9385 10.6348L14.876 10.541C14.6035 10.1323 14.3111 9.74389 13.999 9.38867L12.1152 11.7441C11.6881 12.278 11.4012 12.6372 11.208 12.9326C11.0208 13.2188 10.9673 13.3789 10.9531 13.5C10.9296 13.7 10.9547 13.9027 11.0264 14.0908C11.0699 14.2048 11.1606 14.3466 11.4121 14.5781C11.6719 14.8171 12.0387 15.0957 12.584 15.5088C12.616 15.5331 12.6475 15.5574 12.6787 15.5811C13.3995 16.1265 13.8987 16.5041 14.2441 17.0088C14.4405 17.2957 14.5959 17.6087 14.7061 17.9385C14.8997 18.5186 14.8998 19.1449 14.8994 20.0488V21.999C14.8994 22.4132 14.5636 22.749 14.1494 22.749C13.7353 22.7489 13.3994 22.4132 13.3994 21.999V20.1689C13.3994 19.0987 13.3909 18.7339 13.2842 18.4141C13.2181 18.2163 13.1245 18.0285 13.0068 17.8564C12.8164 17.5781 12.531 17.3505 11.6777 16.7041L11.6484 16.6826C11.1395 16.2969 10.7155 15.9751 10.3965 15.6816C10.0635 15.375 9.78575 15.0465 9.625 14.625C9.46719 14.211 9.41133 13.7652 9.46289 13.3252C9.5154 12.8772 9.7045 12.491 9.95215 12.1123C10.1894 11.7495 10.5218 11.3335 10.9209 10.835L12.9043 8.35547C12.2172 7.83289 11.4608 7.4845 10.6416 7.39941C10.5674 7.39172 10.5055 7.38696 10.4561 7.38477C10.3284 7.37915 10.1855 7.39149 10.0078 7.41602C8.94248 7.56312 7.87483 8.1555 5.55664 9.47266L4.12012 10.2881C3.76008 10.4925 3.30225 10.3667 3.09766 10.0068C2.89303 9.64665 3.01974 9.18802 3.37988 8.9834L4.81543 8.16797C4.86656 8.13892 4.91755 8.11057 4.96777 8.08203C7.08658 6.87783 8.41576 6.12219 9.80176 5.93066C10.0113 5.90173 10.2603 5.87506 10.5234 5.88672ZM8.17383 16.5195C8.43901 16.2013 8.91226 16.1587 9.23047 16.4238C9.54827 16.6891 9.59112 17.1614 9.32617 17.4795L8.3252 18.6807C8.29262 18.7197 8.26021 18.7588 8.22852 18.7969C7.5868 19.568 7.11559 20.1342 6.45801 20.4424C5.80003 20.7505 5.06241 20.7507 4.05859 20.75H2.75C2.33592 20.75 2.00022 20.414 2 20C2 19.5858 2.33579 19.25 2.75 19.25H3.9082C5.12976 19.25 5.50393 19.2326 5.82129 19.084C6.13857 18.9353 6.39108 18.6589 7.17285 17.7207L8.17383 16.5195ZM18.25 2C19.6307 2 20.75 3.11929 20.75 4.5C20.75 5.88071 19.6307 7 18.25 7C16.8693 7 15.75 5.88071 15.75 4.5C15.75 3.11929 16.8693 2 18.25 2Z" fill="#1C274C"/>
</svg>
