<svg width="24" height="24" viewBox="0 0 24 24" fill="none" xmlns="http://www.w3.org/2000/svg">
<path d="M12 1.25C17.9371 1.25 22.75 6.06294 22.75 12C22.75 17.9371 17.9371 22.75 12 22.75C6.06294 22.75 1.25 17.9371 1.25 12C1.25 6.06294 6.06294 1.25 12 1.25ZM12 2.75C6.89137 2.75 2.75 6.89137 2.75 12C2.75 17.1086 6.89137 21.25 12 21.25C17.1086 21.25 21.25 17.1086 21.25 12C21.25 6.89137 17.1086 2.75 12 2.75ZM13.5 6.25C15.2949 6.25 16.75 7.70507 16.75 9.5C16.75 11.2949 15.2949 12.75 13.5 12.75H10.75V13.25H12C12.4142 13.25 12.75 13.5858 12.75 14C12.75 14.4142 12.4142 14.75 12 14.75H10.75V17C10.75 17.4142 10.4142 17.75 10 17.75C9.58579 17.75 9.25 17.4142 9.25 17V14.75H9C8.58579 14.75 8.25 14.4142 8.25 14C8.25 13.5858 8.58579 13.25 9 13.25H9.25V12.75H9C8.58579 12.75 8.25 12.4142 8.25 12C8.25 11.5858 8.58579 11.25 9 11.25H9.25V8.16113C9.24982 8.01583 9.24962 7.86482 9.27148 7.72656C9.39008 6.97775 9.97779 6.39008 10.7266 6.27148C10.8648 6.24962 11.0159 6.24982 11.1611 6.25H13.5ZM11.002 7.75098C10.9744 7.75174 10.9619 7.75265 10.959 7.75293C10.8535 7.77043 10.7705 7.85351 10.7529 7.95898C10.7527 7.96186 10.7517 7.97431 10.751 8.00195C10.7498 8.04544 10.75 8.10335 10.75 8.2002V11.25H13.5C14.4665 11.25 15.25 10.4665 15.25 9.5C15.25 8.5335 14.4665 7.75 13.5 7.75H11.2002C11.1033 7.75 11.0454 7.74979 11.002 7.75098Z" fill="#1C274C"/>
</svg>
