<svg width="24" height="24" viewBox="0 0 24 24" fill="none" xmlns="http://www.w3.org/2000/svg">
<path fill-rule="evenodd" clip-rule="evenodd" d="M7.31679 1.6842C10.4119 1.1056 13.588 1.10558 16.683 1.6842L17.0062 1.74475C19.3527 2.18359 21.1429 4.09303 21.4223 6.46057C21.8471 10.0616 21.8591 13.6997 21.4574 17.3033L21.4398 17.4567C21.1537 20.0241 19.1397 22.0586 16.5727 22.3785L15.6566 22.4928C15.1715 22.5532 14.9169 22.5844 14.6625 22.611C12.8923 22.7958 11.1075 22.7958 9.3373 22.611C9.08281 22.5844 8.82851 22.5532 8.34316 22.4928L7.31777 22.3649C4.81433 22.0529 2.84693 20.073 2.55996 17.5699C2.14636 13.9616 2.14636 10.3178 2.55996 6.70959L2.57558 6.57287C2.85444 4.14008 4.69159 2.17484 7.10195 1.72424L7.31679 1.6842ZM16.4076 3.15881C13.4946 2.61425 10.5052 2.61425 7.59218 3.15881L7.37734 3.19885C5.61148 3.52897 4.26942 4.96754 4.06582 6.74377L4.05019 6.88049C3.6496 10.3752 3.6496 13.9042 4.05019 17.399C4.25797 19.2116 5.68381 20.6499 7.50332 20.8766L8.51796 21.0026C9.01535 21.0645 9.25469 21.095 9.49257 21.1197C11.1591 21.2937 12.8397 21.2937 14.5062 21.1197C14.7442 21.095 14.9833 21.0645 15.4809 21.0026L16.3871 20.8903C18.2684 20.6558 19.7407 19.1654 19.9496 17.2906L19.9662 17.1364C20.355 13.6464 20.3444 10.1237 19.933 6.63635C19.7308 4.92313 18.4339 3.53693 16.7299 3.21838L16.4076 3.15881ZM16.5795 5.37854C16.8939 5.16516 17.3252 5.22075 17.5746 5.51819C17.8404 5.83566 17.7992 6.30884 17.4818 6.57483C16.62 7.29668 14.6564 8.24954 12.0004 8.24963C9.34443 8.24963 7.38102 7.2967 6.51894 6.57483C6.20138 6.30888 6.15924 5.83575 6.42519 5.51819C6.69118 5.20085 7.16435 5.15953 7.48183 5.42541C8.05931 5.90882 9.67705 6.74963 12.0004 6.74963C14.1787 6.74955 15.7361 6.00988 16.3978 5.51916L16.5795 5.37854Z" fill="#1C274C"/>
</svg>
