<svg width="24" height="24" viewBox="0 0 24 24" fill="none" xmlns="http://www.w3.org/2000/svg">
<path d="M2.52148 3.73242C3.26869 3.1874 4.2591 3.06069 5.15137 3.57812L5.32812 3.69043L5.33691 3.69629L5.3457 3.70312L10.25 7.29004V7.12305C10.25 6.08739 10.7226 5.19016 11.4541 4.68066C12.2 4.16124 13.1988 4.0687 14.0732 4.64355L21.4902 9.52051C22.3605 10.0927 22.75 11.0822 22.75 12C22.75 12.9179 22.3605 13.9073 21.4902 14.4795L14.0732 19.3564C13.1988 19.9313 12.2 19.8388 11.4541 19.3193C10.7226 18.8098 10.25 17.9126 10.25 16.877V16.709L5.3457 20.2969L5.33691 20.3027L5.32812 20.3096C4.39196 20.9541 3.31849 20.8489 2.52148 20.2676C1.74473 19.7008 1.25 18.71 1.25 17.5732V6.42676C1.25002 5.28996 1.74472 4.29917 2.52148 3.73242ZM4.46875 4.9209C4.10536 4.67514 3.73144 4.70638 3.40527 4.94434C3.05628 5.19905 2.75002 5.71644 2.75 6.42676V17.5732C2.75 18.2836 3.0563 18.8009 3.40527 19.0557C3.73158 19.2937 4.10518 19.3243 4.46875 19.0781L10.25 14.8496V9.14941L4.46875 4.9209ZM13.249 5.89648C12.9298 5.68669 12.5976 5.71208 12.3115 5.91113C12.0111 6.12042 11.75 6.5425 11.75 7.12305V16.877C11.75 17.4575 12.0111 17.8796 12.3115 18.0889C12.5976 18.2879 12.9298 18.3133 13.249 18.1035L20.666 13.2266C21.0242 12.9911 21.25 12.5315 21.25 12C21.25 11.4686 21.0242 11.0089 20.666 10.7734L13.249 5.89648Z" fill="#1C274C"/>
</svg>
