<svg width="24" height="24" viewBox="0 0 24 24" fill="none" xmlns="http://www.w3.org/2000/svg">
<path d="M16.75 22H14.25V14H16.75V22ZM12.75 21.9912C11.664 21.9636 11.0248 21.8529 10.5859 21.4141C10.0835 20.9118 10.0122 20.1469 10.002 18.75H12.75V21.9912ZM20.998 18.75C20.9878 20.1469 20.9164 20.9118 20.4141 21.4141C19.9752 21.853 19.336 21.9636 18.25 21.9912V18.75H20.998ZM2.46973 12.4697C2.76262 12.1769 3.2374 12.1768 3.53027 12.4697L4.53027 13.4697C4.82314 13.7626 4.82314 14.2374 4.53027 14.5303C4.3198 14.7407 4.01533 14.8001 3.75195 14.708C3.7541 14.9959 3.75865 15.2921 3.76855 15.5674C3.77779 15.8241 3.79077 16.0515 3.80957 16.2305C3.82454 16.3729 3.83959 16.4465 3.84473 16.4717C3.84706 16.4832 3.84734 16.4848 3.84473 16.4785C3.9716 16.7847 4.21519 17.0285 4.52148 17.1553C4.59864 17.1873 4.71638 17.216 4.95703 17.2324C5.20445 17.2493 5.52401 17.25 6 17.25C6.41418 17.25 6.75 17.5858 6.75 18C6.75 18.4142 6.41418 18.75 6 18.75H5.97461C5.53018 18.75 5.15909 18.7503 4.85449 18.7295C4.53742 18.7079 4.23764 18.6613 3.94727 18.541C3.27356 18.2619 2.7381 17.7264 2.45898 17.0527C2.37451 16.8488 2.33938 16.5876 2.31836 16.3877C2.29436 16.1594 2.27931 15.8931 2.26953 15.6211C2.25887 15.3249 2.25415 15.0085 2.25195 14.707C1.98773 14.801 1.68123 14.7417 1.46973 14.5303C1.17684 14.2374 1.17684 13.7626 1.46973 13.4697L2.46973 12.4697ZM12.75 17.25H10.002C10.0122 15.8532 10.0835 15.0882 10.5859 14.5859C11.0248 14.1471 11.6641 14.0374 12.75 14.0098V17.25ZM18.25 14.0098C19.3359 14.0374 19.9752 14.1471 20.4141 14.5859C20.9165 15.0882 20.9878 15.8531 20.998 17.25H18.25V14.0098ZM18.0254 5.25C18.4697 5.24999 18.8409 5.24973 19.1455 5.27051C19.4626 5.29214 19.7624 5.33872 20.0527 5.45898C20.7264 5.7381 21.2619 6.27359 21.541 6.94727C21.6254 7.15119 21.6605 7.41234 21.6816 7.6123C21.7056 7.84056 21.7207 8.10694 21.7305 8.37891C21.7411 8.67507 21.7458 8.99146 21.748 9.29297C22.0122 9.19903 22.3188 9.25823 22.5303 9.46973C22.8231 9.76261 22.8231 10.2374 22.5303 10.5303L21.5303 11.5303C21.2374 11.8232 20.7626 11.8231 20.4697 11.5303L19.4697 10.5303C19.1768 10.2374 19.1768 9.76262 19.4697 9.46973C19.6802 9.25922 19.9847 9.19989 20.248 9.29199C20.2459 9.00417 20.2413 8.70792 20.2314 8.43262C20.2222 8.17587 20.2082 7.94857 20.1895 7.76953C20.1745 7.62707 20.1604 7.55355 20.1553 7.52832C20.153 7.51682 20.1526 7.51517 20.1553 7.52148C20.0284 7.21519 19.7847 6.9716 19.4785 6.84473C19.4013 6.81277 19.2837 6.784 19.043 6.76758C18.7955 6.75072 18.476 6.75 18 6.75C17.5858 6.75 17.25 6.41421 17.25 6C17.25 5.58579 17.5858 5.25 18 5.25H18.0254ZM10.25 10H6.75V2H10.25V10ZM5.25 9.99805C3.85308 9.98786 3.08829 9.9164 2.58594 9.41406C2.08358 8.91171 2.01214 8.14694 2.00195 6.75H5.25V9.99805ZM14.998 6.75C14.9878 8.14691 14.9164 8.91171 14.4141 9.41406C13.9118 9.91642 13.1469 9.98786 11.75 9.99805V6.75H14.998ZM5.25 5.25H2.00195C2.01214 3.85315 2.08366 3.08829 2.58594 2.58594C3.08829 2.08358 3.85306 2.01214 5.25 2.00195V5.25ZM11.75 2.00195C13.1469 2.01214 13.9118 2.08359 14.4141 2.58594C14.9163 3.08829 14.9878 3.8532 14.998 5.25H11.75V2.00195Z" fill="#48465C"/>
</svg>
