<svg width="24" height="24" viewBox="0 0 24 24" fill="none" xmlns="http://www.w3.org/2000/svg">
<path d="M7.50024 17.2505C8.74277 17.2506 9.75024 18.258 9.75024 19.5005C9.75009 20.7429 8.74268 21.7504 7.50024 21.7505C6.2577 21.7505 5.2504 20.743 5.25024 19.5005C5.25024 18.2579 6.2576 17.2505 7.50024 17.2505ZM16.5002 17.2505C17.7428 17.2506 18.7502 18.2579 18.7502 19.5005C18.7501 20.7429 17.7427 21.7504 16.5002 21.7505C15.2577 21.7505 14.2504 20.743 14.2502 19.5005C14.2502 18.2578 15.2576 17.2505 16.5002 17.2505ZM7.50024 18.7505C7.08603 18.7505 6.75024 19.0863 6.75024 19.5005C6.7504 19.9146 7.08613 20.2505 7.50024 20.2505C7.91426 20.2504 8.25009 19.9145 8.25024 19.5005C8.25024 19.0864 7.91435 18.7506 7.50024 18.7505ZM16.5002 18.7505C16.086 18.7505 15.7502 19.0863 15.7502 19.5005C15.7504 19.9146 16.0861 20.2505 16.5002 20.2505C16.9142 20.2504 17.2501 19.9145 17.2502 19.5005C17.2502 19.0864 16.9143 18.7506 16.5002 18.7505ZM1.29224 2.75146C1.42965 2.36075 1.85852 2.1551 2.24927 2.29248L2.55005 2.39893C3.16658 2.61567 3.69069 2.79926 4.10278 3.00146C4.54332 3.21764 4.92117 3.48416 5.20532 3.8999C5.4873 4.31255 5.60374 4.76583 5.65747 5.26221C5.6613 5.29767 5.66494 5.33394 5.66821 5.37061H17.1204C17.9388 5.3706 18.7732 5.37002 19.4602 5.44678C19.8099 5.48588 20.1566 5.54905 20.4631 5.65674C20.7636 5.76231 21.0944 5.93442 21.3293 6.23975C21.7111 6.73614 21.7777 7.31468 21.7415 7.90088C21.7069 8.45898 21.5683 9.15319 21.4036 9.97803L21.3938 10.0298L21.3928 10.0347L20.8831 12.5044C20.7334 13.2306 20.608 13.8418 20.4456 14.3237C20.2732 14.8352 20.0341 15.2847 19.6077 15.6323C19.1812 15.9799 18.6922 16.1235 18.1565 16.189C17.6516 16.2507 17.0278 16.2505 16.2864 16.2505H10.8801C9.53445 16.2505 8.44438 16.2501 7.58618 16.1284C6.69029 16.0014 5.93772 15.729 5.34399 15.103C4.79776 14.5269 4.50497 13.9144 4.35864 13.0601C4.22167 12.2599 4.20825 11.2125 4.20825 9.76025V7.03857C4.20825 6.29874 4.20741 5.80352 4.16626 5.42334C4.12695 5.06018 4.05724 4.87864 3.96704 4.74658C3.87898 4.61771 3.74487 4.49692 3.44165 4.34814C3.11885 4.18979 2.68029 4.03395 2.01294 3.79932L1.75122 3.70752C1.36061 3.57004 1.15487 3.14215 1.29224 2.75146ZM5.70825 9.76025C5.70825 11.2491 5.72603 12.1581 5.83716 12.8071C5.93906 13.402 6.11172 13.7331 6.43188 14.0708C6.70443 14.3582 7.08232 14.5426 7.79712 14.644C8.53777 14.749 9.52104 14.7505 10.9377 14.7505H16.2405C17.0398 14.7505 17.5717 14.749 17.9749 14.6997C18.3571 14.6528 18.5343 14.5711 18.6594 14.4692C18.7847 14.3672 18.9006 14.2095 19.0237 13.8442C19.1533 13.4594 19.2618 12.9392 19.4231 12.1567L19.9221 9.73682L19.9231 9.73389C20.1008 8.84413 20.2171 8.25161 20.2444 7.80811C20.2703 7.38687 20.2031 7.2391 20.1418 7.15771C20.1346 7.15162 20.0912 7.11574 19.9661 7.07178C19.8107 7.01719 19.5896 6.97102 19.2942 6.93799C18.6994 6.8715 17.9453 6.87061 17.0891 6.87061H5.70825V9.76025ZM9.37427 8.26123C9.78266 8.19205 10.1703 8.4671 10.2395 8.87549L10.7678 11.9927C10.837 12.4011 10.5619 12.7887 10.1536 12.8579C9.74521 12.9271 9.35758 12.652 9.28833 12.2437L8.76099 9.12549C8.69185 8.71727 8.96617 8.33065 9.37427 8.26123ZM14.7893 8.87549C14.8585 8.4671 15.2452 8.19205 15.6536 8.26123C16.0619 8.33044 16.3369 8.71715 16.2678 9.12549L15.7395 12.2437C15.6702 12.6518 15.2834 12.9268 14.8752 12.8579C14.4668 12.7887 14.1918 12.4011 14.261 11.9927L14.7893 8.87549Z" fill="#1C274C"/>
</svg>
