<svg width="24" height="24" viewBox="0 0 24 24" fill="none" xmlns="http://www.w3.org/2000/svg">
<path d="M18.1113 2.25C20.6965 2.25013 22.75 4.40968 22.75 7.02051C22.7499 9.04836 21.5138 10.8002 19.75 11.4844V16.0518C19.75 16.3622 19.7504 16.6552 19.7471 16.9297C19.7493 16.9528 19.75 16.9763 19.75 17C19.75 17.0314 19.7479 17.0624 19.7441 17.0928C19.7361 17.5455 19.7167 17.9468 19.6699 18.2949C19.5855 18.9225 19.3997 19.489 18.9443 19.9443C18.489 20.3997 17.9225 20.5855 17.2949 20.6699C16.7001 20.7499 15.9503 20.75 15.0518 20.75H8.94824C8.04975 20.75 7.29986 20.7499 6.70508 20.6699C6.07748 20.5855 5.51102 20.3997 5.05566 19.9443C4.6003 19.489 4.41452 18.9225 4.33008 18.2949C4.28329 17.9468 4.2639 17.5455 4.25586 17.0928C4.25212 17.0624 4.25 17.0314 4.25 17C4.25 16.9763 4.25078 16.9528 4.25293 16.9297C4.24964 16.6552 4.24999 16.3622 4.25 16.0518V11.4844C2.48622 10.8002 1.25006 9.04836 1.25 7.02051C1.25 4.40968 3.30347 2.25012 5.88867 2.25H18.1113ZM5.81641 18.0947C5.87846 18.5561 5.98591 18.7535 6.11621 18.8838C6.24651 19.0141 6.44389 19.1215 6.90527 19.1836C7.38831 19.2485 8.03599 19.25 9 19.25H15C15.964 19.25 16.6117 19.2485 17.0947 19.1836C17.5561 19.1215 17.7535 19.0141 17.8838 18.8838C18.0141 18.7535 18.1215 18.5561 18.1836 18.0947C18.1979 17.9884 18.209 17.8739 18.2178 17.75H5.78223C5.79105 17.8739 5.80212 17.9884 5.81641 18.0947ZM9 6.75C8.03599 6.75 7.38831 6.75147 6.90527 6.81641C6.44388 6.87846 6.24651 6.9859 6.11621 7.11621C5.9859 7.24651 5.87846 7.44388 5.81641 7.90527C5.75147 8.38831 5.75 9.03599 5.75 10V16.25H18.25V10C18.25 9.03599 18.2485 8.38831 18.1836 7.90527C18.1215 7.44389 18.0141 7.24651 17.8838 7.11621C17.7535 6.98591 17.5561 6.87846 17.0947 6.81641C16.6117 6.75147 15.964 6.75 15 6.75H12.75V10.9727L13.4307 10.1787C13.7002 9.86419 14.1738 9.82812 14.4883 10.0977C14.8025 10.3673 14.8388 10.8409 14.5693 11.1553L12.5693 13.4883C12.4269 13.6544 12.2188 13.75 12 13.75C11.7812 13.75 11.5731 13.6544 11.4307 13.4883L9.43066 11.1553C9.16119 10.8409 9.19753 10.3673 9.51172 10.0977C9.82621 9.82812 10.2998 9.86419 10.5693 10.1787L11.25 10.9727V6.75H9ZM5.88867 3.75C4.17852 3.75012 2.75 5.19072 2.75 7.02051C2.75005 8.2104 3.35614 9.23803 4.25 9.80957C4.25017 8.97232 4.25426 8.26904 4.33008 7.70508C4.41452 7.07747 4.6003 6.51102 5.05566 6.05566C5.51102 5.6003 6.07747 5.41452 6.70508 5.33008C7.29986 5.25011 8.04976 5.24997 8.94824 5.25H15.0518C15.9503 5.24997 16.7001 5.25011 17.2949 5.33008C17.9225 5.41452 18.489 5.6003 18.9443 6.05566C19.3997 6.51102 19.5855 7.07748 19.6699 7.70508C19.7457 8.26904 19.7498 8.97233 19.75 9.80957C20.6439 9.23803 21.25 8.2104 21.25 7.02051C21.25 5.19072 19.8215 3.75013 18.1113 3.75H5.88867Z" fill="#1C274C"/>
</svg>
