<svg width="24" height="24" viewBox="0 0 24 24" fill="none" xmlns="http://www.w3.org/2000/svg">
<path d="M12.0576 1.25C14.3657 1.24999 16.1745 1.24974 17.5859 1.43945C19.0306 1.63369 20.1706 2.03977 21.0654 2.93457C21.9602 3.82938 22.3662 4.96932 22.5605 6.41406C22.7502 7.82544 22.75 9.63432 22.75 11.9424V12.0576C22.75 14.3657 22.7502 16.1745 22.5605 17.5859C22.3662 19.0306 21.9602 20.1706 21.0654 21.0654C20.1706 21.9602 19.0306 22.3662 17.5859 22.5605C16.1745 22.7502 14.3657 22.75 12.0576 22.75H11.9424C9.63432 22.75 7.82544 22.7502 6.41406 22.5605C4.96932 22.3662 3.82938 21.9602 2.93457 21.0654C2.03977 20.1706 1.63369 19.0306 1.43945 17.5859C1.24974 16.1745 1.24999 14.3657 1.25 12.0576V11.9424C1.24999 9.63433 1.24974 7.82544 1.43945 6.41406C1.63369 4.96932 2.03976 3.82938 2.93457 2.93457C3.82938 2.03976 4.96932 1.63369 6.41406 1.43945C7.82544 1.24974 9.63433 1.24999 11.9424 1.25H12.0576ZM12 2.75C9.62178 2.75 7.91326 2.75198 6.61328 2.92676C5.33508 3.09865 4.56472 3.42551 3.99512 3.99512C3.42551 4.56472 3.09865 5.33508 2.92676 6.61328C2.75198 7.91326 2.75 9.62178 2.75 12C2.75 14.3782 2.75198 16.0867 2.92676 17.3867C3.09865 18.6649 3.42551 19.4352 3.99512 20.0049C4.56472 20.5745 5.33508 20.9014 6.61328 21.0732C7.91326 21.248 9.62178 21.25 12 21.25C14.3782 21.25 16.0867 21.248 17.3867 21.0732C18.6649 20.9014 19.4352 20.5745 20.0049 20.0049C20.5745 19.4352 20.9014 18.6649 21.0732 17.3867C21.248 16.0867 21.25 14.3782 21.25 12C21.25 9.62178 21.248 7.91326 21.0732 6.61328C20.9014 5.33508 20.5745 4.56472 20.0049 3.99512C19.4352 3.42551 18.6649 3.09865 17.3867 2.92676C16.0867 2.75198 14.3782 2.75 12 2.75ZM13.0547 4.25C14.4222 4.24998 15.5246 4.24968 16.3916 4.36621C17.2917 4.48723 18.0494 4.74673 18.6514 5.34863C19.2533 5.95055 19.5128 6.70829 19.6338 7.6084C19.7503 8.47534 19.75 9.57785 19.75 10.9453V13.0547C19.75 14.4222 19.7503 15.5246 19.6338 16.3916C19.5128 17.2917 19.2533 18.0494 18.6514 18.6514C18.0494 19.2533 17.2917 19.5128 16.3916 19.6338C15.5246 19.7503 14.4222 19.75 13.0547 19.75H10.9453C9.57785 19.75 8.47534 19.7503 7.6084 19.6338C6.70829 19.5128 5.95055 19.2533 5.34863 18.6514C5.07063 18.3733 4.86574 18.0619 4.71387 17.7188C4.64617 17.7388 4.57422 17.75 4.5 17.75C4.08579 17.75 3.75 17.4142 3.75 17V14C3.75 13.6734 3.95874 13.3959 4.25 13.293V10.707C3.95874 10.6041 3.75 10.3266 3.75 10V7C3.75 6.58579 4.08579 6.25 4.5 6.25C4.57422 6.25 4.64617 6.26117 4.71387 6.28125C4.86575 5.93805 5.07061 5.62665 5.34863 5.34863C5.95055 4.74671 6.70829 4.48723 7.6084 4.36621C8.47534 4.24968 9.57784 4.24998 10.9453 4.25H13.0547ZM11 5.75C9.56484 5.75 8.5639 5.75201 7.80859 5.85352C7.07482 5.95217 6.68594 6.13242 6.40918 6.40918C6.13242 6.68594 5.95217 7.07482 5.85352 7.80859C5.75201 8.5639 5.75 9.56484 5.75 11V13C5.75 14.4354 5.75196 15.437 5.85352 16.1924C5.95218 16.9258 6.13249 17.3141 6.40918 17.5908C6.68594 17.8676 7.07482 18.0478 7.80859 18.1465C8.5639 18.2479 9.56484 18.25 11 18.25H13C14.4354 18.25 15.437 18.248 16.1924 18.1465C16.9258 18.0478 17.3141 17.8676 17.5908 17.5908C17.8676 17.3141 18.0478 16.9258 18.1465 16.1924C18.248 15.437 18.25 14.4354 18.25 13V11C18.25 9.56484 18.2479 8.5639 18.1465 7.80859C18.0478 7.07482 17.8676 6.68594 17.5908 6.40918C17.3141 6.13249 16.9258 5.95218 16.1924 5.85352C15.437 5.75196 14.4354 5.75 13 5.75H11ZM12 7.25C14.6234 7.25 16.75 9.37665 16.75 12C16.75 14.6234 14.6234 16.75 12 16.75C9.37665 16.75 7.25 14.6234 7.25 12C7.25 9.37665 9.37665 7.25 12 7.25ZM12.8984 13.2012C12.648 13.3888 12.337 13.5 12 13.5C11.663 13.5 11.352 13.3888 11.1016 13.2012L9.38867 13.9355C9.98091 14.7333 10.9302 15.25 12 15.25C13.0698 15.25 14.0191 14.7333 14.6113 13.9355L12.8984 13.2012ZM11.25 8.83691C9.81665 9.17549 8.75 10.4632 8.75 12C8.75 12.1897 8.76664 12.3758 8.79785 12.5566L10.5107 11.8223C10.5674 11.3425 10.8504 10.9325 11.25 10.7012V8.83691ZM12.75 10.7012C13.1496 10.9325 13.4326 11.3425 13.4893 11.8223L15.2021 12.5566C15.2333 12.3758 15.25 12.1897 15.25 12C15.25 10.4632 14.1834 9.17549 12.75 8.83691V10.7012Z" fill="#1C274C"/>
</svg>
