<svg width="24" height="24" viewBox="0 0 24 24" fill="none" xmlns="http://www.w3.org/2000/svg">
<path d="M12 2C17.5228 2 22 6.47715 22 12C22 17.5228 17.5228 22 12 22C6.47715 22 2 17.5228 2 12C2 6.47715 6.47715 2 12 2ZM10.667 6.25C10.2528 6.25 9.91699 6.58579 9.91699 7C9.91699 7.41421 10.2528 7.75 10.667 7.75H12.3574L10.0908 16.25H8C7.58579 16.25 7.25 16.5858 7.25 17C7.25 17.4142 7.58579 17.75 8 17.75H13.333C13.7472 17.75 14.083 17.4142 14.083 17C14.083 16.5858 13.7472 16.25 13.333 16.25H11.6426L13.9092 7.75H16C16.4142 7.75 16.75 7.41421 16.75 7C16.75 6.58579 16.4142 6.25 16 6.25H10.667Z" fill="#1C274C"/>
</svg>
