<svg width="24" height="24" viewBox="0 0 24 24" fill="none" xmlns="http://www.w3.org/2000/svg">
<path d="M12 1.25C17.9371 1.25 22.75 6.06294 22.75 12C22.75 12.3623 22.7324 12.7207 22.6973 13.0742L22.6709 13.3408L13.3408 22.6709L13.0742 22.6973C12.7207 22.7324 12.3623 22.75 12 22.75C6.06294 22.75 1.25 17.9371 1.25 12C1.25 6.06294 6.06294 1.25 12 1.25ZM12 2.75C6.89137 2.75 2.75 6.89137 2.75 12C2.75 16.8562 6.49215 20.838 11.25 21.2197C11.2515 19.7319 11.2661 18.6267 11.3906 17.7178C10.34 17.6058 9.37026 17.2077 8.55371 16.6025C8.22101 16.356 8.15099 15.8865 8.39746 15.5537C8.64407 15.221 9.11354 15.151 9.44629 15.3975C10.1119 15.8907 10.9037 16.1945 11.7568 16.2432C12.5683 14.1111 14.2804 12.4404 16.4404 11.6846C17.587 11.2835 18.9634 11.2523 21.2197 11.25C20.838 6.49215 16.8562 2.75 12 2.75ZM21.1396 12.751C18.8838 12.7562 17.8037 12.7968 16.9355 13.1006C15.1404 13.7288 13.7288 15.1404 13.1006 16.9355C12.7968 17.8037 12.7562 18.8838 12.751 21.1396L21.1396 12.751ZM9 9C9.55228 9 10 9.67157 10 10.5C10 11.3284 9.55228 12 9 12C8.44772 12 8 11.3284 8 10.5C8 9.67157 8.44772 9 9 9ZM15 9C15.5523 9 16 9.67157 16 10.5C16 11.3284 15.5523 12 15 12C14.4477 12 14 11.3284 14 10.5C14 9.67157 14.4477 9 15 9Z" fill="#1C274C"/>
</svg>
