<svg width="24" height="24" viewBox="0 0 24 24" fill="none" xmlns="http://www.w3.org/2000/svg">
<path d="M13.5 1.25C13.9142 1.25 14.25 1.58579 14.25 2C14.25 2.41421 13.9142 2.75 13.5 2.75H12C9.62178 2.75 7.91326 2.75198 6.61328 2.92676C5.33508 3.09865 4.56472 3.42551 3.99512 3.99512C3.42551 4.56472 3.09865 5.33508 2.92676 6.61328C2.75198 7.91326 2.75 9.62178 2.75 12C2.75 14.3782 2.75198 16.0867 2.92676 17.3867C3.09865 18.6649 3.42551 19.4352 3.99512 20.0049C4.56472 20.5745 5.33508 20.9014 6.61328 21.0732C7.91326 21.248 9.62178 21.25 12 21.25C14.3782 21.25 16.0867 21.248 17.3867 21.0732C18.6649 20.9014 19.4352 20.5745 20.0049 20.0049C20.5745 19.4352 20.9014 18.6649 21.0732 17.3867C21.248 16.0867 21.25 14.3782 21.25 12V10.5C21.25 10.0858 21.5858 9.75 22 9.75C22.4142 9.75 22.75 10.0858 22.75 10.5V12.0576C22.75 14.3657 22.7502 16.1745 22.5605 17.5859C22.3662 19.0306 21.9602 20.1706 21.0654 21.0654C20.1706 21.9602 19.0306 22.3662 17.5859 22.5605C16.1745 22.7502 14.3657 22.75 12.0576 22.75H11.9424C9.63432 22.75 7.82544 22.7502 6.41406 22.5605C4.96932 22.3662 3.82938 21.9602 2.93457 21.0654C2.03977 20.1706 1.63369 19.0306 1.43945 17.5859C1.24974 16.1745 1.24999 14.3657 1.25 12.0576V11.9424C1.24999 9.63433 1.24974 7.82544 1.43945 6.41406C1.63369 4.96932 2.03976 3.82938 2.93457 2.93457C3.82938 2.03976 4.96932 1.63369 6.41406 1.43945C7.82544 1.24974 9.63433 1.24999 11.9424 1.25H13.5ZM16.7705 2.27637C18.1384 0.90848 20.3557 0.908487 21.7236 2.27637C23.0915 3.64425 23.0915 5.8616 21.7236 7.22949L15.0762 13.8779C14.7051 14.249 14.4722 14.4812 14.2129 14.6836C13.9073 14.9219 13.5765 15.1272 13.2266 15.2939C12.9295 15.4355 12.617 15.5391 12.1191 15.7051L9.21387 16.6738C8.67774 16.8523 8.08707 16.7121 7.6875 16.3125C7.28794 15.9129 7.14769 15.3223 7.32617 14.7861L8.29492 11.8809C8.46087 11.383 8.56448 11.0705 8.70605 10.7734C8.87282 10.4235 9.07802 10.0927 9.31641 9.78711C9.51877 9.52773 9.75099 9.2949 10.1221 8.92383L16.7705 2.27637ZM11.2178 9.9502C10.8013 10.3667 10.6378 10.5321 10.499 10.71C10.3277 10.9297 10.1804 11.1674 10.0605 11.4189C9.96343 11.6227 9.88837 11.8427 9.70215 12.4014L9.27051 13.6973L10.3027 14.7295L11.5986 14.2979C12.1573 14.1116 12.3773 14.0365 12.5811 13.9395C12.8326 13.8196 13.0703 13.6723 13.29 13.501C13.4679 13.3622 13.6334 13.1987 14.0498 12.7822L19.1055 7.72754C18.5896 7.50564 17.9878 7.14985 17.4189 6.58105C16.8501 6.01225 16.4944 5.41049 16.2725 4.89453L11.2178 9.9502ZM20.6631 3.33691C19.881 2.55481 18.6132 2.55481 17.8311 3.33691L17.4551 3.71289C17.4778 3.80874 17.5085 3.92341 17.5527 4.05078C17.696 4.46384 17.9682 5.00725 18.4805 5.51953C18.9927 6.03172 19.5362 6.30296 19.9492 6.44629C20.0766 6.49049 20.1912 6.5232 20.2871 6.5459L20.6631 6.16895C21.4452 5.38685 21.4452 4.119 20.6631 3.33691Z" fill="#1C274C"/>
</svg>
