<svg width="24" height="24" viewBox="0 0 24 24" fill="none" xmlns="http://www.w3.org/2000/svg">
<path d="M15.7911 13.0732C16.2238 11.9759 17.7764 11.9759 18.2091 13.0732L18.9777 15.0215L20.9269 15.791C22.0242 16.2237 22.0242 17.7763 20.9269 18.209L18.9777 18.9775L18.2091 20.9268C17.7764 22.024 16.2239 22.024 15.7911 20.9268L15.0216 18.9775L13.0734 18.209C11.9761 17.7763 11.9761 16.2237 13.0734 15.791L15.0216 15.0215L15.7911 13.0732ZM16.3859 15.6533C16.2537 15.9883 15.9884 16.2535 15.6534 16.3857L14.0948 17L15.6534 17.6143C15.9884 17.7465 16.2537 18.0117 16.3859 18.3467L17.0001 19.9043L17.6144 18.3467C17.7466 18.0117 18.0118 17.7465 18.3468 17.6143L19.9044 17L18.3468 16.3857C18.0118 16.2536 17.7466 15.9883 17.6144 15.6533L17.0001 14.0947L16.3859 15.6533ZM7.33606 3.38281C7.93169 1.87257 10.0686 1.87257 10.6642 3.38281L11.7365 6.10059C11.7659 6.17509 11.825 6.23429 11.8995 6.26367L14.6173 7.33594C16.1274 7.93164 16.1275 10.0685 14.6173 10.6641L11.8995 11.7363C11.825 11.7657 11.7659 11.8249 11.7365 11.8994L10.6642 14.6172C10.0686 16.1274 7.93176 16.1273 7.33606 14.6172L6.26379 11.8994C6.23441 11.8249 6.17521 11.7657 6.10071 11.7363L3.38293 10.6641C1.87269 10.0685 1.87269 7.93157 3.38293 7.33594L6.10071 6.26367C6.17521 6.23429 6.23441 6.17509 6.26379 6.10059L7.33606 3.38281ZM9.26868 3.93262C9.17232 3.68903 8.82798 3.6891 8.73157 3.93262L7.6593 6.65137C7.47745 7.11228 7.1124 7.47733 6.65149 7.65918L3.93274 8.73145C3.68921 8.82786 3.68916 9.1722 3.93274 9.26855L6.65149 10.3408C7.11243 10.5228 7.47749 10.8877 7.6593 11.3486L8.73157 14.0664C8.82781 14.3104 9.17244 14.3104 9.26868 14.0664L10.3409 11.3486C10.5228 10.8877 10.8878 10.5227 11.3488 10.3408L14.0665 9.26855C14.3105 9.17231 14.3105 8.82769 14.0665 8.73145L11.3488 7.65918C10.8879 7.47737 10.5229 7.1123 10.3409 6.65137L9.26868 3.93262Z" fill="#1C274C"/>
</svg>
