<svg width="24" height="24" viewBox="0 0 24 24" fill="none" xmlns="http://www.w3.org/2000/svg">
<path d="M6.5 2C8.621 2 9.68178 1.99987 10.3408 2.61621C10.9998 3.23282 11 4.22608 11 6.21094V17.7891C11 19.7739 10.9998 20.7672 10.3408 21.3838C9.68178 22.0001 8.62101 22 6.5 22C4.37899 22 3.31821 22.0001 2.65918 21.3838C2.00017 20.7672 2 19.7739 2 17.7891V6.21094C2 4.22608 2.00017 3.23282 2.65918 2.61621C3.31821 1.99987 4.379 2 6.5 2ZM17.5 11C19.6213 11 20.6818 11.0002 21.3408 11.6445C21.9998 12.2888 22 13.3262 22 15.4004V17.5996C22 19.6738 21.9998 20.7112 21.3408 21.3555C20.6818 21.9998 19.6213 22 17.5 22C15.3787 22 14.3182 21.9998 13.6592 21.3555C13.0002 20.7112 13 19.6738 13 17.5996V15.4004C13 13.3262 13.0002 12.2888 13.6592 11.6445C14.3182 11.0002 15.3787 11 17.5 11ZM18.625 2C19.6734 2 20.1979 2.00012 20.6113 2.17773C21.1626 2.41459 21.6008 2.8688 21.8291 3.44043C22.0003 3.8692 22 4.41293 22 5.5C22 6.58707 22.0003 7.1308 21.8291 7.55957C21.6008 8.1312 21.1626 8.58541 20.6113 8.82227C20.1979 8.99988 19.6734 9 18.625 9H16.375C15.3266 9 14.8021 8.99988 14.3887 8.82227C13.8374 8.58541 13.3992 8.1312 13.1709 7.55957C12.9997 7.1308 13 6.58707 13 5.5C13 4.41293 12.9997 3.8692 13.1709 3.44043C13.3992 2.8688 13.8374 2.41459 14.3887 2.17773C14.8021 2.00012 15.3266 2 16.375 2H18.625Z" fill="#48465C"/>
</svg>
