<svg width="24" height="24" viewBox="0 0 24 24" fill="none" xmlns="http://www.w3.org/2000/svg">
<path fill-rule="evenodd" clip-rule="evenodd" d="M18.8447 1.69572C19.5603 1.67844 20.2238 1.7942 20.7773 2.2631C21.3306 2.73182 21.5537 3.36644 21.6543 4.07463C21.7503 4.74977 21.75 5.61531 21.75 6.66154V12.0004C21.7498 17.9644 17.1258 20.8141 14.3945 21.976L14.3682 21.9877C14.0281 22.1325 13.7095 22.2676 13.3438 22.3588C12.9582 22.4549 12.5482 22.4965 12 22.4965C11.4518 22.4965 11.0419 22.4549 10.6563 22.3588C10.2905 22.2676 9.97194 22.1325 9.63184 21.9877L9.60547 21.976C6.87427 20.8141 2.25016 17.9644 2.25 12.0004V6.66154C2.24997 5.61532 2.24981 4.74977 2.3457 4.07463C2.44634 3.36643 2.66941 2.73182 3.22266 2.2631C3.77618 1.7942 4.4397 1.67844 5.15527 1.69572C5.83746 1.71224 6.69165 1.85459 7.72461 2.02677L8.83496 2.21232C10.4984 2.48957 11.2486 2.61173 12 2.61173C12.7514 2.61173 13.5015 2.48957 15.165 2.21232L16.2754 2.02677C17.3083 1.85459 18.1625 1.71224 18.8447 1.69572ZM5.11914 3.19572C4.57685 3.18261 4.34612 3.2774 4.19238 3.40763C4.03857 3.53795 3.90725 3.74941 3.83106 4.28556C3.7519 4.84284 3.75 5.60127 3.75 6.71916V12.0004C3.75016 17.0167 7.60454 19.4952 10.1924 20.5961C10.5632 20.7539 10.7786 20.8439 11.0186 20.9037C11.2485 20.961 11.5289 20.9965 12 20.9965C12.4711 20.9965 12.7515 20.961 12.9814 20.9037C13.2214 20.8439 13.4368 20.7538 13.8076 20.5961C16.3955 19.4952 20.2498 17.0167 20.25 12.0004V6.71916C20.25 5.60127 20.248 4.84284 20.1689 4.28556C20.0927 3.74942 19.9614 3.53795 19.8076 3.40763C19.6538 3.27741 19.423 3.18261 18.8809 3.19572C18.3176 3.20937 17.5691 3.33216 16.4658 3.51603L15.3379 3.70451C13.7673 3.96632 12.89 4.11173 12 4.11173C11.11 4.11173 10.2327 3.96632 8.66211 3.70451L7.53418 3.51603C6.43086 3.33215 5.68232 3.20936 5.11914 3.19572ZM12 13.2504C13.3304 13.2504 14.3082 13.5227 14.9707 13.8139C15.3004 13.9588 15.549 14.1066 15.7217 14.225C15.808 14.2842 15.8758 14.3364 15.9248 14.3764C15.9491 14.3962 15.9691 14.4136 15.9844 14.4272L16.0039 14.4447L16.0117 14.4516L16.0176 14.4574C16.3171 14.7431 16.3285 15.2172 16.043 15.517C15.76 15.8141 15.2916 15.8286 14.9912 15.5512C14.9893 15.5495 14.9833 15.5448 14.9756 15.5385C14.9576 15.5238 14.9234 15.4968 14.873 15.4623C14.7723 15.3932 14.6056 15.2917 14.3672 15.1869C13.8921 14.9781 13.1196 14.7504 12 14.7504C10.8804 14.7504 10.1079 14.9781 9.63281 15.1869C9.39444 15.2917 9.22767 15.3933 9.12695 15.4623C9.09119 15.4868 9.06331 15.5078 9.04395 15.5229L9.00977 15.5502C8.70947 15.8286 8.24033 15.8145 7.95703 15.517C7.67144 15.2171 7.68445 14.7412 7.98438 14.4555L8.01563 14.4272C8.03098 14.4136 8.05089 14.3962 8.0752 14.3764C8.12419 14.3364 8.19201 14.2842 8.27832 14.225C8.45099 14.1066 8.69962 13.9588 9.0293 13.8139C9.69177 13.5227 10.6696 13.2504 12 13.2504ZM8.5 7.25041C9.60336 7.25041 10.712 7.74657 11.1709 8.66447C11.3561 9.035 11.2056 9.48616 10.835 9.67131C10.4645 9.85618 10.0141 9.70578 9.8291 9.33537C9.70562 9.08828 9.24321 8.75041 8.5 8.75041C7.75681 8.75042 7.29437 9.08828 7.1709 9.33537C6.98579 9.70576 6.5355 9.8562 6.16504 9.67131C5.79451 9.48616 5.64394 9.035 5.8291 8.66447C6.28795 7.74656 7.39664 7.25042 8.5 7.25041ZM15.5 7.25041C16.6034 7.25042 17.712 7.74656 18.1709 8.66447C18.3561 9.035 18.2056 9.48616 17.835 9.67131C17.4645 9.85624 17.0142 9.70577 16.8291 9.33537C16.7056 9.08828 16.2432 8.75042 15.5 8.75041C14.7568 8.75041 14.2944 9.08828 14.1709 9.33537C13.9858 9.70575 13.5356 9.85612 13.165 9.67131C12.7945 9.48616 12.6439 9.035 12.8291 8.66447C13.288 7.74657 14.3966 7.25041 15.5 7.25041Z" fill="#1C274C"/>
</svg>
