<svg width="24" height="24" viewBox="0 0 24 24" fill="none" xmlns="http://www.w3.org/2000/svg">
<path d="M18.8447 1.69531C19.5603 1.67803 20.2238 1.7938 20.7773 2.2627C21.3306 2.73141 21.5537 3.36603 21.6543 4.07422C21.7503 4.74937 21.75 5.61491 21.75 6.66113V12C21.7498 17.964 17.1258 20.8137 14.3945 21.9756L14.3682 21.9873C14.0281 22.1321 13.7095 22.2672 13.3438 22.3584C12.9581 22.4545 12.5482 22.4961 12 22.4961C11.4518 22.4961 11.0418 22.4545 10.6562 22.3584C10.2905 22.2672 9.97194 22.1321 9.63184 21.9873L9.60547 21.9756C6.87427 20.8137 2.25016 17.964 2.25 12V6.66113C2.24997 5.61491 2.24981 4.74936 2.3457 4.07422C2.44634 3.36603 2.66941 2.73141 3.22266 2.2627C3.77618 1.7938 4.4397 1.67803 5.15527 1.69531C5.83746 1.71183 6.69165 1.85419 7.72461 2.02637L8.83496 2.21191C10.4984 2.48916 11.2486 2.61133 12 2.61133C12.7514 2.61133 13.5015 2.48916 15.165 2.21191L16.2754 2.02637C17.3083 1.85418 18.1625 1.71183 18.8447 1.69531ZM5.11914 3.19531C4.57685 3.1822 4.34612 3.277 4.19238 3.40723C4.03857 3.53754 3.90725 3.749 3.83105 4.28516C3.75189 4.84244 3.75 5.60086 3.75 6.71875V12C3.75016 17.0163 7.60454 19.4948 10.1924 20.5957C10.5632 20.7534 10.7786 20.8435 11.0186 20.9033C11.2485 20.9606 11.5289 20.9961 12 20.9961C12.4711 20.9961 12.7515 20.9606 12.9814 20.9033C13.2214 20.8435 13.4368 20.7534 13.8076 20.5957C16.3955 19.4948 20.2498 17.0163 20.25 12V6.71875C20.25 5.60086 20.248 4.84244 20.1689 4.28516C20.0927 3.74901 19.9614 3.53754 19.8076 3.40723C19.6538 3.27701 19.423 3.1822 18.8809 3.19531C18.3176 3.20897 17.5691 3.33176 16.4658 3.51562L15.3379 3.7041C13.7673 3.96591 12.89 4.11133 12 4.11133C11.11 4.11133 10.2327 3.96591 8.66211 3.7041L7.53418 3.51562C6.43086 3.33174 5.68231 3.20896 5.11914 3.19531ZM12 13.25C13.3303 13.25 14.3082 13.5223 14.9707 13.8135C15.3004 13.9584 15.549 14.1062 15.7217 14.2246C15.8079 14.2838 15.8748 14.336 15.9238 14.376C15.9483 14.396 15.969 14.4132 15.9844 14.4268L16.0039 14.4443L16.0117 14.4512L16.0156 14.4551L16.0166 14.457C16.3166 14.7426 16.3285 15.2167 16.043 15.5166C15.76 15.8137 15.2916 15.8281 14.9912 15.5508C14.9893 15.5491 14.9832 15.5443 14.9756 15.5381C14.9576 15.5234 14.9234 15.4964 14.873 15.4619C14.7724 15.3929 14.6056 15.2913 14.3672 15.1865C13.8921 14.9777 13.1195 14.75 12 14.75C10.8804 14.75 10.1079 14.9777 9.63281 15.1865C9.39411 15.2914 9.22667 15.3928 9.12598 15.4619C9.09033 15.4863 9.06326 15.5074 9.04395 15.5225L9.00977 15.5498C8.70947 15.8282 8.24033 15.8141 7.95703 15.5166C7.67138 15.2167 7.68443 14.7408 7.98438 14.4551L8.01562 14.4268C8.031 14.4132 8.05085 14.3959 8.0752 14.376C8.12419 14.336 8.19201 14.2838 8.27832 14.2246C8.451 14.1062 8.69962 13.9584 9.0293 13.8135C9.69177 13.5223 10.6696 13.25 12 13.25ZM8.5 7.25C9.60334 7.25 10.712 7.7462 11.1709 8.66406C11.3561 9.03459 11.2056 9.48575 10.835 9.6709C10.4645 9.8557 10.0141 9.70534 9.8291 9.33496C9.70559 9.08787 9.24316 8.75 8.5 8.75C7.75688 8.75005 7.29436 9.08789 7.1709 9.33496C6.98576 9.70535 6.5355 9.85586 6.16504 9.6709C5.79451 9.48575 5.64394 9.03459 5.8291 8.66406C6.28792 7.74616 7.39666 7.25005 8.5 7.25ZM15.5 7.25C16.6034 7.25002 17.712 7.74615 18.1709 8.66406C18.3561 9.03459 18.2056 9.48575 17.835 9.6709C17.4645 9.85583 17.0142 9.70537 16.8291 9.33496C16.7056 9.08788 16.2432 8.75002 15.5 8.75C14.7568 8.75 14.2944 9.08787 14.1709 9.33496C13.9858 9.70534 13.5356 9.85571 13.165 9.6709C12.7945 9.48575 12.6439 9.03459 12.8291 8.66406C13.288 7.74617 14.3966 7.25 15.5 7.25Z" fill="#48465C"/>
</svg>
