<svg width="24" height="24" viewBox="0 0 24 24" fill="none" xmlns="http://www.w3.org/2000/svg">
<path d="M20.2832 18.2568C20.4832 18.2732 20.7252 18.3453 20.9863 18.4238C21.0102 18.431 21.0344 18.4391 21.0586 18.4463C21.0802 18.4527 21.1016 18.4594 21.123 18.4658C21.3628 18.5373 21.5883 18.6035 21.7578 18.6943C22.7336 19.2168 23.0485 20.4657 22.4375 21.3887C22.3315 21.5489 22.1654 21.715 21.9883 21.8916C21.9724 21.9075 21.9556 21.9234 21.9395 21.9395C21.9234 21.9556 21.9075 21.9724 21.8916 21.9883C21.7149 22.1654 21.5489 22.3315 21.3887 22.4375C20.4657 23.0485 19.2168 22.7336 18.6943 21.7578C18.6035 21.5883 18.5373 21.3628 18.4658 21.123C18.4594 21.1016 18.4527 21.0802 18.4463 21.0586C18.4391 21.0344 18.431 21.0102 18.4238 20.9863C18.3453 20.7253 18.2732 20.4832 18.2568 20.2832C18.1617 19.1266 19.1266 18.1617 20.2832 18.2568ZM20.1582 19.751C19.9267 19.7334 19.7334 19.9267 19.751 20.1582C19.7515 20.1612 19.7563 20.1889 19.7744 20.2568C19.7972 20.3419 19.8312 20.4556 19.8828 20.6279C19.93 20.7857 19.9611 20.8879 19.9863 20.9639C20.0053 21.0209 20.0152 21.0443 20.0176 21.0498C20.1231 21.2464 20.3745 21.3097 20.5605 21.1865C20.5657 21.1824 20.5852 21.1663 20.6279 21.126C20.6863 21.0711 20.7622 20.9955 20.8789 20.8789C20.9955 20.7622 21.0711 20.6863 21.126 20.6279C21.169 20.5823 21.1854 20.5623 21.1875 20.5596C21.3091 20.374 21.246 20.1232 21.0508 20.0176C21.0474 20.0161 21.0234 20.0061 20.9639 19.9863C20.8879 19.9611 20.7857 19.93 20.6279 19.8828C20.4556 19.8312 20.3419 19.7972 20.2568 19.7744C20.1889 19.7563 20.1612 19.7515 20.1582 19.751ZM11 1.25C16.3848 1.25 20.75 5.61522 20.75 11C20.75 16.3848 16.3848 20.75 11 20.75C5.61522 20.75 1.25 16.3848 1.25 11C1.25 5.61522 5.61522 1.25 11 1.25ZM11 2.75C6.44365 2.75 2.75 6.44365 2.75 11C2.75 15.5563 6.44365 19.25 11 19.25C15.5563 19.25 19.25 15.5563 19.25 11C19.25 6.44365 15.5563 2.75 11 2.75ZM11 6.25C12.1978 6.25 13.2646 6.81137 13.9512 7.68555L14.665 7.3291C15.0355 7.14416 15.4858 7.29469 15.6709 7.66504C15.8559 8.03544 15.7053 8.48572 15.335 8.6709L14.623 9.02734C14.7061 9.33751 14.75 9.66364 14.75 10V10.25H15.5C15.9142 10.25 16.25 10.5858 16.25 11C16.25 11.4142 15.9142 11.75 15.5 11.75H14.75V12C14.75 12.3363 14.7061 12.6624 14.623 12.9727L15.335 13.3291C15.7053 13.5142 15.8559 13.9645 15.6709 14.335C15.4858 14.7053 15.0355 14.8559 14.665 14.6709L13.9512 14.3145C13.2646 15.1886 12.1978 15.75 11 15.75C9.80222 15.75 8.73536 15.1887 8.04883 14.3145L7.33496 14.6709C6.96456 14.8559 6.51428 14.7053 6.3291 14.335C6.14416 13.9645 6.29469 13.5142 6.66504 13.3291L7.37695 12.9727C7.29391 12.6624 7.25 12.3363 7.25 12V11.75H6.5C6.08579 11.75 5.75 11.4142 5.75 11C5.75 10.5858 6.08579 10.25 6.5 10.25H7.25V10C7.25 9.66364 7.2939 9.33751 7.37695 9.02734L6.66504 8.6709C6.29469 8.48572 6.14416 8.03545 6.3291 7.66504C6.51428 7.29469 6.96455 7.14416 7.33496 7.3291L8.04883 7.68555C8.73536 6.81136 9.80223 6.25 11 6.25ZM8.75 12C8.75 12.9797 9.37611 13.8132 10.25 14.1221V10.75H8.75V12ZM11.75 14.1221C12.6239 13.8132 13.25 12.9797 13.25 12V10.75H11.75V14.1221ZM11 7.75C10.0203 7.75 9.18681 8.37611 8.87793 9.25H13.1221C12.8132 8.37611 11.9797 7.75 11 7.75Z" fill="#1C274C"/>
</svg>
