<svg width="24" height="24" viewBox="0 0 24 24" fill="none" xmlns="http://www.w3.org/2000/svg">
<path fill-rule="evenodd" clip-rule="evenodd" d="M5.21777 4.0536C6.3813 3.47201 7.75 4.31818 7.75 5.61903V10.2509H8C8.41421 10.2509 8.75 10.5867 8.75 11.0009V17.0009C8.7498 19.0718 7.07095 20.7509 5 20.7509C2.92905 20.7509 1.2502 19.0718 1.25 17.0009V11.0009C1.25 10.5867 1.58579 10.2509 2 10.2509H2.25V6.61903C2.25 5.95618 2.62489 5.35004 3.21777 5.0536L5.21777 4.0536ZM16.5 4.25087C19.9518 4.25087 22.75 7.04912 22.75 10.5009C22.7498 13.6987 20.3481 16.3355 17.25 16.7059V19.2509H19.5C19.9142 19.2509 20.25 19.5867 20.25 20.0009C20.2498 20.4149 19.9141 20.7509 19.5 20.7509H13.5C13.0859 20.7509 12.7502 20.4149 12.75 20.0009C12.75 19.5867 13.0858 19.2509 13.5 19.2509H15.75V16.7059C12.6519 16.3355 10.2502 13.6987 10.25 10.5009C10.25 7.04912 13.0482 4.25087 16.5 4.25087ZM2.75 11.7509V17.0009C2.7502 18.2434 3.75748 19.2509 5 19.2509C6.24252 19.2509 7.2498 18.2434 7.25 17.0009V11.7509H2.75ZM16.5 5.75087C13.8766 5.75087 11.75 7.87754 11.75 10.5009C11.7502 13.1241 13.8767 15.2509 16.5 15.2509C19.1233 15.2509 21.2498 13.1241 21.25 10.5009C21.25 7.87754 19.1234 5.75087 16.5 5.75087ZM6.25 5.61903C6.25 5.43325 6.05485 5.31248 5.88867 5.3954L3.88867 6.3954C3.80397 6.43775 3.75 6.52434 3.75 6.61903V10.2509H6.25V5.61903Z" fill="#1C274C"/>
</svg>
