<svg width="24" height="24" viewBox="0 0 24 24" fill="none" xmlns="http://www.w3.org/2000/svg">
<path d="M5.21777 4.05347C6.3813 3.47187 7.75 4.31805 7.75 5.6189V10.2507H8C8.41421 10.2507 8.75 10.5865 8.75 11.0007V17.0007C8.7498 19.0717 7.07095 20.7507 5 20.7507C2.92905 20.7507 1.2502 19.0717 1.25 17.0007V11.0007C1.25 10.5865 1.58579 10.2507 2 10.2507H2.25V6.6189C2.25 5.95605 2.62489 5.34991 3.21777 5.05347L5.21777 4.05347ZM16.5 4.25073C19.9518 4.25073 22.75 7.04898 22.75 10.5007C22.7498 13.6986 20.3481 16.3353 17.25 16.7058V19.2507H19.5C19.9142 19.2507 20.25 19.5865 20.25 20.0007C20.2498 20.4148 19.9141 20.7507 19.5 20.7507H13.5C13.0859 20.7507 12.7502 20.4148 12.75 20.0007C12.75 19.5865 13.0858 19.2507 13.5 19.2507H15.75V16.7058C12.6519 16.3353 10.2502 13.6986 10.25 10.5007C10.25 7.04898 13.0482 4.25073 16.5 4.25073ZM2.75 11.7507V17.0007C2.7502 18.2433 3.75748 19.2507 5 19.2507C6.24252 19.2507 7.2498 18.2433 7.25 17.0007V11.7507H2.75ZM16.5 5.75073C13.8766 5.75073 11.75 7.8774 11.75 10.5007C11.7502 13.124 13.8767 15.2507 16.5 15.2507C19.1233 15.2507 21.2498 13.124 21.25 10.5007C21.25 7.8774 19.1234 5.75073 16.5 5.75073ZM6.25 5.6189C6.25 5.43312 6.05485 5.31235 5.88867 5.39526L3.88867 6.39526C3.80397 6.43761 3.75 6.52421 3.75 6.6189V10.2507H6.25V5.6189Z" fill="#48465C"/>
</svg>
