<svg width="24" height="24" viewBox="0 0 24 24" fill="none" xmlns="http://www.w3.org/2000/svg">
<path d="M19.3984 5.27246C20.9608 6.98983 21.9343 9.25368 21.9971 11.7432C21.3159 11.7095 20.6835 12.1451 20.4854 12.8184L20.4629 12.8916C20.2959 13.4604 20.176 13.8685 19.8701 14.2129C19.6228 14.4913 19.0869 14.8989 17.7061 14.9141H17.6953L17.6533 14.915C17.6191 14.9157 17.5726 14.9167 17.5156 14.9189C17.4019 14.9234 17.2445 14.9322 17.0547 14.9492C16.6783 14.983 16.1566 15.0511 15.5898 15.1904C14.5515 15.4457 12.9214 16.0466 12.1113 17.5732C11.2301 19.2339 11.4611 20.9433 11.8145 21.998C6.37732 21.8989 2 17.4608 2 12C2.00001 9.46602 2.94251 7.15192 4.49609 5.38965C4.52732 5.42161 4.56046 5.45213 4.59473 5.48145L5.00586 5.83398C5.29959 6.10482 5.79847 6.65638 6.23926 7.36035C6.69235 8.08405 7.01629 8.8612 7.08105 9.58203C7.30398 12.0616 9.03469 14.4678 11.9844 14.5C12.7113 14.5078 13.4288 14.2553 13.9834 13.8086C14.5472 13.3542 15.019 12.6256 15.0166 11.7041C15.0156 11.3168 14.9532 10.9463 14.8652 10.624C15.0099 10.3412 15.2234 10.1325 15.5791 9.89746C15.7545 9.78161 15.9392 9.67527 16.1709 9.54199L16.2627 9.48828C16.5193 9.3404 16.8311 9.1593 17.1357 8.94043C17.5394 8.65035 18.1464 8.1859 18.4883 7.66699C18.8376 7.13679 19.1224 6.42318 19.292 5.76172C19.3296 5.61549 19.3668 5.45011 19.3984 5.27246ZM21.9238 13.2412C21.3691 17.7225 17.8495 21.2845 13.3887 21.9043C13.0661 21.2252 12.6839 19.6947 13.4365 18.2764C14.418 16.4267 17.6742 16.4141 17.7178 16.4141C21.1498 16.3783 21.6139 14.2944 21.9238 13.2412ZM12 2C14.2133 2 16.2594 2.7192 17.916 3.93652C18.1499 4.64698 17.7043 6.13116 17.2363 6.8418C17.0667 7.09916 16.6814 7.4188 16.2598 7.72168C15.3093 8.40449 14.1098 8.74263 13.5 10C13.3257 10.3594 13.3332 10.7111 13.417 11.0166C13.4773 11.236 13.516 11.4746 13.5166 11.708C13.5186 12.4629 12.7548 13.0082 12 13C10.0359 12.9784 8.75022 11.3953 8.5752 9.44727C8.38789 7.36311 6.78024 5.42146 6 4.71094L5.56934 4.3418C7.30782 2.88038 9.55111 2.00009 12 2Z" fill="#1C274C"/>
</svg>
