<svg width="24" height="24" viewBox="0 0 24 24" fill="none" xmlns="http://www.w3.org/2000/svg">
<path d="M11.77 1.3291C12.1612 1.22431 12.5731 1.22428 12.9644 1.3291C13.3143 1.42291 13.5989 1.61063 13.8608 1.8291C14.1091 2.03606 14.3862 2.3143 14.7095 2.6377L15.3032 3.23145C15.5707 2.96501 15.8182 2.72535 16.0483 2.5498C16.3418 2.32592 16.6943 2.13672 17.1392 2.13672C17.584 2.13677 17.9365 2.3259 18.23 2.5498C18.4973 2.75373 18.7875 3.04378 19.106 3.3623L20.6382 4.89453C20.9568 5.21302 21.2468 5.50323 21.4507 5.77051C21.6747 6.06399 21.8637 6.41644 21.8638 6.86133C21.8638 7.30618 21.6746 7.65867 21.4507 7.95215C21.2752 8.18217 21.0354 8.42892 20.769 8.69629L21.3628 9.29102C21.6862 9.61439 21.9644 9.89144 22.1714 10.1396C22.3898 10.4016 22.5776 10.6861 22.6714 11.0361C22.7762 11.4274 22.7762 11.8393 22.6714 12.2305C22.5776 12.5806 22.3898 12.865 22.1714 13.127C21.9644 13.3752 21.6863 13.6531 21.3628 13.9766L21.3169 14.0225C20.9935 14.3458 20.7155 14.6232 20.4673 14.8301C20.2054 15.0484 19.9216 15.2363 19.5718 15.3301C19.1806 15.435 18.7686 15.4349 18.3774 15.3301C18.0273 15.2363 17.743 15.0486 17.481 14.8301C17.2328 14.6232 16.9548 14.3459 16.6313 14.0225L16.0376 13.4277L13.4272 16.0381L14.021 16.6318C14.3445 16.9553 14.6227 17.2333 14.8296 17.4814C15.0481 17.7434 15.2358 18.0278 15.3296 18.3779C15.4344 18.7691 15.4345 19.181 15.3296 19.5723C15.2358 19.9221 15.048 20.2059 14.8296 20.4678C14.6228 20.716 14.3453 20.994 14.022 21.3174L13.9751 21.3633C13.6518 21.6867 13.3746 21.9649 13.1265 22.1719C12.8645 22.3903 12.5801 22.5781 12.23 22.6719C11.8388 22.7766 11.4269 22.7767 11.0356 22.6719C10.6857 22.5781 10.4012 22.3903 10.1392 22.1719C9.89095 21.9649 9.61391 21.6866 9.29053 21.3633L8.6958 20.7695C8.42843 21.0358 8.18168 21.2757 7.95166 21.4512C7.65818 21.6751 7.3057 21.8643 6.86084 21.8643C6.41595 21.8642 6.0635 21.6751 5.77002 21.4512C5.50274 21.2473 5.21253 20.9573 4.89404 20.6387L3.36182 19.1064C3.04328 18.788 2.75324 18.4977 2.54932 18.2305C2.32541 17.937 2.13628 17.5845 2.13623 17.1396C2.13623 16.6948 2.32543 16.3423 2.54932 16.0488C2.72487 15.8187 2.96452 15.5712 3.23096 15.3037L2.65967 14.7334L2.63721 14.71C2.31381 14.3865 2.03556 14.1096 1.82861 13.8613C1.61014 13.5993 1.42242 13.3148 1.32861 12.9648C1.22379 12.5736 1.22382 12.1617 1.32861 11.7705C1.42241 11.4204 1.61013 11.136 1.82861 10.874C2.03559 10.6258 2.31371 10.3479 2.63721 10.0244L2.68311 9.97852C3.00644 9.65516 3.28456 9.37781 3.53271 9.1709C3.79463 8.95254 4.07837 8.7647 4.42822 8.6709C4.81941 8.56608 5.23137 8.56611 5.62256 8.6709C5.97263 8.76471 6.257 8.95241 6.51904 9.1709C6.76724 9.37785 7.04526 9.65509 7.36865 9.97852L7.9624 10.5732L10.5728 7.96289L9.97803 7.36914C9.6546 7.04574 9.37736 6.76772 9.17041 6.51953C8.95192 6.25749 8.76422 5.97312 8.67041 5.62305C8.56563 5.23186 8.5656 4.8199 8.67041 4.42871C8.76422 4.07886 8.95205 3.79512 9.17041 3.5332C9.37732 3.28505 9.65466 3.00693 9.97803 2.68359L10.0239 2.6377C10.3474 2.3142 10.6253 2.03608 10.8735 1.8291C11.1355 1.61062 11.4199 1.4229 11.77 1.3291ZM5.23486 10.1191C5.09807 10.0826 4.9537 10.0826 4.81689 10.1191C4.76389 10.1333 4.67448 10.1717 4.49268 10.3232C4.30299 10.4815 4.07284 10.7099 3.72021 11.0625C3.3675 11.4153 3.13914 11.6452 2.98096 11.835C2.82983 12.0162 2.79212 12.1052 2.77783 12.1582C2.74117 12.295 2.7412 12.4393 2.77783 12.5762C2.79203 12.6292 2.82937 12.7186 2.98096 12.9004C3.13916 13.0902 3.36748 13.3201 3.72021 13.6729L7.02393 16.9766C7.31677 17.2695 7.3168 17.7442 7.02393 18.0371C6.73101 18.3297 6.25618 18.3299 5.96338 18.0371L4.2915 16.3652C4.02622 16.6319 3.85527 16.8101 3.7417 16.959C3.67986 17.0401 3.65378 17.0886 3.64307 17.1143C3.63549 17.1324 3.63614 17.1383 3.63623 17.1396C3.63615 17.1415 3.63617 17.1475 3.64307 17.1641C3.65372 17.1896 3.67951 17.2388 3.7417 17.3203C3.87702 17.4977 4.09365 17.7162 4.45459 18.0771L5.92334 19.5459C6.28424 19.9068 6.50283 20.1234 6.68018 20.2588C6.76166 20.321 6.8109 20.3467 6.83643 20.3574C6.85484 20.3651 6.85974 20.3643 6.86084 20.3643C6.86212 20.3644 6.86805 20.365 6.88623 20.3574C6.91182 20.3467 6.96039 20.3207 7.0415 20.2588C7.21889 20.1234 7.43825 19.907 7.79932 19.5459C8.29491 19.0504 9.09766 19.0504 9.59326 19.5459L10.3276 20.2803C10.6804 20.633 10.9103 20.8613 11.1001 21.0195C11.2819 21.1711 11.3713 21.2085 11.4243 21.2227C11.5611 21.2593 11.7055 21.2593 11.8423 21.2227C11.8953 21.2084 11.9843 21.1706 12.1655 21.0195C12.3553 20.8614 12.5852 20.633 12.938 20.2803C13.2906 19.9277 13.519 19.6975 13.6772 19.5078C13.8288 19.326 13.8671 19.2366 13.8813 19.1836C13.9179 19.0468 13.9179 18.9025 13.8813 18.7656C13.8671 18.7126 13.8286 18.624 13.6772 18.4424C13.519 18.2526 13.2907 18.0228 12.938 17.6699L6.33057 11.0625C5.97779 10.7098 5.74784 10.4815 5.55811 10.3232C5.37655 10.1719 5.28789 10.1334 5.23486 10.1191ZM9.02295 11.6338L12.3667 14.9775L14.9771 12.3672L11.6333 9.02344L9.02295 11.6338ZM12.5757 2.77832C12.4388 2.74169 12.2946 2.74166 12.1577 2.77832C12.1047 2.7926 12.0157 2.83031 11.8345 2.98145C11.6447 3.13962 11.4148 3.36799 11.062 3.7207C10.7094 4.07333 10.481 4.30348 10.3228 4.49316C10.1713 4.67496 10.1329 4.76438 10.1187 4.81738C10.0821 4.95419 10.0821 5.09855 10.1187 5.23535C10.1329 5.28838 10.1715 5.37704 10.3228 5.55859C10.481 5.74833 10.7093 5.97828 11.062 6.33105L17.6694 12.9385C18.0223 13.2912 18.2521 13.5194 18.4419 13.6777C18.6235 13.8291 18.7121 13.8676 18.7651 13.8818C18.902 13.9184 19.0463 13.9184 19.1831 13.8818C19.2361 13.8676 19.3255 13.8292 19.5073 13.6777C19.6971 13.5194 19.9272 13.2911 20.2798 12.9385C20.6325 12.5857 20.8609 12.3558 21.019 12.166C21.1702 11.9848 21.2079 11.8958 21.2222 11.8428C21.2588 11.706 21.2588 11.5616 21.2222 11.4248C21.208 11.3718 21.1706 11.2824 21.019 11.1006C20.8609 10.9108 20.6325 10.6808 20.2798 10.3281L19.5454 9.59375C19.05 9.09815 19.0499 8.2954 19.5454 7.7998C19.9065 7.43873 20.1229 7.21938 20.2583 7.04199C20.3202 6.96088 20.3462 6.91231 20.3569 6.88672C20.3645 6.86854 20.3639 6.86261 20.3638 6.86133C20.3639 6.85952 20.3638 6.85347 20.3569 6.83691C20.3462 6.81139 20.3205 6.76215 20.2583 6.68066C20.1229 6.50332 19.9063 6.28473 19.5454 5.92383L18.0767 4.45508C17.7157 4.09414 17.4972 3.87751 17.3198 3.74219C17.2383 3.68 17.1892 3.65421 17.1636 3.64355C17.1457 3.63608 17.1405 3.63663 17.1392 3.63672C17.1383 3.63671 17.1332 3.63543 17.1138 3.64355C17.0881 3.65427 17.0396 3.68035 16.9585 3.74219C16.8096 3.85576 16.6314 4.02671 16.3647 4.29199L18.0366 5.96387C18.3294 6.25667 18.3292 6.7315 18.0366 7.02441C17.7437 7.31729 17.269 7.31726 16.9761 7.02441L13.6724 3.7207C13.3197 3.36796 13.0897 3.13965 12.8999 2.98145C12.7181 2.82986 12.6287 2.79252 12.5757 2.77832Z" fill="#48465C"/>
</svg>
