<svg width="24" height="24" viewBox="0 0 24 24" fill="none" xmlns="http://www.w3.org/2000/svg">
<path d="M15 1.25C15.4142 1.25 15.75 1.58579 15.75 2V3.25586C16.9592 3.26829 17.9699 3.30889 18.8086 3.45117C19.8366 3.62559 20.6803 3.96354 21.3584 4.6416C22.1066 5.38992 22.439 6.33843 22.5967 7.51074C22.7498 8.64989 22.75 10.1057 22.75 11.9434V12.0566C22.75 13.8943 22.7498 15.3501 22.5967 16.4893C22.439 17.6615 22.1066 18.6101 21.3584 19.3584C20.6803 20.0364 19.8366 20.3744 18.8086 20.5488C17.9699 20.6912 16.9592 20.7317 15.75 20.7441V22C15.75 22.4142 15.4142 22.75 15 22.75C14.5858 22.75 14.25 22.4142 14.25 22V2C14.25 1.58579 14.5858 1.25 15 1.25ZM12 3.25C12.4142 3.25 12.75 3.58579 12.75 4C12.75 4.41421 12.4142 4.75 12 4.75H10C8.09324 4.75 6.73859 4.75149 5.71094 4.88965C4.70485 5.02491 4.12536 5.27894 3.70215 5.70215C3.27894 6.12536 3.02492 6.70485 2.88965 7.71094C2.75149 8.73859 2.75 10.0933 2.75 12C2.75 13.9067 2.7515 15.2614 2.88965 16.2891C3.02492 17.2951 3.27894 17.8747 3.70215 18.2979C4.12536 18.7211 4.70485 18.9752 5.71094 19.1104C6.73859 19.2485 8.09325 19.25 10 19.25H12C12.4142 19.25 12.75 19.5858 12.75 20C12.75 20.4142 12.4142 20.75 12 20.75H9.94336C8.10571 20.75 6.64991 20.7498 5.51074 20.5967C4.33844 20.439 3.38992 20.1066 2.6416 19.3584C1.89332 18.6101 1.56095 17.6615 1.40332 16.4893C1.25016 15.3501 1.24998 13.8943 1.25 12.0566V11.9434C1.24998 10.1057 1.25016 8.6499 1.40332 7.51074C1.56095 6.33844 1.8933 5.38992 2.6416 4.6416C3.38992 3.8933 4.33844 3.56096 5.51074 3.40332C6.64991 3.25017 8.1057 3.24998 9.94336 3.25H12ZM15.75 19.2441C16.936 19.2314 17.8388 19.1912 18.5576 19.0693C19.3994 18.9264 19.9129 18.6829 20.2979 18.2979C20.7211 17.8747 20.9752 17.2951 21.1104 16.2891C21.2485 15.2614 21.25 13.9067 21.25 12C21.25 10.0933 21.2485 8.73858 21.1104 7.71094C20.9752 6.70485 20.7211 6.12536 20.2979 5.70215C19.9129 5.31714 19.3994 5.07351 18.5576 4.93066C17.8388 4.80874 16.936 4.76852 15.75 4.75586V19.2441ZM8 11C8.55229 11 9 11.4477 9 12C9 12.5523 8.55229 13 8 13C7.44772 13 7 12.5523 7 12C7 11.4477 7.44772 11 8 11ZM12 11C12.5523 11 13 11.4477 13 12C13 12.5523 12.5523 13 12 13C11.4477 13 11 12.5523 11 12C11 11.4477 11.4477 11 12 11Z" fill="#1C274C"/>
</svg>
