<svg width="24" height="24" viewBox="0 0 24 24" fill="none" xmlns="http://www.w3.org/2000/svg">
<path d="M10.4219 14.4385C11.4349 14.0334 12.5651 14.0333 13.5781 14.4385L16.2129 15.4922L15.752 21.9463C15.7518 21.9494 15.7512 21.9529 15.751 21.9561C14.6983 21.9998 13.4627 22 12 22C10.5373 22 9.3016 21.9998 8.24902 21.9561C8.24884 21.9529 8.24827 21.9494 8.24805 21.9463L7.78711 15.4922L10.4219 14.4385ZM6.7373 21.8447C5.63669 21.7164 4.79074 21.4822 4.1123 21.0537L6.60449 19.9854L6.7373 21.8447ZM19.8877 21.0537C19.2092 21.4822 18.3633 21.7164 17.2627 21.8447L17.3955 19.9854L19.8877 21.0537ZM6.28516 15.5215L6.49121 18.4023L3.2041 19.8105C3.12207 19.8458 3.04997 19.8945 2.98828 19.9521C2.15489 18.6897 2.02427 16.8397 2.00391 13.8096L6.28516 15.5215ZM21.9961 13.8096C21.9758 16.8397 21.846 18.6897 21.0127 19.9521C20.951 19.8944 20.878 19.8458 20.7959 19.8105L17.5088 18.4023L17.7148 15.5215L21.9961 13.8096ZM12 2C16.714 2 19.0708 2.00037 20.5352 3.46484C21.9996 4.9293 22 7.28597 22 12V12.25C21.9072 12.25 21.813 12.2672 21.7217 12.3037L17 14.1914L14.1357 13.0459C12.7648 12.4976 11.2352 12.4976 9.86426 13.0459L7 14.1914L2.27832 12.3037C2.18696 12.2672 2.09272 12.25 2 12.25V12C2 7.28595 2.00037 4.9293 3.46484 3.46484C4.9293 2.00037 7.28595 2 12 2ZM9 9C8.44772 9 8 9.67157 8 10.5C8 11.3284 8.44772 12 9 12C9.55228 12 10 11.3284 10 10.5C10 9.67157 9.55228 9 9 9ZM15 9C14.4477 9 14 9.67157 14 10.5C14 11.3284 14.4477 12 15 12C15.5523 12 16 11.3284 16 10.5C16 9.67157 15.5523 9 15 9Z" fill="#1C274C"/>
</svg>
