<svg width="24" height="24" viewBox="0 0 24 24" fill="none" xmlns="http://www.w3.org/2000/svg">
<path d="M13 2C16.7712 2 18.6566 2.00031 19.8281 3.17188C20.9997 4.34346 21 6.22878 21 10V14C21 17.7712 20.9997 19.6566 19.8281 20.8281C18.6566 21.9997 16.7712 22 13 22H11C7.22878 22 5.34346 21.9997 4.17188 20.8281C3.00031 19.6566 3 17.7712 3 14V10C3 6.22876 3.00031 4.34345 4.17188 3.17188C5.34345 2.00031 7.22876 2 11 2H13ZM8 15.25C7.58579 15.25 7.25 15.5858 7.25 16C7.25 16.4142 7.58579 16.75 8 16.75H13C13.4142 16.75 13.75 16.4142 13.75 16C13.75 15.5858 13.4142 15.25 13 15.25H8ZM8 11.25C7.58579 11.25 7.25 11.5858 7.25 12C7.25 12.4142 7.58579 12.75 8 12.75H16C16.4142 12.75 16.75 12.4142 16.75 12C16.75 11.5858 16.4142 11.25 16 11.25H8ZM8 7.25C7.58579 7.25 7.25 7.58579 7.25 8C7.25 8.41421 7.58579 8.75 8 8.75H16C16.4142 8.75 16.75 8.41421 16.75 8C16.75 7.58579 16.4142 7.25 16 7.25H8Z" fill="#1C274C"/>
</svg>
