<svg width="24" height="24" viewBox="0 0 24 24" fill="none" xmlns="http://www.w3.org/2000/svg">
<path d="M10 12.25C12.0393 12.25 13.9229 12.7209 15.3223 13.5205C16.7002 14.308 17.75 15.5102 17.75 17C17.75 18.4898 16.7002 19.692 15.3223 20.4795C13.9229 21.2792 12.0393 21.75 10 21.75C7.96067 21.75 6.0771 21.2792 4.67773 20.4795C3.29976 19.692 2.25 18.4898 2.25 17C2.25 15.5102 3.29976 14.308 4.67773 13.5205C6.0771 12.7209 7.96067 12.25 10 12.25ZM10 13.75C8.17334 13.75 6.55601 14.1751 5.42188 14.8232C4.26692 15.4834 3.75 16.2808 3.75 17C3.75 17.7193 4.26665 18.5176 5.42188 19.1777C6.55601 19.8257 8.17334 20.25 10 20.25C11.8264 20.25 13.4431 19.8256 14.5771 19.1777C15.7325 18.5175 16.25 17.7193 16.25 17C16.25 16.2807 15.7325 15.4834 14.5771 14.8232C13.4431 14.1752 11.8266 13.75 10 13.75ZM10 1.25C12.6234 1.25 14.75 3.37665 14.75 6C14.75 8.62336 12.6234 10.75 10 10.75C7.37665 10.75 5.25 8.62336 5.25 6C5.25 3.37665 7.37665 1.25 10 1.25ZM18.3564 1.61426C18.5695 1.25908 19.0305 1.14431 19.3857 1.35742H19.3877L19.3887 1.3584L19.3926 1.36133L19.4023 1.36719C19.4097 1.37174 19.4188 1.37775 19.4297 1.38477C19.4516 1.39893 19.4807 1.41794 19.5156 1.44238C19.5859 1.4916 19.6817 1.56251 19.793 1.65527C20.015 1.84036 20.3055 2.11727 20.5947 2.49316C21.1774 3.25089 21.75 4.40764 21.75 6C21.75 7.59266 21.1775 8.75007 20.5947 9.50781C20.3056 9.88358 20.015 10.1596 19.793 10.3447C19.6817 10.4375 19.5859 10.5084 19.5156 10.5576C19.4807 10.582 19.4516 10.6011 19.4297 10.6152C19.4187 10.6224 19.4097 10.6292 19.4023 10.6338L19.3926 10.6396L19.3887 10.6416L19.3877 10.6426C19.3873 10.6428 19.3859 10.6431 19 10L19.3857 10.6436C19.0306 10.8565 18.5695 10.7409 18.3564 10.3857C18.1446 10.0321 18.2579 9.5736 18.6094 9.35938L18.6152 9.35645C18.6225 9.35174 18.6367 9.34275 18.6562 9.3291C18.6953 9.30176 18.7559 9.25579 18.832 9.19238C18.9849 9.06498 19.1946 8.86669 19.4053 8.59277C19.8225 8.05051 20.25 7.20735 20.25 6C20.25 4.79272 19.8225 3.94947 19.4053 3.40723C19.1946 3.13338 18.9849 2.935 18.832 2.80762C18.7562 2.74444 18.6953 2.69923 18.6562 2.67188L18.6094 2.64062C18.2579 2.42634 18.1444 1.96786 18.3564 1.61426ZM10 2.75C8.20507 2.75 6.75 4.20508 6.75 6C6.75 7.79493 8.20507 9.25 10 9.25C11.7949 9.25 13.25 7.79493 13.25 6C13.25 4.20508 11.7949 2.75 10 2.75ZM16.3564 3.61426C16.5695 3.25908 17.0305 3.14431 17.3857 3.35742L17 4C17.3685 3.38586 17.3856 3.35844 17.3867 3.35742L17.3887 3.3584L17.3916 3.36035L17.3994 3.36523L17.4189 3.37695C17.4335 3.38639 17.4513 3.39916 17.4727 3.41406C17.5156 3.44414 17.5723 3.48635 17.6367 3.54004C17.765 3.647 17.9306 3.80429 18.0947 4.01758C18.4275 4.4503 18.75 5.10741 18.75 6C18.75 6.89259 18.4275 7.54968 18.0947 7.98242C17.9305 8.19593 17.765 8.35398 17.6367 8.46094C17.5723 8.51464 17.5156 8.55586 17.4727 8.58594C17.4513 8.60084 17.4336 8.61361 17.4189 8.62305L17.3994 8.63477L17.3916 8.63965L17.3887 8.6416L17.3867 8.64258L17.3857 8.64355C17.0306 8.85647 16.5695 8.74084 16.3564 8.38574C16.1454 8.03362 16.2575 7.57768 16.6055 7.3623L16.6133 7.35742C16.625 7.34922 16.6468 7.33278 16.6758 7.30859C16.735 7.25931 16.8196 7.17883 16.9053 7.06738C17.0724 6.85011 17.25 6.50721 17.25 6C17.25 5.49275 17.0725 5.14986 16.9053 4.93262C16.8196 4.82121 16.735 4.74168 16.6758 4.69238C16.6465 4.66798 16.625 4.65079 16.6133 4.64258L16.6055 4.6377L16.3564 3.61426Z" fill="#1C274C"/>
</svg>
