<svg width="24" height="24" viewBox="0 0 24 24" fill="none" xmlns="http://www.w3.org/2000/svg">
<path d="M6.99939 3.33936C8.94899 2.21376 11.1206 1.81927 13.1957 2.0708C16.2112 2.43636 19.0237 4.16648 20.6595 6.99951C22.2952 9.83265 22.3877 13.1338 21.1967 15.9282C20.377 17.851 18.949 19.5341 16.9994 20.6597C12.2165 23.421 6.10065 21.7824 3.33923 16.9995C0.578082 12.2167 2.2167 6.10078 6.99939 3.33936ZM9.75037 17.5005C9.33616 17.5005 9.00037 17.8363 9.00037 18.2505C9.0006 18.6645 9.3363 19.0005 9.75037 19.0005C10.1643 19.0003 10.5001 18.6644 10.5004 18.2505C10.5004 17.8364 10.1644 17.5007 9.75037 17.5005ZM14.2504 17.5005C13.8362 17.5005 13.5004 17.8363 13.5004 18.2505C13.5006 18.6645 13.8363 19.0005 14.2504 19.0005C14.6643 19.0003 15.0001 18.6644 15.0004 18.2505C15.0004 17.8364 14.6644 17.5007 14.2504 17.5005ZM9.75037 13.0005C9.06001 13.0005 8.50037 13.5601 8.50037 14.2505C8.5006 14.9407 9.06015 15.5005 9.75037 15.5005C10.4405 15.5003 11.0001 14.9406 11.0004 14.2505C11.0004 13.5602 10.4406 13.0007 9.75037 13.0005ZM14.2504 13.0005C13.56 13.0005 13.0004 13.5601 13.0004 14.2505C13.0006 14.9407 13.5601 15.5005 14.2504 15.5005C14.9405 15.5003 15.5001 14.9406 15.5004 14.2505C15.5004 13.5602 14.9406 13.0007 14.2504 13.0005ZM5.75037 13.5005C5.33616 13.5005 5.00037 13.8363 5.00037 14.2505C5.0006 14.6645 5.3363 15.0005 5.75037 15.0005C6.16427 15.0003 6.50014 14.6644 6.50037 14.2505C6.50037 13.8364 6.16441 13.5007 5.75037 13.5005ZM18.2504 13.5005C17.8362 13.5005 17.5004 13.8363 17.5004 14.2505C17.5006 14.6645 17.8363 15.0005 18.2504 15.0005C18.6643 15.0003 19.0001 14.6644 19.0004 14.2505C19.0004 13.8364 18.6644 13.5007 18.2504 13.5005ZM9.75037 8.50049C9.06001 8.50049 8.50037 9.06013 8.50037 9.75049C8.5006 10.4407 9.06015 11.0005 9.75037 11.0005C10.4405 11.0003 11.0001 10.4406 11.0004 9.75049C11.0004 9.06025 10.4406 8.50068 9.75037 8.50049ZM14.2504 8.50049C13.56 8.50049 13.0004 9.06013 13.0004 9.75049C13.0006 10.4407 13.5601 11.0005 14.2504 11.0005C14.9405 11.0003 15.5001 10.4406 15.5004 9.75049C15.5004 9.06025 14.9406 8.50068 14.2504 8.50049ZM5.75037 9.00049C5.33616 9.00049 5.00037 9.33628 5.00037 9.75049C5.0006 10.1645 5.3363 10.5005 5.75037 10.5005C6.16427 10.5003 6.50014 10.1644 6.50037 9.75049C6.50037 9.3364 6.16441 9.00068 5.75037 9.00049ZM18.2504 9.00049C17.8362 9.00049 17.5004 9.33628 17.5004 9.75049C17.5006 10.1645 17.8363 10.5005 18.2504 10.5005C18.6643 10.5003 19.0001 10.1644 19.0004 9.75049C19.0004 9.3364 18.6644 9.00068 18.2504 9.00049ZM9.75037 5.00049C9.33616 5.00049 9.00037 5.33628 9.00037 5.75049C9.0006 6.1645 9.3363 6.50049 9.75037 6.50049C10.1643 6.5003 10.5001 6.16438 10.5004 5.75049C10.5004 5.3364 10.1644 5.00068 9.75037 5.00049ZM14.2504 5.00049C13.8362 5.00049 13.5004 5.33628 13.5004 5.75049C13.5006 6.1645 13.8363 6.50049 14.2504 6.50049C14.6643 6.5003 15.0001 6.16438 15.0004 5.75049C15.0004 5.3364 14.6644 5.00068 14.2504 5.00049Z" fill="#48465C"/>
</svg>
