<svg width="24" height="24" viewBox="0 0 24 24" fill="none" xmlns="http://www.w3.org/2000/svg">
<path d="M7.5 5C8.43462 5 8.90192 5.00021 9.25 5.20117C9.47796 5.3328 9.6672 5.52204 9.79883 5.75C9.99979 6.09808 10 6.56538 10 7.5V11.25H14V9.5C14 8.56538 14.0002 8.09808 14.2012 7.75C14.3328 7.52203 14.5221 7.33281 14.75 7.20117C15.0981 7.00021 15.5654 7 16.5 7C17.4346 7 17.9019 7.00021 18.25 7.20117C18.4779 7.33281 18.6672 7.52203 18.7988 7.75C18.9998 8.09808 19 8.56538 19 9.5V11.25H22C22.4142 11.25 22.75 11.5858 22.75 12C22.75 12.4142 22.4142 12.75 22 12.75H19V14.5C19 15.4346 18.9998 15.9019 18.7988 16.25C18.6672 16.4779 18.4779 16.6672 18.25 16.7988C17.9019 16.9998 17.4346 17 16.5 17C15.5654 17 15.0981 16.9998 14.75 16.7988C14.5221 16.6672 14.3328 16.4779 14.2012 16.25C14.0002 15.9019 14 15.4346 14 14.5V12.75H10V16.5C10 17.4346 9.99979 17.9019 9.79883 18.25C9.66719 18.4779 9.47797 18.6672 9.25 18.7988C8.90192 18.9998 8.43462 19 7.5 19C6.56538 19 6.09808 18.9998 5.75 18.7988C5.52203 18.6672 5.33281 18.4779 5.20117 18.25C5.00021 17.9019 5 17.4346 5 16.5V12.75H2C1.58579 12.75 1.25 12.4142 1.25 12C1.25 11.5858 1.58579 11.25 2 11.25H5V7.5C5 6.56538 5.00021 6.09808 5.20117 5.75C5.3328 5.52204 5.52204 5.3328 5.75 5.20117C6.09808 5.00021 6.56538 5 7.5 5Z" fill="#1C274C"/>
</svg>
