<svg width="24" height="24" viewBox="0 0 24 24" fill="none" xmlns="http://www.w3.org/2000/svg">
<path d="M11 18.75C11 19.9926 9.93292 21 8.61719 21C7.30166 20.9998 6.23535 19.9925 6.23535 18.75H11ZM17.7646 18.75C17.7646 19.9925 16.6983 20.9998 15.3828 21C14.067 21 13 19.9926 13 18.75H17.7646ZM5.96582 3.00586C8.68535 3.13212 10.8596 5.18641 10.9932 7.75488C10.9996 7.87744 11 8.0225 11 8.3125V17.25H6.23535V12.2998C6.23524 11.7477 5.76133 11.3 5.17676 11.2998C3.42244 11.2998 2 9.95665 2 8.2998V6.1875C2 6.01349 2.00008 5.92608 2.00391 5.85254C2.0842 4.31159 3.38889 3.07966 5.02051 3.00391C5.09839 3.0003 5.19066 3 5.375 3C5.68223 3 5.83601 2.99984 5.96582 3.00586ZM18.9795 3.00391C20.6111 3.07966 21.9158 4.31159 21.9961 5.85254C21.9999 5.92608 22 6.01349 22 6.1875V8.2998C22 9.95665 20.5775 11.2998 18.8232 11.2998C18.2387 11.2999 17.7648 11.7477 17.7646 12.2998V17.25H13V8.3125C13 8.0225 13.0004 7.87744 13.0068 7.75488C13.1404 5.1864 15.3146 3.1321 18.0342 3.00586C18.1641 2.99984 18.3178 3 18.625 3C18.8093 3 18.9016 3.0003 18.9795 3.00391ZM4.5 5.25C4.08579 5.25 3.75 5.58579 3.75 6V8.5C3.75 8.91421 4.08579 9.25 4.5 9.25C4.91421 9.25 5.25 8.91421 5.25 8.5V6C5.25 5.58579 4.91421 5.25 4.5 5.25ZM19.5 5.25C19.0858 5.25 18.75 5.58579 18.75 6V8.5C18.75 8.91421 19.0858 9.25 19.5 9.25C19.9142 9.25 20.25 8.91421 20.25 8.5V6C20.25 5.58579 19.9142 5.25 19.5 5.25Z" fill="#1C274C"/>
</svg>
