<svg width="24" height="24" viewBox="0 0 24 24" fill="none" xmlns="http://www.w3.org/2000/svg">
<path fill-rule="evenodd" clip-rule="evenodd" d="M11.5117 10.4307C11.7926 10.1899 12.2073 10.1899 12.4882 10.4307L19.4882 16.4307C19.8026 16.7002 19.8387 17.1739 19.5693 17.4883C19.2997 17.8026 18.8261 17.8389 18.5117 17.5694L12 11.9873L5.48824 17.5694C5.17381 17.8389 4.70022 17.8026 4.43062 17.4883C4.1611 17.1739 4.19735 16.7002 4.51167 16.4307L11.5117 10.4307ZM11.5117 6.43068C11.7926 6.18993 12.2073 6.18993 12.4882 6.43068L19.4882 12.4307C19.8026 12.7002 19.8387 13.1739 19.5693 13.4883C19.2997 13.8026 18.8261 13.8389 18.5117 13.5694L12 7.98733L5.48824 13.5694C5.17381 13.8389 4.70022 13.8026 4.43062 13.4883C4.1611 13.1739 4.19735 12.7002 4.51167 12.4307L11.5117 6.43068Z" fill="#1C274C"/>
</svg>
