<svg width="24" height="24" viewBox="0 0 24 24" fill="none" xmlns="http://www.w3.org/2000/svg">
<path d="M11.5117 10.4308C11.7926 10.19 12.2074 10.19 12.4883 10.4308L19.4883 16.4308C19.8026 16.7003 19.8388 17.174 19.5693 17.4884C19.2997 17.8027 18.8261 17.839 18.5117 17.5695L12 11.9874L5.48828 17.5695C5.17386 17.839 4.70027 17.8027 4.43066 17.4884C4.16115 17.174 4.19739 16.7003 4.51172 16.4308L11.5117 10.4308ZM11.5117 6.43079C11.7926 6.19004 12.2074 6.19004 12.4883 6.43079L19.4883 12.4308C19.8026 12.7003 19.8388 13.174 19.5693 13.4884C19.2997 13.8027 18.8261 13.839 18.5117 13.5695L12 7.98743L5.48828 13.5695C5.17386 13.839 4.70027 13.8027 4.43066 13.4884C4.16115 13.174 4.19739 12.7003 4.51172 12.4308L11.5117 6.43079Z" fill="#48465C"/>
</svg>
