<svg width="24" height="24" viewBox="0 0 24 24" fill="none" xmlns="http://www.w3.org/2000/svg">
<path d="M12 1.25C17.9371 1.25 22.75 6.06294 22.75 12C22.75 17.9371 17.9371 22.75 12 22.75C6.06294 22.75 1.25 17.9371 1.25 12C1.25 6.06294 6.06294 1.25 12 1.25ZM12 2.75C10.3513 2.75 8.80342 3.18151 7.46289 3.9375L13.1279 10.0811V7.5C13.128 7.086 13.464 6.75025 13.8779 6.75C14.2921 6.75 14.6279 7.08584 14.6279 7.5V12C14.6279 12.3089 14.439 12.5858 14.1514 12.6982C13.8637 12.8106 13.5366 12.7357 13.3271 12.5088L6.20703 4.78809C4.09919 6.48352 2.75 9.08438 2.75 12C2.75 17.1086 6.89137 21.25 12 21.25C13.6436 21.25 15.1868 20.8209 16.5244 20.0693L10.6279 13.876V16.5C10.6279 16.914 10.2929 17.2497 9.87891 17.25C9.4647 17.25 9.12891 16.9142 9.12891 16.5V12C9.12891 11.6933 9.31502 11.4176 9.59961 11.3037C9.88436 11.1898 10.2105 11.2604 10.4219 11.4824L17.7852 19.2178C19.8976 17.5225 21.25 14.9193 21.25 12C21.25 6.89137 17.1086 2.75 12 2.75Z" fill="#1C274C"/>
</svg>
