<svg width="24" height="24" viewBox="0 0 24 24" fill="none" xmlns="http://www.w3.org/2000/svg">
<path d="M15 1.25C19.2802 1.25003 22.75 4.71981 22.75 9C22.75 13.2802 19.2802 16.75 15 16.75C13.129 16.75 11.4124 16.0873 10.0732 14.9834C10.0597 14.9995 10.0454 15.0152 10.0303 15.0303L7.56055 17.5L8.53028 18.4697C8.82314 18.7626 8.82314 19.2374 8.53028 19.5303C8.2374 19.8232 7.76262 19.8231 7.46973 19.5303L6.5 18.5605L5.56055 19.5L6.53028 20.4697C6.82314 20.7626 6.82314 21.2374 6.53028 21.5303C6.2374 21.8232 5.76262 21.8231 5.46973 21.5303L4.5 20.5605L4.03028 21.0303C3.7374 21.3232 3.26262 21.3231 2.96973 21.0303C2.67684 20.7374 2.67684 20.2626 2.96973 19.9697L8.96973 13.9697C8.98486 13.9546 9.00055 13.9403 9.0166 13.9268C7.91272 12.5876 7.25 10.871 7.25 9C7.25 4.71979 10.7198 1.25 15 1.25ZM15 2.75C11.5482 2.75 8.75 5.54822 8.75 9C8.75 12.4518 11.5482 15.25 15 15.25C18.4518 15.25 21.25 12.4518 21.25 9C21.25 5.54824 18.4518 2.75003 15 2.75ZM15 6.25C16.5188 6.25003 17.75 7.48124 17.75 9C17.75 10.5188 16.5188 11.75 15 11.75C13.4812 11.75 12.25 10.5188 12.25 9C12.25 7.48122 13.4812 6.25 15 6.25ZM15 7.75C14.3096 7.75 13.75 8.30964 13.75 9C13.75 9.69036 14.3096 10.25 15 10.25C15.6904 10.25 16.25 9.69034 16.25 9C16.25 8.30966 15.6904 7.75003 15 7.75Z" fill="#1C274C"/>
</svg>
