<svg width="24" height="24" viewBox="0 0 24 24" fill="none" xmlns="http://www.w3.org/2000/svg">
<path d="M12 1.25C17.9371 1.25 22.75 6.06294 22.75 12C22.75 17.9371 17.9371 22.75 12 22.75C6.06294 22.75 1.25 17.9371 1.25 12C1.25 6.06294 6.06294 1.25 12 1.25ZM12 2.75C6.89137 2.75 2.75 6.89137 2.75 12C2.75 17.1086 6.89137 21.25 12 21.25C17.1086 21.25 21.25 17.1086 21.25 12C21.25 6.89137 17.1086 2.75 12 2.75ZM12 7.25C12.549 7.25 12.9015 7.60314 13.1172 7.88477C13.3248 8.15594 13.5374 8.53734 13.7686 8.95215C13.777 8.96735 13.7855 8.98276 13.7939 8.99805L13.9248 9.2334C13.9616 9.29941 13.9903 9.35079 14.0156 9.39453C14.0324 9.42375 14.046 9.44583 14.0566 9.46289C14.0734 9.46753 14.0948 9.47286 14.1221 9.47949C14.169 9.49091 14.2234 9.50338 14.2949 9.51953L14.5498 9.57715C14.5672 9.58107 14.5844 9.58497 14.6016 9.58887C15.0482 9.68986 15.4653 9.78417 15.7803 9.9082C16.1215 10.0427 16.5345 10.2859 16.6934 10.7969C16.8495 11.2994 16.6573 11.7332 16.4629 12.042C16.2802 12.3322 15.9977 12.6624 15.6914 13.0205L15.4844 13.2627C15.4359 13.3194 15.398 13.363 15.3662 13.4014C15.3401 13.433 15.3216 13.4564 15.3086 13.4736C15.3103 13.5293 15.3175 13.6078 15.332 13.7588L15.3633 14.0801C15.4098 14.5594 15.4528 14.9973 15.4375 15.3418C15.4215 15.6997 15.3365 16.179 14.9111 16.502C14.4735 16.8338 13.9845 16.7693 13.6377 16.6699C13.3131 16.5769 12.9231 16.3968 12.5049 16.2041C12.4886 16.1966 12.4723 16.1891 12.4561 16.1816L12.2178 16.0723C12.1508 16.0414 12.0993 16.0176 12.0547 15.998C12.0328 15.9884 12.0149 15.9807 12 15.9746C11.9851 15.9807 11.9672 15.9884 11.9453 15.998C11.9007 16.0176 11.8492 16.0414 11.7822 16.0723L11.5439 16.1816C11.5277 16.1891 11.5114 16.1966 11.4951 16.2041C11.0769 16.3968 10.6869 16.5769 10.3623 16.6699C10.0155 16.7693 9.52647 16.8338 9.08887 16.502C8.66351 16.179 8.57847 15.6997 8.5625 15.3418C8.54715 14.9973 8.59022 14.5593 8.63672 14.0801L8.66797 13.7588C8.6826 13.6078 8.6897 13.5293 8.69141 13.4736C8.67847 13.4564 8.65996 13.433 8.63379 13.4014C8.60197 13.363 8.56415 13.3194 8.51562 13.2627L8.3418 13.0596C8.33066 13.0466 8.31967 13.0335 8.30859 13.0205C8.00223 12.6624 7.71979 12.3322 7.53711 12.042C7.34276 11.7332 7.15059 11.2994 7.30664 10.7969C7.46553 10.2859 7.87843 10.0427 8.21973 9.9082C8.53466 9.78416 8.95173 9.68986 9.39844 9.58887C9.41564 9.58497 9.4329 9.58107 9.4502 9.57715L9.70508 9.51953C9.77649 9.50338 9.83101 9.49092 9.87793 9.47949C9.90513 9.47286 9.92655 9.46752 9.94336 9.46289C9.95403 9.44583 9.96749 9.42374 9.98438 9.39453C10.0096 9.35079 10.0384 9.29941 10.0752 9.2334L10.2061 8.99805C10.2145 8.98276 10.223 8.96736 10.2314 8.95215C10.4626 8.53734 10.6752 8.15593 10.8828 7.88477C11.0985 7.60314 11.451 7.25 12 7.25ZM12 8.90039C11.8811 9.07688 11.7347 9.33721 11.5166 9.72852L11.3857 9.96387C11.3759 9.98133 11.3659 9.99962 11.3555 10.0186C11.2469 10.2159 11.099 10.4841 10.8555 10.6689C10.6075 10.857 10.3084 10.9227 10.0947 10.9697C10.0745 10.9742 10.0546 10.9782 10.0361 10.9824L9.78125 11.04C9.31609 11.1453 9.02584 11.2132 8.83105 11.2812C8.95149 11.4622 9.15446 11.7015 9.48242 12.085L9.65527 12.2871C9.66803 12.3021 9.68158 12.3181 9.69531 12.334C9.84305 12.505 10.0401 12.7323 10.1309 13.0244C10.2207 13.3133 10.1903 13.6123 10.167 13.8408C10.1648 13.8622 10.1621 13.8832 10.1602 13.9033L10.1348 14.1738C10.0879 14.6574 10.0588 14.9711 10.0596 15.1924C10.2519 15.1243 10.5153 15.0043 10.917 14.8193L11.1553 14.71C11.1728 14.7019 11.1908 14.6925 11.21 14.6836C11.4078 14.591 11.6885 14.46 12 14.46C12.3114 14.46 12.5921 14.591 12.79 14.6836C12.8091 14.6925 12.8272 14.7019 12.8447 14.71L13.083 14.8193C13.4847 15.0043 13.7481 15.1243 13.9404 15.1924C13.9412 14.9711 13.9121 14.6574 13.8652 14.1738L13.8398 13.9033C13.8379 13.8832 13.8352 13.8622 13.833 13.8408C13.8097 13.6123 13.7793 13.3133 13.8691 13.0244C13.9599 12.7323 14.157 12.505 14.3047 12.334C14.3185 12.3181 14.332 12.3021 14.3447 12.2871L14.5176 12.085C14.8455 11.7015 15.0485 11.4622 15.1689 11.2812C14.9741 11.2132 14.6839 11.1453 14.2188 11.04L13.9639 10.9824C13.9454 10.9782 13.9255 10.9742 13.9053 10.9697C13.6916 10.9227 13.3925 10.857 13.1445 10.6689C12.901 10.4841 12.7531 10.2159 12.6445 10.0186C12.6341 9.99962 12.6241 9.98133 12.6143 9.96387L12.4834 9.72852C12.2653 9.33721 12.1189 9.07688 12 8.90039Z" fill="#1C274C"/>
</svg>
