<svg width="24" height="24" viewBox="0 0 24 24" fill="none" xmlns="http://www.w3.org/2000/svg">
<path d="M19 1.25C21.0711 1.25 22.75 2.92893 22.75 5C22.75 6.81421 21.4617 8.32733 19.75 8.6748V15.3252C21.4617 15.6727 22.75 17.1858 22.75 19C22.75 21.0711 21.0711 22.75 19 22.75C17.1858 22.75 15.6727 21.4617 15.3252 19.75H8.6748C8.32733 21.4617 6.81421 22.75 5 22.75C2.92893 22.75 1.25 21.0711 1.25 19C1.25 17.1858 2.53834 15.6727 4.25 15.3252V8.6748C2.53834 8.32733 1.25 6.81421 1.25 5C1.25 2.92893 2.92893 1.25 5 1.25C6.81421 1.25 8.32733 2.53834 8.6748 4.25H15.3252C15.6727 2.53834 17.1858 1.25 19 1.25ZM5 16.75C3.75736 16.75 2.75 17.7574 2.75 19C2.75 20.2426 3.75736 21.25 5 21.25C6.24264 21.25 7.25 20.2426 7.25 19C7.25 17.7574 6.24264 16.75 5 16.75ZM19 16.75C17.7574 16.75 16.75 17.7574 16.75 19C16.75 20.2426 17.7574 21.25 19 21.25C20.2426 21.25 21.25 20.2426 21.25 19C21.25 17.7574 20.2426 16.75 19 16.75ZM8.6748 5.75C8.37653 7.21932 7.21932 8.37654 5.75 8.6748V15.3252C7.21932 15.6235 8.37653 16.7807 8.6748 18.25H15.3252C15.6235 16.7807 16.7807 15.6235 18.25 15.3252V8.6748C16.7807 8.37654 15.6235 7.21932 15.3252 5.75H8.6748ZM5 2.75C3.75736 2.75 2.75 3.75736 2.75 5C2.75 6.24264 3.75736 7.25 5 7.25C6.24264 7.25 7.25 6.24264 7.25 5C7.25 3.75736 6.24264 2.75 5 2.75ZM19 2.75C17.7574 2.75 16.75 3.75736 16.75 5C16.75 6.24264 17.7574 7.25 19 7.25C20.2426 7.25 21.25 6.24264 21.25 5C21.25 3.75736 20.2426 2.75 19 2.75Z" fill="#48465C"/>
</svg>
