<svg width="24" height="24" viewBox="0 0 24 24" fill="none" xmlns="http://www.w3.org/2000/svg">
<path d="M19 2C20.6569 2 22 3.34315 22 5C22 6.39994 21.0409 7.57619 19.7441 7.90723C19.7479 7.93764 19.75 7.96858 19.75 8V16C19.75 16.0314 19.7479 16.0624 19.7441 16.0928C21.0409 16.4239 22 17.6001 22 19C22 20.6569 20.6569 22 19 22C17.6001 22 16.4239 21.0409 16.0928 19.7441C16.0624 19.7479 16.0314 19.75 16 19.75H8C7.96858 19.75 7.93764 19.7479 7.90723 19.7441C7.57619 21.0409 6.39994 22 5 22C3.34315 22 2 20.6569 2 19C2 17.6001 2.95904 16.4239 4.25586 16.0928C4.25211 16.0624 4.25 16.0314 4.25 16V8C4.25 7.96858 4.2521 7.93763 4.25586 7.90723C2.95904 7.57619 2 6.39994 2 5C2 3.34315 3.34315 2 5 2C6.39994 2 7.57619 2.95904 7.90723 4.25586C7.93763 4.2521 7.96858 4.25 8 4.25H16C16.0314 4.25 16.0624 4.25211 16.0928 4.25586C16.4239 2.95904 17.6001 2 19 2ZM16 5.75H8C7.96858 5.75 7.93763 5.74789 7.90723 5.74414C7.63694 6.80296 6.80297 7.63695 5.74414 7.90723C5.7479 7.93763 5.75 7.96858 5.75 8V16C5.75 16.0314 5.74789 16.0624 5.74414 16.0928C6.80297 16.3631 7.63695 17.1971 7.90723 18.2559C7.93764 18.2521 7.96858 18.25 8 18.25H16C16.0314 18.25 16.0624 18.2521 16.0928 18.2559C16.3631 17.1971 17.1971 16.3631 18.2559 16.0928C18.2521 16.0624 18.25 16.0314 18.25 16V8C18.25 7.96858 18.2521 7.93764 18.2559 7.90723C17.1971 7.63695 16.3631 6.80297 16.0928 5.74414C16.0624 5.74789 16.0314 5.75 16 5.75Z" fill="#48465C"/>
</svg>
