<svg width="24" height="24" viewBox="0 0 24 24" fill="none" xmlns="http://www.w3.org/2000/svg">
<path d="M14.0601 3.25C15.9013 3.24998 17.3593 3.2502 18.5005 3.40332C19.6745 3.56088 20.625 3.89258 21.3745 4.64062C22.4887 5.75277 22.6945 7.32787 22.7495 9.47559C22.7682 10.2116 22.1857 10.6636 21.6987 10.791C21.1599 10.932 20.7651 11.4215 20.7651 12C20.7651 12.5785 21.1599 13.068 21.6987 13.209C22.1855 13.3364 22.7682 13.7883 22.7495 14.5244C22.6945 16.6721 22.4887 18.2473 21.3745 19.3594C20.625 20.1075 19.6745 20.4391 18.5005 20.5967C17.3593 20.7498 15.9013 20.75 14.0601 20.75H9.93994C8.09871 20.75 6.64063 20.7498 5.49951 20.5967C4.3254 20.4391 3.37498 20.1075 2.62549 19.3594C1.5113 18.2473 1.30549 16.6721 1.25049 14.5244C1.23184 13.7883 1.8144 13.3364 2.30127 13.209C2.84006 13.068 3.23486 12.5785 3.23486 12C3.23486 11.4215 2.84007 10.932 2.30127 10.791C1.8144 10.6636 1.23182 10.2116 1.25049 9.47559C1.30549 7.32787 1.5113 5.75277 2.62549 4.64062C3.37498 3.8926 4.32539 3.56088 5.49951 3.40332C6.64063 3.2502 8.09872 3.24998 9.93994 3.25H14.0601ZM9.99658 4.75C8.08631 4.75 6.72852 4.75146 5.69873 4.88965C4.69052 5.02496 4.10928 5.27878 3.68506 5.70215C3.05724 6.32882 2.81759 7.27807 2.75439 9.36035C3.89772 9.69387 4.73486 10.7476 4.73486 12C4.73486 13.2524 3.89771 14.3061 2.75439 14.6396C2.81759 16.7218 3.05724 17.6712 3.68506 18.2979C4.10928 18.7213 4.69052 18.9751 5.69873 19.1104C6.72852 19.2486 8.08631 19.25 9.99658 19.25H14.0034C15.9137 19.25 17.2715 19.2486 18.3013 19.1104C19.3095 18.9751 19.8908 18.7213 20.3149 18.2979C20.9427 17.6712 21.1824 16.7218 21.2456 14.6396C20.1022 14.3061 19.2651 13.2524 19.2651 12C19.2651 10.7476 20.1022 9.69386 21.2456 9.36035C21.1824 7.27807 20.9427 6.32882 20.3149 5.70215C19.8908 5.27876 19.3095 5.02496 18.3013 4.88965C17.2715 4.75146 15.9137 4.75 14.0034 4.75H9.99658ZM11.9995 8.25C12.5012 8.25 12.8146 8.57498 12.9868 8.7998C13.151 9.01436 13.3162 9.31181 13.4858 9.61621C13.4935 9.62994 13.5015 9.64346 13.5093 9.65723L13.6079 9.83398C13.6306 9.87469 13.6479 9.90713 13.6636 9.93457C13.6909 9.94098 13.7234 9.94804 13.7632 9.95703L13.9536 10C13.9692 10.0035 13.9848 10.0072 14.0005 10.0107C14.3281 10.0848 14.6539 10.1584 14.9038 10.2568C15.18 10.3657 15.5544 10.5781 15.6987 11.042C15.8403 11.4976 15.6615 11.8838 15.5054 12.1318C15.3609 12.3614 15.1413 12.6182 14.9165 12.8809C14.9064 12.8926 14.8963 12.9043 14.8862 12.916L14.7554 13.0684C14.7209 13.1086 14.6952 13.1397 14.6733 13.166C14.6762 13.2022 14.6806 13.2444 14.686 13.3008L14.7056 13.5039C14.7071 13.5194 14.7089 13.5353 14.7104 13.5508C14.7446 13.9025 14.7772 14.2427 14.7651 14.5146C14.7524 14.7998 14.6842 15.2315 14.2974 15.5254C13.898 15.8286 13.456 15.7628 13.1763 15.6826C12.9188 15.6088 12.6145 15.4683 12.3081 15.3271C12.2934 15.3203 12.2779 15.3134 12.2632 15.3066L12.0845 15.2246C12.0511 15.2093 12.0235 15.1964 11.9995 15.1855C11.9758 15.1964 11.9487 15.2094 11.9155 15.2246L11.7368 15.3066C11.7221 15.3134 11.7066 15.3203 11.6919 15.3271C11.3855 15.4683 11.0812 15.6088 10.8237 15.6826C10.544 15.7628 10.1021 15.8286 9.70264 15.5254C9.31577 15.2315 9.24759 14.7998 9.23486 14.5146C9.22275 14.2427 9.25538 13.9025 9.28955 13.5508C9.29105 13.5353 9.29293 13.5194 9.29443 13.5039L9.31396 13.3008C9.31942 13.2444 9.32368 13.2022 9.32666 13.166C9.30479 13.1397 9.27908 13.1086 9.24463 13.0684L9.11377 12.916C9.10372 12.9043 9.09354 12.8926 9.0835 12.8809C8.85871 12.6182 8.63917 12.3613 8.49463 12.1318C8.33847 11.8838 8.15972 11.4976 8.30127 11.042C8.44553 10.5781 8.82005 10.3657 9.09619 10.2568C9.34623 10.1584 9.67188 10.0848 9.99951 10.0107C10.0151 10.0072 10.0307 10.0035 10.0464 10L10.2368 9.95703C10.2765 9.94804 10.3091 9.94098 10.3364 9.93457C10.3521 9.90714 10.3694 9.87468 10.3921 9.83398L10.4907 9.65723C10.4984 9.64345 10.5065 9.62997 10.5142 9.61621C10.6838 9.31181 10.8489 9.01437 11.0132 8.7998C11.1853 8.57505 11.4981 8.2502 11.9995 8.25ZM11.8013 10.3877L11.7026 10.5645C11.6958 10.5768 11.6881 10.5901 11.6802 10.6045C11.6017 10.748 11.4719 10.9858 11.2554 11.1504C11.0341 11.3184 10.7676 11.3763 10.6118 11.4102C10.5962 11.4136 10.5811 11.4169 10.5679 11.4199L10.3774 11.4629C10.2022 11.5026 10.059 11.5347 9.93701 11.5654C10.0164 11.663 10.1204 11.7846 10.2544 11.9414L10.3843 12.0938C10.3935 12.1045 10.404 12.1157 10.4146 12.1279C10.5226 12.2522 10.6963 12.4538 10.7769 12.7129C10.8564 12.9687 10.8293 13.2321 10.812 13.3984C10.8102 13.4149 10.8085 13.4308 10.8071 13.4453L10.7876 13.6484C10.7694 13.8366 10.755 13.9872 10.7456 14.1094C10.8497 14.0635 10.9682 14.0091 11.1089 13.9443L11.2876 13.8613C11.2998 13.8557 11.3133 13.8496 11.3276 13.8428C11.4712 13.7751 11.721 13.6574 11.9995 13.6572C12.2782 13.6572 12.5289 13.7751 12.6724 13.8428C12.6867 13.8496 12.7002 13.8557 12.7124 13.8613L12.8911 13.9443C13.0318 14.0091 13.1502 14.0635 13.2544 14.1094C13.2449 13.9872 13.2306 13.8366 13.2124 13.6484L13.1929 13.4453C13.1915 13.4309 13.1898 13.4149 13.188 13.3984C13.1707 13.2321 13.1436 12.9687 13.2231 12.7129C13.3037 12.4538 13.4774 12.2522 13.5854 12.1279C13.5961 12.1157 13.6065 12.1045 13.6157 12.0938L13.7456 11.9414C13.8797 11.7846 13.9826 11.663 14.062 11.5654C13.9401 11.5348 13.7975 11.5025 13.6226 11.4629L13.4321 11.4199C13.4189 11.4169 13.4038 11.4136 13.3882 11.4102C13.2325 11.3763 12.9659 11.3184 12.7446 11.1504C12.5281 10.9858 12.3983 10.748 12.3198 10.6045C12.312 10.5901 12.3042 10.5768 12.2974 10.5645L12.1987 10.3877C12.1226 10.251 12.0576 10.1348 11.9995 10.0342C11.9414 10.1347 11.8774 10.2511 11.8013 10.3877Z" fill="#1C274C"/>
</svg>
