<svg width="24" height="24" viewBox="0 0 24 24" fill="none" xmlns="http://www.w3.org/2000/svg">
<path d="M12 1.25C16.2802 1.25 19.75 4.71979 19.75 9C19.75 13.0271 16.6782 16.3366 12.75 16.7139V17.75H14.5C14.9142 17.75 15.25 18.0858 15.25 18.5C15.25 18.9142 14.9142 19.25 14.5 19.25H12.75V22C12.75 22.4143 12.4142 22.75 12 22.75C11.5858 22.7499 11.2501 22.4142 11.25 22V19.25H9.5C9.0858 19.25 8.75 18.9142 8.75 18.5C8.75 18.0858 9.0858 17.75 9.5 17.75H11.25V16.7139C7.32167 16.3366 4.25 13.0272 4.25 9C4.25 4.71979 7.71979 1.25 12 1.25ZM12 2.75C8.54822 2.75 5.75 5.54822 5.75 9C5.75 12.4518 8.54822 15.25 12 15.25C15.4517 15.2499 18.25 12.4516 18.25 9C18.25 5.54822 15.4518 2.75 12 2.75Z" fill="#48465C"/>
</svg>
