<svg width="24" height="24" viewBox="0 0 24 24" fill="none" xmlns="http://www.w3.org/2000/svg">
<path d="M20.5 13C20.5 16.7711 20.4997 18.6566 19.3281 19.8281C18.1566 20.9997 16.2711 21 12.5 21H11.5C7.72883 21 5.84346 20.9997 4.67188 19.8281C3.50032 18.6566 3.5 16.7711 3.5 13V8.49805C3.64472 8.50004 3.78966 8.50006 3.93066 8.5H20.0693C20.2104 8.50006 20.3552 8.50004 20.5 8.49805V13ZM15.4688 11.4141C15.1454 11.1554 14.6729 11.2078 14.4141 11.5312L10.9883 15.8145L9.57617 14.1201C9.31099 13.8019 8.83774 13.7583 8.51953 14.0234C8.20134 14.2886 8.15867 14.7619 8.42383 15.0801L10.4238 17.4805C10.568 17.6533 10.7827 17.7522 11.0078 17.75C11.2329 17.7476 11.4453 17.6445 11.5859 17.4688L15.5859 12.4688C15.8446 12.1454 15.7922 11.6729 15.4688 11.4141ZM20 3C20.9428 3 21.4141 3.00008 21.707 3.29297C21.9999 3.58587 22 4.0572 22 5C22 5.9428 21.9999 6.41413 21.707 6.70703C21.4141 6.99992 20.9428 7 20 7H4C3.05719 7 2.58587 6.99992 2.29297 6.70703C2.00008 6.41413 2 5.94281 2 5C2 4.05719 2.00008 3.58587 2.29297 3.29297C2.58587 3.00008 3.05719 3 4 3H20Z" fill="#48465C"/>
</svg>
