<svg width="24" height="24" viewBox="0 0 24 24" fill="none" xmlns="http://www.w3.org/2000/svg">
<path d="M15.269 4.5166C15.269 3.81877 15.8432 3.25137 16.5474 3.26953L17.3257 3.29883C19.0801 3.3906 20.407 3.66966 21.3804 4.64062C22.4097 5.66761 22.6599 7.08202 22.7388 8.95801C22.746 9.12944 22.7541 9.30628 22.7476 9.4541C22.741 9.60394 22.7177 9.8204 22.5981 10.0342C22.5154 10.1819 22.4045 10.2845 22.3306 10.3457C22.2505 10.4121 22.1615 10.4729 22.0767 10.5264C21.909 10.6321 21.6803 10.7587 21.4126 10.9082C21.0269 11.1236 20.77 11.533 20.77 12C20.77 12.467 21.0269 12.8764 21.4126 13.0918C21.6803 13.2413 21.909 13.3679 22.0767 13.4736C22.1615 13.5271 22.2505 13.5879 22.3306 13.6543C22.386 13.7002 22.4622 13.7693 22.5317 13.8633L22.5981 13.9658L22.6714 14.125C22.7288 14.2832 22.7426 14.4334 22.7476 14.5459C22.7541 14.6938 22.746 14.8706 22.7388 15.042C22.6599 16.9181 22.4097 18.3324 21.3804 19.3594C20.3533 20.384 18.9395 20.6347 17.0649 20.7139C16.8515 20.7229 16.6125 20.7347 16.4106 20.7148C16.1829 20.6924 15.898 20.6217 15.6538 20.3877C15.4072 20.1513 15.3257 19.8654 15.2944 19.6396C15.2665 19.4374 15.269 19.1953 15.269 18.9766V17C15.269 16.8637 15.1573 16.75 15.0161 16.75C14.8749 16.75 14.7632 16.8637 14.7632 17V17.002L14.7573 19.0049C14.7567 19.2188 14.7581 19.455 14.731 19.6523C14.7008 19.871 14.6244 20.1499 14.3892 20.3848C14.1536 20.6197 13.8738 20.6962 13.6548 20.7256C13.4575 20.7521 13.2212 20.75 13.0073 20.75H9.99463C8.1258 20.75 6.6489 20.7513 5.49561 20.5967C4.32082 20.4391 3.36952 20.1074 2.61963 19.3594C1.59016 18.3324 1.34011 16.9181 1.26123 15.042C1.25402 14.8706 1.24594 14.6938 1.25244 14.5459C1.25903 14.396 1.28223 14.1797 1.40186 13.9658L1.46826 13.8633C1.53785 13.7693 1.614 13.7002 1.66943 13.6543C1.74957 13.5879 1.83848 13.5271 1.92334 13.4736C2.09104 13.3679 2.31967 13.2414 2.5874 13.0918C2.9731 12.8764 3.22998 12.467 3.22998 12C3.22998 11.533 2.9731 11.1236 2.5874 10.9082C2.31967 10.7587 2.09105 10.6321 1.92334 10.5264C1.83849 10.4729 1.74958 10.4121 1.66943 10.3457C1.59552 10.2845 1.48466 10.182 1.40186 10.0342C1.28223 9.82037 1.25903 9.60396 1.25244 9.4541C1.24594 9.30628 1.25402 9.12945 1.26123 8.95801C1.34011 7.08195 1.59017 5.66762 2.61963 4.64062C3.36952 3.89259 4.32082 3.56088 5.49561 3.40332C6.6489 3.24869 8.1258 3.25 9.99463 3.25H13.5054C14.15 3.25014 14.6835 3.73829 14.7495 4.36816L14.7563 4.49609L14.7632 6.99805V7C14.7632 7.13631 14.8749 7.25 15.0161 7.25C15.1573 7.24999 15.269 7.1363 15.269 7V4.5166ZM14.9995 9.25C15.966 9.25 16.7495 10.0335 16.7495 11V13C16.7495 13.9665 15.966 14.75 14.9995 14.75C14.0332 14.7498 13.2495 13.9664 13.2495 13V11C13.2495 10.0336 14.0332 9.25023 14.9995 9.25ZM14.9995 10.75C14.8616 10.7502 14.7495 10.8621 14.7495 11V13C14.7495 13.1379 14.8616 13.2498 14.9995 13.25C15.1376 13.25 15.2495 13.1381 15.2495 13V11C15.2495 10.8619 15.1376 10.75 14.9995 10.75ZM16.769 7C16.769 7.96825 15.9822 8.74999 15.0161 8.75C14.0507 8.75 13.2642 7.96931 13.2632 7.00195L13.2573 4.75H9.99463C8.08347 4.75 6.72526 4.75149 5.69482 4.88965C4.68586 5.02496 4.10377 5.27875 3.6792 5.70215C3.09146 6.28843 2.83831 7.16481 2.76025 9.02051C2.75628 9.11482 2.75311 9.18995 2.75146 9.25391C2.7513 9.26032 2.75062 9.26649 2.75049 9.27246C2.87519 9.3495 3.05396 9.45072 3.31885 9.59863C4.15865 10.0676 4.72998 10.9664 4.72998 12C4.72998 13.0336 4.15864 13.9324 3.31885 14.4014C3.05426 14.5491 2.87516 14.6496 2.75049 14.7266C2.75062 14.7328 2.75129 14.7393 2.75146 14.7461C2.75311 14.81 2.75629 14.8844 2.76025 14.9785C2.83828 16.8346 3.09141 17.7116 3.6792 18.2979C4.10377 18.7213 4.68588 18.9751 5.69482 19.1104C6.72526 19.2485 8.08347 19.25 9.99463 19.25H13.0073C13.1059 19.25 13.1863 19.2491 13.2554 19.248C13.2567 19.1791 13.257 19.0993 13.2573 19.001L13.2632 16.998C13.2642 16.0306 14.0507 15.25 15.0161 15.25C15.9822 15.25 16.769 16.0317 16.769 17V18.9766C16.769 19.0735 16.769 19.1529 16.77 19.2217C16.8352 19.2198 16.9102 19.2187 17.0015 19.2148C18.8556 19.1365 19.7336 18.8835 20.3208 18.2979C20.9086 17.7116 21.1617 16.8346 21.2397 14.9785C21.2436 14.8844 21.2469 14.81 21.2485 14.7461C21.2487 14.7393 21.2484 14.7328 21.2485 14.7266C21.1239 14.6496 20.9454 14.5488 20.6812 14.4014C19.8414 13.9324 19.27 13.0336 19.27 12C19.27 10.9664 19.8414 10.0676 20.6812 9.59863C20.9456 9.45096 21.1239 9.34944 21.2485 9.27246C21.2484 9.2665 21.2487 9.26031 21.2485 9.25391C21.2469 9.18995 21.2436 9.11482 21.2397 9.02051C21.1617 7.1648 20.9086 6.28843 20.3208 5.70215C19.7039 5.08696 18.7755 4.84683 16.769 4.77832V7Z" fill="#48465C"/>
</svg>
