<svg width="24" height="24" viewBox="0 0 24 24" fill="none" xmlns="http://www.w3.org/2000/svg">
<path fill-rule="evenodd" clip-rule="evenodd" d="M16.4775 2.46212C16.7745 2.17365 17.2495 2.17991 17.5381 2.47677L22.5381 7.62032C22.8207 7.91129 22.8207 8.37423 22.5381 8.66525L17.5381 13.8088C17.2494 14.1058 16.7745 14.112 16.4775 13.8234C16.1806 13.5347 16.1733 13.0599 16.4619 12.7629L20.2246 8.89278H8.25C5.23221 8.89279 2.75 11.4153 2.75 14.5715C2.75003 17.7278 5.23223 20.2502 8.25 20.2502H17C17.4142 20.2502 17.75 20.586 17.75 21.0002C17.7499 21.4143 17.4141 21.7502 17 21.7502H8.25C4.36425 21.7502 1.25003 18.5161 1.25 14.5715C1.25001 10.627 4.36423 7.39279 8.25 7.39278H20.2246L16.4619 3.52267C16.1734 3.22566 16.1806 2.75077 16.4775 2.46212Z" fill="#1C274C"/>
</svg>
