<svg width="24" height="24" viewBox="0 0 24 24" fill="none" xmlns="http://www.w3.org/2000/svg">
<path d="M14.0566 2.25C15.8943 2.24998 17.3501 2.25016 18.4893 2.40332C19.6615 2.56095 20.6101 2.89332 21.3584 3.6416C22.1066 4.38992 22.439 5.33844 22.5967 6.51074C22.7498 7.6499 22.75 9.1057 22.75 10.9434V13C22.75 13.4142 22.4142 13.75 22 13.75C21.5858 13.75 21.25 13.4142 21.25 13V12.75H2.75V13C2.75 14.9067 2.7515 16.2614 2.88965 17.2891C3.02491 18.2951 3.27894 18.8747 3.70215 19.2979C4.12536 19.7211 4.70485 19.9752 5.71094 20.1104C6.73858 20.2485 8.09325 20.25 10 20.25H13C13.4142 20.25 13.75 20.5858 13.75 21C13.75 21.4142 13.4142 21.75 13 21.75H9.94336C8.10571 21.75 6.6499 21.7498 5.51074 21.5967C4.33844 21.439 3.38992 21.1066 2.6416 20.3584C1.89332 19.6101 1.56095 18.6615 1.40332 17.4893C1.25016 16.3501 1.24998 14.8943 1.25 13.0566V10.9434C1.24998 9.10569 1.25016 7.6499 1.40332 6.51074C1.56095 5.33844 1.8933 4.38992 2.6416 3.6416C3.38992 2.8933 4.33844 2.56095 5.51074 2.40332C6.64991 2.25016 8.1057 2.24998 9.94336 2.25H14.0566ZM20.9277 17.4307C21.2084 17.1904 21.6225 17.1904 21.9033 17.4307L22.4873 17.9307C22.802 18.2001 22.8386 18.6726 22.5693 18.9873C22.4377 19.141 22.2579 19.2293 22.0713 19.2471C21.6821 20.7443 20.1468 21.75 18.4951 21.75C17.2181 21.75 16.0555 21.1695 15.3896 20.2354C15.1493 19.8982 15.2273 19.4299 15.5645 19.1895C15.9018 18.9491 16.37 19.0278 16.6104 19.3652C16.9701 19.87 17.6589 20.25 18.4951 20.25C19.4616 20.25 20.1816 19.7679 20.4941 19.1699C20.4078 19.1264 20.3283 19.0652 20.2617 18.9873C19.9928 18.6727 20.0296 18.2 20.3438 17.9307L20.9277 17.4307ZM18.5049 14.25C19.7819 14.25 20.9445 14.8305 21.6104 15.7646C21.8507 16.1018 21.7727 16.5701 21.4355 16.8105C21.0982 17.0509 20.63 16.9722 20.3896 16.6348C20.0299 16.13 19.3411 15.75 18.5049 15.75C17.5384 15.75 16.8184 16.2321 16.5059 16.8301C16.5922 16.8736 16.6717 16.9348 16.7383 17.0127C17.0072 17.3273 16.9704 17.8 16.6562 18.0693L16.0723 18.5693C15.7916 18.8096 15.3775 18.8096 15.0967 18.5693L14.5127 18.0693C14.198 17.7999 14.1614 17.3274 14.4307 17.0127C14.5623 16.859 14.7421 16.7707 14.9287 16.7529C15.3179 15.2557 16.8532 14.25 18.5049 14.25ZM6 14.75C6.41421 14.75 6.75 15.0858 6.75 15.5V17.5C6.75 17.9142 6.41421 18.25 6 18.25C5.58579 18.25 5.25 17.9142 5.25 17.5V15.5C5.25 15.0858 5.58579 14.75 6 14.75ZM9 14.75C9.41421 14.75 9.75 15.0858 9.75 15.5V17.5C9.75 17.9142 9.41421 18.25 9 18.25C8.58579 18.25 8.25 17.9142 8.25 17.5V15.5C8.25 15.0858 8.58579 14.75 9 14.75ZM10 3.75C8.09324 3.75 6.73859 3.75149 5.71094 3.88965C4.70485 4.02491 4.12536 4.27894 3.70215 4.70215C3.27894 5.12536 3.02491 5.70485 2.88965 6.71094C2.75149 7.73859 2.75 9.09324 2.75 11V11.25H21.25V11C21.25 9.09325 21.2485 7.73858 21.1104 6.71094C20.9752 5.70485 20.7211 5.12536 20.2979 4.70215C19.8747 4.27894 19.2951 4.02491 18.2891 3.88965C17.2614 3.7515 15.9067 3.75 14 3.75H10ZM6 5.75C6.41421 5.75 6.75 6.08579 6.75 6.5V8.5C6.75 8.91421 6.41421 9.25 6 9.25C5.58579 9.25 5.25 8.91421 5.25 8.5V6.5C5.25 6.08579 5.58579 5.75 6 5.75ZM9 5.75C9.41421 5.75 9.75 6.08579 9.75 6.5V8.5C9.75 8.91421 9.41421 9.25 9 9.25C8.58579 9.25 8.25 8.91421 8.25 8.5V6.5C8.25 6.08579 8.58579 5.75 9 5.75ZM18 6.75C18.4142 6.75 18.75 7.08579 18.75 7.5C18.75 7.91421 18.4142 8.25 18 8.25H13.5C13.0858 8.25 12.75 7.91421 12.75 7.5C12.75 7.08579 13.0858 6.75 13.5 6.75H18Z" fill="#1C274C"/>
</svg>
