<svg width="24" height="24" viewBox="0 0 24 24" fill="none" xmlns="http://www.w3.org/2000/svg">
<path d="M12 2C16.714 2 19.0708 2.00037 20.5352 3.46484C21.9996 4.9293 22 7.28597 22 12C22 16.714 21.9997 19.0708 20.5352 20.5352C19.0708 21.9997 16.714 22 12 22C7.28597 22 4.9293 21.9996 3.46484 20.5352C2.00037 19.0708 2 16.714 2 12C2 7.28595 2.00037 4.9293 3.46484 3.46484C4.9293 2.00037 7.28595 2 12 2ZM17.0586 6.8623C14.8202 4.71219 11.2024 4.7123 8.96387 6.8623L6.75879 8.98047C4.74691 10.913 4.74683 14.0596 6.75879 15.9922C7.0575 16.2792 7.53239 16.2693 7.81934 15.9707C8.10627 15.6719 8.09658 15.1972 7.79785 14.9102C6.40062 13.5679 6.40071 11.4048 7.79785 10.0625L10.0029 7.94434C11.661 6.35181 14.3616 6.35177 16.0195 7.94434C17.6605 9.52056 17.6605 12.0635 16.0195 13.6396L13.8145 15.7568C13.1306 16.4137 12.0101 16.4137 11.3262 15.7568C10.6593 15.1163 10.6593 14.0917 11.3262 13.4512L13.0898 11.7568C13.3884 11.47 13.398 10.995 13.1113 10.6963C12.8244 10.3976 12.3495 10.3878 12.0508 10.6748L10.2871 12.3691C9.00571 13.5999 9.00571 15.6081 10.2871 16.8389C11.5515 18.0533 13.5891 18.0533 14.8535 16.8389L17.0586 14.7217C19.3142 12.5552 19.3142 9.02884 17.0586 6.8623Z" fill="#1C274C"/>
</svg>
