<svg width="24" height="24" viewBox="0 0 24 24" fill="none" xmlns="http://www.w3.org/2000/svg">
<path d="M12.0001 4.00012C16.9707 4.00013 21.0001 8.02957 21.0001 13.0001C21 17.9707 16.9707 22.0001 12.0001 22.0001C7.02961 22.0001 3.0002 17.9707 3.00012 13.0001C3.00012 8.02956 7.02956 4.00012 12.0001 4.00012ZM14.6515 10.3488C14.3586 10.056 13.8838 10.056 13.5909 10.3488L12.0001 11.9396L10.4093 10.3488C10.1164 10.0559 9.64165 10.0559 9.34875 10.3488C9.05589 10.6417 9.05587 11.1164 9.34875 11.4093L10.9396 13.0001L9.34875 14.5909C9.05586 14.8838 9.05586 15.3586 9.34875 15.6515C9.64165 15.9442 10.1164 15.9443 10.4093 15.6515L12.0001 14.0607L13.5909 15.6515C13.8838 15.9444 14.3586 15.9444 14.6515 15.6515C14.9444 15.3586 14.9444 14.8838 14.6515 14.5909L13.0607 13.0001L14.6515 11.4093C14.9443 11.1164 14.9442 10.6417 14.6515 10.3488ZM7.10266 1.36438C7.4539 1.14486 7.91632 1.25145 8.13586 1.60266C8.35539 1.95389 8.24877 2.41631 7.89758 2.63586L3.89758 5.13586C3.54637 5.35537 3.08394 5.24872 2.86438 4.89758C2.64487 4.54635 2.75147 4.08393 3.10266 3.86438L7.10266 1.36438ZM15.8644 1.60266C16.0839 1.25147 16.5463 1.14487 16.8976 1.36438L20.8976 3.86438C21.2488 4.08394 21.3553 4.54638 21.1359 4.89758C20.9163 5.24875 20.4539 5.35537 20.1027 5.13586L16.1027 2.63586C15.7514 2.41632 15.6449 1.9539 15.8644 1.60266Z" fill="#48465C"/>
</svg>
