<svg width="24" height="24" viewBox="0 0 24 24" fill="none" xmlns="http://www.w3.org/2000/svg">
<path d="M15.1455 18.0186C15.0157 18.2053 14.9071 18.4093 14.8086 18.627C14.6068 19.0731 14.4224 19.6415 14.2021 20.3213L13.7061 21.8535C13.1482 21.9503 12.5739 22 11.9883 22C11.4663 22 10.9536 21.9602 10.4531 21.8828L9.94727 20.3213C9.72704 19.6416 9.54254 19.0731 9.34082 18.627C9.23779 18.3992 9.12329 18.186 8.98535 17.9922L10.375 16.1738C10.5095 16.2065 10.6498 16.2236 10.793 16.2236H13.1396C13.2933 16.2236 13.4434 16.2034 13.5869 16.166L15.1455 18.0186ZM5.25781 18.3848C6.00673 18.3848 6.50418 18.386 6.88477 18.4307C7.24471 18.473 7.42317 18.5473 7.55566 18.6455C7.68983 18.7451 7.818 18.9 7.97363 19.2441C8.13679 19.6048 8.29579 20.0935 8.53223 20.8232L8.73828 21.458C6.98869 20.8555 5.45864 19.7806 4.30078 18.3848H5.25781ZM19.6758 18.3848C18.5609 19.7286 17.1013 20.776 15.4326 21.3896L15.6162 20.8232C15.8527 20.0935 16.0116 19.6048 16.1748 19.2441C16.3305 18.8996 16.4595 18.7451 16.5938 18.6455C16.7263 18.5474 16.9046 18.4729 17.2646 18.4307C17.6451 18.386 18.142 18.3848 18.8906 18.3848H19.6758ZM18.4844 10.8369C18.6272 11.0169 18.7927 11.1812 18.9756 11.3389C19.3436 11.656 19.8316 11.9875 20.4121 12.3818L21.8828 13.3799C21.7093 14.638 21.3018 15.8216 20.7061 16.8848H18.8477C18.1531 16.8848 17.5672 16.8842 17.0889 16.9404C16.8263 16.9712 16.5761 17.0211 16.3379 17.1045L14.748 15.2158C14.7935 15.124 14.8321 15.0273 14.8623 14.9268L15.6211 12.4004C15.6584 12.2765 15.6816 12.15 15.6924 12.0244L18.4844 10.8369ZM8.23926 12.0215C8.24991 12.1483 8.27395 12.2753 8.31152 12.4004L9.07031 14.9268C9.10348 15.0373 9.14666 15.1432 9.19824 15.2432L7.78223 17.0957C7.55251 17.0183 7.31175 16.971 7.05957 16.9414C6.58121 16.8852 5.99535 16.8857 5.30078 16.8857H3.27051C2.67702 15.8265 2.27129 14.6473 2.09668 13.3945L3.58789 12.3818C4.16834 11.9876 4.6564 11.6559 5.02441 11.3389C5.20604 11.1823 5.37053 11.0193 5.5127 10.8408L8.23926 12.0215ZM11.9658 10.0156C12.0251 10.0156 12.0867 10.0349 12.1406 10.0771L14.0732 11.5957C14.1248 11.6362 14.1641 11.6937 14.1846 11.7617C14.2044 11.8277 14.2053 11.8999 14.1846 11.9688L13.4258 14.4951C13.4049 14.5646 13.3651 14.6197 13.3174 14.6582C13.2649 14.7007 13.2032 14.7226 13.1396 14.7227H10.793C10.7294 14.7227 10.6677 14.7006 10.6152 14.6582C10.5675 14.6197 10.5277 14.5646 10.5068 14.4951L9.74805 11.9688C9.72735 11.8999 9.72823 11.8277 9.74805 11.7617C9.76853 11.6936 9.80786 11.6362 9.85938 11.5957L11.792 10.0771C11.8459 10.035 11.9066 10.0157 11.9658 10.0156ZM4.15039 7.24609C4.34379 7.98859 4.47211 8.48687 4.5293 8.88086C4.58381 9.25665 4.56035 9.46362 4.49902 9.62988C4.43818 9.79478 4.32453 9.96218 4.04492 10.2031C3.74993 10.4572 3.33443 10.741 2.70996 11.165L2.00586 11.6426C2.07743 9.60544 2.75779 7.72324 3.87012 6.17285L4.15039 7.24609ZM20.123 6.19629C21.2225 7.73823 21.8956 9.60611 21.9697 11.627L21.29 11.165C20.6656 10.741 20.25 10.4572 19.9551 10.2031C19.6755 9.96225 19.5618 9.79473 19.501 9.62988C19.4396 9.46362 19.4162 9.25665 19.4707 8.88086C19.5279 8.48685 19.6562 7.98867 19.8496 7.24609L20.123 6.19629ZM16.584 3.11914C17.4488 3.5686 18.2398 4.14136 18.9336 4.81348L18.3877 6.9082C18.2073 7.60064 18.0568 8.17978 17.9863 8.66602C17.9481 8.92941 17.9296 9.18475 17.9453 9.43652L15.2031 10.6035C15.1409 10.537 15.0731 10.4746 15 10.417L13.0674 8.89844C12.9571 8.81181 12.8389 8.73995 12.7158 8.68262V5.67188C12.9414 5.59929 13.1597 5.49757 13.376 5.37598C13.7976 5.139 14.2755 4.79267 14.8438 4.38086L16.584 3.11914ZM9.10254 4.31738C9.66209 4.7418 10.1333 5.09847 10.5498 5.34473C10.7677 5.4735 10.987 5.58229 11.2158 5.66016V8.68262C11.0929 8.7399 10.9752 8.81196 10.8652 8.89844L8.93262 10.417C8.86055 10.4737 8.79389 10.5352 8.73242 10.6006L6.05371 9.44043C6.06989 9.18736 6.05207 8.93081 6.01367 8.66602C5.94314 8.17978 5.79269 7.60065 5.6123 6.9082L5.07129 4.83203L5.06152 4.79492C5.77171 4.11043 6.58317 3.53049 7.4707 3.0791L9.10254 4.31738ZM11.9883 2C13.0209 2 14.0172 2.15702 14.9541 2.44824L13.998 3.14062C13.386 3.58411 12.9778 3.87885 12.6406 4.06836C12.3203 4.24834 12.1337 4.29181 11.9746 4.29004C11.8154 4.28828 11.6293 4.24 11.3125 4.05273C10.9794 3.85572 10.5778 3.55244 9.97559 3.0957L9.09277 2.42676C10.0092 2.14932 10.9814 2.00001 11.9883 2Z" fill="#1C274C"/>
</svg>
