<svg width="24" height="24" viewBox="0 0 24 24" fill="none" xmlns="http://www.w3.org/2000/svg">
<path d="M17.0117 14.4307C17.2926 14.1899 17.7074 14.1899 17.9883 14.4307L21.4883 17.4307C21.8027 17.7002 21.8389 18.1738 21.5693 18.4883C21.2998 18.8027 20.8262 18.8389 20.5117 18.5693L17.5 15.9883L14.4883 18.5693C14.1738 18.8389 13.7002 18.8027 13.4307 18.4883C13.1611 18.1738 13.1973 17.7002 13.5117 17.4307L17.0117 14.4307ZM11 15.25C11.4142 15.25 11.75 15.5858 11.75 16C11.75 16.4142 11.4142 16.75 11 16.75H3C2.58579 16.75 2.25 16.4142 2.25 16C2.25 15.5858 2.58579 15.25 3 15.25H11ZM20 10.25C20.4142 10.25 20.75 10.5858 20.75 11C20.75 11.4142 20.4142 11.75 20 11.75H3C2.58579 11.75 2.25 11.4142 2.25 11C2.25 10.5858 2.58579 10.25 3 10.25H20ZM20 5.25C20.4142 5.25 20.75 5.58579 20.75 6C20.75 6.41421 20.4142 6.75 20 6.75H3C2.58579 6.75 2.25 6.41421 2.25 6C2.25 5.58579 2.58579 5.25 3 5.25H20Z" fill="#1C274C"/>
</svg>
