<svg width="24" height="24" viewBox="0 0 24 24" fill="none" xmlns="http://www.w3.org/2000/svg">
<path d="M5.00778 4.40721C6.68786 2.72724 9.52256 2.85509 10.6924 4.95116L11.3418 6.11425C12.1054 7.48295 11.7802 9.20991 10.6621 10.3418C10.6472 10.3622 10.5675 10.4771 10.5576 10.6777C10.5451 10.934 10.6365 11.527 11.5547 12.4453C12.4728 13.3634 13.0658 13.4549 13.3222 13.4424C13.522 13.4326 13.6367 13.3545 13.6582 13.3389C14.7902 12.2206 16.5179 11.8953 17.8867 12.6592L19.0498 13.3076C21.1458 14.4775 21.2737 17.3131 19.5937 18.9932C18.6951 19.8917 17.4998 20.6898 16.0957 20.7432C14.0148 20.822 10.5594 20.2849 7.13766 16.8633C3.71602 13.4416 3.17797 9.98622 3.25681 7.90526C3.31004 6.50106 4.10912 5.30587 5.00778 4.40721ZM9.38278 5.68163C8.78364 4.60858 7.17405 4.36214 6.06833 5.46776C5.29298 6.2431 4.78854 7.09912 4.75583 7.9619C4.69005 9.69725 5.11888 12.7234 8.19821 15.8027C11.2775 18.8819 14.3038 19.3099 16.039 19.2441C16.9016 19.2113 17.7571 18.7077 18.5322 17.9326C19.6381 16.8268 19.3916 15.2172 18.3183 14.6182L17.1552 13.9687C16.4319 13.5651 15.4154 13.7028 14.7021 14.416C14.6319 14.4862 14.1865 14.9018 13.3955 14.9404C12.5853 14.9799 11.6039 14.6156 10.4941 13.5058C9.38412 12.3958 9.01987 11.4147 9.05954 10.6045C9.09833 9.81304 9.51528 9.36749 9.58493 9.29784C10.2981 8.58453 10.4359 7.56807 10.0322 6.84471L9.38278 5.68163ZM19 4.24999C19.414 4.24999 19.7498 4.58595 19.75 4.99999V7.99999C19.75 8.4142 19.4142 8.74999 19 8.74999C18.5859 8.74988 18.25 8.41413 18.25 7.99999V6.81151L15.5302 9.53026C15.2373 9.82315 14.7626 9.82315 14.4697 9.53026C14.1771 9.23734 14.1769 8.7625 14.4697 8.46971L17.1894 5.74999H16C15.5859 5.74988 15.25 5.41413 15.25 4.99999C15.2502 4.58601 15.586 4.25009 16 4.24999H19Z" fill="#1C274C"/>
</svg>
