<svg width="24" height="24" viewBox="0 0 24 24" fill="none" xmlns="http://www.w3.org/2000/svg">
<path d="M20.2861 14.25C21.6614 14.2502 22.75 15.384 22.75 16.75C22.75 17.8285 22.0711 18.7621 21.1084 19.1074L22.6396 21.6084C22.8559 21.9616 22.7449 22.4235 22.3916 22.6396C22.0384 22.8559 21.5765 22.7449 21.3604 22.3916L19.4365 19.25H18.75V22C18.75 22.4142 18.4142 22.75 18 22.75C17.5858 22.75 17.25 22.4142 17.25 22V15C17.25 14.5858 17.5858 14.25 18 14.25H20.2861ZM20 2C21.1046 2 22 2.89543 22 4C22 4.83932 21.483 5.55779 20.75 5.85449V8.05176C20.75 8.95025 20.7499 9.70012 20.6699 10.2949C20.5855 10.9225 20.3997 11.489 19.9443 11.9443C19.489 12.3997 18.9225 12.5855 18.2949 12.6699C17.7001 12.7499 16.9503 12.75 16.0518 12.75H12.75V18.1455C13.483 18.4422 14 19.1607 14 20C14 21.1046 13.1046 22 12 22C10.8954 22 10 21.1046 10 20C10 19.1607 10.517 18.4422 11.25 18.1455V12.75H4.75V18.1455C5.48294 18.4422 6 19.1607 6 20C6 21.1046 5.10457 22 4 22C2.89543 22 2 21.1046 2 20C2 19.1607 2.51706 18.4422 3.25 18.1455V5.85449C2.51706 5.55779 2 4.83932 2 4C2 2.89543 2.89543 2 4 2C5.10457 2 6 2.89543 6 4C6 4.83932 5.48294 5.55779 4.75 5.85449V11.25H11.25V5.85449C10.517 5.55779 10 4.83932 10 4C10 2.89543 10.8954 2 12 2C13.1046 2 14 2.89543 14 4C14 4.83932 13.483 5.55779 12.75 5.85449V11.25H16C16.964 11.25 17.6117 11.2485 18.0947 11.1836C18.5561 11.1215 18.7535 11.0141 18.8838 10.8838C19.0141 10.7535 19.1215 10.5561 19.1836 10.0947C19.2485 9.6117 19.25 8.96401 19.25 8V5.85449C18.517 5.55779 18 4.83932 18 4C18 2.89543 18.8954 2 20 2ZM18.75 17.75H20.2861C20.804 17.7498 21.25 17.3167 21.25 16.75C21.25 16.1833 20.804 15.7502 20.2861 15.75H18.75V17.75Z" fill="#1C274C"/>
</svg>
