<svg width="24" height="24" viewBox="0 0 24 24" fill="none" xmlns="http://www.w3.org/2000/svg">
<path d="M12 2C16.714 2 19.0708 2.00037 20.5352 3.46484C21.9996 4.9293 22 7.28597 22 12C22 16.714 21.9997 19.0708 20.5352 20.5352C19.0708 21.9997 16.714 22 12 22C7.28597 22 4.9293 21.9996 3.46484 20.5352C2.00037 19.0708 2 16.714 2 12C2 7.28595 2.00037 4.9293 3.46484 3.46484C4.9293 2.00037 7.28595 2 12 2ZM7 7.25C6.58579 7.25 6.25 7.58579 6.25 8V16C6.25 16.4142 6.58579 16.75 7 16.75C7.41421 16.75 7.75 16.4142 7.75 16V8C7.75 7.58579 7.41421 7.25 7 7.25ZM13.5303 8.46973C13.2374 8.17684 12.7626 8.17684 12.4697 8.46973L9.46973 11.4697C9.32908 11.6103 9.25 11.8011 9.25 12C9.25 12.1989 9.32908 12.3897 9.46973 12.5303L12.4697 15.5303C12.7626 15.8232 13.2374 15.8232 13.5303 15.5303C13.8232 15.2374 13.8232 14.7626 13.5303 14.4697L11.8105 12.75H17C17.4142 12.75 17.75 12.4142 17.75 12C17.75 11.5858 17.4142 11.25 17 11.25H11.8105L13.5303 9.53027C13.8232 9.23739 13.8232 8.76261 13.5303 8.46973Z" fill="#1C274C"/>
</svg>
