<svg width="24" height="24" viewBox="0 0 24 24" fill="none" xmlns="http://www.w3.org/2000/svg">
<path d="M12 2C16.714 2 19.0708 2.00037 20.5352 3.46484C21.9996 4.9293 22 7.28597 22 12C22 16.714 21.9997 19.0708 20.5352 20.5352C19.0708 21.9997 16.714 22 12 22C7.28597 22 4.9293 21.9996 3.46484 20.5352C2.00037 19.0708 2 16.714 2 12C2 7.28595 2.00037 4.9293 3.46484 3.46484C4.9293 2.00037 7.28595 2 12 2ZM8.5 9.25C8.2775 9.25 8.06633 9.34866 7.92383 9.51953L5.42383 12.5195C5.15872 12.8377 5.20151 13.3109 5.51953 13.5762C5.83767 13.8412 6.31096 13.7985 6.57617 13.4805L7.75 12.0713V17C7.75 17.4142 8.08579 17.75 8.5 17.75C8.91421 17.75 9.25 17.4142 9.25 17V12.0713L10.4238 13.4805C10.6891 13.7985 11.1623 13.8412 11.4805 13.5762C11.7985 13.3109 11.8412 12.8377 11.5762 12.5195L9.07617 9.51953C8.93367 9.34866 8.72251 9.25 8.5 9.25ZM15.5 9.25C15.2775 9.25 15.0663 9.34867 14.9238 9.51953L12.4238 12.5195C12.1588 12.8377 12.2015 13.3109 12.5195 13.5762C12.8377 13.8412 13.3109 13.7985 13.5762 13.4805L14.75 12.0713V17C14.75 17.4142 15.0858 17.75 15.5 17.75C15.9142 17.75 16.25 17.4142 16.25 17V12.0713L17.4238 13.4805C17.6891 13.7985 18.1623 13.8412 18.4805 13.5762C18.7985 13.3109 18.8412 12.8377 18.5762 12.5195L16.0762 9.51953C15.9337 9.34867 15.7225 9.25 15.5 9.25ZM6 6.25C5.58579 6.25 5.25 6.58579 5.25 7C5.25 7.41421 5.58579 7.75 6 7.75H18C18.4142 7.75 18.75 7.41421 18.75 7C18.75 6.58579 18.4142 6.25 18 6.25H6Z" fill="#1C274C"/>
</svg>
