<svg width="24" height="24" viewBox="0 0 24 24" fill="none" xmlns="http://www.w3.org/2000/svg">
<path d="M12 2C16.4183 2 20 5.64613 20 10.1436C19.9999 14.6057 17.4466 19.8128 13.4629 21.6748C12.5344 22.1088 11.4656 22.1088 10.5371 21.6748C6.55341 19.8128 4.0001 14.6057 4 10.1436C4 5.64613 7.58172 2 12 2ZM12 6.25C9.92893 6.25 8.25 7.92893 8.25 10C8.25 12.0711 9.92893 13.75 12 13.75C12.765 13.75 13.4772 13.5203 14.0703 13.127L14.9678 14.0293C15.2598 14.3229 15.7346 14.3241 16.0283 14.0322C16.322 13.7401 16.3234 13.2654 16.0312 12.9717L15.1309 12.0654C15.5221 11.4733 15.75 10.7627 15.75 10C15.75 7.92893 14.0711 6.25 12 6.25ZM12 7.75C13.2426 7.75 14.25 8.75736 14.25 10C14.25 10.6201 14 11.1802 13.5938 11.5879C13.1854 11.9975 12.6229 12.25 12 12.25C10.7574 12.25 9.75 11.2426 9.75 10C9.75 8.75736 10.7574 7.75 12 7.75Z" fill="#1C274C"/>
</svg>
