<svg width="24" height="24" viewBox="0 0 24 24" fill="none" xmlns="http://www.w3.org/2000/svg">
<path d="M6.58398 6.25C6.96464 6.2496 7.29297 6.24974 7.58203 6.32715C8.35849 6.5352 8.9648 7.14152 9.17285 7.91797C9.25031 8.20705 9.2504 8.53535 9.25 8.91602V11.25H14.75V8.91602C14.7496 8.53535 14.7497 8.20705 14.8271 7.91797C15.0351 7.14152 15.6415 6.5352 16.418 6.32715C16.707 6.24973 17.0353 6.24959 17.416 6.25H17.584C17.9647 6.24959 18.293 6.24973 18.582 6.32715C19.3585 6.5352 19.9649 7.14152 20.1729 7.91797C20.2503 8.20704 20.2504 8.53535 20.25 8.91602V9.26172C21.6515 9.38804 22.7499 10.5656 22.75 12C22.75 13.4345 21.6516 14.613 20.25 14.7393V15.084C20.2504 15.4648 20.2504 15.7938 20.1729 16.083C19.9647 16.8591 19.3584 17.4658 18.582 17.6738C18.293 17.7511 17.9646 17.7504 17.584 17.75H17.416C17.0354 17.7504 16.707 17.7511 16.418 17.6738C15.6416 17.4658 15.0353 16.8591 14.8271 16.083C14.7496 15.7938 14.7496 15.4648 14.75 15.084V12.75H9.25V15.084C9.2504 15.4648 9.25033 15.7938 9.17285 16.083C8.96466 16.8591 8.35831 17.4658 7.58203 17.6738C7.293 17.7511 6.96457 17.7504 6.58398 17.75H6.41602C6.03543 17.7504 5.707 17.7511 5.41797 17.6738C4.64169 17.4658 4.03534 16.8591 3.82715 16.083C3.74967 15.7938 3.7496 15.4648 3.75 15.084V14.7393C2.34837 14.613 1.25 13.4345 1.25 12C1.25008 10.5656 2.34843 9.38804 3.75 9.26172V8.91602C3.7496 8.53535 3.74969 8.20705 3.82715 7.91797C4.0352 7.14152 4.64151 6.5352 5.41797 6.32715C5.70703 6.24974 6.03536 6.2496 6.41602 6.25H6.58398ZM6.5 7.75C5.98673 7.75 5.87699 7.75628 5.80566 7.77539C5.54701 7.84474 5.34481 8.04704 5.27539 8.30566C5.25627 8.377 5.25 8.48687 5.25 9V15C5.25 15.5133 5.25627 15.623 5.27539 15.6943C5.34473 15.9531 5.54696 16.1552 5.80566 16.2246C5.87699 16.2437 5.98673 16.25 6.5 16.25C7.01327 16.25 7.12301 16.2437 7.19434 16.2246C7.45304 16.1552 7.65527 15.9531 7.72461 15.6943C7.74373 15.623 7.75 15.5133 7.75 15V9C7.75 8.48688 7.74373 8.377 7.72461 8.30566C7.65519 8.04704 7.45299 7.84474 7.19434 7.77539C7.12301 7.75628 7.01327 7.75 6.5 7.75ZM17.5 7.75C16.9867 7.75 16.877 7.75628 16.8057 7.77539C16.547 7.84475 16.3448 8.04704 16.2754 8.30566C16.2562 8.37699 16.25 8.48687 16.25 9V15C16.25 15.5133 16.2562 15.623 16.2754 15.6943C16.3447 15.9531 16.547 16.1552 16.8057 16.2246C16.877 16.2437 16.9867 16.25 17.5 16.25C18.0133 16.25 18.123 16.2437 18.1943 16.2246C18.453 16.1552 18.6553 15.9531 18.7246 15.6943C18.7438 15.623 18.75 15.5133 18.75 15V9C18.75 8.48687 18.7438 8.377 18.7246 8.30566C18.6552 8.04704 18.453 7.84475 18.1943 7.77539C18.123 7.75628 18.0133 7.75 17.5 7.75ZM3.75 10.7754C3.17951 10.8912 2.75007 11.3954 2.75 12C2.75 12.6048 3.17944 13.1098 3.75 13.2256V10.7754ZM20.25 13.2256C20.8206 13.1098 21.25 12.6048 21.25 12C21.2499 11.3954 20.8205 10.8912 20.25 10.7754V13.2256Z" fill="#48465C"/>
</svg>
