<svg width="24" height="24" viewBox="0 0 24 24" fill="none" xmlns="http://www.w3.org/2000/svg">
<path d="M8.96973 6.46979C9.26262 6.1769 9.73741 6.1769 10.0303 6.46979C10.3231 6.76268 10.3231 7.23747 10.0303 7.53033L6.31055 11.2501H14.5C15.4534 11.2501 16.867 11.5302 18.0635 12.3917C19.2981 13.2808 20.25 14.7559 20.25 17.0001C20.25 17.4142 19.9142 17.75 19.5 17.7501C19.0858 17.7501 18.75 17.4142 18.75 17.0001C18.75 15.2445 18.035 14.2194 17.1865 13.6085C16.2998 12.9701 15.2132 12.7501 14.5 12.7501H6.31055L10.0303 16.4698C10.3231 16.7627 10.3232 17.2375 10.0303 17.5303C9.73744 17.8232 9.26262 17.8232 8.96973 17.5303L3.96973 12.5303C3.67684 12.2374 3.67684 11.7627 3.96973 11.4698L8.96973 6.46979Z" fill="#48465C"/>
</svg>
