<svg width="24" height="24" viewBox="0 0 24 24" fill="none" xmlns="http://www.w3.org/2000/svg">
<path d="M6 2C7.88562 2 8.82828 2.00015 9.41406 2.58594C9.99985 3.17172 10 4.11438 10 6V18C10 19.8856 9.99985 20.8283 9.41406 21.4141C8.82828 21.9999 7.88561 22 6 22C4.11439 22 3.17172 21.9999 2.58594 21.4141C2.00015 20.8283 2 19.8856 2 18V6C2 4.11438 2.00015 3.17172 2.58594 2.58594C3.17172 2.00015 4.11438 2 6 2ZM18 2C19.8856 2 20.8283 2.00015 21.4141 2.58594C21.9999 3.17172 22 4.11439 22 6V18C22 19.8856 21.9999 20.8283 21.4141 21.4141C20.8283 21.9999 19.8856 22 18 22C16.1144 22 15.1717 21.9999 14.5859 21.4141C14.0001 20.8283 14 19.8856 14 18V6C14 4.11439 14.0001 3.17172 14.5859 2.58594C15.1717 2.00015 16.1144 2 18 2Z" fill="#48465C"/>
</svg>
