<svg width="24" height="24" viewBox="0 0 24 24" fill="none" xmlns="http://www.w3.org/2000/svg">
<path d="M11.9997 3.25C12.4139 3.25 12.7497 3.58579 12.7497 4V13.25H17.9997C18.3031 13.25 18.5769 13.4326 18.693 13.7129C18.8091 13.9931 18.7445 14.3158 18.53 14.5303L12.53 20.5303C12.3893 20.6708 12.1985 20.75 11.9997 20.75C11.8009 20.7499 11.6099 20.6709 11.4694 20.5303L5.46941 14.5303C5.25503 14.3158 5.19125 13.993 5.3073 13.7129C5.42338 13.4328 5.69654 13.2501 5.99968 13.25H11.2497V4C11.2497 3.5859 11.5856 3.25017 11.9997 3.25Z" fill="#1C274C"/>
</svg>
