<svg width="24" height="24" viewBox="0 0 24 24" fill="none" xmlns="http://www.w3.org/2000/svg">
<path d="M11.9998 3.25C12.414 3.25 12.7498 3.58579 12.7498 4V13.25H17.9998C18.3031 13.25 18.577 13.4326 18.6931 13.7129C18.8092 13.9931 18.7445 14.3158 18.53 14.5303L12.53 20.5303C12.3893 20.6708 12.1986 20.75 11.9998 20.75C11.801 20.7499 11.61 20.6709 11.4695 20.5303L5.46948 14.5303C5.25511 14.3158 5.19132 13.993 5.30737 13.7129C5.42346 13.4328 5.69661 13.2501 5.99976 13.25H11.2498V4C11.2498 3.5859 11.5857 3.25017 11.9998 3.25Z" fill="#48465C"/>
</svg>
