<svg width="24" height="24" viewBox="0 0 24 24" fill="none" xmlns="http://www.w3.org/2000/svg">
<path d="M12 2C16.714 2 19.0708 2.00037 20.5352 3.46484C21.9996 4.9293 22 7.28597 22 12C22 16.714 21.9997 19.0708 20.5352 20.5352C19.0708 21.9997 16.714 22 12 22C7.28597 22 4.9293 21.9996 3.46484 20.5352C2.00037 19.0708 2 16.714 2 12C2 7.28595 2.00037 4.9293 3.46484 3.46484C4.9293 2.00037 7.28595 2 12 2ZM12.0303 8.46973C11.7374 8.17684 11.2626 8.17684 10.9697 8.46973L7.96973 11.4697C7.67684 11.7626 7.67684 12.2374 7.96973 12.5303L10.9697 15.5303C11.2626 15.8232 11.7374 15.8232 12.0303 15.5303C12.3232 15.2374 12.3232 14.7626 12.0303 14.4697L9.56055 12L12.0303 9.53027C12.3232 9.23739 12.3232 8.76261 12.0303 8.46973ZM16.0303 8.46973C15.7374 8.17684 15.2626 8.17684 14.9697 8.46973L11.9697 11.4697C11.6768 11.7626 11.6768 12.2374 11.9697 12.5303L14.9697 15.5303C15.2626 15.8232 15.7374 15.8232 16.0303 15.5303C16.3232 15.2374 16.3232 14.7626 16.0303 14.4697L13.5605 12L16.0303 9.53027C16.3232 9.23739 16.3232 8.76261 16.0303 8.46973Z" fill="#1C274C"/>
</svg>
