<svg width="24" height="24" viewBox="0 0 24 24" fill="none" xmlns="http://www.w3.org/2000/svg">
<path d="M12 2C17.5228 2 22 6.47715 22 12C22 17.5228 17.5228 22 12 22C6.47715 22 2 17.5228 2 12C2 6.47715 6.47715 2 12 2ZM13.7471 5.48145C12.7801 5.22233 11.8028 5.18714 10.874 5.34473C10.4661 5.41422 10.1917 5.80091 10.2607 6.20898C10.33 6.61736 10.7176 6.89253 11.126 6.82324C11.8461 6.70112 12.6042 6.72855 13.3584 6.93066C16.1582 7.68093 17.8195 10.5585 17.0693 13.3584C16.319 16.1582 13.4415 17.8195 10.6416 17.0693C7.84174 16.319 6.18044 13.4415 6.93066 10.6416C7.05893 10.1629 7.24872 9.71796 7.48926 9.31348L11.5283 12.583C11.8502 12.8435 12.3224 12.7937 12.583 12.4717C12.8435 12.1498 12.7937 11.6776 12.4717 11.417L8.27441 8.01953C7.71288 7.56503 6.80835 7.60714 6.35547 8.29785C5.9709 8.88438 5.67233 9.54068 5.48145 10.2529C4.51684 13.8529 6.65305 17.5537 10.2529 18.5186C13.8529 19.4831 17.5537 17.3469 18.5186 13.7471C19.4831 10.1471 17.3469 6.44627 13.7471 5.48145Z" fill="#1C274C"/>
</svg>
