<svg width="24" height="24" viewBox="0 0 24 24" fill="none" xmlns="http://www.w3.org/2000/svg">
<path d="M12 1.25C17.9371 1.25 22.75 6.06294 22.75 12C22.75 17.9371 17.9371 22.75 12 22.75C9.44962 22.75 7.10677 21.8618 5.26367 20.3779L5.26074 20.376C2.81498 18.4055 1.25 15.3853 1.25 12C1.25 6.06294 6.06294 1.25 12 1.25ZM18.1357 14.9639C15.5298 17.7657 11.8666 19.7722 8.04199 20.3633C9.24187 20.9321 10.5839 21.25 12 21.25C15.315 21.25 18.2223 19.506 19.8555 16.8857C19.3675 16.1599 18.7874 15.5152 18.1357 14.9639ZM12.1621 13.0137C10.2602 15.459 7.4225 16.9752 4.36035 17.2158C4.8244 17.8942 5.3764 18.508 6 19.04C10.0218 18.9576 14.1 17.0239 16.9053 14.083C15.548 13.2688 13.9873 12.8011 12.3633 12.7539L12.1621 13.0137ZM6.09375 4.88086C4.05094 6.57758 2.75 9.13692 2.75 12C2.75 13.3349 3.03309 14.6038 3.54199 15.75C4.65346 15.7451 5.74091 15.5453 6.75977 15.1719C5.41286 11.8687 5.1908 8.27852 6.09375 4.88086ZM11.3623 7.25488C11.3783 8.6414 11.7381 10.0182 12.4307 11.2549C15.6413 11.3549 18.6345 12.8721 20.6133 15.3799C21.0244 14.333 21.25 13.1928 21.25 12C21.25 11.9391 21.2492 11.878 21.248 11.8174L20.7119 11.2734L20.71 11.2705C18.2198 8.78163 14.8726 7.34742 11.3623 7.25488ZM10.8457 2.82129C9.871 2.94266 8.94308 3.21592 8.08691 3.61621C6.69238 7.14685 6.70457 11.0204 8.12402 14.5449C9.21598 13.9343 10.1896 13.1057 10.9775 12.0928L11.0957 11.9414C9.64118 9.31101 9.45865 6.14967 10.6221 3.35742L10.8457 2.82129ZM12.0068 3.93457C11.7602 4.52669 11.5845 5.1385 11.4795 5.75781C14.9386 5.86663 18.2507 7.15006 20.875 9.38379C19.7908 5.70092 16.4758 2.97247 12.4941 2.7627L12.0068 3.93457Z" fill="#1C274C"/>
</svg>
