<svg width="24" height="24" viewBox="0 0 24 24" fill="none" xmlns="http://www.w3.org/2000/svg">
<path d="M22 20.25C22.4142 20.25 22.75 20.5858 22.75 21C22.75 21.4142 22.4142 21.75 22 21.75H2C1.58579 21.75 1.25 21.4142 1.25 21C1.25 20.5858 1.58579 20.25 2 20.25H22ZM16 8C17.8856 8 18.8283 8.00015 19.4141 8.58594C19.9999 9.17172 20 10.1144 20 12C20 13.8856 19.9999 14.8283 19.4141 15.4141C18.8283 15.9999 17.8856 16 16 16H8C6.11439 16 5.17172 15.9999 4.58594 15.4141C4.00015 14.8283 4 13.8856 4 12C4 10.1144 4.00015 9.17173 4.58594 8.58594C5.17172 8.00015 6.11438 8 8 8H16ZM22 2.25C22.4142 2.25 22.75 2.58579 22.75 3C22.75 3.41421 22.4142 3.75 22 3.75H2C1.58579 3.75 1.25 3.41421 1.25 3C1.25 2.58579 1.58579 2.25 2 2.25H22Z" fill="#1C274C"/>
</svg>
