<svg width="24" height="24" viewBox="0 0 24 24" fill="none" xmlns="http://www.w3.org/2000/svg">
<path d="M8.11792 11.2588C8.56273 10.814 9.31626 10.9592 9.56421 11.5371C10.1223 12.8395 11.1602 13.8774 12.4626 14.4355C13.0408 14.6834 13.1858 15.4369 12.741 15.8818L11.4617 17.1611C11.4245 17.1983 11.379 17.2733 11.365 17.4326C11.3506 17.5959 11.3749 17.7997 11.4333 18.0107C11.7912 19.3047 11.3119 20.8744 10.3933 21.793C9.11684 23.0695 7.04692 23.0692 5.77026 21.793C5.05357 21.0763 4.73889 20.1089 4.8269 19.1729C3.89104 19.2608 2.92443 18.9469 2.20776 18.2305C0.931149 16.9538 0.93115 14.884 2.20776 13.6074C3.12652 12.6887 4.69597 12.2083 5.98999 12.5664C6.20088 12.6248 6.40394 12.6492 6.56714 12.6348C6.72662 12.6207 6.80142 12.5753 6.83862 12.5381L8.11792 11.2588ZM7.90308 13.5957L7.89917 13.5986L7.87671 13.6211C7.52435 13.9608 7.088 14.0956 6.69897 14.1299C6.3051 14.1647 5.91496 14.1027 5.5896 14.0127C4.85718 13.81 3.83602 14.1003 3.26831 14.668C2.57748 15.3588 2.57748 16.4791 3.26831 17.1699C3.95918 17.8604 5.07954 17.8606 5.77026 17.1699C5.84348 17.0967 5.92803 17.0415 6.01831 17.0049L6.02417 17.002C6.29369 16.8955 6.61286 16.952 6.83081 17.1699C7.12332 17.4628 7.12352 17.9377 6.83081 18.2305C6.13998 18.9213 6.13998 20.0415 6.83081 20.7324C7.52152 21.4227 8.64106 21.4226 9.33179 20.7324C9.89948 20.1647 10.1907 19.1427 9.98804 18.4102C9.89801 18.0849 9.8361 17.6947 9.87085 17.3008C9.90598 16.9034 10.045 16.4566 10.4011 16.1006L11.0847 15.417C10.051 14.8105 9.18923 13.9487 8.58276 12.915L7.90308 13.5957ZM14.9998 18.25C15.4139 18.25 15.7496 18.5859 15.7498 19V20C15.7498 20.4142 15.414 20.75 14.9998 20.75C14.5856 20.7499 14.2498 20.4141 14.2498 20V19C14.2499 18.586 14.5857 18.2501 14.9998 18.25ZM17.1267 17.127C17.4196 16.8341 17.8944 16.8341 18.1873 17.127L19.6013 18.541C19.8942 18.8339 19.8942 19.3087 19.6013 19.6016C19.3084 19.8942 18.8336 19.8944 18.5408 19.6016L17.1267 18.1875C16.8339 17.8947 16.8341 17.4199 17.1267 17.127ZM19.9998 14.25C20.4139 14.25 20.7496 14.5859 20.7498 15C20.7498 15.4142 20.414 15.75 19.9998 15.75H18.9998C18.5856 15.7499 18.2498 15.4141 18.2498 15C18.2499 14.586 18.5857 14.2501 18.9998 14.25H19.9998ZM13.6072 2.20801C14.8838 0.931393 16.9535 0.931393 18.2302 2.20801C18.9467 2.92469 19.2616 3.89126 19.1736 4.82715C20.1094 4.73928 21.0761 5.05393 21.7927 5.77051C23.069 7.04716 23.0693 9.11706 21.7927 10.3936C20.8741 11.3121 19.3044 11.7915 18.0105 11.4336C17.7997 11.3752 17.5966 11.3509 17.4333 11.3652C17.2738 11.3792 17.1981 11.4247 17.1609 11.4619L15.8816 12.7412C15.4367 13.186 14.6832 13.041 14.4353 12.4629C13.8772 11.1605 12.8393 10.1226 11.5369 9.56445C10.959 9.31646 10.8139 8.56295 11.2585 8.11816L12.5378 6.83887C12.575 6.80166 12.6215 6.72692 12.6355 6.56738C12.6499 6.40418 12.6245 6.20113 12.5662 5.99023C12.2081 4.69624 12.6885 3.12677 13.6072 2.20801ZM17.1697 3.26855C16.4789 2.57772 15.3585 2.57772 14.6677 3.26855C14.1001 3.83628 13.8098 4.85745 14.0125 5.58984C14.1025 5.91521 14.1644 6.30533 14.1296 6.69922C14.0946 7.09657 13.9554 7.54324 13.5994 7.89941L12.9148 8.58301C13.9485 9.18947 14.8102 10.0513 15.4167 11.085L16.1003 10.4014C16.4565 10.0451 16.904 9.90615 17.3015 9.87109C17.6952 9.83642 18.0846 9.89829 18.4099 9.98828C19.1424 10.191 20.1645 9.89972 20.7322 9.33203C21.4225 8.64129 21.4225 7.52178 20.7322 6.83105C20.0413 6.14022 18.921 6.14022 18.2302 6.83105C17.9374 7.12373 17.4626 7.12361 17.1697 6.83105C16.8768 6.5382 16.8769 6.06341 17.1697 5.77051C17.8604 5.07976 17.8602 3.95941 17.1697 3.26855ZM4.99976 8.25C5.4139 8.25 5.74965 8.58588 5.74976 9C5.74976 9.41421 5.41397 9.75 4.99976 9.75H3.99976C3.58564 9.74989 3.24976 9.41414 3.24976 9C3.24986 8.58595 3.58571 8.25011 3.99976 8.25H4.99976ZM4.39917 4.39941C4.69207 4.10658 5.16685 4.10653 5.45972 4.39941L6.87378 5.81348C7.16645 6.10636 7.16654 6.58119 6.87378 6.87402C6.58095 7.16685 6.10614 7.16672 5.81323 6.87402L4.39917 5.45996C4.10627 5.16707 4.10627 4.6923 4.39917 4.39941ZM8.99976 3.25C9.4139 3.25 9.74965 3.58588 9.74976 4V5C9.74976 5.41421 9.41397 5.75 8.99976 5.75C8.58564 5.74989 8.24976 5.41414 8.24976 5V4C8.24986 3.58595 8.58571 3.25011 8.99976 3.25Z" fill="#1C274C"/>
</svg>
