<svg width="24" height="24" viewBox="0 0 24 24" fill="none" xmlns="http://www.w3.org/2000/svg">
<path d="M9.64844 6.19141C11.9869 4.54733 13.1562 3.72601 14.1377 4.08301C14.3258 4.15148 14.5082 4.25017 14.6709 4.37207C15.5192 5.00789 15.584 6.48693 15.7129 9.44531C15.7607 10.5407 15.793 11.4785 15.793 12C15.793 12.5215 15.7607 13.4592 15.7129 14.5547C15.584 17.5133 15.5193 18.9931 14.6709 19.6289C14.5082 19.7507 14.3257 19.8495 14.1377 19.918C13.1563 20.2748 11.9869 19.4526 9.64844 17.8086C9.05571 17.3918 8.75916 17.1836 8.42871 17.0625C8.36023 17.0374 8.29083 17.0154 8.2207 16.9961C7.88237 16.9032 7.52711 16.9023 6.81738 16.9023C4.83036 16.9023 3.83651 16.9028 3.08398 16.2676C2.94669 16.1516 2.78259 15.9808 2.6709 15.8369C2.05902 15.0484 2.04026 14.1271 2.00293 12.2852C2.00097 12.1885 2 12.0928 2 12C2 11.9073 2.00097 11.8124 2.00293 11.7158C2.04027 9.87369 2.05908 8.95255 2.6709 8.16406C2.78255 8.02018 2.94666 7.84936 3.08398 7.7334C3.83652 7.09807 4.83027 7.09766 6.81738 7.09766C7.52711 7.09766 7.88237 7.09776 8.2207 7.00488C8.29082 6.98563 8.36025 6.96355 8.42871 6.93848C8.75917 6.81741 9.05567 6.60817 9.64844 6.19141ZM19.6055 5.46875C19.888 5.30716 20.2477 5.37363 20.4609 5.64648L20.4619 5.64844L20.4629 5.64941L20.4658 5.65332L20.4727 5.66211C20.4779 5.66907 20.4845 5.6779 20.4922 5.68848C20.5076 5.70958 20.5278 5.7377 20.5518 5.77344C20.5998 5.84515 20.6639 5.94688 20.7383 6.0791C20.8872 6.34366 21.0773 6.73156 21.2646 7.25098C21.6399 8.29167 22 9.85235 22 12.001C22 14.1493 21.6399 15.7094 21.2646 16.75C21.0773 17.2693 20.8872 17.6573 20.7383 17.9219C20.6639 18.0541 20.5998 18.1558 20.5518 18.2275C20.5278 18.2632 20.5076 18.2914 20.4922 18.3125C20.4845 18.3231 20.4779 18.332 20.4727 18.3389L20.4658 18.3477L20.4629 18.3516L20.4619 18.3535C20.4613 18.3536 20.4487 18.3442 19.9307 17.8838L20.4609 18.3545C20.2171 18.6665 19.7819 18.7082 19.4893 18.4482C19.1983 18.1894 19.1576 17.7289 19.3975 17.417C19.3981 17.4163 19.399 17.415 19.4004 17.4131C19.4053 17.4064 19.415 17.3926 19.4287 17.3721C19.4561 17.3312 19.5008 17.2626 19.5557 17.165C19.6653 16.97 19.8192 16.6588 19.9766 16.2227C20.2908 15.3514 20.621 13.97 20.6211 12.001C20.6211 10.0317 20.2909 8.64964 19.9766 7.77832C19.8192 7.34217 19.6653 7.03094 19.5557 6.83594C19.5008 6.73836 19.4561 6.6698 19.4287 6.62891C19.415 6.60851 19.4053 6.59459 19.4004 6.58789C19.3991 6.58597 19.398 6.58471 19.3975 6.58398L19.6055 5.46875ZM17.7568 8.41602C18.0898 8.21878 18.5104 8.34712 18.6953 8.70215V8.70312L18.6963 8.7041L18.6982 8.70703L18.7012 8.71484L18.71 8.73242C18.7167 8.74622 18.725 8.76407 18.7344 8.78516C18.7532 8.82732 18.7777 8.8841 18.8047 8.95605C18.8589 9.10034 18.9254 9.30549 18.9902 9.5752C19.1201 10.1154 19.2412 10.9128 19.2412 12.001C19.2412 13.089 19.1201 13.8857 18.9902 14.4258C18.9254 14.6954 18.8589 14.9006 18.8047 15.0449C18.7778 15.1168 18.7532 15.1737 18.7344 15.2158C18.725 15.2369 18.7167 15.2548 18.71 15.2686L18.7012 15.2861L18.6982 15.2939L18.6963 15.2969L18.6953 15.2979C18.6916 15.2962 18.647 15.2713 18.0918 14.9424L18.6953 15.2988C18.5104 15.6539 18.0898 15.7823 17.7568 15.585C17.4269 15.3894 17.3061 14.9473 17.4844 14.5938L17.4893 14.584C17.4956 14.5699 17.5074 14.5417 17.5234 14.499C17.5555 14.4135 17.6043 14.2687 17.6543 14.0605C17.7543 13.6448 17.8623 12.9711 17.8623 12.001C17.8623 11.0307 17.7543 10.3563 17.6543 9.94043C17.6043 9.73229 17.5555 9.58746 17.5234 9.50195C17.5074 9.45931 17.4955 9.43107 17.4893 9.41699L17.4844 9.40723C17.3061 9.05374 17.4269 8.61163 17.7568 8.41602Z" fill="#48465C"/>
</svg>
