<svg width="24" height="24" viewBox="0 0 24 24" fill="none" xmlns="http://www.w3.org/2000/svg">
<path d="M22 20.25C22.4142 20.25 22.75 20.5858 22.75 21C22.75 21.4142 22.4142 21.75 22 21.75H2C1.58579 21.75 1.25 21.4142 1.25 21C1.25 20.5858 1.58579 20.25 2 20.25H22ZM7.5 3C8.43462 3 8.90192 3.00021 9.25 3.20117C9.47796 3.3328 9.6672 3.52204 9.79883 3.75C9.99979 4.09808 10 4.56538 10 5.5V14.5C10 15.4346 9.99979 15.9019 9.79883 16.25C9.66719 16.4779 9.47797 16.6672 9.25 16.7988C8.90192 16.9998 8.43462 17 7.5 17C6.56538 17 6.09808 16.9998 5.75 16.7988C5.52203 16.6672 5.33281 16.4779 5.20117 16.25C5.00021 15.9019 5 15.4346 5 14.5V5.5C5 4.56538 5.00021 4.09808 5.20117 3.75C5.3328 3.52204 5.52204 3.3328 5.75 3.20117C6.09808 3.00021 6.56538 3 7.5 3ZM16.5 6C17.4346 6 17.9019 6.00021 18.25 6.20117C18.4779 6.33281 18.6672 6.52203 18.7988 6.75C18.9998 7.09808 19 7.56538 19 8.5V14.5C19 15.4346 18.9998 15.9019 18.7988 16.25C18.6672 16.4779 18.4779 16.6672 18.25 16.7988C17.9019 16.9998 17.4346 17 16.5 17C15.5654 17 15.0981 16.9998 14.75 16.7988C14.5221 16.6672 14.3328 16.4779 14.2012 16.25C14.0002 15.9019 14 15.4346 14 14.5V8.5C14 7.56538 14.0002 7.09808 14.2012 6.75C14.3328 6.52203 14.5221 6.33281 14.75 6.20117C15.0981 6.00021 15.5654 6 16.5 6Z" fill="#48465C"/>
</svg>
