<svg width="24" height="24" viewBox="0 0 24 24" fill="none" xmlns="http://www.w3.org/2000/svg">
<path d="M12.5 14C13.9142 14 14.6211 14.0002 15.0605 14.4395C15.4998 14.8789 15.5 15.5858 15.5 17V19C15.5 20.4142 15.4998 21.1211 15.0605 21.5605C14.6211 21.9998 13.9142 22 12.5 22H11.5C10.0858 22 9.37879 21.9998 8.93945 21.5605C8.50013 21.1211 8.5 20.4142 8.5 19V17C8.5 15.5858 8.50013 14.8789 8.93945 14.4395C9.37879 14.0002 10.0858 14 11.5 14H12.5ZM11 17.25C10.5858 17.25 10.25 17.5858 10.25 18C10.25 18.4142 10.5858 18.75 11 18.75H13C13.4142 18.75 13.75 18.4142 13.75 18C13.75 17.5858 13.4142 17.25 13 17.25H11ZM12.4766 2C15.416 2.00018 17.8371 4.19364 18.1553 7.01465C20.393 7.77989 21.9998 9.88095 22 12.3525C22 15.2323 19.8188 17.6086 17 17.9561V16.918C17.0002 16.2821 17.0002 15.6641 16.9316 15.1543C16.8543 14.5795 16.666 13.9237 16.1211 13.3789C15.5763 12.8341 14.9205 12.6457 14.3457 12.5684C13.8359 12.4999 13.2179 12.4999 12.582 12.5H11.418C10.782 12.4999 10.164 12.4999 9.6543 12.5684C9.0795 12.6457 8.42373 12.8341 7.87891 13.3789C7.33409 13.9237 7.14565 14.5795 7.06836 15.1543C6.99984 15.6641 6.99988 16.2821 7 16.918V18H6.28613C3.9192 18 2 16.1037 2 13.7646C2.00003 11.4256 3.91922 9.5293 6.28613 9.5293C6.57009 9.52932 6.8477 9.55629 7.11621 9.6084C6.88725 8.99756 6.76177 8.33698 6.76172 7.64746C6.76172 4.52867 9.32064 2 12.4766 2Z" fill="#48465C"/>
</svg>
