<svg width="24" height="24" viewBox="0 0 24 24" fill="none" xmlns="http://www.w3.org/2000/svg">
<path d="M13 3.25C13.4142 3.25 13.75 3.58579 13.75 4C13.75 4.41421 13.4142 4.75 13 4.75H10C8.09324 4.75 6.73859 4.75149 5.71094 4.88965C4.70485 5.02491 4.12536 5.27894 3.70215 5.70215C3.27894 6.12536 3.02491 6.70485 2.88965 7.71094C2.75149 8.73859 2.75 10.0933 2.75 12C2.75 13.9067 2.7515 15.2614 2.88965 16.2891C3.02491 17.2951 3.27894 17.8747 3.70215 18.2979C4.12536 18.7211 4.70485 18.9752 5.71094 19.1104C6.73858 19.2485 8.09325 19.25 10 19.25H14C15.9067 19.25 17.2614 19.2485 18.2891 19.1104C19.2951 18.9752 19.8747 18.7211 20.2979 18.2979C20.7211 17.8747 20.9752 17.2951 21.1104 16.2891C21.2485 15.2614 21.25 13.9067 21.25 12C21.25 11.6271 21.2526 11.3543 21.2549 11.1201C21.2586 10.7412 21.2613 10.4623 21.25 10.0195C21.2395 9.60555 21.5667 9.26075 21.9805 9.25C22.3944 9.23948 22.7392 9.56661 22.75 9.98047C22.7618 10.4464 22.7588 10.7651 22.7549 11.167C22.7527 11.401 22.75 11.6635 22.75 12V12.0566C22.75 13.8943 22.7498 15.3501 22.5967 16.4893C22.439 17.6615 22.1066 18.6101 21.3584 19.3584C20.6101 20.1066 19.6615 20.439 18.4893 20.5967C17.3501 20.7498 15.8943 20.75 14.0566 20.75H9.94336C8.10571 20.75 6.6499 20.7498 5.51074 20.5967C4.33844 20.439 3.38992 20.1066 2.6416 19.3584C1.89332 18.6101 1.56095 17.6615 1.40332 16.4893C1.25016 15.3501 1.24998 13.8943 1.25 12.0566V11.9434C1.24998 10.1057 1.25016 8.6499 1.40332 7.51074C1.56095 6.33843 1.8933 5.38992 2.6416 4.6416C3.38992 3.8933 4.33844 3.56096 5.51074 3.40332C6.6499 3.25017 8.1057 3.24998 9.94336 3.25H13ZM5.42383 7.51953C5.68904 7.2015 6.16232 7.15871 6.48047 7.42383L8.63867 9.22266C9.57152 10 10.2197 10.5379 10.7666 10.8896C11.2959 11.2301 11.6549 11.3447 12 11.3447C12.3451 11.3447 12.7041 11.2301 13.2334 10.8896C13.7803 10.5379 14.4284 10 15.3613 9.22266C15.6795 8.95778 16.1519 9.00123 16.417 9.31934C16.682 9.6375 16.6394 10.1099 16.3213 10.375L16.2842 10.4062C15.3979 11.1448 14.679 11.7436 14.0449 12.1514C13.3844 12.5762 12.7411 12.8447 12 12.8447C11.2589 12.8447 10.6156 12.5762 9.95508 12.1514C9.32109 11.7436 8.60301 11.1447 7.7168 10.4062L5.51953 8.57617C5.2015 8.31096 5.15871 7.83768 5.42383 7.51953ZM19 1.25C21.0711 1.25 22.75 2.92893 22.75 5C22.75 7.07107 21.0711 8.75 19 8.75C16.9289 8.75 15.25 7.07107 15.25 5C15.25 2.92893 16.9289 1.25 19 1.25ZM19 2.75C17.7574 2.75 16.75 3.75736 16.75 5C16.75 6.24264 17.7574 7.25 19 7.25C20.2426 7.25 21.25 6.24264 21.25 5C21.25 3.75736 20.2426 2.75 19 2.75Z" fill="#1C274C"/>
</svg>
