<svg width="24" height="24" viewBox="0 0 24 24" fill="none" xmlns="http://www.w3.org/2000/svg">
<path d="M17.0732 1.38086C18.7639 1.54715 20.0673 1.93574 21.0654 2.93359C21.9602 3.8284 22.3662 4.96932 22.5605 6.41406C22.7502 7.82545 22.75 9.63433 22.75 11.9424V12.0576C22.75 12.3718 22.7495 12.6767 22.749 12.9727C22.7493 12.9816 22.75 12.991 22.75 13C22.75 13.0098 22.7494 13.0195 22.749 13.0293C22.7456 14.8811 22.7227 16.379 22.5605 17.5859C22.3662 19.0306 21.9602 20.1706 21.0654 21.0654C20.1706 21.9602 19.0306 22.3662 17.5859 22.5605C16.1745 22.7502 14.3657 22.75 12.0576 22.75H11.9424C9.63433 22.75 7.82544 22.7502 6.41406 22.5605C4.96933 22.3662 3.82938 21.9602 2.93457 21.0654C2.03976 20.1706 1.63369 19.0306 1.43945 17.5859C1.27721 16.379 1.25438 14.8812 1.25098 13.0293C1.2506 13.0196 1.25 13.0098 1.25 13V11.9424C1.24999 9.63433 1.24975 7.82545 1.43945 6.41406C1.63369 4.96932 2.03976 3.8284 2.93457 2.93359C3.93271 1.93572 5.23613 1.54715 6.92676 1.38086C7.33893 1.34039 7.70555 1.64152 7.74609 2.05371C7.78647 2.46581 7.48537 2.83252 7.07324 2.87305C5.51394 3.02644 4.62984 3.36039 3.99512 3.99512C3.42552 4.56472 3.09864 5.33506 2.92676 6.61328C2.75198 7.91326 2.75 9.62178 2.75 12C2.75 12.0842 2.74999 12.1675 2.75 12.25H5.29492C6.06725 12.2492 6.6792 12.2489 7.22949 12.502C7.77967 12.7551 8.17768 13.2198 8.67969 13.8066C8.70831 13.8401 8.73725 13.874 8.7666 13.9082L9.37207 14.6152C10.0058 15.3545 10.1838 15.5374 10.3975 15.6357C10.6113 15.7341 10.8661 15.75 11.8398 15.75H12.1602C13.1339 15.75 13.3887 15.7341 13.6025 15.6357C13.8162 15.5374 13.9943 15.3545 14.6279 14.6152L15.2334 13.9082C15.2628 13.874 15.2916 13.8401 15.3203 13.8066C15.8223 13.2198 16.2203 12.7551 16.7705 12.502C17.3207 12.2489 17.9328 12.2492 18.7051 12.25H21.25V12C21.25 9.62178 21.248 7.91326 21.0732 6.61328C20.9014 5.33506 20.5745 4.56472 20.0049 3.99512C19.3702 3.36039 18.4861 3.02644 16.9268 2.87305C16.5147 2.83252 16.2136 2.46581 16.2539 2.05371C16.2944 1.64152 16.6611 1.34038 17.0732 1.38086ZM2.75391 13.75C2.76335 15.2526 2.79817 16.4303 2.92676 17.3867C3.09865 18.6649 3.42552 19.4352 3.99512 20.0049C4.56471 20.5745 5.33509 20.9014 6.61328 21.0732C7.91326 21.248 9.62178 21.25 12 21.25C14.3782 21.25 16.0867 21.248 17.3867 21.0732C18.6649 20.9014 19.4352 20.5745 20.0049 20.0049C20.5745 19.4352 20.9014 18.6649 21.0732 17.3867C21.2018 16.4303 21.2367 15.2526 21.2461 13.75H18.8398C17.866 13.75 17.6113 13.7659 17.3975 13.8643C17.1838 13.9626 17.0058 14.1455 16.3721 14.8848L15.7666 15.5908C15.7371 15.6252 15.7085 15.6598 15.6797 15.6934C15.1777 16.2802 14.7797 16.7449 14.2295 16.998C13.6793 17.2511 13.0672 17.2508 12.2949 17.25H11.7051C10.9328 17.2508 10.3207 17.2511 9.77051 16.998C9.2203 16.7449 8.82234 16.2802 8.32031 15.6934C8.29158 15.6598 8.26286 15.6252 8.2334 15.5908L7.62793 14.8848C6.99423 14.1455 6.81629 13.9626 6.60254 13.8643C6.38878 13.7659 6.13397 13.75 5.16016 13.75H2.75391ZM11.4697 1.46973C11.7626 1.17684 12.2374 1.17684 12.5303 1.46973L15.5303 4.46973C15.8231 4.76262 15.8232 5.2374 15.5303 5.53027C15.2374 5.82314 14.7626 5.82314 14.4697 5.53027L12.75 3.81055V10C12.75 10.4142 12.4142 10.75 12 10.75C11.5858 10.75 11.25 10.4142 11.25 10V3.81055L9.53027 5.53027C9.23739 5.82312 8.76261 5.82312 8.46973 5.53027C8.17685 5.23739 8.17687 4.76262 8.46973 4.46973L11.4697 1.46973Z" fill="#48465C"/>
</svg>
