<svg width="24" height="24" viewBox="0 0 24 24" fill="none" xmlns="http://www.w3.org/2000/svg">
<path d="M16.5586 14.0537C18.2314 13.7819 19.7498 15.0729 19.75 16.7676V22C19.75 22.4142 19.4141 22.7499 19 22.75C18.5858 22.75 18.25 22.4142 18.25 22V16.7676C18.2498 15.9975 17.5599 15.4109 16.7998 15.5342L15.7871 15.6982C15.3782 15.7647 14.9922 15.487 14.9258 15.0781C14.8596 14.6696 15.1373 14.2844 15.5459 14.2178L16.5586 14.0537ZM10.5029 9.20703C11.9874 8.57105 13.6384 9.65943 13.6387 11.2744V13.8955C13.6386 14.3655 13.5185 14.828 13.2891 15.2383L10.5762 20.0859C10.2513 20.6666 9.7273 21.1104 9.10059 21.334L5.25195 22.7061C4.86181 22.8453 4.43214 22.6421 4.29297 22.252C4.15394 21.8618 4.35797 21.4331 4.74805 21.2939L8.59668 19.9209C8.88147 19.8193 9.11994 19.6175 9.26758 19.3535L11.9795 14.5059C12.0838 14.3195 12.1386 14.109 12.1387 13.8955V11.2744C12.1384 10.7362 11.5877 10.3729 11.0928 10.585L8.6377 11.6377C8.14632 11.8483 8.0265 12.4909 8.40918 12.8643L9.02344 13.4629C9.31995 13.752 9.32606 14.2268 9.03711 14.5234C8.74802 14.82 8.27316 14.8261 7.97656 14.5371L7.3623 13.9385C6.21384 12.8188 6.57259 10.8907 8.04688 10.2588L10.5029 9.20703ZM14.5 1.25C16.2948 1.25008 17.75 2.70512 17.75 4.5C17.75 6.29488 16.2948 7.74992 14.5 7.75C12.7051 7.75 11.25 6.29493 11.25 4.5C11.25 2.70507 12.7051 1.25 14.5 1.25ZM14.5 2.75C13.5335 2.75 12.75 3.5335 12.75 4.5C12.75 5.4665 13.5335 6.25 14.5 6.25C15.4664 6.24992 16.25 5.46645 16.25 4.5C16.25 3.53355 15.4664 2.75008 14.5 2.75Z" fill="#48465C"/>
</svg>
