<svg width="24" height="24" viewBox="0 0 24 24" fill="none" xmlns="http://www.w3.org/2000/svg">
<path d="M16.5587 14.0537C18.2315 13.7819 19.7499 15.0729 19.7501 16.7676V22C19.7501 22.4142 19.4143 22.7499 19.0001 22.75C18.5859 22.75 18.2501 22.4142 18.2501 22V16.7676C18.2499 15.9975 17.5601 15.4109 16.7999 15.5342L15.7872 15.6982C15.3783 15.7647 14.9923 15.487 14.9259 15.0781C14.8597 14.6696 15.1375 14.2844 15.546 14.2178L16.5587 14.0537ZM10.5031 9.20703C11.9876 8.57105 13.6385 9.65943 13.6388 11.2744V13.8955C13.6388 14.3655 13.5187 14.828 13.2892 15.2383L10.5763 20.0859C10.2514 20.6666 9.72742 21.1104 9.10071 21.334L5.25208 22.7061C4.86194 22.8453 4.43226 22.6421 4.29309 22.252C4.15407 21.8618 4.35809 21.4331 4.74817 21.2939L8.5968 19.9209C8.88159 19.8193 9.12006 19.6175 9.2677 19.3535L11.9796 14.5059C12.0839 14.3195 12.1388 14.109 12.1388 13.8955V11.2744C12.1385 10.7362 11.5878 10.3729 11.0929 10.585L8.63782 11.6377C8.14644 11.8483 8.02662 12.4909 8.4093 12.8643L9.02356 13.4629C9.32007 13.752 9.32618 14.2268 9.03723 14.5234C8.74814 14.82 8.27328 14.8261 7.97668 14.5371L7.36243 13.9385C6.21397 12.8188 6.57271 10.8907 8.047 10.2588L10.5031 9.20703ZM14.5001 1.25C16.295 1.25008 17.7501 2.70512 17.7501 4.5C17.7501 6.29488 16.295 7.74992 14.5001 7.75C12.7052 7.75 11.2501 6.29493 11.2501 4.5C11.2501 2.70507 12.7052 1.25 14.5001 1.25ZM14.5001 2.75C13.5336 2.75 12.7501 3.5335 12.7501 4.5C12.7501 5.4665 13.5336 6.25 14.5001 6.25C15.4666 6.24992 16.2501 5.46645 16.2501 4.5C16.2501 3.53355 15.4666 2.75008 14.5001 2.75Z" fill="#1C274C"/>
</svg>
