<svg width="24" height="24" viewBox="0 0 24 24" fill="none" xmlns="http://www.w3.org/2000/svg">
<path d="M16.5605 3.46973C16.8534 3.17684 17.3282 3.17684 17.6211 3.46973L20.5303 6.37891C20.823 6.67181 20.8231 7.14661 20.5303 7.43945C20.2374 7.73228 19.7626 7.73223 19.4697 7.43945L18.5459 6.51562L17.4238 7.63672L18.2881 8.5C18.6477 8.85968 18.9474 9.15928 19.1738 9.42285C19.4096 9.69721 19.6066 9.97787 19.7285 10.3125C19.9542 10.9325 19.9541 11.6123 19.7285 12.2324C19.6067 12.567 19.4096 12.8478 19.1738 13.1221C18.9473 13.3857 18.6478 13.6861 18.2881 14.0459L17.6221 14.7119L17.6201 14.7129L13.9844 18.3486C13.9396 18.3934 13.8944 18.4375 13.8486 18.4805C13.8342 18.4976 13.8187 18.5142 13.8027 18.5303C13.7687 18.5643 13.7327 18.5949 13.6943 18.6211C11.568 20.4813 8.42305 20.5561 6.21484 18.8457L4.53027 20.5303C4.23741 20.8231 3.76262 20.8231 3.46973 20.5303C3.17684 20.2374 3.17684 19.7626 3.46973 19.4697L5.1543 17.7842C3.36434 15.473 3.52995 12.1361 5.65137 10.0146L9.9541 5.71191C10.3138 5.35216 10.6133 5.05267 10.877 4.82617C11.1514 4.59034 11.4329 4.39331 11.7676 4.27148C12.3877 4.04588 13.0675 4.0458 13.6875 4.27148C14.0221 4.39332 14.3027 4.59043 14.5771 4.82617C14.8408 5.05266 15.1402 5.35217 15.5 5.71191L16.3633 6.5752L17.4844 5.4541L16.5605 4.53027C16.2677 4.2374 16.2677 3.76262 16.5605 3.46973ZM6.71191 11.0762C4.9968 12.7916 4.9966 15.5727 6.71191 17.2881C8.18227 18.7583 10.4359 18.9682 12.1299 17.918L11.0967 16.8848C10.8038 16.5919 10.8038 16.1161 11.0967 15.8232C11.3896 15.5307 11.8644 15.5305 12.1572 15.8232L13.2725 16.9395L13.8486 16.3633L11.4932 14.0088C11.2004 13.716 11.2006 13.2412 11.4932 12.9482C11.7861 12.6553 12.2608 12.6553 12.5537 12.9482L14.9092 15.3027L16.0303 14.1816L9.81836 7.96973L6.71191 11.0762ZM13.1738 5.68066C12.8852 5.57573 12.5689 5.57567 12.2803 5.68066C12.1865 5.71479 12.064 5.78386 11.8545 5.96387C11.639 6.14897 11.3799 6.40813 10.9951 6.79297L10.8789 6.90918L17.0908 13.1211L17.207 13.0049C17.5919 12.6201 17.8511 12.361 18.0361 12.1455C18.2161 11.936 18.2852 11.8135 18.3193 11.7197C18.4244 11.431 18.4244 11.114 18.3193 10.8252C18.2852 10.7315 18.2158 10.6096 18.0361 10.4004C17.851 10.185 17.592 9.92497 17.207 9.54004L14.46 6.79297C14.075 6.40803 13.815 6.14899 13.5996 5.96387C13.3901 5.78391 13.2676 5.71479 13.1738 5.68066Z" fill="#1C274C"/>
</svg>
