<svg width="24" height="24" viewBox="0 0 24 24" fill="none" xmlns="http://www.w3.org/2000/svg">
<path d="M7.33301 16.5C7.76575 16.5 8.18701 16.6408 8.5332 16.9004L9.4668 17.5996C9.81299 17.8592 10.2342 18 10.667 18H13.333C13.7658 18 14.187 17.8592 14.5332 17.5996L15.4668 16.9004C15.813 16.6408 16.2342 16.5 16.667 16.5H21C21.5523 16.5 22 16.9477 22 17.5V19C22 20.6569 20.6569 22 19 22H5C3.34315 22 2 20.6569 2 19V17.5C2 16.9477 2.44772 16.5 3 16.5H7.33301ZM14.5 2C17.3284 2 18.7424 2.00023 19.6211 2.87891C20.4998 3.75759 20.5 5.17158 20.5 8V15H16.667C15.9097 15 15.1722 15.2458 14.5664 15.7002L13.6328 16.4004C13.5464 16.4651 13.441 16.5 13.333 16.5H10.667C10.559 16.5 10.4536 16.4651 10.3672 16.4004L9.43359 15.7002C8.82776 15.2458 8.09031 15 7.33301 15H3.5V8C3.5 5.17157 3.50023 3.75759 4.37891 2.87891C5.25759 2.00023 6.67157 2 9.5 2H14.5Z" fill="#1C274C"/>
</svg>
