<svg width="24" height="24" viewBox="0 0 24 24" fill="none" xmlns="http://www.w3.org/2000/svg">
<path d="M12 13C13.326 13 14.5766 13.1817 15.6777 13.5029C15.2048 13.5086 14.7641 13.5256 14.3799 13.5771C13.737 13.6636 13.0336 13.8707 12.4521 14.4521C11.8707 15.0335 11.6635 15.737 11.5771 16.3799C11.4995 16.9576 11.4999 17.6636 11.5 18.4141V18.5859C11.4999 19.3364 11.4995 20.0424 11.5771 20.6201C11.6377 21.0711 11.7575 21.5523 12.0244 22H12C4 22 4 19.9853 4 17.5C4 15.0147 7.58172 13 12 13ZM16.5 15C18.1499 15 18.9748 15.0001 19.4873 15.5127C19.9999 16.0252 20 16.8501 20 18.5C20 20.1499 19.9999 20.9748 19.4873 21.4873C18.9748 21.9999 18.1499 22 16.5 22C14.8501 22 14.0252 21.9999 13.5127 21.4873C13.0001 20.9748 13 20.1499 13 18.5C13 16.8501 13.0001 16.0252 13.5127 15.5127C14.0252 15.0001 14.8501 15 16.5 15ZM16.5 16.3613C16.1778 16.3613 15.917 16.6223 15.917 16.9443V17.917H14.9443C14.6223 17.917 14.3613 18.1778 14.3613 18.5C14.3613 18.8222 14.6223 19.083 14.9443 19.083H15.917V20.0557C15.917 20.3777 16.1778 20.6387 16.5 20.6387C16.8222 20.6387 17.083 20.3777 17.083 20.0557V19.083H18.0557C18.3777 19.083 18.6387 18.8222 18.6387 18.5C18.6387 18.1778 18.3777 17.917 18.0557 17.917H17.083V16.9443C17.083 16.6223 16.8222 16.3613 16.5 16.3613ZM12 2C14.2091 2 16 3.79086 16 6C16 8.20914 14.2091 10 12 10C9.79086 10 8 8.20914 8 6C8 3.79086 9.79086 2 12 2Z" fill="#48465C"/>
</svg>
