<svg width="24" height="24" viewBox="0 0 24 24" fill="none" xmlns="http://www.w3.org/2000/svg">
<path d="M17.1029 1.30298C18.7932 1.10795 20.3781 1.43182 21.473 2.52661C22.5678 3.62145 22.8916 5.20636 22.6967 6.89673C22.5144 8.47645 21.8739 10.235 20.8685 12.0002C21.8737 13.7652 22.5135 15.5232 22.6957 17.1028C22.8907 18.7929 22.5675 20.377 21.473 21.4719C20.3782 22.5667 18.7932 22.8906 17.1029 22.6956C15.5233 22.5134 13.7653 21.8736 12.0004 20.8684C10.2353 21.8736 8.47648 22.5134 6.89685 22.6956C5.20664 22.8905 3.62245 22.5667 2.52771 21.4719C1.43299 20.3772 1.10913 18.793 1.30408 17.1028C1.48628 15.5233 2.12608 13.7652 3.13123 12.0002C2.12587 10.235 1.48634 8.47643 1.30408 6.89673C1.10907 5.20642 1.43294 3.62241 2.52771 2.52759C3.62251 1.43279 5.20656 1.10897 6.89685 1.30396C8.47652 1.4862 10.2353 2.12578 12.0004 3.1311C13.7653 2.12585 15.5233 1.48525 17.1029 1.30298ZM4.04724 13.4612C3.34629 14.8386 2.92483 16.1433 2.79431 17.2747C2.62973 18.7016 2.93274 19.7558 3.58826 20.4114C4.24382 21.0669 5.29807 21.3699 6.72498 21.2053C7.85645 21.0747 9.16117 20.6534 10.5385 19.9524C9.33509 19.13 8.13753 18.1404 6.99841 17.0012C5.85933 15.8621 4.86964 14.6646 4.04724 13.4612ZM19.9535 13.4612C19.1311 14.6645 18.1403 15.8621 17.0013 17.0012C15.8622 18.1403 14.6647 19.1309 13.4613 19.9534C14.8387 20.6544 16.1433 21.0758 17.2748 21.2063C18.7018 21.3709 19.7559 21.0669 20.4115 20.4114C21.0671 19.7558 21.371 18.7016 21.2064 17.2747C21.0759 16.1432 20.6545 14.8386 19.9535 13.4612ZM12.0004 4.88013C10.6754 5.71703 9.33225 6.78555 8.05896 8.05884C6.78563 9.33221 5.71714 10.6751 4.88025 12.0002C5.71714 13.3252 6.78568 14.6673 8.05896 15.9407C9.33232 17.214 10.6753 18.2825 12.0004 19.1194C13.3254 18.2826 14.6675 17.214 15.9408 15.9407C17.214 14.6674 18.2826 13.3252 19.1195 12.0002C18.2826 10.675 17.2142 9.33223 15.9408 8.05884C14.6675 6.78554 13.3254 5.71703 12.0004 4.88013ZM12.0004 8.74927C13.795 8.74944 15.2502 10.2046 15.2504 11.9993C15.2504 13.7941 13.7951 15.2491 12.0004 15.2493C10.2055 15.2493 8.75037 13.7942 8.75037 11.9993C8.75057 10.2045 10.2056 8.74927 12.0004 8.74927ZM12.0004 10.2493C11.034 10.2493 10.2506 11.0329 10.2504 11.9993C10.2504 12.9658 11.0339 13.7493 12.0004 13.7493C12.9667 13.7491 13.7504 12.9657 13.7504 11.9993C13.7502 11.033 12.9666 10.2494 12.0004 10.2493ZM6.72498 2.79321C5.29802 2.62862 4.24383 2.93256 3.58826 3.58813C2.9327 4.24375 2.62967 5.29784 2.79431 6.72485C2.92486 7.85638 3.34622 9.16097 4.04724 10.5383C4.86964 9.33494 5.85932 8.13741 6.99841 6.99829C8.13747 5.85922 9.33508 4.86854 10.5385 4.04614C9.16105 3.34513 7.85649 2.92375 6.72498 2.79321ZM20.4125 3.58813C19.7569 2.93251 18.7019 2.62855 17.2748 2.79321C16.1432 2.92379 14.8386 3.34511 13.4613 4.04614C14.6647 4.86856 15.8622 5.85917 17.0013 6.99829C18.1404 8.13746 19.1311 9.33483 19.9535 10.5383C20.6546 9.16087 21.0758 7.8564 21.2064 6.72485C21.3711 5.2981 21.0678 4.24379 20.4125 3.58813Z" fill="#1C274C"/>
</svg>
