<svg width="24" height="24" viewBox="0 0 24 24" fill="none" xmlns="http://www.w3.org/2000/svg">
<path d="M12 2C17.5228 2 22 6.47715 22 12C22 17.5228 17.5228 22 12 22C10.4003 22 8.88867 21.6239 7.54785 20.9561C7.19153 20.7787 6.78395 20.7203 6.39941 20.8232L4.17383 21.4189C3.20767 21.6774 2.32296 20.7932 2.58105 19.8271L3.17676 17.6006C3.27965 17.2161 3.22143 16.8084 3.04395 16.4521C2.37613 15.1113 2 13.5997 2 12C2 6.47715 6.47715 2 12 2ZM15.5303 9.46973C15.2374 9.17684 14.7626 9.17684 14.4697 9.46973L10.9893 12.9502L9.51953 11.5391C9.22073 11.2522 8.74585 11.2618 8.45898 11.5605C8.17213 11.8593 8.18168 12.3343 8.48047 12.6211L10.4805 14.541C10.775 14.8238 11.2417 14.819 11.5303 14.5303L15.5303 10.5303C15.8232 10.2374 15.8232 9.76262 15.5303 9.46973Z" fill="#48465C"/>
</svg>
