<svg width="24" height="24" viewBox="0 0 24 24" fill="none" xmlns="http://www.w3.org/2000/svg">
<path d="M9.23828 14.5361C9.92361 15.2822 10.9071 15.7499 12 15.75C12.7394 15.75 13.4298 15.5365 14.0107 15.167C14.2128 15.3059 14.4369 15.4517 14.6504 15.5908L14.8291 15.708C14.9976 15.8183 15.1564 15.9229 15.2998 16.0205C14.3135 16.764 14.0077 18.0286 14.6191 18.8555L14.7139 18.9824C14.7661 19.0535 14.7587 19.1525 14.6963 19.2148C14.6494 19.2617 14.5803 19.2778 14.5156 19.2627C14.0228 19.1456 13.4367 19.2638 12.9443 19.6279C12.3031 20.1023 12.0886 20.9089 12.2803 21.5537C12.3411 21.7582 12.2133 22 12 22C7.46788 21.9998 3.64039 18.9843 2.41309 14.8506C3.23821 15.3032 4.30121 15.7499 5.33203 15.75C6.12822 15.75 7.06254 15.4828 7.86328 15.1709C8.35431 14.9795 8.83126 14.7572 9.23828 14.5361ZM12.001 2C15.0026 2.00014 17.6954 3.32279 19.5283 5.41699C19.5081 5.43336 19.4884 5.45096 19.4697 5.46973L18.4697 6.46973C18.1769 6.7626 18.1769 7.2374 18.4697 7.53027C18.7625 7.82315 19.2374 7.82313 19.5303 7.53027L20.4355 6.62598C21.4264 8.17806 22.001 10.0221 22.001 12C22.001 12.9417 21.8703 13.8529 21.627 14.7168C21.0865 14.2562 20.1869 14.272 19.4795 14.7949C18.8925 15.229 18.6009 15.892 18.6797 16.4775C18.6834 16.5049 18.6739 16.5331 18.6543 16.5527C18.6173 16.5893 18.5564 16.5848 18.5254 16.543L18.25 16.1699C17.9691 15.7903 17.5433 15.5685 17.0684 15.5098C17.0566 15.4961 17.0442 15.4827 17.0312 15.4697C16.7137 15.1522 16.1276 14.7645 15.6504 14.4521L15.4814 14.3418C15.3484 14.2548 15.2236 14.1732 15.1094 14.0977C15.5141 13.499 15.751 12.7771 15.751 12C15.751 9.92909 14.0719 8.25026 12.001 8.25C9.9299 8.25 8.25098 9.92893 8.25098 12C8.25098 12.438 8.32588 12.8582 8.46387 13.249C8.1351 13.4243 7.73972 13.6097 7.31934 13.7734C6.57561 14.0633 5.84825 14.25 5.33203 14.25C4.57226 14.2499 3.63795 13.843 2.81934 13.3555C2.51953 13.1768 2.25144 12.9982 2.03516 12.8447C2.01189 12.5664 2 12.2844 2 12C2 8.99839 3.32293 6.30564 5.41699 4.47266C5.43324 4.49265 5.45111 4.51166 5.46973 4.53027L6.46973 5.53027C6.76261 5.82315 7.23738 5.82312 7.53027 5.53027C7.82317 5.23738 7.82317 4.76262 7.53027 4.46973L6.62598 3.56543C8.17815 2.57436 10.0228 2 12.001 2ZM12.001 9.75C13.2434 9.75026 14.251 10.7576 14.251 12C14.251 12.6271 13.994 13.1944 13.5801 13.6025C13.5287 13.6373 13.4805 13.6788 13.4375 13.7275L13.4277 13.7393C13.0395 14.0582 12.5425 14.2499 12.001 14.25C10.7583 14.25 9.75098 13.2426 9.75098 12C9.75098 10.7574 10.7583 9.75 12.001 9.75ZM6.94336 10.8945C6.60916 10.6499 6.13919 10.7225 5.89453 11.0566L5.05957 12.1982C4.815 12.5323 4.88768 13.0014 5.22168 13.2461C5.55594 13.4908 6.02588 13.4182 6.27051 13.084L7.10547 11.9434C7.35008 11.6092 7.27754 11.1391 6.94336 10.8945ZM21.2402 9.58887C20.9665 9.27843 20.4924 9.24883 20.1816 9.52246L18.5039 11C18.1932 11.2738 18.1629 11.7477 18.4365 12.0586C18.7101 12.3693 19.1843 12.3995 19.4951 12.126L21.1738 10.6475C21.4843 10.3736 21.5139 9.89958 21.2402 9.58887ZM16.6143 8.22754C16.2008 8.24717 15.8811 8.59813 15.9004 9.01172L15.9668 10.4248C15.9864 10.8382 16.3376 11.1579 16.751 11.1387C17.1648 11.1193 17.4852 10.7673 17.4658 10.3535L17.3994 8.94141C17.3799 8.52766 17.0281 8.2081 16.6143 8.22754ZM3.5625 8.18945C3.14902 8.21257 2.83245 8.56599 2.85547 8.97949L2.93457 10.3916C2.95762 10.8051 3.3111 11.1216 3.72461 11.0986C4.13818 11.0755 4.45468 10.7212 4.43164 10.3076L4.35352 8.89648C4.33048 8.48291 3.97608 8.16641 3.5625 8.18945ZM6.88965 7.5459C6.71815 7.16901 6.27348 7.00246 5.89648 7.17383C5.51972 7.34539 5.35308 7.79006 5.52441 8.16699L6.10938 9.4541C6.28077 9.83114 6.72548 9.99749 7.10254 9.82617C7.47963 9.65477 7.647 9.21009 7.47559 8.83301L6.88965 7.5459ZM11.2246 6.80566C11.1173 6.40567 10.7057 6.1682 10.3057 6.27539L8.93945 6.6416C8.53964 6.749 8.30202 7.1606 8.40918 7.56055C8.51649 7.96044 8.92816 8.19792 9.32812 8.09082L10.6943 7.72461C11.0944 7.61737 11.3318 7.20573 11.2246 6.80566ZM16.4502 4.40039C16.1189 4.15193 15.6489 4.21866 15.4004 4.5498L13.9004 6.5498C13.652 6.88105 13.7187 7.35101 14.0498 7.59961C14.3812 7.84814 14.8521 7.78157 15.1006 7.4502L16.6006 5.4502C16.8489 5.11891 16.7813 4.64894 16.4502 4.40039ZM11.5303 3.46973C11.2374 3.17687 10.7625 3.17685 10.4697 3.46973C10.1769 3.7626 10.1769 4.2374 10.4697 4.53027L11.4697 5.53027C11.7625 5.82315 12.2374 5.82313 12.5303 5.53027C12.8232 5.23738 12.8232 4.76262 12.5303 4.46973L11.5303 3.46973Z" fill="#48465C"/>
</svg>
