<svg width="24" height="24" viewBox="0 0 24 24" fill="none" xmlns="http://www.w3.org/2000/svg">
<path d="M21.9736 8.75C22 9.68873 22 10.7633 22 12C22 16.714 21.9997 19.0708 20.5352 20.5352C19.0708 21.9996 16.714 22 12 22C7.28598 22 4.92931 21.9996 3.46484 20.5352C2.00038 19.0708 2 16.714 2 12C2 10.7633 1.99993 9.68873 2.02637 8.75H21.9736ZM6.59863 7.25H2.10449C2.25174 5.48595 2.60722 4.3225 3.46484 3.46484C4.7172 2.21248 6.62199 2.03115 10.0957 2.00488L6.59863 7.25ZM12 2C13.8452 2 15.3293 2.00006 16.54 2.08789L13.0986 7.25H8.40137L11.9014 2H12ZM18.1982 2.30469C19.1919 2.5141 19.9379 2.86755 20.5352 3.46484C21.3928 4.32247 21.7483 5.48603 21.8955 7.25H14.9014L18.1982 2.30469Z" fill="#48465C"/>
</svg>
