<svg width="24" height="24" viewBox="0 0 24 24" fill="none" xmlns="http://www.w3.org/2000/svg">
<path d="M5.00779 4.40723C6.68774 2.72728 9.52239 2.85452 10.6924 4.9502L11.3418 6.11328C12.1057 7.4821 11.7804 9.2098 10.6621 10.3418C10.6471 10.3624 10.5675 10.4772 10.5576 10.6777C10.5452 10.9341 10.6366 11.5271 11.5547 12.4453C12.4728 13.3634 13.0658 13.4548 13.3222 13.4424C13.5229 13.4326 13.6375 13.353 13.6582 13.3379C14.7902 12.2196 16.5179 11.8943 17.8867 12.6582L19.0498 13.3076C21.1455 14.4774 21.2734 17.3122 19.5937 18.9922C18.6951 19.8908 17.4998 20.6899 16.0957 20.7432C14.0148 20.8221 10.5595 20.2841 7.13767 16.8623C3.71594 13.4405 3.17793 9.98521 3.25681 7.9043C3.31015 6.5003 4.10925 5.3058 5.00779 4.40723ZM9.38279 5.68164C8.78376 4.6083 7.17416 4.36195 6.06834 5.46777C5.29305 6.24309 4.78855 7.09918 4.75584 7.96191C4.69014 9.69731 5.11921 12.7227 8.19822 15.8018C11.2776 18.8811 14.3037 19.3099 16.039 19.2441C16.9017 19.2113 17.757 18.7068 18.5322 17.9316C19.6381 16.8257 19.3917 15.2162 18.3183 14.6172L17.1553 13.9678C16.4319 13.5644 15.4154 13.7029 14.7021 14.416C14.6312 14.4869 14.1857 14.9019 13.3955 14.9404C12.5853 14.9798 11.6039 14.6158 10.4941 13.5059C9.38407 12.3958 9.01997 11.4147 9.05955 10.6045C9.09831 9.81302 9.51523 9.36756 9.58494 9.29785C10.2982 8.58462 10.4357 7.56812 10.0322 6.84473L9.38279 5.68164ZM15 3.25C15.4142 3.25 15.75 3.58579 15.75 4V5C15.75 5.96401 15.7515 6.61169 15.8164 7.09473C15.8785 7.55601 15.9859 7.75348 16.1162 7.88379C16.2465 8.01408 16.444 8.12155 16.9053 8.18359C17.2727 8.23299 17.7356 8.24575 18.3603 8.24902L17.5312 7.58594C17.2079 7.32715 17.1563 6.85465 17.415 6.53125C17.6737 6.20815 18.1454 6.15551 18.4687 6.41406L20.9687 8.41406C21.1466 8.55639 21.25 8.77216 21.25 9C21.25 9.22784 21.1466 9.44361 20.9687 9.58594L18.4687 11.5859C18.1454 11.8445 17.6738 11.7919 17.415 11.4688C17.1563 11.1454 17.2079 10.6729 17.5312 10.4141L18.3633 9.74902C17.7199 9.74589 17.1667 9.73182 16.706 9.66992C16.0782 9.58551 15.511 9.39981 15.0556 8.94434C14.6003 8.48899 14.4145 7.92248 14.3301 7.29492C14.2501 6.70014 14.25 5.95024 14.25 5.05176V4C14.25 3.58586 14.5859 3.25012 15 3.25Z" fill="#1C274C"/>
</svg>
