<svg width="24" height="24" viewBox="0 0 24 24" fill="none" xmlns="http://www.w3.org/2000/svg">
<path d="M5.5 14.25C7.57107 14.25 9.25 15.9289 9.25 18C9.25 20.0711 7.57107 21.75 5.5 21.75C3.42893 21.75 1.75 20.0711 1.75 18C1.75 15.9289 3.42893 14.25 5.5 14.25ZM13.8135 20.0215C14.2143 19.9184 14.6232 20.1598 14.7266 20.5605C14.8299 20.9617 14.5877 21.3714 14.1865 21.4746C13.4869 21.6546 12.754 21.75 12 21.75C11.246 21.75 10.5132 21.6546 9.81348 21.4746C9.41234 21.3714 9.1702 20.9617 9.27344 20.5605C9.37679 20.1598 9.78568 19.9185 10.1865 20.0215C10.7652 20.1704 11.373 20.25 12 20.25C12.627 20.25 13.2348 20.1704 13.8135 20.0215ZM18.5 14.25C20.5711 14.25 22.25 15.9289 22.25 18C22.25 20.0711 20.5711 21.75 18.5 21.75C16.4289 21.75 14.75 20.0711 14.75 18C14.75 15.9289 16.4289 14.25 18.5 14.25ZM5.5 15.75C4.25736 15.75 3.25 16.7574 3.25 18C3.25 19.2426 4.25736 20.25 5.5 20.25C6.74264 20.25 7.75 19.2426 7.75 18C7.75 16.7574 6.74264 15.75 5.5 15.75ZM18.5 15.75C17.2574 15.75 16.25 16.7574 16.25 18C16.25 19.2426 17.2574 20.25 18.5 20.25C19.7426 20.25 20.75 19.2426 20.75 18C20.75 16.7574 19.7426 15.75 18.5 15.75ZM6.21191 6.4375C6.52247 6.16341 6.99641 6.19336 7.27051 6.50391C7.54454 6.81442 7.5155 7.28839 7.20508 7.5625C5.69868 8.89206 4.75 10.8347 4.75 13C4.75 13.4142 4.41421 13.75 4 13.75C3.58579 13.75 3.25 13.4142 3.25 13C3.25 10.3865 4.3966 8.03972 6.21191 6.4375ZM16.7295 6.50391C17.0036 6.19336 17.4776 6.16341 17.7881 6.4375C19.6034 8.03972 20.75 10.3865 20.75 13C20.75 13.4142 20.4142 13.75 20 13.75C19.5858 13.75 19.25 13.4142 19.25 13C19.25 10.8347 18.3013 8.89206 16.7949 7.5625C16.4846 7.28839 16.4555 6.81442 16.7295 6.50391ZM12 2.25C14.0711 2.25 15.75 3.92893 15.75 6C15.75 8.07107 14.0711 9.75 12 9.75C9.92893 9.75 8.25 8.07107 8.25 6C8.25 3.92893 9.92893 2.25 12 2.25ZM12 3.75C10.7574 3.75 9.75 4.75736 9.75 6C9.75 7.24264 10.7574 8.25 12 8.25C13.2426 8.25 14.25 7.24264 14.25 6C14.25 4.75736 13.2426 3.75 12 3.75Z" fill="#1C274C"/>
</svg>
