<svg width="24" height="24" viewBox="0 0 24 24" fill="none" xmlns="http://www.w3.org/2000/svg">
<path d="M17.4697 14.4697C17.7626 14.1768 18.2374 14.1768 18.5303 14.4697L21.0303 16.9697C21.3232 17.2626 21.3232 17.7374 21.0303 18.0303C20.7374 18.3232 20.2626 18.3232 19.9697 18.0303L18.75 16.8105V22C18.75 22.4142 18.4142 22.75 18 22.75C17.5858 22.75 17.25 22.4142 17.25 22V16.8105L16.0303 18.0303C15.7374 18.3232 15.2626 18.3232 14.9697 18.0303C14.6768 17.7374 14.6768 17.2626 14.9697 16.9697L17.4697 14.4697ZM12 2C17.5228 2 22 6.47715 22 12C22 13.1453 21.8076 14.2457 21.4531 15.2705L19.5908 13.4092C18.7121 12.5305 17.2879 12.5305 16.4092 13.4092L13.9092 15.9092C13.0305 16.7879 13.0305 18.2121 13.9092 19.0908C14.4122 19.5938 15.094 19.8092 15.75 19.7363V21.2734C14.592 21.7422 13.3261 22 12 22C6.47715 22 2 17.5228 2 12C2 6.47715 6.47715 2 12 2ZM13 6.25C12.5858 6.25 12.25 6.58579 12.25 7V12.5498C11.875 12.358 11.4501 12.25 11 12.25C9.48122 12.25 8.25 13.4812 8.25 15C8.25 16.5188 9.48122 17.75 11 17.75C12.5188 17.75 13.75 16.5188 13.75 15V10C14.3767 10.4707 15.1558 10.75 16 10.75C16.4142 10.75 16.75 10.4142 16.75 10C16.75 9.58579 16.4142 9.25 16 9.25C14.7574 9.25 13.75 8.24264 13.75 7C13.75 6.58579 13.4142 6.25 13 6.25ZM11 13.75C11.6904 13.75 12.25 14.3096 12.25 15C12.25 15.6904 11.6904 16.25 11 16.25C10.3096 16.25 9.75 15.6904 9.75 15C9.75 14.3096 10.3096 13.75 11 13.75Z" fill="#1C274C"/>
</svg>
