<svg width="24" height="24" viewBox="0 0 24 24" fill="none" xmlns="http://www.w3.org/2000/svg">
<path d="M14.791 3C15.176 3.00017 15.4881 3.31225 15.4883 3.69727V6.48828C15.4883 6.52477 15.4859 6.56073 15.4805 6.5957C16.4163 6.71069 17.0645 6.94924 17.5576 7.44238C18.0508 7.93552 18.2893 8.58367 18.4043 9.51953C18.4393 9.51413 18.4752 9.51172 18.5117 9.51172H21.3027C21.6877 9.51195 21.9998 9.82396 22 10.209C22 10.5941 21.6878 10.907 21.3027 10.9072H18.4951C18.5067 11.3286 18.5107 11.7922 18.5117 12.3027H21.3027C21.6878 12.303 22 12.6148 22 13C22 13.3852 21.6878 13.697 21.3027 13.6973H18.5107C18.5096 14.2078 18.5067 14.6714 18.4951 15.0928H21.3027C21.6878 15.093 22 15.4059 22 15.791C21.9998 16.176 21.6877 16.488 21.3027 16.4883H18.5117C18.4752 16.4883 18.4393 16.4859 18.4043 16.4805C18.2893 17.4163 18.0508 18.0645 17.5576 18.5576C17.0645 19.0508 16.4163 19.2893 15.4805 19.4043C15.4859 19.4393 15.4883 19.4752 15.4883 19.5117V22.3027C15.488 22.6877 15.176 22.9998 14.791 23C14.4059 23 14.093 22.6878 14.0928 22.3027V19.4951C13.6714 19.5067 13.2078 19.5107 12.6973 19.5117V22.3027C12.697 22.6878 12.3852 23 12 23C11.6148 23 11.303 22.6878 11.3027 22.3027V19.5107C10.7922 19.5096 10.3286 19.5067 9.90723 19.4951V22.3027C9.90699 22.6878 9.59416 23 9.20898 23C8.82396 22.9998 8.51195 22.6877 8.51172 22.3027V19.5117C8.51172 19.4752 8.51413 19.4393 8.51953 19.4043C7.58367 19.2893 6.93552 19.0508 6.44238 18.5576C5.94924 18.0645 5.71069 17.4163 5.5957 16.4805C5.56072 16.4859 5.52477 16.4883 5.48828 16.4883H2.69727C2.31225 16.4881 2.00017 16.176 2 15.791C2 15.4059 2.31214 15.093 2.69727 15.0928H5.50488C5.49336 14.6714 5.48935 14.2078 5.48828 13.6973H2.69727C2.31214 13.697 2 13.3852 2 13C2 12.6148 2.31214 12.303 2.69727 12.3027H5.48926C5.49033 11.7922 5.49336 11.3286 5.50488 10.9072H2.69727C2.31214 10.907 2 10.5941 2 10.209C2.00017 9.82395 2.31225 9.51194 2.69727 9.51172H5.48828C5.52477 9.51172 5.56073 9.51413 5.5957 9.51953C5.71069 8.58367 5.94925 7.93552 6.44238 7.44238C6.93552 6.94925 7.58367 6.71069 8.51953 6.5957C8.51413 6.56074 8.51172 6.52477 8.51172 6.48828V3.69727C8.51194 3.31225 8.82395 3.00017 9.20898 3C9.59417 3 9.90701 3.31214 9.90723 3.69727V6.50488C10.3286 6.49336 10.7922 6.48935 11.3027 6.48828V3.69727C11.303 3.31214 11.6148 3 12 3C12.3852 3 12.697 3.31214 12.6973 3.69727V6.48926C13.2078 6.49033 13.6714 6.49336 14.0928 6.50488V3.69727C14.093 3.31214 14.4059 3 14.791 3ZM11.0234 8.58105C10.4052 8.58101 9.87197 8.5813 9.44531 8.63867C8.98812 8.70018 8.54981 8.83886 8.19434 9.19434C7.83885 9.54982 7.70018 9.98814 7.63867 10.4453C7.5813 10.872 7.58101 11.4052 7.58105 12.0234V13.9766C7.58101 14.5948 7.5813 15.128 7.63867 15.5547C7.70018 16.0118 7.83886 16.4502 8.19434 16.8057C8.54981 17.1612 8.98812 17.2998 9.44531 17.3613C9.87197 17.4187 10.4052 17.4189 11.0234 17.4189H12.9766C13.5948 17.4189 14.128 17.4187 14.5547 17.3613C15.0119 17.2998 15.4502 17.1612 15.8057 16.8057C16.1612 16.4502 16.2998 16.0119 16.3613 15.5547C16.4187 15.128 16.4189 14.5948 16.4189 13.9766V12.0234C16.4189 11.4052 16.4187 10.872 16.3613 10.4453C16.2998 9.98814 16.1612 9.54982 15.8057 9.19434C15.4502 8.83886 15.0118 8.70018 14.5547 8.63867C14.128 8.5813 13.5949 8.58101 12.9766 8.58105H11.0234ZM12.9307 9.97656C13.6078 9.97656 14.0456 9.97815 14.3682 10.0215C14.6709 10.0622 14.7662 10.1285 14.8193 10.1816C14.8724 10.2348 14.9379 10.33 14.9785 10.6318C15.0219 10.9544 15.0234 11.3929 15.0234 12.0703V13.9307C15.0234 14.6078 15.0219 15.0456 14.9785 15.3682C14.9378 15.6709 14.8724 15.7662 14.8193 15.8193C14.7662 15.8724 14.6709 15.9378 14.3682 15.9785C14.0456 16.0219 13.6078 16.0234 12.9307 16.0234H11.0703C10.3929 16.0234 9.9545 16.0219 9.63184 15.9785C9.32923 15.9378 9.23377 15.8724 9.18066 15.8193C9.12756 15.7662 9.06216 15.6708 9.02148 15.3682C8.97814 15.0456 8.97656 14.6078 8.97656 13.9307V12.0703C8.97656 11.3929 8.97812 10.9544 9.02148 10.6318C9.06205 10.3301 9.12764 10.2348 9.18066 10.1816C9.23377 10.1285 9.32923 10.0622 9.63184 10.0215C9.9545 9.97813 10.3929 9.97656 11.0703 9.97656H12.9307Z" fill="#48465C"/>
</svg>
