<svg width="24" height="24" viewBox="0 0 24 24" fill="none" xmlns="http://www.w3.org/2000/svg">
<path d="M16.0449 1.25C16.4777 1.24995 16.8745 1.24958 17.1973 1.29297C17.5528 1.34076 17.9283 1.45368 18.2373 1.7627C18.5464 2.0717 18.6592 2.44727 18.707 2.80273C18.7504 3.1255 18.7501 3.52234 18.75 3.95508V4.04492C18.7501 4.47768 18.7504 4.8745 18.707 5.19727C18.6592 5.55274 18.5464 5.92829 18.2373 6.2373C17.9283 6.54633 17.5528 6.65923 17.1973 6.70703C16.8745 6.75042 16.4777 6.75005 16.0449 6.75H14.75V8.91406L16.1816 9.27246C16.5834 9.3729 16.8278 9.77991 16.7275 10.1816C16.627 10.5835 16.2201 10.8279 15.8184 10.7275L14.75 10.4609V12.4141L16.1816 12.7725C16.5834 12.8729 16.8278 13.2799 16.7275 13.6816C16.627 14.0835 16.2201 14.3279 15.8184 14.2275L14.75 13.9609V14.3779C15.6239 14.6868 16.25 15.5203 16.25 16.5C16.25 17.596 15.4663 18.5088 14.4287 18.709C14.6337 19.0939 14.75 19.5335 14.75 20C14.75 21.5188 13.5188 22.75 12 22.75C10.4812 22.75 9.25 21.5188 9.25 20C9.25 19.5335 9.3663 19.0939 9.57129 18.709C8.53376 18.5088 7.75 17.596 7.75 16.5C7.75 15.5203 8.37611 14.6868 9.25 14.3779V12.5859L7.81836 12.2275C7.4166 12.1271 7.17215 11.7202 7.27246 11.3184C7.3729 10.9167 7.77988 10.6722 8.18164 10.7725L9.25 11.0391V9.08594L7.81836 8.72754C7.41658 8.6271 7.17213 8.22015 7.27246 7.81836C7.3729 7.41662 7.77989 7.1722 8.18164 7.27246L9.25 7.53906V6.75H7.95508C7.52233 6.75005 7.1255 6.75043 6.80273 6.70703C6.44726 6.65923 6.07172 6.54633 5.7627 6.2373C5.45368 5.92829 5.34076 5.55275 5.29297 5.19727C5.24957 4.87449 5.24995 4.47767 5.25 4.04492V3.95508C5.24995 3.52233 5.24958 3.1255 5.29297 2.80273C5.34076 2.44726 5.45368 2.07171 5.7627 1.7627C6.07172 1.45368 6.44726 1.34076 6.80273 1.29297C7.1255 1.24957 7.52234 1.24995 7.95508 1.25H16.0449ZM12 18.75C11.3096 18.75 10.75 19.3097 10.75 20C10.75 20.6904 11.3096 21.25 12 21.25C12.6904 21.25 13.25 20.6904 13.25 20C13.25 19.3097 12.6904 18.75 12 18.75ZM10 15.75C9.58579 15.75 9.25 16.0858 9.25 16.5C9.25 16.9142 9.58579 17.25 10 17.25H14C14.4142 17.25 14.75 16.9142 14.75 16.5C14.75 16.0858 14.4142 15.75 14 15.75H10ZM4.40137 13.7666C4.69577 13.4754 5.17062 13.4783 5.46191 13.7725C5.75315 14.0669 5.75038 14.5417 5.45605 14.833L4.74902 15.5332C4.45462 15.8243 3.97979 15.8216 3.68848 15.5273C3.39727 15.2329 3.40003 14.7581 3.69434 14.4668L4.40137 13.7666ZM18.5381 13.7725C18.8294 13.4783 19.3042 13.4754 19.5986 13.7666L20.3057 14.4668C20.6 14.7581 20.6027 15.2329 20.3115 15.5273C20.0202 15.8216 19.5453 15.8244 19.251 15.5332L18.5439 14.833C18.2496 14.5417 18.2469 14.0669 18.5381 13.7725ZM10.75 14.25H13.25V13.5859L10.75 12.9609V14.25ZM4 10.75C4.41407 10.75 4.74978 11.086 4.75 11.5C4.75 11.9142 4.41421 12.25 4 12.25H2C1.58579 12.25 1.25 11.9142 1.25 11.5C1.25022 11.086 1.58593 10.75 2 10.75H4ZM22 10.749C22.4141 10.749 22.7498 11.085 22.75 11.499C22.75 11.9133 22.4142 12.249 22 12.249H20C19.5858 12.249 19.25 11.9133 19.25 11.499C19.2502 11.085 19.5859 10.749 20 10.749H22ZM10.75 11.4141L13.25 12.0391V10.0859L10.75 9.46094V11.4141ZM3.68848 7.47266C3.97982 7.17833 4.45464 7.17556 4.74902 7.4668L5.45605 8.16699C5.7504 8.45836 5.75322 8.93315 5.46191 9.22754C5.17063 9.52178 4.69578 9.52442 4.40137 9.2334L3.69434 8.5332C3.40004 8.24188 3.39731 7.76705 3.68848 7.47266ZM19.251 7.4668C19.5453 7.17554 20.0202 7.17833 20.3115 7.47266C20.6027 7.76705 20.6 8.24188 20.3057 8.5332L19.5986 9.2334C19.3042 9.52443 18.8294 9.52178 18.5381 9.22754C18.2468 8.93315 18.2496 8.45836 18.5439 8.16699L19.251 7.4668ZM10.75 7.91406L13.25 8.53906V6.75H10.75V7.91406ZM8 2.75C7.50756 2.75 7.21364 2.75197 7.00293 2.78027C6.90638 2.79325 6.85772 2.80842 6.83594 2.81738C6.83095 2.81943 6.82711 2.82126 6.8252 2.82227L6.82324 2.82324L6.82227 2.82617C6.82126 2.82811 6.81936 2.83114 6.81738 2.83594C6.80842 2.85772 6.79326 2.90637 6.78027 3.00293C6.75197 3.21363 6.75 3.50756 6.75 4C6.75 4.49242 6.75197 4.78637 6.78027 4.99707C6.79326 5.09363 6.80842 5.14228 6.81738 5.16406C6.81944 5.16906 6.82126 5.17288 6.82227 5.1748L6.82324 5.17676L6.8252 5.17773C6.82711 5.17874 6.83096 5.18056 6.83594 5.18262C6.85772 5.19158 6.90638 5.20675 7.00293 5.21973C7.21364 5.24803 7.50756 5.25 8 5.25H16C16.4925 5.25 16.7864 5.24803 16.9971 5.21973C17.0937 5.20675 17.1424 5.19158 17.1641 5.18262C17.1689 5.18063 17.1719 5.17874 17.1738 5.17773L17.1768 5.17676L17.1777 5.1748C17.1787 5.17287 17.1806 5.16907 17.1826 5.16406C17.1916 5.14228 17.2067 5.09363 17.2197 4.99707C17.248 4.78637 17.25 4.49243 17.25 4C17.25 3.50756 17.248 3.21363 17.2197 3.00293C17.2067 2.90637 17.1916 2.85772 17.1826 2.83594C17.1807 2.83115 17.1787 2.82812 17.1777 2.82617L17.1768 2.82324L17.1738 2.82227C17.1719 2.82126 17.1689 2.81935 17.1641 2.81738C17.1424 2.80842 17.0937 2.79325 16.9971 2.78027C16.7864 2.75197 16.4925 2.75 16 2.75H8Z" fill="#1C274C"/>
</svg>
