<svg width="24" height="24" viewBox="0 0 24 24" fill="none" xmlns="http://www.w3.org/2000/svg">
<path d="M14 1.25C15.2264 1.25 16.3975 1.74122 17.2617 2.60547L21.3945 6.73828C22.2587 7.60253 22.75 8.77362 22.75 10V10.0566C22.75 11.8943 22.7498 13.3501 22.5967 14.4893C22.439 15.6615 22.1066 16.6101 21.3584 17.3584C20.6302 18.0864 19.7128 18.4213 18.584 18.584C18.4213 19.7129 18.0864 20.6302 17.3584 21.3584C16.6101 22.1066 15.6615 22.439 14.4893 22.5967C13.3501 22.7498 11.8943 22.75 10.0566 22.75H9.94336C8.10571 22.75 6.6499 22.7498 5.51074 22.5967C4.33844 22.439 3.38992 22.1066 2.6416 21.3584C1.89332 20.6101 1.56095 19.6615 1.40332 18.4893C1.25016 17.3501 1.24998 15.8943 1.25 14.0566V13.9434C1.24998 12.1057 1.25016 10.6499 1.40332 9.51074C1.56095 8.33844 1.8933 7.38992 2.6416 6.6416C3.36967 5.91354 4.28718 5.57875 5.41602 5.41602C5.5787 4.28723 5.91352 3.3697 6.6416 2.6416C7.38992 1.8933 8.33844 1.56095 9.51074 1.40332C10.6499 1.25016 12.1057 1.24998 13.9434 1.25H14ZM10 6.75C8.09324 6.75 6.73859 6.75149 5.71094 6.88965C4.70485 7.02491 4.12536 7.27894 3.70215 7.70215C3.27894 8.12536 3.02491 8.70485 2.88965 9.71094C2.75149 10.7386 2.75 12.0933 2.75 14C2.75 15.9067 2.7515 17.2614 2.88965 18.2891C3.02491 19.2951 3.27894 19.8747 3.70215 20.2979C4.12536 20.7211 4.70485 20.9752 5.71094 21.1104C6.73858 21.2485 8.09325 21.25 10 21.25C11.9067 21.25 13.2614 21.2485 14.2891 21.1104C15.2951 20.9752 15.8747 20.7211 16.2979 20.2979C16.7211 19.8747 16.9752 19.2951 17.1104 18.2891C17.2485 17.2614 17.25 15.9067 17.25 14C17.25 13.1756 16.9199 12.3846 16.334 11.7988L12.2012 7.66602C11.6154 7.08013 10.8244 6.75 10 6.75ZM11.0449 13.25C11.4777 13.2499 11.8745 13.2496 12.1973 13.293C12.5528 13.3408 12.9283 13.4536 13.2373 13.7627C13.5464 14.0717 13.6592 14.4472 13.707 14.8027C13.7504 15.1255 13.7501 15.5223 13.75 15.9551V17.0449C13.7501 17.4777 13.7504 17.8745 13.707 18.1973C13.6592 18.5528 13.5464 18.9283 13.2373 19.2373C12.9283 19.5464 12.5528 19.6592 12.1973 19.707C11.8745 19.7504 11.4777 19.7501 11.0449 19.75H8.95508C8.52233 19.7501 8.12551 19.7504 7.80273 19.707C7.44727 19.6592 7.07172 19.5464 6.7627 19.2373C6.45368 18.9283 6.34076 18.5528 6.29297 18.1973C6.24958 17.8745 6.24995 17.4777 6.25 17.0449V15.9551C6.24995 15.5223 6.24958 15.1255 6.29297 14.8027C6.34076 14.4472 6.45368 14.0717 6.7627 13.7627C7.07172 13.4536 7.44727 13.3408 7.80273 13.293C8.12551 13.2496 8.52233 13.2499 8.95508 13.25H11.0449ZM9 14.75C8.50756 14.75 8.21364 14.752 8.00293 14.7803C7.90638 14.7933 7.85772 14.8084 7.83594 14.8174C7.83094 14.8194 7.82712 14.8213 7.8252 14.8223L7.82324 14.8232L7.82227 14.8262C7.82126 14.8281 7.81936 14.8311 7.81738 14.8359C7.80842 14.8576 7.79326 14.9063 7.78027 15.0029C7.75197 15.2136 7.75 15.5075 7.75 16V17C7.75 17.4925 7.75197 17.7864 7.78027 17.9971C7.79326 18.0937 7.80842 18.1424 7.81738 18.1641C7.81936 18.1689 7.82126 18.1719 7.82227 18.1738L7.82324 18.1768L7.8252 18.1777C7.82711 18.1787 7.83094 18.1806 7.83594 18.1826C7.85772 18.1916 7.90638 18.2067 8.00293 18.2197C8.21364 18.248 8.50756 18.25 9 18.25H9.25V14.75H9ZM10.75 18.25H11C11.4925 18.25 11.7864 18.248 11.9971 18.2197C12.0937 18.2067 12.1424 18.1916 12.1641 18.1826C12.1689 18.1807 12.1719 18.1787 12.1738 18.1777L12.1768 18.1768L12.1777 18.1738C12.1787 18.1719 12.1807 18.1689 12.1826 18.1641C12.1916 18.1424 12.2067 18.0937 12.2197 17.9971C12.2429 17.8248 12.2488 17.5968 12.25 17.25H10.75V18.25ZM14 2.75C12.0933 2.75 10.7386 2.75149 9.71094 2.88965C8.70485 3.02491 8.12536 3.27894 7.70215 3.70215C7.34252 4.06178 7.10519 4.53424 6.95898 5.28613C7.81822 5.25 8.80784 5.24999 9.94336 5.25H10C11.2264 5.25 12.3975 5.74122 13.2617 6.60547L17.3945 10.7383C18.2587 11.6025 18.75 12.7736 18.75 14V14.0566C18.75 15.1922 18.75 16.1818 18.7139 17.041C19.4658 16.8948 19.9383 16.6575 20.2979 16.2979C20.7211 15.8747 20.9752 15.2951 21.1104 14.2891C21.2485 13.2614 21.25 11.9067 21.25 10C21.25 9.17559 20.9199 8.38472 20.334 7.79883L16.2012 3.66602C15.6154 3.08014 14.8244 2.75 14 2.75ZM10.75 15.75H12.25C12.2488 15.4032 12.2429 15.1752 12.2197 15.0029C12.2067 14.9063 12.1916 14.8576 12.1826 14.8359C12.1807 14.8311 12.1787 14.8281 12.1777 14.8262L12.1768 14.8232L12.1738 14.8223C12.1719 14.8213 12.1689 14.8193 12.1641 14.8174C12.1424 14.8084 12.0937 14.7933 11.9971 14.7803C11.7864 14.752 11.4925 14.75 11 14.75H10.75V15.75Z" fill="#48465C"/>
</svg>
