<svg width="24" height="24" viewBox="0 0 24 24" fill="none" xmlns="http://www.w3.org/2000/svg">
<path d="M10.2294 16.7168L5.77136 21.1748C5.42915 21.517 5.25799 21.6881 5.07996 21.791C4.59659 22.07 4.00083 22.07 3.51746 21.791C3.33943 21.6881 3.16822 21.517 2.82605 21.1748C2.48363 20.8324 2.3117 20.6605 2.20886 20.4824C1.93015 19.9993 1.93015 19.4041 2.20886 18.9209C2.3117 18.7428 2.48361 18.571 2.82605 18.2285L7.28406 13.7705L10.2294 16.7168ZM11.286 2C12.3645 2 13.2328 2.86766 14.9686 4.60352L19.3876 9.02246C21.1233 10.7582 21.9911 11.6265 21.9911 12.7051C21.991 13.7834 21.123 14.6512 19.3876 16.3867C17.6517 18.1225 16.7834 18.9912 15.705 18.9912C14.6264 18.9912 13.7581 18.1225 12.0223 16.3867L11.2899 15.6543V15.6553L8.3446 12.71V12.709L7.60339 11.9688C5.86755 10.233 4.9999 9.36464 4.99988 8.28613C4.99988 7.20761 5.86756 6.33935 7.60339 4.60352C9.33923 2.86768 10.2075 2.00002 11.286 2ZM16.8173 4.33203C17.2924 4.07734 17.8668 4.08485 18.3358 4.35547C18.5139 4.45831 18.6857 4.63022 19.0282 4.97266C19.3704 5.31488 19.5415 5.486 19.6444 5.66406C19.9151 6.13294 19.9232 6.70741 19.6688 7.18262L16.8173 4.33203Z" fill="#48465C"/>
</svg>
