<svg width="24" height="24" viewBox="0 0 24 24" fill="none" xmlns="http://www.w3.org/2000/svg">
<path d="M10.2294 16.7168L5.77141 21.1748C5.4292 21.517 5.25804 21.6881 5.08001 21.791C4.59664 22.07 4.00088 22.07 3.51751 21.791C3.33948 21.6881 3.16827 21.517 2.8261 21.1748C2.48368 20.8324 2.31175 20.6605 2.20891 20.4824C1.9302 19.9993 1.9302 19.4041 2.20891 18.9209C2.31175 18.7428 2.48366 18.571 2.8261 18.2285L7.28411 13.7705L10.2294 16.7168ZM11.2861 2C12.3646 2 13.2329 2.86766 14.9687 4.60352L19.3876 9.02246C21.1233 10.7582 21.9911 11.6265 21.9911 12.7051C21.991 13.7834 21.123 14.6512 19.3876 16.3867C17.6518 18.1225 16.7835 18.9912 15.705 18.9912C14.6264 18.9912 13.7582 18.1225 12.0224 16.3867L8.34466 12.71V12.709L7.60344 11.9688C5.8676 10.233 4.99995 9.36464 4.99993 8.28613C4.99993 7.20761 5.86761 6.33935 7.60344 4.60352C9.33928 2.86768 10.2076 2.00002 11.2861 2ZM16.8173 4.33203C17.2925 4.07734 17.8668 4.08488 18.3359 4.35547C18.514 4.45831 18.6857 4.63022 19.0282 4.97266C19.3704 5.31488 19.5416 5.48601 19.6445 5.66406C19.9152 6.13295 19.9233 6.7074 19.6689 7.18262L16.8173 4.33203Z" fill="#1C274C"/>
</svg>
