<svg width="24" height="24" viewBox="0 0 24 24" fill="none" xmlns="http://www.w3.org/2000/svg">
<path d="M6 14.25C8.07107 14.25 9.75 15.9289 9.75 18C9.75 20.0711 8.07107 21.75 6 21.75C3.92893 21.75 2.25 20.0711 2.25 18C2.25 15.9289 3.92893 14.25 6 14.25ZM18 14.25C20.0711 14.25 21.75 15.9289 21.75 18C21.75 20.0711 20.0711 21.75 18 21.75C15.9289 21.75 14.25 20.0711 14.25 18C14.25 15.9289 15.9289 14.25 18 14.25ZM6 15.75C4.75736 15.75 3.75 16.7574 3.75 18C3.75 19.2426 4.75736 20.25 6 20.25C7.24264 20.25 8.25 19.2426 8.25 18C8.25 16.7574 7.24264 15.75 6 15.75ZM18 15.75C16.7574 15.75 15.75 16.7574 15.75 18C15.75 19.2426 16.7574 20.25 18 20.25C19.2426 20.25 20.25 19.2426 20.25 18C20.25 16.7574 19.2426 15.75 18 15.75ZM6.79883 8.30664C7.82745 6.4997 10.2268 6.03706 11.8535 7.33203L14.0117 9.05078C14.1738 9.17977 14.3749 9.24994 14.582 9.25H18.5C18.9142 9.25 19.25 9.58579 19.25 10C19.25 10.4142 18.9142 10.75 18.5 10.75H14.582C14.0354 10.7499 13.5049 10.5641 13.0771 10.2236L10.9189 8.50586C10.0125 7.78436 8.67568 8.04198 8.10254 9.04883C7.54776 10.0235 7.96039 11.2643 8.98828 11.7129L12.0791 13.0615C13.4093 13.642 14.0209 15.1875 13.4492 16.5215L12.6895 18.2949C12.5263 18.6756 12.0857 18.8522 11.7051 18.6895C11.3244 18.5263 11.1478 18.0857 11.3105 17.7051L12.0713 15.9307C12.3181 15.3548 12.0536 14.6874 11.4795 14.4365L8.38867 13.0879C6.54388 12.2829 5.80319 10.056 6.79883 8.30664ZM14 1.25C15.5188 1.25 16.75 2.48122 16.75 4C16.75 5.51878 15.5188 6.75 14 6.75C12.4812 6.75 11.25 5.51878 11.25 4C11.25 2.48122 12.4812 1.25 14 1.25ZM14 2.75C13.3096 2.75 12.75 3.30964 12.75 4C12.75 4.69036 13.3096 5.25 14 5.25C14.6904 5.25 15.25 4.69036 15.25 4C15.25 3.30964 14.6904 2.75 14 2.75Z" fill="#1C274C"/>
</svg>
