<svg width="24" height="24" viewBox="0 0 24 24" fill="none" xmlns="http://www.w3.org/2000/svg">
<path d="M18.998 18.75C18.9878 20.1469 18.9165 20.9118 18.4141 21.4141C17.8283 21.9999 16.8856 22 15 22H9C7.11439 22 6.17172 21.9999 5.58594 21.4141C5.08358 20.9118 5.01214 20.1469 5.00195 18.75H18.998ZM12 2C13.9793 2 15.6604 3.2779 16.2627 5.05371C16.5034 5.01815 16.7495 5 17 5C19.7614 5 22 7.23858 22 10C22 12.0503 20.7659 13.8124 19 14.584V17.25H5V14.584C3.2341 13.8124 2 12.0503 2 10C2 7.23858 4.23858 5 7 5C7.25049 5 7.4967 5.01815 7.7373 5.05371C8.33962 3.2779 10.0207 2 12 2Z" fill="#48465C"/>
</svg>
