<svg width="24" height="24" viewBox="0 0 24 24" fill="none" xmlns="http://www.w3.org/2000/svg">
<path d="M12 2C17.5228 2 22 6.47715 22 12C22 17.5228 17.5228 22 12 22C6.47715 22 2 17.5228 2 12C2 6.47715 6.47715 2 12 2ZM7 13.25C6.58579 13.25 6.25 13.5858 6.25 14C6.25 14.4142 6.58579 14.75 7 14.75H15L13.0693 16.4346C12.7574 16.7069 12.7249 17.1812 12.9971 17.4932C13.2694 17.8052 13.7436 17.8376 14.0557 17.5654L17.4932 14.5654C17.7287 14.3598 17.8119 14.029 17.7021 13.7363C17.5924 13.4437 17.3125 13.25 17 13.25H7ZM11.0029 6.50684C10.7306 6.19481 10.2564 6.16237 9.94434 6.43457L6.50684 9.43457C6.27129 9.64014 6.18808 9.97098 6.29785 10.2637C6.40773 10.5563 6.6875 10.75 7 10.75H17C17.4142 10.75 17.75 10.4142 17.75 10C17.75 9.58579 17.4142 9.25 17 9.25H9L10.9307 7.56543C11.2426 7.29312 11.2751 6.81892 11.0029 6.50684Z" fill="#48465C"/>
</svg>
