<svg width="24" height="24" viewBox="0 0 24 24" fill="none" xmlns="http://www.w3.org/2000/svg">
<path d="M12 2C16.714 2 19.0708 2.00037 20.5352 3.46484C21.9996 4.9293 22 7.28597 22 12C22 16.714 21.9997 19.0708 20.5352 20.5352C19.0708 21.9997 16.714 22 12 22C7.28597 22 4.9293 21.9996 3.46484 20.5352C2.00037 19.0708 2 16.714 2 12C2 7.28595 2.00037 4.9293 3.46484 3.46484C4.9293 2.00037 7.28595 2 12 2ZM7.66992 11.6064C6.55685 12.7195 6.00023 13.2762 6 13.9678C6 14.6595 6.55658 15.2167 7.66992 16.3301C8.78328 17.4434 9.34051 18 10.0322 18C10.7238 17.9998 11.2805 17.4431 12.3936 16.3301L12.6504 16.0732L7.92676 11.3496L7.66992 11.6064ZM13.9678 6C13.2762 6.00023 12.7195 6.55685 11.6064 7.66992L8.98828 10.2891L13.7109 15.0117L16.3301 12.3936C17.4431 11.2805 17.9998 10.7238 18 10.0322C18 9.34051 17.4434 8.78328 16.3301 7.66992C15.2167 6.55658 14.6595 6 13.9678 6Z" fill="#1C274C"/>
</svg>
