<svg width="24" height="24" viewBox="0 0 24 24" fill="none" xmlns="http://www.w3.org/2000/svg">
<path d="M13.0449 2.25C14.8815 2.24999 16.3218 2.25028 17.4639 2.37402C18.6293 2.50032 19.5736 2.76287 20.3799 3.34863C20.8678 3.70318 21.2969 4.13218 21.6514 4.62012C22.2372 5.42635 22.4997 6.37077 22.626 7.53613C22.7497 8.67826 22.75 10.1186 22.75 11.9551V12.0449C22.75 13.8814 22.7497 15.3218 22.626 16.4639C22.4997 17.6293 22.2372 18.5736 21.6514 19.3799C21.2969 19.8678 20.8678 20.2969 20.3799 20.6514C19.5736 21.2372 18.6293 21.4997 17.4639 21.626C16.3218 21.7497 14.8814 21.75 13.0449 21.75H10.9551C9.11858 21.75 7.67826 21.7497 6.53613 21.626C5.37077 21.4997 4.42635 21.2372 3.62012 20.6514C3.13218 20.2969 2.70318 19.8678 2.34863 19.3799C1.76287 18.5736 1.50032 17.6293 1.37402 16.4639C1.25028 15.3218 1.24999 13.8815 1.25 12.0449V11.9551C1.24999 10.1185 1.25028 8.67826 1.37402 7.53613C1.50032 6.37077 1.76287 5.42635 2.34863 4.62012C2.70317 4.1322 3.1322 3.70317 3.62012 3.34863C4.42635 2.76287 5.37077 2.50032 6.53613 2.37402C7.67826 2.25028 9.11849 2.24999 10.9551 2.25H13.0449ZM11 3.75C9.10853 3.75 7.75016 3.75128 6.69824 3.86523C5.66039 3.97768 5.00995 4.19248 4.50195 4.56152C4.14115 4.82366 3.82366 5.14115 3.56152 5.50195C3.19248 6.00995 2.97768 6.66039 2.86523 7.69824C2.75128 8.75016 2.75 10.1085 2.75 12C2.75 13.8915 2.75129 15.2498 2.86523 16.3018C2.97768 17.3396 3.19248 17.9901 3.56152 18.498C3.82366 18.8588 4.14115 19.1764 4.50195 19.4385C5.00995 19.8075 5.6604 20.0223 6.69824 20.1348C7.75016 20.2487 9.10853 20.25 11 20.25H13C14.8915 20.25 16.2498 20.2487 17.3018 20.1348C18.3396 20.0223 18.9901 19.8075 19.498 19.4385C19.8588 19.1764 20.1764 18.8588 20.4385 18.498C20.8075 17.9901 21.0223 17.3396 21.1348 16.3018C21.2487 15.2498 21.25 13.8915 21.25 12C21.25 10.1085 21.2487 8.75016 21.1348 7.69824C21.0223 6.6604 20.8075 6.00995 20.4385 5.50195C20.1764 5.14115 19.8588 4.82366 19.498 4.56152C18.9901 4.19248 18.3396 3.97768 17.3018 3.86523C16.2498 3.75129 14.8915 3.75 13 3.75H11ZM15.0254 10.25C15.4698 10.25 15.8409 10.2497 16.1455 10.2705C16.4626 10.2921 16.7624 10.3387 17.0527 10.459C17.7264 10.7381 18.2619 11.2736 18.541 11.9473C18.6613 12.2376 18.7079 12.5374 18.7295 12.8545C18.7503 13.1591 18.75 13.5302 18.75 13.9746V14.0254C18.75 14.4698 18.7503 14.8409 18.7295 15.1455C18.7079 15.4626 18.6613 15.7624 18.541 16.0527C18.2619 16.7264 17.7264 17.2619 17.0527 17.541C16.7624 17.6613 16.4626 17.7079 16.1455 17.7295C15.8409 17.7503 15.4698 17.75 15.0254 17.75H13.9746C13.5302 17.75 13.1591 17.7503 12.8545 17.7295C12.5374 17.7079 12.2376 17.6613 11.9473 17.541C11.2736 17.2619 10.7381 16.7264 10.459 16.0527C10.3387 15.7624 10.2921 15.4626 10.2705 15.1455C10.2497 14.8409 10.25 14.4698 10.25 14.0254V13.9746C10.25 13.5302 10.2497 13.1591 10.2705 12.8545C10.2921 12.5374 10.3387 12.2376 10.459 11.9473C10.7381 11.2736 11.2736 10.7381 11.9473 10.459C12.2376 10.3387 12.5374 10.2921 12.8545 10.2705C13.1591 10.2497 13.5302 10.25 13.9746 10.25H15.0254ZM14 11.75C13.524 11.75 13.2045 11.7507 12.957 11.7676C12.7164 11.784 12.5987 11.8128 12.5215 11.8447C12.2153 11.9716 11.9716 12.2153 11.8447 12.5215C11.8128 12.5987 11.784 12.7164 11.7676 12.957C11.7507 13.2045 11.75 13.524 11.75 14C11.75 14.476 11.7507 14.7955 11.7676 15.043C11.784 15.2836 11.8128 15.4013 11.8447 15.4785C11.9716 15.7847 12.2153 16.0284 12.5215 16.1553C12.5987 16.1872 12.7164 16.216 12.957 16.2324C13.2045 16.2493 13.524 16.25 14 16.25H15C15.476 16.25 15.7955 16.2493 16.043 16.2324C16.2836 16.216 16.4013 16.1872 16.4785 16.1553C16.7847 16.0284 17.0284 15.7847 17.1553 15.4785C17.1872 15.4013 17.216 15.2836 17.2324 15.043C17.2493 14.7955 17.25 14.476 17.25 14C17.25 13.524 17.2493 13.2045 17.2324 12.957C17.216 12.7164 17.1872 12.5987 17.1553 12.5215C17.0284 12.2153 16.7847 11.9716 16.4785 11.8447C16.4013 11.8128 16.2836 11.784 16.043 11.7676C15.7955 11.7507 15.476 11.75 15 11.75H14Z" fill="#1C274C"/>
</svg>
