<svg width="24" height="24" viewBox="0 0 24 24" fill="none" xmlns="http://www.w3.org/2000/svg">
<path d="M5.26174 3.6084C6.13618 2.68813 7.61009 2.83052 8.37306 3.90918L9.63381 5.69336C10.2502 6.56518 10.184 7.75905 9.47756 8.50293L9.19045 8.80469C9.19045 8.80469 8.10851 9.9446 11.0635 13.0557C14.0019 16.1493 15.0885 15.0398 15.1006 15.0273L15.5567 14.5479C16.1862 13.8852 17.1672 13.7484 17.9727 14.2119L19.8828 15.3115C21.1097 16.0177 21.3808 17.7493 20.4219 18.7588L19.001 20.2539C18.6398 20.6342 18.1912 20.912 17.6758 20.9629C16.046 21.1236 12.0617 20.9459 7.81545 16.4756C3.8108 12.2594 3.0931 8.64534 3.00295 6.96582C2.96775 6.30938 3.25783 5.71723 3.69142 5.26074L5.26174 3.6084ZM15 3.25C15.4142 3.25 15.75 3.58579 15.75 4V5C15.75 5.964 15.7515 6.61169 15.8164 7.09473C15.8785 7.55606 15.9859 7.75348 16.1162 7.88379C16.2465 8.01409 16.444 8.12155 16.9053 8.18359C17.2718 8.23287 17.7332 8.24181 18.3555 8.24512L17.5313 7.58594C17.2079 7.32718 17.1554 6.85468 17.4141 6.53125C17.6728 6.20782 18.1453 6.15535 18.4688 6.41406L20.9688 8.41406C21.1467 8.55639 21.25 8.77216 21.25 9C21.25 9.22784 21.1467 9.44361 20.9688 9.58594L18.4688 11.5859C18.1453 11.8447 17.6728 11.7922 17.4141 11.4687C17.1554 11.1453 17.2079 10.6728 17.5313 10.4141L18.3623 9.74902C17.7191 9.74589 17.1656 9.73183 16.7051 9.66992C16.0775 9.58548 15.511 9.39967 15.0557 8.94433C14.6003 8.48899 14.4145 7.92251 14.3301 7.29492C14.2486 6.6887 14.25 5.9216 14.25 5V4C14.25 3.58581 14.5858 3.25004 15 3.25Z" fill="#1C274C"/>
</svg>
