<svg width="24" height="24" viewBox="0 0 24 24" fill="none" xmlns="http://www.w3.org/2000/svg">
<path d="M2 5.25C2.41421 5.25 2.75 5.58579 2.75 6V15.25H11.25V11.2314C11.2494 10.5577 11.2489 10.0358 11.4043 9.5918C11.6807 8.80187 12.3019 8.18071 13.0918 7.9043C13.5359 7.74893 14.0576 7.74943 14.7314 7.75H15.0303C16.8589 7.74969 17.9758 7.74909 18.8994 8.07227C20.551 8.65023 21.8498 9.94904 22.4277 11.6006C22.7509 12.5242 22.7503 13.6411 22.75 15.4697V18C22.75 18.4142 22.4142 18.75 22 18.75C21.5858 18.75 21.25 18.4142 21.25 18V16.75H2.75V18C2.75 18.4142 2.41421 18.75 2 18.75C1.58579 18.75 1.25 18.4142 1.25 18V6C1.25 5.58579 1.58579 5.25 2 5.25ZM14.8574 9.25C13.9967 9.25 13.7571 9.26077 13.5869 9.32031C13.2281 9.44595 12.946 9.72803 12.8203 10.0869C12.7608 10.257 12.75 10.4967 12.75 11.3574V15.25H21.25C21.2478 13.4755 21.2244 12.7048 21.0117 12.0967C20.5845 10.8759 19.6241 9.91545 18.4033 9.48828C17.7521 9.26054 16.9145 9.25 14.8574 9.25ZM7 7.75C8.79493 7.75 10.25 9.20507 10.25 11C10.25 12.7949 8.79493 14.25 7 14.25C5.20507 14.25 3.75 12.7949 3.75 11C3.75 9.20507 5.20507 7.75 7 7.75ZM7 9.25C6.0335 9.25 5.25 10.0335 5.25 11C5.25 11.9665 6.0335 12.75 7 12.75C7.9665 12.75 8.75 11.9665 8.75 11C8.75 10.0335 7.9665 9.25 7 9.25Z" fill="#1C274C"/>
</svg>
