<svg width="24" height="24" viewBox="0 0 24 24" fill="none" xmlns="http://www.w3.org/2000/svg">
<path d="M2 9.13721C2 4.53679 6.92245 1.20147 11.2637 4.81299L9.81055 8.20459C9.67186 8.52849 9.77769 8.90505 10.0645 9.10986L12.8975 11.1333L10.4307 14.0112C10.1756 14.3088 10.1928 14.7527 10.4697 15.0298L12.1689 16.73L11.2598 20.3696C10.5047 20.1163 9.74402 19.5272 8.96191 18.9106C8.68495 18.6923 8.39826 18.4714 8.10645 18.2466C5.29846 16.0832 2.00022 13.542 2 9.13721ZM12.9795 4.61963C17.2593 1.32685 22 4.62235 22 9.13721C22 13.5423 18.7016 16.0831 15.8936 18.2466C15.6018 18.4715 15.3151 18.6923 15.0381 18.9106C14.2805 19.5078 13.5432 20.0797 12.8115 20.3452L13.7275 16.6821C13.7914 16.4266 13.7165 16.1565 13.5303 15.9702L12.0215 14.4614L14.5693 11.4888C14.7063 11.329 14.7695 11.1186 14.7441 10.9097C14.7187 10.7008 14.6068 10.5124 14.4355 10.3901L11.4277 8.24072L12.9795 4.61963Z" fill="#48465C"/>
</svg>
