<svg width="24" height="24" viewBox="0 0 24 24" fill="none" xmlns="http://www.w3.org/2000/svg">
<path d="M19.1582 12.7891C19.4129 12.4626 19.8844 12.4039 20.2109 12.6582C20.5374 12.9129 20.5961 13.3844 20.3418 13.7109L16.4414 18.7109C16.3022 18.8893 16.0896 18.9959 15.8633 19C15.6371 19.004 15.4209 18.9056 15.2754 18.7324L13.1758 16.2324C12.9094 15.9152 12.9504 15.4422 13.2676 15.1758C13.5848 14.9094 14.0578 14.9504 14.3242 15.2676L15.8281 17.0586L19.1582 12.7891ZM9.75 17C10.1642 17 10.5 17.3358 10.5 17.75C10.5 18.1642 10.1642 18.5 9.75 18.5H2.75C2.33579 18.5 2 18.1642 2 17.75C2 17.3358 2.33579 17 2.75 17H9.75ZM9.75 13C10.1642 13 10.5 13.3358 10.5 13.75C10.5 14.1642 10.1642 14.5 9.75 14.5H2.75C2.33579 14.5 2 14.1642 2 13.75C2 13.3358 2.33579 13 2.75 13H9.75ZM20.75 9C21.1642 9 21.5 9.33579 21.5 9.75C21.5 10.1642 21.1642 10.5 20.75 10.5H2.75C2.33579 10.5 2 10.1642 2 9.75C2 9.33579 2.33579 9 2.75 9H20.75ZM20.75 5C21.1642 5 21.5 5.33579 21.5 5.75C21.5 6.16421 21.1642 6.5 20.75 6.5H2.75C2.33579 6.5 2 6.16421 2 5.75C2 5.33579 2.33579 5 2.75 5H20.75Z" fill="#1C274C"/>
</svg>
