<svg width="24" height="24" viewBox="0 0 24 24" fill="none" xmlns="http://www.w3.org/2000/svg">
<path d="M10.75 16C11.1642 16 11.5 16.3358 11.5 16.75C11.5 17.1642 11.1642 17.5 10.75 17.5H3.75C3.33579 17.5 3 17.1642 3 16.75C3 16.3358 3.33579 16 3.75 16H10.75ZM20.1582 11.2891C20.4129 10.9626 20.8844 10.9039 21.2109 11.1582C21.5374 11.4129 21.5961 11.8844 21.3418 12.2109L17.4414 17.2109C17.3022 17.3893 17.0896 17.4959 16.8633 17.5C16.6371 17.504 16.4209 17.4056 16.2754 17.2324L14.1758 14.7324C13.9094 14.4152 13.9504 13.9422 14.2676 13.6758C14.5848 13.4094 15.0578 13.4504 15.3242 13.7676L16.8281 15.5586L20.1582 11.2891ZM10.75 11C11.1642 11 11.5 11.3358 11.5 11.75C11.5 12.1642 11.1642 12.5 10.75 12.5H3.75C3.33579 12.5 3 12.1642 3 11.75C3 11.3358 3.33579 11 3.75 11H10.75ZM20.75 6C21.1642 6 21.5 6.33579 21.5 6.75C21.5 7.16421 21.1642 7.5 20.75 7.5H3.75C3.33579 7.5 3 7.16421 3 6.75C3 6.33579 3.33579 6 3.75 6H20.75Z" fill="#48465C"/>
</svg>
