<svg width="24" height="24" viewBox="0 0 24 24" fill="none" xmlns="http://www.w3.org/2000/svg">
<path d="M12.0576 1.25C14.3657 1.24999 16.1745 1.24974 17.5859 1.43945C19.0306 1.63369 20.1706 2.03977 21.0654 2.93457C21.9602 3.82938 22.3662 4.96932 22.5605 6.41406C22.7502 7.82544 22.75 9.63432 22.75 11.9424V12.0576C22.75 14.3657 22.7502 16.1745 22.5605 17.5859C22.3662 19.0306 21.9602 20.1706 21.0654 21.0654C20.1706 21.9602 19.0306 22.3662 17.5859 22.5605C16.1745 22.7502 14.3657 22.75 12.0576 22.75H11.9424C9.63432 22.75 7.82544 22.7502 6.41406 22.5605C4.96932 22.3662 3.82938 21.9602 2.93457 21.0654C2.03977 20.1706 1.63369 19.0306 1.43945 17.5859C1.24974 16.1745 1.24999 14.3657 1.25 12.0576V11.9424C1.24999 9.63433 1.24974 7.82544 1.43945 6.41406C1.63369 4.96932 2.03976 3.82938 2.93457 2.93457C3.82938 2.03976 4.96932 1.63369 6.41406 1.43945C7.82544 1.24974 9.63433 1.24999 11.9424 1.25H12.0576ZM12 2.75C9.62178 2.75 7.91326 2.75198 6.61328 2.92676C5.33508 3.09865 4.56472 3.42551 3.99512 3.99512C3.42551 4.56472 3.09865 5.33508 2.92676 6.61328C2.75198 7.91326 2.75 9.62178 2.75 12C2.75 14.3782 2.75198 16.0867 2.92676 17.3867C3.09865 18.6649 3.42551 19.4352 3.99512 20.0049C4.56472 20.5745 5.33508 20.9014 6.61328 21.0732C7.91326 21.248 9.62178 21.25 12 21.25C14.3782 21.25 16.0867 21.248 17.3867 21.0732C18.6649 20.9014 19.4352 20.5745 20.0049 20.0049C20.5745 19.4352 20.9014 18.6649 21.0732 17.3867C21.248 16.0867 21.25 14.3782 21.25 12C21.25 9.62178 21.248 7.91326 21.0732 6.61328C20.9014 5.33508 20.5745 4.56472 20.0049 3.99512C19.4352 3.42551 18.6649 3.09865 17.3867 2.92676C16.0867 2.75198 14.3782 2.75 12 2.75ZM10.5 12.75C10.9142 12.75 11.25 13.0858 11.25 13.5V16.5C11.25 16.9142 10.9142 17.25 10.5 17.25C10.0858 17.25 9.75 16.9142 9.75 16.5V15.3105L7.53027 17.5303C7.23739 17.8232 6.76261 17.8232 6.46973 17.5303C6.17684 17.2374 6.17684 16.7626 6.46973 16.4697L8.68945 14.25H7.5C7.08579 14.25 6.75 13.9142 6.75 13.5C6.75 13.0858 7.08579 12.75 7.5 12.75H10.5ZM16.5 12.75C16.9142 12.75 17.25 13.0858 17.25 13.5C17.25 13.9142 16.9142 14.25 16.5 14.25H15.3105L17.5303 16.4697C17.8232 16.7626 17.8232 17.2374 17.5303 17.5303C17.2374 17.8232 16.7626 17.8232 16.4697 17.5303L14.25 15.3105V16.5C14.25 16.9142 13.9142 17.25 13.5 17.25C13.0858 17.25 12.75 16.9142 12.75 16.5V13.5C12.75 13.0858 13.0858 12.75 13.5 12.75H16.5ZM6.46973 6.46973C6.76262 6.17684 7.23738 6.17684 7.53027 6.46973L9.75 8.68945V7.5C9.75 7.08579 10.0858 6.75 10.5 6.75C10.9142 6.75 11.25 7.08579 11.25 7.5V10.5C11.25 10.9142 10.9142 11.25 10.5 11.25H7.5C7.08579 11.25 6.75 10.9142 6.75 10.5C6.75 10.0858 7.08579 9.75 7.5 9.75H8.68945L6.46973 7.53027C6.17684 7.23738 6.17684 6.76262 6.46973 6.46973ZM16.4697 6.46973C16.7626 6.17684 17.2374 6.17684 17.5303 6.46973C17.8232 6.76261 17.8232 7.23739 17.5303 7.53027L15.3105 9.75H16.5C16.9142 9.75 17.25 10.0858 17.25 10.5C17.25 10.9142 16.9142 11.25 16.5 11.25H13.5C13.0858 11.25 12.75 10.9142 12.75 10.5V7.5C12.75 7.08579 13.0858 6.75 13.5 6.75C13.9142 6.75 14.25 7.08579 14.25 7.5V8.68945L16.4697 6.46973Z" fill="#1C274C"/>
</svg>
