<svg width="24" height="24" viewBox="0 0 24 24" fill="none" xmlns="http://www.w3.org/2000/svg">
<path d="M16 2C16.9428 2 17.4141 2.00008 17.707 2.29297C17.9999 2.58587 18 3.0572 18 4C18 4.9428 17.9999 5.41413 17.707 5.70703C17.4141 5.99992 16.9428 6 16 6H14.75V8.91406L16.1816 9.27246C16.5833 9.37289 16.8277 9.77989 16.7275 10.1816C16.627 10.5834 16.2202 10.8279 15.8184 10.7275L14.75 10.46V12.4141L16.1816 12.7725C16.5833 12.8728 16.8277 13.2799 16.7275 13.6816C16.627 14.0834 16.2202 14.3279 15.8184 14.2275L14.75 13.96V15.3135C15.2034 15.6297 15.5 16.1553 15.5 16.75C15.5 17.7165 14.7165 18.5 13.75 18.5H13.3232C13.7383 18.8665 14 19.4028 14 20C14 21.1046 13.1046 22 12 22C10.8954 22 10 21.1046 10 20C10 19.4028 10.2617 18.8665 10.6768 18.5H10.25C9.2835 18.5 8.5 17.7165 8.5 16.75C8.5 16.1553 8.79663 15.6297 9.25 15.3135V12.585L7.81836 12.2275C7.41654 12.127 7.17205 11.7201 7.27246 11.3184C7.37288 10.9166 7.77994 10.6723 8.18164 10.7725L9.25 11.0391V9.08496L7.81836 8.72754C7.41654 8.62709 7.17207 8.22017 7.27246 7.81836C7.37288 7.41666 7.77993 7.17229 8.18164 7.27246L9.25 7.53906V6H8C7.05719 6 6.58587 5.99992 6.29297 5.70703C6.00008 5.41413 6 4.94281 6 4C6 3.05719 6.00008 2.58587 6.29297 2.29297C6.58587 2.00008 7.05719 2 8 2H16ZM4.40137 13.7666C4.69577 13.4755 5.17062 13.4782 5.46191 13.7725C5.75319 14.0669 5.75039 14.5415 5.45605 14.833L4.74902 15.5332C4.45464 15.8244 3.97981 15.8217 3.68848 15.5273C3.39726 15.233 3.40003 14.7581 3.69434 14.4668L4.40137 13.7666ZM18.5381 13.7725C18.8294 13.4782 19.3042 13.4755 19.5986 13.7666L20.3057 14.4668C20.6 14.7581 20.6027 15.233 20.3115 15.5273C20.0202 15.8217 19.5453 15.8244 19.251 15.5332L18.5439 14.833C18.2496 14.5417 18.2468 14.0669 18.5381 13.7725ZM10.75 15H13.25V13.585L10.75 12.96V15ZM4 10.751C4.41421 10.751 4.75 11.0868 4.75 11.501C4.74974 11.915 4.41405 12.251 4 12.251H2C1.58595 12.251 1.25026 11.915 1.25 11.501C1.25 11.0868 1.58579 10.751 2 10.751H4ZM22 10.749C22.414 10.749 22.7497 11.085 22.75 11.499C22.75 11.9132 22.4142 12.249 22 12.249H20C19.5858 12.249 19.25 11.9132 19.25 11.499C19.2503 11.085 19.586 10.749 20 10.749H22ZM10.75 11.4141L13.25 12.0391V10.085L10.75 9.45996V11.4141ZM3.68848 7.47266C3.97981 7.17834 4.45464 7.17559 4.74902 7.4668L5.45605 8.16699C5.7504 8.45835 5.7532 8.93316 5.46191 9.22754C5.17062 9.5218 4.69577 9.52445 4.40137 9.2334L3.69434 8.5332C3.40003 8.24186 3.39728 7.76705 3.68848 7.47266ZM19.251 7.4668C19.5453 7.17558 20.0202 7.17834 20.3115 7.47266C20.6027 7.76705 20.6 8.24186 20.3057 8.5332L19.5986 9.2334C19.3042 9.52446 18.8294 9.5218 18.5381 9.22754C18.2468 8.93316 18.2496 8.45835 18.5439 8.16699L19.251 7.4668ZM10.75 7.91406L13.25 8.53906V6H10.75V7.91406Z" fill="#1C274C"/>
</svg>
