<svg width="24" height="24" viewBox="0 0 24 24" fill="none" xmlns="http://www.w3.org/2000/svg">
<path fill-rule="evenodd" clip-rule="evenodd" d="M18.0449 7.25C18.4777 7.24995 18.8745 7.24958 19.1973 7.29297C19.5528 7.34076 19.9283 7.45371 20.2373 7.7627C20.5464 8.0717 20.6593 8.44727 20.7071 8.80273C20.7505 9.1255 20.7501 9.52233 20.75 9.95508V10.252C20.7509 10.5776 20.7525 10.9293 20.6172 11.2559C20.4819 11.5825 20.2319 11.83 20.001 12.0596L16.7022 15.3584C16.0809 15.9797 15.9275 16.1529 15.8457 16.3506C15.7639 16.5481 15.75 16.7789 15.75 17.6572V22C15.75 22.4142 15.4142 22.75 15 22.75C14.5859 22.7499 14.25 22.4142 14.25 22V17.5361C14.2498 17.2523 14.2498 16.9925 14.2637 16.75H9.73635C9.75026 16.9925 9.75031 17.2523 9.75003 17.5361V22C9.75003 22.4142 9.41424 22.75 9.00003 22.75C8.58586 22.7499 8.25003 22.4142 8.25003 22V17.6572C8.25003 16.7793 8.23698 16.5481 8.1553 16.3506C8.07342 16.1529 7.91921 15.9797 7.29788 15.3584L3.99905 12.0596C3.76821 11.8301 3.51918 11.5823 3.38382 11.2559C3.24854 10.9293 3.24909 10.5776 3.25003 10.252V9.95508C3.24998 9.52233 3.2496 9.1255 3.293 8.80273C3.34078 8.44728 3.45374 8.0717 3.76272 7.7627C4.07171 7.45371 4.44732 7.34077 4.80276 7.29297C5.1255 7.24958 5.5224 7.24995 5.9551 7.25H18.0449ZM12 18.25C12.4142 18.25 12.75 18.5858 12.75 19V21C12.75 21.4142 12.4142 21.75 12 21.75C11.5859 21.7499 11.25 21.4141 11.25 21V19C11.25 18.5859 11.5859 18.2501 12 18.25ZM8.44436 14.3838C8.75618 14.695 9.02701 14.9653 9.23733 15.25H14.7627C14.973 14.9653 15.2439 14.695 15.5557 14.3838L18.1895 11.75H5.81057L8.44436 14.3838ZM6.00003 8.75C5.50757 8.75 5.21365 8.75196 5.00296 8.78027C4.9064 8.79325 4.85774 8.80842 4.83596 8.81738C4.83115 8.81937 4.82812 8.82126 4.8262 8.82227L4.82327 8.82324L4.82229 8.8252C4.82129 8.82712 4.81947 8.83094 4.81741 8.83594C4.80845 8.85772 4.79328 8.90637 4.7803 9.00293C4.752 9.21363 4.75003 9.50757 4.75003 10V10.25H19.25V10C19.25 9.50755 19.248 9.21364 19.2198 9.00293C19.2068 8.90637 19.1916 8.85772 19.1826 8.83594L19.1807 8.83008L19.1778 8.8252L19.1768 8.82324L19.1748 8.82227L19.1699 8.81934L19.1641 8.81738C19.1424 8.80842 19.0937 8.79325 18.9971 8.78027C18.7864 8.75198 18.4924 8.75 18 8.75H6.00003ZM5.46975 2.46973C5.76262 2.17686 6.2374 2.17692 6.5303 2.46973L8.5303 4.46973C8.82319 4.76262 8.82319 5.23738 8.5303 5.53027C8.2374 5.82308 7.76262 5.82314 7.46975 5.53027L5.46975 3.53027C5.17697 3.2374 5.17697 2.7626 5.46975 2.46973ZM12 1.25C12.4142 1.25 12.75 1.58579 12.75 2V5C12.75 5.41421 12.4142 5.75 12 5.75C11.5859 5.74991 11.25 5.41415 11.25 5V2C11.25 1.58585 11.5859 1.25009 12 1.25ZM17.4698 2.46973C17.7626 2.17686 18.2374 2.17689 18.5303 2.46973C18.8232 2.76262 18.8232 3.23738 18.5303 3.53027L16.5303 5.53027C16.2374 5.82311 15.7626 5.82314 15.4698 5.53027C15.177 5.23741 15.177 4.7626 15.4698 4.46973L17.4698 2.46973Z" fill="#1C274C"/>
</svg>
