<svg width="24" height="24" viewBox="0 0 24 24" fill="none" xmlns="http://www.w3.org/2000/svg">
<path d="M12 2C16.714 2 19.0708 2.00037 20.5352 3.46484C21.9996 4.9293 22 7.28597 22 12C22 16.714 21.9997 19.0708 20.5352 20.5352C19.0708 21.9997 16.714 22 12 22C9.03975 22 7.00889 22.0003 5.54492 21.6377L8.75 18.4316V19C8.75 20.2426 9.75736 21.25 11 21.25C12.2426 21.25 13.25 20.2426 13.25 19V13C13.25 11.7574 12.2426 10.75 11 10.75H5C3.75736 10.75 2.75 11.7574 2.75 13C2.75 14.2426 3.75736 15.25 5 15.25H5.56836L2.3623 18.4551C1.99966 16.9911 2 14.9603 2 12C2 7.28595 2.00037 4.9293 3.46484 3.46484C4.9293 2.00037 7.28595 2 12 2ZM11 12.25C11.4142 12.25 11.75 12.5858 11.75 13V19C11.75 19.4142 11.4142 19.75 11 19.75C10.5858 19.75 10.25 19.4142 10.25 19V14.8105L3.53027 21.5303C3.23739 21.8232 2.76261 21.8232 2.46973 21.5303C2.17684 21.2374 2.17684 20.7626 2.46973 20.4697L9.18945 13.75H5C4.58579 13.75 4.25 13.4142 4.25 13C4.25 12.5858 4.58579 12.25 5 12.25H11Z" fill="#1C274C"/>
</svg>
