<svg width="24" height="24" viewBox="0 0 24 24" fill="none" xmlns="http://www.w3.org/2000/svg">
<path d="M16.25 21.999C15.9602 21.9999 15.6547 22 15.333 22H13C12.9137 22 12.8299 21.9893 12.75 21.9688V18.751H16.25V21.999ZM21.9395 18.751C21.8469 19.8653 21.6128 20.5906 21.0234 21.1211C20.338 21.738 19.3597 21.9218 17.75 21.9766V18.751H21.9395ZM11.25 20H8.66699C8.34532 20 8.03979 19.9999 7.75 19.999V16.751H11.25V20ZM6.25 19.9766C4.64034 19.9218 3.66195 19.738 2.97656 19.1211C2.38716 18.5906 2.1531 17.8653 2.06055 16.751H6.25V19.9766ZM22 16C22 16.4517 22.0001 16.8678 21.9961 17.251L21.9805 17.25H12.75V9.75098H22V16ZM11.25 15.25H2.01953L2.00391 15.251C1.99993 14.8678 2 14.4517 2 14V7.75098H11.25V15.25ZM17.75 4.02344C19.3596 4.0782 20.338 4.26215 21.0234 4.87891C21.7734 5.55394 21.9481 6.54545 21.9883 8.25098H17.75V4.02344ZM16.25 4.00098V8.25H12.75V4H15.333C15.6547 4 15.9602 4.00004 16.25 4.00098ZM6.25 6.25098H2.01172C2.05201 4.54545 2.22653 3.55394 2.97656 2.87891C3.66195 2.26215 4.64042 2.0782 6.25 2.02344V6.25098ZM11 2C11.0863 2 11.1701 2.0107 11.25 2.03125V6.25H7.75V2.00098C8.03979 2.00004 8.34532 2 8.66699 2H11Z" fill="#1C274C"/>
</svg>
