<svg width="24" height="24" viewBox="0 0 24 24" fill="none" xmlns="http://www.w3.org/2000/svg">
<path d="M12.0518 1.25C12.9503 1.24997 13.7001 1.25012 14.2949 1.33008C14.9225 1.41452 15.489 1.6003 15.9443 2.05567C16.3997 2.51102 16.5855 3.07748 16.6699 3.70508C16.7499 4.29986 16.75 5.04977 16.75 5.94824V6.02539C16.9225 6.03103 17.089 6.03849 17.25 6.04688V21.9531C16.3554 21.9997 15.2876 22 14 22H10C8.7124 22 7.64461 21.9997 6.75 21.9531V18.75H10.0342C10.2392 18.7501 10.4613 18.7498 10.6484 18.7246C10.8677 18.6951 11.148 18.6196 11.3838 18.3838C11.6196 18.148 11.6951 17.8677 11.7246 17.6484C11.7498 17.4613 11.7501 17.2392 11.75 17.0342V15.9658C11.7501 15.7608 11.7498 15.5388 11.7246 15.3516C11.6951 15.1323 11.6196 14.852 11.3838 14.6162C11.148 14.3804 10.8677 14.3049 10.6484 14.2754C10.4613 14.2502 10.2392 14.2499 10.0342 14.25H6.75V6.04688C6.91097 6.03849 7.07755 6.03103 7.25 6.02539V5.94824C7.24997 5.04976 7.25012 4.29986 7.33008 3.70508C7.41452 3.07747 7.6003 2.51102 8.05566 2.05567C8.51102 1.60031 9.07747 1.41452 9.70508 1.33008C10.2999 1.25012 11.0497 1.24997 11.9482 1.25H12.0518ZM5.25 14.292C5.04986 14.331 4.81696 14.4155 4.61621 14.6162C4.38041 14.852 4.30488 15.1323 4.27539 15.3516C4.25023 15.5388 4.24992 15.7608 4.25 15.9658V17.0342C4.24992 17.2392 4.25024 17.4613 4.27539 17.6484C4.30488 17.8677 4.38043 18.148 4.61621 18.3838C4.81695 18.5846 5.04986 18.6691 5.25 18.708V21.7979C4.34931 21.6368 3.69072 21.347 3.17188 20.8281C2.00031 19.6566 2 17.7712 2 14C2 10.2288 2.00031 8.34345 3.17188 7.17188C3.69071 6.65306 4.34936 6.36418 5.25 6.20313V14.292ZM18.75 6.20313C19.6507 6.36418 20.3093 6.65305 20.8281 7.17188C21.9997 8.34345 22 10.2288 22 14C22 17.7712 21.9997 19.6566 20.8281 20.8281C20.3093 21.347 19.6507 21.6368 18.75 21.7979V6.20313ZM10 15.75C10.0991 15.75 10.1795 15.7499 10.249 15.751C10.2501 15.8204 10.25 15.9009 10.25 16V17C10.25 17.0991 10.2501 17.1795 10.249 17.249C10.1795 17.2501 10.0991 17.25 10 17.25H6C5.90093 17.25 5.82043 17.2501 5.75098 17.249C5.74986 17.1795 5.75 17.0991 5.75 17V16C5.75 15.9009 5.74986 15.8204 5.75098 15.751C5.82043 15.7499 5.90093 15.75 6 15.75H10ZM12 2.75C11.036 2.75 10.3883 2.75147 9.90527 2.81641C9.44388 2.87845 9.24652 2.9859 9.11621 3.11621C8.9859 3.24652 8.87845 3.44388 8.81641 3.90527C8.75147 4.3883 8.75 5.03599 8.75 6V6.00195C9.14203 6.00006 9.55807 6 10 6H14C14.4419 6 14.858 6.00006 15.25 6.00195V6C15.25 5.03599 15.2485 4.3883 15.1836 3.90527C15.1215 3.44389 15.0141 3.24652 14.8838 3.11621C14.7535 2.98591 14.5561 2.87845 14.0947 2.81641C13.6117 2.75147 12.964 2.75 12 2.75Z" fill="#1C274C"/>
</svg>
