<svg width="24" height="24" viewBox="0 0 24 24" fill="none" xmlns="http://www.w3.org/2000/svg">
<path d="M12 1.25C12.7353 1.25 13.4543 1.32375 14.1494 1.46484C19.0564 2.461 22.75 6.79843 22.75 12C22.75 17.9371 17.9371 22.75 12 22.75C6.06294 22.75 1.25 17.9371 1.25 12C1.25 7.59065 3.90507 3.80269 7.7002 2.14453C8.07965 1.97907 8.52174 2.15282 8.6875 2.53223C8.85302 2.91169 8.67922 3.35376 8.2998 3.51953C5.03156 4.94771 2.75 8.20826 2.75 12C2.75 17.1086 6.89137 21.25 12 21.25C17.1086 21.25 21.25 17.1086 21.25 12C21.25 7.84953 18.5158 4.33582 14.75 3.16504V4.5C14.75 4.81852 14.5485 5.10258 14.248 5.20801C13.9475 5.31326 13.613 5.21737 13.4141 4.96875L11.4141 2.46875C11.234 2.24362 11.1993 1.93465 11.3242 1.6748C11.4492 1.41515 11.7118 1.25 12 1.25ZM9.53125 7.91406C9.75637 7.73395 10.0654 7.69933 10.3252 7.82422C10.5849 7.94917 10.75 8.21181 10.75 8.5V15.5C10.75 15.9142 10.4142 16.25 10 16.25C9.58581 16.25 9.25 15.9142 9.25 15.5V10.0605L7.96875 11.0859C7.6453 11.3446 7.17281 11.2922 6.91406 10.9688C6.65531 10.6454 6.70781 10.1728 7.03125 9.91406L9.53125 7.91406ZM14.25 7.75C15.6307 7.75 16.75 8.8693 16.75 10.25V13.75C16.75 15.1307 15.6307 16.25 14.25 16.25C12.8693 16.25 11.75 15.1307 11.75 13.75V10.25C11.75 8.8693 12.8693 7.75 14.25 7.75ZM14.25 9.25C13.6977 9.25 13.25 9.69772 13.25 10.25V13.75C13.25 14.3023 13.6977 14.75 14.25 14.75C14.8023 14.75 15.25 14.3023 15.25 13.75V10.25C15.25 9.69772 14.8023 9.25 14.25 9.25Z" fill="#48465C"/>
</svg>
