<svg width="24" height="24" viewBox="0 0 24 24" fill="none" xmlns="http://www.w3.org/2000/svg">
<path d="M12 2C16.714 2 19.0708 2.00037 20.5352 3.46484C21.9996 4.9293 22 7.28597 22 12C22 16.714 21.9997 19.0708 20.5352 20.5352C19.0708 21.9997 16.714 22 12 22C7.28597 22 4.9293 21.9996 3.46484 20.5352C2.00037 19.0708 2 16.714 2 12C2 7.28595 2.00037 4.9293 3.46484 3.46484C4.9293 2.00037 7.28595 2 12 2ZM12 7.25C11.5858 7.25 11.25 7.58579 11.25 8V14.1895L9.53027 12.4697C9.23739 12.1768 8.76261 12.1768 8.46973 12.4697C8.17684 12.7626 8.17684 13.2374 8.46973 13.5303L11.4697 16.5303C11.6103 16.671 11.8011 16.75 12 16.75C12.1989 16.75 12.3897 16.671 12.5303 16.5303L15.5303 13.5303C15.8232 13.2374 15.8232 12.7626 15.5303 12.4697C15.2374 12.1768 14.7626 12.1768 14.4697 12.4697L12.75 14.1895V8C12.75 7.58579 12.4142 7.25 12 7.25Z" fill="#1C274C"/>
</svg>
