<svg width="24" height="24" viewBox="0 0 24 24" fill="none" xmlns="http://www.w3.org/2000/svg">
<path d="M12.0576 1.25C14.3657 1.24999 16.1745 1.24974 17.5859 1.43945C19.0306 1.63369 20.1706 2.03977 21.0654 2.93457C21.8217 3.69091 22.231 4.62403 22.4561 5.77344C22.6771 6.9018 22.7306 8.28945 22.7451 9.99316C22.7486 10.4073 22.4152 10.7465 22.001 10.75C21.587 10.7534 21.2489 10.4208 21.2451 10.0068C21.2306 8.29764 21.1745 7.03732 20.9834 6.06152C20.7964 5.10682 20.4893 4.47955 20.0049 3.99512C19.4352 3.42551 18.6649 3.09865 17.3867 2.92676C16.0867 2.75198 14.3782 2.75 12 2.75C9.62178 2.75 7.91326 2.75198 6.61328 2.92676C5.33508 3.09865 4.56472 3.42551 3.99512 3.99512C3.42551 4.56472 3.09865 5.33508 2.92676 6.61328C2.75198 7.91326 2.75 9.62178 2.75 12C2.75 14.3782 2.75198 16.0867 2.92676 17.3867C3.09865 18.6649 3.42551 19.4352 3.99512 20.0049C4.56472 20.5745 5.33508 20.9014 6.61328 21.0732C7.91326 21.248 9.62178 21.25 12 21.25C12.4142 21.25 12.75 21.5858 12.75 22C12.75 22.4142 12.4142 22.75 12 22.75H11.9424C9.63432 22.75 7.82544 22.7502 6.41406 22.5605C4.96932 22.3662 3.82938 21.9602 2.93457 21.0654C2.03977 20.1706 1.63369 19.0306 1.43945 17.5859C1.24974 16.1745 1.24999 14.3657 1.25 12.0576V11.9424C1.24999 9.63433 1.24974 7.82544 1.43945 6.41406C1.63369 4.96932 2.03976 3.82938 2.93457 2.93457C3.82938 2.03976 4.96932 1.63369 6.41406 1.43945C7.82544 1.24974 9.63433 1.24999 11.9424 1.25H12.0576ZM19 11.25C19.4142 11.25 19.75 11.5858 19.75 12C19.75 13.2426 20.7574 14.25 22 14.25C22.4142 14.25 22.75 14.5858 22.75 15C22.75 15.4142 22.4142 15.75 22 15.75C21.1558 15.75 20.3767 15.4707 19.75 15V20C19.75 21.5188 18.5188 22.75 17 22.75C15.4812 22.75 14.25 21.5188 14.25 20C14.25 18.4812 15.4812 17.25 17 17.25C17.4501 17.25 17.875 17.358 18.25 17.5498V12C18.25 11.5858 18.5858 11.25 19 11.25ZM17 18.75C16.3096 18.75 15.75 19.3096 15.75 20C15.75 20.6904 16.3096 21.25 17 21.25C17.6904 21.25 18.25 20.6904 18.25 20C18.25 19.3096 17.6904 18.75 17 18.75ZM12 8.25C14.0711 8.25 15.75 9.92893 15.75 12C15.75 14.0711 14.0711 15.75 12 15.75C9.92893 15.75 8.25 14.0711 8.25 12C8.25 9.92893 9.92893 8.25 12 8.25ZM12 9.75C10.7574 9.75 9.75 10.7574 9.75 12C9.75 13.2426 10.7574 14.25 12 14.25C13.2426 14.25 14.25 13.2426 14.25 12C14.25 10.7574 13.2426 9.75 12 9.75Z" fill="#1C274C"/>
</svg>
