<svg width="24" height="24" viewBox="0 0 24 24" fill="none" xmlns="http://www.w3.org/2000/svg">
<path d="M14.0068 1.25488C14.4208 1.25862 14.7535 1.59767 14.75 2.01172C14.7464 2.42585 14.4073 2.75839 13.9932 2.75488C13.382 2.74971 12.7205 2.75 12 2.75C9.62178 2.75 7.91326 2.75198 6.61328 2.92676C5.33508 3.09865 4.56472 3.42551 3.99512 3.99512C3.42551 4.56472 3.09865 5.33508 2.92676 6.61328C2.75198 7.91326 2.75 9.62178 2.75 12C2.75 12.0842 2.74999 12.1675 2.75 12.25H5.29492C6.06725 12.2492 6.6792 12.2489 7.22949 12.502C7.77969 12.7551 8.17767 13.2198 8.67969 13.8066C8.70841 13.8402 8.73715 13.8748 8.7666 13.9092L9.37207 14.6152C10.0058 15.3545 10.1838 15.5374 10.3975 15.6357C10.6113 15.7341 10.8661 15.75 11.8398 15.75H12.1602C13.1339 15.75 13.3887 15.7341 13.6025 15.6357C13.8162 15.5374 13.9942 15.3545 14.6279 14.6152L15.2334 13.9092C15.2629 13.8748 15.2915 13.8402 15.3203 13.8066C15.8223 13.2198 16.2203 12.7551 16.7705 12.502C17.3207 12.2489 17.9328 12.2492 18.7051 12.25H21.25V12C21.25 11.2795 21.2503 10.618 21.2451 10.0068C21.2416 9.59264 21.5741 9.25357 21.9883 9.25C22.4023 9.24649 22.7413 9.57919 22.7451 9.99316C22.7503 10.6114 22.75 11.2797 22.75 11.998V12.0576C22.75 12.3718 22.7495 12.6767 22.749 12.9727C22.7493 12.9816 22.75 12.991 22.75 13C22.75 13.0098 22.7494 13.0195 22.749 13.0293C22.7456 14.8811 22.7227 16.379 22.5605 17.5859C22.3662 19.0306 21.9602 20.1706 21.0654 21.0654C20.1706 21.9602 19.0306 22.3662 17.5859 22.5605C16.1745 22.7502 14.3657 22.75 12.0576 22.75H11.9424C9.63432 22.75 7.82544 22.7502 6.41406 22.5605C4.96932 22.3662 3.82938 21.9602 2.93457 21.0654C2.03978 20.1706 1.63369 19.0306 1.43945 17.5859C1.27722 16.379 1.25438 14.8812 1.25098 13.0293C1.2506 13.0196 1.25 13.0098 1.25 13V11.9424C1.24999 9.63433 1.24974 7.82544 1.43945 6.41406C1.63369 4.96932 2.03976 3.82938 2.93457 2.93457C3.82938 2.03976 4.96932 1.63369 6.41406 1.43945C7.82544 1.24974 9.63433 1.24999 11.9424 1.25H12.002C12.7203 1.25 13.3884 1.24964 14.0068 1.25488ZM2.75391 13.75C2.76335 15.2526 2.79817 16.4303 2.92676 17.3867C3.09865 18.6649 3.42551 19.4352 3.99512 20.0049C4.56472 20.5745 5.33508 20.9014 6.61328 21.0732C7.91326 21.248 9.62178 21.25 12 21.25C14.3782 21.25 16.0867 21.248 17.3867 21.0732C18.6649 20.9014 19.4352 20.5745 20.0049 20.0049C20.5745 19.4352 20.9014 18.6649 21.0732 17.3867C21.2018 16.4303 21.2367 15.2526 21.2461 13.75H18.8398C17.8661 13.75 17.6113 13.7659 17.3975 13.8643C17.1838 13.9626 17.0058 14.1455 16.3721 14.8848L15.7666 15.5908C15.7371 15.6252 15.7085 15.6598 15.6797 15.6934C15.1777 16.2802 14.7797 16.7449 14.2295 16.998C13.6793 17.2511 13.0672 17.2508 12.2949 17.25H11.7051C10.9328 17.2508 10.3207 17.2511 9.77051 16.998C9.22032 16.7449 8.82233 16.2802 8.32031 15.6934C8.29159 15.6598 8.26285 15.6252 8.2334 15.5908L7.62793 14.8848C6.99423 14.1455 6.8163 13.9626 6.60254 13.8643C6.38878 13.7659 6.13397 13.75 5.16016 13.75H2.75391ZM19 1.25C21.0711 1.25 22.75 2.92893 22.75 5C22.75 7.07107 21.0711 8.75 19 8.75C16.9289 8.75 15.25 7.07107 15.25 5C15.25 2.92893 16.9289 1.25 19 1.25ZM19 2.75C17.7574 2.75 16.75 3.75736 16.75 5C16.75 6.24264 17.7574 7.25 19 7.25C20.2426 7.25 21.25 6.24264 21.25 5C21.25 3.75736 20.2426 2.75 19 2.75Z" fill="#1C274C"/>
</svg>
