<svg width="24" height="24" viewBox="0 0 24 24" fill="none" xmlns="http://www.w3.org/2000/svg">
<path d="M7.88696 3.77527C8.25991 3.46488 8.76458 3.1553 9.36938 3.27527L9.49243 3.30554L17.47 5.62C18.1119 5.80647 18.4182 6.36172 18.6047 6.85046C18.7967 7.35344 18.9563 8.04922 19.1477 8.87195L19.2502 9.30945C19.3769 9.85413 19.405 9.91393 19.4309 9.95007C19.432 9.95171 19.4426 9.96925 19.511 10.0165C19.5932 10.0732 19.7081 10.1397 19.9153 10.2577L20.2727 10.4618C20.9408 10.8423 21.5228 11.1705 21.929 11.496C22.3549 11.8373 22.7255 12.283 22.7493 12.9266C22.7725 13.5608 22.4454 14.0399 22.0579 14.4286C21.6828 14.8047 21.1332 15.2107 20.4944 15.6854L20.1536 15.9384C19.7325 16.2512 19.6977 16.2946 19.6731 16.3368C19.6579 16.363 19.6437 16.3951 19.6233 16.4891L19.5334 17.0184L19.4641 17.4677V17.4686C19.3759 18.0414 19.2452 18.5517 19.1067 18.9843C18.9438 19.4936 18.7887 20.0816 18.2288 20.4637L18.1116 20.537C17.7665 20.7353 17.4225 20.7746 17.0803 20.7362C16.7838 20.7029 16.4525 20.6042 16.1301 20.5106L9.59302 18.6151C9.58841 18.6139 9.58223 18.6121 9.57544 18.6102C9.56179 18.6064 9.54366 18.6013 9.52173 18.5946C9.47749 18.5812 9.41677 18.5615 9.34204 18.535C9.19247 18.4821 8.98561 18.4 8.7395 18.2821C8.24766 18.0465 7.59348 17.6628 6.927 17.0634L6.6145 16.7821C6.43377 16.6195 6.33105 16.5289 6.25024 16.4677C6.17975 16.4142 6.16869 16.4171 6.18481 16.4218C6.20184 16.4265 6.19644 16.4182 6.11743 16.4257C6.02253 16.4347 5.89554 16.4578 5.66333 16.5009H5.66235L5.26196 16.5751C4.51651 16.7134 3.86244 16.837 3.35278 16.8466C2.82031 16.8565 2.22398 16.7459 1.82935 16.1952C1.45923 15.6786 1.49001 15.0777 1.59888 14.5438C1.70834 14.0072 1.94283 13.332 2.22095 12.5282L2.36938 12.1005C2.55015 11.5779 2.56528 11.4968 2.56274 11.4276C2.56027 11.3625 2.54138 11.2895 2.32349 10.7958L2.14575 10.3925C1.81065 9.63311 1.52535 8.99133 1.37622 8.4696C1.22527 7.94141 1.15888 7.35644 1.47681 6.8114C1.80998 6.24041 2.36658 6.04658 2.90259 5.98035C3.41037 5.91766 4.07138 5.94834 4.82349 5.98035L5.22681 5.99792C5.46123 6.0079 5.58915 6.01215 5.68384 6.00769C5.73041 6.00548 5.75242 6.0018 5.76001 5.99988C5.76682 5.99594 5.79061 5.97962 5.84106 5.93152C5.9198 5.85642 6.01775 5.74877 6.18481 5.56238L6.47485 5.23914C7.01872 4.63235 7.48308 4.11146 7.88696 3.77527ZM11.5559 14.704L11.4866 15.1542C11.3562 16.0007 11.248 16.7121 11.095 17.2362C11.0728 17.3122 11.0464 17.3895 11.0188 17.4667L16.5481 19.0702C16.9185 19.1777 17.1075 19.2302 17.2473 19.246C17.3413 19.2565 17.3511 19.2439 17.3645 19.2362L17.4143 19.1991C17.4289 19.1834 17.443 19.1616 17.4612 19.1268C17.5184 19.0173 17.572 18.8575 17.678 18.5262C17.7954 18.1594 17.9068 17.7264 17.9817 17.2401L18.051 16.7899C18.0676 16.6824 18.0825 16.5755 18.0999 16.4706L11.5764 14.579C11.5703 14.6177 11.5628 14.6593 11.5559 14.704ZM9.07544 4.76843C9.03264 4.79007 8.95894 4.83443 8.84692 4.92761C8.54817 5.17628 8.17016 5.59511 7.59204 6.24011L7.302 6.56335C7.03137 6.86529 6.75064 7.2017 6.36548 7.37195C5.96673 7.54806 5.5365 7.51186 5.16333 7.49597L4.76001 7.47937C3.95181 7.44498 3.44126 7.42597 3.08716 7.4696C2.92127 7.49009 2.84031 7.51973 2.80493 7.53796C2.78346 7.54911 2.7793 7.55429 2.77173 7.56726C2.76296 7.58208 2.70762 7.66915 2.8186 8.0575C2.93251 8.45593 3.16413 8.98551 3.51782 9.78699L3.69653 10.1903C3.86954 10.5823 4.04636 10.9547 4.06177 11.3729C4.07697 11.7875 3.92999 12.1766 3.78638 12.5917L3.63892 13.0184C3.34608 13.8648 3.15343 14.4278 3.0686 14.8436C3.02763 15.0446 3.02196 15.1678 3.02856 15.2421C3.03346 15.2968 3.04338 15.3149 3.04712 15.3202C3.04811 15.3205 3.04983 15.3207 3.05103 15.3212C3.07984 15.3315 3.15746 15.3497 3.32446 15.3466C3.67982 15.3399 4.18681 15.2492 4.98853 15.1005L5.38892 15.0262L5.67407 14.9735C5.96868 14.9228 6.28894 14.8893 6.60278 14.9803C6.82606 15.0452 7.00374 15.1556 7.15649 15.2714C7.29916 15.3795 7.45501 15.5208 7.61743 15.6669L7.92993 15.9481C8.47116 16.4349 8.9992 16.7438 9.38696 16.9296C9.45738 16.9633 9.52419 16.9907 9.58423 17.0165C9.60495 16.964 9.63037 16.899 9.65454 16.8163C9.77315 16.4102 9.86687 15.8173 10.0042 14.9257L10.0725 14.4764C10.1393 14.0426 10.1915 13.6232 10.3997 13.2665L10.4856 13.1346C10.6986 12.8404 10.9951 12.6335 11.2815 12.4208L11.6223 12.1669C12.3008 11.6627 12.7402 11.3339 13.0178 11.0555C13.2824 10.7901 13.2737 10.6939 13.2727 10.6678C13.2721 10.6512 13.2837 10.5694 13.0129 10.3524C12.7219 10.1193 12.2668 9.85761 11.553 9.45105L11.1956 9.24695C10.8999 9.07856 10.5773 8.90897 10.3333 8.63464L10.2336 8.50964C9.99221 8.17254 9.90874 7.75143 9.81177 7.33484L9.70923 6.89734C9.50708 6.02854 9.37232 5.45508 9.22583 5.07117C9.15979 4.89808 9.10643 4.81104 9.07544 4.76843ZM14.7415 10.3563C14.7573 10.4382 14.7685 10.5239 14.7717 10.6132C14.7948 11.2472 14.4678 11.7265 14.0803 12.1151C13.7208 12.4757 13.2001 12.8618 12.595 13.3114L18.7805 15.1063C18.9319 14.9729 19.0973 14.8545 19.259 14.7343L19.5999 14.4813C20.2782 13.9773 20.7177 13.6484 20.9954 13.37C21.2588 13.1058 21.2513 13.0089 21.2502 12.9823C21.2497 12.9657 21.2619 12.8837 20.9915 12.6669C20.7004 12.4336 20.2448 12.1713 19.5305 11.7645L19.2512 11.6053L14.7415 10.3563ZM10.8528 5.2616C10.9556 5.64183 11.0585 6.07775 11.1702 6.5575L11.2727 6.995C11.3987 7.53618 11.4266 7.59927 11.4524 7.63562C11.4536 7.63741 11.4646 7.65555 11.5334 7.703C11.6157 7.75972 11.7307 7.82533 11.9377 7.94324L12.2131 8.10046L17.7874 9.64441L17.6868 9.21179C17.4847 8.34305 17.3498 7.76954 17.2034 7.38562C17.1158 7.15621 17.053 7.07624 17.0305 7.05359L10.8528 5.2616Z" fill="#1C274C"/>
</svg>
