<svg width="24" height="24" viewBox="0 0 24 24" fill="none" xmlns="http://www.w3.org/2000/svg">
<path d="M12 1.25C16.2802 1.25 19.75 4.71979 19.75 9C19.75 11.2254 18.8118 13.232 17.3096 14.6455C17.3356 14.6942 17.3569 14.7463 17.3721 14.8018L18.0215 17.1709C18.3249 18.2774 18.5695 19.1687 18.6807 19.8604C18.7897 20.5383 18.812 21.237 18.4326 21.8047C18.2166 22.1279 17.9229 22.3928 17.5762 22.5693C16.9465 22.8898 16.2597 22.7313 15.6445 22.499C15.017 22.262 14.2287 21.852 13.2607 21.3477L13.2139 21.3232C12.4898 20.9459 12.3008 20.8611 12.1191 20.8418C12.0399 20.8333 11.9601 20.8333 11.8809 20.8418C11.6992 20.8611 11.5102 20.9459 10.7861 21.3232L10.7393 21.3477C9.77136 21.852 8.98304 22.262 8.35547 22.499C7.74026 22.7313 7.05351 22.8898 6.42383 22.5693C6.07716 22.3928 5.78338 22.1279 5.56738 21.8047C5.18804 21.237 5.21039 20.5383 5.31934 19.8604C5.43053 19.1687 5.67512 18.2774 5.97852 17.1709L6.62793 14.8018C6.64314 14.7463 6.6644 14.6942 6.69043 14.6455C5.18826 13.232 4.25 11.2254 4.25 9C4.25 4.71979 7.71979 1.25 12 1.25ZM16.04 15.6152C14.8637 16.3351 13.4802 16.75 12 16.75C10.5198 16.75 9.13632 16.3351 7.95996 15.6152L7.4375 17.5215C7.11849 18.6851 6.89645 19.4973 6.7998 20.0986C6.6994 20.7234 6.77461 20.9121 6.81445 20.9717C6.89228 21.0881 6.99379 21.1761 7.10449 21.2324C7.12838 21.2444 7.27259 21.3043 7.8252 21.0957C8.3583 20.8945 9.06691 20.5277 10.0928 19.9932C10.1276 19.9751 10.1622 19.9563 10.1963 19.9385C10.764 19.6418 11.221 19.4041 11.7217 19.3506C11.9065 19.3309 12.0935 19.3309 12.2783 19.3506C12.779 19.4041 13.236 19.6418 13.8037 19.9385C13.8378 19.9563 13.8724 19.9751 13.9072 19.9932C14.9331 20.5277 15.6416 20.8945 16.1748 21.0957C16.7301 21.3053 16.8736 21.244 16.8965 21.2324C17.0069 21.1761 17.1078 21.0879 17.1855 20.9717C17.2253 20.9121 17.2997 20.7234 17.1992 20.0986C17.1026 19.4973 16.8814 18.685 16.5625 17.5215L16.04 15.6152ZM12 2.75C8.54822 2.75 5.75 5.54822 5.75 9C5.75 12.4518 8.54822 15.25 12 15.25C15.4518 15.25 18.25 12.4518 18.25 9C18.25 5.54822 15.4518 2.75 12 2.75Z" fill="#1C274C"/>
</svg>
