<svg width="24" height="24" viewBox="0 0 24 24" fill="none" xmlns="http://www.w3.org/2000/svg">
<path d="M2.69727 13.1631C3.08243 13.1631 3.39527 13.4753 3.39551 13.8604C3.39551 15.6341 3.39687 16.8946 3.52539 17.8506C3.65122 18.7865 3.88757 19.326 4.28125 19.7197C4.67487 20.1131 5.21392 20.3488 6.14941 20.4746C7.10537 20.6032 8.3659 20.6055 10.1396 20.6055C10.5249 20.6055 10.8369 20.9175 10.8369 21.3027C10.8368 21.6879 10.5248 21.9999 10.1396 22H10.0869C8.37747 22 7.02355 21.9999 5.96387 21.8574C4.87324 21.7108 3.9901 21.4023 3.29395 20.7061C2.59789 20.01 2.2892 19.1267 2.14258 18.0361C2.00016 16.9765 1.99999 15.6225 2 13.9131V13.8604C2.00023 13.4754 2.31228 13.1633 2.69727 13.1631ZM21.3027 13.1631C21.6877 13.1633 21.9998 13.4754 22 13.8604V13.9131C22 15.6225 21.9999 16.9765 21.8574 18.0361C21.7108 19.1267 21.4022 20.01 20.7061 20.7061C20.01 21.4023 19.1267 21.7108 18.0361 21.8574C16.9765 21.9999 15.6225 22 13.9131 22H13.8604C13.4752 21.9999 13.1632 21.6879 13.1631 21.3027C13.1631 20.9175 13.4751 20.6056 13.8604 20.6055C15.6342 20.6055 16.8946 20.6032 17.8506 20.4746C18.7864 20.3488 19.3261 20.1133 19.7197 19.7197C20.1133 19.326 20.3488 18.7864 20.4746 17.8506C20.6032 16.8946 20.6045 15.6341 20.6045 13.8604C20.6047 13.4753 20.9176 13.1631 21.3027 13.1631ZM13.8604 4.55859C16.4912 4.55859 17.8066 4.55882 18.624 5.37598C19.4414 6.19332 19.4414 7.50879 19.4414 10.1396V13.8613C19.4414 16.4922 19.4414 17.8076 18.624 18.625C17.8066 19.4422 16.4912 19.4424 13.8604 19.4424H10.1396C7.50859 19.4424 6.19237 19.4424 5.375 18.625C4.55788 17.8076 4.55859 16.4919 4.55859 13.8613V10.1396C4.55859 7.50905 4.5579 6.19333 5.375 5.37598C6.19237 4.5586 7.50859 4.55859 10.1396 4.55859H13.8604ZM14.9326 14.5439C14.7318 14.273 14.349 14.2163 14.0781 14.417C13.4854 14.8564 12.7698 15.1113 12 15.1113C11.2302 15.1113 10.5147 14.8564 9.92188 14.417C9.65102 14.2163 9.26815 14.273 9.06738 14.5439C8.86682 14.8146 8.92382 15.1966 9.19434 15.3975C9.98583 15.9842 10.9541 16.332 12 16.332C13.0459 16.332 14.0142 15.9842 14.8057 15.3975C15.0761 15.1966 15.1332 14.8146 14.9326 14.5439ZM9.55859 9.20996C9.10906 9.20996 8.74414 9.75639 8.74414 10.4307C8.74414 11.105 9.10907 11.6514 9.55859 11.6514C10.0079 11.651 10.3721 11.1047 10.3721 10.4307C10.3721 9.75664 10.0079 9.21036 9.55859 9.20996ZM14.4414 9.20996C13.992 9.21033 13.6279 9.75662 13.6279 10.4307C13.6279 11.1047 13.992 11.651 14.4414 11.6514C14.8909 11.6514 15.2559 11.105 15.2559 10.4307C15.2559 9.75639 14.8909 9.20996 14.4414 9.20996ZM10.1396 2C10.5248 2.00008 10.8367 2.31219 10.8369 2.69727C10.8369 3.08253 10.525 3.39543 10.1396 3.39551C8.3659 3.39551 7.10537 3.39686 6.14941 3.52539C5.21365 3.65123 4.6749 3.8876 4.28125 4.28125C3.8876 4.6749 3.65123 5.21365 3.52539 6.14941C3.39686 7.10537 3.39551 8.3659 3.39551 10.1396C3.39543 10.5249 3.08253 10.8369 2.69727 10.8369C2.31219 10.8367 2.00008 10.5247 2 10.1396V10.0869C1.99999 8.37749 2.00012 7.02354 2.14258 5.96387C2.28921 4.87324 2.5978 3.9901 3.29395 3.29395C3.9901 2.5978 4.87325 2.28921 5.96387 2.14258C7.02354 2.00012 8.37749 1.99999 10.0869 2H10.1396ZM13.9131 2C15.6225 1.99999 16.9765 2.00013 18.0361 2.14258C19.1267 2.28921 20.01 2.5978 20.7061 3.29395C21.4023 3.9901 21.7108 4.87324 21.8574 5.96387C21.9999 7.02355 22 8.37749 22 10.0869V10.1396C21.9999 10.5248 21.6878 10.8367 21.3027 10.8369C20.9175 10.8369 20.6046 10.525 20.6045 10.1396C20.6045 8.3659 20.6032 7.10537 20.4746 6.14941C20.3489 5.214 20.113 4.67486 19.7197 4.28125C19.326 3.88759 18.7864 3.65123 17.8506 3.52539C16.8946 3.39686 15.6342 3.39551 13.8604 3.39551C13.4751 3.3954 13.1631 3.08251 13.1631 2.69727C13.1633 2.3122 13.4753 2.0001 13.8604 2H13.9131Z" fill="#48465C"/>
</svg>
