<svg width="24" height="24" viewBox="0 0 24 24" fill="none" xmlns="http://www.w3.org/2000/svg">
<path d="M2.69727 13.1631C3.08251 13.1631 3.3954 13.4751 3.39551 13.8604C3.39551 15.6342 3.39686 16.8946 3.52539 17.8506C3.65123 18.7864 3.88759 19.326 4.28125 19.7197C4.67486 20.113 5.214 20.3488 6.14941 20.4746C7.10537 20.6032 8.3659 20.6045 10.1396 20.6045C10.5249 20.6046 10.8369 20.9175 10.8369 21.3027C10.8367 21.6878 10.5247 21.9999 10.1396 22H10.0869C8.37749 22 7.02355 21.9999 5.96387 21.8574C4.87324 21.7108 3.9901 21.4023 3.29395 20.7061C2.5978 20.01 2.28921 19.1267 2.14258 18.0361C2.00013 16.9765 1.99999 15.6225 2 13.9131V13.8604C2.0001 13.4753 2.3122 13.1633 2.69727 13.1631ZM21.3027 13.1631C21.6878 13.1633 21.9999 13.4753 22 13.8604V13.9131C22 15.6225 21.9999 16.9765 21.8574 18.0361C21.7108 19.1267 21.4022 20.01 20.7061 20.7061C20.01 21.4023 19.1267 21.7108 18.0361 21.8574C16.9765 21.9999 15.6225 22 13.9131 22H13.8604C13.4753 21.9999 13.1633 21.6878 13.1631 21.3027C13.1631 20.9175 13.4751 20.6046 13.8604 20.6045C15.6342 20.6045 16.8946 20.6032 17.8506 20.4746C18.786 20.3489 19.3251 20.113 19.7188 19.7197C20.1123 19.326 20.3488 18.7864 20.4746 17.8506C20.6032 16.8946 20.6045 15.6342 20.6045 13.8604C20.6046 13.4751 20.9175 13.1631 21.3027 13.1631ZM13.8604 4.55859C16.4909 4.55859 17.8066 4.5581 18.624 5.375C19.4414 6.19237 19.4424 7.50859 19.4424 10.1396V13.8604C19.4424 16.4915 19.4414 17.8066 18.624 18.624C17.8066 19.4414 16.4914 19.4414 13.8604 19.4414H10.1396C7.5086 19.4414 6.19335 19.4414 5.37598 18.624C4.5586 17.8066 4.55859 16.4915 4.55859 13.8604V10.1396C4.55859 7.50859 4.5586 6.19237 5.37598 5.375C6.19338 4.55809 7.5091 4.55859 10.1396 4.55859H13.8604ZM14.9326 14.5439C14.7318 14.2731 14.349 14.2154 14.0781 14.416C13.4853 14.8555 12.7699 15.1104 12 15.1104C11.2301 15.1104 10.5147 14.8555 9.92188 14.416C9.65103 14.2154 9.26813 14.2731 9.06738 14.5439C8.86706 14.8147 8.92375 15.1967 9.19434 15.3975C9.98583 15.9842 10.9541 16.3311 12 16.3311C13.0459 16.3311 14.0142 15.9842 14.8057 15.3975C15.0762 15.1968 15.133 14.8147 14.9326 14.5439ZM9.55859 9.20898C9.10917 9.20898 8.74431 9.75564 8.74414 10.4297C8.74414 11.104 9.10906 11.6514 9.55859 11.6514C10.0079 11.651 10.3721 11.1038 10.3721 10.4297C10.3719 9.75587 10.0078 9.20936 9.55859 9.20898ZM14.4424 9.20898C13.9929 9.20898 13.6281 9.75564 13.6279 10.4297C13.6279 11.104 13.9928 11.6514 14.4424 11.6514C14.8917 11.651 15.2559 11.1037 15.2559 10.4297C15.2557 9.75588 14.8916 9.20938 14.4424 9.20898ZM10.1396 2C10.5248 2.00008 10.8367 2.31219 10.8369 2.69727C10.8369 3.08253 10.525 3.39543 10.1396 3.39551C8.3659 3.39551 7.10537 3.39686 6.14941 3.52539C5.21365 3.65123 4.6749 3.8876 4.28125 4.28125C3.8876 4.6749 3.65123 5.21365 3.52539 6.14941C3.39686 7.10537 3.39551 8.3659 3.39551 10.1396C3.39543 10.5249 3.08253 10.8369 2.69727 10.8369C2.31219 10.8367 2.00008 10.5247 2 10.1396V10.0869C1.99999 8.37749 2.00012 7.02354 2.14258 5.96387C2.28921 4.87324 2.5978 3.9901 3.29395 3.29395C3.9901 2.5978 4.87325 2.28921 5.96387 2.14258C7.02354 2.00012 8.37749 1.99999 10.0869 2H10.1396ZM13.9131 2C15.6225 1.99999 16.9765 2.00012 18.0361 2.14258C19.1267 2.28921 20.01 2.5978 20.7061 3.29395C21.4023 3.99009 21.7108 4.87324 21.8574 5.96387C21.9999 7.02355 22 8.37749 22 10.0869V10.1396C21.9999 10.5248 21.6878 10.8367 21.3027 10.8369C20.9175 10.8369 20.6046 10.525 20.6045 10.1396C20.6045 8.3659 20.6032 7.10537 20.4746 6.14941C20.3488 5.21365 20.1123 4.6749 19.7188 4.28125C19.3251 3.88761 18.7864 3.65122 17.8506 3.52539C16.8946 3.39686 15.6342 3.39551 13.8604 3.39551C13.4751 3.39542 13.1631 3.08252 13.1631 2.69727C13.1633 2.31219 13.4753 2.00009 13.8604 2H13.9131Z" fill="#1C274C"/>
</svg>
