<svg width="24" height="24" viewBox="0 0 24 24" fill="none" xmlns="http://www.w3.org/2000/svg">
<path d="M11.1123 14.2637C11.3356 14.0316 11.815 13.5874 12.4541 13.7832C13.1094 13.9842 13.2377 14.6393 13.2803 14.9551C13.3303 15.3268 13.3301 15.8307 13.3301 16.3994V16.5693C13.3301 16.6465 13.3305 16.712 13.3311 16.7686C13.3978 16.7695 13.4748 16.7695 13.5684 16.7695H13.6162C13.9906 16.7694 14.3477 16.7687 14.626 16.8076C14.9061 16.8468 15.3618 16.9568 15.6123 17.4062L15.6299 17.4395C15.8732 17.9094 15.6958 18.3533 15.5615 18.6055C15.4393 18.835 15.2478 19.0981 15.0469 19.3701L15.0059 19.4248L14.9775 19.4639L13.7969 21.0605C13.453 21.5257 13.1507 21.9346 12.8877 22.208C12.6643 22.44 12.1849 22.8854 11.5459 22.6895C10.8904 22.4885 10.7622 21.8333 10.7197 21.5176C10.6696 21.1458 10.6698 20.6421 10.6699 20.0732V19.9023C10.6699 19.8253 10.6695 19.7607 10.6689 19.7041C10.6022 19.7031 10.5253 19.7031 10.4316 19.7031H10.3838C10.0094 19.7032 9.65226 19.703 9.37402 19.6641C9.09388 19.625 8.63815 19.5149 8.3877 19.0654C8.38178 19.0548 8.37576 19.0441 8.37012 19.0332C8.12682 18.5635 8.3042 18.1195 8.43848 17.8672L8.99316 17.0479L9.02246 17.0078L10.1709 15.4541L10.2031 15.4111L11.1123 14.2637ZM11.3779 16.3457L10.2295 17.8994C10.1454 18.0132 10.0718 18.1126 10.0078 18.2012C10.1253 18.2027 10.2648 18.2031 10.4316 18.2031H10.4648C10.6665 18.203 10.8824 18.2023 11.0645 18.2256C11.2748 18.2524 11.5488 18.3215 11.7842 18.543L11.8027 18.5615C12.0375 18.792 12.1147 19.0666 12.1445 19.2822C12.1695 19.4631 12.17 19.6763 12.1699 19.8682V20.0186C12.1699 20.2975 12.1696 20.5308 12.1729 20.7266C12.2981 20.5632 12.4453 20.3651 12.6221 20.126L13.7705 18.5723C13.8545 18.4585 13.9282 18.36 13.9922 18.2715C13.8747 18.2699 13.7352 18.2695 13.5684 18.2695H13.5352C13.3336 18.2695 13.1177 18.2692 12.9355 18.2461C12.7252 18.2193 12.4512 18.1501 12.2158 17.9287L12.21 17.9238L12.1963 17.9111C11.9615 17.6805 11.8853 17.4052 11.8555 17.1895C11.8305 17.0086 11.83 16.7954 11.8301 16.6035V16.4541C11.8301 16.1749 11.8304 15.9411 11.8271 15.7451C11.7018 15.9084 11.5546 16.1066 11.3779 16.3457ZM12.4766 1.25C15.6345 1.25017 18.2721 3.49421 18.8311 6.47168C21.1308 7.44788 22.7499 9.70908 22.75 12.3525C22.75 15.4264 20.5625 17.9839 17.6572 18.6055C17.2523 18.6921 16.8533 18.4342 16.7666 18.0293C16.68 17.6243 16.9379 17.2254 17.3428 17.1387C19.5825 16.6597 21.25 14.6926 21.25 12.3525C21.2498 10.216 19.8603 8.39081 17.9121 7.72461C17.4037 7.5508 16.857 7.4561 16.2861 7.45605C15.7035 7.45605 15.1451 7.55467 14.6279 7.73535C14.2369 7.87169 13.8094 7.66533 13.6729 7.27441C13.5363 6.8834 13.7428 6.45591 14.1338 6.31934C14.8081 6.08384 15.5331 5.95605 16.2861 5.95605C16.5813 5.95607 16.8721 5.97561 17.1572 6.01367C16.4765 4.1165 14.6423 2.75015 12.4766 2.75C9.72646 2.75 7.51172 4.95123 7.51172 7.64746C7.51176 8.10948 7.57661 8.55602 7.69727 8.97852C8.19435 9.12198 8.65962 9.33908 9.08008 9.61719C9.42554 9.84571 9.52051 10.3108 9.29199 10.6562C9.06348 11.0017 8.59839 11.0967 8.25293 10.8682C7.87219 10.6163 7.43941 10.4351 6.97363 10.3447C6.75196 10.3018 6.52192 10.2793 6.28613 10.2793C4.32504 10.2793 2.75003 11.8482 2.75 13.7646C2.75 15.6811 4.32502 17.25 6.28613 17.25C6.70016 17.2502 7.03613 17.5859 7.03613 18C7.03613 18.4141 6.70016 18.7498 6.28613 18.75C3.51338 18.75 1.25 16.5263 1.25 13.7646C1.25003 11.0605 3.41976 8.87213 6.11328 8.78223C6.04654 8.41365 6.01174 8.03436 6.01172 7.64746C6.01172 4.10612 8.91482 1.25 12.4766 1.25Z" fill="#48465C"/>
</svg>
