<svg width="24" height="24" viewBox="0 0 24 24" fill="none" xmlns="http://www.w3.org/2000/svg">
<path fill-rule="evenodd" clip-rule="evenodd" d="M9.75666 1.33002C10.3069 1.17405 10.8413 1.26448 11.3787 1.44331C11.8946 1.61496 12.5111 1.90358 13.2528 2.25092L13.2938 2.27045C14.4613 2.81722 14.9861 3.06101 15.5291 3.23334C15.7214 3.29438 15.9156 3.34879 16.1112 3.39643C16.6632 3.53083 17.2339 3.59363 18.5067 3.73041L18.5526 3.7353C19.3606 3.82212 20.033 3.89448 20.5623 4.01557C21.1161 4.14231 21.6165 4.34335 22.0106 4.75776C22.2395 4.99866 22.4242 5.27895 22.5565 5.58491C22.7812 6.10514 22.7825 6.64957 22.7 7.22456C22.6205 7.77913 22.4463 8.45637 22.2352 9.28022L21.3797 12.6191C20.6636 15.4128 18.8465 16.9654 17.0233 17.8085C16.2978 19.383 15.1598 20.5899 14.2195 21.3925L14.1981 21.4101C13.9476 21.624 13.7009 21.8348 13.3778 22.0195C13.0421 22.2113 12.6537 22.3601 12.1092 22.5126C11.565 22.665 11.1562 22.7397 10.7713 22.749C10.4005 22.7579 10.0836 22.7037 9.76447 22.6494L9.73713 22.6455C7.41568 22.2509 3.72511 20.9308 2.61994 16.6191L1.76447 13.2802C1.5533 12.4564 1.37915 11.7791 1.29963 11.2246C1.2172 10.6496 1.21943 10.1052 1.44416 9.58491C1.57639 9.27896 1.76102 8.99865 1.99006 8.75776C2.38414 8.34334 2.88439 8.14229 3.4383 8.01557C3.96762 7.8945 4.64 7.82212 5.44807 7.7353L5.49299 7.73041C6.0119 7.67464 6.41416 7.63082 6.74592 7.58979L7.37092 5.15131C7.58204 4.32759 7.75638 3.64921 7.95295 3.1269C8.15616 2.58704 8.41971 2.10987 8.87287 1.76948C9.13853 1.56994 9.43762 1.42049 9.75666 1.33002ZM13.8338 6.77338C13.7004 6.73562 13.5046 6.7297 13.0945 6.86616C12.6721 7.00672 12.1362 7.25717 11.3426 7.62885L11.2889 7.65327C10.1888 8.16849 9.572 8.45754 8.92463 8.66303C8.6996 8.73447 8.47211 8.79768 8.24299 8.85346C7.5836 9.01398 6.91058 9.08693 5.71174 9.21577L5.65314 9.22163C4.78792 9.31461 4.20474 9.37856 3.77228 9.47748C3.35492 9.573 3.1822 9.68038 3.07697 9.79096C2.97132 9.90208 2.88433 10.0342 2.82111 10.1806C2.75438 10.3352 2.72004 10.5587 2.78498 11.0117C2.85155 11.4758 3.00386 12.0744 3.22834 12.9501L4.07307 16.247C4.95474 19.6868 7.87029 20.806 9.9881 21.166C10.3367 21.2252 10.5211 21.2542 10.7352 21.249C10.946 21.2438 11.221 21.2038 11.7049 21.0683C12.1883 20.9328 12.4466 20.8236 12.6336 20.7167C12.8242 20.6078 12.9724 20.4843 13.2459 20.2509C14.9147 18.8262 16.917 16.3148 16.032 12.8623L15.1863 9.56538C14.9618 8.68923 14.8076 8.09151 14.6434 7.65522C14.4825 7.22811 14.3482 7.06026 14.2264 6.9687C14.1063 6.87856 13.9731 6.81287 13.8338 6.77338ZM10.1942 15.2246C11.2252 14.9483 12.0633 15.0243 12.661 15.1865C12.9573 15.267 13.1911 15.3681 13.3563 15.4531C13.4384 15.4954 13.504 15.5339 13.5526 15.5644C13.5769 15.5798 13.5973 15.5936 13.6131 15.6044L13.6336 15.6181L13.6414 15.624L13.6444 15.6269L13.6463 15.6279L13.6473 15.6289C13.9799 15.8758 14.0494 16.3451 13.8026 16.6777C13.558 17.0072 13.0945 17.0786 12.7625 16.8398L12.7528 16.8339C12.7384 16.8249 12.7108 16.8072 12.6697 16.7861C12.5869 16.7434 12.4517 16.6835 12.2684 16.6337C11.9068 16.5354 11.3389 16.4713 10.5828 16.6738C9.82687 16.8763 9.36741 17.2165 9.10334 17.4824C8.96966 17.617 8.88233 17.736 8.83185 17.8144C8.80682 17.8533 8.79098 17.8823 8.78303 17.8974L8.77717 17.9081C8.60892 18.2807 8.1722 18.4501 7.79572 18.2871C7.41587 18.1225 7.2409 17.6817 7.4051 17.3017L7.409 17.2939L7.41291 17.2851L7.42267 17.2626C7.43091 17.2454 7.44248 17.2236 7.45588 17.1982C7.48268 17.1473 7.52 17.0807 7.57014 17.0029C7.67066 16.8467 7.82257 16.6436 8.03889 16.4257C8.47532 15.9863 9.16295 15.5009 10.1942 15.2246ZM10.1658 2.77338C10.0266 2.81288 9.89328 2.87856 9.77326 2.9687C9.65141 3.06031 9.51697 3.2283 9.35627 3.65522C9.19207 4.09152 9.03788 4.6892 8.8133 5.56538L8.37873 7.26166C8.40935 7.25232 8.44 7.24303 8.47053 7.23334C8.83601 7.11733 9.19333 6.96824 9.74396 6.71674C9.71621 6.53104 9.75802 6.33471 9.8758 6.16987C10.4262 5.3995 11.4285 5.04681 12.3875 5.30366C12.4987 5.33344 12.6065 5.37024 12.7098 5.41401C13.2173 5.25472 13.7232 5.18277 14.243 5.33002C14.562 5.42048 14.8621 5.56994 15.1278 5.76948C15.5807 6.10989 15.8444 6.58711 16.0477 7.1269C16.0655 7.17429 16.0829 7.22344 16.1004 7.27338C16.6658 6.82612 17.4377 6.65758 18.1834 6.85737C19.1426 7.11437 19.8351 7.92074 19.9266 8.86323C19.9665 9.27544 19.664 9.64156 19.2518 9.68159C18.8397 9.72145 18.4734 9.41995 18.4334 9.00776C18.4046 8.71185 18.1742 8.40709 17.7957 8.30561C17.4172 8.20419 17.0654 8.35294 16.8924 8.59467C16.8043 8.71809 16.6851 8.80733 16.5535 8.85834L17.4852 12.4902C17.7829 13.6517 17.8131 14.7227 17.6639 15.6972C18.666 14.9483 19.5145 13.8547 19.9266 12.247L20.7723 8.95014C20.9967 8.07431 21.1491 7.47581 21.2156 7.01166C21.2806 6.55898 21.2462 6.33521 21.1795 6.18061C21.1163 6.03429 21.0292 5.90207 20.9237 5.79096C20.8185 5.68028 20.6453 5.57308 20.2274 5.47749C19.7949 5.37856 19.2118 5.31462 18.3465 5.22163L18.2879 5.21577C17.0891 5.08694 16.416 5.014 15.7567 4.85346C15.5276 4.79768 15.2999 4.73445 15.075 4.66303C14.4277 4.45755 13.8108 4.16841 12.7108 3.65327L12.658 3.62885C11.8642 3.25713 11.3275 3.00673 10.9051 2.86616C10.4949 2.72973 10.2992 2.73556 10.1658 2.77338ZM6.25471 11.2167C7.21376 10.9598 8.21592 11.3126 8.76642 12.083C9.0072 12.4199 8.92954 12.888 8.5926 13.1289C8.25564 13.3696 7.78755 13.2918 7.5467 12.955C7.37384 12.7131 7.02199 12.5647 6.64338 12.666C6.26467 12.7675 6.03441 13.0721 6.00568 13.3681C5.96553 13.7803 5.59854 14.082 5.18635 14.0419C4.77407 14.0019 4.47249 13.6349 4.51252 13.2226C4.60413 12.2803 5.29572 11.4736 6.25471 11.2167ZM12.0506 9.66401C13.0097 9.40701 14.0119 9.75971 14.5623 10.5302C14.803 10.8672 14.7255 11.3353 14.3885 11.5761C14.0515 11.8168 13.5834 11.7383 13.3426 11.4013C13.1697 11.1595 12.8177 11.011 12.4393 11.1123C12.0607 11.2137 11.8305 11.5185 11.8016 11.8144C11.7616 12.2267 11.3944 12.5282 10.9822 12.4882C10.57 12.4482 10.2685 12.082 10.3084 11.6699C10.3999 10.7274 11.0916 9.92108 12.0506 9.66401Z" fill="#1C274C"/>
</svg>
