<svg width="24" height="24" viewBox="0 0 24 24" fill="none" xmlns="http://www.w3.org/2000/svg">
<path d="M9.75659 1.33008C10.3068 1.17411 10.8412 1.26453 11.3787 1.44336C11.8946 1.61501 12.511 1.90364 13.2527 2.25098L13.2937 2.27051C14.4612 2.81727 14.9861 3.06106 15.5291 3.2334C15.7213 3.29443 15.9155 3.34884 16.1111 3.39648C16.6631 3.53089 17.2339 3.59369 18.5066 3.73047L18.5525 3.73535C19.3605 3.82217 20.0329 3.89453 20.5623 4.01562C21.116 4.14236 21.6165 4.34341 22.0105 4.75781C22.2394 4.99872 22.4241 5.27901 22.5564 5.58496C22.7811 6.10519 22.7825 6.64962 22.7 7.22461C22.6204 7.77919 22.4462 8.45642 22.2351 9.28027L21.3796 12.6191C20.6635 15.4128 18.8464 16.9655 17.0232 17.8086C16.2977 19.383 15.1598 20.59 14.2195 21.3926L14.198 21.4102C13.9475 21.6241 13.7008 21.8348 13.3777 22.0195C13.0421 22.2113 12.6536 22.3602 12.1091 22.5127C11.5649 22.6651 11.1561 22.7397 10.7712 22.749C10.4004 22.758 10.0835 22.7037 9.7644 22.6494L9.73706 22.6455C7.41562 22.251 3.72504 20.9309 2.61987 16.6191L1.7644 13.2803C1.55323 12.4564 1.37909 11.7792 1.29956 11.2246C1.21713 10.6496 1.21936 10.1052 1.44409 9.58496C1.57633 9.27901 1.76095 8.9987 1.98999 8.75781C2.38408 8.34339 2.88433 8.14234 3.43823 8.01562C3.96755 7.89455 4.63994 7.82217 5.448 7.73535L5.49292 7.73047C6.01183 7.67469 6.41409 7.63087 6.74585 7.58984L7.37085 5.15137C7.58197 4.32765 7.75631 3.64926 7.95288 3.12695C8.15609 2.58709 8.41964 2.10992 8.8728 1.76953C9.13846 1.57 9.43756 1.42054 9.75659 1.33008ZM13.8337 6.77344C13.7003 6.73568 13.5045 6.72975 13.0945 6.86621C12.672 7.00678 12.1361 7.25723 11.3425 7.62891L11.2888 7.65332C10.1887 8.16854 9.57193 8.4576 8.92456 8.66309C8.69953 8.73452 8.47204 8.79773 8.24292 8.85352C7.58354 9.01404 6.91051 9.08699 5.71167 9.21582L5.65308 9.22168C4.78786 9.31466 4.20467 9.37861 3.77222 9.47754C3.35486 9.57305 3.18213 9.68044 3.0769 9.79102C2.97125 9.90214 2.88426 10.0343 2.82104 10.1807C2.75432 10.3353 2.71998 10.5588 2.78491 11.0117C2.85149 11.4759 3.00379 12.0745 3.22827 12.9502L4.073 16.2471C4.95468 19.6869 7.87022 20.806 9.98804 21.166C10.3366 21.2252 10.521 21.2542 10.7351 21.249C10.9459 21.2438 11.2209 21.2038 11.7048 21.0684C12.1882 20.9329 12.4466 20.8237 12.6335 20.7168C12.8241 20.6079 12.9723 20.4844 13.2458 20.251C14.9147 18.8262 16.9169 16.3149 16.032 12.8623L15.1863 9.56543C14.9617 8.68929 14.8075 8.09156 14.6433 7.65527C14.4825 7.22816 14.3482 7.06031 14.2263 6.96875C14.1062 6.87861 13.973 6.81292 13.8337 6.77344ZM10.1941 15.2246C11.2251 14.9484 12.0632 15.0243 12.6609 15.1865C12.9572 15.267 13.191 15.3681 13.3562 15.4531C13.4383 15.4955 13.5039 15.534 13.5525 15.5645C13.5769 15.5798 13.5972 15.5937 13.613 15.6045L13.6335 15.6182L13.6414 15.624L13.6443 15.627L13.6462 15.6279L13.6472 15.6289C13.9798 15.8758 14.0493 16.3451 13.8025 16.6777C13.5579 17.0072 13.0944 17.0786 12.7625 16.8398L12.7527 16.834C12.7383 16.825 12.7108 16.8073 12.6697 16.7861C12.5869 16.7434 12.4516 16.6836 12.2683 16.6338C11.9068 16.5355 11.3388 16.4713 10.5828 16.6738C9.8268 16.8764 9.36734 17.2166 9.10327 17.4824C8.9696 17.617 8.88226 17.736 8.83179 17.8145C8.80675 17.8533 8.79091 17.8824 8.78296 17.8975L8.7771 17.9082C8.60885 18.2808 8.17213 18.4502 7.79565 18.2871C7.4158 18.1226 7.24084 17.6817 7.40503 17.3018L7.40894 17.2939L7.41284 17.2852L7.42261 17.2627C7.43084 17.2454 7.44241 17.2237 7.45581 17.1982C7.48261 17.1474 7.51993 17.0808 7.57007 17.0029C7.67059 16.8467 7.8225 16.6437 8.03882 16.4258C8.47526 15.9864 9.16288 15.5009 10.1941 15.2246ZM10.1658 2.77344C10.0265 2.81293 9.89321 2.87861 9.77319 2.96875C9.65134 3.06036 9.5169 3.22835 9.3562 3.65527C9.192 4.09157 9.03781 4.68925 8.81323 5.56543L8.37866 7.26172C8.40928 7.25237 8.43993 7.24308 8.47046 7.2334C8.83594 7.11739 9.19326 6.9683 9.7439 6.7168C9.71614 6.5311 9.75795 6.33476 9.87573 6.16992C10.4261 5.39955 11.4285 5.04686 12.3875 5.30371C12.4986 5.33349 12.6065 5.37029 12.7097 5.41406C13.2173 5.25477 13.7231 5.18282 14.2429 5.33008C14.5619 5.42054 14.862 5.56999 15.1277 5.76953C15.5807 6.10994 15.8444 6.58717 16.0476 7.12695C16.0654 7.17434 16.0828 7.2235 16.1003 7.27344C16.6657 6.82617 17.4376 6.65763 18.1833 6.85742C19.1425 7.11442 19.835 7.92079 19.9265 8.86328C19.9664 9.27549 19.664 9.64162 19.2517 9.68164C18.8396 9.7215 18.4733 9.42 18.4333 9.00781C18.4046 8.71191 18.1742 8.40715 17.7957 8.30566C17.4172 8.20424 17.0653 8.35299 16.8923 8.59473C16.8042 8.71815 16.6851 8.80739 16.5535 8.8584L17.4851 12.4902C17.7828 13.6517 17.813 14.7228 17.6638 15.6973C18.6659 14.9484 19.5144 13.8548 19.9265 12.2471L20.7722 8.9502C20.9967 8.07436 21.1491 7.47587 21.2156 7.01172C21.2805 6.55904 21.2461 6.33527 21.1794 6.18066C21.1163 6.03435 21.0292 5.90212 20.9236 5.79102C20.8184 5.68034 20.6452 5.57313 20.2273 5.47754C19.7948 5.37861 19.2117 5.31467 18.3464 5.22168L18.2878 5.21582C17.089 5.08699 16.416 5.01405 15.7566 4.85352C15.5276 4.79774 15.2999 4.7345 15.075 4.66309C14.4277 4.4576 13.8107 4.16846 12.7107 3.65332L12.658 3.62891C11.8642 3.25719 11.3274 3.00678 10.905 2.86621C10.4949 2.72978 10.2991 2.73562 10.1658 2.77344ZM6.25464 11.2168C7.21369 10.9598 8.21585 11.3126 8.76636 12.083C9.00713 12.42 8.92947 12.8881 8.59253 13.1289C8.25558 13.3697 7.78748 13.2919 7.54663 12.9551C7.37377 12.7131 7.02193 12.5647 6.64331 12.666C6.2646 12.7675 6.03435 13.0722 6.00562 13.3682C5.96547 13.7803 5.59847 14.0821 5.18628 14.042C4.77401 14.002 4.47242 13.635 4.51245 13.2227C4.60407 12.2803 5.29565 11.4737 6.25464 11.2168ZM12.0505 9.66309C13.0095 9.40611 14.0118 9.75894 14.5623 10.5293C14.803 10.8663 14.7253 11.3344 14.3884 11.5752C14.0515 11.816 13.5834 11.7382 13.3425 11.4014C13.1697 11.1594 12.8178 11.0109 12.4392 11.1123C12.0605 11.2138 11.8303 11.5185 11.8015 11.8145C11.7614 12.2267 11.3943 12.5283 10.9822 12.4883C10.5699 12.4482 10.2684 12.0811 10.3083 11.6689C10.4 10.7267 11.0916 9.92008 12.0505 9.66309Z" fill="#48465C"/>
</svg>
