<svg width="24" height="24" viewBox="0 0 24 24" fill="none" xmlns="http://www.w3.org/2000/svg">
<path d="M19 6.25C19.4142 6.25 19.75 6.58579 19.75 7V21C19.75 21.4142 19.4142 21.75 19 21.75C18.5858 21.75 18.25 21.4142 18.25 21V10.9941C16.5565 11.9798 14.4564 12.0664 12.665 11.1709C12.648 11.1623 12.6306 11.1534 12.6143 11.1436C11.9235 10.7292 11.0363 11.1741 10.9561 11.9756L10.8877 12.6621C10.8298 13.2432 11.1064 13.8066 11.6016 14.1162L11.9346 14.3252C13.685 15.4191 14.8219 17.2702 15.0049 19.3262L15.1475 20.9336C15.1841 21.3462 14.8794 21.7104 14.4668 21.7471C14.0542 21.7838 13.69 21.479 13.6533 21.0664L13.5107 19.459C13.3694 17.8712 12.4913 16.4415 11.1396 15.5967L10.8066 15.3887C9.82729 14.7766 9.28065 13.6617 9.39551 12.5127L9.46387 11.8262C9.65257 9.94083 11.7285 8.88877 13.3584 9.84082C14.9096 10.6052 16.7669 10.3845 18.0967 9.27637L18.25 9.14844V7C18.25 6.58582 18.5858 6.25004 19 6.25ZM8.27441 16.3096C8.37978 15.9092 8.78999 15.6694 9.19043 15.7744C9.59096 15.8797 9.83074 16.2899 9.72559 16.6904L9.72461 16.6934L9.72363 16.6973L9.71973 16.7139L9.70312 16.7715C9.68937 16.821 9.66926 16.8924 9.64355 16.9795C9.59223 17.1534 9.51745 17.3945 9.42383 17.665C9.24219 18.1898 8.96806 18.8886 8.62793 19.4102C8.27054 19.958 7.7099 20.5117 7.27734 20.9033C7.05411 21.1054 6.85048 21.2765 6.70312 21.3975C6.62948 21.4579 6.56967 21.5065 6.52734 21.54L6.47754 21.5791L6.46387 21.5898L6.45898 21.5928L6.45801 21.5938C6.12975 21.8463 5.65787 21.7853 5.40527 21.457C5.15322 21.129 5.21449 20.6588 5.54199 20.4062L5.54492 20.4043L5.55469 20.3965L5.5957 20.3643C5.63202 20.3355 5.68557 20.2928 5.75195 20.2383C5.88531 20.1288 6.06919 19.9733 6.27051 19.791C6.68698 19.414 7.12606 18.967 7.37207 18.5898C7.60617 18.2307 7.83216 17.6795 8.00684 17.1748C8.09127 16.9309 8.15865 16.712 8.20508 16.5547C8.22818 16.4765 8.24603 16.4136 8.25781 16.3711L8.27148 16.3232L8.27441 16.3115V16.3096ZM11.5 2.25C13.2949 2.25 14.75 3.70507 14.75 5.5C14.75 7.29493 13.2949 8.75 11.5 8.75C9.70509 8.74996 8.25 7.2949 8.25 5.5C8.25 3.7051 9.70509 2.25004 11.5 2.25ZM11.5 3.75C10.5335 3.75004 9.75 4.53353 9.75 5.5C9.75 6.46647 10.5335 7.24996 11.5 7.25C12.4665 7.25 13.25 6.4665 13.25 5.5C13.25 4.5335 12.4665 3.75 11.5 3.75Z" fill="#1C274C"/>
</svg>
