<svg width="24" height="24" viewBox="0 0 24 24" fill="none" xmlns="http://www.w3.org/2000/svg">
<path d="M12.0001 4.00012C16.9706 4.00017 21.0001 8.02959 21.0001 13.0001C21 17.9706 16.9705 22.0001 12.0001 22.0001C7.02959 22.0001 3.0002 17.9707 3.00012 13.0001C3.00012 8.02956 7.02954 4.00012 12.0001 4.00012ZM12.2423 9.76672C11.1699 9.11461 10.6334 8.78857 10.1525 9.14954C9.67158 9.51052 9.62756 10.2663 9.54016 11.7775C9.51544 12.205 9.50012 12.6244 9.50012 13.0001C9.50013 13.3757 9.51546 13.7945 9.54016 14.2218C9.62757 15.7332 9.67155 16.4897 10.1525 16.8507C10.6333 17.2115 11.17 16.8855 12.2423 16.2335C12.5205 16.0643 12.7892 15.8913 13.0265 15.7247C13.2968 15.5349 13.5913 15.3075 13.8878 15.0656C14.9626 14.1887 15.5001 13.7499 15.5001 13.0001C15.5001 12.2502 14.9627 11.8116 13.8878 10.9347C13.5911 10.6926 13.2969 10.4644 13.0265 10.2745C12.7893 10.108 12.5204 9.93585 12.2423 9.76672ZM7.10266 1.36438C7.45392 1.14485 7.91633 1.25142 8.13586 1.60266C8.35536 1.95387 8.24872 2.4163 7.89758 2.63586L3.89758 5.13586C3.54638 5.35536 3.08395 5.24869 2.86438 4.89758C2.64485 4.54633 2.75142 4.08391 3.10266 3.86438L7.10266 1.36438ZM15.8644 1.60266C16.0839 1.2515 16.5463 1.14487 16.8976 1.36438L20.8976 3.86438C21.2486 4.08396 21.3553 4.54639 21.1359 4.89758C20.9162 5.24878 20.4538 5.35537 20.1027 5.13586L16.1027 2.63586C15.7514 2.41633 15.6448 1.95391 15.8644 1.60266Z" fill="#48465C"/>
</svg>
