<svg width="24" height="24" viewBox="0 0 24 24" fill="none" xmlns="http://www.w3.org/2000/svg">
<path d="M12.0001 4.00024C16.9706 4.00029 21.0001 8.02971 21.0001 13.0002C21 17.9708 16.9705 22.0002 12.0001 22.0002C7.02959 22.0002 3.0002 17.9708 3.00012 13.0002C3.00012 8.02968 7.02954 4.00024 12.0001 4.00024ZM12.2423 9.76685C11.1699 9.11473 10.6334 8.7887 10.1525 9.14966C9.67158 9.51064 9.62756 10.2664 9.54016 11.7776C9.51544 12.2051 9.50012 12.6245 9.50012 13.0002C9.50013 13.3758 9.51546 13.7946 9.54016 14.2219C9.62757 15.7333 9.67155 16.4898 10.1525 16.8508C10.6333 17.2116 11.17 16.8857 12.2423 16.2336C12.5205 16.0645 12.7892 15.8914 13.0265 15.7249C13.2968 15.535 13.5913 15.3076 13.8878 15.0657C14.9627 14.1888 15.5001 13.7501 15.5001 13.0002C15.5001 12.2504 14.9627 11.8117 13.8878 10.9348C13.5911 10.6927 13.2969 10.4645 13.0265 10.2747C12.7893 10.1081 12.5204 9.93598 12.2423 9.76685ZM7.10266 1.3645C7.45392 1.14497 7.91633 1.25154 8.13586 1.60278C8.35536 1.95399 8.24872 2.41642 7.89758 2.63599L3.89758 5.13599C3.54638 5.35548 3.08395 5.24882 2.86438 4.89771C2.64485 4.54645 2.75142 4.08404 3.10266 3.8645L7.10266 1.3645ZM15.8644 1.60278C16.0839 1.25162 16.5463 1.14499 16.8976 1.3645L20.8976 3.8645C21.2486 4.08408 21.3553 4.54652 21.1359 4.89771C20.9162 5.2489 20.4538 5.3555 20.1027 5.13599L16.1027 2.63599C15.7514 2.41646 15.6448 1.95403 15.8644 1.60278Z" fill="#1C274C"/>
</svg>
