<svg width="24" height="24" viewBox="0 0 24 24" fill="none" xmlns="http://www.w3.org/2000/svg">
<path d="M12 1.75C12.8193 1.75 13.5067 2.31305 13.6973 3.07324C13.7299 3.08985 13.7626 3.10737 13.7949 3.125L18.5898 5.73926C18.6723 5.78427 18.7529 5.83228 18.8311 5.88281C19.0372 5.79746 19.263 5.75 19.5 5.75C20.4665 5.75 21.25 6.5335 21.25 7.5C21.25 8.07605 20.9715 8.58736 20.542 8.90625C20.5433 8.94779 20.5439 8.98949 20.5439 9.03125V13.9688C20.5439 14.1692 20.5281 14.3673 20.4971 14.5615C20.952 14.8775 21.25 15.4041 21.25 16C21.25 16.9665 20.4665 17.75 19.5 17.75C19.0844 17.75 18.7025 17.6053 18.4023 17.3633L17.1592 18.041L19.1553 21.6357C19.3564 21.9978 19.2262 22.4541 18.8643 22.6553C18.5023 22.8564 18.046 22.7262 17.8447 22.3643L15.8418 18.7598L13.7949 19.875C13.7626 19.8926 13.7299 19.9101 13.6973 19.9268C13.5068 20.6869 12.8193 21.25 12 21.25C11.1807 21.25 10.4933 20.687 10.3027 19.9268C10.2701 19.9102 10.2374 19.8926 10.2051 19.875L8.1582 18.7598L6.15527 22.3643C5.95406 22.7262 5.49777 22.8564 5.13574 22.6553C4.77377 22.4541 4.64359 21.9978 4.84473 21.6357L6.84082 18.041L5.59766 17.3633C5.29748 17.6053 4.91558 17.75 4.5 17.75C3.5335 17.75 2.75 16.9665 2.75 16C2.75 15.4041 3.04794 14.8775 3.50293 14.5615C3.47187 14.3673 3.45605 14.1692 3.45605 13.9688V9.03125C3.45605 8.9895 3.45663 8.94779 3.45801 8.90625C3.02849 8.58736 2.75 8.07606 2.75 7.5C2.75 6.5335 3.5335 5.75 4.5 5.75C4.73697 5.75 4.96283 5.79746 5.16895 5.88281C5.24708 5.83229 5.32765 5.78425 5.41016 5.73926L10.2051 3.125C10.2374 3.10737 10.2701 3.08985 10.3027 3.07324C10.4933 2.31305 11.1807 1.75 12 1.75ZM12.9629 13.5771C12.6633 13.689 12.3386 13.75 12 13.75C11.6614 13.75 11.3367 13.689 11.0371 13.5771L8.88672 17.4482L10.6367 18.4023C10.9575 18.0044 11.4491 17.75 12 17.75C12.5509 17.75 13.0426 18.0044 13.3633 18.4023L15.1133 17.4482L12.9629 13.5771ZM13.3633 4.59766C13.0426 4.99557 12.5509 5.25 12 5.25C11.4491 5.25 10.9575 4.99556 10.6367 4.59766L6.18457 7.02539C6.22701 7.17634 6.25 7.33548 6.25 7.5C6.25 8.30877 5.70146 8.98981 4.95605 9.19043V13.9688C4.95605 14.0866 4.96549 14.2031 4.9834 14.3174C5.71482 14.5271 6.25 15.2012 6.25 16C6.25 16.0035 6.25002 16.0072 6.25 16.0107L7.56934 16.7305L9.82129 12.6777C9.46326 12.2135 9.25 11.6316 9.25 11C9.25 9.48122 10.4812 8.25 12 8.25C13.5188 8.25 14.75 9.48122 14.75 11C14.75 11.6316 14.5367 12.2135 14.1787 12.6777L16.4307 16.7305L17.75 16.0107V16C17.75 15.201 18.286 14.527 19.0176 14.3174C19.0355 14.2031 19.0439 14.0866 19.0439 13.9688V9.19043C18.2985 8.98983 17.75 8.30879 17.75 7.5C17.75 7.33549 17.773 7.17635 17.8154 7.02539L13.3633 4.59766ZM12 9.75C11.3096 9.75 10.75 10.3096 10.75 11C10.75 11.6904 11.3096 12.25 12 12.25C12.6904 12.25 13.25 11.6904 13.25 11C13.25 10.3096 12.6904 9.75 12 9.75Z" fill="#1C274C"/>
</svg>
