<svg width="24" height="24" viewBox="0 0 24 24" fill="none" xmlns="http://www.w3.org/2000/svg">
<path d="M2 8.9668C2 3.08289 7.50016 0.88639 12 5.43164C16.4998 0.88639 22 3.08292 22 8.9668C21.9998 12.4889 17.9803 16.2138 15.0381 18.4688C13.7062 19.4896 13.0403 20 12 20C10.9597 20 10.2938 19.4896 8.96191 18.4688C6.01967 16.2138 2.00015 12.4888 2 8.9668ZM16.5 6.25C16.0858 6.25 15.75 6.58582 15.75 7V8.25H14.5C14.0858 8.25 13.75 8.58582 13.75 9C13.75 9.41421 14.0858 9.75 14.5 9.75H15.75V11C15.75 11.4142 16.0858 11.75 16.5 11.75C16.9142 11.75 17.25 11.4142 17.25 11V9.75H18.5C18.9142 9.75 19.25 9.41421 19.25 9C19.25 8.58582 18.9142 8.25 18.5 8.25H17.25V7C17.25 6.58582 16.9142 6.25 16.5 6.25Z" fill="#1C274C"/>
</svg>
