<svg width="24" height="24" viewBox="0 0 24 24" fill="none" xmlns="http://www.w3.org/2000/svg">
<path d="M12.0547 1.25C13.4222 1.24998 14.5246 1.24968 15.3916 1.36621C16.2917 1.48723 17.0494 1.74673 17.6514 2.34863C18.0511 2.74839 18.2998 3.21668 18.457 3.75C18.9413 3.75137 19.3537 3.75759 19.7031 3.78613C20.1663 3.82398 20.5848 3.9054 20.9756 4.10449C21.5869 4.41605 22.0839 4.91305 22.3955 5.52441C22.5946 5.91515 22.6761 6.33362 22.7139 6.79688C22.7505 7.24444 22.75 7.79537 22.75 8.46875V15.5312C22.75 16.2046 22.7505 16.7555 22.7139 17.2031C22.6761 17.6663 22.5946 18.0848 22.3955 18.4756C22.0839 19.0869 21.5869 19.5839 20.9756 19.8955C20.5848 20.0946 20.1663 20.1761 19.7031 20.2139C19.3537 20.2425 18.9413 20.2487 18.457 20.25C18.2998 20.7833 18.0511 21.2516 17.6514 21.6514C17.0494 22.2533 16.2917 22.5128 15.3916 22.6338C14.5246 22.7503 13.4222 22.75 12.0547 22.75H11.9453C10.5778 22.75 9.47534 22.7503 8.6084 22.6338C7.70829 22.5128 6.95055 22.2533 6.34863 21.6514C5.94889 21.2516 5.70021 20.7833 5.54297 20.25C5.05866 20.2487 4.64621 20.2425 4.29688 20.2139C3.83362 20.1761 3.41515 20.0946 3.02441 19.8955C2.41304 19.5839 1.91605 19.0869 1.60449 18.4756C1.4054 18.0848 1.32398 17.6663 1.28613 17.2031C1.24956 16.7555 1.24999 16.2046 1.25 15.5312V8.46875C1.24999 7.79537 1.24956 7.24444 1.28613 6.79688C1.32398 6.33362 1.40541 5.91515 1.60449 5.52441C1.91605 4.91305 2.41304 4.41605 3.02441 4.10449C3.41515 3.90541 3.83362 3.82398 4.29688 3.78613C4.64622 3.75759 5.05866 3.75137 5.54297 3.75C5.70021 3.21669 5.94887 2.74839 6.34863 2.34863C6.95055 1.74671 7.70829 1.48723 8.6084 1.36621C9.47533 1.24968 10.5778 1.24998 11.9453 1.25H12.0547ZM12 2.75C10.5649 2.75 9.5639 2.75201 8.80859 2.85352C8.07482 2.95217 7.68594 3.13242 7.40918 3.40918C7.13242 3.68594 6.95217 4.07482 6.85352 4.80859C6.75201 5.5639 6.75 6.56485 6.75 8V16C6.75 17.4354 6.75196 18.437 6.85352 19.1924C6.95218 19.9258 7.13249 20.3141 7.40918 20.5908C7.68594 20.8676 8.07482 21.0478 8.80859 21.1465C9.5639 21.2479 10.5649 21.25 12 21.25C13.4354 21.25 14.437 21.248 15.1924 21.1465C15.9258 21.0478 16.3141 20.8676 16.5908 20.5908C16.8676 20.3141 17.0478 19.9258 17.1465 19.1924C17.248 18.437 17.25 17.4354 17.25 16V8C17.25 6.56485 17.2479 5.5639 17.1465 4.80859C17.0478 4.07482 16.8676 3.68594 16.5908 3.40918C16.3141 3.13249 15.9258 2.95218 15.1924 2.85352C14.437 2.75196 13.4354 2.75 12 2.75ZM5.30273 5.25195C4.94466 5.25475 4.65957 5.26159 4.41895 5.28125C4.04852 5.31152 3.8491 5.36705 3.70508 5.44043C3.37597 5.60818 3.10818 5.87597 2.94043 6.20508C2.86705 6.3491 2.81152 6.54851 2.78125 6.91895C2.75026 7.2982 2.75 7.78756 2.75 8.5V15.5C2.75 16.2124 2.75026 16.7019 2.78125 17.0811C2.81152 17.4515 2.86705 17.6508 2.94043 17.7949C3.10818 18.124 3.37597 18.3918 3.70508 18.5596C3.8491 18.633 4.04851 18.6885 4.41895 18.7188C4.65957 18.7384 4.94466 18.7452 5.30273 18.748C5.25007 17.9975 5.24998 17.1041 5.25 16.0547V7.94531C5.24998 6.89589 5.25007 6.0025 5.30273 5.25195ZM18.6973 5.25195C18.7498 6.00249 18.75 6.8959 18.75 7.94531V16.0547C18.75 17.1041 18.7498 17.9975 18.6973 18.748C19.0553 18.7452 19.3405 18.7384 19.5811 18.7188C19.9515 18.6885 20.1508 18.633 20.2949 18.5596C20.624 18.3918 20.8918 18.124 21.0596 17.7949C21.133 17.6508 21.1885 17.4515 21.2188 17.0811C21.2498 16.7019 21.25 16.2124 21.25 15.5V8.5C21.25 7.78756 21.2498 7.2982 21.2188 6.91895C21.1885 6.54851 21.133 6.3491 21.0596 6.20508C20.8918 5.87597 20.624 5.60818 20.2949 5.44043C20.1508 5.36705 19.9515 5.31152 19.5811 5.28125C19.3405 5.26159 19.0553 5.25475 18.6973 5.25195Z" fill="#48465C"/>
</svg>
