<svg width="24" height="24" viewBox="0 0 24 24" fill="none" xmlns="http://www.w3.org/2000/svg">
<path d="M12 1.25C12.7353 1.25 13.4543 1.32375 14.1494 1.46484C14.5552 1.54732 14.8177 1.94373 14.7354 2.34961C14.6528 2.75538 14.2564 3.01695 13.8506 2.93457C13.2533 2.81334 12.6344 2.75 12 2.75C6.89137 2.75 2.75 6.89137 2.75 12C2.75 13.4811 3.09757 14.8789 3.71484 16.1182C3.96256 16.6156 4.05767 17.2107 3.90137 17.7949L3.30566 20.0205C3.19637 20.4292 3.57073 20.8037 3.97949 20.6943L6.20508 20.0986C6.78925 19.9423 7.38445 20.0375 7.88184 20.2852C9.12114 20.9025 10.5189 21.25 12 21.25C17.1086 21.25 21.25 17.1086 21.25 12C21.25 11.3656 21.1866 10.7467 21.0654 10.1494C20.9831 9.74358 21.2446 9.34719 21.6504 9.26465C22.0562 9.18226 22.4527 9.44476 22.5352 9.85059C22.6763 10.5456 22.75 11.2647 22.75 12C22.75 17.9371 17.9371 22.75 12 22.75C10.2817 22.75 8.65526 22.3463 7.21289 21.6279C6.99771 21.5208 6.77761 21.4984 6.59277 21.5479L4.36719 22.1426C2.84336 22.5503 1.44969 21.1566 1.85742 19.6328L2.45215 17.4072C2.50162 17.2224 2.47921 17.0023 2.37207 16.7871C1.65365 15.3447 1.25 13.7183 1.25 12C1.25 6.06294 6.06294 1.25 12 1.25ZM19 1.25C21.0711 1.25 22.75 2.92893 22.75 5C22.75 7.07107 21.0711 8.75 19 8.75C16.9289 8.75 15.25 7.07107 15.25 5C15.25 2.92893 16.9289 1.25 19 1.25ZM19 2.75C17.7574 2.75 16.75 3.75736 16.75 5C16.75 6.24264 17.7574 7.25 19 7.25C20.2426 7.25 21.25 6.24264 21.25 5C21.25 3.75736 20.2426 2.75 19 2.75Z" fill="#1C274C"/>
</svg>
