<svg width="24" height="24" viewBox="0 0 24 24" fill="none" xmlns="http://www.w3.org/2000/svg">
<path d="M12 1.25C17.9371 1.25 22.75 6.06294 22.75 12C22.75 17.9371 17.9371 22.75 12 22.75C6.06294 22.75 1.25 17.9371 1.25 12C1.25 6.06294 6.06294 1.25 12 1.25ZM12 2.75C6.89137 2.75 2.75 6.89137 2.75 12C2.75 17.1086 6.89137 21.25 12 21.25C17.1086 21.25 21.25 17.1086 21.25 12C21.25 6.89137 17.1086 2.75 12 2.75ZM13.7363 6.29785C14.029 6.18808 14.3598 6.27129 14.5654 6.50684L17.5654 9.94434C17.8376 10.2564 17.8051 10.7306 17.4932 11.0029C17.1811 11.275 16.7069 11.2427 16.4346 10.9307L14.75 9V17C14.75 17.4142 14.4142 17.75 14 17.75C13.5858 17.75 13.25 17.4142 13.25 17V7C13.25 6.6875 13.4437 6.40773 13.7363 6.29785ZM10 6.25C10.4142 6.25 10.75 6.58579 10.75 7V17C10.75 17.3125 10.5563 17.5924 10.2637 17.7021C9.97099 17.8119 9.64014 17.7287 9.43457 17.4932L6.43457 14.0557C6.1624 13.7436 6.19482 13.2694 6.50684 12.9971C6.81892 12.7249 7.29311 12.7574 7.56543 13.0693L9.25 15V7C9.25 6.58579 9.5858 6.25001 10 6.25Z" fill="#1C274C"/>
</svg>
