<svg width="24" height="24" viewBox="0 0 24 24" fill="none" xmlns="http://www.w3.org/2000/svg">
<path d="M12 1.25C17.9371 1.25 22.75 6.06294 22.75 12C22.75 17.9371 17.9371 22.75 12 22.75C10.2817 22.75 8.65526 22.3463 7.21289 21.6279C6.99771 21.5208 6.77762 21.4984 6.59277 21.5479L4.36719 22.1426C2.84336 22.5503 1.44969 21.1566 1.85742 19.6328L2.45215 17.4072C2.50162 17.2224 2.47921 17.0023 2.37207 16.7871C1.65365 15.3447 1.25 13.7183 1.25 12C1.25 6.06294 6.06294 1.25 12 1.25ZM12 2.75C6.89137 2.75 2.75 6.89137 2.75 12C2.75 13.4811 3.09757 14.8789 3.71484 16.1182C3.96256 16.6156 4.05767 17.2107 3.90137 17.7949L3.30566 20.0205C3.19637 20.4292 3.57073 20.8037 3.97949 20.6943L6.20508 20.0986C6.78925 19.9423 7.38445 20.0375 7.88184 20.2852C9.12114 20.9025 10.5189 21.25 12 21.25C17.1086 21.25 21.25 17.1086 21.25 12C21.25 6.89137 17.1086 2.75 12 2.75ZM12 8.49512C13.0424 7.68506 14.2296 7.43233 15.2725 7.82227C16.5072 8.28418 17.25 9.53916 17.25 11.1084C17.25 12.0241 16.8152 12.8822 16.2949 13.5947C15.7658 14.3193 15.0851 14.9784 14.457 15.5127C14.4259 15.5393 14.395 15.5665 14.3643 15.5928C13.6274 16.2211 13.0147 16.7432 12 16.7432C10.9853 16.7432 10.3726 16.2211 9.63574 15.5928C9.60499 15.5665 9.57421 15.5393 9.54297 15.5127C8.9149 14.9783 8.23417 14.3193 7.70508 13.5947C7.18481 12.8822 6.75 12.0241 6.75 11.1084C6.75 9.53916 7.49281 8.28418 8.72754 7.82227C9.77035 7.43233 10.9576 7.68506 12 8.49512ZM14.7471 9.22754C14.2299 9.03416 13.4051 9.13702 12.5361 10.0244C12.395 10.1685 12.2017 10.25 12 10.25C11.7983 10.25 11.605 10.1685 11.4639 10.0244C10.5949 9.13702 9.77008 9.03416 9.25293 9.22754C8.74431 9.41798 8.25 10.0011 8.25 11.1084C8.25 11.5612 8.47451 12.1053 8.91602 12.71C9.34873 13.3026 9.9331 13.8753 10.5146 14.3701C11.3829 15.1087 11.586 15.2432 12 15.2432C12.414 15.2432 12.6171 15.1087 13.4854 14.3701C14.0669 13.8753 14.6512 13.3026 15.084 12.71C15.5254 12.1053 15.75 11.5612 15.75 11.1084C15.75 10.001 15.2557 9.41797 14.7471 9.22754Z" fill="#1C274C"/>
</svg>
