<svg width="24" height="24" viewBox="0 0 24 24" fill="none" xmlns="http://www.w3.org/2000/svg">
<path fill-rule="evenodd" clip-rule="evenodd" d="M12 1.25C13.8277 1.25 15.3391 1.41122 16.502 1.60742L16.6367 1.62988C17.6469 1.79898 18.487 1.93946 19.1436 2.74805C19.5645 3.26658 19.7001 3.82713 19.7314 4.45312L20.2227 4.61719C20.6857 4.77152 21.092 4.90685 21.4141 5.05664C21.7622 5.2186 22.0813 5.42722 22.3252 5.76562C22.5691 6.10403 22.6664 6.473 22.71 6.85449C22.7501 7.20731 22.75 7.63505 22.75 8.12305V8.26855C22.75 8.67023 22.7504 9.02553 22.7207 9.32227C22.6886 9.6438 22.6173 9.95673 22.4395 10.2588C22.2617 10.561 22.0224 10.7747 21.7568 10.959C21.5117 11.1291 21.2019 11.302 20.8506 11.4971L18.21 12.9639C17.6706 14.0252 16.9292 14.9718 15.9102 15.6553C15.0355 16.2418 13.988 16.6129 12.75 16.7188V18.75H14.1807C15.0147 18.7502 15.7329 19.3394 15.8965 20.1572L16.1152 21.25H18C18.4142 21.25 18.75 21.5858 18.75 22C18.75 22.4142 18.4142 22.75 18 22.75H6C5.5858 22.75 5.25 22.4142 5.25 22C5.25 21.5858 5.5858 21.25 6 21.25H7.88477L8.10352 20.1572C8.26709 19.3394 8.98535 18.7502 9.81934 18.75H11.25V16.7188C10.012 16.6128 8.96448 16.2419 8.08985 15.6553C7.07083 14.9718 6.33042 14.0251 5.79102 12.9639L3.14942 11.4971C2.79816 11.302 2.48823 11.1291 2.24317 10.959C1.97762 10.7747 1.73838 10.561 1.56055 10.2588C1.38279 9.95674 1.31147 9.6438 1.2793 9.32227C1.24965 9.02552 1.24999 8.67025 1.25 8.26855V8.12305C1.24996 7.63507 1.24981 7.20732 1.29004 6.85449C1.33359 6.473 1.43091 6.10403 1.67481 5.76562C1.91872 5.42723 2.2378 5.2186 2.58594 5.05664C2.90796 4.90685 3.31427 4.77152 3.77735 4.61719L4.26856 4.45312C4.29988 3.82709 4.43638 3.26661 4.85742 2.74805C5.51389 1.93968 6.35326 1.79895 7.36328 1.62988L7.49805 1.60742C8.6609 1.41123 10.1723 1.25001 12 1.25ZM9.81934 20.25C9.70037 20.2502 9.59756 20.3344 9.57422 20.4512L9.41504 21.25H14.585L14.4258 20.4512C14.4025 20.3344 14.2997 20.2502 14.1807 20.25H9.81934ZM12 2.75C10.2608 2.75001 8.83322 2.90285 7.74805 3.08594C6.54121 3.28955 6.28737 3.36594 6.02149 3.69336C5.75944 4.0161 5.73429 4.3216 5.78809 5.67676C5.87776 7.9354 6.1759 10.3729 7.09864 12.2266C7.55411 13.1415 8.14994 13.8889 8.92578 14.4092C9.69659 14.9262 10.6911 15.25 12 15.25C13.3088 15.25 14.3034 14.9261 15.0742 14.4092C15.8501 13.8889 16.4459 13.1415 16.9014 12.2266C17.8241 10.3729 18.1223 7.9354 18.2119 5.67676C18.2657 4.3216 18.2405 4.0161 17.9785 3.69336C17.7127 3.36607 17.4586 3.28952 16.252 3.08594C15.1667 2.90287 13.739 2.75 12 2.75ZM12 4.25C12.5017 4.25 12.8141 4.57498 12.9863 4.7998C13.1506 5.01438 13.3166 5.31169 13.4863 5.61621L13.6074 5.83398C13.6302 5.8748 13.6484 5.90708 13.6641 5.93457C13.6913 5.94097 13.7231 5.94807 13.7627 5.95703L14.001 6.01074C14.3287 6.0848 14.6544 6.15831 14.9043 6.25684C15.1805 6.36566 15.555 6.57809 15.6992 7.04199C15.8408 7.49753 15.662 7.88381 15.5059 8.13184C15.3614 8.36137 15.1418 8.61809 14.917 8.88086L14.7559 9.06836C14.7214 9.10869 14.6956 9.13971 14.6738 9.16602C14.6767 9.20223 14.6801 9.24447 14.6855 9.30078L14.71 9.55078C14.7442 9.90258 14.7777 10.2426 14.7656 10.5146C14.7529 10.7998 14.684 11.2315 14.2969 11.5254C13.8975 11.8285 13.4565 11.7628 13.1768 11.6826C12.9191 11.6088 12.6143 11.4684 12.3076 11.3271L12.085 11.2246C12.0515 11.2092 12.024 11.1964 12 11.1855C11.976 11.1964 11.9485 11.2092 11.915 11.2246L11.6924 11.3271C11.3857 11.4684 11.0809 11.6088 10.8232 11.6826C10.5435 11.7628 10.1025 11.8285 9.70313 11.5254C9.31602 11.2315 9.24709 10.7998 9.23438 10.5146C9.22226 10.2426 9.25587 9.90258 9.29004 9.55078L9.31446 9.30078C9.31992 9.24448 9.32319 9.20223 9.32617 9.16602C9.30427 9.13971 9.27862 9.10869 9.24414 9.06836L9.08399 8.88086C8.85913 8.61803 8.63869 8.36142 8.49414 8.13184C8.338 7.88382 8.15931 7.49753 8.30078 7.04199C8.44504 6.5781 8.81957 6.36566 9.09571 6.25684C9.34569 6.15833 9.67136 6.08479 9.99903 6.01074L10.2373 5.95703C10.2769 5.94807 10.3087 5.94097 10.3359 5.93457C10.3516 5.90709 10.3698 5.87479 10.3926 5.83398L10.5137 5.61621C10.6834 5.31171 10.8494 5.01438 11.0137 4.7998C11.1859 4.57499 11.4983 4.25001 12 4.25ZM4.28809 6.02734C3.77688 6.19775 3.45386 6.30762 3.21875 6.41699C3.00114 6.51823 2.93084 6.58815 2.8916 6.64258C2.85237 6.69701 2.8075 6.78589 2.78028 7.02441C2.75088 7.28205 2.74998 7.6233 2.75 8.16211V8.23438C2.75001 8.67955 2.75114 8.95947 2.77246 9.17285C2.79213 9.36938 2.82418 9.44819 2.85352 9.49805C2.88289 9.54791 2.93642 9.61397 3.09864 9.72656C3.27477 9.84879 3.51831 9.98512 3.90723 10.2012L4.97266 10.7939C4.5451 9.22409 4.37334 7.54367 4.30176 6.02344L4.28809 6.02734ZM19.6982 6.02344C19.6266 7.54359 19.4548 9.22413 19.0273 10.7939L20.0928 10.2012C20.4817 9.98512 20.7252 9.84879 20.9014 9.72656C21.0636 9.61396 21.1172 9.54791 21.1465 9.49805C21.1759 9.44819 21.2079 9.36939 21.2275 9.17285C21.2489 8.95947 21.2499 8.67955 21.25 8.23438V8.16211C21.25 7.6233 21.2491 7.28205 21.2197 7.02441C21.1925 6.78589 21.1477 6.69701 21.1084 6.64258C21.0692 6.58815 20.9989 6.51824 20.7813 6.41699C20.5461 6.30762 20.2231 6.19775 19.7119 6.02734L19.6982 6.02344ZM11.8008 6.3877L11.7031 6.56445L11.6807 6.60449C11.6022 6.74809 11.4717 6.98578 11.2549 7.15039C11.0335 7.31844 10.767 7.37635 10.6113 7.41016L10.5684 7.41992L10.377 7.46289C10.202 7.50247 10.0594 7.5348 9.9375 7.56543C10.0169 7.6631 10.1199 7.78467 10.2539 7.94141L10.3838 8.09375L10.4141 8.12793C10.5221 8.25225 10.6967 8.45374 10.7773 8.71289C10.8568 8.96868 10.8288 9.23211 10.8115 9.39844L10.8066 9.44531L10.7871 9.64844C10.7689 9.8367 10.7545 9.98715 10.7451 10.1094C10.8493 10.0635 10.9686 10.0091 11.1094 9.94434L11.2881 9.86133L11.3281 9.84277C11.4716 9.77509 11.7213 9.65724 12 9.65723C12.2786 9.65723 12.5284 9.77509 12.6719 9.84277L12.7119 9.86133L12.8906 9.94434C13.0314 10.0091 13.1507 10.0635 13.2549 10.1094C13.2455 9.98715 13.2311 9.8367 13.2129 9.64844L13.1934 9.44531L13.1885 9.39844C13.1712 9.23211 13.1432 8.96867 13.2227 8.71289C13.3033 8.45374 13.4779 8.25225 13.5859 8.12793L13.6162 8.09375L13.7461 7.94141C13.8802 7.78467 13.9831 7.66311 14.0625 7.56543C13.9406 7.5348 13.798 7.50247 13.623 7.46289L13.4316 7.41992L13.3887 7.41016C13.233 7.37635 12.9665 7.31845 12.7451 7.15039C12.5284 6.98578 12.3978 6.74808 12.3193 6.60449L12.2969 6.56445L12.1992 6.3877C12.123 6.25104 12.0581 6.13483 12 6.03418C11.9419 6.13483 11.877 6.25104 11.8008 6.3877Z" fill="#1C274C"/>
</svg>
