<svg width="24" height="24" viewBox="0 0 24 24" fill="none" xmlns="http://www.w3.org/2000/svg">
<path d="M12 1.25C17.9371 1.25 22.75 6.06294 22.75 12C22.75 17.9371 17.9371 22.75 12 22.75C6.06294 22.75 1.25 17.9371 1.25 12C1.25 6.06294 6.06294 1.25 12 1.25ZM13.5781 14.4395C12.565 14.0342 11.435 14.0342 10.4219 14.4395L7.79785 15.4893L8.24707 20.4316C8.24785 20.4402 8.24853 20.4494 8.24902 20.458C9.39546 20.9671 10.6647 21.25 12 21.25C13.3353 21.25 14.6045 20.9671 15.751 20.458C15.7515 20.4494 15.7521 20.4402 15.7529 20.4316L16.2021 15.4893L13.5781 14.4395ZM2.97363 14.0312C3.48198 16.2999 4.8241 18.2541 6.66113 19.5547L6.29297 15.5068L2.97363 14.0312ZM17.707 15.5068L17.3389 19.5547C19.176 18.2541 20.518 16.2999 21.0264 14.0312L17.707 15.5068ZM12 2.75C6.89137 2.75 2.75 6.89137 2.75 12C2.75 12.0985 2.75182 12.1971 2.75488 12.2949C2.77152 12.301 2.78826 12.3072 2.80469 12.3145L7.01562 14.1865L9.86426 13.0469C11.2352 12.4986 12.7648 12.4986 14.1357 13.0469L16.9844 14.1865L21.1953 12.3145C21.2118 12.3072 21.2284 12.301 21.2451 12.2949C21.2482 12.1971 21.25 12.0985 21.25 12C21.25 6.89137 17.1086 2.75 12 2.75ZM9 9C9.55228 9 10 9.67157 10 10.5C10 11.3284 9.55228 12 9 12C8.44772 12 8 11.3284 8 10.5C8 9.67157 8.44772 9 9 9ZM15 9C15.5523 9 16 9.67157 16 10.5C16 11.3284 15.5523 12 15 12C14.4477 12 14 11.3284 14 10.5C14 9.67157 14.4477 9 15 9Z" fill="#48465C"/>
</svg>
