<svg width="24" height="24" viewBox="0 0 24 24" fill="none" xmlns="http://www.w3.org/2000/svg">
<path d="M12 2C16.714 2 19.0708 2.00037 20.5352 3.46484C21.9996 4.9293 22 7.28597 22 12C22 16.714 21.9997 19.0708 20.5352 20.5352C19.0708 21.9997 16.714 22 12 22C7.28597 22 4.9293 21.9996 3.46484 20.5352C2.00037 19.0708 2 16.714 2 12C2 7.28595 2.00037 4.9293 3.46484 3.46484C4.9293 2.00037 7.28595 2 12 2ZM12 14.25C11.5858 14.25 11.25 14.5858 11.25 15C11.25 15.4142 11.5858 15.75 12 15.75H17C17.4142 15.75 17.75 15.4142 17.75 15C17.75 14.5858 17.4142 14.25 17 14.25H12ZM7.48047 9.42383C7.16232 9.15871 6.68904 9.2015 6.42383 9.51953C6.15872 9.83767 6.20152 10.3109 6.51953 10.5762L6.75391 10.7715C7.41247 11.3203 7.84392 11.6814 8.12012 11.9873C8.38226 12.2777 8.40723 12.414 8.40723 12.5C8.40723 12.586 8.38226 12.7224 8.12012 13.0127C7.84392 13.3186 7.41248 13.6797 6.75391 14.2285L6.51953 14.4238C6.20148 14.689 6.15871 15.1622 6.42383 15.4805C6.68903 15.7985 7.16231 15.8413 7.48047 15.5762L7.75684 15.3457C8.3617 14.8418 8.87702 14.4122 9.2334 14.0176C9.61178 13.5985 9.90723 13.1164 9.90723 12.5C9.90723 11.8836 9.61178 11.4015 9.2334 10.9824C8.87702 10.5878 8.3617 10.1583 7.75684 9.6543L7.48047 9.42383Z" fill="#48465C"/>
</svg>
