<svg width="24" height="24" viewBox="0 0 24 24" fill="none" xmlns="http://www.w3.org/2000/svg">
<path d="M14.877 2.43945C15.8027 1.61665 17.1973 1.61665 18.123 2.43945C18.4804 2.75716 19.0196 2.75716 19.377 2.43945C20.2965 1.62218 21.7499 2.27467 21.75 3.50488V20.4951C21.7498 21.7252 20.2965 22.3777 19.377 21.5605C19.0196 21.2428 18.4804 21.2428 18.123 21.5605C17.1973 22.3833 15.8027 22.3833 14.877 21.5605C14.5196 21.2428 13.9804 21.2428 13.623 21.5605C12.6973 22.3833 11.3027 22.3833 10.377 21.5605C10.0196 21.2428 9.48047 21.2428 9.12305 21.5605C8.19733 22.3833 6.80267 22.3833 5.87695 21.5605C5.51953 21.2428 4.98047 21.2428 4.62305 21.5605C3.70352 22.3777 2.25018 21.7252 2.25 20.4951V3.50488C2.25015 2.27466 3.70351 1.62216 4.62305 2.43945C4.98047 2.75716 5.51953 2.75716 5.87695 2.43945C6.80269 1.61663 8.19731 1.61663 9.12305 2.43945C9.48047 2.75716 10.0196 2.75716 10.377 2.43945C11.3027 1.61665 12.6973 1.61665 13.623 2.43945C13.9804 2.75716 14.5196 2.75716 14.877 2.43945ZM17.127 3.56055C16.7696 3.24284 16.2304 3.24284 15.873 3.56055C14.9473 4.3832 13.5527 4.3832 12.627 3.56055C12.2696 3.24284 11.7304 3.24284 11.373 3.56055C10.4473 4.38321 9.05264 4.38322 8.12695 3.56055C7.76953 3.24284 7.23047 3.24284 6.87305 3.56055C5.98753 4.34751 4.67278 4.38173 3.75 3.66309V20.3369C4.67279 19.6183 5.98753 19.6525 6.87305 20.4395C7.23047 20.7572 7.76953 20.7572 8.12695 20.4395C9.05265 19.6167 10.4473 19.6167 11.373 20.4395C11.7304 20.7572 12.2696 20.7572 12.627 20.4395C13.5527 19.6167 14.9473 19.6167 15.873 20.4395C16.2304 20.7572 16.7696 20.7572 17.127 20.4395C18.0125 19.6525 19.3273 19.6183 20.25 20.3369V3.66309C19.3273 4.38173 18.0124 4.3475 17.127 3.56055ZM16.5 14.75C16.9142 14.75 17.25 15.0858 17.25 15.5C17.25 15.9142 16.9142 16.25 16.5 16.25H7.5C7.08579 16.25 6.75 15.9142 6.75 15.5C6.75004 15.0858 7.08582 14.75 7.5 14.75H16.5ZM16.5 11.25C16.9142 11.25 17.25 11.5858 17.25 12C17.25 12.4142 16.9142 12.75 16.5 12.75H7.5C7.08579 12.75 6.75 12.4142 6.75 12C6.75004 11.5858 7.08582 11.25 7.5 11.25H16.5ZM16.5 7.75C16.9142 7.75 17.25 8.0858 17.25 8.5C17.25 8.91421 16.9142 9.25 16.5 9.25H7.5C7.08579 9.25 6.75 8.91421 6.75 8.5C6.75003 8.0858 7.08581 7.75 7.5 7.75H16.5Z" fill="#1C274C"/>
</svg>
