<svg width="24" height="24" viewBox="0 0 24 24" fill="none" xmlns="http://www.w3.org/2000/svg">
<path d="M9.99609 1.25C10.4101 1.24669 10.7484 1.58006 10.752 1.99414C10.7552 2.40799 10.4226 2.74628 10.0088 2.75C8.29923 2.7645 7.03858 2.82053 6.0625 3.01172C5.10758 3.19883 4.47969 3.50566 3.99512 3.99023C3.4254 4.56003 3.09867 5.33087 2.92676 6.60938C2.75194 7.90964 2.75 9.6184 2.75 11.9971C2.75 14.3756 2.75198 16.0845 2.92676 17.3848C3.09868 18.6636 3.42527 19.4351 3.99512 20.0049C4.56497 20.5748 5.33647 20.9013 6.61523 21.0732C7.91551 21.248 9.62435 21.25 12.0029 21.25C14.3816 21.25 16.0903 21.248 17.3906 21.0732C18.6691 20.9014 19.44 20.5747 20.0098 20.0049C20.4944 19.5203 20.8013 18.8924 20.9883 17.9375C21.1795 16.9614 21.2355 15.7008 21.25 13.9912C21.2537 13.5772 21.5928 13.2445 22.0068 13.248C22.4207 13.2519 22.7533 13.59 22.75 14.0039C22.7355 15.7083 22.682 17.0969 22.4609 18.2256C22.2357 19.3753 21.8268 20.3089 21.0703 21.0654C20.1753 21.9603 19.0349 22.3663 17.5898 22.5605C16.1781 22.7503 14.3683 22.75 12.0596 22.75H11.9453C9.63645 22.75 7.82686 22.7503 6.41504 22.5605C4.96995 22.3662 3.82957 21.9604 2.93457 21.0654C2.03959 20.1704 1.63374 19.03 1.43945 17.585C1.24967 16.1732 1.24999 14.3636 1.25 12.0547V11.9404C1.24999 9.63171 1.24971 7.82192 1.43945 6.41016C1.63373 4.96515 2.03968 3.82466 2.93457 2.92969C3.69107 2.17319 4.62473 1.76426 5.77441 1.53906C6.90316 1.31796 8.29167 1.26445 9.99609 1.25ZM16.4697 1.46973C16.7626 1.17684 17.2374 1.17684 17.5303 1.46973L22.5303 6.46973C22.8232 6.76261 22.8231 7.23738 22.5303 7.53027L17.5303 12.5303C17.2374 12.8232 16.7626 12.8232 16.4697 12.5303C16.1768 12.2374 16.1768 11.7626 16.4697 11.4697L20.1895 7.75H14C12.4486 7.75 11.5328 8.50673 11.2119 8.8291L11.0195 9.02246L10.8291 9.21191C10.5068 9.53269 9.75001 10.4486 9.75 12V15C9.75 15.4142 9.41421 15.75 9 15.75C8.58579 15.75 8.25 15.4142 8.25 15V12C8.25001 9.91623 9.27727 8.64026 9.77148 8.14844L9.96191 7.95898L10.1484 7.77148C10.6402 7.27726 11.9162 6.25 14 6.25H20.1895L16.4697 2.53027C16.1769 2.23738 16.1768 1.76261 16.4697 1.46973Z" fill="#1C274C"/>
</svg>
