<svg width="24" height="24" viewBox="0 0 24 24" fill="none" xmlns="http://www.w3.org/2000/svg">
<path d="M12 2C16.714 2 19.0708 2.00037 20.5352 3.46484C21.9996 4.9293 22 7.28597 22 12C22 16.714 21.9997 19.0708 20.5352 20.5352C19.0708 21.9997 16.714 22 12 22C7.28597 22 4.9293 21.9996 3.46484 20.5352C2.00037 19.0708 2 16.714 2 12C2 7.28595 2.00037 4.9293 3.46484 3.46484C4.9293 2.00037 7.28595 2 12 2ZM14.7246 5.67285C13.5889 5.1095 12.247 5.10946 11.1113 5.67285C10.5459 5.95332 10.0392 6.4471 9.28223 7.18457L9.18164 7.28223L6.94434 9.46094L6.88574 9.5166C6.46147 9.92949 6.17661 10.2073 5.97266 10.4922C5.00891 11.8388 5.00891 13.6319 5.97266 14.9785C6.1766 15.2634 6.46146 15.5412 6.88574 15.9541L6.94434 16.0098C7.24113 16.2987 7.71597 16.2929 8.00488 15.9961C8.29373 15.6993 8.2869 15.2244 7.99023 14.9355C7.48703 14.4455 7.30813 14.2672 7.19238 14.1055C6.60232 13.2809 6.60232 12.1898 7.19238 11.3652C7.30813 11.2035 7.48703 11.0251 7.99023 10.5352L10.2275 8.35645C11.1226 7.48511 11.4514 7.17843 11.7773 7.0166C12.4931 6.66153 13.3429 6.66153 14.0586 7.0166C14.3846 7.17841 14.7133 7.485 15.6084 8.35645C16.5049 9.2293 16.8176 9.5475 16.9814 9.86035C17.3391 10.5437 17.339 11.3507 16.9814 12.0342C16.8176 12.3472 16.5054 12.6658 15.6084 13.5391L13.4043 15.6836C13.1743 15.9076 13.1098 15.9679 13.0576 16.0068C12.6245 16.3304 12.0181 16.3304 11.585 16.0068C11.5329 15.9679 11.4683 15.9076 11.2383 15.6836C11.0079 15.4593 10.9458 15.3968 10.9062 15.3467C10.5844 14.9382 10.5843 14.3753 10.9062 13.9668C10.9458 13.9168 11.008 13.8541 11.2383 13.6299L12.9365 11.9766C13.2331 11.6875 13.2391 11.2128 12.9502 10.916C12.6613 10.6194 12.1864 10.6135 11.8896 10.9023L10.1914 12.5557L10.1572 12.5889C9.97808 12.7632 9.83751 12.8999 9.72852 13.0381C8.97732 13.9913 8.97732 15.3223 9.72852 16.2754C9.83753 16.4137 9.97797 16.5502 10.1572 16.7246L10.1914 16.7588L10.2256 16.792C10.4051 16.9669 10.5451 17.1033 10.6865 17.209C11.652 17.9303 12.9906 17.9303 13.9561 17.209C14.0975 17.1033 14.2375 16.9668 14.417 16.792L14.4512 16.7588L16.6543 14.6133L16.7578 14.5127C17.5122 13.7788 18.0206 13.2843 18.3105 12.7305C18.8962 11.6114 18.8962 10.2841 18.3105 9.16504C18.0206 8.61121 17.5122 8.11677 16.7578 7.38281L16.6543 7.28223L16.5537 7.18457C15.7967 6.44709 15.29 5.95332 14.7246 5.67285Z" fill="#1C274C"/>
</svg>
