<svg width="24" height="24" viewBox="0 0 24 24" fill="none" xmlns="http://www.w3.org/2000/svg">
<path d="M12.0566 1.25C13.8943 1.24998 15.3501 1.25016 16.4893 1.40332C17.6615 1.56095 18.6101 1.89332 19.3584 2.6416C20.1066 3.38992 20.439 4.33844 20.5967 5.51074C20.7498 6.6499 20.75 8.10571 20.75 9.94336V14.0566C20.75 15.8943 20.7498 17.3501 20.5967 18.4893C20.439 19.6615 20.1066 20.6101 19.3584 21.3584C18.6101 22.1066 17.6615 22.439 16.4893 22.5967C15.3501 22.7498 13.8943 22.75 12.0566 22.75H11.9434C10.1057 22.75 8.6499 22.7498 7.51074 22.5967C6.33844 22.439 5.38992 22.1066 4.6416 21.3584C3.89332 20.6101 3.56095 19.6615 3.40332 18.4893C3.25016 17.3501 3.24998 15.8943 3.25 14.0566V9.94336C3.24998 8.1057 3.25016 6.64991 3.40332 5.51074C3.56095 4.33844 3.8933 3.38992 4.6416 2.6416C5.38992 1.8933 6.33844 1.56095 7.51074 1.40332C8.6499 1.25016 10.1057 1.24998 11.9434 1.25H12.0566ZM12 2.75C10.0933 2.75 8.73859 2.75149 7.71094 2.88965C6.70485 3.02491 6.12536 3.27894 5.70215 3.70215C5.27894 4.12536 5.02491 4.70485 4.88965 5.71094C4.75149 6.73859 4.75 8.09324 4.75 10V14C4.75 15.9067 4.7515 17.2614 4.88965 18.2891C5.02491 19.2951 5.27894 19.8747 5.70215 20.2979C6.12536 20.7211 6.70485 20.9752 7.71094 21.1104C8.73858 21.2485 10.0933 21.25 12 21.25C13.9067 21.25 15.2614 21.2485 16.2891 21.1104C17.2951 20.9752 17.8747 20.7211 18.2979 20.2979C18.7211 19.8747 18.9752 19.2951 19.1104 18.2891C19.2485 17.2614 19.25 15.9067 19.25 14V10C19.25 8.09325 19.2485 6.73858 19.1104 5.71094C18.9752 4.70485 18.7211 4.12536 18.2979 3.70215C17.8747 3.27894 17.2951 3.02491 16.2891 2.88965C15.2614 2.7515 13.9067 2.75 12 2.75ZM12 14.25C13.5188 14.25 14.75 15.4812 14.75 17C14.75 18.5188 13.5188 19.75 12 19.75C10.4812 19.75 9.25 18.5188 9.25 17C9.25 15.4812 10.4812 14.25 12 14.25ZM12 15.75C11.3096 15.75 10.75 16.3096 10.75 17C10.75 17.6904 11.3096 18.25 12 18.25C12.6904 18.25 13.25 17.6904 13.25 17C13.25 16.3096 12.6904 15.75 12 15.75ZM15 4.25C15.4142 4.25 15.75 4.58579 15.75 5C15.75 5.41421 15.4142 5.75 15 5.75H9C8.58579 5.75 8.25 5.41421 8.25 5C8.25 4.58579 8.58579 4.25 9 4.25H15Z" fill="#1C274C"/>
</svg>
