<svg width="24" height="24" viewBox="0 0 24 24" fill="none" xmlns="http://www.w3.org/2000/svg">
<path d="M16.2002 15.25C16.5532 15.25 16.8661 15.2496 17.1299 15.2734C17.4158 15.2993 17.695 15.3566 17.9717 15.499C18.2485 15.6414 18.4571 15.836 18.6445 16.0537C18.8172 16.2544 19 16.5087 19.2051 16.7959L20.3867 18.4502C20.8516 19.1008 21.2485 19.6576 21.4863 20.1211C21.7288 20.5937 21.9248 21.1952 21.6133 21.8008C21.3016 22.4063 20.6984 22.5964 20.1729 22.6738C19.6575 22.7497 18.9735 22.7501 18.1738 22.75H5.82617C5.02651 22.7501 4.34248 22.7497 3.82715 22.6738C3.30161 22.5964 2.69833 22.4063 2.38672 21.8008C2.0752 21.1952 2.2712 20.5937 2.51367 20.1211C2.75148 19.6576 3.14847 19.1008 3.61328 18.4502L4.77832 16.8203L4.79492 16.7959C5.00005 16.5087 5.18276 16.2544 5.35547 16.0537C5.54281 15.836 5.75152 15.6414 6.02832 15.499C6.30504 15.3567 6.58416 15.2993 6.87012 15.2734C7.13384 15.2496 7.44686 15.25 7.7998 15.25H16.2002ZM7.8291 16.75C7.43769 16.75 7.19287 16.7506 7.00488 16.7676C6.83256 16.7832 6.76104 16.8093 6.71484 16.833C6.66862 16.8568 6.60555 16.9005 6.49219 17.0322C6.36908 17.1754 6.22654 17.3739 5.99902 17.6924L4.86914 19.2734C4.35964 19.9867 4.02883 20.4526 3.84766 20.8057C3.76141 20.9738 3.73622 21.0666 3.72949 21.1104C3.76923 21.1304 3.85943 21.163 4.0459 21.1904C4.43853 21.2482 5.0102 21.25 5.88672 21.25H18.1133C18.9898 21.25 19.5614 21.2482 19.9541 21.1904C20.1406 21.163 20.2309 21.1304 20.2705 21.1104C20.2638 21.0666 20.2386 20.9738 20.1523 20.8057C19.9712 20.4526 19.6404 19.9867 19.1309 19.2734L18.001 17.6924C17.7735 17.3739 17.631 17.1754 17.5078 17.0322C17.3945 16.9005 17.3315 16.8568 17.2852 16.833C17.2389 16.8093 17.1669 16.7832 16.9941 16.7676C16.8062 16.7506 16.5613 16.75 16.1699 16.75H7.8291ZM6 11.25C6.41421 11.25 6.75 11.5858 6.75 12C6.75 12.4142 6.41421 12.75 6 12.75H2C1.58579 12.75 1.25 12.4142 1.25 12C1.25 11.5858 1.58579 11.25 2 11.25H6ZM14 11.25C14.4142 11.25 14.75 11.5858 14.75 12C14.75 12.4142 14.4142 12.75 14 12.75H10C9.58579 12.75 9.25 12.4142 9.25 12C9.25 11.5858 9.58579 11.25 10 11.25H14ZM22 11.25C22.4142 11.25 22.75 11.5858 22.75 12C22.75 12.4142 22.4142 12.75 22 12.75H18C17.5858 12.75 17.25 12.4142 17.25 12C17.25 11.5858 17.5858 11.25 18 11.25H22ZM18.1738 1.25C18.9735 1.24996 19.6575 1.25029 20.1729 1.32617C20.6984 1.40359 21.3016 1.5937 21.6133 2.19922C21.9248 2.80477 21.7288 3.40627 21.4863 3.87891C21.2485 4.34236 20.8516 4.89915 20.3867 5.5498L19.2051 7.2041C19 7.4913 18.8172 7.74558 18.6445 7.94629C18.4571 8.16402 18.2485 8.35853 17.9717 8.50098C17.695 8.64332 17.4158 8.70068 17.1299 8.72656C16.8661 8.75043 16.5532 8.75002 16.2002 8.75H7.7998C7.44685 8.75002 7.13384 8.75043 6.87012 8.72656C6.58414 8.70068 6.30504 8.64331 6.02832 8.50098C5.75152 8.35853 5.54281 8.16402 5.35547 7.94629C5.18276 7.74557 5.00005 7.49132 4.79492 7.2041L3.64844 5.59863C3.63677 5.58229 3.62487 5.56602 3.61328 5.5498C3.14848 4.89915 2.75148 4.34236 2.51367 3.87891C2.27119 3.40628 2.07517 2.80477 2.38672 2.19922C2.69833 1.5937 3.30161 1.40359 3.82715 1.32617C4.34248 1.25029 5.02651 1.24996 5.82617 1.25H18.1738ZM5.88672 2.75C5.0102 2.75 4.43853 2.75177 4.0459 2.80957C3.85943 2.83703 3.76922 2.86964 3.72949 2.88965C3.73622 2.93349 3.76141 3.02624 3.84766 3.19434C4.02883 3.54744 4.35965 4.01329 4.86914 4.72656L5.99902 6.30762C6.22655 6.62616 6.36908 6.82467 6.49219 6.96777C6.60555 7.09952 6.66862 7.1432 6.71484 7.16699C6.76104 7.19071 6.83257 7.21679 7.00488 7.23242C7.19287 7.24944 7.43769 7.25 7.8291 7.25H16.1699C16.5613 7.25 16.8062 7.2494 16.9941 7.23242C17.1668 7.21679 17.2389 7.19074 17.2852 7.16699C17.3315 7.1432 17.3945 7.09952 17.5078 6.96777C17.631 6.82467 17.7735 6.62615 18.001 6.30762L19.1309 4.72656C19.6403 4.01327 19.9712 3.54743 20.1523 3.19434C20.2386 3.02623 20.2638 2.93349 20.2705 2.88965C20.2309 2.86963 20.1406 2.83703 19.9541 2.80957C19.5614 2.75177 18.9898 2.75 18.1133 2.75H5.88672Z" fill="#48465C"/>
</svg>
