<svg width="24" height="24" viewBox="0 0 24 24" fill="none" xmlns="http://www.w3.org/2000/svg">
<path d="M12.2314 19.1981C12.5516 18.9356 13.0244 18.9825 13.2871 19.3026C13.5496 19.6228 13.5027 20.0955 13.1826 20.3583L10.4756 22.58C10.1553 22.8426 9.68263 22.7956 9.41992 22.4755C9.15718 22.1552 9.20421 21.6826 9.52441 21.4198L12.2314 19.1981ZM7.22656 15.7128C7.51944 15.4199 7.99421 15.4199 8.28711 15.7128C8.58 16.0057 8.58 16.4804 8.28711 16.7733L4.16602 20.8944C3.87311 21.1872 3.39832 21.1873 3.10547 20.8944C2.81266 20.6016 2.81273 20.1268 3.10547 19.8339L7.22656 15.7128ZM5.75879 4.09949C6.70689 3.15139 8.62141 3.3789 10.8262 4.50378C10.7909 4.70674 10.7869 4.93017 10.8301 5.17078C10.9999 6.11586 11.7267 7.60545 14.0605 9.93933C16.3949 12.2737 17.885 13.0001 18.8301 13.1698C19.0708 13.213 19.2941 13.209 19.4971 13.1737C20.6217 15.3783 20.8485 17.2931 19.9004 18.2411C18.2703 19.8708 13.784 18.026 9.87891 14.121C5.97378 10.2158 4.12915 5.72953 5.75879 4.09949ZM16.9502 14.121C16.5597 13.7304 15.9257 13.7304 15.5352 14.121C15.1448 14.5113 15.145 15.1445 15.5352 15.535C15.9257 15.9255 16.5597 15.9255 16.9502 15.535C17.3403 15.1445 17.3405 14.5113 16.9502 14.121ZM3.6416 10.8173C3.90428 10.4972 4.37708 10.4504 4.69727 10.7128C5.01731 10.9755 5.06417 11.4482 4.80176 11.7684L2.58008 14.4755C2.31735 14.7956 1.84459 14.8426 1.52441 14.58C1.20429 14.3172 1.15733 13.8445 1.41992 13.5243L3.6416 10.8173ZM12.707 11.2928C12.3166 10.9025 11.6834 10.9025 11.293 11.2928C10.9025 11.6834 10.9026 12.3163 11.293 12.7069C11.6835 13.0974 12.3165 13.0974 12.707 12.7069C13.0973 12.3163 13.0975 11.6834 12.707 11.2928ZM12.3018 4.78992C14.1296 3.63297 16.5782 3.85075 18.1719 5.44421L18.5557 5.828C20.1495 7.42179 20.3672 9.87021 19.21 11.6981C19.1725 11.7018 19.1338 11.7012 19.0947 11.6942C18.5981 11.6049 17.3763 11.134 15.1211 8.87878C12.8658 6.62335 12.3957 5.40161 12.3066 4.90515C12.2996 4.86597 12.298 4.82748 12.3018 4.78992ZM9.87891 7.04968C9.48839 6.65916 8.85439 6.65916 8.46387 7.04968C8.07356 7.44008 8.07376 8.07322 8.46387 8.46375C8.85439 8.85428 9.48839 8.85428 9.87891 8.46375C10.269 8.07323 10.2692 7.44007 9.87891 7.04968Z" fill="#1C274C"/>
</svg>
