<svg width="24" height="24" viewBox="0 0 24 24" fill="none" xmlns="http://www.w3.org/2000/svg">
<path d="M12 2C16.714 2 19.0708 2.00037 20.5352 3.46484C21.9996 4.9293 22 7.286 22 12C22 16.7141 21.9997 19.0708 20.5352 20.5352C19.0708 21.9997 16.714 22 12 22C7.28597 22 4.9293 21.9996 3.46484 20.5352C2.00037 19.0708 2 16.714 2 12C2 7.28595 2.00037 4.9293 3.46484 3.46484C4.9293 2.00037 7.28595 2 12 2ZM9.30078 6.91406C9.01981 6.60989 8.5455 6.59118 8.24121 6.87207L5.99121 8.94824C5.8374 9.09022 5.75 9.29068 5.75 9.5C5.75006 9.7092 5.83752 9.90884 5.99121 10.0508L8.24121 12.1279C8.54557 12.4089 9.01984 12.3894 9.30078 12.085C9.58166 11.7806 9.56313 11.3063 9.25879 11.0254L8.41797 10.25H14.0381C14.7372 10.25 15.2071 10.2505 15.5654 10.2861C15.9117 10.3204 16.0724 10.3814 16.1787 10.4502C16.3272 10.5462 16.4538 10.6728 16.5498 10.8213C16.6185 10.9276 16.6796 11.0885 16.7139 11.4346C16.7494 11.7929 16.75 12.2621 16.75 12.9609C16.75 13.66 16.7494 14.13 16.7139 14.4883C16.6796 14.8345 16.6186 14.9953 16.5498 15.1016C16.4538 15.2502 16.3272 15.3766 16.1787 15.4727C16.0724 15.5413 15.9117 15.6023 15.5654 15.6367C15.2071 15.6722 14.7372 15.6729 14.0381 15.6729H9.5C9.08581 15.6729 8.75003 16.0086 8.75 16.4229C8.75 16.8371 9.08579 17.1729 9.5 17.1729H14.0762C14.7279 17.1729 15.2718 17.1727 15.7129 17.1289C16.1744 17.0832 16.6039 16.9841 16.9932 16.7324C17.32 16.5211 17.5983 16.2427 17.8096 15.916C18.0612 15.5266 18.1603 15.0972 18.2061 14.6357C18.2497 14.1948 18.25 13.6508 18.25 12.999V12.9238C18.25 12.2717 18.2498 11.7272 18.2061 11.2861C18.1602 10.8249 18.0612 10.396 17.8096 10.0068C17.5984 9.68005 17.3199 9.4017 16.9932 9.19043C16.6039 8.93871 16.1744 8.83972 15.7129 8.79395C15.2718 8.75024 14.7279 8.74999 14.0762 8.75H8.41797L9.25879 7.97363C9.56297 7.69266 9.58167 7.21837 9.30078 6.91406Z" fill="#1C274C"/>
</svg>
