<svg width="24" height="24" viewBox="0 0 24 24" fill="none" xmlns="http://www.w3.org/2000/svg">
<path d="M12.0576 1.25C14.3657 1.24999 16.1745 1.24974 17.5859 1.43945C19.0306 1.63369 20.1706 2.03977 21.0654 2.93457C21.9602 3.82938 22.3662 4.96932 22.5605 6.41406C22.7502 7.82544 22.75 9.63432 22.75 11.9424V12.0576C22.75 14.3657 22.7502 16.1745 22.5605 17.5859C22.3662 19.0306 21.9602 20.1706 21.0654 21.0654C20.1706 21.9602 19.0306 22.3662 17.5859 22.5605C16.1745 22.7502 14.3657 22.75 12.0576 22.75H11.9424C9.63433 22.75 7.82545 22.7502 6.41406 22.5605C4.96933 22.3662 3.82938 21.9602 2.93457 21.0654C2.03977 20.1706 1.63369 19.0306 1.43945 17.5859C1.24974 16.1745 1.24999 14.3657 1.25 12.0576V11.9424C1.24999 9.63433 1.24974 7.82544 1.43945 6.41406C1.63369 4.96932 2.03976 3.82938 2.93457 2.93457C3.82938 2.03976 4.96933 1.63369 6.41406 1.43945C7.82545 1.24974 9.63433 1.24999 11.9424 1.25H12.0576ZM12 2.75C9.62177 2.75 7.91326 2.75198 6.61328 2.92676C5.33508 3.09865 4.56472 3.42551 3.99512 3.99512C3.42551 4.56472 3.09865 5.33508 2.92676 6.61328C2.75198 7.91326 2.75 9.62178 2.75 12C2.75 14.3782 2.75198 16.0867 2.92676 17.3867C3.09865 18.6649 3.42551 19.4352 3.99512 20.0049C4.56472 20.5745 5.33508 20.9014 6.61328 21.0732C7.91326 21.248 9.62177 21.25 12 21.25C14.3782 21.25 16.0867 21.248 17.3867 21.0732C18.6649 20.9014 19.4352 20.5745 20.0049 20.0049C20.5745 19.4352 20.9014 18.6649 21.0732 17.3867C21.248 16.0867 21.25 14.3782 21.25 12C21.25 9.62178 21.248 7.91326 21.0732 6.61328C20.9014 5.33508 20.5745 4.56472 20.0049 3.99512C19.4352 3.42551 18.6649 3.09865 17.3867 2.92676C16.0867 2.75198 14.3782 2.75 12 2.75ZM13.541 10.7754C14.0424 10.7553 14.3704 11.0625 14.5576 11.2861C14.7339 11.4968 14.9147 11.7919 15.0996 12.0938L15.7617 13.1748C15.9836 13.5371 16.1229 13.7643 16.2461 13.9277C16.3595 14.0783 16.425 14.1271 16.4736 14.1543C16.5222 14.1816 16.5984 14.2114 16.7861 14.2295C16.9898 14.2491 17.256 14.25 17.6807 14.25H19C19.4142 14.25 19.75 14.5858 19.75 15C19.75 15.4142 19.4142 15.75 19 15.75H17.6484C17.2653 15.75 16.9259 15.7502 16.6416 15.7227C16.3334 15.6929 16.0331 15.6269 15.7402 15.4629C15.4476 15.2989 15.235 15.0772 15.0488 14.8301C14.8769 14.602 14.6991 14.3131 14.499 13.9863L13.8457 12.918C13.7552 12.7703 13.6798 12.6468 13.6123 12.541C13.5534 12.6518 13.4876 12.7811 13.4092 12.9355L11.4219 16.8545C11.2684 17.1573 11.1176 17.4556 10.9629 17.6738C10.7966 17.9083 10.5026 18.2287 10.0156 18.2578C9.52871 18.2867 9.19876 18.0032 9.00586 17.79C8.82642 17.5917 8.64042 17.3139 8.45215 17.0312L8.2666 16.752C8.04101 16.4137 7.89977 16.2021 7.77637 16.0498C7.66275 15.9096 7.59811 15.8642 7.55078 15.8389C7.50344 15.8135 7.42943 15.7852 7.25 15.7686C7.05491 15.7504 6.80082 15.75 6.39453 15.75H5C4.58581 15.75 4.25003 15.4142 4.25 15C4.25 14.5858 4.58579 14.25 5 14.25H6.4248C6.7914 14.25 7.11657 14.25 7.38965 14.2754C7.68583 14.3031 7.97449 14.3645 8.25879 14.5166C8.54295 14.6687 8.75421 14.8745 8.94141 15.1055C9.11407 15.3186 9.29373 15.5894 9.49707 15.8945L9.6748 16.1592C9.76674 16.2971 9.84282 16.4123 9.91113 16.5107C9.96736 16.4049 10.0304 16.2818 10.1055 16.1338L12.0938 12.2139C12.2537 11.8983 12.4096 11.5903 12.5684 11.3662C12.7371 11.1283 13.0393 10.7955 13.541 10.7754Z" fill="#48465C"/>
</svg>
