<svg width="24" height="24" viewBox="0 0 24 24" fill="none" xmlns="http://www.w3.org/2000/svg">
<path d="M12 2C17.5228 2 22 6.47715 22 12C22 17.5228 17.5228 22 12 22C6.47715 22 2 17.5228 2 12C2 6.47715 6.47715 2 12 2ZM7 7.25C6.58579 7.25 6.25 7.58579 6.25 8V16C6.25 16.4142 6.58579 16.75 7 16.75C7.41421 16.75 7.75 16.4142 7.75 16V8C7.75 7.58579 7.41421 7.25 7 7.25ZM17.5303 8.46973C17.2374 8.17684 16.7626 8.17684 16.4697 8.46973L15.4697 9.46973C15.4267 9.51267 15.3898 9.55975 15.3594 9.60938C14.9584 9.38087 14.4945 9.25 14 9.25C13.5055 9.25 13.0416 9.38087 12.6406 9.60938C12.6102 9.55975 12.5733 9.51267 12.5303 9.46973L11.5303 8.46973C11.2374 8.17684 10.7626 8.17684 10.4697 8.46973C10.1768 8.76261 10.1768 9.23739 10.4697 9.53027L11.4697 10.5303C11.5126 10.5733 11.5598 10.6102 11.6094 10.6406C11.3809 11.0416 11.25 11.5055 11.25 12C11.25 12.4945 11.3809 12.9584 11.6094 13.3594C11.5598 13.3898 11.5126 13.4267 11.4697 13.4697L10.4697 14.4697C10.1768 14.7626 10.1768 15.2374 10.4697 15.5303C10.7626 15.8232 11.2374 15.8232 11.5303 15.5303L12.5303 14.5303C12.5733 14.4874 12.6102 14.4402 12.6406 14.3906C13.0416 14.6191 13.5055 14.75 14 14.75C14.4945 14.75 14.9584 14.6191 15.3594 14.3906C15.3898 14.4402 15.4267 14.4874 15.4697 14.5303L16.4697 15.5303C16.7626 15.8232 17.2374 15.8232 17.5303 15.5303C17.8232 15.2374 17.8232 14.7626 17.5303 14.4697L16.5303 13.4697C16.4874 13.4267 16.4402 13.3898 16.3906 13.3594C16.6191 12.9584 16.75 12.4945 16.75 12C16.75 11.5055 16.6191 11.0416 16.3906 10.6406C16.4402 10.6102 16.4874 10.5733 16.5303 10.5303L17.5303 9.53027C17.8232 9.23739 17.8232 8.76261 17.5303 8.46973ZM14 10.75C14.6904 10.75 15.25 11.3096 15.25 12C15.25 12.6904 14.6904 13.25 14 13.25C13.3096 13.25 12.75 12.6904 12.75 12C12.75 11.3096 13.3096 10.75 14 10.75Z" fill="#1C274C"/>
</svg>
