<svg width="24" height="24" viewBox="0 0 24 24" fill="none" xmlns="http://www.w3.org/2000/svg">
<path d="M12.0871 6.51904C12.2139 6.78204 12.391 7.07943 12.591 7.41553L13.8049 9.45557C13.9881 9.76344 14.1512 10.0386 14.3088 10.2632L12.7619 11.1294L16.9387 20.9185C17.1076 21.315 16.9185 21.772 16.5168 21.939C16.115 22.1057 15.6528 21.9193 15.4836 21.5229L12.0002 13.3589L8.51678 21.5229C8.34759 21.9194 7.8853 22.1057 7.48358 21.939C7.08185 21.772 6.89276 21.315 7.06171 20.9185L10.759 12.2515C10.3568 12.4765 10.0897 12.6235 9.87616 12.7085C9.66585 12.7921 9.57991 12.7844 9.52557 12.77C9.4712 12.7556 9.39294 12.7198 9.25311 12.5435C9.10377 12.3551 8.93819 12.078 8.6828 11.6489L8.05585 10.5952C7.79354 10.1545 7.62467 9.86869 7.5285 9.64209C7.43824 9.42938 7.44539 9.34294 7.46014 9.28857C7.47492 9.23422 7.51261 9.15571 7.69843 9.01611C7.8965 8.86734 8.18751 8.70296 8.63788 8.45068L12.0871 6.51904ZM6.62714 10.1958C6.75387 10.4586 6.93022 10.7555 7.13007 11.0913L7.79218 12.2046C7.97553 12.5127 8.13929 12.7875 8.29706 13.0122L4.9201 14.9038C4.45668 15.1634 4.1538 15.3323 3.91327 15.4282C3.68729 15.5183 3.58818 15.513 3.52069 15.4956C3.45402 15.4782 3.36706 15.4357 3.21893 15.2495C3.06079 15.0507 2.88593 14.7587 2.61835 14.3091C2.35067 13.8592 2.17761 13.5664 2.07928 13.3345C1.98693 13.1165 1.99396 13.0262 2.00995 12.9683C2.02618 12.9095 2.0679 12.8264 2.2619 12.6812C2.46748 12.5272 2.76836 12.3567 3.23163 12.0972L6.62714 10.1958ZM19.3762 2.01025C19.4428 2.02766 19.5289 2.07123 19.6769 2.25732C19.8351 2.45622 20.0108 2.74783 20.2785 3.19775L21.382 5.05225C21.6498 5.50223 21.8228 5.79483 21.9211 6.02686C22.0134 6.24486 22.0063 6.3352 21.9904 6.39307C21.9741 6.45181 21.9324 6.53499 21.7385 6.68018C21.5329 6.83409 21.2312 7.00358 20.7678 7.26318L16.8361 9.46631C16.3976 9.71195 16.1136 9.86904 15.8889 9.9585C15.6784 10.0423 15.5927 10.0354 15.5383 10.021C15.4839 10.0066 15.4057 9.97077 15.2658 9.79443C15.1165 9.60607 14.9509 9.32903 14.6955 8.8999L13.5158 6.91846C13.2537 6.47787 13.0855 6.19187 12.9894 5.96533C12.8992 5.75266 12.9054 5.66619 12.9201 5.61182C12.9349 5.55746 12.9734 5.47903 13.1594 5.33936C13.3574 5.19062 13.6486 5.02612 14.0988 4.77393L17.9758 2.60205C18.4392 2.34247 18.7421 2.17453 18.9826 2.07861C19.2091 1.98829 19.3086 1.9927 19.3762 2.01025Z" fill="#1C274C"/>
</svg>
