<svg width="24" height="24" viewBox="0 0 24 24" fill="none" xmlns="http://www.w3.org/2000/svg">
<path d="M12.0872 6.51904C12.2139 6.78204 12.391 7.07943 12.5911 7.41553L13.8049 9.45557C13.9881 9.76344 14.1512 10.0386 14.3088 10.2632L12.762 11.1294L16.9387 20.9185C17.1077 21.315 16.9185 21.772 16.5168 21.939C16.1151 22.1057 15.6528 21.9193 15.4836 21.5229L12.0002 13.3589L8.51685 21.5229C8.34765 21.9194 7.88536 22.1057 7.48364 21.939C7.08191 21.772 6.89282 21.315 7.06177 20.9185L10.759 12.2515C10.3569 12.4765 10.0897 12.6235 9.87622 12.7085C9.66591 12.7921 9.57997 12.7844 9.52563 12.77C9.47126 12.7556 9.393 12.7198 9.25317 12.5435C9.10383 12.3551 8.93825 12.078 8.68286 11.6489L8.05591 10.5952C7.7936 10.1545 7.62473 9.86869 7.52856 9.64209C7.4383 9.42938 7.44546 9.34294 7.46021 9.28857C7.47498 9.23422 7.51267 9.1557 7.69849 9.01611C7.89656 8.86734 8.18757 8.70296 8.63794 8.45068L12.0872 6.51904ZM6.6272 10.1958C6.75393 10.4586 6.93028 10.7555 7.13013 11.0913L7.79224 12.2046C7.97559 12.5127 8.13935 12.7875 8.29712 13.0122L4.92017 14.9038C4.45675 15.1634 4.15386 15.3323 3.91333 15.4282C3.68735 15.5183 3.58824 15.513 3.52075 15.4956C3.45408 15.4782 3.36712 15.4357 3.21899 15.2495C3.06085 15.0507 2.88599 14.7587 2.61841 14.3091C2.35073 13.8592 2.17767 13.5664 2.07935 13.3345C1.987 13.1165 1.99402 13.0262 2.01001 12.9683C2.02624 12.9095 2.06796 12.8264 2.26196 12.6812C2.46755 12.5272 2.76842 12.3567 3.23169 12.0972L6.6272 10.1958ZM19.3762 2.01025C19.4429 2.02766 19.529 2.07123 19.677 2.25732C19.8352 2.45622 20.0109 2.74783 20.2786 3.19775L21.3821 5.05225C21.6498 5.50223 21.8228 5.79483 21.9211 6.02686C22.0134 6.24486 22.0064 6.3352 21.9905 6.39307C21.9741 6.45181 21.9325 6.53499 21.7385 6.68018C21.5329 6.83409 21.2312 7.00358 20.7678 7.26318L16.8362 9.46631C16.3976 9.71195 16.1137 9.86904 15.8889 9.9585C15.6784 10.0423 15.5927 10.0354 15.5383 10.021C15.484 10.0066 15.4058 9.97077 15.2659 9.79443C15.1166 9.60607 14.9509 9.32903 14.6956 8.8999L13.5159 6.91846C13.2537 6.47787 13.0856 6.19187 12.9895 5.96533C12.8992 5.75266 12.9055 5.66619 12.9202 5.61182C12.935 5.55746 12.9734 5.47903 13.1594 5.33936C13.3574 5.19062 13.6487 5.02612 14.0989 4.77393L17.9758 2.60205C18.4392 2.34247 18.7422 2.17453 18.9827 2.07861C19.2092 1.98829 19.3086 1.9927 19.3762 2.01025Z" fill="#48465C"/>
</svg>
