<svg width="24" height="24" viewBox="0 0 24 24" fill="none" xmlns="http://www.w3.org/2000/svg">
<path d="M2.94434 14.7441C3.21544 14.7456 3.6089 14.7565 4.08789 14.7939C5.04892 14.8693 6.3402 15.0509 7.67773 15.4717C7.97583 15.5655 8.31084 15.732 8.74023 15.9648C8.82728 16.012 8.91854 16.0616 9.0127 16.1133C9.36359 16.3059 9.76218 16.5251 10.1924 16.7314C11.3068 17.2658 12.6961 17.7499 14.5088 17.75C16.1378 17.75 17.6044 17.3449 18.8311 16.8916C19.4396 16.6667 19.9982 16.426 20.4844 16.2168L20.4951 16.2129C20.7569 16.1002 20.9925 15.9991 21.2061 15.9121C19.6833 19.4908 16.1346 22 12 22C7.43347 22 3.58172 18.9388 2.38477 14.7568L2.53809 14.749H2.55762C2.57399 14.7484 2.60011 14.7469 2.63477 14.7461C2.70411 14.7444 2.80895 14.7433 2.94434 14.7441ZM2.62793 8.68848C2.72732 8.77975 2.87098 8.90695 3.05664 9.05762C3.4275 9.35858 3.96786 9.75618 4.65625 10.1533C6.03044 10.946 8.01871 11.7499 10.4365 11.75C12.1258 11.75 13.4192 11.2579 14.4492 10.7197C14.8464 10.5122 15.2149 10.2913 15.5371 10.0986C15.6231 10.0473 15.706 9.99793 15.7852 9.95117C16.1799 9.71797 16.48 9.55604 16.7432 9.46582C17.9697 9.04535 19.0354 8.86862 19.7891 8.79688C20.1656 8.76105 20.4636 8.75086 20.6631 8.75C20.7626 8.74957 20.8377 8.75123 20.8857 8.75293C20.9097 8.75378 20.9273 8.75531 20.9375 8.75586H20.9482L21.4746 8.79395C21.815 9.8004 22 10.8786 22 12C22 12.7266 21.9226 13.4356 21.7754 14.1182L21.2627 14.2891C20.8565 14.4245 20.3943 14.6231 19.9199 14.8271L19.9023 14.835C19.4101 15.0467 18.8824 15.2735 18.3115 15.4844C17.1709 15.906 15.8914 16.25 14.5088 16.25C12.9851 16.2499 11.8205 15.8486 10.8408 15.3789C10.4516 15.1921 10.1002 14.9987 9.75391 14.8086C9.65435 14.754 9.55465 14.6995 9.45508 14.6455C9.02698 14.4135 8.57845 14.1818 8.12793 14.04C6.6516 13.5756 5.24181 13.38 4.20508 13.2988C3.68537 13.2581 3.25535 13.2459 2.95312 13.2441C2.80193 13.2432 2.68186 13.2451 2.59863 13.2471C2.55724 13.2481 2.52482 13.2492 2.50195 13.25L2.47461 13.251H2.46387L2.08008 13.2705C2.02733 12.8544 2 12.4304 2 12C2 10.8223 2.20324 9.69193 2.57715 8.64258C2.59233 8.65681 2.60978 8.67181 2.62793 8.68848ZM12 2C15.8041 2 19.1122 4.12416 20.8027 7.25098C20.7594 7.25039 20.7101 7.24977 20.6562 7.25C20.4157 7.25105 20.0728 7.26324 19.6475 7.30371C18.797 7.38464 17.6129 7.58198 16.2568 8.04688C15.833 8.19216 15.4145 8.42757 15.0225 8.65918C14.9305 8.71353 14.8386 8.76852 14.7471 8.82324C14.4295 9.01308 14.109 9.20411 13.7539 9.38965C12.8618 9.85574 11.8101 10.25 10.4365 10.25C8.35487 10.2499 6.62447 9.5578 5.40527 8.85449C4.79707 8.50363 4.32237 8.15261 4.00195 7.89258C3.84214 7.76288 3.72138 7.65634 3.64258 7.58398C3.6032 7.54781 3.57362 7.52035 3.55566 7.50293L3.53418 7.48145L3.2373 7.17871C4.93952 4.09152 8.22536 2 12 2Z" fill="#1C274C"/>
</svg>
