<svg width="24" height="24" viewBox="0 0 24 24" fill="none" xmlns="http://www.w3.org/2000/svg">
<path d="M11.3896 1.98376C11.8612 1.53618 12.4479 1.14797 13.1865 1.2738C13.9232 1.39927 14.351 1.95791 14.6523 2.53552C14.9488 3.10405 15.2289 3.90239 15.5654 4.86169L15.7686 5.4408C15.9917 6.07709 16.0439 6.18073 16.1084 6.25037C16.1673 6.31397 16.2499 6.36587 16.8477 6.61462L17.3945 6.84216C18.289 7.21438 19.0424 7.52738 19.5781 7.85486C20.1408 8.19887 20.6352 8.66143 20.7334 9.39392C20.8156 10.0076 20.5796 10.5257 20.2363 10.974C20.1358 11.1053 20.0199 11.2379 19.8916 11.3734C20.1646 11.5084 20.4125 11.7128 20.5801 12.0306C20.8751 12.59 20.7373 13.1515 20.5371 13.6097C20.3462 14.0468 20.0186 14.5688 19.6416 15.1683L19.4014 15.5502C19.2805 15.7425 19.2137 15.8499 19.1699 15.934C19.1504 15.9714 19.1415 15.9926 19.1377 16.0033C19.1362 16.0074 19.135 16.0102 19.1348 16.0111V16.0228C19.1355 16.035 19.1382 16.0585 19.1465 16.1C19.1651 16.1947 19.1998 16.3189 19.2617 16.5394L19.3848 16.9769C19.5786 17.6663 19.746 18.2646 19.8066 18.7396C19.8696 19.2329 19.8483 19.817 19.4023 20.2699C18.957 20.7223 18.3734 20.7533 17.8789 20.6996C17.4023 20.6478 16.8008 20.4916 16.1064 20.3109L15.665 20.1967C15.4429 20.1389 15.3181 20.1061 15.2227 20.0892C15.18 20.0816 15.156 20.08 15.1436 20.0795H15.1309C15.1304 20.0796 15.1268 20.0806 15.1221 20.0824C15.1111 20.0864 15.0897 20.0956 15.0527 20.1156C14.9691 20.1609 14.8625 20.2299 14.6719 20.3539L14.2939 20.6C13.6994 20.9871 13.1825 21.3236 12.748 21.5219C12.2929 21.7296 11.735 21.8772 11.1709 21.5941C10.6087 21.3118 10.3905 20.7774 10.2812 20.2885C10.1768 19.8206 10.1318 19.2029 10.0801 18.4906L10.0469 18.0385C10.0304 17.8105 10.0205 17.6826 10.0059 17.5873C9.99941 17.5452 9.99379 17.5222 9.99023 17.5101C9.98854 17.5044 9.9873 17.4994 9.9873 17.4994L9.98633 17.4974L9.98438 17.4955C9.98438 17.4955 9.98147 17.4905 9.97754 17.4857C9.9692 17.4755 9.95241 17.4568 9.9209 17.4271C9.90797 17.415 9.89407 17.4024 9.87891 17.389L9.28125 17.6791L9.15234 17.7142C8.21508 17.9733 7.42597 18.1924 6.80566 18.264C6.15991 18.3386 5.4715 18.2816 4.95996 17.7299C4.46291 17.1933 4.42577 16.501 4.50488 15.8422C4.58256 15.1956 4.80105 14.3704 5.06445 13.3744L5.22266 12.7767C5.39535 12.1236 5.41546 11.9957 5.40039 11.8832C5.38582 11.7746 5.337 11.6647 5 11.0951L4.69043 10.5726C4.17826 9.70696 3.75186 8.98598 3.50684 8.39001C3.25339 7.77341 3.11547 7.10693 3.43945 6.45447C3.76919 5.79086 4.38909 5.51724 5.03223 5.3783C5.64438 5.2461 6.45721 5.19934 7.42188 5.14392C7.44297 5.14271 7.46412 5.14124 7.48535 5.14001L8.0127 5.10974C8.65771 5.07266 8.75065 5.05126 8.82422 5.01208C8.90483 4.96907 8.9856 4.89027 9.40137 4.36169L9.78027 3.88123C10.4055 3.08636 10.9265 2.42355 11.3896 1.98376ZM13.3262 9.75525C13.2987 9.78029 13.2445 9.84316 13.165 9.98669C12.9954 10.2929 12.8182 10.7627 12.5439 11.4984L12.4072 11.8666C12.3974 11.8929 12.3878 11.9198 12.3779 11.9467C12.2593 12.268 12.1292 12.6187 11.8662 12.8861C11.6031 13.1534 11.2537 13.2893 10.9336 13.4135C10.907 13.4238 10.8807 13.4344 10.8545 13.4447L10.4873 13.5883C9.75502 13.8751 9.2874 14.0599 8.9834 14.2347C8.84341 14.3152 8.78131 14.3696 8.75586 14.3978C8.77163 14.4333 8.81632 14.5081 8.93555 14.6361C9.17936 14.8979 9.5774 15.2183 10.1973 15.7152L10.5078 15.9642C10.5299 15.9819 10.5519 16.0002 10.5742 16.0179C10.8468 16.2352 11.1384 16.4674 11.3125 16.7972C11.4872 17.1284 11.5131 17.4998 11.5371 17.8451C11.5391 17.8734 11.541 17.9022 11.543 17.9301L11.5723 18.3236C11.6295 19.1104 11.6678 19.6152 11.7451 19.9613C11.7819 20.1264 11.8183 20.207 11.8398 20.2426C11.8416 20.2455 11.8432 20.2483 11.8447 20.2504C11.8454 20.2503 11.8486 20.2496 11.8506 20.2494C11.8896 20.2455 11.9739 20.227 12.126 20.1576C12.4454 20.0118 12.8668 19.7392 13.5244 19.3109L13.8535 19.097C13.8769 19.0818 13.901 19.0667 13.9248 19.0511C14.212 18.8628 14.5237 18.6574 14.8945 18.598C15.2632 18.5389 15.6245 18.6347 15.96 18.723C15.9877 18.7304 16.0155 18.7373 16.043 18.7445L16.4277 18.8441C17.1948 19.0437 17.6876 19.1699 18.041 19.2084C18.2037 19.2261 18.2881 19.219 18.3271 19.2113C18.334 19.1721 18.3387 19.0884 18.3184 18.9291C18.2735 18.5779 18.1387 18.0889 17.9248 17.3275L17.8174 16.9457C17.8097 16.9185 17.8017 16.8904 17.7939 16.8627C17.6994 16.5301 17.5967 16.1702 17.6494 15.8002C17.7024 15.4285 17.9027 15.1131 18.0859 14.8236C18.1012 14.7995 18.116 14.775 18.1309 14.7513L18.3398 14.4193C18.7571 13.7554 19.0219 13.3301 19.1621 13.0092C19.2287 12.8567 19.2459 12.7731 19.249 12.7347L19.25 12.7308C19.2479 12.7295 19.245 12.7284 19.2422 12.7269C19.2058 12.7058 19.1243 12.671 18.958 12.6371C18.6094 12.5662 18.1027 12.5362 17.3135 12.4935L16.917 12.472C16.8892 12.4706 16.8612 12.4695 16.833 12.4681C16.4863 12.4503 16.1147 12.431 15.7803 12.2631C15.4468 12.0956 15.209 11.8095 14.9863 11.5414C14.9681 11.5195 14.9497 11.4976 14.9316 11.476L14.6758 11.1703C14.1667 10.5612 13.838 10.1704 13.5713 9.93201C13.4377 9.81266 13.3614 9.76956 13.3262 9.75525ZM12.9326 2.75232C12.9094 2.74795 12.7851 2.72676 12.4219 3.07166C12.0477 3.42694 11.5941 4.00098 10.9209 4.85681L10.5801 5.28943C10.5578 5.31784 10.5358 5.34625 10.5137 5.37439C10.2084 5.76406 9.92614 6.12411 9.53027 6.33533C9.12793 6.54989 8.67679 6.57466 8.20215 6.60095C8.16789 6.60286 8.13313 6.60483 8.09863 6.60681L7.57129 6.63708C6.52573 6.69721 5.83214 6.73967 5.34863 6.84412C4.88269 6.94478 4.81307 7.06228 4.7832 7.12244C4.74765 7.19411 4.69869 7.34565 4.89355 7.8197C5.09216 8.30281 5.46101 8.92981 6.01172 9.86072L6.29102 10.3314C6.30844 10.3609 6.32554 10.3902 6.34277 10.4193C6.59738 10.848 6.82643 11.2344 6.88672 11.684C6.9465 12.1299 6.8302 12.5667 6.69922 13.059C6.69032 13.0925 6.68184 13.1265 6.67285 13.1605L6.5293 13.7006C6.24703 14.768 6.05781 15.491 5.99414 16.0209C5.93048 16.5509 6.02272 16.6706 6.05957 16.7103L6.06152 16.7113C6.08586 16.7379 6.1672 16.8277 6.63379 16.7738C7.08189 16.7221 7.68524 16.5633 8.5625 16.3217C8.27765 16.0845 8.03032 15.8642 7.83789 15.6576C7.49807 15.2926 7.17569 14.8089 7.26465 14.184C7.35439 13.5541 7.80377 13.1833 8.23535 12.9349C8.64883 12.697 9.22391 12.4714 9.88574 12.2123L10.3066 12.0472C10.5189 11.964 10.638 11.918 10.7236 11.8763C10.7717 11.8528 10.7911 11.839 10.7969 11.8344C10.8013 11.8286 10.8142 11.8085 10.8369 11.7601C10.8771 11.6742 10.9225 11.5553 11.002 11.3422L11.1592 10.9193C11.4068 10.2546 11.6225 9.67612 11.8535 9.25916C12.0951 8.82327 12.4584 8.36951 13.0859 8.26892C13.7084 8.16919 14.1978 8.48106 14.5703 8.81384C14.929 9.13442 15.3285 9.61204 15.79 10.1644L16.082 10.514C16.2295 10.6905 16.3134 10.7899 16.3818 10.8597C16.4121 10.8907 16.431 10.9063 16.4414 10.9144C16.4464 10.9182 16.4512 10.9213 16.4512 10.9213L16.4531 10.9232L16.4561 10.9242C16.4568 10.9244 16.4614 10.9257 16.4668 10.9271C16.4791 10.9305 16.5025 10.9361 16.5449 10.9418C16.6409 10.9547 16.7696 10.9626 16.998 10.975L17.4521 10.9994C17.6662 11.011 17.8719 11.0221 18.0674 11.0345C18.5367 10.6213 18.8494 10.3172 19.0449 10.0619C19.2541 9.78862 19.2567 9.66497 19.2471 9.59314C19.2376 9.52196 19.205 9.38523 18.7959 9.13513C18.3716 8.87579 17.7287 8.60575 16.7598 8.20251L16.2705 7.99939C16.2387 7.98616 16.2073 7.97241 16.1758 7.95935C15.7345 7.7768 15.3178 7.60451 15.0078 7.2699C14.7031 6.94097 14.5527 6.5098 14.3887 6.03943C14.3769 6.0058 14.3655 5.97187 14.3535 5.93787L14.1699 5.41541C13.808 4.38372 13.5625 3.6896 13.3223 3.22888C13.0879 2.77971 12.9615 2.75727 12.9365 2.7533L12.9346 2.75232H12.9326Z" fill="#48465C"/>
</svg>
