<svg width="24" height="24" viewBox="0 0 24 24" fill="none" xmlns="http://www.w3.org/2000/svg">
<path d="M13.2513 3.25C14.339 3.24998 15.2278 3.25005 15.9291 3.33984C16.659 3.43334 17.2988 3.63568 17.8138 4.12598C18.3342 4.62156 18.5541 5.2465 18.6547 5.95898C18.7499 6.63391 18.7504 7.48637 18.7504 8.5166V9.57324C19.1509 9.3637 19.6069 9.25007 20.0726 9.25C21.7807 9.25 23.2433 10.8072 22.6019 12.5264L21.4828 15.5273C21.4751 15.5481 21.4679 15.5687 21.4603 15.5889C21.2875 16.0522 21.1683 16.3696 21.0072 16.6475C20.5098 17.5058 19.6993 18.1448 18.7504 18.4814V20C18.7504 20.4141 18.4144 20.7498 18.0004 20.75C17.5862 20.75 17.2504 20.4142 17.2504 20V18.7461C17.0628 18.7505 16.849 18.75 16.5941 18.75H6.88025C6.82438 18.75 6.78761 18.7495 6.75427 18.749H6.75037V20C6.75037 20.4141 6.41439 20.7498 6.00037 20.75C5.58616 20.75 5.25037 20.4142 5.25037 20V18.667C5.25037 18.6055 5.25694 18.5454 5.27087 18.4883C4.12986 18.0897 3.18465 17.257 2.74353 16.1338C2.73185 16.104 2.7198 16.0717 2.70251 16.0254L1.39783 12.5264C0.756457 10.8072 2.219 9.25 3.92712 9.25C4.39295 9.25005 4.84974 9.36362 5.25037 9.57324V8.5166C5.25034 7.48638 5.24987 6.6339 5.34509 5.95898C5.44567 5.2465 5.66555 4.62156 6.18591 4.12598C6.70107 3.63553 7.34155 3.43332 8.07166 3.33984C8.77285 3.2501 9.661 3.24998 10.7484 3.25H13.2513ZM20.0726 10.75C19.5271 10.7502 19.1052 11.0544 18.9584 11.416L18.7504 11.9287V12H18.7211L17.9574 13.8818C17.9452 13.9122 17.9326 13.943 17.9203 13.9736C17.7662 14.3567 17.6059 14.7542 17.2894 15.04C17.1226 15.1907 16.9306 15.3104 16.724 15.3955C16.3442 15.5521 15.9135 15.5507 15.4525 15.5498H8.31384C8.07495 15.5501 7.85469 15.5508 7.64783 15.5088C7.17281 15.4123 6.73673 15.1485 6.44861 14.748C6.32185 14.5719 6.2388 14.3672 6.15955 14.1709C6.15296 14.1546 6.14657 14.1383 6.14001 14.1221L5.27869 12H5.25037V11.9287L5.04236 11.416C4.89557 11.0544 4.47275 10.7501 3.92712 10.75C3.00693 10.75 2.61346 11.4933 2.8031 12.002L4.10583 15.4951C4.12621 15.5498 4.13366 15.5688 4.14001 15.585C4.51115 16.5301 5.53923 17.2326 6.77576 17.25H16.5336C17.1735 17.25 17.4191 17.2485 17.6312 17.2188C18.5513 17.0893 19.3132 16.5807 19.7103 15.8955C19.7997 15.7411 19.873 15.5511 20.0775 15.0029L21.1967 12.002C21.3863 11.4933 20.9929 10.75 20.0726 10.75ZM10.8002 4.75C9.64883 4.75 8.85686 4.75104 8.26208 4.82715C7.68525 4.90101 7.40782 5.03409 7.22009 5.21289C7.03763 5.38674 6.90559 5.63594 6.83044 6.16797C6.7517 6.72579 6.75037 7.47164 6.75037 8.57129V11.6357L7.52966 13.5576C7.58196 13.6864 7.61269 13.761 7.63806 13.8164C7.65572 13.8548 7.6645 13.8692 7.66638 13.8721C7.7165 13.9418 7.81173 14.0107 7.94666 14.0381C7.98551 14.046 8.04165 14.0498 8.36755 14.0498H15.347C15.9839 14.0498 16.0855 14.0365 16.1527 14.0088C16.2059 13.9869 16.2502 13.9579 16.2845 13.9268C16.287 13.9246 16.3089 13.9048 16.3529 13.8184C16.4064 13.7135 16.4652 13.5688 16.5668 13.3184L17.2504 11.6357V8.57129C17.2504 7.47164 17.248 6.72579 17.1693 6.16797C17.0941 5.63588 16.9622 5.38675 16.7797 5.21289C16.592 5.0341 16.3145 4.90101 15.7377 4.82715C15.1429 4.75106 14.3508 4.75 13.1996 4.75H10.8002Z" fill="#1C274C"/>
</svg>
