<svg width="24" height="24" viewBox="0 0 24 24" fill="none" xmlns="http://www.w3.org/2000/svg">
<path fill-rule="evenodd" clip-rule="evenodd" d="M1.46879 6.47071C1.76108 6.17733 2.23587 6.17651 2.52934 6.46876L6.44829 10.3711C6.96183 10.8826 7.29498 11.212 7.57231 11.4229C7.83203 11.6202 7.95368 11.6425 8.03422 11.6426C8.11479 11.6427 8.23689 11.6204 8.49712 11.4229C8.77464 11.2123 9.10809 10.8832 9.62212 10.3721L9.89653 10.0996C10.3653 9.63341 10.7688 9.23071 11.1358 8.95215C11.5292 8.65356 11.9667 8.4278 12.5049 8.42774C13.0431 8.42768 13.4807 8.65363 13.8741 8.95215C14.2411 9.23063 14.6454 9.63255 15.1143 10.0986L21.25 16.1973V12.4541C21.25 12.0399 21.5858 11.7041 22 11.7041C22.4142 11.7042 22.75 12.0399 22.75 12.4541V18C22.75 18.4141 22.4142 18.7499 22 18.75H16.418C16.0038 18.75 15.6681 18.4142 15.668 18C15.668 17.5858 16.0038 17.25 16.418 17.25H20.1817L14.0918 11.1973C13.5782 10.6868 13.245 10.3579 12.9678 10.1475C12.7077 9.95023 12.5855 9.92773 12.5049 9.92774C12.4244 9.92779 12.3028 9.95035 12.043 10.1475C11.7657 10.358 11.4326 10.6866 10.919 11.1973L10.6446 11.4707C10.1754 11.9372 9.77059 12.3395 9.40337 12.6182C9.00981 12.9168 8.57251 13.1427 8.03422 13.1426C7.49563 13.1424 7.05761 12.9163 6.66411 12.6172C6.29703 12.3382 5.89276 11.9357 5.42387 11.4688C5.41235 11.4572 5.40131 11.4451 5.38969 11.4336L1.47075 7.53126C1.17729 7.23897 1.17653 6.76421 1.46879 6.47071Z" fill="#1C274C"/>
</svg>
