<svg width="24" height="24" viewBox="0 0 24 24" fill="none" xmlns="http://www.w3.org/2000/svg">
<path d="M9.99988 12.25C12.3132 12.25 14.4449 12.7757 16.0243 13.6641C17.5803 14.5393 18.7499 15.8661 18.7499 17.5V17.6016C18.751 18.7634 18.7525 20.2221 17.4735 21.2637C16.844 21.7762 15.963 22.141 14.7733 22.3818C13.5803 22.6233 12.0254 22.75 9.99988 22.75C7.97432 22.75 6.41943 22.6233 5.22644 22.3818C4.0367 22.141 3.15572 21.7763 2.52625 21.2637C1.24726 20.2221 1.24875 18.7633 1.24988 17.6016V17.5C1.24988 15.8661 2.41949 14.5393 3.97546 13.6641C5.5549 12.7756 7.68645 12.25 9.99988 12.25ZM9.99988 13.75C7.89519 13.75 6.02675 14.2315 4.71082 14.9717C3.37135 15.7252 2.74988 16.6487 2.74988 17.5C2.74988 18.8078 2.79023 19.5442 3.47351 20.1006C3.844 20.4023 4.46338 20.6966 5.52332 20.9111C6.58025 21.125 8.02569 21.25 9.99988 21.25C11.9741 21.25 13.4195 21.125 14.4764 20.9111C15.5364 20.6966 16.1558 20.4023 16.5262 20.1006C17.2095 19.5442 17.2499 18.8078 17.2499 17.5C17.2499 16.6487 16.6283 15.7252 15.2889 14.9717C13.9729 14.2315 12.1045 13.75 9.99988 13.75ZM9.99988 1.25C12.6232 1.25 14.7499 3.37665 14.7499 6C14.7499 8.62336 12.6232 10.75 9.99988 10.75C7.37655 10.75 5.24988 8.62334 5.24988 6C5.24988 3.37667 7.37655 1.25004 9.99988 1.25ZM18.3573 1.61426C18.5705 1.25924 19.0305 1.14435 19.3856 1.35742H19.3876L19.3885 1.3584L19.3925 1.36133L19.4022 1.36719C19.4096 1.37174 19.4187 1.37774 19.4296 1.38477C19.4515 1.39893 19.4805 1.41793 19.5155 1.44238C19.5858 1.4916 19.6815 1.56251 19.7928 1.65527C20.0149 1.84036 20.3054 2.11724 20.5946 2.49316C21.1773 3.25089 21.7499 4.40762 21.7499 6C21.7499 7.59266 21.1774 8.75007 20.5946 9.50781C20.3055 9.88359 20.0149 10.1597 19.7928 10.3447C19.6815 10.4375 19.5858 10.5084 19.5155 10.5576C19.4805 10.582 19.4515 10.6011 19.4296 10.6152C19.4186 10.6224 19.4096 10.6292 19.4022 10.6338L19.3925 10.6396L19.3885 10.6416L19.3876 10.6426C19.3872 10.6428 19.3858 10.6431 18.9999 10L19.3856 10.6436C19.0305 10.8564 18.5703 10.7408 18.3573 10.3857C18.1451 10.0321 18.2577 9.57367 18.6093 9.35938L18.6151 9.35645C18.6224 9.35174 18.6366 9.34275 18.6561 9.3291C18.6952 9.30177 18.7558 9.2558 18.8319 9.19238C18.9848 9.06499 19.1945 8.86668 19.4052 8.59277C19.8224 8.05051 20.2499 7.20735 20.2499 6C20.2499 4.79272 19.8223 3.94947 19.4052 3.40723C19.1945 3.1334 18.9848 2.93499 18.8319 2.80762C18.7561 2.74443 18.6952 2.69922 18.6561 2.67188L18.6093 2.64062C18.2577 2.42629 18.1451 1.96787 18.3573 1.61426ZM9.99988 2.75C8.20498 2.75004 6.74988 4.2051 6.74988 6C6.74988 7.79491 8.20498 9.24996 9.99988 9.25C11.7948 9.25 13.2499 7.79493 13.2499 6C13.2499 4.20508 11.7948 2.75 9.99988 2.75ZM16.3573 3.61426C16.5705 3.25923 17.0305 3.14435 17.3856 3.35742L16.9999 4C17.3857 3.35694 17.3873 3.35722 17.3876 3.35742L17.3885 3.3584L17.3915 3.36035L17.3993 3.36523L17.4188 3.37695C17.4335 3.38645 17.4519 3.39903 17.4735 3.41406C17.5164 3.44413 17.5723 3.48646 17.6366 3.54004C17.7648 3.64699 17.9305 3.80428 18.0946 4.01758C18.4274 4.4503 18.7499 5.10741 18.7499 6C18.7499 6.89261 18.4274 7.54968 18.0946 7.98242C17.9303 8.19595 17.7649 8.35398 17.6366 8.46094C17.5724 8.51449 17.5164 8.55588 17.4735 8.58594C17.452 8.60094 17.4335 8.61357 17.4188 8.62305L17.3993 8.63477L17.3915 8.63965L17.3885 8.6416L17.3876 8.64258L17.3856 8.64355C17.0305 8.85642 16.5703 8.7408 16.3573 8.38574C16.146 8.03357 16.2572 7.57775 16.6053 7.3623L16.6132 7.35742C16.6248 7.34923 16.6466 7.3328 16.6757 7.30859C16.7349 7.25931 16.8195 7.17883 16.9052 7.06738C17.0723 6.85011 17.2499 6.50723 17.2499 6C17.2499 5.49272 17.0723 5.14986 16.9052 4.93262C16.8195 4.82118 16.7349 4.74167 16.6757 4.69238C16.6464 4.66795 16.6249 4.65078 16.6132 4.64258L16.6053 4.6377L16.3573 3.61426Z" fill="#1C274C"/>
</svg>
