<svg width="24" height="24" viewBox="0 0 24 24" fill="none" xmlns="http://www.w3.org/2000/svg">
<path d="M10 12.25C12.3133 12.25 14.4451 12.7757 16.0244 13.6641C17.5804 14.5393 18.75 15.8661 18.75 17.5V17.6016C18.7511 18.7634 18.7526 20.2221 17.4736 21.2637C16.8442 21.7762 15.9639 22.1411 14.7744 22.3818C13.5813 22.6233 12.0258 22.75 10 22.75C7.97444 22.75 6.41954 22.6233 5.22656 22.3818C4.03682 22.141 3.15584 21.7763 2.52637 21.2637C1.24745 20.2221 1.24887 18.7633 1.25 17.6016V17.5C1.25 15.8661 2.41962 14.5393 3.97559 13.6641C5.555 12.7756 7.68657 12.25 10 12.25ZM10 13.75C7.89535 13.75 6.02684 14.2315 4.71094 14.9717C3.37152 15.7252 2.75 16.6487 2.75 17.5C2.75 18.8078 2.79036 19.5442 3.47363 20.1006C3.84416 20.4024 4.46414 20.6965 5.52441 20.9111C6.58129 21.125 8.02611 21.25 10 21.25C11.9742 21.25 13.4197 21.125 14.4766 20.9111C15.5365 20.6966 16.1559 20.4023 16.5264 20.1006C17.2097 19.5442 17.25 18.8078 17.25 17.5C17.25 16.6487 16.6285 15.7252 15.2891 14.9717C13.9731 14.2316 12.1046 13.75 10 13.75ZM10 1.25C12.6233 1.25 14.75 3.37665 14.75 6C14.75 8.62336 12.6233 10.75 10 10.75C7.37667 10.75 5.25 8.62334 5.25 6C5.25 3.37667 7.37667 1.25004 10 1.25ZM18.3574 1.61426C18.5706 1.25921 19.0306 1.14438 19.3857 1.35742H19.3877L19.3887 1.3584L19.3926 1.36133L19.4023 1.36719C19.4097 1.37175 19.4188 1.37771 19.4297 1.38477C19.4517 1.399 19.4814 1.41776 19.5166 1.44238C19.5869 1.4916 19.6817 1.56257 19.793 1.65527C20.015 1.84036 20.3055 2.1172 20.5947 2.49316C21.1774 3.25089 21.75 4.40758 21.75 6C21.75 7.59266 21.1775 8.75007 20.5947 9.50781C20.3056 9.8836 20.015 10.1597 19.793 10.3447C19.6818 10.4374 19.5869 10.5084 19.5166 10.5576C19.4814 10.5822 19.4517 10.601 19.4297 10.6152C19.4187 10.6224 19.4097 10.6292 19.4023 10.6338L19.3926 10.6396L19.3887 10.6416L19.3877 10.6426C19.3873 10.6428 19.3859 10.6431 19 10L19.3857 10.6436C19.0306 10.8563 18.5704 10.7408 18.3574 10.3857C18.1453 10.0321 18.2579 9.57368 18.6094 9.35938L18.6152 9.35645C18.6225 9.35174 18.6368 9.34275 18.6562 9.3291C18.6954 9.30176 18.7568 9.25587 18.833 9.19238C18.9858 9.06498 19.1948 8.86639 19.4053 8.59277C19.8225 8.05051 20.25 7.20735 20.25 6C20.25 4.79272 19.8225 3.94947 19.4053 3.40723C19.1948 3.13361 18.9858 2.93499 18.833 2.80762C18.757 2.7443 18.6954 2.69924 18.6562 2.67188L18.6094 2.64062C18.2579 2.42626 18.1453 1.96784 18.3574 1.61426ZM10 2.75C8.2051 2.75004 6.75 4.2051 6.75 6C6.75 7.79491 8.2051 9.24996 10 9.25C11.7949 9.25 13.25 7.79493 13.25 6C13.25 4.20508 11.7949 2.75 10 2.75ZM16.3574 3.61426C16.5705 3.25921 17.0306 3.14438 17.3857 3.35742L17 4C17.3859 3.35689 17.3874 3.35722 17.3877 3.35742L17.3887 3.3584L17.3916 3.36035L17.3994 3.36523L17.4189 3.37695C17.4336 3.38645 17.452 3.399 17.4736 3.41406C17.5165 3.44413 17.5724 3.48642 17.6367 3.54004C17.7649 3.64698 17.9306 3.80427 18.0947 4.01758C18.4275 4.4503 18.75 5.10741 18.75 6C18.75 6.89265 18.4275 7.54968 18.0947 7.98242C17.9304 8.19596 17.765 8.35398 17.6367 8.46094C17.5725 8.5145 17.5165 8.55588 17.4736 8.58594C17.4521 8.60097 17.4336 8.61356 17.4189 8.62305L17.3994 8.63477L17.3916 8.63965L17.3887 8.6416L17.3877 8.64258L17.3857 8.64355C17.0306 8.85635 16.5704 8.74079 16.3574 8.38574C16.1461 8.03358 16.2574 7.57775 16.6055 7.3623L16.6133 7.35742C16.625 7.34922 16.6475 7.33302 16.6768 7.30859C16.736 7.2593 16.8196 7.17874 16.9053 7.06738C17.0725 6.85012 17.25 6.50728 17.25 6C17.25 5.49272 17.0725 5.14986 16.9053 4.93262C16.8198 4.82153 16.7359 4.7417 16.6768 4.69238C16.6475 4.66795 16.625 4.65078 16.6133 4.64258L16.6055 4.6377L16.3574 3.61426Z" fill="#48465C"/>
</svg>
