<svg width="24" height="24" viewBox="0 0 24 24" fill="none" xmlns="http://www.w3.org/2000/svg">
<path d="M4.73828 13.2344C5.43221 12.5025 6.56779 12.5025 7.26172 13.2344C8.43393 14.4713 9.99977 16.3932 10 17.833C10 20.1342 8.20914 22 6 22C3.79086 22 2 20.1342 2 17.833C2.00023 16.3932 3.56607 14.4713 4.73828 13.2344ZM16.7383 13.2344C17.4322 12.5025 18.5678 12.5025 19.2617 13.2344C20.4339 14.4713 21.9998 16.3932 22 17.833C22 20.1342 20.2091 22 18 22C15.7909 22 14 20.1342 14 17.833C14.0002 16.3932 15.5661 14.4713 16.7383 13.2344ZM10.7383 3.23438C11.4322 2.50252 12.5678 2.50252 13.2617 3.23438C14.4339 4.47121 15.9998 6.39322 16 7.83301C16 10.1342 14.2091 12 12 12C9.79086 12 8 10.1342 8 7.83301C8.00022 6.39322 9.56609 4.47121 10.7383 3.23438Z" fill="#48465C"/>
</svg>
