<svg width="24" height="24" viewBox="0 0 24 24" fill="none" xmlns="http://www.w3.org/2000/svg">
<path d="M11.2336 3.65332C13.992 0.895303 18.4786 0.320402 21.0793 2.9209C23.6799 5.52152 23.1041 10.0084 20.3459 12.7666C18.4981 14.614 15.5115 15.8779 12.9621 15.7871C12.7384 15.7791 12.515 15.7607 12.2951 15.7305L6.85953 21.166C5.74778 22.2776 3.94587 22.2776 2.83414 21.166C1.72239 20.0543 1.72244 18.2523 2.83414 17.1406L8.26871 11.7051C8.23858 11.4854 8.22009 11.2626 8.21207 11.0391C8.12065 8.48929 9.38559 5.50125 11.2336 3.65332ZM21.1261 6.04785C20.9998 6.31552 20.8553 6.58349 20.7003 6.84473C19.9243 8.15221 18.7729 9.50949 17.8586 10.4238C16.9454 11.3369 15.3953 12.6814 13.9025 13.6523C13.5514 13.8806 13.1934 14.0944 12.84 14.2793C12.8976 14.2832 12.9558 14.286 13.0148 14.2881C15.1119 14.363 17.7054 13.2857 19.2853 11.7061C20.926 10.0654 21.5324 7.8593 21.1261 6.04785ZM20.0177 3.98145C19.972 3.93606 19.8391 3.84716 19.4318 3.93066C19.0285 4.01333 18.5108 4.24033 17.922 4.58984C16.7535 5.28356 15.494 6.34699 14.6378 7.20312C13.7804 8.06053 12.5071 9.53004 11.6056 10.916C11.1515 11.614 10.8202 12.247 10.6681 12.7451C10.5923 12.9933 10.574 13.168 10.5822 13.2783C10.586 13.3298 10.5954 13.3582 10.6007 13.3711C10.6053 13.3821 10.6088 13.3859 10.6115 13.3887C10.6141 13.3913 10.6176 13.395 10.6281 13.3994C10.641 13.4047 10.67 13.4132 10.7218 13.417C10.8322 13.4252 11.0068 13.4068 11.255 13.3311C11.7532 13.1789 12.3862 12.8483 13.0841 12.3945C14.4702 11.4931 15.9406 10.2206 16.798 9.36328C17.6541 8.50725 18.7166 7.24769 19.4103 6.0791C19.7599 5.49008 19.9869 4.97168 20.0695 4.56836C20.1533 4.15962 20.063 4.02673 20.0177 3.98145ZM17.9523 2.87402C16.1408 2.4676 13.9349 3.07327 12.2941 4.71387C10.714 6.29395 9.63589 8.88801 9.71109 10.9854C9.71321 11.0444 9.71597 11.1034 9.71988 11.1611C9.90486 10.8075 10.1193 10.4489 10.3478 10.0977C11.3187 8.60521 12.6632 7.05571 13.5763 6.14258C14.4907 5.22831 15.848 4.07598 17.1554 3.2998C17.4166 3.14468 17.6846 3.00032 17.9523 2.87402Z" fill="#1C274C"/>
</svg>
