<svg width="24" height="24" viewBox="0 0 24 24" fill="none" xmlns="http://www.w3.org/2000/svg">
<path d="M11.2336 3.65332C13.9921 0.895303 18.4787 0.320402 21.0793 2.9209C23.68 5.52152 23.1042 10.0084 20.3459 12.7666C18.4982 14.614 15.5116 15.8779 12.9622 15.7871C12.7385 15.7791 12.5151 15.7607 12.2952 15.7305L6.85962 21.166C5.74787 22.2776 3.94596 22.2776 2.83423 21.166C1.72248 20.0543 1.72253 18.2523 2.83423 17.1406L8.2688 11.7051C8.23867 11.4854 8.22018 11.2626 8.21216 11.0391C8.12074 8.48929 9.38568 5.50125 11.2336 3.65332ZM21.1262 6.04785C20.9999 6.31552 20.8554 6.58349 20.7004 6.84473C19.9244 8.15221 18.773 9.50949 17.8586 10.4238C16.9454 11.3369 15.3954 12.6814 13.9026 13.6523C13.5515 13.8806 13.1935 14.0944 12.8401 14.2793C12.8977 14.2832 12.9559 14.286 13.0149 14.2881C15.112 14.363 17.7055 13.2857 19.2854 11.7061C20.9261 10.0654 21.5325 7.8593 21.1262 6.04785ZM20.0178 3.98145C19.9721 3.93606 19.8392 3.84716 19.4319 3.93066C19.0286 4.01333 18.5109 4.24033 17.9221 4.58984C16.7536 5.28356 15.4941 6.34699 14.6379 7.20312C13.7805 8.06052 12.5072 9.53004 11.6057 10.916C11.1516 11.614 10.8203 12.247 10.6682 12.7451C10.5924 12.9933 10.5741 13.168 10.5823 13.2783C10.5861 13.3298 10.5955 13.3582 10.6008 13.3711C10.6054 13.3821 10.6089 13.3859 10.6116 13.3887C10.6142 13.3913 10.6177 13.395 10.6282 13.3994C10.6411 13.4047 10.6701 13.4132 10.7219 13.417C10.8323 13.4252 11.0069 13.4068 11.2551 13.3311C11.7533 13.1789 12.3863 12.8483 13.0842 12.3945C14.4703 11.4931 15.9407 10.2206 16.7981 9.36328C17.6542 8.50725 18.7167 7.24769 19.4104 6.0791C19.76 5.49008 19.987 4.97168 20.0696 4.56836C20.1534 4.15962 20.0631 4.02673 20.0178 3.98145ZM17.9524 2.87402C16.1409 2.4676 13.935 3.07327 12.2942 4.71387C10.7141 6.29395 9.63598 8.88801 9.71118 10.9854C9.7133 11.0444 9.71606 11.1034 9.71997 11.1611C9.90495 10.8075 10.1194 10.4489 10.3479 10.0977C11.3188 8.60521 12.6633 7.05571 13.5764 6.14258C14.4908 5.22831 15.8481 4.07598 17.1555 3.2998C17.4167 3.14468 17.6847 3.00032 17.9524 2.87402Z" fill="#48465C"/>
</svg>
