<svg width="24" height="24" viewBox="0 0 24 24" fill="none" xmlns="http://www.w3.org/2000/svg">
<path d="M14 3C17.7712 3 19.6566 3.00031 20.8281 4.17188C21.7772 5.12091 21.9579 6.86653 21.9922 9.5C22.0044 10.4364 22.0101 10.9047 21.7168 11.2021C21.4231 11.4996 20.9486 11.5 20 11.5H17.5C14.6716 11.5 13.2576 11.5002 12.3789 12.3789C11.5002 13.2576 11.5 14.6716 11.5 17.5V19.5C11.5 19.9659 11.4999 20.199 11.4238 20.3828C11.3223 20.6277 11.1277 20.8223 10.8828 20.9238C10.699 20.9999 10.4659 21 10 21C6.22878 21 4.34346 20.9997 3.17188 19.8281C2.00031 18.6566 2 16.7712 2 13V11C2 7.22876 2.00031 5.34345 3.17188 4.17188C4.34345 3.00031 6.22876 3 10 3H14ZM18 13C19.8856 13 20.8283 13.0001 21.4141 13.5859C21.9999 14.1717 22 15.1144 22 17C22 18.8856 21.9999 19.8283 21.4141 20.4141C20.8283 20.9999 19.8856 21 18 21H17C15.1144 21 14.1717 20.9999 13.5859 20.4141C13.0001 19.8283 13 18.8856 13 17C13 15.1144 13.0001 14.1717 13.5859 13.5859C14.1717 13.0001 15.1144 13 17 13H18ZM8.03027 6.96973C7.73738 6.67684 7.26262 6.67684 6.96973 6.96973C6.67684 7.26262 6.67684 7.73738 6.96973 8.03027L9.68945 10.75H8.5C8.08579 10.75 7.75 11.0858 7.75 11.5C7.75 11.9142 8.08579 12.25 8.5 12.25H11.5C11.9142 12.25 12.25 11.9142 12.25 11.5V8.5C12.25 8.08579 11.9142 7.75 11.5 7.75C11.0858 7.75 10.75 8.08579 10.75 8.5V9.68945L8.03027 6.96973Z" fill="#1C274C"/>
</svg>
