<svg width="24" height="24" viewBox="0 0 24 24" fill="none" xmlns="http://www.w3.org/2000/svg">
<path d="M12 2C16.714 2 19.0708 2.00037 20.5352 3.46484C21.9996 4.9293 22 7.28597 22 12C22 16.714 21.9997 19.0708 20.5352 20.5352C19.0708 21.9997 16.714 22 12 22C7.28597 22 4.9293 21.9996 3.46484 20.5352C2.00037 19.0708 2 16.714 2 12C2 7.28595 2.00037 4.9293 3.46484 3.46484C4.9293 2.00037 7.28595 2 12 2ZM13.4883 6.44629C13.0882 6.33908 12.6765 6.57646 12.5693 6.97656L9.98145 16.6357C9.87438 17.0358 10.1117 17.4465 10.5117 17.5537C10.9118 17.6609 11.3234 17.4235 11.4307 17.0234L14.0186 7.36426C14.1257 6.96433 13.8881 6.55357 13.4883 6.44629Z" fill="#1C274C"/>
</svg>
