<svg width="24" height="24" viewBox="0 0 24 24" fill="none" xmlns="http://www.w3.org/2000/svg">
<path d="M5.5374 4.93655C6.93022 3.54375 9.1528 3.73116 10.0374 5.31546L10.6868 6.47854C11.2725 7.52798 11.037 8.90471 10.1146 9.82718C10.1146 9.82718 8.99599 10.9468 11.0247 12.9756C13.0532 15.0039 14.1722 13.8848 14.1722 13.8848C15.0947 12.9624 16.4713 12.7278 17.5208 13.3135L18.6839 13.9619C20.2687 14.8463 20.4557 17.0689 19.0628 18.4619C18.2258 19.2989 17.2002 19.9503 16.0667 19.9932C14.1586 20.0655 10.9178 19.5825 7.66729 16.3321C4.41691 13.0815 3.93381 9.84073 4.00615 7.93264C4.04919 6.79923 4.70044 5.7735 5.5374 4.93655ZM18.47 4.46975C18.7629 4.17687 19.2377 4.17687 19.5306 4.46975C19.8232 4.76266 19.8234 5.2375 19.5306 5.5303L16.8108 8.25003H18.0003C18.4144 8.25018 18.7503 8.58591 18.7503 9.00003C18.7502 9.41403 18.4143 9.74987 18.0003 9.75003H15.0003C14.5862 9.75003 14.2504 9.41412 14.2503 9.00003V6.00003C14.2503 5.58581 14.5861 5.25003 15.0003 5.25003C15.4144 5.25018 15.7503 5.58591 15.7503 6.00003V7.18948L18.47 4.46975Z" fill="#1C274C"/>
</svg>
