<svg width="24" height="24" viewBox="0 0 24 24" fill="none" xmlns="http://www.w3.org/2000/svg">
<path d="M12.0004 2.25C14.0713 2.2502 15.7504 3.92905 15.7504 6V7.01367C17.0474 7.04998 17.8378 7.18371 18.4427 7.67969C19.2722 8.35966 19.5026 9.51444 19.9642 11.8232L20.5648 14.8232C21.2289 18.1436 21.5607 19.8042 20.6605 20.9023C19.7603 22.0001 18.0669 22 14.681 22H9.31873C5.93274 22 4.23944 22.0002 3.33923 20.9023C2.43906 19.8042 2.77085 18.1436 3.43494 14.8232L4.03552 11.8232C4.49727 9.5145 4.72767 8.35967 5.55701 7.67969C6.1621 7.18364 6.95298 7.04996 8.25037 7.01367V6C8.25037 3.92893 9.9293 2.25 12.0004 2.25ZM15.0795 15.293C14.689 15.1549 14.2606 15.3595 14.1224 15.75C13.8132 16.6249 12.9789 17.25 12.0004 17.25C11.0219 17.25 10.1875 16.6249 9.8783 15.75C9.74025 15.3595 9.31175 15.1549 8.92126 15.293C8.53072 15.431 8.3262 15.8595 8.46423 16.25C8.97872 17.7054 10.3664 18.75 12.0004 18.75C13.6342 18.75 15.022 17.7054 15.5365 16.25C15.6745 15.8595 15.47 15.431 15.0795 15.293ZM12.0004 3.75C10.7578 3.75 9.75037 4.75736 9.75037 6V7H14.2504V6C14.2504 4.75748 13.2428 3.7502 12.0004 3.75Z" fill="#48465C"/>
</svg>
