<svg width="24" height="24" viewBox="0 0 24 24" fill="none" xmlns="http://www.w3.org/2000/svg">
<path d="M11.7043 1.34497C12.3327 1.19852 12.9728 1.23333 13.7063 1.3645C14.4234 1.49275 15.2946 1.72622 16.3938 2.02075L16.4602 2.03931C17.5596 2.33388 18.4313 2.56716 19.1165 2.8147C19.8172 3.06785 20.3888 3.35721 20.8596 3.7981C21.5452 4.44031 22.0252 5.27185 22.2385 6.18677C22.385 6.81503 22.3502 7.45516 22.219 8.18872C22.0907 8.90588 21.8573 9.777 21.5627 10.8762L21.0266 12.8743C20.7321 13.9736 20.4987 14.8452 20.2512 15.5305C19.9981 16.2312 19.7087 16.8029 19.2678 17.2737C18.646 17.9375 17.8467 18.4082 16.9661 18.6311C16.7089 19.2208 16.3335 19.7556 15.8596 20.1995C15.3888 20.6403 14.8172 20.9296 14.1165 21.1829C13.4313 21.4304 12.5595 21.6637 11.4602 21.9583L11.3938 21.9768C10.2946 22.2714 9.42346 22.5048 8.7063 22.6331C7.97273 22.7642 7.3326 22.799 6.70435 22.6526C5.78943 22.4393 4.95788 21.9593 4.31567 21.2737C3.87477 20.8029 3.58543 20.2312 3.33228 19.5305C3.08475 18.8452 2.85144 17.9736 2.55688 16.8743L2.02075 14.8762C1.72617 13.7768 1.49275 12.9049 1.3645 12.1877C1.23341 11.4545 1.19863 10.8148 1.34497 10.1868C1.55829 9.27191 2.03826 8.44029 2.72388 7.7981C3.1947 7.35712 3.76621 7.06691 4.46704 6.81372C5.15229 6.56618 6.02392 6.3329 7.12329 6.03833L7.15649 6.02954C7.42096 5.95867 7.67154 5.89194 7.90845 5.82935C8.30004 4.43029 8.64409 3.44095 9.31567 2.72388C9.95788 2.0382 10.7894 1.5583 11.7043 1.34497ZM7.45532 7.50317C6.36244 7.79608 5.57866 8.00744 4.97681 8.22485C4.36752 8.44497 4.00964 8.64896 3.74927 8.89282C3.28022 9.33216 2.95189 9.90077 2.80591 10.5266C2.72489 10.8741 2.72703 11.2862 2.84106 11.9241C2.95677 12.571 3.17331 13.3808 3.47876 14.5208L3.99634 16.4524C4.3018 17.5924 4.51911 18.4026 4.74243 19.0208C4.96253 19.6301 5.16657 19.9879 5.4104 20.2483C5.84981 20.7174 6.41918 21.0457 7.04517 21.1917C7.39248 21.2726 7.80423 21.2705 8.44165 21.1565C9.08861 21.0408 9.89861 20.8242 11.0383 20.5188C12.1783 20.2133 12.9885 19.996 13.6067 19.7727C14.2159 19.5526 14.5738 19.3486 14.8342 19.1047C14.9717 18.9759 15.097 18.8358 15.2092 18.6868C15.0303 18.6615 14.846 18.629 14.6555 18.5911C13.9838 18.4575 13.1769 18.2408 12.1809 17.9739L12.1233 17.9592C11.0239 17.6646 10.1523 17.4313 9.46704 17.1838C8.76621 16.9306 8.19471 16.6404 7.72388 16.1995C7.03827 15.5573 6.55829 14.7256 6.34497 13.8108C6.19862 13.1828 6.23342 12.5432 6.3645 11.8098C6.49276 11.0926 6.72617 10.2207 7.02075 9.12134L7.45532 7.50317ZM13.4417 2.84106C12.8041 2.72711 12.3924 2.72497 12.0452 2.80591C11.4192 2.95187 10.8498 3.28012 10.4104 3.74927C9.97437 4.21488 9.70614 4.93442 9.2395 6.64282C9.16364 6.92052 9.08334 7.22052 8.99634 7.54517L8.47876 9.47681C8.17332 10.6167 7.95677 11.4264 7.84106 12.0735C7.72702 12.7113 7.72489 13.1235 7.80591 13.4709C7.9519 14.0968 8.28023 14.6654 8.74927 15.1047C9.00964 15.3486 9.36752 15.5525 9.97681 15.7727C10.595 15.996 11.4052 16.2134 12.5452 16.5188C13.5704 16.7936 14.3307 16.9965 14.9485 17.1194C15.5636 17.2416 15.9813 17.272 16.3235 17.2297C16.3976 17.2207 16.4688 17.2079 16.5383 17.1917C17.1643 17.0457 17.7337 16.7174 18.1731 16.2483C18.4169 15.9879 18.621 15.6301 18.8411 15.0208C19.0644 14.4026 19.2817 13.5932 19.5872 12.4534L20.1047 10.5208C20.4102 9.38097 20.6267 8.57104 20.7424 7.92407C20.8564 7.28661 20.8585 6.87492 20.7776 6.52759C20.6316 5.90159 20.3033 5.33222 19.8342 4.89282C19.5738 4.64899 19.2159 4.44495 18.6067 4.22485C17.9885 4.00153 17.1783 3.78422 16.0383 3.47876C14.8986 3.17336 14.0887 2.95676 13.4417 2.84106ZM10.2756 12.7034C10.383 12.3035 10.7937 12.0661 11.1936 12.1731L14.092 12.9495C14.492 13.0567 14.7295 13.4684 14.6223 13.8684C14.5151 14.2684 14.1034 14.5059 13.7034 14.3987L10.8059 13.6223C10.4058 13.5151 10.1684 13.1035 10.2756 12.7034ZM11.052 9.80591C11.1592 9.40581 11.5708 9.16842 11.9709 9.27563L16.8 10.5696C17.2001 10.6768 17.4375 11.0884 17.3303 11.4885C17.2229 11.8883 16.8122 12.1258 16.4124 12.0188L11.5823 10.7239C11.1825 10.6165 10.945 10.2058 11.052 9.80591Z" fill="#48465C"/>
</svg>
