<svg width="24" height="24" viewBox="0 0 24 24" fill="none" xmlns="http://www.w3.org/2000/svg">
<path d="M12 1.25C13.2588 1.25 14.32 2.09575 14.6465 3.25H15.0518C15.9503 3.24997 16.7001 3.25011 17.2949 3.33008C17.9225 3.41452 18.489 3.6003 18.9443 4.05566C19.3997 4.51102 19.5855 5.07748 19.6699 5.70508C19.7499 6.29986 19.75 7.04978 19.75 7.94824V15.8828C19.75 16.8536 19.3424 17.7801 18.627 18.4365C16.9499 19.9753 14.8713 20.8263 12.75 20.9883V22C12.75 22.4142 12.4142 22.75 12 22.75C11.5858 22.75 11.25 22.4142 11.25 22V20.9883C9.12872 20.8263 7.05008 19.9753 5.37305 18.4365C4.6577 17.7801 4.25 16.8536 4.25 15.8828V7.94824C4.24997 7.04977 4.25012 6.29985 4.33008 5.70508C4.41452 5.07747 4.60031 4.51102 5.05566 4.05566C5.51102 3.6003 6.07747 3.41452 6.70508 3.33008C7.29986 3.25011 8.04976 3.24997 8.94824 3.25H9.35352C9.67998 2.09575 10.7412 1.25 12 1.25ZM9 4.75C8.03599 4.75 7.3883 4.75146 6.90527 4.81641C6.44388 4.87845 6.24652 4.9859 6.11621 5.11621C5.9859 5.24651 5.87845 5.44388 5.81641 5.90527C5.75147 6.38831 5.75 7.03599 5.75 8V15.8828C5.75 16.4333 5.98111 16.9588 6.38672 17.3311C9.56184 20.2445 14.4382 20.2445 17.6133 17.3311C18.0189 16.9588 18.25 16.4333 18.25 15.8828V14.75H17C16.5858 14.75 16.25 14.4142 16.25 14C16.25 13.5858 16.5858 13.25 17 13.25H18.25V11.75H17C16.5858 11.75 16.25 11.4142 16.25 11C16.25 10.5858 16.5858 10.25 17 10.25H18.25V8.75H17C16.5858 8.75 16.25 8.41421 16.25 8C16.25 7.58579 16.5858 7.25 17 7.25H18.2451C18.2409 6.68057 18.23 6.25077 18.1836 5.90527C18.1215 5.44389 18.0141 5.24651 17.8838 5.11621C17.7535 4.98591 17.5561 4.87845 17.0947 4.81641C16.6117 4.75146 15.964 4.75 15 4.75H9ZM10.8252 9.10156C11.468 8.42351 12.532 8.42351 13.1748 9.10156C13.4824 9.42603 13.8581 9.85645 14.1611 10.3154C14.4455 10.7463 14.75 11.3246 14.75 11.917C14.7498 13.4525 13.5472 14.75 12 14.75C10.4528 14.75 9.25021 13.4525 9.25 11.917C9.25 11.3246 9.55444 10.7463 9.83887 10.3154C10.1419 9.85645 10.5176 9.42603 10.8252 9.10156ZM12 10.0928C11.9734 10.0928 11.9424 10.102 11.9131 10.1328C11.6345 10.4267 11.3257 10.7867 11.0908 11.1426C10.8374 11.5266 10.75 11.7895 10.75 11.917C10.7502 12.6823 11.3383 13.25 12 13.25C12.6617 13.25 13.2498 12.6823 13.25 11.917C13.25 11.7895 13.1626 11.5266 12.9092 11.1426C12.6743 10.7867 12.3655 10.4267 12.0869 10.1328C12.0576 10.102 12.0266 10.0928 12 10.0928ZM12 2.75C11.591 2.75 11.2281 2.94642 11 3.25H13C12.7719 2.94642 12.409 2.75 12 2.75Z" fill="#1C274C"/>
</svg>
