<svg width="24" height="24" viewBox="0 0 24 24" fill="none" xmlns="http://www.w3.org/2000/svg">
<path d="M5.16016 13.75C6.13396 13.75 6.38878 13.7659 6.60254 13.8643C6.8163 13.9626 6.99422 14.1455 7.62793 14.8848L8.32031 15.6934C8.82233 16.2802 9.22032 16.7449 9.77051 16.998C10.3207 17.2511 10.9328 17.2508 11.7051 17.25H12.2949C13.0672 17.2508 13.6793 17.2511 14.2295 16.998C14.7797 16.7449 15.1777 16.2802 15.6797 15.6934L16.3721 14.8848C17.0058 14.1455 17.1838 13.9626 17.3975 13.8643C17.6113 13.7659 17.866 13.75 18.8398 13.75H21.9971C21.9749 17.3219 21.806 19.2644 20.5352 20.5352C19.0708 21.9996 16.714 22 12 22C7.28597 22 4.9293 21.9997 3.46484 20.5352C2.19404 19.2644 2.02613 17.3219 2.00391 13.75H5.16016ZM12 2C13.1219 2 14.1108 1.99979 14.9854 2.01953C14.3666 2.85178 14 3.88324 14 5C14 7.76142 16.2386 10 19 10C20.1168 10 21.1482 9.63341 21.9805 9.01465C22.0002 9.88927 22 10.8781 22 12V12.25H18.7051C17.9328 12.2492 17.3207 12.2489 16.7705 12.502C16.2203 12.7551 15.8223 13.2198 15.3203 13.8066L14.6279 14.6152C13.9942 15.3545 13.8162 15.5374 13.6025 15.6357C13.3887 15.7341 13.1339 15.75 12.1602 15.75H11.8398C10.8661 15.75 10.6113 15.7341 10.3975 15.6357C10.1838 15.5374 10.0058 15.3545 9.37207 14.6152L8.67969 13.8066C8.17767 13.2198 7.77968 12.7551 7.22949 12.502C6.6792 12.2489 6.06725 12.2492 5.29492 12.25H2V12C2 7.28595 2.00037 4.9293 3.46484 3.46484C4.9293 2.00037 7.28595 2 12 2ZM19 2C20.6569 2 22 3.34315 22 5C22 6.65685 20.6569 8 19 8C17.3431 8 16 6.65685 16 5C16 3.34315 17.3431 2 19 2Z" fill="#1C274C"/>
</svg>
