<svg width="24" height="24" viewBox="0 0 24 24" fill="none" xmlns="http://www.w3.org/2000/svg">
<path d="M12 1.25C12.4142 1.25 12.75 1.58579 12.75 2V5H16.5C17.4346 5 17.9019 5.00021 18.25 5.20117C18.4779 5.33281 18.6672 5.52203 18.7988 5.75C18.9998 6.09808 19 6.56538 19 7.5C19 8.43462 18.9998 8.90192 18.7988 9.25C18.6672 9.47797 18.4779 9.66719 18.25 9.79883C17.9019 9.99979 17.4346 10 16.5 10H12.75V14H14.5C15.4346 14 15.9019 14.0002 16.25 14.2012C16.4779 14.3328 16.6672 14.5221 16.7988 14.75C16.9998 15.0981 17 15.5654 17 16.5C17 17.4346 16.9998 17.9019 16.7988 18.25C16.6672 18.4779 16.4779 18.6672 16.25 18.7988C15.9019 18.9998 15.4346 19 14.5 19H12.75V22C12.75 22.4142 12.4142 22.75 12 22.75C11.5858 22.75 11.25 22.4142 11.25 22V19H9.5C8.56538 19 8.09808 18.9998 7.75 18.7988C7.52203 18.6672 7.33281 18.4779 7.20117 18.25C7.00021 17.9019 7 17.4346 7 16.5C7 15.5654 7.00021 15.0981 7.20117 14.75C7.33281 14.5221 7.52203 14.3328 7.75 14.2012C8.09808 14.0002 8.56538 14 9.5 14H11.25V10H7.5C6.56538 10 6.09808 9.99979 5.75 9.79883C5.52204 9.6672 5.3328 9.47796 5.20117 9.25C5.00021 8.90192 5 8.43461 5 7.5C5 6.56538 5.00021 6.09807 5.20117 5.75C5.3328 5.52204 5.52204 5.3328 5.75 5.20117C6.09808 5.00021 6.56538 5 7.5 5H11.25V2C11.25 1.58579 11.5858 1.25 12 1.25Z" fill="#1C274C"/>
</svg>
