<svg width="24" height="24" viewBox="0 0 24 24" fill="none" xmlns="http://www.w3.org/2000/svg">
<path d="M17 6.25C20.1756 6.25 22.75 8.82436 22.75 12C22.75 15.1756 20.1756 17.75 17 17.75C15.7063 17.75 14.5108 17.3214 13.5498 16.5996C13.2188 16.3508 13.1518 15.881 13.4004 15.5498C13.6492 15.2188 14.119 15.1518 14.4502 15.4004C15.1605 15.9341 16.0424 16.25 17 16.25C19.3472 16.25 21.25 14.3472 21.25 12C21.25 9.65279 19.3472 7.75 17 7.75C16.4031 7.75 15.9546 7.8569 15.5928 8.0332C15.2305 8.20979 14.9143 8.47625 14.6074 8.85059C14.0674 9.50929 13.624 10.4074 13.04 11.5908C12.9234 11.8273 12.8007 12.0753 12.6709 12.335C12.5546 12.5676 12.4409 12.7992 12.3291 13.0264C11.7485 14.2066 11.2123 15.2961 10.5527 16.1006C10.1425 16.601 9.66294 17.0224 9.06348 17.3145C8.4633 17.6069 7.78376 17.75 7 17.75C3.82436 17.75 1.25 15.1756 1.25 12C1.25 8.82436 3.82436 6.25 7 6.25C8.29384 6.25 9.48999 6.67824 10.4512 7.40039C10.7821 7.64911 10.849 8.1191 10.6006 8.4502C10.3518 8.78136 9.88096 8.84842 9.5498 8.59961C8.83951 8.06599 7.95776 7.75 7 7.75C4.65279 7.75 2.75 9.65279 2.75 12C2.75 14.3472 4.65279 16.25 7 16.25C7.59689 16.25 8.04542 16.1431 8.40723 15.9668C8.76954 15.7902 9.08568 15.5238 9.39258 15.1494C9.93257 14.4908 10.376 13.5926 10.96 12.4092C11.0766 12.1727 11.1993 11.9247 11.3291 11.665C11.4454 11.4324 11.5591 11.2008 11.6709 10.9736C12.2515 9.79341 12.7877 8.70395 13.4473 7.89941C13.8575 7.39898 14.337 6.97765 14.9365 6.68555C15.5367 6.39313 16.2162 6.25 17 6.25Z" fill="#48465C"/>
</svg>
