<svg width="24" height="24" viewBox="0 0 24 24" fill="none" xmlns="http://www.w3.org/2000/svg">
<path d="M12.4277 2C13.5416 2.00001 14.5562 2.60036 16.585 3.80176L17.2705 4.20801C19.2992 5.40942 20.3142 6.01057 20.8711 7C21.4279 7.98941 21.4277 9.19099 21.4277 11.5938V12.4062C21.4277 14.809 21.4279 16.0106 20.8711 17C20.3142 17.9894 19.2992 18.5896 17.2705 19.791L16.585 20.1982C14.5562 21.3996 13.5416 22 12.4277 22C11.3139 22 10.2992 21.3996 8.27051 20.1982L7.58496 19.791C5.55624 18.5896 4.54129 17.9894 3.98438 17C3.42751 16.0106 3.42773 14.809 3.42773 12.4062V11.5938C3.42773 9.19099 3.42751 7.98941 3.98438 7C4.54129 6.01057 5.55624 5.40942 7.58496 4.20801L8.27051 3.80176C10.2992 2.60035 11.3139 2 12.4277 2ZM12.4277 8.25C10.3567 8.25 8.67773 9.92893 8.67773 12C8.67773 14.0711 10.3567 15.75 12.4277 15.75C14.4988 15.75 16.1777 14.0711 16.1777 12C16.1777 9.92894 14.4988 8.25002 12.4277 8.25Z" fill="#1C274C"/>
</svg>
