<svg width="24" height="24" viewBox="0 0 24 24" fill="none" xmlns="http://www.w3.org/2000/svg">
<path d="M7.31935 7.25708C7.31213 7.29299 7.30124 7.34583 7.2881 7.41333C7.26184 7.54831 7.22545 7.74355 7.18166 7.98657C7.09407 8.47259 6.97872 9.15214 6.87013 9.92603C6.65501 11.4591 6.45597 13.4183 6.55861 14.9836C6.62075 15.9308 6.8183 17.1057 6.99416 18.0237C7.08291 18.4871 7.16767 18.8934 7.23048 19.1838C7.2619 19.3291 7.28753 19.4459 7.30568 19.5266L7.32716 19.6194L7.47169 20.2415C5.21032 20.987 4.01857 21.2988 3.35939 20.6399C2.62954 19.91 3.09 18.5271 4.01173 15.762L5.70119 10.6936C6.33313 8.79779 6.70481 7.68364 7.32423 7.23169L7.31935 7.25708ZM8.8506 7.25903C9.4633 7.61844 10.1889 8.34443 11.2324 9.38794L11.7354 9.89087L11.5225 10.5305L11.5137 10.5588C11.5076 10.5775 11.4982 10.6047 11.4873 10.6389C11.4655 10.7077 11.4351 10.8064 11.3985 10.929C11.3249 11.1747 11.2261 11.5192 11.1279 11.9124C10.9359 12.6814 10.7266 13.7034 10.7266 14.5549C10.7266 15.4067 10.9359 16.4293 11.1279 17.1985C11.2261 17.5916 11.3249 17.9352 11.3985 18.1809C11.4352 18.3039 11.4654 18.403 11.4873 18.4719C11.4982 18.5063 11.5076 18.5333 11.5137 18.552L11.6162 18.8606L8.90138 19.7659L8.79396 19.3069L8.78908 19.2844L8.76955 19.1965C8.75223 19.1196 8.72671 19.0071 8.6963 18.8665C8.63539 18.5848 8.55282 18.1906 8.46681 17.7415C8.29308 16.8345 8.1114 15.7348 8.05568 14.885C7.96367 13.4812 8.14288 11.6492 8.35548 10.134C8.46074 9.38393 8.57226 8.72471 8.65724 8.25317C8.6997 8.01751 8.73568 7.82832 8.76076 7.69946C8.77324 7.63529 8.78342 7.58601 8.79005 7.55298L8.79689 7.51587L8.79884 7.50708L8.79982 7.50415L8.8506 7.25903ZM14.6113 12.7668C16.3241 14.4797 17.1808 15.3361 16.9668 16.2424C16.7528 17.1485 15.6036 17.5311 13.3057 18.2971L13.0391 18.386L12.9463 18.1086L12.9453 18.1047L12.9395 18.0881C12.9345 18.0727 12.9268 18.0487 12.917 18.0178C12.8974 17.9561 12.8691 17.8653 12.835 17.7512C12.7664 17.5221 12.6754 17.2009 12.584 16.8352C12.397 16.0864 12.2266 15.2128 12.2266 14.5549C12.2266 13.8971 12.397 13.0243 12.584 12.2756C12.6754 11.91 12.7664 11.5888 12.835 11.3596C12.8692 11.2452 12.8974 11.1538 12.917 11.092C12.9186 11.0869 12.9204 11.0821 12.9219 11.0774L14.6113 12.7668ZM19.0576 15.3137C19.267 15.1042 19.607 15.1042 19.8164 15.3137C20.0258 15.5231 20.0257 15.8621 19.8164 16.0715C19.607 16.281 19.267 16.281 19.0576 16.0715C18.8486 15.8621 18.8486 15.523 19.0576 15.3137ZM19.335 11.6077C20.0679 10.9579 21.1114 10.7935 22.0088 11.1858L22.3008 11.3127C22.6801 11.4786 22.8531 11.9207 22.6875 12.3C22.5216 12.6796 22.0787 12.8527 21.6992 12.6868L21.4082 12.5598C21.0465 12.4017 20.6255 12.4678 20.3301 12.7297C19.5209 13.4472 18.3439 13.5663 17.4072 13.0256L17.1944 12.9036C16.8357 12.6965 16.7128 12.2369 16.9199 11.8782C17.1272 11.5199 17.5858 11.3967 17.9444 11.6038L18.1572 11.7268C18.5347 11.9446 19.009 11.8967 19.335 11.6077ZM16.8067 5.30981C16.888 4.9038 17.2834 4.64071 17.6895 4.72192C18.0955 4.80328 18.3585 5.19866 18.2774 5.60474L18.1338 6.32446C17.9355 7.31518 17.2212 8.1241 16.2627 8.4436C15.815 8.59298 15.4813 8.97096 15.3887 9.43384L15.2451 10.1536C15.1637 10.5597 14.7685 10.8226 14.3623 10.7415C13.9564 10.6602 13.6935 10.2656 13.7744 9.85962L13.918 9.13892C14.1162 8.14823 14.8306 7.33926 15.7891 7.01978C16.2366 6.87038 16.5704 6.49314 16.6631 6.03052L16.8067 5.30981ZM17.5 9.74146C17.7095 9.53202 18.0493 9.53201 18.2588 9.74146C18.4683 9.95093 18.4683 10.2908 18.2588 10.5002C18.0493 10.7097 17.7095 10.7097 17.5 10.5002C17.2906 10.2908 17.2906 9.95093 17.5 9.74146ZM19.9746 7.04712C20.1366 6.98471 20.3165 6.98471 20.4785 7.04712C20.6167 7.10053 20.7394 7.22305 20.9844 7.46802C21.2298 7.71342 21.353 7.83644 21.4063 7.97485C21.4685 8.13667 21.4685 8.31596 21.4063 8.47778C21.353 8.6162 21.2298 8.73923 20.9844 8.98462C20.7394 9.22961 20.6167 9.35209 20.4785 9.40552C20.3165 9.46793 20.1366 9.46793 19.9746 9.40552C19.8363 9.35214 19.7131 9.22987 19.4678 8.98462C19.2225 8.73935 19.1002 8.61617 19.0469 8.47778C18.9846 8.31589 18.9845 8.13674 19.0469 7.97485C19.1002 7.83646 19.2225 7.71335 19.4678 7.46802C19.7131 7.22273 19.8363 7.10048 19.9746 7.04712ZM9.89552 2.60864C10.1117 2.25546 10.5735 2.14461 10.9268 2.3606C11.2798 2.57672 11.3907 3.03763 11.1748 3.39087C11.0181 3.64732 11.058 3.97813 11.2705 4.19067L11.3682 4.28833C11.9568 4.87699 12.1735 5.74243 11.9326 6.53931C11.8127 6.93549 11.3944 7.15998 10.9981 7.04028C10.6016 6.92042 10.3772 6.50123 10.4971 6.10474C10.5779 5.83721 10.5053 5.54649 10.3076 5.34888L10.21 5.25122C9.50749 4.5487 9.37731 3.45631 9.89552 2.60864ZM13.9785 4.05786C14.0769 4.02669 14.183 4.02669 14.2813 4.05786C14.3975 4.09476 14.4982 4.19578 14.6992 4.39673C14.9 4.5976 15.0002 4.69851 15.0371 4.8147C15.0682 4.91293 15.0683 5.01823 15.0371 5.11646C15.0002 5.23267 14.9002 5.33345 14.6992 5.53442C14.4983 5.73527 14.3974 5.83537 14.2813 5.87231C14.183 5.90347 14.0769 5.90347 13.9785 5.87231C13.8625 5.83537 13.7614 5.73527 13.5606 5.53442C13.3597 5.33349 13.2595 5.23266 13.2227 5.11646C13.1915 5.01825 13.1916 4.91291 13.2227 4.8147C13.2595 4.69852 13.3598 4.59756 13.5606 4.39673C13.7616 4.19579 13.8624 4.09476 13.9785 4.05786ZM6.92677 3.94067C7.1362 3.73125 7.47609 3.73133 7.68556 3.94067C7.89503 4.15014 7.89503 4.49 7.68556 4.69946C7.47609 4.90883 7.13621 4.9089 6.92677 4.69946C6.71746 4.49003 6.71745 4.15011 6.92677 3.94067Z" fill="#1C274C"/>
</svg>
