<svg width="24" height="24" viewBox="0 0 24 24" fill="none" xmlns="http://www.w3.org/2000/svg">
<path d="M16.0547 4.25C17.4222 4.24998 18.5246 4.24968 19.3916 4.36621C20.2917 4.48723 21.0494 4.74673 21.6514 5.34863C22.2533 5.95055 22.5128 6.70829 22.6338 7.6084C22.7503 8.47534 22.75 9.57785 22.75 10.9453V13.0547C22.75 14.4222 22.7503 15.5246 22.6338 16.3916C22.5128 17.2917 22.2533 18.0494 21.6514 18.6514C21.0494 19.2533 20.2917 19.5128 19.3916 19.6338C18.5246 19.7503 17.4222 19.75 16.0547 19.75H7.94531C6.57782 19.75 5.47534 19.7503 4.6084 19.6338C3.70829 19.5128 2.95055 19.2533 2.34863 18.6514C1.74673 18.0494 1.48723 17.2917 1.36621 16.3916C1.24968 15.5246 1.24998 14.4222 1.25 13.0547V10.9453C1.24998 9.57785 1.24968 8.47534 1.36621 7.6084C1.48723 6.70829 1.74671 5.95055 2.34863 5.34863C2.95055 4.74671 3.70829 4.48723 4.6084 4.36621C5.47534 4.24968 6.57782 4.24998 7.94531 4.25H16.0547ZM8 5.75C6.56484 5.75 5.5639 5.75201 4.80859 5.85352C4.07482 5.95217 3.68594 6.13242 3.40918 6.40918C3.13242 6.68594 2.95217 7.07482 2.85352 7.80859C2.75201 8.5639 2.75 9.56484 2.75 11V13C2.75 14.4354 2.75196 15.437 2.85352 16.1924C2.95218 16.9258 3.13249 17.3141 3.40918 17.5908C3.68594 17.8676 4.07482 18.0478 4.80859 18.1465C5.5639 18.2479 6.56484 18.25 8 18.25H16C17.4354 18.25 18.437 18.248 19.1924 18.1465C19.9258 18.0478 20.3141 17.8676 20.5908 17.5908C20.8676 17.3141 21.0478 16.9258 21.1465 16.1924C21.248 15.437 21.25 14.4354 21.25 13V11C21.25 9.56485 21.2479 8.5639 21.1465 7.80859C21.0478 7.07482 20.8676 6.68594 20.5908 6.40918C20.3141 6.13249 19.9258 5.95218 19.1924 5.85352C18.437 5.75196 17.4354 5.75 16 5.75H8ZM17 15.25C17.4142 15.25 17.75 15.5858 17.75 16C17.75 16.4142 17.4142 16.75 17 16.75H7C6.58579 16.75 6.25 16.4142 6.25 16C6.25 15.5858 6.58579 15.25 7 15.25H17ZM6 11C6.55229 11 7 11.4477 7 12C7 12.5523 6.55229 13 6 13C5.44772 13 5 12.5523 5 12C5 11.4477 5.44772 11 6 11ZM9 11C9.55229 11 10 11.4477 10 12C10 12.5523 9.55229 13 9 13C8.44772 13 8 12.5523 8 12C8 11.4477 8.44772 11 9 11ZM12 11C12.5523 11 13 11.4477 13 12C13 12.5523 12.5523 13 12 13C11.4477 13 11 12.5523 11 12C11 11.4477 11.4477 11 12 11ZM15 11C15.5523 11 16 11.4477 16 12C16 12.5523 15.5523 13 15 13C14.4477 13 14 12.5523 14 12C14 11.4477 14.4477 11 15 11ZM18 11C18.5523 11 19 11.4477 19 12C19 12.5523 18.5523 13 18 13C17.4477 13 17 12.5523 17 12C17 11.4477 17.4477 11 18 11ZM6 8C6.55229 8 7 8.44772 7 9C7 9.55229 6.55229 10 6 10C5.44772 10 5 9.55229 5 9C5 8.44772 5.44772 8 6 8ZM9 8C9.55229 8 10 8.44772 10 9C10 9.55229 9.55229 10 9 10C8.44772 10 8 9.55229 8 9C8 8.44772 8.44772 8 9 8ZM12 8C12.5523 8 13 8.44772 13 9C13 9.55229 12.5523 10 12 10C11.4477 10 11 9.55229 11 9C11 8.44772 11.4477 8 12 8ZM15 8C15.5523 8 16 8.44772 16 9C16 9.55229 15.5523 10 15 10C14.4477 10 14 9.55229 14 9C14 8.44772 14.4477 8 15 8ZM18 8C18.5523 8 19 8.44772 19 9C19 9.55229 18.5523 10 18 10C17.4477 10 17 9.55229 17 9C17 8.44772 17.4477 8 18 8Z" fill="#48465C"/>
</svg>
