<svg width="24" height="24" viewBox="0 0 24 24" fill="none" xmlns="http://www.w3.org/2000/svg">
<path d="M14.25 21H10C6.22878 21 4.34346 20.9997 3.17188 19.8281C2.00031 18.6566 2 16.7712 2 13V11C2 7.22876 2.00031 5.34345 3.17188 4.17188C4.34346 3.00031 6.22876 3 10 3H14.25V21ZM15.75 3.00586C18.3856 3.03348 19.8538 3.19689 20.8281 4.1709C21.9997 5.34248 22 7.22876 22 11V13C22 16.7711 21.9997 18.6566 20.8281 19.8281C19.8538 20.8024 18.3858 20.9665 15.75 20.9941V3.00586ZM6.5 13.25C6.08579 13.25 5.75 13.5858 5.75 14C5.75 14.4142 6.08579 14.75 6.5 14.75H10.5C10.9142 14.75 11.25 14.4142 11.25 14C11.25 13.5858 10.9142 13.25 10.5 13.25H6.5ZM5.5 9.25C5.08579 9.25 4.75 9.58579 4.75 10C4.75 10.4142 5.08579 10.75 5.5 10.75H11.5C11.9142 10.75 12.25 10.4142 12.25 10C12.25 9.58579 11.9142 9.25 11.5 9.25H5.5Z" fill="#48465C"/>
</svg>
