<svg width="24" height="24" viewBox="0 0 24 24" fill="none" xmlns="http://www.w3.org/2000/svg">
<path d="M12 1.25C17.9371 1.25 22.75 6.06294 22.75 12C22.75 17.9371 17.9371 22.75 12 22.75C6.06294 22.75 1.25 17.9371 1.25 12C1.25 6.06294 6.06294 1.25 12 1.25ZM12 2.75C6.89137 2.75 2.75 6.89137 2.75 12C2.75 17.1086 6.89137 21.25 12 21.25C17.1086 21.25 21.25 17.1086 21.25 12C21.25 6.89137 17.1086 2.75 12 2.75ZM12.6953 11.4951C12.9741 11.189 13.4485 11.1668 13.7549 11.4453L16.5049 13.9453C16.6611 14.0875 16.75 14.2889 16.75 14.5C16.75 14.7111 16.6611 14.9125 16.5049 15.0547L13.7549 17.5547C13.4485 17.8332 12.9741 17.811 12.6953 17.5049C12.4168 17.1985 12.439 16.7241 12.7451 16.4453L14.0596 15.25H8C7.58579 15.25 7.25 14.9142 7.25 14.5C7.25001 14.0858 7.5858 13.75 8 13.75H14.0596L12.7451 12.5547C12.439 12.2759 12.4168 11.8015 12.6953 11.4951ZM10.2451 6.44531C10.5515 6.16679 11.0259 6.18897 11.3047 6.49512C11.5832 6.8015 11.5611 7.27602 11.2549 7.55469L9.94043 8.75H16C16.4142 8.75 16.75 9.08579 16.75 9.5C16.75 9.91421 16.4142 10.25 16 10.25H9.94043L11.2549 11.4453C11.561 11.7241 11.5832 12.1985 11.3047 12.5049C11.0259 12.811 10.5515 12.8332 10.2451 12.5547L7.49512 10.0547C7.33899 9.91252 7.25 9.71114 7.25 9.5C7.25 9.28885 7.33897 9.08744 7.49512 8.94531L10.2451 6.44531Z" fill="#1C274C"/>
</svg>
