<svg width="24" height="24" viewBox="0 0 24 24" fill="none" xmlns="http://www.w3.org/2000/svg">
<path d="M5.53737 4.9375C6.93032 3.54455 9.15294 3.73168 10.0374 5.31641L10.6868 6.47949C11.2722 7.52892 11.0369 8.90577 10.1145 9.82812C10.0959 9.84707 9.0133 10.9641 11.0247 12.9756C13.036 14.9868 14.1533 13.9043 14.1721 13.8857C15.0946 12.9633 16.4713 12.7278 17.5208 13.3135L18.6839 13.9619C20.2686 14.8463 20.4555 17.0689 19.0628 18.4619C18.2258 19.2989 17.2002 19.9503 16.0667 19.9932C14.1585 20.0655 10.9177 19.5825 7.66725 16.332C4.417 13.0815 3.93378 9.84068 4.00612 7.93262C4.04924 6.79946 4.70064 5.77432 5.53737 4.9375ZM15.0003 3.25C15.4144 3.25009 15.7503 3.58584 15.7503 4V5C15.7503 5.96401 15.7517 6.61169 15.8167 7.09473C15.8787 7.5561 15.9862 7.75349 16.1165 7.88379C16.2468 8.01407 16.4443 8.12156 16.9055 8.18359C17.272 8.23285 17.7335 8.24181 18.3557 8.24512L17.5315 7.58594C17.2081 7.32718 17.1556 6.8547 17.4143 6.53125C17.6731 6.20787 18.1456 6.15533 18.469 6.41406L20.969 8.41406C21.1469 8.55639 21.2503 8.7722 21.2503 9C21.2503 9.2278 21.1469 9.44361 20.969 9.58594L18.469 11.5859C18.1456 11.8447 17.6731 11.7921 17.4143 11.4688C17.1556 11.1453 17.2081 10.6728 17.5315 10.4141L18.3626 9.74902C17.7194 9.74589 17.1658 9.73182 16.7053 9.66992C16.0778 9.58549 15.5113 9.39963 15.0559 8.94434C14.6006 8.48899 14.4148 7.92252 14.3303 7.29492C14.2488 6.6887 14.2503 5.92161 14.2503 5V4C14.2503 3.58579 14.586 3.25 15.0003 3.25Z" fill="#1C274C"/>
</svg>
