<svg width="24" height="24" viewBox="0 0 24 24" fill="none" xmlns="http://www.w3.org/2000/svg">
<path d="M19.7217 7.46289C20.1815 7.6138 20.5894 7.84067 20.9414 8.18848C21.5214 8.76165 21.771 9.48373 21.8877 10.3408C22 11.1665 22 12.217 22 13.5195V13.624C22 14.9264 22 15.9761 21.8877 16.8018C21.771 17.659 21.5215 18.3809 20.9414 18.9541C20.3613 19.5272 19.6309 19.7735 18.7637 19.8887C17.9281 19.9997 16.865 20 15.5469 20H10.6221C9.30411 20 8.24181 19.9996 7.40625 19.8887C6.53869 19.7735 5.80769 19.5274 5.22754 18.9541C4.87572 18.6065 4.6459 18.204 4.49316 17.75C5.36443 17.8578 6.44227 17.8574 7.6875 17.8574H12.6973C13.9789 17.8574 15.0835 17.8577 15.9678 17.7402C16.9154 17.6143 17.8237 17.3304 18.5605 16.6025C19.2973 15.8745 19.5844 14.9764 19.7119 14.04C19.8308 13.1663 19.8312 12.0749 19.8311 10.8086V10.6201C19.8312 9.38925 19.8308 8.32398 19.7217 7.46289ZM12.6025 5C15.3284 5 16.6911 5.00023 17.5381 5.83691C18.3849 6.67372 18.3857 8.02043 18.3857 10.7139C18.3857 13.4077 18.385 14.755 17.5381 15.5918C16.6911 16.4285 15.3283 16.4287 12.6025 16.4287H7.7832C5.05705 16.4287 3.69358 16.4287 2.84668 15.5918C1.99989 14.755 2 13.4075 2 10.7139C2 8.02059 1.99997 6.67373 2.84668 5.83691C3.69358 5.00007 5.05705 5 7.7832 5H12.6025ZM10.1924 7.61914C8.46264 7.61926 7.06078 9.00471 7.06055 10.7139C7.06055 12.4233 8.46249 13.8095 10.1924 13.8096C11.9224 13.8096 13.3252 12.4234 13.3252 10.7139C13.325 9.00464 11.9222 7.61914 10.1924 7.61914ZM4.8916 8.0957C4.49236 8.0957 4.16895 8.41507 4.16895 8.80957V12.6191C4.16897 13.0136 4.49238 13.333 4.8916 13.333C5.29078 13.333 5.61424 13.0136 5.61426 12.6191V8.80957C5.61426 8.4151 5.29079 8.09575 4.8916 8.0957ZM15.4941 8.0957C15.0949 8.0957 14.7705 8.41507 14.7705 8.80957V12.6191C14.7705 13.0136 15.095 13.333 15.4941 13.333C15.8932 13.3328 16.2168 13.0135 16.2168 12.6191V8.80957C16.2168 8.41522 15.8932 8.09594 15.4941 8.0957ZM10.1924 9.04785C11.124 9.04785 11.8789 9.79439 11.8789 10.7148C11.8787 11.6352 11.1239 12.3809 10.1924 12.3809C9.26105 12.3808 8.50605 11.6351 8.50586 10.7148C8.50586 9.79445 9.26094 9.04794 10.1924 9.04785Z" fill="#48465C"/>
</svg>
