<svg width="24" height="24" viewBox="0 0 24 24" fill="none" xmlns="http://www.w3.org/2000/svg">
<path d="M12 2C16.714 2 19.0708 2.00037 20.5352 3.46484C21.9996 4.9293 22 7.28597 22 12C22 16.714 21.9997 19.0708 20.5352 20.5352C19.0708 21.9997 16.714 22 12 22C7.28597 22 4.9293 21.9996 3.46484 20.5352C2.00037 19.0708 2 16.714 2 12C2 7.28595 2.00037 4.9293 3.46484 3.46484C4.9293 2.00037 7.28595 2 12 2ZM18.3613 10.4697C18.0685 10.1773 17.5947 10.1773 17.3018 10.4697L16.1338 11.6357C15.9191 11.8501 15.8548 12.1729 15.9707 12.4531C16.0868 12.7335 16.3606 12.917 16.6641 12.917H17.0264C16.6631 15.3679 14.5476 17.25 11.9902 17.25C10.4591 17.2499 9.08661 16.576 8.15234 15.5068C7.8798 15.1949 7.40568 15.163 7.09375 15.4355C6.78218 15.708 6.75027 16.1813 7.02246 16.4932C8.22973 17.8749 10.0083 18.7499 11.9902 18.75C15.3756 18.75 18.1662 16.2002 18.5391 12.917H19C19.3034 12.917 19.5774 12.7335 19.6934 12.4531C19.8092 12.1729 19.745 11.8501 19.5303 11.6357L18.3613 10.4697ZM12.0098 5.25C8.62434 5.25 5.83384 7.79975 5.46094 11.083H5C4.69657 11.083 4.42267 11.2665 4.30664 11.5469C4.19083 11.8271 4.25514 12.15 4.46973 12.3643L5.63867 13.5303C5.93148 13.8227 6.40543 13.8227 6.69824 13.5303L7.86621 12.3643C8.08088 12.1499 8.14524 11.8271 8.0293 11.5469C7.91332 11.2666 7.6402 11.0832 7.33691 11.083H6.97363C7.33687 8.63206 9.45243 6.75 12.0098 6.75C13.541 6.75005 14.9134 7.42399 15.8477 8.49316C16.1202 8.80508 16.5944 8.83699 16.9062 8.56445C17.218 8.29194 17.2498 7.81868 16.9775 7.50684C15.7703 6.12505 13.9917 5.25005 12.0098 5.25Z" fill="#1C274C"/>
</svg>
