<svg width="24" height="24" viewBox="0 0 24 24" fill="none" xmlns="http://www.w3.org/2000/svg">
<path d="M12 2C15.7495 2 17.6242 2.00031 18.9385 2.95508C19.363 3.26348 19.7365 3.63705 20.0449 4.06152C20.9997 5.37584 21 7.25047 21 11V13C21 16.7495 20.9997 18.6242 20.0449 19.9385C19.7365 20.363 19.363 20.7365 18.9385 21.0449C17.6242 21.9997 15.7495 22 12 22C8.25047 22 6.37584 21.9997 5.06152 21.0449C4.63705 20.7365 4.26348 20.363 3.95508 19.9385C3.00031 18.6242 3 16.7495 3 13V11C3 7.25048 3.00033 5.37584 3.95508 4.06152C4.26348 3.63705 4.63705 3.26348 5.06152 2.95508C6.37584 2.00033 8.25048 2 12 2ZM12.4688 12.4141C12.1454 12.1554 11.6729 12.2078 11.4141 12.5312L9.41406 15.0312C9.23396 15.2563 9.19932 15.5654 9.32422 15.8252C9.44915 16.0849 9.71179 16.25 10 16.25H12.4395L11.4141 17.5312C11.1553 17.8546 11.2078 18.3272 11.5312 18.5859C11.8546 18.8447 12.3272 18.7922 12.5859 18.4688L14.5859 15.9688C14.7661 15.7437 14.8007 15.4347 14.6758 15.1748C14.5508 14.9152 14.2881 14.75 14 14.75H11.5605L12.5859 13.4688C12.8446 13.1454 12.7922 12.6729 12.4688 12.4141ZM7 8.25C6.58579 8.25 6.25 8.58579 6.25 9C6.25 9.41421 6.58579 9.75 7 9.75H17C17.4142 9.75 17.75 9.41421 17.75 9C17.75 8.58579 17.4142 8.25 17 8.25H7Z" fill="#48465C"/>
</svg>
