<svg width="24" height="24" viewBox="0 0 24 24" fill="none" xmlns="http://www.w3.org/2000/svg">
<path d="M13.3369 11.4777C13.6252 11.1806 14.1001 11.1738 14.3975 11.4621L18.5225 15.4621C18.6679 15.6033 18.75 15.7975 18.75 16.0002C18.75 16.2029 18.668 16.3971 18.5225 16.5383L14.3975 20.5383C14.1001 20.8267 13.6252 20.8191 13.3369 20.5217C13.0487 20.2244 13.0556 19.7504 13.3525 19.4621L16.1494 16.7502H6C5.58585 16.7502 5.25009 16.4143 5.25 16.0002C5.25 15.586 5.58579 15.2502 6 15.2502H16.1494L13.3525 12.5383C13.0554 12.2499 13.0486 11.775 13.3369 11.4777ZM9.60254 3.46112C9.89982 3.1729 10.3748 3.18063 10.6631 3.47772C10.9514 3.775 10.9446 4.24988 10.6475 4.53827L7.85059 7.25018H18C18.4142 7.25018 18.75 7.58597 18.75 8.00018C18.7499 8.41432 18.4141 8.75018 18 8.75018H7.85059L10.6475 11.4621C10.9444 11.7504 10.9513 12.2244 10.6631 12.5217C10.3748 12.8191 9.8999 12.8267 9.60254 12.5383L5.47754 8.53827C5.33208 8.39707 5.25005 8.20291 5.25 8.00018C5.25 7.79727 5.33187 7.60237 5.47754 7.46112L9.60254 3.46112Z" fill="#48465C"/>
</svg>
