<svg width="24" height="24" viewBox="0 0 24 24" fill="none" xmlns="http://www.w3.org/2000/svg">
<path d="M7.50034 18.0005C8.32861 18.0007 9.00034 18.6722 9.00034 19.5005C9.00015 20.3286 8.3285 21.0003 7.50034 21.0005C6.67202 21.0005 6.00052 20.3287 6.00034 19.5005C6.00034 18.6721 6.67191 18.0005 7.50034 18.0005ZM16.5003 18.0005C17.3286 18.0007 18.0003 18.6721 18.0003 19.5005C18.0001 20.3286 17.3285 21.0003 16.5003 21.0005C15.6721 21.0005 15.0005 20.3287 15.0003 19.5005C15.0003 18.672 15.6719 18.0005 16.5003 18.0005ZM14.1712 15.3804H11.3285L9.67319 6.00049H15.8265L14.1712 15.3804ZM17.3499 6.00049C18.9458 6.00154 20.3511 6.02572 20.7757 6.57764C21.2197 7.15472 21.0466 8.02419 20.6996 9.76318L20.1996 12.188C19.8845 13.7165 19.7268 14.4806 19.1751 14.9302C18.6235 15.3797 17.8432 15.3804 16.2826 15.3804H15.6947L17.3499 6.00049ZM2.08432 2.75146C2.22175 2.36086 2.64971 2.15524 3.04037 2.29248L3.34213 2.39893C3.95838 2.61557 4.48192 2.79935 4.89389 3.00146C5.3344 3.21762 5.71228 3.48424 5.99643 3.8999C6.27841 4.31255 6.39485 4.76583 6.44858 5.26221C6.47261 5.48434 6.48584 5.73026 6.49252 6.00049H8.14975L9.80502 15.3774C7.78009 15.3596 6.66422 15.2417 5.92905 14.4663C5.06292 13.5526 4.99936 12.5814 4.99936 9.64014V7.03857C4.99936 6.2987 4.99852 5.80353 4.95737 5.42334C4.91804 5.06 4.84841 4.87866 4.75815 4.74658C4.67011 4.61774 4.53682 4.49688 4.23373 4.34814C3.91089 4.18973 3.47166 4.03404 2.80405 3.79932L2.5433 3.70752C2.15253 3.57013 1.94694 3.14222 2.08432 2.75146Z" fill="#1C274C"/>
</svg>
