<svg width="24" height="24" viewBox="0 0 24 24" fill="none" xmlns="http://www.w3.org/2000/svg">
<path d="M2.57324 14.4121C2.89784 14.1549 3.36969 14.2098 3.62695 14.5342C3.88419 14.8589 3.82954 15.3307 3.50488 15.5879C2.93143 16.0424 2.75001 16.443 2.75 16.75C2.75 17.0165 2.88425 17.3493 3.29688 17.7334C3.71071 18.1186 4.35082 18.4999 5.2041 18.8359C6.41454 19.3125 7.97903 19.6683 9.75 19.834V19.375C9.75001 19.0807 9.92244 18.814 10.1904 18.6924C10.4584 18.5709 10.7727 18.6168 10.9941 18.8105L12.4941 20.123C12.6568 20.2654 12.75 20.4713 12.75 20.6875C12.75 20.9037 12.6568 21.1096 12.4941 21.252L10.9941 22.5645C10.7727 22.7582 10.4584 22.8041 10.1904 22.6826C9.92243 22.561 9.75 22.2943 9.75 22V21.3408C7.80587 21.1702 6.04985 20.7819 4.6543 20.2324C3.69794 19.8558 2.87263 19.3889 2.27441 18.832C1.67511 18.2741 1.25 17.5708 1.25 16.75C1.25001 15.7999 1.81633 15.0119 2.57324 14.4121ZM20.373 14.5342C20.6303 14.2098 21.1021 14.1549 21.4268 14.4121C22.1836 15.0119 22.75 15.7998 22.75 16.75C22.75 18.1281 21.5816 19.1608 20.2031 19.8516C18.7614 20.5739 16.7905 21.0851 14.5752 21.3096C14.1633 21.3511 13.7957 21.0506 13.7539 20.6387C13.7125 20.2267 14.0129 19.8591 14.4248 19.8174C16.5221 19.6048 18.3013 19.1269 19.5312 18.5107C20.8244 17.8627 21.25 17.2066 21.25 16.75C21.25 16.443 21.0685 16.0424 20.4951 15.5879C20.1704 15.3307 20.1158 14.8589 20.373 14.5342ZM12 2C14.8089 2 16.2138 1.99971 17.2227 2.67383C17.6593 2.96563 18.0343 3.34068 18.3262 3.77734C19.0003 4.78623 19 6.19108 19 9V14.9346C18.9999 15.5935 18.6464 16.2014 18.0742 16.5283C14.3102 18.6792 9.68988 18.6791 5.92578 16.5283C5.35366 16.2014 5.00013 15.5935 5 14.9346V9C5 6.19108 4.99971 4.78623 5.67383 3.77734C5.96563 3.34068 6.34068 2.96563 6.77734 2.67383C7.78623 1.99971 9.19108 2 12 2ZM9 4.25C8.58579 4.25 8.25 4.58579 8.25 5C8.25 5.41421 8.58579 5.75 9 5.75H15C15.4142 5.75 15.75 5.41421 15.75 5C15.75 4.58579 15.4142 4.25 15 4.25H9Z" fill="#48465C"/>
</svg>
