<svg width="24" height="24" viewBox="0 0 24 24" fill="none" xmlns="http://www.w3.org/2000/svg">
<path d="M12.0518 1.25C12.9503 1.24997 13.7001 1.25012 14.2949 1.33008C14.9225 1.41452 15.489 1.6003 15.9443 2.05566C16.3997 2.51102 16.5855 3.07748 16.6699 3.70508C16.729 4.14468 16.745 4.66915 16.749 5.27539C17.3974 5.2962 17.9756 5.33426 18.4893 5.40332C19.6615 5.56095 20.6101 5.89332 21.3584 6.6416C22.1066 7.38992 22.439 8.33844 22.5967 9.51074C22.7498 10.6499 22.75 12.1057 22.75 13.9434V14.0566C22.75 15.8943 22.7498 17.3501 22.5967 18.4893C22.439 19.6615 22.1066 20.6101 21.3584 21.3584C20.6101 22.1066 19.6615 22.439 18.4893 22.5967C17.3501 22.7498 15.8943 22.75 14.0566 22.75H9.94336C8.10571 22.75 6.6499 22.7498 5.51074 22.5967C4.33844 22.439 3.38992 22.1066 2.6416 21.3584C1.89332 20.6101 1.56095 19.6615 1.40332 18.4893C1.25016 17.3501 1.24998 15.8943 1.25 14.0566V13.9434C1.24998 12.1057 1.25016 10.6499 1.40332 9.51074C1.56095 8.33844 1.8933 7.38992 2.6416 6.6416C3.38992 5.8933 4.33844 5.56095 5.51074 5.40332C6.0244 5.33426 6.60263 5.2962 7.25098 5.27539C7.25498 4.66915 7.27098 4.14468 7.33008 3.70508C7.41452 3.07747 7.6003 2.51102 8.05566 2.05566C8.51102 1.6003 9.07747 1.41452 9.70508 1.33008C10.2999 1.25012 11.0497 1.24997 11.9482 1.25H12.0518ZM10 6.75C8.09324 6.75 6.73858 6.7515 5.71094 6.88965C4.70485 7.02492 4.12536 7.27894 3.70215 7.70215C3.27894 8.12535 3.02491 8.70485 2.88965 9.71094C2.75149 10.7386 2.75 12.0933 2.75 14C2.75 15.9067 2.7515 17.2614 2.88965 18.2891C3.02491 19.2951 3.27894 19.8747 3.70215 20.2979C4.12536 20.7211 4.70485 20.9752 5.71094 21.1104C6.73858 21.2485 8.09324 21.25 10 21.25H14C15.9067 21.25 17.2614 21.2485 18.2891 21.1104C19.2951 20.9752 19.8747 20.7211 20.2979 20.2979C20.7211 19.8747 20.9752 19.2951 21.1104 18.2891C21.2485 17.2614 21.25 15.9067 21.25 14C21.25 12.0933 21.2485 10.7386 21.1104 9.71094C20.9752 8.70485 20.7211 8.12535 20.2979 7.70215C19.8747 7.27894 19.2951 7.02492 18.2891 6.88965C17.2614 6.75151 15.9067 6.75 14 6.75H10ZM8 12.25C10.0711 12.25 11.75 13.9289 11.75 16C11.75 18.0711 10.0711 19.75 8 19.75C5.92893 19.75 4.25 18.0711 4.25 16C4.25 13.9289 5.92893 12.25 8 12.25ZM13.3486 13.3486C14.813 11.8842 17.1869 11.8842 18.6514 13.3486C20.1158 14.813 20.1158 17.1869 18.6514 18.6514C17.1869 20.1158 14.813 20.1158 13.3486 18.6514C11.8842 17.1869 11.8841 14.813 13.3486 13.3486ZM8.75 15C8.75 15.4142 8.41421 15.75 8 15.75C7.58579 15.75 7.25 15.4142 7.25 15V13.8779C6.37611 14.1868 5.75 15.0203 5.75 16C5.75 17.2426 6.75736 18.25 8 18.25C9.24264 18.25 10.25 17.2426 10.25 16C10.25 15.0203 9.62389 14.1868 8.75 13.8779V15ZM16.9697 13.9688C16.1335 13.5695 15.1017 13.7166 14.4092 14.4092C13.5305 15.2879 13.5305 16.7121 14.4092 17.5908C15.2879 18.4695 16.7121 18.4695 17.5908 17.5908C18.2834 16.8983 18.4305 15.8665 18.0312 15.0303L17.2373 15.8232C16.9444 16.1161 16.4696 16.1161 16.1768 15.8232C15.8839 15.5304 15.8839 15.0556 16.1768 14.7627L16.9697 13.9688ZM18 8.75C18.4142 8.75 18.75 9.08579 18.75 9.5C18.75 9.91422 18.4142 10.25 18 10.25H6C5.58579 10.25 5.25 9.91422 5.25 9.5C5.25 9.08579 5.58579 8.75 6 8.75H18ZM12 2.75C11.036 2.75 10.3883 2.75147 9.90527 2.81641C9.44388 2.87845 9.24651 2.9859 9.11621 3.11621C8.9859 3.24652 8.87845 3.44388 8.81641 3.90527C8.76991 4.25113 8.75616 4.68163 8.75195 5.25195C9.12997 5.25016 9.52686 5.25 9.94336 5.25H14.0566C14.4732 5.25 14.8701 5.25016 15.248 5.25195C15.2438 4.68163 15.2301 4.25113 15.1836 3.90527C15.1215 3.44389 15.0141 3.24652 14.8838 3.11621C14.7535 2.98591 14.5561 2.87845 14.0947 2.81641C13.6117 2.75147 12.964 2.75 12 2.75Z" fill="#48465C"/>
</svg>
