<svg width="24" height="24" viewBox="0 0 24 24" fill="none" xmlns="http://www.w3.org/2000/svg">
<path d="M12 2C16.714 2 19.0708 2.00037 20.5352 3.46484C21.9996 4.9293 22 7.28597 22 12C22 16.714 21.9997 19.0708 20.5352 20.5352C19.0708 21.9997 16.714 22 12 22C7.28597 22 4.9293 21.9996 3.46484 20.5352C2.00037 19.0708 2 16.714 2 12C2 7.28595 2.00037 4.9293 3.46484 3.46484C4.9293 2.00037 7.28595 2 12 2ZM16.6514 7.34863C14.8532 5.55049 11.9378 5.55048 10.1396 7.34863C8.94578 8.54256 8.54496 10.2289 8.93652 11.7539C8.99967 11.9998 8.94314 12.2657 8.76367 12.4453L6.28906 14.9199C6.07721 15.1317 5.97288 15.4288 6.00586 15.7266L6.16113 17.1191C6.17763 17.2676 6.24399 17.4061 6.34961 17.5117L6.48828 17.6504C6.59389 17.756 6.73241 17.8225 6.88086 17.8389L8.27344 17.9941C8.57121 18.0271 8.86823 17.9227 9.08008 17.7109L9.37598 17.4141L8.21289 16.2637C7.91881 15.9724 7.91602 15.4975 8.20703 15.2031C8.49831 14.9086 8.97405 14.906 9.26855 15.1973L10.4346 16.3506L10.4375 16.3535L11.5547 15.2363C11.7343 15.0567 12.0002 15.0003 12.2461 15.0635C13.771 15.455 15.4574 15.0542 16.6514 13.8604C18.4495 12.0622 18.4495 9.14677 16.6514 7.34863ZM12.3906 9.72363C12.9113 9.20295 13.7557 9.20294 14.2764 9.72363C14.7969 10.2444 14.797 11.0887 14.2764 11.6094C13.7557 12.13 12.9113 12.1299 12.3906 11.6094C11.8699 11.0887 11.8699 10.2444 12.3906 9.72363Z" fill="#1C274C"/>
</svg>
