<svg width="24" height="24" viewBox="0 0 24 24" fill="none" xmlns="http://www.w3.org/2000/svg">
<path d="M17.5 4.03711C18.7578 4.10768 19.5518 4.30773 20.1211 4.87695C20.9998 5.75561 21 7.16976 21 9.99805V15.998C21 18.8263 20.9997 20.2404 20.1211 21.1191C19.2424 21.9978 17.8284 21.998 15 21.998H9C6.17157 21.998 4.75759 21.9978 3.87891 21.1191C3.00034 20.2404 3 18.8263 3 15.998V9.99805C3 7.16976 3.00025 5.75561 3.87891 4.87695C4.44819 4.30774 5.24218 4.10768 6.5 4.03711V4.5C6.5 6.15685 7.84315 7.5 9.5 7.5H14.5C16.1569 7.5 17.5 6.15685 17.5 4.5V4.03711ZM16 13.4404C16 11.0342 13.7999 10.1354 12 11.9941C10.2001 10.1354 8 11.0341 8 13.4404C8.00026 14.9724 9.81928 16.5986 11.0039 17.4951C11.4489 17.8318 11.6715 18 12 18C12.3285 18 12.5511 17.8318 12.9961 17.4951C14.1807 16.5987 15.9997 14.9725 16 13.4404ZM14.5 2C15.3284 2 16 2.67157 16 3.5V4.5C16 5.32843 15.3284 6 14.5 6H9.5C8.67157 6 8 5.32843 8 4.5V3.5C8 2.67157 8.67157 2 9.5 2H14.5Z" fill="#1C274C"/>
</svg>
