<svg width="24" height="24" viewBox="0 0 24 24" fill="none" xmlns="http://www.w3.org/2000/svg">
<path d="M9.75 2C12.5784 2 13.9924 2.00023 14.8711 2.87891C15.7498 3.75759 15.75 5.17158 15.75 8V16.25H17.3213C18.5245 16.25 19.5 17.2255 19.5 18.4287V18.5C19.5 18.9142 19.8358 19.25 20.25 19.25C20.6642 19.25 21 18.9142 21 18.5V13.75L19.7754 13.3418C19.163 13.1375 18.75 12.5644 18.75 11.9189V9.5C18.75 8.67157 19.4216 8 20.25 8H21V7.62207C21 7.43734 20.9993 7.3735 20.9961 7.31543C20.9626 6.72099 20.6952 6.16405 20.252 5.7666C20.2086 5.72776 20.1591 5.6878 20.0146 5.57227L18.7812 4.58594C18.4578 4.32717 18.4054 3.85468 18.6641 3.53125C18.9229 3.20784 19.3954 3.15532 19.7188 3.41406L20.9678 4.41406C21.0899 4.51178 21.1744 4.57903 21.2529 4.64941C21.992 5.3119 22.4384 6.24053 22.4941 7.23145C22.5 7.33681 22.5 7.44501 22.5 7.60156V18.5C22.5 19.7427 21.4926 20.75 20.25 20.75C19.0074 20.75 18 19.7427 18 18.5V18.4287C18 18.0539 17.6961 17.75 17.3213 17.75H15.75V21.25H16.873C17.2872 21.25 17.623 21.5858 17.623 22C17.623 22.4142 17.2872 22.75 16.873 22.75H1.75C1.33579 22.75 1 22.4142 1 22C1 21.5858 1.33579 21.25 1.75 21.25H2.75V8C2.75 5.17157 2.75023 3.75759 3.62891 2.87891C4.50759 2.00023 5.92157 2 8.75 2H9.75ZM7 16.25C6.58579 16.25 6.25 16.5858 6.25 17C6.25 17.4142 6.58579 17.75 7 17.75H12C12.4142 17.75 12.75 17.4142 12.75 17C12.75 16.5858 12.4142 16.25 12 16.25H7ZM8 6C7.05719 6 6.58587 6.00008 6.29297 6.29297C6.00008 6.58587 6 7.05719 6 8C6 8.94281 6.00008 9.41413 6.29297 9.70703C6.58587 9.99992 7.05719 10 8 10H11C11.9428 10 12.4141 9.99992 12.707 9.70703C12.9999 9.41413 13 8.9428 13 8C13 7.0572 12.9999 6.58587 12.707 6.29297C12.4141 6.00008 11.9428 6 11 6H8Z" fill="#48465C"/>
</svg>
