<svg width="24" height="24" viewBox="0 0 24 24" fill="none" xmlns="http://www.w3.org/2000/svg">
<path d="M13.2372 1.26892C13.9309 1.16469 14.4885 1.50073 14.9491 1.90759C15.3936 2.30026 15.8911 2.89002 16.4823 3.59021L16.8446 4.01892C17.2396 4.48665 17.3087 4.54653 17.3788 4.58142C17.4508 4.61726 17.5449 4.63699 18.1639 4.67322L18.7284 4.70642C19.6552 4.76062 20.4332 4.80583 21.0175 4.92517C21.6174 5.04774 22.2295 5.28881 22.5594 5.91052C22.8945 6.54168 22.7362 7.18008 22.4833 7.73181C22.24 8.26272 21.8206 8.90042 21.326 9.65369L21.0214 10.1185C20.6864 10.6288 20.6577 10.7005 20.6483 10.7611C20.6388 10.8221 20.6443 10.9 20.8085 11.4886L20.9579 12.0248C21.2004 12.8943 21.4057 13.6301 21.4764 14.2103C21.5498 14.8124 21.5079 15.4707 20.996 15.9701C20.4916 16.4617 19.8342 16.5028 19.2264 16.4349C18.6339 16.3687 17.8792 16.1724 16.9803 15.9388L16.9227 15.9242L16.4325 15.7963C15.8319 15.6402 15.7371 15.6301 15.6581 15.642C15.5816 15.6535 15.4994 15.6886 14.9803 16.0131L14.5048 16.309C13.7298 16.7935 13.0777 17.2026 12.535 17.4398C11.9719 17.686 11.3383 17.8334 10.7098 17.5209C10.2176 17.2761 9.95296 16.8609 9.79773 16.4076C6.59498 17.6098 3.94002 19.759 3.03601 22.2552C2.92011 22.5754 2.60357 22.7777 2.26453 22.7474C1.92542 22.7171 1.6489 22.4619 1.59167 22.1263C0.957891 18.4094 1.24371 15.4411 2.13171 13.099C2.99362 10.8259 4.40742 9.1849 6.01453 8.04236C6.22085 7.56951 6.63392 7.25715 7.05652 7.0238C7.57347 6.73837 8.29827 6.46731 9.15906 6.1449L9.68738 5.94666C10.2666 5.72969 10.3417 5.68571 10.3915 5.63708C10.4384 5.59125 10.4806 5.52454 10.702 4.96033L10.8817 4.50232C10.8893 4.48307 10.8967 4.46382 10.9042 4.4447C11.2322 3.60849 11.5103 2.9 11.8036 2.39392C12.1101 1.86526 12.5369 1.37416 13.2372 1.26892ZM6.25183 9.75427C5.13208 10.7002 4.16676 11.9645 3.53503 13.6302C2.93781 15.2054 2.62918 17.1669 2.7948 19.5951C4.34443 17.4967 6.84803 15.8674 9.53601 14.9056C9.50548 14.5622 9.48041 14.1863 9.45398 13.7826L9.41785 13.2299C9.37817 12.6244 9.35744 12.5468 9.32605 12.4877C9.29269 12.425 9.2331 12.3586 8.7489 11.975L8.30652 11.6244C7.58434 11.0521 6.97667 10.5707 6.57117 10.14C6.4582 10.02 6.34872 9.89164 6.25183 9.75427ZM13.4598 2.75232L13.4579 2.7533C13.4281 2.75749 13.3178 2.77344 13.1014 3.14685C12.8725 3.54191 12.6349 4.1408 12.2782 5.05017L12.0985 5.50818C12.0864 5.53895 12.0744 5.57025 12.0624 5.60095C11.9027 6.01067 11.7469 6.41041 11.4384 6.7113C11.1327 7.00932 10.729 7.15932 10.3085 7.3158C10.277 7.32751 10.2454 7.34008 10.2137 7.35193L9.74304 7.52771C8.80998 7.87725 8.19076 8.11168 7.7821 8.33728C7.38566 8.55617 7.3819 8.66366 7.38171 8.67029C7.379 8.68083 7.35696 8.78664 7.66296 9.11169C7.98395 9.45263 8.50259 9.86669 9.28503 10.4867L9.75964 10.8617C10.113 11.1404 10.451 11.4074 10.6512 11.7845C10.8533 12.1652 10.8802 12.5929 10.9081 13.0326C10.9101 13.0653 10.9127 13.0983 10.9149 13.1312L10.9471 13.6224C10.9864 14.2216 11.0179 14.6964 11.0594 15.0765C11.0763 15.1107 11.0906 15.1466 11.1024 15.184C11.141 15.3059 11.147 15.4308 11.1249 15.5482C11.1338 15.5974 11.1433 15.6448 11.1532 15.6898C11.2465 16.1139 11.3477 16.1633 11.3759 16.1771L11.3788 16.1781C11.4101 16.1937 11.5172 16.2467 11.9335 16.0648C12.3624 15.8772 12.9216 15.5303 13.7616 15.0052L14.1844 14.7406C14.2123 14.7232 14.2407 14.7053 14.2684 14.6879C14.6488 14.449 15.0106 14.2224 15.4354 14.1586C15.8577 14.0952 16.2721 14.2034 16.7128 14.3187C16.7448 14.3271 16.7771 14.3357 16.8094 14.3441L17.2997 14.472C18.2714 14.7246 18.9203 14.8909 19.3925 14.9437C19.8501 14.9948 19.9328 14.9122 19.9481 14.8969L19.9501 14.8949C19.9616 14.8852 20.0398 14.8159 19.9882 14.392C19.933 13.9386 19.7606 13.3134 19.4969 12.3676L19.3641 11.891C19.3552 11.8587 19.3459 11.8265 19.3368 11.7943C19.2175 11.3704 19.1009 10.955 19.1669 10.5306C19.2328 10.1061 19.4697 9.74614 19.7118 9.37927C19.7302 9.35135 19.7491 9.32333 19.7675 9.29529L20.038 8.88318C20.576 8.06366 20.929 7.52124 21.119 7.10681C21.2979 6.71648 21.2433 6.62775 21.2352 6.61462V6.61365L21.2343 6.61267C21.2235 6.59182 21.1691 6.48718 20.7177 6.3949C20.2521 6.2998 19.5838 6.25822 18.5819 6.19958L18.076 6.17029C18.0427 6.16833 18.0095 6.1663 17.9764 6.16443C17.5215 6.13869 17.0935 6.11448 16.7108 5.92419C16.3266 5.73299 16.0515 5.40653 15.7616 5.06189C15.7406 5.03691 15.7194 5.01181 15.6981 4.98669L15.3759 4.60388C14.7354 3.84544 14.3077 3.3425 13.9559 3.03162C13.6136 2.72929 13.4936 2.74721 13.4598 2.75232Z" fill="#1C274C"/>
</svg>
