<svg width="24" height="24" viewBox="0 0 24 24" fill="none" xmlns="http://www.w3.org/2000/svg">
<path d="M10.7637 6.19189C13.1374 4.54772 14.3241 3.72539 15.3203 4.08252C15.5112 4.15099 15.6963 4.24974 15.8613 4.37158C16.647 4.9519 16.7698 6.23465 16.8848 8.70264L15.5908 7.40869C14.7122 6.53024 13.2878 6.53024 12.4092 7.40869C11.5305 8.28737 11.5305 9.71262 12.4092 10.5913L13.8184 11.9995L12.4092 13.4087C11.5306 14.2874 11.5306 15.7126 12.4092 16.5913C13.2878 17.4696 14.7122 17.4696 15.5908 16.5913L16.8848 15.2964C16.7698 17.7647 16.6472 19.0481 15.8613 19.6284C15.6963 19.7503 15.5112 19.849 15.3203 19.9175C14.3241 20.2746 13.1373 19.4522 10.7637 17.8081C10.1621 17.3913 9.86079 17.1831 9.52539 17.062C9.4557 17.0368 9.38485 17.0149 9.31348 16.9956C8.97011 16.9027 8.60994 16.9028 7.88965 16.9028C5.87295 16.9028 4.86438 16.9022 4.10059 16.2671C3.96118 16.1511 3.79403 15.9803 3.68066 15.8364C3.05963 15.0479 3.04081 14.1266 3.00293 12.2847C3.00093 12.188 3 12.0923 3 11.9995C3 11.9068 3.00093 11.8119 3.00293 11.7153C3.04082 9.87327 3.05972 8.95204 3.68066 8.16357C3.79403 8.01965 3.96118 7.84887 4.10059 7.73291C4.86439 7.09768 5.87284 7.09717 7.88965 7.09717C8.6099 7.09717 8.97013 7.09722 9.31348 7.00439C9.38483 6.9851 9.45572 6.96313 9.52539 6.93799C9.8608 6.81693 10.1621 6.60864 10.7637 6.19189ZM19.4697 8.46924C19.7626 8.17657 20.2374 8.17657 20.5303 8.46924C20.8231 8.76207 20.823 9.23688 20.5303 9.52979L18.0605 11.9995L20.5303 14.4692C20.8231 14.7621 20.823 15.2369 20.5303 15.5298C20.2374 15.8227 19.7626 15.8227 19.4697 15.5298L17 13.061L14.5303 15.5298C14.2374 15.8227 13.7626 15.8227 13.4697 15.5298C13.177 15.2369 13.1769 14.7621 13.4697 14.4692L15.9395 11.9995L13.4697 9.52979C13.177 9.23688 13.1769 8.76207 13.4697 8.46924C13.7626 8.17656 14.2374 8.17656 14.5303 8.46924L17 10.939L19.4697 8.46924Z" fill="#1C274C"/>
</svg>
