<svg width="24" height="24" viewBox="0 0 24 24" fill="none" xmlns="http://www.w3.org/2000/svg">
<path d="M12 1.25C17.9371 1.25 22.75 6.06294 22.75 12C22.75 17.9371 17.9371 22.75 12 22.75C6.06294 22.75 1.25 17.9371 1.25 12C1.25 6.06294 6.06294 1.25 12 1.25ZM12 2.75C6.89137 2.75 2.75 6.89137 2.75 12C2.75 17.1086 6.89137 21.25 12 21.25C17.1086 21.25 21.25 17.1086 21.25 12C21.25 6.89137 17.1086 2.75 12 2.75ZM12 5.25C13.2282 5.25 14.3824 5.57855 15.376 6.15332C15.7344 6.36081 15.8568 6.82026 15.6494 7.17871C15.4419 7.53705 14.9824 7.65951 14.624 7.45215C13.8526 7.00598 12.9574 6.75 12 6.75C9.9057 6.75 8.09748 7.97629 7.25488 9.75H10C10.4142 9.75 10.75 10.0858 10.75 10.5C10.75 10.9142 10.4142 11.25 10 11.25H6.80273C6.7677 11.495 6.75 11.7454 6.75 12C6.75 12.2546 6.7677 12.505 6.80273 12.75H10C10.4142 12.75 10.75 13.0858 10.75 13.5C10.75 13.9142 10.4142 14.25 10 14.25H7.25488C8.09748 16.0237 9.9057 17.25 12 17.25C12.9574 17.25 13.8526 16.9941 14.624 16.5479C14.9825 16.3405 15.442 16.4637 15.6494 16.8223C15.8564 17.1806 15.7342 17.6393 15.376 17.8467C14.3824 18.4215 13.2282 18.75 12 18.75C9.06101 18.75 6.56042 16.8717 5.63379 14.25H5C4.58579 14.25 4.25 13.9142 4.25 13.5C4.25 13.0858 4.58579 12.75 5 12.75H5.29102C5.2638 12.5037 5.25 12.2535 5.25 12C5.25 11.7465 5.2638 11.4963 5.29102 11.25H5C4.58579 11.25 4.25 10.9142 4.25 10.5C4.25 10.0858 4.58579 9.75 5 9.75H5.63379C6.56042 7.12832 9.06101 5.25 12 5.25Z" fill="#48465C"/>
</svg>
