<svg width="24" height="24" viewBox="0 0 24 24" fill="none" xmlns="http://www.w3.org/2000/svg">
<path d="M11.9996 1.25C14.0707 1.25 15.7496 2.92893 15.7496 5V6.01465C17.0368 6.05328 17.8251 6.19234 18.4264 6.69141C19.2595 7.3829 19.4786 8.55377 19.9176 10.8945L20.6676 14.8945C21.2848 18.186 21.5936 19.8319 20.694 20.916C19.7943 22.0001 18.1193 22 14.7702 22H9.22914C5.88044 22 4.20598 22 3.30629 20.916C2.40658 19.8319 2.71549 18.1861 3.33266 14.8945L4.08266 10.8945C4.52157 8.55362 4.74069 7.38289 5.57387 6.69141C6.17514 6.19241 6.9627 6.05331 8.24965 6.01465V5C8.24965 2.92905 9.92874 1.25019 11.9996 1.25ZM9.1227 10.2607C8.71426 10.1929 8.32847 10.4685 8.26039 10.877L7.26039 16.877C7.19236 17.2855 7.46805 17.6721 7.8766 17.7402C8.28515 17.8083 8.6718 17.5316 8.73988 17.123L9.73988 11.123C9.80775 10.7146 9.53114 10.3288 9.1227 10.2607ZM15.7399 10.877C15.6718 10.4684 15.2852 10.1926 14.8766 10.2607C14.4683 10.3289 14.1925 10.7147 14.2604 11.123L15.2604 17.123C15.3285 17.5316 15.7151 17.8083 16.1237 17.7402C16.5321 17.672 16.8079 17.2854 16.7399 16.877L15.7399 10.877ZM11.9996 2.75C10.7572 2.75019 9.74965 3.75748 9.74965 5V6H14.2496V5C14.2496 3.75736 13.2422 2.75 11.9996 2.75Z" fill="#1C274C"/>
</svg>
