<svg width="24" height="24" viewBox="0 0 24 24" fill="none" xmlns="http://www.w3.org/2000/svg">
<path d="M7.50033 18.0005C8.32861 18.0007 9.00033 18.6722 9.00033 19.5005C9.00014 20.3287 8.32849 21.0003 7.50033 21.0005C6.67202 21.0005 6.00052 20.3288 6.00033 19.5005C6.00033 18.6721 6.6719 18.0005 7.50033 18.0005ZM16.5003 18.0005C17.3286 18.0007 18.0003 18.6722 18.0003 19.5005C18.0001 20.3286 17.3285 21.0003 16.5003 21.0005C15.672 21.0005 15.0005 20.3287 15.0003 19.5005C15.0003 18.6721 15.6719 18.0005 16.5003 18.0005ZM2.08432 2.75146C2.22175 2.36086 2.64971 2.15524 3.04037 2.29248L3.34213 2.39893C3.95838 2.61557 4.48192 2.79935 4.89389 3.00146C5.3344 3.21762 5.71227 3.48424 5.99643 3.8999C6.27841 4.31255 6.39485 4.76583 6.44858 5.26221C6.47261 5.48434 6.48583 5.73026 6.49252 6.00049H17.1302C18.8151 6.00049 20.3317 6.00067 20.7757 6.57764C21.2197 7.15472 21.0467 8.02412 20.6996 9.76318L20.1996 12.188C19.8845 13.7168 19.7268 14.4816 19.1751 14.9312C18.6235 15.3805 17.843 15.3804 16.2826 15.3804H10.9788C8.19016 15.3804 6.79541 15.3801 5.92904 14.4663C5.06292 13.5526 4.99936 12.5814 4.99936 9.64014V7.03857C4.99936 6.2987 4.99852 5.80353 4.95736 5.42334C4.91803 5.06 4.8484 4.87866 4.75815 4.74658C4.6701 4.61774 4.53681 4.49688 4.23373 4.34814C3.91089 4.18973 3.47165 4.03404 2.80404 3.79932L2.5433 3.70752C2.15253 3.57013 1.94694 3.14222 2.08432 2.75146ZM13.0003 8.25049C12.5861 8.25049 12.2503 8.58628 12.2503 9.00049V10.2505H11.0003C10.5861 10.2505 10.2503 10.5863 10.2503 11.0005C10.2504 11.4147 10.5862 11.7505 11.0003 11.7505H12.2503V13.0005C12.2504 13.4147 12.5862 13.7505 13.0003 13.7505C13.4143 13.7503 13.7503 13.4146 13.7503 13.0005V11.7505H15.0003C15.4143 11.7503 15.7503 11.4146 15.7503 11.0005C15.7503 10.5864 15.4144 10.2507 15.0003 10.2505H13.7503V9.00049C13.7503 8.58639 13.4144 8.25067 13.0003 8.25049Z" fill="#1C274C"/>
</svg>
