<svg width="24" height="24" viewBox="0 0 24 24" fill="none" xmlns="http://www.w3.org/2000/svg">
<path d="M12.0576 1.25C14.3657 1.24999 16.1745 1.24974 17.5859 1.43945C19.0306 1.63369 20.1706 2.03977 21.0654 2.93457C21.9602 3.82938 22.3662 4.96932 22.5605 6.41406C22.7502 7.82544 22.75 9.63432 22.75 11.9424V12.0576C22.75 14.3657 22.7502 16.1745 22.5605 17.5859C22.3662 19.0306 21.9602 20.1706 21.0654 21.0654C20.1706 21.9602 19.0306 22.3662 17.5859 22.5605C16.1745 22.7502 14.3657 22.75 12.0576 22.75H11.9424C9.63432 22.75 7.82544 22.7502 6.41406 22.5605C4.96932 22.3662 3.82938 21.9602 2.93457 21.0654C2.03977 20.1706 1.63369 19.0306 1.43945 17.5859C1.24974 16.1745 1.24999 14.3657 1.25 12.0576V11.9424C1.24999 9.63433 1.24974 7.82544 1.43945 6.41406C1.63369 4.96932 2.03976 3.82938 2.93457 2.93457C3.82938 2.03976 4.96932 1.63369 6.41406 1.43945C7.82544 1.24974 9.63433 1.24999 11.9424 1.25H12.0576ZM12 2.75C9.62178 2.75 7.91326 2.75198 6.61328 2.92676C5.33508 3.09865 4.56472 3.42551 3.99512 3.99512C3.42551 4.56472 3.09865 5.33508 2.92676 6.61328C2.75198 7.91326 2.75 9.62178 2.75 12C2.75 14.3782 2.75198 16.0867 2.92676 17.3867C3.09865 18.6649 3.42551 19.4352 3.99512 20.0049C4.56472 20.5745 5.33508 20.9014 6.61328 21.0732C7.91326 21.248 9.62178 21.25 12 21.25C14.3782 21.25 16.0867 21.248 17.3867 21.0732C18.6649 20.9014 19.4352 20.5745 20.0049 20.0049C20.5745 19.4352 20.9014 18.6649 21.0732 17.3867C21.248 16.0867 21.25 14.3782 21.25 12C21.25 9.62178 21.248 7.91326 21.0732 6.61328C20.9014 5.33508 20.5745 4.56472 20.0049 3.99512C19.4352 3.42551 18.6649 3.09865 17.3867 2.92676C16.0867 2.75198 14.3782 2.75 12 2.75ZM13.9678 5.25C14.5436 5.25 15.0148 5.49205 15.4463 5.82129C15.8513 6.13036 16.2981 6.57837 16.8242 7.10449L16.8955 7.17578C17.4217 7.70185 17.8696 8.14868 18.1787 8.55371C18.5079 8.98523 18.75 9.45647 18.75 10.0322C18.7499 10.6078 18.5078 11.0783 18.1787 11.5098C17.8696 11.9148 17.4217 12.3625 16.8955 12.8887L12.8887 16.8955C12.3625 17.4217 11.9148 17.8696 11.5098 18.1787C11.0783 18.5078 10.6078 18.7499 10.0322 18.75C9.45647 18.75 8.98523 18.5079 8.55371 18.1787C8.14868 17.8696 7.70185 17.4217 7.17578 16.8955L7.10449 16.8242C6.57836 16.2981 6.13037 15.8513 5.82129 15.4463C5.49205 15.0148 5.25 14.5436 5.25 13.9678C5.25012 13.3922 5.49213 12.9217 5.82129 12.4902C6.13037 12.0852 6.5783 11.6375 7.10449 11.1113L11.1113 7.10449C11.6375 6.5783 12.0852 6.13037 12.4902 5.82129C12.9217 5.49213 13.3922 5.25012 13.9678 5.25ZM8.2002 12.1367C7.62858 12.7084 7.2543 13.085 7.01367 13.4004C6.78658 13.6981 6.75009 13.8518 6.75 13.9678C6.75 14.0837 6.78623 14.238 7.01367 14.5361C7.25431 14.8515 7.62854 15.2282 8.2002 15.7998C8.77185 16.3715 9.14847 16.7457 9.46387 16.9863C9.76196 17.2138 9.91631 17.25 10.0322 17.25C10.1482 17.2499 10.302 17.2135 10.5996 16.9863C10.915 16.7457 11.2916 16.3714 11.8633 15.7998L12.1201 15.543L8.45703 11.8799L8.2002 12.1367ZM13.9678 6.75C13.8518 6.75009 13.6981 6.78658 13.4004 7.01367C13.085 7.2543 12.7084 7.62858 12.1367 8.2002L9.51758 10.8193L13.1807 14.4824L15.7998 11.8633C16.3714 11.2916 16.7457 10.915 16.9863 10.5996C17.2135 10.302 17.2499 10.1482 17.25 10.0322C17.25 9.91631 17.2138 9.76196 16.9863 9.46387C16.7457 9.14847 16.3715 8.77185 15.7998 8.2002C15.2282 7.62854 14.8515 7.25431 14.5361 7.01367C14.238 6.78623 14.0837 6.75 13.9678 6.75Z" fill="#1C274C"/>
</svg>
