<svg width="24" height="24" viewBox="0 0 24 24" fill="none" xmlns="http://www.w3.org/2000/svg">
<path d="M12 17.25C12.4142 17.25 12.75 17.5858 12.75 18V21C12.75 21.4142 12.4142 21.75 12 21.75C11.5858 21.75 11.25 21.4142 11.25 21V18C11.25 17.5858 11.5858 17.25 12 17.25ZM6 16.25C6.41421 16.25 6.75 16.5858 6.75 17V20C6.75 20.4142 6.41421 20.75 6 20.75C5.58579 20.75 5.25 20.4142 5.25 20V17C5.25 16.5858 5.58579 16.25 6 16.25ZM18 16.25C18.4142 16.25 18.75 16.5858 18.75 17V20C18.75 20.4142 18.4142 20.75 18 20.75C17.5858 20.75 17.25 20.4142 17.25 20V17C17.25 16.5858 17.5858 16.25 18 16.25ZM12.2715 2.25C14.9099 2.25013 17.113 4.11505 17.6338 6.59863C18.9917 6.96653 20.1726 7.47316 21.0547 8.09766C22.0202 8.78137 22.75 9.70197 22.75 10.8262C22.75 11.6631 22.3406 12.393 21.7412 12.9844C21.1446 13.5732 20.3194 14.0695 19.3604 14.4697C17.4389 15.2716 14.8358 15.75 12 15.75C9.16417 15.75 6.56118 15.2716 4.63965 14.4697C3.68063 14.0694 2.85547 13.5732 2.25879 12.9844C1.6595 12.393 1.25 11.6632 1.25 10.8262C1.25001 9.70198 1.97976 8.78136 2.94531 8.09766C3.82732 7.47316 5.00829 6.96653 6.36621 6.59863C6.88699 4.11505 9.09015 2.25013 11.7285 2.25H12.2715ZM17.6826 8.17383C17.6123 8.39507 17.4762 8.62355 17.2285 8.7959C16.6273 9.21404 15.2456 9.75 12 9.75C8.75443 9.75 7.37266 9.21404 6.77148 8.7959C6.52374 8.62355 6.3877 8.39507 6.31738 8.17383C5.27514 8.49236 4.42494 8.88863 3.8125 9.32227C3.02555 9.8795 2.75001 10.4057 2.75 10.8262C2.75 11.1417 2.89988 11.5099 3.3125 11.917C3.72779 12.3268 4.36736 12.73 5.21777 13.085C6.91553 13.7936 9.31299 14.25 12 14.25C14.687 14.25 17.0844 13.7936 18.7822 13.085C19.6327 12.73 20.2722 12.3268 20.6875 11.917C21.1001 11.5099 21.25 11.1417 21.25 10.8262C21.25 10.4057 20.9745 9.87951 20.1875 9.32227C19.575 8.88863 18.7248 8.49236 17.6826 8.17383ZM12 11C12.5523 11 13 11.4477 13 12C13 12.5523 12.5523 13 12 13C11.4477 13 11 12.5523 11 12C11 11.4477 11.4477 11 12 11ZM7 10C7.55228 10 8 10.4477 8 11C8 11.5523 7.55228 12 7 12C6.44772 12 6 11.5523 6 11C6 10.4477 6.44772 10 7 10ZM17 10C17.5523 10 18 10.4477 18 11C18 11.5523 17.5523 12 17 12C16.4477 12 16 11.5523 16 11C16 10.4477 16.4477 10 17 10ZM11.7285 3.75C9.56131 3.75015 7.79887 5.48296 7.75098 7.63867C8.13806 7.84516 9.25423 8.25 12 8.25C14.7458 8.25 15.8619 7.84516 16.249 7.63867C16.2011 5.48296 14.4387 3.75015 12.2715 3.75H11.7285Z" fill="#1C274C"/>
</svg>
