<svg width="24" height="24" viewBox="0 0 24 24" fill="none" xmlns="http://www.w3.org/2000/svg">
<path d="M15.6992 3.25C16.5976 3.24997 17.3467 3.25013 17.9414 3.33008C18.5692 3.41449 19.1363 3.60019 19.5918 4.05566C20.047 4.511 20.233 5.07754 20.3174 5.70508C20.3974 6.29987 20.3976 7.04976 20.3975 7.94824V15.2324L21.9092 16.793L21.9131 16.7969L21.9209 16.8037L21.9287 16.8115L21.9336 16.8174L21.9443 16.8281L21.9541 16.8398L21.959 16.8438L21.9668 16.8525L21.9756 16.8633L21.9844 16.873L22.1328 17.0586C22.4459 17.4792 22.7045 18.0426 22.7441 18.6055L22.7451 18.6094C22.7463 18.6195 22.7468 18.6281 22.7471 18.6328L22.749 18.6582V18.7734C22.7492 18.9042 22.7492 19.0933 22.7441 19.1738C22.6566 20.5557 21.5557 21.6566 20.1738 21.7441C20.0867 21.7496 19.9892 21.75 19.8633 21.75H4.13672C4.01075 21.75 3.9133 21.7496 3.82617 21.7441C2.44431 21.6567 1.34339 20.5557 1.25586 19.1738C1.2508 19.0939 1.25077 18.9069 1.25098 18.7764V18.6582L1.25293 18.6328C1.25329 18.6281 1.25378 18.6195 1.25488 18.6094L1.25586 18.6055C1.29552 18.0427 1.55411 17.4792 1.86719 17.0586L2.01562 16.873L2.02441 16.8633L2.0332 16.8525L2.04102 16.8438L2.0459 16.8398L2.05566 16.8281L2.06641 16.8174L2.07129 16.8115L2.0791 16.8037L2.08691 16.7969L2.08984 16.793L3.60254 15.2324V7.94824C3.60251 7.04976 3.60265 6.29987 3.68262 5.70508C3.76703 5.07754 3.95297 4.511 4.4082 4.05566C4.86367 3.60019 5.4308 3.41449 6.05859 3.33008C6.65333 3.25014 7.40244 3.24997 8.30078 3.25H15.6992ZM3.15625 17.8486C2.92848 18.1026 2.76248 18.4755 2.75098 18.7266V18.9492C2.7511 18.9862 2.75156 19.0183 2.75195 19.0439C2.75226 19.0636 2.75281 19.0745 2.75293 19.0781C2.79261 19.7062 3.29276 20.2072 3.9209 20.2471C3.95432 20.2492 4.00047 20.25 4.16113 20.25H19.8389C19.9995 20.25 20.0457 20.2492 20.0791 20.2471C20.7071 20.2072 21.2072 19.7071 21.2471 19.0791C21.2471 19.0769 21.2477 19.0663 21.248 19.0439C21.2484 19.0183 21.2489 18.9862 21.249 18.9492V18.7266C21.2374 18.4756 21.0716 18.1026 20.8438 17.8486L19.3291 16.2861H4.6709L3.15625 17.8486ZM14.5 17.75C14.9142 17.75 15.25 18.0858 15.25 18.5C15.25 18.9142 14.9142 19.25 14.5 19.25H9.5C9.08579 19.25 8.75 18.9142 8.75 18.5C8.75 18.0858 9.08579 17.75 9.5 17.75H14.5ZM2.28418 18.0264C2.27835 18.0235 2.27212 18.0201 2.2666 18.0176C2.26421 18.0169 2.26128 18.0163 2.25879 18.0156C2.26709 18.019 2.27597 18.0229 2.28418 18.0264ZM21.7334 18.0176C21.7279 18.0202 21.7218 18.0234 21.7158 18.0264C21.7241 18.0228 21.7329 18.0191 21.7412 18.0156C21.7387 18.0163 21.7359 18.0168 21.7334 18.0176ZM2.30859 18.0166C2.31563 18.0192 2.32327 18.022 2.33105 18.0244C2.32069 18.0204 2.31013 18.016 2.2998 18.0117C2.30276 18.0134 2.30573 18.015 2.30859 18.0166ZM21.6699 18.0234C21.6774 18.0211 21.6847 18.0191 21.6914 18.0166C21.6942 18.015 21.6973 18.0134 21.7002 18.0117C21.6902 18.0159 21.6799 18.0196 21.6699 18.0234ZM8.35254 4.75C7.38906 4.75 6.7417 4.75154 6.25879 4.81641C5.79732 4.87845 5.59907 4.98589 5.46875 5.11621C5.33853 5.24652 5.23194 5.44416 5.16992 5.90527C5.10498 6.38831 5.10254 7.03599 5.10254 8V14.7861H18.8975V8C18.8975 7.03599 18.895 6.38831 18.8301 5.90527C18.7681 5.4442 18.6614 5.24652 18.5312 5.11621C18.4009 4.98589 18.2027 4.87845 17.7412 4.81641C17.2583 4.75153 16.6109 4.75 15.6475 4.75H8.35254ZM12 6C12.4142 6 12.75 6.33579 12.75 6.75C12.75 7.16422 12.4142 7.5 12 7.5C11.5858 7.49997 11.25 7.1642 11.25 6.75C11.25 6.33581 11.5858 6.00003 12 6Z" fill="#48465C"/>
</svg>
