<svg width="24" height="24" viewBox="0 0 24 24" fill="none" xmlns="http://www.w3.org/2000/svg">
<path d="M6 14.25C8.07107 14.25 9.75 15.9289 9.75 18C9.74977 20.0709 8.07093 21.75 6 21.75C3.92907 21.75 2.25023 20.0709 2.25 18C2.25 15.9289 3.92893 14.25 6 14.25ZM18 14.25C20.0711 14.25 21.75 15.9289 21.75 18C21.7498 20.0709 20.071 21.75 18 21.75C15.929 21.75 14.2502 20.0709 14.25 18C14.25 15.9289 15.9289 14.25 18 14.25ZM6 15.75C4.75736 15.75 3.75 16.7574 3.75 18C3.75023 19.2424 4.7575 20.25 6 20.25C7.2425 20.25 8.24977 19.2424 8.25 18C8.25 16.7574 7.24264 15.75 6 15.75ZM18 15.75C16.7574 15.75 15.75 16.7574 15.75 18C15.7502 19.2424 16.7575 20.25 18 20.25C19.2425 20.25 20.2498 19.2424 20.25 18C20.25 16.7574 19.2426 15.75 18 15.75ZM9.95801 5.80664C10.453 5.76165 10.8511 5.96663 11.1748 6.20801C11.4722 6.4299 11.7992 6.75448 12.1611 7.11426L12.7734 7.72363C13.6827 8.62724 13.9997 8.9233 14.3799 9.08008C14.7598 9.23663 15.1933 9.25 16.4746 9.25H18.5C18.9142 9.25 19.25 9.58579 19.25 10C19.2498 10.414 18.9141 10.75 18.5 10.75H16.332C15.2493 10.7506 14.4965 10.7508 13.8076 10.4668C13.1187 10.1826 12.5851 9.65141 11.8174 8.8877C11.7843 8.85476 11.7498 8.82092 11.7158 8.78711L11.1387 8.21387C10.73 7.80767 10.4797 7.56046 10.2783 7.41016C10.1851 7.34065 10.1311 7.31429 10.1055 7.30469C10.1002 7.30271 10.0961 7.30238 10.0938 7.30176C10.0916 7.3028 10.0877 7.30381 10.083 7.30664C10.0596 7.32069 10.0118 7.35702 9.93262 7.44238C9.76164 7.62662 9.55903 7.91433 9.23047 8.3877L8.00391 10.1543C7.6695 10.6361 7.46635 10.9321 7.35156 11.1611C7.29848 11.267 7.28233 11.3261 7.27734 11.3535C7.27639 11.3588 7.2756 11.3627 7.27539 11.3652C7.27684 11.3671 7.27962 11.37 7.2832 11.374C7.30184 11.3947 7.3472 11.4366 7.44824 11.499C7.66614 11.6336 7.99417 11.7783 8.53125 12.0127L10.0469 12.6748C10.6944 12.9573 11.2405 13.195 11.6611 13.4414C12.1078 13.703 12.4859 14.0143 12.7393 14.4775C12.9924 14.9405 13.0499 15.4254 13.0293 15.9424C13.0099 16.4295 12.9161 17.018 12.8047 17.7158L12.7402 18.1182C12.6747 18.527 12.2907 18.8055 11.8818 18.7402C11.4729 18.675 11.1947 18.2907 11.2598 17.8818L11.3164 17.5225C11.4366 16.77 11.5149 16.2702 11.5303 15.8828C11.5449 15.5157 11.4976 15.3339 11.4229 15.1973C11.3482 15.0606 11.2205 14.9222 10.9033 14.7363C10.5688 14.5404 10.1056 14.3369 9.40723 14.0322L7.93164 13.3877C7.91623 13.381 7.90008 13.3748 7.88477 13.3682C7.40825 13.1603 6.97943 12.9723 6.65918 12.7744C6.31117 12.5593 5.96964 12.2597 5.83203 11.7744C5.69446 11.2892 5.8275 10.855 6.01074 10.4893C6.17945 10.1527 6.44668 9.76788 6.74316 9.34082C6.75269 9.32709 6.76189 9.31265 6.77148 9.29883L7.99902 7.53223C8.00849 7.51859 8.01795 7.50476 8.02734 7.49121C8.31826 7.07199 8.5806 6.69385 8.83301 6.42188C9.10781 6.12578 9.46264 5.85178 9.95801 5.80664ZM15 2C16.1046 2 17 2.89543 17 4C17 5.10457 16.1046 6 15 6C13.8954 6 13 5.10457 13 4C13 2.89543 13.8954 2 15 2Z" fill="#48465C"/>
</svg>
