<svg width="24" height="24" viewBox="0 0 24 24" fill="none" xmlns="http://www.w3.org/2000/svg">
<path d="M10.5457 17.9258C10.8387 17.6332 11.3135 17.633 11.6062 17.9258C11.899 18.2189 11.8993 18.6946 11.6062 18.9873L9.91382 20.6768C9.78263 20.808 9.78256 21.0202 9.91382 21.1514C10.0457 21.2831 10.2604 21.2831 10.3923 21.1514L10.5457 20.998C10.8387 20.7054 11.3135 20.7052 11.6062 20.998C11.8989 21.2909 11.8989 21.7659 11.6062 22.0586L11.4519 22.2129C10.7345 22.9293 9.57173 22.9293 8.85425 22.2129C8.13624 21.4958 8.13624 20.3324 8.85425 19.6152L10.5457 17.9258ZM18.6707 1.25C19.4241 1.24997 20.0638 1.25009 20.574 1.31836C21.1167 1.39102 21.6238 1.5535 22.0339 1.96191C22.4445 2.37077 22.6082 2.87701 22.6814 3.41895C22.7501 3.92748 22.7498 4.56475 22.7498 5.31445V5.99219C22.7503 6.89296 22.7512 7.55266 22.4998 8.15723C22.2485 8.76159 21.7796 9.22756 21.1394 9.86426L21.0447 9.95898L18.7781 12.2158L18.8181 12.2764C19.1589 12.8019 19.4383 13.2322 19.6404 13.6045C19.8508 13.9922 20.0038 14.3629 20.0652 14.7754C20.1628 15.4311 20.0744 16.1046 19.8162 16.7227C19.7176 16.9584 19.5493 17.2012 19.3826 17.416C19.2068 17.6425 18.9921 17.8878 18.7634 18.1367C18.3084 18.6317 17.7626 19.1756 17.28 19.6562L17.2 19.7363C16.5256 20.4075 15.3557 20.1911 14.9949 19.2871C14.7961 18.7892 14.7185 18.5979 14.6218 18.4219C14.5313 18.2572 14.4274 18.1 14.3113 17.9521C14.1889 17.7961 14.0456 17.6508 13.6775 17.2842L13.2546 16.9141C13.1837 16.9216 13.1117 16.9258 13.0388 16.9258C12.46 16.9257 11.9865 16.6827 11.5505 16.3516C11.1411 16.0405 10.6886 15.59 10.156 15.0596L8.8894 13.7988C8.35676 13.2685 7.90401 12.8179 7.59155 12.4102C7.25911 11.9762 7.01451 11.503 7.0144 10.9238C7.0144 10.8365 7.02009 10.7503 7.03101 10.666L6.34351 9.98145C6.30132 9.93944 6.28533 9.92278 6.26929 9.90723C5.95314 9.60086 5.5807 9.35739 5.17261 9.18945C5.15194 9.18094 5.13038 9.17232 5.07495 9.15039L4.74585 9.01953C3.7992 8.64488 3.54248 7.42304 4.26636 6.70215L4.27417 6.69531C4.75674 6.21479 5.30247 5.67168 5.79956 5.21875C6.04949 4.99103 6.29584 4.77756 6.52319 4.60254C6.73898 4.43641 6.98241 4.26972 7.21851 4.17188C7.83814 3.9151 8.51277 3.8269 9.16968 3.92383C9.58246 3.98476 9.95349 4.13631 10.3425 4.3457C10.7164 4.54689 11.1484 4.82555 11.6765 5.16504L11.7429 5.20703L14.0125 2.94727L14.1062 2.85254C14.7461 2.21447 15.2141 1.74899 15.8201 1.49902C16.4257 1.24924 17.0864 1.24943 17.9919 1.25H18.6707ZM9.57202 16.125C9.86483 15.8323 10.3397 15.8324 10.6326 16.125C10.9254 16.4179 10.9254 16.8926 10.6326 17.1855L8.53003 19.2881C8.23714 19.5809 7.76236 19.581 7.46948 19.2881C7.17685 18.9952 7.17673 18.5204 7.46948 18.2275L9.57202 16.125ZM6.41187 16.5098C6.70801 16.2201 7.18279 16.2253 7.47241 16.5215C7.76176 16.8176 7.75675 17.2925 7.46069 17.582L5.75073 19.2539C5.45463 19.5432 4.97974 19.5381 4.69019 19.2422C4.40067 18.9462 4.40607 18.4713 4.7019 18.1816L6.41187 16.5098ZM15.9402 15.041C15.5157 15.4637 15.1468 15.8318 14.8171 16.1162C14.7838 16.1449 14.7501 16.1732 14.7166 16.2012L14.7527 16.2373C15.0893 16.5724 15.3043 16.7862 15.4919 17.0254C15.6583 17.2374 15.8065 17.4631 15.9363 17.6992C16.0623 17.9289 16.1636 18.1696 16.3015 18.5137C16.7662 18.0508 17.254 17.5628 17.6589 17.1221C17.8739 16.8883 18.0569 16.6764 18.197 16.4961C18.346 16.304 18.4124 16.1899 18.4314 16.1445C18.5875 15.771 18.637 15.3733 18.5808 14.9961C18.555 14.8226 18.4878 14.6258 18.322 14.3203C18.1757 14.0507 17.9734 13.732 17.6921 13.2969L15.9402 15.041ZM6.79663 13.3525C7.0895 13.06 7.56436 13.0599 7.85718 13.3525C8.14998 13.6454 8.14981 14.1202 7.85718 14.4131L5.73999 16.5303C5.4471 16.8232 4.97234 16.8232 4.67944 16.5303C4.38665 16.2374 4.38659 15.7626 4.67944 15.4697L6.79663 13.3525ZM5.01831 12.3564C5.31134 12.0637 5.78613 12.0635 6.07886 12.3564C6.37157 12.6495 6.37094 13.1243 6.07788 13.417L4.38647 15.1074C3.66906 15.8237 2.50629 15.8236 1.78882 15.1074C1.07081 14.3902 1.07081 13.2269 1.78882 12.5098L1.94214 12.3564C2.23512 12.0637 2.70994 12.0636 3.00269 12.3564C3.29528 12.6494 3.2954 13.1243 3.00269 13.417L2.84839 13.5713C2.71727 13.7025 2.7171 13.9148 2.84839 14.0459C2.98026 14.1777 3.19504 14.1777 3.3269 14.0459L5.01831 12.3564ZM18.1257 2.75C17.0291 2.75 16.6887 2.76358 16.3923 2.88574C16.0962 3.00787 15.8458 3.23729 15.0701 4.00977L9.98413 9.0752C9.54969 9.50781 9.22325 9.83309 8.97827 10.1123C8.73193 10.3931 8.61389 10.5778 8.55835 10.7158C8.52678 10.7942 8.5144 10.8591 8.5144 10.9238C8.51448 11.0414 8.55256 11.1973 8.78296 11.498C9.02677 11.8161 9.40602 12.1959 9.98413 12.7715L10.0515 12.8398L11.3152 11.582C11.6087 11.2898 12.0834 11.2905 12.3757 11.584C12.6679 11.8774 12.6671 12.3523 12.3738 12.6445L11.115 13.8984L11.1785 13.9609C11.7566 14.5366 12.1382 14.9143 12.4578 15.1572C12.7599 15.3868 12.9178 15.4258 13.0388 15.4258C13.1006 15.4258 13.1611 15.4154 13.2312 15.3896C13.3674 15.3395 13.5521 15.2268 13.8376 14.9805C14.122 14.7352 14.4535 14.4047 14.8992 13.9609L19.9861 8.89648C20.7622 8.12363 20.9928 7.87478 21.115 7.58105C21.2368 7.28778 21.2498 6.95072 21.2498 5.8584V5.36523C21.2498 4.55083 21.2486 4.01547 21.1951 3.61914C21.1445 3.24517 21.0605 3.10837 20.9763 3.02441C20.8915 2.94001 20.7524 2.85524 20.3748 2.80469C19.976 2.75136 19.438 2.75 18.6208 2.75H18.1257ZM14.8992 5.63281C15.8516 4.68434 17.3949 4.68439 18.3474 5.63281C19.3016 6.58303 19.3015 8.12495 18.3474 9.0752C17.3949 10.0237 15.8517 10.0237 14.8992 9.0752C13.9451 8.12496 13.945 6.58299 14.8992 5.63281ZM8.95093 5.4082C8.57015 5.352 8.16906 5.40166 7.79272 5.55762C7.74644 5.5768 7.63111 5.64253 7.43823 5.79102C7.25696 5.93056 7.04424 6.1131 6.80933 6.32715C6.36867 6.72866 5.88074 7.21198 5.41772 7.67285L5.62671 7.75586L5.63257 7.75781C5.68137 7.77712 5.71278 7.78896 5.7439 7.80176C6.32765 8.04199 6.86027 8.39111 7.31323 8.83008C7.33754 8.85363 7.36157 8.87761 7.39917 8.91504L7.73901 9.25391C7.77554 9.21023 7.81243 9.16626 7.85034 9.12305C8.13246 8.80148 8.49419 8.44131 8.90894 8.02832L10.6541 6.29102C10.2198 6.01261 9.9014 5.8122 9.63159 5.66699C9.32463 5.50178 9.12645 5.43414 8.95093 5.4082ZM17.2888 6.69629C16.9215 6.3306 16.325 6.3306 15.9578 6.69629C15.5925 7.06026 15.5924 7.64883 15.9578 8.0127C16.3249 8.37824 16.9215 8.37814 17.2888 8.0127C17.6543 7.64879 17.6542 7.06025 17.2888 6.69629Z" fill="#1C274C"/>
</svg>
