<svg width="24" height="24" viewBox="0 0 24 24" fill="none" xmlns="http://www.w3.org/2000/svg">
<path d="M16.1709 16C16.9275 16 17.306 15.9999 17.6289 16.166C17.9519 16.3323 18.1717 16.6403 18.6113 17.2559L19.7412 18.8379C20.7304 20.2228 21.2254 20.9156 20.9463 21.458C20.667 22.0002 19.8153 22 18.1133 22H5.88672C4.18476 22 3.33295 22.0002 3.05371 21.458C2.77459 20.9157 3.2696 20.2228 4.25879 18.8379L5.38867 17.2559C5.82833 16.6403 6.04817 16.3323 6.37109 16.166C6.69414 15.9998 7.07325 16 7.83008 16H16.1709ZM6 11.25C6.41421 11.25 6.75 11.5858 6.75 12C6.75 12.4142 6.41421 12.75 6 12.75H2C1.58579 12.75 1.25 12.4142 1.25 12C1.25 11.5858 1.58579 11.25 2 11.25H6ZM14 11.25C14.4142 11.25 14.75 11.5858 14.75 12C14.75 12.4142 14.4142 12.75 14 12.75H10C9.58579 12.75 9.25 12.4142 9.25 12C9.25 11.5858 9.58579 11.25 10 11.25H14ZM22 11.25C22.4142 11.25 22.75 11.5858 22.75 12C22.75 12.4142 22.4142 12.75 22 12.75H18C17.5858 12.75 17.25 12.4142 17.25 12C17.25 11.5858 17.5858 11.25 18 11.25H22ZM18.1133 2C19.8152 2 20.667 1.9998 20.9463 2.54199C21.2254 3.08438 20.7304 3.7772 19.7412 5.16211L18.6113 6.74414C18.1716 7.35968 17.9519 7.66777 17.6289 7.83398C17.306 8.0002 16.9275 8 16.1709 8H7.83008C7.07325 8 6.69414 8.00023 6.37109 7.83398C6.04815 7.66776 5.82835 7.35968 5.38867 6.74414L4.25879 5.16211C3.26959 3.77723 2.77459 3.08437 3.05371 2.54199C3.33296 1.99977 4.18478 2 5.88672 2H18.1133Z" fill="#48465C"/>
</svg>
