<svg width="24" height="24" viewBox="0 0 24 24" fill="none" xmlns="http://www.w3.org/2000/svg">
<path d="M14.0495 15.4004C14.3809 15.1519 14.8517 15.2184 15.1002 15.5498L16.1413 16.9395C16.1752 16.9846 16.1854 16.9969 16.194 17.0078C16.3584 17.2154 16.5844 17.3657 16.8395 17.4365C16.8529 17.4402 16.8676 17.4444 16.9225 17.458L18.4079 17.8291C19.7843 18.1734 20.7497 19.4103 20.7497 20.8291C20.7495 21.8901 19.8897 22.75 18.8288 22.75H16.5075C15.9059 22.75 15.5349 22.7501 15.1657 22.7021C14.9749 22.6774 14.7856 22.6424 14.5983 22.5986C14.2356 22.5139 13.8883 22.3841 13.3249 22.1729L11.1208 21.3467C10.7406 21.6316 10.4892 21.8165 10.2223 21.9717C9.54148 22.3673 8.7866 22.619 8.00455 22.7109C7.66964 22.7503 7.32854 22.75 6.77505 22.75H5.17154C4.11061 22.75 3.24983 21.8901 3.24966 20.8291C3.24966 19.4102 4.21583 18.1733 5.59244 17.8291L7.07681 17.458C7.13185 17.4443 7.14744 17.4402 7.1608 17.4365C7.41589 17.3656 7.642 17.2154 7.8063 17.0078C7.81489 16.9969 7.8242 16.9846 7.85806 16.9395L8.90005 15.5498C9.14862 15.2186 9.61855 15.1519 9.94986 15.4004C10.2811 15.6489 10.3487 16.1188 10.1002 16.4502L9.05337 17.8457C9.02628 17.8818 9.00513 17.9106 8.98306 17.9385C8.62135 18.3958 8.12292 18.7259 7.56119 18.8818C7.52703 18.8914 7.49257 18.9002 7.44888 18.9111L7.44107 18.9131L5.95572 19.2842C5.24706 19.4616 4.74966 20.0986 4.74966 20.8291C4.74983 21.0616 4.93904 21.25 5.17154 21.25H6.7272C7.34361 21.25 7.59259 21.2486 7.82974 21.2207C8.40778 21.1528 8.96618 20.9673 9.46939 20.6748C9.67576 20.5548 9.87489 20.4058 10.3678 20.0361L12.5495 18.4004C12.8809 18.1519 13.3517 18.2184 13.6002 18.5498C13.8487 18.8811 13.7811 19.3511 13.4499 19.5996L12.5456 20.2783L13.8034 20.75C14.4296 20.9848 14.6823 21.0786 14.9391 21.1387C15.0776 21.1711 15.2179 21.1965 15.359 21.2148C15.6206 21.2488 15.8901 21.25 16.5592 21.25H18.8288C19.0613 21.25 19.2495 21.0616 19.2497 20.8291C19.2497 20.0985 18.7524 19.4615 18.0436 19.2842L16.5514 18.9111C16.5075 18.9001 16.4724 18.8914 16.4381 18.8818C15.8765 18.726 15.3789 18.3956 15.0172 17.9385C14.995 17.9106 14.9732 17.8809 14.946 17.8447L13.9001 16.4502C13.6517 16.119 13.7185 15.649 14.0495 15.4004ZM10.8825 8.34277C11.6179 8.21897 12.3825 8.21891 13.1178 8.34277C16.3481 8.88686 18.7496 11.7143 18.7497 15.0195L18.7506 15.0225L21.3385 16.3311C21.7078 16.5179 21.856 16.9684 21.6696 17.3379C21.4828 17.7076 21.0315 17.8557 20.6618 17.6689L18.0729 16.3613C17.5657 16.105 17.2497 15.5841 17.2497 15.0195C17.2496 12.4461 15.3764 10.2447 12.8688 9.82227C12.2982 9.72617 11.702 9.7262 11.1315 9.82227C8.6238 10.2447 6.7497 12.4461 6.74966 15.0195C6.74966 15.584 6.43447 16.105 5.9274 16.3613L3.33853 17.6689C2.96884 17.8557 2.51753 17.7076 2.33072 17.3379C2.14405 16.9683 2.29221 16.5179 2.66177 16.3311L5.24869 15.0234L5.24966 15.0195C5.24969 11.7143 7.65225 8.88686 10.8825 8.34277ZM11.9997 2C13.3804 2 14.4997 3.11929 14.4997 4.5C14.4997 5.88071 13.3804 7 11.9997 7C10.6191 6.99987 9.49966 5.88063 9.49966 4.5C9.49966 3.11937 10.6191 2.00013 11.9997 2Z" fill="#1C274C"/>
</svg>
