<svg width="24" height="24" viewBox="0 0 24 24" fill="none" xmlns="http://www.w3.org/2000/svg">
<path d="M14.0494 15.4004C14.3808 15.1519 14.8517 15.2184 15.1002 15.5498L16.1412 16.9395C16.1752 16.9846 16.1854 16.9969 16.194 17.0078C16.3583 17.2154 16.5843 17.3657 16.8395 17.4365C16.8529 17.4402 16.8676 17.4444 16.9225 17.458L18.4078 17.8291C19.7843 18.1734 20.7496 19.4103 20.7496 20.8291C20.7495 21.8901 19.8896 22.75 18.8287 22.75H16.5074C15.9058 22.75 15.5349 22.7501 15.1656 22.7021C14.9749 22.6774 14.7856 22.6424 14.5983 22.5986C14.2356 22.5139 13.8882 22.3841 13.3248 22.1729L11.1207 21.3467C10.7405 21.6316 10.4892 21.8165 10.2223 21.9717C9.54145 22.3673 8.78657 22.619 8.00452 22.7109C7.66961 22.7503 7.32851 22.75 6.77502 22.75H5.17151C4.11058 22.75 3.2498 21.8901 3.24963 20.8291C3.24963 19.4102 4.2158 18.1733 5.59241 17.8291L7.07678 17.458C7.13182 17.4443 7.14741 17.4402 7.16077 17.4365C7.41586 17.3656 7.64197 17.2154 7.80627 17.0078C7.81486 16.9969 7.82417 16.9846 7.85803 16.9395L8.90002 15.5498C9.14859 15.2186 9.61852 15.1519 9.94983 15.4004C10.2811 15.6489 10.3486 16.1188 10.1002 16.4502L9.05334 17.8457C9.02625 17.8818 9.0051 17.9106 8.98303 17.9385C8.62132 18.3958 8.12289 18.7259 7.56116 18.8818C7.527 18.8914 7.49254 18.9002 7.44885 18.9111L7.44104 18.9131L5.95569 19.2842C5.24703 19.4616 4.74963 20.0986 4.74963 20.8291C4.7498 21.0616 4.93901 21.25 5.17151 21.25H6.72717C7.34359 21.25 7.59256 21.2486 7.82971 21.2207C8.40775 21.1528 8.96615 20.9673 9.46936 20.6748C9.67573 20.5548 9.87486 20.4058 10.3678 20.0361L12.5494 18.4004C12.8808 18.1519 13.3517 18.2184 13.6002 18.5498C13.8486 18.8811 13.7811 19.3511 13.4498 19.5996L12.5455 20.2783L13.8033 20.75C14.4296 20.9848 14.6823 21.0786 14.9391 21.1387C15.0776 21.1711 15.2179 21.1965 15.359 21.2148C15.6206 21.2488 15.8901 21.25 16.5592 21.25H18.8287C19.0612 21.25 19.2495 21.0616 19.2496 20.8291C19.2496 20.0985 18.7524 19.4615 18.0436 19.2842L16.5514 18.9111C16.5075 18.9001 16.4724 18.8914 16.4381 18.8818C15.8765 18.726 15.3789 18.3956 15.0172 17.9385C14.995 17.9106 14.9731 17.8809 14.9459 17.8447L13.9 16.4502C13.6516 16.119 13.7184 15.649 14.0494 15.4004ZM10.8824 8.34277C11.6179 8.21897 12.3825 8.21891 13.1178 8.34277C16.3481 8.88686 18.7496 11.7143 18.7496 15.0195L18.7506 15.0225L21.3385 16.3311C21.7078 16.5179 21.856 16.9684 21.6696 17.3379C21.4828 17.7076 21.0314 17.8557 20.6617 17.6689L18.0729 16.3613C17.5657 16.105 17.2496 15.5841 17.2496 15.0195C17.2496 12.4461 15.3764 10.2447 12.8688 9.82227C12.2982 9.72617 11.702 9.7262 11.1315 9.82227C8.62377 10.2447 6.74967 12.4461 6.74963 15.0195C6.74963 15.584 6.43444 16.105 5.92737 16.3613L3.3385 17.6689C2.96881 17.8557 2.5175 17.7076 2.33069 17.3379C2.14402 16.9683 2.29218 16.5179 2.66174 16.3311L5.24866 15.0234L5.24963 15.0195C5.24967 11.7143 7.65222 8.88686 10.8824 8.34277ZM11.9996 2C13.3803 2 14.4996 3.11929 14.4996 4.5C14.4996 5.88071 13.3803 7 11.9996 7C10.619 6.9999 9.49963 5.88065 9.49963 4.5C9.49963 3.11935 10.619 2.00011 11.9996 2Z" fill="#48465C"/>
</svg>
