<svg width="24" height="24" viewBox="0 0 24 24" fill="none" xmlns="http://www.w3.org/2000/svg">
<path d="M15.6484 20.2422C14.8073 21.3113 13.4857 22 12 22C10.5143 22 9.19265 21.3113 8.35156 20.2422C10.7734 20.5704 13.2266 20.5704 15.6484 20.2422ZM12 2C15.7274 2 18.749 5.13401 18.749 9V9.7041C18.749 10.5491 18.9905 11.3751 19.4424 12.0781L20.5498 13.8008C21.5614 15.3745 20.7887 17.514 19.0293 18.0117C14.4272 19.3134 9.57287 19.3134 4.9707 18.0117C3.21139 17.514 2.43866 15.3745 3.4502 13.8008L4.55762 12.0781C5.00954 11.3751 5.25098 10.5491 5.25098 9.7041V9C5.25098 5.13403 8.27258 2.00003 12 2Z" fill="#48465C"/>
</svg>
