<svg width="24" height="24" viewBox="0 0 24 24" fill="none" xmlns="http://www.w3.org/2000/svg">
<path d="M19.4995 11.4805C19.851 11.53 20.1694 11.7271 20.3853 12.0283C20.5472 12.2542 20.6284 12.5763 20.7896 13.2207L21.481 15.9873C21.6422 16.6318 21.7227 16.9539 21.688 17.2363C21.6418 17.6128 21.4584 17.9544 21.1773 18.1855C20.9664 18.3589 20.6646 18.4455 20.063 18.6182C19.4618 18.7908 19.1605 18.877 18.897 18.8398C18.5456 18.7902 18.227 18.5931 18.0113 18.292C17.8494 18.066 17.6823 17.3974 17.521 16.7529L11.5484 18.4678C11.7095 19.1122 11.877 19.7801 11.8423 20.0625C11.796 20.439 11.6118 20.7806 11.3306 21.0117C11.1196 21.185 10.8188 21.2717 10.2173 21.4443C9.61593 21.6169 9.31484 21.7031 9.0513 21.666C8.69983 21.6164 8.38042 21.4194 8.16458 21.1182C8.0027 20.8922 7.92248 20.5693 7.76126 19.9248L7.06888 17.1582C6.90774 16.514 6.82715 16.1915 6.86185 15.9092C6.9082 15.5328 7.09237 15.1911 7.37357 14.96C7.58449 14.7867 7.88555 14.7009 8.48685 14.5283C9.08831 14.3557 9.38928 14.2695 9.65286 14.3066C10.0043 14.3561 10.3238 14.5532 10.5396 14.8545C10.7014 15.0807 10.8686 15.7485 11.0298 16.3926L17.0015 14.6787C16.8404 14.0345 16.674 13.3666 16.7085 13.084C16.7548 12.7075 16.9389 12.366 17.2202 12.1348C17.4312 11.9615 17.7318 11.8748 18.3335 11.7021C18.9352 11.5295 19.2359 11.4433 19.4995 11.4805ZM3.66653 2.22168C3.92327 2.14748 4.23243 2.19041 4.85013 2.27637C5.46775 2.36232 5.77685 2.40492 6.00735 2.54688C6.31472 2.7362 6.53902 3.04935 6.63138 3.41602C6.70048 3.69124 6.61784 4.37673 6.53763 5.03809L12.6685 5.8916C12.7488 5.22994 12.8328 4.5438 12.9654 4.29688C13.1422 3.96776 13.4337 3.72684 13.7759 3.62793C14.0325 3.55391 14.3414 3.59674 14.9585 3.68262C15.5762 3.76856 15.8853 3.81214 16.1158 3.9541C16.4232 4.14343 16.6484 4.4556 16.7408 4.82227C16.81 5.09724 16.7692 5.42829 16.689 6.08984L16.3443 8.92969C16.2641 9.59133 16.2239 9.92208 16.0913 10.1689C15.9145 10.4982 15.6231 10.739 15.2808 10.8379C15.0242 10.912 14.7154 10.869 14.0982 10.7832C13.4808 10.6972 13.1714 10.6545 12.9409 10.5127C12.6335 10.3233 12.4083 10.0103 12.3159 9.64355C12.2468 9.36827 12.3304 8.68277 12.4107 8.02148L6.27884 7.16797C6.19859 7.82962 6.1155 8.51578 5.98294 8.7627C5.80617 9.09186 5.51468 9.33273 5.17239 9.43164C4.91566 9.50582 4.60648 9.46291 3.9888 9.37695C3.37119 9.29101 3.06207 9.24746 2.83157 9.10547C2.52438 8.91613 2.29987 8.60383 2.20755 8.2373C2.13828 7.9623 2.17808 7.63136 2.25833 6.96973L2.60306 4.12988C2.68327 3.46855 2.72357 3.13751 2.85599 2.89062C3.03268 2.5615 3.32435 2.32066 3.66653 2.22168Z" fill="#1C274C"/>
</svg>
