<svg width="24" height="24" viewBox="0 0 24 24" fill="none" xmlns="http://www.w3.org/2000/svg">
<path d="M19.4995 11.4805C19.851 11.53 20.1694 11.7271 20.3853 12.0283C20.5471 12.2542 20.6284 12.5763 20.7896 13.2207L21.481 15.9873C21.6421 16.6318 21.7227 16.9539 21.688 17.2363C21.6418 17.6128 21.4584 17.9544 21.1772 18.1855C20.9663 18.3589 20.6646 18.4455 20.063 18.6182C19.4617 18.7908 19.1605 18.877 18.897 18.8398C18.5456 18.7902 18.227 18.5931 18.0112 18.292C17.8493 18.066 17.6823 17.3974 17.521 16.7529L11.5483 18.4678C11.7095 19.1122 11.877 19.7801 11.8423 20.0625C11.7959 20.439 11.6118 20.7806 11.3306 21.0117C11.1196 21.185 10.8188 21.2717 10.2173 21.4443C9.6159 21.6169 9.31481 21.7031 9.05127 21.666C8.6998 21.6164 8.38039 21.4194 8.16455 21.1182C8.00267 20.8922 7.92245 20.5693 7.76123 19.9248L7.06885 17.1582C6.90771 16.514 6.82712 16.1915 6.86182 15.9092C6.90817 15.5328 7.09233 15.1911 7.37354 14.96C7.58446 14.7867 7.88551 14.7009 8.48682 14.5283C9.08828 14.3557 9.38925 14.2695 9.65283 14.3066C10.0043 14.3561 10.3238 14.5532 10.5396 14.8545C10.7014 15.0807 10.8686 15.7485 11.0298 16.3926L17.0015 14.6787C16.8403 14.0345 16.674 13.3666 16.7085 13.084C16.7548 12.7075 16.9389 12.366 17.2202 12.1348C17.4312 11.9615 17.7318 11.8748 18.3335 11.7021C18.9351 11.5295 19.2358 11.4433 19.4995 11.4805ZM3.6665 2.22168C3.92324 2.14748 4.23238 2.19041 4.8501 2.27637C5.46774 2.36232 5.77681 2.40491 6.00732 2.54688C6.31469 2.7362 6.53899 3.04935 6.63135 3.41602C6.70044 3.69125 6.61781 4.37674 6.5376 5.03809L12.6685 5.8916C12.7487 5.23009 12.8318 4.54394 12.9644 4.29688C13.1412 3.96764 13.4336 3.72686 13.7759 3.62793C14.0324 3.55392 14.3414 3.59674 14.9585 3.68262C15.5761 3.76856 15.8852 3.81213 16.1157 3.9541C16.4231 4.14341 16.6473 4.45564 16.7397 4.82227C16.809 5.09727 16.7692 5.4282 16.689 6.08984L16.3442 8.92969C16.264 9.59132 16.2239 9.92208 16.0913 10.1689C15.9145 10.4982 15.6231 10.739 15.2808 10.8379C15.0242 10.912 14.7154 10.869 14.0981 10.7832C13.4808 10.6973 13.1714 10.6545 12.9409 10.5127C12.6335 10.3233 12.4083 10.0103 12.3159 9.64355C12.2468 9.36828 12.3304 8.68278 12.4106 8.02148L6.27881 7.16797C6.19856 7.82962 6.11547 8.51578 5.98291 8.7627C5.80614 9.09187 5.51465 9.33273 5.17236 9.43164C4.91563 9.50583 4.60647 9.46291 3.98877 9.37695C3.37114 9.291 3.06205 9.24746 2.83154 9.10547C2.52435 8.91613 2.29985 8.60384 2.20752 8.2373C2.13825 7.9623 2.17805 7.63136 2.2583 6.96973L2.60303 4.12988C2.68324 3.46854 2.72353 3.13751 2.85596 2.89062C3.03266 2.56149 3.32431 2.32065 3.6665 2.22168Z" fill="#48465C"/>
</svg>
