<svg width="24" height="24" viewBox="0 0 24 24" fill="none" xmlns="http://www.w3.org/2000/svg">
<path d="M5.57324 1.25C5.96575 1.24981 6.26874 1.24961 6.53613 1.30273C7.62703 1.51972 8.48027 2.37297 8.69727 3.46387C8.75042 3.73129 8.7502 4.0342 8.75 4.42676V4.75H15.25V4.42676C15.2498 4.03421 15.2496 3.73128 15.3027 3.46387C15.5197 2.37297 16.373 1.51972 17.4639 1.30273C17.7313 1.24959 18.0342 1.24981 18.4268 1.25H18.5732C18.9657 1.24981 19.2687 1.24962 19.5361 1.30273C20.627 1.51972 21.4804 2.37297 21.6973 3.46387C21.7505 3.73129 21.7502 4.0342 21.75 4.42676V6.57324C21.7502 6.96575 21.7505 7.26874 21.6973 7.53613C21.4804 8.62703 20.627 9.48027 19.5361 9.69727C19.2687 9.75039 18.9657 9.7502 18.5732 9.75H18.4268C18.0342 9.7502 17.7313 9.75042 17.4639 9.69727C16.373 9.48027 15.5197 8.62702 15.3027 7.53613C15.2496 7.26873 15.2498 6.96575 15.25 6.57324V6.25H12.75V17.75H15.25V17.4268C15.2498 17.0342 15.2496 16.7314 15.3027 16.4639C15.5197 15.3731 16.373 14.5197 17.4639 14.3027C17.7313 14.2496 18.0342 14.2498 18.4268 14.25H18.5732C18.9657 14.2498 19.2687 14.2496 19.5361 14.3027C20.627 14.5197 21.4804 15.3731 21.6973 16.4639C21.7505 16.7314 21.7502 17.0342 21.75 17.4268V19.5732C21.7502 19.9658 21.7505 20.2687 21.6973 20.5361C21.4804 21.627 20.627 22.4803 19.5361 22.6973C19.2687 22.7504 18.9657 22.7502 18.5732 22.75H18.4268C18.0342 22.7502 17.7313 22.7504 17.4639 22.6973C16.373 22.4803 15.5197 21.627 15.3027 20.5361C15.2496 20.2687 15.2498 19.9657 15.25 19.5732V19.25H8.75V19.5732C8.7502 19.9658 8.7504 20.2687 8.69727 20.5361C8.48027 21.627 7.62703 22.4803 6.53613 22.6973C6.26874 22.7504 5.96575 22.7502 5.57324 22.75H5.42676C5.03419 22.7502 4.73129 22.7504 4.46387 22.6973C3.37297 22.4803 2.51972 21.627 2.30273 20.5361C2.24961 20.2687 2.24981 19.9658 2.25 19.5732V17.4268C2.24981 17.0342 2.2496 16.7314 2.30273 16.4639C2.51972 15.3731 3.37297 14.5197 4.46387 14.3027C4.73128 14.2496 5.03421 14.2498 5.42676 14.25H5.57324C5.96575 14.2498 6.26874 14.2496 6.53613 14.3027C7.62703 14.5197 8.48027 15.3731 8.69727 16.4639C8.75041 16.7314 8.7502 17.0342 8.75 17.4268V17.75H11.25V6.25H8.75V6.57324C8.7502 6.96577 8.75039 7.26874 8.69727 7.53613C8.48027 8.62703 7.62703 9.48027 6.53613 9.69727C6.26874 9.75039 5.96577 9.7502 5.57324 9.75H5.42676C5.03419 9.7502 4.73129 9.75042 4.46387 9.69727C3.37297 9.48027 2.51972 8.62702 2.30273 7.53613C2.24962 7.26874 2.24981 6.96575 2.25 6.57324V4.42676C2.24981 4.03421 2.24959 3.73128 2.30273 3.46387C2.51972 2.37297 3.37297 1.51972 4.46387 1.30273C4.73128 1.24959 5.0342 1.24981 5.42676 1.25H5.57324ZM5.5 15.75C4.99945 15.75 4.85834 15.754 4.75586 15.7744C4.26032 15.8731 3.87316 16.2603 3.77441 16.7559C3.75403 16.8584 3.75 16.9994 3.75 17.5V19.5C3.75 20.0007 3.75403 20.1416 3.77441 20.2441C3.87311 20.7398 4.26029 21.1269 4.75586 21.2256C4.85834 21.246 4.99945 21.25 5.5 21.25C6.0006 21.25 6.14165 21.246 6.24414 21.2256C6.73977 21.1269 7.12687 20.7398 7.22559 20.2441C7.24597 20.1416 7.25 20.0007 7.25 19.5V17.5C7.25 16.9994 7.24597 16.8584 7.22559 16.7559C7.12682 16.2603 6.73973 15.8731 6.24414 15.7744C6.14165 15.754 6.0006 15.75 5.5 15.75ZM18.5 15.75C17.9995 15.75 17.8584 15.754 17.7559 15.7744C17.2604 15.8731 16.8731 16.2603 16.7744 16.7559C16.754 16.8584 16.75 16.9994 16.75 17.5V19.5C16.75 20.0007 16.754 20.1416 16.7744 20.2441C16.8731 20.7398 17.2603 21.1269 17.7559 21.2256C17.8584 21.246 17.9995 21.25 18.5 21.25C19.0006 21.25 19.1417 21.246 19.2441 21.2256C19.7398 21.1269 20.1278 20.7399 20.2266 20.2441C20.247 20.1416 20.25 20.0007 20.25 19.5V17.5C20.25 16.9994 20.247 16.8584 20.2266 16.7559C20.1278 16.2602 19.7398 15.8731 19.2441 15.7744C19.1417 15.754 19.0006 15.75 18.5 15.75ZM5.5 2.75C4.99945 2.75 4.85834 2.75403 4.75586 2.77441C4.26032 2.87314 3.87316 3.26032 3.77441 3.75586C3.75404 3.85834 3.75 3.99945 3.75 4.5V6.5C3.75 7.0006 3.75403 7.14165 3.77441 7.24414C3.87311 7.73974 4.26029 8.12684 4.75586 8.22559C4.85834 8.24597 4.99945 8.25 5.5 8.25C6.0006 8.25 6.14165 8.24597 6.24414 8.22559C6.73977 8.12688 7.12687 7.73977 7.22559 7.24414C7.24597 7.14165 7.25 7.0006 7.25 6.5V4.5C7.25 3.99945 7.24597 3.85834 7.22559 3.75586C7.12683 3.26029 6.73974 2.8731 6.24414 2.77441C6.14165 2.75402 6.0006 2.75 5.5 2.75ZM18.5 2.75C17.9995 2.75 17.8584 2.75403 17.7559 2.77441C17.2604 2.87314 16.8731 3.26031 16.7744 3.75586C16.754 3.85834 16.75 3.99945 16.75 4.5V6.5C16.75 7.0006 16.754 7.14165 16.7744 7.24414C16.8731 7.73974 17.2603 8.12684 17.7559 8.22559C17.8584 8.24597 17.9995 8.25 18.5 8.25C19.0006 8.25 19.1417 8.24597 19.2441 8.22559C19.7398 8.12685 20.1279 7.73984 20.2266 7.24414C20.247 7.14165 20.25 7.0006 20.25 6.5V4.5C20.25 3.99945 20.247 3.85834 20.2266 3.75586C20.1278 3.26022 19.7398 2.87313 19.2441 2.77441C19.1417 2.75402 19.0006 2.75 18.5 2.75Z" fill="#48465C"/>
</svg>
