<svg width="24" height="24" viewBox="0 0 24 24" fill="none" xmlns="http://www.w3.org/2000/svg">
<path d="M19.5273 18.9443C19.3288 19.9077 19.0536 20.6478 18.6191 21.0586C17.6233 21.9995 16.1305 22 13.1455 22H10.8545C7.86955 22 6.37671 21.9995 5.38086 21.0586C4.94642 20.6478 4.67122 19.9076 4.47266 18.9443H19.5273ZM12 2C13.1627 2 14.1055 2.99536 14.1055 4.22266C14.1053 5.08668 13.6375 5.83566 12.9551 6.20312C13.1214 6.48404 13.306 6.83298 13.5264 7.25L15.4102 10.8154C15.7675 11.4918 15.9468 11.8305 16.2148 11.9551C16.3632 12.0239 16.5269 12.0478 16.6875 12.0244C16.9777 11.982 17.2385 11.7082 17.7588 11.1611C18.4339 10.4512 18.8825 9.97949 19.2256 9.75586C18.9866 9.46384 18.8419 9.08315 18.8418 8.66699C18.8418 7.74658 19.5489 7.00012 20.4209 7C21.2929 7 22 7.74651 22 8.66699C21.9998 9.58731 21.2928 10.333 20.4209 10.333H20.4023C20.4557 10.7535 20.3882 11.421 20.2852 12.4316L20.0918 14.3262C19.9847 15.3771 19.8953 16.3772 19.7861 17.2773H4.21387C4.10479 16.3772 4.01531 15.3771 3.9082 14.3262L3.71484 12.4316C3.61186 11.421 3.5443 10.7535 3.59766 10.333H3.5791C2.70717 10.333 2.00017 9.58731 2 8.66699C2 7.74651 2.70707 7 3.5791 7C4.45106 7.00009 5.1582 7.74657 5.1582 8.66699C5.15813 9.08316 5.01341 9.46384 4.77441 9.75586C5.11754 9.97948 5.56608 10.4512 6.24121 11.1611C6.76155 11.7082 7.02227 11.982 7.3125 12.0244C7.47309 12.0478 7.63685 12.0239 7.78516 11.9551C8.05316 11.8305 8.23248 11.4918 8.58984 10.8154L10.4736 7.25C10.694 6.83294 10.8786 6.48406 11.0449 6.20312C10.3625 5.83566 9.89469 5.08668 9.89453 4.22266C9.89453 2.99536 10.8373 2 12 2Z" fill="#48465C"/>
</svg>
