<svg width="24" height="24" viewBox="0 0 24 24" fill="none" xmlns="http://www.w3.org/2000/svg">
<path d="M12 2C14.8089 2 16.2138 1.99971 17.2227 2.67383C17.6593 2.96563 18.0343 3.34068 18.3262 3.77734C19.0003 4.78623 19 6.19108 19 9V15C19 17.8089 19.0003 19.2138 18.3262 20.2227C18.0343 20.6593 17.6593 21.0343 17.2227 21.3262C16.2138 22.0003 14.8089 22 12 22C9.19108 22 7.78623 22.0003 6.77734 21.3262C6.34068 21.0343 5.96563 20.6593 5.67383 20.2227C4.99971 19.2138 5 17.8089 5 15V9C5 6.19108 4.99971 4.78623 5.67383 3.77734C5.96563 3.34068 6.34068 2.96563 6.77734 2.67383C7.78623 1.99971 9.19108 2 12 2ZM12 16C11.4477 16 11 16.4477 11 17C11 17.5523 11.4477 18 12 18C12.5523 18 13 17.5523 13 17C13 16.4477 12.5523 16 12 16ZM12 7.25C9.92893 7.25 8.25 8.92893 8.25 11C8.25 13.0711 9.92893 14.75 12 14.75C14.0711 14.75 15.75 13.0711 15.75 11C15.75 8.92893 14.0711 7.25 12 7.25ZM12 8.75C13.2426 8.75 14.25 9.75736 14.25 11C14.25 12.2426 13.2426 13.25 12 13.25C10.7574 13.25 9.75 12.2426 9.75 11C9.75 9.75736 10.7574 8.75 12 8.75ZM12 4C11.4477 4 11 4.44772 11 5C11 5.55228 11.4477 6 12 6C12.5523 6 13 5.55228 13 5C13 4.44772 12.5523 4 12 4Z" fill="#1C274C"/>
</svg>
