<svg width="24" height="24" viewBox="0 0 24 24" fill="none" xmlns="http://www.w3.org/2000/svg">
<path d="M6.62439 2.69043C8.71935 1.48091 11.0547 1.05585 13.2855 1.32617C16.5252 1.71887 19.5511 3.57876 21.3099 6.625C23.0685 9.67113 23.1658 13.2207 21.8861 16.2227C21.0048 18.2898 19.4695 20.1 17.3744 21.3096C12.2328 24.2779 5.65831 22.5166 2.68982 17.375C-0.27863 12.2335 1.48308 5.65908 6.62439 2.69043ZM14.8431 14.5508C14.4347 14.7547 14.0319 14.9785 13.6371 15.2188C11.2253 16.6862 9.29508 18.6881 8.48083 20.5547C10.8834 21.541 13.6753 21.5093 16.1439 20.2695C16.1162 20.0987 16.0795 19.8791 16.0336 19.6201C15.9159 18.9575 15.7377 18.0382 15.4984 17.0127C15.3139 16.2223 15.0953 15.3805 14.8431 14.5508ZM12.2699 9.31934C11.924 9.56651 11.5681 9.80268 11.2054 10.0254C8.63583 11.603 5.5475 12.6225 2.75232 12.2842C2.79651 13.7635 3.19686 15.2536 3.98865 16.625C4.78303 18.0009 5.87781 19.0956 7.14197 19.874C8.14282 17.6469 10.3321 15.4727 12.8568 13.9365C13.3428 13.6408 13.8474 13.3655 14.3646 13.1152C14.0625 12.2926 13.7247 11.5223 13.351 10.875C13.0529 10.3587 12.6831 9.83528 12.2699 9.31934ZM21.1693 13.2188C19.6334 13.0106 17.915 13.299 16.226 13.9424C16.5167 14.8801 16.7604 15.8192 16.9594 16.6719C17.206 17.7292 17.3889 18.6755 17.5101 19.3574C17.5139 19.3791 17.5182 19.4007 17.5219 19.4219C18.8709 18.421 19.8799 17.1038 20.5062 15.6348C20.8352 14.863 21.0583 14.0496 21.1693 13.2188ZM16.8578 4.12598C16.1797 5.6349 14.9563 7.11933 13.4525 8.39746C13.9035 8.96188 14.3136 9.54281 14.6498 10.125C15.0594 10.8345 15.4238 11.6579 15.7445 12.5215C17.5568 11.8384 19.4618 11.4997 21.2474 11.7158C21.2034 10.2363 20.802 8.74651 20.0101 7.375C19.2158 5.99939 18.1218 4.90439 16.8578 4.12598ZM6.92224 4.26758C4.60366 5.78734 3.17455 8.19861 2.82947 10.7812C5.18639 11.101 7.97238 10.2499 10.4203 8.74707C10.7154 8.56591 11.0033 8.37652 11.2826 8.18066C10.6283 7.47627 9.93064 6.80759 9.27087 6.21582C8.54185 5.56194 7.8734 5.01468 7.38806 4.63086C7.20374 4.48509 7.04658 4.36246 6.92224 4.26758ZM13.1058 2.81543C11.5318 2.62464 9.89824 2.83569 8.36658 3.49219C8.86579 3.88824 9.53849 4.44181 10.2719 5.09961C10.9738 5.72909 11.7446 6.46568 12.475 7.26074C13.8781 6.0693 14.9607 4.72528 15.5189 3.44531C14.747 3.12844 13.9349 2.91597 13.1058 2.81543Z" fill="#1C274C"/>
</svg>
