<svg width="24" height="24" viewBox="0 0 24 24" fill="none" xmlns="http://www.w3.org/2000/svg">
<path d="M6.62524 2.69043C8.72012 1.48102 11.0547 1.05589 13.2854 1.32617C16.5251 1.71887 19.551 3.57876 21.3098 6.625C23.0684 9.67116 23.1657 13.2206 21.886 16.2227C21.0047 18.2896 19.4701 20.1 17.3752 21.3096C12.2336 24.2781 5.65823 22.5167 2.6897 17.375C-0.278811 12.2334 1.4836 5.65895 6.62524 2.69043ZM14.844 14.5508C14.4354 14.7548 14.0319 14.9784 13.637 15.2188C11.2252 16.6862 9.29495 18.6881 8.48071 20.5547C10.8833 21.541 13.6752 21.5093 16.1438 20.2695C16.1161 20.0987 16.0794 19.8791 16.0334 19.6201C15.9157 18.9575 15.7376 18.0381 15.4983 17.0127C15.3138 16.2223 15.0962 15.3804 14.844 14.5508ZM12.2698 9.31934C11.9239 9.56651 11.568 9.80268 11.2053 10.0254C8.63572 11.6029 5.54735 12.6225 2.7522 12.2842C2.79639 13.7635 3.19769 15.2536 3.9895 16.625C4.78386 18.0007 5.87779 19.0957 7.14185 19.874C8.14269 17.6469 10.332 15.4727 12.8567 13.9365C13.3427 13.6408 13.8473 13.3655 14.3645 13.1152C14.0624 12.2926 13.7245 11.5223 13.3508 10.875C13.0527 10.3588 12.6829 9.83526 12.2698 9.31934ZM21.1692 13.2188C19.6333 13.0107 17.9149 13.299 16.2258 13.9424C16.5166 14.8801 16.7602 15.8192 16.9592 16.6719C17.2059 17.7291 17.3888 18.6755 17.51 19.3574C17.5138 19.379 17.518 19.4008 17.5217 19.4219C18.8708 18.421 19.8797 17.1038 20.5061 15.6348C20.8351 14.863 21.0582 14.0496 21.1692 13.2188ZM16.8586 4.12598C16.1805 5.6349 14.9562 7.11933 13.4524 8.39746C13.9033 8.96187 14.3135 9.54283 14.6497 10.125C15.0593 10.8345 15.4237 11.6579 15.7444 12.5215C17.5567 11.8384 19.4617 11.4997 21.2473 11.7158C21.2033 10.2364 20.8027 8.74643 20.011 7.375C19.2167 5.99941 18.1226 4.9044 16.8586 4.12598ZM6.92212 4.26758C4.60358 5.78732 3.17543 8.19866 2.83032 10.7812C5.18727 11.1009 7.97328 10.2499 10.4211 8.74707C10.7161 8.56598 11.0033 8.37644 11.2825 8.18066C10.6282 7.4763 9.9305 6.80757 9.27075 6.21582C8.54175 5.56197 7.87327 5.01467 7.38794 4.63086C7.20361 4.48509 7.04646 4.36245 6.92212 4.26758ZM13.1057 2.81543C11.5317 2.62464 9.89812 2.83569 8.36646 3.49219C8.86571 3.88827 9.53928 4.44175 10.2727 5.09961C10.9745 5.72903 11.7446 6.4658 12.4749 7.26074C13.8781 6.0692 14.9616 4.72538 15.5198 3.44531C14.7478 3.12836 13.9349 2.91598 13.1057 2.81543Z" fill="#48465C"/>
</svg>
