<svg width="24" height="24" viewBox="0 0 24 24" fill="none" xmlns="http://www.w3.org/2000/svg">
<path d="M5.62061 11.4941C5.90008 11.1885 6.37449 11.1669 6.68018 11.4463C6.98592 11.7257 7.0065 12.2001 6.72705 12.5059L5.46631 13.8857C4.40795 15.044 4.48279 17.315 5.97119 18.9434C7.44853 20.5596 9.41081 20.5901 10.4116 19.4951L14.4468 15.0811C14.7262 14.7753 15.2006 14.7537 15.5063 15.0332C15.8119 15.3126 15.8326 15.787 15.5532 16.0928L11.519 20.5068C9.73452 22.4592 6.72893 21.9957 4.86377 19.9551C3.00993 17.9267 2.63308 14.7633 4.35986 12.874L5.62061 11.4941ZM14.1753 2.40137C16.0112 0.602911 19.0892 1.00914 21.0396 2.91992C22.9926 4.83346 23.4176 7.87526 21.5679 9.6875L18.6606 12.5361C18.3647 12.8257 17.8899 12.8202 17.6001 12.5244C17.3104 12.2286 17.315 11.7537 17.6108 11.4639L20.5181 8.61621C21.5874 7.5685 21.5396 5.50972 19.9897 3.99121C18.437 2.47002 16.3085 2.41226 15.2251 3.47363L11.5249 7.09863C11.229 7.38824 10.7541 7.38272 10.4644 7.08691C10.1747 6.79102 10.1793 6.31617 10.4751 6.02637L14.1753 2.40137ZM1.28857 7.76367C1.41952 7.37081 1.84394 7.15828 2.23682 7.28906L8.23682 9.28906C8.62973 9.42003 8.84232 9.84443 8.71143 10.2373C8.58048 10.6302 8.15607 10.8427 7.76318 10.7119L1.76318 8.71191C1.37036 8.58097 1.15787 8.15651 1.28857 7.76367ZM5.58447 3.37598C5.92908 3.14651 6.39481 3.23948 6.62451 3.58398L8.62451 6.58398C8.8542 6.92852 8.76087 7.39417 8.4165 7.62402C8.07185 7.85378 7.60623 7.76067 7.37646 7.41602L5.37646 4.41602C5.14673 4.07138 5.23984 3.60573 5.58447 3.37598Z" fill="#48465C"/>
</svg>
