<svg width="24" height="24" viewBox="0 0 24 24" fill="none" xmlns="http://www.w3.org/2000/svg">
<path d="M12 1.25C12.2882 1.25 12.5508 1.41515 12.6758 1.6748C12.8007 1.93465 12.766 2.24362 12.5859 2.46875L10.5859 4.96875C10.387 5.21738 10.0524 5.31328 9.75195 5.20801C9.45138 5.10258 9.25 4.81852 9.25 4.5V3.16504C5.48421 4.33582 2.75 7.84953 2.75 12C2.75 17.1086 6.89137 21.25 12 21.25C17.1086 21.25 21.25 17.1086 21.25 12C21.25 8.20808 18.9677 4.9476 15.6992 3.51953C15.3201 3.35364 15.1471 2.91158 15.3125 2.53223C15.4784 2.15266 15.9212 1.97869 16.3008 2.14453C20.0957 3.80276 22.75 7.59077 22.75 12C22.75 17.9371 17.9371 22.75 12 22.75C6.06294 22.75 1.25 17.9371 1.25 12C1.25 6.79843 4.94354 2.461 9.85059 1.46484C10.5457 1.32375 11.2647 1.25 12 1.25ZM9.53125 7.91406C9.75637 7.73395 10.0654 7.69933 10.3252 7.82422C10.5849 7.94917 10.75 8.21181 10.75 8.5V15.5C10.75 15.9142 10.4142 16.25 10 16.25C9.58581 16.25 9.25 15.9142 9.25 15.5V10.0605L7.96875 11.0859C7.6453 11.3446 7.17281 11.2923 6.91406 10.9688C6.65531 10.6454 6.70781 10.1728 7.03125 9.91406L9.53125 7.91406ZM16.5 7.75C16.9142 7.75 17.25 8.08579 17.25 8.5C17.25 8.91421 16.9142 9.25 16.5 9.25H14.041L13.541 10.75H14.5C16.0188 10.75 17.25 11.9812 17.25 13.5C17.25 15.0188 16.0188 16.25 14.5 16.25H12.5C12.0858 16.25 11.75 15.9142 11.75 15.5C11.75 15.0858 12.0858 14.75 12.5 14.75H14.5C15.1904 14.75 15.75 14.1904 15.75 13.5C15.75 12.8097 15.1904 12.25 14.5 12.25H13.1934C12.3403 12.2498 11.738 11.4138 12.0078 10.6045L12.6748 8.60449C12.845 8.09422 13.3225 7.75002 13.8604 7.75H16.5Z" fill="#1C274C"/>
</svg>
