<svg width="24" height="24" viewBox="0 0 24 24" fill="none" xmlns="http://www.w3.org/2000/svg">
<path d="M12 2C16.714 2 19.0708 2.00037 20.5352 3.46484C21.9996 4.9293 22 7.28597 22 12C22 16.714 21.9997 19.0708 20.5352 20.5352C19.0708 21.9997 16.714 22 12 22C7.28597 22 4.9293 21.9996 3.46484 20.5352C2.00037 19.0708 2 16.714 2 12C2 7.28595 2.00037 4.9293 3.46484 3.46484C4.9293 2.00037 7.28595 2 12 2ZM14.001 7.03125C13.2527 6.45129 12.2939 7.05326 12.2939 8C12.2939 8.64265 12.0057 9.71288 11.4209 10.501C10.7819 11.362 9.95634 10.5023 9.89844 9.43164C9.87204 8.94225 9.36433 8.76893 8.95605 9.04004C8.06306 9.63306 7 10.8112 7 12.667C7.00014 16.9333 10.1114 18 11.667 18C13.4447 17.9999 16.9998 16.9331 17 12.667C17 10.0561 15.4595 8.1619 14.001 7.03125Z" fill="#1C274C"/>
</svg>
