<svg width="24" height="24" viewBox="0 0 24 24" fill="none" xmlns="http://www.w3.org/2000/svg">
<path d="M15 2C18.866 2.00003 22 5.13403 22 9C22 12.866 18.866 16 15 16C13.3372 16 11.8093 15.4205 10.6084 14.4521L7.56055 17.5L8.53028 18.4697C8.82314 18.7626 8.82314 19.2374 8.53028 19.5303C8.2374 19.8232 7.76262 19.8231 7.46973 19.5303L6.5 18.5605L5.56055 19.5L6.53028 20.4697C6.82314 20.7626 6.82314 21.2374 6.53028 21.5303C6.2374 21.8232 5.76262 21.8231 5.46973 21.5303L4.5 20.5605L4.03028 21.0303C3.7374 21.3232 3.26262 21.3231 2.96973 21.0303C2.67684 20.7374 2.67684 20.2626 2.96973 19.9697L3.96973 18.9697L9.54785 13.3906C8.57962 12.1898 8 10.6626 8 9C8 5.13401 11.134 2 15 2ZM15 7C13.8954 7 13 7.89543 13 9C13 10.1046 13.8954 11 15 11C16.1046 11 17 10.1046 17 9C17 7.89545 16.1046 7.00003 15 7Z" fill="#1C274C"/>
</svg>
