<svg width="24" height="24" viewBox="0 0 24 24" fill="none" xmlns="http://www.w3.org/2000/svg">
<path d="M13.3555 14.4819C13.4171 14.6749 13.5156 14.9411 13.6689 15.2593C13.976 15.8966 14.501 16.7399 15.3809 17.6196C16.2607 18.4995 17.104 19.0244 17.7412 19.3315C18.0594 19.4848 18.3256 19.5833 18.5186 19.645C18.5521 19.6557 18.5833 19.6657 18.6123 19.6743L17.3809 20.9058C15.9212 22.3653 13.5545 22.3653 12.0947 20.9058C10.6351 19.446 10.6352 17.0793 12.0947 15.6196L13.3262 14.3882C13.3347 14.4172 13.3447 14.4484 13.3555 14.4819ZM15.6191 12.0952C17.0788 10.6355 19.4455 10.6355 20.9053 12.0952C22.3648 13.555 22.3649 15.9217 20.9053 17.3813L19.8779 18.4087V18.4058L19.1465 18.2642C19.1423 18.2633 19.1314 18.2609 19.1172 18.2573C19.0884 18.2501 19.0399 18.2372 18.9746 18.2163C18.843 18.1743 18.6428 18.1005 18.3926 17.98C17.8928 17.7391 17.1913 17.3089 16.4414 16.5591C15.6917 15.8093 15.2614 15.1079 15.0205 14.6079C14.8999 14.3579 14.8262 14.1575 14.7842 14.0259C14.7632 13.9601 14.7494 13.9111 14.7422 13.8823C14.7387 13.8687 14.7373 13.8594 14.7363 13.855L14.5947 13.1216L14.5918 13.1226L15.6191 12.0952ZM10.9375 10.2505C10.7877 11.141 10.3688 11.995 9.68164 12.6821C7.9243 14.4393 5.07568 14.4393 3.31836 12.6821C2.63121 11.995 2.21227 11.141 2.0625 10.2505H10.9375ZM3.31836 6.31787C5.07562 4.56098 7.92436 4.56101 9.68164 6.31787C10.3688 7.00509 10.7877 7.85992 10.9375 8.75049H2.0625C2.21224 7.85992 2.63115 7.00509 3.31836 6.31787ZM14.7578 2.87939C15.9294 1.70782 17.8284 1.70782 19 2.87939C19.5857 3.46516 19.8789 4.23281 19.8789 5.00049C19.8788 5.76817 19.5857 6.53586 19 7.12158C17.8285 8.29304 15.9294 8.29295 14.7578 7.12158C14.1721 6.53586 13.879 5.76817 13.8789 5.00049C13.8789 4.23275 14.1721 3.46517 14.7578 2.87939Z" fill="#48465C"/>
</svg>
