<svg width="24" height="24" viewBox="0 0 24 24" fill="none" xmlns="http://www.w3.org/2000/svg">
<path d="M11.4996 2C13.5109 2.02374 15.4313 2.84506 16.8375 4.2832C18.2436 5.7213 19.021 7.65876 18.9996 9.66992C18.9759 10.7614 18.7214 11.8354 18.2526 12.8213C17.7838 13.8071 17.1114 14.6824 16.2799 15.3896L15.1198 16.46L14.8102 16.7598L14.7203 16.8496C14.5969 16.9833 14.4892 17.1314 14.4 17.29C14.3441 17.4656 14.3069 17.6467 14.2897 17.8301C14.2695 18.1998 14.2695 18.5707 14.2897 18.9404V19.9404C14.27 20.2512 14.1847 20.5545 14.0397 20.8301C13.8626 21.1488 13.6036 21.4143 13.2897 21.5996C13.0226 21.7483 12.7248 21.8339 12.4196 21.8496H10.36C10.0547 21.8339 9.75694 21.7483 9.48987 21.5996C9.17595 21.4142 8.91688 21.1488 8.73987 20.8301C8.59479 20.5545 8.50958 20.2513 8.48987 19.9404V18.9404C8.51005 18.5707 8.51005 18.1998 8.48987 17.8301C8.47266 17.6467 8.43543 17.4656 8.37952 17.29C8.29034 17.1315 8.18355 16.9833 8.06018 16.8496L7.97034 16.7598L7.65979 16.46L6.49963 15.3896C5.70842 14.6626 5.07748 13.7785 4.64709 12.7939C4.21663 11.8091 3.99576 10.7448 3.99963 9.66992C3.97832 7.65871 4.75657 5.72131 6.16272 4.2832C7.5689 2.84515 9.48848 2.02383 11.4996 2ZM9.9303 19.6699V19.9297C9.93354 20.0429 9.95668 20.155 9.99963 20.2598C10.0618 20.3617 10.1477 20.4476 10.2496 20.5098C10.349 20.5588 10.4592 20.5832 10.5699 20.5801H12.4303C12.5409 20.5831 12.6504 20.5587 12.7496 20.5098C12.8517 20.4475 12.9374 20.3618 12.9996 20.2598C13.0427 20.1549 13.0667 20.043 13.0699 19.9297C13.0799 19.8597 13.08 19.7698 13.11 19.6699H9.9303ZM9.84045 13.2715C9.64754 13.221 9.44233 13.249 9.27014 13.3496C9.18482 13.3995 9.11017 13.4662 9.05042 13.5449C8.99074 13.6236 8.9466 13.7131 8.92151 13.8086C8.89644 13.9042 8.89049 14.0046 8.90393 14.1025C8.91737 14.2003 8.94984 14.2946 8.99963 14.3799C9.35876 14.9975 9.94286 15.4531 10.6295 15.6504V17C10.6295 17.1988 10.7087 17.3896 10.8492 17.5303C10.9898 17.6708 11.1808 17.7499 11.3795 17.75C11.5784 17.75 11.7701 17.6709 11.9108 17.5303C12.0513 17.3896 12.1295 17.1988 12.1295 17V15.6504C12.8178 15.456 13.4036 14.9997 13.7604 14.3799C13.8094 14.2929 13.8407 14.1968 13.8522 14.0977C13.8636 13.9984 13.8547 13.8977 13.8268 13.8018C13.7988 13.7059 13.752 13.6166 13.6891 13.5391C13.6261 13.4615 13.5478 13.3967 13.4596 13.3496C13.2898 13.26 13.0922 13.238 12.9069 13.2881C12.7213 13.3382 12.5613 13.457 12.4596 13.6201C12.3517 13.8113 12.195 13.9703 12.0055 14.0811C11.8157 14.1919 11.5993 14.251 11.3795 14.251C11.1599 14.2509 10.9441 14.1918 10.7545 14.0811C10.565 13.9703 10.4083 13.8113 10.3004 13.6201C10.2505 13.5348 10.1838 13.4601 10.1051 13.4004C10.0263 13.3406 9.9361 13.2966 9.84045 13.2715Z" fill="#48465C"/>
</svg>
