<svg width="24" height="24" viewBox="0 0 24 24" fill="none" xmlns="http://www.w3.org/2000/svg">
<path d="M11.4996 2C13.5109 2.02374 15.4312 2.84506 16.8375 4.2832C18.2436 5.7213 19.0209 7.65875 18.9996 9.66992C18.9758 10.7614 18.7213 11.8354 18.2525 12.8213C17.7837 13.8072 17.1114 14.6824 16.2798 15.3896L15.1197 16.46L14.8101 16.7598L14.7203 16.8496C14.5969 16.9833 14.4892 17.1314 14.4 17.29C14.3441 17.4656 14.3068 17.6467 14.2896 17.8301C14.2694 18.1998 14.2694 18.5707 14.2896 18.9404V19.9404C14.2699 20.2512 14.1847 20.5545 14.0396 20.8301C13.8626 21.1488 13.6036 21.4143 13.2896 21.5996C13.0227 21.7482 12.7255 21.8338 12.4205 21.8496H10.3599C10.0547 21.8338 9.75686 21.7483 9.48981 21.5996C9.17591 21.4142 8.91681 21.1488 8.73981 20.8301C8.59473 20.5545 8.50952 20.2513 8.48981 19.9404V18.9404C8.50999 18.5707 8.50999 18.1998 8.48981 17.8301C8.47261 17.6467 8.43632 17.4655 8.38043 17.29C8.29124 17.1314 8.18353 16.9833 8.06012 16.8496L7.97028 16.7598L7.65973 16.46L6.49957 15.3896C5.70836 14.6626 5.07742 13.7785 4.64703 12.7939C4.21657 11.8091 3.9957 10.7448 3.99957 9.66992C3.97825 7.65872 4.75653 5.72131 6.16266 4.2832C7.56883 2.84516 9.48844 2.02385 11.4996 2ZM9.93024 19.6699V19.9297C9.93348 20.0429 9.95662 20.155 9.99957 20.2598C10.0617 20.3617 10.1477 20.4476 10.2496 20.5098C10.3489 20.5588 10.4591 20.5831 10.5699 20.5801H12.4302C12.5408 20.5831 12.6503 20.5587 12.7496 20.5098C12.8516 20.4475 12.9374 20.3618 12.9996 20.2598C13.0426 20.1549 13.0666 20.043 13.0699 19.9297C13.0798 19.8597 13.08 19.7698 13.1099 19.6699H9.93024ZM9.84137 13.2715C9.64829 13.2209 9.44242 13.2489 9.27008 13.3496C9.18475 13.3995 9.11011 13.4662 9.05035 13.5449C8.99067 13.6236 8.94654 13.7131 8.92145 13.8086C8.89638 13.9042 8.89043 14.0046 8.90387 14.1025C8.91731 14.2003 8.94979 14.2946 8.99957 14.3799C9.35876 14.9976 9.94363 15.4531 10.6304 15.6504V17C10.6304 17.1988 10.7087 17.3896 10.8492 17.5303C10.9898 17.6709 11.1815 17.75 11.3804 17.75C11.5792 17.7499 11.7702 17.6708 11.9107 17.5303C12.0512 17.3896 12.1304 17.1988 12.1304 17V15.6504C12.8186 15.456 13.4036 14.9996 13.7603 14.3799C13.8093 14.2929 13.8406 14.1969 13.8521 14.0977C13.8636 13.9984 13.8547 13.8977 13.8267 13.8018C13.7988 13.7059 13.7519 13.6166 13.689 13.5391C13.626 13.4615 13.5477 13.3967 13.4595 13.3496C13.2897 13.2601 13.0922 13.238 12.9068 13.2881C12.7213 13.3382 12.5612 13.457 12.4595 13.6201C12.3516 13.8113 12.195 13.9703 12.0054 14.0811C11.8158 14.1918 11.6 14.2509 11.3804 14.251C11.1607 14.251 10.9442 14.1919 10.7545 14.0811C10.5649 13.9703 10.4083 13.8113 10.3004 13.6201C10.2505 13.5348 10.1838 13.4601 10.105 13.4004C10.0264 13.3407 9.93687 13.2966 9.84137 13.2715Z" fill="#1C274C"/>
</svg>
