<svg width="24" height="24" viewBox="0 0 24 24" fill="none" xmlns="http://www.w3.org/2000/svg">
<path d="M13.5928 3.64941C15.4588 1.78345 18.4847 1.78346 20.3506 3.64941C22.2166 5.51538 22.2166 8.54121 20.3506 10.4072L11.4082 19.3496C10.5981 20.1596 9.46366 20.5571 8.3252 20.4307L7.52637 20.3418C7.14471 20.2994 6.76372 20.4325 6.49219 20.7041L6.10938 21.0879C5.22657 21.9707 3.7949 21.9707 2.91211 21.0879C2.02934 20.2051 2.02932 18.7734 2.91211 17.8906L3.2959 17.5078C3.56743 17.2363 3.70061 16.8552 3.6582 16.4736L3.56934 15.6748C3.44285 14.5362 3.84132 13.4019 4.65137 12.5918L13.5928 3.64941ZM19.29 4.70996C18.0099 3.42992 15.9345 3.43011 14.6543 4.70996L5.71191 13.6523C5.22417 14.14 4.98452 14.8232 5.06055 15.5088L5.14941 16.3086C5.24204 17.1431 4.95012 17.9747 4.35645 18.5684L3.97266 18.9521C3.67589 19.2492 3.67573 19.7304 3.97266 20.0273C4.26957 20.3244 4.75082 20.3242 5.04785 20.0273L5.43164 19.6436C6.02531 19.0499 6.85697 18.758 7.69141 18.8506L8.49121 18.9395C9.17679 19.0155 9.85991 18.7759 10.3477 18.2881L10.9268 17.709L10.1562 16.9395C9.8635 16.6467 9.86369 16.1718 10.1562 15.8789C10.4492 15.586 10.9239 15.586 11.2168 15.8789L11.9873 16.6484L14.1357 14.5L13.3652 13.7295C13.0728 13.4366 13.0726 12.9617 13.3652 12.6689C13.6581 12.376 14.1339 12.376 14.4268 12.6689L15.1963 13.4395L17.335 11.3008L16.5654 10.5303C16.2725 10.2374 16.2725 9.76262 16.5654 9.46973C16.8583 9.17701 17.3331 9.17689 17.626 9.46973L18.3955 10.2402L19.29 9.3457C20.5698 8.0655 20.57 5.99004 19.29 4.70996ZM14.9697 7.96973C15.2626 7.67686 15.7374 7.67685 16.0303 7.96973C16.3232 8.2626 16.3231 8.73738 16.0303 9.03027L9.53027 15.5303C9.23738 15.8232 8.76262 15.8232 8.46973 15.5303C8.17685 15.2374 8.17684 14.7626 8.46973 14.4697L14.9697 7.96973Z" fill="#48465C"/>
</svg>
