<svg width="24" height="24" viewBox="0 0 24 24" fill="none" xmlns="http://www.w3.org/2000/svg">
<path d="M7.7146 3.25C8.7474 3.25 9.75539 3.57037 10.5984 4.16699L11.1003 4.52246C11.3634 4.70851 11.6777 4.80854 11.9998 4.80859C12.3222 4.80859 12.637 4.70868 12.9001 4.52246L13.4021 4.16699C14.2451 3.57045 15.2523 3.25001 16.2849 3.25H16.8972C17.3225 3.25 17.8362 3.27484 18.3416 3.4541C19.7847 3.96598 20.9258 5.14195 21.6775 7.04492C22.4215 8.92853 22.8039 11.5642 22.7439 15.1152C22.7312 15.8646 22.6375 16.7044 22.3494 17.4609C22.0575 18.2274 21.5474 18.9499 20.6892 19.3604C20.201 19.5938 19.6258 19.75 18.9734 19.75C18.1865 19.75 17.5389 19.5232 17.031 19.1904C16.5587 18.8808 16.1456 18.4806 15.7927 18.1387C15.7498 18.097 15.7079 18.0562 15.6667 18.0166C15.2619 17.627 14.9213 17.3229 14.5437 17.127C14.0664 16.8795 13.5364 16.75 12.9988 16.75H11.0017C10.464 16.75 9.93403 16.8795 9.45679 17.127C9.07905 17.3229 8.7386 17.6269 8.33374 18.0166C8.2926 18.0563 8.25069 18.097 8.20776 18.1387C7.85483 18.4807 7.44097 18.8807 6.96851 19.1904C6.46071 19.5231 5.81377 19.7499 5.0271 19.75C4.3747 19.75 3.79851 19.5939 3.3103 19.3604C2.45242 18.9499 1.94206 18.2273 1.65015 17.4609C1.36213 16.7045 1.26927 15.8646 1.25659 15.1152C1.19652 11.5643 1.57805 8.92852 2.32202 7.04492C3.07375 5.14179 4.21573 3.96596 5.65894 3.4541C6.16417 3.27497 6.67721 3.25001 7.10229 3.25H7.7146ZM7.10229 4.75C6.71935 4.75001 6.41625 4.7763 6.15991 4.86719C5.22056 5.20035 4.3513 5.99143 3.71753 7.5957C3.07599 9.21993 2.69715 11.6334 2.75562 15.0898C2.76683 15.7523 2.85102 16.3987 3.05249 16.9277C3.25016 17.4466 3.54209 17.809 3.95776 18.0078C4.26351 18.154 4.61944 18.25 5.0271 18.25C5.51201 18.2499 5.87455 18.1136 6.14624 17.9355C6.492 17.7089 6.79956 17.4123 7.1687 17.0557C7.2094 17.0163 7.25136 16.9763 7.2937 16.9355C7.69462 16.5496 8.17421 16.102 8.76636 15.7949C9.4569 15.4368 10.2238 15.25 11.0017 15.25H12.9988C13.7767 15.25 14.5435 15.4367 15.2341 15.7949C15.8264 16.102 16.3059 16.5496 16.7068 16.9355C16.7492 16.9763 16.7911 17.0163 16.8318 17.0557C17.2007 17.4121 17.5076 17.709 17.8533 17.9355C18.1251 18.1136 18.4883 18.25 18.9734 18.25C19.3809 18.25 19.7361 18.1539 20.0417 18.0078C20.4575 17.809 20.7503 17.4467 20.948 16.9277C21.1494 16.3987 21.2327 15.7523 21.2439 15.0898C21.3023 11.6334 20.9246 9.21992 20.283 7.5957C19.6492 5.9915 18.7799 5.20042 17.8406 4.86719C17.5842 4.77625 17.2804 4.75 16.8972 4.75H16.2849C15.5626 4.75001 14.858 4.9743 14.2683 5.3916L13.7664 5.74707C13.25 6.11248 12.6324 6.30859 11.9998 6.30859C11.3672 6.30854 10.7496 6.11255 10.2332 5.74707L9.73218 5.3916C9.14252 4.97429 8.437 4.75 7.7146 4.75H7.10229ZM7.49976 8.25C7.91398 8.25 8.24976 8.58579 8.24976 9V9.75H8.99976C9.41398 9.75 9.74976 10.0858 9.74976 10.5C9.74976 10.9142 9.41398 11.25 8.99976 11.25H8.24976V12C8.24976 12.4142 7.91398 12.75 7.49976 12.75C7.08567 12.7498 6.74976 12.4141 6.74976 12V11.25H5.99976C5.58567 11.2498 5.24976 10.9141 5.24976 10.5C5.24976 10.0859 5.58567 9.75015 5.99976 9.75H6.74976V9C6.74976 8.58588 7.08567 8.25015 7.49976 8.25ZM16.7498 11C17.164 11 17.4998 11.3358 17.4998 11.75C17.4998 12.1642 17.164 12.5 16.7498 12.5C16.3357 12.4998 15.9998 12.1641 15.9998 11.75C15.9998 11.3359 16.3357 11.0002 16.7498 11ZM15.2498 9.5C15.664 9.5 15.9998 9.83579 15.9998 10.25C15.9998 10.6642 15.664 11 15.2498 11C14.8357 10.9998 14.4998 10.6641 14.4998 10.25C14.4998 9.83588 14.8357 9.50015 15.2498 9.5ZM18.2498 9.5C18.664 9.5 18.9998 9.83579 18.9998 10.25C18.9998 10.6642 18.664 11 18.2498 11C17.8357 10.9998 17.4998 10.6641 17.4998 10.25C17.4998 9.83588 17.8357 9.50015 18.2498 9.5ZM16.7498 8C17.164 8 17.4998 8.33579 17.4998 8.75C17.4998 9.16421 17.164 9.5 16.7498 9.5C16.3357 9.49985 15.9998 9.16412 15.9998 8.75C15.9998 8.33588 16.3357 8.00015 16.7498 8Z" fill="#48465C"/>
</svg>
