<svg width="24" height="24" viewBox="0 0 24 24" fill="none" xmlns="http://www.w3.org/2000/svg">
<path d="M15.3273 7.54199C18.7021 7.54199 20.3902 7.54247 21.3381 8.5293C22.2854 9.51613 22.0623 11.0411 21.6164 14.0898L21.1936 16.9814C20.8438 19.3725 20.6688 20.5682 19.7717 21.2842C18.8745 22.0001 17.551 22 14.9045 22H9.09492C6.44899 22 5.12585 21.9999 4.22871 21.2842C3.33158 20.5682 3.15658 19.3725 2.80684 16.9814L2.38399 14.0898C1.93799 11.0408 1.71473 9.51613 2.66231 8.5293C3.61013 7.5425 5.29747 7.54199 8.67207 7.54199H15.3273ZM14.5881 10.165C13.3566 9.63913 11.9427 10.4305 11.8605 11.6924C11.8569 11.7475 11.8566 11.8164 11.8566 11.8994V11.9258C11.8566 11.9555 11.8569 11.9824 11.8576 12.0078V15.5215C11.4793 15.3173 11.04 15.2012 10.5715 15.2012C9.15144 15.2012 8.0002 16.2752 8.0002 17.6006C8.00033 18.9258 9.15152 20 10.5715 20C11.9915 20 13.1425 18.9258 13.1428 17.6006L13.1438 13.6816L14.0715 14.1436C14.1498 14.1825 14.2151 14.2144 14.2688 14.2373C15.5005 14.7635 16.9142 13.972 16.9963 12.71C16.9998 12.6549 17.0002 12.5858 17.0002 12.5029V12.4766C17.0002 12.4427 17.0002 12.4127 16.9992 12.3838C16.9779 11.7605 16.6118 11.1916 16.0324 10.8809C16.0056 10.8665 15.9775 10.8529 15.9455 10.8369L14.7854 10.2598C14.7071 10.2208 14.6418 10.1879 14.5881 10.165ZM10.5715 16.4014C11.2816 16.4014 11.8566 16.9381 11.8566 17.6006C11.8566 18.263 11.2816 18.7998 10.5715 18.7998C9.86136 18.7998 9.28536 18.2631 9.28535 17.6006C9.28535 16.9381 9.86136 16.4014 10.5715 16.4014ZM13.1438 11.7656C13.1711 11.3454 13.6423 11.0808 14.0529 11.2559L15.3918 11.9219C15.5848 12.0255 15.707 12.2152 15.7141 12.4229C15.7143 12.4301 15.7141 12.4397 15.7141 12.4834C15.7141 12.5965 15.714 12.6245 15.7131 12.6377C15.6858 13.0581 15.2146 13.3219 14.8039 13.1465C14.791 13.141 14.7647 13.1286 14.6574 13.0752L13.5236 12.5107C13.4811 12.4896 13.4717 12.4851 13.465 12.4814C13.272 12.3778 13.1499 12.1882 13.1428 11.9805C13.1425 11.9733 13.1428 11.9637 13.1428 11.9189C13.1428 11.807 13.143 11.779 13.1438 11.7656ZM17.8615 4.72363C19.252 4.72363 20.3921 5.56285 20.7727 6.67676C20.7807 6.69998 20.7889 6.72362 20.7961 6.74707C20.398 6.6265 19.9831 6.54791 19.5637 6.49414C18.4834 6.35566 17.1182 6.35538 15.5324 6.35547H8.63985C7.05403 6.35538 5.68889 6.35567 4.6086 6.49414C4.18914 6.54791 3.77432 6.6265 3.37617 6.74707C3.38344 6.72362 3.39071 6.69998 3.39864 6.67676C3.77917 5.56273 4.92012 4.72363 6.31075 4.72363H17.8615ZM15.4904 2C15.7227 1.99994 15.9011 2.00039 16.0568 2.01562C17.1643 2.1241 18.0707 2.7896 18.4553 3.68652H5.54414C5.9287 2.78941 6.83581 2.12399 7.94356 2.01562C8.09932 2.0004 8.27756 1.99994 8.50996 2H15.4904Z" fill="#1C274C"/>
</svg>
