<svg width="24" height="24" viewBox="0 0 24 24" fill="none" xmlns="http://www.w3.org/2000/svg">
<path d="M15.5 13.25C15.9142 13.25 16.25 13.5858 16.25 14V18.1895L16.9697 17.4697C17.2626 17.1768 17.7374 17.1768 18.0303 17.4697C18.3232 17.7626 18.3232 18.2374 18.0303 18.5303L16.0303 20.5303C15.7374 20.8232 15.2626 20.8232 14.9697 20.5303L12.9697 18.5303C12.6768 18.2374 12.6768 17.7626 12.9697 17.4697C13.2626 17.1768 13.7374 17.1768 14.0303 17.4697L14.75 18.1895V14C14.75 13.5858 15.0858 13.25 15.5 13.25ZM19.4697 13.4697C19.7626 13.1768 20.2374 13.1768 20.5303 13.4697L22.5303 15.4697C22.8232 15.7626 22.8232 16.2374 22.5303 16.5303C22.2374 16.8232 21.7626 16.8232 21.4697 16.5303L20.75 15.8105V20C20.75 20.4142 20.4142 20.75 20 20.75C19.5858 20.75 19.25 20.4142 19.25 20V15.8105L18.5303 16.5303C18.2374 16.8232 17.7626 16.8232 17.4697 16.5303C17.1768 16.2374 17.1768 15.7626 17.4697 15.4697L19.4697 13.4697ZM22 12C22 12.283 21.9995 12.5552 21.999 12.8174L21.5908 12.4092C20.7121 11.5305 19.2879 11.5305 18.4092 12.4092L17.6074 13.21C17.2875 12.3571 16.4646 11.75 15.5 11.75C14.2574 11.75 13.25 12.7574 13.25 14V15.7637C12.7601 15.8182 12.2849 16.0336 11.9092 16.4092C11.0305 17.2879 11.0305 18.7121 11.9092 19.5908L12.3184 20H10C6.22878 20 4.34346 19.9997 3.17188 18.8281C2.00031 17.6566 2 15.7712 2 12C2 11.5581 2.00006 11.142 2.00195 10.75H21.998C21.9999 11.142 22 11.5581 22 12ZM6 15.25C5.58579 15.25 5.25 15.5858 5.25 16C5.25 16.4142 5.58579 16.75 6 16.75H10C10.4142 16.75 10.75 16.4142 10.75 16C10.75 15.5858 10.4142 15.25 10 15.25H6ZM14 4C17.7712 4 19.6566 4.00031 20.8281 5.17188C21.6717 6.01541 21.9085 7.22883 21.9746 9.25H2.02539C2.09152 7.22882 2.32834 6.01541 3.17188 5.17188C4.34345 4.00031 6.22876 4 10 4H14Z" fill="#1C274C"/>
</svg>
