<svg width="24" height="24" viewBox="0 0 24 24" fill="none" xmlns="http://www.w3.org/2000/svg">
<path d="M2 16.25C4.07107 16.25 5.75 17.9289 5.75 20C5.75 20.4142 5.41422 20.75 5 20.75C4.58579 20.75 4.25 20.4142 4.25 20C4.25 18.7574 3.24265 17.75 2 17.75C1.58579 17.75 1.25 17.4142 1.25 17C1.25 16.5858 1.58579 16.25 2 16.25ZM2 13.25C5.72793 13.25 8.75 16.2721 8.75 20C8.75 20.4142 8.41422 20.75 8 20.75C7.58579 20.75 7.25 20.4142 7.25 20C7.25 17.1005 4.8995 14.75 2 14.75C1.58579 14.75 1.25 14.4142 1.25 14C1.25 13.5858 1.58579 13.25 2 13.25ZM2 10.25C7.38478 10.25 11.75 14.6152 11.75 20C11.75 20.4142 11.4142 20.75 11 20.75C10.5858 20.75 10.25 20.4142 10.25 20C10.25 15.4437 6.55635 11.75 2 11.75C1.58579 11.75 1.25 11.4142 1.25 11C1.25 10.5858 1.58579 10.25 2 10.25ZM14.0566 3.25C15.8943 3.24999 17.3501 3.25017 18.4893 3.40332C19.6615 3.56096 20.6101 3.89331 21.3584 4.6416C22.1066 5.3899 22.439 6.33845 22.5967 7.51074C22.7498 8.6499 22.75 10.1058 22.75 11.9434V12.0566C22.75 13.8943 22.7498 15.3501 22.5967 16.4893C22.439 17.6616 22.1066 18.6101 21.3584 19.3584C20.6101 20.1066 19.6615 20.439 18.4893 20.5967C17.3501 20.7498 15.8943 20.75 14.0566 20.75H14C13.5858 20.75 13.25 20.4142 13.25 20C13.25 19.5858 13.5858 19.25 14 19.25C15.9067 19.25 17.2614 19.2485 18.2891 19.1104C19.2951 18.9752 19.8747 18.7211 20.2979 18.2979C20.7211 17.8747 20.9752 17.2951 21.1104 16.2891C21.2485 15.2614 21.25 13.9067 21.25 12C21.25 10.0933 21.2485 8.73859 21.1104 7.71094C20.9752 6.70485 20.7211 6.12536 20.2979 5.70215C19.8747 5.27895 19.2951 5.02492 18.2891 4.88965C17.2614 4.75151 15.9067 4.75 14 4.75H6.5C6.01802 4.75 5.83126 4.7509 5.68164 4.76562C4.13861 4.91761 2.91761 6.13861 2.76562 7.68164C2.7509 7.83126 2.75 8.01802 2.75 8.5C2.75 8.91422 2.41422 9.25 2 9.25C1.58579 9.25 1.25 8.91422 1.25 8.5V8.45215C1.24997 8.03346 1.24954 7.76691 1.27246 7.53418C1.49465 5.27915 3.27915 3.49465 5.53418 3.27246C5.7669 3.24954 6.03346 3.24997 6.45215 3.25H14.0566Z" fill="#48465C"/>
</svg>
