<svg width="24" height="24" viewBox="0 0 24 24" fill="none" xmlns="http://www.w3.org/2000/svg">
<path d="M12 1.25C14.5751 1.25 16.9408 2.15652 18.792 3.66699C21.2063 5.63703 22.75 8.63854 22.75 12C22.75 12.6916 22.6848 13.369 22.5596 14.0254C21.6118 18.9942 17.2452 22.75 12 22.75C11.0276 22.75 10.084 22.6206 9.18652 22.3779C5.05433 21.2602 1.90955 17.7418 1.3418 13.4092C1.28132 12.9477 1.25 12.4773 1.25 12C1.25 6.06294 6.06294 1.25 12 1.25ZM12 2.75C6.89137 2.75 2.75 6.89137 2.75 12C2.75 12.122 2.75217 12.2435 2.75684 12.3643C3.16012 12.2892 3.57584 12.25 4 12.25C7.72792 12.25 10.75 15.2721 10.75 19C10.75 19.7377 10.6315 20.4487 10.4121 21.1143C10.9276 21.2035 11.4581 21.25 12 21.25C16.2686 21.25 19.8631 18.3576 20.9287 14.4258C18.2142 13.5512 16.25 11.0059 16.25 8C16.25 6.6803 16.6299 5.44778 17.2852 4.40723C15.7871 3.3624 13.9656 2.75 12 2.75ZM4 13.75C3.63518 13.75 3.27952 13.7869 2.93652 13.8574C3.5911 17.0689 5.91148 19.6767 8.95605 20.7373C9.14649 20.1941 9.25 19.6097 9.25 19C9.25 16.1005 6.8995 13.75 4 13.75ZM15 14.25C15.9665 14.25 16.75 15.0335 16.75 16C16.75 16.9665 15.9665 17.75 15 17.75C14.0335 17.75 13.25 16.9665 13.25 16C13.25 15.0335 14.0335 14.25 15 14.25ZM15 15.75C14.8619 15.75 14.75 15.8619 14.75 16C14.75 16.1381 14.8619 16.25 15 16.25C15.1381 16.25 15.25 16.1381 15.25 16C15.25 15.8619 15.1381 15.75 15 15.75ZM18.4531 5.37305C18.0057 6.14549 17.75 7.04233 17.75 8C17.75 10.2678 19.1885 12.2009 21.2031 12.9346C21.2339 12.6273 21.25 12.3156 21.25 12C21.25 9.40177 20.1792 7.0541 18.4531 5.37305ZM10.5 5.25C12.2949 5.25 13.75 6.70507 13.75 8.5C13.75 10.2949 12.2949 11.75 10.5 11.75C8.70507 11.75 7.25 10.2949 7.25 8.5C7.25 6.70507 8.70507 5.25 10.5 5.25ZM10.5 6.75C9.5335 6.75 8.75 7.5335 8.75 8.5C8.75 9.4665 9.5335 10.25 10.5 10.25C11.4665 10.25 12.25 9.4665 12.25 8.5C12.25 7.5335 11.4665 6.75 10.5 6.75Z" fill="#1C274C"/>
</svg>
