<svg width="24" height="24" viewBox="0 0 24 24" fill="none" xmlns="http://www.w3.org/2000/svg">
<path fill-rule="evenodd" clip-rule="evenodd" d="M11.0899 1.77468C12.8423 1.28729 14.5433 1.1413 15.8907 1.32839C16.5629 1.42173 17.1853 1.60351 17.6866 1.8987C18.1929 2.19691 18.6164 2.63948 18.7735 3.24831C18.8086 3.38418 18.8282 3.51966 18.8341 3.65358L19.6319 14.3977L19.6329 14.4329C19.7089 15.7723 19.7687 16.8264 19.7442 17.6731C19.7192 18.5358 19.6067 19.2584 19.2921 19.9134C18.8607 20.8112 18.1813 21.5613 17.335 22.0657C16.7138 22.436 16.0145 22.597 15.1798 22.6741C14.3632 22.7496 13.3432 22.7503 12.0538 22.7503H11.9776C10.6732 22.7503 9.6415 22.7497 8.81648 22.6731C7.97364 22.5948 7.26852 22.4317 6.64363 22.0559C5.7926 21.544 5.11189 20.7831 4.68464 19.8743C4.37295 19.2112 4.26707 18.481 4.25203 17.6096C4.23727 16.7539 4.31023 15.689 4.40339 14.3352L4.40632 14.2923L5.10652 6.38503C5.13045 5.99848 5.26219 5.62712 5.45222 5.29128C5.74042 4.78199 6.18748 4.30545 6.72273 3.87722C7.7957 3.0189 9.33705 2.26221 11.0899 1.77468ZM18.1427 14.6419C17.0183 15.2182 15.1315 15.7502 12.0001 15.7503C8.89504 15.7503 7.01293 15.2276 5.88484 14.6565C5.79806 15.922 5.73936 16.8481 5.75203 17.5833C5.7654 18.3586 5.8593 18.8468 6.04207 19.2356C6.34571 19.8817 6.82515 20.4152 7.41609 20.7708C7.76671 20.9816 8.21792 21.1115 8.95515 21.18C9.70271 21.2494 10.6649 21.2503 12.0157 21.2503C13.3511 21.2503 14.3016 21.2493 15.0411 21.1809C15.7703 21.1135 16.2176 20.9856 16.5665 20.7776C17.1541 20.4273 17.634 19.9021 17.9405 19.2639C18.125 18.8797 18.223 18.3968 18.2452 17.6301C18.2668 16.8852 18.2162 15.9417 18.1427 14.6419ZM17.2159 6.37526C16.1429 7.23358 14.6015 7.99027 12.8487 8.4778C11.0964 8.96511 9.39516 9.1102 8.04793 8.92312C7.453 8.8405 6.89715 8.68887 6.42976 8.45046L6.02742 12.9925C6.65721 13.4587 8.27379 14.2503 12.0001 14.2503C15.824 14.2502 17.4259 13.4173 18.0206 12.9563L17.5137 6.12331C17.4181 6.20884 17.3185 6.29316 17.2159 6.37526ZM15.6846 2.81472C14.5865 2.66222 13.0959 2.77371 11.4913 3.21999C9.88752 3.66613 8.54146 4.34321 7.66023 5.04812C7.21852 5.40147 6.92141 5.73885 6.75691 6.02956C6.66291 6.19566 6.62063 6.33006 6.6075 6.43679L6.60359 6.48073C6.60051 6.5391 6.60673 6.58836 6.61726 6.62917C6.64752 6.74625 6.74263 6.90114 7.01375 7.06081C7.29 7.22346 7.70377 7.36132 8.25398 7.43776C9.35216 7.59026 10.8428 7.47877 12.4473 7.03249C14.0513 6.58634 15.3971 5.90836 16.2784 5.20339C16.7201 4.85004 17.0172 4.51265 17.1817 4.22194C17.3444 3.93431 17.3524 3.74224 17.3214 3.62233C17.291 3.5053 17.1957 3.35021 16.9249 3.19069C16.6486 3.02811 16.2348 2.89113 15.6846 2.81472Z" fill="#1C274C"/>
</svg>
