<svg width="24" height="24" viewBox="0 0 24 24" fill="none" xmlns="http://www.w3.org/2000/svg">
<path d="M12 2.25C17.3848 2.25 21.75 6.61522 21.75 12V14.793C21.8282 14.7653 21.9123 14.75 22 14.75C22.4142 14.75 22.75 15.0858 22.75 15.5V17.5C22.75 17.9142 22.4142 18.25 22 18.25C21.9094 18.25 21.8227 18.2335 21.7422 18.2041C21.7367 18.4045 21.7275 18.5896 21.7119 18.7588C21.6715 19.1941 21.5843 19.5959 21.3691 19.9717C21.226 20.2216 21.0453 20.4478 20.834 20.6426C20.5137 20.9378 20.1424 21.1059 19.7314 21.2305C19.3428 21.3483 18.8597 21.4439 18.2881 21.5566L18.2139 21.5713C17.8239 21.6482 17.4696 21.7179 17.1748 21.7412C16.8574 21.7662 16.4991 21.7486 16.1562 21.5557C15.9535 21.4415 15.7765 21.288 15.6338 21.1055C15.3965 20.8019 15.3165 20.4547 15.2822 20.1357C15.2498 19.835 15.25 19.4641 15.25 19.0479V13.8115C15.25 13.4577 15.25 13.1398 15.2754 12.8789C15.3025 12.6004 15.3646 12.2993 15.5479 12.0205C15.6988 11.791 15.9013 11.598 16.1406 11.46C16.4357 11.2899 16.7438 11.2519 17.0215 11.25C17.2781 11.2482 17.5861 11.2783 17.9219 11.3115L17.9922 11.3184C18.5777 11.376 19.0705 11.4248 19.4697 11.5039C19.7433 11.5581 20.0031 11.6316 20.2461 11.748C20.113 7.30829 16.472 3.75 12 3.75C7.52792 3.75 3.88706 7.30829 3.75391 11.748C3.99699 11.6316 4.25673 11.5581 4.53027 11.5039C4.92951 11.4248 5.42234 11.376 6.00781 11.3184L6.07812 11.3115C6.41394 11.2783 6.72196 11.2482 6.97852 11.25C7.25616 11.2519 7.56338 11.29 7.8584 11.46C8.09798 11.5981 8.30108 11.7908 8.45215 12.0205C8.63536 12.2993 8.69749 12.6004 8.72461 12.8789C8.75002 13.1398 8.75003 13.4577 8.75 13.8115V19.0479C8.75003 19.4641 8.75013 19.835 8.71777 20.1357C8.6834 20.4547 8.6035 20.8019 8.36621 21.1055C8.22353 21.288 8.04652 21.4415 7.84375 21.5557C7.50095 21.7486 7.14263 21.7662 6.8252 21.7412C6.53041 21.7179 6.17615 21.6482 5.78613 21.5713L5.71191 21.5566C5.14032 21.4439 4.65714 21.3483 4.26855 21.2305C3.85752 21.1059 3.48638 20.9378 3.16602 20.6426C2.95471 20.4478 2.774 20.2216 2.63086 19.9717C2.41563 19.5959 2.32843 19.1941 2.28809 18.7588C2.27241 18.5896 2.26331 18.4045 2.25781 18.2041C2.17738 18.2335 2.09064 18.25 2 18.25C1.58579 18.25 1.25 17.9142 1.25 17.5V15.5C1.25 15.0858 1.58579 14.75 2 14.75C2.08766 14.75 2.17181 14.7653 2.25 14.793V12C2.25 6.61522 6.61522 2.25 12 2.25ZM6.96777 12.75C6.79995 12.7489 6.5719 12.7701 6.19043 12.8076C5.55975 12.8698 5.1403 12.9124 4.82129 12.9756C4.51565 13.0362 4.3736 13.104 4.27832 13.1758C4.13863 13.281 4.01968 13.4171 3.92969 13.5762C3.86525 13.6901 3.81108 13.854 3.78125 14.1846C3.75044 14.5262 3.75 14.9702 3.75 15.6279V17.1934C3.75 17.8448 3.75094 18.2824 3.78223 18.6201C3.81235 18.9451 3.86597 19.109 3.93262 19.2256C4.00052 19.3441 4.08534 19.4504 4.18262 19.54C4.27453 19.6247 4.41049 19.706 4.7041 19.7949C5.01243 19.8884 5.42063 19.9702 6.03711 20.0918C6.47872 20.1789 6.74627 20.2306 6.94336 20.2461C7.04954 20.2545 7.09805 20.2484 7.11426 20.2451C7.13919 20.23 7.16288 20.2088 7.18359 20.1826C7.18994 20.17 7.21124 20.1177 7.22656 19.9756C7.24925 19.765 7.25 19.4761 7.25 19.0107V13.8447C7.25 13.4477 7.2489 13.2039 7.23145 13.0244C7.21938 12.9006 7.20306 12.8545 7.19824 12.8438C7.17492 12.8086 7.14582 12.7815 7.11523 12.7627C7.10207 12.7592 7.0601 12.7507 6.96777 12.75ZM16.8848 12.7627C16.8542 12.7815 16.8251 12.8086 16.8018 12.8438C16.7969 12.8545 16.7806 12.9006 16.7686 13.0244C16.7511 13.2039 16.75 13.4477 16.75 13.8447V19.0107C16.75 19.4761 16.7507 19.765 16.7734 19.9756C16.7888 20.1177 16.81 20.17 16.8164 20.1826C16.8371 20.2088 16.8608 20.23 16.8857 20.2451C16.9019 20.2484 16.9504 20.2545 17.0566 20.2461C17.2537 20.2306 17.5213 20.1789 17.9629 20.0918C18.5794 19.9702 18.9875 19.8884 19.2959 19.7949C19.5895 19.706 19.7255 19.6247 19.8174 19.54C19.9147 19.4504 19.9995 19.3441 20.0674 19.2256C20.134 19.109 20.1876 18.9451 20.2178 18.6201C20.2491 18.2824 20.25 17.8448 20.25 17.1934V15.6279C20.25 14.9702 20.2495 14.5262 20.2188 14.1846C20.1889 13.854 20.1348 13.6901 20.0703 13.5762C19.9804 13.4171 19.8613 13.281 19.7217 13.1758C19.6264 13.104 19.4843 13.0362 19.1787 12.9756C18.8597 12.9124 18.4403 12.8698 17.8096 12.8076C17.428 12.77 17.2 12.7489 17.0322 12.75C16.9398 12.7507 16.898 12.7592 16.8848 12.7627Z" fill="#48465C"/>
</svg>
