<svg width="24" height="24" viewBox="0 0 24 24" fill="none" xmlns="http://www.w3.org/2000/svg">
<path d="M21 16.0234C20.9998 18.1267 19.529 19.9479 17.4619 20.4043C13.8648 21.1983 10.1352 21.1983 6.53809 20.4043C4.47095 19.9479 3.00022 18.1267 3 16.0234V14.4766C7.36822 16.3302 12.1724 16.775 16.75 15.8115V16.6436C16.75 17.0549 17.0859 17.3886 17.5 17.3887C17.9142 17.3887 18.25 17.055 18.25 16.6436V15.4434C19.1812 15.1811 20.1 14.8585 21 14.4766V16.0234ZM13 1C14.6414 1 16.0352 2.04685 16.5439 3.50293C16.6973 3.94218 16.709 4.38609 16.709 4.72461V4.78516C19.2122 5.52272 20.9626 7.79705 20.999 10.416C20.9996 10.4571 21 10.5035 21 10.5957V12.9189C20.8982 12.9189 20.7944 12.9397 20.6953 12.9834C15.1595 15.4271 8.84048 15.4272 3.30469 12.9834C3.20553 12.9396 3.10193 12.9188 3 12.9189V10.5957C3 10.5035 3.00041 10.4571 3.00098 10.416C3.03747 7.79703 4.78778 5.52272 7.29102 4.78516V4.72461C7.29102 4.38609 7.3026 3.94218 7.45605 3.50293C7.96483 2.04684 9.35862 1 11 1H13ZM10 11.9258C9.58579 11.9258 9.25 12.2595 9.25 12.6709C9.25005 13.0823 9.58582 13.416 10 13.416H14C14.4142 13.416 14.7499 13.0823 14.75 12.6709C14.75 12.2595 14.4142 11.9258 14 11.9258H10ZM11 2.49023C10.017 2.49023 9.17977 3.11693 8.87402 3.99219C8.82863 4.12226 8.806 4.27227 8.79688 4.46191C10.9169 4.10178 13.0831 4.10177 15.2031 4.46191C15.1939 4.27226 15.1714 4.12226 15.126 3.99219C14.8203 3.11693 13.9831 2.49023 13 2.49023H11Z" fill="#48465C"/>
</svg>
