<svg width="24" height="24" viewBox="0 0 24 24" fill="none" xmlns="http://www.w3.org/2000/svg">
<path d="M13.385 1.36377C15.109 1.19791 16.7634 1.23524 18.1252 1.33936C20.5741 1.52659 22.4731 3.42566 22.6604 5.87451C22.7645 7.2364 22.8029 8.89064 22.637 10.6147C22.3526 13.5708 21.4579 16.8416 19.1497 19.1499C16.8414 21.4581 13.5706 22.3528 10.6145 22.6372C8.89039 22.8031 7.23616 22.7647 5.87427 22.6606C3.42541 22.4733 1.52634 20.5744 1.33911 18.1255C1.235 16.7637 1.19766 15.1093 1.36353 13.3853C1.64796 10.4293 2.54171 7.15825 4.84985 4.8501C7.158 2.54196 10.429 1.6482 13.385 1.36377ZM2.75806 15.1665C2.732 16.188 2.76986 17.1564 2.83521 18.0112C2.966 19.7218 4.27791 21.0347 5.98853 21.1655C6.84336 21.2309 7.81161 21.2678 8.83325 21.2417L2.75806 15.1665ZM13.1799 2.89307C10.4832 3.19802 7.77999 4.04301 5.91138 5.91162C4.04277 7.78023 3.19777 10.4835 2.89282 13.1802L10.8206 21.1069C13.5172 20.802 16.2206 19.9579 18.0891 18.0894C19.9576 16.2208 20.8018 13.5174 21.1067 10.8208L13.1799 2.89307ZM14.7795 8.16064C15.0723 7.86775 15.5472 7.86775 15.8401 8.16064C16.1328 8.45355 16.1329 8.92835 15.8401 9.22119L14.9524 10.1089L15.8401 10.9976C16.1328 11.2905 16.1329 11.7653 15.8401 12.0581C15.5472 12.3508 15.0723 12.3508 14.7795 12.0581L13.8918 11.1694L13.0608 12.0005L13.9485 12.8882C14.2414 13.1811 14.2414 13.6558 13.9485 13.9487C13.6556 14.2416 13.1808 14.2416 12.8879 13.9487L12.0002 13.061L11.1692 13.8921L12.0579 14.7798C12.3506 15.0726 12.3506 15.5475 12.0579 15.8403C11.765 16.1332 11.2902 16.1331 10.9973 15.8403L10.1086 14.9526L9.22095 15.8403C8.9281 16.1332 8.4533 16.1331 8.1604 15.8403C7.86751 15.5474 7.86751 15.0726 8.1604 14.7798L9.0481 13.8921L8.1604 13.0034C7.86751 12.7106 7.86751 12.2358 8.1604 11.9429C8.4533 11.6501 8.9281 11.65 9.22095 11.9429L10.1086 12.8306L10.9397 12.0005L10.051 11.1118C9.75853 10.8189 9.75829 10.3441 10.051 10.0513C10.3438 9.75854 10.8186 9.75877 11.1116 10.0513L12.0002 10.9399L12.8303 10.1089L11.9426 9.22119C11.6498 8.92835 11.6499 8.45355 11.9426 8.16064C12.2355 7.86775 12.7104 7.86775 13.0032 8.16064L13.8918 9.04834L14.7795 8.16064ZM15.1663 2.7583L21.2415 8.8335C21.2675 7.81185 21.2307 6.8436 21.1653 5.98877C21.0345 4.27815 19.7216 2.96624 18.011 2.83545C17.1562 2.77011 16.1878 2.73224 15.1663 2.7583Z" fill="#1C274C"/>
</svg>
