<svg width="24" height="24" viewBox="0 0 24 24" fill="none" xmlns="http://www.w3.org/2000/svg">
<path d="M13.385 1.36328C15.109 1.19742 16.7634 1.23475 18.1252 1.33887C20.5741 1.5261 22.4731 3.42517 22.6604 5.87402C22.7645 7.23591 22.8028 8.89015 22.637 10.6143C22.3526 13.5704 21.4579 16.8411 19.1497 19.1494C16.8414 21.4576 13.5706 22.3523 10.6145 22.6367C8.89039 22.8026 7.23616 22.7643 5.87427 22.6602C3.42541 22.4729 1.52634 20.5739 1.33911 18.125C1.235 16.7632 1.19766 15.1088 1.36353 13.3848C1.64796 10.4288 2.54171 7.15776 4.84985 4.84961C7.15801 2.54147 10.429 1.64772 13.385 1.36328ZM2.75806 15.166C2.732 16.1876 2.76986 17.1559 2.83521 18.0107C2.966 19.7213 4.27791 21.0342 5.98853 21.165C6.84336 21.2304 7.81161 21.2673 8.83325 21.2412L2.75806 15.166ZM13.1799 2.89258C10.4832 3.19753 7.77999 4.04252 5.91138 5.91113C4.04277 7.77974 3.19777 10.483 2.89282 13.1797L10.8206 21.1064C13.5172 20.8015 16.2206 19.9574 18.0891 18.0889C19.9576 16.2203 20.8018 13.5169 21.1067 10.8203L13.1799 2.89258ZM14.7795 8.16016C15.0723 7.86727 15.5472 7.86727 15.8401 8.16016C16.1328 8.45306 16.1329 8.92786 15.8401 9.2207L14.9524 10.1084L15.8401 10.9971C16.1328 11.29 16.1329 11.7648 15.8401 12.0576C15.5472 12.3503 15.0723 12.3503 14.7795 12.0576L13.8918 11.1689L13.0608 12L13.9485 12.8877C14.2414 13.1806 14.2414 13.6553 13.9485 13.9482C13.6556 14.2411 13.1808 14.2411 12.8879 13.9482L12.0002 13.0605L11.1692 13.8916L12.0579 14.7793C12.3506 15.0721 12.3506 15.547 12.0579 15.8398C11.765 16.1327 11.2902 16.1326 10.9973 15.8398L10.1086 14.9521L9.22095 15.8398C8.9281 16.1327 8.4533 16.1326 8.1604 15.8398C7.86751 15.5469 7.86751 15.0721 8.1604 14.7793L9.0481 13.8916L8.1604 13.0029C7.86751 12.7101 7.86751 12.2353 8.1604 11.9424C8.4533 11.6496 8.9281 11.6495 9.22095 11.9424L10.1086 12.8301L10.9397 12L10.051 11.1113C9.75853 10.8184 9.75829 10.3436 10.051 10.0508C10.3438 9.75805 10.8186 9.75828 11.1116 10.0508L12.0002 10.9395L12.8303 10.1084L11.9426 9.2207C11.6498 8.92786 11.6499 8.45306 11.9426 8.16016C12.2355 7.86727 12.7104 7.86727 13.0032 8.16016L13.8918 9.04785L14.7795 8.16016ZM15.1663 2.75781L21.2415 8.83301C21.2675 7.81136 21.2307 6.84311 21.1653 5.98828C21.0345 4.27766 19.7216 2.96575 18.011 2.83496C17.1562 2.76962 16.1878 2.73176 15.1663 2.75781Z" fill="#48465C"/>
</svg>
