<svg width="24" height="24" viewBox="0 0 24 24" fill="none" xmlns="http://www.w3.org/2000/svg">
<path d="M14.6807 2.32202C15.0553 2.14571 15.5022 2.30588 15.6787 2.68042C15.8551 3.05521 15.6941 3.5021 15.3193 3.67847L10.3867 5.99976H14C17.7711 5.99976 19.6566 6.00016 20.8281 7.17163C21.9997 8.34318 22 10.2287 22 13.9998C22 17.771 21.9997 19.6574 20.8281 20.8289C19.6566 22.0001 17.7708 21.9998 14 21.9998H10C6.22918 21.9998 4.34348 22.0001 3.17188 20.8289C2.00031 19.6574 2 17.771 2 13.9998C2 10.2287 2.00033 8.34319 3.17188 7.17163C3.94591 6.39768 5.03142 6.13478 6.7666 6.04565L14.6807 2.32202ZM8 10.2498C5.929 10.2498 4.25012 11.9288 4.25 13.9998C4.25 16.0709 5.92893 17.7498 8 17.7498C10.0711 17.7498 11.75 16.0709 11.75 13.9998C11.7499 11.9288 10.071 10.2498 8 10.2498ZM13.5 16.2498C13.0859 16.2498 12.7501 16.5857 12.75 16.9998C12.75 17.414 13.0858 17.7498 13.5 17.7498H19C19.4142 17.7498 19.75 17.414 19.75 16.9998C19.7499 16.5857 19.4141 16.2498 19 16.2498H13.5ZM8 11.7498C9.24257 11.7498 10.2499 12.7573 10.25 13.9998C10.25 15.2424 9.24264 16.2498 8 16.2498C6.75736 16.2498 5.75 15.2424 5.75 13.9998C5.75012 12.7573 6.75743 11.7498 8 11.7498ZM13.5 13.2498C13.0859 13.2498 12.7501 13.5857 12.75 13.9998C12.75 14.414 13.0858 14.7498 13.5 14.7498H19C19.4142 14.7498 19.75 14.414 19.75 13.9998C19.7499 13.5857 19.4141 13.2498 19 13.2498H13.5ZM13.5 10.2498C13.0859 10.2498 12.7501 10.5857 12.75 10.9998C12.75 11.414 13.0858 11.7498 13.5 11.7498H19C19.4142 11.7498 19.75 11.414 19.75 10.9998C19.7499 10.5857 19.4141 10.2498 19 10.2498H13.5Z" fill="#1C274C"/>
</svg>
