<svg width="24" height="24" viewBox="0 0 24 24" fill="none" xmlns="http://www.w3.org/2000/svg">
<path d="M12 2C15.7712 2 17.6566 2.00031 18.8281 3.17188C19.9997 4.34346 20 6.22878 20 10V14C20 17.7712 19.9997 19.6566 18.8281 20.8281C17.6566 21.9997 15.7712 22 12 22C8.22878 22 6.34346 21.9997 5.17188 20.8281C4.00031 19.6566 4 17.7712 4 14V10C4 6.22876 4.00031 4.34345 5.17188 3.17188C6.34345 2.00031 8.22876 2 12 2ZM12 15C10.8954 15 10 15.8954 10 17C10 18.1046 10.8954 19 12 19C13.1046 19 14 18.1046 14 17C14 15.8954 13.1046 15 12 15ZM9 4.25C8.58579 4.25 8.25 4.58579 8.25 5C8.25 5.41421 8.58579 5.75 9 5.75H15C15.4142 5.75 15.75 5.41421 15.75 5C15.75 4.58579 15.4142 4.25 15 4.25H9Z" fill="#1C274C"/>
</svg>
