<svg width="24" height="24" viewBox="0 0 24 24" fill="none" xmlns="http://www.w3.org/2000/svg">
<path d="M15.7744 1.34595C16.4857 1.15888 17.2532 1.24225 17.9121 1.62817C18.4263 1.9294 19.1326 2.36634 19.6494 2.78052C19.8018 2.90264 19.9561 3.03721 20.1074 3.177L20.1484 3.21509C20.582 3.61565 20.9735 3.97737 21.2461 4.33032C21.5541 4.72927 21.7531 5.16865 21.75 5.72095C21.7466 6.29243 21.5129 6.74456 21.1816 7.15063C20.8804 7.51989 20.4478 7.90969 19.9541 8.35474L19.7285 8.55786C19.1865 9.0466 19.0937 9.15162 19.042 9.26978C18.9882 9.39287 18.9736 9.54559 18.9736 10.2952V18.3118C18.9737 18.9333 18.9736 19.4747 18.9102 19.928C18.8406 20.4247 18.6895 20.8675 18.3604 21.2795C17.7343 22.0634 16.9319 22.2103 15.9805 22.384C15.938 22.3918 15.8947 22.3996 15.8516 22.4075C14.8199 22.5972 13.5178 22.7502 12 22.7502C10.4822 22.7502 9.18006 22.5973 8.14844 22.4075C8.10528 22.3996 8.06209 22.3918 8.01953 22.384C7.06816 22.2103 6.26572 22.0634 5.63965 21.2795C5.31049 20.8675 5.15937 20.4247 5.08984 19.928C5.02642 19.4747 5.02633 18.9333 5.02637 18.3118V10.2952C5.02636 9.54559 5.01183 9.39287 4.95801 9.26978C4.90636 9.15163 4.81345 9.04658 4.27148 8.55786L4.08594 8.39087C4.07256 8.37881 4.05918 8.36672 4.0459 8.35474C3.55229 7.90969 3.1196 7.51988 2.81836 7.15063C2.4871 6.74458 2.25341 6.29241 2.25 5.72095C2.24681 5.16866 2.4459 4.72926 2.75391 4.33032C3.02649 3.97739 3.41804 3.61562 3.85156 3.21509C3.86503 3.20265 3.87904 3.18952 3.89258 3.177C4.04388 3.03721 4.19822 2.90264 4.35059 2.78052C4.86738 2.36634 5.57374 1.9294 6.08789 1.62817C6.74683 1.24222 7.5143 1.15888 8.22559 1.34595L8.71582 1.47485C9.29348 1.62692 9.78692 1.99703 10.1064 2.50122C11.0142 3.93381 12.9857 3.93379 13.8936 2.50122C14.2132 1.99689 14.7073 1.62684 15.2852 1.47485L15.7744 1.34595ZM17.1543 2.9231C16.859 2.75007 16.5047 2.70452 16.1562 2.79614L15.666 2.92505C15.4679 2.97722 15.2853 3.10812 15.1611 3.30396C13.6642 5.66605 10.3357 5.66605 8.83887 3.30396C8.71467 3.10814 8.53217 2.97721 8.33398 2.92505L7.84375 2.79614C7.49541 2.70453 7.14102 2.75007 6.8457 2.9231C6.34012 3.21932 5.71395 3.61006 5.28809 3.95142C5.1694 4.04655 5.04221 4.15654 4.91016 4.27856C4.42323 4.72854 4.12774 5.00516 3.94141 5.24634C3.7822 5.45248 3.74921 5.57531 3.75 5.71216C3.75074 5.82971 3.78302 5.96033 3.98047 6.20239C4.20017 6.47169 4.54495 6.78535 5.09082 7.27759L5.27637 7.44458C5.30396 7.46946 5.33118 7.49433 5.3584 7.5188C5.76987 7.88864 6.13409 8.21643 6.33203 8.66919C6.52791 9.11728 6.52723 9.61184 6.52637 10.1809V18.2649C6.52637 18.9468 6.528 19.3826 6.5752 19.72C6.61792 20.0252 6.6919 20.1942 6.81152 20.344C7.05512 20.6488 7.28203 20.7225 8.41992 20.9319C9.37202 21.107 10.5829 21.2502 12 21.2502C13.417 21.2502 14.628 21.107 15.5801 20.9319C16.718 20.7225 16.9449 20.6488 17.1885 20.344C17.3082 20.1942 17.382 20.0251 17.4248 19.72C17.472 19.3826 17.4736 18.9468 17.4736 18.2649V10.1809C17.4728 9.61185 17.4721 9.11728 17.668 8.66919C17.866 8.21643 18.2302 7.88864 18.6416 7.5188C18.669 7.49422 18.6969 7.46958 18.7246 7.44458L18.9092 7.27759C19.4551 6.78535 19.7998 6.47169 20.0195 6.20239C20.217 5.9603 20.2492 5.82972 20.25 5.71216C20.2508 5.57531 20.2178 5.45248 20.0586 5.24634C19.8722 5.00516 19.5767 4.72851 19.0898 4.27856C18.9578 4.15654 18.8306 4.04655 18.7119 3.95142C18.286 3.61006 17.6599 3.21932 17.1543 2.9231Z" fill="#48465C"/>
</svg>
