<svg width="24" height="24" viewBox="0 0 24 24" fill="none" xmlns="http://www.w3.org/2000/svg">
<path fill-rule="evenodd" clip-rule="evenodd" d="M15.7745 1.34601C16.4857 1.15895 17.2532 1.24231 17.9121 1.62824C18.4263 1.92947 19.1327 2.36641 19.6495 2.78058C19.8018 2.9027 19.9562 3.03728 20.1075 3.17707L20.1485 3.21515C20.582 3.61571 20.9736 3.97743 21.2461 4.33039C21.5541 4.72933 21.7531 5.16871 21.75 5.72101C21.7466 6.2925 21.5129 6.74463 21.1817 7.1507C20.8804 7.51995 20.4478 7.90976 19.9541 8.3548L19.7286 8.55793C19.1866 9.04667 19.0937 9.15169 19.042 9.26984C18.9882 9.39294 18.9737 9.54565 18.9737 10.2952V18.3118C18.9738 18.9333 18.9736 19.4747 18.9102 19.928C18.8407 20.4247 18.6895 20.8676 18.3604 21.2796C17.7343 22.0635 16.932 22.2104 15.9805 22.3841C15.938 22.3919 15.8947 22.3996 15.8516 22.4075C14.8199 22.5973 13.5178 22.7503 12 22.7503C10.4822 22.7503 9.1801 22.5973 8.14848 22.4075C8.10532 22.3996 8.06213 22.3919 8.01957 22.3841C7.0682 22.2104 6.26576 22.0635 5.63969 21.2796C5.31052 20.8676 5.1594 20.4247 5.08988 19.928C5.02646 19.4747 5.02636 18.9333 5.0264 18.3118V10.2952C5.0264 9.54565 5.01187 9.39294 4.95805 9.26984C4.90639 9.15169 4.81348 9.04664 4.27152 8.55793L4.08598 8.39093C4.0726 8.37888 4.05922 8.36678 4.04594 8.3548C3.55232 7.90976 3.11963 7.51994 2.8184 7.1507C2.48714 6.74464 2.25345 6.29247 2.25004 5.72101C2.24685 5.16872 2.44594 4.72932 2.75394 4.33039C3.02652 3.97745 3.41808 3.61568 3.8516 3.21515C3.86507 3.20271 3.87908 3.18959 3.89262 3.17707C4.04391 3.03727 4.19826 2.90271 4.35062 2.78058C4.86742 2.36641 5.57378 1.92947 6.08793 1.62824C6.74687 1.24229 7.51434 1.15894 8.22562 1.34601L8.71586 1.47492C9.29351 1.62699 9.78695 1.9971 10.1065 2.50129C11.0143 3.93388 12.9858 3.93385 13.8936 2.50129C14.2132 1.99696 14.7073 1.62691 15.2852 1.47492L15.7745 1.34601ZM17.1543 2.92316C16.859 2.75013 16.5047 2.70459 16.1563 2.79621L15.6661 2.92511C15.4679 2.97728 15.2853 3.10818 15.1612 3.30402C13.6643 5.66611 10.3358 5.66611 8.8389 3.30402C8.71471 3.1082 8.53221 2.97727 8.33402 2.92511L7.84379 2.79621C7.49545 2.7046 7.14106 2.75014 6.84574 2.92316C6.34016 3.21939 5.71399 3.61013 5.28812 3.95148C5.16944 4.04662 5.04224 4.1566 4.91019 4.27863C4.42326 4.7286 4.12778 5.00522 3.94144 5.2464C3.78223 5.45254 3.74925 5.57537 3.75004 5.71222C3.75077 5.82978 3.78306 5.96039 3.98051 6.20246C4.20021 6.47176 4.54499 6.78541 5.09086 7.27765L5.2764 7.44464C5.304 7.46953 5.33122 7.4944 5.35844 7.51886C5.76991 7.8887 6.13413 8.21649 6.33207 8.66925C6.52795 9.11735 6.52726 9.6119 6.5264 10.181V18.265C6.5264 18.9469 6.52803 19.3826 6.57523 19.72C6.61795 20.0252 6.69193 20.1943 6.81156 20.3441C7.05516 20.6489 7.28206 20.7226 8.41996 20.9319C9.37206 21.107 10.583 21.2503 12 21.2503C13.4171 21.2503 14.6281 21.107 15.5801 20.9319C16.718 20.7226 16.945 20.6489 17.1885 20.3441C17.3082 20.1943 17.382 20.0252 17.4248 19.72C17.472 19.3826 17.4737 18.9469 17.4737 18.265V10.181C17.4729 9.61191 17.4721 9.11734 17.668 8.66925C17.866 8.21649 18.2302 7.8887 18.6416 7.51886C18.669 7.49428 18.6969 7.46964 18.7246 7.44464L18.9092 7.27765C19.4551 6.78541 19.7999 6.47176 20.0196 6.20246C20.217 5.96036 20.2493 5.82978 20.25 5.71222C20.2508 5.57537 20.2178 5.45254 20.0586 5.2464C19.8722 5.00522 19.5768 4.72857 19.0899 4.27863C18.9578 4.1566 18.8306 4.04662 18.712 3.95148C18.286 3.61012 17.66 3.21939 17.1543 2.92316Z" fill="#1C274C"/>
</svg>
