<svg width="24" height="24" viewBox="0 0 24 24" fill="none" xmlns="http://www.w3.org/2000/svg">
<path d="M11.9997 1.25C12.4139 1.25 12.7497 1.58579 12.7497 2V4.18945L14.4694 2.46973C14.7622 2.1769 15.237 2.17704 15.5299 2.46973C15.8228 2.76262 15.8228 3.23738 15.5299 3.53027L12.7497 6.31055V10.7012L16.5524 8.50586L17.57 4.70801C17.6772 4.308 18.0879 4.07071 18.4879 4.17773C18.888 4.28491 19.1252 4.69568 19.0182 5.0957L18.3893 7.44531L20.2848 6.35059C20.6436 6.14348 21.103 6.26628 21.3102 6.625C21.5172 6.9837 21.3936 7.44233 21.0348 7.64941L19.1393 8.74414L21.4879 9.37402C21.888 9.48122 22.1253 9.8919 22.0182 10.292C21.9109 10.6921 21.5003 10.9294 21.1003 10.8223L17.3024 9.80469L13.4997 12L17.3024 14.1953L21.1003 13.1777C21.5004 13.0705 21.9119 13.3079 22.0192 13.708C22.1262 14.1079 21.8887 14.5186 21.4889 14.626L19.1393 15.2559L21.0358 16.3506C21.3943 16.5578 21.5171 17.0163 21.3102 17.375C21.1031 17.7336 20.6446 17.8563 20.2858 17.6494L18.3893 16.5547L19.0192 18.9043C19.1261 19.3041 18.8886 19.7149 18.4889 19.8223C18.0888 19.9295 17.6772 19.6921 17.57 19.292L16.5524 15.4941L12.7497 13.2988V17.6895L15.5299 20.4697C15.8228 20.7626 15.8228 21.2374 15.5299 21.5303C15.237 21.823 14.7622 21.8231 14.4694 21.5303L12.7497 19.8105V22C12.7497 22.4142 12.4139 22.75 11.9997 22.75C11.5857 22.7498 11.2497 22.4141 11.2497 22V19.8105L9.52994 21.5303C9.23703 21.8229 8.76221 21.8231 8.46939 21.5303C8.17676 21.2374 8.17676 20.7626 8.46939 20.4697L11.2497 17.6895V13.2988L7.44791 15.4941L6.43033 19.292C6.32312 19.6921 5.91148 19.9295 5.51138 19.8223C5.11159 19.715 4.87415 19.3042 4.98111 18.9043L5.61099 16.5547L3.71451 17.6494C3.3558 17.8564 2.89718 17.7337 2.69009 17.375C2.48312 17.0163 2.60599 16.5578 2.96451 16.3506L4.86099 15.2559L2.51138 14.626C2.11154 14.5186 1.87403 14.1079 1.98111 13.708C2.08831 13.3079 2.49995 13.0705 2.90005 13.1777L6.69791 14.1953L10.4997 12L6.69791 9.80469L2.90005 10.8223C2.49995 10.9295 2.08832 10.6921 1.98111 10.292C1.87421 9.89214 2.11171 9.48141 2.51138 9.37402L4.86099 8.74414L2.96451 7.64941C2.60611 7.44221 2.48313 6.98358 2.69009 6.625C2.89715 6.26638 3.35583 6.14371 3.71451 6.35059L5.61099 7.44531L4.98111 5.0957C4.87427 4.69591 5.11172 4.28509 5.51138 4.17773C5.91148 4.07052 6.32313 4.30791 6.43033 4.70801L7.44791 8.50586L11.2497 10.7012V6.31055L8.46939 3.53027C8.17678 3.23744 8.17678 2.76256 8.46939 2.46973C8.76221 2.17691 9.23703 2.17705 9.52994 2.46973L11.2497 4.18945V2C11.2497 1.58594 11.5857 1.25024 11.9997 1.25Z" fill="#1C274C"/>
</svg>
