<svg width="24" height="24" viewBox="0 0 24 24" fill="none" xmlns="http://www.w3.org/2000/svg">
<path d="M11.9996 1.25C12.4138 1.25 12.7496 1.58579 12.7496 2V4.18945L14.4694 2.46973C14.7622 2.1769 15.237 2.17704 15.5299 2.46973C15.8228 2.76262 15.8228 3.23738 15.5299 3.53027L12.7496 6.31055V10.7012L16.5524 8.50586L17.5699 4.70801C17.6771 4.308 18.0879 4.07071 18.4879 4.17773C18.8879 4.28491 19.1252 4.69568 19.0182 5.0957L18.3893 7.44531L20.2848 6.35059C20.6436 6.14348 21.103 6.26628 21.3102 6.625C21.5172 6.9837 21.3935 7.44233 21.0348 7.64941L19.1393 8.74414L21.4879 9.37402C21.888 9.48122 22.1253 9.8919 22.0182 10.292C21.9109 10.6921 21.5003 10.9294 21.1002 10.8223L17.3024 9.80469L13.4996 12L17.3024 14.1953L21.1002 13.1777C21.5003 13.0705 21.9119 13.3079 22.0192 13.708C22.1262 14.1079 21.8886 14.5186 21.4889 14.626L19.1393 15.2559L21.0358 16.3506C21.3943 16.5578 21.5171 17.0163 21.3102 17.375C21.103 17.7336 20.6445 17.8563 20.2858 17.6494L18.3893 16.5547L19.0192 18.9043C19.1261 19.3041 18.8886 19.7149 18.4889 19.8223C18.0888 19.9295 17.6771 19.6921 17.5699 19.292L16.5524 15.4941L12.7496 13.2988V17.6895L15.5299 20.4697C15.8228 20.7626 15.8228 21.2374 15.5299 21.5303C15.237 21.823 14.7622 21.8231 14.4694 21.5303L12.7496 19.8105V22C12.7496 22.4142 12.4138 22.75 11.9996 22.75C11.5856 22.7498 11.2496 22.4141 11.2496 22V19.8105L9.52991 21.5303C9.237 21.823 8.76218 21.8231 8.46936 21.5303C8.17673 21.2374 8.17673 20.7626 8.46936 20.4697L11.2496 17.6895V13.2988L7.44788 15.4941L6.4303 19.292C6.32309 19.6921 5.91145 19.9295 5.51135 19.8223C5.11156 19.715 4.87412 19.3042 4.98108 18.9043L5.61096 16.5547L3.71448 17.6494C3.35577 17.8564 2.89715 17.7337 2.69006 17.375C2.48309 17.0163 2.60596 16.5578 2.96448 16.3506L4.86096 15.2559L2.51135 14.626C2.11151 14.5186 1.874 14.1079 1.98108 13.708C2.08828 13.3079 2.49992 13.0705 2.90002 13.1777L6.69788 14.1953L10.4996 12L6.69788 9.80469L2.90002 10.8223C2.49992 10.9295 2.08829 10.6921 1.98108 10.292C1.87418 9.89214 2.11168 9.48141 2.51135 9.37402L4.86096 8.74414L2.96448 7.64941C2.60608 7.44221 2.4831 6.98358 2.69006 6.625C2.89712 6.26638 3.3558 6.14371 3.71448 6.35059L5.61096 7.44531L4.98108 5.0957C4.87424 4.69591 5.11169 4.28509 5.51135 4.17773C5.91145 4.07052 6.3231 4.30791 6.4303 4.70801L7.44788 8.50586L11.2496 10.7012V6.31055L8.46936 3.53027C8.17675 3.23744 8.17675 2.76256 8.46936 2.46973C8.76218 2.17691 9.237 2.17705 9.52991 2.46973L11.2496 4.18945V2C11.2496 1.58594 11.5856 1.25024 11.9996 1.25Z" fill="#48465C"/>
</svg>
