<svg width="24" height="24" viewBox="0 0 24 24" fill="none" xmlns="http://www.w3.org/2000/svg">
<path d="M14.8269 7.28809C16.1898 7.28807 17.2832 7.28754 18.1316 7.4082C19.0094 7.53304 19.7403 7.80095 20.2839 8.42871C20.8273 9.05639 20.9933 9.8245 20.9998 10.7207C21.006 11.587 20.8615 12.6836 20.6814 14.0498L20.3162 16.8213C20.1754 17.8892 20.0607 18.7537 19.8835 19.4307C19.6991 20.1353 19.4267 20.7196 18.9158 21.1719C18.4048 21.6242 17.7967 21.8203 17.0818 21.9121C16.3949 22.0002 15.5321 22 14.4666 22H9.53296C8.46772 22 7.60551 22.0002 6.9187 21.9121C6.20366 21.8203 5.59468 21.6243 5.08374 21.1719C4.57293 20.7196 4.30038 20.1352 4.11597 19.4307C3.93885 18.7537 3.8251 17.8891 3.68433 16.8213L3.31909 14.0498C3.13894 12.6836 2.99361 11.587 2.99976 10.7207C3.00617 9.82458 3.17227 9.05636 3.71558 8.42871C4.25901 7.80102 4.99033 7.53307 5.86792 7.4082C6.71633 7.28753 7.81063 7.28807 9.17358 7.28809H14.8269ZM9.22534 8.625C7.79834 8.625 6.798 8.62638 6.05249 8.73242C5.32558 8.8358 4.95755 9.02443 4.71069 9.30957C4.4639 9.59467 4.3283 9.98837 4.323 10.7305C4.3176 11.4917 4.4479 12.4946 4.63647 13.9248L4.68628 14.3047L5.05835 14.0322C6.01721 13.33 7.43362 13.3648 8.34546 14.1279L11.7302 16.9609C12.0501 17.2284 12.6011 17.2779 12.9988 17.0439L13.2341 16.9062C14.3594 16.2443 15.8677 16.3134 16.906 17.0957L18.738 18.4756C18.8283 17.9802 18.9089 17.3711 19.0105 16.6006L19.363 13.9248C19.5516 12.4946 19.6829 11.4917 19.6775 10.7305C19.6722 9.9883 19.5357 9.59468 19.2888 9.30957C19.042 9.02448 18.6738 8.83579 17.947 8.73242C17.2016 8.62644 16.2017 8.625 14.7751 8.625H9.22534ZM15.9675 10.6309C16.698 10.6309 17.2908 11.2301 17.2908 11.9688C17.2906 12.7072 16.6979 13.3057 15.9675 13.3057C15.2373 13.3055 14.6454 12.7071 14.6453 11.9688C14.6453 11.2301 15.2372 10.631 15.9675 10.6309ZM17.2751 4.5C18.5267 4.5 19.5528 5.34007 19.8953 6.4541C19.9023 6.47712 19.9093 6.50019 19.9158 6.52344C19.5576 6.40296 19.1848 6.32426 18.8074 6.27051C17.8351 6.13201 16.6059 6.13272 15.1785 6.13281H8.97632C7.54891 6.13272 6.31973 6.13202 5.34741 6.27051C4.97006 6.32426 4.5972 6.40296 4.23901 6.52344C4.24551 6.50019 4.25245 6.47712 4.25952 6.4541C4.602 5.34007 5.62807 4.5 6.87964 4.5H17.2751ZM15.1414 2C15.3504 1.99994 15.511 2.00039 15.6511 2.01562C16.648 2.12412 17.4642 2.7895 17.8103 3.68652H6.19019C6.53633 2.78951 7.35245 2.12397 8.34937 2.01562C8.48951 2.00042 8.65008 1.99994 8.85913 2H15.1414Z" fill="#48465C"/>
</svg>
