<svg width="24" height="24" viewBox="0 0 24 24" fill="none" xmlns="http://www.w3.org/2000/svg">
<path d="M12 2C17.5228 2 22 6.47715 22 12C22 17.5228 17.5228 22 12 22C6.47715 22 2 17.5228 2 12C2 6.47715 6.47715 2 12 2ZM15.5303 11.9697C15.2374 11.6768 14.7626 11.6768 14.4697 11.9697L12 14.4395L9.53027 11.9697C9.23739 11.6768 8.76261 11.6768 8.46973 11.9697C8.17684 12.2626 8.17684 12.7374 8.46973 13.0303L11.4697 16.0303C11.7626 16.3232 12.2374 16.3232 12.5303 16.0303L15.5303 13.0303C15.8232 12.7374 15.8232 12.2626 15.5303 11.9697ZM15.5303 7.96973C15.2374 7.67684 14.7626 7.67684 14.4697 7.96973L12 10.4395L9.53027 7.96973C9.23738 7.67684 8.76262 7.67684 8.46973 7.96973C8.17684 8.26262 8.17684 8.73738 8.46973 9.03027L11.4697 12.0303C11.7626 12.3232 12.2374 12.3232 12.5303 12.0303L15.5303 9.03027C15.8232 8.73739 15.8232 8.26261 15.5303 7.96973Z" fill="#48465C"/>
</svg>
