<svg width="24" height="24" viewBox="0 0 24 24" fill="none" xmlns="http://www.w3.org/2000/svg">
<path d="M12 4.43652C14.2743 2.30931 16.8462 1.77041 18.9756 2.65625C21.2578 3.6057 22.7499 6.07876 22.75 9.25977C22.75 11.3856 21.6208 13.479 20.2139 15.2822C18.7928 17.1034 17.005 18.7342 15.5127 19.9512L15.3779 20.0615C14.1781 21.0414 13.3105 21.75 12 21.75C10.6895 21.75 9.82192 21.0413 8.62207 20.0615L8.4873 19.9512C6.99498 18.7342 5.20714 17.1034 3.78613 15.2822C2.37919 13.4791 1.25 11.3856 1.25 9.25977C1.2501 6.07884 2.7422 3.60572 5.02441 2.65625C7.15379 1.77041 9.72571 2.30933 12 4.43652ZM9.38965 10.2832L7.81348 11.7852C7.45761 12.1251 7.14129 12.4265 6.73535 12.5889C6.32941 12.7512 5.89256 12.7508 5.40039 12.75H3.86523C4.18028 13.2873 4.55229 13.8256 4.96875 14.3594C6.29283 16.0563 7.98571 17.6068 9.43555 18.7891C10.8285 19.9251 11.2785 20.25 12 20.25C12.7216 20.25 13.1715 19.9251 14.5645 18.7891C16.0143 17.6068 17.7072 16.0564 19.0312 14.3594C19.4477 13.8256 19.8197 13.2873 20.1348 12.75H18.6357C17.9123 12.75 17.7747 12.7648 17.6631 12.8145C17.5515 12.8642 17.4485 12.9567 16.9639 13.4951L15.9082 14.667C15.7505 14.8424 15.584 15.0278 15.4238 15.1621C15.2388 15.3173 14.9628 15.4913 14.5898 15.4834C14.2169 15.4754 13.9489 15.29 13.7705 15.127C13.6161 14.9859 13.4576 14.7934 13.3076 14.6113L9.75488 10.3057C9.68748 10.2239 9.63241 10.1574 9.58398 10.1006C9.52913 10.1512 9.46634 10.2102 9.38965 10.2832ZM18.3994 4.04102C16.827 3.387 14.6469 3.75496 12.5488 6.00977C12.407 6.16201 12.2081 6.24805 12 6.24805C11.7919 6.24805 11.593 6.16201 11.4512 6.00977C9.35312 3.75489 7.17291 3.38785 5.60059 4.04199C4.008 4.70466 2.7501 6.53019 2.75 9.25977C2.75 9.90467 2.88969 10.5724 3.1416 11.25H5.2998C5.9513 11.25 6.07574 11.2375 6.17871 11.1963C6.28165 11.1551 6.37995 11.0781 6.85156 10.6289L8.38184 9.17188C8.54047 9.02068 8.71018 8.85903 8.87109 8.74316C9.05864 8.60816 9.3293 8.46336 9.68066 8.48438C10.0322 8.50549 10.284 8.68138 10.4541 8.83789C10.6001 8.9723 10.7491 9.15397 10.8887 9.32324L14.4404 13.627C14.5131 13.715 14.5726 13.7871 14.625 13.8486C14.6802 13.7894 14.7429 13.7198 14.8193 13.6348L15.8486 12.4912L15.9229 12.4082C16.2875 12.0018 16.6116 11.6408 17.0527 11.4443C17.4937 11.2479 17.9787 11.2491 18.5244 11.25H20.8594C21.1113 10.5724 21.25 9.90469 21.25 9.25977C21.2499 6.52997 19.9921 4.70359 18.3994 4.04102Z" fill="#1C274C"/>
</svg>
