<svg width="24" height="24" viewBox="0 0 24 24" fill="none" xmlns="http://www.w3.org/2000/svg">
<path d="M12 1.25C17.9371 1.25 22.75 6.06294 22.75 12C22.75 17.9371 17.9371 22.75 12 22.75C6.06294 22.75 1.25 17.9371 1.25 12C1.25 6.06294 6.06294 1.25 12 1.25ZM12 2.75C6.89137 2.75 2.75 6.89137 2.75 12C2.75 17.1086 6.89137 21.25 12 21.25C17.1086 21.25 21.25 17.1086 21.25 12C21.25 6.89137 17.1086 2.75 12 2.75ZM14 14.25C14.1989 14.25 14.3897 14.329 14.5303 14.4697L15.5303 15.4697C15.8232 15.7626 15.8232 16.2374 15.5303 16.5303C15.2374 16.8232 14.7626 16.8232 14.4697 16.5303L14 16.0605L13.5303 16.5303C13.3897 16.671 13.1989 16.75 13 16.75C12.8011 16.75 12.6103 16.671 12.4697 16.5303L12 16.0605L11.5303 16.5303C11.3897 16.671 11.1989 16.75 11 16.75C10.8011 16.75 10.6103 16.671 10.4697 16.5303L10 16.0605L9.53027 16.5303C9.23739 16.8232 8.76261 16.8232 8.46973 16.5303C8.17684 16.2374 8.17684 15.7626 8.46973 15.4697L9.46973 14.4697C9.61038 14.329 9.8011 14.25 10 14.25C10.1989 14.25 10.3897 14.329 10.5303 14.4697L11 14.9395L11.4697 14.4697C11.6103 14.329 11.8011 14.25 12 14.25C12.1989 14.25 12.3897 14.329 12.5303 14.4697L13 14.9395L13.4697 14.4697C13.6103 14.329 13.8011 14.25 14 14.25ZM7.40039 8.5498C7.64898 8.21871 8.11893 8.15194 8.4502 8.40039L10.4502 9.90039C10.6389 10.042 10.75 10.264 10.75 10.5C10.75 10.736 10.6389 10.958 10.4502 11.0996L8.4502 12.5996C8.11891 12.848 7.64897 12.7814 7.40039 12.4502C7.15194 12.1189 7.21871 11.649 7.5498 11.4004L8.75 10.5L7.5498 9.59961C7.21875 9.35101 7.15195 8.88105 7.40039 8.5498ZM15.5498 8.40039C15.8811 8.15195 16.351 8.21873 16.5996 8.5498C16.848 8.88106 16.7813 9.35101 16.4502 9.59961L15.25 10.5L16.4502 11.4004C16.7813 11.6489 16.848 12.1189 16.5996 12.4502C16.3511 12.7813 15.8811 12.848 15.5498 12.5996L13.5498 11.0996C13.3611 10.958 13.25 10.736 13.25 10.5C13.25 10.264 13.3611 10.042 13.5498 9.90039L15.5498 8.40039Z" fill="#48465C"/>
</svg>
