<svg width="24" height="24" viewBox="0 0 24 24" fill="none" xmlns="http://www.w3.org/2000/svg">
<path d="M15.0957 4.25C15.9334 4.24987 16.4669 4.24936 16.9268 4.34082C18.8111 4.71562 20.2844 6.18897 20.6592 8.07324C20.7289 8.4233 20.7451 8.81636 20.749 9.35352C21.9038 9.67969 22.75 10.7409 22.75 12V14.4443C22.75 15.974 21.9521 17.3173 20.75 18.0811V19C20.75 19.4142 20.4142 19.75 20 19.75C19.5858 19.75 19.25 19.4142 19.25 19V18.6748C18.989 18.7242 18.7197 18.75 18.4443 18.75H5.55566C5.28034 18.75 5.01095 18.7242 4.75 18.6748V19C4.75 19.4142 4.41421 19.75 4 19.75C3.58579 19.75 3.25 19.4142 3.25 19V18.0811C2.04786 17.3173 1.25 15.974 1.25 14.4443V12C1.25 10.7409 2.09626 9.67968 3.25098 9.35352C3.25487 8.81636 3.27119 8.4233 3.34082 8.07324C3.71564 6.18897 5.18897 4.71562 7.07324 4.34082C7.53308 4.24936 8.06649 4.24987 8.9043 4.25H15.0957ZM20 10.75C19.3096 10.75 18.75 11.3097 18.75 12V13.2002C18.7499 14.0561 18.056 14.7499 17.2002 14.75H6.7998C5.94392 14.7499 5.2501 14.0561 5.25 13.2002V12C5.24999 11.3097 4.69036 10.75 4 10.75C3.30964 10.75 2.75001 11.3097 2.75 12V14.4443C2.75 15.9937 4.00619 17.25 5.55566 17.25H18.4443C19.9938 17.25 21.25 15.9937 21.25 14.4443V12C21.25 11.3097 20.6904 10.75 20 10.75ZM9 5.75C8.035 5.75 7.66185 5.75373 7.36621 5.8125C6.07696 6.06894 5.06894 7.07697 4.8125 8.36621C4.76912 8.58439 4.75596 8.84522 4.75195 9.35449C5.90515 9.68164 6.75 10.742 6.75 12V13.2002C6.7501 13.2276 6.77235 13.2499 6.7998 13.25H11.25V5.75H9ZM12.75 13.25H17.2002C17.2276 13.2499 17.2499 13.2276 17.25 13.2002V12C17.25 10.742 18.0948 9.68163 19.248 9.35449C19.244 8.8452 19.2309 8.58438 19.1875 8.36621C18.931 7.07696 17.9231 6.06894 16.6338 5.8125C16.3382 5.75372 15.9651 5.75 15 5.75H12.75V13.25Z" fill="#1C274C"/>
</svg>
