<svg width="24" height="24" viewBox="0 0 24 24" fill="none" xmlns="http://www.w3.org/2000/svg">
<path d="M14 6C16.8 6 18.2 6.00015 19.2695 6.54492C20.2103 7.02428 20.9758 7.78966 21.4551 8.73047C21.9999 9.79998 22 11.2 22 14C22 16.7999 21.9999 18.2 21.4551 19.2695C20.9758 20.2103 20.2103 20.9758 19.2695 21.4551C18.2 21.9999 16.7999 22 14 22H10C7.20006 22 5.79998 21.9999 4.73047 21.4551C3.78966 20.9758 3.02428 20.2103 2.54492 19.2695C2.00015 18.2 2 16.8 2 14C2 11.2 2.00013 9.79998 2.54492 8.73047C3.02428 7.78966 3.78966 7.02428 4.73047 6.54492C5.79998 6.00013 7.20005 6 10 6H14ZM15.4688 11.4141C15.1454 11.1554 14.6729 11.2078 14.4141 11.5312L10.9883 15.8145L9.57617 14.1201C9.31099 13.8019 8.83774 13.7583 8.51953 14.0234C8.20134 14.2886 8.15868 14.7619 8.42383 15.0801L10.4238 17.4805C10.568 17.6533 10.7827 17.7522 11.0078 17.75C11.2329 17.7476 11.4453 17.6445 11.5859 17.4688L15.5859 12.4688C15.8446 12.1454 15.7922 11.6729 15.4688 11.4141ZM11.999 2C16.713 2 19.0708 2.00037 20.5352 3.46484C21.2924 4.22228 21.6585 5.21874 21.835 6.65625C21.3044 6.06559 20.6662 5.57283 19.9502 5.20801C19.1688 4.80989 18.3318 4.64894 17.4053 4.57324C16.5103 4.50013 15.4091 4.49998 14.0625 4.5H9.93652C8.58977 4.49998 7.4879 4.50011 6.59277 4.57324C5.66663 4.64894 4.83004 4.81008 4.04883 5.20801C3.33283 5.57283 2.69473 6.06559 2.16406 6.65625C2.34059 5.2186 2.70647 4.22231 3.46387 3.46484C4.9283 2.0004 7.28516 2 11.999 2Z" fill="#1C274C"/>
</svg>
