<svg width="24" height="24" viewBox="0 0 24 24" fill="none" xmlns="http://www.w3.org/2000/svg">
<path d="M19 16C20.6569 16 22 17.3431 22 19C22 20.6569 20.6569 22 19 22C17.3431 22 16 20.6569 16 19C16 17.3431 17.3431 16 19 16ZM16.1318 4.25C18.883 4.25 19.9295 7.84324 17.6084 9.32031L7.19727 15.9453C6.14222 16.6167 6.61761 18.25 7.86816 18.25H11.1895L10.9697 18.0303C10.6769 17.7374 10.6769 17.2626 10.9697 16.9697C11.2626 16.6769 11.7374 16.6768 12.0303 16.9697L13.5303 18.4697C13.8232 18.7626 13.8232 19.2374 13.5303 19.5303L12.0303 21.0303C11.7374 21.3232 11.2626 21.3231 10.9697 21.0303C10.6769 20.7374 10.6769 20.2626 10.9697 19.9697L11.1895 19.75H7.86816C5.11692 19.75 4.0705 16.1568 6.3916 14.6797L16.8027 8.05469C17.8577 7.38329 17.3823 5.75 16.1318 5.75H11C10.5858 5.75 10.25 5.41421 10.25 5C10.25 4.58579 10.5858 4.25 11 4.25H16.1318ZM5 2C6.65685 2 8 3.34315 8 5C8 6.65685 6.65685 8 5 8C3.34315 8 2 6.65685 2 5C2 3.34315 3.34315 2 5 2Z" fill="#1C274C"/>
</svg>
