<svg width="24" height="24" viewBox="0 0 24 24" fill="none" xmlns="http://www.w3.org/2000/svg">
<path d="M11.2444 1.95459C12.9442 1.01501 15.0348 1.01492 16.7346 1.95459C17.3643 2.30268 17.9518 2.86636 18.9065 3.78076C18.9372 3.81017 18.9687 3.83948 19.0002 3.86963C19.0332 3.90121 19.0657 3.93261 19.0979 3.96338C20.0489 4.87367 20.6383 5.43771 21.0042 6.04443C21.9989 7.69414 21.9989 9.73169 21.0042 11.3813C20.6383 11.9881 20.0489 12.5522 19.0979 13.4624C19.0657 13.4932 19.0332 13.5246 19.0002 13.5562L11.5432 20.6958C11.0141 21.2024 10.5828 21.6152 10.2034 21.9214C9.81024 22.2384 9.42241 22.4832 8.96802 22.6138C8.33614 22.7954 7.66336 22.7954 7.03149 22.6138C6.57711 22.4832 6.19023 22.2384 5.79712 21.9214C5.41763 21.6153 4.98554 21.2026 4.4563 20.6958L4.40845 20.6499C3.87969 20.1436 3.44811 19.7303 3.12817 19.3667C2.79787 18.9913 2.5364 18.6148 2.39575 18.1665C2.20082 17.5449 2.20082 16.8809 2.39575 16.2593C2.53637 15.8109 2.79787 15.4345 3.12817 15.0591C3.44809 14.6955 3.87975 14.2821 4.40845 13.7759L11.759 6.73779C11.7854 6.71265 11.8115 6.68724 11.8372 6.6626C12.2065 6.30808 12.5187 6.00852 12.8792 5.84229C13.514 5.5496 14.2512 5.5496 14.886 5.84229C15.2463 6.00852 15.5578 6.30824 15.927 6.6626C15.9527 6.68729 15.9787 6.71259 16.0051 6.73779C16.0323 6.76386 16.0595 6.78943 16.0862 6.81494C16.4532 7.1654 16.7686 7.46699 16.9456 7.81885C17.2618 8.44779 17.2618 9.1831 16.9456 9.81201C16.8416 10.0186 16.7034 10.1903 16.5549 10.3501C16.4132 10.5027 16.2318 10.6764 16.0208 10.8784L8.62524 17.9595C8.32605 18.2456 7.85108 18.2352 7.5647 17.936C7.27856 17.6369 7.28907 17.1619 7.58813 16.8755L14.968 9.81006C15.1984 9.58945 15.3481 9.44609 15.4563 9.32959C15.5609 9.21698 15.5926 9.16431 15.6057 9.13818C15.7088 8.93327 15.7088 8.69759 15.6057 8.49268C15.5614 8.40459 15.4628 8.29463 14.968 7.8208C14.4761 7.34983 14.3577 7.25099 14.2571 7.20459C14.0209 7.09583 13.7432 7.09574 13.5071 7.20459C13.4065 7.25102 13.2885 7.35033 12.7971 7.8208L5.46997 14.8354C4.91134 15.3703 4.52757 15.7397 4.25513 16.0493C3.98827 16.3526 3.87854 16.5453 3.82739 16.7085C3.72415 17.0377 3.72412 17.388 3.82739 17.7173C3.87855 17.8804 3.98829 18.0731 4.25513 18.3765C4.52751 18.686 4.91162 19.0547 5.46997 19.5894C6.02862 20.1243 6.4146 20.4931 6.73853 20.7544C7.05424 21.0091 7.26125 21.1193 7.44556 21.1724C7.8067 21.2763 8.19281 21.2763 8.55396 21.1724C8.7383 21.1194 8.94521 21.0091 9.26099 20.7544C9.58492 20.4931 9.97086 20.1243 10.5295 19.5894L17.9631 12.4722C19.0427 11.4385 19.4699 11.0198 19.719 10.6069C20.4265 9.43362 20.4265 7.99215 19.719 6.81885C19.4699 6.40597 19.0427 5.98734 17.9631 4.95361C16.885 3.92136 16.4454 3.50937 16.009 3.26807C14.7607 2.57796 13.2183 2.57796 11.97 3.26807C11.5335 3.50935 11.0942 3.92118 10.0159 4.95361L4.02661 10.688C3.72747 10.9743 3.25255 10.9646 2.96606 10.6655C2.67959 10.3664 2.69032 9.89144 2.9895 9.60498L8.97876 3.86963C9.01025 3.83948 9.0418 3.81018 9.07251 3.78076C10.0272 2.86637 10.6147 2.30268 11.2444 1.95459Z" fill="#1C274C"/>
</svg>
