<svg width="24" height="24" viewBox="0 0 24 24" fill="none" xmlns="http://www.w3.org/2000/svg">
<path d="M12 2C16.714 2 19.0708 2.00037 20.5352 3.46484C21.9996 4.9293 22 7.28597 22 12C22 16.714 21.9997 19.0708 20.5352 20.5352C19.0708 21.9997 16.714 22 12 22C7.28597 22 4.9293 21.9996 3.46484 20.5352C2.00037 19.0708 2 16.714 2 12C2 7.28595 2.00037 4.9293 3.46484 3.46484C4.9293 2.00037 7.28595 2 12 2ZM9.19824 7.25C8.29978 7.24997 7.54985 7.25012 6.95508 7.33008C6.32747 7.41452 5.76102 7.6003 5.30566 8.05566C4.8503 8.51102 4.66452 9.07747 4.58008 9.70508C4.50012 10.2999 4.49997 11.0497 4.5 11.9482V12.0518C4.49997 12.9503 4.50012 13.7001 4.58008 14.2949C4.66452 14.9225 4.8503 15.489 5.30566 15.9443C5.76102 16.3997 6.32748 16.5855 6.95508 16.6699C7.54986 16.7499 8.29977 16.75 9.19824 16.75H9.25C9.66422 16.75 10 16.4142 10 16C10 15.5858 9.66422 15.25 9.25 15.25C8.28599 15.25 7.63831 15.2485 7.15527 15.1836C6.69389 15.1215 6.49652 15.0141 6.36621 14.8838C6.23591 14.7535 6.12845 14.5561 6.06641 14.0947C6.00147 13.6117 6 12.964 6 12C6 11.036 6.00147 10.3883 6.06641 9.90527C6.12845 9.44388 6.2359 9.24652 6.36621 9.11621C6.49652 8.9859 6.69388 8.87845 7.15527 8.81641C7.63831 8.75147 8.28599 8.75 9.25 8.75C10.214 8.75 10.8617 8.75147 11.3447 8.81641C11.8061 8.87845 12.0035 8.98591 12.1338 9.11621C12.2641 9.24652 12.3715 9.44388 12.4336 9.90527C12.4985 10.3883 12.5 11.036 12.5 12C12.5 12.4142 12.8358 12.75 13.25 12.75C13.6642 12.75 14 12.4142 14 12V11.9482C14 11.0497 13.9999 10.2999 13.9199 9.70508C13.8355 9.07748 13.6497 8.51102 13.1943 8.05566C12.739 7.6003 12.1725 7.41452 11.5449 7.33008C10.9501 7.25012 10.2002 7.24997 9.30176 7.25H9.19824ZM14.75 7.25C14.3358 7.25 14 7.58579 14 8C14 8.41422 14.3358 8.75 14.75 8.75C15.714 8.75 16.3617 8.75147 16.8447 8.81641C17.3061 8.87845 17.5035 8.98591 17.6338 9.11621C17.7641 9.24652 17.8715 9.44388 17.9336 9.90527C17.9985 10.3883 18 11.036 18 12C18 12.964 17.9985 13.6117 17.9336 14.0947C17.8715 14.5561 17.7641 14.7535 17.6338 14.8838C17.5035 15.0141 17.3061 15.1215 16.8447 15.1836C16.3617 15.2485 15.714 15.25 14.75 15.25C13.786 15.25 13.1383 15.2485 12.6553 15.1836C12.1939 15.1215 11.9965 15.0141 11.8662 14.8838C11.7359 14.7535 11.6285 14.5561 11.5664 14.0947C11.5015 13.6117 11.5 12.964 11.5 12C11.5 11.5858 11.1642 11.25 10.75 11.25C10.3358 11.25 10 11.5858 10 12V12.0518C9.99997 12.9503 10.0001 13.7001 10.0801 14.2949C10.1645 14.9225 10.3503 15.489 10.8057 15.9443C11.261 16.3997 11.8275 16.5855 12.4551 16.6699C13.0499 16.7499 13.7997 16.75 14.6982 16.75H14.8018C15.7003 16.75 16.4501 16.7499 17.0449 16.6699C17.6725 16.5855 18.239 16.3997 18.6943 15.9443C19.1497 15.489 19.3355 14.9225 19.4199 14.2949C19.4999 13.7001 19.5 12.9503 19.5 12.0518V11.9482C19.5 11.0498 19.4999 10.2999 19.4199 9.70508C19.3355 9.07748 19.1497 8.51102 18.6943 8.05566C18.239 7.6003 17.6725 7.41452 17.0449 7.33008C16.4501 7.25012 15.7003 7.24997 14.8018 7.25H14.75Z" fill="#1C274C"/>
</svg>
