<svg width="24" height="24" viewBox="0 0 24 24" fill="none" xmlns="http://www.w3.org/2000/svg">
<path d="M12.9834 2.00098C12.834 2.30197 12.75 2.64118 12.75 3C12.75 4.24264 13.7574 5.25 15 5.25H15.5684L11.4092 9.40918C10.5305 10.2879 10.5305 11.7121 11.4092 12.5908C12.2879 13.4695 13.7121 13.4695 14.5908 12.5908L18.75 8.43164V9C18.75 10.2426 19.7574 11.25 21 11.25C21.3588 11.25 21.6979 11.166 21.999 11.0166C21.9995 11.3325 22 11.6602 22 12C22 16.714 21.9997 19.0708 20.5352 20.5352C19.0708 21.9997 16.714 22 12 22C7.28598 22 4.9293 21.9996 3.46484 20.5352C2.00037 19.0708 2 16.714 2 12C2 7.28596 2.00037 4.9293 3.46484 3.46484C4.9293 2.00037 7.28596 2 12 2C12.3398 2 12.6675 2.00043 12.9834 2.00098ZM21 2.25C21.4142 2.25 21.75 2.58579 21.75 3V9C21.75 9.41421 21.4142 9.75 21 9.75C20.5858 9.75 20.25 9.41421 20.25 9V4.81055L13.5303 11.5303C13.2374 11.8232 12.7626 11.8232 12.4697 11.5303C12.1768 11.2374 12.1768 10.7626 12.4697 10.4697L19.1895 3.75H15C14.5858 3.75 14.25 3.41421 14.25 3C14.25 2.58579 14.5858 2.25 15 2.25H21Z" fill="#1C274C"/>
</svg>
