<svg width="24" height="24" viewBox="0 0 24 24" fill="none" xmlns="http://www.w3.org/2000/svg">
<path d="M12 12.25C13.7843 12.25 15.434 12.7312 16.6592 13.5479C17.8787 14.3611 18.75 15.5668 18.75 17C18.75 18.4332 17.8787 19.6389 16.6592 20.4521C15.434 21.2688 13.7843 21.75 12 21.75C10.2158 21.75 8.5669 21.2688 7.3418 20.4521C6.12193 19.6388 5.25 18.4334 5.25 17C5.25 15.5666 6.12193 14.3612 7.3418 13.5479C8.5669 12.7312 10.2158 12.25 12 12.25ZM12 13.75C10.4707 13.75 9.12028 14.165 8.17383 14.7959C7.22214 15.4304 6.75 16.2242 6.75 17C6.75 17.7758 7.22214 18.5696 8.17383 19.2041C9.12028 19.835 10.4707 20.25 12 20.25C13.5293 20.25 14.8798 19.835 15.8262 19.2041C16.7779 18.5696 17.25 17.7758 17.25 17C17.25 16.2242 16.7779 15.4304 15.8262 14.7959C14.8798 14.165 13.5293 13.75 12 13.75ZM3.83887 13.2676C4.24347 13.1789 4.6437 13.4352 4.73242 13.8398C4.8209 14.2442 4.56532 14.6435 4.16113 14.7324C3.3689 14.9062 2.73531 15.2049 2.31738 15.5469C1.89897 15.8892 1.75006 16.2237 1.75 16.5C1.75 16.7763 1.89889 17.1107 2.31738 17.4531C2.73531 17.7951 3.3688 18.0938 4.16113 18.2676C4.56546 18.3565 4.82112 18.7567 4.73242 19.1611C4.64357 19.5656 4.24337 19.8211 3.83887 19.7324C2.87719 19.5215 2.01058 19.1408 1.36719 18.6143C0.724247 18.0882 0.25 17.3648 0.25 16.5C0.250059 15.6353 0.724285 14.9118 1.36719 14.3857C2.01058 13.8593 2.87724 13.4785 3.83887 13.2676ZM19.2676 13.8398C19.3562 13.4354 19.7557 13.1792 20.1602 13.2676C21.1219 13.4785 21.9893 13.8592 22.6328 14.3857C23.2758 14.9118 23.7499 15.6353 23.75 16.5C23.75 17.3648 23.2758 18.0882 22.6328 18.6143C21.9893 19.1409 21.122 19.5215 20.1602 19.7324C19.7558 19.8209 19.3564 19.5654 19.2676 19.1611C19.1789 18.7566 19.4345 18.3564 19.8389 18.2676C20.6313 18.0938 21.2646 17.7951 21.6826 17.4531C22.1011 17.1107 22.25 16.7763 22.25 16.5C22.2499 16.2237 22.101 15.8892 21.6826 15.5469C21.2646 15.2049 20.6312 14.9062 19.8389 14.7324C19.4346 14.6436 19.1791 14.2442 19.2676 13.8398ZM12 1.25C14.6234 1.25 16.75 3.37665 16.75 6C16.75 8.62335 14.6234 10.75 12 10.75C9.37665 10.75 7.25 8.62335 7.25 6C7.25 3.37665 9.37665 1.25 12 1.25ZM6 3.25C6.41421 3.25 6.75 3.58579 6.75 4C6.75 4.41421 6.41421 4.75 6 4.75C4.62351 4.75 3.75 5.65573 3.75 6.5C3.75 7.34427 4.62351 8.25 6 8.25C6.41421 8.25 6.75 8.58579 6.75 9C6.75 9.41421 6.41421 9.75 6 9.75C4.06278 9.75 2.25 8.41715 2.25 6.5C2.25 4.58285 4.06278 3.25 6 3.25ZM18 3.25C19.9372 3.25 21.75 4.58285 21.75 6.5C21.75 8.41715 19.9372 9.75 18 9.75C17.5858 9.75 17.25 9.41421 17.25 9C17.25 8.58579 17.5858 8.25 18 8.25C19.3765 8.25 20.25 7.34427 20.25 6.5C20.25 5.65573 19.3765 4.75 18 4.75C17.5858 4.75 17.25 4.41421 17.25 4C17.25 3.58579 17.5858 3.25 18 3.25ZM12 2.75C10.2051 2.75 8.75 4.20507 8.75 6C8.75 7.79493 10.2051 9.25 12 9.25C13.7949 9.25 15.25 7.79493 15.25 6C15.25 4.20507 13.7949 2.75 12 2.75Z" fill="#48465C"/>
</svg>
