<svg width="24" height="24" viewBox="0 0 24 24" fill="none" xmlns="http://www.w3.org/2000/svg">
<path d="M12 2C16.714 2 19.0708 2.00037 20.5352 3.46484C21.9996 4.9293 22 7.28597 22 12C22 16.714 21.9997 19.0708 20.5352 20.5352C19.0708 21.9997 16.714 22 12 22C7.28597 22 4.9293 21.9996 3.46484 20.5352C2.00037 19.0708 2 16.714 2 12C2 7.28595 2.00037 4.9293 3.46484 3.46484C4.9293 2.00037 7.28595 2 12 2ZM12 9.25C11.8011 9.25 11.6103 9.32908 11.4697 9.46973L8.46973 12.4697C8.17684 12.7626 8.17684 13.2374 8.46973 13.5303C8.76261 13.8232 9.23739 13.8232 9.53027 13.5303L11.25 11.8105V17C11.25 17.4142 11.5858 17.75 12 17.75C12.4142 17.75 12.75 17.4142 12.75 17V11.8105L14.4697 13.5303C14.7626 13.8232 15.2374 13.8232 15.5303 13.5303C15.8232 13.2374 15.8232 12.7626 15.5303 12.4697L12.5303 9.46973C12.3897 9.32908 12.1989 9.25 12 9.25ZM8 6.25C7.58579 6.25 7.25 6.58579 7.25 7C7.25 7.41421 7.58579 7.75 8 7.75H16C16.4142 7.75 16.75 7.41421 16.75 7C16.75 6.58579 16.4142 6.25 16 6.25H8Z" fill="#1C274C"/>
</svg>
