<svg width="24" height="24" viewBox="0 0 24 24" fill="none" xmlns="http://www.w3.org/2000/svg">
<path d="M12.707 5.4895L18.5107 11.2922L20.0625 12.845C20.0203 13.875 19.8718 15.2248 19.4609 16.6624C19.1623 17.7065 18.6977 18.7394 18.2207 19.6428C17.0296 21.8986 14.2894 22.5729 12.1934 21.5032L12.168 21.4895L11.0186 20.7903C7.82823 18.8495 5.14976 16.172 3.20898 12.9817L2.50977 11.8323L2.49707 11.8069C1.42716 9.71087 2.1007 6.96976 4.35645 5.77856C5.25989 5.30154 6.2937 4.83684 7.33789 4.53833C8.77542 4.12742 10.1252 3.97892 11.1553 3.93677L12.707 5.4895ZM20.6865 2.22583C20.9869 1.92536 21.4739 1.92536 21.7744 2.22583C22.0747 2.5263 22.0748 3.01329 21.7744 3.31372L20.0996 4.98853C21.334 6.68847 21.3341 9.0064 20.0996 10.7063L13.2939 3.90063C14.9938 2.66618 17.3117 2.66614 19.0117 3.90063L20.6865 2.22583Z" fill="#48465C"/>
</svg>
