<svg width="24" height="24" viewBox="0 0 24 24" fill="none" xmlns="http://www.w3.org/2000/svg">
<path d="M12 5.49854C16.4997 0.662825 21.9998 3.34951 22 9.26025C22 13.0078 17.9804 16.9713 15.0381 19.3706C13.7061 20.4568 13.0403 21.0005 12 21.0005C10.9597 21.0005 10.2939 20.4568 8.96191 19.3706C6.01962 16.9713 2 13.0077 2 9.26025C2.00024 3.34969 7.5003 0.662836 12 5.49854ZM10.416 8.69678C9.94875 8.67171 9.6268 8.93416 9.43359 9.13818C9.25676 9.32495 9.07397 9.58608 8.89062 9.84814L8.58105 10.2905C8.35395 10.615 8.21212 10.8176 8.08887 10.9634C7.97539 11.0976 7.91178 11.1413 7.86523 11.1655C7.81867 11.1898 7.74618 11.2159 7.57129 11.2319C7.38122 11.2493 7.13404 11.2505 6.73828 11.2505H6C5.58579 11.2505 5.25 11.5863 5.25 12.0005C5.2501 12.4146 5.58585 12.7505 6 12.7505H6.76855C7.12534 12.7505 7.44164 12.7504 7.70801 12.7261C7.997 12.6997 8.27863 12.6408 8.55762 12.4956C8.83667 12.3503 9.04699 12.1529 9.23438 11.9312C9.40704 11.7268 9.5884 11.4676 9.79297 11.1753L10.0928 10.7466C10.1823 10.6187 10.257 10.5123 10.3232 10.4214C10.3792 10.5188 10.4415 10.6324 10.5166 10.769L12.2275 13.8794C12.3934 14.1812 12.5564 14.477 12.7197 14.6919C12.8947 14.9219 13.2023 15.2373 13.6953 15.2466C14.1883 15.2559 14.5079 14.9523 14.6914 14.729C14.8628 14.5203 15.0366 14.2305 15.2139 13.9351L15.2695 13.8423C15.4901 13.4747 15.629 13.2447 15.752 13.0786C15.865 12.926 15.9306 12.8758 15.9795 12.8481C16.0283 12.8204 16.1053 12.7895 16.2949 12.771C16.5006 12.751 16.7693 12.7505 17.1982 12.7505H18C18.4141 12.7505 18.7499 12.4146 18.75 12.0005C18.75 11.5863 18.4142 11.2505 18 11.2505H17.166C16.779 11.2505 16.4364 11.2499 16.1494 11.2778C15.8383 11.308 15.5352 11.3754 15.2402 11.5425C14.9455 11.7094 14.7328 11.9349 14.5469 12.186C14.3753 12.4177 14.1992 12.7115 14 13.0435L13.9521 13.1226C13.8655 13.2671 13.7931 13.3874 13.7285 13.4907C13.6678 13.3851 13.5998 13.2623 13.5186 13.1147L11.8096 10.0063C11.6555 9.72595 11.5014 9.44649 11.3457 9.2417C11.1755 9.01798 10.8835 8.72202 10.416 8.69678Z" fill="#1C274C"/>
</svg>
