<svg width="24" height="24" viewBox="0 0 24 24" fill="none" xmlns="http://www.w3.org/2000/svg">
<path d="M18.2227 6.81543C19.0101 6.87976 19.5182 7.00326 19.9297 7.21289C20.7293 7.62034 21.3796 8.27065 21.7871 9.07031C21.867 9.22702 21.9338 9.39798 21.9902 9.59277C21.9998 10.3191 22 11.1184 22 12C22 16.714 21.9997 19.0708 20.5352 20.5352C19.0708 21.9997 16.714 22 12 22C7.28597 22 4.9293 21.9996 3.46484 20.5352C2.00037 19.0708 2 16.714 2 12C2 11.1184 2.00019 10.3191 2.00977 9.59277C2.06614 9.39799 2.13304 9.22703 2.21289 9.07031C2.62034 8.27066 3.27066 7.62034 4.07031 7.21289C4.48174 7.00326 4.98996 6.87976 5.77734 6.81543C5.92681 6.80322 6.08397 6.79324 6.25 6.78516V10.8311C6.25 11.2986 6.25018 11.6826 6.26758 11.9844C6.28474 12.2819 6.3212 12.5901 6.44336 12.8652C6.88478 13.859 7.97452 14.3953 9.03125 14.1387C9.32384 14.0676 9.59067 13.9082 9.83691 13.7402C10.0866 13.5699 10.3904 13.3359 10.7607 13.0508L10.7793 13.0361C11.2485 12.6748 11.3809 12.58 11.502 12.5273C11.8196 12.3894 12.1804 12.3894 12.498 12.5273C12.6191 12.58 12.7514 12.6748 13.2207 13.0361L13.2393 13.0508C13.6096 13.336 13.9133 13.5699 14.1631 13.7402C14.4093 13.9082 14.6761 14.0676 14.9688 14.1387C16.0256 14.3953 17.1152 13.859 17.5566 12.8652C17.6788 12.5901 17.7153 12.2819 17.7324 11.9844C17.7498 11.6826 17.75 11.2985 17.75 10.8311V6.78516C17.916 6.79324 18.0732 6.80322 18.2227 6.81543ZM16.25 6.75195V10.8076C16.25 11.3042 16.2499 11.6441 16.2354 11.8975C16.2204 12.1577 16.1927 12.2394 16.1855 12.2559C16.0385 12.5871 15.6755 12.766 15.3232 12.6807C15.3068 12.6767 15.2259 12.649 15.0088 12.501C14.7992 12.358 14.5293 12.1507 14.1357 11.8477L14.0684 11.7969C13.6982 11.5114 13.41 11.2888 13.0957 11.1523C12.3967 10.8486 11.6033 10.8486 10.9043 11.1523C10.59 11.2888 10.3018 11.5115 9.93164 11.7969L9.86426 11.8477C9.47069 12.1507 9.20085 12.358 8.99121 12.501C8.77407 12.649 8.69323 12.6767 8.67676 12.6807C8.32457 12.7661 7.96157 12.5871 7.81445 12.2559C7.80728 12.2394 7.77965 12.1577 7.76465 11.8975C7.75006 11.6441 7.75 11.3042 7.75 10.8076V6.75195C8.12917 6.74968 8.54382 6.75 9 6.75H15C15.4562 6.75 15.8708 6.74968 16.25 6.75195ZM12 2C16.714 2 19.0708 2.00037 20.5352 3.46484C21.3044 4.23406 21.6704 5.24967 21.8438 6.72363C21.4737 6.39101 21.0591 6.1056 20.6104 5.87695C19.9523 5.54162 19.2248 5.39222 18.3447 5.32031C17.4804 5.24972 16.4047 5.25 15.0332 5.25H8.9668C7.59526 5.25 6.51955 5.24972 5.65527 5.32031C4.77512 5.39222 4.04778 5.54162 3.38965 5.87695C2.94091 6.1056 2.5264 6.391 2.15625 6.72363C2.32962 5.24966 2.69561 4.23406 3.46484 3.46484C4.9293 2.00037 7.28595 2 12 2Z" fill="#1C274C"/>
</svg>
