<svg width="24" height="24" viewBox="0 0 24 24" fill="none" xmlns="http://www.w3.org/2000/svg">
<path d="M11.2336 3.65332C13.9919 0.89546 18.4778 0.320758 21.0784 2.9209C23.6791 5.52151 23.1042 10.0084 20.3459 12.7666C18.956 14.1563 16.9433 15.1981 14.9749 15.6045C14.4219 15.7187 13.8551 15.7856 13.2961 15.791L7.38989 21.6963C5.98525 23.1007 3.7086 23.1007 2.30396 21.6963C0.899275 20.2917 0.899275 18.014 2.30396 16.6094L8.20825 10.7051C8.21355 10.1457 8.28055 9.57885 8.39478 9.02539C8.80116 7.05679 9.84367 5.04326 11.2336 3.65332ZM3.3645 17.6709C2.5457 18.4898 2.54565 19.817 3.3645 20.6357C4.18335 21.4544 5.51049 21.4544 6.32935 20.6357L11.4221 15.5439C10.7227 15.3337 10.081 14.9802 9.55005 14.4492C9.01942 13.9186 8.66651 13.2772 8.4563 12.5781L3.3645 17.6709ZM21.1262 6.04785C20.9999 6.31552 20.8554 6.58349 20.7004 6.84473C19.9243 8.15225 18.772 9.50948 17.8577 10.4238C16.9446 11.3368 15.3951 12.6806 13.9026 13.6514C13.5512 13.8798 13.1929 14.0953 12.8391 14.2803C13.4007 14.3188 14.0181 14.2705 14.6711 14.1357C16.3748 13.784 18.118 12.8725 19.2854 11.7051C20.926 10.0644 21.5325 7.85924 21.1262 6.04785ZM20.0178 3.98145C19.9722 3.93608 19.8395 3.84714 19.4319 3.93066C19.0286 4.01332 18.5101 4.24016 17.9211 4.58984C16.7526 5.28359 15.4931 6.34704 14.637 7.20312C13.7795 8.06057 12.5071 9.53021 11.6057 10.916C11.1516 11.614 10.8204 12.247 10.6682 12.7451C10.5924 12.9934 10.5741 13.168 10.5823 13.2783C10.5861 13.3298 10.5955 13.3582 10.6008 13.3711C10.6052 13.3819 10.6079 13.3859 10.6106 13.3887C10.6133 13.3914 10.6172 13.3948 10.6282 13.3994C10.6411 13.4047 10.6701 13.4132 10.7219 13.417C10.8323 13.4251 11.007 13.4068 11.2551 13.3311C11.7533 13.1789 12.3863 12.8483 13.0842 12.3945C14.4701 11.4933 15.9397 10.2206 16.7971 9.36328C17.6532 8.50724 18.7167 7.24772 19.4104 6.0791C19.76 5.49007 19.987 4.97168 20.0696 4.56836C20.1533 4.15962 20.0631 4.02673 20.0178 3.98145ZM17.9524 2.87402C16.1409 2.46761 13.935 3.07331 12.2942 4.71387C11.1267 5.88125 10.2152 7.62447 9.86353 9.32812C9.72867 9.98141 9.68136 10.5993 9.71997 11.1611C9.90502 10.8073 10.1193 10.4491 10.3479 10.0977C11.3188 8.60518 12.6633 7.0557 13.5764 6.14258C14.4908 5.22828 15.8481 4.07598 17.1555 3.2998C17.4168 3.14468 17.6847 3.00032 17.9524 2.87402Z" fill="#48465C"/>
</svg>
