<svg width="24" height="24" viewBox="0 0 24 24" fill="none" xmlns="http://www.w3.org/2000/svg">
<path d="M18.6152 15.4395C19.2956 15.9983 19.9102 16.6441 20.4404 17.3662C18.6655 20.1525 15.5484 22 12 22C10.7178 22 9.4918 21.7591 8.36523 21.3193C12.2682 20.4482 15.9424 18.3137 18.6152 15.4395ZM12.0176 12.9932C13.9402 13.0388 15.7856 13.5929 17.3799 14.5625C14.4912 17.5979 10.3913 19.7025 6.21484 20.1572C5.33559 19.5326 4.56151 18.7695 3.9248 17.8994C7.00232 17.4192 9.81174 15.7987 11.7559 13.3252L12.0176 12.9932ZM4.86426 4.99414C4.05505 8.60439 4.37806 12.3755 5.83301 15.8574C4.94931 16.187 4.01925 16.4041 3.06543 16.4971C2.38368 15.1452 2 13.6174 2 12C2 9.27458 3.0902 6.80374 4.8584 5L4.86426 4.99414ZM10.8281 6.81152C14.8826 6.89031 18.7526 8.51809 21.624 11.3584L21.626 11.3604L21.9971 11.7334C21.9994 11.822 22 11.9109 22 12C22 13.3877 21.7178 14.7099 21.207 15.9111C18.9647 13.2091 15.6374 11.5876 12.0811 11.4951C11.2523 10.0507 10.8303 8.43513 10.8281 6.81152ZM10.1846 2.55859C8.86576 5.6907 9.08231 9.23977 10.7471 12.1826L10.5762 12.3984C9.64823 13.5791 8.49495 14.5391 7.2002 15.2373C5.62239 11.4333 5.51474 7.26195 6.87891 3.4082C7.93086 2.77984 9.10836 2.33946 10.3643 2.13281L10.1846 2.55859ZM12.0479 2C16.6315 2.02149 20.4864 5.12672 21.6445 9.34766C18.6558 6.83897 14.8813 5.41014 10.9463 5.31348C11.0643 4.57534 11.2706 3.84553 11.5674 3.14062L12.0479 2Z" fill="#48465C"/>
</svg>
