<svg width="24" height="24" viewBox="0 0 24 24" fill="none" xmlns="http://www.w3.org/2000/svg">
<path d="M11.9999 2C13.1542 2 14.1988 2.62261 16.288 3.86719L17.6727 4.69141C19.9734 6.06194 21.1245 6.74765 21.6649 7.875C22.2053 9.0023 22.0151 10.321 21.6356 12.958L21.3573 14.8955C20.8698 18.2828 20.626 19.9765 19.4511 20.9883C18.276 22.0001 16.5527 22 13.1063 22H10.8934C7.44721 22 5.72373 22 4.54872 20.9883C3.37379 19.9765 3.12984 18.2827 2.64247 14.8955L2.36415 12.958C1.98471 10.3209 1.79537 9.00234 2.33583 7.875C2.87632 6.74773 4.02642 6.06188 6.32704 4.69141L7.71181 3.86719C9.80104 2.62264 10.8456 2.00004 11.9999 2ZM8.99989 17.25C8.58578 17.2501 8.24989 17.5859 8.24989 18C8.25 18.414 8.58584 18.7499 8.99989 18.75H14.9999C15.414 18.75 15.7498 18.4141 15.7499 18C15.7499 17.5858 15.4141 17.25 14.9999 17.25H8.99989Z" fill="#1C274C"/>
</svg>
