<svg width="24" height="24" viewBox="0 0 24 24" fill="none" xmlns="http://www.w3.org/2000/svg">
<path d="M3.00757 6.40723C4.68751 4.72728 7.52216 4.85452 8.69214 6.9502L9.34155 8.11328C10.1055 9.4821 9.78016 11.2098 8.66187 12.3418C8.64685 12.3624 8.56817 12.4772 8.55835 12.6777C8.54584 12.9341 8.63629 13.5271 9.55444 14.4453C10.4724 15.3633 11.0655 15.4548 11.322 15.4424C11.523 15.4326 11.6385 15.3528 11.6589 15.3379C12.7909 14.22 14.5179 13.8944 15.8865 14.6582L17.0496 15.3076C19.1452 16.4774 19.2731 19.3122 17.5935 20.9922C16.6948 21.8909 15.4996 22.6899 14.0955 22.7432C12.0146 22.8221 8.55923 22.2841 5.13745 18.8623C1.71572 15.4405 1.17771 11.9852 1.25659 9.9043C1.30994 8.5003 2.10902 7.3058 3.00757 6.40723ZM7.38257 7.68164C6.78354 6.60831 5.17394 6.36195 4.06812 7.46777C3.29283 8.24309 2.78832 9.09918 2.75562 9.96191C2.68992 11.6973 3.11899 14.7227 6.198 17.8018C9.27736 20.8811 12.3034 21.3099 14.0388 21.2441C14.9015 21.2113 15.7568 20.7068 16.532 19.9316C17.6378 18.8257 17.3914 17.2162 16.3181 16.6172L15.155 15.9678C14.4317 15.5644 13.416 15.7029 12.7029 16.416C12.6328 16.4861 12.1864 16.9019 11.3953 16.9404C10.585 16.9798 9.60374 16.6158 8.4939 15.5059C7.38386 14.3958 7.01974 13.4147 7.05933 12.6045C7.09809 11.813 7.51508 11.3676 7.58472 11.2979C8.29794 10.5846 8.43552 9.56812 8.03198 8.84473L7.38257 7.68164ZM16.9998 1.25C20.1754 1.25 22.7498 3.82436 22.7498 7C22.7498 10.1756 20.1754 12.75 16.9998 12.75C16.0813 12.75 15.211 12.5339 14.4392 12.1494C14.4223 12.141 14.4085 12.1378 14.4001 12.1367C14.3961 12.1362 14.3933 12.1357 14.3923 12.1357L13.28 12.4336C12.2395 12.7117 11.288 11.7601 11.5662 10.7197L11.864 9.60742C11.864 9.60649 11.8635 9.60431 11.863 9.60059C11.8619 9.59219 11.8589 9.57784 11.8503 9.56055C11.4659 8.78861 11.2498 7.91844 11.2498 7C11.2498 3.82443 13.8242 1.25012 16.9998 1.25ZM16.9998 2.75C14.6527 2.75012 12.7498 4.65286 12.7498 7C12.7498 7.68116 12.9099 8.32276 13.1931 8.8916C13.3521 9.21082 13.4181 9.60225 13.3132 9.99414L13.0603 10.9404L14.0056 10.6865C14.3975 10.5817 14.789 10.6477 15.1082 10.8066C15.677 11.09 16.3186 11.25 16.9998 11.25C19.347 11.25 21.2498 9.34721 21.2498 7C21.2498 4.65279 19.347 2.75 16.9998 2.75Z" fill="#48465C"/>
</svg>
