<svg width="24" height="24" viewBox="0 0 24 24" fill="none" xmlns="http://www.w3.org/2000/svg">
<path d="M3.71779 4.0918C4.94392 2.80112 6.97177 3.04326 7.98537 4.47656L9.24709 6.25977C10.0578 7.4064 9.98902 9.00088 9.0215 10.0195L8.77639 10.2773C8.77571 10.2791 8.77517 10.2811 8.77443 10.2832C8.76149 10.3196 8.72856 10.4356 8.76076 10.6553C8.82755 11.1108 9.17993 12.0361 10.6074 13.5391C12.0396 15.0468 12.908 15.4024 13.3106 15.4678C13.4838 15.4959 13.5745 15.4712 13.6035 15.4609L14.0127 15.0312C14.8864 14.1115 16.2483 13.9304 17.3467 14.5625L19.2578 15.6621C20.8904 16.602 21.2703 18.9005 19.9658 20.2744L18.5449 21.7705C18.1016 22.2373 17.4971 22.6362 16.75 22.71C14.9262 22.8899 10.7007 22.6553 6.2715 17.9922C2.13834 13.6408 1.35319 9.85509 1.25393 8.00586C1.20498 7.09231 1.61266 6.30823 2.14846 5.74414L3.71779 4.0918ZM6.76076 5.34277C6.24848 4.61823 5.32855 4.5748 4.80568 5.125L3.23537 6.77734C2.90401 7.12622 2.73054 7.5265 2.75197 7.92578C2.83302 9.43561 3.4833 12.8781 7.35939 16.959C11.4233 21.2374 15.1674 21.3585 16.6026 21.2168C16.8862 21.1888 17.1781 21.031 17.4571 20.7373L18.8779 19.2422C19.4907 18.5972 19.3303 17.4345 18.5098 16.9619L16.5987 15.8623C16.086 15.5673 15.4851 15.6587 15.0996 16.0645L14.6446 16.5439L14.1006 16.0273C14.6171 16.5179 14.6429 16.5429 14.6436 16.5449L14.6387 16.5498L14.6328 16.5566L14.6182 16.5703C14.6079 16.5803 14.5965 16.5917 14.583 16.6035C14.5562 16.627 14.5224 16.6533 14.4824 16.6816C14.4024 16.7384 14.2959 16.8013 14.1612 16.8545C13.8852 16.9633 13.5205 17.0213 13.0703 16.9482C12.1928 16.8057 11.0424 16.1756 9.51955 14.5723C7.99243 12.9645 7.4072 11.7651 7.27639 10.873C7.20986 10.4189 7.26365 10.0548 7.36135 9.78027C7.40939 9.6453 7.46627 9.5378 7.51857 9.45605C7.54452 9.41549 7.56894 9.38122 7.59084 9.35352C7.60183 9.33963 7.61274 9.32717 7.62209 9.31641L7.63478 9.30176L7.64455 9.29199L7.64553 9.29004C7.64622 9.28931 7.64705 9.28856 8.19045 9.80469L7.64748 9.28809L7.93361 8.98633C8.37913 8.51726 8.44365 7.72304 8.0215 7.12598L6.76076 5.34277ZM17 1.25C20.1756 1.25 22.75 3.82436 22.75 7C22.75 10.1756 20.1756 12.75 17 12.75C16.0816 12.75 15.2113 12.5339 14.4395 12.1494C14.4226 12.141 14.4088 12.1378 14.4004 12.1367C14.3964 12.1362 14.3935 12.1357 14.3926 12.1357L13.2803 12.4336C12.2399 12.7117 11.2882 11.7602 11.5664 10.7197L11.8643 9.60742C11.8643 9.60649 11.8637 9.6043 11.8633 9.60059C11.8623 9.59219 11.8592 9.57784 11.8506 9.56055C11.4661 8.7886 11.25 7.91846 11.25 7C11.25 3.8244 13.8245 1.25007 17 1.25ZM17 2.75C14.6529 2.75007 12.75 4.65283 12.75 7C12.75 7.68116 12.91 8.32276 13.1934 8.8916C13.3524 9.21082 13.4183 9.60225 13.3135 9.99414L13.0606 10.9404L14.0059 10.6865C14.3979 10.5817 14.7892 10.6476 15.1084 10.8066C15.6773 11.09 16.3189 11.25 17 11.25C19.3472 11.25 21.25 9.34721 21.25 7C21.25 4.65279 19.3472 2.75 17 2.75Z" fill="#1C274C"/>
</svg>
