<svg width="24" height="24" viewBox="0 0 24 24" fill="none" xmlns="http://www.w3.org/2000/svg">
<path d="M12 2C12.906 2 13.7836 2.12088 14.6182 2.34668C14.9335 2.43198 15.0592 2.80175 14.9209 3.09766C14.6509 3.6755 14.5 4.3201 14.5 5C14.5 7.48528 16.5147 9.5 19 9.5C19.6799 9.5 20.3244 9.34905 20.9023 9.0791C21.1982 8.94083 21.568 9.06656 21.6533 9.38184C21.8791 10.2164 22 11.094 22 12C22 17.5228 17.5228 22 12 22C10.4003 22 8.88867 21.6239 7.54785 20.9561C7.19153 20.7787 6.78395 20.7203 6.39941 20.8232L4.17383 21.4189C3.20767 21.6774 2.32296 20.7932 2.58105 19.8271L3.17676 17.6006C3.27965 17.2161 3.22143 16.8084 3.04395 16.4521C2.37613 15.1113 2 13.5997 2 12C2 6.47715 6.47715 2 12 2ZM19 2C20.6569 2 22 3.34315 22 5C22 6.65685 20.6569 8 19 8C17.3431 8 16 6.65685 16 5C16 3.34315 17.3431 2 19 2Z" fill="#48465C"/>
</svg>
