<svg width="24" height="24" viewBox="0 0 24 24" fill="none" xmlns="http://www.w3.org/2000/svg">
<path d="M20.5 13C20.5 16.7712 20.4997 18.6566 19.3281 19.8281C18.1827 20.9735 16.3551 20.9994 12.75 21V13.9541L14.4424 15.835C14.7195 16.1428 15.1941 16.1677 15.502 15.8906C15.8097 15.6135 15.8347 15.1389 15.5576 14.8311L12.5576 11.498C12.4153 11.34 12.2126 11.25 12 11.25C11.7874 11.25 11.5847 11.34 11.4424 11.498L8.44238 14.8311C8.16533 15.1389 8.19031 15.6135 8.49805 15.8906C8.80594 16.1677 9.28052 16.1428 9.55762 15.835L11.25 13.9541V21C7.64493 20.9994 5.81728 20.9734 4.67188 19.8281C3.50032 18.6566 3.5 16.7712 3.5 13V8.49805C3.64472 8.50004 3.78966 8.50005 3.93066 8.5H20.0693C20.2104 8.50005 20.3552 8.50004 20.5 8.49805V13ZM20 3C20.9428 3 21.4141 3.00008 21.707 3.29297C21.9999 3.58587 22 4.0572 22 5C22 5.9428 21.9999 6.41413 21.707 6.70703C21.4141 6.99992 20.9428 7 20 7H4C3.05719 7 2.58587 6.99992 2.29297 6.70703C2.00008 6.41413 2 5.94281 2 5C2 4.05719 2.00008 3.58587 2.29297 3.29297C2.58587 3.00008 3.05719 3 4 3H20Z" fill="#1C274C"/>
</svg>
