<svg width="24" height="24" viewBox="0 0 24 24" fill="none" xmlns="http://www.w3.org/2000/svg">
<path d="M12 2C16.714 2 19.0708 2.00037 20.5352 3.46484C21.9996 4.9293 22 7.28597 22 12C22 16.714 21.9997 19.0708 20.5352 20.5352C19.0708 21.9997 16.714 22 12 22C7.28597 22 4.9293 21.9996 3.46484 20.5352C2.00037 19.0708 2 16.714 2 12C2 7.28595 2.00037 4.9293 3.46484 3.46484C4.9293 2.00037 7.28595 2 12 2ZM10.667 6.25C10.2528 6.25 9.91699 6.58579 9.91699 7C9.91699 7.41421 10.2528 7.75 10.667 7.75H12.3574L10.0908 16.25H8C7.58579 16.25 7.25 16.5858 7.25 17C7.25 17.4142 7.58579 17.75 8 17.75H13.333C13.7472 17.75 14.083 17.4142 14.083 17C14.083 16.5858 13.7472 16.25 13.333 16.25H11.6426L13.9092 7.75H16C16.4142 7.75 16.75 7.41421 16.75 7C16.75 6.58579 16.4142 6.25 16 6.25H10.667Z" fill="#1C274C"/>
</svg>
