<svg width="24" height="24" viewBox="0 0 24 24" fill="none" xmlns="http://www.w3.org/2000/svg">
<path d="M17.5 14C19.433 14 21 15.567 21 17.5C21 19.433 19.433 21 17.5 21C15.8769 21 14.5122 19.8951 14.1162 18.3965L13.0059 17.8418C12.3725 17.5252 11.6275 17.5252 10.9941 17.8418L9.88379 18.3965C9.4878 19.8951 8.12308 21 6.5 21C4.567 21 3 19.433 3 17.5C3 15.567 4.567 14 6.5 14C8.15994 14 9.55056 15.1555 9.91016 16.7061L10.3232 16.5C11.3789 15.9723 12.6211 15.9723 13.6768 16.5L14.0898 16.7061C14.4495 15.1555 15.84 14 17.5 14ZM13.5654 4C15.8152 4 16.9401 4.00037 17.7539 4.63574C18.5676 5.27115 18.8401 6.36241 19.3857 8.54492L19.8125 10.25H22C22.4142 10.25 22.75 10.5858 22.75 11C22.75 11.4142 22.4142 11.75 22 11.75H2C1.58579 11.75 1.25 11.4142 1.25 11C1.25 10.5858 1.58579 10.25 2 10.25H4.1875L4.61426 8.54492C5.15989 6.3624 5.43244 5.27115 6.24609 4.63574C7.05987 4.00038 8.18476 4 10.4346 4H13.5654Z" fill="#1C274C"/>
</svg>
