<svg width="24" height="24" viewBox="0 0 24 24" fill="none" xmlns="http://www.w3.org/2000/svg">
<path d="M13 2C16.7712 2 18.6566 2.00031 19.8281 3.17188C20.9997 4.34346 21 6.22878 21 10V14C21 17.7712 20.9997 19.6566 19.8281 20.8281C18.6566 21.9997 16.7712 22 13 22H11C7.22878 22 5.34346 21.9997 4.17188 20.8281C3.00031 19.6566 3 17.7712 3 14V10C3 6.22876 3.00031 4.34345 4.17188 3.17188C5.34345 2.00031 7.22876 2 11 2H13ZM8 17.25C7.58579 17.25 7.25 17.5858 7.25 18C7.25 18.4142 7.58579 18.75 8 18.75H16C16.4142 18.75 16.75 18.4142 16.75 18C16.75 17.5858 16.4142 17.25 16 17.25H8ZM15.3555 6.30957C13.134 5.89645 10.8661 5.89645 8.64453 6.30957L8.16895 6.39844C7.28886 6.56213 6.76951 7.59127 7.10059 8.51562L7.8457 10.5928C7.95369 10.8934 8.24371 11.059 8.52539 10.9805C8.70267 10.931 8.88112 10.8855 9.05957 10.8438L8.41992 8.85352C8.26385 8.36711 8.49083 7.83161 8.92676 7.65723C9.36271 7.48311 9.84274 7.73628 9.99902 8.22266L10.751 10.5645C12.33 10.4104 13.9267 10.5487 15.4746 10.9805C15.7564 11.0591 16.0474 10.8936 16.1553 10.5928L16.8994 8.51562C17.2306 7.59125 16.7112 6.5621 15.8311 6.39844L15.3555 6.30957Z" fill="#1C274C"/>
</svg>
