<svg width="24" height="24" viewBox="0 0 24 24" fill="none" xmlns="http://www.w3.org/2000/svg">
<path d="M13.1289 4.50732C17.3689 1.40344 22 4.6748 22 9.13721C21.9999 13.5422 18.7016 16.0831 15.8936 18.2466C15.6018 18.4715 15.3151 18.6923 15.0381 18.9106C13.9998 19.7291 13 20.4995 12 20.4995C11 20.4995 10.0002 19.7291 8.96191 18.9106C8.68491 18.6923 8.3983 18.4715 8.10645 18.2466C5.29841 16.0831 2.00011 13.5422 2 9.13721C2 4.27427 7.50016 0.825351 12 5.50049L14 7.49951C14.2929 7.79218 14.7677 7.79143 15.0605 7.49854C15.3532 7.20558 15.3534 6.73078 15.0605 6.43799L13.1289 4.50732Z" fill="#1C274C"/>
</svg>
