<svg width="24" height="24" viewBox="0 0 24 24" fill="none" xmlns="http://www.w3.org/2000/svg">
<path d="M6.99983 20C7.55211 20 7.99983 20.4477 7.99983 21C7.99983 21.5523 7.55211 22 6.99983 22C6.44762 21.9999 5.99983 21.5522 5.99983 21C5.99983 20.4478 6.44762 20.0001 6.99983 20ZM16.9998 20C17.5521 20 17.9998 20.4477 17.9998 21C17.9998 21.5523 17.5521 22 16.9998 22C16.4476 21.9999 15.9998 21.5522 15.9998 21C15.9998 20.4478 16.4476 20.0001 16.9998 20ZM20.4422 16.498C20.7193 16.1902 21.1939 16.1653 21.5018 16.4424C21.8097 16.7195 21.8345 17.1941 21.5574 17.502L20.3533 18.8398C19.8319 19.4192 19.0889 19.75 18.3094 19.75H5.69026C4.91084 19.7499 4.16773 19.4191 3.64632 18.8398L2.44221 17.502C2.16519 17.1941 2.19015 16.7195 2.49788 16.4424C2.80571 16.1653 3.28033 16.1903 3.55745 16.498L4.76155 17.8359C4.99851 18.0992 5.33607 18.2499 5.69026 18.25H18.3094C18.6637 18.25 19.001 18.0993 19.2381 17.8359L20.4422 16.498ZM11.3319 5.3457C12.0228 4.91393 12.8819 4.84804 13.6307 5.16895C15.3576 5.90932 15.6711 8.2237 14.2039 9.39746L13.7586 9.75391C13.6754 9.82047 13.6506 9.84054 13.6356 9.85352C13.0136 10.3908 13.0707 11.3723 13.7508 11.834C13.7671 11.845 13.7995 11.8659 13.9032 11.9307L13.9129 11.9365C13.9819 11.9796 14.029 12.0088 14.0701 12.0361C15.0899 12.7114 15.7167 13.8418 15.7489 15.0645C15.7502 15.1137 15.7498 15.1651 15.7498 15.2393V16.5C15.7498 16.9142 15.414 17.25 14.9998 17.25C14.5857 17.2499 14.2498 16.9141 14.2498 16.5V15.25C14.2498 15.1626 14.2495 15.1316 14.2489 15.1045C14.2296 14.3709 13.8538 13.6922 13.242 13.2871L13.1483 13.2275C13.1365 13.2202 13.1233 13.2116 13.1082 13.2021L13.0916 13.1924C13.0112 13.1421 12.9513 13.1046 12.908 13.0752C11.4119 12.0596 11.2867 9.90092 12.6551 8.71875C12.6947 8.68455 12.7441 8.64496 12.8094 8.59277L13.2674 8.22656C13.8498 7.76069 13.7251 6.84186 13.0399 6.54785C12.7426 6.42047 12.4011 6.44677 12.1268 6.61816L8.89729 8.63672C8.54607 8.85602 8.08356 8.74862 7.86409 8.39746C7.64481 8.04625 7.75124 7.58373 8.10237 7.36426L11.3319 5.3457ZM10.4696 13.4697C10.7624 13.1769 11.2372 13.177 11.5301 13.4697C11.823 13.7626 11.823 14.2374 11.5301 14.5303C10.4291 15.6313 8.93585 16.25 7.37874 16.25H6.99983C6.58569 16.2499 6.24983 15.9141 6.24983 15.5C6.24983 15.0859 6.58569 14.7501 6.99983 14.75H7.37874C8.538 14.75 9.64977 14.2894 10.4696 13.4697ZM20.3182 9.27246C20.72 9.17208 21.127 9.41655 21.2274 9.81836C21.3279 10.2202 21.0834 10.627 20.6815 10.7275C19.2491 11.0856 17.7507 11.0856 16.3182 10.7275C15.9164 10.627 15.6719 10.2201 15.7723 9.81836C15.8728 9.41665 16.2798 9.17228 16.6815 9.27246C17.8752 9.57088 19.1245 9.57088 20.3182 9.27246ZM18.9998 2C20.1044 2 20.9998 2.89543 20.9998 4C20.9998 5.10457 20.1044 6 18.9998 6C17.8953 5.99991 16.9998 5.10452 16.9998 4C16.9998 2.89548 17.8953 2.00009 18.9998 2Z" fill="#1C274C"/>
</svg>
