<svg width="24" height="24" viewBox="0 0 24 24" fill="none" xmlns="http://www.w3.org/2000/svg">
<path d="M6.93164 12.6973C7.76744 12.6972 8.46527 12.6971 9.01855 12.7715C9.60226 12.85 10.1292 13.0229 10.5527 13.4463C10.9764 13.87 11.149 14.3975 11.2275 14.9814C11.3019 15.5347 11.3028 16.2316 11.3027 17.0674V18.1729C11.3027 18.7533 11.3021 19.2383 11.2646 19.6318C11.2255 20.0432 11.1412 20.4267 10.9258 20.7783C10.7148 21.1225 10.4253 21.4121 10.0811 21.623C9.72947 21.8385 9.34586 21.9228 8.93457 21.9619C8.54095 21.9993 8.05531 22 7.47461 22H7.40723C6.52344 22 5.8101 21.9998 5.23633 21.9453C4.64475 21.889 4.12953 21.7693 3.66602 21.4854C3.19664 21.1977 2.8013 20.8034 2.51367 20.334C2.22962 19.8704 2.11094 19.3544 2.05469 18.7627C2.00017 18.189 1.99999 17.4764 2 16.5928V16.5244C1.99999 15.9437 1.99969 15.459 2.03711 15.0654C2.07624 14.654 2.16147 14.2706 2.37695 13.9189C2.58788 13.5747 2.87747 13.2852 3.22168 13.0742C3.57337 12.8588 3.95673 12.7735 4.36816 12.7344C4.76177 12.6969 5.24647 12.6973 5.82715 12.6973H6.93164ZM14.0928 21.3027C14.0926 21.6878 13.7807 21.9999 13.3955 22C13.0103 22 12.6984 21.6879 12.6982 21.3027V18.5117H14.0928V21.3027ZM22 18.5352C22 18.9486 21.9998 19.2938 21.9805 19.5771C21.9604 19.8721 21.9175 20.1509 21.8057 20.4209C21.546 21.0477 21.0477 21.546 20.4209 21.8057C20.1508 21.9175 19.8721 21.9604 19.5771 21.9805C19.2938 21.9998 18.9486 22 18.5352 22H16.6514V20.6045H18.5117C18.9546 20.6045 19.2523 20.6046 19.4824 20.5889C19.7059 20.5736 19.8151 20.5464 19.8867 20.5166C20.1717 20.3986 20.3976 20.1717 20.5156 19.8867C20.5454 19.815 20.5736 19.7062 20.5889 19.4824C20.6046 19.2522 20.6045 18.9547 20.6045 18.5117H22V18.5352ZM17.5 16C17.9659 16 18.199 16.0001 18.3828 16.0762C18.6277 16.1777 18.8223 16.3723 18.9238 16.6172C18.9999 16.801 19 17.0341 19 17.5C19 17.9659 18.9999 18.199 18.9238 18.3828C18.8223 18.6277 18.6277 18.8223 18.3828 18.9238C18.199 18.9999 17.9659 19 17.5 19C17.0341 19 16.801 18.9999 16.6172 18.9238C16.3723 18.8223 16.1777 18.6277 16.0762 18.3828C16.0001 18.199 16 17.9659 16 17.5C16 17.0341 16.0001 16.801 16.0762 16.6172C16.1777 16.3723 16.3723 16.1777 16.6172 16.0762C16.801 16.0001 17.0341 16 17.5 16ZM6.65137 16.1855C6.17193 16.1855 5.93196 16.1856 5.7627 16.3057C5.70297 16.3481 5.65077 16.4003 5.6084 16.46C5.48832 16.6293 5.48828 16.8693 5.48828 17.3486C5.48828 17.828 5.48832 18.068 5.6084 18.2373C5.65069 18.2968 5.70315 18.3483 5.7627 18.3906C5.93196 18.5107 6.17192 18.5107 6.65137 18.5107C7.13068 18.5107 7.3708 18.5107 7.54004 18.3906C7.59954 18.3483 7.65209 18.2968 7.69434 18.2373C7.81441 18.068 7.81348 17.828 7.81348 17.3486C7.81348 16.8694 7.81428 16.6292 7.69434 16.46C7.65203 16.4004 7.59965 16.348 7.54004 16.3057C7.3708 16.1856 7.13066 16.1855 6.65137 16.1855ZM18.5117 14.0928H16.6514C15.9836 14.0928 15.5352 14.0932 15.1934 14.1279C14.8633 14.1615 14.7103 14.2207 14.6094 14.2881C14.4824 14.3729 14.3738 14.4824 14.2891 14.6094C14.2217 14.7102 14.1625 14.8626 14.1289 15.1924C14.0942 15.5341 14.0928 15.9828 14.0928 16.6504H12.6982V16.6152C12.6982 15.9924 12.6974 15.4725 12.7402 15.0518C12.7851 14.6114 12.8828 14.2024 13.1289 13.834C13.3155 13.5547 13.5557 13.3145 13.835 13.1279C14.2031 12.8821 14.6117 12.7851 15.0518 12.7402C15.4725 12.6974 15.9925 12.6973 16.6152 12.6973H18.5117V14.0928ZM21.3027 12.6973C21.6877 12.6975 21.9998 13.0095 22 13.3945V16.6504H20.6045V13.3945C20.6047 13.0094 20.9175 12.6973 21.3027 12.6973ZM7.47559 2C8.0561 1.99999 8.54105 1.9997 8.93457 2.03711C9.34589 2.07626 9.72945 2.16148 10.0811 2.37695C10.4252 2.58787 10.7148 2.87753 10.9258 3.22168C11.1411 3.57331 11.2256 3.95682 11.2646 4.36816C11.3021 4.76174 11.3027 5.24652 11.3027 5.82715V6.93164C11.3028 7.76742 11.3019 8.46527 11.2275 9.01855C11.149 9.60236 10.9763 10.1292 10.5527 10.5527C10.1292 10.9763 9.60236 11.149 9.01855 11.2275C8.46527 11.3019 7.76742 11.3028 6.93164 11.3027H5.82715C5.24647 11.3027 4.76176 11.3021 4.36816 11.2646C3.95682 11.2256 3.57331 11.1411 3.22168 10.9258C2.87753 10.7148 2.58787 10.4252 2.37695 10.0811C2.16148 9.72945 2.07626 9.34589 2.03711 8.93457C1.99969 8.54094 1.99999 8.05534 2 7.47461V7.40723C1.99999 6.52346 2.00014 5.81009 2.05469 5.23633C2.11094 4.64488 2.22979 4.12945 2.51367 3.66602C2.8013 3.19664 3.19664 2.8013 3.66602 2.51367C4.12945 2.22979 4.64488 2.11094 5.23633 2.05469C5.81009 2.00014 6.52346 1.99999 7.40723 2H7.47559ZM16.5938 2C17.4773 1.99999 18.19 2.00015 18.7637 2.05469C19.3551 2.11093 19.8705 2.2298 20.334 2.51367C20.8034 2.8013 21.1986 3.19664 21.4863 3.66602C21.7701 4.12946 21.889 4.64486 21.9453 5.23633C21.9998 5.8101 22 6.52344 22 7.40723V7.47559C22 8.0561 22.0003 8.54104 21.9629 8.93457C21.9238 9.34589 21.8386 9.72945 21.623 10.0811C21.4122 10.4252 21.1225 10.7148 20.7783 10.9258C20.4266 11.1411 20.0432 11.2256 19.6318 11.2646C19.2382 11.3021 18.7535 11.3027 18.1729 11.3027H17.0684C16.2328 11.3028 15.5357 11.3019 14.9824 11.2275C14.3984 11.149 13.871 10.9764 13.4473 10.5527C13.0237 10.1292 12.851 9.60235 12.7725 9.01855C12.6981 8.46527 12.6981 7.76744 12.6982 6.93164V5.82715C12.6982 5.24648 12.6979 4.76176 12.7354 4.36816C12.7744 3.95683 12.8589 3.5733 13.0742 3.22168C13.2852 2.87754 13.5748 2.58787 13.9189 2.37695C14.2706 2.1614 14.6549 2.07624 15.0664 2.03711C15.4599 1.99973 15.9449 1.99999 16.5254 2H16.5938ZM6.65137 5.48828C6.17193 5.48828 5.93195 5.48831 5.7627 5.6084C5.70297 5.65078 5.65078 5.70297 5.6084 5.7627C5.48831 5.93195 5.48828 6.17193 5.48828 6.65137C5.48828 7.13068 5.48832 7.3708 5.6084 7.54004C5.65075 7.59966 5.70305 7.65203 5.7627 7.69434C5.93194 7.81429 6.17211 7.81348 6.65137 7.81348C7.13068 7.81348 7.3708 7.81442 7.54004 7.69434C7.59972 7.65199 7.65199 7.59972 7.69434 7.54004C7.81442 7.3708 7.81348 7.13068 7.81348 6.65137C7.81348 6.17211 7.81429 5.93194 7.69434 5.7627C7.65203 5.70305 7.59966 5.65075 7.54004 5.6084C7.3708 5.48832 7.13068 5.48828 6.65137 5.48828ZM17.3486 5.48828C16.8697 5.48828 16.6302 5.48857 16.4609 5.6084C16.4013 5.65072 16.349 5.70307 16.3066 5.7627C16.1865 5.93196 16.1865 6.17193 16.1865 6.65137C16.1865 7.13068 16.1866 7.3708 16.3066 7.54004C16.349 7.59955 16.4014 7.65209 16.4609 7.69434C16.6302 7.81403 16.8699 7.81348 17.3486 7.81348C17.8279 7.81348 18.068 7.81425 18.2373 7.69434C18.2969 7.65203 18.3492 7.59966 18.3916 7.54004C18.5117 7.3708 18.5117 7.13068 18.5117 6.65137C18.5117 6.17192 18.5117 5.93196 18.3916 5.7627C18.3492 5.70297 18.297 5.65078 18.2373 5.6084C18.068 5.48835 17.8281 5.48828 17.3486 5.48828Z" fill="#48465C"/>
</svg>
