<svg width="24" height="24" viewBox="0 0 24 24" fill="none" xmlns="http://www.w3.org/2000/svg">
<path d="M22 20.25C22.4142 20.25 22.75 20.5858 22.75 21C22.75 21.4142 22.4142 21.75 22 21.75H2C1.58579 21.75 1.25 21.4142 1.25 21C1.25 20.5858 1.58579 20.25 2 20.25H22ZM13.0518 2.25C13.9503 2.24997 14.7001 2.25012 15.2949 2.33008C15.9225 2.41452 16.489 2.6003 16.9443 3.05566C17.2867 3.39805 17.4769 3.80317 17.5859 4.25H18C20.6234 4.25 22.75 6.37665 22.75 9C22.75 11.6234 20.6234 13.75 18 13.75H17.7393C17.7262 14.3711 17.6976 14.9167 17.6338 15.3916C17.5128 16.2917 17.2533 17.0494 16.6514 17.6514C16.0494 18.2533 15.2917 18.5128 14.3916 18.6338C13.5246 18.7503 12.4222 18.75 11.0547 18.75H8.94531C7.57782 18.75 6.47534 18.7503 5.6084 18.6338C4.70829 18.5128 3.95055 18.2533 3.34863 17.6514C2.74673 17.0494 2.48723 16.2917 2.36621 15.3916C2.27956 14.7468 2.25763 13.9719 2.25195 13.0547C2.25066 13.0368 2.25 13.0183 2.25 13C2.25 12.9845 2.25006 12.9693 2.25098 12.9541C2.24958 12.6681 2.24999 12.3682 2.25 12.0547V6.94824C2.24997 6.04976 2.25011 5.29986 2.33008 4.70508C2.41452 4.07747 2.6003 3.51102 3.05566 3.05566C3.51102 2.60031 4.07747 2.41452 4.70508 2.33008C5.29986 2.25012 6.04976 2.24997 6.94824 2.25H13.0518ZM3.76074 13.75C3.773 14.319 3.79951 14.7907 3.85352 15.1924C3.95218 15.9258 4.13249 16.3141 4.40918 16.5908C4.68594 16.8676 5.07481 17.0478 5.80859 17.1465C6.5639 17.2479 7.56484 17.25 9 17.25H11C12.4354 17.25 13.437 17.248 14.1924 17.1465C14.9258 17.0478 15.3141 16.8676 15.5908 16.5908C15.8676 16.3141 16.0478 15.9258 16.1465 15.1924C16.2005 14.7907 16.227 14.319 16.2393 13.75H3.76074ZM7 3.75C6.03599 3.75 5.38831 3.75147 4.90527 3.81641C4.44388 3.87845 4.24651 3.9859 4.11621 4.11621C3.9859 4.24652 3.87845 4.44388 3.81641 4.90527C3.75146 5.38831 3.75 6.03599 3.75 7V12.25H16.25V7C16.25 6.03599 16.2485 5.38831 16.1836 4.90527C16.1215 4.44389 16.0141 4.24652 15.8838 4.11621C15.7535 3.98591 15.5561 3.87845 15.0947 3.81641C14.6117 3.75147 13.964 3.75 13 3.75H7ZM17.75 6.94824V12.25H18C19.7949 12.25 21.25 10.7949 21.25 9C21.25 7.20508 19.7949 5.75 18 5.75H17.7412C17.7502 6.11405 17.75 6.51381 17.75 6.94824Z" fill="#48465C"/>
</svg>
