<svg width="24" height="24" viewBox="0 0 24 24" fill="none" xmlns="http://www.w3.org/2000/svg">
<path d="M12.0002 1.25C16.2804 1.25005 19.7502 4.71982 19.7502 9V9.7041C19.7502 10.401 19.9565 11.0823 20.343 11.6621L21.4915 13.3848C22.8245 15.3844 21.8071 18.103 19.4885 18.7354C18.733 18.9414 17.9707 19.1152 17.2043 19.2578L17.2024 19.2637C16.4333 21.3153 14.378 22.7499 12.0002 22.75C9.62246 22.75 7.56724 21.3153 6.7981 19.2637L6.79614 19.2578C6.02979 19.1152 5.26752 18.9414 4.51196 18.7354C2.19337 18.1031 1.17594 15.3845 2.50903 13.3848L3.65747 11.6621C4.04398 11.0823 4.25024 10.4009 4.25024 9.7041V9C4.25024 4.71979 7.72 1.25 12.0002 1.25ZM15.3762 19.5371C13.1333 19.8051 10.8662 19.8051 8.62329 19.5371C9.33424 20.5587 10.5712 21.25 12.0002 21.25C13.4291 21.2499 14.6652 20.5584 15.3762 19.5371ZM12.0002 2.75C8.54843 2.75 5.75024 5.54822 5.75024 9V9.7041C5.75024 10.6971 5.45628 11.6679 4.90552 12.4941L3.75708 14.2168C2.99191 15.3645 3.57566 16.9251 4.90649 17.2881C9.55075 18.5547 14.4497 18.5547 19.094 17.2881C20.4246 16.925 21.0085 15.3644 20.2434 14.2168L19.095 12.4941C18.5441 11.6679 18.2502 10.6972 18.2502 9.7041V9C18.2502 5.54825 15.4519 2.75005 12.0002 2.75Z" fill="#48465C"/>
</svg>
