<svg width="24" height="24" viewBox="0 0 24 24" fill="none" xmlns="http://www.w3.org/2000/svg">
<path d="M9.5 7.00027C13.6421 7.00027 17 10.3582 17 14.5003C16.9998 18.6422 13.642 22.0003 9.5 22.0003C5.35798 22.0003 2.00019 18.6422 2 14.5003C2 10.3582 5.35786 7.00027 9.5 7.00027ZM10 15.2503C9.58579 15.2503 9.25 15.5861 9.25 16.0003C9.25019 16.4143 9.58591 16.7503 10 16.7503H12C12.4141 16.7503 12.7498 16.4143 12.75 16.0003C12.75 15.5861 12.4142 15.2503 12 15.2503H10ZM9 11.0003C8.44772 11.0003 8 11.6719 8 12.5003C8.00013 13.3285 8.4478 14.0003 9 14.0003C9.5522 14.0003 9.99987 13.3285 10 12.5003C10 11.6719 9.55228 11.0003 9 11.0003ZM13 11.0003C12.4477 11.0003 12 11.6719 12 12.5003C12.0001 13.3285 12.4478 14.0003 13 14.0003C13.5522 14.0003 13.9999 13.3285 14 12.5003C14 11.6719 13.5523 11.0003 13 11.0003ZM16.4668 7.53348L16.7666 8.29422L16.0176 9.04324C15.6958 8.65943 15.3409 8.3044 14.957 7.9827L15.7061 7.23367L16.4668 7.53348ZM17.9814 2.35281C18.1673 1.8824 18.8327 1.88239 19.0186 2.35281L19.6729 4.01199C19.7295 4.15566 19.8436 4.26971 19.9873 4.32645L21.6465 4.98074C22.1174 5.16645 22.1174 5.83312 21.6465 6.01883L19.9873 6.67313C19.8436 6.72985 19.7295 6.84388 19.6729 6.98758L19.0186 8.64676C18.8328 9.11749 18.1672 9.11747 17.9814 8.64676L17.3271 6.98758C17.2705 6.8439 17.1564 6.72986 17.0127 6.67313L15.3535 6.01883C14.8826 5.83312 14.8826 5.16645 15.3535 4.98074L17.0127 4.32645C17.1563 4.2697 17.2705 4.15564 17.3271 4.01199L17.9814 2.35281Z" fill="#1C274C"/>
</svg>
