<svg width="24" height="24" viewBox="0 0 24 24" fill="none" xmlns="http://www.w3.org/2000/svg">
<path d="M17.5 13.25C19.8472 13.25 21.75 15.1528 21.75 17.5C21.75 19.8472 19.8472 21.75 17.5 21.75C15.314 21.75 13.5134 20.0994 13.2764 17.9766L13.0059 17.8418C12.3726 17.5252 11.6274 17.5252 10.9941 17.8418L10.7236 17.9766C10.4866 20.0994 8.68604 21.75 6.5 21.75C4.15279 21.75 2.25 19.8472 2.25 17.5C2.25 15.1528 4.15279 13.25 6.5 13.25C8.45776 13.25 10.1065 14.5737 10.5996 16.375C11.4978 16.0134 12.5022 16.0134 13.4004 16.375C13.8935 14.5737 15.5422 13.25 17.5 13.25ZM6.5 14.75C4.98122 14.75 3.75 15.9812 3.75 17.5C3.75 19.0188 4.98122 20.25 6.5 20.25C8.01878 20.25 9.25 19.0188 9.25 17.5C9.25 15.9812 8.01878 14.75 6.5 14.75ZM17.5 14.75C15.9812 14.75 14.75 15.9812 14.75 17.5C14.75 19.0188 15.9812 20.25 17.5 20.25C19.0188 20.25 20.25 19.0188 20.25 17.5C20.25 15.9812 19.0188 14.75 17.5 14.75ZM13.6123 3.25C14.6974 3.24998 15.5784 3.25021 16.2871 3.33496C17.0261 3.42333 17.6611 3.61092 18.2158 4.04395C18.7704 4.47698 19.1061 5.04768 19.3711 5.74316C19.6252 6.41022 19.8394 7.26473 20.1025 8.31738L20.5859 10.25H22C22.4142 10.25 22.75 10.5858 22.75 11C22.75 11.4142 22.4142 11.75 22 11.75H2C1.58579 11.75 1.25 11.4142 1.25 11C1.25 10.5858 1.58579 10.25 2 10.25H3.41406L3.89746 8.31738C4.16061 7.26474 4.3748 6.41022 4.62891 5.74316C4.89386 5.04769 5.22961 4.47698 5.78418 4.04395C6.3388 3.61092 6.97388 3.42333 7.71289 3.33496C8.42166 3.25021 9.30262 3.24998 10.3877 3.25H13.6123ZM10.4346 4.75C9.29141 4.75 8.49999 4.75135 7.89062 4.82422C7.3016 4.89468 6.9671 5.02434 6.70801 5.22656C6.44885 5.42891 6.24158 5.72266 6.03027 6.27734C5.81185 6.85078 5.61896 7.61789 5.3418 8.72656L4.96094 10.25H19.0391L18.6582 8.72656C18.381 7.6179 18.1881 6.85078 17.9697 6.27734C17.7584 5.72266 17.5512 5.42891 17.292 5.22656C17.033 5.02433 16.6985 4.89468 16.1094 4.82422C15.5 4.75135 14.7086 4.75 13.5654 4.75H10.4346Z" fill="#1C274C"/>
</svg>
