<svg width="24" height="24" viewBox="0 0 24 24" fill="none" xmlns="http://www.w3.org/2000/svg">
<path d="M18.4316 4.15234C19.4983 4.30068 20.25 4.59375 20.8281 5.17188C21.9997 6.34346 22 8.22883 22 12C22 15.7711 21.9997 17.6566 20.8281 18.8281C19.6566 19.9997 17.7711 20 14 20H10C6.22883 20 4.34346 19.9997 3.17188 18.8281C2.00032 17.6566 2 15.7711 2 12C2 8.22881 2.00036 6.34346 3.17188 5.17188C3.75 4.59375 4.50172 4.30069 5.56836 4.15234L6.33887 6.20508C6.56216 6.80057 6.75021 7.30532 6.95117 7.70117C7.16485 8.12204 7.4235 8.48537 7.81934 8.75977C8.21535 9.0342 8.64697 9.14887 9.11621 9.20117C9.55739 9.25031 10.0956 9.25002 10.7314 9.25H13.2686C13.9044 9.25002 14.4427 9.25033 14.8838 9.20117C15.353 9.14886 15.7846 9.03415 16.1807 8.75977C16.5763 8.48543 16.8343 8.12186 17.0479 7.70117C17.2488 7.30541 17.4379 6.80137 17.6611 6.20605L18.4316 4.15234ZM8.25 10.75C6.59315 10.75 5.25 12.0931 5.25 13.75C5.25005 15.4069 6.59318 16.75 8.25 16.75C9.90682 16.75 11.2499 15.4069 11.25 13.75C11.25 12.0931 9.90685 10.75 8.25 10.75ZM15.75 10.75C14.0931 10.75 12.75 12.0931 12.75 13.75C12.7501 15.4069 14.0931 16.75 15.75 16.75C17.4069 16.75 18.7499 15.4069 18.75 13.75C18.75 12.0931 17.4069 10.75 15.75 10.75ZM8.25 12.25C9.07843 12.25 9.75 12.9216 9.75 13.75C9.75 14.5784 9.07843 15.25 8.25 15.25C7.42157 15.25 6.75 14.5784 6.75 13.75C6.75 12.9216 7.42157 12.25 8.25 12.25ZM15.75 12.25C16.5784 12.25 17.25 12.9216 17.25 13.75C17.25 14.5784 16.5784 15.25 15.75 15.25C14.9216 15.25 14.25 14.5784 14.25 13.75C14.25 12.9216 14.9216 12.25 15.75 12.25ZM11.25 7.75H10.7715C10.0845 7.75 9.63054 7.74877 9.28223 7.70996C8.95257 7.67322 8.79174 7.60905 8.67383 7.52734C8.55591 7.44562 8.43922 7.31726 8.28906 7.02148C8.13048 6.70902 7.96965 6.28463 7.72852 5.6416L7.125 4.03027C7.93933 4.00021 8.88763 4 10 4H11.25V7.75ZM14 4C15.1124 4 16.0607 4.00021 16.875 4.03027L16.2705 5.6416C16.0294 6.28468 15.8686 6.70903 15.71 7.02148C15.56 7.31703 15.444 7.44562 15.3262 7.52734C15.2082 7.60902 15.0472 7.67321 14.7178 7.70996C14.3694 7.74878 13.9147 7.75 13.2275 7.75H12.75V4H14Z" fill="#1C274C"/>
</svg>
