<svg width="24" height="24" viewBox="0 0 24 24" fill="none" xmlns="http://www.w3.org/2000/svg">
<path d="M12 2C14.8089 2 16.2138 1.99971 17.2227 2.67383C17.6593 2.96563 18.0343 3.34068 18.3262 3.77734C19.0003 4.78623 19 6.19108 19 9V15C19 17.8089 19.0003 19.2138 18.3262 20.2227C18.0343 20.6593 17.6593 21.0343 17.2227 21.3262C16.2138 22.0003 14.8089 22 12 22C9.19108 22 7.78623 22.0003 6.77734 21.3262C6.34068 21.0343 5.96563 20.6593 5.67383 20.2227C4.99971 19.2138 5 17.8089 5 15V9C5 6.19108 4.99971 4.78623 5.67383 3.77734C5.96563 3.34068 6.34068 2.96563 6.77734 2.67383C7.78623 1.99971 9.19108 2 12 2ZM12 11.75C9.92893 11.75 8.25 13.4289 8.25 15.5C8.25 17.5711 9.92893 19.25 12 19.25C14.0711 19.25 15.75 17.5711 15.75 15.5C15.75 13.4289 14.0711 11.75 12 11.75ZM12 13.25C13.2426 13.25 14.25 14.2574 14.25 15.5C14.25 16.7426 13.2426 17.75 12 17.75C10.7574 17.75 9.75 16.7426 9.75 15.5C9.75 14.2574 10.7574 13.25 12 13.25ZM9 8C8.44772 8 8 8.44772 8 9C8 9.55228 8.44772 10 9 10C9.55228 10 10 9.55228 10 9C10 8.44772 9.55228 8 9 8ZM12 8C11.4477 8 11 8.44772 11 9C11 9.55228 11.4477 10 12 10C12.5523 10 13 9.55228 13 9C13 8.44772 12.5523 8 12 8ZM15 8C14.4477 8 14 8.44772 14 9C14 9.55228 14.4477 10 15 10C15.5523 10 16 9.55228 16 9C16 8.44772 15.5523 8 15 8ZM9 4.75C8.58579 4.75 8.25 5.08579 8.25 5.5C8.25 5.91421 8.58579 6.25 9 6.25H15C15.4142 6.25 15.75 5.91421 15.75 5.5C15.75 5.08579 15.4142 4.75 15 4.75H9Z" fill="#1C274C"/>
</svg>
