<svg width="24" height="24" viewBox="0 0 24 24" fill="none" xmlns="http://www.w3.org/2000/svg">
<path d="M8.5506 2.15698C9.13683 1.85474 9.72282 2.04009 10.2029 2.28687C10.6745 2.52924 11.2436 2.93586 11.9168 3.41772L13.6082 4.62866C14.107 4.98549 14.5433 5.29747 14.8475 5.59058C15.171 5.90257 15.4617 6.30168 15.4617 6.84546C15.4617 7.38923 15.171 7.78834 14.8475 8.10034C14.5433 8.39346 14.1069 8.70543 13.6082 9.06226L9.50861 11.9958L9.51544 12.0007L9.50958 12.0046L13.6082 14.9373C14.1068 15.2941 14.5433 15.6061 14.8475 15.8992C15.171 16.2112 15.4616 16.6103 15.4617 17.1541C15.4617 17.6978 15.171 18.097 14.8475 18.4089C14.5433 18.7021 14.1069 19.0139 13.6082 19.3708L11.9168 20.5818C11.2435 21.0637 10.6745 21.4702 10.2029 21.7126C9.72285 21.9594 9.13682 22.1456 8.5506 21.8435C7.96269 21.5403 7.77109 20.9513 7.6922 20.4148C7.61488 19.8888 7.61501 19.1876 7.61505 18.3591V13.3406L4.08966 15.8279C3.77643 16.0489 3.34408 15.9717 3.12482 15.656C2.90571 15.3404 2.98255 14.9053 3.29572 14.6843L7.1004 12.0007L3.29572 9.31616C2.98251 9.09523 2.90561 8.66012 3.12482 8.34448C3.34408 8.02883 3.77643 7.95263 4.08966 8.17358L7.61505 10.6609V5.64038C7.61501 4.81213 7.61495 4.11164 7.6922 3.58569C7.77107 3.04909 7.96266 2.46014 8.5506 2.15698ZM17.9842 4.98413C18.261 4.7185 18.699 4.72883 18.9627 5.00757L18.9637 5.00952L18.9656 5.0105L18.9686 5.0144L18.9774 5.02319C18.9837 5.03018 18.9912 5.03966 19.0008 5.05054C19.02 5.07255 19.046 5.10221 19.077 5.14038C19.1391 5.2171 19.2232 5.32756 19.3211 5.47144C19.5169 5.75924 19.7692 6.18351 20.0184 6.75464C20.518 7.8999 20.9998 9.62369 20.9998 12.0007C20.9998 14.3775 20.5179 16.1006 20.0184 17.2458C19.7691 17.8172 19.5169 18.2421 19.3211 18.53C19.2232 18.6738 19.139 18.7834 19.077 18.8601C19.0459 18.8983 19.0201 18.9289 19.0008 18.9509C18.9914 18.9616 18.9836 18.9704 18.9774 18.9773L18.9686 18.9871L18.9637 18.9919C18.9634 18.9918 18.9522 18.9821 18.4852 18.5339L18.9627 18.9929C18.699 19.2717 18.261 19.2821 17.9842 19.0164C17.7086 18.7517 17.6966 18.3131 17.9568 18.0339L17.9637 18.0271C17.9714 18.0183 17.9853 18.0013 18.0047 17.9773C18.0435 17.9294 18.1037 17.8511 18.1785 17.741C18.3288 17.5201 18.5386 17.1709 18.7508 16.6843C19.1743 15.7135 19.615 14.1813 19.6151 12.0007C19.6151 9.81982 19.1743 8.28707 18.7508 7.31616C18.5386 6.82962 18.3288 6.48136 18.1785 6.2605C18.1035 6.15013 18.0435 6.07112 18.0047 6.02319C17.9855 5.99949 17.9714 5.98319 17.9637 5.97437L17.9568 5.96655C17.6967 5.68738 17.7086 5.24872 17.9842 4.98413ZM16.3055 7.65601C16.6475 7.4837 17.0642 7.62292 17.2352 7.96753V7.96948L17.2488 7.99683C17.2569 8.01373 17.2689 8.03779 17.283 8.06812C17.311 8.12873 17.3499 8.21589 17.3963 8.32495C17.4889 8.54268 17.6117 8.85133 17.7342 9.22144C17.9764 9.9539 18.2313 10.965 18.2313 12.0007C18.2312 13.0363 17.9764 14.0467 17.7342 14.7791C17.6116 15.1496 17.4889 15.4587 17.3963 15.6765C17.35 15.7853 17.311 15.8718 17.283 15.9324C17.2689 15.9627 17.2569 15.9868 17.2488 16.0037L17.2391 16.0242L17.2352 16.032V16.033C17.0642 16.3776 16.6475 16.5179 16.3055 16.3455C15.9639 16.1732 15.8255 15.7543 15.9959 15.4099L16.0027 15.3962C16.0081 15.385 16.0169 15.3666 16.0281 15.3425C16.0505 15.2941 16.0838 15.221 16.1238 15.1267C16.2043 14.9375 16.3124 14.6648 16.4207 14.3376C16.6399 13.675 16.8464 12.8252 16.8465 12.0007C16.8465 11.1761 16.6399 10.3257 16.4207 9.66284C16.3125 9.33597 16.2043 9.06387 16.1238 8.87476C16.0837 8.78036 16.0505 8.70634 16.0281 8.65796C16.0171 8.63404 16.0081 8.61646 16.0027 8.60522L15.9959 8.59155C15.8252 8.24713 15.9639 7.8284 16.3055 7.65601Z" fill="#1C274C"/>
</svg>
