<svg width="24" height="24" viewBox="0 0 24 24" fill="none" xmlns="http://www.w3.org/2000/svg">
<path d="M8.55066 2.15698C9.13689 1.85474 9.72289 2.04009 10.203 2.28687C10.6746 2.52924 11.2436 2.93586 11.9169 3.41772L13.6083 4.62866C14.1071 4.98549 14.5433 5.29747 14.8475 5.59058C15.1711 5.90257 15.4618 6.30168 15.4618 6.84546C15.4618 7.38923 15.1711 7.78834 14.8475 8.10034C14.5433 8.39346 14.107 8.70543 13.6083 9.06226L9.50867 11.9958L9.5155 12.0007L9.50964 12.0046L13.6083 14.9373C14.1069 15.2941 14.5433 15.6061 14.8475 15.8992C15.1711 16.2112 15.4617 16.6103 15.4618 17.1541C15.4618 17.6978 15.171 18.097 14.8475 18.4089C14.5433 18.7021 14.107 19.014 13.6083 19.3708L11.9169 20.5818C11.2436 21.0637 10.6746 21.4702 10.203 21.7126C9.72291 21.9594 9.13688 22.1456 8.55066 21.8435C7.96275 21.5403 7.77115 20.9513 7.69226 20.4148C7.61494 19.8888 7.61507 19.1876 7.61511 18.3591V13.3406L4.08972 15.8279C3.77649 16.0489 3.34414 15.9717 3.12488 15.656C2.90577 15.3404 2.98261 14.9053 3.29578 14.6843L7.10046 12.0007L3.29578 9.31616C2.98257 9.09523 2.90567 8.66012 3.12488 8.34448C3.34414 8.02883 3.77649 7.95263 4.08972 8.17358L7.61511 10.6609V5.64038C7.61507 4.81213 7.61501 4.11164 7.69226 3.58569C7.77113 3.04909 7.96272 2.46014 8.55066 2.15698ZM17.9843 4.98413C18.2611 4.71851 18.699 4.72886 18.9628 5.00757L18.9637 5.00952L18.9657 5.0105L18.9686 5.0144L18.9774 5.02319C18.9838 5.03018 18.9913 5.03964 19.0009 5.05054C19.0201 5.07255 19.0461 5.10221 19.077 5.14038C19.1391 5.2171 19.2233 5.32756 19.3212 5.47144C19.5169 5.75924 19.7693 6.1835 20.0184 6.75464C20.518 7.8999 20.9999 9.62369 20.9999 12.0007C20.9998 14.3775 20.518 16.1006 20.0184 17.2458C19.7691 17.8172 19.517 18.2421 19.3212 18.53C19.2233 18.6738 19.1391 18.7834 19.077 18.8601C19.046 18.8983 19.0201 18.9289 19.0009 18.9509C18.9915 18.9616 18.9837 18.9704 18.9774 18.9773L18.9686 18.9871L18.9637 18.9919C18.9632 18.9916 18.9479 18.9779 18.4852 18.5339L18.9628 18.9929C18.699 19.2717 18.2611 19.2821 17.9843 19.0164C17.7087 18.7518 17.6967 18.3131 17.9569 18.0339L17.9637 18.0271C17.9714 18.0183 17.9854 18.0013 18.0048 17.9773C18.0436 17.9294 18.1046 17.8513 18.1796 17.741C18.3299 17.5201 18.5387 17.1709 18.7509 16.6843C19.1743 15.7135 19.6151 14.1814 19.6151 12.0007C19.6151 9.81982 19.1744 8.28707 18.7509 7.31616C18.5388 6.82995 18.3298 6.48138 18.1796 6.2605C18.1045 6.15011 18.0436 6.07111 18.0048 6.02319C17.9855 5.99946 17.9715 5.98318 17.9637 5.97437L17.9569 5.96655C17.6968 5.68739 17.7087 5.24871 17.9843 4.98413ZM16.3055 7.65601C16.6475 7.4837 17.0642 7.62293 17.2352 7.96753V7.96948L17.2489 7.99683C17.257 8.01373 17.269 8.03779 17.2831 8.06812C17.3111 8.12874 17.35 8.21589 17.3964 8.32495C17.4889 8.54268 17.6117 8.85133 17.7343 9.22144C17.9765 9.9539 18.2313 10.965 18.2313 12.0007C18.2313 13.0363 17.9764 14.0467 17.7343 14.7791C17.6117 15.1496 17.489 15.4587 17.3964 15.6765C17.3501 15.7853 17.3111 15.8718 17.2831 15.9324C17.269 15.9627 17.257 15.9868 17.2489 16.0037L17.2391 16.0242L17.2352 16.032V16.033C17.0642 16.3776 16.6475 16.5179 16.3055 16.3455C15.9639 16.1732 15.8256 15.7543 15.996 15.4099L16.0028 15.3962C16.0082 15.385 16.017 15.3666 16.0282 15.3425C16.0506 15.2941 16.0839 15.221 16.1239 15.1267C16.2044 14.9375 16.3125 14.6648 16.4208 14.3376C16.6399 13.675 16.8465 12.8252 16.8466 12.0007C16.8466 11.1761 16.64 10.3257 16.4208 9.66284C16.3126 9.33596 16.2044 9.06387 16.1239 8.87476C16.0838 8.78036 16.0506 8.70634 16.0282 8.65796C16.0171 8.63404 16.0082 8.61646 16.0028 8.60522L15.996 8.59155C15.8253 8.24714 15.964 7.8284 16.3055 7.65601Z" fill="#48465C"/>
</svg>
