<svg width="24" height="24" viewBox="0 0 24 24" fill="none" xmlns="http://www.w3.org/2000/svg">
<path d="M14.0684 1.25C15.8959 1.24997 17.3624 1.24988 18.5137 1.44336C19.721 1.64629 20.6782 2.07635 21.4141 2.99609C22.1305 3.89175 22.447 5.01499 22.5996 6.43359C22.7503 7.83522 22.75 9.63584 22.75 11.9531V12.0469C22.75 14.3641 22.7503 16.1648 22.5996 17.5664C22.447 18.985 22.1305 20.1082 21.4141 21.0039C20.6782 21.9236 19.7209 22.3537 18.5137 22.5566C17.3624 22.7501 15.8959 22.75 14.0684 22.75H9.93164C8.10418 22.75 6.63763 22.7501 5.48633 22.5566C4.27907 22.3537 3.32173 21.9236 2.58594 21.0039C1.86946 20.1082 1.55296 18.9849 1.40039 17.5664C1.24966 16.1648 1.24999 14.3641 1.25 12.0469V11.9531C1.24999 9.63585 1.24965 7.83522 1.40039 6.43359C1.55297 5.015 1.86944 3.89175 2.58594 2.99609C3.32173 2.07635 4.27907 1.64629 5.48633 1.44336C6.63763 1.24988 8.10418 1.24997 9.93164 1.25H14.0684ZM10 2.75C8.08815 2.75 6.74823 2.75264 5.73535 2.92285C4.76426 3.08605 4.19256 3.38798 3.75684 3.93262C3.30182 4.50139 3.03288 5.28934 2.89258 6.59375C2.75146 7.90579 2.75 9.62594 2.75 12C2.75 14.3741 2.75146 16.0941 2.89258 17.4062C3.03288 18.7107 3.30182 19.4986 3.75684 20.0674C4.19256 20.6121 4.76426 20.914 5.73535 21.0771C6.74823 21.2473 8.08815 21.25 10 21.25H14C15.9118 21.25 17.2518 21.2473 18.2646 21.0771C19.2357 20.914 19.8074 20.612 20.2432 20.0674C20.6982 19.4986 20.967 18.7107 21.1074 17.4062C21.2485 16.0941 21.25 14.3741 21.25 12C21.25 9.62594 21.2485 7.90579 21.1074 6.59375C20.967 5.28934 20.6981 4.50139 20.2432 3.93262C19.8074 3.38799 19.2357 3.08605 18.2646 2.92285C17.2518 2.75264 15.9118 2.75 14 2.75H10ZM17 6.75C18.2426 6.75 19.25 7.75736 19.25 9C19.25 9.97967 18.6239 10.8132 17.75 11.1221V14.7637C17.75 15.8054 17.1612 16.7578 16.2295 17.2236L15.335 17.6709C14.9645 17.8559 14.5142 17.7053 14.3291 17.335C14.1441 16.9645 14.2947 16.5142 14.665 16.3291L15.5586 15.8818C15.9821 15.67 16.25 15.2372 16.25 14.7637V11.1221C15.3761 10.8132 14.75 9.97967 14.75 9C14.75 7.75736 15.7574 6.75 17 6.75ZM10 7.25C12.6234 7.25 14.75 9.37665 14.75 12C14.75 14.6234 12.6234 16.75 10 16.75C7.37665 16.75 5.25 14.6234 5.25 12C5.25 9.37665 7.37665 7.25 10 7.25ZM10 8.75C8.20507 8.75 6.75 10.2051 6.75 12C6.75 13.7949 8.20507 15.25 10 15.25C11.7949 15.25 13.25 13.7949 13.25 12C13.25 10.2051 11.7949 8.75 10 8.75ZM17 8.25C16.5858 8.25 16.25 8.58579 16.25 9C16.25 9.41422 16.5858 9.75 17 9.75C17.4142 9.75 17.75 9.41422 17.75 9C17.75 8.58579 17.4142 8.25 17 8.25Z" fill="#1C274C"/>
</svg>
