<svg width="24" height="24" viewBox="0 0 24 24" fill="none" xmlns="http://www.w3.org/2000/svg">
<path d="M21.8525 6.26465C22.2587 6.18342 22.6542 6.44735 22.7354 6.85352C22.8164 7.2594 22.5533 7.65396 22.1475 7.73535L21.0244 7.95996C20.6749 8.02985 20.4734 8.07108 20.3291 8.11719C20.2642 8.13795 20.2313 8.15438 20.2158 8.16309C20.2094 8.16663 20.2058 8.16938 20.2051 8.16992L20.2031 8.17188C20.2027 8.17253 20.1996 8.17604 20.1963 8.18262C20.1883 8.19857 20.1748 8.23286 20.1572 8.29883C20.1184 8.44473 20.0867 8.64677 20.0342 8.99707L20.0332 9L18.8936 17.0439L19.0557 17.0156C20.5924 16.7467 22 17.9293 22 19.4893C21.9998 20.8759 20.8758 21.9998 19.4893 22H3.08691C2.48666 22 2 21.5133 2 20.9131C2.00013 20.3852 2.37948 19.9338 2.89941 19.8428L17.3398 17.3154L18.5498 8.77832L18.5547 8.74414C18.6006 8.43801 18.6445 8.14978 18.708 7.91211C18.7786 7.64725 18.8911 7.37407 19.1182 7.13574C19.3451 6.89763 19.6121 6.77189 19.873 6.68848C20.1074 6.61364 20.3928 6.55675 20.6963 6.49609L21.8525 6.26465ZM6.20996 6.04688C7.60379 5.17574 9.33592 5.04296 10.8467 5.69043C12.0282 6.19691 12.325 7.73652 11.416 8.64551L9.76172 10.2988C9.41225 10.6483 9.4387 11.2227 9.81836 11.5391L10.8145 12.3691C11.4073 12.8631 11.75 13.5956 11.75 14.3672V16C11.75 16.4142 11.4142 16.75 11 16.75C10.5858 16.75 10.25 16.4142 10.25 16V14.3672C10.25 14.0407 10.1052 13.7304 9.85449 13.5215L8.85742 12.6914C7.80031 11.8104 7.72806 10.2114 8.70117 9.23828L10.3555 7.58398C10.5137 7.42528 10.4619 7.15667 10.2559 7.06836C9.19668 6.61444 7.98208 6.70859 7.00488 7.31934L4.89746 8.63574C4.54621 8.85527 4.08379 8.74871 3.86426 8.39746C3.64478 8.04622 3.75131 7.58377 4.10254 7.36426L6.20996 6.04688ZM6.46973 13.4697C6.76259 13.177 7.23741 13.177 7.53027 13.4697C7.82313 13.7626 7.82307 14.2374 7.53027 14.5303L7.20215 14.8594C7.17335 14.8882 7.14431 14.9162 7.11621 14.9443C6.62273 15.4387 6.23206 15.8304 5.72363 16.041C5.21527 16.2515 4.66233 16.2506 3.96387 16.25H3C2.58579 16.25 2.25 15.9142 2.25 15.5C2.25011 15.0859 2.58586 14.75 3 14.75H3.84277C4.72146 14.75 4.95272 14.7371 5.15039 14.6553C5.34791 14.5733 5.52062 14.4188 6.1416 13.7979L6.46973 13.4697ZM15.5 9.25C15.9141 9.25 16.2499 9.58589 16.25 10C16.25 10.4142 15.9142 10.75 15.5 10.75H12.5C12.0858 10.75 11.75 10.4142 11.75 10C11.7501 9.58589 12.0859 9.25 12.5 9.25H15.5ZM15 2C16.1046 2 17 2.89543 17 4C17 5.10457 16.1046 6 15 6C13.8954 6 13 5.10457 13 4C13 2.89543 13.8954 2 15 2Z" fill="#1C274C"/>
</svg>
