<svg width="24" height="24" viewBox="0 0 24 24" fill="none" xmlns="http://www.w3.org/2000/svg">
<path d="M19 3C20.4141 3 21.1211 3.00003 21.5605 3.41211C21.9998 3.82429 22 4.48775 22 5.81445V6.50488C22 7.54239 21.9998 8.0611 21.7402 8.49121C21.4806 8.92139 21.0061 9.18869 20.0576 9.72266L17.1445 11.3623C16.5084 11.7203 16.1906 11.9 15.9629 12.0977C15.4885 12.5095 15.1958 12.9933 15.0635 13.5869C14.9999 13.8719 15 14.2059 15 14.873V17.542C15 19.4515 14.9999 20.4064 14.332 20.8242C13.6641 21.242 12.725 20.8749 10.8467 20.1406C9.95201 19.7908 9.50392 19.616 9.25195 19.2617C9.00003 18.9071 9 18.4516 9 17.542V14.873C9 14.2059 9.00008 13.8719 8.93652 13.5869C8.80414 12.9933 8.51152 12.5095 8.03711 12.0977C7.80932 11.9 7.49151 11.7203 6.85547 11.3623L3.94238 9.72266C2.99383 9.18869 2.51937 8.92139 2.25977 8.49121C2.00025 8.0611 2 7.54239 2 6.50488V5.81445C2 4.48775 2.00014 3.82429 2.43945 3.41211C2.8788 3.00001 3.5859 3 5 3H19Z" fill="#1C274C"/>
</svg>
