<svg width="24" height="24" viewBox="0 0 24 24" fill="none" xmlns="http://www.w3.org/2000/svg">
<path d="M5.53735 4.93701C6.93017 3.54421 9.15275 3.73162 10.0374 5.31592L10.6868 6.479C11.2724 7.52844 11.0369 8.90517 10.1145 9.82764C10.1145 9.82764 8.99594 10.9473 11.0247 12.9761C13.0532 15.0044 14.1721 13.8853 14.1721 13.8853C15.0946 12.9629 16.4713 12.7283 17.5208 13.314L18.6838 13.9624C20.2686 14.8468 20.4556 17.0694 19.0627 18.4624C18.2257 19.2994 17.2002 19.9508 16.0667 19.9937C14.1585 20.066 10.9177 19.583 7.66724 16.3325C4.41686 13.082 3.93377 9.84119 4.0061 7.93311C4.04914 6.7997 4.70039 5.77396 5.53735 4.93701ZM19.0002 4.25049C19.4143 4.25064 19.7502 4.58637 19.7502 5.00049V8.00049C19.7501 8.41449 19.4142 8.75033 19.0002 8.75049C18.5861 8.75049 18.2504 8.41458 18.2502 8.00049V6.81104L15.5305 9.53076C15.2377 9.82356 14.7629 9.82338 14.47 9.53076C14.1771 9.23787 14.1771 8.76311 14.47 8.47021L17.1897 5.75049H16.0002C15.5861 5.75049 15.2504 5.41458 15.2502 5.00049C15.2502 4.58627 15.586 4.25049 16.0002 4.25049H19.0002Z" fill="#48465C"/>
</svg>
