<svg width="24" height="24" viewBox="0 0 24 24" fill="none" xmlns="http://www.w3.org/2000/svg">
<path d="M5.12012 9.46484C5.41543 9.17443 5.89022 9.17838 6.18066 9.47363C6.47108 9.76896 6.46716 10.2438 6.17188 10.5342L5.2666 11.4238C3.20921 13.4471 3.25265 16.6999 5.35059 18.7061C7.48745 20.7491 10.9886 20.7697 13.1162 18.7354L13.4814 18.3857C13.7807 18.0994 14.2557 18.1098 14.542 18.4092C14.8282 18.7085 14.8179 19.1834 14.5186 19.4697L14.1533 19.8193C11.4365 22.4173 7.02107 22.3792 4.31348 19.79C1.61476 17.2092 1.54312 12.9819 4.21484 10.3545L5.12012 9.46484ZM9.85449 4.15723C12.5752 1.61362 16.9668 1.6138 19.6875 4.15723C22.437 6.72783 22.437 10.9177 19.6875 13.4883L17.4854 15.5479C17.1828 15.8303 16.7086 15.8142 16.4258 15.5117C16.143 15.2093 16.1588 14.7351 16.4609 14.4521L18.6631 12.3926C20.7785 10.4148 20.7785 7.23067 18.6631 5.25293C16.5189 3.24857 13.023 3.24838 10.8789 5.25293L10.5127 5.59668C10.2102 5.87957 9.73504 5.86312 9.45215 5.56055C9.16929 5.25798 9.18572 4.78385 9.48828 4.50098L9.85449 4.15723ZM2.82812 5.75781C3.0098 5.38562 3.45884 5.23148 3.83105 5.41309L9.37891 8.12109C9.75115 8.30278 9.90631 8.75178 9.72461 9.12402C9.54292 9.49598 9.09376 9.65011 8.72168 9.46875L3.17383 6.76074C2.80167 6.57909 2.64661 6.13001 2.82812 5.75781ZM6.30078 2.30664C6.68343 2.1484 7.12187 2.3303 7.28027 2.71289L8.19336 4.91797C8.35174 5.30067 8.16978 5.74002 7.78711 5.89844C7.40445 6.05681 6.96511 5.87477 6.80664 5.49219L5.89453 3.28613C5.73637 2.90348 5.91815 2.46499 6.30078 2.30664Z" fill="#1C274C"/>
</svg>
