<svg width="24" height="24" viewBox="0 0 24 24" fill="none" xmlns="http://www.w3.org/2000/svg">
<path d="M16.5587 14.0537C18.2314 13.7819 19.7499 15.073 19.7501 16.7676V22C19.7501 22.4142 19.4143 22.7499 19.0001 22.75C18.5858 22.75 18.2501 22.4142 18.2501 22V16.7676C18.2499 15.9975 17.56 15.4109 16.7999 15.5342L15.7872 15.6982C15.3785 15.7647 14.9926 15.4878 14.9259 15.0791C14.8595 14.6704 15.1374 14.2844 15.546 14.2178L16.5587 14.0537ZM10.5021 9.20703C11.9866 8.57079 13.6385 9.65937 13.6388 11.2744V13.8955C13.6388 14.3656 13.5187 14.828 13.2892 15.2383L10.5763 20.0859C10.2515 20.6666 9.72741 21.1104 9.10071 21.334L5.25208 22.7061C4.86194 22.8453 4.43225 22.6421 4.29309 22.252C4.15411 21.8618 4.35812 21.4331 4.74817 21.2939L8.5968 19.9209C8.88159 19.8193 9.12007 19.6175 9.2677 19.3535L11.9796 14.5059C12.084 14.3195 12.1388 14.1091 12.1388 13.8955V11.2744C12.1385 10.7363 11.5886 10.3741 11.0939 10.5859L8.63782 11.6377C8.14646 11.8483 8.02667 12.4909 8.4093 12.8643L9.02356 13.4629C9.32005 13.752 9.32614 14.2268 9.03723 14.5234C8.74812 14.82 8.27327 14.8262 7.97668 14.5371L7.36243 13.9385C6.21398 12.8188 6.57271 10.8917 8.047 10.2598L10.5021 9.20703ZM14.5001 2C15.8808 2.00006 17.0001 3.11933 17.0001 4.5C17.0001 5.88067 15.8808 6.99994 14.5001 7C13.1193 7 12.0001 5.88071 12.0001 4.5C12.0001 3.11929 13.1193 2 14.5001 2Z" fill="#1C274C"/>
</svg>
