<svg width="24" height="24" viewBox="0 0 24 24" fill="none" xmlns="http://www.w3.org/2000/svg">
<path d="M2 18.25C4.07107 18.25 5.75 19.9289 5.75 22C5.74987 22.4141 5.41413 22.75 5 22.75C4.58587 22.75 4.25013 22.4141 4.25 22C4.25 20.7573 3.24264 19.75 2 19.75C1.58587 19.75 1.25013 19.4141 1.25 19C1.25 18.5858 1.58579 18.25 2 18.25ZM2 15.25C5.72792 15.25 8.75 18.2721 8.75 22C8.74987 22.4141 8.41413 22.75 8 22.75C7.58587 22.75 7.25013 22.4141 7.25 22C7.25 19.1005 4.8995 16.75 2 16.75C1.58587 16.75 1.25013 16.4141 1.25 16C1.25 15.5858 1.58579 15.25 2 15.25ZM2 12.25C7.38478 12.25 11.75 16.6152 11.75 22C11.7499 22.4141 11.4141 22.75 11 22.75C10.5859 22.75 10.2501 22.4141 10.25 22C10.25 17.4436 6.55635 13.75 2 13.75C1.58587 13.75 1.25013 13.4141 1.25 13C1.25 12.5858 1.58579 12.25 2 12.25ZM12 1.25C12.7081 1.25 13.3518 1.45257 14.0498 1.79199C14.7245 2.12009 15.5041 2.60383 16.4775 3.20801L18.5439 4.49121C19.465 5.06284 20.2031 5.5207 20.7715 5.95605C21.3601 6.40685 21.8121 6.86627 22.1387 7.46289C22.4646 8.05825 22.6112 8.69167 22.6816 9.44043C22.7498 10.1662 22.75 11.054 22.75 12.167V13.7803C22.75 15.6838 22.7503 17.1865 22.5977 18.3613C22.441 19.5667 22.111 20.5403 21.3672 21.3096C20.62 22.0824 19.6691 22.4281 18.4922 22.5918C17.3513 22.7504 15.8938 22.75 14.0576 22.75H14C13.5858 22.75 13.25 22.4142 13.25 22C13.25 21.5858 13.5858 21.25 14 21.25C15.9075 21.25 17.2605 21.2481 18.2861 21.1055C19.2872 20.9662 19.8648 20.7055 20.2891 20.2666C20.7168 19.8241 20.9732 19.2159 21.1094 18.168C21.248 17.1009 21.25 15.6953 21.25 13.7246V12.2041C21.25 11.046 21.2493 10.2286 21.1885 9.58105C21.1291 8.94866 21.0165 8.53566 20.8232 8.18262C20.6308 7.83086 20.3489 7.52139 19.8594 7.14648C19.3562 6.76114 18.6815 6.34143 17.7207 5.74512L15.7207 4.50391C14.705 3.87357 13.9905 3.43194 13.3936 3.1416C12.8119 2.85874 12.3998 2.75 12 2.75C11.6002 2.75 11.1881 2.85873 10.6064 3.1416C10.0095 3.43193 9.29494 3.87357 8.2793 4.50391L6.2793 5.74512C5.31849 6.34142 4.64379 6.76114 4.14062 7.14648C3.6511 7.52138 3.36931 7.83086 3.17676 8.18262C2.94011 8.61496 2.82517 9.13417 2.7793 10.0381C2.75825 10.4517 2.40584 10.77 1.99219 10.749C1.57861 10.7279 1.26025 10.3756 1.28125 9.96191C1.33116 8.97861 1.46291 8.19086 1.86133 7.46289C2.1879 6.86627 2.63994 6.40685 3.22852 5.95605C3.79699 5.52069 4.535 5.06283 5.45605 4.49121L7.52246 3.20801C8.49591 2.60385 9.27555 2.12009 9.9502 1.79199C10.6481 1.45257 11.2919 1.25 12 1.25Z" fill="#1C274C"/>
</svg>
