<svg width="24" height="24" viewBox="0 0 24 24" fill="none" xmlns="http://www.w3.org/2000/svg">
<path d="M12 1.25C12.4142 1.25 12.75 1.58579 12.75 2V22C12.75 22.4142 12.4142 22.75 12 22.75C11.5858 22.75 11.25 22.4142 11.25 22V21.75H10.9434C9.1057 21.75 7.6499 21.7498 6.51074 21.5967C5.33844 21.439 4.38992 21.1066 3.6416 20.3584C2.89332 19.6101 2.56095 18.6615 2.40332 17.4893C2.25016 16.3501 2.24998 14.8943 2.25 13.0566V10.9434C2.24998 9.10569 2.25016 7.6499 2.40332 6.51074C2.56095 5.33844 2.8933 4.38992 3.6416 3.6416C4.38992 2.8933 5.33844 2.56096 6.51074 2.40332C7.6499 2.25017 9.10569 2.24998 10.9434 2.25H11.25V2C11.25 1.58579 11.5858 1.25 12 1.25ZM16.2021 20.2471C16.6163 20.2435 16.9554 20.5761 16.959 20.9902C16.9626 21.4044 16.629 21.7435 16.2148 21.7471C15.8402 21.7503 15.4356 21.75 15.002 21.75H14.0908C13.6766 21.75 13.3408 21.4142 13.3408 21C13.3408 20.5858 13.6766 20.25 14.0908 20.25H15C15.4361 20.25 15.8345 20.2503 16.2021 20.2471ZM20.0068 18.8652C20.1297 18.4697 20.5497 18.2482 20.9453 18.3711C21.3408 18.494 21.5613 18.914 21.4385 19.3096C21.2783 19.825 21.0308 20.2718 20.6514 20.6514C20.2718 21.0309 19.825 21.2793 19.3096 21.4395C18.9141 21.5621 18.4939 21.3408 18.3711 20.9453C18.2483 20.5499 18.4691 20.1299 18.8643 20.0068C19.1855 19.907 19.4093 19.7723 19.5908 19.5908C19.7722 19.4094 19.9071 19.1862 20.0068 18.8652ZM11 3.75C9.09324 3.75 7.73858 3.75149 6.71094 3.88965C5.70485 4.02491 5.12536 4.27894 4.70215 4.70215C4.27894 5.12536 4.02491 5.70485 3.88965 6.71094C3.75149 7.73858 3.75 9.09324 3.75 11V13C3.75 14.9067 3.7515 16.2614 3.88965 17.2891C4.02491 18.2951 4.27894 18.8747 4.70215 19.2979C5.12536 19.7211 5.70485 19.9752 6.71094 20.1104C7.73858 20.2485 9.09325 20.25 11 20.25H11.25V3.75H11ZM21 12.8867C21.4142 12.8868 21.75 13.2224 21.75 13.6367V15.002C21.75 15.4357 21.7503 15.841 21.7471 16.2158C21.7432 16.6298 21.4043 16.9626 20.9902 16.959C20.576 16.9554 20.2436 16.6163 20.2471 16.2021C20.2503 15.8345 20.25 15.4361 20.25 15V13.6367C20.25 13.2224 20.5858 12.8867 21 12.8867ZM20.9902 7.04102C21.4043 7.03746 21.7432 7.37019 21.7471 7.78418C21.7503 8.15896 21.75 8.5643 21.75 8.99805V10.3633C21.75 10.7775 21.4142 11.1132 21 11.1133C20.5858 11.1133 20.25 10.7775 20.25 10.3633V9C20.25 8.56391 20.2503 8.16551 20.2471 7.79785C20.2436 7.38366 20.576 7.0446 20.9902 7.04102ZM18.3711 3.05469C18.4939 2.65928 18.9141 2.43792 19.3096 2.56055C19.825 2.72073 20.2718 2.96904 20.6514 3.34863C21.0309 3.72822 21.2783 4.17505 21.4385 4.69043C21.5613 5.08591 21.3408 5.506 20.9453 5.62891C20.5497 5.75181 20.1297 5.53031 20.0068 5.13477C19.9071 4.81376 19.7722 4.59059 19.5908 4.40918C19.4093 4.22771 19.1855 4.09298 18.8643 3.99316C18.4691 3.87005 18.2483 3.45005 18.3711 3.05469ZM16.2148 2.25293C16.629 2.25651 16.9626 2.59557 16.959 3.00977C16.9553 3.42392 16.6163 3.7565 16.2021 3.75293C15.8345 3.74976 15.4361 3.75 15 3.75H14.0908C13.6766 3.75 13.3408 3.41421 13.3408 3C13.3408 2.58579 13.6766 2.25 14.0908 2.25H15.002C15.4356 2.25 15.8402 2.2497 16.2148 2.25293Z" fill="#48465C"/>
</svg>
