<svg width="24" height="24" viewBox="0 0 24 24" fill="none" xmlns="http://www.w3.org/2000/svg">
<path d="M9.5 13.25C11.5711 13.25 13.25 14.9289 13.25 17C13.25 19.0711 11.5711 20.75 9.5 20.75C7.42893 20.75 5.75 19.0711 5.75 17C5.75 14.9289 7.42893 13.25 9.5 13.25ZM9.5 14.75C8.25736 14.75 7.25 15.7574 7.25 17C7.25 18.2426 8.25736 19.25 9.5 19.25C10.7426 19.25 11.75 18.2426 11.75 17C11.75 15.7574 10.7426 14.75 9.5 14.75ZM4 16.209C4.41421 16.209 4.75 16.5448 4.75 16.959C4.75 17.3732 4.41421 17.709 4 17.709H2C1.58579 17.709 1.25 17.3732 1.25 16.959C1.25 16.5448 1.58579 16.209 2 16.209H4ZM22 16.209C22.4142 16.209 22.75 16.5448 22.75 16.959C22.75 17.3732 22.4142 17.709 22 17.709H15C14.5858 17.709 14.25 17.3732 14.25 16.959C14.25 16.5448 14.5858 16.209 15 16.209H22ZM14.5 3.25C16.5711 3.25 18.25 4.92893 18.25 7C18.25 9.07107 16.5711 10.75 14.5 10.75C12.4289 10.75 10.75 9.07107 10.75 7C10.75 4.92893 12.4289 3.25 14.5 3.25ZM14.5 4.75C13.2574 4.75 12.25 5.75736 12.25 7C12.25 8.24264 13.2574 9.25 14.5 9.25C15.7426 9.25 16.75 8.24264 16.75 7C16.75 5.75736 15.7426 4.75 14.5 4.75ZM9 6.20898C9.41421 6.20898 9.75 6.54477 9.75 6.95898C9.75 7.37319 9.41421 7.70898 9 7.70898H2C1.58579 7.70898 1.25 7.37319 1.25 6.95898C1.25 6.54477 1.58579 6.20898 2 6.20898H9ZM22 6.20898C22.4142 6.20898 22.75 6.54477 22.75 6.95898C22.75 7.37319 22.4142 7.70898 22 7.70898H20C19.5858 7.70898 19.25 7.37319 19.25 6.95898C19.25 6.54477 19.5858 6.20898 20 6.20898H22Z" fill="#48465C"/>
</svg>
