<svg width="24" height="24" viewBox="0 0 24 24" fill="none" xmlns="http://www.w3.org/2000/svg">
<path d="M12 1.25C12.4142 1.25 12.75 1.58579 12.75 2V3.00293H14.5C15.1483 3.00766 15.7286 3.01873 16.25 3.0459V20.9531C15.7286 20.9803 15.1483 20.9913 14.5 20.9961H12.75V22C12.75 22.4142 12.4142 22.75 12 22.75C11.5858 22.75 11.25 22.4142 11.25 22V20.9961H9.5C8.85171 20.9913 8.2714 20.9803 7.75 20.9531V3.0459C8.2714 3.01873 8.85172 3.00766 9.5 3.00293H11.25V2C11.25 1.58579 11.5858 1.25 12 1.25ZM12 19.583C11.5859 19.583 11.2502 19.9189 11.25 20.333V20.9961H12.75V20.333C12.7498 19.9189 12.4141 19.583 12 19.583ZM6.25 20.7969C5.34944 20.6359 4.69069 20.3468 4.17188 19.8281C3.40038 19.0566 3.13685 17.9753 3.04688 16.25H6.25V20.7969ZM20.9531 16.25C20.8632 17.9753 20.5996 19.0566 19.8281 19.8281C19.3094 20.3468 18.6506 20.6359 17.75 20.7969V16.25H20.9531ZM12 12.917C11.5858 12.917 11.25 13.2528 11.25 13.667V17C11.25 17.4142 11.5858 17.75 12 17.75C12.4142 17.75 12.75 17.4142 12.75 17V13.667C12.75 13.2528 12.4142 12.917 12 12.917ZM6.25 9.25V14.75H3.00586C3.00026 14.2163 3 13.6341 3 12.999V10.999C3 10.3645 3.00027 9.78336 3.00586 9.25H6.25ZM20.9941 9.25C20.9997 9.78336 21 10.3645 21 10.999V12.999C21 13.6341 20.9997 14.2163 20.9941 14.75H17.75V9.25H20.9941ZM12 6.25C11.5858 6.25 11.25 6.58579 11.25 7V10.333C11.25 10.7472 11.5858 11.083 12 11.083C12.4142 11.083 12.75 10.7472 12.75 10.333V7C12.75 6.58579 12.4142 6.25 12 6.25ZM6.25 7.75H3.04688C3.1368 6.02415 3.40025 4.94253 4.17188 4.1709C4.69068 3.65221 5.34946 3.36317 6.25 3.20215V7.75ZM17.75 3.20215C18.6506 3.36317 19.3094 3.6522 19.8281 4.1709C20.5998 4.94253 20.8632 6.02415 20.9531 7.75H17.75V3.20215ZM11.25 3.00293V3.66699C11.2502 4.08105 11.5859 4.41699 12 4.41699C12.4141 4.41699 12.7498 4.08105 12.75 3.66699V3.00293H11.25Z" fill="#1C274C"/>
</svg>
