<svg width="24" height="24" viewBox="0 0 24 24" fill="none" xmlns="http://www.w3.org/2000/svg">
<path d="M15.8096 11.25C17.9117 11.25 19.7144 12.6542 20.166 14.5879C21.6764 15.2616 22.75 16.7329 22.75 18.4707C22.7499 20.8696 20.7149 22.7498 18.2861 22.75H11.7861C9.86997 22.75 8.25 21.2643 8.25 19.3525C8.25019 17.5811 9.64136 16.176 11.3701 15.9795C11.3539 15.8315 11.3447 15.6812 11.3447 15.5293C11.3448 13.1302 13.3806 11.25 15.8096 11.25ZM15.8096 12.75C14.136 12.75 12.8448 14.0299 12.8447 15.5293C12.8447 15.7369 12.8693 15.9388 12.915 16.1328C13.2072 16.2273 13.4833 16.3577 13.7363 16.5186C14.0857 16.7409 14.1881 17.2052 13.9658 17.5547C13.7434 17.9038 13.28 18.0064 12.9307 17.7842C12.711 17.6445 12.4593 17.5438 12.1875 17.4932C12.0583 17.4691 11.9243 17.4561 11.7861 17.4561C10.6255 17.4561 9.75021 18.3406 9.75 19.3525C9.75 20.3646 10.6253 21.25 11.7861 21.25H18.2861C19.9596 21.2498 21.2499 19.9699 21.25 18.4707C21.25 17.2797 20.443 16.2335 19.2666 15.8467C18.961 15.7462 18.6313 15.6915 18.2861 15.6914C17.9339 15.6914 17.597 15.7481 17.2861 15.8525C16.8935 15.9844 16.4689 15.7734 16.3369 15.3809C16.2051 14.9882 16.416 14.5626 16.8086 14.4307C17.2722 14.275 17.7701 14.1914 18.2861 14.1914C18.3269 14.1914 18.3677 14.1913 18.4082 14.1924C17.9095 13.3427 16.9462 12.75 15.8096 12.75ZM12.4766 1.25C15.6345 1.25017 18.2721 3.49421 18.8311 6.47168C21.1308 7.44788 22.7499 9.70908 22.75 12.3525C22.75 12.7668 22.4142 13.1025 22 13.1025C21.5858 13.1025 21.25 12.7668 21.25 12.3525C21.2498 10.216 19.8603 8.39081 17.9121 7.72461C17.4037 7.5508 16.857 7.4561 16.2861 7.45605C15.7035 7.45605 15.1451 7.55467 14.6279 7.73535C14.2369 7.87169 13.8094 7.66533 13.6729 7.27441C13.5363 6.8834 13.7428 6.45591 14.1338 6.31934C14.8081 6.08384 15.5331 5.95605 16.2861 5.95605C16.5813 5.95607 16.8721 5.97561 17.1572 6.01367C16.4765 4.1165 14.6423 2.75015 12.4766 2.75C9.72646 2.75 7.51172 4.95123 7.51172 7.64746C7.51176 8.10948 7.57661 8.55602 7.69727 8.97852C8.19435 9.12198 8.65962 9.33908 9.08008 9.61719C9.42554 9.84571 9.52051 10.3108 9.29199 10.6562C9.06348 11.0017 8.59839 11.0967 8.25293 10.8682C7.87219 10.6163 7.43941 10.4351 6.97363 10.3447C6.75194 10.3018 6.52192 10.2793 6.28613 10.2793C4.32504 10.2793 2.75003 11.8482 2.75 13.7646C2.75 15.6811 4.32502 17.25 6.28613 17.25C6.70016 17.2502 7.03613 17.5859 7.03613 18C7.03613 18.4141 6.70016 18.7498 6.28613 18.75C3.51338 18.75 1.25 16.5263 1.25 13.7646C1.25003 11.0605 3.41976 8.87213 6.11328 8.78223C6.04654 8.41365 6.01174 8.03436 6.01172 7.64746C6.01172 4.10612 8.91482 1.25 12.4766 1.25Z" fill="#48465C"/>
</svg>
