<svg width="24" height="24" viewBox="0 0 24 24" fill="none" xmlns="http://www.w3.org/2000/svg">
<path d="M18 14.25C20.0711 14.25 21.75 15.9289 21.75 18C21.75 18.7643 21.5215 19.4756 21.1289 20.0684L22.5303 21.4697C22.8232 21.7626 22.8232 22.2374 22.5303 22.5303C22.2374 22.8232 21.7626 22.8232 21.4697 22.5303L20.0684 21.1289C19.4756 21.5215 18.7643 21.75 18 21.75C15.9289 21.75 14.25 20.0711 14.25 18C14.25 15.9289 15.9289 14.25 18 14.25ZM21.9873 9.75C22.0002 10.4153 22 11.161 22 12V14.5996C21.037 13.4681 19.6022 12.75 18 12.75C15.1005 12.75 12.75 15.1005 12.75 18C12.75 19.6022 13.4681 21.037 14.5996 22H10C6.22878 22 4.34346 21.9997 3.17188 20.8281C2.00031 19.6566 2 17.7712 2 14V12C2 11.161 1.9998 10.4153 2.0127 9.75H21.9873ZM18 15.75C16.7574 15.75 15.75 16.7574 15.75 18C15.75 19.2426 16.7574 20.25 18 20.25C19.2426 20.25 20.25 19.2426 20.25 18C20.25 16.7574 19.2426 15.75 18 15.75ZM17 1.75C17.4142 1.75002 17.75 2.0858 17.75 2.5V4.0791C19.1893 4.19435 20.1339 4.47768 20.8281 5.17188C21.5223 5.86607 21.8057 6.81069 21.9209 8.25H2.0791C2.19435 6.81067 2.47768 5.86608 3.17188 5.17188C3.86607 4.47769 4.81068 4.19435 6.25 4.0791V2.5C6.25 2.08579 6.58579 1.75 7 1.75C7.41419 1.75002 7.75 2.0858 7.75 2.5V4.0127C8.41526 3.9998 9.16099 4 10 4H14C14.839 4 15.5847 3.9998 16.25 4.0127V2.5C16.25 2.08579 16.5858 1.75 17 1.75Z" fill="#48465C"/>
</svg>
