<svg width="24" height="24" viewBox="0 0 24 24" fill="none" xmlns="http://www.w3.org/2000/svg">
<path d="M18.9999 14.25C19.4141 14.25 19.7499 14.5858 19.7499 15V21.25H20.9999C21.4141 21.25 21.7499 21.5858 21.7499 22C21.7499 22.4142 21.4141 22.75 20.9999 22.75H2.99988C2.58572 22.7499 2.24988 22.4142 2.24988 22C2.24988 21.5858 2.58572 21.2501 2.99988 21.25H4.24988V15C4.24988 14.5858 4.58572 14.2501 4.99988 14.25C5.41409 14.25 5.74988 14.5858 5.74988 15V21.25H18.2499V15C18.2499 14.5858 18.5857 14.2501 18.9999 14.25ZM16.5643 1.25C17.1342 1.24998 17.6185 1.24967 18.0184 1.29102C18.4442 1.33504 18.838 1.43136 19.2098 1.66113C19.5814 1.89087 19.8434 2.19952 20.0731 2.56055C20.2889 2.89975 20.5048 3.33298 20.7596 3.84277L20.7762 3.87598C20.7859 3.89536 20.7946 3.91539 20.8026 3.93555L22.2069 7.4834C22.3739 7.90556 22.5591 8.43276 22.6132 8.97168C22.6685 9.52288 22.5919 10.1545 22.16 10.7021C21.6577 11.339 20.8765 11.75 19.9999 11.75C19.2119 11.75 18.5013 11.4187 17.9999 10.8877C17.4985 11.4187 16.7878 11.75 15.9999 11.75C15.2119 11.75 14.5013 11.4187 13.9999 10.8877C13.4985 11.4187 12.7878 11.75 11.9999 11.75C11.2119 11.75 10.5013 11.4187 9.99988 10.8877C9.49849 11.4187 8.78784 11.75 7.99988 11.75C7.21192 11.75 6.50125 11.4187 5.99988 10.8877C5.49849 11.4187 4.78784 11.75 3.99988 11.75C3.12322 11.75 2.34205 11.3391 1.83972 10.7021C1.40786 10.1545 1.33228 9.52289 1.38757 8.97168C1.44169 8.4327 1.62681 7.90559 1.79382 7.4834L3.19714 3.93555C3.20511 3.9154 3.21382 3.89535 3.22351 3.87598L3.24011 3.84277C3.495 3.33297 3.71177 2.89976 3.92761 2.56055C4.15726 2.19971 4.41852 1.89078 4.78992 1.66113C5.16168 1.43137 5.55552 1.33504 5.98132 1.29102C6.38124 1.24967 6.86545 1.24998 7.43542 1.25H16.5643ZM7.47253 2.75C6.85572 2.75 6.44933 2.75077 6.13562 2.7832C5.83935 2.81384 5.6905 2.86764 5.57898 2.93652C5.46745 3.00545 5.35224 3.11479 5.19226 3.36621C5.02601 3.62755 4.84758 3.98241 4.57996 4.51758L3.18835 8.03516C3.03109 8.4327 2.91212 8.79899 2.87976 9.12109C2.84865 9.43089 2.90353 9.62898 3.01746 9.77344C3.24757 10.0652 3.60201 10.25 3.99988 10.25C4.69024 10.25 5.24988 9.69036 5.24988 9C5.24988 8.58579 5.58567 8.25 5.99988 8.25C6.4141 8.25 6.74988 8.58579 6.74988 9C6.74988 9.69036 7.30953 10.25 7.99988 10.25C8.69024 10.25 9.24988 9.69036 9.24988 9C9.24988 8.58579 9.58567 8.25 9.99988 8.25C10.4141 8.25 10.7499 8.58579 10.7499 9C10.7499 9.69036 11.3095 10.25 11.9999 10.25C12.6902 10.25 13.2499 9.69036 13.2499 9C13.2499 8.58579 13.5857 8.25 13.9999 8.25C14.4141 8.25 14.7499 8.58579 14.7499 9C14.7499 9.69036 15.3095 10.25 15.9999 10.25C16.6902 10.25 17.2499 9.69036 17.2499 9C17.2499 8.58579 17.5857 8.25 17.9999 8.25C18.4141 8.25 18.7499 8.58579 18.7499 9C18.7499 9.69036 19.3095 10.25 19.9999 10.25C20.3978 10.25 20.7521 10.0652 20.9823 9.77344C21.0962 9.62898 21.1511 9.43089 21.12 9.12109C21.0877 8.799 20.9686 8.4327 20.8114 8.03516L19.4198 4.51758C19.1521 3.9824 18.9738 3.62756 18.8075 3.36621C18.6476 3.11479 18.5323 3.00545 18.4208 2.93652C18.3093 2.86766 18.1603 2.81383 17.8641 2.7832C17.5505 2.75079 17.1447 2.75 16.5282 2.75H7.47253Z" fill="#1C274C"/>
</svg>
