<svg width="24" height="24" viewBox="0 0 24 24" fill="none" xmlns="http://www.w3.org/2000/svg">
<path d="M18.5 13.25C20.7953 13.25 22.7497 14.9941 22.75 17.2568C22.75 19.2831 21.504 21.6753 19.4346 22.5596C18.8401 22.8135 18.1599 22.8135 17.5654 22.5596C15.496 21.6753 14.25 19.2831 14.25 17.2568C14.2503 14.9941 16.2047 13.25 18.5 13.25ZM16.1318 4.25C18.883 4.25 19.9295 7.84324 17.6084 9.32031L7.19727 15.9453C6.14221 16.6167 6.6176 18.25 7.86816 18.25H10.1895L9.96973 18.0303C9.67684 17.7374 9.67684 17.2626 9.96973 16.9697C10.2627 16.6768 10.7374 16.6768 11.0303 16.9697L12.5303 18.4697C12.8232 18.7626 12.8232 19.2374 12.5303 19.5303L11.0303 21.0303C10.7374 21.3232 10.2627 21.3232 9.96973 21.0303C9.67684 20.7374 9.67684 20.2626 9.96973 19.9697L10.1895 19.75H7.86816C5.11692 19.75 4.0705 16.1568 6.3916 14.6797L16.8027 8.05469C17.8577 7.38329 17.3823 5.75 16.1318 5.75H12C11.5858 5.75 11.25 5.41421 11.25 5C11.25 4.58579 11.5858 4.25 12 4.25H16.1318ZM18.5 14.75C16.9297 14.75 15.7503 15.9221 15.75 17.2568C15.75 18.8002 16.7383 20.5742 18.1543 21.1797C18.3723 21.2729 18.6277 21.2729 18.8457 21.1797C20.2618 20.5742 21.25 18.8002 21.25 17.2568C21.2497 15.9221 20.0703 14.75 18.5 14.75ZM18.5 16.5C19.0523 16.5 19.5 16.9477 19.5 17.5C19.5 18.0523 19.0523 18.5 18.5 18.5C17.9477 18.5 17.5 18.0523 17.5 17.5C17.5 16.9477 17.9477 16.5 18.5 16.5ZM5.5 1.25C7.79538 1.25 9.74972 2.99404 9.75 5.25684C9.75 7.28311 8.504 9.67525 6.43457 10.5596C5.84015 10.8135 5.15985 10.8135 4.56543 10.5596C2.496 9.67525 1.25 7.28311 1.25 5.25684C1.25028 2.99404 3.20462 1.25 5.5 1.25ZM5.5 2.75C3.92974 2.75 2.75029 3.92213 2.75 5.25684C2.75 6.80012 3.73822 8.57423 5.1543 9.17969C5.37235 9.27288 5.62765 9.27288 5.8457 9.17969C7.26178 8.57423 8.25 6.80012 8.25 5.25684C8.24971 3.92213 7.07026 2.75 5.5 2.75ZM5.5 4.5C6.05228 4.5 6.5 4.94772 6.5 5.5C6.5 6.05228 6.05228 6.5 5.5 6.5C4.94772 6.5 4.5 6.05228 4.5 5.5C4.5 4.94772 4.94772 4.5 5.5 4.5Z" fill="#1C274C"/>
</svg>
