<svg width="24" height="24" viewBox="0 0 24 24" fill="none" xmlns="http://www.w3.org/2000/svg">
<path d="M12 2C13.1079 2 14.1108 2.62261 16.1162 3.86719L18.1162 5.1084C20.0128 6.28546 20.9612 6.87408 21.4805 7.82227C21.9997 8.77081 22 9.91569 22 12.2041V13.7246C22 17.6254 21.9997 19.5763 20.8281 20.7881C19.6566 21.9999 17.7711 22 14 22H10C6.22891 22 4.34347 21.9998 3.17188 20.7881C2.00031 19.5763 2 17.6254 2 13.7246V12.2041C2 9.91569 2.00033 8.77081 2.51953 7.82227C3.03876 6.87408 3.98724 6.28545 5.88379 5.1084L7.88379 3.86719C9.88915 2.62261 10.8921 2 12 2ZM15.6025 15.5537C15.356 15.221 14.8865 15.151 14.5537 15.3975C13.8253 15.9373 12.9459 16.25 12 16.25C11.0541 16.25 10.1747 15.9373 9.44629 15.3975C9.11354 15.151 8.64407 15.221 8.39746 15.5537C8.15099 15.8865 8.22101 16.356 8.55371 16.6025C9.52608 17.3232 10.7151 17.75 12 17.75C13.2849 17.75 14.4739 17.3232 15.4463 16.6025C15.779 16.356 15.849 15.8865 15.6025 15.5537Z" fill="#48465C"/>
</svg>
