<svg width="24" height="24" viewBox="0 0 24 24" fill="none" xmlns="http://www.w3.org/2000/svg">
<path d="M12.0547 1.25C13.4222 1.24998 14.5246 1.24968 15.3916 1.36621C16.2917 1.48723 17.0494 1.74673 17.6514 2.34863C18.2533 2.95055 18.5128 3.70829 18.6338 4.6084C18.7503 5.47534 18.75 6.57782 18.75 7.94531V16.0547C18.75 17.4222 18.7503 18.5246 18.6338 19.3916C18.5128 20.2917 18.2533 21.0494 17.6514 21.6514C17.0494 22.2533 16.2917 22.5128 15.3916 22.6338C14.5246 22.7503 13.4222 22.75 12.0547 22.75H11.9453C10.5778 22.75 9.47534 22.7503 8.6084 22.6338C7.70829 22.5128 6.95055 22.2533 6.34863 21.6514C5.74673 21.0494 5.48723 20.2917 5.36621 19.3916C5.24968 18.5246 5.24998 17.4222 5.25 16.0547V7.94531C5.24998 6.57782 5.24968 5.47534 5.36621 4.6084C5.48723 3.70829 5.74671 2.95055 6.34863 2.34863C6.95055 1.74671 7.70829 1.48723 8.6084 1.36621C9.47533 1.24968 10.5778 1.24998 11.9453 1.25H12.0547ZM12 2.75C10.5649 2.75 9.5639 2.75201 8.80859 2.85352C8.07482 2.95217 7.68594 3.13242 7.40918 3.40918C7.13242 3.68594 6.95217 4.07482 6.85352 4.80859C6.75201 5.5639 6.75 6.56485 6.75 8V16C6.75 17.4354 6.75196 18.437 6.85352 19.1924C6.95218 19.9258 7.13249 20.3141 7.40918 20.5908C7.68594 20.8676 8.07482 21.0478 8.80859 21.1465C9.5639 21.2479 10.5649 21.25 12 21.25C13.4354 21.25 14.437 21.248 15.1924 21.1465C15.9258 21.0478 16.3141 20.8676 16.5908 20.5908C16.8676 20.3141 17.0478 19.9258 17.1465 19.1924C17.248 18.437 17.25 17.4354 17.25 16V8C17.25 6.56485 17.2479 5.5639 17.1465 4.80859C17.0478 4.07482 16.8676 3.68594 16.5908 3.40918C16.3141 3.13249 15.9258 2.95218 15.1924 2.85352C14.437 2.75196 13.4354 2.75 12 2.75ZM3 3.75C3.41421 3.75 3.75 4.08579 3.75 4.5V19.5C3.75 19.9142 3.41421 20.25 3 20.25C2.58579 20.25 2.25 19.9142 2.25 19.5V4.5C2.25 4.08579 2.58579 3.75 3 3.75ZM21 3.75C21.4142 3.75 21.75 4.08579 21.75 4.5V19.5C21.75 19.9142 21.4142 20.25 21 20.25C20.5858 20.25 20.25 19.9142 20.25 19.5V4.5C20.25 4.08579 20.5858 3.75 21 3.75Z" fill="#1C274C"/>
</svg>
