<svg width="24" height="24" viewBox="0 0 24 24" fill="none" xmlns="http://www.w3.org/2000/svg">
<path d="M9.70703 2.40857C10.4142 1.78162 11.4954 1.96999 13.6572 2.34705L15.9863 2.7533C18.3808 3.17093 19.5781 3.37993 20.2891 4.25818C20.9999 5.13639 21 6.40653 21 8.94666V15.0531C21 17.5933 20.9999 18.8634 20.2891 19.7416C19.5781 20.6199 18.3808 20.8288 15.9863 21.2465L13.6572 21.6527C11.4954 22.0298 10.4142 22.2181 9.70703 21.5912C8.99996 20.9642 9 19.8173 9 17.5238V6.47595C9 4.18249 8.99991 3.03554 9.70703 2.40857ZM7.54688 4.50037C7.49959 5.12351 7.49991 5.84388 7.5 6.62244V17.3763C7.49991 18.1552 7.49957 18.8761 7.54688 19.4994C5.48909 19.4964 4.41616 19.4513 3.73242 18.7679C3.00019 18.0356 3 16.8564 3 14.4994V9.49939C3 7.14259 3.00023 5.96401 3.73242 5.23181C4.41616 4.54825 5.48896 4.50337 7.54688 4.50037ZM12 10.1683C11.5858 10.1683 11.25 10.52 11.25 10.9535V13.0463C11.25 13.4798 11.5858 13.8314 12 13.8314C12.4142 13.8314 12.75 13.4798 12.75 13.0463V10.9535C12.75 10.52 12.4142 10.1683 12 10.1683Z" fill="#1C274C"/>
</svg>
