<svg width="24" height="24" viewBox="0 0 24 24" fill="none" xmlns="http://www.w3.org/2000/svg">
<path d="M12.0576 1.25C14.3657 1.24999 16.1745 1.24973 17.5859 1.43945C19.0306 1.63369 20.1706 2.03976 21.0654 2.93457C21.9602 3.82938 22.3662 4.96934 22.5605 6.41406C22.7502 7.82544 22.75 9.63433 22.75 11.9424V12.0576C22.75 14.3657 22.7502 16.1745 22.5605 17.5859C22.3663 19.0306 21.9602 20.1706 21.0654 21.0654C20.2371 21.8938 19.198 22.3035 17.8994 22.5137C16.6226 22.7204 15.0161 22.7454 13.001 22.749C12.5869 22.7496 12.2509 22.415 12.25 22.001C12.2493 21.5868 12.5847 21.2498 12.999 21.249C15.0385 21.2453 16.5213 21.2173 17.6592 21.0332C18.7752 20.8525 19.4763 20.5335 20.0049 20.0049C20.5745 19.4352 20.9014 18.6649 21.0732 17.3867C21.248 16.0867 21.25 14.3782 21.25 12C21.25 9.62178 21.248 7.91326 21.0732 6.61328C20.9014 5.3351 20.5745 4.56471 20.0049 3.99512C19.4354 3.42553 18.6648 3.09865 17.3867 2.92676C16.0868 2.75198 14.3781 2.75 12 2.75C9.62179 2.75 7.91326 2.75198 6.61328 2.92676C5.33507 3.09864 4.56472 3.42552 3.99512 3.99512C3.46657 4.52365 3.14746 5.22408 2.9668 6.33984C2.78261 7.47772 2.75465 8.96123 2.75098 11.001C2.75023 11.4152 2.41323 11.7507 1.99902 11.75C1.58501 11.7492 1.25047 11.4131 1.25098 10.999C1.25461 8.98392 1.27967 7.37737 1.48633 6.10059C1.69652 4.80217 2.10549 3.76289 2.93359 2.93457C3.8284 2.03976 4.96932 1.63369 6.41406 1.43945C7.82545 1.24975 9.63434 1.24999 11.9424 1.25H12.0576ZM11 12.25C11.4142 12.25 11.75 12.5858 11.75 13V19C11.75 19.4142 11.4142 19.75 11 19.75C10.5858 19.75 10.25 19.4142 10.25 19V14.8105L3.53027 21.5303C3.23739 21.8232 2.76261 21.8232 2.46973 21.5303C2.17684 21.2374 2.17684 20.7626 2.46973 20.4697L9.18945 13.75H5C4.58579 13.75 4.25 13.4142 4.25 13C4.25 12.5858 4.58579 12.25 5 12.25H11Z" fill="#1C274C"/>
</svg>
