<svg width="24" height="24" viewBox="0 0 24 24" fill="none" xmlns="http://www.w3.org/2000/svg">
<path d="M6 2C7.39997 2 8.10001 2.00007 8.63477 2.27246C9.10517 2.51215 9.48785 2.89483 9.72754 3.36523C9.99993 3.89999 10 4.60003 10 6V18C10 19.3999 9.99992 20.1 9.72754 20.6348C9.48785 21.1052 9.10517 21.4878 8.63477 21.7275C8.10001 21.9999 7.39997 22 6 22C4.60003 22 3.89999 21.9999 3.36523 21.7275C2.89483 21.4878 2.51215 21.1052 2.27246 20.6348C2.00008 20.1 2 19.3999 2 18V6C2 4.60003 2.00007 3.89999 2.27246 3.36523C2.51215 2.89483 2.89483 2.51215 3.36523 2.27246C3.89999 2.00007 4.60003 2 6 2ZM17.8994 14C19.2993 14 19.9994 14.0001 20.5342 14.2725C21.0046 14.5122 21.3873 14.8948 21.627 15.3652C21.8993 15.9 21.8994 16.6001 21.8994 18C21.8994 19.3999 21.8993 20.1 21.627 20.6348C21.3873 21.1052 21.0046 21.4878 20.5342 21.7275C19.9994 21.9999 19.2993 22 17.8994 22H12.79C12.0779 22 11.5002 21.3938 11.5 20.6816C11.5 20.3394 11.6359 20.0398 11.8779 19.7979L17.6797 14H17.8994ZM5 18.25C4.58579 18.25 4.25 18.5858 4.25 19C4.25 19.4142 4.58579 19.75 5 19.75H7C7.41421 19.75 7.75 19.4142 7.75 19C7.75 18.5858 7.41421 18.25 7 18.25H5ZM15.7676 3.36035C16.2176 3.26337 16.6856 3.29233 17.1201 3.44434C17.6481 3.62917 18.0988 4.07273 19 4.95898C19.9993 5.95828 20.4992 6.45809 20.6846 7.03027C20.8426 7.51841 20.8469 8.04368 20.6963 8.53418C20.5198 9.10932 20.0329 9.61087 19.0596 10.6143L13.2217 16.7041C12.4919 17.4653 12.1271 17.8457 11.8135 17.7197C11.5001 17.5936 11.5 17.0663 11.5 16.0117V7.77344C11.5013 7.11361 11.7638 6.48107 12.2295 6.01367L13.2842 4.95898L13.7139 4.62988C14.7181 3.86213 15.2207 3.4783 15.7676 3.36035Z" fill="#48465C"/>
</svg>
