<svg width="24" height="24" viewBox="0 0 24 24" fill="none" xmlns="http://www.w3.org/2000/svg">
<path d="M12 1.25C12.6081 1.25 13.2157 1.3826 13.7803 1.64648C15.9553 2.66314 17.6948 4.56659 18.8848 6.75781C20.0763 8.95168 20.75 11.4914 20.75 13.8564C20.75 18.7554 16.845 22.75 12 22.75C7.15501 22.75 3.25 18.7554 3.25 13.8564C3.25005 11.4914 3.92375 8.95168 5.11523 6.75781C6.30529 4.5666 8.04464 2.66314 10.2197 1.64648C10.7843 1.3826 11.3919 1.25 12 1.25ZM11.25 2.85645C11.1157 2.89531 10.9834 2.94467 10.8545 3.00488C9.04601 3.85021 7.51612 5.48049 6.43359 7.47363C5.35257 9.46412 4.75005 11.7594 4.75 13.8564C4.75 17.6924 7.60821 20.8286 11.25 21.2109V2.85645ZM12.75 19.8105V21.2109C16.3918 20.8286 19.25 17.6924 19.25 13.8564C19.25 13.68 19.2457 13.5022 19.2373 13.3232L12.75 19.8105ZM12.75 14.8105V17.6895L18.9697 11.4697L19.0176 11.5176C18.867 10.7404 18.6448 9.96132 18.3574 9.20312L12.75 14.8105ZM12.75 9.31055V12.6895L17.7041 7.73535C17.659 7.64782 17.6133 7.56005 17.5664 7.47363C17.2176 6.83148 16.8218 6.2275 16.3857 5.6748L12.75 9.31055ZM12.75 7.18945L15.3779 4.56152C14.6987 3.91226 13.9497 3.3808 13.1455 3.00488C13.0166 2.94467 12.8843 2.89531 12.75 2.85645V7.18945Z" fill="#48465C"/>
</svg>
