<svg width="24" height="24" viewBox="0 0 24 24" fill="none" xmlns="http://www.w3.org/2000/svg">
<path d="M11.9999 4C12.5413 4 13.0345 4.29284 14.0204 4.87891L16.9794 6.6377C17.6849 7.05702 18.1375 7.32696 18.4374 7.62305L21.5644 5.38965C21.9015 5.14914 22.3696 5.22749 22.6103 5.56445C22.8508 5.90149 22.7724 6.36965 22.4355 6.61035L18.9824 9.07715C19.0002 9.39093 18.9999 9.76843 18.9999 10.2412V13.7588C18.9999 14.931 19.0002 15.5172 18.7294 16C18.4587 16.4828 17.9656 16.7761 16.9794 17.3623L14.0204 19.1211C13.0345 19.7072 12.5413 20 11.9999 20C11.4585 20 10.9653 19.7071 9.97943 19.1211L7.02045 17.3623C6.38465 16.9843 5.95364 16.7276 5.65521 16.4639L2.41595 18.624C2.07132 18.8538 1.60567 18.7607 1.37592 18.416C1.14616 18.0714 1.23928 17.6057 1.58392 17.376L5.02826 15.0791C4.99968 14.736 4.99994 14.3129 4.99994 13.7588V10.2412C4.99994 9.68718 4.99968 9.26405 5.02826 8.9209L1.58392 6.62402C1.2393 6.39425 1.14617 5.92863 1.37592 5.58398C1.60567 5.23935 2.07132 5.14622 2.41595 5.37598L5.65521 7.53613C5.95364 7.27247 6.38465 7.01563 7.02045 6.6377L9.97943 4.87891C10.9653 4.29285 11.4585 4.00002 11.9999 4ZM16.6445 14.1162C16.4324 13.7605 15.9719 13.6436 15.6161 13.8555L11.6161 16.2402C11.2606 16.4523 11.1437 16.9119 11.3554 17.2676C11.5675 17.6234 12.0279 17.7403 12.3837 17.5283L16.3837 15.1445C16.7394 14.9326 16.8563 14.472 16.6445 14.1162Z" fill="#1C274C"/>
</svg>
