<svg width="24" height="24" viewBox="0 0 24 24" fill="none" xmlns="http://www.w3.org/2000/svg">
<path d="M10.1637 15.5139C10.3965 15.4581 10.6368 15.5753 10.736 15.7932L10.735 15.7942L10.736 15.7952C10.7368 15.797 10.7389 15.7999 10.7408 15.804C10.7448 15.8125 10.751 15.8257 10.7594 15.843C10.7764 15.8781 10.8023 15.9302 10.8356 15.9944C10.9025 16.1234 10.999 16.3001 11.1178 16.4895C11.368 16.8883 11.6703 17.2691 11.9547 17.4436C12.239 17.6178 12.7146 17.7149 13.1832 17.7571C13.4056 17.7771 13.6073 17.7833 13.7526 17.7844C13.8247 17.785 13.8834 17.7842 13.9225 17.7834C13.9416 17.7831 13.957 17.7818 13.9664 17.7815H13.9781C14.2172 17.7712 14.4301 17.9317 14.486 18.1643C14.5417 18.3971 14.4246 18.6375 14.2067 18.7366V18.7356L14.2047 18.7366C14.2029 18.7375 14.1997 18.7397 14.1959 18.7415C14.1874 18.7455 14.1739 18.7518 14.1569 18.76C14.1217 18.777 14.0694 18.803 14.0055 18.8362C13.8765 18.9031 13.6995 18.9997 13.5104 19.1184C13.1116 19.3686 12.7307 19.671 12.5563 19.9553C12.3822 20.2398 12.285 20.7153 12.2428 21.1838C12.2228 21.4063 12.2166 21.6079 12.2155 21.7532C12.2149 21.8255 12.2156 21.8841 12.2164 21.9231C12.2168 21.9424 12.2181 21.9577 12.2184 21.967V21.9788C12.2285 22.2177 12.0681 22.4307 11.8356 22.4866C11.6029 22.5421 11.3624 22.425 11.2633 22.2073V22.2053C11.2625 22.2035 11.2603 22.2006 11.2584 22.1965C11.2544 22.188 11.2482 22.1748 11.2399 22.1575C11.2229 22.1223 11.197 22.0703 11.1637 22.0061C11.0968 21.8771 11.0003 21.7004 10.8815 21.511C10.6312 21.1121 10.329 20.7314 10.0446 20.5569C9.76014 20.3827 9.28465 20.2856 8.81604 20.2434C8.59361 20.2234 8.39194 20.2172 8.2467 20.2161C8.17448 20.2155 8.11576 20.2162 8.07678 20.217C8.05759 20.2174 8.04218 20.2187 8.03284 20.219H8.02112C7.78233 20.2291 7.56917 20.0686 7.51331 19.8362C7.45753 19.6035 7.57495 19.3632 7.7926 19.2639V19.2649L7.79456 19.2639C7.79633 19.2631 7.79946 19.2609 7.80334 19.259C7.81179 19.2551 7.82529 19.2487 7.84241 19.2405C7.87746 19.2235 7.92981 19.1975 7.99377 19.1643C8.12267 19.0975 8.29968 19.0008 8.48889 18.8821C8.88762 18.6319 9.26845 18.3295 9.44299 18.0452C9.61722 17.7608 9.71424 17.2853 9.75647 16.8167C9.77649 16.5942 9.78266 16.3926 9.78381 16.2473C9.78438 16.1751 9.78364 16.1164 9.78284 16.0774C9.78244 16.0582 9.7812 16.0429 9.78088 16.0334V16.0217C9.77061 15.7829 9.9313 15.5699 10.1637 15.5139ZM10.6559 17.5696C10.5857 17.9147 10.475 18.2743 10.2946 18.5686C10.114 18.8626 9.84454 19.1241 9.56897 19.343C9.91416 19.4132 10.2736 19.5239 10.568 19.7043C10.8621 19.8848 11.1234 20.1543 11.3424 20.4299C11.4126 20.0851 11.5235 19.726 11.7037 19.4319C11.8842 19.1377 12.1537 18.8755 12.4293 18.6565C12.0845 18.5863 11.7253 18.4764 11.4313 18.2961C11.1368 18.1155 10.875 17.8455 10.6559 17.5696ZM18.5953 14.5139C18.7991 14.5628 18.9483 14.732 18.9752 14.9338L18.9791 15.0217V15.0227C18.979 15.0239 18.9782 15.0262 18.9781 15.0286C18.978 15.0342 18.9784 15.0433 18.9781 15.0549C18.9776 15.0795 18.9768 15.117 18.9772 15.1633C18.9779 15.2569 18.9819 15.3868 18.9948 15.5295C19.0226 15.8386 19.0847 16.1222 19.1793 16.2766C19.274 16.431 19.4993 16.6155 19.7623 16.7805C19.8835 16.8565 19.9968 16.9191 20.0797 16.9622C20.1206 16.9834 20.1542 16.9993 20.1764 17.01C20.187 17.0151 20.1956 17.0193 20.2008 17.0217C20.2032 17.0228 20.2056 17.0241 20.2067 17.0247L20.2838 17.0676C20.4514 17.183 20.5346 17.3923 20.486 17.5959C20.437 17.7995 20.2677 17.9489 20.066 17.9758L19.9781 17.9797H19.9772C19.976 17.9796 19.9736 17.9788 19.9713 17.9788C19.9657 17.9786 19.9565 17.979 19.9449 17.9788C19.9203 17.9783 19.8828 17.9774 19.8365 17.9778C19.743 17.9785 19.613 17.9825 19.4703 17.9954C19.1614 18.0232 18.8776 18.0853 18.7233 18.1799C18.5689 18.2748 18.3843 18.5001 18.2194 18.7629C18.1434 18.8841 18.0807 18.9974 18.0377 19.0803C18.0165 19.1212 18.0006 19.1549 17.9899 19.177C17.9847 19.1876 17.9805 19.1963 17.9781 19.2014C17.977 19.2038 17.9756 19.2064 17.9752 19.2073L17.9323 19.2844C17.8168 19.4517 17.6074 19.5352 17.4039 19.4866C17.1715 19.4307 17.01 19.2176 17.0201 18.9788V18.9778C17.0202 18.9767 17.021 18.9743 17.0211 18.9719C17.0213 18.9663 17.0209 18.9572 17.0211 18.9456C17.0216 18.921 17.0225 18.8835 17.0221 18.8372C17.0214 18.7436 17.0174 18.6137 17.0045 18.4709C16.9767 18.1618 16.9146 17.8783 16.8199 17.7239C16.7252 17.5694 16.5 17.385 16.2369 17.22C16.1157 17.1439 16.0025 17.0813 15.9196 17.0383C15.8786 17.0171 15.845 17.0012 15.8229 16.9905C15.8122 16.9853 15.8036 16.9812 15.7985 16.9788C15.796 16.9776 15.7935 16.9762 15.7926 16.9758L15.7155 16.9329C15.5481 16.8175 15.4648 16.608 15.5133 16.4045C15.5691 16.172 15.7822 16.0107 16.0211 16.0208H16.0221C16.0231 16.0208 16.0256 16.0216 16.028 16.0217C16.0335 16.0219 16.0427 16.0215 16.0543 16.0217C16.0789 16.0222 16.1164 16.0231 16.1627 16.0227C16.2562 16.022 16.3862 16.018 16.5289 16.0051C16.8378 15.9773 17.1215 15.915 17.276 15.8206C17.4304 15.7259 17.6149 15.5005 17.7799 15.2375C17.8559 15.1164 17.9185 15.0031 17.9615 14.9202C17.9827 14.8793 17.9987 14.8457 18.0094 14.8235C18.0145 14.813 18.0187 14.8043 18.0211 14.7991L18.024 14.7932L18.067 14.7161C18.1824 14.5486 18.3918 14.4654 18.5953 14.5139ZM12.3932 1.26782C13.0187 1.1677 13.5013 1.49773 13.8541 1.83032C14.1965 2.153 14.5759 2.63233 15.0133 3.18481L15.2916 3.53638C15.4319 3.71347 15.5114 3.81262 15.5758 3.88208C15.6105 3.91937 15.6288 3.93478 15.6354 3.9397C15.6431 3.94225 15.6637 3.94808 15.7067 3.95435C15.7957 3.96734 15.9163 3.97479 16.1364 3.98853L16.5748 4.01587C17.2575 4.05843 17.8552 4.09644 18.3102 4.19556C18.7918 4.30052 19.316 4.51629 19.5944 5.07544C19.8693 5.62791 19.7349 6.1779 19.5397 6.63208C19.3533 7.06594 19.0347 7.58359 18.6676 8.17993L18.6373 8.22876L18.4342 8.55884C18.3168 8.74968 18.2515 8.8567 18.2086 8.94067C18.1895 8.97808 18.1804 9.00034 18.1764 9.01196C18.1737 9.0197 18.1736 9.02351 18.1735 9.02466C18.1735 9.02466 18.1719 9.02886 18.1725 9.04028C18.1731 9.05376 18.1755 9.07872 18.1832 9.12134C18.2005 9.21696 18.2331 9.34261 18.2906 9.56274L18.3903 9.9436L18.4039 9.99829C18.5843 10.6882 18.7407 11.2838 18.7946 11.7561C18.8501 12.2429 18.826 12.8175 18.3951 13.2659C17.955 13.7238 17.3775 13.7542 16.8932 13.6965C16.432 13.6415 15.8528 13.4805 15.191 13.2971L14.7653 13.179C14.5522 13.1199 14.4349 13.0885 14.3463 13.0715C14.3095 13.0646 14.2886 13.0623 14.2789 13.0618C14.2699 13.0652 14.2512 13.0739 14.2184 13.092C14.1393 13.1358 14.0375 13.2025 13.8531 13.3254L13.486 13.5706C12.9144 13.9518 12.4139 14.2853 11.9928 14.4817C11.551 14.6877 10.9925 14.8399 10.4313 14.5422C10.0731 14.3521 9.86257 14.0569 9.73206 13.7415C7.45909 14.7007 5.60132 16.3482 4.95862 18.2415C4.8478 18.5679 4.52868 18.7764 4.18518 18.7473C3.84174 18.7183 3.56185 18.4588 3.50745 18.1184C2.56702 12.2349 4.32438 8.68623 6.84827 6.7522C7.02343 6.35641 7.35558 6.09222 7.6842 5.89868C8.08547 5.66237 8.64167 5.43959 9.27698 5.18579C9.29507 5.17856 9.31344 5.17159 9.33167 5.16431L9.6842 5.02271C9.88893 4.9409 10.0011 4.89589 10.0817 4.85571C10.1213 4.83597 10.1397 4.82433 10.1461 4.81958C10.1508 4.81288 10.1628 4.79205 10.1842 4.74536C10.2239 4.6592 10.2684 4.54027 10.3463 4.32837L10.4811 3.96216C10.4877 3.9441 10.495 3.92637 10.5016 3.90845C10.745 3.24651 10.9555 2.67169 11.1803 2.25806C11.4118 1.83189 11.7678 1.36807 12.3932 1.26782ZM18.1451 16.3909C18.0396 16.497 17.9238 16.5952 17.7985 16.6721C17.673 16.749 17.5328 16.8078 17.3903 16.8538C17.4967 16.9595 17.5944 17.0757 17.6715 17.2014C17.7484 17.3268 17.8072 17.4662 17.8531 17.6086C17.9586 17.5025 18.0755 17.4053 18.2008 17.3284C18.3261 17.2515 18.4657 17.1917 18.608 17.1458C18.502 17.0403 18.4046 16.9244 18.3278 16.7991C18.2507 16.6734 18.1911 16.5336 18.1451 16.3909ZM7.15979 8.45923C5.73664 9.83003 4.6405 12.0497 4.75842 15.5667C5.92594 14.0995 7.63247 12.9512 9.45667 12.2346C9.43733 11.9871 9.42118 11.7208 9.40393 11.4397L9.37659 10.9905C9.36264 10.7633 9.35384 10.6345 9.34045 10.5383C9.33446 10.4953 9.32844 10.4713 9.32483 10.4583C9.32191 10.4477 9.32018 10.444 9.31995 10.4436C9.31995 10.4436 9.31827 10.4399 9.31213 10.4319C9.30459 10.4221 9.28971 10.4043 9.26038 10.3752C9.19341 10.3088 9.09772 10.2272 8.92639 10.0823L8.58752 9.79517C8.05278 9.34326 7.58848 8.95094 7.276 8.59692C7.23685 8.55257 7.19751 8.50676 7.15979 8.45923ZM12.6334 2.76782C12.6051 2.80042 12.5598 2.86226 12.4987 2.97485C12.3328 3.28012 12.1584 3.74816 11.8893 4.47974L11.7545 4.84692C11.7448 4.87325 11.735 4.9002 11.7252 4.927C11.609 5.24599 11.4819 5.59336 11.2272 5.85864C10.9688 6.12742 10.6258 6.26321 10.318 6.38501C10.2922 6.39523 10.2661 6.40616 10.2408 6.41626L9.88831 6.55688C9.18194 6.83914 8.73502 7.01983 8.44495 7.19067C8.3075 7.27163 8.24945 7.32665 8.22717 7.35278L8.22522 7.35474C8.22626 7.35767 8.22823 7.36109 8.2301 7.36548C8.24667 7.40417 8.29018 7.48029 8.40002 7.60474C8.63061 7.86598 9.00818 8.18719 9.59924 8.68677L9.89514 8.93677C9.91605 8.95443 9.93738 8.97264 9.95862 8.99048C10.2188 9.20905 10.4981 9.44409 10.6627 9.77466C10.8262 10.1032 10.8476 10.4699 10.8678 10.8147C10.8695 10.8428 10.8719 10.8709 10.8737 10.8987L10.8971 11.2913C10.9261 11.7632 10.9504 12.1346 10.9801 12.4309C10.9881 12.4495 10.995 12.469 11.0016 12.4885C11.0409 12.6049 11.0497 12.7244 11.0328 12.8381C11.0383 12.8696 11.0443 12.8998 11.0504 12.929C11.0829 13.0867 11.1146 13.1669 11.1344 13.2043C11.1724 13.1969 11.2429 13.1765 11.359 13.1223C11.6633 12.9804 12.0672 12.7132 12.7028 12.2893L13.0211 12.0774C13.044 12.0621 13.0669 12.0463 13.0905 12.0305C13.365 11.846 13.6742 11.6382 14.0416 11.5793C14.4089 11.5206 14.7673 11.6218 15.0856 11.7112C15.1127 11.7189 15.1401 11.7264 15.1666 11.7336L15.5338 11.8352C16.2702 12.0393 16.7375 12.1666 17.0709 12.2063C17.198 12.2214 17.2708 12.2199 17.3092 12.2151C17.3165 12.1736 17.3227 12.0873 17.3043 11.926C17.264 11.5733 17.1378 11.0826 16.9391 10.3225L16.8395 9.94165C16.8324 9.91477 16.8252 9.88775 16.818 9.8606C16.7297 9.52667 16.6362 9.17196 16.6891 8.80884C16.7424 8.44308 16.9347 8.13224 17.1139 7.84302C17.1284 7.81951 17.1425 7.79594 17.1569 7.77271L17.36 7.44263C17.7658 6.78328 18.024 6.35964 18.1617 6.03931C18.2273 5.88681 18.2459 5.80102 18.2496 5.75903C18.25 5.75431 18.2495 5.75041 18.2496 5.74731L18.2487 5.74634C18.2195 5.72855 18.1467 5.69435 17.9908 5.6604C17.6621 5.58878 17.1814 5.55738 16.4225 5.51001L16.0436 5.4856C16.0165 5.4839 15.9884 5.48235 15.9606 5.48071C15.6302 5.46121 15.2616 5.43963 14.9323 5.26489C14.6071 5.09235 14.3784 4.80121 14.1686 4.53442C14.1509 4.51203 14.1333 4.48999 14.1158 4.46802L13.8737 4.16138C13.3898 3.55017 13.0775 3.16027 12.8248 2.92212C12.7321 2.83474 12.6705 2.78998 12.6334 2.76782Z" fill="#1C274C"/>
</svg>
