<svg width="24" height="24" viewBox="0 0 24 24" fill="none" xmlns="http://www.w3.org/2000/svg">
<path d="M12 1.25C17.9371 1.25 22.75 6.06294 22.75 12C22.75 12.7353 22.6763 13.4543 22.5352 14.1494C22.4527 14.5552 22.0562 14.8177 21.6504 14.7354C21.2446 14.6528 20.9831 14.2564 21.0654 13.8506C21.1866 13.2533 21.25 12.6344 21.25 12C21.25 6.89137 17.1086 2.75 12 2.75C6.89137 2.75 2.75 6.89137 2.75 12C2.75 17.1086 6.89137 21.25 12 21.25C12.6344 21.25 13.2533 21.1866 13.8506 21.0654C14.2564 20.9831 14.6528 21.2446 14.7354 21.6504C14.8177 22.0562 14.5552 22.4527 14.1494 22.5352C13.4543 22.6763 12.7353 22.75 12 22.75C6.06294 22.75 1.25 17.9371 1.25 12C1.25 6.06294 6.06294 1.25 12 1.25ZM17.4697 14.4697C17.7626 14.1768 18.2374 14.1768 18.5303 14.4697L21.0303 16.9697C21.3232 17.2626 21.3232 17.7374 21.0303 18.0303C20.7374 18.3232 20.2626 18.3232 19.9697 18.0303L18.75 16.8105V22C18.75 22.4142 18.4142 22.75 18 22.75C17.5858 22.75 17.25 22.4142 17.25 22V16.8105L16.0303 18.0303C15.7374 18.3232 15.2626 18.3232 14.9697 18.0303C14.6768 17.7374 14.6768 17.2626 14.9697 16.9697L17.4697 14.4697ZM13.2031 6.87988C13.4014 6.90307 13.5806 6.97041 13.7314 7.03613C13.88 7.10093 14.0581 7.19063 14.2607 7.29199L15.5938 7.95801C15.6057 7.964 15.6177 7.97052 15.6299 7.97656C15.7746 8.04868 15.9286 8.12521 16.0625 8.22754C16.4041 8.48869 16.6379 8.86676 16.7188 9.28906C16.7504 9.45466 16.7503 9.62627 16.75 9.78809V9.84766C16.75 10.0745 16.7497 10.2735 16.7412 10.4355C16.7325 10.5997 16.7134 10.7898 16.6455 10.9775C16.369 11.7408 15.6034 12.2141 14.7969 12.1201C14.5986 12.0969 14.4194 12.0296 14.2686 11.9639C14.12 11.8991 13.942 11.8095 13.7393 11.708L12.75 11.2139V15C12.75 16.5188 11.5188 17.75 10 17.75C8.48122 17.75 7.25 16.5188 7.25 15C7.25 13.4812 8.48122 12.25 10 12.25C10.4501 12.25 10.875 12.358 11.25 12.5498V9C11.2503 8.83571 11.2522 8.6891 11.2588 8.56445C11.2675 8.40025 11.2866 8.21012 11.3545 8.02246C11.631 7.25911 12.3966 6.78581 13.2031 6.87988ZM10 13.75C9.30964 13.75 8.75 14.3096 8.75 15C8.75 15.6904 9.30964 16.25 10 16.25C10.6904 16.25 11.25 15.6904 11.25 15C11.25 14.3096 10.6904 13.75 10 13.75ZM13.0215 8.36914C12.9116 8.35964 12.8084 8.42304 12.7676 8.52539C12.7661 8.53364 12.7608 8.56748 12.7568 8.64355C12.7506 8.76119 12.75 8.92002 12.75 9.1709C12.75 9.27798 12.7503 9.3395 12.752 9.38574C12.753 9.41437 12.7545 9.42664 12.7549 9.42969C12.7665 9.48948 12.7994 9.54294 12.8477 9.58008C12.8502 9.5818 12.8605 9.58873 12.8857 9.60254C12.9263 9.6247 12.9812 9.65229 13.0771 9.7002L14.3936 10.3584C14.618 10.4706 14.7602 10.5418 14.8682 10.5889C14.9379 10.6192 14.9705 10.6285 14.9785 10.6309C15.0884 10.6403 15.1916 10.5769 15.2324 10.4746C15.2339 10.4663 15.2392 10.4325 15.2432 10.3564C15.2494 10.2389 15.25 10.08 15.25 9.8291C15.25 9.72202 15.2497 9.6605 15.248 9.61426C15.247 9.58563 15.2455 9.57336 15.2451 9.57031C15.2335 9.51052 15.2006 9.45706 15.1523 9.41992C15.1498 9.41819 15.1395 9.41127 15.1143 9.39746C15.0737 9.37531 15.0188 9.34771 14.9229 9.2998L13.6064 8.6416C13.382 8.52937 13.2398 8.45821 13.1318 8.41113C13.062 8.38074 13.0295 8.37151 13.0215 8.36914Z" fill="#1C274C"/>
</svg>
