<svg width="24" height="24" viewBox="0 0 24 24" fill="none" xmlns="http://www.w3.org/2000/svg">
<path d="M7 13C8.10456 13 8.99998 13.8954 9 15C9 16.1045 8.10457 17 7 17C5.89544 17 5 16.1045 5 15C5.00002 13.8954 5.89545 13 7 13ZM17 13C18.1045 13 19 13.8954 19 15C19 16.1045 18.1045 17 17 17C15.8954 17 15 16.1045 15 15C15 13.8954 15.8954 13 17 13ZM21.376 6.58398C21.6058 6.23942 22.0713 6.14634 22.416 6.37598C22.7606 6.60574 22.8538 7.07138 22.624 7.41602L21.8115 8.63477C20.9305 9.9562 19.4476 10.75 17.8594 10.75H6.14062C4.55252 10.7499 3.06941 9.95615 2.18848 8.63477L1.37598 7.41602C1.14632 7.07139 1.23939 6.60572 1.58398 6.37598C1.92859 6.14624 2.39422 6.23944 2.62402 6.58398L3.43652 7.80273C4.03925 8.70682 5.05405 9.24993 6.14062 9.25H17.8594C18.9461 9.24999 19.9607 8.70687 20.5635 7.80273L21.376 6.58398Z" fill="#48465C"/>
</svg>
