<svg width="24" height="24" viewBox="0 0 24 24" fill="none" xmlns="http://www.w3.org/2000/svg">
<path d="M8 3.75C8.90197 3.75 9.74 4.03232 10.4287 4.5127C10.623 4.64821 10.806 4.79867 10.9746 4.96387C11.0988 5.08556 11.2156 5.21541 11.3242 5.35156C11.6982 5.28493 12.0835 5.25 12.4766 5.25C15.6345 5.25017 18.2721 7.49418 18.8311 10.4717C21.1308 11.4478 22.7499 13.7091 22.75 16.3525C22.75 19.8938 19.8476 22.7498 16.2861 22.75H6.28613C3.51338 22.75 1.25 20.5263 1.25 17.7646C1.25003 15.0605 3.41976 12.8721 6.11328 12.7822C6.0529 12.4487 6.01869 12.1065 6.0127 11.7578C4.66809 11.0454 3.75 9.63051 3.75 8C3.75 6.81095 4.23909 5.73438 5.02539 4.96387C5.19398 4.79868 5.37701 4.64821 5.57129 4.5127C6.25998 4.03231 7.09803 3.75 8 3.75ZM12.4766 6.75C9.72646 6.75 7.51172 8.95119 7.51172 11.6475C7.51175 12.1094 7.57661 12.556 7.69727 12.9785C8.19434 13.122 8.65962 13.3391 9.08008 13.6172C9.42554 13.8457 9.52051 14.3108 9.29199 14.6562C9.06348 15.0017 8.59839 15.0967 8.25293 14.8682C7.87219 14.6163 7.43941 14.4351 6.97363 14.3447C6.75195 14.3018 6.52192 14.2793 6.28613 14.2793C4.32504 14.2793 2.75003 15.8482 2.75 17.7646C2.75 19.6811 4.32502 21.25 6.28613 21.25H16.2861C19.036 21.2498 21.25 19.0487 21.25 16.3525C21.2498 14.216 19.8603 12.3909 17.9121 11.7246C17.4037 11.5508 16.857 11.4561 16.2861 11.4561C15.7035 11.4561 15.1451 11.5547 14.6279 11.7354C14.2369 11.8716 13.8094 11.6654 13.6729 11.2744C13.5363 10.8834 13.7428 10.4558 14.1338 10.3193C14.8081 10.0838 15.5331 9.95605 16.2861 9.95605C16.5813 9.95607 16.8721 9.97558 17.1572 10.0137C16.4765 8.11648 14.6423 6.75015 12.4766 6.75ZM3.29688 10.6426C3.58972 10.3498 4.06452 10.3498 4.35742 10.6426C4.65029 10.9355 4.65025 11.4102 4.35742 11.7031L4.1416 11.9189C3.8487 12.2118 3.37394 12.2118 3.08105 11.9189C2.78828 11.626 2.7882 11.1512 3.08105 10.8584L3.29688 10.6426ZM8 5.25C7.41473 5.25 6.87385 5.4317 6.42871 5.74219C6.30285 5.83 6.18461 5.92892 6.0752 6.03613C5.56515 6.53612 5.25 7.23053 5.25 8C5.25 8.83251 5.62017 9.5792 6.20605 10.084C6.68173 8.2082 7.99382 6.66421 9.72363 5.85742C9.67408 5.81748 9.62355 5.77866 9.57129 5.74219C9.12615 5.4317 8.58527 5.25 8 5.25ZM2.5 6.75C2.91421 6.75 3.25 7.08579 3.25 7.5C3.25 7.91421 2.91421 8.25 2.5 8.25H2C1.58579 8.25 1.25 7.91421 1.25 7.5C1.25 7.08579 1.58579 6.75 2 6.75H2.5ZM3.08105 3.08105C3.37394 2.78815 3.8487 2.78815 4.1416 3.08105L4.35742 3.29688C4.65028 3.58977 4.6503 4.06453 4.35742 4.35742C4.06452 4.65017 3.58972 4.65023 3.29688 4.35742L3.08105 4.1416C2.7882 3.84875 2.78829 3.37396 3.08105 3.08105ZM10.8584 3.08105C11.1513 2.78816 11.626 2.78816 11.9189 3.08105C12.2117 3.37396 12.2118 3.84876 11.9189 4.1416L11.7031 4.35742C11.4103 4.65027 10.9355 4.65019 10.6426 4.35742C10.3497 4.06453 10.3497 3.58977 10.6426 3.29688L10.8584 3.08105ZM7.5 1.25C7.91421 1.25 8.25 1.58579 8.25 2V2.5C8.25 2.91421 7.91421 3.25 7.5 3.25C7.08579 3.25 6.75 2.91421 6.75 2.5V2C6.75 1.58579 7.08579 1.25 7.5 1.25Z" fill="#48465C"/>
</svg>
