<svg width="24" height="24" viewBox="0 0 24 24" fill="none" xmlns="http://www.w3.org/2000/svg">
<path d="M12 1.25C17.937 1.25009 22.75 6.063 22.75 12C22.75 17.937 17.937 22.7499 12 22.75C11.1785 22.75 10.3775 22.6575 9.60742 22.4824C9.20352 22.3906 8.95018 21.9889 9.04199 21.585C9.13378 21.1812 9.53571 20.928 9.93945 21.0195C10.6012 21.1699 11.2911 21.25 12 21.25C17.1085 21.2499 21.25 17.1085 21.25 12C21.25 6.89143 17.1085 2.7501 12 2.75C11.2911 2.75 10.6012 2.83003 9.93945 2.98047C9.53571 3.07198 9.13379 2.81878 9.04199 2.41504C8.95016 2.01113 9.20351 1.6094 9.60742 1.51758C10.3775 1.3425 11.1785 1.25 12 1.25ZM3.13184 16.6865C3.48235 16.4658 3.94531 16.5714 4.16602 16.9219C4.90598 18.0971 5.90391 19.0941 7.0791 19.834C7.42939 20.0547 7.53407 20.5178 7.31348 20.8682C7.09278 21.2187 6.62981 21.3242 6.2793 21.1035C4.91426 20.2439 3.75599 19.0857 2.89648 17.7207C2.67614 17.3702 2.78146 16.9071 3.13184 16.6865ZM8.25 9.21289C8.25 7.79039 9.74662 6.72341 11.0752 7.50781L15.7949 10.2949C17.0682 11.0467 17.0681 12.9523 15.7949 13.7041L11.0752 16.4912C9.74662 17.2756 8.25 16.2086 8.25 14.7861V9.21289ZM10.3125 8.7998C10.1922 8.72876 10.0686 8.73611 9.95898 8.80469C9.84584 8.87563 9.75 9.01465 9.75 9.21289V14.7861C9.75 14.9844 9.84587 15.1233 9.95898 15.1943C10.0686 15.2629 10.1922 15.2703 10.3125 15.1992L15.0322 12.4131C15.1647 12.3348 15.2499 12.185 15.25 12C15.25 11.8148 15.1648 11.6643 15.0322 11.5859L10.3125 8.7998ZM1.51758 9.60742C1.6094 9.20351 2.01113 8.95016 2.41504 9.04199C2.81878 9.13379 3.07198 9.53571 2.98047 9.93945C2.83003 10.6012 2.75 11.2911 2.75 12C2.75001 12.7088 2.83006 13.3979 2.98047 14.0596C3.07229 14.4634 2.81886 14.8651 2.41504 14.957C2.01122 15.0488 1.60952 14.7963 1.51758 14.3926C1.34251 13.6225 1.25001 12.8214 1.25 12C1.25 11.1785 1.3425 10.3775 1.51758 9.60742ZM6.2793 2.89648C6.62981 2.67579 7.09277 2.78134 7.31348 3.13184C7.53412 3.48225 7.42937 3.94524 7.0791 4.16602C5.90395 4.90595 4.90597 5.90298 4.16602 7.07812C3.94531 7.42864 3.48236 7.53419 3.13184 7.31348C2.78148 7.09281 2.67603 6.62974 2.89648 6.2793C3.75601 4.91422 4.91423 3.75601 6.2793 2.89648Z" fill="#48465C"/>
</svg>
