<svg width="24" height="24" viewBox="0 0 24 24" fill="none" xmlns="http://www.w3.org/2000/svg">
<path d="M18.4102 2.19043C19.199 2.05005 19.9529 2.07155 20.6084 2.54395C21.2637 3.01635 21.5225 3.72496 21.6387 4.51758C21.7007 4.94083 21.7279 5.43576 21.7402 6H21.75V17C21.75 19.0711 20.0711 20.75 18 20.75C15.9289 20.75 14.25 19.0711 14.25 17C14.2502 14.929 15.929 13.25 18 13.25C18.8442 13.25 19.6233 13.5293 20.25 14V9.04102L9.75 12.541V19C9.75 21.0711 8.07107 22.75 6 22.75C3.92893 22.75 2.25 21.0711 2.25 19C2.25016 16.929 3.92903 15.25 6 15.25C6.8442 15.25 7.62325 15.5293 8.25 16V8H8.25488C8.26079 7.69243 8.2735 7.4145 8.30176 7.16699C8.35713 6.68233 8.47852 6.23775 8.76953 5.83398C9.06062 5.43019 9.44433 5.17455 9.88672 4.96875C10.3028 4.77522 10.8321 4.59927 11.458 4.39062L15.5557 3.02441C16.7075 2.64043 17.6515 2.32548 18.4102 2.19043ZM6 16.75C4.75746 16.75 3.75016 17.7575 3.75 19C3.75 20.2426 4.75736 21.25 6 21.25C7.24264 21.25 8.25 20.2426 8.25 19C8.24984 17.7575 7.24254 16.75 6 16.75ZM18 14.75C16.7575 14.75 15.7502 15.7575 15.75 17C15.75 18.2426 16.7574 19.25 18 19.25C19.2426 19.25 20.25 18.2426 20.25 17C20.2498 15.7575 19.2425 14.75 18 14.75ZM19.7305 3.76074C19.5553 3.63469 19.2925 3.55768 18.6729 3.66797C18.0354 3.78145 17.1965 4.05884 15.9727 4.4668L11.9727 5.7998C11.2964 6.02521 10.849 6.17589 10.5195 6.3291C10.2077 6.47416 10.0728 6.5911 9.98633 6.71094C9.89991 6.83084 9.83102 6.99605 9.79199 7.33789C9.75081 7.69885 9.75 8.17104 9.75 8.88379V10.96L20.25 7.45996C20.2499 6.21862 20.246 5.36095 20.1543 4.73535C20.0629 4.11212 19.9056 3.88698 19.7305 3.76074Z" fill="#1C274C"/>
</svg>
