<svg width="24" height="24" viewBox="0 0 24 24" fill="none" xmlns="http://www.w3.org/2000/svg">
<path fill-rule="evenodd" clip-rule="evenodd" d="M15.6111 1.58382C17.2678 1.34715 18.75 2.63267 18.75 4.30618V5.68268C19.9395 6.31143 20.75 7.56113 20.75 9.00016V19.0001C20.75 21.0712 19.0711 22.7501 17 22.7501H7C4.92893 22.7501 3.25 21.0712 3.25 19.0001V5.00016C3.25 4.99086 3.25017 4.9816 3.2505 4.97239C3.25017 4.958 3.25 4.94356 3.25 4.92909C3.25 4.02284 3.91638 3.25449 4.81353 3.12632L15.6111 1.58382ZM4.75 6.75016V19.0001C4.75 20.2428 5.75736 21.2501 7 21.2501H17C18.2426 21.2501 19.25 20.2428 19.25 19.0001V9.00016C19.25 7.75752 18.2426 6.75016 17 6.75016H4.75ZM5.07107 5.25016H17.25V4.30618C17.25 3.54549 16.5763 2.96116 15.8232 3.06874L5.02566 4.61125C4.86749 4.63384 4.75 4.76931 4.75 4.92909C4.75 5.10641 4.89375 5.25016 5.07107 5.25016ZM7.25 12.0001C7.25 11.5859 7.58579 11.2501 8 11.2501H16C16.4142 11.2501 16.75 11.5859 16.75 12.0001C16.75 12.4143 16.4142 12.7501 16 12.7501H8C7.58579 12.7501 7.25 12.4143 7.25 12.0001ZM7.25 15.5001C7.25 15.0859 7.58579 14.7501 8 14.7501H13.5C13.9142 14.7501 14.25 15.0859 14.25 15.5001C14.25 15.9143 13.9142 16.2501 13.5 16.2501H8C7.58579 16.2501 7.25 15.9143 7.25 15.5001Z" fill="#1C274C"/>
</svg>
