<svg width="24" height="24" viewBox="0 0 24 24" fill="none" xmlns="http://www.w3.org/2000/svg">
<path d="M12 2C17.5228 2 22 6.47715 22 12C22 17.5228 17.5228 22 12 22C6.47715 22 2 17.5228 2 12C2 6.47715 6.47715 2 12 2ZM15.5303 8.46973C15.2374 8.17684 14.7626 8.17684 14.4697 8.46973L9.75 13.1895V10.5C9.75 10.0858 9.41421 9.75 9 9.75C8.58579 9.75 8.25 10.0858 8.25 10.5V15C8.25 15.4142 8.58579 15.75 9 15.75H13.5C13.9142 15.75 14.25 15.4142 14.25 15C14.25 14.5858 13.9142 14.25 13.5 14.25H10.8105L15.5303 9.53027C15.8232 9.23739 15.8232 8.76261 15.5303 8.46973Z" fill="#48465C"/>
</svg>
