<svg width="24" height="24" viewBox="0 0 24 24" fill="none" xmlns="http://www.w3.org/2000/svg">
<path d="M8.05469 5.25C9.42214 5.24998 10.5246 5.24968 11.3916 5.36621C12.2917 5.48723 13.0494 5.74673 13.6514 6.34863C14.2533 6.95055 14.5128 7.70829 14.6338 8.6084C14.7503 9.47534 14.75 10.5778 14.75 11.9453V12C14.75 12.4142 14.4142 12.75 14 12.75C13.5858 12.75 13.25 12.4142 13.25 12C13.25 10.5649 13.2479 9.5639 13.1465 8.80859C13.0478 8.07482 12.8676 7.68594 12.5908 7.40918C12.3141 7.13249 11.9258 6.95218 11.1924 6.85352C10.437 6.75196 9.43542 6.75 8 6.75C6.56485 6.75 5.5639 6.75201 4.80859 6.85352C4.07482 6.95217 3.68594 7.13242 3.40918 7.40918C3.13242 7.68594 2.95217 8.07482 2.85352 8.80859C2.75201 9.5639 2.75 10.5649 2.75 12C2.75 13.4354 2.75196 14.437 2.85352 15.1924C2.95218 15.9258 3.13249 16.3141 3.40918 16.5908C3.68594 16.8676 4.07482 17.0478 4.80859 17.1465C5.5639 17.2479 6.56485 17.25 8 17.25C8.41422 17.25 8.75 17.5858 8.75 18C8.75 18.4142 8.41422 18.75 8 18.75H7.94531C6.57783 18.75 5.47534 18.7503 4.6084 18.6338C3.70829 18.5128 2.95055 18.2533 2.34863 17.6514C1.74673 17.0494 1.48723 16.2917 1.36621 15.3916C1.24968 14.5246 1.24998 13.4222 1.25 12.0547V11.9453C1.24998 10.5778 1.24968 9.47534 1.36621 8.6084C1.48723 7.70829 1.74671 6.95055 2.34863 6.34863C2.95055 5.74671 3.70829 5.48723 4.6084 5.36621C5.47533 5.24968 6.57783 5.24998 7.94531 5.25H8.05469ZM16.0547 5.25C17.4222 5.24998 18.5246 5.24968 19.3916 5.36621C20.2917 5.48723 21.0494 5.74673 21.6514 6.34863C22.2533 6.95055 22.5128 7.70829 22.6338 8.6084C22.7503 9.47534 22.75 10.5778 22.75 11.9453V12.0547C22.75 13.4222 22.7503 14.5246 22.6338 15.3916C22.5128 16.2917 22.2533 17.0494 21.6514 17.6514C21.0494 18.2533 20.2917 18.5128 19.3916 18.6338C18.5246 18.7503 17.4222 18.75 16.0547 18.75H15.9453C14.5778 18.75 13.4753 18.7503 12.6084 18.6338C11.7082 18.5128 10.9505 18.2533 10.3486 17.6514C9.74671 17.0494 9.48723 16.2917 9.36621 15.3916C9.24968 14.5246 9.24998 13.4222 9.25 12.0547V12C9.25 11.5858 9.58579 11.25 10 11.25C10.4142 11.25 10.75 11.5858 10.75 12C10.75 13.4354 10.752 14.437 10.8535 15.1924C10.9522 15.9258 11.1324 16.3141 11.4092 16.5908C11.6859 16.8676 12.0742 17.0478 12.8076 17.1465C13.563 17.248 14.5646 17.25 16 17.25C17.4354 17.25 18.437 17.248 19.1924 17.1465C19.9258 17.0478 20.3141 16.8676 20.5908 16.5908C20.8676 16.3141 21.0478 15.9258 21.1465 15.1924C21.248 14.437 21.25 13.4354 21.25 12C21.25 10.5649 21.2479 9.5639 21.1465 8.80859C21.0478 8.07482 20.8676 7.68594 20.5908 7.40918C20.3141 7.13249 19.9258 6.95218 19.1924 6.85352C18.437 6.75196 17.4354 6.75 16 6.75C15.5858 6.75 15.25 6.41422 15.25 6C15.25 5.58579 15.5858 5.25 16 5.25H16.0547Z" fill="#1C274C"/>
</svg>
