<svg width="24" height="24" viewBox="0 0 24 24" fill="none" xmlns="http://www.w3.org/2000/svg">
<path d="M10.7734 5.88672C10.8532 5.89027 10.9438 5.89664 11.0459 5.90723C13.4285 6.15452 15.1966 7.94299 16.374 9.70898L16.4365 9.80273C17.0392 10.7068 18.0541 11.25 19.1406 11.25H21C21.4142 11.25 21.75 11.5858 21.75 12C21.75 12.4142 21.4142 12.75 21 12.75H19.1406C17.5525 12.75 16.0695 11.9561 15.1885 10.6348L15.126 10.541C14.8536 10.1325 14.561 9.74473 14.249 9.38965L12.3652 11.7441C11.9379 12.2783 11.6512 12.6381 11.458 12.9336C11.271 13.2195 11.2174 13.3789 11.2031 13.5C11.1796 13.6999 11.2047 13.9028 11.2764 14.0908C11.3199 14.2048 11.4107 14.3466 11.6621 14.5781C11.9219 14.8171 12.2887 15.0957 12.834 15.5088C12.866 15.5331 12.8975 15.5574 12.9287 15.5811C13.6496 16.1267 14.1486 16.505 14.4941 17.0098C14.6905 17.2967 14.8459 17.6096 14.9561 17.9395C15.1497 18.5196 15.1498 19.1458 15.1494 20.0498V22C15.1493 22.4141 14.8135 22.75 14.3994 22.75C13.9854 22.7499 13.6495 22.414 13.6494 22V20.1689C13.6494 19.0985 13.641 18.7339 13.5342 18.4141C13.4681 18.2162 13.3746 18.0286 13.2568 17.8564C13.0664 17.5781 12.781 17.3505 11.9277 16.7041L11.8984 16.6826C11.3895 16.2971 10.9654 15.9751 10.6465 15.6816C10.3137 15.3752 10.0357 15.0472 9.875 14.626C9.71722 14.2121 9.66143 13.766 9.71289 13.3262C9.7654 12.8781 9.95442 12.4911 10.2021 12.1123C10.4394 11.7495 10.7719 11.3336 11.1709 10.835L13.1543 8.35645C12.4672 7.83375 11.7109 7.4845 10.8916 7.39941C10.8174 7.39171 10.7555 7.38793 10.7061 7.38574C10.5783 7.38012 10.4356 7.39246 10.2578 7.41699C9.19251 7.56409 8.12471 8.15557 5.80664 9.47266L4.37012 10.2881C4.01 10.4927 3.55225 10.3669 3.34766 10.0068C3.14315 9.64667 3.2698 9.18897 3.62988 8.98438L5.06543 8.16895C5.11664 8.13985 5.16747 8.11062 5.21777 8.08203C7.33649 6.87788 8.66576 6.12218 10.0518 5.93066C10.2613 5.90173 10.5103 5.87506 10.7734 5.88672ZM8.42383 16.5195C8.68904 16.2015 9.16233 16.1588 9.48047 16.4238C9.79849 16.6891 9.84128 17.1623 9.57617 17.4805L8.5752 18.6807C8.5426 18.7198 8.51023 18.7588 8.47852 18.7969C7.83663 19.5683 7.36577 20.1352 6.70801 20.4434C6.05003 20.7515 5.31241 20.7507 4.30859 20.75H3C2.58579 20.75 2.25 20.4142 2.25 20C2.25 19.5858 2.58579 19.25 3 19.25H4.1582C5.37964 19.25 5.75395 19.2335 6.07129 19.085C6.38865 18.9363 6.64082 18.6592 7.42285 17.7207L8.42383 16.5195ZM18.5 1.25C20.2949 1.25 21.75 2.70507 21.75 4.5C21.75 6.29493 20.2949 7.75 18.5 7.75C16.7051 7.75 15.25 6.29493 15.25 4.5C15.25 2.70507 16.7051 1.25 18.5 1.25ZM18.5 2.75C17.5335 2.75 16.75 3.5335 16.75 4.5C16.75 5.4665 17.5335 6.25 18.5 6.25C19.4665 6.25 20.25 5.4665 20.25 4.5C20.25 3.5335 19.4665 2.75 18.5 2.75Z" fill="#48465C"/>
</svg>
