<svg width="24" height="24" viewBox="0 0 24 24" fill="none" xmlns="http://www.w3.org/2000/svg">
<path d="M18.1675 1.25C19.0388 1.24997 19.7674 1.25055 20.3462 1.32812C20.9578 1.41011 21.5134 1.59048 21.9604 2.03613C22.4077 2.48208 22.5899 3.03676 22.6724 3.64746C22.7503 4.22508 22.7495 4.95269 22.7495 5.82129V6.58105C22.7501 7.63082 22.7512 8.36791 22.4712 9.04199C22.1912 9.71599 21.6684 10.2373 20.9233 10.9795C20.8904 11.0123 20.8566 11.0454 20.8228 11.0791L18.1528 13.7402L18.2466 13.8848C18.64 14.4924 18.9588 14.9847 19.189 15.4092C19.4275 15.8491 19.5967 16.2622 19.6646 16.7188C19.7736 17.4524 19.6754 18.2065 19.3862 18.8994C19.2789 19.1564 19.0931 19.4264 18.9028 19.6719C18.7034 19.929 18.4595 20.209 18.1978 20.4941C17.6766 21.0621 17.051 21.6865 16.4956 22.2402L16.4038 22.3301C15.6839 23.0479 14.4362 22.8156 14.0522 21.8525C13.8248 21.2817 13.7329 21.054 13.6177 20.8438C13.5108 20.649 13.3876 20.4631 13.2505 20.2881C13.1044 20.1017 12.9335 19.9289 12.5103 19.5068L12.0054 19.0645C11.9983 19.0583 11.9918 19.0513 11.9849 19.0449C11.8915 19.057 11.7962 19.0635 11.6997 19.0635C11.0683 19.0634 10.5472 18.7993 10.0562 18.4258C9.59169 18.0725 9.07649 17.5586 8.46045 16.9443L7.01318 15.5029C6.39712 14.8887 5.8823 14.3744 5.52783 13.9111C5.15321 13.4217 4.88726 12.9011 4.88721 12.2695C4.88721 12.1549 4.89649 12.0426 4.91357 11.9326L4.0835 11.1045C4.03529 11.0564 4.01564 11.037 3.99658 11.0186C3.62293 10.656 3.18283 10.3675 2.70068 10.1689C2.67599 10.1587 2.65006 10.1482 2.58643 10.123L2.2085 9.97363C1.19495 9.57202 0.922015 8.26364 1.6958 7.49219L1.70264 7.48535C2.25807 6.9316 2.88397 6.30774 3.45361 5.78809C3.73983 5.52698 4.02089 5.28375 4.27881 5.08496C4.52508 4.89515 4.79505 4.71023 5.05225 4.60352C5.74627 4.31562 6.50138 4.21771 7.23584 4.32617C7.6927 4.39369 8.10629 4.56214 8.54736 4.7998C8.97324 5.02929 9.46772 5.34672 10.0776 5.73926L10.2251 5.83496L12.897 3.1709C12.9306 3.1374 12.9639 3.10393 12.9966 3.07129C13.7414 2.32798 14.2636 1.80723 14.939 1.52832C15.6141 1.24951 16.3519 1.24948 17.4058 1.25H18.1675ZM14.9585 16.9258C14.4686 17.4141 14.0463 17.8346 13.6704 18.1592C13.5987 18.2212 13.5271 18.2819 13.4546 18.3398L13.5356 18.4102L13.5874 18.4619C13.9779 18.8512 14.2198 19.0926 14.4312 19.3623C14.6186 19.6014 14.7861 19.8557 14.9321 20.1221C15.0918 20.4132 15.2156 20.7207 15.4087 21.2051L15.4292 21.1846C15.9922 20.6232 16.5957 20.0206 17.0923 19.4795C17.3403 19.2092 17.5535 18.9631 17.7173 18.752C17.8895 18.5297 17.9736 18.389 18.0015 18.3223C18.1887 17.8739 18.2488 17.3949 18.1812 16.9395C18.1488 16.7218 18.0646 16.4818 17.8706 16.124C17.6874 15.786 17.4293 15.3833 17.0669 14.8232L14.9585 16.9258ZM17.5464 2.75C16.2947 2.75 15.8771 2.76298 15.5112 2.91406C15.1456 3.06505 14.8415 3.35009 13.9565 4.23242L8.10889 10.0625C7.61087 10.559 7.23326 10.936 6.94873 11.2607C6.66287 11.5869 6.51682 11.8108 6.4458 11.9873C6.40441 12.0902 6.38721 12.1794 6.38721 12.2695C6.38725 12.4399 6.44594 12.6431 6.71826 12.999C7.00414 13.3727 7.44663 13.8162 8.10889 14.4766L8.26611 14.6338L9.79736 13.1074C10.0907 12.8152 10.5656 12.8161 10.8579 13.1094C11.1501 13.4028 11.1492 13.8775 10.856 14.1699L9.32861 15.6924L9.48291 15.8457C10.1453 16.5061 10.5896 16.9473 10.9644 17.2324C11.3217 17.5042 11.5266 17.5634 11.6997 17.5635C11.7844 17.5635 11.8672 17.5496 11.9595 17.5156C12.1348 17.451 12.3584 17.3108 12.6899 17.0244C13.0205 16.739 13.4053 16.3554 13.9165 15.8457L19.7642 10.0166C20.6495 9.13386 20.9344 8.83053 21.0854 8.4668C21.2365 8.10334 21.2495 7.68863 21.2495 6.44043V5.87305C21.2495 4.93915 21.2488 4.31414 21.186 3.84863C21.1263 3.40521 21.0232 3.21973 20.9019 3.09863C20.7801 2.97723 20.5931 2.87425 20.147 2.81445C19.6795 2.7518 19.0523 2.75 18.1157 2.75H17.5464ZM13.9165 6.26172C14.9677 5.21368 16.6719 5.21368 17.7231 6.26172C18.7752 7.31103 18.7754 9.01334 17.7231 10.0625C16.6719 11.1105 14.9677 11.1105 13.9165 10.0625C12.8643 9.01335 12.8645 7.31103 13.9165 6.26172ZM7.01709 5.80957C6.55895 5.74186 6.07713 5.80227 5.62646 5.98926C5.559 6.01734 5.41688 6.10153 5.19385 6.27344C4.98214 6.43665 4.73531 6.6493 4.46436 6.89648C3.92167 7.39156 3.31739 7.99339 2.75439 8.55469C2.75161 8.55749 2.7507 8.55922 2.75049 8.55957C2.75039 8.55992 2.74956 8.56286 2.75049 8.56738C2.75143 8.57192 2.75296 8.57463 2.75342 8.5752C2.7537 8.5754 2.75678 8.57734 2.76123 8.5791L3.14404 8.73047C3.20108 8.75307 3.23677 8.76773 3.27197 8.78223C3.92992 9.05331 4.53013 9.44714 5.04053 9.94238C5.06773 9.96878 5.095 9.99507 5.13818 10.0381L5.61572 10.5146C5.68108 10.4334 5.74938 10.3529 5.81982 10.2725C6.14159 9.90524 6.55513 9.49275 7.03369 9.01562L9.13721 6.91895C8.57745 6.55899 8.1748 6.30247 7.83643 6.12012C7.47739 5.92665 7.23648 5.842 7.01709 5.80957ZM16.6636 7.32324C16.1979 6.85915 15.4418 6.85911 14.9761 7.32324C14.5116 7.78637 14.5116 8.53687 14.9761 9C15.4418 9.46422 16.1979 9.46418 16.6636 9C17.1282 8.53687 17.1282 7.78637 16.6636 7.32324Z" fill="#48465C"/>
</svg>
