<svg width="24" height="24" viewBox="0 0 24 24" fill="none" xmlns="http://www.w3.org/2000/svg">
<path d="M9.81445 1.05054C11.5033 0.707432 12.7676 2.15521 12.7676 3.66772V5.72925H11.2324V3.66772C11.2324 2.90246 10.6454 2.46005 10.1182 2.56714C5.79229 3.44604 2.53527 7.29836 2.53516 11.9158C2.53516 17.1831 6.77256 21.4529 12 21.4529C17.2274 21.4529 21.4648 17.1831 21.4648 11.9158C21.4648 8.1419 19.2893 4.87838 16.1299 3.33179C15.7489 3.14505 15.5903 2.68259 15.7754 2.29858C15.9606 1.91446 16.4195 1.75457 16.8008 1.94116C20.4686 3.73663 22.9999 7.52742 23 11.9158C23 18.0372 18.0751 22.9998 12 22.9998C5.92487 22.9998 1 18.0372 1 11.9158C1.00011 6.54774 4.78643 2.07221 9.81445 1.05054ZM16.0928 13.9539C16.0928 16.2451 14.2605 18.1023 12 18.1023C9.73949 18.1023 7.90723 16.2451 7.90723 13.9539V10.5828H16.0928V13.9539ZM11.2324 9.33862H7.97852C8.29057 7.67125 9.58733 6.04558 11.2324 5.72925V9.33862ZM12.7676 5.72925C14.4126 6.04559 15.7094 7.67126 16.0215 9.33862H12.7676V5.72925Z" fill="#1C274C"/>
</svg>
