<svg width="24" height="24" viewBox="0 0 24 24" fill="none" xmlns="http://www.w3.org/2000/svg">
<path d="M17.7871 11.25C18.574 11.25 19.2175 11.2504 19.7373 11.2998C20.2766 11.3511 20.76 11.461 21.1982 11.7295C21.6354 11.9975 22.0035 12.3646 22.2715 12.8018C22.54 13.2399 22.6489 13.7234 22.7002 14.2627C22.7496 14.7825 22.75 15.4261 22.75 16.2129V16.7764C22.75 17.3364 22.7501 17.7947 22.7246 18.1689C22.6982 18.5557 22.6422 18.9078 22.5029 19.2441C22.1732 20.0404 21.5404 20.6731 20.7441 21.0029C20.2694 21.1996 19.7457 21.2353 19.1182 21.2461C18.8918 21.25 18.7731 21.2523 18.6885 21.2617L18.6807 21.2627L18.6777 21.2656C18.63 21.3311 18.5722 21.4284 18.46 21.6182L18.1885 22.0762C17.6565 22.9747 16.3436 22.9747 15.8115 22.0762L15.54 21.6182C15.4278 21.4284 15.37 21.3311 15.3223 21.2656L15.3193 21.2627L15.3115 21.2617C15.2269 21.2523 15.1082 21.25 14.8818 21.2461C14.2543 21.2353 13.7306 21.1996 13.2559 21.0029C12.4596 20.6731 11.8268 20.0404 11.4971 19.2441C11.3578 18.9078 11.3018 18.5557 11.2754 18.1689C11.2499 17.7947 11.25 17.3365 11.25 16.7764V16.2129C11.25 15.426 11.2504 14.7825 11.2998 14.2627C11.3511 13.7234 11.46 13.2399 11.7285 12.8018C11.9965 12.3646 12.3646 11.9975 12.8018 11.7295C13.24 11.461 13.7234 11.3511 14.2627 11.2998C14.7825 11.2504 15.426 11.25 16.2129 11.25H17.7871ZM18.2773 2.7998C18.3881 2.40086 18.8012 2.1668 19.2002 2.27734C19.5993 2.3882 19.8336 2.80207 19.7227 3.20117L18.3203 8.25H22C22.4141 8.25 22.7498 8.58595 22.75 9C22.75 9.41421 22.4142 9.75 22 9.75H17.9014C17.7714 10.1188 17.3756 10.3289 16.9932 10.2227C16.7485 10.1546 16.5662 9.97251 16.4873 9.75H8.90332L7.37598 15.25H9C9.41409 15.25 9.7498 15.586 9.75 16C9.75 16.4142 9.41421 16.75 9 16.75H6.95898L5.72266 21.2012C5.61176 21.6002 5.1979 21.8335 4.79883 21.7227C4.40006 21.6117 4.16662 21.1987 4.27734 20.7998L5.40234 16.75H2C1.58579 16.75 1.25 16.4142 1.25 16C1.2502 15.586 1.58591 15.25 2 15.25H5.81836L7.34668 9.75H4C3.58579 9.75 3.25 9.41421 3.25 9C3.25019 8.58595 3.58591 8.25 4 8.25H7.76367L9.27734 2.7998C9.3882 2.4007 9.8021 2.16648 10.2012 2.27734C10.6001 2.38834 10.8335 2.80219 10.7227 3.20117L9.32031 8.25H16.7637L18.2773 2.7998ZM16.25 12.75C15.4171 12.75 14.8449 12.7511 14.4043 12.793C13.9753 12.8337 13.7489 12.908 13.5859 13.0078C13.3505 13.1521 13.1521 13.3504 13.0078 13.5859C12.908 13.7489 12.8338 13.9753 12.793 14.4043C12.7511 14.8449 12.75 15.4172 12.75 16.25V16.75C12.75 17.3427 12.7509 17.7502 12.7725 18.0674C12.7937 18.3775 12.8319 18.5469 12.8828 18.6699C13.0604 19.0987 13.4013 19.4396 13.8301 19.6172C14.0155 19.694 14.2799 19.7352 14.9072 19.7461H14.9336C15.1236 19.7494 15.3139 19.7525 15.4766 19.7705C15.6606 19.7909 15.8698 19.836 16.0781 19.957C16.2839 20.0768 16.4253 20.2335 16.5342 20.3828C16.6293 20.5134 16.7247 20.6738 16.8184 20.832L17 21.1396L17.1816 20.832C17.2753 20.6738 17.3707 20.5134 17.4658 20.3828C17.5747 20.2335 17.716 20.0768 17.9219 19.957C18.1301 19.836 18.3394 19.7909 18.5234 19.7705C18.6862 19.7525 18.8764 19.7494 19.0664 19.7461H19.0928C19.7201 19.7352 19.9845 19.694 20.1699 19.6172C20.5987 19.4396 20.9396 19.0987 21.1172 18.6699C21.1681 18.5469 21.2063 18.3775 21.2275 18.0674C21.2491 17.7502 21.25 17.3427 21.25 16.75V16.25C21.25 15.4172 21.2489 14.8449 21.207 14.4043C21.1662 13.9753 21.092 13.7489 20.9922 13.5859C20.8479 13.3504 20.6495 13.1521 20.4141 13.0078C20.2511 12.908 20.0247 12.8337 19.5957 12.793C19.1551 12.7511 18.5829 12.75 17.75 12.75H16.25Z" fill="#48465C"/>
</svg>
