<svg width="24" height="24" viewBox="0 0 24 24" fill="none" xmlns="http://www.w3.org/2000/svg">
<path d="M7.71466 5C8.59224 5 9.44849 5.27235 10.1649 5.7793L10.6668 6.13477C11.0565 6.41054 11.5224 6.55856 11.9998 6.55859C12.4772 6.55859 12.9431 6.41046 13.3328 6.13477L13.8348 5.7793C14.5511 5.27233 15.4075 5 16.285 5H16.8973C17.3014 5 17.7098 5.02514 18.0906 5.16016C20.4733 6.00522 22.1124 9.09501 21.994 16.1025C21.9701 17.5144 21.6399 19.0754 20.366 19.6846C19.9691 19.8745 19.5034 20 18.9734 20C18.3374 20 17.832 19.819 17.4422 19.5635C17.0334 19.2956 16.6741 18.9467 16.3143 18.5986C15.8697 18.1684 15.4246 17.7389 14.8885 17.4609C14.3045 17.1582 13.6565 17 12.9988 17H11.0008C10.3432 17 9.695 17.1582 9.11115 17.4609C8.57517 17.7389 8.1308 18.1686 7.68634 18.5986C7.32655 18.9467 6.96621 19.2956 6.55743 19.5635C6.16773 19.8188 5.66282 19.9999 5.02716 20C4.49732 20 4.03147 19.8744 3.63458 19.6846C2.36065 19.0754 2.02956 17.5144 2.00568 16.1025C1.88714 9.09503 3.5263 6.00522 5.909 5.16016C6.28987 5.02508 6.69824 5.00001 7.10236 5H7.71466ZM7.49982 9.25C7.08569 9.25009 6.74982 9.58585 6.74982 10V10.75H5.99982C5.58569 10.7501 5.24982 11.0859 5.24982 11.5C5.24982 11.9141 5.58569 12.2499 5.99982 12.25H6.74982V13C6.74982 13.4141 7.08569 13.7499 7.49982 13.75C7.91403 13.75 8.24982 13.4142 8.24982 13V12.25H8.99982C9.41403 12.25 9.74982 11.9142 9.74982 11.5C9.74982 11.0858 9.41403 10.75 8.99982 10.75H8.24982V10C8.24982 9.58579 7.91403 9.25 7.49982 9.25ZM16.7498 12C16.3357 12.0001 15.9998 12.3359 15.9998 12.75C15.9998 13.1641 16.3357 13.4999 16.7498 13.5C17.164 13.5 17.4998 13.1642 17.4998 12.75C17.4998 12.3358 17.164 12 16.7498 12ZM15.2498 10.5C14.8357 10.5001 14.4998 10.8359 14.4998 11.25C14.4998 11.6641 14.8357 11.9999 15.2498 12C15.664 12 15.9998 11.6642 15.9998 11.25C15.9998 10.8358 15.664 10.5 15.2498 10.5ZM18.2498 10.5C17.8357 10.5001 17.4998 10.8359 17.4998 11.25C17.4998 11.6641 17.8357 11.9999 18.2498 12C18.664 12 18.9998 11.6642 18.9998 11.25C18.9998 10.8358 18.664 10.5 18.2498 10.5ZM16.7498 9C16.3357 9.00009 15.9998 9.33585 15.9998 9.75C15.9998 10.1641 16.3357 10.4999 16.7498 10.5C17.164 10.5 17.4998 10.1642 17.4998 9.75C17.4998 9.33579 17.164 9 16.7498 9Z" fill="#1C274C"/>
</svg>
