<svg width="24" height="24" viewBox="0 0 24 24" fill="none" xmlns="http://www.w3.org/2000/svg">
<path d="M7.71472 5C8.5923 5 9.44855 5.27235 10.1649 5.7793L10.6669 6.13477C11.0566 6.41054 11.5225 6.55856 11.9999 6.55859C12.4773 6.55859 12.9432 6.41046 13.3329 6.13477L13.8348 5.7793C14.5511 5.27233 15.4075 5 16.285 5H16.8973C17.3014 5 17.7099 5.02514 18.0907 5.16016C20.4734 6.00522 22.1125 9.09501 21.994 16.1025C21.9701 17.5144 21.6399 19.0754 20.3661 19.6846C19.9691 19.8745 19.5034 20 18.9735 20C18.3375 20 17.8321 19.819 17.4423 19.5635C17.0335 19.2956 16.6741 18.9467 16.3143 18.5986C15.8697 18.1684 15.4247 17.7389 14.8885 17.4609C14.3046 17.1582 13.6565 17 12.9989 17H11.0009C10.3433 17 9.69506 17.1582 9.11121 17.4609C8.57523 17.7389 8.13087 18.1686 7.6864 18.5986C7.32661 18.9467 6.96628 19.2956 6.5575 19.5635C6.16779 19.8188 5.66289 19.9999 5.02722 20C4.49738 20 4.03153 19.8744 3.63464 19.6846C2.36071 19.0754 2.02962 17.5144 2.00574 16.1025C1.8872 9.09503 3.52637 6.00522 5.90906 5.16016C6.28993 5.02508 6.6983 5.00001 7.10242 5H7.71472ZM7.49988 9.25C7.08575 9.25009 6.74988 9.58585 6.74988 10V10.75H5.99988C5.58575 10.7501 5.24988 11.0859 5.24988 11.5C5.24988 11.9141 5.58575 12.2499 5.99988 12.25H6.74988V13C6.74988 13.4141 7.08575 13.7499 7.49988 13.75C7.91409 13.75 8.24988 13.4142 8.24988 13V12.25H8.99988C9.41409 12.25 9.74988 11.9142 9.74988 11.5C9.74988 11.0858 9.41409 10.75 8.99988 10.75H8.24988V10C8.24988 9.58579 7.91409 9.25 7.49988 9.25ZM16.7499 12C16.3358 12.0001 15.9999 12.3359 15.9999 12.75C15.9999 13.1641 16.3358 13.4999 16.7499 13.5C17.1641 13.5 17.4999 13.1642 17.4999 12.75C17.4999 12.3358 17.1641 12 16.7499 12ZM15.2499 10.5C14.8358 10.5001 14.4999 10.8359 14.4999 11.25C14.4999 11.6641 14.8358 11.9999 15.2499 12C15.6641 12 15.9999 11.6642 15.9999 11.25C15.9999 10.8358 15.6641 10.5 15.2499 10.5ZM18.2499 10.5C17.8358 10.5001 17.4999 10.8359 17.4999 11.25C17.4999 11.6641 17.8358 11.9999 18.2499 12C18.6641 12 18.9999 11.6642 18.9999 11.25C18.9999 10.8358 18.6641 10.5 18.2499 10.5ZM16.7499 9C16.3358 9.00009 15.9999 9.33585 15.9999 9.75C15.9999 10.1641 16.3358 10.4999 16.7499 10.5C17.1641 10.5 17.4999 10.1642 17.4999 9.75C17.4999 9.33579 17.1641 9 16.7499 9Z" fill="#48465C"/>
</svg>
