<svg width="24" height="24" viewBox="0 0 24 24" fill="none" xmlns="http://www.w3.org/2000/svg">
<path d="M12.0312 1.25C12.3428 1.24998 12.5445 1.24955 12.751 1.26758C13.7138 1.35162 14.6514 1.74097 15.3916 2.3623C15.5504 2.49559 15.6956 2.64093 15.9209 2.86621L15.9443 2.88867L21.1338 8.0791C21.359 8.30437 21.5044 8.44963 21.6377 8.6084C22.2591 9.34859 22.6484 10.2862 22.7324 11.249C22.7504 11.4555 22.75 11.6573 22.75 11.9688V12.0576C22.75 14.3657 22.7502 16.1745 22.5605 17.5859C22.3662 19.0306 21.9602 20.1706 21.0654 21.0654C20.1706 21.9602 19.0306 22.3662 17.5859 22.5605C16.1745 22.7502 14.3657 22.75 12.0576 22.75H11.9424C9.63432 22.75 7.82544 22.7502 6.41406 22.5605C4.96932 22.3662 3.82938 21.9602 2.93457 21.0654C2.03978 20.1706 1.63369 19.0306 1.43945 17.5859C1.24974 16.1745 1.24999 14.3657 1.25 12.0576V11.9424C1.24999 9.63433 1.24974 7.82544 1.43945 6.41406C1.63369 4.96932 2.03976 3.82938 2.93457 2.93457C3.82938 2.03976 4.96932 1.63369 6.41406 1.43945C7.82544 1.24974 9.63433 1.24999 11.9424 1.25H12.0312ZM12 2.75C9.62178 2.75 7.91326 2.75199 6.61328 2.92676C5.33508 3.09865 4.56472 3.42551 3.99512 3.99512C3.42551 4.56472 3.09865 5.33509 2.92676 6.61328C2.75198 7.91326 2.75 9.62178 2.75 12C2.75 14.3782 2.75198 16.0867 2.92676 17.3867C3.09865 18.6649 3.42551 19.4352 3.99512 20.0049C4.56472 20.5745 5.33508 20.9014 6.61328 21.0732C7.91326 21.248 9.62178 21.25 12 21.25C14.3782 21.25 16.0867 21.248 17.3867 21.0732C18.6649 20.9014 19.4352 20.5745 20.0049 20.0049C20.5745 19.4352 20.9014 18.6649 21.0732 17.3867C21.248 16.0867 21.25 14.3782 21.25 12C21.25 11.6472 21.249 11.5135 21.2373 11.3799C21.18 10.724 20.9126 10.0765 20.4893 9.57227C20.4031 9.46956 20.3058 9.3722 20.0498 9.11621L14.8838 3.9502C14.6278 3.69421 14.5304 3.59697 14.4277 3.51074C13.9234 3.08744 13.276 2.81995 12.6201 2.7627C12.4865 2.75105 12.3528 2.75 12 2.75ZM12.5381 11.25C13.2075 11.25 13.7665 11.2499 14.2188 11.2959C14.6922 11.3441 15.1314 11.4493 15.5273 11.7139C15.8276 11.9145 16.0855 12.1724 16.2861 12.4727C16.5507 12.8686 16.656 13.3079 16.7041 13.7812C16.7501 14.2336 16.75 14.7925 16.75 15.4619V15.5381C16.75 16.2075 16.7501 16.7665 16.7041 17.2188C16.656 17.6922 16.5507 18.1314 16.2861 18.5273C16.0855 18.8276 15.8276 19.0855 15.5273 19.2861C15.1314 19.5507 14.6922 19.656 14.2188 19.7041C13.7664 19.7501 13.2076 19.75 12.5381 19.75H11.4619C10.7924 19.75 10.2336 19.7501 9.78125 19.7041C9.30784 19.656 8.86862 19.5507 8.47266 19.2861C8.17239 19.0855 7.91451 18.8276 7.71387 18.5273C7.44933 18.1314 7.34406 17.6922 7.2959 17.2188C7.24992 16.7665 7.24998 16.2076 7.25 15.5381V15.4619C7.24998 14.7924 7.24991 14.2336 7.2959 13.7812C7.34406 13.3079 7.44933 12.8686 7.71387 12.4727C7.9145 12.1724 8.17239 11.9145 8.47266 11.7139C8.86861 11.4493 9.30784 11.3441 9.78125 11.2959C10.2335 11.2499 10.7925 11.25 11.4619 11.25H12.5381ZM11.25 12.75C10.6674 12.7507 10.2557 12.7552 9.93262 12.7881C9.57788 12.8242 9.41409 12.8885 9.30566 12.9609C9.16919 13.0521 9.05213 13.1693 8.96094 13.3057C8.88849 13.4141 8.82419 13.5779 8.78809 13.9326C8.75072 14.3 8.75 14.7822 8.75 15.5C8.75 16.2178 8.75072 16.7 8.78809 17.0674C8.82419 17.4221 8.88849 17.5859 8.96094 17.6943C9.05213 17.8308 9.16919 17.9479 9.30566 18.0391C9.41409 18.1115 9.57788 18.1758 9.93262 18.2119C10.2557 18.2448 10.6674 18.2494 11.25 18.25V12.75ZM12.75 18.25C13.3326 18.2494 13.7443 18.2448 14.0674 18.2119C14.4221 18.1758 14.5859 18.1116 14.6943 18.0391C14.8308 17.9479 14.9479 17.8308 15.0391 17.6943C15.1115 17.5859 15.1758 17.4221 15.2119 17.0674C15.2345 16.8456 15.2433 16.5819 15.2471 16.25H12.75V18.25ZM12.75 14.75H15.2471C15.2433 14.4181 15.2345 14.1544 15.2119 13.9326C15.1758 13.5779 15.1116 13.4141 15.0391 13.3057C14.9479 13.1693 14.8308 13.0521 14.6943 12.9609C14.5859 12.8884 14.4221 12.8242 14.0674 12.7881C13.7443 12.7552 13.3326 12.7507 12.75 12.75V14.75Z" fill="#48465C"/>
</svg>
