<svg width="24" height="24" viewBox="0 0 24 24" fill="none" xmlns="http://www.w3.org/2000/svg">
<path d="M10.8672 6.57812C13.3913 6.57812 14.654 6.57835 15.5811 7.14648C16.0996 7.46433 16.5357 7.90036 16.8535 8.41895C17.4216 9.34607 17.4219 10.6087 17.4219 13.1328V13.9033C17.4219 15.6997 17.4214 16.5981 17.1279 17.3066C16.7366 18.2513 15.9866 19.0023 15.042 19.3936C14.5933 19.5795 14.0679 19.6469 13.2871 19.6719C12.4546 19.6985 12.0379 19.7125 11.7188 19.9014C11.3998 20.0902 11.1994 20.4287 10.7988 21.1055L10.5488 21.5273C10.1763 22.1568 9.24561 22.1568 8.87305 21.5273L8.62305 21.1055C8.2223 20.4284 8.02134 20.0902 7.70215 19.9014C7.38297 19.7125 6.96643 19.6985 6.13379 19.6719C5.35329 19.6469 4.82847 19.5794 4.37988 19.3936C3.43526 19.0023 2.68527 18.2512 2.29395 17.3066C2.00047 16.5981 2 15.6997 2 13.9033V13.1328C2 10.6087 2.00023 9.34607 2.56836 8.41895C2.88622 7.90034 3.32221 7.46433 3.84082 7.14648C4.76793 6.57835 6.0306 6.57812 8.55469 6.57812H10.8672ZM15.1699 2C16.3215 1.99999 17.2373 1.99952 17.9717 2.06934C18.7247 2.14093 19.3616 2.29121 19.9287 2.63867C20.5123 2.99631 21.0028 3.48769 21.3604 4.07129C21.708 4.63855 21.8581 5.27518 21.9297 6.02832C21.9995 6.76275 22 7.67854 22 8.83008V9.61719C22 10.4367 22 11.0885 21.9639 11.6172C21.927 12.158 21.8501 12.6227 21.6699 13.0576C21.2297 14.1203 20.385 14.9651 19.3223 15.4053C19.2958 15.4162 19.269 15.4264 19.2422 15.4365C19.1139 15.4856 19.0037 15.5283 18.9072 15.5596C18.9212 15.0909 18.9219 14.5565 18.9219 13.9541V13.0615C18.9219 11.86 18.9215 10.8534 18.8438 10.0352C18.7624 9.17859 18.5854 8.37447 18.1328 7.63574C17.6912 6.91513 17.0849 6.30878 16.3643 5.86719C15.6254 5.41451 14.8216 5.23769 13.9648 5.15625C13.1466 5.07844 12.14 5.07809 10.9385 5.07812H8.4834C7.66731 5.0781 6.94102 5.07818 6.30273 5.10254C6.33247 4.99949 6.37308 4.88083 6.4209 4.74219C6.50219 4.50658 6.60513 4.28383 6.73535 4.07129C7.09297 3.48771 7.58343 2.99632 8.16699 2.63867C8.73424 2.29106 9.37182 2.14095 10.125 2.06934C10.8594 1.99954 11.7752 1.99999 12.9268 2H15.1699ZM6.33691 12.3613C5.80479 12.3616 5.37305 12.793 5.37305 13.3252C5.3731 13.8573 5.80482 14.2888 6.33691 14.2891C6.8692 14.2891 7.30073 13.8575 7.30078 13.3252C7.30078 12.7929 6.86923 12.3613 6.33691 12.3613ZM9.71094 12.3613C9.17862 12.3613 8.74707 12.7929 8.74707 13.3252C8.74712 13.8575 9.17865 14.2891 9.71094 14.2891C10.2432 14.289 10.6748 13.8574 10.6748 13.3252C10.6748 12.7929 10.2433 12.3614 9.71094 12.3613ZM13.084 12.3613C12.5518 12.3615 12.1201 12.793 12.1201 13.3252C12.1202 13.8573 12.5519 14.2889 13.084 14.2891C13.6164 14.2891 14.0478 13.8575 14.0479 13.3252C14.0479 12.7929 13.6164 12.3613 13.084 12.3613Z" fill="#48465C"/>
</svg>
