<svg width="24" height="24" viewBox="0 0 24 24" fill="none" xmlns="http://www.w3.org/2000/svg">
<path d="M20.1555 16.0776C21.2815 17.2037 21.2815 19.0297 20.1555 20.1558C19.0294 21.2817 17.2035 21.2818 16.0774 20.1558L6.49048 10.5679C6.50414 10.5561 6.51754 10.5437 6.53052 10.5308L10.5305 6.53076C10.5435 6.51783 10.5558 6.50433 10.5676 6.49072L20.1555 16.0776ZM5.13306 15.3071C5.29401 14.8977 5.87145 14.8977 6.03247 15.3071L6.1897 15.7065C6.23884 15.8316 6.33758 15.9307 6.46216 15.98L6.85962 16.1372C7.2677 16.2987 7.2677 16.879 6.85962 17.0405L6.46216 17.1978C6.33757 17.2471 6.23884 17.3461 6.1897 17.4712L6.03247 17.8706C5.87141 18.2799 5.29405 18.28 5.13306 17.8706L4.97583 17.4712C4.92674 17.3462 4.82874 17.2471 4.70435 17.1978L4.30591 17.0405C3.89785 16.879 3.89787 16.2987 4.30591 16.1372L4.70435 15.98C4.82872 15.9307 4.92672 15.8315 4.97583 15.7065L5.13306 15.3071ZM19.967 9.12939C20.1279 8.71992 20.7055 8.71998 20.8665 9.12939L21.0237 9.52881C21.0729 9.65385 21.1715 9.75294 21.2961 9.80225L21.6936 9.95947C22.1017 10.121 22.1017 10.7013 21.6936 10.8628L21.2961 11.02C21.1715 11.0693 21.0729 11.1685 21.0237 11.2935L20.8665 11.6929C20.7054 12.1022 20.128 12.1023 19.967 11.6929L19.8098 11.2935C19.7607 11.1686 19.6627 11.0694 19.5383 11.02L19.1399 10.8628C18.7319 10.7013 18.7319 10.121 19.1399 9.95947L19.5383 9.80225C19.6627 9.7529 19.7606 9.65368 19.8098 9.52881L19.967 9.12939ZM3.84497 3.84424C4.97095 2.71868 6.7962 2.71858 7.92212 3.84424L9.51001 5.43213C9.49627 5.44402 9.48303 5.45716 9.46997 5.47021L5.46997 9.47021C5.45693 9.48326 5.44376 9.49652 5.43188 9.51025L3.84497 7.92236C2.71893 6.79633 2.71893 4.97027 3.84497 3.84424ZM16.0999 2.30713C16.2609 1.89765 16.8383 1.89772 16.9993 2.30713L17.4299 3.40283C17.4792 3.52774 17.5779 3.62699 17.7024 3.67627L18.7932 4.10791C19.2013 4.26945 19.2013 4.84871 18.7932 5.01025L17.7024 5.44287C17.5778 5.49219 17.4791 5.59126 17.4299 5.71631L16.9993 6.81104C16.8383 7.22063 16.2609 7.22062 16.0999 6.81104L15.6702 5.71631C15.621 5.59141 15.5221 5.49225 15.3977 5.44287L14.3059 5.01025C13.8982 4.84858 13.8981 4.26951 14.3059 4.10791L15.3977 3.67627C15.5222 3.62693 15.621 3.52776 15.6702 3.40283L16.0999 2.30713Z" fill="#1C274C"/>
</svg>
