<svg width="24" height="24" viewBox="0 0 24 24" fill="none" xmlns="http://www.w3.org/2000/svg">
<path d="M17 3.25C17.4142 3.25 17.75 3.58579 17.75 4V17.75L19.4004 15.5498C19.649 15.2187 20.1189 15.152 20.4502 15.4004C20.7813 15.649 20.848 16.1189 20.5996 16.4502L17.5996 20.4502C17.4059 20.7083 17.0689 20.814 16.7627 20.7119C16.4565 20.6098 16.25 20.3228 16.25 20V4C16.25 3.58579 16.5858 3.25 17 3.25ZM13 15.25C13.4142 15.25 13.75 15.5858 13.75 16C13.75 16.4142 13.4142 16.75 13 16.75H4C3.58579 16.75 3.25 16.4142 3.25 16C3.25 15.5858 3.58579 15.25 4 15.25H13ZM13 10.25C13.4142 10.25 13.75 10.5858 13.75 11C13.75 11.4142 13.4142 11.75 13 11.75H6C5.58579 11.75 5.25 11.4142 5.25 11C5.25 10.5858 5.58579 10.25 6 10.25H13ZM13 5.25C13.4142 5.25 13.75 5.58579 13.75 6C13.75 6.41421 13.4142 6.75 13 6.75H8C7.58579 6.75 7.25 6.41421 7.25 6C7.25 5.58579 7.58579 5.25 8 5.25H13Z" fill="#48465C"/>
</svg>
