<svg width="24" height="24" viewBox="0 0 24 24" fill="none" xmlns="http://www.w3.org/2000/svg">
<path d="M17.8857 5.23145C17.9864 5.22969 18.0864 5.24844 18.1797 5.28613C18.273 5.32381 18.3575 5.38007 18.4287 5.45117C18.4998 5.52225 18.556 5.60703 18.5938 5.7002C18.6315 5.79358 18.6502 5.89441 18.6484 5.99512C18.6466 6.09571 18.6249 6.19521 18.584 6.28711C18.543 6.37901 18.4838 6.46167 18.4102 6.53027L12.9404 12L18.4102 17.4707C18.4837 17.5393 18.543 17.622 18.584 17.7139C18.6249 17.8058 18.6467 17.9052 18.6484 18.0059C18.6502 18.1065 18.6315 18.2065 18.5938 18.2998C18.556 18.3931 18.4999 18.4776 18.4287 18.5488C18.3575 18.62 18.2731 18.6771 18.1797 18.7148C18.0864 18.7525 17.9863 18.7703 17.8857 18.7686C17.7851 18.7668 17.6857 18.745 17.5938 18.7041C17.5018 18.6631 17.4183 18.604 17.3496 18.5303L11.8799 13.0605L6.41016 18.5303C6.26802 18.6627 6.07998 18.7348 5.88574 18.7314C5.69144 18.728 5.50558 18.6491 5.36816 18.5117C5.23097 18.3744 5.15194 18.1892 5.14844 17.9951C5.14501 17.801 5.21741 17.6128 5.34961 17.4707L10.8203 12L5.34961 6.53027C5.2173 6.38816 5.14504 6.20001 5.14844 6.00586C5.15187 5.81156 5.23075 5.62569 5.36816 5.48828C5.50557 5.35089 5.69145 5.27296 5.88574 5.26953C6.07998 5.26615 6.26802 5.33826 6.41016 5.4707L11.8799 10.9404L17.3496 5.4707C17.4183 5.39702 17.5018 5.33787 17.5938 5.29688C17.6857 5.25589 17.785 5.23322 17.8857 5.23145Z" fill="#48465C"/>
</svg>
