<svg width="24" height="24" viewBox="0 0 24 24" fill="none" xmlns="http://www.w3.org/2000/svg">
<path d="M11.8721 1.25C13.909 1.25007 15.6446 1.99903 16.6377 3.60547C16.8555 3.95773 16.7467 4.41984 16.3945 4.6377C16.0422 4.85545 15.5801 4.74669 15.3623 4.39453C14.7131 3.34445 13.5395 2.75006 11.8721 2.75C10.5453 2.75 9.53585 3.12864 8.86035 3.79199C8.18775 4.45253 7.75 5.48967 7.75 7V7.00098C9.11513 6.96827 10.6105 7.53307 12 8.93066C16.0499 4.85705 21 7.86237 21 12.0996C20.9998 15.9376 18.032 18.152 15.5049 20.0371C15.2422 20.233 14.9838 20.425 14.7344 20.6152C13.8 21.3283 12.9 22 12 22C11.1 22 10.2001 21.3283 9.26562 20.6152C9.01645 20.425 8.7586 20.2329 8.49609 20.0371C5.9689 18.152 3.00021 15.9377 3 12.0996C3 9.8737 4.36604 7.98732 6.25 7.28906V7C6.25 5.19677 6.78025 3.73368 7.80957 2.72266C8.83617 1.71448 10.2637 1.25 11.8721 1.25ZM12 11.25C11.5858 11.25 11.25 11.5858 11.25 12V14.5C11.25 14.9142 11.5858 15.25 12 15.25C12.4142 15.25 12.75 14.9142 12.75 14.5V12C12.75 11.5858 12.4142 11.25 12 11.25Z" fill="#1C274C"/>
</svg>
