<svg width="24" height="24" viewBox="0 0 24 24" fill="none" xmlns="http://www.w3.org/2000/svg">
<path d="M6.99988 20C7.55216 20 7.99988 20.4477 7.99988 21C7.99988 21.5523 7.55216 22 6.99988 22C6.44766 21.9999 5.99988 21.5522 5.99988 21C5.99988 20.4478 6.44766 20.0001 6.99988 20ZM16.9999 20C17.5522 20 17.9999 20.4477 17.9999 21C17.9999 21.5523 17.5522 22 16.9999 22C16.4477 21.9999 15.9999 21.5522 15.9999 21C15.9999 20.4478 16.4477 20.0001 16.9999 20ZM20.4423 16.498C20.7194 16.1902 21.1939 16.1653 21.5018 16.4424C21.8097 16.7195 21.8346 17.1941 21.5575 17.502L20.9491 18.1777C20.0483 19.1785 18.7652 19.7499 17.4188 19.75H6.58191C5.23535 19.75 3.95146 19.1786 3.05066 18.1777L2.44226 17.502C2.16524 17.1941 2.1902 16.7195 2.49792 16.4424C2.80576 16.1653 3.28037 16.1903 3.5575 16.498L4.16589 17.1738C4.78223 17.8587 5.66058 18.25 6.58191 18.25H17.4188C18.34 18.2499 19.2175 17.8586 19.8339 17.1738L20.4423 16.498ZM10.2098 6.04688C11.6037 5.17578 13.3358 5.04211 14.8466 5.68945C16.0281 6.19583 16.3247 7.73548 15.4159 8.64453L13.7616 10.2988C13.4123 10.6483 13.4386 11.2227 13.8182 11.5391L14.8143 12.3691C15.4071 12.8631 15.7498 13.5947 15.7499 14.3662V16.5C15.7499 16.9142 15.4141 17.25 14.9999 17.25C14.5857 17.2499 14.2499 16.9141 14.2499 16.5V14.3662C14.2498 14.0398 14.1051 13.7303 13.8544 13.5215L12.8583 12.6914C11.801 11.8105 11.728 10.2114 12.701 9.23828L14.3553 7.58398C14.5138 7.42531 14.4618 7.1567 14.2557 7.06836C13.1966 6.61447 11.9819 6.70762 11.0048 7.31836L8.89734 8.63574C8.54609 8.85524 8.08366 8.74869 7.86414 8.39746C7.64465 8.04628 7.75133 7.58384 8.10242 7.36426L10.2098 6.04688ZM10.4696 13.4697C10.7625 13.1769 11.2372 13.1769 11.5302 13.4697C11.8231 13.7626 11.8231 14.2374 11.5302 14.5303L10.9091 15.1514C10.8844 15.1762 10.8601 15.2013 10.8358 15.2256C10.4764 15.5861 10.1573 15.9063 9.74011 16.0791C9.32281 16.252 8.87032 16.2508 8.36121 16.25H6.99988C6.58573 16.2499 6.24988 15.9141 6.24988 15.5C6.24988 15.0859 6.58573 14.7501 6.99988 14.75H8.25769C8.93171 14.75 9.06013 14.7371 9.16589 14.6934C9.27167 14.6496 9.37169 14.5676 9.84851 14.0908L10.4696 13.4697ZM19.4999 9.25C19.9141 9.25 20.2499 9.58579 20.2499 10C20.2499 10.4142 19.9141 10.75 19.4999 10.75H16.4999C16.0857 10.7499 15.7499 10.4141 15.7499 10C15.7499 9.58584 16.0857 9.25008 16.4999 9.25H19.4999ZM18.9999 1.25C20.5187 1.25 21.7499 2.48122 21.7499 4C21.7499 5.51878 20.5187 6.75 18.9999 6.75C17.4811 6.74992 16.2499 5.51873 16.2499 4C16.2499 2.48127 17.4811 1.25008 18.9999 1.25ZM18.9999 2.75C18.3096 2.75008 17.7499 3.30969 17.7499 4C17.7499 4.69031 18.3096 5.24992 18.9999 5.25C19.6903 5.25 20.2499 4.69036 20.2499 4C20.2499 3.30964 19.6903 2.75 18.9999 2.75Z" fill="#1C274C"/>
</svg>
