<svg width="24" height="24" viewBox="0 0 24 24" fill="none" xmlns="http://www.w3.org/2000/svg">
<path d="M14.0501 15.4004C14.3814 15.1519 14.8514 15.2186 15.0999 15.5498L16.1419 16.9395C16.1757 16.9844 16.1851 16.9969 16.1937 17.0078C16.358 17.2154 16.584 17.3656 16.8392 17.4365C16.8526 17.4402 16.868 17.4443 16.9232 17.458L18.4075 17.8291C19.7842 18.1733 20.7503 19.4102 20.7503 20.8291C20.7501 21.8901 19.8893 22.75 18.8284 22.75H16.5081C15.9065 22.75 15.5355 22.7501 15.1663 22.7021C14.9754 22.6773 14.7854 22.6424 14.598 22.5986C14.2354 22.5139 13.8878 22.3841 13.3245 22.1729L11.1214 21.3467C10.7409 21.6318 10.4899 21.8165 10.223 21.9717C9.54196 22.3675 8.78644 22.6189 8.00421 22.7109C7.66947 22.7503 7.32884 22.75 6.7757 22.75H5.1712C4.11027 22.75 3.25047 21.8901 3.25031 20.8291C3.25031 19.4103 4.21564 18.1734 5.5921 17.8291L7.07745 17.458C7.13235 17.4444 7.14711 17.4402 7.16046 17.4365C7.41563 17.3657 7.64159 17.2154 7.80597 17.0078C7.81458 16.9969 7.82467 16.9848 7.8587 16.9395L8.89972 15.5498C9.14822 15.2184 9.61816 15.152 9.94952 15.4004C10.2808 15.6489 10.3484 16.1188 10.0999 16.4502L9.05402 17.8447C9.02672 17.8811 9.0049 17.9105 8.98273 17.9385C8.62107 18.3956 8.12342 18.7259 7.56183 18.8818C7.52744 18.8914 7.49259 18.9001 7.44855 18.9111L5.95636 19.2842C5.24751 19.4615 4.75031 20.0985 4.75031 20.8291C4.75047 21.0616 4.9387 21.25 5.1712 21.25H6.72687C7.34328 21.25 7.59226 21.2486 7.82941 21.2207C8.40754 21.1528 8.96576 20.9674 9.46906 20.6748C9.67549 20.5548 9.87531 20.4059 10.3685 20.0361L10.5501 19.9004L12.5501 18.4004C12.8814 18.1519 13.3514 18.2186 13.5999 18.5498C13.8484 18.8812 13.7809 19.3511 13.4495 19.5996L12.5452 20.2783L13.803 20.75C14.4297 20.985 14.6828 21.0786 14.9398 21.1387C15.078 21.171 15.2179 21.1966 15.3587 21.2148C15.6204 21.2488 15.8906 21.25 16.5599 21.25H18.8284C19.0609 21.25 19.2501 21.0616 19.2503 20.8291C19.2503 20.0987 18.7529 19.4616 18.0443 19.2842L16.5511 18.9111C16.5074 18.9002 16.473 18.8914 16.4388 18.8818C15.8771 18.7259 15.3786 18.3957 15.0169 17.9385C14.9948 17.9106 14.9738 17.881 14.9466 17.8447L14.9417 17.8389L13.8997 16.4502C13.6513 16.1188 13.7188 15.6489 14.0501 15.4004ZM10.8821 8.34277C11.6175 8.21892 12.382 8.21896 13.1175 8.34277C16.3477 8.88686 18.7503 11.7143 18.7503 15.0195V15.0234L21.3382 16.3311C21.7077 16.5179 21.8559 16.9683 21.6693 17.3379C21.4825 17.7076 21.0311 17.8557 20.6614 17.6689L18.0726 16.3613C17.5655 16.105 17.2503 15.5841 17.2503 15.0195C17.2503 12.4461 15.3761 10.2447 12.8685 9.82227C12.2979 9.72619 11.7018 9.72617 11.1312 9.82227C8.62356 10.2447 6.75034 12.4461 6.75031 15.0195C6.75031 15.5841 6.43426 16.105 5.92706 16.3613L3.3382 17.6689C2.96851 17.8557 2.51719 17.7076 2.33038 17.3379C2.14391 16.9684 2.29217 16.5179 2.66144 16.3311L5.24933 15.0234L5.25031 15.0195C5.25034 11.7143 7.65187 8.88686 10.8821 8.34277ZM12.0003 1.25C13.7951 1.25016 15.2503 2.70517 15.2503 4.5C15.2503 6.29483 13.7951 7.74984 12.0003 7.75C10.2054 7.75 8.75031 6.29493 8.75031 4.5C8.75031 2.70507 10.2054 1.25 12.0003 1.25ZM12.0003 2.75C11.0338 2.75 10.2503 3.5335 10.2503 4.5C10.2503 5.4665 11.0338 6.25 12.0003 6.25C12.9667 6.24984 13.7503 5.4664 13.7503 4.5C13.7503 3.5336 12.9667 2.75016 12.0003 2.75Z" fill="#1C274C"/>
</svg>
