<svg width="24" height="24" viewBox="0 0 24 24" fill="none" xmlns="http://www.w3.org/2000/svg">
<path d="M12.7637 6.19189C15.1374 4.54772 16.3241 3.72539 17.3203 4.08252C17.5112 4.15099 17.6962 4.24974 17.8613 4.37158C18.7222 5.00746 18.7882 6.48668 18.9189 9.44482C18.9674 10.5401 19 11.4779 19 11.9995C19 12.521 18.9674 13.4588 18.9189 14.5542C18.7881 17.5127 18.7224 18.9926 17.8613 19.6284C17.6962 19.7503 17.5112 19.849 17.3203 19.9175C16.3241 20.2746 15.1373 19.4522 12.7637 17.8081C12.1621 17.3913 11.8609 17.1831 11.5254 17.062C11.4557 17.0368 11.3848 17.0149 11.3135 16.9956C10.9701 16.9028 10.6099 16.9028 9.88965 16.9028C7.87295 16.9028 6.86438 16.9022 6.10059 16.2671C5.96118 16.1511 5.79403 15.9803 5.68066 15.8364C5.05963 15.0479 5.04081 14.1266 5.00293 12.2847C5.00093 12.188 5 12.0923 5 11.9995C5 11.9068 5.00093 11.8119 5.00293 11.7153C5.04082 9.87327 5.05972 8.95204 5.68066 8.16357C5.79403 8.01964 5.96118 7.84887 6.10059 7.73291C6.86439 7.09768 7.87284 7.09717 9.88965 7.09717C10.6099 7.09717 10.9701 7.09721 11.3135 7.00439C11.3848 6.9851 11.4557 6.96313 11.5254 6.93799C11.8609 6.81692 12.1621 6.60865 12.7637 6.19189Z" fill="#48465C"/>
</svg>
