<svg width="24" height="24" viewBox="0 0 24 24" fill="none" xmlns="http://www.w3.org/2000/svg">
<path d="M13 2C16.7712 2 18.6566 2.00031 19.8281 3.17188C20.3938 3.73757 20.6866 4.46947 20.8379 5.5C19.9002 5.49984 18.9624 5.85786 18.2471 6.57324L18.1201 6.7002L17.0078 7.81152L13.002 11.8184C12.732 12.0881 12.511 12.3091 12.3164 12.5586C12.0883 12.8509 11.8919 13.1673 11.7324 13.502C11.5964 13.7875 11.4985 14.0843 11.3779 14.4463L11.3555 14.5117L10.8809 15.9375L10.6074 16.7578C10.3578 17.5064 10.5525 18.3316 11.1104 18.8896C11.6683 19.4476 12.4936 19.643 13.2422 19.3936L15.5537 18.6221C15.9157 18.5016 16.2124 18.4036 16.498 18.2676C16.8326 18.1081 17.1491 17.9125 17.4414 17.6846C17.6909 17.4899 17.9118 17.2679 18.1816 16.998L21 14.1797C20.9997 17.8312 20.9809 19.6753 19.8281 20.8281C18.6566 21.9997 16.7712 22 13 22H11C7.22878 22 5.34346 21.9997 4.17188 20.8281C3.00031 19.6566 3 17.7712 3 14V10C3 6.22876 3.00031 4.34346 4.17188 3.17188C5.34345 2.00031 7.22876 2 11 2H13ZM18.0684 8.87207C18.1639 8.77642 18.3296 8.82048 18.374 8.94824C18.536 9.41536 18.8398 10.0234 19.4082 10.5918C19.9766 11.1602 20.5847 11.464 21.0518 11.626C21.1795 11.6704 21.2235 11.8361 21.1279 11.9316L17.1699 15.8887C16.8525 16.2061 16.6935 16.3645 16.5186 16.501C16.3121 16.662 16.0889 16.8005 15.8525 16.9131C15.6523 17.0085 15.4393 17.0798 15.0137 17.2217L14.4629 17.4053L13.5879 17.6963L12.7676 17.9697C12.558 18.0395 12.3272 17.9853 12.1709 17.8291C12.0147 17.6728 11.9605 17.442 12.0303 17.2324L12.3037 16.4121L12.5947 15.5371L12.7783 14.9863C12.9202 14.5606 12.9915 14.3477 13.0869 14.1475C13.1995 13.9111 13.338 13.6879 13.499 13.4814C13.6355 13.3065 13.7939 13.1475 14.1113 12.8301L18.0684 8.87207ZM8 16.25C7.58579 16.25 7.25 16.5858 7.25 17C7.25 17.4142 7.58579 17.75 8 17.75H9.5C9.91421 17.75 10.25 17.4142 10.25 17C10.25 16.5858 9.91421 16.25 9.5 16.25H8ZM8 12.25C7.58579 12.25 7.25 12.5858 7.25 13C7.25 13.4142 7.58579 13.75 8 13.75H10.5C10.9142 13.75 11.25 13.4142 11.25 13C11.25 12.5858 10.9142 12.25 10.5 12.25H8ZM19.3076 7.63379C20.1523 6.78916 21.5216 6.78917 22.3662 7.63379C23.2109 8.47843 23.2109 9.84772 22.3662 10.6924L22.2393 10.8193C22.1165 10.9421 21.9452 10.9974 21.7744 10.9668C21.6669 10.9475 21.5098 10.9117 21.3223 10.8467C20.9473 10.7166 20.455 10.4707 19.9922 10.0078C19.5293 9.54501 19.2834 9.0528 19.1533 8.67773C19.0883 8.49029 19.0525 8.33304 19.0332 8.22559C19.0026 8.05477 19.0579 7.88346 19.1807 7.76074L19.3076 7.63379ZM8 8.25C7.58579 8.25 7.25 8.58579 7.25 9C7.25 9.41421 7.58579 9.75 8 9.75H14.5C14.9142 9.75 15.25 9.41421 15.25 9C15.25 8.58579 14.9142 8.25 14.5 8.25H8Z" fill="#48465C"/>
</svg>
