<svg width="24" height="24" viewBox="0 0 24 24" fill="none" xmlns="http://www.w3.org/2000/svg">
<path d="M11.9998 2C16.1325 2 18.1992 1.99997 18.8016 3.29883C18.8534 3.41051 18.8974 3.52724 18.9325 3.64648C19.3412 5.03356 17.8799 6.64129 14.9579 9.85645L12.9998 12L14.9579 14.1436C17.8799 17.3587 19.3412 18.9664 18.9325 20.3535C18.8974 20.4727 18.8534 20.5895 18.8016 20.7012C18.1992 22 16.1325 22 11.9998 22C7.86718 22 5.80044 22.0001 5.19809 20.7012C5.14633 20.5895 5.1024 20.4727 5.06723 20.3535C4.65863 18.9665 6.1199 17.3586 9.04184 14.1436L10.9998 12L9.04184 9.85645C6.11991 6.64143 4.65863 5.03352 5.06723 3.64648C5.1024 3.52724 5.14633 3.41051 5.19809 3.29883C5.80043 1.9999 7.86716 2 11.9998 2Z" fill="#1C274C"/>
</svg>
