<svg width="24" height="24" viewBox="0 0 24 24" fill="none" xmlns="http://www.w3.org/2000/svg">
<path fill-rule="evenodd" clip-rule="evenodd" d="M18.364 3.05664C18.7782 3.05664 19.114 3.39243 19.114 3.80664V8.04883C19.114 8.46304 18.7782 8.79883 18.364 8.79883H14.1218C13.7076 8.79883 13.3718 8.46304 13.3718 8.04883C13.372 7.63483 13.7077 7.29883 14.1218 7.29883H16.4821C13.6368 5.05584 9.49897 5.24716 6.87373 7.87207C4.04242 10.7034 4.04242 15.2947 6.87373 18.126C9.70502 20.9569 14.2955 20.9571 17.1267 18.126C19.0235 16.2291 19.6501 13.542 19.0036 11.1211C18.8967 10.721 19.1348 10.3101 19.5349 10.2031C19.9351 10.0962 20.3459 10.3342 20.4528 10.7344C21.2317 13.6512 20.4779 16.8958 18.1872 19.1865C14.7702 22.6033 9.23023 22.6032 5.81318 19.1865C2.39609 15.7694 2.39609 10.2286 5.81318 6.81152C9.04521 3.57983 14.1763 3.40529 17.614 6.28711V3.80664C17.614 3.39245 17.9497 3.05667 18.364 3.05664Z" fill="#1C274C"/>
</svg>
