<svg width="24" height="24" viewBox="0 0 24 24" fill="none" xmlns="http://www.w3.org/2000/svg">
<path d="M6.25293 12C6.70069 12.0002 7.09254 12.2741 7.40918 12.5908L10.4092 15.5908C11.2879 16.4695 12.7121 16.4695 13.5908 15.5908L16.5908 12.5908C16.9075 12.274 17.3 12 17.748 12H20C20 16.4183 16.4183 20 12 20C7.58172 20 4 16.4183 4 12H6.25293ZM12 3.25C12.4142 3.25 12.75 3.58579 12.75 4V12.1895L14.4697 10.4697C14.7626 10.1768 15.2374 10.1768 15.5303 10.4697C15.8232 10.7626 15.8232 11.2374 15.5303 11.5303L12.5303 14.5303C12.2374 14.8232 11.7626 14.8232 11.4697 14.5303L8.46973 11.5303C8.17684 11.2374 8.17684 10.7626 8.46973 10.4697C8.76261 10.1768 9.23739 10.1768 9.53027 10.4697L11.25 12.1895V4C11.25 3.58579 11.5858 3.25 12 3.25Z" fill="#48465C"/>
</svg>
