<svg width="24" height="24" viewBox="0 0 24 24" fill="none" xmlns="http://www.w3.org/2000/svg">
<path d="M16 9C18.8284 9 20.2424 9.00023 21.1211 9.87891C21.9998 10.7576 22 12.1716 22 15V16C22 18.8283 21.9998 20.2424 21.1211 21.1211C20.2424 21.9997 18.8283 22 16 22H8C5.17169 22 3.75759 21.9997 2.87891 21.1211C2.00025 20.2424 2 18.8283 2 16V15C2 12.1716 2.00023 10.7576 2.87891 9.87891C3.75759 9.00023 5.17157 9 8 9C8.70227 9 9.05343 9.0004 9.30566 9.16895C9.41467 9.24182 9.50817 9.33534 9.58105 9.44434C9.7496 9.69658 9.75 10.0478 9.75 10.75V15C9.75 16.2426 10.7574 17.25 12 17.25C13.2427 17.25 14.25 16.2426 14.25 15V10.75C14.25 10.0478 14.2503 9.69655 14.4189 9.44434C14.4918 9.33534 14.5854 9.24183 14.6943 9.16895C14.9465 9.00044 15.2978 9 16 9ZM12 1.25C12.2188 1.25 12.4269 1.34557 12.5693 1.51172L15.5693 5.01172C15.8389 5.32616 15.8026 5.79975 15.4883 6.06934C15.1738 6.33887 14.7002 6.30266 14.4307 5.98828L12.75 4.02734V15C12.75 15.4142 12.4142 15.75 12 15.75C11.5858 15.75 11.25 15.4142 11.25 15V4.02734L9.56934 5.98828C9.29975 6.30263 8.82615 6.33886 8.51172 6.06934C8.19738 5.79975 8.16114 5.32615 8.43066 5.01172L11.4307 1.51172C11.5731 1.34557 11.7812 1.25 12 1.25Z" fill="#1C274C"/>
</svg>
