<svg width="24" height="24" viewBox="0 0 24 24" fill="none" xmlns="http://www.w3.org/2000/svg">
<path fill-rule="evenodd" clip-rule="evenodd" d="M5 1.25C7.03422 1.25 8.74978 2.82579 8.75 4.84961V15.585C8.75004 16.128 8.75015 16.4696 8.70606 16.8086C8.65411 17.2076 8.5561 17.5994 8.41504 17.9775C8.29532 18.2983 8.13572 18.6029 7.87989 19.0889L6.3877 21.9248C6.11435 22.4441 5.5704 22.75 5 22.75C4.4296 22.75 3.88565 22.4441 3.61231 21.9248L2.12012 19.0889C1.86429 18.6029 1.70468 18.2984 1.58496 17.9775C1.4439 17.5994 1.34589 17.2076 1.29395 16.8086C1.24985 16.4696 1.24996 16.128 1.25 15.585V4.84961C1.25023 2.82579 2.96578 1.25001 5 1.25ZM18.0518 1.25C18.9503 1.24997 19.7001 1.25012 20.2949 1.33008C20.9225 1.41451 21.4889 1.60032 21.9443 2.05567C22.3996 2.51102 22.5855 3.07747 22.6699 3.70508C22.7499 4.29987 22.75 5.04976 22.75 5.94824V18.0518C22.75 18.9503 22.7499 19.7001 22.6699 20.2949C22.5855 20.9226 22.3996 21.489 21.9443 21.9443C21.489 22.3997 20.9225 22.5855 20.2949 22.6699C19.7001 22.7499 18.9503 22.75 18.0518 22.75H15.9482C15.0497 22.75 14.2999 22.7499 13.7051 22.6699C13.0775 22.5855 12.511 22.3997 12.0557 21.9443C11.6003 21.489 11.4145 20.9225 11.3301 20.2949C11.2501 19.7001 11.25 18.9503 11.25 18.0518V5.94824C11.25 5.04976 11.2501 4.29987 11.3301 3.70508C11.4145 3.07748 11.6003 2.51102 12.0557 2.05567C12.511 1.6003 13.0775 1.41452 13.7051 1.33008C14.2999 1.25012 15.0497 1.24997 15.9482 1.25H18.0518ZM16 2.75C15.036 2.75 14.3883 2.75147 13.9053 2.81641C13.4439 2.87845 13.2465 2.98591 13.1162 3.11621C12.9859 3.24652 12.8785 3.44389 12.8164 3.90527C12.77 4.25077 12.7562 4.68057 12.752 5.25H14C14.4142 5.25 14.75 5.58579 14.75 6C14.75 6.41422 14.4142 6.75 14 6.75H12.75V8.25H15C15.4142 8.25 15.75 8.58579 15.75 9C15.75 9.41422 15.4142 9.75 15 9.75H12.75V11.25H14C14.4142 11.25 14.75 11.5858 14.75 12C14.75 12.4142 14.4142 12.75 14 12.75H12.75V14.25H15C15.4142 14.25 15.75 14.5858 15.75 15C15.75 15.4142 15.4142 15.75 15 15.75H12.75V17.25H14C14.4142 17.25 14.75 17.5858 14.75 18C14.75 18.4142 14.4142 18.75 14 18.75H12.752C12.7562 19.3194 12.77 19.7492 12.8164 20.0947C12.8785 20.5561 12.9859 20.7535 13.1162 20.8838C13.2465 21.0141 13.4439 21.1215 13.9053 21.1836C14.3883 21.2485 15.036 21.25 16 21.25H18C18.964 21.25 19.6117 21.2485 20.0947 21.1836C20.5562 21.1215 20.7535 21.0141 20.8838 20.8838C21.0141 20.7535 21.1215 20.5562 21.1836 20.0947C21.2485 19.6117 21.25 18.964 21.25 18V6C21.25 5.03599 21.2485 4.38831 21.1836 3.90527C21.1215 3.44389 21.0141 3.24652 20.8838 3.11621C20.7535 2.98591 20.5561 2.87845 20.0947 2.81641C19.6117 2.75147 18.964 2.75 18 2.75H16ZM7.25 7.07129C6.67723 7.3008 5.91571 7.5 5 7.5C4.08428 7.5 3.32277 7.30081 2.75 7.07129V15.5342C2.75 16.1437 2.75125 16.3834 2.78125 16.6143C2.8184 16.8998 2.88878 17.1812 2.99024 17.4531C3.07254 17.6737 3.18464 17.8902 3.47168 18.4355L4.44043 20.2773H5.55957L6.52832 18.4355C6.81537 17.8902 6.92746 17.6737 7.00977 17.4531C7.11123 17.1812 7.1816 16.8998 7.21875 16.6143C7.24876 16.3834 7.25 16.1437 7.25 15.5342V7.07129ZM5 2.75C3.7208 2.75001 2.75023 3.72577 2.75 4.84961V5.40527C2.84629 5.46246 2.96703 5.52772 3.11035 5.59375C3.54797 5.79532 4.19123 6 5 6C5.80877 6 6.45203 5.79532 6.88965 5.59375C7.03297 5.52772 7.15371 5.46246 7.25 5.40527V4.84961C7.24978 3.72577 6.2792 2.75 5 2.75Z" fill="#1C274C"/>
</svg>
