<svg width="24" height="24" viewBox="0 0 24 24" fill="none" xmlns="http://www.w3.org/2000/svg">
<path d="M12 1.25C12.4142 1.25 12.75 1.58579 12.75 2C12.75 2.41421 12.4142 2.75 12 2.75C9.62177 2.75 7.91326 2.75198 6.61328 2.92676C5.33508 3.09865 4.56472 3.42551 3.99512 3.99512C3.42551 4.56472 3.09865 5.33508 2.92676 6.61328C2.75198 7.91326 2.75 9.62177 2.75 12C2.75 14.3782 2.75198 16.0867 2.92676 17.3867C3.09865 18.6649 3.42553 19.4353 3.99512 20.0049C4.56472 20.5745 5.33509 20.9014 6.61328 21.0732C7.91326 21.248 9.62177 21.25 12 21.25C14.3782 21.25 16.0867 21.248 17.3867 21.0732C18.6649 20.9013 19.4353 20.5745 20.0049 20.0049C20.5745 19.4353 20.9013 18.6649 21.0732 17.3867C21.248 16.0867 21.25 14.3782 21.25 12C21.25 11.5858 21.5858 11.25 22 11.25C22.4142 11.25 22.75 11.5858 22.75 12C22.75 14.3356 22.7518 16.1628 22.5605 17.5859C22.3663 19.0307 21.9603 20.1707 21.0654 21.0654C20.1707 21.9603 19.0307 22.3663 17.5859 22.5605C16.1628 22.7518 14.3356 22.75 12 22.75C9.66439 22.75 7.83717 22.7518 6.41406 22.5605C4.96934 22.3663 3.82937 21.9602 2.93457 21.0654C2.03975 20.1706 1.63369 19.0307 1.43945 17.5859C1.24817 16.1628 1.25 14.3356 1.25 12C1.25 9.66439 1.24817 7.83717 1.43945 6.41406C1.63369 4.96933 2.03976 3.82938 2.93457 2.93457C3.82938 2.03976 4.96933 1.63369 6.41406 1.43945C7.83717 1.24817 9.66439 1.25 12 1.25ZM14.4805 1.95801C14.9972 1.72208 15.4625 1.95832 15.7207 2.12402C15.9923 2.29833 16.309 2.57465 16.6465 2.86719L19.0029 4.91016C19.7971 5.59843 20.4548 6.16571 20.9033 6.68066C21.3658 7.21163 21.6963 7.78599 21.6963 8.5C21.6963 9.21396 21.3658 9.78841 20.9033 10.3193C20.4548 10.8342 19.797 11.4016 19.0029 12.0898L16.6465 14.1328C16.3089 14.4254 15.9923 14.7017 15.7207 14.876C15.4624 15.0417 14.9971 15.278 14.4805 15.042C13.964 14.806 13.8378 14.2997 13.7939 13.9961C13.7478 13.6767 13.75 13.2562 13.75 12.8096V12.0693C12.5973 12.163 11.4355 12.465 10.416 12.9492C9.16961 13.5414 8.18809 14.375 7.66016 15.3555C7.49724 15.6579 7.14955 15.8115 6.81641 15.7275C6.48334 15.6435 6.25004 15.3435 6.25 15C6.25 11.1305 7.41296 8.58956 9.09277 7.02246C10.5159 5.69496 12.239 5.13433 13.75 4.99902V4.18945C13.75 3.74307 13.7478 3.32319 13.7939 3.00391C13.8378 2.7003 13.964 2.19402 14.4805 1.95801ZM15.25 4.18945V5.71387C15.25 6.12808 14.9142 6.46387 14.5 6.46387C13.111 6.46387 11.437 6.88796 10.1162 8.12012C9.11024 9.05859 8.25223 10.5211 7.91016 12.7695C8.46841 12.3063 9.10097 11.9133 9.77148 11.5947C11.2174 10.9078 12.8905 10.5352 14.5 10.5352C14.9141 10.5352 15.2498 10.8711 15.25 11.2852V12.8096C15.25 13.0258 15.2503 13.2027 15.2529 13.3486C15.365 13.255 15.5004 13.1409 15.6641 12.999L18.0215 10.9561C18.8499 10.2381 19.4097 9.75046 19.7725 9.33398C20.1212 8.93356 20.1963 8.69922 20.1963 8.5C20.1963 8.30078 20.1212 8.06644 19.7725 7.66602C19.4097 7.24955 18.8498 6.76183 18.0215 6.04395L15.6641 4.00098C15.5002 3.85897 15.3651 3.74411 15.2529 3.65039C15.2503 3.79634 15.25 3.97308 15.25 4.18945Z" fill="#1C274C"/>
</svg>
