<svg width="24" height="24" viewBox="0 0 24 24" fill="none" xmlns="http://www.w3.org/2000/svg">
<path d="M12 1.25C17.9371 1.25 22.75 6.06294 22.75 12C22.75 17.9371 17.9371 22.75 12 22.75C10.2817 22.75 8.65526 22.3463 7.21289 21.6279C6.99771 21.5208 6.77762 21.4984 6.59277 21.5479L4.36719 22.1426C2.84336 22.5503 1.44969 21.1566 1.85742 19.6328L2.45215 17.4072C2.50162 17.2224 2.47921 17.0023 2.37207 16.7871C1.65365 15.3447 1.25 13.7183 1.25 12C1.25 6.06294 6.06294 1.25 12 1.25ZM12 2.75C6.89137 2.75 2.75 6.89137 2.75 12C2.75 13.4811 3.09757 14.8789 3.71484 16.1182C3.96256 16.6156 4.05767 17.2107 3.90137 17.7949L3.30566 20.0205C3.19637 20.4292 3.57073 20.8037 3.97949 20.6943L6.20508 20.0986C6.78925 19.9423 7.38445 20.0375 7.88184 20.2852C9.12114 20.9025 10.5189 21.25 12 21.25C17.1086 21.25 21.25 17.1086 21.25 12C21.25 6.89137 17.1086 2.75 12 2.75ZM14.4697 9.46973C14.7626 9.17684 15.2374 9.17684 15.5303 9.46973C15.8232 9.76262 15.8232 10.2374 15.5303 10.5303L11.5303 14.5303C11.2417 14.819 10.775 14.8238 10.4805 14.541L8.48047 12.6211C8.18168 12.3343 8.17213 11.8593 8.45898 11.5605C8.74585 11.2618 9.22073 11.2522 9.51953 11.5391L10.9893 12.9502L14.4697 9.46973Z" fill="#48465C"/>
</svg>
