<svg width="24" height="24" viewBox="0 0 24 24" fill="none" xmlns="http://www.w3.org/2000/svg">
<path d="M12.0066 1.25073C16.5797 1.28896 20.2738 5.13571 20.3103 9.79858C20.3408 13.7064 17.6844 17.4322 14.0652 18.4675C14.1068 18.5531 14.1421 18.6358 14.1667 18.7146C14.4989 19.7769 13.8105 20.8468 12.7498 21.0623V22.4998C12.7498 22.914 12.414 23.2498 11.9998 23.2498C11.5857 23.2495 11.2498 22.9138 11.2498 22.4998V21.0623C10.1893 20.8466 9.50065 19.7768 9.83276 18.7146C9.86019 18.6268 9.90112 18.5343 9.94897 18.4382C6.35676 17.3482 3.84164 13.5668 3.81128 9.6853C3.77476 5.01398 7.42281 1.21254 12.0066 1.25073ZM11.4656 18.7878C11.3871 18.9287 11.3372 19.0197 11.3015 19.0886C11.2755 19.1389 11.2662 19.1604 11.2644 19.1648C11.214 19.3324 11.3136 19.5453 11.5505 19.5925C11.5525 19.5928 11.5764 19.5954 11.6462 19.5974C11.727 19.5997 11.8349 19.6003 11.9998 19.6003L12.3533 19.5974C12.4266 19.5953 12.45 19.5925 12.45 19.5925C12.6868 19.5453 12.7865 19.3324 12.7361 19.1648L12.699 19.0886L12.5349 18.7878C12.5255 18.7708 12.5165 18.7534 12.5085 18.7361C12.3385 18.7467 12.1666 18.7512 11.9939 18.7498C11.8262 18.7484 11.6595 18.7409 11.4949 18.7283C11.486 18.7482 11.4764 18.7683 11.4656 18.7878ZM11.9939 2.75073C8.2936 2.71991 5.28095 5.79381 5.31128 9.67358C5.34233 13.6417 8.36905 17.2195 12.0066 17.2498C15.6609 17.28 18.8409 13.7388 18.8103 9.8103C18.7799 5.92218 15.7047 2.78167 11.9939 2.75073ZM12.5066 5.24976C14.5594 5.26655 16.2331 6.94101 16.2498 8.9939C16.2531 9.40795 15.9206 9.74617 15.5066 9.74976C15.0924 9.7531 14.7532 9.41982 14.7498 9.00562C14.7396 7.77172 13.7279 6.75971 12.4939 6.74976C12.0797 6.74637 11.7465 6.40808 11.7498 5.9939C11.7532 5.57973 12.0924 5.24641 12.5066 5.24976Z" fill="#48465C"/>
</svg>
