<svg width="24" height="24" viewBox="0 0 24 24" fill="none" xmlns="http://www.w3.org/2000/svg">
<path fill-rule="evenodd" clip-rule="evenodd" d="M12.0066 1.25077C16.5796 1.28907 20.2738 5.13579 20.3103 9.79862C20.3408 13.7064 17.6844 17.4323 14.0652 18.4676C14.1068 18.5531 14.1421 18.6358 14.1668 18.7146C14.499 19.7769 13.8105 20.8468 12.7498 21.0623V22.4998C12.7498 22.914 12.414 23.2498 11.9998 23.2498C11.5857 23.2497 11.2498 22.9139 11.2498 22.4998V21.0623C10.1892 20.8467 9.50064 19.7769 9.83279 18.7146C9.86023 18.6269 9.90113 18.5343 9.949 18.4383C6.35673 17.3483 3.84069 13.5669 3.81033 9.68534C3.77381 5.01402 7.42284 1.21258 12.0066 1.25077ZM11.4656 18.7879C11.3871 18.9287 11.3363 19.0198 11.3006 19.0887C11.2748 19.1385 11.2663 19.1604 11.2644 19.1648C11.214 19.3324 11.3137 19.5454 11.5506 19.5926C11.5532 19.5929 11.5776 19.5955 11.6463 19.5975C11.727 19.5998 11.8348 19.6004 11.9998 19.6004L12.3533 19.5975C12.4266 19.5954 12.45 19.5926 12.45 19.5926C12.6868 19.5453 12.7865 19.3324 12.7361 19.1648L12.699 19.0887L12.5349 18.7879C12.5255 18.7709 12.5165 18.7534 12.5086 18.7361C12.3385 18.7467 12.1666 18.7512 11.9939 18.7498C11.8262 18.7484 11.6595 18.7409 11.4949 18.7283C11.486 18.7482 11.4764 18.7684 11.4656 18.7879ZM11.9939 2.75077C8.29362 2.71995 5.28 5.79385 5.31033 9.67362C5.34138 13.6417 8.36908 17.2195 12.0066 17.2498C15.6608 17.28 18.841 13.7388 18.8103 9.81034C18.7799 5.92227 15.7046 2.78178 11.9939 2.75077ZM12.5066 5.2498C14.5594 5.26659 16.2331 6.94105 16.2498 8.99394C16.2531 9.40799 15.9206 9.74621 15.5066 9.7498C15.0924 9.75314 14.7532 9.41986 14.7498 9.00566C14.7396 7.77176 13.728 6.75976 12.4939 6.7498C12.0798 6.74642 11.7465 6.40812 11.7498 5.99394C11.7532 5.57978 12.0924 5.24645 12.5066 5.2498Z" fill="#1C274C"/>
</svg>
