<svg width="24" height="24" viewBox="0 0 24 24" fill="none" xmlns="http://www.w3.org/2000/svg">
<path d="M12 2C17.5228 2 22 6.47715 22 12C22 17.5228 17.5228 22 12 22C6.47715 22 2 17.5228 2 12C2 6.47715 6.47715 2 12 2ZM12 15C11.4477 15 11 15.4477 11 16C11 16.5523 11.4477 17 12 17C12.5523 17 13 16.5523 13 16C13 15.4477 12.5523 15 12 15ZM12 6.25C10.5503 6.25 9.375 7.42525 9.375 8.875C9.375 9.28921 9.71079 9.625 10.125 9.625C10.5392 9.625 10.875 9.28921 10.875 8.875C10.875 8.25368 11.3787 7.75 12 7.75C12.6213 7.75 13.125 8.25368 13.125 8.875C13.125 9.18004 13.0042 9.45584 12.8066 9.65918C12.7494 9.71814 12.6844 9.7835 12.6143 9.85352C12.3809 10.0863 12.0929 10.3731 11.8643 10.667C11.5551 11.0642 11.25 11.5948 11.25 12.25V13C11.25 13.4142 11.5858 13.75 12 13.75C12.4142 13.75 12.75 13.4142 12.75 13V12.25C12.75 12.0769 12.829 11.8701 13.0479 11.5889C13.2138 11.3757 13.4033 11.1863 13.6191 10.9707C13.703 10.8869 13.7907 10.7988 13.8828 10.7041C14.3413 10.2321 14.625 9.58584 14.625 8.875C14.625 7.42525 13.4497 6.25 12 6.25Z" fill="#48465C"/>
</svg>
