<svg width="24" height="24" viewBox="0 0 24 24" fill="none" xmlns="http://www.w3.org/2000/svg">
<path d="M22 1.25C22.4142 1.25 22.75 1.58579 22.75 2C22.75 2.41421 22.4142 2.75 22 2.75H20.75V12.4268C20.7506 13.6134 20.7513 14.4392 20.415 15.1797C20.0787 15.92 19.4566 16.4632 18.5625 17.2441C18.5238 17.2779 18.4841 17.3119 18.4443 17.3467L16.4062 19.1289C15.4975 19.9235 14.7622 20.5668 14.1113 21.0049C13.4336 21.4609 12.7697 21.75 12 21.75C11.2303 21.75 10.5664 21.4609 9.88867 21.0049C9.23774 20.5668 8.50241 19.9235 7.59375 19.1289L5.55566 17.3467C5.51593 17.3119 5.47622 17.2779 5.4375 17.2441C4.54342 16.4632 3.92127 15.92 3.58496 15.1797C3.24868 14.4392 3.24938 13.6134 3.25 12.4268V2.75H2C1.58579 2.75 1.25 2.41421 1.25 2C1.25 1.58579 1.58579 1.25 2 1.25H22ZM4.75 12.2695C4.75 13.676 4.76598 14.1506 4.95117 14.5586C5.13652 14.9667 5.48351 15.2914 6.54297 16.2178L8.54297 17.9658C9.49903 18.8018 10.1636 19.3819 10.7266 19.7607C11.2718 20.1277 11.6425 20.25 12 20.25C12.3575 20.25 12.7282 20.1277 13.2734 19.7607C13.8364 19.3819 14.501 18.8018 15.457 17.9658L17.457 16.2178C18.5164 15.2914 18.8635 14.9667 19.0488 14.5586C19.234 14.1506 19.25 13.676 19.25 12.2695V2.75H4.75V12.2695ZM15.5 12.25C15.9142 12.25 16.25 12.5858 16.25 13C16.25 13.4142 15.9142 13.75 15.5 13.75H8.5C8.08579 13.75 7.75 13.4142 7.75 13C7.75 12.5858 8.08579 12.25 8.5 12.25H15.5ZM15.5 7.25C15.9142 7.25 16.25 7.58579 16.25 8C16.25 8.41421 15.9142 8.75 15.5 8.75H8.5C8.08579 8.75 7.75 8.41421 7.75 8C7.75 7.58579 8.08579 7.25 8.5 7.25H15.5Z" fill="#1C274C"/>
</svg>
