<svg width="24" height="24" viewBox="0 0 24 24" fill="none" xmlns="http://www.w3.org/2000/svg">
<path d="M12 2C16.714 2 19.0708 2.00037 20.5352 3.46484C21.9996 4.9293 22 7.28597 22 12C22 16.714 21.9997 19.0708 20.5352 20.5352C19.0708 21.9997 16.714 22 12 22C7.28597 22 4.9293 21.9996 3.46484 20.5352C2.00037 19.0708 2 16.714 2 12C2 7.28595 2.00037 4.9293 3.46484 3.46484C4.9293 2.00037 7.28595 2 12 2ZM17 5.25C16.5858 5.25 16.25 5.58579 16.25 6V18C16.25 18.4142 16.5858 18.75 17 18.75C17.4142 18.75 17.75 18.4142 17.75 18V6C17.75 5.58579 17.4142 5.25 17 5.25ZM11.4805 12.4238C11.1623 12.1588 10.6891 12.2015 10.4238 12.5195C10.1588 12.8377 10.2015 13.3109 10.5195 13.5762L11.9287 14.75H7C6.58579 14.75 6.25 15.0858 6.25 15.5C6.25 15.9142 6.58579 16.25 7 16.25H11.9287L10.5195 17.4238C10.2015 17.6891 10.1588 18.1623 10.4238 18.4805C10.6891 18.7985 11.1623 18.8412 11.4805 18.5762L14.4805 16.0762C14.6513 15.9337 14.75 15.7225 14.75 15.5C14.75 15.2775 14.6513 15.0663 14.4805 14.9238L11.4805 12.4238ZM11.4805 5.42383C11.1623 5.15872 10.6891 5.20151 10.4238 5.51953C10.1588 5.83767 10.2015 6.31096 10.5195 6.57617L11.9287 7.75H7C6.58579 7.75 6.25 8.08579 6.25 8.5C6.25 8.91421 6.58579 9.25 7 9.25H11.9287L10.5195 10.4238C10.2015 10.6891 10.1588 11.1623 10.4238 11.4805C10.6891 11.7985 11.1623 11.8412 11.4805 11.5762L14.4805 9.07617C14.6513 8.93367 14.75 8.72249 14.75 8.5C14.75 8.2775 14.6513 8.06633 14.4805 7.92383L11.4805 5.42383Z" fill="#1C274C"/>
</svg>
