<svg width="24" height="24" viewBox="0 0 24 24" fill="none" xmlns="http://www.w3.org/2000/svg">
<path d="M10.8305 2.26514C11.5703 1.91169 12.4305 1.91157 13.1703 2.26514C13.4901 2.41804 13.7959 2.67939 14.4076 3.20068C14.651 3.40812 14.7728 3.51198 14.9027 3.59912C15.2008 3.79891 15.536 3.93684 15.8881 4.00635C16.0417 4.03666 16.2011 4.05024 16.5199 4.07568C17.3212 4.13963 17.7218 4.17151 18.0561 4.28955C18.8292 4.56264 19.4372 5.17069 19.7104 5.94385C19.8284 6.27812 19.8612 6.6787 19.9252 7.47998C19.9506 7.79872 19.9633 7.95832 19.9936 8.11182C20.0631 8.46389 20.202 8.79907 20.4018 9.09717C20.4888 9.22707 20.592 9.34913 20.7992 9.59229C21.3207 10.2042 21.5819 10.5107 21.7348 10.8306C22.0882 11.5704 22.0883 12.4306 21.7348 13.1704C21.5818 13.4902 21.3205 13.796 20.7992 14.4077C20.592 14.6508 20.4888 14.773 20.4018 14.9028C20.202 15.2009 20.0631 15.5361 19.9936 15.8882C19.9633 16.0417 19.9506 16.2012 19.9252 16.52C19.8612 17.3214 19.8283 17.7219 19.7104 18.0562C19.4373 18.8294 18.8293 19.4373 18.0561 19.7104C17.7218 19.8284 17.3213 19.8613 16.5199 19.9253C16.2011 19.9507 16.0416 19.9634 15.8881 19.9937C15.536 20.0632 15.2008 20.2021 14.9027 20.4019C14.7729 20.4889 14.6508 20.5921 14.4076 20.7993C13.7959 21.3206 13.4901 21.5819 13.1703 21.7349C12.4305 22.0884 11.5703 22.0883 10.8305 21.7349C10.5106 21.582 10.2041 21.3208 9.59219 20.7993C9.34904 20.5921 9.22698 20.4889 9.09708 20.4019C8.79898 20.2021 8.46379 20.0632 8.11172 19.9937C7.95823 19.9634 7.79863 19.9507 7.47989 19.9253C6.67861 19.8613 6.27802 19.8284 5.94376 19.7104C5.1706 19.4373 4.56255 18.8293 4.28946 18.0562C4.17142 17.7219 4.13954 17.3213 4.07559 16.52C4.05015 16.2012 4.03657 16.0418 4.00626 15.8882C3.93675 15.5361 3.79882 15.2009 3.59903 14.9028C3.51189 14.7729 3.408 14.6511 3.20059 14.4077C2.6793 13.796 2.41795 13.4902 2.26505 13.1704C1.91147 12.4306 1.91159 11.5704 2.26505 10.8306C2.41793 10.5107 2.67915 10.2042 3.20059 9.59229C3.40797 9.34894 3.5119 9.22717 3.59903 9.09717C3.79879 8.7991 3.93676 8.46384 4.00626 8.11182C4.03655 7.95831 4.05016 7.79874 4.07559 7.47998C4.13954 6.67874 4.17139 6.27811 4.28946 5.94385C4.56256 5.17067 5.17058 4.56265 5.94376 4.28955C6.27802 4.17148 6.67865 4.13963 7.47989 4.07568C7.79865 4.05025 7.95822 4.03664 8.11172 4.00635C8.46375 3.93685 8.79901 3.79888 9.09708 3.59912C9.22708 3.51199 9.34886 3.40806 9.59219 3.20068C10.2041 2.67924 10.5106 2.41802 10.8305 2.26514ZM16.3734 8.7124C16.0556 8.39457 15.5399 8.39457 15.2221 8.7124L10.3725 13.562L8.77774 11.9673C8.45995 11.6496 7.9442 11.6496 7.62637 11.9673C7.30857 12.2851 7.30862 12.8007 7.62637 13.1187L9.7963 15.2886C10.1141 15.6064 10.6298 15.6064 10.9477 15.2886L16.3734 9.86279C16.691 9.54495 16.6911 9.03018 16.3734 8.7124Z" fill="#1C274C"/>
</svg>
