<svg width="24" height="24" viewBox="0 0 24 24" fill="none" xmlns="http://www.w3.org/2000/svg">
<path d="M12 2C17.5228 2 22 6.47715 22 12C22 17.5228 17.5228 22 12 22C6.47715 22 2 17.5228 2 12C2 6.47715 6.47715 2 12 2ZM13.5908 7.26953C13.1815 7.01338 12.53 7.53209 11.2275 8.56934L9.21191 10.1738C8.36673 10.8468 7.94387 11.1838 8.02637 11.5596L8.03125 11.5781C8.12534 11.9515 8.66111 12.0947 9.73242 12.3818C10.3279 12.5413 10.6259 12.622 10.7656 12.8477L10.7725 12.8594C10.9072 13.0878 10.831 13.3741 10.6777 13.9463L10.6377 14.0957C10.2126 15.682 9.99989 16.4753 10.4092 16.7314C10.8185 16.9872 11.4701 16.4687 12.7725 15.4316L14.7871 13.8271C15.6323 13.1542 16.0548 12.8172 15.9727 12.4414L15.9688 12.4229C15.8747 12.0494 15.3389 11.9052 14.2676 11.6182C13.6723 11.4586 13.3741 11.3788 13.2344 11.1533L13.2266 11.1416C13.0918 10.9132 13.169 10.6267 13.3223 10.0547L13.3623 9.90527C13.7872 8.31934 13.9998 7.52591 13.5908 7.26953Z" fill="#48465C"/>
</svg>
