<svg width="24" height="24" viewBox="0 0 24 24" fill="none" xmlns="http://www.w3.org/2000/svg">
<path d="M7.53223 4.25C7.97201 4.24998 8.3518 4.25011 8.66309 4.27832C8.99212 4.30818 9.31793 4.37448 9.625 4.55176C9.96693 4.7492 10.2508 5.03308 10.4482 5.375C10.6255 5.68207 10.6919 6.00789 10.7217 6.33691C10.7499 6.64821 10.75 7.02799 10.75 7.46777V11.25H13.25V9.46777C13.25 9.02799 13.2501 8.64821 13.2783 8.33691C13.3081 8.00789 13.3745 7.68207 13.5518 7.375C13.7492 7.03308 14.0331 6.7492 14.375 6.55176C14.6821 6.37446 15.0079 6.30818 15.3369 6.27832C15.6482 6.25011 16.028 6.24998 16.4678 6.25H16.5322C16.972 6.24998 17.3518 6.25011 17.6631 6.27832C17.9921 6.30818 18.3179 6.37447 18.625 6.55176C18.9669 6.7492 19.2508 7.03308 19.4482 7.375C19.6255 7.68207 19.6919 8.00789 19.7217 8.33691C19.7499 8.6482 19.75 9.02799 19.75 9.46777V11.25H22C22.4142 11.25 22.75 11.5858 22.75 12C22.75 12.4142 22.4142 12.75 22 12.75H19.75V14.5322C19.75 14.972 19.7499 15.3518 19.7217 15.6631C19.6919 15.9921 19.6255 16.3179 19.4482 16.625C19.2508 16.9669 18.9669 17.2508 18.625 17.4482C18.3179 17.6255 17.9921 17.6919 17.6631 17.7217C17.3518 17.7499 16.972 17.75 16.5322 17.75H16.4678C16.028 17.75 15.6482 17.7499 15.3369 17.7217C15.0079 17.6919 14.6821 17.6255 14.375 17.4482C14.0331 17.2508 13.7492 16.9669 13.5518 16.625C13.3745 16.3179 13.3081 15.9921 13.2783 15.6631C13.2501 15.3518 13.25 14.972 13.25 14.5322V12.75H10.75V16.5322C10.75 16.972 10.7499 17.3518 10.7217 17.6631C10.6919 17.9921 10.6255 18.3179 10.4482 18.625C10.2508 18.9669 9.96692 19.2508 9.625 19.4482C9.31793 19.6255 8.99212 19.6919 8.66309 19.7217C8.35179 19.7499 7.97201 19.75 7.53223 19.75H7.46777C7.02799 19.75 6.64821 19.7499 6.33691 19.7217C6.00788 19.6919 5.68207 19.6255 5.375 19.4482C5.03308 19.2508 4.7492 18.9669 4.55176 18.625C4.37446 18.3179 4.30818 17.9921 4.27832 17.6631C4.25011 17.3518 4.24998 16.972 4.25 16.5322V12.75H2C1.58579 12.75 1.25 12.4142 1.25 12C1.25 11.5858 1.58579 11.25 2 11.25H4.25V7.46777C4.24998 7.02799 4.25011 6.6482 4.27832 6.33691C4.30818 6.00789 4.37447 5.68207 4.55176 5.375C4.74921 5.03307 5.03307 4.74921 5.375 4.55176C5.68207 4.37447 6.00788 4.30818 6.33691 4.27832C6.6482 4.25011 7.02798 4.24998 7.46777 4.25H7.53223ZM7.5 5.75C7.01889 5.75 6.70812 5.75112 6.47266 5.77246C6.24761 5.79287 6.16585 5.827 6.125 5.85059C6.01102 5.91641 5.91641 6.01103 5.85059 6.125C5.827 6.16585 5.79286 6.24761 5.77246 6.47266C5.75112 6.70811 5.75 7.01889 5.75 7.5V16.5C5.75 16.9811 5.75112 17.2918 5.77246 17.5273C5.79286 17.7524 5.827 17.8341 5.85059 17.875C5.91641 17.989 6.01101 18.0836 6.125 18.1494C6.16585 18.173 6.2476 18.2071 6.47266 18.2275C6.70812 18.2489 7.01889 18.25 7.5 18.25C7.98111 18.25 8.29189 18.2489 8.52734 18.2275C8.7524 18.2071 8.83415 18.173 8.875 18.1494C8.98898 18.0836 9.08359 17.989 9.14941 17.875C9.173 17.8341 9.20713 17.7524 9.22754 17.5273C9.24888 17.2918 9.25 16.9811 9.25 16.5V7.5C9.25 7.01889 9.24888 6.70811 9.22754 6.47266C9.20714 6.24761 9.173 6.16586 9.14941 6.125C9.08359 6.01103 8.98897 5.91641 8.875 5.85059C8.83415 5.827 8.7524 5.79287 8.52734 5.77246C8.29189 5.75112 7.98111 5.75 7.5 5.75ZM16.5 7.75C16.0189 7.75 15.7082 7.75112 15.4727 7.77246C15.2476 7.79287 15.1659 7.827 15.125 7.85059C15.011 7.91641 14.9164 8.01102 14.8506 8.125C14.827 8.16585 14.7929 8.2476 14.7725 8.47266C14.7511 8.70811 14.75 9.01889 14.75 9.5V14.5C14.75 14.9811 14.7511 15.2918 14.7725 15.5273C14.7929 15.7524 14.827 15.8341 14.8506 15.875C14.9164 15.989 15.011 16.0836 15.125 16.1494C15.1659 16.173 15.2476 16.2071 15.4727 16.2275C15.7082 16.2489 16.0189 16.25 16.5 16.25C16.9811 16.25 17.2918 16.2489 17.5273 16.2275C17.7524 16.2071 17.8341 16.173 17.875 16.1494C17.989 16.0836 18.0836 15.989 18.1494 15.875C18.173 15.8341 18.2071 15.7524 18.2275 15.5273C18.2489 15.2918 18.25 14.9811 18.25 14.5V9.5C18.25 9.01889 18.2489 8.70811 18.2275 8.47266C18.2071 8.2476 18.173 8.16585 18.1494 8.125C18.0836 8.01102 17.989 7.91641 17.875 7.85059C17.8341 7.827 17.7524 7.79287 17.5273 7.77246C17.2918 7.75112 16.9811 7.75 16.5 7.75Z" fill="#1C274C"/>
</svg>
