<svg width="24" height="24" viewBox="0 0 24 24" fill="none" xmlns="http://www.w3.org/2000/svg">
<path d="M5.5 11C6.90446 11 7.60688 10.9998 8.11133 11.3369C8.32966 11.4828 8.51718 11.6703 8.66309 11.8887C9.00015 12.3931 9 13.0955 9 14.5V18.5C9 19.9045 9.00015 20.6069 8.66309 21.1113C8.51718 21.3297 8.32966 21.5172 8.11133 21.6631C7.60688 22.0002 6.90446 22 5.5 22C4.09554 22 3.39312 22.0002 2.88867 21.6631C2.67034 21.5172 2.48282 21.3297 2.33691 21.1113C1.99985 20.6069 2 19.9045 2 18.5V14.5C2 13.0955 1.99985 12.3931 2.33691 11.8887C2.48282 11.6703 2.67034 11.4828 2.88867 11.3369C3.39312 10.9998 4.09554 11 5.5 11ZM14 2C17.7712 2 19.6566 2.00031 20.8281 3.17188C21.9997 4.34346 22 6.22877 22 10V14C22 17.7712 21.9997 19.6566 20.8281 20.8281C19.6566 21.9997 17.7712 22 14 22C12.3011 22 10.985 21.9996 9.94434 21.8926C10.279 21.3678 10.3977 20.8106 10.4502 20.2949C10.5001 19.804 10.5001 19.2116 10.5 18.5664V14.4336C10.5001 13.7884 10.5001 13.196 10.4502 12.7051C10.396 12.1723 10.2708 11.5954 9.91016 11.0557C9.65481 10.6735 9.3265 10.3451 8.94434 10.0898C8.40462 9.72922 7.82765 9.604 7.29492 9.5498C6.91625 9.51128 6.4771 9.50295 6 9.50098C6.00228 6.06035 6.05321 4.29055 7.17188 3.17188C8.34345 2.00031 10.2288 2 14 2ZM12 18.25C11.5858 18.25 11.25 18.5858 11.25 19C11.25 19.4142 11.5858 19.75 12 19.75H17C17.4142 19.75 17.75 19.4142 17.75 19C17.75 18.5858 17.4142 18.25 17 18.25H12Z" fill="#48465C"/>
</svg>
