<svg width="24" height="24" viewBox="0 0 24 24" fill="none" xmlns="http://www.w3.org/2000/svg">
<path d="M12 1.25C12.4142 1.25 12.75 1.58579 12.75 2V3.03613L17.8115 5.56738C18.5459 5.93452 19.1718 6.24771 19.6074 6.55176C20.0492 6.86009 20.5137 7.3075 20.5137 8C20.5137 8.6925 20.0492 9.13991 19.6074 9.44824C19.1718 9.75229 18.546 10.0654 17.8115 10.4326L12.75 12.9639V14.2598C15.2791 14.3237 17.5803 14.7092 19.3184 15.3174C20.2691 15.6502 21.0926 16.0633 21.6924 16.5596C22.2875 17.052 22.75 17.7041 22.75 18.5C22.75 19.2959 22.2875 19.948 21.6924 20.4404C21.0926 20.9367 20.2691 21.3498 19.3184 21.6826C17.41 22.3504 14.8226 22.75 12 22.75C9.17742 22.75 6.59005 22.3504 4.68164 21.6826C3.73091 21.3498 2.90744 20.9367 2.30762 20.4404C1.71255 19.948 1.25 19.2959 1.25 18.5C1.25 17.7041 1.71255 17.052 2.30762 16.5596C2.90744 16.0633 3.73091 15.6502 4.68164 15.3174C6.41968 14.7092 8.72086 14.3237 11.25 14.2598V2C11.25 1.58579 11.5858 1.25 12 1.25ZM12.75 18C12.75 18.4142 12.4142 18.75 12 18.75C11.5858 18.75 11.25 18.4142 11.25 18V15.7598C8.85463 15.8236 6.72753 16.1907 5.17676 16.7334C4.31791 17.034 3.67588 17.3747 3.26367 17.7158C2.84697 18.0607 2.75 18.3294 2.75 18.5C2.75 18.6706 2.84697 18.9393 3.26367 19.2842C3.67588 19.6253 4.31791 19.966 5.17676 20.2666C6.88761 20.8654 9.29991 21.25 12 21.25C14.7001 21.25 17.1124 20.8654 18.8232 20.2666C19.6821 19.966 20.3241 19.6253 20.7363 19.2842C21.153 18.9393 21.25 18.6706 21.25 18.5C21.25 18.3294 21.153 18.0607 20.7363 17.7158C20.3241 17.3747 19.6821 17.034 18.8232 16.7334C17.2724 16.1907 15.1454 15.8236 12.75 15.7598V18ZM12.75 11.2861L17.0869 9.11816C17.8901 8.71659 18.4148 8.452 18.749 8.21875C18.907 8.10855 18.9751 8.03698 19.0029 8C18.9751 7.96302 18.907 7.89145 18.749 7.78125C18.4148 7.548 17.8901 7.28341 17.0869 6.88184L12.75 4.71387V11.2861Z" fill="#48465C"/>
</svg>
