<svg width="24" height="24" viewBox="0 0 24 24" fill="none" xmlns="http://www.w3.org/2000/svg">
<path d="M11.0417 1.3125C11.759 1.2177 12.3885 1.22033 13.0232 1.40234C13.6576 1.58439 14.1928 1.91553 14.7507 2.37598C15.29 2.82116 15.8911 3.42153 16.6414 4.17188L18.5369 6.06836C19.8473 7.37867 20.8849 8.41591 21.5876 9.33691C22.3108 10.2847 22.7498 11.1974 22.7498 12.2627C22.7497 13.3279 22.3108 14.2398 21.5876 15.1875C20.8849 16.1087 19.8475 17.1465 18.5369 18.457L18.4568 18.5371C17.1462 19.8477 16.1084 20.8851 15.1873 21.5879C14.2395 22.311 13.3276 22.75 12.2625 22.75C11.1972 22.75 10.2845 22.311 9.33667 21.5879C8.41567 20.8851 7.37842 19.8474 6.06812 18.5371L4.17163 16.6416C3.42107 15.8911 2.82096 15.2895 2.37573 14.75C1.91521 14.192 1.5841 13.6571 1.4021 13.0225C1.22018 12.388 1.21747 11.7592 1.31226 11.042C1.4039 10.3486 1.5941 9.52052 1.83276 8.48633L2.13354 7.18359C2.33271 6.32048 2.49545 5.61639 2.68823 5.05469C2.88956 4.46816 3.14339 3.9755 3.55933 3.55957C3.97525 3.14364 4.46792 2.8898 5.05444 2.68848C5.61615 2.4957 6.32023 2.33296 7.18335 2.13379L8.48608 1.83301C9.52029 1.59434 10.3484 1.40414 11.0417 1.3125ZM12.6091 2.84375C12.2412 2.73824 11.8362 2.71977 11.238 2.79883C10.6241 2.87998 9.86617 3.05487 8.78784 3.30371L7.55933 3.58691C6.64833 3.79714 6.02094 3.94297 5.54175 4.10742C5.07912 4.2662 4.81736 4.42262 4.61987 4.62012C4.42238 4.81761 4.26596 5.07937 4.10718 5.54199C3.94273 6.02118 3.79689 6.64859 3.58667 7.55957L3.30347 8.78809C3.05463 9.86639 2.87974 10.6244 2.79858 11.2383C2.71953 11.8364 2.738 12.2415 2.84351 12.6094C2.94904 12.9774 3.14789 13.3306 3.53198 13.7959C3.92617 14.2735 4.47598 14.8238 5.25854 15.6064L7.08862 17.4365C8.44796 18.7959 9.41525 19.7609 10.2468 20.3955C11.0612 21.0168 11.657 21.25 12.2625 21.25C12.8678 21.25 13.4637 21.0168 14.2781 20.3955C15.1096 19.7609 16.077 18.7959 17.4363 17.4365C18.7956 16.0772 19.7607 15.1099 20.3953 14.2783C21.0165 13.4641 21.2497 12.8681 21.2498 12.2627C21.2498 11.6573 21.0166 11.0615 20.3953 10.2471C19.7607 9.41547 18.7956 8.44819 17.4363 7.08887L15.6062 5.25879C14.8236 4.47621 14.2733 3.92642 13.7957 3.53223C13.3303 3.14815 12.9771 2.94928 12.6091 2.84375ZM13.0076 10.6074C13.4215 10.6116 13.7536 10.9503 13.7498 11.3643C13.7459 11.7784 13.4071 12.1113 12.9929 12.1074C12.816 12.1057 12.5839 12.1854 12.3845 12.3848C11.997 12.7723 12.099 13.1597 12.2078 13.2686C12.3172 13.3772 12.7045 13.4788 13.0916 13.0918C13.8757 12.3077 15.2289 12.0475 16.0964 12.915C16.7692 13.588 16.7635 14.5532 16.3611 15.3184C16.5623 15.6106 16.533 16.0136 16.2732 16.2734C16.0143 16.5323 15.6129 16.5621 15.321 16.3633C14.8643 16.606 14.3448 16.6975 13.8494 16.5957C13.4437 16.5124 13.1821 16.1156 13.2654 15.71C13.3487 15.3043 13.7453 15.0427 14.1511 15.126C14.3282 15.1623 14.6139 15.1045 14.8591 14.8594C15.2464 14.472 15.1446 14.0846 15.0359 13.9756C14.927 13.8667 14.5396 13.7648 14.1521 14.1523C13.368 14.9364 12.0137 15.1966 11.1462 14.3291C10.4733 13.6562 10.4791 12.6901 10.8816 11.9248C10.6806 11.6327 10.7098 11.2294 10.9695 10.9697C11.2284 10.7108 11.6297 10.6812 11.9216 10.8799C12.2614 10.6993 12.6355 10.6039 13.0076 10.6074ZM6.66284 6.93457C7.73675 5.86097 9.47766 5.86088 10.5515 6.93457C11.6254 8.00851 11.6254 9.75032 10.5515 10.8242C9.47768 11.8979 7.73674 11.8978 6.66284 10.8242C5.5889 9.75032 5.5889 8.00851 6.66284 6.93457ZM9.49097 7.99512C9.00289 7.50721 8.21151 7.5073 7.72339 7.99512C7.23523 8.48327 7.23523 9.27551 7.72339 9.76367C8.2115 10.2514 9.0029 10.2515 9.49097 9.76367C9.97912 9.27551 9.97912 8.48327 9.49097 7.99512Z" fill="#1C274C"/>
</svg>
