<svg width="24" height="24" viewBox="0 0 24 24" fill="none" xmlns="http://www.w3.org/2000/svg">
<path d="M17.7227 1.75488C18.8655 1.01716 20.161 1.13436 21.1396 1.80371C22.106 2.46482 22.75 3.6455 22.75 5.0332V18.9668C22.75 20.3546 22.1061 21.5352 21.1396 22.1963C20.1609 22.8657 18.8655 22.9821 17.7227 22.2441L6.93359 15.2773C5.78331 14.5346 5.25004 13.2341 5.25 12C5.25 10.7658 5.78327 9.46549 6.93359 8.72266L17.7227 1.75488ZM20.292 3.04199C19.7695 2.68471 19.1299 2.63224 18.5361 3.01562L7.74707 9.98242C7.11052 10.3935 6.75 11.1636 6.75 12C6.75004 12.8363 7.11056 13.6066 7.74707 14.0176L18.5361 20.9844C19.1298 21.3676 19.7696 21.3152 20.292 20.958C20.8267 20.5923 21.25 19.8881 21.25 18.9668V5.0332C21.25 4.1119 20.8267 3.4077 20.292 3.04199ZM2 4.25C2.41421 4.25 2.75 4.58578 2.75 5V19C2.74993 19.4141 2.41417 19.75 2 19.75C1.58583 19.75 1.25007 19.4141 1.25 19V5C1.25 4.58578 1.58579 4.25 2 4.25Z" fill="#1C274C"/>
</svg>
