<svg width="24" height="24" viewBox="0 0 24 24" fill="none" xmlns="http://www.w3.org/2000/svg">
<path fill-rule="evenodd" clip-rule="evenodd" d="M9.6771 1.45614C10.3262 1.35214 10.916 1.46791 11.5199 1.86825C12.1681 2.29814 12.4814 2.88339 12.6234 3.59383C12.75 4.2271 12.7504 5.01874 12.7503 5.9288V8.00008C12.7503 8.96403 12.7519 9.61177 12.8168 10.0948C12.8788 10.5558 12.9855 10.7535 13.1156 10.8839C13.2459 11.0142 13.4441 11.1217 13.9056 11.1837C14.3886 11.2486 15.0365 11.2501 16.0003 11.2501H18.0707C18.9809 11.25 19.7732 11.2504 20.4066 11.377C21.117 11.519 21.7022 11.8322 22.1322 12.4806C22.5325 13.0845 22.6483 13.6743 22.5443 14.3233C22.4555 14.8769 22.2021 15.4763 21.93 16.1192L21.9017 16.1866C21.6389 16.8081 21.3162 17.4063 20.9378 17.9727C19.7567 19.7404 18.078 21.1181 16.1136 21.9317C14.1493 22.7453 11.988 22.9588 9.90269 22.544C7.81743 22.1292 5.90219 21.105 4.39878 19.6016C2.8954 18.0983 1.87121 16.183 1.4564 14.0977C1.04162 12.0125 1.25511 9.85108 2.06871 7.8868C2.88235 5.9225 4.25987 4.24283 6.02769 3.06161C6.59397 2.68326 7.19244 2.36143 7.81382 2.09872L7.88121 2.0704C8.52427 1.79834 9.12354 1.54486 9.6771 1.45614ZM10.6908 3.11825C10.3997 2.92532 10.1905 2.89333 9.91441 2.93758C9.56218 2.99407 9.13185 3.1702 8.39781 3.48055C7.86305 3.70663 7.34804 3.98402 6.8607 4.30965C5.33987 5.32594 4.15453 6.77018 3.45445 8.46005C2.75435 10.1503 2.5712 12.0104 2.92808 13.8048C3.28499 15.5991 4.16569 17.2475 5.45933 18.5411C6.75295 19.8348 8.40139 20.7155 10.1957 21.0723C11.9898 21.4293 13.8493 21.246 15.5394 20.546C17.2295 19.8459 18.6744 18.6607 19.6908 17.1397C20.0164 16.6525 20.2938 16.1374 20.5199 15.6026C20.8302 14.8687 21.0063 14.4383 21.0628 14.086C21.107 13.8099 21.075 13.6006 20.8822 13.3097C20.7189 13.0633 20.5215 12.9294 20.1127 12.8477C19.6429 12.7539 19.0025 12.7501 18.0003 12.7501H15.9476C15.0493 12.7501 14.3001 12.7499 13.7054 12.67C13.0777 12.5856 12.5104 12.3999 12.055 11.9444C11.5999 11.4891 11.4138 10.9226 11.3294 10.295C11.2494 9.70019 11.2503 8.9503 11.2503 8.05184V6.00008C11.2503 4.99784 11.2466 4.35751 11.1527 3.88778C11.0709 3.47882 10.9372 3.28158 10.6908 3.11825ZM13.7738 2.12801C13.8771 1.72701 14.2858 1.48572 14.6869 1.58895C18.4655 2.56151 21.4389 5.53493 22.4115 9.31356C22.5144 9.71457 22.2724 10.1234 21.8714 10.2266C21.4705 10.3296 21.0616 10.0876 20.9584 9.68661C20.1219 6.43745 17.562 3.8774 14.3128 3.0411C13.9118 2.93774 13.6705 2.52906 13.7738 2.12801Z" fill="#1C274C"/>
</svg>
