<svg width="24" height="24" viewBox="0 0 24 24" fill="none" xmlns="http://www.w3.org/2000/svg">
<path d="M6.46979 3.46973C6.76268 3.17684 7.23744 3.17684 7.53033 3.46973C7.82316 3.76262 7.8232 4.2374 7.53033 4.53027L5.81061 6.25H15.0001C18.1756 6.25003 20.7501 8.82438 20.7501 12C20.75 15.1756 18.1756 17.75 15.0001 17.75H8.00006C7.58586 17.75 7.25009 17.4142 7.25006 17C7.25006 16.5858 7.58584 16.25 8.00006 16.25H15.0001C17.3472 16.25 19.25 14.3472 19.2501 12C19.2501 9.65281 17.3472 7.75003 15.0001 7.75H5.81061L7.53033 9.46973C7.82316 9.76262 7.8232 10.2374 7.53033 10.5303C7.23747 10.8231 6.76268 10.8231 6.46979 10.5303L3.46979 7.53027C3.1769 7.23738 3.1769 6.76262 3.46979 6.46973L6.46979 3.46973Z" fill="#1C274C"/>
</svg>
