<svg width="24" height="24" viewBox="0 0 24 24" fill="none" xmlns="http://www.w3.org/2000/svg">
<path d="M6.46973 3.46979C6.76262 3.1769 7.23738 3.1769 7.53027 3.46979C7.8231 3.76268 7.82314 4.23746 7.53027 4.53033L5.81055 6.25006H15C18.1756 6.25009 20.75 8.82444 20.75 12.0001C20.75 15.1756 18.1756 17.75 15 17.7501H8C7.5858 17.7501 7.25003 17.4142 7.25 17.0001C7.25 16.5859 7.58578 16.2501 8 16.2501H15C17.3471 16.25 19.25 14.3472 19.25 12.0001C19.25 9.65287 17.3472 7.75009 15 7.75006H5.81055L7.53027 9.46979C7.8231 9.76268 7.82314 10.2375 7.53027 10.5303C7.23741 10.8232 6.76262 10.8232 6.46973 10.5303L3.46973 7.53033C3.17684 7.23744 3.17684 6.76268 3.46973 6.46979L6.46973 3.46979Z" fill="#48465C"/>
</svg>
