<svg width="24" height="24" viewBox="0 0 24 24" fill="none" xmlns="http://www.w3.org/2000/svg">
<path d="M12 2C13.7003 2 15.0942 1.99962 16.25 2.06836V21.9316C15.0942 22.0003 13.7003 22 12 22C10.2996 22 8.90575 22.0003 7.75 21.9316V2.06836C8.90574 1.99963 10.2996 2 12 2ZM6.25 21.7783C5.02727 21.584 4.1479 21.2193 3.46387 20.5352C2.78007 19.8512 2.41591 18.9725 2.22168 17.75H6.25V21.7783ZM21.7783 17.75C21.5841 18.9726 21.2191 19.8512 20.5352 20.5352C19.8512 21.2192 18.9726 21.584 17.75 21.7783V17.75H21.7783ZM6.25 16.25H2.06836C2.01001 15.2688 2.00133 14.1162 2 12.75H6.25V16.25ZM21.999 12.75C21.9977 14.1162 21.9891 15.2688 21.9307 16.25H17.75V12.75H21.999ZM12.4111 10.4043C11.3375 9.68274 10.8007 9.32203 10.4004 9.58691C10.0001 9.85183 10 10.5678 10 12C10 13.4322 10.0001 14.1482 10.4004 14.4131C10.8007 14.678 11.3375 14.3173 12.4111 13.5957C13.4703 12.8838 14 12.5278 14 12C14 11.4722 13.4703 11.1162 12.4111 10.4043ZM6.25 11.25H2C2.00133 9.88382 2.01001 8.73117 2.06836 7.75H6.25V11.25ZM21.9307 7.75C21.9891 8.73117 21.9977 9.88382 21.999 11.25H17.75V7.75H21.9307ZM6.25 6.25H2.22168C2.41591 5.02753 2.78009 4.14881 3.46387 3.46484C4.1479 2.7808 5.02727 2.41594 6.25 2.22168V6.25ZM17.75 2.22168C18.9726 2.41595 19.8512 2.78085 20.5352 3.46484C21.2191 4.14886 21.5841 5.02734 21.7783 6.25H17.75V2.22168Z" fill="#48465C"/>
</svg>
