<svg width="24" height="24" viewBox="0 0 24 24" fill="none" xmlns="http://www.w3.org/2000/svg">
<path d="M12 2C17.5228 2 22 6.47715 22 12C22 17.5228 17.5228 22 12 22C6.47715 22 2 17.5228 2 12C2 6.47715 6.47715 2 12 2ZM9.53027 8.46973C9.23738 8.17684 8.76262 8.17684 8.46973 8.46973C8.17684 8.76262 8.17684 9.23738 8.46973 9.53027L13.1895 14.25H10.5C10.0858 14.25 9.75 14.5858 9.75 15C9.75 15.4142 10.0858 15.75 10.5 15.75H15C15.4142 15.75 15.75 15.4142 15.75 15V10.5C15.75 10.0858 15.4142 9.75 15 9.75C14.5858 9.75 14.25 10.0858 14.25 10.5V13.1895L9.53027 8.46973Z" fill="#1C274C"/>
</svg>
