<svg width="24" height="24" viewBox="0 0 24 24" fill="none" xmlns="http://www.w3.org/2000/svg">
<path d="M6 1.25C8.62335 1.25 10.75 3.37665 10.75 6V6.43164L12.7832 4.39844C14.6382 2.54353 17.6461 2.5435 19.501 4.39844C21.3559 6.2534 21.3559 9.26121 19.501 11.1162L17.3672 13.25H18C20.6234 13.25 22.75 15.3766 22.75 18C22.75 20.6234 20.6234 22.75 18 22.75H6C3.37665 22.75 1.25 20.6234 1.25 18V6C1.25 3.37665 3.37665 1.25 6 1.25ZM6 2.75C4.20507 2.75 2.75 4.20507 2.75 6V18C2.75 19.7949 4.20507 21.25 6 21.25C7.79493 21.25 9.25 19.7949 9.25 18V6C9.25 4.20507 7.79493 2.75 6 2.75ZM9.88867 20.7285C9.75944 20.9124 9.61722 21.0866 9.46387 21.25H18C19.7949 21.25 21.25 19.7949 21.25 18C21.25 16.2051 19.7949 14.75 18 14.75H15.8672L9.88867 20.7285ZM6 16.25C6.9665 16.25 7.75 17.0335 7.75 18C7.75 18.9665 6.9665 19.75 6 19.75C5.0335 19.75 4.25 18.9665 4.25 18C4.25 17.0335 5.0335 16.25 6 16.25ZM6 17.75C5.86193 17.75 5.75 17.8619 5.75 18C5.75 18.1381 5.86193 18.25 6 18.25C6.13807 18.25 6.25 18.1381 6.25 18C6.25 17.8619 6.13807 17.75 6 17.75ZM18.4404 5.45898C17.1712 4.18987 15.1129 4.18986 13.8438 5.45898L10.75 8.55371V17.7461L18.4404 10.0557C19.7096 8.78649 19.7096 6.72818 18.4404 5.45898Z" fill="#1C274C"/>
</svg>
