<svg width="24" height="24" viewBox="0 0 24 24" fill="none" xmlns="http://www.w3.org/2000/svg">
<path d="M18.3569 1.38977C18.8325 1.23408 19.4172 1.1391 19.9497 1.49329C20.4875 1.85109 20.6189 2.43057 20.6489 2.92883C20.678 3.41051 20.6233 4.03597 20.5601 4.75793L20.52 5.21692C20.4998 5.4478 20.4885 5.57815 20.4878 5.6759C20.4873 5.73171 20.4911 5.75625 20.4927 5.76379C20.4964 5.77083 20.508 5.79031 20.5386 5.82825C20.5975 5.90124 20.6842 5.99273 20.8413 6.15735L21.1528 6.4845C21.6409 6.99582 22.0677 7.4418 22.3413 7.83411C22.6306 8.24902 22.8716 8.77642 22.6841 9.38684C22.5001 9.98604 22.0141 10.2989 21.5474 10.5001C21.0984 10.6936 20.4889 10.8574 19.7817 11.048L19.3364 11.1681C19.1111 11.2288 18.9829 11.2644 18.8882 11.298C18.8097 11.3259 18.7923 11.3405 18.7905 11.3419C18.7669 11.3605 18.7342 11.3899 18.4878 11.8351L18.2632 12.2413C17.9061 12.8865 17.599 13.4414 17.3032 13.8322C16.9975 14.2362 16.5771 14.6378 15.9497 14.671C15.8506 14.6763 15.7558 14.6719 15.6655 14.6593C15.5462 15.0024 15.4244 15.4295 15.3091 15.9269C15.0513 17.0393 14.8332 18.4672 14.728 20.0304C14.6282 21.5118 13.4178 22.7501 11.8716 22.7501H3.71631C2.95482 22.75 2.23958 22.4396 1.77197 21.9015C1.28999 21.3468 1.09597 20.5703 1.38623 19.7745C2.11694 17.7715 3.39723 15.6878 4.96436 13.9034C6.20286 12.4933 7.64456 11.2425 9.17236 10.3654C9.11343 10.2735 9.0633 10.1708 9.02393 10.0568C8.8167 9.45613 9.04789 8.91362 9.31396 8.48743C9.57319 8.07233 9.9829 7.58614 10.4595 7.02063C10.4716 7.00619 10.4833 6.99123 10.4956 6.97668L10.7593 6.66516C10.9109 6.48526 10.9968 6.38155 11.0562 6.29895C11.0829 6.26173 11.0968 6.23905 11.104 6.22571C11.1101 6.21441 11.1114 6.2095 11.1118 6.20813C11.1121 6.20706 11.1136 6.20281 11.1147 6.19153C11.1161 6.17838 11.1172 6.15417 11.1157 6.11145C11.1124 6.0143 11.0981 5.88581 11.0718 5.65735L11.0259 5.26184C11.0236 5.24264 11.0212 5.22328 11.019 5.20422C10.9364 4.48968 10.8654 3.86999 10.8813 3.38586C10.8982 2.87705 11.0156 2.31472 11.5093 1.92688C12.0055 1.53738 12.58 1.55985 13.0767 1.66907C13.5472 1.77255 14.1261 1.9952 14.7915 2.2511L14.8472 2.27258L15.2153 2.41418C15.4289 2.49629 15.5484 2.54157 15.6401 2.56848C15.6806 2.58034 15.7034 2.58432 15.7153 2.58606C15.7204 2.58682 15.7236 2.58695 15.7251 2.58704H15.731C15.7329 2.58674 15.7371 2.58577 15.7437 2.58411C15.7575 2.58059 15.7826 2.57369 15.8247 2.55676C15.9183 2.51915 16.0383 2.45969 16.2485 2.35559L16.6646 2.14954C17.3247 1.82264 17.8936 1.5415 18.3569 1.38977ZM10.7612 11.2316C9.12338 11.98 7.49306 13.2976 6.09131 14.8937C4.62895 16.5588 3.45366 18.484 2.79541 20.2882C2.70283 20.542 2.75884 20.7501 2.90381 20.9171C3.06323 21.1006 3.35226 21.25 3.71631 21.2501H4.8374C4.86938 21.0903 4.90876 20.9239 4.95361 20.755C5.07865 20.2842 5.25848 19.7416 5.48291 19.1603C5.93177 17.9979 6.57083 16.6496 7.33643 15.3644C8.09928 14.0837 9.00648 12.8359 10.0015 11.8986C10.2528 11.6619 10.5157 11.4381 10.7896 11.2374C10.7802 11.2354 10.7705 11.2336 10.7612 11.2316ZM12.5835 11.9318C12.0978 12.123 11.5761 12.4757 11.0298 12.9904C10.173 13.7976 9.34764 14.918 8.62451 16.132C7.90413 17.3413 7.30218 18.614 6.88232 19.7013C6.67251 20.2446 6.51164 20.7346 6.40381 21.1407C6.39384 21.1782 6.38436 21.2147 6.37549 21.2501H9.12549C9.24442 20.0734 9.60855 18.3922 10.1772 16.7081C10.7401 15.0413 11.5389 13.2651 12.5835 11.9318ZM13.7681 12.8517C12.8872 13.9736 12.1481 15.5592 11.5981 17.1876C11.073 18.7426 10.7521 20.2383 10.6343 21.2501H11.8716C12.5772 21.2501 13.1805 20.6757 13.231 19.9298C13.341 18.2939 13.5706 16.7858 13.8481 15.588C13.9867 14.9896 14.1401 14.4585 14.3003 14.0226C14.3302 13.9411 14.3608 13.8603 14.3931 13.7814C14.195 13.5237 13.9896 13.2067 13.7681 12.8517ZM19.1108 2.75012C19.0679 2.75138 18.9808 2.76319 18.8237 2.81458C18.4759 2.92847 18.0052 3.15998 17.2788 3.51965L16.9136 3.70032C16.888 3.71298 16.8622 3.72553 16.8364 3.7384C16.5179 3.89726 16.1807 4.06533 15.8071 4.08508C15.4285 4.10507 15.0791 3.97009 14.7563 3.84485C14.73 3.83462 14.7033 3.82459 14.6772 3.81458L14.3081 3.672C13.5717 3.3889 13.1002 3.20996 12.7544 3.13391C12.5902 3.09781 12.5017 3.09697 12.4595 3.10168C12.4464 3.10314 12.4393 3.10485 12.437 3.10559L12.4341 3.10852C12.4336 3.10923 12.4325 3.11074 12.4312 3.1134C12.4293 3.11706 12.4258 3.12339 12.4224 3.13293C12.4065 3.1757 12.3861 3.26519 12.3804 3.43567C12.3685 3.79416 12.425 4.30033 12.5161 5.08899L12.562 5.4845C12.5653 5.51226 12.5685 5.5404 12.5718 5.56848C12.613 5.91593 12.6564 6.28708 12.5454 6.64856C12.4357 7.00576 12.1939 7.29234 11.9624 7.56555C11.9437 7.58765 11.9243 7.60901 11.9058 7.63098L11.6431 7.94348C11.1192 8.56516 10.7818 8.96938 10.5864 9.28235C10.4912 9.43486 10.4587 9.51991 10.4487 9.56067C10.4815 9.5828 10.553 9.62018 10.6958 9.66614C11.0317 9.77422 11.5328 9.85786 12.3169 9.98547L12.7095 10.0499C12.7377 10.0545 12.7667 10.059 12.7954 10.0636C13.1369 10.118 13.5122 10.1776 13.8267 10.3868C14.1428 10.5973 14.3407 10.9205 14.519 11.212C14.5341 11.2365 14.5482 11.2613 14.563 11.2853L14.77 11.6193C15.1824 12.2884 15.4468 12.7128 15.6724 12.9777C15.7789 13.1027 15.8443 13.1524 15.8745 13.17C15.8782 13.1679 15.883 13.1645 15.8892 13.1603C15.9292 13.1323 16.0001 13.0679 16.1069 12.9269C16.3299 12.6323 16.5856 12.174 16.978 11.465L17.1753 11.1095C17.189 11.0847 17.2026 11.0594 17.2163 11.0343C17.3891 10.7204 17.5692 10.3936 17.8638 10.1622C18.1593 9.9303 18.5194 9.83413 18.8638 9.74231C18.8913 9.73497 18.9185 9.7272 18.9458 9.71985L19.3364 9.61438C20.1144 9.4047 20.6165 9.26747 20.9536 9.12219C21.1148 9.05269 21.1944 8.99919 21.231 8.96692L21.2485 8.94934C21.248 8.94712 21.2476 8.94393 21.2466 8.94055C21.2368 8.90532 21.2054 8.82811 21.1108 8.6925C20.9116 8.4068 20.5687 8.04428 20.0269 7.47668L19.7563 7.1925C19.737 7.17224 19.7165 7.15255 19.6968 7.13196C19.4599 6.88536 19.1988 6.61258 19.0747 6.25305C18.952 5.8975 18.9855 5.52064 19.0171 5.17297C19.0198 5.14395 19.0224 5.11465 19.0249 5.08606L19.0601 4.68567C19.1299 3.88841 19.1733 3.37635 19.1519 3.01965C19.1428 2.86988 19.1242 2.78942 19.1108 2.75012Z" fill="#1C274C"/>
</svg>
