<svg width="24" height="24" viewBox="0 0 24 24" fill="none" xmlns="http://www.w3.org/2000/svg">
<path d="M13.0547 1.25C14.4222 1.24998 15.5246 1.24968 16.3916 1.36621C17.2917 1.48723 18.0494 1.74673 18.6514 2.34863C18.9498 2.6471 19.1645 2.98393 19.3193 3.35742C20.2512 3.4742 21.0334 3.73069 21.6514 4.34863C22.2533 4.95055 22.5128 5.70829 22.6338 6.6084C22.7503 7.47535 22.75 8.57779 22.75 9.94531V14.0547C22.75 15.4222 22.7503 16.5246 22.6338 17.3916C22.5128 18.2917 22.2533 19.0495 21.6514 19.6514C21.0334 20.2694 20.2513 20.5258 19.3193 20.6426C19.1645 21.016 18.9498 21.3529 18.6514 21.6514C18.0494 22.2533 17.2917 22.5128 16.3916 22.6338C15.5246 22.7503 14.4222 22.75 13.0547 22.75H10.9453C9.57785 22.75 8.47534 22.7503 7.6084 22.6338C6.70829 22.5128 5.95055 22.2533 5.34863 21.6514C5.05021 21.3529 4.83545 21.016 4.68066 20.6426C3.74877 20.5258 2.96663 20.2694 2.34863 19.6514C1.74673 19.0495 1.48723 18.2917 1.36621 17.3916C1.24968 16.5246 1.24998 15.4222 1.25 14.0547V9.94531C1.24998 8.57779 1.24967 7.47535 1.36621 6.6084C1.48723 5.70829 1.74671 4.95055 2.34863 4.34863C2.96663 3.73066 3.74878 3.4742 4.68066 3.35742C4.83546 2.98393 5.05016 2.6471 5.34863 2.34863C5.95055 1.74671 6.70829 1.48723 7.6084 1.36621C8.47534 1.24968 9.57785 1.24998 10.9453 1.25H13.0547ZM11 2.75C9.56486 2.75 8.5639 2.75201 7.80859 2.85352C7.07482 2.95217 6.68594 3.13242 6.40918 3.40918C6.13242 3.68594 5.95217 4.07482 5.85352 4.80859C5.75201 5.5639 5.75 6.56484 5.75 8V16C5.75 17.4354 5.75196 18.437 5.85352 19.1924C5.95218 19.9258 6.13249 20.3141 6.40918 20.5908C6.68594 20.8676 7.07482 21.0478 7.80859 21.1465C8.5639 21.2479 9.56485 21.25 11 21.25H13C14.4354 21.25 15.437 21.248 16.1924 21.1465C16.9258 21.0478 17.3141 20.8676 17.5908 20.5908C17.8676 20.3141 18.0478 19.9258 18.1465 19.1924C18.248 18.437 18.25 17.4354 18.25 16V8C18.25 6.56485 18.2479 5.5639 18.1465 4.80859C18.0478 4.07482 17.8676 3.68594 17.5908 3.40918C17.3141 3.13249 16.9258 2.95218 16.1924 2.85352C15.437 2.75196 14.4354 2.75 13 2.75H11ZM4.32813 4.94043C3.89069 5.04588 3.61812 5.20025 3.40918 5.40918C3.13242 5.68595 2.95217 6.07482 2.85352 6.80859C2.75201 7.56388 2.75 8.56483 2.75 10V14C2.75 15.4354 2.75196 16.4371 2.85352 17.1924C2.95218 17.9258 3.13249 18.3142 3.40918 18.5908C3.61813 18.7998 3.89069 18.9542 4.32813 19.0596C4.24965 18.2484 4.24998 17.2533 4.25 16.0547V7.94531C4.24998 6.74671 4.24966 5.75165 4.32813 4.94043ZM19.6719 4.94043C19.7503 5.75165 19.75 6.74671 19.75 7.94531V16.0547C19.75 17.2533 19.7503 18.2484 19.6719 19.0596C20.1093 18.9542 20.3819 18.7998 20.5908 18.5908C20.8676 18.3142 21.0478 17.9258 21.1465 17.1924C21.248 16.4371 21.25 15.4354 21.25 14V10C21.25 8.56482 21.2479 7.56388 21.1465 6.80859C21.0478 6.07482 20.8676 5.68595 20.5908 5.40918C20.3819 5.20025 20.1093 5.04588 19.6719 4.94043ZM12 16.25C12.4142 16.25 12.75 16.5858 12.75 17C12.75 17.4142 12.4142 17.75 12 17.75H9C8.58579 17.75 8.25 17.4142 8.25 17C8.25 16.5858 8.58579 16.25 9 16.25H12ZM15 12.25C15.4142 12.25 15.75 12.5858 15.75 13C15.75 13.4142 15.4142 13.75 15 13.75H9C8.58579 13.75 8.25 13.4142 8.25 13C8.25 12.5858 8.58579 12.25 9 12.25H15ZM15 8.25C15.4142 8.25 15.75 8.58579 15.75 9C15.75 9.41421 15.4142 9.75 15 9.75H9C8.58579 9.75 8.25 9.41421 8.25 9C8.25 8.58579 8.58579 8.25 9 8.25H15Z" fill="#1C274C"/>
</svg>
