<svg width="24" height="24" viewBox="0 0 24 24" fill="none" xmlns="http://www.w3.org/2000/svg">
<path d="M4.9285 4.92871C8.83367 1.02355 15.1658 1.0237 19.0711 4.92871C22.9763 8.83396 22.9763 15.166 19.0711 19.0713C15.1658 22.9765 8.83375 22.9765 4.9285 19.0713C1.02348 15.166 1.02333 8.83389 4.9285 4.92871ZM7.93436 6.87402C7.64146 6.58112 7.1667 6.58112 6.87381 6.87402C4.0425 9.70532 4.0425 14.2957 6.87381 17.127C7.16672 17.4196 7.64155 17.4197 7.93436 17.127C8.22716 16.8341 8.22699 16.3593 7.93436 16.0664C5.68884 13.8208 5.68884 10.1801 7.93436 7.93457C8.22715 7.64176 8.22697 7.16694 7.93436 6.87402ZM17.1267 6.87402C16.8338 6.58112 16.3591 6.58112 16.0662 6.87402C15.7733 7.16691 15.7733 7.64168 16.0662 7.93457C18.3114 10.1802 18.3116 13.8209 16.0662 16.0664C15.7733 16.3593 15.7733 16.8341 16.0662 17.127C16.3591 17.4196 16.8339 17.4198 17.1267 17.127C19.9579 14.2957 19.9578 9.70535 17.1267 6.87402ZM14.6521 9.34863C13.1876 7.88416 10.8129 7.88416 9.34842 9.34863C7.88395 10.8131 7.88395 13.1878 9.34842 14.6523C10.8129 16.1165 13.1877 16.1167 14.6521 14.6523C16.1164 13.1879 16.1163 10.8131 14.6521 9.34863ZM10.409 10.4092C11.2876 9.53058 12.7119 9.53072 13.5906 10.4092C14.4693 11.2879 14.4693 12.7121 13.5906 13.5908C12.7119 14.4695 11.2877 14.4695 10.409 13.5908C9.53051 12.7121 9.53037 11.2878 10.409 10.4092Z" fill="#1C274C"/>
</svg>
