<svg width="24" height="24" viewBox="0 0 24 24" fill="none" xmlns="http://www.w3.org/2000/svg">
<path d="M4 5C4.00001 5.18213 4.04871 5.35292 4.13379 5.5C4.3067 5.79888 4.62987 6 5 6H17C17.3506 6 17.6872 6.06034 18 6.1709C19.1652 6.58275 20 7.69381 20 9V19C20 20.6569 18.6569 22 17 22H7C5.34316 22 4.00002 20.6569 4 19V5ZM12 10.25C9.92893 10.25 8.25 11.9289 8.25 14C8.25002 16.0711 9.92894 17.75 12 17.75C14.0711 17.75 15.75 16.0711 15.75 14C15.75 11.9289 14.0711 10.25 12 10.25ZM12 11.75C13.2426 11.75 14.25 12.7574 14.25 14C14.25 15.2426 13.2426 16.25 12 16.25C10.7574 16.25 9.75002 15.2426 9.75 14C9.75 12.7574 10.7574 11.75 12 11.75ZM15.7168 2.32617C16.9215 2.15407 17.9998 3.08873 18 4.30566V5.12598C17.6804 5.04371 17.3453 5 17 5H5C5 4.59345 4.75751 4.24325 4.40918 4.08691C4.55304 3.97369 4.72759 3.89564 4.91992 3.86816L15.7168 2.32617Z" fill="#1C274C"/>
</svg>
