<svg width="24" height="24" viewBox="0 0 24 24" fill="none" xmlns="http://www.w3.org/2000/svg">
<path d="M6.55176 12.75C7.45024 12.75 8.20014 12.7501 8.79492 12.8301C9.42254 12.9145 9.98903 13.1003 10.4443 13.5557C10.8997 14.011 11.0855 14.5775 11.1699 15.2051C11.2499 15.7999 11.25 16.5497 11.25 17.4482V17.5518C11.25 18.4503 11.2499 19.2001 11.1699 19.7949C11.0855 20.4225 10.8997 20.989 10.4443 21.4443C9.98903 21.8997 9.42254 22.0855 8.79492 22.1699C8.20015 22.2499 7.45021 22.25 6.55176 22.25H6.44824C5.54978 22.25 4.79985 22.2499 4.20508 22.1699C3.57748 22.0855 3.01102 21.8997 2.55566 21.4443C2.1003 20.989 1.91452 20.4225 1.83008 19.7949C1.75012 19.2001 1.74997 18.4503 1.75 17.5518V17.4482C1.74997 16.5497 1.75012 15.7999 1.83008 15.2051C1.91452 14.5775 2.1003 14.011 2.55566 13.5557C3.01102 13.1003 3.57748 12.9145 4.20508 12.8301C4.79986 12.7501 5.54976 12.75 6.44824 12.75H6.55176ZM17.5518 12.75C18.4503 12.75 19.2001 12.7501 19.7949 12.8301C20.4225 12.9145 20.989 13.1003 21.4443 13.5557C21.8997 14.011 22.0855 14.5775 22.1699 15.2051C22.2499 15.7999 22.25 16.5498 22.25 17.4482V17.5518C22.25 18.4502 22.2499 19.2001 22.1699 19.7949C22.0855 20.4225 21.8997 20.989 21.4443 21.4443C20.989 21.8997 20.4225 22.0855 19.7949 22.1699C19.2001 22.2499 18.4502 22.25 17.5518 22.25H17.4482C16.5498 22.25 15.7999 22.2499 15.2051 22.1699C14.5775 22.0855 14.011 21.8997 13.5557 21.4443C13.1003 20.989 12.9145 20.4225 12.8301 19.7949C12.7501 19.2001 12.75 18.4503 12.75 17.5518V17.4482C12.75 16.5497 12.7501 15.7999 12.8301 15.2051C12.9145 14.5775 13.1003 14.011 13.5557 13.5557C14.011 13.1003 14.5775 12.9145 15.2051 12.8301C15.7999 12.7501 16.5497 12.75 17.4482 12.75H17.5518ZM6.5 14.25C5.53599 14.25 4.8883 14.2515 4.40527 14.3164C3.94388 14.3785 3.74652 14.4859 3.61621 14.6162C3.48591 14.7465 3.37845 14.9439 3.31641 15.4053C3.25147 15.8883 3.25 16.536 3.25 17.5C3.25 18.464 3.25147 19.1117 3.31641 19.5947C3.37845 20.0561 3.48591 20.2535 3.61621 20.3838C3.74652 20.5141 3.94389 20.6215 4.40527 20.6836C4.8883 20.7485 5.53599 20.75 6.5 20.75C7.46401 20.75 8.11169 20.7485 8.59473 20.6836C9.05612 20.6215 9.25348 20.5141 9.38379 20.3838C9.51409 20.2535 9.62155 20.0561 9.68359 19.5947C9.74853 19.1117 9.75 18.464 9.75 17.5C9.75 16.536 9.74853 15.8883 9.68359 15.4053C9.62155 14.9439 9.51409 14.7465 9.38379 14.6162C9.25348 14.4859 9.05612 14.3785 8.59473 14.3164C8.11169 14.2515 7.46401 14.25 6.5 14.25ZM17.5 14.25C16.536 14.25 15.8883 14.2515 15.4053 14.3164C14.9439 14.3785 14.7465 14.4859 14.6162 14.6162C14.4859 14.7465 14.3785 14.9439 14.3164 15.4053C14.2515 15.8883 14.25 16.536 14.25 17.5C14.25 18.464 14.2515 19.1117 14.3164 19.5947C14.3785 20.0561 14.4859 20.2535 14.6162 20.3838C14.7465 20.5141 14.9439 20.6215 15.4053 20.6836C15.8883 20.7485 16.536 20.75 17.5 20.75C18.464 20.75 19.1117 20.7485 19.5947 20.6836C20.0561 20.6215 20.2535 20.5141 20.3838 20.3838C20.5141 20.2535 20.6215 20.0561 20.6836 19.5947C20.7485 19.1117 20.75 18.464 20.75 17.5C20.75 16.536 20.7485 15.8883 20.6836 15.4053C20.6215 14.9439 20.5141 14.7465 20.3838 14.6162C20.2535 14.4859 20.0561 14.3785 19.5947 14.3164C19.1117 14.2515 18.464 14.25 17.5 14.25ZM6.55176 1.75C7.45023 1.74997 8.20015 1.75012 8.79492 1.83008C9.42254 1.91452 9.98903 2.1003 10.4443 2.55566C10.8997 3.01102 11.0855 3.57748 11.1699 4.20508C11.2499 4.79986 11.25 5.54977 11.25 6.44824V6.55176C11.25 7.45023 11.2499 8.20015 11.1699 8.79492C11.0855 9.42254 10.8997 9.98903 10.4443 10.4443C9.98903 10.8997 9.42254 11.0855 8.79492 11.1699C8.20015 11.2499 7.45023 11.25 6.55176 11.25H6.44824C5.54977 11.25 4.79986 11.2499 4.20508 11.1699C3.57748 11.0855 3.01102 10.8997 2.55566 10.4443C2.1003 9.98903 1.91452 9.42254 1.83008 8.79492C1.75012 8.20015 1.74997 7.45023 1.75 6.55176V6.44824C1.74997 5.54977 1.75012 4.79986 1.83008 4.20508C1.91452 3.57747 2.1003 3.01102 2.55566 2.55566C3.01102 2.1003 3.57747 1.91452 4.20508 1.83008C4.79986 1.75012 5.54978 1.74997 6.44824 1.75H6.55176ZM17.5518 1.75C18.4503 1.74997 19.2001 1.75012 19.7949 1.83008C20.4225 1.91452 20.989 2.1003 21.4443 2.55566C21.8997 3.01102 22.0855 3.57748 22.1699 4.20508C22.2499 4.79986 22.25 5.54977 22.25 6.44824V6.55176C22.25 7.45023 22.2499 8.20015 22.1699 8.79492C22.0855 9.42254 21.8997 9.98903 21.4443 10.4443C20.989 10.8997 20.4225 11.0855 19.7949 11.1699C19.2001 11.2499 18.4503 11.25 17.5518 11.25H17.4482C16.5497 11.25 15.7999 11.2499 15.2051 11.1699C14.5775 11.0855 14.011 10.8997 13.5557 10.4443C13.1003 9.98903 12.9145 9.42254 12.8301 8.79492C12.7501 8.20014 12.75 7.45024 12.75 6.55176V6.44824C12.75 5.54976 12.7501 4.79986 12.8301 4.20508C12.9145 3.57748 13.1003 3.01102 13.5557 2.55566C14.011 2.1003 14.5775 1.91452 15.2051 1.83008C15.7999 1.75012 16.5497 1.74997 17.4482 1.75H17.5518ZM6.5 3.25C5.53599 3.25 4.8883 3.25147 4.40527 3.31641C3.94388 3.37845 3.74652 3.4859 3.61621 3.61621C3.4859 3.74652 3.37845 3.94388 3.31641 4.40527C3.25147 4.8883 3.25 5.53599 3.25 6.5C3.25 7.46401 3.25147 8.11169 3.31641 8.59473C3.37845 9.05611 3.4859 9.25348 3.61621 9.38379C3.74652 9.51409 3.94388 9.62155 4.40527 9.68359C4.8883 9.74853 5.53599 9.75 6.5 9.75C7.46401 9.75 8.11169 9.74853 8.59473 9.68359C9.05612 9.62155 9.25348 9.51409 9.38379 9.38379C9.51409 9.25348 9.62155 9.05612 9.68359 8.59473C9.74853 8.11169 9.75 7.46401 9.75 6.5C9.75 5.53599 9.74853 4.8883 9.68359 4.40527C9.62155 3.94388 9.51409 3.74652 9.38379 3.61621C9.25348 3.4859 9.05611 3.37845 8.59473 3.31641C8.11169 3.25147 7.46401 3.25 6.5 3.25ZM17.5 3.25C16.536 3.25 15.8883 3.25147 15.4053 3.31641C14.9439 3.37845 14.7465 3.48591 14.6162 3.61621C14.4859 3.74652 14.3785 3.94388 14.3164 4.40527C14.2515 4.8883 14.25 5.53599 14.25 6.5C14.25 7.46401 14.2515 8.11169 14.3164 8.59473C14.3785 9.05612 14.4859 9.25348 14.6162 9.38379C14.7465 9.51409 14.9439 9.62155 15.4053 9.68359C15.8883 9.74853 16.536 9.75 17.5 9.75C18.464 9.75 19.1117 9.74853 19.5947 9.68359C20.0561 9.62155 20.2535 9.51409 20.3838 9.38379C20.5141 9.25348 20.6215 9.05612 20.6836 8.59473C20.7485 8.11169 20.75 7.46401 20.75 6.5C20.75 5.53599 20.7485 4.8883 20.6836 4.40527C20.6215 3.94389 20.5141 3.74652 20.3838 3.61621C20.2535 3.48591 20.0561 3.37845 19.5947 3.31641C19.1117 3.25147 18.464 3.25 17.5 3.25Z" fill="#48465C"/>
</svg>
