<svg width="24" height="24" viewBox="0 0 24 24" fill="none" xmlns="http://www.w3.org/2000/svg">
<path d="M12 2C13.7157 2 15.0959 3.38116 17.8574 6.14258C20.6188 8.904 22 10.2843 22 12C22 13.7157 20.6188 15.0959 17.8574 17.8574C15.0959 20.6188 13.7157 22 12 22C10.2843 22 8.904 20.6188 6.14258 17.8574C3.38116 15.0959 2 13.7157 2 12C2 10.2843 3.38115 8.904 6.14258 6.14258C8.904 3.38115 10.2843 2 12 2ZM13.8467 8.45312C13.5445 8.16982 13.0694 8.18512 12.7861 8.4873C12.5031 8.78944 12.5183 9.26362 12.8203 9.54688L14.1035 10.75H10.667C10.1119 10.75 9.28829 10.8998 8.58008 11.3779C7.83176 11.883 7.25 12.7345 7.25 14C7.25 14.4142 7.58579 14.75 8 14.75C8.41421 14.75 8.75 14.4142 8.75 14C8.75 13.2655 9.05712 12.867 9.41992 12.6221C9.82281 12.3502 10.3332 12.25 10.667 12.25H14.1035L12.8203 13.4531C12.5184 13.7364 12.5031 14.2106 12.7861 14.5127C13.0694 14.8148 13.5445 14.8302 13.8467 14.5469L16.5127 12.0469C16.6639 11.9051 16.75 11.7073 16.75 11.5C16.75 11.2927 16.6639 11.0949 16.5127 10.9531L13.8467 8.45312Z" fill="#1C274C"/>
</svg>
