<svg width="24" height="24" viewBox="0 0 24 24" fill="none" xmlns="http://www.w3.org/2000/svg">
<path d="M15.6982 3.7533C16.6292 3.29862 17.6652 3.04402 18.5283 3.4613C18.9883 3.68376 19.3065 4.05671 19.499 4.50037C19.6302 4.80255 19.7034 5.13607 19.7334 5.48376L19.75 5.83533L19.7471 6.04724C19.7456 6.09458 19.742 6.14266 19.7393 6.1908C19.7386 6.203 19.7381 6.21565 19.7373 6.22791C19.7346 6.27048 19.7302 6.31364 19.7266 6.35681C19.7181 6.45905 19.708 6.56354 19.6943 6.66931C19.6861 6.73284 19.676 6.79712 19.666 6.86169C19.654 6.93947 19.6415 7.01859 19.627 7.09802C19.6141 7.16836 19.5998 7.23953 19.585 7.31091C19.5683 7.39111 19.5503 7.4724 19.5312 7.55408C19.5226 7.59139 19.516 7.62981 19.5068 7.66736C19.5031 7.68261 19.4968 7.69748 19.4922 7.71228C19.3643 8.22552 19.1937 8.76654 18.9814 9.32263C18.8796 9.58884 18.642 9.76031 18.3779 9.79529C18.3929 9.80082 18.408 9.80634 18.4229 9.81189C18.523 9.84924 18.6222 9.88678 18.7197 9.92517C18.7741 9.94658 18.8283 9.9679 18.8818 9.98962C18.9028 9.99813 18.9235 10.0074 18.9443 10.016C18.9907 10.035 19.0373 10.0533 19.083 10.0726C19.1061 10.0824 19.1294 10.0921 19.1523 10.1019C19.2099 10.1265 19.2668 10.1521 19.3232 10.1771C19.3379 10.1836 19.3526 10.1902 19.3672 10.1967C19.4114 10.2164 19.4555 10.2362 19.499 10.2562C19.5599 10.2842 19.6201 10.3128 19.6797 10.3412C19.717 10.359 19.7542 10.3769 19.791 10.3949C19.8145 10.4064 19.8381 10.4176 19.8613 10.4291C19.9133 10.4549 19.9648 10.481 20.0156 10.5072C20.0524 10.5261 20.0888 10.5457 20.125 10.5648C20.1502 10.5781 20.1753 10.5915 20.2002 10.6049C20.2245 10.6179 20.2495 10.6298 20.2734 10.6429L20.291 10.6527C20.3811 10.7023 20.47 10.7529 20.5566 10.8041C20.5893 10.8234 20.6212 10.8441 20.6533 10.8636C20.6799 10.8798 20.7063 10.8962 20.7324 10.9125C20.7847 10.945 20.8362 10.9781 20.8867 11.0111C21.0409 11.1118 21.1881 11.2153 21.3271 11.3217C21.3605 11.3472 21.394 11.3727 21.4268 11.3988C21.5113 11.4662 21.5931 11.5343 21.6709 11.6039C21.7227 11.6503 21.7739 11.6974 21.8232 11.7455L21.8613 11.7836C21.8653 11.7876 21.8691 11.7923 21.873 11.7963C21.9151 11.8385 21.9562 11.8817 21.9961 11.9252C22.0076 11.9377 22.02 11.9497 22.0312 11.9623C22.0355 11.9671 22.0397 11.9731 22.0439 11.9779C22.1529 12.1012 22.2521 12.2298 22.3398 12.3627C22.3524 12.3817 22.3649 12.401 22.377 12.4203C22.4621 12.556 22.5347 12.6968 22.5928 12.8422C22.5967 12.8518 22.6017 12.8617 22.6055 12.8715C22.6083 12.879 22.6105 12.8873 22.6133 12.8949C22.6224 12.9194 22.6314 12.9443 22.6396 12.9691C22.6512 13.0038 22.661 13.0393 22.6709 13.0746C22.6753 13.0904 22.6805 13.1065 22.6846 13.1224C22.6942 13.1604 22.7024 13.1991 22.71 13.2377C22.7135 13.2558 22.7176 13.2741 22.7207 13.2924C22.7214 13.2962 22.723 13.3003 22.7236 13.3041L22.7422 13.4554L22.75 13.601C22.75 13.6067 22.749 13.6128 22.749 13.6185C22.7491 13.6213 22.75 13.6245 22.75 13.6273V13.6439C22.7499 13.6519 22.7492 13.6603 22.749 13.6683C22.7484 13.6997 22.7472 13.7312 22.7451 13.7621C22.7429 13.7952 22.7392 13.8283 22.7354 13.8607C22.734 13.872 22.733 13.8837 22.7314 13.8949C22.7264 13.9317 22.7199 13.9683 22.7129 14.0043C22.7108 14.0149 22.7083 14.0259 22.7061 14.0365C22.6964 14.0814 22.6845 14.1257 22.6719 14.1693C22.67 14.1759 22.669 14.1832 22.667 14.1898C22.6589 14.2167 22.6499 14.2435 22.6406 14.2699C22.6341 14.2885 22.6272 14.3072 22.6201 14.3256C22.6191 14.3281 22.6172 14.3308 22.6162 14.3334C22.613 14.3417 22.6098 14.3505 22.6064 14.3588C22.5745 14.4374 22.5382 14.5142 22.4971 14.5883C22.4852 14.6096 22.4725 14.6308 22.46 14.6517C22.4424 14.681 22.4242 14.7102 22.4053 14.7386L22.3662 14.7972C22.3612 14.8045 22.3567 14.8125 22.3516 14.8197C22.2684 14.9351 22.1728 15.0441 22.0684 15.1478C22.0606 15.1556 22.0528 15.1636 22.0449 15.1713C22.0138 15.2015 21.9811 15.2309 21.9482 15.2601C21.9342 15.2727 21.9195 15.2849 21.9053 15.2972C21.8876 15.3125 21.8697 15.3281 21.8516 15.3431C21.8498 15.3447 21.8485 15.3475 21.8467 15.349C21.8458 15.3497 21.8446 15.3503 21.8438 15.351C21.8375 15.356 21.8305 15.3605 21.8242 15.3656C21.8142 15.3737 21.804 15.382 21.7939 15.39C21.75 15.4247 21.7045 15.4583 21.6582 15.4916C21.6411 15.5039 21.6239 15.5166 21.6064 15.5287C21.5405 15.5745 21.4725 15.6194 21.4023 15.6625C21.3875 15.6716 21.3725 15.6808 21.3574 15.6898C21.3391 15.7007 21.3203 15.7113 21.3018 15.722C21.284 15.7324 21.2661 15.7431 21.248 15.7533C21.2324 15.7621 21.216 15.77 21.2002 15.7787C21.1404 15.8115 21.079 15.8432 21.0166 15.8744C20.9819 15.8918 20.9467 15.9092 20.9111 15.9261C20.8527 15.9539 20.7929 15.9807 20.7324 16.0072C20.6886 16.0264 20.6445 16.0463 20.5996 16.0648C20.5745 16.0752 20.5489 16.0849 20.5234 16.0951C20.4854 16.1103 20.4469 16.1253 20.4082 16.14C20.3216 16.173 20.2333 16.205 20.1436 16.2357C20.1016 16.2501 20.0591 16.2639 20.0166 16.2777C19.9907 16.2861 19.9646 16.2948 19.9385 16.3031C19.8965 16.3163 19.8541 16.3293 19.8115 16.3422C19.7568 16.3586 19.7021 16.3763 19.6465 16.392L19.6455 16.389C19.3401 16.4752 19.0195 16.5538 18.6855 16.6195C18.2793 16.6993 17.8848 16.4348 17.8047 16.0287C17.7248 15.6224 17.9893 15.2279 18.3955 15.1478C18.8252 15.0634 19.2096 14.9634 19.5469 14.8539C19.5939 14.8386 19.6397 14.8226 19.6846 14.807C19.7472 14.7853 19.8081 14.763 19.8672 14.7406C19.9109 14.724 19.9537 14.7076 19.9951 14.6908C20.09 14.6523 20.1799 14.6129 20.2646 14.5726C20.2831 14.5639 20.3014 14.5551 20.3193 14.5463C20.3567 14.5279 20.3928 14.5091 20.4277 14.4906C20.4453 14.4813 20.4625 14.4716 20.4795 14.4623C20.5537 14.4215 20.6229 14.3807 20.6865 14.3392C20.6997 14.3307 20.7129 14.3224 20.7256 14.3138C20.7869 14.2724 20.8437 14.2315 20.8945 14.1898C20.9471 14.1466 20.9915 14.1037 21.0303 14.0638C21.0973 13.9945 21.1454 13.9303 21.1787 13.8705C21.1898 13.851 21.1988 13.8315 21.207 13.8129C21.21 13.806 21.2132 13.7991 21.2158 13.7924C21.2239 13.7717 21.2305 13.7516 21.2354 13.7318C21.2379 13.7213 21.2394 13.7106 21.2412 13.7006C21.2437 13.6857 21.2471 13.6711 21.248 13.6566C21.2499 13.6316 21.2499 13.6079 21.248 13.5863C21.2421 13.5183 21.2192 13.4372 21.1758 13.3451C21.1625 13.317 21.1466 13.2877 21.1289 13.2572C21.121 13.2436 21.1132 13.2292 21.1045 13.2152C21.0787 13.1742 21.05 13.1301 21.0156 13.0853C20.9691 13.0246 20.9132 12.9615 20.8496 12.8949C20.8091 12.8526 20.7652 12.8101 20.7188 12.767C20.7072 12.7562 20.6956 12.7447 20.6836 12.7338C20.6264 12.6821 20.5647 12.6301 20.499 12.5775C20.4832 12.5649 20.4667 12.5522 20.4502 12.5394C20.2912 12.4156 20.1087 12.2892 19.9023 12.1625C19.6081 11.9818 19.274 11.8057 18.9053 11.6351C18.717 11.5481 18.5191 11.4615 18.3115 11.3773C18.1865 11.3267 18.058 11.2771 17.9268 11.2279C17.8446 11.1971 17.7613 11.1663 17.6768 11.1361C17.5618 11.0951 17.4444 11.0548 17.3252 11.015C16.9869 10.9021 16.6321 10.7943 16.2627 10.6927C16.2221 10.6816 16.1815 10.6696 16.1406 10.6586C16.1381 10.6579 16.1354 10.6564 16.1328 10.6556C14.7883 10.2948 13.2566 10.0172 11.627 9.86755C11.4709 9.85322 11.3159 9.84012 11.1621 9.82849C10.7684 10.33 10.3801 10.8608 10.002 11.4154C9.25159 12.5161 8.62227 13.5977 8.12305 14.6117C8.30201 14.6578 8.48355 14.7055 8.66895 14.7484C9.07243 14.8419 9.32387 15.2453 9.23047 15.6488C9.13681 16.0519 8.73428 16.3035 8.33105 16.2103C8.05 16.1453 7.77378 16.0748 7.50293 16.0023C7.28722 16.5444 7.11536 17.0563 6.99121 17.5287C6.96297 17.6362 6.93809 17.7414 6.91504 17.8431C6.89895 17.9142 6.88373 17.984 6.87012 18.0521C6.86178 18.0939 6.85411 18.1355 6.84668 18.1761C6.83807 18.2233 6.83065 18.2702 6.82324 18.3158C6.81512 18.3658 6.8065 18.4151 6.7998 18.4633C6.79483 18.4991 6.79034 18.5349 6.78613 18.5697C6.78017 18.6191 6.77495 18.6678 6.77051 18.7152C6.76715 18.7511 6.7652 18.7869 6.7627 18.8217C6.75998 18.8593 6.75759 18.8967 6.75586 18.933C6.75407 18.9707 6.7527 19.0081 6.75195 19.0443C6.75113 19.0845 6.75053 19.1241 6.75098 19.1625C6.75124 19.1845 6.75226 19.2065 6.75293 19.2279C6.75421 19.2689 6.75504 19.3093 6.75781 19.348C6.7619 19.4051 6.7682 19.46 6.77539 19.5121C6.78426 19.5763 6.79437 19.635 6.80664 19.6879C6.81032 19.7036 6.81542 19.719 6.81934 19.7338C6.82676 19.7618 6.83352 19.789 6.8418 19.8138C6.84771 19.8316 6.85507 19.8484 6.86133 19.8646C6.86787 19.8815 6.87396 19.8982 6.88086 19.9135C6.89122 19.9364 6.90308 19.9574 6.91406 19.9769C6.91844 19.9848 6.92228 19.9931 6.92676 20.0004C6.93553 20.0147 6.94509 20.0279 6.9541 20.0404C6.98448 20.0823 7.01591 20.1144 7.04688 20.139C7.0722 20.1591 7.09725 20.1751 7.12109 20.1869H7.12012L7.125 20.1888C7.1465 20.1992 7.17053 20.2089 7.19727 20.2172L7.28809 20.2386L7.38867 20.2494C7.49796 20.255 7.63401 20.2441 7.7998 20.2084C8.19945 20.1223 8.70676 19.9029 9.30078 19.5306L9.72266 19.2504C9.96206 19.0827 10.2095 18.8951 10.4629 18.6888H10.4639L11.1191 18.1556C10.8388 18.0544 10.5795 17.9564 10.374 17.848C10.1193 17.7136 9.80712 17.4959 9.65918 17.1156L9.60645 16.9427C9.49405 16.4449 9.72127 16.0511 9.92773 15.7914C10.1247 15.5437 10.42 15.2732 10.7246 14.9916H10.7256L10.8926 14.8363C10.9398 14.7926 10.976 14.7604 11.0059 14.7318C11.0106 14.7273 11.0144 14.7221 11.0186 14.7181C11.0187 14.7091 11.0195 14.699 11.0195 14.6879C11.0195 14.6446 11.0186 14.594 11.0176 14.5277L11.0146 14.2924C11.0081 13.8623 10.9998 13.4547 11.041 13.139C11.0823 12.8228 11.2014 12.3627 11.6562 12.1L11.7412 12.0551C12.167 11.8534 12.5862 11.9727 12.8623 12.0873C13.1563 12.2094 13.5058 12.4204 13.875 12.641L14.0771 12.7621L14.2148 12.8431C14.2242 12.8485 14.2335 12.8525 14.2412 12.8568C14.2468 12.8552 14.2534 12.8547 14.2598 12.8529C14.2995 12.8413 14.3457 12.8271 14.4072 12.808L14.625 12.7396C15.0214 12.6165 15.4037 12.4964 15.7168 12.4496C16.0448 12.4006 16.4991 12.4004 16.874 12.7465C17.2426 13.0869 17.2869 13.5348 17.2744 13.8636C17.2622 14.1829 17.1864 14.5809 17.1084 15.0004L17.0654 15.2299C17.0534 15.2946 17.0443 15.3438 17.0371 15.3861C17.0344 15.4019 17.033 15.4155 17.0312 15.4271C17.0388 15.4385 17.0475 15.453 17.0586 15.4691C17.0835 15.5051 17.1127 15.5469 17.1514 15.601H17.1523L17.29 15.7953C17.5432 16.1497 17.7829 16.4815 17.9307 16.766C18.0605 17.0159 18.1999 17.3781 18.1006 17.7797L18.043 17.9545C17.8395 18.4388 17.4041 18.6148 17.0879 18.6937C16.7815 18.7702 16.3802 18.8048 15.9648 18.8431L15.7363 18.8646C15.6722 18.8706 15.6233 18.8748 15.582 18.8793C15.5785 18.8796 15.5745 18.8799 15.5713 18.8802C15.5691 18.8833 15.5669 18.8867 15.5645 18.89L15.4736 19.016L15.3408 19.2035C15.0999 19.544 14.8697 19.8739 14.6504 20.101C14.4381 20.3207 14.0991 20.5886 13.6279 20.5668L13.5322 20.559C13.0263 20.4949 12.7318 20.1389 12.5586 19.8676C12.4418 19.6846 12.3287 19.4534 12.2109 19.2006L11.4102 19.8529L11.4092 19.8519C11.1307 20.0785 10.8549 20.2885 10.583 20.4789C10.42 20.593 10.2582 20.7016 10.0977 20.8021C9.50486 21.1736 8.9153 21.459 8.35449 21.6156L8.11621 21.6752C7.75977 21.752 7.39633 21.7768 7.04492 21.7191C6.84982 21.6871 6.65917 21.6285 6.47754 21.5414C6.4714 21.5385 6.46568 21.5364 6.46387 21.5355L6.46289 21.5345L6.45508 21.5316C6.32305 21.4663 6.20394 21.3887 6.09668 21.3021C6.06766 21.2787 6.03998 21.2537 6.0127 21.2289C6.00473 21.2216 5.99611 21.2147 5.98828 21.2074C5.9685 21.1888 5.94952 21.1691 5.93066 21.1498C5.91801 21.1368 5.90483 21.124 5.89258 21.1107C5.87176 21.0882 5.85265 21.0638 5.83301 21.0404C5.82388 21.0295 5.81359 21.0192 5.80469 21.0082C5.78728 20.9865 5.77037 20.9641 5.75391 20.9418C5.74303 20.927 5.73216 20.9119 5.72168 20.8969C5.70831 20.8777 5.69533 20.8579 5.68262 20.8383C5.6697 20.8183 5.65679 20.798 5.64453 20.7777C5.63301 20.7586 5.62227 20.7386 5.61133 20.7191C5.60189 20.7023 5.59203 20.6854 5.58301 20.6683C5.57245 20.6484 5.56175 20.6281 5.55176 20.6078C5.54101 20.586 5.53061 20.5636 5.52051 20.5414C5.50635 20.5103 5.49531 20.4774 5.48242 20.4457C5.45968 20.3898 5.43697 20.3334 5.41797 20.2758C5.40749 20.2439 5.39805 20.2114 5.38867 20.1791C5.37302 20.1252 5.35743 20.0709 5.34473 20.016C5.33505 19.9742 5.32833 19.9313 5.32031 19.889C5.31372 19.8543 5.30436 19.8195 5.29883 19.7845C5.29662 19.7705 5.29597 19.7557 5.29395 19.7416C5.29245 19.7313 5.28953 19.7206 5.28809 19.7103C5.28464 19.685 5.28419 19.6588 5.28125 19.6332C5.2745 19.5748 5.26797 19.5154 5.26367 19.4554C5.26116 19.4204 5.2595 19.3846 5.25781 19.349C5.25503 19.2902 5.25255 19.2304 5.25195 19.1703C5.25158 19.132 5.25243 19.093 5.25293 19.0541C5.25381 18.986 5.25434 18.9167 5.25781 18.847C5.25931 18.817 5.26169 18.7865 5.26367 18.7562C5.26835 18.6845 5.27496 18.6117 5.28223 18.5385C5.28549 18.5055 5.28919 18.4721 5.29297 18.4388C5.30045 18.3731 5.30796 18.3064 5.31738 18.2396C5.32441 18.1899 5.33273 18.1396 5.34082 18.0892C5.35062 18.0282 5.36077 17.9664 5.37207 17.9047C5.38507 17.8337 5.39913 17.7618 5.41406 17.6898C5.42112 17.6558 5.42904 17.6215 5.43652 17.5873C5.4479 17.5353 5.45935 17.4825 5.47168 17.4301C5.47918 17.3982 5.48534 17.3654 5.49316 17.3334C5.4959 17.3222 5.50066 17.3111 5.50391 17.3002C5.51644 17.2497 5.52766 17.1977 5.54102 17.1469C5.67218 16.6478 5.847 16.1177 6.0625 15.5648C5.97087 15.5336 5.87972 15.5032 5.79004 15.4711C5.69425 15.4367 5.5994 15.4019 5.50586 15.3666C5.45543 15.3475 5.40521 15.3283 5.35547 15.309C5.29672 15.2862 5.23845 15.2628 5.18066 15.2396V15.2406H5.17969C5.14686 15.2274 5.11455 15.2129 5.08203 15.1996C5.01169 15.1708 4.94187 15.142 4.87305 15.1127C4.86503 15.1093 4.85664 15.1063 4.84863 15.1029C4.79976 15.082 4.75123 15.0606 4.70312 15.0394C4.65461 15.0181 4.60629 14.9966 4.55859 14.975C4.53897 14.9661 4.51949 14.9566 4.5 14.9476C4.49263 14.9442 4.48489 14.9413 4.47754 14.9379C4.43785 14.9196 4.39848 14.9007 4.35938 14.8822C4.32571 14.8663 4.29201 14.8504 4.25879 14.8344C4.23333 14.822 4.20782 14.8096 4.18262 14.7972C4.14563 14.779 4.10866 14.7609 4.07227 14.7426C4.05734 14.735 4.04217 14.7276 4.02734 14.7201C3.75619 14.5819 3.50179 14.4384 3.26562 14.2914C3.23828 14.2744 3.21053 14.2578 3.18359 14.2406C3.15756 14.224 3.132 14.2065 3.10645 14.1898C3.05325 14.155 3.00068 14.1198 2.94922 14.0844C2.94266 14.0798 2.93525 14.0762 2.92871 14.0717V14.0707C2.92515 14.0682 2.92152 14.0654 2.91797 14.0629C2.8333 14.0039 2.75144 13.9431 2.67188 13.8822C2.63854 13.8567 2.60498 13.8312 2.57227 13.8051C2.48533 13.7357 2.40106 13.6658 2.32129 13.5941C2.2659 13.5443 2.21165 13.4934 2.15918 13.4418C2.13996 13.4229 2.12123 13.4032 2.10254 13.3842C2.066 13.3469 2.03091 13.3081 1.99609 13.2699C1.98748 13.2604 1.97726 13.252 1.96875 13.2426C1.96399 13.2372 1.95978 13.2304 1.95508 13.225C1.84586 13.1013 1.74606 12.9726 1.6582 12.8392C1.64465 12.8186 1.63117 12.7976 1.61816 12.7767C1.53238 12.6392 1.4592 12.4965 1.40137 12.349C1.39939 12.344 1.39651 12.3384 1.39453 12.3334C1.38864 12.318 1.38349 12.302 1.37793 12.2865C1.37101 12.2672 1.36478 12.2473 1.3584 12.2279C1.34771 12.1955 1.3383 12.1622 1.3291 12.1293C1.32469 12.1134 1.31949 12.0974 1.31543 12.0814C1.30577 12.0435 1.29762 12.0048 1.29004 11.9662C1.28651 11.9481 1.28237 11.9297 1.2793 11.9115C1.2703 11.8582 1.26258 11.8038 1.25781 11.7494C1.25267 11.6904 1.251 11.6319 1.25098 11.5746C1.25099 11.561 1.25165 11.5471 1.25195 11.5336C1.25282 11.4912 1.25524 11.449 1.25879 11.4076C1.2604 11.3891 1.26155 11.3703 1.26367 11.3519C1.26959 11.3005 1.27725 11.2495 1.28711 11.1996C1.29731 11.1481 1.31003 11.0971 1.32422 11.0472C1.33062 11.0247 1.33754 11.002 1.34473 10.9799C1.35187 10.9578 1.35833 10.9352 1.36621 10.9135C1.37241 10.8964 1.38005 10.8795 1.38672 10.8627C1.38961 10.8553 1.39253 10.8475 1.39551 10.8402C1.41292 10.7976 1.43197 10.7555 1.45215 10.7142C1.45978 10.6986 1.46758 10.6828 1.47559 10.6674C1.49356 10.6328 1.51242 10.5984 1.53223 10.5648C1.55067 10.5334 1.57079 10.5026 1.59082 10.472C1.60003 10.458 1.60963 10.4439 1.61914 10.4301C1.62918 10.4154 1.63806 10.3996 1.64844 10.3851L1.75488 10.2474C1.81108 10.1799 1.87258 10.1154 1.93652 10.0521C1.94512 10.0436 1.95418 10.0352 1.96289 10.0267C2.02166 9.97002 2.08285 9.91403 2.14746 9.86072C2.1493 9.8592 2.15147 9.85736 2.15332 9.85583C2.16094 9.84958 2.16905 9.84349 2.17676 9.83728C2.18693 9.82906 2.19677 9.82 2.20703 9.81189C2.21947 9.80208 2.23247 9.79229 2.24512 9.78259C2.27407 9.76038 2.30404 9.73877 2.33398 9.71716C2.35788 9.69992 2.38268 9.68327 2.40723 9.66638C2.42694 9.65282 2.44667 9.6387 2.4668 9.62537C2.53072 9.58302 2.59643 9.54126 2.66406 9.50134C2.68063 9.49156 2.69803 9.48266 2.71484 9.47302C2.74759 9.45422 2.78092 9.43562 2.81445 9.41736C2.84555 9.40043 2.87738 9.38405 2.90918 9.36755C2.964 9.33911 3.02025 9.31175 3.07715 9.28455C3.10728 9.27014 3.13729 9.25466 3.16797 9.2406C3.22773 9.21322 3.28877 9.18662 3.35059 9.16052C3.38825 9.14462 3.42647 9.12907 3.46484 9.11365C3.47169 9.1109 3.47849 9.1076 3.48535 9.10486C3.49977 9.09912 3.51383 9.09198 3.52832 9.0863C3.56841 9.07063 3.60956 9.05656 3.65039 9.04138C3.69056 9.02645 3.73162 9.01287 3.77246 8.99841C3.81095 8.98479 3.84959 8.9706 3.88867 8.9574C3.92102 8.94647 3.95367 8.93578 3.98633 8.92517C4.02761 8.91175 4.06946 8.89907 4.11133 8.88611C4.15972 8.87112 4.20864 8.85656 4.25781 8.84216C4.28969 8.83283 4.32134 8.82195 4.35352 8.81287V8.81482C4.41045 8.79875 4.46752 8.78131 4.52539 8.76599C6.10194 8.34887 8.17577 8.17161 10.4834 8.28357C11.6001 6.9377 12.7567 5.79317 13.8516 4.93982C13.9097 4.89453 13.9685 4.85072 14.0264 4.80701C14.0807 4.76592 14.1345 4.72454 14.1885 4.68494C14.2498 4.63999 14.3121 4.59716 14.373 4.55408C14.4339 4.51103 14.4943 4.46819 14.5547 4.42712C14.6618 4.35424 14.7683 4.2839 14.874 4.21716C15.1528 4.04125 15.4283 3.88512 15.6982 3.7533ZM12.5146 14.2699L12.5176 14.5052C12.5205 14.6974 12.5406 15.0165 12.418 15.309H12.417C12.2918 15.6066 12.0471 15.8123 11.9111 15.9379L11.7432 16.0931C11.5021 16.316 11.3364 16.4708 11.2217 16.5902C11.3827 16.6591 11.6096 16.7405 11.9414 16.8578L12.1611 16.9359C12.3219 16.9927 12.5709 17.0691 12.7861 17.2308L12.876 17.306L12.957 17.389C13.1346 17.5893 13.2328 17.8316 13.3047 17.9896L13.4033 18.2054C13.5409 18.5079 13.6405 18.7229 13.7217 18.8793C13.8203 18.7523 13.9461 18.5791 14.1172 18.3373L14.249 18.1498L14.3418 18.0179C14.4485 17.8703 14.5992 17.6855 14.8096 17.5638H14.8105C15.0911 17.402 15.4153 17.3883 15.5977 17.3715L15.8262 17.35C16.1207 17.3228 16.334 17.3006 16.4932 17.2787C16.3983 17.1302 16.2623 16.9365 16.0693 16.6664L15.9316 16.473C15.8158 16.311 15.6237 16.065 15.5547 15.7601H15.5537C15.4843 15.4519 15.5553 15.1473 15.5908 14.9564L15.6338 14.726C15.6981 14.3799 15.7399 14.143 15.7607 13.9691C15.6001 14.0088 15.3833 14.075 15.0703 14.1722L14.8516 14.2406C14.6751 14.2954 14.3743 14.4052 14.0537 14.3646C13.8176 14.3346 13.6084 14.2272 13.4492 14.1342L13.3076 14.0492L13.1055 13.9281C12.8486 13.7746 12.6593 13.6629 12.5127 13.5834C12.5082 13.7503 12.5101 13.9703 12.5146 14.2699ZM9.33984 9.75134C7.59337 9.73795 6.06998 9.90907 4.90918 10.2162C4.73637 10.2619 4.57393 10.3106 4.42188 10.3607C4.31333 10.3965 4.21017 10.4335 4.1123 10.4711C3.96615 10.5271 3.83284 10.5847 3.71191 10.6429C3.63462 10.6802 3.56131 10.7171 3.49316 10.7552C3.43451 10.7881 3.37992 10.8225 3.32812 10.8558C3.11857 10.9905 2.96892 11.1235 2.875 11.2494C2.87011 11.2559 2.86488 11.2625 2.86035 11.2689C2.83235 11.3086 2.81145 11.3471 2.79492 11.3832C2.78606 11.4029 2.77837 11.4222 2.77246 11.4408C2.76922 11.4509 2.76613 11.4612 2.76367 11.4711C2.7598 11.4867 2.75699 11.5023 2.75488 11.517C2.75334 11.5283 2.75261 11.54 2.75195 11.5511V11.6195L2.76953 11.7162C2.7806 11.7578 2.79725 11.8029 2.81934 11.851C2.83339 11.8815 2.85078 11.9133 2.87012 11.9467C2.87795 11.9602 2.88579 11.9747 2.89453 11.9886C2.92015 12.0295 2.94924 12.073 2.9834 12.1176C3.03022 12.1788 3.08617 12.2427 3.15039 12.3099C3.19437 12.3559 3.24195 12.4027 3.29297 12.4496C3.29726 12.4536 3.30129 12.4583 3.30566 12.4623C3.36804 12.5191 3.43609 12.5762 3.50879 12.6342C3.51863 12.642 3.52899 12.6497 3.53906 12.6576C3.64928 12.7439 3.7711 12.8314 3.9043 12.9193C3.96659 12.9604 4.03117 13.0015 4.09766 13.0424C4.40043 13.2282 4.74835 13.412 5.1377 13.5902C5.14188 13.5921 5.1462 13.5942 5.15039 13.5961C5.1687 13.6044 5.18757 13.6122 5.20605 13.6205C5.26667 13.6478 5.32905 13.6735 5.3916 13.7006C5.53946 13.7644 5.69179 13.8291 5.84961 13.891C6.04407 13.9672 6.2455 14.043 6.4541 14.1156C6.47084 14.1214 6.48806 14.1264 6.50488 14.1322C6.55729 14.1503 6.6108 14.1662 6.66406 14.184C7.2184 13.0252 7.92434 11.8005 8.7627 10.5707C8.95231 10.2925 9.14464 10.0188 9.33984 9.75134ZM17.875 4.81189C17.6616 4.70896 17.1864 4.69563 16.3564 5.10095C16.142 5.20567 15.9143 5.33455 15.6748 5.48572C15.5381 5.572 15.3986 5.66528 15.2568 5.76501C15.1984 5.80611 15.1394 5.84853 15.0801 5.89197C15.0258 5.93169 14.9718 5.97345 14.917 6.01501C14.8691 6.05134 14.8199 6.08758 14.7715 6.12537C13.997 6.72926 13.1683 7.50994 12.3369 8.43201C13.8193 8.5963 15.2408 8.8631 16.5293 9.20935C16.7235 9.26153 16.9154 9.31572 17.1035 9.37146C17.1549 9.38669 17.2059 9.40285 17.2568 9.41833C17.4016 9.46238 17.5448 9.50702 17.6855 9.5531C17.7039 9.5591 17.722 9.56547 17.7402 9.57166C17.5467 9.36875 17.4737 9.06669 17.5801 8.78748C17.8342 8.12167 18.0114 7.51642 18.1201 6.98669C18.1303 6.93691 18.1405 6.88757 18.1494 6.83923C18.1619 6.772 18.1726 6.70561 18.1826 6.64099C18.1914 6.5846 18.201 6.52917 18.208 6.47498C18.2174 6.40163 18.2243 6.32969 18.2305 6.26013C18.234 6.22014 18.2387 6.18057 18.2412 6.14197C18.2477 6.03992 18.2508 5.94193 18.25 5.849C18.2471 5.50684 18.1941 5.26183 18.123 5.09802V5.09705C18.0523 4.93423 17.9664 4.85612 17.875 4.81189Z" fill="#48465C"/>
</svg>
