<svg width="24" height="24" viewBox="0 0 24 24" fill="none" xmlns="http://www.w3.org/2000/svg">
<path d="M12 1.25C17.9371 1.25 22.75 6.06294 22.75 12C22.75 13.011 22.6104 13.9906 22.3486 14.9199C22.2794 15.166 22.0893 15.3603 21.8447 15.4346C21.6003 15.5089 21.3342 15.4538 21.1396 15.2881C20.9255 15.1055 20.4215 15.031 19.9248 15.3984C19.5127 15.7032 19.3789 16.123 19.4248 16.3975C19.4648 16.6366 19.3872 16.8804 19.2158 17.0518L19.1143 17.1533C18.9599 17.3075 18.7459 17.3863 18.5283 17.3701C18.3106 17.3539 18.1103 17.2439 17.9805 17.0684L17.6465 16.6162C17.351 16.2168 16.5447 16.0323 15.7656 16.6084C14.9866 17.1845 14.9264 18.0096 15.2217 18.4092L15.4072 18.6602C15.6278 18.9585 15.5972 19.3732 15.335 19.6357L15.1494 19.8213C14.9517 20.019 14.6603 20.0908 14.3936 20.0068C14.135 19.9254 13.7467 19.9664 13.3896 20.2305C12.9029 20.5906 12.8698 21.2385 13.1025 21.5537C13.2672 21.7765 13.2959 22.0722 13.1768 22.3223C13.0577 22.5723 12.8108 22.7363 12.5342 22.749C12.4073 22.7548 12.2409 22.7526 12.1172 22.751C12.0707 22.7503 12.0301 22.75 12 22.75C6.06294 22.75 1.25 17.9371 1.25 12C1.25 6.06294 6.06294 1.25 12 1.25ZM9.23242 14.5312C8.92198 14.7386 8.5685 14.9523 8.19238 15.1416C7.55116 15.4645 6.77639 15.75 6 15.75C4.98754 15.75 3.95393 15.262 3.17969 14.793C4.31263 18.374 7.56557 21.0133 11.4658 21.2354C11.4157 20.4215 11.77 19.5628 12.498 19.0244C12.8438 18.7688 13.2344 18.5975 13.6338 18.5186C13.3437 17.4579 13.8262 16.2746 14.71 15.5312C14.685 15.5176 14.6588 15.5043 14.6328 15.4902C14.5983 15.4716 14.5625 15.4514 14.5254 15.4316C14.372 15.3493 14.1985 15.257 14.0283 15.1553C13.4437 15.5319 12.7472 15.75 12 15.75C10.9043 15.75 9.91806 15.2805 9.23242 14.5312ZM12 2.75C10.2299 2.75 8.57571 3.24704 7.16992 4.10938L7.53027 4.46973C7.82316 4.76262 7.82316 5.23738 7.53027 5.53027C7.23738 5.82316 6.76262 5.82316 6.46973 5.53027L5.94531 5.00684C4.94027 5.87777 4.12484 6.9617 3.56934 8.18848C3.97998 8.16926 4.33061 8.48519 4.35352 8.89648L4.43164 10.3076C4.45468 10.7212 4.13818 11.0755 3.72461 11.0986C3.31105 11.1216 2.95762 10.8051 2.93457 10.3916L2.92383 10.2061C2.80982 10.7863 2.75 11.3863 2.75 12C2.75 12.2263 2.75844 12.4507 2.77441 12.6729C2.79544 12.69 2.81766 12.7081 2.84082 12.7266C3.06092 12.9025 3.37064 13.1373 3.73145 13.3701C4.48897 13.8587 5.33178 14.25 6 14.25C6.43548 14.25 6.96359 14.0816 7.51758 13.8027C7.85431 13.6331 8.17679 13.4349 8.46094 13.2422C8.32447 12.8534 8.25 12.4354 8.25 12C8.25 9.92893 9.92893 8.25 12 8.25C14.0711 8.25 15.75 9.92893 15.75 12C15.75 12.7595 15.5238 13.466 15.1357 14.0566C15.1831 14.0824 15.2331 14.1096 15.2852 14.1377C15.3049 14.1483 15.3254 14.1589 15.3457 14.1699C15.638 14.3279 16.0131 14.5321 16.3262 14.7861C16.9868 14.6778 17.6622 14.7795 18.2158 15.1299C18.409 14.7702 18.6886 14.4467 19.0322 14.1924C19.6346 13.747 20.4001 13.5473 21.0996 13.6719C21.1986 13.13 21.25 12.5713 21.25 12C21.25 11.5466 21.2174 11.1009 21.1543 10.665L19.4951 12.126C19.1843 12.3995 18.7103 12.3693 18.4365 12.0586C18.1629 11.7477 18.1931 11.2738 18.5039 11L20.1816 9.52246C20.3759 9.35139 20.6342 9.29876 20.8672 9.35938C20.636 8.58196 20.3059 7.84697 19.8906 7.16992L19.5303 7.53027C19.2374 7.82316 18.7626 7.82316 18.4697 7.53027C18.1768 7.23739 18.1768 6.76261 18.4697 6.46973L18.9932 5.94531C17.2972 3.98807 14.7932 2.75 12 2.75ZM12 9.75C10.7574 9.75 9.75 10.7574 9.75 12C9.75 13.2426 10.7574 14.25 12 14.25C13.2426 14.25 14.25 13.2426 14.25 12C14.25 10.7574 13.2426 9.75 12 9.75ZM5.89453 11.0566C6.1392 10.7225 6.60916 10.6499 6.94336 10.8945C7.2775 11.1392 7.35007 11.6092 7.10547 11.9434L6.26953 13.084C6.02489 13.4181 5.5559 13.4908 5.22168 13.2461C4.88762 13.0014 4.815 12.5324 5.05957 12.1982L5.89453 11.0566ZM16.6143 8.22754C17.0281 8.2081 17.379 8.52765 17.3984 8.94141L17.4648 10.3535C17.4842 10.7673 17.1648 11.1193 16.751 11.1387C16.3375 11.158 15.9863 10.8383 15.9668 10.4248L15.9004 9.01172C15.881 8.59809 16.2007 8.24712 16.6143 8.22754ZM5.89648 7.17383C6.27348 7.00246 6.71815 7.16899 6.88965 7.5459L7.47559 8.83301C7.64699 9.2101 7.47962 9.65477 7.10254 9.82617C6.72546 9.99754 6.28078 9.83116 6.10938 9.4541L5.52441 8.16699C5.35306 7.79004 5.51966 7.34536 5.89648 7.17383ZM10.3057 6.27539C10.7057 6.16819 11.1173 6.40566 11.2246 6.80566C11.3319 7.2057 11.0943 7.61734 10.6943 7.72461L9.32812 8.09082C8.92814 8.19797 8.51651 7.96045 8.40918 7.56055C8.302 7.16058 8.53959 6.74897 8.93945 6.6416L10.3057 6.27539ZM15.4004 4.5498C15.649 4.21871 16.1189 4.15194 16.4502 4.40039C16.7813 4.64898 16.848 5.11893 16.5996 5.4502L15.0996 7.4502C14.851 7.78129 14.3811 7.84806 14.0498 7.59961C13.7187 7.35102 13.652 6.88107 13.9004 6.5498L15.4004 4.5498ZM10.4697 3.46973C10.7626 3.17684 11.2374 3.17684 11.5303 3.46973L12.5303 4.46973C12.8232 4.76261 12.8232 5.23739 12.5303 5.53027C12.2374 5.82316 11.7626 5.82316 11.4697 5.53027L10.4697 4.53027C10.1768 4.23739 10.1768 3.76261 10.4697 3.46973Z" fill="#1C274C"/>
</svg>
