<svg width="24" height="24" viewBox="0 0 24 24" fill="none" xmlns="http://www.w3.org/2000/svg">
<path d="M12 2C16.714 2 19.0708 2.00037 20.5352 3.46484C21.9996 4.9293 22 7.28597 22 12C22 16.714 21.9997 19.0708 20.5352 20.5352C19.0708 21.9997 16.714 22 12 22C7.28597 22 4.9293 21.9996 3.46484 20.5352C2.00037 19.0708 2 16.714 2 12C2 7.28595 2.00037 4.9293 3.46484 3.46484C4.9293 2.00037 7.28595 2 12 2ZM14.5 9.25C14.0858 9.25 13.75 9.58579 13.75 10C13.75 10.4142 14.0858 10.75 14.5 10.75H15.1895L13.1768 12.7627C13.0791 12.8602 12.9209 12.8602 12.8232 12.7627L11.2373 11.1768C10.5539 10.4935 9.4461 10.4935 8.7627 11.1768L6.46973 13.4697C6.17684 13.7626 6.17684 14.2374 6.46973 14.5303C6.76261 14.8232 7.23739 14.8232 7.53027 14.5303L9.82324 12.2373C9.92085 12.1398 10.0791 12.1398 10.1768 12.2373L11.7627 13.8232C12.4461 14.5066 13.5539 14.5066 14.2373 13.8232L16.25 11.8105V12.5C16.25 12.9142 16.5858 13.25 17 13.25C17.4142 13.25 17.75 12.9142 17.75 12.5V10C17.75 9.58579 17.4142 9.25 17 9.25H14.5Z" fill="#1C274C"/>
</svg>
