<svg width="24" height="24" viewBox="0 0 24 24" fill="none" xmlns="http://www.w3.org/2000/svg">
<path d="M8.97266 5.81055C9.87517 5.41241 10.8992 5.38897 11.8184 5.74707C14.3857 6.74747 15.0063 10.0985 12.9678 11.9521L11.9268 12.8984C11.8873 12.9342 11.8757 12.945 11.8682 12.9521C11.3149 13.4759 11.3544 14.3685 11.9521 14.8408C11.9604 14.8473 11.9737 14.8571 12.0166 14.8896L12.0195 14.8926C12.0779 14.9368 12.1121 14.9622 12.1445 14.9873C14.0173 16.4375 15.1243 18.6647 15.1494 21.0332C15.1498 21.075 15.1504 21.1191 15.1504 21.1953V22C15.1504 22.4141 14.8144 22.7498 14.4004 22.75C13.9862 22.75 13.6504 22.4142 13.6504 22V21.1953C13.6504 21.1159 13.6497 21.0809 13.6494 21.0488C13.6291 19.1389 12.7368 17.3433 11.2266 16.1738C11.2013 16.1541 11.1737 16.1329 11.1104 16.085L11.1045 16.0801C11.071 16.0548 11.0443 16.0358 11.0225 16.0186C9.70704 14.9796 9.61971 13.0156 10.8369 11.8633C10.8572 11.8441 10.8808 11.8214 10.9121 11.793L10.918 11.7881L11.958 10.8428C13.173 9.7383 12.8033 7.74167 11.2734 7.14551C10.7258 6.93214 10.1159 6.94546 9.57812 7.18262L9.05566 7.41309C8.51111 7.65333 8.25925 7.76435 8.01465 7.88574C7.60185 8.09064 7.20058 8.31927 6.81348 8.56934C6.58392 8.71763 6.3594 8.87701 5.87402 9.22266L4.43457 10.2471C4.09719 10.4872 3.62889 10.4086 3.38867 10.0713C3.14862 9.73392 3.22811 9.2656 3.56543 9.02539L5.02051 7.98828C5.48465 7.65775 5.73766 7.47744 5.99902 7.30859C6.43352 7.02789 6.88431 6.77198 7.34766 6.54199C7.62625 6.40372 7.91054 6.27872 8.43164 6.04883L8.97266 5.81055ZM8.42383 16.5195C8.68904 16.2015 9.16233 16.1588 9.48047 16.4238C9.79849 16.6891 9.84128 17.1623 9.57617 17.4805L9.31641 17.791C7.75416 19.6657 5.44032 20.75 3 20.75C2.58579 20.75 2.25 20.4142 2.25 20C2.25 19.5858 2.58579 19.25 3 19.25C4.99507 19.25 6.8868 18.3636 8.16406 16.8311L8.42383 16.5195ZM19.8184 11.2725C20.2201 11.1721 20.6271 11.4166 20.7275 11.8184C20.8279 12.2201 20.5834 12.6271 20.1816 12.7275C18.7492 13.0856 17.2508 13.0856 15.8184 12.7275C15.4166 12.6271 15.1721 12.2201 15.2725 11.8184C15.3729 11.4166 15.7799 11.1721 16.1816 11.2725C17.3753 11.5709 18.6247 11.5709 19.8184 11.2725ZM18.5 1.25C20.2949 1.25 21.75 2.70507 21.75 4.5C21.75 6.29493 20.2949 7.75 18.5 7.75C16.7051 7.75 15.25 6.29493 15.25 4.5C15.25 2.70507 16.7051 1.25 18.5 1.25ZM18.5 2.75C17.5335 2.75 16.75 3.5335 16.75 4.5C16.75 5.4665 17.5335 6.25 18.5 6.25C19.4665 6.25 20.25 5.4665 20.25 4.5C20.25 3.5335 19.4665 2.75 18.5 2.75Z" fill="#1C274C"/>
</svg>
