<svg width="24" height="24" viewBox="0 0 24 24" fill="none" xmlns="http://www.w3.org/2000/svg">
<path d="M12 2C16.714 2 19.0708 2.00037 20.5352 3.46484C21.9996 4.9293 22 7.28597 22 12C22 16.714 21.9997 19.0708 20.5352 20.5352C19.0708 21.9997 16.714 22 12 22C7.28597 22 4.9293 21.9996 3.46484 20.5352C2.00037 19.0708 2 16.714 2 12C2 7.28595 2.00037 4.9293 3.46484 3.46484C4.9293 2.00037 7.28595 2 12 2ZM17.4805 9.42383C17.1623 9.15872 16.6891 9.20151 16.4238 9.51953L14.627 11.6758C14.2563 12.1207 14.0283 12.3911 13.8408 12.5605C13.7541 12.6388 13.7026 12.6706 13.6777 12.6826C13.6729 12.685 13.6692 12.6866 13.667 12.6875C13.667 12.6875 13.6625 12.6861 13.6592 12.6846L13.6562 12.6826C13.6315 12.6707 13.5792 12.639 13.4922 12.5605C13.3047 12.3911 13.0766 12.1205 12.7061 11.6758L12.4141 11.3252C12.0856 10.9311 11.7893 10.576 11.5127 10.3262C11.2118 10.0545 10.8325 9.8125 10.333 9.8125C9.83373 9.81259 9.45517 10.0545 9.1543 10.3262C8.87775 10.5759 8.58133 10.931 8.25293 11.3252L6.42383 13.5195C6.15872 13.8377 6.20151 14.3109 6.51953 14.5762C6.83767 14.8412 7.31096 14.7985 7.57617 14.4805L9.37305 12.3242C9.74375 11.8793 9.97165 11.6089 10.1592 11.4395C10.2459 11.3612 10.2974 11.3294 10.3223 11.3174C10.3245 11.3162 10.3283 11.3148 10.3291 11.3145L10.333 11.3125C10.3353 11.3134 10.3389 11.315 10.3438 11.3174C10.3685 11.3293 10.4208 11.361 10.5078 11.4395C10.6953 11.6089 10.9234 11.8795 11.2939 12.3242L11.5859 12.6748C11.9144 13.0689 12.2107 13.424 12.4873 13.6738C12.7882 13.9455 13.1675 14.1885 13.667 14.1885C14.1663 14.1884 14.5457 13.9455 14.8467 13.6738C15.1231 13.4241 15.4189 13.0687 15.7471 12.6748L17.5762 10.4805C17.8412 10.1623 17.7985 9.68904 17.4805 9.42383Z" fill="#1C274C"/>
</svg>
