<svg width="24" height="24" viewBox="0 0 24 24" fill="none" xmlns="http://www.w3.org/2000/svg">
<path fill-rule="evenodd" clip-rule="evenodd" d="M12.0001 2.25C13.498 2.25009 14.6332 3.11517 15.7051 4.47656C16.7593 5.81549 17.8765 7.79603 19.3057 10.3301L19.7413 11.1025C20.9229 13.1974 21.8565 14.8526 22.3467 16.1807C22.8476 17.5376 22.9665 18.7696 22.209 19.8564C21.4737 20.9113 20.2466 21.3432 18.6993 21.5469C17.1578 21.7498 15.0844 21.75 12.4249 21.75H11.5753C8.91567 21.75 6.84239 21.7498 5.30084 21.5469C3.75333 21.3432 2.52646 20.9113 1.79108 19.8564C1.03342 18.7695 1.15248 17.5378 1.65338 16.1807C2.14358 14.8526 3.07627 13.1975 4.25787 11.1025L4.69342 10.3311C6.12274 7.79676 7.23984 5.8156 8.294 4.47656C9.36592 3.11506 10.5019 2.25 12.0001 2.25ZM12.0001 3.75C11.1875 3.75 10.4376 4.17863 9.47272 5.4043C8.49872 6.64145 7.43696 8.51992 5.9649 11.1299L5.60065 11.7744C4.37443 13.9485 3.50395 15.499 3.06061 16.7002C2.62305 17.8858 2.68346 18.5141 3.02154 18.999C3.38207 19.5162 4.05856 19.8703 5.49615 20.0596C6.92809 20.2481 8.90227 20.25 11.6358 20.25H12.3633C15.097 20.25 17.071 20.248 18.503 20.0596C19.9408 19.8703 20.618 19.5162 20.9786 18.999C21.3165 18.5141 21.377 17.8855 20.9395 16.7002C20.4962 15.499 19.6247 13.9485 18.3985 11.7744L18.0352 11.1299C16.5631 8.51985 15.5004 6.64147 14.5264 5.4043C13.5616 4.17891 12.8125 3.75008 12.0001 3.75ZM12.0001 15C12.5523 15.0001 13.0001 15.4478 13.0001 16C13.0001 16.5522 12.5523 16.9999 12.0001 17C11.4478 17 11.0001 16.5523 11.0001 16C11.0001 15.4477 11.4478 15 12.0001 15ZM12.0001 7.25C12.4142 7.25013 12.7501 7.58587 12.7501 8V13C12.7501 13.4141 12.4142 13.7499 12.0001 13.75C11.5859 13.75 11.2501 13.4142 11.2501 13V8C11.2501 7.58579 11.5859 7.25 12.0001 7.25Z" fill="#1C274C"/>
</svg>
