<svg width="24" height="24" viewBox="0 0 24 24" fill="none" xmlns="http://www.w3.org/2000/svg">
<path d="M12 2C17.5229 2.00005 22 6.53275 22 12.124V17.3672C22.0003 18.1841 22 18.7445 21.8564 19.2363C21.5756 20.1981 20.9044 20.994 20.0098 21.4248C19.5524 21.6451 19.0058 21.7323 18.209 21.8594L18.0791 21.8799C17.7957 21.9252 17.5535 21.9644 17.3525 21.9844C17.1435 22.0052 16.93 22.0112 16.7119 21.9678C15.9943 21.8247 15.402 21.3126 15.1504 20.6172C15.0741 20.406 15.0476 20.1917 15.0352 19.9795C15.0234 19.7755 15.0234 19.5268 15.0234 19.2363V15.0645C15.0229 14.639 15.0219 14.2725 15.1191 13.959C15.3418 13.2417 15.9237 12.6977 16.6475 12.5293C16.9638 12.4557 17.3244 12.4846 17.7432 12.5186L17.8369 12.5264L17.9463 12.5352C18.73 12.5975 19.2665 12.6401 19.7217 12.8105C20.0416 12.9303 20.338 13.0956 20.6045 13.2979V12.124C20.6045 7.31294 16.7522 3.41314 12 3.41309C7.24786 3.41309 3.39551 7.3129 3.39551 12.124V13.2979C3.66193 13.0956 3.95846 12.9303 4.27832 12.8105C4.73347 12.6402 5.27004 12.5975 6.05371 12.5352L6.16309 12.5264L6.25684 12.5186C6.67557 12.4846 7.03622 12.4557 7.35254 12.5293C8.07628 12.6977 8.65816 13.2417 8.88086 13.959C8.97817 14.2725 8.97708 14.639 8.97656 15.0645V19.2363C8.97656 19.5268 8.97669 19.7755 8.96484 19.9795C8.95251 20.1917 8.92505 20.406 8.84863 20.6172C8.59709 21.3125 8.00566 21.8247 7.28809 21.9678C7.07 22.0113 6.85651 22.0052 6.64746 21.9844C6.44652 21.9644 6.20429 21.9252 5.9209 21.8799L5.79102 21.8594C4.99417 21.7323 4.44762 21.6451 3.99023 21.4248C3.09568 20.994 2.42437 20.1981 2.14355 19.2363C2.02514 18.8308 2.00442 18.3785 2.00098 17.7744L2 17.5801V12.124C2 6.53271 6.47723 2 12 2Z" fill="#48465C"/>
</svg>
