<svg width="24" height="24" viewBox="0 0 24 24" fill="none" xmlns="http://www.w3.org/2000/svg">
<path fill-rule="evenodd" clip-rule="evenodd" d="M11.6601 4.25C13.17 4.25007 14.5341 5.36741 14.5341 6.90918C14.5341 7.58928 14.2866 8.22328 13.8447 8.7041C13.7047 8.85631 13.5502 9.00941 13.4091 9.14844C13.384 9.1732 13.3589 9.19787 13.3349 9.22168C13.1679 9.38689 13.0206 9.53625 12.8945 9.68457C12.8072 9.7872 12.7401 9.87807 12.6894 9.95898C13.2578 10.0669 13.8097 10.2861 14.3037 10.6191L21.7363 15.6289C22.686 16.2691 22.9436 17.3259 22.6132 18.2168C22.2882 19.093 21.4222 19.7499 20.2978 19.75H3.70307C2.59049 19.75 1.72859 19.1049 1.39643 18.2393C1.05882 17.3592 1.29658 16.3083 2.22357 15.6562L9.31928 10.665C9.85575 10.2876 10.4663 10.0482 11.0937 9.94238C11.1992 9.43646 11.4866 9.02486 11.7519 8.71289C11.9238 8.51089 12.1117 8.32196 12.2802 8.15527C12.3079 8.12791 12.3349 8.10126 12.3613 8.0752C12.5031 7.9353 12.6273 7.81219 12.7402 7.68945C12.9223 7.49134 13.0341 7.22141 13.0341 6.90918C13.0341 6.34231 12.4961 5.75007 11.6601 5.75C10.824 5.75 10.2861 6.34228 10.2861 6.90918C10.286 7.3233 9.95019 7.65911 9.53607 7.65918C9.12189 7.65918 8.78612 7.32335 8.78607 6.90918C8.78607 5.36736 10.1501 4.25 11.6601 4.25ZM11.8105 11.3799C11.2261 11.3866 10.6528 11.5618 10.1826 11.8926L3.08685 16.8838C2.74194 17.1266 2.69664 17.441 2.79682 17.7021C2.90262 17.9776 3.20061 18.25 3.70307 18.25H20.2978C20.8057 18.2499 21.1027 17.9731 21.206 17.6953C21.3037 17.4318 21.2541 17.1135 20.8974 16.873L13.4658 11.8623C12.9832 11.537 12.3997 11.373 11.8105 11.3799Z" fill="#1C274C"/>
</svg>
