<svg width="24" height="24" viewBox="0 0 24 24" fill="none" xmlns="http://www.w3.org/2000/svg">
<path d="M11.6602 4.25C13.1701 4.25007 14.5342 5.36741 14.5342 6.90918C14.5342 7.58928 14.2866 8.22328 13.8447 8.7041C13.7048 8.85631 13.5502 9.00941 13.4092 9.14844C13.3841 9.1732 13.359 9.19787 13.335 9.22168C13.168 9.38689 13.0207 9.53625 12.8945 9.68457C12.8072 9.78721 12.7402 9.87807 12.6895 9.95898C13.2579 10.0669 13.8098 10.2861 14.3037 10.6191L21.7363 15.6289C22.686 16.2691 22.9437 17.3259 22.6133 18.2168C22.2883 19.093 21.4223 19.7499 20.2979 19.75H3.70312C2.59055 19.75 1.72865 19.1049 1.39648 18.2393C1.05888 17.3592 1.29664 16.3083 2.22363 15.6562L9.31934 10.665C9.85581 10.2876 10.4663 10.0482 11.0938 9.94238C11.1993 9.43646 11.4867 9.02486 11.752 8.71289C11.9238 8.51089 12.1118 8.32196 12.2803 8.15527C12.3079 8.12791 12.335 8.10126 12.3613 8.0752C12.5031 7.9353 12.6274 7.81219 12.7402 7.68945C12.9223 7.49134 13.0342 7.22141 13.0342 6.90918C13.0342 6.34231 12.4962 5.75007 11.6602 5.75C10.8241 5.75 10.2861 6.34228 10.2861 6.90918C10.2861 7.3233 9.95025 7.65911 9.53613 7.65918C9.12195 7.65918 8.78618 7.32335 8.78613 6.90918C8.78613 5.36736 10.1502 4.25 11.6602 4.25ZM11.8105 11.3799C11.2261 11.3866 10.6528 11.5618 10.1826 11.8926L3.08691 16.8838C2.742 17.1266 2.6967 17.441 2.79688 17.7021C2.90268 17.9776 3.20067 18.25 3.70312 18.25H20.2979C20.8057 18.2499 21.1028 17.9731 21.2061 17.6953C21.3038 17.4318 21.2542 17.1135 20.8975 16.873L13.4658 11.8623C12.9833 11.537 12.3998 11.373 11.8105 11.3799Z" fill="#48465C"/>
</svg>
