<svg width="24" height="24" viewBox="0 0 24 24" fill="none" xmlns="http://www.w3.org/2000/svg">
<path d="M12 1.25C16.845 1.25 20.75 5.24452 20.75 10.1436C20.75 12.5086 20.0763 15.0483 18.8848 17.2422C17.6948 19.4334 15.9554 21.3368 13.7803 22.3535C12.6504 22.8816 11.3496 22.8816 10.2197 22.3535C8.04463 21.3368 6.30529 19.4334 5.11523 17.2422C3.92375 15.0483 3.25005 12.5086 3.25 10.1436C3.25 5.24452 7.15501 1.25 12 1.25ZM12 2.75C8.00843 2.75 4.75 6.04773 4.75 10.1436C4.75005 12.2406 5.35257 14.5358 6.43359 16.5264C7.51612 18.5194 9.046 20.1497 10.8545 20.9951C11.582 21.3351 12.418 21.3351 13.1455 20.9951C14.954 20.1497 16.4839 18.5194 17.5664 16.5264C18.6475 14.5358 19.25 12.2406 19.25 10.1436C19.25 6.04773 15.9916 2.75 12 2.75ZM12 6.25C14.0711 6.25 15.75 7.92893 15.75 10C15.75 10.7628 15.5221 11.4732 15.1309 12.0654L16.0312 12.9707C16.3232 13.2643 16.3225 13.7391 16.0293 14.0312C15.7357 14.3232 15.2609 14.3225 14.9688 14.0293L14.0703 13.127C13.4772 13.5203 12.7651 13.75 12 13.75C9.92893 13.75 8.25 12.0711 8.25 10C8.25 7.92893 9.92893 6.25 12 6.25ZM12 7.75C10.7574 7.75 9.75 8.75736 9.75 10C9.75 11.2426 10.7574 12.25 12 12.25C12.6229 12.25 13.1854 11.9975 13.5938 11.5879C14 11.1802 14.25 10.6201 14.25 10C14.25 8.75736 13.2426 7.75 12 7.75Z" fill="#48465C"/>
</svg>
