<svg width="24" height="24" viewBox="0 0 24 24" fill="none" xmlns="http://www.w3.org/2000/svg">
<path d="M10.5934 2.31885C11.4827 1.89379 12.5166 1.89389 13.4059 2.31885C13.7923 2.50352 14.1471 2.805 14.6374 3.22314C14.6628 3.24484 14.6884 3.26724 14.7145 3.28955C14.9524 3.49236 15.0273 3.55512 15.1032 3.60596C15.2961 3.73525 15.5131 3.82461 15.7409 3.86963C15.8305 3.88732 15.9281 3.8965 16.2399 3.92139C16.2741 3.92412 16.3083 3.92657 16.3415 3.9292C16.9836 3.98015 17.4475 4.01705 17.8513 4.15967C18.7808 4.48799 19.5122 5.21946 19.8405 6.14893C19.983 6.55267 20.02 7.01653 20.071 7.65869C20.0737 7.69203 20.076 7.72593 20.0788 7.76025C20.1037 8.07159 20.1129 8.1688 20.1306 8.2583C20.1754 8.48612 20.265 8.70308 20.3942 8.896C20.4451 8.97187 20.5077 9.04756 20.7106 9.28564C20.7328 9.31169 20.7545 9.3375 20.7761 9.36279C21.1942 9.85298 21.4966 10.2069 21.6813 10.5933C22.1064 11.4825 22.1062 12.5165 21.6813 13.4058C21.4966 13.7922 21.1943 14.1469 20.7761 14.6372C20.7545 14.6625 20.7328 14.6882 20.7106 14.7144C20.508 14.9521 20.4451 15.0272 20.3942 15.103C20.265 15.2959 20.1755 15.5129 20.1306 15.7407C20.1129 15.8303 20.1037 15.9279 20.0788 16.2397C20.076 16.2739 20.0737 16.3081 20.071 16.3413C20.02 16.9834 19.9831 17.4473 19.8405 17.8511C19.5122 18.7807 18.7809 19.512 17.8513 19.8403C17.4475 19.9829 16.9836 20.0198 16.3415 20.0708C16.3083 20.0735 16.2741 20.0758 16.2399 20.0786C15.9281 20.1035 15.8305 20.1127 15.7409 20.1304C15.5131 20.1753 15.2961 20.2648 15.1032 20.394C15.0274 20.4449 14.9523 20.5078 14.7145 20.7104C14.6884 20.7326 14.6626 20.7543 14.6374 20.7759C14.1471 21.1941 13.7923 21.4965 13.4059 21.6812C12.5166 22.106 11.4827 22.1062 10.5934 21.6812C10.2071 21.4964 9.85318 21.194 9.36298 20.7759C9.33768 20.7543 9.31187 20.7326 9.28583 20.7104C9.04774 20.5075 8.97205 20.4449 8.89618 20.394C8.70326 20.2648 8.4863 20.1753 8.25848 20.1304C8.16898 20.1127 8.07178 20.1035 7.76044 20.0786C7.72612 20.0758 7.69222 20.0735 7.65887 20.0708C7.01672 20.0198 6.55285 19.9828 6.14911 19.8403C5.21964 19.512 4.48818 18.7806 4.15985 17.8511C4.01724 17.4473 3.98034 16.9834 3.92938 16.3413C3.92675 16.3081 3.9243 16.2739 3.92157 16.2397C3.89668 15.9279 3.8875 15.8303 3.86981 15.7407C3.8248 15.5129 3.73543 15.296 3.60614 15.103C3.5553 15.0272 3.49254 14.9523 3.28973 14.7144C3.26742 14.6882 3.24501 14.6626 3.22333 14.6372C2.80517 14.147 2.50371 13.7922 2.31903 13.4058C1.89407 12.5164 1.89397 11.4826 2.31903 10.5933C2.50369 10.207 2.80534 9.85284 3.22333 9.36279C3.24497 9.33742 3.26746 9.31177 3.28973 9.28564C3.49262 9.04755 3.55529 8.97187 3.60614 8.896C3.73535 8.70312 3.82484 8.48605 3.86981 8.2583C3.88745 8.16881 3.89672 8.07155 3.92157 7.76025C3.92431 7.72593 3.92674 7.69204 3.92938 7.65869C3.98034 7.01651 4.01728 6.55268 4.15985 6.14893C4.48816 5.21943 5.21961 4.48798 6.14911 4.15967C6.55287 4.0171 7.01669 3.98016 7.65887 3.9292C7.69222 3.92656 7.72612 3.92413 7.76044 3.92139C8.07174 3.89654 8.16899 3.88726 8.25848 3.86963C8.48624 3.82466 8.7033 3.73516 8.89618 3.60596C8.97205 3.55511 9.04774 3.49244 9.28583 3.28955C9.31195 3.26727 9.3376 3.2448 9.36298 3.22314C9.85302 2.80515 10.2072 2.50351 10.5934 2.31885ZM12.7575 3.67627C12.2787 3.44742 11.7217 3.44751 11.2429 3.67627C11.0578 3.76476 10.862 3.92321 10.2614 4.43506C10.2516 4.44339 10.2426 4.45233 10.2331 4.46045C10.036 4.62836 9.89191 4.75078 9.73505 4.85596C9.37669 5.09614 8.97371 5.26263 8.55048 5.34619C8.36511 5.38279 8.17671 5.39791 7.91864 5.41846C7.9062 5.41945 7.89333 5.42037 7.88055 5.42139C7.09397 5.48416 6.84358 5.51027 6.65009 5.57861C6.14959 5.75539 5.75558 6.1494 5.5788 6.6499C5.51046 6.8434 5.48435 7.09379 5.42157 7.88037C5.42055 7.89314 5.41963 7.90602 5.41864 7.91846C5.39809 8.17652 5.38297 8.36493 5.34637 8.55029C5.26281 8.97353 5.09632 9.3765 4.85614 9.73486C4.75096 9.89172 4.62855 10.0359 4.46063 10.2329C4.45252 10.2424 4.44357 10.2514 4.43524 10.2612C3.92339 10.8618 3.76494 11.0576 3.67645 11.2427C3.44769 11.7215 3.44761 12.2785 3.67645 12.7573C3.76493 12.9424 3.92354 13.1374 4.43524 13.7378C4.44365 13.7477 4.45244 13.7575 4.46063 13.7671C4.6286 13.9642 4.75094 14.1082 4.85614 14.2651C5.09633 14.6235 5.26281 15.0265 5.34637 15.4497C5.38294 15.635 5.39809 15.8235 5.41864 16.0815C5.41963 16.0941 5.42055 16.1068 5.42157 16.1196C5.48435 16.9062 5.51045 17.1566 5.5788 17.3501C5.7556 17.8504 6.14975 18.2436 6.65009 18.4204C6.84359 18.4888 7.09391 18.5149 7.88055 18.5776L7.91864 18.5806C8.17671 18.6011 8.36514 18.6163 8.55048 18.6528C8.97373 18.7364 9.37668 18.9038 9.73505 19.144C9.89185 19.2492 10.0361 19.3717 10.2331 19.5396L10.2614 19.564C10.862 20.0759 11.0578 20.2343 11.2429 20.3228C11.7218 20.5516 12.2786 20.5516 12.7575 20.3228C12.9425 20.2342 13.1376 20.0757 13.738 19.564L13.7673 19.5396C13.9643 19.3716 14.1084 19.2492 14.2653 19.144C14.6237 18.9038 15.0267 18.7364 15.4499 18.6528C15.6352 18.6163 15.8237 18.6011 16.0817 18.5806L16.1198 18.5776C16.9064 18.5149 17.1568 18.4888 17.3503 18.4204C17.8504 18.2436 18.2438 17.8502 18.4206 17.3501C18.489 17.1566 18.5151 16.9062 18.5778 16.1196L18.5807 16.0815C18.6012 15.8235 18.6165 15.635 18.653 15.4497C18.7366 15.0265 18.904 14.6235 19.1442 14.2651C19.2494 14.1082 19.3718 13.9641 19.5397 13.7671L19.5641 13.7378C20.0758 13.1374 20.2344 12.9424 20.3229 12.7573C20.5518 12.2784 20.5518 11.7216 20.3229 11.2427C20.2344 11.0576 20.076 10.8618 19.5641 10.2612L19.5397 10.2319C19.372 10.0352 19.2493 9.8916 19.1442 9.73486C18.904 9.37649 18.7366 8.97354 18.653 8.55029C18.6164 8.36494 18.6012 8.17653 18.5807 7.91846L18.5778 7.88037C18.5151 7.09373 18.489 6.8434 18.4206 6.6499C18.2438 6.14957 17.8506 5.75542 17.3503 5.57861C17.1568 5.51026 16.9064 5.48417 16.1198 5.42139C16.107 5.42036 16.0943 5.41945 16.0817 5.41846C15.8237 5.39791 15.6352 5.38276 15.4499 5.34619C15.0267 5.26263 14.6237 5.09615 14.2653 4.85596C14.1084 4.75076 13.9644 4.62842 13.7673 4.46045C13.7577 4.45227 13.7479 4.44346 13.738 4.43506C13.1375 3.92336 12.9426 3.76475 12.7575 3.67627ZM14.4782 8.45752C14.7721 8.16361 15.2488 8.16361 15.5427 8.45752C15.8362 8.75137 15.8362 9.22715 15.5427 9.521L9.52216 15.5425C9.22833 15.8363 8.75163 15.8361 8.4577 15.5425C8.16379 15.2486 8.16379 14.7719 8.4577 14.478L14.4782 8.45752ZM14.5085 13.5054C15.0625 13.5054 15.5122 13.9543 15.5124 14.5083C15.5124 15.0625 15.0627 15.5122 14.5085 15.5122C13.9544 15.5121 13.5056 15.0624 13.5056 14.5083C13.5058 13.9544 13.9545 13.5055 14.5085 13.5054ZM9.49091 8.48779C10.045 8.48779 10.4946 8.93669 10.4948 9.49072C10.4948 10.0449 10.0451 10.4946 9.49091 10.4946C8.9369 10.4944 8.48798 10.0448 8.48798 9.49072C8.48819 8.93684 8.93703 8.48804 9.49091 8.48779Z" fill="#1C274C"/>
</svg>
