<svg width="24" height="24" viewBox="0 0 24 24" fill="none" xmlns="http://www.w3.org/2000/svg">
<path d="M13.5 2C16.7731 2 18.4099 1.99974 19.6123 2.73633C20.2851 3.14861 20.8514 3.71492 21.2637 4.3877C22.0003 5.59 22 7.22688 22 10.5V11.5C22 13.8296 21.9997 14.9943 21.6191 15.9131C21.1116 17.1383 20.1383 18.1116 18.9131 18.6191C18.2528 18.8926 17.4652 18.9695 16.21 18.9912C15.3601 19.0058 14.9353 19.0137 14.5977 19.21C14.26 19.4063 14.0493 19.7614 13.6289 20.4717L13.0869 21.3877C12.6037 22.204 11.3963 22.204 10.9131 21.3877L10.3711 20.4717C9.95068 19.7614 9.74002 19.4064 9.40234 19.21C9.06475 19.0137 8.63985 19.0058 7.79004 18.9912C6.5348 18.9695 5.74718 18.8926 5.08691 18.6191C3.86177 18.1116 2.88833 17.1383 2.38086 15.9131C2.00033 14.9943 2 13.8296 2 11.5V10.5C2 7.22688 1.99974 5.59 2.73633 4.3877C3.14861 3.71492 3.71492 3.14861 4.3877 2.73633C5.59 1.99974 7.22688 2 10.5 2H13.5ZM12 6.25C11.5858 6.25 11.25 6.58579 11.25 7V15C11.25 15.4142 11.5858 15.75 12 15.75C12.4142 15.75 12.75 15.4142 12.75 15V7C12.75 6.58579 12.4142 6.25 12 6.25ZM8 8.25C7.58579 8.25 7.25 8.58579 7.25 9V13C7.25 13.4142 7.58579 13.75 8 13.75C8.41421 13.75 8.75 13.4142 8.75 13V9C8.75 8.58579 8.41421 8.25 8 8.25ZM16 8.25C15.5858 8.25 15.25 8.58579 15.25 9V13C15.25 13.4142 15.5858 13.75 16 13.75C16.4142 13.75 16.75 13.4142 16.75 13V9C16.75 8.58579 16.4142 8.25 16 8.25Z" fill="#48465C"/>
</svg>
