<svg width="24" height="24" viewBox="0 0 24 24" fill="none" xmlns="http://www.w3.org/2000/svg">
<path d="M4.8694 16.6855C7.51487 15.1469 11.272 14.2808 13.7796 15.7764C13.9477 15.8768 14.0995 15.9983 14.2288 16.1436C14.7865 16.7704 14.7458 17.716 14.1028 18.2773C13.9669 18.3958 13.8218 18.4864 13.676 18.5176C13.7958 18.5037 13.9112 18.4872 14.0208 18.4697C14.9321 18.3243 15.6974 17.8377 16.3977 17.3086L18.2044 15.9434C18.8414 15.4621 19.7869 15.4623 20.4241 15.9434C20.9978 16.3766 21.1735 17.0896 20.8108 17.6709C20.3879 18.3489 19.7921 19.2162 19.22 19.7461C18.647 20.2767 17.7943 20.7508 17.0979 21.0869C16.3264 21.4593 15.4736 21.6731 14.6067 21.8135C12.8487 22.0979 11.0168 22.0547 9.27662 21.6963C8.29286 21.4936 7.27085 21.3887 6.26002 21.3887H6.00026C5.05773 21.3887 4.58614 21.3883 4.29323 21.0957C4.00036 20.8028 4.00026 20.3313 4.00026 19.3887V18.2764C4.00026 17.7581 4.00008 17.499 4.13307 17.2676C4.26625 17.036 4.46757 16.9192 4.8694 16.6855ZM4.00026 7C4.18948 7.00021 4.31638 7.22741 4.56959 7.68164L4.63502 7.79883C4.70695 7.92786 4.74305 7.99256 4.79908 8.03516C4.8552 8.07776 4.92494 8.09435 5.06471 8.12598L5.19166 8.1543C5.6836 8.2656 5.93002 8.32158 5.98854 8.50977C6.04687 8.69788 5.87944 8.89412 5.5442 9.28613L5.45729 9.3877C5.36204 9.49907 5.31465 9.55512 5.29323 9.62402C5.27193 9.6928 5.27887 9.76688 5.29323 9.91504L5.30592 10.0508C5.35662 10.574 5.38198 10.8358 5.22877 10.9521C5.07557 11.0682 4.84539 10.962 4.38502 10.75L4.26588 10.6953C4.13516 10.6351 4.06953 10.6055 4.00026 10.6055C3.93094 10.6055 3.86532 10.6351 3.73463 10.6953L3.61549 10.75C3.1549 10.9621 2.92397 11.0684 2.77076 10.9521C2.61766 10.8358 2.64293 10.5739 2.69362 10.0508L2.70729 9.91504C2.72163 9.76702 2.72852 9.69275 2.70729 9.62402C2.68588 9.55517 2.63833 9.4989 2.54323 9.3877L2.45631 9.28613C2.12114 8.89419 1.95278 8.69784 2.011 8.50977C2.06952 8.32158 2.31594 8.2656 2.80787 8.1543L2.93483 8.12598C3.07462 8.09435 3.14531 8.07777 3.20143 8.03516C3.25728 7.99255 3.29371 7.9276 3.36549 7.79883L3.43092 7.68164C3.6842 7.22729 3.81091 7 4.00026 7ZM20.0003 7C20.1895 7.00023 20.3163 7.22743 20.5696 7.68164L20.635 7.79883C20.707 7.92787 20.7431 7.99256 20.7991 8.03516C20.8552 8.07777 20.9249 8.09435 21.0647 8.12598L21.1917 8.1543C21.6836 8.2656 21.93 8.32158 21.9885 8.50977C22.0468 8.69788 21.8795 8.89413 21.5442 9.28613L21.4573 9.3877C21.362 9.49909 21.3147 9.55511 21.2932 9.62402C21.272 9.69281 21.2789 9.76687 21.2932 9.91504L21.3059 10.0508C21.3566 10.574 21.382 10.8358 21.2288 10.9521C21.0756 11.0682 20.8454 10.962 20.385 10.75L20.2659 10.6953C20.1352 10.6351 20.0696 10.6056 20.0003 10.6055C19.9309 10.6055 19.8653 10.6351 19.7346 10.6953L19.6155 10.75C19.1549 10.9621 18.924 11.0684 18.7708 10.9521C18.6176 10.8358 18.6429 10.5739 18.6936 10.0508L18.7073 9.91504C18.7216 9.76702 18.7285 9.69275 18.7073 9.62402C18.6858 9.55517 18.6383 9.4989 18.5432 9.3877L18.4563 9.28613C18.1212 8.89419 17.9528 8.69784 18.011 8.50977C18.0695 8.32158 18.316 8.2656 18.8079 8.1543L18.9348 8.12598C19.0746 8.09435 19.1453 8.07777 19.2014 8.03516C19.2573 7.99255 19.2937 7.9276 19.3655 7.79883L19.4309 7.68164C19.6843 7.22731 19.8109 7 20.0003 7ZM12.0003 2C12.3788 2.00021 12.6324 2.45459 13.1389 3.36328L13.2698 3.59863C13.4137 3.85684 13.4857 3.98609 13.5979 4.07129C13.7101 4.15643 13.85 4.18779 14.1292 4.25098L14.384 4.30859C15.3679 4.5312 15.8598 4.64317 15.9768 5.01953C16.0936 5.39579 15.7586 5.78817 15.0881 6.57227L14.9143 6.77441C14.7237 6.99729 14.628 7.1092 14.5852 7.24707C14.5424 7.38491 14.5574 7.53377 14.5862 7.83105L14.6126 8.10156C14.7139 9.14789 14.7646 9.67164 14.4583 9.9043C14.1519 10.1369 13.691 9.92415 12.7698 9.5L12.5315 9.39062C12.2699 9.27016 12.1389 9.21004 12.0003 9.20996C11.8616 9.20996 11.7305 9.27021 11.469 9.39062L11.2307 9.5C10.3098 9.92405 9.84866 10.1366 9.54225 9.9043C9.23584 9.67169 9.28654 9.14804 9.38795 8.10156L9.41432 7.83105C9.44314 7.53367 9.45719 7.38494 9.41432 7.24707C9.37144 7.10921 9.27581 6.99728 9.08522 6.77441L8.91237 6.57227C8.24191 5.78825 7.9061 5.39576 8.02272 5.01953C8.13975 4.6432 8.63179 4.53117 9.61549 4.30859L9.87037 4.25098C10.1496 4.18779 10.2894 4.15631 10.4016 4.07129C10.5138 3.98611 10.5859 3.85671 10.7297 3.59863L10.8616 3.36328C11.3681 2.4545 11.6216 2 12.0003 2Z" fill="#1C274C"/>
</svg>
