<svg width="24" height="24" viewBox="0 0 24 24" fill="none" xmlns="http://www.w3.org/2000/svg">
<path d="M14.1375 2.73779C15.1213 1.75407 16.7163 1.75407 17.7 2.73779C18.6835 3.72154 18.6836 5.31663 17.7 6.30029C18.6837 5.31657 20.2788 5.31657 21.2625 6.30029C22.2459 7.28405 22.2461 8.87916 21.2625 9.86279C20.5193 10.6059 19.2238 10.9905 18.2107 10.7104C17.6745 10.562 17.0251 10.5379 16.6316 10.9312L10.9314 16.6313C10.5381 17.0249 10.5622 17.6742 10.7107 18.2104C10.9908 19.2235 10.6061 20.5191 9.86304 21.2622C8.8794 22.2458 7.28429 22.2456 6.30054 21.2622C5.31681 20.2785 5.31682 18.6834 6.30054 17.6997C5.31688 18.6833 3.72178 18.6832 2.73804 17.6997C1.75432 16.716 1.75432 15.121 2.73804 14.1372C3.48127 13.3941 4.7766 13.0093 5.78979 13.2896C6.32601 13.438 6.97542 13.4621 7.3689 13.0688L13.0691 7.36865C13.4624 6.97518 13.4382 6.32576 13.2898 5.78955C13.0095 4.77636 13.3943 3.48104 14.1375 2.73779Z" fill="#1C274C"/>
</svg>
