<svg width="24" height="24" viewBox="0 0 24 24" fill="none" xmlns="http://www.w3.org/2000/svg">
<path d="M12 2C16.714 2 19.0708 2.00037 20.5352 3.46484C21.9996 4.9293 22 7.28597 22 12C22 16.714 21.9997 19.0708 20.5352 20.5352C19.0708 21.9997 16.714 22 12 22C7.28597 22 4.9293 21.9996 3.46484 20.5352C2.00037 19.0708 2 16.714 2 12C2 7.28595 2.00037 4.9293 3.46484 3.46484C4.9293 2.00037 7.28595 2 12 2ZM16 8.25C15.5858 8.25 15.25 8.58579 15.25 9C15.25 9.476 15.2493 9.7955 15.2324 10.043C15.216 10.2836 15.1872 10.4013 15.1553 10.4785C15.0284 10.7847 14.7847 11.0285 14.4785 11.1553C14.4013 11.1873 14.2836 11.216 14.043 11.2324C13.7955 11.2493 13.476 11.25 13 11.25H12.75V9C12.75 8.58579 12.4142 8.25 12 8.25C11.5858 8.25 11.25 8.58579 11.25 9V11.25H8.75V9C8.75 8.58579 8.41421 8.25 8 8.25C7.58579 8.25 7.25 8.58579 7.25 9V15C7.25 15.4142 7.58579 15.75 8 15.75C8.41421 15.75 8.75 15.4142 8.75 15V12.75H11.25V15C11.25 15.4142 11.5858 15.75 12 15.75C12.4142 15.75 12.75 15.4142 12.75 15V12.75H13.0254C13.4698 12.75 13.8409 12.7503 14.1455 12.7295C14.4626 12.7079 14.7624 12.6613 15.0527 12.541C15.7264 12.2619 16.2619 11.7264 16.541 11.0527C16.6613 10.7624 16.7079 10.4626 16.7295 10.1455C16.7503 9.84089 16.75 9.46979 16.75 9.02539V9C16.75 8.58579 16.4142 8.25 16 8.25Z" fill="#1C274C"/>
</svg>
