<svg width="24" height="24" viewBox="0 0 24 24" fill="none" xmlns="http://www.w3.org/2000/svg">
<path d="M15.7715 8.66699C17.2626 8.66699 18.0086 8.6665 18.4502 9.15332C18.8916 9.64017 18.8428 10.4088 18.7451 11.9453L18.4854 16.0254C18.3053 18.8572 18.215 20.2735 17.335 21.1367C16.4548 21.9999 15.101 22 12.3936 22H11.6064C8.89899 22 7.54522 21.9999 6.66504 21.1367C5.78495 20.2735 5.69474 18.8572 5.51465 16.0254L5.25488 11.9453C5.15717 10.4088 5.1083 9.64017 5.5498 9.15332C5.99135 8.6665 6.73737 8.66699 8.22852 8.66699H15.7715ZM12 2C12.9919 2 13.8928 2.38831 14.5498 3.0166C15.3845 3.81496 15.4759 4.96837 15.4824 5.80957H20.2705C20.6733 5.80968 20.9998 6.12919 21 6.52344C21 6.91786 20.6734 7.23817 20.2705 7.23828H3.72949C3.32658 7.23816 3 6.91785 3 6.52344C3.00021 6.1292 3.32671 5.8097 3.72949 5.80957H8.51758C8.52408 4.96837 8.61541 3.81496 9.4502 3.0166C10.1072 2.38831 11.0081 2 12 2Z" fill="#1C274C"/>
</svg>
