<svg width="24" height="24" viewBox="0 0 24 24" fill="none" xmlns="http://www.w3.org/2000/svg">
<path d="M12 2C17.5228 2 22 6.47715 22 12C22 17.5228 17.5228 22 12 22C6.47715 22 2 17.5228 2 12C2 6.47715 6.47715 2 12 2ZM14.0303 8.46973C13.7374 8.17684 13.2626 8.17684 12.9697 8.46973L9.96973 11.4697C9.67684 11.7626 9.67684 12.2374 9.96973 12.5303L12.9697 15.5303C13.2626 15.8232 13.7374 15.8232 14.0303 15.5303C14.3232 15.2374 14.3232 14.7626 14.0303 14.4697L11.5605 12L14.0303 9.53027C14.3232 9.23739 14.3232 8.76261 14.0303 8.46973Z" fill="#48465C"/>
</svg>
