<svg width="24" height="24" viewBox="0 0 24 24" fill="none" xmlns="http://www.w3.org/2000/svg">
<path d="M14.4307 1.51172C14.7002 1.19735 15.1738 1.16113 15.4883 1.43066C15.8026 1.70026 15.8389 2.17384 15.5693 2.48828L13.2021 5.25H16.0547C17.4222 5.24998 18.5246 5.24968 19.3916 5.36621C20.2917 5.48723 21.0495 5.74671 21.6514 6.34863C22.2533 6.95055 22.5128 7.70831 22.6338 8.6084C22.7503 9.47534 22.75 10.5779 22.75 11.9453V16.0547C22.75 17.4222 22.7503 18.5246 22.6338 19.3916C22.5128 20.2917 22.2533 21.0494 21.6514 21.6514C21.0494 22.2533 20.2917 22.5128 19.3916 22.6338C18.5246 22.7504 17.4222 22.75 16.0547 22.75H7.94531C6.57782 22.75 5.47534 22.7504 4.6084 22.6338C3.70829 22.5128 2.95055 22.2533 2.34863 21.6514C1.74672 21.0494 1.48723 20.2917 1.36621 19.3916C1.24968 18.5246 1.24998 17.4222 1.25 16.0547V11.9453C1.24998 10.5778 1.24968 9.47534 1.36621 8.6084C1.48723 7.70829 1.74672 6.95055 2.34863 6.34863C2.95055 5.74672 3.70829 5.48722 4.6084 5.36621C5.47533 5.24968 6.57782 5.24998 7.94531 5.25H10.7979L8.43066 2.48828C8.16114 2.17384 8.19738 1.70026 8.51172 1.43066C8.82616 1.16115 9.29975 1.19737 9.56934 1.51172L12 4.34766L14.4307 1.51172ZM8 6.75C6.56484 6.75 5.5639 6.75202 4.80859 6.85352C4.07482 6.95217 3.68594 7.13242 3.40918 7.40918C3.13249 7.68588 2.95218 8.07419 2.85352 8.80762C2.75196 9.56297 2.75 10.5646 2.75 12V16C2.75 17.4351 2.75201 18.4361 2.85352 19.1914C2.95217 19.9252 3.13242 20.314 3.40918 20.5908C3.68594 20.8676 4.07483 21.0478 4.80859 21.1465C5.5639 21.2479 6.56485 21.25 8 21.25H15.25V6.75H8ZM16.75 21.249C17.7958 21.2458 18.5761 21.2293 19.1924 21.1465C19.9258 21.0478 20.3141 20.8675 20.5908 20.5908C20.8676 20.314 21.0478 19.9252 21.1465 19.1914C21.2479 18.4361 21.25 17.4351 21.25 16V12C21.25 10.5646 21.248 9.56297 21.1465 8.80762C21.0478 8.07419 20.8676 7.68587 20.5908 7.40918C20.3141 7.13249 19.9258 6.95218 19.1924 6.85352C18.5761 6.77067 17.7958 6.75418 16.75 6.75098V21.249ZM19 15C19.5523 15 20 15.4477 20 16C20 16.5523 19.5523 17 19 17C18.4477 17 18 16.5523 18 16C18 15.4477 18.4477 15 19 15ZM19 11C19.5523 11 20 11.4477 20 12C20 12.5523 19.5523 13 19 13C18.4477 13 18 12.5523 18 12C18 11.4477 18.4477 11 19 11Z" fill="#48465C"/>
</svg>
