<svg width="24" height="24" viewBox="0 0 24 24" fill="none" xmlns="http://www.w3.org/2000/svg">
<path fill-rule="evenodd" clip-rule="evenodd" d="M14.4307 1.5117C14.7002 1.19733 15.1738 1.16111 15.4883 1.43064C15.8026 1.70024 15.8389 2.17381 15.5693 2.48826L13.2021 5.24998H16.0547C17.4222 5.24996 18.5246 5.24966 19.3916 5.36619C20.2917 5.48721 21.0495 5.74669 21.6514 6.34861C22.2533 6.95052 22.5128 7.70828 22.6338 8.60838C22.7503 9.47531 22.75 10.5779 22.75 11.9453V16.0547C22.75 17.4222 22.7503 18.5246 22.6338 19.3916C22.5128 20.2917 22.2533 21.0493 21.6514 21.6513C21.0494 22.2532 20.2917 22.5128 19.3916 22.6338C18.5246 22.7503 17.4222 22.75 16.0547 22.75H7.94531C6.57782 22.75 5.47534 22.7503 4.6084 22.6338C3.70829 22.5128 2.95055 22.2532 2.34863 21.6513C1.74672 21.0493 1.48723 20.2917 1.36621 19.3916C1.24968 18.5246 1.24998 17.4222 1.25 16.0547V11.9453C1.24998 10.5778 1.24968 9.47531 1.36621 8.60838C1.48723 7.70827 1.74672 6.95053 2.34863 6.34861C2.95055 5.7467 3.70829 5.4872 4.6084 5.36619C5.47533 5.24965 6.57782 5.24996 7.94531 5.24998H10.7979L8.43066 2.48826C8.16114 2.17382 8.19738 1.70024 8.51172 1.43064C8.82616 1.16112 9.29976 1.19735 9.56934 1.5117L12 4.34763L14.4307 1.5117ZM8 6.74998C6.56484 6.74998 5.5639 6.752 4.80859 6.85349C4.07482 6.95214 3.68594 7.1324 3.40918 7.40916C3.13249 7.68586 2.95218 8.07417 2.85352 8.80759C2.75196 9.56294 2.75 10.5646 2.75 12V16C2.75 17.4351 2.75201 18.436 2.85352 19.1914C2.95217 19.9252 3.13242 20.314 3.40918 20.5908C3.68594 20.8676 4.07483 21.0478 4.80859 21.1465C5.5639 21.2479 6.56485 21.25 8 21.25H15.25V6.74998H8ZM16.75 21.249C17.7958 21.2458 18.5761 21.2293 19.1924 21.1465C19.9258 21.0477 20.3141 20.8675 20.5908 20.5908C20.8676 20.314 21.0478 19.9252 21.1465 19.1914C21.2479 18.436 21.25 17.4351 21.25 16V12C21.25 10.5646 21.248 9.56294 21.1465 8.80759C21.0478 8.07417 20.8676 7.68585 20.5908 7.40916C20.3141 7.13246 19.9258 6.95216 19.1924 6.85349C18.5761 6.77064 17.7958 6.75415 16.75 6.75095V21.249ZM19 15C19.5523 15 20 15.4477 20 16C20 16.5523 19.5523 17 19 17C18.4477 17 18 16.5523 18 16C18 15.4477 18.4477 15 19 15ZM19 11C19.5523 11 20 11.4477 20 12C20 12.5523 19.5523 13 19 13C18.4477 13 18 12.5523 18 12C18 11.4477 18.4477 11 19 11Z" fill="#1C274C"/>
</svg>
