<svg width="24" height="24" viewBox="0 0 24 24" fill="none" xmlns="http://www.w3.org/2000/svg">
<path d="M12 2C16.714 2 19.0708 2.00037 20.5352 3.46484C21.9996 4.9293 22 7.28597 22 12C22 16.714 21.9997 19.0708 20.5352 20.5352C19.0708 21.9997 16.714 22 12 22C7.28597 22 4.9293 21.9996 3.46484 20.5352C2.00037 19.0708 2 16.714 2 12C2 7.28595 2.00037 4.9293 3.46484 3.46484C4.9293 2.00037 7.28595 2 12 2ZM14.4746 8.41895C14.1538 8.15706 13.6809 8.20466 13.4189 8.52539L8.28613 14.8145L6.58105 12.7256C6.31911 12.4047 5.84625 12.3573 5.52539 12.6191C5.20485 12.881 5.15737 13.353 5.41895 13.6738L7.70508 16.4746C7.84752 16.6489 8.06105 16.75 8.28613 16.75C8.51123 16.7499 8.72484 16.649 8.86719 16.4746L14.5811 9.47461C14.8429 9.15379 14.7954 8.68091 14.4746 8.41895ZM18.4746 8.41895C18.1538 8.15705 17.681 8.20467 17.4189 8.52539L12.251 14.8555C12.0381 14.7802 11.7935 14.8017 11.5898 14.9346C11.2432 15.161 11.1457 15.6259 11.3721 15.9727L11.6572 16.4102C11.788 16.6105 12.0072 16.7363 12.2461 16.749C12.4847 16.7617 12.715 16.6596 12.8662 16.4746L18.5811 9.47461C18.8429 9.15379 18.7954 8.68091 18.4746 8.41895Z" fill="#1C274C"/>
</svg>
