<svg width="24" height="24" viewBox="0 0 24 24" fill="none" xmlns="http://www.w3.org/2000/svg">
<path d="M12 2C14.631 2 15.9463 2.00029 16.7637 2.87891C17.581 3.75759 17.5811 5.17157 17.5811 8V16C17.5811 18.8284 17.581 20.2424 16.7637 21.1211C15.9463 21.9997 14.631 22 12 22C9.36896 22 8.05371 21.9997 7.23633 21.1211C6.41895 20.2424 6.41895 18.8284 6.41895 16V8C6.41895 5.17157 6.41895 3.75759 7.23633 2.87891C8.05371 2.00028 9.36896 2 12 2ZM4.83398 3.78613C5.0522 3.76698 5.22014 3.97135 5.18457 4.1875C5.16707 4.29386 5.15114 4.40128 5.1377 4.50879C5.10779 4.74804 5.08567 5.00296 5.06934 5.27246C5.02304 6.03632 5.02339 6.91866 5.02344 7.90137V16.0986C5.02339 17.0813 5.02304 17.9637 5.06934 18.7275C5.08567 18.997 5.10779 19.252 5.1377 19.4912C5.15114 19.5987 5.16707 19.7061 5.18457 19.8125C5.22014 20.0286 5.0522 20.233 4.83398 20.2139C4.40319 20.176 4.01378 20.0945 3.65039 19.8955C3.0817 19.5839 2.61889 19.087 2.3291 18.4756C2.14394 18.0849 2.06939 17.6663 2.03418 17.2031C2.00016 16.7556 1.99999 16.2046 2 15.5312V8.46875C1.99999 7.79537 2.00016 7.24444 2.03418 6.79688C2.06939 6.33367 2.14393 5.91512 2.3291 5.52441C2.61889 4.91302 3.0817 4.41609 3.65039 4.10449C4.01378 3.90545 4.40318 3.82399 4.83398 3.78613ZM19.166 3.78613C19.5968 3.82399 19.9862 3.90545 20.3496 4.10449C20.9183 4.41609 21.3811 4.91303 21.6709 5.52441C21.8561 5.91512 21.9306 6.33367 21.9658 6.79688C21.9998 7.24444 22 7.79537 22 8.46875V15.5312C22 16.2046 21.9998 16.7556 21.9658 17.2031C21.9306 17.6663 21.8561 18.0849 21.6709 18.4756C21.3811 19.087 20.9183 19.5839 20.3496 19.8955C19.9862 20.0945 19.5968 20.176 19.166 20.2139C18.9478 20.233 18.7799 20.0286 18.8154 19.8125C18.8329 19.7061 18.8489 19.5987 18.8623 19.4912C18.8922 19.252 18.9143 18.997 18.9307 18.7275C18.977 17.9637 18.9766 17.0813 18.9766 16.0986V7.90137C18.9766 6.91865 18.977 6.03633 18.9307 5.27246C18.9143 5.00296 18.8922 4.74804 18.8623 4.50879C18.8489 4.40128 18.8329 4.29386 18.8154 4.1875C18.7799 3.97135 18.9478 3.76697 19.166 3.78613ZM14.7969 6.87988C14.5986 6.90308 14.4192 6.97138 14.2686 7.03711C14.12 7.10189 13.9417 7.19071 13.7393 7.29199L12.4062 7.95898C12.3943 7.96493 12.3822 7.97057 12.3701 7.97656C12.2252 8.04875 12.0715 8.12606 11.9375 8.22852C11.596 8.48963 11.362 8.86684 11.2812 9.28906C11.2495 9.45477 11.2498 9.62717 11.25 9.78906V12.5498C10.875 12.3581 10.4501 12.25 10 12.25C8.48123 12.25 7.25002 13.4812 7.25 15C7.25 16.5188 8.48122 17.75 10 17.75C11.5188 17.75 12.75 16.5188 12.75 15V12.1143C12.8974 12.1355 13.0497 12.138 13.2031 12.1201C13.4014 12.0969 13.5808 12.0296 13.7314 11.9639C13.88 11.8991 14.0582 11.8103 14.2607 11.709L15.5938 11.042C15.6057 11.036 15.6177 11.0295 15.6299 11.0234C15.7747 10.9513 15.9285 10.8748 16.0625 10.7725C16.4041 10.5113 16.6379 10.1332 16.7188 9.71094C16.7503 9.54533 16.7502 9.37373 16.75 9.21191V9.15234C16.75 8.9256 16.7497 8.72639 16.7412 8.56445C16.7326 8.40024 16.7134 8.21009 16.6455 8.02246C16.369 7.25911 15.6033 6.78582 14.7969 6.87988ZM10 13.75C10.6903 13.75 11.25 14.3097 11.25 15C11.25 15.6904 10.6904 16.25 10 16.25C9.30964 16.25 8.75 15.6904 8.75 15C8.75002 14.3097 9.30966 13.75 10 13.75ZM14.9785 8.36914C15.0884 8.35965 15.1918 8.4238 15.2324 8.52637C15.234 8.53511 15.2392 8.56844 15.2432 8.64355C15.2494 8.76119 15.25 8.91997 15.25 9.1709C15.25 9.27803 15.2497 9.33949 15.248 9.38574C15.247 9.41443 15.2455 9.42658 15.2451 9.42969C15.2335 9.48951 15.2006 9.54291 15.1523 9.58008C15.1498 9.58181 15.1395 9.58877 15.1143 9.60254C15.0736 9.6247 15.0186 9.65229 14.9229 9.7002L13.6064 10.3584C13.3822 10.4706 13.2398 10.5418 13.1318 10.5889C13.0624 10.6192 13.0297 10.6284 13.0215 10.6309C12.9116 10.6404 12.8083 10.5771 12.7676 10.4746C12.7661 10.4664 12.7608 10.4325 12.7568 10.3564C12.7507 10.2388 12.75 10.0798 12.75 9.8291C12.75 9.72239 12.7503 9.66141 12.752 9.61523C12.753 9.58629 12.7545 9.57338 12.7549 9.57031C12.7666 9.51058 12.7994 9.45701 12.8477 9.41992C12.8502 9.41816 12.8604 9.41126 12.8857 9.39746C12.9264 9.3753 12.9814 9.3477 13.0771 9.2998L14.3936 8.6416C14.6177 8.52948 14.7602 8.45919 14.8682 8.41211C14.938 8.38168 14.9705 8.3715 14.9785 8.36914Z" fill="#1C274C"/>
</svg>
