<svg width="24" height="24" viewBox="0 0 24 24" fill="none" xmlns="http://www.w3.org/2000/svg">
<path d="M13.7959 14.0469C14.1097 13.7766 14.5831 13.8122 14.8535 14.126C15.1239 14.4398 15.0892 14.9132 14.7754 15.1836L12.0195 17.5576H14.2861C14.5995 17.5578 14.8802 17.7532 14.9893 18.0469C15.0982 18.3406 15.0128 18.6713 14.7754 18.876L10.4893 22.5684C10.1755 22.8385 9.70197 22.803 9.43164 22.4893C9.16159 22.1755 9.19704 21.7019 9.51074 21.4316L12.2656 19.0576H10C9.6866 19.0576 9.4061 18.8631 9.29688 18.5693C9.18773 18.2754 9.27324 17.9439 9.51074 17.7393L13.7959 14.0469ZM12.4766 1.25C15.6345 1.25017 18.2721 3.49421 18.8311 6.47168C21.1308 7.44788 22.7499 9.70908 22.75 12.3525C22.75 15.4264 20.5625 17.9839 17.6572 18.6055C17.2523 18.6921 16.8533 18.4342 16.7666 18.0293C16.68 17.6243 16.9379 17.2254 17.3428 17.1387C19.5825 16.6597 21.25 14.6926 21.25 12.3525C21.2498 10.216 19.8603 8.39081 17.9121 7.72461C17.4037 7.5508 16.857 7.4561 16.2861 7.45605C15.7035 7.45605 15.1451 7.55467 14.6279 7.73535C14.2369 7.87169 13.8094 7.66533 13.6729 7.27441C13.5363 6.8834 13.7428 6.45591 14.1338 6.31934C14.8081 6.08384 15.5331 5.95605 16.2861 5.95605C16.5813 5.95607 16.8721 5.97561 17.1572 6.01367C16.4765 4.1165 14.6423 2.75015 12.4766 2.75C9.72646 2.75 7.51172 4.95123 7.51172 7.64746C7.51176 8.10948 7.57661 8.55602 7.69727 8.97852C8.19435 9.12198 8.65962 9.33908 9.08008 9.61719C9.42554 9.84571 9.52051 10.3108 9.29199 10.6562C9.06348 11.0017 8.59839 11.0967 8.25293 10.8682C7.87219 10.6163 7.43941 10.4351 6.97363 10.3447C6.75194 10.3018 6.52192 10.2793 6.28613 10.2793C4.32504 10.2793 2.75003 11.8482 2.75 13.7646C2.75 15.6811 4.32502 17.25 6.28613 17.25C6.70016 17.2502 7.03613 17.5859 7.03613 18C7.03613 18.4141 6.70016 18.7498 6.28613 18.75C3.51338 18.75 1.25 16.5263 1.25 13.7646C1.25003 11.0605 3.41976 8.87213 6.11328 8.78223C6.04654 8.41365 6.01174 8.03436 6.01172 7.64746C6.01172 4.10612 8.91482 1.25 12.4766 1.25Z" fill="#1C274C"/>
</svg>
