<svg width="24" height="24" viewBox="0 0 24 24" fill="none" xmlns="http://www.w3.org/2000/svg">
<path d="M17 9.75C19.7614 9.75 22 11.9886 22 14.75C22 16.9773 20.5436 18.864 18.5312 19.5107L19.6436 21.3643C19.8564 21.7194 19.7409 22.1805 19.3857 22.3936C19.0306 22.6064 18.5695 22.4908 18.3564 22.1357L16.9258 19.75H7.07422L5.64355 22.1357C5.43051 22.4908 4.9694 22.6064 4.61426 22.3936C4.25917 22.1805 4.14357 21.7194 4.35645 21.3643L5.46875 19.5107C3.45641 18.864 2 16.9773 2 14.75C2 11.9886 4.23858 9.75 7 9.75H17ZM7 12.5C5.75736 12.5 4.75 13.5074 4.75 14.75C4.75 15.9926 5.75736 17 7 17C8.24264 17 9.25 15.9926 9.25 14.75C9.25 13.5074 8.24264 12.5 7 12.5ZM7 14C7.41421 14 7.75 14.3358 7.75 14.75C7.75 15.1642 7.41421 15.5 7 15.5C6.58579 15.5 6.25 15.1642 6.25 14.75C6.25 14.3358 6.58579 14 7 14ZM12 14C11.5858 14 11.25 14.3358 11.25 14.75C11.25 15.1642 11.5858 15.5 12 15.5H18.5C18.9142 15.5 19.25 15.1642 19.25 14.75C19.25 14.3358 18.9142 14 18.5 14H12ZM16.5 6.75C17.0523 6.75 17.5 7.19772 17.5 7.75C17.5 8.30228 17.0523 8.75 16.5 8.75C15.9477 8.75 15.5 8.30228 15.5 7.75C15.5 7.19772 15.9477 6.75 16.5 6.75ZM16.501 4.5C18.2076 4.50016 19.6459 5.64003 20.1006 7.19824C20.2165 7.59583 19.9885 8.01191 19.5908 8.12793C19.1932 8.24392 18.7771 8.01576 18.6611 7.61816C18.3881 6.68251 17.5231 6.00016 16.501 6C15.4786 6 14.6128 6.6824 14.3398 7.61816C14.2238 8.01573 13.8077 8.24395 13.4102 8.12793C13.0127 8.01188 12.7845 7.59578 12.9004 7.19824C13.3552 5.63992 14.7942 4.5 16.501 4.5ZM16.5 2C19.1065 2.00009 21.3385 3.59576 22.2764 5.86035C22.4347 6.24299 22.2527 6.68139 21.8701 6.83984C21.4876 6.99819 21.049 6.81622 20.8906 6.43359C20.1767 4.71016 18.4787 3.50009 16.5 3.5C14.5214 3.5 12.8234 4.71015 12.1094 6.43359C11.951 6.81628 11.5116 6.99833 11.1289 6.83984C10.7465 6.68128 10.5653 6.24293 10.7236 5.86035C11.6615 3.5957 13.8935 2 16.5 2Z" fill="#1C274C"/>
</svg>
