<svg width="24" height="24" viewBox="0 0 24 24" fill="none" xmlns="http://www.w3.org/2000/svg">
<path d="M4 5C4.00002 5.55227 4.44773 6 5 6H17C18.6569 6 20 7.34315 20 9V19C20 20.6569 18.6569 22 17 22H7C5.34316 22 4.00002 20.6569 4 19V5ZM8 14.75C7.58579 14.75 7.25 15.0858 7.25 15.5C7.25002 15.9142 7.5858 16.25 8 16.25H13.5C13.9142 16.25 14.25 15.9142 14.25 15.5C14.25 15.0858 13.9142 14.75 13.5 14.75H8ZM8 11.25C7.58579 11.25 7.25 11.5858 7.25 12C7.25002 12.4142 7.5858 12.75 8 12.75H16C16.4142 12.75 16.75 12.4142 16.75 12C16.75 11.5858 16.4142 11.25 16 11.25H8ZM15.7168 2.32617C16.9215 2.15407 17.9998 3.08873 18 4.30566V5.12598C17.6804 5.04371 17.3453 5 17 5H5C5 4.59345 4.75751 4.24325 4.40918 4.08691C4.55304 3.97369 4.72759 3.89564 4.91992 3.86816L15.7168 2.32617Z" fill="#1C274C"/>
</svg>
