<svg width="24" height="24" viewBox="0 0 24 24" fill="none" xmlns="http://www.w3.org/2000/svg">
<path d="M12.0576 1.25C14.3657 1.24999 16.1745 1.24974 17.5859 1.43945C19.0306 1.63369 20.1706 2.03977 21.0654 2.93457C21.9602 3.82938 22.3662 4.96932 22.5605 6.41406C22.7502 7.82544 22.75 9.63432 22.75 11.9424V12.0576C22.75 14.3657 22.7502 16.1745 22.5605 17.5859C22.3662 19.0306 21.9602 20.1706 21.0654 21.0654C20.1706 21.9602 19.0306 22.3662 17.5859 22.5605C16.1745 22.7502 14.3657 22.75 12.0576 22.75H11.9424C9.63432 22.75 7.82544 22.7502 6.41406 22.5605C4.96932 22.3662 3.82938 21.9602 2.93457 21.0654C2.03977 20.1706 1.63369 19.0306 1.43945 17.5859C1.24974 16.1745 1.24999 14.3657 1.25 12.0576V11.9424C1.24999 9.63433 1.24974 7.82544 1.43945 6.41406C1.63369 4.96932 2.03976 3.82938 2.93457 2.93457C3.82938 2.03976 4.96932 1.63369 6.41406 1.43945C7.82544 1.24974 9.63433 1.24999 11.9424 1.25H12.0576ZM12 2.75C10.2582 2.75 8.87584 2.75119 7.75 2.82031V21.1797C8.87584 21.2488 10.2582 21.25 12 21.25C13.7418 21.25 15.1242 21.2488 16.25 21.1797V2.82031C15.1242 2.75119 13.7418 2.75 12 2.75ZM2.98145 17.75C3.1647 18.8148 3.48162 19.4914 3.99512 20.0049C4.50861 20.5184 5.18517 20.8353 6.25 21.0186V17.75H2.98145ZM17.75 21.0186C18.8148 20.8353 19.4914 20.5184 20.0049 20.0049C20.5184 19.4914 20.8353 18.8148 21.0186 17.75H17.75V21.0186ZM2.75 12.75C2.75147 14.1453 2.76142 15.2908 2.82031 16.25H6.25V12.75H2.75ZM17.75 16.25H21.1797C21.2386 15.2908 21.2486 14.1453 21.25 12.75H17.75V16.25ZM9.98633 8.96094C10.5192 8.60835 11.0755 8.76391 11.4678 8.94531C11.8411 9.118 12.2858 9.41628 12.7793 9.74805C12.796 9.75923 12.8123 9.77097 12.8291 9.78223L12.876 9.81348C13.3656 10.1425 13.8038 10.4364 14.1113 10.7197C14.4452 11.0274 14.75 11.4338 14.75 12C14.75 12.5662 14.4452 12.9726 14.1113 13.2803C13.8038 13.5636 13.3656 13.8575 12.876 14.1865L12.8291 14.2178C12.8124 14.229 12.7959 14.2408 12.7793 14.252C12.2857 14.5836 11.8411 14.882 11.4678 15.0547C11.0755 15.236 10.5192 15.3917 9.98633 15.0391C9.49665 14.7151 9.36114 14.1729 9.30566 13.7393C9.24954 13.3003 9.24996 12.7236 9.25 12.0518V11.9482C9.24996 11.2764 9.24954 10.6997 9.30566 10.2607C9.36114 9.8271 9.49665 9.28499 9.98633 8.96094ZM10.7939 10.4512C10.7515 10.7832 10.75 11.2622 10.75 12C10.75 12.7378 10.7515 13.2168 10.7939 13.5488C10.802 13.6124 10.8109 13.6629 10.8193 13.7021C10.8255 13.6995 10.8323 13.6963 10.8389 13.6934C11.0897 13.5772 11.4334 13.3498 11.9932 12.9736C12.5439 12.6035 12.8824 12.3724 13.0947 12.1768C13.1936 12.0856 13.2324 12.0314 13.2461 12.0068C13.2475 12.0043 13.2488 12.0004 13.249 12C13.2488 11.9996 13.2475 11.9957 13.2461 11.9932C13.2324 11.9686 13.1936 11.9144 13.0947 11.8232C12.8824 11.6276 12.5439 11.3965 11.9932 11.0264C11.4334 10.6502 11.0897 10.4228 10.8389 10.3066C10.8323 10.3037 10.8255 10.3005 10.8193 10.2979C10.8109 10.3371 10.802 10.3876 10.7939 10.4512ZM2.82031 7.75C2.76142 8.70923 2.75147 9.8547 2.75 11.25H6.25V7.75H2.82031ZM17.75 11.25H21.25C21.2486 9.8547 21.2386 8.70923 21.1797 7.75H17.75V11.25ZM6.25 2.98145C5.18517 3.1647 4.50861 3.48162 3.99512 3.99512C3.48162 4.50861 3.1647 5.18517 2.98145 6.25H6.25V2.98145ZM17.75 6.25H21.0186C20.8353 5.18517 20.5184 4.50861 20.0049 3.99512C19.4914 3.48162 18.8148 3.1647 17.75 2.98145V6.25Z" fill="#1C274C"/>
</svg>
