<svg width="24" height="24" viewBox="0 0 24 24" fill="none" xmlns="http://www.w3.org/2000/svg">
<path d="M12 1.25C17.9371 1.25 22.75 6.06294 22.75 12V17.6338C22.7503 18.5474 22.7504 19.1603 22.5986 19.6973C22.3017 20.7473 21.5886 21.628 20.623 22.1084C20.1285 22.3545 19.5367 22.4519 18.6816 22.5928C18.642 22.5993 18.6013 22.6065 18.5605 22.6133L18.5391 22.6162C18.2351 22.6665 17.9738 22.7101 17.7568 22.7324C17.5308 22.7556 17.2974 22.763 17.0586 22.7139C16.2742 22.5522 15.6471 21.9783 15.3838 21.2266C15.3045 20.9998 15.2758 20.7687 15.2627 20.5361C15.2501 20.3115 15.25 20.0376 15.25 19.7139V15.0859C15.2495 14.6091 15.2488 14.2125 15.3506 13.874C15.5833 13.0997 16.1988 12.4917 16.9893 12.3018C17.3345 12.2189 17.7277 12.2523 18.1758 12.29C18.2093 12.2928 18.2433 12.295 18.2773 12.2979C18.318 12.3011 18.358 12.3053 18.3975 12.3086C19.2375 12.3776 19.8187 12.4245 20.3115 12.6152C20.6524 12.7471 20.9673 12.9276 21.25 13.1475V12C21.25 6.89137 17.1086 2.75 12 2.75C6.89139 2.75003 2.75 6.89139 2.75 12V13.1475C3.03268 12.9276 3.34764 12.7471 3.68848 12.6152C4.18135 12.4245 4.76253 12.3776 5.60254 12.3086C5.64202 12.3053 5.682 12.3011 5.72266 12.2979C5.75677 12.295 5.79073 12.2928 5.82422 12.29C6.2723 12.2524 6.66559 12.219 7.01074 12.3018C7.80131 12.4917 8.4167 13.0997 8.64941 13.874C8.75114 14.2125 8.75049 14.6091 8.75 15.0859V19.7139C8.75001 20.0377 8.74991 20.3115 8.7373 20.5361C8.72423 20.7688 8.69557 20.9998 8.61621 21.2266C8.35298 21.9783 7.7258 22.5522 6.94141 22.7139C6.70253 22.7631 6.46928 22.7556 6.24316 22.7324C6.02619 22.7101 5.76492 22.6665 5.46094 22.6162L5.43945 22.6133C5.39864 22.6065 5.35802 22.5993 5.31836 22.5928C4.46341 22.4519 3.87157 22.3545 3.37695 22.1084C2.41145 21.628 1.6982 20.7473 1.40137 19.6973C1.27082 19.2354 1.25235 18.7173 1.25 18V12C1.25 6.06296 6.06296 1.25003 12 1.25ZM5.84668 13.793C4.83874 13.8762 4.49342 13.9125 4.22949 14.0146C3.5626 14.2727 3.03805 14.8563 2.83691 15.6006C2.75642 15.8989 2.75 16.2777 2.75 17.3281V17.5137C2.75 18.5913 2.75695 18.9785 2.84473 19.2891C3.03087 19.9477 3.47298 20.4806 4.0459 20.7656C4.31227 20.8981 4.66081 20.9639 5.68359 21.1328C6.01528 21.1876 6.23086 21.2232 6.39648 21.2402C6.55784 21.2568 6.61663 21.2487 6.63867 21.2441C6.88276 21.1938 7.1039 21.0092 7.20117 20.7314C7.21322 20.697 7.23044 20.6261 7.24023 20.4521C7.25019 20.2747 7.25 20.0432 7.25 19.6934V15.1875C7.25 14.5533 7.24207 14.4028 7.21289 14.3057C7.1264 14.018 6.90791 13.8202 6.66113 13.7607C6.58358 13.7421 6.45805 13.7425 5.84668 13.793ZM17.3398 13.7607C17.0929 13.82 16.8736 14.0178 16.7871 14.3057C16.7579 14.4028 16.75 14.5533 16.75 15.1875V19.6934C16.75 20.0433 16.7507 20.2747 16.7607 20.4521C16.7704 20.6261 16.7878 20.697 16.7998 20.7314C16.8971 21.009 17.1173 21.1938 17.3613 21.2441C17.3833 21.2487 17.4422 21.2568 17.6035 21.2402C17.7692 21.2232 17.9848 21.1876 18.3164 21.1328C19.3397 20.9638 19.6887 20.8982 19.9551 20.7656C20.5278 20.4806 20.9692 19.9475 21.1553 19.2891C21.2431 18.9785 21.25 18.5913 21.25 17.5137V17.3281C21.25 16.2777 21.2436 15.8989 21.1631 15.6006C20.9619 14.8563 20.4375 14.2727 19.7705 14.0146C19.5066 13.9126 19.162 13.8761 18.1543 13.793C17.5434 13.7425 17.4175 13.7422 17.3398 13.7607ZM12 5.75C12.4142 5.75 12.75 6.08579 12.75 6.5V11.5C12.75 11.9142 12.4142 12.25 12 12.25C11.5858 12.25 11.25 11.9142 11.25 11.5V6.5C11.25 6.08581 11.5858 5.75003 12 5.75ZM9 7.25C9.41421 7.25 9.75 7.58579 9.75 8V10C9.75 10.4142 9.41421 10.75 9 10.75C8.58581 10.75 8.25 10.4142 8.25 10V8C8.25 7.58581 8.58581 7.25003 9 7.25ZM15 7.25C15.4142 7.25 15.75 7.58579 15.75 8V10C15.75 10.4142 15.4142 10.75 15 10.75C14.5858 10.75 14.25 10.4142 14.25 10V8C14.25 7.58581 14.5858 7.25003 15 7.25Z" fill="#1C274C"/>
</svg>
