<svg width="24" height="24" viewBox="0 0 24 24" fill="none" xmlns="http://www.w3.org/2000/svg">
<path d="M12 2C16.714 2 19.0708 2.00037 20.5352 3.46484C21.9996 4.9293 22 7.28597 22 12C22 16.714 21.9997 19.0708 20.5352 20.5352C19.0708 21.9997 16.714 22 12 22C7.28597 22 4.9293 21.9996 3.46484 20.5352C2.00037 19.0708 2 16.714 2 12C2 7.28595 2.00037 4.9293 3.46484 3.46484C4.9293 2.00037 7.28595 2 12 2ZM15.0303 8.96973C14.7374 8.67685 14.2626 8.67688 13.9697 8.96973L12 10.9395L10.0303 8.96973C9.7374 8.67684 9.26262 8.67685 8.96973 8.96973C8.67684 9.26262 8.67684 9.73741 8.96973 10.0303L10.9395 12L8.96973 13.9697C8.67684 14.2626 8.67684 14.7374 8.96973 15.0303C9.26262 15.3232 9.73742 15.3232 10.0303 15.0303L12 13.0605L13.9697 15.0303C14.2626 15.3231 14.7374 15.3232 15.0303 15.0303C15.3232 14.7374 15.3232 14.2625 15.0303 13.9697L13.0605 12L15.0303 10.0303C15.3232 9.73744 15.3232 9.26262 15.0303 8.96973Z" fill="#1C274C"/>
</svg>
