<svg width="24" height="24" viewBox="0 0 24 24" fill="none" xmlns="http://www.w3.org/2000/svg">
<path d="M10.0547 1.25C11.4222 1.24998 12.5246 1.24968 13.3916 1.36621C14.2917 1.48723 15.0494 1.74673 15.6514 2.34863C16.2533 2.95055 16.5128 3.70829 16.6338 4.6084C16.7503 5.47534 16.75 6.57782 16.75 7.94531V16.25H17.5713C18.7745 16.25 19.75 17.2255 19.75 18.4287V18.5C19.75 18.9142 20.0858 19.25 20.5 19.25C20.9142 19.25 21.25 18.9142 21.25 18.5V14.541L19.7881 14.0537C18.8695 13.7473 18.25 12.8872 18.25 11.9189V9.5C18.25 8.25736 19.2574 7.25 20.5 7.25H21.2422C21.1935 6.68022 20.9289 6.14943 20.502 5.7666C20.4586 5.72776 20.409 5.68779 20.2646 5.57227L19.0312 4.58594C18.7078 4.32719 18.6554 3.8547 18.9141 3.53125C19.1729 3.20782 19.6454 3.15531 19.9688 3.41406L21.2178 4.41406C21.34 4.51177 21.4244 4.57904 21.5029 4.64941C22.242 5.3119 22.6884 6.24053 22.7441 7.23145C22.75 7.33681 22.75 7.44499 22.75 7.60156V18.5C22.75 19.7426 21.7426 20.75 20.5 20.75C19.2574 20.75 18.25 19.7426 18.25 18.5V18.4287C18.25 18.0539 17.9461 17.75 17.5713 17.75H16.75V21.25H17C17.4142 21.25 17.75 21.5858 17.75 22C17.75 22.4142 17.4142 22.75 17 22.75H2C1.58579 22.75 1.25 22.4142 1.25 22C1.25 21.5858 1.58579 21.25 2 21.25H2.25V7.94531C2.24998 6.57782 2.24968 5.47534 2.36621 4.6084C2.48723 3.70829 2.74671 2.95055 3.34863 2.34863C3.95055 1.74671 4.70829 1.48723 5.6084 1.36621C6.47534 1.24968 7.57782 1.24998 8.94531 1.25H10.0547ZM9 2.75C7.56484 2.75 6.5639 2.75201 5.80859 2.85352C5.07481 2.95217 4.68594 3.13242 4.40918 3.40918C4.13242 3.68594 3.95217 4.07482 3.85352 4.80859C3.75201 5.5639 3.75 6.56485 3.75 8V21.25H15.25V8C15.25 6.56485 15.2479 5.5639 15.1465 4.80859C15.0478 4.07482 14.8676 3.68594 14.5908 3.40918C14.3141 3.13249 13.9258 2.95218 13.1924 2.85352C12.437 2.75196 11.4354 2.75 10 2.75H9ZM12 16.25C12.4142 16.25 12.75 16.5858 12.75 17C12.75 17.4142 12.4142 17.75 12 17.75H7C6.58579 17.75 6.25 17.4142 6.25 17C6.25 16.5858 6.58579 16.25 7 16.25H12ZM20.5 8.75C20.0858 8.75 19.75 9.08579 19.75 9.5V11.9189C19.75 12.2417 19.9565 12.5288 20.2627 12.6309L21.25 12.959V8.75H20.5ZM11.0449 5.25C11.4777 5.24995 11.8745 5.24957 12.1973 5.29297C12.5528 5.34076 12.9283 5.45368 13.2373 5.7627C13.5464 6.07172 13.6592 6.44727 13.707 6.80273C13.7504 7.12551 13.7501 7.52233 13.75 7.95508V8.04492C13.7501 8.47767 13.7504 8.8745 13.707 9.19727C13.6592 9.55274 13.5464 9.92832 13.2373 10.2373C12.9283 10.5464 12.5528 10.6592 12.1973 10.707C11.8745 10.7504 11.4777 10.7501 11.0449 10.75H7.95508C7.52233 10.7501 7.12551 10.7504 6.80273 10.707C6.44726 10.6592 6.07172 10.5464 5.7627 10.2373C5.45368 9.92832 5.34076 9.55274 5.29297 9.19727C5.24957 8.8745 5.24995 8.47768 5.25 8.04492V7.95508C5.24995 7.52234 5.24957 7.1255 5.29297 6.80273C5.34076 6.44726 5.45368 6.07172 5.7627 5.7627C6.07172 5.45368 6.44726 5.34076 6.80273 5.29297C7.1255 5.24957 7.52233 5.24995 7.95508 5.25H11.0449ZM8 6.75C7.50756 6.75 7.21364 6.75197 7.00293 6.78027C6.90638 6.79326 6.85772 6.80842 6.83594 6.81738C6.83095 6.81944 6.82711 6.82126 6.8252 6.82227L6.82324 6.82324L6.82227 6.8252C6.82126 6.82712 6.81943 6.83095 6.81738 6.83594C6.80842 6.85772 6.79326 6.90637 6.78027 7.00293C6.75197 7.21363 6.75 7.50755 6.75 8C6.75 8.49244 6.75197 8.78636 6.78027 8.99707C6.79326 9.09362 6.80842 9.14228 6.81738 9.16406C6.81943 9.16905 6.82126 9.17289 6.82227 9.1748L6.82324 9.17676L6.8252 9.17773C6.82711 9.17874 6.83095 9.18057 6.83594 9.18262C6.85772 9.19158 6.90638 9.20675 7.00293 9.21973C7.21364 9.24803 7.50756 9.25 8 9.25H11C11.4925 9.25 11.7864 9.24803 11.9971 9.21973C12.0937 9.20675 12.1424 9.19158 12.1641 9.18262C12.1689 9.18064 12.1719 9.17874 12.1738 9.17773L12.1768 9.17676L12.1777 9.1748C12.1787 9.17288 12.1806 9.16906 12.1826 9.16406C12.1916 9.14228 12.2067 9.09362 12.2197 8.99707C12.248 8.78636 12.25 8.49244 12.25 8C12.25 7.50755 12.248 7.21364 12.2197 7.00293C12.2067 6.90637 12.1916 6.85772 12.1826 6.83594C12.1806 6.83094 12.1787 6.82712 12.1777 6.8252L12.1768 6.82324L12.1738 6.82227C12.1719 6.82126 12.1689 6.81937 12.1641 6.81738C12.1424 6.80842 12.0937 6.79326 11.9971 6.78027C11.7864 6.75197 11.4925 6.75 11 6.75H8Z" fill="#48465C"/>
</svg>
