<svg width="24" height="24" viewBox="0 0 24 24" fill="none" xmlns="http://www.w3.org/2000/svg">
<path d="M12 13C15.3137 13 18 14.567 18 16.5C18 18.433 15.3137 20 12 20C8.68629 20 6 18.433 6 16.5C6 14.567 8.68629 13 12 13ZM5.39551 14.0771C4.85644 14.7443 4.50011 15.5561 4.5 16.5C4.5 17.4739 4.8794 18.3074 5.44727 18.9863C3.51748 18.8541 2.00034 17.8051 2 16.5303C2 15.2671 3.49096 14.225 5.39551 14.0771ZM18.6045 14.0771C20.509 14.2251 22 15.2672 22 16.5303C21.9997 17.8051 20.4825 18.8541 18.5527 18.9863C19.1206 18.3075 19.5 17.4739 19.5 16.5C19.4999 15.5561 19.1435 14.7443 18.6045 14.0771ZM12 4C13.933 4 15.5 5.567 15.5 7.5C15.5 9.433 13.933 11 12 11C10.067 11 8.5 9.433 8.5 7.5C8.5 5.567 10.067 4 12 4ZM7.12207 5C7.2994 5 7.47247 5.01768 7.63965 5.05078C7.23221 5.7746 7 6.61022 7 7.5C7 8.36825 7.22107 9.18495 7.61035 9.89648C7.4523 9.92592 7.28904 9.9414 7.12207 9.94141C5.70768 9.94141 4.56059 8.83516 4.56055 7.4707C4.56055 6.10621 5.70765 5 7.12207 5ZM16.8779 5C18.2923 5.00002 19.4385 6.10622 19.4385 7.4707C19.4384 8.83515 18.2923 9.94139 16.8779 9.94141C16.711 9.94141 16.5477 9.92591 16.3896 9.89648C16.7789 9.18496 17 8.36823 17 7.5C17 6.61023 16.7677 5.7746 16.3604 5.05078C16.5275 5.01768 16.7006 5 16.8779 5Z" fill="#1C274C"/>
</svg>
