<svg width="24" height="24" viewBox="0 0 24 24" fill="none" xmlns="http://www.w3.org/2000/svg">
<path d="M21 13C21 16.7712 20.9997 18.6566 19.8281 19.8281C19.5238 20.1325 19.1713 20.3577 18.75 20.5244V22C18.75 22.4142 18.4142 22.75 18 22.75C17.5858 22.75 17.25 22.4142 17.25 22V20.8711C16.1801 20.9998 14.8064 21 13 21H11C9.19364 21 7.81989 20.9998 6.75 20.8711V22C6.75 22.4142 6.41421 22.75 6 22.75C5.58579 22.75 5.25 22.4142 5.25 22V20.5244C4.82869 20.3577 4.47625 20.1325 4.17188 19.8281C3.00031 18.6566 3 16.7712 3 13V9.75H21V13ZM12 11.25C9.92893 11.25 8.25 12.9289 8.25 15C8.25 17.0711 9.92893 18.75 12 18.75C14.0711 18.75 15.75 17.0711 15.75 15C15.75 12.9289 14.0711 11.25 12 11.25ZM12 12.75C13.2426 12.75 14.25 13.7574 14.25 15C14.25 16.2426 13.2426 17.25 12 17.25C10.7574 17.25 9.75 16.2426 9.75 15C9.75 13.7574 10.7574 12.75 12 12.75ZM13 2C16.7712 2 18.6566 2.00031 19.8281 3.17188C20.8025 4.1462 20.9665 5.61409 20.9941 8.25H3.00586C3.03348 5.6141 3.19756 4.1462 4.17188 3.17188C5.34345 2.00031 7.22878 2 11 2H13ZM14.5 4.5C13.9477 4.50001 13.5 4.94773 13.5 5.5C13.5 6.05227 13.9477 6.49999 14.5 6.5C15.0523 6.5 15.5 6.05228 15.5 5.5C15.5 4.94772 15.0523 4.5 14.5 4.5ZM17.5 4.5C16.9477 4.50001 16.5 4.94773 16.5 5.5C16.5 6.05227 16.9477 6.49999 17.5 6.5C18.0523 6.5 18.5 6.05228 18.5 5.5C18.5 4.94772 18.0523 4.5 17.5 4.5ZM6.5 4.75C6.0858 4.75001 5.75 5.0858 5.75 5.5C5.75 5.9142 6.0858 6.24999 6.5 6.25H9.5C9.91421 6.25 10.25 5.91421 10.25 5.5C10.25 5.08579 9.91421 4.75 9.5 4.75H6.5Z" fill="#1C274C"/>
</svg>
