<svg width="24" height="24" viewBox="0 0 24 24" fill="none" xmlns="http://www.w3.org/2000/svg">
<path d="M12 6.25C14.0711 6.25 15.75 7.92893 15.75 10V13C15.75 14.8142 14.4617 16.3273 12.75 16.6748V19C12.75 19.4142 12.4142 19.75 12 19.75C11.5858 19.75 11.25 19.4142 11.25 19V16.6748C9.53834 16.3273 8.25 14.8142 8.25 13V10C8.25 7.92893 9.92893 6.25 12 6.25ZM12 3.25C15.5791 3.25 18.5074 6.03609 18.7354 9.55762C19.1139 9.36131 19.5441 9.25 20 9.25C21.5188 9.25 22.75 10.4812 22.75 12V14C22.75 15.5188 21.5188 16.75 20 16.75C19.9484 16.75 19.8967 16.7489 19.8457 16.7461V16.75C18.4121 16.7498 17.25 15.5871 17.25 14.1533V10C17.25 7.10052 14.8995 4.75 12 4.75C9.1005 4.75 6.75 7.10052 6.75 10V14.1533C6.75 15.5871 5.5879 16.7498 4.1543 16.75V16.7461C4.10337 16.7489 4.05163 16.75 4 16.75C2.48122 16.75 1.25 15.5188 1.25 14V12C1.25 10.4812 2.48122 9.25 4 9.25C4.45584 9.25 4.88613 9.36131 5.26465 9.55762C5.49268 6.03609 8.42083 3.25 12 3.25ZM4 10.75C3.30964 10.75 2.75 11.3096 2.75 12V14C2.75 14.6904 3.30964 15.25 4 15.25C4.69004 15.25 5.24948 14.6909 5.25 14.001V11.999C5.24948 11.3091 4.69004 10.75 4 10.75ZM12 7.75C11.0203 7.75 10.1868 8.37611 9.87793 9.25H10C10.4142 9.25 10.75 9.58579 10.75 10C10.75 10.4142 10.4142 10.75 10 10.75H9.75V12.25H10C10.4142 12.25 10.75 12.5858 10.75 13C10.75 13.4142 10.4142 13.75 10 13.75H9.87793C10.1868 14.6239 11.0203 15.25 12 15.25C12.9797 15.25 13.8132 14.6239 14.1221 13.75H13C12.5858 13.75 12.25 13.4142 12.25 13C12.25 12.5858 12.5858 12.25 13 12.25H14.25V10.75H13C12.5858 10.75 12.25 10.4142 12.25 10C12.25 9.58579 12.5858 9.25 13 9.25H14.1221C13.8132 8.37611 12.9797 7.75 12 7.75ZM20 10.75C19.3096 10.75 18.75 11.3096 18.75 12V14C18.75 14.6904 19.3096 15.25 20 15.25C20.6904 15.25 21.25 14.6904 21.25 14V12C21.25 11.3096 20.6904 10.75 20 10.75Z" fill="#48465C"/>
</svg>
