<svg width="24" height="24" viewBox="0 0 24 24" fill="none" xmlns="http://www.w3.org/2000/svg">
<path d="M19 16.6255C18.9999 17.6334 18.496 18.5776 17.6143 19.0659C16.1458 19.879 13.7958 20.9995 12 20.9995C10.2042 20.9995 7.85415 19.879 6.38574 19.0659C5.50397 18.5776 5.00007 17.6334 5 16.6255V12.9146L9.14648 14.8579C10.9708 15.7131 13.0292 15.7131 14.8535 14.8579L19 12.9146V16.6255ZM9.78223 3.49951C11.2031 2.83337 12.7959 2.83348 14.2168 3.49951L20.9082 6.63623C22.3637 7.31858 22.3637 9.68142 20.9082 10.3638L14.2168 13.5005C12.796 14.1664 11.2039 14.1664 9.7832 13.5005L3.75 10.6724V14.5005C3.74975 14.9145 3.41403 15.2505 3 15.2505C2.58594 15.2505 2.25025 14.9145 2.25 14.5005V9.54639C1.73523 8.56325 2.01588 7.14065 3.0918 6.63623L9.78223 3.49951Z" fill="#48465C"/>
</svg>
