<svg width="24" height="24" viewBox="0 0 24 24" fill="none" xmlns="http://www.w3.org/2000/svg">
<path d="M19.0001 16.6255C19 17.6334 18.4961 18.5776 17.6143 19.0659C16.1459 19.879 13.7959 20.9995 12.0001 20.9995C10.2043 20.9995 7.85421 19.879 6.3858 19.0659C5.50403 18.5776 5.00013 17.6334 5.00006 16.6255V12.9146L9.14655 14.8579C10.9709 15.7131 13.0293 15.7131 14.8536 14.8579L19.0001 12.9146V16.6255ZM9.78229 3.49951C11.2031 2.83337 12.7959 2.83348 14.2169 3.49951L20.9083 6.63623C22.3638 7.31858 22.3638 9.68142 20.9083 10.3638L14.2169 13.5005C12.7961 14.1664 11.204 14.1664 9.78326 13.5005L3.75006 10.6724V14.5005C3.74981 14.9145 3.4141 15.2505 3.00006 15.2505C2.586 15.2505 2.25031 14.9145 2.25006 14.5005V9.54639C1.73529 8.56325 2.01594 7.14065 3.09186 6.63623L9.78229 3.49951Z" fill="#1C274C"/>
</svg>
