<svg width="24" height="24" viewBox="0 0 24 24" fill="none" xmlns="http://www.w3.org/2000/svg">
<path d="M8.61853 2.57275C10.7481 2.08132 11.8133 1.83514 12.8158 2.12256C13.8184 2.4101 14.5916 3.18347 16.1371 4.729L17.9662 6.55811C20.6551 9.24696 22.0002 10.5916 22.0004 12.2622C22.0004 13.9329 20.6552 15.2773 17.9662 17.9663C15.2772 20.6553 13.9328 22.0005 12.2621 22.0005C10.5915 22.0004 9.24684 20.6552 6.55798 17.9663L4.72888 16.1372C3.18335 14.5917 2.40998 13.8185 2.12244 12.8159C1.83502 11.8134 2.0812 10.7482 2.57263 8.61865L2.85583 7.39111C3.26932 5.59935 3.47576 4.70284 4.08923 4.08936C4.70271 3.47589 5.59922 3.26944 7.39099 2.85596L8.61853 2.57275ZM13.0072 10.6069C12.6351 10.6034 12.2611 10.6987 11.9213 10.8794C11.6294 10.6809 11.2289 10.7114 10.9701 10.9702C10.7104 11.23 10.681 11.6331 10.8822 11.9253C10.4798 12.6905 10.4739 13.6558 11.1469 14.3286C12.0143 15.196 13.3676 14.9358 14.1517 14.1519C14.5391 13.7644 14.9264 13.8663 15.0355 13.9751C15.1443 14.0839 15.2463 14.4713 14.8588 14.8589C14.6135 15.104 14.3278 15.162 14.1508 15.1255C13.7451 15.0424 13.3483 15.3039 13.265 15.7095C13.1816 16.1153 13.4433 16.5119 13.849 16.5952C14.3446 16.6971 14.8648 16.6056 15.3217 16.3628C15.6135 16.5615 16.0139 16.5317 16.2728 16.2729C16.5326 16.0132 16.5629 15.6101 16.3617 15.3179C16.764 14.5527 16.7689 13.5874 16.0961 12.9146C15.2286 12.0472 13.8753 12.3073 13.0912 13.0913C12.7038 13.4786 12.3164 13.3768 12.2074 13.2681C12.0986 13.1592 11.9968 12.7717 12.3842 12.3843C12.5834 12.185 12.8157 12.1054 12.9926 12.1069C13.4068 12.1108 13.7465 11.778 13.7504 11.3638C13.7541 10.9497 13.4213 10.6109 13.0072 10.6069ZM10.0209 7.46533C9.23978 6.68428 7.9738 6.68428 7.19275 7.46533C6.41185 8.24639 6.41175 9.51248 7.19275 10.2935C7.97375 11.0743 9.23983 11.0743 10.0209 10.2935C10.8018 9.51248 10.8017 8.2464 10.0209 7.46533Z" fill="#48465C"/>
</svg>
