<svg width="24" height="24" viewBox="0 0 24 24" fill="none" xmlns="http://www.w3.org/2000/svg">
<path d="M6.62537 2.69043C8.72043 1.48089 11.0557 1.05577 13.2865 1.32617C16.5261 1.71898 19.5512 3.57889 21.3099 6.625C23.0685 9.67118 23.1659 13.2206 21.8861 16.2227C21.0049 18.2897 19.4703 20.1 17.3754 21.3096C12.2337 24.2781 5.65835 22.5167 2.68982 17.375C-0.278641 12.2334 1.48375 5.65894 6.62537 2.69043ZM12.3099 2.75391C10.6384 2.69617 8.93144 3.09091 7.37537 3.98926C5.82004 4.88723 4.62424 6.16896 3.83826 7.64551C3.88262 7.66378 3.92876 7.68292 3.97595 7.70312C4.35649 7.86616 4.53323 8.30685 4.37048 8.6875C4.20749 9.06829 3.76593 9.24503 3.38513 9.08203C3.33564 9.06086 3.28805 9.04106 3.24255 9.02246C2.41576 11.4575 2.60281 14.223 3.98962 16.625C5.37643 19.0269 7.67756 20.5718 10.1996 21.0732C10.2063 21.0243 10.2137 20.9726 10.2201 20.9189C10.2696 20.508 10.6421 20.2146 11.0531 20.2637C11.4644 20.3129 11.7587 20.6864 11.7094 21.0977C11.7033 21.1488 11.6962 21.1983 11.6898 21.2461C13.3615 21.3037 15.0701 20.9087 16.6254 20.0107C18.1814 19.1123 19.3767 17.8309 20.1625 16.3545C20.1181 16.3362 20.072 16.317 20.0248 16.2969C19.6441 16.1339 19.4675 15.6932 19.6302 15.3125C19.7931 14.9317 20.2338 14.755 20.6146 14.918C20.6643 14.9392 20.7126 14.9588 20.7582 14.9775C21.5855 12.5413 21.3975 9.77654 20.0111 7.375C18.6245 4.97337 16.3238 3.42849 13.8002 2.92676C13.7936 2.97547 13.7871 3.02662 13.7806 3.08008C13.7314 3.4913 13.3579 3.78548 12.9467 3.73633C12.5354 3.68709 12.2422 3.31358 12.2914 2.90234C12.2975 2.85121 12.3035 2.80161 12.3099 2.75391ZM10.5023 15.9443C10.9043 15.8447 11.3108 16.0901 11.4105 16.4922C11.5824 17.1857 11.6855 17.844 11.7406 18.4492C11.7782 18.8617 11.4734 19.227 11.0609 19.2646C10.6485 19.302 10.284 18.9973 10.2465 18.585C10.1977 18.0488 10.1064 17.4659 9.95447 16.8525C9.85495 16.4505 10.1003 16.0441 10.5023 15.9443ZM16.1644 12.6748C16.4517 12.3766 16.9266 12.368 17.225 12.6553C17.6802 13.0937 18.1404 13.4639 18.5804 13.7744C18.9184 14.0133 18.9988 14.481 18.7601 14.8193C18.5213 15.1575 18.0536 15.2386 17.7152 15C17.2186 14.6497 16.6997 14.2311 16.1849 13.7354C15.8865 13.4481 15.8771 12.9732 16.1644 12.6748ZM8.48083 12.0879C8.82271 11.8547 9.28918 11.9425 9.52283 12.2842C9.70495 12.5507 9.88156 12.8312 10.0511 13.125C10.2208 13.4188 10.3752 13.7118 10.515 14.0029C10.6944 14.3762 10.5368 14.8245 10.1635 15.0039C9.79021 15.183 9.34279 15.0256 9.16345 14.6523C9.03974 14.3948 8.90274 14.1355 8.75232 13.875C8.60195 13.6146 8.44562 13.3666 8.28455 13.1309C8.05091 12.7888 8.1388 12.3216 8.48083 12.0879ZM13.8363 8.99609C14.2096 8.81683 14.6579 8.97436 14.8373 9.34766C14.9609 9.60504 15.0971 9.86457 15.2474 10.125C15.3978 10.3854 15.5542 10.6334 15.7152 10.8691C15.9489 11.2112 15.8618 11.6785 15.5199 11.9121C15.1779 12.1457 14.7107 12.0577 14.4769 11.7158C14.2948 11.4492 14.1182 11.1688 13.9486 10.875C13.7789 10.5812 13.6246 10.2882 13.4847 9.99707C13.3055 9.62374 13.4629 9.17547 13.8363 8.99609ZM5.23962 9.18066C5.47836 8.84244 5.94616 8.76154 6.28455 9C6.78112 9.35035 7.30098 9.76891 7.8158 10.2646C8.11384 10.552 8.12253 11.0269 7.83533 11.3252C7.548 11.6233 7.07309 11.632 6.77478 11.3447C6.31955 10.9064 5.86023 10.536 5.42029 10.2256C5.08186 9.98682 5.00084 9.5191 5.23962 9.18066ZM12.9388 4.73535C13.3513 4.69788 13.7157 5.00259 13.7533 5.41504C13.8021 5.95121 13.8932 6.53411 14.0453 7.14746C14.1449 7.54949 13.8995 7.95604 13.4974 8.05566C13.0954 8.1552 12.6889 7.90983 12.5892 7.50781C12.4174 6.8143 12.3152 6.15586 12.2601 5.55078C12.2225 5.13827 12.5263 4.77292 12.9388 4.73535Z" fill="#1C274C"/>
</svg>
