<svg width="24" height="24" viewBox="0 0 24 24" fill="none" xmlns="http://www.w3.org/2000/svg">
<path d="M12 1.25C17.9371 1.25 22.75 6.06294 22.75 12C22.75 17.9371 17.9371 22.75 12 22.75C6.06294 22.75 1.25 17.9371 1.25 12C1.25 6.06294 6.06294 1.25 12 1.25ZM12 2.75C6.89137 2.75 2.75 6.89137 2.75 12C2.75 17.1086 6.89137 21.25 12 21.25C17.1086 21.25 21.25 17.1086 21.25 12C21.25 6.89137 17.1086 2.75 12 2.75ZM14.4824 7.51953C15.6407 6.69219 17.25 7.51996 17.25 8.94336V15.0566C17.25 16.48 15.6407 17.3079 14.4824 16.4805L10.2031 13.4238C9.22628 12.7259 9.22628 11.2741 10.2031 10.5762L14.4824 7.51953ZM10.5645 7.46094C10.9014 7.22046 11.3696 7.29879 11.6104 7.63574C11.851 7.97279 11.7726 8.44092 11.4355 8.68164L8.21484 10.9824C7.51691 11.481 7.51691 12.519 8.21484 13.0176L11.4355 15.3184C11.7726 15.559 11.851 16.0272 11.6104 16.3643C11.3696 16.7013 10.9014 16.7795 10.5645 16.5391L7.34277 14.2383C5.80733 13.1415 5.80737 10.8595 7.34277 9.7627L10.5645 7.46094ZM15.75 8.94336C15.75 8.74002 15.52 8.62204 15.3545 8.74023L11.0752 11.7969C10.9358 11.8966 10.9358 12.1034 11.0752 12.2031L15.3545 15.2598C15.52 15.378 15.75 15.26 15.75 15.0566V8.94336Z" fill="#1C274C"/>
</svg>
