<svg width="24" height="24" viewBox="0 0 24 24" fill="none" xmlns="http://www.w3.org/2000/svg">
<path d="M3.45984 3.45996C6.40667 0.513121 11.1847 0.513414 14.1317 3.45996L20.5399 9.86816C23.4866 12.8152 23.4868 17.5931 20.5399 20.54C17.593 23.4869 12.8151 23.4867 9.86804 20.54L3.45984 14.1318C0.513292 11.1848 0.512999 6.40679 3.45984 3.45996ZM17.1405 8.58984C17.0524 8.80861 16.946 9.05127 16.8192 9.31445C16.2593 10.4761 15.2942 12.0318 13.663 13.6631C12.0318 15.2942 10.4759 16.2596 9.31433 16.8193C9.05127 16.9461 8.8084 17.0525 8.58972 17.1406L10.9286 19.4795C13.2898 21.8405 17.1182 21.8406 19.4794 19.4795C21.8405 17.1184 21.8403 13.2899 19.4794 10.9287L17.1405 8.58984ZM13.0712 4.52148C10.71 2.16028 6.88256 2.16028 4.52136 4.52148C2.16016 6.88268 2.16016 10.7101 4.52136 13.0713L7.41785 15.9688C7.42919 15.9653 7.44118 15.9618 7.453 15.958C7.73418 15.8682 8.15049 15.7157 8.66296 15.4688C9.68707 14.9752 11.1001 14.1038 12.6014 12.6025C14.1027 11.1012 14.9741 9.6874 15.4677 8.66309C15.7148 8.1505 15.868 7.73438 15.9579 7.45312C15.9616 7.44129 15.9651 7.42932 15.9686 7.41797L13.0712 4.52148Z" fill="#1C274C"/>
</svg>
