<svg width="24" height="24" viewBox="0 0 24 24" fill="none" xmlns="http://www.w3.org/2000/svg">
<path d="M3.45996 3.45996C6.40679 0.513121 11.1848 0.513414 14.1318 3.45996L20.54 9.86816C23.4867 12.8152 23.4869 17.5931 20.54 20.54C17.5931 23.4869 12.8152 23.4867 9.86816 20.54L3.45996 14.1318C0.513414 11.1848 0.513121 6.40679 3.45996 3.45996ZM17.1406 8.58984C17.0525 8.80861 16.9461 9.05127 16.8193 9.31445C16.2595 10.4761 15.2943 12.0318 13.6631 13.6631C12.0319 15.2942 10.476 16.2596 9.31445 16.8193C9.05139 16.9461 8.80852 17.0525 8.58984 17.1406L10.9287 19.4795C13.2899 21.8405 17.1184 21.8406 19.4795 19.4795C21.8406 17.1184 21.8405 13.2899 19.4795 10.9287L17.1406 8.58984ZM13.0713 4.52148C10.7101 2.16028 6.88268 2.16028 4.52148 4.52148C2.16028 6.88268 2.16028 10.7101 4.52148 13.0713L7.41797 15.9688C7.42931 15.9653 7.44131 15.9618 7.45312 15.958C7.7343 15.8682 8.15061 15.7157 8.66309 15.4688C9.68719 14.9752 11.1003 14.1038 12.6016 12.6025C14.1029 11.1012 14.9742 9.68741 15.4678 8.66309C15.7149 8.1505 15.8681 7.73438 15.958 7.45312C15.9618 7.44129 15.9652 7.42932 15.9688 7.41797L13.0713 4.52148Z" fill="#48465C"/>
</svg>
