<svg width="24" height="24" viewBox="0 0 24 24" fill="none" xmlns="http://www.w3.org/2000/svg">
<path d="M12.0576 1.25C14.3657 1.24999 16.1745 1.24974 17.5859 1.43945C19.0306 1.63369 20.1706 2.03977 21.0654 2.93457C21.9602 3.82938 22.3662 4.96932 22.5605 6.41406C22.7502 7.82544 22.75 9.63432 22.75 11.9424V12.0576C22.75 14.3657 22.7502 16.1745 22.5605 17.5859C22.3662 19.0306 21.9602 20.1706 21.0654 21.0654C20.1706 21.9602 19.0306 22.3662 17.5859 22.5605C16.1745 22.7502 14.3657 22.75 12.0576 22.75H11.9424C9.63432 22.75 7.82544 22.7502 6.41406 22.5605C4.96932 22.3662 3.82938 21.9602 2.93457 21.0654C2.03977 20.1706 1.63369 19.0306 1.43945 17.5859C1.24974 16.1745 1.24999 14.3657 1.25 12.0576V11.9424C1.24999 9.63433 1.24974 7.82544 1.43945 6.41406C1.63369 4.96932 2.03976 3.82938 2.93457 2.93457C3.82938 2.03976 4.96932 1.63369 6.41406 1.43945C7.82544 1.24974 9.63433 1.24999 11.9424 1.25H12.0576ZM12 2.75C9.62178 2.75 7.91326 2.75198 6.61328 2.92676C5.33508 3.09865 4.56472 3.42551 3.99512 3.99512C3.42551 4.56472 3.09865 5.33508 2.92676 6.61328C2.75198 7.91326 2.75 9.62178 2.75 12C2.75 14.3782 2.75198 16.0867 2.92676 17.3867C3.09865 18.6649 3.42551 19.4352 3.99512 20.0049C4.56472 20.5745 5.33508 20.9014 6.61328 21.0732C7.91326 21.248 9.62178 21.25 12 21.25C14.3782 21.25 16.0867 21.248 17.3867 21.0732C18.6649 20.9014 19.4352 20.5745 20.0049 20.0049C20.5745 19.4352 20.9014 18.6649 21.0732 17.3867C21.248 16.0867 21.25 14.3782 21.25 12C21.25 9.62178 21.248 7.91326 21.0732 6.61328C20.9014 5.33508 20.5745 4.56472 20.0049 3.99512C19.4352 3.42551 18.6649 3.09865 17.3867 2.92676C16.0867 2.75198 14.3782 2.75 12 2.75ZM13.4648 7.73145C14.1546 7.5486 14.9006 7.46007 15.5215 7.88184C15.7561 8.04126 15.9587 8.24391 16.1182 8.47852C16.5399 9.09941 16.4514 9.84541 16.2686 10.5352C16.0819 11.2394 15.7212 12.1398 15.2764 13.252L15.2568 13.3027C15.2455 13.3309 15.2338 13.359 15.2227 13.3867C15.0596 13.7961 14.9157 14.1588 14.6592 14.4512C14.5945 14.525 14.525 14.5945 14.4512 14.6592C14.1588 14.9157 13.7961 15.0596 13.3867 15.2227C13.359 15.2338 13.3309 15.2455 13.3027 15.2568L13.252 15.2764C12.1398 15.7212 11.2394 16.0819 10.5352 16.2686C9.8454 16.4514 9.09941 16.5399 8.47852 16.1182C8.24391 15.9587 8.04127 15.7561 7.88184 15.5215C7.46007 14.9006 7.5486 14.1546 7.73145 13.4648C7.91813 12.7606 8.27877 11.8602 8.72363 10.748L8.74316 10.6973C8.75443 10.6691 8.76629 10.641 8.77734 10.6133C8.94043 10.2039 9.08433 9.84131 9.34082 9.54883C9.40553 9.47504 9.47504 9.40553 9.54883 9.34082C9.84131 9.08433 10.2039 8.94043 10.6133 8.77734C10.641 8.76629 10.6691 8.75443 10.6973 8.74316L10.748 8.72363C11.8602 8.27878 12.7606 7.91814 13.4648 7.73145ZM14.6787 9.12207C14.6397 9.09564 14.4775 9.01492 13.8486 9.18164C13.2438 9.34205 12.4287 9.66625 11.2549 10.1357C10.7134 10.3523 10.6123 10.4038 10.5381 10.4688C10.5135 10.4902 10.4902 10.5135 10.4688 10.5381C10.4038 10.6123 10.3523 10.7134 10.1357 11.2549C9.66625 12.4287 9.34206 13.2438 9.18164 13.8486C9.01493 14.4775 9.09564 14.6397 9.12207 14.6787C9.17521 14.7569 9.24308 14.8248 9.32129 14.8779C9.36031 14.9044 9.52252 14.9851 10.1514 14.8184C10.7562 14.6579 11.5713 14.3337 12.7451 13.8643C13.2866 13.6477 13.3877 13.5962 13.4619 13.5312C13.4865 13.5098 13.5098 13.4865 13.5312 13.4619C13.5962 13.3877 13.6477 13.2866 13.8643 12.7451C14.3337 11.5713 14.6579 10.7562 14.8184 10.1514C14.9851 9.52252 14.9044 9.36031 14.8779 9.32129C14.8248 9.24309 14.7569 9.17521 14.6787 9.12207Z" fill="#1C274C"/>
</svg>
