<svg width="24" height="24" viewBox="0 0 24 24" fill="none" xmlns="http://www.w3.org/2000/svg">
<path d="M12 2C17.5228 2 22 6.47715 22 12C22 17.5228 17.5228 22 12 22C6.47715 22 2 17.5228 2 12C2 6.47715 6.47715 2 12 2ZM12 15.25C10.7151 15.25 9.52608 15.6768 8.55371 16.3975C8.22101 16.644 8.15099 17.1135 8.39746 17.4463C8.64407 17.779 9.11354 17.849 9.44629 17.6025C10.1747 17.0627 11.0541 16.75 12 16.75C12.9459 16.75 13.8253 17.0627 14.5537 17.6025C14.8865 17.849 15.356 17.779 15.6025 17.4463C15.849 17.1135 15.779 16.644 15.4463 16.3975C14.4739 15.6768 13.2849 15.25 12 15.25ZM9 9C8.44772 9 8 9.67157 8 10.5C8 11.3284 8.44772 12 9 12C9.55228 12 10 11.3284 10 10.5C10 9.67157 9.55228 9 9 9ZM15 9C14.4477 9 14 9.67157 14 10.5C14 11.3284 14.4477 12 15 12C15.5523 12 16 11.3284 16 10.5C16 9.67157 15.5523 9 15 9Z" fill="#48465C"/>
</svg>
