<svg width="24" height="24" viewBox="0 0 24 24" fill="none" xmlns="http://www.w3.org/2000/svg">
<path d="M11.9998 1.25C14.0709 1.25 15.7498 2.92893 15.7498 5V6.01465C17.037 6.05328 17.8252 6.19234 18.4265 6.69141C19.2596 7.3829 19.4788 8.55377 19.9177 10.8945L20.6677 14.8945C21.2849 18.186 21.5937 19.8319 20.6941 20.916C19.7944 22.0001 18.1194 22 14.7703 22H9.22925C5.88055 22 4.20609 22 3.3064 20.916C2.40669 19.8319 2.71559 18.1861 3.33276 14.8945L4.08276 10.8945C4.52167 8.55362 4.74079 7.38289 5.57397 6.69141C6.17525 6.19241 6.96281 6.05331 8.24976 6.01465V5C8.24976 2.92905 9.92884 1.25019 11.9998 1.25ZM15.4685 10.9141C15.1452 10.6556 14.6736 10.7082 14.4148 11.0312L10.9373 15.377L9.53003 13.9697C9.23712 13.677 8.76232 13.6769 8.46948 13.9697C8.17681 14.2626 8.17684 14.7374 8.46948 15.0303L10.4695 17.0303C10.6203 17.1811 10.8287 17.2608 11.0417 17.249C11.2546 17.2372 11.4525 17.1352 11.5857 16.9688L15.5857 11.9688C15.8445 11.6454 15.792 11.1728 15.4685 10.9141ZM11.9998 2.75C10.7573 2.75019 9.74976 3.75748 9.74976 5V6H14.2498V5C14.2498 3.75736 13.2424 2.75 11.9998 2.75Z" fill="#48465C"/>
</svg>
