<svg width="24" height="24" viewBox="0 0 24 24" fill="none" xmlns="http://www.w3.org/2000/svg">
<path d="M15.6152 1.25C16.2688 1.25 16.8098 1.52326 17.3232 1.91504C17.8103 2.28662 18.3517 2.82817 19.002 3.47852L20.5215 4.99805C21.1718 5.64837 21.7134 6.18974 22.085 6.67676C22.4766 7.19012 22.7499 7.73051 22.75 8.38379C22.75 9.03728 22.4767 9.57827 22.085 10.0918C21.7134 10.5788 21.1718 11.1202 20.5215 11.7705L11.7705 20.5215C11.1202 21.1718 10.5788 21.7134 10.0918 22.085C9.57827 22.4767 9.03728 22.75 8.38379 22.75C7.73051 22.7499 7.19012 22.4766 6.67676 22.085C6.18974 21.7134 5.64837 21.1718 4.99805 20.5215L3.47852 19.002C2.82817 18.3517 2.28662 17.8103 1.91504 17.3232C1.52326 16.8098 1.25 16.2688 1.25 15.6152C1.25013 14.962 1.52337 14.4217 1.91504 13.9082C2.28663 13.4212 2.82815 12.8798 3.47852 12.2295L12.2295 3.47852C12.8798 2.82815 13.4212 2.28662 13.9082 1.91504C14.4217 1.52337 14.962 1.25013 15.6152 1.25ZM15.6152 2.75C15.4217 2.75011 15.198 2.81786 14.8184 3.10742C14.5098 3.34289 14.1571 3.67831 13.6885 4.14258L14.6514 5.10547C14.9442 5.39834 14.9442 5.87312 14.6514 6.16602C14.3586 6.45891 13.8837 6.45891 13.5908 6.16602L12.627 5.20215L11.5664 6.2627L13.2373 7.93457C13.53 8.22747 13.5301 8.70227 13.2373 8.99512C12.9444 9.28775 12.4696 9.2878 12.1768 8.99512L10.5059 7.32324L9.44531 8.38379L10.4092 9.34863C10.7018 9.64154 10.702 10.1164 10.4092 10.4092C10.1164 10.702 9.64154 10.7018 9.34863 10.4092L8.38379 9.44531L7.32324 10.5059L8.99512 12.1768C9.2878 12.4696 9.28775 12.9444 8.99512 13.2373C8.70227 13.5301 8.22747 13.53 7.93457 13.2373L6.2627 11.5664L5.20215 12.627L6.16602 13.5908C6.45891 13.8837 6.45891 14.3586 6.16602 14.6514C5.87312 14.9442 5.39834 14.9442 5.10547 14.6514L4.14258 13.6885C3.67831 14.1571 3.34289 14.5098 3.10742 14.8184C2.81786 15.198 2.75011 15.4217 2.75 15.6152C2.75 15.8089 2.81766 16.0332 3.10742 16.4131C3.41062 16.8105 3.87939 17.2807 4.57617 17.9775L6.02246 19.4238C6.71924 20.1206 7.18952 20.5894 7.58691 20.8926C7.9665 21.1821 8.19026 21.2499 8.38379 21.25C8.57743 21.25 8.80174 21.1824 9.18164 20.8926C9.57904 20.5894 10.0493 20.1206 10.7461 19.4238L19.4238 10.7461C20.1206 10.0493 20.5894 9.57904 20.8926 9.18164C21.1824 8.80174 21.25 8.57743 21.25 8.38379C21.2499 8.19026 21.1821 7.9665 20.8926 7.58691C20.5894 7.18952 20.1206 6.71924 19.4238 6.02246L17.9775 4.57617C17.2807 3.87939 16.8105 3.41062 16.4131 3.10742C16.0332 2.81766 15.8089 2.75 15.6152 2.75Z" fill="#48465C"/>
</svg>
