<svg width="24" height="24" viewBox="0 0 24 24" fill="none" xmlns="http://www.w3.org/2000/svg">
<path d="M15.3262 3C16.7407 3 17.7273 3.00178 18.4717 3.10059C19.1949 3.19658 19.5779 3.37232 19.8506 3.6416C20.1232 3.91087 20.3013 4.28919 20.3984 5.00293C20.4985 5.73781 20.5 6.71206 20.5 8.1084V15.8916C20.5 17.2879 20.4985 18.2622 20.3984 18.9971C20.3013 19.7108 20.1232 20.0891 19.8506 20.3584C19.5779 20.6277 19.1949 20.8035 18.4717 20.8994C17.7273 20.9983 16.7407 21 15.3262 21H14.3408C12.9263 21 11.9397 20.9983 11.1953 20.8994C10.4721 20.8035 10.0891 20.6277 9.81641 20.3584C9.57656 20.1215 9.41118 19.8024 9.30859 19.251C9.20215 18.6787 9.17494 17.9241 9.16895 16.8604C9.16643 16.4576 8.83284 16.1326 8.4248 16.1348C8.01683 16.1373 7.68816 16.4663 7.69043 16.8691C7.69577 17.8169 7.71677 18.6225 7.81836 19.2969C5.89581 19.2914 4.87725 19.2321 4.22168 18.585C3.50009 17.8725 3.5 16.7259 3.5 14.4326V9.56738C3.5 7.27419 3.50009 6.12746 4.22168 5.41504C4.87725 4.76787 5.89583 4.70855 7.81836 4.70312C7.71677 5.3774 7.69577 6.1831 7.69043 7.13086C7.68816 7.53372 8.01683 7.86274 8.4248 7.86523C8.83284 7.86748 9.16643 7.54245 9.16895 7.13965C9.17494 6.07589 9.20215 5.32134 9.30859 4.74902C9.41118 4.19763 9.57656 3.87846 9.81641 3.6416C10.0891 3.37232 10.4721 3.19658 11.1953 3.10059C11.9397 3.0018 12.9263 3 14.3408 3H15.3262ZM8.9502 9.53809C8.66162 9.25317 8.19393 9.25331 7.90527 9.53809L5.93359 11.4844C5.64537 11.7693 5.64537 12.2307 5.93359 12.5156L7.90527 14.4619C8.19393 14.7467 8.66163 14.7468 8.9502 14.4619C9.23881 14.177 9.23883 13.7147 8.9502 13.4297L8.24121 12.7295H15.3262C15.7342 12.7293 16.0654 12.4029 16.0654 12C16.0654 11.5971 15.7342 11.2707 15.3262 11.2705H8.24121L8.9502 10.5703C9.23883 10.2853 9.23879 9.82307 8.9502 9.53809Z" fill="#1C274C"/>
</svg>
