<svg width="24" height="24" viewBox="0 0 24 24" fill="none" xmlns="http://www.w3.org/2000/svg">
<path d="M15.6985 3.7533C16.6294 3.29866 17.6654 3.04398 18.5286 3.4613C18.9886 3.68379 19.3067 4.05679 19.4993 4.50037C19.6742 4.90322 19.7461 5.36138 19.7502 5.83533C19.7537 6.23386 19.7093 6.66473 19.6252 7.11755C19.4982 7.80217 19.278 8.54665 18.9817 9.32263C18.9507 9.40386 18.9069 9.47658 18.8538 9.53943C19.039 9.60196 19.2197 9.6668 19.3958 9.73279H19.3977C19.4443 9.75029 19.4954 9.7698 19.5413 9.78748C19.6746 9.83894 19.8053 9.89133 19.9329 9.9447C20.2587 10.0811 20.5653 10.2236 20.8499 10.3715C21.1424 10.5234 21.4153 10.6834 21.6653 10.85C22.5274 11.4244 23.2698 12.1902 23.345 13.1459C23.385 13.6554 23.2236 14.1181 22.9377 14.5082C22.678 14.8625 22.3187 15.1561 21.9114 15.3988C21.569 15.6028 21.1748 15.782 20.7415 15.9379C20.0862 16.1734 19.3324 16.3589 18.5129 16.4945C18.1043 16.562 17.7182 16.285 17.6506 15.8763C17.5831 15.4679 17.8594 15.0818 18.2678 15.014C18.8295 14.9211 19.3336 14.8068 19.7747 14.6761L19.7805 14.6742C20.3463 14.5062 20.8021 14.3134 21.1438 14.1097C21.438 13.9345 21.6232 13.7655 21.7288 13.6215C21.8336 13.4782 21.8577 13.3651 21.8499 13.264C21.8314 13.0281 21.6032 12.6104 20.8342 12.098C20.6356 11.9656 20.4098 11.8331 20.1584 11.7025L18.8625 11.1342C17.1097 10.4781 14.7616 9.97564 12.177 9.79529C11.8563 9.77291 11.5398 9.75606 11.2288 9.74451C10.8124 10.2708 10.4006 10.8297 10.0012 11.4154C9.25764 12.5062 8.63288 13.5783 8.13599 14.5844C8.4506 14.7635 8.59745 15.1497 8.46606 15.4994C8.32334 15.8789 7.90587 16.0752 7.52466 15.9467C7.29848 16.5093 7.11984 17.0401 6.99146 17.5287C6.97795 17.58 6.9647 17.631 6.95239 17.681L6.95044 17.6898C6.75488 18.4887 6.71187 19.1153 6.78052 19.5521C6.80716 19.7216 6.8468 19.8474 6.89282 19.9408C6.96302 20.083 7.04792 20.151 7.12036 20.1869L7.12427 20.1888C7.16753 20.2097 7.22132 20.2277 7.28833 20.2386C7.41088 20.2587 7.5789 20.256 7.80005 20.2084C8.19981 20.1223 8.70684 19.903 9.30103 19.5306C9.43828 19.4446 9.57917 19.351 9.7229 19.2504C9.96244 19.0825 10.2098 18.8952 10.4631 18.6888L11.6389 17.7338C11.702 17.6825 11.772 17.6462 11.844 17.6185L11.6917 17.5658C10.8402 17.2649 10.414 17.1141 10.3381 16.7777C10.2621 16.4413 10.5865 16.1416 11.2346 15.5424L11.4026 15.3871C11.5864 15.2172 11.679 15.1324 11.7268 15.0189C11.7745 14.9053 11.7717 14.7755 11.7678 14.517L11.7649 14.2816C11.7511 13.3712 11.7445 12.9161 12.0315 12.7504C12.3185 12.5847 12.7091 12.8176 13.4905 13.2845L13.6926 13.4056C13.9147 13.5383 14.0264 13.605 14.1487 13.6205C14.2709 13.6358 14.3909 13.5981 14.6301 13.5238L14.8479 13.4564C15.6908 13.1946 16.1122 13.0642 16.3655 13.2982C16.6187 13.5322 16.5364 13.976 16.3713 14.8636L16.3284 15.0931C16.2815 15.3454 16.2586 15.4718 16.2864 15.5951C16.3143 15.7182 16.3904 15.825 16.5422 16.0375L16.6799 16.2308C17.2146 16.9794 17.4822 17.3541 17.3518 17.6644C17.2212 17.9745 16.779 18.0155 15.8958 18.097L15.6672 18.1176C15.4164 18.1407 15.2909 18.1527 15.1858 18.2133C15.0807 18.274 15.0072 18.3775 14.8616 18.5834L14.7297 18.7699C14.2172 19.4943 13.9601 19.8571 13.6262 19.8148C13.3105 19.7746 13.1234 19.3973 12.7815 18.6478C12.7352 18.7415 12.6706 18.8277 12.5842 18.8978L11.4104 19.8519C11.1317 20.0788 10.8553 20.2894 10.5833 20.4799C10.4202 20.5941 10.2582 20.7017 10.0979 20.8021C9.42045 21.2267 8.74749 21.5391 8.11646 21.6752C7.7601 21.7519 7.39664 21.7767 7.04517 21.7191C6.84833 21.6868 6.65555 21.6282 6.47192 21.5394L6.45532 21.5316C5.72584 21.1705 5.39024 20.4579 5.28833 19.7103C5.18741 18.9695 5.29321 18.087 5.54028 17.1469C5.6808 16.6123 5.87159 16.0424 6.10864 15.4467L5.60181 15.2679C5.2655 15.1418 4.9453 15.0091 4.6438 14.8705C4.46288 14.7873 4.28793 14.7014 4.12036 14.6136C3.41206 14.2428 2.8022 13.8194 2.36646 13.3431C2.12044 13.0742 1.91585 12.7733 1.78833 12.4408C1.71691 12.2545 1.67054 12.0582 1.65454 11.8549L1.65259 11.8363C1.59643 11.0243 2.04186 10.3747 2.63599 9.90955C3.22472 9.44871 4.04045 9.09622 4.97681 8.83533C6.4643 8.42091 8.38682 8.20348 10.5286 8.22791C11.5418 7.01325 12.5872 5.96479 13.5881 5.14978L13.5901 5.1488C13.6287 5.11746 13.6709 5.08271 13.7092 5.05212C13.8209 4.96291 13.9328 4.87652 14.0432 4.79333C14.3254 4.58075 14.6031 4.38831 14.8743 4.21716C15.1532 4.04118 15.4286 3.88512 15.6985 3.7533ZM9.34888 9.73962C7.80072 9.7915 6.44324 9.98452 5.38013 10.2806C5.32896 10.2949 5.2782 10.309 5.22876 10.3236L5.21899 10.3265C4.43096 10.5605 3.86913 10.8391 3.52661 11.1185C3.39376 11.227 3.30483 11.3247 3.24731 11.4115C3.18161 11.511 3.15596 11.5968 3.14966 11.6674V11.7377C3.15346 11.7855 3.16547 11.8405 3.1897 11.9037C3.2342 12.0195 3.32124 12.1636 3.47388 12.3304C3.7499 12.6322 4.19466 12.9595 4.81567 13.2845C4.95903 13.3596 5.11051 13.434 5.26978 13.5072C5.53557 13.6295 5.82318 13.7489 6.12915 13.8636L6.71704 14.0707C7.26282 12.9454 7.95081 11.7606 8.76196 10.5707C8.95437 10.2884 9.1507 10.0108 9.34888 9.73962ZM17.8752 4.81189C17.6621 4.70889 17.1868 4.69559 16.3567 5.10095C16.1422 5.20569 15.9145 5.33455 15.675 5.48572L14.5295 6.31775C13.8599 6.86361 13.1543 7.53512 12.4456 8.31091C14.2715 8.44801 16.0102 8.74049 17.5364 9.1449C17.5222 9.02785 17.5353 8.90529 17.5803 8.78748C17.7834 8.25553 17.9385 7.76261 18.0481 7.3158L18.05 7.31091C18.1904 6.73756 18.2536 6.2468 18.2502 5.849C18.2472 5.50662 18.1943 5.2619 18.1233 5.09802C18.0524 4.93467 17.9667 4.85613 17.8752 4.81189Z" fill="#48465C"/>
</svg>
