<svg width="24" height="24" viewBox="0 0 24 24" fill="none" xmlns="http://www.w3.org/2000/svg">
<path d="M14.827 7.28809C16.1898 7.28807 17.2833 7.28754 18.1317 7.4082C19.0094 7.53304 19.7404 7.80095 20.284 8.42871C20.8274 9.05639 20.9934 9.8245 20.9998 10.7207C21.006 11.587 20.8616 12.6836 20.6815 14.0498L20.3162 16.8213C20.1755 17.8892 20.0607 18.7537 19.8836 19.4307C19.6992 20.1353 19.4267 20.7196 18.9158 21.1719C18.4049 21.6242 17.7967 21.8203 17.0818 21.9121C16.3949 22.0002 15.5321 22 14.4666 22H9.53302C8.46779 22 7.60557 22.0002 6.91876 21.9121C6.20372 21.8203 5.59474 21.6243 5.0838 21.1719C4.57299 20.7196 4.30044 20.1352 4.11603 19.4307C3.93891 18.7537 3.82516 17.8891 3.68439 16.8213L3.31915 14.0498C3.139 12.6836 2.99367 11.587 2.99982 10.7207C3.00623 9.82458 3.17234 9.05636 3.71564 8.42871C4.25907 7.80102 4.99039 7.53307 5.86798 7.4082C6.71639 7.28753 7.8107 7.28807 9.17365 7.28809H14.827ZM9.2254 8.625C7.7984 8.625 6.79806 8.62638 6.05255 8.73242C5.32564 8.8358 4.95761 9.02443 4.71075 9.30957C4.46396 9.59467 4.32836 9.98837 4.32306 10.7305C4.31766 11.4917 4.44796 12.4946 4.63654 13.9248L4.68634 14.3047L5.05841 14.0322C6.01727 13.33 7.43368 13.3648 8.34552 14.1279L11.7303 16.9609C12.0501 17.2284 12.6012 17.2779 12.9988 17.0439L13.2342 16.9062C14.3595 16.2443 15.8678 16.3134 16.9061 17.0957L18.7381 18.4756C18.8283 17.9802 18.9089 17.3711 19.0106 16.6006L19.3631 13.9248C19.5517 12.4946 19.683 11.4917 19.6776 10.7305C19.6722 9.9883 19.5357 9.59468 19.2889 9.30957C19.0421 9.02448 18.6739 8.83579 17.9471 8.73242C17.2017 8.62644 16.2018 8.625 14.7752 8.625H9.2254ZM15.9676 10.6309C16.6981 10.6309 17.2908 11.2301 17.2908 11.9688C17.2907 12.7072 16.698 13.3057 15.9676 13.3057C15.2373 13.3055 14.6455 12.7071 14.6453 11.9688C14.6453 11.2302 15.2372 10.631 15.9676 10.6309ZM17.2752 4.5C18.5268 4.5 19.5528 5.34007 19.8953 6.4541C19.9024 6.47712 19.9094 6.50019 19.9158 6.52344C19.5577 6.40296 19.1849 6.32426 18.8074 6.27051C17.8351 6.13201 16.6059 6.13272 15.1785 6.13281H8.97638C7.54898 6.13272 6.31979 6.13202 5.34747 6.27051C4.97012 6.32426 4.59727 6.40296 4.23907 6.52344C4.24557 6.50019 4.25251 6.47712 4.25958 6.4541C4.60206 5.34007 5.62813 4.5 6.8797 4.5H17.2752ZM15.1414 2C15.3504 1.99994 15.5111 2.00039 15.6512 2.01562C16.6481 2.12412 17.4643 2.7895 17.8104 3.68652H6.19025C6.53639 2.78951 7.35252 2.12397 8.34943 2.01562C8.48957 2.00042 8.65014 1.99994 8.85919 2H15.1414Z" fill="#1C274C"/>
</svg>
