<svg width="24" height="24" viewBox="0 0 24 24" fill="none" xmlns="http://www.w3.org/2000/svg">
<path d="M19.6997 14.3125C20.0792 14.1467 20.521 14.3198 20.687 14.6992C20.8528 15.0787 20.6797 15.5205 20.3003 15.6865L4.30029 22.6865C3.92086 22.8524 3.47898 22.6791 3.31299 22.2998C3.14715 21.9204 3.32031 21.4785 3.69971 21.3125L19.6997 14.3125ZM13.813 19.293C13.979 18.9135 14.4208 18.7403 14.8003 18.9062L20.3003 21.3125C20.6797 21.4785 20.8528 21.9204 20.687 22.2998C20.521 22.6791 20.0792 22.8524 19.6997 22.6865L14.1997 20.2803C13.8203 20.1143 13.6471 19.6724 13.813 19.293ZM3.31299 14.6992C3.47898 14.3198 3.92086 14.1467 4.30029 14.3125L9.30029 16.5C9.67969 16.666 9.85284 17.1079 9.68701 17.4873C9.52102 17.8666 9.07915 18.0399 8.69971 17.874L3.69971 15.6865C3.32031 15.5205 3.14715 15.0787 3.31299 14.6992ZM12.6685 1.50977C13.316 1.14067 14.1523 1.13991 14.8511 1.66406C16.6985 3.0498 18.7494 5.44452 18.7495 8.80664C18.7495 11.5385 17.5553 13.3125 16.0288 14.376C14.5417 15.412 12.7819 15.749 11.6001 15.749C10.5305 15.749 8.95661 15.4011 7.6333 14.3477C6.27703 13.2678 5.24951 11.4979 5.24951 8.80664C5.24963 6.38343 6.65535 4.82556 7.84326 4.0293C8.76427 3.41198 10.135 3.81347 10.3149 5.06934C10.3808 5.52917 10.6183 5.85726 10.7876 5.96777C10.807 5.98047 10.8221 5.9877 10.8325 5.99219C10.8517 5.97632 10.8846 5.94273 10.9272 5.87598C11.4097 5.11926 11.603 4.03914 11.603 3.38867C11.603 2.56931 12.0351 1.87091 12.6685 1.50977ZM13.9507 2.86426C13.7516 2.71492 13.5636 2.72685 13.4116 2.81348C13.2457 2.90813 13.103 3.1089 13.103 3.38867C13.103 4.22364 12.8747 5.61184 12.1919 6.68262C11.9449 7.06993 11.5947 7.36994 11.144 7.4668C10.6968 7.56283 10.284 7.43035 9.96729 7.22363C9.35837 6.82612 8.94303 6.06709 8.83057 5.28223C8.82849 5.26771 8.82539 5.25874 8.82373 5.25488C8.8225 5.25208 8.8213 5.25069 8.8208 5.25C8.82061 5.24975 8.81831 5.24699 8.81104 5.24414C8.79778 5.23896 8.7491 5.22788 8.67822 5.27539C7.76115 5.89018 6.74963 7.03592 6.74951 8.80664C6.74951 11.0692 7.58999 12.3959 8.56689 13.1738C9.57687 13.9779 10.8031 14.249 11.6001 14.249C12.5516 14.249 13.9919 13.9672 15.1714 13.1455C16.3114 12.3513 17.2495 11.0286 17.2495 8.80664C17.2494 6.1062 15.6035 4.10402 13.9507 2.86426ZM14.2817 9.78418C14.4008 9.38747 14.8187 9.16231 15.2153 9.28125C15.6121 9.40025 15.8371 9.8181 15.7183 10.2148C15.4494 11.1111 14.3339 12.749 11.9995 12.749C11.5855 12.7488 11.2495 12.4132 11.2495 11.999C11.2498 11.5852 11.5857 11.2493 11.9995 11.249C13.505 11.249 14.1506 10.2212 14.2817 9.78418Z" fill="#48465C"/>
</svg>
