<svg width="24" height="24" viewBox="0 0 24 24" fill="none" xmlns="http://www.w3.org/2000/svg">
<path d="M19.6997 14.313C20.0791 14.1472 20.521 14.3203 20.687 14.6998C20.8528 15.0792 20.6797 15.521 20.3002 15.6871L4.30025 22.6871C3.92082 22.8529 3.47893 22.6797 3.31294 22.3003C3.14711 21.9209 3.32027 21.479 3.69966 21.313L19.6997 14.313ZM13.8129 19.2935C13.9789 18.9141 14.4208 18.7409 14.8002 18.9068L20.3002 21.313C20.6797 21.479 20.8528 21.9209 20.687 22.3003C20.521 22.6797 20.0791 22.8529 19.6997 22.6871L14.1997 20.2808C13.8202 20.1148 13.6471 19.673 13.8129 19.2935ZM3.31294 14.6998C3.47893 14.3203 3.92082 14.1472 4.30025 14.313L9.30025 16.5005C9.67965 16.6665 9.8528 17.1084 9.68697 17.4878C9.52098 17.8672 9.0791 18.0404 8.69966 17.8746L3.69966 15.6871C3.32027 15.521 3.1471 15.0792 3.31294 14.6998ZM12.6684 1.51031C13.3159 1.14121 14.1522 1.14045 14.851 1.6646C16.6985 3.05034 18.7493 5.44506 18.7495 8.80718C18.7495 11.539 17.5552 13.313 16.0288 14.3765C14.5416 15.4126 12.7819 15.7495 11.6001 15.7496C10.5304 15.7496 8.95657 15.4017 7.63326 14.3482C6.27699 13.2683 5.24947 11.4984 5.24947 8.80718C5.24959 6.38397 6.65531 4.8261 7.84322 4.02984C8.76423 3.41252 10.1349 3.81401 10.3149 5.06988C10.3808 5.52971 10.6183 5.85781 10.7876 5.96832C10.807 5.98101 10.822 5.98824 10.8325 5.99273C10.8517 5.97686 10.8846 5.94327 10.9272 5.87652C11.4097 5.11981 11.6029 4.03968 11.603 3.38921C11.603 2.56985 12.035 1.87145 12.6684 1.51031ZM13.9506 2.8648C13.7516 2.71546 13.5636 2.7274 13.4116 2.81402C13.2456 2.90868 13.103 3.10944 13.103 3.38921C13.1029 4.22419 12.8747 5.61238 12.1919 6.68316C11.9449 7.07047 11.5947 7.37048 11.144 7.46734C10.6968 7.56338 10.2839 7.43089 9.96724 7.22417C9.35833 6.82666 8.94299 6.06764 8.83052 5.28277C8.82844 5.26825 8.82535 5.25928 8.82369 5.25542C8.82246 5.25262 8.82125 5.25123 8.82076 5.25054C8.82057 5.25029 8.81826 5.24754 8.81099 5.24468C8.79773 5.2395 8.74906 5.22842 8.67818 5.27593C7.7611 5.89072 6.74959 7.03646 6.74947 8.80718C6.74947 11.0697 7.58995 12.3964 8.56685 13.1744C9.57683 13.9785 10.8031 14.2496 11.6001 14.2496C12.5516 14.2495 13.9919 13.9677 15.1713 13.146C16.3114 12.3518 17.2495 11.0291 17.2495 8.80718C17.2493 6.10674 15.6035 4.10456 13.9506 2.8648ZM14.2817 9.78472C14.4008 9.38801 14.8186 9.16285 15.2153 9.28179C15.612 9.40079 15.8371 9.81865 15.7182 10.2154C15.4493 11.1117 14.3339 12.7496 11.9995 12.7496C11.5855 12.7493 11.2495 12.4137 11.2495 11.9996C11.2497 11.5857 11.5856 11.2498 11.9995 11.2496C13.5049 11.2496 14.1505 10.2218 14.2817 9.78472Z" fill="#1C274C"/>
</svg>
