<svg width="24" height="24" viewBox="0 0 24 24" fill="none" xmlns="http://www.w3.org/2000/svg">
<path d="M14.0566 3.25C15.8943 3.24998 17.3501 3.25016 18.4893 3.40332C19.6615 3.56095 20.6101 3.89332 21.3584 4.6416C22.1066 5.38992 22.439 6.33844 22.5967 7.51074C22.7498 8.64989 22.75 10.1058 22.75 11.9434V12.0566C22.75 13.8943 22.7498 15.3501 22.5967 16.4893C22.439 17.6615 22.1066 18.6101 21.3584 19.3584C20.6101 20.1066 19.6615 20.439 18.4893 20.5967C17.3501 20.7498 15.8943 20.75 14.0566 20.75H9.94336C8.1057 20.75 6.6499 20.7498 5.51074 20.5967C4.33844 20.439 3.38992 20.1066 2.6416 19.3584C1.89332 18.6101 1.56095 17.6615 1.40332 16.4893C1.25016 15.3501 1.24998 13.8943 1.25 12.0566V11.9434C1.24998 10.1057 1.25016 8.6499 1.40332 7.51074C1.56095 6.33844 1.8933 5.38992 2.6416 4.6416C3.38992 3.8933 4.33844 3.56095 5.51074 3.40332C6.64991 3.25016 8.10571 3.24998 9.94336 3.25H14.0566ZM10 4.75C8.09324 4.75 6.73859 4.75149 5.71094 4.88965C4.70485 5.02491 4.12536 5.27894 3.70215 5.70215C3.27894 6.12536 3.02491 6.70485 2.88965 7.71094C2.75149 8.73859 2.75 10.0933 2.75 12C2.75 13.9067 2.7515 15.2614 2.88965 16.2891C3.02491 17.2951 3.27894 17.8747 3.70215 18.2979C4.12536 18.7211 4.70485 18.9752 5.71094 19.1104C6.73858 19.2485 8.09325 19.25 10 19.25H14C15.9067 19.25 17.2614 19.2485 18.2891 19.1104C19.2951 18.9752 19.8747 18.7211 20.2979 18.2979C20.7211 17.8747 20.9752 17.2951 21.1104 16.2891C21.2485 15.2614 21.25 13.9067 21.25 12C21.25 10.0933 21.2485 8.73858 21.1104 7.71094C20.9752 6.70485 20.7211 6.12536 20.2979 5.70215C19.8747 5.27894 19.2951 5.02491 18.2891 4.88965C17.2614 4.7515 15.9067 4.75 14 4.75H10ZM10.1162 7.75C10.5157 7.74996 10.8826 7.7497 11.1826 7.78711C11.5111 7.82812 11.8611 7.92411 12.1621 8.19141C12.2135 8.23705 12.262 8.28653 12.3076 8.33789C12.5752 8.63899 12.6719 8.98883 12.7129 9.31738C12.7503 9.61735 12.7501 9.98427 12.75 10.3838V10.4248C12.75 10.839 12.4142 11.1748 12 11.1748C11.5858 11.1748 11.25 10.839 11.25 10.4248C11.25 9.97076 11.249 9.69967 11.2246 9.50391C11.2002 9.30808 10.9961 9.27539 10.9961 9.27539C10.8004 9.25102 10.5292 9.25 10.0752 9.25H9.75V14.75H11C11.4142 14.75 11.75 15.0858 11.75 15.5C11.75 15.9142 11.4142 16.25 11 16.25H7C6.58579 16.25 6.25 15.9142 6.25 15.5C6.25 15.0858 6.58579 14.75 7 14.75H8.25V9.25H7.9248C7.47075 9.25 7.19967 9.25102 7.00391 9.27539C7.00391 9.27539 6.79982 9.30808 6.77539 9.50391C6.75102 9.69967 6.75 9.97076 6.75 10.4248C6.75 10.839 6.41421 11.1748 6 11.1748C5.58579 11.1748 5.25 10.839 5.25 10.4248V10.3838C5.24996 9.98427 5.2497 9.61735 5.28711 9.31738C5.32812 8.98898 5.42413 8.63889 5.69141 8.33789C5.73707 8.28651 5.78651 8.23707 5.83789 8.19141C6.13889 7.92413 6.48898 7.82812 6.81738 7.78711C7.11734 7.7497 7.48427 7.74996 7.88379 7.75H10.1162Z" fill="#1C274C"/>
</svg>
