<svg width="24" height="24" viewBox="0 0 24 24" fill="none" xmlns="http://www.w3.org/2000/svg">
<path d="M11.0922 21H9.685C7.43523 21 6.31029 20.9996 5.49652 20.3643C5.10252 20.0567 4.83474 19.6423 4.60199 19.0488L7.43988 15.6436L11.0922 21ZM19.3979 19.0488C19.1653 19.6421 18.8981 20.0567 18.5043 20.3643C17.6905 20.9997 16.5648 21 14.3149 21H12.9077L16.56 15.6436L19.3979 19.0488ZM15.561 14.4453L12.0004 19.6689L8.4389 14.4453L12.0004 10.1719L15.561 14.4453ZM14.0004 2.25C14.6986 2.25017 15.3018 2.65938 15.5825 3.25098C16.2657 3.25596 16.7985 3.28688 17.2739 3.47266C17.842 3.69472 18.336 4.07277 18.6996 4.5625C19.0665 5.05658 19.2389 5.68987 19.476 6.56152L19.5131 6.69727L19.5151 6.7041L20.3881 10.0283L20.4008 10.0107C20.4431 10.0563 20.4831 10.1045 20.5219 10.1543C21.4227 11.308 20.994 13.0235 20.1362 16.4551C20.058 16.7677 19.9857 17.0584 19.9164 17.3281L17.4389 14.3545L19.269 11.6699L18.7641 9.74805L16.4399 13.1562L12.976 9H14.3149C16.2084 9 17.5956 8.99981 18.6137 9.17676L18.0649 7.08887C17.7747 6.02479 17.6714 5.69392 17.4955 5.45703C17.2997 5.19336 17.0338 4.9897 16.728 4.87012C16.5082 4.78421 16.2424 4.75864 15.5805 4.75195C15.2993 5.34182 14.6974 5.74983 14.0004 5.75H10.0004C9.30324 5.75 8.7007 5.34194 8.41937 4.75195C7.75759 4.75865 7.4917 4.78421 7.27191 4.87012C6.96607 4.98971 6.70013 5.1934 6.50433 5.45703C6.32849 5.69391 6.22512 6.02492 5.935 7.08887L5.38617 9.17676C6.40429 8.9998 7.79146 9 9.685 9H11.0239L7.56 13.1562L5.23578 9.74805L4.7309 11.6699L6.56097 14.3545L4.08344 17.3281C4.01409 17.0583 3.94187 16.7678 3.86371 16.4551C3.00582 13.0235 2.57726 11.308 3.47797 10.1543C3.51683 10.1045 3.55689 10.0564 3.59906 10.0107L3.61176 10.0283L4.4848 6.7041L4.48676 6.69727L4.52386 6.56152C4.76093 5.68987 4.9333 5.05658 5.30023 4.5625C5.66395 4.07275 6.15784 3.69471 6.72601 3.47266C7.20155 3.2868 7.73488 3.25595 8.4184 3.25098C8.69909 2.6593 9.30201 2.25 10.0004 2.25H14.0004Z" fill="#1C274C"/>
</svg>
