<svg width="24" height="24" viewBox="0 0 24 24" fill="none" xmlns="http://www.w3.org/2000/svg">
<path d="M15.7913 13.0732C16.224 11.9759 17.7765 11.9759 18.2092 13.0732L18.9778 15.0215L20.927 15.791C22.0243 16.2237 22.0243 17.7763 20.927 18.209L18.9778 18.9775L18.2092 20.9268C17.7765 22.024 16.224 22.024 15.7913 20.9268L15.0217 18.9775L13.0735 18.209C11.9762 17.7763 11.9762 16.2237 13.0735 15.791L15.0217 15.0215L15.7913 13.0732ZM16.386 15.6533C16.2538 15.9883 15.9885 16.2535 15.6536 16.3857L14.095 17L15.6536 17.6143C15.9885 17.7465 16.2538 18.0117 16.386 18.3467L17.0002 19.9043L17.6145 18.3467C17.7467 18.0117 18.0119 17.7465 18.3469 17.6143L19.9045 17L18.3469 16.3857C18.012 16.2536 17.7467 15.9883 17.6145 15.6533L17.0002 14.0947L16.386 15.6533ZM7.33618 3.38281C7.93181 1.87257 10.0687 1.87257 10.6643 3.38281L11.7366 6.10059C11.766 6.17509 11.8252 6.23429 11.8997 6.26367L14.6174 7.33594C16.1276 7.93164 16.1276 10.0685 14.6174 10.6641L11.8997 11.7363C11.8252 11.7657 11.766 11.8249 11.7366 11.8994L10.6643 14.6172C10.0687 16.1274 7.93189 16.1273 7.33618 14.6172L6.26392 11.8994C6.23454 11.8249 6.17533 11.7657 6.10083 11.7363L3.38306 10.6641C1.87282 10.0685 1.87282 7.93157 3.38306 7.33594L6.10083 6.26367C6.17533 6.23429 6.23454 6.17509 6.26392 6.10059L7.33618 3.38281ZM9.2688 3.93262C9.17244 3.68903 8.8281 3.6891 8.73169 3.93262L7.65942 6.65137C7.47757 7.11228 7.11252 7.47733 6.65161 7.65918L3.93286 8.73145C3.68933 8.82786 3.68928 9.1722 3.93286 9.26855L6.65161 10.3408C7.11255 10.5228 7.47762 10.8877 7.65942 11.3486L8.73169 14.0664C8.82793 14.3104 9.17256 14.3104 9.2688 14.0664L10.3411 11.3486C10.523 10.8877 10.8879 10.5227 11.3489 10.3408L14.0667 9.26855C14.3107 9.17231 14.3107 8.82769 14.0667 8.73145L11.3489 7.65918C10.888 7.47737 10.523 7.1123 10.3411 6.65137L9.2688 3.93262Z" fill="#48465C"/>
</svg>
