<svg width="24" height="24" viewBox="0 0 24 24" fill="none" xmlns="http://www.w3.org/2000/svg">
<path d="M8.92578 12.75C9.18326 12.75 9.42048 12.7495 9.61816 12.7656C9.83123 12.783 10.0647 12.8232 10.2949 12.9404C10.624 13.1082 10.8918 13.376 11.0596 13.7051C11.1768 13.9353 11.217 14.1688 11.2344 14.3818C11.2505 14.5795 11.25 14.8167 11.25 15.0742V17.5C11.25 20.1234 9.12335 22.25 6.5 22.25C3.87665 22.25 1.75 20.1234 1.75 17.5C1.75 14.8766 3.87665 12.75 6.5 12.75H8.92578ZM17.5 12.75C20.1233 12.75 22.2499 14.8767 22.25 17.5C22.25 20.1234 20.1234 22.25 17.5 22.25C14.8766 22.25 12.75 20.1234 12.75 17.5V14.7695C12.7495 14.5269 12.7489 14.2734 12.8096 14.0469C12.9715 13.4432 13.4432 12.9714 14.0469 12.8096C14.2734 12.7489 14.5269 12.7495 14.7695 12.75H17.5ZM6.5 14.25C4.70507 14.25 3.25 15.7051 3.25 17.5C3.25 19.2949 4.70507 20.75 6.5 20.75C8.29493 20.75 9.75 19.2949 9.75 17.5V15.0996C9.75 14.8074 9.7498 14.6329 9.73926 14.5039C9.73285 14.4257 9.72349 14.3928 9.7207 14.3838C9.69718 14.3391 9.66085 14.3018 9.61621 14.2783C9.60673 14.2755 9.57343 14.2671 9.49609 14.2607C9.36703 14.2502 9.19255 14.25 8.90039 14.25H6.5ZM14.5029 14.2539C14.4573 14.256 14.4374 14.259 14.4326 14.2598C14.3486 14.2833 14.2823 14.3486 14.2588 14.4326C14.258 14.4374 14.256 14.4575 14.2539 14.5029C14.2506 14.5752 14.25 14.6715 14.25 14.833V17.5C14.25 19.2949 15.7051 20.75 17.5 20.75C19.2949 20.75 20.75 19.2949 20.75 17.5C20.7499 15.7052 19.2948 14.25 17.5 14.25H14.833C14.6714 14.25 14.5752 14.2506 14.5029 14.2539ZM6.5 1.75C9.12335 1.75 11.25 3.87665 11.25 6.5V9.23047C11.2505 9.47304 11.2511 9.72658 11.1904 9.95312C11.0286 10.5569 10.5569 11.0286 9.95312 11.1904C9.72658 11.2511 9.47304 11.2505 9.23047 11.25H6.5C3.87665 11.25 1.75 9.12335 1.75 6.5C1.75 3.87665 3.87665 1.75 6.5 1.75ZM17.5 1.75C20.1234 1.75 22.25 3.87665 22.25 6.5C22.25 9.12335 20.1234 11.25 17.5 11.25H14.6152C14.5113 11.2501 14.4031 11.2505 14.3037 11.2393C13.4926 11.1477 12.8523 10.5074 12.7607 9.69629C12.7495 9.59692 12.7499 9.48867 12.75 9.38477V6.5C12.75 3.87666 14.8766 1.75001 17.5 1.75ZM6.5 3.25C4.70507 3.25 3.25 4.70507 3.25 6.5C3.25 8.29493 4.70507 9.75 6.5 9.75H9.16699C9.32856 9.75 9.42478 9.74939 9.49707 9.74609C9.5426 9.74401 9.56253 9.74201 9.56738 9.74121C9.65157 9.71769 9.71769 9.65157 9.74121 9.56738C9.74201 9.56253 9.74401 9.5426 9.74609 9.49707C9.74939 9.42478 9.75 9.32856 9.75 9.16699V6.5C9.75 4.70507 8.29493 3.25 6.5 3.25ZM17.5 3.25C15.7051 3.25001 14.25 4.70508 14.25 6.5V9.35742C14.25 9.42649 14.2504 9.46797 14.251 9.49902C14.2514 9.51857 14.2519 9.52725 14.252 9.5293C14.2655 9.64413 14.3559 9.7345 14.4707 9.74805C14.4728 9.7482 14.4814 9.74863 14.501 9.74902C14.532 9.74963 14.5735 9.75 14.6426 9.75H17.5C19.2949 9.75 20.75 8.29493 20.75 6.5C20.75 4.70507 19.2949 3.25 17.5 3.25Z" fill="#48465C"/>
</svg>
