<svg width="24" height="24" viewBox="0 0 24 24" fill="none" xmlns="http://www.w3.org/2000/svg">
<path d="M12 2C16.714 2 19.0708 2.00037 20.5352 3.46484C21.9996 4.9293 22 7.28597 22 12C22 16.714 21.9997 19.0708 20.5352 20.5352C19.0708 21.9997 16.714 22 12 22C7.28597 22 4.9293 21.9996 3.46484 20.5352C2.00037 19.0708 2 16.714 2 12C2 7.28595 2.00037 4.9293 3.46484 3.46484C4.9293 2.00037 7.28595 2 12 2ZM17.0303 5.96973C16.7374 5.67684 16.2626 5.67684 15.9697 5.96973C15.6768 6.26261 15.6768 6.73739 15.9697 7.03027L16.1895 7.25H16C14.3205 7.25 12.8446 8.12194 12 9.4375C11.1554 8.12194 9.67947 7.25 8 7.25H7.81055L8.03027 7.03027C8.32316 6.73738 8.32316 6.26262 8.03027 5.96973C7.73738 5.67684 7.26262 5.67684 6.96973 5.96973L5.46973 7.46973C5.17684 7.76262 5.17684 8.23738 5.46973 8.53027L6.96973 10.0303C7.26261 10.3232 7.73739 10.3232 8.03027 10.0303C8.32316 9.73741 8.32316 9.26262 8.03027 8.96973L7.81055 8.75H8C9.79493 8.75 11.25 10.2051 11.25 12V18C11.25 18.4142 11.5858 18.75 12 18.75C12.4142 18.75 12.75 18.4142 12.75 18V12C12.75 10.2051 14.2051 8.75 16 8.75H16.1895L15.9697 8.96973C15.6768 9.26262 15.6768 9.73742 15.9697 10.0303C16.2626 10.3232 16.7374 10.3232 17.0303 10.0303L18.5303 8.53027C18.8232 8.23739 18.8232 7.76261 18.5303 7.46973L17.0303 5.96973Z" fill="#1C274C"/>
</svg>
