<svg width="24" height="24" viewBox="0 0 24 24" fill="none" xmlns="http://www.w3.org/2000/svg">
<path d="M12 2C13.1138 2 14.1285 2.60035 16.1572 3.80176L16.8428 4.20801C18.8715 5.40942 19.8865 6.01057 20.4434 7C21.0002 7.98941 21 9.19098 21 11.5938V12.4062C21 14.8091 21.0002 16.0106 20.4434 17C19.8865 17.9894 18.8715 18.5896 16.8428 19.791L16.1572 20.1982C14.1285 21.3996 13.1138 22 12 22C10.8862 22 9.87149 21.3996 7.84277 20.1982L7.15723 19.791C5.12851 18.5896 4.11356 17.9894 3.55664 17C2.99979 16.0106 3 14.8091 3 12.4062V11.5938C3 9.19099 2.99979 7.98941 3.55664 7C4.11356 6.01057 5.12851 5.40942 7.15723 4.20801L7.84277 3.80176C9.87149 2.60035 10.8862 2 12 2ZM12 15C11.4477 15 11 15.4477 11 16C11 16.5523 11.4477 17 12 17C12.5523 17 13 16.5523 13 16C13 15.4477 12.5523 15 12 15ZM12 6.25C11.5858 6.25 11.25 6.58579 11.25 7V13C11.25 13.4142 11.5858 13.75 12 13.75C12.4142 13.75 12.75 13.4142 12.75 13V7C12.75 6.58579 12.4142 6.25 12 6.25Z" fill="#1C274C"/>
</svg>
