<svg width="24" height="24" viewBox="0 0 24 24" fill="none" xmlns="http://www.w3.org/2000/svg">
<path fill-rule="evenodd" clip-rule="evenodd" d="M11.5352 1.30438C12.417 1.10983 13.191 1.46179 13.9248 2.00653C14.6377 2.53579 15.4599 3.35874 16.4746 4.37469L19.6475 7.55145C20.6548 8.55974 21.4715 9.37651 21.9971 10.0856C22.5384 10.8161 22.8881 11.5856 22.6983 12.4636C22.5084 13.3417 21.8718 13.8975 21.0772 14.3386C20.3056 14.7668 19.2246 15.1734 17.8907 15.6745L15.9131 16.4167C15.1191 16.715 14.903 16.8087 14.7422 16.9479C14.6613 17.0179 14.5888 17.0973 14.5264 17.1843C14.4022 17.3573 14.3288 17.5816 14.1035 18.4001L14.0918 18.445C13.8631 19.2763 13.6736 19.9631 13.4668 20.4782C13.257 21.001 12.9737 21.4964 12.4649 21.7868C12.1113 21.9885 11.7108 22.094 11.3037 22.0934C10.7177 22.0924 10.2266 21.8017 9.78617 21.4509C9.35217 21.1052 8.84923 20.6015 8.24027 19.9919L6.65335 18.403L2.53031 22.53C2.23757 22.823 1.7628 22.8237 1.46976 22.5309C1.17678 22.2382 1.17704 21.7635 1.46976 21.4704L5.59281 17.3425L4.05863 15.8054C3.45354 15.1997 2.95394 14.6999 2.61039 14.2682C2.26166 13.8301 1.97249 13.3426 1.96878 12.7604C1.96616 12.3456 2.07332 11.9372 2.28031 11.5778C2.57095 11.0733 3.06354 10.7922 3.58304 10.5837C4.09477 10.3782 4.77569 10.19 5.60062 9.96258L5.64554 9.95086C6.46557 9.72479 6.69041 9.65145 6.86332 9.52703C6.95235 9.46293 7.0333 9.38791 7.10453 9.30438C7.24292 9.14199 7.335 8.92328 7.62796 8.12371L8.34476 6.16863C8.83892 4.81984 9.23868 3.72711 9.66312 2.94696C10.0999 2.14424 10.6538 1.49904 11.5352 1.30438ZM13.0303 3.21063C12.4278 2.76335 12.1082 2.71414 11.8584 2.76922C11.6087 2.82445 11.3403 3.00435 10.9815 3.66375C10.6164 4.33463 10.2521 5.32122 9.7305 6.74481L9.03617 8.64031C9.02282 8.67673 9.01009 8.71319 8.9971 8.74871C8.76297 9.3893 8.58122 9.88379 8.24613 10.277C8.09674 10.4522 7.92714 10.6092 7.74027 10.7438C7.32092 11.0457 6.81246 11.1852 6.15531 11.3659C6.11878 11.3759 6.08144 11.3869 6.04398 11.3972C5.1632 11.64 4.565 11.8063 4.14164 11.9763C3.71698 12.1467 3.61473 12.2668 3.58011 12.3268C3.50599 12.4556 3.46787 12.6019 3.46878 12.7507C3.46922 12.8203 3.49827 12.9755 3.78324 13.3337C4.06755 13.6908 4.50631 14.1313 5.15238 14.778L9.26859 18.8991C9.91885 19.5501 10.3615 19.992 10.7207 20.278C11.0811 20.5651 11.2372 20.5933 11.3067 20.5934C11.4521 20.5936 11.5953 20.5562 11.7217 20.4841C11.7823 20.4495 11.9034 20.3465 12.0752 19.9186C12.2463 19.4923 12.4133 18.8897 12.6573 18.0026C12.6675 17.9654 12.6776 17.9285 12.6875 17.8923C12.8675 17.2361 13.0071 16.7283 13.3077 16.3093C13.4384 16.127 13.5903 15.961 13.7598 15.8141C14.1497 15.4766 14.6419 15.292 15.2784 15.0534C15.3138 15.0402 15.3496 15.0261 15.3858 15.0124L17.3028 14.2927C18.7106 13.7637 19.6861 13.3948 20.3487 13.027C20.9994 12.6659 21.1783 12.3975 21.2325 12.1472C21.2866 11.8967 21.2355 11.5776 20.792 10.9792C20.3406 10.3699 19.6045 9.63058 18.541 8.5661L15.459 5.48016C14.3879 4.40794 13.6432 3.66567 13.0303 3.21063Z" fill="#1C274C"/>
</svg>
