<svg width="24" height="24" viewBox="0 0 24 24" fill="none" xmlns="http://www.w3.org/2000/svg">
<path d="M11.5352 1.30444C12.417 1.10989 13.191 1.46185 13.9248 2.00659C14.6376 2.53586 15.4598 3.35881 16.4746 4.37476L19.6475 7.55151C20.6548 8.5598 21.4715 9.37658 21.9971 10.0857C22.5383 10.8161 22.8881 11.5857 22.6982 12.4636C22.5084 13.3418 21.8718 13.8975 21.0771 14.3386C20.3055 14.7668 19.2245 15.1735 17.8906 15.6746L15.9131 16.4167C15.1191 16.7151 14.903 16.8088 14.7422 16.948C14.6613 17.018 14.5888 17.0973 14.5264 17.1843C14.4022 17.3574 14.3287 17.5816 14.1035 18.4001L14.0918 18.4451C13.8631 19.2764 13.6736 19.9632 13.4668 20.4783C13.257 21.001 12.9737 21.4964 12.4648 21.7869C12.1113 21.9886 11.7107 22.0941 11.3037 22.0935C10.7176 22.0925 10.2266 21.8018 9.78613 21.4509C9.35214 21.1052 8.8492 20.6016 8.24023 19.9919L6.65332 18.4031L2.53027 22.53C2.23753 22.823 1.76277 22.8238 1.46973 22.531C1.17674 22.2383 1.17701 21.7635 1.46973 21.4705L5.59277 17.3425L4.05859 15.8054C3.4535 15.1998 2.95391 14.6999 2.61035 14.2683C2.26162 13.8301 1.97246 13.3426 1.96875 12.7605C1.96613 12.3457 2.07328 11.9373 2.28027 11.5779C2.57091 11.0734 3.06351 10.7922 3.58301 10.5837C4.09474 10.3783 4.77566 10.1901 5.60059 9.96265L5.64551 9.95093C6.46553 9.72486 6.69038 9.65152 6.86328 9.5271C6.95232 9.46299 7.03326 9.38798 7.10449 9.30444C7.24288 9.14205 7.33497 8.92335 7.62793 8.12378L8.34473 6.1687C8.83888 4.8199 9.23864 3.72717 9.66309 2.94702C10.0999 2.14431 10.6538 1.4991 11.5352 1.30444ZM13.0303 3.21069C12.4277 2.76342 12.1082 2.7142 11.8584 2.76929C11.6087 2.82452 11.3403 3.00441 10.9814 3.66382C10.6164 4.3347 10.2521 5.32129 9.73047 6.74487L9.03613 8.64038C9.02278 8.6768 9.01005 8.71326 8.99707 8.74878C8.76293 9.38937 8.58118 9.88386 8.24609 10.2771C8.0967 10.4523 7.92711 10.6093 7.74023 10.7439C7.32088 11.0458 6.81243 11.1853 6.15527 11.366C6.11874 11.376 6.08141 11.3869 6.04395 11.3972C5.16316 11.6401 4.56497 11.8063 4.1416 11.9763C3.71694 12.1468 3.61469 12.2668 3.58008 12.3269C3.50595 12.4557 3.46784 12.602 3.46875 12.7507C3.46919 12.8204 3.49823 12.9756 3.7832 13.3337C4.06751 13.6909 4.50628 14.1314 5.15234 14.7781L9.26855 18.8992C9.91881 19.5502 10.3615 19.9921 10.7207 20.2781C11.0811 20.5651 11.2371 20.5934 11.3066 20.5935C11.452 20.5937 11.5953 20.5563 11.7217 20.4841C11.7823 20.4495 11.9034 20.3466 12.0752 19.9187C12.2462 19.4923 12.4132 18.8898 12.6572 18.0027C12.6675 17.9654 12.6775 17.9286 12.6875 17.8923C12.8675 17.2361 13.007 16.7283 13.3076 16.3093C13.4384 16.1271 13.5903 15.9611 13.7598 15.8142C14.1497 15.4767 14.6418 15.292 15.2783 15.0535C15.3137 15.0403 15.3495 15.0261 15.3857 15.0125L17.3027 14.2927C18.7106 13.7638 19.686 13.3949 20.3486 13.0271C20.9993 12.666 21.1782 12.3975 21.2324 12.1472C21.2866 11.8967 21.2354 11.5777 20.792 10.9792C20.3406 10.37 19.6045 9.63064 18.541 8.56616L15.459 5.48022C14.3878 4.40801 13.6432 3.66573 13.0303 3.21069Z" fill="#48465C"/>
</svg>
