<svg width="24" height="24" viewBox="0 0 24 24" fill="none" xmlns="http://www.w3.org/2000/svg">
<path fill-rule="evenodd" clip-rule="evenodd" d="M3.31381 3.31446C4.73274 1.89553 7.03356 1.89553 8.45249 3.31446L20.6859 15.5479C22.1045 16.9667 22.1045 19.2667 20.6859 20.6856C19.267 22.1045 16.9661 22.1045 15.5472 20.6856L3.31381 8.45215C1.89544 7.03329 1.89535 4.73326 3.31381 3.31446ZM7.02182 10.0391L16.6078 19.625C17.4409 20.4582 18.7922 20.4582 19.6253 19.625C20.4583 18.792 20.4582 17.4415 19.6253 16.6084L10.0394 7.02149L7.02182 10.0391ZM4.66831 15.124C4.99561 14.2921 6.17127 14.2919 6.49838 15.124L6.65268 15.5176L7.04428 15.6729C7.87299 16.0014 7.87303 17.1764 7.04428 17.5049L6.65268 17.6602L6.49838 18.0537C6.17121 18.8856 4.99567 18.8855 4.66831 18.0537L4.51303 17.6602L4.12241 17.5049C3.29304 17.1766 3.29305 16.0012 4.12241 15.6729L4.51303 15.5176L4.66831 15.124ZM5.44174 15.8897C5.34208 16.1432 5.14176 16.3448 4.88803 16.4453L4.52475 16.5889L4.88803 16.7324C5.14181 16.8329 5.3421 17.0345 5.44174 17.2881L5.58335 17.6475L5.72397 17.2881C5.8236 17.0345 6.02393 16.8329 6.27768 16.7324L6.64194 16.5889L6.27768 16.4453C6.02394 16.3448 5.82362 16.1432 5.72397 15.8897L5.58335 15.5303L5.44174 15.8897ZM19.5023 8.94629C19.8296 8.11436 21.0052 8.1142 21.3324 8.94629L21.4867 9.33985L21.8783 9.49512C22.707 9.82363 22.707 10.9987 21.8783 11.3272L21.4867 11.4824L21.3324 11.876C21.0052 12.7079 19.8296 12.7078 19.5023 11.876L19.347 11.4824L18.9564 11.3272C18.127 10.9989 18.127 9.82343 18.9564 9.49512L19.347 9.33985L19.5023 8.94629ZM20.2757 9.71192C20.1761 9.96542 19.9758 10.1671 19.722 10.2676L19.3587 10.4111L19.722 10.5547C19.9758 10.6552 20.1761 10.8568 20.2757 11.1104L20.4173 11.4697L20.558 11.1104C20.6575 10.8568 20.8579 10.6552 21.1117 10.5547L21.4759 10.4111L21.1117 10.2676C20.8579 10.1671 20.6576 9.96545 20.558 9.71192L20.4173 9.35254L20.2757 9.71192ZM7.39194 4.37501C6.55886 3.54191 5.20849 3.54202 4.37534 4.37501C3.54219 5.20814 3.54219 6.55847 4.37534 7.39161L5.96128 8.97852L8.97788 5.96094L7.39194 4.37501ZM15.6351 2.12403C15.9624 1.29208 17.138 1.2919 17.4652 2.12403L17.8929 3.21387L18.9779 3.64258C19.8069 3.97096 19.8068 5.14715 18.9779 5.47559L17.8929 5.90528L17.4652 6.99415C17.1381 7.82652 15.9623 7.82638 15.6351 6.99415L15.2064 5.90528L14.1224 5.47559C13.2931 5.14729 13.2931 3.97089 14.1224 3.64258L15.2064 3.21387L15.6351 2.12403ZM16.1351 3.58497C16.0355 3.83851 15.8351 4.04015 15.5814 4.14063L14.5248 4.55958L15.5814 4.97754C15.8352 5.07801 16.0355 5.27964 16.1351 5.53321L16.5501 6.58887L16.9642 5.53321C17.0638 5.27967 17.2643 5.07802 17.5179 4.97754L18.5755 4.55958L17.5179 4.14063C17.2643 4.04014 17.0638 3.83847 16.9642 3.58497L16.5501 2.53028L16.1351 3.58497Z" fill="#1C274C"/>
</svg>
