<svg width="24" height="24" viewBox="0 0 24 24" fill="none" xmlns="http://www.w3.org/2000/svg">
<path d="M11.25 12.4639V21.9043C10.5321 21.7255 9.71483 21.2967 8.42188 20.6182L6.42188 19.5684C4.27057 18.4393 3.19503 17.8747 2.59766 16.8604C2.00026 15.8459 2 14.5833 2 12.0586V11.9414C2 10.0491 2.00042 8.86601 2.25195 7.96484L11.25 12.4639ZM21.748 7.96484C21.9995 8.86601 22 10.0491 22 11.9414V12.0586C22 14.5833 21.9997 15.8459 21.4023 16.8604C20.805 17.8747 19.7295 18.4394 17.5781 19.5684L15.5781 20.6182C14.2852 21.2967 13.4679 21.7255 12.75 21.9043V12.4639L16.25 10.7139V13C16.25 13.4142 16.5858 13.75 17 13.75C17.4142 13.75 17.75 13.4142 17.75 13V9.96387L21.748 7.96484ZM15.4111 9.45605L12 11.1611L2.95996 6.6416C3.60613 5.90983 4.64836 5.36234 6.42188 4.43164L6.52441 4.37793L15.4111 9.45605ZM12 2C12.9443 2 13.8225 2.46053 15.5781 3.38184L17.5781 4.43164C19.3517 5.36233 20.3939 5.90983 21.04 6.6416L17.0234 8.64941L8.10059 3.55078L8.42188 3.38184C10.1775 2.46053 11.0557 2 12 2Z" fill="#1C274C"/>
</svg>
