<svg width="24" height="24" viewBox="0 0 24 24" fill="none" xmlns="http://www.w3.org/2000/svg">
<path d="M14.3184 2.50488C14.6039 2.53819 14.881 2.63817 15.1621 2.76074C15.4411 2.88232 15.7819 3.05257 16.2002 3.26172L18.9072 4.61523C19.2182 4.77054 19.4615 4.89245 19.6699 5.05176C20.2067 5.46214 20.5741 6.05612 20.7012 6.71973C20.7504 6.97735 20.7502 7.24923 20.75 7.59668V7.67969C20.75 8.14735 20.7504 8.52819 20.7344 8.83203C20.7183 9.13838 20.6838 9.43085 20.5859 9.70117C20.1514 10.9005 18.9487 11.6438 17.6816 11.4961C17.3961 11.4628 17.119 11.3628 16.8379 11.2402C16.5589 11.1186 16.2181 10.9484 15.7998 10.7393L13.0928 9.38574C12.9684 9.32366 12.8548 9.26679 12.75 9.21094V18C12.75 20.6233 10.6234 22.75 8 22.75C5.37665 22.75 3.25 20.6233 3.25 18C3.25025 15.3768 5.3768 13.25 8 13.25C9.25715 13.25 10.4003 13.7387 11.25 14.5361V6C11.2507 5.67556 11.2534 5.40005 11.2656 5.16895C11.2817 4.86258 11.3162 4.57014 11.4141 4.2998C11.8485 3.10034 13.0513 2.35719 14.3184 2.50488ZM8 14.75C6.20522 14.75 4.75025 16.2053 4.75 18C4.75 19.7949 6.20507 21.25 8 21.25C9.79493 21.25 11.25 19.7949 11.25 18C11.2497 16.2053 9.79478 14.75 8 14.75ZM14.1445 3.99512C13.5686 3.92805 13.0217 4.26542 12.8242 4.81055C12.8026 4.87029 12.7775 4.98635 12.7637 5.24805C12.75 5.50763 12.75 5.84836 12.75 6.3418C12.75 6.77965 12.7534 6.89933 12.7725 6.99902C12.8302 7.30066 12.9972 7.57128 13.2412 7.75781C13.3218 7.81936 13.4272 7.87575 13.8184 8.07129L16.4521 9.3877C16.8938 9.60852 17.1992 9.76133 17.4375 9.86523C17.6775 9.9698 17.7924 9.9985 17.8555 10.0059C18.4313 10.0729 18.9783 9.73552 19.1758 9.19043C19.1974 9.1307 19.2225 9.01462 19.2363 8.75293C19.25 8.49335 19.25 8.15261 19.25 7.65918C19.25 7.22141 19.2466 7.10163 19.2275 7.00195C19.1698 6.70031 19.0028 6.4297 18.7588 6.24316C18.6782 6.18162 18.5728 6.12524 18.1816 5.92969L15.5479 4.61328C15.1062 4.39246 14.8008 4.23965 14.5625 4.13574C14.3225 4.03117 14.2076 4.00248 14.1445 3.99512Z" fill="#1C274C"/>
</svg>
