<svg width="24" height="24" viewBox="0 0 24 24" fill="none" xmlns="http://www.w3.org/2000/svg">
<path d="M18.8838 7.75195C19.2968 7.77975 19.6094 8.13672 19.582 8.5498L19.1182 15.502C19.0327 16.7846 18.9637 17.8208 18.8018 18.6338C18.6334 19.4789 18.3472 20.185 17.7559 20.7383C17.1643 21.2917 16.4404 21.5308 15.5859 21.6426C14.7638 21.7501 13.7251 21.75 12.4395 21.75H11.5605C10.2752 21.75 9.23698 21.75 8.41504 21.6426C7.56043 21.5308 6.83669 21.2917 6.24512 20.7383C5.65355 20.1849 5.36665 19.479 5.19824 18.6338C5.03629 17.8208 4.96733 16.7846 4.88184 15.502L4.41797 8.5498C4.39049 8.13657 4.70394 7.7795 5.11719 7.75195C5.53036 7.72456 5.8875 8.03699 5.91504 8.4502L6.375 15.3496C6.46485 16.6973 6.52936 17.6353 6.66992 18.3408C6.80627 19.0251 6.99617 19.3878 7.26953 19.6436C7.54294 19.8992 7.91751 20.0648 8.60938 20.1553C9.32273 20.2485 10.2627 20.25 11.6133 20.25H12.3867C13.7373 20.25 14.6773 20.2485 15.3906 20.1553C16.0824 20.0648 16.4571 19.8991 16.7305 19.6436C17.0038 19.3878 17.1947 19.0252 17.3311 18.3408C17.4716 17.6353 17.5352 16.6973 17.625 15.3496L18.085 8.4502C18.1125 8.0369 18.4705 7.7244 18.8838 7.75195ZM20.5 5.25C20.9142 5.25002 21.25 5.5858 21.25 6C21.25 6.4142 20.9142 6.74998 20.5 6.75H3.5C3.08578 6.75 2.75 6.41421 2.75 6C2.75 5.58579 3.08578 5.25 3.5 5.25H20.5ZM12 1.25C13.6339 1.25006 15.0216 2.29463 15.5361 3.75C15.6741 4.14053 15.4696 4.56899 15.0791 4.70703C14.6885 4.84504 14.2601 4.64049 14.1221 4.25C13.8129 3.37514 12.9784 2.75006 12 2.75C11.0215 2.75 10.1871 3.3751 9.87793 4.25C9.73991 4.64048 9.31139 4.84495 8.9209 4.70703C8.53036 4.56899 8.32583 4.14053 8.46387 3.75C8.97835 2.29461 10.3662 1.25 12 1.25Z" fill="#1C274C"/>
</svg>
