<svg width="24" height="24" viewBox="0 0 24 24" fill="none" xmlns="http://www.w3.org/2000/svg">
<path d="M13.0566 1.25C14.8943 1.24998 16.3501 1.25016 17.4893 1.40332C18.6615 1.56095 19.6101 1.89332 20.3584 2.6416C21.1066 3.38992 21.439 4.33844 21.5967 5.51074C21.7498 6.64989 21.75 8.10573 21.75 9.94336V14.0566C21.75 15.8943 21.7498 17.3501 21.5967 18.4893C21.439 19.6615 21.1066 20.6101 20.3584 21.3584C19.6101 22.1066 18.6615 22.439 17.4893 22.5967C16.3501 22.7498 14.8943 22.75 13.0566 22.75H10.9434C9.10573 22.75 7.64991 22.7498 6.51074 22.5967C5.33844 22.439 4.38992 22.1066 3.6416 21.3584C2.89332 20.6101 2.56095 19.6615 2.40332 18.4893C2.25016 17.3501 2.24998 15.8943 2.25 14.0566V9.94336C2.24998 8.10571 2.25016 6.64991 2.40332 5.51074C2.56095 4.33844 2.8933 3.38992 3.6416 2.6416C4.38992 1.8933 5.33844 1.56095 6.51074 1.40332C7.6499 1.25016 9.1057 1.24998 10.9434 1.25H13.0566ZM11 2.75C9.09324 2.75 7.73859 2.75149 6.71094 2.88965C5.70485 3.02492 5.12536 3.27894 4.70215 3.70215C4.27894 4.12536 4.02492 4.70485 3.88965 5.71094C3.75149 6.73859 3.75 8.09324 3.75 10V14C3.75 15.9067 3.7515 17.2614 3.88965 18.2891C4.02492 19.2951 4.27894 19.8747 4.70215 20.2979C5.12536 20.7211 5.70485 20.9752 6.71094 21.1104C7.73859 21.2485 9.09325 21.25 11 21.25H13C14.9067 21.25 16.2614 21.2485 17.2891 21.1104C18.2951 20.9752 18.8747 20.7211 19.2979 20.2979C19.7211 19.8747 19.9752 19.2951 20.1104 18.2891C20.2485 17.2614 20.25 15.9067 20.25 14V10C20.25 8.09325 20.2485 6.73859 20.1104 5.71094C19.9752 4.70485 19.7211 4.12536 19.2979 3.70215C18.8747 3.27894 18.2951 3.02492 17.2891 2.88965C16.2614 2.7515 14.9067 2.75 13 2.75H11ZM15 17.25C15.4142 17.25 15.75 17.5858 15.75 18C15.75 18.4142 15.4142 18.75 15 18.75H9C8.58579 18.75 8.25 18.4142 8.25 18C8.25 17.5858 8.58579 17.25 9 17.25H15ZM16 13.25C16.4142 13.25 16.75 13.5858 16.75 14C16.75 14.4142 16.4142 14.75 16 14.75H8C7.58579 14.75 7.25 14.4142 7.25 14C7.25 13.5858 7.58579 13.25 8 13.25H16ZM12 4.25C12.4142 4.25 12.75 4.58579 12.75 5V7.25H15C15.4142 7.25 15.75 7.58579 15.75 8C15.75 8.41422 15.4142 8.75 15 8.75H12.75V11C12.75 11.4142 12.4142 11.75 12 11.75C11.5858 11.75 11.25 11.4142 11.25 11V8.75H9C8.58578 8.75 8.25 8.41422 8.25 8C8.25 7.58579 8.58578 7.25 9 7.25H11.25V5C11.25 4.5858 11.5858 4.25001 12 4.25Z" fill="#1C274C"/>
</svg>
