<svg width="24" height="24" viewBox="0 0 24 24" fill="none" xmlns="http://www.w3.org/2000/svg">
<path d="M14.0566 2.25C14.3708 2.25 14.6736 2.25022 14.9658 2.25098C14.9771 2.25047 14.9886 2.25 15 2.25C15.0128 2.25 15.0255 2.25035 15.0381 2.25098C16.4221 2.25525 17.561 2.27851 18.4893 2.40332C19.6615 2.56095 20.6101 2.89332 21.3584 3.6416C22.1066 4.38992 22.439 5.33844 22.5967 6.51074C22.7498 7.64989 22.75 9.10572 22.75 10.9434V13.0566C22.75 14.8943 22.7498 16.3501 22.5967 17.4893C22.439 18.6615 22.1066 19.6101 21.3584 20.3584C20.6101 21.1066 19.6615 21.439 18.4893 21.5967C17.561 21.7215 16.4221 21.7448 15.0381 21.749C15.0255 21.7497 15.0128 21.75 15 21.75C14.9886 21.75 14.9771 21.7495 14.9658 21.749C14.6737 21.7498 14.3707 21.75 14.0566 21.75H9.94336C8.1057 21.75 6.64991 21.7498 5.51074 21.5967C4.33844 21.439 3.38992 21.1066 2.6416 20.3584C1.89332 19.6101 1.56095 18.6615 1.40332 17.4893C1.25016 16.3501 1.24998 14.8943 1.25 13.0566V10.9434C1.24998 9.10569 1.25016 7.6499 1.40332 6.51074C1.56095 5.33844 1.8933 4.38992 2.6416 3.6416C3.38992 2.8933 4.33844 2.56095 5.51074 2.40332C6.64991 2.25016 8.10571 2.24998 9.94336 2.25H14.0566ZM10 3.75C8.09324 3.75 6.73858 3.75149 5.71094 3.88965C4.70485 4.02492 4.12536 4.27894 3.70215 4.70215C3.27894 5.12536 3.02492 5.70485 2.88965 6.71094C2.75149 7.73858 2.75 9.09324 2.75 11V13C2.75 14.9067 2.7515 16.2614 2.88965 17.2891C3.02492 18.2951 3.27894 18.8747 3.70215 19.2979C4.12536 19.7211 4.70485 19.9752 5.71094 20.1104C6.73858 20.2485 8.09325 20.25 10 20.25H14.25V3.75H10ZM15.75 20.2441C16.7835 20.2332 17.6081 20.2019 18.2891 20.1104C19.2951 19.9752 19.8747 19.7211 20.2979 19.2979C20.7211 18.8747 20.9752 18.2951 21.1104 17.2891C21.2485 16.2614 21.25 14.9067 21.25 13V11C21.25 9.09325 21.2485 7.73858 21.1104 6.71094C20.9752 5.70485 20.7211 5.12536 20.2979 4.70215C19.8747 4.27894 19.2951 4.02492 18.2891 3.88965C17.6081 3.79811 16.7835 3.76675 15.75 3.75586V20.2441ZM10.5 13.25C10.9142 13.25 11.25 13.5858 11.25 14C11.25 14.4142 10.9142 14.75 10.5 14.75H6.5C6.08579 14.75 5.75 14.4142 5.75 14C5.75 13.5858 6.08579 13.25 6.5 13.25H10.5ZM11.5 9.25C11.9142 9.25 12.25 9.58579 12.25 10C12.25 10.4142 11.9142 10.75 11.5 10.75H5.5C5.08579 10.75 4.75 10.4142 4.75 10C4.75 9.58579 5.08579 9.25 5.5 9.25H11.5Z" fill="#48465C"/>
</svg>
