<svg width="24" height="24" viewBox="0 0 24 24" fill="none" xmlns="http://www.w3.org/2000/svg">
<path d="M2.56961 13.1989C2.95435 13.1208 3.32936 13.3698 3.4075 13.7546C4.1046 17.1888 6.81221 19.8954 10.2464 20.5925C10.6308 20.6707 10.8789 21.0458 10.8011 21.4303C10.723 21.815 10.3479 22.0641 9.96317 21.986C5.96952 21.1753 2.82576 18.0314 2.01493 14.0378C1.93683 13.6531 2.18488 13.2771 2.56961 13.1989ZM21.43 13.1989C21.8148 13.2771 22.0637 13.6531 21.9856 14.0378C21.1748 18.0313 18.0309 21.1752 14.0374 21.986C13.6527 22.064 13.2766 21.815 13.1985 21.4303C13.1207 21.0457 13.3696 20.6705 13.7542 20.5925C17.1884 19.8954 19.895 17.1887 20.5921 13.7546C20.6701 13.3699 21.0453 13.1211 21.43 13.1989ZM12.0003 4.41765C16.188 4.41786 19.5823 7.81294 19.5823 12.0007C19.5822 16.1883 16.1879 19.5835 12.0003 19.5837C7.81253 19.5837 4.41741 16.1884 4.41727 12.0007C4.41727 7.81281 7.81244 4.41765 12.0003 4.41765ZM15.0589 14.5387C14.825 14.2237 14.38 14.1576 14.0647 14.3913C13.4752 14.8282 12.7645 15.0806 12.0003 15.0807C11.2359 15.0807 10.5244 14.8283 9.93485 14.3913C9.61953 14.1577 9.1745 14.2236 8.94071 14.5387C8.70694 14.8542 8.77281 15.3 9.08817 15.5339C9.90911 16.1424 10.9145 16.5026 12.0003 16.5026C13.0859 16.5025 14.0905 16.1422 14.9114 15.5339C15.2268 15.3001 15.2927 14.8542 15.0589 14.5387ZM9.512 9.15691C9.05395 9.15691 8.6829 9.714 8.6829 10.401C8.68295 11.0881 9.05398 11.6452 9.512 11.6452C9.96992 11.645 10.341 11.088 10.3411 10.401C10.3411 9.71409 9.96996 9.15706 9.512 9.15691ZM14.4876 9.15691C14.0298 9.15723 13.6585 9.7142 13.6585 10.401C13.6585 11.0879 14.0298 11.6449 14.4876 11.6452C14.9456 11.6452 15.3176 11.0881 15.3177 10.401C15.3177 9.714 14.9457 9.15691 14.4876 9.15691ZM9.96317 2.01433C10.3478 1.9364 10.723 2.18532 10.8011 2.56999C10.8792 2.95476 10.6301 3.32978 10.2454 3.40788C6.81141 4.10503 4.10464 6.81184 3.4075 10.2458C3.3294 10.6306 2.95436 10.8795 2.56961 10.8014C2.18498 10.7234 1.93609 10.3482 2.01395 9.96355C2.82464 5.96977 5.96937 2.82496 9.96317 2.01433ZM14.0374 2.01433C18.031 2.82505 21.1749 5.96987 21.9856 9.96355C22.0635 10.3482 21.8147 10.7233 21.43 10.8014C21.0453 10.8793 20.6701 10.6304 20.5921 10.2458C19.8949 6.81174 17.1883 4.10491 13.7542 3.40788C13.3695 3.32977 13.1205 2.95472 13.1985 2.56999C13.2766 2.18522 13.6527 1.93623 14.0374 2.01433Z" fill="#1C274C"/>
</svg>
