<svg width="24" height="24" viewBox="0 0 24 24" fill="none" xmlns="http://www.w3.org/2000/svg">
<path d="M12.0518 1.25C12.9503 1.24997 13.7001 1.25012 14.2949 1.33008C14.9225 1.41452 15.489 1.6003 15.9443 2.05566C16.3997 2.51102 16.5855 3.07748 16.6699 3.70508C16.7499 4.29986 16.75 5.04977 16.75 5.94824V6.02539C18.7712 6.09152 19.9846 6.32833 20.8281 7.17188C21.9997 8.34346 22 10.2288 22 14C22 17.7712 21.9997 19.6566 20.8281 20.8281C19.6566 21.9997 17.7712 22 14 22H10C6.22877 22 4.34346 21.9997 3.17188 20.8281C2.00031 19.6566 2 17.7712 2 14C2 10.2288 2.00031 8.34345 3.17188 7.17188C4.01541 6.32834 5.22882 6.09152 7.25 6.02539V5.94824C7.24997 5.04976 7.25012 4.29986 7.33008 3.70508C7.41452 3.07747 7.6003 2.51102 8.05566 2.05566C8.51102 1.60031 9.07747 1.41452 9.70508 1.33008C10.2999 1.25012 11.0497 1.24997 11.9482 1.25H12.0518ZM8 12.25C5.92893 12.25 4.25 13.9289 4.25 16C4.25 18.0711 5.92893 19.75 8 19.75C10.0711 19.75 11.75 18.0711 11.75 16C11.75 13.9289 10.0711 12.25 8 12.25ZM18.6514 13.3486C17.187 11.8842 14.8131 11.8842 13.3486 13.3486C11.8842 14.813 11.8842 17.1869 13.3486 18.6514C14.8131 20.1158 17.187 20.1158 18.6514 18.6514C20.1158 17.1869 20.1159 14.813 18.6514 13.3486ZM8.75 13.8779C9.62389 14.1868 10.25 15.0203 10.25 16C10.25 17.2426 9.24262 18.25 8 18.25C6.75738 18.25 5.75004 17.2426 5.75 16C5.75 15.0203 6.37611 14.1868 7.25 13.8779V15C7.25004 15.4142 7.58581 15.75 8 15.75C8.41419 15.75 8.74996 15.4142 8.75 15V13.8779ZM14.4092 14.4092C15.1017 13.7166 16.1335 13.5695 16.9697 13.9688L16.1768 14.7627C15.8839 15.0556 15.8839 15.5304 16.1768 15.8232C16.4696 16.1161 16.9444 16.1161 17.2373 15.8232L18.0312 15.0303C18.4305 15.8665 18.2834 16.8983 17.5908 17.5908C16.7121 18.4695 15.2879 18.4695 14.4092 17.5908C13.5305 16.7121 13.5305 15.2879 14.4092 14.4092ZM6 8.75C5.58579 8.75 5.25 9.08579 5.25 9.5C5.25 9.91421 5.58579 10.25 6 10.25H18C18.4142 10.25 18.75 9.91421 18.75 9.5C18.75 9.08579 18.4142 8.75 18 8.75H6ZM12 2.75C11.036 2.75 10.3883 2.75147 9.90527 2.81641C9.44388 2.87845 9.24652 2.9859 9.11621 3.11621C8.9859 3.24652 8.87845 3.44388 8.81641 3.90527C8.77087 4.24394 8.75648 5.1553 8.75195 6.00195C9.14337 6.00007 9.55885 6 10 6H14C14.4412 6 14.8566 6.00007 15.248 6.00195C15.2435 5.1553 15.2291 4.24394 15.1836 3.90527C15.1215 3.44388 15.0141 3.24652 14.8838 3.11621C14.7535 2.98591 14.5561 2.87845 14.0947 2.81641C13.6117 2.75147 12.964 2.75 12 2.75Z" fill="#1C274C"/>
</svg>
