<svg width="24" height="24" viewBox="0 0 24 24" fill="none" xmlns="http://www.w3.org/2000/svg">
<path d="M15.3115 1.25C15.7257 1.25001 16.0615 1.5858 16.0615 2C16.0615 2.4142 15.7257 2.74999 15.3115 2.75C12.0274 2.75 10.2245 5.31442 9.8291 8.10547C9.72046 8.87251 9.72552 9.62584 9.83105 10.3086C9.91301 10.2037 10.0025 10.1046 10.0986 10.0127C10.4886 9.56103 10.989 9.19896 11.5469 8.92773C12.8353 8.30143 14.4931 8.11533 16.1055 8.34375C19.3144 8.79842 22.75 10.9958 22.75 15.3115C22.75 15.7257 22.4142 16.0615 22 16.0615C21.5858 16.0615 21.25 15.7257 21.25 15.3115C21.25 12.0274 18.6855 10.2245 15.8945 9.8291C15.2064 9.73164 14.5293 9.7257 13.9043 9.80176C14.5435 10.2168 15.0376 10.8349 15.3838 11.5469C16.0101 12.8353 16.1962 14.4931 15.9678 16.1055C15.5131 19.3144 13.3157 22.75 9 22.75C8.58579 22.75 8.25 22.4142 8.25 22C8.25 21.5858 8.58579 21.25 9 21.25C12.2842 21.25 14.087 18.6855 14.4824 15.8945C14.6034 15.0409 14.5829 14.2042 14.4404 13.4629C14.0492 14.3193 13.3211 14.9618 12.4531 15.3838C11.1647 16.0101 9.50689 16.1962 7.89453 15.9678C4.68565 15.5131 1.25 13.3157 1.25 9C1.25 8.58579 1.58579 8.25 2 8.25C2.41421 8.25 2.75 8.58579 2.75 9C2.75 12.2842 5.31442 14.087 8.10547 14.4824C9.01352 14.6111 9.90235 14.5801 10.6777 14.4121C10.4305 14.2763 10.2062 14.1036 10.0127 13.9014C9.56103 13.5114 9.19896 13.011 8.92773 12.4531C8.30143 11.1647 8.11533 9.50689 8.34375 7.89453C8.79842 4.68565 10.9958 1.25 15.3115 1.25ZM12 10.75C11.6877 10.75 11.4017 10.8644 11.1826 11.0537C10.9339 11.3668 10.7893 11.7283 10.7568 12.1338C10.7845 12.3936 10.8918 12.6299 11.0537 12.8174C11.3668 13.0661 11.7283 13.2107 12.1338 13.2432C12.7613 13.1764 13.25 12.6452 13.25 12C13.25 11.3096 12.6904 10.75 12 10.75Z" fill="#1C274C"/>
</svg>
