<svg width="24" height="24" viewBox="0 0 24 24" fill="none" xmlns="http://www.w3.org/2000/svg">
<path d="M12 1.25C17.9371 1.25 22.75 6.06294 22.75 12C22.75 17.9371 17.9371 22.75 12 22.75C6.06294 22.75 1.25 17.9371 1.25 12C1.25 6.06294 6.06294 1.25 12 1.25ZM12 2.75C6.89137 2.75 2.75 6.89137 2.75 12C2.75 17.1086 6.89137 21.25 12 21.25C17.1086 21.25 21.25 17.1086 21.25 12C21.25 6.89137 17.1086 2.75 12 2.75ZM16.1182 13.3232C16.4157 13.0353 16.8906 13.0434 17.1787 13.3408C17.4667 13.6383 17.4595 14.1132 17.1621 14.4014C16.9921 14.566 16.8132 14.725 16.626 14.877L16.8438 15.3213C17.3967 16.4479 16.9215 17.8097 15.7871 18.3467C14.6754 18.873 13.3469 18.4087 12.8047 17.3047L12.5312 16.748C11.2116 16.9983 9.90928 16.9556 8.73047 16.6602C8.3287 16.5595 8.08489 16.1528 8.18555 15.751C8.28624 15.3492 8.69297 15.1054 9.09473 15.2061C10.2249 15.4893 11.5231 15.4927 12.8408 15.1396C14.1586 14.7865 15.281 14.1337 16.1182 13.3232ZM15.3711 15.7236C14.9421 15.9626 14.4851 16.1713 14.0049 16.3447L14.1514 16.6436C14.332 17.0115 14.7751 17.1656 15.1455 16.9902C15.5233 16.8111 15.6813 16.3578 15.4971 15.9824L15.3711 15.7236ZM8.3252 9.87891C8.85858 9.73599 9.46519 10.2684 9.67969 11.0684C9.89406 11.8684 9.63574 12.6332 9.10254 12.7764C8.56907 12.9194 7.96246 12.3861 7.74805 11.5859C7.53387 10.7861 7.79215 10.0222 8.3252 9.87891ZM14.1211 8.32617C14.6545 8.18325 15.261 8.71557 15.4756 9.51562C15.69 10.3158 15.4309 11.0807 14.8975 11.2236C14.364 11.3665 13.7574 10.8333 13.543 10.0332C13.3288 9.23319 13.5878 8.46913 14.1211 8.32617Z" fill="#48465C"/>
</svg>
