<svg width="24" height="24" viewBox="0 0 24 24" fill="none" xmlns="http://www.w3.org/2000/svg">
<path d="M12.2451 10.4453C12.5516 10.1667 13.0261 10.1896 13.3047 10.4961C13.5832 10.8026 13.5604 11.2771 13.2539 11.5557C13.0745 11.7188 12.8957 11.8783 12.7207 12.0342C12.44 12.2841 12.1685 12.5253 11.9219 12.7588C11.7265 12.9436 11.5675 13.1052 11.4512 13.2393C11.3577 13.347 11.319 13.4059 11.3076 13.4238C11.3031 13.4308 11.3035 13.4317 11.3057 13.4258C11.1883 13.7423 11.2036 14.0926 11.3486 14.3975C11.391 14.4864 11.4785 14.6086 11.7119 14.8164C11.9496 15.028 12.2802 15.279 12.7676 15.6484C12.7926 15.6674 12.8175 15.6857 12.8418 15.7041C13.4028 16.1289 13.7905 16.4232 14.0859 16.7949C14.4137 17.2077 14.6512 17.6848 14.7822 18.1953C14.9002 18.6552 14.9006 19.1422 14.9004 19.8457V22C14.9004 22.4141 14.5644 22.7498 14.1504 22.75C13.7362 22.75 13.4004 22.4142 13.4004 22V19.9395C13.4004 19.1069 13.3942 18.822 13.3291 18.5684C13.2505 18.262 13.1089 17.9752 12.9121 17.7275C12.7493 17.5227 12.5249 17.3465 11.8613 16.8438L11.8379 16.8252C11.3807 16.4788 11.0022 16.1923 10.7148 15.9365C10.4182 15.6726 10.1612 15.3937 9.99414 15.043C9.67473 14.3723 9.64026 13.6008 9.89844 12.9043C9.99082 12.6552 10.1689 12.4269 10.3174 12.2559C10.481 12.0673 10.6822 11.867 10.8916 11.6689C11.1506 11.4237 11.4561 11.1513 11.752 10.8877C11.9232 10.7352 12.0914 10.585 12.2451 10.4453ZM8.17383 16.5205C8.43901 16.2023 8.91226 16.1587 9.23047 16.4238C9.54861 16.689 9.59132 17.1623 9.32617 17.4805L8.3252 18.6816C8.29267 18.7207 8.26017 18.7589 8.22852 18.7969C7.58659 19.5683 7.11577 20.1351 6.45801 20.4434C5.80003 20.7515 5.06241 20.7507 4.05859 20.75H2.75C2.33579 20.75 2 20.4142 2 20C2.00015 19.5859 2.33588 19.25 2.75 19.25H3.9082C5.12976 19.25 5.50393 19.2336 5.82129 19.085C6.13865 18.9363 6.3908 18.6592 7.17285 17.7207L8.17383 16.5205ZM10.1426 5.89551C11.3595 5.80704 12.0961 6.10941 13.4365 6.66113L13.4424 6.66406C14.6266 7.15162 15.6107 8.04559 16.1885 9.20117C16.8165 10.4571 18.1008 11.25 19.5049 11.25H20.75C21.1641 11.25 21.4999 11.5859 21.5 12C21.5 12.4142 21.1642 12.75 20.75 12.75H19.5049C17.5327 12.75 15.7297 11.636 14.8477 9.87207C14.4368 9.05037 13.7311 8.40478 12.8711 8.05078C11.5075 7.4895 11.0747 7.33171 10.251 7.3916C9.1085 7.47473 8.05812 8.05136 5.55664 9.47266L4.12012 10.2891C3.76005 10.4934 3.30219 10.3668 3.09766 10.0068C2.89332 9.64671 3.01986 9.18893 3.37988 8.98438L4.81543 8.16895C4.8733 8.13607 4.93059 8.10353 4.9873 8.07129C7.261 6.77895 8.62102 6.00615 10.1426 5.89551ZM18.25 2C19.6307 2 20.75 3.11929 20.75 4.5C20.75 5.88071 19.6307 7 18.25 7C16.8693 7 15.75 5.88071 15.75 4.5C15.75 3.11929 16.8693 2 18.25 2Z" fill="#1C274C"/>
</svg>
