<svg width="24" height="24" viewBox="0 0 24 24" fill="none" xmlns="http://www.w3.org/2000/svg">
<path d="M6.98633 1.25C7.33761 1.24998 7.56416 1.24986 7.78516 1.27051C8.73644 1.35947 9.63945 1.73301 10.375 2.34277C10.546 2.48448 10.7056 2.64506 10.9541 2.89355L11.5303 3.46973C12.3761 4.31544 12.7015 4.63089 13.0771 4.83984C13.295 4.96105 13.5258 5.05761 13.7656 5.12598C14.1789 5.24378 14.6323 5.25 15.8281 5.25H16.2529C17.5259 5.24998 18.5524 5.25046 19.3643 5.35254C20.2055 5.45834 20.9206 5.68371 21.5078 6.21191C21.6061 6.30032 21.6996 6.39389 21.7881 6.49219C22.3163 7.07948 22.5426 7.79442 22.6484 8.63574C22.7504 9.44763 22.75 10.4742 22.75 11.7471V14.0566C22.75 15.8943 22.7498 17.3501 22.5967 18.4893C22.4391 19.6616 22.1066 20.6101 21.3584 21.3584C20.6101 22.1066 19.6616 22.4391 18.4893 22.5967C17.3501 22.7498 15.8943 22.75 14.0566 22.75H9.94336C8.10571 22.75 6.64991 22.7498 5.51074 22.5967C4.33845 22.4391 3.3899 22.1066 2.6416 21.3584C1.89332 20.6101 1.56096 19.6616 1.40332 18.4893C1.25017 17.3501 1.24998 15.8943 1.25 14.0566V6.85938C1.24989 6.06347 1.24948 5.55664 1.33203 5.11914C1.6946 3.19779 3.19779 1.6946 5.11914 1.33203C5.55664 1.24948 6.06347 1.24989 6.85938 1.25H6.98633ZM6.9502 2.75C6.03356 2.75 5.67873 2.75357 5.39746 2.80664C4.08282 3.05471 3.05471 4.08282 2.80664 5.39746C2.75357 5.67873 2.75 6.03356 2.75 6.9502V14C2.75 15.9067 2.7515 17.2614 2.88965 18.2891C3.02491 19.2951 3.27895 19.8747 3.70215 20.2979C4.12536 20.7211 4.70485 20.9751 5.71094 21.1104C6.73859 21.2484 8.09324 21.25 10 21.25H14C15.9067 21.25 17.2614 21.2484 18.2891 21.1104C19.2952 20.9751 19.8747 20.7211 20.2979 20.2979C20.7211 19.8747 20.9751 19.2952 21.1104 18.2891C21.2484 17.2614 21.25 15.9067 21.25 14V11.7979C21.25 10.4622 21.249 9.53059 21.1602 8.82324C21.0736 8.1346 20.9141 7.76329 20.6729 7.49512C20.6198 7.43622 20.5639 7.38013 20.5049 7.32715C20.2368 7.08595 19.8655 6.9274 19.1768 6.84082C18.4694 6.7519 17.538 6.75 16.2021 6.75H15.7178C14.67 6.75022 13.994 6.75065 13.3545 6.56836C13.0039 6.46841 12.6662 6.32763 12.3477 6.15039C11.7665 5.82705 11.2886 5.34945 10.5479 4.6084L9.91992 3.98047C9.63665 3.6972 9.52746 3.58963 9.41699 3.49805C8.91374 3.08091 8.29633 2.82454 7.64551 2.76367C7.50278 2.75034 7.35022 2.75 6.9502 2.75ZM12 10.25C13.5188 10.25 14.75 11.4812 14.75 13C14.75 14.2588 13.9043 15.32 12.75 15.6465V17.5C12.75 17.9142 12.4142 18.25 12 18.25C11.5858 18.25 11.25 17.9142 11.25 17.5V15.6465C10.0958 15.32 9.25 14.2588 9.25 13C9.25 11.4812 10.4812 10.25 12 10.25ZM12 11.75C11.3097 11.75 10.75 12.3097 10.75 13C10.75 13.6904 11.3097 14.25 12 14.25C12.6904 14.25 13.25 13.6904 13.25 13C13.25 12.3097 12.6904 11.75 12 11.75Z" fill="#48465C"/>
</svg>
