<svg width="24" height="24" viewBox="0 0 24 24" fill="none" xmlns="http://www.w3.org/2000/svg">
<path d="M8.99023 1.25019C9.40419 1.24092 9.74737 1.5696 9.75684 1.98359C9.76611 2.39747 9.4383 2.7406 9.02441 2.75019C6.20271 2.8147 4.8733 3.09953 3.99609 3.97675C3.42582 4.54713 3.09881 5.3192 2.92676 6.59882C2.75185 7.90013 2.75 9.61003 2.75 11.9904C2.75 14.3708 2.75183 16.0807 2.92676 17.382C3.09882 18.6618 3.42575 19.4337 3.99609 20.0041C4.56648 20.5745 5.3384 20.9013 6.61816 21.0734C7.91945 21.2483 9.6293 21.2502 12.0098 21.2502C14.3903 21.2502 16.1009 21.2483 17.4023 21.0734C18.6818 20.9013 19.4531 20.5743 20.0234 20.0041C20.9007 19.1269 21.1855 17.7975 21.25 14.9758C21.2597 14.5619 21.6036 14.2339 22.0176 14.2434C22.4315 14.253 22.7595 14.597 22.75 15.0109C22.6868 17.7769 22.4375 19.7118 21.085 21.0646C20.1894 21.9601 19.0477 22.3663 17.6016 22.5607C16.1887 22.7506 14.378 22.7502 12.0674 22.7502H11.9531C9.64234 22.7502 7.83083 22.7506 6.41797 22.5607C4.97198 22.3663 3.83104 21.9601 2.93555 21.0646C2.04007 20.1692 1.63387 19.0283 1.43945 17.5822C1.24952 16.1694 1.24999 14.3587 1.25 12.048V11.9328C1.24999 9.62219 1.24953 7.81143 1.43945 6.39863C1.63386 4.95263 2.04013 3.81172 2.93555 2.91621C4.28844 1.56332 6.22381 1.31344 8.99023 1.25019ZM17.2607 1.25019C20.2895 1.25027 22.75 3.69701 22.75 6.72089C22.7498 9.74458 20.2893 12.1905 17.2607 12.1906C16.9767 12.1906 16.5341 12.1594 16.0811 12.0656C15.8404 12.0158 15.5615 11.9413 15.291 11.8264L15.1455 11.9709C15.1843 12.025 15.2242 12.0863 15.2617 12.1555C15.2659 12.162 15.2698 12.1695 15.2744 12.1769C15.298 12.2149 15.3284 12.2658 15.3604 12.3283C15.4235 12.4517 15.5002 12.6285 15.5518 12.8439C15.6574 13.2857 15.658 13.9077 15.2246 14.5119L15.2197 14.5187L15.2148 14.5266C14.9682 14.854 14.5035 15.2511 13.8701 15.3713C13.6339 15.416 13.3917 15.4199 13.1484 15.3771C13.1172 15.6622 13.0157 15.9678 12.7998 16.2687L12.7949 16.2756L12.7891 16.2824C12.5214 16.6378 12.0609 16.9689 11.5049 17.0754C11.1118 17.1507 10.6916 17.1093 10.291 16.9152L9.96387 17.2404C9.51153 17.6909 8.9716 17.8003 8.50684 17.7316C8.07945 17.6685 7.72746 17.4603 7.51563 17.2795C7.50104 17.267 7.48625 17.2539 7.47266 17.2404L6.81152 16.5822C6.32963 16.1022 6.18887 15.538 6.27246 15.0266C6.34845 14.5623 6.59802 14.1953 6.81152 13.9826L12.1631 8.65351C12.1403 8.59858 12.1168 8.5398 12.0938 8.47773C11.934 8.04819 11.7715 7.43653 11.7715 6.72089C11.7715 3.69696 14.2318 1.25019 17.2607 1.25019ZM17.2607 2.75019C15.0545 2.75019 13.2715 4.53117 13.2715 6.72089C13.2716 7.21226 13.3844 7.64309 13.5 7.95429C13.5574 8.10863 13.6139 8.22969 13.6543 8.30879C13.6743 8.34797 13.6896 8.37687 13.6992 8.39375L13.709 8.41035C13.8942 8.70553 13.8504 9.08926 13.6035 9.33515L7.87012 15.0451C7.85538 15.0598 7.82707 15.0938 7.80078 15.1408C7.775 15.187 7.75903 15.2316 7.75293 15.2687C7.74739 15.3026 7.74989 15.3309 7.75879 15.3586C7.76758 15.3859 7.79194 15.4419 7.87012 15.5197L8.50391 16.1506C8.52284 16.1647 8.55262 16.1842 8.58984 16.2023C8.63863 16.2262 8.68638 16.2413 8.72656 16.2473C8.76435 16.2528 8.78961 16.2497 8.80762 16.2443C8.82285 16.2397 8.85622 16.2267 8.90527 16.1779L9.67676 15.4094C9.96929 15.118 10.4427 15.1182 10.7354 15.4094C10.8503 15.5238 10.9464 15.5722 11.0146 15.593C11.0836 15.6141 11.1522 15.6162 11.2227 15.6027C11.379 15.5728 11.5215 15.4686 11.5869 15.3859C11.677 15.2555 11.6741 15.1421 11.6309 15.0129C11.6068 14.9412 11.5722 14.8759 11.542 14.8283C11.5276 14.8056 11.5152 14.7898 11.5088 14.7814C11.5075 14.7797 11.5065 14.7774 11.5059 14.7766C11.2562 14.4787 11.2746 14.038 11.5508 13.7629L11.7715 13.5432C12.0642 13.2521 12.5376 13.252 12.8301 13.5432C13.214 13.9254 13.4682 13.9208 13.5908 13.8977C13.764 13.8648 13.9252 13.7402 14.0107 13.6301C14.1232 13.4689 14.1244 13.3249 14.0928 13.1926C14.0754 13.1201 14.0482 13.0565 14.0254 13.0119C14.0145 12.9907 14.0054 12.976 14.001 12.9689L14 12.967L13.9717 12.9269L13.9453 12.8752C13.9358 12.8562 13.9204 12.8329 13.8721 12.7795C13.8705 12.7777 13.8675 12.7741 13.8633 12.7697C13.8262 12.7307 13.6961 12.5937 13.6162 12.4504C13.4796 12.2053 13.4411 11.9073 13.5596 11.6027C13.651 11.368 13.8198 11.1739 13.9756 11.0187L14.6367 10.3605C14.9108 10.0876 15.3479 10.0676 15.6455 10.3146C15.7651 10.4139 16.0205 10.5214 16.3848 10.5969C16.727 10.6677 17.0672 10.6906 17.2607 10.6906C19.4667 10.6905 21.2498 8.91037 21.25 6.72089C21.25 4.53122 19.4669 2.75027 17.2607 2.75019ZM17.2607 4.32441C18.5851 4.32449 19.6641 5.39448 19.6641 6.72089C19.6638 8.04711 18.5849 9.1173 17.2607 9.11738C15.9365 9.11738 14.8577 8.04716 14.8574 6.72089C14.8574 5.39443 15.9363 4.32441 17.2607 4.32441ZM17.2607 5.82441C16.7589 5.82441 16.3574 6.22864 16.3574 6.72089C16.3577 7.21295 16.7591 7.61738 17.2607 7.61738C17.7622 7.6173 18.1638 7.2129 18.1641 6.72089C18.1641 6.22869 17.7624 5.82449 17.2607 5.82441Z" fill="#1C274C"/>
</svg>
