<svg width="24" height="24" viewBox="0 0 24 24" fill="none" xmlns="http://www.w3.org/2000/svg">
<path d="M12 1.25C17.9578 1.25 22.75 6.21879 22.75 12.3008V19.7227C22.75 21.5692 20.8373 22.8458 19.1572 21.9805C18.4756 21.6295 17.6649 21.6809 17.0283 22.1182C15.8014 22.9606 14.1986 22.9606 12.9717 22.1182L12.6191 21.876C12.243 21.6177 11.757 21.6177 11.3809 21.876L11.0283 22.1182C9.80138 22.9606 8.19866 22.9606 6.97168 22.1182C6.33505 21.6809 5.52437 21.6295 4.84277 21.9805C3.16263 22.8458 1.25 21.5692 1.25 19.7227V12.3008C1.25 6.21879 6.04216 1.25 12 1.25ZM12 2.75C6.91215 2.75 2.75 7.00503 2.75 12.3008V19.7227C2.75 20.5209 3.53994 20.965 4.15625 20.6475C5.33062 20.0428 6.73044 20.1335 7.82031 20.8818C8.53574 21.3731 9.46426 21.3731 10.1797 20.8818L10.5322 20.6396C11.4198 20.0301 12.5802 20.0301 13.4678 20.6396L13.8203 20.8818C14.5357 21.3731 15.4643 21.3731 16.1797 20.8818C17.2696 20.1335 18.6693 20.0428 19.8438 20.6475C20.4601 20.965 21.25 20.5209 21.25 19.7227V12.3008C21.25 7.00503 17.0879 2.75 12 2.75ZM14.5537 14.3975C14.8864 14.1509 15.356 14.221 15.6025 14.5537C15.8491 14.8865 15.779 15.356 15.4463 15.6025C14.4739 16.3232 13.2849 16.75 12 16.75C10.7151 16.75 9.52607 16.3232 8.55371 15.6025C8.22102 15.356 8.15097 14.8865 8.39746 14.5537C8.64405 14.221 9.11354 14.151 9.44629 14.3975C10.1746 14.9372 11.0541 15.25 12 15.25C12.9459 15.25 13.8253 14.9373 14.5537 14.3975ZM9 8C9.55228 8 10 8.67157 10 9.5C10 10.3284 9.55228 11 9 11C8.44772 11 8 10.3284 8 9.5C8 8.67157 8.44772 8 9 8ZM15 8C15.5523 8 16 8.67157 16 9.5C16 10.3284 15.5523 11 15 11C14.4477 11 14 10.3284 14 9.5C14 8.67157 14.4477 8 15 8Z" fill="#48465C"/>
</svg>
