<svg width="24" height="24" viewBox="0 0 24 24" fill="none" xmlns="http://www.w3.org/2000/svg">
<path d="M12 1.25C17.9371 1.25 22.75 6.06294 22.75 12C22.75 17.9371 17.9371 22.75 12 22.75C6.06294 22.75 1.25 17.9371 1.25 12C1.25 6.06294 6.06294 1.25 12 1.25ZM19.1846 13.75C18.7217 13.75 18.5023 13.9696 18.0674 14.4844C18.0572 14.4966 18.0466 14.5089 18.0361 14.5215C17.6257 15.0082 17.0006 15.7498 15.8057 15.75C15.0985 15.75 14.4895 15.4934 14.0029 15.1709C13.4234 15.5376 12.7365 15.75 12 15.75C10.9043 15.75 9.91806 15.2805 9.23242 14.5312C8.92198 14.7386 8.5685 14.9523 8.19238 15.1416C7.55116 15.4645 6.77639 15.75 6 15.75C4.98754 15.75 3.95393 15.262 3.17969 14.793C4.36398 18.5364 7.86487 21.25 12 21.25C16.1704 21.25 19.6961 18.4902 20.8506 14.6973C20.4093 14.1989 19.8196 13.7502 19.1846 13.75ZM12 2.75C10.2299 2.75 8.57571 3.24704 7.16992 4.10938L7.53027 4.46973C7.82316 4.76262 7.82316 5.23738 7.53027 5.53027C7.23738 5.82316 6.76262 5.82316 6.46973 5.53027L5.94531 5.00684C4.94027 5.87777 4.12484 6.9617 3.56934 8.18848C3.97974 8.16938 4.32938 8.48449 4.35254 8.89551L4.43164 10.3076C4.45468 10.7212 4.1381 11.0756 3.72461 11.0986C3.31109 11.1217 2.95673 10.8051 2.93359 10.3916L2.92383 10.207C2.80991 10.787 2.75 11.3866 2.75 12C2.75 12.2263 2.75844 12.4507 2.77441 12.6729C2.79544 12.69 2.81766 12.7081 2.84082 12.7266C3.06092 12.9025 3.37064 13.1373 3.73145 13.3701C4.48897 13.8587 5.33178 14.25 6 14.25C6.43548 14.25 6.96359 14.0816 7.51758 13.8027C7.85431 13.6331 8.17679 13.4349 8.46094 13.2422C8.32447 12.8534 8.25 12.4354 8.25 12C8.25 9.92893 9.92893 8.25 12 8.25C14.0711 8.25 15.75 9.92893 15.75 12C15.75 12.771 15.5172 13.4881 15.1182 14.084C15.341 14.19 15.5717 14.25 15.8057 14.25C16.2684 14.2499 16.4872 14.0303 16.9219 13.5156C16.9323 13.5033 16.9434 13.4912 16.9541 13.4785C17.3155 13.0498 17.8434 12.4238 18.7803 12.2803C18.6519 12.2411 18.5317 12.1667 18.4365 12.0586C18.1629 11.7477 18.1931 11.2738 18.5039 11L20.1816 9.52246C20.3759 9.35139 20.6342 9.29876 20.8672 9.35938C20.636 8.58196 20.3059 7.84697 19.8906 7.16992L19.5303 7.53027C19.2374 7.82316 18.7626 7.82316 18.4697 7.53027C18.1768 7.23739 18.1768 6.76261 18.4697 6.46973L18.9932 5.94531C17.2972 3.98807 14.7932 2.75 12 2.75ZM12 9.75C10.7574 9.75 9.75 10.7574 9.75 12C9.75 13.2426 10.7574 14.25 12 14.25C13.2426 14.25 14.25 13.2426 14.25 12C14.25 10.7574 13.2426 9.75 12 9.75ZM5.89453 11.0576C6.13916 10.7234 6.60911 10.6499 6.94336 10.8945C7.27761 11.1392 7.3501 11.6092 7.10547 11.9434L6.27051 13.084C6.02589 13.4183 5.55594 13.4916 5.22168 13.2471C4.88742 13.0025 4.81493 12.5325 5.05957 12.1982L5.89453 11.0576ZM19.4951 12.126C19.4341 12.1796 19.3668 12.2215 19.2959 12.252C20.0514 12.2808 20.6929 12.599 21.1982 12.9795C21.2321 12.6576 21.25 12.3308 21.25 12C21.25 11.5466 21.2174 11.1009 21.1543 10.665L19.4951 12.126ZM16.6143 8.22754C17.0281 8.2081 17.38 8.52765 17.3994 8.94141L17.4658 10.3535C17.4853 10.7672 17.1654 11.119 16.752 11.1387C16.3383 11.1582 15.9864 10.8383 15.9668 10.4248L15.9004 9.01172C15.8809 8.59809 16.2007 8.24717 16.6143 8.22754ZM5.89648 7.17383C6.27348 7.00246 6.71815 7.16899 6.88965 7.5459L7.47559 8.83301C7.64699 9.2101 7.47962 9.65477 7.10254 9.82617C6.72546 9.99754 6.28078 9.83116 6.10938 9.4541L5.52441 8.16699C5.35306 7.79004 5.51966 7.34536 5.89648 7.17383ZM10.3057 6.27539C10.7057 6.16819 11.1173 6.40566 11.2246 6.80566C11.3319 7.2057 11.0943 7.61734 10.6943 7.72461L9.32812 8.09082C8.92814 8.19797 8.51651 7.96045 8.40918 7.56055C8.302 7.16058 8.53959 6.74897 8.93945 6.6416L10.3057 6.27539ZM15.4004 4.5498C15.649 4.21871 16.1189 4.15194 16.4502 4.40039C16.7813 4.64898 16.848 5.11893 16.5996 5.4502L15.0996 7.4502C14.851 7.78129 14.3811 7.84806 14.0498 7.59961C13.7187 7.35102 13.652 6.88107 13.9004 6.5498L15.4004 4.5498ZM10.4697 3.46973C10.7626 3.17684 11.2374 3.17684 11.5303 3.46973L12.5303 4.46973C12.8232 4.76261 12.8232 5.23739 12.5303 5.53027C12.2374 5.82316 11.7626 5.82316 11.4697 5.53027L10.4697 4.53027C10.1768 4.23739 10.1768 3.76261 10.4697 3.46973Z" fill="#1C274C"/>
</svg>
