<svg width="24" height="24" viewBox="0 0 24 24" fill="none" xmlns="http://www.w3.org/2000/svg">
<path d="M4.87537 2.22266C6.28787 1.40715 7.86325 1.12039 9.36755 1.30273C11.5514 1.56749 13.5917 2.82175 14.7777 4.87598C15.2341 5.66645 15.525 6.50818 15.6605 7.36035C15.7568 7.34931 15.8533 7.33925 15.9486 7.33008C17.1716 7.21246 18.3428 7.23991 19.3051 7.31348C21.1298 7.453 22.5472 8.86962 22.6869 10.6943C22.7605 11.6567 22.787 12.8286 22.6693 14.0518C22.4682 16.1427 21.833 18.4945 20.1635 20.1641C18.4939 21.8333 16.1429 22.4687 14.0521 22.6699C12.8289 22.7876 11.6571 22.7601 10.6947 22.6865C8.86987 22.547 7.4524 21.1295 7.31287 19.3047C7.23932 18.3424 7.2128 17.1711 7.33044 15.9482C7.33967 15.8524 7.34963 15.756 7.36072 15.6592C5.28007 15.3268 3.35878 14.0929 2.22205 12.124C0.220675 8.65714 1.40866 4.22443 4.87537 2.22266ZM8.75037 17.7539C8.75241 18.2643 8.7752 18.7489 8.80896 19.1904C8.89204 20.277 9.72235 21.1082 10.809 21.1914C11.2506 21.2252 11.736 21.248 12.2465 21.25L8.75037 17.7539ZM15.7435 8.86133C13.9169 9.08211 12.1293 9.66414 10.8969 10.8965C9.66436 12.1289 9.08149 13.9173 8.86072 15.7441L14.2562 21.1387C16.0829 20.9179 17.8705 20.3358 19.1029 19.1035C20.3354 17.871 20.9182 16.0827 21.139 14.2559L15.7435 8.86133ZM16.9701 11.9697C17.263 11.677 17.7378 11.6769 18.0306 11.9697C18.3233 12.2626 18.3233 12.7374 18.0306 13.0303L17.5609 13.5L18.0306 13.9697C18.3233 14.2626 18.3233 14.7374 18.0306 15.0303C17.7378 15.3231 17.263 15.323 16.9701 15.0303L16.5004 14.5605L16.0609 15L16.5306 15.4697C16.8233 15.7626 16.8233 16.2374 16.5306 16.5303C16.2378 16.8231 15.763 16.823 15.4701 16.5303L15.0004 16.0605L14.5609 16.5L15.0306 16.9697C15.3233 17.2626 15.3233 17.7374 15.0306 18.0303C14.7378 18.3231 14.263 18.323 13.9701 18.0303L13.5004 17.5605L13.0306 18.0303C12.7378 18.3231 12.263 18.323 11.9701 18.0303C11.6772 17.7374 11.6772 17.2626 11.9701 16.9697L12.4398 16.5L11.9701 16.0303C11.6772 15.7374 11.6772 15.2626 11.9701 14.9697C12.263 14.677 12.7378 14.6769 13.0306 14.9697L13.5004 15.4395L13.9398 15L13.4701 14.5303C13.1772 14.2374 13.1772 13.7626 13.4701 13.4697C13.763 13.177 14.2378 13.1769 14.5306 13.4697L15.0004 13.9395L15.4398 13.5L14.9701 13.0303C14.6772 12.7374 14.6772 12.2626 14.9701 11.9697C15.263 11.677 15.7378 11.6769 16.0306 11.9697L16.5004 12.4395L16.9701 11.9697ZM3.00037 6.8252C2.55321 8.29471 2.6924 9.93882 3.52087 11.374C4.3102 12.7413 5.57663 13.6622 6.98962 14.0469C6.974 13.9069 6.95393 13.7529 6.92712 13.5869C6.78542 12.709 6.46797 11.492 5.76501 10.1592C5.0625 8.82721 4.26141 7.92319 3.64587 7.35742C3.39285 7.12487 3.17091 6.94965 3.00037 6.8252ZM8.48474 2.75C7.51284 2.75155 6.52837 3.00014 5.62537 3.52148C4.78594 4.00618 4.11511 4.671 3.63318 5.43848C3.67019 5.46301 3.71099 5.49038 3.75427 5.52051C3.984 5.68044 4.29949 5.92019 4.6615 6.25293C5.3863 6.91913 6.29958 7.95628 7.09216 9.45898C7.64153 10.5006 7.98332 11.4835 8.19568 12.3242C8.57985 11.4177 9.11021 10.562 9.8363 9.83594C10.1427 9.52952 10.4722 9.25801 10.8187 9.01758C10.5091 8.58528 10.2007 8.09395 9.90857 7.54004C9.11657 6.03832 8.75496 4.66004 8.59216 3.65137C8.53621 3.30457 8.50337 3.00085 8.48474 2.75ZM21.2504 12.2461C21.2483 11.7356 21.2246 11.2511 21.1908 10.8096C21.1077 9.72282 20.2775 8.89168 19.1908 8.80859C18.7493 8.77484 18.2647 8.75205 17.7543 8.75L21.2504 12.2461ZM10.0736 3.41309C10.2153 4.29094 10.5319 5.50813 11.2347 6.84082C11.5248 7.39067 11.8318 7.86733 12.1351 8.27734C12.7965 7.97956 13.489 7.76283 14.181 7.60742C14.0746 6.92889 13.8436 6.25783 13.4789 5.62598C12.6895 4.25863 11.4233 3.33774 10.0101 2.95312C10.0258 3.09299 10.0468 3.24704 10.0736 3.41309Z" fill="#1C274C"/>
</svg>
