<svg width="24" height="24" viewBox="0 0 24 24" fill="none" xmlns="http://www.w3.org/2000/svg">
<path d="M4.87524 2.22266C6.28774 1.40715 7.86313 1.12039 9.36743 1.30273C11.5512 1.56745 13.5916 2.82099 14.7776 4.875C15.2341 5.66557 15.5249 6.50806 15.6604 7.36035C15.7567 7.34931 15.8532 7.33925 15.9485 7.33008C17.1715 7.21245 18.3427 7.23992 19.3049 7.31348C21.1297 7.453 22.5471 8.86962 22.6868 10.6943C22.7604 11.6567 22.7879 12.8286 22.6702 14.0518C22.4691 16.1427 21.8338 18.4945 20.1643 20.1641C18.4948 21.8336 16.143 22.4687 14.052 22.6699C12.8288 22.7876 11.657 22.7601 10.6946 22.6865C8.8698 22.5469 7.45325 21.1295 7.31372 19.3047C7.24017 18.3424 7.21268 17.1711 7.33032 15.9482C7.33954 15.8524 7.34951 15.756 7.3606 15.6592C5.27999 15.3267 3.35864 14.0929 2.22192 12.124C0.220598 8.65717 1.40861 4.22444 4.87524 2.22266ZM8.75024 17.7539C8.75228 18.2643 8.77508 18.7489 8.80884 19.1904C8.89192 20.277 9.72228 21.1082 10.8088 21.1914C11.2504 21.2252 11.7358 21.248 12.2463 21.25L8.75024 17.7539ZM15.7434 8.86133C13.9168 9.08212 12.1292 9.66412 10.8967 10.8965C9.66424 12.1289 9.08234 13.9173 8.86157 15.7441L14.2561 21.1387C16.0827 20.9179 17.8704 20.3357 19.1028 19.1035C20.3353 17.871 20.9181 16.0827 21.1389 14.2559L15.7434 8.86133ZM16.97 11.9697C17.2629 11.6769 17.7376 11.6769 18.0305 11.9697C18.3232 12.2626 18.3233 12.7374 18.0305 13.0303L17.5608 13.5L18.0305 13.9697C18.3232 14.2626 18.3233 14.7374 18.0305 15.0303C17.7377 15.3231 17.2629 15.323 16.97 15.0303L16.5002 14.5605L16.0608 15L16.5305 15.4697C16.8232 15.7626 16.8233 16.2374 16.5305 16.5303C16.2377 16.8231 15.7629 16.823 15.47 16.5303L15.0002 16.0605L14.5608 16.5L15.0305 16.9697C15.3232 17.2626 15.3233 17.7374 15.0305 18.0303C14.7377 18.3231 14.2629 18.323 13.97 18.0303L13.5002 17.5605L13.0305 18.0303C12.7377 18.3231 12.2629 18.323 11.97 18.0303C11.6771 17.7374 11.6771 17.2626 11.97 16.9697L12.4397 16.5L11.97 16.0303C11.6771 15.7374 11.6771 15.2626 11.97 14.9697C12.2629 14.6769 12.7376 14.6769 13.0305 14.9697L13.5002 15.4395L13.9397 15L13.47 14.5303C13.1771 14.2374 13.1771 13.7626 13.47 13.4697C13.7629 13.1769 14.2376 13.1769 14.5305 13.4697L15.0002 13.9395L15.4397 13.5L14.97 13.0303C14.6771 12.7374 14.6771 12.2626 14.97 11.9697C15.2629 11.6769 15.7376 11.6769 16.0305 11.9697L16.5002 12.4395L16.97 11.9697ZM3.00024 6.8252C2.55306 8.29483 2.69306 9.93874 3.52173 11.374C4.31104 12.7412 5.57655 13.6622 6.9895 14.0469C6.97388 13.9069 6.95381 13.7529 6.927 13.5869C6.7853 12.709 6.46786 11.492 5.76489 10.1592C5.06238 8.82721 4.26129 7.92319 3.64575 7.35742C3.39275 7.12489 3.17078 6.94964 3.00024 6.8252ZM8.48462 2.75C7.51275 2.75157 6.52822 3.00015 5.62524 3.52148C4.78586 4.00618 4.11497 4.67102 3.63306 5.43848C3.67009 5.46302 3.71084 5.49036 3.75415 5.52051C3.98388 5.68043 4.29935 5.92017 4.66138 6.25293C5.38617 6.91913 6.29945 7.95628 7.09204 9.45898C7.64141 10.5006 7.9832 11.4835 8.19556 12.3242C8.57973 11.4177 9.11009 10.562 9.83618 9.83594C10.1426 9.52952 10.4721 9.25801 10.8186 9.01758C10.509 8.58528 10.2006 8.09395 9.90845 7.54004C9.11646 6.03834 8.75484 4.66003 8.59204 3.65137C8.53609 3.30457 8.50325 3.00085 8.48462 2.75ZM21.2502 12.2461C21.2481 11.7356 21.2245 11.2511 21.1907 10.8096C21.1076 9.72282 20.2774 8.89168 19.1907 8.80859C18.7492 8.77484 18.2645 8.75204 17.7542 8.75L21.2502 12.2461ZM10.0735 3.41309C10.2152 4.29097 10.5327 5.50809 11.2356 6.84082C11.5256 7.39054 11.8318 7.86741 12.135 8.27734C12.7964 7.97957 13.4889 7.76283 14.1809 7.60742C14.0745 6.92874 13.8436 6.25698 13.4788 5.625C12.6893 4.25784 11.4231 3.33771 10.01 2.95312C10.0257 3.09299 10.0467 3.24704 10.0735 3.41309Z" fill="#48465C"/>
</svg>
