<svg width="24" height="24" viewBox="0 0 24 24" fill="none" xmlns="http://www.w3.org/2000/svg">
<path d="M2.57324 14.4121C2.89783 14.1549 3.36969 14.2098 3.62695 14.5342C3.88419 14.8589 3.82954 15.3307 3.50488 15.5879C2.93143 16.0424 2.75001 16.443 2.75 16.75C2.75 16.993 2.86007 17.2883 3.19043 17.6299C3.52417 17.975 4.04614 18.3256 4.75586 18.6475C6.01007 19.2162 7.74372 19.6463 9.75 19.834V19.375C9.75001 19.0807 9.92244 18.814 10.1904 18.6924C10.4584 18.5709 10.7727 18.6168 10.9941 18.8105L12.4941 20.123C12.6568 20.2654 12.75 20.4713 12.75 20.6875C12.75 20.9037 12.6568 21.1096 12.4941 21.252L10.9941 22.5645C10.7727 22.7582 10.4584 22.8041 10.1904 22.6826C9.92243 22.561 9.75 22.2943 9.75 22V21.3408C7.56512 21.1491 5.60902 20.6809 4.13574 20.0127C3.32213 19.6437 2.62047 19.1982 2.1123 18.6729C1.60067 18.1439 1.25 17.494 1.25 16.75C1.25001 15.7999 1.81633 15.0119 2.57324 14.4121ZM20.373 14.5342C20.6303 14.2097 21.1021 14.1549 21.4268 14.4121C22.1837 15.0119 22.75 15.7999 22.75 16.75C22.75 18.1281 21.5816 19.1608 20.2031 19.8516C18.7615 20.5739 16.7904 21.0851 14.5752 21.3096C14.1633 21.3511 13.7957 21.0506 13.7539 20.6387C13.7125 20.2268 14.0129 19.8591 14.4248 19.8174C16.5221 19.6048 18.3013 19.1269 19.5312 18.5107C20.8244 17.8627 21.25 17.2066 21.25 16.75C21.25 16.443 21.0686 16.0424 20.4951 15.5879C20.1704 15.3307 20.1158 14.8589 20.373 14.5342ZM12.5547 1.25C13.9222 1.24998 15.0246 1.24968 15.8916 1.36621C16.7917 1.48723 17.5495 1.74671 18.1514 2.34863C18.7533 2.95055 19.0128 3.7083 19.1338 4.6084C19.2503 5.47534 19.25 6.57782 19.25 7.94531V16.002C19.25 16.3556 19.2497 16.6899 19.248 17.0039C19.2456 17.4181 18.9083 17.7523 18.4941 17.75C18.08 17.7477 17.7459 17.4102 17.748 16.9961C17.7497 16.6864 17.75 16.3555 17.75 16V8C17.75 6.56485 17.7479 5.5639 17.6465 4.80859C17.5478 4.07482 17.3676 3.68594 17.0908 3.40918C16.8141 3.13249 16.4258 2.95218 15.6924 2.85352C14.937 2.75196 13.9354 2.75 12.5 2.75H11.5C10.0649 2.75 9.0639 2.75201 8.30859 2.85352C7.57481 2.95217 7.18594 3.13242 6.90918 3.40918C6.63242 3.68594 6.45217 4.07482 6.35352 4.80859C6.25201 5.5639 6.25 6.56485 6.25 8V16C6.25 16.3555 6.25022 16.6864 6.25195 16.9961C6.25409 17.4102 5.91997 17.7477 5.50586 17.75C5.09168 17.7523 4.75426 17.4181 4.75195 17.0039C4.7502 16.6897 4.75 16.355 4.75 16.001V7.94531C4.74998 6.57782 4.74968 5.47534 4.86621 4.6084C4.98723 3.70829 5.24671 2.95055 5.84863 2.34863C6.45055 1.74671 7.20829 1.48723 8.1084 1.36621C8.97533 1.24968 10.0778 1.24998 11.4453 1.25H12.5547ZM15 4.25C15.4142 4.25 15.75 4.58579 15.75 5C15.75 5.41422 15.4142 5.75 15 5.75H9C8.58579 5.75 8.25 5.41422 8.25 5C8.25 4.58579 8.58579 4.25 9 4.25H15Z" fill="#48465C"/>
</svg>
