<svg width="24" height="24" viewBox="0 0 24 24" fill="none" xmlns="http://www.w3.org/2000/svg">
<path d="M7.53223 6.25C7.97201 6.24998 8.3518 6.25011 8.66309 6.27832C8.99211 6.30818 9.31793 6.37447 9.625 6.55176C9.96693 6.7492 10.2508 7.03307 10.4482 7.375C10.6255 7.68207 10.6919 8.00788 10.7217 8.33691C10.7499 8.64821 10.75 9.02799 10.75 9.46777V18.5322C10.75 18.972 10.7499 19.3519 10.7217 19.6631C10.6919 19.9921 10.6255 20.318 10.4482 20.625C10.2508 20.9669 9.96692 21.2508 9.625 21.4482C9.31793 21.6255 8.99212 21.6919 8.66309 21.7217C8.3518 21.7499 7.97201 21.75 7.53223 21.75H7.46777C7.02799 21.75 6.6482 21.7499 6.33691 21.7217C6.00788 21.6919 5.68207 21.6255 5.375 21.4482C5.03308 21.2508 4.7492 20.9669 4.55176 20.625C4.37448 20.318 4.30818 19.9921 4.27832 19.6631C4.25011 19.3519 4.24998 18.972 4.25 18.5322V9.46777C4.24998 9.02799 4.25011 8.6482 4.27832 8.33691C4.30818 8.00789 4.37447 7.68207 4.55176 7.375C4.74921 7.03307 5.03307 6.74921 5.375 6.55176C5.68207 6.37447 6.00789 6.30818 6.33691 6.27832C6.6482 6.25011 7.02798 6.24998 7.46777 6.25H7.53223ZM7.5 7.75C7.01889 7.75 6.70812 7.75112 6.47266 7.77246C6.24761 7.79286 6.16585 7.827 6.125 7.85059C6.01103 7.91641 5.91641 8.01103 5.85059 8.125C5.827 8.16585 5.79286 8.24761 5.77246 8.47266C5.75112 8.70812 5.75 9.01889 5.75 9.5V18.5C5.75 18.9811 5.75112 19.2918 5.77246 19.5273C5.79286 19.7524 5.827 19.8341 5.85059 19.875C5.91641 19.989 6.01101 20.0836 6.125 20.1494C6.16585 20.173 6.2476 20.2071 6.47266 20.2275C6.70812 20.2489 7.01889 20.25 7.5 20.25C7.98111 20.25 8.29189 20.2489 8.52734 20.2275C8.7524 20.2071 8.83415 20.173 8.875 20.1494C8.98898 20.0836 9.08359 19.989 9.14941 19.875C9.173 19.8341 9.20713 19.7524 9.22754 19.5273C9.24888 19.2918 9.25 18.9811 9.25 18.5V9.5C9.25 9.01889 9.24888 8.70811 9.22754 8.47266C9.20714 8.2476 9.173 8.16585 9.14941 8.125C9.08359 8.01103 8.98897 7.91641 8.875 7.85059C8.83415 7.827 8.7524 7.79286 8.52734 7.77246C8.29189 7.75112 7.98111 7.75 7.5 7.75ZM16.5322 6.25C16.972 6.24998 17.3518 6.25011 17.6631 6.27832C17.9921 6.30818 18.3179 6.37446 18.625 6.55176C18.9669 6.7492 19.2508 7.03308 19.4482 7.375C19.6255 7.68207 19.6919 8.00788 19.7217 8.33691C19.7499 8.6482 19.75 9.02799 19.75 9.46777V15.5322C19.75 15.972 19.7499 16.3518 19.7217 16.6631C19.6919 16.9921 19.6255 17.3179 19.4482 17.625C19.2508 17.9669 18.9669 18.2508 18.625 18.4482C18.3179 18.6255 17.9921 18.6919 17.6631 18.7217C17.3518 18.7499 16.972 18.75 16.5322 18.75H16.4678C16.028 18.75 15.6482 18.7499 15.3369 18.7217C15.0079 18.6919 14.6821 18.6255 14.375 18.4482C14.0331 18.2508 13.7492 17.9669 13.5518 17.625C13.3745 17.318 13.3081 16.9921 13.2783 16.6631C13.2501 16.3519 13.25 15.972 13.25 15.5322V9.46777C13.25 9.02799 13.2501 8.64821 13.2783 8.33691C13.3081 8.00788 13.3745 7.68207 13.5518 7.375C13.7492 7.03307 14.0331 6.7492 14.375 6.55176C14.6821 6.37446 15.0079 6.30818 15.3369 6.27832C15.6482 6.25011 16.028 6.24998 16.4678 6.25H16.5322ZM16.5 7.75C16.0189 7.75 15.7082 7.75112 15.4727 7.77246C15.2476 7.79286 15.1659 7.827 15.125 7.85059C15.011 7.91641 14.9164 8.01101 14.8506 8.125C14.827 8.16585 14.7929 8.2476 14.7725 8.47266C14.7511 8.70811 14.75 9.01889 14.75 9.5V15.5C14.75 15.9811 14.7511 16.2918 14.7725 16.5273C14.7929 16.7524 14.827 16.8341 14.8506 16.875C14.9164 16.989 15.011 17.0836 15.125 17.1494C15.1659 17.173 15.2476 17.2071 15.4727 17.2275C15.7082 17.2489 16.0189 17.25 16.5 17.25C16.9811 17.25 17.2918 17.2489 17.5273 17.2275C17.7524 17.2071 17.8341 17.173 17.875 17.1494C17.989 17.0836 18.0836 16.989 18.1494 16.875C18.173 16.8341 18.2071 16.7524 18.2275 16.5273C18.2489 16.2918 18.25 15.9811 18.25 15.5V9.5C18.25 9.01889 18.2489 8.70811 18.2275 8.47266C18.2071 8.2476 18.173 8.16585 18.1494 8.125C18.0836 8.01102 17.989 7.91641 17.875 7.85059C17.8341 7.827 17.7524 7.79286 17.5273 7.77246C17.2918 7.75112 16.9811 7.75 16.5 7.75ZM22 2.25C22.4142 2.25 22.75 2.58579 22.75 3C22.75 3.41421 22.4142 3.75 22 3.75H2C1.58579 3.75 1.25 3.41421 1.25 3C1.25 2.58579 1.58579 2.25 2 2.25H22Z" fill="#1C274C"/>
</svg>
