<svg width="24" height="24" viewBox="0 0 24 24" fill="none" xmlns="http://www.w3.org/2000/svg">
<path d="M13 2C16.7712 2 18.6566 2.00031 19.8281 3.17188C20.9997 4.34346 21 6.22878 21 10V14C21 17.7712 20.9997 19.6566 19.8281 20.8281C18.6566 21.9997 16.7712 22 13 22H11C7.22878 22 5.34346 21.9997 4.17188 20.8281C3.00031 19.6566 3 17.7712 3 14V10C3 6.22876 3.00031 4.34345 4.17188 3.17188C5.34345 2.00031 7.22876 2 11 2H13ZM9 17.25C8.58579 17.25 8.25 17.5858 8.25 18C8.25 18.4142 8.58579 18.75 9 18.75H15C15.4142 18.75 15.75 18.4142 15.75 18C15.75 17.5858 15.4142 17.25 15 17.25H9ZM8 13.25C7.58579 13.25 7.25 13.5858 7.25 14C7.25 14.4142 7.58579 14.75 8 14.75H16C16.4142 14.75 16.75 14.4142 16.75 14C16.75 13.5858 16.4142 13.25 16 13.25H8ZM12 4.25C11.5858 4.25 11.25 4.58579 11.25 5V7.25H9C8.58578 7.25 8.25 7.58579 8.25 8C8.25 8.41421 8.58578 8.75 9 8.75H11.25V11C11.25 11.4142 11.5858 11.75 12 11.75C12.4142 11.75 12.75 11.4142 12.75 11V8.75H15C15.4142 8.75 15.75 8.41421 15.75 8C15.75 7.58579 15.4142 7.25 15 7.25H12.75V5C12.75 4.58579 12.4142 4.25 12 4.25Z" fill="#1C274C"/>
</svg>
