<svg width="24" height="24" viewBox="0 0 24 24" fill="none" xmlns="http://www.w3.org/2000/svg">
<path d="M2.57324 14.4121C2.89784 14.1549 3.36969 14.2097 3.62695 14.5342C3.88419 14.8589 3.82954 15.3307 3.50488 15.5879C2.93143 16.0424 2.75 16.443 2.75 16.75C2.75 16.993 2.86007 17.2883 3.19043 17.6299C3.52417 17.975 4.04615 18.3256 4.75586 18.6475C6.01007 19.2162 7.74373 19.6463 9.75 19.834V19.375C9.75 19.0807 9.92243 18.814 10.1904 18.6924C10.4584 18.5709 10.7727 18.6168 10.9941 18.8105L12.4941 20.123C12.6568 20.2654 12.75 20.4712 12.75 20.6875C12.75 20.9038 12.6568 21.1096 12.4941 21.252L10.9941 22.5645C10.7727 22.7582 10.4584 22.8041 10.1904 22.6826C9.92243 22.561 9.75 22.2943 9.75 22V21.3408C7.56512 21.1491 5.60902 20.6809 4.13574 20.0127C3.32213 19.6437 2.62047 19.1982 2.1123 18.6729C1.60067 18.1439 1.25 17.494 1.25 16.75C1.25 15.7999 1.81633 15.0119 2.57324 14.4121ZM20.373 14.5342C20.6303 14.2097 21.1021 14.1549 21.4268 14.4121C22.1836 15.0119 22.75 15.7999 22.75 16.75C22.75 18.1281 21.5816 19.1608 20.2031 19.8516C18.7614 20.5739 16.7904 21.0851 14.5752 21.3096C14.1633 21.3511 13.7957 21.0506 13.7539 20.6387C13.7124 20.2267 14.0128 19.8591 14.4248 19.8174C16.5221 19.6048 18.3013 19.1269 19.5312 18.5107C20.8244 17.8627 21.25 17.2066 21.25 16.75C21.25 16.443 21.0685 16.0424 20.4951 15.5879C20.1704 15.3307 20.1158 14.8589 20.373 14.5342ZM12 1.25C15.7404 1.25 18.75 4.33277 18.75 8.10742C18.75 9.91464 18.2355 11.8497 17.3281 13.5205C16.4221 15.1887 15.0921 16.6516 13.415 17.4355C12.5172 17.8551 11.4828 17.8551 10.585 17.4355C8.90788 16.6516 7.57785 15.1887 6.67188 13.5205C5.76453 11.8497 5.25 9.91464 5.25 8.10742C5.25003 4.33277 8.2596 1.25 12 1.25ZM12 2.75C9.11302 2.75 6.75003 5.13598 6.75 8.10742C6.75 9.64666 7.19329 11.3372 7.99023 12.8047C8.78869 14.2749 9.91002 15.4636 11.2207 16.0762C11.7158 16.3076 12.2842 16.3076 12.7793 16.0762C14.09 15.4636 15.2113 14.2749 16.0098 12.8047C16.8066 11.3372 17.25 9.64667 17.25 8.10742C17.25 5.13598 14.887 2.75 12 2.75ZM12 5.25C13.5188 5.25 14.75 6.48122 14.75 8C14.75 9.51878 13.5188 10.75 12 10.75C10.4812 10.75 9.25 9.51878 9.25 8C9.25 6.48122 10.4812 5.25 12 5.25ZM12 6.75C11.3096 6.75 10.75 7.30964 10.75 8C10.75 8.69036 11.3096 9.25 12 9.25C12.6904 9.25 13.25 8.69036 13.25 8C13.25 7.30964 12.6904 6.75 12 6.75Z" fill="#1C274C"/>
</svg>
