<svg width="24" height="24" viewBox="0 0 24 24" fill="none" xmlns="http://www.w3.org/2000/svg">
<path d="M4.49548 12.9951C5.7326 15.3142 8.01306 16.9928 10.7103 17.4033L8.22888 19.9727C7.68899 20.5316 7.41846 20.8113 7.18982 20.9082C6.66867 21.1287 6.08994 20.9401 5.8158 20.46C5.69566 20.2492 5.65831 19.8689 5.58337 19.1094C5.54105 18.6804 5.51969 18.4658 5.45544 18.2861C5.31164 17.884 5.00983 17.5709 4.62146 17.4219C4.44791 17.3554 4.23997 17.3338 3.82556 17.29C3.0917 17.2124 2.72433 17.1734 2.52087 17.0488C2.05748 16.765 1.87554 16.1664 2.08826 15.627C2.1817 15.3902 2.45151 15.1099 2.99158 14.5508L4.49548 12.9951ZM21.0082 14.5508C21.5484 15.11 21.818 15.3902 21.9115 15.627C22.1242 16.1664 21.9424 16.765 21.4789 17.0488C21.2754 17.1734 20.9081 17.2123 20.1742 17.29C19.7601 17.3338 19.5528 17.3555 19.3793 17.4219C18.9907 17.5709 18.6882 17.8839 18.5443 18.2861C18.4801 18.4658 18.4587 18.6804 18.4164 19.1094C18.3414 19.869 18.3041 20.2492 18.184 20.46C17.9099 20.9401 17.3311 21.1287 16.8099 20.9082C16.5813 20.8112 16.3116 20.5315 15.7719 19.9727L13.2894 17.4033C15.9869 16.9928 18.2681 15.3144 19.5052 12.9951L21.0082 14.5508ZM12.0004 2C15.8662 2.00023 19.0004 5.13415 19.0004 9C19.0004 12.8659 15.8662 15.9998 12.0004 16C8.13438 16 5.00037 12.866 5.00037 9C5.00037 5.13401 8.13438 2 12.0004 2ZM12.0004 6C11.7163 6 11.5259 6.34082 11.1459 7.02246L11.0472 7.19922C10.9395 7.39266 10.8853 7.48985 10.8011 7.55371C10.717 7.61741 10.6121 7.64111 10.4027 7.68848L10.2123 7.73145C9.47434 7.89841 9.10475 7.98238 9.01697 8.26465C8.92952 8.54678 9.18121 8.84081 9.68396 9.42871L9.81384 9.58105C9.95679 9.74821 10.0287 9.83215 10.0609 9.93555C10.0929 10.0388 10.0825 10.1503 10.0609 10.373L10.0404 10.5762C9.96437 11.361 9.92693 11.7532 10.1566 11.9277C10.3865 12.1021 10.7315 11.943 11.4222 11.625L11.601 11.543C11.7974 11.4526 11.8963 11.4072 12.0004 11.4072C12.1043 11.4073 12.2027 11.4527 12.3988 11.543L12.5775 11.625C13.2683 11.9431 13.6132 12.1021 13.8431 11.9277C14.0729 11.7532 14.0354 11.3611 13.9594 10.5762L13.9398 10.373C13.9183 10.1503 13.9069 10.0388 13.9388 9.93555C13.971 9.83215 14.043 9.7482 14.1859 9.58105L14.3158 9.42871C14.8186 8.84072 15.0703 8.54681 14.9828 8.26465C14.895 7.98242 14.5261 7.89835 13.7885 7.73145L13.597 7.68848C13.3876 7.6411 13.2827 7.61745 13.1986 7.55371C13.1145 7.48985 13.0603 7.3927 12.9525 7.19922L12.8539 7.02246C12.4741 6.3412 12.2842 6.00033 12.0004 6Z" fill="#48465C"/>
</svg>
