<svg width="24" height="24" viewBox="0 0 24 24" fill="none" xmlns="http://www.w3.org/2000/svg">
<path d="M15.4946 12C17.1418 12 17.9652 12.0002 18.477 12.5859C18.7624 12.9126 18.8889 13.3505 18.9448 14.001C19.022 14.9016 19.0605 15.3519 18.7641 15.6758C18.5561 15.9027 18.2522 15.9709 17.7504 15.9912V21C17.7504 21.4141 17.4144 21.7498 17.0004 21.75C16.5863 21.75 16.2505 21.4143 16.2504 21V16H7.75043V21C7.75037 21.4141 7.41441 21.7498 7.00043 21.75C6.58625 21.75 6.25048 21.4143 6.25043 21V15.9912C5.74839 15.9709 5.44384 15.9028 5.23578 15.6758C4.9394 15.3519 4.97782 14.9015 5.05511 14.001C5.11093 13.3505 5.23745 12.9126 5.52289 12.5859C6.03463 12.0002 6.85811 12 8.50531 12H15.4946ZM12.0004 3C13.8694 3 14.8043 3.00045 15.5004 3.40234C15.9563 3.66564 16.3349 4.04411 16.5981 4.5C17 5.19615 17.0004 6.13077 17.0004 8V11.0273C16.57 11.0003 16.0859 11 15.5649 11H8.435C7.91435 11 7.43061 11.0004 7.00043 11.0273V8C7.00043 6.13082 6.99991 5.19614 7.40179 4.5C7.6651 4.04394 8.04437 3.66565 8.50043 3.40234C9.19656 3.0005 10.1313 3 12.0004 3Z" fill="#1C274C"/>
</svg>
