<svg width="24" height="24" viewBox="0 0 24 24" fill="none" xmlns="http://www.w3.org/2000/svg">
<path fill-rule="evenodd" clip-rule="evenodd" d="M14.6807 1.32119C15.0552 1.14498 15.5022 1.30602 15.6787 1.68057C15.8551 2.05531 15.694 2.5022 15.3193 2.67861L9.85547 5.2499H14.0566C15.8943 5.24988 17.3501 5.25007 18.4893 5.40322C19.6614 5.56085 20.6101 5.89334 21.3584 6.6415C22.1067 7.38986 22.439 8.3392 22.5967 9.51162C22.7497 10.6508 22.75 12.1066 22.75 13.9442V14.0565C22.75 15.8943 22.7498 17.35 22.5967 18.4892C22.439 19.6616 22.1067 20.611 21.3584 21.3593C20.6101 22.1074 19.6614 22.44 18.4893 22.5976C17.3501 22.7507 15.8943 22.7499 14.0566 22.7499H9.94336C8.10571 22.7499 6.6499 22.7508 5.51074 22.5976C4.33857 22.44 3.38989 22.1074 2.6416 21.3593C1.89324 20.611 1.56094 19.6616 1.40332 18.4892C1.25017 17.35 1.24998 15.8943 1.25 14.0565V13.9442C1.24998 12.1066 1.25019 10.6508 1.40332 9.51162C1.56094 8.3392 1.89324 7.38986 2.6416 6.6415C3.3899 5.89332 4.33852 5.56085 5.51074 5.40322C5.7146 5.37582 5.92881 5.35334 6.15332 5.33486C6.16217 5.33026 6.17156 5.32548 6.18066 5.32119L14.6807 1.32119ZM10 6.7499C8.09319 6.7499 6.7386 6.75236 5.71094 6.89053C4.705 7.02577 4.12534 7.27896 3.70215 7.70205C3.27898 8.12522 3.02492 8.70492 2.88965 9.71084C2.75149 10.7384 2.75 12.0933 2.75 13.9999C2.75 15.9064 2.75154 17.2614 2.88965 18.289C3.02491 19.2951 3.27894 19.8755 3.70215 20.2987C4.12533 20.7218 4.70507 20.9751 5.71094 21.1103C6.73859 21.2484 8.09321 21.2499 10 21.2499H14C15.9067 21.2499 17.2614 21.2484 18.2891 21.1103C19.2948 20.9751 19.8747 20.7218 20.2979 20.2987C20.7211 19.8755 20.9752 19.2951 21.1104 18.289C21.2485 17.2614 21.25 15.9064 21.25 13.9999C21.25 12.0933 21.2485 10.7384 21.1104 9.71084C20.9751 8.70492 20.721 8.12522 20.2979 7.70205C19.8747 7.27896 19.2949 7.02577 18.2891 6.89053C17.2614 6.75237 15.9068 6.7499 14 6.7499H10ZM7.5 14.7499C8.7425 14.7499 9.74978 15.7574 9.75 16.9999C9.75 18.2425 8.74264 19.2499 7.5 19.2499C6.25736 19.2499 5.25 18.2425 5.25 16.9999C5.25022 15.7574 6.2575 14.7499 7.5 14.7499ZM7.5 16.2499C7.08593 16.2499 6.75022 16.5859 6.75 16.9999C6.75 17.4141 7.08579 17.7499 7.5 17.7499C7.91421 17.7499 8.25 17.4141 8.25 16.9999C8.24978 16.5859 7.91407 16.2499 7.5 16.2499ZM18 16.2499C18.4141 16.2499 18.7498 16.5859 18.75 16.9999C18.75 17.4141 18.4142 17.7499 18 17.7499H13C12.5858 17.7499 12.25 17.4141 12.25 16.9999C12.2502 16.5859 12.5859 16.2499 13 16.2499H18ZM17 8.2499C18.5187 8.2499 19.7498 9.48128 19.75 10.9999C19.75 12.5187 18.5188 13.7499 17 13.7499H7C5.48122 13.7499 4.25 12.5187 4.25 10.9999C4.25022 9.48128 5.48136 8.2499 7 8.2499H17ZM7 9.7499C6.30978 9.7499 5.75022 10.3097 5.75 10.9999C5.75 11.6902 6.30964 12.2499 7 12.2499H14.25V11.4999C14.2502 11.0859 14.5859 10.7499 15 10.7499C15.4141 10.7499 15.7498 11.0859 15.75 11.4999V12.2499H17C17.6904 12.2499 18.25 11.6902 18.25 10.9999C18.2498 10.3097 17.6903 9.7499 17 9.7499H7Z" fill="#1C274C"/>
</svg>
