<svg width="24" height="24" viewBox="0 0 24 24" fill="none" xmlns="http://www.w3.org/2000/svg">
<path d="M14.5547 3.25C15.9222 3.24998 17.0246 3.24968 17.8916 3.36621C18.7917 3.48723 19.5494 3.74673 20.1514 4.34863C20.7533 4.95055 21.0128 5.70829 21.1338 6.6084C21.2503 7.47534 21.25 8.57782 21.25 9.94531V14.2676C22.0981 14.3889 22.75 15.1184 22.75 16V17C22.75 19.0711 21.0711 20.75 19 20.75H5C2.92893 20.75 1.25 19.0711 1.25 17V16C1.25 15.1184 1.90193 14.3889 2.75 14.2676V9.94531C2.74998 8.57782 2.74968 7.47534 2.86621 6.6084C2.98723 5.70829 3.24671 4.95055 3.84863 4.34863C4.45055 3.74671 5.20829 3.48723 6.1084 3.36621C6.97534 3.24968 8.07782 3.24998 9.44531 3.25H14.5547ZM3 15.75C2.86193 15.75 2.75 15.8619 2.75 16V17C2.75 18.2426 3.75736 19.25 5 19.25H19C20.2426 19.25 21.25 18.2426 21.25 17V16C21.25 15.8619 21.1381 15.75 21 15.75H16.667C16.3966 15.75 16.1333 15.8378 15.917 16L14.9834 16.7002C14.5074 17.0572 13.9281 17.25 13.333 17.25H10.667C10.0719 17.25 9.4926 17.0572 9.0166 16.7002L8.08301 16C7.86668 15.8378 7.60339 15.75 7.33301 15.75H3ZM9.5 4.75C8.06484 4.75 7.0639 4.75201 6.30859 4.85352C5.57481 4.95217 5.18594 5.13242 4.90918 5.40918C4.63242 5.68594 4.45217 6.07482 4.35352 6.80859C4.25201 7.5639 4.25 8.56485 4.25 10V14.25H7.33301C7.92801 14.25 8.5074 14.4428 8.9834 14.7998L9.91699 15.5C10.1333 15.6622 10.3966 15.75 10.667 15.75H13.333C13.6034 15.75 13.8667 15.6622 14.083 15.5L15.0166 14.7998C15.4926 14.4428 16.0719 14.25 16.667 14.25H19.75V10C19.75 8.56485 19.7479 7.5639 19.6465 6.80859C19.5478 6.07482 19.3676 5.68594 19.0908 5.40918C18.8141 5.13249 18.4258 4.95218 17.6924 4.85352C16.937 4.75196 15.9354 4.75 14.5 4.75H9.5Z" fill="#1C274C"/>
</svg>
