<svg width="24" height="24" viewBox="0 0 24 24" fill="none" xmlns="http://www.w3.org/2000/svg">
<path d="M21.9736 8.75C22 9.68873 22 10.7633 22 12V12.2578C21.4336 11.8534 20.7948 11.6798 20.1689 11.5957C19.4555 11.4997 18.5738 11.4999 17.5928 11.5H17.4072C16.4262 11.4999 15.5445 11.4997 14.8311 11.5957C14.052 11.7004 13.2532 11.944 12.5986 12.5986C11.944 13.2532 11.7004 14.052 11.5957 14.8311C11.4997 15.5445 11.4999 16.4262 11.5 17.4072V17.5928C11.4999 18.5738 11.4997 19.4555 11.5957 20.1689C11.6798 20.7948 11.8534 21.4336 12.2578 22H12C7.28598 22 4.92931 21.9996 3.46484 20.5352C2.00038 19.0708 2 16.714 2 12C2 10.7633 1.99993 9.68873 2.02637 8.75H21.9736ZM17.5 13C19.6213 13 20.6818 13.0002 21.3408 13.6592C21.9998 14.3182 22 15.3787 22 17.5C22 19.6213 21.9998 20.6818 21.3408 21.3408C20.6818 21.9998 19.6213 22 17.5 22C15.3787 22 14.3182 21.9998 13.6592 21.3408C13.0002 20.6818 13 19.6213 13 17.5C13 15.3787 13.0002 14.3182 13.6592 13.6592C14.3182 13.0002 15.3787 13 17.5 13ZM17.8975 15.8857C17.8773 15.8276 17.8023 15.8081 17.7588 15.8516L15.96 17.6504C15.8157 17.7946 15.7437 17.8667 15.6816 17.9463C15.6084 18.0401 15.5453 18.1415 15.4941 18.249C15.4508 18.3399 15.4179 18.4365 15.3535 18.6299L15.0137 19.6514C14.9821 19.7466 15.0072 19.851 15.0781 19.9219C15.149 19.9928 15.2534 20.0179 15.3486 19.9863L16.3701 19.6465C16.5635 19.5821 16.6601 19.5492 16.751 19.5059C16.8585 19.4547 16.9599 19.3916 17.0537 19.3184C17.1333 19.2563 17.2054 19.1843 17.3496 19.04L19.1484 17.2412C19.1919 17.1977 19.1724 17.1227 19.1143 17.1025C18.902 17.0289 18.6255 16.8912 18.3672 16.6328C18.1088 16.3745 17.9711 16.098 17.8975 15.8857ZM19.7119 15.2881C19.3279 14.9042 18.7053 14.9042 18.3213 15.2881L18.2637 15.3457C18.2079 15.4015 18.1833 15.4799 18.1973 15.5576C18.206 15.6065 18.2215 15.6778 18.251 15.7627C18.3101 15.9331 18.4224 16.1568 18.6328 16.3672C18.8432 16.5776 19.0669 16.6899 19.2373 16.749C19.3222 16.7785 19.3935 16.794 19.4424 16.8027C19.5201 16.8167 19.5985 16.7921 19.6543 16.7363L19.7119 16.6787C20.0958 16.2947 20.0958 15.6721 19.7119 15.2881ZM6.59863 7.25H2.10449C2.25174 5.48593 2.6072 4.3225 3.46484 3.46484C4.7172 2.21247 6.62195 2.03115 10.0957 2.00488L6.59863 7.25ZM12 2C13.8452 2 15.3293 2.00007 16.54 2.08789L13.0986 7.25H8.40137L11.9014 2H12ZM18.1982 2.30469C19.1919 2.5141 19.9379 2.86756 20.5352 3.46484C21.3928 4.32247 21.7483 5.48603 21.8955 7.25H14.9014L18.1982 2.30469Z" fill="#1C274C"/>
</svg>
