<svg width="24" height="24" viewBox="0 0 24 24" fill="none" xmlns="http://www.w3.org/2000/svg">
<path fill-rule="evenodd" clip-rule="evenodd" d="M7.58466 6.30297C8.35996 6.11994 9.03358 6.43588 9.63935 6.885C10.2256 7.31969 10.9 7.99425 11.7184 8.81274L15.1862 12.2805C16.0049 13.0991 16.6793 13.7743 17.114 14.3606C17.563 14.9663 17.8797 15.6392 17.697 16.4143C17.514 17.1896 16.9291 17.6504 16.2565 17.9914C15.6056 18.3214 14.7004 18.6234 13.6022 18.9895L8.41181 20.719C7.08224 21.1623 6.00341 21.5222 5.16669 21.6711C4.32229 21.8213 3.4649 21.8063 2.8288 21.1702C2.19292 20.5341 2.17766 19.6775 2.32782 18.8332C2.47668 17.9964 2.83664 16.917 3.27997 15.5872L5.01044 10.3967C5.37646 9.29855 5.67754 8.3934 6.00751 7.74242C6.34848 7.06981 6.80938 6.486 7.58466 6.30297ZM6.9538 9.35375C6.79549 9.78411 6.62172 10.3041 6.41278 10.9309L4.72333 15.9993C4.25439 17.4061 3.93163 18.3806 3.80439 19.0959C3.67634 19.816 3.79561 20.0157 3.88935 20.1096C3.98313 20.2033 4.18323 20.3228 4.904 20.1946C5.4943 20.0894 6.26097 19.8516 7.30146 19.508C7.2836 19.4285 7.25921 19.3181 7.23017 19.1838C7.16738 18.8934 7.08254 18.4877 6.99384 18.0247C6.81797 17.1065 6.6204 15.9309 6.55829 14.9836C6.45566 13.4183 6.65567 11.4592 6.87079 9.92602C6.8985 9.7286 6.92586 9.53721 6.9538 9.35375ZM8.6579 8.25317C8.57293 8.72467 8.46141 9.38391 8.35614 10.134C8.14351 11.6494 7.9633 13.4822 8.05536 14.886C8.11112 15.7358 8.29375 16.8356 8.46747 17.7424C8.55349 18.1914 8.63508 18.5858 8.69599 18.8674C8.70897 18.9275 8.72128 18.9823 8.73212 19.0315L11.3669 18.1536C11.2976 17.948 11.2143 17.6833 11.1315 17.3752C10.9326 16.6355 10.7273 15.6179 10.7272 14.5559C10.7272 13.4406 10.9317 12.4228 11.1325 11.6907C11.2335 11.3228 11.3347 11.022 11.4118 10.8108C11.4297 10.7616 11.4465 10.7173 11.4616 10.678L10.7018 9.91821C9.82781 9.04421 9.23185 8.45048 8.74579 8.09008C8.72834 8.07714 8.71078 8.06499 8.69403 8.05297C8.68254 8.11513 8.67072 8.18205 8.6579 8.25317ZM12.5798 12.0881C12.4016 12.7376 12.2272 13.6159 12.2272 14.5559C12.2273 15.1744 12.3126 15.7905 12.4255 16.3342C12.4737 16.5662 12.5269 16.7855 12.5808 16.9856C12.6551 17.2621 12.7289 17.4984 12.7897 17.6789L13.069 17.5862C14.2416 17.1952 15.0391 16.9271 15.5788 16.6536C16.1081 16.3852 16.206 16.2014 16.237 16.0705C16.2679 15.9396 16.2627 15.7313 15.9089 15.2541C15.5485 14.768 14.9549 14.1713 14.0808 13.2971L12.6442 11.8606C12.6227 11.9324 12.6016 12.0087 12.5798 12.0881ZM19.0583 15.3137C19.2678 15.1042 19.6076 15.1042 19.8171 15.3137C20.0263 15.5231 20.0264 15.8631 19.8171 16.0725C19.6076 16.2819 19.2678 16.2818 19.0583 16.0725C18.8489 15.863 18.8489 15.5231 19.0583 15.3137ZM19.3356 11.6077C20.0685 10.958 21.1122 10.7934 22.0095 11.1858L22.3005 11.3127C22.6799 11.4786 22.853 11.9206 22.6872 12.3C22.5213 12.6795 22.0794 12.8528 21.6999 12.6868L21.4079 12.5598C21.0464 12.4018 20.6261 12.4681 20.3308 12.7297C19.5216 13.4473 18.3436 13.5664 17.4069 13.0256L17.194 12.9036C16.8353 12.6965 16.7125 12.2369 16.9196 11.8782C17.1268 11.5197 17.5855 11.3968 17.944 11.6038L18.1569 11.7268C18.5345 11.9448 19.0095 11.8969 19.3356 11.6077ZM16.8063 5.30981C16.8876 4.90376 17.283 4.6407 17.6892 4.72192C18.0953 4.80318 18.3583 5.19857 18.277 5.60473L18.1335 6.32446C17.9352 7.31516 17.2209 8.12409 16.2624 8.4436C15.8148 8.59302 15.4809 8.97103 15.3884 9.43383L15.2448 10.1536C15.1635 10.5596 14.7681 10.8227 14.362 10.7414C13.9562 10.6602 13.6931 10.2656 13.7741 9.85961L13.9177 9.13891C14.1158 8.14821 14.8302 7.33927 15.7888 7.01977C16.2364 6.87043 16.5701 6.49318 16.6628 6.03051L16.8063 5.30981ZM17.4997 9.74145C17.7091 9.53203 18.049 9.53214 18.2585 9.74145C18.4679 9.95092 18.4679 10.2907 18.2585 10.5002C18.049 10.7096 17.7092 10.7097 17.4997 10.5002C17.2904 10.2908 17.2904 9.95088 17.4997 9.74145ZM19.9743 7.04711C20.1363 6.98469 20.3162 6.98469 20.4782 7.04711C20.6166 7.10047 20.7397 7.22271 20.9851 7.46801C21.2304 7.71334 21.3527 7.83645 21.4059 7.97485C21.4683 8.13673 21.4683 8.31588 21.4059 8.47778C21.3527 8.61615 21.2303 8.73935 20.9851 8.98461C20.7397 9.23 20.6166 9.35316 20.4782 9.40649C20.3162 9.46886 20.1363 9.46888 19.9743 9.40649C19.836 9.35312 19.7136 9.22979 19.4684 8.98461C19.223 8.73922 19.0999 8.61619 19.0466 8.47778C18.9843 8.31596 18.9843 8.13666 19.0466 7.97485C19.0999 7.83644 19.223 7.7134 19.4684 7.46801C19.7134 7.22305 19.8361 7.10053 19.9743 7.04711ZM9.89521 2.60864C10.1113 2.25536 10.5731 2.14457 10.9265 2.36059C11.2795 2.5766 11.3911 3.0376 11.1755 3.39086C11.0188 3.64731 11.0577 3.97813 11.2702 4.19067L11.3679 4.28832C11.9565 4.87698 12.1742 5.74242 11.9333 6.5393C11.8134 6.93567 11.3942 7.16011 10.9977 7.04028C10.6013 6.92039 10.3769 6.5012 10.4968 6.10473C10.5776 5.83718 10.505 5.5465 10.3073 5.34887L10.2097 5.25121C9.50718 4.54869 9.377 3.45631 9.89521 2.60864ZM13.9792 4.05785C14.0773 4.02681 14.1828 4.02678 14.2809 4.05785C14.3971 4.0947 14.4978 4.19566 14.6989 4.39672C14.8999 4.5977 15.001 4.69848 15.0378 4.81469C15.0688 4.91281 15.0689 5.01834 15.0378 5.11645C15.001 5.23269 14.9 5.33336 14.6989 5.53442C14.4978 5.73545 14.3971 5.83547 14.2809 5.87231C14.1827 5.90346 14.0774 5.90343 13.9792 5.87231C13.863 5.83547 13.7621 5.7354 13.5612 5.53442C13.3601 5.33336 13.2593 5.23269 13.2224 5.11645C13.1913 5.0183 13.1914 4.91285 13.2224 4.81469C13.2593 4.69847 13.3602 4.59774 13.5612 4.39672C13.7622 4.19566 13.863 4.0947 13.9792 4.05785ZM6.92743 3.94067C7.1369 3.73127 7.47678 3.73122 7.68622 3.94067C7.89561 4.15012 7.8956 4.49001 7.68622 4.69946C7.47677 4.90891 7.1369 4.90887 6.92743 4.69946C6.71796 4.49 6.71796 4.15014 6.92743 3.94067Z" fill="#1C274C"/>
</svg>
