<svg width="24" height="24" viewBox="0 0 24 24" fill="none" xmlns="http://www.w3.org/2000/svg">
<path d="M16.5 1.25C18.2216 1.25 19.5308 2.7645 20.3662 4.62109C21.2334 6.54808 21.75 9.15767 21.75 12C21.75 14.8424 21.2334 17.4519 20.3662 19.3789C19.5308 21.2355 18.2216 22.75 16.5 22.75H7.5C5.7784 22.75 4.46925 21.2355 3.63379 19.3789C2.76664 17.4519 2.25 14.8424 2.25 12C2.25 9.15767 2.76665 6.54808 3.63379 4.62109C4.46925 2.7645 5.7784 1.25 7.5 1.25H16.5ZM7.5 2.75C6.73637 2.75 5.79513 3.47386 5.00195 5.23633C4.24042 6.92862 3.75 9.31951 3.75 12C3.75 14.6805 4.24042 17.0714 5.00195 18.7637C5.79513 20.5261 6.73636 21.25 7.5 21.25C8.26364 21.25 9.20487 20.5261 9.99805 18.7637C10.7596 17.0714 11.25 14.6805 11.25 12C11.25 9.31951 10.7596 6.92862 9.99805 5.23633C9.20487 3.47386 8.26363 2.75 7.5 2.75ZM10.2393 2.75C10.6784 3.28591 11.0551 3.92985 11.3662 4.62109C12.2334 6.54808 12.75 9.15767 12.75 12C12.75 14.8424 12.2334 17.4519 11.3662 19.3789C11.0551 20.0702 10.6784 20.7141 10.2393 21.25H16.5C17.2637 21.25 18.2049 20.5262 18.998 18.7637C19.7596 17.0714 20.25 14.6805 20.25 12C20.25 9.31951 19.7596 6.92862 18.998 5.23633C18.2049 3.47385 17.2637 2.75 16.5 2.75H10.2393ZM7.5 5.25C8.13595 5.25 8.52707 5.7474 8.72949 6.08984C8.96153 6.48243 9.14443 7.00064 9.28809 7.5752C9.5783 8.73606 9.75 10.3003 9.75 12C9.75 13.6997 9.5783 15.264 9.28809 16.4248C9.14443 16.9994 8.96153 17.5176 8.72949 17.9102C8.52707 18.2527 8.13595 18.75 7.5 18.75C6.86405 18.75 6.47293 18.2527 6.27051 17.9102C6.03847 17.5176 5.85557 16.9994 5.71191 16.4248C5.4217 15.264 5.25 13.6997 5.25 12C5.25 10.3003 5.4217 8.73606 5.71191 7.5752C5.85557 7.00064 6.03847 6.48243 6.27051 6.08984C6.47293 5.7474 6.86405 5.25 7.5 5.25ZM7.5 6.96777C7.39046 7.18732 7.27427 7.51032 7.16699 7.93945C6.91434 8.95015 6.75 10.3861 6.75 12C6.75 13.6139 6.91433 15.0499 7.16699 16.0605C7.27427 16.4897 7.39047 16.8126 7.5 17.0322C7.60953 16.8126 7.72573 16.4897 7.83301 16.0605C8.04579 15.2095 8.1962 14.0566 8.23828 12.75H8C7.58579 12.75 7.25 12.4142 7.25 12C7.25 11.5858 7.58579 11.25 8 11.25H8.23828C8.1962 9.94335 8.04578 8.79062 7.83301 7.93945C7.72573 7.51032 7.60954 7.18732 7.5 6.96777Z" fill="#1C274C"/>
</svg>
