<svg width="24" height="24" viewBox="0 0 24 24" fill="none" xmlns="http://www.w3.org/2000/svg">
<path d="M17.25 19.5007H19.5C19.9142 19.5007 20.25 19.8365 20.25 20.2507C20.2499 20.6648 19.9141 21.0007 19.5 21.0007H13.5C13.0859 21.0007 12.7501 20.6648 12.75 20.2507C12.75 19.8365 13.0858 19.5007 13.5 19.5007H15.75V17.7107C15.9964 17.7369 16.2466 17.7507 16.5 17.7507C16.7534 17.7507 17.0036 17.7369 17.25 17.7107V19.5007ZM7.5 11.9998C7.77604 11.9998 7.99983 12.2238 8 12.4998V17.9998C8 19.6567 6.65685 20.9998 5 20.9998C3.34315 20.9998 2 19.6567 2 17.9998V12.4998C2.00017 12.2238 2.22396 11.9998 2.5 11.9998H7.5ZM16.5 4.99976C19.5375 4.99976 21.9998 7.46233 22 10.4998C22 13.5374 19.5376 15.9998 16.5 15.9998C13.4624 15.9998 11 13.5374 11 10.4998C11.0002 7.46233 13.4625 4.99976 16.5 4.99976ZM5.55273 5.1062C6.21763 4.77375 7 5.25735 7 6.00073V10.5007H3V7.00073C3 6.62202 3.21403 6.27562 3.55273 6.1062L5.55273 5.1062Z" fill="#1C274C"/>
</svg>
