<svg width="24" height="24" viewBox="0 0 24 24" fill="none" xmlns="http://www.w3.org/2000/svg">
<path d="M16.4308 4.51172C16.6349 4.27362 16.9656 4.18812 17.2599 4.29688C17.5543 4.40576 17.7501 4.68614 17.7501 5V19C17.7501 19.3139 17.5543 19.5942 17.2599 19.7031C16.9656 19.8119 16.6349 19.7264 16.4308 19.4883L10.4308 12.4883C10.19 12.2075 10.19 11.7925 10.4308 11.5117L16.4308 4.51172ZM12.4308 4.51172C12.7003 4.19739 13.1739 4.16115 13.4884 4.43066C13.8027 4.70027 13.839 5.17386 13.5694 5.48828L7.98741 12L13.5694 18.5117C13.839 18.8261 13.8027 19.2997 13.4884 19.5693C13.174 19.8388 12.7003 19.8026 12.4308 19.4883L6.43077 12.4883C6.19002 12.2074 6.19002 11.7926 6.43077 11.5117L12.4308 4.51172Z" fill="#1C274C"/>
</svg>
