<svg width="24" height="24" viewBox="0 0 24 24" fill="none" xmlns="http://www.w3.org/2000/svg">
<path d="M12.4951 10.4453C12.8015 10.1668 13.2761 10.1888 13.5547 10.4951C13.8334 10.8016 13.8104 11.2761 13.5039 11.5547C13.3243 11.718 13.1459 11.8782 12.9707 12.0342C12.69 12.2841 12.4185 12.5243 12.1719 12.7578C11.9766 12.9426 11.8175 13.1043 11.7012 13.2383C11.6073 13.3464 11.5689 13.4061 11.5576 13.4238C11.5532 13.4308 11.5535 13.4315 11.5557 13.4258C11.4384 13.7423 11.4535 14.0927 11.5986 14.3975C11.641 14.4865 11.7284 14.6085 11.9619 14.8164C12.1996 15.028 12.5302 15.279 13.0176 15.6484C13.0426 15.6674 13.0675 15.6857 13.0918 15.7041C13.6529 16.1289 14.0405 16.4231 14.3359 16.7949C14.6638 17.2077 14.9012 17.6847 15.0322 18.1953C15.1502 18.6553 15.1506 19.142 15.1504 19.8457V22C15.1504 22.4141 14.8144 22.7498 14.4004 22.75C13.9862 22.75 13.6504 22.4142 13.6504 22V19.9395C13.6504 19.1069 13.6442 18.8219 13.5791 18.5684C13.5005 18.262 13.3589 17.9752 13.1621 17.7275C12.9993 17.5226 12.7749 17.3465 12.1113 16.8438L12.0879 16.8252C11.6307 16.4788 11.2522 16.1923 10.9648 15.9365C10.6681 15.6725 10.4112 15.3938 10.2441 15.043C9.92457 14.3722 9.89011 13.6 10.1484 12.9033C10.2408 12.6544 10.419 12.4269 10.5674 12.2559C10.731 12.0673 10.9322 11.867 11.1416 11.6689C11.4008 11.4236 11.7059 11.1504 12.002 10.8867C12.173 10.7342 12.3413 10.585 12.4951 10.4453ZM8.42383 16.5195C8.68904 16.2015 9.16233 16.1588 9.48047 16.4238C9.79849 16.6891 9.84128 17.1623 9.57617 17.4805L8.5752 18.6807C8.5426 18.7198 8.51023 18.7588 8.47852 18.7969C7.83663 19.5683 7.36577 20.1352 6.70801 20.4434C6.05003 20.7515 5.31241 20.7507 4.30859 20.75H3C2.58579 20.75 2.25 20.4142 2.25 20C2.25 19.5858 2.58579 19.25 3 19.25H4.1582C5.37964 19.25 5.75395 19.2335 6.07129 19.085C6.38865 18.9363 6.64082 18.6592 7.42285 17.7207L8.42383 16.5195ZM10.3926 5.89453C11.6095 5.80607 12.3461 6.1094 13.6865 6.66113L13.6924 6.66406C14.8766 7.15165 15.8607 8.04558 16.4385 9.20117C17.0665 10.457 18.3508 11.25 19.7549 11.25H21C21.4142 11.25 21.75 11.5858 21.75 12C21.75 12.4142 21.4142 12.75 21 12.75H19.7549C17.7826 12.75 15.9797 11.6352 15.0977 9.87109C14.6867 9.04952 13.981 8.40475 13.1211 8.05078C11.7575 7.48948 11.3247 7.33074 10.501 7.39062C9.35846 7.47374 8.30824 8.05129 5.80664 9.47266L4.37012 10.2881C4.01 10.4927 3.55225 10.3669 3.34766 10.0068C3.14315 9.64667 3.2698 9.18897 3.62988 8.98438L5.06543 8.16895C5.1234 8.13601 5.18049 8.10261 5.2373 8.07031C7.51094 6.77801 8.87104 6.00517 10.3926 5.89453ZM18.5 1.25C20.2949 1.25 21.75 2.70507 21.75 4.5C21.75 6.29493 20.2949 7.75 18.5 7.75C16.7051 7.75 15.25 6.29493 15.25 4.5C15.25 2.70507 16.7051 1.25 18.5 1.25ZM18.5 2.75C17.5335 2.75 16.75 3.5335 16.75 4.5C16.75 5.4665 17.5335 6.25 18.5 6.25C19.4665 6.25 20.25 5.4665 20.25 4.5C20.25 3.5335 19.4665 2.75 18.5 2.75Z" fill="#1C274C"/>
</svg>
