<svg width="24" height="24" viewBox="0 0 24 24" fill="none" xmlns="http://www.w3.org/2000/svg">
<path d="M12 1.25C17.9371 1.25 22.75 6.06294 22.75 12C22.75 17.9371 17.9371 22.75 12 22.75C6.06294 22.75 1.25 17.9371 1.25 12C1.25 6.06294 6.06294 1.25 12 1.25ZM12 2.75C6.89137 2.75 2.75 6.89137 2.75 12C2.75 17.1086 6.89137 21.25 12 21.25C17.1086 21.25 21.25 17.1086 21.25 12C21.25 6.89137 17.1086 2.75 12 2.75ZM15.9775 5.25C16.3917 5.25002 16.7275 5.5858 16.7275 6V8.71484C16.7274 9.12889 16.3916 9.46482 15.9775 9.46484H13.3262C12.9121 9.46484 12.5763 9.12891 12.5762 8.71484C12.5762 8.30062 12.912 7.96484 13.3262 7.96484H13.8848C12.2984 7.15825 10.324 7.43178 9.00098 8.78613C7.33304 10.4936 7.33308 13.2691 9.00098 14.9766C10.6593 16.6743 13.3407 16.6743 14.999 14.9766C15.9667 13.986 16.3759 12.6337 16.2168 11.333C16.1665 10.9219 16.459 10.5474 16.8701 10.4971C17.2813 10.4469 17.6548 10.7403 17.7051 11.1514C17.9162 12.8783 17.3753 14.6904 16.0723 16.0244C13.8255 18.3245 10.1746 18.3245 7.92773 16.0244C5.69089 13.7342 5.69081 10.0285 7.92773 7.73828C9.9109 5.70809 12.9877 5.4698 15.2275 7.02344V6C15.2275 5.58579 15.5633 5.25 15.9775 5.25Z" fill="#1C274C"/>
</svg>
