<svg width="24" height="24" viewBox="0 0 24 24" fill="none" xmlns="http://www.w3.org/2000/svg">
<path d="M12 2C14.1266 2 16.0982 2.66414 17.7188 3.7959C16.7999 4.94902 16.25 6.41141 16.25 8C16.2501 11.2676 18.5713 13.9911 21.6543 14.6152C20.5045 18.8695 16.6179 22 12 22C11.3616 22 10.737 21.9405 10.1318 21.8262C10.5289 20.9657 10.75 20.0075 10.75 19C10.75 15.2721 7.72791 12.25 4 12.25C3.31016 12.25 2.64318 12.3537 2.01465 12.5469C2.00489 12.3658 2 12.1835 2 12C2 6.47715 6.47715 2 12 2ZM4 13.75C6.89944 13.7501 9.25 16.1005 9.25 19C9.25 19.8351 9.05534 20.6231 8.70996 21.3223L8.65723 21.4277C5.40794 20.2757 2.93154 17.4912 2.21289 14.0605L2.32422 14.0225C2.84944 13.8458 3.41286 13.75 4 13.75ZM15 15C14.4477 15 14 15.4477 14 16C14 16.5523 14.4477 17 15 17C15.5523 17 16 16.5523 16 16C16 15.4477 15.5523 15 15 15ZM18.8809 4.74414C20.8017 6.56641 22 9.14324 22 12C22 12.386 21.9781 12.767 21.9355 13.1416C19.5464 12.65 17.7501 10.5342 17.75 8C17.75 6.76936 18.1724 5.6391 18.8809 4.74414ZM10.5 6C9.11929 6 8 7.11929 8 8.5C8 9.88071 9.11929 11 10.5 11C11.8807 11 13 9.88071 13 8.5C13 7.11929 11.8807 6 10.5 6Z" fill="#48465C"/>
</svg>
