<svg width="24" height="24" viewBox="0 0 24 24" fill="none" xmlns="http://www.w3.org/2000/svg">
<path d="M12 2C17.5228 2 22 6.47715 22 12C22 17.5228 17.5228 22 12 22C6.47715 22 2 17.5228 2 12C2 6.47715 6.47715 2 12 2ZM15.5303 9.96973C15.2374 9.67684 14.7626 9.67684 14.4697 9.96973L12 12.4395L9.53027 9.96973C9.23738 9.67684 8.76262 9.67684 8.46973 9.96973C8.17684 10.2627 8.17684 10.7374 8.46973 11.0303L11.4697 14.0303C11.6103 14.171 11.8011 14.25 12 14.25C12.1989 14.25 12.3897 14.171 12.5303 14.0303L15.5303 11.0303C15.8232 10.7374 15.8232 10.2627 15.5303 9.96973Z" fill="#1C274C"/>
</svg>
