<svg width="24" height="24" viewBox="0 0 24 24" fill="none" xmlns="http://www.w3.org/2000/svg">
<path d="M13.5 21.25C13.9141 21.25 14.2499 21.5859 14.25 22C14.25 22.4142 13.9142 22.75 13.5 22.75H13C12.5858 22.75 12.25 22.4142 12.25 22C12.2501 21.5859 12.5859 21.25 13 21.25H13.5ZM14.3799 18.6455C14.7886 18.5793 15.1738 18.857 15.2402 19.2656C15.3064 19.6745 15.0289 20.0597 14.6201 20.126C14.1456 20.2028 13.6128 20.25 13 20.25C12.514 20.25 12.0711 20.2354 11.6709 20.21C11.2578 20.1836 10.9446 19.8272 10.9707 19.4141C10.9969 19.0008 11.3533 18.6866 11.7666 18.7129C12.1347 18.7362 12.5454 18.75 13 18.75C13.5342 18.75 13.9865 18.7092 14.3799 18.6455ZM15.7578 15.79C16.1497 15.6565 16.5761 15.8661 16.71 16.2578C16.8437 16.6498 16.634 17.0761 16.2422 17.21C15.4413 17.4835 14.4565 17.75 13 17.75C11.6036 17.75 10.5664 17.6251 9.8623 17.4932C9.45517 17.417 9.18642 17.0243 9.2627 16.6172C9.33909 16.2103 9.7308 15.9425 10.1377 16.0186C10.7485 16.133 11.6936 16.25 13 16.25C14.2465 16.25 15.0637 16.0271 15.7578 15.79ZM15.7236 13.3027C16.1083 13.1503 16.5443 13.3382 16.6973 13.7227C16.8503 14.1075 16.6621 14.5442 16.2773 14.6973L16 14C16.2586 14.6504 16.2756 14.6942 16.2764 14.6973L16.2725 14.6992L16.2656 14.7021L16.2461 14.709C16.2307 14.7147 16.2099 14.7217 16.1846 14.7305C16.1336 14.748 16.0624 14.7712 15.9707 14.7979C15.787 14.8515 15.5202 14.9203 15.168 14.9873C14.4635 15.1213 13.4166 15.25 12 15.25C10.583 15.25 9.53558 15.1213 8.83105 14.9873C8.47905 14.9203 8.21295 14.8514 8.0293 14.7979C7.93753 14.7712 7.86635 14.748 7.81543 14.7305C7.79001 14.7217 7.7693 14.7147 7.75391 14.709L7.73438 14.7021L7.72754 14.6992L7.72363 14.6973H7.72266C7.33784 14.5442 7.14972 14.1075 7.30273 13.7227C7.44575 13.3633 7.83586 13.1759 8.2002 13.2773L8.27539 13.3027C8.27977 13.3043 8.28948 13.3076 8.30371 13.3125C8.33229 13.3223 8.3806 13.3384 8.44922 13.3584C8.58696 13.3986 8.80644 13.4557 9.11133 13.5137C9.7212 13.6297 10.6747 13.75 12 13.75C13.3253 13.75 14.2788 13.6297 14.8887 13.5137C15.1935 13.4557 15.413 13.3986 15.5508 13.3584C15.6194 13.3384 15.6678 13.3223 15.6963 13.3125C15.7106 13.3076 15.7202 13.3043 15.7246 13.3027H15.7236ZM17.4092 10.5381C17.6266 10.2594 18.0181 10.1652 18.3438 10.333C18.7119 10.5227 18.8567 10.9756 18.667 11.3438L18 11C18.6667 11.3435 18.665 11.3467 18.665 11.3467L18.6641 11.3496L18.6611 11.3545L18.6543 11.3662C18.6499 11.374 18.6455 11.3825 18.6406 11.3906C18.6308 11.4068 18.6193 11.4233 18.6074 11.4404C18.5834 11.4747 18.5555 11.5105 18.5225 11.5469C18.4563 11.6198 18.3715 11.695 18.2637 11.7705C18.0495 11.9203 17.7378 12.0753 17.2773 12.2168C16.3617 12.4978 14.7774 12.75 12 12.75C11.5858 12.75 11.25 12.4142 11.25 12C11.25 11.5858 11.5858 11.25 12 11.25C14.7073 11.25 16.1237 11.0022 16.8369 10.7832C17.1905 10.6747 17.3505 10.5797 17.4043 10.542C17.4061 10.5407 17.4092 10.5381 17.4092 10.5381ZM5.65625 10.333C5.98192 10.1652 6.37345 10.2594 6.59082 10.5381C6.6058 10.5489 6.63352 10.5674 6.67676 10.5908C6.84713 10.6833 7.23598 10.8432 8.02246 10.9824C8.43033 11.0545 8.70203 11.4437 8.62988 11.8516C8.55772 12.2594 8.16861 12.5322 7.76074 12.46C6.87554 12.3034 6.31845 12.1032 5.96094 11.9092C5.78029 11.811 5.64453 11.711 5.54297 11.6143C5.49209 11.5658 5.44979 11.5175 5.41504 11.4717C5.39781 11.449 5.38269 11.4268 5.36914 11.4053C5.36237 11.3945 5.3555 11.3843 5.34961 11.374L5.34082 11.3584L5.33691 11.3506L5.33496 11.3477L5.33398 11.3457C5.33398 11.3457 5.33329 11.3435 6 11L5.33301 11.3438C5.14331 10.9756 5.28808 10.5227 5.65625 10.333ZM3.31543 7.69434C3.48389 7.3173 3.92527 7.147 4.30273 7.31348L4.3125 7.31836C4.32364 7.32295 4.34387 7.33069 4.37305 7.3418C4.43175 7.36411 4.52765 7.39877 4.66211 7.44141C4.93116 7.52673 5.35648 7.64488 5.95312 7.76465C7.14625 8.00413 9.02737 8.24998 11.7236 8.25C14.4201 8.25 16.4447 8.00396 17.7852 7.76172C18.4555 7.64058 18.9558 7.52097 19.2832 7.43262C19.4467 7.38848 19.5671 7.35146 19.6445 7.32715C19.6832 7.31501 19.7114 7.30652 19.7285 7.30078L19.7471 7.29395C20.1369 7.15465 20.5663 7.35741 20.7061 7.74707C20.8457 8.13701 20.6428 8.56633 20.2529 8.70605L20.251 8.70703L20.2471 8.70801L20.2383 8.71191L20.2061 8.72266C20.1796 8.73155 20.1418 8.74369 20.0938 8.75879C19.9971 8.78913 19.8572 8.83138 19.6738 8.88086C19.3065 8.98001 18.7649 9.10942 18.0518 9.23828C16.6256 9.49602 14.5117 9.75 11.7236 9.75C8.93583 9.74998 6.95486 9.49583 5.65723 9.23535C5.00867 9.10516 4.53115 8.97325 4.20898 8.87109C4.04808 8.82007 3.92597 8.7765 3.84082 8.74414C3.79834 8.728 3.76453 8.71511 3.74023 8.70508L3.71094 8.69238L3.7002 8.6875L3.69727 8.68652L3.69531 8.68555C3.69542 8.68515 3.70136 8.66877 4 8L3.69434 8.68457C3.31612 8.51568 3.14653 8.07256 3.31543 7.69434ZM12 2.25C12.4142 2.25 12.75 2.58579 12.75 3C12.75 3.41421 12.4142 3.75 12 3.75C9.54314 3.75 7.33648 3.91596 5.75977 4.17871C5.16547 4.27776 4.67973 4.38779 4.3125 4.5C4.67973 4.61221 5.16547 4.72224 5.75977 4.82129C7.33648 5.08404 9.54314 5.25 12 5.25C14.4568 5.25 16.6635 5.08404 18.2402 4.82129C18.8344 4.72225 19.3203 4.61221 19.6875 4.5L19.6855 4.49902C19.0511 4.30537 18.1032 4.13039 16.917 3.99805C16.5055 3.95213 16.2092 3.58139 16.2549 3.16992C16.3009 2.75834 16.6714 2.46104 17.083 2.50684C18.3084 2.64354 19.3607 2.83177 20.123 3.06445C20.4988 3.17912 20.8487 3.31818 21.1201 3.49316C21.3524 3.64293 21.75 3.96462 21.75 4.5C21.75 4.93099 21.4873 5.22389 21.291 5.38379C21.0854 5.55126 20.8273 5.67882 20.5674 5.78125C20.04 5.98903 19.3214 6.16174 18.4873 6.30078C16.8067 6.58088 14.5135 6.75 12 6.75C9.48655 6.75 7.1933 6.58088 5.5127 6.30078C4.67847 6.16174 3.95995 5.98903 3.43262 5.78125C3.17268 5.67882 2.9146 5.55126 2.70898 5.38379C2.51272 5.22389 2.25 4.93099 2.25 4.5C2.25 4.06901 2.51272 3.77611 2.70898 3.61621C2.9146 3.44874 3.17268 3.32118 3.43262 3.21875C3.95995 3.01097 4.67847 2.83826 5.5127 2.69922C7.1933 2.41912 9.48655 2.25 12 2.25Z" fill="#48465C"/>
</svg>
