<svg width="24" height="24" viewBox="0 0 24 24" fill="none" xmlns="http://www.w3.org/2000/svg">
<path d="M19.8125 18.8154C20.0286 18.7798 20.2331 18.9478 20.2139 19.166C20.1761 19.5968 20.0945 19.9862 19.8955 20.3496C19.5839 20.9182 19.0869 21.3811 18.4756 21.6709C18.0848 21.8561 17.6663 21.9306 17.2031 21.9658C16.7555 21.9998 16.2046 22 15.5312 22H8.46875C7.79537 22 7.24444 21.9998 6.79688 21.9658C6.33367 21.9306 5.91511 21.8561 5.52441 21.6709C4.91303 21.3811 4.4161 20.9182 4.10449 20.3496C3.90547 19.9862 3.824 19.5968 3.78613 19.166C3.76696 18.9478 3.97135 18.7798 4.1875 18.8154C4.2937 18.8329 4.40046 18.8489 4.50781 18.8623C4.74721 18.8923 5.00277 18.9144 5.27246 18.9307C6.03632 18.977 6.91867 18.9767 7.90137 18.9766H16.0986C17.0814 18.9767 17.9637 18.977 18.7275 18.9307C18.9971 18.9144 19.252 18.8923 19.4912 18.8623C19.5987 18.8489 19.7061 18.8329 19.8125 18.8154ZM16 6.41895C18.8284 6.41895 20.2424 6.41896 21.1211 7.23633C21.9998 8.0537 22 9.36899 22 12C22 14.631 21.9997 15.9463 21.1211 16.7637C20.2424 17.5811 18.8284 17.5811 16 17.5811H8C5.17157 17.5811 3.75759 17.5811 2.87891 16.7637C2.00032 15.9463 2 14.631 2 12C2 9.36897 2.00024 8.0537 2.87891 7.23633C3.75759 6.41895 5.17157 6.41895 8 6.41895H16ZM15.5312 2C16.2046 1.99999 16.7555 2.00016 17.2031 2.03418C17.6663 2.06939 18.0848 2.14393 18.4756 2.3291C19.087 2.61889 19.5839 3.08169 19.8955 3.65039C20.0946 4.01378 20.1761 4.40317 20.2139 4.83398C20.2331 5.0522 20.0287 5.22014 19.8125 5.18457C19.7061 5.16707 19.5987 5.15114 19.4912 5.1377C19.252 5.10779 18.9971 5.08568 18.7275 5.06934C17.9637 5.02305 17.0814 5.02339 16.0986 5.02344H7.90137C6.91866 5.02339 6.03631 5.02304 5.27246 5.06934C5.00277 5.08569 4.74721 5.10776 4.50781 5.1377C4.40046 5.15113 4.2937 5.1671 4.1875 5.18457C3.97136 5.22014 3.76696 5.0522 3.78613 4.83398C3.82399 4.40318 3.90545 4.01378 4.10449 3.65039C4.4161 3.08169 4.91302 2.61889 5.52441 2.3291C5.91512 2.14394 6.33367 2.06939 6.79688 2.03418C7.24444 2.00016 7.79537 1.99999 8.46875 2H15.5312Z" fill="#48465C"/>
</svg>
