<svg width="24" height="24" viewBox="0 0 24 24" fill="none" xmlns="http://www.w3.org/2000/svg">
<path d="M12 2C13.1079 2 14.1108 2.62261 16.1162 3.86719L18.1162 5.1084C20.0128 6.28546 20.9612 6.87408 21.4805 7.82227C21.9997 8.77081 22 9.91569 22 12.2041V13.7246C22 17.6254 21.9997 19.5763 20.8281 20.7881C19.6566 21.9999 17.7711 22 14 22H10C6.22891 22 4.34347 21.9998 3.17188 20.7881C2.00031 19.5763 2 17.6254 2 13.7246V12.2041C2 9.91569 2.00033 8.77081 2.51953 7.82227C3.03876 6.87408 3.98724 6.28545 5.88379 5.1084L7.88379 3.86719C9.88915 2.62261 10.8921 2 12 2ZM12 10.25C11.5858 10.25 11.25 10.5858 11.25 11V13.25H9C8.58579 13.25 8.25 13.5858 8.25 14C8.25 14.4142 8.58579 14.75 9 14.75H11.25V17C11.25 17.4142 11.5858 17.75 12 17.75C12.4142 17.75 12.75 17.4142 12.75 17V14.75H15C15.4142 14.75 15.75 14.4142 15.75 14C15.75 13.5858 15.4142 13.25 15 13.25H12.75V11C12.75 10.5858 12.4142 10.25 12 10.25Z" fill="#48465C"/>
</svg>
