<svg width="24" height="24" viewBox="0 0 24 24" fill="none" xmlns="http://www.w3.org/2000/svg">
<path d="M11.5 4C15.2712 4 17.1566 4.00031 18.3281 5.17188C19.2712 6.11496 19.4553 7.52044 19.4912 10H20C20.9427 10 21.4141 10.0001 21.707 10.293C21.9999 10.5859 22 11.0573 22 12C22 12.9427 21.9999 13.4141 21.707 13.707C21.4141 13.9999 20.9427 14 20 14H19.4912C19.4553 16.4796 19.2712 17.885 18.3281 18.8281C17.1566 19.9997 15.2712 20 11.5 20H10C6.22878 20 4.34346 19.9997 3.17188 18.8281C2.00031 17.6566 2 15.7712 2 12C2 8.22876 2.00031 6.34345 3.17188 5.17188C4.34346 4.00031 6.22876 4 10 4H11.5ZM7.65527 8.63574C7.45407 8.27378 6.99778 8.1436 6.63574 8.34473C6.27685 8.54422 6.14502 8.99495 6.33887 9.35547L6.34473 9.36523C6.3516 9.37969 6.36444 9.40867 6.38184 9.45215C6.4167 9.53933 6.46907 9.68647 6.52344 9.89844C6.63218 10.3225 6.75 11.0101 6.75 12C6.75 12.9899 6.63218 13.6776 6.52344 14.1016C6.46907 14.3135 6.4167 14.4607 6.38184 14.5479C6.36445 14.5914 6.3516 14.6203 6.34473 14.6348L6.33887 14.6445C6.14502 15.0051 6.27684 15.4558 6.63574 15.6553C6.99777 15.8564 7.45406 15.7262 7.65527 15.3643L7 15C7.63227 15.3512 7.65525 15.3632 7.65625 15.3633L7.65723 15.3613L7.65918 15.3584L7.66309 15.3516L7.67188 15.333C7.67912 15.3189 7.688 15.3008 7.69824 15.2793C7.71869 15.2364 7.74509 15.1788 7.77441 15.1055C7.83328 14.9583 7.90599 14.7488 7.97656 14.4736C8.11781 13.9226 8.25 13.11 8.25 12C8.25 10.89 8.11781 10.0773 7.97656 9.52637C7.90599 9.25115 7.83328 9.0417 7.77441 8.89453C7.74509 8.82124 7.71869 8.76365 7.69824 8.7207C7.688 8.69919 7.67912 8.68106 7.67188 8.66699L7.66309 8.64844L7.65918 8.6416L7.65723 8.63867L7.65625 8.63672L7.65527 8.63574ZM11.1553 8.63574C10.9541 8.27377 10.4978 8.1436 10.1357 8.34473C9.77684 8.54423 9.64502 8.99495 9.83887 9.35547L9.84473 9.36523C9.8516 9.37969 9.86444 9.40867 9.88184 9.45215C9.9167 9.53933 9.96907 9.68647 10.0234 9.89844C10.1321 10.3225 10.25 11.0101 10.25 12C10.25 12.9899 10.1321 13.6776 10.0234 14.1016C9.96907 14.3135 9.9167 14.4607 9.88184 14.5479C9.86445 14.5914 9.8516 14.6203 9.84473 14.6348L9.83887 14.6445C9.64502 15.0051 9.77683 15.4558 10.1357 15.6553C10.4978 15.8564 10.9541 15.7262 11.1553 15.3643L11.1562 15.3633L11.1572 15.3613L11.1592 15.3584L11.1631 15.3516L11.1719 15.333C11.1791 15.3189 11.188 15.3008 11.1982 15.2793C11.2187 15.2364 11.2451 15.1788 11.2744 15.1055C11.3332 14.9583 11.406 14.7488 11.4766 14.4736C11.6178 13.9226 11.75 13.11 11.75 12C11.75 10.89 11.6178 10.0773 11.4766 9.52637C11.406 9.25115 11.3332 9.0417 11.2744 8.89453C11.2451 8.82125 11.2187 8.76365 11.1982 8.7207C11.188 8.69919 11.1791 8.68106 11.1719 8.66699L11.1631 8.64844L11.1592 8.6416L11.1572 8.63867L11.1562 8.63672C11.1554 8.63675 11.1337 8.64793 10.5 9L11.1553 8.63574Z" fill="#48465C"/>
</svg>
