<svg width="24" height="24" viewBox="0 0 24 24" fill="none" xmlns="http://www.w3.org/2000/svg">
<path d="M19.7207 17.7832C19.9088 17.7988 20.134 17.8678 20.3633 17.9375C20.3853 17.9442 20.4077 17.9504 20.4297 17.957C20.4496 17.963 20.4693 17.9695 20.4893 17.9756C20.6999 18.0389 20.9098 18.1014 21.0693 18.1875C21.9844 18.6818 22.2798 19.8632 21.707 20.7363C21.6071 20.8884 21.4516 21.0446 21.2959 21.2012L21.208 21.291C21.0529 21.448 20.8978 21.6034 20.7471 21.7041C19.8815 22.2823 18.7108 21.9847 18.2207 21.0615C18.1353 20.9006 18.0727 20.6892 18.0098 20.4766C18.0039 20.4565 17.9982 20.4362 17.9922 20.416C17.9856 20.3938 17.9783 20.3718 17.9717 20.3496C17.9026 20.1183 17.8348 19.8909 17.8193 19.7012C17.7301 18.607 18.6359 17.6931 19.7207 17.7832ZM11.0635 2C16.0692 2 20.1278 6.09325 20.1279 11.1426C20.1279 16.1921 16.0693 20.2861 11.0635 20.2861C6.05781 20.2859 2 16.1919 2 11.1426C2.00017 6.09339 6.05792 2.00023 11.0635 2ZM11 6.5C9.85919 6.50003 8.84328 7.0321 8.18945 7.86035L7.50977 7.52246C7.15704 7.34712 6.72824 7.4891 6.55176 7.83984C6.37537 8.19076 6.51838 8.61742 6.87109 8.79297L7.5498 9.13086C7.47066 9.42476 7.42871 9.73402 7.42871 10.0527V10.2891H6.71387C6.31957 10.2893 6 10.6077 6 11C6 11.3923 6.31957 11.7107 6.71387 11.7109H7.42871V11.9473C7.42871 12.266 7.47066 12.5752 7.5498 12.8691L6.87109 13.207C6.51838 13.3826 6.37537 13.8092 6.55176 14.1602C6.72823 14.5108 7.15703 14.6529 7.50977 14.4775L8.18945 14.1396C8.84328 14.9679 9.85919 15.5 11 15.5C12.1408 15.5 13.1567 14.9679 13.8105 14.1396L14.4902 14.4775C14.8429 14.653 15.2716 14.5108 15.4482 14.1602C15.6246 13.8092 15.4817 13.3826 15.1289 13.207L14.4502 12.8691C14.5293 12.5752 14.5713 12.266 14.5713 11.9473V11.7109H15.2861C15.6804 11.7107 16 11.3923 16 11C16 10.6077 15.6804 10.2893 15.2861 10.2891H14.5713V10.0527C14.5713 9.73402 14.5293 9.42476 14.4502 9.13086L15.1289 8.79297C15.4817 8.61745 15.6246 8.19079 15.4482 7.83984C15.2716 7.4891 14.8429 7.34703 14.4902 7.52246L13.8105 7.86035C13.1567 7.03209 12.1408 6.5 11 6.5ZM10.2861 13.958C9.45394 13.6653 8.85758 12.8762 8.85742 11.9482V10.7637H10.2861V13.958ZM13.1426 11.9482C13.1424 12.876 12.5467 13.6652 11.7148 13.958V10.7637H13.1426V11.9482ZM11 7.9209C11.9329 7.9209 12.7262 8.51405 13.0205 9.3418H8.97949C9.27373 8.51406 10.0671 7.92093 11 7.9209Z" fill="#1C274C"/>
</svg>
