<svg width="24" height="24" viewBox="0 0 24 24" fill="none" xmlns="http://www.w3.org/2000/svg">
<path fill-rule="evenodd" clip-rule="evenodd" d="M9.94519 1.25H14.055C15.4226 1.24998 16.5249 1.24996 17.3919 1.36652C18.292 1.48754 19.0498 1.74643 19.6518 2.34835C20.2537 2.95027 20.5126 3.70814 20.6336 4.60825C20.7501 5.47522 20.7501 6.57754 20.7501 7.94513V16.0549C20.7501 17.4225 20.7501 18.5248 20.6336 19.3918C20.5126 20.2919 20.2537 21.0497 19.6518 21.6517C19.0498 22.2536 18.292 22.5125 17.3919 22.6335C16.5249 22.75 15.4226 22.75 14.055 22.75H9.94519C8.5776 22.75 7.47528 22.75 6.60831 22.6335C5.7082 22.5125 4.95033 22.2536 4.34841 21.6517C3.7465 21.0497 3.4876 20.2919 3.36659 19.3918C3.32789 19.1039 3.30204 18.7902 3.28478 18.4494C3.2457 18.326 3.23809 18.1912 3.26882 18.0568C3.25004 17.4649 3.25005 16.7991 3.25006 16.0549V7.94513C3.25004 6.57754 3.25003 5.47522 3.36659 4.60825C3.4876 3.70814 3.7465 2.95027 4.34841 2.34835C4.95033 1.74643 5.7082 1.48754 6.60831 1.36652C7.47528 1.24996 8.5776 1.24998 9.94519 1.25ZM4.77682 18.2491C4.79202 18.6029 4.81585 18.914 4.85321 19.1919C4.95186 19.9257 5.13231 20.3142 5.40907 20.591C5.68584 20.8678 6.07441 21.0482 6.80818 21.1469C7.56353 21.2484 8.56465 21.25 10.0001 21.25H14.0001C15.4355 21.25 16.4366 21.2484 17.192 21.1469C17.9258 21.0482 18.3143 20.8678 18.5911 20.591C18.8679 20.3142 19.0483 19.9257 19.147 19.1919C19.2298 18.5756 19.2461 17.7958 19.2493 16.75H7.89784C6.91958 16.75 6.57758 16.7564 6.3155 16.8267C5.59618 17.0194 5.02274 17.5541 4.77682 18.2491ZM19.2501 15.25V8C19.2501 6.56458 19.2485 5.56347 19.147 4.80812C19.0483 4.07435 18.8679 3.68577 18.5911 3.40901C18.3143 3.13225 17.9258 2.9518 17.192 2.85315C16.4366 2.75159 15.4355 2.75 14.0001 2.75H10.0001C9.09225 2.75 8.35815 2.75064 7.75006 2.7768V15.25C7.76068 15.25 7.77134 15.25 7.78204 15.25C7.82007 15.25 7.85867 15.25 7.89784 15.25H19.2501ZM6.25006 15.3114C6.13756 15.3284 6.03056 15.3501 5.92727 15.3778C5.49929 15.4925 5.1023 15.6798 4.75006 15.9259V8C4.75006 6.56458 4.75166 5.56347 4.85321 4.80812C4.95186 4.07435 5.13231 3.68577 5.40907 3.40901C5.60538 3.2127 5.85795 3.06485 6.25006 2.96027V15.3114Z" fill="#1C274C"/>
</svg>
