<svg width="24" height="24" viewBox="0 0 24 24" fill="none" xmlns="http://www.w3.org/2000/svg">
<path d="M12 1.25C12.6047 1.25 13.1619 1.40021 13.7715 1.65234C14.3601 1.89581 15.0442 2.25441 15.8955 2.70117L17.9629 3.78613C19.0078 4.33446 19.8436 4.77391 20.4893 5.20508C21.1581 5.65173 21.6736 6.12178 22.0488 6.75879C22.4227 7.39374 22.5912 8.08165 22.6719 8.90039C22.7502 9.69521 22.75 10.673 22.75 11.9023V12.0977C22.75 13.327 22.7502 14.3047 22.6719 15.0996C22.5912 15.9184 22.4227 16.6063 22.0488 17.2412C21.6736 17.8782 21.1581 18.3483 20.4893 18.7949C19.8436 19.2261 19.0078 19.6655 17.9629 20.2139L15.8955 21.2988C15.0442 21.7456 14.3601 22.1042 13.7715 22.3477C13.1619 22.5998 12.6047 22.75 12 22.75C11.3953 22.75 10.8381 22.5998 10.2285 22.3477C9.63985 22.1042 8.9558 21.7456 8.10449 21.2988L6.03711 20.2139C4.99227 19.6656 4.15639 19.2261 3.51074 18.7949C2.84193 18.3483 2.32636 17.8782 1.95117 17.2412C1.57728 16.6063 1.40881 15.9184 1.32812 15.0996C1.24983 14.3048 1.24999 13.3269 1.25 12.0977V11.9023C1.24999 10.673 1.24983 9.6952 1.32812 8.90039C1.40881 8.08165 1.57728 7.39374 1.95117 6.75879C2.32636 6.12178 2.84192 5.65173 3.51074 5.20508C4.1564 4.77391 4.99223 4.33445 6.03711 3.78613L8.10449 2.70117C8.95582 2.25441 9.63984 1.8958 10.2285 1.65234C10.8381 1.40021 11.3953 1.25 12 1.25ZM2.9375 8.30762C2.88703 8.52144 2.84923 8.76432 2.82129 9.04785C2.75108 9.76065 2.75 10.6644 2.75 11.9414V12.0586C2.75 13.3356 2.75107 14.2394 2.82129 14.9521C2.88997 15.6493 3.02069 16.1 3.24414 16.4795C3.46634 16.8568 3.78753 17.1764 4.34375 17.5479C4.91569 17.9298 5.68111 18.3325 6.77051 18.9043L8.77051 19.9541C9.66002 20.4209 10.2838 20.7467 10.8018 20.9609C10.9654 21.0286 11.1134 21.0837 11.25 21.126V12.4639L2.9375 8.30762ZM12.75 12.4639V21.126C12.8866 21.0837 13.0346 21.0286 13.1982 20.9609C13.7162 20.7467 14.34 20.4209 15.2295 19.9541L17.2295 18.9043C18.3189 18.3326 19.0843 17.9298 19.6562 17.5479C20.2124 17.1764 20.5337 16.8568 20.7559 16.4795C20.9794 16.1 21.1101 15.6493 21.1787 14.9521C21.249 14.2394 21.25 13.3356 21.25 12.0586V11.9414C21.25 10.6644 21.249 9.76065 21.1787 9.04785C21.1508 8.76432 21.113 8.52144 21.0625 8.30762L12.75 12.4639ZM12 2.75C11.6605 2.75 11.306 2.82957 10.8018 3.03809C10.2838 3.25233 9.6602 3.579 8.77051 4.0459L6.77051 5.0957C5.68111 5.66739 4.91569 6.07023 4.34375 6.45215C4.06155 6.64061 3.83918 6.81623 3.66016 6.99219L12 11.1611L20.3398 6.99219C20.1607 6.81623 19.9384 6.64061 19.6562 6.45215C19.0843 6.07023 18.3189 5.6674 17.2295 5.0957L15.2295 4.0459C14.3398 3.579 13.7162 3.25233 13.1982 3.03809C12.694 2.82957 12.3395 2.75 12 2.75Z" fill="#1C274C"/>
</svg>
