<svg width="24" height="24" viewBox="0 0 24 24" fill="none" xmlns="http://www.w3.org/2000/svg">
<path d="M13.0518 1.25C13.9503 1.24997 14.7001 1.25012 15.2949 1.33008C15.9225 1.41452 16.489 1.6003 16.9443 2.05566C17.3997 2.51102 17.5855 3.07748 17.6699 3.70508C17.7499 4.29987 17.75 5.04976 17.75 5.94824V7.25C18.3265 7.25046 18.815 7.25484 19.2188 7.2959C19.6922 7.34405 20.1314 7.44933 20.5273 7.71387C20.8276 7.91451 21.0855 8.17239 21.2861 8.47266C21.5507 8.86862 21.656 9.30784 21.7041 9.78125C21.7501 10.2336 21.75 10.7924 21.75 11.4619V21.25H22C22.4142 21.25 22.75 21.5858 22.75 22C22.75 22.4142 22.4142 22.75 22 22.75H2C1.58579 22.75 1.25 22.4142 1.25 22C1.25 21.5858 1.58579 21.25 2 21.25H2.25V11.4619C2.24998 10.7924 2.24991 10.2336 2.2959 9.78125C2.34406 9.30784 2.44934 8.86862 2.71387 8.47266C2.9145 8.17239 3.17239 7.91451 3.47266 7.71387C3.86862 7.44934 4.30784 7.34405 4.78125 7.2959C5.18501 7.25484 5.67354 7.25046 6.25 7.25V5.94824C6.24997 5.04976 6.25012 4.29987 6.33008 3.70508C6.41452 3.07747 6.6003 2.51102 7.05566 2.05566C7.51102 1.60031 8.07747 1.41452 8.70508 1.33008C9.29986 1.25012 10.0497 1.24997 10.9482 1.25H13.0518ZM6.25 8.75C5.66741 8.75065 5.25565 8.75523 4.93262 8.78809C4.57788 8.82419 4.41409 8.88848 4.30566 8.96094C4.1692 9.05211 4.05213 9.16921 3.96094 9.30566C3.88849 9.41409 3.82419 9.57788 3.78809 9.93262C3.75072 10.3 3.75 10.7822 3.75 11.5V21.25H6.25V8.75ZM11 2.75C10.036 2.75 9.38831 2.75147 8.90527 2.81641C8.44388 2.87845 8.24651 2.9859 8.11621 3.11621C7.9859 3.24652 7.87845 3.44388 7.81641 3.90527C7.75146 4.38831 7.75 5.03599 7.75 6V21.25H11.25V19C11.25 18.5858 11.5858 18.25 12 18.25C12.4142 18.25 12.75 18.5858 12.75 19V21.25H16.25V6C16.25 5.03599 16.2485 4.38831 16.1836 3.90527C16.1215 3.44389 16.0141 3.24652 15.8838 3.11621C15.7535 2.98591 15.5561 2.87845 15.0947 2.81641C14.6117 2.75147 13.964 2.75 13 2.75H11ZM17.75 21.25H20.25V11.5C20.25 10.7822 20.2493 10.3 20.2119 9.93262C20.1758 9.57788 20.1115 9.41409 20.0391 9.30566C19.9479 9.16919 19.8307 9.05212 19.6943 8.96094C19.5859 8.88848 19.4221 8.82419 19.0674 8.78809C18.7443 8.75523 18.3326 8.75065 17.75 8.75V21.25ZM14 13.25C14.4142 13.25 14.75 13.5858 14.75 14C14.75 14.4142 14.4142 14.75 14 14.75H10C9.58579 14.75 9.25 14.4142 9.25 14C9.25 13.5858 9.58579 13.25 10 13.25H14ZM14 10.25C14.4142 10.25 14.75 10.5858 14.75 11C14.75 11.4142 14.4142 11.75 14 11.75H10C9.58579 11.75 9.25 11.4142 9.25 11C9.25 10.5858 9.58579 10.25 10 10.25H14ZM14 7.25C14.4142 7.25 14.75 7.58579 14.75 8C14.75 8.41422 14.4142 8.75 14 8.75H10C9.58579 8.75 9.25 8.41422 9.25 8C9.25 7.58579 9.58579 7.25 10 7.25H14ZM14 4.25C14.4142 4.25 14.75 4.58579 14.75 5C14.75 5.41422 14.4142 5.75 14 5.75H10C9.58579 5.75 9.25 5.41422 9.25 5C9.25 4.58579 9.58579 4.25 10 4.25H14Z" fill="#48465C"/>
</svg>
