<svg width="24" height="24" viewBox="0 0 24 24" fill="none" xmlns="http://www.w3.org/2000/svg">
<path d="M4.71775 3.09177C5.94392 1.80085 7.97172 2.043 8.98532 3.47654L10.247 5.25974C11.0577 6.4064 10.989 8.00087 10.0215 9.01951L9.77634 9.27732L9.77439 9.28318C9.76138 9.31984 9.7286 9.43604 9.76072 9.65525C9.82762 10.1109 10.1801 11.0364 11.6074 12.539C13.0394 14.0466 13.9079 14.4024 14.3105 14.4677C14.4836 14.4958 14.5743 14.4712 14.6035 14.4609L15.0127 14.0312C15.8864 13.1112 17.2483 12.9302 18.3467 13.5625L20.2578 14.6611C21.8907 15.601 22.2705 17.9005 20.9658 19.2744L19.5449 20.7705C19.1015 21.2372 18.497 21.6353 17.75 21.709C15.9261 21.8891 11.7008 21.6544 7.27146 16.9912C3.13849 12.6398 2.35314 8.85503 2.25388 7.00583C2.20484 6.09216 2.61256 5.30827 3.14841 4.74412L4.71775 3.09177ZM7.76072 4.34275C7.24838 3.61814 6.32849 3.5746 5.80564 4.12497L4.23532 5.77732C3.90406 6.12616 3.7305 6.52653 3.75193 6.92576C3.83305 8.43573 4.48362 11.8775 8.35935 15.958C12.4233 20.2366 16.1673 20.3583 17.6025 20.2168C17.8861 20.1888 18.1781 20.0308 18.457 19.7373L19.8779 18.2412C20.4904 17.5961 20.3301 16.4344 19.5097 15.9619L17.5986 14.8623C17.0859 14.5672 16.4851 14.6577 16.0996 15.0635L15.6445 15.5429L15.1172 15.0429C15.6417 15.5411 15.6435 15.5449 15.6435 15.5449L15.6416 15.5459L15.6386 15.5498L15.6181 15.5703C15.608 15.5802 15.5962 15.5909 15.583 15.6025C15.5561 15.6261 15.5224 15.6533 15.4824 15.6816C15.4023 15.7384 15.2959 15.8013 15.1611 15.8545C14.8852 15.9633 14.5204 16.0212 14.0703 15.9482C13.1928 15.8057 12.0423 15.1755 10.5195 13.5722C8.99216 11.9642 8.40705 10.7642 8.27634 9.87204C8.20988 9.4182 8.26366 9.05474 8.3613 8.78025C8.4093 8.64535 8.46625 8.53776 8.51853 8.45603C8.54461 8.41526 8.56882 8.38028 8.59079 8.35251C8.60172 8.3387 8.61273 8.32709 8.62204 8.31638L8.63474 8.30076L8.64548 8.29001C8.6467 8.29094 8.67196 8.31166 9.17868 8.79294L8.64743 8.28806L8.93357 7.9863C9.37902 7.51734 9.4443 6.72297 9.02243 6.12595L7.76072 4.34275ZM19 4.24997C19.4142 4.24997 19.75 4.58575 19.75 4.99997V7.99997C19.7498 8.41403 19.4141 8.74997 19 8.74997C18.5859 8.74992 18.2501 8.414 18.25 7.99997V6.81052L15.5302 9.53025C15.2374 9.82289 14.7625 9.82292 14.4697 9.53025C14.177 9.23741 14.1771 8.76261 14.4697 8.4697L17.1894 5.74997H16C15.5859 5.74993 15.2501 5.414 15.25 4.99997C15.25 4.58579 15.5858 4.25002 16 4.24997H19Z" fill="#1C274C"/>
</svg>
