<svg width="24" height="24" viewBox="0 0 24 24" fill="none" xmlns="http://www.w3.org/2000/svg">
<path d="M12 1.25C14.0711 1.25003 15.75 2.92895 15.75 5V5.32812C15.8927 5.3404 16.0309 5.35464 16.1641 5.37109C17.174 5.4959 18.0066 5.75777 18.7139 6.34473C19.4212 6.93172 19.8318 7.70222 20.1406 8.67188C20.4398 9.61153 20.6664 10.8194 20.9512 12.3379L20.9717 12.4482C21.3735 14.591 21.6909 16.28 21.749 17.6113C21.8086 18.9759 21.6046 20.1057 20.835 21.0332C20.0652 21.9607 18.9918 22.3686 17.6396 22.5615C16.3205 22.7497 14.6026 22.75 12.4229 22.75H11.5771C9.39733 22.75 7.67947 22.7497 6.36035 22.5615C5.00815 22.3686 3.93384 21.9607 3.16406 21.0332C2.39458 20.1058 2.19144 18.9757 2.25098 17.6113C2.30909 16.28 2.62555 14.591 3.02734 12.4482L3.04883 12.3379C3.33353 10.8194 3.56018 9.61152 3.85938 8.67188C4.16814 7.70221 4.57884 6.93173 5.28613 6.34473C5.99339 5.75777 6.82604 5.49589 7.83594 5.37109C7.96922 5.35463 8.10727 5.3404 8.25 5.32812V5C8.25 2.92893 9.92894 1.25 12 1.25ZM11.6396 6.75C10.0328 6.75 8.89568 6.75111 8.01953 6.85938C7.16427 6.96508 6.64768 7.16415 6.24414 7.49902C5.84054 7.83399 5.54966 8.30554 5.28809 9.12695C5.02027 9.96811 4.80975 11.0849 4.51367 12.6641C4.09796 14.8812 3.80289 16.4649 3.75 17.6768C3.69804 18.8676 3.88879 19.5573 4.31836 20.0752C4.74816 20.593 5.39114 20.9087 6.57129 21.0771C7.7722 21.2485 9.38385 21.25 11.6396 21.25H12.3604C14.6159 21.25 16.2269 21.2485 17.4277 21.0771C18.6081 20.9087 19.2509 20.5931 19.6807 20.0752C20.1104 19.5572 20.302 18.868 20.25 17.6768C20.1971 16.4649 19.902 14.8812 19.4863 12.6641C19.1903 11.085 18.9798 9.96811 18.7119 9.12695C18.4503 8.30554 18.1595 7.83399 17.7559 7.49902C17.3523 7.16407 16.835 6.96507 15.9795 6.85938C15.1035 6.75117 13.9669 6.75 12.3604 6.75H11.6396ZM12 2.75C10.7574 2.75 9.75 3.75736 9.75 5V5.25977C10.307 5.24988 10.9182 5.24999 11.5889 5.25H12.4111C13.0818 5.24999 13.693 5.24988 14.25 5.25977V5C14.25 3.75738 13.2426 2.75003 12 2.75Z" fill="#1C274C"/>
</svg>
