<svg width="24" height="24" viewBox="0 0 24 24" fill="none" xmlns="http://www.w3.org/2000/svg">
<path d="M12 1.25C14.0711 1.25003 15.75 2.92895 15.75 5V5.30664C15.8849 5.31648 16.015 5.32826 16.1406 5.3418C17.019 5.43648 17.754 5.63495 18.4062 6.08203C18.6306 6.23578 18.8414 6.40882 19.0361 6.59863C19.6023 7.15054 19.941 7.83217 20.2061 8.6748C20.4634 9.49294 20.6713 10.5332 20.9326 11.8398L20.9521 11.9355C21.3287 13.8184 21.6257 15.3026 21.7109 16.4844C21.798 17.6918 21.6755 18.7075 21.1035 19.5879C20.9126 19.8816 20.69 20.1537 20.4395 20.3984C19.6884 21.1319 18.7158 21.4502 17.5146 21.6016C16.339 21.7497 14.8256 21.75 12.9053 21.75H11.0947C9.17447 21.75 7.661 21.7497 6.48535 21.6016C5.28421 21.4502 4.31165 21.1319 3.56055 20.3984C3.30996 20.1537 3.08733 19.8815 2.89648 19.5879C2.32451 18.7075 2.20202 17.6918 2.28906 16.4844C2.3743 15.3024 2.6712 13.8177 3.04785 11.9346L3.06738 11.8398C3.32872 10.5331 3.53662 9.49294 3.79395 8.6748C4.05901 7.83215 4.39763 7.15055 4.96387 6.59863C5.15864 6.4088 5.36941 6.2358 5.59375 6.08203C6.24604 5.63495 6.98102 5.43648 7.85938 5.3418C7.98499 5.32827 8.11516 5.31648 8.25 5.30664V5C8.25 2.92893 9.92894 1.25 12 1.25ZM11.1484 6.75C9.76259 6.75 8.7826 6.75076 8.01953 6.83301C7.27289 6.91349 6.81127 7.06583 6.44141 7.31934C6.28802 7.4245 6.14394 7.54304 6.01074 7.67285C5.68975 7.98576 5.44989 8.40797 5.22461 9.12402C4.99434 9.85608 4.80106 10.817 4.5293 12.1758C4.13977 14.1234 3.86281 15.5152 3.78516 16.5918C3.70857 17.6537 3.83867 18.2847 4.1543 18.7705C4.28487 18.9715 4.43694 19.1577 4.6084 19.3252C5.02284 19.7299 5.61658 19.9801 6.67285 20.1133C7.74373 20.2483 9.16227 20.25 11.1484 20.25H12.8516C14.8378 20.25 16.2563 20.2483 17.3271 20.1133C18.3834 19.9801 18.9771 19.7299 19.3916 19.3252C19.563 19.1577 19.7151 18.9715 19.8457 18.7705C20.1613 18.2847 20.2905 17.6537 20.2139 16.5918C20.1363 15.5152 19.8602 14.1234 19.4707 12.1758C19.1989 10.8171 19.0057 9.85608 18.7754 9.12402C18.5502 8.408 18.3103 7.98576 17.9893 7.67285C17.8562 7.54306 17.712 7.42449 17.5586 7.31934C17.1887 7.06584 16.7271 6.91349 15.9805 6.83301C15.2174 6.75076 14.2374 6.75 12.8516 6.75H11.1484ZM9 8C9.55224 8.00006 10 8.44776 10 9C10 9.55224 9.55224 9.99994 9 10C8.44772 10 8 9.55228 8 9C8 8.44772 8.44772 8 9 8ZM15 8C15.5522 8.00006 16 8.44776 16 9C16 9.55224 15.5522 9.99994 15 10C14.4477 10 14 9.55228 14 9C14 8.44772 14.4477 8 15 8ZM12 2.75C10.7574 2.75 9.75 3.75736 9.75 5V5.25488C10.1675 5.2504 10.6185 5.25 11.1055 5.25H12.8945C13.3815 5.25 13.8325 5.2504 14.25 5.25488V5C14.25 3.75738 13.2426 2.75003 12 2.75Z" fill="#48465C"/>
</svg>
