<svg width="24" height="24" viewBox="0 0 24 24" fill="none" xmlns="http://www.w3.org/2000/svg">
<path d="M12 1.25C17.9371 1.25 22.75 6.06294 22.75 12C22.75 17.9371 17.9371 22.75 12 22.75C6.06294 22.75 1.25 17.9371 1.25 12C1.25 6.06294 6.06294 1.25 12 1.25ZM12 2.75C6.89137 2.75 2.75 6.89137 2.75 12C2.75 17.1086 6.89137 21.25 12 21.25C17.1086 21.25 21.25 17.1086 21.25 12C21.25 6.89137 17.1086 2.75 12 2.75ZM9.96973 8.46973C10.2627 8.17684 10.7374 8.17684 11.0303 8.46973L14.0303 11.4697C14.3232 11.7626 14.3232 12.2374 14.0303 12.5303L11.0303 15.5303C10.7374 15.8232 10.2627 15.8232 9.96973 15.5303C9.67684 15.2374 9.67684 14.7626 9.96973 14.4697L12.4395 12L9.96973 9.53027C9.67684 9.23738 9.67684 8.76262 9.96973 8.46973Z" fill="#1C274C"/>
</svg>
