<svg width="24" height="24" viewBox="0 0 24 24" fill="none" xmlns="http://www.w3.org/2000/svg">
<path d="M16.0547 1.25C17.4222 1.24998 18.5246 1.24968 19.3916 1.36621C20.2917 1.48723 21.0494 1.74673 21.6514 2.34863C22.2533 2.95055 22.5128 3.70829 22.6338 4.6084C22.7503 5.47534 22.75 6.57782 22.75 7.94531V12.0547C22.75 13.4222 22.7503 14.5246 22.6338 15.3916C22.5128 16.2917 22.2533 17.0495 21.6514 17.6514C21.1534 18.1493 20.5467 18.4149 19.8359 18.5596C19.4738 18.6333 19.072 18.6777 18.6299 18.7051C18.6321 18.7102 18.6345 18.7155 18.6367 18.7207C18.9096 19.361 18.6765 20.1057 18.0566 20.457C17.8704 20.5626 17.6703 20.6013 17.5303 20.623C17.3838 20.6457 17.2003 20.6637 16.9971 20.6836L16.9775 20.6855C16.847 20.6983 16.7728 20.705 16.7178 20.7129C16.6927 20.7165 16.679 20.7195 16.6738 20.7207C16.6583 20.7268 16.6474 20.7347 16.6406 20.7412C16.6357 20.746 16.6325 20.7509 16.6299 20.7559C16.6287 20.7615 16.6261 20.7707 16.624 20.7842C16.6162 20.8345 16.6091 20.9034 16.5957 21.0293L16.5938 21.0498C16.5731 21.2432 16.5545 21.4214 16.5303 21.5645C16.5071 21.7023 16.4647 21.9055 16.3486 22.0938C15.9743 22.7006 15.227 22.8883 14.6123 22.6475C14.4206 22.5723 14.2663 22.4499 14.1553 22.3545C14.0416 22.2568 13.9077 22.1281 13.7578 21.9844L12 20.2988L10.2422 21.9844C10.0922 22.1281 9.95844 22.2568 9.84473 22.3545C9.73368 22.4499 9.57944 22.5723 9.3877 22.6475C8.77302 22.8883 8.02564 22.7006 7.65137 22.0938C7.5353 21.9055 7.493 21.7023 7.46973 21.5645C7.4456 21.4214 7.42685 21.2432 7.40625 21.0498L7.4043 21.0293C7.39089 20.9034 7.38377 20.8344 7.37598 20.7842C7.37392 20.7709 7.37222 20.7615 7.37109 20.7559C7.3684 20.7509 7.36426 20.746 7.35938 20.7412C7.35257 20.7347 7.34174 20.7268 7.32617 20.7207C7.32089 20.7195 7.3073 20.7165 7.28223 20.7129C7.22713 20.705 7.15289 20.6983 7.02246 20.6855L7.00293 20.6836C6.79969 20.6637 6.61618 20.6457 6.46973 20.623C6.32964 20.6013 6.12961 20.5626 5.94336 20.457C5.32345 20.1057 5.09036 19.361 5.36328 18.7207C5.36548 18.7155 5.36785 18.7103 5.37012 18.7051C4.97145 18.6804 4.60716 18.6418 4.27637 18.5811C3.51838 18.4418 2.87356 18.1763 2.34863 17.6514C1.74673 17.0494 1.48723 16.2917 1.36621 15.3916C1.24968 14.5246 1.24998 13.4222 1.25 12.0547V7.94531C1.24998 6.57782 1.24968 5.47534 1.36621 4.6084C1.48723 3.70829 1.74671 2.95055 2.34863 2.34863C2.95055 1.74671 3.70829 1.48723 4.6084 1.36621C5.47534 1.24968 6.57782 1.24998 7.94531 1.25H16.0547ZM7.11426 18.959C7.02716 19.0425 6.95726 19.1093 6.90039 19.165C6.97361 19.1729 7.06167 19.1819 7.16895 19.1924C7.18594 19.1941 7.20334 19.1956 7.2207 19.1973C7.41419 19.2158 7.629 19.2367 7.82324 19.3057C8.25471 19.4587 8.60543 19.7868 8.77344 20.2217C8.84924 20.418 8.87156 20.6357 8.89062 20.8193C8.8924 20.8364 8.89375 20.8537 8.89551 20.8701C8.90847 20.9917 8.91862 21.0863 8.92773 21.1621C8.99872 21.0976 9.08978 21.0104 9.21777 20.8877L10.6611 19.5039C9.73839 19.1511 8.99052 18.4444 8.58398 17.5498L7.11426 18.959ZM15.416 17.5498C15.0096 18.4445 14.2616 19.1511 13.3389 19.5039L14.7822 20.8877C14.9102 21.0104 15.0013 21.0976 15.0723 21.1621C15.0814 21.0863 15.0916 20.9917 15.1045 20.8701C15.1063 20.8537 15.1076 20.8364 15.1094 20.8193C15.1285 20.6357 15.1508 20.418 15.2266 20.2217C15.3946 19.7868 15.7452 19.4587 16.1768 19.3057C16.371 19.2367 16.5858 19.2158 16.7793 19.1973C16.7966 19.1956 16.8141 19.1941 16.8311 19.1924C16.9383 19.1819 17.0264 19.1729 17.0996 19.165C17.0427 19.1093 16.9728 19.0425 16.8857 18.959L15.416 17.5498ZM12 13.75C10.7574 13.75 9.75 14.7574 9.75 16C9.75 17.2325 10.741 18.2338 11.9697 18.25L12 18.2207L12.0303 18.25C13.259 18.2338 14.25 17.2325 14.25 16C14.25 14.7574 13.2426 13.75 12 13.75ZM8 2.75C6.56484 2.75 5.5639 2.75201 4.80859 2.85352C4.07482 2.95217 3.68594 3.13242 3.40918 3.40918C3.13242 3.68594 2.95217 4.07482 2.85352 4.80859C2.75201 5.5639 2.75 6.56485 2.75 8V12C2.75 13.4354 2.75196 14.437 2.85352 15.1924C2.95218 15.9258 3.13249 16.3141 3.40918 16.5908C3.65256 16.8341 3.98037 17.0014 4.54688 17.1055C5.08516 17.2044 5.78039 17.2367 6.73242 17.2461L7.54883 16.4639L8.25781 15.7549C8.38407 13.7981 10.0113 12.25 12 12.25C13.9887 12.25 15.616 13.7981 15.7422 15.7549L16.4512 16.4639L17.3125 17.2891L17.3115 17.2461C18.2982 17.2356 19.002 17.1987 19.5371 17.0898C20.0515 16.985 20.3589 16.8227 20.5908 16.5908C20.8676 16.3141 21.0478 15.9258 21.1465 15.1924C21.248 14.437 21.25 13.4354 21.25 12V8C21.25 6.56484 21.2479 5.5639 21.1465 4.80859C21.0478 4.07482 20.8676 3.68594 20.5908 3.40918C20.3141 3.13249 19.9258 2.95218 19.1924 2.85352C18.437 2.75196 17.4354 2.75 16 2.75H8ZM17 8.75C17.4142 8.75 17.75 9.08579 17.75 9.5C17.75 9.91421 17.4142 10.25 17 10.25H7C6.58579 10.25 6.25 9.91421 6.25 9.5C6.25 9.08579 6.58579 8.75 7 8.75H17ZM15 5.25C15.4142 5.25 15.75 5.58579 15.75 6C15.75 6.41421 15.4142 6.75 15 6.75H9C8.58579 6.75 8.25 6.41421 8.25 6C8.25 5.58579 8.58579 5.25 9 5.25H15Z" fill="#48465C"/>
</svg>
