<svg width="24" height="24" viewBox="0 0 24 24" fill="none" xmlns="http://www.w3.org/2000/svg">
<path d="M8.68945 17.1357V20.1416C8.68945 20.4395 8.68942 20.5892 8.79395 20.6494C8.89856 20.7096 9.04215 20.6428 9.32812 20.5098L10.6992 19.8711C10.7958 19.8261 10.8445 19.8038 10.8965 19.8037C10.9485 19.8037 10.9971 19.8261 11.0938 19.8711L12.4648 20.5098C12.7509 20.6429 12.8944 20.7095 12.999 20.6494C13.1037 20.5892 13.1035 20.4396 13.1035 20.1416V17.1357H19.999C19.9954 18.2661 19.9781 19.1093 19.8867 19.7754C19.7778 20.5686 19.5778 20.9889 19.2725 21.2881C18.9671 21.587 18.5386 21.782 17.7295 21.8887C16.896 21.9985 15.7909 22 14.207 22H9.79297C8.20941 22 7.10489 21.9984 6.27148 21.8887C5.46207 21.782 5.03292 21.5871 4.72754 21.2881C4.42219 20.9889 4.22313 20.5685 4.11426 19.7754C4.07303 19.475 4.04608 19.1383 4.0293 18.7559C4.30066 18.0045 4.93381 17.4262 5.72754 17.2178C6.01672 17.1419 6.39439 17.1357 7.47363 17.1357H8.68945ZM5.65527 15.5801C5.53113 15.5985 5.4128 15.6223 5.29883 15.6523C4.82673 15.7762 4.38857 15.9781 4 16.2441V7.67578C4 6.12423 4.00224 5.04212 4.11426 4.22559C4.22312 3.43231 4.42215 3.0121 4.72754 2.71289C4.94415 2.50069 5.22265 2.34058 5.65527 2.22754V15.5801ZM14.207 2C15.7909 2 16.896 2.00154 17.7295 2.11133C18.5389 2.21799 18.9671 2.41374 19.2725 2.71289C19.5778 3.01204 19.7768 3.43166 19.8857 4.22461C19.9977 5.04121 20 6.12397 20 7.67578V15.5137H7.31055V2.0293C7.98147 2.00103 8.7914 2 9.79297 2H14.207Z" fill="#1C274C"/>
</svg>
