<svg width="24" height="24" viewBox="0 0 24 24" fill="none" xmlns="http://www.w3.org/2000/svg">
<path d="M12 2C17.5228 2 22 6.47715 22 12C22 17.5228 17.5228 22 12 22C6.47715 22 2 17.5228 2 12C2 6.47715 6.47715 2 12 2ZM13.4355 7.46094C13.0985 7.22048 12.6303 7.2988 12.3896 7.63574C12.1491 7.97278 12.2275 8.44095 12.5645 8.68164L15.7861 10.9824C16.4839 11.4809 16.4839 12.5191 15.7861 13.0176L12.5645 15.3184C12.2275 15.559 12.149 16.0273 12.3896 16.3643C12.6302 16.7012 13.0985 16.7794 13.4355 16.5391L16.6572 14.2373C18.1927 13.1405 18.1927 10.8585 16.6572 9.76172L13.4355 7.46094ZM9.05469 8.03711C8.39014 7.59407 7.5 8.07044 7.5 8.86914V15.1318C7.50003 15.9305 8.39014 16.4069 9.05469 15.9639L13.752 12.832C14.3455 12.4362 14.3457 11.5637 13.752 11.168L9.05469 8.03711Z" fill="#1C274C"/>
</svg>
