<svg width="24" height="24" viewBox="0 0 24 24" fill="none" xmlns="http://www.w3.org/2000/svg">
<path d="M12 2C16.714 2 19.0708 2.00037 20.5352 3.46484C21.9996 4.9293 22 7.28597 22 12C22 16.714 21.9997 19.0708 20.5352 20.5352C19.0708 21.9997 16.714 22 12 22C7.28597 22 4.9293 21.9996 3.46484 20.5352C2.00037 19.0708 2 16.714 2 12C2 7.28595 2.00037 4.9293 3.46484 3.46484C4.9293 2.00037 7.28595 2 12 2ZM11.0303 8.46973C10.7374 8.17684 10.2627 8.17684 9.96973 8.46973C9.67684 8.76262 9.67684 9.23738 9.96973 9.53027L12.4395 12L9.96973 14.4697C9.67684 14.7626 9.67684 15.2374 9.96973 15.5303C10.2627 15.8232 10.7374 15.8232 11.0303 15.5303L14.0303 12.5303C14.171 12.3897 14.25 12.1989 14.25 12C14.25 11.8011 14.171 11.6103 14.0303 11.4697L11.0303 8.46973Z" fill="#1C274C"/>
</svg>
