<svg width="24" height="24" viewBox="0 0 24 24" fill="none" xmlns="http://www.w3.org/2000/svg">
<path d="M9.32129 2.89795C10.6243 2.03412 12.3756 2.03413 13.6787 2.89795L17.4141 5.37549C17.425 5.38277 17.4358 5.39021 17.4463 5.39795L17.4893 5.40283C18.6614 5.56045 19.6101 5.89302 20.3584 6.64111C21.2827 7.5655 21.5776 8.80417 21.6846 10.4106C22.2618 10.6647 22.6981 11.2019 22.7461 11.8823C22.7504 11.9423 22.75 12.007 22.75 12.0669V15.9331C22.75 15.9932 22.7504 16.0585 22.7461 16.1187C22.6976 16.8035 22.2557 17.3423 21.6729 17.5942C21.6766 17.5926 21.6808 17.592 21.6846 17.5903C21.5776 19.1967 21.2826 20.4346 20.3584 21.3589C19.6101 22.107 18.6614 22.4395 17.4893 22.5972C16.3501 22.7503 14.8943 22.7505 13.0566 22.7505H9.94336C8.10571 22.7505 6.6499 22.7503 5.51074 22.5972C4.33851 22.4395 3.3899 22.107 2.6416 21.3589C1.89324 20.6105 1.56094 19.6612 1.40332 18.4888C1.25019 17.3496 1.24998 15.8938 1.25 14.0562V13.9438C1.24998 12.1061 1.25017 10.6504 1.40332 9.51123C1.56094 8.33881 1.89324 7.38948 2.6416 6.64111C3.38989 5.893 4.33856 5.56045 5.51074 5.40283L5.55371 5.39795C5.56417 5.39021 5.57497 5.38277 5.58594 5.37549L9.32129 2.89795ZM10 6.75049C8.09321 6.75049 6.73859 6.75197 5.71094 6.89014C4.70508 7.02537 4.12533 7.27863 3.70215 7.70166C3.27894 8.12487 3.02491 8.70534 2.88965 9.71143C2.75154 10.739 2.75 12.094 2.75 14.0005C2.75 15.9071 2.75149 17.2619 2.88965 18.2896C3.02492 19.2954 3.27897 19.8752 3.70215 20.2983C4.12534 20.7214 4.705 20.9747 5.71094 21.1099C6.73859 21.2481 8.0932 21.2505 10 21.2505H13C14.9068 21.2505 16.2614 21.2481 17.2891 21.1099C18.2949 20.9747 18.8747 20.7214 19.2979 20.2983C19.7963 19.7999 20.0542 19.0917 20.168 17.7505H18.2305C16.0855 17.7503 14.2502 16.1226 14.25 14.0005C14.25 11.8782 16.0854 10.2507 18.2305 10.2505H20.168C20.0542 8.90903 19.7964 8.20019 19.2979 7.70166C18.8747 7.27863 18.2948 7.02537 17.2891 6.89014C16.2614 6.75198 14.9067 6.75049 13 6.75049H10ZM21.4355 17.6772C21.36 17.6985 21.2834 17.7172 21.2051 17.729C21.2834 17.7172 21.36 17.6986 21.4355 17.6772ZM18.2305 11.7505C16.8072 11.7507 15.75 12.8093 15.75 14.0005C15.7502 15.1915 16.8074 16.2503 18.2305 16.2505H20.833C20.8763 16.2505 20.9035 16.2497 20.9238 16.2495C20.9428 16.2493 20.9482 16.2495 20.9482 16.2495C21.1539 16.2369 21.2421 16.0979 21.249 16.0142C21.249 16.0142 21.2499 16.0076 21.25 15.9985V12.0015C21.2499 11.9925 21.249 11.9858 21.249 11.9858C21.242 11.9021 21.1538 11.7631 20.9482 11.7505H18.2305ZM18 13.0005C18.5523 13.0005 19 13.4482 19 14.0005C18.9998 14.5526 18.5522 15.0005 18 15.0005C17.4478 15.0005 17.0002 14.5526 17 14.0005C17 13.4482 17.4477 13.0005 18 13.0005ZM10 9.25049C10.4142 9.25049 10.75 9.58628 10.75 10.0005C10.7498 10.4145 10.4141 10.7505 10 10.7505H6C5.58592 10.7505 5.25021 10.4145 5.25 10.0005C5.25 9.58628 5.58579 9.25049 6 9.25049H10ZM21.5674 10.3647C21.551 10.3588 21.5351 10.3517 21.5186 10.3462C21.5351 10.3517 21.551 10.3588 21.5674 10.3647ZM21.0391 10.2534C21.1266 10.2588 21.213 10.2714 21.2979 10.2886C21.213 10.2714 21.1266 10.2587 21.0391 10.2534ZM12.8506 4.14795C12.0499 3.6171 10.9511 3.61729 10.1504 4.14795L8.4834 5.25342C8.94086 5.25002 9.42702 5.25048 9.94336 5.25049H13.0566C13.573 5.25048 14.0591 5.25002 14.5166 5.25342L12.8506 4.14795Z" fill="#48465C"/>
</svg>
