<svg width="24" height="24" viewBox="0 0 24 24" fill="none" xmlns="http://www.w3.org/2000/svg">
<path d="M12.0576 1.25C14.3657 1.24999 16.1745 1.24974 17.5859 1.43945C19.0306 1.63369 20.1706 2.03977 21.0654 2.93457C21.9602 3.82938 22.3662 4.96932 22.5605 6.41406C22.7502 7.82544 22.75 9.63432 22.75 11.9424V12.0576C22.75 14.3657 22.7502 16.1745 22.5605 17.5859C22.3662 19.0306 21.9602 20.1706 21.0654 21.0654C20.1706 21.9602 19.0306 22.3662 17.5859 22.5605C16.1745 22.7502 14.3657 22.75 12.0576 22.75H11.9424C9.63432 22.75 7.82544 22.7502 6.41406 22.5605C4.96932 22.3662 3.82938 21.9602 2.93457 21.0654C2.03977 20.1706 1.63369 19.0306 1.43945 17.5859C1.24974 16.1745 1.24999 14.3657 1.25 12.0576V11.9424C1.24999 9.63433 1.24974 7.82544 1.43945 6.41406C1.63369 4.96932 2.03976 3.82938 2.93457 2.93457C3.82938 2.03976 4.96932 1.63369 6.41406 1.43945C7.82544 1.24974 9.63433 1.24999 11.9424 1.25H12.0576ZM12 2.75C9.62177 2.75 7.91326 2.75198 6.61328 2.92676C5.33508 3.09865 4.56472 3.42551 3.99512 3.99512C3.42551 4.56472 3.09865 5.33508 2.92676 6.61328C2.75198 7.91326 2.75 9.62178 2.75 12C2.75 14.3782 2.75198 16.0867 2.92676 17.3867C3.09865 18.6649 3.42551 19.4352 3.99512 20.0049C4.56472 20.5745 5.33508 20.9014 6.61328 21.0732C7.91326 21.248 9.62177 21.25 12 21.25C14.3782 21.25 16.0867 21.248 17.3867 21.0732C18.6649 20.9014 19.4352 20.5745 20.0049 20.0049C20.5745 19.4352 20.9014 18.6649 21.0732 17.3867C21.248 16.0867 21.25 14.3782 21.25 12C21.25 9.62178 21.248 7.91326 21.0732 6.61328C20.9014 5.33508 20.5745 4.56472 20.0049 3.99512C19.4352 3.42551 18.6649 3.09865 17.3867 2.92676C16.0867 2.75198 14.3782 2.75 12 2.75ZM13.4697 14.4697C13.7626 14.1768 14.2374 14.1768 14.5303 14.4697L15.5303 15.4697C15.8232 15.7626 15.8232 16.2374 15.5303 16.5303C15.2374 16.8232 14.7626 16.8232 14.4697 16.5303L14 16.0605L13.5303 16.5303C13.2374 16.8232 12.7626 16.8232 12.4697 16.5303L12 16.0605L11.5303 16.5303C11.2374 16.8232 10.7626 16.8232 10.4697 16.5303L10 16.0605L9.53027 16.5303C9.23739 16.8232 8.76261 16.8232 8.46973 16.5303C8.17684 16.2374 8.17684 15.7626 8.46973 15.4697L9.46973 14.4697C9.76262 14.1768 10.2374 14.1768 10.5303 14.4697L11 14.9395L11.4697 14.4697C11.7626 14.1768 12.2374 14.1768 12.5303 14.4697L13 14.9395L13.4697 14.4697ZM7.40039 8.5498C7.64898 8.21871 8.11893 8.15194 8.4502 8.40039L10.4502 9.90039C10.6389 10.042 10.75 10.264 10.75 10.5C10.75 10.736 10.6389 10.958 10.4502 11.0996L8.4502 12.5996C8.11893 12.848 7.64898 12.7813 7.40039 12.4502C7.15194 12.1189 7.21871 11.649 7.5498 11.4004L8.75 10.5L7.5498 9.59961C7.21871 9.35102 7.15194 8.88107 7.40039 8.5498ZM15.5498 8.40039C15.8811 8.15194 16.351 8.21871 16.5996 8.5498C16.848 8.88107 16.7813 9.35102 16.4502 9.59961L15.25 10.5L16.4502 11.4004C16.7813 11.649 16.848 12.1189 16.5996 12.4502C16.351 12.7813 15.8811 12.848 15.5498 12.5996L13.5498 11.0996C13.3611 10.958 13.25 10.736 13.25 10.5C13.25 10.264 13.3611 10.042 13.5498 9.90039L15.5498 8.40039Z" fill="#1C274C"/>
</svg>
