<svg width="24" height="24" viewBox="0 0 24 24" fill="none" xmlns="http://www.w3.org/2000/svg">
<path d="M12.0518 1.25C12.9503 1.24997 13.7001 1.25012 14.2949 1.33008C14.9225 1.41452 15.489 1.6003 15.9443 2.05567C16.3997 2.51102 16.5855 3.07748 16.6699 3.70508C16.7499 4.29986 16.75 5.04977 16.75 5.94824V6.02539C18.7712 6.09152 19.9846 6.32834 20.8281 7.17188C21.9997 8.34346 22 10.2288 22 14C22 17.7712 21.9997 19.6566 20.8281 20.8281C19.6566 21.9997 17.7712 22 14 22H10C6.22877 22 4.34346 21.9997 3.17188 20.8281C2.00031 19.6566 2 17.7712 2 14C2 10.2288 2.00031 8.34346 3.17188 7.17188C4.01541 6.32834 5.22882 6.09152 7.25 6.02539V5.94824C7.24997 5.04976 7.25012 4.29986 7.33008 3.70508C7.41452 3.07747 7.6003 2.51102 8.05566 2.05567C8.51102 1.60031 9.07747 1.41452 9.70508 1.33008C10.2999 1.25012 11.0497 1.24997 11.9482 1.25H12.0518ZM8 8C7.44772 8 7 8.44772 7 9C7 9.55229 7.44772 10 8 10C8.55228 10 9 9.55229 9 9C9 8.44772 8.55228 8 8 8ZM16 8C15.4477 8 15 8.44772 15 9C15 9.55229 15.4477 10 16 10C16.5523 10 17 9.55229 17 9C17 8.44772 16.5523 8 16 8ZM12 2.75C11.036 2.75 10.3883 2.75147 9.90527 2.81641C9.44388 2.87845 9.24652 2.9859 9.11621 3.11621C8.9859 3.24652 8.87845 3.44388 8.81641 3.90527C8.75147 4.3883 8.75 5.03599 8.75 6V6.00195C9.14203 6.00006 9.55807 6 10 6H14C14.4419 6 14.858 6.00006 15.25 6.00195V6C15.25 5.03599 15.2485 4.3883 15.1836 3.90527C15.1215 3.44389 15.0141 3.24652 14.8838 3.11621C14.7535 2.98591 14.5561 2.87845 14.0947 2.81641C13.6117 2.75147 12.964 2.75 12 2.75Z" fill="#1C274C"/>
</svg>
