<svg width="24" height="24" viewBox="0 0 24 24" fill="none" xmlns="http://www.w3.org/2000/svg">
<path d="M5.00779 4.40714C6.68775 2.72718 9.52241 2.85439 10.6924 4.95011L11.3418 6.1132C12.1057 7.48202 11.7804 9.20971 10.6621 10.3417C10.647 10.3624 10.5675 10.4772 10.5576 10.6776C10.5452 10.9341 10.6366 11.5271 11.5547 12.4452C12.4728 13.3633 13.0658 13.4547 13.3222 13.4423C13.5229 13.4325 13.6375 13.3529 13.6582 13.3378C14.7902 12.2195 16.5179 11.8942 17.8867 12.6581L19.0498 13.3075C21.1455 14.4774 21.2734 17.3121 19.5937 18.9921C18.6951 19.8908 17.4998 20.6898 16.0957 20.7431C14.0148 20.822 10.5595 20.284 7.13767 16.8622C3.71592 13.4404 3.17793 9.98513 3.25681 7.90421C3.31013 6.5002 4.10925 5.30573 5.00779 4.40714ZM9.38279 5.68156C8.78377 4.60821 7.17417 4.36186 6.06834 5.46769C5.2932 6.24287 4.78871 7.09828 4.75584 7.96085C4.69005 9.69618 5.11891 12.7223 8.19822 15.8017C11.2776 18.881 14.3037 19.3099 16.039 19.2441C16.9017 19.2112 17.757 18.7067 18.5322 17.9316C19.6381 16.8257 19.3917 15.2161 18.3183 14.6171L17.1553 13.9677C16.4319 13.5643 15.4154 13.7028 14.7021 14.4159C14.6311 14.4869 14.1856 14.9018 13.3955 14.9403C12.5853 14.9797 11.6039 14.6157 10.4941 13.5058C9.38407 12.3957 9.01999 11.4146 9.05955 10.6044C9.0983 9.81304 9.51515 9.36757 9.58494 9.29777C10.2981 8.58455 10.4357 7.56803 10.0322 6.84464L9.38279 5.68156ZM19.4697 3.46964C19.7626 3.17676 20.2373 3.17681 20.5303 3.46964C20.8232 3.76253 20.8232 4.23729 20.5303 4.53019L19.0605 5.99992L20.5303 7.46964C20.8232 7.76254 20.8232 8.2373 20.5303 8.53019C20.2373 8.82297 19.7626 8.82305 19.4697 8.53019L18 7.06046L16.5303 8.53019C16.2373 8.82297 15.7626 8.82304 15.4697 8.53019C15.1769 8.23734 15.177 7.76252 15.4697 7.46964L16.9394 5.99992L15.4697 4.53019C15.1769 4.23734 15.177 3.76252 15.4697 3.46964C15.7626 3.17677 16.2373 3.17681 16.5303 3.46964L18 4.93937L19.4697 3.46964Z" fill="#1C274C"/>
</svg>
