<svg width="24" height="24" viewBox="0 0 24 24" fill="none" xmlns="http://www.w3.org/2000/svg">
<path d="M14.0566 3.25C15.8943 3.24998 17.3501 3.25016 18.4893 3.40332C19.6615 3.56095 20.6101 3.89332 21.3584 4.6416C22.1066 5.38992 22.439 6.33844 22.5967 7.51074C22.6871 8.18355 22.7242 8.96695 22.7393 9.87402C22.7462 9.9149 22.75 9.95716 22.75 10C22.75 10.0352 22.7478 10.0696 22.7432 10.1035C22.7503 10.6691 22.75 11.2817 22.75 11.9434V12.0566C22.75 13.8943 22.7498 15.3501 22.5967 16.4893C22.439 17.6615 22.1066 18.6101 21.3584 19.3584C20.6101 20.1066 19.6615 20.439 18.4893 20.5967C17.3501 20.7498 15.8943 20.75 14.0566 20.75H9.94336C8.10571 20.75 6.6499 20.7498 5.51074 20.5967C4.33845 20.439 3.38991 20.1066 2.6416 19.3584C1.89332 18.6101 1.56095 17.6615 1.40332 16.4893C1.25016 15.3501 1.24998 13.8943 1.25 12.0566V11.9434C1.24999 11.2817 1.24969 10.6691 1.25684 10.1035C1.25216 10.0696 1.25 10.0351 1.25 10C1.25 9.95716 1.25384 9.9149 1.26074 9.87402C1.2759 8.96696 1.31286 8.18355 1.40332 7.51074C1.56095 6.33844 1.8933 5.38992 2.6416 4.6416C3.38992 3.8933 4.33844 3.56095 5.51074 3.40332C6.64991 3.25016 8.10571 3.24998 9.94336 3.25H14.0566ZM2.75 12C2.75 13.9067 2.7515 15.2614 2.88965 16.2891C3.02491 17.2951 3.27894 17.8747 3.70215 18.2979C4.12536 18.7211 4.70485 18.9752 5.71094 19.1104C6.73858 19.2485 8.09325 19.25 10 19.25H14C15.9067 19.25 17.2614 19.2485 18.2891 19.1104C19.2951 18.9752 19.8747 18.7211 20.2979 18.2979C20.7211 17.8747 20.9752 17.2951 21.1104 16.2891C21.2485 15.2614 21.25 13.9067 21.25 12C21.25 11.5541 21.2499 11.1384 21.248 10.75H2.75195C2.75005 11.1384 2.75 11.5541 2.75 12ZM16.0449 12.25C16.4777 12.2499 16.8745 12.2496 17.1973 12.293C17.5528 12.3408 17.9283 12.4536 18.2373 12.7627C18.5464 13.0717 18.6592 13.4472 18.707 13.8027C18.7504 14.1255 18.7501 14.5223 18.75 14.9551V15.0449C18.7501 15.4777 18.7504 15.8745 18.707 16.1973C18.6592 16.5528 18.5464 16.9283 18.2373 17.2373C17.9283 17.5464 17.5528 17.6592 17.1973 17.707C16.8745 17.7504 16.4777 17.7501 16.0449 17.75H15.9551C15.5223 17.7501 15.1255 17.7504 14.8027 17.707C14.4472 17.6592 14.0717 17.5464 13.7627 17.2373C13.4536 16.9283 13.3408 16.5528 13.293 16.1973C13.2496 15.8745 13.2499 15.4777 13.25 15.0449V14.9551C13.2499 14.5223 13.2496 14.1255 13.293 13.8027C13.3408 13.4472 13.4536 13.0717 13.7627 12.7627C14.0717 12.4536 14.4472 12.3408 14.8027 12.293C15.1255 12.2496 15.5223 12.2499 15.9551 12.25H16.0449ZM10 15.75C10.4142 15.75 10.75 16.0858 10.75 16.5C10.75 16.9142 10.4142 17.25 10 17.25H6C5.58579 17.25 5.25 16.9142 5.25 16.5C5.25 16.0858 5.58579 15.75 6 15.75H10ZM16 13.75C15.5075 13.75 15.2136 13.752 15.0029 13.7803C14.9063 13.7933 14.8576 13.8084 14.8359 13.8174C14.8311 13.8193 14.8281 13.8213 14.8262 13.8223L14.8232 13.8232L14.8223 13.8262C14.8213 13.8281 14.8193 13.8311 14.8174 13.8359C14.8084 13.8576 14.7933 13.9063 14.7803 14.0029C14.752 14.2136 14.75 14.5075 14.75 15C14.75 15.4925 14.752 15.7864 14.7803 15.9971C14.7933 16.0937 14.8084 16.1424 14.8174 16.1641C14.8181 16.1659 14.8187 16.1676 14.8193 16.1689C14.8203 16.171 14.8217 16.1727 14.8223 16.1738L14.8232 16.1768L14.8262 16.1777C14.8281 16.1787 14.8311 16.1807 14.8359 16.1826C14.8576 16.1916 14.9063 16.2067 15.0029 16.2197C15.2136 16.248 15.5075 16.25 16 16.25C16.4925 16.25 16.7864 16.248 16.9971 16.2197C17.0937 16.2067 17.1424 16.1916 17.1641 16.1826C17.1689 16.1807 17.1719 16.1787 17.1738 16.1777L17.1768 16.1768L17.1777 16.1738C17.1787 16.1719 17.1807 16.1689 17.1826 16.1641C17.1916 16.1424 17.2067 16.0937 17.2197 15.9971C17.248 15.7864 17.25 15.4925 17.25 15C17.25 14.5075 17.248 14.2136 17.2197 14.0029C17.2067 13.9063 17.1916 13.8576 17.1826 13.8359C17.1815 13.8331 17.1805 13.8309 17.1797 13.8291C17.1791 13.8279 17.1782 13.8269 17.1777 13.8262L17.1768 13.8232L17.1738 13.8223C17.1719 13.8213 17.1689 13.8193 17.1641 13.8174C17.1424 13.8084 17.0937 13.7933 16.9971 13.7803C16.7864 13.752 16.4925 13.75 16 13.75ZM8 12.75C8.41421 12.75 8.75 13.0858 8.75 13.5C8.75 13.9142 8.41421 14.25 8 14.25H6C5.58579 14.25 5.25 13.9142 5.25 13.5C5.25 13.0858 5.58579 12.75 6 12.75H8ZM10 4.75C8.09324 4.75 6.73858 4.75149 5.71094 4.88965C4.70485 5.02491 4.12536 5.27894 3.70215 5.70215C3.27894 6.12536 3.02491 6.70485 2.88965 7.71094C2.82977 8.1564 2.79594 8.66332 2.77637 9.25H21.2236C21.2041 8.66332 21.1702 8.1564 21.1104 7.71094C20.9752 6.70485 20.7211 6.12536 20.2979 5.70215C19.8747 5.27894 19.2951 5.02491 18.2891 4.88965C17.2614 4.7515 15.9067 4.75 14 4.75H10Z" fill="#1C274C"/>
</svg>
