<svg width="24" height="24" viewBox="0 0 24 24" fill="none" xmlns="http://www.w3.org/2000/svg">
<path d="M14.124 4.17969C15.6971 2.60686 18.2473 2.60671 19.8203 4.17969C21.3933 5.75267 21.3932 8.30288 19.8203 9.87598L18.9268 10.7705L17.626 9.46973C17.3331 9.17684 16.8583 9.17684 16.5654 9.46973C16.2726 9.76262 16.2726 10.2374 16.5654 10.5303L17.8662 11.8311L15.7275 13.9697L14.4268 12.6689C14.1339 12.3761 13.6591 12.3763 13.3662 12.6689C13.0734 12.9618 13.0734 13.4366 13.3662 13.7295L14.666 15.0303L12.5176 17.1787L11.2178 15.8779C10.925 15.5852 10.4502 15.5855 10.1572 15.8779C9.86432 16.1708 9.86432 16.6466 10.1572 16.9395L11.457 18.2393L10.8779 18.8184C10.2291 19.4672 9.32027 19.7869 8.4082 19.6855L7.60938 19.5967C7.00128 19.5291 6.39454 19.7412 5.96191 20.1738L5.5791 20.5576C4.98919 21.1475 4.03228 21.1475 3.44238 20.5576C2.8525 19.9677 2.85248 19.0108 3.44238 18.4209L3.82617 18.0381C4.2588 17.6055 4.47089 16.9987 4.40332 16.3906L4.31445 15.5918C4.21318 14.6798 4.53275 13.7709 5.18164 13.1221L14.124 4.17969ZM16.0303 7.96973C15.7374 7.67684 15.2626 7.67684 14.9697 7.96973L8.46973 14.4697C8.17685 14.7626 8.17684 15.2374 8.46973 15.5303C8.7626 15.8232 9.23738 15.8231 9.53027 15.5303L16.0303 9.03027C16.3232 8.73738 16.3232 8.26262 16.0303 7.96973Z" fill="#48465C"/>
</svg>
