<svg width="24" height="24" viewBox="0 0 24 24" fill="none" xmlns="http://www.w3.org/2000/svg">
<path d="M8.00037 5.25C8.41444 5.25016 8.75037 5.58589 8.75037 6V13.125H12.0004C12.3015 13.1251 12.5734 13.3056 12.6908 13.583C12.808 13.8603 12.7482 14.1812 12.5385 14.3975L8.53845 18.5225C8.39729 18.668 8.20307 18.7499 8.00037 18.75C7.79746 18.75 7.60256 18.6682 7.4613 18.5225L3.4613 14.3975C3.2517 14.1813 3.19178 13.8603 3.30896 13.583C3.42638 13.3055 3.69912 13.125 4.00037 13.125H7.25037V6C7.25037 5.58579 7.58615 5.25 8.00037 5.25ZM16.0004 5.25C16.2031 5.25008 16.3973 5.33206 16.5385 5.47754L20.5385 9.60254C20.7482 9.81874 20.808 10.1397 20.6908 10.417C20.5734 10.6944 20.3015 10.8749 20.0004 10.875H16.7504V18C16.7504 18.4141 16.4144 18.7498 16.0004 18.75C15.5862 18.75 15.2504 18.4142 15.2504 18V10.875H12.0004C11.6992 10.875 11.4265 10.6945 11.309 10.417C11.1918 10.1397 11.2517 9.8187 11.4613 9.60254L15.4613 5.47754C15.6026 5.33187 15.7975 5.25 16.0004 5.25Z" fill="#48465C"/>
</svg>
