<svg width="24" height="24" viewBox="0 0 24 24" fill="none" xmlns="http://www.w3.org/2000/svg">
<path d="M11.9996 1.25C14.0707 1.25 15.7496 2.92893 15.7496 5V6.01465C17.0368 6.05328 17.8251 6.19234 18.4264 6.69141C19.2595 7.3829 19.4786 8.55377 19.9176 10.8945L20.6676 14.8945C21.2848 18.186 21.5936 19.8319 20.694 20.916C19.7943 22.0001 18.1192 22 14.7701 22H9.22913C5.88043 22 4.20597 22 3.30627 20.916C2.40657 19.8319 2.71547 18.1861 3.33264 14.8945L4.08264 10.8945C4.52155 8.55362 4.74067 7.38289 5.57385 6.69141C6.17512 6.19241 6.96268 6.05331 8.24963 6.01465V5C8.24963 2.92905 9.92872 1.25019 11.9996 1.25ZM12.9996 9.25C12.5856 9.25019 12.2496 9.58591 12.2496 10V13.5498C11.8746 13.3581 11.4496 13.25 10.9996 13.25C9.48099 13.2502 8.24963 14.4813 8.24963 16C8.24963 17.5187 9.48099 18.7498 10.9996 18.75C12.5184 18.75 13.7496 17.5188 13.7496 16V12.4502C14.1245 12.6419 14.5497 12.7499 14.9996 12.75C15.4138 12.75 15.7496 12.4142 15.7496 12C15.7496 11.5858 15.4138 11.25 14.9996 11.25C14.3094 11.2498 13.7496 10.6903 13.7496 10C13.7496 9.58579 13.4138 9.25 12.9996 9.25ZM10.9996 14.75C11.6899 14.75 12.2496 15.3096 12.2496 16C12.2496 16.6904 11.6899 17.25 10.9996 17.25C10.3094 17.2498 9.74963 16.6903 9.74963 16C9.74963 15.3097 10.3094 14.7502 10.9996 14.75ZM11.9996 2.75C10.7572 2.75019 9.74963 3.75748 9.74963 5V6H14.2496V5C14.2496 3.75736 13.2422 2.75 11.9996 2.75Z" fill="#1C274C"/>
</svg>
