<svg width="24" height="24" viewBox="0 0 24 24" fill="none" xmlns="http://www.w3.org/2000/svg">
<path fill-rule="evenodd" clip-rule="evenodd" d="M16.9999 3.75C17.4141 3.75003 17.7499 4.08581 17.7499 4.5C17.7499 4.91419 17.4141 5.24997 16.9999 5.25C15.2443 5.25 14.2192 5.96493 13.6083 6.81348C12.97 7.70021 12.7499 8.78675 12.7499 9.5V17.6895L16.4697 13.9697C16.7626 13.6769 17.2373 13.6768 17.5302 13.9697C17.8231 14.2626 17.8231 14.7374 17.5302 15.0303L12.5302 20.0303C12.2373 20.3232 11.7626 20.3231 11.4697 20.0303L6.46967 15.0303C6.17678 14.7374 6.17678 14.2626 6.46967 13.9697C6.76256 13.6769 7.23734 13.6768 7.53021 13.9697L11.2499 17.6895V9.5C11.2499 8.54665 11.53 7.13307 12.3915 5.93652C13.2807 4.7019 14.7557 3.75 16.9999 3.75Z" fill="#1C274C"/>
</svg>
