<svg width="24" height="24" viewBox="0 0 24 24" fill="none" xmlns="http://www.w3.org/2000/svg">
<path d="M17 3.75C17.4142 3.75003 17.75 4.08581 17.75 4.5C17.75 4.91419 17.4142 5.24997 17 5.25C15.2444 5.25 14.2193 5.96493 13.6084 6.81348C12.9701 7.70021 12.75 8.78675 12.75 9.5V17.6895L16.4697 13.9697C16.7626 13.6769 17.2374 13.6768 17.5303 13.9697C17.8231 14.2626 17.8231 14.7374 17.5303 15.0303L12.5303 20.0303C12.2374 20.3232 11.7626 20.3231 11.4697 20.0303L6.46973 15.0303C6.17684 14.7374 6.17684 14.2626 6.46973 13.9697C6.76262 13.6769 7.2374 13.6768 7.53027 13.9697L11.25 17.6895V9.5C11.25 8.54665 11.5301 7.13307 12.3916 5.93652C13.2807 4.7019 14.7558 3.75 17 3.75Z" fill="#48465C"/>
</svg>
