<svg width="24" height="24" viewBox="0 0 24 24" fill="none" xmlns="http://www.w3.org/2000/svg">
<path d="M8.96973 6.46973C9.26262 6.17684 9.73741 6.17684 10.0303 6.46973C10.3231 6.76262 10.3231 7.23741 10.0303 7.53027L6.31055 11.25H14.5C15.4534 11.25 16.867 11.5301 18.0635 12.3916C19.2981 13.2807 20.25 14.7558 20.25 17C20.25 17.4142 19.9142 17.75 19.5 17.75C19.0858 17.75 18.75 17.4142 18.75 17C18.75 15.2444 18.035 14.2193 17.1865 13.6084C16.2998 12.9701 15.2132 12.75 14.5 12.75H6.31055L10.0303 16.4697C10.3231 16.7626 10.3232 17.2374 10.0303 17.5303C9.73744 17.8231 9.26262 17.8231 8.96973 17.5303L3.96973 12.5303C3.67684 12.2374 3.67684 11.7626 3.96973 11.4697L8.96973 6.46973Z" fill="#48465C"/>
</svg>
