<svg width="24" height="24" viewBox="0 0 24 24" fill="none" xmlns="http://www.w3.org/2000/svg">
<path d="M12 2C16.714 2 19.0708 2.00037 20.5352 3.46484C21.9996 4.9293 22 7.28597 22 12C22 16.714 21.9997 19.0708 20.5352 20.5352C19.0708 21.9997 16.714 22 12 22C7.28597 22 4.9293 21.9996 3.46484 20.5352C2.00037 19.0708 2 16.714 2 12C2 7.28595 2.00037 4.9293 3.46484 3.46484C4.9293 2.00037 7.28595 2 12 2ZM9.70215 8.6416C9.40926 8.34871 8.9345 8.34871 8.6416 8.6416C8.34871 8.9345 8.34871 9.40926 8.6416 9.70215L13.0176 14.0781H10.5859C10.1718 14.0781 9.83609 14.4141 9.83594 14.8281C9.83594 15.2423 10.1717 15.5781 10.5859 15.5781H14.8281C15.2423 15.5781 15.5781 15.2423 15.5781 14.8281V10.5859C15.5781 10.1717 15.2423 9.83595 14.8281 9.83594C14.4141 9.8361 14.0781 10.1718 14.0781 10.5859V13.0176L9.70215 8.6416Z" fill="#1C274C"/>
</svg>
