<svg width="24" height="24" viewBox="0 0 24 24" fill="none" xmlns="http://www.w3.org/2000/svg">
<path fill-rule="evenodd" clip-rule="evenodd" d="M2.27728 5.24691C2.38798 4.84793 2.80113 4.61402 3.20013 4.72445L4.90424 5.19711C5.82112 5.4515 6.54661 6.15881 6.79974 7.07504L8.86713 14.5555C9.9316 14.792 10.8647 15.4794 11.373 16.4666L19.8115 14.2733C20.2122 14.1692 20.6211 14.4098 20.7255 14.8104C20.8297 15.2113 20.5893 15.6212 20.1884 15.7254L11.7685 17.9139C11.8639 19.6101 10.7242 21.179 9.00091 21.6268C7.03184 22.1383 4.97849 21.0104 4.43841 19.0555C3.89571 17.091 5.10396 15.1025 7.08099 14.5887C7.15573 14.5692 7.23072 14.5516 7.3056 14.537L5.35443 7.47445C5.24615 7.08254 4.92847 6.7605 4.50287 6.64242L2.79974 6.16976C2.40069 6.05906 2.16671 5.64597 2.27728 5.24691ZM10.1982 17.5584C9.88588 16.4284 8.66961 15.725 7.45795 16.0399C6.25409 16.3528 5.57418 17.5355 5.88373 18.6561C6.19593 19.7862 7.41225 20.4895 8.62396 20.1746C9.82786 19.8618 10.5078 18.6791 10.1982 17.5584ZM16.329 2.28597C16.9505 2.20835 17.5385 2.23943 18.0908 2.54867C18.6462 2.85975 18.9735 3.34447 19.2187 3.9139C19.4496 4.45032 19.6434 5.15063 19.874 5.98519L20.416 7.94906C20.6465 8.78319 20.8403 9.48344 20.9169 10.0604C20.9982 10.6722 20.9658 11.2585 20.6396 11.8065C20.3154 12.3509 19.8151 12.6652 19.2372 12.8993C18.6876 13.1217 17.9692 13.3088 17.1064 13.533L15.0878 14.0575C14.2247 14.2818 13.5063 14.468 12.916 14.5418C12.2943 14.6195 11.7065 14.5883 11.1542 14.2791C10.5987 13.9681 10.2704 13.4835 10.0253 12.9139C9.79443 12.3775 9.60156 11.6772 9.37103 10.8426L8.82806 8.87875C8.5976 8.04464 8.40472 7.34437 8.32806 6.76742C8.24677 6.1555 8.27918 5.56935 8.60541 5.02133C8.92957 4.47704 9.429 4.16251 10.0068 3.92855C10.5566 3.70598 11.2757 3.51899 12.1386 3.29476L14.1562 2.77035C15.0195 2.54596 15.7385 2.35977 16.329 2.28597ZM17.3574 3.85726C17.1968 3.76743 16.9759 3.7166 16.5146 3.77426C16.0329 3.83447 15.4092 3.99482 14.4843 4.23519L12.5644 4.73422C11.6397 4.97453 11.0179 5.13796 10.5703 5.31918C10.1403 5.49324 9.98096 5.64196 9.89349 5.7889C9.80815 5.93237 9.75613 6.1316 9.81439 6.57015C9.87577 7.03201 10.0398 7.63157 10.288 8.53011L10.8027 10.3924C11.0509 11.2907 11.2181 11.8899 11.4033 12.3202C11.5788 12.7282 11.7293 12.8824 11.8867 12.9705C12.0473 13.0605 12.2687 13.1113 12.7304 13.0536C13.212 12.9933 13.835 12.8329 14.7597 12.5926L16.6796 12.0936C17.6048 11.8532 18.2271 11.6899 18.6747 11.5086C19.1044 11.3346 19.263 11.1858 19.3505 11.0389C19.4359 10.8954 19.4879 10.6964 19.4296 10.2577C19.3682 9.79575 19.2043 9.19624 18.956 8.29769L18.4413 6.43539C18.1931 5.53675 18.026 4.93702 17.8408 4.50668C17.6652 4.09898 17.5147 3.94536 17.3574 3.85726Z" fill="#1C274C"/>
</svg>
