<svg width="24" height="24" viewBox="0 0 24 24" fill="none" xmlns="http://www.w3.org/2000/svg">
<path d="M2.27734 5.24707C2.38808 4.84794 2.80203 4.61388 3.20117 4.72461L4.9043 5.19727C5.82118 5.45166 6.54667 6.15897 6.7998 7.0752L8.86719 14.5557C9.93169 14.7922 10.8648 15.4796 11.373 16.4668L19.8115 14.2734C20.2123 14.1693 20.6222 14.4098 20.7266 14.8105C20.8307 15.2113 20.5901 15.6212 20.1895 15.7256L11.7686 17.9141C11.8639 19.6103 10.7242 21.1792 9.00098 21.627C7.03193 22.1384 4.97854 21.0105 4.43848 19.0557C3.89579 17.0912 5.10403 15.1027 7.08105 14.5889C7.15583 14.5694 7.23074 14.5518 7.30566 14.5371L5.35449 7.47461C5.24624 7.08282 4.92932 6.76074 4.50391 6.64258L2.7998 6.16992C2.40076 6.05922 2.1668 5.64612 2.27734 5.24707ZM10.1982 17.5586C9.88593 16.4286 8.66967 15.7252 7.45801 16.04C6.25416 16.353 5.57516 17.5357 5.88477 18.6562C6.19702 19.7862 7.4124 20.4896 8.62402 20.1748C9.82792 19.862 10.5078 18.6793 10.1982 17.5586ZM16.3291 2.28613C16.9505 2.20851 17.5385 2.23959 18.0908 2.54883C18.6463 2.85991 18.9736 3.34463 19.2188 3.91406C19.4496 4.45048 19.6434 5.15079 19.874 5.98535L20.416 7.94922C20.6465 8.78335 20.8404 9.4836 20.917 10.0605C20.9983 10.6724 20.9658 11.2587 20.6396 11.8066C20.3154 12.3511 19.8152 12.6654 19.2373 12.8994C18.6876 13.1219 17.9692 13.3089 17.1064 13.5332L15.0879 14.0576C14.2247 14.282 13.5063 14.4682 12.916 14.542C12.2944 14.6197 11.7065 14.5885 11.1543 14.2793C10.5987 13.9682 10.2705 13.4836 10.0254 12.9141C9.79449 12.3777 9.60162 11.6774 9.37109 10.8428L8.82812 8.87891C8.59766 8.0448 8.40478 7.34453 8.32812 6.76758C8.24683 6.15566 8.27924 5.56951 8.60547 5.02148C8.92963 4.4772 9.42906 4.16266 10.0068 3.92871C10.5566 3.70614 11.2758 3.51915 12.1387 3.29492L14.1562 2.77051C15.0196 2.54612 15.7386 2.35993 16.3291 2.28613ZM17.3574 3.85742C17.1968 3.76759 16.9759 3.71676 16.5146 3.77441C16.0329 3.83462 15.4093 3.99498 14.4844 4.23535L12.5645 4.73438C11.6397 4.97469 11.0179 5.13812 10.5703 5.31934C10.1403 5.4934 9.98102 5.64212 9.89355 5.78906C9.80821 5.93253 9.75619 6.13176 9.81445 6.57031C9.87583 7.03217 10.0399 7.63173 10.2881 8.53027L10.8027 10.3926C11.0509 11.2908 11.2182 11.89 11.4033 12.3203C11.5789 12.7284 11.7293 12.8826 11.8867 12.9707C12.0473 13.0607 12.2688 13.1114 12.7305 13.0537C13.2121 12.9935 13.8351 12.8331 14.7598 12.5928L16.6797 12.0938C17.6049 11.8534 18.2271 11.6901 18.6748 11.5088C19.1045 11.3348 19.2631 11.1859 19.3506 11.0391C19.436 10.8956 19.488 10.6965 19.4297 10.2578C19.3683 9.79591 19.2044 9.1964 18.9561 8.29785L18.4414 6.43555C18.1932 5.53691 18.026 4.93718 17.8408 4.50684C17.6653 4.09914 17.5148 3.94552 17.3574 3.85742Z" fill="#48465C"/>
</svg>
