<svg width="24" height="24" viewBox="0 0 24 24" fill="none" xmlns="http://www.w3.org/2000/svg">
<path d="M12 14C13.8856 14 14.8283 14.0001 15.4141 14.5859C15.9999 15.1717 16 16.1144 16 18C16 19.8856 15.9999 20.8283 15.4141 21.4141C14.8283 21.9999 13.8856 22 12 22C10.1144 22 9.17172 21.9999 8.58594 21.4141C8.00015 20.8283 8 19.8856 8 18C8 16.1144 8.00015 15.1717 8.58594 14.5859C9.17172 14.0001 10.1144 14 12 14ZM14.249 15.751C13.9886 15.4907 13.5669 15.4907 13.3066 15.751L12 17.0576L10.6934 15.751C10.4331 15.4907 10.0113 15.4907 9.75098 15.751C9.49065 16.0114 9.49067 16.4331 9.75098 16.6934L11.0576 18L9.75098 19.3066C9.49067 19.5669 9.49065 19.9886 9.75098 20.249C10.0113 20.5093 10.4331 20.5093 10.6934 20.249L12 18.9424L13.3066 20.249C13.5669 20.5093 13.9886 20.5093 14.249 20.249C14.5093 19.9886 14.5093 19.5669 14.249 19.3066L12.9424 18L14.249 16.6934C14.5093 16.4331 14.5093 16.0114 14.249 15.751ZM12.4766 2C15.416 2.00018 17.8371 4.19364 18.1553 7.01465C20.393 7.77989 21.9998 9.88095 22 12.3525C22 15.0595 20.0726 17.322 17.5 17.8721C17.5001 17.0214 17.4986 16.2415 17.4131 15.6055C17.3175 14.8945 17.0926 14.1434 16.4746 13.5254C15.8566 12.9074 15.1055 12.6825 14.3945 12.5869C13.749 12.5001 12.9553 12.4999 12.0898 12.5H11.9102C11.0447 12.4999 10.251 12.5001 9.60547 12.5869C8.89456 12.6825 8.14339 12.9074 7.52539 13.5254C6.9074 14.1434 6.68252 14.8945 6.58691 15.6055C6.50013 16.251 6.4999 17.0447 6.5 17.9102V18H6.28613C3.9192 18 2 16.1037 2 13.7646C2.00003 11.4256 3.91922 9.5293 6.28613 9.5293C6.57009 9.52932 6.8477 9.55629 7.11621 9.6084C6.88725 8.99756 6.76177 8.33698 6.76172 7.64746C6.76172 4.52867 9.32064 2 12.4766 2Z" fill="#1C274C"/>
</svg>
