<svg width="24" height="24" viewBox="0 0 24 24" fill="none" xmlns="http://www.w3.org/2000/svg">
<path d="M21.9736 8.75C22 9.68873 22 10.7633 22 12C22 16.714 21.9997 19.0708 20.5352 20.5352C19.0708 21.9996 16.714 22 12 22C7.28598 22 4.92931 21.9996 3.46484 20.5352C2.00038 19.0708 2 16.714 2 12C2 10.7633 1.99993 9.68873 2.02637 8.75H21.9736ZM6.5 16.75C6.08579 16.75 5.75 17.0858 5.75 17.5C5.75001 17.9142 6.0858 18.25 6.5 18.25H12C12.4142 18.25 12.75 17.9142 12.75 17.5C12.75 17.0858 12.4142 16.75 12 16.75H6.5ZM6.5 13.25C6.08579 13.25 5.75 13.5858 5.75 14C5.75001 14.4142 6.0858 14.75 6.5 14.75H14.5C14.9142 14.75 15.25 14.4142 15.25 14C15.25 13.5858 14.9142 13.25 14.5 13.25H6.5ZM6.59863 7.25H2.10449C2.25174 5.48595 2.60722 4.3225 3.46484 3.46484C4.7172 2.21248 6.62199 2.03115 10.0957 2.00488L6.59863 7.25ZM12 2C13.8452 2 15.3293 2.00006 16.54 2.08789L13.0986 7.25H8.40137L11.9014 2H12ZM18.1982 2.30469C19.1919 2.5141 19.9379 2.86755 20.5352 3.46484C21.3928 4.32247 21.7483 5.48603 21.8955 7.25H14.9014L18.1982 2.30469Z" fill="#48465C"/>
</svg>
