<svg width="24" height="24" viewBox="0 0 24 24" fill="none" xmlns="http://www.w3.org/2000/svg">
<path d="M12 1.25C17.9371 1.25 22.75 6.06294 22.75 12C22.75 17.9371 17.9371 22.75 12 22.75C6.06294 22.75 1.25 17.9371 1.25 12C1.25 6.06294 6.06294 1.25 12 1.25ZM12 2.75C6.89137 2.75 2.75 6.89137 2.75 12C2.75 17.1086 6.89137 21.25 12 21.25C17.1086 21.25 21.25 17.1086 21.25 12C21.25 6.89137 17.1086 2.75 12 2.75ZM6.75 8.94336C6.75 7.51996 8.35931 6.69219 9.51758 7.51953L13.7969 10.5762C14.7737 11.2741 14.7737 12.7259 13.7969 13.4238L9.51758 16.4805C8.35931 17.3079 6.75 16.48 6.75 15.0566V8.94336ZM12.3896 7.63574C12.6304 7.29879 13.0986 7.22046 13.4355 7.46094L16.6572 9.7627C18.1926 10.8595 18.1926 13.1415 16.6572 14.2383L13.4355 16.5391C13.0986 16.7795 12.6304 16.7013 12.3896 16.3643C12.149 16.0272 12.2274 15.559 12.5645 15.3184L15.7852 13.0176C16.4832 12.519 16.4832 11.481 15.7852 10.9824L12.5645 8.68164C12.2274 8.44092 12.149 7.97279 12.3896 7.63574ZM8.64551 8.74023C8.48004 8.62204 8.25 8.74002 8.25 8.94336V15.0566C8.25 15.26 8.48004 15.378 8.64551 15.2598L12.9248 12.2031C13.0642 12.1034 13.0642 11.8966 12.9248 11.7969L8.64551 8.74023Z" fill="#1C274C"/>
</svg>
