<svg width="24" height="24" viewBox="0 0 24 24" fill="none" xmlns="http://www.w3.org/2000/svg">
<path d="M11.9999 3.25C12.4186 3.25 12.789 3.36705 13.16 3.54004C13.5085 3.70257 13.9059 3.93919 14.3729 4.2168L17.3925 6.01074C17.8598 6.2885 18.2575 6.52467 18.5682 6.75391C18.7184 6.8647 18.8576 6.98084 18.9843 7.1084L21.5839 5.37598C21.9285 5.14622 22.3942 5.23934 22.6239 5.58398C22.8537 5.92863 22.7606 6.39425 22.4159 6.62402L19.6678 8.45605C19.6872 8.56531 19.7019 8.67712 19.7128 8.79102C19.75 9.18034 19.7499 9.65026 19.7499 10.207V13.793C19.7499 14.3497 19.75 14.8197 19.7128 15.209C19.6733 15.6219 19.5881 16.0027 19.3837 16.3672C19.1787 16.7328 18.8994 17.0017 18.5682 17.2461C18.2575 17.4754 17.8599 17.7115 17.3925 17.9893L14.3729 19.7832C13.906 20.0607 13.5085 20.2975 13.16 20.46C12.789 20.633 12.4186 20.75 11.9999 20.75C11.581 20.75 11.2107 20.633 10.8397 20.46C10.4913 20.2975 10.0936 20.0617 9.62683 19.7842L6.6073 17.9893C6.14022 17.7116 5.7431 17.4753 5.4325 17.2461C5.28218 17.1352 5.14232 17.0184 5.0155 16.8906L2.41589 18.624C2.07126 18.8538 1.60561 18.7607 1.37585 18.416C1.14609 18.0714 1.23922 17.6057 1.58386 17.376L4.33191 15.5439C4.31249 15.4347 4.2979 15.3229 4.28699 15.209C4.24975 14.8197 4.24986 14.3497 4.24988 13.793V10.207C4.24986 9.65027 4.24975 9.18033 4.28699 8.79102C4.2979 8.67712 4.31249 8.56531 4.33191 8.45605L1.58386 6.62402C1.23924 6.39425 1.14611 5.92863 1.37585 5.58398C1.60561 5.23935 2.07125 5.14622 2.41589 5.37598L5.0155 7.1084C5.14223 6.98082 5.28231 6.86473 5.4325 6.75391C5.7431 6.52477 6.1402 6.28838 6.6073 6.01074L9.62683 4.2168C10.0938 3.93919 10.4912 3.70257 10.8397 3.54004C11.2107 3.36704 11.581 3.25001 11.9999 3.25ZM11.9999 4.75C11.8774 4.75001 11.7307 4.7795 11.4735 4.89941C11.2012 5.02643 10.8681 5.2237 10.3622 5.52441L7.40417 7.28223C6.89876 7.58265 6.5665 7.78142 6.32312 7.96094C6.09362 8.13029 5.99037 8.25004 5.92468 8.36719C5.85844 8.48543 5.80827 8.63986 5.78015 8.93359C5.75052 9.24307 5.74988 9.64096 5.74988 10.2412V13.7588C5.74988 14.3591 5.75052 14.7569 5.78015 15.0664C5.80826 15.3601 5.85845 15.5146 5.92468 15.6328C5.99037 15.7499 6.09362 15.8697 6.32312 16.0391C6.5665 16.2186 6.89875 16.4174 7.40417 16.7178L10.3622 18.4756C10.8681 18.7763 11.2012 18.9735 11.4735 19.1006C11.7307 19.2205 11.8774 19.25 11.9999 19.25C12.1223 19.25 12.2691 19.2205 12.5262 19.1006C12.7985 18.9735 13.1317 18.7763 13.6376 18.4756L16.5956 16.7178C17.1011 16.4174 17.4333 16.2186 17.6766 16.0391C17.9061 15.8697 18.0094 15.7499 18.0751 15.6328C18.1413 15.5146 18.1914 15.3601 18.2196 15.0664C18.2492 14.7569 18.2499 14.3591 18.2499 13.7588V10.2412C18.2499 9.64095 18.2492 9.24308 18.2196 8.93359C18.1914 8.63985 18.1413 8.48543 18.0751 8.36719C18.0094 8.25004 17.9061 8.13029 17.6766 7.96094C17.4333 7.78141 17.1011 7.58265 16.5956 7.28223L13.6376 5.52441C13.1317 5.2237 12.7985 5.02643 12.5262 4.89941C12.2691 4.77951 12.1223 4.75 11.9999 4.75ZM15.6161 13.8555C15.9718 13.6436 16.4325 13.7605 16.6444 14.1162C16.8563 14.472 16.7394 14.9326 16.3837 15.1445L12.3837 17.5283C12.028 17.7402 11.5675 17.6242 11.3553 17.2686C11.1434 16.9128 11.2603 16.4523 11.6161 16.2402L15.6161 13.8555Z" fill="#1C274C"/>
</svg>
