<svg width="24" height="24" viewBox="0 0 24 24" fill="none" xmlns="http://www.w3.org/2000/svg">
<path d="M12.375 3.625C16.7933 3.625 20.375 7.20672 20.375 11.625C20.375 16.0433 16.7933 19.625 12.375 19.625V17.373C12.375 16.925 12.649 16.5325 12.9658 16.2158L15.9658 13.2158C16.8445 12.3371 16.8445 10.9129 15.9658 10.0342L12.9658 7.03418C12.6491 6.71753 12.3752 6.32568 12.375 5.87793V3.625ZM10.8447 8.09473C11.1376 7.80184 11.6124 7.80184 11.9053 8.09473L14.9053 11.0947C15.1982 11.3876 15.1982 11.8624 14.9053 12.1553L11.9053 15.1553C11.6124 15.4482 11.1376 15.4482 10.8447 15.1553C10.5518 14.8624 10.5518 14.3876 10.8447 14.0947L12.5645 12.375H4.375C3.96079 12.375 3.625 12.0392 3.625 11.625C3.625 11.2108 3.96079 10.875 4.375 10.875H12.5645L10.8447 9.15527C10.5518 8.86239 10.5518 8.38761 10.8447 8.09473Z" fill="#48465C"/>
</svg>
