<svg width="24" height="24" viewBox="0 0 24 24" fill="none" xmlns="http://www.w3.org/2000/svg">
<path d="M2 13.25C2.41421 13.25 2.75 13.5858 2.75 14C2.75 15.9067 2.7515 17.2614 2.88965 18.2891C3.02492 19.2951 3.27894 19.8747 3.70215 20.2979C4.12536 20.7211 4.70485 20.9752 5.71094 21.1104C6.73859 21.2485 8.09325 21.25 10 21.25C10.4142 21.25 10.75 21.5858 10.75 22C10.75 22.4142 10.4142 22.75 10 22.75H9.94336C8.10571 22.75 6.6499 22.7498 5.51074 22.5967C4.33844 22.439 3.38992 22.1066 2.6416 21.3584C1.89332 20.6101 1.56095 19.6615 1.40332 18.4893C1.25016 17.3501 1.24998 15.8943 1.25 14.0566V14C1.25 13.5858 1.58579 13.25 2 13.25ZM22 13.25C22.4142 13.25 22.75 13.5858 22.75 14V14.0566C22.75 15.8943 22.7498 17.3501 22.5967 18.4893C22.439 19.6615 22.1066 20.6101 21.3584 21.3584C20.6101 22.1066 19.6615 22.439 18.4893 22.5967C17.3501 22.7498 15.8943 22.75 14.0566 22.75H14C13.5858 22.75 13.25 22.4142 13.25 22C13.25 21.5858 13.5858 21.25 14 21.25C15.9067 21.25 17.2614 21.2485 18.2891 21.1104C19.2951 20.9752 19.8747 20.7211 20.2979 20.2979C20.7211 19.8747 20.9752 19.2951 21.1104 18.2891C21.2485 17.2614 21.25 15.9067 21.25 14C21.25 13.5858 21.5858 13.25 22 13.25ZM8.59961 13C9.73098 13 10.297 13.0001 10.6484 13.3516C10.9999 13.703 11 14.269 11 15.4004V16.5996C11 17.731 10.9999 18.297 10.6484 18.6484C10.297 18.9999 9.73097 19 8.59961 19C6.90284 19 6.0545 18.9998 5.52734 18.4727C5.00018 17.9455 5 17.0972 5 15.4004C5 14.269 5.00009 13.703 5.35156 13.3516C5.70304 13.0001 6.26904 13 7.40039 13H8.59961ZM16.5996 13C17.731 13 18.297 13.0001 18.6484 13.3516C18.9999 13.703 19 14.269 19 15.4004C19 17.0971 18.9998 17.9455 18.4727 18.4727C17.9455 18.9998 17.0972 19 15.4004 19C14.2691 19 13.703 18.9999 13.3516 18.6484C13.0001 18.297 13 17.731 13 16.5996V15.4004C13 14.269 13.0001 13.703 13.3516 13.3516C13.703 13.0001 14.269 13 15.4004 13H16.5996ZM8.59961 5C9.73098 5 10.297 5.00009 10.6484 5.35156C10.9999 5.70303 11 6.26904 11 7.40039V8.59961C11 9.73098 10.9999 10.297 10.6484 10.6484C10.297 10.9999 9.73098 11 8.59961 11H7.40039C6.26904 11 5.70303 10.9999 5.35156 10.6484C5.00009 10.297 5 9.73098 5 8.59961C5 6.90282 5.00017 6.05451 5.52734 5.52734C6.05451 5.00017 6.90282 5 8.59961 5ZM15.4004 5C17.0972 5 17.9455 5.00018 18.4727 5.52734C18.9998 6.05451 19 6.90282 19 8.59961C19 9.73098 18.9999 10.297 18.6484 10.6484C18.297 10.9999 17.731 11 16.5996 11H15.4004C14.269 11 13.703 10.9999 13.3516 10.6484C13.0001 10.297 13 9.73098 13 8.59961V7.40039C13 6.26904 13.0001 5.70303 13.3516 5.35156C13.703 5.00009 14.269 5 15.4004 5ZM10 1.25C10.4142 1.25 10.75 1.58579 10.75 2C10.75 2.41421 10.4142 2.75 10 2.75C8.09324 2.75 6.73859 2.75149 5.71094 2.88965C4.70485 3.02492 4.12536 3.27894 3.70215 3.70215C3.27894 4.12536 3.02492 4.70485 2.88965 5.71094C2.75149 6.73859 2.75 8.09324 2.75 10C2.75 10.4142 2.41421 10.75 2 10.75C1.58579 10.75 1.25 10.4142 1.25 10V9.94336C1.24998 8.10571 1.25016 6.64991 1.40332 5.51074C1.56095 4.33844 1.8933 3.38992 2.6416 2.6416C3.38992 1.8933 4.33844 1.56095 5.51074 1.40332C6.64991 1.25016 8.10571 1.24998 9.94336 1.25H10ZM14.0566 1.25C15.8943 1.24998 17.3501 1.25016 18.4893 1.40332C19.6615 1.56095 20.6101 1.89332 21.3584 2.6416C22.1066 3.38992 22.439 4.33844 22.5967 5.51074C22.7498 6.6499 22.75 8.10571 22.75 9.94336V10C22.75 10.4142 22.4142 10.75 22 10.75C21.5858 10.75 21.25 10.4142 21.25 10C21.25 8.09325 21.2485 6.73859 21.1104 5.71094C20.9752 4.70485 20.7211 4.12536 20.2979 3.70215C19.8747 3.27894 19.2951 3.02492 18.2891 2.88965C17.2614 2.7515 15.9067 2.75 14 2.75C13.5858 2.75 13.25 2.41421 13.25 2C13.25 1.58579 13.5858 1.25 14 1.25H14.0566Z" fill="#1C274C"/>
</svg>
