<svg width="24" height="24" viewBox="0 0 24 24" fill="none" xmlns="http://www.w3.org/2000/svg">
<path d="M12 2C16.714 2 19.0708 2.00037 20.5352 3.46484C21.9996 4.9293 22 7.28597 22 12C22 16.714 21.9997 19.0708 20.5352 20.5352C19.0708 21.9997 16.714 22 12 22C7.28597 22 4.9293 21.9996 3.46484 20.5352C2.00037 19.0708 2 16.714 2 12C2 7.28595 2.00037 4.9293 3.46484 3.46484C4.9293 2.00037 7.28595 2 12 2ZM10.9453 4.25C9.57785 4.24998 8.47534 4.24968 7.6084 4.36621C6.70829 4.48723 5.95055 4.74671 5.34863 5.34863C5.07061 5.62665 4.86575 5.93805 4.71387 6.28125C4.64617 6.26117 4.57422 6.25 4.5 6.25C4.08579 6.25 3.75 6.58579 3.75 7V10C3.75 10.3266 3.95874 10.6041 4.25 10.707V13.293C3.95874 13.3959 3.75 13.6734 3.75 14V17C3.75 17.4142 4.08579 17.75 4.5 17.75C4.57422 17.75 4.64617 17.7388 4.71387 17.7188C4.86574 18.0619 5.07063 18.3733 5.34863 18.6514C5.95055 19.2533 6.70829 19.5128 7.6084 19.6338C8.47534 19.7503 9.57785 19.75 10.9453 19.75H13.0547C14.4222 19.75 15.5246 19.7503 16.3916 19.6338C17.2917 19.5128 18.0495 19.2533 18.6514 18.6514C19.2533 18.0494 19.5128 17.2917 19.6338 16.3916C19.7503 15.5246 19.75 14.4222 19.75 13.0547V10.9453C19.75 9.57785 19.7503 8.47534 19.6338 7.6084C19.5128 6.7083 19.2533 5.95055 18.6514 5.34863C18.0495 4.74671 17.2917 4.48723 16.3916 4.36621C15.5246 4.24968 14.4222 4.24998 13.0547 4.25H10.9453ZM13 5.75C14.4354 5.75 15.437 5.75196 16.1924 5.85352C16.9258 5.95218 17.3141 6.13249 17.5908 6.40918C17.8676 6.68594 18.0478 7.07482 18.1465 7.80859C18.2479 8.5639 18.25 9.56485 18.25 11V13C18.25 14.4354 18.248 15.437 18.1465 16.1924C18.0478 16.9258 17.8676 17.3141 17.5908 17.5908C17.3141 17.8676 16.9258 18.0478 16.1924 18.1465C15.437 18.248 14.4354 18.25 13 18.25H11C9.56484 18.25 8.5639 18.2479 7.80859 18.1465C7.07481 18.0478 6.68594 17.8676 6.40918 17.5908C6.13249 17.3141 5.95218 16.9258 5.85352 16.1924C5.75196 15.437 5.75 14.4354 5.75 13V11C5.75 9.56484 5.75201 8.5639 5.85352 7.80859C5.95217 7.07482 6.13242 6.68594 6.40918 6.40918C6.68594 6.13242 7.07481 5.95217 7.80859 5.85352C8.5639 5.75201 9.56484 5.75 11 5.75H13ZM12 7.25C9.37665 7.25 7.25 9.37665 7.25 12C7.25 14.6234 9.37665 16.75 12 16.75C14.6234 16.75 16.75 14.6234 16.75 12C16.75 9.37665 14.6234 7.25 12 7.25ZM14.6113 13.9346C14.0191 14.7325 13.0699 15.25 12 15.25C10.9301 15.25 9.98089 14.7325 9.38867 13.9346L10.3457 13.5254C10.7569 13.971 11.346 14.25 12 14.25C12.654 14.25 13.2431 13.971 13.6543 13.5254L14.6113 13.9346ZM11.25 9.87793C10.3761 10.1868 9.75 11.0203 9.75 12C9.75 12.0492 9.75178 12.0981 9.75488 12.1465L8.79785 12.5566C8.76664 12.3759 8.75 12.1898 8.75 12C8.75 10.4632 9.81665 9.17549 11.25 8.83691V9.87793ZM12.75 8.83691C14.1833 9.17549 15.25 10.4632 15.25 12C15.25 12.1898 15.2333 12.3759 15.2021 12.5566L14.2451 12.1465C14.2482 12.0981 14.25 12.0492 14.25 12C14.25 11.0203 13.6239 10.1868 12.75 9.87793V8.83691Z" fill="#48465C"/>
</svg>
