<svg width="24" height="24" viewBox="0 0 24 24" fill="none" xmlns="http://www.w3.org/2000/svg">
<path d="M12 2C16.714 2 19.0708 2.00037 20.5352 3.46484C21.9996 4.9293 22 7.28597 22 12C22 16.714 21.9997 19.0708 20.5352 20.5352C19.0708 21.9997 16.714 22 12 22C7.28597 22 4.9293 21.9996 3.46484 20.5352C2.00037 19.0708 2 16.714 2 12C2 7.28595 2.00037 4.9293 3.46484 3.46484C4.9293 2.00037 7.28595 2 12 2ZM6 16.25C5.58579 16.25 5.25 16.5858 5.25 17C5.25 17.4142 5.58579 17.75 6 17.75H18C18.4142 17.75 18.75 17.4142 18.75 17C18.75 16.5858 18.4142 16.25 18 16.25H6ZM8.5 6.25C8.08579 6.25 7.75 6.58579 7.75 7V11.9287L6.57617 10.5195C6.31096 10.2015 5.83767 10.1588 5.51953 10.4238C5.20151 10.6891 5.15872 11.1623 5.42383 11.4805L7.92383 14.4805C8.06633 14.6513 8.27751 14.75 8.5 14.75C8.7225 14.75 8.93367 14.6513 9.07617 14.4805L11.5762 11.4805C11.8412 11.1623 11.7985 10.6891 11.4805 10.4238C11.1623 10.1588 10.6891 10.2015 10.4238 10.5195L9.25 11.9287V7C9.25 6.58579 8.91421 6.25 8.5 6.25ZM15.5 6.25C15.0858 6.25 14.75 6.58579 14.75 7V11.9287L13.5762 10.5195C13.3109 10.2015 12.8377 10.1588 12.5195 10.4238C12.2015 10.6891 12.1588 11.1623 12.4238 11.4805L14.9238 14.4805C15.0663 14.6513 15.2775 14.75 15.5 14.75C15.7225 14.75 15.9337 14.6513 16.0762 14.4805L18.5762 11.4805C18.8412 11.1623 18.7985 10.6891 18.4805 10.4238C18.1623 10.1588 17.6891 10.2015 17.4238 10.5195L16.25 11.9287V7C16.25 6.58579 15.9142 6.25 15.5 6.25Z" fill="#1C274C"/>
</svg>
