<svg width="24" height="24" viewBox="0 0 24 24" fill="none" xmlns="http://www.w3.org/2000/svg">
<path d="M12.0576 1.25C14.3657 1.24999 16.1745 1.24974 17.5859 1.43945C19.0306 1.63369 20.1706 2.03977 21.0654 2.93457C21.9602 3.82938 22.3662 4.96932 22.5605 6.41406C22.7502 7.82544 22.75 9.63432 22.75 11.9424V12H22.7393C22.7502 12.5787 22.75 13.2306 22.75 13.9668V14.0332C22.75 15.4047 22.7503 16.4804 22.6797 17.3447C22.6078 18.2248 22.4583 18.9523 22.123 19.6104C21.5718 20.6923 20.6923 21.5718 19.6104 22.123C18.9523 22.4583 18.2248 22.6078 17.3447 22.6797C16.4804 22.7503 15.4047 22.75 14.0332 22.75H9.9668C8.59532 22.75 7.51953 22.7503 6.65527 22.6797C5.77513 22.6078 5.04778 22.4583 4.38965 22.123C3.30774 21.5718 2.42823 20.6923 1.87695 19.6104C1.54162 18.9523 1.39222 18.2248 1.32031 17.3447C1.24973 16.4804 1.25 15.4047 1.25 14.0332V13.9668C1.25 13.2303 1.24981 12.5788 1.26074 12H1.25V11.9424C1.24999 9.63432 1.24974 7.82544 1.43945 6.41406C1.63369 4.96932 2.03976 3.82938 2.93457 2.93457C3.82938 2.03976 4.96932 1.63369 6.41406 1.43945C7.82544 1.24974 9.63433 1.24999 11.9424 1.25H12.0576ZM10 6.75C8.58765 6.75 7.57344 6.7504 6.77734 6.81543C5.98996 6.87976 5.48174 7.00326 5.07031 7.21289C4.27066 7.62035 3.62034 8.27066 3.21289 9.07031C3.00326 9.48174 2.87976 9.98994 2.81543 10.7773C2.7504 11.5734 2.75 12.5877 2.75 14C2.75 15.4123 2.7504 16.4266 2.81543 17.2227C2.87976 18.0101 3.00326 18.5182 3.21289 18.9297C3.62034 19.7293 4.27065 20.3796 5.07031 20.7871C5.48174 20.9967 5.98996 21.1202 6.77734 21.1846C7.57344 21.2495 8.58765 21.25 10 21.25H14C15.4123 21.25 16.4266 21.2495 17.2227 21.1846C18.0101 21.1202 18.5182 20.9967 18.9297 20.7871C19.7293 20.3796 20.3796 19.7293 20.7871 18.9297C20.9967 18.5182 21.1202 18.0101 21.1846 17.2227C21.2495 16.4266 21.25 15.4123 21.25 14C21.25 12.5877 21.2495 11.5734 21.1846 10.7773C21.1202 9.98994 20.9967 9.48174 20.7871 9.07031C20.3796 8.27065 19.7293 7.62034 18.9297 7.21289C18.5182 7.00326 18.0101 6.87976 17.2227 6.81543C16.4266 6.7504 15.4123 6.75 14 6.75H10ZM12 9.25C12.4142 9.25 12.75 9.58579 12.75 10V16.0459L15.4424 13.0537C15.7195 12.7458 16.1941 12.7209 16.502 12.998C16.8097 13.2752 16.8347 13.7498 16.5576 14.0576L12.5576 18.502C12.4153 18.66 12.2126 18.75 12 18.75C11.7874 18.75 11.5847 18.66 11.4424 18.502L7.44238 14.0576C7.16532 13.7498 7.19026 13.2752 7.49805 12.998C7.80593 12.7209 8.28053 12.7458 8.55762 13.0537L11.25 16.0459V10C11.25 9.58579 11.5858 9.25 12 9.25ZM12 2.75C9.62177 2.75 7.91326 2.75198 6.61328 2.92676C5.33508 3.09865 4.56472 3.42551 3.99512 3.99512C3.42551 4.56472 3.09865 5.33508 2.92676 6.61328C2.91051 6.73414 2.89524 6.85916 2.88184 6.9873C3.31767 6.54007 3.82636 6.16396 4.38965 5.87695C5.04778 5.54162 5.77513 5.39222 6.65527 5.32031C7.51956 5.24972 8.59525 5.25 9.9668 5.25H14.0332C15.4047 5.25 16.4804 5.24973 17.3447 5.32031C18.2248 5.39222 18.9523 5.54162 19.6104 5.87695C20.1736 6.16396 20.6824 6.54009 21.1182 6.9873C21.1048 6.85916 21.0895 6.73415 21.0732 6.61328C20.9014 5.33508 20.5745 4.56472 20.0049 3.99512C19.4352 3.42551 18.6649 3.09865 17.3867 2.92676C16.0867 2.75198 14.3782 2.75 12 2.75Z" fill="#1C274C"/>
</svg>
