<svg width="24" height="24" viewBox="0 0 24 24" fill="none" xmlns="http://www.w3.org/2000/svg">
<path d="M14.8438 14.5498C15.0958 15.3796 15.3145 16.2222 15.499 17.0127C15.7382 18.0378 15.9155 18.9567 16.0332 19.6191C16.092 19.9502 16.136 20.2176 16.165 20.4004C16.1794 20.4916 16.1902 20.5623 16.1973 20.6094L16.2051 20.6621L16.207 20.6748V20.6787L16.2598 21.0469C13.6549 22.277 10.7411 22.2853 8.2207 21.2588L8.28906 21.0527C8.9527 19.051 11.0086 16.8169 13.6367 15.2178C14.0315 14.9775 14.4351 14.7538 14.8438 14.5498ZM12.2695 9.31934C12.6825 9.83508 13.0526 10.358 13.3506 10.874C13.7243 11.5213 14.0631 12.2917 14.3652 13.1143C13.848 13.3646 13.3435 13.6408 12.8574 13.9365C10.0656 15.6353 7.68332 18.1131 6.86523 20.5811V20.582C5.44924 19.7366 4.22297 18.5287 3.33984 16.999C2.45739 15.4706 2.02376 13.8059 1.99902 12.1582L2.14355 12.1865C5.09254 12.7673 8.44742 11.7175 11.2051 10.0244C11.5677 9.80176 11.9236 9.56645 12.2695 9.31934ZM16.2266 13.9414C18.1139 13.2227 20.038 12.9462 21.7031 13.3115L21.9072 13.3564C21.7854 14.2406 21.5465 15.1063 21.1963 15.9277C20.4719 17.6268 19.2734 19.1387 17.6592 20.2441L17.6465 20.165C17.6163 19.9739 17.5704 19.6984 17.5098 19.3574C17.3887 18.6753 17.2058 17.7284 16.959 16.6709C16.7601 15.8182 16.5173 14.879 16.2266 13.9414ZM17.1348 3.41699C18.5504 4.26235 19.7773 5.46966 20.6602 6.99902C21.5429 8.52801 21.9755 10.1935 22 11.8418C20.0044 11.4105 17.8137 11.7404 15.7441 12.5205C15.4234 11.6571 15.0589 10.8344 14.6494 10.125C14.3134 9.54292 13.9039 8.9618 13.4531 8.39746C15.1817 6.92823 16.54 5.18558 17.125 3.44727L17.1348 3.41699ZM6.60938 4.0332L6.61133 4.03418L6.62109 4.04102L6.66016 4.07031C6.695 4.09611 6.74715 4.13471 6.81445 4.18555C6.94948 4.28754 7.1462 4.43813 7.38867 4.62988C7.87394 5.01366 8.54169 5.56117 9.27051 6.21484C9.93022 6.80656 10.6281 7.47538 11.2822 8.17969C11.0032 8.37546 10.7158 8.565 10.4209 8.74609C7.83434 10.3342 4.87021 11.1947 2.43359 10.7148L2.09082 10.6475C2.46012 7.95424 3.91953 5.43715 6.28125 3.79492L6.60938 4.0332ZM7.69629 2.97266C9.45869 2.13011 11.3643 1.8484 13.1953 2.07031C14.0826 2.17787 14.9529 2.40404 15.7803 2.74121L15.7031 2.96973C15.2259 4.38757 14.0527 5.91983 12.4746 7.25977C11.7443 6.4648 10.9742 5.72805 10.2725 5.09863C9.5153 4.41951 8.82205 3.85243 8.31836 3.4541C8.06651 3.25493 7.86171 3.09725 7.71875 2.98926L7.69629 2.97266Z" fill="#48465C"/>
</svg>
