<svg width="24" height="24" viewBox="0 0 24 24" fill="none" xmlns="http://www.w3.org/2000/svg">
<path d="M14.8438 14.5503C15.0958 15.3801 15.3145 16.2227 15.499 17.0132C15.7382 18.0383 15.9155 18.9572 16.0332 19.6196C16.092 19.9507 16.136 20.2181 16.165 20.4009C16.1794 20.4921 16.1902 20.5628 16.1973 20.6099L16.2051 20.6626L16.207 20.6753V20.6792L16.2598 21.0474C13.6549 22.2775 10.7411 22.2858 8.2207 21.2593L8.28906 21.0532C8.9527 19.0515 11.0086 16.8174 13.6367 15.2183C14.0315 14.978 14.4351 14.7543 14.8438 14.5503ZM12.2695 9.31982C12.6825 9.83557 13.0526 10.3584 13.3506 10.8745C13.7243 11.5218 14.0631 12.2921 14.3652 13.1147C13.848 13.3651 13.3435 13.6413 12.8574 13.937C10.0656 15.6358 7.68332 18.1135 6.86523 20.5815V20.5825C5.44924 19.7371 4.22297 18.5292 3.33984 16.9995C2.45739 15.4711 2.02376 13.8064 1.99902 12.1587L2.14355 12.187C5.09254 12.7678 8.44742 11.7179 11.2051 10.0249C11.5677 9.80225 11.9236 9.56694 12.2695 9.31982ZM16.2256 13.9419C18.1131 13.223 20.0378 12.9466 21.7031 13.312L21.9072 13.3569C21.7854 14.2411 21.5465 15.1068 21.1963 15.9282C20.472 17.6273 19.2734 19.1392 17.6592 20.2446L17.6465 20.1655C17.6163 19.9744 17.5704 19.6989 17.5098 19.3579C17.3887 18.6758 17.2058 17.7289 16.959 16.6714C16.7601 15.8187 16.5163 14.8795 16.2256 13.9419ZM17.1357 3.41748C18.5512 4.26282 19.7774 5.47034 20.6602 6.99951C21.5429 8.5285 21.9755 10.194 22 11.8423C20.0044 11.411 17.8136 11.7409 15.7441 12.521C15.4234 11.6576 15.0589 10.8349 14.6494 10.1255C14.3134 9.5434 13.9039 8.9623 13.4531 8.39795C15.1817 6.92871 16.54 5.18608 17.125 3.44775L17.1357 3.41748ZM6.60938 4.03369L6.61133 4.03467L6.62109 4.0415L6.66016 4.0708C6.695 4.0966 6.74715 4.1352 6.81445 4.18604C6.94948 4.28803 7.1462 4.43862 7.38867 4.63037C7.87394 5.01415 8.54169 5.56165 9.27051 6.21533C9.93022 6.80705 10.6281 7.47586 11.2822 8.18018C11.0032 8.37595 10.7158 8.56549 10.4209 8.74658C7.83434 10.3347 4.87021 11.1952 2.43359 10.7153L2.09082 10.6479C2.46012 7.95472 3.91953 5.43764 6.28125 3.79541L6.60938 4.03369ZM7.69629 2.97314C9.45867 2.13061 11.3643 1.8489 13.1953 2.0708C14.0826 2.17836 14.9529 2.40453 15.7803 2.7417L15.7031 2.97021C15.2259 4.38806 14.0527 5.92032 12.4746 7.26025C11.7443 6.46529 10.9742 5.72854 10.2725 5.09912C9.51528 4.41998 8.82205 3.85292 8.31836 3.45459C8.06649 3.2554 7.86171 3.09774 7.71875 2.98975L7.69629 2.97314Z" fill="#1C274C"/>
</svg>
