<svg width="24" height="24" viewBox="0 0 24 24" fill="none" xmlns="http://www.w3.org/2000/svg">
<path d="M16.6943 13.5254C19.8511 14.282 22 15.7783 22 17.5C21.9997 19.9852 17.5226 22 12 22C6.47731 22 2.00025 19.9852 2 17.5C2 15.7783 4.14889 14.282 7.30566 13.5254L6.37012 15.959C5.6211 17.9065 7.05896 20 9.14551 20C10.2122 19.9998 11.1973 19.428 11.7266 18.502L12 18.0225L12.2734 18.502C12.8027 19.428 13.7879 19.9999 14.8545 20C16.9411 20 18.3789 17.9065 17.6299 15.959L16.6943 13.5254ZM17.1465 7.89746C18.1005 7.6931 19 8.42093 19 9.39648C18.9999 10.0559 18.5777 10.641 17.9521 10.8496L15.7773 11.5752C15.5147 11.6627 15.383 11.7067 15.2842 11.7676C14.9476 11.9754 14.7648 12.362 14.8184 12.7539C14.8342 12.869 14.8839 12.9983 14.9834 13.2568L16.2305 16.499C16.6011 17.4639 15.8882 18.501 14.8545 18.501C14.3262 18.5008 13.8385 18.2174 13.5762 17.7588L12 15.001L10.4238 17.7588C10.1615 18.2174 9.67383 18.5008 9.14551 18.501C8.1117 18.501 7.39955 17.464 7.77051 16.499L9.0166 13.2568C9.11605 12.9983 9.1659 12.869 9.18164 12.7539C9.23523 12.362 9.05244 11.9754 8.71582 11.7676C8.61701 11.7067 8.48529 11.6627 8.22266 11.5752L6.04785 10.8496C5.42223 10.641 5.0001 10.0559 5 9.39648C5 8.42091 5.8996 7.69307 6.85352 7.89746L8.75098 8.30469C8.8565 8.3273 8.9096 8.33879 8.96191 8.34961C10.9661 8.76411 13.0339 8.76411 15.0381 8.34961C15.0904 8.33879 15.1435 8.3273 15.249 8.30469L17.1465 7.89746ZM12 1.25C13.5188 1.25 14.75 2.48122 14.75 4C14.75 5.51878 13.5188 6.75 12 6.75C10.4812 6.75 9.25 5.51878 9.25 4C9.25 2.48122 10.4812 1.25 12 1.25Z" fill="#1C274C"/>
</svg>
