<svg width="24" height="24" viewBox="0 0 24 24" fill="none" xmlns="http://www.w3.org/2000/svg">
<path d="M19.25 11.5C19.6642 11.5 20 11.8358 20 12.25C20 13.4926 21.0074 14.5 22.25 14.5C22.6642 14.5 23 14.8358 23 15.25C23 15.6642 22.6642 16 22.25 16C21.4058 16 20.6267 15.7207 20 15.25V20.25C20 21.7688 18.7688 23 17.25 23C15.7312 23 14.5 21.7688 14.5 20.25C14.5 18.7312 15.7312 17.5 17.25 17.5C17.7001 17.5 18.125 17.608 18.5 17.7998V12.25C18.5 11.8358 18.8358 11.5 19.25 11.5ZM14 2C17.7712 2 19.6566 2.00037 20.8281 3.46484C21.9996 4.92931 22 7.28605 22 12C22 12.3304 22.0004 12.6493 22 12.957C21.7089 12.8539 21.5 12.5764 21.5 12.25C21.5 11.0074 20.4926 10 19.25 10C18.0074 10 17 11.0074 17 12.25V16.0068C14.7692 16.1362 13 17.9867 13 20.25C13 20.8739 13.1345 21.4663 13.376 22H10C6.22876 22 4.34345 21.9997 3.17188 20.5352C2.00035 19.0708 2 16.7139 2 12C2 7.28604 2.00037 4.92931 3.17188 3.46484C4.34345 2.00037 6.22876 2 10 2H14ZM17.25 19C16.5596 19 16 19.5596 16 20.25C16 20.9404 16.5596 21.5 17.25 21.5C17.9404 21.5 18.5 20.9404 18.5 20.25C18.5 19.5596 17.9404 19 17.25 19ZM12 8.25C9.92893 8.25 8.25 9.92893 8.25 12C8.25 14.0711 9.92893 15.75 12 15.75C14.0711 15.75 15.75 14.0711 15.75 12C15.75 9.92893 14.0711 8.25 12 8.25ZM12 9.75C13.2426 9.75 14.25 10.7574 14.25 12C14.25 13.2426 13.2426 14.25 12 14.25C10.7574 14.25 9.75 13.2426 9.75 12C9.75 10.7574 10.7574 9.75 12 9.75Z" fill="#1C274C"/>
</svg>
