<svg width="24" height="24" viewBox="0 0 24 24" fill="none" xmlns="http://www.w3.org/2000/svg">
<path d="M15.7139 16.8574C16.4925 16.3384 17.5075 16.3384 18.2861 16.8574C19.324 17.5491 20.676 17.5491 21.7139 16.8574C21.8237 16.7842 21.9703 16.8681 21.9648 17C21.8871 18.8723 21.6363 20.02 20.8281 20.8281C19.6566 21.9997 17.7712 22 14 22H10C6.22884 22 4.34346 21.9996 3.17188 20.8281C2.72587 20.3821 2.44939 19.8328 2.27832 19.1152C2.15918 18.6152 2.09906 18.3644 2.21387 18.0723C2.32872 17.7803 2.58208 17.6116 3.08789 17.2744L3.71387 16.8574C4.49243 16.3384 5.50757 16.3384 6.28613 16.8574C7.32401 17.5491 8.67601 17.5491 9.71387 16.8574C10.4925 16.3384 11.5075 16.3384 12.2861 16.8574C13.324 17.5491 14.676 17.5491 15.7139 16.8574ZM10.0303 2C10.6361 2 11.1218 1.99995 11.5303 2.0166C11.5169 2.09653 11.5091 2.1783 11.5088 2.26074L11.5 5.09473C11.4999 6.19183 11.4994 7.16184 11.6045 7.94336C11.7184 8.79041 11.9807 9.63693 12.6719 10.3281C13.363 11.0194 14.2096 11.2816 15.0566 11.3955C15.8382 11.5006 16.8082 11.5001 17.9053 11.5H21.9932V12.3271C21.9971 12.5397 21.8908 12.7395 21.7139 12.8574C20.676 13.5491 19.324 13.5491 18.2861 12.8574C17.5075 12.3384 16.4925 12.3384 15.7139 12.8574C14.676 13.5491 13.324 13.5491 12.2861 12.8574C11.5075 12.3384 10.4925 12.3384 9.71387 12.8574C8.67598 13.5491 7.32402 13.5491 6.28613 12.8574C5.50757 12.3384 4.49243 12.3384 3.71387 12.8574L3.55469 12.9639C2.87044 13.4201 2.52772 13.6481 2.26367 13.5068C1.99985 13.3654 2 12.9539 2 12.1318V10C2 6.22876 2.00031 4.34346 3.17188 3.17188C4.34346 2.00031 6.23916 2 10.0303 2ZM13.0088 2.26562C13.7007 2.53113 14.2649 3.03876 15.3926 4.05371L19.3516 7.61621C20.5682 8.71115 21.2175 9.29582 21.5801 10H18C15.643 10 14.4647 9.99981 13.7324 9.26758C13.0003 8.53535 13 7.35698 13 5L13.0088 2.26562Z" fill="#48465C"/>
</svg>
