<svg width="24" height="24" viewBox="0 0 24 24" fill="none" xmlns="http://www.w3.org/2000/svg">
<path d="M11.1553 1.69562C11.8375 1.71214 12.6917 1.85449 13.7246 2.02667L16.1582 2.43292C17.314 2.62553 18.2509 2.78127 18.9834 2.99933C19.7461 3.22642 20.3762 3.54476 20.8613 4.11749C21.3464 4.69018 21.5567 5.36403 21.6553 6.15363C21.7499 6.91197 21.75 7.86181 21.75 9.03351V14.9671C21.75 16.1386 21.7499 17.0878 21.6553 17.846C21.5567 18.6357 21.3464 19.3094 20.8613 19.8821C20.3762 20.4549 19.7461 20.7732 18.9834 21.0003C18.2509 21.2184 17.3139 21.3741 16.1582 21.5667L13.7246 21.973C12.6916 22.1451 11.8375 22.2875 11.1553 22.304C10.4398 22.3213 9.77613 22.2064 9.22266 21.7376C8.75549 21.3419 8.52365 20.8272 8.40234 20.2503H7.94629C6.81365 20.2503 5.88802 20.2498 5.15723 20.1517C4.39335 20.049 3.73081 19.8267 3.20215 19.2982C2.67346 18.7695 2.45135 18.1071 2.34863 17.3431C2.25038 16.6123 2.24998 15.6867 2.25 14.554V9.44659C2.24998 8.31377 2.25037 7.38741 2.34863 6.65656C2.45136 5.89276 2.67353 5.23008 3.20215 4.70148C3.73078 4.17301 4.39343 3.95065 5.15723 3.84796C5.88803 3.74975 6.81366 3.75029 7.94629 3.75031H8.40234C8.52362 3.1733 8.75548 2.6588 9.22266 2.263C9.77618 1.7941 10.4397 1.67834 11.1553 1.69562ZM11.1191 3.19562C10.5769 3.18251 10.3462 3.27731 10.1924 3.40753C10.0387 3.53776 9.90728 3.7494 9.83105 4.28644C9.75187 4.84425 9.75 5.60311 9.75 6.72198V17.2776C9.75 18.3964 9.75191 19.1554 9.83105 19.7132C9.90727 20.2503 10.0387 20.4629 10.1924 20.5931C10.3462 20.7232 10.5773 20.8171 11.1191 20.804C11.6823 20.7904 12.4309 20.6677 13.5342 20.4837L15.8633 20.096C17.0792 19.8934 17.9225 19.7509 18.5547 19.5628C19.1668 19.3805 19.4911 19.1789 19.7168 18.9124C19.9423 18.6461 20.0879 18.2939 20.167 17.6605C20.2487 17.0059 20.25 16.1502 20.25 14.9173V9.08234C20.25 7.84976 20.2486 6.99461 20.167 6.34015C20.0879 5.70643 19.9424 5.35366 19.7168 5.08722C19.4911 4.82077 19.1668 4.61909 18.5547 4.43683C17.9225 4.24869 17.0791 4.10723 15.8633 3.9046L13.5342 3.51593C12.4309 3.33205 11.6823 3.20926 11.1191 3.19562ZM8 5.25031C6.80029 5.25031 5.97564 5.25203 5.35645 5.33527C4.75907 5.41563 4.46619 5.5595 4.2627 5.763C4.05924 5.96653 3.91529 6.25929 3.83496 6.85675C3.75172 7.47594 3.75 8.3006 3.75 9.50031V14.5003C3.75 15.6997 3.75177 16.5238 3.83496 17.1429C3.91531 17.7406 4.05916 18.0341 4.2627 18.2376C4.4662 18.4411 4.75919 18.585 5.35645 18.6653C5.97564 18.7485 6.80029 18.7503 8 18.7503H8.26172C8.25026 18.3235 8.24999 17.8512 8.25 17.3353V6.66534C8.24999 6.14946 8.25027 5.67713 8.26172 5.25031H8ZM12 10.2503C12.4142 10.2503 12.75 10.5861 12.75 11.0003V13.0003C12.7498 13.4144 12.4141 13.7503 12 13.7503C11.5859 13.7503 11.2502 13.4144 11.25 13.0003V11.0003C11.25 10.5861 11.5858 10.2503 12 10.2503Z" fill="#48465C"/>
</svg>
