<svg width="24" height="24" viewBox="0 0 24 24" fill="none" xmlns="http://www.w3.org/2000/svg">
<path d="M22 12.75V13C22 16.7712 21.9997 18.6566 20.8281 19.8281C19.6566 20.9997 17.7712 21 14 21H10C6.22878 21 4.34346 20.9997 3.17188 19.8281C2.00031 18.6566 2 16.7712 2 13V12.75H22ZM6 14.75C5.58579 14.75 5.25 15.0858 5.25 15.5V17.5C5.25 17.9142 5.58579 18.25 6 18.25C6.41421 18.25 6.75 17.9142 6.75 17.5V15.5C6.75 15.0858 6.41421 14.75 6 14.75ZM9 14.75C8.58579 14.75 8.25 15.0858 8.25 15.5V17.5C8.25 17.9142 8.58579 18.25 9 18.25C9.41421 18.25 9.75 17.9142 9.75 17.5V15.5C9.75 15.0858 9.41421 14.75 9 14.75ZM13.5 15.75C13.0858 15.75 12.75 16.0858 12.75 16.5C12.75 16.9142 13.0858 17.25 13.5 17.25H18C18.4142 17.25 18.75 16.9142 18.75 16.5C18.75 16.0858 18.4142 15.75 18 15.75H13.5ZM14 3C17.7712 3 19.6566 3.00031 20.8281 4.17188C21.9997 5.34346 22 7.22878 22 11V11.25H2V11C2 7.22876 2.00031 5.34345 3.17188 4.17188C4.34345 3.00031 6.22876 3 10 3H14ZM6 5.75C5.58579 5.75 5.25 6.08579 5.25 6.5V8.5C5.25 8.91421 5.58579 9.25 6 9.25C6.41421 9.25 6.75 8.91421 6.75 8.5V6.5C6.75 6.08579 6.41421 5.75 6 5.75ZM9 5.75C8.58579 5.75 8.25 6.08579 8.25 6.5V8.5C8.25 8.91421 8.58579 9.25 9 9.25C9.41421 9.25 9.75 8.91421 9.75 8.5V6.5C9.75 6.08579 9.41421 5.75 9 5.75ZM13.5 6.75C13.0858 6.75 12.75 7.08579 12.75 7.5C12.75 7.91421 13.0858 8.25 13.5 8.25H18C18.4142 8.25 18.75 7.91421 18.75 7.5C18.75 7.08579 18.4142 6.75 18 6.75H13.5Z" fill="#1C274C"/>
</svg>
