<svg width="24" height="24" viewBox="0 0 24 24" fill="none" xmlns="http://www.w3.org/2000/svg">
<path d="M12 20C12.5523 20 13 20.4477 13 21C13 21.5523 12.5523 22 12 22C11.4477 22 11 21.5523 11 21C11 20.4477 11.4477 20 12 20ZM9 18.5C9.55228 18.5 10 18.9477 10 19.5C10 20.0523 9.55228 20.5 9 20.5C8.44772 20.5 8 20.0523 8 19.5C8 18.9477 8.44772 18.5 9 18.5ZM15 18.5C15.5523 18.5 16 18.9477 16 19.5C16 20.0523 15.5523 20.5 15 20.5C14.4477 20.5 14 20.0523 14 19.5C14 18.9477 14.4477 18.5 15 18.5ZM12.4766 3C15.416 3.00018 17.8371 5.19364 18.1553 8.01465C20.393 8.77989 21.9998 10.8809 22 13.3525C22 16.0859 20.0349 18.3659 17.4248 18.8877C17.3427 18.5615 17.1961 18.261 17 18C17.3138 17.5822 17.5 17.0628 17.5 16.5C17.5 15.1193 16.3807 14 15 14C13.94 14 13.0336 14.6596 12.6699 15.5908C12.4568 15.5317 12.232 15.5 12 15.5C11.768 15.5 11.5432 15.5317 11.3301 15.5908C10.9664 14.6596 10.06 14 9 14C7.61929 14 6.5 15.1193 6.5 16.5C6.5 17.0628 6.68615 17.5822 7 18C6.78164 18.2907 6.62479 18.6306 6.5498 19H6.28613C3.9192 19 2 17.1037 2 14.7646C2.00003 12.4256 3.91922 10.5293 6.28613 10.5293C6.57011 10.5293 6.84768 10.5572 7.11621 10.6094C6.88716 9.99839 6.76177 9.33713 6.76172 8.64746C6.76172 5.52867 9.32064 3 12.4766 3ZM12 17C12.0508 17 12.1006 17.0044 12.1494 17.0117C12.1586 17.0131 12.1677 17.015 12.1768 17.0166C12.2239 17.025 12.2699 17.036 12.3145 17.0508C12.32 17.0526 12.3255 17.0547 12.3311 17.0566C12.3722 17.0711 12.4117 17.0889 12.4502 17.1084C12.4579 17.1123 12.4661 17.1151 12.4736 17.1191C12.5136 17.1407 12.5514 17.1658 12.5879 17.1924C12.5913 17.1949 12.5952 17.1967 12.5986 17.1992C12.6039 17.2032 12.6091 17.2079 12.6143 17.2119C12.6294 17.2237 12.6438 17.2364 12.6582 17.249C12.6717 17.2609 12.6854 17.2726 12.6982 17.2852C12.7114 17.298 12.7239 17.3116 12.7363 17.3252C12.7476 17.3374 12.7589 17.3495 12.7695 17.3623C12.813 17.4147 12.8507 17.4717 12.8828 17.5322C12.8888 17.5435 12.8948 17.5548 12.9004 17.5664C12.9113 17.5891 12.9214 17.6122 12.9307 17.6357C12.9351 17.647 12.9393 17.6584 12.9434 17.6699C12.9511 17.692 12.9577 17.7145 12.9639 17.7373C12.9678 17.7518 12.9713 17.7665 12.9746 17.7812C12.979 17.8009 12.9821 17.8208 12.9854 17.8408C12.9879 17.8564 12.9914 17.8719 12.9932 17.8877C12.9973 17.9246 13 17.962 13 18C13 18.0441 12.9958 18.0873 12.9902 18.1299C12.9878 18.1483 12.9848 18.1665 12.9814 18.1846C12.9618 18.2898 12.9258 18.3887 12.876 18.4795C12.8723 18.4863 12.8691 18.4933 12.8652 18.5C12.8424 18.5395 12.816 18.5765 12.7881 18.6123C12.7853 18.6158 12.784 18.6205 12.7812 18.624C12.7796 18.6261 12.777 18.6279 12.7754 18.6299C12.7519 18.6587 12.7267 18.6859 12.7002 18.7119C12.6946 18.7174 12.6893 18.7232 12.6836 18.7285C12.6607 18.75 12.6362 18.7697 12.6113 18.7891C12.6069 18.7925 12.6031 18.7974 12.5986 18.8008C12.5954 18.8032 12.5912 18.8043 12.5879 18.8066C12.5514 18.8333 12.5137 18.8583 12.4736 18.8799C12.4661 18.884 12.4579 18.8867 12.4502 18.8906C12.4117 18.9101 12.3723 18.9279 12.3311 18.9424C12.3255 18.9443 12.32 18.9464 12.3145 18.9482C12.2698 18.963 12.2239 18.974 12.1768 18.9824C12.1676 18.984 12.1586 18.9859 12.1494 18.9873C12.1006 18.9946 12.0509 19 12 19C11.9488 19 11.8987 18.9947 11.8496 18.9873C11.8404 18.9859 11.8314 18.9841 11.8223 18.9824C11.7751 18.974 11.7292 18.9631 11.6846 18.9482C11.679 18.9464 11.6735 18.9443 11.668 18.9424C11.6268 18.9279 11.5873 18.9102 11.5488 18.8906C11.5412 18.8867 11.5329 18.884 11.5254 18.8799C11.4854 18.8583 11.4476 18.8333 11.4111 18.8066C11.4081 18.8044 11.4044 18.803 11.4014 18.8008C11.3967 18.7973 11.3923 18.7927 11.3877 18.7891C11.363 18.7699 11.3392 18.7499 11.3164 18.7285C11.3105 18.723 11.3046 18.7176 11.2988 18.7119C11.2742 18.6876 11.2505 18.6624 11.2285 18.6357L11.2188 18.624C11.2158 18.6204 11.2138 18.616 11.2109 18.6123C11.1832 18.5766 11.1575 18.5393 11.1348 18.5C11.1308 18.4932 11.1268 18.4864 11.123 18.4795C11.0733 18.3887 11.0372 18.2897 11.0176 18.1846C11.0142 18.1665 11.0112 18.1483 11.0088 18.1299C11.0033 18.0874 11 18.044 11 18C11 17.962 11.0017 17.9245 11.0059 17.8877C11.0076 17.8719 11.0112 17.8564 11.0137 17.8408C11.0169 17.8208 11.02 17.8009 11.0244 17.7812C11.0277 17.7665 11.0312 17.7518 11.0352 17.7373C11.0413 17.7145 11.0479 17.692 11.0557 17.6699C11.0597 17.6584 11.0639 17.647 11.0684 17.6357C11.0776 17.612 11.0886 17.5892 11.0996 17.5664C11.1051 17.555 11.1103 17.5434 11.1162 17.5322C11.1483 17.4717 11.1861 17.4147 11.2295 17.3623C11.2401 17.3495 11.2515 17.3374 11.2627 17.3252C11.2727 17.3143 11.2825 17.3034 11.293 17.293L11.3135 17.2725C11.3222 17.2642 11.3318 17.2569 11.3408 17.249C11.3552 17.2364 11.3696 17.2237 11.3848 17.2119C11.3901 17.2077 11.3959 17.2033 11.4014 17.1992C11.4045 17.1968 11.4079 17.1947 11.4111 17.1924C11.4476 17.1657 11.4854 17.1407 11.5254 17.1191C11.5329 17.1151 11.5412 17.1123 11.5488 17.1084C11.5873 17.0889 11.6268 17.0711 11.668 17.0566C11.6716 17.0554 11.6751 17.054 11.6787 17.0527L11.7021 17.0449C11.7411 17.0328 11.7814 17.0239 11.8223 17.0166C11.8314 17.015 11.8404 17.0131 11.8496 17.0117C11.8987 17.0043 11.9489 17 12 17ZM9 15.5C9.55228 15.5 10 15.9477 10 16.5C10 16.5441 9.99576 16.5873 9.99023 16.6299C9.9878 16.6486 9.9849 16.6671 9.98145 16.6855C9.97264 16.7324 9.96042 16.7779 9.94531 16.8223C9.94198 16.832 9.93917 16.8419 9.93555 16.8516C9.91886 16.8959 9.89853 16.9384 9.87598 16.9795C9.87226 16.9863 9.8691 16.9933 9.86523 17C9.84328 17.0379 9.81857 17.0738 9.79199 17.1084C9.78814 17.1134 9.78519 17.1191 9.78125 17.124C9.77961 17.1261 9.77704 17.1278 9.77539 17.1299C9.75193 17.1587 9.72668 17.1859 9.7002 17.2119C9.69461 17.2174 9.68931 17.2232 9.68359 17.2285C9.66236 17.2484 9.6401 17.2671 9.61719 17.2852C9.61095 17.2901 9.60499 17.296 9.59863 17.3008C9.5954 17.3032 9.59116 17.3043 9.58789 17.3066C9.55137 17.3333 9.51367 17.3583 9.47363 17.3799C9.46607 17.384 9.45787 17.3867 9.4502 17.3906C9.41166 17.4101 9.37225 17.4279 9.33105 17.4424C9.32552 17.4443 9.32004 17.4464 9.31445 17.4482C9.26985 17.463 9.2239 17.474 9.17676 17.4824C9.16765 17.484 9.15861 17.4859 9.14941 17.4873C9.1006 17.4946 9.05086 17.5 9 17.5C8.96135 17.5 8.92325 17.4974 8.88574 17.4932C8.87652 17.4921 8.86754 17.4896 8.8584 17.4883C8.83399 17.4848 8.80994 17.4808 8.78613 17.4756C8.77102 17.4723 8.75606 17.4688 8.74121 17.4648C8.7184 17.4587 8.69596 17.452 8.67383 17.4443C8.66494 17.4413 8.65623 17.4379 8.64746 17.4346C8.62496 17.4261 8.60275 17.4173 8.58105 17.4072C8.56582 17.4002 8.55095 17.3925 8.53613 17.3848C8.52255 17.3776 8.5093 17.37 8.49609 17.3623C8.48171 17.3539 8.46704 17.346 8.45312 17.3369C8.43046 17.3221 8.40903 17.3056 8.3877 17.2891C8.38199 17.2846 8.37572 17.2809 8.37012 17.2764C8.31653 17.2328 8.26817 17.1834 8.22461 17.1299C8.22296 17.1278 8.22039 17.1261 8.21875 17.124C8.21481 17.1191 8.21186 17.1134 8.20801 17.1084C8.18143 17.0738 8.15672 17.0379 8.13477 17C8.13082 16.9932 8.12684 16.9864 8.12305 16.9795C8.10053 16.9384 8.08013 16.8959 8.06348 16.8516C8.05986 16.8419 8.05703 16.832 8.05371 16.8223C8.03863 16.778 8.02637 16.7324 8.01758 16.6855C8.01413 16.6672 8.01122 16.6486 8.00879 16.6299C8.00327 16.5874 8 16.544 8 16.5C8 15.9477 8.44772 15.5 9 15.5ZM15 15.5C15.5523 15.5 16 15.9477 16 16.5C16 16.5441 15.9958 16.5873 15.9902 16.6299C15.9878 16.6486 15.9849 16.6671 15.9814 16.6855C15.9726 16.7324 15.9604 16.7779 15.9453 16.8223C15.942 16.832 15.9392 16.8419 15.9355 16.8516C15.9189 16.8959 15.8985 16.9384 15.876 16.9795C15.8723 16.9863 15.8691 16.9933 15.8652 17C15.8433 17.0379 15.8186 17.0738 15.792 17.1084C15.7881 17.1134 15.7852 17.1191 15.7812 17.124C15.7795 17.1262 15.7762 17.1277 15.7744 17.1299C15.7308 17.1834 15.6826 17.2328 15.6289 17.2764C15.6235 17.2808 15.6178 17.2848 15.6123 17.2891C15.5908 17.3058 15.5688 17.3219 15.5459 17.3369C15.532 17.346 15.5173 17.3539 15.5029 17.3623C15.4897 17.37 15.4765 17.3776 15.4629 17.3848C15.4481 17.3925 15.4332 17.4002 15.418 17.4072C15.3963 17.4172 15.3741 17.4261 15.3516 17.4346C15.3428 17.4379 15.3341 17.4413 15.3252 17.4443C15.303 17.452 15.2806 17.4588 15.2578 17.4648C15.243 17.4688 15.228 17.4723 15.2129 17.4756C15.1891 17.4808 15.165 17.4848 15.1406 17.4883C15.1315 17.4896 15.1225 17.4921 15.1133 17.4932C15.0761 17.4974 15.0383 17.5 15 17.5C14.9488 17.5 14.8987 17.4947 14.8496 17.4873C14.8404 17.4859 14.8314 17.4841 14.8223 17.4824C14.7751 17.474 14.7292 17.4631 14.6846 17.4482C14.679 17.4464 14.6735 17.4443 14.668 17.4424C14.6268 17.4279 14.5873 17.4102 14.5488 17.3906C14.5412 17.3867 14.5329 17.384 14.5254 17.3799C14.4854 17.3583 14.4476 17.3333 14.4111 17.3066C14.4081 17.3044 14.4044 17.303 14.4014 17.3008C14.395 17.296 14.3891 17.2901 14.3828 17.2852C14.3599 17.2671 14.3376 17.2484 14.3164 17.2285C14.3105 17.223 14.3046 17.2176 14.2988 17.2119C14.2742 17.1876 14.2505 17.1624 14.2285 17.1357L14.2188 17.124C14.2148 17.1191 14.2119 17.1134 14.208 17.1084C14.1814 17.0738 14.1567 17.0379 14.1348 17C14.1308 16.9932 14.1268 16.9864 14.123 16.9795C14.1005 16.9384 14.0801 16.8959 14.0635 16.8516C14.0599 16.8419 14.057 16.832 14.0537 16.8223C14.0386 16.778 14.0264 16.7324 14.0176 16.6855C14.0141 16.6672 14.0112 16.6486 14.0088 16.6299C14.0033 16.5874 14 16.544 14 16.5C14 15.9477 14.4477 15.5 15 15.5Z" fill="#1C274C"/>
</svg>
