<svg width="24" height="24" viewBox="0 0 24 24" fill="none" xmlns="http://www.w3.org/2000/svg">
<path d="M13.1953 2.00098C11.8648 3.14068 11.0216 4.83053 11.0215 6.71973C11.0215 7.40091 11.1486 7.99695 11.2949 8.45898L6.28223 13.4512C5.98378 13.7484 5.63908 14.252 5.53223 14.9053C5.41004 15.6529 5.62699 16.4607 6.28223 17.1133L6.94336 17.7715C6.97053 17.7986 6.99916 17.8247 7.02832 17.8496C7.3234 18.1015 7.80251 18.3847 8.39746 18.4727C9.06424 18.5711 9.84667 18.4103 10.4854 17.7793C10.8712 17.8766 11.2655 17.8843 11.6455 17.8115C12.3996 17.6671 13.0187 17.2247 13.3887 16.7334C13.3957 16.7241 13.4024 16.7146 13.4092 16.7051C13.5421 16.5199 13.6439 16.3327 13.7197 16.1475C13.8163 16.1395 13.9132 16.1266 14.0098 16.1084C14.8716 15.9449 15.4857 15.4118 15.8135 14.9766C15.8203 14.9675 15.8273 14.9585 15.834 14.9492C16.3622 14.2128 16.4172 13.4475 16.3213 12.8682C16.6839 12.9208 17.0174 12.9404 17.2607 12.9404C19.1541 12.9404 20.8538 12.0984 21.999 10.7676C22.0001 11.1595 22 11.57 22 12C22 16.714 21.9997 19.0708 20.5352 20.5352C19.0708 21.9997 16.714 22 12 22C7.28597 22 4.9293 21.9996 3.46484 20.5352C2.00037 19.0708 2 16.714 2 12C2 7.28595 2.00037 4.9293 3.46484 3.46484C4.9293 2.00037 7.28595 2 12 2C12.4165 2 12.8146 1.99997 13.1953 2.00098ZM17.2607 2C19.8781 2.00008 21.9998 4.11311 22 6.71973C22 9.3265 19.8782 11.4404 17.2607 11.4404C16.783 11.4404 15.695 11.3307 15.166 10.8916L14.5049 11.5498C14.1161 11.9371 14.2215 12.0515 14.3945 12.2393C14.4667 12.3176 14.5504 12.4091 14.6152 12.5381C14.6242 12.5507 15.1615 13.3123 14.6152 14.0742C14.2845 14.5133 13.3589 15.128 12.3008 14.0742L12.0801 14.2939C12.0801 14.2939 12.7415 15.0627 12.1904 15.8311C11.8598 16.2701 10.9775 16.7088 10.2061 15.9404L9.43457 16.709C8.90554 17.2357 8.2591 16.9285 8.00195 16.709L7.34082 16.0508C6.72359 15.4361 7.08365 14.7698 7.34082 14.5137L13.0723 8.80566C13.0723 8.80566 12.5215 7.92719 12.5215 6.71973C12.5217 4.11306 14.6433 2 17.2607 2ZM17.2607 5.07324C16.3477 5.07324 15.6076 5.81051 15.6074 6.71973C15.6074 7.62908 16.3476 8.36621 17.2607 8.36621C18.1738 8.36619 18.9141 7.62906 18.9141 6.71973C18.9139 5.81052 18.1737 5.07326 17.2607 5.07324Z" fill="#1C274C"/>
</svg>
