<svg width="24" height="24" viewBox="0 0 24 24" fill="none" xmlns="http://www.w3.org/2000/svg">
<path d="M12 1.25C17.9371 1.25 22.75 6.06294 22.75 12C22.75 17.9371 17.9371 22.75 12 22.75C11.1785 22.75 10.3775 22.6575 9.60742 22.4824C9.20362 22.3905 8.95115 21.9888 9.04297 21.585C9.13486 21.1811 9.53656 20.9276 9.94043 21.0195C10.6021 21.1699 11.2912 21.25 12 21.25C17.1086 21.25 21.25 17.1086 21.25 12C21.25 6.89137 17.1086 2.75 12 2.75C11.2912 2.75001 10.6021 2.83006 9.94043 2.98047C9.53657 3.07229 9.13487 2.81885 9.04297 2.41504C8.95115 2.01119 9.20362 1.60948 9.60742 1.51758C10.3775 1.3425 11.1785 1.25001 12 1.25ZM3.13184 16.6865C3.48224 16.4659 3.94523 16.5707 4.16602 16.9209C4.90598 18.0961 5.90391 19.0941 7.0791 19.834C7.42924 20.0548 7.53409 20.5178 7.31348 20.8682C7.09273 21.2184 6.6297 21.3241 6.2793 21.1035C4.91422 20.2439 3.75601 19.0857 2.89648 17.7207C2.6759 17.3702 2.78152 16.9073 3.13184 16.6865ZM9 9.21289C9.00018 8.28938 9.93365 7.70582 10.6934 8.1543L15.4141 10.9414C16.1952 11.4031 16.1952 12.5969 15.4141 13.0586L10.6934 15.8457C9.93367 16.2942 9.00021 15.7106 9 14.7871V9.21289ZM1.51758 9.60742C1.6094 9.20351 2.01113 8.95016 2.41504 9.04199C2.81878 9.13379 3.07198 9.53571 2.98047 9.93945C2.83003 10.6012 2.75 11.2911 2.75 12C2.75001 12.7088 2.83006 13.3979 2.98047 14.0596C3.07229 14.4634 2.81886 14.8651 2.41504 14.957C2.01122 15.0488 1.60952 14.7963 1.51758 14.3926C1.34251 13.6225 1.25001 12.8214 1.25 12C1.25 11.1785 1.3425 10.3775 1.51758 9.60742ZM6.2793 2.89746C6.62969 2.67684 7.09268 2.78162 7.31348 3.13184C7.53417 3.48233 7.42954 3.94627 7.0791 4.16699C5.90391 4.90695 4.90598 5.90391 4.16602 7.0791C3.94524 7.42942 3.48227 7.53414 3.13184 7.31348C2.78157 7.0927 2.67585 6.6297 2.89648 6.2793C3.75596 4.91432 4.91435 3.75696 6.2793 2.89746Z" fill="#48465C"/>
</svg>
