<svg width="24" height="24" viewBox="0 0 24 24" fill="none" xmlns="http://www.w3.org/2000/svg">
<path d="M12.7786 6.24951C13.7344 6.24948 14.5291 6.24918 15.1555 6.33545C15.8149 6.42632 16.4085 6.62701 16.8704 7.12061C17.1802 7.45181 17.3542 7.83376 17.4495 8.24951H18.0002C20.6235 8.24963 22.7501 10.3764 22.7502 12.9995C22.7502 15.6228 20.6235 17.7494 18.0002 17.7495H17.0305C17.0207 17.8752 17.0107 17.9981 17.0002 18.1177V18.7495H16.9358C16.8985 19.0691 16.8557 19.3636 16.802 19.6333C16.6336 20.4786 16.3467 21.1844 15.7551 21.7378C15.1635 22.2913 14.4398 22.5303 13.5852 22.6421C12.7632 22.7495 11.725 22.7495 10.4397 22.7495H9.56079C8.2752 22.7495 7.23635 22.7496 6.41431 22.6421C5.55977 22.5303 4.83592 22.2912 4.24438 21.7378C3.65303 21.1844 3.36684 20.4784 3.19849 19.6333C3.03651 18.8202 2.96756 17.7842 2.88208 16.5015L2.53247 11.2622C2.46888 10.3087 2.41584 9.51588 2.46021 8.88525C2.50698 8.22108 2.66716 7.61446 3.12915 7.12061C3.59118 6.62675 4.18536 6.42631 4.84497 6.33545C5.47132 6.24918 6.26617 6.24948 7.22192 6.24951H12.7786ZM4.57446 18.7495C4.60213 18.9635 4.63321 19.1597 4.66919 19.3403C4.80554 20.0248 4.99636 20.3873 5.26978 20.6431C5.5431 20.8987 5.91716 21.0643 6.60864 21.1548C7.32204 21.2481 8.26269 21.2495 9.61353 21.2495H10.387C11.7376 21.2495 12.6775 21.2481 13.3909 21.1548C14.0828 21.0643 14.4573 20.8988 14.7307 20.6431C15.0041 20.3873 15.194 20.0247 15.3303 19.3403C15.3663 19.1597 15.3974 18.9635 15.425 18.7495H4.57446ZM7.27563 7.74951C6.25211 7.74951 5.56191 7.75131 5.05005 7.82178C4.55963 7.88933 4.35561 8.00622 4.22485 8.146C4.09421 8.28573 3.99109 8.49646 3.9563 8.98975C3.92 9.50521 3.96438 10.1948 4.03247 11.2163L4.37524 16.3491C4.39676 16.672 4.41681 16.9713 4.43677 17.2495H15.5637C15.5837 16.9713 15.6037 16.672 15.6252 16.3491L15.967 11.2163C16.0351 10.1948 16.0795 9.50521 16.0432 8.98975C16.0084 8.49624 15.9054 8.28573 15.7747 8.146C15.644 8.00625 15.4407 7.88932 14.9504 7.82178C14.4386 7.75127 13.7484 7.74951 12.7249 7.74951H7.27563ZM17.551 9.74951C17.5386 10.198 17.5053 10.7027 17.468 11.2622L17.135 16.2495H18.0002C19.795 16.2494 21.2502 14.7943 21.2502 12.9995C21.2501 11.2048 19.795 9.74963 18.0002 9.74951H17.551ZM5.93091 1.50146C6.17145 1.16424 6.64056 1.08612 6.97778 1.32666C7.3147 1.56723 7.39293 2.03545 7.15259 2.37256L6.76685 2.91357C7.39251 3.38784 7.53037 4.277 7.07153 4.92041L6.66138 5.49658C6.42085 5.83377 5.95269 5.91185 5.61548 5.67139C5.27832 5.43089 5.19934 4.96269 5.4397 4.62549L5.82642 4.08447C5.20066 3.61026 5.06194 2.72109 5.52075 2.07764L5.93091 1.50146ZM9.93091 1.50146C10.1715 1.16424 10.6405 1.08612 10.9778 1.32666C11.3147 1.56722 11.393 2.03544 11.1526 2.37256L10.7659 2.91357C11.3917 3.38781 11.5304 4.27695 11.0715 4.92041L10.6614 5.49658C10.4208 5.83377 9.95269 5.91185 9.61548 5.67139C9.27832 5.43089 9.19934 4.96269 9.4397 4.62549L9.82642 4.08447C9.20066 3.61026 9.06194 2.72109 9.52075 2.07764L9.93091 1.50146ZM13.9309 1.50146C14.1715 1.16424 14.6405 1.08612 14.9778 1.32666C15.3147 1.56722 15.393 2.03544 15.1526 2.37256L14.7659 2.91357C15.3917 3.38781 15.5304 4.27695 15.0715 4.92041L14.6614 5.49658C14.4208 5.83378 13.9527 5.91187 13.6155 5.67139C13.2782 5.43089 13.1994 4.96269 13.4397 4.62549L13.8264 4.08447C13.2006 3.61026 13.0619 2.72109 13.5208 2.07764L13.9309 1.50146Z" fill="#1C274C"/>
</svg>
