<svg width="24" height="24" viewBox="0 0 24 24" fill="none" xmlns="http://www.w3.org/2000/svg">
<path d="M12.7786 6.24951C13.7341 6.24948 14.5282 6.2502 15.1545 6.33643C15.8141 6.42728 16.4084 6.62687 16.8704 7.12061C17.1802 7.45181 17.3543 7.83376 17.4495 8.24951H18.0002C20.6234 8.24969 22.7501 10.3764 22.7502 12.9995C22.7502 15.6228 20.6235 17.7493 18.0002 17.7495H17.0305C17.0207 17.8752 17.0107 17.9981 17.0002 18.1177V18.7495H16.9358C16.8985 19.0691 16.8557 19.3636 16.802 19.6333C16.6336 20.4785 16.3466 21.1844 15.7551 21.7378C15.1635 22.2913 14.4398 22.5303 13.5852 22.6421C12.7632 22.7496 11.725 22.7495 10.4397 22.7495H9.56079C8.2752 22.7495 7.23635 22.7496 6.41431 22.6421C5.55971 22.5303 4.83594 22.2913 4.24438 21.7378C3.65299 21.1844 3.36685 20.4784 3.19849 19.6333C3.03651 18.8202 2.96757 17.7842 2.88208 16.5015L2.53247 11.2622C2.46888 10.3087 2.41584 9.51588 2.46021 8.88525C2.50699 8.22105 2.66712 7.61447 3.12915 7.12061C3.59118 6.62676 4.18537 6.42729 4.84497 6.33643C5.47122 6.25017 6.2654 6.24948 7.22095 6.24951H12.7786ZM4.57446 18.7495C4.60213 18.9635 4.63321 19.1597 4.66919 19.3403C4.80554 20.0248 4.99637 20.3873 5.26978 20.6431C5.54311 20.8987 5.91713 21.0643 6.60864 21.1548C7.32204 21.2481 8.26269 21.2495 9.61353 21.2495H10.387C11.7376 21.2495 12.6775 21.2481 13.3909 21.1548C14.0828 21.0643 14.4573 20.8989 14.7307 20.6431C15.0041 20.3873 15.194 20.0247 15.3303 19.3403C15.3663 19.1597 15.3974 18.9635 15.425 18.7495H4.57446ZM7.27563 7.74951C6.25219 7.74951 5.5619 7.75133 5.05005 7.82178C4.55963 7.88933 4.35561 8.00622 4.22485 8.146C4.09418 8.28573 3.9911 8.49639 3.9563 8.98975C3.92 9.50521 3.96438 10.1948 4.03247 11.2163L4.37524 16.3491C4.39676 16.672 4.41681 16.9713 4.43677 17.2495H15.5637C15.5837 16.9713 15.6037 16.672 15.6252 16.3491L15.967 11.2163C16.0351 10.1948 16.0795 9.50521 16.0432 8.98975C16.0084 8.49624 15.9054 8.28572 15.7747 8.146C15.644 8.00624 15.4407 7.88933 14.9504 7.82178C14.4386 7.75128 13.7483 7.74951 12.7249 7.74951H7.27563ZM17.551 9.74951C17.5386 10.198 17.5043 10.7027 17.467 11.2622L17.135 16.2495H18.0002C19.795 16.2493 21.2502 14.7943 21.2502 12.9995C21.2501 11.2048 19.7949 9.74969 18.0002 9.74951H17.551ZM5.93091 1.50146C6.17139 1.16433 6.63961 1.08635 6.97681 1.32666C7.31396 1.56714 7.39295 2.03535 7.15259 2.37256L6.76587 2.91357C7.39169 3.38784 7.53052 4.27792 7.07153 4.92139L6.66138 5.49658C6.42087 5.83374 5.95269 5.91179 5.61548 5.67139C5.2783 5.43088 5.19928 4.9627 5.4397 4.62549L5.82642 4.08447C5.20064 3.61025 5.06188 2.7211 5.52075 2.07764L5.93091 1.50146ZM9.93091 1.50146C10.1715 1.16424 10.6405 1.08612 10.9778 1.32666C11.3146 1.56722 11.3929 2.03547 11.1526 2.37256L10.7659 2.91357C11.3918 3.38784 11.5305 4.27792 11.0715 4.92139L10.6614 5.49658C10.4208 5.83374 9.95269 5.91179 9.61548 5.67139C9.2783 5.43088 9.19928 4.9627 9.4397 4.62549L9.82642 4.08447C9.20064 3.61025 9.06188 2.7211 9.52075 2.07764L9.93091 1.50146ZM13.9309 1.50146C14.1715 1.16425 14.6405 1.08612 14.9778 1.32666C15.3146 1.56722 15.3929 2.03547 15.1526 2.37256L14.7659 2.91357C15.3918 3.38784 15.5305 4.27792 15.0715 4.92139L14.6614 5.49658C14.4208 5.83375 13.9527 5.91181 13.6155 5.67139C13.2782 5.43088 13.1993 4.9627 13.4397 4.62549L13.8264 4.08447C13.2006 3.61024 13.0619 2.7211 13.5208 2.07764L13.9309 1.50146Z" fill="#48465C"/>
</svg>
