<svg width="24" height="24" viewBox="0 0 24 24" fill="none" xmlns="http://www.w3.org/2000/svg">
<path d="M2.96777 9.48535C3.369 9.46809 3.71247 9.76978 3.74707 10.1699L4.71875 21.4062C4.78106 22.128 4.21225 22.75 3.48633 22.75C2.80269 22.7498 2.25001 22.1951 2.25 21.5127V10.2344C2.25 9.83273 2.5665 9.50267 2.96777 9.48535ZM11.6738 2.13184C11.9825 1.9831 12.3406 1.95928 12.668 2.06445L12.8125 2.11035C13.3541 2.28434 13.7657 2.71334 13.9043 3.24707C14.0715 3.89155 14.1028 4.56461 13.9951 5.22168L13.332 9.26562C13.2489 9.7728 13.64 10.2341 14.1533 10.2344H19.335C20.3676 10.2345 21.1515 11.1658 20.9756 12.1846L20.2695 16.2646C19.6972 19.574 16.7264 21.9999 13.2451 22H8.59668C7.7329 22 7.012 21.3381 6.9375 20.4766L6.12598 11.084C6.07988 10.5503 6.29273 10.0273 6.69824 9.67773L8.13672 8.4375C8.80418 7.86233 9.44695 7.24033 9.8623 6.46289C10.1466 5.93072 10.3663 5.36669 10.5176 4.7832L10.9941 2.94922C11.0863 2.59434 11.3343 2.29549 11.6738 2.13184Z" fill="#48465C"/>
</svg>
