<svg width="24" height="24" viewBox="0 0 24 24" fill="none" xmlns="http://www.w3.org/2000/svg">
<path d="M14.2217 6C17.3427 6 18.9034 6.00038 20.0244 6.72266C20.5096 7.0353 20.9268 7.43643 21.251 7.9043C22 8.98527 22 10.4904 22 13.5C22 16.5095 22 18.0147 21.251 19.0957C20.9267 19.5635 20.5095 19.9647 20.0244 20.2773C18.9035 20.9995 17.3434 21 14.2227 21H9.77734C6.65668 21 5.09653 20.9996 3.97559 20.2773C3.49039 19.9647 3.07326 19.5635 2.74902 19.0957C2.00001 18.0147 2 16.5095 2 13.5V13.498C2 10.4897 2.00016 8.98504 2.74902 7.9043C3.07313 7.43665 3.48966 7.03522 3.97461 6.72266C5.09557 6.0004 6.6565 6 9.77734 6H14.2217ZM12 9.48242C9.69881 9.48242 7.83301 11.2809 7.83301 13.5C7.83306 15.719 9.69884 17.5176 12 17.5176C14.3012 17.5176 16.1669 15.719 16.167 13.5C16.167 11.2809 14.3012 9.48242 12 9.48242ZM12 11.0889C13.3807 11.0889 14.5 12.1686 14.5 13.5C14.4999 14.8314 13.3807 15.9102 12 15.9102C10.6193 15.9102 9.50006 14.8314 9.5 13.5C9.5 12.1686 10.6193 11.0889 12 11.0889ZM18.1113 9.48242C17.6512 9.48242 17.2775 9.84155 17.2773 10.2852C17.2773 10.7291 17.6511 11.0889 18.1113 11.0889H18.667C19.1271 11.0887 19.5 10.729 19.5 10.2852C19.4998 9.84165 19.1269 9.48257 18.667 9.48242H18.1113ZM15.0771 3C15.5868 3.00015 16 3.44781 16 4C16 4.55219 15.5868 4.99985 15.0771 5H8.92285C8.41316 4.99987 8 4.5522 8 4C8 3.4478 8.41316 3.00013 8.92285 3H15.0771Z" fill="#1C274C"/>
</svg>
