<svg width="24" height="24" viewBox="0 0 24 24" fill="none" xmlns="http://www.w3.org/2000/svg">
<path d="M12 4.75C16.9706 4.75 21 8.77944 21 13.75C21 18.7206 16.9706 22.75 12 22.75C7.02944 22.75 3 18.7206 3 13.75C3 8.77944 7.02944 4.75 12 4.75ZM12.2422 10.5166C11.1698 9.86449 10.6332 9.53847 10.1523 9.89941C9.67149 10.2604 9.62743 11.0162 9.54004 12.5273C9.51532 12.9548 9.5 13.3743 9.5 13.75C9.5 14.1257 9.51532 14.5452 9.54004 14.9727C9.62743 16.4838 9.67149 17.2396 10.1523 17.6006C10.6332 17.9615 11.1698 17.6355 12.2422 16.9834C12.5203 16.8142 12.7891 16.6422 13.0264 16.4756C13.2969 16.2857 13.591 16.0575 13.8877 15.8154C14.9626 14.9385 15.5 14.4999 15.5 13.75C15.5 13.0001 14.9626 12.5615 13.8877 11.6846C13.591 11.4425 13.2969 11.2143 13.0264 11.0244C12.7891 10.8578 12.5203 10.6858 12.2422 10.5166ZM14 2C14.4142 2 14.75 2.33579 14.75 2.75C14.75 3.16421 14.4142 3.5 14 3.5H10C9.58579 3.5 9.25 3.16421 9.25 2.75C9.25 2.33579 9.58579 2 10 2H14Z" fill="#1C274C"/>
</svg>
