<svg width="24" height="24" viewBox="0 0 24 24" fill="none" xmlns="http://www.w3.org/2000/svg">
<path d="M19.9521 21.0117C18.4558 21.9996 16.1343 22 12 22C10.0057 22 8.43335 21.9996 7.17188 21.8887L14 15.0605L19.9521 21.0117ZM12 2C16.714 2 19.0708 2.00037 20.5352 3.46484C21.039 3.96868 21.3701 4.57775 21.5869 5.35254L5.35254 21.5869C4.57775 21.3701 3.96868 21.039 3.46484 20.5352C2.00037 19.0708 2 16.714 2 12C2 7.28595 2.00037 4.9293 3.46484 3.46484C4.9293 2.00037 7.28595 2 12 2ZM21.8887 7.17188C21.9996 8.43334 22 10.0057 22 12C22 16.1334 21.9999 18.4548 21.0127 19.9512L15.0615 14L21.8887 7.17188ZM9 5.5C7.06717 5.5 5.50028 6.95809 5.5 8.75684C5.5 10.5417 6.61746 12.6253 8.36035 13.3701C8.76639 13.5435 9.23361 13.5435 9.63965 13.3701C11.3825 12.6253 12.5 10.5417 12.5 8.75684C12.4997 6.95809 10.9328 5.5 9 5.5ZM9 7.5C9.82843 7.5 10.5 8.17157 10.5 9C10.5 9.82843 9.82843 10.5 9 10.5C8.17157 10.5 7.5 9.82843 7.5 9C7.5 8.17157 8.17157 7.5 9 7.5Z" fill="#1C274C"/>
</svg>
