<svg width="24" height="24" viewBox="0 0 24 24" fill="none" xmlns="http://www.w3.org/2000/svg">
<path d="M5.43457 1C7.88335 1.00019 9.86816 2.98574 9.86816 5.43457V12.3467C10.2348 12.1283 10.6552 11.9387 11.0986 11.7773C12.4315 11.2924 14.1439 11 15.75 11C17.3577 11 18.9557 11.2931 20.1768 11.7871C20.785 12.0332 21.3377 12.3441 21.751 12.7256C22.1624 13.1055 22.5 13.6198 22.5 14.25V15.4346C22.4998 19.3366 19.3366 22.4998 15.4346 22.5C11.5324 22.5 8.36836 19.3367 8.36816 15.4346V5.43457C8.36816 3.81417 7.05492 2.50019 5.43457 2.5C3.81405 2.5 2.5 3.81405 2.5 5.43457C2.49981 5.84861 2.16409 6.18457 1.75 6.18457C1.33591 6.18457 1.00019 5.84861 1 5.43457C1 2.98562 2.98562 1 5.43457 1ZM9.91797 16.1826C10.2837 18.9025 12.6146 21 15.4346 21C18.1932 20.9998 20.4833 18.9928 20.9238 16.3594C20.6896 16.4895 20.4382 16.6071 20.1768 16.7129C18.9557 17.207 17.3577 17.5 15.75 17.5C14.1439 17.5 12.4315 17.2076 11.0986 16.7227C10.6751 16.5686 10.2726 16.3887 9.91797 16.1826ZM15.75 12.5C14.3024 12.5 12.765 12.7668 11.6113 13.1865C11.0316 13.3975 10.5889 13.6327 10.3066 13.8604C10.0112 14.0987 10 14.2357 10 14.25C10 14.2643 10.0112 14.4013 10.3066 14.6396C10.5889 14.8673 11.0315 15.1025 11.6113 15.3135C12.7649 15.7332 14.3024 16 15.75 16C17.1962 16 18.5989 15.7332 19.6143 15.3223C20.124 15.1161 20.4989 14.8884 20.7334 14.6719C20.9695 14.4537 21 14.3102 21 14.25C21 14.1898 20.9695 14.0463 20.7334 13.8281C20.4989 13.6116 20.124 13.384 19.6143 13.1777C18.5989 12.7669 17.1962 12.5 15.75 12.5Z" fill="#48465C"/>
</svg>
