<svg width="24" height="24" viewBox="0 0 24 24" fill="none" xmlns="http://www.w3.org/2000/svg">
<path d="M8.68945 17.1357V20.1416C8.68945 20.4395 8.68937 20.5892 8.79395 20.6494C8.89856 20.7096 9.04211 20.6428 9.32812 20.5098L10.6992 19.8711C10.7958 19.8261 10.8445 19.8038 10.8965 19.8037C10.9484 19.8037 10.9971 19.8261 11.0938 19.8711L12.4648 20.5098C12.7509 20.6429 12.8944 20.7095 12.999 20.6494C13.1036 20.5892 13.1035 20.4396 13.1035 20.1416V17.1357H19.999C19.9955 18.2661 19.9771 19.1093 19.8857 19.7754C19.7768 20.5685 19.5778 20.9889 19.2725 21.2881C18.9671 21.587 18.5386 21.782 17.7295 21.8887C16.896 21.9985 15.7909 22 14.207 22H9.79297C8.20942 22 7.1049 21.9984 6.27148 21.8887C5.4621 21.782 5.03292 21.5871 4.72754 21.2881C4.42219 20.9889 4.22313 20.5685 4.11426 19.7754C4.07303 19.475 4.04608 19.1383 4.0293 18.7559C4.30066 18.0045 4.93381 17.4262 5.72754 17.2178C6.0167 17.1419 6.39445 17.1357 7.47363 17.1357H8.68945ZM14.207 2C15.7905 2 16.8951 2.00161 17.7285 2.11133C18.5382 2.21798 18.9671 2.41369 19.2725 2.71289C19.5778 3.01204 19.7768 3.43167 19.8857 4.22461C19.9977 5.04121 20 6.12397 20 7.67578V15.5137H7.3457C6.44312 15.5134 5.827 15.5127 5.29883 15.6514C4.82662 15.7753 4.38864 15.9781 4 16.2441V7.67578C4 6.12397 4.0022 5.0412 4.11426 4.22461C4.22313 3.43165 4.42223 3.01204 4.72754 2.71289C5.03294 2.41369 5.4618 2.21798 6.27148 2.11133C7.1049 2.0016 8.20944 2 9.79297 2H14.207ZM7.58594 9.56738C7.12915 9.56753 6.75905 9.93041 6.75879 10.3779C6.75879 10.8256 7.12899 11.1893 7.58594 11.1895H13.1035C13.5606 11.1894 13.9307 10.8257 13.9307 10.3779C13.9304 9.93036 13.5604 9.56744 13.1035 9.56738H7.58594ZM7.58594 5.78418C7.12899 5.78432 6.75879 6.14703 6.75879 6.59473C6.75886 7.04238 7.12904 7.40513 7.58594 7.40527H16.4141C16.871 7.40513 17.2411 7.04238 17.2412 6.59473C17.2412 6.14702 16.871 5.78432 16.4141 5.78418H7.58594Z" fill="#48465C"/>
</svg>
