<svg width="24" height="24" viewBox="0 0 24 24" fill="none" xmlns="http://www.w3.org/2000/svg">
<path d="M2 1.25C2.41421 1.25 2.75 1.58579 2.75 2V12C2.75 14.3782 2.75198 16.0867 2.92676 17.3867C3.09865 18.6649 3.42551 19.4352 3.99512 20.0049C4.56472 20.5745 5.33508 20.9014 6.61328 21.0732C7.91326 21.248 9.62178 21.25 12 21.25H22C22.4142 21.25 22.75 21.5858 22.75 22C22.75 22.4142 22.4142 22.75 22 22.75H11.9424C9.63432 22.75 7.82544 22.7502 6.41406 22.5605C4.96932 22.3662 3.82938 21.9602 2.93457 21.0654C2.03977 20.1706 1.63369 19.0306 1.43945 17.5859C1.24974 16.1745 1.24999 14.3657 1.25 12.0576V2C1.25 1.58579 1.58579 1.25 2 1.25ZM18.4131 6.5332C18.6708 6.20916 19.1425 6.1556 19.4668 6.41309C19.7909 6.67073 19.8454 7.14252 19.5879 7.4668L16.4541 11.4121C16.2285 11.6962 16.0361 11.9384 15.8652 12.126C15.6875 12.3211 15.4915 12.505 15.2451 12.6367C14.6129 12.9747 13.8573 12.9908 13.2109 12.6807C12.959 12.5598 12.7553 12.3854 12.5693 12.1982C12.3903 12.0182 12.1881 11.7839 11.9502 11.5098L11.9336 11.4912C11.6753 11.1935 11.5058 10.9989 11.3672 10.8594C11.232 10.7233 11.1691 10.6856 11.1406 10.6719C10.9252 10.5685 10.6727 10.5738 10.4619 10.6865C10.4341 10.7015 10.3731 10.7422 10.2441 10.8838C10.1116 11.0293 9.9503 11.2312 9.70508 11.54L6.58691 15.4668C6.32924 15.7908 5.85743 15.8444 5.5332 15.5869C5.20923 15.3292 5.15562 14.8574 5.41309 14.5332L8.5459 10.5879C8.77159 10.3037 8.96481 10.0617 9.13574 9.87402C9.31341 9.67901 9.50851 9.49503 9.75488 9.36328C10.3871 9.02531 11.1427 9.00926 11.7891 9.31934C12.041 9.44023 12.2447 9.61467 12.4307 9.80176C12.6097 9.98178 12.8129 10.2161 13.0508 10.4902L13.0664 10.5088C13.3249 10.8066 13.4951 11.001 13.6338 11.1406C13.7695 11.277 13.8321 11.3145 13.8604 11.3281C14.0758 11.4314 14.3273 11.4261 14.5381 11.3135C14.5658 11.2986 14.6266 11.2582 14.7559 11.1162C14.8885 10.9708 15.0497 10.7688 15.2949 10.46L18.4131 6.5332Z" fill="#1C274C"/>
</svg>
