<svg width="24" height="24" viewBox="0 0 24 24" fill="none" xmlns="http://www.w3.org/2000/svg">
<path d="M13.6338 2.25C14.969 2.25004 16.1343 3.17667 16.4014 4.48633C16.463 4.78871 16.7376 5.01074 17.0225 5.01074H17.0381L17.0547 5.01172C18.4581 5.07309 19.5365 5.24553 20.4365 5.83594C21.0034 6.20789 21.4911 6.68678 21.8711 7.24512C22.3438 7.93979 22.5523 8.73696 22.6523 9.70117C22.7499 10.6435 22.75 11.8252 22.75 13.3213V13.4062C22.75 14.9021 22.7499 16.0832 22.6523 17.0254C22.5524 17.9898 22.3439 18.7877 21.8711 19.4824C21.4911 20.0408 21.0034 20.5196 20.4365 20.8916C19.7331 21.3531 18.9263 21.5566 17.9482 21.6543C16.9906 21.7499 15.7891 21.75 14.2637 21.75H9.73633C8.21085 21.75 7.00942 21.7499 6.05176 21.6543C5.07368 21.5566 4.26689 21.3531 3.56348 20.8916C2.99658 20.5196 2.5089 20.0408 2.12891 19.4824C1.65611 18.7877 1.44759 17.9898 1.34766 17.0254C1.25006 16.0832 1.24999 14.9021 1.25 13.4062V13.3213C1.24999 11.8252 1.25002 10.6435 1.34766 9.70117C1.44759 8.73696 1.65626 7.93979 2.12891 7.24512C2.50887 6.68679 2.99663 6.20789 3.56348 5.83594C4.46346 5.24553 5.54188 5.07309 6.94531 5.01172L6.96191 5.01074H6.97754C7.26242 5.01074 7.53703 4.78872 7.59863 4.48633C7.86559 3.17667 9.03095 2.25004 10.3662 2.25H13.6338ZM10.3662 3.75C9.72517 3.75004 9.18916 4.19308 9.06836 4.78613C8.87268 5.74664 8.02075 6.50182 6.99609 6.51074C5.64766 6.57066 4.9254 6.73646 4.38672 7.08984C3.98317 7.35458 3.6376 7.6944 3.36914 8.08887C3.09306 8.49462 2.92716 9.01377 2.83984 9.85645C2.7512 10.7124 2.75 11.8157 2.75 13.3633C2.75 14.9113 2.75116 16.0151 2.83984 16.8711C2.92717 17.7139 3.09299 18.2329 3.36914 18.6387C3.6376 19.0332 3.98317 19.373 4.38672 19.6377C4.80423 19.9115 5.33867 20.0759 6.20117 20.1621C7.07552 20.2494 8.20182 20.25 9.77734 20.25H14.2227C15.7982 20.25 16.9244 20.2494 17.7988 20.1621C18.6613 20.0759 19.1957 19.9115 19.6133 19.6377C20.0168 19.373 20.3625 19.0332 20.6309 18.6387C20.9071 18.2329 21.0728 17.7139 21.1602 16.8711C21.2488 16.0151 21.25 14.9113 21.25 13.3633C21.25 11.8157 21.2488 10.7124 21.1602 9.85645C21.0728 9.01378 20.907 8.49462 20.6309 8.08887C20.3625 7.6944 20.0168 7.35458 19.6133 7.08984C19.0745 6.73647 18.3523 6.57066 17.0039 6.51074C15.9792 6.50182 15.1273 5.74664 14.9316 4.78613C14.8107 4.19308 14.2748 3.75004 13.6338 3.75H10.3662ZM12 9.25C12.4142 9.25 12.75 9.58579 12.75 10V12.25H15C15.4142 12.25 15.75 12.5858 15.75 13C15.75 13.4142 15.4142 13.75 15 13.75H12.75V16C12.75 16.4142 12.4142 16.75 12 16.75C11.5858 16.75 11.25 16.4142 11.25 16V13.75H9C8.58579 13.75 8.25 13.4142 8.25 13C8.25 12.5858 8.58579 12.25 9 12.25H11.25V10C11.25 9.58579 11.5858 9.25 12 9.25ZM19 9.25C19.4142 9.25 19.75 9.58579 19.75 10C19.75 10.4142 19.4142 10.75 19 10.75H18C17.5858 10.75 17.25 10.4142 17.25 10C17.25 9.58579 17.5858 9.25 18 9.25H19Z" fill="#48465C"/>
</svg>
