<svg width="24" height="24" viewBox="0 0 24 24" fill="none" xmlns="http://www.w3.org/2000/svg">
<path d="M12 3.50495C12.0001 2.79016 12.7238 2.31757 13.3418 2.67683C16.127 4.29594 20 7.81989 20 13.1114C20 18.9262 15.9579 21.1752 12.832 21.8018C13.8706 21.4348 15 20.4924 15 18.4444C15 17.1467 14.1813 16.3456 13.54 15.9708C13.3439 15.8563 13.1162 16.0012 13.0986 16.2276C13.043 16.9455 12.3536 17.5174 11.8838 16.9717C11.4687 16.4892 11.2939 15.784 11.2939 15.3331V14.7442C11.2939 14.389 10.9364 14.1537 10.6309 14.335C9.49496 15.009 8 16.3952 8 18.4444C8.00003 21.0641 10.1112 21.8748 11.417 21.9864C11.2488 21.9961 11.0873 22.0001 10.9336 22.0001C8.28919 22.0001 3.00002 20.2225 3 13.1114C3 10.3298 4.46186 8.46144 5.86035 7.3946C6.63875 6.80115 7.63071 7.3924 7.73047 8.36628L7.81641 9.20417C7.92101 10.2243 8.84911 11.0605 9.70898 10.502C11.3935 9.40733 12 6.77494 12 5.33308V3.50495Z" fill="#1C274C"/>
</svg>
