<svg width="24" height="24" viewBox="0 0 24 24" fill="none" xmlns="http://www.w3.org/2000/svg">
<path d="M20.9547 11.75C20.8289 12.4642 20.6519 13.291 20.4449 14.2568L20.0162 16.2568C19.5292 18.5294 19.2856 19.666 18.4605 20.333C17.6355 20.9998 16.4737 21 14.15 21H9.85016C7.52649 21 6.36462 20.9998 5.53961 20.333C4.71454 19.666 4.47092 18.5294 3.98395 16.2568L3.55524 14.2568C3.34826 13.291 3.17128 12.4642 3.04547 11.75H20.9547ZM9.99957 13.25C9.58556 13.2502 9.24957 13.5859 9.24957 14C9.2496 14.414 9.58557 14.7498 9.99957 14.75H13.9996C14.4138 14.75 14.7495 14.4142 14.7496 14C14.7496 13.5858 14.4138 13.25 13.9996 13.25H9.99957ZM14.6646 2.3291C15.0351 2.14393 15.4853 2.29459 15.6705 2.66504L17.8716 7.06738C19.2247 7.17132 20.0737 7.43665 20.6216 8.11426C21.057 8.6528 21.1988 9.32264 21.147 10.25H2.85309C2.80134 9.32264 2.94312 8.6528 3.37848 8.11426C3.92633 7.43666 4.77549 7.17133 6.12848 7.06738L8.32965 2.66504C8.51489 2.29456 8.96503 2.14386 9.33551 2.3291C9.70599 2.51435 9.85571 2.96546 9.67047 3.33594L7.83551 7.00586C8.31873 7.00059 8.84684 7 9.42242 7H14.5777C15.1531 7 15.6806 7.00059 16.1636 7.00586L14.3297 3.33594C14.1444 2.96546 14.2941 2.51435 14.6646 2.3291Z" fill="#1C274C"/>
</svg>
