<svg width="24" height="24" viewBox="0 0 24 24" fill="none" xmlns="http://www.w3.org/2000/svg">
<path d="M12 2C17.5228 2 22 6.47715 22 12C22 13.3852 21.7181 14.7048 21.209 15.9043L21.2949 16C21.8882 16.6629 22.25 17.54 22.25 18.5C22.25 20.571 20.5711 22.25 18.5 22.25C17.5401 22.25 16.663 21.8883 16 21.2949L15.9043 21.209C14.7048 21.7182 13.3852 22 12 22C10.6147 22 9.29527 21.7182 8.0957 21.209L8 21.2949C7.33705 21.8883 6.45898 22.25 5.49902 22.25C3.42818 22.2497 1.74902 20.5708 1.74902 18.5C1.74902 17.5402 2.11093 16.6629 2.7041 16L2.79102 15.9033C2.28202 14.704 2 13.385 2 12C2 6.47715 6.47715 2 12 2ZM3.55762 17.3623C3.36153 17.696 3.25 18.0844 3.25 18.5C3.25 19.7424 4.25661 20.7497 5.49902 20.75C5.91447 20.75 6.30304 20.6375 6.63672 20.4414C5.39876 19.6532 4.34564 18.6004 3.55762 17.3623ZM20.4424 17.3623C19.6543 18.6004 18.6004 19.6542 17.3623 20.4424C17.696 20.6383 18.0846 20.75 18.5 20.75C19.7426 20.75 20.75 19.7426 20.75 18.5C20.75 18.0846 20.6384 17.6959 20.4424 17.3623ZM12 15.25C11.5858 15.25 11.25 15.5858 11.25 16V18C11.25 18.4142 11.5858 18.75 12 18.75C12.4142 18.75 12.75 18.4142 12.75 18V16C12.75 15.5858 12.4142 15.25 12 15.25ZM12 5.25C9.92893 5.25 8.25 6.92893 8.25 9C8.25 11.0711 9.92893 12.75 12 12.75C14.0711 12.75 15.75 11.0711 15.75 9C15.75 6.92893 14.0711 5.25 12 5.25ZM12 6.75C13.2426 6.75 14.25 7.75736 14.25 9C14.25 10.2426 13.2426 11.25 12 11.25C10.7574 11.25 9.75 10.2426 9.75 9C9.75 7.75736 10.7574 6.75 12 6.75Z" fill="#48465C"/>
</svg>
