<svg width="24" height="24" viewBox="0 0 24 24" fill="none" xmlns="http://www.w3.org/2000/svg">
<path d="M12 1.25C15.7279 1.25 18.75 4.27208 18.75 8V10.0547C19.8648 10.138 20.5905 10.3482 21.1211 10.8789C21.9998 11.7576 22 13.1716 22 16C22 18.8284 21.9998 20.2424 21.1211 21.1211C20.2424 21.9998 18.8284 22 16 22H8C5.17158 22 3.75759 21.9998 2.87891 21.1211C2.00023 20.2424 2 18.8284 2 16C2 13.1716 2.00023 11.7576 2.87891 10.8789C3.40953 10.3482 4.13526 10.138 5.25 10.0547V8C5.25 4.27208 8.27208 1.25 12 1.25ZM8 15C7.44772 15 7 15.4477 7 16C7 16.5523 7.44772 17 8 17C8.55228 17 9 16.5523 9 16C9 15.4477 8.55228 15 8 15ZM12 15C11.4477 15 11 15.4477 11 16C11 16.5523 11.4477 17 12 17C12.5523 17 13 16.5523 13 16C13 15.4477 12.5523 15 12 15ZM16 15C15.4477 15 15 15.4477 15 16C15 16.5523 15.4477 17 16 17C16.5523 17 17 16.5523 17 16C17 15.4477 16.5523 15 16 15ZM12 2.75C9.10051 2.75 6.75 5.10051 6.75 8V10.0039C7.13301 10.0003 7.54849 10 8 10H16C16.4515 10 16.867 10.0003 17.25 10.0039V8C17.25 5.10051 14.8995 2.75 12 2.75Z" fill="#48465C"/>
</svg>
