<svg width="24" height="24" viewBox="0 0 24 24" fill="none" xmlns="http://www.w3.org/2000/svg">
<path d="M9.84229 2.68652C10.6969 0.770059 13.3031 0.770059 14.1577 2.68652L21.52 19.1963C21.987 20.2439 21.7009 21.3272 21.0474 22.0117C20.3884 22.702 19.3116 23.0207 18.2798 22.4697L12.3765 19.3174C12.138 19.1901 11.862 19.1901 11.6235 19.3174L5.72021 22.4697C4.68831 23.0206 3.61166 22.702 2.95264 22.0117C2.29916 21.3272 2.01297 20.2439 2.47998 19.1963L9.84229 2.68652ZM12.7876 3.29688C12.4615 2.56615 11.5384 2.56613 11.2124 3.29688L3.8501 19.8066C3.65028 20.2548 3.77042 20.6957 4.0376 20.9756C4.29935 21.2498 4.65837 21.3365 5.01416 21.1465L10.9175 17.9941C11.5973 17.6312 12.4027 17.6312 13.0825 17.9941L18.9868 21.1465C19.3425 21.3362 19.7008 21.2497 19.9624 20.9756C20.2296 20.6957 20.3497 20.2548 20.1499 19.8066L12.7876 3.29688Z" fill="#1C274C"/>
</svg>
