<svg width="24" height="24" viewBox="0 0 24 24" fill="none" xmlns="http://www.w3.org/2000/svg">
<path d="M6.82367 6.96148L6.28949 8.9566C6.00136 10.0318 5.76032 10.9294 5.62641 11.6783C5.48671 12.4596 5.43551 13.2134 5.61469 13.982C5.86171 15.0414 6.41742 16.004 7.21137 16.7476C7.78739 17.2871 8.46581 17.6195 9.21235 17.8892C9.92237 18.1457 10.8121 18.3843 11.8764 18.6695L11.9008 18.6763L12.0082 18.7046C12.9863 18.9667 13.8132 19.1883 14.5092 19.3267C14.8517 19.3948 15.1888 19.4491 15.5229 19.4771C15.4661 19.5373 15.4077 19.5961 15.3471 19.6529C14.6158 20.3378 13.4879 20.6395 11.2329 21.2437C8.97783 21.848 7.85022 22.1509 6.87446 21.9234C6.10418 21.7438 5.40446 21.3395 4.86371 20.7623C4.17879 20.031 3.87617 18.903 3.27192 16.648L2.75434 14.7164C2.15015 12.4615 1.84824 11.3337 2.07563 10.358C2.25527 9.58751 2.65934 8.88705 3.23676 8.34625C3.91086 7.71493 4.92197 7.40943 6.84223 6.89214L6.82367 6.96148ZM11.8745 2.07574C12.8501 1.84823 13.9779 2.15025 16.2329 2.75445C18.4879 3.3587 19.6158 3.66133 20.3471 4.34625C20.9244 4.88701 21.3287 5.58665 21.5082 6.35699C21.7357 7.33274 21.4337 8.46042 20.8295 10.7154L20.312 12.647C19.7078 14.9021 19.4051 16.03 18.7202 16.7613C18.1794 17.3386 17.4797 17.7428 16.7094 17.9224C16.6133 17.9449 16.5155 17.9619 16.4155 17.9742C15.5004 18.0871 14.3835 17.7883 12.351 17.2437C10.0959 16.6394 8.96804 16.3368 8.23676 15.6519C7.65949 15.1112 7.25525 14.4115 7.07563 13.6412C6.84811 12.6654 7.15011 11.5378 7.75434 9.28277L8.27192 7.35113C8.35878 7.02697 8.43965 6.72559 8.51606 6.44585C8.97113 4.77981 9.27729 3.86298 9.86371 3.23687C10.4044 2.65958 11.1041 2.25539 11.8745 2.07574ZM11.1938 12.1734C10.7938 12.0663 10.383 12.3036 10.2758 12.7037C10.1687 13.1037 10.4061 13.5145 10.8061 13.6216L13.7036 14.398C14.1037 14.5052 14.5153 14.2678 14.6225 13.8677C14.7294 13.4679 14.492 13.0571 14.0922 12.9498L11.1938 12.1734ZM11.9711 9.27593C11.571 9.16872 11.1594 9.40611 11.0522 9.80621C10.9452 10.2061 11.1826 10.6169 11.5825 10.7242L16.4125 12.0181C16.8126 12.1253 17.2233 11.8879 17.3305 11.4878C17.4375 11.0878 17.2002 10.6771 16.8002 10.5699L11.9711 9.27593Z" fill="#1C274C"/>
</svg>
