<svg width="24" height="24" viewBox="0 0 24 24" fill="none" xmlns="http://www.w3.org/2000/svg">
<path d="M6.82373 6.96143L6.28955 8.95654C6.00142 10.0318 5.76037 10.9294 5.62646 11.6782C5.48677 12.4596 5.43557 13.2134 5.61475 13.9819C5.86177 15.0413 6.41748 16.004 7.21143 16.7476C7.78744 17.2871 8.46586 17.6195 9.2124 17.8892C9.92243 18.1457 10.8122 18.3842 11.8765 18.6694L11.9009 18.6763L12.0083 18.7046C12.9863 18.9666 13.8133 19.1883 14.5093 19.3267C14.8517 19.3947 15.1889 19.449 15.5229 19.4771C15.4661 19.5373 15.4078 19.596 15.3472 19.6528C14.6159 20.3377 13.4879 20.6395 11.2329 21.2437C8.97788 21.8479 7.85027 22.1508 6.87451 21.9233C6.10424 21.7438 5.40452 21.3394 4.86377 20.7622C4.17885 20.0309 3.87622 18.903 3.27197 16.6479L2.75439 14.7163C2.1502 12.4614 1.84829 11.3336 2.07568 10.3579C2.25532 9.58746 2.6594 8.88699 3.23682 8.34619C3.91092 7.71487 4.92203 7.40937 6.84229 6.89209L6.82373 6.96143ZM11.8745 2.07568C12.8502 1.84817 13.978 2.1502 16.2329 2.75439C18.4879 3.35864 19.6159 3.66127 20.3472 4.34619C20.9244 4.88696 21.3287 5.5866 21.5083 6.35693C21.7358 7.33268 21.4338 8.46037 20.8296 10.7153L20.312 12.647C19.7078 14.9021 19.4051 16.0299 18.7202 16.7612C18.1795 17.3385 17.4798 17.7427 16.7095 17.9224C16.6133 17.9448 16.5156 17.9618 16.4155 17.9741C15.5005 18.087 14.3835 17.7882 12.3511 17.2437C10.096 16.6394 8.9681 16.3368 8.23682 15.6519C7.65954 15.1111 7.25531 14.4115 7.07568 13.6411C6.84817 12.6653 7.15017 11.5377 7.75439 9.28271L8.27197 7.35107C8.35883 7.02692 8.43971 6.72554 8.51611 6.4458C8.97118 4.77976 9.27735 3.86293 9.86377 3.23682C10.4045 2.65953 11.1042 2.25533 11.8745 2.07568ZM11.1938 12.1733C10.7938 12.0663 10.3831 12.3036 10.2759 12.7036C10.1687 13.1036 10.4061 13.5144 10.8062 13.6216L13.7036 14.3979C14.1037 14.5051 14.5154 14.2678 14.6226 13.8677C14.7295 13.4678 14.492 13.057 14.0923 12.9497L11.1938 12.1733ZM11.9712 9.27588C11.5711 9.16867 11.1594 9.40605 11.0522 9.80615C10.9453 10.2061 11.1827 10.6168 11.5825 10.7241L16.4126 12.0181C16.8127 12.1253 17.2234 11.8879 17.3306 11.4878C17.4376 11.0878 17.2003 10.677 16.8003 10.5698L11.9712 9.27588Z" fill="#48465C"/>
</svg>
