<svg width="24" height="24" viewBox="0 0 24 24" fill="none" xmlns="http://www.w3.org/2000/svg">
<path d="M12.0001 4.00024C16.9705 4.00031 21.0001 8.02972 21.0001 13.0002C21 17.9707 16.9705 22.0002 12.0001 22.0002C7.02956 22.0002 3.00017 17.9708 3.00009 13.0002C3.00009 8.02968 7.02951 4.00024 12.0001 4.00024ZM9.00009 9.25024C8.58587 9.25024 8.25009 9.58603 8.25009 10.0002C8.25017 10.4144 8.58592 10.7502 9.00009 10.7502H13.1895L8.46982 15.47C8.25532 15.6845 8.19064 16.0072 8.30673 16.2874C8.42284 16.5676 8.69678 16.7502 9.00009 16.7502H15.0001C15.4142 16.7502 15.75 16.4143 15.7501 16.0002C15.7501 15.5861 15.4142 15.2503 15.0001 15.2502H10.8106L15.5304 10.5305C15.7449 10.316 15.8086 9.99338 15.6925 9.71313C15.5764 9.43297 15.3033 9.25029 15.0001 9.25024H9.00009ZM7.10263 1.3645C7.45389 1.14497 7.9163 1.25154 8.13583 1.60278C8.35533 1.95399 8.24869 2.41642 7.89755 2.63599L3.89755 5.13599C3.54635 5.35548 3.08392 5.24882 2.86435 4.89771C2.64482 4.54645 2.75139 4.08404 3.10263 3.8645L7.10263 1.3645ZM15.8643 1.60278C16.0839 1.25162 16.5463 1.14499 16.8976 1.3645L20.8976 3.8645C21.2486 4.08408 21.3553 4.54652 21.1358 4.89771C20.9162 5.2489 20.4538 5.3555 20.1026 5.13599L16.1026 2.63599C15.7513 2.41646 15.6447 1.95403 15.8643 1.60278Z" fill="#1C274C"/>
</svg>
