<svg width="24" height="24" viewBox="0 0 24 24" fill="none" xmlns="http://www.w3.org/2000/svg">
<path d="M12.0002 4.00012C16.9707 4.00019 21.0002 8.0296 21.0002 13.0001C21.0002 17.9706 16.9706 22.0001 12.0002 22.0001C7.02971 22.0001 3.00032 17.9707 3.00024 13.0001C3.00024 8.02956 7.02966 4.00012 12.0002 4.00012ZM9.00024 9.25012C8.58602 9.25012 8.25024 9.58591 8.25024 10.0001C8.25032 10.4143 8.58607 10.7501 9.00024 10.7501H13.1897L8.46997 15.4698C8.25547 15.6843 8.19079 16.007 8.30688 16.2872C8.42299 16.5675 8.69693 16.7501 9.00024 16.7501H15.0002C15.4143 16.7501 15.7502 16.4142 15.7502 16.0001C15.7502 15.586 15.4144 15.2502 15.0002 15.2501H10.8108L15.5305 10.5304C15.745 10.3159 15.8087 9.99326 15.6926 9.71301C15.5765 9.43285 15.3035 9.25017 15.0002 9.25012H9.00024ZM7.10278 1.36438C7.45403 1.14486 7.91644 1.25145 8.13599 1.60266C8.3555 1.95389 8.24889 2.41631 7.89771 2.63586L3.89771 5.13586C3.54649 5.35537 3.08407 5.24872 2.8645 4.89758C2.64499 4.54635 2.7516 4.08393 3.10278 3.86438L7.10278 1.36438ZM15.8645 1.60266C16.084 1.25146 16.5464 1.14486 16.8977 1.36438L20.8977 3.86438C21.2488 4.08394 21.3555 4.54637 21.136 4.89758C20.9164 5.24874 20.4539 5.35537 20.1028 5.13586L16.1028 2.63586C15.7515 2.41632 15.6449 1.95389 15.8645 1.60266Z" fill="#48465C"/>
</svg>
