<svg width="24" height="24" viewBox="0 0 24 24" fill="none" xmlns="http://www.w3.org/2000/svg">
<path d="M12 2C16.714 2 19.0708 2.00037 20.5352 3.46484C21.9996 4.9293 22 7.28597 22 12C22 16.714 21.9997 19.0708 20.5352 20.5352C19.0708 21.9997 16.714 22 12 22C7.28597 22 4.9293 21.9996 3.46484 20.5352C2.00037 19.0708 2 16.714 2 12C2 7.28595 2.00037 4.9293 3.46484 3.46484C4.9293 2.00037 7.28595 2 12 2ZM14 7.25C13.5858 7.25 13.25 7.58579 13.25 8V16C13.25 16.4142 13.5858 16.75 14 16.75C14.4142 16.75 14.75 16.4142 14.75 16V12.75H15.084L17.3643 16.3975C17.5838 16.7487 18.0462 16.8552 18.3975 16.6357C18.7487 16.4162 18.8552 15.9538 18.6357 15.6025L16.7822 12.6367C17.9197 12.2997 18.75 11.2469 18.75 10C18.75 8.48122 17.5188 7.25 16 7.25H14ZM8.5 7.25C8.17196 7.25 7.88203 7.46327 7.78418 7.77637L5.28418 15.7764C5.16066 16.1718 5.38103 16.5922 5.77637 16.7158C6.17171 16.8393 6.59228 16.619 6.71582 16.2236L7.42676 13.9502H9.57324L10.2842 16.2236C10.4078 16.619 10.8282 16.8393 11.2236 16.7158C11.619 16.5922 11.8393 16.1718 11.7158 15.7764L9.21582 7.77637C9.11797 7.46327 8.82804 7.25 8.5 7.25ZM9.10449 12.4502H7.89551L8.5 10.5146L9.10449 12.4502ZM16 8.75C16.6904 8.75 17.25 9.30964 17.25 10C17.25 10.6904 16.6904 11.25 16 11.25H14.75V8.75H16Z" fill="#48465C"/>
</svg>
