<svg width="24" height="24" viewBox="0 0 24 24" fill="none" xmlns="http://www.w3.org/2000/svg">
<path d="M12 3.25C17.3848 3.25 21.75 7.61522 21.75 13C21.75 18.3848 17.3848 22.75 12 22.75C6.61522 22.75 2.25 18.3848 2.25 13C2.25 7.61522 6.61522 3.25 12 3.25ZM12 4.75C7.44365 4.75 3.75 8.44365 3.75 13C3.75 17.5563 7.44365 21.25 12 21.25C16.5563 21.25 20.25 17.5563 20.25 13C20.25 8.44365 16.5563 4.75 12 4.75ZM9.52148 8.25C9.73576 8.24998 9.93332 8.25044 10.0986 8.26172C10.2762 8.27386 10.4716 8.30066 10.6699 8.38281C11.0987 8.56042 11.4396 8.90132 11.6172 9.33008C11.6993 9.52841 11.7262 9.72384 11.7383 9.90137C11.7496 10.0667 11.75 10.2642 11.75 10.4785V15.5215C11.75 15.7358 11.7496 15.9333 11.7383 16.0986C11.7262 16.2761 11.6993 16.4716 11.6172 16.6699C11.4396 17.0987 11.0987 17.4395 10.6699 17.6172C10.4716 17.6993 10.2762 17.7262 10.0986 17.7383C9.93332 17.7496 9.73576 17.75 9.52148 17.75H9.47852C9.26424 17.75 9.0667 17.7496 8.90137 17.7383C8.72385 17.7262 8.52841 17.6993 8.33008 17.6172C7.90132 17.4395 7.56043 17.0987 7.38281 16.6699C7.30066 16.4716 7.27385 16.2761 7.26172 16.0986C7.25044 15.9333 7.24999 15.7358 7.25 15.5215V10.4785C7.24999 10.2642 7.25044 10.0667 7.26172 9.90137C7.27385 9.72384 7.30066 9.52841 7.38281 9.33008C7.56043 8.90132 7.90132 8.56042 8.33008 8.38281C8.52841 8.30066 8.72385 8.27385 8.90137 8.26172C9.0667 8.25044 9.26425 8.24998 9.47852 8.25H9.52148ZM14.5586 8.23828C14.7727 8.23827 14.9694 8.23875 15.1348 8.25C15.3124 8.26212 15.5085 8.28887 15.707 8.37109C16.1357 8.54868 16.4757 8.88977 16.6533 9.31836C16.7356 9.5167 16.7633 9.71213 16.7754 9.88965C16.7867 10.055 16.7871 10.2525 16.7871 10.4668V15.5098C16.7871 15.7241 16.7867 15.9216 16.7754 16.0869C16.7633 16.2644 16.7356 16.4599 16.6533 16.6582C16.4757 17.0868 16.1357 17.4278 15.707 17.6055C15.5085 17.6877 15.3124 17.7145 15.1348 17.7266C14.9694 17.7378 14.7727 17.7383 14.5586 17.7383H14.5156C14.3013 17.7383 14.1039 17.7379 13.9385 17.7266C13.761 17.7145 13.5656 17.6876 13.3672 17.6055C12.9384 17.4278 12.5975 17.087 12.4199 16.6582C12.3377 16.4598 12.31 16.2644 12.2979 16.0869C12.2866 15.9216 12.287 15.7241 12.2871 15.5098V10.4668C12.287 10.2525 12.2866 10.055 12.2979 9.88965C12.31 9.71211 12.3377 9.51672 12.4199 9.31836C12.5975 8.88961 12.9384 8.5487 13.3672 8.37109C13.5656 8.28893 13.761 8.26213 13.9385 8.25C14.1039 8.23872 14.3013 8.23827 14.5156 8.23828H14.5586ZM9.00391 9.75781C8.93709 9.76237 8.90873 9.76864 8.90137 9.77051C8.84256 9.79579 8.79578 9.84255 8.77051 9.90137C8.76864 9.90872 8.76237 9.93707 8.75781 10.0039C8.75044 10.1119 8.75 10.2567 8.75 10.5V15.5C8.75 15.7432 8.75044 15.8881 8.75781 15.9961C8.76236 16.0628 8.76862 16.0912 8.77051 16.0986C8.79577 16.1574 8.84256 16.2042 8.90137 16.2295C8.90873 16.2313 8.93708 16.2376 9.00391 16.2422C9.11192 16.2496 9.25677 16.25 9.5 16.25C9.74323 16.25 9.88809 16.2496 9.99609 16.2422C10.0629 16.2376 10.0912 16.2313 10.0986 16.2295C10.1574 16.2042 10.2042 16.1574 10.2295 16.0986C10.2314 16.0912 10.2377 16.0628 10.2422 15.9961C10.2496 15.8881 10.25 15.7432 10.25 15.5V10.5C10.25 10.2567 10.2496 10.1119 10.2422 10.0039C10.2377 9.93709 10.2314 9.90874 10.2295 9.90137C10.2042 9.84255 10.1574 9.79579 10.0986 9.77051C10.0912 9.76863 10.0629 9.76237 9.99609 9.75781C9.88809 9.75044 9.74323 9.75 9.5 9.75C9.25677 9.75 9.11192 9.75044 9.00391 9.75781ZM14.041 9.74609C13.9745 9.75063 13.946 9.7569 13.9385 9.75879C13.8796 9.78406 13.8328 9.83085 13.8076 9.88965C13.8057 9.897 13.7995 9.92536 13.7949 9.99219C13.7876 10.1002 13.7871 10.245 13.7871 10.4883V15.4883C13.7871 15.7315 13.7876 15.8764 13.7949 15.9844C13.7995 16.0511 13.8057 16.0795 13.8076 16.0869C13.8328 16.1457 13.8796 16.1925 13.9385 16.2178C13.9459 16.2196 13.9744 16.2259 14.041 16.2305C14.149 16.2379 14.2939 16.2383 14.5371 16.2383C14.7802 16.2383 14.9252 16.2379 15.0332 16.2305C15.0999 16.2259 15.1283 16.2196 15.1357 16.2178C15.1945 16.1925 15.2413 16.1457 15.2666 16.0869C15.2684 16.0794 15.2747 16.051 15.2793 15.9844C15.2867 15.8764 15.2871 15.7314 15.2871 15.4883V10.4883C15.2871 10.245 15.2867 10.1002 15.2793 9.99219C15.2747 9.92544 15.2684 9.89704 15.2666 9.88965C15.2413 9.83085 15.1945 9.78407 15.1357 9.75879C15.1283 9.75692 15.0999 9.75065 15.0332 9.74609C14.9252 9.73872 14.7802 9.73828 14.5371 9.73828C14.2939 9.73828 14.149 9.73873 14.041 9.74609ZM14 1.25C14.4142 1.25 14.75 1.58579 14.75 2C14.75 2.41421 14.4142 2.75 14 2.75H10C9.58579 2.75 9.25 2.41421 9.25 2C9.25 1.58579 9.58579 1.25 10 1.25H14Z" fill="#1C274C"/>
</svg>
