<svg width="24" height="24" viewBox="0 0 24 24" fill="none" xmlns="http://www.w3.org/2000/svg">
<path d="M9.2644 17.3525C9.34578 16.9465 9.74116 16.6834 10.1472 16.7646C10.5534 16.8459 10.8163 17.2413 10.7351 17.6475C10.3774 19.4351 9.40086 21.0399 7.97729 22.1787L7.46851 22.5859C7.14517 22.8444 6.67356 22.7919 6.41479 22.4688C6.15603 22.1453 6.20853 21.6729 6.53198 21.4141L7.04077 21.0068C8.1888 20.0883 8.97607 18.7942 9.2644 17.3525ZM11.4998 9.25C12.0539 9.25 12.6542 9.31112 13.1941 9.38867C14.7155 9.60725 15.8674 10.7303 16.3279 12.1113C16.4322 12.4241 16.7487 12.6147 17.074 12.5605L18.8767 12.2598C19.2853 12.1917 19.6719 12.4684 19.74 12.877C19.8079 13.2853 19.5321 13.672 19.1238 13.7402L17.3201 14.04C16.2668 14.2155 15.2427 13.5989 14.905 12.5859C14.5977 11.6641 13.8616 11.0006 12.9802 10.874C12.7126 10.8355 12.4401 10.8032 12.1755 10.7812L11.9041 13.4922C11.8202 14.3319 11.8112 14.5539 11.8679 14.752C11.9246 14.9499 12.05 15.133 12.5652 15.8008L16.9939 21.542C17.247 21.8699 17.1862 22.3407 16.8582 22.5938C16.5303 22.8466 16.0593 22.7859 15.8064 22.458L11.3777 16.7168C11.3538 16.6859 11.3297 16.6551 11.3064 16.625C10.8958 16.0939 10.5713 15.6732 10.4255 15.1641C10.28 14.6549 10.3327 14.1266 10.4001 13.459C10.4039 13.421 10.408 13.3817 10.4119 13.3428L10.6658 10.8027C8.99262 11.0766 7.74976 12.6493 7.74976 14.5C7.74976 14.9142 7.41397 15.25 6.99976 15.25C6.58568 15.2498 6.24976 14.9141 6.24976 14.5C6.24976 11.8593 8.16407 9.41745 10.9294 9.26758C11.1291 9.25676 11.3216 9.25001 11.4998 9.25ZM12.4998 1.25C14.2948 1.25 15.7498 2.70507 15.7498 4.5C15.7498 6.29493 14.2948 7.75 12.4998 7.75C10.705 7.74985 9.24976 6.29484 9.24976 4.5C9.24976 2.70516 10.705 1.25015 12.4998 1.25ZM12.4998 2.75C11.5334 2.75015 10.7498 3.53359 10.7498 4.5C10.7498 5.46641 11.5334 6.24985 12.4998 6.25C13.4663 6.25 14.2498 5.4665 14.2498 4.5C14.2498 3.5335 13.4663 2.75 12.4998 2.75Z" fill="#1C274C"/>
</svg>
