<svg width="24" height="24" viewBox="0 0 24 24" fill="none" xmlns="http://www.w3.org/2000/svg">
<path d="M12 2C17.5228 2 22 6.47715 22 12V19.2061C21.9998 20.4897 20.6491 21.3241 19.501 20.75C18.5729 20.286 17.4668 20.3551 16.6035 20.9307C15.6323 21.5779 14.3677 21.5779 13.3965 20.9307L13.0439 20.6953C12.412 20.274 11.588 20.274 10.9561 20.6953L10.6035 20.9307C9.63234 21.5779 8.36761 21.5779 7.39648 20.9307C6.53315 20.3551 5.42708 20.286 4.49902 20.75C3.35088 21.3241 2.00018 20.4897 2 19.2061V12C2 6.47715 6.47715 2 12 2ZM9 9C8.44772 9 8 9.67157 8 10.5C8 11.3284 8.44772 12 9 12C9.55228 12 10 11.3284 10 10.5C10 9.67157 9.55228 9 9 9ZM15 9C14.4477 9 14 9.67157 14 10.5C14 11.3284 14.4477 12 15 12C15.5523 12 16 11.3284 16 10.5C16 9.67157 15.5523 9 15 9Z" fill="#48465C"/>
</svg>
