<svg width="24" height="24" viewBox="0 0 24 24" fill="none" xmlns="http://www.w3.org/2000/svg">
<path d="M12 2C12.8114 2 13.5949 2.26825 15.1621 2.80469L15.7354 3.00098C18.7409 4.02978 20.2441 4.54434 20.6221 5.08203C20.9996 5.6199 21 7.21936 21 10.417V11.9912C21 17.6291 16.7612 20.3655 14.1016 21.5273C13.3802 21.8424 13.0193 22 12 22C10.9807 22 10.6199 21.8424 9.89844 21.5273C7.23883 20.3655 3 17.6291 3 11.9912V10.417C3 7.21936 3.00041 5.6199 3.37793 5.08203C3.75595 4.54434 5.25908 4.0298 8.26465 3.00098L8.83789 2.80469C10.4051 2.26824 11.1886 2 12 2ZM12 6.25C11.245 6.25 10.4974 6.39861 9.7998 6.6875C9.10218 6.97647 8.4685 7.40063 7.93457 7.93457C7.40063 8.4685 6.97647 9.10218 6.6875 9.7998C6.39861 10.4974 6.25 11.245 6.25 12C6.25 12.755 6.39861 13.5027 6.6875 14.2002C6.97647 14.8979 7.40064 15.5314 7.93457 16.0654C8.4685 16.5993 9.10218 17.0235 9.7998 17.3125C10.4974 17.6014 11.245 17.75 12 17.75C12.755 17.75 13.5027 17.6014 14.2002 17.3125C14.8979 17.0235 15.5314 16.5993 16.0654 16.0654C16.5993 15.5314 17.0235 14.8979 17.3125 14.2002C17.6014 13.5027 17.75 12.755 17.75 12C17.75 11.245 17.6014 10.4974 17.3125 9.7998C17.0235 9.10218 16.5993 8.4685 16.0654 7.93457C15.5314 7.40064 14.8979 6.97647 14.2002 6.6875C13.5027 6.39861 12.755 6.25 12 6.25ZM13.2256 12.75C13.2024 13.1079 13.1627 13.4575 13.1074 13.791C13.0139 14.3558 12.8793 14.8528 12.7178 15.2568C12.5538 15.6667 12.3783 15.9405 12.2256 16.0986C12.1518 16.1749 12.094 16.2138 12.0566 16.2324C12.022 16.2497 12.0044 16.25 12 16.25C11.9956 16.25 11.9781 16.2497 11.9434 16.2324C11.906 16.2138 11.8482 16.1749 11.7744 16.0986C11.6217 15.9405 11.4462 15.6667 11.2822 15.2568C11.1207 14.8528 10.9861 14.3558 10.8926 13.791C10.8373 13.4575 10.7976 13.1079 10.7744 12.75H13.2256ZM9.27148 12.75C9.29657 13.189 9.34334 13.6211 9.41211 14.0361C9.50865 14.6188 9.64773 15.1667 9.82715 15.6523C9.52461 15.4724 9.24515 15.2549 8.99512 15.0049C8.60047 14.6103 8.28682 14.1416 8.07324 13.626C7.95623 13.3434 7.87013 13.0496 7.81641 12.75H9.27148ZM16.1836 12.75C16.1299 13.0496 16.0438 13.3434 15.9268 13.626C15.7132 14.1416 15.3996 14.6103 15.0049 15.0049C14.7549 15.2549 14.4754 15.4724 14.1729 15.6523C14.3523 15.1667 14.4913 14.6188 14.5879 14.0361C14.6566 13.6211 14.7034 13.189 14.7285 12.75H16.1836ZM9.82715 8.34766C9.64771 8.83332 9.50867 9.38119 9.41211 9.96387C9.34336 10.3788 9.29658 10.8111 9.27148 11.25H7.81641C7.87015 10.9504 7.9562 10.6566 8.07324 10.374C8.28682 9.85838 8.60047 9.38976 8.99512 8.99512C9.24514 8.74511 9.52463 8.52761 9.82715 8.34766ZM12.0566 7.76758C12.094 7.78619 12.1518 7.82509 12.2256 7.90137C12.3783 8.0595 12.5538 8.33324 12.7178 8.74316C12.8793 9.14721 13.0139 9.64422 13.1074 10.209C13.1627 10.5425 13.2024 10.8921 13.2256 11.25H10.7744C10.7976 10.8921 10.8373 10.5425 10.8926 10.209C10.9861 9.64422 11.1207 9.14721 11.2822 8.74316C11.4462 8.33323 11.6217 8.0595 11.7744 7.90137C11.8482 7.82509 11.906 7.78619 11.9434 7.76758C11.9781 7.7503 11.9956 7.75 12 7.75C12.0044 7.75 12.022 7.75031 12.0566 7.76758ZM14.1729 8.34766C14.4754 8.52761 14.7549 8.74511 15.0049 8.99512C15.3996 9.38977 15.7132 9.85838 15.9268 10.374C16.0438 10.6566 16.1299 10.9504 16.1836 11.25H14.7285C14.7034 10.8111 14.6566 10.3788 14.5879 9.96387C14.4913 9.3812 14.3523 8.83332 14.1729 8.34766Z" fill="#1C274C"/>
</svg>
