<svg width="24" height="24" viewBox="0 0 24 24" fill="none" xmlns="http://www.w3.org/2000/svg">
<path d="M12.4307 4.51178C12.7002 4.1975 13.1739 4.16123 13.4883 4.43073C13.8026 4.70032 13.8388 5.17392 13.5693 5.48834L7.9873 12.0001L13.5693 18.5118C13.8388 18.8262 13.8025 19.2998 13.4883 19.5694C13.1738 19.8389 12.7002 19.8027 12.4307 19.4883L6.43066 12.4883C6.18991 12.2074 6.18991 11.7927 6.43066 11.5118L12.4307 4.51178ZM16.4307 4.51178C16.7002 4.19749 17.1739 4.16122 17.4883 4.43073C17.8025 4.70034 17.8388 5.17394 17.5693 5.48834L11.9873 12.0001L17.5693 18.5118C17.8388 18.8262 17.8025 19.2998 17.4883 19.5694C17.1739 19.8388 16.7002 19.8026 16.4307 19.4883L10.4307 12.4883C10.1899 12.2074 10.1899 11.7927 10.4307 11.5118L16.4307 4.51178Z" fill="#48465C"/>
</svg>
