<svg width="24" height="24" viewBox="0 0 24 24" fill="none" xmlns="http://www.w3.org/2000/svg">
<path d="M5.12003 9.46484C5.41522 9.17495 5.89022 9.17891 6.18057 9.47363C6.47096 9.76891 6.46696 10.2447 6.17178 10.5352L5.26651 11.4248C3.20933 13.448 3.25284 16.6999 5.35049 18.7061C7.48741 20.7495 10.9885 20.77 13.1161 18.7354L13.4814 18.3857C13.7806 18.0998 14.2556 18.1103 14.5419 18.4092C14.8281 18.7084 14.8175 19.1834 14.5185 19.4697L14.1532 19.8193C11.4365 22.4174 7.02098 22.3793 4.31339 19.79C1.61511 17.2094 1.54338 12.9827 4.21475 10.3555L5.12003 9.46484ZM9.8544 4.1582C12.5751 1.61472 16.9667 1.61478 19.6874 4.1582C22.4368 6.72875 22.4367 10.9187 19.6874 13.4893L17.4853 15.5479C17.1827 15.8306 16.7085 15.8142 16.4257 15.5117C16.1433 15.2092 16.1586 14.7349 16.4608 14.4521L18.663 12.3936C20.7782 10.4159 20.7783 7.23161 18.663 5.25391C16.5188 3.24953 13.023 3.24947 10.8788 5.25391L10.5126 5.59668C10.21 5.87957 9.73495 5.86311 9.45206 5.56055C9.16972 5.25805 9.18508 4.78375 9.48721 4.50098L9.8544 4.1582ZM2.82901 5.75781C3.01091 5.38605 3.45992 5.2315 3.83194 5.41309L9.37979 8.12109C9.75155 8.30284 9.90576 8.75203 9.72452 9.12402C9.5428 9.49604 9.09371 9.65023 8.72159 9.46875L3.17374 6.76074C2.80162 6.579 2.64734 6.13 2.82901 5.75781ZM6.30069 2.30664C6.6832 2.14865 7.12272 2.33054 7.28116 2.71289L8.19327 4.91797C8.35159 5.30054 8.16942 5.73988 7.78702 5.89844C7.40441 6.05663 6.96595 5.87471 6.80753 5.49219L5.89444 3.28711C5.7362 2.90447 5.91811 2.46506 6.30069 2.30664Z" fill="#1C274C"/>
</svg>
