<svg width="24" height="24" viewBox="0 0 24 24" fill="none" xmlns="http://www.w3.org/2000/svg">
<path d="M12 2C13.0226 2 13.9343 1.9997 14.75 2.01465C14.7538 2.58548 14.9737 3.15528 15.4092 3.59082L16.5684 4.75H14C11.3835 4.75 9.74828 6.04742 9.08594 6.71289L8.71289 7.08594C8.0474 7.74831 6.75 9.38361 6.75 12V15C6.75003 16.2426 7.75738 17.25 9 17.25C10.2426 17.25 11.25 16.2426 11.25 15V12C11.25 10.9798 11.7383 10.424 11.8877 10.2754L12.2754 9.8877C12.4241 9.73831 12.9798 9.25 14 9.25H16.5684L15.4092 10.4092C14.5305 11.2879 14.5305 12.7121 15.4092 13.5908C16.2879 14.4695 17.7121 14.4695 18.5908 13.5908L21.9961 10.1855C21.9999 10.7482 22 11.352 22 12C22 16.714 21.9997 19.0708 20.5352 20.5352C19.0708 21.9996 16.714 22 12 22C7.286 22 4.92931 21.9996 3.46484 20.5352C2.00038 19.0708 2 16.714 2 12C2 7.28598 2.0004 4.92931 3.46484 3.46484C4.9293 2.00037 7.28595 2 12 2ZM16.4697 1.46973C16.7626 1.17684 17.2374 1.17684 17.5303 1.46973L22.5303 6.46973C22.8231 6.76262 22.8232 7.2374 22.5303 7.53027L17.5303 12.5303C17.2374 12.8231 16.7626 12.8231 16.4697 12.5303C16.1768 12.2374 16.1769 11.7626 16.4697 11.4697L20.1895 7.75H14C12.4486 7.75 11.5328 8.50676 11.2119 8.8291L11.0215 9.02148L10.8291 9.21191C10.5068 9.53272 9.75 10.4486 9.75 12V15C9.74997 15.4142 9.41419 15.75 9 15.75C8.58581 15.75 8.25003 15.4142 8.25 15V12C8.25 9.91621 9.27726 8.64026 9.77148 8.14844L9.96094 7.95996L10.1484 7.77148C10.6402 7.27726 11.9162 6.25 14 6.25H20.1895L16.4697 2.53027C16.1768 2.2374 16.1769 1.76262 16.4697 1.46973Z" fill="#1C274C"/>
</svg>
