<svg width="24" height="24" viewBox="0 0 24 24" fill="none" xmlns="http://www.w3.org/2000/svg">
<path d="M12 12.25C14.0393 12.25 15.9229 12.7209 17.3223 13.5205C18.7002 14.308 19.75 15.5102 19.75 17C19.75 18.4898 18.7002 19.692 17.3223 20.4795C15.9229 21.2791 14.0393 21.75 12 21.75C9.96067 21.75 8.0771 21.2791 6.67773 20.4795C5.29976 19.692 4.25 18.4898 4.25 17C4.25 15.5102 5.29976 14.308 6.67773 13.5205C8.0771 12.7209 9.96067 12.25 12 12.25ZM12 13.75C10.1733 13.75 8.55601 14.1751 7.42188 14.8232C6.26692 15.4834 5.75 16.2808 5.75 17C5.75 17.7192 6.26692 18.5166 7.42188 19.1768C8.55601 19.8249 10.1733 20.25 12 20.25C13.8266 20.25 15.4431 19.8248 16.5771 19.1768C17.7325 18.5166 18.25 17.7193 18.25 17C18.25 16.2807 17.7325 15.4834 16.5771 14.8232C15.4431 14.1752 13.8266 13.75 12 13.75ZM12 1.25C14.6234 1.25 16.75 3.37665 16.75 6C16.75 8.62335 14.6234 10.75 12 10.75C9.37665 10.75 7.25 8.62335 7.25 6C7.25 3.37665 9.37665 1.25 12 1.25ZM12 2.75C10.2051 2.75 8.75 4.20507 8.75 6C8.75 7.79493 10.2051 9.25 12 9.25C13.7949 9.25 15.25 7.79493 15.25 6C15.25 4.20507 13.7949 2.75 12 2.75Z" fill="#1C274C"/>
</svg>
