<svg width="24" height="24" viewBox="0 0 24 24" fill="none" xmlns="http://www.w3.org/2000/svg">
<path d="M11.4844 3.55908C12.3104 3.15782 13.1242 2.93515 13.9424 3.21436C14.2142 3.30711 14.476 3.43987 14.7109 3.60498C15.417 4.10113 15.716 4.88535 15.8779 5.78467C16.0371 6.66902 16.0914 7.84138 16.1592 9.30127L16.1621 9.35889C16.2139 10.4735 16.25 11.4465 16.25 11.9985C16.25 12.5505 16.2139 13.5242 16.1621 14.6392L16.1592 14.6968C16.0914 16.1564 16.0371 17.3281 15.8779 18.2124C15.716 19.1117 15.4169 19.8959 14.7109 20.3921C14.476 20.5573 14.2143 20.6909 13.9424 20.7837C13.1242 21.0629 12.3104 20.8393 11.4844 20.438C10.6709 20.0428 9.68374 19.392 8.45312 18.5806L8.18652 18.4048C7.73861 18.1094 7.58415 18.0112 7.4248 17.9409C7.25433 17.8657 7.07533 17.8118 6.8916 17.7808C6.71984 17.7518 6.53652 17.7485 6 17.7485H5.83887C4.62217 17.7492 3.77693 17.7495 3.02539 17.4019C2.33059 17.0805 1.66098 16.4518 1.29785 15.7778C0.905285 15.0492 0.859442 14.2871 0.793945 13.2036C0.791347 13.1607 0.788815 13.1168 0.786133 13.0728C0.763694 12.7045 0.75 12.34 0.75 11.9985C0.750011 11.6572 0.763712 11.2933 0.786133 10.9253C0.788815 10.8813 0.791347 10.8373 0.793945 10.7944C0.859444 9.71098 0.905348 8.94883 1.29785 8.22021C1.66098 7.54625 2.33059 6.91667 3.02539 6.59521C3.77686 6.2477 4.62231 6.2479 5.83887 6.24854C5.89181 6.24857 5.94564 6.24854 6 6.24854C6.53652 6.24854 6.71984 6.2463 6.8916 6.21729C7.07531 6.18624 7.25435 6.13234 7.4248 6.05713C7.58414 5.9868 7.73868 5.88855 8.18652 5.59326L8.45312 5.41748C9.68388 4.60597 10.6708 3.9543 11.4844 3.55908ZM13.458 4.63428C13.2089 4.54925 12.8527 4.56284 12.1406 4.90869C11.4265 5.25563 10.5211 5.85039 9.23145 6.70068L9.01172 6.84521C8.99523 6.85609 8.97895 6.86685 8.96289 6.87744C8.58294 7.12807 8.31957 7.30187 8.03125 7.4292C7.74689 7.55469 7.4471 7.64503 7.14062 7.69678C6.82988 7.7492 6.51459 7.74864 6.05957 7.74854H6C4.55699 7.74854 4.06946 7.76508 3.65527 7.95654C3.25492 8.14177 2.82838 8.54378 2.61914 8.93213C2.40097 9.33717 2.36024 9.75218 2.2832 11.0161C2.26206 11.363 2.25001 11.6953 2.25 11.9985C2.25 12.3017 2.26205 12.635 2.2832 12.9819C2.36024 14.2459 2.4009 14.6609 2.61914 15.0659C2.82838 15.4543 3.25492 15.8553 3.65527 16.0405C4.06953 16.2321 4.55666 16.2485 6 16.2485C6.01996 16.2485 6.04013 16.2486 6.05957 16.2485C6.51461 16.2485 6.82987 16.2489 7.14062 16.3013C7.4471 16.3531 7.74689 16.4424 8.03125 16.5679C8.31965 16.6952 8.58289 16.869 8.96289 17.1196C8.97906 17.1303 8.99511 17.1419 9.01172 17.1528L9.23145 17.2964C10.5212 18.1469 11.4264 18.7424 12.1406 19.0894C12.8526 19.4352 13.209 19.4488 13.458 19.3638C13.5953 19.3169 13.7299 19.249 13.8486 19.1655C14.0652 19.0132 14.2625 18.7182 14.4014 17.9468C14.5408 17.172 14.592 16.1003 14.6631 14.5698C14.7152 13.4503 14.75 12.5102 14.75 11.9985C14.75 11.4866 14.7152 10.5474 14.6631 9.42822C14.592 7.89754 14.5409 6.82515 14.4014 6.05029C14.2625 5.27935 14.0652 4.98474 13.8486 4.83252C13.7299 4.74911 13.5953 4.68115 13.458 4.63428ZM19.5811 5.37646C19.8962 5.16387 20.3276 5.22073 20.5762 5.51904L20.5771 5.52002L20.5781 5.52197L20.582 5.52588L20.5889 5.53467C20.5946 5.54177 20.602 5.55122 20.6104 5.56201C20.627 5.58355 20.6487 5.61254 20.6748 5.64893C20.727 5.72205 20.7971 5.82567 20.8779 5.96045C21.0398 6.23026 21.2465 6.6253 21.4502 7.15479C21.8584 8.21616 22.25 9.80791 22.25 11.9995C22.25 14.1907 21.8584 15.7819 21.4502 16.8433C21.2464 17.3731 21.0398 17.7687 20.8779 18.0386C20.7971 18.1732 20.727 18.2761 20.6748 18.3491C20.6486 18.3857 20.6271 18.4154 20.6104 18.437C20.6055 18.4432 20.6007 18.4485 20.5967 18.4536C20.594 18.457 20.5912 18.4606 20.5889 18.4634L20.582 18.4731L20.5781 18.4761L20.5771 18.478C20.5764 18.4775 20.5554 18.4623 20 17.9995L20.5762 18.479C20.311 18.7972 19.8377 18.8409 19.5195 18.5757C19.2029 18.3119 19.1593 17.8421 19.4199 17.5239L19.4297 16.7974L19.4238 17.519C19.4292 17.5121 19.4395 17.4984 19.4541 17.478C19.4838 17.4363 19.531 17.3656 19.5908 17.2661C19.7101 17.0673 19.8787 16.7503 20.0498 16.3052C20.3916 15.4166 20.75 14.0077 20.75 11.9995C20.75 9.99104 20.3916 8.5815 20.0498 7.69287C19.8787 7.24791 19.7101 6.9308 19.5908 6.73193C19.5819 6.71701 19.5719 6.70354 19.5635 6.68994L19.5811 5.37646ZM19.5635 6.68994L19.4297 16.7974L19.5098 6.60693C19.5258 6.6313 19.5441 6.65864 19.5635 6.68994ZM17.6357 8.34326C17.9978 8.14215 18.4542 8.27318 18.6553 8.63525L18.6572 8.63721L18.6592 8.64111L18.6631 8.64795L18.6719 8.6665C18.679 8.68049 18.6881 8.69794 18.6982 8.71924C18.7187 8.76227 18.745 8.82051 18.7744 8.89404C18.8332 9.04113 18.906 9.24987 18.9766 9.5249C19.1179 10.0758 19.25 10.8894 19.25 11.9995C19.25 13.1094 19.1178 13.9223 18.9766 14.4731C18.906 14.7482 18.8332 14.9569 18.7744 15.104C18.745 15.1775 18.7187 15.2358 18.6982 15.2788C18.6881 15.3003 18.6791 15.3185 18.6719 15.3325L18.6592 15.3579L18.6572 15.3608L18.6562 15.3618C18.6541 15.3608 18.6184 15.3425 18.0273 15.0142L18.6553 15.3638C18.454 15.7255 17.9977 15.8558 17.6357 15.6548C17.2768 15.4553 17.1451 15.0046 17.3389 14.644L17.3447 14.6343C17.3516 14.6199 17.3644 14.5909 17.3818 14.5474C17.4167 14.4602 17.469 14.3124 17.5234 14.1001C17.6321 13.676 17.75 12.989 17.75 11.9995C17.75 11.0096 17.6321 10.322 17.5234 9.89795C17.469 9.68567 17.4167 9.53789 17.3818 9.45068C17.3646 9.40773 17.3517 9.37926 17.3447 9.36475L17.3389 9.354C17.1453 8.99347 17.2768 8.54266 17.6357 8.34326ZM19.5098 6.60693C19.4865 6.57148 19.4691 6.542 19.4541 6.521C19.4393 6.50023 19.4291 6.48587 19.4238 6.479C19.4225 6.47722 19.4204 6.47573 19.4199 6.4751C19.1591 6.15708 19.2032 5.6873 19.5195 5.42334L19.5098 6.60693Z" fill="#48465C"/>
</svg>
