<svg width="24" height="24" viewBox="0 0 24 24" fill="none" xmlns="http://www.w3.org/2000/svg">
<path d="M11.2629 1.41821C11.8981 1.09328 12.5338 1.29349 13.054 1.55884C13.5647 1.81943 14.1803 2.25682 14.9094 2.77466L16.7424 4.07642C17.2827 4.45997 17.7547 4.79455 18.0842 5.10962C18.435 5.4451 18.7502 5.87438 18.7502 6.45923C18.7502 7.04408 18.435 7.47336 18.0842 7.80884C17.7547 8.12392 17.2827 8.45848 16.7424 8.84204L12.301 11.9963L12.3079 12.0012L12.302 12.0051L16.7424 15.1584C17.2827 15.542 17.7547 15.8774 18.0842 16.1926C18.4349 16.5279 18.7501 16.9568 18.7502 17.5413C18.7502 18.1261 18.435 18.5554 18.0842 18.8909C17.7547 19.206 17.2827 19.5414 16.7424 19.925L14.9094 21.2268C14.1803 21.7447 13.5647 22.1821 13.054 22.4426C12.5338 22.7079 11.898 22.9072 11.2629 22.5823C10.6263 22.2564 10.4187 21.6239 10.3333 21.0471C10.2495 20.4816 10.2502 19.7279 10.2502 18.8372V13.4417L6.42993 16.1155C6.09064 16.3528 5.62351 16.2702 5.38599 15.9309C5.14855 15.5918 5.23062 15.1247 5.56958 14.887L9.69263 12.0012L5.56958 9.11548C5.23041 8.87789 5.14849 8.40983 5.38599 8.07056C5.62361 7.73154 6.09072 7.64951 6.42993 7.88696L10.2502 10.5608V5.16333C10.2502 4.2728 10.2495 3.51976 10.3333 2.95435C10.4187 2.37745 10.626 1.74411 11.2629 1.41821Z" fill="#48465C"/>
</svg>
