<svg width="24" height="24" viewBox="0 0 24 24" fill="none" xmlns="http://www.w3.org/2000/svg">
<path d="M12 2C16.714 2 19.0708 2.00037 20.5352 3.46484C21.9996 4.9293 22 7.28597 22 12C22 16.714 21.9997 19.0708 20.5352 20.5352C19.0708 21.9997 16.714 22 12 22C7.28597 22 4.9293 21.9996 3.46484 20.5352C2.00037 19.0708 2 16.714 2 12C2 7.28595 2.00037 4.9293 3.46484 3.46484C4.9293 2.00037 7.28595 2 12 2ZM10 13.25C8.48122 13.25 7.25 14.4812 7.25 16C7.25 17.5188 8.48122 18.75 10 18.75C11.5188 18.75 12.75 17.5188 12.75 16C12.75 14.4812 11.5188 13.25 10 13.25ZM10 14.75C10.6904 14.75 11.25 15.3096 11.25 16C11.25 16.6904 10.6904 17.25 10 17.25C9.30964 17.25 8.75 16.6904 8.75 16C8.75 15.3096 9.30964 14.75 10 14.75ZM5 15.25C4.58579 15.25 4.25 15.5858 4.25 16C4.25 16.4142 4.58579 16.75 5 16.75H6C6.41421 16.75 6.75 16.4142 6.75 16C6.75 15.5858 6.41421 15.25 6 15.25H5ZM14 15.25C13.5858 15.25 13.25 15.5858 13.25 16C13.25 16.4142 13.5858 16.75 14 16.75H19C19.4142 16.75 19.75 16.4142 19.75 16C19.75 15.5858 19.4142 15.25 19 15.25H14ZM14 5.25C12.4812 5.25 11.25 6.48122 11.25 8C11.25 9.51878 12.4812 10.75 14 10.75C15.5188 10.75 16.75 9.51878 16.75 8C16.75 6.48122 15.5188 5.25 14 5.25ZM14 6.75C14.6904 6.75 15.25 7.30964 15.25 8C15.25 8.69036 14.6904 9.25 14 9.25C13.3096 9.25 12.75 8.69036 12.75 8C12.75 7.30964 13.3096 6.75 14 6.75ZM5 7.25C4.58579 7.25 4.25 7.58579 4.25 8C4.25 8.41421 4.58579 8.75 5 8.75H10C10.4142 8.75 10.75 8.41421 10.75 8C10.75 7.58579 10.4142 7.25 10 7.25H5ZM18 7.25C17.5858 7.25 17.25 7.58579 17.25 8C17.25 8.41421 17.5858 8.75 18 8.75H19C19.4142 8.75 19.75 8.41421 19.75 8C19.75 7.58579 19.4142 7.25 19 7.25H18Z" fill="#1C274C"/>
</svg>
