<svg width="24" height="24" viewBox="0 0 24 24" fill="none" xmlns="http://www.w3.org/2000/svg">
<path fill-rule="evenodd" clip-rule="evenodd" d="M5.78223 2.25684C8.73596 2.40198 11.098 4.76405 11.2432 7.71777C11.2501 7.85896 11.25 8.02105 11.25 8.28711V18.75C11.25 20.4069 9.90686 21.75 8.25 21.75C6.59315 21.75 5.25 20.4069 5.25 18.75V12.2998C5.24989 12.1618 5.138 12.0498 5 12.0498C2.92893 12.0498 1.25 10.3709 1.25 8.29981V6.16602C1.24999 6.01301 1.25036 5.9086 1.25488 5.81641C1.34952 3.89002 2.89002 2.34952 4.81641 2.25488C4.9086 2.25036 5.01301 2.24999 5.16602 2.25H5.21289C5.47896 2.24999 5.64104 2.2499 5.78223 2.25684ZM19.1836 2.25488C21.11 2.34952 22.6504 3.89002 22.7451 5.81641C22.7496 5.90858 22.75 6.01307 22.75 6.16602V8.29981C22.75 10.3709 21.0711 12.0498 19 12.0498C18.862 12.0498 18.7501 12.1618 18.75 12.2998V18.75C18.75 20.4069 17.4069 21.75 15.75 21.75C14.0931 21.75 12.75 20.4069 12.75 18.75V8.28711C12.75 8.02105 12.7499 7.85896 12.7568 7.71777C12.902 4.76407 15.2641 2.402 18.2178 2.25684C18.3589 2.2499 18.521 2.24999 18.7871 2.25H18.834C18.987 2.24999 19.0914 2.25036 19.1836 2.25488ZM6.75 18.75C6.75 19.5784 7.42157 20.25 8.25 20.25C9.07843 20.25 9.75 19.5784 9.75 18.75H6.75ZM14.25 18.75C14.25 19.5784 14.9216 20.25 15.75 20.25C16.5784 20.25 17.25 19.5784 17.25 18.75H14.25ZM4.88965 3.75293C3.73382 3.80971 2.80971 4.73382 2.75293 5.88965C2.75045 5.94017 2.75 6.00455 2.75 6.1875V8.29981C2.75 9.54245 3.75736 10.5498 5 10.5498C5.96643 10.5498 6.74989 11.3334 6.75 12.2998V17.25H9.75V8.3125C9.75 8.01343 9.75001 7.89059 9.74512 7.79102C9.63766 5.60812 7.89188 3.86235 5.70898 3.75488C5.60941 3.74999 5.48657 3.75 5.1875 3.75C5.00455 3.75 4.94017 3.75045 4.88965 3.75293ZM18.291 3.75488C16.1081 3.86237 14.3624 5.60814 14.2549 7.79102C14.25 7.89059 14.25 8.01343 14.25 8.3125V17.25H17.25V12.2998C17.2501 11.3334 18.0336 10.5498 19 10.5498C20.2426 10.5498 21.25 9.54245 21.25 8.29981V6.1875C21.25 6.00454 21.2496 5.94017 21.2471 5.88965C21.1903 4.73382 20.2662 3.80971 19.1104 3.75293C19.0599 3.75045 18.9955 3.75 18.8125 3.75C18.5134 3.75 18.3905 3.74999 18.291 3.75488ZM4.5 5.25C4.91422 5.25 5.25 5.58579 5.25 6V8.5C5.25 8.91422 4.91422 9.25 4.5 9.25C4.08579 9.25 3.75 8.91422 3.75 8.5V6C3.75 5.58579 4.08579 5.25 4.5 5.25ZM19.5 5.25C19.9142 5.25 20.25 5.58579 20.25 6V8.5C20.25 8.91422 19.9142 9.25 19.5 9.25C19.0858 9.25 18.75 8.91422 18.75 8.5V6C18.75 5.58579 19.0858 5.25 19.5 5.25Z" fill="#1C274C"/>
</svg>
