<svg width="24" height="24" viewBox="0 0 24 24" fill="none" xmlns="http://www.w3.org/2000/svg">
<path d="M16.322 1.62158C18.1495 1.13713 19.6774 1.04273 20.8669 1.85107C21.3712 2.19372 21.8066 2.62811 22.1492 3.13232C22.9576 4.32195 22.8632 5.8506 22.3787 7.67822C21.8904 9.52009 20.9332 11.914 19.6931 15.0142L19.6707 15.0679C19.6537 15.1105 19.6374 15.1532 19.6208 15.1948C19.133 16.4154 18.8187 17.1994 18.2712 17.8237C18.1321 17.9825 17.9827 18.1319 17.824 18.271C17.1997 18.8185 16.4156 19.1327 15.1951 19.6206C15.1535 19.6372 15.1107 19.6534 15.0681 19.6704L15.0144 19.6929C11.9142 20.933 9.52035 21.8901 7.67847 22.3784C5.85084 22.863 4.3222 22.9574 3.13257 22.1489C2.62836 21.8063 2.19396 21.3709 1.85132 20.8667C1.04297 19.6772 1.13737 18.1493 1.62183 16.3218C2.11013 14.4799 3.06728 12.0861 4.30737 8.98584L4.32886 8.93115C4.34587 8.88861 4.36303 8.84671 4.37964 8.80518C4.86745 7.5848 5.18102 6.80051 5.72827 6.17627C5.86751 6.01749 6.01773 5.86727 6.17651 5.72803C6.80075 5.18077 7.58505 4.86721 8.80542 4.37939C8.84696 4.3628 8.88885 4.34563 8.9314 4.32861L8.98608 4.30713C12.0863 3.06704 14.4801 2.10988 16.322 1.62158ZM20.0242 3.09131C19.4168 2.67862 18.4734 2.60218 16.7058 3.0708C14.9631 3.53282 12.6545 4.455 9.48901 5.72119C8.09811 6.27755 7.57212 6.49876 7.16479 6.85596C7.05531 6.95197 6.95221 7.05507 6.8562 7.16455C6.499 7.57188 6.2778 8.09786 5.72144 9.48877C4.45524 12.6543 3.53306 14.9628 3.07104 16.7056C2.60242 18.4732 2.67886 19.4165 3.09155 20.0239C3.32795 20.3718 3.62844 20.6723 3.97632 20.9087C4.58371 21.3211 5.52739 21.3968 7.29468 20.9282C9.03741 20.4662 11.3461 19.544 14.5115 18.2778C15.9023 17.7216 16.4274 17.5003 16.8347 17.1431C16.9442 17.0471 17.0473 16.944 17.1433 16.8345C17.5005 16.4272 17.7218 15.902 18.2781 14.5112C19.5443 11.3458 20.4664 9.03717 20.9285 7.29443C21.397 5.52715 21.3214 4.58347 20.9089 3.97607C20.6725 3.62819 20.3721 3.32771 20.0242 3.09131ZM11.9998 8.24951C14.0708 8.24951 15.7496 9.92858 15.7498 11.9995C15.7498 14.0706 14.0709 15.7495 11.9998 15.7495C9.92882 15.7493 8.24976 14.0705 8.24976 11.9995C8.24993 9.92868 9.92893 8.24968 11.9998 8.24951ZM11.9998 9.74951C10.7573 9.74968 9.74993 10.7571 9.74976 11.9995C9.74976 13.242 10.7572 14.2493 11.9998 14.2495C13.2424 14.2495 14.2498 13.2421 14.2498 11.9995C14.2496 10.757 13.2423 9.74951 11.9998 9.74951Z" fill="#48465C"/>
</svg>
