<svg width="24" height="24" viewBox="0 0 24 24" fill="none" xmlns="http://www.w3.org/2000/svg">
<path d="M16.3219 1.62158C18.1494 1.13713 19.6773 1.04273 20.8668 1.85107C21.3711 2.19372 21.8065 2.62811 22.149 3.13232C22.9575 4.32195 22.8631 5.8506 22.3785 7.67822C21.8902 9.52009 20.9331 11.914 19.693 15.0142L19.6705 15.0679C19.6535 15.1105 19.6373 15.1532 19.6207 15.1948C19.1328 16.4154 18.8186 17.1994 18.2711 17.8237C18.132 17.9825 17.9826 18.1319 17.8239 18.271C17.1996 18.8185 16.4155 19.1327 15.1949 19.6206C15.1533 19.6372 15.1106 19.6534 15.068 19.6704L15.0143 19.6929C11.9141 20.933 9.52022 21.8901 7.67834 22.3784C5.85072 22.863 4.32207 22.9574 3.13245 22.1489C2.62823 21.8063 2.19384 21.3709 1.8512 20.8667C1.04285 19.6772 1.13725 18.1493 1.6217 16.3218C2.11 14.4799 3.06716 12.0861 4.30725 8.98584L4.32874 8.93115C4.34575 8.88861 4.36291 8.84671 4.37952 8.80518C4.86732 7.5848 5.18089 6.80051 5.72815 6.17627C5.86739 6.01749 6.01761 5.86727 6.17639 5.72803C6.80063 5.18077 7.58493 4.86721 8.8053 4.37939C8.84683 4.3628 8.88872 4.34563 8.93127 4.32861L8.98596 4.30713C12.0862 3.06704 14.48 2.10988 16.3219 1.62158ZM20.024 3.09131C19.4166 2.67862 18.4733 2.60218 16.7057 3.0708C14.963 3.53282 12.6544 4.455 9.48889 5.72119C8.09799 6.27755 7.572 6.49876 7.16467 6.85596C7.05519 6.95197 6.95209 7.05507 6.85608 7.16455C6.49888 7.57188 6.27767 8.09786 5.72131 9.48877C4.45512 12.6543 3.53294 14.9628 3.07092 16.7056C2.6023 18.4732 2.67874 19.4165 3.09143 20.0239C3.32783 20.3718 3.62832 20.6723 3.9762 20.9087C4.58359 21.3211 5.52727 21.3968 7.29456 20.9282C9.03729 20.4662 11.3459 19.544 14.5114 18.2778C15.9021 17.7216 16.4273 17.5003 16.8346 17.1431C16.9441 17.0471 17.0472 16.944 17.1432 16.8345C17.5004 16.4272 17.7217 15.902 18.278 14.5112C19.5441 11.3458 20.4663 9.03717 20.9283 7.29443C21.3969 5.52715 21.3212 4.58347 20.9088 3.97607C20.6724 3.62819 20.3719 3.32771 20.024 3.09131ZM11.9996 8.24951C14.0706 8.24951 15.7495 9.92858 15.7496 11.9995C15.7496 14.0706 14.0707 15.7495 11.9996 15.7495C9.9287 15.7493 8.24963 14.0705 8.24963 11.9995C8.2498 9.92868 9.9288 8.24968 11.9996 8.24951ZM11.9996 9.74951C10.7572 9.74968 9.7498 10.7571 9.74963 11.9995C9.74963 13.242 10.7571 14.2493 11.9996 14.2495C13.2422 14.2495 14.2496 13.2421 14.2496 11.9995C14.2495 10.757 13.2421 9.74951 11.9996 9.74951Z" fill="#1C274C"/>
</svg>
