<svg width="24" height="24" viewBox="0 0 24 24" fill="none" xmlns="http://www.w3.org/2000/svg">
<path d="M15.9297 20.3506C15.8966 20.6205 15.8049 20.8801 15.6602 21.1104C15.5191 21.3315 15.3315 21.5191 15.1104 21.6602C14.6104 22.0002 13.9 22 12.5 22H11.5C10.1 22 9.38964 22.0002 8.88965 21.6602C8.66857 21.5191 8.48084 21.3315 8.33984 21.1104C8.19514 20.8801 8.10338 20.6205 8.07031 20.3506L8.56055 20.4102C9.47042 20.5001 10.5602 20.5 11.9199 20.5H12.0801C13.4201 20.5 14.5304 20.5002 15.4404 20.4102L15.9297 20.3506ZM12 5C14.8098 5 16.2097 5.00007 17.2197 5.66992C17.6564 5.96669 18.0333 6.34365 18.3301 6.78027C18.9999 7.79026 19 9.19021 19 12C19 14.8098 18.9999 16.2197 18.3301 17.2197C18.0333 17.6564 17.6564 18.0333 17.2197 18.3301C16.2097 18.9999 14.8098 19 12 19C9.19021 19 7.79026 18.9999 6.78027 18.3301C6.34365 18.0333 5.96669 17.6564 5.66992 17.2197C5.00007 16.2097 5 14.8098 5 12C5 9.19021 5.00007 7.79026 5.66992 6.78027C5.96669 6.34365 6.34365 5.96669 6.78027 5.66992C7.79026 5.00007 9.19021 5 12 5ZM12 8.25C11.8011 8.25 11.6104 8.32907 11.4697 8.46973C11.3291 8.61038 11.25 8.80109 11.25 9V12.0596C11.2495 12.1605 11.27 12.2607 11.3096 12.3535C11.3491 12.4464 11.4073 12.53 11.4805 12.5996L13.4805 14.5195C13.621 14.6599 13.8111 14.7392 14.0098 14.7393C14.2085 14.7393 14.3994 14.66 14.54 14.5195C14.6776 14.3764 14.7526 14.1848 14.749 13.9863C14.7453 13.7876 14.6627 13.5979 14.5195 13.46L12.75 11.7598V9C12.75 8.80109 12.6709 8.61038 12.5303 8.46973C12.3896 8.32907 12.1989 8.25 12 8.25ZM12.5 2C13.9 2 14.6104 1.99984 15.1104 2.33984C15.3315 2.48085 15.5191 2.66856 15.6602 2.88965C15.805 3.12004 15.8967 3.38028 15.9297 3.65039L15.4404 3.58984C14.5304 3.49984 13.4201 3.5 12.0801 3.5H11.9199C10.5602 3.5 9.47042 3.4999 8.56055 3.58984L8.07031 3.65039C8.10332 3.38028 8.19504 3.12004 8.33984 2.88965C8.48084 2.66856 8.66857 2.48085 8.88965 2.33984C9.38964 1.99985 10.1 2 11.5 2H12.5Z" fill="#48465C"/>
</svg>
