<svg width="24" height="24" viewBox="0 0 24 24" fill="none" xmlns="http://www.w3.org/2000/svg">
<path d="M12 2C16.714 2 19.0708 2.00037 20.5352 3.46484C21.9996 4.9293 22 7.28597 22 12C22 16.714 21.9997 19.0708 20.5352 20.5352C19.0708 21.9997 16.714 22 12 22C7.28597 22 4.9293 21.9996 3.46484 20.5352C2.00037 19.0708 2 16.714 2 12C2 7.28595 2.00037 4.9293 3.46484 3.46484C4.9293 2.00037 7.28595 2 12 2ZM6.00684 13.25C5.59264 13.2465 5.25351 13.5799 5.25 13.9941C5.24657 14.4081 5.57923 14.7462 5.99316 14.75C6.84904 14.7573 7.44773 14.7859 7.89746 14.874C8.32598 14.958 8.56309 15.0865 8.7373 15.2607C8.91149 15.435 9.04005 15.672 9.12402 16.1006C9.21211 16.5503 9.23981 17.1481 9.24707 18.0039C9.25058 18.4181 9.58966 18.7515 10.0039 18.748C10.418 18.7445 10.7506 18.4054 10.7471 17.9912C10.7399 17.1406 10.7137 16.4148 10.5957 15.8125C10.4736 15.1891 10.244 14.6454 9.79785 14.1992C9.35183 13.7534 8.80864 13.5244 8.18555 13.4023C7.58326 13.2844 6.85732 13.2573 6.00684 13.25ZM17.9912 13.25C17.1405 13.2573 16.4139 13.2843 15.8115 13.4023C15.1884 13.5244 14.6453 13.7534 14.1992 14.1992C13.7531 14.6454 13.5235 15.1891 13.4014 15.8125C13.2834 16.4148 13.2572 17.1406 13.25 17.9912C13.2464 18.4053 13.5791 18.7444 13.9932 18.748C14.4074 18.7515 14.7465 18.4181 14.75 18.0039C14.7573 17.1481 14.785 16.5503 14.873 16.1006C14.957 15.672 15.0856 15.435 15.2598 15.2607C15.4341 15.0864 15.6718 14.958 16.1006 14.874C16.5502 14.786 17.1482 14.7573 18.0039 14.75C18.4179 14.7463 18.7505 14.4082 18.7471 13.9941C18.7436 13.58 18.4053 13.2467 17.9912 13.25ZM10.0039 5.25098C9.58981 5.24747 9.25084 5.58016 9.24707 5.99414C9.23981 6.85001 9.21211 7.4487 9.12402 7.89844C9.04002 8.32699 8.91152 8.56406 8.7373 8.73828C8.56308 8.91251 8.32602 9.04101 7.89746 9.125C7.44773 9.2131 6.84904 9.24079 5.99316 9.24805C5.57918 9.25181 5.24649 9.59087 5.25 10.0049C5.25361 10.419 5.5927 10.7516 6.00684 10.748C6.85732 10.7408 7.58326 10.7147 8.18555 10.5967C8.80881 10.4746 9.35176 10.2449 9.79785 9.79883C10.2439 9.35274 10.4736 8.80978 10.5957 8.18652C10.7137 7.58423 10.7399 6.85829 10.7471 6.00781C10.7506 5.59365 10.418 5.25455 10.0039 5.25098ZM13.9932 5.25098C13.5791 5.25468 13.2464 5.59372 13.25 6.00781C13.2572 6.85829 13.2834 7.58423 13.4014 8.18652C13.5235 8.80976 13.7532 9.35275 14.1992 9.79883C14.6453 10.2449 15.1883 10.4746 15.8115 10.5967C16.4139 10.7147 17.1405 10.7408 17.9912 10.748C18.4052 10.7515 18.7435 10.4189 18.7471 10.0049C18.7506 9.59081 18.418 9.25172 18.0039 9.24805C17.1483 9.24079 16.5502 9.21304 16.1006 9.125C15.6718 9.04101 15.4341 8.91256 15.2598 8.73828C15.0856 8.56407 14.957 8.32694 14.873 7.89844C14.7849 7.4487 14.7573 6.85001 14.75 5.99414C14.7462 5.58016 14.4072 5.24747 13.9932 5.25098Z" fill="#1C274C"/>
</svg>
