<svg width="24" height="24" viewBox="0 0 24 24" fill="none" xmlns="http://www.w3.org/2000/svg">
<path d="M19.5 6.25C19.9142 6.25003 20.25 6.58581 20.25 7C20.25 9.24422 19.2981 10.7193 18.0635 11.6084C16.867 12.4699 15.4534 12.75 14.5 12.75H6.31055L10.0303 16.4697C10.3231 16.7626 10.3231 17.2374 10.0303 17.5303C9.73743 17.8232 9.26262 17.8231 8.96973 17.5303L3.96973 12.5303C3.67684 12.2374 3.67684 11.7626 3.96973 11.4697L8.96973 6.46973C9.26262 6.17687 9.73742 6.17685 10.0303 6.46973C10.3231 6.76261 10.3231 7.23739 10.0303 7.53027L6.31055 11.25H14.5C15.2132 11.25 16.2998 11.0299 17.1865 10.3916C18.035 9.7807 18.75 8.75556 18.75 7C18.75 6.58579 19.0858 6.25 19.5 6.25Z" fill="#48465C"/>
</svg>
