<svg width="24" height="24" viewBox="0 0 24 24" fill="none" xmlns="http://www.w3.org/2000/svg">
<path d="M11.9999 2C13.1542 2 14.1988 2.62261 16.288 3.86719L17.6727 4.69141C19.9734 6.06194 21.1245 6.74765 21.6649 7.875C22.2053 9.0023 22.0151 10.321 21.6356 12.958L21.3573 14.8955C20.8698 18.2828 20.626 19.9765 19.451 20.9883C18.276 22.0001 16.5527 22 13.1063 22H10.8934C7.4472 22 5.72372 22 4.54871 20.9883C3.37378 19.9765 3.12982 18.2827 2.64246 14.8955L2.36414 12.958C1.9847 10.3209 1.79536 9.00234 2.33582 7.875C2.8763 6.74773 4.0264 6.06188 6.32703 4.69141L7.71179 3.86719C9.80102 2.62264 10.8456 2.00004 11.9999 2ZM14.5507 15.4902C13.1493 13.9776 10.8515 13.9776 9.45007 15.4902C9.16864 15.794 9.1865 16.2682 9.49011 16.5498C9.79397 16.8313 10.2692 16.8137 10.5507 16.5098C11.3585 15.638 12.6423 15.638 13.4501 16.5098C13.7316 16.8135 14.2058 16.8312 14.5096 16.5498C14.8134 16.2683 14.8319 15.794 14.5507 15.4902ZM16.5507 13.3311C14.0447 10.6262 9.95603 10.6263 7.45007 13.3311C7.16867 13.6347 7.18658 14.1091 7.49011 14.3906C7.79396 14.6721 8.26915 14.6545 8.55066 14.3506C10.463 12.2866 13.5378 12.2865 15.4501 14.3506C15.7317 14.6543 16.2059 14.6721 16.5096 14.3906C16.8134 14.1092 16.832 13.6348 16.5507 13.3311ZM18.5507 11.1729C14.9401 7.27577 9.0606 7.27577 5.45007 11.1729C5.16867 11.4766 5.18644 11.9509 5.49011 12.2324C5.79396 12.5139 6.26915 12.4963 6.55066 12.1924C9.56755 8.93609 14.4332 8.93609 17.4501 12.1924C17.7316 12.496 18.2059 12.5138 18.5096 12.2324C18.8134 11.951 18.8318 11.4767 18.5507 11.1729Z" fill="#1C274C"/>
</svg>
