<svg width="24" height="24" viewBox="0 0 24 24" fill="none" xmlns="http://www.w3.org/2000/svg">
<path d="M10.1758 1.25C11.5602 1.24963 12.4551 1.24952 13.2783 1.56543C14.1014 1.88139 14.7633 2.47745 15.7871 3.39941C15.8224 3.4312 15.8583 3.46353 15.8945 3.49609L19.8535 7.05957C19.8956 7.09742 19.9375 7.13496 19.9785 7.17188C21.1619 8.23621 21.9272 8.92449 22.3389 9.84863C22.7505 10.7729 22.7505 11.8028 22.75 13.3945V14.0566C22.75 15.8943 22.7498 17.3501 22.5967 18.4893C22.439 19.6616 22.1067 20.61 21.3584 21.3584C20.6101 22.1067 19.6615 22.4391 18.4893 22.5967C17.3501 22.7499 15.8943 22.75 14.0566 22.75H9.94336C8.10571 22.75 6.6499 22.7499 5.51074 22.5967C4.33845 22.4391 3.38991 22.1067 2.6416 21.3584C1.8933 20.61 1.56095 19.6616 1.40332 18.4893C1.25015 17.3501 1.24998 15.8943 1.25 14.0566V9.94336C1.24998 8.10574 1.25016 6.64989 1.40332 5.51074C1.56096 4.33848 1.89331 3.3899 2.6416 2.6416C3.39048 1.89276 4.34218 1.5608 5.51855 1.40332C6.66251 1.25021 8.12581 1.24998 9.97363 1.25H10.1758ZM10.0303 2.75C8.11358 2.75 6.75067 2.75141 5.71777 2.88965C4.70594 3.02508 4.12477 3.27956 3.70215 3.70215C3.27894 4.12536 3.02491 4.70485 2.88965 5.71094C2.75148 6.73857 2.75 8.09321 2.75 10V14C2.75 15.9067 2.7515 17.2614 2.88965 18.2891C3.02491 19.2952 3.27895 19.8747 3.70215 20.2979C4.12536 20.7212 4.70485 20.9751 5.71094 21.1104C6.73859 21.2485 8.09323 21.25 10 21.25H14C15.9067 21.25 17.2614 21.2485 18.2891 21.1104C19.2951 20.9751 19.8747 20.7212 20.2979 20.2979C20.721 19.8747 20.9752 19.2952 21.1104 18.2891C21.2485 17.2614 21.25 15.9067 21.25 14V13.5625C21.25 12.0268 21.2392 11.2986 21.0762 10.75H17.9463C16.8136 10.75 15.888 10.7496 15.1572 10.6514C14.3932 10.5487 13.7308 10.3265 13.2021 9.79785C12.6735 9.26916 12.4513 8.6067 12.3486 7.84277C12.2505 7.11196 12.25 6.18635 12.25 5.05371V2.83398C11.7897 2.75576 11.1621 2.75 10.0303 2.75ZM8.6123 13.4531C8.91449 13.1698 9.38859 13.1851 9.67188 13.4873L11.5469 15.4873C11.8173 15.7758 11.8173 16.2242 11.5469 16.5127L9.67188 18.5127C9.38859 18.8149 8.91449 18.8302 8.6123 18.5469C8.31013 18.2636 8.29483 17.7895 8.57812 17.4873L9.26855 16.75H6C5.58579 16.75 5.25 16.4142 5.25 16C5.25004 15.5857 5.58582 15.25 6 15.25H9.26855L8.57812 14.5127C8.29484 14.2105 8.31013 13.7364 8.6123 13.4531ZM13.75 5C13.75 6.19971 13.7518 7.02436 13.835 7.64355C13.9154 8.24095 14.0592 8.5338 14.2627 8.7373C14.4662 8.9408 14.759 9.08468 15.3564 9.16504C15.9756 9.24829 16.8003 9.25 18 9.25H20.0195C19.723 8.96245 19.3428 8.61772 18.8496 8.17383L14.8916 4.61133C14.4062 4.17449 14.0446 3.85174 13.75 3.60938V5Z" fill="#48465C"/>
</svg>
