<svg width="24" height="24" viewBox="0 0 24 24" fill="none" xmlns="http://www.w3.org/2000/svg">
<path d="M15.2402 5.61426C17.9551 5.61426 19.3126 5.61433 20.1562 6.46094C20.9998 7.30786 21 8.67126 21 11.3975V16.2168C21 18.9429 20.9997 20.3064 20.1562 21.1533C19.3126 21.9998 17.955 22 15.2402 22H12.3604C9.64514 22 8.28689 22.0001 7.44336 21.1533C6.59984 20.3064 6.60059 18.9429 6.60059 16.2168V11.3975C6.60059 8.67127 6.59984 7.30786 7.44336 6.46094C8.28689 5.61402 9.64506 5.61426 12.3604 5.61426H15.2402ZM15.2402 2C16.7617 2.0001 18.0629 2.94764 18.5898 4.28711C17.7091 4.16822 16.6114 4.16888 15.335 4.16895H12.2656C10.9891 4.16888 9.8886 4.16822 9.00781 4.28711C8.06393 4.41454 7.15965 4.70265 6.42578 5.43945C5.69187 6.17631 5.40523 7.0845 5.27832 8.03223C5.15991 8.91654 5.16009 10.0211 5.16016 11.3027V16.3115C5.1601 17.3732 5.16026 18.6502 5.22754 19.5596C3.92032 19.0178 3 17.7249 3 16.2168V10.3789C2.99999 8.60802 3.00048 7.20531 3.14746 6.10742C3.29878 4.97737 3.61752 4.06213 4.33594 3.34082C5.05433 2.61967 5.96542 2.29937 7.09082 2.14746C8.1844 1.99987 9.5817 1.99999 11.3457 2H15.2402Z" fill="#48465C"/>
</svg>
