<svg width="24" height="24" viewBox="0 0 24 24" fill="none" xmlns="http://www.w3.org/2000/svg">
<path d="M8.67978 4.49305C11.6699 1.50298 16.5178 1.50295 19.5079 4.49305C22.4976 7.48318 22.4978 12.3312 19.5079 15.3212C17.522 17.3072 14.7163 17.9727 12.1827 17.3222C12.0328 17.2837 11.9182 17.3289 11.8624 17.3847L8.14951 21.0966C7.67059 21.5755 7.00038 21.8109 6.32725 21.7362L4.23838 21.5048C3.84658 21.4612 3.48106 21.2854 3.20225 21.0067L2.99424 20.7977C2.71539 20.5189 2.53974 20.1535 2.49619 19.7616L2.26377 17.6737C2.18896 17.0004 2.42442 16.3295 2.90342 15.8505L6.61533 12.1386C6.67129 12.0826 6.71605 11.9675 6.67783 11.8182C6.02719 9.28455 6.69371 6.47912 8.67978 4.49305ZM18.4464 5.5536C16.042 3.14938 12.1447 3.14935 9.74033 5.5536C8.14462 7.14931 7.60694 9.40302 8.13096 11.4442C8.28203 12.0325 8.15853 12.7164 7.67588 13.1991L3.96396 16.911C3.80717 17.0678 3.73049 17.2873 3.75498 17.5077L3.98643 19.5966C3.9924 19.6499 4.01685 19.6993 4.05478 19.7372L4.26279 19.9452C4.30068 19.9831 4.35018 20.0075 4.40342 20.0136L6.49228 20.246C6.71269 20.2705 6.93216 20.1928 7.08896 20.036L7.796 19.329L6.5831 18.1298C6.28882 17.8387 6.28639 17.3637 6.57725 17.0692C6.86853 16.7747 7.34427 16.7721 7.63877 17.0634L8.85752 18.2684L10.8019 16.3241C11.2848 15.8412 11.9679 15.718 12.5558 15.869C14.5968 16.393 16.8507 15.856 18.4464 14.2606C20.8507 11.8562 20.8507 7.95792 18.4464 5.5536ZM12.0558 8.05555C13.1297 6.98173 14.8706 6.98168 15.9444 8.05555C17.0184 9.12945 17.0183 10.8703 15.9444 11.9442C14.8705 13.0182 13.1297 13.0182 12.0558 11.9442C10.9818 10.8703 10.9818 9.12947 12.0558 8.05555ZM14.8839 9.1161C14.3957 8.62806 13.6045 8.6281 13.1163 9.1161C12.6282 9.60422 12.6283 10.3955 13.1163 10.8837C13.6045 11.3718 14.3957 11.3718 14.8839 10.8837C15.3719 10.3955 15.3719 9.6042 14.8839 9.1161Z" fill="#1C274C"/>
</svg>
