<svg width="24" height="24" viewBox="0 0 24 24" fill="none" xmlns="http://www.w3.org/2000/svg">
<path d="M5.26171 3.6084C6.13615 2.68813 7.61006 2.83052 8.37303 3.90918L9.63378 5.69336C10.2502 6.56518 10.184 7.75905 9.47753 8.50293L9.19042 8.80469C9.19042 8.80469 8.10848 9.9446 11.0635 13.0557C14.0019 16.1493 15.0885 15.0398 15.1006 15.0273L15.5566 14.5479C16.1862 13.8852 17.1672 13.7484 17.9726 14.2119L19.8828 15.3115C21.1097 16.0177 21.3808 17.7493 20.4219 18.7588L19.001 20.2539C18.6398 20.6342 18.1912 20.912 17.6758 20.9629C16.046 21.1236 12.0617 20.9459 7.81542 16.4756C3.81077 12.2594 3.09307 8.64534 3.00292 6.96582C2.96772 6.30938 3.2578 5.71723 3.69139 5.26074L5.26171 3.6084ZM18.4697 4.46973C18.7626 4.17686 19.2374 4.17684 19.5303 4.46973C19.8231 4.76261 19.8231 5.23738 19.5303 5.53027L16.8105 8.25H18C18.4142 8.25002 18.75 8.5858 18.75 9C18.75 9.4142 18.4142 9.74997 18 9.75H15C14.5858 9.75 14.25 9.41421 14.25 9V6C14.25 5.58579 14.5858 5.25 15 5.25C15.4142 5.25002 15.75 5.5858 15.75 6V7.18945L18.4697 4.46973Z" fill="#1C274C"/>
</svg>
