<svg width="24" height="24" viewBox="0 0 24 24" fill="none" xmlns="http://www.w3.org/2000/svg">
<path d="M12 2C16.714 2 19.0708 2.00037 20.5352 3.46484C21.9996 4.9293 22 7.28597 22 12C22 16.714 21.9997 19.0708 20.5352 20.5352C19.0708 21.9997 16.714 22 12 22C7.28597 22 4.9293 21.9996 3.46484 20.5352C2.00037 19.0708 2 16.714 2 12C2 7.28595 2.00037 4.9293 3.46484 3.46484C4.9293 2.00037 7.28595 2 12 2ZM15.1006 8.50195C14.441 8.05369 13.2854 8.51553 10.9756 9.43945C10.483 9.63647 10.2371 9.73582 10.0439 9.90527C9.9947 9.94842 9.94842 9.9947 9.90527 10.0439C9.73582 10.2371 9.63647 10.483 9.43945 10.9756C8.51553 13.2854 8.05369 14.441 8.50195 15.1006C8.60819 15.2569 8.74312 15.3918 8.89941 15.498C9.55907 15.9463 10.7146 15.4844 13.0244 14.5605C13.517 14.3635 13.7629 14.2642 13.9561 14.0947C14.0053 14.0517 14.0517 14.0053 14.0947 13.9561C14.2642 13.7629 14.3635 13.517 14.5605 13.0244C15.4844 10.7146 15.9463 9.55907 15.498 8.89941C15.3918 8.74312 15.2569 8.60819 15.1006 8.50195Z" fill="#1C274C"/>
</svg>
