<svg width="24" height="24" viewBox="0 0 24 24" fill="none" xmlns="http://www.w3.org/2000/svg">
<path d="M16.5 2.25C18.2949 2.25 19.75 3.70507 19.75 5.5C19.75 7.29493 18.2949 8.75 16.5 8.75C15.4472 8.75 14.5109 8.24975 13.917 7.47363L9.43848 10.6094C9.63834 11.0309 9.75 11.5024 9.75 12C9.75 12.4976 9.63834 12.9691 9.43848 13.3906L13.917 16.5264C14.5109 15.7503 15.4472 15.25 16.5 15.25C18.2949 15.25 19.75 16.7051 19.75 18.5C19.75 20.2949 18.2949 21.75 16.5 21.75C14.7051 21.75 13.25 20.2949 13.25 18.5C13.25 18.3041 13.2675 18.1121 13.3008 17.9258L8.57031 14.6143C8.54632 14.5975 8.52336 14.5795 8.50195 14.5605C7.9502 14.9924 7.25503 15.25 6.5 15.25C4.70507 15.25 3.25 13.7949 3.25 12C3.25 10.2051 4.70507 8.75 6.5 8.75C7.25503 8.75 7.9502 9.00753 8.50195 9.43945C8.52336 9.42048 8.54632 9.40253 8.57031 9.38574L13.3008 6.07422C13.2675 5.88786 13.25 5.69591 13.25 5.5C13.25 3.70507 14.7051 2.25 16.5 2.25ZM16.5 16.75C15.5335 16.75 14.75 17.5335 14.75 18.5C14.75 19.4665 15.5335 20.25 16.5 20.25C17.4665 20.25 18.25 19.4665 18.25 18.5C18.25 17.5335 17.4665 16.75 16.5 16.75ZM6.5 10.25C5.5335 10.25 4.75 11.0335 4.75 12C4.75 12.9665 5.5335 13.75 6.5 13.75C7.4665 13.75 8.25 12.9665 8.25 12C8.25 11.0335 7.4665 10.25 6.5 10.25ZM16.5 3.75C15.5335 3.75 14.75 4.5335 14.75 5.5C14.75 6.4665 15.5335 7.25 16.5 7.25C17.4665 7.25 18.25 6.4665 18.25 5.5C18.25 4.5335 17.4665 3.75 16.5 3.75Z" fill="#48465C"/>
</svg>
