<svg width="24" height="24" viewBox="0 0 24 24" fill="none" xmlns="http://www.w3.org/2000/svg">
<path d="M2.57324 14.4121C2.89782 14.1549 3.36968 14.2097 3.62695 14.5342C3.88419 14.8588 3.82954 15.3306 3.50488 15.5879C2.93139 16.0423 2.75001 16.443 2.75 16.75C2.75 16.993 2.86007 17.2884 3.19043 17.6299C3.52417 17.975 4.04614 18.3256 4.75586 18.6475C6.01007 19.2162 7.74372 19.6463 9.75 19.834V19.375C9.75001 19.0807 9.92243 18.814 10.1904 18.6924C10.4584 18.5709 10.7727 18.6168 10.9941 18.8105L12.4941 20.123C12.6568 20.2654 12.75 20.4714 12.75 20.6875C12.75 20.9037 12.6567 21.1095 12.4941 21.252L10.9941 22.5645C10.7727 22.7581 10.4584 22.8041 10.1904 22.6826C9.92243 22.561 9.75 22.2943 9.75 22V21.3408C7.56512 21.1491 5.60902 20.6819 4.13574 20.0137C3.32196 19.6445 2.62054 19.1983 2.1123 18.6729C1.60067 18.1439 1.25 17.494 1.25 16.75C1.25001 15.7999 1.81633 15.0119 2.57324 14.4121ZM20.373 14.5342C20.6303 14.2097 21.1021 14.1549 21.4268 14.4121C22.1836 15.0119 22.75 15.7999 22.75 16.75C22.75 18.1281 21.5816 19.1608 20.2031 19.8516C18.7614 20.5739 16.7905 21.085 14.5752 21.3096C14.1633 21.351 13.7957 21.0506 13.7539 20.6387C13.7125 20.2267 14.0128 19.8592 14.4248 19.8174C16.5221 19.6048 18.3013 19.127 19.5312 18.5107C20.8244 17.8627 21.25 17.2067 21.25 16.75C21.25 16.443 21.0686 16.0423 20.4951 15.5879C20.1704 15.3306 20.1158 14.8588 20.373 14.5342ZM12 2C15.3137 2 18 4.73438 18 8.10742C18 11.4539 16.0853 15.3592 13.0977 16.7559C12.4012 17.0815 11.5988 17.0815 10.9023 16.7559C7.91474 15.3592 6 11.4539 6 8.10742C6.00003 4.73438 8.68631 2 12 2ZM12 6C10.8954 6 10 6.89543 10 8C10 9.10457 10.8954 10 12 10C13.1046 10 14 9.10457 14 8C14 6.89543 13.1046 6 12 6Z" fill="#48465C"/>
</svg>
