<svg width="24" height="24" viewBox="0 0 24 24" fill="none" xmlns="http://www.w3.org/2000/svg">
<path d="M12 1.25C14.0974 1.25 15.906 2.4799 16.7471 4.25586C16.831 4.25223 16.9153 4.25 17 4.25C20.1756 4.25 22.75 6.82436 22.75 10C22.75 12.1806 21.5363 14.0762 19.75 15.0508V18.0518C19.75 18.9503 19.7499 19.7001 19.6699 20.2949C19.5855 20.9225 19.3997 21.489 18.9443 21.9443C18.489 22.3997 17.9225 22.5855 17.2949 22.6699C16.7001 22.7499 15.9503 22.75 15.0518 22.75H8.94824C8.04975 22.75 7.29986 22.7499 6.70508 22.6699C6.07748 22.5855 5.51102 22.3997 5.05566 21.9443C4.6003 21.489 4.41452 20.9225 4.33008 20.2949C4.25011 19.7001 4.24997 18.9503 4.25 18.0518V15.0508C2.46371 14.0762 1.25 12.1806 1.25 10C1.25 6.82436 3.82436 4.25 7 4.25C7.08469 4.25 7.16907 4.25223 7.25293 4.25586C8.09411 2.4799 9.90263 1.25 12 1.25ZM5.75195 18.75C5.75618 19.3194 5.76995 19.7492 5.81641 20.0947C5.87845 20.5561 5.98591 20.7535 6.11621 20.8838C6.24651 21.0141 6.44389 21.1215 6.90527 21.1836C7.38831 21.2485 8.03599 21.25 9 21.25H15C15.964 21.25 16.6117 21.2485 17.0947 21.1836C17.5561 21.1215 17.7535 21.0141 17.8838 20.8838C18.0141 20.7535 18.1215 20.5561 18.1836 20.0947C18.23 19.7492 18.2438 19.3194 18.248 18.75H5.75195ZM12 2.75C10.3516 2.75 8.94945 3.81408 8.44727 5.29492C8.31937 5.67213 8.25 6.07721 8.25 6.5V7C8.25 7.41421 7.91421 7.75 7.5 7.75C7.08579 7.75 6.75 7.41421 6.75 7V6.5C6.75 6.24729 6.76807 5.99852 6.80273 5.75488C4.54715 5.858 2.75 7.71895 2.75 10C2.75 11.7414 3.79747 13.2399 5.2998 13.8965C5.57297 14.0158 5.74999 14.2859 5.75 14.584V17.25H18.25V14.584C18.25 14.286 18.4262 14.0159 18.6992 13.8965C20.2018 13.24 21.25 11.7416 21.25 10C21.25 7.71895 19.4529 5.85799 17.1973 5.75488C17.2319 5.99852 17.25 6.2473 17.25 6.5V7C17.25 7.41421 16.9142 7.75 16.5 7.75C16.0858 7.75 15.75 7.41421 15.75 7V6.5C15.75 6.07721 15.6806 5.67214 15.5527 5.29492C15.0505 3.81408 13.6484 2.75 12 2.75ZM12 9.03809C12.7162 8.5666 13.5247 8.42221 14.2539 8.67773C15.187 9.00484 15.7499 9.90294 15.75 11C15.75 11.7699 15.3087 12.4516 14.875 12.9531C14.4217 13.4772 13.8604 13.9359 13.4004 14.2734C13.3771 14.2905 13.3537 14.3086 13.3301 14.3262C12.979 14.5858 12.5791 14.8809 12 14.8809C11.4209 14.8809 11.021 14.5858 10.6699 14.3262C10.6463 14.3086 10.6229 14.2905 10.5996 14.2734C10.1396 13.9359 9.57825 13.4772 9.125 12.9531C8.6913 12.4517 8.25 11.7699 8.25 11C8.25007 9.90295 8.81294 9.00485 9.74609 8.67773C10.4753 8.42223 11.2838 8.56661 12 9.03809ZM13.7578 10.0928C13.5074 10.0051 13.0437 10.0333 12.5186 10.5361C12.2286 10.8138 11.7714 10.8138 11.4814 10.5361C10.9563 10.0333 10.4926 10.0051 10.2422 10.0928C10.0129 10.1731 9.75006 10.4241 9.75 11C9.75 11.2146 9.89149 11.5459 10.2598 11.9717C10.6083 12.3748 11.0685 12.7578 11.4863 13.0645C11.7126 13.2305 11.8203 13.3071 11.9062 13.3525C11.9605 13.3811 11.9756 13.3809 12 13.3809C12.0244 13.3809 12.0395 13.3811 12.0938 13.3525C12.1797 13.3071 12.2874 13.2305 12.5137 13.0645C12.9315 12.7578 13.3917 12.3748 13.7402 11.9717C14.1085 11.546 14.25 11.2146 14.25 11C14.2499 10.4241 13.9871 10.1731 13.7578 10.0928Z" fill="#48465C"/>
</svg>
