<svg width="24" height="24" viewBox="0 0 24 24" fill="none" xmlns="http://www.w3.org/2000/svg">
<path d="M12.0518 1.25C12.9503 1.24997 13.7001 1.25012 14.2949 1.33008C14.9225 1.41452 15.489 1.6003 15.9443 2.05566C16.3997 2.51102 16.5855 3.07748 16.6699 3.70508C16.729 4.14468 16.745 4.66915 16.749 5.27539C17.3974 5.2962 17.9756 5.33426 18.4893 5.40332C19.6615 5.56095 20.6101 5.89332 21.3584 6.6416C22.1066 7.38992 22.439 8.33844 22.5967 9.51074C22.7498 10.6499 22.75 12.1057 22.75 13.9434V14.0566C22.75 15.8943 22.7498 17.3501 22.5967 18.4893C22.439 19.6615 22.1066 20.6101 21.3584 21.3584C20.6101 22.1066 19.6615 22.439 18.4893 22.5967C17.3501 22.7498 15.8943 22.75 14.0566 22.75H9.94336C8.10571 22.75 6.6499 22.7498 5.51074 22.5967C4.33844 22.439 3.38992 22.1066 2.6416 21.3584C1.89332 20.6101 1.56095 19.6615 1.40332 18.4893C1.25016 17.3501 1.24998 15.8943 1.25 14.0566V13.9434C1.24998 12.1057 1.25016 10.6499 1.40332 9.51074C1.56095 8.33844 1.8933 7.38992 2.6416 6.6416C3.38992 5.8933 4.33844 5.56095 5.51074 5.40332C6.0244 5.33426 6.60263 5.2962 7.25098 5.27539C7.25498 4.66915 7.27098 4.14468 7.33008 3.70508C7.41452 3.07747 7.6003 2.51102 8.05566 2.05566C8.51102 1.6003 9.07747 1.41452 9.70508 1.33008C10.2999 1.25012 11.0497 1.24997 11.9482 1.25H12.0518ZM10 6.75C8.67537 6.75 7.61719 6.75106 6.75 6.79785V14.25H10.0342C10.2393 14.2499 10.4613 14.2502 10.6484 14.2754C10.8677 14.3049 11.148 14.3804 11.3838 14.6162C11.6196 14.852 11.6951 15.1323 11.7246 15.3516C11.7498 15.5387 11.7501 15.7607 11.75 15.9658V17.0342C11.7501 17.2393 11.7498 17.4613 11.7246 17.6484C11.6951 17.8677 11.6196 18.148 11.3838 18.3838C11.148 18.6196 10.8677 18.6951 10.6484 18.7246C10.4613 18.7498 10.2393 18.7501 10.0342 18.75H6.75V21.2021C7.61719 21.2489 8.67537 21.25 10 21.25H14C15.3246 21.25 16.3828 21.2489 17.25 21.2021V6.79785C16.3828 6.75106 15.3246 6.75 14 6.75H10ZM5.25 6.96582C4.51924 7.11251 4.05611 7.34819 3.70215 7.70215C3.27894 8.12535 3.02491 8.70485 2.88965 9.71094C2.75149 10.7386 2.75 12.0933 2.75 14C2.75 15.9067 2.7515 17.2614 2.88965 18.2891C3.02491 19.2951 3.27894 19.8747 3.70215 20.2979C4.05611 20.6519 4.51924 20.8875 5.25 21.0342V18.708C5.04986 18.6691 4.81696 18.5846 4.61621 18.3838C4.38042 18.148 4.30488 17.8677 4.27539 17.6484C4.25024 17.4613 4.24992 17.2393 4.25 17.0342V15.9658C4.24992 15.7607 4.25023 15.5387 4.27539 15.3516C4.30488 15.1323 4.38042 14.852 4.61621 14.6162C4.81696 14.4154 5.04986 14.3309 5.25 14.292V6.96582ZM18.75 21.0342C19.4808 20.8875 19.9439 20.6519 20.2979 20.2979C20.7211 19.8747 20.9752 19.2951 21.1104 18.2891C21.2485 17.2614 21.25 15.9067 21.25 14C21.25 12.0933 21.2485 10.7386 21.1104 9.71094C20.9752 8.70485 20.7211 8.12535 20.2979 7.70215C19.9439 7.34819 19.4808 7.11251 18.75 6.96582V21.0342ZM5.75098 15.751C5.74987 15.8204 5.75 15.9009 5.75 16V17C5.75 17.0991 5.74986 17.1796 5.75098 17.249C5.82044 17.2502 5.90092 17.25 6 17.25H10C10.0991 17.25 10.1796 17.2502 10.249 17.249C10.2502 17.1796 10.25 17.0991 10.25 17V16C10.25 15.9009 10.2502 15.8204 10.249 15.751C10.1796 15.7498 10.0991 15.75 10 15.75H6C5.90092 15.75 5.82044 15.7498 5.75098 15.751ZM12 2.75C11.036 2.75 10.3883 2.75147 9.90527 2.81641C9.44388 2.87845 9.24651 2.9859 9.11621 3.11621C8.9859 3.24652 8.87845 3.44388 8.81641 3.90527C8.76991 4.25113 8.75616 4.68163 8.75195 5.25195C9.12997 5.25016 9.52686 5.25 9.94336 5.25H14.0566C14.4732 5.25 14.8701 5.25016 15.248 5.25195C15.2438 4.68163 15.2301 4.25113 15.1836 3.90527C15.1215 3.44389 15.0141 3.24652 14.8838 3.11621C14.7535 2.98591 14.5561 2.87845 14.0947 2.81641C13.6117 2.75147 12.964 2.75 12 2.75Z" fill="#48465C"/>
</svg>
