<svg width="24" height="24" viewBox="0 0 24 24" fill="none" xmlns="http://www.w3.org/2000/svg">
<path d="M10 3.25C10.4142 3.25005 10.75 3.58582 10.75 4V20C10.75 20.2974 10.574 20.5668 10.3018 20.6865C10.0295 20.8062 9.71238 20.7537 9.49316 20.5527L3.49316 15.0527C3.18788 14.7728 3.16739 14.2985 3.44727 13.9932C3.72718 13.688 4.20154 13.6675 4.50684 13.9473L9.25 18.2949V4C9.25001 3.58579 9.58579 3.25 10 3.25ZM13.6982 3.31348C13.9704 3.19388 14.2876 3.24636 14.5068 3.44727L20.5068 8.94727C20.812 9.22717 20.8326 9.70155 20.5527 10.0068C20.2728 10.3121 19.7984 10.3326 19.4932 10.0527L14.75 5.70508V20C14.75 20.4142 14.4142 20.75 14 20.75C13.5858 20.75 13.25 20.4142 13.25 20V4C13.25 3.70258 13.426 3.43324 13.6982 3.31348Z" fill="#48465C"/>
</svg>
