<svg width="24" height="24" viewBox="0 0 24 24" fill="none" xmlns="http://www.w3.org/2000/svg">
<path d="M12 1.25C17.9371 1.25 22.75 6.06294 22.75 12C22.75 17.9371 17.9371 22.75 12 22.75C9.45001 22.75 7.10575 21.8609 5.2627 20.377C2.81727 18.4077 1.25 15.3866 1.25 12C1.25 7.80186 3.65668 4.16686 7.16211 2.39746C8.61708 1.66309 10.2614 1.25 12 1.25ZM12.1621 13.0137C10.2602 15.4589 7.4225 16.9752 4.36035 17.2158C4.82433 17.894 5.37621 18.5078 6 19.04C9.00327 18.9785 12.0438 17.8849 14.5664 16.0986C14.9044 15.8592 15.3729 15.9392 15.6123 16.2773C15.8514 16.6152 15.7714 17.0829 15.4336 17.3223C13.2474 18.8704 10.685 19.9547 8.04199 20.3633C9.24166 20.9321 10.5833 21.25 12 21.25C15.315 21.25 18.2223 19.506 19.8555 16.8857C18.1686 14.3766 15.3759 12.8414 12.3633 12.7539L12.1621 13.0137ZM10.8457 2.82129C9.87042 2.94263 8.94274 3.21602 8.08691 3.61621C7.03942 6.26818 6.78627 9.11226 7.3252 11.8555C7.40497 12.2619 7.1398 12.6565 6.7334 12.7363C6.32704 12.8161 5.93336 12.5508 5.85352 12.1445C5.38072 9.73797 5.46096 7.26189 6.09375 4.88086C4.05018 6.57816 2.75 9.13761 2.75 12C2.75 13.3349 3.03215 14.6038 3.54102 15.75C6.44894 15.7373 9.19126 14.3893 10.9775 12.0928L11.0957 11.9414C9.64118 9.31101 9.45865 6.14967 10.6221 3.35742L10.8457 2.82129ZM12.0068 3.93457C11.0142 6.31706 11.1767 9.01588 12.4307 11.2549C15.6413 11.3549 18.6345 12.8721 20.6133 15.3799C21.0244 14.333 21.25 13.1928 21.25 12C21.25 11.9391 21.2492 11.878 21.248 11.8174L20.7119 11.2734L20.71 11.2705C18.8157 9.3772 16.4254 8.09425 13.8447 7.54785C13.4394 7.46206 13.1808 7.06343 13.2666 6.6582C13.3526 6.25328 13.7503 5.99437 14.1553 6.08008C16.6249 6.60292 18.9375 7.73462 20.875 9.38379C19.7908 5.70092 16.4758 2.97247 12.4941 2.7627L12.0068 3.93457Z" fill="#1C274C"/>
</svg>
