<svg width="24" height="24" viewBox="0 0 24 24" fill="none" xmlns="http://www.w3.org/2000/svg">
<path d="M21.9434 17.75C21.7895 18.7695 21.3201 19.7502 20.5352 20.5352C18.5825 22.4878 15.4174 22.4878 13.4648 20.5352C12.6799 19.7502 12.2104 18.7695 12.0566 17.75H21.9434ZM13.4648 13.4648C15.4174 11.5122 18.5825 11.5122 20.5352 13.4648C21.3201 14.2498 21.7895 15.2305 21.9434 16.25H12.0566C12.2105 15.2305 12.6799 14.2498 13.4648 13.4648ZM10.9658 11.0264C10.1362 11.6385 9.11014 12 8 12C5.23858 12 3 9.76142 3 7C3.00002 5.8901 3.36174 4.86471 3.97363 4.03516L10.9658 11.0264ZM8 2C10.7614 2.00001 13 4.23858 13 7C13 8.11014 12.6385 9.13616 12.0264 9.96582L5.03418 2.97363C5.86384 2.36152 6.88986 2 8 2Z" fill="#48465C"/>
</svg>
