<svg width="24" height="24" viewBox="0 0 24 24" fill="none" xmlns="http://www.w3.org/2000/svg">
<path d="M12 2C17.5228 2 22 6.47715 22 12C22 17.5228 17.5228 22 12 22C6.47715 22 2 17.5228 2 12C2 6.47715 6.47715 2 12 2ZM12.5303 5.46973C12.2374 5.17684 11.7626 5.17684 11.4697 5.46973L10.4697 6.46973C10.1768 6.76261 10.1768 7.23739 10.4697 7.53027C10.6807 7.74129 10.9862 7.80008 11.25 7.70703V12.7412C11.1787 12.7112 11.1051 12.6845 11.0303 12.6611L9.62695 12.2227C9.10521 12.0595 8.75 11.5759 8.75 11.0293V10.582C9.34124 10.3011 9.75 9.6981 9.75 9C9.75 8.0335 8.9665 7.25 8 7.25C7.0335 7.25 6.25 8.0335 6.25 9C6.25 9.6981 6.65876 10.3011 7.25 10.582V11.0293C7.25 12.2321 8.03168 13.2956 9.17969 13.6543L10.583 14.0928C10.9797 14.2168 11.25 14.5844 11.25 15V15.418C10.6588 15.6989 10.25 16.3019 10.25 17C10.25 17.9665 11.0335 18.75 12 18.75C12.9665 18.75 13.75 17.9665 13.75 17C13.75 16.3605 13.4066 15.8014 12.8945 15.4961C13.0121 15.3084 13.195 15.1622 13.417 15.0928L14.8203 14.6543C15.9683 14.2956 16.75 13.2321 16.75 12.0293V11.708C16.9502 11.6691 17.183 11.5846 17.3838 11.3838C17.6196 11.148 17.6951 10.8677 17.7246 10.6484C17.7498 10.4613 17.7501 10.2392 17.75 10.0342V9.96582C17.7501 9.76075 17.7498 9.53876 17.7246 9.35156C17.6951 9.13223 17.6196 8.85201 17.3838 8.61621C17.148 8.38042 16.8677 8.30488 16.6484 8.27539C16.4613 8.25023 16.2392 8.24992 16.0342 8.25H15.9658C15.7607 8.24992 15.5387 8.25023 15.3516 8.27539C15.1323 8.30488 14.852 8.38042 14.6162 8.61621C14.3804 8.85201 14.3049 9.13223 14.2754 9.35156C14.2502 9.53876 14.2499 9.76074 14.25 9.96582V10.0342C14.2499 10.2393 14.2502 10.4613 14.2754 10.6484C14.3049 10.8677 14.3804 11.148 14.6162 11.3838C14.817 11.5846 15.0498 11.6691 15.25 11.708V12.0293C15.25 12.5759 14.8948 13.0595 14.373 13.2227L12.9697 13.6611C12.8949 13.6845 12.8213 13.7112 12.75 13.7412V7.70703C13.0138 7.80008 13.3193 7.74129 13.5303 7.53027C13.8232 7.23739 13.8232 6.76261 13.5303 6.46973L12.5303 5.46973Z" fill="#1C274C"/>
</svg>
