<svg width="24" height="24" viewBox="0 0 24 24" fill="none" xmlns="http://www.w3.org/2000/svg">
<path d="M4.04675 13.4608C4.86916 14.6642 5.85981 15.8618 6.9989 17.0009C8.13799 18.14 9.33559 19.1296 10.5389 19.952C9.16164 20.653 7.85693 21.0745 6.72546 21.205C5.29847 21.3696 4.24433 21.0666 3.58875 20.411C2.93316 19.7554 2.6302 18.7013 2.7948 17.2743C2.92532 16.1429 3.3458 14.8382 4.04675 13.4608ZM19.953 13.4608C20.654 14.8382 21.0754 16.1428 21.2059 17.2743C21.3705 18.7012 21.0675 19.7554 20.412 20.411C19.7564 21.0666 18.7022 21.3705 17.2753 21.2059C16.1437 21.0754 14.8392 20.654 13.4618 19.953C14.6653 19.1305 15.8627 18.14 17.0018 17.0009C18.1409 15.8618 19.1306 14.6642 19.953 13.4608ZM11.9999 4.87976C13.325 5.71668 14.6679 6.78511 15.9413 8.05847C17.2146 9.33181 18.283 10.6748 19.12 11.9999C18.2831 13.3249 17.2146 14.6671 15.9413 15.9403C14.6678 17.2138 13.3249 18.2821 11.9999 19.119C10.6748 18.2821 9.33275 17.2135 8.05945 15.9403C6.78619 14.667 5.71763 13.3248 4.88074 11.9999C5.71766 10.6747 6.78605 9.33188 8.05945 8.05847C9.33272 6.7852 10.6749 5.71665 11.9999 4.87976ZM11.9999 9.49988C10.6192 9.49991 9.49993 10.6192 9.49988 11.9999C9.49988 13.3806 10.6192 14.4998 11.9999 14.4999C13.3806 14.4999 14.4999 13.3806 14.4999 11.9999C14.4998 10.6192 13.3805 9.49988 11.9999 9.49988ZM3.58875 3.58777C4.24435 2.93221 5.29847 2.62822 6.72546 2.79285C7.85695 2.9234 9.16155 3.34478 10.5389 4.04578C9.33555 4.86817 8.13796 5.85885 6.9989 6.99792C5.85975 8.13709 4.86918 9.33454 4.04675 10.538C3.34573 9.1606 2.92437 7.85602 2.79382 6.72449C2.6292 5.29746 2.93315 4.24337 3.58875 3.58777ZM17.2753 2.79285C18.7023 2.62821 19.7564 2.93217 20.412 3.58777C21.0676 4.24339 21.3715 5.29744 21.2069 6.72449C21.0763 7.85606 20.6541 9.16048 19.953 10.538C19.1306 9.33453 18.141 8.13703 17.0018 6.99792C15.8627 5.85878 14.6652 4.8682 13.4618 4.04578C14.8392 3.34472 16.1437 2.9234 17.2753 2.79285Z" fill="#48465C"/>
</svg>
