<svg width="24" height="24" viewBox="0 0 24 24" fill="none" xmlns="http://www.w3.org/2000/svg">
<path d="M11.4844 3.55908C12.3104 3.15782 13.1242 2.93515 13.9424 3.21436C14.2142 3.30711 14.476 3.43987 14.7109 3.60498C15.417 4.10113 15.716 4.88535 15.8779 5.78467C16.0371 6.66902 16.0914 7.84138 16.1592 9.30127L16.1621 9.35889C16.2139 10.4735 16.25 11.4465 16.25 11.9985C16.25 12.5505 16.2139 13.5242 16.1621 14.6392L16.1592 14.6968C16.0914 16.1564 16.0371 17.3281 15.8779 18.2124C15.716 19.1117 15.4169 19.8959 14.7109 20.3921C14.476 20.5573 14.2143 20.6909 13.9424 20.7837C13.1242 21.0629 12.3104 20.8393 11.4844 20.438C10.6709 20.0428 9.68374 19.392 8.45312 18.5806L8.18652 18.4048C7.73861 18.1094 7.58415 18.0112 7.4248 17.9409C7.25433 17.8657 7.07533 17.8118 6.8916 17.7808C6.71984 17.7518 6.53652 17.7485 6 17.7485H5.83887C4.62217 17.7492 3.77693 17.7495 3.02539 17.4019C2.33059 17.0805 1.66098 16.4518 1.29785 15.7778C0.905285 15.0492 0.859442 14.2871 0.793945 13.2036C0.791347 13.1607 0.788815 13.1168 0.786133 13.0728C0.763694 12.7045 0.75 12.34 0.75 11.9985C0.750011 11.6572 0.763712 11.2933 0.786133 10.9253C0.788815 10.8813 0.791347 10.8373 0.793945 10.7944C0.859444 9.71098 0.905348 8.94883 1.29785 8.22021C1.66098 7.54625 2.33059 6.91667 3.02539 6.59521C3.77686 6.2477 4.62231 6.2479 5.83887 6.24854C5.89181 6.24857 5.94564 6.24854 6 6.24854C6.53652 6.24854 6.71984 6.2463 6.8916 6.21729C7.07531 6.18624 7.25435 6.13234 7.4248 6.05713C7.58414 5.9868 7.73868 5.88855 8.18652 5.59326L8.45312 5.41748C9.68388 4.60597 10.6708 3.9543 11.4844 3.55908ZM13.458 4.63428C13.2089 4.54925 12.8527 4.56284 12.1406 4.90869C11.4265 5.25563 10.5211 5.85039 9.23145 6.70068L9.01172 6.84521C8.99523 6.85609 8.97895 6.86685 8.96289 6.87744C8.58294 7.12807 8.31957 7.30187 8.03125 7.4292C7.74689 7.55469 7.4471 7.64503 7.14062 7.69678C6.82988 7.7492 6.51459 7.74864 6.05957 7.74854H6C4.55699 7.74854 4.06946 7.76508 3.65527 7.95654C3.25492 8.14177 2.82838 8.54378 2.61914 8.93213C2.40097 9.33717 2.36024 9.75218 2.2832 11.0161C2.26206 11.363 2.25001 11.6953 2.25 11.9985C2.25 12.3017 2.26205 12.635 2.2832 12.9819C2.36024 14.2459 2.4009 14.6609 2.61914 15.0659C2.82838 15.4543 3.25492 15.8553 3.65527 16.0405C4.06953 16.2321 4.55666 16.2485 6 16.2485C6.01996 16.2485 6.04013 16.2486 6.05957 16.2485C6.51461 16.2485 6.82987 16.2489 7.14062 16.3013C7.4471 16.3531 7.74689 16.4424 8.03125 16.5679C8.31965 16.6952 8.58289 16.869 8.96289 17.1196C8.97906 17.1303 8.99511 17.1419 9.01172 17.1528L9.23145 17.2964C10.5212 18.1469 11.4264 18.7424 12.1406 19.0894C12.8526 19.4352 13.209 19.4488 13.458 19.3638C13.5953 19.3169 13.7299 19.249 13.8486 19.1655C14.0652 19.0132 14.2625 18.7182 14.4014 17.9468C14.5408 17.172 14.592 16.1003 14.6631 14.5698C14.7152 13.4503 14.75 12.5102 14.75 11.9985C14.75 11.4866 14.7152 10.5474 14.6631 9.42822C14.592 7.89754 14.5409 6.82515 14.4014 6.05029C14.2625 5.27935 14.0652 4.98474 13.8486 4.83252C13.7299 4.74911 13.5953 4.68115 13.458 4.63428ZM17.6357 8.34326C17.9978 8.1421 18.4552 8.27415 18.6562 8.63623C18.6637 8.65067 18.6881 8.69787 18.6982 8.71924C18.7187 8.76226 18.745 8.82049 18.7744 8.89404C18.8332 9.04118 18.906 9.24989 18.9766 9.5249C19.1179 10.0758 19.25 10.8884 19.25 11.9985C19.25 13.1085 19.1178 13.9213 18.9766 14.4722C18.906 14.7475 18.8332 14.9568 18.7744 15.104C18.745 15.1774 18.7187 15.2358 18.6982 15.2788C18.6882 15.2999 18.68 15.3176 18.6729 15.3315C18.4717 15.6936 17.9978 15.8558 17.6357 15.6548C17.2768 15.4553 17.1461 15.0045 17.3398 14.644L17.3818 14.5464C17.4167 14.4592 17.4691 14.3121 17.5234 14.1001C17.6321 13.676 17.75 12.9883 17.75 11.9985C17.75 11.0091 17.6321 10.322 17.5234 9.89795C17.469 9.68567 17.4167 9.53789 17.3818 9.45068C17.3645 9.40747 17.3469 9.36872 17.3398 9.354C17.1461 8.99349 17.2769 8.54277 17.6357 8.34326Z" fill="#48465C"/>
</svg>
