<svg width="24" height="24" viewBox="0 0 24 24" fill="none" xmlns="http://www.w3.org/2000/svg">
<path fill-rule="evenodd" clip-rule="evenodd" d="M6.4626 2.47671C6.75138 2.18015 7.2263 2.17346 7.52314 2.46206C7.81997 2.75076 7.82635 3.22564 7.53779 3.52261L3.7751 7.39272H15.7497C19.6355 7.39272 22.7497 10.6269 22.7497 14.5714C22.7497 18.516 19.6355 21.7501 15.7497 21.7501H6.99971C6.58566 21.75 6.24979 21.4142 6.24971 21.0001C6.24971 20.586 6.5856 20.2503 6.99971 20.2501H15.7497C18.7675 20.2501 21.2497 17.7277 21.2497 14.5714C21.2497 11.4152 18.7675 8.89272 15.7497 8.89272H3.7751L7.53779 12.7628C7.82642 13.0598 7.81988 13.5346 7.52314 13.8234C7.22626 14.112 6.75137 14.1054 6.4626 13.8087L1.4626 8.66518C1.17964 8.37409 1.17961 7.91134 1.4626 7.62026L6.4626 2.47671Z" fill="#1C274C"/>
</svg>
