<svg width="24" height="24" viewBox="0 0 24 24" fill="none" xmlns="http://www.w3.org/2000/svg">
<path d="M17 2C18.8856 2 19.8283 2.00015 20.4141 2.58594C20.9998 3.17172 21 4.11438 21 6V21.25H22C22.4142 21.25 22.75 21.5858 22.75 22C22.75 22.4142 22.4142 22.75 22 22.75H2C1.58579 22.75 1.25 22.4142 1.25 22C1.25 21.5858 1.58579 21.25 2 21.25H3V9C3 7.11438 3.00015 6.17172 3.58594 5.58594C4.17172 5.00015 5.11438 5 7 5H11C12.8856 5 13.8283 5.00015 14.4141 5.58594C14.9998 6.17172 15 7.11438 15 9V21.25H16.5V8.91016C16.5001 8.04466 16.4999 7.25101 16.4131 6.60547C16.3175 5.89455 16.0926 5.14339 15.4746 4.52539C14.8566 3.90739 14.1054 3.68251 13.3945 3.58691C12.758 3.50133 11.9774 3.49992 11.126 3.5C11.2103 3.11276 11.3511 2.82074 11.5859 2.58594C12.1717 2.00015 13.1144 2 15 2H17ZM9 18.25C8.58579 18.25 8.25 18.5858 8.25 19V21.25H9.75V19C9.75 18.5858 9.41421 18.25 9 18.25ZM6 13.25C5.58579 13.25 5.25 13.5858 5.25 14C5.25 14.4142 5.58579 14.75 6 14.75H12C12.4142 14.75 12.75 14.4142 12.75 14C12.75 13.5858 12.4142 13.25 12 13.25H6ZM6 10.25C5.58579 10.25 5.25 10.5858 5.25 11C5.25 11.4142 5.58579 11.75 6 11.75H12C12.4142 11.75 12.75 11.4142 12.75 11C12.75 10.5858 12.4142 10.25 12 10.25H6ZM6 7.25C5.58579 7.25 5.25 7.58579 5.25 8C5.25 8.41421 5.58579 8.75 6 8.75H12C12.4142 8.75 12.75 8.41421 12.75 8C12.75 7.58579 12.4142 7.25 12 7.25H6Z" fill="#48465C"/>
</svg>
