<svg width="24" height="24" viewBox="0 0 24 24" fill="none" xmlns="http://www.w3.org/2000/svg">
<path d="M12 1.25C17.9371 1.25 22.75 6.06294 22.75 12C22.75 17.9371 17.9371 22.75 12 22.75C6.06294 22.75 1.25 17.9371 1.25 12C1.25 6.06294 6.06294 1.25 12 1.25ZM12 2.75C6.89137 2.75 2.75 6.89137 2.75 12C2.75 17.1086 6.89137 21.25 12 21.25C17.1086 21.25 21.25 17.1086 21.25 12C21.25 6.89137 17.1086 2.75 12 2.75ZM10.4697 8.46973C10.7626 8.17684 11.2374 8.17684 11.5303 8.46973C11.8232 8.76261 11.8232 9.23739 11.5303 9.53027L9.81055 11.25H16C16.4142 11.25 16.75 11.5858 16.75 12C16.75 12.4142 16.4142 12.75 16 12.75H9.81055L11.5303 14.4697C11.8232 14.7626 11.8232 15.2374 11.5303 15.5303C11.2374 15.8232 10.7626 15.8232 10.4697 15.5303L7.46973 12.5303C7.17684 12.2374 7.17684 11.7626 7.46973 11.4697L10.4697 8.46973Z" fill="#1C274C"/>
</svg>
