<svg width="24" height="24" viewBox="0 0 24 24" fill="none" xmlns="http://www.w3.org/2000/svg">
<path d="M12 2C17.5228 2 22 6.47715 22 12C22 17.1565 18.7169 16.7323 15.9131 16.3701C14.2962 16.1612 12.8384 15.973 12.2617 16.8877C11.8673 17.5131 12.2936 18.2934 12.8164 18.8164C13.4699 19.4699 13.4699 20.5301 12.8164 21.1836C12.2934 21.7064 11.5813 22.0189 10.8467 21.9346C5.86705 21.3627 2 17.1328 2 12C2 6.47715 6.47715 2 12 2ZM6.5 10C5.67157 10 5 10.6716 5 11.5C5 12.3284 5.67157 13 6.5 13C7.32843 13 8 12.3284 8 11.5C8 10.6716 7.32843 10 6.5 10ZM17.5 10C16.6716 10 16 10.6716 16 11.5C16 12.3284 16.6716 13 17.5 13C18.3284 13 19 12.3284 19 11.5C19 10.6716 18.3284 10 17.5 10ZM9.58496 5.5C8.75656 5.50002 8.08496 6.17158 8.08496 7C8.08509 7.8283 8.75664 8.49998 9.58496 8.5C10.4133 8.5 11.0848 7.82831 11.085 7C11.085 6.17157 10.4134 5.5 9.58496 5.5ZM14.5 5.5C13.6716 5.5 13 6.17158 13 7C13 7.82842 13.6716 8.5 14.5 8.5C15.3284 8.5 16 7.82842 16 7C16 6.17158 15.3284 5.5 14.5 5.5Z" fill="#1C274C"/>
</svg>
