<svg width="24" height="24" viewBox="0 0 24 24" fill="none" xmlns="http://www.w3.org/2000/svg">
<path d="M21 14.25C21.4142 14.25 21.75 14.5858 21.75 15V15.0547C21.75 16.4222 21.7503 17.5246 21.6338 18.3916C21.5128 19.2917 21.2533 20.0495 20.6514 20.6514C20.0494 21.2533 19.2917 21.5128 18.3916 21.6338C17.5246 21.7503 16.4222 21.75 15.0547 21.75H8.94531C7.57782 21.75 6.47534 21.7503 5.6084 21.6338C4.7083 21.5128 3.95055 21.2533 3.34863 20.6514C2.74671 20.0495 2.48723 19.2917 2.36621 18.3916C2.24968 17.5246 2.24998 16.4222 2.25 15.0547V15C2.25 14.5858 2.58579 14.25 3 14.25C3.41422 14.25 3.75 14.5858 3.75 15C3.75 16.4354 3.75196 17.437 3.85352 18.1924C3.95218 18.9258 4.13249 19.3141 4.40918 19.5908C4.68594 19.8676 5.07482 20.0478 5.80859 20.1465C6.5639 20.2479 7.56485 20.25 9 20.25H15C16.4354 20.25 17.437 20.248 18.1924 20.1465C18.9258 20.0478 19.3141 19.8676 19.5908 19.5908C19.8676 19.3141 20.0478 18.9258 20.1465 18.1924C20.248 17.437 20.25 16.4354 20.25 15C20.25 14.5858 20.5858 14.25 21 14.25ZM12 2.25C12.2106 2.25 12.4116 2.33874 12.5537 2.49414L16.5537 6.86914C16.833 7.17485 16.8115 7.64928 16.5059 7.92871C16.2002 8.20799 15.7257 8.18648 15.4463 7.88086L12.75 4.93164V16C12.75 16.4142 12.4142 16.75 12 16.75C11.5858 16.75 11.25 16.4142 11.25 16V4.93164L8.55371 7.88086C8.27428 8.18649 7.79986 8.20801 7.49414 7.92871C7.18851 7.64928 7.167 7.17485 7.44629 6.86914L11.4463 2.49414C11.5884 2.33874 11.7894 2.25 12 2.25Z" fill="#1C274C"/>
</svg>
