<svg width="24" height="24" viewBox="0 0 24 24" fill="none" xmlns="http://www.w3.org/2000/svg">
<path d="M12.3605 4C15.5357 4 17.1236 4.00011 18.2345 4.92188C19.3454 5.84382 19.6385 7.40439 20.2238 10.5254C21.0467 14.9143 21.4575 17.1093 20.2579 18.5547C19.0583 19.9999 16.8256 20 12.3605 20H11.6398C7.17436 20 4.94095 20.0002 3.74133 18.5547C2.54178 17.1093 2.95358 14.9142 3.77649 10.5254C4.36164 7.4046 4.65407 5.84384 5.76477 4.92188C6.87567 3.99992 8.4642 4 11.6398 4H12.3605ZM11.6398 5.5C10.0143 5.5 8.9319 5.50231 8.11243 5.60352C7.3341 5.69968 6.97455 5.86722 6.72278 6.07617C6.47109 6.28512 6.24095 6.6074 6.00305 7.35449C5.75255 8.14125 5.55065 9.20418 5.2511 10.8018C4.83116 13.0415 4.54919 14.5631 4.49915 15.709C4.45094 16.8135 4.6358 17.2836 4.89563 17.5967C5.15551 17.9098 5.58334 18.1778 6.67786 18.334C7.81336 18.496 9.36086 18.5 11.6398 18.5H12.3605C14.6394 18.5 16.1869 18.496 17.3224 18.334C18.4168 18.1778 18.8447 17.9098 19.1046 17.5967C19.3643 17.2836 19.5493 16.8134 19.5011 15.709C19.4511 14.5631 19.1691 13.0415 18.7491 10.8018C18.4496 9.2042 18.2477 8.14125 17.9972 7.35449C17.7593 6.60722 17.5282 6.28511 17.2765 6.07617C17.0247 5.86733 16.6658 5.69964 15.8878 5.60352C15.0683 5.50229 13.9861 5.5 12.3605 5.5H11.6398ZM14.1222 7.75C14.2603 7.35952 14.6888 7.15504 15.0792 7.29297C15.4697 7.43101 15.6743 7.85947 15.5363 8.25C15.0218 9.70539 13.634 10.75 12.0001 10.75C10.3662 10.75 8.97844 9.70538 8.46399 8.25C8.32595 7.85947 8.53048 7.43101 8.92102 7.29297C9.31154 7.15494 9.73999 7.3595 9.87805 7.75C10.1873 8.62487 11.0217 9.24995 12.0001 9.25C12.9786 9.25 13.813 8.6249 14.1222 7.75Z" fill="#1C274C"/>
</svg>
