<svg width="24" height="24" viewBox="0 0 24 24" fill="none" xmlns="http://www.w3.org/2000/svg">
<path d="M13.7793 4C17.6545 4 19.5919 4.00033 20.7959 5.17188C21.9997 6.34346 22 8.22881 22 12C22 15.7712 21.9998 17.6566 20.7959 18.8281C19.5919 19.9997 17.6545 20 13.7793 20H11.1416C8.91456 20 7.80072 20.0003 6.87109 19.499C5.94144 18.9976 5.35133 18.0781 4.1709 16.2402L3.49023 15.1797C2.49704 13.6333 2 12.8604 2 12C2 11.1396 2.49703 10.3667 3.49023 8.82031L4.1709 7.75977C5.35133 5.92187 5.94144 5.00238 6.87109 4.50098C7.80072 3.99966 8.91457 4 11.1416 4H13.7793ZM16.0303 8.96973C15.7374 8.67685 15.2626 8.67688 14.9697 8.96973L13 10.9395L11.0303 8.96973C10.7374 8.67684 10.2626 8.67685 9.96973 8.96973C9.67684 9.26262 9.67684 9.73741 9.96973 10.0303L11.9395 12L9.96973 13.9697C9.67684 14.2626 9.67684 14.7374 9.96973 15.0303C10.2627 15.3232 10.7374 15.3232 11.0303 15.0303L13 13.0605L14.9697 15.0303C15.2626 15.3231 15.7374 15.3232 16.0303 15.0303C16.3232 14.7374 16.3232 14.2625 16.0303 13.9697L14.0605 12L16.0303 10.0303C16.3231 9.73733 16.3232 9.2626 16.0303 8.96973Z" fill="#1C274C"/>
</svg>
