<svg width="24" height="24" viewBox="0 0 24 24" fill="none" xmlns="http://www.w3.org/2000/svg">
<path d="M12.0576 1.25C14.3657 1.24999 16.1745 1.24974 17.5859 1.43945C19.0306 1.63369 20.1706 2.03977 21.0654 2.93457C21.9602 3.82938 22.3662 4.96932 22.5605 6.41406C22.7502 7.82544 22.75 9.63432 22.75 11.9424V12.0576C22.75 14.3657 22.7502 16.1745 22.5605 17.5859C22.3662 19.0306 21.9602 20.1706 21.0654 21.0654C20.1706 21.9602 19.0306 22.3662 17.5859 22.5605C16.1745 22.7502 14.3657 22.75 12.0576 22.75H11.9424C9.63432 22.75 7.82544 22.7502 6.41406 22.5605C4.96932 22.3662 3.82938 21.9602 2.93457 21.0654C2.03977 20.1706 1.63369 19.0306 1.43945 17.5859C1.24974 16.1745 1.24999 14.3657 1.25 12.0576V11.9424C1.24999 9.63432 1.24974 7.82544 1.43945 6.41406C1.63369 4.96932 2.03976 3.82938 2.93457 2.93457C3.82938 2.03976 4.96932 1.63369 6.41406 1.43945C7.82544 1.24974 9.63434 1.24999 11.9424 1.25H12.0576ZM12 2.75C9.62177 2.75 7.91326 2.75198 6.61328 2.92676C5.33508 3.09865 4.56472 3.42551 3.99512 3.99512C3.42551 4.56472 3.09865 5.33508 2.92676 6.61328C2.75198 7.91326 2.75 9.62177 2.75 12C2.75 14.3782 2.75198 16.0867 2.92676 17.3867C3.09865 18.6649 3.42551 19.4352 3.99512 20.0049C4.56472 20.5745 5.33508 20.9014 6.61328 21.0732C7.91326 21.248 9.62177 21.25 12 21.25C14.3782 21.25 16.0867 21.248 17.3867 21.0732C18.6649 20.9014 19.4352 20.5745 20.0049 20.0049C20.5745 19.4352 20.9014 18.6649 21.0732 17.3867C21.248 16.0867 21.25 14.3782 21.25 12C21.25 9.62177 21.248 7.91326 21.0732 6.61328C20.9014 5.33508 20.5745 4.56472 20.0049 3.99512C19.4352 3.42551 18.6649 3.09865 17.3867 2.92676C16.0867 2.75198 14.3782 2.75 12 2.75ZM15.3525 5.62109C15.5619 5.26376 16.0215 5.14341 16.3789 5.35254C16.7363 5.56181 16.8565 6.02152 16.6475 6.37891L12.8691 12.8301L13.9805 14.7275C14.4609 14.0703 15.2522 13.6504 16.125 13.6504C17.5456 13.6504 18.75 14.7633 18.75 16.2002C18.75 17.6371 17.5456 18.75 16.125 18.75C15.1328 18.75 14.2463 18.2069 13.8018 17.3896L12 14.3145L10.1982 17.3896C9.75369 18.2069 8.86728 18.75 7.875 18.75C6.45442 18.75 5.25004 17.6371 5.25 16.2002C5.25 14.7633 6.4544 13.6504 7.875 13.6504C8.74782 13.6504 9.53909 14.0703 10.0195 14.7275L11.1309 12.8301L7.35254 6.37891C7.14346 6.02152 7.26378 5.56181 7.62109 5.35254C7.97849 5.14343 8.43818 5.26376 8.64746 5.62109L12 11.3457L15.3525 5.62109ZM7.875 15.1504C7.22453 15.1504 6.75 15.6489 6.75 16.2002C6.75004 16.7515 7.22456 17.25 7.875 17.25C8.52544 17.25 8.99996 16.7515 9 16.2002C9 15.6489 8.52547 15.1504 7.875 15.1504ZM16.125 15.1504C15.4745 15.1504 15 15.6489 15 16.2002C15 16.7515 15.4745 17.25 16.125 17.25C16.7755 17.25 17.25 16.7515 17.25 16.2002C17.25 15.6489 16.7755 15.1504 16.125 15.1504Z" fill="#1C274C"/>
</svg>
