<svg width="24" height="24" viewBox="0 0 24 24" fill="none" xmlns="http://www.w3.org/2000/svg">
<path d="M8.46973 14.4697C8.76262 14.1768 9.23738 14.1768 9.53027 14.4697C9.82316 14.7626 9.82316 15.2374 9.53027 15.5303L3.81055 21.25H7.85742C8.27151 21.2502 8.60742 21.5859 8.60742 22C8.60741 22.4141 8.2715 22.7498 7.85742 22.75H2C1.5858 22.75 1.25001 22.4142 1.25 22V16.1426C1.25016 15.7284 1.58589 15.3926 2 15.3926C2.41411 15.3926 2.74984 15.7284 2.75 16.1426V20.1895L8.46973 14.4697ZM22 1.25C22.4142 1.25001 22.75 1.5858 22.75 2V7.85742C22.7498 8.2715 22.4141 8.60741 22 8.60742C21.5859 8.60742 21.2502 8.27151 21.25 7.85742V3.81055L15.5303 9.53027C15.2374 9.82316 14.7626 9.82316 14.4697 9.53027C14.1768 9.23738 14.1768 8.76262 14.4697 8.46973L20.1895 2.75H16.1426C15.7284 2.74984 15.3926 2.41411 15.3926 2C15.3926 1.58589 15.7284 1.25016 16.1426 1.25H22Z" fill="#1C274C"/>
</svg>
