<svg width="24" height="24" viewBox="0 0 24 24" fill="none" xmlns="http://www.w3.org/2000/svg">
<path d="M10.915 18.8877C11.395 18.048 12.605 18.048 13.085 18.8877L14.2236 20.8799C14.6998 21.7131 14.0983 22.7498 13.1387 22.75H10.8613C9.90171 22.7498 9.30025 21.7131 9.77637 20.8799L10.915 18.8877ZM11.292 21.25H12.708L12 20.0117L11.292 21.25ZM8.5 3.25C8.91421 3.25 9.25 3.58579 9.25 4C9.25 4.41421 8.91421 4.75 8.5 4.75H7.75V19.25H8.5C8.91421 19.25 9.25 19.5858 9.25 20C9.25 20.4142 8.91421 20.75 8.5 20.75H7.94531C7.6318 20.75 7.33189 20.7504 7.0459 20.749C7.03073 20.7499 7.0154 20.75 7 20.75C6.98169 20.75 6.96329 20.7492 6.94531 20.748C6.02801 20.7423 5.25312 20.7205 4.6084 20.6338C3.70829 20.5128 2.95055 20.2533 2.34863 19.6514C1.74673 19.0494 1.48723 18.2917 1.36621 17.3916C1.24968 16.5246 1.24998 15.4222 1.25 14.0547V9.94531C1.24998 8.57782 1.24968 7.47534 1.36621 6.6084C1.48723 5.70829 1.74671 4.95055 2.34863 4.34863C2.95055 3.74671 3.70829 3.48723 4.6084 3.36621C5.25311 3.27955 6.02801 3.25764 6.94531 3.25195C6.96329 3.25066 6.98169 3.25 7 3.25C7.0154 3.25 7.03073 3.25006 7.0459 3.25098C7.33189 3.24958 7.63179 3.24999 7.94531 3.25H8.5ZM16.9541 3.25098C16.9693 3.25006 16.9845 3.25 17 3.25C17.0183 3.25 17.0368 3.25066 17.0547 3.25195C17.972 3.25764 18.7468 3.27956 19.3916 3.36621C20.2917 3.48723 21.0494 3.74673 21.6514 4.34863C22.2533 4.95055 22.5128 5.70829 22.6338 6.6084C22.7503 7.47534 22.75 8.57782 22.75 9.94531V14.0547C22.75 15.4222 22.7503 16.5246 22.6338 17.3916C22.5128 18.2917 22.2533 19.0494 21.6514 19.6514C21.0494 20.2533 20.2917 20.5128 19.3916 20.6338C18.7468 20.7205 17.972 20.7423 17.0547 20.748C17.0368 20.7492 17.0183 20.75 17 20.75C16.9845 20.75 16.9693 20.7499 16.9541 20.749C16.6681 20.7504 16.3682 20.75 16.0547 20.75H15.5C15.0858 20.75 14.75 20.4142 14.75 20C14.75 19.5858 15.0858 19.25 15.5 19.25H16.25V4.75H15.5C15.0858 4.75 14.75 4.41421 14.75 4C14.75 3.58579 15.0858 3.25 15.5 3.25H16.0547C16.3682 3.24999 16.6681 3.24958 16.9541 3.25098ZM2.76074 15.75C2.773 16.319 2.79951 16.7907 2.85352 17.1924C2.95218 17.9258 3.13249 18.3141 3.40918 18.5908C3.68594 18.8676 4.07482 19.0478 4.80859 19.1465C5.21018 19.2004 5.68116 19.227 6.25 19.2393V15.75H2.76074ZM17.75 19.2393C18.319 19.227 18.7907 19.2005 19.1924 19.1465C19.9258 19.0478 20.3141 18.8676 20.5908 18.5908C20.8676 18.3141 21.0478 17.9258 21.1465 17.1924C21.2005 16.7907 21.227 16.319 21.2393 15.75H17.75V19.2393ZM12 14.75C12.4142 14.75 12.75 15.0858 12.75 15.5V16.5C12.75 16.9142 12.4142 17.25 12 17.25C11.5858 17.25 11.25 16.9142 11.25 16.5V15.5C11.25 15.0858 11.5858 14.75 12 14.75ZM2.75 14.25H6.25V9.75H2.75V14.25ZM17.75 14.25H21.25V9.75H17.75V14.25ZM12 10.75C12.4142 10.75 12.75 11.0858 12.75 11.5V12.5C12.75 12.9142 12.4142 13.25 12 13.25C11.5858 13.25 11.25 12.9142 11.25 12.5V11.5C11.25 11.0858 11.5858 10.75 12 10.75ZM12 6.75C12.4142 6.75 12.75 7.08579 12.75 7.5V8.5C12.75 8.91421 12.4142 9.25 12 9.25C11.5858 9.25 11.25 8.91421 11.25 8.5V7.5C11.25 7.08579 11.5858 6.75 12 6.75ZM6.25 4.76074C5.68117 4.773 5.21018 4.79954 4.80859 4.85352C4.07482 4.95217 3.68594 5.13242 3.40918 5.40918C3.13242 5.68594 2.95217 6.07482 2.85352 6.80859C2.79954 7.21018 2.773 7.68117 2.76074 8.25H6.25V4.76074ZM17.75 8.25H21.2393C21.227 7.68116 21.2004 7.21018 21.1465 6.80859C21.0478 6.07481 20.8676 5.68594 20.5908 5.40918C20.3141 5.13249 19.9258 4.95218 19.1924 4.85352C18.7907 4.79951 18.319 4.773 17.75 4.76074V8.25ZM13.1387 1.25C14.0983 1.25019 14.6998 2.28688 14.2236 3.12012L13.085 5.1123C12.605 5.95196 11.395 5.95197 10.915 5.1123L9.77637 3.12012C9.30023 2.28688 9.9017 1.2502 10.8613 1.25H13.1387ZM12 3.98828L12.708 2.75H11.292L12 3.98828Z" fill="#1C274C"/>
</svg>
