<svg width="24" height="24" viewBox="0 0 24 24" fill="none" xmlns="http://www.w3.org/2000/svg">
<path d="M17.0001 3.75C17.4142 3.75003 17.7501 4.08581 17.7501 4.5C17.7501 4.91419 17.4142 5.24997 17.0001 5.25C15.2445 5.25 14.2194 5.96493 13.6085 6.81348C12.9701 7.70021 12.7501 8.78675 12.7501 9.5V17.6895L16.4698 13.9697C16.7627 13.6769 17.2374 13.6768 17.5303 13.9697C17.8232 14.2626 17.8232 14.7374 17.5303 15.0303L12.5303 20.0303C12.2374 20.3232 11.7627 20.3231 11.4698 20.0303L6.46979 15.0303C6.1769 14.7374 6.1769 14.2626 6.46979 13.9697C6.76268 13.6769 7.23746 13.6768 7.53033 13.9697L11.2501 17.6895V9.5C11.2501 8.54665 11.5302 7.13307 12.3917 5.93652C13.2808 4.7019 14.7559 3.75 17.0001 3.75Z" fill="#1C274C"/>
</svg>
