<svg width="24" height="24" viewBox="0 0 24 24" fill="none" xmlns="http://www.w3.org/2000/svg">
<path d="M11 22C11 22.4142 10.6642 22.75 10.25 22.75C9.83579 22.75 9.5 22.4142 9.5 22V20H4.23242C2.99952 19.9999 2.00006 18.834 2 17.3955V11.25C2.00003 8.35054 4.01474 6 6.5 6C8.98526 6 11 8.35054 11 11.25V22ZM14.5 10.2812C14.5003 11.4522 15.4283 12.5 16.6924 12.5C17.9565 12.5 18.8845 11.4521 18.8848 10.2812V8.22754C19.6456 8.43291 20.4444 8.45726 21.2197 8.29492C21.7119 9.13665 22 10.1541 22 11.25V17.4258C21.9998 18.8476 21.0117 20 19.793 20H15V22C15 22.4142 14.6642 22.75 14.25 22.75C13.8358 22.75 13.5 22.4142 13.5 22V20H12.5V11.25C12.5 9.22016 11.6675 7.27603 10.2822 6H14.5V10.2812ZM5 15.25C4.58581 15.25 4.25004 15.5858 4.25 16C4.25 16.4142 4.58579 16.75 5 16.75H8C8.41421 16.75 8.75 16.4142 8.75 16C8.74996 15.5858 8.41419 15.25 8 15.25H5ZM17.3789 2.06836C18.0491 1.93425 18.742 1.99806 19.3789 2.25293L19.4521 2.28223C19.8327 2.43458 20.2491 2.46347 20.6455 2.36426C21.3358 2.1916 21.9998 2.73501 22 3.47266V5.60352C22 6.1631 21.631 6.6502 21.1074 6.78125L21.0459 6.7959C20.3269 6.97584 19.572 6.92468 18.8818 6.64844C18.4867 6.49026 18.0563 6.44998 17.6406 6.5332L17.3848 6.58496V10.2812C17.3845 10.6783 17.0746 11 16.6924 11C16.3102 11 16.0003 10.6783 16 10.2812V3.32812C16.0002 2.75716 16.3901 2.26637 16.9297 2.1582L17.3789 2.06836Z" fill="#1C274C"/>
</svg>
