<svg width="24" height="24" viewBox="0 0 24 24" fill="none" xmlns="http://www.w3.org/2000/svg">
<path d="M13.4395 1.25C13.5528 1.24998 13.6411 1.24985 13.7246 1.25488C14.785 1.31911 15.7142 1.9889 16.1104 2.97461C16.1416 3.05212 16.1693 3.1358 16.2051 3.24316L16.2373 3.33984C16.2561 3.39616 16.262 3.4122 16.2666 3.4248C16.4265 3.86682 16.9569 4.23558 17.5186 4.25L19.3389 4.33887C20.1249 4.43127 20.7983 4.628 21.3672 5.09082C21.5658 5.25247 21.7475 5.43414 21.9092 5.63281C22.372 6.20162 22.5687 6.87509 22.6611 7.66113C22.7503 8.42089 22.75 9.37668 22.75 10.5615V10.6406C22.75 10.9242 22.7503 11.1901 22.7275 11.4141C22.7024 11.662 22.6444 11.9255 22.4863 12.1797C22.435 12.2623 22.3769 12.3411 22.3125 12.4141C22.1434 12.6057 21.9461 12.7289 21.749 12.8203C21.7461 14.4355 21.726 16.0686 21.5811 17.4668C21.4961 18.2858 21.3658 19.0552 21.1592 19.7109C20.9558 20.3557 20.6557 20.9663 20.1807 21.3887C19.3572 22.1206 18.3201 22.4439 17.0264 22.5986C15.7565 22.7503 14.1285 22.75 12.0508 22.75H11.9492C9.8715 22.75 8.2435 22.7503 6.97363 22.5986C5.67991 22.4439 4.64278 22.1206 3.81934 21.3887C3.34431 20.9663 3.04413 20.3557 2.84082 19.7109C2.63412 19.0552 2.50388 18.2858 2.41895 17.4668C2.27401 16.0686 2.25288 14.4355 2.25 12.8203C2.05307 12.7289 1.85647 12.6055 1.6875 12.4141C1.62313 12.3411 1.56505 12.2623 1.51367 12.1797C1.3557 11.9255 1.29761 11.662 1.27246 11.4141C1.24977 11.1901 1.24997 10.9242 1.25 10.6406V10.5615C1.24999 9.37664 1.2496 8.42087 1.33887 7.66113C1.43127 6.87508 1.628 6.20162 2.09082 5.63281C2.25248 5.43414 2.43415 5.25247 2.63281 5.09082C3.20162 4.628 3.87508 4.43127 4.66113 4.33887L6.48145 4.25C7.04331 4.23558 7.57455 3.86666 7.73438 3.4248C7.73895 3.41216 7.74395 3.39608 7.7627 3.33984L7.78906 3.2627L7.79492 3.24316C7.83074 3.13565 7.85945 3.05222 7.89062 2.97461C8.28688 1.98894 9.215 1.31915 10.2754 1.25488C10.3589 1.24983 10.4472 1.24998 10.5605 1.25H13.4395ZM15.25 14.8076V15.1611C15.25 15.6722 14.9385 16.1325 14.4639 16.3223L13.7637 16.6025C12.6316 17.0553 11.3685 17.0553 10.2363 16.6025L9.53613 16.3223C9.06155 16.1325 8.75 15.6722 8.75 15.1611V14.8076L3.75195 13.3086C3.75875 14.7453 3.78821 16.1257 3.91113 17.3115C3.99096 18.0815 4.10752 18.7396 4.27148 19.2598C4.43877 19.7903 4.63279 20.1043 4.81641 20.2676C5.31099 20.7072 5.99427 20.9711 7.15137 21.1094C8.32185 21.2492 9.85988 21.25 12 21.25C14.1401 21.25 15.6781 21.2492 16.8486 21.1094C18.0057 20.9711 18.689 20.7072 19.1836 20.2676C19.3672 20.1043 19.5612 19.7903 19.7285 19.2598C19.8924 18.7396 20.0091 18.0815 20.0889 17.3115C20.2118 16.1257 20.2412 14.7453 20.248 13.3086L15.25 14.8076ZM10.25 14.9922L10.793 15.209C11.5678 15.519 12.4322 15.519 13.207 15.209L13.75 14.9922V13.25H10.25V14.9922ZM7.57031 5.75C6.34777 5.75004 5.49199 5.75215 4.83691 5.8291C4.19129 5.90496 3.83827 6.04481 3.58008 6.25488C3.46085 6.35189 3.35189 6.46085 3.25488 6.58008C3.04481 6.83827 2.90497 7.1913 2.8291 7.83691C2.75135 8.49888 2.75 9.36623 2.75 10.6094C2.75 10.9349 2.75057 11.1236 2.76465 11.2627C2.77299 11.3449 2.78415 11.3791 2.78809 11.3887L8.75 13.2422L2.8125 11.4209C2.82061 11.4274 2.84942 11.4479 2.92578 11.4795C3.05501 11.5331 3.23564 11.588 3.54785 11.6816L8.75 13.2422V13C8.75 12.3096 9.30966 11.75 10 11.75H14C14.6904 11.75 15.25 12.3096 15.25 13V13.2422L20.4521 11.6816C20.7643 11.588 20.945 11.5331 21.0742 11.4795C21.1506 11.4479 21.1794 11.4274 21.1875 11.4209C21.1964 11.4108 21.2047 11.4002 21.2119 11.3887C21.2158 11.3791 21.227 11.3449 21.2354 11.2627C21.2494 11.1236 21.25 10.9349 21.25 10.6094C21.25 9.36623 21.2487 8.49888 21.1709 7.83691C21.095 7.19129 20.9551 6.83827 20.7451 6.58008C20.6481 6.46086 20.5391 6.35189 20.4199 6.25488C20.1617 6.04482 19.8086 5.90496 19.1631 5.8291C18.5079 5.75216 17.6522 5.75004 16.4297 5.75H7.57031ZM10.3662 2.75195C9.88418 2.78114 9.46235 3.08614 9.28223 3.53418C9.27021 3.56412 9.25712 3.60172 9.21191 3.7373L9.18359 3.82227C9.16856 3.86738 9.15646 3.90257 9.14453 3.93555C9.10511 4.04453 9.05886 4.14952 9.00586 4.25H14.9951C14.942 4.14945 14.895 4.04461 14.8555 3.93555C14.8436 3.90259 14.8324 3.86733 14.8174 3.82227L14.7891 3.7373C14.744 3.60198 14.7307 3.5641 14.7188 3.53418C14.5387 3.08628 14.1166 2.7813 13.6348 2.75195C13.6025 2.75 13.5623 2.75 13.4189 2.75H10.5811C10.438 2.75 10.3984 2.75001 10.3662 2.75195Z" fill="#48465C"/>
</svg>
