<svg width="24" height="24" viewBox="0 0 24 24" fill="none" xmlns="http://www.w3.org/2000/svg">
<path d="M12 2C17.5228 2 22 6.47715 22 12C22 17.5228 17.5228 22 12 22C6.47715 22 2 17.5228 2 12C2 6.47715 6.47715 2 12 2ZM9.03027 8.46973C8.73738 8.17684 8.26262 8.17684 7.96973 8.46973C7.67684 8.76262 7.67684 9.23738 7.96973 9.53027L10.4395 12L7.96973 14.4697C7.67684 14.7626 7.67684 15.2374 7.96973 15.5303C8.26261 15.8232 8.73739 15.8232 9.03027 15.5303L12.0303 12.5303C12.3232 12.2374 12.3232 11.7626 12.0303 11.4697L9.03027 8.46973ZM13.0303 8.46973C12.7374 8.17684 12.2626 8.17684 11.9697 8.46973C11.6768 8.76261 11.6768 9.23739 11.9697 9.53027L14.4395 12L11.9697 14.4697C11.6768 14.7626 11.6768 15.2374 11.9697 15.5303C12.2626 15.8232 12.7374 15.8232 13.0303 15.5303L16.0303 12.5303C16.3232 12.2374 16.3232 11.7626 16.0303 11.4697L13.0303 8.46973Z" fill="#48465C"/>
</svg>
