<svg width="24" height="24" viewBox="0 0 24 24" fill="none" xmlns="http://www.w3.org/2000/svg">
<path d="M7.27612 3.89258C10.8158 0.368986 16.5537 0.369162 20.0935 3.89258C23.6351 7.41812 23.635 13.1355 20.0935 16.6611L16.4187 20.3193C14.5025 22.2268 11.3973 22.2268 9.4812 20.3193C7.56324 18.4099 7.56315 15.3127 9.4812 13.4033L12.4207 10.4775C12.714 10.1854 13.189 10.1862 13.4812 10.4795C13.7735 10.7729 13.7727 11.2478 13.4792 11.54L10.5398 14.4668C9.21068 15.7898 9.21068 17.9338 10.5398 19.2568C11.8707 20.5814 14.0303 20.5816 15.3611 19.2568L19.0359 15.5986C21.9884 12.6595 21.9883 7.89527 19.0359 4.95605C16.0814 2.01493 11.2893 2.01493 8.33472 4.95605L4.65991 8.61426C2.11342 11.1494 2.1134 15.2578 4.65991 17.793C4.95334 18.085 4.95466 18.5599 4.66284 18.8535C4.37062 19.147 3.89488 19.1486 3.60132 18.8564C0.46577 15.735 0.465786 10.6723 3.60132 7.55078L7.27612 3.89258Z" fill="#1C274C"/>
</svg>
