<svg width="24" height="24" viewBox="0 0 24 24" fill="none" xmlns="http://www.w3.org/2000/svg">
<path d="M2 13.25C2.41421 13.25 2.75 13.5858 2.75 14C2.75 15.9067 2.7515 17.2614 2.88965 18.2891C3.02491 19.2951 3.27894 19.8747 3.70215 20.2979C4.12536 20.7211 4.70485 20.9752 5.71094 21.1104C6.73859 21.2485 8.09325 21.25 10 21.25C10.4142 21.25 10.75 21.5858 10.75 22C10.75 22.4142 10.4142 22.75 10 22.75H9.94336C8.10571 22.75 6.6499 22.7498 5.51074 22.5967C4.33844 22.439 3.38992 22.1066 2.6416 21.3584C1.89332 20.6101 1.56095 19.6615 1.40332 18.4893C1.25016 17.3501 1.24998 15.8943 1.25 14.0566V14C1.25 13.5858 1.58579 13.25 2 13.25ZM22 13.25C22.4142 13.25 22.75 13.5858 22.75 14V14.0566C22.75 15.8943 22.7498 17.3501 22.5967 18.4893C22.439 19.6615 22.1066 20.6101 21.3584 21.3584C20.6101 22.1066 19.6615 22.439 18.4893 22.5967C17.3501 22.7498 15.8943 22.75 14.0566 22.75H14C13.5858 22.75 13.25 22.4142 13.25 22C13.25 21.5858 13.5858 21.25 14 21.25C15.9067 21.25 17.2614 21.2485 18.2891 21.1104C19.2951 20.9752 19.8747 20.7211 20.2979 20.2979C20.7211 19.8747 20.9752 19.2951 21.1104 18.2891C21.2485 17.2614 21.25 15.9067 21.25 14C21.25 13.5858 21.5858 13.25 22 13.25ZM18 13.25C18.4142 13.25 18.75 13.5858 18.75 14V14.5518C18.75 15.4503 18.7499 16.2001 18.6699 16.7949C18.5855 17.4225 18.3997 17.989 17.9443 18.4443C17.489 18.8997 16.9225 19.0855 16.2949 19.1699C15.7001 19.2499 14.9503 19.25 14.0518 19.25H9.94824C9.04975 19.25 8.29986 19.2499 7.70508 19.1699C7.07748 19.0855 6.51102 18.8997 6.05566 18.4443C5.6003 17.989 5.41452 17.4225 5.33008 16.7949C5.25012 16.2001 5.24997 15.4503 5.25 14.5518V14C5.25 13.5858 5.58579 13.25 6 13.25C6.41421 13.25 6.75 13.5858 6.75 14V14.5C6.75 15.464 6.75146 16.1117 6.81641 16.5947C6.87845 17.0561 6.98591 17.2535 7.11621 17.3838C7.24651 17.5141 7.44389 17.6215 7.90527 17.6836C8.38831 17.7485 9.03599 17.75 10 17.75H14C14.964 17.75 15.6117 17.7485 16.0947 17.6836C16.5561 17.6215 16.7535 17.5141 16.8838 17.3838C17.0141 17.2535 17.1215 17.0561 17.1836 16.5947C17.2485 16.1117 17.25 15.464 17.25 14.5V14C17.25 13.5858 17.5858 13.25 18 13.25ZM14.0518 4.75C14.9503 4.74997 15.7001 4.75012 16.2949 4.83008C16.9225 4.91452 17.489 5.1003 17.9443 5.55566C18.3997 6.01102 18.5855 6.57748 18.6699 7.20508C18.7499 7.79986 18.75 8.54975 18.75 9.44824V9.9541C19.2536 10.168 19.6429 10.3755 19.9238 10.5439C20.0977 10.6482 20.23 10.7378 20.3223 10.8037C20.3683 10.8365 20.4044 10.8635 20.4307 10.8838C20.4439 10.894 20.4546 10.9026 20.4629 10.9092L20.4736 10.918L20.4775 10.9209L20.4785 10.9229C20.477 10.9255 20.4486 10.9616 20 11.5L20.4805 10.9238C20.7985 11.1891 20.8412 11.6623 20.5762 11.9805C20.3119 12.2973 19.8415 12.3409 19.5234 12.0791L19.5127 12.0713C19.5011 12.0623 19.4805 12.0461 19.4502 12.0244C19.3894 11.9809 19.29 11.9142 19.1514 11.8311C18.8744 11.6649 18.4386 11.4339 17.8311 11.2002C16.6174 10.7334 14.7084 10.25 12 10.25C9.29157 10.25 7.38259 10.7334 6.16895 11.2002C5.5614 11.4339 5.12565 11.6649 4.84863 11.8311C4.71005 11.9143 4.61065 11.9809 4.54981 12.0244C4.51946 12.0461 4.49887 12.0623 4.48731 12.0713L4.47656 12.0791C4.15847 12.3409 3.68805 12.2973 3.42383 11.9805C3.15872 11.6623 3.20151 11.1891 3.51953 10.9238L3.52148 10.9229L3.52246 10.9209L3.52637 10.918L3.53711 10.9092C3.54538 10.9026 3.55619 10.894 3.56934 10.8838C3.5956 10.8635 3.63174 10.8365 3.67773 10.8037C3.76999 10.7378 3.90233 10.6482 4.07617 10.5439C4.35699 10.3755 4.74644 10.168 5.25 9.9541V9.44824C5.24997 8.54976 5.25012 7.79986 5.33008 7.20508C5.41452 6.57747 5.60031 6.01102 6.05566 5.55566C6.51102 5.10031 7.07747 4.91452 7.70508 4.83008C8.29986 4.75012 9.04976 4.74997 9.94824 4.75H14.0518ZM10 1.25C10.4142 1.25 10.75 1.58579 10.75 2C10.75 2.41421 10.4142 2.75 10 2.75C8.09324 2.75 6.73859 2.75149 5.71094 2.88965C4.70485 3.02491 4.12536 3.27894 3.70215 3.70215C3.27894 4.12536 3.02491 4.70485 2.88965 5.71094C2.75149 6.73859 2.75 8.09324 2.75 10C2.75 10.4142 2.41421 10.75 2 10.75C1.58579 10.75 1.25 10.4142 1.25 10V9.94336C1.24998 8.1057 1.25016 6.64991 1.40332 5.51074C1.56095 4.33844 1.8933 3.38992 2.6416 2.6416C3.38992 1.8933 4.33844 1.56095 5.51074 1.40332C6.64991 1.25016 8.1057 1.24998 9.94336 1.25H10ZM14.0566 1.25C15.8943 1.24998 17.3501 1.25016 18.4893 1.40332C19.6615 1.56095 20.6101 1.89332 21.3584 2.6416C22.1066 3.38992 22.439 4.33844 22.5967 5.51074C22.7498 6.6499 22.75 8.10571 22.75 9.94336V10C22.75 10.4142 22.4142 10.75 22 10.75C21.5858 10.75 21.25 10.4142 21.25 10C21.25 8.09325 21.2485 6.73859 21.1104 5.71094C20.9752 4.70485 20.7211 4.12536 20.2979 3.70215C19.8747 3.27894 19.2951 3.02491 18.2891 2.88965C17.2614 2.7515 15.9067 2.75 14 2.75C13.5858 2.75 13.25 2.41421 13.25 2C13.25 1.58579 13.5858 1.25 14 1.25H14.0566ZM10 6.25C9.03599 6.25 8.38831 6.25146 7.90527 6.31641C7.44388 6.37845 7.24651 6.4859 7.11621 6.61621C6.9859 6.74651 6.87845 6.94388 6.81641 7.40527C6.75313 7.87592 6.75012 8.5032 6.75 9.42676C8.06523 9.04913 9.80125 8.75 12 8.75C14.1987 8.75 15.9348 9.04914 17.25 9.42676C17.2499 8.5032 17.2468 7.87592 17.1836 7.40527C17.1215 6.94389 17.0141 6.74651 16.8838 6.61621C16.7535 6.48591 16.5561 6.37845 16.0947 6.31641C15.6117 6.25146 14.964 6.25 14 6.25H10Z" fill="#1C274C"/>
</svg>
