<svg width="24" height="24" viewBox="0 0 24 24" fill="none" xmlns="http://www.w3.org/2000/svg">
<path d="M9.95605 3.37695C10.2157 2.72743 11.0157 2.42219 11.5723 2.8457C14.9434 5.41373 19.9999 10.3782 20 15C20 19.2545 17.3815 21.1214 15.3584 21.751C14.9272 21.8848 14.6443 21.3825 14.9023 21.0117C15.7827 19.7465 16.7998 17.8158 16.7998 16C16.7997 14.0494 15.1558 11.7465 13.8721 10.3262C13.5786 10.0016 13.0668 10.2168 13.0508 10.6543C12.9977 12.1034 12.7691 14.0421 11.7832 15.5615C11.6245 15.8061 11.2874 15.8263 11.1064 15.5977C10.7983 15.208 10.4897 14.727 10.1816 14.3467C10.0156 14.1419 9.71584 14.1391 9.52441 14.3203C8.77811 15.027 7.7335 16.1289 7.7334 17.5C7.7334 18.4299 8.09353 19.4052 8.5 20.1895C8.72351 20.6209 8.32582 21.1398 7.89551 20.9141C6.11291 19.9785 4 18.0834 4 15C4.00019 11.8536 8.31033 7.49477 9.95605 3.37695Z" fill="#48465C"/>
</svg>
