<svg width="24" height="24" viewBox="0 0 24 24" fill="none" xmlns="http://www.w3.org/2000/svg">
<path d="M12 3.25024C17.3848 3.25024 21.75 7.61546 21.75 13.0002C21.75 18.385 17.3848 22.7502 12 22.7502C6.61523 22.7502 2.25002 18.385 2.25 13.0002C2.25 7.61546 6.61522 3.25024 12 3.25024ZM12 4.75024C7.44365 4.75024 3.75 8.44389 3.75 13.0002C3.75002 17.5565 7.44366 21.2502 12 21.2502C16.5563 21.2502 20.25 17.5565 20.25 13.0002C20.25 8.44389 16.5563 4.75024 12 4.75024ZM9.52148 8.25024C9.73576 8.25023 9.93331 8.24971 10.0986 8.26099C10.2762 8.27312 10.4716 8.3009 10.6699 8.38306C11.0987 8.56068 11.4396 8.90156 11.6172 9.33032C11.6993 9.52868 11.7262 9.72408 11.7383 9.90161C11.7496 10.0669 11.75 10.2646 11.75 10.4788V15.5217C11.75 15.7359 11.7496 15.9336 11.7383 16.0989C11.7262 16.2764 11.6993 16.4719 11.6172 16.6702C11.4396 17.0989 11.0987 17.4398 10.6699 17.6174C10.4716 17.6996 10.2762 17.7264 10.0986 17.7385C9.93331 17.7498 9.73576 17.7502 9.52148 17.7502H9.47852C9.26424 17.7502 9.0667 17.7498 8.90137 17.7385C8.72385 17.7264 8.52842 17.6996 8.33008 17.6174C7.90133 17.4398 7.56044 17.0989 7.38281 16.6702C7.30067 16.4719 7.27387 16.2764 7.26172 16.0989C7.25044 15.9336 7.24999 15.7359 7.25 15.5217V10.4788C7.24999 10.2646 7.25044 10.0669 7.26172 9.90161C7.27386 9.72408 7.30066 9.52868 7.38281 9.33032C7.56043 8.90156 7.90131 8.56068 8.33008 8.38306C8.52844 8.3009 8.72383 8.27312 8.90137 8.26099C9.0667 8.24971 9.26424 8.25023 9.47852 8.25024H9.52148ZM14.5586 8.2395C14.7727 8.23949 14.9695 8.239 15.1348 8.25024C15.3124 8.26236 15.5085 8.29008 15.707 8.37231C16.1357 8.54992 16.4757 8.89094 16.6533 9.31958C16.7356 9.51796 16.7633 9.7133 16.7754 9.89087C16.7867 10.0562 16.7871 10.2538 16.7871 10.468V15.511C16.7871 15.725 16.7867 15.9219 16.7754 16.0872C16.7633 16.2649 16.7356 16.4609 16.6533 16.6594C16.4757 17.0879 16.1355 17.4281 15.707 17.6057C15.5085 17.6879 15.3124 17.7157 15.1348 17.7278C14.9695 17.7391 14.7727 17.7395 14.5586 17.7395H14.5156C14.3013 17.7395 14.1039 17.7391 13.9385 17.7278C13.7609 17.7157 13.5656 17.6879 13.3672 17.6057C12.9386 17.4281 12.5975 17.088 12.4199 16.6594C12.3376 16.4609 12.31 16.2649 12.2979 16.0872C12.2866 15.9219 12.287 15.725 12.2871 15.511V10.468C12.287 10.2538 12.2866 10.0562 12.2979 9.89087C12.31 9.7133 12.3377 9.51797 12.4199 9.31958C12.5975 8.89078 12.9384 8.54992 13.3672 8.37231C13.5656 8.29012 13.7609 8.26237 13.9385 8.25024C14.1039 8.23896 14.3013 8.23949 14.5156 8.2395H14.5586ZM9.00391 9.75806C8.93708 9.76261 8.90873 9.76889 8.90137 9.77075C8.84256 9.79604 8.79578 9.8428 8.77051 9.90161C8.76863 9.90903 8.76236 9.93745 8.75781 10.0042C8.75045 10.1121 8.75 10.2571 8.75 10.5002V15.5002C8.75 15.7434 8.75044 15.8883 8.75781 15.9963C8.76237 16.0631 8.76865 16.0915 8.77051 16.0989C8.79579 16.1576 8.84256 16.2044 8.90137 16.2297C8.90874 16.2316 8.93712 16.2379 9.00391 16.2424C9.11191 16.2498 9.25678 16.2502 9.5 16.2502C9.74322 16.2502 9.88809 16.2498 9.99609 16.2424C10.0628 16.2379 10.0912 16.2316 10.0986 16.2297C10.1574 16.2044 10.2042 16.1577 10.2295 16.0989C10.2314 16.0915 10.2377 16.0631 10.2422 15.9963C10.2496 15.8883 10.25 15.7434 10.25 15.5002V10.5002C10.25 10.2571 10.2496 10.1121 10.2422 10.0042C10.2377 9.93744 10.2314 9.90903 10.2295 9.90161C10.2042 9.84279 10.1574 9.79604 10.0986 9.77075C10.0912 9.76889 10.0629 9.76262 9.99609 9.75806C9.88809 9.75069 9.74323 9.75024 9.5 9.75024C9.25677 9.75024 9.11191 9.75069 9.00391 9.75806ZM14.041 9.74731C13.9744 9.75186 13.9459 9.75812 13.9385 9.76001C13.8796 9.78528 13.8328 9.83204 13.8076 9.89087C13.8057 9.8984 13.7995 9.92691 13.7949 9.99341C13.7876 10.1014 13.7871 10.2464 13.7871 10.4895V15.4895C13.7871 15.7326 13.7876 15.8776 13.7949 15.9856C13.7995 16.0523 13.8057 16.0807 13.8076 16.0881C13.8328 16.1469 13.8796 16.1937 13.9385 16.219C13.946 16.2209 13.9746 16.2272 14.041 16.2317C14.149 16.2391 14.2939 16.2395 14.5371 16.2395C14.7802 16.2395 14.9252 16.2391 15.0332 16.2317C15.0999 16.2272 15.1283 16.2209 15.1357 16.219C15.1945 16.1937 15.2413 16.1469 15.2666 16.0881C15.2684 16.0807 15.2747 16.0523 15.2793 15.9856C15.2867 15.8776 15.2871 15.7326 15.2871 15.4895V10.4895C15.2871 10.2464 15.2867 10.1014 15.2793 9.99341C15.2747 9.92706 15.2684 9.89847 15.2666 9.89087C15.2413 9.83212 15.1945 9.7853 15.1357 9.76001C15.1284 9.75814 15.0999 9.75187 15.0332 9.74731C14.9252 9.73995 14.7802 9.7395 14.5371 9.7395C14.2939 9.7395 14.149 9.73995 14.041 9.74731ZM7.10254 1.3645C7.45377 1.14499 7.9162 1.25159 8.13574 1.60278C8.35527 1.95402 8.24867 2.41644 7.89746 2.63599L3.89746 5.13599C3.54624 5.35549 3.08382 5.24886 2.86426 4.89771C2.64475 4.54648 2.75137 4.08406 3.10254 3.8645L7.10254 1.3645ZM15.8643 1.60278C16.0838 1.25158 16.5462 1.14498 16.8975 1.3645L20.8975 3.8645C21.2487 4.08406 21.3552 4.54649 21.1357 4.89771C20.9162 5.24886 20.4538 5.35549 20.1025 5.13599L16.1025 2.63599C15.7513 2.41644 15.6448 1.95401 15.8643 1.60278Z" fill="#1C274C"/>
</svg>
