<svg width="24" height="24" viewBox="0 0 24 24" fill="none" xmlns="http://www.w3.org/2000/svg">
<path d="M22 20.25C22.4142 20.25 22.75 20.5858 22.75 21C22.75 21.4142 22.4142 21.75 22 21.75H2C1.58579 21.75 1.25 21.4142 1.25 21C1.25 20.5858 1.58579 20.25 2 20.25H22ZM7.53223 2.25C7.97201 2.24998 8.3518 2.25011 8.66309 2.27832C8.99211 2.30818 9.31793 2.37447 9.625 2.55176C9.96693 2.7492 10.2508 3.03308 10.4482 3.375C10.6255 3.68207 10.6919 4.00789 10.7217 4.33691C10.7499 4.64821 10.75 5.02799 10.75 5.46777V14.5322C10.75 14.972 10.7499 15.3518 10.7217 15.6631C10.6919 15.9921 10.6255 16.3179 10.4482 16.625C10.2508 16.9669 9.96692 17.2508 9.625 17.4482C9.31793 17.6255 8.99212 17.6919 8.66309 17.7217C8.35179 17.7499 7.97201 17.75 7.53223 17.75H7.46777C7.02799 17.75 6.64821 17.7499 6.33691 17.7217C6.00788 17.6919 5.68207 17.6255 5.375 17.4482C5.03308 17.2508 4.7492 16.9669 4.55176 16.625C4.37446 16.3179 4.30818 15.9921 4.27832 15.6631C4.25011 15.3518 4.24998 14.972 4.25 14.5322V5.46777C4.24998 5.02799 4.25011 4.6482 4.27832 4.33691C4.30818 4.00789 4.37447 3.68207 4.55176 3.375C4.74921 3.03307 5.03307 2.74921 5.375 2.55176C5.68207 2.37448 6.00789 2.30818 6.33691 2.27832C6.6482 2.25011 7.02799 2.24998 7.46777 2.25H7.53223ZM16.5322 5.25C16.972 5.24998 17.3518 5.25011 17.6631 5.27832C17.9921 5.30818 18.3179 5.37446 18.625 5.55176C18.9669 5.7492 19.2508 6.03308 19.4482 6.375C19.6255 6.68207 19.6919 7.00789 19.7217 7.33691C19.7499 7.6482 19.75 8.02799 19.75 8.46777V14.5322C19.75 14.972 19.7499 15.3518 19.7217 15.6631C19.6919 15.9921 19.6255 16.3179 19.4482 16.625C19.2508 16.9669 18.9669 17.2508 18.625 17.4482C18.3179 17.6255 17.9921 17.6919 17.6631 17.7217C17.3518 17.7499 16.972 17.75 16.5322 17.75H16.4678C16.028 17.75 15.6482 17.7499 15.3369 17.7217C15.0079 17.6919 14.6821 17.6255 14.375 17.4482C14.0331 17.2508 13.7492 16.9669 13.5518 16.625C13.3745 16.3179 13.3081 15.9921 13.2783 15.6631C13.2501 15.3518 13.25 14.972 13.25 14.5322V8.46777C13.25 8.02799 13.2501 7.6482 13.2783 7.33691C13.3081 7.00789 13.3745 6.68208 13.5518 6.375C13.7492 6.03308 14.0331 5.7492 14.375 5.55176C14.6821 5.37447 15.0079 5.30818 15.3369 5.27832C15.6482 5.25011 16.028 5.24998 16.4678 5.25H16.5322ZM7.5 3.75C7.01889 3.75 6.70812 3.75112 6.47266 3.77246C6.24761 3.79287 6.16585 3.827 6.125 3.85059C6.01102 3.91641 5.91641 4.01103 5.85059 4.125C5.827 4.16586 5.79286 4.24761 5.77246 4.47266C5.75112 4.70811 5.75 5.01889 5.75 5.5V14.5C5.75 14.9811 5.75112 15.2918 5.77246 15.5273C5.79286 15.7524 5.827 15.8341 5.85059 15.875C5.91641 15.989 6.01101 16.0836 6.125 16.1494C6.16585 16.173 6.2476 16.2071 6.47266 16.2275C6.70812 16.2489 7.01889 16.25 7.5 16.25C7.98111 16.25 8.29189 16.2489 8.52734 16.2275C8.7524 16.2071 8.83415 16.173 8.875 16.1494C8.98898 16.0836 9.08359 15.989 9.14941 15.875C9.173 15.8341 9.20714 15.7524 9.22754 15.5273C9.24888 15.2918 9.25 14.9811 9.25 14.5V5.5C9.25 5.01889 9.24888 4.70811 9.22754 4.47266C9.20713 4.24761 9.173 4.16585 9.14941 4.125C9.08359 4.01103 8.98897 3.91641 8.875 3.85059C8.83415 3.827 8.7524 3.79287 8.52734 3.77246C8.29189 3.75112 7.98111 3.75 7.5 3.75ZM16.5 6.75C16.0189 6.75 15.7082 6.75112 15.4727 6.77246C15.2476 6.79287 15.1659 6.827 15.125 6.85059C15.011 6.91641 14.9164 7.01102 14.8506 7.125C14.827 7.16585 14.7929 7.2476 14.7725 7.47266C14.7511 7.70811 14.75 8.01889 14.75 8.5V14.5C14.75 14.9811 14.7511 15.2918 14.7725 15.5273C14.7929 15.7524 14.827 15.8341 14.8506 15.875C14.9164 15.989 15.011 16.0836 15.125 16.1494C15.1659 16.173 15.2476 16.2071 15.4727 16.2275C15.7082 16.2489 16.0189 16.25 16.5 16.25C16.9811 16.25 17.2918 16.2489 17.5273 16.2275C17.7524 16.2071 17.8341 16.173 17.875 16.1494C17.989 16.0836 18.0836 15.989 18.1494 15.875C18.173 15.8341 18.2071 15.7524 18.2275 15.5273C18.2489 15.2918 18.25 14.9811 18.25 14.5V8.5C18.25 8.01889 18.2489 7.70811 18.2275 7.47266C18.2071 7.2476 18.173 7.16585 18.1494 7.125C18.0836 7.01102 17.989 6.91641 17.875 6.85059C17.8341 6.827 17.7524 6.79287 17.5273 6.77246C17.2918 6.75112 16.9811 6.75 16.5 6.75Z" fill="#48465C"/>
</svg>
