<svg width="24" height="24" viewBox="0 0 24 24" fill="none" xmlns="http://www.w3.org/2000/svg">
<path d="M11.9998 1.25C16.28 1.25 19.7498 4.71979 19.7498 9C19.7498 9.94083 19.5822 10.8425 19.2751 11.6768L21.5623 14.0449C21.8196 14.3113 22.034 14.5338 22.1941 14.7188C22.3519 14.9009 22.5136 15.1095 22.6091 15.3516C22.9424 16.1963 22.674 17.1961 21.8699 17.6885C21.6387 17.8299 21.3755 17.8889 21.1492 17.9268C20.9176 17.9656 20.6232 17.9965 20.2761 18.0332L20.2527 18.0352C19.7937 18.0836 19.7065 18.0994 19.6472 18.1221C19.4691 18.1904 19.3231 18.3364 19.2507 18.5391C19.2253 18.6103 19.2092 18.7122 19.1628 19.1826L19.1609 19.2051C19.1253 19.5661 19.0954 19.869 19.0583 20.1064C19.0222 20.3378 18.9667 20.6009 18.8347 20.832C18.3655 21.6538 17.3764 21.9624 16.5183 21.5996C16.2768 21.4974 16.0719 21.3262 15.8972 21.1641C15.7185 20.9982 15.504 20.776 15.2468 20.5098L15.2273 20.4893L11.9998 17.0889L8.76831 20.4941L8.75269 20.5098C8.49556 20.776 8.28095 20.9982 8.10229 21.1641C7.92772 21.3261 7.72355 21.4975 7.48218 21.5996C6.62398 21.9627 5.63414 21.6539 5.16479 20.832C5.03289 20.601 4.97826 20.3378 4.94214 20.1064C4.90505 19.8689 4.87521 19.5662 4.8396 19.2051L4.83667 19.1826C4.79031 18.7127 4.77514 18.6103 4.74976 18.5391C4.6773 18.3364 4.53041 18.1904 4.35229 18.1221C4.29304 18.0994 4.20519 18.0836 3.74683 18.0352L3.72339 18.0332C3.37635 17.9965 3.08184 17.9655 2.85034 17.9268C2.62402 17.8889 2.36075 17.8299 2.12964 17.6885C1.32556 17.1961 1.05718 16.1963 1.39038 15.3516C1.48588 15.1095 1.64771 14.9009 1.80542 14.7188C1.96557 14.5338 2.1799 14.3114 2.43726 14.0449L4.72437 11.6768C4.41734 10.8425 4.24976 9.94078 4.24976 9C4.24976 4.71985 7.71962 1.25009 11.9998 1.25ZM3.53101 15.0723C3.25509 15.3579 3.06934 15.5508 2.93921 15.7012C2.81909 15.8399 2.78948 15.8944 2.78589 15.9014C2.69572 16.13 2.78526 16.3241 2.90405 16.4033C2.91297 16.4062 2.96429 16.4249 3.09839 16.4473C3.27956 16.4776 3.5283 16.504 3.90503 16.5439C3.92996 16.5465 3.95469 16.5492 3.97925 16.5518C4.31836 16.5872 4.62116 16.6189 4.8894 16.7217C5.48827 16.9512 5.94659 17.4314 6.16187 18.0332C6.25814 18.3024 6.28741 18.6066 6.32202 18.9609C6.32444 18.9856 6.32734 19.011 6.32983 19.0361C6.3682 19.425 6.39388 19.6848 6.42358 19.875C6.44902 20.0379 6.46975 20.0905 6.47046 20.0938C6.55031 20.2278 6.71441 20.2943 6.89526 20.2188C6.89526 20.2188 6.94532 20.1912 7.08179 20.0645C7.22639 19.9302 7.41148 19.7387 7.68628 19.4541L7.68921 19.4521L10.4089 16.5869C8.31302 16.1497 6.52794 14.865 5.42749 13.1084L3.53101 15.0723ZM18.572 13.1084C17.4716 14.865 15.6865 16.1497 13.5906 16.5869L16.3113 19.4521L16.3132 19.4541C16.5881 19.7387 16.773 19.9302 16.9177 20.0645C17.0413 20.1793 17.0944 20.2125 17.1033 20.2178H17.1023L17.1042 20.2188L17.1033 20.2178C17.2846 20.2942 17.449 20.2281 17.5291 20.0938C17.5299 20.0905 17.5504 20.0379 17.5759 19.875C17.6056 19.6848 17.6313 19.425 17.6697 19.0361C17.6722 19.011 17.6751 18.9856 17.6775 18.9609C17.7121 18.6066 17.7414 18.3024 17.8376 18.0332C18.0528 17.4314 18.5113 16.9513 19.1101 16.7217C19.3783 16.6189 19.6812 16.5872 20.0203 16.5518C20.045 16.5492 20.0703 16.5465 20.0955 16.5439C20.4718 16.5041 20.72 16.4775 20.9011 16.4473C21.0352 16.4249 21.0866 16.4062 21.0955 16.4033C21.2143 16.3242 21.3038 16.1301 21.2136 15.9014C21.2097 15.8939 21.1798 15.8391 21.0603 15.7012C20.9301 15.5508 20.7445 15.358 20.4685 15.0723L18.572 13.1084ZM11.9998 2.75C8.54805 2.75009 5.74976 5.54828 5.74976 9C5.74976 12.4517 8.54805 15.2499 11.9998 15.25C15.4516 15.25 18.2498 12.4518 18.2498 9C18.2498 5.54822 15.4516 2.75 11.9998 2.75ZM11.9998 5.25C12.5014 5.25 12.8139 5.57499 12.9861 5.7998C13.1504 6.01438 13.3164 6.31168 13.4861 6.61621C13.4937 6.62982 13.501 6.64359 13.5085 6.65723L13.6072 6.83398C13.6298 6.87483 13.6481 6.90707 13.6638 6.93457C13.6911 6.94097 13.7228 6.94806 13.7625 6.95703L13.9539 7C13.9695 7.00352 13.9852 7.00723 14.0007 7.01074C14.3285 7.08479 14.6541 7.15833 14.9041 7.25684C15.1803 7.36566 15.5548 7.57808 15.699 8.04199C15.8406 8.49755 15.6618 8.88381 15.5056 9.13184C15.3611 9.36137 15.1415 9.6181 14.9167 9.88086C14.9066 9.89273 14.8956 9.90412 14.8855 9.91602L14.7556 10.0684C14.7211 10.1087 14.6954 10.1397 14.6736 10.166C14.6765 10.2022 14.6808 10.2444 14.6863 10.3008L14.7058 10.5039C14.7073 10.5194 14.7082 10.5353 14.7097 10.5508C14.7439 10.9026 14.7775 11.2426 14.7654 11.5146C14.7527 11.7998 14.6838 12.2315 14.2966 12.5254C13.8973 12.8285 13.4562 12.7628 13.1765 12.6826C12.9188 12.6088 12.6141 12.4684 12.3074 12.3271C12.2927 12.3204 12.2781 12.3134 12.2634 12.3066L12.0847 12.2246C12.0512 12.2092 12.0238 12.1964 11.9998 12.1855C11.9758 12.1964 11.9482 12.2093 11.9148 12.2246L11.7361 12.3066C11.7215 12.3134 11.7068 12.3204 11.6921 12.3271C11.3855 12.4684 11.0807 12.6088 10.823 12.6826C10.5433 12.7628 10.1022 12.8285 9.70288 12.5254C9.31585 12.2316 9.24784 11.7998 9.23511 11.5146C9.223 11.2426 9.25563 10.9025 9.28979 10.5508C9.2913 10.5353 9.29318 10.5194 9.29468 10.5039L9.31421 10.3008C9.31968 10.2444 9.32392 10.2022 9.3269 10.166C9.305 10.1397 9.27838 10.1087 9.2439 10.0684L9.11401 9.91602C9.10395 9.90426 9.09378 9.8926 9.08374 9.88086C8.85885 9.61801 8.63845 9.36143 8.4939 9.13184C8.33776 8.88382 8.1591 8.49752 8.30054 8.04199C8.44477 7.57817 8.81933 7.36567 9.09546 7.25684C9.34555 7.15828 9.67195 7.08482 9.99976 7.01074C10.0153 7.00724 10.0311 7.00351 10.0466 7L10.2371 6.95703C10.2766 6.94808 10.3085 6.94096 10.3357 6.93457C10.3514 6.9071 10.3696 6.87476 10.3923 6.83398L10.491 6.65723C10.4986 6.64345 10.5068 6.62997 10.5144 6.61621C10.6841 6.31174 10.8492 6.01438 11.0134 5.7998C11.1856 5.57501 11.4982 5.25007 11.9998 5.25ZM11.8005 7.3877L11.7029 7.56445C11.696 7.5768 11.6883 7.59006 11.6804 7.60449C11.6019 7.7481 11.4714 7.98578 11.2546 8.15039C11.0332 8.31843 10.7668 8.37635 10.6111 8.41016C10.5956 8.41352 10.5812 8.41696 10.5681 8.41992L10.3777 8.46289C10.2025 8.50252 10.0593 8.53477 9.93726 8.56543C10.0166 8.66309 10.1196 8.78471 10.2537 8.94141L10.3845 9.09375C10.3936 9.10438 10.4034 9.11584 10.4138 9.12793C10.5218 9.25226 10.6965 9.45374 10.7771 9.71289C10.8566 9.96871 10.8286 10.2321 10.8113 10.3984C10.8095 10.4149 10.8088 10.4308 10.8074 10.4453L10.7869 10.6484C10.7687 10.8366 10.7552 10.9872 10.7458 11.1094C10.85 11.0635 10.9685 11.0091 11.1091 10.9443L11.2878 10.8613C11.3 10.8557 11.3135 10.8496 11.3279 10.8428C11.4714 10.7751 11.7211 10.6573 11.9998 10.6572C12.2783 10.6572 12.5281 10.7751 12.6716 10.8428C12.6859 10.8496 12.6995 10.8557 12.7117 10.8613L12.8914 10.9443C13.032 11.009 13.1505 11.0635 13.2546 11.1094C13.2452 10.9872 13.2308 10.8366 13.2126 10.6484L13.1931 10.4453C13.1917 10.4308 13.19 10.4149 13.1882 10.3984C13.1709 10.2321 13.1438 9.96874 13.2234 9.71289C13.304 9.45374 13.4777 9.25225 13.5857 9.12793C13.5962 9.11569 13.6068 9.10449 13.616 9.09375L13.7458 8.94141C13.8799 8.78463 13.9829 8.66312 14.0623 8.56543C13.9404 8.5348 13.7978 8.50247 13.6228 8.46289L13.4314 8.41992C13.4183 8.41695 13.4039 8.41352 13.3884 8.41016C13.2327 8.37635 12.9663 8.31845 12.7449 8.15039C12.5282 7.98579 12.3976 7.74807 12.3191 7.60449C12.3113 7.59023 12.3044 7.57669 12.2976 7.56445L12.199 7.3877C12.1228 7.25104 12.0579 7.13482 11.9998 7.03418C11.9417 7.13482 11.8767 7.25104 11.8005 7.3877Z" fill="#1C274C"/>
</svg>
