<svg width="24" height="24" viewBox="0 0 24 24" fill="none" xmlns="http://www.w3.org/2000/svg">
<path d="M14.0037 4C17.7819 4 19.6707 4.00031 20.8445 5.17188C21.7231 6.04884 21.9443 7.32563 21.9998 9.49414C22.007 9.77207 21.779 9.99481 21.5096 10.0654C20.6497 10.2903 20.0145 11.0711 20.0145 12C20.0145 12.9289 20.6497 13.7097 21.5096 13.9346C21.779 14.0052 22.007 14.2279 21.9998 14.5059C21.9443 16.6744 21.7231 17.9512 20.8445 18.8281C19.6707 19.9997 17.7819 20 14.0037 20H9.99591C6.21795 20 4.32879 19.9997 3.15509 18.8281C2.27666 17.9512 2.05536 16.6742 1.99982 14.5059C1.9927 14.2278 2.22148 14.0051 2.49103 13.9346C3.35084 13.7096 3.98517 12.9288 3.98517 12C3.98517 11.0712 3.35084 10.2904 2.49103 10.0654C2.22148 9.9949 1.9927 9.77218 1.99982 9.49414C2.05536 7.32578 2.27668 6.04884 3.15509 5.17188C4.32879 4.00034 6.21795 4 9.99591 4H14.0037ZM11.9998 9C11.7153 9.00013 11.525 9.34094 11.1443 10.0225L11.0457 10.1992C10.9376 10.3927 10.8839 10.4898 10.7996 10.5537C10.7153 10.6176 10.61 10.6411 10.4002 10.6885L10.2088 10.7314C9.46948 10.8984 9.09948 10.9823 9.01154 11.2646C8.92394 11.5468 9.17589 11.8408 9.6795 12.4287L9.81036 12.5811C9.95356 12.7481 10.0252 12.8322 10.0574 12.9355C10.0895 13.0388 10.0781 13.1503 10.0565 13.373L10.0369 13.5762C9.96074 14.3609 9.92309 14.7532 10.1531 14.9277C10.3834 15.1021 10.7296 14.9431 11.4217 14.625L11.6004 14.543C11.797 14.4526 11.8957 14.4073 11.9998 14.4072C12.104 14.4072 12.2026 14.4526 12.3992 14.543L12.5779 14.625C13.27 14.9431 13.6162 15.1021 13.8465 14.9277C14.0767 14.7532 14.0389 14.3611 13.9627 13.5762L13.9432 13.373C13.9215 13.1502 13.911 13.0389 13.9432 12.9355C13.9754 12.8321 14.0469 12.7482 14.1902 12.5811L14.3201 12.4287C14.8238 11.8407 15.0758 11.5469 14.9881 11.2646C14.9001 10.9824 14.5309 10.8984 13.7918 10.7314L13.6004 10.6885C13.3906 10.6412 13.2853 10.6174 13.201 10.5537C13.1167 10.4898 13.0621 10.3928 12.9539 10.1992L12.8553 10.0225C12.4746 9.3409 12.2844 9 11.9998 9Z" fill="#1C274C"/>
</svg>
