<svg width="24" height="24" viewBox="0 0 24 24" fill="none" xmlns="http://www.w3.org/2000/svg">
<path d="M7.17188 17C7.7022 17.0001 8.21093 17.2109 8.58594 17.5859L9.41406 18.4141C9.78908 18.7891 10.2978 18.9999 10.8281 19H13.1719C13.7022 18.9999 14.2109 18.7891 14.5859 18.4141L15.4141 17.5859C15.7891 17.2109 16.2978 17.0001 16.8281 17H20.6367C21.3896 17.0002 21.9998 17.6104 22 18.3633C22 20.3716 20.3716 22 18.3633 22H5.63672C3.62842 22 2 20.3716 2 18.3633C2.00017 17.6104 2.61043 17.0002 3.36328 17H7.17188ZM12 3C16.9706 3 21 7.02944 21 12C21 13.2414 20.7485 14.4241 20.2939 15.5H16.8281C15.9 15.5001 15.0098 15.8691 14.3535 16.5254L13.5254 17.3535C13.4318 17.4472 13.3044 17.4999 13.1719 17.5H10.8281C10.6956 17.4999 10.5682 17.4472 10.4746 17.3535L9.64648 16.5254C8.99018 15.8691 8.10002 15.5001 7.17188 15.5H3.70605C3.25148 14.4241 3 13.2414 3 12C3 7.02944 7.02944 3 12 3Z" fill="#1C274C"/>
</svg>
