<svg width="24" height="24" viewBox="0 0 24 24" fill="none" xmlns="http://www.w3.org/2000/svg">
<path d="M12.0002 2C15.6301 2.00014 18.6142 4.96071 18.9651 8.75098C18.9766 8.75046 18.9887 8.75 19.0002 8.75C19.4144 8.75014 19.7502 9.08588 19.7502 9.5V19C19.7502 19.4868 19.9084 19.9601 20.2004 20.3496L21.0999 21.5498C21.3483 21.881 21.2814 22.351 20.9504 22.5996C20.6191 22.8481 20.1483 22.7816 19.8997 22.4502L19.0002 21.25C18.8812 21.0913 18.7756 20.9238 18.6838 20.75H5.31665C5.22491 20.9239 5.11934 21.0912 5.00024 21.25L4.09985 22.4502C3.85129 22.7814 3.38135 22.8481 3.05005 22.5996C2.71884 22.3511 2.65123 21.8811 2.89966 21.5498L3.80005 20.3496C4.09202 19.9602 4.25024 19.4867 4.25024 19V9.5C4.25024 9.08579 4.58603 8.75 5.00024 8.75C5.01171 8.75 5.02309 8.75046 5.03442 8.75098C5.38529 4.96061 8.37025 2 12.0002 2ZM18.2502 12.8809C17.0965 15.3245 14.7308 16.9999 12.0002 17C9.2696 17 6.9041 15.3245 5.75024 12.8809V19C5.75024 19.0836 5.747 19.167 5.74146 19.25H18.2581C18.2525 19.167 18.2502 19.0836 18.2502 19V12.8809ZM13.5764 4.59375C13.1495 4.39983 12.6202 4.53858 12.3938 4.9043C12.1674 5.27026 12.3301 5.72493 12.7571 5.91895C13.5488 6.27884 14.3061 7.24086 14.5481 8.6123C14.6204 9.02181 15.0664 9.30405 15.5442 9.24219C16.022 9.18024 16.3509 8.79726 16.2786 8.3877C15.987 6.73555 15.0264 5.2527 13.5764 4.59375Z" fill="#48465C"/>
</svg>
