<svg width="24" height="24" viewBox="0 0 24 24" fill="none" xmlns="http://www.w3.org/2000/svg">
<path fill-rule="evenodd" clip-rule="evenodd" d="M9.14572 2.47336C9.79416 2.36031 10.3848 2.47433 10.9953 2.86985C11.6534 3.29625 11.9746 3.88057 12.1203 4.59446C12.2496 5.22822 12.2503 6.01995 12.2502 6.92746V8.49973C12.2502 9.46371 12.2517 10.1115 12.3166 10.5945C12.3787 11.056 12.4861 11.2532 12.6164 11.3835C12.7467 11.5138 12.944 11.6212 13.4055 11.6833C13.8885 11.7482 14.5363 11.7497 15.5002 11.7497H17.0725C17.98 11.7496 18.7717 11.7503 19.4055 11.8796C20.1194 12.0253 20.7036 12.3465 21.1301 13.0046C21.5256 13.6152 21.6396 14.2057 21.5266 14.8542C21.4305 15.4049 21.1662 15.9945 20.885 16.6218L20.8547 16.6892C20.6211 17.2109 20.3431 17.7145 20.0227 18.1941C18.8964 19.8797 17.2951 21.1937 15.4221 21.9695C13.5492 22.7452 11.4884 22.9479 9.50021 22.5525C7.51199 22.1569 5.68561 21.1812 4.25217 19.7478C2.81868 18.3144 1.84199 16.488 1.4465 14.4997C1.05102 12.5115 1.25478 10.4507 2.03049 8.57786C2.80624 6.70502 4.11944 5.10355 5.8049 3.97727C6.28455 3.65678 6.78891 3.37895 7.31076 3.14524L7.37814 3.11496C8.00552 2.8338 8.59501 2.56938 9.14572 2.47336ZM10.1799 4.12864C9.87792 3.93302 9.66901 3.90465 9.40353 3.9509C9.05994 4.01081 8.64307 4.19238 7.92404 4.51438C7.47865 4.71384 7.0483 4.95079 6.63889 5.22434C5.20007 6.18573 4.07852 7.55241 3.41623 9.1511C2.75398 10.7499 2.5806 12.5095 2.91818 14.2068C3.2558 15.9042 4.089 17.4635 5.31271 18.6872C6.53642 19.9109 8.09586 20.7441 9.79318 21.0818C11.4905 21.4193 13.25 21.246 14.8488 20.5837C16.4475 19.9215 17.8142 18.8 18.7756 17.3611C19.0492 16.9517 19.2861 16.5212 19.4856 16.0759C19.8075 15.3569 19.989 14.9401 20.049 14.5964C20.0953 14.3309 20.0669 14.1221 19.8713 13.82C19.7065 13.5658 19.5093 13.4308 19.1057 13.3484C18.6388 13.2531 18.0015 13.2497 17.0002 13.2497H15.4485C14.55 13.2497 13.8001 13.2496 13.2053 13.1697C12.5776 13.0852 12.0112 12.8995 11.5559 12.4441C11.1004 11.9887 10.9147 11.4223 10.8303 10.7947C10.7503 10.1999 10.7502 9.44996 10.7502 8.55149V6.99973C10.7502 5.99841 10.7459 5.36119 10.6506 4.89426C10.5682 4.49061 10.4341 4.29342 10.1799 4.12864ZM14.3889 2.36692C15.1159 1.72044 16.1436 1.43752 17.2063 1.85618C19.4602 2.74423 21.2558 4.53972 22.1438 6.79368C22.5625 7.85646 22.2787 8.88403 21.632 9.61106C21.0014 10.32 20.0301 10.7497 19.0002 10.7497H15.0002C14.0337 10.7497 13.2502 9.96622 13.2502 8.99973V4.99973C13.2503 3.96965 13.6797 2.99759 14.3889 2.36692ZM16.6565 3.25168C16.1779 3.06312 15.739 3.17413 15.386 3.48801C15.0151 3.8179 14.7503 4.37307 14.7502 4.99973V8.99973C14.7502 9.1378 14.8621 9.24973 15.0002 9.24973H19.0002C19.6268 9.24966 20.182 8.9849 20.5119 8.61399C20.8258 8.26093 20.9368 7.82217 20.7483 7.34348C20.0128 5.47652 18.5234 3.98728 16.6565 3.25168Z" fill="#1C274C"/>
</svg>
