<svg width="24" height="24" viewBox="0 0 24 24" fill="none" xmlns="http://www.w3.org/2000/svg">
<path d="M9.14575 2.47339C9.79419 2.36033 10.3848 2.47436 10.9954 2.86987C11.6534 3.29627 11.9747 3.88059 12.1204 4.59448C12.2497 5.22824 12.2503 6.01997 12.2502 6.92749V8.49976C12.2502 9.46374 12.2518 10.1115 12.3167 10.5945C12.3788 11.056 12.4862 11.2532 12.6165 11.3835C12.7468 11.5138 12.944 11.6213 13.4055 11.6833C13.8885 11.7482 14.5363 11.7498 15.5002 11.7498H17.0725C17.98 11.7497 18.7718 11.7503 19.4055 11.8796C20.1194 12.0253 20.7036 12.3465 21.1301 13.0046C21.5256 13.6152 21.6396 14.2058 21.5266 14.8542C21.4305 15.4049 21.1662 15.9945 20.885 16.6218L20.8547 16.6892C20.6211 17.211 20.3431 17.7145 20.0227 18.1941C18.8964 19.8797 17.2951 21.1937 15.4221 21.9695C13.5493 22.7452 11.4884 22.948 9.50024 22.5525C7.51202 22.157 5.68564 21.1812 4.2522 19.7478C2.81871 18.3144 1.84202 16.4881 1.44653 14.4998C1.05105 12.5116 1.25481 10.4507 2.03052 8.57788C2.80627 6.70505 4.11947 5.10357 5.80493 3.97729C6.28458 3.6568 6.78894 3.37897 7.31079 3.14526L7.37817 3.11499C8.00555 2.83383 8.59504 2.56941 9.14575 2.47339ZM10.1799 4.12866C9.87795 3.93304 9.66904 3.90468 9.40356 3.95093C9.05997 4.01084 8.6431 4.1924 7.92407 4.5144C7.47868 4.71387 7.04833 4.95082 6.63892 5.22437C5.2001 6.18575 4.07855 7.55243 3.41626 9.15112C2.75401 10.75 2.58063 12.5095 2.91821 14.2068C3.25583 15.9042 4.08903 17.4636 5.31274 18.6873C6.53645 19.911 8.09589 20.7441 9.79321 21.0818C11.4905 21.4193 13.25 21.246 14.8489 20.5837C16.4475 19.9215 17.8142 18.8 18.7756 17.3611C19.0492 16.9517 19.2861 16.5213 19.4856 16.0759C19.8075 15.3569 19.9891 14.9401 20.0491 14.5964C20.0953 14.3309 20.0669 14.1221 19.8713 13.8201C19.7065 13.5658 19.5094 13.4308 19.1057 13.3484C18.6389 13.2532 18.0015 13.2498 17.0002 13.2498H15.4485C14.55 13.2498 13.8001 13.2496 13.2053 13.1697C12.5776 13.0853 12.0112 12.8995 11.5559 12.4441C11.1005 11.9888 10.9147 11.4224 10.8303 10.7947C10.7503 10.1999 10.7502 9.44998 10.7502 8.55151V6.99976C10.7502 5.99843 10.7459 5.36121 10.6506 4.89429C10.5682 4.49064 10.4342 4.29345 10.1799 4.12866ZM14.3889 2.36694C15.1159 1.72046 16.1436 1.43755 17.2063 1.8562C19.4602 2.74426 21.2558 4.53975 22.1438 6.7937C22.5625 7.85648 22.2787 8.88405 21.6321 9.61108C21.0014 10.32 20.0301 10.7497 19.0002 10.7498H15.0002C14.0337 10.7498 13.2502 9.96625 13.2502 8.99976V4.99976C13.2503 3.96968 13.6798 2.99762 14.3889 2.36694ZM16.6565 3.25171C16.1779 3.06315 15.739 3.17416 15.386 3.48804C15.0151 3.81793 14.7503 4.3731 14.7502 4.99976V8.99976C14.7502 9.13783 14.8621 9.24976 15.0002 9.24976H19.0002C19.6268 9.24969 20.182 8.98493 20.512 8.61401C20.8259 8.26095 20.9369 7.82219 20.7483 7.34351C20.0128 5.47655 18.5235 3.98731 16.6565 3.25171Z" fill="#48465C"/>
</svg>
