<svg width="24" height="24" viewBox="0 0 24 24" fill="none" xmlns="http://www.w3.org/2000/svg">
<path fill-rule="evenodd" clip-rule="evenodd" d="M8.22266 3.28367C8.61782 3.15955 9.03894 3.37973 9.16309 3.77488C9.28721 4.17006 9.06705 4.59119 8.67188 4.71531C5.23885 5.79377 2.75011 9.00152 2.75 12.7886C2.75 17.4613 6.53819 21.2495 11.2109 21.2495C14.9981 21.2494 18.2057 18.7608 19.2842 15.3276C19.4083 14.9325 19.8295 14.7124 20.2246 14.8364C20.6198 14.9606 20.84 15.3816 20.7158 15.7768C19.4468 19.8174 15.6722 22.7494 11.2109 22.7495C5.70976 22.7495 1.25 18.2897 1.25 12.7886C1.25011 8.32746 4.18221 4.55272 8.22266 3.28367ZM11.4023 2.05906C12.1317 1.38883 13.1589 1.05782 14.2549 1.36375C18.3103 2.49592 21.5037 5.69009 22.6357 9.74558C22.9415 10.8415 22.6106 11.8678 21.9404 12.5971C21.2805 13.3152 20.2943 13.7495 19.2393 13.7495H12.5449C11.2775 13.7495 10.25 12.722 10.25 11.4546V4.76023C10.25 3.70517 10.6843 2.71888 11.4023 2.05906ZM13.8516 2.80906C13.3041 2.65625 12.8039 2.80907 12.418 3.16355C12.0206 3.52864 11.75 4.10896 11.75 4.76023V11.4546C11.75 11.8936 12.1059 12.2495 12.5449 12.2495H19.2393C19.8905 12.2495 20.4708 11.9798 20.8359 11.5825C21.1907 11.1965 21.3433 10.6964 21.1904 10.1489C20.1995 6.59886 17.4016 3.80018 13.8516 2.80906Z" fill="#1C274C"/>
</svg>
