<svg width="24" height="24" viewBox="0 0 24 24" fill="none" xmlns="http://www.w3.org/2000/svg">
<path d="M12 2C12.3414 2 12.512 2.00049 12.6855 2.01562C13.4948 2.08629 14.2879 2.41421 14.9102 2.93652C15.0434 3.04848 15.1669 3.17277 15.4141 3.41992L20.5811 8.58594C20.8283 8.83312 20.9514 8.95741 21.0635 9.09082C21.5857 9.71302 21.9138 10.5052 21.9844 11.3145C21.9996 11.488 22 11.6586 22 12C22 16.714 21.9997 19.0708 20.5352 20.5352C19.0708 21.9997 16.714 22 12 22C7.28597 22 4.9293 21.9996 3.46484 20.5352C2.00037 19.0708 2 16.714 2 12C2 7.28595 2.00037 4.9293 3.46484 3.46484C4.9293 2.00037 7.28595 2 12 2ZM7 5.25C6.58579 5.25 6.25 5.58579 6.25 6V9C6.25 9.41421 6.58579 9.75 7 9.75C7.41421 9.75 7.75 9.41421 7.75 9V6C7.75 5.58579 7.41421 5.25 7 5.25ZM10 5.25C9.58579 5.25 9.25 5.58579 9.25 6V9C9.25 9.41421 9.58579 9.75 10 9.75C10.4142 9.75 10.75 9.41421 10.75 9V6C10.75 5.58579 10.4142 5.25 10 5.25ZM13 5.25C12.5858 5.25 12.25 5.58579 12.25 6V9C12.25 9.41421 12.5858 9.75 13 9.75C13.4142 9.75 13.75 9.41421 13.75 9V6C13.75 5.58579 13.4142 5.25 13 5.25Z" fill="#1C274C"/>
</svg>
