<svg width="24" height="24" viewBox="0 0 24 24" fill="none" xmlns="http://www.w3.org/2000/svg">
<path d="M12 2C16.714 2 19.0708 2.00037 20.5352 3.46484C21.9996 4.9293 22 7.28597 22 12C22 16.714 21.9997 19.0708 20.5352 20.5352C19.0708 21.9997 16.714 22 12 22C7.28597 22 4.9293 21.9996 3.46484 20.5352C2.00037 19.0708 2 16.714 2 12C2 7.28595 2.00037 4.9293 3.46484 3.46484C4.9293 2.00037 7.28595 2 12 2ZM6 6.25C5.58579 6.25 5.25 6.58579 5.25 7V17C5.25 17.4142 5.58579 17.75 6 17.75C6.41421 17.75 6.75 17.4142 6.75 17V7C6.75 6.58579 6.41421 6.25 6 6.25ZM18.5303 7.46973C18.2374 7.17684 17.7626 7.17684 17.4697 7.46973L16.0684 8.87109C15.4756 8.47845 14.7643 8.25 14 8.25C13.2357 8.25 12.5244 8.47845 11.9316 8.87109L10.5303 7.46973C10.2374 7.17684 9.76262 7.17684 9.46973 7.46973C9.17684 7.76262 9.17684 8.23738 9.46973 8.53027L10.8711 9.93164C10.4785 10.5245 10.25 11.2357 10.25 12C10.25 12.7643 10.4785 13.4756 10.8711 14.0684L9.46973 15.4697C9.17684 15.7626 9.17684 16.2374 9.46973 16.5303C9.76262 16.8232 10.2374 16.8232 10.5303 16.5303L11.9316 15.1289C12.5244 15.5215 13.2357 15.75 14 15.75C14.7643 15.75 15.4756 15.5215 16.0684 15.1289L17.4697 16.5303C17.7626 16.8232 18.2374 16.8232 18.5303 16.5303C18.8232 16.2374 18.8232 15.7626 18.5303 15.4697L17.1289 14.0684C17.5215 13.4756 17.75 12.7643 17.75 12C17.75 11.2357 17.5215 10.5245 17.1289 9.93164L18.5303 8.53027C18.8232 8.23739 18.8232 7.76261 18.5303 7.46973ZM14 9.75C15.2426 9.75 16.25 10.7574 16.25 12C16.25 13.2426 15.2426 14.25 14 14.25C12.7574 14.25 11.75 13.2426 11.75 12C11.75 10.7574 12.7574 9.75 14 9.75Z" fill="#1C274C"/>
</svg>
