<svg width="24" height="24" viewBox="0 0 24 24" fill="none" xmlns="http://www.w3.org/2000/svg">
<path d="M12 2C16.714 2 19.0708 2.00037 20.5352 3.46484C21.9996 4.9293 22 7.28597 22 12C22 16.714 21.9997 19.0708 20.5352 20.5352C19.0708 21.9997 16.714 22 12 22C7.28597 22 4.9293 21.9996 3.46484 20.5352C2.00037 19.0708 2 16.714 2 12C2 7.28595 2.00037 4.9293 3.46484 3.46484C4.9293 2.00037 7.28595 2 12 2ZM6 7.25C5.58579 7.25 5.25 7.58579 5.25 8V16C5.25 16.4142 5.58579 16.75 6 16.75C6.41421 16.75 6.75 16.4142 6.75 16V12.75H10C10.4142 12.75 10.75 12.4142 10.75 12C10.75 11.5858 10.4142 11.25 10 11.25H6.75V8.75H10C10.4142 8.75 10.75 8.41421 10.75 8C10.75 7.58579 10.4142 7.25 10 7.25H6ZM18.4502 7.40039C18.1189 7.15194 17.649 7.21871 17.4004 7.5498L15 10.75L12.5996 7.5498C12.351 7.21871 11.8811 7.15194 11.5498 7.40039C11.2187 7.64898 11.152 8.11893 11.4004 8.4502L14.0625 12L11.4004 15.5498C11.152 15.8811 11.2187 16.351 11.5498 16.5996C11.8811 16.848 12.351 16.7813 12.5996 16.4502L15 13.25L17.4004 16.4502C17.649 16.7813 18.1189 16.848 18.4502 16.5996C18.7813 16.351 18.848 15.8811 18.5996 15.5498L15.9375 12L18.5996 8.4502C18.848 8.11893 18.7813 7.64898 18.4502 7.40039Z" fill="#1C274C"/>
</svg>
