<svg width="24" height="24" viewBox="0 0 24 24" fill="none" xmlns="http://www.w3.org/2000/svg">
<path d="M18.0518 12.25C18.9503 12.25 19.7001 12.2501 20.2949 12.3301C20.9225 12.4145 21.489 12.6003 21.9443 13.0557C22.3997 13.511 22.5855 14.0775 22.6699 14.7051C22.7499 15.2999 22.75 16.0497 22.75 16.9482V17.0518C22.75 17.9503 22.7499 18.7001 22.6699 19.2949C22.5855 19.9225 22.3997 20.489 21.9443 20.9443C21.489 21.3997 20.9225 21.5855 20.2949 21.6699C19.7001 21.7499 18.9503 21.75 18.0518 21.75H5.94824C5.04976 21.75 4.29987 21.7499 3.70508 21.6699C3.07748 21.5855 2.51102 21.3997 2.05566 20.9443C1.6003 20.489 1.41452 19.9226 1.33008 19.2949C1.25012 18.7001 1.24997 17.9503 1.25 17.0518V16.9482C1.24997 16.0497 1.25012 15.2999 1.33008 14.7051C1.41452 14.0775 1.6003 13.511 2.05566 13.0557C2.51102 12.6003 3.07748 12.4145 3.70508 12.3301C4.29987 12.2501 5.04976 12.25 5.94824 12.25H18.0518ZM6 13.75C5.03599 13.75 4.38831 13.7515 3.90527 13.8164C3.44389 13.8785 3.24652 13.9859 3.11621 14.1162C2.98591 14.2465 2.87845 14.4439 2.81641 14.9053C2.75147 15.3883 2.75 16.036 2.75 17C2.75 17.964 2.75147 18.6117 2.81641 19.0947C2.87845 19.5561 2.98591 19.7535 3.11621 19.8838C3.24652 20.0141 3.44389 20.1215 3.90527 20.1836C4.38831 20.2485 5.03599 20.25 6 20.25H18C18.964 20.25 19.6117 20.2485 20.0947 20.1836C20.5561 20.1215 20.7535 20.0141 20.8838 19.8838C21.0141 19.7535 21.1215 19.5561 21.1836 19.0947C21.2485 18.6117 21.25 17.964 21.25 17C21.25 16.036 21.2485 15.3883 21.1836 14.9053C21.1215 14.4439 21.0141 14.2465 20.8838 14.1162C20.7535 13.9859 20.5561 13.8785 20.0947 13.8164C19.6117 13.7515 18.964 13.75 18 13.75H6ZM6 15.25C6.41422 15.25 6.75 15.5858 6.75 16V18C6.75 18.4142 6.41422 18.75 6 18.75C5.58579 18.75 5.25 18.4142 5.25 18V16C5.25 15.5858 5.58579 15.25 6 15.25ZM9 15.25C9.41422 15.25 9.75 15.5858 9.75 16V18C9.75 18.4142 9.41422 18.75 9 18.75C8.58579 18.75 8.25 18.4142 8.25 18V16C8.25 15.5858 8.58579 15.25 9 15.25ZM18 16.25C18.4142 16.25 18.75 16.5858 18.75 17C18.75 17.4142 18.4142 17.75 18 17.75H13.5C13.0858 17.75 12.75 17.4142 12.75 17C12.75 16.5858 13.0858 16.25 13.5 16.25H18ZM18.0518 1.25C18.9503 1.24997 19.7001 1.25012 20.2949 1.33008C20.9226 1.41452 21.489 1.6003 21.9443 2.05566C22.3997 2.51102 22.5855 3.07748 22.6699 3.70508C22.7499 4.29987 22.75 5.04976 22.75 5.94824V6.05176C22.75 6.95024 22.7499 7.70014 22.6699 8.29492C22.5855 8.92253 22.3997 9.48898 21.9443 9.94434C21.489 10.3997 20.9225 10.5855 20.2949 10.6699C19.7001 10.7499 18.9503 10.75 18.0518 10.75H5.94824C5.04976 10.75 4.29986 10.7499 3.70508 10.6699C3.07747 10.5855 2.51102 10.3997 2.05566 9.94434C1.60031 9.48898 1.41452 8.92254 1.33008 8.29492C1.25012 7.70014 1.24997 6.95024 1.25 6.05176V5.94824C1.24997 5.04976 1.25012 4.29986 1.33008 3.70508C1.41452 3.07747 1.6003 2.51102 2.05566 2.05566C2.51102 1.6003 3.07747 1.41452 3.70508 1.33008C4.29986 1.25012 5.04976 1.24997 5.94824 1.25H18.0518ZM6 2.75C5.03599 2.75 4.38831 2.75147 3.90527 2.81641C3.44388 2.87845 3.24652 2.9859 3.11621 3.11621C2.9859 3.24652 2.87845 3.44388 2.81641 3.90527C2.75147 4.38831 2.75 5.03599 2.75 6C2.75 6.96401 2.75147 7.61169 2.81641 8.09473C2.87845 8.55611 2.9859 8.75348 3.11621 8.88379C3.24652 9.01409 3.44389 9.12155 3.90527 9.18359C4.38831 9.24853 5.03599 9.25 6 9.25H18C18.964 9.25 19.6117 9.24853 20.0947 9.18359C20.5561 9.12155 20.7535 9.01409 20.8838 8.88379C21.0141 8.75348 21.1215 8.55611 21.1836 8.09473C21.2485 7.61169 21.25 6.96401 21.25 6C21.25 5.03599 21.2485 4.38831 21.1836 3.90527C21.1215 3.44389 21.0141 3.24652 20.8838 3.11621C20.7535 2.98591 20.5561 2.87845 20.0947 2.81641C19.6117 2.75147 18.964 2.75 18 2.75H6ZM6 4.25C6.41422 4.25 6.75 4.58579 6.75 5V7C6.75 7.41422 6.41422 7.75 6 7.75C5.58579 7.75 5.25 7.41422 5.25 7V5C5.25 4.58579 5.58579 4.25 6 4.25ZM9 4.25C9.41422 4.25 9.75 4.58579 9.75 5V7C9.75 7.41422 9.41422 7.75 9 7.75C8.58579 7.75 8.25 7.41422 8.25 7V5C8.25 4.58579 8.58579 4.25 9 4.25ZM18 5.25C18.4142 5.25 18.75 5.58579 18.75 6C18.75 6.41422 18.4142 6.75 18 6.75H13.5C13.0858 6.75 12.75 6.41422 12.75 6C12.75 5.58579 13.0858 5.25 13.5 5.25H18Z" fill="#1C274C"/>
</svg>
