<svg width="24" height="24" viewBox="0 0 24 24" fill="none" xmlns="http://www.w3.org/2000/svg">
<path d="M18 11.25C20.6234 11.25 22.75 13.3766 22.75 16C22.75 17.7601 21.7924 19.2966 20.3701 20.1172C19.997 20.9265 19.2988 21.57 18.1201 22.0088C16.8104 22.4964 14.8681 22.75 12 22.75C9.97445 22.75 8.41955 22.6232 7.22656 22.3818C6.03683 22.1409 5.15584 21.7763 4.52637 21.2637C3.24741 20.2222 3.24887 18.7633 3.25 17.6016V17.5C3.25 15.8661 4.41962 14.5394 5.97559 13.6641C7.55502 12.7757 9.68656 12.25 12 12.25C12.9683 12.25 13.9018 12.342 14.7744 12.5127C15.6214 11.7289 16.755 11.25 18 11.25ZM12 13.75C9.89537 13.75 8.02686 14.2315 6.71094 14.9717C5.37152 15.7251 4.75 16.6487 4.75 17.5C4.75 18.8078 4.79036 19.5442 5.47363 20.1006C5.84416 20.4024 6.46415 20.6965 7.52441 20.9111C8.5813 21.125 10.0261 21.25 12 21.25C14.5777 21.25 16.2398 21.0363 17.3105 20.7002C15.0141 20.3662 13.25 18.3891 13.25 16C13.25 15.2323 13.4324 14.5071 13.7559 13.8652C13.1942 13.7902 12.6061 13.75 12 13.75ZM18 12.75C16.2052 12.7501 14.75 14.2052 14.75 16C14.75 17.7948 16.2052 19.2499 18 19.25C19.7949 19.25 21.25 17.7949 21.25 16C21.25 14.2051 19.7949 12.75 18 12.75ZM18 13.917C18.4142 13.917 18.75 14.2527 18.75 14.667V15.25H19.333C19.7471 15.25 20.0828 15.5859 20.083 16C20.083 16.4142 19.7472 16.75 19.333 16.75H18.75V17.334C18.7498 17.748 18.4141 18.084 18 18.084C17.586 18.0839 17.2502 17.748 17.25 17.334V16.75H16.667C16.2528 16.75 15.917 16.4142 15.917 16C15.9171 15.5859 16.2529 15.25 16.667 15.25H17.25V14.667C17.25 14.2527 17.5858 13.917 18 13.917ZM12 1.25C14.6234 1.25 16.75 3.37665 16.75 6C16.75 8.62335 14.6234 10.75 12 10.75C9.37669 10.75 7.25 8.62333 7.25 6C7.25 3.37667 9.37669 1.25003 12 1.25ZM12 2.75C10.2051 2.75003 8.75 4.20509 8.75 6C8.75 7.79491 10.2051 9.24997 12 9.25C13.7949 9.25 15.25 7.79493 15.25 6C15.25 4.20507 13.7949 2.75 12 2.75Z" fill="#48465C"/>
</svg>
