<svg width="24" height="24" viewBox="0 0 24 24" fill="none" xmlns="http://www.w3.org/2000/svg">
<path d="M9.48608 6C10.3092 5.99934 11.0692 6.74597 12.5876 8.23828L12.9509 8.59473C14.4694 10.0871 15.229 10.8337 15.2283 11.6426C15.2281 11.9069 15.1724 12.1684 15.0662 12.4111C14.7411 13.1542 13.7437 13.5449 11.7488 14.3252L11.6042 14.3809C11.0389 14.602 10.7562 14.7131 10.5281 14.8906C10.355 15.0254 10.2054 15.1881 10.0867 15.3711C9.9303 15.6121 9.84753 15.9003 9.6814 16.4756C9.42369 17.3679 9.2941 17.8137 9.01929 18.0117C8.81506 18.1589 8.56158 18.2242 8.3103 18.1934C7.97214 18.152 7.63793 17.824 6.97046 17.168L5.94409 16.1582L3.27026 18.7861C2.97957 19.0714 2.50809 19.0716 2.21753 18.7861C1.92695 18.5005 1.92695 18.0366 2.21753 17.751L4.88159 15.1143L3.86401 14.1152C3.19679 13.4595 2.86338 13.131 2.82104 12.7988C2.78977 12.5519 2.8559 12.3023 3.00562 12.1016C3.20713 11.8315 3.66093 11.7046 4.56909 11.4512C5.15468 11.2879 5.44772 11.2065 5.69312 11.0527C5.87928 10.936 6.04427 10.7892 6.1814 10.6191C6.36216 10.3949 6.47483 10.1164 6.69995 9.56055L6.75757 9.41895C7.5516 7.45822 7.94863 6.47751 8.70483 6.1582C8.95166 6.05402 9.21747 6.00026 9.48608 6ZM21.2556 16.4229C21.6666 16.4229 21.9996 16.7504 21.9998 17.1543C21.9998 17.5583 21.6667 17.8857 21.2556 17.8857H12.324C11.913 17.8857 11.5798 17.5583 11.5798 17.1543C11.58 16.7505 11.9131 16.4229 12.324 16.4229H21.2556ZM21.2556 12.0342C21.6667 12.0342 21.9997 12.3617 21.9998 12.7656C21.9998 13.1696 21.6667 13.4971 21.2556 13.4971H17.2859C16.8749 13.497 16.5417 13.1696 16.5417 12.7656C16.5418 12.3617 16.8749 12.0343 17.2859 12.0342H21.2556ZM21.2556 7.64551C21.6667 7.64551 21.9997 7.97298 21.9998 8.37695C21.9998 8.78093 21.6667 9.1084 21.2556 9.1084H16.2937C15.8826 9.1084 15.5496 8.78093 15.5496 8.37695C15.5496 7.97298 15.8826 7.64551 16.2937 7.64551H21.2556Z" fill="#1C274C"/>
</svg>
