<svg width="24" height="24" viewBox="0 0 24 24" fill="none" xmlns="http://www.w3.org/2000/svg">
<path d="M20.3486 3.62793C20.5541 3.26834 21.0125 3.14325 21.3721 3.34863C21.7316 3.55411 21.8567 4.01247 21.6514 4.37207L18.292 10.25C19.0845 10.2505 19.754 10.2574 20.2949 10.3301C20.9225 10.4145 21.489 10.6003 21.9443 11.0557C22.3998 11.5111 22.5855 12.0783 22.6699 12.7061C22.7499 13.3008 22.75 14.0499 22.75 14.9482V15.0518C22.75 15.9503 22.7499 16.7001 22.6699 17.2949C22.5855 17.9226 22.3997 18.489 21.9443 18.9443C21.489 19.3997 20.9225 19.5855 20.2949 19.6699C19.7002 19.7499 18.9502 19.75 18.0518 19.75H5.94824C5.04985 19.75 4.29982 19.7499 3.70508 19.6699C3.07748 19.5855 2.51102 19.3997 2.05566 18.9443C1.6003 18.489 1.4145 17.9226 1.33008 17.2949C1.25012 16.7001 1.24997 15.9503 1.25 15.0518V14.9482C1.24997 14.0499 1.25017 13.3008 1.33008 12.7061C1.41449 12.0783 1.60019 11.5111 2.05566 11.0557C2.51101 10.6003 3.0775 10.4145 3.70508 10.3301C4.24602 10.2574 4.91549 10.2505 5.70801 10.25L2.34863 4.37207C2.14328 4.01247 2.26836 3.5541 2.62793 3.34863C2.98755 3.14325 3.44589 3.26834 3.65137 3.62793L7.43555 10.25H16.5645L20.3486 3.62793ZM6 11.75C5.03599 11.75 4.3883 11.7515 3.90527 11.8164C3.44393 11.8785 3.24652 11.9859 3.11621 12.1162C2.98591 12.2465 2.87845 12.4439 2.81641 12.9053C2.75147 13.3883 2.75 14.0361 2.75 15C2.75 15.964 2.75147 16.6117 2.81641 17.0947C2.87843 17.5561 2.98592 17.7535 3.11621 17.8838C3.24652 18.0141 3.4439 18.1215 3.90527 18.1836C4.3883 18.2485 5.03599 18.25 6 18.25H18C18.964 18.25 19.6117 18.2485 20.0947 18.1836C20.5561 18.1215 20.7535 18.0141 20.8838 17.8838C21.0141 17.7535 21.1215 17.5562 21.1836 17.0947C21.2485 16.6117 21.25 15.964 21.25 15C21.25 14.0361 21.2485 13.3883 21.1836 12.9053C21.1215 12.4439 21.0141 12.2465 20.8838 12.1162C20.7535 11.9859 20.5561 11.8785 20.0947 11.8164C19.6117 11.7515 18.964 11.75 18 11.75H6ZM6 14C6.55229 14 7 14.4477 7 15C7 15.5523 6.55229 16 6 16C5.44772 16 5 15.5523 5 15C5 14.4477 5.44772 14 6 14ZM9 14C9.55229 14 10 14.4477 10 15C10 15.5523 9.55229 16 9 16C8.44772 16 8 15.5523 8 15C8 14.4477 8.44772 14 9 14ZM18 14.25C18.4142 14.25 18.75 14.5858 18.75 15C18.75 15.4142 18.4142 15.75 18 15.75H14C13.5858 15.75 13.25 15.4142 13.25 15C13.25 14.5858 13.5858 14.25 14 14.25H18ZM12.084 6C12.6363 6 13.084 6.44772 13.084 7C13.084 7.55228 12.6363 8 12.084 8C11.5317 8 11.084 7.55228 11.084 7C11.084 6.44772 11.5317 6 12.084 6ZM12.084 3.75C13.7908 3.75 15.2299 4.88992 15.6846 6.44824C15.8004 6.84575 15.5722 7.26185 15.1748 7.37793C14.7772 7.49395 14.3612 7.26574 14.2451 6.86816C13.972 5.9324 13.1063 5.25 12.084 5.25C11.0617 5.25016 10.1968 5.93252 9.92383 6.86816C9.8078 7.26574 9.39173 7.49387 8.99414 7.37793C8.59656 7.26191 8.36844 6.84583 8.48438 6.44824C8.93907 4.89003 10.3772 3.75016 12.084 3.75ZM12.084 1.25C14.6904 1.25018 16.9225 2.84583 17.8604 5.11035C18.0186 5.49297 17.8367 5.9314 17.4541 6.08984C17.0714 6.24833 16.6331 6.06628 16.4746 5.68359C15.7608 3.96015 14.0626 2.75018 12.084 2.75C10.1053 2.75 8.40732 3.96018 7.69336 5.68359C7.53487 6.06628 7.09558 6.24833 6.71289 6.08984C6.33041 5.93136 6.14846 5.49292 6.30664 5.11035C7.24452 2.8457 9.47748 1.25 12.084 1.25Z" fill="#48465C"/>
</svg>
