<svg width="24" height="24" viewBox="0 0 24 24" fill="none" xmlns="http://www.w3.org/2000/svg">
<path d="M1.46899 6.47083C1.76129 6.17746 2.23608 6.17664 2.52954 6.46887L6.44849 10.3712C6.96201 10.8827 7.29518 11.2121 7.57251 11.423C7.83225 11.6204 7.95388 11.6427 8.03442 11.6427C8.11499 11.6428 8.23708 11.6205 8.49731 11.423C8.77484 11.2124 9.1083 10.8834 9.62231 10.3722L9.89673 10.0997C10.3655 9.63351 10.769 9.23083 11.136 8.95227C11.5294 8.65367 11.9669 8.42792 12.5051 8.42786C13.0433 8.42781 13.4809 8.65376 13.8743 8.95227C14.2413 9.23075 14.6456 9.63269 15.1145 10.0988L21.2502 16.1974V12.4542C21.2502 12.04 21.586 11.7042 22.0002 11.7042C22.4144 11.7043 22.7502 12.0401 22.7502 12.4542V18.0001C22.7502 18.4142 22.4143 18.75 22.0002 18.7501H16.4182C16.0041 18.7501 15.6683 18.4143 15.6682 18.0001C15.6682 17.5859 16.004 17.2501 16.4182 17.2501H20.1819L14.092 11.1974C13.5781 10.6867 13.2443 10.358 12.967 10.1476C12.707 9.95045 12.5857 9.92785 12.5051 9.92786C12.4246 9.9279 12.303 9.95043 12.0432 10.1476C11.7659 10.3581 11.4328 10.6867 10.9192 11.1974L10.6448 11.4708C10.1756 11.9373 9.77079 12.3396 9.40356 12.6183C9.01002 12.9169 8.5727 13.1428 8.03442 13.1427C7.49583 13.1425 7.05781 12.9164 6.66431 12.6173C6.29722 12.3383 5.89298 11.9358 5.42407 11.4689C5.41255 11.4573 5.4015 11.4453 5.38989 11.4337L1.47095 7.53137C1.17746 7.23909 1.17672 6.76433 1.46899 6.47083Z" fill="#48465C"/>
</svg>
