<svg width="24" height="24" viewBox="0 0 24 24" fill="none" xmlns="http://www.w3.org/2000/svg">
<path d="M2.5 4.25C4.29493 4.25 5.75 5.70508 5.75 7.5V16.5C5.75 18.2949 4.29493 19.75 2.5 19.75H2C1.58579 19.75 1.25 19.4142 1.25 19C1.25 18.5858 1.58579 18.25 2 18.25H2.5C3.4665 18.25 4.25 17.4665 4.25 16.5V7.5C4.25 6.5335 3.4665 5.75 2.5 5.75H2C1.58579 5.75 1.25 5.41421 1.25 5C1.25 4.58579 1.58579 4.25 2 4.25H2.5ZM12.5518 4.25C13.4503 4.24997 14.2001 4.25012 14.7949 4.33008C15.4225 4.41452 15.989 4.6003 16.4443 5.05566C16.8997 5.51102 17.0855 6.07748 17.1699 6.70508C17.2499 7.29985 17.25 8.04978 17.25 8.94824V15.0518C17.25 15.9503 17.2499 16.7001 17.1699 17.2949C17.0855 17.9225 16.8997 18.489 16.4443 18.9443C15.989 19.3997 15.4225 19.5855 14.7949 19.6699C14.2001 19.7499 13.4503 19.75 12.5518 19.75H11.4482C10.5497 19.75 9.79986 19.7499 9.20508 19.6699C8.57748 19.5855 8.01102 19.3997 7.55566 18.9443C7.1003 18.489 6.91452 17.9225 6.83008 17.2949C6.75012 16.7001 6.74997 15.9503 6.75 15.0518V8.94824C6.74997 8.04976 6.75012 7.29987 6.83008 6.70508C6.91452 6.07747 7.10031 5.51102 7.55566 5.05566C8.01102 4.6003 8.57747 4.41452 9.20508 4.33008C9.79986 4.25012 10.5497 4.24997 11.4482 4.25H12.5518ZM22 4.25C22.4142 4.25 22.75 4.58579 22.75 5C22.75 5.41421 22.4142 5.75 22 5.75H21.5C20.5335 5.75 19.75 6.5335 19.75 7.5V16.5C19.75 17.4665 20.5335 18.25 21.5 18.25H22C22.4142 18.25 22.75 18.5858 22.75 19C22.75 19.4142 22.4142 19.75 22 19.75H21.5C19.7051 19.75 18.25 18.2949 18.25 16.5V7.5C18.25 5.70508 19.7051 4.25 21.5 4.25H22ZM11.5 5.75C10.536 5.75 9.88831 5.75147 9.40527 5.81641C8.94388 5.87845 8.74652 5.9859 8.61621 6.11621C8.4859 6.24652 8.37845 6.44388 8.31641 6.90527C8.25147 7.3883 8.25 8.03599 8.25 9V15C8.25 15.964 8.25147 16.6117 8.31641 17.0947C8.37845 17.5561 8.48591 17.7535 8.61621 17.8838C8.74652 18.0141 8.94389 18.1215 9.40527 18.1836C9.88831 18.2485 10.536 18.25 11.5 18.25H12.5C13.464 18.25 14.1117 18.2485 14.5947 18.1836C15.0561 18.1215 15.2535 18.0141 15.3838 17.8838C15.5141 17.7535 15.6215 17.5561 15.6836 17.0947C15.7485 16.6117 15.75 15.964 15.75 15V9C15.75 8.03599 15.7485 7.3883 15.6836 6.90527C15.6215 6.44388 15.5141 6.24652 15.3838 6.11621C15.2535 5.98591 15.0561 5.87845 14.5947 5.81641C14.1117 5.75147 13.464 5.75 12.5 5.75H11.5Z" fill="#1C274C"/>
</svg>
