<svg width="24" height="24" viewBox="0 0 24 24" fill="none" xmlns="http://www.w3.org/2000/svg">
<path d="M4.40625 4.3916C4.69943 4.099 5.1742 4.0994 5.4668 4.39258C5.75928 4.68578 5.75897 5.16056 5.46582 5.45312C3.78732 7.12835 2.75005 9.44231 2.75 12C2.75 14.5878 3.81199 16.9267 5.52539 18.6064C5.82082 18.8965 5.82501 19.3713 5.53516 19.667C5.24516 19.9624 4.77028 19.9666 4.47461 19.6768C2.48551 17.7267 1.25 15.0069 1.25 12C1.25005 9.028 2.45738 6.33669 4.40625 4.3916ZM18.6162 4.46484C18.912 4.17487 19.3868 4.1798 19.6768 4.47559C21.5768 6.4138 22.75 9.07054 22.75 12C22.75 14.9643 21.5493 17.6499 19.6094 19.5938C19.3168 19.8869 18.8419 19.8873 18.5488 19.5947C18.2557 19.3022 18.2544 18.8274 18.5469 18.5342C20.2178 16.86 21.25 14.5512 21.25 12C21.25 9.4788 20.2417 7.19458 18.6055 5.52539C18.3157 5.22966 18.3207 4.75478 18.6162 4.46484ZM7.24902 7.45215C7.55145 7.16929 8.02659 7.18498 8.30957 7.4873C8.59255 7.78969 8.57669 8.2648 8.27441 8.54785C7.3255 9.43584 6.75 10.6504 6.75 11.9824C6.75001 13.3299 7.33876 14.5577 8.30762 15.4482C8.6124 15.7285 8.63266 16.2028 8.35254 16.5078C8.07223 16.8127 7.59694 16.833 7.29199 16.5527C6.03927 15.4011 5.25001 13.7826 5.25 11.9824C5.25 10.2032 6.02134 8.60101 7.24902 7.45215ZM15.7432 7.52539C16.0295 7.22639 16.5044 7.21575 16.8037 7.50195C18.0009 8.64707 18.75 10.2289 18.75 11.9824C18.75 13.7569 17.9827 15.3548 16.7607 16.5029C16.4589 16.7866 15.9838 16.7716 15.7002 16.4697C15.4169 16.1678 15.4317 15.6937 15.7334 15.4102C16.6779 14.5228 17.25 13.311 17.25 11.9824C17.25 10.6694 16.6913 9.47041 15.7666 8.58594C15.4673 8.29963 15.4569 7.82472 15.7432 7.52539ZM10.5439 9.1123C10.9446 8.84177 11.3917 9.08618 12.2852 9.5752C12.517 9.70203 12.7408 9.83114 12.9385 9.95605C13.1638 10.0985 13.4091 10.2696 13.6562 10.4512C14.5519 11.1087 14.9999 11.4376 15 12C15 12.5624 14.552 12.8912 13.6562 13.5488C13.4091 13.7303 13.1639 13.9015 12.9385 14.0439C12.7409 14.1688 12.5169 14.298 12.2852 14.4248C11.3916 14.9139 10.9446 15.1584 10.5439 14.8877C10.1432 14.6169 10.107 14.0505 10.0342 12.917C10.0136 12.5964 10 12.2817 10 12C10 11.7184 10.0136 11.4044 10.0342 11.084C10.107 9.9504 10.1431 9.38305 10.5439 9.1123Z" fill="#48465C"/>
</svg>
