<svg width="24" height="24" viewBox="0 0 24 24" fill="none" xmlns="http://www.w3.org/2000/svg">
<path d="M14.0002 2.25C14.6985 2.25018 15.3007 2.65946 15.5813 3.25098C16.2649 3.25595 16.7981 3.28681 17.2737 3.47266C17.8418 3.69473 18.3358 4.07275 18.6995 4.5625C19.0664 5.05659 19.2387 5.68989 19.4758 6.56152L19.5227 6.73145L20.0354 9.69434C20.2208 9.82223 20.3817 9.97397 20.5217 10.1533C21.4226 11.307 20.9939 13.0233 20.136 16.4551C19.5904 18.6375 19.3176 19.7288 18.5042 20.3643C17.6904 20.9996 16.5653 21 14.3157 21H9.68481C7.43498 21 6.31012 20.9996 5.49634 20.3643C4.68256 19.7289 4.4092 18.6378 3.86353 16.4551C3.0056 13.0234 2.57697 11.307 3.47778 10.1533C3.61784 9.97398 3.77873 9.82223 3.96411 9.69434L4.47681 6.73145L4.52368 6.56152C4.76075 5.68989 4.93313 5.05659 5.30005 4.5625C5.66377 4.07275 6.15764 3.69473 6.72583 3.47266C7.20138 3.2868 7.73467 3.25595 8.41821 3.25098C8.69886 2.65946 9.30107 2.25019 9.99927 2.25H14.0002ZM8.00024 12.25C7.58603 12.25 7.25024 12.5858 7.25024 13V17C7.25024 17.4142 7.58603 17.75 8.00024 17.75C8.41433 17.7499 8.75024 17.4141 8.75024 17V13C8.75024 12.5859 8.41433 12.2501 8.00024 12.25ZM12.0002 12.25C11.586 12.25 11.2502 12.5858 11.2502 13V17C11.2502 17.4142 11.586 17.75 12.0002 17.75C12.4143 17.7499 12.7502 17.4141 12.7502 17V13C12.7502 12.5859 12.4143 12.2501 12.0002 12.25ZM16.0002 12.25C15.586 12.25 15.2502 12.5858 15.2502 13V17C15.2502 17.4142 15.586 17.75 16.0002 17.75C16.4143 17.7499 16.7502 17.4141 16.7502 17V13C16.7502 12.5859 16.4143 12.2501 16.0002 12.25ZM15.5803 4.75195C15.2991 5.34188 14.6972 5.74982 14.0002 5.75H9.99927C9.30223 5.74981 8.70044 5.34188 8.41919 4.75195C7.75736 4.75864 7.49153 4.78421 7.27173 4.87012C6.96588 4.9897 6.69995 5.19339 6.50415 5.45703C6.33004 5.6916 6.22631 6.01825 5.94263 7.05762L5.5813 9.14551C6.57946 8.99974 7.90979 9 9.68481 9H14.3157C16.09 9 17.4193 8.99988 18.4172 9.14551L18.0559 7.05762C17.7722 6.01839 17.6694 5.69158 17.4954 5.45703C17.2996 5.19339 17.0337 4.9897 16.7278 4.87012C16.508 4.78421 16.2421 4.75864 15.5803 4.75195Z" fill="#48465C"/>
</svg>
