<svg width="24" height="24" viewBox="0 0 24 24" fill="none" xmlns="http://www.w3.org/2000/svg">
<path d="M13.834 3.25C15.7249 3.24999 17.2187 3.24953 18.3867 3.40234C19.5856 3.5592 20.5541 3.88912 21.3193 4.63379C22.0873 5.38116 22.4303 6.33178 22.5928 7.50781C22.7504 8.64837 22.75 10.1058 22.75 11.9424V12.0576C22.75 13.8942 22.7504 15.3516 22.5928 16.4922C22.4302 17.6682 22.0873 18.6189 21.3193 19.3662C20.5541 20.1109 19.5856 20.4409 18.3867 20.5977C17.2187 20.7505 15.7249 20.75 13.834 20.75H11.1055C10.0226 20.75 9.15804 20.7505 8.4502 20.6846C7.71934 20.6165 7.09928 20.4745 6.51465 20.1592C5.9291 19.8433 5.47452 19.4051 5.02539 18.835C4.59159 18.2843 4.13276 17.5692 3.55957 16.6768L2.83691 15.5518C2.35887 14.8075 1.9683 14.1996 1.70215 13.6699C1.42409 13.1165 1.25 12.589 1.25 12C1.25 11.411 1.42409 10.8835 1.70215 10.3301C1.96831 9.80047 2.35885 9.19255 2.83691 8.44824L3.55957 7.32324C4.13277 6.43076 4.59159 5.71576 5.02539 5.16504C5.47442 4.59501 5.92929 4.15763 6.51465 3.8418C7.09928 3.52648 7.71933 3.38351 8.4502 3.31543C9.15805 3.24952 10.0226 3.24999 11.1055 3.25H13.834ZM11.1416 4.75C10.0146 4.75 9.22006 4.75091 8.58984 4.80957C7.97488 4.86683 7.57247 4.97519 7.22754 5.16113C6.88348 5.3467 6.57763 5.61956 6.2041 6.09375C5.82034 6.58095 5.39957 7.23425 4.80176 8.16504L4.12109 9.22559C3.61606 10.0119 3.26938 10.5534 3.04297 11.0039C2.82443 11.4388 2.75 11.7286 2.75 12C2.75 12.2714 2.82443 12.5612 3.04297 12.9961C3.26938 13.4466 3.61606 13.9881 4.12109 14.7744L4.80176 15.835C5.39958 16.7658 5.82033 17.4191 6.2041 17.9062C6.57763 18.3805 6.88348 18.6533 7.22754 18.8389C7.57247 19.0248 7.97487 19.1332 8.58984 19.1904C9.22006 19.2491 10.0146 19.25 11.1416 19.25H13.7793C15.7374 19.25 17.1331 19.2489 18.1924 19.1104C19.2321 18.9742 19.8348 18.7179 20.2734 18.291C20.7091 17.8669 20.968 17.2883 21.1064 16.2861C21.2481 15.2602 21.25 13.9073 21.25 12C21.25 10.0928 21.2481 8.73984 21.1064 7.71387C20.968 6.7117 20.7091 6.13308 20.2734 5.70898C19.8348 5.28215 19.2321 5.0257 18.1924 4.88965C17.1331 4.75106 15.7374 4.75 13.7793 4.75H11.1416ZM14.9697 8.96973C15.2626 8.67687 15.7374 8.67685 16.0303 8.96973C16.3232 9.2626 16.3231 9.73733 16.0303 10.0303L14.0605 12L16.0303 13.9697C16.3232 14.2625 16.3232 14.7374 16.0303 15.0303C15.7374 15.3231 15.2626 15.3231 14.9697 15.0303L13 13.0605L11.0303 15.0303C10.7374 15.3232 10.2627 15.3232 9.96973 15.0303C9.67684 14.7374 9.67684 14.2626 9.96973 13.9697L11.9395 12L9.96973 10.0303C9.67684 9.73741 9.67684 9.26262 9.96973 8.96973C10.2626 8.67684 10.7374 8.67684 11.0303 8.96973L13 10.9395L14.9697 8.96973Z" fill="#48465C"/>
</svg>
