<svg width="24" height="24" viewBox="0 0 24 24" fill="none" xmlns="http://www.w3.org/2000/svg">
<path d="M15 5C17.8089 5 19.2138 4.99971 20.2227 5.67383C20.6593 5.96562 21.0343 6.34068 21.3262 6.77734C22.0003 7.78623 22 9.19107 22 12C22 14.8089 22.0003 16.2138 21.3262 17.2227C21.0343 17.6593 20.6593 18.0343 20.2227 18.3262C19.2138 19.0003 17.8089 19 15 19H9C6.19108 19 4.78623 19.0003 3.77734 18.3262C3.34068 18.0343 2.96563 17.6593 2.67383 17.2227C1.99971 16.2138 2 14.8089 2 12C2 9.19108 1.99971 7.78623 2.67383 6.77734C2.96563 6.34068 3.34068 5.96563 3.77734 5.67383C4.78623 4.99971 6.19108 5 9 5H15ZM5.5 8.25C5.08579 8.25 4.75 8.58579 4.75 9V15C4.75 15.4142 5.08579 15.75 5.5 15.75C5.91421 15.75 6.25 15.4142 6.25 15V9C6.25 8.58579 5.91421 8.25 5.5 8.25ZM12 8.25C9.92893 8.25 8.25 9.92893 8.25 12C8.25 14.0711 9.92893 15.75 12 15.75C14.0711 15.75 15.75 14.0711 15.75 12C15.75 9.92893 14.0711 8.25 12 8.25ZM18.5 8.25C18.0858 8.25 17.75 8.58579 17.75 9V15C17.75 15.4142 18.0858 15.75 18.5 15.75C18.9142 15.75 19.25 15.4142 19.25 15V9C19.25 8.58579 18.9142 8.25 18.5 8.25ZM12 9.75C13.2426 9.75 14.25 10.7574 14.25 12C14.25 13.2426 13.2426 14.25 12 14.25C10.7574 14.25 9.75 13.2426 9.75 12C9.75 10.7574 10.7574 9.75 12 9.75Z" fill="#48465C"/>
</svg>
