<svg width="24" height="24" viewBox="0 0 24 24" fill="none" xmlns="http://www.w3.org/2000/svg">
<path d="M14.0051 4C17.7856 4 19.6763 4.00031 20.8508 5.17188C21.6592 5.97849 21.911 7.12357 21.9894 8.98926C22.005 9.35933 22.0126 9.54452 21.9435 9.66797C21.8744 9.7914 21.5988 9.94577 21.0471 10.2539C20.4343 10.5961 20.0197 11.2497 20.0197 12C20.0197 12.7503 20.4343 13.4039 21.0471 13.7461C21.5988 14.0542 21.8744 14.2085 21.9435 14.332C22.0126 14.4554 22.005 14.6407 21.9894 15.0107C21.911 16.8764 21.6592 18.0216 20.8508 18.8281C19.6763 19.9997 17.7856 20 14.0051 20H9.9953C6.21466 20 4.32409 19.9997 3.1496 18.8281C2.34106 18.0216 2.08938 16.8766 2.01093 15.0107C1.99537 14.641 1.98688 14.4554 2.05585 14.332C2.12496 14.2085 2.40156 14.0543 2.95331 13.7461C3.56593 13.4039 3.97968 12.7502 3.97968 12C3.97968 11.2498 3.56593 10.5961 2.95331 10.2539C2.40156 9.94575 2.12496 9.79142 2.05585 9.66797C1.98689 9.54453 1.99538 9.35909 2.01093 8.98926C2.08938 7.12341 2.34106 5.9785 3.1496 5.17188C4.32409 4.00031 6.21467 4 9.9953 4H14.0051ZM15.548 8.46973C15.2544 8.17684 14.7783 8.17685 14.4846 8.46973L8.46991 14.4697C8.17628 14.7626 8.17628 15.2374 8.46991 15.5303C8.76347 15.8229 9.23883 15.8229 9.53241 15.5303L15.548 9.53027C15.8415 9.23742 15.8415 8.76258 15.548 8.46973ZM14.5148 13.5C13.9613 13.5 13.5119 13.9477 13.5119 14.5C13.5119 15.0523 13.9613 15.5 14.5148 15.5C15.0685 15.5 15.5178 15.0523 15.5178 14.5C15.5178 13.9477 15.0685 13.5 14.5148 13.5ZM9.50214 8.5C8.94862 8.50017 8.50018 8.94783 8.50018 9.5C8.50018 10.0522 8.94862 10.4998 9.50214 10.5C10.0558 10.5 10.5051 10.0523 10.5051 9.5C10.5051 8.94772 10.0558 8.5 9.50214 8.5Z" fill="#1C274C"/>
</svg>
