<svg width="24" height="24" viewBox="0 0 24 24" fill="none" xmlns="http://www.w3.org/2000/svg">
<path d="M12.9814 2C14.2534 1.99998 15.2786 2.00003 16.085 2.1084C16.9222 2.22097 17.6275 2.46169 18.1875 3.02148C18.7474 3.5814 18.988 4.28671 19.1006 5.12402C19.209 5.93051 19.209 6.95635 19.209 8.22852V15.7725C19.209 17.0443 19.209 18.0697 19.1006 18.876C18.988 19.7134 18.7474 20.4186 18.1875 20.9785C17.6275 21.5383 16.9222 21.779 16.085 21.8916C15.2786 22 14.2533 22 12.9814 22H11.0186C9.74667 22 8.72143 21.9999 7.91504 21.8916C7.0778 21.779 6.3724 21.5383 5.8125 20.9785C5.25258 20.4186 5.01198 19.7134 4.89941 18.876C4.791 18.0697 4.791 17.0444 4.79102 15.7725V8.22754C4.791 6.95561 4.791 5.9304 4.89941 5.12402C5.01198 4.28671 5.25258 3.5814 5.8125 3.02148C6.3724 2.46167 7.0778 2.22097 7.91504 2.1084C8.72143 2.00003 9.74667 1.99998 11.0186 2H12.9814ZM3.35254 4.8291C3.43055 4.77756 3.52881 4.8448 3.5166 4.9375C3.42286 5.63473 3.40118 6.45483 3.39648 7.34863C3.39617 7.40843 3.3957 7.46885 3.39551 7.5293V16.4707C3.3957 16.5311 3.39617 16.5915 3.39648 16.6514C3.40119 17.5449 3.4229 18.3644 3.5166 19.0615C3.52908 19.1542 3.43061 19.2223 3.35254 19.1709C2.66255 18.713 2.17261 17.9793 2.03711 17.124C1.99971 16.8878 1.9999 16.6197 2 16.2461V7.75391C1.9999 7.38042 1.99976 7.11207 2.03711 6.87598C2.17258 6.02064 2.66251 5.28707 3.35254 4.8291ZM20.4834 4.9375C20.4712 4.84481 20.5695 4.77757 20.6475 4.8291C21.3375 5.28707 21.8274 6.02064 21.9629 6.87598C22.0002 7.11208 22.0001 7.38039 22 7.75391V16.2461C22.0001 16.6197 22.0003 16.8878 21.9629 17.124C21.8274 17.9793 21.3374 18.713 20.6475 19.1709C20.5694 19.2222 20.4709 19.1542 20.4834 19.0615C20.5834 18.318 20.6016 17.4351 20.6045 16.4717V7.52832C20.6016 6.56464 20.5834 5.68121 20.4834 4.9375ZM11.0693 3.39551C9.73429 3.39551 8.80315 3.39675 8.10059 3.49121C7.41801 3.58298 7.05628 3.75134 6.79883 4.00879C6.54161 4.26619 6.37397 4.62751 6.28223 5.30957C6.18776 6.01222 6.18652 6.94403 6.18652 8.2793V12.9043L6.18945 12.9004C7.10625 11.9599 8.52497 12.0242 9.37305 13.0186L12.3135 16.4668C12.5489 16.7426 12.8581 16.7552 13.0957 16.5596L13.3008 16.3916C14.3766 15.5049 15.8518 15.6202 16.8086 16.6299L17.7949 17.6709C17.8137 17.1341 17.8135 16.4952 17.8135 15.7207V8.2793C17.8135 6.94403 17.8123 6.01222 17.7178 5.30957C17.626 4.6275 17.4584 4.26619 17.2012 4.00879C16.9438 3.75134 16.582 3.58298 15.8994 3.49121C15.1969 3.39675 14.2657 3.39551 12.9307 3.39551H11.0693ZM13.8604 5.48828C14.8878 5.48828 15.7206 6.32118 15.7207 7.34863C15.7207 8.37613 14.8879 9.20898 13.8604 9.20898C12.8329 9.2089 12 8.37608 12 7.34863C12.0001 6.32123 12.833 5.48837 13.8604 5.48828Z" fill="#1C274C"/>
</svg>
