<svg width="24" height="24" viewBox="0 0 24 24" fill="none" xmlns="http://www.w3.org/2000/svg">
<path d="M12.0002 2C12.6102 2.00013 13.0109 2.82187 13.8127 4.46484L16.05 9.04883C16.4743 9.91825 16.6869 10.3525 17.005 10.5127C17.1814 10.6014 17.3757 10.6326 17.5666 10.6025C17.9112 10.548 18.2202 10.1965 18.838 9.49316C20.0325 8.1334 20.63 7.4528 21.1056 7.49414C21.3629 7.51674 21.6044 7.64846 21.7814 7.8623C22.1083 8.25781 22.018 9.21412 21.838 11.126L21.6086 13.5615C21.2309 17.5741 21.0421 19.5803 19.8595 20.79C18.6769 21.9997 16.9043 22 13.3595 22H10.6398C7.09508 22 5.32239 21.9998 4.1398 20.79C2.95739 19.5803 2.7684 17.5739 2.39078 13.5615L2.16226 11.126C1.9823 9.21386 1.89191 8.25772 2.2189 7.8623C2.39584 7.64853 2.63647 7.5168 2.89371 7.49414C3.3694 7.45236 3.96747 8.13299 5.16226 9.49316C5.78002 10.1964 6.08914 10.548 6.43375 10.6025C6.62461 10.6325 6.81903 10.6013 6.99527 10.5127C7.31341 10.3524 7.5261 9.91818 7.95035 9.04883L10.1867 4.46484C10.9886 2.8216 11.39 2 12.0002 2ZM9.00015 17.25C8.58594 17.25 8.25015 17.5858 8.25015 18C8.25015 18.4142 8.58594 18.75 9.00015 18.75H15.0002C15.4143 18.7499 15.7502 18.4142 15.7502 18C15.7502 17.5858 15.4143 17.2501 15.0002 17.25H9.00015Z" fill="#1C274C"/>
</svg>
