<svg width="24" height="24" viewBox="0 0 24 24" fill="none" xmlns="http://www.w3.org/2000/svg">
<path d="M12 14C12.6675 14 13.0887 14.8432 13.9316 16.5293L15.2676 19.2002C15.7793 20.2239 16.035 20.7363 15.9961 21.0586C15.9399 21.5243 15.5893 21.9002 15.1289 21.9893C14.8102 22.0508 14.2817 21.8324 13.2246 21.3945C12.8336 21.2325 12.6378 21.1509 12.4375 21.1094C12.1491 21.0498 11.8509 21.0498 11.5625 21.1094C11.3622 21.1509 11.1664 21.2325 10.7754 21.3945C9.71834 21.8325 9.18975 22.0508 8.87109 21.9893C8.41068 21.9002 8.06017 21.5243 8.00391 21.0586C7.9651 20.7363 8.22066 20.2239 8.73242 19.2002L10.0684 16.5293C10.9113 14.8432 11.3325 14 12 14ZM13.5479 11.0986L20.2041 16.3281C19.6421 16.6703 18.9436 16.8387 18 16.9209C17.3922 16.9739 16.6828 16.9914 15.8428 16.9971L15.2275 15.7666C14.8461 15.0034 14.4879 14.2864 14.1299 13.7734C13.7638 13.249 13.1005 12.5 12 12.5C10.8995 12.5 10.2362 13.249 9.87012 13.7734C9.51214 14.2864 9.15383 15.0034 8.77246 15.7666L8.15723 16.9971C7.31723 16.9914 6.60778 16.9739 6 16.9209C4.86063 16.8216 4.07863 16.5971 3.46289 16.0918C3.26035 15.9256 3.07442 15.7396 2.9082 15.5371C2.00033 14.4307 2 12.7873 2 9.5C2 6.21252 2.00024 4.56826 2.9082 3.46191C2.9255 3.44084 2.94322 3.42012 2.96094 3.39941L13.5479 11.0986ZM21.3223 3.78613C21.9997 4.8889 22 6.51838 22 9.5C22 12.5337 21.9996 14.1679 21.2861 15.2715L15.1074 10.416L21.3223 3.78613ZM14.5 2C17.534 2 19.1679 2.00015 20.2715 2.71387L13.9053 9.50391L4.2168 2.45801C5.3086 2.00042 6.88382 2 9.5 2H14.5Z" fill="#48465C"/>
</svg>
