<svg width="24" height="24" viewBox="0 0 24 24" fill="none" xmlns="http://www.w3.org/2000/svg">
<path d="M12.0576 1.25C14.3657 1.24999 16.1745 1.24974 17.5859 1.43945C19.0306 1.63369 20.1706 2.03977 21.0654 2.93457C21.9602 3.82938 22.3662 4.96932 22.5605 6.41406C22.7502 7.82544 22.75 9.63432 22.75 11.9424V12.0576C22.75 14.3657 22.7502 16.1745 22.5605 17.5859C22.3662 19.0306 21.9602 20.1706 21.0654 21.0654C20.1706 21.9602 19.0306 22.3662 17.5859 22.5605C16.1745 22.7502 14.3657 22.75 12.0576 22.75H11.9424C9.63432 22.75 7.82544 22.7502 6.41406 22.5605C4.96932 22.3662 3.82938 21.9602 2.93457 21.0654C2.03977 20.1706 1.63369 19.0306 1.43945 17.5859C1.24974 16.1745 1.24999 14.3657 1.25 12.0576V11.9424C1.24999 9.63433 1.24974 7.82544 1.43945 6.41406C1.63369 4.96932 2.03976 3.82938 2.93457 2.93457C3.82938 2.03976 4.96932 1.63369 6.41406 1.43945C7.82544 1.24974 9.63433 1.24999 11.9424 1.25H12.0576ZM12 2.75C9.62178 2.75 7.91326 2.75198 6.61328 2.92676C5.33508 3.09865 4.56472 3.42551 3.99512 3.99512C3.42551 4.56472 3.09865 5.33508 2.92676 6.61328C2.75198 7.91326 2.75 9.62178 2.75 12C2.75 14.3782 2.75198 16.0867 2.92676 17.3867C3.09865 18.6649 3.42551 19.4352 3.99512 20.0049C4.56472 20.5745 5.33508 20.9014 6.61328 21.0732C7.91326 21.248 9.62178 21.25 12 21.25C14.3782 21.25 16.0867 21.248 17.3867 21.0732C18.6649 20.9014 19.4352 20.5745 20.0049 20.0049C20.5745 19.4352 20.9014 18.6649 21.0732 17.3867C21.248 16.0867 21.25 14.3782 21.25 12C21.25 9.62178 21.248 7.91326 21.0732 6.61328C20.9014 5.33508 20.5745 4.56472 20.0049 3.99512C19.4352 3.42551 18.6649 3.09865 17.3867 2.92676C16.0867 2.75198 14.3782 2.75 12 2.75ZM9.60938 6.81836C11.7004 4.72732 15.0906 4.72732 17.1816 6.81836C19.2727 8.9094 19.2727 12.2996 17.1816 14.3906C15.7929 15.7793 13.8313 16.2452 12.0605 15.791L9.61035 18.2412C9.23735 18.6143 8.71472 18.7974 8.19043 18.7393L6.79785 18.585C6.48015 18.5497 6.18406 18.4068 5.95801 18.1807L5.81934 18.042C5.5933 17.816 5.45034 17.5198 5.41504 17.2021L5.26074 15.8096C5.20256 15.2852 5.38579 14.7626 5.75879 14.3896L8.20898 11.9395C7.75477 10.1687 8.2207 8.20708 9.60938 6.81836ZM16.1211 7.87891C14.6158 6.37368 12.1751 6.37366 10.6699 7.87891C9.67111 8.87773 9.33471 10.2887 9.66309 11.5674C9.78257 12.0326 9.68674 12.5827 9.29395 12.9756L6.81934 15.4502C6.7685 15.5011 6.74305 15.5731 6.75098 15.6445L6.90234 17.0039L6.99609 17.0977L8.35547 17.248C8.42693 17.256 8.49897 17.2315 8.5498 17.1807L8.84277 16.8867L8.21289 16.2637C7.91872 15.9725 7.91589 15.4975 8.20703 15.2031C8.49818 14.9088 8.97305 14.9063 9.26758 15.1973L9.90332 15.8262L11.0244 14.7061C11.4175 14.313 11.9676 14.2175 12.4326 14.3369C13.7113 14.6652 15.1222 14.3289 16.1211 13.3301C17.6263 11.8249 17.6263 9.38416 16.1211 7.87891ZM11.8604 9.19336C12.674 8.37994 13.9931 8.37984 14.8066 9.19336C15.6202 10.0069 15.6201 11.326 14.8066 12.1396C13.993 12.9532 12.674 12.9532 11.8604 12.1396C11.0468 11.326 11.0468 10.0069 11.8604 9.19336ZM13.7461 10.2539C13.5183 10.0262 13.1487 10.0263 12.9209 10.2539C12.693 10.4817 12.693 10.8513 12.9209 11.0791C13.1487 11.307 13.5183 11.307 13.7461 11.0791C13.9737 10.8513 13.9738 10.4817 13.7461 10.2539Z" fill="#1C274C"/>
</svg>
