<svg width="24" height="24" viewBox="0 0 24 24" fill="none" xmlns="http://www.w3.org/2000/svg">
<path d="M16.0547 1.25C17.4221 1.24998 18.5247 1.24971 19.3916 1.36621C20.2917 1.48723 21.0503 1.74671 21.6523 2.34863C22.254 2.95049 22.5128 3.70847 22.6338 4.6084C22.7504 5.47534 22.75 6.5778 22.75 7.94531V16.0547C22.75 17.4222 22.7504 18.5246 22.6338 19.3916C22.5128 20.2915 22.254 21.0494 21.6523 21.6514C21.0503 22.2533 20.2917 22.5128 19.3916 22.6338C18.5247 22.7502 17.4221 22.75 16.0547 22.75H14.9453C13.5778 22.75 12.4753 22.7503 11.6084 22.6338C10.7083 22.5128 9.95053 22.2533 9.34863 21.6514C8.82378 21.1264 8.55816 20.4816 8.41895 19.7236C8.28366 18.9871 8.25798 18.0854 8.25195 17.0039C8.24981 16.5898 8.58394 16.2523 8.99805 16.25C9.41214 16.2478 9.74965 16.582 9.75195 16.9961C9.75805 18.0894 9.78649 18.8649 9.89453 19.4531C9.99863 20.0196 10.1659 20.3474 10.4092 20.5908C10.686 20.8676 11.0749 21.0478 11.8086 21.1465C12.5639 21.2479 13.5649 21.25 15 21.25H16C17.4354 21.25 18.437 21.248 19.1924 21.1465C19.9259 21.0478 20.3141 20.8675 20.5908 20.5908C20.8676 20.3141 21.0487 19.9259 21.1475 19.1924C21.249 18.437 21.25 17.4354 21.25 16V8C21.25 6.56491 21.2489 5.56388 21.1475 4.80859C21.0488 4.07482 20.8676 3.68594 20.5908 3.40918C20.3141 3.13252 19.9259 2.95216 19.1924 2.85352C18.437 2.75196 17.4354 2.75 16 2.75H15C13.5649 2.75 12.5639 2.75199 11.8086 2.85352C11.0749 2.95217 10.686 3.13242 10.4092 3.40918C10.1659 3.65256 9.99863 3.98043 9.89453 4.54688C9.78649 5.13508 9.75805 5.91055 9.75195 7.00391C9.74965 7.41802 9.41214 7.75217 8.99805 7.75C8.58392 7.74769 8.2498 7.41017 8.25195 6.99609C8.25798 5.91459 8.28366 5.01292 8.41895 4.27637C8.55817 3.51843 8.82377 2.87354 9.34863 2.34863C9.95053 1.74673 10.7083 1.48723 11.6084 1.36621C12.4753 1.24965 13.5778 1.24998 14.9453 1.25H16.0547ZM5.46973 7.46973C5.76262 7.17684 6.23738 7.17684 6.53027 7.46973C6.82316 7.76262 6.82316 8.23738 6.53027 8.53027L3.81055 11.25H14C14.4142 11.25 14.75 11.5858 14.75 12C14.75 12.4142 14.4142 12.75 14 12.75H3.81055L6.53027 15.4697C6.82316 15.7626 6.82316 16.2374 6.53027 16.5303C6.23739 16.8232 5.76261 16.8232 5.46973 16.5303L1.46973 12.5303C1.32908 12.3897 1.25 12.1989 1.25 12C1.25 11.8011 1.32908 11.6103 1.46973 11.4697L5.46973 7.46973Z" fill="#48465C"/>
</svg>
