<svg width="24" height="24" viewBox="0 0 24 24" fill="none" xmlns="http://www.w3.org/2000/svg">
<path d="M12 1.25C17.9371 1.25 22.75 6.06294 22.75 12C22.75 12.4195 22.7265 12.8333 22.6797 13.2402L22.707 13.25C22.6928 13.2898 22.6775 13.3429 22.6592 13.4062C21.9703 18.6787 17.4604 22.75 12 22.75C6.06294 22.75 1.25 17.9371 1.25 12C1.25 6.06294 6.06294 1.25 12 1.25ZM5.57812 5.34277C3.83457 7.02507 2.75 9.38583 2.75 12C2.75 17.1086 6.89137 21.25 12 21.25C12.1275 21.25 12.2546 21.2473 12.3809 21.2422C12.1754 20.3306 12.1478 19.1046 12.7744 17.9238C13.4266 16.6955 14.776 16.162 15.7686 15.918C16.2886 15.7902 16.7708 15.7277 17.1211 15.6963C17.297 15.6805 17.442 15.6721 17.5449 15.668C17.5964 15.666 17.6377 15.6646 17.667 15.6641H17.71C19.3821 15.6467 20.1362 15.1028 20.5361 14.584C20.8777 14.1408 21.0069 13.6967 21.1377 13.2471C21.1543 13.19 21.1714 13.1325 21.1885 13.0752C21.2293 12.7224 21.25 12.3636 21.25 12C21.25 9.47592 20.2387 7.18754 18.5996 5.51855C18.5909 5.55246 18.5823 5.58628 18.5732 5.61914C18.4104 6.2121 18.147 6.82127 17.8613 7.25488C17.6054 7.64316 17.1092 8.03511 16.6973 8.33105C16.4261 8.52583 16.1437 8.69132 15.8877 8.83887C15.8568 8.85668 15.826 8.87431 15.7959 8.8916C15.5681 9.02267 15.3634 9.14113 15.166 9.27148C14.7343 9.55678 14.3997 9.86355 14.1748 10.3271C14.0961 10.4895 14.0941 10.6479 14.1406 10.8174C14.2152 11.0889 14.2658 11.3947 14.2666 11.7061C14.2683 12.3549 13.9374 12.8812 13.5127 13.2236C13.093 13.562 12.5444 13.7559 11.9922 13.75C9.53699 13.7231 8.0273 11.7307 7.82812 9.51465C7.74892 8.6331 7.36203 7.74127 6.87402 6.96191C6.4259 6.24626 5.92105 5.67113 5.57812 5.34277ZM19.9043 16.8066C19.3089 17.0248 18.5913 17.1549 17.7266 17.1641H17.6953C17.6758 17.1645 17.645 17.1654 17.6045 17.167C17.5234 17.1703 17.4031 17.1762 17.2549 17.1895C16.9568 17.2162 16.5536 17.2701 16.127 17.375C15.2258 17.5965 14.4347 17.9939 14.0986 18.627C13.6431 19.4853 13.708 20.42 13.8779 21.0596C16.4268 20.5338 18.5927 18.9588 19.9043 16.8066ZM12 2.75C10.0481 2.75 8.23755 3.35465 6.74512 4.38672C7.16015 4.80472 7.68094 5.42408 8.14551 6.16602C8.70293 7.05627 9.21415 8.17743 9.32227 9.37988C9.47321 11.06 10.5347 12.2338 12.0078 12.25C12.2103 12.2523 12.4211 12.1775 12.5713 12.0566C12.7164 11.9398 12.7669 11.8158 12.7666 11.71C12.7662 11.5545 12.7395 11.3825 12.6934 11.2148C12.5723 10.7737 12.5554 10.2293 12.8252 9.67285C13.2102 8.87905 13.7809 8.3882 14.3389 8.01953C14.5779 7.86159 14.8261 7.71941 15.0498 7.59082C15.08 7.5735 15.1095 7.55588 15.1387 7.53906C15.3939 7.39194 15.6183 7.25892 15.8223 7.1123C16.2531 6.80273 16.5261 6.55602 16.6094 6.42969C16.7919 6.15278 16.9972 5.69546 17.127 5.22266C17.2299 4.84803 17.2576 4.56004 17.248 4.38184C15.7569 3.35268 13.9488 2.75 12 2.75Z" fill="#48465C"/>
</svg>
