<svg width="24" height="24" viewBox="0 0 24 24" fill="none" xmlns="http://www.w3.org/2000/svg">
<path d="M11.4697 3.96979C11.7626 3.6769 12.2374 3.6769 12.5303 3.96979L17.5303 8.96979C17.8231 9.26268 17.8232 9.73749 17.5303 10.0303C17.2374 10.3232 16.7626 10.3232 16.4697 10.0303L12.75 6.31061V14.5001C12.75 15.4535 12.4699 16.8671 11.6084 18.0635C10.7193 19.2982 9.24422 20.2501 7 20.2501C6.58581 20.2501 6.25003 19.9142 6.25 19.5001C6.25 19.0859 6.58579 18.7501 7 18.7501C8.75556 18.7501 9.7807 18.0351 10.3916 17.1866C11.0299 16.2999 11.25 15.2133 11.25 14.5001V6.31061L7.53027 10.0303C7.23739 10.3232 6.76261 10.3232 6.46973 10.0303C6.17685 9.73748 6.17687 9.26268 6.46973 8.96979L11.4697 3.96979Z" fill="#48465C"/>
</svg>
