<svg width="24" height="24" viewBox="0 0 24 24" fill="none" xmlns="http://www.w3.org/2000/svg">
<path d="M11.4697 3.96973C11.7626 3.67684 12.2374 3.67684 12.5303 3.96973L17.5303 8.96973C17.8231 9.26262 17.8232 9.73743 17.5303 10.0303C17.2374 10.3231 16.7626 10.3231 16.4697 10.0303L12.75 6.31055V14.5C12.75 15.4534 12.4699 16.867 11.6084 18.0635C10.7193 19.2981 9.24422 20.25 7 20.25C6.58581 20.25 6.25003 19.9142 6.25 19.5C6.25 19.0858 6.58579 18.75 7 18.75C8.75556 18.75 9.7807 18.035 10.3916 17.1865C11.0299 16.2998 11.25 15.2132 11.25 14.5V6.31055L7.53027 10.0303C7.23739 10.3231 6.76261 10.3231 6.46973 10.0303C6.17685 9.73742 6.17687 9.26262 6.46973 8.96973L11.4697 3.96973Z" fill="#1C274C"/>
</svg>
