<svg width="24" height="24" viewBox="0 0 24 24" fill="none" xmlns="http://www.w3.org/2000/svg">
<path d="M12 2C16.714 2 19.0708 2.00037 20.5352 3.46484C21.9996 4.9293 22 7.28597 22 12V13.5H21.7412C20.1328 13.4991 18.9752 13.4987 17.9912 13.8184C17.0121 14.1366 16.1374 14.6771 15.4258 15.3818C15.1692 15.205 14.8182 15.2016 14.5537 15.3975C13.8254 15.9374 12.9459 16.25 12 16.25C11.0541 16.25 10.1746 15.9374 9.44629 15.3975C9.11353 15.1511 8.64406 15.2211 8.39746 15.5537C8.151 15.8865 8.22103 16.3559 8.55371 16.6025C9.5261 17.3233 10.7152 17.75 12 17.75C12.723 17.75 13.4158 17.6148 14.0566 17.3682C13.9671 17.5705 13.8875 17.7785 13.8184 17.9912C13.4987 18.9752 13.4991 20.1328 13.5 21.7412V22H12C7.28597 22 4.9293 21.9996 3.46484 20.5352C2.00037 19.0708 2 16.714 2 12C2 7.28595 2.00037 4.9293 3.46484 3.46484C4.9293 2.00037 7.28595 2 12 2ZM22 15C22 15.5149 21.9444 16.0168 21.8389 16.5C21.2577 19.162 19.162 21.2577 16.5 21.8389L16.4619 21.8477H16.458C16.4424 21.8509 16.4268 21.8542 16.4111 21.8574L16.4092 21.8584C15.954 21.9514 15.4827 22 15 22C15 21.4162 15.0002 20.9239 15.0078 20.5C15.0243 19.5724 15.0772 18.972 15.2451 18.4551C15.7397 16.9329 16.9329 15.7397 18.4551 15.2451C18.972 15.0772 19.5724 15.0243 20.5 15.0078C20.9239 15.0002 21.4162 15 22 15ZM9 9C8.44772 9 8 9.67157 8 10.5C8 11.3284 8.44772 12 9 12C9.55228 12 10 11.3284 10 10.5C10 9.67157 9.55228 9 9 9ZM15 9C14.4477 9 14 9.67157 14 10.5C14 11.3284 14.4477 12 15 12C15.5523 12 16 11.3284 16 10.5C16 9.67157 15.5523 9 15 9Z" fill="#1C274C"/>
</svg>
