<svg width="24" height="24" viewBox="0 0 24 24" fill="none" xmlns="http://www.w3.org/2000/svg">
<path d="M7.21289 2.00073C8.66734 1.97886 9.91463 3.15151 10.334 4.77905L10.7998 4.32397C13.362 1.81919 17.5159 1.81915 20.0781 4.32397C22.6404 6.82917 22.6404 10.891 20.0781 13.3962L13.2979 20.0261C11.9521 21.342 11.2786 21.9998 10.4424 21.9998C9.60628 21.9996 8.93358 21.3418 7.58789 20.0261L4.01855 16.5369C2.67298 15.2214 2.00021 14.5632 2 13.7458C2 13.2093 2.2897 12.7411 2.86914 12.1111C3.46012 11.4686 3.75587 11.1474 3.88965 10.8113C4.02338 10.4752 4.0269 10.0967 4.03418 9.34058L4.06641 5.99976C4.0321 3.81791 5.44085 2.02748 7.21289 2.00073ZM7.04102 12.8601C6.74494 12.5706 6.27006 12.5759 5.98047 12.8718C5.69099 13.1678 5.69629 13.6427 5.99219 13.9324L10.2744 18.1199C10.5705 18.4094 11.0453 18.404 11.335 18.1082C11.6246 17.812 11.6193 17.3372 11.3232 17.0476L7.04102 12.8601Z" fill="#1C274C"/>
</svg>
