<svg width="24" height="24" viewBox="0 0 24 24" fill="none" xmlns="http://www.w3.org/2000/svg">
<path d="M12.0605 3.25C14.2499 3.24998 15.9727 3.25014 17.2939 3.43262C18.6441 3.61914 19.7191 4.01256 20.4902 4.91602C20.5799 5.0211 20.6649 5.13066 20.7451 5.24316C21.4343 6.2103 21.5557 7.34819 21.4092 8.70312C21.2781 9.91515 20.9176 11.4162 20.4512 13.2871C21.7553 13.5024 22.75 14.6349 22.75 16C22.75 17.2588 21.9043 18.32 20.75 18.6465V20C20.75 20.4142 20.4142 20.75 20 20.75C19.5858 20.75 19.25 20.4142 19.25 20V18.75H4.75V20C4.75 20.4142 4.41421 20.75 4 20.75C3.58579 20.75 3.25 20.4142 3.25 20V18.6465C2.09575 18.32 1.25 17.2588 1.25 16C1.25 14.6349 2.24474 13.5024 3.54883 13.2871C3.08235 11.4162 2.72191 9.91514 2.59082 8.70312C2.44433 7.34819 2.56564 6.2103 3.25488 5.24316C3.33508 5.13066 3.42007 5.0211 3.50977 4.91602C4.28088 4.01256 5.35587 3.61914 6.70605 3.43262C8.02726 3.25014 9.75012 3.24998 11.9395 3.25H12.0605ZM4 14.75C3.30964 14.75 2.75 15.3096 2.75 16C2.75 16.6904 3.30964 17.25 4 17.25H20C20.6904 17.25 21.25 16.6904 21.25 16C21.25 15.3096 20.6904 14.75 20 14.75H4ZM12 4.75C9.73736 4.75 8.11868 4.75139 6.91211 4.91797C5.72279 5.08222 5.07782 5.39023 4.65137 5.88965C4.59001 5.96152 4.53141 6.03634 4.47656 6.11328C4.0953 6.64814 3.95295 7.34822 4.08203 8.54199C4.20759 9.70286 4.57252 11.1946 5.08594 13.25H18.9141C19.4275 11.1946 19.7925 9.70286 19.918 8.54199C20.0471 7.34822 19.9047 6.64814 19.5234 6.11328C19.4686 6.03635 19.41 5.96152 19.3486 5.88965C18.9222 5.3903 18.2779 5.08223 17.0889 4.91797C15.8822 4.75132 14.263 4.75 12 4.75Z" fill="#1C274C"/>
</svg>
