<svg width="24" height="24" viewBox="0 0 24 24" fill="none" xmlns="http://www.w3.org/2000/svg">
<path d="M12 1.25C12.7081 1.25 13.3519 1.45257 14.0498 1.79199C14.7245 2.12009 15.5041 2.60386 16.4775 3.20801L18.5439 4.49121C19.465 5.06283 20.203 5.52069 20.7715 5.95605C21.3601 6.40685 21.8121 6.86627 22.1387 7.46289C22.4645 8.05825 22.6112 8.69167 22.6816 9.44043C22.7498 10.1662 22.75 11.054 22.75 12.167V13.7803C22.75 15.6838 22.7503 17.1865 22.5977 18.3613C22.441 19.5667 22.111 20.5403 21.3672 21.3096C20.62 22.0824 19.6691 22.4281 18.4922 22.5918C17.3513 22.7504 15.8938 22.75 14.0576 22.75H9.94141C8.10546 22.75 6.64856 22.7503 5.50781 22.5918C4.33082 22.4281 3.37999 22.0824 2.63281 21.3096C1.88901 20.5403 1.55901 19.5667 1.40234 18.3613C1.24967 17.1865 1.24999 15.6837 1.25 13.7803V12.167C1.24999 11.054 1.25016 10.1662 1.31836 9.44043C1.38874 8.69167 1.53548 8.05825 1.86133 7.46289C2.1879 6.86627 2.63994 6.40685 3.22852 5.95605C3.79699 5.52069 4.53501 5.06283 5.45605 4.49121L7.52246 3.20801C8.49593 2.60383 9.27554 2.1201 9.9502 1.79199C10.6481 1.45257 11.2919 1.25 12 1.25ZM12 2.75C11.6002 2.75 11.1881 2.85873 10.6064 3.1416C10.0095 3.43193 9.29494 3.87357 8.2793 4.50391L6.2793 5.74512C5.31849 6.34142 4.6438 6.76114 4.14062 7.14648C3.6511 7.52138 3.36931 7.83086 3.17676 8.18262C2.98352 8.53566 2.87094 8.94866 2.81152 9.58105C2.75068 10.2286 2.75 11.046 2.75 12.2041V13.7246C2.75 15.6953 2.75196 17.1009 2.89062 18.168C3.02685 19.2159 3.2832 19.8241 3.71094 20.2666C4.13523 20.7054 4.71274 20.9662 5.71387 21.1055C6.73948 21.2481 8.09247 21.25 10 21.25H14C15.9075 21.25 17.2605 21.2481 18.2861 21.1055C19.2872 20.9662 19.8648 20.7055 20.2891 20.2666C20.7168 19.8241 20.9732 19.2159 21.1094 18.168C21.248 17.1009 21.25 15.6953 21.25 13.7246V12.2041C21.25 11.046 21.2493 10.2286 21.1885 9.58105C21.1291 8.94866 21.0165 8.53566 20.8232 8.18262C20.6307 7.83086 20.3489 7.52139 19.8594 7.14648C19.3562 6.76114 18.6815 6.34143 17.7207 5.74512L15.7207 4.50391C14.705 3.87357 13.9905 3.43194 13.3936 3.1416C12.8119 2.85874 12.3998 2.75 12 2.75ZM15 17.25C15.4142 17.25 15.75 17.5858 15.75 18C15.75 18.4142 15.4142 18.75 15 18.75H9C8.58579 18.75 8.25 18.4142 8.25 18C8.25 17.5858 8.58579 17.25 9 17.25H15Z" fill="#48465C"/>
</svg>
