<svg width="24" height="24" viewBox="0 0 24 24" fill="none" xmlns="http://www.w3.org/2000/svg">
<path d="M15 4C16.8856 4 17.8283 4.00015 18.4141 4.58594C18.9165 5.08829 18.9878 5.85307 18.998 7.25H17C16.5858 7.25 16.25 7.58579 16.25 8C16.25 8.41421 16.5858 8.75 17 8.75H19V10.25H17C16.5858 10.25 16.25 10.5858 16.25 11C16.25 11.4142 16.5858 11.75 17 11.75H19V13.25H17C16.5858 13.25 16.25 13.5858 16.25 14C16.25 14.4142 16.5858 14.75 17 14.75H19V15.8828C19 16.6435 18.6807 17.3694 18.1201 17.8838C16.5865 19.291 14.6891 20.0748 12.75 20.2354V21.25C12.75 21.6642 12.4142 22 12 22C11.5858 22 11.25 21.6642 11.25 21.25V20.2354C9.3109 20.0748 7.41349 19.291 5.87988 17.8838C5.31935 17.3694 5 16.6435 5 15.8828V8C5 6.11438 5.00015 5.17172 5.58594 4.58594C6.17172 4.00015 7.11438 4 9 4H15ZM12.6309 9.61719C12.2839 9.25127 11.7161 9.25127 11.3691 9.61719C10.783 10.2356 10 11.1971 10 11.917C10.0002 13.0675 10.8955 14 12 14C13.1045 14 13.9998 13.0675 14 11.917C14 11.1971 13.217 10.2356 12.6309 9.61719ZM12 2C12.7403 2 13.3865 2.40222 13.7324 3H10.2676C10.6134 2.4022 11.2597 2 12 2Z" fill="#1C274C"/>
</svg>
