<svg width="24" height="24" viewBox="0 0 24 24" fill="none" xmlns="http://www.w3.org/2000/svg">
<path d="M11.4698 3.96973C11.7627 3.67684 12.2374 3.67684 12.5303 3.96973L17.5303 8.96973C17.8232 9.26262 17.8232 9.73744 17.5303 10.0303C17.2375 10.3232 16.7627 10.3231 16.4698 10.0303L12.7501 6.31055V14.5C12.7501 15.2132 12.9701 16.2998 13.6085 17.1865C14.2194 18.035 15.2445 18.75 17.0001 18.75C17.4142 18.75 17.7501 19.0858 17.7501 19.5C17.75 19.9142 17.4142 20.25 17.0001 20.25C14.7559 20.25 13.2808 19.2981 12.3917 18.0635C11.5302 16.867 11.2501 15.4534 11.2501 14.5V6.31055L7.53033 10.0303C7.23747 10.3231 6.76268 10.3231 6.46979 10.0303C6.1769 9.73741 6.1769 9.26262 6.46979 8.96973L11.4698 3.96973Z" fill="#1C274C"/>
</svg>
