<svg width="24" height="24" viewBox="0 0 24 24" fill="none" xmlns="http://www.w3.org/2000/svg">
<path d="M5.5 13.0898C5.49989 13.9553 5.50013 14.749 5.58691 15.3945C5.68252 16.1055 5.9074 16.8566 6.52539 17.4746C7.14339 18.0926 7.89456 18.3175 8.60547 18.4131C9.251 18.4999 10.0447 18.5001 10.9102 18.5H11.999C11.9945 20.0572 11.9457 20.8826 11.4141 21.4141C10.8283 21.9999 9.88561 22 8 22H6C4.11439 22 3.17172 21.9999 2.58594 21.4141C2.00015 20.8283 2 19.8856 2 18V16C2 14.1144 2.00015 13.1717 2.58594 12.5859C3.11748 12.0543 3.94285 12.0055 5.5 12.001V13.0898ZM10.5 8.08984C10.4999 8.95535 10.5001 9.74902 10.5869 10.3945C10.6825 11.1055 10.9074 11.8566 11.5254 12.4746C12.1434 13.0926 12.8945 13.3175 13.6055 13.4131C14.251 13.4999 15.0447 13.5001 15.9102 13.5H16.999C16.9945 15.0572 16.9457 15.8826 16.4141 16.4141C15.8283 16.9999 14.8856 17 13 17H11C9.11439 17 8.17172 16.9999 7.58594 16.4141C7.56764 16.3958 7.54941 16.3775 7.53223 16.3584C7.4187 16.2327 7.33004 16.0906 7.25977 15.9277C7.00038 15.3265 7 14.4372 7 13V11C7 9.11441 7.00015 8.17173 7.58594 7.58594C8.11749 7.0544 8.94287 7.00554 10.5 7.00098V8.08984ZM18 2C19.8856 2 20.8283 2.00015 21.4141 2.58594C21.9999 3.17172 22 4.11439 22 6V8C22 9.88562 21.9999 10.8283 21.4141 11.4141C20.8283 11.9999 19.8856 12 18 12H16C14.1144 12 13.1717 11.9999 12.5859 11.4141C12.0001 10.8283 12 9.88562 12 8V6C12 4.11439 12.0001 3.17172 12.5859 2.58594C13.1717 2.00015 14.1144 2 16 2H18Z" fill="#48465C"/>
</svg>
