<svg width="24" height="24" viewBox="0 0 24 24" fill="none" xmlns="http://www.w3.org/2000/svg">
<path d="M14.0003 2.25C14.6986 2.25011 15.3017 2.65941 15.5823 3.25098C16.2656 3.25595 16.7984 3.28689 17.2737 3.47266C17.8419 3.69472 18.3358 4.07278 18.6995 4.5625C19.0665 5.05659 19.2388 5.68987 19.4759 6.56152L20.1038 8.86426C20.4912 9.06269 20.8308 9.33013 21.1136 9.69238C21.7355 10.4889 21.8454 11.4381 21.7347 12.5264C21.6273 13.5824 21.2954 14.9125 20.8792 16.5771L20.8528 16.6826C20.5898 17.7352 20.3755 18.5898 20.1214 19.2568C19.8565 19.9523 19.5198 20.523 18.9651 20.9561C18.4107 21.3888 17.7762 21.5766 17.0374 21.665C16.3286 21.7497 15.4468 21.75 14.3616 21.75H9.638C8.55301 21.75 7.67195 21.7497 6.9632 21.665C6.22423 21.5766 5.58909 21.389 5.03448 20.9561C4.47986 20.523 4.1432 19.9523 3.87823 19.2568C3.62418 18.5898 3.41086 17.7351 3.14777 16.6826L3.1214 16.5771C2.70521 14.9125 2.37235 13.5824 2.26495 12.5264C2.1543 11.438 2.26503 10.489 2.88702 9.69238C3.16984 9.33021 3.50842 9.06266 3.89581 8.86426L4.52374 6.56152C4.7608 5.68996 4.93325 5.05657 5.30011 4.5625C5.66378 4.07281 6.1578 3.69474 6.72589 3.47266C7.20144 3.2868 7.73473 3.25595 8.41827 3.25098C8.69897 2.65933 9.30193 2.25 10.0003 2.25H14.0003ZM9.68488 9.75C7.89254 9.75 6.63015 9.7521 5.69952 9.88672C4.78859 10.0185 4.34747 10.2582 4.06866 10.6152C3.7899 10.9724 3.66411 11.4583 3.75714 12.374C3.85225 13.3095 4.15642 14.5346 4.59113 16.2734C4.86834 17.3823 5.06213 18.1492 5.28058 18.7227C5.49183 19.2772 5.69828 19.571 5.95734 19.7734C6.21651 19.9757 6.55157 20.1053 7.14093 20.1758C7.75032 20.2487 8.5417 20.25 9.68488 20.25H14.3157C15.4585 20.25 16.2494 20.2486 16.8587 20.1758C17.448 20.1053 17.7832 19.9757 18.0423 19.7734C18.3015 19.571 18.5087 19.2773 18.72 18.7227C18.9384 18.1492 19.1313 17.3821 19.4085 16.2734C19.8432 14.5346 20.1474 13.3095 20.2425 12.374C20.3355 11.4583 20.2098 10.9724 19.931 10.6152C19.6522 10.2582 19.2112 10.0185 18.3001 9.88672C17.3696 9.75211 16.1079 9.75 14.3157 9.75H9.68488ZM8.00031 12.25C8.41439 12.2502 8.75031 12.5859 8.75031 13V17C8.75031 17.4141 8.41439 17.7498 8.00031 17.75C7.5861 17.75 7.25031 17.4142 7.25031 17V13C7.25031 12.5858 7.5861 12.25 8.00031 12.25ZM12.0003 12.25C12.4144 12.2502 12.7503 12.5859 12.7503 13V17C12.7503 17.4141 12.4144 17.7498 12.0003 17.75C11.5861 17.75 11.2503 17.4142 11.2503 17V13C11.2503 12.5858 11.5861 12.25 12.0003 12.25ZM16.0003 12.25C16.4144 12.2502 16.7503 12.5859 16.7503 13V17C16.7503 17.4141 16.4144 17.7498 16.0003 17.75C15.5861 17.75 15.2503 17.4142 15.2503 17V13C15.2503 12.5858 15.5861 12.25 16.0003 12.25ZM15.5804 4.75195C15.2991 5.34193 14.6975 5.74989 14.0003 5.75H10.0003C9.3031 5.75 8.70056 5.34201 8.41925 4.75195C7.758 4.75864 7.49246 4.78435 7.27277 4.87012C6.96683 4.98969 6.70006 5.19332 6.50421 5.45703C6.32826 5.69414 6.22464 6.02553 5.9339 7.0918L5.58038 8.38867C6.61812 8.24996 7.95789 8.24998 9.62238 8.25H14.3773C16.0417 8.24998 17.3815 8.24998 18.4193 8.38867L18.0657 7.0918C17.7749 6.02527 17.6715 5.69415 17.4954 5.45703C17.2995 5.19332 17.0337 4.98969 16.7278 4.87012C16.508 4.78421 16.2422 4.75864 15.5804 4.75195ZM10.0003 3.75C9.86226 3.75 9.75031 3.86193 9.75031 4C9.75031 4.13807 9.86226 4.25 10.0003 4.25H14.0003C14.1383 4.24985 14.2503 4.13797 14.2503 4C14.2503 3.86203 14.1383 3.75015 14.0003 3.75H10.0003Z" fill="#1C274C"/>
</svg>
