<svg width="24" height="24" viewBox="0 0 24 24" fill="none" xmlns="http://www.w3.org/2000/svg">
<path d="M18.9697 17.75C18.9184 18.5406 18.7809 19.0473 18.4141 19.4141C17.8283 19.9999 16.8856 20 15 20H9C7.11439 20 6.17172 19.9999 5.58594 19.4141C5.21913 19.0473 5.08153 18.5406 5.03027 17.75H18.9697ZM11.25 10.9727L10.5693 10.1787C10.2997 9.86421 9.8262 9.82812 9.51172 10.0977C9.19754 10.3673 9.16119 10.8409 9.43066 11.1553L11.4307 13.4883C11.5732 13.6544 11.7812 13.75 12 13.75C12.2189 13.75 12.4268 13.6544 12.5693 13.4883L14.5693 11.1553C14.8387 10.8409 14.8025 10.3673 14.4883 10.0977C14.1738 9.82812 13.7002 9.86419 13.4307 10.1787L12.75 10.9727V6H15C16.8856 6 17.8283 6.00015 18.4141 6.58594C18.9999 7.17172 19 8.11439 19 10V16.25H5V10C5 8.11438 5.00015 7.17172 5.58594 6.58594C6.17172 6.00015 7.11438 6 9 6H11.25V10.9727ZM18.1113 3C20.259 3.00013 22 4.80021 22 7.02051C22 8.3098 21.4129 9.4577 20.5 10.1934V9.91016C20.5001 9.04467 20.4999 8.251 20.4131 7.60547C20.3175 6.89457 20.0926 6.14339 19.4746 5.52539C18.8567 4.90739 18.1055 4.68252 17.3945 4.58691C16.749 4.50013 15.9553 4.49989 15.0898 4.5H8.91016C8.04465 4.49989 7.25101 4.50012 6.60547 4.58691C5.89455 4.68251 5.1434 4.90739 4.52539 5.52539C3.9074 6.14339 3.68252 6.89456 3.58691 7.60547C3.50013 8.251 3.4999 9.04466 3.5 9.91016V10.1934C2.58714 9.45766 2.00004 8.30978 2 7.02051C2 4.8002 3.741 3.00012 5.88867 3H18.1113Z" fill="#1C274C"/>
</svg>
