<svg width="24" height="24" viewBox="0 0 24 24" fill="none" xmlns="http://www.w3.org/2000/svg">
<path d="M16.0002 11.0005C17.8855 11.0005 18.8285 10.9999 19.4143 11.5854C20.0001 12.1712 20.0002 13.1149 20.0002 15.0005V16.0005C20.0002 18.8286 20 20.2429 19.1213 21.1216C18.2426 22.0002 16.8284 22.0005 14.0002 22.0005H10.0002C7.17214 22.0005 5.75784 22 4.87914 21.1216C4.0005 20.2429 4.00023 18.8286 4.00023 16.0005V11.0005H16.0002ZM12.8088 15.2231C12.0035 14.6458 11.6003 14.3578 11.3 14.5698C11 14.7818 11.0002 15.3551 11.0002 16.5005C11.0002 17.6455 11.0002 18.2181 11.3 18.4302C11.6003 18.6422 12.0035 18.3542 12.8088 17.7769C13.6029 17.2076 14 16.9224 14.0002 16.5005C14.0002 16.0783 13.6032 15.7926 12.8088 15.2231ZM7.03929 9.88232C7.02706 9.98511 7.03666 10.0856 7.06371 10.1792L4.00121 10.9995C3.5175 9.19425 3.27572 8.29151 3.48363 7.51514C3.61989 7.0066 3.88777 6.54273 4.25999 6.17041C4.82837 5.60203 5.73104 5.35923 7.53636 4.87549L7.63988 4.84814L7.03929 9.88232ZM13.3176 8.19971C13.3054 8.30241 13.315 8.40308 13.342 8.49658L8.56273 9.77783L9.16624 4.7124C9.17725 4.61988 9.17174 4.52926 9.15062 4.44385L13.9182 3.1665L13.3176 8.19971ZM15.845 2.70947C17.0556 2.63031 18.195 3.28836 18.7317 4.37646C18.8623 4.6414 18.9527 4.97798 19.133 5.65088C19.1931 5.8753 19.2223 5.98815 19.2287 6.08643C19.2551 6.48978 19.0365 6.8694 18.6741 7.04834C18.5858 7.0919 18.4727 7.122 18.2483 7.18213L14.841 8.09521L15.4455 3.03076C15.4561 2.94205 15.451 2.85427 15.4319 2.77197C15.5909 2.7378 15.7219 2.71754 15.845 2.70947Z" fill="#1C274C"/>
</svg>
