<svg width="24" height="24" viewBox="0 0 24 24" fill="none" xmlns="http://www.w3.org/2000/svg">
<path d="M22 20.25C22.4142 20.25 22.75 20.5858 22.75 21C22.75 21.4142 22.4142 21.75 22 21.75H2C1.58579 21.75 1.25 21.4142 1.25 21C1.25 20.5858 1.58579 20.25 2 20.25H22ZM16.9893 13.75C16.953 15.4553 16.7961 16.4461 16.1211 17.1211C15.2424 17.9998 13.8284 18 11 18H9C6.17159 18 4.75759 17.9998 3.87891 17.1211C3.20393 16.4461 3.04701 15.4553 3.01074 13.75H16.9893ZM13 3C14.8856 3 15.8283 3.00015 16.4141 3.58594C16.5955 3.76732 16.7211 3.98277 16.8076 4.25H18C20.6234 4.25 22.75 6.37665 22.75 9C22.75 11.6234 20.6234 13.75 18 13.75H17V12.25H18C19.7949 12.25 21.25 10.7949 21.25 9C21.25 7.20507 19.7949 5.75 18 5.75H16.9912C17.0004 6.11353 17 6.52712 17 7V12.25H3V7C3 5.11438 3.00015 4.17172 3.58594 3.58594C4.17172 3.00015 5.11438 3 7 3H13Z" fill="#1C274C"/>
</svg>
