<svg width="24" height="24" viewBox="0 0 24 24" fill="none" xmlns="http://www.w3.org/2000/svg">
<path d="M12 1.25C17.9371 1.25 22.75 6.06294 22.75 12C22.75 17.9371 17.9371 22.75 12 22.75C6.06294 22.75 1.25 17.9371 1.25 12C1.25 6.06294 6.06294 1.25 12 1.25ZM12 2.75C6.89137 2.75 2.75 6.89137 2.75 12C2.75 17.1086 6.89137 21.25 12 21.25C17.1086 21.25 21.25 17.1086 21.25 12C21.25 6.89137 17.1086 2.75 12 2.75ZM13.4648 7.73145C14.1546 7.5486 14.9006 7.45998 15.5215 7.88184C15.7561 8.04126 15.9588 8.24391 16.1182 8.47852C16.5399 9.09939 16.4514 9.84543 16.2686 10.5352C16.0819 11.2393 15.7212 12.1398 15.2764 13.252L15.2568 13.3027C15.2455 13.3309 15.2336 13.3589 15.2227 13.3867C15.0595 13.796 14.9157 14.1588 14.6592 14.4512C14.5944 14.525 14.525 14.5944 14.4512 14.6592C14.1588 14.9157 13.796 15.0595 13.3867 15.2227C13.359 15.2336 13.3309 15.2456 13.3027 15.2568L13.252 15.2764C12.1398 15.7212 11.2393 16.0819 10.5352 16.2686C9.84543 16.4514 9.09939 16.5399 8.47852 16.1182C8.24391 15.9588 8.04126 15.7561 7.88184 15.5215C7.45998 14.9006 7.5486 14.1546 7.73145 13.4648C7.91813 12.7606 8.27879 11.86 8.72363 10.748L8.74316 10.6973C8.75443 10.6691 8.76532 10.641 8.77637 10.6133C8.93952 10.2038 9.08426 9.84139 9.34082 9.54883C9.40553 9.47503 9.47503 9.40553 9.54883 9.34082C9.84139 9.08426 10.2038 8.93952 10.6133 8.77637C10.641 8.76532 10.6691 8.75443 10.6973 8.74316L10.748 8.72363C11.8601 8.27878 12.7606 7.91813 13.4648 7.73145ZM14.6787 9.12207C14.6399 9.09573 14.4782 9.01474 13.8486 9.18164C13.2438 9.34206 12.4281 9.66609 11.2539 10.1357C10.7127 10.3523 10.6122 10.4038 10.5381 10.4688C10.5135 10.4903 10.4903 10.5135 10.4688 10.5381C10.4038 10.6122 10.3523 10.7127 10.1357 11.2539C9.66609 12.4281 9.34206 13.2438 9.18164 13.8486C9.01474 14.4782 9.09573 14.6399 9.12207 14.6787C9.17518 14.7569 9.24315 14.8238 9.32129 14.877C9.35996 14.9032 9.52077 14.9852 10.1504 14.8184C10.7554 14.658 11.5708 14.3331 12.7451 13.8633C13.2865 13.6468 13.3878 13.5962 13.4619 13.5312C13.4866 13.5097 13.5097 13.4866 13.5312 13.4619C13.5962 13.3878 13.6468 13.2865 13.8633 12.7451C14.3331 11.5708 14.658 10.7554 14.8184 10.1504C14.9852 9.52077 14.9032 9.35996 14.877 9.32129C14.8238 9.24315 14.7569 9.17518 14.6787 9.12207Z" fill="#1C274C"/>
</svg>
