<svg width="24" height="24" viewBox="0 0 24 24" fill="none" xmlns="http://www.w3.org/2000/svg">
<path d="M14 5C14.293 5.03745 14.5743 5.13885 14.8232 5.29785C15.0722 5.45693 15.2833 5.66973 15.4404 5.91992C15.5255 6.05502 15.6019 6.19539 15.6699 6.33984L15.7803 6.55957C15.861 6.68095 15.9674 6.78337 16.0918 6.85938C16.2161 6.93528 16.3553 6.98358 16.5 7H17C18.87 7 19.7905 6.99965 20.4805 7.38965C20.9504 7.65955 21.3405 8.04955 21.6104 8.51953C22.0004 9.20953 22 10.13 22 12V14C22 16.8299 22.0001 18.2401 21.1201 19.1201C20.2401 20.0001 18.8299 20 16 20H8C5.17007 20 3.75989 20.0001 2.87988 19.1201C1.9999 18.2401 2 16.8299 2 14V12C2 10.13 1.99965 9.20953 2.38965 8.51953C2.66507 8.04688 3.06262 7.65672 3.54004 7.38965C4.23003 6.99972 5.15011 7 7 7H7.5C7.64477 6.97987 7.78358 6.92811 7.90625 6.84863C8.02881 6.7692 8.13247 6.66383 8.20996 6.54004L8.32031 6.32031C8.38835 6.17576 8.46465 6.0346 8.5498 5.89941C8.7101 5.65187 8.92326 5.44265 9.17383 5.28711C9.42451 5.13151 9.70689 5.03377 10 5H14ZM16.5 11.25C16.3011 11.25 16.1104 11.3291 15.9697 11.4697C15.8291 11.6104 15.75 11.8011 15.75 12V12.75H15C14.8011 12.75 14.6104 12.8291 14.4697 12.9697C14.3291 13.1104 14.25 13.3011 14.25 13.5C14.25 13.6989 14.3291 13.8897 14.4697 14.0303C14.6104 14.1709 14.8011 14.25 15 14.25H15.75V15C15.75 15.1989 15.8291 15.3897 15.9697 15.5303C16.1104 15.6709 16.3011 15.75 16.5 15.75C16.6989 15.75 16.8896 15.6709 17.0303 15.5303C17.1709 15.3897 17.25 15.1989 17.25 15V14.25H18C18.1989 14.25 18.3896 14.1709 18.5303 14.0303C18.6709 13.8897 18.75 13.6989 18.75 13.5C18.75 13.3011 18.6709 13.1104 18.5303 12.9697C18.3896 12.8291 18.1989 12.75 18 12.75H17.25V12C17.25 11.8011 17.1709 11.6104 17.0303 11.4697C16.8896 11.3291 16.6989 11.25 16.5 11.25ZM6 12.75C5.80109 12.75 5.61038 12.8291 5.46973 12.9697C5.32911 13.1104 5.25 13.3011 5.25 13.5C5.25003 13.6989 5.32911 13.8897 5.46973 14.0303C5.61037 14.1709 5.80112 14.25 6 14.25H9C9.19888 14.25 9.38963 14.1709 9.53027 14.0303C9.67089 13.8897 9.74997 13.6989 9.75 13.5C9.75 13.3011 9.67088 13.1104 9.53027 12.9697C9.38962 12.8291 9.19891 12.75 9 12.75H6ZM5 3.25C5.38635 3.22804 5.77381 3.22804 6.16016 3.25C6.53522 3.29529 6.88597 3.45982 7.16016 3.71973C7.42006 3.99395 7.58463 4.34463 7.62988 4.71973V4.79004C7.65716 5.08921 7.59117 5.38957 7.44043 5.64941C7.41485 5.7334 7.36764 5.80989 7.30469 5.87109C7.24178 5.9322 7.16466 5.97682 7.08008 6H4.71973C4.11613 6.0494 3.52985 6.22624 3 6.51953C2.72089 6.68112 2.46184 6.87594 2.22949 7.09961V6C2.20753 5.61369 2.20754 5.22615 2.22949 4.83984C2.27475 4.4647 2.44024 4.11408 2.7002 3.83984C2.97442 3.57993 3.32508 3.41537 3.7002 3.37012C4.13048 3.30247 4.56461 3.26225 5 3.25ZM19 3.25C19.3864 3.22804 19.7738 3.22804 20.1602 3.25C20.5352 3.29529 20.886 3.45982 21.1602 3.71973C21.4201 3.99395 21.5846 4.34463 21.6299 4.71973C21.6518 5.10608 21.6518 5.49353 21.6299 5.87988V7.09961C21.4413 6.88434 21.2301 6.68973 21 6.51953C20.4722 6.24628 19.893 6.08645 19.2998 6.0498H16.9404C16.8498 6.04802 16.7609 6.02197 16.6836 5.97461C16.6062 5.92715 16.5427 5.85938 16.5 5.7793C16.351 5.51843 16.2812 5.21978 16.2998 4.91992V4.7998C16.345 4.42478 16.5097 4.074 16.7695 3.7998C17.0437 3.53996 17.3946 3.37542 17.7695 3.33008C18.1558 3.30812 18.5434 3.30813 18.9297 3.33008L19 3.25Z" fill="#1C274C"/>
</svg>
