<svg width="24" height="24" viewBox="0 0 24 24" fill="none" xmlns="http://www.w3.org/2000/svg">
<path d="M14.5537 3.25C15.6864 3.24998 16.612 3.25041 17.3428 3.34863C18.1068 3.45134 18.7692 3.67345 19.2979 4.20215C19.8266 4.73084 20.0487 5.39328 20.1514 6.15723C20.2495 6.88804 20.25 7.81361 20.25 8.94629V10.1895L20.9697 9.46973C21.2626 9.17684 21.7374 9.17684 22.0303 9.46973C22.3232 9.76263 22.3232 10.2374 22.0303 10.5303L20.0303 12.5303C19.7374 12.8232 19.2626 12.8232 18.9697 12.5303L16.9697 10.5303C16.6768 10.2374 16.6768 9.76263 16.9697 9.46973C17.2626 9.17684 17.7374 9.17684 18.0303 9.46973L18.75 10.1895V9C18.75 7.80029 18.7482 6.97564 18.665 6.35645C18.5846 5.75906 18.4409 5.4662 18.2373 5.2627C18.0338 5.0592 17.741 4.91532 17.1436 4.83496C16.5244 4.75172 15.6997 4.75 14.5 4.75H9.5C8.30029 4.75 7.47564 4.75172 6.85645 4.83496C6.25905 4.91532 5.9662 5.0592 5.7627 5.2627C5.55919 5.4662 5.41532 5.75904 5.33496 6.35645C5.25171 6.97564 5.25 7.80029 5.25 9V15.0059C5.71507 15.0194 6.01071 15.063 6.25 15.2012C6.47797 15.3328 6.66719 15.5221 6.79883 15.75C6.99979 16.0981 7 16.5654 7 17.5C7 18.4346 6.99979 18.9019 6.79883 19.25C6.66719 19.4779 6.47797 19.6672 6.25 19.7988C5.90192 19.9998 5.43462 20 4.5 20C3.56538 20 3.09808 19.9998 2.75 19.7988C2.52203 19.6672 2.33281 19.4779 2.20117 19.25C2.00021 18.9019 2 18.4346 2 17.5C2 16.5654 2.00021 16.0981 2.20117 15.75C2.33281 15.5221 2.52203 15.3328 2.75 15.2012C2.98929 15.063 3.28493 15.0194 3.75 15.0059V8.94629C3.74997 7.81361 3.75041 6.88804 3.84863 6.15723C3.95134 5.39328 4.17346 4.73084 4.70215 4.20215C5.23085 3.67345 5.89328 3.45134 6.65723 3.34863C7.38804 3.25041 8.31363 3.24998 9.44629 3.25H14.5537ZM12 15C12.9346 15 13.4019 15.0002 13.75 15.2012C13.9779 15.3328 14.1672 15.5221 14.2988 15.75C14.4998 16.0981 14.5 16.5654 14.5 17.5C14.5 18.4346 14.4998 18.9019 14.2988 19.25C14.1672 19.4779 13.9779 19.6672 13.75 19.7988C13.4019 19.9998 12.9346 20 12 20C11.0654 20 10.5981 19.9998 10.25 19.7988C10.0221 19.6672 9.83281 19.4779 9.70117 19.25C9.50021 18.9019 9.5 18.4346 9.5 17.5C9.5 16.5654 9.50021 16.0981 9.70117 15.75C9.83281 15.5221 10.0221 15.3328 10.25 15.2012C10.5981 15.0002 11.0654 15 12 15ZM19.5 15C20.4346 15 20.9019 15.0002 21.25 15.2012C21.4779 15.3328 21.6672 15.5221 21.7988 15.75C21.9998 16.0981 22 16.5654 22 17.5C22 18.4346 21.9998 18.9019 21.7988 19.25C21.6672 19.4779 21.4779 19.6672 21.25 19.7988C20.9019 19.9998 20.4346 20 19.5 20C18.5654 20 18.0981 19.9998 17.75 19.7988C17.5221 19.6672 17.3328 19.4779 17.2012 19.25C17.0002 18.9019 17 18.4346 17 17.5C17 16.5654 17.0002 16.0981 17.2012 15.75C17.3328 15.5221 17.5221 15.3328 17.75 15.2012C18.0981 15.0002 18.5654 15 19.5 15Z" fill="#48465C"/>
</svg>
