<svg width="24" height="24" viewBox="0 0 24 24" fill="none" xmlns="http://www.w3.org/2000/svg">
<path d="M16.4775 2.4621C16.7745 2.17363 17.2495 2.17989 17.5381 2.47675L22.5381 7.6203C22.8208 7.91126 22.8207 8.37421 22.5381 8.66522L17.5381 13.8088C17.2494 14.1057 16.7745 14.112 16.4775 13.8234C16.1806 13.5347 16.1733 13.0599 16.4619 12.7629L20.2246 8.89276H8.25C7.06754 8.89276 6.23205 8.89368 5.58203 8.95428C4.94326 9.01385 4.55811 9.12654 4.25781 9.30487C3.80269 9.5752 3.42187 9.96549 3.15625 10.4387C2.97894 10.7547 2.86795 11.1591 2.80957 11.8215C2.75034 12.4936 2.75 13.3565 2.75 14.5715C2.75 15.7865 2.75034 16.6494 2.80957 17.3215C2.86795 17.9839 2.97891 18.3883 3.15625 18.7043C3.42187 19.1775 3.80269 19.5677 4.25781 19.8381C4.55811 20.0164 4.94326 20.1291 5.58203 20.1887C6.23206 20.2492 7.06754 20.2502 8.25 20.2502H17C17.4142 20.2502 17.75 20.586 17.75 21.0002C17.7499 21.4143 17.4141 21.7502 17 21.7502H8.21289C7.07659 21.7502 6.17111 21.7496 5.44336 21.6818C4.69648 21.6121 4.06202 21.4665 3.49219 21.1281C2.80736 20.7215 2.24122 20.1381 1.84863 19.4387C1.52366 18.8598 1.38265 18.216 1.31543 17.4533C1.24973 16.7077 1.24999 15.7787 1.25 14.6076V14.5353C1.24999 13.3641 1.24973 12.4353 1.31543 11.6896C1.38266 10.927 1.52366 10.2833 1.84863 9.70428C2.24122 9.00494 2.80734 8.42153 3.49219 8.01483C4.06203 7.67646 4.69648 7.53075 5.44336 7.46112C6.1711 7.3933 7.07661 7.39276 8.21289 7.39276H20.2246L16.4619 3.52264C16.1735 3.22564 16.1806 2.75076 16.4775 2.4621Z" fill="#48465C"/>
</svg>
