<svg width="24" height="24" viewBox="0 0 24 24" fill="none" xmlns="http://www.w3.org/2000/svg">
<path d="M3.23535 17.5C5.30799 17.5001 6.98828 19.1789 6.98828 21.25C6.98828 21.6642 6.65184 22 6.2373 22C5.82289 21.9999 5.4873 21.6641 5.4873 21.25C5.4873 20.0074 4.47891 19.0001 3.23535 19C2.82081 19 2.48438 18.6642 2.48438 18.25C2.48438 17.8358 2.82081 17.5 3.23535 17.5ZM3.23535 14.5C6.96615 14.5001 9.99023 17.5221 9.99023 21.25C9.99023 21.6641 9.65463 21.9998 9.24023 22C8.82569 22 8.48926 21.6642 8.48926 21.25C8.48926 18.3505 6.13707 16.0001 3.23535 16C2.82081 16 2.48438 15.6642 2.48438 15.25C2.48438 14.8358 2.82081 14.5 3.23535 14.5ZM3.23535 11.5C8.6243 11.5001 12.9932 15.8652 12.9932 21.25C12.9932 21.6642 12.6568 22 12.2422 22C11.8277 22 11.4912 21.6642 11.4912 21.25C11.4912 16.6937 7.79522 13.0001 3.23535 13C2.82081 13 2.48438 12.6642 2.48438 12.25C2.48438 11.8358 2.82081 11.5 3.23535 11.5ZM11.9922 2C13.101 2.00003 14.1045 2.62264 16.1113 3.86719L18.1133 5.1084C20.0114 6.28548 20.9609 6.874 21.4805 7.82227C22.0001 8.77081 22 9.91569 22 12.2041V13.7246C22 17.6254 21.9996 19.5763 20.8271 20.7881C19.6939 21.9593 17.8932 21.9986 14.3662 22C14.4491 21.7654 14.4941 21.513 14.4941 21.25C14.4941 15.0368 9.45339 10.0001 3.23535 10C2.77929 10 2.35462 10.1352 2 10.3682C2.03477 9.2209 2.14633 8.47501 2.50391 7.82227C3.02353 6.87401 3.97296 6.28549 5.87109 5.1084L7.87305 3.86719C9.87998 2.62261 10.8834 2 11.9922 2Z" fill="#48465C"/>
</svg>
