<svg width="24" height="24" viewBox="0 0 24 24" fill="none" xmlns="http://www.w3.org/2000/svg">
<path d="M12.9999 2C15.8283 2 17.2432 2.00023 18.1219 2.87891C19.0003 3.75761 18.9999 5.17193 18.9999 8V16C18.9999 18.8281 19.0003 20.2424 18.1219 21.1211C17.2432 21.9998 15.8283 22 12.9999 22H10.9999C8.17162 22 6.75742 21.9998 5.87877 21.1211C5.00022 20.2424 4.99986 18.8283 4.99986 16V8C4.99986 5.17172 5.00023 3.7576 5.87877 2.87891C6.75742 2.00026 8.17162 2 10.9999 2H12.9999ZM9.49986 18.25C9.08578 18.2502 8.74986 18.5859 8.74986 19C8.74986 19.4141 9.08578 19.7498 9.49986 19.75H14.4999C14.9141 19.75 15.2499 19.4142 15.2499 19C15.2499 18.5858 14.9141 18.25 14.4999 18.25H9.49986ZM1.6649 5.3291C2.03522 5.14403 2.4854 5.29395 2.67076 5.66406L3.44713 7.21777C3.69329 7.71033 3.69334 8.28968 3.44713 8.78223L2.89439 9.8877C2.85927 9.95795 2.8594 10.041 2.89439 10.1113L3.44713 11.2178C3.6933 11.7104 3.69335 12.2897 3.44713 12.7822L2.89439 13.8877C2.85927 13.958 2.8594 14.041 2.89439 14.1113L3.44713 15.2178C3.6933 15.7103 3.69335 16.2897 3.44713 16.7822L2.67076 18.335C2.48555 18.7054 2.03535 18.856 1.6649 18.6709C1.29442 18.4857 1.14372 18.0346 1.32896 17.6641L2.10533 16.1113C2.14045 16.041 2.1405 15.958 2.10533 15.8877L1.5526 14.7822C1.30653 14.2899 1.30657 13.7101 1.5526 13.2178L2.10533 12.1113C2.14045 12.041 2.1405 11.958 2.10533 11.8877L1.5526 10.7822C1.30653 10.2899 1.30658 9.71021 1.5526 9.21777L2.10533 8.11133C2.14045 8.04098 2.1405 7.95803 2.10533 7.8877L1.32896 6.33496C1.14407 5.96457 1.29457 5.51427 1.6649 5.3291ZM21.329 5.66406C21.5143 5.29375 21.9654 5.1439 22.3358 5.3291C22.7061 5.51436 22.8558 5.96457 22.6708 6.33496L21.8944 7.8877C21.8593 7.95794 21.8594 8.04103 21.8944 8.11133L22.4471 9.21777C22.6933 9.71034 22.6933 10.2897 22.4471 10.7822L21.8944 11.8877C21.8593 11.958 21.8594 12.041 21.8944 12.1113L22.4471 13.2178C22.6933 13.7103 22.6933 14.2897 22.4471 14.7822L21.8944 15.8877C21.8593 15.958 21.8594 16.041 21.8944 16.1113L22.6708 17.6641C22.8559 18.0345 22.7062 18.4857 22.3358 18.6709C21.9653 18.8562 21.5143 18.7055 21.329 18.335L20.5526 16.7822C20.3066 16.2899 20.3066 15.7102 20.5526 15.2178L21.1053 14.1113C21.1404 14.041 21.1405 13.958 21.1053 13.8877L20.5526 12.7822C20.3066 12.2899 20.3066 11.7102 20.5526 11.2178L21.1053 10.1113C21.1404 10.041 21.1405 9.95802 21.1053 9.8877L20.5526 8.78223C20.3066 8.2898 20.3066 7.71021 20.5526 7.21777L21.329 5.66406Z" fill="#1C274C"/>
</svg>
