<svg width="24" height="24" viewBox="0 0 24 24" fill="none" xmlns="http://www.w3.org/2000/svg">
<path d="M9.20972 5.02295C11.9069 2.32574 16.2801 2.32574 18.9773 5.02295C21.6743 7.72019 21.6744 12.0934 18.9773 14.7905C17.1863 16.5814 14.6563 17.1826 12.3689 16.5952C12 16.5004 11.6012 16.5847 11.3318 16.854L9.39038 18.7954L7.63843 17.063C7.34393 16.7717 6.86916 16.7743 6.57788 17.0688C6.28661 17.3633 6.28924 17.8382 6.58374 18.1294L8.32983 19.856L7.61987 20.5659C7.30203 20.8837 6.85666 21.0403 6.40991 20.9907L4.32104 20.7583C4.09845 20.7335 3.89059 20.6344 3.73218 20.4761L3.52417 20.2671C3.36593 20.1088 3.26578 19.9017 3.24097 19.6792L3.00952 17.5903C2.95988 17.1435 3.11556 16.6984 3.43335 16.3804L7.14526 12.6685C7.4146 12.3991 7.49879 11.9993 7.40405 11.6304C6.81687 9.34311 7.41897 6.81375 9.20972 5.02295ZM15.4138 8.58545C14.6328 7.80464 13.3666 7.80448 12.5857 8.58545C11.8047 9.36642 11.8048 10.6326 12.5857 11.4136C13.3667 12.1947 14.6328 12.1947 15.4138 11.4136C16.1949 10.6326 16.1949 9.3665 15.4138 8.58545Z" fill="#48465C"/>
</svg>
