<svg width="24" height="24" viewBox="0 0 24 24" fill="none" xmlns="http://www.w3.org/2000/svg">
<path d="M15.6804 2C19.1703 2 21.9994 4.81742 21.9997 8.29297C21.9997 11.7687 19.1705 14.5869 15.6804 14.5869C15.0434 14.5869 13.5937 14.4407 12.8884 13.8555L12.0065 14.7334C11.4883 15.2496 11.6285 15.402 11.8591 15.6523C11.9552 15.7568 12.0676 15.8785 12.154 16.0508C12.1687 16.0715 12.8812 17.0856 12.154 18.0996C11.7131 18.685 10.4778 19.5046 9.06708 18.0996L8.77411 18.3926C8.79505 18.4172 9.64641 19.4294 8.9206 20.4414C8.47965 21.0269 7.30373 21.6123 6.27509 20.5879L5.24677 21.6123C4.54161 22.3145 3.67974 21.905 3.33661 21.6123L2.45478 20.7344C1.6318 19.9148 2.11187 19.0261 2.45478 18.6846L10.0964 11.0742C10.0924 11.0678 9.36103 9.8985 9.36103 8.29297C9.36128 4.81753 12.1907 2.00019 15.6804 2ZM15.6813 6.09766C14.4638 6.09766 13.4763 7.08147 13.4763 8.29395C13.4765 9.50623 14.464 10.4893 15.6813 10.4893C16.8984 10.4891 17.8852 9.50612 17.8854 8.29395C17.8854 7.08158 16.8986 6.09783 15.6813 6.09766Z" fill="#1C274C"/>
</svg>
