<svg width="24" height="24" viewBox="0 0 24 24" fill="none" xmlns="http://www.w3.org/2000/svg">
<path d="M12 1.25C17.9371 1.25 22.75 6.06294 22.75 12C22.75 17.9371 17.9371 22.75 12 22.75C6.06294 22.75 1.25 17.9371 1.25 12C1.25 6.06294 6.06294 1.25 12 1.25ZM12 2.75C6.89137 2.75 2.75 6.89137 2.75 12C2.75 17.1086 6.89137 21.25 12 21.25C17.1086 21.25 21.25 17.1086 21.25 12C21.25 6.89137 17.1086 2.75 12 2.75ZM12 5.25C15.7279 5.25 18.75 8.27208 18.75 12C18.75 15.7279 15.7279 18.75 12 18.75C8.27208 18.75 5.25 15.7279 5.25 12C5.25 8.27208 8.27208 5.25 12 5.25ZM12.6738 14.667C12.4583 14.7213 12.2324 14.75 12 14.75C11.7676 14.75 11.5418 14.7213 11.3262 14.667L10.0508 16.876C10.6535 17.1172 11.3112 17.25 12 17.25C12.6888 17.25 13.3465 17.1172 13.9492 16.876L12.6738 14.667ZM6.80273 12.75C6.99792 14.1146 7.71825 15.3099 8.75195 16.125L10.0273 13.916C9.71416 13.5936 9.47929 13.1947 9.35352 12.75H6.80273ZM14.6465 12.75C14.5207 13.1947 14.2859 13.5937 13.9727 13.916L15.248 16.125C16.2818 15.31 17.0021 14.1146 17.1973 12.75H14.6465ZM12 10.75C11.7787 10.75 11.5708 10.8074 11.3906 10.9082C11.3855 10.9112 11.3801 10.915 11.375 10.918C11.3703 10.9207 11.3651 10.9231 11.3604 10.9258C10.9948 11.1439 10.75 11.5434 10.75 12C10.75 12.4581 10.9967 12.8585 11.3643 13.0762C11.3678 13.0782 11.3715 13.081 11.375 13.083C11.3786 13.085 11.3823 13.0868 11.3857 13.0889C11.5671 13.1914 11.7768 13.25 12 13.25C12.224 13.25 12.4344 13.1911 12.6162 13.0879C12.619 13.0862 12.6222 13.0846 12.625 13.083C12.6276 13.0815 12.6302 13.0795 12.6328 13.0781C13.0021 12.8609 13.25 12.4594 13.25 12C13.25 11.5444 13.0058 11.1453 12.6416 10.9268C12.636 10.9238 12.6305 10.921 12.625 10.918C12.6191 10.9145 12.6132 10.9107 12.6074 10.9072C12.4276 10.8071 12.2204 10.75 12 10.75ZM8.75195 7.875C7.71824 8.69007 6.99792 9.88542 6.80273 11.25H9.35352C9.47929 10.8053 9.71411 10.4063 10.0273 10.084L8.75195 7.875ZM13.9727 10.084C14.2858 10.4064 14.5207 10.8053 14.6465 11.25H17.1973C17.0021 9.88542 16.2818 8.69006 15.248 7.875L13.9727 10.084ZM12 6.75C11.3112 6.75 10.6535 6.88287 10.0508 7.12402L11.3262 9.33301C11.5418 9.27871 11.7676 9.25 12 9.25C12.2324 9.25 12.4582 9.27872 12.6738 9.33301L13.9492 7.12402C13.3465 6.88288 12.6888 6.75 12 6.75Z" fill="#1C274C"/>
</svg>
