<svg width="24" height="24" viewBox="0 0 24 24" fill="none" xmlns="http://www.w3.org/2000/svg">
<path d="M16.0547 4.25C17.4222 4.24998 18.5246 4.24968 19.3916 4.36621C20.2917 4.48723 21.0494 4.74673 21.6514 5.34863C22.2533 5.95055 22.5128 6.70829 22.6338 7.6084C22.7503 8.47534 22.75 9.57785 22.75 10.9453V11.0566C22.75 12.8943 22.7498 14.3501 22.5967 15.4893C22.439 16.6615 22.1066 17.6101 21.3584 18.3584C20.6101 19.1066 19.6615 19.439 18.4893 19.5967C17.3501 19.7498 15.8943 19.75 14.0566 19.75H9.94336C8.10571 19.75 6.6499 19.7498 5.51074 19.5967C4.33844 19.439 3.38992 19.1066 2.6416 18.3584C1.89332 17.6101 1.56095 16.6615 1.40332 15.4893C1.25016 14.3501 1.24998 12.8943 1.25 11.0566V10.9453C1.24998 9.57785 1.24968 8.47534 1.36621 7.6084C1.48723 6.70829 1.74671 5.95055 2.34863 5.34863C2.95055 4.74671 3.70829 4.48723 4.6084 4.36621C5.47534 4.24968 6.57782 4.24998 7.94531 4.25H16.0547ZM9.5 15.75C8.78216 15.75 8.30002 15.7507 7.93262 15.7881C7.57788 15.8242 7.41409 15.8885 7.30566 15.9609C7.16919 16.0521 7.05213 16.1693 6.96094 16.3057C6.88849 16.4141 6.82419 16.5779 6.78809 16.9326C6.75613 17.2468 6.75086 17.6447 6.75 18.2021C7.61716 18.2488 8.67545 18.25 10 18.25H14C15.3245 18.25 16.3829 18.2488 17.25 18.2021C17.2492 17.6447 17.2439 17.2468 17.2119 16.9326C17.1758 16.5779 17.1116 16.4141 17.0391 16.3057C16.9479 16.1693 16.8308 16.0521 16.6943 15.9609C16.5859 15.8884 16.4221 15.8242 16.0674 15.7881C15.7 15.7507 15.2178 15.75 14.5 15.75H9.5ZM8 5.75C6.56484 5.75 5.5639 5.75201 4.80859 5.85352C4.07482 5.95217 3.68594 6.13242 3.40918 6.40918C3.13242 6.68594 2.95217 7.07482 2.85352 7.80859C2.75201 8.5639 2.75 9.56485 2.75 11C2.75 12.9067 2.7515 14.2614 2.88965 15.2891C3.02492 16.2951 3.27894 16.8747 3.70215 17.2979C4.05619 17.6519 4.51993 17.8875 5.25098 18.0342C5.25271 17.5506 5.26007 17.1337 5.2959 16.7812C5.34406 16.3078 5.44933 15.8686 5.71387 15.4727C5.91451 15.1724 6.17239 14.9145 6.47266 14.7139C6.86861 14.4493 7.30784 14.344 7.78125 14.2959C8.23354 14.2499 8.79246 14.25 9.46191 14.25H14.5381C15.2075 14.25 15.7665 14.2499 16.2188 14.2959C16.6922 14.344 17.1314 14.4493 17.5273 14.7139C17.8276 14.9145 18.0855 15.1724 18.2861 15.4727C18.5507 15.8686 18.656 16.3078 18.7041 16.7812C18.74 17.1337 18.7473 17.5506 18.749 18.0342C19.4801 17.8875 19.9439 17.6519 20.2979 17.2979C20.7211 16.8747 20.9752 16.2951 21.1104 15.2891C21.2485 14.2614 21.25 12.9067 21.25 11C21.25 9.56485 21.2479 8.5639 21.1465 7.80859C21.0478 7.07482 20.8676 6.68594 20.5908 6.40918C20.3141 6.13249 19.9258 5.95218 19.1924 5.85352C18.437 5.75196 17.4354 5.75 16 5.75H8ZM18 10.75C18.4142 10.75 18.75 11.0858 18.75 11.5C18.75 11.9142 18.4142 12.25 18 12.25H6C5.58579 12.25 5.25 11.9142 5.25 11.5C5.25 11.0858 5.58579 10.75 6 10.75H18ZM18 8.25C18.4142 8.25 18.75 8.58579 18.75 9C18.75 9.41421 18.4142 9.75 18 9.75H6C5.58579 9.75 5.25 9.41421 5.25 9C5.25 8.58579 5.58579 8.25 6 8.25H18Z" fill="#1C274C"/>
</svg>
