<svg width="24" height="24" viewBox="0 0 24 24" fill="none" xmlns="http://www.w3.org/2000/svg">
<path d="M4.40625 4.3916C4.69943 4.099 5.1742 4.0994 5.4668 4.39258C5.75928 4.68578 5.75897 5.16056 5.46582 5.45312C3.78732 7.12835 2.75005 9.44231 2.75 12C2.75 14.5878 3.81199 16.9267 5.52539 18.6064C5.82082 18.8965 5.82501 19.3713 5.53516 19.667C5.24516 19.9624 4.77028 19.9666 4.47461 19.6768C2.48551 17.7267 1.25 15.0069 1.25 12C1.25005 9.028 2.45738 6.33669 4.40625 4.3916ZM18.6162 4.46484C18.912 4.17487 19.3868 4.1798 19.6768 4.47559C21.5768 6.4138 22.75 9.07054 22.75 12C22.75 14.9644 21.5493 17.6499 19.6094 19.5938C19.3168 19.8869 18.8419 19.8873 18.5488 19.5947C18.2557 19.3022 18.2544 18.8274 18.5469 18.5342C20.2178 16.86 21.25 14.5512 21.25 12C21.25 9.47879 20.2417 7.19459 18.6055 5.52539C18.3157 5.22966 18.3207 4.75479 18.6162 4.46484ZM7.24902 7.45215C7.55145 7.16927 8.02659 7.18497 8.30957 7.4873C8.59255 7.78969 8.5767 8.2648 8.27441 8.54785C7.32551 9.43584 6.75 10.6504 6.75 11.9824C6.75 13.3298 7.33875 14.5576 8.30762 15.4482C8.61239 15.7285 8.63268 16.203 8.35254 16.5078C8.07223 16.8128 7.59694 16.833 7.29199 16.5527C6.03925 15.4012 5.25 13.7825 5.25 11.9824C5.25 10.2031 6.02134 8.60101 7.24902 7.45215ZM15.7432 7.52539C16.0295 7.22636 16.5044 7.21574 16.8037 7.50195C18.0008 8.64706 18.75 10.2288 18.75 11.9824C18.75 13.7568 17.9827 15.3548 16.7607 16.5029C16.4589 16.7865 15.9838 16.7716 15.7002 16.4697C15.4168 16.1679 15.4317 15.6937 15.7334 15.4102C16.6779 14.5228 17.25 13.3109 17.25 11.9824C17.25 10.6693 16.6913 9.47041 15.7666 8.58594C15.4673 8.29963 15.4569 7.82472 15.7432 7.52539ZM12 10C13.1045 10 13.9999 10.8955 14 12C14 13.1045 13.1046 14 12 14C10.8954 14 10 13.1045 10 12C10.0001 10.8955 10.8955 10 12 10Z" fill="#1C274C"/>
</svg>
