<svg width="24" height="24" viewBox="0 0 24 24" fill="none" xmlns="http://www.w3.org/2000/svg">
<path d="M12.0001 3C14.3108 3.0001 15.7703 5.58748 18.6886 10.7617L19.0519 11.4062C21.477 15.7058 22.6896 17.8558 21.5939 19.4277C20.498 20.9997 17.7861 21 12.3634 21H11.6359C6.21342 21 3.50226 20.9997 2.40638 19.4277C1.31061 17.8557 2.52329 15.7059 4.94837 11.4062L5.31165 10.7617C8.23001 5.58738 9.68938 3 12.0001 3ZM12.0001 15C11.4478 15 11.0001 15.4477 11.0001 16C11.0001 16.5523 11.4478 17 12.0001 17C12.5524 16.9999 13.0001 16.5523 13.0001 16C13.0001 15.4477 12.5524 15.0001 12.0001 15ZM12.0001 7.25C11.5859 7.25 11.2501 7.58579 11.2501 8V13C11.2501 13.4142 11.5859 13.75 12.0001 13.75C12.4143 13.7499 12.7501 13.4142 12.7501 13V8C12.7501 7.58583 12.4143 7.25007 12.0001 7.25Z" fill="#1C274C"/>
</svg>
