<svg width="24" height="24" viewBox="0 0 24 24" fill="none" xmlns="http://www.w3.org/2000/svg">
<path d="M12 2C17.5228 2 22 6.47715 22 12C22 17.5228 17.5228 22 12 22C6.47715 22 2 17.5228 2 12C2 6.47715 6.47715 2 12 2ZM17.1787 13.3408C16.8906 13.0434 16.4157 13.0353 16.1182 13.3232C15.281 14.1337 14.1586 14.7865 12.8408 15.1396C11.5231 15.4927 10.2249 15.4893 9.09473 15.2061C8.69297 15.1054 8.28624 15.3492 8.18555 15.751C8.08489 16.1528 8.3287 16.5595 8.73047 16.6602C10.1168 17.0076 11.6742 17.0047 13.2295 16.5879L13.2812 16.5742L13.4775 16.9736C13.8388 17.7097 14.7247 18.0195 15.4658 17.6689C16.2219 17.3111 16.5393 16.4034 16.1709 15.6523L16.0127 15.3301C16.4296 15.0492 16.8146 14.7378 17.1621 14.4014C17.4595 14.1132 17.4667 13.6383 17.1787 13.3408ZM9.67969 11.0684C9.46523 10.2685 8.85949 9.73626 8.32617 9.87891C7.79278 10.0219 7.53381 10.7859 7.74805 11.5859C7.96246 12.3861 8.56907 12.9194 9.10254 12.7764C9.63581 12.6333 9.89407 11.8684 9.67969 11.0684ZM15.4756 9.51562C15.2611 8.71546 14.6546 8.18227 14.1211 8.3252C13.5876 8.46814 13.3296 9.23299 13.5439 10.0332C13.7583 10.8333 14.364 11.3664 14.8975 11.2236C15.4309 11.0807 15.69 10.3158 15.4756 9.51562Z" fill="#48465C"/>
</svg>
