<svg width="24" height="24" viewBox="0 0 24 24" fill="none" xmlns="http://www.w3.org/2000/svg">
<path d="M12.2715 3.25C14.9099 3.25013 17.113 5.11505 17.6338 7.59863C18.9917 7.96653 20.1726 8.47316 21.0547 9.09766C22.0202 9.78137 22.75 10.702 22.75 11.8262C22.75 12.6631 22.3406 13.393 21.7412 13.9844C21.1446 14.5732 20.3194 15.0695 19.3604 15.4697C19.3503 15.4739 19.3393 15.4782 19.3291 15.4824L20.1709 17.1641C20.3561 17.5344 20.2062 17.9855 19.8359 18.1709C19.4655 18.3561 19.0145 18.2062 18.8291 17.8359L17.9004 15.9785C16.4009 16.4125 14.638 16.6817 12.75 16.7383V19C12.75 19.4142 12.4142 19.75 12 19.75C11.5858 19.75 11.25 19.4142 11.25 19V16.7383C9.36203 16.6817 7.59905 16.4125 6.09961 15.9785L5.1709 17.8359C4.98552 18.2062 4.53442 18.3561 4.16406 18.1709C3.79383 17.9855 3.64385 17.5344 3.8291 17.1641L4.6709 15.4824C4.66069 15.4782 4.64982 15.4739 4.63965 15.4697C3.68063 15.0694 2.85547 14.5732 2.25879 13.9844C1.6595 13.393 1.25 12.6632 1.25 11.8262C1.25001 10.702 1.97976 9.78136 2.94531 9.09766C3.82732 8.47316 5.00829 7.96653 6.36621 7.59863C6.88699 5.11505 9.09015 3.25013 11.7285 3.25H12.2715ZM17.6826 9.17383C17.6123 9.39507 17.4762 9.62355 17.2285 9.7959C16.6273 10.214 15.2456 10.75 12 10.75C8.75443 10.75 7.37266 10.214 6.77148 9.7959C6.52374 9.62355 6.3877 9.39507 6.31738 9.17383C5.27514 9.49236 4.42494 9.88861 3.8125 10.3223C3.02554 10.8795 2.75001 11.4057 2.75 11.8262C2.75 12.1417 2.89988 12.5099 3.3125 12.917C3.72779 13.3268 4.36736 13.73 5.21777 14.085C6.91553 14.7936 9.31299 15.25 12 15.25C14.687 15.25 17.0844 14.7936 18.7822 14.085C19.6327 13.73 20.2722 13.3268 20.6875 12.917C21.1001 12.5099 21.25 12.1417 21.25 11.8262C21.25 11.4057 20.9745 10.8795 20.1875 10.3223C19.575 9.88861 18.7248 9.49236 17.6826 9.17383ZM12 12C12.5523 12 13 12.4477 13 13C13 13.5523 12.5523 14 12 14C11.4477 14 11 13.5523 11 13C11 12.4477 11.4477 12 12 12ZM7 11C7.55228 11 8 11.4477 8 12C8 12.5523 7.55228 13 7 13C6.44772 13 6 12.5523 6 12C6 11.4477 6.44772 11 7 11ZM17 11C17.5523 11 18 11.4477 18 12C18 12.5523 17.5523 13 17 13C16.4477 13 16 12.5523 16 12C16 11.4477 16.4477 11 17 11ZM11.7285 4.75C9.56131 4.75015 7.79887 6.48296 7.75098 8.63867C8.13806 8.84516 9.25423 9.25 12 9.25C14.7458 9.25 15.8619 8.84516 16.249 8.63867C16.2011 6.48296 14.4387 4.75015 12.2715 4.75H11.7285Z" fill="#1C274C"/>
</svg>
