<svg width="24" height="24" viewBox="0 0 24 24" fill="none" xmlns="http://www.w3.org/2000/svg">
<path d="M5 1.25C5.41421 1.25 5.75 1.58579 5.75 2V3.08496L7.32324 2.77051C9.11644 2.41187 10.9759 2.58256 12.6738 3.26172L13.0869 3.42676C14.3653 3.93813 15.7726 4.03415 17.1084 3.7002C18.3876 3.38049 19.4147 4.76682 18.7363 5.89746L17.458 8.02832C17.0821 8.65482 17.0213 8.78454 17.0059 8.90234C16.9975 8.9669 16.9975 9.0331 17.0059 9.09766C17.0213 9.21546 17.0821 9.34518 17.458 9.97168L19.0186 12.5732C19.5883 13.5231 19.0785 14.7538 18.0039 15.0225L17.9043 15.0469C15.9818 15.5275 13.9561 15.3903 12.1162 14.6543C10.6886 14.0833 9.12584 13.9397 7.61816 14.2412L5.75 14.6152V22C5.75 22.4142 5.41421 22.75 5 22.75C4.58579 22.75 4.25 22.4142 4.25 22V2C4.25 1.58579 4.58579 1.25 5 1.25ZM12.1162 4.6543C10.6886 4.08331 9.12584 3.93976 7.61816 4.24121L5.75 4.61523V13.085L7.32324 12.7705C9.11644 12.4119 10.9759 12.5826 12.6738 13.2617C14.2208 13.8805 15.9236 13.9959 17.54 13.5918L17.6406 13.5674C17.7379 13.5428 17.784 13.4308 17.7324 13.3447L16.1719 10.7441C16.152 10.711 16.1318 10.6779 16.1123 10.6455C15.8294 10.1757 15.5799 9.76065 15.5186 9.29199C15.4933 9.09831 15.4933 8.90169 15.5186 8.70801C15.5799 8.23935 15.8294 7.82425 16.1123 7.35449C16.1318 7.32203 16.152 7.28888 16.1719 7.25586L17.4258 5.16699C15.798 5.56365 14.0857 5.4419 12.5293 4.81934L12.1162 4.6543Z" fill="#1C274C"/>
</svg>
