<svg width="24" height="24" viewBox="0 0 24 24" fill="none" xmlns="http://www.w3.org/2000/svg">
<path d="M7.50037 17.2505C8.74285 17.2507 9.75037 18.258 9.75037 19.5005C9.75023 20.7429 8.74276 21.7503 7.50037 21.7505C6.25781 21.7505 5.2505 20.743 5.25037 19.5005C5.25037 18.2579 6.25773 17.2505 7.50037 17.2505ZM16.5004 17.2505C17.7428 17.2507 18.7504 18.2579 18.7504 19.5005C18.7502 20.7429 17.7427 21.7503 16.5004 21.7505C15.2577 21.7505 14.2505 20.743 14.2504 19.5005C14.2504 18.2578 15.2577 17.2505 16.5004 17.2505ZM7.50037 18.7505C7.08616 18.7505 6.75037 19.0863 6.75037 19.5005C6.7505 19.9146 7.08624 20.2505 7.50037 20.2505C7.91433 20.2503 8.25023 19.9145 8.25037 19.5005C8.25037 19.0864 7.91442 18.7507 7.50037 18.7505ZM16.5004 18.7505C16.0862 18.7505 15.7504 19.0863 15.7504 19.5005C15.7505 19.9146 16.0863 20.2505 16.5004 20.2505C16.9143 20.2503 17.2502 19.9145 17.2504 19.5005C17.2504 19.0864 16.9144 18.7507 16.5004 18.7505ZM1.29236 2.75146C1.42975 2.36095 1.85781 2.15541 2.24841 2.29248L2.55017 2.39893C3.16641 2.61557 3.68993 2.79937 4.10193 3.00146C4.54254 3.21766 4.92127 3.48408 5.20544 3.8999C5.48742 4.31255 5.60386 4.76583 5.65759 5.26221C5.66143 5.29767 5.66506 5.33394 5.66833 5.37061H17.1195C17.9381 5.3706 18.7732 5.36999 19.4603 5.44678C19.81 5.48588 20.1569 5.54905 20.4633 5.65674C20.7635 5.76228 21.0937 5.93473 21.3285 6.23975C21.7104 6.73614 21.7778 7.31468 21.7416 7.90088C21.7072 8.45899 21.5684 9.15317 21.4037 9.97803L21.3929 10.0298L21.392 10.0347L20.8832 12.5044C20.7335 13.2306 20.608 13.8417 20.4457 14.3237C20.2733 14.8352 20.0342 15.2847 19.6078 15.6323C19.1813 15.9799 18.6923 16.1235 18.1566 16.189C17.6516 16.2508 17.0271 16.2505 16.2855 16.2505H10.8802C9.53458 16.2505 8.44453 16.2501 7.5863 16.1284C6.69013 16.0014 5.93697 15.7294 5.34314 15.103C4.79691 14.5269 4.50509 13.9144 4.35876 13.0601C4.22179 12.2599 4.20837 11.2125 4.20837 9.76025V7.03857C4.20837 6.29876 4.20655 5.80351 4.16541 5.42334C4.12607 5.06008 4.05643 4.87864 3.96619 4.74658C3.87812 4.61778 3.74485 4.49685 3.44177 4.34814C3.11893 4.18974 2.67967 4.035 2.01208 3.80029L1.75134 3.70752C1.36061 3.57012 1.15497 3.14221 1.29236 2.75146ZM5.70837 9.76025C5.70837 11.2491 5.72615 12.1581 5.83728 12.8071C5.93918 13.402 6.11185 13.7331 6.43201 14.0708C6.70454 14.3581 7.08252 14.5427 7.79724 14.644C8.53787 14.749 9.52127 14.7505 10.9379 14.7505H16.2406C17.0394 14.7505 17.5709 14.749 17.974 14.6997C18.3566 14.6528 18.5343 14.5712 18.6595 14.4692C18.7847 14.3672 18.9007 14.2095 19.0238 13.8442C19.1534 13.4594 19.262 12.9392 19.4232 12.1567L19.9222 9.73682V9.73389C20.0998 8.84406 20.2171 8.25163 20.2445 7.80811C20.2705 7.3869 20.2034 7.23909 20.142 7.15771C20.1353 7.15203 20.092 7.11603 19.9662 7.07178C19.8108 7.01717 19.5889 6.97103 19.2933 6.93799C18.6987 6.87155 17.9453 6.87061 17.0892 6.87061H5.70837V9.76025Z" fill="#1C274C"/>
</svg>
