<svg width="24" height="24" viewBox="0 0 24 24" fill="none" xmlns="http://www.w3.org/2000/svg">
<path d="M12 19.25C12.4142 19.25 12.75 19.5858 12.75 20V22C12.75 22.4142 12.4142 22.75 12 22.75C11.5858 22.75 11.25 22.4142 11.25 22V20C11.25 19.5858 11.5858 19.25 12 19.25ZM5.8125 17.127C6.10539 16.8341 6.58015 16.8341 6.87305 17.127C7.16593 17.4199 7.16593 17.8946 6.87305 18.1875L6.53027 18.5303C6.23739 18.8232 5.76261 18.8232 5.46973 18.5303C5.17684 18.2374 5.17684 17.7626 5.46973 17.4697L5.8125 17.127ZM17.127 17.127C17.4199 16.8341 17.8946 16.8341 18.1875 17.127L18.5303 17.4697C18.8232 17.7626 18.8232 18.2374 18.5303 18.5303C18.2374 18.8232 17.7626 18.8232 17.4697 18.5303L17.127 18.1875C16.8341 17.8946 16.8341 17.4199 17.127 17.127ZM12 9.1582C14.2499 6.71418 17 8.51728 17 11.0596C17 13.6016 14.9907 14.9564 13.5195 16.1689C13.0004 16.5968 12.5 17 12 17C11.5 17 10.9996 16.5968 10.4805 16.1689C9.00933 14.9564 7.00004 13.6016 7 11.0596C7 8.51728 9.7501 6.71418 12 9.1582ZM4 11.25C4.41421 11.25 4.75 11.5858 4.75 12C4.75 12.4142 4.41421 12.75 4 12.75H2C1.58579 12.75 1.25 12.4142 1.25 12C1.25 11.5858 1.58579 11.25 2 11.25H4ZM22 11.25C22.4142 11.25 22.75 11.5858 22.75 12C22.75 12.4142 22.4142 12.75 22 12.75H20C19.5858 12.75 19.25 12.4142 19.25 12C19.25 11.5858 19.5858 11.25 20 11.25H22ZM5.46973 5.46973C5.76262 5.17684 6.23738 5.17684 6.53027 5.46973L6.87402 5.8125C7.16691 6.10539 7.16691 6.58113 6.87402 6.87402C6.58113 7.16691 6.10539 7.16691 5.8125 6.87402L5.46973 6.53027C5.17684 6.23738 5.17684 5.76262 5.46973 5.46973ZM17.4697 5.46973C17.7626 5.17684 18.2374 5.17684 18.5303 5.46973C18.8232 5.76261 18.8232 6.23739 18.5303 6.53027L18.1875 6.87402C17.8946 7.1669 17.4189 7.1669 17.126 6.87402C16.8331 6.58113 16.8331 6.10539 17.126 5.8125L17.4697 5.46973ZM12 1.25C12.4142 1.25 12.75 1.58579 12.75 2V4C12.75 4.41421 12.4142 4.75 12 4.75C11.5858 4.75 11.25 4.41421 11.25 4V2C11.25 1.58579 11.5858 1.25 12 1.25Z" fill="#48465C"/>
</svg>
