<svg width="24" height="24" viewBox="0 0 24 24" fill="none" xmlns="http://www.w3.org/2000/svg">
<path d="M12 2C13.5482 2 14.8421 1.99989 15.9336 2.05176L9.57129 8.41406C9.21999 8.76519 8.9562 9.02927 8.72461 9.32617C8.45268 9.67481 8.21952 10.052 8.0293 10.4512C7.86727 10.7912 7.74978 11.1459 7.59277 11.6172L6.61523 14.5488C6.34674 15.3545 6.5567 16.2423 7.15723 16.8428C7.75774 17.4433 8.64548 17.6533 9.45117 17.3848L12.3828 16.4072C12.8541 16.2502 13.2088 16.1328 13.5488 15.9707C13.948 15.7805 14.3252 15.5474 14.6738 15.2754C14.9708 15.0438 15.2348 14.78 15.5859 14.4287L21.9482 8.06641C22.0001 9.15798 22 10.4518 22 12C22 16.714 21.9997 19.0708 20.5352 20.5352C19.0708 21.9997 16.714 22 12 22C7.28597 22 4.9293 21.9996 3.46484 20.5352C2.00037 19.0708 2 16.714 2 12C2 7.28595 2.00037 4.9293 3.46484 3.46484C4.9293 2.00037 7.28595 2 12 2ZM15.6035 4.50391C15.8672 5.19808 16.3298 6.05628 17.1367 6.86328C17.9437 7.67023 18.8019 8.13269 19.4961 8.39648L14.5801 13.3125C14.1761 13.7165 13.9738 13.919 13.751 14.0928C13.4884 14.2976 13.204 14.4729 12.9033 14.6162C12.6483 14.7377 12.3771 14.8281 11.835 15.0088L8.97754 15.9619C8.7108 16.0508 8.41659 15.981 8.21777 15.7822C8.0191 15.5834 7.94941 15.2901 8.03809 15.0234L8.99121 12.165C9.17189 11.6229 9.26226 11.3517 9.38379 11.0967C9.52709 10.796 9.70238 10.5116 9.90723 10.249C10.081 10.0262 10.2835 9.82393 10.6875 9.41992L15.6035 4.50391ZM17.3008 2.80664C18.3758 1.73166 20.1184 1.73167 21.1934 2.80664C22.2683 3.88164 22.2683 5.62423 21.1934 6.69922L20.6982 7.19434C20.5539 7.1631 20.3721 7.11579 20.165 7.04395C19.6107 6.85162 18.8825 6.48797 18.1973 5.80273C17.512 5.1175 17.1484 4.38928 16.9561 3.83496C16.8842 3.62789 16.837 3.44605 16.8057 3.30176L17.3008 2.80664Z" fill="#1C274C"/>
</svg>
