<svg width="24" height="24" viewBox="0 0 24 24" fill="none" xmlns="http://www.w3.org/2000/svg">
<path d="M12.4766 3.25C15.6345 3.25017 18.2721 5.49421 18.8311 8.47168C21.1308 9.44788 22.7499 11.7091 22.75 14.3525C22.75 17.8938 19.8476 20.7498 16.2861 20.75H6.28613C3.51338 20.75 1.25 18.5263 1.25 15.7646C1.25003 13.0605 3.41976 10.8721 6.11328 10.7822C6.04654 10.4137 6.01174 10.0343 6.01172 9.64746C6.01172 6.10612 8.91482 3.25 12.4766 3.25ZM12.4766 4.75C9.72646 4.75 7.51172 6.95123 7.51172 9.64746C7.51176 10.1095 7.57661 10.556 7.69727 10.9785C8.19435 11.122 8.65962 11.3391 9.08008 11.6172C9.42554 11.8457 9.52051 12.3108 9.29199 12.6562C9.06348 13.0017 8.59839 13.0967 8.25293 12.8682C7.87219 12.6163 7.43941 12.4351 6.97363 12.3447C6.75196 12.3018 6.52192 12.2793 6.28613 12.2793C4.32504 12.2793 2.75003 13.8482 2.75 15.7646C2.75 17.6811 4.32502 19.25 6.28613 19.25H16.2861C19.036 19.2498 21.25 17.0487 21.25 14.3525C21.2498 12.216 19.8603 10.3908 17.9121 9.72461C17.4037 9.5508 16.857 9.4561 16.2861 9.45605C15.7035 9.45605 15.1451 9.55467 14.6279 9.73535C14.2369 9.87169 13.8094 9.66533 13.6729 9.27441C13.5363 8.8834 13.7428 8.45591 14.1338 8.31934C14.8081 8.08384 15.5331 7.95605 16.2861 7.95605C16.5813 7.95607 16.8721 7.97561 17.1572 8.01367C16.4765 6.1165 14.6423 4.75015 12.4766 4.75Z" fill="#1C274C"/>
</svg>
