<svg width="24" height="24" viewBox="0 0 24 24" fill="none" xmlns="http://www.w3.org/2000/svg">
<path d="M17.0039 8.25195C18.0854 8.25798 18.9871 8.28366 19.7236 8.41895C20.4816 8.55816 21.1264 8.82379 21.6514 9.34863C22.2533 9.95053 22.5128 10.7083 22.6338 11.6084C22.7503 12.4753 22.75 13.5778 22.75 14.9453V16.0547C22.75 17.4221 22.7502 18.5247 22.6338 19.3916C22.5128 20.2917 22.2533 21.0503 21.6514 21.6523C21.0494 22.254 20.2915 22.5128 19.3916 22.6338C18.5246 22.7504 17.4222 22.75 16.0547 22.75H7.94531C6.5778 22.75 5.47534 22.7504 4.6084 22.6338C3.70847 22.5128 2.95049 22.254 2.34863 21.6523C1.74671 21.0503 1.48723 20.2917 1.36621 19.3916C1.24971 18.5247 1.24998 17.4221 1.25 16.0547V14.9453C1.24998 13.5778 1.24965 12.4753 1.36621 11.6084C1.48723 10.7083 1.74673 9.95053 2.34863 9.34863C2.87354 8.82377 3.51842 8.55817 4.27637 8.41895C5.01292 8.28366 5.91459 8.25797 6.99609 8.25195C7.41017 8.2498 7.74769 8.58392 7.75 8.99805C7.75216 9.41214 7.41802 9.74965 7.00391 9.75195C5.91055 9.75805 5.13508 9.78649 4.54688 9.89453C3.98043 9.99863 3.65255 10.1659 3.40918 10.4092C3.13242 10.686 2.95217 11.0749 2.85352 11.8086C2.75199 12.5639 2.75 13.5649 2.75 15V16C2.75 17.4354 2.75196 18.437 2.85352 19.1924C2.95216 19.9259 3.13252 20.3141 3.40918 20.5908C3.68594 20.8676 4.07482 21.0488 4.80859 21.1475C5.56388 21.2489 6.5649 21.25 8 21.25H16C17.4354 21.25 18.437 21.249 19.1924 21.1475C19.9259 21.0487 20.3141 20.8676 20.5908 20.5908C20.8675 20.3141 21.0478 19.9259 21.1465 19.1924C21.248 18.437 21.25 17.4354 21.25 16V15C21.25 13.5649 21.2479 12.5639 21.1465 11.8086C21.0478 11.0749 20.8676 10.686 20.5908 10.4092C20.3474 10.1659 20.0196 9.99863 19.4531 9.89453C18.8649 9.78649 18.0894 9.75805 16.9961 9.75195C16.582 9.74965 16.2478 9.41214 16.25 8.99805C16.2523 8.58394 16.5898 8.24981 17.0039 8.25195ZM12 1.25C12.4142 1.25 12.75 1.58579 12.75 2V12.9727L14.4307 11.0117C14.7002 10.6973 15.1738 10.6611 15.4883 10.9307C15.8027 11.2002 15.8389 11.6738 15.5693 11.9883L12.5693 15.4883C12.4269 15.6544 12.2188 15.75 12 15.75C11.7812 15.75 11.5731 15.6544 11.4307 15.4883L8.43066 11.9883C8.16113 11.6738 8.19735 11.2002 8.51172 10.9307C8.82616 10.6611 9.29975 10.6974 9.56934 11.0117L11.25 12.9727V2C11.25 1.58579 11.5858 1.25 12 1.25Z" fill="#1C274C"/>
</svg>
