<svg width="24" height="24" viewBox="0 0 24 24" fill="none" xmlns="http://www.w3.org/2000/svg">
<path d="M17.2861 17.3232C17.9143 19.6147 18.2278 20.7603 17.8086 21.3877C17.6617 21.6074 17.4649 21.784 17.2363 21.9004C16.5837 22.2327 15.5758 21.7083 13.5605 20.6582C12.89 20.3088 12.5544 20.1337 12.1982 20.0957C12.0664 20.0817 11.9336 20.0817 11.8018 20.0957C11.4456 20.1337 11.11 20.3088 10.4395 20.6582C8.42415 21.7083 7.41629 22.2327 6.76367 21.9004C6.53504 21.784 6.33829 21.6074 6.19141 21.3877C5.77227 20.7603 6.08561 19.6147 6.71387 17.3232L7.09277 15.9414C8.47891 16.9231 10.1722 17.5 12 17.5C13.8278 17.5 15.521 16.9231 16.9072 15.9414L17.2861 17.3232ZM12 2C15.866 2 19 5.13401 19 9C19 12.866 15.866 16 12 16C8.13401 16 5 12.866 5 9C5 5.13401 8.13401 2 12 2ZM12 6C11.7159 6 11.5255 6.34079 11.1455 7.02246L11.0479 7.19922C10.94 7.39282 10.8859 7.48983 10.8018 7.55371C10.7176 7.61761 10.612 7.64104 10.4023 7.68848L10.2119 7.73145C9.47397 7.89841 9.10536 7.98238 9.01758 8.26465C8.93 8.5468 9.18086 8.84084 9.68359 9.42871L9.81445 9.58105C9.95736 9.74817 10.0284 9.83216 10.0605 9.93555C10.0926 10.0389 10.0821 10.1502 10.0605 10.373L10.041 10.5762C9.96501 11.3607 9.92686 11.7531 10.1562 11.9277C10.3862 12.1021 10.732 11.9431 11.4229 11.625L11.6016 11.543C11.7978 11.4526 11.8959 11.4072 12 11.4072C12.1041 11.4072 12.2022 11.4526 12.3984 11.543L12.5771 11.625C13.268 11.9431 13.6138 12.1021 13.8438 11.9277C14.0732 11.7531 14.0349 11.3607 13.959 10.5762L13.9395 10.373C13.9179 10.1502 13.9074 10.0389 13.9395 9.93555C13.9716 9.83216 14.0427 9.74817 14.1855 9.58105L14.3164 9.42871C14.8191 8.84082 15.07 8.5468 14.9824 8.26465C14.8946 7.98238 14.526 7.89841 13.7881 7.73145L13.5977 7.68848C13.388 7.64104 13.2824 7.61761 13.1982 7.55371C13.1141 7.48983 13.06 7.39282 12.9521 7.19922L12.8545 7.02246C12.4745 6.34079 12.2841 6 12 6Z" fill="#1C274C"/>
</svg>
