<svg width="24" height="24" viewBox="0 0 24 24" fill="none" xmlns="http://www.w3.org/2000/svg">
<path d="M12 2C15.866 2 19 5.13401 19 9C19 12.6126 16.2633 15.5857 12.75 15.96V17.75H14.5C14.9142 17.75 15.25 18.0858 15.25 18.5C15.25 18.9142 14.9142 19.25 14.5 19.25H12.75V22C12.7499 22.4143 12.4142 22.75 12 22.75C11.5857 22.7499 11.25 22.4142 11.25 22V19.25H9.5C9.08579 19.25 8.75 18.9142 8.75 18.5C8.75 18.0858 9.08579 17.75 9.5 17.75H11.25V15.96C7.73684 15.5856 5 12.6125 5 9C5 5.13401 8.13401 2 12 2Z" fill="#48465C"/>
</svg>
