<svg width="24" height="24" viewBox="0 0 24 24" fill="none" xmlns="http://www.w3.org/2000/svg">
<path d="M13.2627 4.80615C13.3699 4.40609 13.7806 4.16875 14.1807 4.27588C14.5807 4.38308 14.8181 4.79378 14.7109 5.19385L10.7373 20.0239C10.6299 20.4238 10.2193 20.6612 9.81934 20.5542C9.41924 20.447 9.18186 20.0354 9.28906 19.6353L13.2627 4.80615ZM6.49805 7.27197C6.80593 6.99487 7.28053 7.01976 7.55762 7.32764C7.83467 7.63553 7.80982 8.11012 7.50195 8.38721L5.80566 9.91357C5.01792 10.6226 4.48668 11.1033 4.14258 11.5122C3.81233 11.9048 3.74023 12.1342 3.74023 12.3296C3.74029 12.5249 3.81245 12.7545 4.14258 13.147C4.48669 13.5559 5.01809 14.0358 5.80566 14.7446L7.50195 16.272C7.8097 16.5491 7.83467 17.0237 7.55762 17.3315C7.28052 17.6392 6.80586 17.6642 6.49805 17.3872L4.76074 15.8228C4.0245 15.1601 3.41351 14.6103 2.99414 14.1118C2.55328 13.5876 2.23932 13.0247 2.23926 12.3296C2.23926 11.6343 2.55311 11.0706 2.99414 10.5464C3.41355 10.0478 4.02443 9.49809 4.76074 8.83545L6.49805 7.27197ZM16.4424 7.32764C16.7195 7.01976 17.1941 6.99487 17.502 7.27197L19.2393 8.83545C19.9756 9.49807 20.5865 10.0478 21.0059 10.5464C21.4469 11.0706 21.7607 11.6343 21.7607 12.3296C21.7607 13.0247 21.4467 13.5876 21.0059 14.1118C20.5865 14.6104 19.9756 15.1601 19.2393 15.8228L17.502 17.3872C17.1941 17.6642 16.7195 17.6392 16.4424 17.3315C16.1653 17.0237 16.1903 16.5491 16.498 16.272L18.1943 14.7446C18.9822 14.0355 19.5143 13.556 19.8584 13.147C20.1886 12.7545 20.2607 12.5249 20.2607 12.3296C20.2607 12.1342 20.1885 11.9047 19.8584 11.5122C19.5143 11.1032 18.9822 10.6227 18.1943 9.91357L16.498 8.38721C16.1902 8.11013 16.1654 7.63553 16.4424 7.32764Z" fill="#1C274C"/>
</svg>
