<svg width="24" height="24" viewBox="0 0 24 24" fill="none" xmlns="http://www.w3.org/2000/svg">
<path d="M6.26176 2.57456C7.13622 1.70543 8.61012 1.83997 9.37309 2.85874L10.6338 4.54331C11.2503 5.36674 11.1842 6.49507 10.4776 7.19761L10.1905 7.48277C10.1734 7.50014 9.1325 8.58306 12.0635 11.4974C15.0183 14.4353 16.1006 13.3587 16.1006 13.3587L16.5567 12.9066C17.1862 12.2806 18.1671 12.1514 18.9727 12.5892L20.8829 13.6283C22.1097 14.2952 22.3808 15.9297 21.4219 16.8832L20.001 18.2953C19.6398 18.6545 19.1912 18.9172 18.6758 18.9652C17.046 19.117 13.0617 18.9489 8.81547 14.7269C4.81082 10.745 4.09312 7.33167 4.00297 5.74546C3.96778 5.1255 4.25786 4.56624 4.69144 4.13511L6.26176 2.57456Z" fill="#1C274C"/>
</svg>
