<svg width="24" height="24" viewBox="0 0 24 24" fill="none" xmlns="http://www.w3.org/2000/svg">
<path d="M12 2C17.5228 2 22 6.47715 22 12C22 17.5228 17.5228 22 12 22C6.47715 22 2 17.5228 2 12C2 6.47715 6.47715 2 12 2ZM12.2861 7.25C9.55457 7.25 7.25 9.32875 7.25 12C7.25 14.6712 9.55457 16.75 12.2861 16.75C12.9934 16.7499 13.6691 16.6118 14.2832 16.3613C14.6666 16.2049 14.8507 15.7673 14.6943 15.3838C14.5379 15.0004 14.1002 14.8163 13.7168 14.9727C13.2811 15.1503 12.7977 15.2499 12.2861 15.25C10.2838 15.25 8.75 13.747 8.75 12C8.75 10.253 10.2838 8.75 12.2861 8.75C12.7977 8.75006 13.2811 8.84969 13.7168 9.02734C14.1002 9.18372 14.5379 8.99961 14.6943 8.61621C14.8507 8.2327 14.6666 7.79512 14.2832 7.63867C13.6691 7.38827 12.9934 7.25006 12.2861 7.25Z" fill="#48465C"/>
</svg>
