<svg width="24" height="24" viewBox="0 0 24 24" fill="none" xmlns="http://www.w3.org/2000/svg">
<path d="M8 19.001C7.99974 20.6576 6.65663 22.0009 5 22.001C3.34314 22.0007 1.99975 20.6569 2 19C2.00026 17.3434 3.34337 16.0009 5 16.001H8V19.001ZM19 16.001C20.6569 16.0007 22.0007 17.3432 22.001 19C22.0012 20.6569 20.6578 22.0006 19.001 22.001C17.3442 22.0012 16.0012 20.6578 16.001 19.001L16 16L19 16.001ZM19.001 2.00098C20.6578 2.00128 22.0012 3.34415 22.001 5.00098C22.0007 6.65782 20.6569 8.00124 19 8.00098L16 8V16H8V8L5 8.00098C3.34337 8.00098 2.00027 6.65766 2 5.00098C1.99974 3.34413 3.34314 2.00124 5 2.00098C6.65663 2.00097 7.99973 3.34331 8 5V8H16L16.001 5C16.0012 3.34315 17.3442 2.00072 19.001 2.00098Z" fill="#48465C"/>
</svg>
