<svg width="24" height="24" viewBox="0 0 24 24" fill="none" xmlns="http://www.w3.org/2000/svg">
<path d="M17.6553 5C18.613 5 19.7304 5.56258 19.7305 7.1875V9.0625C19.7285 9.55465 19.5495 11.063 18.8496 10.6602C19.6771 11.6381 19.7603 12.7788 19.749 13.8828C19.972 13.9473 20.2001 14.0192 20.4209 14.0947C21.1047 14.3286 21.8296 14.6273 22.1572 14.8389C22.5051 15.0636 22.6056 15.5281 22.3809 15.876C22.1562 16.2239 21.6916 16.3233 21.3438 16.0986C21.1876 15.9978 20.6225 15.7495 19.9356 15.5146C19.8596 15.4886 19.7829 15.463 19.7071 15.4385C19.6608 15.8723 19.5457 16.268 19.375 16.6289L19.3985 16.6416C19.8082 16.8581 20.1893 17.1071 20.4317 17.2656C20.4734 17.2929 20.511 17.3176 20.544 17.3389C20.892 17.5636 20.9923 18.0281 20.7676 18.376C20.5428 18.7239 20.0784 18.8233 19.7305 18.5986C19.6894 18.572 19.645 18.5439 19.5987 18.5137C19.3534 18.3536 19.0401 18.1484 18.6983 17.9678C18.6181 17.9254 18.5406 17.8871 18.4668 17.8525C16.7365 19.4748 13.6301 20 11.75 20C9.86986 20 6.76352 19.4748 5.03323 17.8525C4.95941 17.8871 4.88197 17.9254 4.80178 17.9678C4.45992 18.1484 4.14666 18.3536 3.90139 18.5137C3.85514 18.5439 3.81067 18.572 3.76955 18.5986C3.42163 18.8232 2.95717 18.7239 2.73244 18.376C2.50773 18.0281 2.60813 17.5636 2.95608 17.3389C2.98921 17.3175 3.02741 17.293 3.06936 17.2656C3.31177 17.1071 3.69194 16.8581 4.10159 16.6416L4.12502 16.6289C3.95436 16.2681 3.83926 15.8722 3.79299 15.4385C3.71734 15.463 3.64136 15.4887 3.56545 15.5146C2.87876 15.7494 2.31385 15.9976 2.15725 16.0986C1.8094 16.3233 1.34493 16.2237 1.12014 15.876C0.895496 15.5282 0.995127 15.0637 1.3428 14.8389C1.67045 14.6273 2.39621 14.3286 3.0801 14.0947C3.30073 14.0194 3.52819 13.9472 3.751 13.8828C3.73963 12.7789 3.823 11.6381 4.65041 10.6602C3.95067 11.0629 3.77148 9.55464 3.76955 9.0625V7.1875C3.76955 5.56256 4.88716 5.00004 5.84475 5C6.80235 5 8.71806 6.5625 9.35647 6.5625C10.1222 6.56245 10.27 6.40626 11.75 6.40625C13.2304 6.40625 13.3785 6.5625 14.1446 6.5625C14.7834 6.56176 16.6979 5 17.6553 5ZM11.75 15.5C11.5161 15.5 11.2768 15.5316 11.0742 15.6006C10.9749 15.6344 10.8531 15.6873 10.7461 15.7734C10.6386 15.8599 10.5 16.0206 10.5 16.25C10.5 16.4794 10.6386 16.6401 10.7461 16.7266C10.8531 16.8127 10.9749 16.8656 11.0742 16.8994C11.2768 16.9684 11.5161 17 11.75 17C11.9839 17 12.2231 16.9684 12.4258 16.8994C12.5252 16.8656 12.647 16.8127 12.7539 16.7266C12.8614 16.6401 13 16.4794 13 16.25C13 16.0206 12.8614 15.8599 12.7539 15.7734C12.647 15.6873 12.5252 15.6344 12.4258 15.6006C12.2231 15.5316 11.9839 15.5 11.75 15.5ZM8.77053 12C8.36642 12 8.0964 12.2726 7.95998 12.501C7.81786 12.7391 7.75002 13.0276 7.75002 13.3125C7.75002 13.5974 7.81786 13.8859 7.95998 14.124C8.0964 14.3524 8.36642 14.625 8.77053 14.625C9.1744 14.6248 9.44373 14.3523 9.5801 14.124C9.72225 13.8859 9.79006 13.5974 9.79006 13.3125C9.79006 13.0276 9.72225 12.7391 9.5801 12.501C9.44373 12.2727 9.1744 12.0002 8.77053 12ZM14.7305 12C14.3264 12 14.0564 12.2726 13.9199 12.501C13.7778 12.7391 13.71 13.0276 13.71 13.3125C13.71 13.5974 13.7778 13.8859 13.9199 14.124C14.0564 14.3524 14.3264 14.625 14.7305 14.625C15.1344 14.6248 15.4037 14.3523 15.5401 14.124C15.6822 13.8859 15.75 13.5974 15.75 13.3125C15.75 13.0276 15.6822 12.7391 15.5401 12.501C15.4037 12.2727 15.1344 12.0002 14.7305 12Z" fill="#1C274C"/>
</svg>
