<svg width="24" height="24" viewBox="0 0 24 24" fill="none" xmlns="http://www.w3.org/2000/svg">
<path d="M16 21.25C16.4142 21.25 16.75 21.5858 16.75 22C16.75 22.4142 16.4142 22.75 16 22.75H8C7.58579 22.75 7.25 22.4142 7.25 22C7.25 21.5858 7.58579 21.25 8 21.25H16ZM19 18.25C19.4142 18.25 19.75 18.5858 19.75 19C19.75 19.4142 19.4142 19.75 19 19.75H5C4.58579 19.75 4.25 19.4142 4.25 19C4.25 18.5858 4.58579 18.25 5 18.25H19ZM12.4766 1.25C15.6345 1.25017 18.2721 3.49421 18.8311 6.47168C21.1308 7.44788 22.7499 9.70908 22.75 12.3525C22.75 13.3959 22.4974 14.382 22.0498 15.252C22.4408 15.2777 22.75 15.6026 22.75 16C22.75 16.4142 22.4142 16.75 22 16.75H2C1.58579 16.75 1.25 16.4142 1.25 16C1.25 15.7628 1.36031 15.5515 1.53223 15.4141C1.34944 14.8977 1.25 14.3421 1.25 13.7646C1.25003 11.0605 3.41976 8.87213 6.11328 8.78223C6.04654 8.41365 6.01174 8.03436 6.01172 7.64746C6.01172 4.10612 8.91482 1.25 12.4766 1.25ZM12.4766 2.75C9.72646 2.75 7.51172 4.95123 7.51172 7.64746C7.51176 8.10948 7.57661 8.55602 7.69727 8.97852C8.19435 9.12198 8.65962 9.33908 9.08008 9.61719C9.42554 9.84571 9.52051 10.3108 9.29199 10.6562C9.06348 11.0017 8.59839 11.0967 8.25293 10.8682C7.87219 10.6163 7.43941 10.4351 6.97363 10.3447C6.75194 10.3018 6.52192 10.2793 6.28613 10.2793C4.32504 10.2793 2.75003 11.8482 2.75 13.7646C2.75 14.2965 2.87034 14.7997 3.08594 15.25H20.2891C20.8941 14.438 21.25 13.4364 21.25 12.3525C21.2498 10.216 19.8603 8.39081 17.9121 7.72461C17.4037 7.5508 16.857 7.4561 16.2861 7.45605C15.7035 7.45605 15.1451 7.55467 14.6279 7.73535C14.2369 7.87169 13.8094 7.66533 13.6729 7.27441C13.5363 6.8834 13.7428 6.45591 14.1338 6.31934C14.8081 6.08384 15.5331 5.95605 16.2861 5.95605C16.5813 5.95607 16.8721 5.97561 17.1572 6.01367C16.4765 4.1165 14.6423 2.75015 12.4766 2.75Z" fill="#1C274C"/>
</svg>
