<svg width="24" height="24" viewBox="0 0 24 24" fill="none" xmlns="http://www.w3.org/2000/svg">
<path d="M2.8584 16.7454C3.07612 16.7465 3.39064 16.7536 3.77051 16.7786C4.53425 16.8288 5.54559 16.9493 6.55957 17.2268C6.77701 17.2864 7.02449 17.3934 7.35254 17.5481C7.41832 17.5792 7.48778 17.6124 7.55957 17.6467C7.8286 17.7752 8.13768 17.9228 8.4707 18.0618C9.33671 18.4231 10.4152 18.7502 11.8193 18.7502C13.8856 18.7502 15.9286 18.0708 17.2021 17.4866C15.9065 20.158 13.1684 22.0002 10 22.0002C6.54838 22.0002 3.60707 19.8142 2.48535 16.7512L2.53027 16.7493H2.5332L2.54688 16.7483C2.5601 16.7479 2.58141 16.7479 2.60938 16.7473C2.66533 16.7463 2.74978 16.7448 2.8584 16.7454ZM2.50781 11.5706L2.51172 11.5745L2.52051 11.5813L2.54688 11.6047C2.56935 11.6234 2.60157 11.6484 2.6416 11.6799C2.72161 11.7429 2.83609 11.8304 2.9834 11.9329C3.2779 12.1377 3.70476 12.4068 4.24707 12.675C5.33042 13.2107 6.89087 13.7502 8.78418 13.7502C10.1101 13.7502 11.1282 13.4182 11.9414 13.054C12.2537 12.9141 12.5442 12.7655 12.7949 12.637C12.8615 12.6029 12.9255 12.5701 12.9863 12.5393C13.2923 12.3844 13.5167 12.28 13.7109 12.2229C14.6579 11.9447 15.482 11.828 16.0645 11.7805C16.3552 11.7568 16.5848 11.7508 16.7383 11.7502C16.8149 11.75 16.8726 11.7511 16.9092 11.7522C16.9275 11.7528 16.9406 11.7528 16.9482 11.7532L16.9551 11.7542H16.9561L17.6934 11.7991C17.893 12.4983 18 13.2369 18 14.0002C18 14.538 17.9469 15.0635 17.8457 15.5715L17.7959 15.4817L17.1387 15.843C16.15 16.3859 13.9603 17.2502 11.8193 17.2502C10.6662 17.2502 9.78762 16.9853 9.04883 16.677C8.75398 16.554 8.48849 16.4275 8.22363 16.301C8.14699 16.2645 8.06953 16.2282 7.99219 16.1917C7.66344 16.0366 7.31113 15.878 6.95508 15.7805C5.81254 15.4677 4.69485 15.3358 3.86914 15.2815C3.45449 15.2543 3.10872 15.2466 2.86523 15.2454C2.74373 15.2448 2.64734 15.246 2.58008 15.2473C2.54639 15.248 2.51957 15.2487 2.50098 15.2493L2.47949 15.2502H2.46973L2.09961 15.2659C2.03412 14.8538 2.00002 14.4307 2 14.0002C2 13.1201 2.14176 12.2727 2.4043 11.4807L2.50684 11.5696L2.99219 11.0139C2.54368 11.5275 2.51029 11.5675 2.50781 11.5706ZM10 6.00024C13.0665 6.00025 15.7304 7.72519 17.0732 10.2581L17.0459 10.2561H17.0361L17.0176 10.2551C17.0023 10.2543 16.9813 10.253 16.9551 10.2522C16.9023 10.2506 16.8269 10.2498 16.7324 10.2502C16.5436 10.251 16.2752 10.2582 15.9424 10.2854C15.2772 10.3397 14.3508 10.4724 13.2891 10.7844C12.949 10.8843 12.6146 11.0465 12.3086 11.2014C12.2359 11.2382 12.1635 11.2751 12.0918 11.3118C11.8455 11.438 11.6006 11.5627 11.3281 11.6848C10.6462 11.9902 9.84043 12.2502 8.78418 12.2502C7.17774 12.2502 5.8459 11.792 4.91211 11.3303C4.44608 11.0999 4.08302 10.8706 3.83984 10.7014C3.71854 10.6171 3.62792 10.5473 3.56934 10.5012C3.54007 10.4782 3.51855 10.4609 3.50586 10.4504L3.49316 10.4397L3.49219 10.4387L3.04297 10.0471C4.41937 7.62989 7.01945 6.00024 10 6.00024ZM20.5303 4.04419C20.8824 4.9486 20.5314 6 19.665 6.50024C18.7988 7.00024 17.7136 6.77853 17.1064 6.02173C17.5614 5.89521 18.2187 5.60245 18.915 5.20044C19.6113 4.79844 20.1933 4.37499 20.5303 4.04419ZM16.7998 5.49146C16.8365 5.58542 16.8807 5.67781 16.9326 5.76782C16.9847 5.85797 17.0432 5.94296 17.1064 6.02173C16.7801 6.11247 16.5577 6.11771 16.5 6.01782C16.4426 5.91796 16.5583 5.72848 16.7998 5.49146ZM17.665 3.0354C18.5312 2.53532 19.6164 2.75726 20.2236 3.51392C19.7686 3.64047 19.1112 3.93326 18.415 4.33521C17.7189 4.73717 17.1369 5.1607 16.7998 5.49146C16.4478 4.58706 16.7986 3.53563 17.665 3.0354ZM20.2236 3.51392C20.5499 3.4232 20.7724 3.41804 20.8301 3.51782C20.8878 3.61767 20.7719 3.80707 20.5303 4.04419C20.4937 3.95023 20.4495 3.85784 20.3975 3.76782C20.3455 3.67767 20.2868 3.59269 20.2236 3.51392Z" fill="#1C274C"/>
</svg>
