<svg width="24" height="24" viewBox="0 0 24 24" fill="none" xmlns="http://www.w3.org/2000/svg">
<path fill-rule="evenodd" clip-rule="evenodd" d="M18.1646 1.41688C18.508 1.27813 18.8967 1.18897 19.3248 1.30165C19.7542 1.41475 20.0482 1.68406 20.2769 1.97547C20.4846 2.24002 20.6921 2.59315 20.9195 2.98036L20.942 3.01942L22.0142 4.84461C22.2415 5.23143 22.4483 5.58501 22.5777 5.89442C22.72 6.2346 22.8145 6.62555 22.6968 7.05751C22.5794 7.48814 22.3001 7.77808 22.0064 8.00086C21.7381 8.20438 21.38 8.40812 20.9859 8.63172L17.1724 10.7958C16.8013 11.0064 16.4603 11.1998 16.1617 11.3202C15.8327 11.4529 15.4549 11.5404 15.0377 11.4286L15.0181 11.4227L12.8726 12.6405L16.691 21.7089C16.8518 22.0907 16.6724 22.5306 16.2906 22.6913C15.9089 22.8519 15.4698 22.6726 15.3091 22.2909L11.9996 14.4325L8.69098 22.2909C8.53024 22.6727 8.09032 22.8521 7.70856 22.6913C7.32699 22.5305 7.14844 22.0906 7.30914 21.7089L10.5953 13.9032C10.5459 13.9257 10.4971 13.9467 10.4498 13.9657C10.1206 14.0985 9.74308 14.1859 9.32574 14.0741L9.30719 14.0692L5.85211 16.0302C5.45763 16.2541 5.0989 16.4574 4.7857 16.5839C4.44231 16.7226 4.05364 16.8119 3.62555 16.6991C3.19629 16.586 2.9031 16.3156 2.67438 16.0243C2.46674 15.7598 2.25911 15.4065 2.0318 15.0194L1.9859 14.9413C1.7586 14.5544 1.55083 14.2009 1.42145 13.8915C1.27927 13.5514 1.18556 13.1603 1.30328 12.7284C1.42073 12.2977 1.69906 12.0078 1.99274 11.785C2.26116 11.5814 2.61994 11.3779 3.01422 11.1542L3.05328 11.1317L6.48102 9.18641C6.59626 8.76275 6.86878 8.4772 7.15582 8.25868C7.41792 8.05918 7.76823 7.86101 8.14996 7.64442L8.18902 7.62196L11.6685 5.64735C11.7839 5.22392 12.0563 4.93806 12.3433 4.71961C12.6054 4.52011 12.9557 4.32194 13.3375 4.10536L17.0992 1.97059C17.4935 1.74675 17.8515 1.54343 18.1646 1.41688ZM3.79352 12.4364C3.34702 12.6898 3.07791 12.8447 2.89899 12.9804C2.81711 13.0425 2.77926 13.0828 2.76227 13.1044C2.75459 13.1142 2.75152 13.121 2.75152 13.121L2.74957 13.1249C2.74953 13.1258 2.75013 13.1312 2.75152 13.1415C2.75497 13.1668 2.76604 13.2197 2.80524 13.3134C2.89053 13.5174 3.04445 13.7815 3.30231 14.2206C3.56024 14.6597 3.71665 14.9234 3.85406 15.0985C3.9172 15.1789 3.95842 15.2162 3.98102 15.2333C3.99748 15.2459 4.00398 15.2471 4.00738 15.2479L4.00836 15.2489C4.01187 15.2498 4.01914 15.2519 4.04156 15.2489C4.07143 15.245 4.12766 15.2322 4.22418 15.1932C4.43368 15.1086 4.70462 14.9563 5.15094 14.703L8.12652 13.0145C8.01862 12.8436 7.90882 12.6552 7.79352 12.4589L7.17535 11.4061L7.15192 11.3671C7.02133 11.1448 6.89752 10.9333 6.79156 10.7352L3.79352 12.4364ZM8.92926 8.92665C8.49538 9.17289 8.23659 9.32149 8.065 9.45204C7.9863 9.51194 7.95073 9.5504 7.93609 9.56922C7.93304 9.57317 7.93139 9.57622 7.93024 9.57801L7.92828 9.57997V9.5829C7.92837 9.58508 7.92851 9.58914 7.92926 9.59461C7.9326 9.61836 7.94395 9.66884 7.98199 9.75965C8.0653 9.95848 8.21569 10.2162 8.46832 10.6464L9.06402 11.661C9.31015 12.0801 9.4583 12.3289 9.58746 12.494C9.6461 12.569 9.68307 12.6028 9.70172 12.6171C9.70601 12.6204 9.70965 12.6227 9.71149 12.6239L9.71344 12.6259H9.71735C9.71956 12.6257 9.72305 12.6246 9.72809 12.6239C9.75117 12.6209 9.80026 12.611 9.88922 12.5751C10.0836 12.4967 10.3367 12.355 10.7593 12.1151L11.5338 11.6757L12.2867 11.2479L13.8384 10.3671C13.7308 10.1965 13.6205 10.0093 13.5054 9.81336L12.3394 7.82899C12.2086 7.60635 12.0842 7.39454 11.9781 7.19618L8.92926 8.92665ZM18.9097 2.75184C18.8798 2.75578 18.8236 2.76853 18.7271 2.80751C18.5176 2.89215 18.2466 3.04352 17.8004 3.29676L14.1168 5.38758C13.6827 5.63398 13.4241 5.78334 13.2525 5.91395C13.1738 5.97385 13.1382 6.01135 13.1236 6.03016L13.1158 6.04188V6.04383C13.1159 6.04601 13.1161 6.05009 13.1168 6.05555C13.1201 6.07919 13.1323 6.12942 13.1705 6.22059C13.2538 6.41945 13.4031 6.67803 13.6558 7.10829L14.7759 9.01454C15.0221 9.43368 15.1702 9.68342 15.2994 9.84852C15.3583 9.9237 15.3951 9.95739 15.4136 9.97157C15.4179 9.9748 15.4216 9.97626 15.4234 9.97743L15.4254 9.97938H15.4341L15.44 9.9784C15.463 9.97541 15.5121 9.96449 15.6011 9.9286C15.7956 9.85017 16.0479 9.70837 16.4703 9.46864L20.2056 7.3495C20.6521 7.09613 20.9213 6.94126 21.1002 6.80555C21.1824 6.74316 21.2209 6.70313 21.2379 6.68153C21.2456 6.67175 21.2486 6.66493 21.2486 6.66493L21.2496 6.66297V6.66102C21.2496 6.66102 21.2501 6.65548 21.2486 6.64442C21.2452 6.61911 21.2331 6.56628 21.1939 6.47254C21.1086 6.26858 20.9547 6.0044 20.6968 5.56532L19.649 3.77919C19.3912 3.34031 19.2346 3.07729 19.0972 2.90223C19.0344 2.82226 18.993 2.78472 18.9703 2.76747C18.954 2.75508 18.9473 2.75272 18.9439 2.75184H18.9097Z" fill="#1C274C"/>
</svg>
