<svg width="24" height="24" viewBox="0 0 24 24" fill="none" xmlns="http://www.w3.org/2000/svg">
<path d="M18.1646 1.41675C18.508 1.278 18.8966 1.18884 19.3247 1.30151C19.7541 1.41461 20.0482 1.68393 20.2769 1.97534C20.4845 2.23988 20.6921 2.59302 20.9194 2.98022L20.9419 3.01929L22.0142 4.84448C22.2414 5.2313 22.4483 5.58488 22.5776 5.89429C22.7199 6.23447 22.8145 6.62542 22.6968 7.05737C22.5793 7.48801 22.3 7.77795 22.0063 8.00073C21.738 8.20425 21.3799 8.40798 20.9858 8.63159L17.1724 10.7957C16.8013 11.0063 16.4603 11.1997 16.1616 11.3201C15.8326 11.4528 15.4548 11.5403 15.0376 11.4285L15.0181 11.4226L12.8726 12.6404L16.6909 21.7087C16.8517 22.0905 16.6723 22.5305 16.2905 22.6912C15.9089 22.8518 15.4697 22.6725 15.3091 22.2908L11.9995 14.4324L8.69092 22.2908C8.53018 22.6726 8.09026 22.852 7.7085 22.6912C7.32693 22.5304 7.14838 22.0905 7.30908 21.7087L10.5952 13.9031C10.5458 13.9256 10.497 13.9466 10.4497 13.9656C10.1205 14.0983 9.74302 14.1858 9.32568 14.074L9.30713 14.0691L5.85205 16.03C5.45757 16.254 5.09884 16.4573 4.78564 16.5837C4.44225 16.7225 4.05358 16.8117 3.62549 16.699C3.19624 16.5858 2.90304 16.3155 2.67432 16.0242C2.46668 15.7597 2.25905 15.4064 2.03174 15.0193L1.98584 14.9412C1.75854 14.5543 1.55077 14.2008 1.42139 13.8914C1.27921 13.5512 1.1855 13.1602 1.30322 12.7283C1.42067 12.2976 1.699 12.0077 1.99268 11.7849C2.2611 11.5813 2.61988 11.3778 3.01416 11.1541L3.05322 11.1316L6.48096 9.18628C6.5962 8.76262 6.86873 8.47707 7.15576 8.25854C7.41786 8.05904 7.76817 7.86088 8.1499 7.64429L8.18896 7.62183L11.6685 5.64722C11.7838 5.22379 12.0563 4.93793 12.3433 4.71948C12.6054 4.51998 12.9556 4.3218 13.3374 4.10522L17.0991 1.97046C17.4934 1.74661 17.8515 1.5433 18.1646 1.41675ZM3.79346 12.4363C3.34696 12.6897 3.07785 12.8445 2.89893 12.9802C2.81705 13.0424 2.7792 13.0827 2.76221 13.1042C2.75453 13.114 2.75146 13.1208 2.75146 13.1208L2.74951 13.1248C2.74948 13.1256 2.75007 13.1311 2.75146 13.1414C2.75491 13.1667 2.76598 13.2195 2.80518 13.3132C2.89047 13.5173 3.04439 13.7814 3.30225 14.2205C3.56018 14.6595 3.71659 14.9233 3.854 15.0984C3.91714 15.1788 3.95836 15.2161 3.98096 15.2332C3.99742 15.2457 4.00392 15.247 4.00732 15.2478L4.0083 15.2488C4.01181 15.2497 4.01908 15.2517 4.0415 15.2488C4.07137 15.2449 4.1276 15.2321 4.22412 15.1931C4.43362 15.1085 4.70456 14.9562 5.15088 14.7029L8.12646 13.0144C8.01856 12.8435 7.90876 12.6551 7.79346 12.4587L7.17529 11.406L7.15186 11.3669C7.02127 11.1447 6.89747 10.9332 6.7915 10.7351L3.79346 12.4363ZM8.9292 8.92651C8.49532 9.17276 8.23653 9.32135 8.06494 9.4519C7.98624 9.5118 7.95068 9.55027 7.93604 9.56909C7.93298 9.57304 7.93133 9.57609 7.93018 9.57788L7.92822 9.57983V9.58276C7.92831 9.58494 7.92845 9.58901 7.9292 9.59448C7.93254 9.61822 7.94389 9.66871 7.98193 9.75952C8.06524 9.95835 8.21563 10.2161 8.46826 10.6462L9.06396 11.6609C9.31009 12.08 9.45824 12.3288 9.5874 12.4939C9.64604 12.5688 9.68301 12.6026 9.70166 12.6169C9.70595 12.6202 9.70959 12.6226 9.71143 12.6238L9.71338 12.6257H9.71729C9.7195 12.6256 9.72299 12.6244 9.72803 12.6238C9.75111 12.6208 9.8002 12.6108 9.88916 12.575C10.0836 12.4965 10.3366 12.3549 10.7593 12.115L11.5337 11.6755L12.2866 11.2478L13.8384 10.3669C13.7307 10.1963 13.6204 10.0092 13.5054 9.81323L12.3394 7.82886C12.2086 7.60622 12.0841 7.3944 11.978 7.19604L8.9292 8.92651ZM18.9097 2.75171C18.8798 2.75565 18.8236 2.76839 18.7271 2.80737C18.5176 2.89201 18.2465 3.04338 17.8003 3.29663L14.1167 5.38745C13.6826 5.63385 13.424 5.78321 13.2524 5.91382C13.1737 5.97372 13.1381 6.01122 13.1235 6.03003L13.1157 6.04175V6.0437C13.1158 6.04588 13.116 6.04996 13.1167 6.05542C13.12 6.07906 13.1322 6.12929 13.1704 6.22046C13.2537 6.41932 13.4031 6.67789 13.6558 7.10815L14.7759 9.0144C15.0221 9.43354 15.1701 9.68329 15.2993 9.84839C15.3582 9.92357 15.395 9.95726 15.4136 9.97144C15.4178 9.97467 15.4215 9.97613 15.4233 9.97729L15.4253 9.97925H15.4341L15.4399 9.97827C15.4629 9.97528 15.5121 9.96435 15.6011 9.92847C15.7955 9.85004 16.0478 9.70824 16.4702 9.46851L20.2056 7.34937C20.652 7.09599 20.9212 6.94113 21.1001 6.80542C21.1824 6.74303 21.2208 6.703 21.2378 6.6814C21.2455 6.67162 21.2485 6.66479 21.2485 6.66479L21.2495 6.66284V6.66089C21.2495 6.66089 21.2501 6.65535 21.2485 6.64429C21.2451 6.61898 21.233 6.56615 21.1938 6.47241C21.1085 6.26844 20.9546 6.00426 20.6968 5.56519L19.6489 3.77905C19.3911 3.34018 19.2345 3.07716 19.0972 2.9021C19.0343 2.82213 18.9929 2.78459 18.9702 2.76733C18.9539 2.75495 18.9473 2.75258 18.9438 2.75171H18.9097Z" fill="#48465C"/>
</svg>
