<svg width="24" height="24" viewBox="0 0 24 24" fill="none" xmlns="http://www.w3.org/2000/svg">
<path d="M8.25 2V5C8.25 5.41421 8.58579 5.75 9 5.75C9.41421 5.75 9.75 5.41421 9.75 5V2H11.25V4C11.25 4.41421 11.5858 4.75 12 4.75C12.4142 4.75 12.75 4.41421 12.75 4V2H14.25V5C14.25 5.41421 14.5858 5.75 15 5.75C15.4142 5.75 15.75 5.41421 15.75 5V2H17.25V4C17.25 4.41421 17.5858 4.75 18 4.75C18.4142 4.75 18.75 4.41421 18.75 4V2C19.9896 2.00118 20.6378 2.02047 21.1113 2.33691C21.3297 2.48282 21.5172 2.67034 21.6631 2.88867C22.0002 3.39312 22 4.09554 22 5.5C22 6.90446 22.0002 7.60688 21.6631 8.11133C21.5172 8.32966 21.3297 8.51718 21.1113 8.66309C20.6069 9.00015 19.9045 9 18.5 9H11C10.0572 9 9.58587 9.00008 9.29297 9.29297C9.00008 9.58587 9 10.0572 9 11V18.5C9 19.9045 9.00015 20.6069 8.66309 21.1113C8.51718 21.3297 8.32966 21.5172 8.11133 21.6631C7.60688 22.0002 6.90446 22 5.5 22C4.09554 22 3.39312 22.0002 2.88867 21.6631C2.67034 21.5172 2.48282 21.3297 2.33691 21.1113C2.02047 20.6378 2.00118 19.9896 2 18.75H4C4.41421 18.75 4.75 18.4142 4.75 18C4.75 17.5858 4.41421 17.25 4 17.25H2V15.75H5C5.41421 15.75 5.75 15.4142 5.75 15C5.75 14.5858 5.41421 14.25 5 14.25H2V12.75H4C4.41421 12.75 4.75 12.4142 4.75 12C4.75 11.5858 4.41421 11.25 4 11.25H2V9.75H5C5.41421 9.75 5.75 9.41421 5.75 9C5.75 8.58579 5.41421 8.25 5 8.25H2V6C2 4.11438 2.00015 3.17172 2.58594 2.58594C3.17172 2.00015 4.11438 2 6 2H8.25Z" fill="#1C274C"/>
</svg>
