<svg width="24" height="24" viewBox="0 0 24 24" fill="none" xmlns="http://www.w3.org/2000/svg">
<path d="M12 1.25C17.9371 1.25 22.75 6.06294 22.75 12C22.75 12.7353 22.6763 13.4543 22.5352 14.1494C22.4527 14.5552 22.0562 14.8177 21.6504 14.7354C21.2446 14.6528 20.9831 14.2564 21.0654 13.8506C21.1866 13.2533 21.25 12.6344 21.25 12C21.25 6.89137 17.1086 2.75 12 2.75C6.89137 2.75 2.75 6.89137 2.75 12C2.75 17.1086 6.89137 21.25 12 21.25C12.6344 21.25 13.2533 21.1866 13.8506 21.0654C14.2564 20.9831 14.6528 21.2446 14.7354 21.6504C14.8177 22.0562 14.5552 22.4527 14.1494 22.5352C13.4543 22.6763 12.7353 22.75 12 22.75C6.06294 22.75 1.25 17.9371 1.25 12C1.25 6.06294 6.06294 1.25 12 1.25ZM17.4697 14.4697C17.7626 14.1768 18.2374 14.1768 18.5303 14.4697L21.0303 16.9697C21.3232 17.2626 21.3232 17.7374 21.0303 18.0303C20.7374 18.3232 20.2626 18.3232 19.9697 18.0303L18.75 16.8105V22C18.75 22.4142 18.4142 22.75 18 22.75C17.5858 22.75 17.25 22.4142 17.25 22V16.8105L16.0303 18.0303C15.7374 18.3232 15.2626 18.3232 14.9697 18.0303C14.6768 17.7374 14.6768 17.2626 14.9697 16.9697L17.4697 14.4697ZM13 7C13.4141 7 13.7375 7.34497 13.873 7.73633C14.178 8.61731 15.0153 9.25 16 9.25C16.4142 9.25 16.75 9.58579 16.75 10C16.75 10.4142 16.4142 10.75 16 10.75C15.1558 10.75 14.3767 10.4707 13.75 10V15C13.75 16.5188 12.5188 17.75 11 17.75C9.48122 17.75 8.25 16.5188 8.25 15C8.25 13.4812 9.48122 12.25 11 12.25C11.4501 12.25 11.875 12.358 12.25 12.5498V7.75C12.25 7.33579 12.5858 7 13 7ZM11 13.75C10.3096 13.75 9.75 14.3096 9.75 15C9.75 15.6904 10.3096 16.25 11 16.25C11.6904 16.25 12.25 15.6904 12.25 15C12.25 14.3096 11.6904 13.75 11 13.75Z" fill="#1C274C"/>
</svg>
