<svg width="24" height="24" viewBox="0 0 24 24" fill="none" xmlns="http://www.w3.org/2000/svg">
<path d="M12 2C16.714 2 19.0708 2.00037 20.5352 3.46484C21.9996 4.9293 22 7.28597 22 12C22 16.714 21.9997 19.0708 20.5352 20.5352C19.0708 21.9997 16.714 22 12 22C11.6602 22 11.3325 21.9995 11.0166 21.999C11.166 21.6979 11.25 21.3588 11.25 21C11.25 19.7574 10.2426 18.75 9 18.75H8.43164L12.5908 14.5908C13.4695 13.7121 13.4695 12.2879 12.5908 11.4092C11.7121 10.5305 10.2879 10.5305 9.40918 11.4092L5.25 15.5684V15C5.25 13.7574 4.24264 12.75 3 12.75C2.64118 12.75 2.30197 12.834 2.00098 12.9834C2.00043 12.6675 2 12.3398 2 12C2 7.28595 2.00037 4.9293 3.46484 3.46484C4.9293 2.00037 7.28595 2 12 2ZM10.4697 12.4697C10.7626 12.1768 11.2374 12.1768 11.5303 12.4697C11.8232 12.7626 11.8232 13.2374 11.5303 13.5303L4.81055 20.25H9C9.41421 20.25 9.75 20.5858 9.75 21C9.74999 21.4142 9.4142 21.75 9 21.75H3C2.5858 21.75 2.25001 21.4142 2.25 21V15C2.25 14.5858 2.58579 14.25 3 14.25C3.41421 14.25 3.75 14.5858 3.75 15V19.1895L10.4697 12.4697Z" fill="#1C274C"/>
</svg>
