<svg width="24" height="24" viewBox="0 0 24 24" fill="none" xmlns="http://www.w3.org/2000/svg">
<path d="M11.6601 1.25C13.17 1.25008 14.5341 2.36742 14.5341 3.90918C14.5341 4.58927 14.2865 5.22328 13.8446 5.7041C13.7047 5.8563 13.5501 6.00941 13.4091 6.14844L13.3349 6.22168C13.1679 6.38689 13.0206 6.53625 12.8944 6.68457C12.8071 6.78722 12.74 6.87806 12.6894 6.95898C13.2577 7.06694 13.8096 7.28611 14.3036 7.61914L21.7362 12.6289C22.6858 13.2691 22.9426 14.3259 22.6122 15.2168C22.2871 16.0928 21.4221 16.7499 20.2978 16.75H17.9911C18.0003 17.1135 17.9999 17.5271 17.9999 18C17.9999 19.8856 17.9998 20.8283 17.414 21.4141C16.8282 21.9998 15.8855 22 13.9999 22H9.99991C8.11437 22 7.17163 21.9999 6.58585 21.4141C6.00011 20.8283 5.99991 19.8856 5.99991 18C5.99991 17.5271 6.00043 17.1135 6.00967 16.75H3.70303C2.59045 16.75 1.72857 16.105 1.39639 15.2393C1.05879 14.3592 1.29656 13.3083 2.22354 12.6562L9.31924 7.66504C9.85571 7.28767 10.4662 7.04813 11.0937 6.94238C11.1991 6.43645 11.4866 6.02486 11.7519 5.71289C11.9237 5.51089 12.1117 5.32196 12.2802 5.15527L12.3612 5.0752C12.503 4.93531 12.6273 4.81218 12.7401 4.68945C12.9222 4.49134 13.0341 4.22141 13.0341 3.90918C13.0341 3.34232 12.4961 2.75008 11.6601 2.75C10.824 2.75 10.286 3.34228 10.286 3.90918C10.286 4.3233 9.95017 4.6591 9.53604 4.65918C9.12186 4.65918 8.78609 4.32335 8.78604 3.90918C8.78604 2.36736 10.1501 1.25 11.6601 1.25ZM11.8105 8.37988C11.2261 8.38668 10.6528 8.5618 10.1825 8.89258L3.08682 13.8838C2.7419 14.1266 2.6966 14.441 2.79678 14.7021C2.90258 14.9776 3.20057 15.25 3.70303 15.25H6.19229C6.27873 14.9828 6.40449 14.7673 6.58585 14.5859C7.17163 14.0001 8.11437 14 9.99991 14H13.9999C15.8855 14 16.8282 14.0002 17.414 14.5859C17.5954 14.7673 17.721 14.9828 17.8075 15.25H20.2978C20.8057 15.2499 21.1027 14.9731 21.206 14.6953C21.3037 14.4318 21.2542 14.1135 20.8974 13.873L13.4657 8.8623C12.9832 8.53704 12.3998 8.37308 11.8105 8.37988Z" fill="#1C274C"/>
</svg>
