<svg width="24" height="24" viewBox="0 0 24 24" fill="none" xmlns="http://www.w3.org/2000/svg">
<path d="M13 2C16.7712 2 18.6566 2.00031 19.8281 3.17188C20.9997 4.34346 21 6.22878 21 10V14C21 17.7712 20.9997 19.6566 19.8281 20.8281C18.6566 21.9997 16.7712 22 13 22H11C7.22878 22 5.34346 21.9997 4.17188 20.8281C3.00031 19.6566 3 17.7712 3 14V10C3 6.22876 3.00031 4.34345 4.17188 3.17188C5.34345 2.00031 7.22876 2 11 2H13ZM12 8.25C8.82436 8.25 6.25 10.8244 6.25 14C6.25 17.1756 8.82436 19.75 12 19.75C15.1756 19.75 17.75 17.1756 17.75 14C17.75 13.7807 17.7378 13.5644 17.7139 13.3516L17.7334 13.3379L17.6426 12.8906C17.1255 10.246 14.796 8.25 12 8.25ZM10.8574 12.9189C11.3372 12.8324 11.6274 12.8803 11.8301 12.9551C12.053 13.0373 12.2334 13.1712 12.5088 13.3848L12.5322 13.4033C12.7861 13.6005 13.1304 13.8677 13.5869 14.0361C14.078 14.2173 14.644 14.2678 15.3447 14.1416C15.5086 14.1121 15.6685 14.0876 15.8301 14.0625L15.8457 14.0605C15.9789 14.0399 16.1169 14.018 16.25 13.9941V14C16.25 16.3472 14.3472 18.25 12 18.25C9.79648 18.25 7.98505 16.5731 7.77148 14.4258C7.88713 14.3551 8.00224 14.2807 8.11523 14.208L8.23535 14.1309C8.46289 13.9839 8.69366 13.8352 8.94238 13.6885C9.52385 13.3453 10.1537 13.0457 10.8574 12.9189ZM8 5.25C7.58579 5.25 7.25 5.58579 7.25 6C7.25 6.41421 7.58579 6.75 8 6.75H16C16.4142 6.75 16.75 6.41421 16.75 6C16.75 5.58579 16.4142 5.25 16 5.25H8Z" fill="#1C274C"/>
</svg>
