<svg width="24" height="24" viewBox="0 0 24 24" fill="none" xmlns="http://www.w3.org/2000/svg">
<path d="M16.5645 1.25C17.1344 1.24998 17.6187 1.24967 18.0186 1.29102C18.4443 1.33504 18.8382 1.43137 19.21 1.66113C19.5814 1.89078 19.8426 2.19971 20.0723 2.56055C20.2881 2.89976 20.5049 3.33296 20.7598 3.84277L20.7764 3.87598C20.786 3.89535 20.7948 3.9154 20.8027 3.93555L22.2061 7.4834C22.3731 7.90559 22.5582 8.4327 22.6123 8.97168C22.6676 9.5229 22.5921 10.1545 22.1602 10.7021C21.8069 11.1502 21.3154 11.4865 20.75 11.6465V21.25H22C22.4142 21.25 22.75 21.5858 22.75 22C22.75 22.4142 22.4142 22.75 22 22.75H2C1.58579 22.75 1.25 22.4142 1.25 22C1.25 21.5858 1.58579 21.25 2 21.25H3.25V11.6465C2.68454 11.4864 2.1932 11.1501 1.83984 10.7021C1.408 10.1545 1.33145 9.52287 1.38672 8.97168C1.44083 8.43276 1.62597 7.90556 1.79297 7.4834L3.19727 3.93555C3.20524 3.91539 3.21394 3.89536 3.22363 3.87598L3.24023 3.84277C3.49511 3.33299 3.71092 2.89975 3.92676 2.56055C4.15648 2.19951 4.41847 1.89087 4.79004 1.66113C5.16181 1.43136 5.55564 1.33504 5.98145 1.29102C6.38135 1.24967 6.8656 1.24998 7.43555 1.25H16.5645ZM18 10.8877C17.4986 11.4187 16.7879 11.75 16 11.75C15.2121 11.75 14.5014 11.4187 14 10.8877C13.4986 11.4187 12.7879 11.75 12 11.75C11.2121 11.75 10.5014 11.4187 10 10.8877C9.49863 11.4187 8.78795 11.75 8 11.75C7.21206 11.75 6.50137 11.4187 6 10.8877C5.66407 11.2435 5.2341 11.5095 4.75 11.6465V21.25H8.75V18.4678C8.74998 18.0281 8.75011 17.6481 8.77832 17.3369C8.80818 17.0079 8.87448 16.682 9.05176 16.375C9.24921 16.0331 9.53308 15.7492 9.875 15.5518C10.1821 15.3745 10.5079 15.3081 10.8369 15.2783C11.1482 15.2501 11.528 15.25 11.9678 15.25H12.0322C12.472 15.25 12.8518 15.2501 13.1631 15.2783C13.4921 15.3081 13.8179 15.3745 14.125 15.5518C14.4669 15.7492 14.7508 16.0331 14.9482 16.375C15.1255 16.682 15.1919 17.0079 15.2217 17.3369C15.2499 17.6481 15.25 18.028 15.25 18.4678V21.25H19.25V11.6465C18.7659 11.5096 18.336 11.2434 18 10.8877ZM12 16.75C11.5189 16.75 11.2082 16.7511 10.9727 16.7725C10.7476 16.7929 10.6659 16.827 10.625 16.8506C10.511 16.9164 10.4164 17.011 10.3506 17.125C10.327 17.1659 10.2929 17.2476 10.2725 17.4727C10.2511 17.7082 10.25 18.0189 10.25 18.5V21.25H13.75V18.5C13.75 18.0189 13.7489 17.7082 13.7275 17.4727C13.7071 17.2476 13.673 17.1659 13.6494 17.125C13.5836 17.011 13.489 16.9164 13.375 16.8506C13.3341 16.827 13.2524 16.7929 13.0273 16.7725C12.7918 16.7511 12.4811 16.75 12 16.75ZM7.47168 2.75C6.85517 2.75 6.44936 2.75079 6.13574 2.7832C5.83952 2.81383 5.69062 2.86766 5.5791 2.93652C5.46757 3.00545 5.35236 3.11479 5.19238 3.36621C5.02612 3.62756 4.84772 3.98239 4.58008 4.51758L3.18848 8.03516C3.03121 8.43269 2.91224 8.79899 2.87988 9.12109C2.84877 9.43089 2.90365 9.62898 3.01758 9.77344C3.24769 10.0651 3.60215 10.25 4 10.25C4.69032 10.25 5.25 9.69033 5.25 9C5.25 8.58579 5.58579 8.25 6 8.25C6.41418 8.25005 6.75 8.58582 6.75 9C6.75 9.69036 7.30965 10.25 8 10.25C8.69032 10.25 9.25 9.69033 9.25 9C9.25 8.58579 9.58579 8.25 10 8.25C10.4141 8.25005 10.75 8.58582 10.75 9C10.75 9.69036 11.3097 10.25 12 10.25C12.6904 10.2499 13.25 9.69033 13.25 9C13.25 8.58579 13.5858 8.25 14 8.25C14.4142 8.25005 14.75 8.58582 14.75 9C14.75 9.69036 15.3097 10.25 16 10.25C16.6904 10.2499 17.25 9.69033 17.25 9C17.25 8.58579 17.5858 8.25 18 8.25C18.4142 8.25005 18.75 8.58582 18.75 9C18.75 9.69036 19.3097 10.25 20 10.25C20.3979 10.25 20.7523 10.0652 20.9824 9.77344C21.0963 9.62898 21.1512 9.43089 21.1201 9.12109C21.0878 8.799 20.9688 8.4327 20.8115 8.03516L19.4199 4.51758C19.1522 3.98223 18.973 3.62758 18.8066 3.36621C18.6468 3.11489 18.5324 3.00544 18.4209 2.93652C18.3094 2.86764 18.1605 2.81384 17.8643 2.7832C17.5506 2.75077 17.1441 2.75 16.5273 2.75H7.47168Z" fill="#1C274C"/>
</svg>
