<svg width="24" height="24" viewBox="0 0 24 24" fill="none" xmlns="http://www.w3.org/2000/svg">
<path d="M6.5 13C8.62132 13 9.6818 13.0002 10.3408 13.6592C10.9998 14.3182 11 15.3787 11 17.5C11 19.6213 10.9998 20.6818 10.3408 21.3408C9.6818 21.9998 8.62132 22 6.5 22C4.37868 22 3.31819 21.9998 2.65918 21.3408C2.00017 20.6818 2 19.6213 2 17.5C2 15.3787 2.00017 14.3182 2.65918 13.6592C3.31819 13.0002 4.37868 13 6.5 13ZM17.5 13C19.6213 13 20.6818 13.0002 21.3408 13.6592C21.9998 14.3182 22 15.3787 22 17.5C22 19.6213 21.9998 20.6818 21.3408 21.3408C20.6818 21.9998 19.6213 22 17.5 22C15.3787 22 14.3182 21.9998 13.6592 21.3408C13.0002 20.6818 13 19.6213 13 17.5C13 15.3787 13.0002 14.3182 13.6592 13.6592C14.3182 13.0002 15.3787 13 17.5 13ZM6.5 2C8.62131 2 9.6818 2.00017 10.3408 2.65918C10.9998 3.31819 11 4.37868 11 6.5C11 8.62132 10.9998 9.6818 10.3408 10.3408C9.6818 10.9998 8.62132 11 6.5 11C4.37868 11 3.31819 10.9998 2.65918 10.3408C2.00017 9.6818 2 8.62131 2 6.5C2 4.37868 2.00017 3.31819 2.65918 2.65918C3.31819 2.00017 4.37868 2 6.5 2ZM17.5 2.75C17.9142 2.75 18.25 3.08579 18.25 3.5V5.75H20.5C20.9142 5.75 21.25 6.08579 21.25 6.5C21.25 6.91421 20.9142 7.25 20.5 7.25H18.25V9.5C18.25 9.91421 17.9142 10.25 17.5 10.25C17.0858 10.25 16.75 9.91421 16.75 9.5V7.25H14.5C14.0858 7.25 13.75 6.91421 13.75 6.5C13.75 6.08579 14.0858 5.75 14.5 5.75H16.75V3.5C16.75 3.08579 17.0858 2.75 17.5 2.75Z" fill="#1C274C"/>
</svg>
