<svg width="24" height="24" viewBox="0 0 24 24" fill="none" xmlns="http://www.w3.org/2000/svg">
<path d="M12 1.25C12.4142 1.25 12.75 1.58579 12.75 2C12.75 2.41421 12.4142 2.75 12 2.75C9.62178 2.75 7.91326 2.75198 6.61328 2.92676C5.33508 3.09865 4.56472 3.42551 3.99512 3.99512C3.42551 4.56472 3.09865 5.33508 2.92676 6.61328C2.75198 7.91326 2.75 9.62178 2.75 12C2.75 14.3782 2.75198 16.0867 2.92676 17.3867C3.09865 18.6649 3.42551 19.4352 3.99512 20.0049C4.56472 20.5745 5.33508 20.9014 6.61328 21.0732C7.91326 21.248 9.62178 21.25 12 21.25C14.3782 21.25 16.0867 21.248 17.3867 21.0732C18.6649 20.9014 19.4352 20.5745 20.0049 20.0049C20.5745 19.4352 20.9014 18.6649 21.0732 17.3867C21.248 16.0867 21.25 14.3782 21.25 12C21.25 11.5858 21.5858 11.25 22 11.25C22.4142 11.25 22.75 11.5858 22.75 12V12.0576C22.75 14.3657 22.7502 16.1745 22.5605 17.5859C22.3662 19.0306 21.9602 20.1706 21.0654 21.0654C20.1706 21.9602 19.0306 22.3662 17.5859 22.5605C16.1745 22.7502 14.3657 22.75 12.0576 22.75H11.9424C9.63432 22.75 7.82544 22.7502 6.41406 22.5605C4.96932 22.3662 3.82938 21.9602 2.93457 21.0654C2.03977 20.1706 1.63369 19.0306 1.43945 17.5859C1.24974 16.1745 1.24999 14.3657 1.25 12.0576V11.9424C1.24999 9.63433 1.24974 7.82544 1.43945 6.41406C1.63369 4.96932 2.03976 3.82938 2.93457 2.93457C3.82938 2.03976 4.96932 1.63369 6.41406 1.43945C7.82544 1.24974 9.63433 1.24999 11.9424 1.25H12ZM20.4697 2.46973C20.7626 2.17684 21.2374 2.17684 21.5303 2.46973C21.8232 2.76261 21.8232 3.23739 21.5303 3.53027L13.8105 11.25H17.3438C17.7579 11.25 18.0938 11.5858 18.0938 12C18.0937 12.4142 17.7579 12.75 17.3438 12.75H12C11.5858 12.75 11.25 12.4142 11.25 12V6.65625C11.25 6.24204 11.5858 5.90625 12 5.90625C12.4142 5.90625 12.75 6.24204 12.75 6.65625V10.1895L20.4697 2.46973Z" fill="#1C274C"/>
</svg>
