<svg width="24" height="24" viewBox="0 0 24 24" fill="none" xmlns="http://www.w3.org/2000/svg">
<path d="M17 21.25C17.4142 21.25 17.75 21.5858 17.75 22C17.75 22.4142 17.4142 22.75 17 22.75H7C6.58579 22.75 6.25 22.4142 6.25 22C6.25 21.5858 6.58579 21.25 7 21.25H17ZM12 5C14.8089 5 16.2138 4.99971 17.2227 5.67383C17.6593 5.96563 18.0343 6.34068 18.3262 6.77734C19.0003 7.78623 19 9.19108 19 12C19 14.8089 19.0003 16.2138 18.3262 17.2227C18.0343 17.6593 17.6593 18.0343 17.2227 18.3262C16.2138 19.0003 14.8089 19 12 19C9.19108 19 7.78623 19.0003 6.77734 18.3262C6.34068 18.0343 5.96563 17.6593 5.67383 17.2227C4.99971 16.2138 5 14.8089 5 12C5 9.19108 4.99971 7.78623 5.67383 6.77734C5.96563 6.34068 6.34068 5.96563 6.77734 5.67383C7.78623 4.99971 9.19108 5 12 5ZM13.374 8.45703C13.0742 8.17162 12.6002 8.18291 12.3145 8.48242L9.45703 11.4824C9.25023 11.6995 9.19262 12.0193 9.31055 12.2949C9.42874 12.5707 9.69998 12.75 10 12.75H12.25L10.5996 14.4824C10.3139 14.7823 10.3261 15.2573 10.626 15.543C10.9258 15.8284 11.3998 15.8171 11.6855 15.5176L14.543 12.5176C14.7498 12.3005 14.8073 11.9807 14.6895 11.7051C14.5713 11.4293 14.3 11.25 14 11.25H11.75L13.4004 9.51758C13.6861 9.21763 13.6739 8.74269 13.374 8.45703ZM17 1.25C17.4142 1.25 17.75 1.58579 17.75 2C17.75 2.41421 17.4142 2.75 17 2.75H7C6.58579 2.75 6.25 2.41421 6.25 2C6.25 1.58579 6.58579 1.25 7 1.25H17Z" fill="#1C274C"/>
</svg>
