<svg width="24" height="24" viewBox="0 0 24 24" fill="none" xmlns="http://www.w3.org/2000/svg">
<path d="M20.0449 2.25C20.4777 2.24995 20.8745 2.24957 21.1973 2.29297C21.5528 2.34076 21.9283 2.45368 22.2373 2.7627C22.5464 3.07171 22.6592 3.44727 22.707 3.80273C22.7504 4.1255 22.7501 4.52234 22.75 4.95508V5.04492C22.7501 5.47768 22.7504 5.8745 22.707 6.19727C22.6592 6.55274 22.5464 6.92829 22.2373 7.2373C21.9436 7.53107 21.5896 7.64741 21.25 7.69922V13.0566C21.25 14.8943 21.2498 16.3501 21.0967 17.4893C20.939 18.6616 20.6066 19.6101 19.8584 20.3584C19.1101 21.1066 18.1616 21.439 16.9893 21.5967C15.8501 21.7498 14.3943 21.75 12.5566 21.75H11.4434C9.60571 21.75 8.14991 21.7498 7.01074 21.5967C5.83845 21.439 4.8899 21.1066 4.1416 20.3584C3.39332 19.6101 3.06096 18.6616 2.90332 17.4893C2.75017 16.3501 2.74998 14.8943 2.75 13.0566V7.69922C2.41037 7.64741 2.05646 7.53107 1.7627 7.2373C1.45369 6.92829 1.34076 6.55274 1.29297 6.19727C1.24957 5.87449 1.24995 5.47767 1.25 5.04492V4.95508C1.24995 4.52233 1.24958 4.1255 1.29297 3.80273C1.34076 3.44726 1.45368 3.07171 1.7627 2.7627C2.07171 2.45368 2.44726 2.34076 2.80273 2.29297C3.1255 2.24958 3.52233 2.24995 3.95508 2.25H20.0449ZM4.25 13C4.25 14.9067 4.2515 16.2614 4.38965 17.2891C4.52491 18.2951 4.77895 18.8747 5.20215 19.2979C5.62536 19.7211 6.20485 19.9752 7.21094 20.1104C8.23859 20.2485 9.59325 20.25 11.5 20.25H12.5C14.4067 20.25 15.7614 20.2485 16.7891 20.1104C17.7951 19.9752 18.3747 19.7211 18.7979 19.2979C19.2211 18.8747 19.4752 18.2951 19.6104 17.2891C19.7485 16.2614 19.75 14.9067 19.75 13V7.75H4.25V13ZM13.5215 9.75C13.7357 9.74998 13.9333 9.75044 14.0986 9.76172C14.2762 9.77385 14.4716 9.80065 14.6699 9.88281C15.0987 10.0604 15.4396 10.4013 15.6172 10.8301C15.6993 11.0284 15.727 11.2239 15.7393 11.4014C15.7505 11.5667 15.75 11.7643 15.75 11.9785V12.0215C15.75 12.2357 15.7505 12.4333 15.7393 12.5986C15.727 12.7762 15.6993 12.9716 15.6172 13.1699C15.4396 13.5987 15.0987 13.9396 14.6699 14.1172C14.4716 14.1993 14.2762 14.227 14.0986 14.2393C13.9333 14.2505 13.7357 14.25 13.5215 14.25H10.4785C10.2643 14.25 10.0667 14.2505 9.90137 14.2393C9.72383 14.227 9.52843 14.1993 9.33008 14.1172C8.90132 13.9396 8.56042 13.5987 8.38281 13.1699C8.30065 12.9716 8.27385 12.7762 8.26172 12.5986C8.25044 12.4333 8.24998 12.2357 8.25 12.0215V11.9785C8.24998 11.7643 8.25044 11.5667 8.26172 11.4014C8.27386 11.2239 8.30065 11.0284 8.38281 10.8301C8.56042 10.4013 8.90132 10.0604 9.33008 9.88281C9.5284 9.80065 9.72384 9.77386 9.90137 9.76172C10.0667 9.75044 10.2643 9.74998 10.4785 9.75H13.5215ZM10.0039 11.2578C9.93708 11.2623 9.90873 11.2686 9.90137 11.2705C9.84256 11.2958 9.79578 11.3426 9.77051 11.4014C9.76863 11.4088 9.76237 11.4371 9.75781 11.5039C9.75044 11.6119 9.75 11.7568 9.75 12C9.75 12.2432 9.75044 12.3881 9.75781 12.4961C9.76237 12.5628 9.76863 12.5912 9.77051 12.5986C9.79578 12.6574 9.84256 12.7042 9.90137 12.7295C9.90873 12.7314 9.93708 12.7377 10.0039 12.7422C10.1119 12.7496 10.2568 12.75 10.5 12.75H13.5C13.7432 12.75 13.8881 12.7496 13.9961 12.7422C14.0628 12.7377 14.0912 12.7314 14.0986 12.7295C14.1574 12.7042 14.2042 12.6574 14.2295 12.5986C14.2314 12.5912 14.2377 12.5628 14.2422 12.4961C14.2496 12.3881 14.25 12.2432 14.25 12C14.25 11.7568 14.2496 11.6119 14.2422 11.5039C14.2377 11.4371 14.2314 11.4088 14.2295 11.4014C14.2042 11.3426 14.1574 11.2958 14.0986 11.2705C14.0912 11.2686 14.0628 11.2623 13.9961 11.2578C13.8881 11.2504 13.7432 11.25 13.5 11.25H10.5C10.2568 11.25 10.1119 11.2504 10.0039 11.2578ZM4 3.75C3.50756 3.75 3.21363 3.75197 3.00293 3.78027C2.90637 3.79325 2.85772 3.80842 2.83594 3.81738C2.83115 3.81935 2.82812 3.82126 2.82617 3.82227L2.82324 3.82324L2.82227 3.82617C2.82126 3.82812 2.81935 3.83115 2.81738 3.83594C2.80842 3.85772 2.79325 3.90637 2.78027 4.00293C2.75197 4.21363 2.75 4.50756 2.75 5C2.75 5.49242 2.75197 5.78637 2.78027 5.99707C2.79325 6.09363 2.80842 6.14228 2.81738 6.16406C2.81944 6.16906 2.82126 6.17288 2.82227 6.1748L2.82324 6.17676L2.82617 6.17773C2.82811 6.17874 2.83114 6.18063 2.83594 6.18262C2.85772 6.19158 2.90637 6.20675 3.00293 6.21973C3.21363 6.24803 3.50756 6.25 4 6.25H20C20.4925 6.25 20.7864 6.24803 20.9971 6.21973C21.0937 6.20675 21.1424 6.19158 21.1641 6.18262C21.1689 6.18063 21.1719 6.17874 21.1738 6.17773L21.1768 6.17676L21.1777 6.1748C21.1788 6.17287 21.1806 6.16907 21.1826 6.16406C21.1916 6.14228 21.2067 6.09363 21.2197 5.99707C21.248 5.78637 21.25 5.49243 21.25 5C21.25 4.50755 21.248 4.21363 21.2197 4.00293C21.2067 3.90637 21.1916 3.85772 21.1826 3.83594C21.1807 3.83113 21.1788 3.82812 21.1777 3.82617L21.1768 3.82324L21.1738 3.82227C21.1719 3.82126 21.1689 3.81935 21.1641 3.81738C21.1424 3.80842 21.0937 3.79325 20.9971 3.78027C20.7864 3.75197 20.4925 3.75 20 3.75H4Z" fill="#48465C"/>
</svg>
