<svg width="24" height="24" viewBox="0 0 24 24" fill="none" xmlns="http://www.w3.org/2000/svg">
<path d="M17.4697 14.4697C17.7626 14.1768 18.2374 14.1768 18.5303 14.4697L21.0303 16.9697C21.3232 17.2626 21.3232 17.7374 21.0303 18.0303C20.7374 18.3232 20.2626 18.3232 19.9697 18.0303L18.75 16.8105V22C18.75 22.4142 18.4142 22.75 18 22.75C17.5858 22.75 17.25 22.4142 17.25 22V16.8105L16.0303 18.0303C15.7374 18.3232 15.2626 18.3232 14.9697 18.0303C14.6768 17.7374 14.6768 17.2626 14.9697 16.9697L17.4697 14.4697ZM12 2C17.5228 2 22 6.47715 22 12C22 13.1453 21.8076 14.2457 21.4531 15.2705L19.5908 13.4092C18.7121 12.5305 17.2879 12.5305 16.4092 13.4092L13.9092 15.9092C13.0305 16.7879 13.0305 18.2121 13.9092 19.0908C14.4122 19.5938 15.094 19.8092 15.75 19.7363V21.2734C14.592 21.7422 13.3261 22 12 22C6.47715 22 2 17.5228 2 12C2 6.47715 6.47715 2 12 2ZM13.2031 6.87988C12.3966 6.78581 11.631 7.2591 11.3545 8.02246C11.2866 8.21009 11.2675 8.40024 11.2588 8.56445C11.2522 8.68905 11.2503 8.8358 11.25 9V12.5498C10.875 12.3581 10.4501 12.25 10 12.25C8.48129 12.25 7.25011 13.4813 7.25 15C7.25 16.5188 8.48122 17.75 10 17.75C11.5188 17.75 12.75 16.5188 12.75 15V11.2139L13.7393 11.709C13.9419 11.8103 14.12 11.8991 14.2686 11.9639C14.4194 12.0296 14.5986 12.0969 14.7969 12.1201C15.6033 12.2142 16.3689 11.7417 16.6455 10.9785C16.7135 10.7907 16.7325 10.5998 16.7412 10.4355C16.7497 10.2736 16.75 10.0744 16.75 9.84766V9.78906C16.7503 9.62716 16.7505 9.45476 16.7188 9.28906C16.6379 8.86684 16.404 8.48963 16.0625 8.22852C15.9285 8.12605 15.7748 8.04876 15.6299 7.97656L14.2607 7.29199C14.0582 7.19069 13.8799 7.10189 13.7314 7.03711C13.5806 6.97137 13.4014 6.90307 13.2031 6.87988ZM10 13.75C10.6904 13.75 11.25 14.3097 11.25 15C11.25 15.6904 10.6904 16.25 10 16.25C9.30964 16.25 8.75 15.6904 8.75 15C8.75 14.3097 9.30964 13.75 10 13.75ZM13.1318 8.41211C13.2398 8.45919 13.3822 8.52948 13.6064 8.6416L14.9229 9.2998C15.0188 9.34771 15.0737 9.37531 15.1143 9.39746C15.1396 9.41129 15.1498 9.41818 15.1523 9.41992C15.2006 9.45702 15.2335 9.51055 15.2451 9.57031C15.2455 9.57337 15.247 9.58627 15.248 9.61523C15.2497 9.66142 15.25 9.7224 15.25 9.8291C15.25 10.0799 15.2493 10.2388 15.2432 10.3564C15.2392 10.4324 15.2339 10.4663 15.2324 10.4746C15.1917 10.577 15.0884 10.6404 14.9785 10.6309C14.9704 10.6284 14.9378 10.6192 14.8682 10.5889C14.7602 10.5418 14.618 10.4706 14.3936 10.3584L13.0771 9.7002C12.9812 9.65229 12.9263 9.6247 12.8857 9.60254C12.8605 9.58876 12.8501 9.58181 12.8477 9.58008C12.7994 9.54291 12.7665 9.4895 12.7549 9.42969C12.7545 9.42664 12.753 9.41447 12.752 9.38574C12.7503 9.33949 12.75 9.27803 12.75 9.1709C12.75 8.91996 12.7506 8.7612 12.7568 8.64355C12.7608 8.5686 12.766 8.53522 12.7676 8.52637C12.8083 8.4238 12.9115 8.35964 13.0215 8.36914C13.0295 8.37149 13.0619 8.38167 13.1318 8.41211Z" fill="#1C274C"/>
</svg>
