<svg width="24" height="24" viewBox="0 0 24 24" fill="none" xmlns="http://www.w3.org/2000/svg">
<path d="M17 21.25C17.4142 21.25 17.75 21.5858 17.75 22C17.75 22.4142 17.4142 22.75 17 22.75H7C6.58579 22.75 6.25 22.4142 6.25 22C6.25 21.5858 6.58579 21.25 7 21.25H17ZM12.042 4.25C13.411 4.24999 14.496 4.24976 15.3623 4.33789C16.2498 4.42818 16.9904 4.61773 17.6387 5.05078C18.1573 5.39733 18.6026 5.84268 18.9492 6.36133C19.3822 7.00948 19.5718 7.75019 19.6621 8.6377C19.7502 9.50397 19.75 10.589 19.75 11.958V12.042C19.75 13.411 19.7502 14.496 19.6621 15.3623C19.5718 16.2498 19.3822 16.9904 18.9492 17.6387C18.6026 18.1573 18.1573 18.6026 17.6387 18.9492C16.9904 19.3822 16.2498 19.5718 15.3623 19.6621C14.496 19.7502 13.411 19.75 12.042 19.75H11.958C10.589 19.75 9.50398 19.7502 8.6377 19.6621C7.75019 19.5718 7.00948 19.3822 6.36133 18.9492C5.84268 18.6026 5.39733 18.1573 5.05078 17.6387C4.61773 16.9904 4.42818 16.2498 4.33789 15.3623C4.24976 14.496 4.24999 13.411 4.25 12.042V11.958C4.24999 10.589 4.24976 9.50397 4.33789 8.6377C4.42819 7.75019 4.61772 7.00948 5.05078 6.36133C5.39733 5.84268 5.84268 5.39733 6.36133 5.05078C7.00948 4.61772 7.75019 4.42819 8.6377 4.33789C9.50397 4.24976 10.589 4.24999 11.958 4.25H12.042ZM12 5.75C10.5801 5.75 9.57157 5.75061 8.79004 5.83008C8.021 5.90832 7.55501 6.05686 7.19434 6.29785C6.83955 6.53494 6.53494 6.83955 6.29785 7.19434C6.05686 7.55501 5.90832 8.021 5.83008 8.79004C5.75061 9.57157 5.75 10.5801 5.75 12C5.75 13.4199 5.75061 14.4285 5.83008 15.21C5.90832 15.9791 6.05686 16.445 6.29785 16.8057C6.53494 17.1605 6.83955 17.4651 7.19434 17.7021C7.55501 17.9431 8.021 18.0917 8.79004 18.1699C9.57157 18.2494 10.5801 18.25 12 18.25C13.4199 18.25 14.4285 18.2494 15.21 18.1699C15.9791 18.0917 16.445 17.9431 16.8057 17.7021C17.1605 17.4651 17.4651 17.1605 17.7021 16.8057C17.9431 16.445 18.0917 15.9791 18.1699 15.21C18.2494 14.4285 18.25 13.4199 18.25 12C18.25 10.5801 18.2494 9.57157 18.1699 8.79004C18.0917 8.021 17.9431 7.55501 17.7021 7.19434C17.4651 6.83955 17.1605 6.53494 16.8057 6.29785C16.445 6.05686 15.9791 5.90832 15.21 5.83008C14.4285 5.75061 13.4199 5.75 12 5.75ZM12.3145 8.48242C12.6002 8.18291 13.0742 8.17162 13.374 8.45703C13.6739 8.74269 13.6861 9.21763 13.4004 9.51758L11.75 11.25H14C14.3 11.25 14.5713 11.4293 14.6895 11.7051C14.8073 11.9807 14.7498 12.3005 14.543 12.5176L11.6855 15.5176C11.3998 15.8171 10.9258 15.8284 10.626 15.543C10.3261 15.2573 10.3139 14.7823 10.5996 14.4824L12.25 12.75H10C9.69998 12.75 9.42874 12.5707 9.31055 12.2949C9.19262 12.0193 9.25023 11.6995 9.45703 11.4824L12.3145 8.48242ZM17 1.25C17.4142 1.25 17.75 1.58579 17.75 2C17.75 2.41421 17.4142 2.75 17 2.75H7C6.58579 2.75 6.25 2.41421 6.25 2C6.25 1.58579 6.58579 1.25 7 1.25H17Z" fill="#1C274C"/>
</svg>
