<svg width="24" height="24" viewBox="0 0 24 24" fill="none" xmlns="http://www.w3.org/2000/svg">
<path d="M12 2C15.7712 2 17.6566 2.00031 18.8281 3.17188C19.9997 4.34346 20 6.22878 20 10V14C20 17.7712 19.9997 19.6566 18.8281 20.8281C17.6566 21.9997 15.7712 22 12 22C8.22878 22 6.34346 21.9997 5.17188 20.8281C4.00031 19.6566 4 17.7712 4 14V10C4 6.22876 4.00031 4.34345 5.17188 3.17188C6.34345 2.00031 8.22876 2 12 2ZM12 11.75C9.92893 11.75 8.25 13.4289 8.25 15.5C8.25 17.5711 9.92893 19.25 12 19.25C14.0711 19.25 15.75 17.5711 15.75 15.5C15.75 13.4289 14.0711 11.75 12 11.75ZM12 13.25C13.2426 13.25 14.25 14.2574 14.25 15.5C14.25 16.7426 13.2426 17.75 12 17.75C10.7574 17.75 9.75 16.7426 9.75 15.5C9.75 14.2574 10.7574 13.25 12 13.25ZM12 4.75C10.4812 4.75 9.25 5.98122 9.25 7.5C9.25 9.01878 10.4812 10.25 12 10.25C13.5188 10.25 14.75 9.01878 14.75 7.5C14.75 5.98122 13.5188 4.75 12 4.75ZM12 6.25C12.6904 6.25 13.25 6.80964 13.25 7.5C13.25 8.19036 12.6904 8.75 12 8.75C11.3096 8.75 10.75 8.19036 10.75 7.5C10.75 6.80964 11.3096 6.25 12 6.25Z" fill="#1C274C"/>
</svg>
