<svg width="24" height="24" viewBox="0 0 24 24" fill="none" xmlns="http://www.w3.org/2000/svg">
<path d="M21.6224 8.85193C21.9802 8.64357 22.4392 8.76479 22.6478 9.12244C22.8564 9.4801 22.7357 9.93902 22.3783 10.1478C16.6665 13.4796 15.2504 18.8593 15.2504 22.0004C15.2502 22.4143 14.9144 22.7502 14.5004 22.7504C14.0863 22.7504 13.7505 22.4144 13.7504 22.0004C13.7504 18.4749 15.3342 12.52 21.6224 8.85193ZM10.2787 11.7943C10.3924 11.3962 10.8073 11.1652 11.2054 11.2787C11.6037 11.3925 11.8349 11.8081 11.7211 12.2064C11.3547 13.489 11.2667 15.3498 11.3246 17.2142C11.3819 19.0599 11.579 20.8296 11.7416 21.8861C11.8044 22.2955 11.523 22.6786 11.1136 22.7416C10.7045 22.8044 10.3213 22.5238 10.2582 22.1146C10.0874 21.0044 9.88494 19.1736 9.82556 17.2611C9.76677 15.3674 9.84523 13.3116 10.2787 11.7943ZM5.13318 13.765C5.11046 13.6574 5.28183 13.5588 5.36365 13.6322C5.6014 13.8457 5.92312 14.0889 6.22302 14.1693C6.52287 14.2494 6.92224 14.1992 7.23474 14.1332C7.3423 14.1105 7.44101 14.2819 7.36755 14.3636C7.15404 14.6014 6.91079 14.9223 6.83044 15.222C6.75012 15.5218 6.80057 15.9211 6.86658 16.2338C6.88928 16.3413 6.71798 16.4408 6.63611 16.3676C6.39843 16.1541 6.07753 15.9108 5.77771 15.8304C5.47781 15.75 5.07768 15.8005 4.76501 15.8666C4.65761 15.8887 4.55883 15.7168 4.6322 15.6351C4.8457 15.3975 5.08897 15.0766 5.16931 14.7767C5.24957 14.4769 5.19921 14.0776 5.13318 13.765ZM11.5209 2.00427C11.9018 2.04357 12.1175 2.50938 12.5492 3.43982L12.6615 3.68005C12.784 3.94412 12.8452 4.07637 12.9506 4.17029C13.0562 4.26424 13.1943 4.30967 13.4701 4.39978L13.7211 4.48181C14.6914 4.79892 15.1767 4.95771 15.2621 5.33337C15.3474 5.70896 14.9763 6.05275 14.2347 6.7406L14.0433 6.91833C13.8325 7.11382 13.7272 7.21248 13.6722 7.34119C13.6175 7.46981 13.6189 7.61473 13.6224 7.90466L13.6254 8.16931C13.6377 9.19036 13.6439 9.70107 13.3158 9.89392C12.9878 10.0866 12.5425 9.83364 11.6527 9.32849L11.4222 9.19763C11.1697 9.05423 11.0431 8.98252 10.9037 8.96814C10.7642 8.95377 10.6273 8.99808 10.3539 9.08728L10.1049 9.16931C9.14224 9.48336 8.66063 9.63963 8.37244 9.38318C8.08462 9.12663 8.17992 8.6262 8.37146 7.62634L8.42126 7.36853C8.47571 7.08434 8.50333 6.94167 8.47205 6.80408C8.44074 6.6665 8.35451 6.54879 8.18201 6.31384L8.02478 6.09998C7.41774 5.27318 7.11359 4.85945 7.26306 4.50818C7.41299 4.15682 7.9177 4.0996 8.92615 3.98669L9.18689 3.9574C9.47324 3.92534 9.61658 3.90975 9.73669 3.83923C9.85686 3.76858 9.94089 3.6509 10.1078 3.41638L10.2592 3.20349C10.8462 2.37851 11.1403 1.96532 11.5209 2.00427Z" fill="#1C274C"/>
</svg>
