<svg width="24" height="24" viewBox="0 0 24 24" fill="none" xmlns="http://www.w3.org/2000/svg">
<path d="M14.5 1.25C15.6611 1.25 16.6169 2.12961 16.7373 3.25879C17.5005 3.27433 18.1603 3.31351 18.7236 3.41699C19.4816 3.55621 20.1264 3.82184 20.6514 4.34668C21.2533 4.94859 21.5128 5.70635 21.6338 6.60645C21.7503 7.47341 21.75 8.57578 21.75 9.94336V16.0527C21.75 17.4201 21.7502 18.5227 21.6338 19.3896C21.5128 20.2897 21.2532 21.0475 20.6514 21.6494C20.0494 22.2513 19.2917 22.5108 18.3916 22.6318C17.5246 22.7484 16.4222 22.748 15.0547 22.748H8.94531C7.57781 22.748 6.47534 22.7484 5.6084 22.6318C4.70829 22.5108 3.95055 22.2513 3.34863 21.6494C2.74679 21.0475 2.48722 20.2897 2.36621 19.3896C2.2497 18.5228 2.24998 17.4201 2.25 16.0527V9.94336C2.24998 8.57578 2.24965 7.47341 2.36621 6.60645C2.48723 5.70635 2.74672 4.94859 3.34863 4.34668C3.87354 3.82182 4.51843 3.55621 5.27637 3.41699C5.83975 3.31351 6.4996 3.27433 7.2627 3.25879C7.38308 2.12961 8.33887 1.25 9.5 1.25H14.5ZM16.7354 4.75879C16.6069 5.87938 15.655 6.75 14.5 6.75H9.5C8.345 6.75 7.39315 5.87938 7.26465 4.75879C6.54662 4.77413 5.99282 4.81066 5.54688 4.89258C4.98044 4.99668 4.65255 5.1639 4.40918 5.40723C4.13242 5.68399 3.95217 6.07287 3.85352 6.80664C3.75199 7.56193 3.75 8.56288 3.75 9.99805V15.998C3.75 17.4334 3.75196 18.4351 3.85352 19.1904C3.95216 19.9239 4.13254 20.3121 4.40918 20.5889C4.68594 20.8656 5.07482 21.0469 5.80859 21.1455C6.56388 21.247 7.56492 21.248 9 21.248H15C16.4354 21.248 17.437 21.2471 18.1924 21.1455C18.9259 21.0469 19.3141 20.8655 19.5908 20.5889C19.8675 20.3121 20.0478 19.9239 20.1465 19.1904C20.248 18.4351 20.25 17.4334 20.25 15.998V9.99805C20.25 8.56288 20.248 7.56193 20.1465 6.80664C20.0478 6.07287 19.8676 5.68399 19.5908 5.40723C19.3474 5.1639 19.0196 4.99668 18.4531 4.89258C18.0072 4.81066 17.4534 4.77413 16.7354 4.75879ZM12 8.25C12.4142 8.25 12.75 8.58579 12.75 9V12.25H16C16.4142 12.25 16.75 12.5858 16.75 13C16.75 13.4142 16.4142 13.75 16 13.75H12.75V17C12.75 17.4142 12.4142 17.75 12 17.75C11.5858 17.75 11.25 17.4142 11.25 17V13.75H8C7.58579 13.75 7.25 13.4142 7.25 13C7.25 12.5858 7.58579 12.25 8 12.25H11.25V9C11.25 8.58579 11.5858 8.25 12 8.25ZM9.5 2.75C9.08579 2.75 8.75 3.08579 8.75 3.5V4.5C8.75 4.91421 9.08579 5.25 9.5 5.25H14.5C14.9142 5.25 15.25 4.91421 15.25 4.5V3.5C15.25 3.08579 14.9142 2.75 14.5 2.75H9.5Z" fill="#48465C"/>
</svg>
