<svg width="24" height="24" viewBox="0 0 24 24" fill="none" xmlns="http://www.w3.org/2000/svg">
<path d="M12 7C17.4208 7 20.2294 8.83776 21.3701 9.85645C21.8159 10.2546 21.9999 10.8311 22 11.418V13.543C22 14.7267 20.9103 15.6334 19.7002 15.4561L17.7002 15.1621C16.7226 15.0187 16 14.2063 16 13.25V12.8613C15.9997 12.8348 15.9631 11.3965 12 11.3965C8.0369 11.3965 8.00034 12.8348 8 12.8613V13.4785C7.99986 14.3306 7.42318 15.0819 6.58008 15.3291L4.58008 15.916C3.29577 16.2924 2.0001 15.3624 2 14.0645V12.1416C2 11.6528 2.12448 11.1705 2.44043 10.7891C3.43987 9.58285 6.25141 7 12 7Z" fill="#1C274C"/>
</svg>
