<svg width="24" height="24" viewBox="0 0 24 24" fill="none" xmlns="http://www.w3.org/2000/svg">
<path d="M6 2C8.20914 2 10 3.79086 10 6V18C10 20.2091 8.20914 22 6 22C3.79086 22 2 20.2091 2 18V6C2 3.79086 3.79086 2 6 2ZM17.8994 14C20.1086 14 21.8994 15.7909 21.8994 18C21.8994 20.2091 20.1086 22 17.8994 22H12.79C12.0779 22 11.5002 21.3938 11.5 20.6816C11.5 20.3394 11.6359 20.0398 11.8779 19.7979L17.6797 14H17.8994ZM6 17C5.44772 17 5 17.4477 5 18C5 18.5523 5.44772 19 6 19C6.55228 19 7 18.5523 7 18C7 17.4477 6.55228 17 6 17ZM13.2842 4.95898C14.8627 3.38051 17.4215 3.38051 19 4.95898C20.5551 6.51406 20.5816 9.02677 19.0596 10.6143L13.2217 16.7041C12.4919 17.4653 12.1271 17.8457 11.8135 17.7197C11.5001 17.5937 11.5 17.0663 11.5 16.0117V7.77344C11.5013 7.11358 11.7638 6.48109 12.2295 6.01367L13.2842 4.95898Z" fill="#1C274C"/>
</svg>
