<svg width="24" height="24" viewBox="0 0 24 24" fill="none" xmlns="http://www.w3.org/2000/svg">
<path d="M10 6C11.0254 6 12.0063 6.41067 12.7314 7.13574L16.8643 11.2686C17.5894 11.9937 18 12.9746 18 14C18 17.7712 17.9997 19.6566 16.8281 20.8281C15.6566 21.9997 13.7712 22 10 22C6.22878 22 4.34346 21.9997 3.17188 20.8281C2.00031 19.6566 2 17.7712 2 14C2 10.2288 2.00031 8.34345 3.17188 7.17188C4.34345 6.00031 6.22876 6 10 6ZM9 14C8.0572 14 7.58587 14.0001 7.29297 14.293C7.00008 14.5859 7 15.0572 7 16V17C7 17.9428 7.00008 18.4141 7.29297 18.707C7.58587 18.9999 8.0572 19 9 19H9.5V14H9ZM10.5 17V19H11C11.9428 19 12.4141 18.9999 12.707 18.707C12.9999 18.4141 13 17.9428 13 17H10.5ZM14 2C15.0254 2.00003 16.0064 2.4107 16.7314 3.13574L20.8643 7.26855C21.5893 7.99362 22 8.9746 22 10C22 13.7711 21.9997 15.6566 20.8281 16.8281C20.4503 17.206 19.9983 17.4623 19.4326 17.6357C19.4998 16.6289 19.5 15.4497 19.5 14.1035V14C19.5 12.5726 18.9282 11.2114 17.9248 10.208L13.792 6.0752C12.7886 5.07181 11.4273 4.50004 10 4.5H9.89551C8.54946 4.49995 7.37093 4.50017 6.36426 4.56738C6.53769 4.00173 6.79404 3.54971 7.17188 3.17188C8.34345 2.00035 10.2288 2 14 2ZM10.5 14V16H13C13 15.0572 12.9999 14.5859 12.707 14.293C12.4141 14.0001 11.9428 14 11 14H10.5Z" fill="#48465C"/>
</svg>
