<svg width="24" height="24" viewBox="0 0 24 24" fill="none" xmlns="http://www.w3.org/2000/svg">
<path d="M12 1.25C17.9371 1.25 22.75 6.06294 22.75 12C22.75 17.9371 17.9371 22.75 12 22.75C6.06294 22.75 1.25 17.9371 1.25 12C1.25 6.06294 6.06294 1.25 12 1.25ZM12 2.75C6.89137 2.75 2.75 6.89137 2.75 12C2.75 17.1086 6.89137 21.25 12 21.25C17.1086 21.25 21.25 17.1086 21.25 12C21.25 6.89137 17.1086 2.75 12 2.75ZM8.25 9.21289C8.25 7.79038 9.74662 6.72341 11.0752 7.50781L15.7949 10.2949C17.0682 11.0467 17.0682 12.9523 15.7949 13.7041L11.0752 16.4912C9.74662 17.2756 8.25 16.2086 8.25 14.7861V9.21289ZM10.3125 8.7998C10.1922 8.72875 10.0686 8.73612 9.95898 8.80469C9.84584 8.87564 9.75 9.01465 9.75 9.21289V14.7861C9.75 14.9844 9.84586 15.1234 9.95898 15.1943C10.0686 15.2629 10.1922 15.2702 10.3125 15.1992L15.0322 12.4131C15.1647 12.3348 15.2499 12.185 15.25 12C15.25 11.8148 15.1648 11.6652 15.0322 11.5869L10.3125 8.7998Z" fill="#48465C"/>
</svg>
