<svg width="24" height="24" viewBox="0 0 24 24" fill="none" xmlns="http://www.w3.org/2000/svg">
<path d="M12.0518 1.25C12.9503 1.24997 13.7001 1.25012 14.2949 1.33008C14.9225 1.41452 15.489 1.6003 15.9443 2.05566C16.3997 2.51102 16.5855 3.07748 16.6699 3.70508C16.729 4.14468 16.745 4.66915 16.749 5.27539C17.3974 5.2962 17.9756 5.33426 18.4893 5.40332C19.6615 5.56096 20.6101 5.89331 21.3584 6.6416C22.1066 7.38991 22.439 8.33844 22.5967 9.51074C22.7498 10.6499 22.75 12.1058 22.75 13.9434V14.0566C22.75 15.8943 22.7498 17.3501 22.5967 18.4893C22.439 19.6615 22.1066 20.6101 21.3584 21.3584C20.6101 22.1066 19.6615 22.439 18.4893 22.5967C17.3501 22.7498 15.8943 22.75 14.0566 22.75H9.94336C8.1057 22.75 6.6499 22.7498 5.51074 22.5967C4.33844 22.439 3.38992 22.1066 2.6416 21.3584C1.89332 20.6101 1.56095 19.6615 1.40332 18.4893C1.25016 17.3501 1.24998 15.8943 1.25 14.0566V13.9434C1.24998 12.1057 1.25016 10.6499 1.40332 9.51074C1.56095 8.33844 1.8933 7.38991 2.6416 6.6416C3.38992 5.89329 4.33844 5.56096 5.51074 5.40332C6.0244 5.33426 6.60263 5.2962 7.25098 5.27539C7.25498 4.66915 7.27098 4.14468 7.33008 3.70508C7.41452 3.07747 7.60031 2.51102 8.05566 2.05566C8.51102 1.6003 9.07747 1.41452 9.70508 1.33008C10.2999 1.25012 11.0497 1.24997 11.9482 1.25H12.0518ZM10 6.75C8.09324 6.75 6.73859 6.7515 5.71094 6.88965C4.70485 7.02492 4.12536 7.27894 3.70215 7.70215C3.27894 8.12536 3.02492 8.70485 2.88965 9.71094C2.75149 10.7386 2.75 12.0933 2.75 14C2.75 15.9067 2.7515 17.2614 2.88965 18.2891C3.02492 19.2951 3.27894 19.8747 3.70215 20.2979C4.12536 20.7211 4.70485 20.9752 5.71094 21.1104C6.73858 21.2485 8.09325 21.25 10 21.25H14C15.9067 21.25 17.2614 21.2485 18.2891 21.1104C19.2951 20.9752 19.8747 20.7211 20.2979 20.2979C20.7211 19.8747 20.9752 19.2951 21.1104 18.2891C21.2485 17.2614 21.25 15.9067 21.25 14C21.25 12.0933 21.2485 10.7386 21.1104 9.71094C20.9752 8.70485 20.7211 8.12536 20.2979 7.70215C19.8747 7.27894 19.2951 7.02492 18.2891 6.88965C17.2614 6.75151 15.9067 6.75 14 6.75H10ZM12 9.25C14.6234 9.25 16.75 11.3767 16.75 14C16.75 16.6234 14.6234 18.75 12 18.75C9.37665 18.75 7.25 16.6234 7.25 14C7.25 11.3767 9.37665 9.25 12 9.25ZM12 10.75C10.2051 10.75 8.75 12.2051 8.75 14C8.75 15.7949 10.2051 17.25 12 17.25C13.7949 17.25 15.25 15.7949 15.25 14C15.25 12.2051 13.7949 10.75 12 10.75ZM12 11.75C12.4142 11.75 12.75 12.0858 12.75 12.5V13.25H13.5C13.9142 13.25 14.25 13.5858 14.25 14C14.25 14.4142 13.9142 14.75 13.5 14.75H12.75V15.5C12.75 15.9142 12.4142 16.25 12 16.25C11.5858 16.25 11.25 15.9142 11.25 15.5V14.75H10.5C10.0858 14.75 9.75 14.4142 9.75 14C9.75 13.5858 10.0858 13.25 10.5 13.25H11.25V12.5C11.25 12.0858 11.5858 11.75 12 11.75ZM12 2.75C11.036 2.75 10.3883 2.75147 9.90527 2.81641C9.44388 2.87845 9.24651 2.9859 9.11621 3.11621C8.9859 3.24652 8.87845 3.44388 8.81641 3.90527C8.76991 4.25112 8.75617 4.68163 8.75195 5.25195C9.12997 5.25017 9.52686 5.25 9.94336 5.25H14.0566C14.4732 5.25 14.8701 5.25017 15.248 5.25195C15.2438 4.68163 15.2301 4.25112 15.1836 3.90527C15.1215 3.44389 15.0141 3.24652 14.8838 3.11621C14.7535 2.98591 14.5561 2.87845 14.0947 2.81641C13.6117 2.75147 12.964 2.75 12 2.75Z" fill="#1C274C"/>
</svg>
