<svg width="24" height="24" viewBox="0 0 24 24" fill="none" xmlns="http://www.w3.org/2000/svg">
<path d="M11.25 21H8C7.12268 21 6.38141 20.9998 5.75 20.9736V22C5.75 22.4142 5.41421 22.75 5 22.75C4.5858 22.75 4.25 22.4142 4.25 22V20.8105C3.66928 20.6841 3.23105 20.4733 2.87891 20.1211C2.11063 19.3527 2.01406 18.1748 2.00195 16C1.99893 15.4478 2.44786 15.0001 3 15H11.25V21ZM21 15C21.5523 15 22.0011 15.4477 21.998 16C21.9859 18.1746 21.8901 19.3527 21.1221 20.1211C20.7698 20.4734 20.331 20.6841 19.75 20.8105V22C19.75 22.4142 19.4142 22.75 19 22.75C18.5858 22.75 18.25 22.4142 18.25 22V20.9736C17.6186 20.9998 16.8772 21 16 21H12.75V15H21ZM7 17.25C6.5858 17.25 6.25 17.5858 6.25 18C6.25 18.4142 6.5858 18.75 7 18.75H9C9.41421 18.75 9.75 18.4142 9.75 18C9.75 17.5858 9.41421 17.25 9 17.25H7ZM15 17.25C14.5858 17.25 14.25 17.5858 14.25 18C14.25 18.4142 14.5858 18.75 15 18.75H17C17.4142 18.75 17.75 18.4142 17.75 18C17.75 17.5858 17.4142 17.25 17 17.25H15ZM12 2C12.5288 2 13.2754 2.27124 14.7686 2.81445C15.8167 3.1958 16.9981 3.54465 18 3.63574C18.5428 3.68509 18.8148 3.71046 18.9453 3.74023C19.8459 3.94587 20.3592 4.50728 20.4824 5.42285C20.5002 5.5555 20.5 5.74985 20.5 6.1377V14H3.5V6.1377C3.5 5.74985 3.49974 5.5555 3.51758 5.42285C3.64079 4.50729 4.15409 3.94588 5.05469 3.74023C5.18519 3.71046 5.45709 3.68509 6 3.63574C7.00193 3.54465 8.18326 3.1958 9.23145 2.81445C10.7245 2.27124 11.4712 2.00001 12 2ZM15.0303 10.4697C14.7374 10.177 14.2626 10.177 13.9697 10.4697L12.9697 11.4697C12.6769 11.7626 12.677 12.2374 12.9697 12.5303C13.2626 12.8232 13.7374 12.8232 14.0303 12.5303L15.0303 11.5303C15.323 11.2374 15.3231 10.7626 15.0303 10.4697ZM14.0303 7.46973C13.7374 7.17706 13.2626 7.17705 12.9697 7.46973L9.96973 10.4697C9.6769 10.7626 9.67703 11.2374 9.96973 11.5303C10.2627 11.8232 10.7374 11.8232 11.0303 11.5303L14.0303 8.53027C14.323 8.23736 14.3231 7.76255 14.0303 7.46973ZM11.0303 6.46973C10.7374 6.17706 10.2626 6.17706 9.96973 6.46973L8.96973 7.46973C8.6769 7.76255 8.67703 8.23736 8.96973 8.53027C9.26262 8.82316 9.73741 8.82316 10.0303 8.53027L11.0303 7.53027C11.323 7.23736 11.3231 6.76255 11.0303 6.46973Z" fill="#1C274C"/>
</svg>
