<svg width="24" height="24" viewBox="0 0 24 24" fill="none" xmlns="http://www.w3.org/2000/svg">
<path d="M13.4796 3.64844C17.9778 2.14904 20.227 1.3987 21.4142 2.58594C22.6014 3.77321 21.8511 6.02237 20.3517 10.5205L18.6359 15.6699C17.4257 19.3006 16.8201 21.116 15.9327 21.6318C15.0887 22.1226 14.0463 22.1226 13.2023 21.6318C12.3149 21.116 11.7093 19.3005 10.4991 15.6699C10.334 15.1741 10.4521 14.611 10.8234 14.2432L16.2394 8.87695C16.5492 8.57008 16.5521 8.06951 16.2452 7.75977C15.9385 7.45022 15.4387 7.44836 15.129 7.75488L9.62317 13.21C9.28635 13.5436 8.78003 13.6507 8.3302 13.501C4.69969 12.2908 2.88422 11.6852 2.36829 10.7979C1.87756 9.95378 1.8776 8.9115 2.36829 8.06738C2.88415 7.18004 4.69956 6.57447 8.3302 5.36426L13.4796 3.64844Z" fill="#48465C"/>
</svg>
