<svg width="24" height="24" viewBox="0 0 24 24" fill="none" xmlns="http://www.w3.org/2000/svg">
<path d="M13 2C16.7712 2 18.6566 2.00031 19.8281 3.17188C20.9997 4.34346 21 6.22878 21 10V14C21 17.7712 20.9997 19.6566 19.8281 20.8281C18.6566 21.9997 16.7712 22 13 22H11C7.22878 22 5.34346 21.9997 4.17188 20.8281C3.00031 19.6566 3 17.7712 3 14V10C3 6.22876 3.00031 4.34345 4.17188 3.17188C5.17658 2.16717 6.70613 2.02332 9.5 2.00293V3C9.5 3.4714 9.50003 3.70708 9.64648 3.85352C9.79292 3.99997 10.0286 4 10.5 4H12V2H13ZM10.375 12C9.89175 12 9.5 12.3918 9.5 12.875V13C9.5 14.3807 10.6193 15.5 12 15.5C13.3807 15.5 14.5 14.3807 14.5 13V12.875C14.5 12.3918 14.1082 12 13.625 12H10.375ZM12 9C12 9.4714 12.0001 9.70708 12.1465 9.85352C12.293 9.99994 12.5286 10 13 10H13.5C13.9714 10 14.207 9.99994 14.3535 9.85352C14.4999 9.70708 14.5 9.4714 14.5 9C14.5 8.5286 14.4999 8.29292 14.3535 8.14648C14.207 8.00006 13.9714 8 13.5 8H12V9ZM12 6H10.5C10.0286 6 9.79292 6.00003 9.64648 6.14648C9.50003 6.29292 9.5 6.5286 9.5 7C9.5 7.4714 9.50003 7.70708 9.64648 7.85352C9.79292 7.99997 10.0286 8 10.5 8H12V6H13.5C13.9714 6 14.207 5.99994 14.3535 5.85352C14.4999 5.70708 14.5 5.4714 14.5 5C14.5 4.5286 14.4999 4.29292 14.3535 4.14648C14.207 4.00006 13.9714 4 13.5 4H12V6Z" fill="#1C274C"/>
</svg>
