<svg width="24" height="24" viewBox="0 0 24 24" fill="none" xmlns="http://www.w3.org/2000/svg">
<path d="M10.9854 6.19092C13.4265 4.5469 14.6472 3.72541 15.6719 4.08252C15.8683 4.15099 16.0587 4.24968 16.2285 4.37158C17.1141 5.00744 17.1818 6.48659 17.3164 9.44482C17.3662 10.5402 17.3994 11.478 17.3994 11.9995C17.3994 12.521 17.3662 13.4588 17.3164 14.5542C17.1818 17.5128 17.1143 18.9926 16.2285 19.6284C16.0587 19.7503 15.8683 19.849 15.6719 19.9175C14.6472 20.2744 13.4266 19.4521 10.9854 17.8081C10.3666 17.3914 10.0568 17.1831 9.71191 17.062C9.64029 17.0368 9.56747 17.0149 9.49414 16.9956C9.14092 16.9027 8.77027 16.9028 8.0293 16.9028C5.95492 16.9028 4.91746 16.9022 4.13184 16.2671C3.98845 16.1511 3.81679 15.9803 3.7002 15.8364C3.06138 15.0479 3.0419 14.1266 3.00293 12.2847C3.00088 12.188 3 12.0923 3 11.9995C3 11.9068 3.00088 11.8119 3.00293 11.7153C3.04191 9.87327 3.06151 8.95204 3.7002 8.16357C3.81679 8.01965 3.98845 7.84887 4.13184 7.73291C4.91749 7.09758 5.95476 7.09717 8.0293 7.09717C8.77027 7.09717 9.14092 7.09727 9.49414 7.00439C9.56751 6.9851 9.64026 6.96313 9.71191 6.93799C10.0569 6.81692 10.3665 6.60766 10.9854 6.19092ZM19.4502 8.41553C19.7978 8.2183 20.2366 8.34663 20.4297 8.70166V8.70264L20.4307 8.70361L20.4326 8.70752L20.4365 8.71436L20.4453 8.73193C20.4522 8.74573 20.4609 8.76358 20.4707 8.78467C20.4904 8.82683 20.5158 8.88362 20.5439 8.95557C20.6004 9.09985 20.6696 9.30498 20.7373 9.57471C20.873 10.1149 21 10.9122 21 12.0005C21 13.0886 20.873 13.8852 20.7373 14.4253C20.6697 14.6949 20.6004 14.9002 20.5439 15.0444C20.5157 15.1165 20.4904 15.1741 20.4707 15.2163C20.461 15.2372 20.4522 15.2544 20.4453 15.2681L20.4365 15.2866L20.4326 15.2935L20.4307 15.2964L20.4297 15.2974C20.4255 15.2952 20.376 15.2688 19.7998 14.9419L20.4297 15.2983C20.2366 15.6534 19.7978 15.7818 19.4502 15.5845C19.1056 15.389 18.9799 14.9468 19.166 14.5933L19.1709 14.5835C19.1775 14.5694 19.1895 14.541 19.2061 14.4985C19.2396 14.413 19.2905 14.2683 19.3428 14.0601C19.4471 13.6443 19.5595 12.9706 19.5596 12.0005C19.5596 11.0301 19.4472 10.3558 19.3428 9.93994C19.2905 9.7318 19.2396 9.58697 19.2061 9.50146C19.1894 9.45888 19.1775 9.43057 19.1709 9.4165L19.166 9.40674C18.9799 9.05319 19.1056 8.6111 19.4502 8.41553Z" fill="#1C274C"/>
</svg>
