<svg width="24" height="24" viewBox="0 0 24 24" fill="none" xmlns="http://www.w3.org/2000/svg">
<path d="M15.9996 12.25C18.0906 12.25 19.8509 13.815 20.0953 15.8916L20.7448 21.4121C20.7932 21.8234 20.4989 22.1967 20.0875 22.2451C19.6764 22.2934 19.304 21.9991 19.2555 21.5879L18.6061 16.0674C18.481 15.0042 17.7307 14.1519 16.7496 13.8594V18.0518C16.7496 18.9503 16.7505 19.7001 16.6705 20.2949C16.5861 20.9225 16.4001 21.4891 15.9449 21.9443C15.4895 22.3998 14.9223 22.5855 14.2946 22.6699C13.6998 22.7499 12.9507 22.75 12.0524 22.75H11.9479C11.0495 22.75 10.3004 22.7499 9.70569 22.6699C9.0779 22.5855 8.51077 22.3998 8.0553 21.9443C7.60005 21.4891 7.41413 20.9225 7.32971 20.2949C7.24975 19.7001 7.2496 18.9503 7.24963 18.0518V13.8594C6.26872 14.152 5.51923 15.0043 5.39417 16.0674L4.74475 21.5879C4.69623 21.999 4.32386 22.2933 3.91272 22.2451C3.50134 22.1967 3.20709 21.8234 3.25549 21.4121L3.90491 15.8916C4.14931 13.8151 5.90885 12.2502 7.99963 12.25H15.9996ZM8.74963 13.75V18C8.74963 18.964 8.75207 19.6117 8.81702 20.0947C8.87903 20.5559 8.98563 20.7535 9.11584 20.8838C9.24615 21.0141 9.44442 21.1215 9.90588 21.1836C10.3888 21.2484 11.0362 21.25 11.9996 21.25C12.9635 21.25 13.6114 21.2485 14.0944 21.1836C14.5559 21.1215 14.7541 21.0141 14.8844 20.8838C15.0146 20.7535 15.1212 20.5558 15.1832 20.0947C15.2481 19.6117 15.2496 18.964 15.2496 18V13.75H8.74963ZM11.9996 1.25C14.623 1.25 16.7496 3.37665 16.7496 6C16.7496 8.62335 14.623 10.75 11.9996 10.75C9.37644 10.7498 7.24963 8.62325 7.24963 6C7.24963 3.37675 9.37644 1.25017 11.9996 1.25ZM11.9996 2.75C10.2049 2.75017 8.74963 4.20517 8.74963 6C8.74963 7.79483 10.2049 9.24983 11.9996 9.25C13.7945 9.25 15.2496 7.79493 15.2496 6C15.2496 4.20507 13.7945 2.75 11.9996 2.75Z" fill="#1C274C"/>
</svg>
