<svg width="24" height="24" viewBox="0 0 24 24" fill="none" xmlns="http://www.w3.org/2000/svg">
<path d="M19.7863 10.4668C20.0785 10.178 20.5489 10.178 20.841 10.4668L22.5275 12.1328C22.7438 12.3466 22.8091 12.6707 22.6935 12.9521C22.5778 13.2332 22.3041 13.417 22.0001 13.417H21.0333C20.6476 18.0893 16.6906 21.7499 11.883 21.75C8.56422 21.75 5.65377 20.0067 4.04116 17.3936C3.82395 17.0411 3.93391 16.5787 4.28628 16.3613C4.63871 16.1442 5.1001 16.2541 5.31753 16.6064C6.66543 18.7906 9.10044 20.25 11.883 20.25C15.8759 20.2499 19.1451 17.2463 19.5265 13.417H18.6281C18.324 13.417 18.0494 13.2333 17.9337 12.9521C17.8182 12.6707 17.8843 12.3466 18.1007 12.1328L19.7863 10.4668ZM12.0792 2.25C15.3875 2.25012 18.2875 3.99457 19.8937 6.60742C20.1104 6.96013 20.0001 7.42172 19.6476 7.63867C19.2947 7.8556 18.8323 7.74544 18.6154 7.39258C17.2725 5.20847 14.8485 3.75012 12.0792 3.75C8.10524 3.75 4.8468 6.75152 4.46694 10.583H5.35952C5.6634 10.583 5.93714 10.7669 6.05288 11.0479C6.16856 11.3288 6.10338 11.6512 5.88784 11.8652L4.20815 13.5322C3.91574 13.8223 3.44392 13.8223 3.15151 13.5322L1.47182 11.8652C1.25628 11.6512 1.19111 11.3287 1.30678 11.0479C1.42252 10.7669 1.69626 10.583 2.00014 10.583H2.9601C3.34446 5.91283 7.28583 2.25 12.0792 2.25Z" fill="#1C274C"/>
</svg>
