<svg width="24" height="24" viewBox="0 0 24 24" fill="none" xmlns="http://www.w3.org/2000/svg">
<path d="M19.7863 10.4668C20.0785 10.178 20.5488 10.178 20.8409 10.4668L22.5275 12.1328C22.7438 12.3466 22.8091 12.6707 22.6935 12.9521C22.5778 13.2332 22.304 13.417 22.0001 13.417H21.0333C20.6476 18.0893 16.6906 21.7499 11.8829 21.75C8.56419 21.75 5.65375 20.0067 4.04114 17.3936C3.82391 17.0411 3.93389 16.5788 4.28625 16.3613C4.63868 16.1442 5.10008 16.2541 5.3175 16.6064C6.66541 18.7906 9.10043 20.25 11.8829 20.25C15.8758 20.2499 19.145 17.2463 19.5265 13.417H18.6281C18.324 13.417 18.0494 13.2333 17.9337 12.9521C17.8182 12.6707 17.8843 12.3466 18.1007 12.1328L19.7863 10.4668ZM12.0792 2.25C15.3875 2.25012 18.2874 3.99457 19.8937 6.60742C20.1104 6.96013 20.0001 7.42172 19.6476 7.63867C19.2947 7.8556 18.8323 7.74544 18.6154 7.39258C17.2725 5.20847 14.8485 3.75012 12.0792 3.75C8.10522 3.75 4.84678 6.75152 4.46692 10.583H5.3595C5.66338 10.583 5.93712 10.7669 6.05286 11.0479C6.16853 11.3288 6.10336 11.6512 5.88782 11.8652L4.20813 13.5322C3.91572 13.8223 3.4439 13.8223 3.15149 13.5322L1.4718 11.8652C1.25626 11.6512 1.19109 11.3287 1.30676 11.0479C1.4225 10.7669 1.69624 10.583 2.00012 10.583H2.96008C3.34443 5.91283 7.28581 2.25 12.0792 2.25Z" fill="#48465C"/>
</svg>
