<svg width="24" height="24" viewBox="0 0 24 24" fill="none" xmlns="http://www.w3.org/2000/svg">
<path d="M21 10.25C21.4142 10.25 21.75 10.5858 21.75 11V13C21.75 18.3848 17.3848 22.75 12 22.75C6.61522 22.75 2.25 18.3848 2.25 13V11C2.25 10.5858 2.58579 10.25 3 10.25C3.41421 10.25 3.75 10.5858 3.75 11V13C3.75 17.5563 7.44365 21.25 12 21.25C16.5563 21.25 20.25 17.5563 20.25 13V11C20.25 10.5858 20.5858 10.25 21 10.25ZM12 1.25C15.7279 1.25 18.75 4.27208 18.75 8V13C18.75 16.7279 15.7279 19.75 12 19.75C8.27208 19.75 5.25 16.7279 5.25 13V8C5.25 4.27208 8.27208 1.25 12 1.25ZM12 2.75C9.10051 2.75 6.75 5.1005 6.75 8V13C6.75 15.8995 9.10051 18.25 12 18.25C14.8995 18.25 17.25 15.8995 17.25 13V8C17.25 5.10051 14.8995 2.75 12 2.75ZM12 8.25C12.8459 8.25 13.4431 8.38876 13.8535 8.55469C14.0583 8.63745 14.2137 8.72573 14.3271 8.80371C14.3836 8.84261 14.4298 8.8792 14.4658 8.91016C14.4836 8.92549 14.4996 8.93964 14.5127 8.95215L14.542 8.98145L14.543 8.9834H14.5439C14.5443 8.98383 14.545 8.98474 14 9.5L14.5449 8.98438C14.8295 9.28529 14.8163 9.76032 14.5156 10.0449C14.2251 10.3195 13.7724 10.3169 13.4854 10.0459C13.4835 10.0444 13.4808 10.0423 13.4775 10.04C13.4546 10.0243 13.3954 9.98751 13.291 9.94531C13.0832 9.86132 12.6806 9.75 12 9.75C11.3194 9.75 10.9168 9.86132 10.709 9.94531C10.6046 9.98751 10.5454 10.0243 10.5225 10.04C10.5192 10.0423 10.5165 10.0444 10.5146 10.0459C10.2276 10.3169 9.77486 10.3195 9.48438 10.0449C9.18361 9.76032 9.17058 9.28529 9.45508 8.98438L10 9.5C9.45502 8.98474 9.45564 8.98383 9.45605 8.9834H9.45703L9.45801 8.98145L9.4873 8.95215C9.50041 8.93964 9.51635 8.9255 9.53418 8.91016C9.57021 8.8792 9.61627 8.84261 9.67285 8.80371C9.78631 8.72572 9.94178 8.63746 10.1465 8.55469C10.5569 8.38876 11.1541 8.25 12 8.25ZM12 5.25C12.8459 5.25 13.4431 5.38876 13.8535 5.55469C14.0583 5.63745 14.2137 5.72573 14.3271 5.80371C14.3836 5.84261 14.4298 5.8792 14.4658 5.91016C14.4836 5.92549 14.4996 5.93964 14.5127 5.95215L14.542 5.98145L14.543 5.9834H14.5439C14.5443 5.98383 14.5445 5.98461 14.0107 6.48926L14.5449 5.98438C14.8295 6.2853 14.8163 6.76034 14.5156 7.04492C14.2251 7.31956 13.7724 7.31697 13.4854 7.0459C13.4835 7.04449 13.4808 7.04224 13.4775 7.04004C13.4546 7.02429 13.3954 6.98752 13.291 6.94531C13.0832 6.86132 12.6807 6.75 12 6.75C11.3193 6.75 10.9168 6.86132 10.709 6.94531C10.6046 6.98752 10.5454 7.02429 10.5225 7.04004C10.5192 7.04224 10.5165 7.04448 10.5146 7.0459C10.2276 7.31697 9.77485 7.31956 9.48438 7.04492C9.1836 6.76034 9.17058 6.28529 9.45508 5.98438L9.98926 6.48926C9.4555 5.98461 9.45565 5.98383 9.45605 5.9834H9.45703L9.45801 5.98145L9.4873 5.95215C9.50041 5.93964 9.51635 5.9255 9.53418 5.91016C9.57021 5.8792 9.61627 5.84261 9.67285 5.80371C9.78631 5.72572 9.94178 5.63746 10.1465 5.55469C10.5569 5.38876 11.1541 5.25 12 5.25Z" fill="#1C274C"/>
</svg>
