<svg width="24" height="24" viewBox="0 0 24 24" fill="none" xmlns="http://www.w3.org/2000/svg">
<path d="M15.6631 1.25C16.8578 1.24999 17.8084 1.24984 18.5703 1.32227C19.3517 1.39657 20.0131 1.55244 20.6016 1.91309C21.2069 2.2841 21.716 2.7931 22.0869 3.39844C22.4476 3.98698 22.6034 4.6483 22.6777 5.42969C22.7502 6.19169 22.7501 7.14219 22.75 8.33691V9.15234C22.7501 10.0026 22.7504 10.6791 22.7129 11.2275C22.6746 11.7886 22.594 12.2706 22.4072 12.7217C21.9505 13.8243 21.0743 14.7005 19.9717 15.1572C19.5926 15.3143 19.1883 15.3975 18.7305 15.4424C18.7252 15.5815 18.7186 15.714 18.71 15.8398C18.6693 16.4358 18.5851 16.9438 18.3887 17.418C17.9066 18.5818 16.9813 19.5062 15.8174 19.9883C15.2206 20.2354 14.5622 20.3085 13.7344 20.335C13.2891 20.3493 13.0043 20.3585 12.7881 20.3848C12.5843 20.4097 12.5074 20.4432 12.4658 20.4678C12.4197 20.495 12.3561 20.5454 12.2451 20.6982C12.1253 20.8633 11.9893 21.0909 11.7744 21.4541L11.5146 21.8926C10.8377 23.0359 9.16236 23.0358 8.48535 21.8926L8.22559 21.4541C8.01063 21.0909 7.87474 20.8633 7.75488 20.6982C7.64391 20.5454 7.58029 20.495 7.53418 20.4678C7.49263 20.4432 7.41585 20.4096 7.21191 20.3848C6.99566 20.3584 6.7109 20.3493 6.26562 20.335C5.43785 20.3085 4.77942 20.2354 4.18262 19.9883C3.01876 19.5062 2.09343 18.5818 1.61133 17.418C1.41495 16.9438 1.33071 16.4358 1.29004 15.8398C1.25023 15.2564 1.25 14.5357 1.25 13.627V12.7617C1.24999 11.4854 1.25012 10.4735 1.32715 9.66309C1.40604 8.83335 1.57121 8.1371 1.9502 7.51855C2.34186 6.87941 2.87941 6.34187 3.51855 5.9502C4.13709 5.57121 4.83336 5.40604 5.66309 5.32715C5.87391 5.30711 6.09873 5.29222 6.33789 5.28125C6.41792 4.56141 6.5771 3.94671 6.91309 3.39844C7.28409 2.7931 7.7931 2.28409 8.39844 1.91309C8.98697 1.55244 9.64828 1.39657 10.4297 1.32227C11.1916 1.24985 12.1422 1.24999 13.3369 1.25H15.6631ZM8.7998 6.75C7.47603 6.75 6.53583 6.7508 5.80469 6.82031C5.08473 6.88877 4.64503 7.01818 4.30176 7.22852C3.86446 7.4965 3.4965 7.86445 3.22852 8.30176C3.01818 8.64504 2.88877 9.08473 2.82031 9.80469C2.7508 10.5359 2.75 11.476 2.75 12.7998V13.5996C2.75 14.5416 2.75024 15.211 2.78613 15.7373C2.82159 16.2569 2.88903 16.5828 2.99707 16.8438C3.32687 17.6399 3.95972 18.2726 4.75586 18.6025C5.09004 18.7409 5.52122 18.8096 6.31348 18.835L6.34473 18.8359C6.75 18.8488 7.10259 18.861 7.39355 18.8965C7.70367 18.9343 8.0083 19.0056 8.29785 19.1768C8.58288 19.3453 8.78905 19.569 8.96875 19.8164C9.13501 20.0453 9.3068 20.3349 9.50098 20.6631L9.77637 21.1279C9.82178 21.2046 9.90076 21.25 10 21.25C10.0992 21.25 10.1782 21.2046 10.2236 21.1279L10.499 20.6631C10.6931 20.335 10.865 20.0453 11.0312 19.8164C11.2109 19.569 11.4171 19.3453 11.7021 19.1768C11.9916 19.0056 12.2964 18.9343 12.6064 18.8965C12.8975 18.861 13.25 18.8488 13.6553 18.8359L13.6865 18.835C14.4788 18.8096 14.9099 18.7409 15.2441 18.6025C16.0403 18.2726 16.6732 17.6399 17.0029 16.8438C17.111 16.5828 17.1784 16.2569 17.2139 15.7373C17.2497 15.211 17.25 14.5416 17.25 13.5996V12.7998C17.25 11.476 17.2492 10.5359 17.1797 9.80469C17.1112 9.08472 16.9818 8.64504 16.7715 8.30176C16.5035 7.86445 16.1355 7.4965 15.6982 7.22852C15.355 7.01817 14.9154 6.88877 14.1953 6.82031C13.4641 6.7508 12.524 6.75 11.2002 6.75H8.7998ZM6.5 12C7.05229 12 7.5 12.4477 7.5 13C7.5 13.5523 7.05229 14 6.5 14C5.94772 14 5.5 13.5523 5.5 13C5.5 12.4477 5.94772 12 6.5 12ZM10 12C10.5523 12 11 12.4477 11 13C11 13.5523 10.5523 14 10 14C9.44772 14 9 13.5523 9 13C9 12.4477 9.44772 12 10 12ZM13.5 12C14.0523 12 14.5 12.4477 14.5 13C14.5 13.5523 14.0523 14 13.5 14C12.9477 14 12.5 13.5523 12.5 13C12.5 12.4477 12.9477 12 13.5 12ZM13.375 2.75C12.133 2.75 11.254 2.75051 10.5713 2.81543C9.89966 2.87928 9.49585 3.00043 9.18262 3.19238C8.77899 3.43974 8.43975 3.77899 8.19238 4.18262C8.03185 4.44459 7.9225 4.76678 7.85352 5.25098C8.14024 5.24978 8.44292 5.25 8.76172 5.25H11.2383C12.5147 5.24999 13.5265 5.25012 14.3369 5.32715C15.1666 5.40604 15.8629 5.57122 16.4814 5.9502C17.1205 6.34187 17.6582 6.87941 18.0498 7.51855C18.4288 8.13709 18.594 8.83336 18.6729 9.66309C18.7498 10.4735 18.75 11.4853 18.75 12.7617V13.9297C19.0253 13.894 19.2267 13.8426 19.3984 13.7715C20.1332 13.467 20.717 12.8832 21.0215 12.1484C21.12 11.9105 21.1827 11.6107 21.2158 11.126C21.2493 10.6345 21.25 10.0089 21.25 9.125V8.375C21.25 7.13295 21.2496 6.25403 21.1846 5.57129C21.1208 4.89969 20.9995 4.49585 20.8076 4.18262C20.5602 3.77901 20.221 3.43974 19.8174 3.19238C19.5042 3.00044 19.1003 2.87928 18.4287 2.81543C17.746 2.75051 16.867 2.75 15.625 2.75H13.375Z" fill="#48465C"/>
</svg>
