<svg width="24" height="24" viewBox="0 0 24 24" fill="none" xmlns="http://www.w3.org/2000/svg">
<path d="M12.5645 4.25C13.1344 4.24998 13.6186 4.24968 14.0186 4.29102C14.4444 4.33504 14.8382 4.43136 15.21 4.66113C15.5816 4.89087 15.8434 5.19951 16.0732 5.56055C16.2758 5.879 16.4789 6.2803 16.7139 6.75H17.8682C18.152 6.74998 18.4128 6.75002 18.6299 6.76953C18.8646 6.79061 19.1206 6.83907 19.3682 6.98047C19.6396 7.13552 19.8645 7.36044 20.0195 7.63184C20.1609 7.8794 20.2094 8.13545 20.2305 8.37012C20.25 8.58728 20.25 8.84801 20.25 9.13184V9.22559C20.2506 9.48526 20.2513 9.7635 20.167 10.0273C20.1105 10.2041 20.0258 10.3712 19.917 10.5215C19.7545 10.7456 19.5306 10.91 19.3213 11.0635L19.2695 11.1016L18.9912 11.3057L19.4785 12.2803C21.3236 12.5153 22.75 14.0911 22.75 16C22.75 18.0711 21.0711 19.75 19 19.75C17.1858 19.75 15.6727 18.4617 15.3252 16.75H10.1748C9.82731 18.4617 8.3142 19.75 6.5 19.75C4.68267 19.75 3.16726 18.4573 2.82324 16.7412C1.98387 16.6562 1.32255 15.9825 1.25586 15.1377C1.25037 15.0679 1.24995 14.9916 1.25 14.9189V14.8623C1.24998 14.5273 1.24997 14.3135 1.26465 14.127C1.44811 11.7979 3.29797 9.94813 5.62695 9.76465C5.81344 9.74998 6.02727 9.74998 6.3623 9.75H7.05176C7.95024 9.74997 8.70014 9.75012 9.29492 9.83008C9.92254 9.91452 10.489 10.1003 10.9443 10.5557C11.3997 11.011 11.5855 11.5775 11.6699 12.2051C11.7498 12.7999 11.75 13.5497 11.75 14.4482V15.25H15.3252C15.5974 13.9089 16.5855 12.8281 17.873 12.4229L15.4346 7.54688C15.1589 6.99535 14.9769 6.63227 14.8076 6.36621C14.6476 6.11479 14.5324 6.00545 14.4209 5.93652C14.3093 5.86767 14.1604 5.81383 13.8643 5.7832C13.5507 5.75079 13.1449 5.75 12.5283 5.75H12C11.5858 5.74998 11.25 5.41421 11.25 5C11.25 4.5858 11.5858 4.25002 12 4.25H12.5645ZM4.37793 16.75C4.68681 17.6239 5.52034 18.25 6.5 18.25C7.47966 18.25 8.31319 17.6239 8.62207 16.75H4.37793ZM19 13.75C17.7573 13.75 16.75 14.7574 16.75 16C16.75 17.2426 17.7573 18.25 19 18.25C20.2426 18.25 21.25 17.2426 21.25 16C21.25 14.7574 20.2426 13.75 19 13.75ZM6.40039 11.25C6.0148 11.25 5.865 11.2504 5.74512 11.2598C4.1514 11.3852 2.8852 12.6514 2.75977 14.2451C2.75035 14.365 2.75 14.5148 2.75 14.9004C2.75 14.9486 2.7497 14.9773 2.75 14.999C2.76 15.1209 2.87905 15.24 3.00098 15.25H10.25V14.5C10.25 13.536 10.2486 12.8883 10.1836 12.4053C10.1216 11.9438 10.0141 11.7465 9.88379 11.6162C9.75348 11.4859 9.55612 11.3785 9.09473 11.3164C8.6117 11.2515 7.96401 11.25 7 11.25H6.40039ZM18.3105 9.94434L18.3799 9.89355C18.5178 9.79197 18.5952 9.73418 18.6514 9.6875C18.6846 9.65981 18.6982 9.64607 18.7021 9.6416C18.7176 9.62015 18.7303 9.59552 18.7383 9.57031C18.7396 9.56465 18.7425 9.54546 18.7451 9.50195C18.7494 9.42908 18.75 9.33241 18.75 9.16113C18.75 8.83873 18.7491 8.64574 18.7363 8.50391C18.7287 8.41875 18.7192 8.38294 18.7158 8.37305C18.6943 8.33653 18.6635 8.3057 18.627 8.28418C18.617 8.28076 18.5811 8.27134 18.4961 8.26367C18.3543 8.25093 18.1613 8.25 17.8389 8.25H17.4639L18.3105 9.94434Z" fill="#1C274C"/>
</svg>
