<svg width="24" height="24" viewBox="0 0 24 24" fill="none" xmlns="http://www.w3.org/2000/svg">
<path d="M15 3.25C15.4142 3.25 15.75 3.58579 15.75 4C15.75 4.41421 15.4142 4.75 15 4.75H12.75V16.5C12.75 18.0188 13.9812 19.25 15.5 19.25C16.9604 19.25 18.1544 18.1116 18.2441 16.6738C16.5354 16.3241 15.25 14.8121 15.25 13V11.2002C15.25 10.1232 16.1232 9.25 17.2002 9.25H20.7998C21.8768 9.25 22.75 10.1232 22.75 11.2002V13C22.75 14.8155 21.4596 16.3297 19.7461 16.6758C19.6539 18.9414 17.7884 20.75 15.5 20.75C14.0484 20.75 12.7667 20.0217 12 18.9111C11.2333 20.0217 9.95165 20.75 8.5 20.75C6.21168 20.75 4.34609 18.9414 4.25391 16.6758C2.54045 16.3297 1.25 14.8155 1.25 13V10.8574C1.25 9.96986 1.96982 9.25 2.85742 9.25H7.14258C8.03018 9.25 8.75 9.96986 8.75 10.8574V13C8.75 14.8121 7.46462 16.3241 5.75586 16.6738C5.84557 18.1116 7.03962 19.25 8.5 19.25C10.0188 19.25 11.25 18.0188 11.25 16.5V4.75H9C8.58579 4.75 8.25 4.41421 8.25 4C8.25 3.58579 8.58579 3.25 9 3.25H15ZM2.85742 10.75C2.79825 10.75 2.75 10.7983 2.75 10.8574V13C2.75 14.2426 3.75736 15.25 5 15.25C6.24264 15.25 7.25 14.2426 7.25 13V10.8574C7.25 10.7983 7.20175 10.75 7.14258 10.75H2.85742ZM17.2002 10.75C16.9517 10.75 16.75 10.9517 16.75 11.2002V13C16.75 14.2426 17.7574 15.25 19 15.25C20.2426 15.25 21.25 14.2426 21.25 13V11.2002C21.25 10.9517 21.0483 10.75 20.7998 10.75H17.2002Z" fill="#1C274C"/>
</svg>
