<svg width="24" height="24" viewBox="0 0 24 24" fill="none" xmlns="http://www.w3.org/2000/svg">
<path d="M7.50024 17.2505C8.74289 17.2505 9.75024 18.2579 9.75024 19.5005C9.75009 20.743 8.7428 21.7505 7.50024 21.7505C6.2577 21.7505 5.25039 20.743 5.25024 19.5005C5.25024 18.2579 6.2576 17.2505 7.50024 17.2505ZM16.5002 17.2505C17.7427 17.2506 18.7502 18.258 18.7502 19.5005C18.7501 20.743 17.7426 21.7503 16.5002 21.7505C15.2577 21.7505 14.2504 20.7431 14.2502 19.5005C14.2502 18.2579 15.2576 17.2505 16.5002 17.2505ZM7.50024 18.7505C7.08603 18.7505 6.75024 19.0863 6.75024 19.5005C6.75039 19.9146 7.08613 20.2505 7.50024 20.2505C7.91437 20.2505 8.25009 19.9146 8.25024 19.5005C8.25024 19.0863 7.91446 18.7505 7.50024 18.7505ZM16.5002 18.7505C16.086 18.7505 15.7502 19.0863 15.7502 19.5005C15.7504 19.9146 16.0861 20.2505 16.5002 20.2505C16.9142 20.2503 17.2501 19.9145 17.2502 19.5005C17.2502 19.0864 16.9143 18.7506 16.5002 18.7505ZM1.29224 2.75146C1.42964 2.36073 1.85852 2.1551 2.24927 2.29248L2.55005 2.39893C3.16658 2.61567 3.69069 2.79927 4.10278 3.00146C4.54334 3.21764 4.92116 3.48416 5.20532 3.8999C5.4873 4.31255 5.60374 4.76583 5.65747 5.26221C5.6613 5.29767 5.66493 5.33393 5.66821 5.37061H17.1204C17.9388 5.3706 18.7732 5.37003 19.4602 5.44678C19.8099 5.48587 20.1567 5.54907 20.4631 5.65674C20.7636 5.7623 21.0944 5.93445 21.3293 6.23975C21.7111 6.73614 21.7776 7.31468 21.7415 7.90088C21.7069 8.45898 21.5683 9.15319 21.4036 9.97803L21.3938 10.0298L21.3928 10.0347L20.884 12.5034C20.7343 13.2298 20.608 13.8416 20.4456 14.3237C20.2732 14.8352 20.0341 15.2847 19.6077 15.6323C19.1812 15.9799 18.6922 16.1235 18.1565 16.189C17.6516 16.2507 17.0277 16.2505 16.2864 16.2505H10.8801C9.53449 16.2505 8.44436 16.2501 7.58618 16.1284C6.6903 16.0014 5.93771 15.7291 5.34399 15.103C4.79775 14.5269 4.50496 13.9144 4.35864 13.0601C4.22166 12.2599 4.20825 11.2125 4.20825 9.76025V7.03857C4.20825 6.29874 4.20741 5.80352 4.16626 5.42334C4.12694 5.06014 4.05725 4.87865 3.96704 4.74658C3.87898 4.61771 3.74488 4.49692 3.44165 4.34814C3.11886 4.18979 2.68028 4.03394 2.01294 3.79932L1.75122 3.70752C1.36067 3.57 1.15489 3.14211 1.29224 2.75146ZM5.70825 9.76025C5.70825 11.2491 5.72603 12.1581 5.83716 12.8071C5.93904 13.402 6.11174 13.7331 6.43188 14.0708C6.70442 14.3582 7.08231 14.5426 7.79712 14.644C8.53779 14.749 9.52096 14.7505 10.9377 14.7505H16.2405C17.0398 14.7505 17.5717 14.749 17.9749 14.6997C18.3574 14.6528 18.5352 14.5712 18.6604 14.4692C18.7856 14.3672 18.9007 14.2092 19.0237 13.8442C19.1533 13.4594 19.2627 12.9393 19.4241 12.1567L19.9221 9.73682L19.9231 9.73389C20.1007 8.84412 20.217 8.25162 20.2444 7.80811C20.2703 7.38721 20.2042 7.24012 20.1428 7.15869C20.1366 7.15342 20.093 7.11641 19.9661 7.07178C19.8107 7.01719 19.5896 6.97103 19.2942 6.93799C18.6994 6.8715 17.9455 6.87061 17.0891 6.87061H5.70825V9.76025ZM14.4573 8.48291C14.743 8.18306 15.218 8.17189 15.5178 8.45752C15.8174 8.74319 15.8287 9.21727 15.5432 9.51709L12.6858 12.5171C12.5442 12.6658 12.348 12.7505 12.1428 12.7505C11.9376 12.7504 11.7413 12.6657 11.5999 12.5171L10.4573 11.3179C10.1717 11.0181 10.183 10.5431 10.4827 10.2573C10.7825 9.97173 11.2575 9.98295 11.5432 10.2827L12.1428 10.9126L14.4573 8.48291Z" fill="#48465C"/>
</svg>
