<svg width="24" height="24" viewBox="0 0 24 24" fill="none" xmlns="http://www.w3.org/2000/svg">
<path d="M13.5 1.25C13.9142 1.25 14.25 1.58579 14.25 2C14.25 2.41421 13.9142 2.75 13.5 2.75H12C9.62178 2.75 7.91326 2.75198 6.61328 2.92676C5.33508 3.09865 4.56472 3.42551 3.99512 3.99512C3.42551 4.56472 3.09865 5.33508 2.92676 6.61328C2.75198 7.91326 2.75 9.62178 2.75 12C2.75 14.3782 2.75198 16.0867 2.92676 17.3867C3.09865 18.6649 3.42551 19.4352 3.99512 20.0049C4.56472 20.5745 5.33508 20.9014 6.61328 21.0732C7.91326 21.248 9.62178 21.25 12 21.25C14.3782 21.25 16.0867 21.248 17.3867 21.0732C18.6649 20.9014 19.4352 20.5745 20.0049 20.0049C20.5745 19.4352 20.9014 18.6649 21.0732 17.3867C21.248 16.0867 21.25 14.3782 21.25 12V10.5C21.25 10.0858 21.5858 9.75 22 9.75C22.4142 9.75 22.75 10.0858 22.75 10.5V12.0576C22.75 14.3657 22.7502 16.1745 22.5605 17.5859C22.3662 19.0306 21.9602 20.1706 21.0654 21.0654C20.1706 21.9602 19.0306 22.3662 17.5859 22.5605C16.1745 22.7502 14.3657 22.75 12.0576 22.75H11.9424C9.63432 22.75 7.82544 22.7502 6.41406 22.5605C4.96932 22.3662 3.82938 21.9602 2.93457 21.0654C2.03977 20.1706 1.63369 19.0306 1.43945 17.5859C1.24974 16.1745 1.24999 14.3657 1.25 12.0576V11.9424C1.24999 9.63433 1.24974 7.82544 1.43945 6.41406C1.63369 4.96932 2.03976 3.82938 2.93457 2.93457C3.82938 2.03976 4.96932 1.63369 6.41406 1.43945C7.82544 1.24974 9.63433 1.24999 11.9424 1.25H13.5ZM17 9.25C17.4142 9.25 17.75 9.58579 17.75 10V12.5C17.75 12.9142 17.4142 13.25 17 13.25C16.5858 13.25 16.25 12.9142 16.25 12.5V11.8105L14.2373 13.8232C13.5539 14.5066 12.4461 14.5065 11.7627 13.8232L10.1768 12.2373C10.0791 12.1398 9.92085 12.1398 9.82324 12.2373L7.53027 14.5303C7.23739 14.8232 6.76261 14.8232 6.46973 14.5303C6.17684 14.2374 6.17684 13.7626 6.46973 13.4697L8.7627 11.1768C9.4461 10.4935 10.5539 10.4935 11.2373 11.1768L12.8232 12.7627C12.9209 12.8602 13.0791 12.8602 13.1768 12.7627L15.1895 10.75H14.5C14.0858 10.75 13.75 10.4142 13.75 10C13.75 9.58579 14.0858 9.25 14.5 9.25H17ZM19 1.25C21.0711 1.25 22.75 2.92893 22.75 5C22.75 7.07107 21.0711 8.75 19 8.75C16.9289 8.75 15.25 7.07107 15.25 5C15.25 2.92893 16.9289 1.25 19 1.25ZM19 2.75C17.7574 2.75 16.75 3.75736 16.75 5C16.75 6.24264 17.7574 7.25 19 7.25C20.2426 7.25 21.25 6.24264 21.25 5C21.25 3.75736 20.2426 2.75 19 2.75Z" fill="#1C274C"/>
</svg>
