<svg width="24" height="24" viewBox="0 0 24 24" fill="none" xmlns="http://www.w3.org/2000/svg">
<path fill-rule="evenodd" clip-rule="evenodd" d="M2 11.2499C2.41421 11.2499 2.75 11.5857 2.75 11.9999C2.75003 17.1085 6.89139 21.2499 12 21.2499C17.1086 21.2499 21.25 17.1085 21.25 11.9999H22.75C22.75 17.937 17.9371 22.7499 12 22.7499C6.06296 22.7499 1.25003 17.937 1.25 11.9999C1.25 11.5857 1.58579 11.2499 2 11.2499ZM11.4697 1.46967C11.7626 1.17678 12.2374 1.17678 12.5303 1.46967L18.5303 7.46967C18.8231 7.76256 18.8232 8.23734 18.5303 8.53021C18.2374 8.82308 17.7626 8.82308 17.4697 8.53021L12.75 3.81049V13.9999C12.75 14.4141 12.4142 14.7499 12 14.7499C11.5858 14.7499 11.25 14.4141 11.25 13.9999V3.81049L6.53027 8.53021C6.23739 8.82306 5.76261 8.82306 5.46973 8.53021C5.17685 8.23733 5.17687 7.76256 5.46973 7.46967L11.4697 1.46967Z" fill="#1C274C"/>
</svg>
