<svg width="24" height="24" viewBox="0 0 24 24" fill="none" xmlns="http://www.w3.org/2000/svg">
<path d="M2 11.2501C2.41421 11.2501 2.75 11.5859 2.75 12.0001C2.75003 17.1086 6.89139 21.2501 12 21.2501C17.1086 21.2501 21.25 17.1086 21.25 12.0001H22.75C22.75 17.9371 17.9371 22.7501 12 22.7501C6.06296 22.7501 1.25003 17.9371 1.25 12.0001C1.25 11.5859 1.58579 11.2501 2 11.2501ZM11.4697 1.46979C11.7626 1.1769 12.2374 1.1769 12.5303 1.46979L18.5303 7.46979C18.8231 7.76268 18.8232 8.23746 18.5303 8.53033C18.2374 8.8232 17.7626 8.8232 17.4697 8.53033L12.75 3.81061V14.0001C12.75 14.4142 12.4142 14.7501 12 14.7501C11.5858 14.7501 11.25 14.4142 11.25 14.0001V3.81061L6.53027 8.53033C6.23739 8.82318 5.76261 8.82318 5.46973 8.53033C5.17685 8.23745 5.17687 7.76268 5.46973 7.46979L11.4697 1.46979Z" fill="#48465C"/>
</svg>
