<svg width="24" height="24" viewBox="0 0 24 24" fill="none" xmlns="http://www.w3.org/2000/svg">
<path d="M9.54883 3.25C11.1511 3.24999 12.4205 3.25044 13.4248 3.36914C14.4557 3.491 15.3047 3.74632 16.0137 4.32812C16.2541 4.52544 16.4745 4.74592 16.6719 4.98633C17.2537 5.69525 17.5091 6.54427 17.6309 7.5752C17.6583 7.80688 17.6801 8.05272 17.6963 8.31348C18.4822 7.92182 19.148 7.59959 19.7031 7.41797C20.3544 7.20487 21.0454 7.11911 21.6826 7.5127C22.3199 7.90652 22.5527 8.56329 22.6533 9.24121C22.7505 9.89525 22.75 10.757 22.75 11.792V12.208C22.75 13.243 22.7505 14.1048 22.6533 14.7588C22.5527 15.4367 22.3198 16.0934 21.6826 16.4873C21.0454 16.8809 20.3544 16.7952 19.7031 16.582C19.148 16.4004 18.4822 16.0782 17.6963 15.6865C17.6801 15.9473 17.6583 16.193 17.6309 16.4248C17.5091 17.4557 17.2537 18.3047 16.6719 19.0137C16.4745 19.2541 16.2541 19.4745 16.0137 19.6719C15.3047 20.2537 14.4557 20.5091 13.4248 20.6309C12.4205 20.7496 11.1511 20.75 9.54883 20.75H9.45117C7.84893 20.75 6.57941 20.7496 5.5752 20.6309C4.54427 20.5091 3.69525 20.2537 2.98633 19.6719C2.74592 19.4745 2.52544 19.2541 2.32812 19.0137C1.74632 18.3047 1.491 17.4557 1.36914 16.4248C1.25044 15.4205 1.24999 14.1511 1.25 12.5488V11.4512C1.24999 9.84889 1.25044 8.57942 1.36914 7.5752C1.49101 6.54427 1.74633 5.69525 2.32812 4.98633C2.52544 4.74592 2.74592 4.52544 2.98633 4.32812C3.69525 3.74633 4.54427 3.49101 5.5752 3.36914C6.57942 3.25044 7.84891 3.24999 9.45117 3.25H9.54883ZM9.5 4.75C7.83789 4.75 6.65689 4.75132 5.75098 4.8584C4.8621 4.96351 4.33579 5.16138 3.93848 5.4873C3.77392 5.62235 3.62235 5.77392 3.4873 5.93848C3.16138 6.33579 2.96351 6.8621 2.8584 7.75098C2.75132 8.65689 2.75 9.83789 2.75 11.5V12.5C2.75 14.1621 2.75132 15.3431 2.8584 16.249C2.96351 17.1378 3.16139 17.6642 3.4873 18.0615C3.62235 18.226 3.77392 18.3776 3.93848 18.5127C4.33579 18.8386 4.86209 19.0365 5.75098 19.1416C6.65689 19.2487 7.83789 19.25 9.5 19.25C11.1621 19.25 12.3431 19.2487 13.249 19.1416C14.1379 19.0365 14.6642 18.8386 15.0615 18.5127C15.226 18.3776 15.3776 18.226 15.5127 18.0615C15.8386 17.6642 16.0365 17.1379 16.1416 16.249C16.2487 15.3431 16.25 14.1621 16.25 12.5V11.5C16.25 9.83789 16.2487 8.65689 16.1416 7.75098C16.0365 6.86209 15.8386 6.33579 15.5127 5.93848C15.3776 5.77392 15.226 5.62235 15.0615 5.4873C14.6642 5.16139 14.1378 4.96351 13.249 4.8584C12.3431 4.75132 11.1621 4.75 9.5 4.75ZM20.8945 8.78906C20.8204 8.74327 20.669 8.68047 20.1699 8.84375C19.6601 9.01057 18.9894 9.34416 17.9941 9.8418L17.75 9.96387V14.0361L17.9941 14.1582C18.9894 14.6558 19.6601 14.9894 20.1699 15.1562C20.669 15.3195 20.8204 15.2567 20.8945 15.2109C20.9686 15.1651 21.0918 15.0574 21.1689 14.5381C21.2477 14.0075 21.25 13.2584 21.25 12.1455V11.8545C21.25 10.7417 21.2477 9.99255 21.1689 9.46191C21.0918 8.9426 20.9687 8.83493 20.8945 8.78906ZM10.9092 6.90918C11.7879 6.03051 13.2121 6.03051 14.0908 6.90918C14.9695 7.78786 14.9695 9.21213 14.0908 10.0908C13.2121 10.9695 11.7879 10.9695 10.9092 10.0908C10.0305 9.21213 10.0305 7.78786 10.9092 6.90918ZM13.0303 7.96973C12.7374 7.67684 12.2626 7.67684 11.9697 7.96973C11.6768 8.26261 11.6768 8.73739 11.9697 9.03027C12.2626 9.32316 12.7374 9.32316 13.0303 9.03027C13.3232 8.73739 13.3232 8.26261 13.0303 7.96973Z" fill="#48465C"/>
</svg>
