<svg width="24" height="24" viewBox="0 0 24 24" fill="none" xmlns="http://www.w3.org/2000/svg">
<path d="M19.001 1.25098C21.0719 1.2513 22.7512 2.92995 22.751 5.00098C22.7506 7.07201 21.071 8.75124 19 8.75098L16.75 8.75V15.251H19C21.071 15.2507 22.7506 16.9289 22.751 19C22.7512 21.0711 21.0719 22.7507 19.001 22.751C16.9299 22.7512 15.2513 21.0719 15.251 19.001L15.25 16.75H8.75098V19.001C8.75065 21.0719 7.07102 22.7512 5 22.751C2.92896 22.7507 1.2507 21.0711 1.25098 19C1.2513 16.9289 2.92995 15.2507 5.00098 15.251H7.25V8.75L5.00098 8.75098C2.92995 8.75124 1.2513 7.07201 1.25098 5.00098C1.2507 2.92995 2.92896 1.2513 5 1.25098C7.07102 1.2507 8.75065 2.92896 8.75098 5V7.25H15.25L15.251 5C15.2513 2.92897 16.9299 1.25071 19.001 1.25098ZM5.00098 16.751C3.75837 16.7508 2.75122 17.7574 2.75098 19C2.75078 20.2427 3.75742 21.2507 5 21.251C6.24258 21.2512 7.25068 20.2436 7.25098 19.001V16.751H5.00098ZM16.751 19.001C16.7513 20.2436 17.7584 21.2512 19.001 21.251C20.2436 21.2507 21.2512 20.2426 21.251 19C21.2507 17.7574 20.2427 16.7508 19 16.751H16.75L16.751 19.001ZM8.75 15.25H15.25V8.75H8.75V15.25ZM5 2.75098C3.75742 2.75124 2.75078 3.75838 2.75098 5.00098C2.75124 6.24355 3.75838 7.25117 5.00098 7.25098L7.25098 7.25V5C7.25071 3.75742 6.2426 2.75078 5 2.75098ZM19.001 2.75098C17.7584 2.75078 16.7512 3.75742 16.751 5L16.75 7.25L19 7.25098C20.2427 7.25117 21.2507 6.24355 21.251 5.00098C21.2512 3.7584 20.2436 2.75126 19.001 2.75098Z" fill="#48465C"/>
</svg>
