<svg width="24" height="24" viewBox="0 0 24 24" fill="none" xmlns="http://www.w3.org/2000/svg">
<path d="M12 1.25C16.845 1.25 20.75 5.24452 20.75 10.1436C20.75 12.5086 20.0763 15.0483 18.8848 17.2422C17.6948 19.4334 15.9554 21.3368 13.7803 22.3535C12.6504 22.8816 11.3496 22.8816 10.2197 22.3535C8.04463 21.3368 6.30529 19.4334 5.11523 17.2422C3.92375 15.0483 3.25005 12.5086 3.25 10.1436C3.25 5.24452 7.15501 1.25 12 1.25ZM12 2.75C8.00843 2.75 4.75 6.04773 4.75 10.1436C4.75005 12.2406 5.35257 14.5358 6.43359 16.5264C7.51612 18.5194 9.046 20.1497 10.8545 20.9951C11.582 21.3351 12.418 21.3351 13.1455 20.9951C14.954 20.1497 16.4839 18.5194 17.5664 16.5264C18.6475 14.5358 19.25 12.2406 19.25 10.1436C19.25 6.04773 15.9916 2.75 12 2.75ZM10.9668 5.93164C11.6302 5.68935 12.3697 5.68935 13.0332 5.93164L15.375 6.78711C15.916 6.98475 16.25 7.46743 16.25 8C16.25 8.53257 15.916 9.01524 15.375 9.21289L15.25 9.25879V11.7002C15.25 12.3732 14.8556 13.0288 14.1689 13.2822C13.6438 13.476 12.7788 13.75 12 13.75C11.2212 13.75 10.3562 13.476 9.83105 13.2822C9.14432 13.0288 8.75 12.3732 8.75 11.7002V9.25879L8.625 9.21289C8.08397 9.01525 7.75 8.53257 7.75 8C7.75 7.46743 8.08397 6.98476 8.625 6.78711L10.9668 5.93164ZM13.0332 10.0684C12.3698 10.3106 11.6303 10.3106 10.9668 10.0684L10.25 9.80664V11.7002C10.25 11.8047 10.3065 11.859 10.3496 11.875C10.8508 12.0599 11.5041 12.25 12 12.25C12.4959 12.25 13.1492 12.0599 13.6504 11.875C13.6935 11.859 13.75 11.8047 13.75 11.7002V9.80664L13.0332 10.0684ZM12.5186 7.34082C12.1874 7.2199 11.8126 7.2199 11.4814 7.34082L9.67676 8L11.4814 8.65918C11.8126 8.7801 12.1874 8.7801 12.5186 8.65918L14.3232 8L12.5186 7.34082Z" fill="#1C274C"/>
</svg>
