<svg width="24" height="24" viewBox="0 0 24 24" fill="none" xmlns="http://www.w3.org/2000/svg">
<path d="M18.2798 1.53027C19.3117 0.979304 20.3884 1.29794 21.0474 1.98828C21.7009 2.67283 21.9872 3.75608 21.52 4.80371L14.1577 21.3135C13.3031 23.23 10.6969 23.23 9.84229 21.3135L2.47998 4.80371C2.01282 3.75606 2.29914 2.67283 2.95264 1.98828C3.61168 1.29794 4.68825 0.979305 5.72021 1.53027L11.6235 4.68262C11.862 4.80991 12.138 4.80992 12.3765 4.68262L18.2798 1.53027ZM19.9624 3.02441C19.7007 2.75024 19.3416 2.66356 18.9858 2.85352L13.0825 6.00586C12.4027 6.36871 11.5973 6.36871 10.9175 6.00586L5.01318 2.85352C4.6575 2.66379 4.29927 2.75033 4.0376 3.02441C3.77056 3.30431 3.65051 3.74447 3.8501 4.19238L11.2124 20.7021C11.5384 21.4331 12.4616 21.4331 12.7876 20.7021L20.1499 4.19238C20.3494 3.7445 20.2294 3.3043 19.9624 3.02441Z" fill="#48465C"/>
</svg>
