<svg width="24" height="24" viewBox="0 0 24 24" fill="none" xmlns="http://www.w3.org/2000/svg">
<path d="M12 1.25C17.9371 1.25 22.75 6.06294 22.75 12C22.75 17.9371 17.9371 22.75 12 22.75C6.06294 22.75 1.25 17.9371 1.25 12C1.25 6.06294 6.06294 1.25 12 1.25ZM12 2.75C6.89137 2.75 2.75 6.89137 2.75 12C2.75 17.1086 6.89137 21.25 12 21.25C17.1086 21.25 21.25 17.1086 21.25 12C21.25 6.89137 17.1086 2.75 12 2.75ZM13.9697 8.96973C14.2626 8.67687 14.7374 8.67685 15.0303 8.96973C15.3232 9.26262 15.3232 9.73741 15.0303 10.0303L13.0605 12L15.0303 13.9697C15.3231 14.2626 15.3232 14.7374 15.0303 15.0303C14.7374 15.3232 14.2626 15.3231 13.9697 15.0303L12 13.0605L10.0303 15.0303C9.7374 15.3232 9.26262 15.3232 8.96973 15.0303C8.67684 14.7374 8.67684 14.2625 8.96973 13.9697L10.9395 12L8.96973 10.0303C8.67684 9.73739 8.67684 9.26263 8.96973 8.96973C9.26262 8.67684 9.73738 8.67684 10.0303 8.96973L12 10.9395L13.9697 8.96973Z" fill="#48465C"/>
</svg>
