<svg width="24" height="24" viewBox="0 0 24 24" fill="none" xmlns="http://www.w3.org/2000/svg">
<path d="M11.9997 3.25C12.1985 3.25 12.3893 3.3292 12.53 3.46973L18.53 9.46973C18.7445 9.68423 18.8092 10.0069 18.6931 10.2871C18.5769 10.5674 18.3031 10.75 17.9997 10.75H12.7497V20C12.7497 20.4142 12.4139 20.75 11.9997 20.75C11.5856 20.7498 11.2497 20.4141 11.2497 20V10.75H5.99969C5.69655 10.7499 5.4234 10.5672 5.30731 10.2871C5.19126 10.007 5.25506 9.68423 5.46942 9.46973L11.4694 3.46973C11.6099 3.32915 11.8009 3.25008 11.9997 3.25Z" fill="#1C274C"/>
</svg>
