<svg width="24" height="24" viewBox="0 0 24 24" fill="none" xmlns="http://www.w3.org/2000/svg">
<path d="M11.9996 3.25C12.1984 3.25 12.3892 3.3292 12.5299 3.46973L18.5299 9.46973C18.7444 9.68423 18.8091 10.0069 18.693 10.2871C18.5769 10.5674 18.303 10.75 17.9996 10.75H12.7496V20C12.7496 20.4142 12.4138 20.75 11.9996 20.75C11.5856 20.7498 11.2496 20.4141 11.2496 20V10.75H5.99963C5.69649 10.7499 5.42334 10.5672 5.30725 10.2871C5.1912 10.007 5.25499 9.68423 5.46936 9.46973L11.4694 3.46973C11.6099 3.32915 11.8008 3.25008 11.9996 3.25Z" fill="#48465C"/>
</svg>
