<svg width="24" height="24" viewBox="0 0 24 24" fill="none" xmlns="http://www.w3.org/2000/svg">
<path d="M12 2C16.714 2 19.0708 2.00037 20.5352 3.46484C21.9996 4.9293 22 7.28597 22 12C22 16.714 21.9997 19.0708 20.5352 20.5352C19.0708 21.9997 16.714 22 12 22C7.28597 22 4.9293 21.9996 3.46484 20.5352C2.00037 19.0708 2 16.714 2 12C2 7.28595 2.00037 4.9293 3.46484 3.46484C4.9293 2.00037 7.28595 2 12 2ZM6.5 12C5.75673 12 5.13951 12.5405 5.02051 13.25V14.25H4C3.58586 14.25 3.25011 14.5858 3.25 15C3.25 15.4142 3.58579 15.75 4 15.75H6.30176C7.17049 15.75 7.39878 15.7634 7.59375 15.8428C7.61439 15.8512 7.63511 15.8596 7.65527 15.8691C7.84568 15.9588 8.00956 16.1186 8.59766 16.7578L8.70898 16.8789C9.14605 17.3549 9.49177 17.7309 9.94434 17.958C10.0286 18.0003 10.115 18.0389 10.2031 18.0723C10.6767 18.2517 11.1877 18.2506 11.834 18.25H12.0518C12.6632 18.2505 13.1463 18.2508 13.5986 18.0889C13.6829 18.0587 13.7658 18.0246 13.8467 17.9863C14.2811 17.781 14.6227 17.4395 15.0547 17.0068L15.3584 16.7021C15.9797 16.0807 16.1529 15.9276 16.3506 15.8457C16.5481 15.7639 16.7789 15.75 17.6572 15.75H20C20.4142 15.75 20.75 15.4142 20.75 15C20.7499 14.5858 20.4141 14.25 20 14.25H18.9795V13.25C18.8606 12.5406 18.2432 12.0001 17.5 12H6.5ZM6.5 9C5.67157 9 5 9.67157 5 10.5V11.5C5.41783 11.1862 5.9372 11 6.5 11H17.5C18.0628 11 18.5822 11.1862 19 11.5V10.5C19 9.67157 18.3284 9 17.5 9H6.5ZM6.5 6C5.67157 6 5 6.67157 5 7.5V8.5C5.41783 8.18615 5.9372 8 6.5 8H17.5C18.0628 8 18.5822 8.18615 19 8.5V7.5C19 6.67157 18.3284 6 17.5 6H6.5Z" fill="#1C274C"/>
</svg>
