<svg width="24" height="24" viewBox="0 0 24 24" fill="none" xmlns="http://www.w3.org/2000/svg">
<path d="M14.0495 15.4004C14.3809 15.1519 14.8518 15.2184 15.1003 15.5498L15.8268 16.5186C16.1953 17.01 16.2986 17.1364 16.4186 17.2275C16.4604 17.2592 16.5041 17.2882 16.5495 17.3145C16.68 17.3898 16.8364 17.436 17.4323 17.585L18.9059 17.9531C19.9897 18.224 20.7497 19.1983 20.7497 20.3154C20.7496 21.6601 19.6597 22.75 18.3151 22.75H17.3522C16.8139 22.75 16.5133 22.7501 16.2136 22.7334C15.3283 22.6839 14.4523 22.5252 13.6061 22.2607C13.3196 22.1711 13.0379 22.0651 12.5339 21.876L11.1013 21.3389C9.69788 22.2571 8.05394 22.7499 6.36884 22.75H5.68427C4.33986 22.7498 3.24976 21.6599 3.24969 20.3154C3.24969 19.1983 4.01059 18.224 5.09442 17.9531L6.88739 17.5049C7.14307 17.441 7.21191 17.4224 7.27216 17.3994C7.44515 17.3334 7.60118 17.2295 7.72919 17.0957C7.77374 17.049 7.81723 16.9929 7.97528 16.7822L8.90009 15.5498C9.14865 15.2185 9.61858 15.1519 9.94989 15.4004C10.2812 15.6489 10.3487 16.1188 10.1003 16.4502L9.17548 17.6826C9.16814 17.6924 9.16115 17.7024 9.15399 17.7119C9.02757 17.8806 8.92773 18.013 8.81317 18.1328C8.53136 18.4274 8.18723 18.6554 7.80634 18.8008C7.65165 18.8598 7.49108 18.9002 7.2868 18.9512C7.27531 18.954 7.26342 18.9571 7.25165 18.96L5.4577 19.4082C5.04171 19.5123 4.74969 19.8867 4.74969 20.3154C4.74976 20.8314 5.16829 21.2498 5.68427 21.25H6.36884C7.91448 21.2499 9.41839 20.7486 10.655 19.8213L12.5495 18.4004C12.8809 18.1519 13.3518 18.2184 13.6003 18.5498C13.8487 18.8812 13.7812 19.3511 13.4499 19.5996L12.5456 20.2783L13.0368 20.4629C13.5705 20.663 13.8115 20.7534 14.0534 20.8291C14.7816 21.0567 15.5357 21.1928 16.2975 21.2354C16.5506 21.2494 16.8076 21.25 17.3776 21.25H18.3151C18.8313 21.25 19.2496 20.8316 19.2497 20.3154C19.2497 19.8866 18.9577 19.5122 18.5417 19.4082L17.0681 19.04C17.0406 19.0332 17.0137 19.0262 16.987 19.0195C16.5115 18.9009 16.1358 18.8075 15.8005 18.6143C15.7004 18.5565 15.6035 18.4928 15.5114 18.4229C15.203 18.1889 14.9713 17.8787 14.6774 17.4863C14.6608 17.4641 14.6437 17.4417 14.6266 17.4189L13.9001 16.4502C13.6517 16.119 13.7185 15.649 14.0495 15.4004ZM11.9997 8.27051C12.3865 8.27049 12.8074 8.29109 13.112 8.34277L14.0016 8.49316C16.7473 8.95557 18.7497 11.3528 18.7497 14.1504C18.7498 14.7365 19.0398 15.2809 19.5173 15.6025L19.6188 15.6709C19.7626 15.7676 19.9183 15.8443 20.0817 15.8994L21.239 16.2891C21.6315 16.4213 21.8428 16.8468 21.7106 17.2393C21.5784 17.6318 21.153 17.8431 20.7604 17.7109L19.6032 17.3213C19.3124 17.2234 19.0357 17.0865 18.7809 16.915L18.6794 16.8467C17.7844 16.2438 17.2498 15.2311 17.2497 14.1504C17.2497 12.0738 15.7652 10.3106 13.7526 9.97168L12.861 9.82227C12.6792 9.7914 12.3559 9.77049 11.9997 9.77051C11.6438 9.77054 11.3212 9.79146 11.1393 9.82227L10.2477 9.97168C8.23522 10.3106 6.74969 12.0738 6.74969 14.1504C6.74963 15.2311 6.21497 16.2438 5.32001 16.8467L5.21942 16.915C4.96467 17.0866 4.68803 17.2234 4.39716 17.3213L3.23895 17.7109C2.84653 17.8428 2.42093 17.6316 2.28876 17.2393C2.15675 16.8469 2.36805 16.4213 2.76044 16.2891L3.91864 15.8994C4.08201 15.8443 4.23787 15.7676 4.38153 15.6709L4.48212 15.6025C4.95966 15.2809 5.24963 14.7365 5.24969 14.1504C5.24969 11.3528 7.25304 8.95556 9.99872 8.49316L10.8884 8.34277C11.1927 8.29123 11.6129 8.27054 11.9997 8.27051ZM11.9997 1.25C13.7946 1.25 15.2497 2.70507 15.2497 4.5C15.2497 6.29493 13.7946 7.75 11.9997 7.75C10.2049 7.74985 8.74969 6.29483 8.74969 4.5C8.74969 2.70517 10.2049 1.25015 11.9997 1.25ZM11.9997 2.75C11.0333 2.75015 10.2497 3.5336 10.2497 4.5C10.2497 5.4664 11.0333 6.24985 11.9997 6.25C12.9662 6.25 13.7497 5.4665 13.7497 4.5C13.7497 3.5335 12.9662 2.75 11.9997 2.75Z" fill="#1C274C"/>
</svg>
