<svg width="24" height="24" viewBox="0 0 24 24" fill="none" xmlns="http://www.w3.org/2000/svg">
<path d="M18.5117 3C20.053 3.00006 21.3027 4.20216 21.3027 5.68457C21.3025 7.16682 20.0528 8.3681 18.5117 8.36816C20.053 8.36823 21.3027 9.57035 21.3027 11.0527C21.3027 12.5351 20.0529 13.7363 18.5117 13.7363H12.6973V16.5508C13.1635 16.7323 13.5368 17.0906 13.7256 17.5391H21.3027C21.6878 17.5393 22 17.8405 22 18.2109C21.9998 18.5812 21.6877 18.8816 21.3027 18.8818H13.7256C13.4496 19.5376 12.7808 20 12 20C11.2192 20 10.5504 19.5376 10.2744 18.8818H2.69727C2.31229 18.8816 2.00025 18.5812 2 18.2109C2 17.8405 2.31214 17.5393 2.69727 17.5391H10.2744C10.4632 17.0906 10.8365 16.7323 11.3027 16.5508V13.7363H5.48828C3.94711 13.7363 2.69734 12.5351 2.69727 11.0527C2.69727 9.57034 3.94706 8.36821 5.48828 8.36816C3.94719 8.36812 2.69747 7.16683 2.69727 5.68457C2.69727 4.20215 3.94706 3.00005 5.48828 3H18.5117ZM6.41895 10.1582C5.9052 10.1582 5.48828 10.5586 5.48828 11.0527C5.48836 11.5469 5.90524 11.9473 6.41895 11.9473C6.9325 11.9471 7.34856 11.5468 7.34863 11.0527C7.34863 10.5587 6.93255 10.1584 6.41895 10.1582ZM12.9307 10.3818C12.5454 10.3818 12.2324 10.6821 12.2324 11.0527C12.2325 11.4233 12.5454 11.7236 12.9307 11.7236H18.5117C18.8969 11.7236 19.2089 11.4232 19.209 11.0527C19.209 10.6822 18.897 10.3819 18.5117 10.3818H12.9307ZM6.41895 4.78906C5.9052 4.78906 5.48828 5.19042 5.48828 5.68457C5.48848 6.17855 5.90532 6.5791 6.41895 6.5791C6.93242 6.57892 7.34843 6.17844 7.34863 5.68457C7.34863 5.19053 6.93255 4.78924 6.41895 4.78906ZM12.9307 5.0127C12.5454 5.0127 12.2324 5.31396 12.2324 5.68457C12.2326 6.05501 12.5455 6.35547 12.9307 6.35547H18.5117C18.8968 6.35541 19.2088 6.05498 19.209 5.68457C19.209 5.314 18.897 5.01276 18.5117 5.0127H12.9307Z" fill="#48465C"/>
</svg>
