<svg width="24" height="24" viewBox="0 0 24 24" fill="none" xmlns="http://www.w3.org/2000/svg">
<path fill-rule="evenodd" clip-rule="evenodd" d="M15.3435 1.54052C16.0618 1.24487 16.8276 1.08896 17.5437 1.49853C18.2626 1.9098 18.5109 2.65007 18.6121 3.41747C18.7113 4.16976 18.6962 5.17379 18.6775 6.39794L18.6668 7.12353C18.6547 7.91719 18.6673 8.08903 18.7263 8.22802C18.7833 8.36236 18.8897 8.48135 19.4607 9.00439L19.9841 9.48388C20.8615 10.2875 21.585 10.9507 22.0535 11.5347C22.5397 12.1405 22.8835 12.8232 22.7 13.6284C22.5185 14.4237 21.9207 14.9056 21.2234 15.27C20.5447 15.6247 19.5975 15.9559 18.4412 16.3608L17.7576 16.6001C17.7331 16.6086 17.7095 16.6174 17.6863 16.6255L21.53 20.4702C21.8229 20.7631 21.8229 21.2379 21.53 21.5308C21.2371 21.8235 20.7623 21.8236 20.4695 21.5308L16.4695 17.5308C16.4584 17.5196 16.4476 17.5082 16.4373 17.4966C16.3703 17.6319 16.2865 17.8099 16.1765 18.0493L15.8718 18.7134C15.3538 19.8417 14.9307 20.7637 14.5134 21.4116C14.0878 22.0724 13.553 22.6335 12.7429 22.7349C11.9187 22.8381 11.2791 22.408 10.74 21.855C10.2183 21.3197 9.64633 20.5188 8.95289 19.5474L8.53883 18.9673C8.08613 18.3331 7.98121 18.2148 7.85914 18.145C7.7361 18.0747 7.57825 18.0435 6.79859 17.9722L6.08472 17.9067C4.88849 17.7973 3.90324 17.7077 3.17554 17.5278C2.4265 17.3426 1.72674 17.009 1.40211 16.2436C1.08261 15.4903 1.30973 14.7453 1.67359 14.0513C2.0311 13.3693 2.62462 12.5458 3.35133 11.5376L3.78004 10.9429C4.24716 10.2946 4.34441 10.1359 4.3816 9.97314C4.41788 9.81397 4.39923 9.63902 4.25465 8.86864L4.12281 8.16161C3.8987 6.96767 3.7147 5.98806 3.68531 5.22704C3.65503 4.44241 3.77793 3.68705 4.38062 3.13525C4.98766 2.57965 5.74994 2.53285 6.52125 2.64696C7.26501 2.75702 8.20569 3.04657 9.34742 3.39794L10.0271 3.60693C10.7685 3.83506 10.9289 3.86887 11.0789 3.85009C11.2342 3.83056 11.3948 3.75244 12.0808 3.34618L12.7078 2.97411C13.769 2.3456 14.6377 1.83104 15.3435 1.54052ZM16.7996 2.80028C16.7024 2.74471 16.5073 2.68438 15.9148 2.92821C15.3219 3.17228 14.5466 3.62878 13.4177 4.29736L12.742 4.69775C12.2154 5.01055 11.7706 5.27499 11.2654 5.33837C10.7548 5.40232 10.2655 5.25052 9.69703 5.0747L8.96851 4.85009C7.74929 4.47491 6.91832 4.22161 6.30152 4.13036C5.69892 4.04123 5.50427 4.14014 5.39332 4.24169C5.27833 4.34707 5.16017 4.54369 5.18433 5.16943C5.20893 5.80617 5.36962 6.67576 5.60816 7.94677L5.75074 8.70458C5.86352 9.30126 5.95883 9.80442 5.84449 10.3061C5.73095 10.8043 5.42841 11.2225 5.06519 11.7251L4.60426 12.3638C3.83237 13.4348 3.30356 14.1726 3.00172 14.7485C2.70078 15.3227 2.73295 15.5396 2.78297 15.6577C2.82796 15.7638 2.93956 15.9246 3.53492 16.0718C4.13844 16.2211 5.00879 16.3024 6.28687 16.4194L6.93531 16.479L7.05347 16.4897C7.64596 16.543 8.1609 16.5887 8.60426 16.8423C9.04851 17.0964 9.3474 17.5168 9.69019 17.9985L9.75953 18.0952L10.1355 18.6216C10.8771 19.6602 11.3827 20.3654 11.8142 20.8081C12.2377 21.2425 12.4343 21.2618 12.5564 21.2466C12.6929 21.2295 12.9018 21.1438 13.2527 20.5991C13.6049 20.0521 13.984 19.2295 14.5339 18.0317L14.8621 17.3179C15.1202 16.7539 15.335 16.2856 15.7127 15.9399C16.0918 15.5931 16.5755 15.424 17.1541 15.2222L17.8865 14.9663C19.116 14.5357 19.9579 14.2379 20.5281 13.9399C21.091 13.6457 21.204 13.4437 21.238 13.2944C21.2697 13.1548 21.2617 12.9443 20.8836 12.4731C20.496 11.9902 19.8603 11.4044 18.9226 10.5454L18.447 10.1108L18.3611 10.0317C17.9243 9.63297 17.5462 9.28703 17.3455 8.81396C17.1466 8.34503 17.1548 7.8272 17.1648 7.22021L17.1765 6.43896C17.1963 5.13523 17.2078 4.2432 17.1248 3.61376C17.0421 2.98683 16.8941 2.85441 16.7996 2.80028Z" fill="#1C274C"/>
</svg>
