<svg width="24" height="24" viewBox="0 0 24 24" fill="none" xmlns="http://www.w3.org/2000/svg">
<path d="M12.0566 1.25C13.8943 1.24998 15.3501 1.25016 16.4893 1.40332C17.6615 1.56095 18.6101 1.89332 19.3584 2.6416C20.1066 3.38992 20.439 4.33844 20.5967 5.51074C20.7498 6.64989 20.75 8.10573 20.75 9.94336V13.0566C20.75 14.8943 20.7498 16.3501 20.5967 17.4893C20.439 18.6615 20.1066 19.6101 19.3584 20.3584C18.8993 20.8174 18.3652 21.1207 17.75 21.3223V22C17.75 22.4142 17.4142 22.75 17 22.75H16C15.5858 22.75 15.25 22.4142 15.25 22V21.7041C14.3433 21.7499 13.2853 21.75 12.0566 21.75H11.9434C10.7146 21.75 9.65674 21.7499 8.75 21.7041V22C8.75 22.4142 8.41421 22.75 8 22.75H7C6.58579 22.75 6.25 22.4142 6.25 22V21.3223C5.63476 21.1207 5.10063 20.8174 4.6416 20.3584C3.89332 19.6101 3.56095 18.6615 3.40332 17.4893C3.25016 16.3501 3.24998 14.8943 3.25 13.0566V9.94336C3.24998 8.10571 3.25016 6.64991 3.40332 5.51074C3.56095 4.33844 3.8933 3.38992 4.6416 2.6416C5.38992 1.8933 6.33844 1.56095 7.51074 1.40332C8.6499 1.25016 10.1057 1.24998 11.9434 1.25H12.0566ZM4.75 12.25V13C4.75 14.9067 4.7515 16.2614 4.88965 17.2891C5.02491 18.2951 5.27894 18.8747 5.70215 19.2979C6.12536 19.7211 6.70485 19.9752 7.71094 20.1104C8.73858 20.2485 10.0933 20.25 12 20.25C13.9067 20.25 15.2614 20.2485 16.2891 20.1104C17.2951 19.9752 17.8747 19.7211 18.2979 19.2979C18.7211 18.8747 18.9752 18.2951 19.1104 17.2891C19.2485 16.2614 19.25 14.9067 19.25 13V12.25H4.75ZM17 13.25C17.4142 13.25 17.75 13.5858 17.75 14V16C17.75 16.4142 17.4142 16.75 17 16.75C16.5858 16.75 16.25 16.4142 16.25 16V14C16.25 13.5858 16.5858 13.25 17 13.25ZM12 2.75C10.0933 2.75 8.73858 2.75149 7.71094 2.88965C6.70485 3.02491 6.12536 3.27894 5.70215 3.70215C5.27894 4.12536 5.02491 4.70485 4.88965 5.71094C4.75149 6.73858 4.75 8.09324 4.75 10V10.75H19.25V10C19.25 8.09325 19.2485 6.73858 19.1104 5.71094C18.9752 4.70485 18.7211 4.12536 18.2979 3.70215C17.8747 3.27894 17.2951 3.02491 16.2891 2.88965C15.2614 2.7515 13.9067 2.75 12 2.75ZM17 6.25C17.4142 6.25 17.75 6.58579 17.75 7V9C17.75 9.41421 17.4142 9.75 17 9.75C16.5858 9.75 16.25 9.41421 16.25 9V7C16.25 6.58579 16.5858 6.25 17 6.25Z" fill="#48465C"/>
</svg>
