<svg width="24" height="24" viewBox="0 0 24 24" fill="none" xmlns="http://www.w3.org/2000/svg">
<path d="M12 2C16.714 2 19.0708 2.00037 20.5352 3.46484C21.9996 4.9293 22 7.28597 22 12C22 16.714 21.9997 19.0708 20.5352 20.5352C19.0708 21.9997 16.714 22 12 22C7.28597 22 4.9293 21.9996 3.46484 20.5352C2.00037 19.0708 2 16.714 2 12C2 7.28595 2.00037 4.9293 3.46484 3.46484C4.9293 2.00037 7.28595 2 12 2ZM7.5 12.75C7.08579 12.75 6.75 13.0858 6.75 13.5C6.75 13.9142 7.08579 14.25 7.5 14.25H8.68945L6.46973 16.4697C6.17684 16.7626 6.17684 17.2374 6.46973 17.5303C6.76261 17.8232 7.23739 17.8232 7.53027 17.5303L9.75 15.3105V16.5C9.75 16.9142 10.0858 17.25 10.5 17.25C10.9142 17.25 11.25 16.9142 11.25 16.5V13.5C11.25 13.0858 10.9142 12.75 10.5 12.75H7.5ZM13.5 12.75C13.0858 12.75 12.75 13.0858 12.75 13.5V16.5C12.75 16.9142 13.0858 17.25 13.5 17.25C13.9142 17.25 14.25 16.9142 14.25 16.5V15.3105L16.4697 17.5303C16.7626 17.8232 17.2374 17.8232 17.5303 17.5303C17.8232 17.2374 17.8232 16.7626 17.5303 16.4697L15.3105 14.25H16.5C16.9142 14.25 17.25 13.9142 17.25 13.5C17.25 13.0858 16.9142 12.75 16.5 12.75H13.5ZM7.53027 6.46973C7.23738 6.17684 6.76262 6.17684 6.46973 6.46973C6.17684 6.76262 6.17684 7.23738 6.46973 7.53027L8.68945 9.75H7.5C7.08579 9.75 6.75 10.0858 6.75 10.5C6.75 10.9142 7.08579 11.25 7.5 11.25H10.5C10.9142 11.25 11.25 10.9142 11.25 10.5V7.5C11.25 7.08579 10.9142 6.75 10.5 6.75C10.0858 6.75 9.75 7.08579 9.75 7.5V8.68945L7.53027 6.46973ZM17.5303 6.46973C17.2374 6.17684 16.7626 6.17684 16.4697 6.46973L14.25 8.68945V7.5C14.25 7.08579 13.9142 6.75 13.5 6.75C13.0858 6.75 12.75 7.08579 12.75 7.5V10.5C12.75 10.9142 13.0858 11.25 13.5 11.25H16.5C16.9142 11.25 17.25 10.9142 17.25 10.5C17.25 10.0858 16.9142 9.75 16.5 9.75H15.3105L17.5303 7.53027C17.8232 7.23739 17.8232 6.76261 17.5303 6.46973Z" fill="#1C274C"/>
</svg>
