<svg width="24" height="24" viewBox="0 0 24 24" fill="none" xmlns="http://www.w3.org/2000/svg">
<path d="M11.25 2.75C11.8487 2.75 12.4351 2.80247 13.0049 2.90332C13.0838 4.07436 14.059 5 15.25 5H15.8184L11.6592 9.15918C10.7805 10.0379 10.7805 11.4621 11.6592 12.3408C12.5379 13.2195 13.9621 13.2195 14.8408 12.3408L19 8.18164V8.75C19 9.94104 19.9256 10.9162 21.0967 10.9951C21.1975 11.5649 21.25 12.1513 21.25 12.75C21.25 18.2728 16.7728 22.75 11.25 22.75C5.72715 22.75 1.25 18.2728 1.25 12.75C1.25 7.22715 5.72715 2.75 11.25 2.75ZM21.25 2C21.6642 2 22 2.33579 22 2.75V8.75C22 9.16421 21.6642 9.5 21.25 9.5C20.8358 9.5 20.5 9.16421 20.5 8.75V4.56055L13.7803 11.2803C13.4874 11.5732 13.0126 11.5732 12.7197 11.2803C12.4268 10.9874 12.4268 10.5126 12.7197 10.2197L19.4395 3.5H15.25C14.8358 3.5 14.5 3.16421 14.5 2.75C14.5 2.33579 14.8358 2 15.25 2H21.25Z" fill="#1C274C"/>
</svg>
