<svg width="24" height="24" viewBox="0 0 24 24" fill="none" xmlns="http://www.w3.org/2000/svg">
<path d="M12 2C16.4183 2 20 5.64613 20 10.1436C19.9999 14.6057 17.4466 19.8128 13.4629 21.6748C12.5344 22.1088 11.4656 22.1088 10.5371 21.6748C6.55341 19.8128 4.0001 14.6057 4 10.1436C4 5.64613 7.58172 2 12 2ZM13.0332 5.93164C12.3697 5.68935 11.6302 5.68935 10.9668 5.93164L8.625 6.78711C8.08397 6.98476 7.75 7.46743 7.75 8C7.75 8.53257 8.08397 9.01525 8.625 9.21289L8.75 9.25879V11.7002C8.75 12.3732 9.14432 13.0288 9.83105 13.2822C10.3562 13.476 11.2212 13.75 12 13.75C12.7788 13.75 13.6438 13.476 14.1689 13.2822C14.8556 13.0288 15.25 12.3732 15.25 11.7002V9.25879L15.375 9.21289C15.916 9.01524 16.25 8.53257 16.25 8C16.25 7.46743 15.916 6.98475 15.375 6.78711L13.0332 5.93164ZM13.75 11.7002C13.75 11.8047 13.6934 11.8589 13.6504 11.875C13.1492 12.0599 12.4959 12.25 12 12.25C11.5041 12.25 10.8508 12.0599 10.3496 11.875C10.3066 11.8589 10.25 11.8047 10.25 11.7002V9.80664L10.9668 10.0684C11.6303 10.3107 12.3698 10.3107 13.0332 10.0684L13.75 9.80664V11.7002ZM11.4814 7.34082C11.8126 7.2199 12.1874 7.2199 12.5186 7.34082L14.3232 8L12.5186 8.65918C12.1874 8.7801 11.8126 8.7801 11.4814 8.65918L9.67676 8L11.4814 7.34082Z" fill="#1C274C"/>
</svg>
