<svg width="24" height="24" viewBox="0 0 24 24" fill="none" xmlns="http://www.w3.org/2000/svg">
<path d="M12.0002 1.25C12.8332 1.25011 13.422 1.77408 13.8987 2.39648C14.367 3.00804 14.8641 3.89853 15.4709 4.9873L15.8293 5.63086C16.2217 6.33458 16.3226 6.48445 16.4485 6.58008C16.5697 6.6721 16.7262 6.72376 17.4895 6.89648L18.1897 7.05469C19.3653 7.32065 20.3339 7.54039 21.0393 7.81836C21.7714 8.10691 22.4118 8.53206 22.6584 9.3252C22.9025 10.1103 22.6283 10.8323 22.2043 11.5059C21.7923 12.1604 21.1341 12.9301 20.3303 13.8701L19.8557 14.4248C19.3389 15.0291 19.2307 15.1776 19.1799 15.3408C19.1284 15.5072 19.1332 15.7 19.2112 16.5049L19.2834 17.2432C19.4051 18.4993 19.5038 19.5236 19.469 20.3037C19.4337 21.0975 19.2537 21.8599 18.5989 22.3574C17.9313 22.8641 17.1543 22.8075 16.4045 22.5928C15.6775 22.3845 14.7708 21.9667 13.6702 21.46L13.0149 21.1582C12.2979 20.8281 12.1441 20.7745 12.0002 20.7744C11.8564 20.7744 11.7026 20.828 10.9856 21.1582L10.3293 21.46C9.22897 21.9666 8.32289 22.3845 7.59595 22.5928C6.84617 22.8076 6.06913 22.8641 5.40161 22.3574C4.74643 21.8599 4.56589 21.0977 4.53052 20.3037C4.49577 19.5236 4.5953 18.4992 4.71704 17.2432L4.78833 16.5049C4.86635 15.6997 4.87122 15.5072 4.81958 15.3408C4.76881 15.1776 4.66081 15.0293 4.1438 14.4248L3.66919 13.8701C2.86534 12.9302 2.20717 12.1604 1.79517 11.5059C1.37123 10.8324 1.09707 10.1101 1.34106 9.3252C1.58773 8.53198 2.22899 8.10691 2.96118 7.81836C3.66653 7.54042 4.63523 7.32063 5.81079 7.05469L5.87427 7.04004L6.51001 6.89648C7.27321 6.72381 7.42979 6.67206 7.55103 6.58008C7.67698 6.48446 7.77763 6.33503 8.17017 5.63086L8.52856 4.9873C9.13542 3.89861 9.63252 3.00807 10.1008 2.39648C10.5774 1.77401 11.1671 1.25 12.0002 1.25ZM12.0002 2.75C11.8866 2.75 11.6853 2.79435 11.2922 3.30762C10.8984 3.82177 10.4534 4.6154 9.80786 5.77344L9.48071 6.36133C9.46096 6.39676 9.44143 6.43204 9.42212 6.4668C9.12139 7.00799 8.86726 7.46491 8.45825 7.77539C8.04488 8.0891 7.54093 8.20238 6.95532 8.33398C6.91769 8.34243 6.87937 8.35071 6.84106 8.35938L6.20532 8.50391C4.95002 8.78793 4.09592 8.98335 3.51099 9.21387C2.94019 9.43881 2.8196 9.62282 2.77368 9.77051C2.72522 9.92637 2.72349 10.165 3.0647 10.707C3.41103 11.2572 3.99544 11.9432 4.84985 12.9424L5.28345 13.4502C5.30861 13.4796 5.33397 13.5083 5.35864 13.5371C5.76155 14.0071 6.098 14.399 6.2522 14.8945C6.40541 15.3872 6.35478 15.9055 6.29321 16.5332C6.28945 16.5715 6.2853 16.6102 6.28149 16.6494L6.21606 17.3271C6.087 18.6591 6.0001 19.5767 6.02954 20.2373C6.05895 20.8966 6.19811 21.0791 6.30884 21.1631C6.40741 21.2378 6.59016 21.3202 7.18286 21.1504C7.78566 20.9777 8.58688 20.6114 9.76196 20.0703L10.3577 19.7959C10.3944 19.779 10.431 19.7618 10.467 19.7451C11.0118 19.4933 11.4846 19.2744 12.0002 19.2744C12.5158 19.2745 12.9887 19.4934 13.5334 19.7451C13.5694 19.7618 13.6053 19.7791 13.6418 19.7959L14.2375 20.0703C15.4129 20.6115 16.2147 20.9777 16.8176 21.1504C17.4108 21.3204 17.5932 21.2379 17.6917 21.1631C17.8023 21.0791 17.9415 20.8965 17.9709 20.2373C18.0003 19.5767 17.9135 18.6591 17.7844 17.3271L17.718 16.6494C17.7142 16.6102 17.7111 16.5715 17.7073 16.5332C17.6458 15.9055 17.5951 15.3872 17.7483 14.8945C17.9025 14.3991 18.238 14.0071 18.6409 13.5371C18.6655 13.5084 18.6909 13.4796 18.7161 13.4502L19.1497 12.9424C20.004 11.9433 20.5884 11.2572 20.9348 10.707C21.2759 10.1651 21.2753 9.92637 21.2268 9.77051C21.1809 9.62285 21.06 9.43874 20.4895 9.21387C19.9046 8.98336 19.0503 8.78791 17.7952 8.50391L17.1584 8.35938C17.1204 8.35075 17.0826 8.3424 17.0452 8.33398C16.4595 8.20236 15.9547 8.08922 15.5413 7.77539C15.1324 7.46495 14.8791 7.00785 14.5784 6.4668C14.5591 6.43206 14.5395 6.39674 14.5198 6.36133L14.1917 5.77344C13.5461 4.61548 13.1019 3.82175 12.7083 3.30762C12.3153 2.79455 12.1141 2.75007 12.0002 2.75Z" fill="#1C274C"/>
</svg>
