<svg width="24" height="24" viewBox="0 0 24 24" fill="none" xmlns="http://www.w3.org/2000/svg">
<path d="M12 2C17.5228 2 22 6.47715 22 12C22 17.5228 17.5228 22 12 22C6.47715 22 2 17.5228 2 12C2 6.47715 6.47715 2 12 2ZM12 5.25C11.5858 5.25 11.25 5.58579 11.25 6V6.31641C9.61957 6.60835 8.25 7.83361 8.25 9.5C8.25 11.1664 9.61957 12.3916 11.25 12.6836V16.1523C10.3141 15.8964 9.75 15.1785 9.75 14.5C9.75 14.0858 9.41421 13.75 9 13.75C8.58579 13.75 8.25 14.0858 8.25 14.5C8.25 16.1664 9.61957 17.3916 11.25 17.6836V18C11.25 18.4142 11.5858 18.75 12 18.75C12.4142 18.75 12.75 18.4142 12.75 18V17.6836C14.3804 17.3916 15.75 16.1664 15.75 14.5C15.75 12.8336 14.3804 11.6084 12.75 11.3164V7.84766C13.6859 8.10358 14.25 8.82155 14.25 9.5C14.25 9.91421 14.5858 10.25 15 10.25C15.4142 10.25 15.75 9.91421 15.75 9.5C15.75 7.83361 14.3804 6.60835 12.75 6.31641V6C12.75 5.58579 12.4142 5.25 12 5.25ZM12.75 12.8477C13.6858 13.1035 14.2499 13.8215 14.25 14.5C14.25 15.1785 13.6859 15.8964 12.75 16.1523V12.8477ZM11.25 11.1523C10.3142 10.8964 9.75 10.1785 9.75 9.5C9.7501 8.82159 10.3142 8.10354 11.25 7.84766V11.1523Z" fill="#48465C"/>
</svg>
