<svg width="24" height="24" viewBox="0 0 24 24" fill="none" xmlns="http://www.w3.org/2000/svg">
<path d="M7.5 7.75C8.43462 7.75 8.90192 7.75021 9.25 7.95117C9.47796 8.0828 9.6672 8.27204 9.79883 8.5C9.99979 8.84808 10 9.31538 10 10.25V19.25C10 20.1846 9.99979 20.6519 9.79883 21C9.66719 21.2279 9.47797 21.4172 9.25 21.5488C8.90192 21.7498 8.43462 21.75 7.5 21.75C6.56538 21.75 6.09808 21.7498 5.75 21.5488C5.52203 21.4172 5.33281 21.2279 5.20117 21C5.00021 20.6519 5 20.1846 5 19.25V10.25C5 9.31538 5.00021 8.84808 5.20117 8.5C5.3328 8.27204 5.52204 8.0828 5.75 7.95117C6.09808 7.75021 6.56538 7.75 7.5 7.75ZM16.5 7.75C17.4346 7.75 17.9019 7.75021 18.25 7.95117C18.4779 8.08281 18.6672 8.27203 18.7988 8.5C18.9998 8.84808 19 9.31538 19 10.25V16.25C19 17.1846 18.9998 17.6519 18.7988 18C18.6672 18.2279 18.4779 18.4172 18.25 18.5488C17.9019 18.7498 17.4346 18.75 16.5 18.75C15.5654 18.75 15.0981 18.7498 14.75 18.5488C14.5221 18.4172 14.3328 18.2279 14.2012 18C14.0002 17.6519 14 17.1846 14 16.25V10.25C14 9.31538 14.0002 8.84808 14.2012 8.5C14.3328 8.27203 14.5221 8.08281 14.75 7.95117C15.0981 7.75021 15.5654 7.75 16.5 7.75ZM22 3C22.4142 3 22.75 3.33579 22.75 3.75C22.75 4.16421 22.4142 4.5 22 4.5H2C1.58579 4.5 1.25 4.16421 1.25 3.75C1.25 3.33579 1.58579 3 2 3H22Z" fill="#1C274C"/>
</svg>
