<svg width="24" height="24" viewBox="0 0 24 24" fill="none" xmlns="http://www.w3.org/2000/svg">
<path d="M12.001 14.25C12.4152 14.25 12.751 14.5858 12.751 15V17.1631L14.624 16.082C14.9827 15.8749 15.4413 15.9977 15.6484 16.3564C15.8555 16.7152 15.7327 17.1737 15.374 17.3809L13.501 18.4619L15.377 19.5449C15.7355 19.752 15.8581 20.2107 15.6514 20.5693C15.4444 20.9279 14.9857 21.0515 14.627 20.8447L12.751 19.7617V22C12.751 22.4142 12.4152 22.75 12.001 22.75C11.5868 22.75 11.251 22.4142 11.251 22V19.7617L9.375 20.8447C9.01634 21.0515 8.55762 20.9279 8.35059 20.5693C8.14384 20.2107 8.26648 19.752 8.625 19.5449L10.501 18.4619L8.62793 17.3809C8.26926 17.1737 8.14642 16.7152 8.35352 16.3564C8.56063 15.9978 9.01921 15.8749 9.37793 16.082L11.251 17.1631V15C11.251 14.5858 11.5868 14.25 12.001 14.25ZM12.4766 3C15.416 3.00018 17.8371 5.19364 18.1553 8.01465C20.393 8.77989 21.9998 10.8809 22 13.3525C22 16.2701 19.7612 18.671 16.8887 18.9688L16 19L16.4375 18.4619C17.2661 17.7747 17.5036 16.5702 16.9473 15.6064C16.3907 14.6426 15.2284 14.2457 14.2188 14.6201C14.0382 13.5585 13.1139 12.7502 12.001 12.75C10.8877 12.75 9.96276 13.5583 9.78223 14.6201C8.77257 14.2458 7.61021 14.6426 7.05371 15.6064C6.49733 16.5703 6.73562 17.7747 7.56445 18.4619L8 19H6.28613C3.9192 19 2 17.1037 2 14.7646C2.00003 12.4256 3.91922 10.5293 6.28613 10.5293C6.57011 10.5293 6.84768 10.5572 7.11621 10.6094C6.88716 9.99839 6.76177 9.33713 6.76172 8.64746C6.76172 5.52867 9.32064 3 12.4766 3Z" fill="#1C274C"/>
</svg>
