<svg width="24" height="24" viewBox="0 0 24 24" fill="none" xmlns="http://www.w3.org/2000/svg">
<path d="M5.13477 1C6.41671 1 7.56974 1.78049 8.0459 2.9707L8.15625 3.24609C8.94953 3.04486 9.81071 3.09187 10.6221 3.43848C11.6371 3.87226 12.3756 4.69037 12.7539 5.65039C12.9024 6.0273 12.7246 6.45407 12.3525 6.61426L6.39258 9.18066C6.20618 9.2609 5.99497 9.26156 5.80762 9.18359C5.62024 9.10559 5.47187 8.95544 5.39746 8.7666C5.01928 7.80678 4.99673 6.69513 5.41699 5.66016C5.71619 4.92337 6.20236 4.31896 6.79688 3.88574L6.65332 3.52832C6.40499 2.90752 5.8034 2.5 5.13477 2.5C4.23201 2.50021 3.50021 3.23201 3.5 4.13477V11H21.75C22.1642 11 22.5 11.3358 22.5 11.75C22.5 12.1642 22.1642 12.5 21.75 12.5H21.4824C21.4889 12.545 21.4931 12.5907 21.4961 12.6367C21.4999 12.6942 21.5 12.7565 21.5 12.8164V12.8545C21.5 13.2298 21.4999 13.4499 21.4844 13.6953C21.3423 15.9315 20.1341 17.9963 18.3828 19.3467C18.3965 19.3684 18.4091 19.3915 18.4209 19.415L19.4209 21.415C19.6059 21.7853 19.4562 22.2355 19.0859 22.4209C18.7155 22.6061 18.2645 22.4563 18.0791 22.0859L17.1113 20.1504C16.3097 20.5561 15.4379 20.8232 14.5312 20.915C14.2869 20.9398 14.137 20.9455 13.8828 20.9551H13.876C13.1359 20.9829 12.4114 21 11.75 21C11.0886 21 10.3641 20.9829 9.62402 20.9551H9.61719C9.36307 20.9455 9.21319 20.9398 8.96875 20.915C8.06209 20.8232 7.19027 20.5561 6.38867 20.1504L5.4209 22.0859C5.2356 22.4562 4.78539 22.6059 4.41504 22.4209C4.04465 22.2356 3.89408 21.7854 4.0791 21.415L5.0791 19.415C5.09073 19.3917 5.10356 19.3691 5.11719 19.3477C3.36569 17.9973 2.1576 15.9317 2.01562 13.6953C2.00006 13.4499 1.99999 13.2297 2 12.8545V12.5H1.75C1.33579 12.5 1 12.1642 1 11.75C1 11.3358 1.33579 11 1.75 11H2V4.13477C2.00021 2.40358 3.40358 1.00021 5.13477 1Z" fill="#1C274C"/>
</svg>
