<svg width="24" height="24" viewBox="0 0 24 24" fill="none" xmlns="http://www.w3.org/2000/svg">
<path d="M13.583 11.309C13.8603 11.1918 14.1813 11.2517 14.3975 11.4613L18.5225 15.4613C18.6682 15.6026 18.75 15.7975 18.75 16.0004C18.7499 16.2031 18.668 16.3973 18.5225 16.5385L14.3975 20.5385C14.1812 20.7482 13.8603 20.808 13.583 20.6908C13.3056 20.5734 13.1251 20.3015 13.125 20.0004V16.7504H6C5.58589 16.7504 5.25016 16.4144 5.25 16.0004C5.25 15.5862 5.58579 15.2504 6 15.2504H13.125V12.0004C13.125 11.6992 13.3055 11.4265 13.583 11.309ZM9.60254 3.4613C9.8187 3.2517 10.1397 3.19178 10.417 3.30896C10.6945 3.42638 10.875 3.69912 10.875 4.00037V7.25037H18C18.4142 7.25037 18.75 7.58616 18.75 8.00037C18.7498 8.41444 18.4141 8.75037 18 8.75037H10.875V12.0004C10.8749 12.3015 10.6944 12.5734 10.417 12.6908C10.1397 12.808 9.81874 12.7482 9.60254 12.5385L5.47754 8.53845C5.33206 8.39729 5.25008 8.20308 5.25 8.00037C5.25 7.79746 5.33187 7.60255 5.47754 7.4613L9.60254 3.4613Z" fill="#1C274C"/>
</svg>
