<svg width="24" height="24" viewBox="0 0 24 24" fill="none" xmlns="http://www.w3.org/2000/svg">
<path d="M14.0176 4.45898C17.6536 3.16166 19.4722 2.51346 20.7363 3.42773C22 4.34213 22 6.30573 22 10.2324V15.8838C22 18.7669 21.9997 20.2088 21.1211 21.1045C20.2424 22 18.8281 22 16 22H8C5.17188 22 3.75761 22 2.87891 21.1045C2.00027 20.2088 2 18.7669 2 15.8838V13.0869C2 10.9906 2.00046 9.94242 2.55371 9.14746C3.00036 8.5058 3.71855 8.15579 5 7.68066V7.05957C5 5.75518 5.00004 5.10277 5.33789 4.65332C5.42494 4.5376 5.52718 4.43353 5.64062 4.34473C6.08129 4.00006 6.72091 4 8 4H8.81836C9.32543 4 9.57906 3.9998 9.78711 4.05664C10.3518 4.21099 10.793 4.6613 10.9443 5.2373L11.0166 5.53027L14.0176 4.45898ZM16.5303 9.46973C16.2374 9.17684 15.7626 9.17684 15.4697 9.46973L13.8506 11.0889C13.4187 10.9997 12.8313 11 12 11C11.1564 11 10.5644 10.9996 10.1309 11.0928C10.1025 11.049 10.0686 11.008 10.0303 10.9697L8.53027 9.46973C8.23738 9.17684 7.76262 9.17684 7.46973 9.46973C7.17687 9.76262 7.17685 10.2374 7.46973 10.5303L8.96973 12.0303C9.00808 12.0687 9.04997 12.1015 9.09375 12.1299C9.00041 12.5635 9 13.1561 9 14C9 14.831 8.99974 15.4178 9.08887 15.8496L7.46973 17.4697C7.17685 17.7626 7.17684 18.2374 7.46973 18.5303C7.76261 18.8231 8.23739 18.8231 8.53027 18.5303L10.1494 16.9111C10.5813 17.0003 11.1687 17 12 17C12.8313 17 13.4187 17.0003 13.8506 16.9111L15.4697 18.5303C15.7626 18.8231 16.2374 18.8231 16.5303 18.5303C16.8232 18.2374 16.8231 17.7626 16.5303 17.4697L14.9111 15.8496C15.0002 15.4178 15 14.831 15 14C15 13.1687 15.0003 12.5813 14.9111 12.1494L16.5303 10.5303C16.8232 10.2374 16.8231 9.76262 16.5303 9.46973Z" fill="#1C274C"/>
</svg>
