<svg width="24" height="24" viewBox="0 0 24 24" fill="none" xmlns="http://www.w3.org/2000/svg">
<path d="M14.8096 4.16406C14.9708 3.78265 15.4105 3.60444 15.792 3.76562C19.2916 5.24435 21.75 8.70907 21.75 12.75C21.75 18.1348 17.3848 22.5 12 22.5C6.61522 22.5 2.25 18.1348 2.25 12.75C2.25002 8.70907 4.70838 5.24435 8.20801 3.76562C8.5895 3.60444 9.02915 3.78264 9.19043 4.16406C9.35161 4.54554 9.17339 4.9852 8.79199 5.14648C5.8279 6.39883 3.75002 9.33285 3.75 12.75C3.75 17.3064 7.44365 21 12 21C16.5563 21 20.25 17.3064 20.25 12.75C20.25 9.33285 18.1721 6.39883 15.208 5.14648C14.8266 4.9852 14.6484 4.54554 14.8096 4.16406ZM12 1.25C12.4142 1.25 12.75 1.58579 12.75 2V6.75C12.75 7.16421 12.4142 7.5 12 7.5C11.5858 7.5 11.25 7.16421 11.25 6.75V2C11.25 1.58579 11.5858 1.25 12 1.25Z" fill="#1C274C"/>
</svg>
