<svg width="24" height="24" viewBox="0 0 24 24" fill="none" xmlns="http://www.w3.org/2000/svg">
<path d="M13 2C14.8856 2 15.8283 2.00015 16.4141 2.58594C16.9998 3.17172 17 4.11438 17 6V21.25H18.5V14.75H19.5C19.9142 14.75 20.25 14.4142 20.25 14C20.25 13.5858 19.9142 13.25 19.5 13.25H18.5V11.75H19.5C19.9142 11.75 20.25 11.4142 20.25 11C20.25 10.5858 19.9142 10.25 19.5 10.25H18.5V8.75H19.5C19.9142 8.75 20.25 8.41421 20.25 8C20.25 7.58579 19.9142 7.25 19.5 7.25H18.5V5.91016C18.5 5.59644 18.5002 5.29217 18.4961 5.00098C19.5774 5.00561 20.1701 5.04211 20.6113 5.33691C20.8297 5.48281 21.0172 5.67034 21.1631 5.88867C21.5001 6.39312 21.5 7.09554 21.5 8.5V21.25H22C22.4142 21.25 22.75 21.5858 22.75 22C22.75 22.4142 22.4142 22.75 22 22.75H2C1.58579 22.75 1.25 22.4142 1.25 22C1.25 21.5858 1.58579 21.25 2 21.25H2.5V8.5C2.5 7.09554 2.49985 6.39312 2.83691 5.88867C2.98281 5.67034 3.17034 5.48281 3.38867 5.33691C3.82988 5.04211 4.42258 5.00561 5.50391 5.00098C5.4998 5.29217 5.49996 5.59644 5.5 5.91016V7.25H4.5C4.08579 7.25 3.75 7.58579 3.75 8C3.75 8.41421 4.08579 8.75 4.5 8.75H5.5V10.25H4.5C4.08579 10.25 3.75 10.5858 3.75 11C3.75 11.4142 4.08579 11.75 4.5 11.75H5.5V13.25H4.5C4.08579 13.25 3.75 13.5858 3.75 14C3.75 14.4142 4.08579 14.75 4.5 14.75H5.5V21.25H7V6C7 4.11438 7.00015 3.17172 7.58594 2.58594C8.17172 2.00015 9.11438 2 11 2H13ZM12 18.25C11.5858 18.25 11.25 18.5858 11.25 19V21.25H12.75V19C12.75 18.5858 12.4142 18.25 12 18.25ZM10 14.25C9.58579 14.25 9.25 14.5858 9.25 15C9.25 15.4142 9.58579 15.75 10 15.75H14C14.4142 15.75 14.75 15.4142 14.75 15C14.75 14.5858 14.4142 14.25 14 14.25H10ZM10 11.25C9.58579 11.25 9.25 11.5858 9.25 12C9.25 12.4142 9.58579 12.75 10 12.75H14C14.4142 12.75 14.75 12.4142 14.75 12C14.75 11.5858 14.4142 11.25 14 11.25H10ZM12 4.25C11.5858 4.25 11.25 4.58579 11.25 5V6.25H10C9.58579 6.25 9.25 6.58579 9.25 7C9.25 7.41421 9.58579 7.75 10 7.75H11.25V9C11.25 9.41421 11.5858 9.75 12 9.75C12.4142 9.75 12.75 9.41421 12.75 9V7.75H14C14.4142 7.75 14.75 7.41421 14.75 7C14.75 6.58579 14.4142 6.25 14 6.25H12.75V5C12.75 4.58579 12.4142 4.25 12 4.25Z" fill="#48465C"/>
</svg>
