<svg width="24" height="24" viewBox="0 0 24 24" fill="none" xmlns="http://www.w3.org/2000/svg">
<path d="M17.8799 7.25C18.0786 7.25 18.2695 7.32929 18.4102 7.46973C18.5506 7.61035 18.6299 7.80125 18.6299 8C18.6298 8.19869 18.5506 8.38969 18.4102 8.53027L10.4102 16.5303C10.2695 16.6706 10.0785 16.749 9.87988 16.749C9.68121 16.749 9.49019 16.6707 9.34961 16.5303L5.34961 12.5303C5.21713 12.3881 5.14501 12.1992 5.14844 12.0049C5.15197 11.8108 5.23097 11.6256 5.36816 11.4883C5.50558 11.3509 5.69144 11.272 5.88574 11.2686C6.07997 11.2652 6.26803 11.3373 6.41016 11.4697L9.87012 14.9395L17.3496 7.46973C17.4902 7.32932 17.6812 7.25005 17.8799 7.25Z" fill="#48465C"/>
</svg>
