<svg width="24" height="24" viewBox="0 0 24 24" fill="none" xmlns="http://www.w3.org/2000/svg">
<path fill-rule="evenodd" clip-rule="evenodd" d="M11.2948 1.25C12.064 1.25 12.7092 1.56987 13.3446 2.05469C13.9536 2.51928 14.6343 3.19971 15.4696 4.03516L15.7138 4.2793C15.9526 4.04151 16.1656 3.841 16.3993 3.70605C17.1146 3.2932 17.9956 3.29324 18.7108 3.70605C18.9771 3.85978 19.2166 4.09888 19.498 4.38086L19.6191 4.50195C19.901 4.78338 20.1402 5.02279 20.2939 5.28906C20.7069 6.00447 20.7069 6.88617 20.2939 7.60156C20.159 7.83509 19.9582 8.04752 19.7206 8.28613L19.9648 8.53027C20.8002 9.36568 21.4806 10.0463 21.9452 10.6553C22.4301 11.2908 22.7499 11.9359 22.7499 12.7051C22.7499 13.4742 22.4301 14.1194 21.9452 14.7549C21.4807 15.3637 20.8 16.0437 19.9648 16.8789L19.8886 16.9561C19.0531 17.7915 18.3724 18.4719 17.7636 18.9365C17.1281 19.4214 16.4829 19.7412 15.7138 19.7412C14.9447 19.7411 14.2994 19.4214 13.664 18.9365C13.0552 18.472 12.3752 17.7913 11.54 16.9561L11.2948 16.7109L6.30167 21.7041C6.28122 21.7246 6.26112 21.7455 6.24112 21.7656C5.95984 22.0475 5.72115 22.2868 5.45499 22.4404C4.73959 22.8535 3.85788 22.8535 3.14249 22.4404C2.87631 22.2868 2.63767 22.0475 2.35636 21.7656C2.33637 21.7455 2.31626 21.7246 2.29581 21.7041C2.27541 21.6838 2.25525 21.6635 2.23526 21.6436C1.95328 21.3622 1.7132 21.1237 1.55948 20.8574C1.14654 20.1421 1.14649 19.2603 1.55948 18.5449C1.7132 18.2787 1.95329 18.0402 2.23526 17.7588L7.28898 12.7051L7.04484 12.4609C6.20936 11.6254 5.52799 10.9448 5.06339 10.3359C4.57855 9.70046 4.25871 9.05528 4.2587 8.28613C4.2587 7.51699 4.57856 6.87179 5.06339 6.23633C5.528 5.62738 6.20934 4.94679 7.04484 4.11133L7.12101 4.03516C7.95637 3.19975 8.63711 2.51926 9.24601 2.05469C9.88133 1.56999 10.5259 1.2501 11.2948 1.25ZM3.35636 18.7588C2.98028 19.1349 2.90037 19.224 2.85929 19.2949C2.7142 19.5462 2.7142 19.8561 2.85929 20.1074C2.90034 20.1785 2.98017 20.2674 3.35636 20.6436C3.73295 21.0201 3.82143 21.1006 3.89249 21.1416C4.14375 21.2867 4.4537 21.2866 4.70499 21.1416C4.77605 21.1006 4.86453 21.0201 5.24112 20.6436L10.2343 15.6504L8.34952 13.7656L3.35636 18.7588ZM11.2948 2.75C10.9856 2.75009 10.6571 2.86416 10.1552 3.24707C9.6359 3.6433 9.02617 4.25109 8.14347 5.13379C7.26062 6.01664 6.65302 6.62714 6.25675 7.14648C5.87369 7.64855 5.7587 7.97679 5.7587 8.28613C5.75871 8.59546 5.8737 8.92373 6.25675 9.42578C6.65302 9.94511 7.26064 10.5557 8.14347 11.4385L12.5624 15.8564C13.4453 16.7393 14.0547 17.3478 14.5741 17.7441C15.076 18.127 15.4046 18.2412 15.7138 18.2412C16.023 18.2412 16.3516 18.1269 16.8534 17.7441C17.3728 17.3478 17.9832 16.7393 18.8661 15.8564C19.7488 14.9737 20.3566 14.364 20.7528 13.8447C21.1358 13.3427 21.2499 13.0143 21.2499 12.7051C21.2499 12.3957 21.1358 12.0674 20.7528 11.5654C20.3565 11.046 19.749 10.4356 18.8661 9.55273L14.4472 5.13379C13.5644 4.25097 12.9538 3.64331 12.4345 3.24707C11.9327 2.86421 11.6042 2.75 11.2948 2.75ZM17.9608 5.00488C17.7097 4.86008 17.4004 4.86004 17.1493 5.00488C17.0899 5.03921 17.0179 5.10098 16.7753 5.34082L18.6591 7.22461C18.8983 6.98256 18.9606 6.91095 18.995 6.85156C19.1401 6.60029 19.14 6.29034 18.995 6.03906C18.9539 5.968 18.8745 5.87854 18.498 5.50195C18.1215 5.12547 18.0318 5.04591 17.9608 5.00488Z" fill="#1C274C"/>
</svg>
