<svg width="24" height="24" viewBox="0 0 24 24" fill="none" xmlns="http://www.w3.org/2000/svg">
<path d="M11.2947 1.25C12.0638 1.25 12.709 1.56987 13.3445 2.05469C13.9535 2.51928 14.6341 3.19971 15.4695 4.03516L15.7136 4.2793C15.9524 4.04151 16.1655 3.841 16.3992 3.70605C17.1144 3.2932 17.9954 3.29324 18.7107 3.70605C18.977 3.85978 19.2164 4.09888 19.4978 4.38086L19.6189 4.50195C19.9008 4.78338 20.14 5.02279 20.2937 5.28906C20.7068 6.00447 20.7068 6.88617 20.2937 7.60156C20.1588 7.83509 19.9581 8.04752 19.7205 8.28613L19.9646 8.53027C20.8001 9.36568 21.4805 10.0463 21.9451 10.6553C22.43 11.2908 22.7498 11.9359 22.7498 12.7051C22.7497 13.4742 22.4299 14.1194 21.9451 14.7549C21.4805 15.3637 20.7999 16.0437 19.9646 16.8789L19.8884 16.9561C19.053 17.7915 18.3723 18.4719 17.7634 18.9365C17.128 19.4214 16.4828 19.7412 15.7136 19.7412C14.9445 19.7411 14.2993 19.4214 13.6638 18.9365C13.0551 18.472 12.375 17.7913 11.5398 16.9561L11.2947 16.7109L6.30151 21.7041C6.28106 21.7246 6.26096 21.7455 6.24097 21.7656C5.95968 22.0475 5.721 22.2868 5.45483 22.4404C4.73943 22.8535 3.85772 22.8535 3.14233 22.4404C2.87616 22.2868 2.63751 22.0475 2.3562 21.7656C2.33621 21.7455 2.3161 21.7246 2.29565 21.7041C2.27526 21.6838 2.2551 21.6635 2.23511 21.6436C1.95313 21.3622 1.71305 21.1237 1.55933 20.8574C1.14638 20.1421 1.14633 19.2603 1.55933 18.5449C1.71305 18.2787 1.95314 18.0402 2.23511 17.7588L7.28882 12.7051L7.04468 12.4609C6.2092 11.6254 5.52783 10.9448 5.06323 10.3359C4.57839 9.70046 4.25855 9.05528 4.25854 8.28613C4.25854 7.51699 4.5784 6.87179 5.06323 6.23633C5.52784 5.62738 6.20919 4.94679 7.04468 4.11133L7.12085 4.03516C7.95621 3.19975 8.63696 2.51926 9.24585 2.05469C9.88117 1.56999 10.5257 1.2501 11.2947 1.25ZM3.3562 18.7588C2.98012 19.1349 2.90021 19.224 2.85913 19.2949C2.71404 19.5462 2.71404 19.8561 2.85913 20.1074C2.90019 20.1785 2.98002 20.2674 3.3562 20.6436C3.73279 21.0201 3.82127 21.1006 3.89233 21.1416C4.1436 21.2867 4.45355 21.2866 4.70483 21.1416C4.77589 21.1006 4.86438 21.0201 5.24097 20.6436L10.2341 15.6504L8.34937 13.7656L3.3562 18.7588ZM11.2947 2.75C10.9855 2.75009 10.6569 2.86416 10.155 3.24707C9.63574 3.6433 9.02602 4.25109 8.14331 5.13379C7.26046 6.01664 6.65286 6.62714 6.25659 7.14648C5.87353 7.64855 5.75854 7.97679 5.75854 8.28613C5.75855 8.59546 5.87355 8.92373 6.25659 9.42578C6.65286 9.94511 7.26049 10.5557 8.14331 11.4385L12.5623 15.8564C13.4452 16.7393 14.0546 17.3478 14.574 17.7441C15.0758 18.127 15.4044 18.2412 15.7136 18.2412C16.0229 18.2412 16.3515 18.1269 16.8533 17.7441C17.3727 17.3478 17.9831 16.7393 18.866 15.8564C19.7486 14.9737 20.3564 14.364 20.7527 13.8447C21.1356 13.3427 21.2497 13.0143 21.2498 12.7051C21.2498 12.3957 21.1356 12.0674 20.7527 11.5654C20.3564 11.046 19.7489 10.4356 18.866 9.55273L14.447 5.13379C13.5642 4.25097 12.9537 3.64331 12.4343 3.24707C11.9325 2.86421 11.604 2.75 11.2947 2.75ZM17.9607 5.00488C17.7096 4.86008 17.4003 4.86004 17.1492 5.00488C17.0898 5.03921 17.0177 5.10098 16.7751 5.34082L18.6589 7.22461C18.8982 6.98256 18.9604 6.91095 18.9949 6.85156C19.1399 6.60029 19.1399 6.29034 18.9949 6.03906C18.9538 5.968 18.8743 5.87854 18.4978 5.50195C18.1213 5.12547 18.0317 5.04591 17.9607 5.00488Z" fill="#48465C"/>
</svg>
