<svg width="24" height="24" viewBox="0 0 24 24" fill="none" xmlns="http://www.w3.org/2000/svg">
<path d="M12 14.25C12.4142 14.25 12.75 14.5858 12.75 15V20.25H17C17.4142 20.25 17.75 20.5858 17.75 21C17.75 21.4142 17.4142 21.75 17 21.75H7C6.58579 21.75 6.25 21.4142 6.25 21C6.25 20.5858 6.58579 20.25 7 20.25H11.25V15C11.25 14.5858 11.5858 14.25 12 14.25ZM20 11.25C20.4142 11.25 20.75 11.5858 20.75 12C20.75 12.4142 20.4142 12.75 20 12.75H4C3.58579 12.75 3.25 12.4142 3.25 12C3.25 11.5858 3.58579 11.25 4 11.25H20ZM16.0518 2.25C16.9503 2.24997 17.7001 2.25012 18.2949 2.33008C18.9225 2.41452 19.489 2.6003 19.9443 3.05566C20.3997 3.51102 20.5855 4.07748 20.6699 4.70508C20.7499 5.29987 20.75 6.04976 20.75 6.94824V7.9502C20.7499 8.36433 20.4141 8.7002 20 8.7002C19.5859 8.70019 19.2501 8.36433 19.25 7.9502V7C19.25 6.03599 19.2485 5.3883 19.1836 4.90527C19.1215 4.44389 19.0141 4.24652 18.8838 4.11621C18.7535 3.98591 18.5561 3.87845 18.0947 3.81641C17.6117 3.75147 16.964 3.75 16 3.75H12.75V9C12.75 9.41422 12.4142 9.75 12 9.75C11.5858 9.75 11.25 9.41422 11.25 9V3.75H8C7.03599 3.75 6.3883 3.75147 5.90527 3.81641C5.44388 3.87845 5.24652 3.9859 5.11621 4.11621C4.9859 4.24652 4.87845 4.44388 4.81641 4.90527C4.75147 5.3883 4.75 6.03599 4.75 7V7.9502C4.7499 8.36433 4.41416 8.7002 4 8.7002C3.58586 8.70019 3.2501 8.36433 3.25 7.9502V6.94824C3.24997 6.04978 3.25012 5.29986 3.33008 4.70508C3.41452 4.07747 3.6003 3.51102 4.05566 3.05566C4.51102 2.6003 5.07747 2.41452 5.70508 2.33008C6.29986 2.25012 7.04978 2.24997 7.94824 2.25H16.0518Z" fill="#48465C"/>
</svg>
