<svg width="24" height="24" viewBox="0 0 24 24" fill="none" xmlns="http://www.w3.org/2000/svg">
<path d="M12 2C16.714 2 19.0708 2.00037 20.5352 3.46484C21.9996 4.9293 22 7.28597 22 12C22 16.714 21.9997 19.0708 20.5352 20.5352C19.0708 21.9997 16.714 22 12 22C7.28597 22 4.9293 21.9996 3.46484 20.5352C2.00037 19.0708 2 16.714 2 12C2 7.28595 2.00037 4.9293 3.46484 3.46484C4.9293 2.00037 7.28595 2 12 2ZM7 8.25C6.58579 8.25 6.25 8.58579 6.25 9V18C6.25 18.4142 6.58579 18.75 7 18.75C7.41421 18.75 7.75 18.4142 7.75 18V9C7.75 8.58579 7.41421 8.25 7 8.25ZM12 5.25C11.5858 5.25 11.25 5.58579 11.25 6V18C11.25 18.4142 11.5858 18.75 12 18.75C12.4142 18.75 12.75 18.4142 12.75 18V6C12.75 5.58579 12.4142 5.25 12 5.25ZM17 12.25C16.5858 12.25 16.25 12.5858 16.25 13V18C16.25 18.4142 16.5858 18.75 17 18.75C17.4142 18.75 17.75 18.4142 17.75 18V13C17.75 12.5858 17.4142 12.25 17 12.25Z" fill="#1C274C"/>
</svg>
