<svg width="24" height="24" viewBox="0 0 24 24" fill="none" xmlns="http://www.w3.org/2000/svg">
<path d="M19.3447 6.99316C19.6232 6.89054 19.9556 6.80261 20.3145 6.86816C20.7568 6.94906 21.1517 7.19684 21.416 7.56055C21.6304 7.85574 21.6947 8.19375 21.7227 8.48926C21.7499 8.77697 21.75 9.13611 21.75 9.54492V9.6543C21.7508 9.95441 21.7514 10.275 21.6436 10.5703C21.5586 10.8034 21.4253 11.0159 21.252 11.1934C21.0324 11.4182 20.7435 11.5564 20.4727 11.6855C20.45 11.6964 20.4268 11.707 20.4043 11.7178L18.6182 12.5752C18.2497 12.752 17.9264 12.907 17.6553 13.0068C17.3935 13.1033 17.0842 13.1873 16.75 13.1426V17.4287C16.7499 19.243 15.3147 20.75 13.5 20.75C11.6853 20.75 10.2501 19.243 10.25 17.4287C10.25 15.6144 11.6853 14.1074 13.5 14.1074C14.1477 14.1074 14.747 14.2995 15.25 14.6289V11H15.2529C15.25 10.8312 15.25 10.6486 15.25 10.4551V10.3457C15.2492 10.0456 15.2486 9.72497 15.3564 9.42969C15.4414 9.1966 15.5747 8.98415 15.748 8.80664C15.9676 8.58185 16.2565 8.44357 16.5273 8.31445C16.55 8.3036 16.5732 8.29301 16.5957 8.28223L18.3818 7.4248C18.7502 7.24795 19.0736 7.09305 19.3447 6.99316ZM13.5 15.6074C12.5533 15.6074 11.75 16.4027 11.75 17.4287C11.7501 18.4547 12.5533 19.25 13.5 19.25C14.4467 19.25 15.2499 18.4547 15.25 17.4287C15.25 16.4027 14.4467 15.6074 13.5 15.6074ZM8 13.25C8.41421 13.25 8.75 13.5858 8.75 14C8.75 14.4142 8.41421 14.75 8 14.75H3C2.58579 14.75 2.25 14.4142 2.25 14C2.25 13.5858 2.58579 13.25 3 13.25H8ZM20.0557 8.3457C20.0395 8.34747 19.9836 8.35608 19.8633 8.40039C19.6671 8.47268 19.4085 8.59591 19 8.79199L17.2451 9.63477C17.0658 9.72082 16.9631 9.76957 16.8887 9.81152C16.8429 9.8373 16.8249 9.85164 16.8203 9.85547C16.7961 9.88049 16.7776 9.91068 16.7656 9.94336C16.764 9.94959 16.7592 9.9719 16.7559 10.0234C16.7503 10.1087 16.75 10.2223 16.75 10.4209C16.75 10.8743 16.7508 11.1609 16.7705 11.3691C16.7827 11.4971 16.7994 11.5512 16.8047 11.5664C16.84 11.6107 16.8892 11.6416 16.9443 11.6543C16.9605 11.6525 17.0165 11.6439 17.1367 11.5996C17.3329 11.5273 17.5915 11.4041 18 11.208L19.7549 10.3652C19.9342 10.2792 20.0369 10.2304 20.1113 10.1885C20.1572 10.1627 20.1752 10.1483 20.1797 10.1445C20.2039 10.1194 20.2224 10.0894 20.2344 10.0566C20.2359 10.0504 20.2408 10.0281 20.2441 9.97656C20.2497 9.89127 20.25 9.77769 20.25 9.5791C20.25 9.12575 20.2492 8.83907 20.2295 8.63086C20.2173 8.50281 20.2006 8.44876 20.1953 8.43359C20.16 8.38933 20.1108 8.35834 20.0557 8.3457ZM12 8.25C12.4142 8.25 12.75 8.58579 12.75 9C12.75 9.41421 12.4142 9.75 12 9.75H3C2.58579 9.75 2.25 9.41421 2.25 9C2.25 8.58579 2.58579 8.25 3 8.25H12ZM20 3.25C20.4142 3.25 20.75 3.58579 20.75 4C20.75 4.41421 20.4142 4.75 20 4.75H3C2.58579 4.75 2.25 4.41421 2.25 4C2.25 3.58579 2.58579 3.25 3 3.25H20Z" fill="#48465C"/>
</svg>
