<svg width="24" height="24" viewBox="0 0 24 24" fill="none" xmlns="http://www.w3.org/2000/svg">
<path d="M18.5117 10.4307C18.8262 10.1612 19.2997 10.1974 19.5693 10.5118C19.8388 10.8262 19.8026 11.2998 19.4883 11.5694L12.4883 17.5694C12.2074 17.8101 11.7926 17.8101 11.5117 17.5694L4.51172 11.5694C4.19737 11.2998 4.16114 10.8262 4.43066 10.5118C4.70026 10.1974 5.17383 10.1612 5.48828 10.4307L12 16.0118L18.5117 10.4307ZM18.5117 6.43073C18.8262 6.1612 19.2997 6.19743 19.5693 6.51178C19.8388 6.82621 19.8026 7.2998 19.4883 7.5694L12.4883 13.5694C12.2074 13.8101 11.7926 13.8101 11.5117 13.5694L4.51172 7.5694C4.19735 7.29981 4.16113 6.82622 4.43066 6.51178C4.70026 6.19744 5.17384 6.1612 5.48828 6.43073L12 12.0118L18.5117 6.43073Z" fill="#48465C"/>
</svg>
