<svg width="24" height="24" viewBox="0 0 24 24" fill="none" xmlns="http://www.w3.org/2000/svg">
<path fill-rule="evenodd" clip-rule="evenodd" d="M18.5117 10.4306C18.8261 10.1611 19.2997 10.1973 19.5693 10.5117C19.8388 10.8261 19.8026 11.2997 19.4883 11.5693L12.4883 17.5693C12.2074 17.81 11.7926 17.81 11.5117 17.5693L4.51169 11.5693C4.19735 11.2997 4.16111 10.8261 4.43064 10.5117C4.70023 10.1973 5.17381 10.1611 5.48826 10.4306L12 16.0117L18.5117 10.4306ZM18.5117 6.43063C18.8261 6.1611 19.2997 6.19734 19.5693 6.51168C19.8388 6.82612 19.8026 7.29971 19.4883 7.5693L12.4883 13.5693C12.2074 13.81 11.7926 13.81 11.5117 13.5693L4.51169 7.5693C4.19733 7.29971 4.16111 6.82613 4.43064 6.51168C4.70023 6.19734 5.17381 6.16111 5.48826 6.43063L12 12.0117L18.5117 6.43063Z" fill="#1C274C"/>
</svg>
