<svg width="24" height="24" viewBox="0 0 24 24" fill="none" xmlns="http://www.w3.org/2000/svg">
<path d="M13.5 2C16.7731 2 18.4099 1.99974 19.6123 2.73633C20.2851 3.14861 20.8514 3.71492 21.2637 4.3877C22.0003 5.59 22 7.22688 22 10.5V11.5C22 13.8296 21.9997 14.9943 21.6191 15.9131C21.1116 17.1383 20.1383 18.1116 18.9131 18.6191C18.2528 18.8926 17.4652 18.9695 16.21 18.9912C15.3601 19.0058 14.9353 19.0137 14.5977 19.21C14.26 19.4063 14.0493 19.7614 13.6289 20.4717L13.0869 21.3877C12.6037 22.204 11.3963 22.204 10.9131 21.3877L10.3711 20.4717C9.95068 19.7614 9.74002 19.4064 9.40234 19.21C9.06475 19.0137 8.63985 19.0058 7.79004 18.9912C6.5348 18.9695 5.74718 18.8926 5.08691 18.6191C3.86177 18.1116 2.88833 17.1383 2.38086 15.9131C2.00033 14.9943 2 13.8296 2 11.5V10.5C2 7.22688 1.99974 5.59 2.73633 4.3877C3.14861 3.71492 3.71492 3.14861 4.3877 2.73633C5.59 1.99974 7.22688 2 10.5 2H13.5ZM8 10C7.44772 10 7 10.4477 7 11C7 11.5523 7.44772 12 8 12C8.55228 12 9 11.5523 9 11C9 10.4477 8.55228 10 8 10ZM12 10C11.4477 10 11 10.4477 11 11C11 11.5523 11.4477 12 12 12C12.5523 12 13 11.5523 13 11C13 10.4477 12.5523 10 12 10ZM16 10C15.4477 10 15 10.4477 15 11C15 11.5523 15.4477 12 16 12C16.5523 12 17 11.5523 17 11C17 10.4477 16.5523 10 16 10Z" fill="#48465C"/>
</svg>
