<svg width="24" height="24" viewBox="0 0 24 24" fill="none" xmlns="http://www.w3.org/2000/svg">
<path fill-rule="evenodd" clip-rule="evenodd" d="M15.2646 1.47542C15.9072 1.17288 16.6728 1.16862 17.3222 1.50472C17.9082 1.8081 18.7807 2.28217 19.4013 2.72738C19.5701 2.84849 19.7415 2.98244 19.9101 3.12191L19.954 3.15804C20.44 3.55993 20.8753 3.91987 21.1786 4.27132C21.5195 4.66641 21.7536 5.11641 21.7499 5.69515C21.746 6.29454 21.4723 6.75766 21.1073 7.15804C20.7722 7.52567 20.2908 7.91357 19.7372 8.36019L19.4862 8.56331C18.8778 9.0544 18.7703 9.16253 18.7138 9.27816C18.6605 9.38718 18.6425 9.52091 18.6425 10.2772V15.6453C18.6431 16.2432 18.6435 16.7239 18.4745 17.1776C18.3067 17.6281 17.9917 17.9982 17.5946 18.4647C17.5717 18.4916 17.5488 18.5191 17.5253 18.5467L15.1435 21.3494C15.1176 21.38 15.0918 21.4111 15.0663 21.4412C14.67 21.9091 14.327 22.3136 13.8398 22.534C13.3587 22.7516 12.8217 22.7507 12.1864 22.7498H11.8144C11.1789 22.7507 10.6413 22.7517 10.1601 22.534C9.67283 22.3136 9.32983 21.9091 8.93351 21.4412C8.90802 21.4111 8.88236 21.38 8.85637 21.3494L6.47453 18.5467C6.45109 18.5191 6.42811 18.4916 6.40519 18.4647C6.00816 17.9982 5.69313 17.6281 5.52531 17.1776C5.35631 16.7239 5.35678 16.2432 5.35734 15.6453V10.2772C5.35734 9.52085 5.33929 9.38719 5.28605 9.27816C5.22958 9.16254 5.12213 9.05445 4.51359 8.56331L4.30656 8.39535C4.29192 8.38354 4.27715 8.37192 4.26262 8.36019C3.70914 7.91356 3.22762 7.52567 2.8925 7.15804C2.52756 6.75766 2.25378 6.29454 2.24992 5.69515C2.24625 5.11644 2.48034 4.66639 2.82121 4.27132C3.12449 3.91986 3.55981 3.55993 4.04582 3.15804C4.06039 3.146 4.0751 3.13403 4.08976 3.12191C4.25836 2.98246 4.42975 2.84848 4.59855 2.72738C5.21913 2.28217 6.09167 1.8081 6.67765 1.50472L7.95402 1.58285L9.21574 1.73324C9.17756 1.70405 9.13786 1.67747 9.0966 1.65316L14.5361 1.98714C14.6562 1.8176 14.8182 1.68547 15.0009 1.59945L15.2646 1.47542ZM16.6327 2.83675C16.4173 2.72523 16.1432 2.71888 15.9032 2.83187L15.7109 2.92269C13.9091 5.36822 10.0908 5.36821 8.28898 2.92269L8.0966 2.83187C7.8566 2.71891 7.5825 2.72523 7.36711 2.83675C6.78536 3.13794 5.9974 3.56961 5.47258 3.94613C5.33794 4.04273 5.19443 4.15427 5.04582 4.27718C4.50152 4.72737 4.16752 5.00684 3.95695 5.25081C3.77503 5.46164 3.74925 5.57392 3.74992 5.68538C3.75051 5.77643 3.77471 5.89809 4.00187 6.1473C4.25003 6.41946 4.63826 6.73627 5.24797 7.22835L5.45598 7.39535C5.48788 7.42111 5.51925 7.4472 5.5507 7.47249C6.00784 7.84016 6.41143 8.16491 6.63371 8.61995C6.85888 9.08103 6.8584 9.5929 6.85734 10.159V15.5399C6.85734 16.2944 6.86785 16.4857 6.93058 16.6541C6.99464 16.826 7.11784 16.9873 7.61808 17.576L9.99894 20.3787C10.5172 20.9887 10.6369 21.1038 10.7782 21.1678C10.9261 21.2347 11.1099 21.2498 11.9374 21.2498H12.0624C12.8899 21.2498 13.0737 21.2346 13.2216 21.1678C13.3629 21.1038 13.4827 20.9887 14.0009 20.3787L16.3818 17.576C16.882 16.9873 17.0052 16.826 17.0693 16.6541C17.1319 16.4856 17.1425 16.2944 17.1425 15.5399V10.159C17.1415 9.59291 17.141 9.08102 17.3661 8.61995C17.5884 8.16492 17.992 7.84013 18.4491 7.47249C18.4806 7.44721 18.512 7.42109 18.5439 7.39535L18.7519 7.22835C19.3619 6.73606 19.7508 6.41954 19.9989 6.1473C20.226 5.89815 20.2493 5.77642 20.2499 5.68538C20.2506 5.57392 20.2248 5.46164 20.0429 5.25081C19.8323 5.00684 19.4983 4.72737 18.954 4.27718C18.8053 4.15425 18.662 4.04274 18.5273 3.94613C18.0025 3.56961 17.2145 3.13794 16.6327 2.83675ZM9.21574 1.73324C9.30915 1.80464 9.39421 1.88888 9.46379 1.98714C10.5738 3.55456 12.9474 3.6697 14.245 2.3348L15.1884 2.44808L15.1484 2.42074L14.5361 1.98714C14.4471 2.11271 14.349 2.22786 14.245 2.3348L9.21574 1.73324ZM6.8007 1.44515C7.42221 1.16987 8.13285 1.19181 8.73527 1.47542L8.99992 1.59945C9.03329 1.61517 9.06479 1.63441 9.0966 1.65316L7.95402 1.58285L6.8007 1.44515Z" fill="#1C274C"/>
</svg>
