<svg width="24" height="24" viewBox="0 0 24 24" fill="none" xmlns="http://www.w3.org/2000/svg">
<path d="M19.4697 14.4697C19.7626 14.1768 20.2374 14.1768 20.5303 14.4697L22.5303 16.4697C22.8231 16.7626 22.8232 17.2374 22.5303 17.5303L20.5303 19.5303C20.2374 19.8231 19.7626 19.8231 19.4697 19.5303C19.1768 19.2374 19.1769 18.7626 19.4697 18.4697L20.1895 17.75H17.2598C16.7147 17.7501 16.3384 17.7499 15.9824 17.6807C15.1829 17.5251 14.4559 17.1133 13.9111 16.5078C13.6685 16.2381 13.4748 15.9159 13.1943 15.4482C13.182 15.4278 13.1698 15.4068 13.1572 15.3857C12.9441 15.0305 13.0589 14.5695 13.4141 14.3564C13.7692 14.1435 14.2303 14.2591 14.4434 14.6143C14.7754 15.1677 14.8928 15.3564 15.0264 15.5049C15.3532 15.868 15.789 16.1156 16.2686 16.209C16.4646 16.2471 16.6866 16.25 17.332 16.25H20.1895L19.4697 15.5303C19.1768 15.2374 19.1769 14.7626 19.4697 14.4697ZM19.4697 4.46973C19.7626 4.17684 20.2374 4.17684 20.5303 4.46973L22.5303 6.46973C22.8231 6.76262 22.8232 7.2374 22.5303 7.53027L20.5303 9.53027C20.2374 9.82314 19.7626 9.82314 19.4697 9.53027C19.1768 9.2374 19.1769 8.76262 19.4697 8.46973L20.1895 7.75H18.3975C17.5535 7.75 16.9729 7.75058 16.5166 7.79492C16.0768 7.8377 15.8106 7.91701 15.5898 8.04199C15.3691 8.16701 15.1644 8.35471 14.9014 8.70996C14.6287 9.07832 14.3297 9.57517 13.8955 10.2988L11.3721 14.5039C10.9612 15.1887 10.6258 15.7488 10.3047 16.1826C9.96911 16.6359 9.61613 16.9984 9.14941 17.2627C8.68246 17.5271 8.18947 17.6427 7.62793 17.6973C7.0908 17.7495 6.43811 17.75 5.63965 17.75H2C1.58581 17.75 1.25003 17.4142 1.25 17C1.25 16.5858 1.58579 16.25 2 16.25H5.60254C6.44653 16.25 7.02719 16.2495 7.4834 16.2051C7.92319 16.1624 8.18941 16.0831 8.41016 15.958C8.63093 15.833 8.83561 15.6454 9.09863 15.29C9.37135 14.9218 9.67031 14.4248 10.1045 13.7012L12.6279 9.49609C13.0387 8.81139 13.3742 8.25114 13.6953 7.81738C14.031 7.364 14.3837 7.0007 14.8506 6.73633C15.3175 6.47195 15.8106 6.35634 16.3721 6.30176C16.9092 6.24957 17.562 6.24999 18.3604 6.25H20.1895L19.4697 5.53027C19.1768 5.2374 19.1769 4.76262 19.4697 4.46973ZM6.74023 6.25C7.28539 6.24987 7.66156 6.25007 8.01758 6.31934C8.81704 6.47495 9.54409 6.88672 10.0889 7.49219C10.3314 7.76186 10.5252 8.08414 10.8057 8.55176C10.8179 8.57226 10.8302 8.59319 10.8428 8.61426C11.0558 8.96936 10.9409 9.4294 10.5859 9.64258C10.2307 9.85569 9.76975 9.74093 9.55664 9.38574C9.2245 8.83218 9.10725 8.64363 8.97363 8.49512C8.6468 8.13195 8.21102 7.88437 7.73145 7.79102C7.53536 7.75285 7.3134 7.75 6.66797 7.75H2C1.58581 7.75 1.25003 7.41418 1.25 7C1.25 6.58579 1.58579 6.25 2 6.25H6.74023Z" fill="#1C274C"/>
</svg>
