<svg width="24" height="24" viewBox="0 0 24 24" fill="none" xmlns="http://www.w3.org/2000/svg">
<path d="M13.333 21.25C13.7472 21.25 14.083 21.5858 14.083 22C14.083 22.4142 13.7472 22.75 13.333 22.75H10.667C10.2528 22.75 9.91699 22.4142 9.91699 22C9.91699 21.5858 10.2528 21.25 10.667 21.25H13.333ZM14 18.75C14.4142 18.75 14.75 19.0858 14.75 19.5C14.75 19.9142 14.4142 20.25 14 20.25H10C9.58579 20.25 9.25 19.9142 9.25 19.5C9.25 19.0858 9.58579 18.75 10 18.75H14ZM12 1.25C16.196 1.25 19.7498 4.31316 19.75 8.21777V8.22168C19.7403 10.4279 18.7913 12.6258 17.1055 14.2246L17.1035 14.2266L15.999 15.2656C15.84 15.4154 15.7501 15.6244 15.75 15.8428C15.75 16.896 14.896 17.75 13.8428 17.75H10.1572C9.10402 17.75 8.25 16.896 8.25 15.8428C8.24994 15.6244 8.16001 15.4154 8.00098 15.2656L6.89648 14.2266L6.89453 14.2246C5.20877 12.6258 4.2597 10.4279 4.25 8.22168V8.21777C4.25018 4.31316 7.80399 1.25 12 1.25ZM12 2.75C8.46478 2.75 5.751 5.29988 5.75 8.2168C5.75834 10.0022 6.53043 11.8118 7.92578 13.1357L7.92676 13.1367L9.02832 14.1738C9.4886 14.6071 9.74994 15.2108 9.75 15.8428C9.75 16.0676 9.93245 16.25 10.1572 16.25H13.8428C14.0676 16.25 14.25 16.0676 14.25 15.8428C14.2501 15.2108 14.5114 14.6071 14.9717 14.1738L16.0732 13.1367L16.0742 13.1357C17.4696 11.8117 18.2417 10.0023 18.25 8.2168C18.2489 5.29991 15.5352 2.75 12 2.75Z" fill="#1C274C"/>
</svg>
