<svg width="24" height="24" viewBox="0 0 24 24" fill="none" xmlns="http://www.w3.org/2000/svg">
<path d="M7.50037 17.2505C8.74282 17.2507 9.75037 18.258 9.75037 19.5005C9.75019 20.7428 8.74272 21.7503 7.50037 21.7505C6.25783 21.7505 5.25054 20.7429 5.25037 19.5005C5.25037 18.2579 6.25773 17.2505 7.50037 17.2505ZM16.5004 17.2505C17.7428 17.2507 18.7504 18.2579 18.7504 19.5005C18.7502 20.7428 17.7427 21.7503 16.5004 21.7505C15.2578 21.7505 14.2505 20.7429 14.2504 19.5005C14.2504 18.2578 15.2577 17.2505 16.5004 17.2505ZM7.50037 18.7505C7.08616 18.7505 6.75037 19.0863 6.75037 19.5005C6.75054 19.9145 7.08626 20.2505 7.50037 20.2505C7.91429 20.2503 8.25019 19.9144 8.25037 19.5005C8.25037 19.0864 7.91439 18.7507 7.50037 18.7505ZM16.5004 18.7505C16.0862 18.7505 15.7504 19.0863 15.7504 19.5005C15.7505 19.9145 16.0863 20.2505 16.5004 20.2505C16.9143 20.2503 17.2502 19.9144 17.2504 19.5005C17.2504 19.0864 16.9144 18.7507 16.5004 18.7505ZM1.28845 2.76318C1.41939 2.3704 1.84387 2.15791 2.23669 2.28857L2.54138 2.39014C3.16775 2.59891 3.69742 2.7756 4.11365 2.96924C4.55588 3.17499 4.93981 3.42986 5.23083 3.8335C5.52192 4.23736 5.64228 4.68267 5.69763 5.16748C5.70074 5.19475 5.70367 5.2225 5.70642 5.25049H16.5111C17.4866 5.25045 18.3029 5.24993 18.9271 5.34229C19.5786 5.43873 20.2076 5.6613 20.6039 6.26221C20.9998 6.86298 20.9564 7.52797 20.7885 8.16455C20.6274 8.77486 20.3056 9.52542 19.9213 10.4224L19.4545 11.5112C19.278 11.9233 19.1217 12.2858 18.9603 12.5728C18.7856 12.8834 18.5724 13.1654 18.2494 13.3784C17.9264 13.5914 17.5832 13.677 17.2289 13.7153C16.9015 13.7507 16.5063 13.7505 16.058 13.7505H6.15369C6.22741 13.8843 6.312 13.9947 6.40857 14.0913C6.68532 14.3681 7.07428 14.5483 7.80798 14.647C8.56333 14.7485 9.56494 14.7505 11.0004 14.7505H19.0004C19.4144 14.7507 19.7504 15.0864 19.7504 15.5005C19.7503 15.9145 19.4143 16.2503 19.0004 16.2505H10.9447C9.57727 16.2505 8.47468 16.2508 7.60779 16.1343C6.70782 16.0133 5.94987 15.7537 5.34802 15.1519C4.74627 14.5499 4.48758 13.7921 4.36658 12.8921C4.25002 12.0251 4.25035 10.9228 4.25037 9.55518V6.8833C4.25037 6.17036 4.24862 5.69839 4.2074 5.3374C4.1684 4.99602 4.10033 4.83128 4.01404 4.71143C3.92764 4.59156 3.79262 4.47467 3.48083 4.32959C3.1514 4.17634 2.70408 4.02575 2.02771 3.80029L1.76306 3.71143C1.3701 3.58044 1.15746 3.15614 1.28845 2.76318ZM5.75037 9.50049C5.75037 10.6724 5.75134 11.5549 5.80701 12.2505H16.0219C16.5177 12.2505 16.8305 12.2497 17.0677 12.2241C17.2868 12.2004 17.3715 12.1612 17.4242 12.1265C17.4768 12.0917 17.5458 12.0291 17.6537 11.8374C17.7708 11.6293 17.8949 11.3419 18.0902 10.8862L18.5179 9.88623C18.9324 8.9193 19.208 8.27174 19.3373 7.78174C19.4629 7.30551 19.3994 7.16075 19.351 7.0874C19.3025 7.01405 19.1947 6.89873 18.7084 6.82666C18.207 6.75245 17.5027 6.75049 16.4506 6.75049H5.75037V9.50049Z" fill="#1C274C"/>
</svg>
