<svg width="24" height="24" viewBox="0 0 24 24" fill="none" xmlns="http://www.w3.org/2000/svg">
<path d="M2 1.25C2.41421 1.25 2.75 1.58579 2.75 2V12C2.75 14.3782 2.75198 16.0867 2.92676 17.3867C3.09865 18.6649 3.42551 19.4352 3.99512 20.0049C4.56472 20.5745 5.33508 20.9014 6.61328 21.0732C7.91326 21.248 9.62178 21.25 12 21.25H22C22.4142 21.25 22.75 21.5858 22.75 22C22.75 22.4142 22.4142 22.75 22 22.75H11.9424C9.63432 22.75 7.82544 22.7502 6.41406 22.5605C4.96932 22.3662 3.82938 21.9602 2.93457 21.0654C2.03977 20.1706 1.63369 19.0306 1.43945 17.5859C1.24974 16.1745 1.24999 14.3657 1.25 12.0576V2C1.25 1.58579 1.58579 1.25 2 1.25ZM5.5332 6.41309C5.85742 6.15562 6.32923 6.20925 6.58691 6.5332L9.70508 10.46C9.95028 10.7688 10.1116 10.9707 10.2441 11.1162C10.3731 11.2578 10.4341 11.2985 10.4619 11.3135C10.6727 11.4262 10.9252 11.4315 11.1406 11.3281C11.1691 11.3144 11.232 11.2766 11.3672 11.1406C11.5058 11.0011 11.6753 10.8065 11.9336 10.5088L11.9502 10.4902C12.1881 10.2161 12.3903 9.98178 12.5693 9.80176C12.7553 9.61462 12.959 9.44026 13.2109 9.31934C13.8573 9.00916 14.6129 9.02534 15.2451 9.36328C15.4915 9.49504 15.6875 9.67895 15.8652 9.87402C16.0361 10.0616 16.2285 10.3038 16.4541 10.5879L19.5879 14.5332C19.8454 14.8575 19.7909 15.3293 19.4668 15.5869C19.1425 15.8444 18.6707 15.7909 18.4131 15.4668L15.2949 11.54C15.0497 11.2312 14.8885 11.0292 14.7559 10.8838C14.6266 10.7418 14.5658 10.7014 14.5381 10.6865C14.3274 10.5739 14.0758 10.5686 13.8604 10.6719C13.8321 10.6855 13.7694 10.723 13.6338 10.8594C13.4951 10.999 13.3249 11.1935 13.0664 11.4912L13.0508 11.5098C12.8129 11.784 12.6097 12.0181 12.4307 12.1982C12.2447 12.3853 12.041 12.5598 11.7891 12.6807C11.1427 12.9907 10.3871 12.9747 9.75488 12.6367C9.5087 12.505 9.3133 12.3217 9.13574 12.127C8.96479 11.9393 8.77163 11.6963 8.5459 11.4121L5.41309 7.4668C5.15561 7.14257 5.20922 6.67076 5.5332 6.41309Z" fill="#1C274C"/>
</svg>
