<svg width="24" height="24" viewBox="0 0 24 24" fill="none" xmlns="http://www.w3.org/2000/svg">
<path d="M8.49609 1.25001C8.73644 1.24998 8.90258 1.24956 9.06543 1.26368C9.76456 1.32438 10.4339 1.58021 10.9844 2.00392C11.1129 2.10282 11.2326 2.21432 11.4014 2.3711L11.8105 2.75001C12.4109 3.30745 12.6128 3.48665 12.8428 3.60548C12.9816 3.67716 13.1296 3.7345 13.2842 3.7754C13.5441 3.8442 13.8327 3.84962 14.6797 3.84962H14.9873C15.8697 3.8496 16.5976 3.85036 17.1768 3.91798C17.7799 3.98844 18.3263 4.14124 18.7852 4.52442C18.8604 4.5872 18.9319 4.65436 19 4.72462C19.4225 5.161 19.5968 5.6905 19.6758 6.27345C19.75 6.82119 19.75 7.50552 19.75 8.31739V9.85743C19.75 11.0342 19.75 11.9989 19.6396 12.7608C19.5236 13.5623 19.2724 14.2477 18.6904 14.7881C18.1164 15.3213 17.4014 15.545 16.5654 15.6494C15.7564 15.7504 14.7276 15.75 13.4512 15.75H12.75V17.3535C13.6658 17.6126 14.3875 18.3342 14.6465 19.25H22C22.4142 19.25 22.75 19.5858 22.75 20C22.75 20.4142 22.4142 20.75 22 20.75H14.6465C14.32 21.9043 13.2588 22.75 12 22.75C10.7412 22.75 9.67998 21.9043 9.35352 20.75H2C1.58579 20.75 1.25 20.4142 1.25 20C1.25 19.5858 1.58579 19.25 2 19.25H9.35352C9.61255 18.3342 10.3342 17.6126 11.25 17.3535V15.75H10.5488C9.27233 15.75 8.24357 15.7504 7.43457 15.6494C6.59861 15.545 5.88371 15.3213 5.30957 14.7881C4.72767 14.2477 4.47647 13.5624 4.36035 12.7608C4.25005 11.999 4.24997 11.0342 4.25 9.85743V5.13575C4.24982 4.64141 4.24963 4.28313 4.31348 3.96876C4.59417 2.58734 5.74342 1.55337 7.15137 1.30665C7.47406 1.25012 7.84423 1.24989 8.3877 1.25001H8.49609ZM12 18.75C11.3096 18.75 10.75 19.3097 10.75 20C10.75 20.6904 11.3096 21.25 12 21.25C12.6904 21.25 13.25 20.6904 13.25 20C13.25 19.3097 12.6904 18.75 12 18.75ZM8.46484 2.75001C7.8153 2.75001 7.58702 2.7532 7.41016 2.78419C6.55295 2.93445 5.9299 3.5456 5.7832 4.26759C5.75351 4.41395 5.75 4.60797 5.75 5.21778V9.79981C5.75 11.0483 5.7518 11.904 5.84473 12.5459C5.93362 13.1595 6.09231 13.4676 6.33008 13.6885C6.57595 13.9168 6.93148 14.0742 7.62012 14.1602C8.32522 14.2482 9.26016 14.25 10.5996 14.25H13.4004C14.7399 14.25 15.6749 14.2482 16.3799 14.1602C17.0685 14.0742 17.424 13.9168 17.6699 13.6885C17.9077 13.4676 18.0664 13.1595 18.1553 12.5459C18.2483 11.904 18.25 11.0483 18.25 9.79981V8.36915C18.25 7.49249 18.2484 6.90992 18.1895 6.47462C18.1336 6.06335 18.0386 5.88718 17.9229 5.76759C17.8918 5.73556 17.8581 5.70499 17.8232 5.67579C17.6832 5.55903 17.4694 5.4618 17.002 5.40724C16.5202 5.35102 15.8808 5.34962 14.9414 5.34962H14.585C13.8688 5.34985 13.3725 5.35051 12.9004 5.2256C12.6416 5.15709 12.3912 5.06083 12.1543 4.93849C11.7199 4.71405 11.3632 4.38227 10.8584 3.9131C10.836 3.89224 10.8131 3.87102 10.79 3.84962L10.4043 3.4922C10.2029 3.30519 10.136 3.24377 10.0693 3.19239C9.75275 2.94883 9.35768 2.79545 8.93555 2.7588C8.84552 2.75101 8.74799 2.75001 8.46484 2.75001ZM16.5 6.75001C16.9142 6.75001 17.25 7.08581 17.25 7.50001C17.25 7.91423 16.9142 8.25001 16.5 8.25001H13.5C13.0858 8.25001 12.75 7.91423 12.75 7.50001C12.75 7.08581 13.0858 6.75001 13.5 6.75001H16.5Z" fill="#1C274C"/>
</svg>
