<svg width="24" height="24" viewBox="0 0 24 24" fill="none" xmlns="http://www.w3.org/2000/svg">
<path d="M8.49609 1.25C8.73644 1.24997 8.90258 1.24956 9.06543 1.26367C9.76456 1.32437 10.4339 1.5802 10.9844 2.00391C11.1129 2.10281 11.2326 2.21431 11.4014 2.37109L11.8105 2.75C12.4109 3.30744 12.6128 3.48664 12.8428 3.60547C12.9816 3.67716 13.1296 3.73449 13.2842 3.77539C13.5441 3.84419 13.8327 3.84961 14.6797 3.84961H14.9873C15.8697 3.84959 16.5976 3.85035 17.1768 3.91797C17.7799 3.98843 18.3263 4.14123 18.7852 4.52441C18.8604 4.58719 18.9319 4.65435 19 4.72461C19.4226 5.16099 19.5968 5.69049 19.6758 6.27344C19.75 6.82118 19.75 7.50551 19.75 8.31738V9.85742C19.75 11.0342 19.75 11.9988 19.6396 12.7607C19.5236 13.5623 19.2724 14.2477 18.6904 14.7881C18.1164 15.3213 17.4014 15.545 16.5654 15.6494C15.7564 15.7504 14.7276 15.75 13.4512 15.75H12.75V17.3535C13.6658 17.6126 14.3875 18.3342 14.6465 19.25H22C22.4142 19.25 22.75 19.5858 22.75 20C22.75 20.4142 22.4142 20.75 22 20.75H14.6465C14.32 21.9043 13.2588 22.75 12 22.75C10.7412 22.75 9.67998 21.9043 9.35352 20.75H2C1.58579 20.75 1.25 20.4142 1.25 20C1.25 19.5858 1.58579 19.25 2 19.25H9.35352C9.61255 18.3342 10.3342 17.6126 11.25 17.3535V15.75H10.5488C9.27233 15.75 8.24357 15.7504 7.43457 15.6494C6.59861 15.545 5.88371 15.3213 5.30957 14.7881C4.72767 14.2477 4.47647 13.5623 4.36035 12.7607C4.25005 11.9989 4.24997 11.0342 4.25 9.85742V5.13574C4.24982 4.64141 4.24963 4.28312 4.31348 3.96875C4.59417 2.58733 5.74342 1.55336 7.15137 1.30664C7.47406 1.25011 7.84423 1.24988 8.3877 1.25H8.49609ZM12 18.75C11.3096 18.75 10.75 19.3097 10.75 20C10.75 20.6904 11.3096 21.25 12 21.25C12.6904 21.25 13.25 20.6904 13.25 20C13.25 19.3097 12.6904 18.75 12 18.75ZM8.46484 2.75C7.8153 2.75 7.58702 2.75319 7.41016 2.78418C6.55295 2.93444 5.9299 3.54559 5.7832 4.26758C5.75351 4.41394 5.75 4.60796 5.75 5.21777V9.7998C5.75 11.0483 5.7518 11.904 5.84473 12.5459C5.93362 13.1595 6.09231 13.4675 6.33008 13.6885C6.57595 13.9168 6.93148 14.0741 7.62012 14.1602C8.32522 14.2481 9.26016 14.25 10.5996 14.25H13.4004C14.7399 14.25 15.6749 14.2481 16.3799 14.1602C17.0685 14.0741 17.424 13.9168 17.6699 13.6885C17.9077 13.4675 18.0664 13.1595 18.1553 12.5459C18.2483 11.904 18.25 11.0483 18.25 9.7998V8.36914C18.25 7.49248 18.2484 6.90991 18.1895 6.47461C18.1336 6.06334 18.0386 5.88717 17.9229 5.76758C17.8918 5.73555 17.8581 5.70498 17.8232 5.67578C17.6832 5.55902 17.4694 5.46179 17.002 5.40723C16.5202 5.35101 15.8808 5.34961 14.9414 5.34961H14.585C13.8688 5.34984 13.3725 5.3505 12.9004 5.22559C12.6416 5.15708 12.3912 5.06082 12.1543 4.93848C11.7199 4.71404 11.3632 4.38226 10.8584 3.91309C10.836 3.89223 10.8131 3.87101 10.79 3.84961L10.4043 3.49219C10.2029 3.30518 10.136 3.24376 10.0693 3.19238C9.75275 2.94882 9.35768 2.79544 8.93555 2.75879C8.84552 2.75101 8.74799 2.75 8.46484 2.75ZM16.5 6.75C16.9142 6.75 17.25 7.0858 17.25 7.5C17.25 7.91422 16.9142 8.25 16.5 8.25H13.5C13.0858 8.25 12.75 7.91422 12.75 7.5C12.75 7.0858 13.0858 6.75 13.5 6.75H16.5Z" fill="#48465C"/>
</svg>
