<svg width="24" height="24" viewBox="0 0 24 24" fill="none" xmlns="http://www.w3.org/2000/svg">
<path d="M2.21875 13.6953C2.55013 13.8293 2.9043 13.9991 3.30273 14.1934L3.42285 14.252C3.78177 14.4272 4.1723 14.6179 4.58301 14.7998C5.50162 15.2068 6.56157 15.5887 7.77637 15.7256C9.4525 15.9143 10.7451 15.3232 11.8398 14.8223L11.9492 14.7725C13.091 14.2511 14.0368 13.8518 15.2754 14.0576C16.2816 14.2248 17.1643 14.5063 17.6357 14.7676L17.9844 14.9609C17.871 16.6923 17.1305 18.265 15.9727 19.4814C15.5226 19.9543 15.297 20.1912 14.3535 20.5957C13.4101 21.0001 12.7591 21 11.458 21H8.54199C7.24091 21 6.58988 21.0001 5.64648 20.5957C4.70294 20.1912 4.47745 19.9543 4.02734 19.4814C2.76638 18.1567 2.00004 16.4098 2 14.4951C2 14.2019 2.01777 13.9123 2.05273 13.6279L2.21875 13.6953ZM10 7C13.9567 7 17.2423 9.69138 17.8857 13.2266C17.2306 12.9501 16.3812 12.7211 15.5205 12.5781C13.7859 12.2901 12.4606 12.8902 11.3262 13.4082L11.3145 13.4131C10.1611 13.9397 9.20336 14.3771 7.94434 14.2354C6.94164 14.1224 6.03879 13.8045 5.19043 13.4287C4.80682 13.2588 4.44188 13.081 4.08008 12.9043L3.95996 12.8447C3.56529 12.6522 3.16736 12.4609 2.78125 12.3047L2.39941 12.1504C3.45003 9.15944 6.45581 7 10 7ZM10 2C11.4142 2 12.1211 2.00013 12.5605 2.43945C12.9141 2.79311 12.9837 3.32016 12.9971 4.25H14.3193C15.212 4.25 16.0923 4.4583 16.8906 4.85742L17.7275 5.27539C18.4085 4.72667 19.5272 4.68843 20.5 5.25C21.6956 5.9403 22.2171 7.27488 21.665 8.23145C21.1127 9.18804 19.6957 9.40423 18.5 8.71387C17.6555 8.22625 17.1472 7.4168 17.1162 6.64648L16.2207 6.19824C15.6306 5.90317 14.9791 5.75 14.3193 5.75H13V6.48438C12.059 6.17032 11.0485 6 10 6C8.95097 6 7.94055 6.16966 7 6.4834V5.75C7.03158 5.75 7.06776 5.75069 7.10645 5.75098C7.20351 5.75171 7.3171 5.75203 7.41309 5.74902C7.55196 5.74466 7.74045 5.73207 7.92871 5.67383C8.13105 5.6112 8.36583 5.48558 8.53711 5.23926C8.70276 5.001 8.75 4.73417 8.75 4.5C8.75 4.26591 8.70285 3.99903 8.53711 3.76074C8.36572 3.51441 8.13099 3.38867 7.92871 3.32617C7.74024 3.26797 7.55095 3.25527 7.41211 3.25098C7.31673 3.24805 7.20411 3.24926 7.10742 3.25H7.07031C7.12956 2.89614 7.23893 2.63997 7.43945 2.43945C7.87879 2.00011 8.58579 2 10 2Z" fill="#48465C"/>
</svg>
