<svg width="24" height="24" viewBox="0 0 24 24" fill="none" xmlns="http://www.w3.org/2000/svg">
<path d="M20.2832 18.2568C20.4832 18.2732 20.7252 18.3453 20.9863 18.4238C21.0102 18.431 21.0344 18.4391 21.0586 18.4463C21.0802 18.4527 21.1016 18.4594 21.123 18.4658C21.3628 18.5373 21.5883 18.6035 21.7578 18.6943C22.7336 19.2168 23.0485 20.4657 22.4375 21.3887C22.3315 21.5489 22.1654 21.715 21.9883 21.8916C21.9724 21.9075 21.9556 21.9234 21.9395 21.9395C21.9234 21.9556 21.9075 21.9724 21.8916 21.9883C21.7149 22.1654 21.5489 22.3315 21.3887 22.4375C20.4657 23.0485 19.2168 22.7336 18.6943 21.7578C18.6035 21.5883 18.5373 21.3628 18.4658 21.123C18.4594 21.1016 18.4527 21.0802 18.4463 21.0586C18.4391 21.0344 18.431 21.0102 18.4238 20.9863C18.3453 20.7253 18.2732 20.4832 18.2568 20.2832C18.1617 19.1266 19.1266 18.1617 20.2832 18.2568ZM20.1582 19.751C19.9267 19.7334 19.7334 19.9267 19.751 20.1582C19.7515 20.1612 19.7563 20.1889 19.7744 20.2568C19.7972 20.3419 19.8312 20.4556 19.8828 20.6279C19.93 20.7857 19.9611 20.8879 19.9863 20.9639C20.0053 21.0209 20.0152 21.0443 20.0176 21.0498C20.1231 21.2464 20.3745 21.3097 20.5605 21.1865C20.5657 21.1824 20.5852 21.1663 20.6279 21.126C20.6863 21.0711 20.7622 20.9955 20.8789 20.8789C20.9955 20.7622 21.0711 20.6863 21.126 20.6279C21.169 20.5823 21.1854 20.5623 21.1875 20.5596C21.3091 20.374 21.246 20.1232 21.0508 20.0176C21.0474 20.0161 21.0234 20.0061 20.9639 19.9863C20.8879 19.9611 20.7857 19.93 20.6279 19.8828C20.4556 19.8312 20.3419 19.7972 20.2568 19.7744C20.1889 19.7563 20.1612 19.7515 20.1582 19.751ZM11 1.25C16.3848 1.25 20.75 5.61522 20.75 11C20.75 16.3848 16.3848 20.75 11 20.75C5.61522 20.75 1.25 16.3848 1.25 11C1.25 5.61522 5.61522 1.25 11 1.25ZM11 2.75C6.44365 2.75 2.75 6.44365 2.75 11C2.75 15.5563 6.44365 19.25 11 19.25C15.5563 19.25 19.25 15.5563 19.25 11C19.25 6.44365 15.5563 2.75 11 2.75Z" fill="#1C274C"/>
</svg>
