<svg width="24" height="24" viewBox="0 0 24 24" fill="none" xmlns="http://www.w3.org/2000/svg">
<path d="M10.9392 18.9185L9.07104 20.7866C7.45352 22.404 4.83122 22.4039 3.21362 20.7866C1.59602 19.169 1.59602 16.5458 3.21362 14.9282L5.08179 13.0601L10.9392 18.9185ZM3.21362 3.21338C4.83123 1.59578 7.45343 1.59578 9.07104 3.21338L20.7869 14.9282C22.4045 16.5458 22.4045 19.169 20.7869 20.7866C19.1693 22.4042 16.5461 22.4042 14.9285 20.7866L3.21362 9.0708C1.59602 7.45319 1.59602 4.83099 3.21362 3.21338ZM16.7693 15.6558C16.4618 15.3482 15.9635 15.3482 15.656 15.6558C15.3484 15.9632 15.3485 16.4615 15.656 16.769C15.9635 17.0766 16.4618 17.0766 16.7693 16.769C17.0769 16.4615 17.0769 15.9633 16.7693 15.6558ZM13.9851 14.7271C13.6776 14.4199 13.1794 14.42 12.8718 14.7271C12.5643 15.0346 12.5643 15.5337 12.8718 15.8413C13.1794 16.1485 13.6776 16.1486 13.9851 15.8413C14.2926 15.5337 14.2926 15.0346 13.9851 14.7271ZM15.8416 12.8716C15.534 12.5641 15.0348 12.5641 14.7273 12.8716C14.4202 13.1791 14.4201 13.6774 14.7273 13.9849C15.0348 14.2924 15.534 14.2924 15.8416 13.9849C16.1488 13.6773 16.1488 13.1792 15.8416 12.8716ZM13.0574 11.9429C12.7499 11.6354 12.2507 11.6354 11.9431 11.9429C11.6356 12.2505 11.6356 12.7496 11.9431 13.0571C12.2507 13.3647 12.7499 13.3647 13.0574 13.0571C13.365 12.7496 13.3649 12.2505 13.0574 11.9429ZM10.2732 11.0151C9.96563 10.7075 9.46649 10.7075 9.15894 11.0151C8.85154 11.3226 8.85159 11.8209 9.15894 12.1284C9.46649 12.436 9.96563 12.436 10.2732 12.1284C10.5802 11.821 10.5803 11.3225 10.2732 11.0151ZM14.9294 3.21338C16.547 1.59579 19.1693 1.59578 20.7869 3.21338C22.4043 4.831 22.4044 7.45324 20.7869 9.0708L18.9187 10.939L13.0613 5.08154L14.9294 3.21338ZM12.1287 9.15869C11.8212 8.85134 11.3228 8.8513 11.0154 9.15869C10.7078 9.46624 10.7078 9.96539 11.0154 10.2729C11.3228 10.58 11.8212 10.58 12.1287 10.2729C12.4363 9.96539 12.4363 9.46624 12.1287 9.15869ZM9.34448 8.23096C9.03693 7.92341 8.53875 7.92341 8.2312 8.23096C7.92365 8.53851 7.92365 9.03669 8.2312 9.34424C8.53876 9.6517 9.03696 9.65176 9.34448 9.34424C9.652 9.03672 9.65194 8.53851 9.34448 8.23096Z" fill="#48465C"/>
</svg>
