<svg width="24" height="24" viewBox="0 0 24 24" fill="none" xmlns="http://www.w3.org/2000/svg">
<path d="M17.1299 2.14355C18.0234 1.93902 18.8906 1.90593 19.6621 2.36719L19.6709 2.37207C19.7156 2.3991 19.7591 2.42724 19.8008 2.45605C20.0235 2.61028 20.2025 2.79017 20.3467 2.98926C20.6349 3.38754 20.7846 3.8647 20.8691 4.37598C20.8853 4.47394 20.8997 4.57896 20.9121 4.68457C20.9998 5.43289 21 6.37233 21 7.49219V16.8555C20.9998 18.6143 19.4121 20.04 17.4541 20.04C15.4963 20.0398 13.9094 18.6142 13.9092 16.8555C13.9092 15.0966 15.4962 13.6701 17.4541 13.6699C18.1569 13.6699 18.8123 13.8541 19.3633 14.1709V8.63086L10.0908 11.9629V18.8154C10.0906 20.5741 8.50367 21.9998 6.5459 22C4.58792 22 3.00019 20.5743 3 18.8154C3 17.0564 4.5878 15.6299 6.5459 15.6299C7.2485 15.63 7.9032 15.8141 8.4541 16.1309V8.33789C8.45407 7.73844 8.45442 7.23018 8.50488 6.8125C8.55863 6.36803 8.6756 5.95801 8.95703 5.57812C9.23844 5.19833 9.61422 4.94365 10.0498 4.72754C10.4593 4.52444 10.9811 4.32813 11.5967 4.09668L13.8809 3.2373C15.1944 2.74339 16.2658 2.34136 17.1299 2.14355Z" fill="#48465C"/>
</svg>
