<svg width="24" height="24" viewBox="0 0 24 24" fill="none" xmlns="http://www.w3.org/2000/svg">
<path d="M19.2426 19.75C19.0467 20.4359 18.7909 20.9147 18.3744 21.2734C17.5304 22.0001 16.298 22 13.8334 22H10.1674C7.70273 22 6.47027 22 5.62634 21.2734C5.20979 20.9147 4.95408 20.4359 4.75818 19.75H19.2426ZM7.93982 17L6.68982 18.25H4.44373C4.37642 17.8443 4.30922 17.3928 4.23376 16.8896L4.22595 16.835L6.00037 15.0605L7.93982 17ZM13.9388 17L12.6888 18.25H11.3109L10.0609 17L12.0004 15.0605L13.9388 17ZM19.7748 16.8359L19.767 16.8896C19.6916 17.3928 19.6233 17.8443 19.556 18.25H17.3109L16.0609 17L18.0004 15.0605L19.7748 16.8359ZM10.9398 14L9.00037 15.9395L7.06091 14L9.00037 12.0605L10.9398 14ZM16.9388 14L15.0004 15.9395L13.0609 14L15.0004 12.0605L16.9388 14ZM20.0511 14.9912L19.0609 14L20.4008 12.6592L20.0511 14.9912ZM4.93982 14L3.94861 14.9902L3.599 12.6602L4.93982 14ZM7.93982 11L6.00037 12.9395L4.06091 11L6.00037 9.06055L7.93982 11ZM13.9388 11L12.0004 12.9395L10.0609 11L12.0004 9.06055L13.9388 11ZM19.9388 11L18.0004 12.9395L16.0609 11L18.0004 9.06055L19.9388 11ZM10.9398 8L9.00037 9.93945L7.06091 8L8.31091 6.75H9.68982L10.9398 8ZM16.9388 8L15.0004 9.93945L13.0609 8L14.3109 6.75H15.6888L16.9388 8ZM4.93982 8L3.16638 9.77344L3.03357 8.88965C2.91206 8.07965 2.80613 7.37204 2.72986 6.75H3.68982L4.93982 8ZM21.2709 6.75C21.1947 7.37187 21.0887 8.07993 20.9672 8.88965L20.8344 9.77344L19.0609 8L20.3109 6.75H21.2709ZM15.0326 2C18.2716 2 19.8918 2.00006 20.7894 3.04199C21.2532 3.58058 21.4138 4.26887 21.3939 5.25H2.60681C2.58685 4.26887 2.74651 3.58058 3.21033 3.04199C4.10797 1.99977 5.72793 2 8.96716 2H15.0326Z" fill="#48465C"/>
</svg>
