<svg width="24" height="24" viewBox="0 0 24 24" fill="none" xmlns="http://www.w3.org/2000/svg">
<path d="M19.2425 19.75C19.0466 20.4359 18.7908 20.9147 18.3743 21.2734C17.5304 22.0001 16.2979 22 13.8333 22H10.1673C7.70266 22 6.4702 22 5.62628 21.2734C5.20972 20.9147 4.95402 20.4359 4.75812 19.75H19.2425ZM7.93976 17L6.68976 18.25H4.44366C4.37636 17.8443 4.30916 17.3928 4.2337 16.8896L4.22589 16.835L6.00031 15.0605L7.93976 17ZM13.9398 17L12.6898 18.25H11.3109L10.0609 17L12.0003 15.0605L13.9398 17ZM19.7747 16.8359L19.7669 16.8896C19.6915 17.3928 19.6233 17.8443 19.556 18.25H17.3109L16.0609 17L18.0003 15.0605L19.7747 16.8359ZM10.9398 14L9.00031 15.9395L7.06085 14L9.00031 12.0605L10.9398 14ZM16.9398 14L15.0003 15.9395L13.0609 14L15.0003 12.0605L16.9398 14ZM20.0511 14.9912L19.0609 14L20.4017 12.6592L20.0511 14.9912ZM4.93976 14L3.94855 14.9902L3.59894 12.6602L4.93976 14ZM7.93976 11L6.00031 12.9395L4.06085 11L6.00031 9.06055L7.93976 11ZM13.9398 11L12.0003 12.9395L10.0609 11L12.0003 9.06055L13.9398 11ZM19.9398 11L18.0003 12.9395L16.0609 11L18.0003 9.06055L19.9398 11ZM10.9398 8L9.00031 9.93945L7.06085 8L8.31085 6.75H9.68976L10.9398 8ZM16.9398 8L15.0003 9.93945L13.0609 8L14.3109 6.75H15.6898L16.9398 8ZM4.93976 8L3.16632 9.77344L3.03351 8.88965C2.912 8.07965 2.80607 7.37204 2.7298 6.75H3.68976L4.93976 8ZM21.2708 6.75C21.1946 7.37187 21.0886 8.07993 20.9671 8.88965L20.8343 9.77344L19.0609 8L20.3109 6.75H21.2708ZM15.0325 2C18.2715 2 19.8917 2.00006 20.7894 3.04199C21.2532 3.58058 21.4138 4.26887 21.3939 5.25H2.60675C2.58679 4.26887 2.74645 3.58058 3.21027 3.04199C4.10791 1.99977 5.72787 2 8.9671 2H15.0325Z" fill="#1C274C"/>
</svg>
