<svg width="24" height="24" viewBox="0 0 24 24" fill="none" xmlns="http://www.w3.org/2000/svg">
<path d="M14.7246 8.15625C16.2751 7.23801 17.0507 6.77873 17.6201 7.10449C18.1894 7.43028 18.1756 8.32548 18.1484 10.1152L18.1416 10.5781C18.1339 11.0866 18.1298 11.341 18.2246 11.5645C18.3194 11.7878 18.5019 11.9555 18.8672 12.29L19.2002 12.5947C20.4859 13.7724 21.1289 14.3612 20.9785 15.0225C20.8278 15.6838 19.9829 15.9798 18.2939 16.5713L17.8574 16.7246C17.3774 16.8927 17.1372 16.977 16.9531 17.1455C16.7691 17.3141 16.661 17.548 16.4463 18.0156L16.251 18.4414C15.4953 20.0872 15.1174 20.91 14.4551 20.9932C13.7926 21.0762 13.2841 20.3644 12.2676 18.9404L12.0039 18.5713C11.7153 18.167 11.5707 17.9651 11.3623 17.8457C11.1538 17.7264 10.9044 17.7028 10.4062 17.6572L9.95312 17.6162C8.20027 17.4558 7.32326 17.3755 7.06445 16.7656C6.80571 16.1555 7.33674 15.419 8.39746 13.9473L8.67188 13.5664C8.97305 13.1485 9.12351 12.9395 9.17871 12.6973C9.23392 12.4551 9.18781 12.2069 9.09473 11.7109L9.00977 11.2598C8.68227 9.51476 8.51831 8.64174 9.02051 8.18164C9.52312 7.72162 10.36 7.97857 12.0322 8.49316L12.4648 8.62598C12.9399 8.77216 13.1773 8.84576 13.4199 8.81543C13.6626 8.78504 13.8836 8.65448 14.3242 8.39355L14.7246 8.15625ZM3.96973 9.96973C4.26262 9.67684 4.73738 9.67684 5.03027 9.96973L6.53027 11.4697C6.82312 11.7626 6.82315 12.2374 6.53027 12.5303C6.23741 12.8231 5.76262 12.8231 5.46973 12.5303L3.96973 11.0303C3.67684 10.7374 3.67684 10.2627 3.96973 9.96973ZM1.46973 7.46973C1.76262 7.17684 2.23738 7.17684 2.53027 7.46973L3.03027 7.96973C3.3231 8.26262 3.32314 8.7374 3.03027 9.03027C2.7374 9.32314 2.26262 9.3231 1.96973 9.03027L1.46973 8.53027C1.17684 8.23738 1.17684 7.76262 1.46973 7.46973ZM3.46973 3.46973C3.76262 3.17684 4.23738 3.17684 4.53027 3.46973L7.03027 5.96973C7.3231 6.26262 7.32314 6.7374 7.03027 7.03027C6.7374 7.32314 6.26262 7.3231 5.96973 7.03027L3.46973 4.53027C3.17684 4.23738 3.17684 3.76262 3.46973 3.46973ZM12.4697 5.46973C12.7626 5.17684 13.2374 5.17684 13.5303 5.46973L14.0303 5.96973C14.3231 6.26262 14.3231 6.73741 14.0303 7.03027C13.7374 7.32315 13.2626 7.32312 12.9697 7.03027L12.4697 6.53027C12.1768 6.23739 12.1768 5.76262 12.4697 5.46973ZM8.96973 1.96973C9.26262 1.67684 9.73741 1.67684 10.0303 1.96973L12.0303 3.96973C12.3231 4.26262 12.3231 4.73741 12.0303 5.03027C11.7374 5.32315 11.2626 5.32312 10.9697 5.03027L8.96973 3.03027C8.67684 2.73738 8.67684 2.26262 8.96973 1.96973Z" fill="#48465C"/>
</svg>
