<svg width="24" height="24" viewBox="0 0 24 24" fill="none" xmlns="http://www.w3.org/2000/svg">
<path d="M12.5498 13.25C13.2144 13.25 13.7875 13.2498 14.2461 13.3115C14.7377 13.3776 15.2086 13.5271 15.5908 13.9092C15.9729 14.2914 16.1224 14.7623 16.1885 15.2539C16.2502 15.7125 16.25 16.2856 16.25 16.9502V19.0498C16.25 19.7144 16.2502 20.2875 16.1885 20.7461C16.1224 21.2377 15.9729 21.7086 15.5908 22.0908C15.2086 22.4729 14.7377 22.6224 14.2461 22.6885C13.7875 22.7502 13.2144 22.75 12.5498 22.75H11.4502C10.7856 22.75 10.2126 22.7502 9.75391 22.6885C9.26235 22.6224 8.79137 22.473 8.40918 22.0908C8.02701 21.7086 7.87763 21.2377 7.81152 20.7461C7.74986 20.2875 7.74996 19.7144 7.75 19.0498V16.9502C7.74996 16.2856 7.74986 15.7125 7.81152 15.2539C7.87763 14.7623 8.02701 14.2914 8.40918 13.9092C8.79137 13.527 9.26235 13.3776 9.75391 13.3115C10.2126 13.2498 10.7856 13.25 11.4502 13.25H12.5498ZM11.5 14.75C10.7718 14.75 10.301 14.7513 9.9541 14.7979C9.62882 14.8416 9.52682 14.9126 9.46973 14.9697C9.41264 15.0268 9.34159 15.1288 9.29785 15.4541C9.25123 15.801 9.25 16.2718 9.25 17V19C9.25 19.7282 9.25123 20.199 9.29785 20.5459C9.34159 20.8712 9.41264 20.9732 9.46973 21.0303C9.52682 21.0874 9.62882 21.1584 9.9541 21.2021C10.301 21.2487 10.7718 21.25 11.5 21.25H12.5C13.2282 21.25 13.699 21.2487 14.0459 21.2021C14.3712 21.1583 14.4732 21.0874 14.5303 21.0303C14.5874 20.9732 14.6583 20.8712 14.7021 20.5459C14.7487 20.199 14.75 19.7282 14.75 19V17C14.75 16.2718 14.7487 15.801 14.7021 15.4541C14.6583 15.1288 14.5874 15.0268 14.5303 14.9697C14.4732 14.9126 14.3712 14.8417 14.0459 14.7979C13.699 14.7513 13.2282 14.75 12.5 14.75H11.5ZM12.4766 1.25C15.6345 1.25017 18.2721 3.49421 18.8311 6.47168C21.1308 7.44788 22.7499 9.70908 22.75 12.3525C22.75 15.4264 20.5625 17.9839 17.6572 18.6055C17.2523 18.6921 16.8533 18.4342 16.7666 18.0293C16.68 17.6243 16.9379 17.2254 17.3428 17.1387C19.5825 16.6597 21.25 14.6926 21.25 12.3525C21.2498 10.216 19.8603 8.39081 17.9121 7.72461C17.4037 7.5508 16.857 7.4561 16.2861 7.45605C15.7035 7.45605 15.1451 7.55467 14.6279 7.73535C14.2369 7.87169 13.8094 7.66533 13.6729 7.27441C13.5363 6.8834 13.7428 6.45591 14.1338 6.31934C14.8081 6.08384 15.5331 5.95605 16.2861 5.95605C16.5813 5.95607 16.8721 5.97561 17.1572 6.01367C16.4765 4.1165 14.6423 2.75015 12.4766 2.75C9.72646 2.75 7.51172 4.95123 7.51172 7.64746C7.51176 8.10948 7.57661 8.55602 7.69727 8.97852C8.19435 9.12198 8.65962 9.33908 9.08008 9.61719C9.42554 9.84571 9.52051 10.3108 9.29199 10.6562C9.06348 11.0017 8.59839 11.0967 8.25293 10.8682C7.87219 10.6163 7.43941 10.4351 6.97363 10.3447C6.75194 10.3018 6.52192 10.2793 6.28613 10.2793C4.32504 10.2793 2.75003 11.8482 2.75 13.7646C2.75 15.6811 4.32502 17.25 6.28613 17.25C6.70016 17.2502 7.03613 17.5859 7.03613 18C7.03613 18.4141 6.70016 18.7498 6.28613 18.75C3.51338 18.75 1.25 16.5263 1.25 13.7646C1.25003 11.0605 3.41976 8.87213 6.11328 8.78223C6.04654 8.41365 6.01174 8.03436 6.01172 7.64746C6.01172 4.10612 8.91482 1.25 12.4766 1.25ZM13 17.25C13.4142 17.25 13.75 17.5858 13.75 18C13.75 18.4142 13.4142 18.75 13 18.75H11C10.5858 18.75 10.25 18.4142 10.25 18C10.25 17.5858 10.5858 17.25 11 17.25H13Z" fill="#48465C"/>
</svg>
