<svg width="24" height="24" viewBox="0 0 24 24" fill="none" xmlns="http://www.w3.org/2000/svg">
<path d="M12 2C16.714 2 19.0708 2.00037 20.5352 3.46484C21.9996 4.9293 22 7.28597 22 12C22 16.714 21.9997 19.0708 20.5352 20.5352C19.0708 21.9997 16.714 22 12 22C7.28597 22 4.9293 21.9996 3.46484 20.5352C2.00037 19.0708 2 16.714 2 12C2 7.28595 2.00037 4.9293 3.46484 3.46484C4.9293 2.00037 7.28595 2 12 2ZM10.5859 8.42188C10.1717 8.42188 9.83594 8.75767 9.83594 9.17188C9.8361 9.58595 10.1718 9.92188 10.5859 9.92188H13.0176L8.6416 14.2979C8.34872 14.5907 8.34873 15.0655 8.6416 15.3584C8.9345 15.6513 9.40926 15.6513 9.70215 15.3584L14.0781 10.9824V13.4141C14.0781 13.8282 14.4141 14.1639 14.8281 14.1641C15.2423 14.1641 15.5781 13.8283 15.5781 13.4141V9.17188C15.5781 8.75767 15.2423 8.42188 14.8281 8.42188H10.5859Z" fill="#1C274C"/>
</svg>
