<svg width="24" height="24" viewBox="0 0 24 24" fill="none" xmlns="http://www.w3.org/2000/svg">
<path d="M16.7627 3.28857C17.069 3.18648 17.4059 3.29203 17.5996 3.55029L20.5996 7.55029C20.8481 7.88165 20.7815 8.35157 20.4502 8.6001C20.1188 8.84861 19.6489 8.78103 19.4004 8.44971L17.75 6.24951V19.9995C17.75 20.4138 17.4142 20.7495 17 20.7495C16.5858 20.7495 16.25 20.4138 16.25 19.9995V3.99951C16.2502 3.67691 16.4567 3.39065 16.7627 3.28857ZM13 18.7495H8V17.2495H13V18.7495ZM13 13.7495H6V12.2495H13V13.7495ZM13 8.74951H4V7.24951H13V8.74951Z" fill="#48465C"/>
</svg>
