<svg width="24" height="24" viewBox="0 0 24 24" fill="none" xmlns="http://www.w3.org/2000/svg">
<path d="M16.6143 1.35693C16.9694 1.144 17.4305 1.25964 17.6436 1.61475C17.8563 1.96987 17.7408 2.43004 17.3857 2.64307L15.3613 3.85889C16.6673 4.57515 17.7198 5.69573 18.3506 7.05225L20.2217 6.3042C20.6062 6.15053 21.0425 6.33766 21.1963 6.72217C21.3499 7.10665 21.1628 7.54298 20.7783 7.69678L18.833 8.4751C18.9421 8.96609 19 9.47665 19 10.0005V12.2505H22C22.4142 12.2505 22.75 12.5863 22.75 13.0005C22.7499 13.4146 22.4141 13.7505 22 13.7505H19V15.0005C19 15.8511 18.8482 16.6663 18.5703 17.4204L20.7783 18.3042C21.1629 18.458 21.35 18.8943 21.1963 19.2788C21.0424 19.6633 20.6061 19.8505 20.2217 19.6968L17.9004 18.7681C16.6566 20.7117 14.4787 22.0005 12 22.0005C9.52129 22.0005 7.3434 20.7117 6.09961 18.7681L3.77832 19.6968C3.39378 19.8505 2.95753 19.6633 2.80371 19.2788C2.65003 18.8943 2.83716 18.458 3.22168 18.3042L5.42969 17.4204C5.1518 16.6663 5.00003 15.8511 5 15.0005V13.7505H2C1.58586 13.7505 1.25012 13.4146 1.25 13.0005C1.25 12.5863 1.58579 12.2505 2 12.2505H5V10.0005C5 9.47665 5.05788 8.9661 5.16699 8.4751L3.22168 7.69678C2.83722 7.543 2.65016 7.10666 2.80371 6.72217C2.95752 6.33765 3.39378 6.15051 3.77832 6.3042L5.64941 7.05225C6.28021 5.69573 7.33277 4.57516 8.63867 3.85889L6.61426 2.64307C6.25926 2.43003 6.1437 1.96986 6.35645 1.61475C6.56952 1.25963 7.03059 1.14398 7.38574 1.35693L10.4219 3.1792C10.9291 3.06236 11.4574 3.00049 12 3.00049C12.5426 3.00049 13.0709 3.06236 13.5781 3.1792L16.6143 1.35693ZM10.5 14.7505C10.0858 14.7505 9.75 15.0863 9.75 15.5005C9.75012 15.9146 10.0859 16.2505 10.5 16.2505H13.5C13.9141 16.2505 14.2499 15.9146 14.25 15.5005C14.25 15.0863 13.9142 14.7505 13.5 14.7505H10.5ZM10.5 9.75049C10.0858 9.75049 9.75 10.0863 9.75 10.5005C9.75012 10.9146 10.0859 11.2505 10.5 11.2505H13.5C13.9141 11.2505 14.2499 10.9146 14.25 10.5005C14.25 10.0863 13.9142 9.75049 13.5 9.75049H10.5Z" fill="#1C274C"/>
</svg>
