<svg width="24" height="24" viewBox="0 0 24 24" fill="none" xmlns="http://www.w3.org/2000/svg">
<path d="M14.6648 2.3291C15.0353 2.14404 15.4855 2.29464 15.6707 2.66504L17.4841 6.29102C17.9116 6.31276 18.3017 6.34674 18.655 6.39746C19.7105 6.54905 20.5839 6.87468 21.2048 7.64258C21.8258 8.41073 21.9613 9.3334 21.8884 10.3975C21.8176 11.4286 21.5395 12.7289 21.1912 14.3545L20.74 16.4609C20.5051 17.5572 20.3137 18.4468 20.074 19.1416C19.8241 19.8656 19.4949 20.4612 18.9324 20.916C18.3698 21.3709 17.7182 21.5684 16.9578 21.6611C16.2283 21.75 15.319 21.75 14.198 21.75H9.80249C8.6812 21.75 7.77136 21.75 7.04175 21.6611C6.28151 21.5684 5.63068 21.3708 5.06812 20.916C4.50548 20.4612 4.17547 19.8657 3.92554 19.1416C3.68578 18.4469 3.49538 17.5571 3.2605 16.4609L2.80933 14.3545C2.46097 12.7289 2.18182 11.4286 2.11108 10.3975C2.03811 9.33342 2.17372 8.41072 2.79468 7.64258C3.41566 6.87444 4.28974 6.54905 5.34546 6.39746C5.6987 6.34675 6.08892 6.31275 6.51636 6.29102L8.32886 2.66504C8.5141 2.29456 8.96521 2.14386 9.33569 2.3291C9.70608 2.5144 9.85588 2.9655 9.67065 3.33594L8.21265 6.25195C8.57616 6.24987 8.95903 6.25 9.36108 6.25H14.6394C15.0414 6.25 15.4244 6.24987 15.7878 6.25195L14.3289 3.33594C14.1436 2.96546 14.2943 2.51435 14.6648 2.3291ZM9.42163 7.75C8.67773 7.75 8.02809 7.75017 7.45776 7.76074L6.67065 9.33594C6.48532 9.7061 6.03513 9.85597 5.66479 9.6709C5.29444 9.48571 5.14391 9.03546 5.32886 8.66504L5.73218 7.8584C5.673 7.86556 5.61498 7.87371 5.55835 7.88184C4.67453 8.00875 4.24123 8.24013 3.96167 8.58594C3.68211 8.93176 3.54704 9.4041 3.60815 10.2949C3.67067 11.2061 3.92472 12.4015 4.28882 14.1006L4.71753 16.1006C4.96484 17.2547 5.13704 18.0542 5.34351 18.6523C5.54331 19.2313 5.74811 19.5379 6.0105 19.75C6.27291 19.9622 6.61551 20.0978 7.22339 20.1719C7.85169 20.2485 8.66968 20.25 9.85034 20.25H14.1492C15.3297 20.25 16.1479 20.2484 16.7761 20.1719C17.3839 20.0978 17.7266 19.9621 17.989 19.75C18.2514 19.5379 18.4562 19.2313 18.656 18.6523C18.8625 18.0541 19.0356 17.2548 19.283 16.1006L19.7117 14.1006C20.0758 12.4015 20.3298 11.2061 20.3923 10.2949C20.4534 9.40427 20.3183 8.93174 20.0388 8.58594C19.7592 8.24012 19.3251 8.00875 18.4412 7.88184C18.3848 7.87373 18.3272 7.86553 18.2683 7.8584L18.6707 8.66504C18.8558 9.03541 18.7059 9.4856 18.3357 9.6709C17.9652 9.85611 17.5141 9.7063 17.3289 9.33594L16.5417 7.76074C15.9714 7.75018 15.3218 7.75 14.5779 7.75H9.42163ZM13.9998 14.25C14.414 14.25 14.7498 14.5858 14.7498 15C14.7497 15.4142 14.4139 15.75 13.9998 15.75H9.99976C9.58569 15.7498 9.24977 15.4141 9.24976 15C9.24976 14.5859 9.58568 14.2502 9.99976 14.25H13.9998ZM15.9998 11.25C16.414 11.25 16.7498 11.5858 16.7498 12C16.7497 12.4142 16.4139 12.75 15.9998 12.75H7.99976C7.58569 12.7498 7.24977 12.4141 7.24976 12C7.24976 11.5859 7.58568 11.2502 7.99976 11.25H15.9998Z" fill="#1C274C"/>
</svg>
