<svg width="24" height="24" viewBox="0 0 24 24" fill="none" xmlns="http://www.w3.org/2000/svg">
<path d="M1.9873 2.95312C2.67187 2.29959 3.75505 2.01326 4.80273 2.48047L21.3125 9.84277C23.229 10.6974 23.229 13.3035 21.3125 14.1582L4.80273 21.5205C3.75515 21.9876 2.67185 21.7012 1.9873 21.0479C1.29699 20.3888 0.978401 19.3122 1.5293 18.2803L4.68164 12.376C4.80866 12.1377 4.80882 11.8623 4.68164 11.624L1.5293 5.7207C0.978334 4.68877 1.297 3.61218 1.9873 2.95312ZM4.19238 3.85059C3.7443 3.65077 3.30338 3.77092 3.02344 4.03809C2.74931 4.29978 2.66273 4.65795 2.85254 5.01367L6.00488 10.918C6.36767 11.5978 6.36777 12.4033 6.00488 13.083L2.85254 18.9863C2.66258 19.3421 2.74926 19.7012 3.02344 19.9629C3.30339 20.23 3.7444 20.3502 4.19238 20.1504L20.7012 12.7881C21.4322 12.4621 21.4323 11.5389 20.7012 11.2129L4.19238 3.85059Z" fill="#48465C"/>
</svg>
