<svg width="24" height="24" viewBox="0 0 24 24" fill="none" xmlns="http://www.w3.org/2000/svg">
<path d="M11.9996 1.25C14.0707 1.25 15.7496 2.92893 15.7496 5V6.01465C17.0368 6.05328 17.8251 6.19234 18.4264 6.69141C19.2595 7.3829 19.4786 8.55377 19.9176 10.8945L20.6676 14.8945C21.2848 18.186 21.5936 19.8319 20.694 20.916C19.7943 22.0001 18.1192 22 14.7701 22H9.22913C5.88043 22 4.20597 22 3.30627 20.916C2.40657 19.8319 2.71547 18.1861 3.33264 14.8945L4.08264 10.8945C4.52155 8.55362 4.74067 7.38289 5.57385 6.69141C6.17512 6.19241 6.96268 6.05331 8.24963 6.01465V5C8.24963 2.92905 9.92872 1.25019 11.9996 1.25ZM14.7975 8.87988C14.5992 8.90301 14.42 8.97041 14.2692 9.03613C14.1206 9.10093 13.9427 9.19057 13.7399 9.29199L12.3698 9.97656C12.2249 10.0487 12.0711 10.1251 11.9371 10.2275C11.5955 10.4886 11.3617 10.8668 11.2809 11.2891C11.2492 11.4547 11.2494 11.6672 11.2496 11.8291V14.5498C10.8747 14.3582 10.4496 14.25 9.99963 14.25C8.481 14.2502 7.24963 15.4813 7.24963 17C7.24963 18.5187 8.481 19.7498 9.99963 19.75C11.5185 19.75 12.7496 18.5188 12.7496 17V14.1143C12.897 14.1355 13.0494 14.138 13.2028 14.1201C13.4012 14.097 13.5802 14.0297 13.7311 13.9639C13.8797 13.8991 14.0576 13.8095 14.2604 13.708L15.6305 13.0234C15.7753 12.9513 15.9292 12.8749 16.0631 12.7725C16.4047 12.5114 16.6375 12.1332 16.7184 11.7109C16.7501 11.5453 16.7499 11.3737 16.7496 11.2119V11.1523C16.7496 10.9255 16.7503 10.7264 16.7418 10.5645C16.7331 10.4003 16.713 10.2101 16.6451 10.0225C16.3687 9.2592 15.6038 8.78596 14.7975 8.87988ZM9.99963 15.75C10.69 15.75 11.2496 16.3096 11.2496 17C11.2496 17.6903 10.69 18.25 9.99963 18.25C9.30944 18.2498 8.74963 17.6902 8.74963 17C8.74963 16.3097 9.30944 15.7502 9.99963 15.75ZM14.9781 10.3691C15.088 10.3596 15.1914 10.4238 15.2321 10.5264C15.2336 10.5351 15.2398 10.5684 15.2438 10.6436C15.25 10.7612 15.2496 10.92 15.2496 11.1709C15.2496 11.278 15.2504 11.3394 15.2487 11.3857C15.2477 11.4143 15.2461 11.4265 15.2457 11.4297C15.2341 11.4896 15.2004 11.5429 15.152 11.5801C15.1493 11.5818 15.1391 11.5888 15.1139 11.6025C15.0732 11.6246 15.0184 11.6523 14.9225 11.7002L13.6061 12.3584C13.3816 12.4707 13.2395 12.5418 13.1315 12.5889C13.0617 12.6192 13.0292 12.6286 13.0211 12.6309C12.9114 12.6402 12.8079 12.5771 12.7672 12.4746C12.7657 12.4664 12.7605 12.4325 12.7565 12.3564C12.7503 12.2389 12.7496 12.0799 12.7496 11.8291C12.7496 11.7224 12.75 11.6614 12.7516 11.6152C12.7527 11.5862 12.754 11.5734 12.7545 11.5703C12.7661 11.5106 12.7991 11.457 12.8473 11.4199C12.8498 11.4181 12.861 11.4113 12.8864 11.3975C12.9269 11.3753 12.9813 11.3476 13.0768 11.2998L14.3942 10.6416C14.6184 10.5295 14.7608 10.4592 14.8688 10.4121C14.9376 10.3821 14.9696 10.3717 14.9781 10.3691ZM11.9996 2.75C10.7572 2.75019 9.74963 3.75748 9.74963 5V6H14.2496V5C14.2496 3.75736 13.2422 2.75 11.9996 2.75Z" fill="#1C274C"/>
</svg>
