<svg width="24" height="24" viewBox="0 0 24 24" fill="none" xmlns="http://www.w3.org/2000/svg">
<path d="M13.5 2C16.7731 2 18.4099 1.99974 19.6123 2.73633C20.2851 3.14861 20.8514 3.71492 21.2637 4.3877C22.0003 5.59 22 7.22688 22 10.5V11.5C22 13.8296 21.9997 14.9943 21.6191 15.9131C21.1116 17.1383 20.1383 18.1116 18.9131 18.6191C18.2528 18.8926 17.4652 18.9695 16.21 18.9912C15.3601 19.0058 14.9353 19.0137 14.5977 19.21C14.26 19.4063 14.0493 19.7614 13.6289 20.4717L13.0869 21.3877C12.6037 22.204 11.3963 22.204 10.9131 21.3877L10.3711 20.4717C9.95068 19.7614 9.74002 19.4064 9.40234 19.21C9.06475 19.0137 8.63985 19.0058 7.79004 18.9912C6.5348 18.9695 5.74718 18.8926 5.08691 18.6191C3.86177 18.1116 2.88833 17.1383 2.38086 15.9131C2.00033 14.9943 2 13.8296 2 11.5V10.5C2 7.22688 1.99974 5.59 2.73633 4.3877C3.14861 3.71492 3.71492 3.14861 4.3877 2.73633C5.59 1.99974 7.22688 2 10.5 2H13.5ZM13.4883 5.27539C13.0882 5.1682 12.6766 5.40567 12.5693 5.80566L9.98145 15.4648C9.87424 15.8649 10.1116 16.2766 10.5117 16.3838C10.9118 16.4909 11.3235 16.2536 11.4307 15.8535L14.0186 6.19434C14.1257 5.79429 13.8883 5.38264 13.4883 5.27539ZM9.03027 7.29883C8.73745 7.00626 8.26255 7.00626 7.96973 7.29883L7.79785 7.4707L7.76172 7.50781C7.12654 8.14295 6.59644 8.67239 6.23242 9.14941C5.84819 9.65301 5.57812 10.186 5.57812 10.8301C5.57826 11.474 5.84829 12.0063 6.23242 12.5098C6.59644 12.9868 7.12654 13.5162 7.76172 14.1514L7.79785 14.1885L7.96973 14.3604C8.26255 14.6529 8.73745 14.6529 9.03027 14.3604C9.32316 14.0675 9.32316 13.5917 9.03027 13.2988L8.8584 13.1279C8.17685 12.4463 7.72044 11.9871 7.4248 11.5996C7.14262 11.2298 7.07824 11.0143 7.07812 10.8301C7.07812 10.6458 7.14237 10.4297 7.4248 10.0596C7.72044 9.67208 8.17685 9.2128 8.8584 8.53125L9.03027 8.36035C9.32316 8.06746 9.32316 7.59172 9.03027 7.29883ZM16.0303 7.29883C15.7374 7.00624 15.2626 7.00624 14.9697 7.29883C14.6768 7.59172 14.6768 8.06746 14.9697 8.36035L15.1416 8.53125C15.8232 9.21279 16.2796 9.67208 16.5752 10.0596C16.8576 10.4297 16.9219 10.6458 16.9219 10.8301C16.9218 11.0143 16.8574 11.2298 16.5752 11.5996C16.2796 11.9871 15.8232 12.4463 15.1416 13.1279L14.9697 13.2988C14.6768 13.5917 14.6768 14.0675 14.9697 14.3604C15.2626 14.6529 15.7374 14.6529 16.0303 14.3604L16.2383 14.1514C16.8734 13.5162 17.4036 12.9868 17.7676 12.5098C18.1518 12.0063 18.4217 11.474 18.4219 10.8301C18.4219 10.186 18.1519 9.65301 17.7676 9.14941C17.4036 8.67238 16.8734 8.14296 16.2383 7.50781L16.0303 7.29883Z" fill="#1C274C"/>
</svg>
