<svg width="24" height="24" viewBox="0 0 24 24" fill="none" xmlns="http://www.w3.org/2000/svg">
<path d="M9.37549 17.084C9.60517 16.7394 10.071 16.6465 10.4155 16.876C10.7601 17.1057 10.8533 17.5714 10.6235 17.916L7.62451 22.416C7.39474 22.7607 6.92815 22.8538 6.5835 22.624C6.23917 22.3943 6.14597 21.9285 6.37549 21.584L9.37549 17.084ZM13.6353 9.25684C14.7491 9.33675 15.7045 10.0824 16.0522 11.1436C16.083 11.2378 16.1082 11.3408 16.1411 11.4727L16.147 11.4971C16.203 11.7211 16.2204 11.7846 16.2358 11.8291C16.446 12.4351 17.0804 12.7836 17.7046 12.6357C17.7505 12.6249 17.8134 12.6052 18.0327 12.5322L18.7632 12.2881C19.156 12.1574 19.5804 12.37 19.7114 12.7627C19.8424 13.1557 19.6298 13.5809 19.2368 13.7119L18.4751 13.9658C18.3032 14.0232 18.1711 14.0672 18.0513 14.0957C16.6781 14.4213 15.2805 13.6545 14.8179 12.3213C14.7775 12.2048 14.7446 12.0695 14.7007 11.8936C14.698 11.8828 14.6947 11.8716 14.6919 11.8604C14.6503 11.6941 14.6383 11.6476 14.6265 11.6113C14.4685 11.1289 14.0342 10.7892 13.5278 10.7529C13.4897 10.7502 13.442 10.75 13.27 10.75H12.1782L12.0874 11.6611C11.9133 13.4012 11.8529 14.101 12.0083 14.7627C12.1638 15.4244 12.5295 16.0241 13.4604 17.5049L16.0356 21.6006C16.2561 21.9513 16.15 22.4143 15.7993 22.6348C15.4486 22.8551 14.9856 22.75 14.7651 22.3994L12.1909 18.3027C12.1664 18.2639 12.1417 18.2256 12.1177 18.1875C11.283 16.8601 10.768 16.0409 10.5483 15.1064C10.3289 14.1719 10.4253 13.2087 10.5815 11.6484C10.586 11.6038 10.5906 11.5584 10.5952 11.5127L10.6714 10.751C10.1703 10.7536 9.79881 10.7635 9.49951 10.7998C9.12261 10.8456 8.94635 10.9246 8.82178 11.0244C8.69718 11.1244 8.58207 11.2795 8.45557 11.6377C8.32225 12.0153 8.20652 12.5259 8.03564 13.2949L7.73193 14.6631C7.64191 15.0671 7.24155 15.3222 6.8374 15.2324C6.43305 15.1426 6.17821 14.7413 6.26807 14.3369L6.58154 12.9258C6.73999 12.2127 6.87339 11.6122 7.04053 11.1387C7.21796 10.6362 7.45951 10.1944 7.8833 9.85449C8.30698 9.51464 8.78999 9.37477 9.31885 9.31055C9.81734 9.25005 10.4328 9.24997 11.1636 9.25H13.2944C13.4304 9.24997 13.5364 9.24975 13.6353 9.25684ZM12.5005 1.25C14.2952 1.25026 15.7505 2.70523 15.7505 4.5C15.7505 6.29477 14.2952 7.74974 12.5005 7.75C10.7056 7.75 9.24951 6.29493 9.24951 4.5C9.24951 2.70507 10.7056 1.25 12.5005 1.25ZM12.5005 2.75C11.534 2.75 10.7505 3.5335 10.7505 4.5C10.7505 5.4665 11.534 6.25 12.5005 6.25C13.4668 6.24974 14.2505 5.46634 14.2505 4.5C14.2505 3.53366 13.4668 2.75026 12.5005 2.75Z" fill="#1C274C"/>
</svg>
