<svg width="24" height="24" viewBox="0 0 24 24" fill="none" xmlns="http://www.w3.org/2000/svg">
<path d="M19.5001 6.25C19.9142 6.25003 20.2501 6.58581 20.2501 7C20.2501 9.24422 19.2982 10.7193 18.0635 11.6084C16.8671 12.4699 15.4535 12.75 14.5001 12.75H6.31061L10.0303 16.4697C10.3232 16.7626 10.3232 17.2374 10.0303 17.5303C9.73749 17.8232 9.26268 17.8231 8.96979 17.5303L3.96979 12.5303C3.6769 12.2374 3.6769 11.7626 3.96979 11.4697L8.96979 6.46973C9.26268 6.17687 9.73748 6.17685 10.0303 6.46973C10.3232 6.76261 10.3232 7.23739 10.0303 7.53027L6.31061 11.25H14.5001C15.2133 11.25 16.2999 11.0299 17.1866 10.3916C18.0351 9.7807 18.7501 8.75556 18.7501 7C18.7501 6.58579 19.0859 6.25 19.5001 6.25Z" fill="#1C274C"/>
</svg>
