<svg width="24" height="24" viewBox="0 0 24 24" fill="none" xmlns="http://www.w3.org/2000/svg">
<path d="M17.0732 1.38086C18.7641 1.54718 20.0672 1.93642 21.0654 2.93457C21.9602 3.82938 22.3662 4.96933 22.5605 6.41406C22.7502 7.82544 22.75 9.63432 22.75 11.9424V12.0576C22.75 12.3717 22.7495 12.6767 22.749 12.9727C22.7493 12.9816 22.75 12.991 22.75 13C22.75 13.0098 22.7494 13.0196 22.749 13.0293C22.7456 14.8811 22.7227 16.379 22.5605 17.5859C22.3662 19.0306 21.9602 20.1715 21.0654 21.0664C20.1707 21.9609 19.0304 22.3664 17.5859 22.5605C16.1745 22.7503 14.3657 22.75 12.0576 22.75H11.9424C9.63432 22.75 7.82544 22.7503 6.41406 22.5605C4.96955 22.3664 3.82932 21.9609 2.93457 21.0664C2.03976 20.1715 1.63369 19.0306 1.43945 17.5859C1.27723 16.379 1.25438 14.8811 1.25098 13.0293C1.2506 13.0196 1.25 13.0098 1.25 13V11.9424C1.24999 9.63432 1.24973 7.82544 1.43945 6.41406C1.63369 4.96933 2.03976 3.82938 2.93457 2.93457C3.93277 1.9364 5.23589 1.54718 6.92676 1.38086C7.33893 1.3404 7.70555 1.64153 7.74609 2.05371C7.78656 2.46587 7.48542 2.8325 7.07324 2.87305C5.51397 3.02644 4.62983 3.36042 3.99512 3.99512C3.42552 4.56471 3.09865 5.33513 2.92676 6.61328C2.75198 7.91324 2.75 9.62181 2.75 12C2.75 12.0841 2.74999 12.1675 2.75 12.25H5.29492C6.06725 12.2492 6.6792 12.2489 7.22949 12.502C7.77968 12.7551 8.17767 13.2198 8.67969 13.8066C8.70841 13.8402 8.73715 13.8748 8.7666 13.9092L9.37207 14.6152C10.0058 15.3545 10.1838 15.5374 10.3975 15.6357C10.6113 15.7341 10.8661 15.75 11.8398 15.75H12.1602C13.1339 15.75 13.3887 15.7341 13.6025 15.6357C13.8162 15.5374 13.9942 15.3545 14.6279 14.6152L15.2334 13.9092C15.2629 13.8748 15.2915 13.8402 15.3203 13.8066C15.8223 13.2198 16.2203 12.7551 16.7705 12.502C17.3207 12.2489 17.9328 12.2492 18.7051 12.25H21.25V12C21.25 9.62181 21.248 7.91324 21.0732 6.61328C20.9014 5.33513 20.5745 4.56471 20.0049 3.99512C19.3702 3.36042 18.486 3.02644 16.9268 2.87305C16.5146 2.8325 16.2135 2.46587 16.2539 2.05371C16.2944 1.64152 16.6611 1.34038 17.0732 1.38086ZM2.75391 13.75C2.76335 15.2527 2.79817 16.4303 2.92676 17.3867C3.09864 18.6649 3.42553 19.4352 3.99512 20.0049C4.56471 20.5744 5.33508 20.9013 6.61328 21.0732C7.91326 21.248 9.62178 21.25 12 21.25C14.3782 21.25 16.0867 21.248 17.3867 21.0732C18.6649 20.9013 19.4352 20.5744 20.0049 20.0049C20.5745 19.4352 20.9014 18.6649 21.0732 17.3867C21.2018 16.4303 21.2367 15.2527 21.2461 13.75H18.8398C17.8661 13.75 17.6113 13.7659 17.3975 13.8643C17.1838 13.9626 17.0058 14.1455 16.3721 14.8848L15.7666 15.5908C15.7371 15.6252 15.7085 15.6598 15.6797 15.6934C15.1777 16.2802 14.7797 16.7449 14.2295 16.998C13.6793 17.2511 13.0672 17.2508 12.2949 17.25H11.7051C10.9328 17.2508 10.3207 17.2511 9.77051 16.998C9.22031 16.7449 8.82233 16.2802 8.32031 15.6934C8.29159 15.6598 8.26285 15.6252 8.2334 15.5908L7.62793 14.8848C6.99423 14.1455 6.8163 13.9626 6.60254 13.8643C6.38878 13.7659 6.13397 13.75 5.16016 13.75H2.75391ZM12 1.25C12.4142 1.25 12.75 1.58579 12.75 2V8.18945L14.4697 6.46973C14.7626 6.17684 15.2374 6.17684 15.5303 6.46973C15.8232 6.76261 15.8232 7.23739 15.5303 7.53027L12.5303 10.5303C12.2374 10.8232 11.7626 10.8232 11.4697 10.5303L8.46973 7.53027C8.17684 7.23738 8.17684 6.76262 8.46973 6.46973C8.76262 6.17684 9.23738 6.17684 9.53027 6.46973L11.25 8.18945V2C11.25 1.58579 11.5858 1.25 12 1.25Z" fill="#48465C"/>
</svg>
