<svg width="24" height="24" viewBox="0 0 24 24" fill="none" xmlns="http://www.w3.org/2000/svg">
<path d="M10.999 1.25C11.4131 1.24949 11.7493 1.58495 11.75 1.99902C11.7505 2.41306 11.4151 2.74925 11.001 2.75C8.96123 2.75367 7.47773 2.78164 6.33984 2.96582C5.22418 3.14646 4.52364 3.4657 3.99512 3.99414C3.42546 4.5638 3.09864 5.33488 2.92676 6.61328C2.75202 7.91316 2.75 9.62116 2.75 11.999C2.75 14.3772 2.75198 16.0858 2.92676 17.3857C3.09864 18.6642 3.42546 19.4353 3.99512 20.0049C4.5647 20.5744 5.33526 20.9014 6.61328 21.0732C7.91326 21.2479 9.62178 21.249 12 21.249C14.3782 21.249 16.0867 21.2479 17.3867 21.0732C18.6647 20.9014 19.4353 20.5744 20.0049 20.0049C20.5335 19.4763 20.8525 18.7752 21.0332 17.6592C21.2174 16.5213 21.2453 15.0379 21.249 12.998C21.2499 12.5839 21.5868 12.2483 22.001 12.249C22.4151 12.2499 22.7498 12.5868 22.749 13.001C22.7454 15.0158 22.7203 16.6217 22.5137 17.8984C22.3035 19.1971 21.8938 20.237 21.0654 21.0654C20.1707 21.96 19.0305 22.3653 17.5859 22.5596C16.1745 22.7492 14.3657 22.749 12.0576 22.749H11.9424C9.6343 22.749 7.82545 22.7492 6.41406 22.5596C4.96947 22.3653 3.82934 21.96 2.93457 21.0654C2.0398 20.1707 1.6337 19.0306 1.43945 17.5859C1.24968 16.1744 1.24999 14.365 1.25 12.0566V11.9424C1.24999 9.63403 1.24968 7.82458 1.43945 6.41309C1.63369 4.96835 2.03976 3.8284 2.93457 2.93359C3.76294 2.10531 4.802 1.69556 6.10059 1.48535C7.37737 1.27869 8.98392 1.25363 10.999 1.25ZM22 1.25C22.4142 1.25 22.75 1.58579 22.75 2V7.34375C22.75 7.75797 22.4142 8.09375 22 8.09375C21.5858 8.09375 21.25 7.75797 21.25 7.34375V3.81055L13.8105 11.25H16C16.4142 11.25 16.75 11.5858 16.75 12C16.75 12.4142 16.4142 12.75 16 12.75H12C11.5858 12.75 11.25 12.4142 11.25 12V8C11.25 7.58579 11.5858 7.25 12 7.25C12.4142 7.25 12.75 7.58579 12.75 8V10.1895L20.1895 2.75H16.6562C16.2421 2.75 15.9062 2.41422 15.9062 2C15.9062 1.58579 16.2421 1.25 16.6562 1.25H22Z" fill="#1C274C"/>
</svg>
