<svg width="24" height="24" viewBox="0 0 24 24" fill="none" xmlns="http://www.w3.org/2000/svg">
<path d="M12 20C12.5523 20 13 20.4477 13 21C13 21.5523 12.5523 22 12 22C11.4477 22 11 21.5523 11 21C11 20.4477 11.4477 20 12 20ZM9 18.5C9.55228 18.5 10 18.9477 10 19.5C10 20.0523 9.55228 20.5 9 20.5C8.44772 20.5 8 20.0523 8 19.5C8 18.9477 8.44772 18.5 9 18.5ZM15 18.5C15.5523 18.5 16 18.9477 16 19.5C16 20.0523 15.5523 20.5 15 20.5C14.4477 20.5 14 20.0523 14 19.5C14 18.9477 14.4477 18.5 15 18.5ZM12.4766 2.25C15.6345 2.25017 18.2721 4.49421 18.8311 7.47168C21.1308 8.44788 22.7499 10.7091 22.75 13.3525C22.75 16.4264 20.5625 18.9839 17.6572 19.6055C17.2523 19.6921 16.8533 19.4342 16.7666 19.0293C16.68 18.6243 16.9379 18.2254 17.3428 18.1387C19.5825 17.6597 21.25 15.6926 21.25 13.3525C21.2498 11.216 19.8603 9.39081 17.9121 8.72461C17.4037 8.5508 16.857 8.4561 16.2861 8.45605C15.7035 8.45605 15.1451 8.55467 14.6279 8.73535C14.2369 8.87169 13.8094 8.66533 13.6729 8.27441C13.5363 7.8834 13.7428 7.45591 14.1338 7.31934C14.8081 7.08384 15.5331 6.95605 16.2861 6.95605C16.5813 6.95607 16.8721 6.97561 17.1572 7.01367C16.4765 5.1165 14.6423 3.75015 12.4766 3.75C9.72646 3.75 7.51172 5.95123 7.51172 8.64746C7.51176 9.10948 7.57661 9.55602 7.69727 9.97852C8.19435 10.122 8.65962 10.3391 9.08008 10.6172C9.42554 10.8457 9.52051 11.3108 9.29199 11.6562C9.06348 12.0017 8.59839 12.0967 8.25293 11.8682C7.87219 11.6163 7.43941 11.4351 6.97363 11.3447C6.75196 11.3018 6.52192 11.2793 6.28613 11.2793C4.32504 11.2793 2.75003 12.8482 2.75 14.7646C2.75 16.6811 4.32502 18.25 6.28613 18.25C6.70016 18.2502 7.03613 18.5859 7.03613 19C7.03613 19.4141 6.70016 19.7498 6.28613 19.75C3.51338 19.75 1.25 17.5263 1.25 14.7646C1.25003 12.0605 3.41976 9.87213 6.11328 9.78223C6.04654 9.41365 6.01174 9.03436 6.01172 8.64746C6.01172 5.10612 8.91482 2.25 12.4766 2.25ZM12 17C12.5523 17 13 17.4477 13 18C13 18.5523 12.5523 19 12 19C11.4477 19 11 18.5523 11 18C11 17.4477 11.4477 17 12 17ZM9 15.5C9.55228 15.5 10 15.9477 10 16.5C10 17.0523 9.55228 17.5 9 17.5C8.44772 17.5 8 17.0523 8 16.5C8 15.9477 8.44772 15.5 9 15.5ZM15 15.5C15.5523 15.5 16 15.9477 16 16.5C16 17.0523 15.5523 17.5 15 17.5C14.4477 17.5 14 17.0523 14 16.5C14 15.9477 14.4477 15.5 15 15.5Z" fill="#1C274C"/>
</svg>
