<svg width="24" height="24" viewBox="0 0 24 24" fill="none" xmlns="http://www.w3.org/2000/svg">
<path d="M17.5 4.03711C18.7578 4.10768 19.5518 4.30773 20.1211 4.87695C20.9998 5.75561 21 7.16976 21 9.99805V15.998C21 18.8263 20.9997 20.2404 20.1211 21.1191C19.2424 21.9978 17.8284 21.998 15 21.998H9C6.17157 21.998 4.75759 21.9978 3.87891 21.1191C3.00034 20.2404 3 18.8263 3 15.998V9.99805C3 7.16976 3.00025 5.75561 3.87891 4.87695C4.44819 4.30774 5.24218 4.10768 6.5 4.03711V4.5C6.5 6.15685 7.84315 7.5 9.5 7.5H14.5C16.1569 7.5 17.5 6.15685 17.5 4.5V4.03711ZM7 16.75C6.58579 16.75 6.25 17.0858 6.25 17.5C6.25 17.9142 6.58579 18.25 7 18.25H7.5C7.91421 18.25 8.25 17.9142 8.25 17.5C8.25 17.0858 7.91421 16.75 7.5 16.75H7ZM10.5 16.75C10.0858 16.75 9.75 17.0858 9.75 17.5C9.75 17.9142 10.0858 18.25 10.5 18.25H17C17.4142 18.25 17.75 17.9142 17.75 17.5C17.75 17.0858 17.4142 16.75 17 16.75H10.5ZM7 13.25C6.58579 13.25 6.25 13.5858 6.25 14C6.25 14.4142 6.58579 14.75 7 14.75H7.5C7.91421 14.75 8.25 14.4142 8.25 14C8.25 13.5858 7.91421 13.25 7.5 13.25H7ZM10.5 13.25C10.0858 13.25 9.75 13.5858 9.75 14C9.75 14.4142 10.0858 14.75 10.5 14.75H17C17.4142 14.75 17.75 14.4142 17.75 14C17.75 13.5858 17.4142 13.25 17 13.25H10.5ZM7 9.75C6.58579 9.75 6.25 10.0858 6.25 10.5C6.25 10.9142 6.58579 11.25 7 11.25H7.5C7.91421 11.25 8.25 10.9142 8.25 10.5C8.25 10.0858 7.91421 9.75 7.5 9.75H7ZM10.5 9.75C10.0858 9.75 9.75 10.0858 9.75 10.5C9.75 10.9142 10.0858 11.25 10.5 11.25H17C17.4142 11.25 17.75 10.9142 17.75 10.5C17.75 10.0858 17.4142 9.75 17 9.75H10.5ZM14.5 2C15.3284 2 16 2.67157 16 3.5V4.5C16 5.32843 15.3284 6 14.5 6H9.5C8.67157 6 8 5.32843 8 4.5V3.5C8 2.67157 8.67157 2 9.5 2H14.5Z" fill="#48465C"/>
</svg>
