<svg width="24" height="24" viewBox="0 0 24 24" fill="none" xmlns="http://www.w3.org/2000/svg">
<path d="M17.3037 17.3037C17.6942 16.9134 18.3273 16.9133 18.7178 17.3037C19.108 17.6942 19.108 18.3273 18.7178 18.7178C18.3273 19.1082 17.6942 19.1081 17.3037 18.7178C16.9132 18.3273 16.9132 17.6942 17.3037 17.3037ZM5.28223 17.3027C5.67261 16.9124 6.30574 16.9127 6.69629 17.3027C7.08681 17.6932 7.08681 18.3273 6.69629 18.7178C6.30575 19.1078 5.6726 19.1081 5.28223 18.7178C4.8917 18.3273 4.8917 17.6932 5.28223 17.3027ZM12 6.25C15.1756 6.25 17.75 8.82436 17.75 12C17.75 15.1756 15.1756 17.75 12 17.75C8.82436 17.75 6.25 15.1756 6.25 12C6.25 8.82436 8.82436 6.25 12 6.25ZM12.75 11C12.75 11.4142 12.4142 11.75 12 11.75C11.5858 11.75 11.25 11.4142 11.25 11V7.81641C9.26053 8.17067 7.75 9.90873 7.75 12C7.75 14.3472 9.65279 16.25 12 16.25C14.3472 16.25 16.25 14.3472 16.25 12C16.25 9.90873 14.7395 8.17067 12.75 7.81641V11ZM3.5 11C4.05228 11 4.5 11.4477 4.5 12C4.5 12.5523 4.05228 13 3.5 13C2.94772 13 2.5 12.5523 2.5 12C2.5 11.4477 2.94772 11 3.5 11ZM20.5 11C21.0523 11 21.5 11.4477 21.5 12C21.5 12.5523 21.0523 13 20.5 13C19.9477 13 19.5 12.5523 19.5 12C19.5 11.4477 19.9477 11 20.5 11ZM5.28223 5.28223C5.67261 4.8919 6.30574 4.89215 6.69629 5.28223C7.08681 5.67275 7.08681 6.30674 6.69629 6.69727C6.30574 7.08734 5.67261 7.08758 5.28223 6.69727C4.8917 6.30674 4.8917 5.67275 5.28223 5.28223ZM17.3037 5.28223C17.6942 4.89215 18.3274 4.89189 18.7178 5.28223C19.1083 5.67275 19.1083 6.30674 18.7178 6.69727C18.3274 7.0876 17.6942 7.08734 17.3037 6.69727C16.9132 6.30674 16.9132 5.67275 17.3037 5.28223ZM12 2.5C12.5523 2.5 13 2.94772 13 3.5C13 4.05228 12.5523 4.5 12 4.5C11.4477 4.5 11 4.05228 11 3.5C11 2.94772 11.4477 2.5 12 2.5Z" fill="#1C274C"/>
</svg>
