<svg width="24" height="24" viewBox="0 0 24 24" fill="none" xmlns="http://www.w3.org/2000/svg">
<path d="M5.31038 9.59302C5.48911 10.0305 5.77217 10.3848 6.02522 10.6536C6.46911 11.1251 7.11438 11.6368 7.80745 12.1858L8.28304 12.5627C8.39386 12.6506 8.47924 12.7175 8.55159 12.7766C8.58629 12.805 8.61433 12.829 8.63753 12.8489C8.64022 12.8754 8.64325 12.9071 8.64632 12.9446C8.6537 13.0349 8.66069 13.1402 8.66975 13.2786L8.70882 13.8733C8.75866 14.6362 8.8054 15.3598 8.91194 15.9524C5.85703 17.2403 3.27366 19.3967 2.33089 22.0002C1.27467 15.8059 2.87328 11.9215 5.31038 9.59302ZM13.3485 2.01099C14.075 1.90184 14.7002 2.64054 15.9491 4.11938L16.2713 4.5022C16.626 4.92212 16.8038 5.13217 17.0448 5.2522C17.2861 5.37218 17.5644 5.38863 18.1199 5.42114L18.6258 5.45142C20.5806 5.56583 21.5581 5.62289 21.8973 6.26196C22.2363 6.90102 21.7131 7.69894 20.6658 9.29419L20.3944 9.70728C20.0968 10.1604 19.9482 10.387 19.908 10.6458C19.8678 10.9046 19.9408 11.1664 20.0867 11.6897L20.2196 12.1663C20.733 14.0077 20.9893 14.9288 20.4725 15.4329C19.9556 15.9367 19.007 15.6902 17.1112 15.1975L16.6209 15.0696C16.0823 14.9296 15.8128 14.8598 15.5467 14.8997C15.2806 14.9396 15.048 15.0855 14.5828 15.3762L14.159 15.6409C12.5214 16.6646 11.7024 17.1764 11.0438 16.8489C10.6318 16.6438 10.453 16.1956 10.3465 15.4231C10.3414 15.3858 10.3368 15.3476 10.3319 15.3088L10.3338 15.3118C10.2787 14.8691 10.241 14.3272 10.1981 13.6721L10.1658 13.1799C10.1306 12.6402 10.1134 12.3701 9.98909 12.136C9.86486 11.902 9.64797 11.7303 9.21468 11.387L8.81917 11.0735C7.29391 9.86492 6.53169 9.26044 6.64143 8.55396C6.75133 7.84757 7.66047 7.50681 9.47932 6.82544L9.95003 6.64868C10.4668 6.45511 10.7256 6.35858 10.9149 6.17407C11.1041 5.98944 11.2029 5.73757 11.4002 5.23462L11.5799 4.77563C12.2744 3.00524 12.6224 2.12038 13.3485 2.01099Z" fill="#1C274C"/>
</svg>
