<svg width="24" height="24" viewBox="0 0 24 24" fill="none" xmlns="http://www.w3.org/2000/svg">
<path d="M18.5 14C20.4328 14 21.9997 15.4581 22 17.2568C22 19.0417 20.8825 21.1253 19.1396 21.8701C18.7336 22.0435 18.2664 22.0435 17.8604 21.8701C16.1175 21.1253 15 19.0417 15 17.2568C15.0003 15.4581 16.5672 14 18.5 14ZM16.1318 4.25C18.883 4.25 19.9295 7.84324 17.6084 9.32031L7.19727 15.9453C6.14222 16.6167 6.61761 18.25 7.86816 18.25H10.1895L9.96973 18.0303C9.67683 17.7374 9.67683 17.2626 9.96973 16.9697C10.2626 16.6769 10.7374 16.6768 11.0303 16.9697L12.5303 18.4697C12.8232 18.7626 12.8232 19.2374 12.5303 19.5303L11.0303 21.0303C10.7374 21.3232 10.2626 21.3231 9.96973 21.0303C9.67683 20.7374 9.67683 20.2626 9.96973 19.9697L10.1895 19.75H7.86816C5.11692 19.75 4.0705 16.1568 6.3916 14.6797L16.8027 8.05469C17.8577 7.38329 17.3823 5.75 16.1318 5.75H12C11.5858 5.75 11.25 5.41421 11.25 5C11.25 4.58579 11.5858 4.25 12 4.25H16.1318ZM18.5 16.5C17.9477 16.5 17.5 16.9477 17.5 17.5C17.5 18.0523 17.9477 18.5 18.5 18.5C19.0523 18.5 19.5 18.0523 19.5 17.5C19.5 16.9477 19.0523 16.5 18.5 16.5ZM5.5 2C7.43283 2 8.99972 3.45809 9 5.25684C9 7.04171 7.88254 9.12531 6.13965 9.87012C5.73361 10.0435 5.26639 10.0435 4.86035 9.87012C3.11746 9.12531 2 7.04171 2 5.25684C2.00028 3.45809 3.56717 2 5.5 2ZM5.5 4.5C4.94772 4.5 4.5 4.94772 4.5 5.5C4.5 6.05228 4.94772 6.5 5.5 6.5C6.05228 6.5 6.5 6.05228 6.5 5.5C6.5 4.94772 6.05228 4.5 5.5 4.5Z" fill="#1C274C"/>
</svg>
