<svg width="24" height="24" viewBox="0 0 24 24" fill="none" xmlns="http://www.w3.org/2000/svg">
<path d="M14.5 1.25C15.6611 1.25 16.6169 2.12961 16.7373 3.25879C17.5005 3.27433 18.1603 3.31351 18.7236 3.41699C19.4816 3.55621 20.1264 3.82184 20.6514 4.34668C21.2533 4.94859 21.5128 5.70635 21.6338 6.60645C21.7503 7.47341 21.75 8.57578 21.75 9.94336V16.0527C21.75 17.4201 21.7502 18.5227 21.6338 19.3896C21.5128 20.2897 21.2532 21.0475 20.6514 21.6494C20.0494 22.2513 19.2917 22.5108 18.3916 22.6318C17.5246 22.7484 16.4222 22.748 15.0547 22.748H8.94531C7.57781 22.748 6.47534 22.7484 5.6084 22.6318C4.70829 22.5108 3.95055 22.2513 3.34863 21.6494C2.74679 21.0475 2.48722 20.2897 2.36621 19.3896C2.2497 18.5228 2.24998 17.4201 2.25 16.0527V9.94336C2.24998 8.57578 2.24965 7.47341 2.36621 6.60645C2.48723 5.70635 2.74672 4.94859 3.34863 4.34668C3.87354 3.82182 4.51843 3.55621 5.27637 3.41699C5.83975 3.31351 6.4996 3.27433 7.2627 3.25879C7.38308 2.12961 8.33887 1.25 9.5 1.25H14.5ZM16.7354 4.75879C16.6069 5.87938 15.655 6.75 14.5 6.75H9.5C8.345 6.75 7.39315 5.87938 7.26465 4.75879C6.54662 4.77413 5.99282 4.81066 5.54688 4.89258C4.98044 4.99668 4.65255 5.1639 4.40918 5.40723C4.13242 5.68399 3.95217 6.07287 3.85352 6.80664C3.75199 7.56193 3.75 8.56288 3.75 9.99805V15.998C3.75 17.4334 3.75196 18.4351 3.85352 19.1904C3.95216 19.9239 4.13254 20.3121 4.40918 20.5889C4.68594 20.8656 5.07482 21.0469 5.80859 21.1455C6.56388 21.247 7.56492 21.248 9 21.248H15C16.4354 21.248 17.437 21.2471 18.1924 21.1455C18.9259 21.0469 19.3141 20.8655 19.5908 20.5889C19.8675 20.3121 20.0478 19.9239 20.1465 19.1904C20.248 18.4351 20.25 17.4334 20.25 15.998V9.99805C20.25 8.56288 20.248 7.56193 20.1465 6.80664C20.0478 6.07287 19.8676 5.68399 19.5908 5.40723C19.3474 5.1639 19.0196 4.99668 18.4531 4.89258C18.0072 4.81066 17.4534 4.77413 16.7354 4.75879ZM12 9.97656C12.9333 9.28197 13.994 9.0654 14.9336 9.41113C16.0693 9.82914 16.75 10.9668 16.75 12.376C16.7499 13.4042 16.1397 14.3496 15.5078 15.0742C14.8537 15.8242 14.0538 16.4755 13.4414 16.9268L13.3633 16.9844C12.9972 17.2564 12.582 17.5645 12 17.5645C11.418 17.5645 11.0029 17.2564 10.6367 16.9844L10.5586 16.9268C9.9461 16.4756 9.14627 15.8243 8.49219 15.0742C7.86033 14.3497 7.25013 13.4042 7.25 12.376C7.25 10.9668 7.93074 9.82915 9.06641 9.41113C10.006 9.06542 11.0667 9.28198 12 9.97656ZM14.416 10.8184C13.9898 10.6616 13.2863 10.7381 12.5312 11.4971C12.3906 11.6384 12.1995 11.7178 12 11.7178C11.8005 11.7178 11.6094 11.6384 11.4688 11.4971C10.7137 10.7381 10.0102 10.6616 9.58398 10.8184C9.16965 10.971 8.75 11.4427 8.75 12.376C8.75015 12.8391 9.04943 13.431 9.62305 14.0889C10.1744 14.721 10.8762 15.2972 11.4482 15.7188C11.6868 15.8945 11.8064 15.9802 11.9014 16.0312C11.9636 16.0647 11.9814 16.0645 11.998 16.0645H12.002C12.0185 16.0645 12.0365 16.0647 12.0986 16.0312C12.1937 15.9802 12.3132 15.8945 12.5518 15.7188C13.1238 15.2972 13.8256 14.721 14.377 14.0889C14.9506 13.431 15.2499 12.8391 15.25 12.376C15.25 11.4427 14.8304 10.971 14.416 10.8184ZM9.5 2.75C9.08579 2.75 8.75 3.08579 8.75 3.5V4.5C8.75 4.91421 9.08579 5.25 9.5 5.25H14.5C14.9142 5.25 15.25 4.91421 15.25 4.5V3.5C15.25 3.08579 14.9142 2.75 14.5 2.75H9.5Z" fill="#48465C"/>
</svg>
