<svg width="24" height="24" viewBox="0 0 24 24" fill="none" xmlns="http://www.w3.org/2000/svg">
<path d="M17.75 13C19.8211 13 21.5 14.6789 21.5 16.75C21.5 17.5143 21.2715 18.2256 20.8789 18.8184L21.7803 19.7197C22.0732 20.0126 22.0732 20.4874 21.7803 20.7803C21.4874 21.0732 21.0126 21.0732 20.7197 20.7803L19.8184 19.8789C19.2256 20.2715 18.5143 20.5 17.75 20.5C15.6789 20.5 14 18.8211 14 16.75C14 14.6789 15.6789 13 17.75 13ZM22 12C22 12.5997 21.9998 13.1521 21.9951 13.6611C21.0404 12.3515 19.4947 11.5 17.75 11.5C14.8505 11.5 12.5 13.8505 12.5 16.75C12.5 17.9772 12.9215 19.1061 13.627 20H10C6.22878 20 4.34346 19.9997 3.17188 18.8281C2.00031 17.6566 2 15.7712 2 12C2 11.5581 2.00006 11.142 2.00195 10.75H21.998C21.9999 11.142 22 11.5581 22 12ZM17.75 14.5C16.5074 14.5 15.5 15.5074 15.5 16.75C15.5 17.9926 16.5074 19 17.75 19C18.9926 19 20 17.9926 20 16.75C20 15.5074 18.9926 14.5 17.75 14.5ZM14 4C17.7712 4 19.6566 4.00031 20.8281 5.17188C21.6717 6.01541 21.9085 7.22882 21.9746 9.25H2.02539C2.09152 7.22883 2.32835 6.01541 3.17188 5.17188C4.34345 4.00031 6.22878 4 10 4H14Z" fill="#48465C"/>
</svg>
