<svg width="24" height="24" viewBox="0 0 24 24" fill="none" xmlns="http://www.w3.org/2000/svg">
<path d="M18.0032 1.50049C18.2794 1.19188 18.7542 1.16475 19.0628 1.44092C21.3248 3.46551 22.7502 6.41054 22.7503 9.68701C22.7503 15.4383 18.3613 20.1647 12.7503 20.6997V21.2505H14.0003C14.4144 21.2506 14.7503 21.5864 14.7503 22.0005C14.7501 22.4145 14.4143 22.7503 14.0003 22.7505H10.0003C9.58615 22.7505 9.25042 22.4146 9.25027 22.0005C9.25027 21.5863 9.58606 21.2505 10.0003 21.2505H11.2503V20.7417C8.1495 20.6212 5.37491 19.2241 3.4407 17.063C3.16454 16.7544 3.19166 16.2796 3.50027 16.0034C3.80886 15.7276 4.28271 15.7537 4.55887 16.062C6.31094 18.0196 8.85471 19.2504 11.6868 19.2505C16.9683 19.2505 21.2503 14.9685 21.2503 9.68701C21.2502 6.85493 20.0193 4.31116 18.0618 2.55908C17.7534 2.28292 17.7274 1.80907 18.0032 1.50049ZM17.0413 5.14404C18.2541 6.40274 19.0003 8.11453 19.0003 10.0005C19.0003 10.5327 18.941 11.0511 18.8284 11.5493C18.761 11.7489 18.677 11.936 18.5257 12.1323C18.2884 12.4401 17.8128 12.8173 16.6341 12.8296H16.5999C16.5762 12.83 16.5427 12.8309 16.5022 12.8325C16.4214 12.8357 16.3084 12.8417 16.1721 12.854C15.9008 12.8783 15.5262 12.9281 15.1204 13.0278C14.3623 13.2142 13.2503 13.6373 12.7044 14.6655C12.2737 15.4771 12.2246 16.3106 12.3216 16.9927C12.2151 16.9976 12.108 17.0005 12.0003 17.0005C8.13432 17.0005 5.00034 13.8664 5.00027 10.0005C5.00027 8.28112 5.62023 6.7063 6.64871 5.48779C6.74987 5.6313 6.85135 5.78522 6.94949 5.94775C7.35091 6.61259 7.66227 7.36411 7.72586 8.09814C7.89665 10.0692 9.20792 11.9352 11.4309 11.9604C12.3927 11.9711 13.5571 11.248 13.554 9.99268C13.5533 9.70522 13.5082 9.42501 13.4427 9.17725C13.4111 9.05797 13.4155 8.9605 13.4612 8.86279C13.6317 8.49827 13.8834 8.25532 14.2268 8.02002C14.3868 7.91045 14.5531 7.81146 14.7454 7.69678L14.8225 7.65088C15.0378 7.52223 15.2827 7.37248 15.5198 7.1958C15.8646 6.93887 16.311 6.57825 16.5471 6.20654C16.7341 5.91239 16.9071 5.53517 17.0413 5.14404ZM17.3968 14.4585C16.5192 15.5197 15.3342 16.3175 13.9788 16.7163C13.9323 16.335 13.9632 15.877 14.1878 15.4536C14.3797 15.0919 14.8659 14.8199 15.5218 14.6587C15.823 14.5846 16.1098 14.546 16.3225 14.5269C16.4276 14.5175 16.5122 14.5135 16.5686 14.5112C16.5968 14.5101 16.6184 14.5095 16.6311 14.5093H16.6516C16.9161 14.5066 17.1642 14.4891 17.3968 14.4585ZM12.0003 3.00049C13.3202 3.00054 14.555 3.36542 15.6087 4.00049C15.5935 4.0896 15.5721 4.19085 15.5423 4.30322C15.4367 4.70208 15.2704 5.08277 15.1292 5.30518C15.0805 5.38184 14.8802 5.57843 14.5169 5.84912C14.3549 5.96982 14.1744 6.08047 13.9602 6.2085L13.886 6.25244C13.6985 6.36417 13.4834 6.49254 13.2766 6.63428C12.7888 6.96859 12.2804 7.42034 11.9388 8.15088C11.6916 8.67937 11.7093 9.19411 11.8186 9.60693C11.8543 9.74164 11.873 9.87741 11.8733 9.99658C11.8734 10.0337 11.8594 10.0935 11.7766 10.1626C11.6877 10.2369 11.5621 10.281 11.4495 10.2798C10.3725 10.2676 9.52298 9.37567 9.39969 7.95264C9.30593 6.87125 8.86376 5.86917 8.38699 5.07959C8.2255 4.81213 8.05643 4.56185 7.88797 4.33447C9.04244 3.49515 10.4637 3.00049 12.0003 3.00049Z" fill="#1C274C"/>
</svg>
