<svg width="24" height="24" viewBox="0 0 24 24" fill="none" xmlns="http://www.w3.org/2000/svg">
<path d="M12 1.25C12.7166 1.25 13.0753 1.82136 13.1367 2.27637C13.1959 2.71395 13.0341 3.27017 12.5312 3.57422C10.863 4.58235 9.75 6.41182 9.75 8.5C9.75 11.6756 12.3244 14.25 15.5 14.25C17.5882 14.25 19.4177 13.137 20.4258 11.4688C20.7298 10.9659 21.2861 10.8041 21.7236 10.8633C22.1786 10.9247 22.75 11.2834 22.75 12C22.75 17.9371 17.9371 22.75 12 22.75C6.06294 22.75 1.25 17.9371 1.25 12C1.25 6.06294 6.06294 1.25 12 1.25ZM11.0176 2.80176C6.3709 3.2924 2.75 7.22328 2.75 12C2.75 17.1086 6.89137 21.25 12 21.25C16.7767 21.25 20.7076 17.6291 21.1982 12.9824C19.8715 14.6667 17.8126 15.75 15.5 15.75C11.4959 15.75 8.25 12.5041 8.25 8.5C8.25 6.18738 9.33333 4.12849 11.0176 2.80176Z" fill="#1C274C"/>
</svg>
