<svg width="24" height="24" viewBox="0 0 24 24" fill="none" xmlns="http://www.w3.org/2000/svg">
<path d="M9.5 1.25C9.91421 1.25 10.25 1.58579 10.25 2C10.25 2.41422 9.91421 2.75 9.5 2.75C7.83789 2.75 6.65689 2.75132 5.75098 2.8584C4.8621 2.96351 4.33579 3.16138 3.93848 3.4873C3.77392 3.62235 3.62235 3.77391 3.4873 3.93848C3.16138 4.33578 2.96351 4.8621 2.8584 5.75098C2.75132 6.6569 2.75 7.83789 2.75 9.5V11C2.75 11.459 2.75036 11.8736 2.75391 12.25H21.2461C21.2496 11.8736 21.25 11.459 21.25 11V10C21.25 9.58579 21.5858 9.25 22 9.25C22.4142 9.25 22.75 9.58579 22.75 10V11.0547C22.75 11.7172 22.7495 12.3179 22.7363 12.8594C22.745 12.9049 22.75 12.9519 22.75 13C22.75 13.064 22.7416 13.1262 22.7266 13.1855C22.7101 13.6295 22.6823 14.0311 22.6338 14.3916C22.5128 15.2917 22.2533 16.0494 21.6514 16.6514C21.0494 17.2533 20.2917 17.5128 19.3916 17.6338C18.5246 17.7503 17.4222 17.75 16.0547 17.75H12.75V21.25H16C16.4142 21.25 16.75 21.5858 16.75 22C16.75 22.4142 16.4142 22.75 16 22.75H8C7.58579 22.75 7.25 22.4142 7.25 22C7.25 21.5858 7.58579 21.25 8 21.25H11.25V17.75H7.94531C6.57782 17.75 5.47534 17.7503 4.6084 17.6338C3.70829 17.5128 2.95055 17.2533 2.34863 16.6514C1.74673 16.0494 1.48723 15.2917 1.36621 14.3916C1.31776 14.0311 1.28997 13.6295 1.27344 13.1855C1.25832 13.1262 1.25 13.064 1.25 13C1.25 12.9519 1.25502 12.905 1.26367 12.8594C1.25042 12.318 1.24999 11.7172 1.25 11.0547V9.45117C1.24999 7.84891 1.25044 6.57942 1.36914 5.5752C1.49102 4.54428 1.74633 3.69524 2.32812 2.98633C2.52543 2.74591 2.74592 2.52544 2.98633 2.32812C3.69525 1.74634 4.54427 1.49102 5.5752 1.36914C6.57942 1.25044 7.84891 1.24999 9.45117 1.25H9.5ZM2.85352 14.1924C2.95218 14.9258 3.13249 15.3141 3.40918 15.5908C3.68594 15.8676 4.07482 16.0478 4.80859 16.1465C5.5639 16.2479 6.56485 16.25 8 16.25H16C17.4354 16.25 18.437 16.248 19.1924 16.1465C19.9258 16.0478 20.3141 15.8676 20.5908 15.5908C20.8676 15.3141 21.0478 14.9258 21.1465 14.1924C21.1651 14.0538 21.1809 13.9064 21.1934 13.75H2.80664C2.81915 13.9064 2.83488 14.0538 2.85352 14.1924ZM16.0498 1.25C16.7144 1.24996 17.2875 1.24986 17.7461 1.31152C18.2377 1.37764 18.7086 1.52702 19.0908 1.90918C19.3264 2.14478 19.4738 2.41402 19.5674 2.70117L20.3271 2.38477C20.3408 2.37909 20.3545 2.37288 20.3682 2.36719C20.645 2.25172 20.925 2.13571 21.1641 2.0752C21.4293 2.00808 21.8213 1.96197 22.1934 2.20996C22.5654 2.45801 22.6738 2.83774 22.7139 3.1084C22.7499 3.35226 22.7501 3.65514 22.75 3.95508V6.04492C22.7501 6.34487 22.7499 6.64773 22.7139 6.8916C22.6739 7.16226 22.5654 7.54199 22.1934 7.79004C21.8213 8.03803 21.4293 7.99191 21.1641 7.9248C20.9249 7.86429 20.645 7.74829 20.3682 7.63281C20.3545 7.62713 20.3408 7.6209 20.3271 7.61523L19.5674 7.29883C19.4738 7.58598 19.3264 7.85523 19.0908 8.09082C18.7086 8.473 18.2377 8.62236 17.7461 8.68848C17.2875 8.75013 16.7144 8.75003 16.0498 8.75H14.9502C14.2856 8.75003 13.7125 8.75013 13.2539 8.68848C12.7623 8.62236 12.2914 8.473 11.9092 8.09082C11.527 7.70864 11.3776 7.23764 11.3115 6.74609C11.2498 6.28744 11.25 5.71449 11.25 5.0498V4.9502C11.25 4.28552 11.2498 3.71255 11.3115 3.25391C11.3776 2.76235 11.527 2.29137 11.9092 1.90918C12.2914 1.52702 12.7623 1.37764 13.2539 1.31152C13.7125 1.24986 14.2856 1.24996 14.9502 1.25H16.0498ZM15 2.75C14.2718 2.75 13.801 2.75124 13.4541 2.79785C13.1288 2.84159 13.0268 2.91264 12.9697 2.96973C12.9126 3.02683 12.8416 3.12883 12.7979 3.4541C12.7513 3.80097 12.75 4.27177 12.75 5C12.75 5.72822 12.7513 6.19903 12.7979 6.5459C12.8416 6.87117 12.9126 6.97318 12.9697 7.03027C13.0268 7.08737 13.1288 7.15842 13.4541 7.20215C13.801 7.24877 14.2718 7.25 15 7.25H16C16.7282 7.25 17.199 7.24877 17.5459 7.20215C17.8712 7.15842 17.9732 7.08737 18.0303 7.03027C18.0874 6.97318 18.1584 6.87117 18.2021 6.5459C18.2487 6.19903 18.25 5.72822 18.25 5C18.25 4.27177 18.2487 3.80097 18.2021 3.4541C18.1584 3.12883 18.0874 3.02683 18.0303 2.96973C17.9732 2.91264 17.8712 2.84159 17.5459 2.79785C17.199 2.75124 16.7282 2.75 16 2.75H15ZM20.9033 3.76953L19.75 4.25V5.75L20.9033 6.23047C21.0383 6.28671 21.1505 6.3335 21.248 6.37207C21.25 6.26717 21.25 6.14621 21.25 6V4C21.25 3.85379 21.25 3.73283 21.248 3.62793C21.1505 3.66649 21.0383 3.7133 20.9033 3.76953Z" fill="#48465C"/>
</svg>
