<svg width="24" height="24" viewBox="0 0 24 24" fill="none" xmlns="http://www.w3.org/2000/svg">
<path d="M19.9941 13.75C19.9665 16.3858 19.8025 17.8538 18.8281 18.8281C18.4941 19.1622 18.1023 19.4016 17.625 19.5723L18.6709 21.665C18.856 22.0353 18.7062 22.4855 18.3359 22.6709C17.9655 22.8561 17.5144 22.7064 17.3291 22.3359L16.1055 19.8877C15.0571 20 13.726 20 12 20C10.2742 20 8.94285 20 7.89453 19.8877L6.6709 22.3359C6.48563 22.7063 6.03544 22.856 5.66504 22.6709C5.29461 22.4856 5.14399 22.0354 5.3291 21.665L6.37598 19.5723C5.89841 19.4016 5.50607 19.1623 5.17188 18.8281C4.1976 17.8538 4.03348 16.3858 4.00586 13.75H19.9941ZM7 15.25C6.58584 15.25 6.25008 15.5859 6.25 16C6.25 16.4142 6.58579 16.75 7 16.75H8.5C8.91421 16.75 9.25 16.4142 9.25 16C9.24992 15.5859 8.91416 15.25 8.5 15.25H7ZM15.5 15.25C15.0859 15.25 14.7501 15.5859 14.75 16C14.75 16.4142 15.0858 16.75 15.5 16.75H17C17.4142 16.75 17.75 16.4142 17.75 16C17.7499 15.5859 17.4141 15.25 17 15.25H15.5ZM14.4922 2.01855C16.6688 2.07342 17.9493 2.29329 18.8281 3.17188C19.9997 4.34344 20 6.22974 20 10.001V12.251H4V10.001C4 6.22974 4.00031 4.34344 5.17188 3.17188C6.05076 2.29324 7.33186 2.0734 9.50879 2.01855C9.77869 2.012 10 2.23094 10 2.50098C10.0002 3.60537 10.8955 4.50098 12 4.50098C13.1045 4.50098 13.9998 3.60537 14 2.50098C14 2.23079 14.2221 2.01174 14.4922 2.01855Z" fill="#1C274C"/>
</svg>
