<svg width="24" height="24" viewBox="0 0 24 24" fill="none" xmlns="http://www.w3.org/2000/svg">
<path d="M15.0547 1.25C16.4221 1.24998 17.5247 1.24971 18.3916 1.36621C19.2917 1.48723 20.0503 1.74671 20.6523 2.34863C21.254 2.95049 21.5128 3.70847 21.6338 4.6084C21.7504 5.47534 21.75 6.5778 21.75 7.94531V16.0547C21.75 17.4222 21.7504 18.5246 21.6338 19.3916C21.5128 20.2915 21.254 21.0494 20.6523 21.6514C20.0503 22.2533 19.2917 22.5128 18.3916 22.6338C17.5247 22.7502 16.4221 22.75 15.0547 22.75H13.9453C12.5778 22.75 11.4753 22.7503 10.6084 22.6338C9.70829 22.5128 8.95054 22.2533 8.34863 21.6514C7.82379 21.1264 7.55816 20.4816 7.41895 19.7236C7.28366 18.9871 7.25798 18.0854 7.25195 17.0039C7.24981 16.5898 7.58394 16.2523 7.99805 16.25C8.41214 16.2478 8.74965 16.582 8.75195 16.9961C8.75805 18.0894 8.78649 18.8649 8.89453 19.4531C8.99863 20.0196 9.16585 20.3474 9.40918 20.5908C9.68595 20.8676 10.0749 21.0478 10.8086 21.1465C11.5639 21.2479 12.5649 21.25 14 21.25H15C16.4354 21.25 17.437 21.248 18.1924 21.1465C18.9259 21.0478 19.3141 20.8675 19.5908 20.5908C19.8676 20.3141 20.0487 19.9259 20.1475 19.1924C20.249 18.437 20.25 17.4354 20.25 16V8C20.25 6.56491 20.2489 5.56388 20.1475 4.80859C20.0488 4.07482 19.8676 3.68594 19.5908 3.40918C19.3141 3.13252 18.9259 2.95216 18.1924 2.85352C17.437 2.75196 16.4354 2.75 15 2.75H14C12.5649 2.75 11.5639 2.75199 10.8086 2.85352C10.0749 2.95217 9.68595 3.13242 9.40918 3.40918C9.16585 3.65256 8.99863 3.98044 8.89453 4.54688C8.78649 5.13508 8.75805 5.91055 8.75195 7.00391C8.74965 7.41802 8.41214 7.75217 7.99805 7.75C7.58392 7.74769 7.2498 7.41017 7.25195 6.99609C7.25798 5.91459 7.28366 5.01292 7.41895 4.27637C7.55817 3.51843 7.82377 2.87354 8.34863 2.34863C8.95054 1.74673 9.70829 1.48723 10.6084 1.36621C11.4753 1.24965 12.5778 1.24998 13.9453 1.25H15.0547ZM12.4697 7.46973C12.7626 7.17684 13.2374 7.17684 13.5303 7.46973L17.5303 11.4697C17.671 11.6103 17.75 11.8011 17.75 12C17.75 12.1989 17.671 12.3897 17.5303 12.5303L13.5303 16.5303C13.2374 16.8232 12.7626 16.8232 12.4697 16.5303C12.1768 16.2374 12.1768 15.7626 12.4697 15.4697L15.1895 12.75H3C2.58579 12.75 2.25 12.4142 2.25 12C2.25 11.5858 2.58579 11.25 3 11.25H15.1895L12.4697 8.53027C12.1768 8.23739 12.1768 7.76261 12.4697 7.46973Z" fill="#1C274C"/>
</svg>
