<svg width="24" height="24" viewBox="0 0 24 24" fill="none" xmlns="http://www.w3.org/2000/svg">
<path d="M14.0505 15.4004C14.3818 15.1519 14.8517 15.2184 15.1003 15.5498L15.8268 16.5186C16.1953 17.01 16.2986 17.1364 16.4186 17.2275C16.4604 17.2592 16.504 17.2882 16.5495 17.3145C16.68 17.3898 16.8365 17.436 17.4323 17.585L18.9059 17.9531C19.9897 18.2241 20.7497 19.1984 20.7497 20.3154C20.7496 21.66 19.6596 22.75 18.3151 22.75H17.3522C16.8139 22.75 16.5133 22.7501 16.2136 22.7334C15.3283 22.6839 14.4524 22.5252 13.6061 22.2607C13.3195 22.1711 13.0381 22.0651 12.5339 21.876L11.1012 21.3389C9.69782 22.2571 8.0539 22.7499 6.36883 22.75H5.68426C4.33987 22.7498 3.24981 21.6599 3.24969 20.3154C3.24969 19.1983 4.01058 18.224 5.09441 17.9531L6.88738 17.5049C7.14307 17.441 7.2119 17.4224 7.27215 17.3994C7.44515 17.3334 7.60116 17.2295 7.72918 17.0957C7.77375 17.049 7.81717 16.993 7.97527 16.7822L8.90008 15.5498C9.14863 15.2185 9.61855 15.1519 9.94988 15.4004C10.2811 15.6489 10.3487 16.1189 10.1003 16.4502L9.17547 17.6826C9.16813 17.6924 9.16115 17.7023 9.15398 17.7119C9.02758 17.8806 8.92771 18.013 8.81316 18.1328C8.53135 18.4274 8.18721 18.6554 7.80633 18.8008C7.65165 18.8598 7.49106 18.9002 7.2868 18.9512C7.27531 18.954 7.26341 18.9571 7.25164 18.96L5.4577 19.4082C5.0417 19.5123 4.74969 19.8867 4.74969 20.3154C4.74981 20.8314 5.1683 21.2498 5.68426 21.25H6.36883C7.91446 21.2499 9.41843 20.7486 10.655 19.8213L12.5505 18.4004C12.8818 18.1519 13.3517 18.2184 13.6003 18.5498C13.8487 18.8812 13.7811 19.3511 13.4499 19.5996L12.5456 20.2783L13.0368 20.4629C13.5706 20.663 13.8116 20.7534 14.0534 20.8291C14.7816 21.0567 15.5358 21.1928 16.2975 21.2354C16.5505 21.2494 16.8077 21.25 17.3776 21.25H18.3151C18.8312 21.25 19.2496 20.8315 19.2497 20.3154C19.2497 19.8866 18.9578 19.5122 18.5417 19.4082L17.068 19.04C17.0407 19.0332 17.0137 19.0262 16.987 19.0195C16.5114 18.9009 16.1357 18.8076 15.8005 18.6143C15.7002 18.5565 15.6036 18.4919 15.5114 18.4219C15.2032 18.1879 14.9712 17.8786 14.6774 17.4863C14.6608 17.4641 14.6436 17.4417 14.6266 17.4189L13.9001 16.4502C13.6515 16.1188 13.7191 15.6489 14.0505 15.4004ZM11.9997 8.27051C12.3863 8.27049 12.8064 8.29116 13.111 8.34277L14.0016 8.49316C16.7473 8.95556 18.7497 11.3528 18.7497 14.1504C18.7498 14.7365 19.0397 15.2809 19.5173 15.6025L19.6188 15.6699C19.7625 15.7667 19.9182 15.8443 20.0817 15.8994L21.2389 16.2891C21.6314 16.4214 21.8428 16.8468 21.7106 17.2393C21.5784 17.6318 21.1529 17.8431 20.7604 17.7109L19.6032 17.3203C19.3123 17.2224 19.0357 17.0857 18.7809 16.9141L18.6794 16.8467C17.7845 16.2438 17.2498 15.2311 17.2497 14.1504C17.2497 12.0738 15.7651 10.3106 13.7526 9.97168L12.861 9.82227C12.6792 9.7914 12.3559 9.7705 11.9997 9.77051C11.6438 9.77054 11.3213 9.79147 11.1393 9.82227L10.2477 9.97168C8.23525 10.3106 6.74969 12.0738 6.74969 14.1504C6.74959 15.2311 6.21494 16.2438 5.32 16.8467L5.21941 16.9141C4.9647 17.0856 4.68798 17.2224 4.39715 17.3203L3.23895 17.7109C2.84652 17.8428 2.42092 17.6316 2.28875 17.2393C2.15668 16.8468 2.36802 16.4214 2.76043 16.2891L3.91863 15.8994C4.082 15.8443 4.23785 15.7667 4.38152 15.6699L4.48211 15.6025C4.95963 15.2809 5.24959 14.7365 5.24969 14.1504C5.24969 11.3528 7.25303 8.95556 9.99871 8.49316L10.8884 8.34277C11.1927 8.29125 11.613 8.27054 11.9997 8.27051ZM11.9997 2C13.3804 2 14.4997 3.11929 14.4997 4.5C14.4997 5.88071 13.3804 7 11.9997 7C10.619 6.99983 9.49969 5.8806 9.49969 4.5C9.49969 3.1194 10.619 2.00017 11.9997 2Z" fill="#1C274C"/>
</svg>
