<svg width="24" height="24" viewBox="0 0 24 24" fill="none" xmlns="http://www.w3.org/2000/svg">
<path d="M13.6072 2.20801C14.8838 0.931393 16.9535 0.931393 18.2302 2.20801C18.9467 2.92469 19.2616 3.89125 19.1736 4.82715C20.1095 4.73927 21.0761 5.05392 21.7927 5.77051C23.0691 7.04716 23.0693 9.11705 21.7927 10.3936C20.8741 11.3121 19.3044 11.7916 18.0105 11.4336C17.7997 11.3752 17.5966 11.3509 17.4333 11.3652C17.2738 11.3792 17.1981 11.4247 17.1609 11.4619L11.4617 17.1611C11.4245 17.1983 11.379 17.274 11.365 17.4336C11.3507 17.5968 11.375 17.7999 11.4333 18.0107C11.7913 19.3047 11.3119 20.8743 10.3933 21.793C9.11681 23.0695 7.04691 23.0693 5.77026 21.793C5.05368 21.0764 4.73902 20.1097 4.8269 19.1738C3.891 19.2618 2.92444 18.9469 2.20776 18.2305C0.931149 16.9538 0.93115 14.884 2.20776 13.6074C3.12653 12.6888 4.696 12.2093 5.98999 12.5674C6.2008 12.6257 6.404 12.6501 6.56714 12.6357C6.72641 12.6217 6.80136 12.5762 6.83862 12.5391L12.5388 6.83887C12.576 6.8016 12.6215 6.72665 12.6355 6.56738C12.6499 6.40424 12.6255 6.20105 12.5671 5.99023C12.2091 4.69625 12.6886 3.12677 13.6072 2.20801ZM17.1697 3.26855C16.4789 2.57772 15.3585 2.57772 14.6677 3.26855C14.1001 3.83628 13.8098 4.85746 14.0125 5.58984C14.1025 5.91521 14.1644 6.30533 14.1296 6.69922C14.0946 7.09657 13.9554 7.54324 13.5994 7.89941L7.89917 13.5996C7.54299 13.9557 7.09633 14.0949 6.69897 14.1299C6.30508 14.1647 5.91497 14.1027 5.5896 14.0127C4.85722 13.81 3.83603 14.1004 3.26831 14.668C2.57748 15.3588 2.57748 16.4791 3.26831 17.1699C3.95917 17.8605 5.07951 17.8606 5.77026 17.1699C6.06316 16.8771 6.53796 16.8771 6.83081 17.1699C7.12337 17.4628 7.12347 17.9377 6.83081 18.2305C6.13998 18.9213 6.13998 20.0415 6.83081 20.7324C7.52155 21.4228 8.64104 21.4227 9.33179 20.7324C9.89948 20.1647 10.1907 19.1427 9.98804 18.4102C9.89805 18.085 9.83617 17.6955 9.87085 17.3018C9.90591 16.9044 10.0448 16.4568 10.4011 16.1006L16.1003 10.4014C16.4565 10.0451 16.904 9.90615 17.3015 9.87109C17.6952 9.83641 18.0846 9.8983 18.4099 9.98828C19.1424 10.191 20.1645 9.89973 20.7322 9.33203C21.4225 8.64128 21.4225 7.52179 20.7322 6.83105C20.0413 6.14022 18.921 6.14022 18.2302 6.83105C17.9374 7.12371 17.4626 7.12362 17.1697 6.83105C16.8768 6.5382 16.8769 6.06341 17.1697 5.77051C17.8604 5.07975 17.8603 3.95941 17.1697 3.26855Z" fill="#1C274C"/>
</svg>
