<svg width="24" height="24" viewBox="0 0 24 24" fill="none" xmlns="http://www.w3.org/2000/svg">
<path d="M10.0303 2C10.6361 2 11.1218 1.99995 11.5303 2.0166C11.5169 2.09653 11.5091 2.1783 11.5088 2.26074L11.5 5.09473C11.4999 6.19183 11.4994 7.16184 11.6045 7.94336C11.7184 8.79041 11.9807 9.63693 12.6719 10.3281C13.363 11.0194 14.2096 11.2816 15.0566 11.3955C15.8382 11.5006 16.8082 11.5001 17.9053 11.5H21.957C21.9996 12.0342 22 12.6899 22 13.5625V14C22 17.7712 21.9997 19.6566 20.8281 20.8281C19.6566 21.9997 17.7712 22 14 22H10C6.22878 22 4.34346 21.9997 3.17188 20.8281C2.00031 19.6566 2 17.7712 2 14V10C2 6.22876 2.00031 4.34346 3.17188 3.17188C4.34346 2.00031 6.23916 2 10.0303 2ZM9 12C8.71594 12 8.5255 12.3408 8.14551 13.0225L8.04785 13.1992C7.93993 13.3928 7.88593 13.4898 7.80176 13.5537C7.71758 13.6176 7.61202 13.6411 7.40234 13.6885L7.21191 13.7314C6.47401 13.8984 6.10536 13.9823 6.01758 14.2646C5.93002 14.5468 6.18088 14.8408 6.68359 15.4287L6.81445 15.5811C6.95737 15.7481 7.02839 15.8322 7.06055 15.9355C7.09262 16.0389 7.08213 16.1502 7.06055 16.373L7.04102 16.5762C6.965 17.3607 6.92685 17.7531 7.15625 17.9277C7.38606 18.1021 7.73195 17.9432 8.42285 17.625L8.60156 17.543C8.7978 17.4526 8.89597 17.4072 9 17.4072C9.10403 17.4072 9.2022 17.4526 9.39844 17.543L9.57715 17.625C10.268 17.9431 10.6138 18.1021 10.8438 17.9277C11.0732 17.7531 11.0349 17.3607 10.959 16.5762L10.9395 16.373C10.9179 16.1502 10.9074 16.0389 10.9395 15.9355C10.9717 15.8322 11.0427 15.7481 11.1855 15.5811L11.3164 15.4287C11.8191 14.8408 12.07 14.5468 11.9824 14.2646C11.8946 13.9823 11.526 13.8984 10.7881 13.7314L10.5977 13.6885C10.388 13.6411 10.2824 13.6176 10.1982 13.5537C10.1141 13.4898 10.06 13.3928 9.95215 13.1992L9.85449 13.0225C9.4745 12.3408 9.28406 12 9 12ZM13.0088 2.26562C13.7007 2.53113 14.2649 3.03876 15.3926 4.05371L19.3516 7.61621C20.5682 8.71115 21.2175 9.29582 21.5801 10H18C15.643 10 14.4647 9.99981 13.7324 9.26758C13.0003 8.53535 13 7.35698 13 5L13.0088 2.26562Z" fill="#48465C"/>
</svg>
