<svg width="24" height="24" viewBox="0 0 24 24" fill="none" xmlns="http://www.w3.org/2000/svg">
<path d="M8.73175 5.77148C10.7111 3.09342 11.7009 1.75415 12.6243 2.03711C13.5475 2.32021 13.5472 3.9627 13.5472 7.24707V7.55664C13.5472 8.74116 13.5476 9.33352 13.9261 9.70508L13.9456 9.72461C14.3323 10.0883 14.9491 10.0889 16.1819 10.0889C18.4008 10.0889 19.5102 10.0888 19.8851 10.7617C19.8912 10.7728 19.8978 10.7837 19.9036 10.7949C20.2576 11.4783 19.6152 12.3477 18.3304 14.0859L15.2679 18.2285C13.2888 20.9061 12.2996 22.2453 11.3763 21.9629C10.453 21.6799 10.4525 20.0376 10.4525 16.7529V16.4434C10.4525 15.2586 10.4521 14.6665 10.0735 14.2949L10.054 14.2754C9.66731 13.9117 9.05069 13.9121 7.81769 13.9121C5.5993 13.9121 4.48972 13.9119 4.11456 13.2393C4.10835 13.2282 4.10187 13.2165 4.09601 13.2051C3.74223 12.5218 4.38462 11.6522 5.66925 9.91406L8.73175 5.77148Z" fill="#1C274C"/>
</svg>
