<svg width="24" height="24" viewBox="0 0 24 24" fill="none" xmlns="http://www.w3.org/2000/svg">
<path d="M8.73169 5.77148C10.711 3.09342 11.7009 1.75415 12.6243 2.03711C13.5474 2.32021 13.5471 3.9627 13.5471 7.24707V7.55664C13.5471 8.74116 13.5476 9.33352 13.926 9.70508L13.9456 9.72461C14.3322 10.0883 14.9491 10.0889 16.1819 10.0889C18.4008 10.0889 19.5101 10.0888 19.885 10.7617C19.8912 10.7728 19.8977 10.7837 19.9036 10.7949C20.2576 11.4783 19.6151 12.3477 18.3303 14.0859L15.2678 18.2285C13.2888 20.9061 12.2995 22.2453 11.3762 21.9629C10.4529 21.6799 10.4524 20.0376 10.4524 16.7529V16.4434C10.4524 15.2586 10.4521 14.6665 10.0735 14.2949L10.054 14.2754C9.66725 13.9117 9.05063 13.9121 7.81763 13.9121C5.59924 13.9121 4.48966 13.9119 4.1145 13.2393C4.10829 13.2282 4.10181 13.2165 4.09595 13.2051C3.74217 12.5218 4.38456 11.6522 5.66919 9.91406L8.73169 5.77148Z" fill="#48465C"/>
</svg>
