<svg width="24" height="24" viewBox="0 0 24 24" fill="none" xmlns="http://www.w3.org/2000/svg">
<path d="M10.7317 1.92773C12.4898 1.02409 14.5713 1.02393 16.3293 1.92773C17.1998 2.37531 17.9891 3.17293 19.301 4.49707C19.3395 4.53583 19.3789 4.57459 19.4182 4.61426C19.4572 4.65353 19.4954 4.69307 19.5334 4.73145C20.847 6.05657 21.6373 6.85325 22.0803 7.73047C22.9736 9.49973 22.9737 11.5931 22.0803 13.3623C21.6373 14.2395 20.847 15.0361 19.5334 16.3613C19.4955 16.3996 19.4571 16.4384 19.4182 16.4775L15.7043 20.2256C15.3896 20.5433 15.1792 20.7547 14.9709 20.916C13.5351 22.0276 11.5366 22.0276 10.1008 20.916C9.89248 20.7547 9.68216 20.5433 9.36743 20.2256L9.28345 20.1406C8.96855 19.823 8.75858 19.6112 8.59888 19.4014C7.50054 17.9571 7.50055 15.9501 8.59888 14.5059C8.75862 14.2958 8.96831 14.0835 9.28345 13.7656C9.29717 13.7518 9.31131 13.7378 9.32544 13.7236L12.1555 10.8672C12.4471 10.573 12.9228 10.5707 13.217 10.8623C13.5111 11.1539 13.5125 11.6287 13.2209 11.9229L10.3909 14.7793C10.0189 15.1544 9.88453 15.2917 9.79224 15.4131C9.10195 16.3208 9.10195 17.5855 9.79224 18.4932C9.88453 18.6144 10.0188 18.7516 10.3909 19.127C10.7629 19.5023 10.8988 19.6375 11.0188 19.7305C11.9139 20.4234 13.1569 20.4233 14.052 19.7305C14.1721 19.6375 14.3088 19.5024 14.6809 19.127L18.3528 15.4219C19.8172 13.9443 20.4182 13.3243 20.7405 12.6865C21.4193 11.3423 21.4193 9.75046 20.7405 8.40625C20.4183 7.76839 19.8174 7.14864 18.3528 5.6709C16.8875 4.1924 16.2736 3.58599 15.6428 3.26172C14.3153 2.57937 12.7448 2.5793 11.4172 3.26172C10.7864 3.58599 10.1726 4.1924 8.70728 5.6709L4.97778 9.43359C4.15542 10.2633 3.81593 10.6111 3.58911 10.9395C2.47095 12.5583 2.471 14.7094 3.58911 16.3281C3.81592 16.6565 4.15548 17.0042 4.97778 17.834C5.26936 18.1282 5.2671 18.6029 4.9729 18.8945C4.67869 19.186 4.2039 19.1838 3.91235 18.8896L3.8479 18.8242C3.11006 18.0799 2.66689 17.6326 2.35474 17.1807C0.882267 15.0488 0.882224 12.2187 2.35474 10.0869C2.66689 9.63501 3.11006 9.18772 3.8479 8.44336C3.86921 8.42186 3.89055 8.39993 3.91235 8.37793L7.64185 4.61426C7.68118 4.57456 7.7206 4.53586 7.75903 4.49707C9.07111 3.17282 9.86114 2.3753 10.7317 1.92773Z" fill="#1C274C"/>
</svg>
