<svg width="24" height="24" viewBox="0 0 24 24" fill="none" xmlns="http://www.w3.org/2000/svg">
<path d="M12.4766 6C15.416 6.00018 17.8371 8.19363 18.1553 11.0146C20.393 11.7798 21.9998 13.8809 22 16.3525C22 19.4712 19.4418 21.9998 16.2861 22H6.28613C3.9192 22 2 20.1037 2 17.7646C2.00003 15.4256 3.91922 13.5293 6.28613 13.5293C6.57011 13.5293 6.84768 13.5572 7.11621 13.6094C6.88715 12.9984 6.76176 12.3371 6.76172 11.6475C6.76172 8.52863 9.32064 6 12.4766 6ZM3.29688 10.6426C3.58972 10.3498 4.06452 10.3498 4.35742 10.6426C4.65029 10.9355 4.65025 11.4102 4.35742 11.7031L4.1416 11.9189C3.8487 12.2118 3.37394 12.2118 3.08105 11.9189C2.78828 11.626 2.7882 11.1512 3.08105 10.8584L3.29688 10.6426ZM8 4.5C8.66263 4.5 9.28232 4.68401 9.81055 5.00391C7.54909 5.89556 5.84375 7.88898 5.38477 10.3262C4.83446 9.70781 4.5 8.89287 4.5 8C4.5 6.067 6.067 4.5 8 4.5ZM2.5 6.75C2.91421 6.75 3.25 7.08579 3.25 7.5C3.25 7.91421 2.91421 8.25 2.5 8.25H2C1.58579 8.25 1.25 7.91421 1.25 7.5C1.25 7.08579 1.58579 6.75 2 6.75H2.5ZM3.08105 3.08105C3.37394 2.78815 3.8487 2.78815 4.1416 3.08105L4.35742 3.29688C4.65028 3.58977 4.6503 4.06453 4.35742 4.35742C4.06452 4.65017 3.58972 4.65023 3.29688 4.35742L3.08105 4.1416C2.7882 3.84875 2.78829 3.37396 3.08105 3.08105ZM10.8584 3.08105C11.1513 2.78816 11.626 2.78816 11.9189 3.08105C12.2117 3.37396 12.2118 3.84876 11.9189 4.1416L11.7031 4.35742C11.4103 4.65027 10.9355 4.65019 10.6426 4.35742C10.3497 4.06453 10.3497 3.58977 10.6426 3.29688L10.8584 3.08105ZM7.5 1.25C7.91421 1.25 8.25 1.58579 8.25 2V2.5C8.25 2.91421 7.91421 3.25 7.5 3.25C7.08579 3.25 6.75 2.91421 6.75 2.5V2C6.75 1.58579 7.08579 1.25 7.5 1.25Z" fill="#48465C"/>
</svg>
