<svg width="24" height="24" viewBox="0 0 24 24" fill="none" xmlns="http://www.w3.org/2000/svg">
<path d="M12.4766 4C15.416 4.00018 17.8371 6.19364 18.1553 9.01465C20.393 9.77989 21.9998 11.8809 22 14.3525C22 17.4712 19.4418 19.9998 16.2861 20H6.28613C3.9192 20 2 18.1037 2 15.7646C2.00003 13.4256 3.91922 11.5293 6.28613 11.5293C6.57011 11.5293 6.84768 11.5572 7.11621 11.6094C6.88716 10.9984 6.76177 10.3372 6.76172 9.64746C6.76172 6.52867 9.32064 4 12.4766 4ZM7 2C8.0986 2 9.1144 2.35449 9.93945 2.95508C7.21349 3.97013 5.26172 6.57429 5.26172 9.64746C5.26173 9.80485 5.26717 9.96114 5.27734 10.1162C4.68743 10.2192 4.12725 10.4113 3.6123 10.6777C2.62091 9.7641 2 8.4545 2 7C2 4.23858 4.23858 2 7 2Z" fill="#1C274C"/>
</svg>
