<svg width="24" height="24" viewBox="0 0 24 24" fill="none" xmlns="http://www.w3.org/2000/svg">
<path d="M11.3018 2C11.687 1.99959 11.9999 2.31203 12 2.69727C12 3.08259 11.6871 3.3951 11.3018 3.39551C9.44742 3.39747 8.06737 3.41462 6.98926 3.55957C5.80042 3.71943 5.08356 4.02308 4.55371 4.55273C4.0238 5.08264 3.71946 5.80005 3.55957 6.98926C3.397 8.19853 3.39551 9.78776 3.39551 12C3.39551 12.2701 3.39519 12.5313 3.39551 12.7842L4.32715 11.9697C5.17484 11.2279 6.45255 11.27 7.24902 12.0664L11.2393 16.0566C11.8785 16.6958 12.8844 16.7832 13.624 16.2637L13.9023 16.0684C14.9666 15.3208 16.4062 15.4075 17.373 16.2773L20.0068 18.6475C20.2718 18.0909 20.4287 17.3595 20.5127 16.3281C20.5919 15.3561 20.603 14.1749 20.6045 12.6973C20.6051 12.3121 20.9176 12 21.3027 12C21.6877 12.0002 22.0002 12.3122 22 12.6973C21.9985 14.1669 21.9868 15.4165 21.9033 16.4414C21.8064 17.6307 21.6085 18.6249 21.1641 19.4502C20.9681 19.8141 20.7269 20.1403 20.4336 20.4336C19.6012 21.2658 18.5401 21.6426 17.1963 21.8232C15.8833 21.9997 14.2007 22 12.0537 22H11.9463C9.79927 22 8.11662 21.9997 6.80371 21.8232C5.45982 21.6425 4.39877 21.2658 3.56641 20.4336C2.82855 19.6957 2.44778 18.7769 2.24512 17.6377C2.04605 16.5185 2.00952 15.1257 2.00195 13.3965C2.00003 12.9568 2 12.4917 2 12.001V11.9463C1.99999 9.79901 2.00023 8.11573 2.17676 6.80273C2.35747 5.4591 2.73421 4.39866 3.56641 3.56641C4.39879 2.73403 5.45977 2.35745 6.80371 2.17676C7.97129 2.0198 9.47343 2.00191 11.3018 2ZM17.5 2C19.6213 2 20.6818 2.00017 21.3408 2.65918C21.9998 3.31819 22 4.37868 22 6.5C22 8.62132 21.9998 9.6818 21.3408 10.3408C20.6818 10.9998 19.6213 11 17.5 11C15.3787 11 14.3182 10.9998 13.6592 10.3408C13.0002 9.6818 13 8.62132 13 6.5C13 4.37868 13.0002 3.31819 13.6592 2.65918C14.3182 2.00017 15.3787 2 17.5 2ZM17.8975 4.88574C17.8773 4.82763 17.8023 4.80807 17.7588 4.85156L15.96 6.65039C15.8157 6.79461 15.7437 6.86677 15.6816 6.94629C15.6084 7.04013 15.5453 7.14159 15.4941 7.24902C15.4508 7.34001 15.4179 7.43655 15.3535 7.62988L15.0137 8.65137C14.9821 8.74656 15.0072 8.85094 15.0781 8.92188C15.149 8.99281 15.2534 9.01792 15.3486 8.98633L16.3701 8.64648C16.5635 8.58203 16.6601 8.54922 16.751 8.50586C16.8585 8.45467 16.9599 8.39155 17.0537 8.31836C17.1333 8.25632 17.2054 8.18427 17.3496 8.04004L19.1484 6.24121C19.1919 6.19772 19.1724 6.1227 19.1143 6.10254C18.902 6.02887 18.6255 5.89111 18.3672 5.63281C18.1089 5.37451 17.9711 5.09805 17.8975 4.88574ZM19.7119 4.28809C19.3279 3.90419 18.7053 3.90417 18.3213 4.28809L18.2637 4.3457C18.2079 4.4015 18.1833 4.47997 18.1973 4.55762C18.206 4.60643 18.2215 4.6778 18.251 4.7627C18.3101 4.93317 18.4224 5.15681 18.6328 5.36719C18.8432 5.57757 19.0669 5.68987 19.2373 5.74902C19.3223 5.77849 19.3935 5.79493 19.4424 5.80371C19.5201 5.81765 19.5985 5.79208 19.6543 5.73633L19.7119 5.67871C20.0958 5.29479 20.0958 4.67202 19.7119 4.28809Z" fill="#48465C"/>
</svg>
