<svg width="24" height="24" viewBox="0 0 24 24" fill="none" xmlns="http://www.w3.org/2000/svg">
<path d="M8 5.25C8.41421 5.25 8.75 5.58579 8.75 6C8.75 6.41421 8.41421 6.75 8 6.75C5.10051 6.75 2.75 9.10051 2.75 12C2.75 14.8995 5.10051 17.25 8 17.25C10.8995 17.25 13.25 14.8995 13.25 12C13.25 11.5858 13.5858 11.25 14 11.25C14.4142 11.25 14.75 11.5858 14.75 12C14.75 15.7279 11.7279 18.75 8 18.75C4.27208 18.75 1.25 15.7279 1.25 12C1.25 8.27208 4.27208 5.25 8 5.25ZM16 5.25C19.7279 5.25 22.75 8.27208 22.75 12C22.75 15.7279 19.7279 18.75 16 18.75C15.5858 18.75 15.25 18.4142 15.25 18C15.25 17.5858 15.5858 17.25 16 17.25C18.8995 17.25 21.25 14.8995 21.25 12C21.25 9.1005 18.8995 6.75 16 6.75C13.1005 6.75 10.75 9.1005 10.75 12C10.75 12.4142 10.4142 12.75 10 12.75C9.58579 12.75 9.25 12.4142 9.25 12C9.25 8.27208 12.2721 5.25 16 5.25Z" fill="#1C274C"/>
</svg>
