<svg width="24" height="24" viewBox="0 0 24 24" fill="none" xmlns="http://www.w3.org/2000/svg">
<path d="M15.5342 1.25C16.6724 1.24999 17.5748 1.24977 18.3008 1.31152C19.0433 1.37469 19.6703 1.50646 20.2393 1.81055C21.0679 2.25341 21.7467 2.93221 22.1895 3.76074C22.4936 4.32964 22.6253 4.95677 22.6885 5.69922C22.7502 6.42518 22.75 7.32769 22.75 8.46582V8.5C22.75 8.91421 22.4142 9.25 22 9.25C21.5858 9.25 21.25 8.91421 21.25 8.5C21.25 7.31978 21.2491 6.48112 21.1934 5.82617C21.1383 5.18083 21.0344 4.78234 20.8662 4.46777C20.5632 3.90101 20.099 3.43678 19.5322 3.13379C19.2177 2.96564 18.8192 2.86157 18.1738 2.80664C17.5188 2.75093 16.6802 2.75 15.5 2.75H10C8.09324 2.75 6.73858 2.75149 5.71094 2.88965C4.70485 3.02491 4.12536 3.27894 3.70215 3.70215C3.27894 4.12536 3.02492 4.70485 2.88965 5.71094C2.75149 6.73859 2.75 8.09324 2.75 10V11C2.75 11.459 2.75036 11.8736 2.75391 12.25H11C11.4142 12.25 11.75 12.5858 11.75 13C11.75 13.4142 11.4142 13.75 11 13.75H2.80664C2.81915 13.9063 2.83488 14.0538 2.85352 14.1924C2.95218 14.9258 3.13249 15.3141 3.40918 15.5908C3.68594 15.8676 4.07482 16.0478 4.80859 16.1465C5.5639 16.2479 6.56485 16.25 8 16.25H11C11.4142 16.25 11.75 16.5858 11.75 17V22C11.75 22.4142 11.4142 22.75 11 22.75H8C7.58579 22.75 7.25 22.4142 7.25 22C7.25 21.5858 7.58579 21.25 8 21.25H10.25V17.75H7.94531C6.57782 17.75 5.47534 17.7503 4.6084 17.6338C3.70829 17.5128 2.95055 17.2533 2.34863 16.6514C1.74673 16.0494 1.48723 15.2917 1.36621 14.3916C1.31776 14.0311 1.28997 13.6295 1.27344 13.1855C1.25832 13.1262 1.25 13.064 1.25 13C1.25 12.9519 1.25502 12.905 1.26367 12.8594C1.25042 12.318 1.24999 11.7172 1.25 11.0547V9.94336C1.24998 8.1057 1.25016 6.64991 1.40332 5.51074C1.56095 4.33844 1.8933 3.38992 2.6416 2.6416C3.38992 1.8933 4.33844 1.56095 5.51074 1.40332C6.64991 1.25016 8.1057 1.24998 9.94336 1.25H15.5342ZM18.0518 10.25C18.9503 10.25 19.7001 10.2501 20.2949 10.3301C20.9225 10.4145 21.489 10.6003 21.9443 11.0557C22.3997 11.511 22.5855 12.0775 22.6699 12.7051C22.7499 13.2999 22.75 14.0497 22.75 14.9482V18.0518C22.75 18.9503 22.7499 19.7001 22.6699 20.2949C22.5855 20.9225 22.3997 21.489 21.9443 21.9443C21.489 22.3997 20.9225 22.5855 20.2949 22.6699C19.7001 22.7499 18.9503 22.75 18.0518 22.75H17.9482C17.0497 22.75 16.2999 22.7499 15.7051 22.6699C15.0775 22.5855 14.511 22.3997 14.0557 21.9443C13.6003 21.489 13.4145 20.9225 13.3301 20.2949C13.2501 19.7001 13.25 18.9503 13.25 18.0518V14.9482C13.25 14.0497 13.2501 13.2999 13.3301 12.7051C13.4145 12.0775 13.6003 11.511 14.0557 11.0557C14.511 10.6003 15.0775 10.4145 15.7051 10.3301C16.2999 10.2501 17.0497 10.25 17.9482 10.25H18.0518ZM18 11.75C17.036 11.75 16.3883 11.7515 15.9053 11.8164C15.4439 11.8785 15.2465 11.9859 15.1162 12.1162C14.9859 12.2465 14.8785 12.4439 14.8164 12.9053C14.7515 13.3883 14.75 14.036 14.75 15V18C14.75 18.964 14.7515 19.6117 14.8164 20.0947C14.8785 20.5561 14.9859 20.7535 15.1162 20.8838C15.2465 21.0141 15.4439 21.1215 15.9053 21.1836C16.3883 21.2485 17.036 21.25 18 21.25C18.964 21.25 19.6117 21.2485 20.0947 21.1836C20.5561 21.1215 20.7535 21.0141 20.8838 20.8838C21.0141 20.7535 21.1215 20.5561 21.1836 20.0947C21.2485 19.6117 21.25 18.964 21.25 18V15C21.25 14.036 21.2485 13.3883 21.1836 12.9053C21.1215 12.4439 21.0141 12.2465 20.8838 12.1162C20.7535 11.9859 20.5561 11.8785 20.0947 11.8164C19.6117 11.7515 18.964 11.75 18 11.75ZM19 19.25C19.4142 19.25 19.75 19.5858 19.75 20C19.75 20.4142 19.4142 20.75 19 20.75H17C16.5858 20.75 16.25 20.4142 16.25 20C16.25 19.5858 16.5858 19.25 17 19.25H19Z" fill="#1C274C"/>
</svg>
