<svg width="24" height="24" viewBox="0 0 24 24" fill="none" xmlns="http://www.w3.org/2000/svg">
<path d="M14.4307 2.51172C14.7003 2.19739 15.1738 2.16114 15.4883 2.43066C15.8026 2.70026 15.8389 3.17384 15.5693 3.48828L13.416 6H15V22H8C5.17157 22 3.75759 21.9998 2.87891 21.1211C2.00025 20.2425 2 18.8284 2 16V12C2 9.17163 2.00023 7.75758 2.87891 6.87891C3.75759 6.00026 5.17161 6 8 6H10.584L8.43066 3.48828C8.16115 3.17384 8.19738 2.70026 8.51172 2.43066C8.82617 2.16114 9.29975 2.19736 9.56934 2.51172L12 5.34766L14.4307 2.51172ZM16.5 6C18.9983 6.00305 20.2958 6.05361 21.1211 6.87891C21.9998 7.75759 22 9.1716 22 12V16C22 18.8284 21.9998 20.2425 21.1211 21.1211C20.2958 21.9464 18.9983 21.997 16.5 22V6ZM19 15C18.4477 15 18 15.4477 18 16C18.0001 16.5523 18.4477 17 19 17C19.5523 17 19.9999 16.5523 20 16C20 15.4477 19.5523 15 19 15ZM19 11C18.4477 11 18 11.4477 18 12C18.0001 12.5523 18.4477 13 19 13C19.5523 13 19.9999 12.5523 20 12C20 11.4477 19.5523 11 19 11Z" fill="#48465C"/>
</svg>
