<svg width="24" height="24" viewBox="0 0 24 24" fill="none" xmlns="http://www.w3.org/2000/svg">
<path d="M12.0381 1.25C12.7075 1.24998 13.2665 1.2499 13.7188 1.2959C14.1922 1.34405 14.6314 1.44933 15.0273 1.71387C15.3276 1.91451 15.5855 2.17239 15.7861 2.47266C16.0507 2.86862 16.156 3.30784 16.2041 3.78125C16.2501 4.23354 16.25 4.79245 16.25 5.46191V7.39355C16.8528 7.5084 17.3844 7.72606 17.8232 8.1582C18.3393 8.66641 18.5558 9.30335 18.6553 10.0322C18.7502 10.7266 18.75 11.6048 18.75 12.6729V15.3271C18.75 16.3952 18.7502 17.2734 18.6553 17.9678C18.5558 18.6967 18.3392 19.3335 17.8232 19.8418C17.3088 20.3484 16.6663 20.5599 15.9316 20.6572C15.2288 20.7502 14.3392 20.75 13.2529 20.75H12.75V22C12.75 22.4142 12.4142 22.75 12 22.75C11.5858 22.75 11.25 22.4142 11.25 22V20.75H10.7471C9.66079 20.75 8.77117 20.7502 8.06836 20.6572C7.33371 20.5599 6.69123 20.3484 6.17676 19.8418C5.6608 19.3335 5.44423 18.6967 5.34473 17.9678C5.24993 17.2734 5.24998 16.3952 5.25 15.3271V12.6729C5.24998 11.6048 5.24993 10.7266 5.34473 10.0322C5.44423 9.30335 5.66078 8.66641 6.17676 8.1582C6.61555 7.72606 7.14725 7.5084 7.75 7.39355V5.46191C7.74999 4.79245 7.7499 4.23354 7.7959 3.78125C7.84405 3.30784 7.94935 2.86862 8.21387 2.47266C8.41451 2.17239 8.67239 1.91451 8.97266 1.71387C9.36862 1.44934 9.80786 1.34405 10.2812 1.2959C10.7335 1.2499 11.2924 1.24998 11.9619 1.25H12.0381ZM10.7998 8.75C9.64765 8.75 8.85748 8.75158 8.26465 8.83008C7.69262 8.90586 7.41792 9.04108 7.22949 9.22656C7.04261 9.41061 6.90727 9.67694 6.83105 10.2354C6.75173 10.8164 6.75 11.5918 6.75 12.7275V15.2725C6.75 16.4082 6.75173 17.1836 6.83105 17.7646C6.90727 18.323 7.04261 18.5894 7.22949 18.7734C7.41792 18.959 7.69264 19.0941 8.26465 19.1699C8.85748 19.2484 9.64765 19.25 10.7998 19.25H13.2002C14.3524 19.25 15.1425 19.2484 15.7354 19.1699C16.3074 19.0941 16.5821 18.959 16.7705 18.7734C16.9574 18.5894 17.0927 18.323 17.1689 17.7646C17.2483 17.1836 17.25 16.4082 17.25 15.2725V12.7275C17.25 11.5918 17.2483 10.8164 17.1689 10.2354C17.0927 9.67694 16.9574 9.41061 16.7705 9.22656C16.5821 9.04108 16.3074 8.90586 15.7354 8.83008C15.1425 8.75158 14.3524 8.75 13.2002 8.75H10.7998ZM11.4004 11.5498C11.649 11.2187 12.1189 11.152 12.4502 11.4004C12.7813 11.6489 12.848 12.1189 12.5996 12.4502L12 13.25H13.5C13.7841 13.25 14.0439 13.4109 14.1709 13.665C14.2978 13.9191 14.27 14.223 14.0996 14.4502L12.5996 16.4502C12.3511 16.7813 11.8811 16.848 11.5498 16.5996C11.2187 16.351 11.152 15.8811 11.4004 15.5498L12 14.75H10.5C10.2159 14.75 9.95615 14.5891 9.8291 14.335C9.7023 14.0809 9.73004 13.777 9.90039 13.5498L11.4004 11.5498ZM12 2.75C11.2822 2.75 10.8 2.75072 10.4326 2.78809C10.0779 2.82419 9.9141 2.88849 9.80566 2.96094C9.6692 3.05212 9.55211 3.1692 9.46094 3.30566C9.38848 3.41409 9.32419 3.57788 9.28809 3.93262C9.25072 4.30002 9.25 4.78216 9.25 5.5V7.26172C9.69967 7.24973 10.1983 7.24999 10.7471 7.25H13.2529C13.8017 7.24999 14.3004 7.24973 14.75 7.26172V5.5C14.75 4.78216 14.7493 4.30002 14.7119 3.93262C14.6758 3.57788 14.6115 3.41409 14.5391 3.30566C14.4479 3.16919 14.3308 3.05213 14.1943 2.96094C14.0859 2.88849 13.9221 2.82419 13.5674 2.78809C13.2 2.75072 12.7178 2.75 12 2.75ZM13 4.25C13.4142 4.25 13.75 4.58579 13.75 5C13.75 5.41422 13.4142 5.75 13 5.75H11C10.5858 5.75 10.25 5.41422 10.25 5C10.25 4.58579 10.5858 4.25 11 4.25H13Z" fill="#1C274C"/>
</svg>
