<svg width="24" height="24" viewBox="0 0 24 24" fill="none" xmlns="http://www.w3.org/2000/svg">
<path d="M10.0303 2C10.6361 2 11.1218 1.99995 11.5303 2.0166C11.5169 2.09653 11.5091 2.1783 11.5088 2.26074L11.5 5.09473C11.4999 6.19183 11.4994 7.16184 11.6045 7.94336C11.7184 8.79041 11.9807 9.63693 12.6719 10.3281C13.363 11.0194 14.2096 11.2816 15.0566 11.3955C15.8382 11.5006 16.8082 11.5001 17.9053 11.5H21.957C21.9996 12.0342 22 12.6899 22 13.5625V14C22 17.7712 21.9997 19.6566 20.8281 20.8281C19.6566 21.9997 17.7712 22 14 22H10C6.22878 22 4.34346 21.9997 3.17188 20.8281C2.00031 19.6566 2 17.7712 2 14V10C2 6.22876 2.00031 4.34345 3.17188 3.17188C4.34345 2.00031 6.23916 2 10.0303 2ZM6.5 9.25C5.25736 9.25 4.25 10.2574 4.25 11.5C4.25 12.0763 4.46696 12.6019 4.82324 13C4.46696 13.3981 4.25 13.9237 4.25 14.5C4.25 15.0763 4.46696 15.6019 4.82324 16C4.46696 16.3981 4.25 16.9237 4.25 17.5C4.25 18.7426 5.25736 19.75 6.5 19.75C7.74264 19.75 8.75 18.7426 8.75 17.5V16.6221C8.98457 16.705 9.23703 16.75 9.5 16.75C10.7426 16.75 11.75 15.7426 11.75 14.5C11.75 13.9237 11.5331 13.3981 11.1768 13C11.5331 12.6019 11.75 12.0763 11.75 11.5C11.75 10.2574 10.7426 9.25 9.5 9.25H6.5ZM7.25 17.5C7.25 17.9142 6.91421 18.25 6.5 18.25C6.08579 18.25 5.75 17.9142 5.75 17.5C5.75 17.0858 6.08579 16.75 6.5 16.75H7.25V17.5ZM7.25 15.25H6.5C6.08579 15.25 5.75 14.9142 5.75 14.5C5.75 14.0858 6.08579 13.75 6.5 13.75H7.25V15.25ZM9.5 13.75C9.91421 13.75 10.25 14.0858 10.25 14.5C10.25 14.9142 9.91421 15.25 9.5 15.25C9.08579 15.25 8.75 14.9142 8.75 14.5C8.75 14.0858 9.08579 13.75 9.5 13.75ZM7.25 12.25H6.5C6.08579 12.25 5.75 11.9142 5.75 11.5C5.75 11.0858 6.08579 10.75 6.5 10.75H7.25V12.25ZM9.5 10.75C9.91421 10.75 10.25 11.0858 10.25 11.5C10.25 11.9142 9.91421 12.25 9.5 12.25H8.75V10.75H9.5ZM13.0088 2.26562C13.7007 2.53113 14.2649 3.03876 15.3926 4.05371L19.3516 7.61621C20.5682 8.71115 21.2175 9.29582 21.5801 10H18C15.643 10 14.4647 9.99981 13.7324 9.26758C13.0003 8.53535 13 7.35698 13 5L13.0088 2.26562Z" fill="#1C274C"/>
</svg>
