<svg width="24" height="24" viewBox="0 0 24 24" fill="none" xmlns="http://www.w3.org/2000/svg">
<path d="M12.752 2C14.9554 2.16316 16.9612 3.03718 18.5391 4.39355L16.9834 5.94727C16.6897 6.24057 16.6897 6.71647 16.9834 7.00977C17.277 7.30295 17.7532 7.30284 18.0469 7.00977L19.6025 5.45605C20.9609 7.03176 21.8366 9.03475 22 11.2354H20.0225C19.6071 11.2354 19.2695 11.5715 19.2695 11.9863C19.2697 12.401 19.6071 12.7373 20.0225 12.7373H22C21.8366 14.9378 20.9608 16.94 19.6025 18.5156L18.0469 16.9629C17.7532 16.6696 17.2771 16.6696 16.9834 16.9629C16.6899 17.2561 16.69 17.7311 16.9834 18.0244L18.5391 19.5781C16.7834 21.0874 14.4984 22 12 22C9.50161 22 7.21662 21.0874 5.46094 19.5781L7.0166 18.0244C7.31003 17.7311 7.31009 17.2561 7.0166 16.9629C6.72289 16.6696 6.24684 16.6696 5.95312 16.9629L4.39746 18.5156C3.0392 16.94 2.1634 14.9378 2 12.7373H3.97754C4.39282 12.7373 4.72937 12.401 4.72949 11.9863C4.72949 11.5715 4.3929 11.2354 3.97754 11.2354H2C2.16339 9.03475 3.03908 7.03176 4.39746 5.45605L5.95312 7.00977C6.24683 7.30285 6.72295 7.30294 7.0166 7.00977C7.3103 6.71647 7.3103 6.24057 7.0166 5.94727L5.46094 4.39355C7.0388 3.03716 9.04452 2.16316 11.248 2V3.97559C11.2482 4.39022 11.5847 4.72656 12 4.72656C12.4153 4.72656 12.7518 4.39022 12.752 3.97559V2ZM13.8105 10.1318C12.6357 8.95893 10.7314 8.95888 9.55664 10.1318C9.10975 10.578 8.79723 11.5047 8.58203 12.4814C8.26027 13.9418 8.09937 14.6723 8.68164 15.2539C9.26402 15.8355 9.99559 15.6749 11.458 15.3535C12.4357 15.1387 13.3635 14.827 13.8105 14.3809C14.9853 13.2077 14.9853 11.305 13.8105 10.1318Z" fill="#48465C"/>
</svg>
