<svg width="24" height="24" viewBox="0 0 24 24" fill="none" xmlns="http://www.w3.org/2000/svg">
<path d="M12 2C12.8114 2 13.5949 2.26825 15.1621 2.80469L15.7354 3.00098C18.7409 4.02979 20.2441 4.54434 20.6221 5.08203C20.9996 5.6199 21 7.21936 21 10.417V11.9912C21 17.6291 16.7612 20.3655 14.1016 21.5273C13.3802 21.8424 13.0193 22 12 22C10.9807 22 10.6199 21.8424 9.89844 21.5273C7.23883 20.3655 3 17.6291 3 11.9912V10.417C3 7.21936 3.00041 5.6199 3.37793 5.08203C3.75595 4.54434 5.25908 4.0298 8.26465 3.00098L8.83789 2.80469C10.4051 2.26824 11.1886 2 12 2ZM14.999 9.44043C14.69 9.16486 14.2162 9.1921 13.9404 9.50098L10.9287 12.874L10.0596 11.9004C9.78368 11.5915 9.30995 11.5651 9.00098 11.8408C8.69203 12.1167 8.66465 12.5904 8.94043 12.8994L10.3691 14.499C10.5114 14.6584 10.715 14.75 10.9287 14.75C11.1423 14.75 11.346 14.6584 11.4883 14.499L15.0596 10.499C15.3351 10.19 15.3079 9.71621 14.999 9.44043Z" fill="#1C274C"/>
</svg>
