<svg width="24" height="24" viewBox="0 0 24 24" fill="none" xmlns="http://www.w3.org/2000/svg">
<path d="M12.0576 1.25C14.1302 1.24999 15.7632 1.25043 17.0391 1.42383C18.3488 1.60187 19.3937 1.97479 20.2148 2.80469C21.0349 3.63372 21.4035 4.68742 21.5791 6.00781C21.7503 7.29584 21.75 8.94488 21.75 11.041V16.1387C21.75 17.6463 21.7503 18.8407 21.6543 19.7393C21.5594 20.6271 21.3556 21.4282 20.7744 21.9639C20.3079 22.3938 19.7175 22.6642 19.0879 22.7363C18.3006 22.8263 17.565 22.4505 16.8408 21.9375C16.108 21.4184 15.2192 20.6316 14.0977 19.6396L14.0605 19.6074C13.5406 19.1476 13.1883 18.8368 12.8945 18.6221C12.6112 18.4149 12.4379 18.34 12.292 18.3105C12.0995 18.2717 11.9005 18.2717 11.708 18.3105C11.5621 18.34 11.3888 18.4149 11.1055 18.6221C10.8117 18.8368 10.4593 19.1476 9.93945 19.6074L9.90234 19.6396C8.78055 20.6318 7.89115 21.4183 7.1582 21.9375C6.43411 22.4504 5.69934 22.8262 4.91211 22.7363C4.28257 22.6642 3.69201 22.3938 3.22559 21.9639C2.64439 21.4282 2.44062 20.6271 2.3457 19.7393C2.24967 18.8407 2.24999 17.6463 2.25 16.1387V11.041C2.24999 8.94482 2.24964 7.29583 2.4209 6.00781C2.59652 4.68742 2.96501 3.63372 3.78516 2.80469C4.60629 1.97478 5.65119 1.60187 6.96094 1.42383C8.23679 1.25043 9.86988 1.24999 11.9424 1.25H12.0576ZM12 2.75C9.85725 2.75 8.32626 2.75208 7.16309 2.91016C6.02276 3.06516 5.34826 3.35749 4.85156 3.85938C4.35371 4.36262 4.06209 5.04815 3.9082 6.20508C3.75155 7.38282 3.75 8.93239 3.75 11.0977V16.0908C3.75 17.657 3.75144 18.7699 3.83789 19.5791C3.92645 20.4079 4.08954 20.7194 4.24219 20.8604C4.47594 21.0758 4.77011 21.2104 5.08203 21.2461C5.28167 21.2689 5.6168 21.1922 6.29199 20.7139C6.95055 20.2474 7.77909 19.5159 8.94531 18.4844L8.97168 18.4609C9.45888 18.03 9.86298 17.672 10.2197 17.4111C10.5926 17.1385 10.9689 16.9292 11.4121 16.8398C11.8001 16.7617 12.1999 16.7617 12.5879 16.8398C13.0311 16.9292 13.4074 17.1385 13.7803 17.4111C14.137 17.672 14.5411 18.03 15.0283 18.4609L15.0547 18.4844C16.2209 19.5159 17.0495 20.2474 17.708 20.7139C18.3832 21.1922 18.7184 21.2689 18.918 21.2461C19.2299 21.2104 19.5241 21.0758 19.7578 20.8604C19.9105 20.7194 20.0736 20.4079 20.1621 19.5791C20.2486 18.7699 20.25 17.657 20.25 16.0908V11.0977C20.25 8.93239 20.2484 7.38282 20.0918 6.20508C19.9379 5.04815 19.6463 4.36262 19.1484 3.85938C18.6517 3.3575 17.9773 3.06516 16.8369 2.91016C15.6738 2.75208 14.1427 2.75 12 2.75ZM15 5.25C15.4142 5.25 15.75 5.58579 15.75 6C15.75 6.41421 15.4142 6.75 15 6.75H9C8.58579 6.75 8.25 6.41421 8.25 6C8.25 5.58579 8.58579 5.25 9 5.25H15Z" fill="#48465C"/>
</svg>
