<svg width="24" height="24" viewBox="0 0 24 24" fill="none" xmlns="http://www.w3.org/2000/svg">
<path d="M14.0566 1.25C15.8943 1.24998 17.3501 1.25016 18.4893 1.40332C19.6615 1.56095 20.6101 1.89332 21.3584 2.6416C22.1066 3.38992 22.439 4.33844 22.5967 5.51074C22.6871 6.18355 22.7242 6.96696 22.7393 7.87402C22.7462 7.91489 22.75 7.95716 22.75 8C22.75 8.03511 22.7478 8.06969 22.7432 8.10352C22.7503 8.66919 22.75 9.28169 22.75 9.94336V12.0566C22.75 12.7183 22.7503 13.3309 22.7432 13.8965C22.7478 13.9304 22.75 13.9649 22.75 14C22.75 14.0428 22.7462 14.0851 22.7393 14.126C22.7242 15.0331 22.6871 15.8165 22.5967 16.4893C22.439 17.6615 22.1066 18.6101 21.3584 19.3584C20.8945 19.8222 20.354 20.1266 19.7305 20.3281C19.7435 20.3833 19.75 20.4409 19.75 20.5V22C19.75 22.4142 19.4142 22.75 19 22.75C18.5858 22.75 18.25 22.4142 18.25 22V20.626C17.1483 20.7497 15.7682 20.75 14.0566 20.75H9.94336C8.23182 20.75 6.85172 20.7497 5.75 20.626V22C5.75 22.4142 5.41421 22.75 5 22.75C4.58579 22.75 4.25 22.4142 4.25 22V20.5C4.25 20.4409 4.25661 20.3833 4.26953 20.3281C3.64607 20.1266 3.10548 19.8222 2.6416 19.3584C1.89332 18.6101 1.56095 17.6615 1.40332 16.4893C1.31286 15.8165 1.2759 15.0331 1.26074 14.126C1.25384 14.0851 1.25 14.0428 1.25 14C1.25 13.9649 1.25216 13.9304 1.25684 13.8965C1.24969 13.3309 1.24999 12.7183 1.25 12.0566V9.94336C1.24999 9.28168 1.24969 8.66918 1.25684 8.10352C1.25216 8.06969 1.25 8.03511 1.25 8C1.25 7.95716 1.25384 7.9149 1.26074 7.87402C1.2759 6.96696 1.31286 6.18355 1.40332 5.51074C1.56095 4.33844 1.8933 3.38992 2.6416 2.6416C3.38992 1.8933 4.33844 1.56095 5.51074 1.40332C6.64991 1.25016 8.10571 1.24998 9.94336 1.25H14.0566ZM2.77637 14.75C2.79594 15.3366 2.82977 15.8436 2.88965 16.2891C3.02491 17.2951 3.27894 17.8747 3.70215 18.2979C4.12536 18.7211 4.70485 18.9752 5.71094 19.1104C6.73858 19.2485 8.09325 19.25 10 19.25H14C15.9067 19.25 17.2614 19.2485 18.2891 19.1104C19.2951 18.9752 19.8747 18.7211 20.2979 18.2979C20.7211 17.8747 20.9752 17.2951 21.1104 16.2891C21.1702 15.8436 21.2041 15.3366 21.2236 14.75H2.77637ZM12 16C12.5523 16 13 16.4477 13 17C13 17.5523 12.5523 18 12 18C11.4477 18 11 17.5523 11 17C11 16.4477 11.4477 16 12 16ZM2.75 10V12C2.75 12.4459 2.75005 12.8616 2.75195 13.25H21.248C21.2499 12.8616 21.25 12.4459 21.25 12V10C21.25 9.5541 21.2499 9.13839 21.248 8.75H2.75195C2.75005 9.13839 2.75 9.5541 2.75 10ZM10 2.75C8.09324 2.75 6.73858 2.75149 5.71094 2.88965C4.70485 3.02491 4.12536 3.27894 3.70215 3.70215C3.27894 4.12536 3.02491 4.70485 2.88965 5.71094C2.82977 6.1564 2.79594 6.66332 2.77637 7.25H21.2236C21.2041 6.66332 21.1702 6.1564 21.1104 5.71094C20.9752 4.70485 20.7211 4.12536 20.2979 3.70215C19.8747 3.27894 19.2951 3.02491 18.2891 2.88965C17.2614 2.7515 15.9067 2.75 14 2.75H10Z" fill="#1C274C"/>
</svg>
