<svg width="24" height="24" viewBox="0 0 24 24" fill="none" xmlns="http://www.w3.org/2000/svg">
<path d="M14 6C16.8 6 18.2 6.00015 19.2695 6.54492C20.2103 7.02428 20.9758 7.78966 21.4551 8.73047C21.9999 9.79998 22 11.2 22 14C22 16.7999 21.9999 18.2 21.4551 19.2695C20.9758 20.2103 20.2103 20.9758 19.2695 21.4551C18.2 21.9999 16.7999 22 14 22H10C7.20006 22 5.79998 21.9999 4.73047 21.4551C3.78966 20.9758 3.02428 20.2103 2.54492 19.2695C2.00015 18.2 2 16.8 2 14C2 11.2 2.00013 9.79998 2.54492 8.73047C3.02428 7.78966 3.78966 7.02428 4.73047 6.54492C5.79998 6.00013 7.20005 6 10 6H14ZM12 9.25C11.7874 9.25 11.5847 9.34005 11.4424 9.49805L7.44238 13.9424C7.16531 14.2502 7.19026 14.7248 7.49805 15.002C7.80594 15.2791 8.28052 15.2542 8.55762 14.9463L11.25 11.9541V18C11.25 18.4142 11.5858 18.75 12 18.75C12.4142 18.75 12.75 18.4142 12.75 18V11.9541L15.4424 14.9463C15.7195 15.2542 16.1941 15.2791 16.502 15.002C16.8097 14.7248 16.8347 14.2502 16.5576 13.9424L12.5576 9.49805C12.4153 9.34005 12.2126 9.25 12 9.25ZM11.999 2C16.713 2 19.0708 2.00037 20.5352 3.46484C21.2924 4.22228 21.6585 5.21874 21.835 6.65625C21.3044 6.06559 20.6662 5.57283 19.9502 5.20801C19.1688 4.80989 18.3318 4.64894 17.4053 4.57324C16.5103 4.50013 15.4091 4.49998 14.0625 4.5H9.93652C8.58977 4.49998 7.4879 4.50011 6.59277 4.57324C5.66663 4.64894 4.83004 4.81008 4.04883 5.20801C3.33283 5.57283 2.69473 6.06559 2.16406 6.65625C2.34059 5.2186 2.70647 4.22231 3.46387 3.46484C4.9283 2.0004 7.28516 2 11.999 2Z" fill="#1C274C"/>
</svg>
