<svg width="24" height="24" viewBox="0 0 24 24" fill="none" xmlns="http://www.w3.org/2000/svg">
<path d="M12 1.25C13.6418 1.25 15.0987 1.71135 16.1484 2.71582C17.2036 3.72567 17.75 5.19116 17.75 7V7.28906C19.634 7.98732 21 9.8737 21 12.0996C20.9998 15.9376 18.032 18.152 15.5049 20.0371C15.2422 20.233 14.9838 20.425 14.7344 20.6152C13.8 21.3283 12.9 22 12 22C11.1 22 10.2001 21.3283 9.26562 20.6152C9.01645 20.425 8.7586 20.2329 8.49609 20.0371C5.9689 18.152 3.00021 15.9377 3 12.0996C3 9.8737 4.36604 7.98732 6.25 7.28906V7C6.25 5.19116 6.7964 3.72567 7.85156 2.71582C8.90128 1.71135 10.3582 1.25 12 1.25ZM12 11.25C11.5858 11.25 11.25 11.5858 11.25 12V14.5C11.25 14.9142 11.5858 15.25 12 15.25C12.4142 15.25 12.75 14.9142 12.75 14.5V12C12.75 11.5858 12.4142 11.25 12 11.25ZM12 2.75C10.6295 2.75 9.58583 3.13178 8.88867 3.79883C8.19714 4.46054 7.75 5.4953 7.75 7V7.00098C9.11513 6.96827 10.6105 7.53307 12 8.93066C13.3895 7.53307 14.8849 6.96827 16.25 7.00098V7C16.25 5.4953 15.8028 4.46054 15.1113 3.79883C14.4141 3.1318 13.3705 2.75 12 2.75Z" fill="#1C274C"/>
</svg>
