<svg width="24" height="24" viewBox="0 0 24 24" fill="none" xmlns="http://www.w3.org/2000/svg">
<path d="M12 1.25C17.9371 1.25 22.75 6.06294 22.75 12C22.75 17.9371 17.9371 22.75 12 22.75C6.06294 22.75 1.25 17.9371 1.25 12C1.25 6.06294 6.06294 1.25 12 1.25ZM12 2.75C6.89137 2.75 2.75 6.89137 2.75 12C2.75 17.1086 6.89137 21.25 12 21.25C17.1086 21.25 21.25 17.1086 21.25 12C21.25 6.89137 17.1086 2.75 12 2.75ZM9.52148 7.25C9.73576 7.24999 9.93331 7.25044 10.0986 7.26172C10.2762 7.27387 10.4716 7.30066 10.6699 7.38281C11.0987 7.56043 11.4396 7.90133 11.6172 8.33008C11.6993 8.52842 11.7262 8.72385 11.7383 8.90137C11.7496 9.0667 11.75 9.26424 11.75 9.47852V14.5215C11.75 14.7357 11.7496 14.9333 11.7383 15.0986C11.7262 15.2762 11.6993 15.4716 11.6172 15.6699C11.4396 16.0987 11.0987 16.4396 10.6699 16.6172C10.4716 16.6993 10.2762 16.7262 10.0986 16.7383C9.93331 16.7496 9.73576 16.75 9.52148 16.75H9.47852C9.26424 16.75 9.0667 16.7496 8.90137 16.7383C8.72385 16.7262 8.52842 16.6993 8.33008 16.6172C7.90133 16.4396 7.56043 16.0987 7.38281 15.6699C7.30066 15.4716 7.27387 15.2762 7.26172 15.0986C7.25044 14.9333 7.24999 14.7357 7.25 14.5215V9.47852C7.24999 9.26424 7.25044 9.0667 7.26172 8.90137C7.27386 8.72385 7.30066 8.52842 7.38281 8.33008C7.56043 7.90132 7.90132 7.56043 8.33008 7.38281C8.52842 7.30066 8.72385 7.27386 8.90137 7.26172C9.0667 7.25044 9.26424 7.24999 9.47852 7.25H9.52148ZM14.5215 7.25C14.7357 7.24999 14.9333 7.25044 15.0986 7.26172C15.2762 7.27387 15.4716 7.30066 15.6699 7.38281C16.0987 7.56043 16.4396 7.90133 16.6172 8.33008C16.6993 8.52842 16.7262 8.72385 16.7383 8.90137C16.7496 9.0667 16.75 9.26424 16.75 9.47852V14.5215C16.75 14.7357 16.7496 14.9333 16.7383 15.0986C16.7262 15.2762 16.6993 15.4716 16.6172 15.6699C16.4396 16.0987 16.0987 16.4396 15.6699 16.6172C15.4716 16.6993 15.2762 16.7262 15.0986 16.7383C14.9333 16.7496 14.7357 16.75 14.5215 16.75H14.4785C14.2643 16.75 14.0667 16.7496 13.9014 16.7383C13.7238 16.7262 13.5284 16.6993 13.3301 16.6172C12.9013 16.4396 12.5604 16.0987 12.3828 15.6699C12.3007 15.4716 12.2738 15.2762 12.2617 15.0986C12.2504 14.9333 12.25 14.7357 12.25 14.5215V9.47852C12.25 9.26424 12.2504 9.0667 12.2617 8.90137C12.2738 8.72385 12.3007 8.52842 12.3828 8.33008C12.5604 7.90133 12.9013 7.56043 13.3301 7.38281C13.5284 7.30066 13.7238 7.27387 13.9014 7.26172C14.0667 7.25044 14.2643 7.24999 14.4785 7.25H14.5215ZM9.00391 8.75781C8.93709 8.76237 8.90872 8.76865 8.90137 8.77051C8.84256 8.79579 8.79579 8.84256 8.77051 8.90137C8.76865 8.90872 8.76237 8.93708 8.75781 9.00391C8.75044 9.11191 8.75 9.25677 8.75 9.5V14.5C8.75 14.7432 8.75044 14.8881 8.75781 14.9961C8.76237 15.0629 8.76864 15.0912 8.77051 15.0986C8.79579 15.1574 8.84256 15.2042 8.90137 15.2295C8.90872 15.2314 8.93708 15.2377 9.00391 15.2422C9.11191 15.2496 9.25677 15.25 9.5 15.25C9.74323 15.25 9.88809 15.2496 9.99609 15.2422C10.0629 15.2377 10.0912 15.2314 10.0986 15.2295C10.1574 15.2042 10.2042 15.1574 10.2295 15.0986C10.2314 15.0912 10.2377 15.0629 10.2422 14.9961C10.2496 14.8881 10.25 14.7432 10.25 14.5V9.5C10.25 9.25677 10.2496 9.11191 10.2422 9.00391C10.2377 8.93708 10.2314 8.90872 10.2295 8.90137C10.2042 8.84255 10.1574 8.79579 10.0986 8.77051C10.0912 8.76863 10.0629 8.76236 9.99609 8.75781C9.88809 8.75044 9.74323 8.75 9.5 8.75C9.25677 8.75 9.11191 8.75044 9.00391 8.75781ZM14.0039 8.75781C13.9371 8.76236 13.9088 8.76864 13.9014 8.77051C13.8426 8.79579 13.7958 8.84256 13.7705 8.90137C13.7686 8.90872 13.7623 8.93709 13.7578 9.00391C13.7504 9.11191 13.75 9.25677 13.75 9.5V14.5C13.75 14.7432 13.7504 14.8881 13.7578 14.9961C13.7623 15.0629 13.7686 15.0912 13.7705 15.0986C13.7958 15.1574 13.8426 15.2042 13.9014 15.2295C13.9088 15.2314 13.9371 15.2377 14.0039 15.2422C14.1119 15.2496 14.2568 15.25 14.5 15.25C14.7432 15.25 14.8881 15.2496 14.9961 15.2422C15.0629 15.2377 15.0912 15.2314 15.0986 15.2295C15.1574 15.2042 15.2042 15.1574 15.2295 15.0986C15.2314 15.0912 15.2377 15.0629 15.2422 14.9961C15.2496 14.8881 15.25 14.7432 15.25 14.5V9.5C15.25 9.25677 15.2496 9.11191 15.2422 9.00391C15.2377 8.93709 15.2314 8.90873 15.2295 8.90137C15.2042 8.84256 15.1574 8.79579 15.0986 8.77051C15.0912 8.76864 15.0629 8.76237 14.9961 8.75781C14.8881 8.75044 14.7432 8.75 14.5 8.75C14.2568 8.75 14.1119 8.75044 14.0039 8.75781Z" fill="#1C274C"/>
</svg>
