<svg width="24" height="24" viewBox="0 0 24 24" fill="none" xmlns="http://www.w3.org/2000/svg">
<path d="M5.00757 4.40723C6.68765 2.72725 9.52234 2.8551 10.6921 4.95117L11.3416 6.11426C12.1052 7.48297 11.78 9.20992 10.6619 10.3418C10.647 10.3622 10.5673 10.4771 10.5574 10.6777C10.5449 10.934 10.6363 11.5271 11.5544 12.4453C12.4726 13.3634 13.0656 13.4549 13.322 13.4424C13.5218 13.4326 13.6365 13.3546 13.658 13.3389C14.79 12.2206 16.5177 11.8953 17.8865 12.6592L19.0496 13.3076C21.1456 14.4776 21.2735 17.3131 19.5935 18.9932C18.6949 19.8917 17.4996 20.6898 16.0955 20.7432C14.0146 20.822 10.5592 20.2849 7.13745 16.8633C3.71581 13.4416 3.17776 9.98623 3.25659 7.90527C3.30982 6.50107 4.10891 5.30589 5.00757 4.40723ZM9.38257 5.68164C8.78343 4.60859 7.17384 4.36215 6.06812 5.46777C5.29277 6.24311 4.78833 7.09913 4.75562 7.96191C4.68984 9.69727 5.11867 12.7234 8.198 15.8027C11.2773 18.8819 14.3036 19.3099 16.0388 19.2441C16.9013 19.2113 17.7569 18.7077 18.532 17.9326C19.6378 16.8269 19.3914 15.2172 18.3181 14.6182L17.155 13.9688C16.4316 13.5651 15.4152 13.7028 14.7019 14.416C14.6317 14.4862 14.1863 14.9018 13.3953 14.9404C12.5851 14.9799 11.6037 14.6157 10.4939 13.5059C9.38391 12.3958 9.01966 11.4147 9.05933 10.6045C9.09812 9.81305 9.51507 9.3675 9.58472 9.29785C10.2979 8.58454 10.4356 7.56809 10.032 6.84473L9.38257 5.68164ZM18.4695 4.46973C18.7623 4.177 19.2371 4.17715 19.53 4.46973C19.8229 4.76258 19.8228 5.23736 19.53 5.53027L16.8103 8.25H17.9998C18.4138 8.25 18.7495 8.58596 18.7498 9C18.7498 9.41421 18.414 9.75 17.9998 9.75H14.9998C14.5857 9.74988 14.2498 9.41414 14.2498 9V6C14.25 5.58604 14.5858 5.25012 14.9998 5.25C15.4138 5.25 15.7495 5.58596 15.7498 6V7.18945L18.4695 4.46973Z" fill="#48465C"/>
</svg>
