<svg width="24" height="24" viewBox="0 0 24 24" fill="none" xmlns="http://www.w3.org/2000/svg">
<path d="M12 6.90918C13.6876 6.90918 15.0957 8.15855 15.4189 9.81836H12.9307C12.5454 9.81836 12.2324 10.1442 12.2324 10.5459C12.2326 10.9474 12.5455 11.2725 12.9307 11.2725H15.4883V12.7275H12.9307C12.5454 12.7275 12.2324 13.0535 12.2324 13.4551C12.2327 13.8566 12.5455 14.1816 12.9307 14.1816H15.4189C15.1415 15.6063 14.0649 16.7291 12.6982 17.0186V19.2725C12.6982 19.6742 12.3853 20 12 20C11.6147 20 11.3027 19.6741 11.3027 19.2725V17.0186C9.93592 16.7293 8.8585 15.6064 8.58105 14.1816H10.1396C10.5248 14.1816 10.8367 13.8565 10.8369 13.4551C10.8369 13.0535 10.5249 12.7276 10.1396 12.7275H8.51172V11.2725H10.1396C10.5248 11.2724 10.8368 10.9473 10.8369 10.5459C10.8369 10.1442 10.5249 9.81839 10.1396 9.81836H8.58105C8.90426 8.15858 10.3124 6.90922 12 6.90918ZM12 4C15.3294 4 18.0535 6.7014 18.2656 10.1162C18.6178 9.92585 19.0183 9.81836 19.4424 9.81836C20.8548 9.81863 21.9998 11.012 22 12.4844V14.4238C22 15.8965 20.855 17.0905 19.4424 17.0908C19.3943 17.0908 19.3462 17.0896 19.2988 17.0869V17.0908C17.965 17.0908 16.8838 15.9636 16.8838 14.5732V10.5449C16.8835 7.73356 14.697 5.4541 12 5.4541C9.30294 5.4541 7.11646 7.73356 7.11621 10.5449V14.5732C7.11621 15.9636 6.03495 17.0908 4.70117 17.0908V17.0869C4.65398 17.0896 4.60643 17.0908 4.55859 17.0908C3.14577 17.0908 2 15.8966 2 14.4238V12.4844C2.00022 11.0119 3.14591 9.81836 4.55859 9.81836C4.98247 9.81844 5.38239 9.92591 5.73438 10.1162C5.9465 6.70139 8.67054 4 12 4Z" fill="#48465C"/>
</svg>
