<svg width="24" height="24" viewBox="0 0 24 24" fill="none" xmlns="http://www.w3.org/2000/svg">
<path d="M19.3096 1.70605C19.4721 1.32513 19.913 1.14812 20.2939 1.31055C20.6748 1.47306 20.8519 1.91298 20.6895 2.29395V2.2959L20.6855 2.30469L20.6699 2.34082C20.6562 2.37376 20.6357 2.42393 20.6094 2.48926C20.5567 2.61993 20.481 2.81287 20.3896 3.05664C20.2067 3.54484 19.9621 4.2362 19.7178 5.0459C19.2252 6.67892 18.75 8.73922 18.75 10.5713C18.75 11.6301 19.1085 12.5385 19.6562 13.5273C19.8447 13.8675 20.0653 14.2314 20.2998 14.6172C20.8138 15.4626 21.3926 16.4154 21.8359 17.4619C22.3691 18.7205 22.75 20.1844 22.75 22C22.75 22.4142 22.4142 22.75 22 22.75C21.5858 22.75 21.25 22.4142 21.25 22C21.25 20.5094 20.9597 19.304 20.541 18.2559C15.147 18.4028 13.0819 21.1272 12.7119 22.2373C12.6098 22.5435 12.3228 22.75 12 22.75C11.6772 22.75 11.3902 22.5435 11.2881 22.2373C10.9181 21.1272 8.85299 18.4028 3.45898 18.2559C3.04023 19.304 2.75 20.5094 2.75 22C2.74996 22.4142 2.41418 22.75 2 22.75C1.58582 22.75 1.25004 22.4142 1.25 22C1.25 20.1844 1.63088 18.7205 2.16406 17.4619C2.6074 16.4154 3.18627 15.4626 3.7002 14.6172C3.93472 14.2313 4.15536 13.8674 4.34375 13.5273C4.89152 12.5385 5.25 11.6301 5.25 10.5713C5.24999 8.73922 4.77484 6.67892 4.28223 5.0459C4.03796 4.23619 3.79334 3.54484 3.61035 3.05664C3.51896 2.81286 3.44326 2.61993 3.39062 2.48926C3.36432 2.42393 3.34376 2.37376 3.33008 2.34082L3.31445 2.30469L3.31055 2.2959V2.29395C3.14821 1.91301 3.32514 1.47304 3.70605 1.31055C4.08702 1.1481 4.52695 1.3251 4.68945 1.70605L4.69043 1.70703L4.69238 1.71094L4.69727 1.72266L4.71484 1.76562C4.73045 1.80322 4.75291 1.85834 4.78125 1.92871C4.83799 2.06959 4.91858 2.27398 5.01465 2.53027C5.20663 3.04244 5.46214 3.76586 5.71777 4.61328C6.22511 6.29517 6.74999 8.5205 6.75 10.5713C6.75 11.1719 6.66255 11.7274 6.5166 12.25H17.4834C17.3375 11.7274 17.25 11.1719 17.25 10.5713C17.25 8.5205 17.7749 6.29516 18.2822 4.61328C18.5378 3.76585 18.7934 3.04244 18.9854 2.53027C19.0815 2.27398 19.1619 2.06959 19.2188 1.92871C19.247 1.85834 19.2695 1.80323 19.2852 1.76562L19.3027 1.72266L19.3076 1.71094L19.3096 1.70703V1.70605Z" fill="#48465C"/>
</svg>
