<svg width="24" height="24" viewBox="0 0 24 24" fill="none" xmlns="http://www.w3.org/2000/svg">
<path d="M12 2C17.5228 2 22 6.47715 22 12C22 17.5228 17.5228 22 12 22C6.47715 22 2 17.5228 2 12C2 6.47715 6.47715 2 12 2ZM15.0303 14.9697C14.4712 14.4108 13.5711 14.401 13 14.9404C12.4392 14.4106 11.5609 14.4106 11 14.9404C10.429 14.401 9.52877 14.4107 8.96973 14.9697L8.46973 15.4697C8.17686 15.7626 8.17689 16.2374 8.46973 16.5303C8.76263 16.8232 9.23738 16.8232 9.53027 16.5303L10.001 16.0605C10.5618 16.5895 11.4395 16.5891 12 16.0596C12.5607 16.5892 13.4392 16.5898 14 16.0605L14.4697 16.5303C14.7626 16.8232 15.2374 16.8232 15.5303 16.5303C15.8232 16.2374 15.8232 15.7626 15.5303 15.4697L15.0303 14.9697ZM8.4502 8.40039C8.11893 8.15195 7.64898 8.21871 7.40039 8.5498C7.15196 8.88106 7.21874 9.35102 7.5498 9.59961L8.75 10.5L7.5498 11.4004C7.21873 11.6491 7.15196 12.119 7.40039 12.4502C7.64898 12.7813 8.11892 12.8481 8.4502 12.5996L10.4502 11.0996C10.6389 10.958 10.75 10.736 10.75 10.5C10.75 10.2641 10.6389 10.0421 10.4502 9.90039L8.4502 8.40039ZM16.5996 8.5498C16.351 8.21873 15.8811 8.15196 15.5498 8.40039L13.5498 9.90039C13.3612 10.0421 13.25 10.2641 13.25 10.5C13.25 10.736 13.3612 10.958 13.5498 11.0996L15.5498 12.5996C15.8811 12.8481 16.351 12.7813 16.5996 12.4502C16.8481 12.119 16.7813 11.6491 16.4502 11.4004L15.25 10.5L16.4502 9.59961C16.7813 9.35102 16.8481 8.88106 16.5996 8.5498Z" fill="#48465C"/>
</svg>
