<svg width="24" height="24" viewBox="0 0 24 24" fill="none" xmlns="http://www.w3.org/2000/svg">
<path d="M12 2C16.714 2 19.0708 2.00037 20.5352 3.46484C21.9996 4.9293 22 7.28597 22 12C22 16.714 21.9997 19.0708 20.5352 20.5352C19.0708 21.9997 16.714 22 12 22C7.28597 22 4.9293 21.9996 3.46484 20.5352C2.00037 19.0708 2 16.714 2 12C2 7.28595 2.00037 4.9293 3.46484 3.46484C4.9293 2.00037 7.28595 2 12 2ZM10.5176 13.457C10.2178 13.1714 9.74272 13.1827 9.45703 13.4824L7.14258 15.9121L6.54297 15.2832C6.25731 14.9832 5.78237 14.9711 5.48242 15.2568C5.18261 15.5426 5.17141 16.0175 5.45703 16.3174L6.59961 17.5176C6.74109 17.6661 6.93748 17.7499 7.14258 17.75C7.34765 17.75 7.54402 17.666 7.68555 17.5176L10.543 14.5176C10.8286 14.2178 10.8173 13.7428 10.5176 13.457ZM13 15.25C12.5858 15.25 12.25 15.5858 12.25 16C12.25 16.4142 12.5858 16.75 13 16.75H18C18.4142 16.75 18.75 16.4142 18.75 16C18.75 15.5858 18.4142 15.25 18 15.25H13ZM10.5176 6.45703C10.2178 6.17144 9.74272 6.18271 9.45703 6.48242L7.14258 8.91211L6.54297 8.2832C6.25731 7.98325 5.78237 7.97117 5.48242 8.25684C5.18261 8.54251 5.17141 9.01748 5.45703 9.31738L6.59961 10.5176C6.74109 10.6661 6.93748 10.7499 7.14258 10.75C7.34765 10.75 7.54402 10.666 7.68555 10.5176L10.543 7.51758C10.8286 7.21773 10.8173 6.74272 10.5176 6.45703ZM13 8.25C12.5858 8.25 12.25 8.58579 12.25 9C12.25 9.41422 12.5858 9.75 13 9.75H18C18.4142 9.75 18.75 9.41422 18.75 9C18.75 8.58579 18.4142 8.25 18 8.25H13Z" fill="#1C274C"/>
</svg>
