<svg width="24" height="24" viewBox="0 0 24 24" fill="none" xmlns="http://www.w3.org/2000/svg">
<path d="M12.5645 4.25C13.1344 4.24998 13.6187 4.24967 14.0186 4.29102C14.4444 4.33504 14.8382 4.43136 15.21 4.66113C15.5815 4.89087 15.8435 5.19952 16.0732 5.56055C16.2758 5.879 16.4789 6.2803 16.7139 6.75H17.8682C18.1521 6.74998 18.4128 6.75002 18.6299 6.76953C18.8646 6.79062 19.1206 6.83908 19.3682 6.98047C19.6396 7.13552 19.8645 7.36044 20.0195 7.63184C20.1609 7.8794 20.2094 8.13546 20.2305 8.37012C20.25 8.58728 20.25 8.84801 20.25 9.13184V9.22559C20.2506 9.48526 20.2514 9.7635 20.167 10.0273C20.1106 10.2041 20.0267 10.3711 19.918 10.5215C19.7555 10.7458 19.5308 10.9099 19.3213 11.0635L19.2695 11.1016L18.9912 11.3057L19.4785 12.2803C21.3235 12.5153 22.75 14.0911 22.75 16C22.75 18.0711 21.0711 19.75 19 19.75C17.1858 19.75 15.6727 18.4617 15.3252 16.75H10.1748C9.82734 18.4617 8.3142 19.75 6.5 19.75C4.68267 19.75 3.16727 18.4573 2.82324 16.7412C1.98387 16.6562 1.32255 15.9825 1.25586 15.1377C1.25037 15.0679 1.24995 14.9916 1.25 14.9189V14.8623C1.24998 14.5273 1.24997 14.3135 1.26465 14.127C1.44811 11.7979 3.29797 9.94813 5.62695 9.76465C5.81343 9.74998 6.02727 9.74998 6.3623 9.75H7.05176C7.95024 9.74997 8.70014 9.75012 9.29492 9.83008C9.92252 9.91451 10.489 10.1003 10.9443 10.5557C11.3996 11.011 11.5855 11.5775 11.6699 12.2051C11.7499 12.7999 11.75 13.5497 11.75 14.4482V15.25H15.3252C15.5975 13.9089 16.5855 12.8281 17.873 12.4229L15.4346 7.54688C15.1587 6.99533 14.9769 6.63227 14.8076 6.36621C14.6476 6.11479 14.5324 6.00545 14.4209 5.93652C14.3094 5.86766 14.1606 5.81383 13.8643 5.7832C13.5506 5.75079 13.1448 5.75 12.5283 5.75H12C11.5858 5.75 11.25 5.41422 11.25 5C11.25 4.58579 11.5858 4.25 12 4.25H12.5645Z" fill="#1C274C"/>
</svg>
