<svg width="24" height="24" viewBox="0 0 24 24" fill="none" xmlns="http://www.w3.org/2000/svg">
<path d="M19.4082 13.0391C19.6629 12.7126 20.1344 12.6539 20.4609 12.9082C20.7874 13.1629 20.8461 13.6344 20.5918 13.9609L16.6914 18.9609C16.5522 19.1393 16.3396 19.2459 16.1133 19.25C15.8871 19.254 15.6709 19.1556 15.5254 18.9824L13.4258 16.4824C13.1594 16.1652 13.2004 15.6922 13.5176 15.4258C13.8348 15.1594 14.3078 15.2004 14.5742 15.5176L16.0781 17.3086L19.4082 13.0391ZM10 17.25C10.4142 17.25 10.75 17.5858 10.75 18C10.75 18.4142 10.4142 18.75 10 18.75H3C2.58579 18.75 2.25 18.4142 2.25 18C2.25 17.5858 2.58579 17.25 3 17.25H10ZM10 13.25C10.4142 13.25 10.75 13.5858 10.75 14C10.75 14.4142 10.4142 14.75 10 14.75H3C2.58579 14.75 2.25 14.4142 2.25 14C2.25 13.5858 2.58579 13.25 3 13.25H10ZM21 9.25C21.4142 9.25 21.75 9.58579 21.75 10C21.75 10.4142 21.4142 10.75 21 10.75H3C2.58579 10.75 2.25 10.4142 2.25 10C2.25 9.58579 2.58579 9.25 3 9.25H21ZM21 5.25C21.4142 5.25 21.75 5.58579 21.75 6C21.75 6.41421 21.4142 6.75 21 6.75H3C2.58579 6.75 2.25 6.41421 2.25 6C2.25 5.58579 2.58579 5.25 3 5.25H21Z" fill="#1C274C"/>
</svg>
