<svg width="24" height="24" viewBox="0 0 24 24" fill="none" xmlns="http://www.w3.org/2000/svg">
<path d="M9.00098 13.001C12.867 13.001 16.001 14.7918 16.001 17.001C16.001 19.2101 12.867 21.001 9.00098 21.001C5.13498 21.001 2.00098 19.2101 2.00098 17.001C2.00098 14.7918 5.13498 13.001 9.00098 13.001ZM16.4766 14.001C18.9617 14.0011 21 15.3442 21 17.001C21 18.6579 18.9638 20.001 16.4785 20.001C17.2107 19.2006 17.7148 18.1957 17.7148 17.002C17.7147 15.8071 17.21 14.8017 16.4766 14.001ZM9.00098 2C11.2101 2 13.001 3.79086 13.001 6C13.001 8.20914 11.2101 10 9.00098 10C6.79184 10 5.00098 8.20914 5.00098 6C5.00098 3.79086 6.79184 2 9.00098 2ZM15 3.00098C16.6567 3.0012 18 4.34425 18 6.00098C18 7.65769 16.6567 9.00076 15 9.00098C14.6389 9.00098 14.2923 8.93724 13.9717 8.82031C14.4448 7.98826 14.7148 7.02555 14.7148 6C14.7148 4.97527 14.4451 4.01324 13.9727 3.18164C14.2931 3.06492 14.6392 3.00098 15 3.00098Z" fill="#48465C"/>
</svg>
