<svg width="24" height="24" viewBox="0 0 24 24" fill="none" xmlns="http://www.w3.org/2000/svg">
<path d="M6.74023 4.29688C7.03445 4.18817 7.36514 4.27362 7.56934 4.51172L13.5693 11.5117C13.8101 11.7925 13.8101 12.2075 13.5693 12.4883L7.56934 19.4883C7.36514 19.7264 7.03445 19.8118 6.74023 19.7031C6.44589 19.5942 6.25002 19.3139 6.25 19V5C6.25 4.68614 6.44588 4.40576 6.74023 4.29688ZM10.5117 4.43066C10.8262 4.16113 11.2998 4.19735 11.5693 4.51172L17.5693 11.5117C17.8101 11.7926 17.8101 12.2074 17.5693 12.4883L11.5693 19.4883C11.2998 19.8026 10.8262 19.8388 10.5117 19.5693C10.1974 19.2997 10.1611 18.8262 10.4307 18.5117L16.0117 12L10.4307 5.48828C10.1611 5.17384 10.1974 4.70026 10.5117 4.43066Z" fill="#1C274C"/>
</svg>
