<svg width="24" height="24" viewBox="0 0 24 24" fill="none" xmlns="http://www.w3.org/2000/svg">
<path d="M12 2C17.5228 2 22 6.47715 22 12C22 17.5228 17.5228 22 12 22C6.47715 22 2 17.5228 2 12C2 6.47715 6.47715 2 12 2ZM12.21 5.46387C11.9268 5.30952 11.4594 5.12112 10.9648 5.36914C10.4715 5.61673 10.3426 6.10297 10.2959 6.42188C10.2503 6.73436 10.2499 7.13892 10.25 7.57129V10.3984L8.48047 8.92383C8.16227 8.65867 7.68901 8.70135 7.42383 9.01953C7.15868 9.33772 7.20139 9.811 7.51953 10.0762L9.82812 12L7.51953 13.9238C7.20169 14.189 7.15898 14.6614 7.42383 14.9795C7.68901 15.2977 8.16226 15.3414 8.48047 15.0762L10.25 13.6006V16.4277C10.2499 16.8603 10.2502 17.2655 10.2959 17.5781C10.3426 17.8969 10.4717 18.3823 10.9648 18.6299C11.4594 18.8778 11.9267 18.6905 12.21 18.5361C12.4871 18.3851 12.8104 18.1413 13.1553 17.8818L14.6855 16.7305C14.9218 16.5528 15.1606 16.3741 15.333 16.2002C15.5273 16.0042 15.75 15.7054 15.75 15.2822C15.75 14.8591 15.5273 14.5603 15.333 14.3643C15.1606 14.1904 14.9218 14.0116 14.6855 13.834L12.248 12L14.6855 10.166C14.9219 9.98837 15.1605 9.80872 15.333 9.63477C15.5271 9.43888 15.7498 9.14055 15.75 8.71777C15.75 8.29473 15.5272 7.99576 15.333 7.7998C15.1605 7.62583 14.9219 7.44624 14.6855 7.26855L13.1553 6.11719C12.8104 5.85773 12.487 5.6149 12.21 5.46387ZM13.749 15.0059C13.8847 15.1079 13.9925 15.1897 14.083 15.2617L14.1094 15.2822L14.083 15.3027C13.9925 15.3747 13.8847 15.4565 13.749 15.5586L12.2949 16.6523C12.0679 16.8231 11.894 16.9529 11.7559 17.0498C11.7503 16.8803 11.75 16.662 11.75 16.376V13.5029L13.749 15.0059ZM12.2949 7.34766L13.749 8.44141C13.8845 8.54335 13.9926 8.6244 14.083 8.69629L14.1094 8.71777L14.083 8.73828C13.9926 8.8102 13.8846 8.89118 13.749 8.99316L11.75 10.4971V7.62305C11.75 7.33718 11.7503 7.11965 11.7559 6.9502C11.894 7.04708 12.0679 7.17692 12.2949 7.34766Z" fill="#1C274C"/>
</svg>
