<svg width="24" height="24" viewBox="0 0 24 24" fill="none" xmlns="http://www.w3.org/2000/svg">
<path fill-rule="evenodd" clip-rule="evenodd" d="M11.2155 6.28183C11.6123 6.40085 11.8374 6.81897 11.7184 7.21571L11.108 9.2502H14.542L15.2816 6.78469C15.4007 6.38794 15.8188 6.16281 16.2155 6.28183C16.6123 6.40085 16.8374 6.81897 16.7184 7.21571L16.108 9.2502H18C18.4142 9.2502 18.75 9.58599 18.75 10.0002C18.75 10.4144 18.4142 10.7502 18 10.7502H15.658L14.908 13.2502H17C17.4142 13.2502 17.75 13.586 17.75 14.0002C17.75 14.4144 17.4142 14.7502 17 14.7502H14.458L13.7184 17.2157C13.5993 17.6125 13.1812 17.8376 12.7845 17.7186C12.3877 17.5995 12.1626 17.1814 12.2816 16.7847L12.892 14.7502H9.45802L8.71837 17.2157C8.59935 17.6125 8.18123 17.8376 7.78449 17.7186C7.38774 17.5995 7.16261 17.1814 7.28163 16.7847L7.89198 14.7502H6C5.58579 14.7502 5.25 14.4144 5.25 14.0002C5.25 13.586 5.58579 13.2502 6 13.2502H8.34198L9.09198 10.7502H7C6.58579 10.7502 6.25 10.4144 6.25 10.0002C6.25 9.58599 6.58579 9.2502 7 9.2502H9.54198L10.2816 6.78469C10.4007 6.38794 10.8188 6.16281 11.2155 6.28183ZM10.658 10.7502H14.092L13.342 13.2502H9.90802L10.658 10.7502Z" fill="#1C274C"/>
<path fill-rule="evenodd" clip-rule="evenodd" d="M11.9426 1.25C9.63423 1.24999 7.82519 1.24998 6.41371 1.43975C4.96897 1.63399 3.82895 2.03933 2.93414 2.93414C2.03933 3.82895 1.63399 4.96897 1.43975 6.41371C1.24998 7.82519 1.24999 9.63423 1.25 11.9426V12.0574C1.24999 14.3658 1.24998 16.1748 1.43975 17.5863C1.63399 19.031 2.03933 20.1711 2.93414 21.0659C3.82895 21.9607 4.96897 22.366 6.41371 22.5603C7.82519 22.75 9.63423 22.75 11.9426 22.75H12.0574C14.3658 22.75 16.1748 22.75 17.5863 22.5603C19.031 22.366 20.1711 21.9607 21.0659 21.0659C21.9607 20.1711 22.366 19.031 22.5603 17.5863C22.75 16.1748 22.75 14.3658 22.75 12.0574V11.9426C22.75 9.63423 22.75 7.82519 22.5603 6.41371C22.366 4.96897 21.9607 3.82895 21.0659 2.93414C20.1711 2.03933 19.031 1.63399 17.5863 1.43975C16.1748 1.24998 14.3658 1.24999 12.0574 1.25H11.9426ZM3.9948 3.9948C4.56445 3.42514 5.33517 3.09825 6.61358 2.92637C7.91356 2.75159 9.62178 2.75 12 2.75C14.3782 2.75 16.0864 2.75159 17.3864 2.92637C18.6648 3.09825 19.4355 3.42514 20.0052 3.9948C20.5749 4.56445 20.9018 5.33517 21.0736 6.61358C21.2484 7.91356 21.25 9.62178 21.25 12C21.25 14.3782 21.2484 16.0864 21.0736 17.3864C20.9018 18.6648 20.5749 19.4355 20.0052 20.0052C19.4355 20.5749 18.6648 20.9018 17.3864 21.0736C16.0864 21.2484 14.3782 21.25 12 21.25C9.62178 21.25 7.91356 21.2484 6.61358 21.0736C5.33517 20.9018 4.56445 20.5749 3.9948 20.0052C3.42514 19.4355 3.09825 18.6648 2.92637 17.3864C2.75159 16.0864 2.75 14.3782 2.75 12C2.75 9.62178 2.75159 7.91356 2.92637 6.61358C3.09825 5.33517 3.42514 4.56445 3.9948 3.9948Z" fill="#1C274C"/>
</svg>
