<svg width="24" height="24" viewBox="0 0 24 24" fill="none" xmlns="http://www.w3.org/2000/svg">
<path d="M18.8379 18.8389C19.1202 18.5566 19.578 18.5566 19.8604 18.8389L21.7881 20.7666C22.0704 21.049 22.0704 21.5068 21.7881 21.7891C21.5058 22.0711 21.0479 22.0713 20.7656 21.7891L18.8379 19.8613C18.5557 19.5791 18.5558 19.1212 18.8379 18.8389ZM11.1562 2C16.2132 2 20.3133 6.09937 20.3135 11.1562C20.3135 16.2133 16.2133 20.3135 11.1562 20.3135C6.09937 20.3133 2 16.2132 2 11.1562C2.00019 6.09949 6.09949 2.00019 11.1562 2ZM11 6.5C9.85918 6.5 8.84329 7.03207 8.18945 7.86035L7.50977 7.52246C7.15704 7.34708 6.72826 7.4891 6.55176 7.83984C6.37536 8.19078 6.51835 8.61744 6.87109 8.79297L7.5498 9.13086C7.47066 9.42476 7.42871 9.73402 7.42871 10.0527V10.2891H6.71387C6.31957 10.2893 6 10.6077 6 11C6 11.3923 6.31957 11.7107 6.71387 11.7109H7.42871V11.9473C7.42871 12.266 7.47066 12.5752 7.5498 12.8691L6.87109 13.207C6.51835 13.3826 6.37536 13.8092 6.55176 14.1602C6.72825 14.5108 7.15703 14.6529 7.50977 14.4775L8.18945 14.1396C8.84329 14.9679 9.85919 15.5 11 15.5C12.1408 15.5 13.1567 14.9679 13.8105 14.1396L14.4902 14.4775C14.8429 14.6529 15.2718 14.5108 15.4482 14.1602C15.6246 13.8092 15.4816 13.3826 15.1289 13.207L14.4502 12.8691C14.5293 12.5752 14.5713 12.266 14.5713 11.9473V11.7109H15.2861C15.6804 11.7107 16 11.3923 16 11C16 10.6077 15.6804 10.2893 15.2861 10.2891H14.5713V10.0527C14.5713 9.73402 14.5293 9.42476 14.4502 9.13086L15.1289 8.79297C15.4816 8.61745 15.6246 8.19079 15.4482 7.83984C15.2718 7.4891 14.8429 7.34708 14.4902 7.52246L13.8105 7.86035C13.1567 7.03207 12.1408 6.5 11 6.5ZM10.2861 13.958C10.1301 13.9031 9.98181 13.8306 9.84473 13.7432C9.57043 13.5682 9.33877 13.3327 9.16895 13.0557C9.11237 12.9634 9.06267 12.8664 9.02051 12.7656C8.93627 12.5642 8.88258 12.3472 8.86426 12.1201C8.85966 12.0631 8.85742 12.0054 8.85742 11.9473V10.7627H10.2861V13.958ZM13.1426 11.9473C13.1426 12.0054 13.1403 12.0631 13.1357 12.1201C13.1174 12.3472 13.0637 12.5642 12.9795 12.7656C12.9373 12.8664 12.8876 12.9634 12.8311 13.0557C12.6046 13.4251 12.2682 13.7207 11.8672 13.8975C11.8172 13.9195 11.7657 13.9398 11.7139 13.958V10.7627H13.1426V11.9473ZM11 7.9209C11.0582 7.9209 11.1158 7.92321 11.1729 7.92773C11.4017 7.94591 11.6203 7.99992 11.8232 8.08398C11.9244 8.12589 12.0216 8.17526 12.1143 8.23145C12.5317 8.48475 12.855 8.87617 13.0205 9.3418H8.97949C8.99787 9.29011 9.01786 9.23922 9.04004 9.18945C9.21767 8.79087 9.51461 8.45663 9.88574 8.23145C9.97835 8.17526 10.0756 8.12589 10.1768 8.08398C10.4302 7.97898 10.7083 7.9209 11 7.9209Z" fill="#1C274C"/>
</svg>
