<svg width="24" height="24" viewBox="0 0 24 24" fill="none" xmlns="http://www.w3.org/2000/svg">
<path d="M5.00779 4.4062C6.68782 2.72646 9.52252 2.85437 10.6924 4.95014L11.3418 6.11323C12.1056 7.4819 11.7801 9.20877 10.6621 10.3408C10.6472 10.3612 10.5675 10.4769 10.5576 10.6777C10.5452 10.9342 10.6372 11.5266 11.5547 12.4443C12.4729 13.3625 13.0658 13.4538 13.3222 13.4414C13.5225 13.4316 13.6372 13.3531 13.6582 13.3378C14.7902 12.2195 16.5179 11.8943 17.8867 12.6582L19.0498 13.3076C21.1455 14.4775 21.2735 17.3121 19.5937 18.9921C18.6951 19.8908 17.4998 20.6889 16.0957 20.7421C14.0148 20.821 10.5595 20.284 7.13767 16.8623C3.71588 13.4405 3.17793 9.98518 3.25682 7.90425C3.31007 6.50007 4.10914 5.30485 5.00779 4.4062ZM9.38279 5.68159C8.78382 4.60833 7.17416 4.36119 6.06834 5.46675C5.29306 6.24202 4.78863 7.0982 4.75584 7.96089C4.69005 9.69623 5.11885 12.7223 8.19822 15.8017C11.2776 18.881 14.3037 19.3099 16.039 19.2441C16.9016 19.2113 17.7571 18.7067 18.5322 17.9316C19.6381 16.8257 19.3917 15.2161 18.3183 14.6171L17.1553 13.9677C16.432 13.5643 15.4163 13.7021 14.7031 14.415C14.633 14.485 14.1868 14.9018 13.3955 14.9404C12.5853 14.9798 11.6039 14.6156 10.4941 13.5058C9.3839 12.3956 9.01988 11.4138 9.05955 10.6035C9.09845 9.81221 9.51531 9.36647 9.58494 9.29682C10.2978 8.58368 10.4355 7.56793 10.0322 6.84467L9.38279 5.68159ZM14.1211 1.25971C14.1463 1.26455 14.2277 1.27951 14.2705 1.28901C14.3557 1.308 14.4748 1.33764 14.623 1.38081C14.9198 1.46723 15.3346 1.6098 15.832 1.83784C16.8283 2.2946 18.1545 3.09387 19.5303 4.46967C20.9059 5.84536 21.7053 7.17071 22.1621 8.16694C22.3901 8.66445 22.5326 9.07916 22.6191 9.37592C22.6623 9.52412 22.6919 9.64317 22.7109 9.72846C22.7204 9.771 22.7265 9.80572 22.7314 9.831L22.7373 9.86225C22.8035 10.2711 22.529 10.6739 22.1201 10.7402C21.7123 10.8062 21.3285 10.5299 21.2607 10.123C21.2586 10.112 21.2523 10.0823 21.2461 10.0546C21.2338 9.99924 21.2125 9.91163 21.1787 9.79585C21.1111 9.56352 20.9939 9.21762 20.7988 8.79194C20.4089 7.94167 19.7074 6.76797 18.4697 5.53022C17.2318 4.29236 16.0573 3.59095 15.207 3.20112C14.7815 3.00608 14.4363 2.8889 14.2041 2.82124C14.088 2.78745 13.9422 2.75352 13.8867 2.74116C13.4798 2.67333 13.1938 2.28753 13.2597 1.87983C13.3259 1.47104 13.7123 1.19371 14.1211 1.25971ZM13.4863 5.32905C13.6002 4.93095 14.0149 4.70069 14.4131 4.8144H14.415L14.416 4.81538L14.4277 4.81831L14.4472 4.82417C14.4623 4.82898 14.4814 4.83575 14.5039 4.8437C14.5487 4.85963 14.6081 4.88194 14.6806 4.91303C14.8262 4.97545 15.0251 5.07211 15.2695 5.21675C15.7589 5.50638 16.4272 5.98766 17.2119 6.77241C17.9969 7.55739 18.4788 8.2263 18.7685 8.71577C18.913 8.96 19.0089 9.15905 19.0713 9.30464C19.1024 9.37731 19.1257 9.43651 19.1416 9.48139C19.1496 9.50384 19.1563 9.52295 19.1611 9.53803L19.167 9.55757L19.1699 9.56928L19.1709 9.57026C19.1709 9.57026 19.171 9.57229 18.4502 9.77827L19.1709 9.57221C19.2844 9.97027 19.0542 10.385 18.6562 10.499C18.2613 10.6118 17.8493 10.3862 17.7314 9.99409L17.7275 9.98335C17.7222 9.9683 17.7118 9.93853 17.6933 9.89546C17.6563 9.80914 17.5891 9.66795 17.4775 9.47944C17.2545 9.1027 16.8512 8.53292 16.1513 7.83296C15.4516 7.1333 14.8826 6.7307 14.5058 6.50776C14.3173 6.3962 14.1761 6.32895 14.0898 6.29194C14.0466 6.27343 14.0169 6.26211 14.0019 6.25678L13.9912 6.25385C13.5991 6.13597 13.3735 5.72394 13.4863 5.32905Z" fill="#1C274C"/>
</svg>
