<svg width="24" height="24" viewBox="0 0 24 24" fill="none" xmlns="http://www.w3.org/2000/svg">
<path d="M17.3094 4.25098C18.9255 4.34056 20.5182 5.00385 21.7528 6.23926C24.4155 8.9038 24.4155 13.2231 21.7528 15.8877L18.8915 18.751C16.2284 21.4158 11.9101 21.4158 9.24695 18.751C6.58416 16.0864 6.58407 11.7661 9.24695 9.10156L10.6776 7.66992C10.9704 7.37715 11.4452 7.37735 11.7382 7.66992C12.0311 7.96262 12.0316 8.43746 11.7391 8.73047L10.3085 10.1621C8.23087 12.2409 8.23087 15.6116 10.3085 17.6904C12.3858 19.7691 15.7535 19.7691 17.8309 17.6904L20.6923 14.8281C22.7698 12.7492 22.7698 9.3777 20.6923 7.29883C19.7286 6.3345 18.488 5.81798 17.2264 5.74805C16.8131 5.72494 16.4965 5.37147 16.5194 4.95801C16.5424 4.54462 16.8961 4.22829 17.3094 4.25098ZM5.10828 5.24805C7.77144 2.5833 12.0896 2.58331 14.7528 5.24805C17.4157 7.91264 17.4157 12.2329 14.7528 14.8975L13.3221 16.3291C13.0293 16.6219 12.5544 16.6218 12.2616 16.3291C11.9686 16.0363 11.9688 15.5615 12.2616 15.2686L13.6923 13.8369C15.7694 11.7581 15.7695 8.38738 13.6923 6.30859C11.615 4.23004 8.24715 4.23019 6.1698 6.30859L3.30847 9.17188C1.23092 11.2508 1.23089 14.6213 3.30847 16.7002C4.27217 17.6643 5.51182 18.181 6.77332 18.251C7.18678 18.274 7.50321 18.6275 7.48035 19.041C7.45742 19.4546 7.10381 19.771 6.69031 19.748C5.07421 19.6585 3.48157 18.9961 2.24695 17.7607C-0.415921 15.0962 -0.415793 10.776 2.24695 8.11133L5.10828 5.24805Z" fill="#1C274C"/>
</svg>
