<svg width="24" height="24" viewBox="0 0 24 24" fill="none" xmlns="http://www.w3.org/2000/svg">
<path d="M18 13.25C20.0711 13.25 21.75 14.9289 21.75 17C21.75 17.7643 21.5215 18.4756 21.1289 19.0684L22.0303 19.9697C22.3232 20.2626 22.3232 20.7374 22.0303 21.0303C21.7374 21.3232 21.2626 21.3232 20.9697 21.0303L20.0684 20.1289C19.4756 20.5215 18.7643 20.75 18 20.75C15.9289 20.75 14.25 19.0711 14.25 17C14.25 14.9289 15.9289 13.25 18 13.25ZM14.0566 3.25C15.8943 3.24998 17.3501 3.25016 18.4893 3.40332C19.6615 3.56095 20.6101 3.89332 21.3584 4.6416C22.1066 5.38992 22.439 6.33844 22.5967 7.51074C22.6871 8.18355 22.7242 8.96695 22.7393 9.87402C22.7462 9.9149 22.75 9.95716 22.75 10C22.75 10.0352 22.7478 10.0696 22.7432 10.1035C22.7503 10.6691 22.75 11.2817 22.75 11.9434V13C22.75 13.4142 22.4142 13.75 22 13.75C21.5858 13.75 21.25 13.4142 21.25 13V12C21.25 11.5541 21.2499 11.1384 21.248 10.75H2.75195C2.75005 11.1384 2.75 11.5541 2.75 12C2.75 13.9067 2.7515 15.2614 2.88965 16.2891C3.02491 17.2951 3.27894 17.8747 3.70215 18.2979C4.12536 18.7211 4.70485 18.9752 5.71094 19.1104C6.73858 19.2485 8.09325 19.25 10 19.25H13C13.4142 19.25 13.75 19.5858 13.75 20C13.75 20.4142 13.4142 20.75 13 20.75H9.94336C8.10571 20.75 6.6499 20.7498 5.51074 20.5967C4.33845 20.439 3.38991 20.1066 2.6416 19.3584C1.89332 18.6101 1.56095 17.6615 1.40332 16.4893C1.25016 15.3501 1.24998 13.8943 1.25 12.0566V11.9434C1.24999 11.2817 1.24969 10.6691 1.25684 10.1035C1.25216 10.0696 1.25 10.0351 1.25 10C1.25 9.95716 1.25384 9.9149 1.26074 9.87402C1.2759 8.96696 1.31286 8.18355 1.40332 7.51074C1.56095 6.33844 1.8933 5.38992 2.6416 4.6416C3.38992 3.8933 4.33844 3.56095 5.51074 3.40332C6.64991 3.25016 8.10571 3.24998 9.94336 3.25H14.0566ZM18 14.75C16.7574 14.75 15.75 15.7574 15.75 17C15.75 18.2426 16.7574 19.25 18 19.25C19.2426 19.25 20.25 18.2426 20.25 17C20.25 15.7574 19.2426 14.75 18 14.75ZM10 15.25C10.4142 15.25 10.75 15.5858 10.75 16C10.75 16.4142 10.4142 16.75 10 16.75H6C5.58579 16.75 5.25 16.4142 5.25 16C5.25 15.5858 5.58579 15.25 6 15.25H10ZM10 4.75C8.09324 4.75 6.73858 4.75149 5.71094 4.88965C4.70485 5.02491 4.12536 5.27894 3.70215 5.70215C3.27894 6.12536 3.02491 6.70485 2.88965 7.71094C2.82977 8.1564 2.79594 8.66332 2.77637 9.25H21.2236C21.2041 8.66332 21.1702 8.1564 21.1104 7.71094C20.9752 6.70485 20.7211 6.12536 20.2979 5.70215C19.8747 5.27894 19.2951 5.02491 18.2891 4.88965C17.2614 4.7515 15.9067 4.75 14 4.75H10Z" fill="#1C274C"/>
</svg>
