<svg width="24" height="24" viewBox="0 0 24 24" fill="none" xmlns="http://www.w3.org/2000/svg">
<path d="M14 3.25C15.7576 3.25 17.331 4.0386 18.3857 5.28125C19.7565 5.3445 20.849 5.54627 21.6514 6.34863C22.2533 6.95055 22.5128 7.70829 22.6338 8.6084C22.7503 9.47534 22.75 10.5778 22.75 11.9453V12.0547C22.75 13.4222 22.7503 14.5246 22.6338 15.3916C22.5128 16.2917 22.2533 17.0494 21.6514 17.6514C21.0494 18.2533 20.2917 18.5128 19.3916 18.6338C19.3191 18.6435 19.2448 18.652 19.1689 18.6602L19.6709 19.665C19.8559 20.0355 19.7053 20.4858 19.335 20.6709C18.9645 20.8559 18.5142 20.7053 18.3291 20.335L17.5332 18.7432C17.0794 18.7501 16.587 18.75 16.0547 18.75H7.94531C7.41298 18.75 6.92051 18.7501 6.4668 18.7432L5.6709 20.335C5.48572 20.7053 5.03544 20.8559 4.66504 20.6709C4.29469 20.4858 4.14416 20.0355 4.3291 19.665L4.83105 18.6602C4.7552 18.652 4.68094 18.6435 4.6084 18.6338C3.70829 18.5128 2.95055 18.2533 2.34863 17.6514C1.74673 17.0494 1.48723 16.2917 1.36621 15.3916C1.24968 14.5246 1.24998 13.4222 1.25 12.0547V11.9453C1.24998 10.5778 1.24968 9.47534 1.36621 8.6084C1.48723 7.70829 1.74671 6.95055 2.34863 6.34863C2.95055 5.74671 3.70829 5.48723 4.6084 5.36621C5.47534 5.24968 6.57782 5.24998 7.94531 5.25H9.64062C10.6951 4.02538 12.2572 3.25 14 3.25ZM8 6.75C6.56484 6.75 5.5639 6.75201 4.80859 6.85352C4.07482 6.95217 3.68594 7.13242 3.40918 7.40918C3.13242 7.68594 2.95217 8.07482 2.85352 8.80859C2.75201 9.5639 2.75 10.5649 2.75 12C2.75 13.4354 2.75196 14.437 2.85352 15.1924C2.95218 15.9258 3.13249 16.3141 3.40918 16.5908C3.68594 16.8676 4.07482 17.0478 4.80859 17.1465C5.5639 17.2479 6.56484 17.25 8 17.25H16C17.4354 17.25 18.437 17.248 19.1924 17.1465C19.9258 17.0478 20.3141 16.8676 20.5908 16.5908C20.8676 16.3141 21.0478 15.9258 21.1465 15.1924C21.248 14.437 21.25 13.4354 21.25 12C21.25 10.5649 21.2479 9.5639 21.1465 8.80859C21.0478 8.07481 20.8676 7.68594 20.5908 7.40918C20.3288 7.14715 19.9738 6.97686 19.3447 6.87598C19.606 7.53302 19.75 8.24986 19.75 9C19.75 12.1756 17.1756 14.75 14 14.75C10.8244 14.75 8.25 12.1756 8.25 9C8.25 8.20153 8.41289 7.44108 8.70703 6.75H8ZM14 4.75C12.6166 4.75 11.3873 5.41116 10.6113 6.43457C10.6039 6.44503 10.5958 6.45577 10.5879 6.46582C10.0615 7.1734 9.75 8.05032 9.75 9C9.75 11.3472 11.6528 13.25 14 13.25C16.3472 13.25 18.25 11.3472 18.25 9C18.25 8.08928 17.9633 7.24544 17.4756 6.55371C17.4199 6.49931 17.3725 6.43647 17.3359 6.36719C16.5575 5.38233 15.3528 4.75 14 4.75ZM5.5 8.75C5.91417 8.75 6.24995 9.08582 6.25 9.5V11C6.25005 11.4142 5.91422 11.7499 5.5 11.75C5.08592 11.7499 4.75005 11.4141 4.75 11V9.5C4.75 9.08583 5.08582 8.75005 5.5 8.75ZM14 6.25C15.5188 6.25 16.75 7.48122 16.75 9C16.75 10.5188 15.5188 11.75 14 11.75C12.4812 11.75 11.25 10.5188 11.25 9C11.25 8.58579 11.5858 8.25 12 8.25C12.4142 8.25 12.75 8.58579 12.75 9C12.75 9.69036 13.3096 10.25 14 10.25C14.6904 10.25 15.25 9.69036 15.25 9C15.25 8.30964 14.6904 7.75 14 7.75C13.5858 7.75 13.25 7.41421 13.25 7C13.25 6.58579 13.5858 6.25 14 6.25Z" fill="#48465C"/>
</svg>
