<svg width="24" height="24" viewBox="0 0 24 24" fill="none" xmlns="http://www.w3.org/2000/svg">
<path d="M7 1.25C7.41421 1.25 7.75 1.58579 7.75 2V3.75H8.04492C8.47767 3.74995 8.8745 3.74957 9.19727 3.79297C9.55274 3.84076 9.92832 3.95368 10.2373 4.2627C10.5464 4.57172 10.6592 4.94727 10.707 5.30273C10.7504 5.62551 10.7501 6.02233 10.75 6.45508V7.88184C10.8169 7.93481 10.8816 7.99288 10.9443 8.05566C11.3997 8.51102 11.5855 9.07748 11.6699 9.70508C11.7282 10.1386 11.7438 10.6545 11.748 11.25H12.25V7.70996C12.25 6.45163 12.2495 5.42258 12.3652 4.6377C12.4853 3.82401 12.753 3.09773 13.4336 2.62598C14.1145 2.15415 14.8892 2.15856 15.6934 2.33203C16.4687 2.49933 17.4315 2.861 18.6094 3.30273L18.7061 3.33887C19.3014 3.56209 19.8055 3.75122 20.2012 3.95215C20.622 4.16584 20.9864 4.42345 21.2607 4.81934C21.5351 5.21534 21.6489 5.64698 21.7012 6.11621C21.7503 6.5574 21.75 7.09552 21.75 7.73145V21.25H22C22.4142 21.25 22.75 21.5858 22.75 22C22.75 22.4142 22.4142 22.75 22 22.75H2C1.58579 22.75 1.25 22.4142 1.25 22C1.25 21.5858 1.58579 21.25 2 21.25H2.25V11.9482C2.24997 11.0497 2.25011 10.2999 2.33008 9.70508C2.41452 9.07747 2.6003 8.51102 3.05566 8.05566C3.11843 7.99288 3.18313 7.93481 3.25 7.88184V6.45508C3.24995 6.02233 3.24957 5.6255 3.29297 5.30273C3.34076 4.94726 3.45368 4.57172 3.7627 4.2627C4.07172 3.95368 4.44726 3.84076 4.80273 3.79297C5.1255 3.74957 5.52233 3.74995 5.95508 3.75H6.25V2C6.25 1.58579 6.58579 1.25 7 1.25ZM7 8.75C6.03599 8.75 5.38831 8.75146 4.90527 8.81641C4.44388 8.87845 4.24651 8.9859 4.11621 9.11621C3.9859 9.24651 3.87845 9.44388 3.81641 9.90527C3.75146 10.3883 3.75 11.036 3.75 12V21.25H6.25V15.9482C6.24997 15.0497 6.25012 14.2999 6.33008 13.7051C6.41452 13.0775 6.6003 12.511 7.05566 12.0557C7.51102 11.6003 8.07748 11.4145 8.70508 11.3301C9.13807 11.2719 9.65335 11.2563 10.248 11.252C10.2438 10.6818 10.2301 10.2511 10.1836 9.90527C10.1215 9.44389 10.0141 9.24651 9.88379 9.11621C9.75349 8.9859 9.55612 8.87845 9.09473 8.81641C8.61169 8.75146 7.96401 8.75 7 8.75ZM11 12.75C10.036 12.75 9.38831 12.7515 8.90527 12.8164C8.44389 12.8785 8.24651 12.9859 8.11621 13.1162C7.98591 13.2465 7.87845 13.4439 7.81641 13.9053C7.75146 14.3883 7.75 15.036 7.75 16V21.25H16.25V16C16.25 15.036 16.2485 14.3883 16.1836 13.9053C16.1215 13.4439 16.0141 13.2465 15.8838 13.1162C15.7535 12.9859 15.5561 12.8785 15.0947 12.8164C14.6117 12.7515 13.964 12.75 13 12.75H11ZM15.377 3.79883C14.7384 3.66111 14.4681 3.73375 14.2881 3.8584C14.1081 3.9831 13.9448 4.21035 13.8496 4.85645C13.752 5.51895 13.75 6.43685 13.75 7.77246V11.252C14.3455 11.2562 14.8614 11.2718 15.2949 11.3301C15.9225 11.4145 16.489 11.6003 16.9443 12.0557C17.3997 12.511 17.5855 13.0775 17.6699 13.7051C17.7499 14.2999 17.75 15.0497 17.75 15.9482V21.25H20.25V7.77246C20.25 7.08525 20.2488 6.6306 20.21 6.28223C20.1733 5.95268 20.109 5.79173 20.0273 5.67383C19.9456 5.55596 19.8172 5.43915 19.5215 5.28906C19.2091 5.13047 18.7846 4.96966 18.1416 4.72852C16.8912 4.25965 16.0315 3.94007 15.377 3.79883ZM14 17.25C14.4142 17.25 14.75 17.5858 14.75 18C14.75 18.4142 14.4142 18.75 14 18.75H10C9.58579 18.75 9.25 18.4142 9.25 18C9.25 17.5858 9.58579 17.25 10 17.25H14ZM14 14.25C14.4142 14.25 14.75 14.5858 14.75 15C14.75 15.4142 14.4142 15.75 14 15.75H10C9.58579 15.75 9.25 15.4142 9.25 15C9.25 14.5858 9.58579 14.25 10 14.25H14ZM6 5.25C5.50756 5.25 5.21364 5.25197 5.00293 5.28027C4.90638 5.29326 4.85772 5.30842 4.83594 5.31738C4.83095 5.31943 4.82711 5.32126 4.8252 5.32227L4.82324 5.32324L4.82227 5.3252C4.82126 5.32711 4.81943 5.33095 4.81738 5.33594C4.80842 5.35772 4.79326 5.40638 4.78027 5.50293C4.75197 5.71364 4.75 6.00756 4.75 6.5V7.32422C5.33751 7.25005 6.07201 7.24997 6.94824 7.25H7.05176C7.92799 7.24997 8.66249 7.25005 9.25 7.32422V6.5C9.25 6.00756 9.24803 5.71364 9.21973 5.50293C9.20674 5.40638 9.19158 5.35772 9.18262 5.33594C9.18057 5.33095 9.17874 5.32711 9.17773 5.3252L9.17676 5.32324L9.1748 5.32227C9.17289 5.32126 9.16905 5.31943 9.16406 5.31738C9.14228 5.30842 9.09362 5.29326 8.99707 5.28027C8.78636 5.25197 8.49244 5.25 8 5.25H6Z" fill="#1C274C"/>
</svg>
