<svg width="24" height="24" viewBox="0 0 24 24" fill="none" xmlns="http://www.w3.org/2000/svg">
<path d="M3.53737 6.9375C4.93032 5.54455 7.15295 5.73168 8.03737 7.31641L8.68679 8.47949C9.27221 9.52892 9.03688 10.9057 8.11452 11.8281C8.0957 11.8472 7.01345 12.9643 9.02468 14.9756C11.036 16.9868 12.1533 15.9043 12.1721 15.8857C13.0946 14.9633 14.4713 14.7278 15.5208 15.3135L16.6839 15.9619C18.2686 16.8463 18.4555 19.0689 17.0628 20.4619C16.2258 21.2989 15.2002 21.9503 14.0667 21.9932C12.1585 22.0655 8.91772 21.5825 5.66725 18.332C2.417 15.0815 1.93378 11.8407 2.00612 9.93262C2.04924 8.79946 2.70064 7.77432 3.53737 6.9375ZM17.0003 2C19.7615 2.00015 22.0003 4.23867 22.0003 7C22.0003 9.76133 19.7615 11.9998 17.0003 12C16.2005 12 15.4441 11.8124 14.7737 11.4785C14.5955 11.3897 14.3918 11.3597 14.1995 11.4111L13.0862 11.709C12.6032 11.8379 12.161 11.3962 12.2903 10.9131L12.5882 9.80078C12.6395 9.6086 12.6104 9.40465 12.5217 9.22656C12.1878 8.55614 12.0003 7.79984 12.0003 7C12.0003 4.23858 14.2389 2 17.0003 2ZM17.0003 4.8125C16.4825 4.8125 16.0628 5.23223 16.0628 5.75V6.0625H15.7503C15.2325 6.0625 14.8128 6.48223 14.8128 7C14.8128 7.51777 15.2325 7.9375 15.7503 7.9375H16.0628V8.25C16.0628 8.76777 16.4825 9.1875 17.0003 9.1875C17.5179 9.18735 17.9378 8.76768 17.9378 8.25V7.9375H18.2503C18.7679 7.93735 19.1878 7.51768 19.1878 7C19.1878 6.48232 18.7679 6.06265 18.2503 6.0625H17.9378V5.75C17.9378 5.23232 17.5179 4.81265 17.0003 4.8125Z" fill="#1C274C"/>
</svg>
