<svg width="24" height="24" viewBox="0 0 24 24" fill="none" xmlns="http://www.w3.org/2000/svg">
<path d="M12 2C16.714 2 19.0708 2.00037 20.5352 3.46484C21.9996 4.9293 22 7.28597 22 12C22 16.714 21.9997 19.0708 20.5352 20.5352C19.0708 21.9997 16.714 22 12 22C7.28597 22 4.9293 21.9996 3.46484 20.5352C2.00037 19.0708 2 16.714 2 12C2 7.28595 2.00037 4.9293 3.46484 3.46484C4.9293 2.00037 7.28595 2 12 2ZM12.1387 5.96973C11.8744 5.82616 11.4224 5.64156 10.9414 5.88184C10.4602 6.12244 10.3367 6.59502 10.293 6.89258C10.2504 7.1832 10.2499 7.55771 10.25 7.9502V10.3984L8.48047 8.92383C8.16234 8.65873 7.68905 8.70155 7.42383 9.01953C7.15873 9.33765 7.20157 9.81093 7.51953 10.0762L9.82812 12L7.51953 13.9238C7.20148 14.1891 7.15871 14.6623 7.42383 14.9805C7.68903 15.2986 8.16231 15.3412 8.48047 15.0762L10.25 13.6016V16.0508C10.2499 16.4432 10.2504 16.8179 10.293 17.1084C10.3367 17.406 10.4605 17.8777 10.9414 18.1182C11.4225 18.3585 11.8744 18.1748 12.1387 18.0312C12.3966 17.891 12.6959 17.6662 13.0098 17.4307L14.417 16.375C14.632 16.2139 14.8542 16.0471 15.0156 15.8848C15.1985 15.7006 15.417 15.4121 15.417 15C15.417 14.5879 15.1985 14.2993 15.0156 14.1152C14.8542 13.9529 14.632 13.7862 14.417 13.625L12.25 12L14.417 10.375C14.632 10.2139 14.8542 10.0471 15.0156 9.88477C15.1985 9.70065 15.417 9.41205 15.417 9C15.417 8.58792 15.1985 8.29934 15.0156 8.11523C14.8542 7.95287 14.632 7.78617 14.417 7.625L13.0098 6.57031C12.6959 6.33482 12.3967 6.11003 12.1387 5.96973ZM11.791 16.96V16.9619C11.791 16.9619 11.79 16.9601 11.7891 16.957L11.791 16.96ZM13.4834 14.7998C13.5878 14.8782 13.6736 14.9428 13.7471 15C13.6736 15.0572 13.5878 15.1218 13.4834 15.2002L12.1504 16.2002C11.9909 16.3198 11.8608 16.4162 11.7529 16.4941C11.7505 16.3611 11.75 16.1993 11.75 16V13.5L13.4834 14.7998ZM12.1504 7.7998L13.4834 8.7998C13.5877 8.87812 13.6736 8.94284 13.7471 9C13.6736 9.05717 13.5878 9.12185 13.4834 9.2002L11.75 10.5V8C11.75 7.80069 11.7505 7.63889 11.7529 7.50586C11.8608 7.58376 11.9909 7.6802 12.1504 7.7998Z" fill="#1C274C"/>
</svg>
