<svg width="24" height="24" viewBox="0 0 24 24" fill="none" xmlns="http://www.w3.org/2000/svg">
<path d="M18.1211 2.37793C19.2742 2.15093 20.2976 2.18423 21.1758 2.81934C22.0499 3.45156 22.4144 4.41617 22.584 5.59277C22.7497 6.7423 22.75 8.25923 22.75 10.1689V15.9375C22.75 17.333 22.7501 18.4551 22.6338 19.3369C22.5134 20.2503 22.2556 21.018 21.6562 21.6289C21.055 22.2419 20.2963 22.5072 19.3936 22.6309C18.5256 22.7497 17.4224 22.75 16.0557 22.75H7.94434C6.57757 22.75 5.47435 22.7497 4.60645 22.6309C3.70368 22.5072 2.94505 22.2419 2.34375 21.6289C1.74442 21.018 1.48668 20.2503 1.36621 19.3369C1.24994 18.4551 1.24998 17.3331 1.25 15.9375V13.0439C1.24999 12.0325 1.2505 11.2117 1.32422 10.5469C1.40103 9.8544 1.5633 9.25644 1.9375 8.71875C2.31249 8.17996 2.81483 7.82318 3.43457 7.51855C3.67966 7.39809 3.95381 7.28159 4.25684 7.16211C4.25232 7.12884 4.25 7.09408 4.25 7.05957V7.01953C4.24998 6.40189 4.25003 5.87702 4.29688 5.45312C4.34632 5.0058 4.45599 4.57871 4.73926 4.20215C4.86547 4.0344 5.01247 3.88326 5.17773 3.75391C5.55079 3.46193 5.97612 3.34889 6.41992 3.29785C6.83798 3.24979 7.3542 3.24997 7.95801 3.25H8.90723C9.32573 3.2496 9.67732 3.24882 9.98535 3.33301C10.6459 3.51365 11.1853 3.96831 11.4873 4.56543L13.8271 3.73047C15.5927 3.10052 16.9992 2.59883 18.1211 2.37793ZM20.2969 4.03516C19.9109 3.75602 19.392 3.65651 18.4111 3.84961C17.4121 4.04627 16.1109 4.50902 14.2695 5.16602L6.26953 8.02051C5.28308 8.37248 4.60256 8.61609 4.0957 8.86523C3.60689 9.10554 3.34715 9.3201 3.16895 9.57617C2.98997 9.83341 2.87594 10.1576 2.81445 10.7119C2.75094 11.2845 2.75 12.0221 2.75 13.0869V15.8838C2.75 17.3458 2.75172 18.3684 2.85352 19.1406C2.95273 19.8929 3.13471 20.2944 3.41406 20.5791C3.69137 20.8618 4.07885 21.0443 4.80957 21.1445C5.56376 21.2478 6.56418 21.25 8 21.25H16C17.4358 21.25 18.4362 21.2478 19.1904 21.1445C19.9212 21.0443 20.3086 20.8618 20.5859 20.5791C20.8653 20.2944 21.0473 19.8929 21.1465 19.1406C21.2483 18.3684 21.25 17.3458 21.25 15.8838V10.2324C21.25 8.24525 21.2479 6.83746 21.0996 5.80762C20.9532 4.79253 20.6865 4.31716 20.2969 4.03516ZM15.4697 9.46973C15.7626 9.17691 16.2374 9.17691 16.5303 9.46973C16.8232 9.76259 16.8231 10.2374 16.5303 10.5303L15.5117 11.5488C15.6029 11.7733 15.6558 12.0111 15.6885 12.2539C15.7502 12.7126 15.75 13.2864 15.75 13.9512V14.0498C15.75 14.7145 15.7502 15.2875 15.6885 15.7461C15.6558 15.9889 15.6029 16.2267 15.5117 16.4512L16.5303 17.4697C16.8232 17.7626 16.8231 18.2374 16.5303 18.5303C16.2374 18.8232 15.7626 18.8232 15.4697 18.5303L14.4512 17.5117C14.2267 17.6029 13.9889 17.6558 13.7461 17.6885C13.2875 17.7502 12.7144 17.75 12.0498 17.75H11.9502C11.2856 17.75 10.7125 17.7502 10.2539 17.6885C10.0111 17.6558 9.77336 17.6029 9.54883 17.5117L8.53027 18.5303C8.23738 18.8232 7.76262 18.8232 7.46973 18.5303C7.17689 18.2374 7.17685 17.7626 7.46973 17.4697L8.48828 16.4512C8.39711 16.2267 8.34416 15.9889 8.31152 15.7461C8.24985 15.2875 8.24996 14.7146 8.25 14.0498V13.9512C8.24996 13.2864 8.24984 12.7126 8.31152 12.2539C8.34418 12.0111 8.39708 11.7733 8.48828 11.5488L7.46973 10.5303C7.17689 10.2374 7.17685 9.7626 7.46973 9.46973C7.7626 9.17693 8.2374 9.17693 8.53027 9.46973L9.54883 10.4883C9.77335 10.3971 10.0111 10.3442 10.2539 10.3115C10.7125 10.2498 11.2856 10.25 11.9502 10.25H12.0498C12.7144 10.25 13.2875 10.2498 13.7461 10.3115C13.9889 10.3442 14.2267 10.3971 14.4512 10.4883L15.4697 9.46973ZM12 11.75C11.2718 11.75 10.801 11.7513 10.4541 11.7979C10.129 11.8416 10.0269 11.9126 9.96973 11.9697C9.91264 12.0268 9.84159 12.1288 9.79785 12.4541C9.75122 12.801 9.75 13.2718 9.75 14C9.75 14.7281 9.75125 15.199 9.79785 15.5459C9.84158 15.8711 9.91265 15.9732 9.96973 16.0303C10.0269 16.0874 10.1288 16.1583 10.4541 16.2021C10.801 16.2487 11.2718 16.25 12 16.25C12.7282 16.25 13.199 16.2487 13.5459 16.2021C13.8712 16.1583 13.9732 16.0874 14.0303 16.0303C14.0874 15.9732 14.1584 15.8711 14.2021 15.5459C14.2487 15.199 14.25 14.7281 14.25 14C14.25 13.2718 14.2487 12.801 14.2021 12.4541C14.1583 12.1288 14.0874 12.0268 14.0303 11.9697C13.9732 11.9126 13.8711 11.8416 13.5459 11.7979C13.199 11.7513 12.7282 11.75 12 11.75ZM8 4.75C7.34251 4.75 6.91297 4.75105 6.59082 4.78809C6.2851 4.82329 6.17013 4.88265 6.10254 4.93555C6.04103 4.98369 5.98532 5.03997 5.9375 5.10352C5.88265 5.17643 5.82318 5.30065 5.78809 5.61816C5.76031 5.86954 5.7529 6.18349 5.75098 6.6123L10.0449 5.08105C9.92785 4.93553 9.7687 4.82925 9.58984 4.78027C9.50331 4.75662 9.37463 4.75 8.81836 4.75H8Z" fill="#48465C"/>
</svg>
