<svg width="24" height="24" viewBox="0 0 24 24" fill="none" xmlns="http://www.w3.org/2000/svg">
<path d="M12 2C17.5228 2 22 6.47715 22 12C22 17.5228 17.5228 22 12 22C6.47715 22 2 17.5228 2 12C2 6.47715 6.47715 2 12 2ZM11.6104 7.63574C11.3697 7.2988 10.9015 7.22048 10.5645 7.46094L7.34277 9.76172C5.80731 10.8585 5.80731 13.1405 7.34277 14.2373L10.5645 16.5391C10.9015 16.7794 11.3698 16.7012 11.6104 16.3643C11.851 16.0273 11.7725 15.559 11.4355 15.3184L8.21387 13.0176C7.51605 12.5191 7.51608 11.4809 8.21387 10.9824L11.4355 8.68164C11.7725 8.44095 11.8509 7.97278 11.6104 7.63574ZM16.5 8.86914C16.5 8.07044 15.6099 7.59407 14.9453 8.03711L10.248 11.168C9.65436 11.5637 9.65449 12.4362 10.248 12.832L14.9453 15.9639C15.6099 16.4069 16.5 15.9305 16.5 15.1318V8.86914Z" fill="#1C274C"/>
</svg>
