<svg width="24" height="24" viewBox="0 0 24 24" fill="none" xmlns="http://www.w3.org/2000/svg">
<path d="M12 2C16.4183 2 20 5.64613 20 10.1436C19.9999 14.6057 17.4466 19.8128 13.4629 21.6748C12.5344 22.1088 11.4656 22.1088 10.5371 21.6748C6.55341 19.8128 4.0001 14.6057 4 10.1436C4 5.64613 7.58172 2 12 2ZM12 6C9.79086 6 8 7.79086 8 10C8 12.2091 9.79086 14 12 14C14.2091 14 16 12.2091 16 10C16 7.79086 14.2091 6 12 6ZM12 7.75C12.4142 7.75 12.75 8.08579 12.75 8.5V9.25H13.5C13.9142 9.25 14.25 9.58579 14.25 10C14.25 10.4142 13.9142 10.75 13.5 10.75H12.75V11.5C12.75 11.9142 12.4142 12.25 12 12.25C11.5858 12.25 11.25 11.9142 11.25 11.5V10.75H10.5C10.0858 10.75 9.75 10.4142 9.75 10C9.75 9.58579 10.0858 9.25 10.5 9.25H11.25V8.5C11.25 8.08579 11.5858 7.75 12 7.75Z" fill="#1C274C"/>
</svg>
