<svg width="24" height="24" viewBox="0 0 24 24" fill="none" xmlns="http://www.w3.org/2000/svg">
<path d="M12 1.25C15.608 1.25 18.6113 3.97501 18.7451 7.45801L19.2227 7.61719C19.6858 7.77151 20.0921 7.90685 20.4141 8.05664C20.7622 8.2186 21.0813 8.42723 21.3252 8.76562C21.5691 9.10402 21.6664 9.47301 21.71 9.85449C21.7502 10.2073 21.75 10.635 21.75 11.123V16.8711C21.75 17.4805 21.7504 18.0009 21.7031 18.418C21.6533 18.8566 21.5416 19.2876 21.2402 19.6553C21.0672 19.8664 20.8569 20.0447 20.6201 20.1807C20.2078 20.4173 19.764 20.4557 19.3232 20.4326C18.9041 20.4107 18.391 20.3258 17.79 20.2256L17.749 20.2188C16.4565 20.0033 15.9353 19.9214 15.4277 19.9639C15.242 19.9794 15.0571 20.0072 14.875 20.0469C14.3774 20.1556 13.8986 20.3891 12.7158 20.9805C12.6748 21.001 12.6339 21.0209 12.5938 21.041C11.2112 21.7326 10.3596 22.1589 9.44043 22.292C9.16396 22.332 8.88483 22.3522 8.60547 22.3516C7.67669 22.3499 6.77979 22.0505 5.3252 21.5654C5.28319 21.5515 5.24021 21.5378 5.19727 21.5234L4.81445 21.3955L4.77637 21.3828C4.31348 21.2286 3.90785 21.0931 3.58594 20.9434C3.2378 20.7815 2.9187 20.5728 2.6748 20.2344C2.43092 19.896 2.33359 19.527 2.29004 19.1455C2.2498 18.7927 2.24997 18.365 2.25 17.877V12.8574C2.24997 12.0714 2.25005 11.4086 2.31738 10.8896C2.38767 10.348 2.54645 9.81821 2.98242 9.41992C3.11053 9.30291 3.25182 9.20077 3.40332 9.11621C3.9191 8.82845 4.47264 8.84558 5.00879 8.9502C5.11742 8.9714 5.23164 8.99702 5.35059 9.02734C5.28452 8.58155 5.25 8.13707 5.25 7.7002C5.25007 4.10209 8.3088 1.25 12 1.25ZM18.6523 9.00781C18.4621 10.3092 17.9997 11.6233 17.3174 12.7959C16.4049 14.364 15.07 15.7303 13.3975 16.46C12.5098 16.8473 11.4902 16.8473 10.6025 16.46C8.92997 15.7303 7.59505 14.364 6.68262 12.7959C6.29861 12.136 5.98453 11.431 5.74902 10.709C5.32105 10.571 4.99181 10.4748 4.7207 10.4219C4.32658 10.345 4.19673 10.3913 4.13477 10.4258C4.08423 10.454 4.03687 10.4882 3.99414 10.5273C3.94185 10.575 3.8565 10.6832 3.80469 11.082C3.75138 11.4928 3.75 12.0577 3.75 12.9082V17.8379C3.75 18.3767 3.75089 18.7179 3.78027 18.9756C3.80751 19.2141 3.85237 19.303 3.8916 19.3574C3.93084 19.4118 4.00113 19.4817 4.21875 19.583C4.45386 19.6924 4.77688 19.8022 5.28809 19.9727L5.67188 20.1006C7.29545 20.6418 7.95099 20.8504 8.6084 20.8516C8.81485 20.852 9.02126 20.8372 9.22559 20.8076C9.87593 20.7134 10.5009 20.4106 12.0449 19.6387C12.0761 19.623 12.1072 19.608 12.1377 19.5928C13.1982 19.0624 13.8518 18.7356 14.5547 18.582C14.8011 18.5282 15.0514 18.4907 15.3027 18.4697C16.0196 18.4098 16.7347 18.5282 17.8945 18.7217C17.9278 18.7272 17.9612 18.7336 17.9951 18.7393C18.6494 18.8483 19.0783 18.9185 19.4023 18.9355C19.7131 18.9517 19.8204 18.9099 19.873 18.8799C19.9518 18.8346 20.0225 18.7753 20.0801 18.7051C20.1185 18.6583 20.1767 18.559 20.2119 18.249C20.2485 17.9266 20.25 17.4923 20.25 16.8291V11.1621C20.25 10.6233 20.2491 10.2821 20.2197 10.0244C20.1924 9.78591 20.1477 9.69701 20.1084 9.64258C20.0692 9.58815 19.9989 9.51824 19.7812 9.41699C19.5462 9.30763 19.2231 9.19775 18.7119 9.02734L18.6523 9.00781ZM12 2.75C9.06387 2.75 6.75007 5.00202 6.75 7.7002C6.75 9.11755 7.1878 10.6804 7.97949 12.041C8.77148 13.4021 9.88795 14.5112 11.2031 15.085C11.7082 15.3051 12.2918 15.3051 12.7969 15.085C14.1121 14.5112 15.2285 13.4021 16.0205 12.041C16.8122 10.6804 17.25 9.11755 17.25 7.7002C17.2499 5.00202 14.9362 2.75 12 2.75ZM12 5.25C13.5188 5.25 14.75 6.48122 14.75 8C14.75 9.51878 13.5188 10.75 12 10.75C10.4812 10.75 9.25 9.51878 9.25 8C9.25 6.48122 10.4812 5.25 12 5.25ZM12 6.75C11.3096 6.75 10.75 7.30964 10.75 8C10.75 8.69036 11.3096 9.25 12 9.25C12.6904 9.25 13.25 8.69036 13.25 8C13.25 7.30964 12.6904 6.75 12 6.75Z" fill="#48465C"/>
</svg>
