<svg width="24" height="24" viewBox="0 0 24 24" fill="none" xmlns="http://www.w3.org/2000/svg">
<path d="M9.94358 2.25C8.10583 2.24998 6.65019 2.24997 5.51098 2.40314C4.33856 2.56076 3.38961 2.89288 2.64124 3.64124C1.89288 4.38961 1.56076 5.33856 1.40314 6.51098C1.24997 7.65019 1.24998 9.10582 1.25 10.9436V11.0564C1.24998 12.8942 1.24997 14.3498 1.40314 15.489C1.56076 16.6614 1.89288 17.6104 2.64124 18.3588C2.94477 18.6623 3.28659 18.9023 3.67213 19.0897C4.04467 19.2707 4.49346 19.1155 4.67454 18.743C4.85561 18.3705 4.7004 17.9217 4.32787 17.7406C4.08631 17.6232 3.88274 17.4789 3.7019 17.2981C3.27869 16.8749 3.02503 16.2952 2.88976 15.2892C2.75159 14.2615 2.75 12.9068 2.75 11C2.75 9.09318 2.75159 7.73851 2.88976 6.71085C3.02503 5.70476 3.27869 5.12511 3.7019 4.7019C4.12511 4.27869 4.70476 4.02503 5.71085 3.88976C6.73851 3.75159 8.09318 3.75 10 3.75H14C15.9068 3.75 17.2615 3.75159 18.2892 3.88976C19.2952 4.02503 19.8749 4.27869 20.2981 4.7019C20.7213 5.12511 20.975 5.70476 21.1102 6.71085C21.2484 7.73851 21.25 9.09318 21.25 11C21.25 12.9068 21.2484 14.2615 21.1102 15.2892C20.975 16.2952 20.7213 16.8749 20.2981 17.2981C20.1173 17.4789 19.9137 17.6232 19.6721 17.7406C19.2996 17.9217 19.1444 18.3705 19.3255 18.743C19.5065 19.1155 19.9553 19.2707 20.3279 19.0897C20.7134 18.9023 21.0552 18.6623 21.3588 18.3588C22.1071 17.6104 22.4392 16.6614 22.5969 15.489C22.75 14.3498 22.75 12.8942 22.75 11.0565V10.9436C22.75 9.10585 22.75 7.65018 22.5969 6.51098C22.4392 5.33856 22.1071 4.38961 21.3588 3.64124C20.6104 2.89288 19.6614 2.56076 18.489 2.40314C17.3498 2.24997 15.8942 2.24998 14.0564 2.25H9.94358Z" fill="#1C274C"/>
<path fill-rule="evenodd" clip-rule="evenodd" d="M12.1183 13.8747C12.0394 13.8705 11.9604 13.8705 11.8816 13.8747C11.3797 13.9011 10.9744 14.1231 10.6089 14.4069C10.2668 14.6726 9.88948 15.0499 9.4517 15.4877L9.37636 15.5631C8.39983 16.5396 7.61171 17.3277 7.1103 17.9831C6.6199 18.6241 6.21494 19.3746 6.48103 20.1947C6.5176 20.3073 6.563 20.417 6.61683 20.5225C7.00854 21.2905 7.82555 21.5348 8.6256 21.6413C9.44361 21.7503 10.5582 21.7502 11.9392 21.7502H12.0606C13.4416 21.7502 14.5562 21.7503 15.3742 21.6413C16.1742 21.5348 16.9912 21.2905 17.3829 20.5225C17.4368 20.417 17.4822 20.3073 17.5187 20.1947C17.7848 19.3746 17.3799 18.6241 16.8895 17.9831C16.3881 17.3277 15.6 16.5396 14.6234 15.5631L14.5481 15.4877C14.1103 15.0499 13.733 14.6726 13.3909 14.4069C13.0254 14.1231 12.6201 13.9011 12.1183 13.8747ZM11.9605 15.3726C11.9867 15.3712 12.0131 15.3712 12.0394 15.3726C12.1123 15.3764 12.2271 15.4023 12.4709 15.5916C12.7296 15.7925 13.0404 16.1014 13.5198 16.5808C14.5493 17.6103 15.2648 18.3281 15.6981 18.8945C16.1497 19.4849 16.1095 19.6778 16.092 19.7317C16.0798 19.7693 16.0646 19.8058 16.0467 19.841C16.021 19.8914 15.913 20.0564 15.1762 20.1545C14.4693 20.2486 13.4558 20.2502 11.9999 20.2502C10.544 20.2502 9.53045 20.2486 8.82357 20.1545C8.08676 20.0564 7.97881 19.8914 7.95307 19.841C7.93513 19.8058 7.91999 19.7693 7.9078 19.7317C7.89032 19.6778 7.85003 19.4849 8.30167 18.8945C8.73496 18.3281 9.45047 17.6103 10.48 16.5808C10.9594 16.1014 11.2702 15.7925 11.5289 15.5916C11.7727 15.4023 11.8875 15.3764 11.9605 15.3726Z" fill="#1C274C"/>
</svg>
