<svg width="24" height="24" viewBox="0 0 24 24" fill="none" xmlns="http://www.w3.org/2000/svg">
<path d="M12 17.25C12.4142 17.25 12.75 17.5858 12.75 18V21C12.75 21.4142 12.4142 21.75 12 21.75C11.5858 21.75 11.25 21.4142 11.25 21V18C11.25 17.5858 11.5858 17.25 12 17.25ZM6 16.25C6.41421 16.25 6.75 16.5858 6.75 17V20C6.75 20.4142 6.41421 20.75 6 20.75C5.58579 20.75 5.25 20.4142 5.25 20V17C5.25 16.5858 5.58579 16.25 6 16.25ZM18 16.25C18.4142 16.25 18.75 16.5858 18.75 17V20C18.75 20.4142 18.4142 20.75 18 20.75C17.5858 20.75 17.25 20.4142 17.25 20V17C17.25 16.5858 17.5858 16.25 18 16.25ZM18.3252 7.59375C20.5681 8.35911 21.9999 9.52274 22 10.8262C22 13.1313 17.5228 15 12 15C6.47715 15 2 13.1313 2 10.8262C2.00005 9.52274 3.43196 8.35911 5.6748 7.59375C5.79938 7.88388 6.00606 8.17786 6.34277 8.41211C7.13105 8.96038 8.6987 9.5 12 9.5C15.3013 9.5 16.8689 8.96038 17.6572 8.41211C17.9939 8.17785 18.2006 7.88389 18.3252 7.59375ZM12 11C11.4477 11 11 11.4477 11 12C11 12.5523 11.4477 13 12 13C12.5523 13 13 12.5523 13 12C13 11.4477 12.5523 11 12 11ZM7 10C6.44774 10 6.00002 10.4477 6 11C6 11.5523 6.44772 12 7 12C7.55228 12 8 11.5523 8 11C7.99998 10.4477 7.55226 10 7 10ZM17 10C16.4477 10 16 10.4477 16 11C16 11.5523 16.4477 12 17 12C17.5523 12 18 11.5523 18 11C18 10.4477 17.5523 10 17 10ZM12.2715 3C14.6371 3.00013 16.5971 4.73769 16.9453 7.00586C16.9134 7.07454 16.8663 7.13501 16.8008 7.18066C16.3867 7.46867 15.1898 8 12 8C8.8113 8 7.61468 7.46874 7.2002 7.18066C7.13453 7.13499 7.08658 7.0746 7.05469 7.00586C7.40285 4.73769 9.36295 3.00015 11.7285 3H12.2715Z" fill="#1C274C"/>
</svg>
