<svg width="24" height="24" viewBox="0 0 24 24" fill="none" xmlns="http://www.w3.org/2000/svg">
<path d="M12 2C17.5228 2 22 6.47715 22 12C22 17.5228 17.5228 22 12 22C6.47715 22 2 17.5228 2 12C2 6.47715 6.47715 2 12 2ZM5.99316 13.251C5.57924 13.2547 5.24658 13.5929 5.25 14.0068C5.25721 14.8573 5.28345 15.5832 5.40137 16.1855C5.52346 16.8089 5.7531 17.3526 6.19922 17.7988C6.64535 18.2449 7.18916 18.4746 7.8125 18.5967C8.41481 18.7146 9.14076 18.7408 9.99121 18.748C10.4051 18.7514 10.7433 18.4188 10.7471 18.0049C10.7506 17.5907 10.418 17.2516 10.0039 17.248C9.14806 17.2407 8.55031 17.212 8.10059 17.124C7.6718 17.04 7.43404 16.9126 7.25977 16.7383C7.08549 16.564 6.95801 16.3263 6.87402 15.8975C6.78595 15.4477 6.75726 14.8499 6.75 13.9941C6.7464 13.58 6.40731 13.2475 5.99316 13.251ZM18.0039 13.251C17.5898 13.2475 17.2516 13.58 17.248 13.9941C17.2407 14.8499 17.2121 15.4477 17.124 15.8975C17.04 16.3263 16.9116 16.564 16.7373 16.7383C16.5631 16.9124 16.3258 17.0401 15.8975 17.124C15.4478 17.212 14.8499 17.2407 13.9941 17.248C13.5799 17.2515 13.2465 17.5907 13.25 18.0049C13.2538 18.4189 13.5928 18.7515 14.0068 18.748C14.8574 18.7408 15.5832 18.7147 16.1855 18.5967C16.8088 18.4746 17.3517 18.2448 17.7979 17.7988C18.244 17.3526 18.4736 16.8089 18.5957 16.1855C18.7136 15.5832 18.7399 14.8574 18.7471 14.0068C18.7505 13.5927 18.418 13.2545 18.0039 13.251ZM9.99121 5.25C9.14076 5.25721 8.41481 5.28345 7.8125 5.40137C7.18916 5.52347 6.64535 5.75308 6.19922 6.19922C5.75308 6.64535 5.52347 7.18916 5.40137 7.8125C5.28345 8.41481 5.25721 9.14076 5.25 9.99121C5.24659 10.4051 5.57925 10.7433 5.99316 10.7471C6.40733 10.7506 6.74643 10.418 6.75 10.0039C6.75726 9.14807 6.78594 8.55031 6.87402 8.10059C6.95801 7.6718 7.08549 7.43404 7.25977 7.25977C7.43404 7.08549 7.6718 6.95801 8.10059 6.87402C8.55031 6.78594 9.14807 6.75726 10.0039 6.75C10.418 6.74643 10.7506 6.40733 10.7471 5.99316C10.7433 5.57925 10.4051 5.24659 9.99121 5.25ZM14.0068 5.25C13.5928 5.24649 13.2538 5.57918 13.25 5.99316C13.2465 6.40736 13.5799 6.74649 13.9941 6.75C14.8499 6.75726 15.4478 6.78594 15.8975 6.87402C16.3259 6.95798 16.5631 7.08566 16.7373 7.25977C16.9116 7.43404 17.04 7.6718 17.124 8.10059C17.2121 8.5503 17.2407 9.14812 17.248 10.0039C17.2516 10.418 17.5897 10.7506 18.0039 10.7471C18.418 10.7436 18.7505 10.4053 18.7471 9.99121C18.7399 9.14072 18.7136 8.41483 18.5957 7.8125C18.4736 7.18916 18.244 6.64535 17.7979 6.19922C17.3517 5.75325 16.8088 5.52344 16.1855 5.40137C15.5832 5.28338 14.8574 5.25721 14.0068 5.25Z" fill="#1C274C"/>
</svg>
