<svg width="24" height="24" viewBox="0 0 24 24" fill="none" xmlns="http://www.w3.org/2000/svg">
<path d="M12 2C16.714 2 19.0708 2.00037 20.5352 3.46484C21.9996 4.9293 22 7.28597 22 12C22 16.714 21.9997 19.0708 20.5352 20.5352C19.0708 21.9997 16.714 22 12 22C7.28597 22 4.9293 21.9996 3.46484 20.5352C2.00037 19.0708 2 16.714 2 12C2 7.28595 2.00037 4.9293 3.46484 3.46484C4.9293 2.00037 7.28595 2 12 2ZM7 5.25C6.58579 5.25 6.25 5.58579 6.25 6V18C6.25 18.4142 6.58579 18.75 7 18.75C7.41421 18.75 7.75 18.4142 7.75 18V6C7.75 5.58579 7.41421 5.25 7 5.25ZM13.5762 12.5195C13.3109 12.2015 12.8377 12.1588 12.5195 12.4238L9.51953 14.9238C9.34867 15.0663 9.25 15.2775 9.25 15.5C9.25 15.7225 9.34867 15.9337 9.51953 16.0762L12.5195 18.5762C12.8377 18.8412 13.3109 18.7985 13.5762 18.4805C13.8412 18.1623 13.7985 17.6891 13.4805 17.4238L12.0713 16.25H17C17.4142 16.25 17.75 15.9142 17.75 15.5C17.75 15.0858 17.4142 14.75 17 14.75H12.0713L13.4805 13.5762C13.7985 13.3109 13.8412 12.8377 13.5762 12.5195ZM13.5762 5.51953C13.3109 5.20151 12.8377 5.15872 12.5195 5.42383L9.51953 7.92383C9.34866 8.06633 9.25 8.27749 9.25 8.5C9.25 8.7225 9.34866 8.93367 9.51953 9.07617L12.5195 11.5762C12.8377 11.8412 13.3109 11.7985 13.5762 11.4805C13.8412 11.1623 13.7985 10.6891 13.4805 10.4238L12.0713 9.25H17C17.4142 9.25 17.75 8.91421 17.75 8.5C17.75 8.08579 17.4142 7.75 17 7.75H12.0713L13.4805 6.57617C13.7985 6.31096 13.8412 5.83767 13.5762 5.51953Z" fill="#1C274C"/>
</svg>
