<svg width="24" height="24" viewBox="0 0 24 24" fill="none" xmlns="http://www.w3.org/2000/svg">
<path d="M18.2773 2.7998C18.3881 2.4007 18.8021 2.16648 19.2012 2.27734C19.6001 2.38834 19.8335 2.80219 19.7227 3.20117L18.3203 8.25H22C22.4141 8.25 22.7498 8.58595 22.75 9C22.75 9.41421 22.4142 9.75 22 9.75H17.9033L16.376 15.25H20C20.4141 15.25 20.7498 15.586 20.75 16C20.75 16.4142 20.4142 16.75 20 16.75H15.959L14.7227 21.2012C14.6118 21.6002 14.1979 21.8335 13.7988 21.7227C13.4001 21.6117 13.1666 21.1987 13.2773 20.7998L14.4023 16.75H6.95898L5.72266 21.2012C5.61176 21.6002 5.1979 21.8335 4.79883 21.7227C4.40006 21.6117 4.16662 21.1987 4.27734 20.7998L5.40234 16.75H2C1.58579 16.75 1.25 16.4142 1.25 16C1.2502 15.586 1.58591 15.25 2 15.25H5.81836L7.34668 9.75H4C3.58579 9.75 3.25 9.41421 3.25 9C3.25019 8.58595 3.58591 8.25 4 8.25H7.76367L9.27734 2.7998C9.3882 2.4007 9.8021 2.16648 10.2012 2.27734C10.6001 2.38834 10.8335 2.80219 10.7227 3.20117L9.32031 8.25H16.7637L18.2773 2.7998ZM7.37598 15.25H14.8184L16.3467 9.75H8.90332L7.37598 15.25Z" fill="#1C274C"/>
</svg>
