<svg width="24" height="24" viewBox="0 0 24 24" fill="none" xmlns="http://www.w3.org/2000/svg">
<path d="M9.55643 21.9639C8.24439 22.0341 6.99861 21.9947 5.93143 21.9131C3.85175 21.7541 2.24678 20.1489 2.08768 18.0693C2.00609 17.0021 1.96575 15.7564 2.03592 14.4443L9.55643 21.9639ZM21.7781 11.4912C21.4098 14.0837 20.5157 16.7232 18.6189 18.6201C16.7224 20.5165 14.0832 21.4099 11.491 21.7783L2.22244 12.5088C2.59095 9.91666 3.48416 7.27735 5.38065 5.38086C7.27744 3.48416 9.91713 2.59104 12.5096 2.22266L21.7781 11.4912ZM15.8396 8.16113C15.5467 7.86824 15.0719 7.86824 14.7791 8.16113L13.8914 9.04883L13.0027 8.16113C12.7099 7.86825 12.2351 7.86824 11.9422 8.16113C11.6497 8.45405 11.6495 8.92894 11.9422 9.22168L12.8308 10.1094L11.9998 10.9404L11.1121 10.0518C10.8192 9.75897 10.3445 9.75908 10.0515 10.0518C9.7587 10.3447 9.7587 10.8194 10.0515 11.1123L10.9392 12.001L10.1092 12.8311L9.22049 11.9434C8.9276 11.6505 8.45282 11.6505 8.15994 11.9434C7.86724 12.2363 7.86712 12.7112 8.15994 13.0039L9.04861 13.8916L8.15994 14.7803C7.86724 15.0731 7.86712 15.548 8.15994 15.8408C8.45276 16.1336 8.92758 16.1335 9.22049 15.8408L10.1092 14.9521L10.9969 15.8408C11.2897 16.1336 11.7645 16.1335 12.0574 15.8408C12.3503 15.5479 12.3503 15.0731 12.0574 14.7803L11.1697 13.8916L11.9998 13.0615L12.8885 13.9492C13.1814 14.2421 13.6561 14.2421 13.949 13.9492C14.2417 13.6563 14.2418 13.1815 13.949 12.8887L13.0603 12.001L13.8914 11.1699L14.7791 12.0586C15.0717 12.3513 15.5467 12.351 15.8396 12.0586C16.1325 11.7657 16.1325 11.29 15.8396 10.9971L14.9519 10.1094L15.8396 9.22168C16.1325 8.92879 16.1325 8.45402 15.8396 8.16113ZM14.4451 2.03613C15.7565 1.96606 17.0013 2.00537 18.0681 2.08691C20.1478 2.24593 21.7539 3.85189 21.9129 5.93164C21.9945 6.99856 22.0338 8.24399 21.9637 9.55566L14.4451 2.03613Z" fill="#1C274C"/>
</svg>
