<svg width="24" height="24" viewBox="0 0 24 24" fill="none" xmlns="http://www.w3.org/2000/svg">
<path d="M9.5564 21.9639C8.24436 22.0341 6.99858 21.9947 5.9314 21.9131C3.85172 21.7541 2.24675 20.1489 2.08765 18.0693C2.00606 17.0021 1.96572 15.7564 2.03589 14.4443L9.5564 21.9639ZM21.7781 11.4912C21.4098 14.0836 20.5165 16.7233 18.6199 18.6201C16.7233 20.5167 14.0833 21.4099 11.491 21.7783L2.22241 12.5088C2.59092 9.91666 3.48413 7.27735 5.38062 5.38086C7.27741 3.48415 9.91709 2.59104 12.5095 2.22266L21.7781 11.4912ZM15.8406 8.16113C15.5477 7.86824 15.0719 7.86824 14.7791 8.16113L13.8914 9.04883L13.0037 8.16113C12.7109 7.86824 12.235 7.86824 11.9421 8.16113C11.6497 8.45404 11.6494 8.92894 11.9421 9.22168L12.8308 10.1094L11.9998 10.9404L11.1121 10.0518C10.8192 9.75898 10.3444 9.75907 10.0515 10.0518C9.75867 10.3447 9.75868 10.8194 10.0515 11.1123L10.9392 12.001L10.1091 12.8311L9.22046 11.9434C8.92757 11.6505 8.45279 11.6505 8.15991 11.9434C7.86723 12.2363 7.86711 12.7112 8.15991 13.0039L9.04858 13.8916L8.15991 14.7803C7.86723 15.0731 7.8671 15.548 8.15991 15.8408C8.45272 16.1336 8.92755 16.1335 9.22046 15.8408L10.1091 14.9521L10.9968 15.8408C11.2897 16.1337 11.7645 16.1335 12.0574 15.8408C12.3503 15.5479 12.3503 15.0731 12.0574 14.7803L11.1697 13.8916L11.9998 13.0615L12.8884 13.9492C13.1813 14.2421 13.6561 14.2421 13.949 13.9492C14.2417 13.6563 14.2418 13.1815 13.949 12.8887L13.0613 12.001L13.8914 11.1699L14.7791 12.0586C15.0719 12.3515 15.5477 12.3515 15.8406 12.0586C16.1335 11.7657 16.1335 11.29 15.8406 10.9971L14.9519 10.1094L15.8406 9.22168C16.1333 8.92894 16.133 8.45404 15.8406 8.16113ZM14.4451 2.03613C15.7565 1.96606 17.0013 2.00537 18.0681 2.08691C20.1478 2.24593 21.7538 3.85189 21.9128 5.93164C21.9944 6.99855 22.0337 8.24399 21.9636 9.55566L14.4451 2.03613Z" fill="#48465C"/>
</svg>
