<svg width="24" height="24" viewBox="0 0 24 24" fill="none" xmlns="http://www.w3.org/2000/svg">
<path d="M4.71775 3.09177C5.94391 1.80085 7.97173 2.043 8.98532 3.47654L10.247 5.25974C11.0577 6.4064 10.989 8.00087 10.0215 9.01951L9.77634 9.27732L9.77439 9.28318C9.76138 9.31984 9.72859 9.43603 9.76072 9.65525C9.82761 10.1109 10.1802 11.0364 11.6074 12.539C13.0395 14.0466 13.9079 14.4024 14.3105 14.4677C14.4836 14.4958 14.5743 14.4712 14.6035 14.4609L15.0127 14.0312C15.8863 13.1113 17.2482 12.9303 18.3467 13.5625L20.2578 14.6611C21.8906 15.601 22.2705 17.9005 20.9658 19.2744L19.5449 20.7705C19.1016 21.2372 18.497 21.6353 17.75 21.709C15.9262 21.8891 11.7008 21.6545 7.27146 16.9912C3.13848 12.6398 2.35314 8.85503 2.25388 7.00583C2.20484 6.09216 2.61256 5.30827 3.14841 4.74412L4.71775 3.09177ZM7.76072 4.34275C7.24838 3.61814 6.32848 3.5746 5.80564 4.12498L4.23532 5.77732C3.90406 6.12616 3.7305 6.52653 3.75193 6.92576C3.83305 8.43573 4.48361 11.8775 8.35935 15.958C12.4233 20.2367 16.1673 20.3583 17.6025 20.2168C17.8861 20.1888 18.1781 20.0308 18.457 19.7373L19.8779 18.2412C20.4904 17.5961 20.3301 16.4344 19.5097 15.9619L17.5986 14.8623C17.0861 14.5673 16.486 14.658 16.1006 15.0635L15.6445 15.5429L15.1172 15.0429C15.6416 15.541 15.6435 15.5449 15.6435 15.5449L15.6416 15.5459L15.6386 15.5498L15.6181 15.5703C15.608 15.5802 15.5963 15.5909 15.583 15.6025C15.5561 15.6261 15.5224 15.6533 15.4824 15.6816C15.4023 15.7384 15.2959 15.8013 15.1611 15.8545C14.8852 15.9633 14.5204 16.0212 14.0703 15.9482C13.1928 15.8057 12.0423 15.1754 10.5195 13.5722C8.99217 11.9642 8.40706 10.7642 8.27634 9.87205C8.20988 9.4182 8.26366 9.05475 8.3613 8.78025C8.4093 8.64536 8.46625 8.53776 8.51853 8.45603C8.54461 8.41526 8.56881 8.38028 8.59079 8.35251C8.60172 8.3387 8.61274 8.32709 8.62204 8.31638L8.63474 8.30076L8.64548 8.29001C8.64668 8.29093 8.67177 8.31148 9.17868 8.79294L8.64743 8.28806L8.93357 7.9863C9.37901 7.51734 9.4443 6.72297 9.02243 6.12595L7.76072 4.34275ZM15 3.24998C15.4142 3.24998 15.75 3.58576 15.75 3.99998V4.99998C15.75 5.96381 15.7515 6.61173 15.8164 7.0947C15.8785 7.55587 15.9859 7.75348 16.1162 7.88376C16.2465 8.01401 16.444 8.12155 16.9052 8.18357C17.2727 8.23297 17.7355 8.24573 18.3603 8.249L17.5312 7.58494C17.2081 7.32617 17.1556 6.85454 17.414 6.53123C17.6728 6.20779 18.1453 6.15529 18.4687 6.41404L20.9687 8.41404C21.1465 8.55637 21.25 8.77219 21.25 8.99998C21.2499 9.22757 21.1464 9.44267 20.9687 9.58494L18.4687 11.5849C18.1453 11.8437 17.6728 11.7911 17.414 11.4677C17.1558 11.1444 17.2081 10.6728 17.5312 10.414L18.3633 9.749C17.72 9.74587 17.1666 9.73177 16.706 9.6699C16.0783 9.58549 15.511 9.39971 15.0556 8.94431C14.6001 8.48884 14.4145 7.92171 14.3301 7.29392C14.2501 6.69918 14.25 5.95008 14.25 5.05173V3.99998C14.25 3.58579 14.5858 3.25002 15 3.24998Z" fill="#1C274C"/>
</svg>
