<svg width="24" height="24" viewBox="0 0 24 24" fill="none" xmlns="http://www.w3.org/2000/svg">
<path d="M8.75781 3.9502C9.0612 3.6686 9.53552 3.6862 9.81738 3.98926C10.0992 4.2928 10.0818 4.76795 9.77832 5.0498L4.5625 9.89355C3.92129 10.489 3.55671 11.3242 3.55664 12.1992C3.55664 13.1218 3.96162 13.9977 4.66406 14.5957L9.75391 18.9287C10.0693 19.1972 10.1074 19.6709 9.83887 19.9863C9.57038 20.3015 9.09754 20.3396 8.78223 20.0713L3.69141 15.7383C2.65417 14.8554 2.05664 13.5614 2.05664 12.1992C2.05671 10.9071 2.59512 9.67319 3.54199 8.79395L8.75781 3.9502ZM13.2881 4.61328C13.4437 4.60751 13.5933 4.67486 13.6924 4.79492C13.8065 4.93342 13.8066 5.21633 13.8066 5.78125V8.57129C16.9958 8.5713 21.4459 10.3005 22.5508 16.7666C22.721 17.7624 22.8063 18.2605 22.71 18.4199C22.6161 18.5751 22.5011 18.6453 22.3203 18.6592C22.1347 18.6735 21.6468 18.3135 20.6719 17.5928C18.7993 16.2084 16.2347 15.4287 13.8066 15.4287V18.2188C13.8066 18.7833 13.8063 19.0656 13.6924 19.2041C13.5933 19.3244 13.4438 19.3916 13.2881 19.3857C13.1088 19.379 12.8977 19.1916 12.4756 18.8164L7.49707 14.3916C6.5666 13.5645 6.10116 13.1504 5.92969 12.6621C5.77927 12.2333 5.77916 11.7657 5.92969 11.3369C6.10123 10.8488 6.56683 10.4353 7.49707 9.6084L12.4756 5.18359C12.8978 4.80834 13.1088 4.61999 13.2881 4.61328Z" fill="#1C274C"/>
</svg>
