<svg width="24" height="24" viewBox="0 0 24 24" fill="none" xmlns="http://www.w3.org/2000/svg">
<path d="M12.0498 1.25C12.7144 1.24997 13.2875 1.24987 13.7461 1.31152C14.2377 1.37764 14.7086 1.52701 15.0908 1.90918C15.473 2.29136 15.6224 2.76235 15.6885 3.25391C15.7502 3.71255 15.75 4.28552 15.75 4.9502V12.3779C15.9846 12.295 16.237 12.25 16.5 12.25H19.5C20.7426 12.25 21.75 13.2574 21.75 14.5V21.25H22C22.4142 21.25 22.75 21.5858 22.75 22C22.75 22.4142 22.4142 22.75 22 22.75H2C1.58579 22.75 1.25 22.4142 1.25 22C1.25 21.5858 1.58579 21.25 2 21.25H2.25V9.5C2.25001 8.25737 3.25736 7.25 4.5 7.25H7.5C7.76297 7.25 8.01543 7.29502 8.25 7.37793V4.9502C8.24996 4.28552 8.24986 3.71255 8.31152 3.25391C8.37763 2.76235 8.52699 2.29137 8.90918 1.90918C9.29136 1.52701 9.76233 1.37764 10.2539 1.31152C10.7125 1.24987 11.2856 1.24997 11.9502 1.25H12.0498ZM4.5 8.75C4.08579 8.75 3.75001 9.08579 3.75 9.5V21.25H8.25V9.5C8.24999 9.08579 7.91421 8.75 7.5 8.75H4.5ZM12 2.75C11.2718 2.75 10.801 2.75124 10.4541 2.79785C10.1288 2.84159 10.0269 2.91263 9.96973 2.96973C9.91264 3.02682 9.84159 3.1288 9.79785 3.4541C9.75123 3.80097 9.75 4.27178 9.75 5V21.25H14.25V5C14.25 4.27178 14.2487 3.80097 14.2021 3.4541C14.1584 3.12883 14.0874 3.02683 14.0303 2.96973C13.9732 2.91264 13.8712 2.84159 13.5459 2.79785C13.199 2.75124 12.7282 2.75 12 2.75ZM16.5 13.75C16.0858 13.75 15.75 14.0858 15.75 14.5V21.25H20.25V14.5C20.25 14.0858 19.9142 13.75 19.5 13.75H16.5Z" fill="#48465C"/>
</svg>
