<svg width="24" height="24" viewBox="0 0 24 24" fill="none" xmlns="http://www.w3.org/2000/svg">
<path d="M15.0547 1.25C16.4221 1.24998 17.5247 1.24971 18.3916 1.36621C19.2917 1.48723 20.0504 1.74671 20.6523 2.34863C21.254 2.95049 21.5128 3.70847 21.6338 4.6084C21.7504 5.47534 21.75 6.5778 21.75 7.94531V16.0547C21.75 17.4222 21.7504 18.5246 21.6338 19.3916C21.5128 20.2915 21.254 21.0494 20.6523 21.6514C20.0504 22.2533 19.2917 22.5128 18.3916 22.6338C17.5247 22.7502 16.4221 22.75 15.0547 22.75H13.9453C12.5778 22.75 11.4753 22.7503 10.6084 22.6338C9.70829 22.5128 8.95053 22.2533 8.34863 21.6514C7.94981 21.2524 7.70058 20.7845 7.54297 20.25C6.59177 20.2488 5.79933 20.2376 5.15723 20.1514C4.39328 20.0487 3.73084 19.8266 3.20215 19.2979C2.67345 18.7692 2.45134 18.1068 2.34863 17.3428C2.25041 16.612 2.24998 15.6864 2.25 14.5537V9.44629C2.24998 8.31362 2.25041 7.38803 2.34863 6.65723C2.45134 5.89328 2.67345 5.23085 3.20215 4.70215C3.73084 4.17346 4.39328 3.95134 5.15723 3.84863C5.79933 3.76233 6.59177 3.75125 7.54297 3.75C7.70059 3.21556 7.94979 2.74752 8.34863 2.34863C8.95053 1.74673 9.70828 1.48723 10.6084 1.36621C11.4753 1.24965 12.5778 1.24998 13.9453 1.25H15.0547ZM14 2.75C12.5649 2.75 11.5639 2.75199 10.8086 2.85352C10.0749 2.95217 9.68594 3.13242 9.40918 3.40918C9.16585 3.65255 8.99864 3.98044 8.89453 4.54688C8.78649 5.13508 8.75805 5.91055 8.75195 7.00391C8.74965 7.41802 8.41214 7.75217 7.99805 7.75C7.58392 7.74769 7.24979 7.41017 7.25195 6.99609C7.25553 6.35158 7.26609 5.77078 7.30273 5.25098C6.4683 5.25422 5.84766 5.26892 5.35645 5.33496C4.75904 5.41532 4.4662 5.55919 4.2627 5.7627C4.05919 5.9662 3.91532 6.25905 3.83496 6.85645C3.75172 7.47563 3.75 8.30029 3.75 9.5V14.5C3.75 15.6997 3.75172 16.5245 3.83496 17.1436C3.91532 17.741 4.0592 18.0338 4.2627 18.2373C4.4662 18.4409 4.75906 18.5846 5.35645 18.665C5.84766 18.731 6.4683 18.7458 7.30273 18.749C7.26609 18.2292 7.25553 17.6484 7.25195 17.0039C7.2498 16.5898 7.58394 16.2523 7.99805 16.25C8.41214 16.2478 8.74965 16.582 8.75195 16.9961C8.75805 18.0894 8.78649 18.8649 8.89453 19.4531C8.99864 20.0196 9.16584 20.3474 9.40918 20.5908C9.68594 20.8676 10.0749 21.0478 10.8086 21.1465C11.5639 21.2479 12.5649 21.25 14 21.25H15C16.4354 21.25 17.437 21.248 18.1924 21.1465C18.9259 21.0478 19.3141 20.8675 19.5908 20.5908C19.8676 20.3141 20.0487 19.9259 20.1475 19.1924C20.249 18.437 20.25 17.4354 20.25 16V8C20.25 6.56491 20.2489 5.56388 20.1475 4.80859C20.0488 4.07482 19.8676 3.68594 19.5908 3.40918C19.3141 3.13252 18.9259 2.95216 18.1924 2.85352C17.437 2.75196 16.4354 2.75 15 2.75H14ZM7.46973 9.46973C7.76263 9.17684 8.23738 9.17684 8.53027 9.46973C8.82317 9.76262 8.82317 10.2374 8.53027 10.5303L7.81055 11.25H15C15.4142 11.25 15.75 11.5858 15.75 12C15.75 12.4142 15.4142 12.75 15 12.75H7.81055L8.53027 13.4697C8.82317 13.7626 8.82317 14.2374 8.53027 14.5303C8.23739 14.8232 7.76262 14.8232 7.46973 14.5303L5.46973 12.5303C5.17684 12.2374 5.17684 11.7626 5.46973 11.4697L7.46973 9.46973Z" fill="#48465C"/>
</svg>
