<svg width="24" height="24" viewBox="0 0 24 24" fill="none" xmlns="http://www.w3.org/2000/svg">
<path d="M12 2C16.2423 2 18.3636 2.00005 19.6816 3.33203C20.9996 4.66433 21 6.80907 21 11.0977V16.0908C21 19.1874 20.9997 20.7356 20.2656 21.4121C19.9155 21.7348 19.4737 21.9374 19.0029 21.9912C18.0159 22.1041 16.863 21.0849 14.5576 19.0459C13.5387 18.1446 13.0289 17.6939 12.4395 17.5752C12.1493 17.5168 11.8507 17.5168 11.5605 17.5752C10.9711 17.6939 10.4614 18.1446 9.44238 19.0459C7.13704 21.0849 5.98414 22.1041 4.99707 21.9912C4.52632 21.9374 4.08447 21.7348 3.73438 21.4121C3.00027 20.7356 3 19.1874 3 16.0908V11.0977C3 6.80907 3.00034 4.66433 4.31836 3.33203C5.6364 2.00004 7.75768 2 12 2ZM9 5.25C8.58579 5.25 8.25 5.58579 8.25 6C8.25 6.41421 8.58579 6.75 9 6.75H15C15.4142 6.75 15.75 6.41421 15.75 6C15.75 5.58579 15.4142 5.25 15 5.25H9Z" fill="#48465C"/>
</svg>
