<svg width="24" height="24" viewBox="0 0 24 24" fill="none" xmlns="http://www.w3.org/2000/svg">
<path d="M13 1.25C14.8236 1.25003 16.3417 2.55103 16.6797 4.27539C19.6248 5.03155 21.7069 7.6689 21.749 10.7197C21.7496 10.7664 21.75 10.8178 21.75 10.9043V16.375C21.75 18.8445 20.0346 20.9829 17.624 21.5186C13.9198 22.3416 10.0801 22.3416 6.37598 21.5186C3.96531 20.9829 2.25 18.8445 2.25 16.375V10.9043C2.25 10.8177 2.25033 10.7663 2.25098 10.7197C2.29308 7.66888 4.37525 5.03153 7.32031 4.27539C7.65833 2.55101 9.17647 1.25 11 1.25H13ZM20.25 15.123C19.5915 15.3772 18.9241 15.5998 18.25 15.791V17C18.25 17.4142 17.9142 17.75 17.5 17.75C17.0858 17.75 16.75 17.4142 16.75 17V16.1621C12.433 17.077 7.91436 16.7307 3.75 15.123V16.375C3.75 18.1415 4.97685 19.6705 6.70117 20.0537C10.1911 20.8292 13.8088 20.8292 17.2988 20.0537C19.023 19.6705 20.25 18.1414 20.25 16.375V15.123ZM15.8799 5.63086C13.3235 5.07472 10.6765 5.07472 8.12012 5.63086C8.08087 5.6394 8.04095 5.64835 7.95703 5.66699C7.86394 5.68767 7.82403 5.69605 7.79004 5.7041C5.44851 6.25863 3.7833 8.33418 3.75 10.7402V13.5068C9.02855 15.7112 14.9715 15.7112 20.25 13.5068V10.9111C20.25 10.8157 20.2495 10.7752 20.249 10.7402C20.2157 8.33404 18.5508 6.25848 16.209 5.7041C16.1752 5.69607 16.1357 5.6876 16.043 5.66699C15.959 5.64835 15.9191 5.6394 15.8799 5.63086ZM14 12.25C14.4142 12.25 14.75 12.5858 14.75 13C14.75 13.4142 14.4142 13.75 14 13.75H10C9.58579 13.75 9.25 13.4142 9.25 13C9.25 12.5858 9.58579 12.25 10 12.25H14ZM11 2.75C10.1409 2.75 9.3936 3.2321 9.01465 3.94043C10.9934 3.63785 13.0067 3.63785 14.9854 3.94043C14.6065 3.23211 13.8592 2.75002 13 2.75H11Z" fill="#48465C"/>
</svg>
