<svg width="24" height="24" viewBox="0 0 24 24" fill="none" xmlns="http://www.w3.org/2000/svg">
<path d="M10 12.25C9.58579 12.25 9.25 12.5858 9.25 13C9.25 13.4142 9.58579 13.75 10 13.75H14C14.4142 13.75 14.75 13.4142 14.75 13C14.75 12.5858 14.4142 12.25 14 12.25H10Z" fill="#1C274C"/>
<path fill-rule="evenodd" clip-rule="evenodd" d="M7.32008 4.27529C7.6581 2.55091 9.17641 1.25 10.9999 1.25H12.9999C14.8235 1.25 16.3418 2.55092 16.6798 4.2753C19.6249 5.03147 21.7072 7.66894 21.7493 10.7198C21.7499 10.7665 21.7499 10.8178 21.7499 10.9044V13.9829C21.7502 13.994 21.7502 14.0052 21.7499 14.0163V16.375C21.7499 18.8445 20.0347 20.9827 17.6241 21.5184C13.9198 22.3415 10.08 22.3415 6.37577 21.5184C3.9651 20.9827 2.24994 18.8445 2.24994 16.375V14.0163C2.2497 14.0052 2.24969 13.994 2.24994 13.9829V10.9043C2.24994 10.8177 2.24994 10.7664 2.25059 10.7198C2.29266 7.66892 4.37499 5.03144 7.32008 4.27529ZM9.0144 3.94034C9.39335 3.23199 10.1408 2.75 10.9999 2.75H12.9999C13.8591 2.75 14.6066 3.232 14.9855 3.94035C13.0067 3.63773 10.9932 3.63772 9.0144 3.94034ZM20.2499 10.9111V13.5066C14.9713 15.711 9.02853 15.711 3.74994 13.5066V10.9111C3.74994 10.8157 3.74996 10.7755 3.75044 10.7405C3.78363 8.33419 5.44866 6.25854 7.7905 5.70414C7.82449 5.69609 7.8638 5.68733 7.95689 5.66665C8.04114 5.64793 8.08107 5.63905 8.12046 5.63048C10.6768 5.07434 13.323 5.07434 15.8794 5.63048C15.9188 5.63905 15.9587 5.64793 16.043 5.66665C16.136 5.68733 16.1754 5.69609 16.2093 5.70414C18.5512 6.25854 20.2162 8.33419 20.2494 10.7405C20.2499 10.7755 20.2499 10.8157 20.2499 10.9111ZM3.74994 16.375V15.123C7.91432 16.7307 12.4329 17.0771 16.7499 16.1622V17C16.7499 17.4142 17.0857 17.75 17.4999 17.75C17.9141 17.75 18.2499 17.4142 18.2499 17V15.7911C18.924 15.5999 19.5914 15.3772 20.2499 15.123V16.375C20.2499 18.1415 19.023 19.6709 17.2987 20.0541C13.8087 20.8296 10.1911 20.8296 6.70117 20.0541C4.97681 19.6709 3.74994 18.1415 3.74994 16.375Z" fill="#1C274C"/>
</svg>
