<svg width="24" height="24" viewBox="0 0 24 24" fill="none" xmlns="http://www.w3.org/2000/svg">
<path d="M12 1.25C14.0711 1.25003 15.75 2.92895 15.75 5V5.32812C15.8927 5.3404 16.0308 5.35464 16.1641 5.37109C17.174 5.4959 18.0066 5.75777 18.7139 6.34473C19.4212 6.93172 19.8318 7.70221 20.1406 8.67188C20.4398 9.61153 20.6664 10.8194 20.9512 12.3379L20.9717 12.4482C21.3735 14.591 21.6909 16.28 21.749 17.6113C21.8085 18.9757 21.6053 20.1058 20.8359 21.0332C20.0661 21.9607 18.9918 22.3686 17.6396 22.5615C16.3205 22.7497 14.6026 22.75 12.4229 22.75H11.5771C9.39733 22.75 7.67947 22.7497 6.36035 22.5615C5.00816 22.3686 3.93384 21.9607 3.16406 21.0332C2.39458 20.1058 2.19143 18.9757 2.25098 17.6113C2.30908 16.28 2.62555 14.591 3.02734 12.4482L3.04883 12.3379C3.33352 10.8194 3.56018 9.61152 3.85938 8.67188C4.16815 7.70221 4.57884 6.93173 5.28613 6.34473C5.99339 5.75778 6.82605 5.49589 7.83594 5.37109C7.96922 5.35463 8.10727 5.3404 8.25 5.32812V5C8.25 2.92893 9.92893 1.25 12 1.25ZM11.6396 6.75C10.0328 6.75 8.89567 6.75111 8.01953 6.85938C7.16427 6.96508 6.64768 7.16415 6.24414 7.49902C5.84054 7.83399 5.54965 8.30554 5.28809 9.12695C5.02027 9.96811 4.80976 11.0849 4.51367 12.6641C4.09796 14.8812 3.8029 16.4649 3.75 17.6768C3.69804 18.8676 3.88878 19.5573 4.31836 20.0752C4.74815 20.593 5.39114 20.9087 6.57129 21.0771C7.7722 21.2485 9.38384 21.25 11.6396 21.25H12.3604C14.6159 21.25 16.2269 21.2485 17.4277 21.0771C18.6081 20.9087 19.2508 20.5931 19.6807 20.0752C20.1104 19.5572 20.302 18.868 20.25 17.6768C20.1971 16.4649 19.902 14.8812 19.4863 12.6641C19.1903 11.085 18.9797 9.96811 18.7119 9.12695C18.4503 8.30554 18.1595 7.83399 17.7559 7.49902C17.3523 7.16408 16.835 6.96507 15.9795 6.85938C15.1034 6.75117 13.9669 6.75 12.3604 6.75H11.6396ZM12 11.2344C12.7162 10.7629 13.5247 10.6185 14.2539 10.874C15.187 11.2011 15.7499 12.0993 15.75 13.1963C15.75 13.9662 15.3087 14.648 14.875 15.1494C14.4217 15.6736 13.8605 16.1331 13.4004 16.4707C13.3772 16.4877 13.3536 16.505 13.3301 16.5225C12.9788 16.7821 12.5792 17.0771 12 17.0771C11.4208 17.077 11.0211 16.7821 10.6699 16.5225C10.6464 16.505 10.6227 16.4877 10.5996 16.4707C10.1396 16.1331 9.57828 15.6736 9.125 15.1494C8.69131 14.648 8.25 13.9662 8.25 13.1963C8.25014 12.0994 8.81228 11.2012 9.74512 10.874C10.4745 10.6183 11.2837 10.7629 12 11.2344ZM13.7578 12.29C13.5075 12.2024 13.044 12.2302 12.5186 12.7334C12.2285 13.0108 11.7714 13.0108 11.4814 12.7334C10.9561 12.2303 10.4925 12.2024 10.2422 12.29C10.0129 12.3704 9.75012 12.6206 9.75 13.1963C9.75 13.4109 9.89149 13.7422 10.2598 14.168C10.6083 14.571 11.0685 14.9541 11.4863 15.2607C11.7126 15.4267 11.8203 15.5034 11.9062 15.5488C11.9605 15.5774 11.9756 15.5771 12 15.5771C12.0244 15.5771 12.0395 15.5775 12.0938 15.5488C12.1797 15.5034 12.2874 15.4267 12.5137 15.2607C12.9315 14.9541 13.3917 14.571 13.7402 14.168C14.1085 13.7422 14.25 13.4109 14.25 13.1963C14.2499 12.6206 13.9871 12.3704 13.7578 12.29ZM12 2.75C10.7574 2.75 9.75 3.75736 9.75 5V5.25977C10.307 5.24988 10.9182 5.24999 11.5889 5.25H12.4111C13.0818 5.24999 13.693 5.24988 14.25 5.25977V5C14.25 3.75738 13.2426 2.75003 12 2.75Z" fill="#1C274C"/>
</svg>
