<svg width="24" height="24" viewBox="0 0 24 24" fill="none" xmlns="http://www.w3.org/2000/svg">
<path d="M12 1.25C14.0711 1.25 15.75 2.92893 15.75 5V5.32812C15.8927 5.3404 16.0308 5.35463 16.1641 5.37109C17.174 5.49589 18.0066 5.75778 18.7139 6.34473C19.4212 6.93173 19.8318 7.70221 20.1406 8.67188C20.4398 9.61153 20.6664 10.8194 20.9512 12.3379L20.9717 12.4482C21.3735 14.591 21.6909 16.28 21.749 17.6113C21.8085 18.9757 21.6054 20.1058 20.8359 21.0332C20.0662 21.9606 18.9926 22.3686 17.6406 22.5615C16.3214 22.7497 14.6029 22.75 12.4229 22.75H11.5771C9.39733 22.75 7.67947 22.7497 6.36035 22.5615C5.00819 22.3686 3.93482 21.9607 3.16504 21.0332C2.3953 20.1057 2.19143 18.9759 2.25098 17.6113C2.30908 16.28 2.62653 14.591 3.02832 12.4482L3.04883 12.3379C3.33352 10.8194 3.56018 9.61152 3.85938 8.67188C4.16815 7.70221 4.57885 6.93173 5.28613 6.34473C5.99338 5.75776 6.82607 5.49589 7.83594 5.37109C7.9692 5.35464 8.10729 5.3404 8.25 5.32812V5C8.25 2.92895 9.92895 1.25003 12 1.25ZM11.6396 6.75C10.0331 6.75 8.89658 6.75117 8.02051 6.85938C7.16497 6.96507 6.64775 7.16407 6.24414 7.49902C5.84054 7.83399 5.54965 8.30554 5.28809 9.12695C5.02027 9.96811 4.80975 11.085 4.51367 12.6641C4.09797 14.8812 3.8029 16.4649 3.75 17.6768C3.69802 18.868 3.88951 19.5572 4.31934 20.0752C4.74918 20.5931 5.39186 20.9087 6.57227 21.0771C7.77313 21.2485 9.38412 21.25 11.6396 21.25H12.3604C14.6162 21.25 16.2278 21.2485 17.4287 21.0771C18.6089 20.9087 19.2518 20.593 19.6816 20.0752C20.1112 19.5573 20.302 18.8676 20.25 17.6768C20.1971 16.4649 19.902 14.8812 19.4863 12.6641C19.1903 11.0849 18.9797 9.96811 18.7119 9.12695C18.4503 8.30554 18.1595 7.83399 17.7559 7.49902C17.3523 7.16416 16.8357 6.96508 15.9805 6.85938C15.1043 6.75111 13.9672 6.75 12.3604 6.75H11.6396ZM12 11.2344C12.7162 10.763 13.5247 10.6185 14.2539 10.874C15.187 11.2011 15.7499 12.0993 15.75 13.1963C15.75 13.9662 15.3087 14.648 14.875 15.1494C14.4217 15.6736 13.8604 16.1331 13.4004 16.4707C13.3773 16.4877 13.3536 16.505 13.3301 16.5225C12.9788 16.7821 12.5792 17.0771 12 17.0771C11.4208 17.077 11.0211 16.7821 10.6699 16.5225C10.6464 16.505 10.6228 16.4877 10.5996 16.4707C10.1395 16.1331 9.57829 15.6736 9.125 15.1494C8.69131 14.648 8.25 13.9662 8.25 13.1963C8.25014 12.0993 8.81301 11.2011 9.74609 10.874C10.4753 10.6185 11.2838 10.763 12 11.2344ZM13.7578 12.29C13.5075 12.2024 13.0439 12.2303 12.5186 12.7334C12.2285 13.0108 11.7714 13.0108 11.4814 12.7334C10.956 12.2302 10.4925 12.2024 10.2422 12.29C10.0129 12.3704 9.75012 12.6206 9.75 13.1963C9.75 13.4109 9.89149 13.7422 10.2598 14.168C10.6083 14.571 11.0685 14.9541 11.4863 15.2607C11.7126 15.4267 11.8203 15.5034 11.9062 15.5488C11.9605 15.5775 11.9756 15.5771 12 15.5771C12.0244 15.5771 12.0395 15.5774 12.0938 15.5488C12.1797 15.5034 12.2874 15.4267 12.5137 15.2607C12.9315 14.9541 13.3917 14.571 13.7402 14.168C14.1085 13.7422 14.25 13.4109 14.25 13.1963C14.2499 12.6206 13.9871 12.3704 13.7578 12.29ZM12 2.75C10.7574 2.75003 9.75 3.75738 9.75 5V5.25977C10.307 5.24988 10.9182 5.24999 11.5889 5.25H12.4111C13.0818 5.24999 13.693 5.24988 14.25 5.25977V5C14.25 3.75736 13.2426 2.75 12 2.75Z" fill="#48465C"/>
</svg>
