<svg width="24" height="24" viewBox="0 0 24 24" fill="none" xmlns="http://www.w3.org/2000/svg">
<path d="M12 2C15.7712 2 17.6566 2.00031 18.8281 3.17188C19.8912 4.23498 19.9899 5.88572 19.999 9H21C21.5523 9 22 9.44772 22 10V11C22 11.3148 21.8514 11.6109 21.5996 11.7998L20 13C19.9909 16.1143 19.8912 17.765 18.8281 18.8281C18.5859 19.0703 18.3136 19.2626 18 19.415V21C17.9999 21.5523 17.5523 22 17 22H15.5C14.9477 22 14.5001 21.5523 14.5 21V19.9814C13.7729 19.9999 12.9458 20 12 20C11.0542 20 10.2271 19.9999 9.5 19.9814V21C9.49995 21.5523 9.05225 22 8.5 22H7C6.44775 22 6.00005 21.5523 6 21V19.415C5.68647 19.2626 5.41405 19.0703 5.17188 18.8281C4.10879 17.765 4.00911 16.1143 4 13L2.40039 11.7998C2.14858 11.6109 2 11.3148 2 11V10C2 9.44772 2.44772 9 3 9H4.00098C4.01009 5.8857 4.10879 4.23498 5.17188 3.17188C6.34345 2.00031 8.22876 2 12 2ZM7 15.25C6.58579 15.25 6.25 15.5858 6.25 16C6.25 16.4142 6.58579 16.75 7 16.75H8.5C8.91421 16.75 9.25 16.4142 9.25 16C9.25 15.5858 8.91421 15.25 8.5 15.25H7ZM15.5 15.25C15.0858 15.25 14.75 15.5858 14.75 16C14.75 16.4142 15.0858 16.75 15.5 16.75H17C17.4142 16.75 17.75 16.4142 17.75 16C17.75 15.5858 17.4142 15.25 17 15.25H15.5ZM8.5 4C7.08579 4 6.37879 4.00011 5.93945 4.43945C5.50011 4.87879 5.5 5.58579 5.5 7V9.5C5.5 10.9142 5.50013 11.6211 5.93945 12.0605C6.37879 12.4998 7.08579 12.5 8.5 12.5H15.5C16.9142 12.5 17.6211 12.4998 18.0605 12.0605C18.4998 11.6211 18.5 10.9142 18.5 9.5V7C18.5 5.58579 18.4998 4.87879 18.0605 4.43945C17.6211 4.00013 16.9142 4 15.5 4H8.5Z" fill="#48465C"/>
</svg>
