<svg width="24" height="24" viewBox="0 0 24 24" fill="none" xmlns="http://www.w3.org/2000/svg">
<path d="M16.4189 4.62012C16.4189 3.58707 17.3879 2.74172 18.4473 3.07324C19.4287 3.38045 20.2784 3.77 20.8975 4.24219C21.5056 4.70606 21.9998 5.33829 22 6.13086V18.0781C22 18.6374 21.7541 19.1171 21.3945 19.5146C21.2236 19.7035 21.0266 19.8744 20.8184 20.0264C19.9615 20.6512 18.6811 21.1376 17.1885 21.4707C15.6812 21.8071 13.9008 22 12 22C9.73673 22 7.64055 21.7276 5.97266 21.2617C5.13925 21.0289 4.39707 20.7432 3.78906 20.4092C3.18968 20.08 2.67206 19.6769 2.34863 19.1855C2.24752 19.0319 2.16432 18.8673 2.10449 18.6934C2.03782 18.4996 2 18.2934 2 18.0781V6.13086C2.00019 5.3383 2.49443 4.70606 3.10254 4.24219C3.72161 3.77 4.57132 3.38045 5.55273 3.07324C6.6121 2.74171 7.58105 3.58706 7.58105 4.62012V8.24512C8.87791 8.49711 10.386 8.64355 12 8.64355C13.614 8.64355 15.122 8.49711 16.4189 8.24512V4.62012ZM20.5234 8.27832C19.7013 8.79487 18.5716 9.20879 17.2695 9.50586C15.7451 9.85358 13.9347 10.0527 12 10.0527C10.0653 10.0527 8.25488 9.85358 6.73047 9.50586C5.4284 9.2088 4.29875 8.79485 3.47656 8.27832C3.44946 8.26129 3.42234 8.24409 3.39551 8.22656V17.3887L6.22559 14.7139L7.50195 13.6348C8.4295 12.8506 9.81963 12.8934 10.6943 13.7383L13.7842 16.7236C14.0396 16.9701 14.4552 17.0086 14.7588 16.8027L14.9736 16.6562C16.0565 15.921 17.5174 16.004 18.5059 16.8633L20.4072 18.5166C20.5628 18.329 20.6045 18.1789 20.6045 18.0781V8.22656C20.5777 8.24409 20.5506 8.26129 20.5234 8.27832ZM17.8145 11.4297C18.5847 11.4299 19.2088 12.0609 19.209 12.8389C19.209 13.6171 18.5848 14.2478 17.8145 14.248C17.0438 14.248 16.4189 13.6173 16.4189 12.8389C16.4191 12.0607 17.0439 11.4297 17.8145 11.4297Z" fill="#1C274C"/>
</svg>
