<svg width="24" height="24" viewBox="0 0 24 24" fill="none" xmlns="http://www.w3.org/2000/svg">
<path d="M10 13C14.4183 13 18 15.0147 18 17.5C18 19.9852 17.9997 22 10 22C2.00034 22 2 19.9852 2 17.5C2 15.0147 5.58172 13 10 13ZM18.3564 1.61426C18.5695 1.25915 19.0306 1.14351 19.3857 1.35645L19.3877 1.35742L19.3887 1.3584L19.3926 1.36035L19.4023 1.36621C19.4097 1.37077 19.4188 1.37673 19.4297 1.38379C19.4516 1.39798 19.4805 1.41784 19.5156 1.44238C19.5859 1.4916 19.6817 1.56251 19.793 1.65527C20.015 1.84035 20.3056 2.11642 20.5947 2.49219C21.1775 3.24993 21.75 4.40735 21.75 6C21.75 7.59237 21.1774 8.74912 20.5947 9.50684C20.3055 9.88277 20.015 10.1596 19.793 10.3447C19.6817 10.4375 19.5859 10.5084 19.5156 10.5576C19.4807 10.582 19.4516 10.6011 19.4297 10.6152C19.4243 10.6187 19.4195 10.6222 19.415 10.625C19.4105 10.6279 19.406 10.6306 19.4023 10.6328L19.3926 10.6387L19.3887 10.6406L19.3877 10.6416C19.3873 10.6418 19.3858 10.6429 19 10L19.3857 10.6426C19.0305 10.8557 18.5695 10.7409 18.3564 10.3857C18.1444 10.0321 18.2579 9.57368 18.6094 9.35938L18.6562 9.32812C18.6953 9.30078 18.7562 9.25556 18.832 9.19238C18.9849 9.06501 19.1946 8.86658 19.4053 8.59277C19.8224 8.05054 20.25 7.20724 20.25 6C20.25 4.79266 19.8225 3.94949 19.4053 3.40723C19.1946 3.13329 18.9849 2.93502 18.832 2.80762C18.7559 2.7442 18.6954 2.69825 18.6562 2.6709C18.6367 2.65725 18.6225 2.64827 18.6152 2.64355L18.6094 2.64062C18.2579 2.42642 18.1446 1.96787 18.3564 1.61426ZM10 2C12.2091 2 14 3.79086 14 6C13.9998 8.20899 12.209 10 10 10C7.79097 10 6.00017 8.20899 6 6C6 3.79086 7.79086 2 10 2ZM16.3564 3.61426C16.5695 3.25915 17.0306 3.14351 17.3857 3.35645L17 4C17.3594 3.40107 17.3847 3.36002 17.3867 3.35742L17.3887 3.3584L17.3916 3.36035L17.3994 3.36523L17.4189 3.37695C17.4336 3.3864 17.4513 3.39916 17.4727 3.41406C17.5156 3.44414 17.5723 3.48537 17.6367 3.53906C17.765 3.64603 17.9305 3.80408 18.0947 4.01758C18.4275 4.45032 18.75 5.10746 18.75 6C18.7499 6.89255 18.4275 7.54972 18.0947 7.98242C17.9306 8.1957 17.7649 8.35302 17.6367 8.45996C17.5723 8.51366 17.5156 8.55586 17.4727 8.58594C17.4515 8.60069 17.4335 8.61269 17.4189 8.62207L17.3994 8.63477L17.3916 8.63965L17.3887 8.6416L17.3867 8.64258H17.3857C17.0305 8.85569 16.5695 8.74092 16.3564 8.38574C16.1453 8.03359 16.2574 7.57772 16.6055 7.3623L16.6133 7.35645C16.6251 7.34815 16.6469 7.33175 16.6758 7.30762C16.735 7.25834 16.8196 7.17882 16.9053 7.06738C17.0725 6.85015 17.25 6.50724 17.25 6C17.25 5.49266 17.0725 5.1489 16.9053 4.93164C16.8197 4.82039 16.7349 4.74064 16.6758 4.69141C16.6468 4.66723 16.625 4.65079 16.6133 4.64258L16.6055 4.6377L16.3564 3.61426Z" fill="#1C274C"/>
</svg>
