<svg width="24" height="24" viewBox="0 0 24 24" fill="none" xmlns="http://www.w3.org/2000/svg">
<path fill-rule="evenodd" clip-rule="evenodd" d="M11.4697 3.96967C11.7626 3.67678 12.2373 3.67678 12.5302 3.96967L17.5302 8.96967C17.823 9.26256 17.8231 9.73738 17.5302 10.0302C17.2373 10.3231 16.7626 10.3231 16.4697 10.0302L12.7499 6.31049V14.4999C12.75 15.2132 12.97 16.2997 13.6083 17.1865C14.2192 18.035 15.2443 18.7499 16.9999 18.7499C17.4141 18.75 17.7499 19.0858 17.7499 19.4999C17.7499 19.9141 17.4141 20.2499 16.9999 20.2499C14.7558 20.2499 13.2807 19.298 12.3915 18.0634C11.5301 16.8669 11.25 15.4533 11.2499 14.4999V6.31049L7.53021 10.0302C7.23735 10.3231 6.76256 10.323 6.46967 10.0302C6.17678 9.73735 6.17678 9.26256 6.46967 8.96967L11.4697 3.96967Z" fill="#1C274C"/>
</svg>
