<svg width="24" height="24" viewBox="0 0 24 24" fill="none" xmlns="http://www.w3.org/2000/svg">
<path d="M17.5 9.10156C18.5425 8.29148 19.7296 8.03877 20.7725 8.42871C22.0072 8.89064 22.75 10.1456 22.75 11.7148C22.7499 12.8758 22.0507 13.9572 21.3164 14.7959C20.5587 15.6611 19.6383 16.4086 18.9551 16.9121C18.9285 16.9317 18.901 16.9516 18.874 16.9717C18.5025 17.2478 18.0822 17.5605 17.5 17.5605C16.9178 17.5605 16.4975 17.2478 16.126 16.9717C16.099 16.9516 16.0715 16.9317 16.0449 16.9121C15.3617 16.4086 14.4413 15.6611 13.6836 14.7959C12.9493 13.9572 12.25 12.8757 12.25 11.7148C12.25 10.1455 12.9928 8.89065 14.2275 8.42871C15.2704 8.03877 16.4575 8.29148 17.5 9.10156ZM10 15.25C10.4142 15.25 10.75 15.5858 10.75 16C10.75 16.4142 10.4142 16.75 10 16.75H3C2.58579 16.75 2.25 16.4142 2.25 16C2.25 15.5858 2.58579 15.25 3 15.25H10ZM20.2471 9.83301C19.7299 9.63964 18.9051 9.7434 18.0361 10.6309C17.895 10.7749 17.7017 10.8564 17.5 10.8564C17.2983 10.8564 17.105 10.7749 16.9639 10.6309C16.0949 9.74339 15.2701 9.63964 14.7529 9.83301C14.2442 10.0233 13.75 10.6072 13.75 11.7148C13.75 12.3063 14.1327 13.0323 14.8115 13.8076C15.4671 14.5562 16.291 15.2298 16.9346 15.7041C17.1776 15.8832 17.3012 15.9722 17.3994 16.0254C17.4646 16.0606 17.4837 16.0607 17.498 16.0605H17.502C17.5163 16.0607 17.5354 16.0606 17.6006 16.0254C17.6988 15.9722 17.8224 15.8832 18.0654 15.7041C18.709 15.2298 19.5329 14.5562 20.1885 13.8076C20.8672 13.0324 21.2499 12.3064 21.25 11.7148C21.25 10.6073 20.7558 10.0233 20.2471 9.83301ZM9 10.25C9.41421 10.25 9.75 10.5858 9.75 11C9.75 11.4142 9.41421 11.75 9 11.75H3C2.58579 11.75 2.25 11.4142 2.25 11C2.25 10.5858 2.58579 10.25 3 10.25H9ZM20 5.25C20.4142 5.25 20.75 5.58579 20.75 6C20.75 6.41421 20.4142 6.75 20 6.75H3C2.58579 6.75 2.25 6.41421 2.25 6C2.25 5.58579 2.58579 5.25 3 5.25H20Z" fill="#48465C"/>
</svg>
