<svg width="24" height="24" viewBox="0 0 24 24" fill="none" xmlns="http://www.w3.org/2000/svg">
<path d="M17.5 12.8535C18.3245 12.272 19.2594 12.0915 20.0947 12.3926C21.13 12.7659 21.75 13.7847 21.75 15.0361C21.75 15.9337 21.2257 16.7454 20.6943 17.3574C20.1419 17.9936 19.462 18.5492 18.9238 18.9453C18.8993 18.9633 18.8745 18.9815 18.8496 19C18.4898 19.2669 18.0811 19.5703 17.5 19.5703C16.9189 19.5703 16.5102 19.2669 16.1504 19C16.1255 18.9815 16.1007 18.9633 16.0762 18.9453C15.538 18.5492 14.8581 17.9936 14.3057 17.3574C13.7743 16.7454 13.25 15.9337 13.25 15.0361C13.25 13.7847 13.87 12.7659 14.9053 12.3926C15.7406 12.0915 16.6755 12.272 17.5 12.8535ZM10 17.25C10.4142 17.25 10.75 17.5858 10.75 18C10.75 18.4142 10.4142 18.75 10 18.75H3C2.58579 18.75 2.25 18.4142 2.25 18C2.25 17.5858 2.58579 17.25 3 17.25H10ZM19.5859 13.8037C19.2489 13.6823 18.6666 13.7336 18.0264 14.3643C17.7344 14.6516 17.2656 14.6516 16.9736 14.3643C16.3334 13.7336 15.7511 13.6823 15.4141 13.8037C15.0932 13.9194 14.75 14.2796 14.75 15.0361C14.75 15.3733 14.9686 15.8329 15.4385 16.374C15.8873 16.8909 16.4677 17.3706 16.9648 17.7363C17.1981 17.908 17.3122 17.9904 17.4033 18.0391C17.4617 18.0702 17.4785 18.0703 17.498 18.0703H17.502C17.5215 18.0703 17.5383 18.0702 17.5967 18.0391C17.6879 17.9904 17.802 17.908 18.0352 17.7363C18.5323 17.3706 19.1127 16.8909 19.5615 16.374C20.0314 15.8329 20.25 15.3733 20.25 15.0361C20.25 14.2796 19.9068 13.9194 19.5859 13.8037ZM10 13.25C10.4142 13.25 10.75 13.5858 10.75 14C10.75 14.4142 10.4142 14.75 10 14.75H3C2.58579 14.75 2.25 14.4142 2.25 14C2.25 13.5858 2.58579 13.25 3 13.25H10ZM21 9.25C21.4142 9.25 21.75 9.58579 21.75 10C21.75 10.4142 21.4142 10.75 21 10.75H3C2.58579 10.75 2.25 10.4142 2.25 10C2.25 9.58579 2.58579 9.25 3 9.25H21ZM21 5.25C21.4142 5.25 21.75 5.58579 21.75 6C21.75 6.41421 21.4142 6.75 21 6.75H3C2.58579 6.75 2.25 6.41421 2.25 6C2.25 5.58579 2.58579 5.25 3 5.25H21Z" fill="#1C274C"/>
</svg>
