<svg width="24" height="24" viewBox="0 0 24 24" fill="none" xmlns="http://www.w3.org/2000/svg">
<path fill-rule="evenodd" clip-rule="evenodd" d="M9.94519 1.25H14.055C15.4226 1.24998 16.5249 1.24996 17.3919 1.36652C18.292 1.48754 19.0498 1.74643 19.6518 2.34835C20.2537 2.95027 20.5126 3.70814 20.6336 4.60825C20.7501 5.47522 20.7501 6.57754 20.7501 7.94513V16.0549C20.7501 17.4225 20.7501 18.5248 20.6336 19.3918C20.5126 20.2919 20.2537 21.0497 19.6518 21.6517C19.0498 22.2536 18.292 22.5125 17.3919 22.6335C16.5249 22.75 15.4226 22.75 14.055 22.75H9.94519C8.5776 22.75 7.47528 22.75 6.60831 22.6335C5.7082 22.5125 4.95033 22.2536 4.34841 21.6517C3.7465 21.0497 3.4876 20.2919 3.36659 19.3918C3.32789 19.1039 3.30204 18.7902 3.28478 18.4494C3.2457 18.326 3.23809 18.1912 3.26882 18.0568C3.25004 17.4649 3.25005 16.7991 3.25006 16.0549V7.94513C3.25004 6.57754 3.25003 5.47522 3.36659 4.60825C3.4876 3.70814 3.7465 2.95027 4.34841 2.34835C4.95033 1.74643 5.7082 1.48754 6.60831 1.36652C7.47528 1.24996 8.5776 1.24998 9.94519 1.25ZM4.77682 18.2491C4.79202 18.6029 4.81585 18.914 4.85321 19.1919C4.95186 19.9257 5.13231 20.3142 5.40907 20.591C5.68584 20.8678 6.07441 21.0482 6.80818 21.1469C7.56353 21.2484 8.56465 21.25 10.0001 21.25H14.0001C15.4355 21.25 16.4366 21.2484 17.192 21.1469C17.9258 21.0482 18.3143 20.8678 18.5911 20.591C18.8679 20.3142 19.0483 19.9257 19.147 19.1919C19.2298 18.5756 19.2461 17.7958 19.2493 16.75H13.7501V19.5309C13.7501 19.5396 13.7501 19.5485 13.7501 19.5578C13.7503 19.6691 13.7505 19.8276 13.7292 19.9638C13.7032 20.1302 13.6177 20.4514 13.285 20.6468C12.9646 20.8349 12.6513 20.765 12.5023 20.7187C12.3725 20.6783 12.2301 20.6105 12.1239 20.56C12.1155 20.556 12.1073 20.5521 12.0994 20.5483L11.0001 20.0261L9.90075 20.5483C9.89282 20.5521 9.88464 20.5559 9.87624 20.56C9.77008 20.6105 9.62769 20.6783 9.49784 20.7187C9.3489 20.765 9.03555 20.8349 8.71518 20.6468C8.38251 20.4514 8.29693 20.1302 8.27092 19.9638C8.24964 19.8276 8.24987 19.6691 8.25004 19.5578C8.25005 19.5485 8.25006 19.5396 8.25006 19.5309V16.75H7.89784C6.91958 16.75 6.57758 16.7564 6.3155 16.8267C5.59618 17.0194 5.02274 17.5541 4.77682 18.2491ZM9.75006 16.75V18.9592L10.4994 18.6033C10.5013 18.6024 10.5042 18.6009 10.5082 18.5989C10.5572 18.5738 10.7638 18.4682 11.0001 18.4682C11.2364 18.4682 11.443 18.5738 11.492 18.5989C11.496 18.6009 11.499 18.6024 11.5008 18.6033L12.2501 18.9592V16.75H9.75006ZM7.89784 15.25C7.85867 15.25 7.82007 15.25 7.78204 15.25C6.96408 15.2497 6.40593 15.2495 5.92727 15.3778C5.49929 15.4925 5.1023 15.6798 4.75006 15.9259V8C4.75006 6.56458 4.75166 5.56347 4.85321 4.80812C4.95186 4.07435 5.13231 3.68577 5.40907 3.40901C5.68584 3.13225 6.07441 2.9518 6.80818 2.85315C7.56353 2.75159 8.56465 2.75 10.0001 2.75H14.0001C15.4355 2.75 16.4366 2.75159 17.192 2.85315C17.9258 2.9518 18.3143 3.13225 18.5911 3.40901C18.8679 3.68577 19.0483 4.07435 19.147 4.80812C19.2485 5.56347 19.2501 6.56458 19.2501 8V15.25H7.89784ZM7.25006 7C7.25006 6.58579 7.58585 6.25 8.00006 6.25H16.0001C16.4143 6.25 16.7501 6.58579 16.7501 7C16.7501 7.41421 16.4143 7.75 16.0001 7.75H8.00006C7.58585 7.75 7.25006 7.41421 7.25006 7ZM7.25006 10.5C7.25006 10.0858 7.58585 9.75 8.00006 9.75H13.0001C13.4143 9.75 13.7501 10.0858 13.7501 10.5C13.7501 10.9142 13.4143 11.25 13.0001 11.25H8.00006C7.58585 11.25 7.25006 10.9142 7.25006 10.5Z" fill="#1C274C"/>
</svg>
