<svg width="24" height="24" viewBox="0 0 24 24" fill="none" xmlns="http://www.w3.org/2000/svg">
<path d="M14.0552 1.25C15.4226 1.24998 16.5252 1.24966 17.3921 1.36621C18.2921 1.48725 19.0499 1.74678 19.6519 2.34863C20.2536 2.95051 20.5123 3.70842 20.6333 4.6084C20.7498 5.47535 20.7495 6.57779 20.7495 7.94531V16.0547C20.7495 17.4222 20.7498 18.5246 20.6333 19.3916C20.5123 20.2916 20.2536 21.0494 19.6519 21.6514C19.0499 22.2532 18.292 22.5128 17.3921 22.6338C16.5252 22.7503 15.4226 22.75 14.0552 22.75H9.94482C8.57734 22.75 7.47483 22.7503 6.60791 22.6338C5.7079 22.5128 4.95002 22.2532 4.34814 21.6514C3.7464 21.0494 3.48769 20.2916 3.3667 19.3916C3.32801 19.1037 3.30192 18.79 3.28467 18.4492C3.24563 18.3259 3.23833 18.191 3.26904 18.0566C3.25027 17.4648 3.2495 16.7988 3.24951 16.0547V7.94531C3.24949 6.57778 3.25015 5.47535 3.3667 4.6084C3.4877 3.70839 3.74638 2.95052 4.34814 2.34863C4.95002 1.74676 5.7079 1.48724 6.60791 1.36621C7.47483 1.24966 8.57734 1.24998 9.94482 1.25H14.0552ZM7.89795 16.75C6.91969 16.75 6.57702 16.7568 6.31494 16.8271C5.5959 17.02 5.02274 17.5542 4.77686 18.249C4.79206 18.6028 4.81567 18.9145 4.85303 19.1924C4.95167 19.9257 5.13211 20.3141 5.40869 20.5908C5.68546 20.8676 6.07434 21.0478 6.80811 21.1465C7.56338 21.248 8.56433 21.25 9.99951 21.25H13.9995C15.4349 21.25 16.4365 21.248 17.1919 21.1465C17.9256 21.0478 18.3145 20.8676 18.5913 20.5908C18.8679 20.3141 19.0483 19.9256 19.147 19.1924C19.2298 18.5761 19.2463 17.7958 19.2495 16.75H13.7495V19.5576C13.7497 19.6689 13.7503 19.8277 13.729 19.9639C13.703 20.1303 13.6173 20.4511 13.2847 20.6465C12.9645 20.8345 12.6516 20.7651 12.5024 20.7188C12.3726 20.6784 12.2297 20.6101 12.1235 20.5596C12.1152 20.5556 12.1069 20.5516 12.0991 20.5479L10.9995 20.0264L9.90088 20.5479C9.89309 20.5516 9.8847 20.5556 9.87646 20.5596C9.7703 20.6101 9.62741 20.6784 9.49756 20.7188C9.34857 20.765 9.03557 20.8345 8.71533 20.6465C8.38273 20.4511 8.29702 20.1303 8.271 19.9639C8.24972 19.8277 8.24934 19.6689 8.24951 19.5576V16.75H7.89795ZM9.74951 18.959L10.4995 18.6035C10.5014 18.6026 10.5044 18.6006 10.5083 18.5986C10.5579 18.5732 10.7639 18.4679 10.9995 18.4678C11.2355 18.4678 11.4423 18.5733 11.4917 18.5986C11.4957 18.6006 11.4987 18.6026 11.5005 18.6035L12.2495 18.959V16.75H9.74951V18.959ZM9.99951 2.75C8.56433 2.75 7.56338 2.75197 6.80811 2.85352C6.07434 2.95217 5.68546 3.13242 5.40869 3.40918C5.13205 3.68593 4.95165 4.07501 4.85303 4.80859C4.75154 5.56389 4.74951 6.56488 4.74951 8V15.9258C5.10175 15.6797 5.49927 15.4926 5.92725 15.3779C6.40586 15.2497 6.96391 15.2497 7.78174 15.25H19.2495V8C19.2495 6.56489 19.2484 5.56389 19.147 4.80859C19.0483 4.07507 18.868 3.68592 18.5913 3.40918C18.3145 3.13243 17.9256 2.95217 17.1919 2.85352C16.4365 2.75196 15.4349 2.75 13.9995 2.75H9.99951ZM12.9995 9.75C13.4137 9.75 13.7495 10.0858 13.7495 10.5C13.7495 10.9142 13.4137 11.25 12.9995 11.25H7.99951C7.58549 11.2498 7.24951 10.9141 7.24951 10.5C7.24951 10.0859 7.58549 9.75022 7.99951 9.75H12.9995ZM15.9995 6.25C16.4137 6.25 16.7495 6.58579 16.7495 7C16.7495 7.41421 16.4137 7.75 15.9995 7.75H7.99951C7.58549 7.74978 7.24951 7.41407 7.24951 7C7.24951 6.58593 7.58549 6.25022 7.99951 6.25H15.9995Z" fill="#48465C"/>
</svg>
