<svg width="24" height="24" viewBox="0 0 24 24" fill="none" xmlns="http://www.w3.org/2000/svg">
<path d="M18.0518 1.25C18.9503 1.24997 19.7001 1.25012 20.2949 1.33008C20.9226 1.41452 21.489 1.6003 21.9443 2.05566C22.3997 2.51102 22.5855 3.07748 22.6699 3.70508C22.7499 4.29987 22.75 5.04976 22.75 5.94824V8.05176C22.75 8.95024 22.7499 9.70012 22.6699 10.2949C22.5855 10.9225 22.3997 11.489 21.9443 11.9443C21.489 12.3997 20.9225 12.5855 20.2949 12.6699C19.7001 12.7499 18.9503 12.75 18.0518 12.75H17.75V13.0518C17.75 13.9503 17.7499 14.7001 17.6699 15.2949C17.5855 15.9225 17.3997 16.489 16.9443 16.9443C16.489 17.3997 15.9225 17.5855 15.2949 17.6699C14.7001 17.7499 13.9503 17.75 13.0518 17.75H12.75V18.0518C12.75 18.9503 12.7499 19.7001 12.6699 20.2949C12.5855 20.9225 12.3997 21.489 11.9443 21.9443C11.489 22.3997 10.9225 22.5855 10.2949 22.6699C9.70012 22.7499 8.95024 22.75 8.05176 22.75H5.94824C5.04976 22.75 4.29987 22.7499 3.70508 22.6699C3.07748 22.5855 2.51102 22.3997 2.05566 21.9443C1.6003 21.489 1.41452 20.9226 1.33008 20.2949C1.25012 19.7001 1.24997 18.9503 1.25 18.0518V15.9482C1.24997 15.0497 1.25012 14.2999 1.33008 13.7051C1.41452 13.0775 1.6003 12.511 2.05566 12.0557C2.51102 11.6003 3.07748 11.4145 3.70508 11.3301C4.29987 11.2501 5.04976 11.25 5.94824 11.25H6.25V10.9482C6.24997 10.0497 6.25012 9.29987 6.33008 8.70508C6.41452 8.07747 6.6003 7.51102 7.05566 7.05566C7.51102 6.6003 8.07747 6.41452 8.70508 6.33008C9.29987 6.25012 10.0497 6.24997 10.9482 6.25H11.25V5.94824C11.25 5.04976 11.2501 4.29987 11.3301 3.70508C11.4145 3.07748 11.6003 2.51102 12.0557 2.05566C12.511 1.6003 13.0775 1.41452 13.7051 1.33008C14.2999 1.25012 15.0497 1.24997 15.9482 1.25H18.0518ZM6 12.75C5.03599 12.75 4.38831 12.7515 3.90527 12.8164C3.44389 12.8785 3.24652 12.9859 3.11621 13.1162C2.98591 13.2465 2.87845 13.4439 2.81641 13.9053C2.75147 14.3883 2.75 15.036 2.75 16V18C2.75 18.964 2.75147 19.6117 2.81641 20.0947C2.87845 20.5561 2.98591 20.7535 3.11621 20.8838C3.24652 21.0141 3.44389 21.1215 3.90527 21.1836C4.38831 21.2485 5.03599 21.25 6 21.25H8C8.96401 21.25 9.6117 21.2485 10.0947 21.1836C10.5561 21.1215 10.7535 21.0141 10.8838 20.8838C11.0141 20.7535 11.1215 20.5561 11.1836 20.0947C11.2485 19.6117 11.25 18.964 11.25 18V17.75H10.9482C10.0497 17.75 9.29987 17.7499 8.70508 17.6699C8.07748 17.5855 7.51102 17.3997 7.05566 16.9443C6.6003 16.489 6.41452 15.9225 6.33008 15.2949C6.25012 14.7001 6.24997 13.9503 6.25 13.0518V12.75H6ZM11 7.75C10.036 7.75 9.38831 7.75147 8.90527 7.81641C8.44388 7.87845 8.24652 7.9859 8.11621 8.11621C7.9859 8.24652 7.87845 8.44388 7.81641 8.90527C7.75147 9.38831 7.75 10.036 7.75 11V13C7.75 13.964 7.75147 14.6117 7.81641 15.0947C7.87845 15.5561 7.98591 15.7535 8.11621 15.8838C8.24652 16.0141 8.44389 16.1215 8.90527 16.1836C9.38831 16.2485 10.036 16.25 11 16.25H13C13.964 16.25 14.6117 16.2485 15.0947 16.1836C15.5561 16.1215 15.7535 16.0141 15.8838 15.8838C16.0141 15.7535 16.1215 15.5561 16.1836 15.0947C16.2485 14.6117 16.25 13.964 16.25 13V12.75H15.9482C15.0497 12.75 14.2999 12.7499 13.7051 12.6699C13.0775 12.5855 12.511 12.3997 12.0557 11.9443C11.6003 11.489 11.4145 10.9225 11.3301 10.2949C11.2501 9.70012 11.25 8.95024 11.25 8.05176V7.75H11ZM16 2.75C15.036 2.75 14.3883 2.75147 13.9053 2.81641C13.4439 2.87845 13.2465 2.98591 13.1162 3.11621C12.9859 3.24652 12.8785 3.44389 12.8164 3.90527C12.7515 4.38831 12.75 5.03599 12.75 6V8C12.75 8.96401 12.7515 9.6117 12.8164 10.0947C12.8785 10.5561 12.9859 10.7535 13.1162 10.8838C13.2465 11.0141 13.4439 11.1215 13.9053 11.1836C14.3883 11.2485 15.036 11.25 16 11.25H18C18.964 11.25 19.6117 11.2485 20.0947 11.1836C20.5561 11.1215 20.7535 11.0141 20.8838 10.8838C21.0141 10.7535 21.1215 10.5561 21.1836 10.0947C21.2485 9.6117 21.25 8.96401 21.25 8V6C21.25 5.03599 21.2485 4.38831 21.1836 3.90527C21.1215 3.44389 21.0141 3.24652 20.8838 3.11621C20.7535 2.98591 20.5561 2.87845 20.0947 2.81641C19.6117 2.75147 18.964 2.75 18 2.75H16Z" fill="#1C274C"/>
</svg>
