<svg width="24" height="24" viewBox="0 0 24 24" fill="none" xmlns="http://www.w3.org/2000/svg">
<path d="M7.625 15C8.67337 15 9.19784 15.0001 9.61133 15.1777C10.1626 15.4146 10.6008 15.8688 10.8291 16.4404C11.0003 16.8692 11 17.4129 11 18.5C11 19.5871 11.0003 20.1308 10.8291 20.5596C10.6008 21.1312 10.1626 21.5854 9.61133 21.8223C9.19784 21.9999 8.67337 22 7.625 22H5.375C4.32663 22 3.80216 21.9999 3.38867 21.8223C2.8375 21.5854 2.39922 21.1312 2.1709 20.5596C1.99969 20.1308 2 19.5871 2 18.5C2 17.4129 1.99969 16.8692 2.1709 16.4404C2.39922 15.8688 2.8375 15.4146 3.38867 15.1777C3.80216 15.0001 4.32663 15 5.375 15H7.625ZM17.5 11C19.6213 11 20.6818 11.0002 21.3408 11.6445C21.9998 12.2888 22 13.3262 22 15.4004V17.5996C22 19.6738 21.9998 20.7112 21.3408 21.3555C20.6818 21.9998 19.6213 22 17.5 22C15.3787 22 14.3182 21.9998 13.6592 21.3555C13.0002 20.7112 13 19.6738 13 17.5996V15.4004C13 13.3262 13.0002 12.2888 13.6592 11.6445C14.3182 11.0002 15.3787 11 17.5 11ZM6.5 2C8.62131 2 9.6818 2.00017 10.3408 2.64453C10.9998 3.28889 11 4.32621 11 6.40039V8.59961C11 10.6738 10.9998 11.7112 10.3408 12.3555C9.6818 12.9998 8.62129 13 6.5 13C4.3787 13 3.31819 12.9998 2.65918 12.3555C2.00017 11.7112 2 10.6738 2 8.59961V6.40039C2 4.32621 2.00017 3.28889 2.65918 2.64453C3.31819 2.00017 4.37869 2 6.5 2ZM18.625 2C19.6734 2 20.1979 2.00012 20.6113 2.17773C21.1626 2.41459 21.6008 2.8688 21.8291 3.44043C22.0003 3.8692 22 4.41293 22 5.5C22 6.58707 22.0003 7.1308 21.8291 7.55957C21.6008 8.1312 21.1626 8.58541 20.6113 8.82227C20.1979 8.99988 19.6734 9 18.625 9H16.375C15.3266 9 14.8021 8.99988 14.3887 8.82227C13.8374 8.58541 13.3992 8.1312 13.1709 7.55957C12.9997 7.1308 13 6.58707 13 5.5C13 4.41293 12.9997 3.8692 13.1709 3.44043C13.3992 2.8688 13.8374 2.41459 14.3887 2.17773C14.8021 2.00012 15.3266 2 16.375 2H18.625Z" fill="#1C274C"/>
</svg>
