<svg width="24" height="24" viewBox="0 0 24 24" fill="none" xmlns="http://www.w3.org/2000/svg">
<path d="M9.65698 3.91406C11.0266 2.81841 12.973 2.81841 14.3425 3.91406L22.4685 10.4141C22.792 10.6728 22.8444 11.1453 22.5857 11.4688C22.327 11.7919 21.8554 11.8443 21.532 11.5859L20.7498 10.9609V21.25H21.9998C22.414 21.25 22.7498 21.5858 22.7498 22C22.7498 22.4142 22.414 22.75 21.9998 22.75H1.99976C1.58568 22.7498 1.24976 22.4141 1.24976 22C1.24976 21.5859 1.58568 21.2502 1.99976 21.25H3.24976V10.9609L2.46851 11.5859C2.14517 11.8444 1.67356 11.7918 1.41479 11.4688C1.15604 11.1453 1.20854 10.6728 1.53198 10.4141L9.65698 3.91406ZM11.9509 13.25C11.2863 13.25 10.7133 13.2499 10.2546 13.3115C9.763 13.3776 9.29118 13.5269 8.90894 13.9092C8.52685 14.2913 8.37738 14.7624 8.31128 15.2539C8.24962 15.7126 8.24972 16.2855 8.24976 16.9502V21.25H9.74976V17C9.74976 16.2717 9.75195 15.801 9.79858 15.4541C9.84228 15.1291 9.91242 15.0268 9.96948 14.9697C10.0266 14.9126 10.1287 14.8416 10.4539 14.7979C10.8007 14.7512 11.2716 14.75 11.9998 14.75C12.7278 14.75 13.1988 14.7513 13.5457 14.7979C13.8707 14.8415 13.9729 14.9127 14.03 14.9697C14.0871 15.0268 14.1582 15.1288 14.2019 15.4541C14.2485 15.801 14.2498 16.2717 14.2498 17V21.25H15.7498V16.8271C15.7496 16.2147 15.7461 15.684 15.6882 15.2539C15.6221 14.7624 15.4728 14.2914 15.0906 13.9092C14.7084 13.527 14.2374 13.3776 13.7458 13.3115C13.2871 13.2499 12.7143 13.25 12.0496 13.25H11.9509ZM11.9998 6.75C10.4811 6.75017 9.24976 7.98132 9.24976 9.5C9.24976 11.0187 10.4811 12.2498 11.9998 12.25C13.5185 12.25 14.7498 11.0188 14.7498 9.5C14.7498 7.98122 13.5185 6.75 11.9998 6.75ZM11.9998 8.25C12.6901 8.25 13.2498 8.80964 13.2498 9.5C13.2498 10.1904 12.6901 10.75 11.9998 10.75C11.3095 10.7498 10.7498 10.1903 10.7498 9.5C10.7498 8.80975 11.3095 8.25016 11.9998 8.25ZM18.4998 3C18.7759 3 18.9998 3.22386 18.9998 3.5V6.35938L15.4998 3.55859V3.5C15.4998 3.22396 15.7238 3.00017 15.9998 3H18.4998Z" fill="#48465C"/>
</svg>
