<svg width="24" height="24" viewBox="0 0 24 24" fill="none" xmlns="http://www.w3.org/2000/svg">
<path d="M11.9995 3.25C14.2196 3.25 16.2469 4.07699 17.7896 5.43945C18.8064 5.25705 19.7378 5.19719 20.5093 5.30078C21.2796 5.40423 22.0454 5.69422 22.4653 6.36523C22.9115 7.07852 22.7766 7.90701 22.4526 8.62305C22.1234 9.35066 21.5347 10.1222 20.7808 10.8916C20.7514 10.9217 20.7209 10.9514 20.6909 10.9814C20.7296 11.3156 20.7495 11.6555 20.7495 12C20.7495 16.8325 16.832 20.75 11.9995 20.75C9.77964 20.7499 7.75306 19.9229 6.21045 18.5605C5.22425 18.7374 4.32156 18.7985 3.56787 18.709C2.76774 18.614 1.96744 18.3264 1.53467 17.6348C1.06387 16.8823 1.23895 16.0041 1.60498 15.2549C1.95458 14.5395 2.5501 13.7799 3.30908 13.0186C3.27035 12.6844 3.24951 12.3445 3.24951 12C3.24951 7.16766 7.16723 3.25025 11.9995 3.25ZM19.2446 12.2812C17.8628 13.4075 16.1323 14.5493 14.1831 15.5879C12.0618 16.718 9.95814 17.5781 8.1001 18.1133C9.22597 18.833 10.5642 19.2499 11.9995 19.25C15.9094 19.25 19.0968 16.1549 19.2446 12.2812ZM3.70752 14.7998C3.36447 15.2103 3.11307 15.5857 2.95264 15.9141C2.67556 16.4813 2.74466 16.7391 2.80713 16.8389C2.88009 16.9553 3.11226 17.1446 3.74463 17.2197C4.08666 17.2604 4.49919 17.2607 4.9751 17.2178C4.43402 16.4905 4.00331 15.6761 3.70752 14.7998ZM11.9995 4.75C7.99566 4.75025 4.74951 7.99609 4.74951 12C4.74951 13.9048 5.48474 15.6378 6.68604 16.9316C8.62794 16.4833 11.0215 15.5733 13.478 14.2646C15.7714 13.0426 17.7079 11.6927 19.0825 10.4434C18.3702 7.18738 15.4693 4.75 11.9995 4.75ZM20.3101 6.78711C19.9588 6.73994 19.5276 6.73685 19.0249 6.78223C19.566 7.50952 19.9967 8.32385 20.2925 9.2002C20.6665 8.75258 20.9304 8.34967 21.0864 8.00488C21.3191 7.49071 21.2523 7.25594 21.1929 7.16113C21.1226 7.0489 20.9041 6.86694 20.3101 6.78711Z" fill="#1C274C"/>
</svg>
