<svg width="24" height="24" viewBox="0 0 24 24" fill="none" xmlns="http://www.w3.org/2000/svg">
<path d="M16.9241 13.3916C17.1301 12.8695 17.8694 12.8695 18.0754 13.3916L18.9758 15.6748C19.0387 15.8342 19.1651 15.9605 19.3245 16.0234L21.6086 16.9238C22.1306 17.1298 22.1305 17.8691 21.6086 18.0752L19.3245 18.9756C19.1651 19.0385 19.0387 19.1648 18.9758 19.3242L18.0754 21.6084C17.8693 22.1302 17.1301 22.1304 16.9241 21.6084L16.0237 19.3242C15.9607 19.1648 15.8345 19.0385 15.675 18.9756L13.3918 18.0752C12.8697 17.8692 12.8697 17.1298 13.3918 16.9238L15.675 16.0234C15.8345 15.9605 15.9608 15.8343 16.0237 15.6748L16.9241 13.3916ZM7.45239 2.71289C7.82715 1.76267 9.17236 1.76267 9.54712 2.71289L10.7083 5.65723C10.8227 5.94733 11.0529 6.17661 11.343 6.29102L14.2874 7.45215C15.2376 7.8269 15.2376 9.17209 14.2874 9.54688L11.343 10.708C11.0529 10.8224 10.8227 11.0527 10.7083 11.3428L9.54712 14.2871C9.17233 15.2374 7.82715 15.2374 7.45239 14.2871L6.29126 11.3428C6.17685 11.0527 5.94757 10.8224 5.65747 10.708L2.71313 9.54688C1.76291 9.17211 1.76291 7.82691 2.71313 7.45215L5.65747 6.29102C5.94742 6.17661 6.17685 5.94718 6.29126 5.65723L7.45239 2.71289Z" fill="#48465C"/>
</svg>
