<svg width="24" height="24" viewBox="0 0 24 24" fill="none" xmlns="http://www.w3.org/2000/svg">
<path d="M22 20.25C22.4142 20.25 22.75 20.5858 22.75 21C22.75 21.4142 22.4142 21.75 22 21.75H2C1.58579 21.75 1.25 21.4142 1.25 21C1.25 20.5858 1.58579 20.25 2 20.25H22ZM16.0518 7.25C16.9503 7.24997 17.7001 7.25012 18.2949 7.33008C18.9225 7.41452 19.489 7.6003 19.9443 8.05566C20.3997 8.51102 20.5855 9.07748 20.6699 9.70508C20.7499 10.2999 20.75 11.0497 20.75 11.9482V12.0518C20.75 12.9503 20.7499 13.7001 20.6699 14.2949C20.5855 14.9225 20.3997 15.489 19.9443 15.9443C19.489 16.3997 18.9225 16.5855 18.2949 16.6699C17.7001 16.7499 16.9503 16.75 16.0518 16.75H7.94824C7.04975 16.75 6.29986 16.7499 5.70508 16.6699C5.07748 16.5855 4.51102 16.3997 4.05566 15.9443C3.6003 15.489 3.41452 14.9225 3.33008 14.2949C3.25012 13.7001 3.24997 12.9503 3.25 12.0518V11.9482C3.24997 11.0497 3.25012 10.2999 3.33008 9.70508C3.41452 9.07747 3.6003 8.51102 4.05566 8.05566C4.51102 7.6003 5.07747 7.41452 5.70508 7.33008C6.29986 7.25012 7.04975 7.24997 7.94824 7.25H16.0518ZM8 8.75C7.03599 8.75 6.38831 8.75147 5.90527 8.81641C5.44388 8.87845 5.24651 8.9859 5.11621 9.11621C4.9859 9.24652 4.87845 9.44388 4.81641 9.90527C4.75146 10.3883 4.75 11.036 4.75 12C4.75 12.964 4.75146 13.6117 4.81641 14.0947C4.87845 14.5561 4.98591 14.7535 5.11621 14.8838C5.24651 15.0141 5.44389 15.1215 5.90527 15.1836C6.38831 15.2485 7.03599 15.25 8 15.25H16C16.964 15.25 17.6117 15.2485 18.0947 15.1836C18.5561 15.1215 18.7535 15.0141 18.8838 14.8838C19.0141 14.7535 19.1215 14.5561 19.1836 14.0947C19.2485 13.6117 19.25 12.964 19.25 12C19.25 11.036 19.2485 10.3883 19.1836 9.90527C19.1215 9.44389 19.0141 9.24652 18.8838 9.11621C18.7535 8.98591 18.5561 8.87845 18.0947 8.81641C17.6117 8.75147 16.964 8.75 16 8.75H8ZM22 2.25C22.4142 2.25 22.75 2.58579 22.75 3C22.75 3.41422 22.4142 3.75 22 3.75H2C1.58579 3.75 1.25 3.41421 1.25 3C1.25 2.58579 1.58579 2.25 2 2.25H22Z" fill="#48465C"/>
</svg>
