<svg width="24" height="24" viewBox="0 0 24 24" fill="none" xmlns="http://www.w3.org/2000/svg">
<path d="M12.09 2.03467C13.1784 1.79456 14.1922 2.80875 16.2189 4.8374L19.1838 7.80518C21.1956 9.81895 22.2017 10.8262 21.967 11.9116C21.7321 12.9969 20.4002 13.4978 17.7365 14.4985L15.8918 15.1909C15.1787 15.4588 14.8223 15.5932 14.5471 15.8315C14.4266 15.9358 14.3187 16.0538 14.2258 16.1831C14.0134 16.4791 13.9116 16.8472 13.7092 17.5825C13.249 19.255 13.0188 20.0911 12.4709 20.4038C12.24 20.5354 11.9788 20.6044 11.7131 20.604C11.0825 20.6029 10.4696 19.9897 9.24432 18.7632L7.7785 17.2964L3.30194 21.7759C3.00401 22.0741 2.52175 22.0741 2.22382 21.7759C1.92595 21.4777 1.92593 20.995 2.22382 20.6968L6.6994 16.2163L5.28436 14.8003C4.0666 13.5813 3.45824 12.9711 3.45428 12.3442C3.45263 12.0732 3.5232 11.8065 3.65839 11.5718C3.97137 11.0289 4.80131 10.7998 6.46112 10.3423C7.19768 10.1392 7.56644 10.0378 7.86249 9.82471C7.99534 9.72907 8.11664 9.6173 8.22284 9.49268C8.45933 9.21502 8.59074 8.85588 8.8537 8.13818L9.52167 6.31494C10.5084 3.62176 11.002 2.275 12.09 2.03467Z" fill="#1C274C"/>
</svg>
