<svg width="24" height="24" viewBox="0 0 24 24" fill="none" xmlns="http://www.w3.org/2000/svg">
<path d="M12.0901 2.03467C13.1785 1.79456 14.1923 2.80875 16.219 4.8374L19.1838 7.80518C21.1956 9.81895 22.2017 10.8262 21.967 11.9116C21.7322 12.9969 20.4002 13.4978 17.7366 14.4985L15.8918 15.1909C15.1787 15.4588 14.8224 15.5932 14.5471 15.8315C14.4266 15.9358 14.3188 16.0538 14.2258 16.1831C14.0134 16.4791 13.9116 16.8472 13.7092 17.5825C13.2491 19.255 13.0188 20.0911 12.4709 20.4038C12.2401 20.5354 11.9789 20.6044 11.7131 20.604C11.0825 20.6029 10.4697 19.9897 9.24438 18.7632L7.77856 17.2964L3.302 21.7759C3.00407 22.0741 2.52181 22.0741 2.22388 21.7759C1.92601 21.4777 1.92599 20.995 2.22388 20.6968L6.69946 16.2163L5.28442 14.8003C4.06666 13.5813 3.45831 12.9711 3.45435 12.3442C3.45269 12.0732 3.52326 11.8065 3.65845 11.5718C3.97143 11.0289 4.80138 10.7998 6.46118 10.3423C7.19774 10.1392 7.5665 10.0378 7.86255 9.82471C7.9954 9.72907 8.1167 9.6173 8.2229 9.49268C8.45939 9.21502 8.5908 8.85588 8.85376 8.13818L9.52173 6.31494C10.5085 3.62176 11.002 2.275 12.0901 2.03467Z" fill="#48465C"/>
</svg>
