<svg width="24" height="24" viewBox="0 0 24 24" fill="none" xmlns="http://www.w3.org/2000/svg">
<path d="M12 2C17.5228 2 22 6.47715 22 12C22 17.5228 17.5228 22 12 22C6.47715 22 2 17.5228 2 12C2 6.47715 6.47715 2 12 2ZM12 7.25C11.5858 7.25 11.25 7.58579 11.25 8V14.1895L9.53027 12.4697C9.23739 12.1768 8.76261 12.1768 8.46973 12.4697C8.17684 12.7626 8.17684 13.2374 8.46973 13.5303L11.4697 16.5303C11.7626 16.8232 12.2374 16.8232 12.5303 16.5303L15.5303 13.5303C15.8232 13.2374 15.8232 12.7626 15.5303 12.4697C15.2374 12.1768 14.7626 12.1768 14.4697 12.4697L12.75 14.1895V8C12.75 7.58579 12.4142 7.25 12 7.25Z" fill="#1C274C"/>
</svg>
