<svg width="24" height="24" viewBox="0 0 24 24" fill="none" xmlns="http://www.w3.org/2000/svg">
<path d="M20 21.2505C20.4142 21.2505 20.75 21.5863 20.75 22.0005C20.7498 22.4145 20.414 22.7505 20 22.7505H4C3.58594 22.7505 3.25025 22.4145 3.25 22.0005C3.25 21.5863 3.58579 21.2505 4 21.2505H20ZM12.9883 4.56299C13.3233 5.36821 13.8735 6.32209 14.7754 7.22412C15.6773 8.12605 16.6313 8.67705 17.4365 9.01221L11.5205 14.9292C11.059 15.3907 10.8277 15.6213 10.5732 15.8198C10.273 16.054 9.94729 16.2547 9.60352 16.4185C9.31222 16.5573 9.00285 16.6613 8.38379 16.8677L5.11621 17.9565C4.81149 18.058 4.47516 17.9785 4.24805 17.7515C4.02098 17.5243 3.94235 17.1881 4.04395 16.8833L5.13281 13.6167C5.33928 12.9973 5.4422 12.6874 5.58105 12.396C5.74485 12.0523 5.94557 11.7274 6.17969 11.4272C6.37823 11.1726 6.6096 10.9417 7.07129 10.48L12.9883 4.56299ZM14.6299 2.92139C15.8584 1.69299 17.8506 1.69288 19.0791 2.92139C20.3073 4.14992 20.3074 6.1421 19.0791 7.37061L18.3691 8.08057C18.34 8.07093 18.3102 8.06067 18.2803 8.05029C17.5306 7.7902 16.5472 7.29964 15.624 6.37646C14.7007 5.45325 14.2103 4.46993 13.9502 3.72021C13.9397 3.6902 13.9296 3.66059 13.9199 3.63135L14.6299 2.92139Z" fill="#48465C"/>
</svg>
