<svg width="24" height="24" viewBox="0 0 24 24" fill="none" xmlns="http://www.w3.org/2000/svg">
<path d="M12 2C17.5228 2 22 6.47715 22 12C22 17.5228 17.5228 22 12 22C6.47715 22 2 17.5228 2 12C2 6.47715 6.47715 2 12 2ZM15.1006 8.50195C14.4409 8.05369 13.2853 8.51554 10.9756 9.43945C10.4834 9.63634 10.2371 9.73505 10.0439 9.9043C9.99485 9.94734 9.94834 9.99394 9.90527 10.043C9.7358 10.2363 9.63652 10.4829 9.43945 10.9756C8.5157 13.285 8.05409 14.44 8.50195 15.0996C8.60823 15.256 8.743 15.3917 8.89941 15.498C9.55906 15.9463 10.7146 15.4835 13.0244 14.5596C13.5167 14.3626 13.7628 14.2641 13.9561 14.0947C14.0052 14.0516 14.0516 14.0053 14.0947 13.9561C14.2642 13.7629 14.3634 13.516 14.5605 13.0234C15.4843 10.714 15.9462 9.55903 15.498 8.89941C15.3918 8.7431 15.2569 8.60821 15.1006 8.50195Z" fill="#48465C"/>
</svg>
