<svg width="24" height="24" viewBox="0 0 24 24" fill="none" xmlns="http://www.w3.org/2000/svg">
<path d="M15.042 4.25C16.411 4.24999 17.496 4.24976 18.3623 4.33789C19.2498 4.42818 19.9904 4.61773 20.6387 5.05078C21.1573 5.39733 21.6026 5.84268 21.9492 6.36133C22.3822 7.00948 22.5718 7.75019 22.6621 8.6377C22.7502 9.50398 22.75 10.589 22.75 11.958V12.042C22.75 13.411 22.7502 14.496 22.6621 15.3623C22.5718 16.2498 22.3822 16.9904 21.9492 17.6387C21.6026 18.1573 21.1573 18.6026 20.6387 18.9492C19.9904 19.3822 19.2498 19.5718 18.3623 19.6621C17.496 19.7502 16.411 19.75 15.042 19.75H8.95801C7.58899 19.75 6.50396 19.7502 5.6377 19.6621C4.75018 19.5718 4.00948 19.3822 3.36133 18.9492C2.84268 18.6026 2.39733 18.1573 2.05078 17.6387C1.61773 16.9904 1.42818 16.2498 1.33789 15.3623C1.24976 14.496 1.24999 13.411 1.25 12.042V11.958C1.24999 10.589 1.24976 9.50396 1.33789 8.6377C1.42819 7.75018 1.61773 7.00947 2.05078 6.36133C2.39733 5.84268 2.84268 5.39733 3.36133 5.05078C4.00948 4.61772 4.75019 4.42819 5.6377 4.33789C6.50397 4.24976 7.58899 4.24999 8.95801 4.25H15.042ZM9.75 18.25H14.25V5.75H9.75V18.25ZM8.25 5.75098C7.2132 5.75344 6.42636 5.76537 5.79004 5.83008C5.021 5.90831 4.55501 6.05686 4.19434 6.29785C3.83955 6.53494 3.53494 6.83955 3.29785 7.19434C3.05686 7.55501 2.90832 8.021 2.83008 8.79004C2.75061 9.57157 2.75 10.5801 2.75 12C2.75 13.4199 2.7506 14.4285 2.83008 15.21C2.90831 15.9791 3.05686 16.445 3.29785 16.8057C3.53494 17.1605 3.83955 17.4651 4.19434 17.7021C4.55501 17.9431 5.021 18.0917 5.79004 18.1699C6.42637 18.2346 7.2132 18.2466 8.25 18.249V15.6748C6.53834 15.3273 5.25 13.8142 5.25 12C5.25 10.1858 6.53834 8.67267 8.25 8.3252V5.75098ZM15.75 8.3252C17.4617 8.67267 18.75 10.1858 18.75 12C18.75 13.8142 17.4617 15.3273 15.75 15.6748V18.249C16.7869 18.2466 17.5737 18.2346 18.21 18.1699C18.9791 18.0917 19.445 17.9431 19.8057 17.7021C20.1605 17.4651 20.4651 17.1605 20.7021 16.8057C20.9431 16.445 21.0917 15.9791 21.1699 15.21C21.2494 14.4285 21.25 13.4199 21.25 12C21.25 10.5801 21.2494 9.57157 21.1699 8.79004C21.0917 8.021 20.9431 7.55501 20.7021 7.19434C20.4651 6.83955 20.1605 6.53494 19.8057 6.29785C19.445 6.05686 18.9791 5.90832 18.21 5.83008C17.5737 5.76537 16.7869 5.75344 15.75 5.75098V8.3252ZM8.25 9.87793C7.37611 10.1868 6.75 11.0203 6.75 12C6.75 12.9797 7.37611 13.8132 8.25 14.1221V9.87793ZM15.75 14.1221C16.6239 13.8132 17.25 12.9797 17.25 12C17.25 11.0203 16.6239 10.1868 15.75 9.87793V14.1221Z" fill="#1C274C"/>
</svg>
