<svg width="24" height="24" viewBox="0 0 24 24" fill="none" xmlns="http://www.w3.org/2000/svg">
<path d="M21.0812 6.60645C21.2989 6.09914 21.8862 5.86367 22.3937 6.08105C22.9013 6.29861 23.1367 6.8869 22.9191 7.39453L22.9171 7.39941L22.9132 7.40723L22.9015 7.43359C22.892 7.45485 22.8785 7.48394 22.8615 7.52051C22.827 7.59436 22.777 7.69894 22.7111 7.82812C22.5795 8.08626 22.3835 8.44674 22.1202 8.86914C21.7177 9.51521 21.1515 10.3162 20.4093 11.124L21.2072 11.9219C21.5976 12.3123 21.5975 12.9454 21.2072 13.3359C20.8166 13.7264 20.1837 13.7264 19.7931 13.3359L18.9523 12.4961C18.3881 12.9517 17.7567 13.3812 17.0558 13.752L17.838 14.9551C18.1391 15.418 18.008 16.0367 17.545 16.3379C17.0823 16.6391 16.4635 16.5085 16.1622 16.0459L15.1759 14.5312C14.4971 14.7394 13.7719 14.887 13.0001 14.9561V16.5C13.0001 17.0522 12.5523 17.4999 12.0001 17.5C11.4478 17.5 11.0001 17.0522 11.0001 16.5V14.9561C10.2254 14.8869 9.50016 14.7388 8.82336 14.5312L7.83801 16.0459C7.53672 16.5086 6.91702 16.6391 6.45422 16.3379C5.99164 16.0366 5.86111 15.4178 6.16223 14.9551L6.94446 13.752C6.24434 13.3815 5.61199 12.9523 5.047 12.4961L4.20715 13.3359C3.81665 13.7264 3.18361 13.7264 2.79309 13.3359C2.40256 12.9454 2.40256 12.3124 2.79309 11.9219L3.58997 11.124C2.74518 10.2045 2.12775 9.29237 1.71887 8.60547C1.50968 8.25403 1.35352 7.95874 1.24817 7.74805C1.19547 7.64265 1.15484 7.55816 1.12708 7.49805C1.11325 7.46813 1.1026 7.44419 1.09485 7.42676L1.08606 7.40527L1.08313 7.39844L1.08118 7.39551V7.39453C0.863908 6.8871 1.09833 6.2987 1.60559 6.08105C2.11322 5.8635 2.70151 6.09882 2.91907 6.60645L2.92297 6.61426C2.92701 6.62332 2.93388 6.63839 2.94348 6.65918C2.96307 6.70159 2.99425 6.76756 3.03723 6.85352C3.12328 7.02561 3.25624 7.2773 3.43762 7.58203C3.80158 8.19348 4.35432 9.00812 5.10754 9.81934C5.28511 10.0105 5.47351 10.2017 5.672 10.3887C5.68015 10.3961 5.68845 10.4035 5.69641 10.4111C7.1811 11.8014 9.25239 13 12.0001 13C13.2089 13 14.2783 12.7694 15.2208 12.3984C16.4468 11.9159 17.4745 11.1888 18.3156 10.3994C19.2649 9.50826 19.9625 8.55046 20.423 7.81152C20.6524 7.44344 20.8206 7.13304 20.9298 6.91895C20.9842 6.81216 21.024 6.72957 21.049 6.67578C21.0616 6.64889 21.0701 6.62898 21.0753 6.61719L21.0812 6.60645Z" fill="#48465C"/>
</svg>
