<svg width="24" height="24" viewBox="0 0 24 24" fill="none" xmlns="http://www.w3.org/2000/svg">
<path d="M7.66797 1.25C9.91739 1.26162 11.7384 3.08261 11.75 5.33203V8C11.75 10.0711 10.0711 11.75 8 11.75C7.86193 11.75 7.75 11.8619 7.75 12V19.5C7.75 21.2949 6.29493 22.75 4.5 22.75C2.70507 22.75 1.25 21.2949 1.25 19.5V7.55566C1.26795 4.08074 4.08075 1.26795 7.55566 1.25H7.66797ZM15.5 10.25C18.9518 10.25 21.75 13.0482 21.75 16.5C21.75 19.9518 18.9518 22.75 15.5 22.75C12.0482 22.75 9.25 19.9518 9.25 16.5C9.25 13.0482 12.0482 10.25 15.5 10.25ZM2.75 19.5C2.75 20.4665 3.5335 21.25 4.5 21.25C5.4665 21.25 6.25 20.4665 6.25 19.5V19.417H2.75V19.5ZM15.5 11.75C12.8766 11.75 10.75 13.8766 10.75 16.5C10.75 19.1234 12.8766 21.25 15.5 21.25C18.1234 21.25 20.25 19.1234 20.25 16.5C20.25 13.8766 18.1234 11.75 15.5 11.75ZM14 13.25C14.4142 13.25 14.75 13.5858 14.75 14V18.25H17C17.4142 18.25 17.75 18.5858 17.75 19C17.75 19.4142 17.4142 19.75 17 19.75H14C13.5858 19.75 13.25 19.4142 13.25 19V14C13.25 13.5858 13.5858 13.25 14 13.25ZM7.56152 2.75C4.91033 2.76462 2.76462 4.91034 2.75 7.56152V17.917H6.25V12C6.25 11.0335 7.0335 10.25 8 10.25C9.24264 10.25 10.25 9.24264 10.25 8V5.33789C10.2417 3.91211 9.08789 2.75822 7.66211 2.75H7.56152ZM13.2656 4.95117C13.348 4.54524 13.7445 4.28283 14.1504 4.36523C16.4044 4.82295 18.1781 6.59651 18.6357 8.85059C18.7181 9.25653 18.4557 9.65295 18.0498 9.73535C17.6441 9.81757 17.2485 9.55513 17.166 9.14941C16.8282 7.48547 15.5156 6.17272 13.8516 5.83496C13.4458 5.75256 13.1835 5.35697 13.2656 4.95117ZM8 4.25C8.41421 4.25 8.75 4.58579 8.75 5V8C8.75 8.41422 8.41421 8.75 8 8.75C7.58579 8.75 7.25 8.41422 7.25 8V5C7.25 4.58579 7.58579 4.25 8 4.25Z" fill="#1C274C"/>
</svg>
