<svg width="24" height="24" viewBox="0 0 24 24" fill="none" xmlns="http://www.w3.org/2000/svg">
<path d="M6.46265 2.47675C6.75143 2.18018 7.22635 2.1735 7.52319 2.4621C7.82002 2.7508 7.82641 3.22568 7.53784 3.52264L3.77515 7.39276H15.7878C16.9242 7.39275 17.8296 7.39328 18.5574 7.46112C19.304 7.53075 19.9378 7.6766 20.5076 8.01483C21.1924 8.4215 21.7585 9.00498 22.1511 9.70428C22.4761 10.2833 22.6171 10.927 22.6843 11.6896C22.75 12.4353 22.7498 13.3642 22.7498 14.5353V14.6076C22.7498 15.7787 22.75 16.7077 22.6843 17.4533C22.6171 18.2159 22.4761 18.8598 22.1511 19.4387C21.7585 20.138 21.1925 20.7215 20.5076 21.1281C19.9379 21.4663 19.304 21.6121 18.5574 21.6818C17.8296 21.7496 16.9242 21.7502 15.7878 21.7502H6.99976C6.58571 21.75 6.24985 21.4142 6.24976 21.0002C6.24976 20.5861 6.58565 20.2503 6.99976 20.2502H15.7498C16.9322 20.2502 17.7676 20.2493 18.4177 20.1887C19.0566 20.1291 19.4415 20.0164 19.7419 19.8381C20.1971 19.5677 20.5778 19.1776 20.8435 18.7043C21.0209 18.3883 21.1318 17.9839 21.1902 17.3215C21.2494 16.6494 21.2498 15.7865 21.2498 14.5715C21.2498 13.3565 21.2494 12.4936 21.1902 11.8215C21.1318 11.1591 21.0209 10.7547 20.8435 10.4387C20.5778 9.96542 20.1971 9.57521 19.7419 9.30487C19.4415 9.12652 19.0566 9.01384 18.4177 8.95428C17.7676 8.8937 16.9322 8.89276 15.7498 8.89276H3.77515L7.53784 12.7629C7.82648 13.0598 7.81993 13.5346 7.52319 13.8234C7.22631 14.112 6.75142 14.1055 6.46265 13.8088L1.46265 8.66522C1.17969 8.37412 1.17966 7.91138 1.46265 7.6203L6.46265 2.47675Z" fill="#48465C"/>
</svg>
