<svg width="24" height="24" viewBox="0 0 24 24" fill="none" xmlns="http://www.w3.org/2000/svg">
<path fill-rule="evenodd" clip-rule="evenodd" d="M6.46259 2.47671C6.75137 2.18015 7.2263 2.17346 7.52314 2.46206C7.81997 2.75077 7.82635 3.22565 7.53779 3.52261L3.77509 7.39273H15.7878C16.9241 7.39272 17.8296 7.39324 18.5573 7.46109C19.3039 7.53072 19.9378 7.67657 20.5075 8.0148C21.1923 8.42147 21.7585 9.00495 22.1511 9.70425C22.476 10.2832 22.6171 10.927 22.6843 11.6896C22.75 12.4352 22.7497 13.3641 22.7497 14.5353V14.6076C22.7497 15.7787 22.75 16.7077 22.6843 17.4533C22.6171 18.2159 22.476 18.8597 22.1511 19.4386C21.7585 20.138 21.1924 20.7214 20.5075 21.1281C19.9379 21.4663 19.3039 21.6121 18.5573 21.6818C17.8296 21.7496 16.9241 21.7501 15.7878 21.7501H6.9997C6.58565 21.75 6.24979 21.4142 6.2497 21.0001C6.2497 20.586 6.5856 20.2503 6.9997 20.2501H15.7497C16.9322 20.2501 17.7676 20.2492 18.4177 20.1886C19.0566 20.129 19.4415 20.0163 19.7419 19.838C20.1971 19.5676 20.5778 19.1775 20.8435 18.7043C21.0208 18.3883 21.1317 17.9839 21.1901 17.3214C21.2493 16.6493 21.2497 15.7865 21.2497 14.5714C21.2497 13.3564 21.2493 12.4935 21.1901 11.8214C21.1317 11.159 21.0208 10.7547 20.8435 10.4386C20.5778 9.96538 20.1971 9.57518 19.7419 9.30484C19.4415 9.12649 19.0566 9.01381 18.4177 8.95425C17.7676 8.89367 16.9322 8.89273 15.7497 8.89273H3.77509L7.53779 12.7628C7.82643 13.0598 7.81988 13.5346 7.52314 13.8234C7.22626 14.112 6.75137 14.1054 6.46259 13.8087L1.46259 8.66519C1.17964 8.37409 1.17961 7.91134 1.46259 7.62027L6.46259 2.47671Z" fill="#1C274C"/>
</svg>
