<svg width="24" height="24" viewBox="0 0 24 24" fill="none" xmlns="http://www.w3.org/2000/svg">
<path d="M12.0067 2C14.4297 2 15.641 2.00028 16.5887 2.56641C16.8634 2.73052 17.1177 2.92671 17.3456 3.15137C18.1316 3.9263 18.4359 5.09907 19.0448 7.44434L19.1288 7.76855C19.9566 10.9572 20.3708 12.5519 19.619 13.6719C19.544 13.7837 19.4612 13.8905 19.3719 13.9912C19.0862 14.3132 18.7237 14.5324 18.2557 14.6816V17C18.2557 17.4142 17.9199 17.75 17.5057 17.75C17.0915 17.7499 16.7557 17.4141 16.7557 17V15C16.7557 14.9783 16.7569 14.9567 16.7586 14.9355C15.9103 15.0003 14.8552 15 13.536 15H12.7557V21.25H15.0057C15.4199 21.25 15.7557 21.5858 15.7557 22C15.7557 22.4142 15.4199 22.75 15.0057 22.75H9.00571C8.59157 22.7499 8.25571 22.4141 8.25571 22C8.25571 21.5859 8.59157 21.2501 9.00571 21.25H11.2557V15H10.4774C7.18327 15 5.53572 15.0002 4.64047 13.9912C4.55118 13.8905 4.46838 13.7837 4.3934 13.6719C3.6418 12.5519 4.0559 10.957 4.88364 7.76855L4.96762 7.44434C5.57651 5.09897 5.88171 3.92632 6.66782 3.15137C6.89553 2.92691 7.14921 2.73043 7.42368 2.56641C8.37132 2.00025 9.58352 2 12.0067 2Z" fill="#1C274C"/>
</svg>
