<svg width="24" height="24" viewBox="0 0 24 24" fill="none" xmlns="http://www.w3.org/2000/svg">
<path d="M12.0067 2C14.4298 2 15.6411 2.00028 16.5887 2.56641C16.8634 2.73052 17.1177 2.92671 17.3456 3.15137C18.1317 3.9263 18.4359 5.09907 19.0448 7.44434L19.1288 7.76855C19.9566 10.9572 20.3708 12.5519 19.619 13.6719C19.544 13.7837 19.4612 13.8905 19.3719 13.9912C19.0862 14.3132 18.7237 14.5324 18.2557 14.6816V17C18.2557 17.4142 17.9199 17.75 17.5057 17.75C17.0915 17.7499 16.7557 17.4141 16.7557 17V15C16.7557 14.9783 16.7569 14.9567 16.7587 14.9355C15.9103 15.0003 14.8552 15 13.536 15H12.7557V21.25H15.0057C15.4199 21.25 15.7557 21.5858 15.7557 22C15.7557 22.4142 15.4199 22.75 15.0057 22.75H9.00574C8.5916 22.7499 8.25574 22.4141 8.25574 22C8.25574 21.5859 8.5916 21.2501 9.00574 21.25H11.2557V15H10.4774C7.1833 15 5.53575 15.0002 4.6405 13.9912C4.55121 13.8905 4.46841 13.7837 4.39343 13.6719C3.64183 12.5519 4.05593 10.957 4.88367 7.76855L4.96765 7.44434C5.57654 5.09897 5.88174 3.92632 6.66785 3.15137C6.89556 2.92691 7.14924 2.73043 7.42371 2.56641C8.37135 2.00025 9.58355 2 12.0067 2Z" fill="#48465C"/>
</svg>
