<svg width="24" height="24" viewBox="0 0 24 24" fill="none" xmlns="http://www.w3.org/2000/svg">
<path d="M12 1.25C12.4142 1.25 12.75 1.58579 12.75 2V4.25H16.5322C16.972 4.24998 17.3518 4.25011 17.6631 4.27832C17.9921 4.30818 18.3179 4.37446 18.625 4.55176C18.9669 4.7492 19.2508 5.03308 19.4482 5.375C19.6255 5.68207 19.6919 6.00788 19.7217 6.33691C19.7499 6.64821 19.75 7.02799 19.75 7.46777V7.53223C19.75 7.97201 19.7499 8.35179 19.7217 8.66309C19.6919 8.99212 19.6255 9.31793 19.4482 9.625C19.2508 9.96692 18.9669 10.2508 18.625 10.4482C18.3179 10.6255 17.9921 10.6919 17.6631 10.7217C17.3518 10.7499 16.972 10.75 16.5322 10.75H12.75V13.25H14.5322C14.972 13.25 15.3518 13.2501 15.6631 13.2783C15.9921 13.3081 16.3179 13.3745 16.625 13.5518C16.9669 13.7492 17.2508 14.0331 17.4482 14.375C17.6255 14.6821 17.6919 15.0079 17.7217 15.3369C17.7499 15.6482 17.75 16.028 17.75 16.4678V16.5322C17.75 16.972 17.7499 17.3518 17.7217 17.6631C17.6919 17.9921 17.6255 18.3179 17.4482 18.625C17.2508 18.9669 16.9669 19.2508 16.625 19.4482C16.3179 19.6255 15.9921 19.6919 15.6631 19.7217C15.3518 19.7499 14.972 19.75 14.5322 19.75H12.75V22C12.75 22.4142 12.4142 22.75 12 22.75C11.5858 22.75 11.25 22.4142 11.25 22V19.75H9.46777C9.02799 19.75 8.6482 19.7499 8.33691 19.7217C8.00789 19.6919 7.68207 19.6255 7.375 19.4482C7.03308 19.2508 6.7492 18.9669 6.55176 18.625C6.37447 18.3179 6.30818 17.9921 6.27832 17.6631C6.25011 17.3518 6.24998 16.972 6.25 16.5322V16.4678C6.24998 16.028 6.25011 15.6482 6.27832 15.3369C6.30818 15.0079 6.37447 14.6821 6.55176 14.375C6.7492 14.0331 7.03308 13.7492 7.375 13.5518C7.68207 13.3745 8.00789 13.3081 8.33691 13.2783C8.64821 13.2501 9.02799 13.25 9.46777 13.25H11.25V10.75H7.46777C7.02799 10.75 6.64821 10.7499 6.33691 10.7217C6.00789 10.6919 5.68207 10.6255 5.375 10.4482C5.03308 10.2508 4.7492 9.96693 4.55176 9.625C4.37447 9.31793 4.30818 8.99211 4.27832 8.66309C4.25011 8.3518 4.24998 7.97201 4.25 7.53223V7.46777C4.24998 7.02799 4.25011 6.6482 4.27832 6.33691C4.30818 6.00789 4.37447 5.68207 4.55176 5.375C4.74921 5.03307 5.03307 4.74921 5.375 4.55176C5.68207 4.37447 6.00789 4.30818 6.33691 4.27832C6.6482 4.25011 7.02799 4.24998 7.46777 4.25H11.25V2C11.25 1.58579 11.5858 1.25 12 1.25ZM9.5 14.75C9.01889 14.75 8.70811 14.7511 8.47266 14.7725C8.2476 14.7929 8.16585 14.827 8.125 14.8506C8.01102 14.9164 7.91641 15.011 7.85059 15.125C7.827 15.1659 7.79287 15.2476 7.77246 15.4727C7.75112 15.7082 7.75 16.0189 7.75 16.5C7.75 16.9811 7.75112 17.2918 7.77246 17.5273C7.79287 17.7524 7.827 17.8341 7.85059 17.875C7.91641 17.989 8.01102 18.0836 8.125 18.1494C8.16585 18.173 8.2476 18.2071 8.47266 18.2275C8.70811 18.2489 9.01889 18.25 9.5 18.25H14.5C14.9811 18.25 15.2918 18.2489 15.5273 18.2275C15.7524 18.2071 15.8341 18.173 15.875 18.1494C15.989 18.0836 16.0836 17.989 16.1494 17.875C16.173 17.8341 16.2071 17.7524 16.2275 17.5273C16.2489 17.2918 16.25 16.9811 16.25 16.5C16.25 16.0189 16.2489 15.7082 16.2275 15.4727C16.2071 15.2476 16.173 15.1659 16.1494 15.125C16.0836 15.011 15.989 14.9164 15.875 14.8506C15.8341 14.827 15.7524 14.7929 15.5273 14.7725C15.2918 14.7511 14.9811 14.75 14.5 14.75H9.5ZM7.5 5.75C7.01889 5.75 6.70811 5.75112 6.47266 5.77246C6.24761 5.79286 6.16585 5.827 6.125 5.85059C6.01103 5.91641 5.91641 6.01103 5.85059 6.125C5.827 6.16585 5.79287 6.24761 5.77246 6.47266C5.75112 6.70812 5.75 7.01889 5.75 7.5C5.75 7.98111 5.75112 8.29188 5.77246 8.52734C5.79287 8.75239 5.827 8.83415 5.85059 8.875C5.91641 8.98897 6.01103 9.08359 6.125 9.14941C6.16586 9.173 6.24761 9.20714 6.47266 9.22754C6.70811 9.24888 7.01889 9.25 7.5 9.25H16.5C16.9811 9.25 17.2918 9.24888 17.5273 9.22754C17.7524 9.20714 17.8341 9.173 17.875 9.14941C17.989 9.08359 18.0836 8.98898 18.1494 8.875C18.173 8.83415 18.2071 8.7524 18.2275 8.52734C18.2489 8.29189 18.25 7.98111 18.25 7.5C18.25 7.01889 18.2489 6.70811 18.2275 6.47266C18.2071 6.2476 18.173 6.16585 18.1494 6.125C18.0836 6.01102 17.989 5.91641 17.875 5.85059C17.8341 5.827 17.7524 5.79286 17.5273 5.77246C17.2918 5.75112 16.9811 5.75 16.5 5.75H7.5Z" fill="#48465C"/>
</svg>
