<svg width="24" height="24" viewBox="0 0 24 24" fill="none" xmlns="http://www.w3.org/2000/svg">
<path d="M5.16016 13.75C6.13396 13.75 6.38878 13.7659 6.60254 13.8643C6.8163 13.9626 6.99422 14.1455 7.62793 14.8848L8.32031 15.6934C8.82233 16.2802 9.22032 16.7449 9.77051 16.998C10.3207 17.2511 10.9328 17.2508 11.7051 17.25H12.2949C13.0672 17.2508 13.6793 17.2511 14.2295 16.998C14.7797 16.7449 15.1777 16.2802 15.6797 15.6934L16.3721 14.8848C17.0058 14.1455 17.1838 13.9626 17.3975 13.8643C17.6113 13.7659 17.866 13.75 18.8398 13.75H21.9971C21.9749 17.3219 21.806 19.2644 20.5352 20.5352C19.0708 21.9996 16.714 22 12 22C7.28597 22 4.9293 21.9997 3.46484 20.5352C2.19404 19.2644 2.02613 17.3219 2.00391 13.75H5.16016ZM15.6797 2.04102C18.0617 2.13487 19.5149 2.44458 20.5352 3.46484C21.9996 4.92929 22 7.28604 22 12V12.25H18.7051C17.9328 12.2492 17.3207 12.2489 16.7705 12.502C16.2203 12.7551 15.8223 13.2198 15.3203 13.8066L14.6279 14.6152C13.9943 15.3545 13.8162 15.5374 13.6025 15.6357C13.3887 15.7341 13.134 15.75 12.1602 15.75H11.8398C10.866 15.75 10.6113 15.7341 10.3975 15.6357C10.1838 15.5374 10.0058 15.3545 9.37207 14.6152L8.67969 13.8066C8.17766 13.2197 7.77971 12.7551 7.22949 12.502C6.6792 12.2489 6.06725 12.2492 5.29492 12.25H2V12C2 7.28604 2.00039 4.92929 3.46484 3.46484C4.54987 2.37986 6.12464 2.09823 8.78516 2.02539L7.40918 3.40918C6.53052 4.28784 6.53057 5.71214 7.40918 6.59082C8.04223 7.22387 8.95851 7.4012 9.75 7.12207V10C9.75 11.2426 10.7574 12.25 12 12.25C13.2426 12.25 14.25 11.2426 14.25 10V7.12207C15.0415 7.4012 15.9577 7.22387 16.5908 6.59082C17.4695 5.71214 17.4695 4.28784 16.5908 3.40918L15.207 2.02539C15.3684 2.02978 15.5262 2.03497 15.6797 2.04102ZM12 1.25C12.1989 1.25 12.3897 1.32908 12.5303 1.46973L15.5303 4.46973C15.8232 4.76261 15.8232 5.23739 15.5303 5.53027C15.2374 5.82316 14.7626 5.82316 14.4697 5.53027L12.75 3.81055V10C12.75 10.4142 12.4142 10.75 12 10.75C11.5858 10.75 11.25 10.4142 11.25 10V3.81055L9.53027 5.53027C9.23738 5.82316 8.76262 5.82316 8.46973 5.53027C8.17684 5.23738 8.17684 4.76262 8.46973 4.46973L11.4697 1.46973C11.6103 1.32908 11.8011 1.25 12 1.25Z" fill="#1C274C"/>
</svg>
