<svg width="24" height="24" viewBox="0 0 24 24" fill="none" xmlns="http://www.w3.org/2000/svg">
<path d="M14.0886 3.99976C14.846 3.99976 15.3528 4.90886 16.3659 6.72632L16.6286 7.19702C16.9165 7.71356 17.0604 7.97192 17.2849 8.14233C17.5094 8.31274 17.7892 8.37617 18.3484 8.50269L18.8571 8.61792C20.8246 9.06306 21.8084 9.28548 22.0427 10.0378C22.2768 10.7905 21.6059 11.5756 20.2644 13.1443L19.9177 13.5496C19.5367 13.9951 19.3462 14.2184 19.2605 14.4939C19.1747 14.7695 19.2028 15.0673 19.2605 15.6619L19.3132 16.2039C19.5161 18.2967 19.6175 19.3432 19.0046 19.8083C18.3918 20.2734 17.4708 19.8489 15.6286 19.0007L15.1521 18.782C14.6285 18.5409 14.366 18.4197 14.0886 18.4197C13.8112 18.4198 13.5494 18.541 13.0261 18.782L12.5495 19.0007C10.7071 19.849 9.7854 20.2735 9.17258 19.8083C8.56003 19.3431 8.66122 18.2964 8.86398 16.2039L8.91672 15.6619C8.97434 15.0673 9.00342 14.7696 8.91769 14.4939C8.8319 14.2183 8.64151 13.9952 8.26047 13.5496L7.91281 13.1443C6.57134 11.5756 5.90042 10.7905 6.13449 10.0378C6.36872 9.28542 7.35287 9.06302 9.32004 8.61792L9.8298 8.50269C10.3888 8.37619 10.6688 8.31273 10.8933 8.14233C11.1176 7.97191 11.2618 7.71335 11.5495 7.19702L11.8112 6.72632C12.8243 4.90896 13.3313 4.00001 14.0886 3.99976ZM1.62473 15.4109C2.92252 14.3883 4.6395 14.0155 6.26047 14.3953C6.66343 14.4899 6.91333 14.8936 6.81906 15.2966C6.72455 15.6999 6.32098 15.9507 5.91769 15.8562C4.73376 15.5787 3.4868 15.8542 2.55344 16.5896C2.22815 16.8459 1.75612 16.7897 1.49973 16.4646C1.24338 16.1392 1.29938 15.6673 1.62473 15.4109ZM4.02512 9.25269C4.4378 9.21753 4.80143 9.52361 4.83664 9.93628C4.8718 10.349 4.56479 10.7127 4.15207 10.7478C3.99934 10.7609 3.88213 10.7679 3.78391 10.7742C3.60653 10.7854 3.49026 10.7929 3.33859 10.822C3.14219 10.8597 2.88709 10.9394 2.42453 11.1707C2.05405 11.3559 1.60295 11.2062 1.41769 10.8357C1.23244 10.4652 1.38314 10.0141 1.75363 9.82886C2.29047 9.56045 2.68048 9.42054 3.05637 9.34839C3.30307 9.30106 3.5578 9.28518 3.78683 9.27026C3.8701 9.26484 3.95025 9.25906 4.02512 9.25269ZM1.82883 4.8396C4.18925 3.45727 6.73705 3.06301 9.16086 3.76147L9.36887 3.82104C9.76671 3.93586 9.99623 4.35183 9.88156 4.74976C9.76669 5.14749 9.35071 5.37711 8.95285 5.26245L8.74582 5.2019C6.76438 4.63092 4.63836 4.93274 2.58762 6.13354L2.37863 6.25562C2.02135 6.46474 1.56264 6.34512 1.35324 5.98804C1.14396 5.63067 1.26353 5.17104 1.62082 4.96167L1.82883 4.8396Z" fill="#1C274C"/>
</svg>
