<svg width="24" height="24" viewBox="0 0 24 24" fill="none" xmlns="http://www.w3.org/2000/svg">
<path d="M11.25 21.959C10.7392 21.8938 10.4092 21.7495 9.89844 21.5264C7.23888 20.3645 3.00018 17.6289 3 11.9912V11.79L11.25 9.04004V21.959ZM21 11.79V11.9912C20.9998 17.6289 16.7611 20.3645 14.1016 21.5264C13.5909 21.7495 13.2608 21.8938 12.75 21.959V9.04004L21 11.79ZM11.25 7.45898L3 10.209C3.00018 7.14947 3.00867 5.60814 3.37793 5.08203C3.75581 4.5443 5.2589 4.02985 8.26465 3.00098L8.83789 2.80469C9.9317 2.43028 10.6437 2.18634 11.25 2.07324V7.45898ZM12.75 2.07324C13.3563 2.18634 14.0683 2.43028 15.1621 2.80469L15.7354 3.00098C18.7411 4.02985 20.2442 4.5443 20.6221 5.08203C20.9914 5.60814 20.9998 7.14947 21 10.209L12.75 7.45898V2.07324Z" fill="#48465C"/>
</svg>
