<svg width="24" height="24" viewBox="0 0 24 24" fill="none" xmlns="http://www.w3.org/2000/svg">
<path d="M14 2C17.7712 2 19.6566 2.00037 20.8281 3.46484C21.9996 4.92931 22 7.28605 22 12C22 16.7139 21.9997 19.0708 20.8281 20.5352C19.6566 21.9997 17.7712 22 14 22H10C6.22876 22 4.34345 21.9997 3.17188 20.5352C2.00035 19.0708 2 16.7139 2 12C2 7.28604 2.00037 4.92931 3.17188 3.46484C4.34345 2.00037 6.22876 2 10 2H14ZM17 6.75C15.7574 6.75 14.75 7.75736 14.75 9C14.75 9.97966 15.3761 10.8132 16.25 11.1221V14.7637C16.25 15.2372 15.9821 15.67 15.5586 15.8818L14.665 16.3291C14.2947 16.5142 14.1441 16.9645 14.3291 17.335C14.5142 17.7053 14.9645 17.8559 15.335 17.6709L16.2295 17.2236C17.1612 16.7578 17.75 15.8054 17.75 14.7637V11.1221C18.6239 10.8132 19.25 9.97966 19.25 9C19.25 7.75736 18.2426 6.75 17 6.75ZM10 7.25C7.37665 7.25 5.25 9.37665 5.25 12C5.25 14.6234 7.37665 16.75 10 16.75C12.6234 16.75 14.75 14.6234 14.75 12C14.75 9.37665 12.6234 7.25 10 7.25ZM10 8.75C11.7949 8.75 13.25 10.2051 13.25 12C13.25 13.7949 11.7949 15.25 10 15.25C8.20507 15.25 6.75 13.7949 6.75 12C6.75 10.2051 8.20507 8.75 10 8.75ZM17 8.25C17.4142 8.25 17.75 8.58579 17.75 9C17.75 9.41421 17.4142 9.75 17 9.75C16.5858 9.75 16.25 9.41421 16.25 9C16.25 8.58579 16.5858 8.25 17 8.25Z" fill="#1C274C"/>
</svg>
