<svg width="24" height="24" viewBox="0 0 24 24" fill="none" xmlns="http://www.w3.org/2000/svg">
<path fill-rule="evenodd" clip-rule="evenodd" d="M1.99977 18.25C4.07084 18.25 5.74977 19.9289 5.74977 22C5.74964 22.4141 5.41391 22.75 4.99977 22.75C4.58576 22.7499 4.2499 22.414 4.24977 22C4.24977 20.7573 3.24241 19.75 1.99977 19.75C1.58576 19.7499 1.2499 19.414 1.24977 19C1.24977 18.5859 1.58568 18.2501 1.99977 18.25ZM1.99977 15.25C5.72769 15.25 8.74977 18.2721 8.74977 22C8.74964 22.4141 8.41391 22.75 7.99977 22.75C7.58576 22.7499 7.2499 22.414 7.24977 22C7.24977 19.1005 4.89927 16.75 1.99977 16.75C1.58576 16.7499 1.2499 16.414 1.24977 16C1.24977 15.5859 1.58568 15.2501 1.99977 15.25ZM1.99977 12.25C7.38455 12.25 11.7498 16.6152 11.7498 22C11.7496 22.4141 11.4139 22.75 10.9998 22.75C10.5858 22.7499 10.2499 22.414 10.2498 22C10.2498 17.4436 6.55612 13.75 1.99977 13.75C1.58576 13.7499 1.2499 13.414 1.24977 13C1.24977 12.5859 1.58568 12.2501 1.99977 12.25ZM11.9998 1.25C12.7249 1.25 13.387 1.44912 14.1111 1.78711C14.812 2.11429 15.6227 2.59709 16.6384 3.20215L18.0935 4.06934C19.2126 4.73597 20.1048 5.26741 20.78 5.77539C21.477 6.2997 21.9997 6.83978 22.3406 7.55078C22.6817 8.26225 22.7746 9.00694 22.7449 9.87598C22.7162 10.717 22.569 11.7396 22.3845 13.0215L22.0916 15.0537C21.8542 16.7036 21.6659 18.0129 21.3845 19.0322C21.0944 20.0829 20.683 20.9171 19.9402 21.5566C19.266 22.1372 18.4709 22.427 17.5134 22.5771C16.5758 22.7243 15.4227 22.7453 14.0017 22.749C13.5876 22.75 13.2509 22.4151 13.2498 22.001C13.2488 21.5869 13.5837 21.2501 13.9978 21.249C15.4367 21.2452 16.4754 21.2211 17.281 21.0947C18.0668 20.9713 18.5671 20.7597 18.9617 20.4199C19.394 20.0477 19.6918 19.5287 19.9392 18.6328C20.1923 17.716 20.3685 16.5011 20.615 14.7881L20.8933 12.8516C21.0853 11.5168 21.2203 10.574 21.2459 9.82422C21.2707 9.09317 21.1874 8.61501 20.9881 8.19922C20.7886 7.783 20.4661 7.41634 19.8777 6.97363C19.2748 6.52014 18.453 6.02938 17.2888 5.33594L15.9041 4.51074C14.8469 3.88097 14.1007 3.43793 13.4763 3.14648C12.8672 2.86218 12.429 2.75 11.9998 2.75C11.5705 2.75003 11.1322 2.86222 10.5232 3.14648C9.89885 3.43795 9.15266 3.88099 8.09548 4.51074L6.71071 5.33594C5.54647 6.02947 4.7247 6.5201 4.12184 6.97363C3.53337 7.41635 3.21103 7.78299 3.01149 8.19922C2.80003 8.64034 2.71999 9.1521 2.76051 9.96289C2.78099 10.3764 2.46211 10.7282 2.0486 10.749C1.63491 10.7696 1.28217 10.4508 1.26149 10.0371C1.21463 9.09903 1.29683 8.30618 1.65895 7.55078C1.99987 6.83966 2.52346 6.29978 3.22047 5.77539C3.89564 5.26747 4.78704 4.7359 5.90602 4.06934L7.36208 3.20215C8.37782 2.59707 9.18853 2.11426 9.88942 1.78711C10.6134 1.44919 11.2748 1.25003 11.9998 1.25Z" fill="#1C274C"/>
</svg>
