<svg width="24" height="24" viewBox="0 0 24 24" fill="none" xmlns="http://www.w3.org/2000/svg">
<path d="M15.3274 7.54199C18.7022 7.54199 20.3902 7.54247 21.3381 8.5293C22.2854 9.51613 22.0624 11.0411 21.6165 14.0898L21.1936 16.9814C20.8438 19.3725 20.6689 20.5682 19.7717 21.2842C18.8745 22.0001 17.551 22 14.9045 22H9.09497C6.44904 22 5.1259 21.9999 4.22876 21.2842C3.33162 20.5682 3.15662 19.3725 2.80688 16.9814L2.38403 14.0898C1.93804 11.0408 1.71478 9.51613 2.66235 8.5293C3.61017 7.5425 5.29752 7.54199 8.67212 7.54199H15.3274ZM12.0002 9.75C11.586 9.75 11.2502 10.0858 11.2502 10.5V14.8779C11.0157 14.7951 10.7632 14.75 10.5002 14.75C9.2576 14.75 8.25024 15.7574 8.25024 17C8.25027 18.2426 9.25762 19.25 10.5002 19.25C11.7427 19.2499 12.7502 18.2425 12.7502 17V13.3193C13.4204 13.863 14.2619 14.25 15.0002 14.25C15.4143 14.2499 15.7502 13.9141 15.7502 13.5C15.7502 13.0859 15.4143 12.7501 15.0002 12.75C14.6948 12.75 14.1143 12.5316 13.5833 12.0605C13.0652 11.6009 12.7503 11.0386 12.7502 10.5C12.7502 10.0859 12.4143 9.75011 12.0002 9.75ZM10.5002 16.25C10.9143 16.2501 11.2502 16.5859 11.2502 17C11.2502 17.4141 10.9143 17.7499 10.5002 17.75C10.086 17.75 9.75024 17.4142 9.75024 17C9.75025 16.5858 10.086 16.25 10.5002 16.25ZM17.8616 4.72363C19.2521 4.72363 20.3921 5.56284 20.7727 6.67676C20.7807 6.69998 20.7889 6.72362 20.7961 6.74707C20.398 6.6265 19.9831 6.54791 19.5637 6.49414C18.4834 6.35566 17.1182 6.35538 15.5325 6.35547H8.63989C7.05408 6.35538 5.68894 6.35568 4.60864 6.49414C4.18918 6.54791 3.77437 6.6265 3.37622 6.74707C3.38349 6.72362 3.39075 6.69998 3.39868 6.67676C3.77923 5.56274 4.92018 4.72363 6.31079 4.72363H17.8616ZM15.4895 2C15.722 1.99994 15.9011 2.00039 16.0569 2.01562C17.1643 2.12413 18.0708 2.7896 18.4553 3.68652H5.54419C5.92875 2.78943 6.83587 2.12399 7.9436 2.01562C8.09935 2.00041 8.27765 1.99994 8.51001 2H15.4895Z" fill="#48465C"/>
</svg>
