<svg width="24" height="24" viewBox="0 0 24 24" fill="none" xmlns="http://www.w3.org/2000/svg">
<path fill-rule="evenodd" clip-rule="evenodd" d="M6.62529 2.69027C8.72037 1.48068 11.0556 1.0556 13.2864 1.32601C16.5261 1.71877 19.5511 3.57866 21.3099 6.62484C23.0685 9.67096 23.1666 13.2205 21.887 16.2225C21.0057 18.2896 19.4703 20.0998 17.3753 21.3094C12.2338 24.2779 5.65931 22.5164 2.69072 17.3748C-0.277806 12.2333 1.48369 5.65882 6.62529 2.69027ZM13.1058 2.81527C11.1865 2.58261 9.17941 2.94749 7.37529 3.9891C2.95108 6.54342 1.43523 12.2006 3.98954 16.6248C6.5439 21.0489 12.2011 22.565 16.6253 20.0106C18.4294 18.969 19.7489 17.4132 20.5071 15.6346C21.6099 13.0479 21.5238 9.99521 20.011 7.37484C18.4982 4.75445 15.8974 3.15367 13.1058 2.81527ZM9.75029 17.4998C10.1643 17.5 10.5002 17.8358 10.5003 18.2498C10.5003 18.6639 10.1643 18.9997 9.75029 18.9998C9.33608 18.9998 9.00029 18.664 9.00029 18.2498C9.00038 17.8357 9.33613 17.4998 9.75029 17.4998ZM14.2503 17.4998C14.6643 17.5 15.0002 17.8358 15.0003 18.2498C15.0003 18.6639 14.6643 18.9997 14.2503 18.9998C13.8361 18.9998 13.5003 18.664 13.5003 18.2498C13.5004 17.8357 13.8361 17.4998 14.2503 17.4998ZM9.75029 12.4998C10.7166 12.5 11.5002 13.2835 11.5003 14.2498C11.5003 15.2162 10.7166 15.9997 9.75029 15.9998C8.78379 15.9998 8.00029 15.2163 8.00029 14.2498C8.00038 13.2834 8.78385 12.4998 9.75029 12.4998ZM14.2503 12.4998C15.2166 12.5 16.0002 13.2835 16.0003 14.2498C16.0003 15.2162 15.2166 15.9997 14.2503 15.9998C13.2838 15.9998 12.5003 15.2163 12.5003 14.2498C12.5004 13.2834 13.2838 12.4998 14.2503 12.4998ZM5.75029 13.4998C6.16431 13.5 6.5002 13.8358 6.50029 14.2498C6.50029 14.6639 6.16437 14.9997 5.75029 14.9998C5.33608 14.9998 5.00029 14.664 5.00029 14.2498C5.00038 13.8357 5.33613 13.4998 5.75029 13.4998ZM9.75029 13.4998C9.33614 13.4998 9.00038 13.8357 9.00029 14.2498C9.00029 14.664 9.33608 14.9998 9.75029 14.9998C10.1643 14.9997 10.5003 14.6639 10.5003 14.2498C10.5002 13.8358 10.1643 13.5 9.75029 13.4998ZM14.2503 13.4998C13.8361 13.4998 13.5004 13.8357 13.5003 14.2498C13.5003 14.664 13.8361 14.9998 14.2503 14.9998C14.6643 14.9997 15.0003 14.6639 15.0003 14.2498C15.0002 13.8358 14.6643 13.5 14.2503 13.4998ZM18.2503 13.4998C18.6643 13.5 19.0002 13.8358 19.0003 14.2498C19.0003 14.6639 18.6643 14.9997 18.2503 14.9998C17.8361 14.9998 17.5003 14.664 17.5003 14.2498C17.5004 13.8357 17.8361 13.4998 18.2503 13.4998ZM9.75029 7.99984C10.7166 8.00001 11.5002 8.78352 11.5003 9.74984C11.5003 10.7162 10.7166 11.4997 9.75029 11.4998C8.78379 11.4998 8.00029 10.7164 8.00029 9.74984C8.00038 8.78342 8.78384 7.99984 9.75029 7.99984ZM14.2503 7.99984C15.2166 8.00001 16.0002 8.78352 16.0003 9.74984C16.0003 10.7162 15.2166 11.4997 14.2503 11.4998C13.2838 11.4998 12.5003 10.7164 12.5003 9.74984C12.5004 8.78342 13.2838 7.99984 14.2503 7.99984ZM5.75029 8.99984C6.16431 9.00001 6.5002 9.3358 6.50029 9.74984C6.50029 10.1639 6.16437 10.4997 5.75029 10.4998C5.33608 10.4998 5.00029 10.1641 5.00029 9.74984C5.00038 9.3357 5.33613 8.99984 5.75029 8.99984ZM9.75029 8.99984C9.33613 8.99984 9.00038 9.33571 9.00029 9.74984C9.00029 10.1641 9.33608 10.4998 9.75029 10.4998C10.1643 10.4997 10.5003 10.1639 10.5003 9.74984C10.5002 9.3358 10.1643 9.00001 9.75029 8.99984ZM14.2503 8.99984C13.8361 8.99984 13.5004 9.3357 13.5003 9.74984C13.5003 10.1641 13.8361 10.4998 14.2503 10.4998C14.6643 10.4997 15.0003 10.1639 15.0003 9.74984C15.0002 9.3358 14.6643 9.00001 14.2503 8.99984ZM18.2503 8.99984C18.6643 9.00001 19.0002 9.3358 19.0003 9.74984C19.0003 10.1639 18.6643 10.4997 18.2503 10.4998C17.8361 10.4998 17.5003 10.1641 17.5003 9.74984C17.5004 9.3357 17.8361 8.99984 18.2503 8.99984ZM9.75029 4.99984C10.1643 5.00001 10.5002 5.33581 10.5003 5.74984C10.5003 6.16395 10.1643 6.49968 9.75029 6.49984C9.33608 6.49984 9.00029 6.16405 9.00029 5.74984C9.00038 5.33571 9.33613 4.99984 9.75029 4.99984ZM14.2503 4.99984C14.6643 5.00001 15.0002 5.33581 15.0003 5.74984C15.0003 6.16395 14.6643 6.49968 14.2503 6.49984C13.8361 6.49984 13.5003 6.16405 13.5003 5.74984C13.5004 5.33571 13.8361 4.99984 14.2503 4.99984Z" fill="#1C274C"/>
</svg>
