<svg width="24" height="24" viewBox="0 0 24 24" fill="none" xmlns="http://www.w3.org/2000/svg">
<path d="M6.62524 2.69019C8.72032 1.4806 11.0556 1.05552 13.2864 1.32593C16.5261 1.71865 19.551 3.57855 21.3098 6.62476C23.0685 9.6709 23.1666 13.2204 21.887 16.2224C21.0057 18.2895 19.4703 20.0997 17.3752 21.3093C12.2337 24.2778 5.65926 22.5163 2.69067 17.3748C-0.277832 12.2332 1.48372 5.65876 6.62524 2.69019ZM13.1057 2.81519C11.1864 2.58254 9.17936 2.9474 7.37524 3.98901C2.95109 6.54335 1.4352 12.2006 3.9895 16.6248C6.54383 21.0489 12.2011 22.5648 16.6252 20.0105C18.4293 18.9689 19.7489 17.4131 20.5071 15.6345C21.6099 13.0478 21.5238 9.99513 20.011 7.37476C18.4982 4.75435 15.8974 3.15357 13.1057 2.81519ZM9.75024 17.4998C10.1642 17.4999 10.5002 17.8357 10.5002 18.2498C10.5002 18.6639 10.1643 18.9996 9.75024 18.9998C9.33603 18.9998 9.00024 18.664 9.00024 18.2498C9.00033 17.8356 9.33609 17.4998 9.75024 17.4998ZM14.2502 17.4998C14.6642 17.4999 15.0002 17.8357 15.0002 18.2498C15.0002 18.6639 14.6643 18.9996 14.2502 18.9998C13.836 18.9998 13.5002 18.664 13.5002 18.2498C13.5003 17.8356 13.8361 17.4998 14.2502 17.4998ZM9.75024 12.4998C10.7165 12.4999 11.5002 13.2834 11.5002 14.2498C11.5002 15.2162 10.7166 15.9996 9.75024 15.9998C8.78374 15.9998 8.00024 15.2163 8.00024 14.2498C8.00033 13.2833 8.7838 12.4998 9.75024 12.4998ZM14.2502 12.4998C15.2165 12.4999 16.0002 13.2834 16.0002 14.2498C16.0002 15.2162 15.2166 15.9996 14.2502 15.9998C13.2837 15.9998 12.5002 15.2163 12.5002 14.2498C12.5003 13.2833 13.2838 12.4998 14.2502 12.4998ZM5.75024 13.4998C6.16427 13.4999 6.50016 13.8357 6.50024 14.2498C6.50024 14.6639 6.16432 14.9996 5.75024 14.9998C5.33603 14.9998 5.00024 14.664 5.00024 14.2498C5.00033 13.8356 5.33609 13.4998 5.75024 13.4998ZM9.75024 13.4998C9.33609 13.4998 9.00033 13.8356 9.00024 14.2498C9.00024 14.664 9.33603 14.9998 9.75024 14.9998C10.1643 14.9996 10.5002 14.6638 10.5002 14.2498C10.5002 13.8357 10.1642 13.4999 9.75024 13.4998ZM14.2502 13.4998C13.8361 13.4998 13.5003 13.8356 13.5002 14.2498C13.5002 14.664 13.836 14.9998 14.2502 14.9998C14.6643 14.9996 15.0002 14.6638 15.0002 14.2498C15.0002 13.8357 14.6642 13.4999 14.2502 13.4998ZM18.2502 13.4998C18.6642 13.4999 19.0002 13.8357 19.0002 14.2498C19.0002 14.6639 18.6643 14.9996 18.2502 14.9998C17.836 14.9998 17.5002 14.664 17.5002 14.2498C17.5003 13.8356 17.8361 13.4998 18.2502 13.4998ZM9.75024 7.99976C10.7165 7.99993 11.5002 8.78343 11.5002 9.74976C11.5002 10.7162 10.7166 11.4996 9.75024 11.4998C8.78374 11.4998 8.00024 10.7163 8.00024 9.74976C8.00033 8.78333 8.7838 7.99976 9.75024 7.99976ZM14.2502 7.99976C15.2165 7.99993 16.0002 8.78343 16.0002 9.74976C16.0002 10.7162 15.2166 11.4996 14.2502 11.4998C13.2837 11.4998 12.5002 10.7163 12.5002 9.74976C12.5003 8.78333 13.2838 7.99976 14.2502 7.99976ZM5.75024 8.99976C6.16427 8.99993 6.50016 9.33571 6.50024 9.74976C6.50024 10.1639 6.16432 10.4996 5.75024 10.4998C5.33603 10.4998 5.00024 10.164 5.00024 9.74976C5.00033 9.33561 5.33609 8.99976 5.75024 8.99976ZM9.75024 8.99976C9.33609 8.99976 9.00033 9.33562 9.00024 9.74976C9.00024 10.164 9.33603 10.4998 9.75024 10.4998C10.1643 10.4996 10.5002 10.1639 10.5002 9.74976C10.5002 9.33571 10.1642 8.99993 9.75024 8.99976ZM14.2502 8.99976C13.8361 8.99976 13.5003 9.33561 13.5002 9.74976C13.5002 10.164 13.836 10.4998 14.2502 10.4998C14.6643 10.4996 15.0002 10.1639 15.0002 9.74976C15.0002 9.33571 14.6642 8.99993 14.2502 8.99976ZM18.2502 8.99976C18.6642 8.99993 19.0002 9.33571 19.0002 9.74976C19.0002 10.1639 18.6643 10.4996 18.2502 10.4998C17.836 10.4998 17.5002 10.164 17.5002 9.74976C17.5003 9.33561 17.8361 8.99976 18.2502 8.99976ZM9.75024 4.99976C10.1642 4.99993 10.5002 5.33572 10.5002 5.74976C10.5002 6.16386 10.1643 6.49958 9.75024 6.49976C9.33603 6.49976 9.00024 6.16397 9.00024 5.74976C9.00033 5.33562 9.33609 4.99976 9.75024 4.99976ZM14.2502 4.99976C14.6642 4.99993 15.0002 5.33572 15.0002 5.74976C15.0002 6.16386 14.6643 6.49958 14.2502 6.49976C13.836 6.49976 13.5002 6.16397 13.5002 5.74976C13.5003 5.33562 13.8361 4.99976 14.2502 4.99976Z" fill="#48465C"/>
</svg>
