<svg width="24" height="24" viewBox="0 0 24 24" fill="none" xmlns="http://www.w3.org/2000/svg">
<path d="M16.5 2.25C17.1765 2.25 17.8511 2.4149 18.4375 2.87207C19.0169 3.32377 19.4356 4.00255 19.7158 4.89258L19.7227 4.91504L22.2607 15.2158C22.5741 15.8382 22.75 16.5462 22.75 17.2939C22.75 19.7139 20.887 21.75 18.5 21.75H5.5C3.11298 21.75 1.25 19.7139 1.25 17.2939C1.25002 16.5462 1.4259 15.8382 1.73926 15.2158L4.27734 4.91504L4.28418 4.89258C4.56438 4.00255 4.9831 3.32377 5.5625 2.87207C6.14894 2.41491 6.82357 2.25 7.5 2.25H16.5ZM5.5 14.3379C4.49272 14.3379 3.59165 14.9243 3.10938 15.833C2.88175 16.2619 2.75003 16.7596 2.75 17.2939C2.75 18.9674 4.02103 20.25 5.5 20.25H18.5C19.979 20.25 21.25 18.9674 21.25 17.2939C21.25 16.7596 21.1182 16.2619 20.8906 15.833C20.4083 14.9243 19.5073 14.3379 18.5 14.3379H5.5ZM10.5 16.25C10.9142 16.25 11.25 16.5858 11.25 17V18C11.25 18.4142 10.9142 18.75 10.5 18.75C10.0858 18.75 9.75 18.4142 9.75 18V17C9.75 16.5858 10.0858 16.25 10.5 16.25ZM13 16.25C13.4142 16.25 13.75 16.5858 13.75 17V18C13.75 18.4142 13.4142 18.75 13 18.75C12.5858 18.75 12.25 18.4142 12.25 18V17C12.25 16.5858 12.5858 16.25 13 16.25ZM15.5 16.25C15.9142 16.25 16.25 16.5858 16.25 17V18C16.25 18.4142 15.9142 18.75 15.5 18.75C15.0858 18.75 14.75 18.4142 14.75 18V17C14.75 16.5858 15.0858 16.25 15.5 16.25ZM18 16.25C18.4142 16.25 18.75 16.5858 18.75 17V18C18.75 18.4142 18.4142 18.75 18 18.75C17.5858 18.75 17.25 18.4142 17.25 18V17C17.25 16.5858 17.5858 16.25 18 16.25ZM7.5 3.75C7.07188 3.75 6.74679 3.85011 6.48438 4.05469C6.21776 4.26254 5.94139 4.63704 5.72266 5.32129L3.77637 13.2197C4.30115 12.9752 4.88376 12.8379 5.5 12.8379H18.5C19.1163 12.8379 19.6988 12.9752 20.2236 13.2197L18.2773 5.32129C18.0585 4.63704 17.7822 4.26254 17.5156 4.05469C17.2532 3.85011 16.9281 3.75 16.5 3.75H7.5Z" fill="#1C274C"/>
</svg>
