<svg width="24" height="24" viewBox="0 0 24 24" fill="none" xmlns="http://www.w3.org/2000/svg">
<path d="M12 1.25C17.9371 1.25 22.75 6.06294 22.75 12C22.75 17.9371 17.9371 22.75 12 22.75C6.06294 22.75 1.25 17.9371 1.25 12C1.25 6.06294 6.06294 1.25 12 1.25ZM12 2.75C6.89137 2.75 2.75 6.89137 2.75 12C2.75 17.1086 6.89137 21.25 12 21.25C17.1086 21.25 21.25 17.1086 21.25 12C21.25 6.89137 17.1086 2.75 12 2.75ZM10.9697 8.46973C11.2626 8.17684 11.7374 8.17684 12.0303 8.46973C12.3232 8.76261 12.3232 9.23739 12.0303 9.53027L9.56055 12L12.0303 14.4697C12.3232 14.7626 12.3232 15.2374 12.0303 15.5303C11.7374 15.8232 11.2626 15.8232 10.9697 15.5303L7.96973 12.5303C7.67684 12.2374 7.67684 11.7626 7.96973 11.4697L10.9697 8.46973ZM14.9697 8.46973C15.2626 8.17684 15.7374 8.17684 16.0303 8.46973C16.3232 8.76261 16.3232 9.23739 16.0303 9.53027L13.5605 12L16.0303 14.4697C16.3232 14.7626 16.3232 15.2374 16.0303 15.5303C15.7374 15.8232 15.2626 15.8232 14.9697 15.5303L11.9697 12.5303C11.6768 12.2374 11.6768 11.7626 11.9697 11.4697L14.9697 8.46973Z" fill="#48465C"/>
</svg>
