<svg width="24" height="24" viewBox="0 0 24 24" fill="none" xmlns="http://www.w3.org/2000/svg">
<path d="M6.9502 2C7.33657 2 7.53008 2.0002 7.71582 2.01758C8.51677 2.09253 9.27617 2.40752 9.89551 2.9209C10.0392 3.04 10.1758 3.17679 10.4492 3.4502L11 4C11.8156 4.81563 12.2236 5.22336 12.7119 5.49512C12.9802 5.6444 13.2652 5.7625 13.5605 5.84668C14.098 5.99986 14.6747 6 15.8281 6H16.2021C18.8344 6 20.1503 6.00021 21.0059 6.76953C21.0846 6.84031 21.1598 6.91545 21.2305 6.99414C21.9998 7.84966 22 9.16568 22 11.7979V14C22 17.7712 21.9997 19.6566 20.8281 20.8281C19.6566 21.9997 17.7712 22 14 22H10C6.22878 22 4.34346 21.9997 3.17188 20.8281C2.00031 19.6566 2 17.7712 2 14V6.9502C2 6.06798 2.00006 5.62627 2.06934 5.25879C2.37463 3.64071 3.64071 2.37463 5.25879 2.06934C5.62627 2.00006 6.06798 2 6.9502 2ZM12 10C11.7159 10 11.5255 10.3408 11.1455 11.0225L11.0479 11.1992C10.94 11.3928 10.8859 11.4898 10.8018 11.5537C10.7176 11.6176 10.612 11.6411 10.4023 11.6885L10.2119 11.7314C9.47397 11.8984 9.10536 11.9823 9.01758 12.2646C8.93002 12.5468 9.18088 12.8408 9.68359 13.4287L9.81445 13.5811C9.95737 13.7481 10.0284 13.8322 10.0605 13.9355C10.0926 14.0389 10.0821 14.1502 10.0605 14.373L10.041 14.5762C9.96501 15.3607 9.92686 15.7531 10.1562 15.9277C10.3862 16.1021 10.732 15.9431 11.4229 15.625L11.6016 15.543C11.7978 15.4526 11.8959 15.4072 12 15.4072C12.1041 15.4072 12.2022 15.4526 12.3984 15.543L12.5771 15.625C13.268 15.9431 13.6138 16.1021 13.8438 15.9277C14.0732 15.7531 14.0349 15.3607 13.959 14.5762L13.9395 14.373C13.9179 14.1502 13.9074 14.0389 13.9395 13.9355C13.9717 13.8322 14.0427 13.7481 14.1855 13.5811L14.3164 13.4287C14.8191 12.8408 15.07 12.5468 14.9824 12.2646C14.8946 11.9823 14.526 11.8984 13.7881 11.7314L13.5977 11.6885C13.388 11.6411 13.2824 11.6176 13.1982 11.5537C13.1141 11.4898 13.06 11.3928 12.9521 11.1992L12.8545 11.0225C12.4745 10.3408 12.2841 10 12 10Z" fill="#1C274C"/>
</svg>
