<svg width="24" height="24" viewBox="0 0 24 24" fill="none" xmlns="http://www.w3.org/2000/svg">
<path d="M11 1.25C11.9665 1.25 12.75 2.03351 12.75 3V3.25H15.3369C15.9072 3.25 16.4315 3.25049 16.9102 3.25586C16.9397 3.25233 16.9696 3.25 17 3.25C17.0371 3.25 17.0737 3.25259 17.1094 3.25781C18.1007 3.27265 18.9369 3.31551 19.6348 3.45117C20.3713 3.59435 21.0011 3.84945 21.5254 4.32129C22.1031 4.84121 22.4029 5.48956 22.5605 6.26172C22.7099 6.99332 22.7407 7.88353 22.748 8.94043C22.7495 8.95996 22.75 8.98007 22.75 9C22.75 9.01674 22.7491 9.03334 22.748 9.0498C22.7496 9.34826 22.75 9.66467 22.75 9.99805V16.0098C22.75 16.693 22.7499 17.3071 22.7354 17.8525C22.7449 17.9002 22.75 17.9495 22.75 18C22.75 18.0679 22.7405 18.1338 22.7236 18.1963C22.6631 19.6686 22.4576 20.8398 21.5254 21.6787C21.0011 22.1505 20.3713 22.4056 19.6348 22.5488C18.9369 22.6845 18.1007 22.7274 17.1094 22.7422C17.0736 22.7474 17.0371 22.75 17 22.75C16.9696 22.75 16.9397 22.7477 16.9102 22.7441C16.4315 22.7495 15.9071 22.75 15.3369 22.75H13C12.0335 22.75 11.25 21.9665 11.25 21V20.75H8.66309C8.09289 20.75 7.56851 20.7495 7.08984 20.7441C7.06036 20.7477 7.03042 20.75 7 20.75C6.96286 20.75 6.92632 20.7474 6.89062 20.7422C5.89927 20.7274 5.06314 20.6845 4.36523 20.5488C3.62882 20.4056 2.99887 20.1505 2.47461 19.6787C1.54249 18.8398 1.33678 17.6686 1.27637 16.1963C1.25943 16.1338 1.25 16.0679 1.25 16C1.25 15.9495 1.25514 15.9002 1.26465 15.8525C1.25015 15.307 1.25 14.693 1.25 14.0098V7.99902C1.25 7.66541 1.25032 7.34843 1.25195 7.0498C1.25087 7.03334 1.25 7.01674 1.25 7C1.25 6.98007 1.25043 6.95996 1.25195 6.94043C1.25929 5.88353 1.29014 4.99332 1.43945 4.26172C1.59708 3.48956 1.89693 2.84121 2.47461 2.32129C2.99887 1.84945 3.62882 1.59435 4.36523 1.45117C5.06314 1.31552 5.89928 1.27265 6.89062 1.25781C6.92632 1.25259 6.96286 1.25 7 1.25C7.03043 1.25 7.06037 1.25233 7.08984 1.25586C7.56855 1.25049 8.09284 1.25 8.66309 1.25H11ZM12.75 21C12.75 21.1381 12.8619 21.25 13 21.25H15.333C15.6563 21.25 15.9615 21.2499 16.25 21.249V18.75H12.75V21ZM17.75 21.2266C18.4051 21.2036 18.9236 21.1588 19.3486 21.0762C19.9109 20.9669 20.2608 20.7989 20.5225 20.5635C20.8942 20.2286 21.0963 19.753 21.1865 18.75H17.75V21.2266ZM7.75 16.75V19.249C8.03847 19.2499 8.34371 19.25 8.66699 19.25H11.25V16.75H7.75ZM2.81348 16.75C2.90374 17.7534 3.10647 18.2286 3.47852 18.5635C3.74015 18.7989 4.08902 18.9669 4.65137 19.0762C5.07634 19.1588 5.59489 19.2036 6.25 19.2266V16.75H2.81348ZM12.75 17.25H21.2461C21.2501 16.8714 21.25 16.4571 21.25 16V9.75H12.75V17.25ZM2.75 7.75V14C2.75 14.4571 2.74993 14.8714 2.75391 15.25H11.25V7.75H2.75ZM12.75 8.25H16.25V4.75098C15.9615 4.75003 15.6563 4.75 15.333 4.75H12.75V8.25ZM17.75 8.25H21.2373C21.2201 7.54181 21.18 6.99837 21.0908 6.56152C20.9782 6.00948 20.7982 5.68483 20.5225 5.43652C20.2608 5.20105 19.9109 5.03317 19.3486 4.92383C18.9236 4.84122 18.4051 4.79641 17.75 4.77344V8.25ZM6.25 2.77344C5.59489 2.79641 5.07634 2.84121 4.65137 2.92383C4.08905 3.03316 3.74015 3.2011 3.47852 3.43652C3.20257 3.68488 3.02195 4.0092 2.90918 4.56152C2.82002 4.99837 2.77993 5.54181 2.7627 6.25H6.25V2.77344ZM7.75 2.75098V6.25H11.25V3C11.25 2.86194 11.1381 2.75 11 2.75H8.66699C8.34371 2.75 8.03847 2.75003 7.75 2.75098Z" fill="#1C274C"/>
</svg>
