<svg width="24" height="24" viewBox="0 0 24 24" fill="none" xmlns="http://www.w3.org/2000/svg">
<path d="M14.5186 2.01074C17.606 2.05624 19.3588 2.28765 20.5352 3.46387C21.9997 4.92834 22 7.28596 22 12C22 16.7137 21.9996 19.0708 20.5352 20.5352C19.3636 21.7067 17.6205 21.9414 14.5566 21.9883V19.9844C14.5567 19.4279 15.0334 18.9862 15.5176 18.7119C16.4322 18.1937 17.0761 17.0052 17.0762 15.9541C17.0762 14.5629 15.9478 13.4346 14.5566 13.4346C13.1656 13.4348 12.0381 14.563 12.0381 15.9541C12.0381 14.5629 10.9098 13.4346 9.51855 13.4346C8.12755 13.4348 7 14.563 7 15.9541C7.00004 17.0052 7.64389 18.1937 8.55859 18.7119C9.04269 18.9862 9.51854 19.428 9.51855 19.9844V21.9893C6.40773 21.945 4.64605 21.7162 3.46484 20.5352C2.00041 19.0708 2 16.7137 2 12C2 7.28596 2.00037 4.92834 3.46484 3.46387C4.64122 2.28774 6.39341 2.05625 9.48047 2.01074V4.06055C9.48027 4.61683 9.00456 5.05877 8.52051 5.33301C7.60578 5.85122 6.96191 7.03974 6.96191 8.09082C6.96204 9.48176 8.08954 10.6091 9.48047 10.6094C10.8716 10.6094 11.9999 9.48191 12 8.09082C12.0001 9.48179 13.1276 10.6092 14.5186 10.6094C15.9097 10.6094 17.038 9.48191 17.0381 8.09082C17.0381 7.03977 16.3942 5.85124 15.4795 5.33301C14.9954 5.05877 14.5188 4.61686 14.5186 4.06055V2.01074Z" fill="#1C274C"/>
</svg>
