<svg width="24" height="24" viewBox="0 0 24 24" fill="none" xmlns="http://www.w3.org/2000/svg">
<path d="M21.9619 13.5C21.8914 14.7579 21.6904 15.5518 21.1211 16.1211C20.2424 16.9998 18.8284 17 16 17H12.75V21H16C16.4142 21 16.75 21.3358 16.75 21.75C16.75 22.1642 16.4142 22.5 16 22.5H8C7.58579 22.5 7.25 22.1642 7.25 21.75C7.25 21.3358 7.58579 21 8 21H11.25V17H8C5.17158 17 3.75759 16.9998 2.87891 16.1211C2.30961 15.5518 2.10867 14.7579 2.03809 13.5H21.9619ZM10.918 2C10.7128 2.38431 10.6179 2.78602 10.5684 3.1543C10.4998 3.66404 10.4999 4.28204 10.5 4.91797V5.08203C10.4999 5.71796 10.4998 6.33596 10.5684 6.8457C10.6457 7.4205 10.8341 8.07628 11.3789 8.62109C11.9237 9.16591 12.5795 9.35436 13.1543 9.43164C13.6641 9.50016 14.2821 9.50013 14.918 9.5H16.082C16.7179 9.50013 17.3359 9.50016 17.8457 9.43164C18.4205 9.35436 19.0763 9.16591 19.6211 8.62109C19.7369 8.5053 19.8367 8.38428 19.9229 8.25977L20.0381 8.30762L20.0947 8.33105C20.3545 8.43958 20.684 8.57754 20.9795 8.65234C21.2131 8.71148 21.5859 8.77472 21.998 8.67969C22.0002 9.09219 22 9.53155 22 10V11C22 11.5516 21.9997 12.0494 21.9932 12.5H2.00684C2.00032 12.0494 2 11.5516 2 11V10C2 6.22876 2.00031 4.34345 3.17188 3.17188C4.34345 2.00031 6.22876 2 10 2H10.918ZM16 2C17.4142 2 18.1211 2.00013 18.5605 2.43945C18.8451 2.7241 18.9452 3.12106 18.9805 3.75H19L20.6152 3.07715C21.2414 2.81624 21.5546 2.68559 21.7773 2.83398C21.9999 2.98242 22 3.32161 22 4V6C22 6.67839 21.9999 7.01758 21.7773 7.16602C21.5546 7.31441 21.2414 7.18376 20.6152 6.92285L19 6.25H18.9805C18.9452 6.87894 18.8451 7.2759 18.5605 7.56055C18.1211 7.99987 17.4142 8 16 8H15C13.5858 8 12.8789 7.99987 12.4395 7.56055C12.0002 7.12121 12 6.41421 12 5C12 3.58579 12.0002 2.87879 12.4395 2.43945C12.8789 2.00013 13.5858 2 15 2H16Z" fill="#1C274C"/>
</svg>
