<svg width="24" height="24" viewBox="0 0 24 24" fill="none" xmlns="http://www.w3.org/2000/svg">
<path d="M13.0518 1.25C13.9503 1.24997 14.7001 1.25012 15.2949 1.33008C15.9225 1.41452 16.489 1.6003 16.9443 2.05566C17.3997 2.51102 17.5855 3.07748 17.6699 3.70508C17.7499 4.29987 17.75 5.04976 17.75 5.94824V7.4043C19.5884 9.00834 20.75 11.3686 20.75 14C20.75 18.8325 16.8325 22.75 12 22.75C7.16751 22.75 3.25 18.8325 3.25 14C3.25 11.3686 4.4116 9.00834 6.25 7.4043V5.94824C6.24997 5.04976 6.25011 4.29986 6.33008 3.70508C6.41452 3.07747 6.6003 2.51102 7.05566 2.05566C7.51102 1.60031 8.07747 1.41452 8.70508 1.33008C9.29986 1.25012 10.0497 1.24997 10.9482 1.25H13.0518ZM12 6.75C7.99594 6.75 4.75 9.99594 4.75 14C4.75 18.0041 7.99594 21.25 12 21.25C16.0041 21.25 19.25 18.0041 19.25 14C19.25 9.99594 16.0041 6.75 12 6.75ZM12 10.25C12.5017 10.25 12.8141 10.575 12.9863 10.7998C13.1506 11.0144 13.3166 11.3116 13.4863 11.6162C13.4939 11.6298 13.5012 11.6436 13.5088 11.6572L13.6074 11.834C13.6302 11.8748 13.6484 11.9071 13.6641 11.9346C13.6913 11.941 13.7231 11.9481 13.7627 11.957L13.9531 12C13.9688 12.0035 13.9853 12.0072 14.001 12.0107C14.3287 12.0848 14.6544 12.1583 14.9043 12.2568C15.1805 12.3656 15.555 12.5781 15.6992 13.042C15.8408 13.4975 15.662 13.8838 15.5059 14.1318C15.3614 14.3614 15.1409 14.618 14.916 14.8809C14.9059 14.8925 14.8957 14.9042 14.8857 14.916L14.7559 15.0684C14.7214 15.1087 14.6956 15.1397 14.6738 15.166C14.6767 15.2022 14.6801 15.2444 14.6855 15.3008L14.7061 15.5039C14.7076 15.5194 14.7085 15.5353 14.71 15.5508C14.7441 15.9026 14.7777 16.2426 14.7656 16.5146C14.7529 16.7998 14.684 17.2315 14.2969 17.5254C13.8975 17.8285 13.4565 17.7628 13.1768 17.6826C12.919 17.6088 12.6143 17.4684 12.3076 17.3271C12.2929 17.3204 12.2783 17.3134 12.2637 17.3066L12.085 17.2246C12.0515 17.2092 12.024 17.1964 12 17.1855C11.976 17.1964 11.9485 17.2092 11.915 17.2246L11.7363 17.3066C11.7217 17.3134 11.7071 17.3204 11.6924 17.3271C11.3857 17.4684 11.0809 17.6088 10.8232 17.6826C10.5435 17.7628 10.1025 17.8285 9.70312 17.5254C9.31601 17.2315 9.24709 16.7998 9.23438 16.5146C9.22226 16.2426 9.25587 15.9026 9.29004 15.5508C9.29154 15.5353 9.29244 15.5194 9.29395 15.5039L9.31445 15.3008C9.31992 15.2444 9.32319 15.2022 9.32617 15.166C9.30427 15.1397 9.27862 15.1087 9.24414 15.0684L9.11426 14.916C9.1042 14.9043 9.09402 14.8926 9.08398 14.8809C8.85911 14.6181 8.63869 14.3614 8.49414 14.1318C8.338 13.8838 8.15932 13.4975 8.30078 13.042C8.44505 12.5781 8.81956 12.3656 9.0957 12.2568C9.34568 12.1583 9.67136 12.0848 9.99902 12.0107C10.0146 12.0073 10.0304 12.0035 10.0459 12L10.2373 11.957C10.2769 11.9481 10.3087 11.941 10.3359 11.9346C10.3516 11.9071 10.3698 11.8748 10.3926 11.834L10.4912 11.6572C10.4988 11.6436 10.5061 11.6298 10.5137 11.6162C10.6834 11.3116 10.8494 11.0144 11.0137 10.7998C11.1859 10.575 11.4983 10.25 12 10.25ZM11.8008 12.3877L11.7031 12.5645C11.6963 12.5768 11.6886 12.5901 11.6807 12.6045C11.6022 12.7481 11.4716 12.9858 11.2549 13.1504C11.0335 13.3185 10.767 13.3764 10.6113 13.4102C10.5958 13.4135 10.5815 13.4169 10.5684 13.4199L10.377 13.4629C10.202 13.5025 10.0594 13.5348 9.9375 13.5654C10.0169 13.663 10.1198 13.7847 10.2539 13.9414L10.3838 14.0938C10.3929 14.1045 10.4036 14.1157 10.4141 14.1279C10.5221 14.2522 10.6967 14.4538 10.7773 14.7129C10.8568 14.9687 10.8288 15.2321 10.8115 15.3984C10.8097 15.4149 10.808 15.4308 10.8066 15.4453L10.7871 15.6484C10.7689 15.8366 10.7545 15.9872 10.7451 16.1094C10.8493 16.0635 10.9686 16.0091 11.1094 15.9443L11.2881 15.8613C11.3003 15.8557 11.3138 15.8496 11.3281 15.8428C11.4716 15.7751 11.7213 15.6572 12 15.6572C12.2787 15.6572 12.5284 15.7751 12.6719 15.8428C12.6862 15.8496 12.6997 15.8557 12.7119 15.8613L12.8906 15.9443C13.0314 16.0091 13.1507 16.0635 13.2549 16.1094C13.2455 15.9872 13.2311 15.8366 13.2129 15.6484L13.1934 15.4453C13.192 15.4309 13.1903 15.4149 13.1885 15.3984C13.1712 15.2321 13.1432 14.9687 13.2227 14.7129C13.3033 14.4538 13.4779 14.2522 13.5859 14.1279C13.5964 14.1157 13.6071 14.1045 13.6162 14.0938L13.7461 13.9414C13.8802 13.7847 13.9831 13.663 14.0625 13.5654C13.9406 13.5348 13.798 13.5025 13.623 13.4629L13.4316 13.4199C13.4185 13.4169 13.4042 13.4135 13.3887 13.4102C13.233 13.3764 12.9665 13.3185 12.7451 13.1504C12.5284 12.9858 12.3978 12.7481 12.3193 12.6045C12.3114 12.5901 12.3037 12.5768 12.2969 12.5645L12.1992 12.3877C12.123 12.251 12.0581 12.1348 12 12.0342C11.9419 12.1348 11.877 12.251 11.8008 12.3877ZM11 2.75C10.036 2.75 9.38831 2.75147 8.90527 2.81641C8.44388 2.87845 8.24651 2.9859 8.11621 3.11621C7.9859 3.24652 7.87846 3.44389 7.81641 3.90527C7.75147 4.38831 7.75 5.03599 7.75 6V6.34961C9.00837 5.64907 10.4576 5.25 12 5.25C13.5424 5.25 14.9916 5.64907 16.25 6.34961V6C16.25 5.03599 16.2485 4.38831 16.1836 3.90527C16.1215 3.44389 16.0141 3.24652 15.8838 3.11621C15.7535 2.98591 15.5561 2.87845 15.0947 2.81641C14.6117 2.75147 13.964 2.75 13 2.75H11Z" fill="#1C274C"/>
</svg>
