<svg width="24" height="24" viewBox="0 0 24 24" fill="none" xmlns="http://www.w3.org/2000/svg">
<path d="M4.56958 17.8652C5.25642 16.7917 6.72704 16.8273 7.45728 17.7617C8.44728 19.029 9.82971 20.25 12.0002 20.25C14.2088 20.25 15.5698 19.2708 16.5051 18.0205C17.2251 17.0583 18.7913 16.9018 19.5461 18.0439C20.171 18.9893 20.849 19.7302 22.1721 20.042C22.5753 20.137 22.8247 20.5411 22.7297 20.9443C22.6347 21.3475 22.2314 21.5968 21.8284 21.502C19.9764 21.0656 19.0204 19.9688 18.2942 18.8701C18.2374 18.7843 18.1519 18.7412 18.0413 18.7432C17.9227 18.7454 17.7936 18.8031 17.7063 18.9199C16.5386 20.4807 14.7602 21.75 12.0002 21.75C9.15778 21.75 7.38875 20.1103 6.27563 18.6855C6.2039 18.5936 6.11005 18.5588 6.02954 18.5605C5.95369 18.5623 5.88398 18.5945 5.83325 18.6738C5.09378 19.8299 4.13913 21.0384 2.17212 21.502C1.76895 21.597 1.36478 21.3475 1.26978 20.9443C1.17486 20.5412 1.42524 20.137 1.82837 20.042C3.22907 19.7118 3.90735 18.9005 4.56958 17.8652ZM4.56958 12.8652C5.25642 11.7917 6.72704 11.8273 7.45728 12.7617C8.44728 14.029 9.82971 15.25 12.0002 15.25C14.2088 15.25 15.5698 14.2708 16.5051 13.0205C17.2251 12.0583 18.7913 11.9019 19.5461 13.0439C20.171 13.9893 20.849 14.7302 22.1721 15.042C22.5753 15.137 22.8247 15.5411 22.7297 15.9443C22.6347 16.3475 22.2314 16.5969 21.8284 16.502C19.9764 16.0656 19.0204 14.9688 18.2942 13.8701C18.2374 13.7843 18.1519 13.7412 18.0413 13.7432C17.9227 13.7454 17.7936 13.8031 17.7063 13.9199C16.5386 15.4807 14.7602 16.75 12.0002 16.75C9.15778 16.75 7.38875 15.1103 6.27563 13.6855C6.2039 13.5936 6.11005 13.5588 6.02954 13.5605C5.95369 13.5623 5.88398 13.5945 5.83325 13.6738C5.09378 14.8299 4.13913 16.0384 2.17212 16.502C1.76895 16.597 1.36478 16.3475 1.26978 15.9443C1.17486 15.5412 1.42524 15.137 1.82837 15.042C3.22907 14.7118 3.90735 13.9005 4.56958 12.8652ZM6.40063 3.53906C7.28602 2.65399 8.73425 2.69916 9.56274 3.6377L16.0627 11.0039C16.3366 11.3145 16.3069 11.7885 15.9963 12.0625C15.6857 12.3365 15.2118 12.3067 14.9377 11.9961L8.43872 4.63086C8.18274 4.34075 7.73488 4.32623 7.46118 4.59961C7.21328 4.84751 7.19792 5.24454 7.42603 5.51074L8.41333 6.66309C9.31998 7.72085 9.05716 9.33983 7.86255 10.0566L4.38599 12.1436C4.03082 12.3565 3.56976 12.2409 3.35669 11.8857C3.14377 11.5306 3.2594 11.0695 3.6145 10.8564L7.09106 8.77051C7.48922 8.53159 7.57681 7.99222 7.27466 7.63965L6.28735 6.4873C5.54908 5.62599 5.59847 4.34121 6.40063 3.53906ZM17.0002 2.25C18.7951 2.25008 20.2502 3.70512 20.2502 5.5C20.2502 7.29488 18.7951 8.74992 17.0002 8.75C15.2053 8.75 13.7502 7.29493 13.7502 5.5C13.7502 3.70507 15.2053 2.25 17.0002 2.25ZM17.0002 3.75C16.0337 3.75 15.2502 4.5335 15.2502 5.5C15.2502 6.4665 16.0337 7.25 17.0002 7.25C17.9667 7.24992 18.7502 6.46645 18.7502 5.5C18.7502 4.53355 17.9667 3.75008 17.0002 3.75Z" fill="#48465C"/>
</svg>
