<svg width="24" height="24" viewBox="0 0 24 24" fill="none" xmlns="http://www.w3.org/2000/svg">
<path d="M11 2.99982C12.1175 2.99982 13.1025 2.99984 13.9746 3.01935C13.9168 3.13908 13.8699 3.26384 13.834 3.39142C12.8229 3.01312 11.6572 3.4089 11.0996 4.37482C10.9199 4.68607 10.8227 5.02232 10.8018 5.35822C10.2704 5.71176 9.90368 6.28283 9.81738 6.9383C9.69868 7.84049 10.1348 8.7255 10.9229 9.18049L12.6553 10.1805C13.7312 10.8015 15.1072 10.4331 15.7285 9.35724C15.8824 9.09081 15.976 8.80557 16.0127 8.51838C16.1609 8.79788 16.3695 9.04834 16.6309 9.24885C17.3527 9.80262 18.337 9.86689 19.125 9.41193L20.9062 8.38361C20.9998 9.60811 21 11.1159 21 12.9998C21 17.7137 20.9996 20.0706 19.5352 21.535C18.0707 22.9994 15.7139 22.9998 11 22.9998C6.28606 22.9998 3.92931 22.9994 2.46484 21.535C1.00039 20.0706 1 17.7137 1 12.9998C1 8.28577 1.00037 5.92815 2.46484 4.46369C3.92933 2.99962 6.28638 2.99982 11 2.99982ZM11 15.9998C10.4477 15.9998 10 16.4475 10 16.9998C10.0001 17.552 10.4478 17.9998 11 17.9998C11.5522 17.9998 11.9999 17.552 12 16.9998C12 16.4475 11.5523 15.9998 11 15.9998ZM10.002 11.4422C9.69408 11.1653 9.21939 11.19 8.94238 11.4979C8.47752 12.0147 7.97745 12.2498 7.5 12.2498C7.02254 12.2498 6.52247 12.0147 6.05762 11.4979C5.78061 11.19 5.30596 11.1653 4.99805 11.4422C4.69043 11.7192 4.66566 12.193 4.94238 12.5008C5.61136 13.2446 6.4902 13.7498 7.5 13.7498C8.50979 13.7498 9.38869 13.2446 10.0576 12.5008C10.3343 12.193 10.3096 11.7192 10.002 11.4422ZM17.002 11.4422C16.6941 11.1652 16.2194 11.19 15.9424 11.4979C15.4775 12.0147 14.9775 12.2498 14.5 12.2498C14.0226 12.2498 13.5225 12.0147 13.0576 11.4979C12.7807 11.19 12.3059 11.1652 11.998 11.4422C11.6904 11.7192 11.6657 12.193 11.9424 12.5008C12.6113 13.2446 13.4902 13.7498 14.5 13.7498C15.5098 13.7498 16.3887 13.2446 17.0576 12.5008C17.3343 12.193 17.3096 11.7192 17.002 11.4422ZM12.3984 5.12482C12.6055 4.7661 13.0642 4.6433 13.4229 4.85041L15.1553 5.85041C15.4177 6.00211 15.5629 6.29692 15.5234 6.59748C15.4838 6.89823 15.2666 7.14592 14.9736 7.22443L13.9912 7.4881L14.1553 7.58185C14.5139 7.78898 14.6369 8.24855 14.4297 8.60724C14.2226 8.96567 13.7638 9.08839 13.4053 8.88166L11.6729 7.88166C11.4102 7.72999 11.2651 7.43436 11.3047 7.13361C11.3444 6.83313 11.5607 6.58621 11.8535 6.50763L12.8369 6.24396L12.6729 6.14924C12.3142 5.94212 12.1913 5.48351 12.3984 5.12482ZM19.0889 1.35041C19.3516 1.19874 19.6802 1.22043 19.9209 1.4051C20.1614 1.58979 20.2669 1.90129 20.1885 2.19416L19.1934 5.909L21.0889 4.81427C21.4475 4.6072 21.9061 4.73012 22.1133 5.08869C22.3205 5.44741 22.1976 5.906 21.8389 6.1131L18.375 8.1131C18.1123 8.26476 17.7845 8.24301 17.5439 8.05842C17.3032 7.87375 17.1969 7.56236 17.2754 7.26935L18.2715 3.55451L16.375 4.64924C16.0164 4.85629 15.5577 4.7334 15.3506 4.37482C15.1435 4.01614 15.2664 3.55755 15.625 3.35041L19.0889 1.35041Z" fill="#1C274C"/>
</svg>
