<svg width="24" height="24" viewBox="0 0 24 24" fill="none" xmlns="http://www.w3.org/2000/svg">
<path d="M18.5205 19.5811C16.7697 21.0884 14.4915 22 12 22C9.50853 22 7.2303 21.0883 5.47949 19.5811L9.75195 15.3086C10.3927 15.7447 11.1665 16 12 16C12.8335 16 13.6073 15.7447 14.248 15.3086L18.5205 19.5811ZM8.69141 9.75195C8.25525 10.3927 8 11.1665 8 12C8.00001 12.8335 8.25525 13.6074 8.69141 14.248L4.41797 18.5205C2.91093 16.7698 2.00001 14.4913 2 12C2 9.50876 2.91096 7.23024 4.41797 5.47949L8.69141 9.75195ZM19.582 5.47949C21.0891 7.23024 22 9.50876 22 12C22 14.4913 21.0891 16.7698 19.582 18.5205L15.3086 14.248C15.7447 13.6074 16 12.8335 16 12C16 11.1665 15.7447 10.3927 15.3086 9.75195L19.582 5.47949ZM12 2C14.4913 2 16.7698 2.91093 18.5205 4.41797L14.248 8.69141C13.6073 8.25524 12.8335 8 12 8C11.1665 8 10.3927 8.25524 9.75195 8.69141L5.47949 4.41797C7.23024 2.91095 9.50875 2 12 2Z" fill="#1C274C"/>
</svg>
