<svg width="24" height="24" viewBox="0 0 24 24" fill="none" xmlns="http://www.w3.org/2000/svg">
<path d="M13 1.25C13.4142 1.25 13.75 1.58579 13.75 2C13.75 2.41422 13.4142 2.75 13 2.75H12C9.62178 2.75 7.91326 2.75199 6.61328 2.92676C5.33508 3.09865 4.56472 3.42551 3.99512 3.99512C3.42551 4.56473 3.09865 5.33509 2.92676 6.61328C2.75198 7.91326 2.75 9.62178 2.75 12C2.75 14.3782 2.75198 16.0867 2.92676 17.3867C3.09865 18.6649 3.42551 19.4352 3.99512 20.0049C4.56472 20.5745 5.33508 20.9013 6.61328 21.0732C7.91326 21.248 9.62178 21.25 12 21.25C14.3782 21.25 16.0867 21.248 17.3867 21.0732C18.6649 20.9013 19.4352 20.5745 20.0049 20.0049C20.5745 19.4352 20.9014 18.6649 21.0732 17.3867C21.248 16.0867 21.25 14.3782 21.25 12V11C21.25 10.5858 21.5858 10.25 22 10.25C22.4142 10.25 22.75 10.5858 22.75 11V12.0576C22.75 14.3657 22.7502 16.1745 22.5605 17.5859C22.3662 19.0306 21.9602 20.1705 21.0654 21.0654C20.1706 21.9602 19.0306 22.3663 17.5859 22.5605C16.1745 22.7503 14.3657 22.75 12.0576 22.75H11.9424C9.63433 22.75 7.82544 22.7503 6.41406 22.5605C4.96932 22.3663 3.82938 21.9602 2.93457 21.0654C2.03978 20.1705 1.63369 19.0306 1.43945 17.5859C1.24974 16.1745 1.24999 14.3657 1.25 12.0576V11.9424C1.24999 9.63432 1.24974 7.82544 1.43945 6.41406C1.63369 4.96932 2.03976 3.82938 2.93457 2.93457C3.82938 2.03976 4.96932 1.63369 6.41406 1.43945C7.82542 1.24974 9.63439 1.24999 11.9424 1.25H13ZM13 16.75C13.4142 16.75 13.75 17.0858 13.75 17.5C13.75 17.9142 13.4142 18.25 13 18.25H7C6.58579 18.25 6.25 17.9142 6.25 17.5C6.25 17.0858 6.58579 16.75 7 16.75H13ZM16 13.25C16.4142 13.25 16.75 13.5858 16.75 14C16.75 14.4142 16.4142 14.75 16 14.75H7C6.58579 14.75 6.25 14.4142 6.25 14C6.25 13.5858 6.58579 13.25 7 13.25H16ZM21.4697 1.46973C21.7626 1.17684 22.2374 1.17684 22.5303 1.46973C22.8231 1.76262 22.8231 2.23739 22.5303 2.53027L20.0605 5L22.5303 7.46973C22.8231 7.76261 22.8231 8.23738 22.5303 8.53027C22.2374 8.82314 21.7626 8.82311 21.4697 8.53027L19 6.06055L16.5303 8.53027C16.2374 8.82314 15.7626 8.82316 15.4697 8.53027C15.1768 8.23738 15.1768 7.76262 15.4697 7.46973L17.9395 5L15.4697 2.53027C15.1768 2.23738 15.1768 1.76262 15.4697 1.46973C15.7626 1.17684 16.2374 1.17684 16.5303 1.46973L19 3.93945L21.4697 1.46973Z" fill="#1C274C"/>
</svg>
