<svg width="24" height="24" viewBox="0 0 24 24" fill="none" xmlns="http://www.w3.org/2000/svg">
<path d="M12 1.25C17.9371 1.25 22.75 6.06294 22.75 12C22.75 15.9353 20.6354 19.3767 17.4805 21.25H22C22.4142 21.25 22.75 21.5858 22.75 22C22.75 22.4142 22.4142 22.75 22 22.75H12C6.06294 22.75 1.25 17.9371 1.25 12C1.25 6.06294 6.06294 1.25 12 1.25ZM12 2.75C6.89137 2.75 2.75 6.89137 2.75 12C2.75 17.1086 6.89137 21.25 12 21.25C17.1086 21.25 21.25 17.1086 21.25 12C21.25 6.89137 17.1086 2.75 12 2.75ZM12 17.5C12.5523 17.5 13 17.9477 13 18.5C13 19.0523 12.5523 19.5 12 19.5C11.4477 19.5 11 19.0523 11 18.5C11 17.9477 11.4477 17.5 12 17.5ZM12 8.25C14.0711 8.25 15.75 9.92893 15.75 12C15.75 14.0711 14.0711 15.75 12 15.75C9.92893 15.75 8.25 14.0711 8.25 12C8.25 9.92893 9.92893 8.25 12 8.25ZM12 9.75C10.7574 9.75 9.75 10.7574 9.75 12C9.75 13.2426 10.7574 14.25 12 14.25C13.2426 14.25 14.25 13.2426 14.25 12C14.25 10.7574 13.2426 9.75 12 9.75ZM5.5 11C6.05228 11 6.5 11.4477 6.5 12C6.5 12.5523 6.05228 13 5.5 13C4.94772 13 4.5 12.5523 4.5 12C4.5 11.4477 4.94772 11 5.5 11ZM18.5 11C19.0523 11 19.5 11.4477 19.5 12C19.5 12.5523 19.0523 13 18.5 13C17.9477 13 17.5 12.5523 17.5 12C17.5 11.4477 17.9477 11 18.5 11ZM12 4.5C12.5523 4.5 13 4.94772 13 5.5C13 6.05228 12.5523 6.5 12 6.5C11.4477 6.5 11 6.05228 11 5.5C11 4.94772 11.4477 4.5 12 4.5Z" fill="#1C274C"/>
</svg>
