<svg width="24" height="24" viewBox="0 0 24 24" fill="none" xmlns="http://www.w3.org/2000/svg">
<path d="M12.0547 1.25C13.4222 1.24998 14.5246 1.24968 15.3916 1.36621C16.2917 1.48723 17.0494 1.74673 17.6514 2.34863C18.3913 3.08861 18.6205 4.07554 18.7012 5.2998C18.9461 5.31615 19.1762 5.33726 19.3916 5.36621C20.2917 5.48723 21.0494 5.74673 21.6514 6.34863C22.2533 6.95055 22.5128 7.70829 22.6338 8.6084C22.7503 9.47534 22.75 10.5778 22.75 11.9453V12.0547C22.75 13.4222 22.7503 14.5246 22.6338 15.3916C22.5128 16.2917 22.2533 17.0494 21.6514 17.6514C20.9114 18.3913 19.9244 18.6205 18.7002 18.7012C18.6838 18.9461 18.6628 19.1762 18.6338 19.3916C18.5128 20.2917 18.2533 21.0494 17.6514 21.6514C17.0494 22.2533 16.2917 22.5128 15.3916 22.6338C14.5246 22.7503 13.4222 22.75 12.0547 22.75H11.9453C10.5778 22.75 9.47534 22.7503 8.6084 22.6338C7.70829 22.5128 6.95055 22.2533 6.34863 21.6514C5.74673 21.0494 5.48723 20.2917 5.36621 19.3916C5.33726 19.1762 5.31616 18.9461 5.2998 18.7012C4.07555 18.6205 3.08861 18.3913 2.34863 17.6514C1.74673 17.0494 1.48723 16.2917 1.36621 15.3916C1.24968 14.5246 1.24998 13.4222 1.25 12.0547V11.9453C1.24998 10.5778 1.24968 9.47534 1.36621 8.6084C1.48723 7.70829 1.74671 6.95055 2.34863 6.34863C2.95055 5.74671 3.70829 5.48723 4.6084 5.36621C4.82383 5.33725 5.05388 5.31615 5.29883 5.2998C5.37956 4.07554 5.60865 3.08861 6.34863 2.34863C6.95055 1.74671 7.70829 1.48723 8.6084 1.36621C9.47534 1.24968 10.5778 1.24998 11.9453 1.25H12.0547ZM6.75 16C6.75 17.4354 6.75196 18.437 6.85352 19.1924C6.95218 19.9258 7.13249 20.3141 7.40918 20.5908C7.68594 20.8676 8.07482 21.0478 8.80859 21.1465C9.5639 21.2479 10.5649 21.25 12 21.25C13.4354 21.25 14.437 21.248 15.1924 21.1465C15.9258 21.0478 16.3141 20.8676 16.5908 20.5908C16.8676 20.3141 17.0478 19.9258 17.1465 19.1924C17.248 18.437 17.25 17.4354 17.25 16V14.75H6.75V16ZM13 18.5547C13.4141 18.5547 13.7499 18.8906 13.75 19.3047C13.75 19.7189 13.4142 20.0547 13 20.0547H9C8.58579 20.0547 8.25 19.7189 8.25 19.3047C8.25011 18.8906 8.58586 18.5547 9 18.5547H13ZM15 16.0547C15.4141 16.0547 15.7499 16.3906 15.75 16.8047C15.75 17.2189 15.4142 17.5547 15 17.5547H9C8.58579 17.5547 8.25 17.2189 8.25 16.8047C8.25012 16.3906 8.58586 16.0547 9 16.0547H15ZM8 6.75C6.56484 6.75 5.5639 6.75201 4.80859 6.85352C4.07482 6.95217 3.68594 7.13242 3.40918 7.40918C3.13242 7.68594 2.95217 8.07482 2.85352 8.80859C2.75201 9.5639 2.75 10.5649 2.75 12C2.75 13.4354 2.75196 14.437 2.85352 15.1924C2.95218 15.9258 3.13249 16.3141 3.40918 16.5908C3.74469 16.9263 4.23208 17.1114 5.25293 17.1934C5.24998 16.8364 5.24999 16.4567 5.25 16.0547V14.75H5C4.58579 14.75 4.25 14.4142 4.25 14C4.25 13.5858 4.58579 13.25 5 13.25H19C19.4142 13.25 19.75 13.5858 19.75 14C19.75 14.4142 19.4142 14.75 19 14.75H18.75V16.0547C18.75 16.4567 18.75 16.8364 18.7471 17.1934C19.7679 17.1114 20.2553 16.9263 20.5908 16.5908C20.8676 16.3141 21.0478 15.9258 21.1465 15.1924C21.248 14.437 21.25 13.4354 21.25 12C21.25 10.5649 21.2479 9.5639 21.1465 8.80859C21.0478 8.07482 20.8676 7.68594 20.5908 7.40918C20.3141 7.13249 19.9258 6.95218 19.1924 6.85352C18.437 6.75196 17.4354 6.75 16 6.75H8ZM17 9C17.5523 9 18 9.44772 18 10C18 10.5523 17.5523 11 17 11C16.4477 11 16 10.5523 16 10C16 9.44772 16.4477 9 17 9ZM9 9.25C9.41421 9.25 9.75 9.58579 9.75 10C9.75 10.4142 9.41421 10.75 9 10.75H6C5.58579 10.75 5.25 10.4142 5.25 10C5.25 9.58579 5.58579 9.25 6 9.25H9ZM12 2.75C10.5649 2.75 9.5639 2.75201 8.80859 2.85352C8.07481 2.95217 7.68594 3.13242 7.40918 3.40918C7.07368 3.74468 6.88957 4.23211 6.80762 5.25293C7.1644 5.24997 7.5435 5.24999 7.94531 5.25H16.0547C16.4567 5.24999 16.8364 5.24997 17.1934 5.25293C17.1114 4.23207 16.9263 3.74469 16.5908 3.40918C16.3141 3.13249 15.9258 2.95218 15.1924 2.85352C14.437 2.75196 13.4354 2.75 12 2.75Z" fill="#1C274C"/>
</svg>
