<svg width="24" height="24" viewBox="0 0 24 24" fill="none" xmlns="http://www.w3.org/2000/svg">
<path d="M18.8418 14.4053C20.0087 14.4053 21.042 15.0686 21.5908 16.0791C21.8503 16.5569 22 17.11 22 17.7021C22 19.5513 20.5579 21 18.8418 21H5.1582C3.44209 21 2 19.5513 2 17.7021C2.00004 17.11 2.14968 16.5569 2.40918 16.0791C2.958 15.0686 3.99131 14.4053 5.1582 14.4053H18.8418ZM10.4209 16.6289C9.98493 16.629 9.63184 16.9744 9.63184 17.4004V18.4287C9.63184 18.8546 9.98493 19.2001 10.4209 19.2002C10.8569 19.2002 11.2109 18.8547 11.2109 18.4287V17.4004C11.2109 16.9743 10.8569 16.6289 10.4209 16.6289ZM13.0527 16.6289C12.6167 16.6289 12.2637 16.9743 12.2637 17.4004V18.4287C12.2637 18.8547 12.6167 19.2002 13.0527 19.2002C13.4887 19.2001 13.8418 18.8547 13.8418 18.4287V17.4004C13.8418 16.9743 13.4887 16.629 13.0527 16.6289ZM15.6846 16.6289C15.2486 16.6289 14.8945 16.9743 14.8945 17.4004V18.4287C14.8945 18.8547 15.2486 19.2002 15.6846 19.2002C16.1204 19.2 16.4736 18.8546 16.4736 18.4287V17.4004C16.4736 16.9744 16.1204 16.6291 15.6846 16.6289ZM18.3154 16.6289C17.8796 16.6291 17.5264 16.9744 17.5264 17.4004V18.4287C17.5264 18.8546 17.8796 19.2 18.3154 19.2002C18.7514 19.2002 19.1055 18.8547 19.1055 18.4287V17.4004C19.1055 16.9743 18.7514 16.6289 18.3154 16.6289ZM16.7363 3C17.8989 3 18.8418 3.54447 19.3682 5.17773L21.7334 14.5576C20.9829 13.8289 19.9672 13.376 18.8418 13.376H5.1582C4.03279 13.376 3.01719 13.8289 2.2666 14.5576L4.63184 5.17773C5.15811 3.54469 6.10032 3.00015 7.2627 3H16.7363Z" fill="#1C274C"/>
</svg>
