<svg width="24" height="24" viewBox="0 0 24 24" fill="none" xmlns="http://www.w3.org/2000/svg">
<path d="M17.1943 3.01758C18.3529 2.87898 19.4523 3.57556 19.8496 4.7002C19.9391 4.95368 19.9706 5.22835 19.9854 5.51562C19.9999 5.80043 20 6.15745 20 6.5957V6.67285C20.0001 6.99891 20.0002 7.25438 19.9551 7.49609C19.8389 8.11823 19.5034 8.67482 19.0127 9.05957C18.8221 9.20899 18.5998 9.32312 18.3154 9.46875L15.8398 10.7383C15.4575 10.9343 15.1465 11.094 14.8916 11.208C14.6346 11.323 14.3811 11.416 14.1201 11.4473C13.6126 11.508 13.1162 11.4092 12.6855 11.1836V17.5459C12.6855 20.0057 10.7412 22 8.34277 22C5.94431 22 4 20.0057 4 17.5459C4.00011 15.0863 5.94438 13.0928 8.34277 13.0928C9.49221 13.0928 10.5376 13.5502 11.3145 14.2979V7.79199C11.3143 7.46592 11.3143 7.21047 11.3594 6.96875C11.4756 6.34667 11.8111 5.78999 12.3018 5.40527C12.4924 5.2559 12.7148 5.1417 12.999 4.99609L15.4746 3.72656C15.8568 3.53055 16.1679 3.3708 16.4229 3.25684C16.6799 3.1419 16.9333 3.04882 17.1943 3.01758Z" fill="#1C274C"/>
</svg>
