<svg width="24" height="24" viewBox="0 0 24 24" fill="none" xmlns="http://www.w3.org/2000/svg">
<path d="M14.9844 3.55908C15.8104 3.15782 16.6242 2.93515 17.4424 3.21436C17.7142 3.30712 17.976 3.43987 18.2109 3.60498C18.917 4.10113 19.216 4.88535 19.3779 5.78467C19.5371 6.66902 19.5914 7.84138 19.6592 9.30127L19.6621 9.35889C19.7139 10.4735 19.75 11.4465 19.75 11.9985C19.75 12.5505 19.7139 13.5242 19.6621 14.6392L19.6592 14.6968C19.5914 16.1564 19.5371 17.3281 19.3779 18.2124C19.216 19.1117 18.9169 19.8959 18.2109 20.3921C17.976 20.5573 17.7143 20.6909 17.4424 20.7837C16.6242 21.0629 15.8104 20.8393 14.9844 20.438C14.1709 20.0428 13.1837 19.392 11.9531 18.5806L11.6865 18.4048C11.2386 18.1094 11.0842 18.0112 10.9248 17.9409C10.7543 17.8657 10.5753 17.8118 10.3916 17.7808C10.2199 17.7518 10.0365 17.7485 9.5 17.7485H9.33887C8.12217 17.7492 7.27693 17.7495 6.52539 17.4019C5.83059 17.0805 5.16098 16.4518 4.79785 15.7778C4.40528 15.0492 4.35944 14.2871 4.29395 13.2036C4.29135 13.1607 4.28881 13.1168 4.28613 13.0728C4.26369 12.7045 4.25 12.34 4.25 11.9985C4.25001 11.6572 4.26371 11.2933 4.28613 10.9253C4.28881 10.8813 4.29135 10.8373 4.29395 10.7944C4.35944 9.71098 4.40535 8.94883 4.79785 8.22021C5.16098 7.54626 5.83059 6.91667 6.52539 6.59521C7.27686 6.2477 8.12231 6.2479 9.33887 6.24854C9.39181 6.24857 9.44564 6.24854 9.5 6.24854C10.0365 6.24854 10.2199 6.2463 10.3916 6.21729C10.5753 6.18624 10.7544 6.13235 10.9248 6.05713C11.0842 5.9868 11.2387 5.88854 11.6865 5.59326L11.9531 5.41748C13.1838 4.60597 14.1708 3.9543 14.9844 3.55908ZM16.958 4.63428C16.7089 4.54925 16.3527 4.56284 15.6406 4.90869C14.9265 5.25563 14.0211 5.85039 12.7314 6.70068L12.5117 6.84521C12.4952 6.85608 12.479 6.86686 12.4629 6.87744C12.0829 7.12807 11.8195 7.30187 11.5312 7.4292C11.2469 7.55469 10.9471 7.64503 10.6406 7.69678C10.3299 7.7492 10.0145 7.74863 9.55957 7.74854H9.5C8.05699 7.74854 7.56946 7.76508 7.15527 7.95654C6.75492 8.14177 6.32838 8.54378 6.11914 8.93213C5.90097 9.33717 5.86024 9.75218 5.7832 11.0161C5.76206 11.363 5.75001 11.6953 5.75 11.9985C5.75 12.3017 5.76205 12.635 5.7832 12.9819C5.86024 14.2459 5.9009 14.6609 6.11914 15.0659C6.32838 15.4543 6.75492 15.8553 7.15527 16.0405C7.56953 16.2321 8.05666 16.2485 9.5 16.2485C9.51996 16.2485 9.54013 16.2486 9.55957 16.2485C10.0146 16.2485 10.3299 16.2489 10.6406 16.3013C10.9471 16.3531 11.2469 16.4424 11.5312 16.5679C11.8196 16.6953 12.0829 16.8689 12.4629 17.1196C12.479 17.1303 12.4951 17.1419 12.5117 17.1528L12.7314 17.2964C14.0212 18.1469 14.9264 18.7424 15.6406 19.0894C16.3526 19.4352 16.709 19.4488 16.958 19.3638C17.0953 19.3169 17.2299 19.249 17.3486 19.1655C17.5652 19.0132 17.7625 18.7182 17.9014 17.9468C18.0408 17.172 18.092 16.1003 18.1631 14.5698C18.2152 13.4503 18.25 12.5102 18.25 11.9985C18.25 11.4866 18.2152 10.5474 18.1631 9.42822C18.092 7.89754 18.0409 6.82515 17.9014 6.05029C17.7625 5.27935 17.5652 4.98474 17.3486 4.83252C17.2299 4.74911 17.0953 4.68115 16.958 4.63428Z" fill="#1C274C"/>
</svg>
