<svg width="24" height="24" viewBox="0 0 24 24" fill="none" xmlns="http://www.w3.org/2000/svg">
<path d="M13.8135 20.0215C14.2143 19.9185 14.6233 20.1598 14.7266 20.5605C14.8299 20.9617 14.5877 21.3714 14.1865 21.4746C13.4869 21.6546 12.754 21.75 12 21.75C11.246 21.75 10.5132 21.6546 9.81348 21.4746C9.41234 21.3714 9.1702 20.9617 9.27344 20.5605C9.37681 20.1598 9.78565 19.9184 10.1865 20.0215C10.7652 20.1704 11.373 20.25 12 20.25C12.627 20.25 13.2348 20.1704 13.8135 20.0215ZM5.5 15C7.15685 15 8.5 16.3431 8.5 18C8.5 19.6569 7.15685 21 5.5 21C3.84315 21 2.5 19.6569 2.5 18C2.5 16.3431 3.84315 15 5.5 15ZM18.5 15C20.1569 15 21.5 16.3431 21.5 18C21.5 19.6569 20.1569 21 18.5 21C16.8431 21 15.5 19.6569 15.5 18C15.5 16.3431 16.8431 15 18.5 15ZM6.21191 6.4375C6.52247 6.16341 6.99641 6.19336 7.27051 6.50391C7.54454 6.81442 7.5155 7.28839 7.20508 7.5625C5.69868 8.89206 4.75 10.8347 4.75 13C4.75 13.4142 4.41421 13.75 4 13.75C3.58579 13.75 3.25 13.4142 3.25 13C3.25 10.3865 4.3966 8.03972 6.21191 6.4375ZM16.7295 6.50391C17.0036 6.19336 17.4776 6.16341 17.7881 6.4375C19.6034 8.03972 20.75 10.3865 20.75 13C20.75 13.4142 20.4142 13.75 20 13.75C19.5858 13.75 19.25 13.4142 19.25 13C19.25 10.8347 18.3013 8.89206 16.7949 7.5625C16.4846 7.28839 16.4555 6.81442 16.7295 6.50391ZM12 3C13.6569 3 15 4.34315 15 6C15 7.65685 13.6569 9 12 9C10.3431 9 9 7.65685 9 6C9 4.34315 10.3431 3 12 3Z" fill="#48465C"/>
</svg>
