<svg width="24" height="24" viewBox="0 0 24 24" fill="none" xmlns="http://www.w3.org/2000/svg">
<path d="M16.6934 1.25C17.494 1.24974 18.0439 1.2499 18.5322 1.38379C19.5577 1.66499 20.4158 2.36798 20.8926 3.31836C21.1197 3.77107 21.227 4.3103 21.3838 5.0957L22.0039 8.19434C22.2353 9.35217 21.9178 10.4718 21.25 11.3115V14.0566C21.25 15.8943 21.2498 17.3501 21.0967 18.4893C20.939 19.6616 20.6066 20.61 19.8584 21.3584C19.1101 22.1067 18.1616 22.4391 16.9893 22.5967C15.8501 22.7499 14.3943 22.7501 12.5566 22.75H11.4434C9.60569 22.7501 8.14991 22.7499 7.01074 22.5967C5.83843 22.4391 4.88992 22.1068 4.1416 21.3584C3.39328 20.61 3.06095 19.6616 2.90332 18.4893C2.75015 17.3501 2.74998 15.8943 2.75 14.0566V11.3115C2.08223 10.4719 1.76466 9.3522 1.99609 8.19434L2.61621 5.0957C2.77302 4.31031 2.88032 3.77106 3.10742 3.31836C3.58424 2.36797 4.44233 1.66497 5.46777 1.38379C5.95618 1.2499 6.50587 1.24974 7.30664 1.25H16.6934ZM12 16.75C11.5189 16.75 11.2081 16.7512 10.9727 16.7725C10.7476 16.7929 10.6659 16.827 10.625 16.8506C10.511 16.9165 10.4164 17.011 10.3506 17.125C10.327 17.1659 10.2929 17.2476 10.2725 17.4727C10.2511 17.7082 10.25 18.0189 10.25 18.5V21.248C10.6384 21.2499 11.0541 21.25 11.5 21.25H12.5C12.9459 21.25 13.3616 21.2499 13.75 21.248V18.5C13.75 18.0189 13.7488 17.7082 13.7275 17.4727C13.707 17.2477 13.673 17.1659 13.6494 17.125C13.5836 17.011 13.489 16.9165 13.375 16.8506C13.3341 16.827 13.2523 16.7929 13.0273 16.7725C12.7919 16.7512 12.4811 16.75 12 16.75ZM15.1621 11.1455C14.4527 12.1137 13.3067 12.7499 12 12.75C10.6934 12.75 9.54739 12.1136 8.83789 11.1455C8.14428 12.1213 7.00537 12.75 5.73145 12.75C5.20259 12.75 4.70286 12.6433 4.25 12.4521V14C4.25 15.9068 4.2515 17.2614 4.38965 18.2891C4.52491 19.2952 4.77894 19.8747 5.20215 20.2979C5.62536 20.7211 6.20486 20.9751 7.21094 21.1104C7.6564 21.1702 8.16333 21.204 8.75 21.2236V18.4678C8.74998 18.0282 8.75015 17.6491 8.77832 17.3379C8.80816 17.0087 8.87439 16.6823 9.05176 16.375C9.24922 16.0331 9.53305 15.7492 9.875 15.5518C10.1821 15.3744 10.5079 15.3082 10.8369 15.2783C11.1482 15.2501 11.528 15.25 11.9678 15.25H12.0322C12.472 15.25 12.8518 15.2501 13.1631 15.2783C13.492 15.3082 13.8179 15.3744 14.125 15.5518C14.467 15.7492 14.7508 16.0331 14.9482 16.375C15.1255 16.6823 15.1919 17.0087 15.2217 17.3379C15.2498 17.6491 15.25 18.0282 15.25 18.4678V21.2236C15.8366 21.204 16.3436 21.1702 16.7891 21.1104C17.7952 20.9751 18.3747 20.7212 18.7979 20.2979C19.221 19.8747 19.4751 19.2951 19.6104 18.2891C19.7484 17.2614 19.75 15.9068 19.75 14V12.4521C19.2971 12.6433 18.7974 12.75 18.2686 12.75C16.9945 12.75 15.8556 12.1214 15.1621 11.1455ZM7.41797 2.75C6.46352 2.75 6.13238 2.75658 5.86426 2.83008C5.24899 2.99881 4.73432 3.42094 4.44824 3.99121C4.32361 4.23967 4.25254 4.5625 4.06543 5.49805L3.4668 8.48828C3.18122 9.91702 4.27441 11.25 5.73145 11.25C6.91771 11.25 7.91118 10.3512 8.0293 9.1709L8.09766 8.48438L8.10156 8.44238L8.6709 2.75H7.41797ZM10.1787 2.75L9.59082 8.625C9.4689 10.0341 10.5809 11.25 12 11.25C13.4301 11.2499 14.5476 10.0149 14.4053 8.5918L13.8213 2.75H10.1787ZM15.9707 9.1709C16.0889 10.3512 17.0823 11.25 18.2686 11.25C19.7255 11.2499 20.8187 9.917 20.5332 8.48828L19.9346 5.49805C19.7476 4.56254 19.6764 4.23966 19.5518 3.99121C19.2657 3.42095 18.7509 2.99882 18.1357 2.83008C17.8675 2.75658 17.5365 2.75 16.582 2.75H15.3291L15.9707 9.1709Z" fill="#48465C"/>
</svg>
