<svg width="24" height="24" viewBox="0 0 24 24" fill="none" xmlns="http://www.w3.org/2000/svg">
<path d="M13.9131 5.39648C15.6225 5.39646 16.9765 5.39569 18.0361 5.53223C19.1267 5.67278 20.01 5.96944 20.7061 6.63672C21.4021 7.30396 21.7108 8.15004 21.8574 9.19531C21.9999 10.2111 22 11.5089 22 13.1475V13.248C22 14.8864 21.9999 16.1845 21.8574 17.2002C21.7108 18.2456 21.4023 19.0925 20.7061 19.7598C20.01 20.427 19.1267 20.7227 18.0361 20.8633C16.9765 20.9998 15.6225 21 13.9131 21H10.0869C8.37749 21 7.02355 20.9998 5.96387 20.8633C4.87327 20.7227 3.99009 20.427 3.29395 19.7598C2.5978 19.0925 2.28921 18.2456 2.14258 17.2002C2.00015 16.1845 1.99999 14.8864 2 13.248V13.1475C1.99999 11.5089 2.0001 10.2111 2.14258 9.19531C2.28919 8.15004 2.59796 7.30396 3.29395 6.63672C3.9901 5.96944 4.87325 5.67278 5.96387 5.53223C7.02353 5.39569 8.37752 5.39646 10.0869 5.39648H13.9131ZM10.1396 6.7334C8.3659 6.7334 7.10537 6.7352 6.14941 6.8584C5.21392 6.97898 4.67487 7.20489 4.28125 7.58203C3.88764 7.95932 3.65124 8.47625 3.52539 9.37305C3.42446 10.0926 3.40152 10.9926 3.39648 12.1689L3.86719 11.7734C4.9913 10.8306 6.686 10.8851 7.74219 11.8975L11.7324 15.7227C12.1319 16.1056 12.7613 16.1571 13.2236 15.8457L13.501 15.6592C14.8315 14.763 16.6311 14.8674 17.8398 15.9102L20.248 17.9863C20.3464 17.7224 20.4206 17.4075 20.4746 17.0225C20.6032 16.1062 20.6045 14.8983 20.6045 13.1982C20.6045 11.4979 20.6032 10.2893 20.4746 9.37305C20.3488 8.47625 20.1123 7.95932 19.7188 7.58203C19.3251 7.2049 18.7861 6.97898 17.8506 6.8584C16.8946 6.7352 15.6342 6.7334 13.8604 6.7334H10.1396ZM17.1162 8.74023C17.8868 8.74023 18.5117 9.3385 18.5117 10.0771C18.5117 10.8157 17.8868 11.415 17.1162 11.415C16.3457 11.415 15.7207 10.8157 15.7207 10.0771C15.7208 9.33855 16.3457 8.74031 17.1162 8.74023ZM13.7676 2.5C15.1318 2.49998 16.2263 2.49999 17.0859 2.61035C17.9762 2.72467 18.7189 2.96812 19.3076 3.53027C19.6248 3.83317 19.8454 4.1792 20 4.56641C19.545 4.38585 19.0394 4.27358 18.4805 4.20117C17.3962 4.06071 16.0108 4.06054 14.2617 4.06055H10.3467C8.59738 4.06054 7.21133 4.0607 6.12695 4.20117C5.48708 4.28407 4.9172 4.41948 4.41309 4.64941C4.56886 4.22846 4.79715 3.85462 5.13672 3.53027C5.72548 2.96798 6.4681 2.72468 7.3584 2.61035C8.21821 2.49993 9.31308 2.49998 10.6777 2.5H13.7676Z" fill="#48465C"/>
</svg>
