<svg width="24" height="24" viewBox="0 0 24 24" fill="none" xmlns="http://www.w3.org/2000/svg">
<path d="M18 13C19.8856 13 20.8283 13.0001 21.4141 13.5859C21.9999 14.1717 22 15.1144 22 17C22 18.8856 21.9999 19.8283 21.4141 20.4141C20.8283 20.9999 19.8856 21 18 21H6C4.11439 21 3.17172 20.9999 2.58594 20.4141C2.00015 19.8283 2 18.8856 2 17C2 15.1144 2.00015 14.1717 2.58594 13.5859C3.17172 13.0001 4.11439 13 6 13H18ZM6 15.25C5.58579 15.25 5.25 15.5858 5.25 16V18C5.25 18.4142 5.58579 18.75 6 18.75C6.41421 18.75 6.75 18.4142 6.75 18V16C6.75 15.5858 6.41421 15.25 6 15.25ZM9 15.25C8.58579 15.25 8.25 15.5858 8.25 16V18C8.25 18.4142 8.58579 18.75 9 18.75C9.41421 18.75 9.75 18.4142 9.75 18V16C9.75 15.5858 9.41421 15.25 9 15.25ZM13.5 16.25C13.0858 16.25 12.75 16.5858 12.75 17C12.75 17.4142 13.0858 17.75 13.5 17.75H18C18.4142 17.75 18.75 17.4142 18.75 17C18.75 16.5858 18.4142 16.25 18 16.25H13.5ZM18 3C19.8856 3 20.8283 3.00015 21.4141 3.58594C21.9999 4.17172 22 5.11439 22 7C22 8.88562 21.9999 9.82829 21.4141 10.4141C20.8283 10.9999 19.8856 11 18 11H6C4.11439 11 3.17172 10.9999 2.58594 10.4141C2.00015 9.82829 2 8.88562 2 7C2 5.11438 2.00015 4.17172 2.58594 3.58594C3.17172 3.00015 4.11438 3 6 3H18ZM6 5.25C5.58579 5.25 5.25 5.58579 5.25 6V8C5.25 8.41421 5.58579 8.75 6 8.75C6.41421 8.75 6.75 8.41421 6.75 8V6C6.75 5.58579 6.41421 5.25 6 5.25ZM9 5.25C8.58579 5.25 8.25 5.58579 8.25 6V8C8.25 8.41421 8.58579 8.75 9 8.75C9.41421 8.75 9.75 8.41421 9.75 8V6C9.75 5.58579 9.41421 5.25 9 5.25ZM13.5 6.25C13.0858 6.25 12.75 6.58579 12.75 7C12.75 7.41421 13.0858 7.75 13.5 7.75H18C18.4142 7.75 18.75 7.41421 18.75 7C18.75 6.58579 18.4142 6.25 18 6.25H13.5Z" fill="#1C274C"/>
</svg>
