<svg width="24" height="24" viewBox="0 0 24 24" fill="none" xmlns="http://www.w3.org/2000/svg">
<path d="M17.3467 1.63208C17.5497 1.27155 18.0063 1.1434 18.3672 1.34595C18.7282 1.54895 18.8563 2.00637 18.6533 2.36743L12.8604 12.6721L15.5674 17.4866C16.1491 16.1692 17.4674 15.2502 19 15.2502C21.0711 15.2502 22.75 16.9292 22.75 19.0002C22.7499 21.0712 21.071 22.7502 19 22.7502C17.5773 22.7502 16.3396 21.9578 15.7041 20.7903L12 14.2024L8.2959 20.7903C7.66042 21.9577 6.42274 22.7502 5 22.7502C2.92902 22.7502 1.25014 21.0712 1.25 19.0002C1.25 16.9292 2.92893 15.2502 5 15.2502C6.53262 15.2502 7.85095 16.1693 8.43262 17.4866L11.1396 12.6721L5.34668 2.36743C5.14368 2.00637 5.27175 1.54895 5.63281 1.34595C5.99364 1.14337 6.45027 1.27152 6.65332 1.63208L12 11.1418L17.3467 1.63208Z" fill="#1C274C"/>
</svg>
