<svg width="24" height="24" viewBox="0 0 24 24" fill="none" xmlns="http://www.w3.org/2000/svg">
<path d="M12 2C16.714 2 19.0708 2.00037 20.5352 3.46484C21.9996 4.9293 22 7.28597 22 12C22 16.714 21.9997 19.0708 20.5352 20.5352C19.0708 21.9997 16.714 22 12 22C7.28597 22 4.9293 21.9996 3.46484 20.5352C2.00037 19.0708 2 16.714 2 12C2 7.28595 2.00037 4.9293 3.46484 3.46484C4.9293 2.00037 7.28595 2 12 2ZM10.3145 7.25C9.90041 7.25019 9.56445 7.58591 9.56445 8V11.25H6.25V8C6.25 7.58579 5.91421 7.25 5.5 7.25C5.08579 7.25 4.75 7.58579 4.75 8V16C4.75 16.4142 5.08579 16.75 5.5 16.75C5.91421 16.75 6.25 16.4142 6.25 16V12.75H9.56445V16C9.56445 16.4141 9.90041 16.7498 10.3145 16.75C10.7287 16.75 11.0645 16.4142 11.0645 16V8C11.0645 7.58579 10.7287 7.25 10.3145 7.25ZM13.6855 7.25C12.8757 7.25 11.9728 7.81971 11.9727 8.7998V15.2002C11.9728 16.1803 12.8757 16.75 13.6855 16.75C16.6226 16.7498 19.25 14.7474 19.25 12C19.25 9.25259 16.6226 7.25016 13.6855 7.25ZM13.6855 8.75C16.0665 8.75015 17.75 10.3293 17.75 12C17.75 13.6707 16.0665 15.2498 13.6855 15.25C13.5853 15.25 13.516 15.2156 13.4834 15.1885C13.4787 15.1846 13.4753 15.1813 13.4727 15.1787V8.82129C13.4753 8.81866 13.4787 8.81541 13.4834 8.81152C13.516 8.78446 13.5853 8.75 13.6855 8.75Z" fill="#1C274C"/>
</svg>
