<svg width="24" height="24" viewBox="0 0 24 24" fill="none" xmlns="http://www.w3.org/2000/svg">
<path fill-rule="evenodd" clip-rule="evenodd" d="M7.58465 6.30294C8.35995 6.11992 9.03357 6.43585 9.63934 6.88497C10.2257 7.31969 10.8998 7.99509 11.7184 8.81368L15.1862 12.2805C16.0049 13.0992 16.6792 13.7742 17.1139 14.3606C17.563 14.9664 17.88 15.6399 17.697 16.4152C17.5138 17.1903 16.929 17.6505 16.2565 17.9914C15.6055 18.3214 14.7004 18.6234 13.6022 18.9895L8.4118 20.7199C7.08236 21.1631 6.00334 21.5223 5.16668 21.6711C4.32228 21.8214 3.46489 21.8062 2.82879 21.1701C2.19295 20.5341 2.17766 19.6774 2.32781 18.8332C2.47667 17.9964 2.83663 16.9171 3.27996 15.5871L5.00945 10.3967C5.37551 9.29837 5.6775 8.39343 6.0075 7.7424C6.34847 7.06978 6.80936 6.48598 7.58465 6.30294ZM6.95379 9.35372C6.79547 9.78409 6.62171 10.304 6.41277 10.9309L4.72332 15.9992C4.25438 17.406 3.93162 18.3806 3.80437 19.0959C3.67632 19.816 3.7956 20.0158 3.88934 20.1096C3.98312 20.2034 4.18321 20.3227 4.90398 20.1945C5.49429 20.0895 6.26095 19.8516 7.30145 19.508C7.28359 19.4285 7.2592 19.318 7.23016 19.1838C7.16736 18.8934 7.08252 18.4876 6.99383 18.0246C6.81796 17.1064 6.62039 15.9308 6.55828 14.9836C6.45566 13.4182 6.65566 11.4591 6.87078 9.92599C6.89849 9.72856 6.92585 9.53719 6.95379 9.35372ZM8.65789 8.25314C8.5729 8.72475 8.46142 9.38459 8.35613 10.135C8.14353 11.6503 7.9633 13.4822 8.05535 14.886C8.1111 15.7358 8.29373 16.8354 8.46746 17.7424C8.55348 18.1914 8.63506 18.5858 8.69598 18.8674C8.70895 18.9274 8.72127 18.9823 8.73211 19.0315L11.3669 18.1535C11.2976 17.948 11.2143 17.6833 11.1315 17.3752C10.9325 16.6355 10.7273 15.618 10.7272 14.5559C10.7272 13.4407 10.9317 12.4227 11.1325 11.6906C11.2335 11.3227 11.3347 11.0219 11.4118 10.8108C11.4297 10.7616 11.4465 10.7173 11.4616 10.6779L10.7018 9.91818C9.8278 9.04417 9.23183 8.45044 8.74578 8.09005C8.72833 8.07711 8.71078 8.06497 8.69402 8.05294C8.68253 8.11511 8.67071 8.18201 8.65789 8.25314ZM12.5798 12.0881C12.4016 12.7376 12.2272 13.6158 12.2272 14.5559C12.2273 15.1744 12.3126 15.7904 12.4255 16.3342C12.4737 16.5662 12.5268 16.7854 12.5807 16.9856C12.6551 17.262 12.7289 17.4984 12.7897 17.6789L13.069 17.5861C14.2416 17.1953 15.039 16.9271 15.5788 16.6535C16.1081 16.3852 16.206 16.2015 16.237 16.0705C16.2679 15.9396 16.2627 15.7313 15.9089 15.2541C15.5485 14.768 14.9548 14.1713 14.0807 13.2971L12.6442 11.8606C12.6227 11.9324 12.6016 12.0085 12.5798 12.0881ZM19.0583 15.3137C19.2678 15.1043 19.6076 15.1043 19.8171 15.3137C20.0264 15.5232 20.0265 15.863 19.8171 16.0725C19.6076 16.2819 19.2678 16.2818 19.0583 16.0725C18.8489 15.863 18.8489 15.5232 19.0583 15.3137ZM19.3356 12.6076C20.0684 11.9578 21.1121 11.7934 22.0095 12.1858L22.3005 12.3127C22.6799 12.4786 22.8537 12.9206 22.6882 13.3C22.5222 13.6795 22.0794 13.8526 21.6999 13.6867L21.4089 13.5598C21.0472 13.4016 20.6261 13.4678 20.3307 13.7297C19.5214 14.4473 18.3436 14.5664 17.4069 14.0256L17.194 13.9035C16.8354 13.6964 16.7125 13.2368 16.9196 12.8781C17.1267 12.5198 17.5855 12.397 17.944 12.6037L18.1569 12.7268C18.5344 12.9448 19.0094 12.8969 19.3356 12.6076ZM17.1569 10.1574C17.3664 9.94795 17.7062 9.94795 17.9157 10.1574C18.1251 10.3668 18.1251 10.7068 17.9157 10.9162C17.7062 11.1255 17.3664 11.1256 17.1569 10.9162C16.9475 10.7069 16.9476 10.3668 17.1569 10.1574ZM19.0085 7.36056C19.4755 6.89377 20.1042 6.7211 20.6579 6.97677C21.0781 7.17085 21.3519 7.56383 21.4548 8.04611C21.9369 8.1491 22.3291 8.42292 22.5231 8.84298C22.7788 9.39685 22.6065 10.0253 22.1393 10.4924C21.8685 10.7633 21.5055 10.8861 21.1823 10.9436C20.8516 11.0023 20.5021 11.0032 20.196 10.9836C19.8867 10.9638 19.6031 10.9219 19.3981 10.885C19.2952 10.8665 19.2106 10.849 19.1511 10.8361L19.1042 10.8254L19.0807 10.8205L19.0612 10.8156L19.0554 10.8147L19.0534 10.8137C19.0539 10.8112 19.0614 10.7776 19.1725 10.3283L19.0524 10.8137C18.8724 10.7691 18.7319 10.6283 18.6872 10.4485L18.6862 10.4455L18.6852 10.4397L18.6804 10.4201C18.6765 10.4035 18.6712 10.3795 18.6647 10.3498C18.6517 10.2903 18.6344 10.2057 18.6159 10.1027C18.5791 9.89782 18.5361 9.61407 18.5163 9.3049C18.4967 8.99876 18.4986 8.64917 18.5573 8.31857C18.6148 7.9953 18.7376 7.63144 19.0085 7.36056ZM16.8063 5.31075C16.8875 4.90459 17.2829 4.64066 17.6891 4.72189C18.0953 4.80312 18.3583 5.19853 18.277 5.6047L18.1335 6.32443C17.9353 7.31524 17.221 8.12404 16.2624 8.44357C15.8147 8.59297 15.4809 8.97097 15.3884 9.4338L15.2448 10.1535C15.1636 10.5597 14.7682 10.8236 14.362 10.7424C13.956 10.6611 13.6929 10.2656 13.7741 9.85958L13.9177 9.13986C14.1158 8.14904 14.8301 7.34024 15.7887 7.02072C16.2365 6.87139 16.5701 6.49335 16.6628 6.03048L16.8063 5.31075ZM20.2389 7.88497C20.1502 7.84399 19.9582 7.82581 19.7155 8.06857C19.6512 8.13285 19.5826 8.26385 19.5417 8.49337C19.5022 8.71545 19.4975 8.97721 19.5143 9.24044C19.5303 9.49079 19.565 9.72647 19.5964 9.9045C19.7743 9.93587 20.0094 9.96953 20.2595 9.98556C20.5229 10.0024 20.7853 9.9987 21.0075 9.95919C21.237 9.91836 21.3681 9.8496 21.4323 9.78536C21.675 9.54268 21.6569 9.35067 21.6159 9.26193C21.5714 9.16554 21.4114 8.99912 21.0016 9.00021C20.8686 9.00054 20.7412 8.94771 20.6471 8.85372C20.5531 8.7597 20.5005 8.63218 20.5007 8.49923C20.5018 8.0898 20.3354 7.92966 20.2389 7.88497ZM12.1569 7.15743C12.3664 6.94796 12.7062 6.94796 12.9157 7.15743C13.1251 7.3669 13.1251 7.70675 12.9157 7.91622C12.7062 8.1255 12.3664 8.12561 12.1569 7.91622C11.9475 7.70681 11.9476 7.36692 12.1569 7.15743ZM9.15496 2.3879C9.37103 2.03457 9.83284 1.92383 10.1862 2.13986C10.5394 2.35582 10.651 2.8168 10.4352 3.17013C10.2785 3.42652 10.3175 3.75739 10.53 3.96993L10.6276 4.06759C11.2163 4.65624 11.4339 5.52169 11.193 6.31857C11.0731 6.71491 10.6539 6.93937 10.2575 6.81954C9.86117 6.69957 9.63768 6.28039 9.7575 5.884C9.83821 5.61651 9.76464 5.32571 9.56707 5.12814L9.46941 5.03048C8.76703 4.32796 8.63679 3.2355 9.15496 2.3879ZM13.1598 2.05783C13.4247 1.91861 13.6775 1.99193 13.8268 2.05685C13.9593 2.11442 14.1082 2.20863 14.2468 2.29611L14.3483 2.36056L14.4743 2.3254C14.6379 2.27884 14.8105 2.23016 14.9538 2.21115C15.1055 2.19106 15.3816 2.18112 15.6012 2.4006C15.8209 2.62037 15.8118 2.89736 15.7917 3.04904C15.7725 3.1923 15.723 3.36409 15.6764 3.52755L15.6413 3.65353L15.7057 3.75607C15.7932 3.89459 15.8874 4.04364 15.945 4.17599C16.0099 4.32539 16.0831 4.57733 15.944 4.842C15.8075 5.10169 15.5635 5.1875 15.4079 5.22286C15.2664 5.25504 15.0889 5.26838 14.9206 5.28146L14.7936 5.29122L14.7829 5.2922L14.6911 5.4045C14.5815 5.53776 14.4672 5.67558 14.36 5.77365C14.2464 5.87756 14.0332 6.03793 13.736 5.99728C13.4289 5.95523 13.2694 5.7331 13.1921 5.59396C13.1223 5.46809 13.0606 5.3021 13.0036 5.14767L12.9636 5.03829L12.8552 4.99825C12.7007 4.94125 12.5348 4.87963 12.4089 4.80978C12.2698 4.73264 12.0467 4.57323 12.0046 4.26583C11.9641 3.9688 12.1243 3.75538 12.2282 3.64181C12.3264 3.53456 12.465 3.42041 12.5983 3.31075L12.7096 3.21896L12.7106 3.20822L12.7204 3.08126C12.7335 2.91292 12.7468 2.73552 12.779 2.59396C12.8143 2.43845 12.9003 2.19437 13.1598 2.05783ZM6.92742 3.94064C7.13683 3.73134 7.47676 3.73141 7.68621 3.94064C7.89565 4.15007 7.89558 4.48995 7.68621 4.69943C7.47674 4.9089 7.13689 4.9089 6.92742 4.69943C6.71816 4.48994 6.71802 4.15004 6.92742 3.94064ZM13.7077 3.28634L13.7057 3.30783C13.7004 3.38711 13.6894 3.54727 13.613 3.69259C13.5378 3.8357 13.4141 3.93586 13.3512 3.98654L13.3337 4.00118L13.2429 4.0754L13.32 4.10372L13.3395 4.11056C13.4112 4.13592 13.5691 4.19258 13.6891 4.31271C13.8093 4.43281 13.866 4.5906 13.8913 4.66232L13.8981 4.68185L13.9264 4.759L14.0016 4.66818L14.0153 4.65158C14.066 4.58877 14.166 4.46427 14.3093 4.38888C14.4546 4.31251 14.6148 4.30143 14.694 4.29611L14.7155 4.29513L14.8561 4.28341L14.7927 4.18283L14.7819 4.16525C14.7402 4.10095 14.6495 3.96257 14.6266 3.79513C14.6042 3.63137 14.6511 3.47404 14.6735 3.39865L14.6794 3.37814L14.7018 3.30001L14.6237 3.32247L14.6032 3.32833C14.5278 3.35075 14.3704 3.39763 14.2067 3.37521C14.0393 3.35219 13.9009 3.2616 13.8366 3.21993L13.819 3.20919L13.7184 3.14572L13.7077 3.28634Z" fill="#1C274C"/>
</svg>
