<svg width="24" height="24" viewBox="0 0 24 24" fill="none" xmlns="http://www.w3.org/2000/svg">
<path d="M12 1.25C17.9371 1.25 22.75 6.06294 22.75 12C22.75 17.9371 17.9371 22.75 12 22.75C6.06294 22.75 1.25 17.9371 1.25 12C1.25 6.06294 6.06294 1.25 12 1.25ZM12 2.75C6.89137 2.75 2.75 6.89137 2.75 12C2.75 17.1086 6.89137 21.25 12 21.25C17.1086 21.25 21.25 17.1086 21.25 12C21.25 6.89137 17.1086 2.75 12 2.75ZM12.0518 7.25C12.9503 7.24997 13.7001 7.25012 14.2949 7.33008C14.9225 7.41452 15.489 7.6003 15.9443 8.05566C16.3997 8.51102 16.5855 9.07748 16.6699 9.70508C16.7499 10.2999 16.75 11.0497 16.75 11.9482V12.0518C16.75 12.9503 16.7499 13.7001 16.6699 14.2949C16.5855 14.9225 16.3997 15.489 15.9443 15.9443C15.489 16.3997 14.9225 16.5855 14.2949 16.6699C13.7001 16.7499 12.9503 16.75 12.0518 16.75H11.9482C11.0497 16.75 10.2999 16.7499 9.70508 16.6699C9.07748 16.5855 8.51102 16.3997 8.05566 15.9443C7.6003 15.489 7.41452 14.9225 7.33008 14.2949C7.25012 13.7001 7.24997 12.9503 7.25 12.0518V11.9482C7.24997 11.0497 7.25012 10.2999 7.33008 9.70508C7.41452 9.07747 7.6003 8.51102 8.05566 8.05566C8.51102 7.6003 9.07747 7.41452 9.70508 7.33008C10.2999 7.25012 11.0497 7.24997 11.9482 7.25H12.0518ZM12 8.75C11.036 8.75 10.3883 8.75146 9.90527 8.81641C9.44388 8.87845 9.24651 8.9859 9.11621 9.11621C8.9859 9.24651 8.87845 9.44388 8.81641 9.90527C8.75146 10.3883 8.75 11.036 8.75 12C8.75 12.964 8.75146 13.6117 8.81641 14.0947C8.87845 14.5561 8.98591 14.7535 9.11621 14.8838C9.24651 15.0141 9.44389 15.1215 9.90527 15.1836C10.3883 15.2485 11.036 15.25 12 15.25C12.964 15.25 13.6117 15.2485 14.0947 15.1836C14.5561 15.1215 14.7535 15.0141 14.8838 14.8838C15.0141 14.7535 15.1215 14.5561 15.1836 14.0947C15.2485 13.6117 15.25 12.964 15.25 12C15.25 11.036 15.2485 10.3883 15.1836 9.90527C15.1215 9.44389 15.0141 9.24651 14.8838 9.11621C14.7535 8.98591 14.5561 8.87845 14.0947 8.81641C13.6117 8.75146 12.964 8.75 12 8.75Z" fill="#1C274C"/>
</svg>
