<svg width="24" height="24" viewBox="0 0 24 24" fill="none" xmlns="http://www.w3.org/2000/svg">
<path d="M20.4043 14.9971C20.6823 14.69 21.1569 14.6662 21.4639 14.9443C22.2269 15.6352 22.75 16.5011 22.75 17.5C22.75 19.2216 21.2355 20.5308 19.3789 21.3662C17.4519 22.2334 14.8424 22.75 12 22.75C9.15767 22.75 6.54808 22.2334 4.62109 21.3662C2.7645 20.5308 1.25 19.2216 1.25 17.5C1.25 16.5011 1.77317 15.6352 2.53613 14.9443C2.84317 14.6662 3.31767 14.69 3.5957 14.9971C3.8733 15.304 3.84972 15.7778 3.54297 16.0557C2.97528 16.5698 2.75 17.0621 2.75 17.5C2.75 18.2637 3.47385 19.2049 5.23633 19.998C6.92862 20.7596 9.31951 21.25 12 21.25C14.6805 21.25 17.0714 20.7596 18.7637 19.998C20.5262 19.2049 21.25 18.2637 21.25 17.5C21.25 17.0621 21.0247 16.5698 20.457 16.0557C20.1503 15.7778 20.1267 15.304 20.4043 14.9971ZM12 1.25C16.2285 1.25 19.75 4.45265 19.75 8.51465C19.75 12.3258 17.3874 16.8004 13.5752 18.4297C12.5744 18.8574 11.4256 18.8574 10.4248 18.4297C6.61259 16.8004 4.25 12.3258 4.25 8.51465C4.25 4.45265 7.77146 1.25 12 1.25ZM12 2.75C8.49655 2.75 5.75 5.38077 5.75 8.51465C5.75 11.843 7.85542 15.6997 11.0146 17.0498C11.6389 17.3166 12.3611 17.3166 12.9854 17.0498C16.1446 15.6997 18.25 11.843 18.25 8.51465C18.25 5.38077 15.5034 2.75 12 2.75ZM12 6.25C13.5188 6.25 14.75 7.48122 14.75 9C14.75 10.5188 13.5188 11.75 12 11.75C10.4812 11.75 9.25 10.5188 9.25 9C9.25 7.48122 10.4812 6.25 12 6.25ZM12 7.75C11.3096 7.75 10.75 8.30964 10.75 9C10.75 9.69036 11.3096 10.25 12 10.25C12.6904 10.25 13.25 9.69036 13.25 9C13.25 8.30964 12.6904 7.75 12 7.75Z" fill="#48465C"/>
</svg>
