<svg width="24" height="24" viewBox="0 0 24 24" fill="none" xmlns="http://www.w3.org/2000/svg">
<path d="M12.8771 3.25C14.2291 3.25407 15.3355 3.27712 16.2267 3.43262C17.1415 3.59231 17.9023 3.90324 18.5128 4.53125C19.1839 5.22175 19.4769 6.09276 19.6154 7.15234C19.7513 8.19253 19.7501 9.52305 19.7501 11.1992V14.7998C19.7501 16.4762 19.7513 17.8074 19.6154 18.8477C19.4768 19.9072 19.184 20.7783 18.5128 21.4688C17.8387 22.1621 16.9835 22.4675 15.9435 22.6113C14.9271 22.7519 13.6282 22.75 12.0001 22.75C10.3721 22.75 9.07314 22.7519 8.05676 22.6113C7.01676 22.4675 6.16157 22.162 5.48743 21.4688C4.81619 20.7783 4.52343 19.9072 4.38489 18.8477C4.24892 17.8074 4.25012 16.4762 4.25012 14.7998V12.1006C4.25012 11.6864 4.58591 11.3506 5.00012 11.3506C5.41426 11.3507 5.75012 11.6864 5.75012 12.1006V14.7998C5.75012 16.5172 5.75194 17.732 5.87219 18.6523C5.98994 19.5532 6.20891 20.0589 6.56262 20.4229C6.91353 20.7838 7.39688 21.0052 8.26282 21.125C9.15255 21.248 10.3287 21.25 12.0001 21.25C13.6715 21.25 14.8477 21.248 15.7374 21.125C16.6033 21.0052 17.0867 20.7838 17.4376 20.4229C17.7913 20.059 18.0103 19.5532 18.1281 18.6523C18.2483 17.732 18.2501 16.5172 18.2501 14.7998V11.1992C18.2501 9.4818 18.2483 8.26704 18.1281 7.34668C18.0103 6.4458 17.7913 5.94008 17.4376 5.57617C17.118 5.24742 16.69 5.03604 15.9689 4.91016C15.2241 4.7802 14.2456 4.75414 12.8732 4.75C12.4591 4.74875 12.124 4.41212 12.1251 3.99805C12.1264 3.58394 12.463 3.24892 12.8771 3.25ZM15.0001 18.25C15.4143 18.2501 15.7501 18.5858 15.7501 19C15.7501 19.4142 15.4143 19.7499 15.0001 19.75H9.00012C8.58591 19.75 8.25012 19.4142 8.25012 19C8.25012 18.5858 8.58591 18.25 9.00012 18.25H15.0001ZM10.3507 4.0498C10.5594 4.04986 10.7596 4.13702 10.9015 4.29004L11.5499 4.99023C11.8314 5.29394 11.8135 5.7682 11.5099 6.0498C11.3754 6.17452 11.2071 6.2367 11.0372 6.24512C10.7092 8.20099 9.11479 9.74989 7.10559 9.75C5.97274 9.7499 4.95931 9.24834 4.24133 8.46289C3.962 8.15723 3.98274 7.68279 4.28821 7.40332C4.59396 7.12402 5.06837 7.1455 5.34778 7.45117C5.80668 7.95326 6.42968 8.2499 7.10559 8.25C8.21875 8.2499 9.21897 7.41921 9.51184 6.22168C9.39657 6.1914 9.28604 6.13645 9.1925 6.0498C8.88876 5.76818 8.87084 5.29398 9.15247 4.99023L9.8009 4.29004C9.94274 4.13712 10.1421 4.04991 10.3507 4.0498ZM6.89465 1.25C8.11277 1.25017 9.19174 1.82955 9.91516 2.71777C10.1763 3.03889 10.1277 3.51097 9.80676 3.77246C9.48572 4.03393 9.01372 3.98586 8.75208 3.66504C8.28621 3.09304 7.62016 2.75017 6.89465 2.75C5.78164 2.75 4.78055 3.58014 4.48743 4.77734C4.6031 4.80756 4.71392 4.86325 4.80774 4.9502C5.11134 5.2318 5.12927 5.70606 4.84778 6.00977L4.19934 6.70996C4.05755 6.86289 3.85807 6.95003 3.64954 6.9502C3.44084 6.9502 3.24068 6.86297 3.09875 6.70996L2.45032 6.00977C2.1687 5.70602 2.18662 5.23182 2.49036 4.9502C2.62491 4.82549 2.79307 4.76227 2.96301 4.75391C3.29147 2.79843 4.88569 1.25 6.89465 1.25Z" fill="#1C274C"/>
</svg>
