<svg width="24" height="24" viewBox="0 0 24 24" fill="none" xmlns="http://www.w3.org/2000/svg">
<path d="M12.8772 3.25C14.2292 3.25407 15.3357 3.27712 16.2268 3.43262C17.1416 3.59231 17.9024 3.90324 18.5129 4.53125C19.184 5.22175 19.477 6.09276 19.6155 7.15234C19.7514 8.19253 19.7502 9.52305 19.7502 11.1992V14.7998C19.7502 16.4762 19.7514 17.8074 19.6155 18.8477C19.4769 19.9072 19.1841 20.7783 18.5129 21.4688C17.8388 22.1621 16.9836 22.4675 15.9436 22.6113C14.9272 22.7519 13.6283 22.75 12.0002 22.75C10.3722 22.75 9.07326 22.7519 8.05688 22.6113C7.01688 22.4675 6.16169 22.162 5.48755 21.4688C4.81631 20.7783 4.52355 19.9072 4.38501 18.8477C4.24904 17.8074 4.25024 16.4762 4.25024 14.7998V12.1006C4.25025 11.6864 4.58603 11.3506 5.00024 11.3506C5.41438 11.3507 5.75024 11.6864 5.75024 12.1006V14.7998C5.75024 16.5172 5.75207 17.732 5.87231 18.6523C5.99007 19.5532 6.20903 20.0589 6.56274 20.4229C6.91365 20.7838 7.397 21.0052 8.26294 21.125C9.15267 21.248 10.3289 21.25 12.0002 21.25C13.6716 21.25 14.8478 21.248 15.7375 21.125C16.6034 21.0052 17.0868 20.7838 17.4377 20.4229C17.7914 20.059 18.0104 19.5532 18.1282 18.6523C18.2484 17.732 18.2502 16.5172 18.2502 14.7998V11.1992C18.2502 9.4818 18.2484 8.26704 18.1282 7.34668C18.0104 6.4458 17.7915 5.94008 17.4377 5.57617C17.1181 5.24742 16.6901 5.03604 15.969 4.91016C15.2242 4.7802 14.2457 4.75414 12.8733 4.75C12.4592 4.74875 12.1242 4.41212 12.1252 3.99805C12.1265 3.58394 12.4631 3.24892 12.8772 3.25ZM15.0002 18.25C15.4144 18.2501 15.7502 18.5858 15.7502 19C15.7502 19.4142 15.4144 19.7499 15.0002 19.75H9.00024C8.58603 19.75 8.25024 19.4142 8.25024 19C8.25024 18.5858 8.58603 18.25 9.00024 18.25H15.0002ZM10.3508 4.0498C10.5595 4.0499 10.7598 4.13705 10.9016 4.29004L11.55 4.99023C11.8315 5.29392 11.8135 5.76821 11.51 6.0498C11.3755 6.17449 11.2072 6.23668 11.0374 6.24512C10.7093 8.20095 9.11486 9.74983 7.10571 9.75C5.97289 9.7499 4.95943 9.24831 4.24146 8.46289C3.96212 8.15723 3.98287 7.68279 4.28833 7.40332C4.59408 7.12408 5.06852 7.14552 5.3479 7.45117C5.8068 7.95323 6.42983 8.2499 7.10571 8.25C8.21882 8.24984 9.2191 7.41917 9.51196 6.22168C9.39672 6.19141 9.28614 6.13642 9.19263 6.0498C8.88889 5.76818 8.87096 5.29398 9.15259 4.99023L9.80103 4.29004C9.94286 4.13716 10.1423 4.04991 10.3508 4.0498ZM6.89478 1.25C8.11284 1.25021 9.19189 1.82958 9.91528 2.71777C10.1764 3.03887 10.1277 3.51097 9.80688 3.77246C9.48587 4.03392 9.01385 3.9858 8.7522 3.66504C8.28636 3.09308 7.62024 2.75021 6.89478 2.75C5.78177 2.75 4.78068 3.58015 4.48755 4.77734C4.60318 4.80756 4.71408 4.86328 4.80786 4.9502C5.11138 5.23179 5.12931 5.70608 4.8479 6.00977L4.19946 6.70996C4.0577 6.86286 3.85814 6.95 3.64966 6.9502C3.44099 6.9502 3.2408 6.86293 3.09888 6.70996L2.45044 6.00977C2.16882 5.70602 2.18674 5.23182 2.49048 4.9502C2.62502 4.82553 2.79322 4.76227 2.96313 4.75391C3.2916 2.79844 4.88582 1.25 6.89478 1.25Z" fill="#48465C"/>
</svg>
