<svg width="24" height="24" viewBox="0 0 24 24" fill="none" xmlns="http://www.w3.org/2000/svg">
<path d="M22 10.75V12C22 15.77 22.0001 17.6601 20.8301 18.8301C19.6601 20.0001 17.77 20 14 20H10C6.23 20 4.33992 20.0001 3.16992 18.8301C1.99992 17.6601 2 15.77 2 12V10.75H22ZM6 15.25C5.80109 15.25 5.61038 15.3291 5.46973 15.4697C5.32907 15.6104 5.25 15.8011 5.25 16C5.25 16.1989 5.32907 16.3896 5.46973 16.5303C5.61038 16.6709 5.80109 16.75 6 16.75H10C10.1989 16.75 10.3896 16.6709 10.5303 16.5303C10.6709 16.3896 10.75 16.1989 10.75 16C10.75 15.8011 10.6709 15.6104 10.5303 15.4697C10.3896 15.3291 10.1989 15.25 10 15.25H6ZM12.5 15.25C12.3011 15.25 12.1104 15.3291 11.9697 15.4697C11.8291 15.6104 11.75 15.8011 11.75 16C11.75 16.1989 11.8291 16.3896 11.9697 16.5303C12.1104 16.6709 12.3011 16.75 12.5 16.75H14C14.1989 16.75 14.3896 16.6709 14.5303 16.5303C14.6709 16.3896 14.75 16.1989 14.75 16C14.75 15.8011 14.6709 15.6104 14.5303 15.4697C14.3896 15.3291 14.1989 15.25 14 15.25H12.5ZM14 4C17.77 4 19.6604 3.99992 20.8604 5.16992C21.7002 6.01992 21.94 7.25011 22 9.25H2C2.09 7.23 2.32992 5.99992 3.16992 5.16992C4.33992 3.99992 6.23 4 10 4H14Z" fill="#48465C"/>
</svg>
