<svg width="24" height="24" viewBox="0 0 24 24" fill="none" xmlns="http://www.w3.org/2000/svg">
<path d="M17.5 4.03711C18.7578 4.10768 19.5518 4.30773 20.1211 4.87695C20.9998 5.75561 21 7.16976 21 9.99805V15.998C21 18.8263 20.9997 20.2404 20.1211 21.1191C19.2424 21.9978 17.8284 21.998 15 21.998H9C6.17157 21.998 4.75759 21.9978 3.87891 21.1191C3.00034 20.2404 3 18.8263 3 15.998V9.99805C3 7.16976 3.00025 5.75561 3.87891 4.87695C4.44819 4.30774 5.24218 4.10768 6.5 4.03711V4.5C6.5 6.15685 7.84315 7.5 9.5 7.5H14.5C16.1569 7.5 17.5 6.15685 17.5 4.5V4.03711ZM7 17.25C6.58579 17.25 6.25 17.5858 6.25 18C6.25 18.4142 6.58579 18.75 7 18.75H12.5C12.9142 18.75 13.25 18.4142 13.25 18C13.25 17.5858 12.9142 17.25 12.5 17.25H7ZM7 13.75C6.58579 13.75 6.25 14.0858 6.25 14.5C6.25 14.9142 6.58579 15.25 7 15.25H15C15.4142 15.25 15.75 14.9142 15.75 14.5C15.75 14.0858 15.4142 13.75 15 13.75H7ZM14.5 2C15.3284 2 16 2.67157 16 3.5V4.5C16 5.32843 15.3284 6 14.5 6H9.5C8.67157 6 8 5.32843 8 4.5V3.5C8 2.67157 8.67157 2 9.5 2H14.5Z" fill="#1C274C"/>
</svg>
