<svg width="24" height="24" viewBox="0 0 24 24" fill="none" xmlns="http://www.w3.org/2000/svg">
<path fill-rule="evenodd" clip-rule="evenodd" d="M13.294 1.25005C14.3816 1.24953 15.1378 1.24884 15.8291 1.5352C16.5204 1.82157 17.0546 2.3566 17.8233 3.12602L20.8741 6.1768C21.6435 6.94549 22.1785 7.47972 22.4649 8.17094C22.7513 8.86224 22.7505 9.61854 22.75 10.7061V13.294C22.7505 14.3816 22.7513 15.1378 22.4649 15.8291C22.1785 16.5204 21.6435 17.0546 20.8741 17.8233L17.8233 20.8741C17.0545 21.6435 16.5204 22.1786 15.8291 22.4649C15.1378 22.7513 14.3816 22.7506 13.294 22.75H10.7061C9.61847 22.7506 8.86226 22.7513 8.17094 22.4649C7.47968 22.1786 6.94551 21.6436 6.1768 20.8741L3.12602 17.8233C2.35658 17.0546 1.82156 16.5204 1.5352 15.8291C1.24883 15.1378 1.24953 14.3816 1.25005 13.294V10.7061C1.24953 9.61854 1.24886 8.86224 1.5352 8.17094C1.8216 7.47972 2.3566 6.94549 3.12602 6.1768L6.1768 3.12602C6.94547 2.35661 7.47968 1.82157 8.17094 1.5352C8.86226 1.24885 9.61847 1.24953 10.7061 1.25005H13.294ZM6.24223 18.8184L7.13676 19.7129C8.0469 20.6231 8.36377 20.9212 8.74516 21.0791C9.12656 21.2371 9.56146 21.25 10.8487 21.25H13.1514C14.4387 21.25 14.8736 21.2371 15.2549 21.0791C15.6364 20.9212 15.9532 20.6231 16.8633 19.7129L19.712 16.8633C20.6223 15.9529 20.9211 15.6364 21.0791 15.2549C21.2371 14.8736 21.25 14.4386 21.25 13.1514V10.8487C21.25 9.56156 21.2371 9.12655 21.0791 8.74516C20.9211 8.36377 20.6222 8.04705 19.712 7.13676L18.8184 6.24223L6.24223 18.8184ZM10.8487 2.75005C9.56146 2.75005 9.12656 2.76393 8.74516 2.92192C8.36385 3.07995 8.04691 3.378 7.13676 4.28813L4.28813 7.13676C3.37783 8.04706 3.07894 8.36376 2.92094 8.74516C2.76296 9.12655 2.75005 9.56156 2.75005 10.8487V13.1514C2.75005 14.4386 2.76299 14.8736 2.92094 15.2549C3.07893 15.6364 3.37776 15.9529 4.28813 16.8633L5.18169 17.7579L17.7579 5.18169L16.8633 4.28813C15.9532 3.378 15.6363 3.07995 15.2549 2.92192C14.8736 2.76393 14.4387 2.75005 13.1514 2.75005H10.8487Z" fill="#1C274C"/>
</svg>
