<svg width="24" height="24" viewBox="0 0 24 24" fill="none" xmlns="http://www.w3.org/2000/svg">
<path d="M12.629 2.92395C14.9675 0.667212 18.6926 0.692729 21.0001 3.00012C23.3074 5.30752 23.333 9.03279 21.0763 11.3712L14.9689 22.3644C14.7677 22.7263 14.3114 22.8564 13.9493 22.6554C13.5873 22.4543 13.4564 21.9979 13.6573 21.6359L18.4825 12.9503C16.6765 13.4867 14.6671 13.1516 13.1154 11.9454L5.5304 19.5304C5.23756 19.8232 4.76275 19.8231 4.46985 19.5304C4.17696 19.2375 4.17695 18.7627 4.46985 18.4698L12.0548 10.8849C10.8483 9.33303 10.5133 7.32289 11.0499 5.51672L2.36438 10.3429C2.00231 10.544 1.54502 10.413 1.34387 10.0509C1.14297 9.68887 1.27388 9.23247 1.63586 9.03137L12.629 2.92395ZM14.1866 10.8741C15.634 11.9034 17.5569 11.9682 19.0646 11.0695C18.9965 11.0305 18.9258 10.9892 18.8527 10.9454C18.15 10.5238 17.2223 9.87101 16.1691 8.89075L14.1866 10.8741ZM19.9396 4.06067C18.3117 2.43278 15.7411 2.32116 13.9845 3.72668C14.0692 3.89853 14.1859 4.11776 14.3409 4.3761C14.7721 5.09474 15.5041 6.12331 16.6906 7.30969C17.8771 8.4962 18.9056 9.22819 19.6241 9.6593C19.8822 9.81411 20.1009 9.9301 20.2726 10.0148C21.6781 8.25819 21.5673 5.68857 19.9396 4.06067ZM12.9298 4.93567C12.0313 6.4432 12.0971 8.36537 13.1261 9.81262L15.1085 7.8302C14.1286 6.77724 13.4764 5.85027 13.0548 5.14758C13.0109 5.07447 12.9688 5.00377 12.9298 4.93567Z" fill="#1C274C"/>
</svg>
