<svg width="24" height="24" viewBox="0 0 24 24" fill="none" xmlns="http://www.w3.org/2000/svg">
<path d="M12.6292 2.92407C14.9677 0.667334 18.6927 0.692851 21.0002 3.00024C23.3075 5.30764 23.3332 9.03291 21.0764 11.3713L14.969 22.3645C14.7678 22.7264 14.3115 22.8565 13.9495 22.6555C13.5874 22.4545 13.4565 21.9981 13.6575 21.636L18.4827 12.9504C16.6766 13.4868 14.6672 13.1517 13.1155 11.9456L5.53052 19.5305C5.23767 19.8233 4.76285 19.8232 4.46997 19.5305C4.1771 19.2376 4.17712 18.7629 4.46997 18.47L12.0549 10.885C10.8484 9.33315 10.5134 7.32302 11.05 5.51685L2.3645 10.343C2.00247 10.544 1.54613 10.413 1.34497 10.051C1.14382 9.68896 1.27392 9.23266 1.63599 9.03149L12.6292 2.92407ZM14.1868 10.8743C15.6342 11.9036 17.557 11.9683 19.0647 11.0696C18.9966 11.0306 18.9259 10.9893 18.8528 10.9456C18.1501 10.524 17.2234 9.87108 16.1702 8.89087L14.1868 10.8743ZM19.9397 4.06079C18.3118 2.4329 15.7412 2.32129 13.9846 3.72681C14.0693 3.89859 14.1862 4.11703 14.3411 4.37524C14.7722 5.0939 15.504 6.12319 16.6907 7.30981C17.8772 8.49631 18.9057 9.22831 19.6243 9.65942C19.8826 9.81439 20.1019 9.9302 20.2737 10.0149C21.6789 8.25831 21.5673 5.68856 19.9397 4.06079ZM12.9309 4.93579C12.0322 6.44338 12.0971 8.36538 13.1262 9.81274L15.1096 7.83032C14.1295 6.77721 13.4765 5.85047 13.0549 5.14771C13.0111 5.07474 12.9698 5.00377 12.9309 4.93579Z" fill="#48465C"/>
</svg>
