<svg width="24" height="24" viewBox="0 0 24 24" fill="none" xmlns="http://www.w3.org/2000/svg">
<path d="M12 2C16.714 2 19.0708 2.00037 20.5352 3.46484C21.9996 4.9293 22 7.28597 22 12C22 16.714 21.9997 19.0708 20.5352 20.5352C19.0708 21.9997 16.714 22 12 22C7.28597 22 4.9293 21.9996 3.46484 20.5352C2.00037 19.0708 2 16.714 2 12C2 7.28595 2.00037 4.9293 3.46484 3.46484C4.9293 2.00037 7.28595 2 12 2ZM14.0303 8.46973C13.7374 8.17684 13.2626 8.17684 12.9697 8.46973L9.96973 11.4697C9.82908 11.6103 9.75 11.8011 9.75 12C9.75 12.1989 9.82908 12.3897 9.96973 12.5303L12.9697 15.5303C13.2626 15.8232 13.7374 15.8232 14.0303 15.5303C14.3232 15.2374 14.3232 14.7626 14.0303 14.4697L11.5605 12L14.0303 9.53027C14.3232 9.23739 14.3232 8.76261 14.0303 8.46973Z" fill="#1C274C"/>
</svg>
