<svg width="24" height="24" viewBox="0 0 24 24" fill="none" xmlns="http://www.w3.org/2000/svg">
<path fill-rule="evenodd" clip-rule="evenodd" d="M13.4694 16.4697C13.7623 16.1769 14.237 16.177 14.53 16.4697C14.8229 16.7626 14.8229 17.2374 14.53 17.5303L13.0602 19L14.53 20.4697C14.8229 20.7626 14.8229 21.2374 14.53 21.5303C14.237 21.823 13.7623 21.8231 13.4694 21.5303L11.9997 20.0605L10.53 21.5303C10.237 21.823 9.76226 21.8231 9.46941 21.5303C9.17669 21.2374 9.17669 20.7626 9.46941 20.4697L10.9391 19L9.46941 17.5303C9.17669 17.2374 9.17669 16.7626 9.46941 16.4697C9.76226 16.1769 10.237 16.177 10.53 16.4697L11.9997 17.9395L13.4694 16.4697ZM7.71453 3.25C8.74733 3.25 9.75532 3.57037 10.5983 4.16699L11.1003 4.52246C11.3633 4.70851 11.6776 4.80854 11.9997 4.80859C12.3221 4.80859 12.637 4.70868 12.9001 4.52246L13.402 4.16699C14.245 3.57045 15.2522 3.25001 16.2848 3.25H16.8971C17.3224 3.25 17.8361 3.27484 18.3415 3.4541C19.7846 3.96598 20.9257 5.14195 21.6774 7.04492C22.4214 8.92853 22.8038 11.5642 22.7438 15.1152C22.7311 15.8646 22.6374 16.7044 22.3493 17.4609C22.0574 18.2274 21.5473 18.9499 20.6891 19.3604C20.201 19.5938 19.6257 19.75 18.9733 19.75C16.9311 19.75 15.9363 18.2618 15.6882 17.4717C15.5641 17.0765 15.7842 16.6554 16.1794 16.5312C16.5746 16.4072 16.9957 16.6273 17.1198 17.0225C17.239 17.4013 17.7863 18.25 18.9733 18.25C19.3808 18.25 19.736 18.1539 20.0417 18.0078C20.4574 17.809 20.7502 17.4467 20.9479 16.9277C21.1493 16.3987 21.2326 15.7523 21.2438 15.0898C21.3022 11.6334 20.9245 9.21992 20.2829 7.5957C19.6492 5.9915 18.7798 5.20042 17.8405 4.86719C17.5841 4.77625 17.2803 4.75 16.8971 4.75H16.2848C15.5625 4.75001 14.8579 4.9743 14.2682 5.3916L13.7663 5.74707C13.2499 6.11248 12.6324 6.30859 11.9997 6.30859C11.3671 6.30854 10.7495 6.11255 10.2331 5.74707L9.73211 5.3916C9.14245 4.97429 8.43693 4.75 7.71453 4.75H7.10222C6.71928 4.75001 6.41618 4.7763 6.15984 4.86719C5.22049 5.20035 4.35123 5.99143 3.71746 7.5957C3.07592 9.21993 2.69708 11.6334 2.75554 15.0898C2.76675 15.7523 2.85095 16.3987 3.05242 16.9277C3.25009 17.4466 3.54202 17.809 3.95769 18.0078C4.26344 18.154 4.61937 18.25 5.02703 18.25C6.21396 18.2498 6.76146 17.4012 6.88054 17.0225C7.00459 16.6274 7.42493 16.4074 7.82 16.5312C8.21518 16.6553 8.4353 17.0765 8.31121 17.4717C8.063 18.2618 7.06885 19.7498 5.02703 19.75C4.37463 19.75 3.79844 19.5939 3.31023 19.3604C2.45235 18.9499 1.94199 18.2273 1.65008 17.4609C1.36206 16.7045 1.2692 15.8646 1.25652 15.1152C1.19645 11.5643 1.57797 8.92852 2.32195 7.04492C3.07368 5.14179 4.21566 3.96596 5.65886 3.4541C6.1641 3.27497 6.67713 3.25001 7.10222 3.25H7.71453ZM7.49968 8.25C7.9139 8.25 8.24968 8.58579 8.24968 9V9.75H8.99968C9.4139 9.75 9.74968 10.0858 9.74968 10.5C9.74968 10.9142 9.4139 11.25 8.99968 11.25H8.24968V12C8.24968 12.4142 7.9139 12.75 7.49968 12.75C7.0856 12.7498 6.74968 12.4141 6.74968 12V11.25H5.99968C5.5856 11.2498 5.24968 10.9141 5.24968 10.5C5.24968 10.0859 5.5856 9.75015 5.99968 9.75H6.74968V9C6.74968 8.58588 7.0856 8.25015 7.49968 8.25ZM16.7497 11C17.1639 11 17.4997 11.3358 17.4997 11.75C17.4997 12.1642 17.1639 12.5 16.7497 12.5C16.3356 12.4998 15.9997 12.1641 15.9997 11.75C15.9997 11.3359 16.3356 11.0002 16.7497 11ZM15.2497 9.5C15.6639 9.5 15.9997 9.83579 15.9997 10.25C15.9997 10.6642 15.6639 11 15.2497 11C14.8356 10.9998 14.4997 10.6641 14.4997 10.25C14.4997 9.83588 14.8356 9.50015 15.2497 9.5ZM18.2497 9.5C18.6639 9.5 18.9997 9.83579 18.9997 10.25C18.9997 10.6642 18.6639 11 18.2497 11C17.8356 10.9998 17.4997 10.6641 17.4997 10.25C17.4997 9.83588 17.8356 9.50015 18.2497 9.5ZM16.7497 8C17.1639 8 17.4997 8.33579 17.4997 8.75C17.4997 9.16421 17.1639 9.5 16.7497 9.5C16.3356 9.49985 15.9997 9.16412 15.9997 8.75C15.9997 8.33588 16.3356 8.00015 16.7497 8Z" fill="#1C274C"/>
</svg>
