<svg width="24" height="24" viewBox="0 0 24 24" fill="none" xmlns="http://www.w3.org/2000/svg">
<path d="M1.64844 15.3379C1.89346 15.2078 2.19008 15.2235 2.41992 15.3789L3.91992 16.3926C4.26308 16.6246 4.35307 17.0914 4.12109 17.4346C3.88907 17.7773 3.4231 17.8675 3.08008 17.6357L2.98047 17.5684C3.55749 19.4776 5.16033 20.9264 7.12598 21.2607C7.53422 21.3303 7.80872 21.7177 7.73926 22.126C7.66975 22.5343 7.28233 22.8088 6.87402 22.7393C3.67451 22.1949 1.25 19.3788 1.25 16C1.25004 15.7226 1.40342 15.4681 1.64844 15.3379ZM9.62598 1.25C10.4519 1.25001 11.1485 1.59253 11.8438 2.12305C12.5125 2.63327 13.2612 3.3823 14.1875 4.30859L19.6914 9.8125C20.6179 10.7389 21.3668 11.4884 21.877 12.1572C22.4074 12.8524 22.75 13.5483 22.75 14.374C22.75 15.1999 22.4076 15.8964 21.877 16.5918C21.3668 17.2605 20.6178 18.0092 19.6914 18.9355L18.9355 19.6914C18.0093 20.6178 17.2605 21.3668 16.5918 21.877C15.8964 22.4076 15.1999 22.75 14.374 22.75C13.5481 22.75 12.8515 22.4075 12.1562 21.877C11.4875 21.3668 10.7388 20.6177 9.8125 19.6914L4.30859 14.1875C3.38226 13.2612 2.63327 12.5124 2.12305 11.8438C1.59252 11.1483 1.25 10.4519 1.25 9.62598C1.25002 8.80008 1.59253 8.10353 2.12305 7.4082C2.63329 6.7395 3.38228 5.99074 4.30859 5.06445L5.06445 4.30859C5.99075 3.38227 6.7395 2.63327 7.4082 2.12305C8.10355 1.59252 8.80005 1.25 9.62598 1.25ZM9.62598 2.75C9.25992 2.75 8.88018 2.88679 8.31836 3.31543C7.73918 3.75732 7.06103 4.43408 6.08691 5.4082L5.4082 6.08691C4.43402 7.0611 3.75734 7.73916 3.31543 8.31836C2.88674 8.88022 2.75002 9.25992 2.75 9.62598C2.75 9.99204 2.88678 10.3718 3.31543 10.9336C3.75736 11.5128 4.43394 12.1917 5.4082 13.166L10.835 18.5918C11.8091 19.566 12.4872 20.2427 13.0664 20.6846C13.6284 21.1132 14.008 21.25 14.374 21.25C14.7401 21.25 15.1198 21.1132 15.6816 20.6846C16.2608 20.2427 16.9398 19.566 17.9141 18.5918L18.5918 17.9141C19.566 16.9398 20.2426 16.2609 20.6846 15.6816C21.1132 15.1198 21.25 14.7401 21.25 14.374C21.25 14.008 21.1132 13.6283 20.6846 13.0664C20.2426 12.4872 19.566 11.8091 18.5918 10.835L13.165 5.4082C12.1909 4.43405 11.5128 3.75733 10.9336 3.31543C10.3717 2.88679 9.99203 2.75001 9.62598 2.75ZM14.1826 14.1836C15.0374 13.3288 16.4235 13.3288 17.2783 14.1836C18.1331 15.0384 18.1331 16.4244 17.2783 17.2793C16.4235 18.1338 15.0373 18.1339 14.1826 17.2793C13.3279 16.4245 13.3281 15.0384 14.1826 14.1836ZM16.2178 15.2441C15.9488 14.975 15.5122 14.975 15.2432 15.2441C14.9745 15.513 14.9746 15.9488 15.2432 16.2178C15.5122 16.4868 15.9488 16.4868 16.2178 16.2178C16.4867 15.9488 16.4868 15.5131 16.2178 15.2441ZM8.41699 5.02637C8.70988 4.73348 9.18465 4.73348 9.47754 5.02637C9.77042 5.31926 9.77043 5.79403 9.47754 6.08691L6.08594 9.47852C5.79301 9.771 5.31814 9.77127 5.02539 9.47852C4.73263 9.18576 4.7329 8.7109 5.02539 8.41797L8.41699 5.02637ZM16.2607 1.87402C16.3304 1.46586 16.7177 1.19129 17.126 1.26074C20.3255 1.80513 22.7499 4.6212 22.75 8C22.75 8.27746 22.5966 8.53198 22.3516 8.66211C22.1065 8.79224 21.8099 8.77649 21.5801 8.62109L20.0801 7.60742C19.7369 7.37547 19.647 6.90955 19.8789 6.56641C20.1108 6.22325 20.5768 6.13325 20.9199 6.36523L21.0195 6.43164C20.4424 4.52248 18.8396 3.07363 16.874 2.73926C16.4658 2.66969 16.1914 2.28229 16.2607 1.87402Z" fill="#48465C"/>
</svg>
